<?xml version="1.0" encoding="utf-8"?>
<!-- Generator: Adobe Illustrator 24.2.1, SVG Export Plug-In . SVG Version: 6.00 Build 0)  -->
<svg version="1.1" id="Layer_1" xmlns="http://www.w3.org/2000/svg" xmlns:xlink="http://www.w3.org/1999/xlink" x="0px" y="0px"
	 viewBox="0 0 400 400" style="enable-background:new 0 0 400 400;" xml:space="preserve">
<style type="text/css">
	.st0{fill:#FFFFFF;}
</style>
<path class="st0" d="M50,210.9h269.8l-75.7,65.4c-4.5,3.9-5,10.8-1.1,15.3c3.9,4.5,10.8,5,15.3,1.1l98.8-85.3c2.4-2,3.7-5,3.8-8.1
	c0-3.1-1.3-6.1-3.6-8.2l-64.3-57.4L259.1,107c-2-1.6-4.4-2.3-6.7-2.3c-3.2,0-6.4,1.4-8.5,4.1c-3.7,4.7-2.9,11.5,1.8,15.2l33.2,26.2
	l43.6,38.9H50c-6,0-10.8,4.8-10.8,10.8C39.2,206,44,210.9,50,210.9z"/>
</svg>
