<svg width="150" height="150" viewBox="0 0 150 150" fill="none" xmlns="http://www.w3.org/2000/svg">
<path d="M144.999 5H88.5479V145H144.999V5Z" stroke="#663366" stroke-width="4.23387" stroke-miterlimit="10"/>
<path d="M88.5479 21.9375H61.4512" stroke="#663366" stroke-width="4.23387" stroke-miterlimit="10"/>
<path d="M88.5479 145H61.4512" stroke="#663366" stroke-width="4.23387" stroke-miterlimit="10"/>
<path d="M61.4516 5H5V145H61.4516V5Z" stroke="#663366" stroke-width="4.23387" stroke-miterlimit="10"/>
<path d="M27.5801 82.6224L27.5801 71.332H16.2898V82.6224H27.5801Z" stroke="#663366" stroke-width="4.23387" stroke-miterlimit="10"/>
<path d="M50.1611 82.6224V71.332H38.8708V82.6224H50.1611Z" stroke="#663366" stroke-width="4.23387" stroke-miterlimit="10"/>
<path d="M27.5801 105.204L27.5801 93.9141H16.2898V105.204H27.5801Z" stroke="#663366" stroke-width="4.23387" stroke-miterlimit="10"/>
<path d="M50.1611 105.204V93.9141H38.8708V105.204H50.1611Z" stroke="#663366" stroke-width="4.23387" stroke-miterlimit="10"/>
<path d="M48.7496 125.242H17.7012V145H48.7496V125.242Z" stroke="#663366" stroke-width="4.23387" stroke-miterlimit="10"/>
<path d="M33.2256 125.242V145" stroke="#663366" stroke-width="4.23387" stroke-miterlimit="10"/>
<path d="M52.9839 116.773H13.4678V125.241H52.9839V116.773Z" stroke="#663366" stroke-width="4.23387" stroke-miterlimit="10"/>
<path d="M133.71 82.6224L133.71 71.332L122.42 71.332L122.42 82.6224L133.71 82.6224Z" stroke="#663366" stroke-width="4.23387" stroke-miterlimit="10"/>
<path d="M111.129 82.6224L111.129 71.332L99.8386 71.332L99.8386 82.6224L111.129 82.6224Z" stroke="#663366" stroke-width="4.23387" stroke-miterlimit="10"/>
<path d="M80.0811 48.1886L80.0811 38.0273L69.9198 38.0273L69.9198 48.1886L80.0811 48.1886Z" stroke="#663366" stroke-width="4.23387" stroke-miterlimit="10"/>
<path d="M80.0811 70.7668L80.0811 60.6055L69.9198 60.6055L69.9198 70.7668L80.0811 70.7668Z" stroke="#663366" stroke-width="4.23387" stroke-miterlimit="10"/>
<path d="M80.0811 93.3488L80.0811 83.1875L69.9198 83.1875L69.9198 93.3488L80.0811 93.3488Z" stroke="#663366" stroke-width="4.23387" stroke-miterlimit="10"/>
<path d="M80.0811 115.927L80.0811 105.766L69.9198 105.766L69.9198 115.927L80.0811 115.927Z" stroke="#663366" stroke-width="4.23387" stroke-miterlimit="10"/>
<path d="M133.71 105.204L133.71 93.9141L122.42 93.9141L122.42 105.204L133.71 105.204Z" stroke="#663366" stroke-width="4.23387" stroke-miterlimit="10"/>
<path d="M111.129 105.204L111.129 93.9141L99.8386 93.9141L99.8386 105.204L111.129 105.204Z" stroke="#663366" stroke-width="4.23387" stroke-miterlimit="10"/>
<path d="M101.25 145L132.299 145L132.299 125.242L101.25 125.242L101.25 145Z" stroke="#663366" stroke-width="4.23387" stroke-miterlimit="10"/>
<path d="M116.774 125.242V145" stroke="#663366" stroke-width="4.23387" stroke-miterlimit="10"/>
<path d="M97.0161 125.242L136.532 125.242L136.532 116.774L97.0161 116.774L97.0161 125.242Z" stroke="#663366" stroke-width="4.23387" stroke-miterlimit="10"/>
<path d="M101.377 38.7927L97.0156 37.2419C97.0156 34.6401 97.0156 34.6333 97.0156 32.0314L101.377 30.4807L102.947 26.6883L100.96 22.5081C102.8 20.6683 102.805 20.6635 104.645 18.8235L108.825 20.8106C110.339 20.1834 111.104 19.8667 112.617 19.2398L114.168 14.8789C116.77 14.8789 116.777 14.8789 119.379 14.8789L120.93 19.2398C122.443 19.867 123.208 20.1837 124.722 20.8106L128.902 18.8235C130.742 20.6632 130.747 20.668 132.587 22.5081L130.6 26.6883C131.227 28.2021 131.544 28.967 132.171 30.4807L136.531 32.0314C136.531 34.6333 136.531 34.6401 136.531 37.2419L132.171 38.7927C131.543 40.3064 131.227 41.0713 130.6 42.5851L132.587 46.7653C130.747 48.6051 130.742 48.6099 128.902 50.4499L124.722 48.4628C123.208 49.09 122.443 49.4067 120.93 50.0336L119.379 54.3945C116.777 54.3945 116.77 54.3945 114.168 54.3945L112.617 50.0336L108.825 48.4628L104.645 50.4499C102.805 48.6102 102.8 48.6054 100.96 46.7653L102.947 42.5851L101.377 38.7927Z" stroke="#663366" stroke-width="4.23387" stroke-miterlimit="10"/>
<path d="M116.774 40.2825C119.892 40.2825 122.419 37.7551 122.419 34.6373C122.419 31.5196 119.892 28.9922 116.774 28.9922C113.656 28.9922 111.129 31.5196 111.129 34.6373C111.129 37.7551 113.656 40.2825 116.774 40.2825Z" stroke="#663366" stroke-width="4.23387" stroke-miterlimit="10"/>
<path d="M50.7255 60.042H16.8545V57.2194C16.8545 54.1016 19.3818 51.5742 22.4997 51.5742H45.0803C48.1981 51.5742 50.7255 54.1016 50.7255 57.2194V60.042Z" stroke="#663366" stroke-width="4.23387" stroke-miterlimit="10"/>
<path d="M28.71 20.5273H39.4358C45.6711 20.5273 50.7261 25.5823 50.7261 31.8177C50.7261 38.053 45.6711 43.108 39.4358 43.108" stroke="#663366" stroke-width="4.23387" stroke-miterlimit="10"/>
<path d="M30.9674 43.1055H16.8545" stroke="#663366" stroke-width="4.23387" stroke-miterlimit="10"/>
<path d="M39.7177 51.5755H31.25V44.519C31.25 42.1808 33.1456 40.2852 35.4839 40.2852C37.8221 40.2852 39.7177 42.1808 39.7177 44.519V51.5755Z" stroke="#663366" stroke-width="4.23387" stroke-miterlimit="10"/>
<path d="M28.7099 17.7031H20.2422V30.1225H28.7099V17.7031Z" stroke="#663366" stroke-width="4.23387" stroke-miterlimit="10"/>
<path d="M24.4756 11.4922V17.7019" stroke="#663366" stroke-width="4.23387" stroke-miterlimit="10"/>
<path d="M24.4756 30.1211V36.3308" stroke="#663366" stroke-width="4.23387" stroke-miterlimit="10"/>
</svg>
