<svg width="150" height="150" viewBox="0 0 150 150" fill="none" xmlns="http://www.w3.org/2000/svg">
<path d="M142.734 98.8987H138.231V92.8953C138.231 92.075 137.788 91.3155 137.071 90.9144C131.572 87.8458 128.479 84.9718 125.744 82.4379C121.108 78.1359 117.098 74.4172 104.732 72.3877C100.94 71.7679 97.1124 71.3243 93.5334 70.9355C93.1566 70.8929 92.7009 70.8747 92.1844 70.8747C90.6471 70.8747 88.4779 71.057 85.865 71.3729H85.8589C85.8468 71.3729 85.8346 71.379 85.8225 71.379C79.8069 72.1021 71.4033 73.5058 62.6588 74.9762C50.0139 77.0969 36.9316 79.2904 31.5354 79.2904C30.5511 79.2904 30.15 79.2114 30.0346 79.1871C27.2638 77.7288 24.1527 77.9232 21.0659 79.7826C20.6709 80.0195 20.361 80.3781 20.1727 80.7913C17.6388 86.424 16.375 89.2253 16.375 89.2253C16.2413 89.5169 16.1744 89.839 16.1744 90.161V98.8988L7.26643 98.9049C6.0147 98.8988 5 99.9136 5 101.165V111.064C5 112.315 6.01475 113.33 7.26643 113.33H52.9964V116.733C52.9964 119.893 55.5667 122.463 58.7325 122.463H62.5666V127.433H50.9669C47.8073 127.433 45.2308 130.004 45.2308 133.169V142.734C45.2308 143.985 46.2456 145 47.4973 145H102.494C103.745 145 104.76 143.985 104.76 142.734V133.169C104.76 130.01 102.19 127.433 99.024 127.433H87.3877V122.463H91.2523C94.4119 122.463 96.9823 119.893 96.9823 116.733V113.33H142.712C143.964 113.33 144.979 112.315 144.979 111.064V101.165C144.997 99.9136 143.982 98.8989 142.731 98.8989L142.734 98.8987ZM83.8656 76.2095V85.7676C83.8656 86.5757 83.2094 87.232 82.4012 87.232H67.5993C66.7729 87.232 66.0984 86.5757 66.0984 85.7676V79.0168C72.6913 77.917 78.9072 76.8901 83.8656 76.2095ZM20.7026 90.6531C21.128 89.7113 22.2278 87.2807 23.996 83.3493C25.4787 82.608 26.7304 82.5655 27.9518 83.2278C28.7356 83.6532 29.8111 83.8415 31.5369 83.8415C37.036 83.8415 49.3292 81.8241 61.5729 79.7703V85.7678C61.5729 89.0794 64.2769 91.7652 67.6067 91.7652H82.4087C85.7203 91.7652 88.4061 89.0733 88.4061 85.7678V75.6628C89.9313 75.5109 91.2256 75.4197 92.1917 75.4197C92.532 75.4197 92.8297 75.4319 93.0667 75.4501C96.5728 75.8329 100.328 76.2643 104.01 76.8659C115.027 78.6706 118.235 81.6479 122.671 85.7618C125.399 88.2895 128.461 91.1332 133.711 94.2079V102.259L20.704 102.265L20.7026 90.6531ZM100.236 133.169V140.467H49.7665V133.169C49.7665 132.519 50.3194 131.966 50.9635 131.966H99.0268C99.6831 131.966 100.236 132.519 100.236 133.169ZM82.8701 127.433H67.1015V122.463H82.8701V127.433ZM92.4708 116.733C92.4708 117.395 91.93 117.93 91.2737 117.93L58.7348 117.936C58.0482 117.936 57.5377 117.419 57.5377 116.739V113.336H92.4707L92.4708 116.733ZM140.467 108.803H9.53363V103.438H16.169V104.544C16.169 105.795 17.1837 106.81 18.4354 106.81H135.971C137.223 106.81 138.237 105.795 138.237 104.544V103.438H140.468L140.467 108.803ZM72.6002 82.267C72.6002 81.0153 73.615 79.9945 74.8666 79.9945H75.134C76.3857 79.9945 77.4004 81.0092 77.4004 82.267C77.4004 83.5187 76.3857 84.5334 75.134 84.5334H74.8666C73.6149 84.5334 72.6002 83.5187 72.6002 82.267ZM37.437 58.8C38.7495 58.8 39.9709 58.405 40.9918 57.7366L55.5508 68.4918C55.9579 68.7896 56.4258 68.9293 56.8937 68.9293C57.5864 68.9293 58.273 68.6134 58.7166 68.0118C59.464 67.0031 59.2452 65.5873 58.2366 64.846L43.6715 54.0847C43.8356 53.5196 43.9267 52.918 43.9267 52.2983C43.9267 50.9372 43.5014 49.6733 42.7844 48.6281L52.5308 34.8651C54.056 34.5613 55.4656 33.7228 56.4621 32.4893C56.6627 32.2402 56.8085 31.9546 56.8875 31.6508L59.3059 22.5667H66.9561L69.3745 31.6508C69.4535 31.9607 69.5993 32.2463 69.7998 32.4893C70.5715 33.4494 71.5984 34.1664 72.7347 34.5857V43.7793C70.2677 44.7029 68.4994 47.0788 68.4994 49.8618C68.4994 52.6509 70.2676 55.0207 72.7347 55.9443V62.5251C72.7347 63.7768 73.7494 64.7976 75.0011 64.7976C76.2528 64.7976 77.2676 63.7828 77.2676 62.5251V55.9443C79.7345 55.0207 81.5028 52.6509 81.5028 49.8618C81.5028 47.0788 79.7407 44.703 77.2676 43.7793V34.5857C78.3978 34.1665 79.4246 33.4495 80.2024 32.4893C80.4029 32.2402 80.5488 31.9546 80.6277 31.6508L83.0462 22.5667H90.6659L93.1146 31.657C93.1997 31.9608 93.3394 32.2464 93.5399 32.4895C94.5486 33.7473 95.9462 34.5736 97.4713 34.8713L107.212 48.6283C106.489 49.6734 106.069 50.9374 106.069 52.2985C106.069 52.9182 106.16 53.5137 106.324 54.0848L91.7594 64.8461C90.7508 65.5874 90.5381 67.0093 91.2855 68.012C91.7291 68.6135 92.4157 68.9295 93.1084 68.9295C93.5763 68.9295 94.0503 68.7897 94.4513 68.492L109.016 57.7368C110.037 58.4052 111.259 58.8002 112.571 58.8002C116.156 58.8002 119.073 55.8835 119.073 52.2984C119.073 48.7133 116.156 45.7967 112.571 45.7967C112 45.7967 111.447 45.8757 110.924 46.0155L102.351 33.9052C102.952 33.5102 103.487 33.0241 103.93 32.453C104.113 32.216 104.246 31.9486 104.325 31.657L106.829 22.3661C109.302 21.7281 111.137 19.498 111.137 16.8366L111.131 7.26643C111.137 6.0147 110.116 5 108.865 5H41.1375C39.8858 5 38.8711 6.01475 38.8711 7.26643V16.8366C38.8711 19.5041 40.7062 21.728 43.1731 22.3661L45.6461 31.657C45.7312 31.9669 45.871 32.2524 46.0715 32.4955C46.5211 33.0545 47.0619 33.5285 47.6574 33.9174L39.0837 46.0276C38.555 45.8879 38.0081 45.8089 37.437 45.8089C33.8519 45.8089 30.9352 48.7255 30.9352 52.3106C30.9352 55.8835 33.852 58.8 37.437 58.8ZM52.6584 29.9306C51.8745 30.6111 50.6592 30.6111 49.8814 29.9306L47.9188 22.5599H54.621L52.6584 29.9306ZM76.9701 49.8665C76.9701 50.9481 76.089 51.8352 75.0014 51.8352C73.9137 51.8352 73.0327 50.9541 73.0327 49.8665C73.0327 48.7789 73.9137 47.8978 75.0014 47.8978C76.089 47.8978 76.9701 48.7789 76.9701 49.8665ZM76.3928 29.9306C75.609 30.6111 74.3998 30.6111 73.6158 29.9306L71.6532 22.5599H78.3554L76.3928 29.9306ZM100.09 29.9488C99.3305 30.6172 98.1092 30.6111 97.3435 29.9367L95.3566 22.566H102.071L100.09 29.9488ZM114.534 52.2974C114.534 53.385 113.653 54.2661 112.565 54.2661C111.927 54.2661 111.368 53.9562 111.003 53.4883C110.997 53.4761 110.991 53.464 110.985 53.4518C110.967 53.4275 110.949 53.4154 110.93 53.3911C110.724 53.0812 110.596 52.7044 110.596 52.3034C110.596 51.2218 111.477 50.3408 112.565 50.3408C113.653 50.3347 114.534 51.2158 114.534 52.2974ZM43.4031 9.53224H106.603V16.836C106.603 17.4862 106.05 18.033 105.406 18.033H44.6C43.9498 18.033 43.403 17.4801 43.403 16.836L43.4031 9.53224ZM37.4361 50.3343C38.5177 50.3343 39.4048 51.2153 39.4048 52.2969C39.4048 52.6979 39.2833 53.0747 39.0706 53.3846C39.0524 53.4089 39.0281 53.4271 39.0099 53.4453C39.0038 53.4575 38.9977 53.4696 38.9856 53.4818C38.6271 53.9497 38.068 54.2596 37.43 54.2596C36.3484 54.2596 35.4613 53.3785 35.4613 52.2909C35.4674 51.2153 36.3485 50.3343 37.4361 50.3343Z" fill="#663366"/>
</svg>
