<svg width="150" height="150" viewBox="0 0 150 150" fill="none" xmlns="http://www.w3.org/2000/svg">
<path d="M78.9364 78.9648H73.8795C72.6939 78.9648 71.7344 79.9244 71.7344 81.11V87.5456C71.7344 88.7312 72.6939 89.6907 73.8795 89.6907H78.9474C80.133 89.6907 81.0926 88.7312 81.0926 87.5456V81.11C81.0815 79.9244 80.122 78.9648 78.9364 78.9648ZM77.9438 86.5475H74.8666V82.1027H77.9328V86.5475H77.9438Z" fill="#663366"/>
<path d="M67.0744 78.9648H62.0231C60.8374 78.9648 59.8779 79.9244 59.8779 81.11V87.5456C59.8779 88.7312 60.8375 89.6907 62.0231 89.6907H67.091C68.2766 89.6907 69.2361 88.7312 69.2361 87.5456V81.11C69.2196 79.9244 68.26 78.9648 67.0744 78.9648ZM66.0873 86.5475H63.0101V82.1027H66.0763V86.5475H66.0873Z" fill="#663366"/>
<path d="M55.2287 78.9648H50.1608C48.9751 78.9648 48.0156 79.9244 48.0156 81.11V87.5456C48.0156 88.7312 48.9752 89.6907 50.1608 89.6907H55.2287C56.4143 89.6907 57.3738 88.7312 57.3738 87.5456V81.11C57.3628 79.9244 56.4032 78.9648 55.2287 78.9648ZM54.2305 86.5475H51.1643V82.1027H54.2305V86.5475Z" fill="#663366"/>
<path d="M132.03 98.4766H126.963C125.777 98.4766 124.817 99.4361 124.817 100.622V107.057C124.817 108.243 125.777 109.202 126.963 109.202H132.03C133.216 109.202 134.176 108.243 134.176 107.057V100.622C134.176 99.4361 133.216 98.4766 132.03 98.4766ZM131.043 106.059H127.977V101.614H131.043V106.059Z" fill="#663366"/>
<path d="M120.186 98.4766H115.118C113.932 98.4766 112.973 99.4361 112.973 100.622V107.057C112.973 108.243 113.932 109.202 115.118 109.202L120.186 109.208C121.371 109.208 122.331 108.248 122.331 107.063V100.627C122.32 99.4361 121.355 98.4766 120.186 98.4766ZM119.182 106.059H116.116V101.614H119.182V106.059Z" fill="#663366"/>
<path d="M108.33 98.4766H103.262C102.077 98.4766 101.117 99.4361 101.117 100.622V107.057C101.117 108.243 102.077 109.202 103.262 109.202H108.33C109.516 109.202 110.475 108.243 110.475 107.057V100.622C110.475 99.4361 109.516 98.4766 108.33 98.4766ZM107.327 106.059H104.26V101.614H107.327V106.059Z" fill="#663366"/>
<path d="M132.03 114.723H126.963C125.777 114.723 124.817 115.682 124.817 116.868V123.303C124.817 124.489 125.777 125.449 126.963 125.449H132.03C133.216 125.449 134.176 124.489 134.176 123.303V116.873C134.176 115.688 133.216 114.723 132.03 114.723ZM131.043 122.305H127.977V117.861H131.043V122.305Z" fill="#663366"/>
<path d="M120.186 114.723H115.118C113.932 114.723 112.973 115.682 112.973 116.868V123.303C112.973 124.489 113.932 125.449 115.118 125.449L120.186 125.454C121.371 125.454 122.331 124.494 122.331 123.309V116.873C122.32 115.688 121.355 114.723 120.186 114.723ZM119.182 122.305H116.116L116.121 117.861H119.188L119.182 122.305Z" fill="#663366"/>
<path d="M108.33 114.723H103.262C102.077 114.723 101.117 115.682 101.117 116.868V123.303C101.117 124.489 102.077 125.449 103.262 125.449H108.33C109.516 125.449 110.475 124.489 110.475 123.303V116.873C110.475 115.688 109.516 114.723 108.33 114.723ZM107.327 122.305H104.26V117.861H107.327V122.305Z" fill="#663366"/>
<path d="M78.9364 64.875H73.8795C72.6939 64.875 71.7344 65.8346 71.7344 67.0201V73.4557C71.7344 74.6414 72.6939 75.6009 73.8795 75.6009H78.9474C80.133 75.6009 81.0926 74.6413 81.0926 73.4557V67.0201C81.0815 65.8345 80.122 64.875 78.9364 64.875ZM77.9438 72.4576H74.8666V68.0129H77.9328V72.4576H77.9438Z" fill="#663366"/>
<path d="M67.0744 64.875H62.0231C60.8374 64.875 59.8779 65.8346 59.8779 67.0201V73.4557C59.8779 74.6414 60.8375 75.6009 62.0231 75.6009H67.091C68.2766 75.6009 69.2361 74.6413 69.2361 73.4557V67.0201C69.2196 65.8345 68.26 64.875 67.0744 64.875ZM66.0873 72.4576H63.0101V68.0129H66.0763V72.4576H66.0873Z" fill="#663366"/>
<path d="M55.2287 64.875H50.1608C48.9751 64.875 48.0156 65.8346 48.0156 67.0201V73.4557C48.0156 74.6414 48.9752 75.6009 50.1608 75.6009H55.2287C56.4143 75.6009 57.3738 74.6413 57.3738 73.4557V67.0201C57.3628 65.8345 56.4032 64.875 55.2287 64.875ZM54.2305 72.4576H51.1643V68.0129H54.2305V72.4576Z" fill="#663366"/>
<path d="M27.4461 80.0703H16.6043C15.744 80.0703 15.0381 80.7762 15.0381 81.6365C15.0381 82.4968 15.744 83.2027 16.6043 83.2027H25.8634V88.9049C25.8634 89.7652 26.5692 90.4711 27.4295 90.4711C28.2899 90.4711 28.9957 89.7652 28.9957 88.9049V81.6366C29.0178 80.7764 28.3119 80.0703 27.4461 80.0703Z" fill="#663366"/>
<path d="M27.4461 97.0391H16.6043C15.744 97.0391 15.0381 97.7449 15.0381 98.6053C15.0381 99.4656 15.744 100.171 16.6043 100.171H25.8634V105.862C25.8634 106.723 26.5692 107.429 27.4295 107.429C28.2899 107.429 28.9957 106.723 28.9957 105.862V98.6053C29.0178 97.7284 28.3119 97.0391 27.4461 97.0391Z" fill="#663366"/>
<path d="M27.4461 113.977H16.6043C15.744 113.977 15.0381 114.682 15.0381 115.543C15.0381 116.403 15.744 117.109 16.6043 117.109H25.8634V122.811C25.8634 123.671 26.5692 124.377 27.4295 124.377C28.2899 124.377 28.9957 123.671 28.9957 122.811V115.543C29.0178 114.683 28.3119 113.977 27.4461 113.977Z" fill="#663366"/>
<path d="M143.451 132.033H141.631V82.0865C141.631 80.0516 139.977 78.3862 137.931 78.3862H126.14L124.938 78.2428L95.9253 71.3551L95.9308 46.8641C95.9308 44.8292 94.2764 43.1638 92.2305 43.1638H87.2453L87.2508 18.6121C87.2508 16.6212 85.6296 15 83.6388 15H47.6392C45.6484 15 44.0271 16.6212 44.0271 18.6121V26.9116H22.7903C20.7554 26.9116 19.0899 28.566 19.0899 30.6119V65.9338H11.943C9.90808 65.9338 8.24264 67.5882 8.24264 69.6341V132.049H6.56619C5.7059 132.049 5 132.755 5 133.615C5 134.475 5.70587 135.181 6.56619 135.181H143.434C144.294 135.181 145 134.475 145 133.615C145.016 132.738 144.311 132.033 143.451 132.033ZM95.9145 91.8262H138.476V132.033H95.9145V91.8262ZM124.293 81.3263C124.349 81.3428 124.404 81.3539 124.475 81.3539L125.86 81.5083C125.915 81.5248 125.986 81.5248 126.042 81.5248H137.915C138.212 81.5248 138.466 81.7785 138.466 82.0763V88.6828L95.9147 88.6773V74.5764L124.293 81.3263ZM92.7833 46.8656V132.033H85.0904V98.9294C85.0904 96.8669 83.4084 95.1905 81.3515 95.1905H47.7506C45.6881 95.1905 44.0117 96.8724 44.0117 98.9294V132.033H37.3886V46.8656C37.3886 46.5568 37.6423 46.3141 37.9401 46.3141H92.2316C92.5294 46.3141 92.7833 46.5513 92.7833 46.8656ZM81.9415 132.033H47.1547V98.9294C47.1547 98.604 47.4249 98.3338 47.7502 98.3338H81.3512C81.6766 98.3338 81.9468 98.604 81.9468 98.9294L81.9415 132.033ZM47.6347 18.1337H83.6342C83.9044 18.1337 84.1139 18.3433 84.1139 18.6135V43.1751H47.1544V18.6135C47.1544 18.3433 47.3699 18.1337 47.6347 18.1337ZM22.2232 30.6133C22.2232 30.3045 22.4769 30.0618 22.7747 30.0618H44.0059V43.1757H37.9508C35.9159 43.1757 34.2505 44.8301 34.2505 46.876V65.9346H22.2231L22.2232 30.6133ZM11.398 69.6184C11.398 69.3096 11.6516 69.067 11.9494 69.067H34.2677V132.034H11.3988L11.398 69.6184Z" fill="#663366"/>
<path d="M58.9561 35.1174H61.1565V37.3178C61.1565 38.3931 62.0333 39.2644 63.1031 39.2644H68.1545C69.2299 39.2644 70.1012 38.3876 70.1012 37.3178V35.1174H72.3015C73.3769 35.1174 74.2482 34.2406 74.2482 33.1708V28.1194C74.2482 27.044 73.3713 26.1727 72.3015 26.1727H70.1012L70.1122 23.9779C70.1122 22.9026 69.2354 22.0312 68.1655 22.0312H63.1142C62.0388 22.0312 61.1675 22.9081 61.1675 23.9779V26.1783H58.9672C57.8918 26.1783 57.0205 27.0551 57.0205 28.1249V33.1763C57.026 34.2516 57.8973 35.1174 58.9561 35.1174ZM60.1583 29.327H62.3587C63.434 29.327 64.3053 28.4502 64.3053 27.3804V25.18H66.9744V27.3804C66.9744 28.4557 67.8512 29.327 68.921 29.327H71.1214V31.9961H68.921C67.8457 31.9961 66.9744 32.8729 66.9744 33.9427V36.1431H64.3053V33.9427C64.3053 32.8674 63.4285 31.9961 62.3587 31.9961H60.1583V29.327Z" fill="#663366"/>
</svg>
