<svg width="150" height="150" viewBox="0 0 150 150" fill="none" xmlns="http://www.w3.org/2000/svg">
<path d="M44.3809 112.09V116.858C44.3809 118.95 46.0775 120.647 48.1701 120.647H50.1718C51.7045 120.647 53.0853 121.571 53.6701 122.988C53.6766 123.003 53.6828 123.019 53.6893 123.034C54.2772 124.449 53.9541 126.079 52.8704 127.162L51.4549 128.578C49.9749 130.057 49.9749 132.457 51.4549 133.937L55.447 137.929C56.9267 139.408 59.3261 139.408 60.8059 137.929L62.2211 136.513C63.3047 135.43 64.934 135.106 66.3495 135.695C66.365 135.701 66.3805 135.707 66.3963 135.714C67.8129 136.298 68.7368 137.679 68.7368 139.212V141.214C68.7368 143.306 70.4334 145.003 72.5261 145.003H78.1717C80.2644 145.003 81.961 143.306 81.961 141.214V139.212C81.961 137.679 82.8846 136.298 84.3012 135.714C84.3167 135.707 84.3322 135.701 84.3474 135.695C85.7626 135.107 87.3922 135.43 88.4759 136.514L89.8911 137.929C91.3708 139.409 93.7702 139.409 95.2499 137.929L99.242 133.937C100.722 132.457 100.722 130.058 99.242 128.578L97.8268 127.162C96.7432 126.079 96.4198 124.449 97.008 123.034C97.0144 123.019 97.0209 123.003 97.0271 122.988C97.6119 121.571 98.9927 120.647 100.525 120.647H102.527C104.619 120.647 106.316 118.951 106.316 116.858V112.09H44.3809V112.09Z" stroke="#663366" stroke-width="4.2" stroke-miterlimit="10" stroke-linecap="round" stroke-linejoin="round"/>
<path d="M64.3822 112.09C64.2707 112.722 64.209 113.371 64.209 114.035C64.209 120.187 69.1957 125.173 75.3472 125.173C81.4988 125.173 86.4855 120.187 86.4855 114.035C86.4855 113.371 86.4238 112.722 86.3123 112.09H64.3822Z" stroke="#663366" stroke-width="4.2" stroke-miterlimit="10" stroke-linecap="round" stroke-linejoin="round"/>
<path d="M75.3477 67.4504V101.587H118.419C119.197 101.587 119.827 100.956 119.827 100.178V45.0764C119.827 44.2987 119.197 43.668 118.419 43.668H96.2662" stroke="#663366" stroke-width="4.2" stroke-miterlimit="10" stroke-linejoin="round"/>
<path d="M42.1836 89.8047H64.0336" stroke="#663366" stroke-width="4.2" stroke-miterlimit="10" stroke-linecap="round" stroke-linejoin="round"/>
<path d="M42.1836 79.8516H64.0336" stroke="#663366" stroke-width="4.2" stroke-miterlimit="10" stroke-linecap="round" stroke-linejoin="round"/>
<path d="M42.1836 69.8945H45.576" stroke="#663366" stroke-width="4.2" stroke-miterlimit="10" stroke-linecap="round" stroke-linejoin="round"/>
<path d="M108.512 89.8047H86.6621" stroke="#663366" stroke-width="4.2" stroke-miterlimit="10" stroke-linecap="round" stroke-linejoin="round"/>
<path d="M108.512 79.8516H86.6621" stroke="#663366" stroke-width="4.2" stroke-miterlimit="10" stroke-linecap="round" stroke-linejoin="round"/>
<path d="M108.513 69.8945H105.121" stroke="#663366" stroke-width="4.2" stroke-miterlimit="10" stroke-linecap="round" stroke-linejoin="round"/>
<path d="M86.6816 25.6125V14.7956C86.6816 12.4621 88.5735 10.5703 90.907 10.5703H106.296" stroke="#663366" stroke-width="4.2" stroke-miterlimit="10" stroke-linecap="round" stroke-linejoin="round"/>
<path d="M64.0127 25.6125V14.7956C64.0127 12.4621 62.1209 10.5703 59.7874 10.5703H44.3984" stroke="#663366" stroke-width="4.2" stroke-miterlimit="10" stroke-linecap="round" stroke-linejoin="round"/>
<path d="M96.2656 31.3906H124.557" stroke="#663366" stroke-width="4.2" stroke-miterlimit="10" stroke-linecap="round" stroke-linejoin="round"/>
<path d="M54.4284 31.3906H26.1367" stroke="#663366" stroke-width="4.2" stroke-miterlimit="10" stroke-linecap="round" stroke-linejoin="round"/>
<path d="M37.8824 43.668H32.2756C31.4979 43.668 30.8672 44.2987 30.8672 45.0764V100.179C30.8672 100.956 31.4979 101.587 32.2756 101.587H75.347" stroke="#663366" stroke-width="4.2" stroke-miterlimit="10" stroke-linecap="round" stroke-linejoin="round"/>
<path d="M54.4292 43.668H47.7422" stroke="#663366" stroke-width="4.2" stroke-miterlimit="10" stroke-linecap="round" stroke-linejoin="round"/>
<path d="M30.8682 50.9844H24.8367C22.5032 50.9844 20.6113 52.8762 20.6113 55.2097V77.8158" stroke="#663366" stroke-width="4.2" stroke-miterlimit="10" stroke-linecap="round" stroke-linejoin="round"/>
<path d="M20.6113 87.6749V107.86C20.6113 110.194 22.5032 112.086 24.8367 112.086H125.859C128.193 112.086 130.085 110.194 130.085 107.86V55.2097C130.085 52.8762 128.193 50.9844 125.859 50.9844H119.828" stroke="#663366" stroke-width="4.2" stroke-miterlimit="10" stroke-linecap="round" stroke-linejoin="round"/>
<path d="M114.618 16.1383H109.114C107.558 16.1383 106.297 14.8771 106.297 13.3214V7.81689C106.297 6.26112 107.558 5 109.114 5H114.618C116.174 5 117.435 6.26112 117.435 7.81689V13.3214C117.435 14.8771 116.174 16.1383 114.618 16.1383Z" stroke="#663366" stroke-width="4.2" stroke-miterlimit="10" stroke-linecap="round" stroke-linejoin="round"/>
<path d="M41.5811 16.1383H36.0767C34.5209 16.1383 33.2598 14.8771 33.2598 13.3214V7.81689C33.2598 6.26112 34.5209 5 36.0767 5H41.5811C43.1369 5 44.398 6.26112 44.398 7.81689V13.3214C44.398 14.8771 43.1369 16.1383 41.5811 16.1383Z" stroke="#663366" stroke-width="4.2" stroke-miterlimit="10" stroke-linecap="round" stroke-linejoin="round"/>
<path d="M132.88 36.9586H127.375C125.82 36.9586 124.559 35.6975 124.559 34.1417V28.6372C124.559 27.0814 125.82 25.8203 127.375 25.8203H132.88C134.436 25.8203 135.697 27.0814 135.697 28.6372V34.1417C135.697 35.6972 134.436 36.9586 132.88 36.9586Z" stroke="#663366" stroke-width="4.2" stroke-miterlimit="10" stroke-linecap="round" stroke-linejoin="round"/>
<path d="M23.3214 36.9586H17.8169C16.2611 36.9586 15 35.6975 15 34.1417V28.6372C15 27.0814 16.2611 25.8203 17.8169 25.8203H23.3214C24.8771 25.8203 26.1383 27.0814 26.1383 28.6372V34.1417C26.1383 35.6972 24.8771 36.9586 23.3214 36.9586Z" stroke="#663366" stroke-width="4.2" stroke-miterlimit="10" stroke-linecap="round" stroke-linejoin="round"/>
<path d="M64.6328 37.2249V55.8366C64.6328 56.6143 65.2635 57.245 66.0413 57.245H76.2945C76.668 57.245 77.0263 57.0966 77.2905 56.8326L85.6491 48.4741C85.9133 48.2099 86.0615 47.8518 86.0615 47.478V37.2249C86.0615 36.4471 85.4308 35.8164 84.653 35.8164H66.0413C65.2635 35.8164 64.6328 36.4468 64.6328 37.2249Z" stroke="#663366" stroke-width="4.2" stroke-miterlimit="10" stroke-linecap="round" stroke-linejoin="round"/>
<path d="M96.2667 50.2129V29.8386C96.2667 27.5051 94.3749 25.6133 92.0414 25.6133H58.655C56.3215 25.6133 54.4297 27.5051 54.4297 29.8386V63.2247C54.4297 65.5582 56.3215 67.45 58.655 67.45H92.0411C94.3746 67.45 96.2664 65.5582 96.2664 63.2247V60.072" stroke="#663366" stroke-width="4.2" stroke-miterlimit="10" stroke-linecap="round" stroke-linejoin="round"/>
</svg>
