<svg width="45" height="6" viewBox="0 0 45 6" fill="none" xmlns="http://www.w3.org/2000/svg">
<path d="M1.76847 1.27273V1.84091H0.0852273V1.27273H1.76847ZM0.470526 4V1.07564C0.470526 0.877959 0.508996 0.714015 0.585938 0.583807C0.664062 0.453598 0.770597 0.355942 0.90554 0.290838C1.04048 0.225734 1.19377 0.193182 1.36541 0.193182C1.48142 0.193182 1.58736 0.202059 1.68324 0.219815C1.7803 0.237571 1.85251 0.253551 1.89986 0.267756L1.76491 0.835938C1.73532 0.826468 1.69863 0.81759 1.65483 0.809304C1.61222 0.801018 1.56842 0.796875 1.52344 0.796875C1.41217 0.796875 1.33464 0.822917 1.29084 0.875C1.24704 0.9259 1.22514 0.997514 1.22514 1.08984V4H0.470526ZM2.23056 4V1.27273H2.96387V1.74858H2.99228C3.04199 1.57931 3.12544 1.45147 3.24263 1.36506C3.35982 1.27746 3.49476 1.23366 3.64746 1.23366C3.68534 1.23366 3.72618 1.23603 3.76998 1.24077C3.81377 1.2455 3.85224 1.25201 3.88539 1.2603V1.93146C3.84988 1.92081 3.80075 1.91134 3.73801 1.90305C3.67528 1.89477 3.61787 1.89062 3.56578 1.89062C3.45452 1.89062 3.35508 1.91489 3.26749 1.96342C3.18108 2.01077 3.11242 2.07706 3.06152 2.16229C3.01181 2.24751 2.98695 2.34576 2.98695 2.45703V4H2.23056ZM5.38175 4.05327C5.10594 4.05327 4.86742 3.99467 4.66619 3.87749C4.46615 3.75911 4.31167 3.59458 4.20277 3.38388C4.09387 3.17199 4.03942 2.92637 4.03942 2.64702C4.03942 2.36529 4.09387 2.11908 4.20277 1.90838C4.31167 1.6965 4.46615 1.53196 4.66619 1.41477C4.86742 1.2964 5.10594 1.23722 5.38175 1.23722C5.65755 1.23722 5.89548 1.2964 6.09553 1.41477C6.29676 1.53196 6.45182 1.6965 6.56072 1.90838C6.66963 2.11908 6.72408 2.36529 6.72408 2.64702C6.72408 2.92637 6.66963 3.17199 6.56072 3.38388C6.45182 3.59458 6.29676 3.75911 6.09553 3.87749C5.89548 3.99467 5.65755 4.05327 5.38175 4.05327ZM5.3853 3.46733C5.51077 3.46733 5.61553 3.43182 5.69957 3.3608C5.78362 3.28859 5.84695 3.19034 5.88956 3.06605C5.93336 2.94176 5.95526 2.80031 5.95526 2.64169C5.95526 2.48307 5.93336 2.34162 5.88956 2.21733C5.84695 2.09304 5.78362 1.99479 5.69957 1.92259C5.61553 1.85038 5.51077 1.81428 5.3853 1.81428C5.25864 1.81428 5.15211 1.85038 5.0657 1.92259C4.98047 1.99479 4.91596 2.09304 4.87216 2.21733C4.82955 2.34162 4.80824 2.48307 4.80824 2.64169C4.80824 2.80031 4.82955 2.94176 4.87216 3.06605C4.91596 3.19034 4.98047 3.28859 5.0657 3.3608C5.15211 3.43182 5.25864 3.46733 5.3853 3.46733ZM7.21591 4V1.27273H7.93679V1.75391H7.96875C8.02557 1.59411 8.12027 1.46804 8.25284 1.37571C8.38542 1.28338 8.54403 1.23722 8.72869 1.23722C8.91572 1.23722 9.07493 1.28397 9.20632 1.37749C9.33771 1.46982 9.42531 1.59529 9.46911 1.75391H9.49751C9.55315 1.59766 9.65376 1.47277 9.79936 1.37926C9.94614 1.28456 10.1196 1.23722 10.3196 1.23722C10.5741 1.23722 10.7807 1.3183 10.9393 1.48047C11.0991 1.64145 11.179 1.86991 11.179 2.16584V4H10.4244V2.31499C10.4244 2.16347 10.3841 2.04983 10.3036 1.97408C10.2231 1.89832 10.1225 1.86044 10.0018 1.86044C9.86446 1.86044 9.75734 1.90424 9.6804 1.99183C9.60346 2.07824 9.56499 2.19247 9.56499 2.33452V4H8.83168V2.29901C8.83168 2.16525 8.79321 2.05871 8.71626 1.9794C8.64051 1.90009 8.54048 1.86044 8.41619 1.86044C8.33215 1.86044 8.25639 1.88175 8.18892 1.92436C8.12263 1.96579 8.06996 2.02438 8.03089 2.10014C7.99183 2.17472 7.9723 2.26231 7.9723 2.36293V4H7.21591ZM15.9894 0.363636V4H15.3254L13.7433 1.71129H13.7167V4H12.9479V0.363636H13.6226L15.1922 2.65057H15.2242V0.363636H15.9894ZM17.8427 4.05327C17.5669 4.05327 17.3284 3.99467 17.1271 3.87749C16.9271 3.75911 16.7726 3.59458 16.6637 3.38388C16.5548 3.17199 16.5004 2.92637 16.5004 2.64702C16.5004 2.36529 16.5548 2.11908 16.6637 1.90838C16.7726 1.6965 16.9271 1.53196 17.1271 1.41477C17.3284 1.2964 17.5669 1.23722 17.8427 1.23722C18.1185 1.23722 18.3564 1.2964 18.5565 1.41477C18.7577 1.53196 18.9128 1.6965 19.0217 1.90838C19.1306 2.11908 19.185 2.36529 19.185 2.64702C19.185 2.92637 19.1306 3.17199 19.0217 3.38388C18.9128 3.59458 18.7577 3.75911 18.5565 3.87749C18.3564 3.99467 18.1185 4.05327 17.8427 4.05327ZM17.8462 3.46733C17.9717 3.46733 18.0765 3.43182 18.1605 3.3608C18.2446 3.28859 18.3079 3.19034 18.3505 3.06605C18.3943 2.94176 18.4162 2.80031 18.4162 2.64169C18.4162 2.48307 18.3943 2.34162 18.3505 2.21733C18.3079 2.09304 18.2446 1.99479 18.1605 1.92259C18.0765 1.85038 17.9717 1.81428 17.8462 1.81428C17.7196 1.81428 17.613 1.85038 17.5266 1.92259C17.4414 1.99479 17.3769 2.09304 17.3331 2.21733C17.2905 2.34162 17.2692 2.48307 17.2692 2.64169C17.2692 2.80031 17.2905 2.94176 17.3331 3.06605C17.3769 3.19034 17.4414 3.28859 17.5266 3.3608C17.613 3.43182 17.7196 3.46733 17.8462 3.46733ZM21.4258 2.83878V1.27273H22.1822V4H21.456V3.50462H21.4276C21.366 3.66442 21.2636 3.79285 21.1204 3.88991C20.9783 3.98698 20.8049 4.03551 20.6001 4.03551C20.4179 4.03551 20.2575 3.99408 20.119 3.91122C19.9805 3.82836 19.8722 3.71058 19.794 3.55788C19.7171 3.40518 19.678 3.2223 19.6768 3.00923V1.27273H20.4332V2.87429C20.4344 3.03527 20.4776 3.16252 20.5629 3.25604C20.6481 3.34955 20.7623 3.39631 20.9055 3.39631C20.9967 3.39631 21.0819 3.37559 21.1612 3.33416C21.2405 3.29155 21.3045 3.22881 21.353 3.14595C21.4027 3.06309 21.427 2.9607 21.4258 2.83878ZM23.5436 2.4233V4H22.7872V1.27273H23.5081V1.75391H23.54C23.6004 1.59529 23.7016 1.46982 23.8437 1.37749C23.9857 1.28397 24.1579 1.23722 24.3604 1.23722C24.5497 1.23722 24.7149 1.27865 24.8557 1.36151C24.9966 1.44437 25.1061 1.56274 25.1842 1.71662C25.2623 1.86932 25.3014 2.05161 25.3014 2.26349V4H24.545V2.39844C24.5462 2.23153 24.5036 2.10133 24.4172 2.00781C24.3308 1.91312 24.2118 1.86577 24.0603 1.86577C23.9585 1.86577 23.8685 1.88767 23.7904 1.93146C23.7135 1.97526 23.6531 2.03918 23.6093 2.12322C23.5667 2.20608 23.5448 2.30611 23.5436 2.4233ZM27.069 4V0.363636H28.5036C28.7794 0.363636 29.0144 0.416311 29.2085 0.521662C29.4027 0.625829 29.5506 0.770833 29.6524 0.956676C29.7554 1.14134 29.8069 1.3544 29.8069 1.59588C29.8069 1.83736 29.7548 2.05043 29.6507 2.23509C29.5465 2.41974 29.3956 2.56357 29.1979 2.66655C29.0014 2.76953 28.7635 2.82102 28.4841 2.82102H27.5697V2.2049H28.3598C28.5078 2.2049 28.6297 2.17945 28.7256 2.12855C28.8227 2.07647 28.8949 2.00485 28.9422 1.91371C28.9907 1.82138 29.015 1.71544 29.015 1.59588C29.015 1.47514 28.9907 1.36979 28.9422 1.27983C28.8949 1.18868 28.8227 1.11825 28.7256 1.06854C28.6285 1.01764 28.5054 0.992188 28.3563 0.992188H27.8378V4H27.069ZM30.2921 4V1.27273H31.0254V1.74858H31.0538C31.1035 1.57931 31.187 1.45147 31.3042 1.36506C31.4213 1.27746 31.5563 1.23366 31.709 1.23366C31.7469 1.23366 31.7877 1.23603 31.8315 1.24077C31.8753 1.2455 31.9138 1.25201 31.9469 1.2603V1.93146C31.9114 1.92081 31.8623 1.91134 31.7995 1.90305C31.7368 1.89477 31.6794 1.89062 31.6273 1.89062C31.516 1.89062 31.4166 1.91489 31.329 1.96342C31.2426 2.01077 31.1739 2.07706 31.123 2.16229C31.0733 2.24751 31.0485 2.34576 31.0485 2.45703V4H30.2921ZM33.4433 4.05327C33.1675 4.05327 32.9289 3.99467 32.7277 3.87749C32.5277 3.75911 32.3732 3.59458 32.2643 3.38388C32.1554 3.17199 32.1009 2.92637 32.1009 2.64702C32.1009 2.36529 32.1554 2.11908 32.2643 1.90838C32.3732 1.6965 32.5277 1.53196 32.7277 1.41477C32.9289 1.2964 33.1675 1.23722 33.4433 1.23722C33.7191 1.23722 33.957 1.2964 34.157 1.41477C34.3583 1.53196 34.5133 1.6965 34.6222 1.90838C34.7311 2.11908 34.7856 2.36529 34.7856 2.64702C34.7856 2.92637 34.7311 3.17199 34.6222 3.38388C34.5133 3.59458 34.3583 3.75911 34.157 3.87749C33.957 3.99467 33.7191 4.05327 33.4433 4.05327ZM33.4468 3.46733C33.5723 3.46733 33.6771 3.43182 33.7611 3.3608C33.8451 3.28859 33.9085 3.19034 33.9511 3.06605C33.9949 2.94176 34.0168 2.80031 34.0168 2.64169C34.0168 2.48307 33.9949 2.34162 33.9511 2.21733C33.9085 2.09304 33.8451 1.99479 33.7611 1.92259C33.6771 1.85038 33.5723 1.81428 33.4468 1.81428C33.3202 1.81428 33.2136 1.85038 33.1272 1.92259C33.042 1.99479 32.9775 2.09304 32.9337 2.21733C32.8911 2.34162 32.8698 2.48307 32.8698 2.64169C32.8698 2.80031 32.8911 2.94176 32.9337 3.06605C32.9775 3.19034 33.042 3.28859 33.1272 3.3608C33.2136 3.43182 33.3202 3.46733 33.4468 3.46733ZM35.2774 1.27273H36.0338V4.13494C36.0338 4.34564 35.9924 4.5161 35.9095 4.64631C35.8267 4.77652 35.7077 4.8718 35.5526 4.93217C35.3988 4.99254 35.2147 5.02273 35.0004 5.02273C34.9744 5.02273 34.9495 5.02214 34.9259 5.02095C34.901 5.02095 34.875 5.02036 34.8477 5.01918V4.42791C34.8679 4.4291 34.8856 4.42969 34.901 4.42969C34.9152 4.43087 34.9306 4.43146 34.9472 4.43146C35.0691 4.43146 35.1543 4.40542 35.2029 4.35334C35.2526 4.30244 35.2774 4.2255 35.2774 4.12251V1.27273ZM35.6539 0.921165C35.5426 0.921165 35.4467 0.883878 35.3662 0.809304C35.2857 0.733546 35.2455 0.642992 35.2455 0.537642C35.2455 0.433475 35.2857 0.344105 35.3662 0.269531C35.4467 0.193774 35.5426 0.155895 35.6539 0.155895C35.7675 0.155895 35.864 0.193774 35.9433 0.269531C36.0238 0.344105 36.064 0.433475 36.064 0.537642C36.064 0.642992 36.0238 0.733546 35.9433 0.809304C35.864 0.883878 35.7675 0.921165 35.6539 0.921165ZM37.8826 4.05327C37.6021 4.05327 37.3606 3.99645 37.1582 3.88281C36.957 3.76799 36.8019 3.60582 36.693 3.39631C36.5841 3.18561 36.5297 2.93643 36.5297 2.64879C36.5297 2.36825 36.5841 2.12204 36.693 1.91016C36.8019 1.69827 36.9552 1.53314 37.1529 1.41477C37.3517 1.2964 37.5849 1.23722 37.8525 1.23722C38.0324 1.23722 38.1999 1.26622 38.3549 1.32422C38.5112 1.38104 38.6473 1.46686 38.7633 1.58168C38.8805 1.6965 38.9717 1.84091 39.0368 2.01491C39.1019 2.18774 39.1344 2.39015 39.1344 2.62216V2.8299H36.8315V2.36115H38.4224C38.4224 2.25225 38.3987 2.15578 38.3514 2.07173C38.304 1.98769 38.2383 1.92199 38.1543 1.87464C38.0714 1.82611 37.975 1.80185 37.8649 1.80185C37.7501 1.80185 37.6483 1.82848 37.5595 1.88175C37.4719 1.93383 37.4032 2.00426 37.3535 2.09304C37.3038 2.18063 37.2783 2.27829 37.2772 2.38601V2.83168C37.2772 2.96662 37.302 3.08321 37.3517 3.18146C37.4026 3.27971 37.4743 3.35547 37.5666 3.40874C37.6589 3.462 37.7684 3.48864 37.8951 3.48864C37.9791 3.48864 38.056 3.4768 38.1259 3.45312C38.1957 3.42945 38.2555 3.39394 38.3052 3.34659C38.3549 3.29924 38.3928 3.24124 38.4189 3.17259L39.1184 3.21875C39.0829 3.38684 39.0101 3.53362 38.9 3.65909C38.7911 3.78338 38.6503 3.88045 38.4775 3.95028C38.3058 4.01894 38.1075 4.05327 37.8826 4.05327ZM40.8603 4.05327C40.5809 4.05327 40.3406 3.99408 40.1394 3.87571C39.9393 3.75616 39.7855 3.59044 39.6777 3.37855C39.5712 3.16667 39.5179 2.92282 39.5179 2.64702C39.5179 2.36766 39.5718 2.12263 39.6795 1.91193C39.7884 1.70005 39.9429 1.53492 40.1429 1.41655C40.343 1.29699 40.5809 1.23722 40.8567 1.23722C41.0946 1.23722 41.303 1.28042 41.4817 1.36683C41.6605 1.45324 41.8019 1.57457 41.9061 1.73082C42.0102 1.88707 42.0676 2.07055 42.0783 2.28125H41.3645C41.3444 2.14512 41.2911 2.03563 41.2047 1.95277C41.1195 1.86873 41.0076 1.8267 40.8691 1.8267C40.752 1.8267 40.6496 1.85866 40.562 1.92259C40.4756 1.98532 40.4081 2.07706 40.3596 2.1978C40.311 2.31854 40.2868 2.46473 40.2868 2.63636C40.2868 2.81037 40.3104 2.95833 40.3578 3.08026C40.4063 3.20218 40.4744 3.2951 40.562 3.35902C40.6496 3.42294 40.752 3.4549 40.8691 3.4549C40.9556 3.4549 41.0331 3.43714 41.1017 3.40163C41.1716 3.36612 41.229 3.31463 41.274 3.24716C41.3201 3.1785 41.3503 3.09624 41.3645 3.00036H42.0783C42.0665 3.20869 42.0096 3.39216 41.9078 3.55078C41.8072 3.70821 41.6681 3.83132 41.4906 3.9201C41.313 4.00888 41.1029 4.05327 40.8603 4.05327ZM44.0132 1.27273V1.84091H42.3708V1.27273H44.0132ZM42.7437 0.619318H43.5001V3.16193C43.5001 3.23177 43.5107 3.28622 43.532 3.32528C43.5534 3.36316 43.5829 3.3898 43.6208 3.40518C43.6599 3.42057 43.7049 3.42827 43.7558 3.42827C43.7913 3.42827 43.8268 3.42531 43.8623 3.41939C43.8978 3.41229 43.925 3.40696 43.944 3.40341L44.0629 3.96626C44.0251 3.9781 43.9718 3.99171 43.9031 4.0071C43.8345 4.02367 43.751 4.03374 43.6528 4.03729C43.4705 4.04439 43.3107 4.02012 43.1734 3.96449C43.0373 3.90885 42.9313 3.82244 42.8556 3.70526C42.7798 3.58807 42.7425 3.4401 42.7437 3.26136V0.619318Z" fill="#663366"/>
</svg>
