<svg width="150" height="150" viewBox="0 0 150 150" fill="none" xmlns="http://www.w3.org/2000/svg">
<mask id="mask0_629_2364" style="mask-type:luminance" maskUnits="userSpaceOnUse" x="5" y="5" width="140" height="140">
<path d="M5 5H145V145H5V5Z" fill="white"/>
</mask>
<g mask="url(#mask0_629_2364)">
<path d="M75 20.5234V7.10805" stroke="#663366" stroke-width="4.10156" stroke-miterlimit="10" stroke-linecap="round" stroke-linejoin="round"/>
<path d="M130.755 142.891H19.245C12.5102 142.891 7.05078 137.431 7.05078 130.696C7.05078 128.821 8.57055 127.301 10.4458 127.301H139.554C141.429 127.301 142.949 128.821 142.949 130.696C142.949 137.431 137.489 142.891 130.755 142.891Z" stroke="#663366" stroke-width="4.10156" stroke-miterlimit="10" stroke-linecap="round" stroke-linejoin="round"/>
<path d="M122.665 90.8555V69.7803C122.665 67.7057 120.984 66.0238 118.909 66.0238H94.0625" stroke="#663366" stroke-width="4.10156" stroke-miterlimit="10" stroke-linecap="round" stroke-linejoin="round"/>
<path d="M122.664 127.301V100.443" stroke="#663366" stroke-width="4.10156" stroke-miterlimit="10" stroke-linecap="round" stroke-linejoin="round"/>
<path d="M55.9369 66.024H31.0902C29.0156 66.024 27.334 67.7059 27.334 69.7805V127.301" stroke="#663366" stroke-width="4.10156" stroke-miterlimit="10" stroke-linecap="round" stroke-linejoin="round"/>
<path d="M122.665 127.301C122.038 121.473 117.009 118.012 110.896 118.012C109.184 118.012 107.557 118.284 106.088 118.773C104.406 119.333 102.577 118.873 101.315 117.627C98.5606 114.905 94.1916 113.146 89.2714 113.146C85.0916 113.146 81.31 114.416 78.5781 116.466C76.2096 118.244 72.9926 118.222 70.6317 116.434C67.9493 114.402 64.2494 113.146 60.1621 113.146C55.3252 113.146 51.0301 114.905 48.3222 117.627C47.0847 118.871 45.2734 119.327 43.6106 118.767C42.1718 118.282 40.5793 118.012 38.9037 118.012C32.8946 118.012 27.9506 121.473 27.334 127.301" stroke="#663366" stroke-width="4.10156" stroke-miterlimit="10" stroke-linecap="round" stroke-linejoin="round"/>
<path d="M133.603 127.301V60.7453C133.603 57.6202 131.069 55.0865 127.944 55.0865H101.059" stroke="#663366" stroke-width="4.10156" stroke-miterlimit="10" stroke-linecap="round" stroke-linejoin="round"/>
<path d="M48.9407 55.0865H22.0553C18.9299 55.0865 16.3965 57.6202 16.3965 60.745V127.301" stroke="#663366" stroke-width="4.10156" stroke-miterlimit="10" stroke-linecap="round" stroke-linejoin="round"/>
<path d="M87.9121 89.5073L97.822 98.3554C98.8269 99.2529 100.427 98.7227 100.696 97.4028L103.987 81.3148C104.563 78.5011 103.682 75.5866 101.646 73.5618L92.6929 64.6608" stroke="#663366" stroke-width="4.10156" stroke-miterlimit="10" stroke-linecap="round" stroke-linejoin="round"/>
<path d="M57.3068 64.6607L48.3542 73.5617C46.3177 75.5865 45.4375 78.5011 46.0128 81.3147L49.3033 97.4027C49.5735 98.7226 51.1728 99.2528 52.1777 98.3556L62.0876 89.5072" stroke="#663366" stroke-width="4.10156" stroke-miterlimit="10" stroke-linecap="round" stroke-linejoin="round"/>
<path d="M64.6504 46.0762C59.687 50.4804 56.8706 56.9568 57.2463 63.7596C57.3723 66.0401 57.6693 68.3222 58.1415 70.5885L64.4511 100.854C64.6909 102.004 65.7045 102.828 66.8795 102.828H83.1181C84.2931 102.828 85.3067 102.004 85.5465 100.854L91.8561 70.5885C92.3286 68.3222 92.6255 66.0401 92.7516 63.7596C93.1273 56.9568 90.3109 50.4804 85.3472 46.0762" stroke="#663366" stroke-width="4.10156" stroke-miterlimit="10" stroke-linecap="round" stroke-linejoin="round"/>
<path d="M86.8184 94.7578H63.1816" stroke="#663366" stroke-width="4.10156" stroke-miterlimit="10" stroke-linecap="round" stroke-linejoin="round"/>
<path d="M67.4546 102.827C65.4807 104.887 62.7017 108.381 60.8965 113.16" stroke="#663366" stroke-width="4.10156" stroke-miterlimit="10" stroke-linecap="round" stroke-linejoin="round"/>
<path d="M88.8834 113.152C87.0358 108.51 84.2754 104.939 82.3633 102.826" stroke="#663366" stroke-width="4.10156" stroke-miterlimit="10" stroke-linecap="round" stroke-linejoin="round"/>
<path d="M54.293 127.299C54.293 131.604 57.7829 135.094 62.0879 135.094H87.9105C92.2155 135.094 95.7054 131.604 95.7054 127.299" stroke="#663366" stroke-width="4.10156" stroke-miterlimit="10" stroke-linecap="round" stroke-linejoin="round"/>
<path d="M84.7384 46.1289H65.2618C63.0734 46.1289 61.2988 44.3546 61.2988 42.1657C61.2988 39.9768 63.0734 38.2025 65.2618 38.2025H84.7384C86.927 38.2025 88.7014 39.9768 88.7014 42.1657C88.7014 44.3546 86.927 46.1289 84.7384 46.1289Z" stroke="#663366" stroke-width="4.10156" stroke-miterlimit="10" stroke-linecap="round" stroke-linejoin="round"/>
<path d="M70.7637 24.7597C70.7637 22.4199 72.6605 20.5234 75 20.5234C77.3398 20.5234 79.2364 22.4199 79.2364 24.7597C79.2364 27.0995 77.3398 28.9961 75 28.9961C72.6605 28.9961 70.7637 27.0995 70.7637 24.7597Z" stroke="#663366" stroke-width="4.10156" stroke-miterlimit="10" stroke-linecap="round" stroke-linejoin="round"/>
<path d="M82.6905 38.1992C84.7336 33.9281 87.4292 30.7161 89.0619 28.9948C89.8836 28.1285 89.9987 26.8114 89.3397 25.8152L78.0533 8.74781C76.606 6.55922 73.3942 6.55922 71.9469 8.74781L60.6605 25.8152C60.0015 26.8114 60.1166 28.1285 60.9383 28.9948C62.571 30.7161 65.2665 33.9281 67.3097 38.1992" stroke="#663366" stroke-width="4.10156" stroke-miterlimit="10" stroke-linecap="round" stroke-linejoin="round"/>
</g>
</svg>
