<svg width="150" height="150" viewBox="0 0 150 150" fill="none" xmlns="http://www.w3.org/2000/svg">
<path d="M116.993 114.183C110.424 132.163 93.1676 144.998 72.9138 144.998C47.0041 144.998 26 123.994 26 98.0844C26 81.6255 34.4754 67.1465 47.3003 58.7734" stroke="#663366" stroke-width="4.26329" stroke-miterlimit="10"/>
<path d="M114.455 76.2617C117.886 82.7803 119.828 90.205 119.828 98.083C119.828 102.231 119.29 106.253 118.279 110.084" stroke="#663366" stroke-width="4.26329" stroke-miterlimit="10"/>
<path d="M98.5527 58.7891C103.909 62.2906 108.505 66.8578 112.04 72.1892" stroke="#663366" stroke-width="4.26329" stroke-miterlimit="10"/>
<path d="M47.2999 58.7751C41.5603 62.5234 36.6919 67.495 33.0645 73.3192L43.0695 81.0315V91.8142L60.1227 90.4969L62.2069 101.315L74.6679 108.867L73.2184 121.675L81.4389 126.181V136.224L94.2288 131.297L101.997 108.867L96.313 95.2425H75.4703L71.3016 85.9579H85.7022L86.8391 77.4313L94.2288 74.7787L93.1823 58.7734" stroke="#663366" stroke-width="4.26329" stroke-miterlimit="10"/>
<path d="M47.3697 120.822L40.9867 113.148L29.4883 115.86C34.2632 127.513 43.5904 136.817 55.2596 141.56L62.3978 133.139L58.6083 121.675L47.3697 120.822Z" stroke="#663366" stroke-width="4.26329" stroke-miterlimit="10"/>
<path d="M77.1767 58.8804H47.3691V34.1533C47.3691 34.1533 51.5969 27.8828 72.9134 27.8828C94.2298 27.8828 98.4931 34.1533 98.4931 34.1533V58.8804H81.44" stroke="#663366" stroke-width="4.26329" stroke-miterlimit="10"/>
<path d="M72.9134 37.832C51.5969 37.832 47.3691 44.1025 47.3691 44.1025V53.7659C47.3691 53.7659 51.5969 47.4955 72.9134 47.4955C94.2298 47.4955 98.4931 53.7659 98.4931 53.7659V44.1025C98.4931 44.1025 94.2298 37.832 72.9134 37.832Z" stroke="#663366" stroke-width="4.26329" stroke-miterlimit="10"/>
<path d="M54.4395 15.9953L72.912 5L118.552 32.1651L98.4918 45.3541" stroke="#663366" stroke-width="4.26329" stroke-miterlimit="10"/>
<path d="M47.3686 45.3758L27.2734 32.1633L50.688 18.2266" stroke="#663366" stroke-width="4.26329" stroke-miterlimit="10"/>
<path d="M118.389 58.3594C121.328 58.3594 123.711 55.9766 123.711 53.0371C123.711 50.0977 121.328 47.7148 118.389 47.7148C115.449 47.7148 113.066 50.0977 113.066 53.0371C113.066 55.9766 115.449 58.3594 118.389 58.3594Z" stroke="#663366" stroke-width="4.26329" stroke-miterlimit="10"/>
<path d="M124.784 76.2652H111.994V64.7543C111.994 61.2371 114.872 58.3594 118.389 58.3594C121.906 58.3594 124.784 61.2371 124.784 64.7543V76.2652Z" stroke="#663366" stroke-width="4.26329" stroke-miterlimit="10"/>
<path d="M118.389 47.7143V32.1641" stroke="#663366" stroke-width="4.26329" stroke-miterlimit="10"/>
</svg>
