<svg width="150" height="150" viewBox="0 0 150 150" fill="none" xmlns="http://www.w3.org/2000/svg">
<mask id="mask0_659_1427" style="mask-type:luminance" maskUnits="userSpaceOnUse" x="5" y="5" width="140" height="140">
<path d="M5 5H145V145H5V5Z" fill="white"/>
</mask>
<g mask="url(#mask0_659_1427)">
<path d="M74.9961 9.51226V38.0586" stroke="#663366" stroke-width="4.10156" stroke-miterlimit="10" stroke-linecap="round" stroke-linejoin="round"/>
<path d="M62.6328 131.398H87.3584V104.89C87.3584 104.092 86.7073 103.441 85.9089 103.441H64.09C63.2915 103.441 62.6328 104.092 62.6328 104.89V131.398Z" stroke="#663366" stroke-width="4.10156" stroke-miterlimit="10" stroke-linecap="round" stroke-linejoin="round"/>
<path d="M74.9961 103.441V131.398" stroke="#663366" stroke-width="4.10156" stroke-miterlimit="10" stroke-linecap="round" stroke-linejoin="round"/>
<path d="M74.9961 74.918H79.5693" stroke="#663366" stroke-width="4.10156" stroke-miterlimit="10" stroke-linecap="round" stroke-linejoin="round"/>
<path d="M74.9961 74.918V67.332" stroke="#663366" stroke-width="4.10156" stroke-miterlimit="10" stroke-linecap="round" stroke-linejoin="round"/>
<path d="M20.9238 80.7696H39.8752C40.4101 80.7696 40.8517 81.2112 40.8517 81.746V91.1837C40.8517 91.7186 40.4101 92.1602 39.8752 92.1602H20.9238C20.3813 92.1602 19.9395 91.7186 19.9395 91.1837V81.746C19.9395 81.2112 20.3813 80.7696 20.9238 80.7696Z" stroke="#663366" stroke-width="4.10156" stroke-miterlimit="10" stroke-linecap="round" stroke-linejoin="round"/>
<path d="M30.3965 80.7696V92.1602" stroke="#663366" stroke-width="4.10156" stroke-miterlimit="10" stroke-linecap="round" stroke-linejoin="round"/>
<path d="M20.9238 101.269H39.8752C40.4101 101.269 40.8517 101.711 40.8517 102.254V111.684C40.8517 112.226 40.4101 112.668 39.8752 112.668H20.9238C20.3813 112.668 19.9395 112.226 19.9395 111.684V102.254C19.9395 101.711 20.3813 101.269 20.9238 101.269Z" stroke="#663366" stroke-width="4.10156" stroke-miterlimit="10" stroke-linecap="round" stroke-linejoin="round"/>
<path d="M30.3965 101.269V112.668" stroke="#663366" stroke-width="4.10156" stroke-miterlimit="10" stroke-linecap="round" stroke-linejoin="round"/>
<path d="M129.074 80.7696H110.123C109.58 80.7696 109.139 81.2112 109.139 81.746V91.1837C109.139 91.7186 109.58 92.1602 110.123 92.1602H129.074C129.609 92.1602 130.051 91.7186 130.051 91.1837V81.746C130.051 81.2112 129.609 80.7696 129.074 80.7696Z" stroke="#663366" stroke-width="4.10156" stroke-miterlimit="10" stroke-linecap="round" stroke-linejoin="round"/>
<path d="M119.596 80.7696V92.1602" stroke="#663366" stroke-width="4.10156" stroke-miterlimit="10" stroke-linecap="round" stroke-linejoin="round"/>
<path d="M129.074 101.269H110.123C109.58 101.269 109.139 101.711 109.139 102.254V111.684C109.139 112.226 109.58 112.668 110.123 112.668H129.074C129.609 112.668 130.051 112.226 130.051 111.684V102.254C130.051 101.711 129.609 101.269 129.074 101.269Z" stroke="#663366" stroke-width="4.10156" stroke-miterlimit="10" stroke-linecap="round" stroke-linejoin="round"/>
<path d="M119.596 101.269V112.668" stroke="#663366" stroke-width="4.10156" stroke-miterlimit="10" stroke-linecap="round" stroke-linejoin="round"/>
<path d="M74.9954 88.082C83.3123 88.082 90.0946 81.2633 90.0946 72.9101C90.0946 64.5568 83.3123 57.7381 74.9954 57.7381C66.6788 57.7381 59.8965 64.5568 59.8965 72.9101C59.8965 81.2633 66.6788 88.082 74.9954 88.082Z" stroke="#663366" stroke-width="4.10156" stroke-miterlimit="10" stroke-linecap="round" stroke-linejoin="round"/>
<path d="M74.9961 12.7885H93.3041C94.2108 12.7885 94.9551 13.5325 94.9551 14.4466V26.2635C94.9551 27.1779 94.2108 27.9219 93.3041 27.9219H74.9961V12.7885Z" stroke="#663366" stroke-width="4.10156" stroke-miterlimit="10" stroke-linecap="round" stroke-linejoin="round"/>
<path d="M49.3559 67.332H7.74832C7.36086 67.332 7.05078 67.0143 7.05078 66.6268V59.4283C7.05078 59.0409 7.36086 58.7231 7.74832 58.7231H49.3559V67.332Z" stroke="#663366" stroke-width="4.10156" stroke-miterlimit="10" stroke-linecap="round" stroke-linejoin="round"/>
<path d="M100.643 67.332H142.243C142.63 67.332 142.948 67.0143 142.948 66.6268V59.4283C142.948 59.0409 142.63 58.7231 142.243 58.7231H100.643V67.332Z" stroke="#663366" stroke-width="4.10156" stroke-miterlimit="10" stroke-linecap="round" stroke-linejoin="round"/>
<path d="M70.0032 48.4844H44.7893C44.27 48.4844 43.8438 48.066 43.8438 47.5388V38.9999C43.8438 38.4809 44.27 38.0546 44.7893 38.0546H105.208C105.728 38.0546 106.146 38.4809 106.146 38.9999V47.5388C106.146 48.066 105.728 48.4844 105.208 48.4844H79.1341" stroke="#663366" stroke-width="4.10156" stroke-miterlimit="10" stroke-linecap="round" stroke-linejoin="round"/>
<path d="M11.127 106.185V139.249C11.127 139.93 11.685 140.488 12.3746 140.488H49.3552M11.127 67.3328V96.7159" stroke="#663366" stroke-width="4.10156" stroke-miterlimit="10" stroke-linecap="round" stroke-linejoin="round"/>
<path d="M100.643 67.3325H138.863V139.248C138.863 139.93 138.305 140.488 137.623 140.488H100.643V67.3325Z" stroke="#663366" stroke-width="4.10156" stroke-miterlimit="10" stroke-linecap="round" stroke-linejoin="round"/>
<path d="M58.7656 140.488V133.181C58.7656 132.205 59.6338 131.399 60.6958 131.399H89.3048C90.3589 131.399 91.227 132.205 91.227 133.181V140.488" stroke="#663366" stroke-width="4.10156" stroke-miterlimit="10" stroke-linecap="round" stroke-linejoin="round"/>
<path d="M49.3555 48.4878V140.488H100.644V48.4878" stroke="#663366" stroke-width="4.10156" stroke-miterlimit="10" stroke-linecap="round" stroke-linejoin="round"/>
</g>
</svg>
