<svg width="150" height="150" viewBox="0 0 150 150" fill="none" xmlns="http://www.w3.org/2000/svg">
<path d="M28.3331 40.5757C28.3331 35.9084 32.1165 32.125 36.7838 32.125H45.2345V61.7025H11.4316V32.125H19.8824C24.5497 32.125 28.3331 35.9087 28.3331 40.5757ZM28.3331 40.5757V61.7025" stroke="#663366" stroke-width="4.22536" stroke-miterlimit="10" stroke-linecap="round" stroke-linejoin="round"/>
<path d="M11.4316 53.2539H19.8824C24.5497 53.2539 28.3331 57.0373 28.3331 61.7046C28.3331 57.0373 32.1165 53.2539 36.7838 53.2539H45.2345" stroke="#663366" stroke-width="4.22536" stroke-miterlimit="10" stroke-linecap="round" stroke-linejoin="round"/>
<path d="M43.2163 125.648V132.995C43.2163 135.938 40.8306 138.324 37.8875 138.324C34.9444 138.324 32.5591 135.938 32.5591 132.995V104.662H24.1084V132.995C24.1084 135.938 21.7227 138.324 18.7796 138.324C15.8365 138.324 13.4512 135.938 13.4512 132.995V78.6055" stroke="#663366" stroke-width="4.22536" stroke-miterlimit="10" stroke-linecap="round" stroke-linejoin="round"/>
<path d="M43.2148 78.6055V117.197" stroke="#663366" stroke-width="4.22536" stroke-miterlimit="10" stroke-linecap="round" stroke-linejoin="round"/>
<path d="M13.4507 104.519C13.4507 106.852 11.5589 108.744 9.22536 108.744C6.89183 108.744 5 106.852 5 104.519V78.6031C5 73.9552 8.80282 70.1523 13.4507 70.1523H43.2161C47.864 70.1523 51.6668 73.9552 51.6668 78.6031" stroke="#663366" stroke-width="4.22536" stroke-miterlimit="10" stroke-linecap="round" stroke-linejoin="round"/>
<path d="M143.753 30.3278L125.663 12.2376C124.013 10.5875 121.338 10.5875 119.688 12.2376L101.598 30.3278C98.9359 32.9895 100.821 37.541 104.585 37.541H108.802V138.324H136.549V37.541H140.765C144.53 37.541 146.415 32.9898 143.753 30.3278Z" stroke="#663366" stroke-width="4.22536" stroke-miterlimit="10" stroke-linecap="round" stroke-linejoin="round"/>
<path d="M74.9991 19.4507C74.9991 14.7834 78.7825 11 83.4498 11H91.9005V40.5775H58.0977V11H66.5484C71.2157 11 74.9991 14.7837 74.9991 19.4507ZM74.9991 19.4507V40.5775" stroke="#663366" stroke-width="4.22536" stroke-miterlimit="10" stroke-linecap="round" stroke-linejoin="round"/>
<path d="M58.0977 32.125H66.5484C71.2157 32.125 74.9991 35.9084 74.9991 40.5757C74.9991 35.9084 78.7825 32.125 83.4498 32.125H91.9005" stroke="#663366" stroke-width="4.22536" stroke-miterlimit="10" stroke-linecap="round" stroke-linejoin="round"/>
<path d="M89.8828 117.195V57.4766" stroke="#663366" stroke-width="4.22536" stroke-miterlimit="10" stroke-linecap="round" stroke-linejoin="round"/>
<path d="M60.1172 57.4766V132.993C60.1172 135.936 62.5028 138.322 65.4459 138.322C68.389 138.322 70.7744 135.936 70.7744 132.993V91.9837H79.2251V132.993C79.2251 135.936 81.611 138.322 84.5538 138.322C87.4967 138.322 89.8826 135.936 89.8826 132.993V125.646" stroke="#663366" stroke-width="4.22536" stroke-miterlimit="10" stroke-linecap="round" stroke-linejoin="round"/>
<path d="M51.666 91.8438C51.666 94.1773 53.5578 96.0691 55.8914 96.0691C58.2249 96.0691 60.1167 94.1773 60.1167 91.8438" stroke="#663366" stroke-width="4.22536" stroke-miterlimit="10" stroke-linecap="round" stroke-linejoin="round"/>
<path d="M89.8833 91.8443C89.8833 94.1778 91.7752 96.0697 94.1087 96.0697C96.4422 96.0697 98.3341 94.1778 98.3341 91.8443V57.4781C98.3341 52.8302 94.5312 49.0273 89.8833 49.0273H60.1182C55.4703 49.0273 51.6675 52.8302 51.6675 57.4781V104.52C51.6675 106.854 49.7757 108.746 47.4422 108.746C45.1086 108.746 43.2168 106.854 43.2168 104.52" stroke="#663366" stroke-width="4.22536" stroke-miterlimit="10" stroke-linecap="round" stroke-linejoin="round"/>
</svg>
