<svg width="150" height="150" viewBox="0 0 150 150" fill="none" xmlns="http://www.w3.org/2000/svg">
<path d="M87.0539 70.0754C88.021 66.4734 89.9438 62.7495 92.6948 60.205C97.8424 55.4435 101.065 48.6311 101.065 41.0661C101.065 26.6044 89.2886 14.8937 74.8021 15.0007C60.47 15.1069 48.8353 26.9173 48.9342 41.2495C48.9858 48.714 52.1748 55.4328 57.2483 60.1531C60.0444 62.7545 62.0069 66.552 62.9745 70.2123" stroke="#663366" stroke-width="4.22535" stroke-miterlimit="10" stroke-linecap="round" stroke-linejoin="round"/>
<path d="M85.4766 81.1886H64.525C63.2642 81.1886 62.2422 80.1666 62.2422 78.9058V72.9156C62.2422 71.6545 63.263 70.6322 64.5242 70.6328C69.3689 70.6353 80.6343 70.6359 85.4782 70.6359C86.7391 70.6359 87.7591 71.6579 87.7591 72.9187V78.9058C87.7594 80.1666 86.7374 81.1886 85.4766 81.1886Z" stroke="#663366" stroke-width="4.22535" stroke-miterlimit="10" stroke-linecap="round" stroke-linejoin="round"/>
<path d="M75 24.2969V27.6836" stroke="#663366" stroke-width="4.22535" stroke-miterlimit="10" stroke-linecap="round" stroke-linejoin="round"/>
<path d="M87.7583 29.9648L85.5898 32.5665" stroke="#663366" stroke-width="4.22535" stroke-miterlimit="10" stroke-linecap="round" stroke-linejoin="round"/>
<path d="M62.2422 29.9648L64.4106 32.5665" stroke="#663366" stroke-width="4.22535" stroke-miterlimit="10" stroke-linecap="round" stroke-linejoin="round"/>
<path d="M76.5859 37.0278L78.3611 40.7774C78.6169 41.3179 79.1304 41.6909 79.7233 41.7672L83.838 42.2971C85.3073 42.4864 85.896 44.2982 84.8186 45.3148L81.8011 48.1619C81.3662 48.5723 81.1701 49.1757 81.2808 49.7636L82.0484 53.8405C82.3225 55.2963 80.7811 56.4163 79.4814 55.7056L75.8411 53.7157C75.3163 53.4289 74.6816 53.4289 74.1571 53.7157L70.5169 55.7056C69.2169 56.4163 67.6757 55.2963 67.9498 53.8405L68.7174 49.7636C68.8281 49.176 68.6321 48.5723 68.1971 48.1619L65.1797 45.3148C64.1022 44.2982 64.6909 42.4861 66.1602 42.2971L70.2749 41.7672C70.8678 41.6909 71.3814 41.3179 71.6371 40.7774L73.4124 37.0278C74.0467 35.6886 75.9521 35.6886 76.5859 37.0278Z" stroke="#663366" stroke-width="4.22535" stroke-miterlimit="10" stroke-linecap="round" stroke-linejoin="round"/>
<path d="M78.0128 89.4542H71.9892C67.9241 89.4542 64.6289 86.159 64.6289 82.0939V81.1914H85.3731V82.0939C85.3731 86.1587 82.0779 89.4542 78.0128 89.4542Z" stroke="#663366" stroke-width="4.22535" stroke-miterlimit="10" stroke-linecap="round" stroke-linejoin="round"/>
<path d="M96.3442 134.966H15.6637C9.77437 134.966 5 130.192 5 124.302V118.911C5 117.355 6.26113 116.094 7.8169 116.094H142.183C143.739 116.094 145 117.355 145 118.911V124.302C145 130.192 140.226 134.966 134.336 134.966H106.204" stroke="#663366" stroke-width="4.22535" stroke-miterlimit="10" stroke-linecap="round" stroke-linejoin="round"/>
<path d="M39.0748 33.1289H24.3275C17.3143 33.1289 11.6289 38.8143 11.6289 45.8275V116.092H138.372V45.8275C138.372 38.8143 132.686 33.1289 125.673 33.1289H101.066" stroke="#663366" stroke-width="4.22535" stroke-miterlimit="10" stroke-linecap="round" stroke-linejoin="round"/>
<path d="M101.065 44.9414H121.272C124.384 44.9414 126.906 47.4637 126.906 50.5752V116.091H23.0918V50.5752C23.0918 47.4637 25.6141 44.9414 28.7256 44.9414H48.9329" stroke="#663366" stroke-width="4.22535" stroke-miterlimit="10" stroke-linecap="round" stroke-linejoin="round"/>
<path d="M35.4102 77.1562H48.9349" stroke="#663366" stroke-width="4.22535" stroke-miterlimit="10" stroke-linecap="round" stroke-linejoin="round"/>
<path d="M35.4102 86.3633H52.1834" stroke="#663366" stroke-width="4.22535" stroke-miterlimit="10" stroke-linecap="round" stroke-linejoin="round"/>
<path d="M35.4102 95.5703H59.1057" stroke="#663366" stroke-width="4.22535" stroke-miterlimit="10" stroke-linecap="round" stroke-linejoin="round"/>
<path d="M35.4102 104.773H59.1057" stroke="#663366" stroke-width="4.22535" stroke-miterlimit="10" stroke-linecap="round" stroke-linejoin="round"/>
<path d="M114.591 77.1562H101.066" stroke="#663366" stroke-width="4.22535" stroke-miterlimit="10" stroke-linecap="round" stroke-linejoin="round"/>
<path d="M114.591 86.3633H97.8184" stroke="#663366" stroke-width="4.22535" stroke-miterlimit="10" stroke-linecap="round" stroke-linejoin="round"/>
<path d="M114.59 95.5703H90.8945" stroke="#663366" stroke-width="4.22535" stroke-miterlimit="10" stroke-linecap="round" stroke-linejoin="round"/>
<path d="M114.59 104.773H90.8945" stroke="#663366" stroke-width="4.22535" stroke-miterlimit="10" stroke-linecap="round" stroke-linejoin="round"/>
</svg>
