<svg width="150" height="150" viewBox="0 0 150 150" fill="none" xmlns="http://www.w3.org/2000/svg">
<path d="M131.809 84.8581V63.3164" stroke="#663366" stroke-width="4.22535" stroke-miterlimit="10" stroke-linecap="round" stroke-linejoin="round"/>
<path d="M18.1914 63.3164V84.4874" stroke="#663366" stroke-width="4.22535" stroke-miterlimit="10" stroke-linecap="round" stroke-linejoin="round"/>
<path d="M107.864 37.4931V24.8599L77.9852 5.86831C76.1638 4.71056 73.8373 4.71056 72.0159 5.86831L42.1367 24.8599V37.4931" stroke="#663366" stroke-width="4.22535" stroke-miterlimit="10" stroke-linecap="round" stroke-linejoin="round"/>
<path d="M59.6002 37.4922H20.8509C19.0155 37.4922 17.4262 38.7666 17.027 40.5581L13.1383 58.0133C12.5932 60.4606 14.4552 62.7829 16.9622 62.7829H42.1357" stroke="#663366" stroke-width="4.22535" stroke-miterlimit="10" stroke-linecap="round" stroke-linejoin="round"/>
<path d="M107.864 62.7829H133.037C135.544 62.7829 137.406 60.4604 136.861 58.0133L132.972 40.5581C132.573 38.7666 130.984 37.4922 129.148 37.4922H90.3281" stroke="#663366" stroke-width="4.22535" stroke-miterlimit="10" stroke-linecap="round" stroke-linejoin="round"/>
<path d="M36.625 28.3619L42.1354 24.8594" stroke="#663366" stroke-width="4.22535" stroke-miterlimit="10" stroke-linecap="round" stroke-linejoin="round"/>
<path d="M113.374 28.3619L107.863 24.8594" stroke="#663366" stroke-width="4.22535" stroke-miterlimit="10" stroke-linecap="round" stroke-linejoin="round"/>
<path d="M42.1367 84.8592V76.5586" stroke="#663366" stroke-width="4.22535" stroke-miterlimit="10" stroke-linecap="round" stroke-linejoin="round"/>
<path d="M42.1367 66.6985V52.332C42.1367 50.15 43.2519 48.1196 45.0933 46.9492L72.0159 29.8371C73.8373 28.6793 76.1638 28.6793 77.9852 29.8371L104.908 46.9492C106.749 48.1196 107.864 50.15 107.864 52.332V84.8593" stroke="#663366" stroke-width="4.22535" stroke-miterlimit="10" stroke-linecap="round" stroke-linejoin="round"/>
<path d="M93.403 85.1419V64.4453H56.5957V85.1419" stroke="#663366" stroke-width="4.22535" stroke-miterlimit="10" stroke-linecap="round" stroke-linejoin="round"/>
<path d="M75 64.4453V85.0529" stroke="#663366" stroke-width="4.22535" stroke-miterlimit="10" stroke-linecap="round" stroke-linejoin="round"/>
<path d="M108.899 145H135.392C137.591 145 139.374 143.217 139.374 141.018V135.164H10.627V141.018C10.627 143.217 12.4098 145 14.6092 145H99.0385" stroke="#663366" stroke-width="4.22535" stroke-miterlimit="10" stroke-linecap="round" stroke-linejoin="round"/>
<path d="M128.141 123.074H21.8602C15.6562 123.074 10.627 128.104 10.627 134.307V135.164H139.374V134.307C139.374 128.103 134.345 123.074 128.141 123.074Z" stroke="#663366" stroke-width="4.22535" stroke-miterlimit="10" stroke-linecap="round" stroke-linejoin="round"/>
<path d="M5 117.44V90.9658C5 87.8543 7.52225 85.332 10.6338 85.332H139.366C142.478 85.332 145 87.8543 145 90.9658V117.44C145 120.551 142.478 123.073 139.366 123.073H10.6338C7.52225 123.073 5 120.551 5 117.44Z" stroke="#663366" stroke-width="4.22535" stroke-miterlimit="10" stroke-linecap="round" stroke-linejoin="round"/>
<path d="M124.859 96.6055V111.787C125.027 111.816 130.18 111.787 130.18 111.787" stroke="#663366" stroke-width="4.22535" stroke-miterlimit="10" stroke-linecap="round" stroke-linejoin="round"/>
<path d="M58.416 96.6055V111.8" stroke="#663366" stroke-width="4.22535" stroke-miterlimit="10" stroke-linecap="round" stroke-linejoin="round"/>
<path d="M68.9316 96.6055V111.8" stroke="#663366" stroke-width="4.22535" stroke-miterlimit="10" stroke-linecap="round" stroke-linejoin="round"/>
<path d="M58.416 103.941H68.9309" stroke="#663366" stroke-width="4.22535" stroke-miterlimit="10" stroke-linecap="round" stroke-linejoin="round"/>
<path d="M49.7125 97.9029C48.4999 97.0838 47.0382 96.6055 45.4647 96.6055C41.2686 96.6055 37.8672 100.007 37.8672 104.203C37.8672 108.399 41.2686 111.8 45.4647 111.8C47.1689 111.8 48.5706 111.239 49.6342 110.292C49.8542 110.096 50.0599 109.883 50.2508 109.656" stroke="#663366" stroke-width="4.22535" stroke-miterlimit="10" stroke-linecap="round" stroke-linejoin="round"/>
<path d="M29.1851 98.1675C29.1851 98.1675 26.4586 95.8757 23.2434 96.8441C20.291 97.7334 19.8783 101.138 22.0141 102.53C22.0141 102.53 24.1099 103.465 26.4347 104.322C32.0305 106.386 29.62 111.8 25.1152 111.8C22.8595 111.8 20.9662 110.812 19.8203 109.548" stroke="#663366" stroke-width="4.22535" stroke-miterlimit="10" stroke-linecap="round" stroke-linejoin="round"/>
<path d="M84.9998 111.8C89.1958 111.8 92.5973 108.399 92.5973 104.203C92.5973 100.007 89.1958 96.6055 84.9998 96.6055C80.8038 96.6055 77.4023 100.007 77.4023 104.203C77.4023 108.399 80.8038 111.8 84.9998 111.8Z" stroke="#663366" stroke-width="4.22535" stroke-miterlimit="10" stroke-linecap="round" stroke-linejoin="round"/>
<path d="M108.572 111.8C112.768 111.8 116.17 108.399 116.17 104.203C116.17 100.007 112.768 96.6055 108.572 96.6055C104.376 96.6055 100.975 100.007 100.975 104.203C100.975 108.399 104.376 111.8 108.572 111.8Z" stroke="#663366" stroke-width="4.22535" stroke-miterlimit="10" stroke-linecap="round" stroke-linejoin="round"/>
</svg>
