<svg width="150" height="150" viewBox="0 0 150 150" fill="none" xmlns="http://www.w3.org/2000/svg">
<path d="M5 114.184L66.4636 130.653C67.4991 134.516 71.0002 137.203 75.0001 137.203C79.0001 137.203 82.5015 134.516 83.5367 130.653L145 114.184" stroke="#663366" stroke-width="4.3" stroke-miterlimit="22.9256" stroke-linecap="round" stroke-linejoin="round"/>
<path d="M10.7598 114.671L13.5262 104.348L74.9994 120.819L136.473 104.348L139.239 114.671" stroke="#663366" stroke-width="4.3" stroke-miterlimit="22.9256" stroke-linecap="round" stroke-linejoin="round"/>
<path d="M66.4629 129.425C67.4981 125.562 70.9995 122.875 74.9995 122.875C78.9995 122.875 82.5009 125.562 83.5361 129.425" stroke="#663366" stroke-width="4.3" stroke-miterlimit="22.9256" stroke-linecap="round" stroke-linejoin="round"/>
<path d="M75.0005 120.819L16.6543 95.4023" stroke="#663366" stroke-width="4.3" stroke-miterlimit="22.9256" stroke-linecap="round" stroke-linejoin="round"/>
<path d="M75 120.819L133.346 95.4023" stroke="#663366" stroke-width="4.3" stroke-miterlimit="22.9256" stroke-linecap="round" stroke-linejoin="round"/>
<path fill-rule="evenodd" clip-rule="evenodd" d="M81.477 18.6924C86.4882 19.6138 91.1318 21.5849 95.1722 24.3689L100.292 20.0187L108.683 28.4096L104.333 33.5292C107.117 37.5696 109.089 42.2132 110.01 47.2247L116.702 47.7688V59.6352L110.011 60.1792C109.089 65.1905 107.117 69.8344 104.333 73.8745L108.683 78.9947L100.292 87.3856L95.1716 83.0351C91.1313 85.8185 86.4882 87.7908 81.477 88.7119L80.9329 95.4048H69.0665L68.5225 88.7136C63.5112 87.7919 58.8673 85.8203 54.8272 83.0359L49.707 87.3861L41.3161 78.9953L45.6666 73.8747C42.8832 69.8344 40.9112 65.1914 39.9898 60.1801L33.2969 59.636V47.7696L39.9881 47.2256C40.9098 42.2143 42.8814 37.5704 45.6658 33.5304L41.3161 28.4096L49.707 20.0187L54.8278 24.3695C58.8682 21.586 63.5112 19.6138 68.5225 18.6927L69.0665 12H80.9329L81.477 18.6924Z" stroke="#663366" stroke-width="4.3" stroke-miterlimit="22.9256" stroke-linecap="round" stroke-linejoin="round"/>
<path d="M74.9997 75.0424C86.7863 75.0424 96.3412 65.4875 96.3412 53.7009C96.3412 41.9143 86.7863 32.3594 74.9997 32.3594C63.2131 32.3594 53.6582 41.9143 53.6582 53.7009C53.6582 65.4875 63.2131 75.0424 74.9997 75.0424Z" stroke="#663366" stroke-width="4.3" stroke-miterlimit="22.9256" stroke-linecap="round" stroke-linejoin="round"/>
<path d="M75.0006 60.8136C78.9294 60.8136 82.1144 57.6286 82.1144 53.6998C82.1144 49.7709 78.9294 46.5859 75.0006 46.5859C71.0717 46.5859 67.8867 49.7709 67.8867 53.6998C67.8867 57.6286 71.0717 60.8136 75.0006 60.8136Z" stroke="#663366" stroke-width="4.3" stroke-miterlimit="22.9256" stroke-linecap="round" stroke-linejoin="round"/>
</svg>
