<svg width="150" height="150" viewBox="0 0 150 150" fill="none" xmlns="http://www.w3.org/2000/svg">
<path d="M100.239 94.2969H49.5352V145.001H100.239V94.2969Z" stroke="#663366" stroke-width="4.2" stroke-miterlimit="10" stroke-linecap="round" stroke-linejoin="round"/>
<path d="M100.239 77.3945H49.5352V94.2959H100.239V77.3945Z" stroke="#663366" stroke-width="4.2" stroke-miterlimit="10" stroke-linecap="round" stroke-linejoin="round"/>
<circle cx="66.4363" cy="128.1" r="4.22535" fill="#663366"/>
<circle cx="83.3386" cy="128.1" r="4.22535" fill="#663366"/>
<circle cx="66.4363" cy="111.198" r="4.22535" fill="#663366"/>
<circle cx="83.3386" cy="111.198" r="4.22535" fill="#663366"/>
<path d="M74.8873 77.395V75.7218C74.8873 64.0457 65.4197 54.5781 53.7437 54.5781H7V145.001H49.5352" stroke="#663366" stroke-width="4.2" stroke-miterlimit="10" stroke-linecap="round" stroke-linejoin="round"/>
<path d="M74.8867 77.395V75.7218C74.8867 64.0457 84.3543 54.5781 96.0304 54.5781H142.774V145.001H100.239" stroke="#663366" stroke-width="4.2" stroke-miterlimit="10" stroke-linecap="round" stroke-linejoin="round"/>
<path d="M7 9.22656H13.1414V37.9595" stroke="#663366" stroke-width="4.2" stroke-miterlimit="10" stroke-linecap="round" stroke-linejoin="round"/>
<path d="M46.5928 38.4556C46.5928 38.4556 32.6131 38.6314 31.9508 38.4105C31.2886 38.1897 33.0125 37.0237 42.1782 23.928C43.89 21.4823 44.8323 19.419 45.2328 17.6902L45.3748 16.5787C45.3748 12.5181 42.083 9.22656 38.0227 9.22656C34.4497 9.22656 31.472 11.7753 30.8086 15.1536" stroke="#663366" stroke-width="4.2" stroke-miterlimit="10" stroke-linecap="round" stroke-linejoin="round"/>
<path d="M126.967 9.22656H142.774L130.143 37.9595" stroke="#663366" stroke-width="4.2" stroke-miterlimit="10" stroke-linecap="round" stroke-linejoin="round"/>
<path d="M110.552 9.22656C110.552 9.22656 101.75 15.7733 100.33 28.1361" stroke="#663366" stroke-width="4.2" stroke-miterlimit="10" stroke-linecap="round" stroke-linejoin="round"/>
<path d="M108.547 37.6487C113.136 37.6487 116.856 33.9288 116.856 29.34C116.856 24.7512 113.136 21.0312 108.547 21.0312C103.958 21.0312 100.238 24.7512 100.238 29.34C100.238 33.9288 103.958 37.6487 108.547 37.6487Z" stroke="#663366" stroke-width="4.2" stroke-miterlimit="10" stroke-linecap="round" stroke-linejoin="round"/>
<path d="M85.7186 9.22656L64.0566 37.9595" stroke="#663366" stroke-width="4.2" stroke-miterlimit="10" stroke-linecap="round" stroke-linejoin="round"/>
<circle cx="88.1375" cy="37.9597" r="4.22535" fill="#663366"/>
<circle cx="61.6355" cy="9.22535" r="4.22535" fill="#663366"/>
<path d="M142.773 128.098H100.238" stroke="#663366" stroke-width="4.2" stroke-miterlimit="10" stroke-linecap="round" stroke-linejoin="round"/>
<path d="M49.5352 128.098H7" stroke="#663366" stroke-width="4.2" stroke-miterlimit="10" stroke-linecap="round" stroke-linejoin="round"/>
</svg>
