<svg width="150" height="150" viewBox="0 0 150 150" fill="none" xmlns="http://www.w3.org/2000/svg">
<path d="M57.4141 122.688V144.98C57.6606 145.022 62.695 144.98 62.695 144.98" stroke="#663366" stroke-width="4.2" stroke-miterlimit="10" stroke-linecap="round" stroke-linejoin="round"/>
<path d="M72.8477 122.688V144.98C73.0942 145.022 78.1286 144.98 78.1286 144.98" stroke="#663366" stroke-width="4.2" stroke-miterlimit="10" stroke-linecap="round" stroke-linejoin="round"/>
<path d="M96.1442 122.789H88.4004V144.896H96.1442" stroke="#663366" stroke-width="4.2" stroke-miterlimit="10" stroke-linecap="round" stroke-linejoin="round"/>
<path d="M95.4573 133.844H88.4004" stroke="#663366" stroke-width="4.2" stroke-miterlimit="10" stroke-linecap="round" stroke-linejoin="round"/>
<path d="M137.214 122.789H129.471V144.896H137.214" stroke="#663366" stroke-width="4.2" stroke-miterlimit="10" stroke-linecap="round" stroke-linejoin="round"/>
<path d="M136.528 133.844H129.471" stroke="#663366" stroke-width="4.2" stroke-miterlimit="10" stroke-linecap="round" stroke-linejoin="round"/>
<path d="M40.3104 144.998C36.6138 144.998 33.6172 142.002 33.6172 138.305V129.381C33.6172 125.684 36.6138 122.688 40.3104 122.688C44.007 122.688 47.0036 125.684 47.0036 129.381V138.305C47.0036 142.002 44.0067 144.998 40.3104 144.998Z" stroke="#663366" stroke-width="4.2" stroke-miterlimit="10" stroke-linecap="round" stroke-linejoin="round"/>
<path d="M24.4458 125.969C23.2795 124.005 21.1379 122.688 18.6874 122.688C14.9908 122.688 11.9941 125.684 11.9941 129.381V138.305C11.9941 142.002 14.9908 144.998 18.6874 144.998C21.1376 144.998 23.2795 143.681 24.4458 141.716" stroke="#663366" stroke-width="4.2" stroke-miterlimit="10" stroke-linecap="round" stroke-linejoin="round"/>
<path d="M118.501 125.638C117.299 123.858 115.262 122.688 112.951 122.688C109.254 122.688 106.258 125.684 106.258 129.381V138.305C106.258 142.002 109.254 144.998 112.951 144.998C116.648 144.998 119.644 142.002 119.644 138.305V135.705H116.111" stroke="#663366" stroke-width="4.2" stroke-miterlimit="10" stroke-linecap="round" stroke-linejoin="round"/>
<path d="M32.494 7.78906H6V108.187H84.0876V7.78906H57.5936" stroke="#663366" stroke-width="4.2" stroke-miterlimit="10" stroke-linecap="round" stroke-linejoin="round"/>
<path d="M143.174 52.4102H84.0859V108.187H143.174V52.4102Z" stroke="#663366" stroke-width="4.2" stroke-miterlimit="10" stroke-linecap="round" stroke-linejoin="round"/>
<path d="M126.747 107.907V85.875H100.514V107.907" stroke="#663366" stroke-width="4.2" stroke-miterlimit="10" stroke-linecap="round" stroke-linejoin="round"/>
<path d="M126.746 63.5664H100.514V74.7218H126.746V63.5664Z" stroke="#663366" stroke-width="4.2" stroke-miterlimit="10" stroke-linecap="round" stroke-linejoin="round"/>
<path d="M28.3097 85.875H17.1543V97.0304H28.3097V85.875Z" stroke="#663366" stroke-width="4.2" stroke-miterlimit="10" stroke-linecap="round" stroke-linejoin="round"/>
<path d="M50.6202 85.875H39.4648V97.0304H50.6202V85.875Z" stroke="#663366" stroke-width="4.2" stroke-miterlimit="10" stroke-linecap="round" stroke-linejoin="round"/>
<path d="M72.9308 85.875H61.7754V97.0304H72.9308V85.875Z" stroke="#663366" stroke-width="4.2" stroke-miterlimit="10" stroke-linecap="round" stroke-linejoin="round"/>
<path d="M28.3097 63.5664H17.1543V74.7218H28.3097V63.5664Z" stroke="#663366" stroke-width="4.2" stroke-miterlimit="10" stroke-linecap="round" stroke-linejoin="round"/>
<path d="M50.6202 63.5664H39.4648V74.7218H50.6202V63.5664Z" stroke="#663366" stroke-width="4.2" stroke-miterlimit="10" stroke-linecap="round" stroke-linejoin="round"/>
<path d="M72.9308 63.5664H61.7754V74.7218H72.9308V63.5664Z" stroke="#663366" stroke-width="4.2" stroke-miterlimit="10" stroke-linecap="round" stroke-linejoin="round"/>
<path d="M28.3097 41.2539H17.1543V52.4093H28.3097V41.2539Z" stroke="#663366" stroke-width="4.2" stroke-miterlimit="10" stroke-linecap="round" stroke-linejoin="round"/>
<path d="M50.6202 41.2539H39.4648V52.4093H50.6202V41.2539Z" stroke="#663366" stroke-width="4.2" stroke-miterlimit="10" stroke-linecap="round" stroke-linejoin="round"/>
<path d="M72.9308 41.2539H61.7754V52.4093H72.9308V41.2539Z" stroke="#663366" stroke-width="4.2" stroke-miterlimit="10" stroke-linecap="round" stroke-linejoin="round"/>
<path d="M28.3097 18.9453H17.1543V30.1007H28.3097V18.9453Z" stroke="#663366" stroke-width="4.2" stroke-miterlimit="10" stroke-linecap="round" stroke-linejoin="round"/>
<path d="M50.6202 18.9453H39.4648V30.1007H50.6202V18.9453Z" stroke="#663366" stroke-width="4.2" stroke-miterlimit="10" stroke-linecap="round" stroke-linejoin="round"/>
<path d="M72.9308 18.9453H61.7754V30.1007H72.9308V18.9453Z" stroke="#663366" stroke-width="4.2" stroke-miterlimit="10" stroke-linecap="round" stroke-linejoin="round"/>
<path d="M113.631 52.204V36.6133" stroke="#663366" stroke-width="4.2" stroke-miterlimit="10" stroke-linecap="round" stroke-linejoin="round"/>
<path d="M133.231 40.9132H113.631V29.7578H133.231L129.07 35.3355L133.231 40.9132Z" stroke="#663366" stroke-width="4.2" stroke-miterlimit="10" stroke-linecap="round" stroke-linejoin="round"/>
<circle cx="45.0427" cy="7.78884" r="2.78884" fill="#663366"/>
</svg>
