<svg width="150" height="150" viewBox="0 0 150 150" fill="none" xmlns="http://www.w3.org/2000/svg">
<mask id="mask0_629_2359" style="mask-type:luminance" maskUnits="userSpaceOnUse" x="5" y="5" width="140" height="140">
<path d="M5 5H145V145H5V5Z" fill="white"/>
</mask>
<g mask="url(#mask0_629_2359)">
<path d="M14.5211 112.418C10.3345 112.049 7.05078 108.532 7.05078 104.248V27.0234C7.05078 22.4953 10.7228 18.8203 15.2539 18.8203H35.6275" stroke="#663366" stroke-width="4.2" stroke-miterlimit="10" stroke-linecap="round" stroke-linejoin="round"/>
<path d="M114.371 18.8187H134.745C139.276 18.8187 142.948 22.4937 142.948 27.0219V104.246C142.948 108.777 139.276 112.449 134.745 112.449H35.791" stroke="#663366" stroke-width="4.2" stroke-miterlimit="10" stroke-linecap="round" stroke-linejoin="round"/>
<path d="M114.371 27.0219H133.651C134.255 27.0219 134.745 27.5141 134.745 28.1156V99.0508C134.745 99.6551 134.255 100.145 133.651 100.145H114.371" stroke="#663366" stroke-width="4.2" stroke-miterlimit="10" stroke-linecap="round" stroke-linejoin="round"/>
<path d="M21.6059 100.145H16.3477C15.7434 100.145 15.2539 99.6551 15.2539 99.0508V28.1156C15.2539 27.5141 15.7434 27.0219 16.3477 27.0219H35.6275" stroke="#663366" stroke-width="4.2" stroke-miterlimit="10" stroke-linecap="round" stroke-linejoin="round"/>
<path d="M86.5575 128.156L84.4441 112.447H65.5548L63.4414 128.156" stroke="#663366" stroke-width="4.2" stroke-miterlimit="10" stroke-linecap="round" stroke-linejoin="round"/>
<path d="M92.7435 129.763L95.6319 140.177C96.0185 141.571 94.9704 142.949 93.5239 142.949H56.474C55.0275 142.949 53.9794 141.571 54.366 140.177L57.2544 129.763C57.5169 128.816 58.3793 128.16 59.3623 128.16H90.6356C91.6186 128.16 92.481 128.816 92.7435 129.763Z" stroke="#663366" stroke-width="4.2" stroke-miterlimit="10" stroke-linecap="round" stroke-linejoin="round"/>
<path d="M92.7046 100.145H40.5098" stroke="#663366" stroke-width="4.2" stroke-miterlimit="10" stroke-linecap="round" stroke-linejoin="round"/>
<path d="M35.627 39.3894V10.3312C35.627 8.51835 37.0953 7.04999 38.9082 7.04999H111.09C112.903 7.04999 114.371 8.51835 114.371 10.3312V100.145H102.276" stroke="#663366" stroke-width="4.2" stroke-miterlimit="10" stroke-linecap="round" stroke-linejoin="round"/>
<path d="M35.627 23.457H114.371" stroke="#663366" stroke-width="4.2" stroke-miterlimit="10" stroke-linecap="round" stroke-linejoin="round"/>
<path d="M45.8809 15.2539C45.8809 16.3865 44.9629 17.3047 43.8301 17.3047C42.6975 17.3047 41.7793 16.3865 41.7793 15.2539C41.7793 14.1213 42.6975 13.2031 43.8301 13.2031C44.9629 13.2031 45.8809 14.1213 45.8809 15.2539Z" fill="#663366"/>
<path d="M54.084 15.2539C54.084 16.3865 53.1661 17.3047 52.0332 17.3047C50.9006 17.3047 49.9824 16.3865 49.9824 15.2539C49.9824 14.1213 50.9006 13.2031 52.0332 13.2031C53.1661 13.2031 54.084 14.1213 54.084 15.2539Z" fill="#663366"/>
<path d="M62.2871 15.2539C62.2871 16.3865 61.3692 17.3047 60.2363 17.3047C59.1038 17.3047 58.1855 16.3865 58.1855 15.2539C58.1855 14.1213 59.1038 13.2031 60.2363 13.2031C61.3692 13.2031 62.2871 14.1213 62.2871 15.2539Z" fill="#663366"/>
<path d="M106.168 37.1914H82.7949" stroke="#663366" stroke-width="4.2" stroke-miterlimit="10" stroke-linecap="round" stroke-linejoin="round"/>
<path d="M106.169 49.4961H90.3125" stroke="#663366" stroke-width="4.2" stroke-miterlimit="10" stroke-linecap="round" stroke-linejoin="round"/>
<path d="M106.169 61.8008H92.2266" stroke="#663366" stroke-width="4.2" stroke-miterlimit="10" stroke-linecap="round" stroke-linejoin="round"/>
<path d="M106.169 74.1055H90.0391" stroke="#663366" stroke-width="4.2" stroke-miterlimit="10" stroke-linecap="round" stroke-linejoin="round"/>
<path d="M106.168 86.4102H82.7949" stroke="#663366" stroke-width="4.2" stroke-miterlimit="10" stroke-linecap="round" stroke-linejoin="round"/>
<path d="M35.3035 84.2258L29.9414 93.5117" stroke="#663366" stroke-width="4.2" stroke-miterlimit="10" stroke-linecap="round" stroke-linejoin="round"/>
<path d="M44.5023 89.552L39.1484 98.8242" stroke="#663366" stroke-width="4.2" stroke-miterlimit="10" stroke-linecap="round" stroke-linejoin="round"/>
<path d="M11.6621 135.806C16.0721 138.352 21.7106 136.841 24.2566 132.432L40.58 104.159C41.6579 102.291 41.0181 99.9033 39.1507 98.8251L29.9444 93.5098C28.0768 92.4319 25.6889 93.0714 24.6107 94.939L8.28758 123.212C5.7416 127.621 7.25234 133.26 11.6621 135.806Z" stroke="#663366" stroke-width="4.2" stroke-miterlimit="10" stroke-linecap="round" stroke-linejoin="round"/>
<path d="M29.447 46.4463C34.6295 38.1625 43.8353 32.6412 54.3063 32.6412C70.4627 32.6412 83.6065 45.7854 83.6065 61.9417C83.6065 78.098 70.4627 91.2422 54.3063 91.2422C38.1497 91.2422 25.0059 78.098 25.0059 61.9417C25.0059 59.6634 25.2673 57.445 25.7614 55.315" stroke="#663366" stroke-width="4.2" stroke-miterlimit="10" stroke-linecap="round" stroke-linejoin="round"/>
<path d="M54.3075 43.827C44.3182 43.827 36.1914 51.9536 36.1914 61.9428C36.1914 71.9318 44.3182 80.0586 54.3075 80.0586C64.2964 80.0586 72.4232 71.9318 72.4232 61.9428C72.4232 51.9536 64.2964 43.827 54.3075 43.827Z" stroke="#663366" stroke-width="4.2" stroke-miterlimit="10" stroke-linecap="round" stroke-linejoin="round"/>
</g>
</svg>
