<svg width="150" height="150" viewBox="0 0 150 150" fill="none" xmlns="http://www.w3.org/2000/svg">
<path d="M64.2539 6.09375L74.9291 18.6275H87.8288L94.2528 31.8438H105.01L114.128 22.7491" stroke="#663366" stroke-width="4.2" stroke-miterlimit="10"/>
<path d="M24.0898 68.9023L38.3876 59.1993V47.8271L52.1169 37.1569L48.1774 23.7812H34.8457" stroke="#663366" stroke-width="4.2" stroke-miterlimit="10"/>
<path d="M123.974 39.3555L110.467 44.4566V50.5659L117.004 57.1635L114.128 67.9794L123.537 76.129" stroke="#663366" stroke-width="4.2" stroke-miterlimit="10"/>
<path d="M132.455 131.269L144.343 128.429L141.985 118.555L74.9294 134.627L7.3573 118.555L5 128.429L74.9294 145.001L128.338 132.25" stroke="#663366" stroke-width="4.2" stroke-miterlimit="10"/>
<path d="M15.7227 120.55L18.4127 106.699L29.607 109.372" stroke="#663366" stroke-width="4.2" stroke-miterlimit="10"/>
<path d="M33.7285 110.355L60.5696 116.762C68.837 118.736 74.9276 126.126 74.9276 134.625" stroke="#663366" stroke-width="4.2" stroke-miterlimit="10"/>
<path d="M134.113 120.435L131.423 106.582L88.7701 116.765C80.5034 118.739 74.9297 126.128 74.9297 134.627" stroke="#663366" stroke-width="4.2" stroke-miterlimit="10"/>
<path d="M74.9297 54.3594V145" stroke="#663366" stroke-width="4.2" stroke-miterlimit="10"/>
<path d="M74.9287 109.33C103.739 109.33 127.094 85.975 127.094 57.1651C127.094 28.3551 103.739 5 74.9287 5C46.1188 5 22.7637 28.3551 22.7637 57.1651C22.7637 85.975 46.1188 109.33 74.9287 109.33Z" stroke="#663366" stroke-width="4.2" stroke-miterlimit="10"/>
<path d="M74.9273 56.0519C75.167 53.7567 75.8832 50.9877 77.7866 49.0844C81.596 45.2721 88.8794 46.3746 88.8794 46.3746C88.8794 46.3746 89.9819 53.6552 86.1696 57.4674C82.3573 61.2797 74.9273 60.1772 74.9273 60.1772C74.9273 60.1772 67.4974 61.2797 63.6879 57.4674C59.8756 53.6552 60.9781 46.3746 60.9781 46.3746C60.9781 46.3746 68.2587 45.2721 72.071 49.0844C73.9743 50.9877 74.6905 53.7567 74.9273 56.0519Z" stroke="#663366" stroke-width="4.2" stroke-miterlimit="10"/>
<path d="M105.063 65.4407C105.063 65.4407 89.3345 63.06 81.1017 71.2928C76.9888 75.4057 75.5431 81.3894 75.1258 86.3482C74.5125 81.3894 72.8709 75.4057 68.7577 71.2928C60.525 63.06 44.7962 65.4407 44.7962 65.4407C44.7962 65.4407 42.4155 81.1695 50.6483 89.4023C58.8811 97.635 75.3224 95.2543 75.3224 95.2543C75.3224 95.2543 90.9781 97.635 99.2109 89.4023C107.444 81.1695 105.063 65.4407 105.063 65.4407Z" stroke="#663366" stroke-width="4.2" stroke-miterlimit="10"/>
<path d="M105.063 65.4375L75.3223 95.2511" stroke="#663366" stroke-width="4.2" stroke-miterlimit="10"/>
<path d="M44.7949 65.4375L75.3211 95.3628" stroke="#663366" stroke-width="4.2" stroke-miterlimit="10"/>
<path d="M68.584 34.125H72.8136" stroke="#663366" stroke-width="4.2" stroke-miterlimit="10"/>
<path d="M77.043 34.125H81.2726" stroke="#663366" stroke-width="4.2" stroke-miterlimit="10"/>
</svg>
