<?xml version="1.0" encoding="utf-8"?>
<!-- Generator: Adobe Illustrator 26.0.1, SVG Export Plug-In . SVG Version: 6.00 Build 0)  -->
<svg version="1.1" id="Layer_1" xmlns="http://www.w3.org/2000/svg" xmlns:xlink="http://www.w3.org/1999/xlink" x="0px" y="0px"
	 viewBox="0 0 100 92.7" style="enable-background:new 0 0 100 92.7;" xml:space="preserve">
<path d="M57.5,5.9c-1.1-1.1-2.8-1.1-3.9,0c-1.1,1.1-1.1,2.8,0,3.9l34.5,34.5H5.2c-1.5,0-2.7,1.2-2.7,2.7s1.2,2.7,2.7,2.7h82.9
	L53.7,84.2c-1.1,1.1-1.1,2.8,0,3.9c0.5,0.5,1.2,0.8,1.9,0.8c0.7,0,1.4-0.3,1.9-0.8l39.2-39.2c1.1-1.1,1.1-2.8,0-3.9L57.5,5.9z"/>
</svg>
