<svg width="500" height="500" viewBox="0 0 500 500" fill="none" xmlns="http://www.w3.org/2000/svg">
<path d="M196.435 287.5H187.427C162.07 287.5 138.235 277.63 120.302 259.698L115 254.395L109.698 259.698C91.765 277.63 67.93 287.5 42.5725 287.5H33.565L32.59 293.86C31.975 297.865 17.5 392.185 17.5 415C17.5 431.478 44.3275 452.815 97.24 478.443C102.797 481.135 108.768 482.5 115 482.5C121.232 482.5 127.203 481.135 132.76 478.443C185.672 452.815 212.5 431.478 212.5 415C212.5 392.185 198.025 297.865 197.41 293.86L196.435 287.5ZM126.22 464.943C119.215 468.333 110.777 468.333 103.78 464.943C51.4825 439.615 32.5 421.203 32.5 415C32.5 396.58 43.165 324.303 46.4575 302.433C71.9425 301.555 95.9125 292.03 115 275.275C134.08 292.03 158.057 301.555 183.542 302.433C186.835 324.303 197.5 396.573 197.5 415C197.5 421.203 178.518 439.615 126.22 464.943Z" fill="black"/>
<path d="M85 411.895L67.8025 394.697L57.1975 405.302L85 433.105L172.803 345.302L162.198 334.697L85 411.895Z" fill="black"/>
<path d="M167.5 76.9C167.5 60.685 154.315 47.5 138.1 47.5H136.9C120.685 47.5 107.5 60.685 107.5 76.9V85H122.5V76.9C122.5 68.9575 128.958 62.5 136.9 62.5H138.1C146.042 62.5 152.5 68.9575 152.5 76.9C152.5 80.335 151.27 83.665 149.035 86.275L107.5 134.725V152.5H167.5V137.5H124.878L160.42 96.0325C164.987 90.7075 167.5 83.9125 167.5 76.9Z" fill="black"/>
<path d="M257.5 122.5V107.5H242.5V47.5H223.638L182.5 105.1V122.5H227.5V152.5H242.5V122.5H257.5ZM227.5 107.5H199.218L227.5 67.9075V107.5Z" fill="black"/>
<path d="M355 317.5C371.545 317.5 385 304.045 385 287.5H370C370 295.773 363.273 302.5 355 302.5C346.727 302.5 340 295.773 340 287.5H325C325 304.045 338.455 317.5 355 317.5Z" fill="black"/>
<path d="M441.805 362.14L385 349.038V339.573C399.94 330.73 410.29 315.002 413.725 295.007H415C431.545 295.007 445 281.552 445 265.007V207.925C449.702 202.637 460 189.445 460 175.007C460 169.502 459.94 156.753 377.5 127.3V40C377.5 27.595 367.405 17.5 355 17.5H100C87.595 17.5 77.5 27.595 77.5 40V160C77.5 172.405 87.595 182.5 100 182.5H171.895L204.092 214.697C207.512 218.117 212.058 220 216.895 220C226.878 220 235 211.878 235 201.895V182.5H250.952C253.562 193.885 261.13 203.567 265 207.917V265C265 281.545 278.455 295 295 295H296.275C299.71 314.995 310.06 330.73 325 339.565V349.03L268.195 362.14C244.232 367.675 227.5 388.712 227.5 413.297V482.5H482.5V413.297C482.5 388.712 465.768 367.675 441.805 362.14ZM388.24 365.177L385.952 400.157L365.358 383.688L380.568 363.407L388.24 365.177ZM353.155 430H356.837L367.555 467.5H342.438L353.155 430ZM357.423 415H352.577L346.982 401.02L355 394.6L363.018 401.012L357.423 415ZM290.665 235.435C286.818 235.998 283.232 237.287 280 239.17V225.97C283.36 229.382 286.908 232.54 290.665 235.435ZM287.77 212.5H422.223C405.183 231.438 380.913 242.5 354.993 242.5C329.073 242.5 304.817 231.438 287.77 212.5ZM430 225.978V239.177C426.768 237.295 423.19 236.005 419.335 235.443C423.092 232.54 426.64 229.383 430 225.978ZM415 280V250C423.273 250 430 256.727 430 265C430 273.273 423.273 280 415 280ZM444.985 175.75C444.603 183.745 438.273 192.752 434.208 197.5H275.792C271.727 192.752 265.397 183.745 265.015 175.75C268.247 170.928 291.04 157.712 342.693 139.585C350.568 136.825 359.417 136.825 367.3 139.585C418.952 157.712 441.745 170.928 444.985 175.75ZM287.5 107.5H332.5V127.292C313.45 134.095 298.765 140.02 287.5 145.157V107.5ZM220 167.5V201.895C220 204.43 216.49 205.877 214.697 204.092L178.105 167.5H100C95.8675 167.5 92.5 164.132 92.5 160V40C92.5 35.8675 95.8675 32.5 100 32.5H355C359.132 32.5 362.5 35.8675 362.5 40V123.138C357.528 122.425 352.472 122.425 347.5 123.138V47.5H332.5V92.5H287.5V47.5H272.5V152.582C260.785 158.965 255.16 163.818 252.475 167.5H220ZM280 265C280 256.727 286.727 250 295 250V280C286.727 280 280 273.273 280 265ZM310 280V247.255C323.875 253.795 339.145 257.5 355 257.5C370.855 257.5 386.125 253.795 400 247.255V280C400 311.89 382.337 332.5 355 332.5C327.663 332.5 310 311.89 310 280ZM355 347.5C360.265 347.5 365.252 346.817 370 345.632V352.502L355 372.505L340 352.502V345.632C344.748 346.817 349.735 347.5 355 347.5ZM329.432 363.407L344.642 383.688L324.048 400.157L321.76 365.177L329.432 363.407ZM242.5 413.297C242.5 395.732 254.455 380.71 271.57 376.758L306.947 368.59L310.952 429.835L334.742 410.8L339.58 422.898L326.845 467.5H287.5V422.5H272.5V467.5H242.5V413.297ZM467.5 467.5H437.5V422.5H422.5V467.5H383.155L370.413 422.905L375.25 410.808L399.04 429.843L403.045 368.597L438.423 376.765C455.545 380.71 467.5 395.732 467.5 413.297V467.5Z" fill="black"/>
<path d="M377.5 272.5C381.642 272.5 385 269.142 385 265C385 260.858 381.642 257.5 377.5 257.5C373.358 257.5 370 260.858 370 265C370 269.142 373.358 272.5 377.5 272.5Z" fill="black"/>
<path d="M332.5 272.5C336.642 272.5 340 269.142 340 265C340 260.858 336.642 257.5 332.5 257.5C328.358 257.5 325 260.858 325 265C325 269.142 328.358 272.5 332.5 272.5Z" fill="black"/>
<path d="M332.5 167.5C332.5 179.905 342.595 190 355 190C367.405 190 377.5 179.905 377.5 167.5C377.5 155.095 367.405 145 355 145C342.595 145 332.5 155.095 332.5 167.5ZM362.5 167.5C362.5 171.632 359.132 175 355 175C350.868 175 347.5 171.632 347.5 167.5C347.5 163.368 350.868 160 355 160C359.132 160 362.5 163.368 362.5 167.5Z" fill="black"/>
</svg>
