<svg width="500" height="500" viewBox="0 0 500 500" fill="none" xmlns="http://www.w3.org/2000/svg">
<g clip-path="url(#clip0_1_2)">
<rect width="500" height="500" fill="white"/>
<path d="M80.7108 101.835H80.998C96.453 101.835 106.4 94.4935 114.414 88.5661C124.335 81.2459 132.506 75.4238 151.851 79.0102C155.141 92.1314 162.92 104.134 174.381 113.184C187.278 123.394 203.725 128.985 220.824 128.985H222.13C253.719 128.457 277.762 119.935 289.905 105.02C299.851 92.7643 300.869 77.1962 292.75 61.2057L291.784 59.2861C277.948 31.9678 262.232 1 221.897 1C197.801 1 176.472 11.6954 163.445 28.0018C150.914 18.9308 133.396 9.69134 107.342 15.2602C83.403 20.3652 74.9179 31.229 68.1044 39.9414C60.8991 49.1809 54.6857 57.134 26.6475 61.1632C22.5748 61.7539 19.1027 63.9477 17.458 67.0275C15.8133 70.1073 16.1787 73.6515 18.4239 76.457C31.8426 93.143 45.1569 101.666 80.7139 101.877L80.7108 101.835ZM269.199 94.0507C261.706 103.311 244.789 108.606 221.633 108.986C211.242 109.366 200.147 105.59 191.714 98.9024C191.009 98.3539 190.513 97.6577 189.861 97.0882C204.402 93.9028 215.315 87.131 222.128 76.4783C233.276 77.0478 250.428 74.9172 266.457 62.197C267.266 63.737 268.023 65.2136 268.859 66.838L269.825 68.7576C273.323 75.6344 276.038 85.5916 269.198 94.0297L269.199 94.0507ZM221.894 20.9785C236.879 20.9785 246.303 28.7836 255.18 42.2634C238.889 60.1942 220.354 56.3972 218.422 55.9544C215.315 55.1106 211.869 55.3005 208.919 56.4818C205.969 57.6842 203.724 59.7727 202.706 62.3039C198.529 72.6407 191.062 77.4082 177.513 78.7793C175.947 74.3494 174.876 69.7294 174.876 64.962C174.876 40.7025 195.97 20.9577 221.894 20.9577L221.894 20.9785ZM89.0375 50.5751C95.1203 42.791 99.1145 37.644 113.656 34.5425C130.208 31.0197 139.736 37.0107 152.92 47.4105C151.771 50.9967 150.91 54.7096 150.466 58.5066C123.028 55.3423 108.617 65.742 97.7311 73.7794C90.552 79.0743 86.401 81.5845 80.8927 81.8167C65.4116 81.7323 56.9532 80.0236 50.9223 76.6273C73.922 69.919 82.1718 59.3718 89.0375 50.5751ZM501 491.001V455.119C501 429.699 475.416 409.004 443.931 409.004H418.269L375.715 389.344L380.31 307.788C382.007 277.622 354.204 251.613 317.027 248.551L239.154 242.159L246.125 215.579C277.4 222.456 305.23 225.473 336.897 225.494C349.166 225.494 360.706 221.633 369.347 214.63C377.91 207.711 382.792 198.154 382.792 188.387V131.451C382.792 122.212 378.119 113.204 369.947 106.707C361.802 100.231 350.446 96.6234 339.116 96.7714L325.671 96.9613C318.909 97.0667 313.505 101.518 313.505 106.961V155.711C295.674 153.792 277.922 151.07 260.613 148.391C253.408 147.273 246.176 146.176 238.971 145.121C232.236 144.109 225.813 147.758 224.587 153.18C223.36 158.601 227.824 163.812 234.559 164.803C241.712 165.837 248.839 166.933 255.966 168.051C259.804 168.642 263.668 169.233 267.558 169.823L262.545 198.281C255.366 196.867 248.082 195.306 240.355 193.408C237.04 192.585 233.437 192.944 230.461 194.357C227.484 195.791 225.37 198.154 224.639 200.896L214.248 240.471L135.827 235.598C142.51 187.838 154.702 155.122 170.732 143.559C175.822 139.889 176.266 133.56 171.724 129.447C167.181 125.333 159.349 124.974 154.258 128.645C152.379 129.995 150.577 131.556 148.776 133.223C147.836 133.138 146.896 132.97 145.93 133.075L60.5385 142.61C42.473 144.635 27.1743 154.993 21.5878 169.021L3.05244 215.409C-1.22899 226.083 1.27723 237.833 9.7357 246.841C18.0637 255.7 31.4041 260.995 45.3969 260.995H55.5521C61.1389 260.995 66.0468 257.979 67.483 253.612L85.1569 200.98H116.902C112.308 221.189 109.07 245.174 107.165 272.745C107.008 273.272 106.695 273.715 106.643 274.264C102.44 321.981 119.618 374.003 126.223 391.83L57.6658 441.551C54.7941 443.639 53.2799 446.698 53.5932 449.82C53.9064 452.942 56.0211 455.769 59.2844 457.435L140.974 499.435C143.01 500.469 145.308 500.997 147.631 500.997C150.163 500.997 152.696 500.364 154.836 499.119C158.935 496.735 160.841 492.559 159.614 488.593L150.398 458.511L207.754 417.861C209.895 416.342 211.304 414.296 211.8 412.039L226.159 344.999H299.541V409.004H296.251C264.793 409.004 239.208 429.677 239.182 455.118V491.001C239.182 496.527 244.717 501 251.557 501H310.975C317.815 501 323.35 496.528 323.35 491.001V464.99H416.782V491.001C416.782 496.527 422.316 501 429.157 501H488.575C495.414 501 500.949 496.528 500.949 491.001L501 491.001ZM291.941 173.331C302.697 174.765 313.61 176.031 324.626 176.938C328.125 177.212 331.571 176.305 334.181 174.407C336.766 172.508 338.254 169.808 338.254 166.981V116.795L339.559 116.774C344.128 116.669 349.166 118.23 352.612 120.972C356.058 123.715 358.042 127.533 358.042 131.435V188.371C358.042 192.865 355.797 197.273 351.855 200.459C347.861 203.687 342.535 205.459 336.896 205.459C319.222 205.438 303.114 204.425 286.85 202.273L291.941 173.288L291.941 173.331ZM63.7681 188.372L46.0942 241.004H45.3893C39.0976 241.004 33.1195 238.663 29.4384 234.76C25.8618 230.963 24.8175 226.048 26.5928 221.597L45.1281 175.209C47.8171 168.437 55.2052 163.438 63.9248 162.467L75.8558 161.138V181.031H75.6991C70.1123 181.031 65.2044 184.048 63.7682 188.414L63.7681 188.372ZM100.604 180.988V158.332L133.029 154.704C129.034 162.256 125.432 170.989 122.299 180.967H100.63L100.604 180.988ZM124.596 457.4L128.198 469.15L86.3759 447.633L113.291 428.12L135.168 442.739L128.485 447.485C125.013 449.953 123.525 453.772 124.647 457.4L124.596 457.4ZM188.165 405.147L153.991 429.386L131.905 414.619L148.718 402.447C152.373 399.789 153.73 395.613 152.19 391.837C152.033 391.436 141.042 364.35 134.908 330.683C148.692 339.817 166.131 344.985 184.066 344.985H201.088L188.191 405.151L188.165 405.147ZM184.04 324.985C169.734 324.985 155.871 320.196 145.977 311.842C136.082 303.488 130.783 292.076 131.435 280.558C131.958 271.888 132.636 263.534 133.42 255.518L220.93 260.961C221.243 260.982 221.583 260.982 221.896 260.982C222.157 260.982 222.366 260.876 222.627 260.855C222.705 260.855 222.784 260.918 222.888 260.918L314.495 268.428C338.618 270.411 356.657 287.287 355.561 306.843L352.506 360.954H324.311V334.944C324.311 329.417 318.776 324.945 311.936 324.945H184.039L184.04 324.985ZM324.308 380.992H351.381L350.624 394.535C350.415 398.29 352.817 401.813 356.837 403.669L368.35 408.985H324.309L324.308 380.992ZM476.219 481.006H441.575V454.996C441.575 449.469 436.041 444.997 429.201 444.997H311.014C304.174 444.997 298.639 449.469 298.639 454.996V481.006H263.996V455.122C263.996 440.714 278.485 429.007 296.315 429.007H443.948C461.753 429.007 476.268 440.715 476.268 455.122V481.006H476.219Z" fill="black"/>
</g>
<defs>
<clipPath id="clip0_1_2">
<rect width="500" height="500" fill="white"/>
</clipPath>
</defs>
</svg>
