<svg width="500" height="500" viewBox="0 0 500 500" fill="none" xmlns="http://www.w3.org/2000/svg">
<g clip-path="url(#clip0_1_2)">
<rect width="500" height="500" fill="white"/>
<g clip-path="url(#clip1_1_2)">
<path d="M42.6314 191.015C42.6314 187.948 45.8096 185.358 49.5736 185.358C53.4799 185.358 56.6759 187.948 56.6759 191.015V249.189H165.999C169.905 249.189 172.941 251.779 172.941 254.846C172.941 256.032 172.515 257.088 171.929 257.913L151.368 290.711H165.999C169.905 290.711 172.941 293.185 172.941 296.367V401.734C172.941 404.917 169.905 407.391 165.999 407.391C162.093 407.391 159.057 404.917 159.057 401.734V302.038H56.6793V401.734C56.6793 404.917 53.501 407.391 49.577 407.391C45.8128 407.391 42.6347 404.917 42.6347 401.734V191.001L42.6314 191.015ZM56.6759 260.633V290.726H135.744L154.565 260.633H56.6759ZM336.88 162.585C335.584 164.003 333.542 164.943 331.234 164.943C329.494 164.943 327.896 164.35 326.742 163.526L323.404 161.515C309.945 154.194 296.468 152.906 284.892 155.019H284.75C273.013 157.145 263.176 162.686 257.086 169.182L256.944 169.298V206.813C256.944 209.996 253.908 212.6 250.002 212.6C246.238 212.6 243.06 210.01 243.06 206.813V169.298L242.776 168.951C236.686 162.585 226.849 157.029 215.113 155.033C203.376 152.906 189.775 154.324 176.298 161.761L173.404 163.41C172.25 164.35 170.51 164.943 168.77 164.943C166.462 164.943 164.42 164.003 163.124 162.585C159.502 159.402 151.547 153.847 139.811 152.559C131.998 151.735 122.428 152.906 111.135 157.753C107.655 159.171 103.465 158.1 101.582 155.395C100.854 154.208 100.712 152.921 100.996 151.619C108.099 122.351 127.204 96.7595 153.856 78.5854C178.465 61.9477 209.324 51.4443 243.06 50.1566V42.7203C243.06 39.6531 246.238 37.0636 250.002 37.0636C253.909 37.0636 256.945 39.6533 256.945 42.7203V50.1566C290.822 51.4586 321.663 61.9621 346.149 78.5854C372.801 96.7566 391.904 122.363 399.149 151.619C399.877 154.686 397.409 157.753 393.645 158.346C391.905 158.578 390.165 158.346 388.727 157.637C377.434 152.805 368.024 151.734 360.194 152.559C348.457 153.861 340.503 159.403 336.88 162.585ZM323.706 148.537C318.202 100.404 276.351 74.6815 256.942 65.2333V153.37C263.885 149.001 272.283 145.587 281.552 143.937L281.978 143.822C294.727 141.579 309.198 142.404 323.686 148.538L323.706 148.537ZM279.548 64.0593C302.577 78.4544 332.834 105.233 337.607 147.478C343.111 144.642 350.054 142.168 358.31 141.344C365.412 140.635 373.367 140.996 382.209 143.109C374.095 120.93 358.168 101.687 337.181 87.2939C320.81 76.0817 301.119 67.9506 279.545 64.0447L279.548 64.0593ZM243.06 65.2456C223.653 74.6786 181.801 100.402 176.442 148.549C190.93 142.415 205.401 141.59 218.15 143.833C227.56 145.482 235.959 149.027 243.061 153.396L243.06 65.2456ZM162.396 147.479C167.173 105.234 197.446 78.453 220.455 64.0604C198.882 67.9523 179.333 76.0974 162.819 87.3097C141.814 101.705 126.047 120.932 117.933 143.124C126.757 140.998 134.73 140.651 141.672 141.359C150.071 142.184 157.013 144.658 162.375 147.494L162.396 147.479ZM443.469 260.631H345.442L364.405 290.723H443.473L443.469 260.631ZM334.146 249.187H443.469V191.013C443.469 187.946 446.505 185.356 450.411 185.356C454.317 185.356 457.354 187.946 457.354 191.013V401.746C457.354 404.929 454.317 407.403 450.411 407.403C446.505 407.403 443.469 404.929 443.469 401.746V302.05H341.092V401.746C341.092 404.929 337.914 407.403 334.15 407.403C330.243 407.403 327.047 404.929 327.047 401.746V296.38C327.047 293.197 330.226 290.723 334.15 290.723H348.78L328.22 257.925C327.492 257.1 327.065 256.044 327.065 254.858C327.065 251.791 330.244 249.201 334.168 249.201L334.146 249.187ZM146.628 228.296C142.722 228.296 139.686 225.822 139.686 222.639C139.686 219.457 142.722 216.983 146.628 216.983H353.41C357.316 216.983 360.512 219.457 360.512 222.639C360.512 225.822 357.334 228.296 353.41 228.296H256.96V396.077H300.976C304.883 396.077 308.079 398.551 308.079 401.734C308.079 404.917 304.9 407.391 300.976 407.391H204.385C200.621 407.391 197.443 404.917 197.443 401.734C197.443 398.551 200.621 396.077 204.385 396.077H243.057V228.296H146.607H146.628Z" fill="black"/>
</g>
</g>
<defs>
<clipPath id="clip0_1_2">
<rect width="500" height="500" fill="white"/>
</clipPath>
<clipPath id="clip1_1_2">
<rect width="500" height="500" fill="white"/>
</clipPath>
</defs>
</svg>
