<svg width="500" height="500" viewBox="0 0 500 500" fill="none" xmlns="http://www.w3.org/2000/svg">
<g clip-path="url(#clip0_1_2)">
<rect width="500" height="500" fill="white"/>
<path d="M87.2344 190.3C90.198 190.3 93.0951 191.003 95.5593 192.32C98.0234 193.637 99.944 195.51 101.078 197.7C102.212 199.891 102.509 202.301 101.931 204.626C101.353 206.951 99.9255 209.087 97.8299 210.764C95.7343 212.44 93.0644 213.582 90.1577 214.045C87.251 214.507 84.2381 214.27 81.5001 213.363C78.7621 212.455 76.4218 210.919 74.7753 208.947C73.1288 206.976 72.25 204.658 72.25 202.288C72.2541 199.109 73.8342 196.062 76.6434 193.815C79.4526 191.567 83.2615 190.303 87.2344 190.3ZM132.812 214.858H105.146C101.949 217.777 97.7159 219.847 93.0108 220.791C88.3058 221.735 83.3526 221.509 78.8123 220.143C74.2719 218.777 70.3602 216.336 67.5991 213.145C64.838 209.955 63.3588 206.166 63.3588 202.285C63.3588 198.405 64.838 194.616 67.5991 191.426C70.3602 188.235 74.2719 185.794 78.8123 184.428C83.3526 183.061 88.3058 182.835 93.0108 183.78C97.7159 184.724 101.949 186.794 105.146 189.713H132.812V176.571C132.811 175.607 132.332 174.683 131.481 174.001C130.63 173.32 129.475 172.936 128.271 172.933H46.1927C44.9908 172.939 43.8405 173.324 42.9926 174.006C42.1446 174.687 41.668 175.609 41.6667 176.571V335.458H132.812V214.858ZM111.073 202.288C111.074 204.144 110.734 205.99 110.063 207.767H146.719L157.656 196.804H110.073C110.74 198.583 111.073 200.43 111.073 202.288ZM33.5208 365.067H141.422V342.567H33.5208V365.067ZM158.052 207.75H178.437L189.375 196.788H168.969L158.052 207.75ZM411.802 207.75H432.188L443.125 196.788H422.719L411.802 207.75ZM380.083 207.75H400.469L411.406 196.788H391L380.083 207.75ZM443.521 365.05H466.479V214.858H443.521V365.05ZM348.365 207.75H368.75L379.688 196.788H359.281L348.365 207.75ZM316.646 207.75H337.031L347.969 196.788H327.562L316.646 207.75ZM189.771 207.75H210.156L221.094 196.788H200.688L189.771 207.75ZM221.49 207.75H241.875L252.813 196.788H232.406L221.49 207.75ZM253.208 207.75H273.594L284.531 196.788H264.125L253.208 207.75ZM284.927 207.75H305.312L316.25 196.788H295.833L284.927 207.75ZM454.438 196.788L443.5 207.75H466.458V196.804L454.438 196.788Z" fill="black"/>
</g>
<defs>
<clipPath id="clip0_1_2">
<rect width="500" height="500" fill="white"/>
</clipPath>
</defs>
</svg>
