<svg width="500" height="500" viewBox="0 0 500 500" fill="none" xmlns="http://www.w3.org/2000/svg">
<g clip-path="url(#clip0_1_2)">
<rect width="500" height="500" fill="white"/>
<g clip-path="url(#clip1_1_2)">
<path d="M460.938 121.5H39.0625C32.8521 121.515 26.9012 123.495 22.5097 127.008C18.1183 130.521 15.6431 135.282 15.625 140.25V377.75C15.6431 382.718 18.1183 387.479 22.5097 390.992C26.9012 394.505 32.8521 396.485 39.0625 396.5H460.938C467.148 396.485 473.099 394.505 477.49 390.992C481.882 387.479 484.357 382.718 484.375 377.75V140.25C484.357 135.282 481.882 130.521 477.49 127.008C473.099 123.495 467.148 121.515 460.938 121.5ZM31.25 234H58.9062C51.1625 240.853 46.875 249.762 46.875 259C46.875 268.238 51.1625 277.147 58.9062 284H31.25V234ZM31.25 296.5H93.75L101.562 295.937C112.482 294.47 122.398 289.954 129.55 283.192C136.701 276.429 140.625 267.858 140.625 259C140.625 250.142 136.701 241.571 129.55 234.808C122.398 228.046 112.482 223.53 101.562 222.063C98.9854 221.684 96.3702 221.495 93.75 221.5H31.25V171.5H54.6875C83.6956 171.5 111.516 180.719 132.027 197.128C152.539 213.538 164.062 235.794 164.062 259C164.062 282.206 152.539 304.462 132.027 320.872C111.516 337.281 83.6956 346.5 54.6875 346.5H31.25V296.5ZM62.5 259C62.4939 253.459 64.7942 248.073 69.0381 243.693C73.2819 239.314 79.2278 236.189 85.9375 234.812V283.187C79.2278 281.811 73.2819 278.686 69.0381 274.307C64.7942 269.927 62.4939 264.541 62.5 259ZM101.562 283.187V234.812C108.269 236.193 114.212 239.319 118.455 243.698C122.698 248.076 125.001 253.46 125.001 259C125.001 264.54 122.698 269.924 118.455 274.302C114.212 278.681 108.269 281.807 101.562 283.187ZM242.188 384H39.0625C36.9923 383.995 35.0087 383.335 33.5448 382.164C32.081 380.993 31.256 379.406 31.25 377.75V359H54.6875C87.8396 359 119.634 348.464 143.076 329.711C166.518 310.957 179.687 285.522 179.688 259C179.687 232.478 166.518 207.043 143.076 188.289C119.634 169.536 87.8396 159 54.6875 159H31.25V140.25C31.256 138.594 32.081 137.007 33.5448 135.836C35.0087 134.665 36.9923 134.005 39.0625 134H242.188V222.063C231.268 223.53 221.352 228.046 214.2 234.808C207.049 241.571 203.125 250.142 203.125 259C203.125 267.858 207.049 276.429 214.2 283.192C221.352 289.954 231.268 294.47 242.188 295.937V384ZM218.75 259C218.75 254.055 220.583 249.222 224.017 245.111C227.45 241 232.331 237.795 238.041 235.903C243.751 234.011 250.035 233.516 256.097 234.48C262.158 235.445 267.727 237.826 272.097 241.322C276.467 244.819 279.444 249.273 280.65 254.123C281.855 258.972 281.236 263.999 278.871 268.567C276.506 273.135 272.501 277.04 267.362 279.787C262.223 282.534 256.181 284 250 284C245.896 284.001 241.832 283.355 238.04 282.099C234.248 280.843 230.802 279.001 227.9 276.68C224.998 274.358 222.697 271.602 221.126 268.568C219.556 265.535 218.749 262.283 218.75 259ZM468.75 284H441.094C448.838 277.147 453.125 268.238 453.125 259C453.125 249.762 448.838 240.853 441.094 234H468.75V284ZM398.438 283.187C391.731 281.807 385.788 278.681 381.545 274.302C377.302 269.924 374.999 264.54 374.999 259C374.999 253.46 377.302 248.076 381.545 243.698C385.788 239.319 391.731 236.193 398.438 234.812V283.187ZM414.062 283.187V234.812C420.769 236.194 426.711 239.32 430.954 243.698C435.196 248.077 437.499 253.46 437.499 259C437.499 264.54 435.196 269.923 430.954 274.302C426.711 278.68 420.769 281.806 414.062 283.187ZM468.75 221.5H406.25L398.438 222.063C387.518 223.53 377.602 228.046 370.45 234.808C363.299 241.571 359.375 250.142 359.375 259C359.375 267.858 363.299 276.429 370.45 283.192C377.602 289.954 387.518 294.47 398.438 295.937C401.015 296.316 403.63 296.505 406.25 296.5H468.75V346.5H445.312C416.304 346.5 388.484 337.281 367.973 320.872C347.461 304.462 335.938 282.206 335.938 259C335.938 235.794 347.461 213.538 367.973 197.128C388.484 180.719 416.304 171.5 445.312 171.5H468.75V221.5ZM468.75 159H445.312C412.16 159 380.366 169.536 356.924 188.289C333.482 207.043 320.313 232.478 320.312 259C320.313 285.522 333.482 310.957 356.924 329.711C380.366 348.464 412.16 359 445.312 359H468.75V377.75C468.744 379.406 467.919 380.993 466.455 382.164C464.991 383.335 463.008 383.995 460.938 384H257.812V295.937C268.732 294.47 278.648 289.954 285.8 283.192C292.951 276.429 296.875 267.858 296.875 259C296.875 250.142 292.951 241.571 285.8 234.808C278.648 228.046 268.732 223.53 257.812 222.063V134H460.938C463.008 134.005 464.991 134.665 466.455 135.836C467.919 137.007 468.744 138.594 468.75 140.25V159Z" fill="black"/>
</g>
</g>
<defs>
<clipPath id="clip0_1_2">
<rect width="500" height="500" fill="white"/>
</clipPath>
<clipPath id="clip1_1_2">
<rect width="500" height="500" fill="white" transform="translate(0 59)"/>
</clipPath>
</defs>
</svg>
