<svg width="500" height="500" viewBox="0 0 500 500" fill="none" xmlns="http://www.w3.org/2000/svg">
<path d="M483.022 229.832L475.621 210.355C473.427 204.617 420.371 148.11 363.68 116.495C356.156 58.3423 306.125 16.5195 249.99 16.5195C238.747 16.5195 227.905 18.2145 217.63 21.2427C217.547 21.2708 217.464 21.2755 217.382 21.3073C175.305 33.8089 142.339 70.0592 136.312 116.432C80.1756 147.749 26.4343 204.96 24.3718 210.355L16.9703 229.832C16.1387 232 16.6684 230.33 16.5146 280.145C16.5146 293.72 24.0868 306.087 36.2734 312.424C72.0006 330.995 107.98 344.789 144.144 353.868C158.692 385.312 169.102 423.226 171.894 476.872C172.379 486.173 186.296 485.382 185.813 476.15C185.632 472.677 185.306 469.404 185.06 466.021L192.834 455.868L217.756 481.381C220.469 484.145 225.196 484.311 227.999 481.091L249.993 455.862L271.996 481.091C274.637 484.113 279.341 484.33 282.232 481.384L307.187 455.86L314.846 465.86C314.602 469.255 314.361 472.651 314.18 476.15C313.699 485.362 327.626 486.08 328.099 476.872C330.907 422.63 341.506 384.515 356.203 353.154C391.895 344.061 427.641 330.471 463.38 312.369C475.777 306.087 483.479 293.652 483.479 279.92C483.323 229.923 483.875 232.055 483.022 229.832ZM160.935 178.389C190.218 180.049 220.014 177.201 247.678 171.17C249.042 197.011 235.045 210.772 210.784 224.145C189.381 215.075 171.774 198.794 160.935 178.389ZM157.596 91.0677C167.113 98.2517 178.621 103.852 190.74 109.635C215.477 121.441 238.911 132.667 245.643 157.581C214.812 164.34 182.694 166.327 154.723 163.95C146.184 139.13 147.797 113.499 157.596 91.0677ZM261.41 167.854C266.191 166.584 270.921 165.212 275.593 163.717C279.892 183.998 282.509 205.161 282.824 226.481C272.514 230.047 261.496 232.081 249.989 232.081C242.634 232.081 235.479 231.241 228.568 229.738C248.627 216.577 263.931 198.707 261.41 167.854ZM296.625 220.56C295.946 199.551 293.232 178.872 288.976 159.067C293.172 157.48 297.297 155.802 301.336 154.018C310.667 179.568 324.233 184.306 333.818 187.169C324.442 201.185 311.635 212.689 296.625 220.56ZM340.795 174.766C340.066 174.536 339.339 174.272 338.615 174.056C330.393 171.612 321.173 168.82 313.967 147.996C327.666 140.875 339.978 132.442 350.371 122.759C351.923 141.219 348.608 158.525 340.795 174.766ZM347.432 105.863C337.451 116.932 324.821 126.442 310.327 134.328C307.759 119.609 309.967 105.043 312.332 89.7561C314.106 78.313 315.865 66.6045 315.467 54.7686C330.852 67.9564 342.164 85.6855 347.432 105.863ZM300.257 44.0145C303.081 58.0002 300.915 72.4123 298.56 87.6223C295.912 104.7 293.268 122.317 297.417 140.712C293.628 142.43 289.773 144.075 285.822 145.606C273.887 98.728 253.766 58.0011 232.778 32.0398C238.383 31.0695 244.111 30.4592 249.989 30.4592C268.303 30.4592 285.439 35.4448 300.257 44.0145ZM217.707 35.8564C238.801 59.6642 260.203 101.669 272.493 150.331C268.119 151.747 263.685 153.064 259.197 154.271C250.956 122.969 222.283 109.242 196.747 97.0564C184.489 91.2055 172.837 85.6217 164.181 78.6261C176.408 58.7698 195.267 43.4717 217.707 35.8564ZM108.356 293.828C103.35 293.828 99.2762 289.755 99.2762 284.749C99.2762 279.715 103.35 275.621 108.356 275.621H391.637C396.643 275.621 400.716 279.715 400.716 284.749C400.716 289.755 396.643 293.828 391.637 293.828C382.978 293.828 89.4878 293.828 108.356 293.828ZM320.126 422.688L308.469 434.61L289.787 410.213L315.047 381.237L325.662 397.325C323.576 405.376 321.74 413.731 320.126 422.688ZM281.139 398.92L258.782 369.725L261.079 366.723C275.116 366.299 289.17 365.164 303.236 363.335L307.082 369.162L281.139 398.92ZM179.706 422.481C178.165 413.889 176.404 405.501 174.312 397.39L184.942 381.271L210.206 410.24L191.552 434.606L179.706 422.481ZM139.381 307.768H144.629C143.993 308.896 143.31 310.117 142.577 311.435L139.381 307.768ZM152.339 322.64C155.258 317.364 158.52 311.472 160.57 307.767H193.777L206.103 323.863L189.781 348.615C184.014 347.78 178.25 346.85 172.492 345.77L152.339 322.64ZM266.575 307.768L276.797 323.26L254.178 352.804C251.406 352.843 248.634 352.872 245.864 352.854L223.201 323.259L233.417 307.767L266.575 307.768ZM283.277 307.768H288.657L285.767 311.542L283.277 307.768ZM284.924 335.579L294.591 350.232C287.131 351.075 279.674 351.735 272.222 352.17L284.924 335.579ZM227.904 352.33C220.329 351.949 212.761 351.36 205.199 350.555L215.075 335.579L227.904 352.33ZM214.229 311.543L211.337 307.768H216.719L214.229 311.543ZM192.907 369.193L196.533 363.694C210.655 365.446 224.801 366.457 238.966 366.775L241.224 369.724L218.853 398.945L192.907 369.193ZM250.005 381.189L271.793 409.64L249.991 434.649L228.203 409.667L250.005 381.189ZM309.966 348.218L293.895 323.86L306.214 307.768H339.42L347.646 322.633L328.038 345.125C322.012 346.295 315.988 347.313 309.966 348.218ZM357.393 311.452L355.354 307.768H360.606L357.393 311.452ZM165.186 358.603C169.439 363.474 172.388 366.902 175.464 370.326L169.233 379.775C166.797 372.245 164.1 364.908 161.122 357.756C162.477 358.041 163.831 358.333 165.186 358.603ZM222.452 466.236L201.395 444.682L219.556 420.962L240.743 445.257L222.452 466.236ZM277.542 466.242L259.239 445.254L280.441 420.934L298.624 444.679L277.542 466.242ZM330.777 379.759L324.557 370.33L335.393 357.9C336.646 357.642 337.897 357.394 339.15 357.125C336.06 364.466 333.278 372.009 330.777 379.759ZM469.539 279.92C469.539 288.369 464.764 296.041 457.08 299.933C426.31 315.517 395.536 327.65 364.8 336.356C369.586 327.827 373.943 320.386 383.341 307.768H391.637C404.33 307.768 414.656 297.442 414.656 284.749C414.656 272.03 404.33 261.681 391.637 261.681H108.356C95.6621 261.681 85.3365 272.03 85.3365 284.749C85.3365 297.442 95.6621 307.768 108.356 307.768H116.686C123.736 317.232 130.112 326.991 135.745 337.158C104.566 328.423 73.5362 316.083 42.7056 300.056C35.1475 296.129 30.4543 288.499 30.4543 280.145V233.589L36.9409 216.532C69.6634 180.395 102.523 152.571 135.328 132.955C136.239 195.338 187.579 246.02 249.991 246.02C311.872 246.02 363.611 196.16 364.647 133.163C397.459 152.746 430.325 180.385 463.054 216.532L469.541 233.589V279.92H469.539Z" fill="black"/>
</svg>
