<svg width="500" height="500" viewBox="0 0 500 500" fill="none" xmlns="http://www.w3.org/2000/svg">
<path d="M249.864 489.999C213.062 489.996 177.399 477.231 148.952 453.881C120.506 430.532 101.035 398.041 93.8582 361.945C86.6812 325.849 92.2417 288.381 109.592 255.925C126.943 223.469 155.01 198.034 189.012 183.952C223.014 169.87 260.847 168.013 296.064 178.697C331.281 189.382 361.705 211.947 382.15 242.547C402.596 273.148 411.799 309.891 408.191 346.517C404.584 383.142 388.389 417.383 362.365 443.407C347.626 458.226 330.093 469.975 310.782 477.973C291.471 485.97 270.766 490.058 249.864 489.999ZM249.864 190.296C172.325 190.296 109.243 253.377 109.243 330.917C109.243 408.456 172.325 471.538 249.864 471.538C327.403 471.538 390.485 408.456 390.485 330.917C390.485 253.377 327.403 190.296 249.864 190.296Z" fill="black"/>
<path d="M267.12 376.113C220.712 376.113 182.94 338.359 182.94 291.957C182.94 245.554 220.689 207.8 267.097 207.8C313.505 207.8 351.254 245.548 351.254 291.957C351.254 338.365 313.523 376.113 267.12 376.113ZM267.12 226.262C254.127 226.262 241.426 230.115 230.622 237.333C219.819 244.552 211.398 254.812 206.426 266.816C201.454 278.82 200.153 292.03 202.688 304.773C205.222 317.517 211.479 329.222 220.667 338.41C229.854 347.598 241.56 353.855 254.304 356.389C267.047 358.924 280.256 357.623 292.261 352.651C304.265 347.679 314.525 339.258 321.744 328.455C328.962 317.651 332.815 304.95 332.815 291.957C332.795 274.539 325.868 257.841 313.552 245.525C301.236 233.209 284.538 226.282 267.12 226.262Z" fill="black"/>
<path d="M266.416 298.707C248.001 298.707 233.018 285.039 233.018 268.239C233.018 251.439 248.018 237.772 266.416 237.772C284.815 237.772 299.821 251.439 299.821 268.239C299.821 285.039 284.838 298.707 266.416 298.707ZM266.416 256.233C258.178 256.233 251.48 261.616 251.48 268.239C251.48 274.862 258.178 280.245 266.416 280.245C274.655 280.245 281.359 274.862 281.359 268.239C281.359 261.616 274.672 256.233 266.416 256.233Z" fill="black"/>
<path d="M267.12 346.142C247.153 346.142 230.912 331.361 230.912 313.194C230.912 295.026 247.153 280.245 267.12 280.245C287.088 280.245 303.322 295.026 303.322 313.194C303.322 331.361 287.082 346.142 267.12 346.142ZM267.12 298.707C257.312 298.707 249.374 305.209 249.374 313.194C249.374 321.178 257.335 327.68 267.12 327.68C276.905 327.68 284.861 321.184 284.861 313.194C284.861 305.203 276.899 298.707 267.12 298.707Z" fill="black"/>
<path d="M118.474 164.819C116.026 164.819 113.678 163.846 111.947 162.115C110.216 160.384 109.243 158.036 109.243 155.588V116.512C106.66 118.277 103.904 119.773 101.016 120.978C98.7554 121.844 96.2449 121.787 94.0256 120.819C91.8062 119.852 90.0559 118.051 89.1516 115.805C88.2474 113.56 88.2617 111.048 89.1914 108.813C90.1211 106.578 91.8918 104.797 94.122 103.855C96.297 102.955 102.909 99.4238 104.743 95.0622C105.448 93.3887 106.631 91.9602 108.143 90.9556C109.656 89.9509 111.431 89.4147 113.247 89.4141H118.468C120.917 89.4141 123.265 90.3866 124.996 92.1177C126.727 93.8489 127.699 96.1968 127.699 98.6449V155.588C127.699 158.035 126.728 160.382 124.998 162.113C123.268 163.844 120.921 164.817 118.474 164.819Z" fill="black"/>
<path d="M119.282 266.607C118.774 266.606 118.267 266.566 117.765 266.485C91.5541 262.104 67.3354 249.737 48.4173 231.074C29.4992 212.411 16.8044 188.362 12.0671 162.214C7.32974 136.065 10.781 109.091 21.9493 84.9777C33.1177 60.8641 51.4584 40.7866 74.466 27.4881C97.4735 14.1896 124.026 8.31859 150.495 10.6772C176.965 13.0359 202.061 23.5091 222.354 40.6661C242.648 57.823 257.15 80.8271 263.879 106.535C270.607 132.244 269.235 159.403 259.949 184.302C259.092 186.597 257.359 188.458 255.13 189.475C252.901 190.492 250.359 190.582 248.064 189.725C245.769 188.868 243.908 187.135 242.891 184.906C241.874 182.677 241.784 180.135 242.641 177.84C248.897 161.101 251.005 143.095 248.786 125.364C246.567 107.632 240.086 90.7014 229.898 76.0202C219.709 61.339 206.117 49.3438 190.282 41.0606C174.448 32.7773 156.843 28.4524 138.973 28.4558C77.9392 28.4558 28.3233 78.0717 28.3233 139.105C28.227 165.325 37.483 190.719 54.4286 210.727C71.3741 230.735 94.8987 244.045 120.776 248.266C123.065 248.64 125.129 249.863 126.557 251.689C127.986 253.516 128.674 255.814 128.486 258.125C128.298 260.437 127.246 262.592 125.541 264.164C123.835 265.735 121.601 266.607 119.282 266.607Z" fill="black"/>
<path d="M118.474 196.285C104.793 196.285 91.419 192.228 80.0434 184.627C68.6678 177.026 59.8016 166.222 54.566 153.582C49.3304 140.943 47.9605 127.034 50.6296 113.616C53.2987 100.197 59.8869 87.8715 69.561 78.1974C79.2351 68.5232 91.5607 61.935 104.979 59.266C118.398 56.5969 132.306 57.9667 144.946 63.2023C157.586 68.438 168.389 77.3041 175.99 88.6797C183.591 100.055 187.648 113.429 187.648 127.111C187.633 145.452 180.34 163.038 167.371 176.007C154.401 188.976 136.816 196.269 118.474 196.285ZM118.474 76.4043C108.444 76.4043 98.6397 79.3785 90.3002 84.9509C81.9606 90.5232 75.4607 98.4433 71.6224 107.71C67.7841 116.976 66.7799 127.173 68.7366 137.01C70.6934 146.847 75.5232 155.883 82.6154 162.975C89.7077 170.068 98.7437 174.897 108.581 176.854C118.418 178.811 128.615 177.807 137.881 173.968C147.147 170.13 155.068 163.63 160.64 155.291C166.212 146.951 169.186 137.146 169.186 127.116C169.171 113.671 163.823 100.781 154.316 91.2744C144.809 81.7674 131.919 76.4196 118.474 76.4043Z" fill="black"/>
<path d="M380.446 266.606C378.127 266.607 375.893 265.735 374.188 264.164C372.482 262.592 371.431 260.436 371.242 258.125C371.054 255.814 371.743 253.516 373.171 251.689C374.6 249.862 376.664 248.64 378.952 248.266C404.83 244.045 428.354 230.735 445.3 210.727C462.245 190.719 471.501 165.324 471.405 139.105C471.405 78.0715 421.789 28.4556 360.756 28.4556C338.812 28.4074 317.353 34.9033 299.12 47.1131C280.887 59.3229 266.708 76.692 258.397 97.0006C257.424 99.2023 255.629 100.937 253.395 101.834C251.161 102.731 248.665 102.721 246.439 101.804C244.214 100.888 242.434 99.1377 241.479 96.9277C240.525 94.7177 240.472 92.2223 241.331 89.9736C249.892 69.1769 263.736 50.9767 281.492 37.1749C299.248 23.3731 320.302 14.4484 342.568 11.2843C364.834 8.12027 387.54 10.8266 408.438 19.1354C429.337 27.4441 447.703 41.0672 461.718 58.6558C475.733 76.2444 484.911 97.1885 488.344 119.415C491.776 141.641 489.344 164.378 481.289 185.375C473.233 206.372 459.832 224.901 442.414 239.128C424.996 253.354 404.164 262.785 381.981 266.485C381.474 266.566 380.96 266.607 380.446 266.606Z" fill="black"/>
<path d="M375.744 155.83C373.36 155.832 371.067 154.911 369.346 153.26C367.626 151.61 366.61 149.357 366.514 146.974C365.879 131.357 374.441 115.053 381.075 104.858H362.037C359.588 104.858 357.24 103.886 355.509 102.155C353.778 100.424 352.806 98.0757 352.806 95.6275C352.806 93.1793 353.778 90.8314 355.509 89.1003C357.24 87.3691 359.588 86.3966 362.037 86.3966H395.435C397.883 86.3966 400.231 87.3691 401.962 89.1003C403.693 90.8314 404.666 93.1793 404.666 95.6275V100.762C404.665 102.911 403.914 104.992 402.543 106.647C397.46 112.82 384.381 131.974 384.964 146.201C385.062 148.647 384.185 151.032 382.525 152.831C380.866 154.63 378.559 155.696 376.114 155.795L375.744 155.83Z" fill="black"/>
<path d="M378.744 190.296C365.063 190.296 351.689 186.239 340.314 178.638C328.938 171.037 320.072 160.234 314.836 147.594C309.601 134.954 308.231 121.045 310.9 107.627C313.569 94.2086 320.157 81.883 329.831 72.2088C339.505 62.5347 351.831 55.9465 365.249 53.2774C378.668 50.6083 392.576 51.9782 405.216 57.2138C417.856 62.4494 428.66 71.3156 436.26 82.6912C443.861 94.0668 447.918 107.441 447.918 121.122C447.903 139.464 440.61 157.049 427.641 170.019C414.672 182.988 397.086 190.281 378.744 190.296ZM378.744 70.4158C368.714 70.4158 358.909 73.3901 350.57 78.9627C342.23 84.5353 335.73 92.4558 331.892 101.723C328.054 110.989 327.05 121.186 329.007 131.023C330.964 140.861 335.795 149.897 342.888 156.989C349.98 164.081 359.017 168.91 368.855 170.866C378.692 172.822 388.889 171.817 398.155 167.978C407.421 164.139 415.341 157.638 420.913 149.298C426.484 140.958 429.458 131.152 429.457 121.122C429.44 107.678 424.091 94.7897 414.584 85.2838C405.078 75.778 392.188 70.4311 378.744 70.4158Z" fill="black"/>
</svg>
