<svg width="500" height="500" viewBox="0 0 500 500" fill="none" xmlns="http://www.w3.org/2000/svg">
<path d="M488.407 106.296L475.902 78.3726C474.825 75.9651 472.561 74.3001 469.941 73.9898C385.82 64.0129 310.83 70.6354 247.052 93.6689C193.455 113.024 147.292 144.086 109.846 185.987C40.0244 264.115 19.1801 358.173 13.4585 394.985C12.0907 403.783 11.4729 410.009 11.1944 413.684C11.0304 415.854 10.9413 417.733 10.9376 419.118C10.9198 425.657 14.3313 427.687 17.1954 428.239C17.6266 428.323 18.0635 428.368 18.5032 428.374C19.1838 428.384 76.1932 429.23 141.972 429.86C141.982 429.86 141.994 429.861 142.004 429.861C142.011 429.861 142.019 429.86 142.025 429.86C155.054 429.985 168.424 430.101 181.772 430.2C212.007 430.425 238.34 430.539 260.508 430.539C273.129 430.539 284.402 430.502 294.27 430.429C310.471 430.308 323.049 430.086 331.654 429.767C336.451 429.59 340.023 429.386 342.572 429.143C345.871 428.829 352.01 428.244 353.062 422.15C353.41 420.138 352.923 418.072 351.713 416.429C350.503 414.784 348.676 413.704 346.653 413.438C276.684 404.224 228.775 320.788 229.22 251.277L483.504 183.14C486.784 182.261 489.064 179.291 489.064 175.895V109.359C489.063 108.304 488.839 107.26 488.407 106.296ZM249.401 363.814C264.937 386.713 283.917 404.234 304.835 415.357C267.843 415.758 208.997 415.496 148.014 414.935C146.282 403.785 143.181 374.345 146.374 336.835C146.725 332.708 143.664 329.077 139.537 328.726C135.402 328.358 131.779 331.436 131.429 335.563C129.183 361.964 129.986 384.176 131.057 398.16C131.617 405.476 132.279 411.014 132.814 414.79C96.0513 414.425 59.1082 413.964 26.2563 413.485C27.3494 400.7 31.5991 370.035 44.6088 330.958C58.7735 288.409 86.7073 227.174 139.342 177.076C217.39 102.792 326.594 72.9661 463.957 88.3982L469.338 100.414C437.318 97.5248 401.079 99.6239 367.842 106.427C323.435 115.517 286.035 132.287 259.683 154.924C229.98 180.44 214.686 212.507 214.229 250.236C213.76 288.78 226.58 330.178 249.401 363.814ZM474.063 170.142L230.343 235.447C234.093 208.621 247.206 185.416 269.457 166.303C311.461 130.221 380.619 114.119 440.209 114.119C451.957 114.119 463.339 114.746 474.063 115.968V170.142ZM255.507 130.92C253.581 127.253 254.993 122.719 258.661 120.794C267.649 116.075 277.2 111.814 287.05 108.129C290.93 106.682 295.25 108.646 296.703 112.526C298.154 116.406 296.184 120.727 292.306 122.178C283.041 125.643 274.068 129.645 265.634 134.073C264.521 134.657 263.328 134.935 262.154 134.935C259.456 134.937 256.848 133.476 255.507 130.92ZM166.463 247.323C160.433 262.667 155.591 279.276 152.069 296.687C151.349 300.245 148.221 302.702 144.726 302.702C144.233 302.702 143.733 302.653 143.231 302.551C139.172 301.73 136.546 297.774 137.367 293.714C141.061 275.447 146.153 257.993 152.502 241.837C154.016 237.982 158.37 236.086 162.225 237.599C166.08 239.114 167.977 243.467 166.463 247.323ZM304.122 110.213C302.96 106.237 305.24 102.072 309.216 100.909C316.277 98.8457 320.586 97.8679 328.092 96.2742C332.139 95.4107 336.125 98.0011 336.986 102.052C337.847 106.103 335.26 110.085 331.208 110.946C323.914 112.496 320.028 113.377 313.426 115.306C312.723 115.512 312.014 115.609 311.317 115.609C308.072 115.609 305.079 113.486 304.122 110.213ZM204.298 183.004C195.163 193.784 186.936 205.786 179.847 218.68C178.482 221.163 175.916 222.567 173.269 222.567C172.046 222.567 170.808 222.269 169.661 221.638C166.031 219.643 164.707 215.082 166.703 211.453C174.274 197.683 183.073 184.849 192.854 173.308C195.532 170.148 200.266 169.757 203.424 172.434C206.584 175.111 206.975 179.845 204.298 183.004ZM216.656 166.828C214.63 166.828 212.612 166.012 211.131 164.402C208.329 161.353 208.53 156.609 211.579 153.805C219.529 146.5 228.143 139.704 237.184 133.605C240.619 131.291 245.28 132.195 247.596 135.629C249.912 139.064 249.006 143.726 245.572 146.041C237.15 151.722 229.128 158.05 221.729 164.849C220.289 166.174 218.469 166.828 216.656 166.828Z" fill="black"/>
</svg>
