<svg width="500" height="500" viewBox="0 0 500 500" fill="none" xmlns="http://www.w3.org/2000/svg">
<g clip-path="url(#clip0_1_2)">
<rect width="500" height="500" fill="white"/>
<g clip-path="url(#clip1_1_2)">
<g clip-path="url(#clip2_1_2)">
<path d="M487.548 361.8H470.608C472.06 333.979 460.928 310.022 438.18 294.18C428.5 287.611 412.528 276.406 412.044 220.764C431.888 210.718 444.956 192.943 444.956 172.464C444.956 140.779 412.528 115.277 373.324 115.277C366.548 115.277 360.256 116.05 353.964 117.595V75.864H67.92V287.998H9.84V425.556H162.784V458.4H335.088V407.009H487.064V361.8H487.548ZM425.112 305.772C443.504 318.523 452.216 338.23 450.764 361.8H335.572V320.842H304.596C308.468 315.818 314.76 309.636 320.568 305.772L322.504 304.613C334.12 296.498 351.544 284.52 353.48 227.719C359.772 229.265 366.064 230.038 372.84 230.038C379.616 230.038 386.392 229.265 392.2 227.719C394.62 284.134 413.496 297.658 425.112 305.772ZM425.112 172.464C425.112 195.648 401.396 214.195 372.84 214.195C344.284 214.195 320.568 195.648 320.568 172.464C320.568 149.28 343.8 130.733 372.84 130.733C401.88 130.733 425.112 149.28 425.112 172.464ZM87.28 91.32H334.12V124.164C314.276 134.21 301.208 151.985 301.208 172.464C301.208 192.557 314.276 210.331 334.12 220.764C333.636 276.406 319.116 286.452 309.436 293.021L307.5 294.18C302.176 298.044 288.14 309.636 282.816 320.842H182.144V287.998H87.28V91.32ZM29.2 410.1V303.454H162.784V320.842V410.1H29.2ZM316.212 442.944H182.144V336.298H315.728V361.8V407.009V442.944H316.212ZM468.188 391.553H335.572V377.256H468.188V391.553Z" fill="black"/>
<path d="M282.816 218.059L210.7 137.302L138.584 218.059L210.7 298.817L282.816 218.059ZM210.7 163.963L259.1 218.059L210.7 272.155L162.3 218.059L210.7 163.963Z" fill="black"/>
<path d="M68.404 320.842C59.692 320.842 52.916 326.251 52.916 333.206C52.916 340.162 59.692 345.571 68.404 345.571C77.116 345.571 83.892 340.162 83.892 333.206C83.892 326.251 77.116 320.842 68.404 320.842Z" fill="black"/>
<path d="M126 320.842C117.288 320.842 110.512 326.251 110.512 333.206C110.512 340.162 117.288 345.571 126 345.571C134.712 345.571 141.488 340.162 141.488 333.206C141.488 326.251 134.228 320.842 126 320.842Z" fill="black"/>
<path d="M68.404 366.437C59.692 366.437 52.916 371.846 52.916 378.802C52.916 385.757 59.692 391.166 68.404 391.166C77.116 391.166 83.892 385.757 83.892 378.802C83.892 372.233 77.116 366.437 68.404 366.437Z" fill="black"/>
<path d="M126 366.437C117.288 366.437 110.512 371.846 110.512 378.802C110.512 385.757 117.288 391.166 126 391.166C134.712 391.166 141.488 385.757 141.488 378.802C141.488 372.233 134.228 366.437 126 366.437Z" fill="black"/>
<path d="M226.188 358.322C217.96 358.322 211.668 363.346 211.668 369.914C211.668 376.483 217.96 381.506 226.188 381.506C234.416 381.506 240.708 376.483 240.708 369.914C240.708 363.346 233.932 358.322 226.188 358.322Z" fill="black"/>
<path d="M273.62 396.576C265.392 396.576 259.1 401.599 259.1 408.168C259.1 414.737 265.392 419.76 273.62 419.76C281.848 419.76 288.14 414.737 288.14 408.168C288.14 401.599 281.848 396.576 273.62 396.576Z" fill="black"/>
</g>
</g>
</g>
<defs>
<clipPath id="clip0_1_2">
<rect width="500" height="500" fill="white"/>
</clipPath>
<clipPath id="clip1_1_2">
<rect width="500" height="500" fill="white" transform="translate(-19 59)"/>
</clipPath>
<clipPath id="clip2_1_2">
<rect width="500" height="500" fill="white" transform="translate(5)"/>
</clipPath>
</defs>
</svg>
