<svg width="500" height="500" viewBox="0 0 500 500" fill="none" xmlns="http://www.w3.org/2000/svg">
<g clip-path="url(#clip0_1_2)">
<rect width="500" height="500" fill="white"/>
<g clip-path="url(#clip1_1_2)">
<path d="M100.447 64.2374C98.3372 64.0879 96.2454 64.0132 94.1712 64.0132C59.7886 64.0132 28.5174 85.9857 13.2246 118.272C25.3006 101.68 44.4431 91.3667 64.8511 93.0259C96.5442 95.4922 119.378 125.402 115.687 159.93C112.153 192.754 85.681 217.91 55.6754 217.91C54.3043 217.91 52.9332 217.91 51.5094 217.91C43.4338 217.072 35.7018 214.635 28.934 210.796C22.1661 206.957 16.5509 201.822 12.539 195.803C9.94431 192.347 7.75418 188.682 6 184.862C8.80939 197.272 14.3755 209.112 22.4003 219.749C36.8494 238.538 57.4156 249.883 80.4076 251.676C128.185 255.443 171.426 216.341 176.963 164.683C182.501 113.025 148.171 67.9593 100.447 64.2374Z" fill="black"/>
<path d="M52.1422 211.632C79.933 213.74 105.298 190.288 108.831 159.212C112.364 128.137 92.22 100.918 64.3765 98.9898C63.1812 98.9898 62.0035 98.9898 60.8433 98.9898C34.4763 98.9898 11.0625 121.814 8.10936 151.544C6.1953 165.922 9.90173 180.436 18.6561 192.844C22.1567 197.959 27.0007 202.316 32.8096 205.575C38.6185 208.835 45.2351 210.908 52.1422 211.632ZM9.16404 150.692C10.2977 137.957 16.383 125.904 26.4608 116.433C30.7113 112.298 36.0218 109.047 41.983 106.933C47.9441 104.818 54.3967 103.896 60.8433 104.236C67.2605 104.871 73.418 106.76 78.8339 109.755C84.2498 112.75 88.7772 116.77 92.0618 121.5C99.951 132.372 103.364 145.165 101.765 157.867C98.9172 184.234 77.6127 204.458 53.4606 204.458H50.0856C43.6684 203.823 37.5109 201.934 32.095 198.939C26.6791 195.944 22.1517 191.924 18.8671 187.194C10.9433 176.285 7.52854 163.439 9.16404 150.692Z" fill="black"/>
<path d="M60.6324 105.851H57.4156C51.7862 105.972 46.2471 107.082 41.1467 109.111C36.0464 111.141 31.4951 114.046 27.7791 117.644C17.9981 126.861 12.0988 138.581 11.0097 150.961C9.43297 163.314 12.7354 175.761 20.3964 186.342C23.534 190.87 27.8609 194.72 33.0388 197.591C38.2166 200.461 44.1051 202.274 50.2438 202.888C74.7651 204.772 97.0188 184.593 99.8664 158.046C101.443 145.694 98.1408 133.247 90.4798 122.666C87.3782 118.088 83.0672 114.185 77.8871 111.267C72.7071 108.348 66.7999 106.494 60.6324 105.851ZM63.7964 155.76C62.8472 164.728 55.7808 171.723 47.9762 171.095C40.1716 170.468 35.0037 162.665 35.9529 153.607C36.9021 144.549 43.9684 137.643 51.7731 138.271C59.5777 138.899 64.7456 146.477 63.7964 155.76Z" fill="black"/>
<path d="M406.989 188.18C393.322 182.971 378.563 180.15 363.589 179.884C337.222 179.884 316.445 190.377 306.109 210.287C303.193 216.587 301.834 223.329 302.115 230.095C302.396 236.861 304.312 243.505 307.744 249.613C312.65 259.101 319.762 267.646 328.652 274.736C337.543 281.825 348.027 287.313 359.476 290.868C384.735 298.626 410.153 298.581 429.243 290.868C435.334 288.568 440.811 285.239 445.344 281.085C449.876 276.93 453.369 272.035 455.61 266.698C466.895 238.313 444.219 201.678 406.989 188.18ZM421.227 259.927C405.407 271.362 378.724 267.909 365.224 260.555C334.427 243.694 337.116 218.179 350.775 208.135C367.228 195.803 392.329 199.346 409.784 209.256C432.407 222.35 437.997 247.596 421.28 259.837L421.227 259.927Z" fill="black"/>
<path d="M329.101 161.006C318.146 161.002 307.216 161.888 296.459 163.652C257.383 170.602 224.846 190.288 209.342 220.287C195.579 246.699 197.055 276.967 213.403 305.486C231.141 335.237 260.642 358.719 296.722 371.807C340.122 388.13 389.429 389.475 428.557 375.35C441.944 370.941 454.094 364.194 464.222 355.543C474.35 346.892 482.231 336.53 487.356 325.127C492.379 313.159 494.566 300.464 493.789 287.774C488.516 217.058 416.85 161.006 329.101 161.006ZM467.422 276.115C464.747 282.549 460.563 288.454 455.124 293.472C449.685 298.489 443.105 302.516 435.782 305.307C423.42 310.143 409.942 312.564 396.337 312.392C380.992 312.246 365.793 309.849 351.407 305.307C337.427 301.027 324.611 294.382 313.735 285.774C302.858 277.165 294.147 266.77 288.127 255.219C284.01 247.89 281.716 239.918 281.389 231.8C281.063 223.683 282.71 215.596 286.228 208.045C305.001 171.947 352.937 161.589 408.255 181.588C453.553 197.956 481.133 242.125 467.422 276.115Z" fill="black"/>
<path d="M407.042 184.369C390.904 178.204 373.472 174.864 355.784 174.548C325.462 174.548 301.468 186.521 289.603 209.256C286.274 216.439 284.724 224.129 285.05 231.845C285.377 239.561 287.573 247.137 291.502 254.098C297.306 265.239 305.698 275.267 316.173 283.582C326.649 291.896 338.992 298.325 352.462 302.482C382.204 311.45 411.999 311.675 434.305 302.482C441.216 299.87 447.431 296.09 452.571 291.372C457.711 286.655 461.669 281.098 464.205 275.039C477.231 242.528 450.547 200.287 407.042 184.369ZM457.192 267.102C454.89 272.63 451.291 277.702 446.614 282.011C441.936 286.32 436.277 289.776 429.981 292.168C419.487 296.272 408.045 298.325 396.495 298.177C383.64 298.079 370.902 296.092 358.843 292.303C347.173 288.676 336.486 283.08 327.424 275.852C318.362 268.624 311.111 259.912 306.109 250.241C302.598 243.969 300.641 237.15 300.359 230.207C300.078 223.264 301.479 216.347 304.474 209.884C320.294 179.077 361.005 170.109 407.675 187.014C445.748 200.601 468.846 238.089 457.192 267.102Z" fill="black"/>
<path d="M431.352 380.955C411.81 387.817 390.848 391.278 369.706 391.134C343.598 391.061 317.792 386.373 293.927 377.368C256.313 363.701 225.563 339.203 207.075 308.177C195.631 288.951 191.014 267.31 193.786 245.892C194.137 243.5 194.577 241.138 195.104 238.807V238.403C195.579 236.385 196.159 234.367 196.791 232.349L197.319 230.69C197.846 229.031 198.479 227.417 199.112 225.802L199.797 224.098C200.694 221.991 201.643 219.928 202.75 217.865C203.858 215.803 205.018 213.74 206.231 211.722C209.826 205.968 214.083 200.53 218.94 195.489C225.983 188.182 234.182 181.738 243.303 176.342C244.225 171.072 244.684 165.751 244.674 160.423C244.812 144.498 240.673 128.756 232.572 114.398C224.471 100.04 212.622 87.4433 197.928 77.5694C183.234 67.6954 166.083 60.8044 147.782 57.4216C129.481 54.0388 110.514 54.2534 92.3255 58.0492C95.2461 57.98 98.1689 58.0549 101.079 58.2734C152.653 62.2643 189.831 110.245 183.924 165.221C178.335 217.686 135.198 257.864 86.6302 257.864C84.3451 257.864 82.0424 257.775 79.7221 257.595C76.7448 257.354 73.7866 256.964 70.8628 256.429C86.5628 262.554 103.614 265.773 120.886 265.873C138.159 265.974 155.26 262.953 171.057 257.012C159.761 287.326 161.918 320.109 177.122 349.162C166.261 349.137 155.617 351.747 146.441 356.688C137.264 361.628 129.937 368.693 125.319 377.052C120.701 385.411 118.985 394.718 120.372 403.878C121.759 413.037 126.192 421.67 133.15 428.762C140.107 435.854 149.3 441.11 159.649 443.912C169.998 446.714 181.073 446.947 191.571 444.583C202.07 442.218 211.558 437.355 218.918 430.564C226.279 423.773 231.208 415.336 233.125 406.246C261.361 422.752 294.837 431.557 329.101 431.492C361.766 431.751 393.789 423.77 421.122 408.557C448.454 393.344 469.87 371.583 482.662 346.023C469.953 361.691 452.111 373.838 431.352 380.955ZM177.016 443.196C166.434 443.195 156.09 440.528 147.29 435.531C138.49 430.534 131.63 423.431 127.576 415.119C123.522 406.808 122.455 397.661 124.512 388.835C126.569 380.008 131.656 371.898 139.131 365.529C146.606 359.16 156.134 354.818 166.51 353.052C176.885 351.286 187.644 352.174 197.426 355.606C207.209 359.037 215.575 364.856 221.469 372.329C227.363 379.802 230.52 388.593 230.541 397.591C230.548 403.574 229.169 409.5 226.483 415.03C223.797 420.559 219.856 425.585 214.886 429.82C209.916 434.055 204.013 437.415 197.515 439.71C191.018 442.005 184.052 443.19 177.016 443.196Z" fill="black"/>
</g>
</g>
<defs>
<clipPath id="clip0_1_2">
<rect width="500" height="500" fill="white"/>
</clipPath>
<clipPath id="clip1_1_2">
<rect width="500" height="500" fill="white"/>
</clipPath>
</defs>
</svg>
