<svg width="500" height="500" viewBox="0 0 500 500" fill="none" xmlns="http://www.w3.org/2000/svg">
<g clip-path="url(#clip0_3_1262)">
<path d="M81.6868 228.878V241.563H70.5168V228.878H81.6868Z" fill="black" stroke="black"/>
<path d="M64.368 306.121L75.0688 309.327L61.8124 353.577L51.1116 350.371L64.368 306.121Z" fill="black" stroke="black"/>
<path d="M47.7438 361.641L58.4445 364.847L54.9843 376.397L44.2835 373.192L47.7438 361.641Z" fill="black" stroke="black"/>
<path d="M244.511 260.726L255.357 263.407L252.238 276.026L241.392 273.345L244.511 260.726Z" fill="black" stroke="black"/>
<path d="M215.982 334.648C231.959 334.648 244.957 347.646 244.957 363.623C244.957 379.6 231.959 392.597 215.982 392.597C200.005 392.597 187.008 379.6 187.008 363.623C187.008 347.646 200.005 334.648 215.982 334.648ZM215.982 345.818C206.165 345.818 198.177 353.806 198.177 363.623C198.178 373.44 206.165 381.427 215.982 381.427C225.799 381.427 233.787 373.44 233.787 363.623C233.787 353.806 225.799 345.818 215.982 345.818Z" fill="black" stroke="black"/>
<path d="M422.423 334.648C438.4 334.648 451.397 347.646 451.397 363.623C451.397 379.6 438.4 392.597 422.423 392.597C406.446 392.597 393.448 379.6 393.448 363.623C393.448 347.646 406.446 334.648 422.423 334.648ZM422.423 345.818C412.606 345.818 404.618 353.806 404.618 363.623C404.618 373.44 412.606 381.427 422.423 381.427C432.24 381.427 440.228 373.44 440.228 363.623C440.228 353.806 432.24 345.818 422.423 345.818Z" fill="black" stroke="black"/>
<path d="M381.227 358.038V369.208H367.321V358.038H381.227Z" fill="black" stroke="black"/>
<path d="M356.562 358.038V369.208H281.591V358.038H356.562Z" fill="black" stroke="black"/>
<path d="M270.831 358.038V369.208H257.177V358.038H270.831Z" fill="black" stroke="black"/>
<path d="M490.5 479.331V490.5H478.933V479.331H490.5Z" fill="black" stroke="black"/>
<path d="M469.765 479.331V490.5H455.665V479.331H469.765Z" fill="black" stroke="black"/>
<path d="M200.918 61.9695C201.326 65.4604 201.535 69.0206 201.535 72.5515V73.0515H190.365V72.5515C190.365 69.454 190.183 66.3312 189.824 63.2693L189.767 62.7722L190.263 62.7146L200.363 61.53L200.86 61.4724L200.918 61.9695Z" fill="black" stroke="black"/>
<path d="M196.077 41.5945C197.216 44.7183 198.193 47.9422 198.98 51.1765L199.099 51.6628L198.613 51.781L188.731 54.1873L188.246 54.3054L188.127 53.8191C187.437 50.9835 186.582 48.1578 185.583 45.4207L185.411 44.9509L185.881 44.78L195.435 41.2957L195.905 41.1248L196.077 41.5945Z" fill="black" stroke="black"/>
<path d="M177.841 11.3481C182.456 16.4823 186.499 22.1078 189.852 28.0679L190.097 28.5034L189.662 28.7495L180.799 33.7368L180.363 33.9819L180.118 33.5464C177.165 28.2997 173.604 23.3427 169.533 18.8159L169.199 18.4438L169.571 18.1099L177.135 11.3101L177.507 10.9761L177.841 11.3481Z" fill="black" stroke="black"/>
<mask id="path-15-outside-1_3_1262" maskUnits="userSpaceOnUse" x="9" y="9" width="482" height="482" fill="black">
<rect fill="white" x="9" y="9" width="482" height="482"/>
<path d="M465.13 293.006L462.538 282.508H466.909C481.933 282.508 493.206 267.615 489.119 253.153C486.324 243.259 477.191 236.349 466.909 236.349H451.143L441.221 196.157C437.288 180.222 423.079 169.094 406.666 169.094H262.755V125.102C262.755 116.691 269.598 109.848 278.009 109.848H325.848C328.363 130.22 345.765 146.045 366.805 146.045H400.968C406.576 146.045 411.138 141.483 411.138 135.876V132.903H438.695V122.734H411.138V86.1237H438.695V75.9542H411.138V73.6508C411.138 68.0434 406.576 63.4814 400.968 63.4814H366.805C345.765 63.4814 328.363 79.3071 325.848 99.6776H278.009C263.99 99.6776 252.585 111.083 252.585 125.101V169.093H231.74C221.628 169.093 212.357 173.321 205.805 180.29V126.739C205.805 117.206 198.05 109.451 188.517 109.451H163.582C169.002 98.1715 172.559 85.7495 172.559 72.5515C172.56 38.0607 142.942 10 106.535 10C70.1281 10 40.5085 38.0607 40.5085 72.5515C40.5085 85.5715 44.258 98.0393 49.9295 109.451H27.2881C17.7553 109.451 10 117.206 10 126.739V490H443.962V479.831H438.02C442.861 474.428 445.814 467.3 445.814 459.492V434.567H461.068C475.086 434.567 486.491 423.162 486.491 409.143V318.101C486.49 305.465 477.224 294.957 465.13 293.006ZM371.888 73.6508H400.967L400.973 135.875H371.888V73.6508ZM361.719 74.0729V135.452C346.975 133.016 335.692 120.185 335.692 104.762C335.692 89.3393 346.975 76.5085 361.719 74.0729ZM466.909 246.518C472.66 246.518 477.769 250.383 479.333 255.917C481.603 263.955 475.298 272.337 466.909 272.337H460.028L453.654 246.517H466.909V246.518ZM207.056 198.592C209.866 187.211 220.016 179.261 231.739 179.261H406.665C418.388 179.261 428.539 187.21 431.347 198.592L454.574 292.677H435.806L413.194 201.428C412.631 199.161 410.595 197.567 408.258 197.567H230.147C227.81 197.567 225.773 199.16 225.211 201.428L202.599 292.677H183.83L207.056 198.592ZM257.301 253.745L268.702 207.738H404.28L425.328 292.677H213.077L234.124 207.738H258.223L247.428 251.299L257.301 253.745ZM81.1864 217.185V150.924C92.9576 162.462 106.462 172.109 106.462 172.109C116.163 165.744 125.121 158.221 133.393 150.1H165.129V236.644C156.388 238.053 149.017 244.443 146.556 253.152C146.26 254.2 146.054 255.251 145.914 256.298H50.678V150.101H71.0169V217.186H81.1864V217.185ZM156.341 255.917C157.905 250.383 163.014 246.518 168.765 246.518H184.75L178.376 272.338H168.765C160.413 272.338 154.062 263.988 156.341 255.917ZM188.517 119.62C192.442 119.62 195.636 122.814 195.636 126.739V202.423L187.261 236.348H175.298V139.931H143.003C148.293 133.881 153.502 127.066 158.041 119.619L188.517 119.62ZM106.535 20.1695C137.333 20.1695 162.391 43.6671 162.391 72.5515C162.391 115.233 118.435 150.82 106.601 159.625C94.7952 150.483 50.678 113.562 50.678 72.5515C50.678 43.6671 75.7356 20.1695 106.535 20.1695ZM20.1695 479.831V126.739C20.1695 122.814 23.3637 119.62 27.2881 119.62H55.6264C60.2383 127.022 65.499 133.848 70.8095 139.932H40.5085V266.468H146.907C149.946 275.518 158.473 282.508 168.766 282.508H175.866L173.274 293.006C161.181 294.957 151.914 305.465 151.914 318.101V409.143C151.914 423.162 163.319 434.567 177.338 434.567H192.592V459.492C192.592 467.3 195.543 474.428 200.386 479.831H20.1695ZM202.762 459.492V434.567H243.44V459.492C243.44 470.706 234.316 479.831 223.101 479.831C211.886 479.831 202.762 470.706 202.762 459.492ZM392.588 479.831H245.815C250.657 474.428 253.609 467.3 253.609 459.492V434.567H384.796V459.492C384.796 467.3 387.747 474.428 392.588 479.831ZM394.965 459.492V434.567H435.643V459.492C435.643 470.706 426.519 479.831 415.304 479.831C404.089 479.831 394.965 470.706 394.965 459.492ZM476.321 409.143C476.321 417.555 469.478 424.398 461.067 424.398H177.338C168.927 424.398 162.084 417.555 162.084 409.143V318.101C162.084 309.69 168.927 302.847 177.338 302.847H461.067C469.478 302.847 476.321 309.69 476.321 318.101V409.143Z"/>
</mask>
<path d="M465.13 293.006L462.538 282.508H466.909C481.933 282.508 493.206 267.615 489.119 253.153C486.324 243.259 477.191 236.349 466.909 236.349H451.143L441.221 196.157C437.288 180.222 423.079 169.094 406.666 169.094H262.755V125.102C262.755 116.691 269.598 109.848 278.009 109.848H325.848C328.363 130.22 345.765 146.045 366.805 146.045H400.968C406.576 146.045 411.138 141.483 411.138 135.876V132.903H438.695V122.734H411.138V86.1237H438.695V75.9542H411.138V73.6508C411.138 68.0434 406.576 63.4814 400.968 63.4814H366.805C345.765 63.4814 328.363 79.3071 325.848 99.6776H278.009C263.99 99.6776 252.585 111.083 252.585 125.101V169.093H231.74C221.628 169.093 212.357 173.321 205.805 180.29V126.739C205.805 117.206 198.05 109.451 188.517 109.451H163.582C169.002 98.1715 172.559 85.7495 172.559 72.5515C172.56 38.0607 142.942 10 106.535 10C70.1281 10 40.5085 38.0607 40.5085 72.5515C40.5085 85.5715 44.258 98.0393 49.9295 109.451H27.2881C17.7553 109.451 10 117.206 10 126.739V490H443.962V479.831H438.02C442.861 474.428 445.814 467.3 445.814 459.492V434.567H461.068C475.086 434.567 486.491 423.162 486.491 409.143V318.101C486.49 305.465 477.224 294.957 465.13 293.006ZM371.888 73.6508H400.967L400.973 135.875H371.888V73.6508ZM361.719 74.0729V135.452C346.975 133.016 335.692 120.185 335.692 104.762C335.692 89.3393 346.975 76.5085 361.719 74.0729ZM466.909 246.518C472.66 246.518 477.769 250.383 479.333 255.917C481.603 263.955 475.298 272.337 466.909 272.337H460.028L453.654 246.517H466.909V246.518ZM207.056 198.592C209.866 187.211 220.016 179.261 231.739 179.261H406.665C418.388 179.261 428.539 187.21 431.347 198.592L454.574 292.677H435.806L413.194 201.428C412.631 199.161 410.595 197.567 408.258 197.567H230.147C227.81 197.567 225.773 199.16 225.211 201.428L202.599 292.677H183.83L207.056 198.592ZM257.301 253.745L268.702 207.738H404.28L425.328 292.677H213.077L234.124 207.738H258.223L247.428 251.299L257.301 253.745ZM81.1864 217.185V150.924C92.9576 162.462 106.462 172.109 106.462 172.109C116.163 165.744 125.121 158.221 133.393 150.1H165.129V236.644C156.388 238.053 149.017 244.443 146.556 253.152C146.26 254.2 146.054 255.251 145.914 256.298H50.678V150.101H71.0169V217.186H81.1864V217.185ZM156.341 255.917C157.905 250.383 163.014 246.518 168.765 246.518H184.75L178.376 272.338H168.765C160.413 272.338 154.062 263.988 156.341 255.917ZM188.517 119.62C192.442 119.62 195.636 122.814 195.636 126.739V202.423L187.261 236.348H175.298V139.931H143.003C148.293 133.881 153.502 127.066 158.041 119.619L188.517 119.62ZM106.535 20.1695C137.333 20.1695 162.391 43.6671 162.391 72.5515C162.391 115.233 118.435 150.82 106.601 159.625C94.7952 150.483 50.678 113.562 50.678 72.5515C50.678 43.6671 75.7356 20.1695 106.535 20.1695ZM20.1695 479.831V126.739C20.1695 122.814 23.3637 119.62 27.2881 119.62H55.6264C60.2383 127.022 65.499 133.848 70.8095 139.932H40.5085V266.468H146.907C149.946 275.518 158.473 282.508 168.766 282.508H175.866L173.274 293.006C161.181 294.957 151.914 305.465 151.914 318.101V409.143C151.914 423.162 163.319 434.567 177.338 434.567H192.592V459.492C192.592 467.3 195.543 474.428 200.386 479.831H20.1695ZM202.762 459.492V434.567H243.44V459.492C243.44 470.706 234.316 479.831 223.101 479.831C211.886 479.831 202.762 470.706 202.762 459.492ZM392.588 479.831H245.815C250.657 474.428 253.609 467.3 253.609 459.492V434.567H384.796V459.492C384.796 467.3 387.747 474.428 392.588 479.831ZM394.965 459.492V434.567H435.643V459.492C435.643 470.706 426.519 479.831 415.304 479.831C404.089 479.831 394.965 470.706 394.965 459.492ZM476.321 409.143C476.321 417.555 469.478 424.398 461.067 424.398H177.338C168.927 424.398 162.084 417.555 162.084 409.143V318.101C162.084 309.69 168.927 302.847 177.338 302.847H461.067C469.478 302.847 476.321 309.69 476.321 318.101V409.143Z" fill="black"/>
<path d="M465.13 293.006L462.538 282.508H466.909C481.933 282.508 493.206 267.615 489.119 253.153C486.324 243.259 477.191 236.349 466.909 236.349H451.143L441.221 196.157C437.288 180.222 423.079 169.094 406.666 169.094H262.755V125.102C262.755 116.691 269.598 109.848 278.009 109.848H325.848C328.363 130.22 345.765 146.045 366.805 146.045H400.968C406.576 146.045 411.138 141.483 411.138 135.876V132.903H438.695V122.734H411.138V86.1237H438.695V75.9542H411.138V73.6508C411.138 68.0434 406.576 63.4814 400.968 63.4814H366.805C345.765 63.4814 328.363 79.3071 325.848 99.6776H278.009C263.99 99.6776 252.585 111.083 252.585 125.101V169.093H231.74C221.628 169.093 212.357 173.321 205.805 180.29V126.739C205.805 117.206 198.05 109.451 188.517 109.451H163.582C169.002 98.1715 172.559 85.7495 172.559 72.5515C172.56 38.0607 142.942 10 106.535 10C70.1281 10 40.5085 38.0607 40.5085 72.5515C40.5085 85.5715 44.258 98.0393 49.9295 109.451H27.2881C17.7553 109.451 10 117.206 10 126.739V490H443.962V479.831H438.02C442.861 474.428 445.814 467.3 445.814 459.492V434.567H461.068C475.086 434.567 486.491 423.162 486.491 409.143V318.101C486.49 305.465 477.224 294.957 465.13 293.006ZM371.888 73.6508H400.967L400.973 135.875H371.888V73.6508ZM361.719 74.0729V135.452C346.975 133.016 335.692 120.185 335.692 104.762C335.692 89.3393 346.975 76.5085 361.719 74.0729ZM466.909 246.518C472.66 246.518 477.769 250.383 479.333 255.917C481.603 263.955 475.298 272.337 466.909 272.337H460.028L453.654 246.517H466.909V246.518ZM207.056 198.592C209.866 187.211 220.016 179.261 231.739 179.261H406.665C418.388 179.261 428.539 187.21 431.347 198.592L454.574 292.677H435.806L413.194 201.428C412.631 199.161 410.595 197.567 408.258 197.567H230.147C227.81 197.567 225.773 199.16 225.211 201.428L202.599 292.677H183.83L207.056 198.592ZM257.301 253.745L268.702 207.738H404.28L425.328 292.677H213.077L234.124 207.738H258.223L247.428 251.299L257.301 253.745ZM81.1864 217.185V150.924C92.9576 162.462 106.462 172.109 106.462 172.109C116.163 165.744 125.121 158.221 133.393 150.1H165.129V236.644C156.388 238.053 149.017 244.443 146.556 253.152C146.26 254.2 146.054 255.251 145.914 256.298H50.678V150.101H71.0169V217.186H81.1864V217.185ZM156.341 255.917C157.905 250.383 163.014 246.518 168.765 246.518H184.75L178.376 272.338H168.765C160.413 272.338 154.062 263.988 156.341 255.917ZM188.517 119.62C192.442 119.62 195.636 122.814 195.636 126.739V202.423L187.261 236.348H175.298V139.931H143.003C148.293 133.881 153.502 127.066 158.041 119.619L188.517 119.62ZM106.535 20.1695C137.333 20.1695 162.391 43.6671 162.391 72.5515C162.391 115.233 118.435 150.82 106.601 159.625C94.7952 150.483 50.678 113.562 50.678 72.5515C50.678 43.6671 75.7356 20.1695 106.535 20.1695ZM20.1695 479.831V126.739C20.1695 122.814 23.3637 119.62 27.2881 119.62H55.6264C60.2383 127.022 65.499 133.848 70.8095 139.932H40.5085V266.468H146.907C149.946 275.518 158.473 282.508 168.766 282.508H175.866L173.274 293.006C161.181 294.957 151.914 305.465 151.914 318.101V409.143C151.914 423.162 163.319 434.567 177.338 434.567H192.592V459.492C192.592 467.3 195.543 474.428 200.386 479.831H20.1695ZM202.762 459.492V434.567H243.44V459.492C243.44 470.706 234.316 479.831 223.101 479.831C211.886 479.831 202.762 470.706 202.762 459.492ZM392.588 479.831H245.815C250.657 474.428 253.609 467.3 253.609 459.492V434.567H384.796V459.492C384.796 467.3 387.747 474.428 392.588 479.831ZM394.965 459.492V434.567H435.643V459.492C435.643 470.706 426.519 479.831 415.304 479.831C404.089 479.831 394.965 470.706 394.965 459.492ZM476.321 409.143C476.321 417.555 469.478 424.398 461.067 424.398H177.338C168.927 424.398 162.084 417.555 162.084 409.143V318.101C162.084 309.69 168.927 302.847 177.338 302.847H461.067C469.478 302.847 476.321 309.69 476.321 318.101V409.143Z" stroke="black" stroke-width="2" mask="url(#path-15-outside-1_3_1262)"/>
<path d="M106.535 42.739C124.538 42.739 139.204 57.0691 139.204 74.7068C139.203 92.3443 124.538 106.674 106.535 106.674C88.5306 106.673 73.8649 92.3442 73.8647 74.7068C73.8647 57.0692 88.5294 42.7391 106.535 42.739ZM106.535 53.9089C94.6643 53.9091 85.0347 63.2555 85.0347 74.7068C85.0348 86.158 94.6644 95.5045 106.535 95.5046C118.405 95.5046 128.034 86.1581 128.035 74.7068C128.035 63.2554 118.404 53.9089 106.535 53.9089Z" fill="black" stroke="black"/>
<path d="M134.13 302.528L133.961 303.158L120.041 355.007L144.733 355.092L145.475 355.094L145.194 355.782L100.43 465.054L99.4673 464.875L97.9106 392.047L71.811 392.07H71.1392L71.3325 391.426L97.8374 302.884L97.9448 302.528H134.13ZM86.145 380.888L108.356 380.871H108.845L108.856 381.36L109.539 413.353L128.852 366.207L106.141 366.129L105.492 366.126L105.661 365.5L119.568 313.698H106.259L86.145 380.888Z" fill="black" stroke="black"/>
<path d="M274.379 63.8701V75.04H263.004V63.8701H274.379Z" fill="black" stroke="black"/>
<path d="M319.106 63.8701V75.04H284.565V63.8701H319.106Z" fill="black" stroke="black"/>
</g>
<defs>
<clipPath id="clip0_3_1262">
<rect width="480" height="480" fill="white" transform="translate(10 10)"/>
</clipPath>
</defs>
</svg>
