<svg width="500" height="500" viewBox="0 0 500 500" fill="none" xmlns="http://www.w3.org/2000/svg">
<path d="M472.984 9C482.92 9.00021 491.002 17.0815 491.002 27.0166V472.983C491.002 482.918 482.919 491 472.984 491H27.0176C17.0816 491 9.00021 482.918 9 472.983V27.0166C9.00019 17.0815 17.0816 9.00018 27.0176 9H472.984ZM20.5986 472.983C20.5988 476.52 23.4785 479.4 27.0166 479.4H39.542L39.541 460.457H20.5986V472.983ZM460.457 479.4H472.984C476.51 479.4 479.382 476.54 479.401 473.02V460.457H460.457V479.4ZM51.1426 479.4H448.857V460.457H51.1426V479.4ZM460.458 448.856H479.402V51.1436H460.458V448.856ZM448.857 416.79C433.792 421.841 421.817 433.815 416.787 448.856H448.857V416.79ZM95.3105 51.1436C89.5745 72.579 72.5799 89.5724 51.1436 95.3086V404.69C72.5791 410.427 89.5736 427.42 95.3105 448.856H404.689C410.401 427.424 427.396 410.43 448.857 404.69V95.3145C427.425 89.6027 410.432 72.6072 404.691 51.1436H95.3105ZM51.1426 448.856H83.2109C78.1606 433.812 66.1869 421.839 51.1426 416.79V448.856ZM20.5996 448.856H39.542V51.1436H20.5996V448.856ZM416.79 51.1436C421.842 66.2116 433.816 78.187 448.857 83.2178V51.1436H416.79ZM51.1426 83.209C66.1876 78.1603 78.1615 66.1877 83.2109 51.1436H51.1426V83.209ZM460.458 39.543H479.403V27.0166C479.403 23.4797 476.523 20.5998 472.985 20.5996H460.458V39.543ZM51.1426 39.543H448.857V20.5996H51.1426V39.543ZM27.0176 20.5996C23.4795 20.5998 20.5998 23.4796 20.5996 27.0166V39.543H39.542L39.543 20.5996H27.0176Z" fill="black" stroke="black" stroke-width="2"/>
<path d="M154.213 337.068C156.477 334.803 160.152 334.803 162.415 337.068L162.62 337.283C164.678 339.56 164.61 343.075 162.415 345.27L97.1292 410.555C95.9977 411.687 94.5101 412.253 93.0286 412.253C91.6391 412.253 90.2454 411.756 89.1438 410.761L88.928 410.555C86.6623 408.29 86.6627 404.618 88.928 402.353L154.213 337.068Z" fill="black" stroke="black" stroke-width="2"/>
<path d="M158.315 317.775C164.561 317.775 170.44 320.21 174.857 324.627C183.977 333.749 183.977 348.589 174.857 357.711C173.725 358.843 172.237 359.409 170.755 359.409C169.407 359.409 168.058 358.939 166.973 358.004H166.946L166.654 357.711C164.389 355.447 164.389 351.774 166.653 349.509L166.654 349.508C171.251 344.91 171.25 337.428 166.653 332.829C164.424 330.601 161.467 329.375 158.314 329.375C155.161 329.375 152.204 330.6 149.975 332.829C147.709 335.093 144.038 335.093 141.773 332.829C139.508 330.565 139.509 326.892 141.773 324.627L142.192 324.219C146.558 320.06 152.264 317.775 158.315 317.775Z" fill="black" stroke="black" stroke-width="2"/>
<path d="M337.587 337.068C339.851 334.803 343.525 334.803 345.789 337.068L411.075 402.353C413.269 404.547 413.337 408.061 411.28 410.338L411.075 410.555C409.943 411.687 408.456 412.253 406.974 412.253C405.492 412.253 404.005 411.687 402.873 410.555L337.587 345.27C335.322 343.005 335.322 339.333 337.587 337.068Z" fill="black" stroke="black" stroke-width="2"/>
<path d="M341.687 317.775C347.933 317.775 353.811 320.21 358.229 324.627C360.494 326.892 360.493 330.563 358.229 332.828L358.229 332.829C355.966 335.094 352.292 335.093 350.026 332.829C347.807 330.61 344.865 329.386 341.727 329.376H341.687C338.731 329.376 335.947 330.454 333.773 332.425L333.347 332.83C328.749 337.429 328.749 344.911 333.347 349.509C335.612 351.774 335.612 355.447 333.347 357.712L333.346 357.711C332.214 358.843 330.728 359.41 329.246 359.41C327.857 359.41 326.463 358.912 325.361 357.918L325.145 357.712C316.024 348.59 316.024 333.75 325.145 324.628C329.562 320.21 335.44 317.775 341.687 317.775Z" fill="black" stroke="black" stroke-width="2"/>
<path d="M88.928 89.4441C91.1914 87.1798 94.8657 87.1798 97.1292 89.4441L162.415 154.73C164.61 156.924 164.678 160.439 162.62 162.716L162.415 162.932C161.284 164.065 159.796 164.631 158.315 164.631C156.833 164.631 155.345 164.064 154.213 162.932L88.928 97.6462C86.6625 95.3816 86.6628 91.7093 88.928 89.4441Z" fill="black" stroke="black" stroke-width="2"/>
<path d="M166.655 142.288C168.918 140.024 172.592 140.024 174.857 142.288H174.858C183.978 151.41 183.978 166.251 174.858 175.372C170.441 179.791 164.562 182.225 158.315 182.225C152.068 182.225 146.19 179.79 141.773 175.373C139.578 173.179 139.509 169.664 141.567 167.387L141.773 167.17C144.037 164.906 147.71 164.906 149.975 167.17L150.402 167.576C152.564 169.538 155.331 170.613 158.272 170.623H158.315C161.467 170.623 164.425 169.398 166.655 167.169C171.252 162.571 171.252 155.088 166.655 150.49C164.39 148.225 164.39 144.554 166.655 142.288Z" fill="black" stroke="black" stroke-width="2"/>
<path d="M402.873 89.4451C405.136 87.1804 408.811 87.1805 411.075 89.4451L411.28 89.6609C413.338 91.9372 413.269 95.4526 411.075 97.6472L345.789 162.932C344.657 164.065 343.17 164.631 341.688 164.631C340.299 164.631 338.905 164.133 337.803 163.138L337.587 162.932C335.322 160.668 335.322 156.996 337.587 154.73L402.873 89.4451Z" fill="black" stroke="black" stroke-width="2"/>
<path d="M325.363 142.083C327.64 140.027 331.154 140.096 333.349 142.289L333.555 142.506C335.545 144.709 335.545 148.072 333.555 150.276L333.349 150.491C328.751 155.089 328.751 162.572 333.349 167.171L333.775 167.576C335.948 169.547 338.731 170.624 341.688 170.624C344.841 170.624 347.798 169.4 350.026 167.171V167.17C352.189 165.009 355.632 164.912 357.911 166.878H357.937L358.229 167.171C360.494 169.436 360.495 173.108 358.23 175.373H358.229C353.812 179.79 347.933 182.225 341.688 182.225C335.442 182.225 329.563 179.791 325.146 175.373C316.026 166.252 316.026 151.411 325.146 142.289L325.363 142.083Z" fill="black" stroke="black" stroke-width="2"/>
<path d="M250.001 173.16C292.372 173.16 326.84 207.629 326.841 250C326.841 292.371 292.372 326.84 250.001 326.84C207.63 326.84 173.161 292.371 173.161 250C173.161 207.629 207.63 173.16 250.001 173.16ZM265.649 287.781C264.384 296.873 262.653 305.783 260.458 314.383C270.655 312.733 280.067 308.718 288.11 302.909C280.484 298.383 272.966 293.31 265.649 287.781ZM234.35 287.781C227.034 293.311 219.516 298.383 211.889 302.908C219.932 308.717 229.345 312.73 239.542 314.381C237.346 305.781 235.615 296.872 234.35 287.781ZM250 274.997C248.338 276.46 246.661 277.901 244.97 279.318C246.079 289.258 247.753 299.015 250.001 308.4C252.248 299.016 253.923 289.26 255.031 279.32C253.34 277.902 251.663 276.461 250 274.997ZM225.71 267.176C219.465 274.987 213.751 283.07 208.704 291.295C216.929 286.248 225.011 280.534 232.823 274.29C232.63 272.092 232.463 269.887 232.323 267.677C230.113 267.537 227.908 267.368 225.71 267.176ZM274.29 267.176C272.092 267.368 269.887 267.537 267.677 267.677C267.536 269.887 267.368 272.093 267.176 274.291C274.987 280.534 283.069 286.248 291.294 291.295C286.247 283.07 280.533 274.987 274.29 267.176ZM314.385 260.46C305.786 262.654 296.876 264.384 287.784 265.649C293.313 272.966 298.386 280.484 302.912 288.111C308.721 280.068 312.735 270.657 314.385 260.46ZM185.619 260.459C187.269 270.655 191.283 280.067 197.092 288.109C201.617 280.483 206.69 272.966 212.219 265.649C203.129 264.384 194.219 262.655 185.619 260.459ZM252.751 243.367C250.918 243.348 249.085 243.348 247.253 243.367C245.944 244.649 244.649 245.944 243.367 247.253C243.348 249.085 243.349 250.917 243.368 252.749C244.649 254.057 245.945 255.352 247.254 256.635C249.086 256.654 250.918 256.654 252.751 256.635C254.059 255.354 255.354 254.058 256.635 252.75C256.654 250.917 256.654 249.085 256.635 247.253C255.354 245.945 254.059 244.649 252.751 243.367ZM220.679 244.971C210.74 246.079 200.985 247.753 191.6 250C200.984 252.247 210.74 253.921 220.678 255.03C222.096 253.339 223.537 251.662 225.001 250C223.538 248.338 222.097 246.661 220.679 244.971ZM279.321 244.97C277.904 246.66 276.465 248.338 275.001 250C276.465 251.662 277.905 253.34 279.323 255.03C289.262 253.922 299.018 252.248 308.403 250C299.017 247.752 289.261 246.079 279.321 244.97ZM197.092 211.89C191.283 219.932 187.269 229.344 185.619 239.541C194.218 237.346 203.128 235.614 212.219 234.349C206.689 227.033 201.616 219.516 197.092 211.89ZM302.912 211.89C298.386 219.515 293.314 227.033 287.785 234.349C296.876 235.614 305.786 237.346 314.385 239.541C312.735 229.344 308.721 219.932 302.912 211.89ZM208.708 208.705C213.754 216.93 219.468 225.012 225.712 232.823C227.91 232.63 230.114 232.463 232.325 232.323C232.465 230.112 232.632 227.908 232.825 225.71C225.013 219.466 216.932 213.752 208.708 208.705ZM291.297 208.705C283.071 213.752 274.989 219.467 267.177 225.711C267.37 227.909 267.538 230.113 267.678 232.323C269.889 232.463 272.094 232.63 274.293 232.823C280.536 225.011 286.25 216.929 291.297 208.705ZM250.001 191.601C247.753 200.986 246.079 210.742 244.97 220.681C246.661 222.098 248.339 223.537 250.001 225.001C251.663 223.537 253.341 222.096 255.031 220.679C253.922 210.74 252.248 200.985 250.001 191.601ZM239.542 185.618C229.345 187.269 219.933 191.282 211.891 197.091C219.517 201.616 227.035 206.688 234.351 212.218C235.616 203.127 237.346 194.217 239.542 185.618ZM260.46 185.618C262.656 194.217 264.385 203.126 265.65 212.217C272.967 206.687 280.484 201.615 288.111 197.09C280.069 191.282 270.656 187.268 260.46 185.618Z" fill="black" stroke="black" stroke-width="2"/>
<path d="M359.945 382.079C369.199 382.079 376.663 390.04 376.663 399.224C376.663 408.408 369.199 416.368 359.945 416.368H140.058C130.804 416.368 123.34 408.408 123.34 399.224C123.34 390.04 130.804 382.079 140.058 382.079H359.945ZM140.057 393.679C137.32 393.679 134.938 396.314 134.938 399.224C134.939 402.133 137.32 404.767 140.057 404.768H140.495C143.55 404.767 146.039 402.28 146.039 399.224C146.039 396.167 143.551 393.679 140.495 393.679H140.057ZM359.506 393.679C356.451 393.679 353.962 396.167 353.962 399.224C353.962 402.28 356.45 404.767 359.506 404.768H359.944C362.681 404.767 365.062 402.133 365.062 399.224C365.062 396.314 362.681 393.679 359.944 393.679H359.506ZM156.708 393.679C157.307 395.417 157.64 397.281 157.64 399.224C157.64 401.166 157.308 403.029 156.708 404.768H343.295C342.695 403.029 342.362 401.166 342.362 399.224C342.362 397.281 342.695 395.417 343.295 393.679H156.708Z" fill="black" stroke="black" stroke-width="2"/>
<path d="M359.945 83.6323L360.377 83.6382C369.43 83.8812 376.663 91.736 376.663 100.777C376.663 109.961 369.199 117.921 359.945 117.921H140.058C130.804 117.921 123.34 109.961 123.34 100.777C123.34 91.5928 130.804 83.6325 140.058 83.6323H359.945ZM140.058 95.2319C137.321 95.2321 134.939 97.8674 134.939 100.777C134.94 103.686 137.321 106.321 140.058 106.321H140.496C143.551 106.321 146.04 103.833 146.04 100.777C146.04 97.7206 143.552 95.2322 140.496 95.2319H140.058ZM359.507 95.2319C356.452 95.2321 353.963 97.7207 353.963 100.777C353.963 103.833 356.451 106.321 359.507 106.321H359.945C362.682 106.321 365.063 103.686 365.063 100.777C365.063 97.8674 362.682 95.2322 359.945 95.2319H359.507ZM156.708 95.2319C157.307 96.9704 157.64 98.834 157.64 100.777C157.64 102.719 157.308 104.582 156.708 106.321H343.295C342.695 104.582 342.362 102.719 342.362 100.777C342.362 98.8341 342.695 96.9705 343.295 95.2319H156.708Z" fill="black" stroke="black" stroke-width="2"/>
<path d="M399.224 123.339C408.408 123.339 416.368 130.803 416.368 140.057V359.944C416.368 369.199 408.408 376.663 399.224 376.663C390.039 376.663 382.079 369.198 382.079 359.944V140.058C382.079 130.803 390.039 123.339 399.224 123.339ZM399.224 353.961C396.168 353.961 393.679 356.449 393.679 359.505V359.943C393.679 362.681 396.314 365.063 399.224 365.063C402.133 365.063 404.767 362.68 404.768 359.943V359.505C404.767 356.449 402.279 353.961 399.224 353.961ZM404.768 156.706C403.029 157.305 401.165 157.638 399.224 157.638C397.282 157.638 395.418 157.306 393.679 156.706V343.293C395.417 342.694 397.282 342.362 399.224 342.362C401.165 342.362 403.029 342.694 404.768 343.293V156.706ZM399.224 134.938C396.314 134.938 393.679 137.32 393.679 140.057V140.495C393.679 143.551 396.168 146.039 399.224 146.039C402.279 146.039 404.767 143.551 404.768 140.495V140.057C404.767 137.319 402.133 134.938 399.224 134.938Z" fill="black" stroke="black" stroke-width="2"/>
<path d="M100.779 123.338C109.963 123.338 117.923 130.804 117.923 140.057V359.943C117.923 368.859 110.533 376.112 101.779 376.63V376.662H100.779C91.5946 376.662 83.6345 369.197 83.6343 359.943V140.057C83.6344 130.802 91.5947 123.338 100.779 123.338ZM100.779 353.961C97.7234 353.961 95.2341 356.449 95.2339 359.505V359.943C95.2341 362.681 97.8695 365.063 100.779 365.063C103.688 365.063 106.323 362.68 106.323 359.943V359.505C106.323 356.449 103.834 353.961 100.779 353.961ZM106.323 156.706C104.584 157.305 102.721 157.638 100.779 157.638C98.8369 157.638 96.9729 157.306 95.2339 156.706V343.293C96.9726 342.694 98.8368 342.362 100.779 342.362C102.72 342.362 104.584 342.694 106.323 343.293V156.706ZM100.779 134.938C97.8696 134.938 95.2341 137.32 95.2339 140.057V140.495C95.2341 143.551 97.7235 146.039 100.779 146.039C103.834 146.039 106.323 143.551 106.323 140.495V140.057C106.323 137.319 103.688 134.938 100.779 134.938Z" fill="black" stroke="black" stroke-width="2"/>
</svg>
