<svg width="500" height="500" viewBox="0 0 500 500" fill="none" xmlns="http://www.w3.org/2000/svg">
<path d="M164.847 43L165.069 43.0049C166.181 43.0501 167.363 43.4303 168.244 44.043H168.243C168.638 44.2855 170 45.183 171.745 46.5703C173.706 48.1299 176.204 50.3466 178.43 53.0166L178.438 53.0254C181.742 57.0848 183.002 63.1732 183.318 69.9639C183.635 76.7879 183.005 84.5383 182.349 92.0732L182.348 92.0811L182.347 92.0879C182.047 95.0323 181.843 97.977 181.734 100.596C191.663 103.644 214.005 112.016 234.493 131.214C259.275 154.352 285.772 198.106 271.623 274.642C271.598 275.12 271.436 275.571 271.369 275.794L271.357 275.834L271.341 275.873C271.341 275.874 271.339 275.878 271.336 275.886C271.333 275.895 271.328 275.909 271.322 275.926C271.309 275.96 271.291 276.008 271.268 276.069C271.222 276.192 271.157 276.368 271.075 276.593C270.91 277.043 270.677 277.693 270.386 278.521C269.806 280.176 268.999 282.542 268.073 285.45C266.219 291.269 263.887 299.249 261.913 308.036C259.938 316.827 258.328 326.402 257.91 335.416C257.491 344.442 258.273 352.812 261.004 359.258L261.129 359.562C262.331 362.724 260.766 366.393 257.528 367.657L257.492 367.672L257.455 367.683C256.602 367.942 255.756 368.075 254.886 368.075C252.449 368.075 250.002 366.659 248.957 364.076V364.075C245.765 356.514 244.683 347.323 244.86 337.755C245.037 328.17 246.477 318.138 248.378 308.864C252.147 290.484 257.745 274.984 259.022 271.659C269.374 215.03 258.202 171.019 225.963 140.836L225.96 140.834C202.515 118.744 175.78 112.191 173.658 111.642V111.646C170.702 110.996 168.634 108.426 168.634 105.351C168.634 101.177 169.071 96.2398 169.501 90.9414V90.9404C169.934 85.6623 170.475 79.1055 170.477 73.3447C170.478 70.4638 170.344 67.8151 170.003 65.6436C169.657 63.4305 169.118 61.8777 168.43 61.041L168.423 61.0332L168.417 61.0254C166.564 58.6787 164.238 56.8852 162.775 55.7539H144.139V103.405C144.139 105.2 143.373 106.863 142.217 108.019C141.011 109.225 139.223 109.824 137.488 109.824H137.464L137.441 109.823C121.343 109.068 108.952 113.161 100.513 121.583C93.6441 128.511 90.3647 137.346 88.8101 144.533C87.2583 151.707 87.4427 157.152 87.4429 157.26C87.5585 159.446 86.5062 161.487 84.7466 162.744L84.7397 162.749L42.9731 192.044C42.8357 192.16 42.7119 192.225 42.6431 192.26C42.6414 192.261 42.6397 192.261 42.6382 192.262L42.6196 192.278L42.5513 192.32C40.1735 193.775 38.753 195.453 37.9419 197.154C37.1276 198.862 36.899 200.655 37.0005 202.372C37.2003 205.754 38.6714 208.732 39.2847 209.921C41.1301 212.205 43.1861 215.023 45.5425 218.23L48.4292 222.109C51.4938 226.197 55.0411 230.788 58.6069 234.769C60.9842 237.422 63.3464 239.778 65.5581 241.523C67.7913 243.286 69.7573 244.332 71.354 244.544C78.2712 245.355 81.9747 244.964 84.4614 243.695C86.943 242.429 88.3805 240.22 90.5845 236.741L91.2388 235.714C94.592 230.47 99.3377 223.654 109.716 217.726C131.924 204.883 158.364 206.49 159.994 206.625H159.995C160.002 206.625 160.01 206.626 160.018 206.626C160.024 206.627 160.03 206.627 160.036 206.628H160.035C162.665 206.779 164.895 208.604 165.717 211.125L165.792 211.372L165.794 211.379L165.796 211.387C168.18 220.251 165.271 229.187 159.432 238.59C153.596 247.989 144.709 258.046 134.846 269.202L134.847 269.203C113.094 293.886 86.2625 324.428 78.2798 363.006L78.2778 363.02L77.3013 362.803L78.2769 363.02C77.5214 366.428 74.2146 368.78 70.7173 368.023V368.024C67.2062 367.366 65.0575 363.884 65.6792 360.464L65.6812 360.452L65.6831 360.441C74.3215 318.338 102.64 286.318 125.203 260.733C132.709 252.195 139.733 244.227 144.952 237.026C149.84 230.281 153.018 224.372 153.631 219.419C145.371 219.641 129.509 221.166 116.132 228.917L116.13 228.918C107.866 233.682 104.614 238.734 101.483 243.679L101.478 243.686C98.4323 248.412 95.4641 252.495 90.7251 255.031C85.977 257.572 79.6078 258.484 69.9038 257.284C63.5124 256.535 57.2486 251.857 51.4692 245.915C45.6577 239.94 40.1607 232.499 35.3394 225.935V225.934C32.9598 222.695 30.8137 219.889 29.0825 217.729C28.8074 217.438 28.6485 217.149 28.5356 216.912C26.1883 213.032 23.8997 206.801 24.2222 200.229C24.5485 193.581 27.5504 186.628 35.7104 181.507L74.7065 154.233C75.0018 146.224 77.2887 126.771 91.4868 112.572C101.402 102.657 114.8 97.4941 131.369 96.9971V49.4355C131.369 45.8415 134.21 43 137.804 43H164.847Z" fill="black" stroke="black" stroke-width="2"/>
<path d="M254.023 307.633C257.617 307.634 260.457 310.475 260.457 314.069C260.457 317.663 257.616 320.503 254.023 320.503H91.7786C88.1846 320.503 85.3431 317.663 85.343 314.069C85.343 310.475 88.1845 307.633 91.7786 307.633H254.023Z" fill="black" stroke="black" stroke-width="2"/>
<path d="M286.917 355.205L287.251 355.212C290.686 355.383 293.352 358.158 293.352 361.64V405.954C293.352 409.429 290.413 412.388 286.917 412.388C283.323 412.388 280.481 409.547 280.481 405.954V368.075H46.52V405.954C46.5198 409.547 43.6792 412.388 40.0854 412.388C36.4915 412.388 33.6501 409.547 33.6499 405.954V361.64C33.6499 358.046 36.4914 355.205 40.0854 355.205H286.917Z" fill="black" stroke="black" stroke-width="2"/>
<path d="M311.566 399.401C315.16 399.401 318.002 402.243 318.002 405.837V450.15C318.002 453.744 315.16 456.585 311.566 456.585H15.4355C11.8416 456.585 9.00021 453.744 9 450.15V405.837C9 402.243 11.8415 399.401 15.4355 399.401H311.566ZM21.8701 443.715H305.147V412.271H21.8701V443.715Z" fill="black" stroke="black" stroke-width="2"/>
<path d="M195.019 197.429C198.225 195.757 202.102 197.037 203.662 200.275H203.661C205.308 203.47 204.035 207.318 200.82 208.88C182.52 218.189 167.699 219.411 161.39 219.411H159.409L159.391 219.41C155.777 219.272 153.092 216.196 153.21 212.726V212.72C153.344 209.348 156.22 206.6 159.569 206.539L159.895 206.541L159.906 206.542H159.917C163.571 206.749 177.068 206.559 195.019 197.43V197.429Z" fill="black" stroke="black" stroke-width="2"/>
<path d="M114.799 147.999C118.393 147.999 121.235 150.84 121.235 154.434C121.235 158.028 118.393 160.869 114.799 160.869H105.026C101.432 160.869 98.5905 158.028 98.5903 154.434C98.5903 150.84 101.432 147.999 105.026 147.999H114.799Z" fill="black" stroke="black" stroke-width="2"/>
<path d="M402.62 250.206C406.225 250.206 409.055 253.158 409.055 256.641V256.647C408.846 289.902 413.304 322.75 422.157 354.107L423.027 357.138L423.031 357.149L423.034 357.161C423.543 359.079 423.169 361.128 422.021 362.763L422.016 362.771L422.011 362.777C420.778 364.468 418.838 365.366 416.798 365.366H323.95C321.919 365.366 319.963 364.474 318.79 362.758C317.647 361.111 317.271 359.082 317.781 357.161L317.784 357.15L317.787 357.139C327.201 324.769 331.975 290.974 331.759 256.647V256.641C331.759 253.047 334.601 250.206 338.195 250.206C341.787 250.206 344.626 253.044 344.629 256.635L344.637 259.747C344.578 291.447 340.445 322.624 332.448 352.611H408.367C400.093 321.626 395.972 289.295 396.185 256.641H396.184C396.184 253.035 399.137 250.206 402.62 250.206ZM398.132 125.327C406.136 125.327 414.358 129.262 419.112 135.48C422.985 140.382 424.262 146.232 422.889 151.862L422.888 151.868C415.624 180.907 411.296 207.879 409.553 234.513C409.636 237.92 406.924 240.425 403.76 240.579L403.451 240.587H403.083L403.047 240.585C399.585 240.339 396.93 237.448 397.002 234.089L397.018 233.763C398.768 206.34 403.217 178.592 410.625 148.774L410.629 148.759C411.08 147.067 410.661 145.207 409.182 143.336L409.175 143.328C406.771 140.219 402.404 138.181 398.232 138.181H342.516C338.473 138.181 333.976 140.327 331.562 143.341C330.179 145.093 329.722 146.738 330.046 148.432L330.122 148.771L330.123 148.775C337.514 178.576 341.979 206.325 343.729 233.765C343.986 237.387 341.263 240.332 337.7 240.585C334.078 240.842 331.133 238.118 330.88 234.555V234.545C329.256 207.905 324.812 180.922 317.66 151.864L317.659 151.862C316.287 146.234 317.546 140.384 321.438 135.479L321.439 135.478C326.296 129.376 334.511 125.327 342.417 125.327H398.132Z" fill="black" stroke="black" stroke-width="2"/>
<path d="M454.048 352.479C457.642 352.479 460.482 355.32 460.482 358.914V403.247L460.481 403.267C460.345 406.706 457.564 409.662 453.947 409.662C450.354 409.662 447.513 406.821 447.513 403.228V365.349H286.917C283.323 365.349 280.482 362.508 280.481 358.914C280.481 355.32 283.323 352.479 286.917 352.479H454.048Z" fill="black" stroke="black" stroke-width="2"/>
<path d="M484.565 399.401C488.159 399.401 491 402.243 491 405.837V450.15C491 453.744 488.159 456.585 484.565 456.585H311.567C307.973 456.585 305.131 453.744 305.131 450.15C305.131 446.556 307.973 443.715 311.567 443.715H478.129V412.271H311.567C307.973 412.271 305.131 409.431 305.131 405.837C305.131 402.243 307.973 399.401 311.567 399.401H484.565Z" fill="black" stroke="black" stroke-width="2"/>
<path d="M431.027 227.816C434.621 227.816 437.461 230.658 437.461 234.252V256.624C437.461 260.106 434.633 263.059 431.027 263.059H309.838C306.244 263.059 303.403 260.218 303.403 256.624V234.252C303.403 230.658 306.244 227.816 309.838 227.816H431.027ZM316.273 250.206H424.608V240.686H316.273V250.206Z" fill="black" stroke="black" stroke-width="2"/>
<path d="M383.139 65.2234C386.733 65.2235 389.574 68.065 389.574 71.6589V82.6101H400.525C404.119 82.6101 406.961 85.4507 406.961 89.0447V114.46C406.961 118.054 404.119 120.894 400.525 120.894H389.574V131.845C389.574 135.328 386.745 138.281 383.139 138.281C379.545 138.281 376.704 135.44 376.704 131.845V114.476C376.704 110.882 379.545 108.041 383.139 108.041H394.091V95.4968H383.139C379.545 95.4968 376.704 92.6553 376.704 89.0613V78.1101H364.16V89.0613C364.16 92.6553 361.318 95.4968 357.724 95.4968H346.773V108.041H357.724C361.318 108.041 364.16 110.882 364.16 114.476V131.845C364.16 135.439 361.318 138.281 357.724 138.281C354.13 138.281 351.29 135.439 351.29 131.845V120.894H340.339C336.745 120.894 333.903 118.054 333.903 114.46V89.0447C333.903 85.4507 336.745 82.6101 340.339 82.6101H351.29V71.6589C351.29 68.065 354.13 65.2235 357.724 65.2234H383.139Z" fill="black" stroke="black" stroke-width="2"/>
<path d="M428.848 158.105L429.183 158.113C432.618 158.283 435.284 161.059 435.284 164.541C435.284 168.134 432.442 170.975 428.848 170.975H311.999C308.405 170.975 305.563 168.134 305.563 164.541C305.563 160.946 308.405 158.105 311.999 158.105H428.848Z" fill="black" stroke="black" stroke-width="2"/>
</svg>
