<svg width="500" height="500" viewBox="0 0 500 500" fill="none" xmlns="http://www.w3.org/2000/svg">
<path d="M62.5 362.5V167.5C62.5 165.511 61.7098 163.603 60.3033 162.197C58.8968 160.79 56.9891 160 55 160C53.0109 160 51.1032 160.79 49.6967 162.197C48.2902 163.603 47.5 165.511 47.5 167.5V362.5C47.5 364.489 48.2902 366.397 49.6967 367.803C51.1032 369.21 53.0109 370 55 370C56.9891 370 58.8968 369.21 60.3033 367.803C61.7098 366.397 62.5 364.489 62.5 362.5Z" fill="black"/>
<path d="M465.305 336.33C468.224 331.604 469.274 325.959 468.25 320.5C467.127 314.642 463.728 309.469 458.797 306.113C453.866 302.757 447.807 301.492 441.945 302.596L405.104 309.598C401.553 310.244 398.211 311.741 395.365 313.962C392.519 316.183 390.255 319.061 388.765 322.349C387.276 325.637 386.606 329.237 386.813 332.841C387.02 336.445 388.098 339.945 389.954 343.041L366.498 347.49L358.098 303.263L387.573 297.663C389.527 297.291 391.254 296.159 392.374 294.515C393.493 292.871 393.914 290.849 393.542 288.895C393.171 286.941 392.039 285.214 390.395 284.095C388.751 282.975 386.729 282.555 384.775 282.926L316.6 295.881L300.905 256.617C299.228 252.446 296.341 248.873 292.615 246.357C288.889 243.841 284.496 242.497 280 242.5H242.5V145H257.5C259.005 145 260.475 144.546 261.719 143.699C262.964 142.852 263.924 141.65 264.476 140.25C265.028 138.849 265.145 137.315 264.814 135.847C264.482 134.379 263.716 133.045 262.616 132.018L150.116 27.0175C148.727 25.7223 146.899 25.002 145 25.002C143.101 25.002 141.273 25.7223 139.884 27.0175L27.3842 132.018C26.284 133.045 25.5182 134.379 25.1865 135.847C24.8548 137.315 24.9725 138.849 25.5243 140.25C26.0761 141.65 27.0365 142.852 28.2806 143.699C29.5246 144.546 30.9948 145 32.5 145H227.5V340C227.5 341.989 228.29 343.897 229.697 345.303C231.103 346.71 233.011 347.5 235 347.5C236.989 347.5 238.897 346.71 240.303 345.303C241.71 343.897 242.5 341.989 242.5 340V287.5H259.675C261.179 287.503 262.648 287.955 263.893 288.799C265.138 289.643 266.102 290.839 266.663 292.235L294.257 361.192L277.406 364.389C272.387 360.499 266.599 357.721 260.425 356.239C254.251 354.756 247.832 354.602 241.594 355.788C235.357 356.974 229.442 359.472 224.243 363.116C219.043 366.761 214.678 371.469 211.436 376.929L145.443 389.454L137.042 345.262L166.517 339.662C168.467 339.285 170.187 338.152 171.302 336.509C172.416 334.867 172.834 332.849 172.464 330.899C172.094 328.949 170.966 327.225 169.327 326.105C167.688 324.985 165.671 324.561 163.72 324.925L90.0385 338.925C88.204 339.273 86.5652 340.293 85.4425 341.785C84.3199 343.277 83.7941 345.134 83.9681 346.993C84.142 348.852 85.0032 350.579 86.3831 351.837C87.7631 353.095 89.5626 353.793 91.4297 353.794C91.9016 353.795 92.3725 353.751 92.836 353.662L122.311 348.062L130.706 392.249L107.268 396.697C107.825 393.144 107.52 389.509 106.377 386.099C105.235 382.689 103.289 379.604 100.704 377.104C98.119 374.604 94.9705 372.762 91.5243 371.734C88.078 370.706 84.4351 370.522 80.9027 371.197L44.062 378.199C39.786 378.996 35.834 381.019 32.6873 384.022C29.5407 387.025 27.3352 390.878 26.3396 395.112C25.3441 399.346 25.6013 403.778 27.0801 407.869C28.5589 411.959 31.1953 415.531 34.6682 418.15C32.5264 421.65 31.3872 425.672 31.375 429.775C31.3782 431.179 31.4981 432.58 31.7335 433.964C32.2769 436.872 33.3904 439.642 35.0097 442.117C36.629 444.592 38.7222 446.722 41.1685 448.384C43.6148 450.046 46.3659 451.207 49.2632 451.801C52.1605 452.394 55.1466 452.409 58.0495 451.843L205 423.969V467.5C205 469.489 205.79 471.397 207.197 472.803C208.603 474.21 210.511 475 212.5 475H287.5C289.489 475 291.397 474.21 292.803 472.803C294.21 471.397 295 469.489 295 467.5V406.81L311.255 403.722L334.107 460.886C335.784 465.055 338.67 468.626 342.393 471.141C346.117 473.656 350.507 475 355 475H392.5C398.459 474.972 404.166 472.593 408.379 468.379C412.593 464.166 414.972 458.459 415 452.5C414.993 446.535 412.621 440.815 408.403 436.597C404.185 432.379 398.465 430.007 392.5 430H375.325C373.821 429.997 372.351 429.544 371.106 428.7C369.861 427.856 368.897 426.658 368.337 425.261L356.275 395.171L455.909 376.248C461.051 375.293 465.697 372.572 469.046 368.555C472.394 364.539 474.235 359.479 474.25 354.25C474.22 352.841 474.078 351.436 473.825 350.05C472.813 344.567 469.771 339.668 465.305 336.33ZM145 42.7578L238.472 130H51.5282L145 42.7578ZM403.102 327.48C403.654 326.663 404.362 325.965 405.186 325.425C406.01 324.885 406.933 324.514 407.902 324.333L444.743 317.331C445.205 317.245 445.675 317.201 446.145 317.2C448.012 317.2 449.812 317.897 451.193 319.154C452.574 320.411 453.436 322.138 453.611 323.997C453.786 325.856 453.261 327.714 452.139 329.206C451.017 330.699 449.379 331.719 447.545 332.068L410.704 339.07C409.246 339.347 407.739 339.186 406.374 338.606C405.008 338.026 403.845 337.055 403.031 335.814C402.218 334.573 401.791 333.119 401.804 331.636C401.817 330.152 402.267 328.706 403.102 327.48ZM343.355 306.059L351.755 350.284L339.278 352.651L322.253 310.067L343.355 306.059ZM280.6 286.695C278.92 282.515 276.031 278.933 272.304 276.404C268.576 273.876 264.179 272.516 259.675 272.5H242.5V257.5H280C281.503 257.505 282.969 257.958 284.213 258.801C285.457 259.644 286.422 260.838 286.983 262.232L324.263 355.5L309.271 358.344L280.6 286.695ZM42.058 396.078C42.6101 395.262 43.3187 394.564 44.1427 394.024C44.9666 393.484 45.8895 393.113 46.858 392.932L83.6995 385.93C84.1654 385.842 84.6384 385.797 85.1125 385.795C86.967 385.791 88.7572 386.475 90.136 387.715C91.5148 388.955 92.3839 390.663 92.575 392.508C92.7661 394.353 92.2655 396.203 91.1702 397.699C90.075 399.196 88.4631 400.233 86.647 400.608L49.5722 407.643L49.4912 407.667C48.0442 407.913 46.5564 407.729 45.2134 407.136C43.8705 406.543 42.7317 405.568 41.939 404.333C41.1464 403.097 40.7349 401.656 40.7559 400.188C40.777 398.72 41.2303 397.291 42.058 396.078ZM55.2197 437.115C53.2958 437.478 51.3064 437.074 49.6765 435.989C48.0466 434.904 46.9053 433.226 46.4965 431.311C46.4143 430.803 46.3736 430.289 46.375 429.775C46.3795 428.06 46.9677 426.397 48.0427 425.06C49.1177 423.723 50.6157 422.792 52.2902 422.419L52.4575 422.403L89.2982 415.401C89.404 415.381 89.4985 415.334 89.6035 415.312L140.678 405.62C140.743 405.609 140.807 405.614 140.872 405.602L140.957 405.566L205.548 393.311C205.199 395.524 205.016 397.76 205 400V408.7L55.2197 437.115ZM280 460H220V400C220 392.044 223.161 384.413 228.787 378.787C234.413 373.161 242.044 370 250 370C257.956 370 265.587 373.161 271.213 378.787C276.839 384.413 280 392.044 280 400V460ZM354.4 430.806C356.08 434.985 358.969 438.567 362.696 441.096C366.424 443.624 370.821 444.984 375.325 445H392.5C394.488 445.003 396.394 445.794 397.8 447.2C399.206 448.606 399.997 450.512 400 452.5C400.003 453.499 399.801 454.489 399.406 455.407C399.012 456.325 398.434 457.153 397.707 457.839C397.03 458.532 396.219 459.08 395.324 459.451C394.429 459.822 393.469 460.009 392.5 460H355C353.497 459.995 352.03 459.542 350.787 458.699C349.543 457.856 348.578 456.662 348.016 455.268L326.27 400.871L341.261 398.021L354.4 430.806ZM453.127 361.506L294.202 391.692C293.259 386.685 291.466 381.876 288.901 377.475L450.408 346.835C451.365 346.649 452.349 346.655 453.303 346.852C454.258 347.049 455.164 347.433 455.969 347.982C456.774 348.531 457.463 349.233 457.995 350.05C458.527 350.866 458.892 351.78 459.069 352.738C459.169 353.236 459.23 353.742 459.25 354.25C459.236 355.984 458.617 357.659 457.498 358.984C456.38 360.31 454.834 361.2 453.127 361.506Z" fill="black"/>
<path d="M250 381.25C246.292 381.25 242.666 382.35 239.583 384.41C236.5 386.47 234.096 389.399 232.677 392.825C231.258 396.251 230.887 400.021 231.61 403.658C232.334 407.295 234.12 410.636 236.742 413.258C239.364 415.881 242.705 417.666 246.342 418.39C249.979 419.113 253.749 418.742 257.175 417.323C260.601 415.904 263.53 413.5 265.59 410.417C267.65 407.334 268.75 403.708 268.75 400C268.744 395.029 266.767 390.263 263.252 386.748C259.737 383.233 254.971 381.256 250 381.25ZM250 403.75C249.258 403.75 248.533 403.53 247.917 403.118C247.3 402.706 246.819 402.12 246.535 401.435C246.252 400.75 246.177 399.996 246.322 399.268C246.467 398.541 246.824 397.873 247.348 397.348C247.873 396.824 248.541 396.467 249.268 396.322C249.996 396.177 250.75 396.252 251.435 396.535C252.12 396.819 252.706 397.3 253.118 397.917C253.53 398.533 253.75 399.258 253.75 400C253.75 400.995 253.355 401.948 252.652 402.652C251.948 403.355 250.995 403.75 250 403.75Z" fill="black"/>
<path d="M145 295C156.867 295 168.467 291.481 178.334 284.888C188.201 278.295 195.892 268.925 200.433 257.961C204.974 246.997 206.162 234.933 203.847 223.295C201.532 211.656 195.818 200.965 187.426 192.574C179.035 184.182 168.344 178.468 156.705 176.153C145.067 173.838 133.003 175.026 122.039 179.567C111.075 184.109 101.705 191.799 95.1118 201.666C88.5189 211.533 85 223.133 85 235C85.0183 250.907 91.3455 266.158 102.594 277.406C113.842 288.654 129.093 294.982 145 295ZM145 190C153.9 190 162.6 192.639 170.001 197.584C177.401 202.529 183.169 209.557 186.575 217.779C189.981 226.002 190.872 235.05 189.135 243.779C187.399 252.508 183.113 260.526 176.82 266.82C170.526 273.113 162.508 277.399 153.779 279.135C145.05 280.872 136.002 279.981 127.779 276.575C119.557 273.169 112.529 267.401 107.584 260.001C102.639 252.6 100 243.9 100 235C100.013 223.069 104.758 211.631 113.195 203.195C121.631 194.758 133.069 190.013 145 190Z" fill="black"/>
<path d="M392.5 145C399.917 145 407.167 142.801 413.334 138.68C419.501 134.56 424.307 128.703 427.145 121.851C429.984 114.998 430.726 107.458 429.279 100.184C427.833 92.9098 424.261 86.228 419.017 80.9835C413.772 75.739 407.09 72.1675 399.816 70.7206C392.542 69.2736 385.002 70.0162 378.149 72.8545C371.297 75.6928 365.44 80.4993 361.32 86.6661C357.199 92.833 355 100.083 355 107.5C355.012 117.442 358.966 126.974 365.996 134.004C373.027 141.034 382.558 144.988 392.5 145ZM392.5 85C396.95 85 401.3 86.3196 405 88.792C408.7 91.2643 411.584 94.7783 413.287 98.8896C414.99 103.001 415.436 107.525 414.568 111.89C413.7 116.254 411.557 120.263 408.41 123.41C405.263 126.557 401.254 128.7 396.89 129.568C392.525 130.436 388.001 129.99 383.89 128.287C379.778 126.584 376.264 123.7 373.792 120C371.32 116.3 370 111.95 370 107.5C370.007 101.535 372.379 95.8155 376.597 91.5974C380.815 87.3792 386.535 85.0066 392.5 85Z" fill="black"/>
<path d="M392.5 55C394.489 55 396.397 54.2098 397.803 52.8033C399.21 51.3968 400 49.4891 400 47.5V32.5C400 30.5109 399.21 28.6032 397.803 27.1967C396.397 25.7902 394.489 25 392.5 25C390.511 25 388.603 25.7902 387.197 27.1967C385.79 28.6032 385 30.5109 385 32.5V47.5C385 49.4891 385.79 51.3968 387.197 52.8033C388.603 54.2098 390.511 55 392.5 55Z" fill="black"/>
<path d="M344.771 70.375C346.189 71.7254 348.078 72.4681 350.036 72.4444C351.993 72.4207 353.864 71.6326 355.248 70.2483C356.633 68.864 357.421 66.9932 357.444 65.0357C357.468 63.0781 356.725 61.1888 355.375 59.7715L344.768 49.1627C343.353 47.7965 341.459 47.0406 339.492 47.0577C337.526 47.0747 335.645 47.8635 334.254 49.2541C332.864 50.6446 332.075 52.5257 332.058 54.4922C332.041 56.4587 332.797 58.3532 334.163 59.7677L344.771 70.375Z" fill="black"/>
<path d="M317.5 115H332.5C334.489 115 336.397 114.21 337.803 112.803C339.21 111.397 340 109.489 340 107.5C340 105.511 339.21 103.603 337.803 102.197C336.397 100.79 334.489 100 332.5 100H317.5C315.511 100 313.603 100.79 312.197 102.197C310.79 103.603 310 105.511 310 107.5C310 109.489 310.79 111.397 312.197 112.803C313.603 114.21 315.511 115 317.5 115Z" fill="black"/>
<path d="M344.771 144.625L334.163 155.235C333.446 155.927 332.875 156.754 332.482 157.669C332.089 158.584 331.882 159.568 331.873 160.564C331.865 161.56 332.054 162.548 332.432 163.469C332.809 164.391 333.366 165.228 334.07 165.933C334.774 166.637 335.611 167.194 336.533 167.571C337.455 167.948 338.442 168.138 339.438 168.129C340.434 168.12 341.418 167.914 342.333 167.52C343.248 167.127 344.076 166.556 344.768 165.84L355.375 155.229C356.725 153.811 357.468 151.922 357.444 149.964C357.421 148.007 356.633 146.136 355.248 144.752C353.864 143.368 351.993 142.579 350.036 142.556C348.078 142.532 346.189 143.275 344.771 144.625Z" fill="black"/>
<path d="M385 167.5V182.5C385 184.489 385.79 186.397 387.197 187.803C388.603 189.21 390.511 190 392.5 190C394.489 190 396.397 189.21 397.803 187.803C399.21 186.397 400 184.489 400 182.5V167.5C400 165.511 399.21 163.603 397.803 162.197C396.397 160.79 394.489 160 392.5 160C390.511 160 388.603 160.79 387.197 162.197C385.79 163.603 385 165.511 385 167.5Z" fill="black"/>
<path d="M440.229 144.625C438.811 143.275 436.922 142.532 434.964 142.556C433.007 142.579 431.136 143.368 429.752 144.752C428.368 146.136 427.579 148.007 427.556 149.964C427.532 151.922 428.275 153.811 429.625 155.229L440.235 165.837C441.649 167.204 443.544 167.96 445.51 167.942C447.477 167.925 449.358 167.137 450.748 165.746C452.139 164.356 452.928 162.474 452.945 160.508C452.962 158.541 452.206 156.647 450.84 155.232L440.229 144.625Z" fill="black"/>
<path d="M445 107.5C445 109.489 445.79 111.397 447.197 112.803C448.603 114.21 450.511 115 452.5 115H467.5C469.489 115 471.397 114.21 472.803 112.803C474.21 111.397 475 109.489 475 107.5C475 105.511 474.21 103.603 472.803 102.197C471.397 100.79 469.489 100 467.5 100H452.5C450.511 100 448.603 100.79 447.197 102.197C445.79 103.603 445 105.511 445 107.5Z" fill="black"/>
<path d="M434.925 72.5747C435.91 72.5759 436.886 72.3823 437.796 72.0052C438.706 71.6281 439.533 71.0748 440.228 70.3772L450.837 59.7677C451.553 59.0759 452.125 58.2483 452.518 57.3332C452.911 56.4182 453.118 55.4341 453.127 54.4382C453.135 53.4424 452.945 52.4548 452.568 51.5331C452.191 50.6113 451.634 49.7739 450.93 49.0697C450.226 48.3655 449.389 47.8087 448.467 47.4315C447.545 47.0544 446.557 46.8647 445.562 46.8733C444.566 46.882 443.582 47.0889 442.667 47.4819C441.752 47.875 440.924 48.4464 440.232 49.1627L429.625 59.7715C428.576 60.8203 427.862 62.1566 427.572 63.6114C427.283 65.0662 427.431 66.5741 427.999 67.9445C428.567 69.3149 429.528 70.4862 430.761 71.3104C431.994 72.1346 433.442 72.5745 434.925 72.5747Z" fill="black"/>
</svg>
