<svg width="500" height="500" viewBox="0 0 500 500" fill="none" xmlns="http://www.w3.org/2000/svg">
<g clip-path="url(#clip0_3_1320)">
<path d="M31.1533 444.422V203.823" stroke="black" stroke-width="14.0641" stroke-miterlimit="10" stroke-linecap="round" stroke-linejoin="round"/>
<path d="M468.848 444.422V203.823" stroke="black" stroke-width="14.0641" stroke-miterlimit="10" stroke-linecap="round" stroke-linejoin="round"/>
<path d="M362.954 321.801V299.364C362.954 291.592 369.255 285.3 377.018 285.3H426.543C434.315 285.3 440.607 291.592 440.607 299.364V391.25C440.607 399.013 434.315 405.314 426.543 405.314H384.135" stroke="black" stroke-width="14.0641" stroke-miterlimit="10" stroke-linecap="round" stroke-linejoin="round"/>
<path d="M115.866 405.314H73.4582C65.6854 405.314 59.394 399.013 59.394 391.25V299.364C59.394 291.592 65.6854 285.3 73.4582 285.3H122.983C130.746 285.3 137.047 291.592 137.047 299.364V321.801" stroke="black" stroke-width="14.0641" stroke-miterlimit="10" stroke-linecap="round" stroke-linejoin="round"/>
<path d="M157.766 33.1213C134.004 42.5752 116.179 55.6024 107.54 70.5788C101.502 81.0519 90.4664 87.6245 78.3713 87.6245C65.3291 87.6245 53.534 92.9126 44.983 101.454C36.4414 110.005 31.1533 121.81 31.1533 134.852V165.287" stroke="black" stroke-width="14.0641" stroke-miterlimit="10" stroke-linecap="round" stroke-linejoin="round"/>
<path d="M468.847 165.287V134.852C468.847 108.768 447.704 87.6247 421.63 87.6247C409.534 87.6247 398.499 81.0521 392.461 70.579C374.618 39.6473 317.593 17.0322 250 17.0322C227.111 17.0322 205.435 19.6257 186.081 24.2565" stroke="black" stroke-width="14.0641" stroke-miterlimit="10" stroke-linecap="round" stroke-linejoin="round"/>
<path d="M179.408 401.124V440.606H250" stroke="black" stroke-width="14.0641" stroke-miterlimit="10" stroke-linecap="round" stroke-linejoin="round"/>
<path d="M250 292.36C213.377 292.36 183.271 319.814 179.755 354.946C179.52 357.215 179.408 359.521 179.408 361.847V371.157" stroke="black" stroke-width="14.0641" stroke-miterlimit="10" stroke-linecap="round" stroke-linejoin="round"/>
<path d="M320.593 371.148V361.847C320.593 359.521 320.48 357.215 320.246 354.946C316.73 319.814 286.614 292.36 250 292.36V354.946V383.824V384.133" stroke="black" stroke-width="14.0641" stroke-miterlimit="10" stroke-linecap="round" stroke-linejoin="round"/>
<path d="M320.593 401.124V440.606H250V412.375" stroke="black" stroke-width="14.0641" stroke-miterlimit="10" stroke-linecap="round" stroke-linejoin="round"/>
<path d="M207.406 80.5681V136.998C208.298 137.105 235.645 136.998 235.645 136.998" stroke="black" stroke-width="14.0641" stroke-miterlimit="10" stroke-linecap="round" stroke-linejoin="round"/>
<path d="M263.883 80.5681V119.431C263.883 126.05 266.835 130.505 271.851 134.068C274.295 135.804 277.38 137.039 281.215 137.045C284.536 137.05 287.312 136.195 289.607 134.91C295.453 131.637 299.181 126.667 299.181 119.39V80.5681" stroke="black" stroke-width="14.0641" stroke-miterlimit="10" stroke-linecap="round" stroke-linejoin="round"/>
<path d="M357.727 93.5643C357.727 100.742 351.729 106.56 344.33 106.56C340.662 106.56 327.42 106.617 327.42 106.617C327.42 106.617 327.42 97.1816 327.42 93.5643C327.42 90.5931 327.42 80.5691 327.42 80.5691C327.42 80.5691 339.995 80.5691 344.33 80.5691C351.729 80.5682 357.727 86.387 357.727 93.5643Z" stroke="black" stroke-width="14.0641" stroke-miterlimit="10" stroke-linecap="round" stroke-linejoin="round"/>
<path d="M362.954 121.777C362.954 130.172 355.938 136.979 347.284 136.979C342.991 136.979 327.42 137.047 327.42 137.047C327.42 137.047 327.42 126.01 327.42 121.778C327.42 118.302 327.42 106.575 327.42 106.575C327.42 106.575 342.212 106.575 347.284 106.575C355.938 106.575 362.954 113.381 362.954 121.777Z" stroke="black" stroke-width="14.0641" stroke-miterlimit="10" stroke-linecap="round" stroke-linejoin="round"/>
<path d="M418.896 207.642H454.675C470.301 207.642 482.968 194.975 482.968 179.349C482.968 171.582 476.671 165.285 468.904 165.285H31.0962C23.3291 165.285 17.0321 171.582 17.0321 179.349C17.0321 194.975 29.6992 207.642 45.3254 207.642H391.23" stroke="black" stroke-width="14.0641" stroke-miterlimit="10" stroke-linecap="round" stroke-linejoin="round"/>
<path d="M194.54 235.88V247.132" stroke="black" stroke-width="14.0641" stroke-miterlimit="10" stroke-linecap="round" stroke-linejoin="round"/>
<path d="M311.645 235.88V247.132" stroke="black" stroke-width="14.0641" stroke-miterlimit="10" stroke-linecap="round" stroke-linejoin="round"/>
<path d="M253.263 253.84C253.263 261.325 247.195 267.394 239.709 267.394C232.223 267.394 226.155 261.326 226.155 253.84" stroke="black" stroke-width="14.0641" stroke-miterlimit="10" stroke-linecap="round" stroke-linejoin="round"/>
<path d="M280.371 253.84C280.371 261.325 274.302 267.394 266.818 267.394C259.332 267.394 253.263 261.326 253.263 253.84" stroke="black" stroke-width="14.0641" stroke-miterlimit="10" stroke-linecap="round" stroke-linejoin="round"/>
<path d="M144.107 386.066C155.34 392.047 167.144 397.092 179.408 401.124C201.611 408.427 225.341 412.375 250 412.375C274.65 412.375 298.372 408.427 320.574 401.124H320.584H320.593C332.857 397.092 344.661 392.029 355.894 386.056" stroke="black" stroke-width="14.0641" stroke-miterlimit="10" stroke-linecap="round" stroke-linejoin="round"/>
<path d="M146.563 354.946C176.651 373.454 212.074 384.134 250 384.134C287.917 384.134 323.34 373.454 353.428 354.946" stroke="black" stroke-width="14.0641" stroke-miterlimit="10" stroke-linecap="round" stroke-linejoin="round"/>
<path d="M384.135 440.606V382.24" stroke="black" stroke-width="14.0641" stroke-miterlimit="10" stroke-linecap="round" stroke-linejoin="round"/>
<path d="M355.894 440.606V382.24" stroke="black" stroke-width="14.0641" stroke-miterlimit="10" stroke-linecap="round" stroke-linejoin="round"/>
<path d="M383.994 357.693C388.41 353.812 391.195 348.12 391.195 341.773C391.195 330.081 381.716 320.592 370.014 320.592C358.313 320.592 348.834 330.081 348.834 341.773C348.834 346.752 350.55 351.327 353.419 354.946H353.428C354.216 355.94 355.088 356.859 356.035 357.693" stroke="black" stroke-width="14.0641" stroke-miterlimit="10" stroke-linecap="round" stroke-linejoin="round"/>
<path d="M377.073 384.133H362.954C355.156 384.133 348.834 377.812 348.834 370.013C348.834 362.215 355.156 355.894 362.954 355.894H377.073C384.871 355.894 391.193 362.215 391.193 370.013C391.193 377.812 384.871 384.133 377.073 384.133Z" stroke="black" stroke-width="14.0641" stroke-miterlimit="10" stroke-linecap="round" stroke-linejoin="round"/>
<path d="M144.107 440.606V382.24" stroke="black" stroke-width="14.0641" stroke-miterlimit="10" stroke-linecap="round" stroke-linejoin="round"/>
<path d="M115.866 440.606V382.24" stroke="black" stroke-width="14.0641" stroke-miterlimit="10" stroke-linecap="round" stroke-linejoin="round"/>
<path d="M143.966 357.693C148.383 353.812 151.167 348.12 151.167 341.773C151.167 330.081 141.688 320.592 129.987 320.592C118.285 320.592 108.806 330.081 108.806 341.773C108.806 348.12 111.591 353.812 116.007 357.693" stroke="black" stroke-width="14.0641" stroke-miterlimit="10" stroke-linecap="round" stroke-linejoin="round"/>
<path d="M122.926 384.133H137.046C144.844 384.133 151.165 377.812 151.165 370.013C151.165 362.215 144.844 355.894 137.046 355.894H122.926C115.128 355.894 108.807 362.215 108.807 370.013C108.807 377.812 115.128 384.133 122.926 384.133Z" stroke="black" stroke-width="14.0641" stroke-miterlimit="10" stroke-linecap="round" stroke-linejoin="round"/>
<path d="M334.224 482.968H31.0962C23.3291 482.968 17.0321 476.671 17.0321 468.904C17.0321 453.277 29.6992 440.61 45.3254 440.61H454.674C470.3 440.61 482.967 453.277 482.967 468.904C482.967 476.671 476.67 482.968 468.903 482.968H362.991" stroke="black" stroke-width="14.0641" stroke-miterlimit="10" stroke-linecap="round" stroke-linejoin="round"/>
<path d="M177.255 85.3912C172.416 82.3468 166.583 80.5681 160.304 80.5681C143.56 80.5681 129.987 93.2108 129.987 108.807C129.987 124.403 143.56 137.046 160.304 137.046C167.105 137.046 172.698 134.961 176.943 131.439C177.821 130.71 178.642 129.92 179.403 129.074" stroke="black" stroke-width="14.0641" stroke-miterlimit="10" stroke-linecap="round" stroke-linejoin="round"/>
</g>
<defs>
<clipPath id="clip0_3_1320">
<rect width="480" height="480" fill="white" transform="translate(10 10)"/>
</clipPath>
</defs>
</svg>
