<svg width="500" height="500" viewBox="0 0 500 500" fill="none" xmlns="http://www.w3.org/2000/svg">
<g clip-path="url(#clip0_1_2)">
<rect width="500" height="500" fill="white"/>
<g clip-path="url(#clip1_1_2)">
<path d="M54.6875 427H34.2813L62.0937 360.225C62.5223 359.22 62.6165 358.143 62.3672 357.1L46.7422 288.35L31.3828 290.587L46.6484 357.794L16.0312 431.275C15.6403 432.214 15.5337 433.214 15.7203 434.192C15.9068 435.171 16.3812 436.1 17.1044 436.903C17.8276 437.706 18.7788 438.36 19.8799 438.812C20.9809 439.263 22.2003 439.499 23.4375 439.5H54.6875V427Z" fill="black"/>
<path d="M71.7812 436.906C72.5059 437.71 73.459 438.364 74.562 438.815C75.665 439.266 76.8863 439.501 78.125 439.5H109.375V427H88.9687L116.781 360.225C117.21 359.22 117.304 358.143 117.055 357.1L101.43 288.35L86.0703 290.587L101.336 357.762L70.7188 431.275C70.3256 432.214 70.2169 433.214 70.4017 434.193C70.5864 435.172 71.0592 436.102 71.7812 436.906Z" fill="black"/>
<path d="M180.078 154.275L191.633 145.031C197.378 148.309 203.979 150.499 210.938 151.437V164.5H226.562V151.437C233.521 150.499 240.122 148.309 245.867 145.031L257.422 154.275L268.469 145.437L256.914 136.194C261.011 131.597 263.749 126.317 264.922 120.75H281.25V108.25H264.922C263.749 102.683 261.011 97.4026 256.914 92.8062L268.469 83.5625L257.422 74.725L245.867 83.9687C240.122 80.6914 233.521 78.5009 226.562 77.5625V64.5H210.938V77.5625C203.979 78.5009 197.378 80.6914 191.633 83.9687L180.078 74.725L169.031 83.5625L180.586 92.8062C176.489 97.4026 173.751 102.683 172.578 108.25H156.25V120.75H172.578C173.717 126.172 176.339 131.326 180.258 135.844L139.062 167.331L100.258 186.281C99.5892 185.372 98.6393 184.615 97.4996 184.084C96.3599 183.554 95.0687 183.266 93.75 183.25H78.125C86.413 183.25 94.3616 180.616 100.222 175.928C106.083 171.239 109.375 164.88 109.375 158.25V139.5C109.375 132.87 106.083 126.511 100.222 121.822C94.3616 117.134 86.413 114.5 78.125 114.5H70.3125C62.0245 114.5 54.0759 117.134 48.2154 121.822C42.3549 126.511 39.0625 132.87 39.0625 139.5V158.25C39.0625 164.88 42.3549 171.239 48.2154 175.928C54.0759 180.616 62.0245 183.25 70.3125 183.25H62.5C54.212 183.25 46.2634 185.884 40.4029 190.572C34.5424 195.261 31.25 201.62 31.25 208.25V277C31.25 278.658 32.0731 280.247 33.5382 281.419C35.0034 282.592 36.9905 283.25 39.0625 283.25H93.75C95.822 283.25 97.8091 282.592 99.2743 281.419C100.739 280.247 101.562 278.658 101.562 277V200.312L147.953 177.625C148.43 177.389 148.875 177.115 149.281 176.806L179.438 153.737L180.078 154.275ZM54.6875 158.25V139.5C54.6875 136.185 56.3337 133.005 59.264 130.661C62.1942 128.317 66.1685 127 70.3125 127H78.125C82.269 127 86.2433 128.317 89.1735 130.661C92.1038 133.005 93.75 136.185 93.75 139.5V158.25C93.75 161.565 92.1038 164.745 89.1735 167.089C86.2433 169.433 82.269 170.75 78.125 170.75H70.3125C66.1685 170.75 62.1942 169.433 59.264 167.089C56.3337 164.745 54.6875 161.565 54.6875 158.25ZM85.9375 270.75H46.875V208.25C46.875 204.935 48.5212 201.755 51.4515 199.411C54.3817 197.067 58.356 195.75 62.5 195.75H80.9062L66.2422 202.912L74.3828 213.588L85.9375 207.963V270.75ZM187.5 114.5C187.5 109.555 189.333 104.722 192.767 100.611C196.2 96.4995 201.081 93.2952 206.791 91.403C212.501 89.5108 218.785 89.0157 224.847 89.9804C230.908 90.945 236.477 93.326 240.847 96.8223C245.217 100.319 248.194 104.773 249.4 109.623C250.605 114.472 249.986 119.499 247.621 124.067C245.256 128.635 241.251 132.54 236.112 135.287C230.973 138.034 224.931 139.5 218.75 139.5C213.125 139.479 207.615 138.23 202.812 135.887L208.031 131.894L230.898 119.7L222.227 109.3L198.789 121.8C198.411 122.002 198.056 122.23 197.727 122.481L191.836 127C189.024 123.217 187.527 118.901 187.5 114.5Z" fill="black"/>
<path d="M482.906 436.906C483.627 436.103 484.099 435.174 484.284 434.196C484.469 433.218 484.361 432.219 483.969 431.281L453.375 357.85L468.594 297L453.281 294.5L437.656 357C437.383 358.065 437.469 359.17 437.906 360.2L465.719 427H445.313V439.5H476.563C477.801 439.501 479.022 439.266 480.125 438.815C481.228 438.364 482.182 437.71 482.906 436.906Z" fill="black"/>
<path d="M428.219 436.906C428.94 436.103 429.412 435.174 429.596 434.196C429.781 433.218 429.673 432.219 429.281 431.281L398.688 357.85L413.906 297L398.594 294.5L382.969 357C382.695 358.065 382.781 359.17 383.219 360.2L411.031 427H390.625V439.5H421.875C423.114 439.501 424.335 439.266 425.438 438.815C426.541 438.364 427.494 437.71 428.219 436.906Z" fill="black"/>
<path d="M372.375 269.169L398.438 250.637V283.25C398.438 284.908 399.261 286.497 400.726 287.669C402.191 288.842 404.178 289.5 406.25 289.5H460.938C463.01 289.5 464.997 288.842 466.462 287.669C467.927 286.497 468.75 284.908 468.75 283.25V214.5C468.75 207.87 465.458 201.511 459.597 196.822C453.737 192.134 445.788 189.5 437.5 189.5H429.688C437.976 189.5 445.924 186.866 451.785 182.178C457.645 177.489 460.938 171.13 460.938 164.5V145.75C460.938 139.12 457.645 132.761 451.785 128.072C445.924 123.384 437.976 120.75 429.688 120.75H421.875C413.587 120.75 405.638 123.384 399.778 128.072C393.917 132.761 390.625 139.12 390.625 145.75V164.5C390.625 171.13 393.917 177.489 399.778 182.178C405.638 186.866 413.587 189.5 421.875 189.5H406.25C404.178 189.5 402.191 190.158 400.726 191.331C399.261 192.503 398.438 194.092 398.438 195.75V233.919L366.133 256.881L300.664 227.787C299.506 227.27 298.201 226.998 296.875 227H289.062V226.437C296.021 225.499 302.622 223.309 308.367 220.031L319.922 229.275L330.969 220.438L319.414 211.194C323.511 206.597 326.249 201.317 327.422 195.75H343.75V183.25H327.422C326.249 177.683 323.511 172.403 319.414 167.806L330.969 158.562L319.922 149.725L308.367 158.969C302.622 155.691 296.021 153.501 289.062 152.563V139.5H273.438V152.563C266.479 153.501 259.878 155.691 254.133 158.969L242.578 149.725L231.531 158.562L243.086 167.806C238.989 172.403 236.251 177.683 235.078 183.25H218.75V195.75H235.078C236.251 201.317 238.989 206.597 243.086 211.194L231.531 220.438L242.578 229.275L254.133 220.031C259.878 223.309 266.479 225.499 273.438 226.437V239.5H294.852L363.398 269.963C364.813 270.59 366.437 270.851 368.045 270.708C369.653 270.566 371.166 270.028 372.375 269.169ZM421.875 133.25H429.688C433.832 133.25 437.806 134.567 440.736 136.911C443.666 139.255 445.312 142.435 445.312 145.75H424.219L409.687 138C411.139 136.524 412.99 135.33 415.1 134.507C417.211 133.684 419.527 133.255 421.875 133.25ZM406.25 164.5V151.175L417.539 157.2C418.824 157.883 420.332 158.248 421.875 158.25H445.312V164.5C445.312 167.815 443.666 170.995 440.736 173.339C437.806 175.683 433.832 177 429.688 177H421.875C417.731 177 413.757 175.683 410.826 173.339C407.896 170.995 406.25 167.815 406.25 164.5ZM414.062 202H437.5C441.644 202 445.618 203.317 448.549 205.661C451.479 208.005 453.125 211.185 453.125 214.5V277H414.062V239.5L442.688 219.144L432.312 209.806L414.062 222.806V202ZM250 189.5C250 184.555 251.833 179.722 255.267 175.611C258.7 171.5 263.581 168.295 269.291 166.403C275.001 164.511 281.285 164.016 287.347 164.98C293.408 165.945 298.977 168.326 303.347 171.822C307.717 175.319 310.694 179.773 311.9 184.623C313.105 189.472 312.486 194.499 310.121 199.067C307.756 203.635 303.751 207.54 298.612 210.287C293.473 213.034 287.431 214.5 281.25 214.5C272.962 214.5 265.013 211.866 259.153 207.178C253.292 202.489 250 196.13 250 189.5Z" fill="black"/>
<path d="M353.289 213.688L367.687 218.537C372.534 209.348 375.021 199.473 375 189.5H359.375C359.392 197.807 357.323 206.033 353.289 213.688Z" fill="black"/>
<path d="M305.336 130.037C323.283 134.715 338.516 144.418 348.234 157.362L361.617 150.919C349.955 135.395 331.682 123.759 310.156 118.15L305.336 130.037Z" fill="black"/>
<path d="M207.328 235.581L219.641 227.894C208.894 216.946 203.075 203.42 203.125 189.5H187.5C187.437 206.208 194.424 222.444 207.328 235.581Z" fill="black"/>
<path d="M281.25 252C274.712 252.006 268.2 251.35 261.867 250.05L257.961 262.163C265.571 263.718 273.395 264.503 281.25 264.5V252Z" fill="black"/>
</g>
</g>
<defs>
<clipPath id="clip0_1_2">
<rect width="500" height="500" fill="white"/>
</clipPath>
<clipPath id="clip1_1_2">
<rect width="500" height="500" fill="white" transform="translate(0 52)"/>
</clipPath>
</defs>
</svg>
