<svg width="500" height="500" viewBox="0 0 500 500" fill="none" xmlns="http://www.w3.org/2000/svg">
<g clip-path="url(#clip0_3_1319)">
<path d="M438.759 102.156C447.627 96.0295 454.31 87.2344 457.836 77.0493C461.362 66.8641 461.548 55.8198 458.367 45.5215C455.186 35.2233 448.804 26.208 440.147 19.7861C431.491 13.3641 421.012 9.87023 410.234 9.81226C399.456 9.75428 388.94 13.1353 380.215 19.4637C371.49 25.7922 365.011 34.7383 361.72 45.0017C358.428 55.2651 358.495 66.3108 361.912 76.5333C365.328 86.7558 371.916 95.6223 380.718 101.844C378.946 102.54 377.249 103.438 375.524 104.261C364.942 95.3454 351.566 90.4288 337.729 90.3689C324.81 90.3427 312.233 94.5209 301.897 102.272C291.561 110.024 284.028 120.928 280.436 133.338C276.843 145.748 277.385 158.99 281.981 171.064C286.577 183.138 294.977 193.389 305.913 200.269C301.936 201.712 298.061 203.421 294.314 205.383C282.179 194.369 266.377 188.269 249.989 188.271C233.601 188.274 217.802 194.379 205.67 205.397C201.917 203.435 198.036 201.728 194.053 200.288C200.977 195.977 206.939 190.287 211.57 183.572C216.2 176.857 219.398 169.261 220.966 161.257C222.534 153.253 222.438 145.011 220.683 137.046C218.929 129.08 215.554 121.561 210.768 114.956C205.982 108.352 199.888 102.802 192.865 98.6543C185.842 94.5062 178.041 91.848 169.946 90.8449C161.852 89.8419 153.637 90.5157 145.814 92.8242C137.992 95.1327 130.727 99.0267 124.474 104.264C122.75 103.439 121.053 102.542 119.282 101.845C128.063 95.6258 134.632 86.7693 138.036 76.5617C141.44 66.3541 141.502 55.327 138.211 45.0823C134.92 34.8376 128.449 25.9087 119.738 19.5927C111.026 13.2767 100.528 9.90248 89.7677 9.96018C79.0076 10.0179 68.5461 13.5045 59.9028 19.9136C51.2595 26.3227 44.8845 35.3204 41.7039 45.5998C38.5233 55.8793 38.7027 66.905 42.2161 77.0755C45.7294 87.246 52.3937 96.0316 61.2409 102.156C31.3619 114.295 10 144.645 10 179.453V218.469C10.0045 222.195 11.4867 225.768 14.1215 228.402C16.7564 231.037 20.3288 232.519 24.055 232.524H87.6062C74.2761 250.119 67.0552 271.585 67.0413 293.659V340.82C67.0465 344.91 68.6736 348.831 71.5658 351.722C74.458 354.614 78.379 356.24 82.4688 356.245H160C148.472 373.761 142.3 394.258 142.239 415.227V473.44C142.243 477.828 143.987 482.035 147.087 485.139C150.188 488.243 154.394 489.991 158.781 490H341.219C345.608 489.994 349.816 488.247 352.919 485.143C356.022 482.038 357.767 477.829 357.771 473.44V419.541C357.745 397.022 351.091 375.008 338.639 356.245H417.531C421.621 356.24 425.541 354.613 428.432 351.721C431.324 348.83 432.951 344.909 432.956 340.82V293.659C432.942 271.585 425.721 250.119 412.391 232.524H475.942C479.669 232.52 483.242 231.038 485.877 228.403C488.513 225.768 489.996 222.196 490 218.469V179.453C490 144.645 468.638 114.295 438.759 102.156ZM374.299 60.6324C374.301 53.5867 376.391 46.6997 380.307 40.8422C384.222 34.9847 389.787 30.4197 396.296 27.7245C402.806 25.0293 409.969 24.3249 416.879 25.7003C423.789 27.0758 430.136 30.4693 435.118 35.4518C440.099 40.4344 443.491 46.7822 444.865 53.6925C446.239 60.6029 445.533 67.7655 442.837 74.2747C440.14 80.7839 435.574 86.3473 429.716 90.2615C423.857 94.1757 416.97 96.2649 409.924 96.2649C400.478 96.2537 391.422 92.4957 384.743 85.8156C378.065 79.1354 374.309 70.0786 374.299 60.6324ZM293.088 150.01C293.089 141.182 295.708 132.552 300.613 125.212C305.518 117.872 312.489 112.152 320.645 108.774C328.802 105.396 337.776 104.512 346.435 106.234C355.093 107.957 363.046 112.208 369.289 118.45C375.531 124.693 379.782 132.646 381.505 141.304C383.227 149.963 382.344 158.938 378.966 167.094C375.588 175.25 369.867 182.221 362.527 187.127C355.187 192.032 346.557 194.65 337.729 194.651C325.894 194.638 314.547 189.931 306.177 181.562C297.808 173.193 293.101 161.845 293.088 150.01ZM250 203.271C260.303 203.27 270.375 206.325 278.943 212.048C287.51 217.771 294.188 225.907 298.132 235.426C302.075 244.944 303.108 255.419 301.099 265.524C299.089 275.629 294.129 284.912 286.844 292.198C279.559 299.484 270.277 304.447 260.172 306.457C250.067 308.468 239.592 307.437 230.073 303.495C220.554 299.553 212.417 292.877 206.692 284.31C200.967 275.744 197.911 265.672 197.911 255.369C197.925 241.557 203.417 228.316 213.182 218.549C222.947 208.782 236.189 203.287 250 203.271ZM162.271 105.369C171.1 105.368 179.732 107.985 187.074 112.889C194.416 117.794 200.138 124.765 203.518 132.922C206.898 141.079 207.783 150.055 206.061 158.715C204.339 167.375 200.088 175.33 193.845 181.573C187.603 187.817 179.648 192.07 170.989 193.793C162.329 195.516 153.353 194.632 145.195 191.253C137.038 187.875 130.066 182.153 125.16 174.812C120.255 167.47 117.636 158.839 117.636 150.01C117.649 138.175 122.355 126.829 130.723 118.46C139.091 110.091 150.436 105.383 162.271 105.369ZM54.4431 60.6324C54.4446 53.5871 56.535 46.7004 60.4501 40.843C64.3652 34.9857 69.9292 30.4207 76.4385 27.7252C82.9478 25.0298 90.1102 24.3249 97.0201 25.6998C103.93 27.0746 110.277 30.4674 115.259 35.4492C120.241 40.431 123.633 46.7781 125.008 53.6879C126.383 60.5978 125.678 67.7602 122.983 74.2695C120.287 80.7788 115.722 86.3428 109.865 90.2579C104.008 94.1729 97.1209 96.2634 90.0756 96.2649C80.6283 96.2552 71.5706 92.498 64.8903 85.8177C58.21 79.1374 54.4528 70.0797 54.4431 60.6324ZM56.3181 218.096V177.167C56.3181 175.178 55.5279 173.271 54.1214 171.864C52.7149 170.458 50.8072 169.667 48.8181 169.667C46.829 169.667 44.9213 170.458 43.5148 171.864C42.1083 173.271 41.3181 175.178 41.3181 177.167V218.275L25 218.469V179.453C25 144.531 50.7597 114.706 83.6453 111.565C93.8284 110.595 104.097 112.018 113.633 115.719C108.939 122.301 105.643 129.776 103.949 137.682C102.255 145.587 102.2 153.756 103.786 161.684C105.371 169.612 108.565 177.131 113.17 183.777C117.774 190.423 123.691 196.054 130.557 200.325C119.946 204.269 110.139 210.107 101.615 217.557L56.3181 218.096ZM119.9 340.994V290.891C119.9 288.902 119.11 286.994 117.704 285.587C116.297 284.181 114.389 283.391 112.4 283.391C110.411 283.391 108.504 284.181 107.097 285.587C105.69 286.994 104.9 288.902 104.9 290.891V340.924L82.0413 340.82V293.659C82.0413 250.637 113.807 213.899 154.36 210.024C168.335 208.721 182.407 211.098 195.179 216.917C189.83 224.452 186.111 233.019 184.259 242.072C182.407 251.124 182.463 260.463 184.423 269.493C186.382 278.523 190.203 287.045 195.641 294.516C201.078 301.986 208.014 308.241 216.004 312.881C201.74 317.632 188.632 325.326 177.531 335.466C175.521 337.293 173.681 339.269 171.826 341.23L119.9 340.994ZM342.768 419.541V473.44C342.768 473.852 342.605 474.247 342.315 474.539C342.025 474.832 341.631 474.997 341.219 475H314.5V416.385C314.5 414.395 313.71 412.488 312.303 411.081C310.897 409.675 308.989 408.885 307 408.885C305.011 408.885 303.103 409.675 301.697 411.081C300.29 412.488 299.5 414.395 299.5 416.385V475H200.5V416.385C200.5 414.395 199.71 412.488 198.303 411.081C196.897 409.675 194.989 408.885 193 408.885C191.011 408.885 189.103 409.675 187.697 411.081C186.29 412.488 185.5 414.395 185.5 416.385V475H158.781C158.369 474.998 157.974 474.833 157.683 474.54C157.392 474.248 157.229 473.852 157.229 473.44V415.227C157.242 402.298 159.952 389.513 165.184 377.69C170.417 365.867 178.058 355.266 187.62 346.562C204.617 330.988 226.853 322.38 249.906 322.451H249.949C249.968 322.451 249.983 322.456 250.002 322.456H250.022C253.047 322.46 256.089 322.605 259.15 322.89C306.037 327.373 342.768 369.824 342.768 419.541ZM417.956 293.659L417.531 341.245H395.097V290.891C395.097 288.902 394.307 286.994 392.9 285.587C391.494 284.181 389.586 283.391 387.597 283.391C385.608 283.391 383.7 284.181 382.294 285.587C380.887 286.994 380.097 288.902 380.097 290.891V341.245H326.801C314.932 328.472 300.116 318.799 283.647 313.071C291.694 308.465 298.688 302.226 304.179 294.756C309.671 287.285 313.539 278.748 315.534 269.694C317.53 260.639 317.609 251.267 315.766 242.18C313.923 233.093 310.2 224.492 304.834 216.93C317.603 211.11 331.671 208.73 345.644 210.024C386.193 213.899 417.959 250.637 417.959 293.659H417.956ZM458.679 217.524V177.167C458.679 175.178 457.889 173.271 456.482 171.864C455.076 170.458 453.168 169.667 451.179 169.667C449.19 169.667 447.282 170.458 445.876 171.864C444.469 173.271 443.679 175.178 443.679 177.167V217.524H398.349C389.832 210.091 380.039 204.264 369.443 200.325C376.307 196.054 382.224 190.423 386.828 183.778C391.432 177.133 394.626 169.615 396.212 161.689C397.799 153.762 397.744 145.594 396.052 137.689C394.36 129.784 391.066 122.309 386.373 115.726C395.912 112.043 406.174 110.618 416.355 111.565C449.24 114.706 475 144.531 475 179.453L475.945 217.524H458.679Z" fill="black"/>
</g>
<defs>
<clipPath id="clip0_3_1319">
<rect width="480" height="480" fill="white" transform="translate(10 10)"/>
</clipPath>
</defs>
</svg>
