<svg width="500" height="500" viewBox="0 0 500 500" fill="none" xmlns="http://www.w3.org/2000/svg">
<g clip-path="url(#clip0_1_2)">
<rect width="500" height="500" fill="white"/>
<path d="M185.123 131.422C185.069 131.495 185.016 131.567 184.963 131.639C184.963 131.668 184.927 131.683 184.91 131.712C185.052 131.509 185.105 131.422 185.105 131.408L185.123 131.422Z" fill="black"/>
<path d="M225.159 152.907C225.266 152.792 225.39 152.69 225.479 152.676C225.301 152.719 225.159 152.878 225.159 152.922V152.907Z" fill="black"/>
<path d="M218.432 157.307C218.432 157.307 218.556 157.264 218.627 157.235C218.645 157.235 218.663 157.221 218.68 157.206C218.059 157.365 218.201 157.38 218.432 157.307Z" fill="black"/>
<path d="M192.932 156.048C192.932 156.048 192.95 156.048 192.967 156.063C193.021 156.092 193.092 156.12 193.145 156.149C193.216 156.193 193.216 156.164 192.932 156.034V156.048Z" fill="black"/>
<path d="M227.945 149.537C227.839 149.725 227.537 150.058 227.945 149.537Z" fill="black"/>
<path d="M199.945 158.752C200.016 158.752 200.123 158.752 200.212 158.781C200.159 158.752 200.07 158.737 199.945 158.752Z" fill="black"/>
<path d="M219.959 126.404C219.959 126.404 219.924 126.389 219.906 126.375C220.403 126.693 220.137 126.491 219.959 126.404Z" fill="black"/>
<path d="M229.491 146.356V146.312C229.491 146.254 229.526 146.182 229.544 146.095C229.544 146.037 229.491 146.081 229.491 146.341V146.356Z" fill="black"/>
<path d="M212.145 123.452H212.092C212.696 123.611 212.323 123.495 212.145 123.452Z" fill="black"/>
<path d="M175.659 142.159C175.393 142.203 175.304 142.261 175.322 142.275C175.428 142.232 175.535 142.203 175.641 142.174H175.659V142.159Z" fill="black"/>
<path d="M72.5864 284.274C72.8349 285.735 74.7525 286.256 76.2973 285.735C77.9309 285.171 79.5111 283.71 79.2448 282.162C78.1617 275.753 77.7533 269.286 77.771 262.833V261.632V261.299V260.865C77.7888 260.026 77.8243 259.187 77.8421 258.348C77.8953 256.713 78.0019 255.078 78.0906 253.429C78.286 250.232 78.5523 247.034 78.8719 243.837C80.1503 230.86 82.0679 217.926 82.5651 204.904C82.6361 203.11 82.6716 201.33 82.7071 199.522C82.7071 198.755 82.7249 197.988 82.7426 197.207V195.992V195.384V194.892C82.7959 191.681 82.9557 188.483 83.3818 185.301C83.4883 184.577 83.5949 183.839 83.7369 183.13C83.7902 182.798 83.879 182.45 83.9677 182.118C84.0032 181.987 84.0388 181.843 84.0743 181.727C84.1098 181.64 84.1275 181.553 84.1453 181.467C84.3761 180.873 84.6069 180.295 84.9266 179.731C84.9798 179.615 85.3882 179.181 85.0331 179.528C84.6602 179.904 85.1219 179.412 85.1929 179.34C85.2994 179.195 85.4237 179.051 85.5303 178.92C85.5658 178.877 85.5835 178.862 85.619 178.819C85.7966 178.747 86.2227 178.284 86.3293 178.197C86.418 178.125 86.5246 178.052 86.6311 177.98C86.8974 177.908 87.3236 177.531 87.5544 177.416C87.9628 177.184 88.3712 176.967 88.7973 176.75C90.3598 175.955 91.9756 175.231 93.5737 174.479C107.494 167.896 121.344 161.168 135.459 154.875C137.181 154.108 138.921 153.342 140.661 152.604C140.892 152.502 141.123 152.401 141.354 152.314C141.727 152.155 142.117 151.996 142.49 151.851C143.378 151.475 144.301 151.128 145.225 150.781C146.876 150.159 148.58 149.594 150.303 149.131C150.729 149.016 151.173 148.914 151.599 148.799C151.759 148.755 151.954 148.697 152.096 148.669H152.167C153.073 148.48 154.014 148.336 154.937 148.22C155.825 148.104 156.73 148.046 157.636 148.017H157.707H158.524C159.003 148.017 159.5 148.061 159.997 148.075C162.004 148.191 163.992 148.423 165.999 148.524C169.639 148.726 173.403 148.495 176.706 147.135C176.759 147.106 176.812 147.077 176.865 147.048C177.824 150.217 179.511 153.24 181.873 155.844C180.719 156.93 179.92 158.318 179.582 159.62C178.907 162.239 180.452 164.554 181.624 166.897C181.784 167.187 181.89 167.476 182.032 167.765C182.032 167.794 182.068 167.852 182.086 167.896C182.121 167.983 182.139 168.084 182.157 168.171C182.317 168.807 182.37 169.473 182.388 170.109V170.239C182.388 170.384 182.37 170.543 182.352 170.702C182.317 171.05 182.281 171.397 182.228 171.744C182.139 172.453 182.032 173.176 181.926 173.885C181.518 176.779 181.109 179.658 180.701 182.551C180.292 185.401 179.902 188.237 179.493 191.102C179.103 193.923 178.623 196.744 178.819 199.58C179.014 202.314 180.15 204.889 181.979 207.19C183.79 209.432 185.85 211.559 188.034 213.57C190.129 215.48 192.348 217.303 194.71 218.995C197.054 220.673 199.611 222.149 201.99 223.77C203.126 224.565 204.21 225.405 205.133 226.374C205.186 226.432 205.239 226.504 205.293 226.562C205.328 226.605 205.364 226.649 205.381 226.678C205.559 226.938 205.754 227.184 205.932 227.444C206.092 227.676 206.216 227.907 206.34 228.153C206.411 228.298 206.5 228.457 206.553 228.616C206.553 228.645 206.607 228.761 206.642 228.848C206.678 228.964 206.713 229.123 206.713 229.123C206.749 229.253 206.766 229.383 206.802 229.499C206.855 229.759 206.873 230.005 206.891 230.266V230.295C206.891 230.396 206.873 230.512 206.873 230.555C206.855 230.685 206.837 230.801 206.82 230.931C206.82 230.975 206.802 230.989 206.784 231.032C206.731 231.09 206.678 231.22 206.624 231.336C206.713 231.235 206.784 231.249 206.624 231.466C206.589 231.51 206.571 231.553 206.536 231.597C206.536 231.626 206.518 231.655 206.5 231.669C206.5 231.64 206.5 231.626 206.518 231.611C206.482 231.655 206.465 231.698 206.411 231.741C206.394 231.77 206.358 231.785 206.358 231.799C206.305 231.843 206.234 231.915 206.163 231.958C206.198 231.944 206.216 231.929 206.251 231.915C206.198 231.944 206.145 231.973 206.092 232.002C206.003 232.06 205.896 232.132 205.825 232.146C205.772 232.175 205.754 232.19 205.701 232.204C205.648 232.233 205.595 232.248 205.541 232.277C205.364 232.334 205.168 232.421 204.973 232.479C204.813 232.523 204.671 232.566 204.511 232.595C204.511 232.609 204.423 232.638 204.298 232.653H204.245C204.174 232.682 204.085 232.696 204.032 232.711C204.103 232.682 204.121 232.667 204.192 232.667C204.068 232.696 203.943 232.711 203.837 232.725C203.535 232.769 203.251 232.797 202.949 232.826H202.736H202.771H202.718H202.558C202.239 232.855 202.434 232.783 202.612 232.783C202.345 232.754 201.901 232.783 201.759 232.783C201.227 232.74 200.694 232.653 200.179 232.566C200.126 232.566 200.09 232.552 200.037 232.537C199.93 232.494 199.842 232.465 199.753 232.436C199.398 232.335 199.06 232.219 198.723 232.103C198.048 231.857 197.391 231.568 196.752 231.264C196.486 231.134 196.237 230.989 195.989 230.873C195.971 230.873 195.935 230.844 195.935 230.844C195.74 230.714 195.527 230.598 195.332 230.468C192.899 228.949 190.786 227.112 188.62 225.361C186.152 223.35 183.666 221.339 181.198 219.328C178.73 217.317 176.244 215.306 173.776 213.295C172.604 212.34 171.397 211.414 170.314 210.416C170.083 210.214 169.87 210.011 169.657 209.794C169.586 209.722 169.515 209.649 169.444 209.563C169.408 209.534 169.391 209.505 169.391 209.476C169.213 209.215 169.018 208.955 168.858 208.68C168.787 208.55 168.716 208.42 168.663 208.304C168.645 208.261 168.521 207.971 168.485 207.87C168.467 207.798 168.432 207.725 168.432 207.682C168.396 207.552 168.361 207.392 168.343 207.262C168.29 206.944 168.219 206.626 168.183 206.293C168.112 205.642 168.077 204.991 168.023 204.325C167.935 202.893 167.864 201.446 167.757 200.014C167.597 197.135 167.42 194.27 167.26 191.391C167.189 189.959 167.1 188.512 167.011 187.08C166.923 185.59 164.739 185.127 163.3 185.619C161.525 186.241 160.264 187.601 160.353 189.192C160.69 195.051 161.028 200.925 161.365 206.785C161.454 208.188 161.631 209.533 162.111 210.908C162.572 212.239 163.513 213.396 164.614 214.453C165.662 215.451 166.852 216.362 167.988 217.288C169.266 218.33 170.527 219.357 171.805 220.384C176.706 224.377 181.571 228.428 186.56 232.378C190.911 235.792 196.219 238.845 202.576 238.122C205.577 237.774 208.648 236.617 210.637 234.707C212.963 232.494 214.099 229.615 213.282 226.721C212.519 224.016 210.655 221.788 208.169 219.936C205.878 218.229 203.304 216.811 200.942 215.176C198.51 213.483 196.219 211.689 194.071 209.751C192.988 208.782 191.94 207.769 190.928 206.756C190.449 206.279 189.987 205.787 189.525 205.28C189.277 205.02 189.046 204.745 188.815 204.485C188.762 204.412 188.673 204.34 188.62 204.268C188.62 204.268 188.407 204.007 188.354 203.935C187.484 202.879 186.738 201.765 186.187 200.579C186.116 200.405 186.028 200.231 185.974 200.058C185.974 200.029 185.957 200 185.939 199.956C185.868 199.682 185.779 199.407 185.726 199.146C185.566 198.437 185.477 197.743 185.459 197.034C185.442 196.745 185.442 196.426 185.442 196.137V196.123V196.021C185.442 195.877 185.459 195.732 185.477 195.558C185.53 194.878 185.602 194.198 185.673 193.518C185.85 192.101 186.063 190.683 186.258 189.265C187.075 183.492 187.892 177.72 188.709 171.947C188.922 170.414 189.117 168.88 189.028 167.347C188.94 165.914 188.407 164.525 187.732 163.194C187.466 162.688 187.164 162.182 186.915 161.675C186.756 161.386 186.631 161.111 186.489 160.807L186.276 160.33C186.276 160.301 186.276 160.301 186.258 160.286V160.243C186.223 159.997 186.134 159.765 186.116 159.52V159.433V159.491V159.52C186.116 159.534 186.152 159.519 186.152 159.462C186.312 159.577 186.454 159.679 186.614 159.794C196.894 166.565 212.075 166.391 222.942 160.59C229.032 157.349 233.844 152.213 235.797 146.484C237.785 140.61 236.827 134.245 233.009 128.978C227.647 121.556 217.526 117.187 207.033 117.216C201.884 117.216 196.752 118.07 192.136 119.994C187.164 122.077 182.867 125.159 180.009 129.108C179.263 130.15 178.606 131.221 178.02 132.335C176.511 135.373 175.872 138.671 176.014 141.941C175.889 142.014 175.747 142.071 175.623 142.158C175.676 142.158 175.676 142.144 175.73 142.129C175.676 142.129 175.641 142.158 175.587 142.173C175.587 142.173 175.57 142.173 175.552 142.187C175.392 142.259 175.286 142.274 175.268 142.274C175.002 142.375 174.717 142.505 174.487 142.578C174.345 142.621 174.202 142.665 174.06 142.708C173.989 142.737 173.901 142.751 173.847 142.766C173.492 142.853 173.563 142.838 174.043 142.722C173.847 142.853 173.279 142.853 173.031 142.896C172.249 143.026 171.433 143.07 170.634 143.113H170.58H169.906C169.426 143.113 168.929 143.084 168.432 143.055C167.402 142.997 166.39 142.91 165.36 142.824C163.194 142.636 161.028 142.505 158.844 142.563C150.907 142.751 143.627 145.891 136.791 148.871C122.516 155.078 108.631 161.877 94.6215 168.489C91.3722 170.023 87.9633 171.426 84.8915 173.205C81.4469 175.202 78.9611 177.864 77.8602 181.206C76.8126 184.36 76.5107 187.644 76.3154 190.914C76.1024 194.372 76.1024 197.83 76.0491 201.287C76.0491 201.649 76.0491 202.011 76.0313 202.372V202.43V202.546V203.154C76.0136 203.993 75.9781 204.832 75.9603 205.685C75.907 207.32 75.8005 208.97 75.694 210.604C75.4809 213.845 75.2146 217.1 74.895 220.341C74.238 226.924 73.439 233.478 72.7288 240.046C71.3261 253.139 70.2962 266.377 71.8765 279.513C72.0718 281.104 72.3027 282.695 72.5513 284.273L72.5864 284.274ZM169.514 209.578C169.638 209.708 169.585 209.665 169.514 209.578ZM196.076 230.889C196.325 231.019 196.201 230.946 196.076 230.889ZM206.978 230.252C207.014 230.57 206.978 230.397 206.978 230.252ZM185.973 199.942C185.955 199.87 185.938 199.827 185.973 199.942ZM184.979 131.613C185.032 131.512 185.139 131.381 185.121 131.425C185.245 131.237 185.387 131.063 185.494 130.875C185.76 130.499 186.062 130.152 186.364 129.79C186.524 129.587 186.701 129.414 186.879 129.211C186.95 129.139 187.021 129.067 187.092 128.994C187.447 128.618 187.163 128.849 186.985 129.038C187.216 128.719 187.767 128.358 188.033 128.141C188.424 127.808 188.832 127.49 189.258 127.171C189.436 127.041 189.613 126.911 189.809 126.781C190.235 126.506 190.679 126.231 191.123 125.985C191.584 125.724 192.064 125.479 192.543 125.247C192.738 125.146 192.934 125.059 193.129 124.972C193.164 124.958 193.2 124.929 193.235 124.914C193.271 124.914 193.289 124.885 193.324 124.871C194.283 124.495 195.26 124.148 196.272 123.844C196.804 123.685 197.337 123.554 197.87 123.424C197.923 123.41 197.994 123.395 198.03 123.381C198.296 123.337 198.544 123.279 198.811 123.236C199.858 123.048 200.924 122.903 201.989 122.802C202.557 122.759 203.125 122.715 203.694 122.686C203.907 122.686 204.12 122.672 204.333 122.657H204.244H204.422H204.475H204.67H204.759C205.86 122.657 206.978 122.715 208.079 122.831C209.18 122.947 210.281 123.091 211.364 123.294C211.613 123.337 211.826 123.395 212.074 123.439C212.021 123.439 212.003 123.41 211.932 123.395C212.039 123.424 212.163 123.439 212.27 123.468C212.838 123.598 213.424 123.757 213.974 123.931C216.069 124.553 218.022 125.377 219.887 126.361C219.851 126.332 219.834 126.318 219.816 126.318C219.905 126.376 220.011 126.433 220.1 126.477C220.331 126.607 220.562 126.766 220.792 126.896C221.254 127.186 221.698 127.49 222.124 127.793C222.976 128.415 223.775 129.081 224.539 129.775C224.894 130.123 225.249 130.47 225.586 130.832C225.693 130.947 225.782 131.049 225.871 131.15C225.888 131.179 225.906 131.193 225.924 131.193V131.208C226.172 131.512 226.421 131.83 226.652 132.148C227.486 133.277 228.179 134.463 228.765 135.693C228.907 135.982 229.031 136.257 229.12 136.546C229.173 136.705 229.244 136.865 229.297 137.024C229.297 137.053 229.333 137.096 229.351 137.139C229.546 137.776 229.724 138.413 229.848 139.064C229.972 139.657 230.061 140.264 230.114 140.872C230.15 141.205 230.167 141.538 230.167 141.87V142.275V142.492C230.132 143.129 230.061 143.766 229.937 144.388C229.883 144.677 229.812 144.981 229.759 145.27C229.706 145.516 229.599 145.806 229.51 146.066C229.51 146.109 229.51 146.153 229.475 146.225C229.475 146.24 229.475 146.269 229.457 146.269C229.457 146.297 229.439 146.312 229.439 146.341V146.297C229.386 146.457 229.315 146.63 229.262 146.789C229.155 147.079 229.013 147.354 228.907 147.643C228.623 148.28 228.303 148.873 227.93 149.48C227.948 149.451 227.966 149.437 227.983 149.422C227.895 149.538 227.824 149.654 227.753 149.784C227.557 150.073 227.344 150.363 227.131 150.652C226.705 151.216 226.243 151.781 225.729 152.301C225.64 152.403 225.533 152.518 225.444 152.605H225.427C225.391 152.634 225.373 152.649 225.356 152.692C225.178 152.88 225.107 152.895 225.107 152.851C224.947 153.01 224.805 153.198 224.716 153.285C224.184 153.763 223.616 154.226 223.03 154.674C222.799 154.848 222.568 155.007 222.337 155.181C222.248 155.238 222.16 155.296 222.071 155.354C221.503 155.716 220.899 156.049 220.295 156.367C219.745 156.656 219.212 156.917 218.644 157.163C218.662 157.163 218.68 157.163 218.697 157.148C218.662 157.148 218.626 157.177 218.591 157.192C218.573 157.192 218.538 157.22 218.538 157.22C218.484 157.249 218.449 157.264 218.396 157.264C218.36 157.278 218.342 157.293 218.307 157.307C217.952 157.437 217.597 157.582 217.224 157.712C216.584 157.929 215.945 158.146 215.306 158.334C214.951 158.436 214.631 158.523 214.276 158.609C214.134 158.653 214.01 158.682 213.868 158.711L213.779 158.74C213.477 158.769 213.104 158.884 212.82 158.942C212.501 159 212.181 159.058 211.861 159.101C211.116 159.217 210.37 159.318 209.606 159.376C208.95 159.434 208.31 159.477 207.653 159.506C207.494 159.506 207.369 159.506 207.209 159.521H207.192H207.156C206.801 159.521 206.428 159.521 206.073 159.506C204.635 159.463 203.197 159.333 201.776 159.116C201.492 159.072 201.208 159.029 200.924 158.971C200.729 158.928 200.427 158.841 200.16 158.783C200.214 158.812 200.16 158.826 200.001 158.783C199.965 158.783 199.93 158.754 199.894 158.754H199.876C199.717 158.711 199.539 158.667 199.379 158.624C199.024 158.537 198.704 158.436 198.367 158.334C197.018 157.929 195.704 157.437 194.443 156.859C193.981 156.642 193.538 156.381 193.076 156.15C193.023 156.135 192.969 156.106 192.916 156.078C192.916 156.078 192.898 156.078 192.881 156.063C192.845 156.049 192.827 156.02 192.792 156.02C192.827 156.034 192.827 156.034 192.845 156.049C192.685 155.962 192.543 155.86 192.401 155.774C192.135 155.6 191.851 155.426 191.584 155.238C190.501 154.515 189.525 153.705 188.619 152.837C188.211 152.461 187.82 152.041 187.43 151.636C187.341 151.52 187.252 151.419 187.146 151.318C186.95 151.086 186.773 150.855 186.577 150.609C185.832 149.639 185.192 148.627 184.642 147.585C184.393 147.122 184.163 146.63 183.967 146.153C183.843 145.878 183.736 145.603 183.63 145.343C183.577 145.227 183.559 145.126 183.506 145.024V144.981V144.966C183.168 143.852 182.884 142.738 182.724 141.624C182.653 141.118 182.6 140.612 182.582 140.091C182.582 139.801 182.565 139.527 182.565 139.237V139.107C182.565 139.02 182.6 138.933 182.6 138.89C182.653 137.747 182.849 136.633 183.133 135.534C183.168 135.418 183.186 135.316 183.222 135.201C183.239 135.128 183.452 134.593 183.257 135.056C183.062 135.519 183.293 134.984 183.31 134.911C183.364 134.796 183.381 134.694 183.435 134.593C183.648 134.043 183.878 133.523 184.145 132.987C184.358 132.568 184.606 132.148 184.837 131.729C184.802 131.772 184.766 131.83 184.713 131.902C184.766 131.815 184.82 131.743 184.873 131.656C184.873 131.642 184.873 131.627 184.908 131.613L184.979 131.613ZM86.8064 177.85C87.126 177.604 86.9662 177.734 86.8064 177.85Z" fill="black"/>
<path d="M206.677 231.278C206.677 231.278 206.588 231.408 206.571 231.538C206.588 231.48 206.624 231.394 206.677 231.292V231.278Z" fill="black"/>
<path d="M204.6 232.567C204.6 232.567 204.511 232.567 204.263 232.653H204.316C204.405 232.625 204.493 232.61 204.582 232.581L204.6 232.567Z" fill="black"/>
<path d="M202.805 232.811C202.805 232.811 202.734 232.782 202.663 232.782C202.716 232.782 202.751 232.797 202.787 232.811H202.822H202.805Z" fill="black"/>
<path d="M206.195 231.93C206.195 231.93 206.213 231.915 206.231 231.901C205.84 232.118 205.787 232.147 205.894 232.103C205.982 232.06 206.071 232.002 206.16 231.959C206.16 231.959 206.195 231.944 206.195 231.93Z" fill="black"/>
<path d="M101.65 228.37C101.757 223.003 101.81 217.621 101.81 212.253C101.81 211.66 101.153 211.024 100.531 210.778C99.8212 210.503 98.8091 210.561 98.0988 210.807C96.27 211.443 95.1514 212.774 95.1514 214.38C95.1514 216.666 95.1514 218.966 95.1159 221.238C95.1159 222.381 95.0981 223.524 95.0626 224.667C95.0626 225.231 95.0449 225.81 95.0271 226.388V227.126V227.575V227.69C94.9383 232.306 94.7963 236.921 94.6365 241.536C94.2814 250.68 93.7487 259.837 93.0207 268.981C92.6833 273.148 92.3105 277.329 91.9021 281.496C90.1088 281.496 88.3332 281.467 86.5398 281.467C84.6755 281.467 82.7757 282.364 82.1542 283.868C81.8879 284.49 81.7103 285.243 82.1187 285.85C82.4738 286.386 83.1308 286.892 83.9298 286.892C93.4648 286.935 102.982 286.993 112.499 287.051C114.825 287.066 116.618 285.778 117.098 283.955C120.826 270.211 120.489 256.032 119.779 242.044C119.423 235.056 118.962 228.068 118.855 221.08C118.82 219.344 118.82 217.594 118.855 215.843V215.38V215.09C118.855 214.628 118.891 214.136 118.909 213.673C118.944 212.805 118.962 211.937 119.015 211.069C119.033 210.707 119.051 210.36 119.086 209.998C119.104 209.81 119.139 209.622 119.157 209.448C119.281 209.376 119.424 209.318 119.548 209.246C121.43 208.349 123.348 207.51 125.247 206.641C133.948 202.649 142.648 198.684 151.348 194.691C152.751 194.055 154.083 192.145 153.248 190.857C152.307 189.454 150.354 189.7 148.898 190.365C140.997 193.982 133.078 197.599 125.158 201.23C123.223 202.113 121.288 202.995 119.353 203.878C117.186 204.862 114.843 205.802 113.6 207.654C112.41 209.419 112.392 211.285 112.304 213.253C112.233 215.148 112.179 217.029 112.162 218.924C112.108 226.071 112.517 233.218 112.907 240.365C113.103 243.938 113.28 247.498 113.404 251.085C113.458 252.821 113.511 254.572 113.529 256.308C113.529 257.176 113.547 258.044 113.529 258.912V260.099V260.808V261.169C113.369 268.027 112.748 274.885 111.221 281.641C106.941 281.612 102.68 281.597 98.3833 281.568C99.2178 273.09 99.9103 264.613 100.425 256.106C100.993 246.89 101.366 237.63 101.562 228.4L101.65 228.37ZM119.264 209.215C119.388 209.056 119.317 209.114 119.264 209.215Z" fill="black"/>
<path d="M286.468 123.278C286.468 123.278 286.415 123.292 286.362 123.307C286.308 123.307 286.255 123.336 286.202 123.35C286.255 123.35 286.362 123.307 286.539 123.278C286.504 123.278 286.486 123.278 286.45 123.292L286.468 123.278Z" fill="black"/>
<path d="M316.636 136.141C316.636 136.141 316.636 136.097 316.619 136.068V136.039C316.565 135.88 316.441 135.75 316.654 136.141H316.636Z" fill="black"/>
<path d="M305.7 157.452C305.7 157.452 305.771 157.423 305.807 157.408C306.073 157.293 306.357 157.076 305.7 157.452Z" fill="black"/>
<path d="M272.568 158.622C282.405 165.784 297.515 166.767 308.861 161.458C310.246 160.807 311.56 160.069 312.785 159.23C312.838 159.288 312.909 159.317 312.945 159.302C312.891 159.273 312.856 159.244 312.803 159.215C312.803 159.215 312.82 159.215 312.838 159.201C312.945 159.244 312.998 159.288 312.945 159.317C313.033 159.36 313.104 159.418 313.158 159.461C313.158 159.461 313.211 159.519 313.264 159.592C313.282 159.635 313.318 159.649 313.318 159.693C313.442 159.881 313.513 160.069 313.619 160.243C313.637 160.315 313.673 160.373 313.673 160.46C313.69 160.546 313.673 160.952 313.726 161.096C313.726 161.197 313.69 161.313 313.673 161.4C313.673 161.429 313.637 161.501 313.619 161.588C313.655 161.516 313.673 161.501 313.602 161.675C313.584 161.747 313.566 161.805 313.566 161.805V161.762C313.442 162.037 313.335 162.311 313.211 162.557C312.909 163.165 312.572 163.758 312.234 164.366C311.542 165.668 310.992 167.028 310.832 168.446C310.53 171.383 311.222 174.378 311.631 177.3C312.039 180.222 312.465 183.145 312.874 186.082C313.282 188.975 313.726 191.854 314.081 194.748C314.152 195.355 314.241 195.963 314.276 196.556C314.312 196.889 314.33 197.236 314.33 197.583V198.148V198.249V198.278C314.276 198.914 314.259 199.551 314.134 200.173C314.081 200.506 313.992 200.839 313.904 201.157C313.904 201.2 313.85 201.316 313.833 201.403C313.779 201.533 313.708 201.707 313.69 201.75C313.548 202.054 313.424 202.358 313.247 202.647C313.193 202.763 313.122 202.864 313.069 202.965C313.087 202.965 313.087 202.936 313.105 202.922C313.087 202.922 313.069 202.951 313.051 202.965C313.051 202.994 313.016 203.009 313.016 203.023C312.945 203.153 312.891 203.182 312.874 203.168C312.749 203.341 312.661 203.544 312.572 203.674C312.341 203.978 312.11 204.296 311.862 204.6C310.974 205.7 309.997 206.741 309.003 207.769C308.896 207.87 308.79 207.986 308.701 208.072C308.435 208.318 308.186 208.564 307.92 208.81C307.387 209.317 306.855 209.808 306.322 210.286C305.239 211.255 304.102 212.196 302.948 213.122C301.776 214.033 300.587 214.93 299.362 215.769C299.095 215.957 298.793 216.131 298.527 216.333C299.291 215.74 298.474 216.362 298.261 216.507C297.604 216.926 296.965 217.332 296.308 217.737C293.52 219.487 290.714 221.296 288.744 223.712C286.879 226.027 285.601 229.079 286.4 231.857C287.075 234.288 289.01 236.197 291.798 237.253C297.568 239.423 304.031 237.543 308.719 234.504C311.418 232.754 313.815 230.757 316.247 228.775C318.768 226.735 321.254 224.695 323.775 222.656C326.297 220.616 328.783 218.576 331.303 216.536C333.842 214.482 336.577 212.398 337.607 209.505C338.601 206.684 338.477 203.66 338.636 200.766C338.796 197.858 338.974 194.936 339.134 192.028C339.205 190.595 339.293 189.149 339.4 187.716C339.453 187.065 339.364 186.414 338.761 185.908C338.21 185.459 337.305 185.271 336.541 185.387C334.837 185.633 332.848 186.95 332.759 188.469C332.422 194.212 332.085 199.956 331.765 205.699C331.712 206.35 331.694 207.001 331.605 207.667C331.57 207.956 331.534 208.231 331.463 208.521C331.428 208.651 331.41 208.81 331.374 208.94C331.339 209.041 331.321 209.157 331.286 209.244C331.232 209.447 331.232 209.374 331.339 209.056C331.339 209.273 331.126 209.591 331.002 209.794C330.948 209.881 330.86 209.996 330.824 210.054C330.646 210.286 330.433 210.517 330.238 210.734C330.132 210.835 330.043 210.922 329.936 211.023C327.681 213.049 325.195 214.93 322.816 216.854C317.987 220.775 313.228 224.796 308.31 228.63C307.759 229.065 307.209 229.484 306.641 229.889C306.374 230.077 306.126 230.236 305.86 230.424C306.73 229.788 305.7 230.511 305.469 230.656C304.936 230.974 304.386 231.293 303.818 231.553C303.64 231.64 303.463 231.727 303.285 231.813C303.232 231.828 303.161 231.857 303.107 231.886C303.072 231.886 303.054 231.915 303.036 231.915C302.806 232.001 302.575 232.088 302.362 232.161C302.06 232.262 301.74 232.363 301.438 232.45C301.35 232.479 301.119 232.493 300.977 232.551C300.497 232.624 300 232.681 299.503 232.71C299.539 232.71 299.556 232.71 299.574 232.739H299.396H299.343H299.237H299.166C298.899 232.739 298.633 232.71 298.367 232.696C298.065 232.667 297.781 232.638 297.479 232.58C297.337 232.551 297.213 232.537 297.088 232.522H297.035C296.538 232.363 296.023 232.233 295.544 232.03C295.33 231.944 295.117 231.828 294.904 231.741C294.78 231.654 294.585 231.524 294.567 231.524C294.514 231.481 293.963 231.018 293.697 230.772C293.75 230.859 293.768 230.902 293.644 230.728C293.59 230.67 293.537 230.627 293.537 230.613H293.573C293.519 230.54 293.466 230.468 293.413 230.381C293.253 230.135 293.147 229.875 293.022 229.6C293.004 229.47 292.969 229.368 292.951 229.238C292.951 229.209 292.898 228.688 292.88 228.486C292.898 228.356 292.916 228.225 292.933 228.11C292.951 227.979 292.987 227.849 293.004 227.734C293.004 227.69 293.022 227.603 293.04 227.517C293.129 227.097 293.431 226.648 293.644 226.272C293.715 226.157 293.803 226.055 293.892 225.94C294.105 225.65 294.336 225.39 294.567 225.129V225.115C294.62 225.071 294.674 225.014 294.727 224.97C294.993 224.739 295.242 224.507 295.508 224.29C296.058 223.842 296.627 223.437 297.213 223.017C297.213 223.017 297.23 223.003 297.248 222.988C297.301 222.945 297.372 222.901 297.426 222.858C297.728 222.655 298.029 222.467 298.331 222.279C298.935 221.903 299.556 221.512 300.16 221.122C302.823 219.415 305.398 217.621 307.795 215.667C310.21 213.714 312.411 211.631 314.525 209.446C316.584 207.305 318.591 205.048 319.745 202.502C321.005 199.71 321.13 196.744 320.828 193.807C320.561 191.029 320.082 188.251 319.691 185.473C319.283 182.623 318.892 179.787 318.484 176.923C318.093 174.145 317.507 171.324 317.383 168.532C317.383 168.358 317.383 168.185 317.365 167.997V167.939C317.401 167.635 317.419 167.331 317.472 167.027C317.507 166.883 317.525 166.738 317.561 166.564V166.521C317.543 166.579 317.525 166.651 317.507 166.651C317.507 166.651 317.525 166.593 317.561 166.506C317.614 166.347 317.614 166.188 317.561 166.506C317.667 166.246 317.898 165.725 317.916 165.682C318.466 164.524 319.212 163.425 319.656 162.238C320.615 159.779 320.579 157.03 318.36 155.005C318.2 154.86 318.004 154.73 317.809 154.6C319.745 152.415 321.272 149.984 322.319 147.424C323.811 147.959 325.462 148.292 327.042 148.451C330.931 148.827 334.837 148.191 338.708 148.002C338.992 147.988 339.294 147.974 339.578 147.959H339.631C340.093 147.959 340.554 147.974 341.016 148.002C341.957 148.046 342.898 148.133 343.839 148.277C344.691 148.408 345.508 148.552 346.343 148.726C346.414 148.74 346.467 148.755 346.503 148.755C346.556 148.755 346.574 148.769 346.645 148.798C346.804 148.842 347 148.885 347.16 148.928C347.674 149.059 348.189 149.203 348.704 149.348C352.149 150.346 355.416 151.692 358.647 153.095C372.852 159.215 386.648 165.986 400.551 172.554C403.925 174.145 407.405 175.65 410.672 177.386C410.814 177.458 410.938 177.531 411.08 177.603C411.116 177.618 411.134 177.632 411.134 177.646H411.151C411.471 177.863 411.808 178.037 412.128 178.269C412.785 178.717 413.406 179.209 413.939 179.744C413.992 179.788 414.028 179.846 414.081 179.889C414.117 179.932 414.312 180.178 414.347 180.222C414.56 180.511 414.738 180.815 414.916 181.104C415.075 181.379 415.2 181.654 415.342 181.943C415.413 182.103 415.484 182.262 415.537 182.421C415.555 182.464 415.608 182.652 415.644 182.754C417.348 188.859 417.099 195.311 417.171 201.547C417.348 214.582 419.088 227.531 420.509 240.51C421.201 246.977 421.805 253.444 422.036 259.94C422.089 261.531 422.124 263.137 422.142 264.729V267.13V267.724V267.767V267.883C422.142 268.317 422.124 268.765 422.107 269.199C422 272.44 421.769 275.652 421.396 278.864C421.201 280.455 420.97 282.047 420.722 283.624C420.491 285.013 421.805 286.184 423.563 285.939C425.391 285.678 427.096 284.39 427.345 282.857C429.564 269.749 428.96 256.468 427.682 243.316C426.403 230.252 424.45 217.245 423.971 204.138C423.722 197.57 424.024 190.958 423.101 184.419C422.657 181.323 421.911 178.241 419.621 175.695C417.472 173.293 413.992 171.876 410.903 170.414C396.876 163.802 382.955 157.032 368.751 150.666C362.039 147.657 355.221 144.402 347.657 143.085C343.644 142.376 339.649 142.622 335.601 142.955C334.625 143.042 333.648 143.114 332.672 143.157C332.476 143.157 332.281 143.172 332.086 143.186H331.926H331.748C331.322 143.186 330.914 143.172 330.488 143.143C329.76 143.1 329.032 143.013 328.321 142.897C328.091 142.854 327.86 142.81 327.647 142.767C327.593 142.767 327.558 142.752 327.505 142.752C327.15 142.68 326.741 142.521 326.457 142.405C326.102 142.275 325.782 142.145 325.463 142C325.321 141.942 325.196 141.87 325.09 141.812C325.054 141.797 325.037 141.797 325.019 141.783C325.019 141.783 325.001 141.783 324.983 141.754C324.628 141.508 324.273 141.248 323.954 140.973C324.113 138.817 323.954 136.647 323.385 134.535C323.03 133.276 322.586 132.032 321.983 130.845C317.988 123.018 308.666 118.027 298.439 117.202C288.051 116.378 277.096 119.604 270.367 126.216C265.484 131.019 262.732 137.081 263.194 143.345C263.62 149.118 267.224 154.731 272.48 158.551L272.568 158.622ZM331.164 209.793C331.164 209.793 331.128 209.836 331.11 209.85C331.128 209.822 331.146 209.807 331.164 209.793ZM331.039 209.966C330.968 210.096 330.933 210.183 331.039 209.966ZM294.889 231.74C294.747 231.682 294.64 231.624 294.889 231.74ZM292.918 228.557C292.918 228.702 292.865 228.933 292.918 228.557ZM297.109 223.19C297.109 223.19 297.162 223.161 297.162 223.146C297.126 223.161 297.109 223.19 297.109 223.19ZM274.026 150.708C274.115 150.824 274.079 150.781 274.026 150.708ZM313.763 160.894C313.799 160.677 313.763 160.763 313.763 160.894ZM317.421 141.435V141.145C317.421 141.232 317.439 141.406 317.421 141.435ZM307.851 126.114C308.153 126.273 308.046 126.244 307.851 126.114ZM277.879 126.736C277.755 126.808 277.417 127.054 277.417 127.054C277.488 126.938 277.701 126.837 277.879 126.736ZM274.985 129.022C274.985 129.022 274.807 129.21 274.665 129.325C274.754 129.21 274.86 129.108 274.985 129.022ZM270.208 137.456C270.262 137.167 270.35 136.863 270.421 136.573C270.475 136.414 270.51 136.241 270.563 136.082V136.067C270.723 135.85 270.777 135.445 270.865 135.228C271.007 134.866 271.149 134.519 271.327 134.172C271.593 133.579 271.913 132.985 272.268 132.407C272.286 132.363 272.321 132.334 272.321 132.277C272.375 132.219 272.428 132.146 272.463 132.088C272.676 131.77 272.925 131.452 273.156 131.119C273.564 130.569 274.026 130.049 274.487 129.542C274.541 129.484 274.594 129.412 274.647 129.354C274.665 129.34 274.683 129.325 274.701 129.311C274.825 129.195 274.931 129.094 275.056 128.978C275.819 128.284 276.618 127.618 277.488 127.01C277.595 126.938 277.719 126.866 277.826 126.779C277.879 126.735 277.914 126.721 277.932 126.707C278.003 126.663 278.092 126.634 278.127 126.591C278.589 126.301 279.051 126.041 279.53 125.781C279.992 125.535 280.453 125.303 280.933 125.086C281.128 124.999 281.306 124.913 281.501 124.826C281.607 124.782 281.714 124.739 281.838 124.696C282.815 124.319 283.827 123.987 284.839 123.683C285.301 123.553 285.762 123.437 286.242 123.321C286.082 123.365 286.295 123.292 286.437 123.278H286.49C286.597 123.249 286.703 123.234 286.81 123.205C286.721 123.234 286.65 123.249 286.579 123.249C286.863 123.191 287.147 123.133 287.449 123.09C288.514 122.902 289.58 122.771 290.663 122.67C291.196 122.627 291.746 122.598 292.279 122.569C292.509 122.569 292.74 122.554 292.953 122.54H293.415C295.634 122.569 297.818 122.786 299.967 123.205C300.18 123.249 300.393 123.292 300.606 123.336C300.695 123.365 300.766 123.379 300.872 123.393C301.423 123.524 301.955 123.683 302.47 123.842C303.536 124.16 304.566 124.536 305.542 124.956C306.004 125.144 306.43 125.347 306.856 125.564C307.105 125.694 307.335 125.795 307.566 125.925C307.655 125.969 307.744 126.027 307.85 126.07C308.72 126.634 309.59 127.141 310.407 127.763C311.206 128.37 311.952 129.021 312.627 129.701C312.804 129.889 312.982 130.077 313.177 130.251C313.337 130.41 313.816 131.09 313.355 130.439C313.639 130.859 314.011 131.235 314.313 131.654C314.899 132.465 315.396 133.318 315.858 134.201C316.124 134.736 316.355 135.257 316.568 135.807C316.604 135.864 316.622 135.937 316.639 136.009C316.639 136.053 316.657 136.082 316.693 136.125C316.693 136.11 316.693 136.096 316.675 136.082C316.764 136.385 316.852 136.689 316.941 136.993C317.208 138.049 317.367 139.12 317.438 140.19C317.456 140.48 317.474 140.755 317.474 141.044V141.087V141.377C317.438 141.941 317.403 142.52 317.314 143.069C317.243 143.576 317.154 144.082 317.03 144.588C316.977 144.878 316.888 145.138 316.817 145.428C316.781 145.543 316.764 145.645 316.728 145.76V145.804C316.462 146.281 316.355 146.86 316.142 147.366C315.911 147.916 315.663 148.422 315.361 148.958C315.237 149.189 315.095 149.421 314.97 149.667C314.917 149.739 314.881 149.826 314.828 149.898C314.473 150.347 314.189 150.853 313.852 151.287C313.479 151.764 313.07 152.242 312.662 152.69C312.502 152.864 312.36 153.023 312.2 153.182C312.076 153.298 311.97 153.399 311.845 153.5C311.437 153.877 310.993 154.253 310.549 154.614C310.301 154.817 310.052 155.005 309.786 155.193C309.679 155.266 309.573 155.338 309.484 155.41C308.383 156.061 307.3 156.712 306.11 157.262C305.986 157.305 305.844 157.363 305.737 157.436C305.773 157.421 305.791 157.407 305.791 157.392C305.524 157.494 305.276 157.595 305.009 157.682C304.317 157.928 303.607 158.145 302.896 158.362C302.595 158.448 302.275 158.535 301.973 158.608C301.831 158.651 301.689 158.665 301.547 158.709C300.855 158.839 300.162 158.969 299.452 159.07C298.813 159.157 298.156 159.23 297.534 159.288C297.179 159.316 296.824 159.331 296.451 159.36C296.291 159.36 296.167 159.374 296.007 159.389H295.652H294.871C294.516 159.389 294.143 159.374 293.788 159.345C293.06 159.302 292.349 159.259 291.622 159.172C290.965 159.099 290.325 159.013 289.704 158.911C289.349 158.853 288.994 158.781 288.639 158.723C288.496 158.694 288.354 158.665 288.212 158.636C288.141 158.622 288.053 158.593 287.964 158.593C285.265 157.928 282.708 157.016 280.364 155.743C280.258 155.7 280.151 155.627 280.062 155.569C280.045 155.555 280.045 155.569 280.009 155.54C279.725 155.367 279.441 155.193 279.139 155.005C278.571 154.629 278.021 154.253 277.506 153.848C276.351 152.965 275.286 151.981 274.345 150.94C274.256 150.838 274.167 150.723 274.079 150.636C274.043 150.607 274.025 150.578 274.025 150.564C273.795 150.274 273.564 150.014 273.351 149.71C272.925 149.146 272.534 148.553 272.179 147.945C271.859 147.395 271.575 146.845 271.309 146.296C271.149 145.992 271.025 145.659 270.9 145.355C270.847 145.211 270.794 145.066 270.741 144.907C270.723 144.849 270.687 144.777 270.687 144.719C270.297 143.446 270.066 142.158 270.013 140.841V140.436V140.248C270.013 139.959 270.048 139.684 270.066 139.394C270.119 138.729 270.226 138.063 270.35 137.398L270.208 137.456Z" fill="black"/>
<path d="M313.618 161.659C313.618 161.659 313.618 161.616 313.636 161.572C313.6 161.616 313.583 161.703 313.583 161.746C313.583 161.717 313.6 161.703 313.618 161.688V161.659Z" fill="black"/>
<path d="M293.714 230.774L293.767 230.817C293.731 230.774 293.696 230.702 293.643 230.673C293.643 230.687 293.66 230.716 293.678 230.716C293.678 230.745 293.696 230.76 293.714 230.76V230.774Z" fill="black"/>
<path d="M299.486 232.785H299.575C299.415 232.742 299.202 232.785 299.309 232.8H299.469L299.486 232.785Z" fill="black"/>
<path d="M313.159 202.967C312.999 203.082 312.964 203.169 312.982 203.184C313.035 203.097 313.088 203.039 313.141 202.967H313.159Z" fill="black"/>
<path d="M381.409 223.163V223.452C381.409 223.973 381.374 224.494 381.374 225C381.32 226.751 381.267 228.487 381.178 230.252C381.018 233.739 380.823 237.24 380.628 240.727C380.255 247.845 379.918 254.948 380.077 262.066C380.255 269.85 381.09 277.648 383.149 285.258C383.362 286.053 384.019 286.907 385.173 286.907C394.708 286.864 404.225 286.806 413.742 286.748C415.607 286.748 417.507 285.865 418.128 284.346C418.394 283.724 418.572 282.972 418.164 282.364C417.808 281.829 417.134 281.308 416.352 281.323C413.654 281.337 410.955 281.351 408.274 281.366C407.404 272.685 406.694 264.005 406.161 255.31C405.593 246.123 405.22 236.921 405.025 227.734C404.918 222.555 404.865 217.347 404.865 212.153C404.865 211.56 404.208 210.923 403.586 210.677C402.876 210.402 401.864 210.46 401.154 210.706C399.325 211.343 398.206 212.674 398.206 214.28C398.206 223.51 398.366 232.755 398.721 242C399.076 251.201 399.609 260.388 400.337 269.56C400.657 273.51 401.012 277.46 401.385 281.409C397.372 281.438 393.377 281.453 389.346 281.467C387.766 275.072 387.02 268.576 386.754 262.066C386.701 260.344 386.648 258.594 386.648 256.872V254.268V253.227V252.793C386.648 252.561 386.648 252.33 386.665 252.084C386.754 248.51 386.932 244.951 387.109 241.378C387.482 234.173 387.926 226.954 387.997 219.734C388.032 216.233 388.086 212.659 387.731 209.172C387.642 208.319 387.429 207.422 386.932 206.684C386.31 205.758 385.405 205.165 384.322 204.615C382.475 203.66 380.504 202.85 378.604 201.982C369.78 197.946 360.937 193.895 352.113 189.858C351.438 189.555 350.373 189.67 349.68 189.887C348.81 190.162 347.887 190.77 347.408 191.406C346.538 192.593 346.325 194.17 348.011 194.951C355.788 198.51 363.565 202.069 371.342 205.628C373.278 206.511 375.213 207.393 377.148 208.276C378.036 208.681 378.941 209.071 379.812 209.491C379.883 209.534 380.22 209.708 380.22 209.708C380.273 209.751 380.326 209.766 380.38 209.809C380.486 209.896 380.593 209.983 380.699 210.07C380.664 210.07 380.895 210.373 380.966 210.475V210.518C381.001 210.721 381.037 210.909 381.072 211.111C381.125 211.459 381.125 211.806 381.143 212.153C381.196 213.108 381.232 214.048 381.267 215.003C381.321 216.739 381.338 218.49 381.338 220.226C381.338 221.022 381.338 221.803 381.321 222.613V223.206L381.409 223.163Z" fill="black"/>
<path d="M263.832 263.844C263.832 263.844 263.921 263.801 263.938 263.801H263.903C263.867 263.815 263.85 263.83 263.832 263.844Z" fill="black"/>
<path d="M271.645 248.844C272.32 248.656 271.912 248.743 271.645 248.844Z" fill="black"/>
<path d="M268.077 251.215C268.006 251.345 268.06 251.345 268.308 250.94C268.308 250.94 268.29 250.969 268.273 250.969C268.219 251.056 268.148 251.128 268.077 251.2V251.215Z" fill="black"/>
<path d="M301.845 259.519C301.402 259.736 301.348 259.808 301.402 259.779C301.526 259.692 301.668 259.62 301.792 259.547C301.792 259.547 301.828 259.533 301.845 259.519Z" fill="black"/>
<path d="M260.886 315.263C262.84 315.393 264.526 314.25 265.272 312.861C269.374 305.251 273.368 297.598 277.222 289.916C277.772 288.845 277.364 287.398 275.979 286.993C275.659 286.718 275.233 286.53 274.647 286.516C267.669 286.241 260.673 286.053 253.695 285.879C253.606 282.045 253.518 278.226 253.429 274.392C253.464 274.305 253.482 274.218 253.5 274.131C253.553 273.886 253.606 273.654 253.66 273.408C253.677 273.336 253.713 273.263 253.731 273.177C253.89 272.714 254.086 272.28 254.299 271.831C254.476 271.455 254.689 271.093 254.903 270.717C254.956 270.659 254.974 270.587 255.027 270.529C255.187 270.298 255.382 270.066 255.542 269.82C255.844 269.444 256.163 269.053 256.501 268.677C256.678 268.475 257.353 267.867 256.554 268.59C256.749 268.402 256.944 268.214 257.14 268.026C257.939 267.303 258.827 266.623 259.732 265.972C259.75 265.957 259.768 265.957 259.785 265.928C259.998 265.798 260.211 265.653 260.425 265.538C260.939 265.234 261.49 264.93 262.023 264.655C262.502 264.409 262.999 264.178 263.496 263.946C263.55 263.917 263.692 263.874 263.798 263.816C263.621 263.888 263.354 263.975 263.834 263.787C263.851 263.787 263.887 263.773 263.887 263.758C263.905 263.758 263.94 263.729 263.94 263.729C263.94 263.729 263.922 263.729 263.905 263.744C264.189 263.614 264.491 263.512 264.792 263.397C266.106 262.905 267.438 262.485 268.823 262.109C269.427 261.95 270.03 261.805 270.634 261.646C270.794 261.603 270.971 261.574 271.131 261.53C271.504 261.429 271.912 261.371 272.285 261.299C275.428 260.691 278.624 260.3 281.838 259.982C283.631 259.794 285.46 258.376 285.62 256.901C285.78 255.454 284.608 254.398 282.779 254.586C277.204 255.15 271.54 255.946 266.266 257.609C266.249 257.523 266.231 257.436 266.213 257.364C266.124 257.016 266.071 256.669 266.036 256.307C266.018 256.134 266.018 255.946 266 255.772V255.743C266.053 255.381 266.071 255.034 266.142 254.687C266.178 254.513 266.213 254.325 266.266 254.152C266.284 254.094 266.302 254.036 266.32 253.978C266.32 253.935 266.337 253.92 266.355 253.891C266.568 253.428 267.101 252.445 267.207 252.184V252.17C267.314 252.01 267.438 251.866 267.563 251.707C267.722 251.519 267.9 251.331 268.077 251.142C268.113 251.085 268.184 250.998 268.273 250.911C268.291 250.882 268.326 250.868 268.326 250.839C268.326 250.868 268.308 250.882 268.291 250.882C268.433 250.752 268.557 250.636 268.699 250.52C268.965 250.303 269.48 250.057 269.675 249.797C269.871 249.667 270.066 249.565 270.261 249.45C270.652 249.233 271.06 249.016 271.487 248.828C271.522 248.828 271.54 248.799 271.575 248.784C271.54 248.784 271.522 248.799 271.487 248.813C271.646 248.77 271.771 248.683 271.93 248.64C272.445 248.437 272.96 248.263 273.493 248.104C273.955 247.974 274.416 247.844 274.878 247.728C274.913 247.728 274.949 247.699 274.984 247.685C275.198 247.627 275.446 247.583 275.659 247.555C276.618 247.381 277.577 247.251 278.571 247.164C279.05 247.12 279.548 247.092 280.045 247.048C280.293 247.034 280.524 247.019 280.773 247.005H281.021C282.14 246.961 283.294 247.034 284.413 247.106C289.065 247.395 293.645 248.191 298.245 248.741C302.24 249.204 306.359 249.479 310.407 249.117C310.354 249.247 310.301 249.377 310.247 249.493C309.981 250.072 309.715 250.651 309.413 251.215C309.253 251.504 309.111 251.779 308.951 252.054C308.898 252.17 308.809 252.271 308.756 252.387C307.992 253.515 307.158 254.615 306.217 255.642C306.004 255.873 305.773 256.105 305.56 256.336C305.471 256.423 305.382 256.51 305.294 256.597C304.779 257.089 304.228 257.566 303.678 258.015C303.163 258.434 302.648 258.825 302.098 259.215C301.991 259.288 301.885 259.36 301.796 259.432C301.814 259.432 301.831 259.418 301.849 259.403C301.814 259.418 301.796 259.447 301.76 259.447C301.707 259.49 301.654 259.519 301.6 259.577C301.512 259.635 301.423 259.678 301.37 259.707C301.174 259.837 300.979 259.982 300.766 260.083C300.162 260.46 299.523 260.792 298.884 261.125C298.564 261.284 298.227 261.443 297.907 261.603C297.765 261.66 297.641 261.733 297.517 261.791C297.392 261.848 296.576 262.094 297.126 261.964C297.694 261.82 296.966 262.022 296.86 262.065C296.7 262.123 296.54 262.196 296.398 262.254C296.007 262.398 295.617 262.543 295.208 262.673C294.338 262.962 293.415 263.223 292.51 263.454C292.297 263.498 292.083 263.556 291.888 263.599H291.853C291.426 263.686 291 263.758 290.574 263.831C289.686 263.975 288.781 264.105 287.875 264.192C286.881 264.293 285.887 264.337 284.892 264.38H284.839H284.821H283.916C283.436 264.38 282.957 264.351 282.495 264.337C280.471 264.221 278.429 263.946 276.459 263.527C275.677 263.368 274.541 263.744 273.92 264.076C273.138 264.482 272.357 265.205 272.055 265.928C271.789 266.55 271.611 267.303 272.02 267.91C272.428 268.533 273.014 268.778 273.831 268.952C281.554 270.587 290.148 269.965 297.375 267.187C304.104 264.612 309.857 260.344 313.586 255.092C315.699 252.097 317.19 248.9 317.954 245.486C318.238 244.183 316.817 242.824 315.113 243.171C313.923 243.417 312.698 243.59 311.455 243.706C310.887 243.749 310.319 243.793 309.751 243.822C309.466 243.822 309.182 243.851 308.898 243.851H308.756H308.437C306.004 243.836 303.554 243.634 301.139 243.359C296.238 242.795 291.391 241.912 286.437 241.666C281.732 241.435 276.938 241.753 272.499 243.142C268.113 244.531 263.994 247.019 261.703 250.419C259.697 253.399 258.72 256.944 259.768 260.228C256.164 262.065 252.968 264.423 250.571 267.331C249.168 265.364 247.339 263.613 245.226 262.123C243.61 260.98 241.853 260.026 240.006 259.215C241.001 256.466 240.645 253.399 239.243 250.781C237.52 247.54 234.182 245.066 230.276 243.59C221.416 240.248 211.561 241.999 202.364 243.185C199.665 243.533 196.949 243.822 194.214 243.894H193.806H193.752H192.758C192.048 243.88 191.338 243.851 190.627 243.793C189.242 243.677 187.893 243.504 186.544 243.229C185.389 242.997 184.005 243.692 183.241 244.299C182.442 244.95 181.714 246.021 181.927 246.99C183.117 252.286 186.153 257.219 190.663 261.169C195.457 265.379 201.76 268.2 208.649 269.343C212.804 270.037 217.154 270.066 221.327 269.516C223.12 269.285 224.949 267.954 225.109 266.435C225.269 265.031 224.097 263.874 222.268 264.12C221.398 264.236 220.528 264.337 219.64 264.38C219.285 264.409 218.948 264.424 218.575 264.438C218.38 264.438 218.184 264.453 217.989 264.453H217.545C215.858 264.453 214.189 264.322 212.538 264.105C211.703 263.99 210.887 263.859 210.07 263.7L209.431 263.57C209.306 263.527 208.863 263.44 209.431 263.57C208.934 263.44 208.419 263.324 207.921 263.179C206.377 262.731 204.867 262.21 203.429 261.559C202.79 261.27 202.169 260.98 201.565 260.662C201.299 260.532 200.997 260.387 200.766 260.228L200.713 260.185C200.535 260.069 200.358 259.968 200.162 259.852C198.973 259.128 197.872 258.333 196.824 257.465C195.777 256.611 194.818 255.7 193.912 254.73C193.735 254.528 193.468 254.311 193.344 254.094C193.344 254.065 193.309 254.05 193.291 254.05C193.184 253.92 193.078 253.79 192.971 253.674C192.563 253.153 192.172 252.618 191.799 252.083C191.196 251.2 190.681 250.274 190.201 249.334C197.57 249.536 204.921 247.858 212.236 247.265C213.39 247.164 214.562 247.12 215.716 247.077H215.876H216.586C217.155 247.077 217.723 247.106 218.291 247.135C219.268 247.193 220.244 247.279 221.221 247.424C221.629 247.482 222.02 247.554 222.41 247.627C222.659 247.67 222.872 247.728 223.121 247.757C223.174 247.771 223.227 247.786 223.263 247.786C223.351 247.815 223.44 247.829 223.547 247.858C225.34 248.321 227.045 248.958 228.607 249.797C228.714 249.855 228.873 249.956 228.927 249.985C229.122 250.115 229.3 250.231 229.495 250.361C229.85 250.607 230.187 250.853 230.525 251.128C230.844 251.388 231.128 251.663 231.395 251.938C231.537 252.068 231.661 252.227 231.803 252.372C231.803 252.387 231.821 252.387 231.839 252.401C231.839 252.43 231.856 252.43 231.892 252.459C232.425 253.182 232.922 253.935 233.295 254.73C233.366 254.904 233.437 255.078 233.508 255.237C233.508 255.266 233.508 255.28 233.525 255.28C233.543 255.352 233.579 255.41 233.579 255.497C233.667 255.844 233.756 256.206 233.81 256.553C233.827 256.683 233.863 256.872 233.898 257.06C232.407 256.64 230.862 256.264 229.3 255.96C225.944 255.28 222.535 254.86 219.108 254.499C217.297 254.311 215.308 255.526 214.722 256.9C214.19 258.174 214.598 259.722 216.516 259.924C219.392 260.214 222.286 260.561 225.127 261.067C225.802 261.197 226.459 261.313 227.116 261.443C227.382 261.487 227.63 261.559 227.897 261.617C227.95 261.631 228.039 261.66 228.057 261.66C228.323 261.718 228.572 261.79 228.838 261.863C230.17 262.196 231.483 262.586 232.78 263.035C234.058 263.483 235.301 263.975 236.473 264.554C236.97 264.785 237.449 265.046 237.929 265.292C238.035 265.35 238.124 265.422 238.231 265.465C238.479 265.61 238.71 265.755 238.959 265.928C239.917 266.55 240.823 267.216 241.675 267.925C242.101 268.286 242.492 268.648 242.883 269.039C243.042 269.198 243.22 269.372 243.38 269.545C243.469 269.646 243.557 269.748 243.646 269.834C243.682 269.878 243.699 269.878 243.717 269.907C244.498 270.746 245.12 271.759 245.617 272.728C245.866 273.205 246.079 273.697 246.274 274.189C246.274 274.233 246.327 274.334 246.345 274.406C246.363 274.464 246.398 274.536 246.398 274.551C246.487 274.84 246.558 275.159 246.629 275.448C246.629 275.506 246.682 275.578 246.682 275.636C246.753 278.992 246.842 282.349 246.931 285.706C244.41 285.662 241.906 285.59 239.367 285.575C236.047 285.532 232.744 285.518 229.424 285.518C228.145 285.518 226.885 285.937 225.979 286.689C224.63 287.543 223.618 288.99 224.292 290.379C228.305 298.582 232.318 306.771 236.331 314.959C237.005 316.348 239.438 316.16 240.681 315.451C242.137 314.612 243.291 313.093 242.581 311.617C239.225 304.745 235.833 297.858 232.477 290.986C242.35 291.058 252.204 291.218 262.058 291.536C264.597 291.608 267.136 291.71 269.675 291.811C266.213 298.64 262.68 305.439 259.022 312.21C258.365 313.411 259.022 315.118 260.815 315.234L260.886 315.263ZM305.755 256.293L305.808 256.249C305.791 256.264 305.773 256.293 305.755 256.293ZM266.337 254.007C266.337 254.007 266.284 254.137 266.284 254.224C266.266 254.224 266.284 254.137 266.337 254.007ZM254.85 270.818L254.814 270.862C254.814 270.847 254.832 270.818 254.85 270.818ZM215.965 247.12C216.124 247.12 216.053 247.12 215.965 247.12Z" fill="black"/>
<path d="M230.009 222.685C230.169 230.816 237.235 237.645 244.515 242.593C245.421 243.215 246.362 243.808 247.321 244.401C247.41 244.459 247.516 244.502 247.623 244.546C247.711 244.589 247.8 244.647 247.889 244.676C248.777 245.052 249.949 244.98 250.872 244.546C251.192 244.416 251.493 244.227 251.76 244.025C259.732 239.019 267.385 232.682 269.515 224.392C270.687 219.878 269.533 215.249 267.225 211.097C264.97 207.031 261.774 203.4 259.039 199.566C257.672 197.642 256.767 195.53 255.524 193.548C254.884 192.535 254.085 191.565 252.718 191.16C251.031 190.668 249.256 191.016 247.782 191.754C246.326 192.462 245.208 193.62 244.533 194.879C244.089 195.674 243.805 196.513 243.397 197.309C243.184 197.714 242.953 198.119 242.722 198.524C242.615 198.698 242.509 198.872 242.402 199.06C242.367 199.103 242.349 199.146 242.314 199.19C241.799 199.986 241.23 200.752 240.68 201.519C238.247 204.789 235.584 207.928 233.454 211.328C231.234 214.858 229.938 218.692 230.027 222.656L230.009 222.685ZM250.73 195.616C250.73 195.616 250.694 195.645 250.677 195.674C250.641 195.804 250.606 195.906 250.535 195.949C250.57 195.906 250.588 195.848 250.606 195.804C250.623 195.761 250.641 195.732 250.659 195.689C250.641 195.703 250.623 195.732 250.606 195.732C250.623 195.703 250.641 195.689 250.659 195.674C250.659 195.631 250.712 195.587 250.712 195.558C250.712 195.602 250.694 195.616 250.677 195.66C250.694 195.631 250.73 195.616 250.73 195.602V195.616ZM248.99 196.383V196.398C248.937 196.398 248.937 196.398 248.99 196.383ZM236.774 219.184C236.881 218.345 237.058 217.52 237.307 216.695C237.307 216.666 237.324 216.638 237.342 216.609C237.413 216.42 237.484 216.232 237.555 216.03C237.715 215.639 237.875 215.249 238.052 214.872C238.408 214.077 238.834 213.295 239.313 212.529C239.402 212.384 239.491 212.239 239.579 212.08C239.579 212.051 239.615 212.037 239.633 212.022C239.899 211.632 240.165 211.241 240.432 210.85C241.462 209.389 242.562 207.986 243.681 206.568C245.936 203.689 248.191 200.752 249.807 197.598C249.86 197.7 249.931 197.801 249.984 197.888C250.517 198.828 250.997 199.783 251.529 200.723C253.66 204.528 256.838 207.914 259.306 211.56C260.531 213.368 261.632 215.263 262.431 217.245C262.484 217.361 262.502 217.462 262.555 217.564C262.555 217.607 262.609 217.737 262.644 217.81C262.662 217.853 262.68 217.911 262.68 217.911C262.733 218.056 262.768 218.2 262.822 218.345C262.981 218.851 263.088 219.358 263.177 219.879C263.266 220.399 263.337 220.92 263.372 221.441C263.39 221.658 263.408 221.89 263.408 222.107V222.353V222.396C263.354 223.307 263.23 224.204 262.999 225.101C262.946 225.289 262.91 225.463 262.839 225.651C262.839 225.695 262.822 225.709 262.804 225.752V225.767C262.644 226.215 262.467 226.649 262.271 227.083C262.111 227.46 261.916 227.836 261.703 228.212C261.596 228.414 261.472 228.603 261.366 228.805C261.312 228.892 261.277 228.964 261.206 229.051C260.709 229.803 260.176 230.527 259.59 231.236C259.288 231.612 258.969 231.973 258.631 232.335C258.471 232.523 258.294 232.697 258.134 232.885C258.081 232.928 257.903 233.116 257.797 233.218C257.708 233.319 257.601 233.42 257.548 233.449C257.371 233.623 257.193 233.796 256.998 233.97C256.607 234.346 256.199 234.693 255.773 235.055C255.045 235.677 254.281 236.27 253.518 236.864C253.891 229.514 254.104 222.179 254.121 214.844C254.121 214.251 253.464 213.614 252.843 213.368C252.133 213.093 251.121 213.151 250.41 213.397C248.564 214.034 247.463 215.365 247.463 216.971C247.463 218.88 247.445 220.805 247.41 222.729V223.452V223.568V223.77C247.41 224.219 247.392 224.667 247.374 225.116C247.356 226.085 247.321 227.084 247.303 228.053C247.232 230.744 247.09 233.449 246.948 236.14C245.474 234.997 244.072 233.825 242.758 232.567C242.42 232.248 242.101 231.916 241.781 231.583C241.621 231.395 241.444 231.221 241.284 231.033C241.195 230.932 241.124 230.831 241.018 230.744C240.432 230.02 239.846 229.268 239.331 228.501C238.798 227.706 238.336 226.881 237.928 226.027C237.751 225.651 237.573 225.275 237.449 224.885C237.413 224.798 237.395 224.711 237.342 224.61C237.165 224.132 237.342 224.653 237.378 224.682C237.253 224.581 237.2 224.089 237.165 223.959C236.934 223.105 236.774 222.237 236.703 221.369C236.685 221.152 236.667 220.92 236.667 220.703V220.298C236.667 220.168 236.685 220.009 236.685 219.965C236.703 219.72 236.738 219.474 236.756 219.242L236.774 219.184Z" fill="black"/>
<path d="M437.623 326.156C425.407 325.953 413.191 325.823 400.975 325.736C388.759 325.649 376.543 325.606 364.327 325.606C352.165 325.606 340.002 325.635 327.822 325.664C315.606 325.707 303.39 325.765 291.174 325.823C279.011 325.881 266.831 325.939 254.65 325.996C242.435 326.054 230.219 326.112 218.02 326.17C205.822 326.228 193.606 326.286 181.408 326.344C169.21 326.402 156.994 326.459 144.796 326.517C132.651 326.575 120.488 326.633 108.344 326.691C96.1455 326.749 83.9295 326.807 71.7314 326.864C68.7662 326.879 65.7832 326.893 62.8005 326.908C60.9361 326.908 59.0363 327.79 58.4148 329.31C58.1485 329.932 57.9709 330.684 58.3793 331.292C58.7344 331.827 59.4091 332.348 60.1904 332.333C72.3886 332.275 84.6045 332.217 96.8027 332.16C109.001 332.102 121.217 332.044 133.415 331.986C145.56 331.928 157.723 331.87 169.867 331.812C182.065 331.755 194.281 331.697 206.479 331.639C218.624 331.581 230.805 331.523 242.949 331.465C255.183 331.407 267.381 331.349 279.615 331.292C291.831 331.234 304.047 331.161 316.263 331.118C328.479 331.075 340.694 331.031 352.91 331.017C365.073 331.017 377.236 331.017 389.416 331.089C401.632 331.147 413.848 331.263 426.064 331.436C429.047 331.48 432.012 331.523 434.995 331.566C436.859 331.595 438.759 330.655 439.38 329.165C439.86 328.022 439.54 326.17 437.587 326.141L437.623 326.156Z" fill="black"/>
<path d="M186.486 277.344C195.577 287.486 204.792 297.599 215.517 306.685C218.606 309.303 221.82 311.85 225.105 314.295C226.472 315.308 228.656 314.743 229.792 313.745C230.84 312.834 231.887 310.982 230.467 309.926C224.572 305.528 218.979 300.884 213.741 295.965C208.432 291.002 203.478 285.794 198.649 280.513C195.95 277.562 193.287 274.581 190.623 271.616C190.251 271.196 189.398 271.08 188.83 271.095C188.084 271.095 187.339 271.297 186.717 271.645C185.048 272.571 183.326 273.41 181.55 274.205C181.515 274.205 181.515 274.22 181.497 274.234C181.479 274.234 181.479 274.234 181.444 274.249C181.284 274.307 181.124 274.379 180.982 274.451C180.521 274.64 180.041 274.828 179.562 275.001C178.656 275.348 177.715 275.667 176.792 275.971C174.963 276.578 173.099 277.113 171.199 277.576C170.737 277.692 170.275 277.793 169.796 277.909C169.583 277.953 169.37 278.01 169.157 278.054C170.009 277.895 169.121 278.054 168.997 278.097C167.967 278.314 166.937 278.502 165.907 278.69C161.877 279.399 157.793 279.833 153.674 280.094C151.49 280.224 149.288 280.311 147.104 280.369C146.802 280.369 146.501 280.383 146.216 280.383H145.666H144.334C143.145 280.383 141.937 280.383 140.748 280.369C135.634 280.311 130.556 280.108 125.46 279.906C123.613 279.833 121.696 280.846 121.074 282.307C120.577 283.479 120.915 285.259 122.868 285.331C140.819 286.04 159.391 286.662 176.472 281.338C179.935 280.253 183.326 278.922 186.522 277.345L186.486 277.344Z" fill="black"/>
<path d="M277.768 312.863C289.966 304.747 301.241 295.748 311.291 285.866C313.368 283.812 315.375 281.728 317.381 279.631C330.449 286.098 345.541 289.917 360.811 290.699C365.517 290.944 370.24 290.901 374.927 290.583C376.721 290.453 378.549 288.948 378.709 287.501C378.869 286.011 377.679 285.071 375.868 285.186C373.915 285.317 371.944 285.403 369.973 285.418H369.654H369.139H367.576C366.582 285.403 365.57 285.374 364.576 285.331C360.616 285.172 356.674 284.796 352.786 284.232C350.904 283.957 349.021 283.638 347.157 283.262C346.234 283.074 345.31 282.886 344.387 282.683C344.334 282.669 344.316 282.669 344.263 282.655C344.209 282.655 344.192 282.64 344.121 282.611C343.908 282.568 343.695 282.51 343.499 282.466C342.949 282.336 342.416 282.206 341.883 282.061C338.155 281.107 334.497 279.964 330.928 278.633C326.897 277.128 323.009 275.392 319.28 273.424C318.659 273.106 317.469 273.236 316.848 273.453C315.907 273.786 315.196 274.307 314.575 274.972C313.439 276.217 312.302 277.446 311.13 278.662C310.562 279.269 309.959 279.877 309.373 280.47C309.089 280.759 308.804 281.049 308.52 281.338C308.378 281.483 308.236 281.628 308.094 281.772C308.059 281.801 308.059 281.816 308.041 281.816C305.626 284.203 303.158 286.546 300.619 288.847C295.505 293.462 290.125 297.889 284.461 302.07C282.899 303.227 281.319 304.385 279.703 305.513C278.886 306.092 278.051 306.656 277.235 307.235C276.826 307.524 276.4 307.799 275.992 308.089C275.85 308.19 275.725 308.277 275.566 308.378C275.406 308.494 274.429 309.145 275.299 308.552C274.518 309.087 273.808 309.593 273.435 310.403C273.169 310.968 273.027 311.821 273.399 312.385C274.234 313.63 276.436 313.745 277.75 312.877L277.768 312.863Z" fill="black"/>
<path d="M84.0364 318.156C98.1877 318.691 112.357 318.807 126.526 318.546C130.45 318.474 134.374 318.373 138.298 318.242C139.168 318.213 140.215 317.649 140.784 317.186C141.387 316.694 142.009 315.884 142.08 315.161C142.151 314.524 142.062 313.815 141.441 313.352C140.784 312.889 140.073 312.803 139.221 312.831C135.759 312.962 132.279 313.048 128.816 313.121C127.112 313.164 125.389 313.179 123.685 313.208H123.081H123.063H123.01C122.548 313.208 122.104 313.208 121.643 313.222C120.737 313.222 119.832 313.237 118.926 313.251C112.073 313.294 105.237 313.237 98.4007 313.092C94.4767 313.005 90.5526 312.889 86.6289 312.745C84.7823 312.672 82.8647 313.685 82.2433 315.146C81.7461 316.318 82.0835 318.098 84.0366 318.17L84.0364 318.156Z" fill="black"/>
<path d="M154.527 312.281C152.663 312.281 150.763 313.164 150.142 314.683C149.875 315.305 149.698 316.058 150.106 316.665C150.461 317.2 151.136 317.707 151.917 317.707C153.782 317.707 155.681 316.824 156.303 315.305C156.569 314.683 156.747 313.931 156.338 313.323C155.983 312.788 155.309 312.281 154.527 312.281Z" fill="black"/>
<path d="M385.636 315.681C391.496 315.493 397.373 315.363 403.25 315.262C404.706 315.233 406.162 315.219 407.618 315.204H408.186H408.293H409.198C409.962 315.204 410.69 315.19 411.453 315.175C414.401 315.146 417.384 315.132 420.331 315.132C422.195 315.132 424.095 314.249 424.717 312.73C424.983 312.108 425.16 311.356 424.752 310.748C424.397 310.213 423.722 309.706 422.941 309.706C410.814 309.735 398.705 309.923 386.595 310.3C385.725 310.328 384.677 310.893 384.109 311.356C383.506 311.848 382.884 312.658 382.813 313.381C382.742 314.018 382.831 314.727 383.452 315.19C384.109 315.653 384.819 315.739 385.672 315.71L385.636 315.681Z" fill="black"/>
</g>
<defs>
<clipPath id="clip0_1_2">
<rect width="500" height="500" fill="white"/>
</clipPath>
</defs>
</svg>
