<svg width="500" height="500" viewBox="0 0 500 500" fill="none" xmlns="http://www.w3.org/2000/svg">
<path d="M56.9708 466.949C58.2553 467.718 59.7928 467.946 61.2452 467.582C62.6975 467.218 63.9459 466.292 64.7157 465.008L124.84 364.675C125.048 364.327 125.218 363.959 125.348 363.575L133.447 339.533C135.663 334.638 143.602 326.968 149.08 322.381C149.08 322.381 245.852 324.281 246.118 324.334C254.208 332.663 263.008 345.49 272.313 362.504L245.535 403.631C243.396 406.91 242.543 410.863 243.14 414.732C243.736 418.601 245.74 422.113 248.766 424.596L268.107 440.495C269.803 441.888 271.768 442.916 273.88 443.512C275.992 444.109 278.204 444.262 280.378 443.962C282.552 443.663 284.64 442.916 286.511 441.77C288.383 440.624 289.997 439.103 291.252 437.303L300.66 423.807C309.766 446.437 315.554 463.706 315.624 463.894C315.85 464.608 316.216 465.27 316.701 465.842C317.185 466.413 317.778 466.883 318.446 467.222C319.113 467.562 319.842 467.766 320.589 467.822C321.336 467.878 322.087 467.784 322.797 467.547C323.508 467.309 324.164 466.933 324.728 466.439C325.292 465.946 325.752 465.345 326.081 464.672C326.41 464 326.602 463.268 326.646 462.52C326.69 461.772 326.584 461.023 326.335 460.316C326.266 460.107 319.21 439.044 308.398 412.851C308.386 412.825 308.368 412.802 308.357 412.774L382.368 306.598C385.836 301.606 388.245 295.957 389.446 289.998C405.362 288.555 416.079 277.921 419.074 260.319C420.166 253.823 418.866 247.152 415.414 241.542C414.361 239.83 413.22 238.173 411.996 236.578L417.853 228.756C420.35 229.852 423.089 230.281 425.802 230.001C428.515 229.722 431.109 228.743 433.33 227.161C438.837 223.355 442.916 217.821 444.922 211.435C445.944 208.031 446.04 204.415 445.198 200.962C444.357 197.509 442.609 194.342 440.135 191.79C434.052 185.465 422.605 174.125 412.651 167.378C410.18 162.908 401.441 147.414 393.209 136.64C390.964 133.71 387.972 131.439 384.546 130.064C381.121 128.689 377.389 128.26 373.741 128.824C364.757 130.199 340.663 135.337 340.663 135.337C336.77 136.402 335.059 141.884 338.025 144.718C345.527 152.506 345.352 173.152 344.477 182.827C330.153 195.101 316.633 208.282 304 222.289C298.816 228.122 291.859 237.677 283.309 250.7C282.89 251.32 282.598 252.017 282.451 252.75C282.303 253.483 282.303 254.239 282.45 254.972C282.597 255.706 282.888 256.403 283.306 257.023C283.725 257.643 284.263 258.174 284.888 258.584C285.513 258.995 286.214 259.277 286.949 259.414C287.685 259.552 288.44 259.542 289.171 259.385C289.903 259.228 290.596 258.927 291.21 258.501C291.824 258.074 292.348 257.529 292.75 256.898C300.996 244.333 307.623 235.215 312.444 229.792C325.109 215.788 338.671 202.621 353.043 190.376L371.031 180.682L382.183 190.414C382.272 196.81 383.877 203.094 386.865 208.75C388.194 211.213 390.216 213.233 392.68 214.561L388.809 219.845C384.976 218.551 380.994 217.75 376.958 217.462C371.909 217.111 366.906 218.624 362.897 221.714C358.764 225.014 354.968 228.716 351.567 232.767C348.844 235.8 346.868 239.427 345.796 243.36C344.724 247.292 344.586 251.42 345.393 255.416C343.151 257.065 341.071 258.925 339.181 260.968C317.299 263.717 288.064 266.777 269.525 266.323C267.604 266.284 265.74 265.668 264.174 264.556C262.607 263.444 261.412 261.886 260.742 260.086C259.146 255.779 258.057 251.302 257.495 246.745C257.333 242.542 255.304 205.624 233.749 192.228C230.928 190.469 227.785 189.29 224.503 188.758C221.222 188.226 217.867 188.353 214.635 189.13C211.403 189.907 208.358 191.32 205.677 193.286C202.996 195.251 200.733 197.731 199.02 200.58C191.307 213.427 190.601 233.588 196.915 260.504C197.399 263.569 202.408 292.582 220.937 310.774C197.168 309.315 173.331 309.356 149.567 310.896C147.881 308.84 146.505 306.546 145.484 304.09C144.438 301.393 144.219 298.446 144.853 295.624C145.487 292.801 146.946 290.231 149.045 288.241C149.045 288.241 157.497 280.607 159.871 274.85C165.37 261.524 179.526 227.193 191.799 196.133C201.379 171.89 219.835 164.957 231.403 163.058C243.747 182.457 260.992 184.812 269.865 185.434C277.551 185.972 284.863 183.438 291.231 179.909C287.824 193.837 279.36 204.459 273.271 210.612C271.534 204.975 269.363 199.481 266.777 194.18C266.132 192.828 264.977 191.788 263.565 191.288C262.153 190.788 260.6 190.87 259.248 191.515C257.897 192.16 256.856 193.315 256.356 194.727C255.857 196.139 255.938 197.692 256.583 199.044C260.985 208.267 263.525 215.933 264.135 221.825C264.339 223.825 267.132 228.373 273.029 225.848C274.416 225.253 303.065 204.08 304.018 169.258C307.076 165.549 309.512 161.369 311.232 156.88C316.865 156.653 324.417 155.045 329.012 148.737C333.479 142.61 334.518 132.097 334.607 124.412C335.115 124.385 335.615 124.366 336.125 124.336C337.498 124.257 338.795 123.68 339.773 122.713C340.751 121.745 341.342 120.454 341.436 119.081C341.481 115.447 340.75 111.845 339.292 108.516C337.834 105.186 335.683 102.206 332.982 99.7741C333.877 91.9106 334.656 72.2137 323.197 55.7892C314.554 43.4024 300.973 35.6645 282.924 32.8043C281.991 32.6405 259.807 28.9558 241.301 42.993C228.88 52.4038 221.273 67.2894 218.659 87.2716C212.713 90.1075 207.703 94.5854 204.221 100.177C203.863 101.194 203.743 102.279 203.869 103.35C203.995 104.42 204.364 105.448 204.947 106.354C205.531 107.261 206.314 108.022 207.236 108.58C208.159 109.138 209.196 109.477 210.27 109.573C208.645 117.472 207.729 126.898 210.479 133.346C213.507 140.463 220.421 143.745 225.812 145.253C226.036 147.663 226.456 150.051 227.067 152.393C214.205 155.098 192.42 163.829 181.296 191.979C169.054 222.963 155.344 257.409 149.439 270.529C147.543 274.74 141.25 280.068 141.25 280.068C137.487 283.6 134.879 288.187 133.766 293.227C132.653 298.267 133.088 303.526 135.015 308.314C136.12 311.018 137.538 313.584 139.24 315.958C134.063 320.53 125.917 328.44 122.989 335.268C122.93 335.409 122.876 335.55 122.828 335.691L114.843 359.393L55.0353 459.202C54.265 460.486 54.0362 462.024 54.3992 463.476C54.7621 464.929 55.6871 466.178 56.9708 466.949ZM238.243 150.372C241.247 151.109 244.942 151.899 249.255 152.604C249.024 156.181 248.748 161.175 248.607 166.384C243.656 162.179 240.051 156.611 238.243 150.372ZM259.8 172.582C259.813 166.02 260.176 158.875 260.478 154.027C265.004 154.442 269.937 154.706 275.213 154.726C274.919 159.808 274.584 167.184 274.635 173.755C269.666 173.798 264.702 173.405 259.8 172.582ZM285.942 169.891C286.015 164.258 286.311 158.389 286.549 154.383C291.067 154.1 295.757 153.629 300.62 152.914C297.845 160.104 292.656 166.106 285.942 169.891ZM319.879 142.079C318.371 143.817 316.273 144.934 313.99 145.217C314.379 142.103 314.731 139.014 315.019 136.033C315.09 135.294 315.015 134.549 314.799 133.84C314.582 133.131 314.228 132.471 313.756 131.899C313.285 131.327 312.705 130.853 312.05 130.504C311.396 130.156 310.679 129.94 309.941 129.869C309.202 129.797 308.458 129.872 307.748 130.089C307.039 130.306 306.379 130.66 305.807 131.131C305.235 131.603 304.761 132.182 304.412 132.837C304.064 133.492 303.848 134.209 303.777 134.947C303.583 136.947 303.353 139.003 303.115 141.078C281.075 144.977 258.451 144.023 236.818 138.281C236.684 130.517 236.926 122.779 237.208 116.883C262.513 122.311 288.326 125.018 314.207 124.96C317.184 124.96 320.221 124.918 323.293 124.844C323.129 132.728 321.859 139.377 319.882 142.081L319.879 142.079ZM225.424 96.6697C226.514 96.3606 227.486 95.7309 228.213 94.8623C228.94 93.9937 229.39 92.9264 229.503 91.7991C231.338 73.408 237.574 60.0344 248.022 52.0636C262.538 40.9812 280.806 43.8979 281.057 43.9417C296.012 46.312 307.054 52.4476 313.877 62.1789C322.233 74.0984 322.481 88.8245 321.943 96.2589C296.581 94.8979 271.336 91.8621 246.375 87.1713C245.648 87.0245 244.899 87.0223 244.171 87.1648C243.443 87.3073 242.751 87.5918 242.133 88.002C241.515 88.4122 240.984 88.9401 240.57 89.5555C240.156 90.1709 239.868 90.8618 239.721 91.5887C239.574 92.3157 239.572 93.0644 239.714 93.7922C239.857 94.52 240.141 95.2126 240.552 95.8304C240.962 96.4483 241.49 96.9793 242.105 97.3931C242.72 97.807 243.411 98.0956 244.138 98.2424C270.799 103.26 297.776 106.42 324.874 107.701C326.7 109.238 328.141 111.181 329.081 113.374C275.821 115.491 235.145 105.359 218.837 100.433C220.798 98.8072 223.027 97.5338 225.424 96.6697ZM220.868 128.924C219.629 126.01 219.751 120.085 221.124 112.902C222.647 113.329 224.284 113.769 226.034 114.224C225.768 119.241 225.503 125.984 225.486 133.114C223.495 132.315 221.857 130.828 220.868 128.924ZM261.653 325.03C263.151 324.889 264.664 324.692 266.197 324.433C278.414 322.333 290.512 319.594 302.443 316.229L279.28 351.805C274.069 342.459 268.178 333.51 261.653 325.03ZM373.106 300.137L281.993 430.847C281.629 431.369 281.162 431.809 280.619 432.142C280.077 432.474 279.471 432.69 278.841 432.777C278.211 432.864 277.57 432.819 276.958 432.646C276.346 432.473 275.776 432.176 275.285 431.772L255.943 415.873C255.068 415.153 254.488 414.136 254.316 413.016C254.143 411.896 254.389 410.752 255.007 409.802L344.079 273.002C347.852 267.184 353.37 262.711 359.842 260.224L368.392 256.92C375.012 254.366 380.759 249.963 384.948 244.236L405.103 216.718C405.266 216.835 405.419 216.966 405.558 217.11L409.308 221.336L388.253 249.435C384.421 254.557 381.976 260.582 381.154 266.926L378.763 285.481C378.08 290.749 376.14 295.776 373.106 300.137ZM407.943 258.425C405.99 269.902 400.319 276.575 391.069 278.371L392.358 268.374C395.182 256.682 404.88 246.08 404.88 246.08C405.18 246.536 408.581 254.659 407.94 258.425H407.943ZM431.998 199.614C433.078 200.716 433.845 202.086 434.218 203.584C434.592 205.081 434.559 206.651 434.124 208.131C432.853 212.138 430.267 215.598 426.783 217.95C425.867 218.594 424.745 218.877 423.634 218.743C422.523 218.61 421.5 218.07 420.763 217.227L413.996 209.604C411.215 206.471 404.82 204.485 400.274 204.999C399.604 205.111 398.917 205.02 398.3 204.737C397.683 204.454 397.165 203.992 396.814 203.412C394.741 199.473 393.599 195.112 393.473 190.664L408.633 178.346C417.17 184.623 426.703 194.112 431.995 199.614H431.998ZM375.449 139.983C377.094 139.725 378.777 139.915 380.322 140.532C381.868 141.15 383.219 142.172 384.233 143.491C390.388 151.947 396.026 160.768 401.118 169.904L388.035 180.533L377.447 171.286V163.642C377.447 162.145 376.852 160.708 375.793 159.649C374.734 158.59 373.298 157.995 371.8 157.995C370.302 157.995 368.866 158.59 367.807 159.649C366.748 160.708 366.153 162.145 366.153 163.642V170.48L356.182 175.844C356.398 166.881 355.714 154.103 351.192 144.416C359.789 142.522 368.765 141.012 375.449 139.983ZM369.773 230.666C373.807 227.055 379.514 229.055 381.695 229.545C381.695 229.545 374.354 242.899 364.315 246.376L356.196 249.513C356.381 246.034 357.761 242.726 360.103 240.147C363.077 236.742 366.31 233.572 369.773 230.666ZM233.81 306.927C218.32 294.001 210.845 271.633 208.805 262.442C216.986 258.37 225.708 255.492 234.706 253.896C235.437 253.771 236.136 253.503 236.764 253.107C237.391 252.712 237.934 252.196 238.362 251.591C238.79 250.985 239.095 250.302 239.259 249.578C239.423 248.855 239.443 248.106 239.317 247.376C239.192 246.645 238.924 245.946 238.528 245.318C238.132 244.691 237.617 244.148 237.012 243.72C236.406 243.291 235.722 242.987 234.999 242.823C234.276 242.659 233.527 242.639 232.796 242.765C223.684 244.372 214.82 247.157 206.426 251.05C201.485 225.794 204.809 212.872 208.7 206.391C209.642 204.825 210.887 203.462 212.362 202.382C213.836 201.302 215.511 200.527 217.289 200.101C219.066 199.676 220.91 199.608 222.714 199.903C224.518 200.198 226.245 200.849 227.794 201.818C244.977 212.498 246.209 246.925 246.223 247.405C246.223 247.496 246.252 247.58 246.257 247.669C246.263 247.758 246.257 247.846 246.264 247.936C246.926 253.438 248.234 258.843 250.161 264.039C251.614 267.953 254.21 271.34 257.613 273.76C261.015 276.18 265.067 277.521 269.241 277.61C270.576 277.644 271.963 277.661 273.393 277.661C289.543 277.661 311.433 275.617 330.318 273.417L311.965 301.611C296.368 306.592 280.448 310.497 264.317 313.297C259.555 314.103 242.341 314.043 233.81 306.927Z" fill="black"/>
<path d="M116.329 200.183C122.502 200.183 128.537 198.353 133.67 194.923C138.802 191.493 142.803 186.618 145.165 180.915C147.528 175.211 148.146 168.935 146.941 162.881C145.737 156.826 142.764 151.264 138.399 146.899C134.033 142.534 128.472 139.562 122.417 138.357C116.362 137.153 110.086 137.772 104.383 140.134C98.6796 142.497 93.805 146.498 90.3754 151.631C86.9459 156.764 85.1156 162.799 85.1158 168.972C85.1256 177.247 88.4172 185.18 94.2687 191.031C100.12 196.883 108.054 200.174 116.329 200.183ZM116.329 149.053C120.268 149.053 124.119 150.222 127.395 152.41C130.67 154.599 133.223 157.71 134.731 161.349C136.239 164.989 136.633 168.994 135.864 172.858C135.096 176.722 133.199 180.271 130.413 183.057C127.627 185.842 124.078 187.739 120.214 188.508C116.351 189.276 112.346 188.882 108.706 187.374C105.066 185.867 101.956 183.314 99.7669 180.038C97.5782 176.763 96.41 172.911 96.41 168.972C96.4174 163.692 98.5186 158.631 102.253 154.898C105.987 151.165 111.049 149.065 116.329 149.059V149.053Z" fill="black"/>
<path d="M260.32 125.843L256.196 124.713C254.755 124.329 253.221 124.53 251.928 125.273C250.635 126.016 249.688 127.24 249.295 128.679C248.901 130.117 249.092 131.653 249.827 132.951C250.561 134.248 251.779 135.203 253.215 135.606L257.338 136.736C258.779 137.12 260.314 136.918 261.607 136.176C262.9 135.433 263.846 134.208 264.24 132.77C264.634 131.332 264.442 129.796 263.708 128.498C262.974 127.2 261.756 126.246 260.32 125.843Z" fill="black"/>
<path d="M285.699 127.075L281.464 127.628C280.721 127.715 280.002 127.948 279.35 128.315C278.698 128.681 278.125 129.174 277.665 129.764C277.205 130.354 276.867 131.029 276.67 131.751C276.473 132.472 276.421 133.226 276.518 133.968C276.615 134.71 276.858 135.425 277.234 136.072C277.609 136.719 278.109 137.285 278.706 137.737C279.302 138.189 279.982 138.518 280.706 138.705C281.43 138.892 282.185 138.933 282.925 138.826L287.161 138.274C287.896 138.178 288.605 137.939 289.248 137.568C289.891 137.198 290.454 136.705 290.906 136.118C291.358 135.53 291.69 134.859 291.883 134.143C292.076 133.426 292.126 132.679 292.03 131.944C291.934 131.209 291.694 130.499 291.324 129.857C290.954 129.214 290.461 128.65 289.873 128.198C289.285 127.746 288.614 127.414 287.898 127.221C287.182 127.029 286.435 126.979 285.699 127.075Z" fill="black"/>
<path d="M221.632 395.237L226.279 394.23C227.013 394.082 227.71 393.79 228.329 393.37C228.949 392.95 229.479 392.412 229.888 391.786C230.298 391.159 230.579 390.458 230.715 389.722C230.851 388.987 230.839 388.231 230.681 387.5C230.523 386.768 230.221 386.076 229.792 385.462C229.364 384.849 228.818 384.327 228.186 383.926C227.554 383.525 226.849 383.254 226.111 383.128C225.374 383.002 224.618 383.024 223.889 383.193L219.24 384.2C209.7 386.795 197.035 399.129 197.035 399.129L197.026 399.138L197.015 399.146L132.747 457.939C132.182 458.435 131.721 459.038 131.392 459.714C131.063 460.39 130.872 461.125 130.83 461.876C130.789 462.626 130.898 463.378 131.151 464.086C131.404 464.794 131.796 465.444 132.303 465.999C132.811 466.554 133.424 467.001 134.107 467.316C134.79 467.63 135.529 467.805 136.28 467.83C137.032 467.855 137.781 467.73 138.483 467.462C139.185 467.194 139.827 466.788 140.371 466.268L200.556 411.21C208.603 419.891 227.714 441.812 237.903 464.422C238.205 465.101 238.639 465.714 239.179 466.225C239.719 466.736 240.355 467.135 241.05 467.4C241.745 467.665 242.485 467.79 243.229 467.768C243.972 467.746 244.704 467.577 245.382 467.271C246.06 466.966 246.67 466.529 247.179 465.987C247.688 465.444 248.085 464.807 248.346 464.111C248.608 463.415 248.73 462.674 248.704 461.931C248.679 461.187 248.507 460.457 248.199 459.78C237.259 435.506 217.483 412.801 208.918 403.592C208.918 403.6 215.11 396.759 221.632 395.237Z" fill="black"/>
</svg>
