<svg width="500" height="500" viewBox="0 0 500 500" fill="none" xmlns="http://www.w3.org/2000/svg">
<g clip-path="url(#clip0_1_2)">
<rect width="500" height="500" fill="white"/>
<g clip-path="url(#clip1_1_2)">
<path d="M445.891 375.881H54.1636C52.2 375.881 50.6 377.185 50.6 378.785C50.6 380.385 52.2 381.689 54.1636 381.689H445.882C447.845 381.689 449.445 380.385 449.445 378.785C449.445 377.185 447.855 375.881 445.891 375.881Z" fill="black"/>
<path d="M445.891 329.385H401.591C403.564 328.852 405.518 328.252 407.455 327.585C416.827 324.356 425.236 319.733 432.464 313.845C439.691 307.956 445.364 301.104 449.327 293.467C453.427 285.563 455.509 277.163 455.509 268.511C455.509 259.859 453.427 251.459 449.327 243.556C445.364 235.919 439.691 229.067 432.464 223.178C425.236 217.289 416.827 212.667 407.455 209.437C397.755 206.096 387.445 204.4 376.827 204.4C371.645 204.4 366.482 204.815 361.445 205.63L352.691 183.348C352.636 182.963 352.491 182.578 352.245 182.222L348.573 172.882C348.564 172.837 348.564 172.785 348.555 172.741C348.491 172.356 348.327 172 348.1 171.682L344.491 162.504C347.755 159.43 350.027 155.748 351.127 151.763C352.382 147.185 352.027 142.43 350.082 138.015L335.409 104.682C334.9 103.526 333.555 102.756 332.055 102.756H313.509C307.509 102.756 302.618 106.733 302.618 111.63C302.618 116.526 307.5 120.504 313.509 120.504H325.091C327.055 120.504 328.655 119.207 328.655 117.6C328.655 116 327.055 114.696 325.091 114.696H313.509C311.436 114.696 309.745 113.319 309.745 111.63C309.745 109.941 311.436 108.563 313.509 108.563H329.545L343.373 139.978C346.391 146.83 344.255 154.578 337.945 159.719C337 160.489 336.664 161.622 337.073 162.659L340.255 170.763L200.455 186.807L190.845 171.763C197.036 169.504 203.082 168.526 204.382 168.341H214.364C219.418 168.341 223.536 164.985 223.536 160.867C223.536 156.748 219.418 153.393 214.364 153.393H167.136C157.691 153.393 150.009 159.652 150.009 167.348C150.009 175.045 157.691 181.304 167.136 181.304C172.491 181.304 177.5 179.704 181.236 176.793C182.264 175.993 183.4 175.259 184.6 174.585L194.055 189.393L166.136 212.859C153.355 206.059 138.527 202.467 123.173 202.467C112.555 202.467 102.245 204.163 92.5455 207.504C83.1727 210.733 74.7636 215.356 67.5364 221.245C60.3091 227.133 54.6364 233.985 50.6727 241.622C46.5727 249.526 44.4909 257.926 44.4909 266.578C44.4909 275.23 46.5727 283.63 50.6727 291.533C54.6364 299.17 60.3091 306.022 67.5364 311.911C74.7636 317.8 83.1727 322.422 92.5455 325.652C97.3455 327.304 102.291 328.556 107.355 329.4H54.1636C52.2 329.4 50.6 330.704 50.6 332.304C50.6 333.904 52.2 335.207 54.1636 335.207H445.882C447.845 335.207 449.445 333.904 449.445 332.304C449.445 330.704 447.855 329.385 445.891 329.385ZM176.318 172.578C173.909 174.452 170.655 175.482 167.136 175.482C161.627 175.482 157.136 171.83 157.136 167.333C157.136 162.845 161.618 159.185 167.136 159.185H214.364C215.491 159.185 216.409 159.933 216.409 160.852C216.409 161.77 215.491 162.519 214.364 162.519H204.073C203.882 162.519 203.7 162.533 203.509 162.556C202.809 162.659 186.191 164.889 176.318 172.578ZM376.818 210.207C416.273 210.207 448.373 236.363 448.373 268.511C448.373 300.659 416.273 326.815 376.818 326.815C337.364 326.815 305.264 300.659 305.264 268.511C305.264 247.03 319.973 227.178 343.055 217.089L345.027 221.778C335.109 226.267 326.755 232.8 320.827 240.704C314.564 249.059 311.255 258.674 311.255 268.504C311.255 275.711 312.991 282.711 316.409 289.296C319.709 295.659 324.436 301.37 330.455 306.274C336.473 311.178 343.482 315.03 351.291 317.719C359.373 320.504 367.964 321.919 376.809 321.919C385.655 321.919 394.245 320.504 402.327 317.719C410.136 315.03 417.145 311.178 423.164 306.274C429.182 301.37 433.909 295.659 437.209 289.296C440.627 282.711 442.364 275.711 442.364 268.504C442.364 261.296 440.627 254.296 437.209 247.711C433.909 241.348 429.182 235.637 423.164 230.733C417.145 225.83 410.136 221.978 402.327 219.289C394.245 216.504 385.655 215.089 376.809 215.089C373 215.089 369.191 215.356 365.455 215.889L363.609 211.193C367.955 210.541 372.382 210.207 376.818 210.207ZM373.191 254.6C371.018 254.978 368.991 255.682 367.191 256.652L340.673 193.474L347.327 188.77L373.191 254.6ZM361.391 260.77C361.482 260.985 361.6 261.185 361.736 261.363C360.227 263.467 359.364 265.904 359.364 268.511C359.364 276.356 367.191 282.733 376.818 282.733C386.445 282.733 394.273 276.356 394.273 268.511C394.273 261.748 388.445 256.074 380.673 254.637C380.645 254.541 380.618 254.452 380.582 254.356L367.664 221.482C370.682 221.096 373.745 220.896 376.818 220.896C409.036 220.896 435.255 242.259 435.255 268.511C435.255 294.763 409.036 316.126 376.818 316.126C344.6 316.126 318.382 294.763 318.382 268.511C318.382 251.519 329.436 235.911 347.373 227.378L361.391 260.77ZM376.818 260.096C382.509 260.096 387.145 263.874 387.145 268.511C387.145 273.148 382.509 276.926 376.818 276.926C371.127 276.926 366.491 273.148 366.491 268.511C366.491 263.874 371.127 260.096 376.818 260.096ZM342.455 176.37L344.964 182.748L334.191 190.363C334.173 190.378 334.155 190.385 334.136 190.4L256.109 245.556C255.627 245.067 255.109 244.593 254.555 244.141C250.573 240.896 245.282 239.111 239.655 239.111C238.136 239.111 236.645 239.245 235.2 239.496L205.736 195.096L203.936 192.274L342.455 176.37ZM198.018 265.859C197.855 265.867 197.691 265.889 197.536 265.911L139.1 272.4C140 270.778 140.536 268.993 140.618 267.119L218.636 257.519C218.818 259.563 219.436 261.541 220.455 263.37L198.018 265.859ZM197.473 194.852L200.782 199.837L134.555 255.793C132.755 254.526 130.636 253.563 128.318 252.978L197.473 194.852ZM219.391 251.548L200.327 253.896C198.918 248.163 196.545 242.622 193.273 237.4C190.245 232.57 186.473 228.089 182.055 224.03L204.345 205.2L228.555 241.682C227.191 242.37 225.918 243.193 224.755 244.141C222.182 246.23 220.355 248.778 219.391 251.548ZM139.436 261.385C139.282 261.067 139.118 260.756 138.936 260.452L167.645 236.2C173.682 242.059 177.855 248.978 179.855 256.415L139.436 261.385ZM123.182 258.148C128.873 258.148 133.509 261.926 133.509 266.563C133.509 271.2 128.873 274.978 123.182 274.978C117.491 274.978 112.855 271.2 112.855 266.563C112.855 261.926 117.482 258.148 123.182 258.148ZM186.918 255.548C184.664 246.852 179.764 238.778 172.618 232L177.091 228.222C185.245 235.822 190.791 244.911 193.273 254.763L186.918 255.548ZM118.536 252.852C111.155 254.511 105.727 260.03 105.727 266.563C105.727 274.407 113.555 280.785 123.182 280.785C126.191 280.785 129.018 280.163 131.491 279.067C131.5 279.067 131.509 279.067 131.518 279.067C131.682 279.067 131.836 279.059 132 279.037L180.545 273.652C176.318 296.437 151.873 313.837 123.173 313.837C91.1818 313.837 65.1545 292.63 65.1545 266.563C65.1545 240.496 91.1818 219.289 123.173 219.289C133.1 219.289 142.791 221.341 151.382 225.245L118.536 252.852ZM225.709 256.274C225.709 250.007 231.964 244.911 239.655 244.911C247.345 244.911 253.6 250.007 253.6 256.274C253.6 259.437 252 262.304 249.427 264.37C249.336 264.437 249.255 264.504 249.173 264.57C246.682 266.467 243.336 267.637 239.655 267.637C231.964 267.637 225.709 262.541 225.709 256.274ZM51.6273 266.563C51.6273 234.415 83.7273 208.259 123.182 208.259C136.682 208.259 149.727 211.311 161.082 217.096L156.509 220.941C146.455 216.052 134.964 213.474 123.182 213.474C114.391 213.474 105.855 214.882 97.8273 217.645C90.0727 220.319 83.1 224.148 77.1182 229.022C71.1364 233.896 66.4364 239.57 63.1545 245.896C59.7545 252.445 58.0364 259.393 58.0364 266.556C58.0364 273.719 59.7636 280.674 63.1545 287.215C66.4364 293.533 71.1364 299.215 77.1182 304.089C83.1 308.963 90.0636 312.793 97.8273 315.467C105.864 318.237 114.391 319.637 123.182 319.637C139.682 319.637 155.427 314.6 167.509 305.459C178.9 296.837 186.073 285.319 187.873 272.837L194.418 272.111C191 301.963 160.491 324.867 123.182 324.867C83.7273 324.867 51.6273 298.711 51.6273 266.563ZM153.191 325.845C162.391 322.748 170.7 318.311 177.882 312.645C185.055 306.993 190.773 300.385 194.873 293.007C198.7 286.133 200.973 278.845 201.645 271.311L225.118 268.704C229.055 271.763 234.191 273.445 239.655 273.445C243.709 273.445 247.591 272.519 250.927 270.785L261.645 283.933H254.127C252.164 283.933 250.564 285.237 250.564 286.837C250.564 288.437 252.164 289.741 254.127 289.741H276.027C277.991 289.741 279.591 288.437 279.591 286.837C279.591 285.237 277.991 283.933 276.027 283.933H270.2L256.273 266.837C259.164 263.83 260.727 260.148 260.727 256.274C260.727 254.37 260.345 252.511 259.618 250.763L334.864 197.578L340.718 211.526C328.564 216.645 318.255 224.252 310.773 233.645C302.509 244.022 298.136 256.082 298.136 268.504C298.136 277.156 300.218 285.556 304.318 293.459C308.282 301.096 313.955 307.948 321.182 313.837C328.409 319.726 336.818 324.348 346.191 327.578C348.118 328.245 350.073 328.845 352.055 329.378H139C143.845 328.578 148.582 327.4 153.191 325.845Z" fill="black"/>
<path d="M123.118 357.178C125.082 357.178 126.682 355.874 126.682 354.274C126.682 352.674 125.082 351.37 123.118 351.37H91.7727C89.8091 351.37 88.2091 352.674 88.2091 354.274C88.2091 355.874 89.8091 357.178 91.7727 357.178H123.118Z" fill="black"/>
<path d="M196.855 357.178C198.818 357.178 200.418 355.874 200.418 354.274C200.418 352.674 198.818 351.37 196.855 351.37H165.509C163.545 351.37 161.945 352.674 161.945 354.274C161.945 355.874 163.545 357.178 165.509 357.178H196.855Z" fill="black"/>
<path d="M266.636 357.178C268.6 357.178 270.2 355.874 270.2 354.274C270.2 352.674 268.6 351.37 266.636 351.37H235.291C233.327 351.37 231.727 352.674 231.727 354.274C231.727 355.874 233.327 357.178 235.291 357.178H266.636Z" fill="black"/>
<path d="M337.336 357.178C339.3 357.178 340.9 355.874 340.9 354.274C340.9 352.674 339.3 351.37 337.336 351.37H305.991C304.027 351.37 302.427 352.674 302.427 354.274C302.427 355.874 304.027 357.178 305.991 357.178H337.336Z" fill="black"/>
<path d="M407.127 357.178C409.091 357.178 410.691 355.874 410.691 354.274C410.691 352.674 409.091 351.37 407.127 351.37H375.782C373.818 351.37 372.218 352.674 372.218 354.274C372.218 355.874 373.818 357.178 375.782 357.178H407.127Z" fill="black"/>
</g>
</g>
<defs>
<clipPath id="clip0_1_2">
<rect width="500" height="500" fill="white"/>
</clipPath>
<clipPath id="clip1_1_2">
<rect width="500" height="500" fill="white" transform="translate(0 20)"/>
</clipPath>
</defs>
</svg>
