<svg width="500" height="500" viewBox="0 0 500 500" fill="none" xmlns="http://www.w3.org/2000/svg">
<g clip-path="url(#clip0_1_2)">
<rect width="500" height="500" fill="white"/>
<path d="M183.726 178.809H314.204C314.936 178.809 315.569 179.05 315.974 179.377V179.378L362.481 217.543L362.533 217.596L362.623 217.672C362.697 217.735 362.784 217.828 362.888 217.972C362.908 218 362.918 218.015 362.923 218.023L362.933 218.039L362.943 218.056C362.987 218.128 363.014 218.18 363.029 218.214L363.061 218.341C363.069 218.374 363.073 218.401 363.073 218.436V369.166C363.073 369.354 362.985 369.647 362.606 369.956C362.222 370.269 361.606 370.524 360.841 370.524H138.106C137.341 370.524 136.724 370.269 136.34 369.956C135.961 369.647 135.874 369.354 135.874 369.166V218.462C135.877 218.441 135.883 218.403 135.899 218.324L135.914 218.253L135.919 218.209C135.933 218.175 135.958 218.123 136 218.053L136.005 218.045C135.996 218.059 135.996 218.058 136.017 218.028L136.033 218.007L136.048 217.986C136.134 217.862 136.219 217.766 136.309 217.687L136.306 217.684C136.351 217.644 136.394 217.608 136.428 217.573L181.938 179.394C182.336 179.06 182.975 178.809 183.726 178.809ZM140.338 367.808H358.608V219.794H140.338V367.808ZM184.12 182.107L147.698 212.662L142.435 217.077H247.243V181.523H184.817L184.12 182.107ZM251.707 217.077H356.463L351.059 212.645L313.818 182.089L313.127 181.523H251.707V217.077Z" fill="black" stroke="black" stroke-width="5"/>
<path d="M246.131 330.082C247.055 330.835 248.266 331.211 249.478 331.211C250.689 331.211 251.898 330.835 252.822 330.082L289.71 300.012C291.559 298.505 291.559 296.064 289.71 294.557C287.862 293.05 284.868 293.05 283.019 294.557L254.207 318.042V260.241C254.207 258.112 252.087 256.383 249.475 256.383C246.863 256.383 244.743 258.112 244.743 260.241V318.042L215.93 294.557C214.082 293.05 211.088 293.05 209.239 294.557C207.39 296.064 207.39 298.505 209.239 300.012L246.131 330.082Z" fill="black"/>
</g>
<defs>
<clipPath id="clip0_1_2">
<rect width="500" height="500" fill="white"/>
</clipPath>
</defs>
</svg>
