<svg width="500" height="500" viewBox="0 0 500 500" fill="none" xmlns="http://www.w3.org/2000/svg">
<g clip-path="url(#clip0_1_2)">
<rect width="500" height="500" fill="white"/>
<g clip-path="url(#clip1_1_2)">
<path fill-rule="evenodd" clip-rule="evenodd" d="M164.773 87.1852C122.603 87.1852 89.0091 111.751 89.0091 141.193C89.0091 145.446 93.235 148.904 98.4727 148.904H155.291V179.763H60.6C55.38 179.763 51.1364 183.221 51.1364 187.474V249.207C51.1364 253.461 55.38 256.919 60.6 256.919H79.5455V403.519C79.5455 407.772 83.789 411.23 89.0091 411.23C94.2291 411.23 98.4727 407.772 98.4727 403.519V256.919H401.509V403.519C401.509 407.772 405.753 411.23 410.973 411.23C416.193 411.23 420.436 407.772 420.436 403.519V256.919H439.382C444.602 256.919 448.845 253.461 448.845 249.207V187.474C448.845 183.221 444.602 179.763 439.382 179.763H399.431L394.69 164.326H410.972C416.192 164.326 420.436 160.868 420.436 156.615C420.436 152.361 416.192 148.904 410.972 148.904H303.177L286.877 122.312C284.551 118.493 278.834 116.959 274.164 118.854C269.495 120.764 267.577 125.394 269.921 129.199L288.866 160.058C290.464 162.677 293.749 164.34 297.336 164.34H313.617L308.876 179.777H174.235V148.918H231.054C236.291 148.918 240.517 145.46 240.517 141.207C240.517 111.751 206.941 87.1997 164.754 87.1997L164.773 87.1852ZM164.773 102.622C191.975 102.622 215.182 115.672 220.473 133.481H109.091C114.382 115.672 137.589 102.622 164.791 102.622H164.773ZM333.15 164.356H375.178L379.919 179.793H328.428L333.169 164.356H333.15ZM70.0636 195.215H98.4727V241.511H70.0636V195.215ZM117.418 195.215H145.827V241.511H117.418V195.215ZM164.773 195.215H193.182V241.511H164.773V195.215ZM212.127 195.215H240.536V241.511H212.127V195.215ZM259.482 195.215H287.891V241.511H259.482V195.215ZM306.836 195.215H335.245V241.511H306.836V195.215ZM354.191 195.215H382.6V241.511H354.191V195.215ZM401.545 195.215H429.955V241.511H401.545V195.215ZM136.4 280.096C131.18 280.096 126.936 283.554 126.936 287.807V318.667C126.936 322.92 131.18 326.378 136.4 326.378V364.963C136.4 369.216 140.644 372.674 145.864 372.674H202.682C207.902 372.674 212.145 369.216 212.145 364.963V326.378C217.365 326.378 221.609 322.92 221.609 318.667V287.807C221.609 283.554 217.366 280.096 212.145 280.096H136.382H136.4ZM287.909 280.096C282.689 280.096 278.445 283.554 278.445 287.807V318.667C278.445 322.92 282.689 326.378 287.909 326.378V364.963C287.909 369.216 292.153 372.674 297.373 372.674H354.191C359.411 372.674 363.655 369.216 363.655 364.963V326.378C368.875 326.378 373.118 322.92 373.118 318.667V287.807C373.118 283.554 368.875 280.096 363.655 280.096H287.891H287.909ZM145.864 295.533H202.682V310.97H145.864V295.533ZM297.373 295.533H354.191V310.97H297.373V295.533ZM155.327 326.393H193.2V357.252H155.327V326.393ZM306.836 326.393H344.709V357.252H306.836V326.393Z" fill="black"/>
</g>
</g>
<defs>
<clipPath id="clip0_1_2">
<rect width="500" height="500" fill="white"/>
</clipPath>
<clipPath id="clip1_1_2">
<rect width="500" height="500" fill="white"/>
</clipPath>
</defs>
</svg>
