<svg width="500" height="500" viewBox="0 0 500 500" fill="none" xmlns="http://www.w3.org/2000/svg">
<path d="M452.5 221.106H430.3V47.3877C430.295 45.6952 429.619 44.0738 428.421 42.8787C427.222 41.6837 425.599 41.0127 423.906 41.0127H226.469C225.632 41.0127 224.803 41.1776 224.029 41.498C223.256 41.8183 222.553 42.2879 221.961 42.8799C221.369 43.4719 220.9 44.1746 220.579 44.9481C220.259 45.7215 220.094 46.5505 220.094 47.3877V92.5002C220.094 93.3374 220.259 94.1664 220.579 94.9398C220.9 95.7133 221.369 96.416 221.961 97.008C222.553 97.6 223.256 98.0696 224.029 98.3899C224.803 98.7103 225.632 98.8752 226.469 98.8752H285.906V131.069H226.469C225.632 131.069 224.803 131.234 224.029 131.554C223.256 131.875 222.553 132.344 221.961 132.936C221.369 133.528 220.9 134.231 220.579 135.004C220.259 135.778 220.094 136.607 220.094 137.444V227.444C220.1 228.358 220.307 229.26 220.698 230.086C221.09 230.912 221.658 231.642 222.363 232.225H147.119C145.378 232.241 143.648 232.506 141.981 233.013C130.9 223.094 119.106 218.331 106.975 218.819C90.2315 219.55 77.8565 230.238 73.0752 235.075H47.5002C45.8095 235.075 44.188 235.747 42.9924 236.942C41.7969 238.138 41.1252 239.759 41.1252 241.45C41.1252 243.141 41.7969 244.762 42.9924 245.958C44.188 247.154 45.8095 247.825 47.5002 247.825H75.869C76.805 247.824 77.7294 247.619 78.5779 247.224C79.4264 246.829 80.1784 246.253 80.7815 245.538C80.894 245.406 92.0315 232.188 107.631 231.55C117.138 231.25 126.681 235.6 135.925 244.675L147.888 266.106C148.355 266.917 148.995 267.615 149.763 268.15C153.25 270.7 160.469 277.619 160.506 282.756C160.506 283.506 160.506 285.475 157.131 288.044C150.156 293.256 125.856 272.181 108.381 250C107.333 248.677 105.803 247.824 104.126 247.628C102.45 247.432 100.764 247.909 99.4384 248.954C98.1129 249.999 97.2559 251.527 97.0554 253.203C96.8549 254.879 97.3273 256.566 98.369 257.894C104.612 265.941 111.39 273.558 118.656 280.694C116.931 282.777 115.697 285.223 115.048 287.85C114.398 290.476 114.35 293.215 114.906 295.863C111.732 296.473 108.784 297.935 106.376 300.091C103.969 302.248 102.192 305.018 101.238 308.106C100.495 310.4 100.214 312.817 100.411 315.22C100.607 317.622 101.277 319.962 102.382 322.104C103.487 324.246 105.006 326.149 106.849 327.701C108.693 329.254 110.826 330.426 113.125 331.15L140.013 339.7C131.029 342.415 121.582 343.245 112.263 342.138C90.5502 338.969 79.7502 330.719 79.6752 330.644C79.3613 330.406 79.029 330.193 78.6815 330.006C77.7815 329.519 69.194 325.3 47.5002 325.3C45.8095 325.3 44.188 325.972 42.9924 327.167C41.7969 328.363 41.1252 329.984 41.1252 331.675C41.1252 333.366 41.7969 334.987 42.9924 336.183C44.188 337.379 45.8095 338.05 47.5002 338.05C63.6627 338.05 70.994 340.581 72.4377 341.144C75.494 343.356 88.0565 351.494 110.425 354.756C113.58 355.212 116.763 355.438 119.95 355.431C137.763 355.431 153.7 348.813 159.738 346.056L162.756 347.013C165.631 347.93 168.688 348.12 171.654 347.564C174.62 347.008 177.401 345.725 179.749 343.829C182.096 341.933 183.936 339.484 185.104 336.702C186.271 333.92 186.73 330.891 186.438 327.888C189.878 327.778 193.222 326.723 196.103 324.839C198.984 322.955 201.291 320.314 202.771 317.206C204.25 314.098 204.845 310.642 204.491 307.218C204.137 303.794 202.847 300.534 200.763 297.794C203.916 296.55 206.697 294.517 208.841 291.891C210.985 289.265 212.419 286.133 213.006 282.794C213.746 278.266 212.877 273.623 210.55 269.669H220.994C220.467 270.59 220.177 271.627 220.15 272.688V452.781C220.15 454.472 220.822 456.094 222.017 457.289C223.213 458.485 224.834 459.156 226.525 459.156H423.963C425.655 459.156 427.279 458.485 428.477 457.29C429.676 456.095 430.351 454.474 430.356 452.781V317.5C430.351 315.808 429.676 314.186 428.477 312.991C427.279 311.796 425.655 311.125 423.963 311.125H364.525V278.894H452.65C454.341 278.894 455.962 278.222 457.158 277.027C458.354 275.831 459.025 274.21 459.025 272.519V227.5C459.028 226.649 458.86 225.805 458.531 225.02C458.203 224.234 457.72 223.522 457.112 222.926C456.504 222.33 455.782 221.862 454.99 221.55C454.198 221.237 453.352 221.086 452.5 221.106ZM285.85 311.106H232.788V278.894H285.85V311.106ZM417.475 401.106H364.488V368.931H417.531L417.475 401.106ZM351.663 401.106H298.75V368.931H351.813L351.663 401.106ZM285.85 401.106H232.788V368.931H285.85V401.106ZM157.15 256.731L150.625 245.013H242.875C244.432 245.013 245.924 245.631 247.025 246.732C248.126 247.832 248.744 249.325 248.744 250.881C248.744 252.438 248.126 253.931 247.025 255.031C245.924 256.132 244.432 256.75 242.875 256.75L157.15 256.731ZM232.788 221.106V188.838H285.85V221.106H232.788ZM298.75 188.838H351.813V221.106H298.75V188.838ZM364.581 188.838H417.625V221.106H364.488L364.581 188.838ZM364.581 98.8377H417.625V131.069H364.488L364.581 98.8377ZM232.938 53.8377H417.625V86.0502H232.938V53.8377ZM298.75 98.8377H351.813V131.069H298.75V98.8377ZM232.938 143.838H417.625V176.088H232.938V143.838ZM173.463 331.225C173.243 331.91 172.889 332.544 172.423 333.091C171.956 333.638 171.385 334.088 170.744 334.413C169.454 335.084 167.951 335.219 166.563 334.788L116.875 319C115.488 318.557 114.332 317.582 113.661 316.289C112.99 314.996 112.858 313.49 113.294 312.1C113.514 311.416 113.867 310.781 114.334 310.234C114.801 309.687 115.371 309.238 116.013 308.913C116.648 308.571 117.346 308.362 118.065 308.297C118.784 308.233 119.508 308.315 120.194 308.538L169.825 324.325C170.511 324.542 171.147 324.895 171.694 325.362C172.242 325.829 172.69 326.401 173.013 327.044C173.709 328.323 173.871 329.827 173.463 331.225ZM191.481 310.881C191.237 311.65 190.843 312.362 190.322 312.976C189.8 313.591 189.162 314.096 188.444 314.463C187.734 314.836 186.957 315.063 186.159 315.13C185.36 315.198 184.556 315.105 183.794 314.856L131.5 298.225C131.281 298.164 131.067 298.082 130.863 297.981C129.489 297.352 128.391 296.243 127.777 294.862C127.162 293.481 127.073 291.924 127.525 290.481C127.715 290.049 127.954 289.64 128.238 289.263C140.106 298.638 148.863 301.263 154.975 301.263C158.462 301.372 161.888 300.331 164.725 298.3C165.45 297.757 166.145 297.175 166.806 296.556L187.431 303.138C188.209 303.375 188.933 303.764 189.559 304.283C190.185 304.802 190.701 305.441 191.078 306.161C191.455 306.882 191.685 307.671 191.754 308.481C191.823 309.291 191.731 310.107 191.481 310.881ZM194.613 272.369C196.442 272.707 198.064 273.752 199.127 275.278C200.191 276.804 200.61 278.687 200.295 280.52C199.979 282.353 198.953 283.988 197.441 285.07C195.928 286.152 194.049 286.594 192.213 286.3L173.125 283V282.756C172.877 277.965 171.22 273.354 168.363 269.5H178.038L194.613 272.369ZM417.531 446.238H232.844V413.95H417.531V446.238ZM417.531 356.238H232.844V323.913H417.531V356.238ZM351.719 311.238H298.75V278.894H351.813L351.719 311.238ZM446.181 266.238H261.494V233.856H446.181V266.238Z" fill="black"/>
</svg>
