<svg width="500" height="500" viewBox="0 0 500 500" fill="none" xmlns="http://www.w3.org/2000/svg">
<g clip-path="url(#clip0_1_2)">
<rect width="500" height="500" fill="white"/>
<path d="M249.236 49.1463C249.663 47.1353 251.243 45.4137 253.48 44.4878C257.599 44.589 261.523 45.9635 264.453 48.3363C312.59 76.4322 330.79 132.103 309.837 176.621C307.564 181.468 301.776 189.483 313.299 191.205C328.871 193.534 334.482 166.35 335.298 158.06C335.582 155.224 335.014 152.215 335.547 149.423C337.216 140.757 345.792 147.701 348.97 151.043C409.32 214.324 422.938 301.476 329.812 347.584C340.075 353.4 361.754 359.953 364.027 370.11C365.341 375.983 358.576 386.227 354.244 391.276C345.029 401.981 332.422 396.484 322.141 391.565L288.21 375.029C283.345 372.699 278.285 370.515 273.722 367.795C272.426 375.853 275.959 384.288 271.591 391.941C265.625 400.144 254.386 400.246 243.821 399.869C222.692 399.131 224.627 380.034 225.267 367.795V367.809C221.431 369.386 217.72 371.18 214.152 373.162L191.691 384.707C178.356 391.608 156.73 406.77 144.054 389.699C130.045 370.833 130.968 366.681 153.713 355.685L168.291 348.567C140.183 336.024 115.022 323.379 105.895 295.993C91.1048 251.593 138.921 219.53 127.664 171.182C126.989 168.303 120.313 156.613 131.41 157.872C131.801 157.915 143.893 164.541 145.348 165.322C153.374 169.706 160.458 175.146 166.3 181.41C178.25 150.479 194.337 131.062 220.173 105.948C237.663 88.9483 259.215 73.2207 249.236 49.1463ZM263.423 60.0548C263.494 79.8174 248.029 94.0826 233.008 108.203C208.008 131.684 186.185 156.581 176.653 187.066C174.931 192.549 176.12 200.174 168.29 201.504C161.899 200.029 163.692 196.99 161.401 192.882C156.501 184.838 148.866 178.11 139.402 173.495C146.167 205.309 129.655 225.895 119.161 253.847C107.531 284.779 116.622 310.403 149.967 329.425H149.949C169.48 340.579 191.87 348.001 215.413 351.126C212.252 348.16 208.541 345.614 204.386 343.603C185.53 333.418 174.22 311.789 175.942 293.777C179.422 257.391 236.078 233.518 228.269 189.366C227.79 186.617 223.173 175.072 233.951 177.879L233.969 177.893C240.45 182.089 246.433 186.776 251.813 191.883C289.171 224.566 343.609 290.365 310.495 336.243C307.317 340.641 303.215 344.344 299.806 348.554L299.824 348.569C304.032 346.775 308.364 345.198 312.803 343.824C346.628 331.917 371.93 308.045 381.462 279.039C394.229 240.09 376.509 201.335 350.461 168.868C348.934 166.958 347.105 165.092 345.791 163.081C344.193 173.99 339.577 189.803 328.622 196.805H328.64C319.62 202.824 306.356 201.782 298.916 194.476C291.015 186.027 296.182 180.095 300.124 171.776C314.222 142.089 306.267 102.376 283.256 77.0282C277.787 70.5467 271.094 64.8144 263.423 60.0548ZM239.701 194.951C242.489 214.584 228.391 235.618 215.199 251.055C191.655 278.601 172.301 296.57 202.468 330.177C197.354 304.772 220.028 285.444 242.01 270.599C248.65 266.114 256.747 260.674 258.238 271.467C265.27 301.936 296.235 305.538 296.875 326.949L296.892 326.963C297.176 330.537 296.821 334.125 295.845 337.611C298.277 334.949 300.514 332.171 302.557 329.293C326.953 292.211 281.871 234.255 253.443 207.274C249.483 202.731 244.868 198.597 239.701 194.951ZM247.798 278.359C232.901 288.949 214.612 302.997 213.21 320.07C211.629 338.849 227.805 354.401 251.526 354.228C271.484 354.372 285.564 344.592 285.777 327.926C285.937 315.44 262.038 304.85 253.497 290.296L253.515 290.31C251.935 286.23 250.017 282.236 247.798 278.359ZM316.866 352.229C306 356.034 294.831 359.274 283.467 361.922C297.512 368.447 313.279 375.999 326.915 383.117C335.971 387.631 341.209 391.566 347.494 382.264C349.501 379.298 353.904 374.249 352.821 370.849H352.803C341.315 364.035 329.312 357.813 316.866 352.229ZM180.361 353.097C175.408 355.571 147.638 368.447 146.608 371.485C145.312 375.435 154.154 386.965 159.41 387.935C164.435 388.875 171.625 383.652 176.135 381.786C181.231 378.777 186.735 376.158 192.045 373.424L217.506 360.345H217.489C209.179 359.983 200.976 358.739 193.057 356.685C188.92 355.253 184.676 354.066 180.361 353.111L180.361 353.097ZM236.22 361.141C236.22 366.031 235.244 385.649 239.168 388.847C242.382 391.48 256.728 391.407 260.723 388.47C264.132 384.998 261.505 368.968 262.375 363.282H262.357C253.568 363.904 244.69 363.167 236.221 361.156L236.22 361.141Z" fill="black"/>
</g>
<defs>
<clipPath id="clip0_1_2">
<rect width="500" height="500" fill="white"/>
</clipPath>
</defs>
</svg>
