<svg width="500" height="500" viewBox="0 0 500 500" fill="none" xmlns="http://www.w3.org/2000/svg">
<path d="M312.346 348.514C310.134 348.546 308.023 349.447 306.469 351.022C304.916 352.598 304.045 354.721 304.045 356.934C304.045 359.146 304.916 361.27 306.469 362.846C308.023 364.421 310.134 365.322 312.346 365.354C314.558 365.322 316.669 364.421 318.222 362.846C319.776 361.27 320.646 359.146 320.646 356.934C320.646 354.721 319.776 352.598 318.222 351.022C316.669 349.447 314.558 348.546 312.346 348.514Z" fill="black"/>
<path d="M312.348 385.571C310.141 385.609 308.037 386.513 306.489 388.088C304.942 389.663 304.075 391.782 304.075 393.99C304.075 396.198 304.942 398.317 306.489 399.892C308.037 401.467 310.141 402.371 312.348 402.409C314.556 402.371 316.66 401.467 318.207 399.892C319.755 398.317 320.622 396.198 320.622 393.99C320.622 391.782 319.755 389.663 318.207 388.088C316.66 386.513 314.556 385.609 312.348 385.571Z" fill="black"/>
<path d="M322.456 375.456C322.488 377.668 323.389 379.779 324.965 381.332C326.54 382.886 328.664 383.756 330.876 383.756C333.089 383.756 335.212 382.886 336.788 381.332C338.363 379.779 339.264 377.668 339.296 375.456C339.264 373.244 338.363 371.133 336.788 369.58C335.212 368.026 333.089 367.156 330.876 367.156C328.664 367.156 326.54 368.026 324.965 369.58C323.389 371.133 322.488 373.244 322.456 375.456Z" fill="black"/>
<path d="M285.4 375.456C285.431 377.668 286.332 379.779 287.908 381.332C289.484 382.886 291.607 383.756 293.82 383.756C296.032 383.756 298.156 382.886 299.731 381.332C301.307 379.779 302.208 377.668 302.239 375.456C302.208 373.244 301.307 371.133 299.731 369.58C298.156 368.026 296.032 367.156 293.82 367.156C291.607 367.156 289.484 368.026 287.908 369.58C286.332 371.133 285.431 373.244 285.4 375.456Z" fill="black"/>
<path d="M183.092 404.687C184.197 404.687 185.293 404.47 186.314 404.047C187.336 403.624 188.264 403.003 189.046 402.221C189.828 401.44 190.448 400.511 190.871 399.49C191.294 398.468 191.512 397.373 191.511 396.267V383.884H203.894C206.127 383.884 208.268 382.997 209.847 381.418C211.426 379.839 212.314 377.697 212.314 375.464C212.314 373.231 211.426 371.089 209.847 369.51C208.268 367.931 206.127 367.044 203.894 367.044H191.511V354.661C191.511 352.428 190.624 350.287 189.045 348.708C187.466 347.129 185.325 346.241 183.092 346.241C180.859 346.241 178.717 347.129 177.138 348.708C175.559 350.287 174.672 352.428 174.672 354.661V367.044H162.289C160.056 367.044 157.914 367.931 156.335 369.51C154.756 371.089 153.869 373.231 153.869 375.464C153.869 377.697 154.756 379.839 156.335 381.418C157.914 382.997 160.056 383.884 162.289 383.884H174.672V396.266C174.672 397.372 174.889 398.467 175.312 399.489C175.735 400.511 176.355 401.439 177.137 402.221C177.919 403.003 178.847 403.623 179.869 404.046C180.891 404.47 181.986 404.687 183.092 404.687Z" fill="black"/>
<path d="M314.117 311.428H185.974C169.478 311.448 153.663 318.009 141.998 329.673C130.334 341.337 123.772 357.151 123.752 373.647V451.191C123.752 456.189 124.736 461.138 126.649 465.755C128.561 470.372 131.364 474.568 134.898 478.102C138.432 481.636 142.628 484.439 147.245 486.352C151.862 488.264 156.811 489.249 161.809 489.249C166.807 489.249 171.756 488.264 176.373 486.352C180.99 484.439 185.186 481.636 188.72 478.102C192.254 474.568 195.057 470.372 196.969 465.755C198.882 461.138 199.866 456.189 199.866 451.191V438.182C214.252 435.531 227.167 427.697 236.164 416.163H263.93C272.927 427.697 285.842 435.531 300.228 438.182V451.19C300.314 458.685 302.601 465.989 306.804 472.195C311.007 478.4 316.94 483.235 323.867 486.097C330.794 488.959 338.409 489.723 345.767 488.294C353.124 486.865 359.899 483.305 365.251 478.058C376.474 467.551 376.948 452.126 376.337 437.884C376.315 435.666 375.418 433.546 373.841 431.985C372.265 430.425 370.136 429.549 367.918 429.549C365.7 429.549 363.571 430.425 361.994 431.985C360.418 433.546 359.521 435.666 359.499 437.884V451.187C359.437 456.774 357.175 462.111 353.202 466.04C349.23 469.968 343.868 472.172 338.281 472.172C332.694 472.172 327.333 469.968 323.36 466.04C319.388 462.111 317.125 456.774 317.064 451.187V430.734C317.064 428.588 316.244 426.523 314.772 424.962C313.3 423.4 311.288 422.46 309.146 422.334C302.48 422.058 295.973 420.218 290.15 416.961C284.328 413.704 279.354 409.123 275.631 403.587C274.896 402.294 273.832 401.219 272.547 400.471C271.261 399.723 269.801 399.328 268.314 399.328H231.774C230.3 399.339 228.854 399.732 227.577 400.468C226.301 401.204 225.236 402.258 224.488 403.528C220.77 409.08 215.795 413.676 209.966 416.943C204.138 420.21 197.621 422.056 190.945 422.33C188.803 422.457 186.79 423.397 185.318 424.958C183.847 426.52 183.027 428.585 183.027 430.73V451.187C182.965 456.774 180.703 462.111 176.73 466.04C172.758 469.968 167.397 472.172 161.809 472.172C156.222 472.172 150.861 469.968 146.888 466.04C142.916 462.111 140.654 456.774 140.592 451.187V373.646C140.605 361.614 145.391 350.079 153.899 341.572C162.407 333.065 173.942 328.28 185.974 328.267H207.641L209.247 339.31C210.041 344.599 212.701 349.431 216.746 352.931C220.791 356.43 225.955 358.368 231.304 358.393H268.847C274.196 358.368 279.359 356.43 283.404 352.93C287.449 349.431 290.109 344.599 290.903 339.31L292.509 328.267H314.117C326.149 328.279 337.684 333.064 346.193 341.572C354.701 350.079 359.486 361.614 359.499 373.646V404.209C359.499 406.442 360.387 408.583 361.966 410.162C363.545 411.741 365.686 412.628 367.919 412.628C370.152 412.628 372.294 411.741 373.873 410.162C375.452 408.583 376.339 406.442 376.339 404.209V373.646C376.319 357.15 369.757 341.336 358.092 329.672C346.427 318.009 330.613 311.448 314.117 311.428ZM274.234 336.893C274.04 338.185 273.39 339.365 272.401 340.22C271.413 341.075 270.151 341.548 268.844 341.555H231.301C224.701 341.608 225.649 332.597 224.657 328.269H275.485L274.234 336.893Z" fill="black"/>
<path d="M490 43.6781C489.99 34.7489 486.439 26.1881 480.125 19.8743C473.811 13.5605 465.25 10.0093 456.321 10H149.005C146.797 10.0386 144.693 10.9426 143.146 12.5173C141.599 14.092 140.731 16.2115 140.731 18.4193C140.731 20.6271 141.599 22.7466 143.146 24.3213C144.693 25.8961 146.797 26.8001 149.005 26.8386H456.321C460.785 26.8439 465.066 28.6197 468.222 31.7766C471.379 34.9335 473.155 39.2136 473.16 43.6781V166.206L434.043 154.021V109.547C434.038 105.083 432.262 100.803 429.105 97.6457C425.948 94.4888 421.668 92.713 417.203 92.7077H399.945V76.0328C399.94 71.5684 398.164 67.2882 395.007 64.1313C391.851 60.9744 387.57 59.1985 383.106 59.1933H340.249C335.784 59.1985 331.504 60.9744 328.347 64.1313C325.19 67.2881 323.414 71.5683 323.409 76.0328V122.515H308.423C305.134 122.522 301.919 123.492 299.175 125.305C296.43 127.119 294.277 129.696 292.981 132.718C291.684 135.741 291.3 139.077 291.878 142.315C292.455 145.553 293.968 148.551 296.229 150.94L461.17 316.357C462.946 318.127 388.205 316.724 387.112 317.155C384.9 317.186 382.79 318.087 381.237 319.663C379.683 321.238 378.813 323.362 378.813 325.574C378.813 327.786 379.683 329.909 381.237 331.485C382.79 333.06 384.9 333.961 387.112 333.993H456.323C460.954 334.016 465.539 333.063 469.778 331.196C474.016 329.328 477.814 326.588 480.923 323.155C486.737 316.968 489.982 308.803 490 300.313V43.6781ZM417.203 109.547V148.776L399.945 143.4V109.543L417.203 109.547ZM340.247 109.547H383.104V138.155L340.247 124.804V109.547ZM383.104 76.0328V92.7077H340.247V76.0328H383.104ZM327.616 139.353C327.93 139.353 328.302 139.421 328.618 139.438L395.59 191.362C397.063 192.51 398.878 193.132 400.745 193.129C402.487 193.1 404.177 192.536 405.585 191.512C406.994 190.488 408.053 189.055 408.618 187.407C409.183 185.76 409.226 183.979 408.743 182.306C408.259 180.633 407.271 179.149 405.914 178.058L373.241 152.726L473.165 183.851V230.335L432.69 198.942C430.922 197.637 428.713 197.074 426.535 197.376C424.358 197.677 422.384 198.818 421.037 200.555C419.689 202.292 419.075 204.487 419.324 206.671C419.573 208.855 420.667 210.855 422.371 212.244L473.164 251.641C473.245 253.417 473.431 304.995 472.706 304.076L308.423 139.353H327.616Z" fill="black"/>
<path d="M124.705 218.288C125.488 219.069 126.417 219.688 127.439 220.109C128.461 220.531 129.556 220.747 130.662 220.746C131.768 220.744 132.862 220.525 133.883 220.1C134.904 219.675 135.831 219.054 136.612 218.27L204.075 150.63C206.224 148.202 207.63 145.209 208.127 142.005C208.623 138.802 208.189 135.523 206.876 132.559C205.563 129.595 203.426 127.071 200.719 125.286C198.013 123.502 194.851 122.532 191.61 122.493H177.078V76.0356C177.072 71.5711 175.296 67.291 172.14 64.1341C168.983 60.9772 164.703 59.2014 160.238 59.1961H117.381C112.916 59.2014 108.636 60.9772 105.479 64.1341C102.322 67.291 100.546 71.5711 100.541 76.0356V92.7106H83.286C78.8215 92.7158 74.5413 94.4916 71.3844 97.6485C68.2276 100.805 66.4517 105.086 66.4465 109.55V153.859L26.8464 166.194V43.6784C26.8516 39.2151 28.6265 34.9359 31.7819 31.7792C34.9373 28.6225 39.2157 26.8459 43.679 26.8389H115.328C117.535 26.8003 119.639 25.8963 121.187 24.3216C122.734 22.7468 123.601 20.6274 123.601 18.4196C123.601 16.2118 122.734 14.0923 121.187 12.5175C119.639 10.9428 117.535 10.0388 115.328 10.0002H43.679C34.7498 10.0095 26.1889 13.5607 19.8749 19.8746C13.5609 26.1884 10.0095 34.7492 10 43.6784V300.313C10.0425 309.124 13.5111 317.572 19.672 323.871C22.7966 327.073 26.5301 329.619 30.653 331.357C34.7759 333.095 39.2048 333.99 43.679 333.991H112.972C114.085 334.002 115.189 333.793 116.22 333.375C117.252 332.957 118.19 332.338 118.981 331.556C119.772 330.773 120.4 329.841 120.828 328.814C121.256 327.787 121.477 326.685 121.477 325.572C121.477 324.459 121.256 323.357 120.828 322.33C120.4 321.303 119.772 320.371 118.981 319.588C118.19 318.805 117.252 318.187 116.22 317.769C115.189 317.351 114.085 317.141 112.972 317.153H43.679C42.036 317.129 40.4057 316.861 38.8413 316.359L112.87 242.099C114.395 240.508 115.235 238.382 115.211 236.177C115.186 233.973 114.297 231.866 112.736 230.31C111.175 228.753 109.066 227.871 106.862 227.852C104.658 227.833 102.534 228.68 100.947 230.21L27.3015 304.085C26.3483 307.465 27.0444 251.14 26.8395 251.687L171.423 139.406C171.781 139.39 172.139 139.328 172.498 139.328L191.878 139.024L124.686 206.381C123.905 207.164 123.287 208.093 122.865 209.115C122.443 210.137 122.227 211.233 122.229 212.338C122.231 213.444 122.45 214.538 122.875 215.559C123.3 216.58 123.922 217.507 124.705 218.288ZM160.238 124.64L117.381 137.988V109.547H160.238V124.64ZM117.381 76.0331H160.238V92.708H117.381V76.0331ZM83.2791 109.547H100.541V143.233L83.2791 148.61V109.547ZM26.8369 183.836L77.688 167.996C77.8817 167.926 78.0848 167.898 78.2717 167.814L126.879 152.673L26.8395 230.364L26.8369 183.836Z" fill="black"/>
<path d="M181.779 248.404C178.99 246.125 175.71 244.524 172.198 243.727C168.685 242.931 165.035 242.96 161.536 243.814C158.037 244.667 154.783 246.321 152.032 248.645C149.28 250.97 147.106 253.901 145.679 257.208C141.967 265.865 136.003 276.786 140.664 286.241C142.327 290.176 145.021 293.589 148.462 296.12C151.903 298.651 155.963 300.207 160.215 300.623C164.466 301.038 168.751 300.299 172.617 298.483C176.483 296.666 179.788 293.84 182.182 290.302C186.083 281.379 193.209 264.477 197.105 255.325C198.357 252.409 200.438 249.925 203.089 248.181C205.741 246.438 208.846 245.511 212.019 245.516H287.628C290.794 245.509 293.893 246.432 296.54 248.169C299.187 249.905 301.267 252.38 302.523 255.287C306.449 264.646 313.301 281.067 317.372 290.206C320.575 295.081 325.48 298.587 331.128 300.04C336.777 301.494 342.765 300.791 347.923 298.068C353.082 295.346 357.041 290.799 359.028 285.316C361.016 279.832 360.889 273.804 358.672 268.409L353.872 257.203C352.447 253.903 350.278 250.977 347.533 248.656C344.789 246.334 341.545 244.679 338.054 243.821C334.563 242.963 330.922 242.924 327.414 243.708C323.906 244.492 320.627 246.078 317.834 248.341C315.245 242.489 311.013 237.515 305.65 234.024C300.288 230.533 294.026 228.676 287.628 228.677H212.016C205.606 228.676 199.333 230.541 193.964 234.044C188.595 237.547 184.361 242.536 181.779 248.404ZM159.76 283.547C158.185 282.864 156.945 281.586 156.309 279.992C155.673 278.398 155.692 276.617 156.364 275.037L161.157 263.847C161.84 262.272 163.116 261.031 164.709 260.394C166.303 259.757 168.083 259.774 169.663 260.443C178.034 264.485 170.194 274.071 168.356 279.921C168.036 280.729 167.559 281.465 166.952 282.086C166.344 282.707 165.619 283.201 164.819 283.538C164.018 283.875 163.158 284.05 162.29 284.051C161.421 284.052 160.561 283.883 159.76 283.547ZM326.426 263.987C326.915 262.812 327.738 261.807 328.792 261.094C329.846 260.382 331.086 259.994 332.359 259.978C333.631 259.962 334.88 260.319 335.952 261.006C337.023 261.692 337.871 262.677 338.389 263.839L343.189 275.046C343.825 276.61 343.824 278.361 343.186 279.924C342.549 281.487 341.326 282.74 339.778 283.414C338.23 284.088 336.48 284.13 334.901 283.531C333.322 282.932 332.04 281.74 331.329 280.209C331.249 280.178 329.78 276.461 329.717 276.411C328.863 273.133 324.717 267.506 326.426 263.987Z" fill="black"/>
<path d="M257.436 139.657C257.404 137.445 256.503 135.334 254.928 133.78C253.352 132.227 251.229 131.356 249.016 131.356C246.804 131.356 244.68 132.227 243.105 133.78C241.529 135.334 240.628 137.445 240.596 139.657V151.76C240.628 153.972 241.529 156.083 243.105 157.636C244.68 159.19 246.804 160.06 249.016 160.06C251.229 160.06 253.352 159.19 254.928 157.636C256.503 156.083 257.404 153.972 257.436 151.76V139.657Z" fill="black"/>
<path d="M249.016 180.182C247.91 180.182 246.815 180.4 245.794 180.823C244.772 181.246 243.844 181.866 243.062 182.648C242.28 183.43 241.66 184.358 241.237 185.38C240.814 186.401 240.596 187.496 240.596 188.602V200.706C240.596 202.939 241.484 205.08 243.063 206.659C244.642 208.238 246.783 209.125 249.016 209.125C251.249 209.125 253.391 208.238 254.97 206.659C256.549 205.08 257.436 202.939 257.436 200.706V188.598C257.436 187.493 257.218 186.398 256.794 185.377C256.371 184.356 255.751 183.428 254.969 182.647C254.187 181.865 253.259 181.245 252.238 180.822C251.216 180.399 250.122 180.182 249.016 180.182Z" fill="black"/>
<path d="M240.596 271.535V283.638C240.628 285.851 241.529 287.961 243.105 289.515C244.68 291.068 246.804 291.939 249.016 291.939C251.229 291.939 253.352 291.068 254.928 289.515C256.503 287.961 257.404 285.851 257.436 283.638V271.535C257.404 269.323 256.503 267.212 254.928 265.659C253.352 264.106 251.229 263.235 249.016 263.235C246.804 263.235 244.68 264.106 243.105 265.659C241.529 267.212 240.628 269.323 240.596 271.535Z" fill="black"/>
<path d="M274.273 77.3553C274.196 70.7071 271.501 64.3575 266.772 59.6837C262.043 55.0098 255.663 52.3887 249.014 52.3887C242.365 52.3887 235.985 55.0098 231.256 59.6837C226.528 64.3575 223.832 70.7071 223.755 77.3553C223.832 84.0035 226.528 90.3532 231.256 95.027C235.985 99.7008 242.365 102.322 249.014 102.322C255.663 102.322 262.043 99.7008 266.772 95.027C271.501 90.3532 274.196 84.0035 274.273 77.3553ZM249.014 85.7742C246.807 85.7356 244.703 84.8317 243.155 83.2569C241.608 81.6822 240.741 79.5627 240.741 77.3549C240.741 75.1471 241.608 73.0276 243.155 71.4529C244.703 69.8782 246.807 68.9742 249.014 68.9356C251.222 68.9742 253.326 69.8782 254.873 71.4529C256.421 73.0276 257.288 75.1471 257.288 77.3549C257.288 79.5627 256.421 81.6822 254.873 83.2569C253.326 84.8317 251.222 85.7356 249.014 85.7742Z" fill="black"/>
</svg>
