<svg width="500" height="500" viewBox="0 0 500 500" fill="none" xmlns="http://www.w3.org/2000/svg">
<g clip-path="url(#clip0_3_1330)">
<path d="M164.351 107.283C155.28 127.847 149.281 151.027 149.281 176.375C149.281 232.742 195.525 278.307 252.144 277.203C312.858 276.018 356.353 220.277 350.127 159.872C343.987 100.306 305.869 54.2812 278.518 28.3884C262.653 13.3706 237.825 13.1896 221.946 28.1924C208.053 41.3202 191.341 59.6681 177.449 82.3677" stroke="black" stroke-width="14.0625" stroke-miterlimit="10" stroke-linecap="round" stroke-linejoin="round"/>
<path d="M163.218 228.834C158.06 227.367 152.615 226.581 146.987 226.581C132.419 226.581 119.086 231.841 108.769 240.563C101.095 247.051 89.9406 247.143 82.2794 240.639C71.6762 231.638 57.8669 226.302 42.8003 226.593C42.7075 226.595 42.6147 226.597 42.5228 226.599C28.2916 226.941 17.0312 238.798 17.0312 253.033V442.771C17.0312 464.971 35.0284 482.969 57.2284 482.969H442.772C464.972 482.969 482.969 464.971 482.969 442.771V253.033C482.969 238.798 471.708 226.941 457.478 226.599C457.385 226.597 457.293 226.594 457.201 226.593C442.134 226.302 428.325 231.638 417.722 240.639C410.059 247.143 398.906 247.051 391.232 240.563C380.916 231.841 367.582 226.581 353.014 226.581C346.804 226.581 340.818 227.537 335.194 229.309" stroke="black" stroke-width="14.0625" stroke-miterlimit="10" stroke-linecap="round" stroke-linejoin="round"/>
<path d="M189.08 166.117V177.823" stroke="black" stroke-width="14.0625" stroke-miterlimit="10" stroke-linecap="round" stroke-linejoin="round"/>
<path d="M310.92 166.117V177.823" stroke="black" stroke-width="14.0625" stroke-miterlimit="10" stroke-linecap="round" stroke-linejoin="round"/>
<path d="M233.939 177.475C237.844 181.956 243.589 184.792 250 184.792C256.411 184.792 262.156 181.956 266.061 177.475" stroke="black" stroke-width="14.0625" stroke-miterlimit="10" stroke-linecap="round" stroke-linejoin="round"/>
<path d="M482.055 319.366C474.522 315.639 466.099 313.465 457.201 313.293C442.134 313.001 428.325 318.337 417.722 327.339C410.059 333.844 398.906 333.752 391.231 327.263C380.916 318.542 367.582 313.281 353.014 313.281C338.447 313.281 325.114 318.541 314.799 327.261C307.09 333.779 295.925 333.779 288.216 327.261C277.9 318.541 264.567 313.281 250 313.281C235.433 313.281 222.1 318.541 211.785 327.261C204.076 333.779 192.911 333.779 185.202 327.261C174.886 318.541 161.553 313.281 146.986 313.281C132.419 313.281 119.086 318.542 108.769 327.263C101.095 333.752 89.9406 333.844 82.2793 327.339C71.6762 318.338 57.8668 313.002 42.8002 313.293C34.0084 313.462 25.6815 315.587 18.219 319.231" stroke="black" stroke-width="14.0625" stroke-miterlimit="10" stroke-linecap="round" stroke-linejoin="round"/>
<path d="M339.723 404.91C329.407 396.189 316.074 390.93 301.507 390.93C286.94 390.93 273.607 396.189 263.292 404.91C255.583 411.427 244.418 411.427 236.709 404.91C226.394 396.189 213.061 390.93 198.494 390.93C183.927 390.93 170.594 396.189 160.278 404.91C152.569 411.427 141.405 411.427 133.696 404.91C123.38 396.189 110.047 390.93 95.4803 390.93C80.9753 390.93 67.6938 396.144 57.3963 404.799C49.7088 411.26 38.5066 411.579 30.8641 405.064C27.0981 401.854 22.9216 399.115 18.4291 396.921" stroke="black" stroke-width="14.0625" stroke-miterlimit="10" stroke-linecap="round" stroke-linejoin="round"/>
<path d="M482.053 396.689C477.378 398.92 473.037 401.74 469.136 405.064C461.494 411.579 450.291 411.26 442.605 404.799C432.308 396.144 419.026 390.93 404.521 390.93C389.954 390.93 376.621 396.189 366.305 404.91" stroke="black" stroke-width="14.0625" stroke-miterlimit="10" stroke-linecap="round" stroke-linejoin="round"/>
</g>
<defs>
<clipPath id="clip0_3_1330">
<rect width="480" height="480" fill="white" transform="translate(10 10)"/>
</clipPath>
</defs>
</svg>
