<svg width="500" height="500" viewBox="0 0 500 500" fill="none" xmlns="http://www.w3.org/2000/svg">
<path d="M434.855 98.725H428.435V76.7875H458.268C463.456 76.7875 467.662 72.5819 467.662 67.3938C467.662 62.2056 463.457 58 458.268 58H45.91C40.7228 58 36.5163 62.2056 36.5163 67.3938C36.5163 72.5819 40.7219 76.7875 45.91 76.7875H71.5647V98.725H65.1447C34.7369 98.725 10 123.463 10 153.869V386.967C10 417.373 34.7369 442.111 65.1447 442.111H207.567C212.754 442.111 216.961 437.905 216.961 432.717C216.961 427.529 212.755 423.323 207.567 423.323H65.1447C45.0962 423.323 28.7866 407.013 28.7866 386.966V153.869C28.7866 133.821 45.0962 117.512 65.1447 117.512H434.855C454.904 117.512 471.213 133.821 471.213 153.869V386.967C471.213 407.014 454.904 423.324 434.855 423.324H292.27C287.083 423.324 282.876 427.53 282.876 432.718C282.876 437.906 287.082 442.112 292.27 442.112H434.855C465.262 442.112 490 417.374 490 386.968V153.869C490 123.463 465.262 98.725 434.855 98.725ZM409.649 98.725H390.862V76.7875H409.649V98.725ZM372.075 98.725H127.925V76.7875H372.076L372.075 98.725ZM90.3513 76.7875H109.138V98.725H90.3513V76.7875Z" fill="black"/>
<path d="M291.114 240.828C296.223 241.715 301.087 238.284 301.971 233.173L308.518 195.317L320.083 233.484C320.116 233.594 320.151 233.704 320.19 233.813C321.724 238.277 325.898 241.251 330.608 241.251C330.654 241.251 330.701 241.251 330.747 241.25C335.512 241.191 339.68 238.098 341.117 233.555C341.151 233.448 341.182 233.34 341.213 233.231L351.828 194.937L359.361 232.849C360.372 237.937 365.309 241.244 370.405 240.231C375.494 239.221 378.799 234.276 377.788 229.188L363.878 159.186C363.87 159.148 363.862 159.111 363.855 159.072C362.819 154.179 358.608 150.591 353.612 150.348C348.631 150.101 344.076 153.263 342.568 158.031C342.534 158.138 342.503 158.246 342.472 158.354L330.279 202.345L316.977 158.446C316.944 158.336 316.909 158.226 316.871 158.118C315.245 153.385 310.616 150.342 305.635 150.71C300.645 151.08 296.525 154.776 295.615 159.696C295.609 159.732 295.602 159.767 295.596 159.802L283.461 229.972C282.576 235.083 286.002 239.944 291.114 240.828Z" fill="black"/>
<path d="M165.505 169.287C170.834 169.287 175.972 170.855 180.364 173.822C184.662 176.725 190.502 175.596 193.406 171.297C196.31 166.998 195.179 161.159 190.88 158.255C183.37 153.182 174.596 150.5 165.504 150.5C140.484 150.5 120.129 170.855 120.129 195.875C120.129 220.895 140.484 241.25 165.504 241.25C189.322 241.25 205.958 222.591 205.958 195.875C205.958 190.687 201.752 186.481 196.564 186.481H175.037C169.85 186.481 165.644 190.687 165.644 195.875C165.644 201.063 169.849 205.269 175.037 205.269H186.018C183.66 214.444 177.471 222.464 165.504 222.464C150.843 222.464 138.915 210.536 138.915 195.875C138.915 181.215 150.844 169.287 165.505 169.287Z" fill="black"/>
<path d="M244.945 241.167C250.132 241.167 254.339 236.961 254.339 231.773V197.802L275.616 165.117C278.446 160.77 277.216 154.951 272.868 152.119C268.519 149.288 262.702 150.521 259.871 154.867L244.934 177.814L229.824 154.674C226.989 150.332 221.171 149.107 216.823 151.945C212.479 154.781 211.258 160.602 214.094 164.945L235.552 197.808V231.773C235.551 236.961 239.757 241.167 244.945 241.167Z" fill="black"/>
<path d="M332.456 390.503C340.226 390.503 346.546 384.183 346.546 376.414V375.337H375.278C383.461 375.337 390.118 368.68 390.118 360.498V296.081C390.118 287.899 383.461 281.241 375.278 281.241H346.546V280.165C346.546 272.396 340.225 266.075 332.456 266.075H298.277C290.507 266.075 284.187 272.396 284.187 280.165V297.11H215.813V280.165C215.813 272.396 209.493 266.075 201.724 266.075H167.544C159.774 266.075 153.455 272.396 153.455 280.165V281.241H124.722C116.54 281.241 109.882 287.899 109.882 296.081V360.498C109.882 368.68 116.54 375.337 124.722 375.337H153.455V376.414C153.455 384.183 159.775 390.503 167.544 390.503H201.724C209.494 390.503 215.813 384.183 215.813 376.414V359.468H284.187V376.414C284.187 384.183 290.508 390.503 298.277 390.503H332.456ZM371.331 300.027V356.55H346.547V300.027H371.331ZM302.974 284.86H327.759V371.716H302.974V284.86ZM128.669 356.55V300.027H153.454V356.55H128.669ZM197.027 371.716H172.241V284.86H197.027V371.716ZM215.813 340.681V315.895H284.187V340.681H215.813Z" fill="black"/>
<path d="M250 442.111C255.188 442.111 259.394 437.906 259.394 432.718C259.394 427.53 255.188 423.324 250 423.324C244.812 423.324 240.606 427.53 240.606 432.718C240.606 437.906 244.812 442.111 250 442.111Z" fill="black"/>
</svg>
