<svg width="500" height="500" viewBox="0 0 500 500" fill="none" xmlns="http://www.w3.org/2000/svg">
<g clip-path="url(#clip0_1_2)">
<rect width="500" height="500" fill="white"/>
<g clip-path="url(#clip1_1_2)">
<path fill-rule="evenodd" clip-rule="evenodd" d="M221.175 273.996C221.175 285.692 232.12 295.364 246.25 296.84V251.16C232.12 252.636 221.175 262.304 221.175 273.996Z" fill="black"/>
<path fill-rule="evenodd" clip-rule="evenodd" d="M278.83 273.996C278.83 262.304 267.875 252.636 253.75 251.16V296.84C267.87 295.364 278.83 285.692 278.83 273.996Z" fill="black"/>
<path fill-rule="evenodd" clip-rule="evenodd" d="M461.485 363.804C399.59 363.804 349.23 323.52 349.23 274C349.23 224.48 399.59 184.192 461.485 184.192H492.805V169.964H253.75V245.096C272.025 246.6 286.33 258.988 286.33 273.996C286.33 289.008 272.025 301.396 253.75 302.904V378.036H492.805V363.804H461.485Z" fill="black"/>
<path fill-rule="evenodd" clip-rule="evenodd" d="M461.485 357.804H489.055V318.356L389.015 302.144C372.805 301.112 359.68 291.312 357.035 278.68C360.09 322.708 405.695 357.804 461.485 357.804Z" fill="black"/>
<path fill-rule="evenodd" clip-rule="evenodd" d="M113.68 252.184V295.816C126.395 293.768 136 284.764 136 274C136 263.236 126.395 254.232 113.68 252.184Z" fill="black"/>
<path fill-rule="evenodd" clip-rule="evenodd" d="M38.51 190.192H10.95V229.644L111.015 245.856C127.195 246.896 140.3 256.676 142.97 269.284C139.88 225.268 94.28 190.192 38.51 190.192Z" fill="black"/>
<path fill-rule="evenodd" clip-rule="evenodd" d="M213.675 273.996C213.675 258.988 227.975 246.6 246.25 245.096V169.964H7.2V184.192H38.51C100.41 184.192 150.765 224.48 150.765 274C150.765 323.52 100.41 363.804 38.51 363.804H7.2V378.036H246.25V302.904C227.975 301.396 213.675 289.008 213.675 273.996Z" fill="black"/>
<path fill-rule="evenodd" clip-rule="evenodd" d="M386.32 295.816V252.184C373.605 254.236 364.005 263.236 364.005 274C364.005 284.764 373.605 293.764 386.32 295.816Z" fill="black"/>
<path fill-rule="evenodd" clip-rule="evenodd" d="M10.95 357.804H38.51C94.28 357.804 139.88 322.728 142.97 278.716C140.305 291.332 127.18 301.12 110.99 302.144L10.95 318.356V357.804Z" fill="black"/>
<path fill-rule="evenodd" clip-rule="evenodd" d="M10.95 312.236L93.165 298.912L96.095 294.056C97.59 294.636 99.155 295.108 100.765 295.464L99.95 297.812L102.87 297.34L103.195 295.908C104.165 296.048 105.175 296.064 106.18 296.124V251.888C105.185 251.944 104.18 251.96 103.21 252.1L102.885 250.664L99.96 250.192L100.77 252.544C99.17 252.9 97.595 253.372 96.1 253.952L93.17 249.092L10.95 235.764V312.236ZM74.575 282.724L81.715 280.88C82.225 282.14 82.88 283.376 83.675 284.544L77.075 287.396C76.065 285.908 75.225 284.336 74.575 282.724ZM78.69 289.564L84.95 286.26C85.865 287.368 86.915 288.416 88.06 289.376L82.64 293.524C81.185 292.304 79.85 290.972 78.69 289.564ZM90.04 298.252C88.245 297.388 86.52 296.384 84.93 295.276L89.86 290.752C91.12 291.632 92.475 292.424 93.9 293.104L90.04 298.252ZM90.06 249.74L93.91 254.888C92.495 255.568 91.135 256.356 89.875 257.236L84.945 252.712C86.54 251.596 88.26 250.596 90.06 249.74ZM82.645 254.472L88.065 258.62C86.92 259.58 85.87 260.628 84.955 261.736L78.695 258.432C79.855 257.024 81.19 255.692 82.645 254.472ZM77.07 260.604L83.67 263.448C82.885 264.616 82.225 265.852 81.705 267.116L74.575 265.256C75.23 263.652 76.065 262.088 77.07 260.604ZM73.735 267.708L81.05 269.044C80.68 270.34 80.455 271.668 80.38 272.992L72.89 272.736C72.975 271.048 73.265 269.356 73.735 267.708ZM80.38 275C80.455 276.336 80.68 277.664 81.045 278.948L73.73 280.284C73.265 278.648 72.985 276.956 72.89 275.256L80.38 275Z" fill="black"/>
<path fill-rule="evenodd" clip-rule="evenodd" d="M489.055 235.764L406.83 249.084L403.9 253.944C402.405 253.364 400.835 252.892 399.23 252.536L400.04 250.184L397.12 250.656L396.79 252.092C395.825 251.952 394.815 251.936 393.82 251.88V296.112C394.815 296.052 395.83 296.036 396.81 295.896L397.13 297.328L400.05 297.804L399.24 295.452C400.84 295.096 402.415 294.624 403.91 294.044L406.84 298.9L489.055 312.224V235.764ZM425.42 265.256L418.29 267.116C417.77 265.852 417.12 264.616 416.325 263.448L422.925 260.604C423.935 262.088 424.765 263.652 425.42 265.256ZM421.31 258.432L415.05 261.736C414.13 260.628 413.085 259.58 411.935 258.62L417.355 254.472C418.81 255.692 420.145 257.024 421.31 258.432ZM409.94 249.74C411.735 250.6 413.455 251.6 415.055 252.712L410.125 257.236C408.865 256.356 407.51 255.568 406.09 254.888L409.94 249.74ZM409.96 298.252L406.105 293.104C407.52 292.424 408.88 291.632 410.14 290.752L415.07 295.276C413.475 296.388 411.76 297.392 409.96 298.252ZM417.365 293.524L411.945 289.376C413.09 288.416 414.14 287.368 415.05 286.26L421.31 289.564C420.145 290.972 418.82 292.304 417.365 293.524ZM422.93 287.396L416.33 284.544C417.12 283.376 417.785 282.14 418.295 280.88L425.435 282.724C424.775 284.336 423.935 285.908 422.93 287.396ZM426.27 280.284L418.955 278.948C419.325 277.664 419.55 276.336 419.62 275L427.11 275.256C427.02 276.956 426.74 278.648 426.27 280.284ZM419.62 272.992C419.55 271.668 419.325 270.34 418.955 269.044L426.27 267.708C426.74 269.356 427.02 271.048 427.11 272.736L419.62 272.992Z" fill="black"/>
<path fill-rule="evenodd" clip-rule="evenodd" d="M489.055 190.192H461.485C405.695 190.192 360.09 225.292 357.03 269.32C359.675 256.696 372.78 246.9 388.975 245.856L489.055 229.644V190.192Z" fill="black"/>
</g>
</g>
<defs>
<clipPath id="clip0_1_2">
<rect width="500" height="500" fill="white"/>
</clipPath>
<clipPath id="clip1_1_2">
<rect width="500" height="500" fill="white" transform="translate(0 53)"/>
</clipPath>
</defs>
</svg>
