<svg width="500" height="500" viewBox="0 0 500 500" fill="none" xmlns="http://www.w3.org/2000/svg">
<g clip-path="url(#clip0_1_2)">
<rect width="500" height="500" fill="white"/>
<g clip-path="url(#clip1_1_2)">
<path d="M482.522 397.635H14.4782C10.3092 397.635 6.92909 395.025 6.92909 391.805C6.92909 388.586 10.3092 385.975 14.4782 385.975H482.522C486.691 385.975 490.071 388.586 490.071 391.805C490.071 395.025 486.691 397.635 482.522 397.635Z" fill="black"/>
<path d="M412.389 304.358C393.542 304.358 375.816 299.387 361.736 290.253C347.656 299.387 329.931 304.358 311.084 304.358C268.25 304.358 233.402 278.205 233.402 246.06C233.402 228.615 243.839 212.156 261.615 201.124C258.403 195.025 256.779 188.59 256.779 181.932C256.779 161.376 272.762 142.875 297.211 134.351C296.235 130.835 295.742 127.248 295.742 123.633C295.742 94.7022 327.095 71.1651 365.632 71.1651C404.168 71.1651 435.521 94.7022 435.521 123.633C435.521 128.222 434.735 132.743 433.179 137.131C453.732 146.581 466.692 163.656 466.692 181.932C466.692 188.59 465.068 195.025 461.857 201.124C479.633 212.156 490.071 228.615 490.071 246.06C490.071 278.205 455.222 304.358 412.389 304.358ZM361.736 276.499C363.754 276.499 365.688 277.122 367.106 278.231C379.045 287.56 395.126 292.698 412.389 292.698C446.898 292.698 474.973 271.776 474.973 246.06C474.973 230.854 464.965 216.56 448.2 207.821C445.013 206.16 443.953 202.916 445.735 200.285C449.624 194.549 451.595 188.374 451.595 181.931C451.595 166.209 439.801 152.151 420.816 145.242C417.234 143.939 415.564 140.721 416.99 137.868C419.269 133.312 420.425 128.522 420.425 123.633C420.425 101.131 395.845 82.824 365.634 82.824C335.422 82.824 310.842 101.131 310.842 123.633C310.842 127.854 311.712 132.026 313.427 136.033C314.731 139.081 312.601 142.368 308.662 143.39C286.662 149.093 271.88 164.581 271.88 181.931C271.88 188.374 273.851 194.548 277.74 200.285C279.522 202.915 278.461 206.16 275.275 207.821C258.508 216.56 248.5 230.854 248.5 246.06C248.5 271.776 276.575 292.698 311.084 292.698C328.347 292.698 344.428 287.56 356.366 278.231C357.785 277.122 359.719 276.499 361.736 276.499Z" fill="black"/>
<path d="M361.736 397.635C357.567 397.635 354.187 395.025 354.187 391.805V170.272C354.187 167.052 357.567 164.442 361.736 164.442C365.905 164.442 369.285 167.052 369.285 170.272V391.805C369.285 395.025 365.905 397.635 361.736 397.635Z" fill="black"/>
<path d="M361.736 240.23C359.496 240.23 357.371 239.461 355.937 238.132L318.191 203.153C315.522 200.679 315.955 197.003 319.158 194.942C322.36 192.881 327.12 193.215 329.79 195.688L361.736 225.293L393.682 195.689C396.352 193.214 401.112 192.881 404.314 194.942C407.518 197.004 407.951 200.68 405.28 203.154L367.535 238.133C366.102 239.461 363.977 240.23 361.736 240.23Z" fill="black"/>
<path d="M361.736 273.023C359.58 273.023 357.527 272.31 356.094 271.065L318.349 238.272C315.578 235.866 315.86 232.182 318.976 230.042C322.09 227.903 326.862 228.12 329.634 230.527L361.736 258.417L393.84 230.527C396.611 228.12 401.382 227.903 404.497 230.042C407.614 232.182 407.895 235.866 405.125 238.272L367.379 271.065C365.946 272.31 363.893 273.023 361.736 273.023Z" fill="black"/>
<path d="M233.402 368.486H22.0273C17.8583 368.486 14.4782 365.876 14.4782 362.656V339.337C14.4782 336.117 17.8583 333.507 22.0273 333.507H233.402C237.571 333.507 240.951 336.117 240.951 339.337V362.656C240.951 365.876 237.571 368.486 233.402 368.486ZM29.5764 356.826H225.853V345.167H29.5764V356.826Z" fill="black"/>
<path d="M210.755 321.847H44.6745C40.5056 321.847 37.1255 319.237 37.1255 316.017V257.719C37.1255 254.5 40.5056 251.889 44.6745 251.889H210.755C214.924 251.889 218.304 254.5 218.304 257.719V316.017C218.304 319.237 214.924 321.847 210.755 321.847ZM52.2236 310.188H203.205V263.549H52.2236V310.188Z" fill="black"/>
<path d="M210.755 292.698H44.6745C40.5056 292.698 37.1255 290.088 37.1255 286.868C37.1255 283.649 40.5056 281.039 44.6745 281.039H210.755C214.924 281.039 218.304 283.649 218.304 286.868C218.304 290.088 214.924 292.698 210.755 292.698Z" fill="black"/>
<path d="M74.8709 397.635H44.6745C40.5056 397.635 37.1255 395.025 37.1255 391.805V362.656C37.1255 359.436 40.5056 356.826 44.6745 356.826H74.8709C79.0399 356.826 82.42 359.436 82.42 362.656V391.805C82.42 395.025 79.0399 397.635 74.8709 397.635ZM52.2236 385.975H67.3218V368.486H52.2236V385.975Z" fill="black"/>
<path d="M210.755 397.635H180.558C176.389 397.635 173.009 395.025 173.009 391.805V362.656C173.009 359.436 176.389 356.826 180.558 356.826H210.755C214.924 356.826 218.304 359.436 218.304 362.656V391.805C218.304 395.025 214.924 397.635 210.755 397.635ZM188.107 385.975H203.205V368.486H188.107V385.975Z" fill="black"/>
<path d="M74.8709 345.167C70.7019 345.167 67.3218 342.556 67.3218 339.337V316.017C67.3218 312.798 70.7019 310.188 74.8709 310.188C79.0399 310.188 82.42 312.798 82.42 316.017V339.337C82.42 342.556 79.0399 345.167 74.8709 345.167Z" fill="black"/>
<path d="M180.558 345.167C176.389 345.167 173.009 342.556 173.009 339.337V316.017C173.009 312.798 176.389 310.188 180.558 310.188C184.727 310.188 188.107 312.798 188.107 316.017V339.337C188.107 342.556 184.727 345.167 180.558 345.167Z" fill="black"/>
</g>
</g>
<defs>
<clipPath id="clip0_1_2">
<rect width="500" height="500" fill="white"/>
</clipPath>
<clipPath id="clip1_1_2">
<rect width="500" height="500" fill="white"/>
</clipPath>
</defs>
</svg>
