<svg width="500" height="500" viewBox="0 0 500 500" fill="none" xmlns="http://www.w3.org/2000/svg">
<path d="M308.242 473.989C308.242 478.949 304.222 482.969 299.263 482.969H200.737C195.778 482.969 191.758 478.949 191.758 473.989V366.484H308.242V437.95" stroke="black" stroke-width="14.0625" stroke-miterlimit="10" stroke-linecap="round" stroke-linejoin="round"/>
<path d="M357.505 366.484H250V250H357.505C362.464 250 366.484 254.02 366.484 258.979V357.504C366.484 362.464 362.464 366.484 357.505 366.484Z" stroke="black" stroke-width="14.0625" stroke-miterlimit="10" stroke-linecap="round" stroke-linejoin="round"/>
<path d="M250 366.484H142.495C137.536 366.484 133.516 362.464 133.516 357.505V258.979C133.516 254.02 137.536 250 142.495 250H250V366.484Z" stroke="black" stroke-width="14.0625" stroke-miterlimit="10" stroke-linecap="round" stroke-linejoin="round"/>
<path d="M191.758 133.516H308.242V250H191.758V170.889" stroke="black" stroke-width="14.0625" stroke-miterlimit="10" stroke-linecap="round" stroke-linejoin="round"/>
<path d="M244.443 398.729H255.556V450.724" stroke="black" stroke-width="14.0625" stroke-miterlimit="10" stroke-linecap="round" stroke-linejoin="round"/>
<path d="M266.326 202.41H233.674C233.674 202.41 250.962 171.075 253.815 167.574C256.699 164.035 259.431 166.242 259.691 169.365C259.951 172.486 259.561 217.755 259.561 217.755" stroke="black" stroke-width="14.0625" stroke-miterlimit="10" stroke-linecap="round" stroke-linejoin="round"/>
<path d="M206.04 334.628C206.04 334.628 180.742 334.946 179.544 334.547C178.346 334.147 181.465 332.037 198.051 308.34C201.149 303.914 202.854 300.181 203.579 297.052L203.836 295.041C203.836 287.693 197.879 281.737 190.532 281.737C184.066 281.737 178.678 286.349 177.477 292.463" stroke="black" stroke-width="14.0625" stroke-miterlimit="10" stroke-linecap="round" stroke-linejoin="round"/>
<path d="M295.063 292.359C296.264 286.246 301.652 281.633 308.117 281.633C315.466 281.633 321.422 287.59 321.422 294.937C321.422 302.285 315.465 308.241 308.117 308.241" stroke="black" stroke-width="14.0625" stroke-miterlimit="10" stroke-linecap="round" stroke-linejoin="round"/>
<path d="M308.242 308.242C315.59 308.242 321.547 314.199 321.547 321.546C321.547 328.894 315.59 334.85 308.242 334.85C301.524 334.85 295.969 329.871 295.066 323.402C294.981 322.795 294.937 322.175 294.937 321.546" stroke="black" stroke-width="14.0625" stroke-miterlimit="10" stroke-linecap="round" stroke-linejoin="round"/>
<path d="M358.574 133.516H141.426C137.058 133.516 133.516 129.974 133.516 125.605V107.169C133.516 57.3879 173.871 17.0322 223.652 17.0322H276.348C326.129 17.0322 366.484 57.3879 366.484 107.169V125.605C366.484 129.974 362.943 133.516 358.574 133.516Z" stroke="black" stroke-width="14.0625" stroke-miterlimit="10" stroke-linecap="round" stroke-linejoin="round"/>
<path d="M275.804 50.7446H250.441H225.077C173.647 50.7446 161.718 100.627 167.309 133.516H250.441H333.572C339.163 100.627 327.234 50.7446 275.804 50.7446Z" stroke="black" stroke-width="14.0625" stroke-miterlimit="10" stroke-linecap="round" stroke-linejoin="round"/>
<path d="M265.91 83.0303H250.44H234.971C203.601 83.0303 196.325 113.456 199.736 133.516H250.441H301.147C304.556 113.456 297.28 83.0303 265.91 83.0303Z" stroke="black" stroke-width="14.0625" stroke-miterlimit="10" stroke-linecap="round" stroke-linejoin="round"/>
</svg>
