<svg width="500" height="500" viewBox="0 0 500 500" fill="none" xmlns="http://www.w3.org/2000/svg">
<path d="M154.992 75.8322C164.16 59.0799 171.4 45.8488 155.296 21.6488C153.215 18.521 154.063 14.2991 157.191 12.2179C160.319 10.1366 164.54 10.9848 166.622 14.1126C187.283 45.1619 176.468 64.9254 166.925 82.3627C157.757 99.1141 150.516 112.346 166.622 136.547C168.703 139.674 167.855 143.896 164.727 145.978C163.569 146.749 162.259 147.118 160.965 147.118C158.765 147.118 156.607 146.053 155.296 144.083C134.634 113.033 145.449 93.2696 154.992 75.8322ZM88.5491 143.005C89.8598 144.973 92.0179 146.039 94.2177 146.039C95.512 146.039 96.8208 145.67 97.98 144.9C101.107 142.818 101.955 138.596 99.8747 135.469C83.7705 111.269 91.0113 98.0365 100.179 81.2842C109.721 63.8478 120.536 44.0843 99.8747 13.034C97.7924 9.90725 93.5716 9.059 90.4438 11.1393C87.317 13.2206 86.4688 17.4425 88.5491 20.5702C104.653 44.7703 97.4125 58.0023 88.2449 74.7537C78.7033 92.192 67.8878 111.956 88.5491 143.005ZM31.233 145.977C34.3598 143.896 35.208 139.674 33.1277 136.546C17.0235 112.345 24.2643 99.1141 33.4318 82.3618C42.9745 64.9254 53.789 45.1619 33.1277 14.1116C31.0464 10.9838 26.8255 10.1366 23.6968 12.2169C20.57 14.2982 19.7218 18.52 21.8021 21.6478C37.9063 45.8479 30.6655 59.0799 21.4989 75.8313C11.9563 93.2686 1.14077 113.032 21.8021 144.081C23.1128 146.05 25.2709 147.116 27.4707 147.116C28.765 147.117 30.0748 146.749 31.233 145.977ZM477.64 81.2852C487.182 63.8488 497.998 44.0853 477.336 13.035C475.255 9.90823 471.033 9.05997 467.905 11.1403C464.778 13.2216 463.93 17.4434 466.011 20.5712C482.115 44.7713 474.874 58.0033 465.706 74.7547C456.164 92.192 445.348 111.956 466.011 143.005C467.321 144.973 469.479 146.039 471.679 146.039C472.973 146.039 474.282 145.67 475.441 144.9C478.568 142.818 479.417 138.596 477.336 135.469C461.231 111.269 468.473 98.0375 477.64 81.2852ZM399.265 143.005C400.575 144.973 402.733 146.039 404.933 146.039C406.227 146.039 407.536 145.67 408.695 144.9C411.822 142.818 412.67 138.596 410.59 135.469C394.486 111.269 401.727 98.0365 410.894 81.2852C420.436 63.8478 431.252 44.0843 410.59 13.035C408.509 9.90823 404.288 9.05997 401.159 11.1403C398.032 13.2216 397.184 17.4434 399.265 20.5712C415.369 44.7713 408.128 58.0033 398.96 74.7547C389.418 92.192 378.602 111.956 399.265 143.005ZM471.921 289.038V419.026C471.921 439.734 448.409 457.679 403.927 470.922C362.603 483.224 307.784 490 249.569 490C191.354 490 136.535 483.224 95.2108 470.922C50.7283 457.679 27.2161 439.733 27.2161 419.026V289.038C27.2161 267.675 52.0556 249.363 99.0469 236.041L140.816 205.089C145.6 201.542 162.743 196.661 194.782 188.327C199.498 187.101 203.222 186.132 205.359 185.533C218.441 181.919 302.182 189.758 310.812 191.993L363.592 205.665C370.444 207.44 376.029 212.458 378.532 219.087L383.304 231.733C440.481 244.952 471.921 265.242 471.921 289.038ZM90.9063 259.004C87.2704 261.699 86.5057 266.854 89.203 270.491C90.5099 272.253 92.424 273.401 94.5937 273.723C96.7625 274.047 98.9293 273.503 100.691 272.196L156.47 230.863C157.136 230.369 157.887 230.001 158.686 229.778L207.794 216.036C209.943 215.435 212.251 215.928 213.969 217.352C215.686 218.777 216.596 220.954 216.403 223.178C214.631 243.507 212.867 263.838 211.102 284.168L210.093 295.803C225.254 296.955 241.02 297.538 257.058 297.538C268.594 297.538 280.069 297.234 291.253 296.63L291.962 288.469C293.72 268.207 295.479 247.944 297.244 227.683C297.418 225.69 298.461 223.874 300.095 222.719C301.729 221.564 303.789 221.187 305.726 221.689L348.513 232.772C350.653 233.327 352.392 234.888 353.171 236.957L370.143 281.969C370.918 284.027 372.447 285.659 374.447 286.564C376.449 287.471 378.683 287.543 380.737 286.769C384.98 285.171 387.132 280.419 385.535 276.176L365.807 223.891C364.864 221.393 362.76 219.501 360.182 218.834L307.402 205.162C298.791 202.932 217.921 196.269 209.001 198.64C206.769 199.265 202.991 200.247 198.208 201.492C185.949 204.681 153.383 213.153 148.843 216.07L90.9063 259.004ZM385.531 299.499C385.435 299.535 385.337 299.558 385.241 299.592C395.714 296.635 405.76 293.15 415.104 289.04C409.961 286.778 404.396 284.721 399.302 282.993C397.961 290.276 392.951 296.704 385.531 299.499ZM83.9697 289.007C83.9852 289.014 83.9988 289.021 84.0134 289.026C84.0173 289.012 84.0299 288.988 84.0338 288.972V289.106C84.026 289.076 83.993 289.025 83.9697 289.007ZM84.0348 289.035C133.006 310.563 201.071 315.077 249.569 315.077C287.869 315.077 338.369 312.253 382.007 300.481C377.587 301.351 373.02 300.851 368.836 298.956C363.525 296.551 359.469 292.221 357.414 286.765L351.51 271.105C337.689 268.675 322.978 266.765 307.619 265.423C306.918 273.496 306.216 281.57 305.515 289.643L304.299 303.661C304.008 307.012 301.312 309.647 297.956 309.861C284.658 310.71 270.898 311.139 257.059 311.139C238.221 311.139 219.739 310.35 202.128 308.795C198.39 308.464 195.626 305.17 195.95 301.432L197.551 282.99C198.076 276.93 198.604 270.871 199.129 264.811C170.652 266.93 144.479 270.895 121.241 276.629C119.627 277.026 117.617 277.562 115.497 278.155L108.792 283.124C104.113 286.593 98.3628 288.035 92.597 287.178C91.6885 287.043 90.8043 286.835 89.9337 286.593C87.8262 287.419 85.8488 288.237 84.0348 289.035ZM201.998 231.784L163.56 242.539L142.403 258.217C160.445 254.924 179.82 252.533 200.322 251.081C200.88 244.649 201.438 238.216 201.998 231.784ZM345.959 256.386L341.688 245.057L310.099 236.875C309.664 241.874 309.231 246.874 308.796 251.873C321.658 252.995 334.092 254.509 345.959 256.386ZM458.318 419.026V314.737C446.994 324.706 428.723 333.551 403.927 340.933C362.603 353.235 307.784 360.012 249.569 360.012C191.354 360.012 136.535 353.235 95.2108 340.933C70.4141 333.551 52.143 324.706 40.8193 314.737V419.026C40.8193 432.494 62.6029 447.022 99.0916 457.884C139.192 469.822 192.632 476.397 249.569 476.397C306.506 476.397 359.946 469.822 400.046 457.884C436.534 447.022 458.318 432.494 458.318 419.026ZM458.318 289.038C458.318 274.181 431.561 258.2 389.128 247.168L396.959 267.921C403.823 270.076 412.652 273.096 420.588 276.587C425.6 278.794 428.713 283.565 428.713 289.038C428.713 294.514 425.598 299.285 420.588 301.489C369.508 323.961 299.393 328.679 249.569 328.679C199.745 328.679 129.631 323.961 78.5507 301.489C73.5399 299.284 70.4257 294.513 70.4257 289.038C70.4257 284.018 73.0482 279.596 77.3449 277.195C73.7741 271.52 73.126 264.722 75.1276 258.699C53.2361 268.034 40.8203 278.768 40.8203 289.038C40.8203 302.506 62.6039 317.033 99.0925 327.896C139.193 339.833 192.633 346.409 249.569 346.409C306.505 346.409 359.946 339.833 400.046 327.896C436.534 317.032 458.318 302.506 458.318 289.038ZM415.169 289.069C415.154 289.062 415.139 289.056 415.125 289.05C415.121 289.064 415.108 289.088 415.104 289.105V288.971C415.112 289 415.144 289.051 415.169 289.069ZM217.827 139.883C217.827 116.104 237.173 96.7578 260.952 96.7578C284.731 96.7578 304.078 116.104 304.078 139.883C304.078 163.662 284.731 183.009 260.952 183.009C237.173 183.009 217.827 163.662 217.827 139.883ZM231.43 139.883C231.43 156.162 244.674 169.406 260.952 169.406C277.231 169.406 290.475 156.162 290.475 139.883C290.475 123.605 277.231 110.361 260.952 110.361C244.674 110.361 231.43 123.605 231.43 139.883Z" fill="black"/>
</svg>
