<svg width="500" height="500" viewBox="0 0 500 500" fill="none" xmlns="http://www.w3.org/2000/svg">
<path d="M453.171 377.275C451.088 372.971 448.021 369.219 444.217 366.322C440.414 363.426 435.981 361.466 431.279 360.602C413.081 357.249 353.099 343.865 345.386 312.579C345.292 312.082 336.078 262.411 343.885 225.397C344.969 220.066 344.038 214.522 341.27 209.838C338.503 205.154 334.097 201.662 328.905 200.039C328.905 200.039 399.003 106.677 399.186 106.433C400.284 104.866 400.73 102.934 400.43 101.044C400.129 99.1537 399.106 97.4547 397.576 96.3055C396.046 95.1563 394.128 94.6471 392.23 94.8854C390.331 95.1237 388.599 96.0908 387.4 97.5825L310.284 200.292C280.557 203.677 238.745 203.291 233.009 175.561L232.307 144.059C231.895 138.121 229.884 132.406 226.486 127.518C252.155 119.761 306.329 97.8876 318.193 49.0342C318.621 47.1475 318.29 45.1681 317.271 43.5234C316.253 41.8787 314.628 40.7005 312.748 40.2434C310.868 39.7862 308.884 40.0867 307.224 41.0799C305.563 42.0731 304.36 43.6794 303.874 45.552C292.005 94.4137 225.624 112.853 212.401 116.059C207.12 113.708 201.322 112.759 195.567 113.304C189.812 113.849 184.295 115.869 179.549 119.17L86.9312 183.116C82.6801 186.096 79.1284 189.966 76.5226 194.456C73.9167 198.946 72.3191 203.95 71.8406 209.119C71.362 214.289 72.0141 219.5 73.7515 224.393C75.4888 229.285 78.2699 233.74 81.9017 237.45C116.019 271.773 237.695 394.75 270.325 425.888C278.156 433.267 286.807 439.723 296.111 445.129L133.793 445.129C131.839 445.129 129.964 445.905 128.583 447.287C127.201 448.669 126.425 450.543 126.425 452.497C126.425 454.451 127.201 456.325 128.583 457.707C129.964 459.089 131.839 459.865 133.793 459.865C145.125 459.278 370.943 461.015 374.783 458.973C396.289 457.293 416.663 448.651 432.819 434.357C449.35 418.465 461.885 398.337 453.171 377.275ZM422.899 423.463C392.808 451.043 331.71 452.942 297.963 428.947C284.746 421.712 244.932 379.686 233.292 368.942L92.3566 227.06C90.2296 224.888 88.6009 222.279 87.5834 219.415C86.5659 216.55 86.1842 213.499 86.4646 210.472C86.745 207.445 87.6809 204.515 89.2072 201.886C90.7336 199.257 92.8139 196.992 95.3036 195.248L187.921 131.301C190.6 129.453 193.709 128.325 196.95 128.024C200.191 127.722 203.454 128.259 206.428 129.581C209.402 130.904 211.986 132.968 213.933 135.577C215.879 138.185 217.123 141.249 217.545 144.477C217.552 144.649 218.281 176.536 218.293 176.69C218.31 177.079 219.587 212.259 202.929 232.268C185.503 211.782 163.926 195.23 139.624 183.706C137.85 182.939 135.845 182.899 134.042 183.596C132.239 184.292 130.781 185.669 129.983 187.429C129.185 189.19 129.11 191.194 129.775 193.009C130.44 194.824 131.791 196.305 133.537 197.134C164.744 211.287 209.306 245.631 244.525 329.165C250.629 345.132 301.775 423.494 375.389 421.079C396.438 420.741 417.168 415.871 436.166 406.8C432.711 413.06 428.226 418.694 422.899 423.463ZM343.889 401.524C287.792 383.952 258.106 323.409 257.959 323.121C246.397 294.764 231.114 268.072 212.512 243.747C222.708 231.443 229.206 216.5 231.253 200.652C247.672 215.34 278.389 220.027 321.133 213.755C322.325 213.579 323.542 213.694 324.68 214.091C325.818 214.489 326.843 215.156 327.666 216.036C331.884 220.822 327.722 227.308 327.709 232.938H303.712C301.758 232.938 299.884 233.715 298.502 235.096C297.12 236.478 296.344 238.352 296.344 240.307C296.344 242.261 297.12 244.135 298.502 245.517C299.884 246.899 301.758 247.675 303.712 247.675H326.346C325.982 254.518 325.929 261.324 326.108 267.851H303.712C301.758 267.851 299.884 268.628 298.502 270.01C297.12 271.391 296.344 273.265 296.344 275.22C296.344 277.174 297.12 279.048 298.502 280.43C299.884 281.811 301.758 282.588 303.712 282.588H326.862C327.442 290.354 328.226 297.199 328.96 302.685H303.712C301.776 302.713 299.929 303.501 298.57 304.88C297.21 306.259 296.448 308.117 296.448 310.053C296.448 311.989 297.211 313.848 298.57 315.227C299.929 316.605 301.776 317.394 303.712 317.421H331.561C342.133 353.898 396.652 369.215 428.609 375.094C431.759 375.658 434.658 377.183 436.906 379.461C439.154 381.738 440.642 384.656 441.165 387.813C406.807 406.264 374.09 410.986 343.889 401.524Z" fill="black"/>
<path d="M216.168 398.213C216.168 397.245 215.978 396.287 215.608 395.393C215.237 394.499 214.695 393.686 214.01 393.002C213.326 392.318 212.514 391.775 211.62 391.405C210.726 391.035 209.767 390.844 208.8 390.845H89.0832C87.1291 390.845 85.255 391.621 83.8732 393.003C82.4914 394.385 81.7151 396.259 81.7151 398.213C81.7151 400.167 82.4914 402.041 83.8732 403.423C85.255 404.805 87.1291 405.581 89.0832 405.581H208.799C209.767 405.581 210.725 405.391 211.62 405.021C212.514 404.651 213.326 404.108 214.01 403.424C214.695 402.739 215.237 401.927 215.608 401.033C215.978 400.139 216.168 399.181 216.168 398.213Z" fill="black"/>
<path d="M161.938 347.815C161.938 346.847 161.748 345.889 161.378 344.995C161.007 344.101 160.465 343.288 159.78 342.604C159.096 341.92 158.284 341.377 157.39 341.007C156.496 340.637 155.537 340.447 154.57 340.447H51.3459C49.3958 340.453 47.5276 341.232 46.1508 342.613C44.7741 343.994 44.001 345.865 44.001 347.815C44.001 349.765 44.7741 351.636 46.1508 353.017C47.5276 354.398 49.3958 355.177 51.3459 355.184H154.57C155.537 355.184 156.496 354.993 157.39 354.623C158.284 354.253 159.096 353.71 159.78 353.026C160.465 352.341 161.007 351.529 161.378 350.635C161.748 349.741 161.938 348.783 161.938 347.815Z" fill="black"/>
</svg>
