<svg width="500" height="500" viewBox="0 0 500 500" fill="none" xmlns="http://www.w3.org/2000/svg">
<g clip-path="url(#clip0_3_1260)">
<path d="M402.175 138.568V101.494C402.175 94.4661 407.891 88.7511 414.918 88.7511H431.859C435.763 88.7511 438.927 85.587 438.927 81.6833C438.927 77.7795 435.764 74.6155 431.859 74.6155H414.918C400.098 74.6155 388.04 86.6727 388.04 101.494V132.968C373.047 127.901 357.185 125.213 340.923 125.1V101.494C340.923 94.4661 346.638 88.7511 353.665 88.7511H370.607C374.51 88.7511 377.674 85.587 377.674 81.6833C377.674 77.7795 374.511 74.6155 370.607 74.6155H353.665C338.844 74.6155 326.787 86.6727 326.787 101.494V125.651C300.642 127.898 275.724 136.89 254.06 152C251.657 153.675 248.314 153.676 245.912 152C148.277 83.9014 10.8907 152.225 10.0019 274.1C10.2804 275.494 5.91162 332.919 54.1244 381.171C107.532 434.622 188.317 438.607 245.904 398.45C248.313 396.77 251.66 396.771 254.067 398.45C312.543 439.228 393.598 434.045 446.441 380.573C449.184 377.797 449.158 373.322 446.382 370.579C443.606 367.835 439.13 367.86 436.387 370.638C387.896 419.709 314.365 423.265 262.155 386.855C254.868 381.772 245.166 381.734 237.82 386.855C148.607 449.067 24.1347 385.429 24.1347 275.203L24.1385 274.208C24.9326 165.112 148.581 101.348 237.827 163.594C245.125 168.683 254.821 168.703 262.149 163.594C281.427 150.148 303.557 142.072 326.79 139.864V158.794C307.439 160.934 289.028 167.826 272.93 179.054C260.305 187.856 243.923 188.44 230.927 181.44C227.488 179.589 223.204 180.875 221.352 184.31C219.501 187.747 220.787 192.033 224.224 193.885C241.498 203.189 263.627 202.773 281.015 190.648C294.726 181.085 310.352 175.112 326.79 173.037V248.59C326.79 252.493 329.953 255.658 333.858 255.658C337.762 255.658 340.925 252.494 340.925 248.59V232.72H388.043V248.59C388.043 252.493 391.206 255.658 395.111 255.658C399.015 255.658 402.179 252.494 402.179 248.59V193.193C445.119 225.957 442.807 274.944 442.86 275.2C442.851 356.339 350.283 408.1 281.023 359.802C262.549 346.918 237.65 346.765 218.956 359.802C179.144 387.564 123.893 384.334 87.4582 347.868C54.3701 314.756 57.3785 275.727 57.1235 274.447C57.6616 200.764 133.098 151.855 200.247 180.294C203.841 181.815 207.989 180.137 209.511 176.542C211.034 172.948 209.354 168.8 205.759 167.278C129.753 135.087 43.6038 190.153 42.9879 274.364C43.1397 275.124 39.7329 320.105 77.4588 357.859C118.915 399.347 181.812 402.936 227.041 371.395C240.684 361.881 259.133 361.768 272.937 371.395C351.187 425.96 456.987 368.096 456.994 275.175L456.992 274.346C456.693 233.409 435.414 196.945 402.178 175.983V154.441C473.887 191.695 497.933 282.406 453.318 349.799C451.164 353.054 452.056 357.439 455.311 359.594C458.566 361.749 462.949 360.856 465.106 357.602C516.198 280.418 485.434 176.598 402.175 138.568ZM388.039 218.584H340.922V208.218H388.039V218.584ZM388.039 194.082H340.922V172.217C357.608 172.388 373.674 176.502 388.039 184.124V194.082ZM388.039 168.387C373.403 161.776 357.429 158.23 340.922 158.081V139.235C357.481 139.366 373.358 142.491 388.039 148.097V168.387Z" fill="black"/>
<path d="M155.512 240.236C152.934 237.304 148.468 237.018 145.537 239.597C143.19 241.661 139.617 241.738 137.163 239.555C129.448 232.801 117.905 232.804 110.196 239.592C107.817 241.686 104.251 241.691 101.866 239.593C98.936 237.015 94.4688 237.299 91.8907 240.23C83.5169 249.747 105.515 262.542 119.536 250.204C121.923 248.101 125.489 248.115 127.864 250.203C134.777 256.654 146.76 257.347 154.872 250.213C157.804 247.632 158.09 243.167 155.512 240.236Z" fill="black"/>
<path d="M219.647 289.757C217.07 286.825 212.603 286.537 209.672 289.115C207.339 291.166 203.766 291.27 201.297 289.075C193.581 282.32 182.037 282.324 174.329 289.112C171.951 291.205 168.384 291.21 166.001 289.113C163.071 286.533 158.603 286.818 156.026 289.748C147.765 299.136 169.565 312.133 183.67 299.721C185.879 297.775 189.319 297.467 192.044 299.76C206.123 312.089 227.942 299.195 219.647 289.757Z" fill="black"/>
<path d="M296.85 225.767C294.271 222.835 289.806 222.547 286.875 225.126C284.671 227.064 281.234 227.387 278.5 225.085C270.784 218.332 259.244 218.334 251.533 225.122C249.155 227.214 245.587 227.219 243.204 225.122C240.274 222.543 235.806 222.828 233.229 225.758C224.852 235.277 246.856 248.069 260.873 235.731C263.261 233.628 266.826 233.643 269.201 235.73C283.399 248.154 305.106 235.153 296.85 225.767Z" fill="black"/>
<path d="M407 267.007C404.423 264.076 399.957 263.787 397.025 266.365C394.76 268.356 391.246 268.58 388.648 266.324C380.935 259.572 369.392 259.573 361.682 266.362C359.305 268.455 355.737 268.46 353.354 266.362C350.424 263.783 345.956 264.068 343.379 266.998C335.006 276.511 357.006 289.311 371.023 276.97C373.269 274.992 376.787 274.743 379.4 277.012C393.512 289.366 415.237 276.373 407 267.007Z" fill="black"/>
<path d="M345.217 325.699C342.638 322.768 338.173 322.48 335.242 325.06C333.038 326.998 329.601 327.32 326.866 325.019C319.151 318.266 307.61 318.268 299.899 325.055C297.522 327.148 293.955 327.154 291.571 325.056C288.642 322.476 284.175 322.761 281.596 325.692C273.219 335.211 295.222 348.003 309.24 335.665C311.627 333.562 315.193 333.577 317.567 335.664C331.766 348.087 353.473 335.085 345.217 325.699Z" fill="black"/>
</g>
<defs>
<clipPath id="clip0_3_1260">
<rect width="480" height="480" fill="white" transform="translate(10 10)"/>
</clipPath>
</defs>
</svg>
