<svg width="500" height="500" viewBox="0 0 500 500" fill="none" xmlns="http://www.w3.org/2000/svg">
<g clip-path="url(#clip0_1_2)">
<rect width="500" height="500" fill="white"/>
<path d="M428.995 206.033C432.12 206.033 434.66 203.964 434.66 201.418V174.899C434.66 173.669 434.056 172.497 432.991 171.629L374.681 124.118C373.616 123.25 372.178 122.758 370.669 122.758H129.332C127.823 122.758 126.385 123.25 125.319 124.118L67.0104 171.629C65.945 172.497 65.3414 173.669 65.3414 174.899V201.418C65.3414 203.964 67.8804 206.033 71.0055 206.033H85.5827V388.341H71.0055C67.8805 388.341 65.3414 390.41 65.3414 392.956V419.07C65.3414 421.616 67.8804 423.685 71.0055 423.685H428.978C432.103 423.685 434.642 421.616 434.642 419.07V392.956C434.642 390.41 432.103 388.341 428.978 388.341H414.401V206.033H428.995ZM76.6864 176.809L131.677 132.001H368.323L423.314 176.809V196.789H397.692V191.349C397.692 173.93 380.31 159.766 358.932 159.766H141.032C119.654 159.766 102.271 173.93 102.271 191.349V196.789H76.65V176.809H76.6864ZM337.268 388.338V371.846H349.91C353.035 371.846 355.574 369.777 355.574 367.23V353.153C355.574 346.961 349.537 341.927 342.009 341.68V319.617C342.009 308.203 330.61 298.914 316.6 298.914C302.591 298.914 291.192 308.203 291.192 319.617V341.68C288.227 341.782 285.51 342.621 283.291 343.981C281.071 342.621 278.355 341.782 275.39 341.68V319.617C275.39 308.203 263.99 298.914 249.981 298.914C235.972 298.914 224.573 308.203 224.573 319.617V341.68C221.608 341.782 218.891 342.621 216.672 343.981C214.452 342.621 211.736 341.782 208.77 341.68V319.617C208.77 308.203 197.371 298.914 183.362 298.914C169.353 298.914 157.954 308.203 157.954 319.617V341.68C150.426 341.926 144.389 346.947 144.389 353.153V367.23C144.389 369.777 146.928 371.846 150.053 371.846H162.713V388.338H130.309V206.031H171.821V218.401H155.22C152.095 218.401 149.556 220.47 149.556 223.016V277.457C149.556 280.003 152.095 282.072 155.22 282.072H344.743C347.868 282.072 350.407 280.003 350.407 277.457V223.016C350.407 220.47 347.868 218.401 344.743 218.401H328.141V206.031H369.654V388.338H337.25H337.268ZM307.296 388.338V371.846H325.922V388.338H307.296ZM270.649 388.338V371.846H295.95V388.338H270.649ZM240.677 388.338V371.846H259.303V388.338H240.677ZM204.029 388.338V371.846H229.331V388.338H204.029ZM174.057 388.338V371.846H192.683V388.338H174.057ZM197.441 341.639H169.316V319.619C169.316 313.297 175.62 308.16 183.379 308.16C191.139 308.16 197.442 313.296 197.442 319.619L197.441 341.639ZM158.521 350.883H208.221C209.766 350.883 211.009 351.911 211.009 353.155V362.602H155.736V353.155C155.736 351.896 156.976 350.883 158.521 350.883ZM264.044 341.639H235.919V319.619C235.919 313.297 242.222 308.16 249.981 308.16C257.74 308.16 264.044 313.296 264.044 319.619L264.044 341.639ZM225.123 350.883H274.823C276.368 350.883 277.611 351.911 277.611 353.155V362.602H222.338V353.155C222.338 351.896 223.578 350.883 225.123 350.883ZM330.646 341.639H302.503V319.619C302.503 313.297 308.806 308.16 316.566 308.16C324.325 308.16 330.629 313.296 330.629 319.619V341.639H330.646ZM291.725 350.883H341.425C342.97 350.883 344.213 351.911 344.213 353.155V362.602H288.94V353.155C288.94 351.896 290.181 350.883 291.725 350.883ZM339.062 227.65V272.861H160.885V227.65H339.062ZM183.148 218.405V206.036H316.775V218.405H183.148ZM386.325 196.776L113.635 196.762V191.351C113.635 179.025 125.939 169.013 141.049 169.013H358.949C374.077 169.013 386.364 179.039 386.364 191.351V196.762L386.325 196.776ZM96.8891 206.036H118.96V388.343H96.8891V206.036ZM423.275 414.454L76.6845 414.44V397.57H423.33V414.44L423.275 414.454ZM403.034 388.34H380.964V206.033H403.034V388.34ZM175.493 241.247C175.493 238.701 178.032 236.632 181.157 236.632H318.835C321.96 236.632 324.499 238.701 324.499 241.247C324.499 243.794 321.96 245.863 318.835 245.863H181.157C178.032 245.863 175.493 243.794 175.493 241.247ZM175.493 259.231C175.493 256.684 178.032 254.616 181.157 254.616H318.835C321.96 254.616 324.499 256.684 324.499 259.231C324.499 261.777 321.96 263.846 318.835 263.846H181.157C178.032 263.846 175.493 261.777 175.493 259.231Z" fill="black"/>
</g>
<defs>
<clipPath id="clip0_1_2">
<rect width="500" height="500" fill="white"/>
</clipPath>
</defs>
</svg>
