<svg width="500" height="500" viewBox="0 0 500 500" fill="none" xmlns="http://www.w3.org/2000/svg">
<g clip-path="url(#clip0_1_2)">
<rect width="500" height="500" fill="white"/>
<g clip-path="url(#clip1_1_2)">
<g clip-path="url(#clip2_1_2)">
<path d="M488.31 168.12H409.455V81.012C409.457 80.3544 409.297 79.7029 408.984 79.0949C408.67 78.4869 408.21 77.9343 407.63 77.4687C407.049 77.0031 406.36 76.6338 405.6 76.3817C404.841 76.1297 404.027 76 403.205 76H94.64C92.9824 76 91.3927 76.5268 90.2206 77.4645C89.0485 78.4021 88.39 79.6739 88.39 81V138.4L49.27 169.676C48.6897 170.14 48.2294 170.692 47.9154 171.298C47.6014 171.905 47.4398 172.555 47.44 173.212V430.988C47.438 431.646 47.5982 432.297 47.9114 432.905C48.2246 433.513 48.6847 434.066 49.2653 434.531C49.8458 434.997 50.5355 435.366 51.2948 435.618C52.054 435.87 52.868 436 53.69 436H362.26C363.917 435.999 365.505 435.472 366.676 434.534C367.847 433.597 368.505 432.325 368.505 431V407.14H403.205C404.026 407.141 404.838 407.012 405.596 406.761C406.355 406.51 407.044 406.142 407.624 405.678C408.205 405.214 408.665 404.663 408.979 404.057C409.293 403.45 409.455 402.8 409.455 402.144V361.6L446.285 344.592C461.116 337.953 473.431 328.233 481.928 316.458C490.425 304.683 494.79 291.291 494.56 277.696V173.12C494.56 171.794 493.902 170.522 492.729 169.584C491.557 168.647 489.968 168.12 488.31 168.12ZM100.89 86H396.955V168.12H368.5V109.86C368.501 109.204 368.34 108.553 368.026 107.947C367.713 107.34 367.253 106.789 366.673 106.325C366.093 105.86 365.404 105.492 364.646 105.241C363.888 104.989 363.076 104.86 362.255 104.86H132.88C132.059 104.86 131.246 104.989 130.488 105.24C129.73 105.491 129.04 105.86 128.46 106.324L100.89 128.4V86ZM126.63 121.916V168.212H68.78L126.63 121.916ZM59.94 426V178.208H132.88C134.537 178.208 136.126 177.682 137.298 176.745C138.47 175.808 139.129 174.537 139.13 173.212V114.856H356V168.12H277.155C275.497 168.12 273.908 168.647 272.736 169.584C271.563 170.522 270.905 171.794 270.905 173.12V277.7C270.675 291.295 275.04 304.687 283.537 316.462C292.034 328.237 304.349 337.957 319.18 344.596L356 361.6V426H59.94ZM396.94 397.156H368.5V367.38L379.6 372.504C380.55 372.944 381.628 373.176 382.725 373.176C383.822 373.176 384.9 372.944 385.85 372.504L396.95 367.38L396.94 397.156ZM482.06 277.7C482.26 289.535 478.461 301.193 471.064 311.444C463.666 321.694 452.946 330.156 440.035 335.936L382.73 362.4L325.43 335.932C312.519 330.152 301.799 321.69 294.401 311.44C287.004 301.189 283.205 289.531 283.405 277.696V178.12H482.06V277.7ZM330.47 328.956L379.605 351.652C380.556 352.09 381.633 352.32 382.73 352.32C383.827 352.32 384.904 352.09 385.855 351.652L435 328.956C446.365 323.87 455.802 316.422 462.315 307.4C468.827 298.379 472.174 288.117 472 277.7V191.2C472 189.874 471.342 188.602 470.169 187.664C468.997 186.727 467.408 186.2 465.75 186.2H299.75C298.092 186.2 296.503 186.727 295.331 187.664C294.158 188.602 293.5 189.874 293.5 191.2V277.72C293.328 288.131 296.672 298.387 303.179 307.405C309.686 316.423 319.114 323.868 330.47 328.956ZM306 196.18H459.5V277.7C459.728 286.369 456.983 294.922 451.564 302.432C446.145 309.941 438.258 316.119 428.76 320.296L382.76 341.548L336.76 320.296C327.258 316.121 319.367 309.944 313.944 302.434C308.522 294.925 305.774 286.371 306 277.7V196.18ZM359.525 304.224C362.73 306.782 367.073 308.219 371.6 308.219C376.128 308.219 380.47 306.782 383.675 304.224L440.785 258.536C444.283 255.737 446.247 251.942 446.247 247.985C446.246 244.027 444.281 240.232 440.782 237.434C437.284 234.636 432.54 233.064 427.593 233.065C422.647 233.065 417.903 234.637 414.405 237.436L371.6 271.68L351.06 255.244C347.547 252.504 342.826 250.982 337.919 251.007C333.013 251.032 328.317 252.603 324.847 255.378C321.378 258.153 319.415 261.911 319.384 265.835C319.353 269.76 321.255 273.537 324.68 276.348L359.525 304.224ZM333.5 262.316C334.657 261.399 336.221 260.884 337.85 260.884C339.479 260.884 341.043 261.399 342.2 262.316L367.16 282.284C368.333 283.221 369.923 283.747 371.58 283.747C373.237 283.747 374.827 283.221 376 282.284L423.225 244.504C424.388 243.613 425.94 243.122 427.55 243.137C429.159 243.151 430.698 243.669 431.836 244.58C432.973 245.49 433.62 246.722 433.637 248.009C433.653 249.297 433.039 250.538 431.925 251.468L374.835 297.156C373.976 297.841 372.813 298.226 371.6 298.226C370.387 298.226 369.224 297.841 368.365 297.156L333.5 269.276C332.347 268.353 331.699 267.101 331.699 265.796C331.699 264.491 332.347 263.239 333.5 262.316ZM156.755 146.148C156.755 144.822 157.413 143.55 158.586 142.612C159.758 141.675 161.347 141.148 163.005 141.148H317.25C318.908 141.148 320.497 141.675 321.669 142.612C322.842 143.55 323.5 144.822 323.5 146.148C323.5 147.474 322.842 148.746 321.669 149.684C320.497 150.621 318.908 151.148 317.25 151.148H163C161.343 151.147 159.755 150.62 158.584 149.682C157.413 148.745 156.755 147.473 156.755 146.148ZM92.445 195.856C92.445 194.53 93.1035 193.258 94.2756 192.32C95.4477 191.383 97.0374 190.856 98.695 190.856H239.195C240.853 190.856 242.442 191.383 243.614 192.32C244.787 193.258 245.445 194.53 245.445 195.856C245.445 197.182 244.787 198.454 243.614 199.392C242.442 200.329 240.853 200.856 239.195 200.856H98.695C97.8742 200.856 97.0615 200.727 96.3032 200.475C95.5449 200.224 94.8559 199.856 94.2756 199.392C93.6952 198.927 93.2348 198.376 92.9208 197.769C92.6067 197.163 92.445 196.513 92.445 195.856ZM92.445 245.568C92.445 244.242 93.1035 242.97 94.2756 242.032C95.4477 241.095 97.0374 240.568 98.695 240.568H239.195C240.853 240.568 242.442 241.095 243.614 242.032C244.787 242.97 245.445 244.242 245.445 245.568C245.445 246.894 244.787 248.166 243.614 249.104C242.442 250.041 240.853 250.568 239.195 250.568H98.695C97.8742 250.568 97.0615 250.439 96.3032 250.187C95.5449 249.936 94.8559 249.568 94.2756 249.104C93.6952 248.639 93.2348 248.088 92.9208 247.481C92.6067 246.875 92.445 246.225 92.445 245.568ZM92.445 295.28C92.445 293.954 93.1035 292.682 94.2756 291.744C95.4477 290.807 97.0374 290.28 98.695 290.28H239.195C240.853 290.28 242.442 290.807 243.614 291.744C244.787 292.682 245.445 293.954 245.445 295.28C245.445 296.606 244.787 297.878 243.614 298.816C242.442 299.753 240.853 300.28 239.195 300.28H98.695C97.0374 300.28 95.4477 299.753 94.2756 298.816C93.1035 297.878 92.445 296.606 92.445 295.28ZM92.445 344.988C92.449 343.664 93.1092 342.395 94.2809 341.46C95.4526 340.525 97.04 340 98.695 340H265.11C266.768 340 268.357 340.527 269.529 341.464C270.702 342.402 271.36 343.674 271.36 345C271.36 346.326 270.702 347.598 269.529 348.536C268.357 349.473 266.768 350 265.11 350H98.695C97.873 350 97.059 349.87 96.2998 349.618C95.5405 349.366 94.8508 348.997 94.2703 348.531C93.6897 348.066 93.2297 347.513 92.9164 346.905C92.6032 346.297 92.443 345.646 92.445 344.988ZM323.5 394.7C323.5 396.026 322.842 397.298 321.669 398.236C320.497 399.173 318.908 399.7 317.25 399.7H98.695C97.0374 399.7 95.4477 399.173 94.2756 398.236C93.1035 397.298 92.445 396.026 92.445 394.7C92.445 393.374 93.1035 392.102 94.2756 391.164C95.4477 390.227 97.0374 389.7 98.695 389.7H317.25C318.908 389.7 320.497 390.227 321.669 391.164C322.842 392.102 323.5 393.374 323.5 394.7Z" fill="black"/>
</g>
</g>
</g>
<defs>
<clipPath id="clip0_1_2">
<rect width="500" height="500" fill="white"/>
</clipPath>
<clipPath id="clip1_1_2">
<rect width="500" height="500" fill="white"/>
</clipPath>
<clipPath id="clip2_1_2">
<rect width="500" height="500" fill="white"/>
</clipPath>
</defs>
</svg>
