<svg width="500" height="500" viewBox="0 0 500 500" fill="none" xmlns="http://www.w3.org/2000/svg">
<path d="M475 317.5H467.5V308.5C471.7 306.925 475.375 304.225 478.15 300.325C482.725 293.8 483.775 285.475 480.775 277.375L466.825 246.85C465.625 244.15 462.925 242.5 460 242.5C457.075 242.5 454.375 244.225 453.175 246.85L439 277.975C436.225 285.475 437.35 293.875 441.85 300.4C444.55 304.3 448.3 307 452.5 308.575V317.575H445C440.875 317.575 437.5 320.95 437.5 325.075V467.575H415V482.575H475C479.125 482.575 482.5 479.2 482.5 475.075V325.075C482.5 320.95 479.125 317.575 475 317.575V317.5ZM452.875 283.675L460 268.075L466.9 283.15C467.95 286.075 467.575 289.3 465.85 291.775C465.025 292.975 463.15 295 460 295C456.85 295 454.975 292.975 454.15 291.775C452.425 289.3 452.05 286.075 452.875 283.675ZM467.5 467.5H452.5V332.5H467.5V467.5Z" fill="black"/>
<path d="M25.0001 482.5H85.0001V467.5H62.5001V325C62.5001 320.875 59.1251 317.5 55.0001 317.5H47.5001V308.5C51.7001 306.925 55.3751 304.225 58.1501 300.325C62.7251 293.8 63.7751 285.475 60.7751 277.375L46.8251 246.85C45.6251 244.15 42.9251 242.5 40.0001 242.5C37.0751 242.5 34.3751 244.225 33.1751 246.85L19.0001 277.975C16.2251 285.475 17.3501 293.875 21.8501 300.4C24.5501 304.3 28.3001 307 32.5001 308.575V317.575H25.0001C20.8751 317.575 17.5001 320.95 17.5001 325.075V475.075C17.5001 479.2 20.8751 482.575 25.0001 482.575V482.5ZM32.8751 283.675L40.0001 268.075L46.9001 283.15C47.9501 286.075 47.5751 289.3 45.8501 291.775C45.0251 292.975 43.1501 295 40.0001 295C36.8501 295 34.9751 292.975 34.1501 291.775C32.4251 289.3 32.0501 286.075 32.8751 283.675ZM32.5001 332.5H47.5001V467.5H32.5001V332.5Z" fill="black"/>
<path d="M212.5 235C212.5 255.7 229.3 272.5 250 272.5C270.7 272.5 287.5 255.7 287.5 235C287.5 214.3 270.7 197.5 250 197.5C229.3 197.5 212.5 214.3 212.5 235ZM272.5 235C272.5 247.375 262.375 257.5 250 257.5C237.625 257.5 227.5 247.375 227.5 235C227.5 222.625 237.625 212.5 250 212.5C262.375 212.5 272.5 222.625 272.5 235Z" fill="black"/>
<path d="M167.725 482.501H332.35C344.875 482.501 355.075 472.301 355.075 459.776C355.075 452.876 352 446.426 346.525 442.076L322.45 422.801C318.25 419.426 314.725 415.076 312.325 410.276L309.325 404.201C311.2 403.901 313.075 403.676 314.95 403.301C329.5 400.676 340.075 388.001 340.075 373.226C340.075 370.376 339.7 367.526 338.875 364.826L328.675 329.126C325.75 318.926 320.275 309.626 312.775 302.126C303.55 292.901 291.85 286.826 278.875 284.726C259.675 281.501 240.25 281.501 221.125 284.726C208.225 286.901 196.525 292.901 187.225 302.126C179.725 309.626 174.25 318.926 171.325 329.126L161.125 364.826C160.375 367.526 159.925 370.376 159.925 373.226C159.925 388.001 170.5 400.676 185.05 403.301C186.925 403.676 188.8 403.901 190.675 404.201L187.675 410.276C185.275 415.151 181.75 419.426 177.55 422.801L153.475 442.076C148.075 446.426 144.925 452.876 144.925 459.776C144.925 472.301 155.125 482.501 167.65 482.501H167.725ZM175 373.226C175 371.801 175.225 370.376 175.6 368.951L185.8 333.251C187.975 325.526 192.175 318.401 197.875 312.776C204.925 305.726 213.775 301.151 223.6 299.501C232.375 298.076 241.15 297.326 250 297.326C258.85 297.326 267.625 298.076 276.4 299.501C286.225 301.151 295.075 305.726 302.125 312.776C307.825 318.476 311.95 325.526 314.2 333.251L324.4 368.951C324.775 370.376 325 371.801 325 373.226C325 380.726 319.6 387.176 312.175 388.526C294.025 391.826 275.725 393.551 257.5 394.001V381.026C270.475 380.651 283.375 379.526 296.2 377.351C298.15 377.051 299.95 375.926 301.075 374.276C302.2 372.626 302.725 370.676 302.35 368.651L296.125 331.151L281.35 333.626L286.375 363.626C262.225 367.001 237.85 367.001 213.7 363.626L218.725 333.626L203.95 331.151L197.725 368.651C197.425 370.601 197.875 372.626 199 374.276C200.125 375.926 201.925 376.976 203.875 377.351C216.7 379.526 229.675 380.651 242.575 381.026V394.001C224.275 393.626 206.05 391.826 187.9 388.526C180.475 387.176 175.075 380.726 175.075 373.226H175ZM162.85 453.776L186.925 434.501C192.85 429.776 197.725 423.701 201.1 416.951L206.35 406.451C220.9 408.251 235.45 409.151 250 409.151C264.55 409.151 279.1 408.176 293.65 406.451L298.9 416.951C302.275 423.701 307.15 429.776 313.075 434.501L337.15 453.776C338.95 455.276 340.075 457.451 340.075 459.776C340.075 464.051 336.625 467.501 332.35 467.501H225.025C222.25 467.501 220.075 465.251 220.075 462.551C220.075 460.226 221.65 458.201 223.975 457.676L281.725 444.851L278.5 430.226L220.75 443.051C211.525 445.076 205.075 453.101 205.075 462.551C205.075 464.276 205.375 465.926 205.75 467.501H167.725C163.45 467.501 160 464.051 160 459.776C160 457.451 161.05 455.201 162.85 453.776Z" fill="black"/>
<path d="M100 467.5H115V482.5H100V467.5Z" fill="black"/>
<path d="M385 467.5H400V482.5H385V467.5Z" fill="black"/>
<path d="M248.275 152.5H250H251.725C302.425 152.5 343.15 119.5 346.825 75.0996L347.425 67.5996C347.575 65.4246 346.825 63.3246 345.325 61.7496C343.825 60.1746 341.725 59.3496 339.55 59.4996L330.925 60.0246C324.475 60.4746 318.175 61.4496 311.95 62.9496C311.2 58.1496 310.075 53.3496 308.35 48.5496L305.8 41.3496C305.125 39.3996 303.7 37.8246 301.825 36.9996C299.95 36.1746 297.85 36.0996 295.9 36.9246L288.025 40.1496C283.6 41.9496 279.4 44.1996 275.425 46.5246C271.75 39.2496 267.025 32.3496 261.25 26.0496L255.55 19.8246C252.7 16.7496 247.375 16.7496 244.525 19.8246L238.825 26.0496C233.05 32.3496 228.325 39.2496 224.65 46.5246C220.6 44.1246 216.475 41.9496 212.05 40.1496L204.175 36.9246C202.3 36.1746 200.125 36.1746 198.25 36.9996C196.375 37.8246 194.95 39.3996 194.275 41.3496L191.725 48.5496C190 53.3496 188.875 58.1496 188.125 62.9496C181.975 61.4496 175.6 60.3996 169.15 60.0246L160.525 59.4996C158.35 59.3496 156.25 60.1746 154.75 61.7496C153.25 63.3246 152.425 65.4246 152.65 67.5996L153.25 75.0996C156.925 119.5 197.65 152.5 248.35 152.5H248.275ZM312.7 78.4746C318.925 76.7496 325.3 75.4746 331.825 75.0246C329.275 100.15 311.8 120.85 287.05 130.9C302.275 116.8 311.575 98.4246 312.7 78.4746ZM293.725 54.0996L294.325 53.8746C296.575 60.2496 297.7 66.6246 297.775 72.9246C298.225 90.3996 290.725 106.75 277.6 119.275C281.725 109.75 284.2 99.6246 284.725 89.1246C285.175 79.4496 283.825 69.9246 281.05 60.7746C285.025 58.2996 289.225 55.9746 293.725 54.0996ZM249.85 36.3246L250 36.1746L250.15 36.3246C263.575 50.9496 270.55 69.4746 269.65 88.4496C268.9 105.4 261.925 121.525 249.925 134.5C237.925 121.525 231.025 105.4 230.2 88.4496C229.3 69.4746 236.275 50.9496 249.7 36.3246H249.85ZM205.675 53.8746L206.275 54.0996C210.85 55.9746 214.975 58.2996 218.95 60.7746C216.175 69.9246 214.9 79.4496 215.275 89.1246C215.725 99.5496 218.275 109.75 222.4 119.2C209.275 106.675 201.775 90.3246 202.225 72.7746C202.225 66.5496 203.425 60.1746 205.675 53.7996V53.8746ZM187.3 78.5496C188.425 98.4996 197.725 116.95 212.95 130.975C188.125 120.925 170.65 100.225 168.175 75.0996C174.775 75.5496 181.15 76.8246 187.3 78.5496Z" fill="black"/>
</svg>
