<svg width="500" height="500" viewBox="0 0 500 500" fill="none" xmlns="http://www.w3.org/2000/svg">
<g clip-path="url(#clip0_1_2)">
<rect width="500" height="500" fill="white"/>
<path d="M120.395 182.935H120.159C119.383 182.935 118.653 183.04 117.877 183.25C117.759 183.25 117.641 183.25 117.524 183.355C116.865 183.565 116.253 183.775 115.665 184.111C115.547 184.174 115.477 184.279 115.359 184.321C115.171 184.426 115.053 184.531 114.935 184.636C114.324 185.056 113.782 185.497 113.359 186.043C113.288 186.106 113.241 186.148 113.171 186.253C112.7 186.841 112.323 187.534 112.017 188.248C112.017 188.311 111.9 188.416 111.9 188.458L0.455086 487.395C-0.439122 489.873 -0.0155398 492.561 1.7258 494.661C3.42006 496.761 6.12617 498 9.06789 498L490.943 497.979C493.837 497.979 496.543 496.74 498.285 494.64C499.979 492.54 500.45 489.852 499.556 487.374L388.183 188.453C388.183 188.453 388.065 188.285 388.065 188.243C387.76 187.55 387.407 186.899 386.912 186.248C386.912 186.185 386.795 186.143 386.724 186.038C386.301 185.492 385.759 185.072 385.148 184.631C385.03 184.526 384.842 184.421 384.724 184.316C384.606 184.253 384.536 184.148 384.418 184.106C383.806 183.791 383.218 183.518 382.559 183.35C382.441 183.35 382.324 183.287 382.206 183.245C381.43 183.035 380.7 182.93 379.924 182.93H379.688H300.719V18.9162C300.719 7.40814 290.248 -2 277.282 -2C264.34 -2 253.845 7.34524 253.845 18.9162V19.0842L168.31 52.4745C164.992 53.7555 162.897 56.6746 162.897 59.8456C162.897 63.0167 165.015 65.9776 168.31 67.2168L253.845 100.607V182.969L120.395 182.935ZM253.701 199.063V213.049H146.467L136.701 199.063H253.748H253.701ZM45.8954 481.855H21.5637L122.936 209.815L131.666 222.289L45.8954 481.855ZM377.031 209.815L478.403 481.855H454.072L368.301 222.293L377.031 209.815ZM300.58 199.063H363.29L353.524 213.049H300.578L300.58 199.063ZM300.58 229.177H351.784L435.271 481.853H64.7446L148.232 229.177H253.725V278.738C252.454 278.738 251.254 278.633 249.983 278.633C226.852 278.633 207.203 284.072 195.531 292.62C194.684 292.62 193.908 292.515 193.061 292.515C170.706 292.515 152.586 308.748 152.586 328.636C152.586 348.523 170.776 364.756 193.061 364.756C209.509 364.756 223.651 355.937 229.981 343.42C236.241 344.344 242.923 344.869 249.983 344.869C287.563 344.869 315.94 330.631 315.94 311.751C315.94 303.309 310.222 295.791 300.574 290.079L300.58 229.177ZM215.514 328.635C215.514 339.66 205.443 348.628 193.112 348.628C180.758 348.628 170.71 339.639 170.71 328.635C170.71 317.61 180.781 308.642 193.112 308.642C205.466 308.642 215.514 317.631 215.514 328.635ZM271.849 95.3238V18.9243C271.849 16.2992 274.249 14.1362 277.214 14.1362C280.155 14.1362 282.579 16.2783 282.579 18.9243V282.669C279.214 281.745 275.661 281.01 271.919 280.359V95.3254L271.849 95.3238ZM194.428 59.833L253.774 36.6696V83.0174L194.428 59.854V59.833ZM297.921 311.751C297.921 318.681 279.236 328.74 250.034 328.74C244.081 328.74 238.598 328.32 233.539 327.564C233.186 316.224 226.903 306.228 217.396 299.823C225.585 296.862 236.668 294.762 249.987 294.762C279.214 294.762 297.874 304.821 297.874 311.751L297.921 311.751Z" fill="black"/>
</g>
<defs>
<clipPath id="clip0_1_2">
<rect width="500" height="500" fill="white"/>
</clipPath>
</defs>
</svg>
