<svg width="500" height="500" viewBox="0 0 500 500" fill="none" xmlns="http://www.w3.org/2000/svg">
<g clip-path="url(#clip0_1_2)">
<rect width="500" height="500" fill="white"/>
<g clip-path="url(#clip1_1_2)">
<g clip-path="url(#clip2_1_2)">
<path d="M451.25 365.87V353.197C451.25 349.609 447.681 346.715 443.295 346.715H420.178C416.662 346.715 413.289 345.355 411.158 343.069L335.662 261.951C328.489 254.24 318.066 248.945 306.614 246.905V215.611C306.614 205.73 296.742 197.686 284.615 197.686H269.931V166.581C271.405 165.872 272.594 164.772 273.269 163.412C274.476 160.953 273.731 158.146 271.387 156.309L180.887 85.8384C177.815 83.4367 172.968 83.4367 169.878 85.8384L79.3783 156.324C77.0345 158.161 76.271 160.968 77.4962 163.427C78.1709 164.787 79.3605 165.887 80.8342 166.596V275.71C80.8342 279.284 84.3676 282.178 88.7533 282.192V365.859C77.9047 368.622 70.0033 376.898 70.0033 386.634C70.0033 398.628 81.9883 408.393 96.7079 408.393H443.299C458.018 408.393 470.003 398.628 470.003 386.634C470.003 376.898 462.102 368.622 451.253 365.859L451.25 365.87ZM269.927 210.678H284.611C287.967 210.678 290.684 212.891 290.684 215.626V245.979H269.927V210.678ZM269.927 258.956H296.188C306.646 258.956 316.642 263.007 322.963 269.792L398.459 350.91C403.572 356.408 411.687 359.692 420.156 359.692H435.301V364.886H420.156C409.698 364.886 399.684 360.835 393.38 354.05L317.885 272.946C312.771 267.448 304.657 264.164 296.188 264.164H269.927V258.956ZM261.635 282.205H261.973C265.773 282.205 268.951 280.035 269.732 277.127H296.188C299.703 277.127 303.077 278.487 305.208 280.773L380.703 361.891C381.68 362.933 382.727 363.931 383.81 364.886H261.633L261.635 282.205ZM175.376 99.5085L246.026 154.527H104.726L175.376 99.5085ZM96.7536 167.505H254.017V269.227H210.072V204.194C210.072 188.612 194.518 175.939 175.395 175.939C156.272 175.939 140.718 188.612 140.718 204.194V269.227H96.7727V167.505H96.7536ZM245.708 282.205V364.886H237.931V282.205H245.708ZM222.005 282.205V364.886H210.055V282.205H222.005ZM156.627 348.06V333.434H194.145V348.06H156.627ZM194.145 361.023V364.872H156.627V361.023H194.145ZM156.627 320.457V305.83H194.145V320.457H156.627ZM156.627 292.853V282.204H194.145V292.853H156.627ZM156.627 269.227V204.194C156.627 195.759 165.044 188.916 175.377 188.916C185.729 188.916 194.127 195.774 194.127 204.194V269.227H156.61H156.627ZM140.7 282.204V364.886H128.36V282.204H140.7ZM112.433 282.204V364.886H104.656V282.204H112.433ZM443.292 395.427H96.7014C90.7532 395.427 85.9236 391.491 85.9236 386.645C85.9236 381.798 90.7532 377.863 96.7014 377.863H443.292C449.24 377.863 454.07 381.798 454.07 386.645C454.07 391.491 449.24 395.427 443.292 395.427Z" fill="black"/>
</g>
</g>
</g>
<defs>
<clipPath id="clip0_1_2">
<rect width="500" height="500" fill="white"/>
</clipPath>
<clipPath id="clip1_1_2">
<rect width="500" height="500" fill="white" transform="translate(0 63)"/>
</clipPath>
<clipPath id="clip2_1_2">
<rect width="500" height="500" fill="white" transform="translate(0 84)"/>
</clipPath>
</defs>
</svg>
