<svg width="500" height="500" viewBox="0 0 500 500" fill="none" xmlns="http://www.w3.org/2000/svg">
<path d="M40.9678 304.194H459.032V40.9678H40.9678V304.194ZM118.65 180.323H149.742C153.528 229.639 192.942 269.053 242.258 272.831V288.71H188.111C147.365 266.963 121.314 226.077 118.65 180.323ZM188.103 56.4516H242.258V72.3304C192.942 76.1084 153.528 115.523 149.75 164.839H118.658C121.314 119.084 147.357 78.2065 188.103 56.4516ZM381.35 164.839H350.258C346.472 115.523 307.058 76.1084 257.742 72.3304V56.4516H311.889C352.635 78.1987 378.686 119.084 381.35 164.839ZM311.889 288.71H257.742V272.831C307.058 269.053 346.472 229.639 350.25 180.323H381.342C378.686 226.077 352.635 266.963 311.889 288.71ZM165.234 164.839C168.934 124.054 201.474 91.5071 242.258 87.8142V102.903H257.742V87.8142C298.526 91.5149 331.074 124.054 334.766 164.839H319.677V180.323H334.766C331.066 221.107 298.526 253.654 257.742 257.347V242.258H242.258V257.347C201.474 253.646 168.926 221.107 165.234 180.323H180.323V164.839H165.234ZM443.548 288.71H340.225C373.794 262.697 394.596 223.414 396.834 180.323H412.581V164.839H396.834C394.596 121.747 373.794 82.4645 340.225 56.4516H443.548V288.71ZM56.4516 56.4516H159.776C126.206 82.4645 105.412 121.747 103.174 164.839H87.4194V180.323H103.166C105.404 223.414 126.206 262.697 159.776 288.71H56.4516V56.4516Z" fill="black"/>
<path d="M474.516 10H25.4839C16.9445 10 10 16.9445 10 25.4839V319.677C10 328.217 16.9445 335.161 25.4839 335.161H474.516C483.055 335.161 490 328.217 490 319.677V25.4839C490 16.9445 483.055 10 474.516 10ZM25.4839 319.677V25.4839H474.516L474.524 319.677H25.4839Z" fill="black"/>
<path d="M56.4516 412.581C56.4516 404.041 63.3962 397.097 71.9355 397.097H102.903C111.443 397.097 118.387 404.041 118.387 412.581H133.871C133.871 395.502 119.982 381.613 102.903 381.613H71.9355C54.8568 381.613 40.9678 395.502 40.9678 412.581H56.4516Z" fill="black"/>
<path d="M164.839 412.581C164.839 404.041 171.783 397.097 180.322 397.097H211.29C219.83 397.097 226.774 404.041 226.774 412.581H242.258C242.258 395.502 228.369 381.613 211.29 381.613H180.322C163.244 381.613 149.355 395.502 149.355 412.581H164.839Z" fill="black"/>
<path d="M273.226 412.581C273.226 404.041 280.17 397.097 288.71 397.097H319.677C328.217 397.097 335.161 404.041 335.161 412.581H350.645C350.645 395.502 336.756 381.613 319.677 381.613H288.71C271.631 381.613 257.742 395.502 257.742 412.581H273.226Z" fill="black"/>
<path d="M381.613 412.581C381.613 404.041 388.557 397.097 397.097 397.097H428.064C436.604 397.097 443.548 404.041 443.548 412.581H459.032C459.032 395.502 445.143 381.613 428.064 381.613H397.097C380.018 381.613 366.129 395.502 366.129 412.581H381.613Z" fill="black"/>
<path d="M71.9355 366.129H102.903C111.443 366.129 118.387 373.074 118.387 381.613H133.871C133.871 364.534 119.982 350.645 102.903 350.645H71.9355C54.8568 350.645 40.9678 364.534 40.9678 381.613H56.4516C56.4516 373.074 63.3962 366.129 71.9355 366.129Z" fill="black"/>
<path d="M180.322 366.129H211.29C219.83 366.129 226.774 373.074 226.774 381.613H242.258C242.258 364.534 228.369 350.645 211.29 350.645H180.322C163.244 350.645 149.355 364.534 149.355 381.613H164.839C164.839 373.074 171.783 366.129 180.322 366.129Z" fill="black"/>
<path d="M288.71 366.129H319.677C328.217 366.129 335.161 373.074 335.161 381.613H350.645C350.645 364.534 336.756 350.645 319.677 350.645H288.71C271.631 350.645 257.742 364.534 257.742 381.613H273.226C273.226 373.074 280.17 366.129 288.71 366.129Z" fill="black"/>
<path d="M397.097 366.129H428.064C436.604 366.129 443.548 373.074 443.548 381.613H459.032C459.032 364.534 445.143 350.645 428.064 350.645H397.097C380.018 350.645 366.129 364.534 366.129 381.613H381.613C381.613 373.074 388.557 366.129 397.097 366.129Z" fill="black"/>
<path d="M459.032 443.548C459.032 426.47 445.143 412.581 428.065 412.581H397.097C380.018 412.581 366.129 426.47 366.129 443.548V474.516H350.645V443.548C350.645 426.47 336.756 412.581 319.677 412.581H288.71C271.631 412.581 257.742 426.47 257.742 443.548V474.516H242.258V443.548C242.258 426.47 228.369 412.581 211.29 412.581H180.323C163.244 412.581 149.355 426.47 149.355 443.548V474.516H133.871V443.548C133.871 426.47 119.982 412.581 102.903 412.581H71.9355C54.8568 412.581 40.9677 426.47 40.9677 443.548V474.516H10V490H490V474.516H459.032V443.548ZM381.613 443.548C381.613 435.009 388.557 428.064 397.097 428.064H428.065C436.604 428.064 443.548 435.009 443.548 443.548V474.516H381.613V443.548ZM273.226 443.548C273.226 435.009 280.17 428.064 288.71 428.064H319.677C328.217 428.064 335.161 435.009 335.161 443.548V474.516H273.226V443.548ZM164.839 443.548C164.839 435.009 171.783 428.064 180.323 428.064H211.29C219.83 428.064 226.774 435.009 226.774 443.548V474.516H164.839V443.548ZM56.4516 443.548C56.4516 435.009 63.3961 428.064 71.9355 428.064H102.903C111.443 428.064 118.387 435.009 118.387 443.548V474.516H56.4516V443.548Z" fill="black"/>
</svg>
