<svg width="500" height="500" viewBox="0 0 500 500" fill="none" xmlns="http://www.w3.org/2000/svg">
<g clip-path="url(#clip0_3_1265)">
<path d="M123.513 489.475C124.431 489.833 125.411 490.006 126.396 489.984C127.381 489.963 128.353 489.747 129.255 489.35C130.157 488.953 130.972 488.382 131.653 487.67C132.334 486.958 132.869 486.119 133.225 485.2L222.175 257.5H277.825L366.738 485.238C367.464 487.092 368.897 488.583 370.722 489.381C372.547 490.179 374.614 490.22 376.469 489.494C378.324 488.768 379.814 487.335 380.612 485.51C381.411 483.685 381.451 481.617 380.725 479.762L291.25 250.487V250V193.75C291.25 182.81 286.904 172.318 279.168 164.582C271.432 156.846 260.94 152.5 250 152.5C239.06 152.5 228.568 156.846 220.832 164.582C213.096 172.318 208.75 182.81 208.75 193.75V250C208.75 250 208.75 250.337 208.75 250.487L119.275 479.762C118.551 481.613 118.591 483.674 119.385 485.495C120.18 487.316 121.664 488.747 123.513 489.475ZM223.75 193.75C223.75 186.788 226.516 180.111 231.439 175.188C236.361 170.266 243.038 167.5 250 167.5C256.962 167.5 263.639 170.266 268.562 175.188C273.485 180.111 276.25 186.788 276.25 193.75V242.5H223.75V193.75Z" fill="black"/>
<path d="M21.2504 365.087V482.5C21.2504 484.489 22.0405 486.397 23.4471 487.803C24.8536 489.21 26.7612 490 28.7504 490H58.7504C59.3965 489.995 60.0393 489.907 60.6629 489.737H61.0004C62.0791 489.4 63.0678 488.824 63.8925 488.051C64.7172 487.279 65.3565 486.329 65.7629 485.275L174.325 245.612C174.429 245.343 174.516 245.067 174.588 244.787C174.588 244.6 174.588 244.375 174.775 244.187C174.963 244 174.775 243.812 174.775 243.587C174.877 243.231 174.952 242.867 175 242.5V123.475C208.188 99.1748 232.525 72.2498 247.3 43.4498C248.25 41.6248 249.15 39.7873 250 37.9373C250.875 39.7873 251.775 41.6123 252.7 43.4123C267.475 72.2873 291.813 99.1748 325 123.475V242.5C324.982 242.8 324.982 243.1 325 243.4V244C325 244 325 244.412 325.188 244.6C325.259 244.88 325.347 245.155 325.45 245.425L434.013 484.975C434.419 486.029 435.059 486.978 435.883 487.751C436.708 488.524 437.697 489.1 438.775 489.437H439.113C439.736 489.607 440.379 489.695 441.025 489.7H471.025C473.015 489.7 474.922 488.91 476.329 487.503C477.735 486.097 478.525 484.189 478.525 482.2V365.087C482.404 361.842 485.503 357.766 487.594 353.162C489.686 348.557 490.716 343.542 490.608 338.486C490.5 333.43 489.258 328.463 486.972 323.951C484.686 319.44 481.416 315.5 477.403 312.423C473.39 309.346 468.737 307.209 463.787 306.172C458.838 305.135 453.718 305.223 448.807 306.431C443.897 307.638 439.32 309.934 435.415 313.148C431.511 316.362 428.379 320.412 426.25 325C416.988 306.925 409.188 278.8 407.5 235V233.987C412.595 229.43 416.186 223.434 417.798 216.792C419.41 210.149 418.968 203.174 416.529 196.789C414.09 190.404 409.769 184.909 404.14 181.033C398.51 177.157 391.836 175.082 385 175.082C378.165 175.082 371.491 177.157 365.861 181.033C360.231 184.909 355.911 190.404 353.472 196.789C351.033 203.174 350.59 210.149 352.203 216.792C353.815 223.434 357.406 229.43 362.5 233.987V290.537L340 240.887V133.75C354.555 143.453 369.867 151.968 385.788 159.212C387.618 159.998 389.685 160.025 391.535 159.286C393.384 158.548 394.865 157.105 395.65 155.275C396.436 153.445 396.463 151.378 395.724 149.528C394.986 147.678 393.543 146.198 391.713 145.412C372.437 136.529 354.064 125.804 336.85 113.387C304 90.0998 280 64.1873 266.05 36.5498C262.484 29.6994 259.498 22.5619 257.125 15.2123C256.641 13.6979 255.688 12.3766 254.404 11.4391C253.12 10.5016 251.571 9.99634 249.982 9.99634C248.392 9.99634 246.843 10.5016 245.559 11.4391C244.275 12.3766 243.322 13.6979 242.838 15.2123C240.467 22.5747 237.481 29.7249 233.913 36.5873C220 64.1873 196 90.0998 163.113 113.612C145.911 126.027 127.551 136.752 108.288 145.637C106.458 146.423 105.015 147.903 104.277 149.753C103.538 151.603 103.565 153.67 104.35 155.5C105.136 157.33 106.617 158.773 108.466 159.511C110.316 160.25 112.383 160.223 114.213 159.437C130.141 152.12 145.454 143.53 160 133.75V240.887L137.5 290.537V233.837C142.595 229.28 146.186 223.284 147.798 216.642C149.41 209.999 148.968 203.024 146.529 196.639C144.09 190.254 139.769 184.759 134.14 180.883C128.51 177.007 121.836 174.932 115 174.932C108.165 174.932 101.491 177.007 95.8611 180.883C90.2313 184.759 85.911 190.254 83.472 196.639C81.0331 203.024 80.5904 209.999 82.2025 216.642C83.8147 223.284 87.4057 229.28 92.5004 233.837V235C90.9254 278.8 83.1254 306.887 73.7504 325C71.5895 320.467 68.4444 316.473 64.5443 313.31C60.6442 310.147 56.0874 307.894 51.2062 306.716C46.3249 305.537 41.2421 305.463 36.3284 306.498C31.4146 307.533 26.7938 309.651 22.8027 312.699C18.8116 315.746 15.5508 319.646 13.2581 324.113C10.9654 328.581 9.69845 333.504 9.54972 338.523C9.40099 343.543 10.3742 348.532 12.3984 353.127C14.4226 357.723 17.4467 361.809 21.2504 365.087ZM463.75 475.375H448.75V372.887C453.216 373.945 457.855 374.047 462.363 373.187L463.75 373.412V475.375ZM456.25 321.25C459.959 321.25 463.584 322.349 466.667 324.41C469.751 326.47 472.154 329.398 473.573 332.824C474.992 336.251 475.364 340.021 474.64 343.658C473.917 347.295 472.131 350.636 469.509 353.258C466.886 355.88 463.545 357.666 459.908 358.39C456.271 359.113 452.501 358.742 449.075 357.323C445.649 355.903 442.721 353.5 440.66 350.417C438.6 347.333 437.5 343.708 437.5 340C437.5 335.027 439.476 330.258 442.992 326.742C446.508 323.225 451.278 321.25 456.25 321.25ZM423.738 348.85C425.444 355.113 428.921 360.75 433.75 365.087V447.775L372.175 311.875H400C401.454 311.867 402.874 311.437 404.088 310.637C408.261 324.463 414.92 337.413 423.738 348.85ZM377.5 296.875V241.637C382.433 242.795 387.567 242.795 392.5 241.637V296.875H377.5ZM385 190C388.709 190 392.334 191.099 395.417 193.16C398.501 195.22 400.904 198.148 402.323 201.574C403.742 205.001 404.114 208.771 403.39 212.408C402.667 216.045 400.881 219.386 398.259 222.008C395.636 224.63 392.295 226.416 388.658 227.14C385.021 227.863 381.251 227.492 377.825 226.073C374.399 224.653 371.471 222.25 369.41 219.167C367.35 216.083 366.25 212.458 366.25 208.75C366.25 203.777 368.226 199.008 371.742 195.492C375.258 191.975 380.028 190 385 190ZM115 190C118.709 190 122.334 191.099 125.417 193.16C128.501 195.22 130.904 198.148 132.323 201.574C133.742 205.001 134.114 208.771 133.39 212.408C132.667 216.045 130.881 219.386 128.259 222.008C125.636 224.63 122.295 226.416 118.658 227.14C115.021 227.863 111.251 227.492 107.825 226.073C104.399 224.653 101.471 222.25 99.4103 219.167C97.35 216.083 96.2504 212.458 96.2504 208.75C96.2504 203.777 98.2258 199.008 101.742 195.492C105.258 191.975 110.028 190 115 190ZM122.5 241.637V296.875H107.5V241.637C112.433 242.795 117.567 242.795 122.5 241.637ZM66.2504 365.087C71.0738 360.76 74.5497 355.137 76.2629 348.887C85.0678 337.447 91.7139 324.498 95.8754 310.675C97.1039 311.468 98.5378 311.886 100 311.875H127.825L66.2504 447.775V365.087ZM51.2504 475.375H36.2504V373.375L37.6379 373.15C42.1432 374.022 46.782 373.932 51.2504 372.887V475.375ZM43.7504 321.25C47.4588 321.25 51.0839 322.349 54.1673 324.41C57.2507 326.47 59.654 329.398 61.0731 332.824C62.4922 336.251 62.8636 340.021 62.1401 343.658C61.4166 347.295 59.6308 350.636 57.0086 353.258C54.3864 355.88 51.0454 357.666 47.4083 358.39C43.7712 359.113 40.0012 358.742 36.575 357.323C33.1489 355.903 30.2206 353.5 28.1603 350.417C26.1 347.333 25.0004 343.708 25.0004 340C25.0004 335.027 26.9758 330.258 30.4921 326.742C34.0084 323.225 38.7776 321.25 43.7504 321.25Z" fill="black"/>
<path d="M254.425 103.075L250 88.75L245.575 103.075H231.25L242.838 111.925L238.412 126.25L250 117.4L261.587 126.25L257.163 111.925L268.75 103.075H254.425Z" fill="black"/>
<path d="M349.488 37.5249L340.3 28.5249L341.725 41.3124L332.763 50.4624L345.513 49.0374L354.7 58.0374L353.275 45.2874L362.238 36.0999L349.488 37.5249Z" fill="black"/>
<path d="M403.15 91.5625L401.838 104.312L391.075 111.363L403.863 112.712L410.913 123.438L412.225 110.688L422.988 103.637L410.2 102.288L403.15 91.5625Z" fill="black"/>
<path d="M445.187 49.0748L436.825 39.3248L439.075 26.6873L429.325 35.0498L416.687 32.7998L425.05 42.5498L422.8 55.1873L432.55 46.8248L445.187 49.0748Z" fill="black"/>
<path d="M34.3005 51.7L46.188 56.5L40.0005 45.25L44.763 33.325L33.513 39.55L21.6255 34.75L27.813 46L23.0505 57.925L34.3005 51.7Z" fill="black"/>
<path d="M98.2752 94.1499L90.5877 104.462L77.7627 105.025L88.0377 112.712L88.6002 125.537L96.2877 115.225L109.113 114.662L98.8377 106.975L98.2752 94.1499Z" fill="black"/>
<path d="M131.538 51.5129L123.25 41.7254L125.575 29.0879L115.788 37.3754L103.15 35.0504L111.438 44.8379L109.113 57.4754L118.9 49.1879L131.538 51.5129Z" fill="black"/>
</g>
<defs>
<clipPath id="clip0_3_1265">
<rect width="480" height="480" fill="white" transform="translate(10 10)"/>
</clipPath>
</defs>
</svg>
