<svg width="500" height="500" viewBox="0 0 500 500" fill="none" xmlns="http://www.w3.org/2000/svg">
<path d="M377.5 175H362.5V190H377.5V175Z" fill="black"/>
<path d="M402.625 199.975C410.835 177.084 410.212 151.954 400.877 129.498C391.543 107.042 374.168 88.8756 352.15 78.5501L256.975 34.2251C244.093 28.1748 230.032 25.0501 215.8 25.0751C197.236 25.1063 179.063 30.419 163.406 40.3926C147.748 50.3663 135.251 64.5892 127.375 81.4001C126.555 83.2123 126.481 85.2742 127.169 87.1405C127.857 89.0068 129.251 90.5278 131.05 91.3751L340 188.8V197.5H107.5C102.223 197.541 97.1292 199.435 93.1076 202.851C89.086 206.268 86.3931 210.989 85.4996 216.189C84.606 221.39 85.5687 226.739 88.2193 231.302C90.8699 235.864 95.0398 239.35 100 241.15V280C99.9167 297.997 105.763 315.521 116.635 329.863C127.507 344.206 142.8 354.568 160.15 359.35L120.025 445.375C118.773 448.052 118.063 450.951 117.937 453.903C117.81 456.856 118.269 459.805 119.287 462.579C120.304 465.354 121.861 467.9 123.867 470.07C125.873 472.241 128.289 473.992 130.975 475.225C133.925 476.642 137.153 477.385 140.425 477.4C143.063 477.371 145.676 476.889 148.15 475.975C150.93 474.978 153.483 473.436 155.659 471.44C157.835 469.444 159.592 467.033 160.825 464.35L183.85 415H316.15L339.175 464.35C340.408 467.033 342.165 469.444 344.341 471.44C346.517 473.436 349.07 474.978 351.85 475.975C354.325 476.889 356.937 477.371 359.575 477.4C362.847 477.385 366.075 476.642 369.025 475.225C371.711 473.992 374.127 472.241 376.133 470.07C378.139 467.9 379.696 465.354 380.713 462.579C381.731 459.805 382.19 456.856 382.063 453.903C381.937 450.951 381.227 448.052 379.975 445.375L339.85 359.35C357.193 354.556 372.478 344.19 383.348 329.85C394.218 315.511 400.069 297.994 400 280V241.15C404.154 239.695 407.787 237.05 410.446 233.543C413.105 230.036 414.672 225.824 414.952 221.432C415.232 217.04 414.212 212.663 412.02 208.847C409.828 205.031 406.56 201.945 402.625 199.975ZM144.475 81.1001C151.757 68.6386 162.17 58.297 174.681 51.1008C187.192 43.9046 201.367 40.1037 215.8 40.0751C227.859 40.0588 239.772 42.7231 250.675 47.8751L345.85 92.2001C359.574 98.6332 371.262 108.719 379.636 121.352C388.01 133.985 392.746 148.68 393.325 163.825C389.988 159.595 385.564 156.35 380.527 154.437C375.491 152.523 370.029 152.013 364.724 152.959C359.42 153.906 354.472 156.275 350.409 159.813C346.345 163.352 343.318 167.927 341.65 173.05L144.475 81.1001ZM385 182.5V197.5H355V182.5C355 178.522 356.58 174.707 359.393 171.894C362.206 169.08 366.022 167.5 370 167.5C373.978 167.5 377.794 169.08 380.607 171.894C383.42 174.707 385 178.522 385 182.5ZM147.25 458.05C146.404 459.85 144.879 461.24 143.008 461.915C141.137 462.591 139.075 462.495 137.275 461.65C136.374 461.243 135.563 460.66 134.891 459.934C134.22 459.208 133.7 458.355 133.365 457.424C133.029 456.494 132.883 455.506 132.937 454.518C132.99 453.531 133.241 452.564 133.675 451.675L184.375 342.925C184.781 342.028 185.361 341.222 186.082 340.552C186.803 339.882 187.651 339.363 188.575 339.025C189.417 338.724 190.306 338.572 191.2 338.575C192.295 338.573 193.374 338.83 194.35 339.325C196.15 340.171 197.54 341.697 198.215 343.567C198.891 345.438 198.795 347.5 197.95 349.3L147.25 458.05ZM190.825 400L208.375 362.5H291.625L309.175 400H190.825ZM366.325 451.675C366.759 452.564 367.01 453.531 367.063 454.518C367.117 455.506 366.971 456.494 366.635 457.424C366.3 458.355 365.781 459.208 365.109 459.934C364.437 460.66 363.627 461.243 362.725 461.65C361.732 462.088 360.66 462.318 359.575 462.325C358.149 462.335 356.749 461.939 355.54 461.181C354.331 460.424 353.363 459.338 352.75 458.05L302.05 349.3C301.205 347.5 301.11 345.438 301.785 343.567C302.46 341.697 303.85 340.171 305.65 339.325C306.626 338.83 307.706 338.573 308.8 338.575C309.694 338.572 310.583 338.724 311.425 339.025C312.349 339.363 313.197 339.882 313.918 340.552C314.639 341.222 315.219 342.028 315.625 342.925L366.325 451.675ZM385 280C385.073 295.15 380.011 309.877 370.641 321.781C361.27 333.685 348.143 342.063 333.4 345.55L329.2 336.625C327.968 333.932 326.213 331.512 324.037 329.503C321.861 327.495 319.307 325.938 316.525 324.925C310.923 322.915 304.756 323.184 299.35 325.675C295.264 327.613 291.848 330.723 289.537 334.61C287.226 338.498 286.125 342.985 286.375 347.5H213.625C213.875 342.985 212.774 338.498 210.463 334.61C208.152 330.723 204.736 327.613 200.65 325.675C197.976 324.428 195.083 323.72 192.135 323.592C189.188 323.463 186.244 323.917 183.471 324.927C180.699 325.937 178.153 327.483 175.979 329.478C173.805 331.472 172.045 333.875 170.8 336.55L166.6 345.55C151.857 342.063 138.73 333.685 129.359 321.781C119.989 309.877 114.927 295.15 115 280V242.5H385V280ZM392.5 227.5H107.5C105.511 227.5 103.603 226.71 102.197 225.303C100.79 223.897 100 221.989 100 220C100 218.011 100.79 216.103 102.197 214.697C103.603 213.29 105.511 212.5 107.5 212.5H392.5C394.489 212.5 396.397 213.29 397.803 214.697C399.21 216.103 400 218.011 400 220C400 221.989 399.21 223.897 397.803 225.303C396.397 226.71 394.489 227.5 392.5 227.5Z" fill="black"/>
<path d="M218.103 299.628L223.548 303.595L221.5 310C220.525 313.011 220.528 316.254 221.508 319.264C222.488 322.274 224.395 324.896 226.956 326.756C229.517 328.616 232.6 329.619 235.766 329.62C238.931 329.621 242.015 328.621 244.578 326.763L250 322.81L255.453 326.763C258.001 328.659 261.093 329.683 264.269 329.683C267.445 329.683 270.537 328.659 273.085 326.763C275.669 324.921 277.59 322.296 278.566 319.277C279.541 316.258 279.518 313.005 278.5 310L276.423 303.595L281.868 299.628C284.425 297.766 286.328 295.144 287.306 292.137C288.283 289.129 288.285 285.889 287.311 282.88C286.337 279.871 284.437 277.247 281.882 275.383C279.327 273.518 276.248 272.51 273.085 272.5H266.335L264.25 266.095C263.264 263.094 261.355 260.481 258.796 258.629C256.237 256.776 253.159 255.779 250 255.779C246.841 255.779 243.763 256.776 241.204 258.629C238.645 260.481 236.736 263.094 235.75 266.095L233.65 272.5H226.9C223.735 272.503 220.652 273.508 218.092 275.369C215.532 277.231 213.627 279.855 212.649 282.866C211.671 285.876 211.67 289.119 212.647 292.129C213.624 295.14 215.528 297.765 218.088 299.628H218.103ZM239.103 287.5C240.686 287.5 242.23 286.998 243.511 286.068C244.792 285.137 245.746 283.824 246.235 282.318L249.985 270.64V270.73L253.735 282.318C254.225 283.824 255.178 285.137 256.459 286.068C257.741 286.998 259.284 287.5 260.868 287.5H273.055L263.193 294.663C261.913 295.593 260.961 296.905 260.472 298.41C259.983 299.914 259.982 301.535 260.47 303.04L264.22 314.635L254.365 307.473C253.083 306.541 251.54 306.039 249.955 306.039C248.371 306.039 246.827 306.541 245.545 307.473L235.69 314.628L239.44 303.04C239.928 301.535 239.927 299.914 239.438 298.41C238.949 296.905 237.997 295.593 236.718 294.663L226.915 287.5H239.103Z" fill="black"/>
<path d="M110.5 182.5H125.5C125.443 179.503 126.548 176.601 128.583 174.4C132.409 169.608 134.493 163.657 134.493 157.525C134.493 151.393 132.409 145.442 128.583 140.65C126.592 138.411 125.493 135.519 125.493 132.524C125.493 129.528 126.592 126.637 128.583 124.398C132.474 119.632 134.569 113.652 134.5 107.5H119.5C119.559 110.507 118.452 113.421 116.41 115.63C112.59 120.425 110.51 126.374 110.51 132.505C110.51 138.636 112.59 144.585 116.41 149.38C118.398 151.614 119.496 154.501 119.496 157.491C119.496 160.482 118.398 163.368 116.41 165.602C112.516 170.366 110.424 176.348 110.5 182.5Z" fill="black"/>
<path d="M148.9 182.5H163.9C163.877 181.468 164.058 180.443 164.433 179.481C164.807 178.52 165.368 177.642 166.083 176.898C169.33 172.807 171.097 167.739 171.097 162.516C171.097 157.294 169.33 152.225 166.083 148.135C164.674 146.6 163.892 144.593 163.892 142.51C163.892 140.427 164.674 138.42 166.083 136.885C169.392 132.827 171.168 127.735 171.1 122.5H156.1C156.123 123.536 155.942 124.566 155.566 125.531C155.19 126.496 154.627 127.378 153.91 128.125C150.666 132.218 148.901 137.287 148.901 142.51C148.901 147.733 150.666 152.802 153.91 156.895C155.322 158.428 156.106 160.436 156.106 162.52C156.106 164.604 155.322 166.612 153.91 168.145C150.608 172.194 148.835 177.276 148.9 182.5Z" fill="black"/>
</svg>
