<svg width="500" height="500" viewBox="0 0 500 500" fill="none" xmlns="http://www.w3.org/2000/svg">
<g clip-path="url(#clip0_1_2)">
<rect width="500" height="500" fill="white"/>
<g clip-path="url(#clip1_1_2)">
<path d="M220.633 230.882H202.133C200.095 230.882 198.513 233.379 198.747 236.225L198.953 238.741L199.543 245.932L202.722 284.662C202.92 287.08 204.377 288.906 206.108 288.906H216.85C218.589 288.906 220.049 287.066 220.238 284.635L223.261 245.932L223.823 238.741L224.021 236.199C224.243 233.361 222.663 230.882 220.633 230.882Z" fill="black"/>
<path d="M293.797 226.088H281.301C279.419 226.088 277.892 228.234 277.892 230.882V231.955V239.145V248.31C277.892 255.211 281.41 261.37 286.277 262.249C292.166 263.313 297.206 256.86 297.206 248.782V239.145V231.954V230.881C297.206 228.234 295.68 226.088 293.797 226.088Z" fill="black"/>
<path d="M244.209 393.275H255.287C257.17 393.275 258.696 391.128 258.696 388.481V333.363C258.696 330.715 257.17 328.569 255.287 328.569H244.209C242.327 328.569 240.801 330.715 240.801 333.363V388.481C240.801 391.128 242.327 393.275 244.209 393.275Z" fill="black"/>
<path d="M234.649 405.259V417.438C234.649 418.957 233.971 420.311 232.955 420.824L197.04 438.929C195.112 439.9 195.324 442.433 195.385 442.931C195.447 443.428 195.86 445.907 197.902 445.907H197.908L302.062 445.679C304.096 445.674 304.512 443.209 304.574 442.714C304.637 442.221 304.852 439.705 302.944 438.712L266.696 419.849C265.693 419.327 265.027 417.981 265.027 416.477V405.258C265.027 402.611 263.501 400.465 261.618 400.465H238.058C236.175 400.465 234.649 402.611 234.649 405.259Z" fill="black"/>
<path d="M186.077 296.212C181.144 296.212 177.129 301.857 177.129 308.795C177.129 315.734 181.144 321.378 186.077 321.378H313.422C318.355 321.378 322.369 315.734 322.369 308.795C322.369 301.856 318.355 296.212 313.422 296.212H186.077Z" fill="black"/>
<path d="M181.423 122.969L171.51 144.423C170.777 146.012 170.777 148.059 171.51 149.647L186.398 181.866C188.102 185.558 190.867 187.675 193.979 187.675C197.09 187.675 199.854 185.557 201.559 181.866L228.772 122.969L181.423 122.969Z" fill="black"/>
<path d="M165.139 145.016L175.325 122.969H109.59C109.325 122.969 109.099 123.037 108.896 123.134L108.794 123.191C108.206 123.528 107.881 124.174 107.752 124.508C107.574 124.97 107.224 126.189 107.837 127.511L132.95 181.866C134.65 185.544 137.413 187.654 140.532 187.654C143.651 187.654 146.413 185.544 148.113 181.866L165.135 145.024C165.136 145.021 165.138 145.018 165.139 145.016Z" fill="black"/>
<path d="M245.772 197.097V286.625C245.772 287.948 246.535 289.021 247.476 289.021H252.022C252.963 289.021 253.726 287.948 253.726 286.625V197.096C253.726 195.623 252.808 194.425 251.773 194.647C251.109 194.789 250.434 194.865 249.75 194.865C249.065 194.865 248.39 194.789 247.726 194.647C246.69 194.426 245.772 195.624 245.772 197.097Z" fill="black"/>
<path d="M387.842 115.778C389.771 115.778 390.215 111.981 388.388 111.111L253.821 47.095C251.196 45.6356 248.306 45.6344 245.678 47.095L110.068 111.109C108.237 111.974 108.679 115.778 110.61 115.778H387.842Z" fill="black"/>
<path d="M274.36 145.008L284.543 122.969H234.87L226.119 141.908C225.385 143.496 225.385 145.544 226.119 147.132L242.005 181.515C243.66 185.097 246.414 187.538 249.451 187.668C252.685 187.807 255.571 185.675 257.329 181.866L274.346 145.038C274.351 145.028 274.355 145.018 274.36 145.008Z" fill="black"/>
<path d="M290.641 122.969L280.728 144.424C279.994 146.013 279.994 148.06 280.728 149.648L295.615 181.866C297.321 185.558 300.083 187.675 303.196 187.675C306.308 187.675 309.071 185.557 310.777 181.866L337.989 122.969L290.641 122.969Z" fill="black"/>
<path d="M390.722 123.205L390.588 123.131C390.388 123.037 390.168 122.969 389.909 122.969H344.087L335.336 141.908C334.603 143.496 334.603 145.543 335.336 147.132L351.211 181.488C352.87 185.079 355.633 187.52 358.677 187.647C361.914 187.782 364.796 185.657 366.548 181.866L391.661 127.512C392.274 126.188 391.924 124.969 391.746 124.506C391.618 124.177 391.296 123.547 390.722 123.205Z" fill="black"/>
<path d="M287.549 267.158C287.282 267.158 287.017 267.146 286.754 267.123C285.792 267.041 284.993 268.161 284.993 269.516V281.715H278.362C276.951 281.715 275.806 283.324 275.806 285.311C275.806 287.297 276.951 288.906 278.362 288.906H296.737C298.148 288.906 299.293 287.297 299.293 285.311C299.293 283.324 298.148 281.715 296.737 281.715H290.106V269.516C290.106 268.161 289.307 267.041 288.345 267.123C288.082 267.146 287.817 267.158 287.549 267.158Z" fill="black"/>
<path d="M107 345.949V357.125C107 359.772 108.526 361.918 110.409 361.918H166.734C168.616 361.918 170.142 359.772 170.142 357.125V351.536C170.142 345.803 166.838 341.156 162.761 341.156H110.409C108.526 341.156 107 343.302 107 345.949Z" fill="black"/>
<path d="M121.765 329.172V246.745C121.765 242.112 119.094 238.356 115.8 238.356H110.409C108.526 238.356 107 240.503 107 243.15V329.172C107 331.819 108.526 333.966 110.409 333.966H118.356C120.238 333.965 121.765 331.819 121.765 329.172Z" fill="black"/>
<path d="M164.289 445.907C161.056 445.907 158.435 442.222 158.435 437.675V373.902C158.435 371.255 159.961 369.108 161.844 369.108H166.734C168.616 369.108 170.142 371.255 170.142 373.902V437.675C170.142 442.222 167.522 445.907 164.289 445.907Z" fill="black"/>
<path d="M112.854 445.907C109.621 445.907 107 442.222 107 437.675V373.902C107 371.255 108.526 369.108 110.409 369.108H115.299C117.181 369.108 118.707 371.255 118.707 373.902V437.675C118.707 442.222 116.086 445.907 112.854 445.907Z" fill="black"/>
<path d="M392.5 345.949V357.125C392.5 359.772 390.974 361.918 389.091 361.918H332.766C330.884 361.918 329.358 359.772 329.358 357.125V351.536C329.358 345.803 332.662 341.156 336.739 341.156H389.091C390.974 341.156 392.5 343.302 392.5 345.949Z" fill="black"/>
<path d="M377.735 329.172V246.745C377.735 242.112 380.406 238.356 383.7 238.356H389.091C390.974 238.356 392.5 240.503 392.5 243.15V329.172C392.5 331.819 390.974 333.966 389.091 333.966H381.144C379.262 333.965 377.735 331.819 377.735 329.172Z" fill="black"/>
<path d="M335.211 445.907C338.444 445.907 341.065 442.222 341.065 437.675V373.902C341.065 371.255 339.539 369.108 337.656 369.108H332.766C330.884 369.108 329.358 371.255 329.358 373.902V437.675C329.358 442.222 331.978 445.907 335.211 445.907Z" fill="black"/>
<path d="M386.647 445.907C389.879 445.907 392.5 442.222 392.5 437.675V373.902C392.5 371.255 390.974 369.108 389.091 369.108H384.201C382.319 369.108 380.793 371.255 380.793 373.902V437.675C380.793 442.222 383.414 445.907 386.647 445.907Z" fill="black"/>
</g>
</g>
<defs>
<clipPath id="clip0_1_2">
<rect width="500" height="500" fill="white"/>
</clipPath>
<clipPath id="clip1_1_2">
<rect width="500" height="500" fill="white" transform="translate(0 61)"/>
</clipPath>
</defs>
</svg>
