<svg width="500" height="500" viewBox="0 0 500 500" fill="none" xmlns="http://www.w3.org/2000/svg">
<g clip-path="url(#clip0_1_2)">
<rect width="500" height="500" fill="white"/>
<path d="M396.914 124.773C383.613 124.773 372.51 132.445 370.156 142.551H324.756C322.402 132.445 311.299 124.773 297.998 124.773C282.988 124.773 270.776 134.543 270.776 146.551C270.776 151.883 273.145 156.875 277.417 160.789C273.145 164.707 270.776 169.703 270.776 175.031C270.776 187.039 282.988 196.805 297.998 196.805C311.313 196.805 322.427 189.113 324.766 178.906H370.127C372.422 189.07 383.56 196.805 396.914 196.805C411.924 196.805 424.136 187.039 424.136 175.031C424.136 169.703 421.768 164.707 417.495 160.789C421.768 156.875 424.136 151.883 424.136 146.551C424.136 134.543 411.924 124.773 396.914 124.773ZM407.178 163.996C411.602 166.633 414.136 170.656 414.136 175.031C414.136 182.625 406.411 188.805 396.914 188.805C387.422 188.805 379.697 182.625 379.697 175.031V174.906C379.697 172.695 377.461 170.906 374.697 170.906H320.215C317.451 170.906 315.215 172.82 315.215 175.031C315.215 182.625 307.49 188.805 297.998 188.805C288.501 188.805 280.776 182.625 280.776 175.031C280.776 170.656 283.311 166.633 287.734 163.996C288.999 163.238 289.741 162.051 289.741 160.789C289.741 159.523 288.994 158.336 287.729 157.582C283.311 154.945 280.776 150.926 280.776 146.551C280.776 138.953 288.501 132.773 297.998 132.773C307.49 132.773 315.215 138.953 315.215 146.551C315.215 148.762 317.451 150.551 320.215 150.551H374.697C377.461 150.551 379.697 148.762 379.697 146.551C379.697 138.953 387.422 132.773 396.914 132.773C406.411 132.773 414.136 138.953 414.136 146.551C414.136 150.926 411.602 154.945 407.183 157.582C405.918 158.336 405.171 159.523 405.171 160.789C405.171 162.051 405.913 163.238 407.178 163.996Z" fill="black"/>
<path d="M133.359 232.483V404H55C52.2363 404 50 405.789 50 408C50 410.211 52.2363 412 55 412H445C447.764 412 450 410.211 450 408C450 405.789 447.764 404 445 404H423.267V332.73H444.912C447.676 332.73 449.912 330.941 449.912 328.73V250.891C449.912 248.68 447.676 246.891 444.912 246.891H423.267V229.578H444.912C447.676 229.578 449.912 227.789 449.912 225.578V96C449.912 93.7891 447.676 92 444.912 92H245C242.236 92 240 93.7891 240 96V225.578C240 227.789 242.236 229.578 245 229.578H266.646V246.891H245C242.236 246.891 240 248.68 240 250.891V328.73C240 330.941 242.236 332.73 245 332.73H266.646V404H143.359V232.482C189.789 230.397 226.787 199.784 226.787 162.34C226.787 123.555 187.114 92 138.35 92C89.585 92 49.9121 123.555 49.9121 162.34C49.9121 199.789 86.9211 230.406 133.359 232.483ZM250 100H439.912V221.578H250V100ZM276.646 229.578H413.267V246.891H276.646V229.578ZM250 254.891H439.912V324.73H250V254.891ZM276.646 332.73H413.267V404H276.646V332.73ZM138.35 100C181.602 100 216.787 127.965 216.787 162.34C216.787 195.371 184.274 222.412 143.359 224.482V199.672L170.488 178.18C172.446 176.625 172.466 174.09 170.522 172.52C168.574 170.953 165.415 170.941 163.447 172.492L143.359 188.409V162.914C143.359 160.703 141.123 158.914 138.359 158.914C135.596 158.914 133.359 160.703 133.359 162.914V188.411L113.262 172.492C111.304 170.941 108.14 170.949 106.191 172.523C104.248 174.09 104.268 176.625 106.23 178.18L133.359 199.668V224.483C92.435 222.421 59.9121 195.376 59.9121 162.34C59.9121 127.965 95.0977 100 138.35 100Z" fill="black"/>
</g>
<defs>
<clipPath id="clip0_1_2">
<rect width="500" height="500" fill="white"/>
</clipPath>
</defs>
</svg>
