<svg width="500" height="500" viewBox="0 0 500 500" fill="none" xmlns="http://www.w3.org/2000/svg">
<g clip-path="url(#clip0_1_2)">
<rect width="500" height="500" fill="white"/>
<g clip-path="url(#clip1_1_2)">
<path d="M430.932 81.4379H201.368C190.697 81.4379 182.015 88.6683 182.015 97.5544V314.464H150.96C144.692 285.129 137.555 270.166 121.415 253.769V205.182H150.392C152.38 205.182 154.263 204.414 155.505 203.112C156.731 201.796 157.174 200.096 156.695 198.484L144.071 155.84C143.361 153.43 140.751 151.73 137.768 151.73H72.1269C69.144 151.73 66.5337 153.43 65.8237 155.84L53.1996 198.484C52.7202 200.096 53.1641 201.811 54.3893 203.112C55.6144 204.428 57.4965 205.182 59.5029 205.182H88.4802V225.335C87.4326 224.493 86.3495 223.635 85.2664 222.763C83.5974 221.417 81.1826 220.929 78.9632 221.476L54.3896 227.435C51.3179 228.174 49.3646 230.673 49.7732 233.305L71.8614 377.778C73.566 388.882 83.3314 397.709 95.8491 400.386V417.345C95.8491 420.332 98.761 422.757 102.348 422.757H128.928C131.876 422.757 134.45 421.101 135.214 418.735L140.771 401.229H227.935L233.493 418.735C234.238 421.116 236.813 422.757 239.778 422.757H266.359C269.945 422.757 272.857 420.332 272.857 417.345V401.007C276.746 400.504 280.332 399.07 283.226 396.852H400.363L405.245 418.351C405.831 420.909 408.495 422.757 411.62 422.757H429.801C433.388 422.757 436.3 420.332 436.3 417.345V396.231C444.415 394.309 450.363 388.084 450.363 380.721L450.309 97.5547C450.309 88.6682 441.627 81.4381 430.956 81.4381L430.932 81.4379ZM67.7909 194.373L77.2191 162.538H132.687L142.115 194.373H67.7909ZM108.434 205.196V241.762C106.25 239.869 103.924 237.917 101.474 235.892V205.196H108.434ZM123.916 411.962H108.824V401.242H127.308L123.916 411.962ZM259.816 411.962H244.724L241.333 401.242H259.816L259.816 411.962ZM275.335 388.053C273.968 389.561 271.873 390.434 269.6 390.434H103.85C94.1732 390.434 85.97 384.416 84.745 376.417L63.3495 236.528L78.9923 232.728C120.611 266.07 130.024 275.682 139.097 320.763C139.629 323.366 142.328 325.273 145.507 325.273H247.193C252.715 325.273 257.651 328.363 259.178 332.77L276.525 382.806C277.147 384.625 276.739 386.532 275.371 388.055L275.335 388.053ZM271.624 329.78C268.499 320.761 258.449 314.462 247.174 314.462H220.239V291.351H412.071V365.06H407.561V301.409C407.561 298.422 404.649 295.997 401.062 295.997H309.39C305.803 295.997 302.891 298.422 302.891 301.409V365.06H283.839L271.605 329.796L271.624 329.78ZM397.815 117.204H245.01C241.424 117.204 238.512 119.629 238.512 122.616V186.267H220.206L220.224 113.27H412.055V186.267H404.296L404.314 122.601C404.314 119.614 401.402 117.189 397.815 117.189L397.815 117.204ZM391.334 128.013V186.27H373.756V128.013H391.334ZM360.776 128.013V186.27H343.198V128.013H360.776ZM330.219 128.013V186.27H312.64V128.013H330.219ZM299.661 128.013V186.27H282.083V128.013H299.661ZM269.085 128.013V186.27H251.507V128.013H269.085ZM412.054 197.077V280.544H399.287C401.365 279.095 402.199 276.641 401.152 274.423L370.754 210.162C370.132 208.831 368.889 207.752 367.309 207.19C365.729 206.613 363.936 206.584 362.337 207.116L341.687 213.888C340.551 212.321 338.491 211.256 336.13 211.256H244.457C240.87 211.256 237.958 213.681 237.958 216.668V280.543H220.221V197.076L412.054 197.077ZM344.726 224.52L361.079 219.152L386.719 273.356L370.365 278.724L344.726 224.52ZM357.262 280.529H342.631V249.582L357.262 280.529ZM329.652 222.067V280.529H312.074V222.067H329.652ZM299.094 222.067V280.529H281.516V222.067H299.094ZM268.519 222.067V280.529H250.94V222.067H268.519ZM394.582 306.806V365.064H377.004V306.806H394.582ZM364.024 306.806V365.064H346.446V306.806H364.024ZM333.449 306.806V365.064H315.871V306.806H333.449ZM423.24 411.977H416.937L413.51 396.896H423.258V411.977H423.24ZM437.303 380.764C437.303 383.692 434.444 386.072 430.929 386.072H289.665C289.896 384.002 289.683 381.888 288.955 379.818L287.588 375.87H418.551C422.138 375.87 425.05 373.445 425.05 370.458V107.861C425.05 104.874 422.138 102.449 418.551 102.449H213.738C210.151 102.449 207.239 104.874 207.239 107.861V314.464H194.988V97.554C194.988 94.6264 197.846 92.2461 201.362 92.2461H430.925C434.441 92.2461 437.299 94.6266 437.299 97.554L437.303 380.764Z" fill="black"/>
</g>
</g>
<defs>
<clipPath id="clip0_1_2">
<rect width="500" height="500" fill="white"/>
</clipPath>
<clipPath id="clip1_1_2">
<rect width="500" height="511" fill="white" transform="translate(-19 59)"/>
</clipPath>
</defs>
</svg>
