<svg width="500" height="500" viewBox="0 0 500 500" fill="none" xmlns="http://www.w3.org/2000/svg">
<g clip-path="url(#clip0_3_1331)">
<mask id="mask0_3_1331" style="mask-type:luminance" maskUnits="userSpaceOnUse" x="10" y="9" width="480" height="481">
<path d="M10 9.99954H490V490H10V9.99954Z" fill="white"/>
</mask>
<g mask="url(#mask0_3_1331)">
<path d="M60.2317 371.927V180.651C60.2317 130.569 100.831 89.9693 150.913 89.9693C200.994 89.9693 241.594 130.569 241.594 180.651C241.594 209.923 232.323 238.445 215.11 262.122C199.977 282.94 191.826 308.015 191.826 333.751V383.235C191.826 419.574 162.368 449.032 126.029 449.032C107.728 449.032 91.1729 441.561 79.247 429.503" stroke="black" stroke-width="18.75" stroke-miterlimit="10" stroke-linecap="round" stroke-linejoin="round"/>
<path d="M250.006 81.6938C250.006 98.2623 236.574 111.694 220.006 111.694C203.437 111.694 190.006 98.2623 190.006 81.6938C190.006 65.1254 203.437 51.6939 220.006 51.6939C236.574 51.6939 250.006 65.1254 250.006 81.6938Z" stroke="black" stroke-width="18.75" stroke-miterlimit="10" stroke-linecap="round" stroke-linejoin="round"/>
<path d="M192.325 64.6812C192.325 79.1787 180.572 90.9312 166.075 90.9312C151.577 90.9312 139.825 79.1787 139.825 64.6812C139.825 50.1837 151.577 38.4312 166.075 38.4312C180.572 38.4312 192.325 50.1837 192.325 64.6812Z" stroke="black" stroke-width="18.75" stroke-miterlimit="10" stroke-linecap="round" stroke-linejoin="round"/>
<path d="M140.269 72.3896C140.269 84.8162 130.196 94.8896 117.769 94.8896C105.343 94.8896 95.2693 84.8162 95.2693 72.3896C95.2693 59.9631 105.343 49.8896 117.769 49.8896C130.196 49.8896 140.269 59.9631 140.269 72.3896Z" stroke="black" stroke-width="18.75" stroke-miterlimit="10" stroke-linecap="round" stroke-linejoin="round"/>
<path d="M101.115 94.2183C101.115 105.609 91.8804 114.843 80.4897 114.843C69.0991 114.843 59.8647 105.609 59.8647 94.2183C59.8647 82.8276 69.0991 73.5933 80.4897 73.5933C91.8804 73.5933 101.115 82.8276 101.115 94.2183Z" stroke="black" stroke-width="18.75" stroke-miterlimit="10" stroke-linecap="round" stroke-linejoin="round"/>
<path d="M75.0271 125.357C75.0271 135.713 66.6327 144.107 56.2771 144.107C45.9215 144.107 37.5271 135.713 37.5271 125.357C37.5271 115.002 45.9215 106.607 56.2771 106.607C66.6327 106.607 75.0271 115.002 75.0271 125.357Z" stroke="black" stroke-width="18.75" stroke-miterlimit="10" stroke-linecap="round" stroke-linejoin="round"/>
<path d="M303.421 300.026C306.561 310.923 308.183 322.271 308.183 333.751V383.235C308.183 419.573 337.641 449.031 373.979 449.031C392.025 449.031 408.375 441.767 420.263 430.002" stroke="black" stroke-width="18.75" stroke-miterlimit="10" stroke-linecap="round" stroke-linejoin="round"/>
<path d="M439.777 371.929V180.65C439.777 130.569 399.178 89.9695 349.095 89.9695C299.014 89.9695 258.415 130.569 258.415 180.65C258.415 195.69 260.862 210.532 265.576 224.621" stroke="black" stroke-width="18.75" stroke-miterlimit="10" stroke-linecap="round" stroke-linejoin="round"/>
<path d="M250.003 81.6938C250.003 98.2623 263.434 111.694 280.003 111.694C296.571 111.694 310.003 98.2623 310.003 81.6938C310.003 65.1254 296.571 51.6939 280.003 51.6939C263.434 51.6939 250.003 65.1254 250.003 81.6938Z" stroke="black" stroke-width="18.75" stroke-miterlimit="10" stroke-linecap="round" stroke-linejoin="round"/>
<path d="M307.684 64.6812C307.684 79.1787 319.436 90.9312 333.934 90.9312C348.431 90.9312 360.184 79.1787 360.184 64.6812C360.184 50.1837 348.431 38.4312 333.934 38.4312C319.436 38.4312 307.684 50.1837 307.684 64.6812Z" stroke="black" stroke-width="18.75" stroke-miterlimit="10" stroke-linecap="round" stroke-linejoin="round"/>
<path d="M359.739 72.3896C359.739 84.8162 369.813 94.8896 382.239 94.8896C394.666 94.8896 404.739 84.8162 404.739 72.3896C404.739 59.9631 394.666 49.8896 382.239 49.8896C369.813 49.8896 359.739 59.9631 359.739 72.3896Z" stroke="black" stroke-width="18.75" stroke-miterlimit="10" stroke-linecap="round" stroke-linejoin="round"/>
<path d="M398.894 94.2183C398.894 105.609 408.128 114.843 419.519 114.843C430.909 114.843 440.144 105.609 440.144 94.2183C440.144 82.8276 430.909 73.5933 419.519 73.5933C408.128 73.5933 398.894 82.8276 398.894 94.2183Z" stroke="black" stroke-width="18.75" stroke-miterlimit="10" stroke-linecap="round" stroke-linejoin="round"/>
<path d="M424.981 125.357C424.981 135.713 433.376 144.107 443.731 144.107C454.087 144.107 462.481 135.713 462.481 125.357C462.481 115.002 454.087 106.607 443.731 106.607C433.376 106.607 424.981 115.002 424.981 125.357Z" stroke="black" stroke-width="18.75" stroke-miterlimit="10" stroke-linecap="round" stroke-linejoin="round"/>
<path d="M54.1661 369.714C57.7305 371.56 61.7786 372.604 66.0695 372.604C73.4899 372.604 80.553 369.424 85.4721 363.869L95.658 352.367C103.087 343.978 115.558 342.338 124.904 348.519C135.945 355.824 138.32 371.037 130.031 381.359C100.989 417.525 62.7714 445.224 19.3755 461.569" stroke="black" stroke-width="18.75" stroke-miterlimit="10" stroke-linecap="round" stroke-linejoin="round"/>
<path d="M19.375 296.001L22.1894 289.874C30.3362 272.136 43.5794 257.225 60.2312 247.039" stroke="black" stroke-width="18.75" stroke-miterlimit="10" stroke-linecap="round" stroke-linejoin="round"/>
<path d="M446.068 369.714C442.504 371.56 438.456 372.604 434.165 372.604C426.746 372.604 419.682 369.424 414.763 363.869L404.577 352.367C397.148 343.978 384.676 342.338 375.33 348.519C364.289 355.824 361.915 371.037 370.203 381.359C399.246 417.525 437.463 445.224 480.859 461.569" stroke="black" stroke-width="18.75" stroke-miterlimit="10" stroke-linecap="round" stroke-linejoin="round"/>
<path d="M480.859 296.001L478.045 289.874C469.898 272.136 456.655 257.225 440.003 247.039" stroke="black" stroke-width="18.75" stroke-miterlimit="10" stroke-linecap="round" stroke-linejoin="round"/>
</g>
</g>
<defs>
<clipPath id="clip0_3_1331">
<rect width="480" height="480" fill="white" transform="translate(10 10)"/>
</clipPath>
</defs>
</svg>
