<svg width="500" height="500" viewBox="0 0 500 500" fill="none" xmlns="http://www.w3.org/2000/svg">
<path d="M482.5 446.875H442.113L429.363 383.125H445C446.492 383.125 447.923 382.532 448.977 381.477C450.032 380.423 450.625 378.992 450.625 377.5V257.5C450.625 256.008 450.032 254.577 448.977 253.523C447.923 252.468 446.492 251.875 445 251.875C428.347 251.865 411.859 255.177 396.5 261.616C381.142 268.055 367.222 277.492 355.555 289.375H270.625V165.625H310C312.811 165.626 315.592 165.051 318.172 163.935C320.752 162.819 323.076 161.187 325 159.138C326.924 161.187 329.248 162.819 331.828 163.935C334.408 165.051 337.189 165.626 340 165.625H385C387.811 165.626 390.592 165.051 393.172 163.935C395.752 162.819 398.076 161.187 400 159.138C401.924 161.187 404.248 162.819 406.828 163.935C409.408 165.051 412.189 165.626 415 165.625H460C465.469 165.621 470.713 163.447 474.58 159.58C478.447 155.713 480.621 150.469 480.625 145V130C480.624 128.955 480.333 127.931 479.783 127.042C479.233 126.153 478.447 125.435 477.512 124.968L252.512 12.4675C251.732 12.0791 250.872 11.877 250 11.877C249.128 11.877 248.268 12.0791 247.488 12.4675L22.4875 124.968C21.5529 125.435 20.7668 126.153 20.2172 127.042C19.6675 127.931 19.3759 128.955 19.375 130V145C19.379 150.469 21.5532 155.713 25.4203 159.58C29.2874 163.447 34.5311 165.621 40 165.625H85C87.8109 165.626 90.5922 165.051 93.1721 163.935C95.752 162.819 98.0758 161.187 100 159.138C101.924 161.187 104.248 162.819 106.828 163.935C109.408 165.051 112.189 165.626 115 165.625H160C162.811 165.626 165.592 165.051 168.172 163.935C170.752 162.819 173.076 161.187 175 159.138C176.924 161.187 179.248 162.819 181.828 163.935C184.408 165.051 187.189 165.626 190 165.625H229.375V289.375H144.445C132.778 277.492 118.858 268.055 103.5 261.616C88.1414 255.177 71.6533 251.865 55 251.875C53.5082 251.875 52.0774 252.468 51.0225 253.523C49.9676 254.577 49.375 256.008 49.375 257.5V377.5C49.375 378.992 49.9676 380.423 51.0225 381.477C52.0774 382.532 53.5082 383.125 55 383.125H70.6375L57.8875 446.875H17.5C16.0082 446.875 14.5774 447.468 13.5225 448.523C12.4676 449.577 11.875 451.008 11.875 452.5V482.5C11.875 483.992 12.4676 485.423 13.5225 486.477C14.5774 487.532 16.0082 488.125 17.5 488.125H482.5C483.992 488.125 485.423 487.532 486.477 486.477C487.532 485.423 488.125 483.992 488.125 482.5V452.5C488.125 451.008 487.532 449.577 486.477 448.523C485.423 447.468 483.992 446.875 482.5 446.875ZM430.637 446.875H339.363L343.113 428.125H426.887L430.637 446.875ZM270.625 395.125V330.625H328.45C322.44 345.521 319.359 361.437 319.375 377.5C319.375 378.992 319.968 380.423 321.023 381.477C322.077 382.532 323.508 383.125 325 383.125H340.637L327.887 446.875H285.625V415C285.62 410.513 284.153 406.149 281.447 402.569C278.74 398.99 274.941 396.39 270.625 395.163V395.125ZM171.55 330.625H229.375V395.125C225.059 396.352 221.26 398.953 218.553 402.532C215.847 406.111 214.38 410.475 214.375 414.962V446.837H172.112L159.363 383.087H175C176.492 383.087 177.923 382.495 178.977 381.44C180.032 380.385 180.625 378.954 180.625 377.462C180.636 361.412 177.555 345.51 171.55 330.625ZM225.625 415C225.629 412.515 226.618 410.133 228.375 408.375C230.133 406.618 232.515 405.629 235 405.625H265C267.485 405.629 269.867 406.618 271.625 408.375C273.382 410.133 274.371 412.515 274.375 415V446.875H225.625V415ZM240.625 394.375V330.625H259.375V394.375H240.625ZM345.363 416.875L352.113 383.125H417.887L424.637 416.875H345.363ZM439.375 263.26V371.875H330.76C332.192 343.532 344.095 316.729 364.162 296.662C384.229 276.595 411.032 264.692 439.375 263.26ZM394.375 145C394.371 147.485 393.382 149.867 391.625 151.625C389.867 153.382 387.485 154.371 385 154.375H340C337.515 154.371 335.133 153.382 333.375 151.625C331.618 149.867 330.629 147.485 330.625 145V135.625H394.375V145ZM469.375 145C469.371 147.485 468.382 149.867 466.625 151.625C464.867 153.382 462.485 154.371 460 154.375H415C412.515 154.371 410.133 153.382 408.375 151.625C406.618 149.867 405.629 147.485 405.625 145V135.625H469.375V145ZM451.173 124.375H401.875L303.25 50.4325L451.173 124.375ZM383.125 124.375H328L272.898 41.7025L383.125 124.375ZM255.625 36.0775L314.5 124.375H255.625V36.0775ZM255.625 135.625H319.375V145C319.371 147.485 318.382 149.867 316.625 151.625C314.867 153.382 312.485 154.371 310 154.375H265C262.515 154.371 260.133 153.382 258.375 151.625C256.618 149.867 255.629 147.485 255.625 145V135.625ZM250 159.138C252.553 161.849 255.793 163.818 259.375 164.838V289.375H240.625V164.875C244.211 163.845 247.451 161.863 250 159.138ZM244.375 124.375H185.5L244.375 36.0775V124.375ZM94.375 145C94.371 147.485 93.382 149.867 91.6247 151.625C89.8674 153.382 87.4852 154.371 85 154.375H40C37.5148 154.371 35.1325 153.382 33.3753 151.625C31.618 149.867 30.629 147.485 30.625 145V135.625H94.375V145ZM98.125 124.375H48.8275L196.75 50.4325L98.125 124.375ZM169.375 145C169.371 147.485 168.382 149.867 166.625 151.625C164.867 153.382 162.485 154.371 160 154.375H115C112.515 154.371 110.133 153.382 108.375 151.625C106.618 149.867 105.629 147.485 105.625 145V135.625H169.375V145ZM171.993 124.375H116.875L227.125 41.7025L171.993 124.375ZM189.993 154.375C187.509 154.369 185.128 153.379 183.373 151.622C181.617 149.865 180.629 147.484 180.625 145V135.625H244.375V145C244.371 147.485 243.382 149.867 241.625 151.625C239.867 153.382 237.485 154.371 235 154.375H189.993ZM345.7 300.625C341.136 306.508 337.101 312.782 333.64 319.375H166.353C162.892 312.782 158.856 306.508 154.293 300.625H345.7ZM60.625 371.875V263.26C88.9682 264.692 115.771 276.595 135.838 296.662C155.905 316.729 167.808 343.532 169.24 371.875H60.625ZM154.637 416.875H75.3625L82.1125 383.125H147.888L154.637 416.875ZM73.1125 428.125H156.887L160.637 446.875H69.3625L73.1125 428.125ZM476.875 476.875H23.125V458.125H476.875V476.875Z" fill="black"/>
</svg>
