<svg width="500" height="500" viewBox="0 0 500 500" fill="none" xmlns="http://www.w3.org/2000/svg">
<g clip-path="url(#clip0_1_2)">
<rect width="500" height="500" fill="white"/>
<path d="M63.93 273.572H442.92C447.505 273.572 451.31 270.528 451.31 266.772V195.716C451.31 192.048 447.505 189.004 442.92 189.004H63.93C59.23 189.004 55.43 192.048 55.43 195.716V266.772C55.43 270.528 59.235 273.572 63.93 273.572Z" fill="black"/>
<path d="M452.095 289.768L451.985 289.68L451.315 288.784C449.86 286.724 445.945 282.072 442.925 282.072H63.93C60.46 282.072 54.755 289.32 54.085 290.396V290.484L23.66 331.472C23.66 335.232 27.465 338.184 32.16 338.184H109.68V376.664C109.68 382.928 115.945 387.848 123.665 387.848C131.385 387.848 137.65 382.928 137.65 376.664V338.184H369.095V376.664C369.095 382.928 375.36 387.848 383.08 387.848C390.8 387.848 397.065 382.928 397.065 376.664V338.184H474.585C479.285 338.184 483.085 335.228 483.085 331.472L452.095 289.768Z" fill="black"/>
</g>
<defs>
<clipPath id="clip0_1_2">
<rect width="500" height="500" fill="white"/>
</clipPath>
</defs>
</svg>
