<svg width="500" height="500" viewBox="0 0 500 500" fill="none" xmlns="http://www.w3.org/2000/svg">
<path d="M159.606 174.051C180.314 174.051 197.101 157.264 197.101 136.556C197.101 115.848 180.314 99.0605 159.606 99.0605C138.898 99.0605 122.111 115.848 122.111 136.556C122.111 157.264 138.898 174.051 159.606 174.051Z" stroke="black" stroke-width="14.0625" stroke-miterlimit="10" stroke-linecap="round" stroke-linejoin="round"/>
<path d="M141.874 169.599L106.485 229.733H63.2733C55.508 229.733 49.2126 236.028 49.2126 243.793C49.2126 251.559 55.508 257.854 63.2733 257.854H118.683C123.38 257.854 127.74 255.41 130.19 251.402L155.319 211.898" stroke="black" stroke-width="14.0625" stroke-miterlimit="10" stroke-linecap="round" stroke-linejoin="round"/>
<path d="M250.993 235.277C252.46 241.055 253.202 246.993 253.202 252.955C253.202 278.465 239.674 302.062 217.66 314.953L176.602 336.42L193.069 401.308C193.069 411.489 184.816 419.743 174.634 419.743H174.053C163.872 419.743 155.618 411.489 155.618 401.308L140.251 336.197C137.857 326.058 142.217 315.525 151.074 310.042L184.128 289.581" stroke="black" stroke-width="14.0625" stroke-miterlimit="10" stroke-linecap="round" stroke-linejoin="round"/>
<path d="M172.617 262.044L112.817 298.319C104.917 303.854 101.044 313.542 102.952 322.998L118.75 401.309C121.065 412.617 127.004 419.744 137.185 419.744C145.234 419.744 152.078 414.585 154.592 407.394C155.593 404.532 155.648 401.424 154.929 398.479L146.901 365.587" stroke="black" stroke-width="14.0625" stroke-miterlimit="10" stroke-linecap="round" stroke-linejoin="round"/>
<path d="M70.9976 271.939V257.854" stroke="black" stroke-width="14.0625" stroke-miterlimit="10" stroke-linecap="round" stroke-linejoin="round"/>
<path d="M49.2129 243.793C39.0063 243.793 30.7319 252.067 30.7319 262.274V419.744" stroke="black" stroke-width="14.0625" stroke-miterlimit="10" stroke-linecap="round" stroke-linejoin="round"/>
<path d="M209.698 184.643L240.134 209.045C243.556 211.788 245.99 215.572 247.069 219.822L250.993 235.278" stroke="black" stroke-width="14.0625" stroke-miterlimit="10" stroke-linecap="round" stroke-linejoin="round"/>
<path d="M197.102 143.571L262.12 186.998C272.796 195.254 276.45 209.734 270.969 222.066L253.202 262.044" stroke="black" stroke-width="14.0625" stroke-miterlimit="10" stroke-linecap="round" stroke-linejoin="round"/>
<path d="M152.676 202.807L172.617 262.044" stroke="black" stroke-width="14.0625" stroke-miterlimit="10" stroke-linecap="round" stroke-linejoin="round"/>
<path d="M342.939 174.051C363.647 174.051 380.434 157.264 380.434 136.556C380.434 115.848 363.647 99.0605 342.939 99.0605C322.231 99.0605 305.444 115.848 305.444 136.556C305.444 157.264 322.231 174.051 342.939 174.051Z" stroke="black" stroke-width="14.0625" stroke-miterlimit="10" stroke-linecap="round" stroke-linejoin="round"/>
<path d="M360.672 169.599L396.061 229.733H439.273C447.038 229.733 453.333 236.028 453.333 243.793C453.333 251.559 447.038 257.854 439.273 257.854H383.863C379.166 257.854 374.806 255.41 372.356 251.402L347.227 211.898" stroke="black" stroke-width="14.0625" stroke-miterlimit="10" stroke-linecap="round" stroke-linejoin="round"/>
<path d="M369.284 374.256L364.423 401.309C362.108 412.617 356.169 419.744 345.988 419.744C337.938 419.744 331.095 414.585 328.58 407.393C327.58 404.532 327.525 401.423 328.244 398.479L332.492 375.307" stroke="black" stroke-width="14.0625" stroke-miterlimit="10" stroke-linecap="round" stroke-linejoin="round"/>
<path d="M332.492 375.307L327.291 401.31C324.976 412.618 319.037 419.745 308.856 419.745C300.807 419.745 293.963 414.586 291.449 407.394C290.448 404.533 290.393 401.424 291.112 398.479L296.329 375.308" stroke="black" stroke-width="14.0625" stroke-miterlimit="10" stroke-linecap="round" stroke-linejoin="round"/>
<path d="M431.548 271.939V257.854" stroke="black" stroke-width="14.0625" stroke-miterlimit="10" stroke-linecap="round" stroke-linejoin="round"/>
<path d="M453.333 243.793C463.54 243.793 471.814 252.067 471.814 262.274V419.744" stroke="black" stroke-width="14.0625" stroke-miterlimit="10" stroke-linecap="round" stroke-linejoin="round"/>
<path d="M292.848 184.643L272.105 201.274" stroke="black" stroke-width="14.0625" stroke-miterlimit="10" stroke-linecap="round" stroke-linejoin="round"/>
<path d="M305.445 143.571L251.273 179.753" stroke="black" stroke-width="14.0625" stroke-miterlimit="10" stroke-linecap="round" stroke-linejoin="round"/>
<path d="M306.45 121.164C297.138 118.52 290.509 109.757 290.953 99.6645C291.47 87.8707 301.451 78.7301 313.245 79.2485C324.071 79.7239 332.661 88.1726 333.597 98.6782" stroke="black" stroke-width="14.0625" stroke-miterlimit="10" stroke-linecap="round" stroke-linejoin="round"/>
<path d="M349.869 202.807L327.603 257.721L367.489 287.558C373.546 293.621 377.134 301.72 377.555 310.279L380.702 374.255H284.352L296.882 321.89L260.938 301.013" stroke="black" stroke-width="14.0625" stroke-miterlimit="10" stroke-linecap="round" stroke-linejoin="round"/>
</svg>
