<svg width="500" height="500" viewBox="0 0 500 500" fill="none" xmlns="http://www.w3.org/2000/svg">
<path d="M485.785 24.5C488.945 24.5 491.495 27.0588 491.495 30.2109L491.5 469.464C491.5 472.518 489.094 475.014 486.078 475.165L485.785 475.173H32.2188C29.0684 475.173 26.506 472.618 26.5059 469.464V393.071C26.5059 391.438 27.2035 389.89 28.4121 388.815L28.4131 388.814C29.6265 387.737 31.2286 387.215 32.8496 387.393H32.8525C105.322 395.473 172.92 371.714 233.821 316.609C292.874 263.184 333.859 190.686 357.867 139.198C371.601 109.746 381.5 83.6603 387.955 64.334C391.183 54.6704 393.547 46.7033 395.1 40.8564C395.876 37.9321 396.448 35.5476 396.821 33.752C397.207 31.9005 397.353 30.8063 397.349 30.3799V30.3789C397.304 28.946 397.795 27.5464 398.748 26.4619L398.946 26.248C400.026 25.1188 401.51 24.5001 403.057 24.5H485.785ZM407.964 35.9199C404.757 51.5635 391.68 93.228 369.414 141.458V141.459C345.754 192.677 305.334 265.124 246.87 320.111L245.485 321.407C182.914 379.676 113.093 405.938 37.9258 399.372L37.9268 463.754H480.078V35.9199H407.964Z" fill="black" stroke="black" stroke-width="3"/>
<path d="M304.719 29.1794C310.792 27.5294 317.13 28.3252 322.555 31.4304H322.554C333.8 37.8596 337.72 52.2501 331.29 63.4939L295.542 126.05L295.54 126.053C294.702 127.51 293.473 129.496 291.537 131.431L98.1885 324.778C96.15 326.823 93.7941 328.461 91.2275 329.633L91.2256 329.635L79.6377 334.895L79.5928 334.915L79.5469 334.932C79.513 334.945 79.4749 334.961 79.4082 334.988C79.3671 335.005 79.3122 335.026 79.2529 335.05L41.749 352.096C38.8024 353.436 35.7193 354.117 32.6611 354.196L32.0508 354.204C23.1352 354.204 14.5846 349.103 10.6357 340.48L10.6348 340.479C8.02407 334.766 7.80227 328.367 10.002 322.48V322.479C12.2055 316.594 16.5609 311.905 22.2783 309.316L67.834 288.609L256.101 100.344L290.48 40.1658L290.482 40.1628C293.595 34.7447 298.645 30.8306 304.719 29.1804V29.1794ZM310.958 39.7566C309.876 39.7567 308.792 39.9036 307.726 40.197L307.72 40.198C304.78 40.995 302.31 42.8104 300.705 45.321L300.396 45.8318L265.635 106.666C265.387 107.101 265.08 107.517 264.688 107.893L75.1797 297.414L75.166 297.427C74.6927 297.889 74.1297 298.29 73.498 298.576L73.4971 298.575L27.0039 319.711L27.0029 319.71C24.0712 321.047 21.8364 323.444 20.6934 326.473C19.6353 329.321 19.6709 332.389 20.7881 335.179L21.0264 335.734V335.735C23.7855 341.767 30.9648 344.452 37.0205 341.703L74.9141 324.479C75.0648 324.41 75.2109 324.355 75.3184 324.315L86.5029 319.228L86.5088 319.226C87.8211 318.636 89.0285 317.792 90.1143 316.705V316.704L283.465 123.357C284.212 122.598 284.838 121.755 285.638 120.377L321.374 57.8279V57.8269C324.681 52.0454 322.66 44.6519 316.887 41.3455L316.886 41.3445C315.053 40.2918 313.018 39.7576 310.958 39.7566Z" fill="black" stroke="black" stroke-width="3"/>
<path d="M152.756 297.891C159.452 297.891 165.749 300.505 170.481 305.237C180.255 315.009 180.253 330.901 170.481 340.674L170.482 340.675C165.598 345.562 159.176 348 152.758 347.999C146.35 347.999 139.929 345.564 135.041 340.676C125.271 330.903 125.27 315.01 135.041 305.237L135.042 305.236C139.777 300.506 146.064 297.891 152.756 297.891ZM152.758 309.311C149.113 309.311 145.697 310.731 143.117 313.312H143.116C140.535 315.893 139.116 319.305 139.115 322.951L139.12 323.292C139.207 326.811 140.617 330.102 143.116 332.602L143.368 332.847C148.702 337.911 157.165 337.831 162.406 332.602L162.646 332.357C165.074 329.808 166.397 326.486 166.397 322.951V322.95C166.399 319.302 164.986 315.891 162.406 313.312C159.826 310.73 156.402 309.311 152.758 309.311Z" fill="black" stroke="black" stroke-width="3"/>
<path d="M101.71 305.347C103.336 302.656 106.839 301.778 109.545 303.412L136.417 319.593L136.419 319.594C139.128 321.23 139.985 324.738 138.364 327.43C137.29 329.217 135.397 330.196 133.463 330.196C132.477 330.196 131.458 329.946 130.527 329.376V329.377L103.646 313.185L103.645 313.184C100.955 311.562 100.075 308.054 101.71 305.347ZM138.817 268.332C141.467 266.883 144.814 267.744 146.415 270.353L166.238 302.629L166.241 302.634C167.874 305.316 167.045 308.817 164.364 310.472L164.365 310.473C163.429 311.061 162.381 311.328 161.377 311.328C159.462 311.328 157.586 310.365 156.501 308.611L156.499 308.606L136.69 276.33L136.688 276.328C135.047 273.644 135.867 270.133 138.563 268.479L138.817 268.332Z" fill="black" stroke="black" stroke-width="3"/>
<path d="M296.332 154.949C302.791 155.106 308.845 157.704 313.43 162.287L313.881 162.749C323.206 172.544 323.05 188.107 313.431 197.727C308.543 202.613 302.127 205.05 295.709 205.049V205.05C289.297 205.05 282.88 202.613 277.992 197.727L277.991 197.726C273.263 192.994 270.645 186.692 270.645 180.001L270.653 179.374C270.813 172.916 273.409 166.871 277.992 162.288C282.724 157.555 289.014 154.941 295.706 154.941L296.332 154.949ZM295.708 166.36C292.073 166.361 288.647 167.782 286.066 170.362L286.065 170.361C283.486 172.942 282.065 176.357 282.065 180.001C282.069 183.65 283.487 187.072 286.066 189.651C291.38 194.964 300.043 194.964 305.356 189.651C310.669 184.327 310.667 175.673 305.356 170.362L305.355 170.361C302.779 167.781 299.352 166.361 295.708 166.36Z" fill="black" stroke="black" stroke-width="3"/>
<path d="M241.234 165.808C242.884 163.123 246.391 162.27 249.086 163.934L281.361 183.743C284.057 185.395 284.884 188.909 283.237 191.596L283.236 191.595C282.163 193.354 280.283 194.317 278.374 194.316V194.317C277.354 194.317 276.319 194.049 275.38 193.468V193.467L243.109 173.66C240.416 172.008 239.585 168.497 241.233 165.809L241.234 165.808ZM278.106 128.941C280.813 127.323 284.317 128.197 285.939 130.891L302.135 157.772H302.135C303.769 160.473 302.883 163.976 300.201 165.606L300.189 165.614C299.277 166.157 298.254 166.426 297.254 166.425C295.329 166.425 293.433 165.45 292.359 163.662L276.171 136.789V136.788C274.534 134.082 275.413 130.58 278.096 128.947L278.106 128.941Z" fill="black" stroke="black" stroke-width="3"/>
</svg>
