<svg width="500" height="500" viewBox="0 0 500 500" fill="none" xmlns="http://www.w3.org/2000/svg">
<g clip-path="url(#clip0_1_2)">
<rect width="500" height="500" fill="white"/>
<g clip-path="url(#clip1_1_2)">
<g clip-path="url(#clip2_1_2)">
<path d="M460.938 102.5H39.0625C32.8521 102.515 26.9012 104.495 22.5097 108.008C18.1183 111.521 15.6431 116.282 15.625 121.25V358.75C15.6431 363.718 18.1183 368.479 22.5097 371.992C26.9012 375.505 32.8521 377.485 39.0625 377.5H460.938C467.148 377.485 473.099 375.505 477.49 371.992C481.882 368.479 484.357 363.718 484.375 358.75V121.25C484.357 116.282 481.882 111.521 477.49 108.008C473.099 104.495 467.148 102.515 460.938 102.5ZM257.812 215.812C264.519 217.193 270.462 220.319 274.705 224.698C278.948 229.076 281.251 234.46 281.251 240C281.251 245.54 278.948 250.924 274.705 255.302C270.462 259.681 264.519 262.807 257.812 264.187V215.812ZM31.25 121.25C31.256 119.594 32.081 118.007 33.5448 116.836C35.0087 115.665 36.9923 115.005 39.0625 115H62.7344C60.0043 120.738 55.7876 125.948 50.3613 130.289C44.935 134.63 38.4219 138.003 31.25 140.188V121.25ZM31.25 215H54.6875C56.7577 215.005 58.7413 215.665 60.2052 216.836C61.669 218.007 62.494 219.594 62.5 221.25V258.75C62.494 260.406 61.669 261.993 60.2052 263.164C58.7413 264.335 56.7577 264.995 54.6875 265H31.25V215ZM31.25 277.5H54.6875C60.5124 277.481 66.1206 275.731 70.4229 272.589C74.7252 269.447 77.4146 265.139 77.9687 260.5C78.1012 259.923 78.1536 259.336 78.125 258.75V221.25C78.1536 220.664 78.1012 220.077 77.9687 219.5C77.4146 214.861 74.7252 210.553 70.4229 207.411C66.1206 204.269 60.5124 202.519 54.6875 202.5H31.25V177.5H101.562C103.633 177.505 105.616 178.165 107.08 179.336C108.544 180.507 109.369 182.094 109.375 183.75V296.25C109.369 297.906 108.544 299.493 107.08 300.664C105.616 301.835 103.633 302.495 101.562 302.5H31.25V277.5ZM39.0625 365C36.9923 364.995 35.0087 364.335 33.5448 363.164C32.081 361.993 31.256 360.406 31.25 358.75V339.813C38.4219 341.997 44.935 345.37 50.3613 349.711C55.7876 354.052 60.0043 359.262 62.7344 365H39.0625ZM242.188 264.187C235.481 262.806 229.539 259.68 225.296 255.302C221.054 250.923 218.751 245.54 218.751 240C218.751 234.46 221.054 229.077 225.296 224.698C229.539 220.32 235.481 217.194 242.188 215.812V264.187ZM242.188 203.063C231.268 204.53 221.352 209.046 214.2 215.808C207.049 222.571 203.125 231.142 203.125 240C203.125 248.858 207.049 257.429 214.2 264.192C221.352 270.954 231.268 275.47 242.188 276.937V365H79.2188C75.905 355.891 69.7715 347.599 61.3864 340.891C53.0013 334.183 42.6358 329.276 31.25 326.625V315H101.562C107.773 314.985 113.724 313.005 118.115 309.492C122.507 305.979 124.982 301.218 125 296.25V276.937C135.919 275.47 145.836 270.954 152.987 264.192C160.139 257.429 164.063 248.858 164.063 240C164.063 231.142 160.139 222.571 152.987 215.808C145.836 209.046 135.919 204.53 125 203.063V183.75C124.982 178.782 122.507 174.021 118.115 170.508C113.724 166.995 107.773 165.015 101.562 165H31.25V153.375C42.6358 150.724 53.0013 145.817 61.3864 139.109C69.7715 132.401 75.905 124.109 79.2188 115H242.188V203.063ZM125 264.187V215.812C131.706 217.194 137.648 220.32 141.891 224.698C146.134 229.077 148.436 234.46 148.436 240C148.436 245.54 146.134 250.923 141.891 255.302C137.648 259.68 131.706 262.806 125 264.187ZM468.75 358.75C468.744 360.406 467.919 361.993 466.455 363.164C464.991 364.335 463.008 364.995 460.938 365H437.266C439.996 359.262 444.212 354.052 449.639 349.711C455.065 345.37 461.578 341.997 468.75 339.813V358.75ZM468.75 265H445.312C443.242 264.995 441.259 264.335 439.795 263.164C438.331 261.993 437.506 260.406 437.5 258.75V221.25C437.506 219.594 438.331 218.007 439.795 216.836C441.259 215.665 443.242 215.005 445.312 215H468.75V265ZM468.75 202.5H445.312C439.488 202.519 433.879 204.269 429.577 207.411C425.275 210.553 422.585 214.861 422.031 219.5C421.899 220.077 421.846 220.664 421.875 221.25V258.75C421.846 259.336 421.899 259.923 422.031 260.5C422.585 265.139 425.275 269.447 429.577 272.589C433.879 275.731 439.488 277.481 445.312 277.5H468.75V302.5H398.438C396.367 302.495 394.384 301.835 392.92 300.664C391.456 299.493 390.631 297.906 390.625 296.25V183.75C390.631 182.094 391.456 180.507 392.92 179.336C394.384 178.165 396.367 177.505 398.438 177.5H468.75V202.5ZM468.75 165H398.438C392.227 165.015 386.276 166.995 381.885 170.508C377.493 174.021 375.018 178.782 375 183.75V203.063C364.081 204.53 354.164 209.046 347.013 215.808C339.861 222.571 335.937 231.142 335.937 240C335.937 248.858 339.861 257.429 347.013 264.192C354.164 270.954 364.081 275.47 375 276.937V296.25C375.018 301.218 377.493 305.979 381.885 309.492C386.276 313.005 392.227 314.985 398.438 315H468.75V326.625C457.364 329.276 446.999 334.183 438.614 340.891C430.229 347.599 424.095 355.891 420.781 365H257.812V276.937C268.732 275.47 278.648 270.954 285.8 264.192C292.951 257.429 296.875 248.858 296.875 240C296.875 231.142 292.951 222.571 285.8 215.808C278.648 209.046 268.732 204.53 257.812 203.063V115H420.781C424.095 124.109 430.229 132.401 438.614 139.109C446.999 145.817 457.364 150.724 468.75 153.375V165ZM375 215.812V264.187C368.293 262.807 362.35 259.681 358.107 255.302C353.864 250.924 351.561 245.54 351.561 240C351.561 234.46 353.864 229.076 358.107 224.698C362.35 220.319 368.293 217.193 375 215.812ZM468.75 140.188C461.578 138.003 455.065 134.63 449.639 130.289C444.212 125.948 439.996 120.738 437.266 115H460.938C463.008 115.005 464.991 115.665 466.455 116.836C467.919 118.007 468.744 119.594 468.75 121.25V140.188Z" fill="black"/>
</g>
</g>
</g>
<defs>
<clipPath id="clip0_1_2">
<rect width="500" height="500" fill="white"/>
</clipPath>
<clipPath id="clip1_1_2">
<rect width="500" height="500" fill="white" transform="translate(0 59)"/>
</clipPath>
<clipPath id="clip2_1_2">
<rect width="500" height="500" fill="white" transform="translate(0 40)"/>
</clipPath>
</defs>
</svg>
