<svg width="500" height="500" viewBox="0 0 500 500" fill="none" xmlns="http://www.w3.org/2000/svg">
<path d="M122.5 280V302.5C122.5 304.489 123.29 306.397 124.697 307.803C126.103 309.21 128.011 310 130 310C131.989 310 133.897 309.21 135.303 307.803C136.71 306.397 137.5 304.489 137.5 302.5V280C137.5 278.011 136.71 276.103 135.303 274.697C133.897 273.29 131.989 272.5 130 272.5C128.011 272.5 126.103 273.29 124.697 274.697C123.29 276.103 122.5 278.011 122.5 280Z" fill="black"/>
<path d="M152.5 287.5V302.5C152.5 304.489 153.29 306.397 154.697 307.803C156.103 309.21 158.011 310 160 310C161.989 310 163.897 309.21 165.303 307.803C166.71 306.397 167.5 304.489 167.5 302.5V287.5C167.5 285.511 166.71 283.603 165.303 282.197C163.897 280.79 161.989 280 160 280C158.011 280 156.103 280.79 154.697 282.197C153.29 283.603 152.5 285.511 152.5 287.5Z" fill="black"/>
<path d="M197.5 302.5V280C197.5 278.011 196.71 276.103 195.303 274.697C193.897 273.29 191.989 272.5 190 272.5C188.011 272.5 186.103 273.29 184.697 274.697C183.29 276.103 182.5 278.011 182.5 280V302.5C182.5 304.489 183.29 306.397 184.697 307.803C186.103 309.21 188.011 310 190 310C191.989 310 193.897 309.21 195.303 307.803C196.71 306.397 197.5 304.489 197.5 302.5Z" fill="black"/>
<path d="M385 205V197.5C388.978 197.5 392.794 195.92 395.607 193.107C398.42 190.294 400 186.478 400 182.5V167.5C400 163.522 398.42 159.706 395.607 156.893C392.794 154.08 388.978 152.5 385 152.5H332.5V137.5H336.25C340.228 137.5 344.044 135.92 346.857 133.107C349.67 130.294 351.25 126.478 351.25 122.5V25C351.25 21.0218 349.67 17.2064 346.857 14.3934C344.044 11.5804 340.228 10 336.25 10H163.75C159.772 10 155.956 11.5804 153.143 14.3934C150.33 17.2064 148.75 21.0218 148.75 25V122.5C148.75 126.478 150.33 130.294 153.143 133.107C155.956 135.92 159.772 137.5 163.75 137.5H175V152.5H115C111.022 152.5 107.206 154.08 104.393 156.893C101.58 159.706 100 163.522 100 167.5V182.5C100 186.478 101.58 190.294 104.393 193.107C107.206 195.92 111.022 197.5 115 197.5V205C115.019 209.637 116.471 214.155 119.156 217.935C121.841 221.716 125.628 224.574 130 226.12V235C130 242.956 133.161 250.587 138.787 256.213C144.413 261.839 152.044 265 160 265C167.956 265 175.587 261.839 181.213 256.213C186.839 250.587 190 242.956 190 235V226.12C194.372 224.574 198.159 221.716 200.844 217.935C203.529 214.155 204.981 209.637 205 205V197.5C210.967 197.5 216.69 199.871 220.91 204.09C225.129 208.31 227.5 214.033 227.5 220V342.085C225.227 343.391 223.338 345.272 222.021 347.539C220.705 349.806 220.008 352.379 220 355V446.065C213.579 447.723 207.888 451.462 203.817 456.697C199.746 461.932 197.525 468.368 197.5 475C197.5 478.978 199.08 482.794 201.893 485.607C204.706 488.42 208.522 490 212.5 490H287.5C291.478 490 295.294 488.42 298.107 485.607C300.92 482.794 302.5 478.978 302.5 475C302.475 468.368 300.254 461.932 296.183 456.697C292.112 451.462 286.421 447.723 280 446.065V355C279.992 352.379 279.295 349.806 277.979 347.539C276.662 345.272 274.773 343.391 272.5 342.085V220C272.5 214.033 274.871 208.31 279.09 204.09C283.31 199.871 289.033 197.5 295 197.5V205C295.019 209.637 296.471 214.155 299.156 217.935C301.841 221.716 305.628 224.574 310 226.12V235C310 242.956 313.161 250.587 318.787 256.213C324.413 261.839 332.044 265 340 265C347.956 265 355.587 261.839 361.213 256.213C366.839 250.587 370 242.956 370 235V226.12C374.372 224.574 378.159 221.716 380.844 217.935C383.529 214.155 384.981 209.637 385 205ZM313.75 122.5V100H336.25V122.5H313.75ZM276.25 122.5V100H298.75V122.5H276.25ZM238.75 122.5V100H261.25V122.5H238.75ZM201.25 122.5V100H223.75V122.5H201.25ZM163.75 62.5H186.25V85H163.75V62.5ZM201.25 62.5H223.75V85H201.25V62.5ZM336.25 85H313.75V62.5H336.25V85ZM298.75 85H276.25V62.5H298.75V85ZM261.25 85H238.75V62.5H261.25V85ZM276.25 47.5V25H298.75V47.5H276.25ZM261.25 47.5H238.75V25H261.25V47.5ZM223.75 47.5H201.25V25H223.75V47.5ZM336.25 47.5H313.75V25H336.25V47.5ZM186.25 25V47.5H163.75V25H186.25ZM163.75 100H186.25V122.5H163.75V100ZM190 137.5H317.5V152.5H295C278.369 152.495 262.323 158.639 249.948 169.75C237.611 158.644 221.599 152.499 205 152.5H190V137.5ZM235 385H265V445H235V385ZM265 370H235V355H265V370ZM175 235C175 238.978 173.42 242.794 170.607 245.607C167.794 248.42 163.978 250 160 250C156.022 250 152.206 248.42 149.393 245.607C146.58 242.794 145 238.978 145 235V227.5H175V235ZM190 205C190 206.989 189.21 208.897 187.803 210.303C186.397 211.71 184.489 212.5 182.5 212.5H137.5C135.511 212.5 133.603 211.71 132.197 210.303C130.79 208.897 130 206.989 130 205V197.5H190V205ZM205 182.5H115V167.5H205C218.918 167.518 232.262 173.055 242.103 182.897C251.945 192.738 257.482 206.082 257.5 220V340H242.5V220C242.488 210.058 238.533 200.527 231.503 193.497C224.473 186.467 214.942 182.512 205 182.5ZM287.5 475H212.5C212.5 471.022 214.08 467.206 216.893 464.393C219.706 461.58 223.522 460 227.5 460H272.5C276.475 460.01 280.285 461.593 283.096 464.404C285.907 467.215 287.49 471.025 287.5 475ZM267.528 194.672C265.546 189.816 263.003 185.207 259.952 180.94C269.58 172.294 282.06 167.508 295 167.5H385V182.5H295C289.827 182.512 284.713 183.601 279.983 185.697C275.254 187.792 271.012 190.849 267.528 194.672ZM355 235C355 238.978 353.42 242.794 350.607 245.607C347.794 248.42 343.978 250 340 250C336.022 250 332.206 248.42 329.393 245.607C326.58 242.794 325 238.978 325 235V227.5H355V235ZM370 205C370 206.989 369.21 208.897 367.803 210.303C366.397 211.71 364.489 212.5 362.5 212.5H317.5C315.511 212.5 313.603 211.71 312.197 210.303C310.79 208.897 310 206.989 310 205V197.5H370V205Z" fill="black"/>
<path d="M362.5 280V302.5C362.5 304.489 363.29 306.397 364.697 307.803C366.103 309.21 368.011 310 370 310C371.989 310 373.897 309.21 375.303 307.803C376.71 306.397 377.5 304.489 377.5 302.5V280C377.5 278.011 376.71 276.103 375.303 274.697C373.897 273.29 371.989 272.5 370 272.5C368.011 272.5 366.103 273.29 364.697 274.697C363.29 276.103 362.5 278.011 362.5 280Z" fill="black"/>
<path d="M332.5 287.5V302.5C332.5 304.489 333.29 306.397 334.697 307.803C336.103 309.21 338.011 310 340 310C341.989 310 343.897 309.21 345.303 307.803C346.71 306.397 347.5 304.489 347.5 302.5V287.5C347.5 285.511 346.71 283.603 345.303 282.197C343.897 280.79 341.989 280 340 280C338.011 280 336.103 280.79 334.697 282.197C333.29 283.603 332.5 285.511 332.5 287.5Z" fill="black"/>
<path d="M310 310C311.989 310 313.897 309.21 315.303 307.803C316.71 306.397 317.5 304.489 317.5 302.5V280C317.5 278.011 316.71 276.103 315.303 274.697C313.897 273.29 311.989 272.5 310 272.5C308.011 272.5 306.103 273.29 304.697 274.697C303.29 276.103 302.5 278.011 302.5 280V302.5C302.5 304.489 303.29 306.397 304.697 307.803C306.103 309.21 308.011 310 310 310Z" fill="black"/>
</svg>
