<svg width="500" height="500" viewBox="0 0 500 500" fill="none" xmlns="http://www.w3.org/2000/svg">
<path d="M456.931 191.355C455.981 190.659 454.881 190.196 453.719 190.005C452.558 189.813 451.367 189.898 450.244 190.252L308.846 234.905H191.154L49.7558 190.252C48.6324 189.898 47.4412 189.814 46.279 190.006C45.1167 190.197 44.016 190.66 43.0659 191.357C42.1159 192.053 41.3433 192.964 40.8106 194.014C40.2779 195.065 40.0002 196.227 40 197.405V242.405C39.9997 243.39 40.1936 244.365 40.5704 245.275C40.9472 246.185 41.4996 247.012 42.1961 247.708C42.8926 248.405 43.7195 248.957 44.6296 249.334C45.5396 249.711 46.515 249.905 47.5 249.905H182.5V279.905C182.505 283.881 184.087 287.693 186.899 290.505C189.711 293.317 193.523 294.899 197.5 294.905H205V362.405C204.999 364.393 204.208 366.3 202.802 367.706C201.396 369.113 199.489 369.903 197.5 369.905H100C99.0149 369.904 98.0394 370.098 97.1292 370.474C96.219 370.851 95.392 371.403 94.6954 372.1C93.9989 372.797 93.4465 373.624 93.0698 374.534C92.693 375.444 92.4994 376.419 92.5 377.405V452.405C92.4994 453.39 92.693 454.365 93.0698 455.275C93.4465 456.186 93.9989 457.013 94.6954 457.709C95.392 458.406 96.219 458.958 97.1292 459.335C98.0394 459.711 99.0149 459.905 100 459.905H227.5C245.396 459.885 262.554 452.767 275.208 440.113C287.863 427.458 294.98 410.301 295 392.405V294.905H302.5C306.477 294.899 310.289 293.317 313.101 290.505C315.913 287.693 317.495 283.881 317.5 279.905V249.905H452.5C453.485 249.905 454.46 249.711 455.37 249.334C456.28 248.957 457.107 248.405 457.804 247.708C458.5 247.012 459.053 246.185 459.43 245.275C459.806 244.365 460 243.39 460 242.405V197.405C459.999 196.226 459.721 195.064 459.188 194.013C458.655 192.962 457.882 192.051 456.931 191.355ZM55 234.905V207.636L141.345 234.905H55ZM280 392.405C279.983 406.323 274.447 419.667 264.605 429.509C254.763 439.351 241.419 444.888 227.5 444.905H107.5V384.905H197.5C203.465 384.898 209.185 382.525 213.403 378.307C217.621 374.089 219.993 368.37 220 362.405V294.905H280V392.405ZM197.5 279.905V249.905H212.5V253.054C212.5 255.043 213.29 256.951 214.697 258.357C216.103 259.764 218.011 260.554 220 260.554C221.989 260.554 223.897 259.764 225.303 258.357C226.71 256.951 227.5 255.043 227.5 253.054V249.905H242.5V253.054C242.5 255.043 243.29 256.951 244.697 258.357C246.103 259.764 248.011 260.554 250 260.554C251.989 260.554 253.897 259.764 255.303 258.357C256.71 256.951 257.5 255.043 257.5 253.054V249.905H272.5V253.054C272.5 255.043 273.29 256.951 274.697 258.357C276.103 259.764 278.011 260.554 280 260.554C281.989 260.554 283.897 259.764 285.303 258.357C286.71 256.951 287.5 255.043 287.5 253.054V249.905H302.5L302.515 279.905L197.5 279.905ZM445 234.905H358.655L445 207.636V234.905Z" fill="black"/>
<path d="M250 212.401C259.942 212.389 269.474 208.435 276.504 201.405C283.534 194.375 287.488 184.843 287.5 174.901C287.5 156.906 261.404 118.212 256.174 110.638C255.447 109.692 254.512 108.925 253.442 108.397C252.371 107.87 251.194 107.595 250 107.595C248.806 107.595 247.629 107.87 246.558 108.397C245.488 108.925 244.553 109.692 243.826 110.638C238.596 118.212 212.5 156.906 212.5 174.901C212.512 184.843 216.466 194.375 223.496 201.405C230.526 208.435 240.058 212.389 250 212.401ZM250 128.462C260.796 145.333 272.5 166.709 272.5 174.901C272.5 180.869 270.129 186.592 265.91 190.811C261.69 195.031 255.967 197.401 250 197.401C244.033 197.401 238.31 195.031 234.09 190.811C229.871 186.592 227.5 180.869 227.5 174.901C227.5 166.709 239.204 145.333 250 128.462Z" fill="black"/>
<path d="M355 144.901C364.942 144.889 374.474 140.935 381.504 133.905C388.534 126.875 392.488 117.343 392.5 107.401C392.5 89.4056 366.404 50.7117 361.174 43.1385C360.447 42.1918 359.512 41.425 358.442 40.8973C357.371 40.3697 356.194 40.0952 355 40.0952C353.806 40.0952 352.629 40.3697 351.558 40.8973C350.488 41.425 349.553 42.1918 348.826 43.1385C343.596 50.7117 317.5 89.4056 317.5 107.401C317.512 117.343 321.466 126.875 328.496 133.905C335.526 140.935 345.058 144.889 355 144.901ZM355 60.962C365.796 77.8333 377.5 99.2091 377.5 107.401C377.5 113.369 375.129 119.091 370.91 123.311C366.69 127.531 360.967 129.901 355 129.901C349.033 129.901 343.31 127.531 339.09 123.311C334.871 119.091 332.5 113.369 332.5 107.401C332.5 99.2091 344.204 77.8333 355 60.962Z" fill="black"/>
<path d="M145 144.901C154.942 144.889 164.474 140.935 171.504 133.905C178.534 126.875 182.488 117.343 182.5 107.401C182.5 89.4056 156.404 50.7117 151.174 43.1385C150.447 42.1918 149.512 41.425 148.442 40.8973C147.371 40.3697 146.194 40.0952 145 40.0952C143.806 40.0952 142.629 40.3697 141.558 40.8973C140.488 41.425 139.553 42.1918 138.826 43.1385C133.596 50.7117 107.5 89.4056 107.5 107.401C107.512 117.343 111.466 126.875 118.496 133.905C125.526 140.935 135.058 144.889 145 144.901ZM145 60.962C155.796 77.8333 167.5 99.2091 167.5 107.401C167.5 113.369 165.129 119.091 160.91 123.311C156.69 127.531 150.967 129.901 145 129.901C139.033 129.901 133.31 127.531 129.09 123.311C124.871 119.091 122.5 113.369 122.5 107.401C122.5 99.2091 134.204 77.8333 145 60.962Z" fill="black"/>
</svg>
