<svg width="500" height="500" viewBox="0 0 500 500" fill="none" xmlns="http://www.w3.org/2000/svg">
<path d="M486.901 316.374C483.692 314.196 479.314 315.037 477.124 318.24C476.535 319.103 462.37 339.38 436.358 339.38C410.346 339.38 396.182 319.103 395.606 318.263C393.015 314.158 386.497 314.163 383.909 318.269C383.767 318.48 369.442 339.381 343.196 339.381C321.198 339.381 307.676 324.882 303.677 319.897V210.729H482.955C486.846 210.729 490 207.575 490 203.683C490 199.792 486.846 196.638 482.955 196.638H426.3V145.291C426.3 98.709 388.852 60.4497 342.823 60.0044C320.178 59.7766 298.823 68.4597 282.699 84.428C274.892 92.1596 268.8 101.139 264.575 110.907C251.552 81.2509 222.266 60.3334 188.303 60.0044C188.024 60.0016 187.744 60.0006 187.465 60.0006C165.129 60.0006 144.103 68.6565 128.178 84.428C112.051 100.4 103.168 121.665 103.168 144.306V196.639H17.5801C13.6885 196.639 10.5348 199.793 10.5348 203.684C10.5348 207.576 13.6885 210.73 17.5801 210.73H103.168V238.551C103.168 242.442 106.322 245.596 110.213 245.596C114.105 245.596 117.259 242.442 117.259 238.551V144.306C117.259 125.454 124.657 107.745 138.094 94.4386C151.525 81.1374 169.293 73.87 188.168 74.094C226.501 74.4643 257.689 106.404 257.689 145.291V196.638H239.881V144.306C239.881 115.9 216.78 92.393 188.385 91.9065C188.085 91.9018 187.788 91.899 187.489 91.899C173.892 91.899 161.008 97.2174 151.125 106.933C140.919 116.965 135.066 130.88 135.066 145.11V334.196C125.674 329.48 119.655 322.82 117.258 319.817V266.73C117.258 262.838 114.104 259.685 110.212 259.685C106.321 259.685 103.167 262.838 103.167 266.73V319.888C99.1545 324.891 85.634 339.38 63.644 339.38C37.6313 339.38 23.4676 319.103 22.892 318.263C20.7207 315.035 16.3435 314.178 13.1148 316.348C9.88606 318.518 9.02825 322.895 11.1995 326.125C11.9495 327.242 29.9719 353.471 63.6431 353.471C86.6633 353.471 102.368 341.212 110.24 333.099C118.113 341.212 133.819 353.471 156.838 353.471C179.852 353.471 195.54 341.219 203.405 333.103C211.279 341.217 226.983 353.471 249.998 353.471C273.018 353.471 288.723 341.212 296.595 333.099C304.467 341.212 320.173 353.471 343.193 353.471C366.207 353.471 381.894 341.219 389.76 333.103C397.634 341.217 413.338 353.471 436.353 353.471C470.025 353.471 488.046 327.242 488.796 326.125C490.966 322.905 490.112 318.552 486.901 316.374ZM149.157 259.686H257.689V279.411H149.157V259.686ZM257.689 245.595H149.157V210.729H257.689V245.595ZM161.003 116.982C168.387 109.724 178.022 105.823 188.143 105.995C208.903 106.351 225.792 123.538 225.792 144.307V196.64H149.158V145.111C149.157 134.634 153.475 124.381 161.003 116.982ZM209.25 318.263C206.661 314.18 200.176 314.178 197.568 318.246C196.98 319.109 182.848 339.38 156.841 339.38C154.149 339.38 151.593 339.154 149.157 338.764V293.5H257.689V338.763C255.253 339.153 252.694 339.38 250.001 339.38C223.989 339.38 209.824 319.103 209.25 318.263ZM271.779 334.193V144.306C271.779 125.454 279.177 107.745 292.614 94.4386C306.045 81.1374 323.815 73.87 342.687 74.094C381.022 74.4643 412.209 106.404 412.209 145.291V196.638H394.402V180.977C394.402 177.086 391.248 173.932 387.356 173.932C383.465 173.932 380.311 177.086 380.311 180.977V196.638H303.676V145.109C303.676 134.633 307.994 124.38 315.522 116.98C322.906 109.722 332.524 105.821 342.662 105.993C363.422 106.35 380.311 123.536 380.311 144.305V152.797C380.311 156.688 383.465 159.842 387.356 159.842C391.248 159.842 394.402 156.688 394.402 152.797V144.305C394.402 115.899 371.3 92.3921 342.905 91.9055C342.605 91.9008 342.309 91.898 342.009 91.898C328.412 91.898 315.529 97.2164 305.645 106.932C295.44 116.964 289.587 130.879 289.587 145.109V319.807C287.183 322.823 281.163 329.48 271.779 334.193Z" fill="black"/>
<path d="M203.438 425.44C177.425 425.44 163.262 405.163 162.686 404.323C160.099 400.242 153.619 400.238 151.009 404.3C150.419 405.164 136.254 425.441 110.242 425.441C84.2306 425.441 70.066 405.164 69.4903 404.324C67.3191 401.094 62.9419 400.237 59.7132 402.408C56.4844 404.579 55.6266 408.956 57.7979 412.184C58.5479 413.301 76.5694 439.53 110.241 439.53C133.262 439.53 148.967 427.272 156.839 419.159C164.711 427.272 180.417 439.53 203.437 439.53C207.329 439.53 210.482 436.377 210.482 432.485C210.482 428.593 207.33 425.44 203.438 425.44Z" fill="black"/>
<path d="M440.297 402.43C437.084 400.256 432.71 401.101 430.521 404.306C429.933 405.168 415.802 425.44 389.794 425.44C363.781 425.44 349.617 405.163 349.042 404.323C346.452 400.22 339.939 400.221 337.349 404.323C337.207 404.534 322.847 425.44 296.597 425.44C270.584 425.44 256.421 405.163 255.845 404.323C253.257 400.24 246.771 400.237 244.164 404.306C244.108 404.387 238.423 412.612 227.935 418.733C224.575 420.695 223.441 425.01 225.403 428.37C227.365 431.729 231.677 432.862 235.039 430.903C241.511 427.125 246.515 422.733 249.994 419.152C257.864 427.265 273.571 439.53 296.597 439.53C319.617 439.53 335.322 427.272 343.195 419.159C351.067 427.272 366.773 439.53 389.792 439.53C423.469 439.53 441.456 413.295 442.206 412.179C444.369 408.955 443.511 404.604 440.297 402.43Z" fill="black"/>
</svg>
