<svg width="500" height="500" viewBox="0 0 500 500" fill="none" xmlns="http://www.w3.org/2000/svg">
<path d="M53.8289 440.991C51.7332 445.294 51.4293 450.15 52.965 454.661C54.5168 459.236 57.7884 462.932 62.1477 465.052L109.693 488.176C112.245 489.416 114.94 490 117.604 490C124.299 490 130.73 486.281 133.833 479.897L158.206 429.777L190.713 362.906C220.237 366.498 250.873 360.691 279.7 345.965C279.748 345.941 279.78 345.901 279.828 345.877C301.513 334.886 321.462 318.953 337.916 299.659C346.499 302.611 355.513 304.187 364.856 304.187C410.618 304.187 447.836 266.96 447.836 221.207C447.836 183.332 422.144 150.521 386.101 141.05C378.99 88.4418 349.442 44.8561 306.145 23.7791C268.462 5.46177 224.788 5.40578 183.138 23.6192C141.936 41.6406 107.637 75.4597 86.5602 118.837C67.227 158.52 61.0199 202.761 69.0907 243.428V243.539C75.3058 275.303 89.6558 302.987 110.709 323.984L78.1934 390.854L53.8209 440.975L53.8289 440.991ZM119.451 472.898C118.98 473.858 117.692 474.282 116.692 473.786L69.1467 450.662C68.6348 450.414 68.2908 450.03 68.1149 449.518C68.0109 449.23 67.8989 448.638 68.2189 447.982L89.0878 405.052L140.32 429.969L119.451 472.898ZM431.846 221.207C431.846 258.145 401.795 288.189 364.864 288.189C355.649 288.189 346.811 286.397 338.58 282.862C313.799 272.303 297.794 248.099 297.794 221.207C297.794 184.268 327.885 154.224 364.864 154.224C369.271 154.224 373.455 154.624 377.414 155.424C408.946 161.399 431.846 189.059 431.846 221.207ZM100.958 125.844C120.379 85.8822 151.839 54.7827 189.561 38.281C226.836 21.9714 265.758 21.9234 299.154 38.1691C336.292 56.2385 362.121 93.2411 369.599 138.355C368.048 138.267 366.464 138.227 364.864 138.227C319.055 138.227 281.796 175.453 281.796 221.207C281.796 224.638 282.06 228.022 282.468 231.365C282.524 231.789 282.556 232.221 282.612 232.645C283.052 235.813 283.692 238.916 284.484 241.972C284.62 242.516 284.764 243.052 284.908 243.587C285.748 246.587 286.739 249.523 287.907 252.394C288.107 252.89 288.323 253.37 288.531 253.858C289.779 256.77 291.147 259.609 292.715 262.345C292.874 262.625 293.05 262.881 293.21 263.161C294.826 265.912 296.578 268.576 298.498 271.12C298.618 271.272 298.722 271.439 298.834 271.591C300.785 274.151 302.929 276.567 305.169 278.886C305.497 279.222 305.809 279.566 306.137 279.894C308.352 282.11 310.704 284.182 313.176 286.149C313.592 286.485 314.015 286.805 314.439 287.133C316.959 289.053 319.591 290.853 322.342 292.492C322.494 292.58 322.622 292.692 322.766 292.78C309.168 307.93 293.186 320.6 275.957 329.855L84.0646 236.54C77.7855 200.322 83.7286 161.183 100.942 125.844H100.958ZM125.867 316.345C108.781 300.715 96.1748 280.318 88.8719 256.706L257.152 338.534C234.075 347.373 210.254 350.052 187.386 346.261C183.858 345.685 180.427 347.477 178.891 350.652L147.327 415.579L96.0948 390.662L127.666 325.736C129.21 322.552 128.49 318.737 125.867 316.345Z" fill="black"/>
<path d="M361.375 168.815C354.608 169.727 341.53 172.862 329.891 183.613C319.621 193.116 315.142 204.09 313.198 211.625C312.094 215.904 314.678 220.264 318.949 221.367C319.621 221.535 320.293 221.623 320.957 221.623C324.516 221.623 327.764 219.232 328.7 215.624C330.107 210.169 333.339 202.226 340.754 195.371C349.161 187.604 358.615 185.341 363.519 184.685C367.894 184.093 370.966 180.069 370.374 175.686C369.79 171.311 365.87 168.207 361.375 168.815Z" fill="black"/>
</svg>
