<svg width="500" height="500" viewBox="0 0 500 500" fill="none" xmlns="http://www.w3.org/2000/svg">
<g clip-path="url(#clip0_1_2)">
<rect width="500" height="500" fill="white"/>
<path d="M452.023 103.752H421.714C417.062 103.752 413.297 106.819 413.297 110.61V144.898L86.6973 144.913V133.802H391.402C396.054 133.802 399.818 130.734 399.818 126.944C399.818 123.153 396.054 120.086 391.402 120.086L86.6791 120.071V110.61C86.6791 106.819 82.9149 103.752 78.2627 103.752H47.9714C43.3195 103.752 39.555 106.819 39.555 110.61V275.221C39.555 279.011 43.3192 282.079 47.9714 282.079H78.2627C82.9145 282.079 86.6791 279.011 86.6791 275.221V191.539H130.465V210.738H108.572C103.92 210.738 100.155 213.805 100.155 217.596C100.155 221.386 103.92 224.453 108.572 224.453H413.276V275.205C413.276 278.996 417.041 282.063 421.693 282.063H452.002C456.654 282.063 460.418 278.996 460.418 275.205L460.436 110.609C460.436 106.819 456.675 103.752 452.023 103.752ZM69.85 268.363H56.3914V117.467H69.85V268.363ZM130.468 177.826H86.6827V158.628H130.468V177.826ZM191.068 210.754H147.3V191.556H191.068V210.754ZM191.068 177.826H147.3V158.628H191.068V177.826ZM241.709 210.754H207.902V191.556H241.709V210.754ZM241.709 177.826H207.902V158.628H241.709V177.826ZM292.082 210.754H258.541V191.556H292.082V210.754ZM292.082 177.826H258.541V158.628H292.082V177.826ZM352.682 210.754H308.914V191.556H352.682V210.754ZM352.682 177.826H308.914V158.628H352.682V177.826ZM413.282 210.754H369.514V191.556H413.282V210.754ZM413.282 177.826H369.514V158.628H413.282V177.826ZM443.591 268.363H430.115L430.132 117.467H443.609V268.363H443.591ZM232.955 389.819L230.664 347.023C230.806 343.623 230.629 340.223 230.114 336.823L230.06 335.81C230.043 335.449 229.847 335.145 229.759 334.797C228.143 326.349 224.609 317.986 219.087 310.188C197.887 280.284 154.883 268.059 123.205 282.975C107.634 290.295 97.1576 302.925 93.6953 318.536C90.3395 333.727 94.0505 349.96 104.189 364.255C109.711 372.038 116.831 378.722 124.999 384.09C125.318 384.321 125.549 384.625 125.94 384.828L127.076 385.421C130.396 387.461 133.894 389.255 137.516 390.846L181.905 413.879L196.678 434.726C200.549 440.195 207.065 444.275 214.576 445.924C217.115 446.474 219.69 446.749 222.246 446.749C227.307 446.749 232.314 445.678 236.806 443.58C236.859 443.566 236.895 443.537 236.948 443.508C243.766 440.296 248.631 435.131 250.673 428.939C252.715 422.747 251.667 416.28 247.743 410.724L232.971 389.877L232.955 389.819ZM213.317 337.893L213.814 347.283C213.69 349.366 213.459 351.42 212.997 353.46C212.145 357.323 210.547 360.796 208.612 364.08L194.691 344.433L212.926 335.853C213.068 336.533 213.175 337.213 213.281 337.893L213.317 337.893ZM204.51 317.045C205.753 318.796 206.836 320.604 207.848 322.427L186.293 332.569L178.924 322.152L200.444 312.025C201.864 313.631 203.267 315.28 204.51 317.045ZM188.707 301.695L170.508 310.26L156.534 290.526C167.72 291.235 179.048 295.084 188.725 301.695H188.707ZM171.715 339.414L158.931 345.418L151.562 335.001L164.346 328.997L171.715 339.414ZM131.623 294.854C133.878 293.798 136.239 293.003 138.636 292.308C138.796 292.655 138.832 293.017 139.062 293.335L155.912 317.12L143.128 323.124L126.278 299.339C126.065 299.036 125.71 298.848 125.462 298.573C127.397 297.213 129.368 295.896 131.623 294.84L131.623 294.854ZM110.263 320.969C111.115 317.12 112.713 313.633 114.648 310.349L128.569 329.996L110.334 338.576C109.055 332.658 109.002 326.712 110.281 320.969H110.263ZM122.816 362.417C121.378 360.796 120.01 359.133 118.768 357.382C117.525 355.631 116.442 353.823 115.43 352.014L136.967 341.873L144.336 352.289L122.798 362.417H122.816ZM153.214 381.586C150.781 380.877 148.455 379.995 146.147 379.026L136.594 374.063C135.902 373.629 135.209 373.195 134.534 372.747L152.769 364.167L166.796 383.959C162.322 383.684 157.759 382.917 153.214 381.586ZM180.131 351.291L197.603 375.944C195.721 377.246 193.821 378.533 191.655 379.561C189.489 380.573 187.216 381.369 184.89 382.049L167.365 357.295L180.149 351.291L180.131 351.291ZM234.395 425.336C233.525 427.969 231.465 430.182 228.571 431.557C228.536 431.571 228.518 431.586 228.483 431.6C225.571 432.96 222.179 433.322 218.912 432.627C215.698 431.918 212.911 430.182 211.242 427.838L195.439 405.529C194.764 404.575 193.823 403.764 192.669 403.171L180.844 397.037C187.573 396.082 194.054 394.274 200.038 391.453C206.021 388.646 211.224 385.043 215.592 380.805L216.195 392.104C216.249 393.203 216.639 394.274 217.314 395.229L233.117 417.523C234.768 419.882 235.23 422.717 234.377 425.336L234.395 425.336ZM244.942 243.68C226.37 243.68 211.277 255.977 211.277 271.11C211.277 286.243 226.37 298.541 244.942 298.541C263.514 298.541 278.606 286.243 278.606 271.11C278.606 255.977 263.514 243.68 244.942 243.68ZM244.942 284.824C235.655 284.824 228.11 278.676 228.11 271.109C228.11 263.543 235.656 257.394 244.942 257.394C254.228 257.394 261.774 263.543 261.774 271.109C261.774 278.676 254.228 284.824 244.942 284.824Z" fill="black"/>
</g>
<defs>
<clipPath id="clip0_1_2">
<rect width="500" height="500" fill="white"/>
</clipPath>
</defs>
</svg>
