<svg width="500" height="500" viewBox="0 0 500 500" fill="none" xmlns="http://www.w3.org/2000/svg">
<g clip-path="url(#clip0_1_2)">
<rect width="500" height="500" fill="white"/>
<path d="M387.927 282.637C387.927 252.747 346.415 227.326 286.277 219.748V163.152L326.636 137.53C330.737 134.925 333.33 131.193 333.916 126.983C334.52 122.787 333.064 118.649 329.814 115.351C323.316 108.739 311.668 107.538 303.305 112.616L272.677 131.265H227.346L196.7 112.616C188.355 107.524 176.725 108.739 170.191 115.351C166.941 118.649 165.485 122.773 166.089 126.983C166.693 131.178 169.267 134.925 173.369 137.53L213.728 163.152V219.748C153.591 227.344 112.078 252.749 112.078 282.637C112.078 289.712 114.528 296.641 119.074 303.181V350.563C119.074 352.588 120.388 354.483 122.518 355.525C123.637 356.075 124.915 356.35 126.176 356.35C127.312 356.35 128.466 356.118 129.514 355.67L173.104 336.789C180.739 339.191 188.765 341.158 197.039 342.75V362.339C197.039 365.537 200.217 368.126 204.141 368.126H295.905C299.829 368.126 303.007 365.537 303.007 362.339V342.75C311.281 341.158 319.289 339.176 326.941 336.789L370.531 355.67C371.579 356.118 372.715 356.35 373.869 356.35C375.13 356.35 376.408 356.075 377.527 355.525C379.676 354.483 380.972 352.602 380.972 350.563V303.196C385.482 296.642 387.927 289.726 387.927 282.637ZM235.423 273.797C247.372 273.797 257.102 265.869 257.102 256.133V249.391C259.446 250.1 261.95 250.534 264.577 250.534C266.619 250.534 268.572 250.23 270.437 249.796C316.46 253.355 343.946 267.765 343.946 279.802C343.946 294.356 305.363 310.589 249.982 310.589C194.602 310.589 156.019 294.371 156.019 279.802C156.019 267.895 179.847 256.437 213.705 251.547V256.118C213.723 265.87 223.455 273.797 235.423 273.797ZM182.105 128.397C181.039 127.717 180.365 126.734 180.205 125.634C180.045 124.535 180.435 123.45 181.288 122.596C182.992 120.86 186.029 120.556 188.212 121.887L220.74 141.693C221.966 142.446 223.457 142.836 224.984 142.836H275.039C276.566 142.836 278.057 142.431 279.282 141.679L311.81 121.873C313.994 120.541 317.03 120.86 318.753 122.581C319.605 123.45 319.978 124.52 319.818 125.62C319.658 126.719 318.984 127.703 317.918 128.383L274.825 155.741C273.103 156.841 272.091 158.519 272.091 160.313V232.854C272.091 236.21 268.735 238.944 264.616 238.944C260.461 238.959 257.105 236.224 257.105 232.868V203.108C257.105 199.911 253.927 197.321 250.003 197.321C246.079 197.321 242.901 199.911 242.901 203.108V256.13C242.901 259.487 239.545 262.221 235.426 262.221C231.306 262.221 227.951 259.487 227.951 256.13L227.933 160.312C227.933 158.532 226.921 156.84 225.199 155.74L182.105 128.397ZM213.727 231.434V239.826C169.853 245.641 141.836 261.064 141.836 279.8C141.836 303.556 189.35 322.163 250.005 322.163C310.659 322.163 358.173 303.557 358.173 279.8C358.173 261.035 328.751 245.294 284.591 239.637C285.656 237.553 286.26 235.267 286.26 232.866V231.434C337.378 238.349 373.705 259.313 373.705 282.634C373.705 299.011 355.417 314.896 324.787 325.141C315.27 328.295 305.061 330.798 294.407 332.592C266.069 337.424 233.93 337.424 205.539 332.592C194.904 330.812 184.694 328.31 175.194 325.155C144.548 314.913 126.258 299.027 126.258 282.648C126.276 259.312 162.604 238.348 213.722 231.433L213.727 231.434ZM133.277 317.501C139.758 322.391 147.57 326.876 156.644 330.811L133.277 340.924V317.501ZM211.223 356.549V345.163C223.758 346.885 236.755 347.796 250.001 347.796C263.246 347.796 276.244 346.885 288.779 345.178V356.564L211.223 356.549ZM343.377 330.811C352.45 326.891 360.263 322.391 366.726 317.516V340.924L343.377 330.811Z" fill="black"/>
<path d="M250 126.419C266.957 126.419 280.753 115.177 280.753 101.375C280.753 87.5441 266.956 76.3174 250 76.3174C233.044 76.3174 219.265 87.5589 219.265 101.361C219.265 115.177 233.043 126.419 250 126.419ZM250 87.8926C259.126 87.8926 266.548 93.94 266.548 101.362C266.548 108.798 259.126 114.846 250 114.846C240.874 114.846 233.47 108.798 233.47 101.376C233.47 93.9256 240.874 87.8926 250 87.8926Z" fill="black"/>
<path d="M200.464 194.33V173.308C200.464 170.111 197.285 167.521 193.361 167.521C189.437 167.521 186.259 170.111 186.259 173.308V194.33C186.259 197.527 189.437 200.117 193.361 200.117C197.285 200.117 200.464 197.527 200.464 194.33Z" fill="black"/>
<path d="M168.023 210.244C171.947 210.244 175.125 207.655 175.125 204.457V163.672C175.125 160.475 171.947 157.885 168.023 157.885C164.099 157.885 160.92 160.475 160.92 163.672V204.457C160.92 207.655 164.099 210.244 168.023 210.244Z" fill="black"/>
<path d="M299.536 173.307V194.329C299.536 197.526 302.715 200.116 306.639 200.116C310.563 200.116 313.741 197.526 313.741 194.329V173.307C313.741 170.11 310.563 167.52 306.639 167.52C302.715 167.52 299.536 170.11 299.536 173.307Z" fill="black"/>
<path d="M324.877 163.685V204.47C324.877 207.668 328.056 210.257 331.98 210.257C335.904 210.257 339.082 207.668 339.082 204.47V163.685C339.082 160.488 335.904 157.898 331.98 157.898C328.056 157.898 324.877 160.488 324.877 163.685Z" fill="black"/>
</g>
<defs>
<clipPath id="clip0_1_2">
<rect width="500" height="500" fill="white"/>
</clipPath>
</defs>
</svg>
