<svg width="500" height="500" viewBox="0 0 500 500" fill="none" xmlns="http://www.w3.org/2000/svg">
<path d="M250 166.17C203.707 166.17 158.884 169.904 120.376 176.969C111.879 178.76 113.551 191.781 122.913 190.801C206.663 174.7 336.566 176.96 412.854 198.903C496.312 222.837 496.439 252.764 412.854 276.733C327.889 301.438 172.11 301.438 87.145 276.733C-0.536561 251.581 6.45625 220.791 91.6769 197.679C100.016 195.254 97.3666 182.394 88.1059 184.078C23.5506 201.022 10 222.655 10 237.817V410.732C10 422.535 19.6019 432.137 31.405 432.137C43.2081 432.137 52.81 422.535 52.81 410.732V313.25C94.5794 330.764 161.465 340.752 228.596 342.511V445.771C228.596 457.574 238.198 467.176 250.001 467.176C261.804 467.176 271.406 457.574 271.406 445.771V342.514C310.966 341.522 348.806 337.796 381.904 331.57C390.392 329.739 388.665 316.73 379.305 317.749C341.117 324.934 296.405 328.731 250 328.731C186.981 330.282 31.735 314.329 24.0625 271.145V263.365C97.6769 324.558 402.326 324.557 475.938 263.365V271.145C475.938 279.287 466.878 286.651 459.277 291.394C447.258 298.897 429.199 305.889 407.054 311.613C399.03 313.93 400.847 326.976 410.574 325.229C425.223 321.441 437.283 317.413 447.19 313.27V410.732C447.19 422.536 456.792 432.137 468.595 432.137C480.397 432.137 490 422.536 490 410.732V237.817C490 191.281 366.347 166.17 250 166.17ZM257.343 342.756V445.772C257.343 449.82 254.049 453.114 250 453.114C245.951 453.114 242.657 449.82 242.657 445.772V342.756C246.564 342.792 251.297 342.813 257.343 342.756ZM38.7475 306.54V410.732C38.4381 420.437 24.3691 420.431 24.0625 410.732V296.693C28.1669 300.165 33.0991 303.447 38.7475 306.54ZM468.595 418.075C464.546 418.075 461.252 414.781 461.252 410.732V306.57C467.244 303.289 472.075 299.981 475.938 296.702V410.732C475.938 414.781 472.644 418.075 468.595 418.075Z" fill="black"/>
<path d="M66.55 236.88C66.55 244.702 73.0779 254.881 123.982 264.239C194.424 277.62 305.576 277.62 376.018 264.239C392.234 261.259 405.757 257.737 415.126 254.058C422.992 250.968 433.45 245.825 433.45 236.881C431.565 205.115 292.301 199.404 250.001 199.407C189.347 200.307 134.332 203.16 84.8744 219.704C77.0088 222.793 66.55 227.935 66.55 236.88ZM132.422 222.311C204.812 209.869 355.225 207.332 418.246 236.88C413.947 239.92 400.206 245.929 367.578 251.448C300.325 263.147 199.675 263.146 132.423 251.448C99.7938 245.929 86.0529 239.92 81.7544 236.88C86.0529 233.839 99.7929 227.83 132.422 222.311Z" fill="black"/>
<path d="M209.688 115.263C213.571 115.263 216.719 112.116 216.719 108.231V39.7939C216.431 30.4977 202.941 30.5043 202.656 39.7939V108.231C202.656 112.115 205.804 115.263 209.688 115.263Z" fill="black"/>
<path d="M250 147.138C253.883 147.138 257.031 143.991 257.031 140.106V83.3877C256.743 74.0914 243.254 74.098 242.969 83.3877V140.106C242.969 143.99 246.117 147.138 250 147.138Z" fill="black"/>
<path d="M290.312 103.544C294.196 103.544 297.344 100.397 297.344 96.5127V39.7939C297.056 30.4977 283.566 30.5043 283.281 39.7939V96.5127C283.281 100.396 286.429 103.544 290.312 103.544Z" fill="black"/>
</svg>
