<svg width="500" height="500" viewBox="0 0 500 500" fill="none" xmlns="http://www.w3.org/2000/svg">
<g clip-path="url(#clip0_1_2)">
<rect width="500" height="500" fill="white"/>
<path d="M472.55 214.463V318.715C472.55 322.433 471.858 325.963 470.437 329.363C469.052 332.719 466.939 335.859 464.098 338.868L393.289 413.824C389.365 417.976 384.589 421.188 379.156 423.372C373.652 425.571 367.614 426.714 361.223 426.714H280.132C268.963 426.714 258.825 423.011 251.492 417.021C250.994 416.616 250.515 416.196 250.036 415.762C249.556 416.182 249.077 416.601 248.58 417.021C241.247 422.996 231.108 426.714 219.94 426.714H138.849C132.439 426.714 126.402 425.586 120.916 423.372C115.482 421.188 110.706 417.99 106.782 413.824L35.9729 338.868C33.1498 335.873 31.037 332.719 29.6343 329.363C28.2138 325.963 27.5214 322.447 27.5214 318.715V214.463C27.5214 205.363 32.0845 197.102 39.4177 191.127C46.7509 185.151 56.8895 181.433 68.0577 181.433H79.7764C90.9445 181.433 101.083 185.137 108.416 191.127C115.75 197.102 120.313 205.363 120.313 214.463V283.648L125.231 279.641C133.132 273.203 143.519 269.991 153.889 269.991C164.258 269.991 174.645 273.217 182.546 279.641L248.615 333.474C249.112 333.879 249.591 334.284 250.053 334.704C250.514 334.299 250.994 333.879 251.491 333.474L317.559 279.641C325.461 273.203 335.847 269.991 346.217 269.991C356.586 269.991 366.973 273.217 374.875 279.641L379.811 283.648V214.463C379.811 205.363 384.356 197.102 391.707 191.127C399.04 185.151 409.179 181.433 420.347 181.433H432.066C443.234 181.433 453.372 185.137 460.706 191.127C468.039 197.102 472.602 205.363 472.602 214.463H472.55ZM124.573 304.163L181.568 350.604C185.652 353.917 185.652 359.299 181.568 362.612C177.502 365.939 170.897 365.939 166.831 362.612L102.449 310.153L102.094 309.834L101.916 309.661L101.65 309.444L101.561 309.357L101.402 309.183L101.259 309.01L101.171 308.923L101.1 308.836L101.011 308.749L100.798 308.489L100.425 307.925L100.318 307.737L100.212 307.534L100.159 307.447L100.052 307.245L99.8745 306.738L99.7857 306.536L99.5727 305.928L99.5194 305.726L99.4839 305.523L99.4484 305.422L99.3596 304.915L99.3419 304.698L99.3241 304.597V214.393C99.3241 209.981 97.1224 205.988 93.5359 203.065C89.9848 200.172 85.0486 198.349 79.6332 198.349H67.9145C62.5168 198.349 57.5986 200.143 54.0118 203.065C50.4607 205.959 48.2236 209.981 48.2236 214.393V318.645C48.2236 320.569 48.5432 322.291 49.2002 323.839C49.8749 325.445 50.887 326.949 52.2897 328.425L123.099 403.381C125.07 405.464 127.378 407.041 129.988 408.068C132.527 409.095 135.474 409.616 138.724 409.616H219.815C225.212 409.616 230.131 407.822 233.717 404.9C237.269 402.006 239.506 397.984 239.506 393.572V356.708C239.506 354.408 239.044 352.339 238.121 350.516C237.215 348.722 235.741 347.001 233.753 345.366L167.685 291.532C163.849 288.422 158.825 286.86 153.782 286.86C148.739 286.86 143.696 288.422 139.879 291.532L124.52 304.061L124.573 304.163ZM250 246.944C272.639 236.137 365.127 188.467 367.932 130.293C368.82 111.687 361.114 98.5941 349.395 90.6222C342.328 85.8189 333.752 82.7807 324.697 81.4496C315.517 80.1041 305.823 80.5237 296.66 82.6649C280.485 86.4264 266.21 95.6134 259.8 109.849C257.829 114.247 251.827 116.519 246.43 114.899C243.447 114.016 241.245 112.106 240.233 109.849C233.823 95.613 219.547 86.4408 203.372 82.6649C194.21 80.5237 184.515 80.1041 175.335 81.4496C166.262 82.7807 157.686 85.8189 150.637 90.6222C138.919 98.5937 131.195 111.687 132.1 130.293C134.906 188.467 227.396 236.137 250.032 246.944H250ZM388.691 130.959C385.069 205.989 258.241 262.685 255.045 264.104C252.045 265.464 248.263 265.579 245.031 264.133C244.658 263.959 114.954 206.84 111.295 130.959C110.105 106.465 120.936 88.7549 137.325 77.6178C147.25 70.876 159.165 66.6223 171.647 64.7997C184.023 62.9912 196.949 63.5265 209.058 66.3477C225.038 70.0659 239.705 77.7192 250.003 89.1196C260.283 77.7192 274.95 70.0803 290.947 66.3477C303.039 63.5265 315.983 62.9912 328.359 64.7997C340.841 66.637 352.755 70.876 362.68 77.6178C379.069 88.7578 389.9 106.466 388.71 130.959L388.691 130.959ZM397.551 310.185L333.169 362.644C329.085 365.972 322.498 365.972 318.432 362.644C314.348 359.317 314.348 353.949 318.432 350.636L375.427 304.196L360.069 291.667C356.251 288.556 351.209 286.994 346.166 286.994C341.123 286.994 336.08 288.556 332.263 291.667L266.195 345.5C264.206 347.12 262.75 348.842 261.827 350.65C260.904 352.473 260.442 354.542 260.442 356.843V393.706C260.442 398.119 262.644 402.111 266.23 405.034C269.781 407.928 274.718 409.75 280.133 409.75H361.224C364.473 409.75 367.421 409.23 369.96 408.202C372.57 407.161 374.878 405.584 376.849 403.515L447.658 328.559C449.043 327.098 450.073 325.565 450.748 323.973C451.404 322.411 451.724 320.689 451.724 318.779V214.528C451.724 210.115 449.522 206.122 445.936 203.199C442.385 200.306 437.449 198.483 432.033 198.483H420.315C414.899 198.483 409.999 200.277 406.412 203.199C402.861 206.093 400.624 210.115 400.624 214.528V304.228C400.624 304.358 400.624 304.488 400.606 304.633L400.588 304.835L400.57 305.052L400.499 305.457L400.428 305.66L400.393 305.862L400.286 306.267L400.144 306.673L400.055 306.875L399.984 307.078L399.896 307.28L399.718 307.656L399.505 308.033L399.132 308.597L398.564 309.291L398.404 309.465L398.315 309.552L398.049 309.769L397.871 309.942L397.516 310.261L397.551 310.185Z" fill="black"/>
</g>
<defs>
<clipPath id="clip0_1_2">
<rect width="500" height="500" fill="white"/>
</clipPath>
</defs>
</svg>
