<svg width="500" height="500" viewBox="0 0 500 500" fill="none" xmlns="http://www.w3.org/2000/svg">
<mask id="path-1-outside-1_3_1324" maskUnits="userSpaceOnUse" x="52.8418" y="22.3225" width="391" height="462" fill="black">
<rect fill="white" x="52.8418" y="22.3225" width="391" height="462"/>
<path d="M435.721 407.536C435.968 407.586 436.216 407.611 436.459 407.611C438.076 407.611 439.549 406.561 440.041 404.961C441.342 400.731 440.866 396.524 438.662 392.793C436.073 388.407 431.432 385.15 426.749 382.81L429.199 381.473C431.774 379.967 433.424 377.292 433.613 374.314C433.802 371.337 432.503 368.474 430.137 366.655C427.994 365.009 425.258 364.42 422.77 365.009L400.677 369.317L355.645 319.242C355.574 319.163 355.499 319.086 355.42 319.011C352.424 316.206 350.706 312.244 350.706 308.138V226.373C350.706 216.576 345.516 207.745 337.163 203.326C332.792 201.014 328.304 200.185 323.504 200.794L323.528 200.686L276.121 190.15V171.916C291.229 157.39 301.332 132.046 301.332 109.761C301.332 90.9175 293.755 74.1006 281.963 63.1694C282.342 61.5869 282.709 59.8506 282.709 58.0375C282.709 39.9981 268.034 25.3225 249.994 25.3225C231.955 25.3225 217.279 39.9981 217.279 58.0375C217.279 60.0044 217.692 61.6394 218.101 63.1019C206.266 74.0313 198.659 90.88 198.659 109.761C198.659 132.046 208.761 157.39 223.87 171.916V190.152L176.461 200.687L176.485 200.796C171.679 200.189 167.198 201.018 162.827 203.328C154.472 207.747 149.284 216.578 149.284 226.375V308.147C149.284 312.25 147.569 316.21 144.576 319.015C144.509 319.077 144.445 319.143 144.383 319.21L97.5887 369.985L79.75 366.88C77.1625 366.308 74.4718 366.902 72.3625 368.524C69.9981 370.343 68.6987 373.206 68.8862 376.182C69.0437 378.685 70.2381 380.978 72.145 382.54C66.9419 384.291 61.7612 387.07 58.96 391.463C57.1956 394.231 55.63 398.869 58.1837 405.256C58.7612 406.701 60.1562 407.614 61.6637 407.612C61.9075 407.612 62.155 407.588 62.4006 407.539L96.8181 400.656C88.2081 405.156 75.6887 414.466 75.2912 430.709C75.0812 439.296 80.4325 446.867 91.195 453.212C98.3087 457.407 106.313 460.174 114.679 461.41C112.958 464.104 112.279 467.397 113.035 470.669C114.392 476.554 119.967 480.625 126.107 480.625C126.976 480.625 127.855 480.544 128.734 480.376L192.715 468.092C199.673 468.212 296.194 469.889 351.424 470.348C377.916 470.543 397.967 466.081 411.145 457.008C421.242 450.055 427.081 440.153 427.167 429.839C427.253 419.631 415.956 410.466 412.491 407.901C408.156 404.691 403.356 401.944 397.909 399.571C399.7 400.174 401.521 400.701 403.384 401.074L435.721 407.536ZM333.653 209.954C339.544 213.072 343.204 219.363 343.204 226.371V308.136C343.204 314.251 345.741 320.157 350.168 324.368L396.518 375.91C397.401 376.889 398.736 377.337 400.024 377.082L424.347 372.336C424.772 372.237 425.215 372.331 425.562 372.599C426.094 373.007 426.143 373.551 426.124 373.838C426.107 374.125 425.991 374.659 425.506 374.942L417.679 379.217C414.981 378.381 412.964 377.937 412.36 377.811L410.828 385.154C415.471 386.129 428.363 390.087 432.209 396.612C432.745 397.523 433.077 398.438 433.206 399.385L404.856 393.715C396.484 392.039 388.864 387.505 383.399 380.946C383.157 380.654 382.872 380.401 382.551 380.196C355.827 362.95 326.909 342.413 323.792 337.251C319.626 320.451 313.034 293.097 312.737 289.838C310.746 268.032 313.141 246.406 319.853 225.563L325.471 208.124C328.321 207.944 330.977 208.536 333.653 209.954ZM249.994 32.8188C263.839 32.8188 275.104 44.035 275.2 57.8575C267.749 52.9581 259.152 50.1475 249.994 50.1475C240.837 50.1475 232.24 52.96 224.789 57.8594C224.882 44.035 236.149 32.8188 249.994 32.8188ZM249.994 57.6475C271.467 57.6475 289.369 76.1013 293.104 100.364C283.832 84.7975 267.944 74.9744 249.994 74.9744C231.908 74.9744 215.849 85.5025 206.635 102.102C209.761 76.9844 228.01 57.6475 249.994 57.6475ZM207.259 122.003C211.977 99.0625 229.844 82.4744 249.994 82.4744C270.767 82.4744 288.34 98.1494 292.952 120.659C288.801 147.565 270.389 176.352 249.994 176.352C229.937 176.354 211.804 148.514 207.259 122.003ZM249.994 183.854C256.572 183.854 262.847 181.664 268.619 177.914V209.939C268.619 220.21 260.264 228.565 249.994 228.565C239.723 228.565 231.368 220.21 231.368 209.939V177.914C237.139 181.664 243.415 183.854 249.994 183.854ZM249.994 236.063C264.4 236.063 276.119 224.344 276.119 209.937V197.83L317.914 207.117L312.715 223.262C307.48 239.521 304.757 256.234 304.57 273.139L298.883 319.928H201.102L195.424 273.912C195.314 256.743 192.591 239.768 187.277 223.261L182.078 207.115L223.872 197.828V209.935C223.868 224.343 235.587 236.063 249.994 236.063ZM294.512 353.462H203.828L201.833 327.43H297.929L294.512 353.462ZM191.686 304.881L194.05 324.051L196.572 356.944L193.199 372.115L112.105 395.166C114.509 393.781 116.791 392.179 118.906 390.364L123.599 386.341C136.763 377.584 178.9 349.094 182.866 340.72C182.971 340.499 183.055 340.266 183.113 340.026C183.871 337.023 188.504 318.511 191.686 304.881ZM65.2825 395.494C69.1112 389.476 83.3106 387.359 87.9812 387.092L87.5631 379.604C87.055 379.632 85.6375 379.726 83.6743 379.975L76.9881 376.803C76.4931 376.463 76.3881 375.976 76.3712 375.706C76.3525 375.419 76.4031 374.875 76.9337 374.464C77.2825 374.198 77.7212 374.103 78.1487 374.204C78.22 374.221 78.2931 374.236 78.3662 374.247L98.3144 377.719C99.5725 377.941 100.851 377.504 101.714 376.566L149.806 324.383C154.24 320.172 156.781 314.262 156.781 308.142V226.369C156.781 219.359 160.441 213.068 166.33 209.952C169.007 208.536 171.653 207.94 174.516 208.12L180.132 225.559C186.844 246.404 189.239 268.03 187.249 289.836C186.953 293.091 180.211 320.761 175.951 337.759C172.906 342.769 145.011 363.096 119.254 380.222C119.129 380.307 119.007 380.399 118.891 380.498L114.023 384.67C109.154 388.844 103.257 391.714 96.97 392.972L64.3656 399.494C64.1744 397.574 64.7481 396.334 65.2825 395.494ZM95.005 446.749C86.7625 441.887 82.6525 436.553 82.7893 430.889C83.2487 412.022 106.759 404.491 106.913 404.442L197.401 378.721C198.726 378.344 199.737 377.271 200.035 375.927L203.361 360.964H295.099L300.211 376.298C300.599 377.462 301.531 378.363 302.708 378.709L354.256 393.914L337.129 394.538L309.132 393.291C305.506 393.119 302.061 394.626 299.702 397.394L290.346 408.376C289.448 409.429 288.079 409.967 286.712 409.831L182.239 399.004C181.874 398.965 181.504 398.982 181.142 399.051L128.093 409.281L129.514 416.646L140.131 414.599C137.894 421.052 136.364 429.786 136.881 436.259C137.496 443.944 139.064 449.538 140.449 453.181C137.626 453.533 134.978 453.863 132.542 454.165C119.256 455.821 105.921 453.184 95.005 446.749ZM293.483 431.961C270.016 436.645 192.966 446.588 148.154 452.217C146.956 449.534 145.034 444.092 144.359 435.661C143.564 425.729 147.391 416.371 149.029 412.883L182.02 406.521L285.942 417.289C289.793 417.692 293.562 416.172 296.059 413.237L305.414 402.256C306.246 401.277 307.516 400.731 308.802 400.782L336.951 402.034C337.051 402.038 337.152 402.038 337.255 402.034L376.384 400.609C378.083 400.574 379.527 401.826 379.664 403.529C379.778 404.961 378.919 406.292 377.573 406.769C364.782 411.295 320.92 426.486 293.483 431.961ZM192.458 460.583C192.199 460.577 191.941 460.6 191.686 460.649L127.322 473.007C124.127 473.616 120.998 471.812 120.346 468.981C119.766 466.469 121.371 463.981 124.096 463.118L133 461.671C133.156 461.652 133.313 461.633 133.469 461.614C173.112 456.689 268.206 444.659 294.953 439.321C314.616 435.396 341.74 426.872 361.499 420.244C363.346 423.359 366.392 429.936 366.392 439.502C366.392 448.536 361.855 458.706 359.854 462.756C357.145 462.842 354.361 462.878 351.486 462.848C294.492 462.368 193.471 460.6 192.458 460.583ZM419.665 429.769C419.626 434.374 417.916 443.232 406.891 450.824C397.87 457.036 384.923 460.881 368.352 462.267C370.795 456.64 373.894 447.857 373.894 439.497C373.894 429.503 371.02 422.123 368.71 417.796C373.171 416.267 377.044 414.914 380.074 413.839C384.445 412.292 387.299 408.089 387.169 403.489C395.481 406.242 402.248 409.641 408.027 413.92C415.024 419.104 419.702 425.472 419.665 429.769ZM378.904 393.363L306.707 372.066L301.634 356.845L305.922 324.167H305.918C305.92 324.156 305.924 324.145 305.926 324.132L308.267 304.87C311.382 318.344 315.886 336.539 316.621 339.501C316.681 339.743 316.765 339.977 316.872 340.204C320.963 348.839 364.077 377.191 378.014 386.196C382.099 390.97 387.147 394.819 392.764 397.517C388.532 395.959 383.948 394.581 378.904 393.363Z"/>
</mask>
<path d="M435.721 407.536C435.968 407.586 436.216 407.611 436.459 407.611C438.076 407.611 439.549 406.561 440.041 404.961C441.342 400.731 440.866 396.524 438.662 392.793C436.073 388.407 431.432 385.15 426.749 382.81L429.199 381.473C431.774 379.967 433.424 377.292 433.613 374.314C433.802 371.337 432.503 368.474 430.137 366.655C427.994 365.009 425.258 364.42 422.77 365.009L400.677 369.317L355.645 319.242C355.574 319.163 355.499 319.086 355.42 319.011C352.424 316.206 350.706 312.244 350.706 308.138V226.373C350.706 216.576 345.516 207.745 337.163 203.326C332.792 201.014 328.304 200.185 323.504 200.794L323.528 200.686L276.121 190.15V171.916C291.229 157.39 301.332 132.046 301.332 109.761C301.332 90.9175 293.755 74.1006 281.963 63.1694C282.342 61.5869 282.709 59.8506 282.709 58.0375C282.709 39.9981 268.034 25.3225 249.994 25.3225C231.955 25.3225 217.279 39.9981 217.279 58.0375C217.279 60.0044 217.692 61.6394 218.101 63.1019C206.266 74.0313 198.659 90.88 198.659 109.761C198.659 132.046 208.761 157.39 223.87 171.916V190.152L176.461 200.687L176.485 200.796C171.679 200.189 167.198 201.018 162.827 203.328C154.472 207.747 149.284 216.578 149.284 226.375V308.147C149.284 312.25 147.569 316.21 144.576 319.015C144.509 319.077 144.445 319.143 144.383 319.21L97.5887 369.985L79.75 366.88C77.1625 366.308 74.4718 366.902 72.3625 368.524C69.9981 370.343 68.6987 373.206 68.8862 376.182C69.0437 378.685 70.2381 380.978 72.145 382.54C66.9419 384.291 61.7612 387.07 58.96 391.463C57.1956 394.231 55.63 398.869 58.1837 405.256C58.7612 406.701 60.1562 407.614 61.6637 407.612C61.9075 407.612 62.155 407.588 62.4006 407.539L96.8181 400.656C88.2081 405.156 75.6887 414.466 75.2912 430.709C75.0812 439.296 80.4325 446.867 91.195 453.212C98.3087 457.407 106.313 460.174 114.679 461.41C112.958 464.104 112.279 467.397 113.035 470.669C114.392 476.554 119.967 480.625 126.107 480.625C126.976 480.625 127.855 480.544 128.734 480.376L192.715 468.092C199.673 468.212 296.194 469.889 351.424 470.348C377.916 470.543 397.967 466.081 411.145 457.008C421.242 450.055 427.081 440.153 427.167 429.839C427.253 419.631 415.956 410.466 412.491 407.901C408.156 404.691 403.356 401.944 397.909 399.571C399.7 400.174 401.521 400.701 403.384 401.074L435.721 407.536ZM333.653 209.954C339.544 213.072 343.204 219.363 343.204 226.371V308.136C343.204 314.251 345.741 320.157 350.168 324.368L396.518 375.91C397.401 376.889 398.736 377.337 400.024 377.082L424.347 372.336C424.772 372.237 425.215 372.331 425.562 372.599C426.094 373.007 426.143 373.551 426.124 373.838C426.107 374.125 425.991 374.659 425.506 374.942L417.679 379.217C414.981 378.381 412.964 377.937 412.36 377.811L410.828 385.154C415.471 386.129 428.363 390.087 432.209 396.612C432.745 397.523 433.077 398.438 433.206 399.385L404.856 393.715C396.484 392.039 388.864 387.505 383.399 380.946C383.157 380.654 382.872 380.401 382.551 380.196C355.827 362.95 326.909 342.413 323.792 337.251C319.626 320.451 313.034 293.097 312.737 289.838C310.746 268.032 313.141 246.406 319.853 225.563L325.471 208.124C328.321 207.944 330.977 208.536 333.653 209.954ZM249.994 32.8188C263.839 32.8188 275.104 44.035 275.2 57.8575C267.749 52.9581 259.152 50.1475 249.994 50.1475C240.837 50.1475 232.24 52.96 224.789 57.8594C224.882 44.035 236.149 32.8188 249.994 32.8188ZM249.994 57.6475C271.467 57.6475 289.369 76.1013 293.104 100.364C283.832 84.7975 267.944 74.9744 249.994 74.9744C231.908 74.9744 215.849 85.5025 206.635 102.102C209.761 76.9844 228.01 57.6475 249.994 57.6475ZM207.259 122.003C211.977 99.0625 229.844 82.4744 249.994 82.4744C270.767 82.4744 288.34 98.1494 292.952 120.659C288.801 147.565 270.389 176.352 249.994 176.352C229.937 176.354 211.804 148.514 207.259 122.003ZM249.994 183.854C256.572 183.854 262.847 181.664 268.619 177.914V209.939C268.619 220.21 260.264 228.565 249.994 228.565C239.723 228.565 231.368 220.21 231.368 209.939V177.914C237.139 181.664 243.415 183.854 249.994 183.854ZM249.994 236.063C264.4 236.063 276.119 224.344 276.119 209.937V197.83L317.914 207.117L312.715 223.262C307.48 239.521 304.757 256.234 304.57 273.139L298.883 319.928H201.102L195.424 273.912C195.314 256.743 192.591 239.768 187.277 223.261L182.078 207.115L223.872 197.828V209.935C223.868 224.343 235.587 236.063 249.994 236.063ZM294.512 353.462H203.828L201.833 327.43H297.929L294.512 353.462ZM191.686 304.881L194.05 324.051L196.572 356.944L193.199 372.115L112.105 395.166C114.509 393.781 116.791 392.179 118.906 390.364L123.599 386.341C136.763 377.584 178.9 349.094 182.866 340.72C182.971 340.499 183.055 340.266 183.113 340.026C183.871 337.023 188.504 318.511 191.686 304.881ZM65.2825 395.494C69.1112 389.476 83.3106 387.359 87.9812 387.092L87.5631 379.604C87.055 379.632 85.6375 379.726 83.6743 379.975L76.9881 376.803C76.4931 376.463 76.3881 375.976 76.3712 375.706C76.3525 375.419 76.4031 374.875 76.9337 374.464C77.2825 374.198 77.7212 374.103 78.1487 374.204C78.22 374.221 78.2931 374.236 78.3662 374.247L98.3144 377.719C99.5725 377.941 100.851 377.504 101.714 376.566L149.806 324.383C154.24 320.172 156.781 314.262 156.781 308.142V226.369C156.781 219.359 160.441 213.068 166.33 209.952C169.007 208.536 171.653 207.94 174.516 208.12L180.132 225.559C186.844 246.404 189.239 268.03 187.249 289.836C186.953 293.091 180.211 320.761 175.951 337.759C172.906 342.769 145.011 363.096 119.254 380.222C119.129 380.307 119.007 380.399 118.891 380.498L114.023 384.67C109.154 388.844 103.257 391.714 96.97 392.972L64.3656 399.494C64.1744 397.574 64.7481 396.334 65.2825 395.494ZM95.005 446.749C86.7625 441.887 82.6525 436.553 82.7893 430.889C83.2487 412.022 106.759 404.491 106.913 404.442L197.401 378.721C198.726 378.344 199.737 377.271 200.035 375.927L203.361 360.964H295.099L300.211 376.298C300.599 377.462 301.531 378.363 302.708 378.709L354.256 393.914L337.129 394.538L309.132 393.291C305.506 393.119 302.061 394.626 299.702 397.394L290.346 408.376C289.448 409.429 288.079 409.967 286.712 409.831L182.239 399.004C181.874 398.965 181.504 398.982 181.142 399.051L128.093 409.281L129.514 416.646L140.131 414.599C137.894 421.052 136.364 429.786 136.881 436.259C137.496 443.944 139.064 449.538 140.449 453.181C137.626 453.533 134.978 453.863 132.542 454.165C119.256 455.821 105.921 453.184 95.005 446.749ZM293.483 431.961C270.016 436.645 192.966 446.588 148.154 452.217C146.956 449.534 145.034 444.092 144.359 435.661C143.564 425.729 147.391 416.371 149.029 412.883L182.02 406.521L285.942 417.289C289.793 417.692 293.562 416.172 296.059 413.237L305.414 402.256C306.246 401.277 307.516 400.731 308.802 400.782L336.951 402.034C337.051 402.038 337.152 402.038 337.255 402.034L376.384 400.609C378.083 400.574 379.527 401.826 379.664 403.529C379.778 404.961 378.919 406.292 377.573 406.769C364.782 411.295 320.92 426.486 293.483 431.961ZM192.458 460.583C192.199 460.577 191.941 460.6 191.686 460.649L127.322 473.007C124.127 473.616 120.998 471.812 120.346 468.981C119.766 466.469 121.371 463.981 124.096 463.118L133 461.671C133.156 461.652 133.313 461.633 133.469 461.614C173.112 456.689 268.206 444.659 294.953 439.321C314.616 435.396 341.74 426.872 361.499 420.244C363.346 423.359 366.392 429.936 366.392 439.502C366.392 448.536 361.855 458.706 359.854 462.756C357.145 462.842 354.361 462.878 351.486 462.848C294.492 462.368 193.471 460.6 192.458 460.583ZM419.665 429.769C419.626 434.374 417.916 443.232 406.891 450.824C397.87 457.036 384.923 460.881 368.352 462.267C370.795 456.64 373.894 447.857 373.894 439.497C373.894 429.503 371.02 422.123 368.71 417.796C373.171 416.267 377.044 414.914 380.074 413.839C384.445 412.292 387.299 408.089 387.169 403.489C395.481 406.242 402.248 409.641 408.027 413.92C415.024 419.104 419.702 425.472 419.665 429.769ZM378.904 393.363L306.707 372.066L301.634 356.845L305.922 324.167H305.918C305.92 324.156 305.924 324.145 305.926 324.132L308.267 304.87C311.382 318.344 315.886 336.539 316.621 339.501C316.681 339.743 316.765 339.977 316.872 340.204C320.963 348.839 364.077 377.191 378.014 386.196C382.099 390.97 387.147 394.819 392.764 397.517C388.532 395.959 383.948 394.581 378.904 393.363Z" fill="black"/>
<path d="M435.721 407.536C435.968 407.586 436.216 407.611 436.459 407.611C438.076 407.611 439.549 406.561 440.041 404.961C441.342 400.731 440.866 396.524 438.662 392.793C436.073 388.407 431.432 385.15 426.749 382.81L429.199 381.473C431.774 379.967 433.424 377.292 433.613 374.314C433.802 371.337 432.503 368.474 430.137 366.655C427.994 365.009 425.258 364.42 422.77 365.009L400.677 369.317L355.645 319.242C355.574 319.163 355.499 319.086 355.42 319.011C352.424 316.206 350.706 312.244 350.706 308.138V226.373C350.706 216.576 345.516 207.745 337.163 203.326C332.792 201.014 328.304 200.185 323.504 200.794L323.528 200.686L276.121 190.15V171.916C291.229 157.39 301.332 132.046 301.332 109.761C301.332 90.9175 293.755 74.1006 281.963 63.1694C282.342 61.5869 282.709 59.8506 282.709 58.0375C282.709 39.9981 268.034 25.3225 249.994 25.3225C231.955 25.3225 217.279 39.9981 217.279 58.0375C217.279 60.0044 217.692 61.6394 218.101 63.1019C206.266 74.0313 198.659 90.88 198.659 109.761C198.659 132.046 208.761 157.39 223.87 171.916V190.152L176.461 200.687L176.485 200.796C171.679 200.189 167.198 201.018 162.827 203.328C154.472 207.747 149.284 216.578 149.284 226.375V308.147C149.284 312.25 147.569 316.21 144.576 319.015C144.509 319.077 144.445 319.143 144.383 319.21L97.5887 369.985L79.75 366.88C77.1625 366.308 74.4718 366.902 72.3625 368.524C69.9981 370.343 68.6987 373.206 68.8862 376.182C69.0437 378.685 70.2381 380.978 72.145 382.54C66.9419 384.291 61.7612 387.07 58.96 391.463C57.1956 394.231 55.63 398.869 58.1837 405.256C58.7612 406.701 60.1562 407.614 61.6637 407.612C61.9075 407.612 62.155 407.588 62.4006 407.539L96.8181 400.656C88.2081 405.156 75.6887 414.466 75.2912 430.709C75.0812 439.296 80.4325 446.867 91.195 453.212C98.3087 457.407 106.313 460.174 114.679 461.41C112.958 464.104 112.279 467.397 113.035 470.669C114.392 476.554 119.967 480.625 126.107 480.625C126.976 480.625 127.855 480.544 128.734 480.376L192.715 468.092C199.673 468.212 296.194 469.889 351.424 470.348C377.916 470.543 397.967 466.081 411.145 457.008C421.242 450.055 427.081 440.153 427.167 429.839C427.253 419.631 415.956 410.466 412.491 407.901C408.156 404.691 403.356 401.944 397.909 399.571C399.7 400.174 401.521 400.701 403.384 401.074L435.721 407.536ZM333.653 209.954C339.544 213.072 343.204 219.363 343.204 226.371V308.136C343.204 314.251 345.741 320.157 350.168 324.368L396.518 375.91C397.401 376.889 398.736 377.337 400.024 377.082L424.347 372.336C424.772 372.237 425.215 372.331 425.562 372.599C426.094 373.007 426.143 373.551 426.124 373.838C426.107 374.125 425.991 374.659 425.506 374.942L417.679 379.217C414.981 378.381 412.964 377.937 412.36 377.811L410.828 385.154C415.471 386.129 428.363 390.087 432.209 396.612C432.745 397.523 433.077 398.438 433.206 399.385L404.856 393.715C396.484 392.039 388.864 387.505 383.399 380.946C383.157 380.654 382.872 380.401 382.551 380.196C355.827 362.95 326.909 342.413 323.792 337.251C319.626 320.451 313.034 293.097 312.737 289.838C310.746 268.032 313.141 246.406 319.853 225.563L325.471 208.124C328.321 207.944 330.977 208.536 333.653 209.954ZM249.994 32.8188C263.839 32.8188 275.104 44.035 275.2 57.8575C267.749 52.9581 259.152 50.1475 249.994 50.1475C240.837 50.1475 232.24 52.96 224.789 57.8594C224.882 44.035 236.149 32.8188 249.994 32.8188ZM249.994 57.6475C271.467 57.6475 289.369 76.1013 293.104 100.364C283.832 84.7975 267.944 74.9744 249.994 74.9744C231.908 74.9744 215.849 85.5025 206.635 102.102C209.761 76.9844 228.01 57.6475 249.994 57.6475ZM207.259 122.003C211.977 99.0625 229.844 82.4744 249.994 82.4744C270.767 82.4744 288.34 98.1494 292.952 120.659C288.801 147.565 270.389 176.352 249.994 176.352C229.937 176.354 211.804 148.514 207.259 122.003ZM249.994 183.854C256.572 183.854 262.847 181.664 268.619 177.914V209.939C268.619 220.21 260.264 228.565 249.994 228.565C239.723 228.565 231.368 220.21 231.368 209.939V177.914C237.139 181.664 243.415 183.854 249.994 183.854ZM249.994 236.063C264.4 236.063 276.119 224.344 276.119 209.937V197.83L317.914 207.117L312.715 223.262C307.48 239.521 304.757 256.234 304.57 273.139L298.883 319.928H201.102L195.424 273.912C195.314 256.743 192.591 239.768 187.277 223.261L182.078 207.115L223.872 197.828V209.935C223.868 224.343 235.587 236.063 249.994 236.063ZM294.512 353.462H203.828L201.833 327.43H297.929L294.512 353.462ZM191.686 304.881L194.05 324.051L196.572 356.944L193.199 372.115L112.105 395.166C114.509 393.781 116.791 392.179 118.906 390.364L123.599 386.341C136.763 377.584 178.9 349.094 182.866 340.72C182.971 340.499 183.055 340.266 183.113 340.026C183.871 337.023 188.504 318.511 191.686 304.881ZM65.2825 395.494C69.1112 389.476 83.3106 387.359 87.9812 387.092L87.5631 379.604C87.055 379.632 85.6375 379.726 83.6743 379.975L76.9881 376.803C76.4931 376.463 76.3881 375.976 76.3712 375.706C76.3525 375.419 76.4031 374.875 76.9337 374.464C77.2825 374.198 77.7212 374.103 78.1487 374.204C78.22 374.221 78.2931 374.236 78.3662 374.247L98.3144 377.719C99.5725 377.941 100.851 377.504 101.714 376.566L149.806 324.383C154.24 320.172 156.781 314.262 156.781 308.142V226.369C156.781 219.359 160.441 213.068 166.33 209.952C169.007 208.536 171.653 207.94 174.516 208.12L180.132 225.559C186.844 246.404 189.239 268.03 187.249 289.836C186.953 293.091 180.211 320.761 175.951 337.759C172.906 342.769 145.011 363.096 119.254 380.222C119.129 380.307 119.007 380.399 118.891 380.498L114.023 384.67C109.154 388.844 103.257 391.714 96.97 392.972L64.3656 399.494C64.1744 397.574 64.7481 396.334 65.2825 395.494ZM95.005 446.749C86.7625 441.887 82.6525 436.553 82.7893 430.889C83.2487 412.022 106.759 404.491 106.913 404.442L197.401 378.721C198.726 378.344 199.737 377.271 200.035 375.927L203.361 360.964H295.099L300.211 376.298C300.599 377.462 301.531 378.363 302.708 378.709L354.256 393.914L337.129 394.538L309.132 393.291C305.506 393.119 302.061 394.626 299.702 397.394L290.346 408.376C289.448 409.429 288.079 409.967 286.712 409.831L182.239 399.004C181.874 398.965 181.504 398.982 181.142 399.051L128.093 409.281L129.514 416.646L140.131 414.599C137.894 421.052 136.364 429.786 136.881 436.259C137.496 443.944 139.064 449.538 140.449 453.181C137.626 453.533 134.978 453.863 132.542 454.165C119.256 455.821 105.921 453.184 95.005 446.749ZM293.483 431.961C270.016 436.645 192.966 446.588 148.154 452.217C146.956 449.534 145.034 444.092 144.359 435.661C143.564 425.729 147.391 416.371 149.029 412.883L182.02 406.521L285.942 417.289C289.793 417.692 293.562 416.172 296.059 413.237L305.414 402.256C306.246 401.277 307.516 400.731 308.802 400.782L336.951 402.034C337.051 402.038 337.152 402.038 337.255 402.034L376.384 400.609C378.083 400.574 379.527 401.826 379.664 403.529C379.778 404.961 378.919 406.292 377.573 406.769C364.782 411.295 320.92 426.486 293.483 431.961ZM192.458 460.583C192.199 460.577 191.941 460.6 191.686 460.649L127.322 473.007C124.127 473.616 120.998 471.812 120.346 468.981C119.766 466.469 121.371 463.981 124.096 463.118L133 461.671C133.156 461.652 133.313 461.633 133.469 461.614C173.112 456.689 268.206 444.659 294.953 439.321C314.616 435.396 341.74 426.872 361.499 420.244C363.346 423.359 366.392 429.936 366.392 439.502C366.392 448.536 361.855 458.706 359.854 462.756C357.145 462.842 354.361 462.878 351.486 462.848C294.492 462.368 193.471 460.6 192.458 460.583ZM419.665 429.769C419.626 434.374 417.916 443.232 406.891 450.824C397.87 457.036 384.923 460.881 368.352 462.267C370.795 456.64 373.894 447.857 373.894 439.497C373.894 429.503 371.02 422.123 368.71 417.796C373.171 416.267 377.044 414.914 380.074 413.839C384.445 412.292 387.299 408.089 387.169 403.489C395.481 406.242 402.248 409.641 408.027 413.92C415.024 419.104 419.702 425.472 419.665 429.769ZM378.904 393.363L306.707 372.066L301.634 356.845L305.922 324.167H305.918C305.92 324.156 305.924 324.145 305.926 324.132L308.267 304.87C311.382 318.344 315.886 336.539 316.621 339.501C316.681 339.743 316.765 339.977 316.872 340.204C320.963 348.839 364.077 377.191 378.014 386.196C382.099 390.97 387.147 394.819 392.764 397.517C388.532 395.959 383.948 394.581 378.904 393.363Z" stroke="black" stroke-width="6" mask="url(#path-1-outside-1_3_1324)"/>
</svg>
