<svg width="500" height="500" viewBox="0 0 500 500" fill="none" xmlns="http://www.w3.org/2000/svg">
<g clip-path="url(#clip0_1_2)">
<rect width="500" height="500" fill="white"/>
<path d="M120.809 222.137C132.35 222.137 142.933 218.737 151.171 213.124C151.189 213.109 151.207 213.095 151.242 213.08C161.594 205.977 168.199 195.357 168.199 183.48C168.199 182.51 168.057 181.584 167.986 180.644C168.093 180.629 168.217 180.629 168.323 180.601C168.608 180.543 168.892 180.485 169.176 180.398C172.301 179.544 174.343 176.984 173.934 174.22C173.863 173.815 173.757 173.439 173.615 173.063C167.844 152.591 144.158 138.196 118.324 139.426C91.2643 140.742 69.1921 159.058 68.0739 181.122C67.5945 190.714 70.8438 199.915 77.4666 207.728C77.5199 207.8 77.5732 207.858 77.6442 207.916C79.0291 209.435 81.1598 210.231 83.326 210.231C83.8764 210.231 84.4446 210.173 84.995 210.072C85.4389 210.014 85.8651 209.898 86.309 209.84C95.1158 217.653 107.652 222.137 120.809 222.137ZM144.318 202.562C133.203 200.03 129.918 189.671 129.012 185.216L129.722 184.449L153.87 182.033C153.906 182.51 153.977 182.973 153.977 183.451C153.995 190.916 150.284 197.657 144.318 202.562ZM82.245 181.599C83.0618 165.655 99.61 151.926 119.141 150.971C119.905 150.942 120.686 150.913 121.45 150.913C137.092 150.913 151.279 158.624 157.458 170.025L125.001 173.265C123.083 173.454 121.361 174.278 120.189 175.522L112.607 183.711C106.109 190.728 97.0355 195.69 86.7196 197.918C83.5058 192.956 81.9608 187.371 82.245 181.599ZM118.094 196.081C120.508 200.942 124.326 205.832 129.955 209.391C127.025 210.086 124.006 210.563 120.828 210.563C113.939 210.563 107.298 208.798 101.812 205.63C107.831 203.214 113.3 199.973 118.094 196.081Z" fill="black"/>
<path d="M424.895 97.5556H311.35V91.3778C311.35 88.1804 308.172 85.5907 304.248 85.5907H236.17C232.246 85.5907 229.068 88.1804 229.068 91.3778V97.5556H104.191C100.267 97.5556 97.0886 100.145 97.0886 103.343C97.0886 106.54 100.267 109.13 104.191 109.13H229.068V117.709C229.068 120.906 232.246 123.496 236.17 123.496H240.432V138.86C240.432 142.058 243.61 144.647 247.534 144.647H263.088V214.888C261.437 214.208 259.715 213.644 257.85 213.297C251.689 212.125 245.315 212.978 239.935 215.698L211.615 230.05L188.905 221.514C172.996 215.539 154.601 217.348 140.896 226.245L136.013 229.413C116.18 242.29 112.878 265.93 128.662 282.106L180.421 335.158C182.161 336.952 184.026 338.63 185.961 340.222C185.997 340.25 185.997 340.279 186.032 340.294C186.068 340.323 186.121 340.337 186.157 340.366C198.621 350.595 214.85 356.99 232.711 358.494C235.428 358.725 238.127 358.841 240.808 358.841C258.652 358.841 275.768 353.821 289.726 344.417C289.744 344.417 289.744 344.403 289.761 344.403L289.779 344.388L314.442 327.707H367.405C381.876 327.707 393.666 318.115 393.666 306.31C393.666 294.504 381.894 284.912 367.405 284.912H297.624C296.327 284.912 295.049 285.202 293.948 285.751L277.275 293.984V144.665H292.83C296.754 144.665 299.932 142.075 299.932 138.878V123.514H304.246C308.17 123.514 311.349 120.924 311.349 117.727V109.147H424.881C428.805 109.147 431.983 106.558 431.983 103.36C432.001 100.148 428.805 97.5588 424.898 97.5588L424.895 97.5556ZM238.727 297.267L208.063 270.169C215.343 271.457 223.12 270.342 229.459 267.044L263.088 249.524V300.827C254.938 304.01 244.977 302.649 238.727 297.267ZM139.791 274.914C128.871 263.731 131.162 247.382 144.869 238.47L149.752 235.302C155.522 231.555 162.5 229.616 169.567 229.616C174.095 229.616 178.658 230.412 182.955 232.032L209.127 241.87C211.293 242.68 213.814 242.564 215.856 241.537L247.426 225.55C249.574 224.451 252.131 224.104 254.617 224.581C257.085 225.059 259.198 226.288 260.53 228.039C263.264 231.627 261.932 236.387 257.582 238.658L221.822 257.292C218.093 259.231 213.388 259.65 209.251 258.435L175 248.279C171.307 247.194 167.241 248.727 165.892 251.737C164.542 254.731 166.442 258.059 170.135 259.144L179.404 261.893L223.722 301.056L191.353 327.734L139.791 274.914ZM234.2 346.992C221.949 345.965 210.656 342.102 201.334 335.953L234.022 309.014C243.859 314.498 256.608 315.611 267.687 311.836L277.062 337.733C264.597 344.981 249.576 348.294 234.2 346.992ZM299.614 296.499H367.405C374.045 296.499 379.46 300.912 379.46 306.323C379.46 311.733 374.063 316.146 367.405 316.146H311.882C310.231 316.146 308.615 316.609 307.354 317.477L289.012 329.876L280.365 306.004L299.614 296.499ZM297.146 97.1659V111.923H243.273V103.401C243.273 103.373 243.291 103.358 243.291 103.329C243.291 103.3 243.273 103.286 243.273 103.257V97.1516L297.146 97.1659ZM285.729 133.089H270.281C270.246 133.089 270.21 133.074 270.175 133.074C270.139 133.074 270.104 133.089 270.068 133.089H254.621V123.511H285.711L285.729 133.089Z" fill="black"/>
</g>
<defs>
<clipPath id="clip0_1_2">
<rect width="500" height="500" fill="white"/>
</clipPath>
</defs>
</svg>
