<svg width="150" height="150" viewBox="0 0 150 150" fill="none" xmlns="http://www.w3.org/2000/svg">
<path d="M35.1641 48.2783V64.1881H114.837V20.9375L88.2795 27.7657V20.9375L61.7218 27.7657V20.9375L35.1641 27.7657V38.4192" stroke="#663366" stroke-width="4.22534" stroke-miterlimit="10" stroke-linecap="round" stroke-linejoin="round"/>
<path d="M55.1641 111.438V135.31L74.9998 145L94.8355 135.31V111.438" stroke="#663366" stroke-width="4.22534" stroke-miterlimit="10" stroke-linecap="round" stroke-linejoin="round"/>
<path d="M74.9998 121.126L55.1641 111.436L74.9998 101.746L94.8355 111.436L74.9998 121.126Z" stroke="#663366" stroke-width="4.22534" stroke-miterlimit="10" stroke-linecap="round" stroke-linejoin="round"/>
<path d="M75 120.953V144.825" stroke="#663366" stroke-width="4.22534" stroke-miterlimit="10" stroke-linecap="round" stroke-linejoin="round"/>
<path d="M145 111.438V135.311L125.164 145.001L105.33 135.311V128.95" stroke="#663366" stroke-width="4.22534" stroke-miterlimit="10" stroke-linecap="round" stroke-linejoin="round"/>
<path d="M105.33 119.091V111.438" stroke="#663366" stroke-width="4.22534" stroke-miterlimit="10" stroke-linecap="round" stroke-linejoin="round"/>
<path d="M125.166 121.126L105.33 111.436L125.166 101.746L145.001 111.436L125.166 121.126Z" stroke="#663366" stroke-width="4.22534" stroke-miterlimit="10" stroke-linecap="round" stroke-linejoin="round"/>
<path d="M125.164 120.953V144.825" stroke="#663366" stroke-width="4.22534" stroke-miterlimit="10" stroke-linecap="round" stroke-linejoin="round"/>
<path d="M44.6703 111.438V135.311L24.8366 145.001L5 135.311V128.95" stroke="#663366" stroke-width="4.22534" stroke-miterlimit="10" stroke-linecap="round" stroke-linejoin="round"/>
<path d="M5 119.091V111.438" stroke="#663366" stroke-width="4.22534" stroke-miterlimit="10" stroke-linecap="round" stroke-linejoin="round"/>
<path d="M24.8357 121.126L5 111.436L24.8357 101.746L44.6712 111.436L24.8357 121.126Z" stroke="#663366" stroke-width="4.22534" stroke-miterlimit="10" stroke-linecap="round" stroke-linejoin="round"/>
<path d="M24.8359 120.953V144.825" stroke="#663366" stroke-width="4.22534" stroke-miterlimit="10" stroke-linecap="round" stroke-linejoin="round"/>
<path d="M97.7647 64.1875V71.0168C97.7647 73.2171 95.981 75.0004 93.781 75.0004H56.22C54.0197 75.0004 52.2363 73.2168 52.2363 71.0168V64.1875" stroke="#663366" stroke-width="4.22534" stroke-miterlimit="10" stroke-linecap="round" stroke-linejoin="round"/>
<path d="M82.684 75L80.2242 90.2498C80.002 91.6287 78.8116 92.6422 77.415 92.6422H72.5868C71.1902 92.6422 70 91.6287 69.7775 90.2498L67.3184 75" stroke="#663366" stroke-width="4.22534" stroke-miterlimit="10" stroke-linecap="round" stroke-linejoin="round"/>
<path d="M145 64.1875H5" stroke="#663366" stroke-width="4.22534" stroke-miterlimit="10" stroke-linecap="round" stroke-linejoin="round"/>
<path d="M72.7207 24.9357L74.9345 5H82.9018L84.7714 21.8369" stroke="#663366" stroke-width="4.22534" stroke-miterlimit="10" stroke-linecap="round" stroke-linejoin="round"/>
<path d="M98.9531 25.0183L101.178 5H109.146L111.024 21.9138" stroke="#663366" stroke-width="4.22534" stroke-miterlimit="10" stroke-linecap="round" stroke-linejoin="round"/>
<path d="M72.0898 5H85.7484" stroke="#663366" stroke-width="4.22534" stroke-miterlimit="10" stroke-linecap="round" stroke-linejoin="round"/>
<path d="M98.334 5H111.993" stroke="#663366" stroke-width="4.22534" stroke-miterlimit="10" stroke-linecap="round" stroke-linejoin="round"/>
<path d="M56.7882 45.5275H47.6826C46.4254 45.5275 45.4062 44.5083 45.4062 43.2512V38.6982C45.4062 37.441 46.4254 36.4219 47.6826 36.4219H56.7882C58.0454 36.4219 59.0645 37.441 59.0645 38.6982V43.2512C59.0645 44.5083 58.0454 45.5275 56.7882 45.5275Z" stroke="#663366" stroke-width="4.22534" stroke-miterlimit="10" stroke-linecap="round" stroke-linejoin="round"/>
<path d="M79.5538 45.5275H70.4482C69.191 45.5275 68.1719 44.5083 68.1719 43.2512V38.6982C68.1719 37.441 69.191 36.4219 70.4482 36.4219H79.5538C80.811 36.4219 81.8302 37.441 81.8302 38.6982V43.2512C81.8302 44.5083 80.811 45.5275 79.5538 45.5275Z" stroke="#663366" stroke-width="4.22534" stroke-miterlimit="10" stroke-linecap="round" stroke-linejoin="round"/>
<path d="M102.318 45.5275H93.2119C91.9547 45.5275 90.9355 44.5083 90.9355 43.2512V38.6982C90.9355 37.441 91.9547 36.4219 93.2119 36.4219H102.317C103.575 36.4219 104.594 37.441 104.594 38.6982V43.2512C104.594 44.5083 103.575 45.5275 102.318 45.5275Z" stroke="#663366" stroke-width="4.22534" stroke-miterlimit="10" stroke-linecap="round" stroke-linejoin="round"/>
</svg>
