<svg width="150" height="150" viewBox="0 0 150 150" fill="none" xmlns="http://www.w3.org/2000/svg">
<path d="M142.785 99.9459H111.07C110.352 99.9459 109.689 100.295 109.265 100.876L99.8649 113.913H97.8003L97.8071 93.1508C97.8071 91.9271 96.809 90.9427 95.5989 90.9427L55.5571 90.9495V70.1944C55.5571 68.9706 54.5589 67.9862 53.3489 67.9862H11.0983C9.87457 67.9862 8.89014 68.9843 8.89014 70.1944L8.89698 93.1512V113.906H7.21518C6.44264 113.906 5.72481 114.31 5.32833 114.959C4.92497 115.609 4.89079 116.429 5.23946 117.113L18.5776 143.734C18.9468 144.486 19.7125 144.958 20.5533 144.958H123.253C124.107 144.958 124.88 144.466 125.249 143.7L144.781 103.132C145.116 102.448 145.061 101.641 144.658 100.998C144.254 100.349 143.557 99.9459 142.785 99.9459ZM93.3776 113.913H55.5585V95.3789H93.3776V113.913ZM13.3079 72.415H51.1271V90.9492H13.3079V72.415ZM13.3079 95.3789H51.1271V113.913H13.3079V95.3789ZM121.853 140.528H21.9152L10.7852 118.336H109.382C110.606 118.336 111.59 117.338 111.59 116.128C111.59 114.917 110.592 113.919 109.382 113.919H105.342L112.219 104.396H139.293L121.853 140.528ZM112.528 127.21H118.318C119.542 127.21 120.526 128.208 120.526 129.418C120.526 130.628 119.528 131.626 118.318 131.626H112.528C111.304 131.626 110.32 130.628 110.32 129.418C110.32 128.208 111.297 127.21 112.528 127.21ZM103.162 129.432C103.162 130.656 102.163 131.64 100.953 131.64H95.1628C93.939 131.64 92.9546 130.642 92.9546 129.432C92.9546 128.222 93.9527 127.224 95.1628 127.224H100.953C102.163 127.21 103.162 128.208 103.162 129.432ZM68.4051 129.432C68.4051 130.656 67.407 131.64 66.197 131.64H60.4064C59.1826 131.64 58.1982 130.642 58.1982 129.432C58.1982 128.222 59.1963 127.224 60.4064 127.224H66.197C67.4275 127.21 68.4051 128.208 68.4051 129.432ZM33.661 129.432C33.661 130.656 32.6629 131.64 31.4528 131.64H25.6486C24.4249 131.64 23.4404 130.642 23.4404 129.432C23.4404 128.222 24.4386 127.224 25.6486 127.224H31.4392C32.6629 127.21 33.661 128.208 33.661 129.432ZM85.7825 129.432C85.7825 130.656 84.7843 131.64 83.5743 131.64H77.7837C76.56 131.64 75.5755 130.642 75.5755 129.432C75.5755 128.222 76.5737 127.224 77.7837 127.224H83.5743C84.7844 127.21 85.7825 128.208 85.7825 129.432ZM51.0383 129.432C51.0383 130.656 50.0402 131.64 48.8301 131.64H43.0396C41.8158 131.64 40.8314 130.642 40.8314 129.432C40.8314 128.222 41.8295 127.224 43.0396 127.224H48.8301C50.0402 127.21 51.0383 128.208 51.0383 129.432ZM59.584 108.484V100.8C59.584 99.5762 60.5821 98.5918 61.7922 98.5918C63.0159 98.5918 64.0003 99.5899 64.0003 100.8V108.484C64.0003 109.708 63.0022 110.692 61.7922 110.692C60.5821 110.692 59.584 109.708 59.584 108.484ZM68.0339 108.484V100.8C68.0339 99.5762 69.0321 98.5918 70.2421 98.5918C71.4659 98.5918 72.4503 99.5899 72.4503 100.8V108.484C72.4503 109.708 71.4521 110.692 70.2421 110.692C69.0321 110.692 68.0339 109.708 68.0339 108.484ZM76.4907 108.484V100.8C76.4907 99.5762 77.4888 98.5918 78.6989 98.5918C79.9226 98.5918 80.907 99.5899 80.907 100.8V108.484C80.907 109.708 79.9089 110.692 78.6989 110.692C77.4683 110.692 76.4907 109.708 76.4907 108.484ZM84.9406 108.484V100.8C84.9406 99.5762 85.9388 98.5918 87.1488 98.5918C88.3726 98.5918 89.357 99.5899 89.357 100.8V108.484C89.357 109.708 88.3589 110.692 87.1488 110.692C85.9182 110.692 84.9406 109.708 84.9406 108.484ZM21.7564 100.786V108.471C21.7564 109.694 20.7583 110.679 19.5482 110.679C18.3245 110.679 17.3401 109.681 17.3401 108.471V100.786C17.3401 99.5626 18.3382 98.5782 19.5482 98.5782C20.7788 98.5782 21.7564 99.5763 21.7564 100.786ZM30.2132 100.786V108.471C30.2132 109.694 29.2151 110.679 28.005 110.679C26.7813 110.679 25.7968 109.681 25.7968 108.471V100.786C25.7968 99.5626 26.795 98.5782 28.005 98.5782C29.2151 98.5782 30.2132 99.5763 30.2132 100.786ZM38.6631 100.786V108.471C38.6631 109.694 37.665 110.679 36.4549 110.679C35.2449 110.679 34.2468 109.681 34.2468 108.471V100.786C34.2468 99.5626 35.2449 98.5782 36.4549 98.5782C37.6719 98.5782 38.6631 99.5763 38.6631 100.786ZM47.1199 100.786V108.471C47.1199 109.694 46.1218 110.679 44.9117 110.679C43.7017 110.679 42.7035 109.681 42.7035 108.471V100.786C42.7035 99.5626 43.7017 98.5782 44.9117 98.5782C46.1218 98.5782 47.1199 99.5763 47.1199 100.786ZM21.7566 77.8225V85.5068C21.7566 86.7305 20.7585 87.7149 19.5484 87.7149C18.3247 87.7149 17.3402 86.7168 17.3402 85.5068V77.8225C17.3402 76.5988 18.3384 75.6143 19.5484 75.6143C20.779 75.6143 21.7566 76.5988 21.7566 77.8225ZM30.2134 77.8225V85.5068C30.2134 86.7305 29.2152 87.7149 28.0052 87.7149C26.7814 87.7149 25.797 86.7168 25.797 85.5068V77.8225C25.797 76.5988 26.7951 75.6143 28.0052 75.6143C29.2153 75.6143 30.2134 76.5988 30.2134 77.8225ZM38.6633 77.8225V85.5068C38.6633 86.7305 37.6652 87.7149 36.4551 87.7149C35.2314 87.7149 34.2469 86.7168 34.2469 85.5068V77.8225C34.2469 76.5988 35.2451 75.6143 36.4551 75.6143C37.672 75.6143 38.6633 76.5988 38.6633 77.8225ZM47.1201 77.8225V85.5068C47.1201 86.7305 46.1219 87.7149 44.9119 87.7149C43.7018 87.7149 42.7037 86.7168 42.7037 85.5068V77.8225C42.7037 76.5988 43.7018 75.6143 44.9119 75.6143C46.1219 75.6143 47.1201 76.5988 47.1201 77.8225ZM67.1786 81.5348H109.429C110.653 81.5348 111.637 80.5366 111.637 79.3266L111.631 56.3628C111.631 55.139 110.632 54.1546 109.422 54.1546H107.303L96.7475 47.4137C96.9937 46.607 97.1167 45.7524 97.1167 44.8774C97.1167 40.7823 94.3 37.3162 90.499 36.3385V19.7804H93.4729C94.6966 19.7804 95.6811 18.7823 95.6811 17.5723V14.5984H142.757C143.981 14.5984 144.965 13.6003 144.965 12.3902C144.965 11.1665 143.967 10.182 142.757 10.182H95.6811V7.20817C95.6811 5.98443 94.6829 5 93.4729 5H83.095C81.8712 5 80.8868 5.99813 80.8868 7.20817V17.5861C80.8868 18.8098 81.8849 19.7943 83.095 19.7943H86.0688V38.2742C86.0688 39.4979 87.067 40.4824 88.277 40.4824C90.6903 40.4824 92.6524 42.424 92.6729 44.8373L89.4734 42.7863C88.7351 42.3145 87.8122 42.3145 87.0943 42.7863L83.8948 44.8373C83.8743 43.6272 82.8967 42.6701 81.6866 42.6701C80.4629 42.6701 79.4785 43.6682 79.4785 44.8782C79.4785 45.7533 79.6152 46.6079 79.8476 47.4146L69.2921 54.1555H67.1728C65.9491 54.1555 64.9646 55.1536 64.9646 56.3636L64.9715 79.3275C64.9715 80.5376 65.9686 81.5348 67.1786 81.5348ZM85.3225 9.37574H91.2703V15.3235H85.3225V9.37574ZM107.221 77.1051H69.4013V58.5709H107.221V77.1051ZM88.303 47.2492L90.5112 48.6643C89.8618 49.0472 89.1097 49.2591 88.303 49.2591C87.4963 49.2591 86.7443 49.0335 86.0949 48.6643L88.303 47.2492ZM82.157 51.187C83.7499 52.7253 85.917 53.6892 88.303 53.6892C90.7027 53.6892 92.8699 52.7253 94.4491 51.187L99.0842 54.1472L77.5222 54.1404L82.157 51.187ZM73.4267 71.6761V63.9919C73.4267 62.7681 74.4248 61.7837 75.6349 61.7837C76.8586 61.7837 77.843 62.7818 77.843 63.9919V71.6761C77.843 72.8999 76.8449 73.8843 75.6349 73.8843C74.4043 73.898 73.4267 72.8998 73.4267 71.6761ZM81.8766 71.6761V63.9919C81.8766 62.7681 82.8748 61.7837 84.0848 61.7837C85.3086 61.7837 86.293 62.7818 86.293 63.9919V71.6761C86.293 72.8999 85.2949 73.8843 84.0848 73.8843C82.8542 73.898 81.8766 72.8998 81.8766 71.6761ZM90.3129 71.6761V63.9919C90.3129 62.7681 91.3111 61.7837 92.5211 61.7837C93.7448 61.7837 94.7293 62.7818 94.7293 63.9919V71.6761C94.7293 72.8999 93.7311 73.8843 92.5211 73.8843C91.311 73.898 90.3129 72.8998 90.3129 71.6761ZM98.7629 71.6761V63.9919C98.7629 62.7681 99.761 61.7837 100.971 61.7837C102.195 61.7837 103.179 62.7818 103.179 63.9919V71.6761C103.179 72.8999 102.181 73.8843 100.971 73.8843C99.761 73.898 98.7629 72.8998 98.7629 71.6761Z" fill="#663366"/>
</svg>
