<svg width="150" height="150" viewBox="0 0 150 150" fill="none" xmlns="http://www.w3.org/2000/svg">
<path d="M78.2492 39.9781C77.0663 40.0061 76.063 39.1036 75.9564 37.9207C75.8498 36.7379 76.6795 35.6785 77.8511 35.4935L122.853 27.3203C125.376 26.5019 131.52 23.643 131.598 19.5845H131.593C131.654 18.8726 131.385 18.1831 130.864 17.701C129.227 16.193 125.18 16.0529 123.476 16.2211H123.47C123.044 16.266 122.612 16.1819 122.231 15.9857L119.58 14.6459V14.6515C116.082 12.8857 112.073 12.4092 108.262 13.3005H108.217L36.2612 28.9571C35.056 29.1925 33.8787 28.419 33.621 27.2194C33.3575 26.0142 34.1087 24.8257 35.3083 24.5398L107.224 8.90048C112.073 7.76813 117.168 8.37354 121.613 10.6214L123.71 11.6697C125.649 11.5688 130.896 11.58 133.923 14.3716C135.392 15.7282 136.188 17.6566 136.109 19.6522C135.964 27.8927 124.55 31.5139 124.057 31.6653C123.968 31.6933 123.878 31.7158 123.788 31.727L78.651 39.9394C78.5221 39.9675 78.3876 39.9787 78.2474 39.9787L78.2492 39.9781Z" fill="#663366"/>
<path d="M51.083 43.7413C50.5672 43.7413 50.0403 43.7413 49.5133 43.7245H49.3339L21.1263 40.9217H21.1319C20.1677 40.8264 19.366 40.1256 19.1531 39.1783L17.2416 30.7978C16.9669 29.5814 17.7293 28.3706 18.9401 28.0959L24.187 26.8963H24.1926C25.3922 26.6552 26.5694 27.412 26.8442 28.606C27.1189 29.8 26.3845 30.9941 25.1961 31.2968L22.1466 31.9975L23.1893 36.5717L49.682 39.212C51.8851 39.2624 54.0881 39.1952 56.28 39.0158C56.8967 38.9205 57.5301 39.083 58.0233 39.4698C58.5167 39.851 58.8306 40.4284 58.881 41.0507C58.9371 41.6786 58.7241 42.2952 58.3036 42.7605C57.8832 43.2257 57.289 43.4892 56.6668 43.5004C54.8842 43.663 53.0057 43.7413 51.083 43.7413Z" fill="#663366"/>
<path d="M19.4558 32.5355C18.4916 32.5355 17.6339 31.9189 17.3256 31.0052L11.3611 13.4988C11.1425 12.8766 11.2154 12.1927 11.5461 11.6265C11.8825 11.0547 12.443 10.6623 13.0933 10.5446L21.8101 8.9637C22.595 8.81795 23.391 9.09823 23.9122 9.70366L37.478 25.2196C38.3021 26.1557 38.2068 27.5852 37.2706 28.4093C36.3289 29.2334 34.8995 29.1381 34.0753 28.2019L21.3559 13.6389L16.479 14.5246L21.597 29.5483C22.0006 30.7311 21.3728 32.0091 20.1956 32.4184C19.9601 32.4969 19.7079 32.5361 19.4612 32.5361L19.4558 32.5355Z" fill="#663366"/>
<path d="M45.4768 56.2889C44.5911 56.2945 43.7894 55.7788 43.4251 54.9716C43.0551 54.17 43.1896 53.2283 43.7726 52.5555L64.2338 28.8324V28.838C65.0466 27.8907 66.4705 27.7898 67.4179 28.6026C68.3597 29.4154 68.4606 30.8449 67.6478 31.7867L50.9537 51.1271L58.8521 50.2246L88.3944 26.523C89.3642 25.7438 90.7881 25.9008 91.5672 26.8706C92.3463 27.8404 92.1894 29.2643 91.2196 30.0434L61.1722 54.1597C60.8415 54.4287 60.4378 54.5969 60.0174 54.6418L45.7229 56.2786C45.6388 56.2898 45.5603 56.2954 45.4762 56.2954L45.4768 56.2889Z" fill="#663366"/>
<path d="M68.1365 95.4389H38.6617C37.4172 95.4389 36.4082 94.4299 36.4082 93.1854V66.6927C36.4082 65.4426 37.4172 64.4336 38.6617 64.4336H68.1365C69.3754 64.4448 70.3788 65.4538 70.3788 66.6927V93.1854C70.3788 94.4243 69.3754 95.4277 68.1365 95.4389ZM40.9205 90.9207H65.8662V68.947H40.9205V90.9207Z" fill="#663366"/>
<path d="M57.2491 76.7273H49.5524C48.3135 76.7161 47.3101 75.707 47.3101 74.4626V66.693C47.2877 66.082 47.5175 65.4878 47.9435 65.045C48.3696 64.6021 48.9526 64.3555 49.5692 64.3555C50.1802 64.3555 50.7688 64.6021 51.1948 65.045C51.6209 65.4878 51.8451 66.082 51.8227 66.693V72.2091H54.9955V66.693C54.9786 66.082 55.2029 65.4878 55.6289 65.045C56.055 64.6021 56.6435 64.3555 57.2546 64.3555C57.8712 64.3555 58.4542 64.6021 58.8802 65.045C59.3062 65.4878 59.5361 66.082 59.5136 66.693V74.4626C59.5136 75.068 59.2726 75.6398 58.8522 76.0659C58.4261 76.4863 57.8489 76.7273 57.2491 76.7273Z" fill="#663366"/>
<path d="M111.154 95.4389H81.6793C80.4348 95.4389 79.4258 94.4299 79.4258 93.1854V66.6927C79.4258 65.4426 80.4348 64.4336 81.6793 64.4336H111.154C111.754 64.4336 112.326 64.669 112.752 65.0951C113.178 65.5211 113.413 66.0929 113.413 66.6927V93.1855C113.413 94.4299 112.399 95.4389 111.154 95.4389ZM83.9438 90.9207H108.89V68.947H83.9438V90.9207Z" fill="#663366"/>
<path d="M100.262 76.7273H92.5653C91.3152 76.7273 90.3062 75.7126 90.3062 74.4626V66.693C90.2838 66.082 90.5136 65.4878 90.9396 65.045C91.3657 64.6021 91.9487 64.3555 92.5653 64.3555C93.1763 64.3555 93.7649 64.6021 94.1909 65.045C94.617 65.4878 94.8412 66.082 94.8188 66.693V72.2091H98.0029V66.693C98.0029 65.4429 99.0119 64.4339 100.262 64.4339C101.512 64.4339 102.521 65.4429 102.521 66.693V74.4626C102.521 75.0624 102.286 75.6398 101.86 76.0603C101.434 76.4863 100.862 76.7273 100.262 76.7273Z" fill="#663366"/>
<path d="M45.4333 121.929H15.9642C15.3644 121.929 14.7926 121.688 14.3666 121.262C13.9461 120.841 13.7051 120.264 13.7051 119.664V93.1771L13.7107 93.1827C13.7051 92.5829 13.9461 92.0055 14.3666 91.585C14.7926 91.159 15.3644 90.918 15.9642 90.918H45.4333C46.0331 90.918 46.6105 91.159 47.0309 91.585C47.457 92.0055 47.698 92.5829 47.698 93.1827V119.67V119.664C47.698 120.264 47.457 120.841 47.0309 121.262C46.6105 121.688 46.0331 121.929 45.4333 121.929ZM18.223 117.411H43.1688V95.4369H18.223V117.411Z" fill="#663366"/>
<path d="M34.5462 103.212H26.8551C25.6106 103.206 24.6128 102.197 24.6128 100.953V93.183C24.5904 92.5663 24.8202 91.9721 25.2463 91.5293C25.6723 91.0921 26.2553 90.8398 26.8719 90.8398C27.4829 90.8398 28.0716 91.0921 28.4976 91.5293C28.9236 91.9722 29.1478 92.5664 29.131 93.183V98.6991H32.3038V93.183C32.2814 92.5663 32.5056 91.9721 32.9316 91.5293C33.3577 91.0921 33.9463 90.8398 34.5573 90.8398C35.1739 90.8398 35.7569 91.0921 36.1829 91.5293C36.609 91.9722 36.8388 92.5664 36.8164 93.183V100.953C36.8164 101.552 36.5753 102.13 36.1493 102.556C35.7233 102.976 35.146 103.217 34.5462 103.212Z" fill="#663366"/>
<path d="M74.9085 121.929H45.4337C44.1948 121.918 43.1914 120.908 43.1914 119.664V93.177V93.1826C43.1914 91.9382 44.1948 90.9292 45.4337 90.918H74.9085C75.5083 90.918 76.0801 91.159 76.5062 91.585C76.9322 92.0055 77.1676 92.5829 77.1676 93.1827V119.67V119.664C77.1676 120.264 76.9322 120.841 76.5062 121.262C76.0801 121.688 75.5084 121.929 74.9085 121.929ZM47.6982 117.411H72.644V95.4368H47.6982V117.411Z" fill="#663366"/>
<path d="M64.0145 103.212H56.329C55.7292 103.212 55.1518 102.976 54.7313 102.55C54.3053 102.124 54.0699 101.552 54.0699 100.953V93.183C54.0474 92.5663 54.2773 91.9721 54.7033 91.5293C55.1294 91.0921 55.7123 90.8398 56.329 90.8398C56.94 90.8398 57.5286 91.0921 57.9546 91.5293C58.3806 91.9722 58.6049 92.5664 58.5824 93.183V98.6991H61.7552V93.183C61.7384 92.5663 61.9626 91.9721 62.3887 91.5293C62.8147 91.0921 63.4033 90.8398 64.0143 90.8398C64.631 90.8398 65.2139 91.0921 65.64 91.5293C66.066 91.9722 66.2958 92.5664 66.2734 93.183V100.953C66.2734 101.552 66.038 102.124 65.6119 102.55C65.1859 102.976 64.6143 103.212 64.0145 103.212Z" fill="#663366"/>
<path d="M104.383 121.929H74.9079C74.3081 121.929 73.7363 121.688 73.3103 121.262C72.8898 120.841 72.6488 120.264 72.6544 119.664V93.1771V93.1827C72.6488 92.5829 72.8898 92.0055 73.3103 91.585C73.7363 91.159 74.3081 90.918 74.9079 90.918H104.383C104.977 90.918 105.554 91.159 105.975 91.585C106.401 92.0055 106.636 92.5829 106.636 93.1827V119.67V119.664C106.636 120.264 106.401 120.841 105.975 121.262C105.554 121.688 104.977 121.929 104.383 121.929ZM77.1725 117.411H102.118V95.4369H77.1725V117.411Z" fill="#663366"/>
<path d="M93.4921 103.212H85.801C85.2012 103.212 84.6294 102.976 84.2034 102.55C83.7829 102.124 83.5419 101.552 83.5419 100.953V93.183C83.5251 92.5663 83.7493 91.9721 84.1753 91.5293C84.6014 91.0921 85.19 90.8398 85.801 90.8398C86.4176 90.8398 87.0006 91.0921 87.4266 91.5293C87.8527 91.9722 88.0825 92.5664 88.0601 93.183V98.6991H91.2329V93.183C91.2104 92.5663 91.4403 91.9721 91.8663 91.5293C92.2924 91.0921 92.8753 90.8398 93.492 90.8398C94.103 90.8398 94.6916 91.0921 95.1176 91.5293C95.5436 91.9722 95.7679 92.5664 95.7511 93.183V100.953C95.7511 101.552 95.51 102.124 95.084 102.55C94.6635 102.976 94.0862 103.212 93.4863 103.212H93.4921Z" fill="#663366"/>
<path d="M133.852 121.929H104.383C103.138 121.918 102.135 120.908 102.141 119.664V93.177V93.1826C102.135 91.9382 103.138 90.9292 104.383 90.918H133.852C134.452 90.918 135.024 91.159 135.45 91.585C135.876 92.0055 136.111 92.5829 136.111 93.1827V119.67V119.664C136.111 120.264 135.876 120.841 135.45 121.262C135.024 121.688 134.452 121.929 133.852 121.929ZM106.642 117.411H131.587V95.4368H106.642V117.411Z" fill="#663366"/>
<path d="M122.96 103.212H115.269C114.669 103.212 114.097 102.976 113.671 102.55C113.251 102.124 113.01 101.552 113.015 100.953V93.183C112.993 92.5663 113.217 91.9721 113.643 91.5293C114.069 91.0921 114.658 90.8398 115.269 90.8398C115.885 90.8398 116.468 91.0921 116.894 91.5293C117.32 91.9722 117.55 92.5664 117.528 93.183V98.6991H120.701V93.183C120.678 92.5663 120.908 91.9721 121.334 91.5293C121.76 91.0921 122.343 90.8398 122.96 90.8398C123.571 90.8398 124.159 91.0921 124.585 91.5293C125.011 91.9722 125.236 92.5664 125.213 93.183V100.953C125.219 102.197 124.204 103.212 122.96 103.212Z" fill="#663366"/>
<path d="M106.334 131.25H52.3278C51.7167 131.272 51.1225 131.042 50.6797 130.616C50.2369 130.19 49.9902 129.607 49.9902 128.99C49.9902 128.379 50.2369 127.791 50.6797 127.365C51.1226 126.939 51.7168 126.715 52.3278 126.731H106.334C107.55 126.776 108.514 127.774 108.514 128.99C108.514 130.207 107.55 131.205 106.334 131.25Z" fill="#663366"/>
<path d="M140.574 131.249H126.638C126.027 131.271 125.433 131.042 124.99 130.616C124.547 130.19 124.301 129.607 124.301 128.99C124.301 128.379 124.547 127.79 124.99 127.364C125.433 126.938 126.027 126.714 126.638 126.731H138.315V121.932H11.5026V126.731H32.2264C32.8374 126.714 33.4317 126.938 33.8745 127.364C34.3173 127.79 34.564 128.379 34.564 128.99C34.564 129.607 34.3173 130.19 33.8745 130.616C33.4316 131.042 32.8374 131.271 32.2264 131.249H9.24242C8.6426 131.249 8.07081 131.014 7.65035 130.588C7.22992 130.161 6.99449 129.59 7.0001 128.995V119.679C7.0001 118.434 7.99791 117.425 9.24239 117.414H140.574C141.174 117.414 141.745 117.655 142.171 118.081C142.592 118.502 142.833 119.079 142.827 119.679V128.996C142.833 129.59 142.598 130.167 142.171 130.593C141.751 131.014 141.174 131.255 140.574 131.249Z" fill="#663366"/>
<path d="M111.962 145.002C107.809 145.002 104.058 142.502 102.466 138.656C100.874 134.816 101.749 130.393 104.692 127.456C107.629 124.513 112.052 123.627 115.892 125.219C119.738 126.806 122.243 130.55 122.249 134.71C122.249 140.388 117.647 144.996 111.962 145.002ZM111.962 128.952C109.63 128.952 107.528 130.359 106.631 132.512C105.74 134.67 106.233 137.153 107.887 138.801C109.541 140.449 112.024 140.943 114.177 140.046C116.335 139.149 117.736 137.041 117.731 134.709C117.72 131.531 115.146 128.958 111.962 128.952Z" fill="#663366"/>
<path d="M37.8554 145.002C33.696 145.002 29.9458 142.502 28.3537 138.656C26.7616 134.816 27.6418 130.393 30.5792 127.456C33.5166 124.513 37.9395 123.627 41.7851 125.219C45.625 126.806 48.1364 130.55 48.142 134.71H48.1364C48.142 140.388 43.5341 144.996 37.8554 145.002ZM37.8554 128.952C35.5234 128.952 33.4156 130.359 32.5244 132.517C31.6331 134.67 32.1264 137.153 33.7801 138.801C35.4338 140.449 37.9171 140.943 40.0697 140.046C42.2279 139.149 43.6294 137.041 43.6238 134.709C43.6126 131.531 41.0338 128.958 37.8554 128.952Z" fill="#663366"/>
<path d="M93.4848 51.4188C92.302 51.4356 91.3042 50.5499 91.192 49.3727C91.0799 48.1955 91.8927 47.1304 93.0531 46.9342L119.557 41.7657C120.779 41.5246 121.968 42.3206 122.203 43.5483C122.444 44.7704 121.643 45.9532 120.421 46.1943L93.9164 51.3628H93.922C93.7763 51.3965 93.6305 51.4132 93.4848 51.4188Z" fill="#663366"/>
<path d="M78.3556 54.3668C77.1728 54.3892 76.1694 53.4979 76.0572 52.3263C75.9451 51.1491 76.7579 50.084 77.9239 49.8822L84.3929 48.6209H84.3873C85.6094 48.3799 86.7978 49.1815 87.0333 50.4036C87.2743 51.6312 86.4727 52.8141 85.2507 53.0551L78.7873 54.3164V54.3108C78.6471 54.3445 78.5014 54.3613 78.35 54.3669L78.3556 54.3668Z" fill="#663366"/>
<path d="M58.1464 12.5052C56.9972 12.4996 56.033 11.6307 55.9097 10.4928C55.7864 9.34926 56.5376 8.29546 57.653 8.04318L71.0395 5.06657C71.6281 4.92082 72.2559 5.01611 72.7716 5.33564C73.2929 5.65517 73.6573 6.17089 73.7918 6.7651C73.9264 7.36491 73.8087 7.98714 73.4779 8.49722C73.1416 9.00734 72.6202 9.3605 72.0205 9.47822L58.6508 12.4548C58.4826 12.4885 58.3146 12.5052 58.1464 12.5052Z" fill="#663366"/>
<path d="M45.8155 15.2503C44.6663 15.2503 43.7021 14.3815 43.5788 13.2435C43.4499 12.1 44.2011 11.0462 45.3221 10.7883L48.394 10.1044H48.3884C48.9826 9.95865 49.6105 10.0596 50.1262 10.3791C50.6418 10.6986 51.0119 11.2143 51.1408 11.8085C51.2753 12.4027 51.1632 13.025 50.8269 13.5351C50.4961 14.0452 49.9692 14.3983 49.3694 14.5161L46.2975 15.2L46.3031 15.1943C46.1406 15.2336 45.9781 15.2503 45.8155 15.2503Z" fill="#663366"/>
</svg>
