<svg width="150" height="150" viewBox="0 0 150 150" fill="none" xmlns="http://www.w3.org/2000/svg">
<path d="M104.85 99.374V50.4896C104.845 47.5273 102.444 45.1211 99.476 45.1211H50.5254C47.5575 45.1211 45.1569 47.5273 45.1514 50.4896V99.374C45.1569 102.336 47.5575 104.743 50.5254 104.743H99.476C102.444 104.743 104.845 102.336 104.85 99.374ZM101.403 99.374C101.398 100.437 100.539 101.296 99.476 101.296H50.5254C49.4627 101.296 48.6037 100.437 48.5982 99.374V50.4896C48.6037 49.4269 49.4627 48.5679 50.5254 48.5679H99.476C100.539 48.5679 101.398 49.4269 101.403 50.4896V99.374Z" fill="#663366"/>
<path d="M70.639 64.2945C70.639 61.525 68.9706 59.0306 66.4157 57.9734C63.8609 56.9162 60.9206 57.4998 58.9658 59.4546C57.0111 61.4147 56.4219 64.3551 57.4846 66.91C58.5418 69.4649 61.036 71.1332 63.8002 71.1332C67.5775 71.1277 70.6335 68.0663 70.639 64.2945ZM60.4085 64.2945C60.4085 62.918 61.2344 61.6845 62.5009 61.1559C63.7728 60.6329 65.232 60.9247 66.201 61.8938C67.1701 62.8629 67.462 64.3221 66.9334 65.5884C66.4103 66.8549 65.1714 67.6863 63.8003 67.6863C61.9282 67.6808 60.414 66.1666 60.4085 64.2945Z" fill="#663366"/>
<path d="M86.1996 57.457C83.4355 57.457 80.9411 59.1199 79.8785 61.6748C78.8213 64.2297 79.4049 67.1754 81.3651 69.1302C83.3198 71.0849 86.2602 71.6686 88.8151 70.6114C91.3699 69.5542 93.0383 67.06 93.0383 64.2958C93.0328 60.5185 89.9713 57.457 86.1996 57.457ZM86.1996 67.6875C84.8285 67.6875 83.5896 66.8561 83.0665 65.5896C82.5379 64.3232 82.8297 62.8641 83.7988 61.895C84.7679 60.9259 86.2271 60.6341 87.499 61.1571C88.7654 61.6857 89.5914 62.9191 89.5914 64.2957C89.5859 66.1678 88.0717 67.682 86.1996 67.6875Z" fill="#663366"/>
<path d="M85.1588 79.9844H64.841C62.5834 79.9899 60.7555 81.818 60.75 84.0754V88.3152C60.7555 90.5727 62.5836 92.4007 64.841 92.4007H85.1588C87.4164 92.4007 89.2443 90.5726 89.2498 88.3152V84.0754C89.2443 81.8178 87.4162 79.9899 85.1588 79.9844ZM73.2764 88.954H64.8409C64.4885 88.954 64.1967 88.6677 64.1967 88.3153V84.0755C64.1967 83.7176 64.4885 83.4313 64.8409 83.4313H73.2764V88.954ZM85.8029 88.3098V88.3153C85.8029 88.6677 85.5111 88.954 85.1587 88.954H76.7232V83.4312H85.1587C85.5111 83.4312 85.8029 83.7175 85.8029 84.0754V88.3098Z" fill="#663366"/>
<path d="M28.3678 103.018V52.207H24.9209V103.018C24.9264 108.838 27.2445 114.416 31.3576 118.535C35.4708 122.648 41.054 124.961 46.8743 124.972H97.7955V121.525H46.8743C36.6603 121.514 28.379 113.232 28.3678 103.018Z" fill="#663366"/>
<path d="M121.621 46.844V97.6553H125.068V46.844C125.062 41.024 122.75 35.4463 118.636 31.3273C114.518 27.2142 108.94 24.9016 103.12 24.8906H52.2041V28.3375H103.12C113.334 28.3485 121.609 36.6299 121.621 46.844Z" fill="#663366"/>
<path d="M28.3407 48.229V41.7978H32.8502V48.229H36.2971L36.2916 41.7978H40.0743C41.0269 41.7978 41.7978 41.0269 41.7978 40.0743V36.2916H48.229V32.8447H41.7978V28.3352H48.229V24.8883H41.7978V20.3843H48.229V16.9374H41.7978V13.1547C41.7978 12.6976 41.6161 12.2572 41.2967 11.9378C40.9719 11.6129 40.5314 11.4312 40.0744 11.4312H36.2916V5H32.8448V11.4312H28.3407V5H24.8939V11.4312H20.3843V5H16.9375V11.4312H13.1547C12.2022 11.4312 11.4312 12.2021 11.4312 13.1547V16.9375H5V20.3843H11.4312V24.8884H5V28.3352H11.4312V32.8448H5V36.2916H11.4312V40.0744C11.4312 41.0269 12.2021 41.7979 13.1547 41.7979H16.9375V48.2291H20.3843V41.7979H24.8939V48.2291L28.3407 48.229ZM14.878 38.351V14.8786H38.3504V38.351H14.878Z" fill="#663366"/>
<path d="M31.5618 19.9492H21.6727C20.7201 19.9492 19.9492 20.7201 19.9492 21.6672V31.5563C19.9492 32.5089 20.7201 33.2798 21.6727 33.2798H31.5618C32.0188 33.2798 32.4538 33.0981 32.7787 32.7732C33.1035 32.4539 33.2852 32.0134 33.2852 31.5563V21.6673C33.2852 20.7202 32.5144 19.9492 31.5618 19.9492ZM29.8383 29.8383L23.3961 29.8328V23.3906H29.8383V29.8383Z" fill="#663366"/>
<path d="M123.382 116.266C120.557 116.266 118.013 117.961 116.928 120.571C115.849 123.181 116.449 126.188 118.443 128.181C120.441 130.18 123.442 130.774 126.052 129.695C128.662 128.616 130.364 126.067 130.364 123.247C130.358 119.393 127.236 116.266 123.382 116.266ZM123.382 126.782C121.95 126.782 120.662 125.918 120.117 124.596C119.566 123.275 119.869 121.755 120.882 120.748C121.895 119.734 123.415 119.432 124.736 119.977C126.058 120.527 126.917 121.816 126.917 123.247C126.917 125.196 125.336 126.777 123.382 126.782Z" fill="#663366"/>
<path d="M145 124.969V121.523H138.437C138.118 118.703 137.011 116.039 135.243 113.825L139.885 109.183L137.446 106.744L132.804 111.386C130.591 109.618 127.926 108.511 125.107 108.187V101.629H121.66V108.187C118.846 108.512 116.176 109.618 113.962 111.386L109.32 106.744L106.881 109.183L111.523 113.825H111.528C109.761 116.039 108.649 118.703 108.329 121.523H101.771V124.969H108.329C108.649 127.783 109.755 130.454 111.528 132.667L106.887 137.309L109.326 139.748L113.968 135.106L113.962 135.101C116.176 136.868 118.846 137.975 121.66 138.3V144.858H125.107V138.3C127.926 137.981 130.591 136.868 132.804 135.101L137.446 139.743L139.885 137.303L135.243 132.662V132.667C137.011 130.454 138.118 127.783 138.437 124.969H145ZM123.389 134.952C118.648 134.952 114.38 132.1 112.563 127.728C110.752 123.351 111.754 118.312 115.102 114.965C118.455 111.617 123.488 110.615 127.865 112.426C132.243 114.238 135.095 118.511 135.095 123.246C135.084 129.71 129.847 134.947 123.389 134.952Z" fill="#663366"/>
</svg>
