<svg width="150" height="150" viewBox="0 0 150 150" fill="none" xmlns="http://www.w3.org/2000/svg">
<path d="M74.4219 52.7383C71.8433 52.7383 69.3227 53.5031 67.1789 54.936C65.0351 56.3689 63.3645 58.4054 62.3784 60.788C61.3923 63.1705 61.1351 65.7921 61.6392 68.3208C62.1434 70.8496 63.3863 73.1721 65.2106 74.9944C67.035 76.8166 69.3589 78.0568 71.8883 78.558C74.4176 79.0593 77.0388 78.799 79.4203 77.8102C81.8017 76.8214 83.8363 75.1484 85.2667 73.003C86.6971 70.8575 87.4591 68.336 87.4561 65.7575C87.4521 62.3032 86.0771 58.9917 83.6332 56.5506C81.1892 54.1095 77.8762 52.7383 74.4219 52.7383ZM74.4219 75.7884C72.438 75.7884 70.4986 75.2001 68.849 74.0979C67.1994 72.9957 65.9137 71.429 65.1545 69.5961C64.3953 67.7632 64.1967 65.7463 64.5837 63.8005C64.9707 61.8547 65.9261 60.0674 67.329 58.6645C68.7318 57.2617 70.5191 56.3063 72.465 55.9193C74.4108 55.5322 76.4276 55.7309 78.2606 56.4901C80.0935 57.2493 81.6601 58.535 82.7623 60.1846C83.8645 61.8342 84.4528 63.7735 84.4528 65.7575C84.4488 68.4166 83.3907 70.9657 81.5104 72.846C79.6301 74.7263 77.081 75.7844 74.4219 75.7884Z" fill="#663366"/>
<path d="M144.892 73.4746L137.564 54.0584C137.457 53.771 137.264 53.5234 137.012 53.3489C136.759 53.1744 136.46 53.0814 136.153 53.0824H126.452C126.145 53.0814 125.846 53.1744 125.593 53.3489C125.341 53.5234 125.148 53.771 125.041 54.0584L118.073 72.5736H94.7678V36.5344C94.7611 36.3707 94.7307 36.2088 94.6777 36.0538L83.3403 6.02112C83.2404 5.72529 83.0508 5.46796 82.7978 5.28494C82.5448 5.10192 82.241 5.00233 81.9288 5.00001H66.9124C66.6056 4.99901 66.3059 5.09202 66.0535 5.26653C65.8011 5.44104 65.6083 5.68866 65.5009 5.97607L54.1635 36.0088C54.1105 36.1638 54.0801 36.3256 54.0734 36.4893V72.5736H31.9093L24.9417 54.0584C24.8343 53.771 24.6415 53.5234 24.3891 53.3489C24.1368 53.1744 23.837 53.0814 23.5302 53.0824H13.8296C13.5228 53.0814 13.223 53.1744 12.9707 53.3489C12.7183 53.5234 12.5255 53.771 12.4181 54.0584L5.0901 73.4746C5.0301 73.6277 4.99953 73.7907 5.00001 73.9551V142.805C5.00001 143.203 5.15821 143.585 5.43982 143.867C5.72144 144.149 6.10338 144.307 6.50164 144.307H143.496C143.894 144.307 144.276 144.149 144.558 143.867C144.839 143.585 144.997 143.203 144.997 142.805V74.0752C145.01 73.8695 144.974 73.6637 144.892 73.4746ZM14.8657 56.0556H22.4941L28.6958 72.5736H25.0769L19.9863 63.5638C19.8565 63.3291 19.6661 63.1334 19.435 62.9972C19.204 62.861 18.9406 62.7891 18.6724 62.7891C18.4042 62.7891 18.1408 62.861 17.9097 62.9972C17.6787 63.1334 17.4883 63.3291 17.3585 63.5638L12.2829 72.5736H8.664L14.8657 56.0556ZM23.0196 141.273H14.3552V127.759C14.3552 126.608 14.8124 125.504 15.6263 124.69C16.4401 123.876 17.544 123.419 18.6949 123.419C19.8459 123.419 20.9497 123.876 21.7636 124.69C22.5774 125.504 23.0346 126.608 23.0346 127.759L23.0196 141.273ZM29.3715 89.452V141.303H26.0229V127.789C26.0229 125.841 25.2493 123.974 23.8722 122.596C22.4951 121.219 20.6274 120.446 18.6799 120.446C16.7324 120.446 14.8647 121.219 13.4876 122.596C12.1105 123.974 11.3369 125.841 11.3369 127.789V141.303H7.98826V75.5769H13.1539C13.4185 75.5779 13.6787 75.509 13.9081 75.3772C14.1375 75.2453 14.328 75.0552 14.4603 74.826L18.6799 67.3179L22.8995 74.826C23.0318 75.0552 23.2223 75.2453 23.4517 75.3772C23.6811 75.509 23.9413 75.5779 24.2059 75.5769H29.3715V89.452ZM47.5564 141.303H38.8769V127.789C38.8769 126.638 39.3341 125.534 40.148 124.72C40.9618 123.906 42.0657 123.449 43.2166 123.449C44.3676 123.449 45.4714 123.906 46.2853 124.72C47.0991 125.534 47.5564 126.638 47.5564 127.789V141.303ZM54.0734 141.303H50.5596V127.789C50.5596 125.841 49.786 123.974 48.4089 122.596C47.0318 121.219 45.1641 120.446 43.2166 120.446C41.2691 120.446 39.4014 121.219 38.0243 122.596C36.6473 123.974 35.8736 125.841 35.8736 127.789V141.303H32.3748V90.9536H54.0734V141.303ZM54.0734 87.9503H32.3748V75.5769H54.0734V87.9503ZM67.9486 8.00328H80.8927L91.1038 35.0327H79.9316L75.9222 17.4486C75.8409 17.1239 75.6533 16.8357 75.3894 16.6298C75.1255 16.4238 74.8004 16.312 74.4657 16.312C74.1309 16.312 73.8058 16.4238 73.5419 16.6298C73.278 16.8357 73.0904 17.1239 73.0091 17.4486L68.9096 35.0327H57.7374L67.9486 8.00328ZM57.0767 38.036H68.2189L67.453 41.3696H63.0983C62.7 41.3696 62.3181 41.5278 62.0365 41.8094C61.7548 42.091 61.5966 42.473 61.5966 42.8713V50.0491H57.0917L57.0767 38.036ZM82.6045 141.303H66.2968V118.013C66.2968 115.851 67.1558 113.777 68.685 112.247C70.2141 110.718 72.2881 109.859 74.4506 109.859C76.6132 109.859 78.6872 110.718 80.2163 112.247C81.7454 113.777 82.6045 115.851 82.6045 118.013V141.303ZM91.7645 141.303H85.6078V118.013C85.6078 115.054 84.4323 112.216 82.3399 110.124C80.2476 108.031 77.4097 106.856 74.4506 106.856C71.4916 106.856 68.6537 108.031 66.5613 110.124C64.469 112.216 63.2935 115.054 63.2935 118.013V141.303H57.0767V53.0523H63.0833C63.4815 53.0523 63.8635 52.8941 64.1451 52.6125C64.4267 52.3309 64.5849 51.949 64.5849 51.5507V44.3729H68.6393C68.9864 44.3814 69.3258 44.2693 69.5995 44.0557C69.8733 43.8422 70.0647 43.5404 70.1409 43.2016L74.4206 24.5213L78.7153 43.2316C78.7916 43.5704 78.9829 43.8722 79.2567 44.0858C79.5305 44.2993 79.8698 44.4114 80.2169 44.4029H84.2713V51.5507C84.2713 51.949 84.4295 52.3309 84.7112 52.6125C84.9928 52.8941 85.3747 53.0523 85.773 53.0523H91.7795L91.7645 141.303ZM91.7645 50.0491H87.2596V42.8713C87.2596 42.473 87.1014 42.091 86.8198 41.8094C86.5382 41.5278 86.1562 41.3696 85.758 41.3696H81.4032L80.6224 38.036H91.7645V50.0491ZM110.535 141.303H101.855V127.789C101.855 126.638 102.313 125.534 103.127 124.72C103.94 123.906 105.044 123.449 106.195 123.449C107.346 123.449 108.45 123.906 109.264 124.72C110.078 125.534 110.535 126.638 110.535 127.789V141.303ZM117.608 141.303H113.538V127.789C113.538 125.841 112.765 123.974 111.387 122.596C110.01 121.219 108.143 120.446 106.195 120.446C104.248 120.446 102.38 121.219 101.003 122.596C99.6258 123.974 98.8522 125.841 98.8522 127.789V141.303H94.7678V90.9536H117.608V141.303ZM117.608 87.9503H94.7678V75.5769H117.608V87.9503ZM127.488 56.0556H135.117L141.318 72.5736H137.7L132.609 63.5638C132.479 63.3291 132.289 63.1334 132.058 62.9972C131.827 62.861 131.563 62.7891 131.295 62.7891C131.027 62.7891 130.763 62.861 130.532 62.9972C130.301 63.1334 130.111 63.3291 129.981 63.5638L124.891 72.5736H121.287L127.488 56.0556ZM135.642 141.273H126.978V127.759C126.978 126.608 127.435 125.504 128.249 124.69C129.063 123.876 130.167 123.419 131.318 123.419C132.469 123.419 133.572 123.876 134.386 124.69C135.2 125.504 135.657 126.608 135.657 127.759L135.642 141.273ZM141.994 141.213V141.303H138.646V127.789C138.646 125.841 137.872 123.974 136.495 122.596C135.118 121.219 133.25 120.446 131.303 120.446C129.355 120.446 127.487 121.219 126.11 122.596C124.733 123.974 123.96 125.841 123.96 127.789V141.303H120.611V75.5769H125.777C126.041 75.5779 126.301 75.509 126.531 75.3772C126.76 75.2453 126.951 75.0552 127.083 74.826L131.303 67.3179L135.522 74.826C135.654 75.0552 135.845 75.2453 136.074 75.3772C136.304 75.509 136.564 75.5779 136.829 75.5769H141.994V141.213Z" fill="#663366"/>
<path d="M24.5219 100.926H12.8542C12.4559 100.926 12.074 101.084 11.7924 101.366C11.5107 101.647 11.3525 102.029 11.3525 102.427V114.11C11.3525 114.508 11.5107 114.89 11.7924 115.172C12.074 115.454 12.4559 115.612 12.8542 115.612H24.5369C24.9352 115.612 25.3171 115.454 25.5987 115.172C25.8803 114.89 26.0385 114.508 26.0385 114.11V102.427C26.0385 102.229 25.9992 102.033 25.9228 101.849C25.8464 101.666 25.7345 101.5 25.5934 101.36C25.4524 101.221 25.2851 101.11 25.1011 101.036C24.9172 100.961 24.7203 100.924 24.5219 100.926ZM23.0202 112.609H14.3558V103.929H23.0353L23.0202 112.609Z" fill="#663366"/>
<path d="M11.3525 81.7673V93.45C11.3525 93.8482 11.5107 94.2302 11.7924 94.5118C12.074 94.7934 12.4559 94.9516 12.8542 94.9516H24.5369C24.9352 94.9516 25.3171 94.7934 25.5987 94.5118C25.8803 94.2302 26.0385 93.8482 26.0385 93.45V81.7673C26.0385 81.369 25.8803 80.9871 25.5987 80.7054C25.3171 80.4238 24.9352 80.2656 24.5369 80.2656H12.8542C12.4559 80.2656 12.074 80.4238 11.7924 80.7054C11.5107 80.9871 11.3525 81.369 11.3525 81.7673ZM14.3558 83.2689H23.0353V91.9484H14.3558V83.2689Z" fill="#663366"/>
<path d="M137.655 99.6055H125.972C125.574 99.6055 125.192 99.7637 124.911 100.045C124.629 100.327 124.471 100.709 124.471 101.107V112.79C124.471 113.188 124.629 113.57 124.911 113.852C125.192 114.133 125.574 114.291 125.972 114.291H137.655C138.053 114.291 138.435 114.133 138.717 113.852C138.998 113.57 139.157 113.188 139.157 112.79V101.107C139.157 100.709 138.998 100.327 138.717 100.045C138.435 99.7637 138.053 99.6055 137.655 99.6055ZM136.153 111.288H127.474V102.609H136.153V111.288Z" fill="#663366"/>
<path d="M124.471 80.4274V92.0951C124.471 92.4934 124.629 92.8753 124.911 93.1569C125.192 93.4386 125.574 93.5968 125.972 93.5968H137.655C138.053 93.5968 138.435 93.4386 138.717 93.1569C138.998 92.8753 139.157 92.4934 139.157 92.0951V80.4274C139.157 80.0292 138.998 79.6472 138.717 79.3656C138.435 79.084 138.053 78.9258 137.655 78.9258H125.972C125.574 78.9258 125.192 79.084 124.911 79.3656C124.629 79.6472 124.471 80.0292 124.471 80.4274ZM127.474 81.9291H136.153V90.5935H127.474V81.9291Z" fill="#663366"/>
</svg>
