<svg width="150" height="150" viewBox="0 0 150 150" fill="none" xmlns="http://www.w3.org/2000/svg">
<path d="M141.869 133.587C141.577 132.677 140.733 132.061 139.778 132.061H139.528L138.046 124.929C137.835 123.911 136.936 123.18 135.896 123.18H135.81L133.244 59.8744C134.081 59.8387 134.829 59.3342 135.166 58.5627L138.544 50.8116H139.778C140.64 50.8116 141.422 50.307 141.778 49.5231L144.518 43.4843C144.999 42.424 144.567 41.1712 143.535 40.631L75.8739 5.25032C75.2359 4.91656 74.4768 4.91656 73.8387 5.25032L6.17915 40.631C5.14681 41.1712 4.71524 42.4224 5.19649 43.4843L7.93646 49.5231C8.29196 50.3086 9.07437 50.8116 9.93595 50.8116H11.1701L14.5481 58.5627C14.885 59.3358 15.6332 59.8403 16.47 59.8744L13.9039 123.18H13.8185C12.7784 123.18 11.8795 123.911 11.6684 124.929L10.1859 132.061H9.93595C8.98123 132.061 8.13672 132.677 7.84487 133.587L5.1049 142.134C4.89067 142.802 5.00865 143.533 5.42158 144.098C5.83452 144.665 6.49429 145 7.19597 145H142.515C143.217 145 143.875 144.665 144.29 144.098C144.702 143.531 144.82 142.802 144.606 142.134L141.869 133.587ZM38.3355 123.18L35.7709 59.8806H113.943L111.379 123.18H38.3355ZM118.34 59.8806H128.849L131.414 123.18H115.775L118.34 59.8806ZM74.8571 9.67465L139.659 43.5603L138.362 46.4183H11.3517L10.0555 43.5603L74.8571 9.67465ZM133.753 50.8116L131.715 55.4889H17.9991L15.9608 50.8116H133.753ZM20.8648 59.8806H31.3745L33.9391 123.18H18.3003L20.8648 59.8806ZM15.6053 127.573H134.109L135.042 132.062H14.6723L15.6053 127.573ZM10.2076 140.608L11.5396 136.453H137.726C137.731 136.453 137.734 136.453 137.738 136.453C137.742 136.453 137.745 136.453 137.749 136.453H138.176L139.508 140.608H10.2076ZM74.8571 41.477C81.4843 41.477 86.8742 36.0855 86.8742 29.4599C86.8742 22.8343 81.4843 17.4413 74.8571 17.4413C68.2299 17.4413 62.84 22.8327 62.84 29.4584C62.84 36.084 68.2299 41.477 74.8571 41.477ZM74.8571 21.833C79.061 21.833 82.4825 25.2529 82.4825 29.4584C82.4825 33.6638 79.061 37.0837 74.8571 37.0837C70.6532 37.0837 67.2317 33.6638 67.2317 29.4584C67.2317 25.2529 70.6517 21.833 74.8571 21.833ZM52.8969 99.9883H41.4992C40.2868 99.9883 39.3026 100.971 39.3026 102.185V117.394C39.3026 118.606 40.2853 119.59 41.4992 119.59H52.8969C54.1093 119.59 55.0936 118.608 55.0936 117.394V102.183C55.092 100.971 54.1093 99.9883 52.8969 99.9883ZM50.7003 115.197H43.6943V104.38H50.7003V115.197ZM71.3363 91.8382H59.9386C58.7262 91.8382 57.7419 92.8209 57.7419 94.0349V117.394C57.7419 118.606 58.7246 119.59 59.9386 119.59H71.3363C72.5487 119.59 73.5329 118.608 73.5329 117.394V94.0333C73.5329 92.8209 72.5487 91.8382 71.3363 91.8382ZM69.1396 115.197H62.1337V96.23H69.1396V115.197ZM89.7756 83.6866H78.3779C77.1655 83.6866 76.1813 84.6693 76.1813 85.8833V117.392C76.1813 118.605 77.164 119.589 78.3779 119.589H89.7756C90.988 119.589 91.9722 118.606 91.9722 117.392V85.8833C91.9722 84.6693 90.988 83.6866 89.7756 83.6866ZM87.579 115.197H80.573V88.0783H87.579V115.197ZM91.9133 66.2781C92.2299 66.8261 92.2936 67.4843 92.0902 68.0835L89.2571 76.4059C88.9466 77.3202 88.0928 77.8946 87.1785 77.8946C86.944 77.8946 86.705 77.8574 86.4706 77.7767C85.3218 77.3854 84.7086 76.1389 85.0998 74.9901L86.0499 72.1989L48.5409 93.8548C48.1947 94.0551 47.8175 94.1498 47.4449 94.1498C46.6858 94.1498 45.9484 93.7555 45.5417 93.0522C44.9347 92.0012 45.2948 90.6584 46.3458 90.053L83.8548 68.3971L80.9627 67.8243C79.7735 67.5883 78.9989 66.4333 79.2348 65.2442C79.4708 64.0535 80.6273 63.2819 81.8149 63.5164L90.4385 65.224C91.0594 65.3451 91.5966 65.7301 91.9133 66.2781ZM108.215 75.5366H96.8173C95.6049 75.5366 94.6206 76.5192 94.6206 77.7332V117.392C94.6206 118.605 95.6033 119.589 96.8173 119.589H108.215C109.427 119.589 110.412 118.606 110.412 117.392V77.7332C110.412 76.5192 109.429 75.5366 108.215 75.5366ZM106.02 115.197H99.0139V79.9283H106.02V115.197Z" fill="#663366"/>
</svg>
