<svg width="150" height="150" viewBox="0 0 150 150" fill="none" xmlns="http://www.w3.org/2000/svg">
<path d="M134.003 140.255H107.904V135.51H124.512C124.99 135.508 125.457 135.362 125.85 135.091C126.244 134.821 126.547 134.437 126.719 133.991C126.894 133.539 126.926 133.045 126.812 132.574C126.697 132.103 126.441 131.679 126.078 131.358L124.512 129.958V103.479C124.513 99.1114 123.377 94.8185 121.214 91.0233L115.022 80.2991V54.7936C114.955 37.3675 109.114 20.455 98.4137 6.7009L97.7969 5.91794C97.5751 5.63218 97.2909 5.40091 96.966 5.24181C96.6412 5.08271 96.2842 5 95.9225 5C95.5608 5 95.2038 5.08271 94.879 5.24181C94.5541 5.40091 94.2699 5.63218 94.0482 5.91794L93.6685 6.72463C82.9651 20.468 77.1239 37.3741 77.0603 54.7936V80.2991L70.8678 91.1182C68.7213 94.8854 67.5853 99.1436 67.5699 103.479V129.958L66.004 131.358C65.6411 131.679 65.3851 132.103 65.2706 132.574C65.1561 133.045 65.1885 133.539 65.3634 133.991C65.5354 134.437 65.8381 134.821 66.2319 135.091C66.6256 135.362 67.092 135.508 67.5699 135.51H84.1781V140.255H60.4521V35.8602C60.4521 35.231 60.2021 34.6275 59.7572 34.1825C59.3122 33.7376 58.7087 33.4876 58.0795 33.4876H46.2165V28.3153C47.7995 27.7556 49.1337 26.6543 49.9833 25.2061C50.8329 23.7578 51.1431 22.0558 50.8592 20.401C50.5752 18.7461 49.7154 17.2448 48.4317 16.1626C47.1479 15.0804 45.5229 14.4868 43.8439 14.4868C42.1648 14.4868 40.5398 15.0804 39.256 16.1626C37.9723 17.2448 37.1125 18.7461 36.8286 20.401C36.5446 22.0558 36.8549 23.7578 37.7044 25.2061C38.554 26.6543 39.8882 27.7556 41.4712 28.3153V33.4876H29.6082C28.979 33.4876 28.3755 33.7376 27.9305 34.1825C27.4856 34.6275 27.2356 35.231 27.2356 35.8602V140.255H15.3726C14.7434 140.255 14.1399 140.505 13.6949 140.95C13.25 141.395 13 141.998 13 142.627C13 143.257 13.25 143.86 13.6949 144.305C14.1399 144.75 14.7434 145 15.3726 145H134.003C134.632 145 135.236 144.75 135.68 144.305C136.125 143.86 136.375 143.257 136.375 142.627C136.375 141.998 136.125 141.395 135.68 140.95C135.236 140.505 134.632 140.255 134.003 140.255ZM43.8439 19.252C44.3131 19.252 44.7718 19.3911 45.162 19.6518C45.5522 19.9125 45.8563 20.2831 46.0359 20.7166C46.2154 21.1502 46.2624 21.6272 46.1709 22.0875C46.0793 22.5477 45.8534 22.9705 45.5215 23.3023C45.1897 23.6341 44.767 23.8601 44.3067 23.9516C43.8465 24.0431 43.3694 23.9962 42.9359 23.8166C42.5024 23.637 42.1318 23.3329 41.8711 22.9427C41.6104 22.5526 41.4712 22.0938 41.4712 21.6246C41.4712 20.9953 41.7212 20.3918 42.1662 19.9469C42.6111 19.502 43.2146 19.252 43.8439 19.252ZM31.9808 53.109L40.3324 60.7726L31.9808 68.4361V53.109ZM33.1197 47.7232H54.4731L43.8439 57.5458L33.1197 47.7232ZM54.4731 73.8219L43.8439 83.6445L33.1197 73.8219L43.8439 63.9993L54.4731 73.8219ZM31.9808 79.2077L40.3324 86.8712L31.9808 94.5347V79.2077ZM31.9808 107.679L40.3324 115.342L31.9808 123.006V107.679ZM43.8439 118.569L51.9819 126.019H35.7058L43.8439 118.569ZM55.7069 140.255H31.9808V130.764H55.7069V140.255ZM55.7069 123.006L47.3553 115.342L55.7069 107.679V123.006ZM55.7069 101.249L43.8439 112.116L31.9808 101.249V100.964L43.8439 90.0979L55.7069 100.964V101.249ZM55.7069 94.5347L47.3553 86.8712L55.7069 79.2077V94.5347ZM55.7069 68.4361L47.3553 60.7726L55.7069 53.109V68.4361ZM55.7069 42.978H31.9808V38.2328H55.7069V42.978ZM115.022 89.8607L117.086 93.4908C118.828 96.5328 119.752 99.9742 119.767 103.479V125.64L115.022 121.44V89.8607ZM72.3151 103.479C72.3143 99.942 73.2386 96.4658 74.9961 93.3959L77.0603 89.8607V121.535L72.3151 125.734V103.479ZM86.5507 130.764H73.8098L86.5507 119.447V130.764ZM103.159 140.255H88.9233V135.51H103.159V140.255ZM91.2959 130.764V100.324C91.3109 94.8408 92.9632 89.4871 96.0411 84.9494C99.1191 89.4871 100.771 94.8408 100.786 100.324V130.764H91.2959ZM99.1255 81.1058C98.8087 80.5696 98.3576 80.1253 97.8168 79.8167C97.2759 79.5081 96.6639 79.3457 96.0411 79.3457C95.4184 79.3457 94.8064 79.5081 94.2655 79.8167C93.7247 80.1253 93.2736 80.5696 92.9568 81.1058C88.7449 86.6218 86.4909 93.3839 86.5507 100.324V113.088L81.8055 117.312V54.7936C81.8319 39.1563 86.816 23.93 96.0411 11.3038C105.272 23.927 110.257 39.1552 110.277 54.7936V117.312L105.532 113.088V100.324C105.52 93.3954 103.273 86.6557 99.1255 81.1058ZM105.532 119.447L118.272 130.764H105.532V119.447Z" fill="#663366"/>
</svg>
