<svg width="150" height="150" viewBox="0 0 150 150" fill="none" xmlns="http://www.w3.org/2000/svg">
<path d="M145.002 80.9241V84.6099C145.002 86.2413 144.307 86.9362 142.675 86.9362H129.412V84.187L135.757 76.6039C136.603 75.5767 137.207 75.0933 137.207 75.0933V75.0329C137.207 75.0329 136.784 75.0933 135.757 75.0933H135.153C134.699 75.0933 134.458 75.335 134.458 75.7882V76.4528H129.503V72.767C129.503 71.1356 130.198 70.4407 131.829 70.4407H144.428V73.2202L138.113 80.8033C137.328 81.8003 136.633 82.3138 136.633 82.3138V82.3743C136.633 82.3743 137.056 82.2836 138.113 82.2836H139.322C139.775 82.2836 140.017 82.0419 140.017 81.5888V80.9241H145.002ZM127.026 75.5767C127.69 75.5767 128.144 75.6673 128.144 75.6673V70.2292C128.144 70.2292 127.811 70.1688 127.509 70.1688C125.032 70.1688 122.977 72.0117 122.252 74.2776H122.192C122.192 74.2776 122.252 73.9453 122.252 73.4317V72.5555C122.252 71.045 121.406 70.4407 119.926 70.4407H115.032V75.0933H116.24C116.693 75.0933 116.935 75.335 116.935 75.7882V86.9362H122.464V80.6824C122.464 79.7761 122.554 79.051 122.766 78.4468C123.582 75.9996 125.727 75.5767 127.026 75.5767ZM114.579 78.7187C114.579 83.9453 111.285 87.329 106.905 87.329C104.216 87.329 102.705 85.909 102.705 85.909H102.645C102.645 85.909 102.705 86.483 102.705 87.329V93.341H97.1767V75.7882C97.1767 75.335 96.935 75.0933 96.4819 75.0933H95.2734V70.4407H100.047C101.648 70.4407 102.192 71.1658 102.192 71.8909V72.193H102.252C102.252 72.193 103.702 70.0782 107.177 70.0782C111.618 70.0782 114.579 73.5827 114.579 78.7187ZM108.989 78.8093C108.989 76.332 107.69 74.7308 105.757 74.7308C104.095 74.7308 102.524 75.9392 102.524 78.8093C102.524 80.8033 103.582 82.7368 105.757 82.7368C107.479 82.7368 108.989 81.3471 108.989 78.8093ZM86.21 74.9725C86.21 74.4589 86.9048 74.2172 87.6903 74.2172C88.4758 74.2172 89.2009 74.5495 89.2009 74.9725V75.758H94.0045V73.7942C94.0045 70.8033 90.2885 70.048 87.5997 70.048C84.1254 70.048 80.8021 71.5888 80.8021 75.1235C80.8021 80.4709 89.0498 80.9241 89.0498 82.2836C89.0498 82.8577 88.5967 83.0691 87.8112 83.0691C85.2734 83.0691 82.9773 80.7126 82.9773 80.7126L80.5 84.2776C80.5 84.2776 83.068 87.2987 87.8112 87.2987C91.648 87.2987 94.5785 85.2746 94.5785 81.9513C94.5785 76.4528 86.21 76.6643 86.21 74.9725ZM74.5785 86.9362H79.7145V82.2836H78.506C78.0528 82.2836 77.8111 82.0419 77.8111 81.5888V72.7972C77.8111 71.1658 77.1163 70.4709 75.4849 70.4709H70.3489V75.1235H71.5574C72.0105 75.1235 72.2522 75.3652 72.2522 75.8184V84.6099C72.2522 86.2413 72.9471 86.9362 74.5785 86.9362ZM77.5695 65.6673C77.5695 63.9755 76.1797 62.5857 74.4879 62.5857C72.796 62.5857 71.4063 63.9755 71.4063 65.6673C71.4063 67.3592 72.796 68.7489 74.4879 68.7489C76.1797 68.7489 77.5695 67.3592 77.5695 65.6673ZM65.364 86.9362C63.793 86.9362 63.219 86.1507 63.219 85.3652V85.0631H63.1586C63.1586 85.0631 61.7688 87.2987 58.3852 87.2987C53.9139 87.2987 50.9531 83.764 50.9531 78.6583C50.9531 73.4317 54.0951 70.048 58.4758 70.048C61.7991 70.048 62.796 71.196 62.796 71.196H62.8565C62.8565 71.196 62.8262 70.8637 62.8262 70.4709V67.3289C62.8262 66.8758 62.5846 66.6341 62.1314 66.6341H60.9229V62.0117H66.0589C67.6903 62.0117 68.3852 62.7066 68.3852 64.338V81.5888C68.3852 82.0419 68.6269 82.2836 69.08 82.2836H70.2885V86.9362H65.364ZM62.9773 78.6885C62.9773 76.6945 61.9199 74.761 59.7447 74.761C58.0226 74.761 56.512 76.1809 56.512 78.6885C56.512 81.1658 57.8111 82.767 59.7447 82.767C61.4063 82.7368 62.9773 81.5284 62.9773 78.6885Z" fill="#663366"/>
<path d="M24.6375 56.1483C25.6042 56.1483 26.3897 56.9338 26.3897 57.9006C26.3897 58.8673 25.6042 59.6528 24.6375 59.6528C23.6707 59.6528 22.8852 58.8673 22.8852 57.9006C22.8852 56.9338 23.6707 56.1483 24.6375 56.1483ZM24.6375 95.4232C25.6042 95.4232 26.3897 94.6378 26.3897 93.671C26.3897 92.7042 25.6042 91.9187 24.6375 91.9187C23.6707 91.9187 22.8852 92.7042 22.8852 93.671C22.8852 94.668 23.6707 95.4232 24.6375 95.4232ZM5 75.7858C5 76.7525 5.7855 77.538 6.75227 77.538C7.71904 77.538 8.50453 76.7525 8.50453 75.7858C8.50453 74.819 7.71904 74.0335 6.75227 74.0335C5.7855 74.0637 5 74.8492 5 75.7858ZM44.275 75.7858C44.275 74.819 43.4895 74.0335 42.5227 74.0335C41.5559 74.0335 40.7704 74.819 40.7704 75.7858C40.7704 76.7525 41.5559 77.538 42.5227 77.538C43.4895 77.538 44.275 76.7525 44.275 75.7858ZM10.7402 61.9187C10.0453 62.6136 10.0453 63.7012 10.7402 64.396C11.4351 65.0909 12.5227 65.0909 13.2175 64.396C13.9124 63.7012 13.9124 62.6136 13.2175 61.9187C12.5227 61.2238 11.4351 61.2238 10.7402 61.9187ZM38.5348 89.6831C39.2296 88.9882 39.2296 87.9006 38.5348 87.2057C37.8399 86.5109 36.7523 86.5109 36.0574 87.2057C35.3626 87.9006 35.3626 88.9882 36.0574 89.6831C36.7523 90.3779 37.8399 90.3779 38.5348 89.6831ZM10.7402 89.6831C11.4351 90.3779 12.5227 90.3779 13.2175 89.6831C13.9124 88.9882 13.9124 87.9006 13.2175 87.2057C12.5227 86.5109 11.4351 86.5109 10.7402 87.2057C10.0755 87.9006 10.0755 88.9882 10.7402 89.6831ZM20.4381 65.6347C19.9547 65.8462 19.713 66.4202 19.9245 66.9036C20.136 67.387 20.71 67.6287 21.1934 67.4172C21.6768 67.2057 21.9184 66.6317 21.707 66.1483C21.4955 65.6649 20.9215 65.4232 20.4381 65.6347ZM28.8369 85.967C29.3203 85.7556 29.562 85.1816 29.3505 84.6982C29.139 84.2148 28.565 83.9731 28.0816 84.1846C27.5982 84.3961 27.3565 84.9701 27.568 85.4535C27.7795 85.9368 28.3535 86.1483 28.8369 85.967ZM14.4864 80.0154C14.6979 80.4988 15.2719 80.7405 15.7553 80.529C16.2387 80.3175 16.4804 79.7435 16.2689 79.2601C16.0574 78.7767 15.4834 78.535 15 78.7465C14.5166 78.9278 14.2749 79.5018 14.4864 80.0154ZM41.9185 66.0577C41.707 65.5743 41.133 65.3326 40.6496 65.5441C40.1662 65.7556 39.9245 66.3296 40.136 66.813C40.3475 67.2963 40.9215 67.538 41.4049 67.3266C41.8882 67.1151 42.1299 66.5411 41.9185 66.0577ZM14.4864 71.5864C14.2749 72.0698 14.5166 72.6438 15 72.8553C15.4834 73.0667 16.0574 72.825 16.2689 72.3417C16.4804 71.8583 16.2387 71.2843 15.7553 71.0728C15.2417 70.8613 14.6979 71.103 14.4864 71.5864ZM34.7885 80.0154C35 79.532 34.7583 78.958 34.2749 78.7465C33.7916 78.535 33.2175 78.7767 33.0061 79.2601C32.7946 79.7435 33.0363 80.3175 33.5197 80.529C34.0333 80.7405 34.6073 80.4988 34.7885 80.0154ZM20.4381 85.967C20.9215 86.1785 21.4955 85.9368 21.707 85.4535C21.9184 84.9701 21.6768 84.3961 21.1934 84.1846C20.71 83.9731 20.136 84.2148 19.9245 84.6982C19.6828 85.1816 19.9245 85.7556 20.4381 85.967ZM32.0091 63.0667C31.4955 62.9459 30.9517 63.3084 30.8611 63.822C30.7402 64.3356 31.1027 64.8794 31.6163 64.9701C32.1299 65.0909 32.6737 64.7284 32.7644 64.2148C32.8852 63.7012 32.5227 63.1876 32.0091 63.0667ZM24.6375 78.5954C26.1783 78.5954 27.4471 77.3266 27.4471 75.7858C27.4471 74.245 26.1783 72.9761 24.6375 72.9761C23.0967 72.9761 21.8278 74.245 21.8278 75.7858C21.8278 77.3266 23.0967 78.5954 24.6375 78.5954ZM42.1602 55.4836C41.4653 54.819 40.3777 54.8492 39.6828 55.5139C39.0182 56.2087 39.0484 57.2963 39.713 57.961C40.4079 58.6256 41.4955 58.5954 42.1602 57.9308C42.8852 57.2661 42.855 56.1483 42.1602 55.4836ZM28.6858 59.8945C29.29 60.4988 29.29 61.4957 28.6858 62.1C28.4139 62.3719 28.0514 62.5229 27.6888 62.5531C27.2961 62.5531 26.9336 62.7042 26.6314 63.0063C26.3293 63.3084 26.1783 63.671 26.1783 64.0637C26.1481 64.4262 25.997 64.7888 25.7251 65.0607C25.1209 65.6649 24.1239 65.6649 23.5197 65.0607C23.2477 64.7888 23.0967 64.4262 23.0665 64.0637C23.0363 63.7012 22.8852 63.3084 22.6133 63.0365C22.3112 62.7344 21.9487 62.5833 21.5559 62.5833C21.1934 62.5531 20.8308 62.4021 20.5589 62.1302C19.9547 61.5259 19.9547 60.529 20.5589 59.9247C21.1632 59.3205 22.1601 59.3205 22.7644 59.9247C23.0363 60.1966 23.1873 60.5592 23.2175 60.9217C23.2175 61.3145 23.3686 61.677 23.6707 61.9791C23.9426 62.251 24.2749 62.4021 24.6073 62.4323C24.9396 62.4021 25.2719 62.251 25.5438 61.9791C25.8459 61.677 25.997 61.3145 25.997 60.9217C26.0272 60.5592 26.1783 60.1966 26.4502 59.9247C27.0846 59.2903 28.0816 59.2903 28.6858 59.8945ZM28.6858 91.677C29.29 91.0728 29.29 90.0758 28.6858 89.4716C28.4139 89.1997 28.0514 89.0486 27.6888 89.0184C27.2961 89.0184 26.9336 88.8674 26.6314 88.5652C26.3293 88.2631 26.1783 87.9006 26.1783 87.5078C26.1481 87.1453 25.997 86.7828 25.7251 86.5109C25.1209 85.9066 24.1239 85.9066 23.5197 86.5109C23.2477 86.7828 23.0967 87.1453 23.0665 87.5078C23.0363 87.8704 22.8852 88.2631 22.6133 88.535C22.3112 88.8371 21.9487 88.9882 21.5559 88.9882C21.1934 89.0184 20.8308 89.1695 20.5589 89.4414C19.9547 90.0456 19.9547 91.0426 20.5589 91.6468C21.1632 92.251 22.1601 92.251 22.7644 91.6468C23.0363 91.3749 23.1873 91.0124 23.2175 90.6498C23.2175 90.2571 23.3686 89.8945 23.6707 89.5924C23.9426 89.3205 24.2749 89.1695 24.6073 89.1393C24.9396 89.1695 25.2719 89.3205 25.5438 89.5924C25.8459 89.8945 25.997 90.2571 25.997 90.6498C26.0272 91.0124 26.1783 91.3749 26.4502 91.6468C27.0846 92.3115 28.0816 92.3115 28.6858 91.677ZM23.5801 66.6619C23.0967 66.4504 22.5227 66.6921 22.3112 67.1755C22.2206 67.387 22.2206 67.6287 22.281 67.8401C22.3716 68.0516 22.3716 68.3235 22.281 68.5652C22.1903 68.7767 22.0393 68.9278 21.858 69.0486C21.6465 69.109 21.4351 69.109 21.2236 69.0184C20.9819 68.9278 20.8006 68.7465 20.71 68.535C20.6193 68.3235 20.4381 68.1725 20.2266 68.0818C19.7432 67.8704 19.1692 68.1121 18.9577 68.5954C18.7462 69.0788 18.9879 69.6528 19.4713 69.8643C19.6828 69.955 19.9245 69.955 20.136 69.8945C20.3474 69.8039 20.6193 69.8039 20.861 69.8945C21.1027 69.9852 21.284 70.1664 21.3746 70.3779C21.4653 70.5894 21.6465 70.7405 21.8882 70.8311C22.3716 71.0426 22.9456 70.8009 23.1571 70.3175C23.2477 70.106 23.2477 69.8643 23.1873 69.6528C23.0967 69.4414 23.0967 69.1695 23.1873 68.9278C23.278 68.6861 23.4592 68.5048 23.6707 68.4142C23.8822 68.3235 24.0332 68.1423 24.1239 67.9308C24.3052 67.4172 24.0635 66.8432 23.5801 66.6619ZM30.3475 83.0063C30.5589 82.5229 30.3172 81.9489 29.8339 81.7374C29.6224 81.6468 29.3807 81.6468 29.1692 81.7072C28.9577 81.7979 28.6858 81.7979 28.4441 81.7072C28.2024 81.6166 28.0212 81.4353 27.9305 81.2238C27.8399 81.0124 27.6586 80.8613 27.4471 80.7707C26.9638 80.5592 26.3897 80.8009 26.1783 81.2843C26.0876 81.526 26.0876 81.7374 26.1481 81.9791C26.2387 82.1906 26.2387 82.4625 26.1481 82.674C26.0574 82.9157 25.8761 83.097 25.6647 83.1876C25.4532 83.2782 25.3021 83.4595 25.2115 83.671C25 84.1544 25.2417 84.7284 25.7251 84.9399C26.2085 85.1513 26.7825 84.9096 26.994 84.4263C27.0846 84.2148 27.0846 83.9731 27.0242 83.7616C26.9336 83.5501 26.9336 83.2782 27.0242 83.0365C27.1148 82.8251 27.2659 82.674 27.4471 82.5532C27.6586 82.4927 27.8701 82.4927 28.0816 82.5834C28.3233 82.674 28.5046 82.8553 28.5952 83.0667C28.6858 83.2782 28.8671 83.4293 29.0786 83.5199C29.5922 83.7616 30.1662 83.5199 30.3475 83.0063ZM15.4834 76.8432C15.2719 77.3266 15.5136 77.9006 15.997 78.1121C16.2085 78.2027 16.4502 78.2027 16.6616 78.1423C16.8731 78.0516 17.145 78.0516 17.3867 78.1423C17.5982 78.2329 17.7493 78.384 17.8701 78.5652C17.9305 78.7767 17.9305 78.9882 17.8399 79.1997C17.7493 79.4414 17.568 79.6226 17.3565 79.7133C17.145 79.8039 16.994 79.9852 16.9033 80.1967C16.6919 80.68 16.9335 81.2541 17.4169 81.4655C17.9003 81.677 18.4743 81.4353 18.6858 80.9519C18.7764 80.7405 18.7764 80.4988 18.716 80.2873C18.6254 80.0758 18.6254 79.8039 18.716 79.5622C18.8067 79.3205 18.9879 79.1392 19.1994 79.0486C19.4109 78.958 19.5619 78.7767 19.6526 78.535C19.8641 78.0516 19.6224 77.4776 19.139 77.2661C18.9275 77.1755 18.6858 77.1755 18.4743 77.2359C18.2629 77.3266 17.9909 77.3266 17.7493 77.2359C17.5076 77.1453 17.3263 76.964 17.2357 76.7525C17.145 76.5411 16.9638 76.39 16.7523 76.2994C16.2689 76.1181 15.6949 76.3598 15.4834 76.8432ZM38.9577 64.5471C38.4743 64.3356 37.9003 64.5773 37.6888 65.0607C37.5982 65.2722 37.5982 65.5139 37.6586 65.7253C37.7493 65.9368 37.7493 66.2087 37.6586 66.4504C37.568 66.6921 37.3867 66.8734 37.1753 66.964C36.9638 67.0546 36.8127 67.2359 36.7221 67.4474C36.5106 67.9308 36.7523 68.5048 37.2357 68.7163C37.4774 68.8069 37.6888 68.8069 37.9305 68.7465C38.142 68.6559 38.4139 68.6559 38.6254 68.7465C38.8671 68.8371 39.0484 69.0184 39.139 69.2299C39.2296 69.4414 39.4109 69.5924 39.6224 69.683C40.1058 69.8945 40.6798 69.6528 40.8913 69.1695C41.1027 68.6861 40.8611 68.1121 40.3777 67.9006C40.1662 67.8099 39.9245 67.8099 39.713 67.8704C39.5015 67.961 39.2296 67.961 38.9879 67.8704C38.7765 67.7797 38.6254 67.6287 38.5046 67.4474C38.4441 67.2359 38.4441 67.0244 38.5348 66.813C38.6254 66.5713 38.8067 66.39 39.0182 66.2994C39.2296 66.2087 39.3807 66.0275 39.4713 65.816C39.713 65.3024 39.4713 64.7284 38.9577 64.5471ZM17.4169 70.0758C16.9335 70.2873 16.6919 70.8613 16.9033 71.3447C16.994 71.5562 17.1752 71.7374 17.3565 71.8281C17.568 71.9187 17.7493 72.1 17.8399 72.3417C17.9305 72.5531 17.9305 72.7646 17.8701 72.9761C17.7795 73.1574 17.5982 73.3084 17.3867 73.3991C17.145 73.4897 16.9033 73.4897 16.6616 73.3991C16.4502 73.3386 16.2085 73.3386 15.997 73.4293C15.5136 73.6408 15.2719 74.2148 15.4834 74.6982C15.6949 75.1815 16.2689 75.4232 16.7523 75.2118C16.9638 75.1211 17.145 74.9398 17.2357 74.7586C17.3263 74.5471 17.5076 74.3658 17.7493 74.2752C17.9909 74.1846 18.2326 74.1846 18.4441 74.2752C18.6556 74.3356 18.8973 74.3356 19.139 74.245C19.6224 74.0335 19.8641 73.4595 19.6526 72.9761C19.5619 72.7646 19.3807 72.5834 19.1994 72.4927C18.9879 72.4021 18.8067 72.2208 18.716 71.9791C18.6254 71.7374 18.6254 71.4957 18.716 71.254C18.7764 71.0426 18.7764 70.8009 18.6858 70.5894C18.4743 70.106 17.9305 69.8643 17.4169 70.0758ZM33.7916 76.8432C33.5801 76.3598 33.0061 76.1181 32.5227 76.3296C32.3112 76.4202 32.1299 76.6015 32.0393 76.7828C31.9487 76.9942 31.7674 77.1755 31.5257 77.2661C31.284 77.3568 31.0423 77.3568 30.8006 77.2661C30.5891 77.2057 30.3475 77.2057 30.136 77.2963C29.6526 77.5078 29.4109 78.0818 29.6224 78.5652C29.713 78.7767 29.8943 78.958 30.0755 79.0788C30.287 79.1695 30.4683 79.3507 30.5589 79.5924C30.6496 79.8341 30.6496 80.0758 30.5589 80.3175C30.4985 80.529 30.4985 80.7707 30.5891 80.9822C30.8006 81.4655 31.3746 81.7072 31.858 81.4957C32.3414 81.2843 32.5831 80.7102 32.3716 80.2269C32.281 80.0154 32.0997 79.8341 31.9185 79.7435C31.707 79.6528 31.5257 79.4716 31.4351 79.2299C31.3444 79.0184 31.3444 78.8069 31.4049 78.5954C31.4955 78.4142 31.6768 78.2631 31.8882 78.1725C32.1299 78.0818 32.3716 78.0818 32.6133 78.1725C32.8248 78.2329 33.0665 78.2329 33.278 78.1423C33.7614 77.9308 34.003 77.3568 33.7916 76.8432ZM18.9275 83.0063C19.139 83.4897 19.713 83.7314 20.1964 83.5199C20.4079 83.4293 20.5891 83.248 20.6798 83.0667C20.7704 82.8553 20.9517 82.674 21.1934 82.5834C21.4048 82.4927 21.6163 82.4927 21.8278 82.5532C22.0091 82.6438 22.1601 82.8251 22.2508 83.0365C22.3414 83.2782 22.3414 83.5199 22.2508 83.7616C22.1903 83.9731 22.1903 84.2148 22.281 84.4263C22.4925 84.9096 23.0665 85.1513 23.5499 84.9399C24.0332 84.7284 24.2749 84.1544 24.0635 83.671C23.9728 83.4595 23.7916 83.2782 23.6103 83.1876C23.3988 83.097 23.2175 82.9157 23.1269 82.674C23.0363 82.4323 23.0363 82.1906 23.1269 81.9791C23.1873 81.7677 23.1873 81.526 23.0967 81.2843C22.8852 80.8009 22.3112 80.5592 21.8278 80.7707C21.6163 80.8613 21.4351 81.0426 21.3444 81.2238C21.2538 81.4353 21.0725 81.6166 20.8308 81.7072C20.5891 81.7979 20.3474 81.7979 20.1058 81.7072C19.8943 81.6468 19.6526 81.6468 19.4411 81.7374C18.9577 81.9489 18.716 82.5229 18.9275 83.0063ZM29.1088 64.6679C28.6556 64.9701 28.5348 65.5743 28.8369 66.0275C28.9577 66.2389 29.1692 66.3598 29.3807 66.4202C29.6224 66.4806 29.8339 66.6015 29.9547 66.8432C30.1058 67.0546 30.136 67.2963 30.1058 67.538C30.0756 67.7495 30.136 67.9912 30.2568 68.2027C30.5589 68.6559 31.1632 68.7767 31.6163 68.4746C31.8278 68.3537 31.9487 68.1423 32.0091 67.9308C32.0695 67.6891 32.1904 67.5078 32.4018 67.3568C32.6133 67.2057 32.855 67.1755 33.0967 67.2057C33.3082 67.2359 33.5499 67.1755 33.7614 67.0546C34.2145 66.7525 34.3354 66.1483 34.0333 65.6951C33.7311 65.242 33.1269 65.1211 32.6737 65.4232C32.4623 65.5441 32.3414 65.7556 32.281 65.967C32.2206 66.2087 32.0997 66.4202 31.858 66.5411C31.6768 66.6619 31.4351 66.7223 31.2236 66.6921C31.0121 66.6317 30.8308 66.5108 30.71 66.2994C30.5589 66.0879 30.5287 65.8462 30.5589 65.6045C30.5891 65.393 30.5287 65.1513 30.4079 64.9398C30.1662 64.4867 29.562 64.3658 29.1088 64.6679ZM8.74623 71.7374C8.142 72.3417 8.142 73.3386 8.74623 73.9429C9.01813 74.2148 9.38067 74.3658 9.74321 74.396C10.136 74.396 10.4985 74.5471 10.8006 74.8492C11.0725 75.1211 11.2236 75.4534 11.2538 75.7858C11.2236 76.1181 11.0725 76.4504 10.8006 76.7223C10.4985 77.0244 10.136 77.1755 9.74321 77.1755C9.38067 77.2057 9.01813 77.3568 8.74623 77.6287C8.142 78.2329 8.142 79.2299 8.74623 79.8341C9.35046 80.4383 10.3474 80.4383 10.9517 79.8341C11.2236 79.5622 11.3746 79.1997 11.4048 78.8371C11.4048 78.4444 11.5559 78.0818 11.858 77.7797C12.1601 77.4776 12.5227 77.3266 12.8852 77.3266C13.2477 77.2963 13.6103 77.1453 13.8822 76.8734C14.4864 76.2692 14.4864 75.2722 13.8822 74.6679C13.6103 74.396 13.2477 74.245 12.8852 74.2148C12.4925 74.2148 12.1299 74.0637 11.8278 73.7616C11.5257 73.4595 11.3746 73.0969 11.3746 72.7042C11.3444 72.3417 11.1934 71.9791 10.9215 71.7072C10.3474 71.1332 9.35046 71.1332 8.74623 71.7374ZM40.5287 71.7374C39.9245 71.1332 38.9275 71.1332 38.3233 71.7374C38.0514 72.0093 37.9003 72.3719 37.8701 72.7344C37.8701 73.1272 37.7191 73.4897 37.4169 73.7918C37.1148 74.0939 36.7523 74.245 36.3595 74.245C35.997 74.2752 35.6345 74.4263 35.3626 74.6982C34.7583 75.3024 34.7583 76.2994 35.3626 76.9036C35.6345 77.1755 35.997 77.3266 36.3595 77.3568C36.7221 77.387 37.1148 77.538 37.3867 77.8099C37.6888 78.1121 37.8399 78.4746 37.8399 78.8673C37.8701 79.2299 38.0212 79.5924 38.2931 79.8643C38.8973 80.4686 39.8943 80.4686 40.4985 79.8643C41.1027 79.2601 41.1027 78.2631 40.4985 77.6589C40.2266 77.387 39.8641 77.2359 39.5015 77.2057C39.1088 77.2057 38.7463 77.0547 38.4441 76.7525C38.1722 76.4806 38.0212 76.1483 37.991 75.816C38.0212 75.4837 38.1722 75.1513 38.4441 74.8794C38.7463 74.5773 39.1088 74.4263 39.5015 74.4263C39.8641 74.396 40.2266 74.245 40.4985 73.9731C41.133 73.3386 41.133 72.3417 40.5287 71.7374ZM16.2689 61.677C15.3928 61.677 14.6979 62.3719 14.6979 63.248C14.6979 63.6407 14.849 64.0033 15.0906 64.2752C15.3625 64.5471 15.5136 64.9398 15.5136 65.3326C15.5136 65.6951 15.3928 66.0275 15.1813 66.2994C14.9094 66.5108 14.577 66.6317 14.2145 66.6317C13.7915 66.6317 13.429 66.4806 13.1571 66.2087C12.8852 65.967 12.5227 65.816 12.1299 65.816C11.2538 65.816 10.5589 66.5108 10.5589 67.387C10.5589 68.2631 11.2538 68.958 12.1299 68.958C12.5227 68.958 12.8852 68.8069 13.1571 68.5652C13.429 68.2933 13.8218 68.1423 14.2145 68.1423C14.6073 68.1423 15 68.2933 15.2719 68.5652C15.5438 68.8069 15.9064 68.958 16.2991 68.958C17.1752 68.958 17.8701 68.2631 17.8701 67.387C17.8701 66.9942 17.719 66.6317 17.4774 66.3598C17.2054 66.0879 17.0544 65.6951 17.0544 65.3024C17.0544 64.8794 17.2054 64.5169 17.4774 64.245C17.719 63.9731 17.8701 63.6105 17.8701 63.2178C17.8399 62.4021 17.145 61.677 16.2689 61.677ZM38.7463 84.1544C38.7463 83.2782 38.0514 82.5834 37.1753 82.5834C36.7825 82.5834 36.42 82.7344 36.1481 82.9761C35.8762 83.248 35.4834 83.3991 35.0907 83.3991C34.6677 83.3991 34.3052 83.248 34.0333 82.9761C33.7614 82.7344 33.3988 82.5834 33.0061 82.5834C32.1299 82.5834 31.4351 83.2782 31.4351 84.1544C31.4351 84.5471 31.5861 84.9096 31.8278 85.1816C32.0695 85.4535 32.2508 85.816 32.2508 86.239C32.2508 86.6619 32.0997 87.0245 31.8278 87.2964C31.5861 87.5683 31.4351 87.9308 31.4351 88.3235C31.4351 89.1997 32.1299 89.8945 33.0061 89.8945C33.8822 89.8945 34.5771 89.1997 34.5771 88.3235C34.5771 87.9308 34.426 87.5683 34.1843 87.2964C33.9124 87.0245 33.7614 86.6317 33.7614 86.239C33.7614 85.8764 33.8822 85.5441 34.0937 85.2722C34.3656 85.0607 34.6979 84.9399 35.0604 84.9399C35.4834 84.9399 35.8459 85.0909 36.1179 85.3628C36.3898 85.6045 36.7523 85.7556 37.145 85.7556C38.0514 85.7254 38.7463 85.0305 38.7463 84.1544ZM10.5287 84.1544C10.5287 85.0305 11.2236 85.7254 12.0997 85.7254C12.4925 85.7254 12.855 85.5743 13.1269 85.3326C13.3988 85.0607 13.7915 84.9096 14.1843 84.9096C14.5468 84.9096 14.8792 85.0305 15.1511 85.242C15.3625 85.5139 15.4834 85.8462 15.4834 86.2087C15.4834 86.6317 15.3323 86.9942 15.0604 87.2661C14.8187 87.538 14.6677 87.9006 14.6677 88.2933C14.6677 89.1695 15.3625 89.8643 16.2387 89.8643C17.1148 89.8643 17.8097 89.1695 17.8097 88.2933C17.8097 87.9006 17.6586 87.538 17.4169 87.2661C17.145 86.9942 16.994 86.6015 16.994 86.2087C16.994 85.816 17.145 85.4232 17.4169 85.1513C17.6586 84.8794 17.8097 84.5169 17.8097 84.1241C17.8097 83.248 17.1148 82.5532 16.2387 82.5532C15.8459 82.5532 15.4834 82.7042 15.2115 82.9459C14.9396 83.2178 14.5468 83.3689 14.1541 83.3689C13.7613 83.3689 13.3686 83.2178 13.0967 82.9459C12.8248 82.7042 12.4622 82.5532 12.0695 82.5532C11.2236 82.6136 10.5287 83.3084 10.5287 84.1544ZM36.6617 55.3628C35.7855 55.393 35.1209 56.0879 35.1209 56.964C35.1209 57.3568 35.2719 57.7193 35.5136 57.961C35.7855 58.2329 35.9366 58.5954 35.9668 59.0184C35.997 59.4413 35.8157 59.8039 35.574 60.106C35.3324 60.3779 35.2115 60.7404 35.2115 61.1332C35.2417 62.0093 35.9366 62.674 36.8127 62.674C37.2055 62.674 37.568 62.5229 37.8399 62.2812C38.1118 62.0093 38.4743 61.8583 38.8973 61.8583C39.3203 61.8583 39.6828 62.0093 39.9849 62.251C40.2568 62.4927 40.6194 62.6136 41.0121 62.6136C41.8882 62.6136 42.5529 61.8885 42.5529 61.0123C42.5529 60.1362 41.8278 59.4716 40.9517 59.4716C40.5589 59.4716 40.1964 59.6226 39.9547 59.8643C39.6828 60.1362 39.3203 60.2873 38.8973 60.3175C38.5348 60.3175 38.2024 60.1966 37.9305 59.9852C37.7191 59.7133 37.568 59.3809 37.568 59.0184C37.568 58.5954 37.7191 58.2329 37.9607 57.9308C38.2024 57.6589 38.3233 57.2963 38.3233 56.9036C38.2327 56.0274 37.5076 55.3326 36.6617 55.3628Z" fill="#663366"/>
</svg>
