<svg width="150" height="150" viewBox="0 0 150 150" fill="none" xmlns="http://www.w3.org/2000/svg">
<mask id="mask0_614_283" style="mask-type:luminance" maskUnits="userSpaceOnUse" x="5" y="5" width="140" height="140">
<path d="M5 5H145V145H5V5Z" fill="white"/>
</mask>
<g mask="url(#mask0_614_283)">
<path d="M57.5449 30.9258C57.8897 28.3825 59.0357 25.9314 60.9848 23.9824C62.9273 22.0402 65.3691 20.8939 67.9044 20.5458" stroke="#663366" stroke-width="4.10156" stroke-miterlimit="10" stroke-linecap="round" stroke-linejoin="round"/>
<path d="M50.6875 28.9336C51.1945 25.1957 52.878 21.5967 55.7401 18.7349C58.5964 15.8786 62.1858 14.1972 65.9147 13.6859" stroke="#663366" stroke-width="4.10156" stroke-miterlimit="10" stroke-linecap="round" stroke-linejoin="round"/>
<path d="M44.0508 26.9766C44.7128 22.0938 46.9126 17.3915 50.6532 13.6506C54.3886 9.91543 59.0816 7.71781 63.9554 7.05117" stroke="#663366" stroke-width="4.10156" stroke-miterlimit="10" stroke-linecap="round" stroke-linejoin="round"/>
<path d="M20.4884 70.8638C17.8234 73.0685 16.1257 76.4009 16.1257 80.1295C16.1257 82.8655 17.0417 85.3858 18.5811 87.4056C18.8269 87.7278 18.7578 88.1866 18.437 88.4341C14.5542 91.4317 12.0938 96.1819 12.2491 101.502C12.4892 109.723 19.0687 116.473 27.2819 116.907C36.4574 117.392 44.0494 110.096 44.0494 101.026C44.0494 95.9003 41.6221 91.3434 37.8566 88.4354C37.5298 88.1833 37.4707 87.7204 37.7204 87.3923C39.3367 85.2657 40.2623 82.5869 40.1581 79.6862C39.9341 73.4784 34.9226 68.4099 28.7172 68.1228" stroke="#663366" stroke-width="4.10156" stroke-miterlimit="10" stroke-linecap="round" stroke-linejoin="round"/>
<path d="M28.1465 134.746V77.9061" stroke="#663366" stroke-width="4.10156" stroke-miterlimit="10" stroke-linecap="round" stroke-linejoin="round"/>
<path d="M17.4766 99.5968L19.9963 103.786C20.5248 104.666 21.4756 105.203 22.5015 105.203H28.1469" stroke="#663366" stroke-width="4.10156" stroke-miterlimit="10" stroke-linecap="round" stroke-linejoin="round"/>
<path d="M28.1465 96.4297H32.0118C32.4414 96.4297 32.8537 96.2591 33.1575 95.955L35.4352 93.6775" stroke="#663366" stroke-width="4.10156" stroke-miterlimit="10" stroke-linecap="round" stroke-linejoin="round"/>
<path d="M28.1457 82.7383H25.5439C25.092 82.7383 24.6583 82.5586 24.3384 82.239L21.9824 79.8828" stroke="#663366" stroke-width="4.10156" stroke-miterlimit="10" stroke-linecap="round" stroke-linejoin="round"/>
<path d="M127.694 69.6316C126.119 68.749 124.328 68.2109 122.424 68.1228C115.526 67.8032 109.833 73.3017 109.833 80.1297C109.833 82.8655 110.749 85.3857 112.288 87.4056C112.534 87.7277 112.465 88.1866 112.144 88.434C108.261 91.4317 105.801 96.1822 105.956 101.502C106.196 109.723 112.776 116.473 120.989 116.907C130.164 117.392 137.756 110.096 137.756 101.026C137.756 95.9002 135.329 91.3437 131.563 88.4357C131.237 88.1836 131.178 87.7206 131.427 87.3922C133.043 85.266 133.97 82.5868 133.865 79.6862C133.822 78.4916 133.601 77.339 133.229 76.2546" stroke="#663366" stroke-width="4.10156" stroke-miterlimit="10" stroke-linecap="round" stroke-linejoin="round"/>
<path d="M121.852 134.746V77.9061" stroke="#663366" stroke-width="4.10156" stroke-miterlimit="10" stroke-linecap="round" stroke-linejoin="round"/>
<path d="M111.182 99.5968L113.701 103.786C114.23 104.666 115.181 105.203 116.206 105.203H121.852" stroke="#663366" stroke-width="4.10156" stroke-miterlimit="10" stroke-linecap="round" stroke-linejoin="round"/>
<path d="M121.852 96.4297H125.717C126.146 96.4297 126.559 96.2591 126.863 95.955L129.14 93.6775" stroke="#663366" stroke-width="4.10156" stroke-miterlimit="10" stroke-linecap="round" stroke-linejoin="round"/>
<path d="M121.851 82.7383H119.249C118.797 82.7383 118.363 82.5586 118.044 82.239L115.688 79.8828" stroke="#663366" stroke-width="4.10156" stroke-miterlimit="10" stroke-linecap="round" stroke-linejoin="round"/>
<path d="M84.9724 39.9486L85.3711 39.5499C87.2663 37.6577 88.2124 35.1749 88.2124 32.6921C88.2124 30.2093 87.2663 27.7265 85.3711 25.8343C85.0758 25.539 84.5945 25.539 84.2992 25.8343L62.9522 47.1815C62.8046 47.3292 62.7305 47.5233 62.7305 47.7175C62.7305 47.9116 62.8046 48.1058 62.9522 48.2534C66.7391 52.0405 72.8805 52.0405 76.6676 48.2534L76.9585 47.9625" stroke="#663366" stroke-width="4.10156" stroke-miterlimit="10" stroke-linecap="round" stroke-linejoin="round"/>
<path d="M92.2687 142.949H13.6133C9.98887 142.949 7.05078 140.011 7.05078 136.387C7.05078 135.481 7.78523 134.746 8.69141 134.746H141.309C142.214 134.746 142.949 135.481 142.949 136.387C142.949 140.011 140.011 142.949 136.387 142.949H101.846" stroke="#663366" stroke-width="4.10156" stroke-miterlimit="10" stroke-linecap="round" stroke-linejoin="round"/>
<path d="M96.416 134.746H55.9473V66.3867H96.416V134.746Z" stroke="#663366" stroke-width="4.10156" stroke-miterlimit="10" stroke-linecap="round" stroke-linejoin="round"/>
<path d="M84.3848 82.793H55.9473V74.5898H84.3848C84.6866 74.5898 84.9316 74.8348 84.9316 75.1367V82.2461C84.9316 82.548 84.6866 82.793 84.3848 82.793Z" stroke="#663366" stroke-width="4.10156" stroke-miterlimit="10" stroke-linecap="round" stroke-linejoin="round"/>
<path d="M84.3848 99.1992H55.9473V90.9961H84.3848C84.6866 90.9961 84.9316 91.2411 84.9316 91.543V98.6523C84.9316 98.9542 84.6866 99.1992 84.3848 99.1992Z" stroke="#663366" stroke-width="4.10156" stroke-miterlimit="10" stroke-linecap="round" stroke-linejoin="round"/>
<path d="M84.3848 115.605H55.9473V107.402H84.3848C84.6866 107.402 84.9316 107.647 84.9316 107.949V115.059C84.9316 115.36 84.6866 115.605 84.3848 115.605Z" stroke="#663366" stroke-width="4.10156" stroke-miterlimit="10" stroke-linecap="round" stroke-linejoin="round"/>
<path d="M91.2207 66.3867H61.1426V58.1836H91.2207V66.3867Z" stroke="#663366" stroke-width="4.10156" stroke-miterlimit="10" stroke-linecap="round" stroke-linejoin="round"/>
<path d="M88.2129 134.746H64.1504V124.896C64.1504 124.597 64.3927 124.355 64.6912 124.355H87.672C87.9709 124.355 88.2129 124.597 88.2129 124.896V134.746Z" stroke="#663366" stroke-width="4.10156" stroke-miterlimit="10" stroke-linecap="round" stroke-linejoin="round"/>
<path d="M76.5253 33.6097L70.7246 39.4102L68.2111 36.8967C66.6093 35.2949 66.6093 32.6978 68.2111 31.0963C69.8129 29.4945 72.4097 29.4945 74.0118 31.0963L76.5253 33.6097Z" stroke="#663366" stroke-width="4.10156" stroke-miterlimit="10" stroke-linecap="round" stroke-linejoin="round"/>
<path d="M87.1185 58.1836H77.0645V44.6905C77.0645 41.9141 79.3151 39.6634 82.0913 39.6634C84.8681 39.6634 87.1185 41.9141 87.1185 44.6905V58.1836Z" stroke="#663366" stroke-width="4.10156" stroke-miterlimit="10" stroke-linecap="round" stroke-linejoin="round"/>
</g>
</svg>
