<svg width="150" height="150" viewBox="0 0 150 150" fill="none" xmlns="http://www.w3.org/2000/svg">
<path d="M74.9997 22.0737C78.1428 22.0737 80.6908 19.5257 80.6908 16.3825C80.6908 13.2394 78.1428 10.6914 74.9997 10.6914C71.8566 10.6914 69.3086 13.2394 69.3086 16.3825C69.3086 19.5257 71.8566 22.0737 74.9997 22.0737Z" stroke="#663366" stroke-width="4.3" stroke-miterlimit="10" stroke-linecap="round" stroke-linejoin="round"/>
<path d="M34.2321 16.3822C37.3753 16.3822 39.9233 13.8342 39.9233 10.6911C39.9233 7.548 37.3753 5 34.2321 5C31.089 5 28.541 7.548 28.541 10.6911C28.541 13.8342 31.089 16.3822 34.2321 16.3822Z" stroke="#663366" stroke-width="4.3" stroke-miterlimit="10" stroke-linecap="round" stroke-linejoin="round"/>
<path d="M10.6911 39.9213C13.8342 39.9213 16.3822 37.3733 16.3822 34.2302C16.3822 31.0871 13.8342 28.5391 10.6911 28.5391C7.548 28.5391 5 31.0871 5 34.2302C5 37.3733 7.548 39.9213 10.6911 39.9213Z" stroke="#663366" stroke-width="4.3" stroke-miterlimit="10" stroke-linecap="round" stroke-linejoin="round"/>
<path d="M139.31 121.46C142.453 121.46 145.001 118.912 145.001 115.769C145.001 112.626 142.453 110.078 139.31 110.078C136.167 110.078 133.619 112.626 133.619 115.769C133.619 118.912 136.167 121.46 139.31 121.46Z" stroke="#663366" stroke-width="4.3" stroke-miterlimit="10" stroke-linecap="round" stroke-linejoin="round"/>
<path d="M115.771 144.999C118.914 144.999 121.462 142.451 121.462 139.308C121.462 136.165 118.914 133.617 115.771 133.617C112.628 133.617 110.08 136.165 110.08 139.308C110.08 142.451 112.628 144.999 115.771 144.999Z" stroke="#663366" stroke-width="4.3" stroke-miterlimit="10" stroke-linecap="round" stroke-linejoin="round"/>
<path d="M115.771 16.3822C118.914 16.3822 121.462 13.8342 121.462 10.6911C121.462 7.548 118.914 5 115.771 5C112.628 5 110.08 7.548 110.08 10.6911C110.08 13.8342 112.628 16.3822 115.771 16.3822Z" stroke="#663366" stroke-width="4.3" stroke-miterlimit="10" stroke-linecap="round" stroke-linejoin="round"/>
<path d="M139.31 39.9213C142.453 39.9213 145.001 37.3733 145.001 34.2302C145.001 31.0871 142.453 28.5391 139.31 28.5391C136.167 28.5391 133.619 31.0871 133.619 34.2302C133.619 37.3733 136.167 39.9213 139.31 39.9213Z" stroke="#663366" stroke-width="4.3" stroke-miterlimit="10" stroke-linecap="round" stroke-linejoin="round"/>
<path d="M10.6911 121.46C13.8342 121.46 16.3822 118.912 16.3822 115.769C16.3822 112.626 13.8342 110.078 10.6911 110.078C7.548 110.078 5 112.626 5 115.769C5 118.912 7.548 121.46 10.6911 121.46Z" stroke="#663366" stroke-width="4.3" stroke-miterlimit="10" stroke-linecap="round" stroke-linejoin="round"/>
<path d="M34.2321 144.999C37.3753 144.999 39.9233 142.451 39.9233 139.308C39.9233 136.165 37.3753 133.617 34.2321 133.617C31.089 133.617 28.541 136.165 28.541 139.308C28.541 142.451 31.089 144.999 34.2321 144.999Z" stroke="#663366" stroke-width="4.3" stroke-miterlimit="10" stroke-linecap="round" stroke-linejoin="round"/>
<path d="M16.3825 80.6908C19.5257 80.6908 22.0737 78.1428 22.0737 74.9997C22.0737 71.8566 19.5257 69.3086 16.3825 69.3086C13.2394 69.3086 10.6914 71.8566 10.6914 74.9997C10.6914 78.1428 13.2394 80.6908 16.3825 80.6908Z" stroke="#663366" stroke-width="4.3" stroke-miterlimit="10" stroke-linecap="round" stroke-linejoin="round"/>
<path d="M74.9997 139.308C78.1428 139.308 80.6908 136.76 80.6908 133.617C80.6908 130.474 78.1428 127.926 74.9997 127.926C71.8566 127.926 69.3086 130.474 69.3086 133.617C69.3086 136.76 71.8566 139.308 74.9997 139.308Z" stroke="#663366" stroke-width="4.3" stroke-miterlimit="10" stroke-linecap="round" stroke-linejoin="round"/>
<path d="M133.619 80.6908C136.762 80.6908 139.31 78.1428 139.31 74.9997C139.31 71.8566 136.762 69.3086 133.619 69.3086C130.476 69.3086 127.928 71.8566 127.928 74.9997C127.928 78.1428 130.476 80.6908 133.619 80.6908Z" stroke="#663366" stroke-width="4.3" stroke-miterlimit="10" stroke-linecap="round" stroke-linejoin="round"/>
<path d="M90.8419 110.761H59.1611C51.3822 102.982 47.0211 98.6208 39.2422 90.8419V59.1611C47.0211 51.3822 51.3822 47.0211 59.1611 39.2422H90.8416C98.6205 47.0211 102.982 51.3822 110.761 59.1611V90.8416C102.982 98.6205 98.6205 102.982 90.8419 110.761Z" stroke="#663366" stroke-width="4.3" stroke-miterlimit="10" stroke-linecap="round" stroke-linejoin="round"/>
<path d="M75 22.0742V39.2423" stroke="#663366" stroke-width="4.3" stroke-miterlimit="10" stroke-linecap="round" stroke-linejoin="round"/>
<path d="M75 127.926V110.758" stroke="#663366" stroke-width="4.3" stroke-miterlimit="10" stroke-linecap="round" stroke-linejoin="round"/>
<path d="M127.928 75H110.76" stroke="#663366" stroke-width="4.3" stroke-miterlimit="10" stroke-linecap="round" stroke-linejoin="round"/>
<path d="M22.0723 75H39.2404" stroke="#663366" stroke-width="4.3" stroke-miterlimit="10" stroke-linecap="round" stroke-linejoin="round"/>
<path d="M93.9306 35.7031L90.8418 39.2404" stroke="#663366" stroke-width="4.3" stroke-miterlimit="10" stroke-linecap="round" stroke-linejoin="round"/>
<path d="M101.434 29.9528C105.096 29.9528 105.102 24.2617 101.434 24.2617C97.7723 24.2617 97.7663 29.9528 101.434 29.9528Z" fill="#663366"/>
<path d="M112.026 14.9805L108.938 18.5178" stroke="#663366" stroke-width="4.3" stroke-miterlimit="10" stroke-linecap="round" stroke-linejoin="round"/>
<path d="M135.023 37.9727L110.762 59.1579" stroke="#663366" stroke-width="4.3" stroke-miterlimit="10" stroke-linecap="round" stroke-linejoin="round"/>
<path d="M14.9785 37.9727L39.2398 59.1579" stroke="#663366" stroke-width="4.3" stroke-miterlimit="10" stroke-linecap="round" stroke-linejoin="round"/>
<path d="M37.9746 14.9805L59.1598 39.2417" stroke="#663366" stroke-width="4.3" stroke-miterlimit="10" stroke-linecap="round" stroke-linejoin="round"/>
<path d="M37.9746 135.023L59.1598 110.762" stroke="#663366" stroke-width="4.3" stroke-miterlimit="10" stroke-linecap="round" stroke-linejoin="round"/>
<path d="M14.9785 112.025L39.2398 90.8398" stroke="#663366" stroke-width="4.3" stroke-miterlimit="10" stroke-linecap="round" stroke-linejoin="round"/>
<path d="M135.023 112.025L110.762 90.8398" stroke="#663366" stroke-width="4.3" stroke-miterlimit="10" stroke-linecap="round" stroke-linejoin="round"/>
<path d="M112.027 135.023L90.8418 110.762" stroke="#663366" stroke-width="4.3" stroke-miterlimit="10" stroke-linecap="round" stroke-linejoin="round"/>
<path d="M61.0352 86.3817L69.5832 63.9378C69.7579 63.5107 70.3623 63.5102 70.5379 63.937L79.0083 86.3817" stroke="#663366" stroke-width="4.3" stroke-miterlimit="10" stroke-linecap="round" stroke-linejoin="round"/>
<path d="M63.7012 80.793H76.3853" stroke="#663366" stroke-width="4.3" stroke-miterlimit="10" stroke-linecap="round" stroke-linejoin="round"/>
<path d="M88.9668 63.6172V86.3817" stroke="#663366" stroke-width="4.3" stroke-miterlimit="10" stroke-linecap="round" stroke-linejoin="round"/>
</svg>
