<svg width="150" height="150" viewBox="0 0 150 150" fill="none" xmlns="http://www.w3.org/2000/svg">
<path d="M44.7101 83.4202H23.8161C22.4446 83.4202 21.3283 84.5305 21.3283 85.908V106.802C21.3283 108.174 22.4386 109.29 23.8161 109.29H44.7101C46.0816 109.29 47.1979 108.179 47.1979 106.802V85.908C47.1979 84.5364 46.0875 83.4202 44.7101 83.4202ZM42.2282 104.308H26.3092V88.3891H42.2282V104.308ZM142.691 125.232C141.949 124.597 141.07 124.158 140.114 123.926V121.195C140.114 112.936 137.27 104.849 132.117 98.4253C129.866 95.6167 127.206 93.1765 124.267 91.1578V68.3456C126.357 67.4312 127.758 65.3591 127.758 63.0197V37.7436C127.758 33.4389 124.255 29.9417 119.957 29.9417H94.7519V23.3332C94.7519 15.4304 88.3215 9 80.4187 9H52.3397C44.4369 9 38.0066 15.4304 38.0066 23.3332V29.9417H12.8019C8.49722 29.9417 5 33.4448 5 37.7436V63.0197C5 65.3532 6.40126 67.4312 8.49129 68.3456V114.046C8.49129 118.208 11.8757 121.593 16.0378 121.593H67.3136V124.122C66.3576 124.365 65.473 124.811 64.713 125.458C63.2642 126.693 62.433 128.51 62.433 130.433C62.433 133.723 64.9149 136.359 68.6021 136.988C80.5662 139.031 92.2868 140.052 103.936 140.052C115.586 140.052 127.169 139.031 138.837 136.988C142.524 136.341 145 133.711 145 130.439C145 128.391 144.157 126.497 142.696 125.244L142.691 125.232ZM124.641 108.833V97.6885C131.167 103.489 135.145 111.921 135.145 121.189V124.134C112.606 127.471 93.5651 127.525 72.285 124.324V121.189C72.285 111.915 76.2632 103.484 82.7886 97.6885V108.833C82.7886 110.205 83.8989 111.321 85.2763 111.321C86.6479 111.321 87.7641 110.211 87.7641 108.833V94.0785C89.5514 93.0335 91.4573 92.1607 93.4641 91.472V109.747C93.4641 111.831 94.5092 113.749 96.2607 114.883L100.447 117.584C101.438 118.226 102.578 118.546 103.718 118.546C104.858 118.546 105.992 118.226 106.99 117.584L111.176 114.883C112.927 113.755 113.972 111.831 113.972 109.747V91.472C115.979 92.1607 117.891 93.0335 119.672 94.0785V108.833C119.672 110.205 120.782 111.321 122.16 111.321C123.531 111.321 124.648 110.211 124.648 108.833H124.641ZM98.4273 109.748V88.4204C98.4273 88.07 98.6826 87.7553 99.0329 87.6841C100.583 87.3575 102.15 87.1972 103.712 87.1972C105.273 87.1972 106.835 87.3575 108.39 87.6841C108.741 87.7613 108.996 88.07 108.996 88.4204V109.748C108.996 110.139 108.8 110.496 108.473 110.709L104.288 113.411C103.937 113.637 103.486 113.637 103.136 113.411L98.9497 110.709C98.6232 110.496 98.4273 110.139 98.4273 109.748ZM42.9715 23.3323C42.9715 18.1667 47.1693 13.9688 52.335 13.9688H80.414C85.5796 13.9688 89.7775 18.1666 89.7775 23.3323V29.9408H87.7588V23.3323C87.7588 19.2829 84.4635 15.9817 80.4082 15.9817H52.3292C48.2798 15.9817 44.9787 19.2771 44.9787 23.3323V29.9408H42.9599V23.3323H42.9715ZM82.788 23.3323V29.9408H49.9589V23.3323C49.9589 22.0201 51.0218 20.9573 52.3339 20.9573H80.4129C81.7251 20.9573 82.788 22.0261 82.788 23.3323ZM10.5939 63.8328C10.2258 63.7318 9.96454 63.3993 9.96454 63.0193V37.7432C9.96454 36.1817 11.2352 34.911 12.7968 34.911H119.945C121.506 34.911 122.777 36.1816 122.777 37.7432V63.0193C122.777 63.3993 122.522 63.7378 122.148 63.8328L66.3651 78.5637L10.5939 63.8328ZM16.0326 116.618C14.6136 116.618 13.4558 115.46 13.4558 114.041V69.7299L65.7408 83.5346C65.9486 83.588 66.1624 83.6177 66.3761 83.6177C66.5899 83.6177 66.8036 83.588 67.0115 83.5346L119.297 69.7299V88.2968C117.426 87.4061 115.479 86.6758 113.478 86.1177C112.747 84.4731 111.257 83.2083 109.416 82.8223C105.634 82.0267 101.799 82.0267 98.0165 82.8223C96.1759 83.2083 94.6855 84.4729 93.9552 86.1177C86.6639 88.1483 80.0911 92.4768 75.3169 98.4203C71.1132 103.657 68.4472 109.993 67.6041 116.625L16.0326 116.618ZM137.982 132.085C115.217 136.07 92.7973 136.07 69.4394 132.085C69.101 132.026 67.4029 131.676 67.4029 130.429C67.4029 129.966 67.6048 129.521 67.9373 129.236C68.2164 128.998 68.5667 128.879 69.0001 128.879C69.1367 128.879 69.2792 128.891 69.4276 128.915C92.7566 132.632 113.258 132.578 137.993 128.731C138.641 128.63 139.133 128.719 139.46 129.004C139.81 129.307 140.03 129.847 140.03 130.423C140.03 131.658 138.326 132.02 137.981 132.08L137.982 132.085Z" fill="#663366"/>
</svg>
