<svg width="150" height="150" viewBox="0 0 150 150" fill="none" xmlns="http://www.w3.org/2000/svg">
<path d="M74.9993 75.1823C93.2751 75.1823 108.09 60.3669 108.09 42.0911C108.09 23.8154 93.2751 9 74.9993 9C56.7236 9 41.9082 23.8154 41.9082 42.0911C41.9082 60.3669 56.7236 75.1823 74.9993 75.1823Z" stroke="#663366" stroke-width="4" stroke-miterlimit="10"/>
<path d="M75 75.1823C81.7957 75.1823 87.3047 60.3669 87.3047 42.0911C87.3047 23.8154 81.7957 9 75 9C68.2043 9 62.6953 23.8154 62.6953 42.0911C62.6953 60.3669 68.2043 75.1823 75 75.1823Z" stroke="#663366" stroke-width="4" stroke-miterlimit="10"/>
<path d="M41.9102 42.0938H108.092" stroke="#663366" stroke-width="4" stroke-miterlimit="10"/>
<path d="M145 140.797H5" stroke="#663366" stroke-width="4" stroke-miterlimit="10"/>
<path d="M116.211 140.797V74.8984H132.695V140.797" stroke="#663366" stroke-width="4" stroke-miterlimit="10"/>
<path d="M83.2422 140.798V92.0352H99.7264V140.798" stroke="#663366" stroke-width="4" stroke-miterlimit="10"/>
<path d="M50.2734 140.798V101.605H66.7576V140.798" stroke="#663366" stroke-width="4" stroke-miterlimit="10"/>
<path d="M17.3066 140.795V81.0938H33.7908V140.795" stroke="#663366" stroke-width="4" stroke-miterlimit="10"/>
</svg>
