<svg width="150" height="150" viewBox="0 0 150 150" fill="none" xmlns="http://www.w3.org/2000/svg">
<g clip-path="url(#clip0_614_278)">
<path d="M39.9863 78.9574C39.9863 79.5884 40.1432 80.1609 40.4603 80.6688C40.7773 81.1767 41.196 81.583 41.7162 81.8847C42.2395 82.1863 42.8212 82.3372 43.4676 82.3372C44.1541 82.3372 44.7666 82.1863 45.3022 81.8847C45.8378 81.583 46.2595 81.1767 46.5704 80.6688C46.8782 80.1609 47.0352 79.5915 47.0352 78.9574V69.332H48.9098C49.0699 69.332 49.1991 69.4613 49.1991 69.6214V79.0189C49.1991 80.1055 48.9437 81.0567 48.4358 81.8724C47.9279 82.6912 47.2414 83.3253 46.3734 83.7777C45.5084 84.2302 44.5388 84.458 43.4676 84.458C42.3964 84.458 41.4668 84.2302 40.6019 83.7777C39.7369 83.3253 39.0536 82.6881 38.5518 81.8724C38.0501 81.0536 37.8008 80.1024 37.8008 79.0189V69.332H39.6969C39.857 69.332 39.9863 69.4613 39.9863 69.6214V78.9574Z" fill="#663366"/>
<path d="M63.811 69.332V79.2806L52.9883 69.372H52.8867V84.0025C52.8867 84.1625 53.016 84.2949 53.1791 84.2949H55.1122V74.5218L65.935 84.2918H65.9965V69.6214C65.9965 69.4613 65.8672 69.332 65.7072 69.332H63.811Z" fill="#663366"/>
<path d="M69.9328 69.332H71.8474C72.0074 69.332 72.1367 69.4613 72.1367 69.6214V84.2949H70.2221C70.062 84.2949 69.9297 84.1656 69.9297 84.0025V69.332H69.9328Z" fill="#663366"/>
<path d="M80.1766 69.332C81.2909 69.332 82.242 69.5198 83.03 69.8984C83.8211 70.277 84.4245 70.8157 84.8431 71.5175C85.2617 72.2193 85.471 73.072 85.471 74.0724C85.471 74.6634 85.3817 75.2482 85.2032 75.8238C85.0247 76.3994 84.7384 76.9258 84.3475 77.3998C83.9566 77.8739 83.4364 78.2525 82.79 78.5326C82.1435 78.8158 81.3617 78.9543 80.4413 78.9543H78.2559V84.2918H76.3413C76.1812 84.2918 76.0488 84.1625 76.0488 83.9994V69.332H80.1705H80.1766ZM80.4444 76.8335C80.9923 76.8335 81.454 76.7411 81.8265 76.5564C82.1989 76.3717 82.4883 76.1347 82.7038 75.8454C82.9162 75.556 83.067 75.2575 83.1563 74.9496C83.2455 74.6418 83.2917 74.3617 83.2917 74.1155C83.2917 73.8415 83.2455 73.5491 83.1563 73.2382C83.067 72.9304 82.9192 72.641 82.713 72.3732C82.5068 72.1054 82.2236 71.8869 81.8665 71.7145C81.5094 71.5421 81.0631 71.4559 80.5275 71.4559H78.2589V76.8365H80.4444V76.8335Z" fill="#663366"/>
<path d="M100.192 69.6205V84.294H98.2774C98.1173 84.294 97.9849 84.1648 97.9849 84.0016V77.8423H90.4004V84.294H88.4858C88.3257 84.294 88.1934 84.1648 88.1934 84.0016V69.3312H90.108C90.268 69.3312 90.3973 69.4605 90.3973 69.6205V75.7399H97.9819V69.3281H99.8965C100.057 69.3281 100.186 69.4574 100.186 69.6175L100.192 69.6205Z" fill="#663366"/>
<path d="M103.18 76.8309C103.18 75.7997 103.377 74.8239 103.768 73.9036C104.159 72.9832 104.706 72.1644 105.405 71.4503C106.107 70.7362 106.917 70.1759 107.837 69.7696C108.757 69.3633 109.745 69.1602 110.804 69.1602C111.863 69.1602 112.83 69.3633 113.753 69.7696C114.673 70.1759 115.492 70.7362 116.206 71.4503C116.921 72.1644 117.478 72.9832 117.875 73.9036C118.272 74.8239 118.472 75.7997 118.472 76.8309C118.472 77.8621 118.272 78.8778 117.875 79.7982C117.475 80.7186 116.924 81.5281 116.216 82.2299C115.508 82.9318 114.689 83.4766 113.762 83.8675C112.836 84.2584 111.848 84.4554 110.804 84.4554C109.761 84.4554 108.757 84.2646 107.837 83.8798C106.917 83.4951 106.107 82.9564 105.405 82.2607C104.703 81.5681 104.159 80.7555 103.768 79.829C103.377 78.9025 103.18 77.9021 103.18 76.8309ZM105.445 76.8309C105.445 77.6004 105.587 78.3176 105.867 78.9856C106.147 79.6535 106.538 80.2353 107.03 80.737C107.526 81.2388 108.099 81.6297 108.751 81.9129C109.404 82.1961 110.109 82.3346 110.863 82.3346C111.617 82.3346 112.297 82.193 112.944 81.9129C113.59 81.6328 114.156 81.2388 114.643 80.737C115.129 80.2353 115.511 79.6505 115.788 78.9856C116.062 78.3207 116.2 77.6004 116.2 76.8309C116.2 76.0613 116.059 75.3441 115.779 74.6762C115.495 74.0113 115.111 73.4234 114.624 72.9124C114.135 72.4045 113.565 72.0044 112.913 71.7181C112.26 71.4287 111.561 71.2841 110.82 71.2841C110.078 71.2841 109.342 71.4287 108.696 71.7181C108.049 72.0074 107.48 72.4045 106.984 72.9124C106.489 73.4203 106.107 74.0113 105.839 74.6854C105.571 75.3595 105.436 76.0737 105.436 76.8278L105.445 76.8309Z" fill="#663366"/>
<path d="M132.222 84.2949L128.688 78.6557C128.602 78.5172 128.645 78.3325 128.787 78.2525C129.199 78.0124 129.547 77.7261 129.833 77.3937C130.231 76.9258 130.52 76.4056 130.698 75.8269C130.877 75.2482 130.966 74.6664 130.966 74.0754C130.966 73.3059 130.831 72.6287 130.563 72.0439C130.295 71.459 129.923 70.9696 129.449 70.5694C128.975 70.1724 128.405 69.8645 127.737 69.6522C127.069 69.4398 126.346 69.332 125.564 69.332H121.753C121.593 69.332 121.461 69.4613 121.461 69.6245V84.0055C121.461 84.1656 121.59 84.298 121.753 84.298H123.668V79.2313C123.668 79.0713 123.797 78.9389 123.96 78.9389H125.853C125.921 78.9389 125.986 78.9389 126.05 78.9389C126.152 78.9389 126.251 78.9851 126.303 79.0713L129.578 84.1656C129.63 84.2487 129.723 84.301 129.824 84.301H132.222V84.2949ZM123.668 71.7453C123.668 71.5852 123.797 71.4529 123.96 71.4529H125.937C126.46 71.4529 126.897 71.5421 127.257 71.7207C127.614 71.8992 127.9 72.127 128.113 72.4009C128.325 72.6749 128.476 72.9642 128.565 73.2659C128.655 73.5676 128.701 73.8569 128.701 74.1309C128.701 74.4202 128.655 74.7188 128.565 75.0266C128.476 75.3344 128.325 75.6238 128.113 75.8915C127.9 76.1593 127.605 76.3841 127.226 76.5626C126.848 76.7411 126.377 76.8304 125.813 76.8304H123.96C123.8 76.8304 123.668 76.7011 123.668 76.538V71.7422V71.7453Z" fill="#663366"/>
<path d="M134.882 69.332H144.424C144.584 69.332 144.714 69.4613 144.714 69.6214V71.4559H137.086V75.7223H143.867V77.8462H137.086V82.174H145V84.298H135.171C135.011 84.298 134.879 84.1687 134.879 84.0055V69.332H134.882Z" fill="#663366"/>
<path d="M14.1515 78.0104L15.4751 72.0788C15.6044 71.494 16.0631 71.0384 16.6479 70.9091L21.1389 69.9211L21.656 67.6094L14.8503 69.1084C14.2654 69.2377 13.8099 69.6933 13.6806 70.275L11.8398 78.5183L14.1515 78.0104Z" fill="#663366"/>
<path d="M11.0332 78.6997L13.0248 69.7731C13.1541 69.1882 13.6127 68.7327 14.1975 68.6065L21.8098 66.9289L22.3269 64.6172L12.403 66.8027C11.8181 66.9319 11.3626 67.3875 11.2333 67.9693L8.72461 79.2076L11.0363 78.6997H11.0332Z" fill="#663366"/>
<path d="M23.7992 61.4462L20.4687 76.3629C20.3394 76.9478 19.8808 77.4033 19.2959 77.5326L7.76213 80.0721L10.5756 67.464C10.7048 66.8792 11.1635 66.4267 11.7452 66.2974L22.4756 63.9334L22.9928 61.6217L9.94761 64.4967C9.36276 64.626 8.9072 65.0815 8.77792 65.6633L5.00719 82.5654C4.97333 82.7193 5.10877 82.8547 5.26268 82.8209L21.229 79.3056C21.7307 79.1948 22.1247 78.8039 22.2386 78.2991L26.037 61.2646C26.0709 61.1107 25.9355 60.9753 25.7816 61.0091L23.7962 61.4462H23.7992Z" fill="#663366"/>
<path d="M26.2476 63.7548L22.9171 78.6715C22.7878 79.2564 22.3292 79.7119 21.7443 79.8412L7.89576 82.8916L7.45251 84.874C7.41865 85.0279 7.55409 85.1633 7.70799 85.1294L23.6743 81.6142C24.176 81.5034 24.57 81.1125 24.6839 80.6077L28.4854 63.5732C28.5193 63.4193 28.3839 63.2839 28.23 63.3177L26.2446 63.7548H26.2476Z" fill="#663366"/>
<path d="M28.6988 66.0634L25.3683 80.9801C25.239 81.5649 24.7803 82.0205 24.1955 82.1498L10.3469 85.2002L9.90368 87.1826C9.86982 87.3365 10.0053 87.4719 10.1592 87.438L26.1255 83.9228C26.6272 83.812 27.0212 83.4211 27.1351 82.9163L30.9366 65.8818C30.9705 65.7279 30.835 65.5925 30.6811 65.6263L28.6957 66.0634H28.6988Z" fill="#663366"/>
<path d="M31.148 68.372L27.8175 83.2887C27.6882 83.8735 27.2296 84.3291 26.6447 84.4584L12.7961 87.5088L12.3529 89.4911C12.319 89.6451 12.4545 89.7805 12.6084 89.7466L28.5747 86.2314C29.0764 86.1206 29.4704 85.7297 29.5843 85.2248L33.3858 68.1904C33.4197 68.0365 33.2843 67.9011 33.1303 67.9349L31.1449 68.372H31.148Z" fill="#663366"/>
</g>
<defs>
<clipPath id="clip0_614_278">
<rect width="140" height="28.7498" fill="white" transform="translate(5 61)"/>
</clipPath>
</defs>
</svg>
