<svg width="150" height="150" viewBox="0 0 150 150" fill="none" xmlns="http://www.w3.org/2000/svg">
<mask id="path-1-outside-1_614_742" maskUnits="userSpaceOnUse" x="15" y="4" width="120" height="142" fill="black">
<rect fill="white" x="15" y="4" width="120" height="142"/>
<path fill-rule="evenodd" clip-rule="evenodd" d="M21.8497 129.474H128.136C129.18 129.474 130.119 129.046 130.812 128.359C131.499 127.672 131.927 126.726 131.927 125.683L131.921 51.6918C131.921 50.6486 131.493 49.709 130.806 49.0156C130.119 48.3288 129.173 47.9011 128.13 47.9011L98.1419 47.9076V51.3095H122.752C124.34 51.3095 125.778 51.9574 126.828 53.0006C127.871 54.0439 128.519 55.4889 128.519 57.0763V120.312C128.519 121.899 127.871 123.338 126.828 124.388C125.784 125.431 124.339 126.079 122.752 126.079L27.2278 126.072C25.6402 126.072 24.2018 125.424 23.1521 124.381C22.1088 123.338 21.4609 121.893 21.4609 120.305V57.0699C21.4609 55.4823 22.1089 54.0439 23.1521 52.9942C24.1953 51.9509 25.6403 51.303 27.2278 51.303H51.8445V47.9011L21.8499 47.9076C20.8067 47.9076 19.8606 48.3353 19.1737 49.0221C18.4869 49.709 18.0592 50.655 18.0592 51.6983V125.685C18.0592 126.728 18.4869 127.674 19.1737 128.361C19.8606 129.048 20.8065 129.474 21.8497 129.474ZM67.0788 91.963H65.1609C64.5907 91.963 64.1306 91.503 64.1306 90.9328C64.1306 90.3625 64.5907 89.9025 65.1609 89.9025H67.3187C67.4353 89.6563 67.5973 89.423 67.7917 89.2351L67.7982 89.2286C67.9926 89.0342 68.2194 88.8787 68.4656 88.7556V86.5978C68.4656 86.0276 68.9257 85.5675 69.4959 85.5675C70.0661 85.5675 70.5261 86.0276 70.5261 86.5978V88.5157H71.213V86.5978C71.213 86.0276 71.6731 85.5675 72.2433 85.5675C72.8135 85.5675 73.2735 86.0276 73.2735 86.5978V88.5157H73.9604V86.5978C73.9604 86.0276 74.4204 85.5675 74.9907 85.5675C75.5609 85.5675 76.0209 86.0276 76.0209 86.5978V88.5157H76.7078V86.5978C76.7078 86.0276 77.1678 85.5675 77.738 85.5675C78.3083 85.5675 78.7683 86.0276 78.7683 86.5978V88.5157H79.4552V86.5978C79.4552 86.0276 79.9152 85.5675 80.4854 85.5675C81.0556 85.5675 81.5157 86.0276 81.5157 86.5978V88.7556C81.7684 88.8722 81.9952 89.0342 82.1896 89.2286C82.384 89.423 82.546 89.6498 82.6691 89.9025H84.8204C85.3906 89.9025 85.8507 90.3625 85.8507 90.9328C85.8507 91.503 85.3906 91.963 84.8204 91.963H82.9025V92.6499H84.8204C85.3906 92.6499 85.8507 93.1099 85.8507 93.6802C85.8507 94.2504 85.3906 94.7104 84.8204 94.7104H82.9025V95.3973H84.8204C85.3906 95.3973 85.8507 95.8573 85.8507 96.4275C85.8507 96.9978 85.3906 97.4578 84.8204 97.4578H82.9025V98.1447H84.8204C85.3906 98.1447 85.8507 98.6047 85.8507 99.1749C85.8507 99.7451 85.3906 100.205 84.8204 100.205H82.9025V100.892H84.8204C85.3906 100.892 85.8507 101.352 85.8507 101.922C85.8507 102.493 85.3906 102.953 84.8204 102.953H82.6691C82.5525 103.205 82.3905 103.432 82.1896 103.626C81.9952 103.821 81.7684 103.983 81.5157 104.1V106.251C81.5157 106.821 81.0556 107.281 80.4854 107.281C79.9152 107.281 79.4552 106.821 79.4552 106.251V104.326H78.7683V106.251C78.7683 106.821 78.3083 107.281 77.738 107.281C77.1678 107.281 76.7078 106.821 76.7078 106.251V104.326H76.0209V106.251C76.0209 106.821 75.5609 107.281 74.9907 107.281C74.4204 107.281 73.9604 106.821 73.9604 106.251V104.326H73.2735V106.251C73.2735 106.821 72.8135 107.281 72.2433 107.281C71.6731 107.281 71.213 106.821 71.213 106.251V104.326H70.5261V106.251C70.5261 106.821 70.0661 107.281 69.4959 107.281C68.9257 107.281 68.4656 106.821 68.4656 106.251V104.1C68.2129 103.983 67.9861 103.821 67.7917 103.626C67.7658 103.601 67.7464 103.575 67.7204 103.549C67.5584 103.374 67.4224 103.173 67.3187 102.953H65.1609C64.5907 102.953 64.1306 102.493 64.1306 101.922C64.1306 101.352 64.5907 100.892 65.1609 100.892H67.0788V100.205H65.1609C64.5907 100.205 64.1306 99.7451 64.1306 99.1749C64.1306 98.6047 64.5907 98.1446 65.1609 98.1446H67.0788V97.4578H65.1609C64.5907 97.4578 64.1306 96.9977 64.1306 96.4275C64.1306 95.8573 64.5907 95.3973 65.1609 95.3973H67.0788V94.7104H65.1609C64.5907 94.7104 64.1306 94.2504 64.1306 93.6801C64.1306 93.1099 64.5907 92.6499 65.1609 92.6499H67.0788V91.963ZM69.1459 90.9328C69.1459 90.8356 69.1848 90.7448 69.2431 90.6865L69.2496 90.68C69.3144 90.6152 69.3986 90.5828 69.4958 90.5828H80.4854C80.5826 90.5828 80.6733 90.6217 80.7316 90.68C80.7964 90.7448 80.8353 90.8291 80.8353 90.9263V101.916C80.8353 102.013 80.7964 102.097 80.7316 102.162C80.6668 102.227 80.5826 102.266 80.4854 102.266L69.4958 102.279C69.3986 102.279 69.3143 102.24 69.2496 102.175L69.2236 102.149C69.1783 102.091 69.1459 102.013 69.1459 101.929V90.9328ZM32.6653 92.2093C33.8317 92.2093 34.8813 92.6823 35.646 93.4469C36.1774 93.9782 36.5662 94.6456 36.7541 95.3973H45.3333C47.0569 92.8507 48.9296 90.5829 50.9253 88.6L45.5471 84.3105H41.141C40.9531 85.0621 40.5643 85.7296 40.0329 86.2609C39.2683 87.0255 38.2121 87.4985 37.0522 87.4985C35.8859 87.4985 34.8362 87.0255 34.0715 86.2609C33.3069 85.4963 32.8339 84.44 32.8339 83.2802C32.8339 82.1139 33.3069 81.0642 34.0715 80.2995C34.8361 79.5349 35.8924 79.0619 37.0522 79.0619C38.2186 79.0619 39.2682 79.5349 40.0329 80.2995C40.5643 80.8308 40.9531 81.4982 41.141 82.2499H45.9036C46.1304 82.2499 46.3572 82.3212 46.5451 82.4702L52.4352 87.168C53.8802 85.8655 55.3834 84.7056 56.932 83.6883C62.5693 79.9689 68.7834 78.1027 74.9915 78.1027C81.2056 78.1027 87.4132 79.9624 93.051 83.6883C94.5996 84.7056 96.0964 85.8719 97.5478 87.168L103.438 82.4702C103.626 82.3212 103.853 82.2499 104.079 82.2499H108.842C109.03 81.4983 109.419 80.8309 109.95 80.2995C110.715 79.5349 111.771 79.0619 112.931 79.0619C114.097 79.0619 115.147 79.5349 115.912 80.2995C116.676 81.0641 117.149 82.1204 117.149 83.2802C117.149 84.4465 116.676 85.4962 115.912 86.2609C115.147 87.0255 114.091 87.4985 112.931 87.4985C111.764 87.4985 110.715 87.0255 109.95 86.2609C109.419 85.7296 109.03 85.0622 108.842 84.3105H104.436L99.0577 88.6C101.053 90.5828 102.933 92.8507 104.65 95.3973H113.229C113.417 94.6457 113.806 93.9782 114.337 93.4469C115.102 92.6823 116.158 92.2093 117.318 92.2093C118.484 92.2093 119.534 92.6823 120.298 93.4469C121.063 94.2115 121.536 95.2678 121.536 96.4276C121.536 97.594 121.063 98.6436 120.298 99.4083C119.534 100.173 118.478 100.646 117.318 100.646C116.151 100.646 115.102 100.173 114.337 99.4083C113.806 98.877 113.417 98.2096 113.229 97.4579H104.695C103.062 100.283 101.131 102.765 98.9801 104.897L104.352 109.186H108.758C108.946 108.435 109.335 107.767 109.866 107.236C110.631 106.471 111.687 105.998 112.847 105.998C114.013 105.998 115.063 106.471 115.827 107.236C116.592 108 117.065 109.057 117.065 110.216C117.065 111.383 116.592 112.432 115.827 113.197C115.063 113.962 114.007 114.435 112.847 114.435C111.68 114.435 110.631 113.962 109.866 113.197C109.335 112.666 108.946 111.998 108.758 111.247H103.995C103.769 111.247 103.542 111.175 103.354 111.026L97.4573 106.322C95.6364 107.916 93.6861 109.284 91.632 110.424C86.4806 113.295 80.7331 114.727 74.9859 114.727C69.2386 114.727 63.4908 113.295 58.3397 110.424C56.2921 109.284 54.3352 107.916 52.5209 106.322L46.6244 111.026C46.4365 111.175 46.2097 111.247 45.9829 111.247H41.2203C41.0324 111.998 40.6436 112.666 40.1122 113.197C39.3476 113.962 38.2913 114.435 37.1315 114.435C35.9652 114.435 34.9155 113.962 34.1508 113.197C33.3862 112.433 32.9132 111.376 32.9132 110.216C32.9132 109.05 33.3862 108 34.1508 107.236C34.9154 106.471 35.9717 105.998 37.1315 105.998C38.2979 105.998 39.3475 106.471 40.1122 107.236C40.6436 107.767 41.0324 108.434 41.2203 109.186H45.6264L50.9981 104.897C48.8468 102.765 46.916 100.29 45.283 97.4579H36.7493C36.5614 98.2095 36.1726 98.8769 35.6412 99.4083C34.8766 100.173 33.8204 100.646 32.6605 100.646C31.4942 100.646 30.4445 100.173 29.6798 99.4083C28.9152 98.6437 28.4422 97.5874 28.4422 96.4276C28.4422 95.2613 28.9152 94.2116 29.6798 93.4469C30.4509 92.6823 31.499 92.2093 32.6653 92.2093ZM34.1881 94.9048C34.5769 95.2936 34.8231 95.8314 34.8231 96.4276C34.8231 97.0237 34.5833 97.5615 34.1881 97.9503C33.7993 98.3391 33.2615 98.5853 32.6653 98.5853C32.0692 98.5853 31.5314 98.3456 31.1426 97.9503C30.7538 97.5615 30.5076 97.0237 30.5076 96.4276C30.5076 95.8314 30.7473 95.2936 31.1426 94.9048C31.5314 94.516 32.0692 94.2698 32.6653 94.2698C33.2615 94.2698 33.7993 94.5161 34.1881 94.9048ZM117.316 94.2698C117.912 94.2698 118.45 94.5096 118.839 94.9048C119.228 95.2936 119.474 95.8314 119.474 96.4276C119.474 97.0237 119.234 97.5615 118.839 97.9503C118.45 98.3391 117.912 98.5853 117.316 98.5853C116.72 98.5853 116.182 98.3456 115.793 97.9503C115.404 97.5615 115.158 97.0237 115.158 96.4276C115.158 95.8314 115.398 95.2936 115.793 94.9048C116.182 94.516 116.72 94.2698 117.316 94.2698ZM112.851 108.059C113.448 108.059 113.985 108.298 114.374 108.694C114.763 109.082 115.009 109.62 115.009 110.216C115.009 110.813 114.769 111.35 114.374 111.739C113.985 112.128 113.448 112.374 112.851 112.374C112.255 112.374 111.718 112.134 111.329 111.739C110.94 111.35 110.694 110.813 110.694 110.216C110.694 109.62 110.933 109.082 111.329 108.694C111.711 108.298 112.255 108.059 112.851 108.059ZM112.929 81.1296C113.525 81.1296 114.063 81.3693 114.452 81.7646C114.841 82.1534 115.081 82.6912 115.081 83.2873C115.081 83.8834 114.841 84.4212 114.446 84.81C114.057 85.1988 113.519 85.445 112.923 85.445C112.327 85.445 111.789 85.2053 111.4 84.81C111.011 84.4212 110.771 83.8834 110.771 83.2873C110.771 82.6912 111.011 82.1534 111.4 81.7646C111.789 81.3693 112.333 81.1296 112.929 81.1296ZM37.1299 108.059C37.7261 108.059 38.2639 108.298 38.6527 108.694C39.0415 109.082 39.2877 109.62 39.2877 110.216C39.2877 110.813 39.0479 111.35 38.6527 111.739C38.2639 112.128 37.7261 112.374 37.1299 112.374C36.5338 112.374 35.996 112.134 35.6072 111.739C35.2184 111.35 34.9722 110.813 34.9722 110.216C34.9722 109.62 35.2119 109.082 35.6072 108.694C35.996 108.298 36.5338 108.059 37.1299 108.059ZM37.0522 81.1296C37.6483 81.1296 38.1861 81.3693 38.5749 81.7646C38.9637 82.1534 39.2099 82.6912 39.2099 83.2873C39.2099 83.8834 38.9702 84.4212 38.5749 84.81C38.1861 85.1988 37.6483 85.445 37.0522 85.445C36.456 85.445 35.9182 85.2053 35.5294 84.81C35.1406 84.4212 34.8944 83.8834 34.8944 83.2873C34.8944 82.6912 35.1342 82.1534 35.5294 81.7646C35.9182 81.3693 36.456 81.1296 37.0522 81.1296ZM50.1282 15.7691C51.3335 15.7691 52.4285 16.2551 53.2191 17.0521C54.0096 17.8426 54.5021 18.9377 54.5021 20.143C54.5021 21.3482 54.0161 22.4432 53.2191 23.2338C52.6618 23.7911 51.9556 24.1993 51.1585 24.3937V38.8954L58.1761 43.2627C58.2604 43.0359 58.3446 42.8156 58.4353 42.5953C58.6297 42.1222 58.85 41.6557 59.0898 41.1892L56.7311 35.9017C56.5561 35.5 56.6533 35.0529 56.9449 34.7548L60.3014 31.3984C60.6318 31.0679 61.1373 31.0096 61.526 31.2234L65.7573 33.109L65.7962 13.6246C65.0057 13.4367 64.2929 13.022 63.7356 12.4647C62.9451 11.6742 62.4526 10.5791 62.4526 9.37385C62.4526 8.16863 62.9386 7.07358 63.7356 6.28299C64.5262 5.49247 65.6212 5 66.8265 5C68.0318 5 69.1268 5.48598 69.9174 6.28299C70.7079 7.07351 71.2003 8.16856 71.2003 9.37385C71.2003 10.5791 70.7144 11.6741 69.9174 12.4647C69.3601 13.022 68.6473 13.4302 67.8503 13.6246L67.8114 33.031C67.9216 32.9856 68.0317 32.9338 68.1419 32.8884C68.6149 32.6941 69.1009 32.5126 69.5934 32.3571L71.6604 26.9595C71.8159 26.5513 72.2112 26.2986 72.6259 26.2986H77.3691C77.8227 26.2986 78.2114 26.5966 78.3475 27.0114L80.4016 32.3637C80.8941 32.5192 81.3801 32.6941 81.8531 32.895C81.9632 32.9404 82.0799 32.9922 82.19 33.0376L82.2289 13.6311C81.4384 13.4367 80.7256 13.0285 80.1683 12.4713C79.3778 11.6807 78.8853 10.5857 78.8853 9.3804C78.8853 8.17511 79.3713 7.08013 80.1683 6.28954C80.9588 5.49902 82.0539 5.00655 83.2592 5.00655C84.4645 5.00655 85.5595 5.49254 86.35 6.28954C87.1406 7.08007 87.633 8.17511 87.633 9.3804C87.633 10.5857 87.147 11.6807 86.35 12.4713C85.7928 13.0285 85.08 13.4367 84.283 13.6311L84.2441 33.1089L88.5401 31.191C88.9419 31.0095 89.3954 31.1067 89.687 31.4048L93.0435 34.7612C93.3739 35.0917 93.4322 35.5971 93.2184 35.9859L90.8987 41.1956C91.1385 41.6556 91.3588 42.1222 91.5532 42.6017C91.6439 42.822 91.7346 43.0488 91.8124 43.2691L98.83 38.8953V24.3936C98.0394 24.1993 97.3267 23.791 96.7694 23.2338C95.9789 22.4432 95.4864 21.3482 95.4864 20.1429C95.4864 18.9377 95.9724 17.8426 96.7694 17.0521C97.5599 16.2615 98.655 15.7691 99.8603 15.7691C101.065 15.7691 102.161 16.255 102.951 17.0521C103.742 17.8426 104.234 18.9376 104.234 20.1429C104.234 21.3481 103.748 22.4432 102.951 23.2338C102.394 23.791 101.688 24.1993 100.891 24.3936V39.4654C100.891 39.8088 100.716 40.1458 100.405 40.3402L93.5426 44.6103L96.7694 45.8479H128.138C129.745 45.8479 131.209 46.5088 132.265 47.5651C133.321 48.6213 133.982 50.0857 133.982 51.6927L133.969 125.684C133.969 127.291 133.308 128.755 132.252 129.812C131.196 130.868 129.732 131.529 128.125 131.529L81.3992 131.535V138.41C85.624 138.715 89.2915 139.304 91.9547 140.088C95.1299 141.021 97.0219 142.343 97.0478 143.937V143.97C97.0478 144.54 96.5877 145 96.0175 145H53.9584C53.3882 145 52.9281 144.54 52.9281 143.97C52.9281 142.363 54.8266 141.022 58.0212 140.088C60.6844 139.304 64.3583 138.715 68.5767 138.41V131.535H21.8513C20.2443 131.535 18.7798 130.881 17.7237 129.818C16.6675 128.762 16.0065 127.298 16.0065 125.69L16 51.6926C16 50.0857 16.6544 48.6212 17.7172 47.565C18.7734 46.5088 20.2378 45.8478 21.8448 45.8478H53.2129L56.4398 44.6102L49.5778 40.3401C49.2668 40.1457 49.0918 39.8087 49.0918 39.4653V24.3935C48.3013 24.1991 47.595 23.7909 47.0312 23.2337C46.2407 22.4431 45.7483 21.3481 45.7483 20.1428C45.7483 18.9376 46.2342 17.8425 47.0312 17.0519C47.8283 16.2614 48.9229 15.7691 50.1282 15.7691ZM51.7611 18.51C51.3399 18.0953 50.7633 17.8361 50.1282 17.8361C49.4932 17.8361 48.9165 18.0953 48.4953 18.51C48.0742 18.9312 47.815 19.5079 47.815 20.1429C47.815 20.7779 48.0742 21.3546 48.4953 21.7758C48.91 22.1905 49.4867 22.4497 50.1218 22.4497H50.1347C50.7697 22.4497 51.3464 22.1905 51.7611 21.7758C52.1823 21.3546 52.435 20.7779 52.435 20.1429C52.435 19.5014 52.1758 18.9247 51.7611 18.51ZM68.4521 7.75359C68.0309 7.3324 67.4542 7.0797 66.8192 7.0797C66.1842 7.0797 65.6075 7.33889 65.1863 7.75359C64.7651 8.16829 64.5124 8.75147 64.5124 9.38649C64.5124 10.0215 64.7716 10.5982 65.1863 11.0194C65.6075 11.4406 66.1842 11.6998 66.8192 11.6998C67.4542 11.6998 68.0309 11.4406 68.4521 11.0194C68.8668 10.5982 69.126 10.0215 69.126 9.38649C69.126 8.745 68.8668 8.16829 68.4521 7.75359ZM84.8846 7.75359C84.4634 7.3324 83.8867 7.0797 83.2517 7.0797C82.6167 7.0797 82.04 7.33889 81.6188 7.75359C81.1976 8.17478 80.9449 8.75147 80.9449 9.38649C80.9449 10.0215 81.2041 10.5982 81.6188 11.0194C82.04 11.4406 82.6167 11.6933 83.2517 11.6933C83.8867 11.6933 84.4634 11.4341 84.8846 11.0194C85.3058 10.5982 85.5585 10.0215 85.5585 9.38649C85.5585 8.745 85.2993 8.16829 84.8846 7.75359ZM101.486 18.51C101.065 18.0888 100.488 17.8361 99.8531 17.8361C99.218 17.8361 98.6413 18.0953 98.2202 18.51C97.799 18.9312 97.5463 19.5079 97.5463 20.1429C97.5463 20.7779 97.8054 21.3546 98.2202 21.7758C98.6349 22.1905 99.2116 22.4497 99.8466 22.4497H99.8595C100.495 22.4497 101.071 22.1905 101.486 21.7758C101.907 21.3546 102.16 20.7779 102.16 20.1429C102.166 19.5014 101.907 18.9247 101.486 18.51ZM79.3375 139.369V131.535H70.6417V139.369C70.6417 139.939 70.1817 140.399 69.6114 140.399H69.605C65.1534 140.672 61.3044 141.261 58.6024 142.058C57.598 142.356 56.7686 142.648 56.1659 142.94H93.8126C93.2035 142.648 92.3806 142.356 91.3762 142.058C88.6547 141.261 84.7862 140.665 80.3088 140.399C79.7645 140.367 79.3433 139.913 79.3433 139.376L79.3375 139.369ZM102.891 96.474C101.161 99.4548 99.0873 102.027 96.7547 104.185C96.7353 104.204 96.7093 104.224 96.6899 104.243C94.8173 105.967 92.7826 107.431 90.6379 108.623C89.2123 109.414 87.7414 110.094 86.2318 110.652C86.7825 110.218 87.3139 109.744 87.8063 109.246C91.0851 105.967 93.1132 101.431 93.1132 96.4286C93.1132 91.4198 91.085 86.8904 87.8063 83.6116C87.4564 83.2617 87.0936 82.9248 86.7177 82.6073C88.4932 83.3654 90.2298 84.2984 91.9145 85.413C95.9578 88.0762 99.6964 91.7697 102.891 96.474ZM63.2603 82.6074C62.8845 82.9249 62.5217 83.2618 62.1717 83.6117C58.8929 86.8906 56.8649 91.4262 56.8649 96.4287C56.8649 101.437 58.8931 105.967 62.1717 109.246C62.6707 109.745 63.1955 110.211 63.7463 110.652C62.2365 110.095 60.7656 109.414 59.3402 108.624C57.1953 107.425 55.1608 105.967 53.2882 104.243C53.2687 104.224 53.2428 104.204 53.2234 104.185C50.8972 102.027 48.8173 99.4612 47.0871 96.4742C50.2817 91.7635 54.0204 88.0764 58.0638 85.4068C59.7485 84.2987 61.4849 83.3655 63.2603 82.6074ZM86.3543 85.0697C89.2637 87.9791 91.0585 91.9966 91.0585 96.4352C91.0585 100.874 89.2572 104.891 86.3543 107.801C83.4449 110.71 79.4274 112.505 74.9888 112.505C70.5501 112.505 66.5327 110.704 63.6233 107.801C60.7139 104.891 58.9191 100.874 58.9191 96.4352C58.9191 91.9966 60.7204 87.9791 63.6233 85.0697C66.5327 82.1603 70.5501 80.3655 74.9888 80.3655C79.4274 80.359 83.4449 82.1603 86.3543 85.0697ZM92.0759 54.8545L95.9638 53.3642H122.75C123.768 53.3642 124.694 53.7789 125.368 54.4528C126.042 55.1266 126.457 56.0532 126.457 57.0705V120.306C126.457 121.323 126.035 122.25 125.368 122.924C124.694 123.598 123.768 124.012 122.75 124.012H27.226C26.2087 124.012 25.2821 123.598 24.6082 122.924C23.9344 122.25 23.5196 121.323 23.5196 120.306V57.0705C23.5196 56.0532 23.9408 55.1266 24.6082 54.4528C25.2821 53.7789 26.2087 53.3642 27.226 53.3642H54.0125L57.9004 54.8545C58.0559 55.347 58.2309 55.8329 58.4317 56.306C58.6261 56.779 58.8464 57.252 59.0862 57.7121L56.7665 62.9217C56.5527 63.3105 56.611 63.8159 56.9414 64.1464L60.2979 67.5028C60.6284 67.8333 61.1338 67.8916 61.5226 67.6778L66.7322 65.3581C67.1923 65.5979 67.6588 65.8182 68.1383 66.0126C68.6113 66.207 69.0973 66.3884 69.5898 66.5439L71.6439 71.8962C71.78 72.3044 72.1687 72.609 72.6223 72.609H77.3655C77.8191 72.609 78.2079 72.3109 78.3439 71.8962L80.398 66.5439C80.8905 66.3884 81.3765 66.2134 81.8495 66.0126C82.3225 65.8182 82.7955 65.5979 83.2556 65.3581L88.4653 67.6778C88.8605 67.8916 89.3595 67.8333 89.6899 67.5028L93.0464 64.1464C93.3768 63.8159 93.4352 63.3105 93.2213 62.9217L90.9016 57.7121C91.1414 57.252 91.3617 56.7855 91.5561 56.306C91.7375 55.8329 91.9203 55.347 92.0759 54.8545ZM54.5187 51.3554L53.8902 51.1157V47.7916L59.1063 45.7959C59.4368 45.6727 59.6636 45.3941 59.7413 45.0701C59.9033 44.4999 60.1042 43.9362 60.331 43.3854C60.5707 42.8087 60.8364 42.258 61.128 41.7331C61.29 41.435 61.2965 41.0981 61.1669 40.813L58.8925 35.7199L61.2511 33.3613L66.3507 35.6357C66.6552 35.7718 66.9986 35.7458 67.2708 35.5903C67.7957 35.2987 68.3464 35.0331 68.9166 34.7933C69.4739 34.5601 70.0506 34.3592 70.6403 34.1907C70.9643 34.1 71.2105 33.8602 71.3207 33.5686L73.3164 28.359H76.647L78.6427 33.5686C78.7593 33.8862 79.0185 34.1065 79.3231 34.1907C79.9192 34.3592 80.4959 34.5601 81.0467 34.7933C81.6234 35.0331 82.1742 35.2987 82.699 35.5903C82.9971 35.7523 83.3341 35.7588 83.6192 35.6292L86.3341 34.4175L88.7122 33.3548L91.0709 35.7135L88.7965 40.813C88.6604 41.1175 88.6863 41.461 88.8418 41.7331C89.1334 42.258 89.3991 42.8023 89.6388 43.379C89.8656 43.9362 90.0665 44.5129 90.2415 45.1026C90.3322 45.4331 90.5784 45.6794 90.8765 45.7895L96.0797 47.7787V51.1093L95.4187 51.362H95.4122L90.8699 53.1051C90.5395 53.2282 90.3127 53.5068 90.2349 53.8308L90.209 53.8826L90.2025 53.9021L90.196 53.915L90.1896 53.9345V53.9474L90.1831 53.9669L90.196 53.9734L90.1896 53.9928V53.9993L90.1831 54.0187V54.0252L90.1766 54.0446V54.0511L90.1701 54.0706V54.077L90.1572 54.0965V54.103L90.1507 54.1224V54.1289L90.1442 54.1483V54.1548L90.1377 54.1742V54.1807L90.1312 54.2066V54.2131L90.1248 54.239V54.2455L90.0535 54.5306V54.5371L90.047 54.5565V54.563L90.0405 54.5825V54.5889L90.034 54.6084V54.6149L90.0276 54.6343V54.6408L90.0211 54.6602V54.6667L90.0146 54.6861V54.6926L90.0081 54.7185L90.0016 54.738L89.9952 54.7445L89.9887 54.7639L89.9822 54.7704L89.9757 54.7898L89.9693 54.8028L89.9628 54.8222L89.898 54.9518L89.8591 54.9648L89.8461 54.9907V55.0036L89.7943 55.1073L89.7878 55.1268L89.7813 55.1332L89.7749 55.1527L89.7684 55.1592L89.7619 55.1786L89.7554 55.1851L89.7489 55.2045V55.211L89.7425 55.2304V55.2369L89.736 55.2564V55.2628L89.7295 55.2823V55.3147L89.7101 55.36V55.3665L89.7036 55.386V55.3924L89.6906 55.4184L89.6777 55.4378L89.5869 55.6192V55.6516L89.3537 56.1182L89.3666 56.157L89.1852 56.5199H89.1917L89.1787 56.5458L89.1658 56.5653V56.5717L89.088 56.6884V56.6949L89.0621 56.7337V56.7402L89.0491 56.7597V56.7661L89.0103 56.8245V56.8309L88.9973 56.8504V56.8569L88.9843 56.8763V56.8828L88.9714 56.9022V56.9087L88.9584 56.9281V56.9346L88.9455 56.9541V56.9605L88.9325 56.98V56.9865L88.9195 57.0059V57.0124L88.9066 57.0318V57.0383L88.8936 57.0577V57.0642L88.8807 57.0836V57.0901L88.8677 57.1096V57.116L88.8547 57.1355V57.142L88.8353 57.1614V57.1679L88.8029 57.2003L88.8094 57.2392V57.2456C88.764 57.3428 88.7381 57.44 88.7251 57.5437V57.602C88.7122 57.764 88.7381 57.9325 88.8094 58.088L88.8159 58.0945V58.101L91.0902 63.194L88.7316 65.5527L83.6256 63.2718H83.6191L83.6127 63.2653C83.4571 63.2005 83.2951 63.1746 83.1396 63.1811H83.1072C83.01 63.1941 82.9064 63.2135 82.8092 63.2589H82.8027L82.7768 63.2718H82.7703L82.7638 63.2783H82.7573L82.7184 63.3172H82.712L82.7055 63.3237H82.699L82.6796 63.3366V63.3237L82.6601 63.3366H82.6536L82.6342 63.3496H82.6277L82.6083 63.3625H82.6018L82.5824 63.3755H82.5759L82.5564 63.3885H82.55L82.5305 63.4014H82.524L82.5046 63.4144H82.4981L82.4787 63.4273H82.4722L82.4528 63.4403H82.4463L82.4268 63.4532H82.4204L82.4009 63.4662H82.3945L82.375 63.4792H82.3685L82.3491 63.4921H82.3426L82.3232 63.5051H82.3167L82.2973 63.518H82.2908L82.2713 63.531H82.2649L82.2454 63.544H82.2389L82.2195 63.5569H82.213L82.1741 63.5828L82.1547 63.6023H82.1482L82.1288 63.6152H82.1223L82.1029 63.6282H82.0964L82.0186 63.68L81.9927 63.693L81.9733 63.706L81.9473 63.7189L81.902 63.7254L81.4614 63.9457H81.429L80.9624 64.179L80.9365 64.1854H80.93L80.9106 64.1919H80.9041L80.8847 64.1984H80.8782L80.8588 64.2049H80.8523L80.8328 64.2114H80.8264L80.8069 64.2178H80.8004L80.781 64.2243H80.7745L80.7551 64.2308L80.7486 64.2373L80.7292 64.2438L80.7227 64.2502L80.7032 64.2567L80.6968 64.2632L80.6773 64.2697L80.6709 64.2762L80.6514 64.2826L80.6449 64.2891L80.6255 64.2956L80.3404 64.4382L80.3209 64.4446L80.308 64.4511L80.2885 64.4576L80.2821 64.4641L80.2626 64.4706L80.2561 64.477L80.2367 64.4835L80.2302 64.49L80.2108 64.4965H80.2043L80.1849 64.503H80.1784L80.1589 64.5094H80.1525L80.133 64.5159H80.1265L80.1071 64.5224H80.1006L80.0812 64.5289H80.0747L80.0553 64.5354H80.0488L80.0229 64.5418H80.0164L79.8609 64.5807L79.8285 64.5613L79.7507 64.5807H79.7442L79.7183 64.5872H79.7118L79.6924 64.5937H79.6859L79.6665 64.6001H79.66L79.6406 64.6066H79.6341L79.6146 64.6131H79.6082L79.5887 64.6196H79.5822L79.5628 64.6261H79.5563L79.5369 64.6325H79.5304L79.511 64.639H79.5045L79.4851 64.6455H79.4786L79.4591 64.652H79.4462L79.4267 64.6585L79.4138 64.6649L79.3943 64.6714L79.3684 64.6844C79.0509 64.7621 78.7723 64.9889 78.6427 65.3194L76.647 70.5291H73.3164L71.3207 65.3194C71.1976 64.9889 70.919 64.7621 70.595 64.6844L70.5172 64.6455L70.4978 64.639L70.4719 64.6325H70.4654L70.4459 64.6261H70.4395L70.42 64.6196H70.4135L70.3941 64.6131H70.3876L70.3682 64.6066H70.3617L70.3423 64.6001H70.3358L70.3163 64.5937H70.3099L70.2904 64.5872H70.284L70.2645 64.5807H70.258L70.2386 64.5742H70.2321L70.2062 64.5677H70.1997L69.9924 64.5159H69.9859L69.9405 64.503H69.934L69.9146 64.4965H69.9081L69.8887 64.49H69.8822L69.8628 64.4835H69.8563L69.8368 64.477H69.8304L69.8045 64.4446H69.798L69.7785 64.4382H69.7721L69.7526 64.4317L69.7461 64.4252L69.6943 64.4058L69.6749 64.3993L69.6684 64.3928L69.6489 64.3863L69.3638 64.2438L69.3444 64.2373L69.3314 64.2308L69.312 64.2243L69.3055 64.2178L69.2861 64.2114L69.2796 64.2049L69.2601 64.1984L69.2537 64.1919L69.2342 64.1854L69.2277 64.179L69.2083 64.1725L69.2018 64.166L69.1824 64.1595H69.1759L69.1565 64.153H69.15L69.1305 64.1466H69.1241L69.1046 64.1401H69.0981L69.0787 64.1336H69.0722L69.0528 64.1271H69.0463L69.0204 64.1206L68.5798 63.9003L68.5474 63.9457L68.0808 63.7124L68.0744 63.7254L67.8411 63.6088L67.8217 63.5958V63.6023L67.705 63.5245H67.6985L67.6791 63.5116H67.6726L67.6532 63.4986H67.6467L67.6078 63.4727H67.6014L67.5819 63.4597H67.5754L67.556 63.4468H67.5495L67.5301 63.4338H67.5236L67.5042 63.4209H67.4977L67.4782 63.4079H67.4718L67.4523 63.3949H67.4458L67.4264 63.382H67.4199L67.4005 63.369H67.394L67.3746 63.356H67.3681L67.3486 63.3431H67.3422L67.3227 63.3301H67.3162L67.2968 63.3172H67.2903L67.2838 63.3107H67.2774L67.2385 63.2718H67.232L67.2255 63.2653H67.219C67.1218 63.22 67.0246 63.1941 66.921 63.1811H66.8756L66.8497 63.1746C66.6877 63.1617 66.5192 63.1876 66.3637 63.2589L66.3508 63.2718L61.2577 65.5462L58.8991 63.1875L61.1734 58.0945V58.088L61.1799 58.0815C61.2447 57.926 61.2706 57.764 61.2642 57.6085V57.5761C61.2512 57.4789 61.2318 57.3753 61.1864 57.278V57.2716L61.1734 57.2456L61.1605 57.2327V57.2262L61.1086 57.1744V57.1679L61.0957 57.1485V57.142L61.0827 57.1225V57.1161L61.0698 57.0966V57.0901L61.0568 57.0707V57.0642L61.0438 57.0448V57.0383L61.0309 57.0189V57.0124L61.0179 56.9929V56.9865L61.005 56.967V56.9605L60.992 56.9411V56.9346L60.9791 56.9152L60.992 56.9217L60.9791 56.9022V56.8957L60.9661 56.8763V56.8698L60.9531 56.8504V56.8439L60.9402 56.8245V56.818L60.9272 56.7985V56.7921L60.9143 56.7726V56.7661L60.9013 56.7467V56.7402L60.8883 56.7208V56.7143L60.8754 56.6949V56.6884L60.8624 56.669V56.6625L60.8495 56.643V56.6366L60.8365 56.6171V56.6106L60.8235 56.5912V56.5847L60.7976 56.5458V56.5394L60.7847 56.5199V56.5134L60.7587 56.4746L60.6162 56.1894L60.6097 56.157L60.4153 55.7683L60.4283 55.7553L60.2598 55.4184L60.2533 55.3924V55.386L60.2468 55.3665L60.2663 55.36L60.2598 55.3406V55.3341L60.2533 55.3147V55.3082L60.2468 55.2888V55.2823L60.2404 55.2628V55.2564L60.2339 55.2369V55.2304L60.2274 55.211L60.2209 55.2045L60.2144 55.1851L60.208 55.1786L60.2015 55.1592L60.195 55.1527L60.1885 55.1332L60.182 55.1268L60.1756 55.1073L60.1302 55.0166V55.0037L60.0265 54.7963L60.0201 54.7769L60.0136 54.7704L60.0071 54.7509L60.0006 54.7445L59.9941 54.725L59.9877 54.7185L59.9812 54.6991V54.6926L59.9747 54.6732V54.6667L59.9682 54.6473V54.6408L59.9617 54.6214V54.6149L59.9553 54.5954V54.589L59.9488 54.5695V54.563L59.9423 54.5436V54.5371L59.9358 54.5177V54.5112L59.9293 54.4853V54.4788L59.8645 54.2196V54.2131L59.8581 54.1872V54.1807L59.8516 54.1613V54.1548L59.8451 54.1354V54.1289L59.8386 54.1095L59.8192 54.0965L59.8127 54.0771V54.0706L59.8062 54.0511V54.0447L59.7997 54.0252V54.0187L59.7933 53.9993V53.9928L59.7803 53.9669V53.9604L59.7738 53.941L59.7673 53.9345L59.7609 53.9151L59.7544 53.9021L59.7479 53.8827L59.722 53.8308C59.6442 53.5133 59.4174 53.2347 59.087 53.1116L54.5966 51.3879C54.5836 51.375 54.5511 51.3619 54.5187 51.3554ZM74.9885 38.5126C78.008 38.5126 80.7425 39.7372 82.7253 41.7136C84.7081 43.6899 85.9263 46.4243 85.9263 49.4504C85.9263 52.47 84.7016 55.2045 82.7253 57.1873C80.7425 59.1701 78.008 60.3883 74.9885 60.3883C71.9689 60.3883 69.2344 59.1636 67.2516 57.1873C65.2688 55.2045 64.0506 52.47 64.0506 49.4504C64.0506 46.4309 65.2753 43.6964 67.2516 41.7136C69.2344 39.7373 71.9689 38.5126 74.9885 38.5126ZM81.2674 43.1715C82.8744 44.7785 83.8657 47.001 83.8657 49.4504C83.8657 51.8998 82.8743 54.1223 81.2674 55.7294C79.6604 57.3364 77.4379 58.3277 74.9885 58.3277C72.5391 58.3277 70.3166 57.3363 68.7095 55.7294C67.1025 54.1224 66.1112 51.9063 66.1112 49.4504C66.1112 47.001 67.1026 44.7786 68.7095 43.1715C70.3165 41.5644 72.5326 40.5731 74.9885 40.5731C77.4379 40.5731 79.6603 41.5645 81.2674 43.1715Z"/>
</mask>
<path fill-rule="evenodd" clip-rule="evenodd" d="M21.8497 129.474H128.136C129.18 129.474 130.119 129.046 130.812 128.359C131.499 127.672 131.927 126.726 131.927 125.683L131.921 51.6918C131.921 50.6486 131.493 49.709 130.806 49.0156C130.119 48.3288 129.173 47.9011 128.13 47.9011L98.1419 47.9076V51.3095H122.752C124.34 51.3095 125.778 51.9574 126.828 53.0006C127.871 54.0439 128.519 55.4889 128.519 57.0763V120.312C128.519 121.899 127.871 123.338 126.828 124.388C125.784 125.431 124.339 126.079 122.752 126.079L27.2278 126.072C25.6402 126.072 24.2018 125.424 23.1521 124.381C22.1088 123.338 21.4609 121.893 21.4609 120.305V57.0699C21.4609 55.4823 22.1089 54.0439 23.1521 52.9942C24.1953 51.9509 25.6403 51.303 27.2278 51.303H51.8445V47.9011L21.8499 47.9076C20.8067 47.9076 19.8606 48.3353 19.1737 49.0221C18.4869 49.709 18.0592 50.655 18.0592 51.6983V125.685C18.0592 126.728 18.4869 127.674 19.1737 128.361C19.8606 129.048 20.8065 129.474 21.8497 129.474ZM67.0788 91.963H65.1609C64.5907 91.963 64.1306 91.503 64.1306 90.9328C64.1306 90.3625 64.5907 89.9025 65.1609 89.9025H67.3187C67.4353 89.6563 67.5973 89.423 67.7917 89.2351L67.7982 89.2286C67.9926 89.0342 68.2194 88.8787 68.4656 88.7556V86.5978C68.4656 86.0276 68.9257 85.5675 69.4959 85.5675C70.0661 85.5675 70.5261 86.0276 70.5261 86.5978V88.5157H71.213V86.5978C71.213 86.0276 71.6731 85.5675 72.2433 85.5675C72.8135 85.5675 73.2735 86.0276 73.2735 86.5978V88.5157H73.9604V86.5978C73.9604 86.0276 74.4204 85.5675 74.9907 85.5675C75.5609 85.5675 76.0209 86.0276 76.0209 86.5978V88.5157H76.7078V86.5978C76.7078 86.0276 77.1678 85.5675 77.738 85.5675C78.3083 85.5675 78.7683 86.0276 78.7683 86.5978V88.5157H79.4552V86.5978C79.4552 86.0276 79.9152 85.5675 80.4854 85.5675C81.0556 85.5675 81.5157 86.0276 81.5157 86.5978V88.7556C81.7684 88.8722 81.9952 89.0342 82.1896 89.2286C82.384 89.423 82.546 89.6498 82.6691 89.9025H84.8204C85.3906 89.9025 85.8507 90.3625 85.8507 90.9328C85.8507 91.503 85.3906 91.963 84.8204 91.963H82.9025V92.6499H84.8204C85.3906 92.6499 85.8507 93.1099 85.8507 93.6802C85.8507 94.2504 85.3906 94.7104 84.8204 94.7104H82.9025V95.3973H84.8204C85.3906 95.3973 85.8507 95.8573 85.8507 96.4275C85.8507 96.9978 85.3906 97.4578 84.8204 97.4578H82.9025V98.1447H84.8204C85.3906 98.1447 85.8507 98.6047 85.8507 99.1749C85.8507 99.7451 85.3906 100.205 84.8204 100.205H82.9025V100.892H84.8204C85.3906 100.892 85.8507 101.352 85.8507 101.922C85.8507 102.493 85.3906 102.953 84.8204 102.953H82.6691C82.5525 103.205 82.3905 103.432 82.1896 103.626C81.9952 103.821 81.7684 103.983 81.5157 104.1V106.251C81.5157 106.821 81.0556 107.281 80.4854 107.281C79.9152 107.281 79.4552 106.821 79.4552 106.251V104.326H78.7683V106.251C78.7683 106.821 78.3083 107.281 77.738 107.281C77.1678 107.281 76.7078 106.821 76.7078 106.251V104.326H76.0209V106.251C76.0209 106.821 75.5609 107.281 74.9907 107.281C74.4204 107.281 73.9604 106.821 73.9604 106.251V104.326H73.2735V106.251C73.2735 106.821 72.8135 107.281 72.2433 107.281C71.6731 107.281 71.213 106.821 71.213 106.251V104.326H70.5261V106.251C70.5261 106.821 70.0661 107.281 69.4959 107.281C68.9257 107.281 68.4656 106.821 68.4656 106.251V104.1C68.2129 103.983 67.9861 103.821 67.7917 103.626C67.7658 103.601 67.7464 103.575 67.7204 103.549C67.5584 103.374 67.4224 103.173 67.3187 102.953H65.1609C64.5907 102.953 64.1306 102.493 64.1306 101.922C64.1306 101.352 64.5907 100.892 65.1609 100.892H67.0788V100.205H65.1609C64.5907 100.205 64.1306 99.7451 64.1306 99.1749C64.1306 98.6047 64.5907 98.1446 65.1609 98.1446H67.0788V97.4578H65.1609C64.5907 97.4578 64.1306 96.9977 64.1306 96.4275C64.1306 95.8573 64.5907 95.3973 65.1609 95.3973H67.0788V94.7104H65.1609C64.5907 94.7104 64.1306 94.2504 64.1306 93.6801C64.1306 93.1099 64.5907 92.6499 65.1609 92.6499H67.0788V91.963ZM69.1459 90.9328C69.1459 90.8356 69.1848 90.7448 69.2431 90.6865L69.2496 90.68C69.3144 90.6152 69.3986 90.5828 69.4958 90.5828H80.4854C80.5826 90.5828 80.6733 90.6217 80.7316 90.68C80.7964 90.7448 80.8353 90.8291 80.8353 90.9263V101.916C80.8353 102.013 80.7964 102.097 80.7316 102.162C80.6668 102.227 80.5826 102.266 80.4854 102.266L69.4958 102.279C69.3986 102.279 69.3143 102.24 69.2496 102.175L69.2236 102.149C69.1783 102.091 69.1459 102.013 69.1459 101.929V90.9328ZM32.6653 92.2093C33.8317 92.2093 34.8813 92.6823 35.646 93.4469C36.1774 93.9782 36.5662 94.6456 36.7541 95.3973H45.3333C47.0569 92.8507 48.9296 90.5829 50.9253 88.6L45.5471 84.3105H41.141C40.9531 85.0621 40.5643 85.7296 40.0329 86.2609C39.2683 87.0255 38.2121 87.4985 37.0522 87.4985C35.8859 87.4985 34.8362 87.0255 34.0715 86.2609C33.3069 85.4963 32.8339 84.44 32.8339 83.2802C32.8339 82.1139 33.3069 81.0642 34.0715 80.2995C34.8361 79.5349 35.8924 79.0619 37.0522 79.0619C38.2186 79.0619 39.2682 79.5349 40.0329 80.2995C40.5643 80.8308 40.9531 81.4982 41.141 82.2499H45.9036C46.1304 82.2499 46.3572 82.3212 46.5451 82.4702L52.4352 87.168C53.8802 85.8655 55.3834 84.7056 56.932 83.6883C62.5693 79.9689 68.7834 78.1027 74.9915 78.1027C81.2056 78.1027 87.4132 79.9624 93.051 83.6883C94.5996 84.7056 96.0964 85.8719 97.5478 87.168L103.438 82.4702C103.626 82.3212 103.853 82.2499 104.079 82.2499H108.842C109.03 81.4983 109.419 80.8309 109.95 80.2995C110.715 79.5349 111.771 79.0619 112.931 79.0619C114.097 79.0619 115.147 79.5349 115.912 80.2995C116.676 81.0641 117.149 82.1204 117.149 83.2802C117.149 84.4465 116.676 85.4962 115.912 86.2609C115.147 87.0255 114.091 87.4985 112.931 87.4985C111.764 87.4985 110.715 87.0255 109.95 86.2609C109.419 85.7296 109.03 85.0622 108.842 84.3105H104.436L99.0577 88.6C101.053 90.5828 102.933 92.8507 104.65 95.3973H113.229C113.417 94.6457 113.806 93.9782 114.337 93.4469C115.102 92.6823 116.158 92.2093 117.318 92.2093C118.484 92.2093 119.534 92.6823 120.298 93.4469C121.063 94.2115 121.536 95.2678 121.536 96.4276C121.536 97.594 121.063 98.6436 120.298 99.4083C119.534 100.173 118.478 100.646 117.318 100.646C116.151 100.646 115.102 100.173 114.337 99.4083C113.806 98.877 113.417 98.2096 113.229 97.4579H104.695C103.062 100.283 101.131 102.765 98.9801 104.897L104.352 109.186H108.758C108.946 108.435 109.335 107.767 109.866 107.236C110.631 106.471 111.687 105.998 112.847 105.998C114.013 105.998 115.063 106.471 115.827 107.236C116.592 108 117.065 109.057 117.065 110.216C117.065 111.383 116.592 112.432 115.827 113.197C115.063 113.962 114.007 114.435 112.847 114.435C111.68 114.435 110.631 113.962 109.866 113.197C109.335 112.666 108.946 111.998 108.758 111.247H103.995C103.769 111.247 103.542 111.175 103.354 111.026L97.4573 106.322C95.6364 107.916 93.6861 109.284 91.632 110.424C86.4806 113.295 80.7331 114.727 74.9859 114.727C69.2386 114.727 63.4908 113.295 58.3397 110.424C56.2921 109.284 54.3352 107.916 52.5209 106.322L46.6244 111.026C46.4365 111.175 46.2097 111.247 45.9829 111.247H41.2203C41.0324 111.998 40.6436 112.666 40.1122 113.197C39.3476 113.962 38.2913 114.435 37.1315 114.435C35.9652 114.435 34.9155 113.962 34.1508 113.197C33.3862 112.433 32.9132 111.376 32.9132 110.216C32.9132 109.05 33.3862 108 34.1508 107.236C34.9154 106.471 35.9717 105.998 37.1315 105.998C38.2979 105.998 39.3475 106.471 40.1122 107.236C40.6436 107.767 41.0324 108.434 41.2203 109.186H45.6264L50.9981 104.897C48.8468 102.765 46.916 100.29 45.283 97.4579H36.7493C36.5614 98.2095 36.1726 98.8769 35.6412 99.4083C34.8766 100.173 33.8204 100.646 32.6605 100.646C31.4942 100.646 30.4445 100.173 29.6798 99.4083C28.9152 98.6437 28.4422 97.5874 28.4422 96.4276C28.4422 95.2613 28.9152 94.2116 29.6798 93.4469C30.4509 92.6823 31.499 92.2093 32.6653 92.2093ZM34.1881 94.9048C34.5769 95.2936 34.8231 95.8314 34.8231 96.4276C34.8231 97.0237 34.5833 97.5615 34.1881 97.9503C33.7993 98.3391 33.2615 98.5853 32.6653 98.5853C32.0692 98.5853 31.5314 98.3456 31.1426 97.9503C30.7538 97.5615 30.5076 97.0237 30.5076 96.4276C30.5076 95.8314 30.7473 95.2936 31.1426 94.9048C31.5314 94.516 32.0692 94.2698 32.6653 94.2698C33.2615 94.2698 33.7993 94.5161 34.1881 94.9048ZM117.316 94.2698C117.912 94.2698 118.45 94.5096 118.839 94.9048C119.228 95.2936 119.474 95.8314 119.474 96.4276C119.474 97.0237 119.234 97.5615 118.839 97.9503C118.45 98.3391 117.912 98.5853 117.316 98.5853C116.72 98.5853 116.182 98.3456 115.793 97.9503C115.404 97.5615 115.158 97.0237 115.158 96.4276C115.158 95.8314 115.398 95.2936 115.793 94.9048C116.182 94.516 116.72 94.2698 117.316 94.2698ZM112.851 108.059C113.448 108.059 113.985 108.298 114.374 108.694C114.763 109.082 115.009 109.62 115.009 110.216C115.009 110.813 114.769 111.35 114.374 111.739C113.985 112.128 113.448 112.374 112.851 112.374C112.255 112.374 111.718 112.134 111.329 111.739C110.94 111.35 110.694 110.813 110.694 110.216C110.694 109.62 110.933 109.082 111.329 108.694C111.711 108.298 112.255 108.059 112.851 108.059ZM112.929 81.1296C113.525 81.1296 114.063 81.3693 114.452 81.7646C114.841 82.1534 115.081 82.6912 115.081 83.2873C115.081 83.8834 114.841 84.4212 114.446 84.81C114.057 85.1988 113.519 85.445 112.923 85.445C112.327 85.445 111.789 85.2053 111.4 84.81C111.011 84.4212 110.771 83.8834 110.771 83.2873C110.771 82.6912 111.011 82.1534 111.4 81.7646C111.789 81.3693 112.333 81.1296 112.929 81.1296ZM37.1299 108.059C37.7261 108.059 38.2639 108.298 38.6527 108.694C39.0415 109.082 39.2877 109.62 39.2877 110.216C39.2877 110.813 39.0479 111.35 38.6527 111.739C38.2639 112.128 37.7261 112.374 37.1299 112.374C36.5338 112.374 35.996 112.134 35.6072 111.739C35.2184 111.35 34.9722 110.813 34.9722 110.216C34.9722 109.62 35.2119 109.082 35.6072 108.694C35.996 108.298 36.5338 108.059 37.1299 108.059ZM37.0522 81.1296C37.6483 81.1296 38.1861 81.3693 38.5749 81.7646C38.9637 82.1534 39.2099 82.6912 39.2099 83.2873C39.2099 83.8834 38.9702 84.4212 38.5749 84.81C38.1861 85.1988 37.6483 85.445 37.0522 85.445C36.456 85.445 35.9182 85.2053 35.5294 84.81C35.1406 84.4212 34.8944 83.8834 34.8944 83.2873C34.8944 82.6912 35.1342 82.1534 35.5294 81.7646C35.9182 81.3693 36.456 81.1296 37.0522 81.1296ZM50.1282 15.7691C51.3335 15.7691 52.4285 16.2551 53.2191 17.0521C54.0096 17.8426 54.5021 18.9377 54.5021 20.143C54.5021 21.3482 54.0161 22.4432 53.2191 23.2338C52.6618 23.7911 51.9556 24.1993 51.1585 24.3937V38.8954L58.1761 43.2627C58.2604 43.0359 58.3446 42.8156 58.4353 42.5953C58.6297 42.1222 58.85 41.6557 59.0898 41.1892L56.7311 35.9017C56.5561 35.5 56.6533 35.0529 56.9449 34.7548L60.3014 31.3984C60.6318 31.0679 61.1373 31.0096 61.526 31.2234L65.7573 33.109L65.7962 13.6246C65.0057 13.4367 64.2929 13.022 63.7356 12.4647C62.9451 11.6742 62.4526 10.5791 62.4526 9.37385C62.4526 8.16863 62.9386 7.07358 63.7356 6.28299C64.5262 5.49247 65.6212 5 66.8265 5C68.0318 5 69.1268 5.48598 69.9174 6.28299C70.7079 7.07351 71.2003 8.16856 71.2003 9.37385C71.2003 10.5791 70.7144 11.6741 69.9174 12.4647C69.3601 13.022 68.6473 13.4302 67.8503 13.6246L67.8114 33.031C67.9216 32.9856 68.0317 32.9338 68.1419 32.8884C68.6149 32.6941 69.1009 32.5126 69.5934 32.3571L71.6604 26.9595C71.8159 26.5513 72.2112 26.2986 72.6259 26.2986H77.3691C77.8227 26.2986 78.2114 26.5966 78.3475 27.0114L80.4016 32.3637C80.8941 32.5192 81.3801 32.6941 81.8531 32.895C81.9632 32.9404 82.0799 32.9922 82.19 33.0376L82.2289 13.6311C81.4384 13.4367 80.7256 13.0285 80.1683 12.4713C79.3778 11.6807 78.8853 10.5857 78.8853 9.3804C78.8853 8.17511 79.3713 7.08013 80.1683 6.28954C80.9588 5.49902 82.0539 5.00655 83.2592 5.00655C84.4645 5.00655 85.5595 5.49254 86.35 6.28954C87.1406 7.08007 87.633 8.17511 87.633 9.3804C87.633 10.5857 87.147 11.6807 86.35 12.4713C85.7928 13.0285 85.08 13.4367 84.283 13.6311L84.2441 33.1089L88.5401 31.191C88.9419 31.0095 89.3954 31.1067 89.687 31.4048L93.0435 34.7612C93.3739 35.0917 93.4322 35.5971 93.2184 35.9859L90.8987 41.1956C91.1385 41.6556 91.3588 42.1222 91.5532 42.6017C91.6439 42.822 91.7346 43.0488 91.8124 43.2691L98.83 38.8953V24.3936C98.0394 24.1993 97.3267 23.791 96.7694 23.2338C95.9789 22.4432 95.4864 21.3482 95.4864 20.1429C95.4864 18.9377 95.9724 17.8426 96.7694 17.0521C97.5599 16.2615 98.655 15.7691 99.8603 15.7691C101.065 15.7691 102.161 16.255 102.951 17.0521C103.742 17.8426 104.234 18.9376 104.234 20.1429C104.234 21.3481 103.748 22.4432 102.951 23.2338C102.394 23.791 101.688 24.1993 100.891 24.3936V39.4654C100.891 39.8088 100.716 40.1458 100.405 40.3402L93.5426 44.6103L96.7694 45.8479H128.138C129.745 45.8479 131.209 46.5088 132.265 47.5651C133.321 48.6213 133.982 50.0857 133.982 51.6927L133.969 125.684C133.969 127.291 133.308 128.755 132.252 129.812C131.196 130.868 129.732 131.529 128.125 131.529L81.3992 131.535V138.41C85.624 138.715 89.2915 139.304 91.9547 140.088C95.1299 141.021 97.0219 142.343 97.0478 143.937V143.97C97.0478 144.54 96.5877 145 96.0175 145H53.9584C53.3882 145 52.9281 144.54 52.9281 143.97C52.9281 142.363 54.8266 141.022 58.0212 140.088C60.6844 139.304 64.3583 138.715 68.5767 138.41V131.535H21.8513C20.2443 131.535 18.7798 130.881 17.7237 129.818C16.6675 128.762 16.0065 127.298 16.0065 125.69L16 51.6926C16 50.0857 16.6544 48.6212 17.7172 47.565C18.7734 46.5088 20.2378 45.8478 21.8448 45.8478H53.2129L56.4398 44.6102L49.5778 40.3401C49.2668 40.1457 49.0918 39.8087 49.0918 39.4653V24.3935C48.3013 24.1991 47.595 23.7909 47.0312 23.2337C46.2407 22.4431 45.7483 21.3481 45.7483 20.1428C45.7483 18.9376 46.2342 17.8425 47.0312 17.0519C47.8283 16.2614 48.9229 15.7691 50.1282 15.7691ZM51.7611 18.51C51.3399 18.0953 50.7633 17.8361 50.1282 17.8361C49.4932 17.8361 48.9165 18.0953 48.4953 18.51C48.0742 18.9312 47.815 19.5079 47.815 20.1429C47.815 20.7779 48.0742 21.3546 48.4953 21.7758C48.91 22.1905 49.4867 22.4497 50.1218 22.4497H50.1347C50.7697 22.4497 51.3464 22.1905 51.7611 21.7758C52.1823 21.3546 52.435 20.7779 52.435 20.1429C52.435 19.5014 52.1758 18.9247 51.7611 18.51ZM68.4521 7.75359C68.0309 7.3324 67.4542 7.0797 66.8192 7.0797C66.1842 7.0797 65.6075 7.33889 65.1863 7.75359C64.7651 8.16829 64.5124 8.75147 64.5124 9.38649C64.5124 10.0215 64.7716 10.5982 65.1863 11.0194C65.6075 11.4406 66.1842 11.6998 66.8192 11.6998C67.4542 11.6998 68.0309 11.4406 68.4521 11.0194C68.8668 10.5982 69.126 10.0215 69.126 9.38649C69.126 8.745 68.8668 8.16829 68.4521 7.75359ZM84.8846 7.75359C84.4634 7.3324 83.8867 7.0797 83.2517 7.0797C82.6167 7.0797 82.04 7.33889 81.6188 7.75359C81.1976 8.17478 80.9449 8.75147 80.9449 9.38649C80.9449 10.0215 81.2041 10.5982 81.6188 11.0194C82.04 11.4406 82.6167 11.6933 83.2517 11.6933C83.8867 11.6933 84.4634 11.4341 84.8846 11.0194C85.3058 10.5982 85.5585 10.0215 85.5585 9.38649C85.5585 8.745 85.2993 8.16829 84.8846 7.75359ZM101.486 18.51C101.065 18.0888 100.488 17.8361 99.8531 17.8361C99.218 17.8361 98.6413 18.0953 98.2202 18.51C97.799 18.9312 97.5463 19.5079 97.5463 20.1429C97.5463 20.7779 97.8054 21.3546 98.2202 21.7758C98.6349 22.1905 99.2116 22.4497 99.8466 22.4497H99.8595C100.495 22.4497 101.071 22.1905 101.486 21.7758C101.907 21.3546 102.16 20.7779 102.16 20.1429C102.166 19.5014 101.907 18.9247 101.486 18.51ZM79.3375 139.369V131.535H70.6417V139.369C70.6417 139.939 70.1817 140.399 69.6114 140.399H69.605C65.1534 140.672 61.3044 141.261 58.6024 142.058C57.598 142.356 56.7686 142.648 56.1659 142.94H93.8126C93.2035 142.648 92.3806 142.356 91.3762 142.058C88.6547 141.261 84.7862 140.665 80.3088 140.399C79.7645 140.367 79.3433 139.913 79.3433 139.376L79.3375 139.369ZM102.891 96.474C101.161 99.4548 99.0873 102.027 96.7547 104.185C96.7353 104.204 96.7093 104.224 96.6899 104.243C94.8173 105.967 92.7826 107.431 90.6379 108.623C89.2123 109.414 87.7414 110.094 86.2318 110.652C86.7825 110.218 87.3139 109.744 87.8063 109.246C91.0851 105.967 93.1132 101.431 93.1132 96.4286C93.1132 91.4198 91.085 86.8904 87.8063 83.6116C87.4564 83.2617 87.0936 82.9248 86.7177 82.6073C88.4932 83.3654 90.2298 84.2984 91.9145 85.413C95.9578 88.0762 99.6964 91.7697 102.891 96.474ZM63.2603 82.6074C62.8845 82.9249 62.5217 83.2618 62.1717 83.6117C58.8929 86.8906 56.8649 91.4262 56.8649 96.4287C56.8649 101.437 58.8931 105.967 62.1717 109.246C62.6707 109.745 63.1955 110.211 63.7463 110.652C62.2365 110.095 60.7656 109.414 59.3402 108.624C57.1953 107.425 55.1608 105.967 53.2882 104.243C53.2687 104.224 53.2428 104.204 53.2234 104.185C50.8972 102.027 48.8173 99.4612 47.0871 96.4742C50.2817 91.7635 54.0204 88.0764 58.0638 85.4068C59.7485 84.2987 61.4849 83.3655 63.2603 82.6074ZM86.3543 85.0697C89.2637 87.9791 91.0585 91.9966 91.0585 96.4352C91.0585 100.874 89.2572 104.891 86.3543 107.801C83.4449 110.71 79.4274 112.505 74.9888 112.505C70.5501 112.505 66.5327 110.704 63.6233 107.801C60.7139 104.891 58.9191 100.874 58.9191 96.4352C58.9191 91.9966 60.7204 87.9791 63.6233 85.0697C66.5327 82.1603 70.5501 80.3655 74.9888 80.3655C79.4274 80.359 83.4449 82.1603 86.3543 85.0697ZM92.0759 54.8545L95.9638 53.3642H122.75C123.768 53.3642 124.694 53.7789 125.368 54.4528C126.042 55.1266 126.457 56.0532 126.457 57.0705V120.306C126.457 121.323 126.035 122.25 125.368 122.924C124.694 123.598 123.768 124.012 122.75 124.012H27.226C26.2087 124.012 25.2821 123.598 24.6082 122.924C23.9344 122.25 23.5196 121.323 23.5196 120.306V57.0705C23.5196 56.0532 23.9408 55.1266 24.6082 54.4528C25.2821 53.7789 26.2087 53.3642 27.226 53.3642H54.0125L57.9004 54.8545C58.0559 55.347 58.2309 55.8329 58.4317 56.306C58.6261 56.779 58.8464 57.252 59.0862 57.7121L56.7665 62.9217C56.5527 63.3105 56.611 63.8159 56.9414 64.1464L60.2979 67.5028C60.6284 67.8333 61.1338 67.8916 61.5226 67.6778L66.7322 65.3581C67.1923 65.5979 67.6588 65.8182 68.1383 66.0126C68.6113 66.207 69.0973 66.3884 69.5898 66.5439L71.6439 71.8962C71.78 72.3044 72.1687 72.609 72.6223 72.609H77.3655C77.8191 72.609 78.2079 72.3109 78.3439 71.8962L80.398 66.5439C80.8905 66.3884 81.3765 66.2134 81.8495 66.0126C82.3225 65.8182 82.7955 65.5979 83.2556 65.3581L88.4653 67.6778C88.8605 67.8916 89.3595 67.8333 89.6899 67.5028L93.0464 64.1464C93.3768 63.8159 93.4352 63.3105 93.2213 62.9217L90.9016 57.7121C91.1414 57.252 91.3617 56.7855 91.5561 56.306C91.7375 55.8329 91.9203 55.347 92.0759 54.8545ZM54.5187 51.3554L53.8902 51.1157V47.7916L59.1063 45.7959C59.4368 45.6727 59.6636 45.3941 59.7413 45.0701C59.9033 44.4999 60.1042 43.9362 60.331 43.3854C60.5707 42.8087 60.8364 42.258 61.128 41.7331C61.29 41.435 61.2965 41.0981 61.1669 40.813L58.8925 35.7199L61.2511 33.3613L66.3507 35.6357C66.6552 35.7718 66.9986 35.7458 67.2708 35.5903C67.7957 35.2987 68.3464 35.0331 68.9166 34.7933C69.4739 34.5601 70.0506 34.3592 70.6403 34.1907C70.9643 34.1 71.2105 33.8602 71.3207 33.5686L73.3164 28.359H76.647L78.6427 33.5686C78.7593 33.8862 79.0185 34.1065 79.3231 34.1907C79.9192 34.3592 80.4959 34.5601 81.0467 34.7933C81.6234 35.0331 82.1742 35.2987 82.699 35.5903C82.9971 35.7523 83.3341 35.7588 83.6192 35.6292L86.3341 34.4175L88.7122 33.3548L91.0709 35.7135L88.7965 40.813C88.6604 41.1175 88.6863 41.461 88.8418 41.7331C89.1334 42.258 89.3991 42.8023 89.6388 43.379C89.8656 43.9362 90.0665 44.5129 90.2415 45.1026C90.3322 45.4331 90.5784 45.6794 90.8765 45.7895L96.0797 47.7787V51.1093L95.4187 51.362H95.4122L90.8699 53.1051C90.5395 53.2282 90.3127 53.5068 90.2349 53.8308L90.209 53.8826L90.2025 53.9021L90.196 53.915L90.1896 53.9345V53.9474L90.1831 53.9669L90.196 53.9734L90.1896 53.9928V53.9993L90.1831 54.0187V54.0252L90.1766 54.0446V54.0511L90.1701 54.0706V54.077L90.1572 54.0965V54.103L90.1507 54.1224V54.1289L90.1442 54.1483V54.1548L90.1377 54.1742V54.1807L90.1312 54.2066V54.2131L90.1248 54.239V54.2455L90.0535 54.5306V54.5371L90.047 54.5565V54.563L90.0405 54.5825V54.5889L90.034 54.6084V54.6149L90.0276 54.6343V54.6408L90.0211 54.6602V54.6667L90.0146 54.6861V54.6926L90.0081 54.7185L90.0016 54.738L89.9952 54.7445L89.9887 54.7639L89.9822 54.7704L89.9757 54.7898L89.9693 54.8028L89.9628 54.8222L89.898 54.9518L89.8591 54.9648L89.8461 54.9907V55.0036L89.7943 55.1073L89.7878 55.1268L89.7813 55.1332L89.7749 55.1527L89.7684 55.1592L89.7619 55.1786L89.7554 55.1851L89.7489 55.2045V55.211L89.7425 55.2304V55.2369L89.736 55.2564V55.2628L89.7295 55.2823V55.3147L89.7101 55.36V55.3665L89.7036 55.386V55.3924L89.6906 55.4184L89.6777 55.4378L89.5869 55.6192V55.6516L89.3537 56.1182L89.3666 56.157L89.1852 56.5199H89.1917L89.1787 56.5458L89.1658 56.5653V56.5717L89.088 56.6884V56.6949L89.0621 56.7337V56.7402L89.0491 56.7597V56.7661L89.0103 56.8245V56.8309L88.9973 56.8504V56.8569L88.9843 56.8763V56.8828L88.9714 56.9022V56.9087L88.9584 56.9281V56.9346L88.9455 56.9541V56.9605L88.9325 56.98V56.9865L88.9195 57.0059V57.0124L88.9066 57.0318V57.0383L88.8936 57.0577V57.0642L88.8807 57.0836V57.0901L88.8677 57.1096V57.116L88.8547 57.1355V57.142L88.8353 57.1614V57.1679L88.8029 57.2003L88.8094 57.2392V57.2456C88.764 57.3428 88.7381 57.44 88.7251 57.5437V57.602C88.7122 57.764 88.7381 57.9325 88.8094 58.088L88.8159 58.0945V58.101L91.0902 63.194L88.7316 65.5527L83.6256 63.2718H83.6191L83.6127 63.2653C83.4571 63.2005 83.2951 63.1746 83.1396 63.1811H83.1072C83.01 63.1941 82.9064 63.2135 82.8092 63.2589H82.8027L82.7768 63.2718H82.7703L82.7638 63.2783H82.7573L82.7184 63.3172H82.712L82.7055 63.3237H82.699L82.6796 63.3366V63.3237L82.6601 63.3366H82.6536L82.6342 63.3496H82.6277L82.6083 63.3625H82.6018L82.5824 63.3755H82.5759L82.5564 63.3885H82.55L82.5305 63.4014H82.524L82.5046 63.4144H82.4981L82.4787 63.4273H82.4722L82.4528 63.4403H82.4463L82.4268 63.4532H82.4204L82.4009 63.4662H82.3945L82.375 63.4792H82.3685L82.3491 63.4921H82.3426L82.3232 63.5051H82.3167L82.2973 63.518H82.2908L82.2713 63.531H82.2649L82.2454 63.544H82.2389L82.2195 63.5569H82.213L82.1741 63.5828L82.1547 63.6023H82.1482L82.1288 63.6152H82.1223L82.1029 63.6282H82.0964L82.0186 63.68L81.9927 63.693L81.9733 63.706L81.9473 63.7189L81.902 63.7254L81.4614 63.9457H81.429L80.9624 64.179L80.9365 64.1854H80.93L80.9106 64.1919H80.9041L80.8847 64.1984H80.8782L80.8588 64.2049H80.8523L80.8328 64.2114H80.8264L80.8069 64.2178H80.8004L80.781 64.2243H80.7745L80.7551 64.2308L80.7486 64.2373L80.7292 64.2438L80.7227 64.2502L80.7032 64.2567L80.6968 64.2632L80.6773 64.2697L80.6709 64.2762L80.6514 64.2826L80.6449 64.2891L80.6255 64.2956L80.3404 64.4382L80.3209 64.4446L80.308 64.4511L80.2885 64.4576L80.2821 64.4641L80.2626 64.4706L80.2561 64.477L80.2367 64.4835L80.2302 64.49L80.2108 64.4965H80.2043L80.1849 64.503H80.1784L80.1589 64.5094H80.1525L80.133 64.5159H80.1265L80.1071 64.5224H80.1006L80.0812 64.5289H80.0747L80.0553 64.5354H80.0488L80.0229 64.5418H80.0164L79.8609 64.5807L79.8285 64.5613L79.7507 64.5807H79.7442L79.7183 64.5872H79.7118L79.6924 64.5937H79.6859L79.6665 64.6001H79.66L79.6406 64.6066H79.6341L79.6146 64.6131H79.6082L79.5887 64.6196H79.5822L79.5628 64.6261H79.5563L79.5369 64.6325H79.5304L79.511 64.639H79.5045L79.4851 64.6455H79.4786L79.4591 64.652H79.4462L79.4267 64.6585L79.4138 64.6649L79.3943 64.6714L79.3684 64.6844C79.0509 64.7621 78.7723 64.9889 78.6427 65.3194L76.647 70.5291H73.3164L71.3207 65.3194C71.1976 64.9889 70.919 64.7621 70.595 64.6844L70.5172 64.6455L70.4978 64.639L70.4719 64.6325H70.4654L70.4459 64.6261H70.4395L70.42 64.6196H70.4135L70.3941 64.6131H70.3876L70.3682 64.6066H70.3617L70.3423 64.6001H70.3358L70.3163 64.5937H70.3099L70.2904 64.5872H70.284L70.2645 64.5807H70.258L70.2386 64.5742H70.2321L70.2062 64.5677H70.1997L69.9924 64.5159H69.9859L69.9405 64.503H69.934L69.9146 64.4965H69.9081L69.8887 64.49H69.8822L69.8628 64.4835H69.8563L69.8368 64.477H69.8304L69.8045 64.4446H69.798L69.7785 64.4382H69.7721L69.7526 64.4317L69.7461 64.4252L69.6943 64.4058L69.6749 64.3993L69.6684 64.3928L69.6489 64.3863L69.3638 64.2438L69.3444 64.2373L69.3314 64.2308L69.312 64.2243L69.3055 64.2178L69.2861 64.2114L69.2796 64.2049L69.2601 64.1984L69.2537 64.1919L69.2342 64.1854L69.2277 64.179L69.2083 64.1725L69.2018 64.166L69.1824 64.1595H69.1759L69.1565 64.153H69.15L69.1305 64.1466H69.1241L69.1046 64.1401H69.0981L69.0787 64.1336H69.0722L69.0528 64.1271H69.0463L69.0204 64.1206L68.5798 63.9003L68.5474 63.9457L68.0808 63.7124L68.0744 63.7254L67.8411 63.6088L67.8217 63.5958V63.6023L67.705 63.5245H67.6985L67.6791 63.5116H67.6726L67.6532 63.4986H67.6467L67.6078 63.4727H67.6014L67.5819 63.4597H67.5754L67.556 63.4468H67.5495L67.5301 63.4338H67.5236L67.5042 63.4209H67.4977L67.4782 63.4079H67.4718L67.4523 63.3949H67.4458L67.4264 63.382H67.4199L67.4005 63.369H67.394L67.3746 63.356H67.3681L67.3486 63.3431H67.3422L67.3227 63.3301H67.3162L67.2968 63.3172H67.2903L67.2838 63.3107H67.2774L67.2385 63.2718H67.232L67.2255 63.2653H67.219C67.1218 63.22 67.0246 63.1941 66.921 63.1811H66.8756L66.8497 63.1746C66.6877 63.1617 66.5192 63.1876 66.3637 63.2589L66.3508 63.2718L61.2577 65.5462L58.8991 63.1875L61.1734 58.0945V58.088L61.1799 58.0815C61.2447 57.926 61.2706 57.764 61.2642 57.6085V57.5761C61.2512 57.4789 61.2318 57.3753 61.1864 57.278V57.2716L61.1734 57.2456L61.1605 57.2327V57.2262L61.1086 57.1744V57.1679L61.0957 57.1485V57.142L61.0827 57.1225V57.1161L61.0698 57.0966V57.0901L61.0568 57.0707V57.0642L61.0438 57.0448V57.0383L61.0309 57.0189V57.0124L61.0179 56.9929V56.9865L61.005 56.967V56.9605L60.992 56.9411V56.9346L60.9791 56.9152L60.992 56.9217L60.9791 56.9022V56.8957L60.9661 56.8763V56.8698L60.9531 56.8504V56.8439L60.9402 56.8245V56.818L60.9272 56.7985V56.7921L60.9143 56.7726V56.7661L60.9013 56.7467V56.7402L60.8883 56.7208V56.7143L60.8754 56.6949V56.6884L60.8624 56.669V56.6625L60.8495 56.643V56.6366L60.8365 56.6171V56.6106L60.8235 56.5912V56.5847L60.7976 56.5458V56.5394L60.7847 56.5199V56.5134L60.7587 56.4746L60.6162 56.1894L60.6097 56.157L60.4153 55.7683L60.4283 55.7553L60.2598 55.4184L60.2533 55.3924V55.386L60.2468 55.3665L60.2663 55.36L60.2598 55.3406V55.3341L60.2533 55.3147V55.3082L60.2468 55.2888V55.2823L60.2404 55.2628V55.2564L60.2339 55.2369V55.2304L60.2274 55.211L60.2209 55.2045L60.2144 55.1851L60.208 55.1786L60.2015 55.1592L60.195 55.1527L60.1885 55.1332L60.182 55.1268L60.1756 55.1073L60.1302 55.0166V55.0037L60.0265 54.7963L60.0201 54.7769L60.0136 54.7704L60.0071 54.7509L60.0006 54.7445L59.9941 54.725L59.9877 54.7185L59.9812 54.6991V54.6926L59.9747 54.6732V54.6667L59.9682 54.6473V54.6408L59.9617 54.6214V54.6149L59.9553 54.5954V54.589L59.9488 54.5695V54.563L59.9423 54.5436V54.5371L59.9358 54.5177V54.5112L59.9293 54.4853V54.4788L59.8645 54.2196V54.2131L59.8581 54.1872V54.1807L59.8516 54.1613V54.1548L59.8451 54.1354V54.1289L59.8386 54.1095L59.8192 54.0965L59.8127 54.0771V54.0706L59.8062 54.0511V54.0447L59.7997 54.0252V54.0187L59.7933 53.9993V53.9928L59.7803 53.9669V53.9604L59.7738 53.941L59.7673 53.9345L59.7609 53.9151L59.7544 53.9021L59.7479 53.8827L59.722 53.8308C59.6442 53.5133 59.4174 53.2347 59.087 53.1116L54.5966 51.3879C54.5836 51.375 54.5511 51.3619 54.5187 51.3554ZM74.9885 38.5126C78.008 38.5126 80.7425 39.7372 82.7253 41.7136C84.7081 43.6899 85.9263 46.4243 85.9263 49.4504C85.9263 52.47 84.7016 55.2045 82.7253 57.1873C80.7425 59.1701 78.008 60.3883 74.9885 60.3883C71.9689 60.3883 69.2344 59.1636 67.2516 57.1873C65.2688 55.2045 64.0506 52.47 64.0506 49.4504C64.0506 46.4309 65.2753 43.6964 67.2516 41.7136C69.2344 39.7373 71.9689 38.5126 74.9885 38.5126ZM81.2674 43.1715C82.8744 44.7785 83.8657 47.001 83.8657 49.4504C83.8657 51.8998 82.8743 54.1223 81.2674 55.7294C79.6604 57.3364 77.4379 58.3277 74.9885 58.3277C72.5391 58.3277 70.3166 57.3363 68.7095 55.7294C67.1025 54.1224 66.1112 51.9063 66.1112 49.4504C66.1112 47.001 67.1026 44.7786 68.7095 43.1715C70.3165 41.5644 72.5326 40.5731 74.9885 40.5731C77.4379 40.5731 79.6603 41.5645 81.2674 43.1715Z" fill="#663366"/>
<path fill-rule="evenodd" clip-rule="evenodd" d="M21.8497 129.474H128.136C129.18 129.474 130.119 129.046 130.812 128.359C131.499 127.672 131.927 126.726 131.927 125.683L131.921 51.6918C131.921 50.6486 131.493 49.709 130.806 49.0156C130.119 48.3288 129.173 47.9011 128.13 47.9011L98.1419 47.9076V51.3095H122.752C124.34 51.3095 125.778 51.9574 126.828 53.0006C127.871 54.0439 128.519 55.4889 128.519 57.0763V120.312C128.519 121.899 127.871 123.338 126.828 124.388C125.784 125.431 124.339 126.079 122.752 126.079L27.2278 126.072C25.6402 126.072 24.2018 125.424 23.1521 124.381C22.1088 123.338 21.4609 121.893 21.4609 120.305V57.0699C21.4609 55.4823 22.1089 54.0439 23.1521 52.9942C24.1953 51.9509 25.6403 51.303 27.2278 51.303H51.8445V47.9011L21.8499 47.9076C20.8067 47.9076 19.8606 48.3353 19.1737 49.0221C18.4869 49.709 18.0592 50.655 18.0592 51.6983V125.685C18.0592 126.728 18.4869 127.674 19.1737 128.361C19.8606 129.048 20.8065 129.474 21.8497 129.474ZM67.0788 91.963H65.1609C64.5907 91.963 64.1306 91.503 64.1306 90.9328C64.1306 90.3625 64.5907 89.9025 65.1609 89.9025H67.3187C67.4353 89.6563 67.5973 89.423 67.7917 89.2351L67.7982 89.2286C67.9926 89.0342 68.2194 88.8787 68.4656 88.7556V86.5978C68.4656 86.0276 68.9257 85.5675 69.4959 85.5675C70.0661 85.5675 70.5261 86.0276 70.5261 86.5978V88.5157H71.213V86.5978C71.213 86.0276 71.6731 85.5675 72.2433 85.5675C72.8135 85.5675 73.2735 86.0276 73.2735 86.5978V88.5157H73.9604V86.5978C73.9604 86.0276 74.4204 85.5675 74.9907 85.5675C75.5609 85.5675 76.0209 86.0276 76.0209 86.5978V88.5157H76.7078V86.5978C76.7078 86.0276 77.1678 85.5675 77.738 85.5675C78.3083 85.5675 78.7683 86.0276 78.7683 86.5978V88.5157H79.4552V86.5978C79.4552 86.0276 79.9152 85.5675 80.4854 85.5675C81.0556 85.5675 81.5157 86.0276 81.5157 86.5978V88.7556C81.7684 88.8722 81.9952 89.0342 82.1896 89.2286C82.384 89.423 82.546 89.6498 82.6691 89.9025H84.8204C85.3906 89.9025 85.8507 90.3625 85.8507 90.9328C85.8507 91.503 85.3906 91.963 84.8204 91.963H82.9025V92.6499H84.8204C85.3906 92.6499 85.8507 93.1099 85.8507 93.6802C85.8507 94.2504 85.3906 94.7104 84.8204 94.7104H82.9025V95.3973H84.8204C85.3906 95.3973 85.8507 95.8573 85.8507 96.4275C85.8507 96.9978 85.3906 97.4578 84.8204 97.4578H82.9025V98.1447H84.8204C85.3906 98.1447 85.8507 98.6047 85.8507 99.1749C85.8507 99.7451 85.3906 100.205 84.8204 100.205H82.9025V100.892H84.8204C85.3906 100.892 85.8507 101.352 85.8507 101.922C85.8507 102.493 85.3906 102.953 84.8204 102.953H82.6691C82.5525 103.205 82.3905 103.432 82.1896 103.626C81.9952 103.821 81.7684 103.983 81.5157 104.1V106.251C81.5157 106.821 81.0556 107.281 80.4854 107.281C79.9152 107.281 79.4552 106.821 79.4552 106.251V104.326H78.7683V106.251C78.7683 106.821 78.3083 107.281 77.738 107.281C77.1678 107.281 76.7078 106.821 76.7078 106.251V104.326H76.0209V106.251C76.0209 106.821 75.5609 107.281 74.9907 107.281C74.4204 107.281 73.9604 106.821 73.9604 106.251V104.326H73.2735V106.251C73.2735 106.821 72.8135 107.281 72.2433 107.281C71.6731 107.281 71.213 106.821 71.213 106.251V104.326H70.5261V106.251C70.5261 106.821 70.0661 107.281 69.4959 107.281C68.9257 107.281 68.4656 106.821 68.4656 106.251V104.1C68.2129 103.983 67.9861 103.821 67.7917 103.626C67.7658 103.601 67.7464 103.575 67.7204 103.549C67.5584 103.374 67.4224 103.173 67.3187 102.953H65.1609C64.5907 102.953 64.1306 102.493 64.1306 101.922C64.1306 101.352 64.5907 100.892 65.1609 100.892H67.0788V100.205H65.1609C64.5907 100.205 64.1306 99.7451 64.1306 99.1749C64.1306 98.6047 64.5907 98.1446 65.1609 98.1446H67.0788V97.4578H65.1609C64.5907 97.4578 64.1306 96.9977 64.1306 96.4275C64.1306 95.8573 64.5907 95.3973 65.1609 95.3973H67.0788V94.7104H65.1609C64.5907 94.7104 64.1306 94.2504 64.1306 93.6801C64.1306 93.1099 64.5907 92.6499 65.1609 92.6499H67.0788V91.963ZM69.1459 90.9328C69.1459 90.8356 69.1848 90.7448 69.2431 90.6865L69.2496 90.68C69.3144 90.6152 69.3986 90.5828 69.4958 90.5828H80.4854C80.5826 90.5828 80.6733 90.6217 80.7316 90.68C80.7964 90.7448 80.8353 90.8291 80.8353 90.9263V101.916C80.8353 102.013 80.7964 102.097 80.7316 102.162C80.6668 102.227 80.5826 102.266 80.4854 102.266L69.4958 102.279C69.3986 102.279 69.3143 102.24 69.2496 102.175L69.2236 102.149C69.1783 102.091 69.1459 102.013 69.1459 101.929V90.9328ZM32.6653 92.2093C33.8317 92.2093 34.8813 92.6823 35.646 93.4469C36.1774 93.9782 36.5662 94.6456 36.7541 95.3973H45.3333C47.0569 92.8507 48.9296 90.5829 50.9253 88.6L45.5471 84.3105H41.141C40.9531 85.0621 40.5643 85.7296 40.0329 86.2609C39.2683 87.0255 38.2121 87.4985 37.0522 87.4985C35.8859 87.4985 34.8362 87.0255 34.0715 86.2609C33.3069 85.4963 32.8339 84.44 32.8339 83.2802C32.8339 82.1139 33.3069 81.0642 34.0715 80.2995C34.8361 79.5349 35.8924 79.0619 37.0522 79.0619C38.2186 79.0619 39.2682 79.5349 40.0329 80.2995C40.5643 80.8308 40.9531 81.4982 41.141 82.2499H45.9036C46.1304 82.2499 46.3572 82.3212 46.5451 82.4702L52.4352 87.168C53.8802 85.8655 55.3834 84.7056 56.932 83.6883C62.5693 79.9689 68.7834 78.1027 74.9915 78.1027C81.2056 78.1027 87.4132 79.9624 93.051 83.6883C94.5996 84.7056 96.0964 85.8719 97.5478 87.168L103.438 82.4702C103.626 82.3212 103.853 82.2499 104.079 82.2499H108.842C109.03 81.4983 109.419 80.8309 109.95 80.2995C110.715 79.5349 111.771 79.0619 112.931 79.0619C114.097 79.0619 115.147 79.5349 115.912 80.2995C116.676 81.0641 117.149 82.1204 117.149 83.2802C117.149 84.4465 116.676 85.4962 115.912 86.2609C115.147 87.0255 114.091 87.4985 112.931 87.4985C111.764 87.4985 110.715 87.0255 109.95 86.2609C109.419 85.7296 109.03 85.0622 108.842 84.3105H104.436L99.0577 88.6C101.053 90.5828 102.933 92.8507 104.65 95.3973H113.229C113.417 94.6457 113.806 93.9782 114.337 93.4469C115.102 92.6823 116.158 92.2093 117.318 92.2093C118.484 92.2093 119.534 92.6823 120.298 93.4469C121.063 94.2115 121.536 95.2678 121.536 96.4276C121.536 97.594 121.063 98.6436 120.298 99.4083C119.534 100.173 118.478 100.646 117.318 100.646C116.151 100.646 115.102 100.173 114.337 99.4083C113.806 98.877 113.417 98.2096 113.229 97.4579H104.695C103.062 100.283 101.131 102.765 98.9801 104.897L104.352 109.186H108.758C108.946 108.435 109.335 107.767 109.866 107.236C110.631 106.471 111.687 105.998 112.847 105.998C114.013 105.998 115.063 106.471 115.827 107.236C116.592 108 117.065 109.057 117.065 110.216C117.065 111.383 116.592 112.432 115.827 113.197C115.063 113.962 114.007 114.435 112.847 114.435C111.68 114.435 110.631 113.962 109.866 113.197C109.335 112.666 108.946 111.998 108.758 111.247H103.995C103.769 111.247 103.542 111.175 103.354 111.026L97.4573 106.322C95.6364 107.916 93.6861 109.284 91.632 110.424C86.4806 113.295 80.7331 114.727 74.9859 114.727C69.2386 114.727 63.4908 113.295 58.3397 110.424C56.2921 109.284 54.3352 107.916 52.5209 106.322L46.6244 111.026C46.4365 111.175 46.2097 111.247 45.9829 111.247H41.2203C41.0324 111.998 40.6436 112.666 40.1122 113.197C39.3476 113.962 38.2913 114.435 37.1315 114.435C35.9652 114.435 34.9155 113.962 34.1508 113.197C33.3862 112.433 32.9132 111.376 32.9132 110.216C32.9132 109.05 33.3862 108 34.1508 107.236C34.9154 106.471 35.9717 105.998 37.1315 105.998C38.2979 105.998 39.3475 106.471 40.1122 107.236C40.6436 107.767 41.0324 108.434 41.2203 109.186H45.6264L50.9981 104.897C48.8468 102.765 46.916 100.29 45.283 97.4579H36.7493C36.5614 98.2095 36.1726 98.8769 35.6412 99.4083C34.8766 100.173 33.8204 100.646 32.6605 100.646C31.4942 100.646 30.4445 100.173 29.6798 99.4083C28.9152 98.6437 28.4422 97.5874 28.4422 96.4276C28.4422 95.2613 28.9152 94.2116 29.6798 93.4469C30.4509 92.6823 31.499 92.2093 32.6653 92.2093ZM34.1881 94.9048C34.5769 95.2936 34.8231 95.8314 34.8231 96.4276C34.8231 97.0237 34.5833 97.5615 34.1881 97.9503C33.7993 98.3391 33.2615 98.5853 32.6653 98.5853C32.0692 98.5853 31.5314 98.3456 31.1426 97.9503C30.7538 97.5615 30.5076 97.0237 30.5076 96.4276C30.5076 95.8314 30.7473 95.2936 31.1426 94.9048C31.5314 94.516 32.0692 94.2698 32.6653 94.2698C33.2615 94.2698 33.7993 94.5161 34.1881 94.9048ZM117.316 94.2698C117.912 94.2698 118.45 94.5096 118.839 94.9048C119.228 95.2936 119.474 95.8314 119.474 96.4276C119.474 97.0237 119.234 97.5615 118.839 97.9503C118.45 98.3391 117.912 98.5853 117.316 98.5853C116.72 98.5853 116.182 98.3456 115.793 97.9503C115.404 97.5615 115.158 97.0237 115.158 96.4276C115.158 95.8314 115.398 95.2936 115.793 94.9048C116.182 94.516 116.72 94.2698 117.316 94.2698ZM112.851 108.059C113.448 108.059 113.985 108.298 114.374 108.694C114.763 109.082 115.009 109.62 115.009 110.216C115.009 110.813 114.769 111.35 114.374 111.739C113.985 112.128 113.448 112.374 112.851 112.374C112.255 112.374 111.718 112.134 111.329 111.739C110.94 111.35 110.694 110.813 110.694 110.216C110.694 109.62 110.933 109.082 111.329 108.694C111.711 108.298 112.255 108.059 112.851 108.059ZM112.929 81.1296C113.525 81.1296 114.063 81.3693 114.452 81.7646C114.841 82.1534 115.081 82.6912 115.081 83.2873C115.081 83.8834 114.841 84.4212 114.446 84.81C114.057 85.1988 113.519 85.445 112.923 85.445C112.327 85.445 111.789 85.2053 111.4 84.81C111.011 84.4212 110.771 83.8834 110.771 83.2873C110.771 82.6912 111.011 82.1534 111.4 81.7646C111.789 81.3693 112.333 81.1296 112.929 81.1296ZM37.1299 108.059C37.7261 108.059 38.2639 108.298 38.6527 108.694C39.0415 109.082 39.2877 109.62 39.2877 110.216C39.2877 110.813 39.0479 111.35 38.6527 111.739C38.2639 112.128 37.7261 112.374 37.1299 112.374C36.5338 112.374 35.996 112.134 35.6072 111.739C35.2184 111.35 34.9722 110.813 34.9722 110.216C34.9722 109.62 35.2119 109.082 35.6072 108.694C35.996 108.298 36.5338 108.059 37.1299 108.059ZM37.0522 81.1296C37.6483 81.1296 38.1861 81.3693 38.5749 81.7646C38.9637 82.1534 39.2099 82.6912 39.2099 83.2873C39.2099 83.8834 38.9702 84.4212 38.5749 84.81C38.1861 85.1988 37.6483 85.445 37.0522 85.445C36.456 85.445 35.9182 85.2053 35.5294 84.81C35.1406 84.4212 34.8944 83.8834 34.8944 83.2873C34.8944 82.6912 35.1342 82.1534 35.5294 81.7646C35.9182 81.3693 36.456 81.1296 37.0522 81.1296ZM50.1282 15.7691C51.3335 15.7691 52.4285 16.2551 53.2191 17.0521C54.0096 17.8426 54.5021 18.9377 54.5021 20.143C54.5021 21.3482 54.0161 22.4432 53.2191 23.2338C52.6618 23.7911 51.9556 24.1993 51.1585 24.3937V38.8954L58.1761 43.2627C58.2604 43.0359 58.3446 42.8156 58.4353 42.5953C58.6297 42.1222 58.85 41.6557 59.0898 41.1892L56.7311 35.9017C56.5561 35.5 56.6533 35.0529 56.9449 34.7548L60.3014 31.3984C60.6318 31.0679 61.1373 31.0096 61.526 31.2234L65.7573 33.109L65.7962 13.6246C65.0057 13.4367 64.2929 13.022 63.7356 12.4647C62.9451 11.6742 62.4526 10.5791 62.4526 9.37385C62.4526 8.16863 62.9386 7.07358 63.7356 6.28299C64.5262 5.49247 65.6212 5 66.8265 5C68.0318 5 69.1268 5.48598 69.9174 6.28299C70.7079 7.07351 71.2003 8.16856 71.2003 9.37385C71.2003 10.5791 70.7144 11.6741 69.9174 12.4647C69.3601 13.022 68.6473 13.4302 67.8503 13.6246L67.8114 33.031C67.9216 32.9856 68.0317 32.9338 68.1419 32.8884C68.6149 32.6941 69.1009 32.5126 69.5934 32.3571L71.6604 26.9595C71.8159 26.5513 72.2112 26.2986 72.6259 26.2986H77.3691C77.8227 26.2986 78.2114 26.5966 78.3475 27.0114L80.4016 32.3637C80.8941 32.5192 81.3801 32.6941 81.8531 32.895C81.9632 32.9404 82.0799 32.9922 82.19 33.0376L82.2289 13.6311C81.4384 13.4367 80.7256 13.0285 80.1683 12.4713C79.3778 11.6807 78.8853 10.5857 78.8853 9.3804C78.8853 8.17511 79.3713 7.08013 80.1683 6.28954C80.9588 5.49902 82.0539 5.00655 83.2592 5.00655C84.4645 5.00655 85.5595 5.49254 86.35 6.28954C87.1406 7.08007 87.633 8.17511 87.633 9.3804C87.633 10.5857 87.147 11.6807 86.35 12.4713C85.7928 13.0285 85.08 13.4367 84.283 13.6311L84.2441 33.1089L88.5401 31.191C88.9419 31.0095 89.3954 31.1067 89.687 31.4048L93.0435 34.7612C93.3739 35.0917 93.4322 35.5971 93.2184 35.9859L90.8987 41.1956C91.1385 41.6556 91.3588 42.1222 91.5532 42.6017C91.6439 42.822 91.7346 43.0488 91.8124 43.2691L98.83 38.8953V24.3936C98.0394 24.1993 97.3267 23.791 96.7694 23.2338C95.9789 22.4432 95.4864 21.3482 95.4864 20.1429C95.4864 18.9377 95.9724 17.8426 96.7694 17.0521C97.5599 16.2615 98.655 15.7691 99.8603 15.7691C101.065 15.7691 102.161 16.255 102.951 17.0521C103.742 17.8426 104.234 18.9376 104.234 20.1429C104.234 21.3481 103.748 22.4432 102.951 23.2338C102.394 23.791 101.688 24.1993 100.891 24.3936V39.4654C100.891 39.8088 100.716 40.1458 100.405 40.3402L93.5426 44.6103L96.7694 45.8479H128.138C129.745 45.8479 131.209 46.5088 132.265 47.5651C133.321 48.6213 133.982 50.0857 133.982 51.6927L133.969 125.684C133.969 127.291 133.308 128.755 132.252 129.812C131.196 130.868 129.732 131.529 128.125 131.529L81.3992 131.535V138.41C85.624 138.715 89.2915 139.304 91.9547 140.088C95.1299 141.021 97.0219 142.343 97.0478 143.937V143.97C97.0478 144.54 96.5877 145 96.0175 145H53.9584C53.3882 145 52.9281 144.54 52.9281 143.97C52.9281 142.363 54.8266 141.022 58.0212 140.088C60.6844 139.304 64.3583 138.715 68.5767 138.41V131.535H21.8513C20.2443 131.535 18.7798 130.881 17.7237 129.818C16.6675 128.762 16.0065 127.298 16.0065 125.69L16 51.6926C16 50.0857 16.6544 48.6212 17.7172 47.565C18.7734 46.5088 20.2378 45.8478 21.8448 45.8478H53.2129L56.4398 44.6102L49.5778 40.3401C49.2668 40.1457 49.0918 39.8087 49.0918 39.4653V24.3935C48.3013 24.1991 47.595 23.7909 47.0312 23.2337C46.2407 22.4431 45.7483 21.3481 45.7483 20.1428C45.7483 18.9376 46.2342 17.8425 47.0312 17.0519C47.8283 16.2614 48.9229 15.7691 50.1282 15.7691ZM51.7611 18.51C51.3399 18.0953 50.7633 17.8361 50.1282 17.8361C49.4932 17.8361 48.9165 18.0953 48.4953 18.51C48.0742 18.9312 47.815 19.5079 47.815 20.1429C47.815 20.7779 48.0742 21.3546 48.4953 21.7758C48.91 22.1905 49.4867 22.4497 50.1218 22.4497H50.1347C50.7697 22.4497 51.3464 22.1905 51.7611 21.7758C52.1823 21.3546 52.435 20.7779 52.435 20.1429C52.435 19.5014 52.1758 18.9247 51.7611 18.51ZM68.4521 7.75359C68.0309 7.3324 67.4542 7.0797 66.8192 7.0797C66.1842 7.0797 65.6075 7.33889 65.1863 7.75359C64.7651 8.16829 64.5124 8.75147 64.5124 9.38649C64.5124 10.0215 64.7716 10.5982 65.1863 11.0194C65.6075 11.4406 66.1842 11.6998 66.8192 11.6998C67.4542 11.6998 68.0309 11.4406 68.4521 11.0194C68.8668 10.5982 69.126 10.0215 69.126 9.38649C69.126 8.745 68.8668 8.16829 68.4521 7.75359ZM84.8846 7.75359C84.4634 7.3324 83.8867 7.0797 83.2517 7.0797C82.6167 7.0797 82.04 7.33889 81.6188 7.75359C81.1976 8.17478 80.9449 8.75147 80.9449 9.38649C80.9449 10.0215 81.2041 10.5982 81.6188 11.0194C82.04 11.4406 82.6167 11.6933 83.2517 11.6933C83.8867 11.6933 84.4634 11.4341 84.8846 11.0194C85.3058 10.5982 85.5585 10.0215 85.5585 9.38649C85.5585 8.745 85.2993 8.16829 84.8846 7.75359ZM101.486 18.51C101.065 18.0888 100.488 17.8361 99.8531 17.8361C99.218 17.8361 98.6413 18.0953 98.2202 18.51C97.799 18.9312 97.5463 19.5079 97.5463 20.1429C97.5463 20.7779 97.8054 21.3546 98.2202 21.7758C98.6349 22.1905 99.2116 22.4497 99.8466 22.4497H99.8595C100.495 22.4497 101.071 22.1905 101.486 21.7758C101.907 21.3546 102.16 20.7779 102.16 20.1429C102.166 19.5014 101.907 18.9247 101.486 18.51ZM79.3375 139.369V131.535H70.6417V139.369C70.6417 139.939 70.1817 140.399 69.6114 140.399H69.605C65.1534 140.672 61.3044 141.261 58.6024 142.058C57.598 142.356 56.7686 142.648 56.1659 142.94H93.8126C93.2035 142.648 92.3806 142.356 91.3762 142.058C88.6547 141.261 84.7862 140.665 80.3088 140.399C79.7645 140.367 79.3433 139.913 79.3433 139.376L79.3375 139.369ZM102.891 96.474C101.161 99.4548 99.0873 102.027 96.7547 104.185C96.7353 104.204 96.7093 104.224 96.6899 104.243C94.8173 105.967 92.7826 107.431 90.6379 108.623C89.2123 109.414 87.7414 110.094 86.2318 110.652C86.7825 110.218 87.3139 109.744 87.8063 109.246C91.0851 105.967 93.1132 101.431 93.1132 96.4286C93.1132 91.4198 91.085 86.8904 87.8063 83.6116C87.4564 83.2617 87.0936 82.9248 86.7177 82.6073C88.4932 83.3654 90.2298 84.2984 91.9145 85.413C95.9578 88.0762 99.6964 91.7697 102.891 96.474ZM63.2603 82.6074C62.8845 82.9249 62.5217 83.2618 62.1717 83.6117C58.8929 86.8906 56.8649 91.4262 56.8649 96.4287C56.8649 101.437 58.8931 105.967 62.1717 109.246C62.6707 109.745 63.1955 110.211 63.7463 110.652C62.2365 110.095 60.7656 109.414 59.3402 108.624C57.1953 107.425 55.1608 105.967 53.2882 104.243C53.2687 104.224 53.2428 104.204 53.2234 104.185C50.8972 102.027 48.8173 99.4612 47.0871 96.4742C50.2817 91.7635 54.0204 88.0764 58.0638 85.4068C59.7485 84.2987 61.4849 83.3655 63.2603 82.6074ZM86.3543 85.0697C89.2637 87.9791 91.0585 91.9966 91.0585 96.4352C91.0585 100.874 89.2572 104.891 86.3543 107.801C83.4449 110.71 79.4274 112.505 74.9888 112.505C70.5501 112.505 66.5327 110.704 63.6233 107.801C60.7139 104.891 58.9191 100.874 58.9191 96.4352C58.9191 91.9966 60.7204 87.9791 63.6233 85.0697C66.5327 82.1603 70.5501 80.3655 74.9888 80.3655C79.4274 80.359 83.4449 82.1603 86.3543 85.0697ZM92.0759 54.8545L95.9638 53.3642H122.75C123.768 53.3642 124.694 53.7789 125.368 54.4528C126.042 55.1266 126.457 56.0532 126.457 57.0705V120.306C126.457 121.323 126.035 122.25 125.368 122.924C124.694 123.598 123.768 124.012 122.75 124.012H27.226C26.2087 124.012 25.2821 123.598 24.6082 122.924C23.9344 122.25 23.5196 121.323 23.5196 120.306V57.0705C23.5196 56.0532 23.9408 55.1266 24.6082 54.4528C25.2821 53.7789 26.2087 53.3642 27.226 53.3642H54.0125L57.9004 54.8545C58.0559 55.347 58.2309 55.8329 58.4317 56.306C58.6261 56.779 58.8464 57.252 59.0862 57.7121L56.7665 62.9217C56.5527 63.3105 56.611 63.8159 56.9414 64.1464L60.2979 67.5028C60.6284 67.8333 61.1338 67.8916 61.5226 67.6778L66.7322 65.3581C67.1923 65.5979 67.6588 65.8182 68.1383 66.0126C68.6113 66.207 69.0973 66.3884 69.5898 66.5439L71.6439 71.8962C71.78 72.3044 72.1687 72.609 72.6223 72.609H77.3655C77.8191 72.609 78.2079 72.3109 78.3439 71.8962L80.398 66.5439C80.8905 66.3884 81.3765 66.2134 81.8495 66.0126C82.3225 65.8182 82.7955 65.5979 83.2556 65.3581L88.4653 67.6778C88.8605 67.8916 89.3595 67.8333 89.6899 67.5028L93.0464 64.1464C93.3768 63.8159 93.4352 63.3105 93.2213 62.9217L90.9016 57.7121C91.1414 57.252 91.3617 56.7855 91.5561 56.306C91.7375 55.8329 91.9203 55.347 92.0759 54.8545ZM54.5187 51.3554L53.8902 51.1157V47.7916L59.1063 45.7959C59.4368 45.6727 59.6636 45.3941 59.7413 45.0701C59.9033 44.4999 60.1042 43.9362 60.331 43.3854C60.5707 42.8087 60.8364 42.258 61.128 41.7331C61.29 41.435 61.2965 41.0981 61.1669 40.813L58.8925 35.7199L61.2511 33.3613L66.3507 35.6357C66.6552 35.7718 66.9986 35.7458 67.2708 35.5903C67.7957 35.2987 68.3464 35.0331 68.9166 34.7933C69.4739 34.5601 70.0506 34.3592 70.6403 34.1907C70.9643 34.1 71.2105 33.8602 71.3207 33.5686L73.3164 28.359H76.647L78.6427 33.5686C78.7593 33.8862 79.0185 34.1065 79.3231 34.1907C79.9192 34.3592 80.4959 34.5601 81.0467 34.7933C81.6234 35.0331 82.1742 35.2987 82.699 35.5903C82.9971 35.7523 83.3341 35.7588 83.6192 35.6292L86.3341 34.4175L88.7122 33.3548L91.0709 35.7135L88.7965 40.813C88.6604 41.1175 88.6863 41.461 88.8418 41.7331C89.1334 42.258 89.3991 42.8023 89.6388 43.379C89.8656 43.9362 90.0665 44.5129 90.2415 45.1026C90.3322 45.4331 90.5784 45.6794 90.8765 45.7895L96.0797 47.7787V51.1093L95.4187 51.362H95.4122L90.8699 53.1051C90.5395 53.2282 90.3127 53.5068 90.2349 53.8308L90.209 53.8826L90.2025 53.9021L90.196 53.915L90.1896 53.9345V53.9474L90.1831 53.9669L90.196 53.9734L90.1896 53.9928V53.9993L90.1831 54.0187V54.0252L90.1766 54.0446V54.0511L90.1701 54.0706V54.077L90.1572 54.0965V54.103L90.1507 54.1224V54.1289L90.1442 54.1483V54.1548L90.1377 54.1742V54.1807L90.1312 54.2066V54.2131L90.1248 54.239V54.2455L90.0535 54.5306V54.5371L90.047 54.5565V54.563L90.0405 54.5825V54.5889L90.034 54.6084V54.6149L90.0276 54.6343V54.6408L90.0211 54.6602V54.6667L90.0146 54.6861V54.6926L90.0081 54.7185L90.0016 54.738L89.9952 54.7445L89.9887 54.7639L89.9822 54.7704L89.9757 54.7898L89.9693 54.8028L89.9628 54.8222L89.898 54.9518L89.8591 54.9648L89.8461 54.9907V55.0036L89.7943 55.1073L89.7878 55.1268L89.7813 55.1332L89.7749 55.1527L89.7684 55.1592L89.7619 55.1786L89.7554 55.1851L89.7489 55.2045V55.211L89.7425 55.2304V55.2369L89.736 55.2564V55.2628L89.7295 55.2823V55.3147L89.7101 55.36V55.3665L89.7036 55.386V55.3924L89.6906 55.4184L89.6777 55.4378L89.5869 55.6192V55.6516L89.3537 56.1182L89.3666 56.157L89.1852 56.5199H89.1917L89.1787 56.5458L89.1658 56.5653V56.5717L89.088 56.6884V56.6949L89.0621 56.7337V56.7402L89.0491 56.7597V56.7661L89.0103 56.8245V56.8309L88.9973 56.8504V56.8569L88.9843 56.8763V56.8828L88.9714 56.9022V56.9087L88.9584 56.9281V56.9346L88.9455 56.9541V56.9605L88.9325 56.98V56.9865L88.9195 57.0059V57.0124L88.9066 57.0318V57.0383L88.8936 57.0577V57.0642L88.8807 57.0836V57.0901L88.8677 57.1096V57.116L88.8547 57.1355V57.142L88.8353 57.1614V57.1679L88.8029 57.2003L88.8094 57.2392V57.2456C88.764 57.3428 88.7381 57.44 88.7251 57.5437V57.602C88.7122 57.764 88.7381 57.9325 88.8094 58.088L88.8159 58.0945V58.101L91.0902 63.194L88.7316 65.5527L83.6256 63.2718H83.6191L83.6127 63.2653C83.4571 63.2005 83.2951 63.1746 83.1396 63.1811H83.1072C83.01 63.1941 82.9064 63.2135 82.8092 63.2589H82.8027L82.7768 63.2718H82.7703L82.7638 63.2783H82.7573L82.7184 63.3172H82.712L82.7055 63.3237H82.699L82.6796 63.3366V63.3237L82.6601 63.3366H82.6536L82.6342 63.3496H82.6277L82.6083 63.3625H82.6018L82.5824 63.3755H82.5759L82.5564 63.3885H82.55L82.5305 63.4014H82.524L82.5046 63.4144H82.4981L82.4787 63.4273H82.4722L82.4528 63.4403H82.4463L82.4268 63.4532H82.4204L82.4009 63.4662H82.3945L82.375 63.4792H82.3685L82.3491 63.4921H82.3426L82.3232 63.5051H82.3167L82.2973 63.518H82.2908L82.2713 63.531H82.2649L82.2454 63.544H82.2389L82.2195 63.5569H82.213L82.1741 63.5828L82.1547 63.6023H82.1482L82.1288 63.6152H82.1223L82.1029 63.6282H82.0964L82.0186 63.68L81.9927 63.693L81.9733 63.706L81.9473 63.7189L81.902 63.7254L81.4614 63.9457H81.429L80.9624 64.179L80.9365 64.1854H80.93L80.9106 64.1919H80.9041L80.8847 64.1984H80.8782L80.8588 64.2049H80.8523L80.8328 64.2114H80.8264L80.8069 64.2178H80.8004L80.781 64.2243H80.7745L80.7551 64.2308L80.7486 64.2373L80.7292 64.2438L80.7227 64.2502L80.7032 64.2567L80.6968 64.2632L80.6773 64.2697L80.6709 64.2762L80.6514 64.2826L80.6449 64.2891L80.6255 64.2956L80.3404 64.4382L80.3209 64.4446L80.308 64.4511L80.2885 64.4576L80.2821 64.4641L80.2626 64.4706L80.2561 64.477L80.2367 64.4835L80.2302 64.49L80.2108 64.4965H80.2043L80.1849 64.503H80.1784L80.1589 64.5094H80.1525L80.133 64.5159H80.1265L80.1071 64.5224H80.1006L80.0812 64.5289H80.0747L80.0553 64.5354H80.0488L80.0229 64.5418H80.0164L79.8609 64.5807L79.8285 64.5613L79.7507 64.5807H79.7442L79.7183 64.5872H79.7118L79.6924 64.5937H79.6859L79.6665 64.6001H79.66L79.6406 64.6066H79.6341L79.6146 64.6131H79.6082L79.5887 64.6196H79.5822L79.5628 64.6261H79.5563L79.5369 64.6325H79.5304L79.511 64.639H79.5045L79.4851 64.6455H79.4786L79.4591 64.652H79.4462L79.4267 64.6585L79.4138 64.6649L79.3943 64.6714L79.3684 64.6844C79.0509 64.7621 78.7723 64.9889 78.6427 65.3194L76.647 70.5291H73.3164L71.3207 65.3194C71.1976 64.9889 70.919 64.7621 70.595 64.6844L70.5172 64.6455L70.4978 64.639L70.4719 64.6325H70.4654L70.4459 64.6261H70.4395L70.42 64.6196H70.4135L70.3941 64.6131H70.3876L70.3682 64.6066H70.3617L70.3423 64.6001H70.3358L70.3163 64.5937H70.3099L70.2904 64.5872H70.284L70.2645 64.5807H70.258L70.2386 64.5742H70.2321L70.2062 64.5677H70.1997L69.9924 64.5159H69.9859L69.9405 64.503H69.934L69.9146 64.4965H69.9081L69.8887 64.49H69.8822L69.8628 64.4835H69.8563L69.8368 64.477H69.8304L69.8045 64.4446H69.798L69.7785 64.4382H69.7721L69.7526 64.4317L69.7461 64.4252L69.6943 64.4058L69.6749 64.3993L69.6684 64.3928L69.6489 64.3863L69.3638 64.2438L69.3444 64.2373L69.3314 64.2308L69.312 64.2243L69.3055 64.2178L69.2861 64.2114L69.2796 64.2049L69.2601 64.1984L69.2537 64.1919L69.2342 64.1854L69.2277 64.179L69.2083 64.1725L69.2018 64.166L69.1824 64.1595H69.1759L69.1565 64.153H69.15L69.1305 64.1466H69.1241L69.1046 64.1401H69.0981L69.0787 64.1336H69.0722L69.0528 64.1271H69.0463L69.0204 64.1206L68.5798 63.9003L68.5474 63.9457L68.0808 63.7124L68.0744 63.7254L67.8411 63.6088L67.8217 63.5958V63.6023L67.705 63.5245H67.6985L67.6791 63.5116H67.6726L67.6532 63.4986H67.6467L67.6078 63.4727H67.6014L67.5819 63.4597H67.5754L67.556 63.4468H67.5495L67.5301 63.4338H67.5236L67.5042 63.4209H67.4977L67.4782 63.4079H67.4718L67.4523 63.3949H67.4458L67.4264 63.382H67.4199L67.4005 63.369H67.394L67.3746 63.356H67.3681L67.3486 63.3431H67.3422L67.3227 63.3301H67.3162L67.2968 63.3172H67.2903L67.2838 63.3107H67.2774L67.2385 63.2718H67.232L67.2255 63.2653H67.219C67.1218 63.22 67.0246 63.1941 66.921 63.1811H66.8756L66.8497 63.1746C66.6877 63.1617 66.5192 63.1876 66.3637 63.2589L66.3508 63.2718L61.2577 65.5462L58.8991 63.1875L61.1734 58.0945V58.088L61.1799 58.0815C61.2447 57.926 61.2706 57.764 61.2642 57.6085V57.5761C61.2512 57.4789 61.2318 57.3753 61.1864 57.278V57.2716L61.1734 57.2456L61.1605 57.2327V57.2262L61.1086 57.1744V57.1679L61.0957 57.1485V57.142L61.0827 57.1225V57.1161L61.0698 57.0966V57.0901L61.0568 57.0707V57.0642L61.0438 57.0448V57.0383L61.0309 57.0189V57.0124L61.0179 56.9929V56.9865L61.005 56.967V56.9605L60.992 56.9411V56.9346L60.9791 56.9152L60.992 56.9217L60.9791 56.9022V56.8957L60.9661 56.8763V56.8698L60.9531 56.8504V56.8439L60.9402 56.8245V56.818L60.9272 56.7985V56.7921L60.9143 56.7726V56.7661L60.9013 56.7467V56.7402L60.8883 56.7208V56.7143L60.8754 56.6949V56.6884L60.8624 56.669V56.6625L60.8495 56.643V56.6366L60.8365 56.6171V56.6106L60.8235 56.5912V56.5847L60.7976 56.5458V56.5394L60.7847 56.5199V56.5134L60.7587 56.4746L60.6162 56.1894L60.6097 56.157L60.4153 55.7683L60.4283 55.7553L60.2598 55.4184L60.2533 55.3924V55.386L60.2468 55.3665L60.2663 55.36L60.2598 55.3406V55.3341L60.2533 55.3147V55.3082L60.2468 55.2888V55.2823L60.2404 55.2628V55.2564L60.2339 55.2369V55.2304L60.2274 55.211L60.2209 55.2045L60.2144 55.1851L60.208 55.1786L60.2015 55.1592L60.195 55.1527L60.1885 55.1332L60.182 55.1268L60.1756 55.1073L60.1302 55.0166V55.0037L60.0265 54.7963L60.0201 54.7769L60.0136 54.7704L60.0071 54.7509L60.0006 54.7445L59.9941 54.725L59.9877 54.7185L59.9812 54.6991V54.6926L59.9747 54.6732V54.6667L59.9682 54.6473V54.6408L59.9617 54.6214V54.6149L59.9553 54.5954V54.589L59.9488 54.5695V54.563L59.9423 54.5436V54.5371L59.9358 54.5177V54.5112L59.9293 54.4853V54.4788L59.8645 54.2196V54.2131L59.8581 54.1872V54.1807L59.8516 54.1613V54.1548L59.8451 54.1354V54.1289L59.8386 54.1095L59.8192 54.0965L59.8127 54.0771V54.0706L59.8062 54.0511V54.0447L59.7997 54.0252V54.0187L59.7933 53.9993V53.9928L59.7803 53.9669V53.9604L59.7738 53.941L59.7673 53.9345L59.7609 53.9151L59.7544 53.9021L59.7479 53.8827L59.722 53.8308C59.6442 53.5133 59.4174 53.2347 59.087 53.1116L54.5966 51.3879C54.5836 51.375 54.5511 51.3619 54.5187 51.3554ZM74.9885 38.5126C78.008 38.5126 80.7425 39.7372 82.7253 41.7136C84.7081 43.6899 85.9263 46.4243 85.9263 49.4504C85.9263 52.47 84.7016 55.2045 82.7253 57.1873C80.7425 59.1701 78.008 60.3883 74.9885 60.3883C71.9689 60.3883 69.2344 59.1636 67.2516 57.1873C65.2688 55.2045 64.0506 52.47 64.0506 49.4504C64.0506 46.4309 65.2753 43.6964 67.2516 41.7136C69.2344 39.7373 71.9689 38.5126 74.9885 38.5126ZM81.2674 43.1715C82.8744 44.7785 83.8657 47.001 83.8657 49.4504C83.8657 51.8998 82.8743 54.1223 81.2674 55.7294C79.6604 57.3364 77.4379 58.3277 74.9885 58.3277C72.5391 58.3277 70.3166 57.3363 68.7095 55.7294C67.1025 54.1224 66.1112 51.9063 66.1112 49.4504C66.1112 47.001 67.1026 44.7786 68.7095 43.1715C70.3165 41.5644 72.5326 40.5731 74.9885 40.5731C77.4379 40.5731 79.6603 41.5645 81.2674 43.1715Z" stroke="#663366" stroke-width="1.2" mask="url(#path-1-outside-1_614_742)"/>
</svg>
