<svg width="150" height="150" viewBox="0 0 150 150" fill="none" xmlns="http://www.w3.org/2000/svg">
<path fill-rule="evenodd" clip-rule="evenodd" d="M42.8493 96.3108C42.7886 96.3139 42.7279 96.3139 42.6642 96.3108C39.5542 96.1085 36.8939 94.8453 34.8574 92.9799C33.0263 91.3044 31.707 89.1481 31.0225 86.8534C30.3317 84.5306 30.2804 82.0507 31.0007 79.7591C31.5794 77.9124 32.6513 76.1996 34.274 74.7947C33.9333 74.2455 33.6346 73.6699 33.3732 73.0756C32.9827 72.1873 32.6809 71.2507 32.4615 70.2893C29.1758 69.0198 26.531 66.739 24.6112 63.9153C22.847 61.3203 21.6988 58.2711 21.2352 55.1409C20.77 52.0029 20.9879 48.7701 21.9509 45.8126C22.9559 42.7338 24.7714 39.9536 27.4738 37.8907C25.6582 34.8943 24.969 31.7953 25.1604 28.9016C25.3113 26.6162 26.0145 24.4615 27.1533 22.5805C28.2921 20.7012 29.8634 19.1019 31.7443 17.9304C34.316 16.3311 37.4664 15.5143 40.8906 15.8504C40.9839 13.3627 42.031 11.1613 43.6474 9.39555C44.6804 8.26451 45.9437 7.32173 47.3267 6.60608C48.7083 5.89044 50.2173 5.39571 51.7497 5.15768C55.0495 4.6505 58.483 5.3397 61.0531 7.62043C61.4063 7.8818 61.6334 8.3003 61.6334 8.77013V19.8533H71.0877L73.6859 17.5617C73.5241 17.1307 73.4385 16.664 73.4385 16.1771C73.4385 15.0818 73.8819 14.0908 74.5991 13.372C75.3178 12.6548 76.3104 12.2099 77.4041 12.2099C78.4994 12.2099 79.4919 12.6548 80.2107 13.372C80.9279 14.0908 81.3713 15.0818 81.3713 16.1771C81.3713 17.2723 80.9279 18.2649 80.2107 18.9821C79.4919 19.7009 78.4994 20.1442 77.4041 20.1442C76.7429 20.1442 76.1191 19.9824 75.5699 19.6946L72.6544 22.2663C72.3946 22.5401 72.0274 22.7097 71.6198 22.7097H61.6334V35.9974L75.5652 36.0954L86.0292 26.1572C85.8347 25.6905 85.7289 25.1771 85.7289 24.6388C85.7289 23.5451 86.1723 22.5525 86.8911 21.8353C87.6083 21.1166 88.6009 20.6732 89.6961 20.6732C90.7898 20.6732 91.7824 21.1166 92.5011 21.8353C93.2183 22.5525 93.6617 23.5451 93.6617 24.6388C93.6617 25.7341 93.2183 26.7266 92.5011 27.4454C91.7824 28.1626 90.7898 28.606 89.6961 28.606C89.0847 28.606 88.5075 28.4691 87.9926 28.2233L77.1147 38.555L77.1132 38.5535C76.8565 38.7977 76.5095 38.9471 76.1268 38.9455L61.635 38.8444V50.6168C66.3085 48.7872 71.2853 48.0358 76.1937 48.3391C77.7666 48.4372 79.3332 48.641 80.8797 48.9552L86.0292 44.0639C85.8363 43.5957 85.7289 43.0838 85.7289 42.5455C85.7289 41.4518 86.1739 40.4593 86.8911 39.7405C87.6098 39.0233 88.6009 38.5799 89.6961 38.5799C90.7914 38.5799 91.7839 39.0233 92.5011 39.7405C93.2199 40.4593 93.6633 41.4518 93.6633 42.5455C93.6633 43.6408 93.2199 44.6333 92.5011 45.3505C91.7839 46.0693 90.7914 46.5127 89.6961 46.5127C89.0862 46.5127 88.5091 46.3758 87.9926 46.13L84.1452 49.7844C89.9606 51.5689 95.373 54.9293 99.6949 59.8222C105.944 66.8946 108.735 75.8277 108.194 84.5508C107.774 91.3386 105.341 98.0019 100.954 103.57L106.288 109.609L106.904 109.065C107.492 108.544 108.392 108.598 108.913 109.188L127.854 130.626C129.402 132.379 130.062 134.623 129.875 136.824C129.69 139.007 128.675 141.157 126.874 142.748C125.075 144.337 122.82 145.079 120.632 144.993C118.415 144.906 116.267 143.979 114.722 142.23L95.7807 120.792C95.2595 120.204 95.3139 119.303 95.9036 118.784L96.6083 118.16L91.1958 112.033C85.2638 115.471 78.5647 116.962 71.9823 116.553C63.281 116.014 54.7835 112.167 48.5418 105.135L48.5387 105.137C48.4858 105.084 48.4391 105.028 48.394 104.969C46.0604 102.307 44.2152 99.3849 42.8493 96.3108ZM99.0804 105.751C98.3352 106.548 97.548 107.316 96.7141 108.052C95.72 108.929 94.6901 109.74 93.6275 110.482L98.7444 116.276L104.157 111.495L99.0804 105.751ZM99.5658 119.345L99.5627 119.35L99.558 119.353L98.8564 119.972L116.853 140.345C117.861 141.485 119.273 142.092 120.732 142.149C122.222 142.207 123.759 141.701 124.985 140.619C126.21 139.537 126.9 138.075 127.028 136.592C127.151 135.128 126.726 133.65 125.721 132.515L107.721 112.139L99.5658 119.345ZM60.9007 54.0301C60.8431 54.0628 60.7824 54.0908 60.7202 54.1141C58.1408 55.3323 55.6858 56.9269 53.4362 58.8996L53.4175 58.9183L53.416 58.9167L53.3506 58.9743C46.8694 64.6994 43.3238 72.5093 42.8275 80.509C42.3359 88.4791 44.8671 96.6344 50.5394 103.1L50.558 103.117L50.5565 103.119L50.6125 103.184C56.3377 109.665 64.1491 113.211 72.1488 113.707C80.1547 114.202 88.3442 111.647 94.8239 105.922C101.305 100.195 104.851 92.3856 105.347 84.3859C105.842 76.38 103.287 68.1905 97.562 61.7108C91.8353 55.2296 84.0254 51.684 76.0257 51.1877C70.8948 50.8688 65.6877 51.8069 60.9007 54.0301ZM58.7786 51.8909V9.42822C56.9413 8.02182 54.5314 7.61888 52.176 7.98137C50.9454 8.16961 49.7366 8.56788 48.6351 9.13885C47.5337 9.7067 46.5426 10.4441 45.7477 11.3138C44.4859 12.6937 43.7018 14.4315 43.7454 16.3887C45.0149 16.7434 46.3093 17.2583 47.613 17.9506C48.4796 17.4357 49.4566 17.0996 50.4943 16.983C52.4514 16.7636 54.6139 17.3205 56.6255 18.9292C57.2384 19.4193 57.338 20.3154 56.8495 20.9268C56.3594 21.5413 55.4633 21.6409 54.8519 21.1508C53.4875 20.0602 52.0656 19.6775 50.807 19.8206C49.984 19.9124 49.2248 20.2298 48.604 20.7168C47.9802 21.2053 47.4885 21.868 47.1992 22.649C46.7527 23.8485 46.7822 25.3436 47.5243 26.96C47.851 27.6756 47.5368 28.5189 46.8211 28.8456C46.1055 29.1723 45.2607 28.858 44.934 28.1424C43.8512 25.7854 43.8372 23.5249 44.5311 21.6564C44.7489 21.0715 45.0367 20.5254 45.3821 20.0291C40.7677 17.9055 36.4365 18.3738 33.2534 20.3527C31.7443 21.2924 30.4919 22.565 29.5896 24.0554C28.6857 25.5443 28.1288 27.2603 28.0074 29.0805C27.718 33.4459 29.9645 38.4477 36.0055 42.572C36.6558 43.0154 36.8223 43.9021 36.3789 44.5524C35.9355 45.2027 35.0487 45.3692 34.3984 44.9258C32.2344 43.4494 30.4935 41.8579 29.1291 40.2088C26.9588 41.8937 25.4918 44.1666 24.6672 46.6963C23.8427 49.2259 23.6591 52.0107 24.062 54.7286C24.465 57.4527 25.4544 60.0913 26.9682 62.3207C28.275 64.2405 29.977 65.8585 32.0337 66.9599C32.0228 66.6706 32.0181 66.3812 32.0197 66.0918C32.0337 63.6882 32.4786 61.2628 33.283 59.0583C34.5914 55.4738 36.8643 52.4277 39.8109 50.9061C39.7813 50.5421 39.772 50.1749 39.7767 49.8109C39.7985 48.4247 40.0692 47.0556 40.5903 45.8499C41.5922 43.5412 43.4778 41.8314 46.2782 41.651C47.0654 41.6027 47.7406 42.2001 47.7919 42.9842C47.8401 43.7668 47.249 44.442 46.4695 44.4964H46.4571C44.878 44.5976 43.7952 45.6104 43.2009 46.9779C42.8291 47.8351 42.6377 48.8261 42.6206 49.8451C42.605 50.8797 42.7715 51.9283 43.1169 52.8788C43.7267 54.559 44.9091 55.9141 46.6329 56.2175C46.6982 56.2299 46.7651 56.2408 46.832 56.2486C47.6114 56.3466 48.1622 57.0591 48.0642 57.8386C47.9662 58.618 47.2536 59.1703 46.4757 59.0723C43.9554 58.7534 42.1383 57.2209 41.0353 55.1798C40.8066 54.7566 40.6074 54.3101 40.4394 53.8496L40.4348 53.8372C39.9136 54.1779 39.422 54.587 38.963 55.0569C37.6951 56.3513 36.6698 58.0859 35.9604 60.0291C35.4735 61.3639 35.139 62.7874 34.9756 64.2296C34.9056 64.8519 34.8683 65.4789 34.8652 66.1027C34.8605 67.044 34.9336 67.9821 35.0892 68.8922C35.1016 68.9404 35.111 68.9902 35.1172 69.0431C35.2992 70.0497 35.5886 71.0236 35.9884 71.9352C36.3416 72.7396 36.7834 73.4941 37.3201 74.1817C37.3373 74.2004 37.3528 74.2191 37.3668 74.2409C38.1649 75.2443 39.1699 76.0969 40.4005 76.7379C41.6529 69.3231 45.3463 62.2725 51.4028 56.8958L51.3997 56.8927C51.4526 56.8398 51.5086 56.7931 51.5677 56.748C53.808 54.7893 56.2334 53.1698 58.7786 51.8909ZM40.0272 79.7124C38.4512 79.0481 37.1288 78.1349 36.0398 77.0428C34.8932 78.068 34.1355 79.2955 33.7232 80.6086C33.1772 82.3432 33.2223 84.2428 33.7559 86.0381C34.3004 87.8615 35.3397 89.5666 36.7756 90.8812C38.0965 92.09 39.7596 92.9752 41.6856 93.3222C40.2745 89.1139 39.7098 84.7002 39.9805 80.3379C39.996 80.1309 40.0131 79.9225 40.0272 79.7124ZM55.7543 61.6937C50.0229 66.7577 46.8865 73.6652 46.4493 80.7408C46.0152 87.7681 48.2477 94.9635 53.2495 100.679C53.2931 100.737 53.3413 100.793 53.3942 100.846L53.3973 100.844C53.7676 101.263 54.1487 101.664 54.5392 102.055C54.5563 102.073 54.5734 102.089 54.5906 102.108C59.5114 106.996 65.876 109.681 72.3852 110.084C79.4126 110.519 86.6079 108.287 92.3222 103.284C92.3813 103.242 92.4373 103.192 92.4902 103.139L92.4887 103.137C98.1781 98.0781 101.293 91.197 101.728 84.1495C102.164 77.1206 99.9298 69.9268 94.9281 64.2109C94.8861 64.1518 94.8363 64.0958 94.7834 64.0429L94.7819 64.0445C89.7241 58.3566 82.843 55.242 75.7955 54.8064C68.7261 54.3677 61.4856 56.6297 55.7543 61.6937ZM75.6274 57.6519C70.8357 57.3563 65.96 58.4375 61.649 60.9361L61.6459 69.18L76.1284 69.0773C76.5095 69.0758 76.858 69.2251 77.1147 69.4694L77.1163 69.4678L84.811 76.7767C85.3275 76.5309 85.9047 76.394 86.5146 76.394C87.6098 76.394 88.6024 76.8374 89.3196 77.5562C90.0368 78.2734 90.4818 79.2659 90.4818 80.3612C90.4818 81.4549 90.0368 82.4475 89.3196 83.1662C88.6024 83.8834 87.6098 84.3268 86.5146 84.3268C85.4193 84.3268 84.4283 83.8834 83.7096 83.1662C82.9924 82.4475 82.5474 81.4549 82.5474 80.3612C82.5474 79.8229 82.6548 79.3111 82.8477 78.8428L75.5652 71.9275L61.6443 72.0255L61.6381 84.2646L69.0202 84.2117C69.4029 84.2101 69.7514 84.3595 70.0081 84.6037L73.7076 88.1166C74.2241 87.8708 74.8013 87.7339 75.4112 87.7339C76.5064 87.7339 77.499 88.1773 78.2162 88.8945C78.935 89.6133 79.3784 90.6058 79.3784 91.6995C79.3784 92.7948 78.935 93.7873 78.2162 94.5061C77.499 95.2233 76.5064 95.6667 75.4112 95.6667C74.3175 95.6667 73.3249 95.2233 72.6062 94.5061C71.889 93.7873 71.444 92.7948 71.444 91.6995C71.444 91.1628 71.5514 90.6509 71.7443 90.1827L68.4601 87.0618L61.6366 87.1101L61.6303 100.161C61.6739 100.779 61.3098 101.378 60.6969 101.603C60.115 101.817 59.5223 101.994 58.9233 102.132C62.9294 105.224 67.6962 106.941 72.5502 107.241C78.8665 107.632 85.326 105.63 90.4522 101.14L90.4709 101.123L90.5362 101.067C95.6764 96.5255 98.4908 90.3305 98.8828 83.9861C99.2733 77.6697 97.2711 71.2087 92.7812 66.0825L92.764 66.0654L92.708 65.9985C88.1684 60.8567 81.9718 58.0455 75.6274 57.6519ZM58.802 62.8605C58.4084 63.1686 58.021 63.4906 57.6414 63.8267C52.4996 68.3679 49.6884 74.5614 49.2948 80.9073C48.9043 87.2236 50.9081 93.6831 55.3964 98.8093L55.4151 98.828L55.4135 98.8295L55.4711 98.8933C55.6967 99.1485 55.9269 99.3989 56.1603 99.6432C56.6597 99.6199 57.1653 99.5623 57.6741 99.4736C58.049 99.4083 58.4193 99.3227 58.7864 99.2231L58.7926 85.839C58.788 85.7939 58.7849 85.7472 58.7849 85.7021C58.7849 85.6508 58.788 85.601 58.7926 85.5512L58.8004 70.8135C58.7911 70.7482 58.7849 70.6829 58.7849 70.616C58.7849 70.5428 58.7895 70.4728 58.8004 70.4044L58.802 62.8605Z" fill="#663366"/>
</svg>
