<svg width="150" height="150" viewBox="0 0 150 150" fill="none" xmlns="http://www.w3.org/2000/svg">
<path d="M133.618 73.9492H141.907C143.615 73.9492 145 75.335 145 77.0423V107.848C145 109.555 143.615 110.941 141.907 110.941H133.618" stroke="#663366" stroke-width="4" stroke-miterlimit="10" stroke-linejoin="round"/>
<path d="M16.3821 110.941H8.09309C6.38577 110.941 5 109.555 5 107.848V77.0423C5 75.335 6.38577 73.9492 8.09309 73.9492H16.3821" stroke="#663366" stroke-width="4" stroke-miterlimit="10" stroke-linejoin="round"/>
<path d="M119.105 61.1445H130.772C132.344 61.1445 133.618 62.4185 133.618 63.9901V120.901C133.618 122.472 132.344 123.746 130.772 123.746H88.434C87.7184 123.746 87.0289 123.476 86.5031 122.991L76.9304 114.148C75.8403 113.141 74.1589 113.141 73.0687 114.148L63.4961 122.991C62.9702 123.476 62.2811 123.746 61.5651 123.746H19.2274C17.6558 123.746 16.3818 122.472 16.3818 120.901V63.9901C16.3818 62.4185 17.6558 61.1445 19.2274 61.1445H96.3412" stroke="#663366" stroke-width="4" stroke-miterlimit="10" stroke-linecap="round" stroke-linejoin="round"/>
<circle cx="107.723" cy="61.1463" r="2.84553" fill="#663366"/>
<path d="M102.886 98.136C106.029 98.136 108.577 95.588 108.577 92.445C108.577 89.3019 106.029 86.7539 102.886 86.7539C99.7433 86.7539 97.1953 89.3019 97.1953 92.445C97.1953 95.588 99.7433 98.136 102.886 98.136Z" stroke="#663366" stroke-width="4" stroke-miterlimit="10" stroke-linecap="round" stroke-linejoin="round"/>
<path d="M102.887 109.517C112.316 109.517 119.96 101.874 119.96 92.4443C119.96 83.015 112.316 75.3711 102.887 75.3711C93.4574 75.3711 85.8135 83.015 85.8135 92.4443C85.8135 101.874 93.4574 109.517 102.887 109.517Z" stroke="#663366" stroke-width="4" stroke-miterlimit="10" stroke-linecap="round" stroke-linejoin="round"/>
<path d="M47.1139 98.136C50.257 98.136 52.805 95.588 52.805 92.445C52.805 89.3019 50.257 86.7539 47.1139 86.7539C43.9708 86.7539 41.4229 89.3019 41.4229 92.445C41.4229 95.588 43.9708 98.136 47.1139 98.136Z" stroke="#663366" stroke-width="4" stroke-miterlimit="10" stroke-linecap="round" stroke-linejoin="round"/>
<path d="M47.1142 109.517C56.5434 109.517 64.1874 101.874 64.1874 92.4443C64.1874 83.015 56.5434 75.3711 47.1142 75.3711C37.6849 75.3711 30.041 83.015 30.041 92.4443C30.041 101.874 37.6849 109.517 47.1142 109.517Z" stroke="#663366" stroke-width="4" stroke-miterlimit="10" stroke-linecap="round" stroke-linejoin="round"/>
<path d="M80.6907 61.1445V66.8356C80.6907 69.9788 78.1428 72.5266 74.9997 72.5266C71.8565 72.5266 69.3086 69.9788 69.3086 66.8356V61.1445" stroke="#663366" stroke-width="4" stroke-miterlimit="10" stroke-linejoin="round"/>
<circle cx="74.9998" cy="49.7635" r="2.84553" fill="#663366"/>
<path d="M66.9531 41.7178C69.0104 39.6576 71.856 38.3828 75.0003 38.3828C78.1446 38.3828 80.9901 39.6576 83.0474 41.7178" stroke="#663366" stroke-width="4" stroke-miterlimit="10" stroke-linecap="round" stroke-linejoin="round"/>
<path d="M58.9023 33.6671C63.0227 29.5467 68.7137 27 74.9995 27C81.2853 27 86.9763 29.5467 91.0967 33.6671" stroke="#663366" stroke-width="4" stroke-miterlimit="10" stroke-linecap="round" stroke-linejoin="round"/>
</svg>
