<svg width="150" height="150" viewBox="0 0 150 150" fill="none" xmlns="http://www.w3.org/2000/svg">
<path d="M135.388 80.4336C134.198 80.4336 133.242 81.3902 133.242 82.5799V88.332C133.242 91.8028 130.415 94.6298 126.938 94.6298H95.1356C93.9459 94.6298 92.9893 95.5865 92.9893 96.7761C92.9893 97.9658 93.9459 98.9224 95.1356 98.9224H126.938C132.776 98.9224 137.528 94.17 137.528 88.332V82.5799C137.528 81.3903 136.572 80.4336 135.382 80.4336H135.388Z" fill="#663366"/>
<path d="M138.785 72.0553H137.534V60.9068C137.534 55.0688 132.782 50.3164 126.944 50.3164H87.7037C81.8657 50.3164 77.1133 55.0688 77.1133 60.9068V63.2371C77.1133 64.4268 78.0699 65.3834 79.2596 65.3834C80.4492 65.3834 81.4059 64.4268 81.4059 63.2371V60.9068C81.4059 57.436 84.2329 54.6029 87.7037 54.6029H126.944C130.415 54.6029 133.248 57.4299 133.248 60.9068V72.0553H119.781C119.046 72.0553 118.383 72.4907 118.095 73.1591L116.084 77.789L112.073 63.5007C111.846 62.6913 111.104 62.1394 110.252 62.1578C109.406 62.1823 108.688 62.771 108.51 63.5988L104.849 80.1075L103.562 76.7101C103.292 75.9988 102.605 75.5205 101.844 75.5205H93.3145C92.2966 75.5205 91.4748 76.3422 91.4748 77.3602C91.4748 78.3782 92.2965 79.1999 93.3145 79.1999H100.575L103.592 87.1841C103.862 87.9077 104.549 88.3737 105.309 88.3737C105.352 88.3737 105.395 88.3737 105.444 88.3676C106.254 88.3063 106.928 87.7237 107.112 86.9265L110.522 71.5468L113.944 83.7621C114.152 84.5103 114.814 85.0499 115.587 85.099C116.36 85.1542 117.089 84.7065 117.402 83.9952L120.996 75.7289H138.798C139.816 75.7289 140.638 74.9072 140.638 73.8892C140.638 72.8712 139.816 72.0495 138.798 72.0495L138.785 72.0553Z" fill="#663366"/>
<path d="M21.3767 47.5637H34.837V50.4644C34.837 50.955 35.0332 51.421 35.3767 51.7644L39.7366 56.1182C40.0923 56.4739 40.5706 56.6579 41.0366 56.6579C41.5088 56.6579 41.981 56.4739 42.3367 56.1182C43.0542 55.4008 43.0542 54.2357 42.3367 53.5182L38.5163 49.704V43.2773C40.8466 42.5046 42.5268 40.3093 42.5268 37.7275C42.5268 34.5019 39.9021 31.8773 36.6766 31.8773C33.451 31.8773 30.8263 34.5019 30.8263 37.7275C30.8263 40.303 32.5065 42.4985 34.8307 43.271H21.3766C17.4642 43.271 14.2755 40.0823 14.2755 36.1699C14.2755 32.7726 16.6916 29.8352 20.0276 29.1975C20.4691 29.1117 20.9229 29.0749 21.3706 29.0749C21.5423 29.0749 21.6833 29.081 21.8121 29.0872H21.8427C23.3451 29.1853 24.7495 29.7495 25.9146 30.7123C26.3194 31.0495 26.8038 31.209 27.2883 31.209C27.9015 31.209 28.5147 30.9453 28.9379 30.4363C29.6983 29.5288 29.5695 28.1735 28.6619 27.4131C26.8038 25.8678 24.5472 24.9602 22.1373 24.8007H22.0944C23.0019 21.9186 25.694 19.8213 28.8705 19.8213C29.1158 19.8213 29.3488 19.8335 29.5941 19.8581C29.8516 19.8826 30.1031 19.9194 30.3606 19.9807C31.9305 20.318 33.3594 21.1949 34.3834 22.4581C34.8065 22.9855 35.4259 23.2553 36.0514 23.2553C36.5297 23.2553 37.008 23.0959 37.4005 22.777C38.3203 22.0288 38.4613 20.6798 37.7193 19.7599C36.5542 18.3249 35.0702 17.2088 33.3961 16.4792C34.9046 12.2724 38.9887 9.32894 43.5512 9.32894C46.8258 9.32894 49.8796 10.7884 51.9402 13.3395C52.4737 14.0017 52.9336 14.7253 53.2954 15.4858C53.6634 16.2584 54.436 16.7122 55.2333 16.7122C55.5399 16.7122 55.8526 16.6448 56.1531 16.5037C57.2201 15.9947 57.68 14.7131 57.1711 13.6461C56.938 13.1494 56.6682 12.6649 56.38 12.1989C57.6432 11.1564 59.2192 10.5801 60.8933 10.5801C64.3765 10.5801 67.3323 13.1372 67.8963 16.5223C66.118 17.3195 64.5481 18.5643 63.383 20.1403C62.6778 21.0908 62.874 22.4337 63.8245 23.1391C64.2047 23.4212 64.6585 23.5622 65.1 23.5622C65.7562 23.5622 66.4 23.2617 66.8294 22.6914C67.7737 21.4159 69.1352 20.4839 70.6559 20.0668C70.9134 20.0054 71.1465 19.8951 71.355 19.7479C71.588 19.8092 71.8333 19.846 72.0908 19.8215C72.2319 19.8092 72.379 19.8092 72.5385 19.8092C75.7335 19.8092 78.4438 21.931 79.333 24.8499C79.3146 24.8499 79.2962 24.8621 79.2778 24.8621C79.2533 24.8683 79.2226 24.8744 79.1919 24.8867C79.1552 24.8989 79.1184 24.9112 79.0816 24.9235C79.057 24.9357 79.0325 24.9419 79.008 24.9541C78.9712 24.9664 78.9344 24.9909 78.8976 25.0032C78.8731 25.0154 78.8485 25.0277 78.824 25.04C78.7872 25.0645 78.7504 25.0829 78.7136 25.1013C78.6891 25.1136 78.6768 25.1258 78.6523 25.1381C78.6094 25.1626 78.5665 25.1994 78.5297 25.2239C78.5174 25.2362 78.5051 25.2423 78.4929 25.2485C78.4438 25.2853 78.3948 25.3343 78.3457 25.3772C78.3334 25.3895 78.3273 25.4018 78.315 25.4079C78.2782 25.4447 78.2414 25.4815 78.2047 25.5183C78.1924 25.5367 78.1801 25.5551 78.1617 25.5735C78.1372 25.6103 78.1127 25.6409 78.082 25.6716C78.0697 25.6961 78.0513 25.7145 78.0391 25.7329C78.0146 25.7697 77.9962 25.8004 77.9778 25.831C77.9655 25.8556 77.9532 25.8801 77.941 25.9046C77.9226 25.9414 77.9042 25.9721 77.8919 26.0089C77.8796 26.0334 77.8674 26.0579 77.8551 26.0825C77.8429 26.1193 77.8306 26.156 77.8122 26.1928C77.7999 26.2174 77.7938 26.2419 77.7877 26.2726C77.7754 26.3093 77.7631 26.3461 77.757 26.3829C77.7509 26.4075 77.7447 26.4381 77.7325 26.4688C77.7202 26.5056 77.7202 26.5485 77.7079 26.5914C77.7079 26.616 77.6957 26.6405 77.6957 26.6712C77.6895 26.7202 77.6834 26.7631 77.6834 26.8061V26.8735C77.6834 26.9471 77.6834 27.0084 77.6895 27.082C77.7754 28.2594 78.8117 29.1486 79.9954 29.0627C80.3388 29.0382 80.6515 29.0382 80.952 29.0504C81.0133 29.0504 81.0808 29.0566 81.1421 29.0627H81.1543C81.277 29.075 81.3874 29.0872 81.5039 29.0995C84.9993 29.5717 87.6424 32.5949 87.6424 36.1394C87.6424 40.0518 84.4537 43.2405 80.5413 43.2405H73.7835C72.5938 43.2405 71.6372 44.1971 71.6372 45.3868C71.6372 46.5764 72.5938 47.5331 73.7835 47.5331H80.5413C86.8207 47.5331 91.935 42.4188 91.935 36.1394C91.935 31.0618 88.5438 26.6466 83.8158 25.224C83.0064 19.7295 78.2599 15.4982 72.5447 15.4982C72.3853 15.4982 72.2381 15.4982 72.0909 15.5105C71.0853 10.2245 66.4002 6.25086 60.9057 6.25086C58.2137 6.25086 55.6688 7.18297 53.6451 8.86326C50.8979 6.38587 47.3289 5 43.5636 5C37.0021 5 31.152 9.35384 29.1958 15.5107H28.8892C23.1187 15.5107 18.3294 19.8278 17.5936 25.4082C13.1048 26.9903 10.002 31.2706 10.002 36.1519C10.002 42.4314 15.1162 47.5457 21.3957 47.5457L21.3767 47.5637ZM36.6829 35.5568C37.8786 35.5568 38.8536 36.5257 38.8536 37.7276C38.8536 38.9234 37.8848 39.8984 36.6829 39.8984C35.4809 39.8984 34.5121 38.9295 34.5121 37.7276C34.5121 36.5257 35.481 35.5568 36.6829 35.5568Z" fill="#663366"/>
<path d="M55.6084 131.858C54.0999 132.054 52.5668 132.152 51.0337 132.152C31.8029 132.152 16.153 116.503 16.153 97.2715C16.153 81.1318 27.1665 67.5243 42.0745 63.5557V64.5124C42.0745 67.4926 44.4968 69.9087 47.4709 69.9087H54.5966C57.5768 69.9087 59.993 67.4865 59.993 64.5124V63.5557C65.4078 64.9907 70.43 67.7256 74.6368 71.589C81.0511 77.4882 85.0065 85.4847 85.7792 94.1306C85.8834 95.308 86.932 96.1788 88.1095 96.0807C89.2869 95.9764 90.1577 94.9278 90.0595 93.7504C89.1888 84.0491 84.749 75.0534 77.5497 68.4364C70.706 62.1447 61.9247 58.5267 52.6643 58.1465C52.7992 57.8889 52.8728 57.6007 52.8728 57.288V47.5745H63.5797V49.7146L59.7593 53.5289C59.0418 54.2464 59.0357 55.4115 59.7593 56.1289C60.1149 56.4846 60.5933 56.6686 61.0593 56.6686C61.5315 56.6686 62.0037 56.4846 62.3593 56.1289L66.7193 51.7751C67.0627 51.4317 67.2589 50.9656 67.2589 50.4751V43.282C69.5831 42.5093 71.2694 40.314 71.2694 37.7385C71.2694 34.5129 68.6448 31.8883 65.4192 31.8883C62.1936 31.8883 59.569 34.5129 59.569 37.7385C59.569 40.314 61.2492 42.5094 63.5734 43.282H52.8787V34.8195C55.2029 34.0468 56.8892 31.8515 56.8892 29.276C56.8892 26.0504 54.2646 23.4258 51.039 23.4258C47.8134 23.4258 45.1888 26.0504 45.1888 29.276C45.1888 31.8576 46.869 34.047 49.1993 34.8195V57.2826C49.1993 57.5892 49.2729 57.8835 49.4078 58.1411C28.5648 58.9996 11.8662 76.2259 11.8662 97.2777C11.8662 114.656 23.2416 129.424 38.9337 134.537V140.706H27.54C26.3503 140.706 25.3937 141.662 25.3937 142.852C25.3937 144.042 26.3503 144.998 27.54 144.998H52.4678C53.6574 144.998 54.6141 144.042 54.6141 142.852C54.6141 141.662 53.6574 140.706 52.4678 140.706H43.2265V135.665C45.753 136.18 48.3652 136.45 51.0451 136.45C52.7623 136.45 54.4915 136.34 56.1778 136.113C57.3552 135.959 58.1769 134.88 58.0298 133.709C57.8765 132.532 56.8033 131.71 55.626 131.857L55.6084 131.858ZM65.4078 35.5565C66.6036 35.5565 67.5786 36.5254 67.5786 37.7273C67.5786 38.9231 66.6097 39.8981 65.4078 39.8981C64.2058 39.8981 63.237 38.9292 63.237 37.7273C63.237 36.5254 64.2059 35.5565 65.4078 35.5565ZM56.3075 64.5126C56.3075 65.4569 55.5348 66.2297 54.5903 66.2297H47.4646C46.5202 66.2297 45.7475 65.457 45.7475 64.5126V62.7832C47.4707 62.5195 49.2307 62.3846 51.0335 62.3846C52.8302 62.3846 54.5779 62.5195 56.3195 62.7893V64.5187L56.3075 64.5126ZM51.0214 27.0934C52.2172 27.0934 53.1922 28.0623 53.1922 29.2642C53.1922 30.46 52.2233 31.435 51.0214 31.435C49.8195 31.435 48.8506 30.4661 48.8506 29.2642C48.8506 28.0684 49.8195 27.0934 51.0214 27.0934Z" fill="#663366"/>
<path d="M20.4082 140.699H12.5711C11.3815 140.699 10.4248 141.656 10.4248 142.846C10.4248 144.035 11.3814 144.992 12.5711 144.992H20.4082C21.5978 144.992 22.5545 144.035 22.5545 142.846C22.5545 141.656 21.5978 140.699 20.4082 140.699Z" fill="#663366"/>
<path d="M98.9631 108.775C99.282 108.143 99.4659 107.426 99.4659 106.665C99.4659 105.402 98.9754 104.212 98.0801 103.317C97.1847 102.422 95.9951 101.931 94.7319 101.931H73.6424C73.4523 101.391 73.1518 100.901 72.7348 100.484C72.0051 99.7541 71.0362 99.3555 69.9998 99.3555H52.375C50.4986 99.3555 48.7692 99.9749 47.3834 101.024C46.2918 99.0428 44.1823 97.6937 41.7662 97.6937C38.2341 97.6937 35.352 100.57 35.352 104.108C35.352 105.672 35.9161 107.1 36.8482 108.217C36.2657 108.474 35.7322 108.83 35.2539 109.253C32.7151 105.929 31.2066 101.772 31.2066 97.2767C31.2066 86.3613 40.0861 77.4823 51.001 77.4823C60.089 77.4823 67.9743 83.6269 70.1956 92.4205C70.4409 93.4016 71.4466 94.0026 72.4278 93.7512C73.409 93.5059 74.0099 92.5002 73.7585 91.519C71.1277 81.0881 61.7638 73.7969 50.9956 73.7969C38.0565 73.7969 27.5215 84.3259 27.5215 97.2709C27.5215 103.262 29.7782 108.738 33.4882 112.884C33.6354 113.595 34.1321 114.214 34.8618 114.478C34.9477 114.509 35.0397 114.533 35.1317 114.552C39.3139 118.39 44.8819 120.745 50.9951 120.745C52.013 120.745 52.8348 119.923 52.8348 118.905C52.8348 117.887 52.0131 117.066 50.9951 117.066C46.126 117.066 41.6618 115.294 38.2094 112.368C38.5282 112.117 38.9268 111.964 39.35 111.964H95.4598C96.4778 111.964 97.3056 112.792 97.3056 113.809V116.777C97.3056 117.795 96.4778 118.623 95.4598 118.623H92.0749H92.0565H75.6829H75.6706H56.735C55.5453 118.623 54.5887 119.58 54.5887 120.77C54.5887 121.959 55.5453 122.916 56.735 122.916H72.556L65.142 142.073C64.8845 142.735 64.9703 143.477 65.3751 144.06C65.7798 144.642 66.4421 144.992 67.1412 144.992H83.5148C83.619 144.992 83.7233 144.98 83.8214 144.967C83.9195 144.98 84.0176 144.992 84.128 144.992H89.8248C91.0145 144.992 91.9712 144.035 91.9712 142.846C91.9712 141.656 91.0145 140.699 89.8248 140.699H86.6484L93.5288 122.916H95.4666C98.8515 122.916 101.605 120.162 101.605 116.777V113.809C101.605 111.724 100.563 109.885 98.9682 108.775L98.9631 108.775ZM82.0385 140.699H70.2707L77.151 122.916H88.9188L82.0385 140.699ZM52.376 103.035H70.0008C70.0498 103.035 70.0989 103.054 70.1296 103.091C70.1664 103.127 70.1848 103.17 70.1848 103.219V105.378C70.1848 106.396 71.0065 107.218 72.0245 107.218C72.9627 107.218 73.7292 106.519 73.8519 105.611H94.7389C95.021 105.611 95.2908 105.721 95.487 105.918C95.6833 106.114 95.7936 106.384 95.7936 106.666C95.7936 107.144 95.4748 107.537 95.0455 107.671H47.741V107.641C47.7655 105.096 49.8443 103.035 52.3953 103.035L52.376 103.035ZM41.7611 101.373C43.2696 101.373 44.4961 102.6 44.4961 104.108C44.4961 105.617 43.2697 106.844 41.7611 106.844C40.2587 106.844 39.0261 105.617 39.0261 104.108C39.0261 102.6 40.2525 101.373 41.7611 101.373Z" fill="#663366"/>
<path d="M23.6093 96.8555H20.0526C19.0346 96.8555 18.2129 97.6772 18.2129 98.6952C18.2129 99.7131 19.0346 100.535 20.0526 100.535H23.6093C24.6272 100.535 25.449 99.7132 25.449 98.6952C25.449 97.6772 24.6273 96.8555 23.6093 96.8555Z" fill="#663366"/>
<path d="M23.6093 91.1641H20.0526C19.0346 91.1641 18.2129 91.9858 18.2129 93.0038C18.2129 94.0217 19.0346 94.8435 20.0526 94.8435H23.6093C24.6272 94.8435 25.449 94.0218 25.449 93.0038C25.449 91.9858 24.6273 91.1641 23.6093 91.1641Z" fill="#663366"/>
<path d="M81.4364 96.8555H77.8798C76.8618 96.8555 76.04 97.6772 76.04 98.6952C76.04 99.7131 76.8618 100.535 77.8798 100.535H81.4364C82.4544 100.535 83.2761 99.7132 83.2761 98.6952C83.2761 97.6772 82.4544 96.8555 81.4364 96.8555Z" fill="#663366"/>
<path d="M81.4364 91.1641H77.8798C76.8618 91.1641 76.04 91.9858 76.04 93.0038C76.04 94.0217 76.8618 94.8435 77.8798 94.8435H81.4364C82.4544 94.8435 83.2761 94.0218 83.2761 93.0038C83.2761 91.9858 82.4544 91.1641 81.4364 91.1641Z" fill="#663366"/>
</svg>
