<svg width="150" height="150" viewBox="0 0 150 150" fill="none" xmlns="http://www.w3.org/2000/svg">
<path d="M107.53 143.851C107.005 143.851 106.502 143.61 106.152 143.173L91.1018 123.026C90.883 123.026 90.6862 123.047 90.4674 123.047C85.2829 123.047 80.3828 120.816 77.0577 117.01C72.792 120.422 67.4763 122.282 61.9199 122.282C54.2854 122.282 47.1759 118.76 42.5602 112.766C38.6663 115.96 33.7881 117.688 28.6474 117.688C16.4627 117.688 6.57503 107.778 6.57503 95.6156C6.57503 90.978 8.04069 86.4935 10.7095 82.7747C7.10004 79.6903 5 75.2058 5 70.4151C5 62.7149 10.4251 56.1304 17.8409 54.5991C19.9191 42.677 30.3099 33.8612 42.5383 33.8612C43.5883 33.8612 44.5946 33.9268 45.5352 34.0362C49.1665 26.9267 56.4729 22.3984 64.545 22.3984C72.2451 22.3984 79.2672 26.5329 83.0516 33.1174C86.4204 30.2955 90.7518 28.7204 95.2363 28.7204C104.993 28.7204 112.977 35.8737 114.202 45.3239C115.034 45.2364 115.843 45.1927 116.652 45.1927C129.165 45.1927 139.359 55.3866 139.359 67.8994C139.359 74.987 136.078 81.5934 130.521 85.8591C132.14 88.8561 132.993 92.203 132.993 95.6156C132.993 106.269 124.834 115.041 114.465 116.047L123.74 135.276C123.937 135.691 123.959 136.195 123.806 136.632C123.631 137.07 123.302 137.42 122.865 137.595L108.23 143.72C107.968 143.807 107.749 143.851 107.53 143.851ZM91.8456 119.547C92.3924 119.547 92.9612 119.788 93.2893 120.225L108.099 140.045L119.846 135.123L110.199 115.107C109.915 114.538 109.98 113.86 110.374 113.335C110.768 112.832 111.402 112.569 112.015 112.678C112.146 112.7 112.299 112.7 112.43 112.7C121.859 112.7 129.537 105.022 129.537 95.5937C129.537 92.2686 128.574 89.0529 126.781 86.2748C126.278 85.4872 126.496 84.4372 127.262 83.9122C132.665 80.3465 135.881 74.3526 135.881 67.8556C135.881 57.2242 127.218 48.5615 116.587 48.5615C115.405 48.5615 114.159 48.6927 112.933 48.9334C112.43 49.0427 111.927 48.9115 111.533 48.6052C111.14 48.299 110.899 47.8177 110.899 47.3146C110.637 38.7832 103.724 32.1111 95.1925 32.1111C90.8393 32.1111 86.6829 33.9268 83.7735 37.0769C83.3798 37.4925 82.7891 37.6894 82.2422 37.6019C81.6735 37.5144 81.1922 37.1206 80.9516 36.5956C78.1078 30.033 71.6545 25.7891 64.5231 25.7891C57.3917 25.7891 50.9385 30.033 48.0946 36.5956C47.7665 37.3394 46.979 37.755 46.1915 37.58C45.054 37.3612 43.8727 37.2519 42.5383 37.2519C31.6006 37.2519 22.3691 45.4333 21.0566 56.2616C20.9691 57.0492 20.3566 57.6617 19.5691 57.7492C13.2252 58.5367 8.41257 63.9837 8.41257 70.3932C8.41257 74.6589 10.5345 78.6184 14.0783 80.9809C14.4939 81.2434 14.7565 81.6809 14.8221 82.1622C14.8877 82.6434 14.7565 83.1247 14.4283 83.4966C11.5626 86.8435 9.9876 91.1311 9.9876 95.55C9.9876 105.831 18.3659 114.21 28.6474 114.21C33.5475 114.21 38.1632 112.328 41.6414 108.938C42.0133 108.588 42.5164 108.391 43.0195 108.456C43.5227 108.5 43.9821 108.785 44.2664 109.222C48.1603 115.216 54.7667 118.804 61.9199 118.804C67.2575 118.804 72.2889 116.835 76.139 113.247C76.5109 112.919 76.9921 112.744 77.4953 112.788C77.9984 112.832 78.4359 113.094 78.7203 113.51C81.6078 117.644 86.5736 119.897 91.7143 119.525C91.7581 119.547 91.8018 119.547 91.8456 119.547Z" fill="#663366"/>
<path d="M94.6017 99.64H51.3977C50.457 99.64 49.6914 98.8744 49.6914 97.9337V54.7297C49.6914 53.7891 50.457 53.0234 51.3977 53.0234H94.6017C95.5424 53.0234 96.308 53.7891 96.308 54.7297V97.9337C96.308 98.8744 95.5424 99.64 94.6017 99.64ZM53.104 96.2275H92.8954V56.436H53.104V96.2275Z" fill="#663366"/>
<path d="M88.2583 93.2976H57.7639C56.8233 93.2976 56.0576 92.5319 56.0576 91.5913V61.0969C56.0576 60.1563 56.8233 59.3906 57.7639 59.3906H88.2583C89.1989 59.3906 89.9646 60.1563 89.9646 61.0969V91.5913C89.9646 92.5319 89.1989 93.2976 88.2583 93.2976ZM59.4702 89.885H86.552V62.8032H59.4702V89.885Z" fill="#663366"/>
<path d="M82.4592 62.8004C81.5186 62.8004 80.7529 62.0348 80.7529 61.0942V43.4407C80.7529 42.5 81.5186 41.7344 82.4592 41.7344C83.3999 41.7344 84.1655 42.5 84.1655 43.4407V61.0942C84.1655 62.0348 83.3999 62.8004 82.4592 62.8004Z" fill="#663366"/>
<path d="M73.01 62.8004C72.0694 62.8004 71.3037 62.0348 71.3037 61.0942V43.4407C71.3037 42.5 72.0694 41.7344 73.01 41.7344C73.9506 41.7344 74.7163 42.5 74.7163 43.4407V61.0942C74.7163 62.0348 73.9506 62.8004 73.01 62.8004Z" fill="#663366"/>
<path d="M63.5588 62.8004C62.6182 62.8004 61.8525 62.0348 61.8525 61.0942V43.4407C61.8525 42.5 62.6182 41.7344 63.5588 41.7344C64.4995 41.7344 65.2651 42.5 65.2651 43.4407V61.0942C65.2651 62.0348 64.4995 62.8004 63.5588 62.8004Z" fill="#663366"/>
<path d="M82.4592 110.925C81.5186 110.925 80.7529 110.16 80.7529 109.219V91.5657C80.7529 90.625 81.5186 89.8594 82.4592 89.8594C83.3999 89.8594 84.1655 90.625 84.1655 91.5657V109.219C84.1655 110.182 83.3999 110.925 82.4592 110.925Z" fill="#663366"/>
<path d="M73.01 110.925C72.0694 110.925 71.3037 110.16 71.3037 109.219V91.5657C71.3037 90.625 72.0694 89.8594 73.01 89.8594C73.9506 89.8594 74.7163 90.625 74.7163 91.5657V109.219C74.7163 110.182 73.9506 110.925 73.01 110.925Z" fill="#663366"/>
<path d="M63.5588 110.925C62.6182 110.925 61.8525 110.16 61.8525 109.219V91.5657C61.8525 90.625 62.6182 89.8594 63.5588 89.8594C64.4995 89.8594 65.2651 90.625 65.2651 91.5657V109.219C65.2651 110.182 64.4995 110.925 63.5588 110.925Z" fill="#663366"/>
<path d="M105.889 87.4985H88.2356C87.2949 87.4985 86.5293 86.7329 86.5293 85.7922C86.5293 84.8516 87.2949 84.0859 88.2356 84.0859H105.889C106.83 84.0859 107.595 84.8516 107.595 85.7922C107.595 86.7329 106.852 87.4985 105.889 87.4985Z" fill="#663366"/>
<path d="M105.889 78.0454H88.2356C87.2949 78.0454 86.5293 77.2797 86.5293 76.3391C86.5293 75.3985 87.2949 74.6328 88.2356 74.6328H105.889C106.83 74.6328 107.595 75.3985 107.595 76.3391C107.595 77.2797 106.852 78.0454 105.889 78.0454Z" fill="#663366"/>
<path d="M105.889 68.5962H88.2356C87.2949 68.5962 86.5293 67.8305 86.5293 66.8899C86.5293 65.9492 87.2949 65.1836 88.2356 65.1836H105.889C106.83 65.1836 107.595 65.9492 107.595 66.8899C107.595 67.8305 106.852 68.5962 105.889 68.5962Z" fill="#663366"/>
<path d="M57.7631 87.4985H40.1096C39.169 87.4985 38.4033 86.7329 38.4033 85.7922C38.4033 84.8516 39.169 84.0859 40.1096 84.0859H57.7631C58.7037 84.0859 59.4694 84.8516 59.4694 85.7922C59.4694 86.7329 58.7037 87.4985 57.7631 87.4985Z" fill="#663366"/>
<path d="M57.7631 78.0454H40.1096C39.169 78.0454 38.4033 77.2797 38.4033 76.3391C38.4033 75.3985 39.169 74.6328 40.1096 74.6328H57.7631C58.7037 74.6328 59.4694 75.3985 59.4694 76.3391C59.4694 77.2797 58.7037 78.0454 57.7631 78.0454Z" fill="#663366"/>
<path d="M57.7631 68.5962H40.1096C39.169 68.5962 38.4033 67.8305 38.4033 66.8899C38.4033 65.9492 39.169 65.1836 40.1096 65.1836H57.7631C58.7037 65.1836 59.4694 65.9492 59.4694 66.8899C59.4694 67.8305 58.7037 68.5962 57.7631 68.5962Z" fill="#663366"/>
<path d="M111.186 42.5233C110.748 42.5233 110.311 42.3483 109.982 42.0201C109.326 41.3639 109.326 40.2701 109.982 39.6138L136.233 13.3633C136.889 12.707 137.983 12.707 138.639 13.3633C139.296 14.0196 139.296 15.1133 138.639 15.7696L112.389 42.042C112.061 42.3701 111.623 42.5233 111.186 42.5233Z" fill="#663366"/>
<path d="M137.436 24.0377C136.495 24.0377 135.729 23.2721 135.729 22.3314V16.2719H129.692C128.751 16.2719 127.985 15.5063 127.985 14.5657C127.985 13.625 128.751 12.8594 129.692 12.8594H137.457C138.398 12.8594 139.164 13.625 139.164 14.5657V22.3314C139.142 23.2721 138.376 24.0377 137.436 24.0377Z" fill="#663366"/>
<path d="M105.366 35.3928C104.929 35.3928 104.491 35.2178 104.163 34.8896C103.507 34.2334 103.507 33.1396 104.163 32.4833L119.979 16.6674L113.241 9.92975C112.585 9.27348 112.585 8.17971 113.241 7.52345C113.898 6.86718 114.991 6.86718 115.648 7.52345L123.588 15.4642C123.917 15.7924 124.092 16.2299 124.092 16.6674C124.092 17.1049 123.917 17.5643 123.588 17.8705L106.569 34.8896C106.241 35.2178 105.804 35.3928 105.366 35.3928Z" fill="#663366"/>
<path d="M114.444 18.1784C113.503 18.1784 112.737 17.4127 112.737 16.4721V8.70629C112.737 7.76564 113.503 7 114.444 7H122.209C123.15 7 123.916 7.76564 123.916 8.70629C123.916 9.64693 123.15 10.4126 122.209 10.4126H116.15V16.4721C116.15 17.4127 115.384 18.1784 114.444 18.1784Z" fill="#663366"/>
<path d="M118.032 48.6262C117.595 48.6262 117.157 48.4512 116.829 48.1231C116.173 47.4668 116.173 46.373 116.829 45.7168L134.133 28.4133C134.461 28.0852 134.876 27.9102 135.336 27.9102C135.795 27.9102 136.233 28.0852 136.539 28.4133L144.48 36.3541C145.136 37.0103 145.136 38.1041 144.48 38.7604C143.823 39.4166 142.73 39.4166 142.073 38.7604L135.336 32.0227L119.235 48.1231C118.907 48.4512 118.47 48.6262 118.032 48.6262Z" fill="#663366"/>
<path d="M143.298 39.2565H135.532C134.592 39.2565 133.826 38.4908 133.826 37.5502C133.826 36.6096 134.592 35.8439 135.532 35.8439H141.592V29.7844C141.592 28.8438 142.358 28.0781 143.298 28.0781C144.239 28.0781 145.005 28.8438 145.005 29.7844V37.5502C145.005 38.4908 144.239 39.2565 143.298 39.2565Z" fill="#663366"/>
</svg>
