<svg width="150" height="150" viewBox="0 0 150 150" fill="none" xmlns="http://www.w3.org/2000/svg">
<path d="M145 144.998H5V102.66L33.2258 88.5469V102.66L61.4516 88.5469V102.66L89.6774 88.5469V102.66H145V144.998Z" stroke="#663366" stroke-width="4.23387" stroke-miterlimit="10"/>
<path d="M140.484 102.66H123.549L126.371 49.0312H137.662L140.484 102.66Z" stroke="#663366" stroke-width="4.23387" stroke-miterlimit="10"/>
<path d="M115.081 102.66H98.1455L100.968 49.0312H112.258L115.081 102.66Z" stroke="#663366" stroke-width="4.23387" stroke-miterlimit="10"/>
<path d="M124.96 57.5H139.073" stroke="#663366" stroke-width="4.23387" stroke-miterlimit="10"/>
<path d="M99.5566 57.5H113.67" stroke="#663366" stroke-width="4.23387" stroke-miterlimit="10"/>
<path d="M133.71 119.598H102.661V145.001H133.71V119.598Z" stroke="#663366" stroke-width="4.23387" stroke-miterlimit="10"/>
<path d="M88.5488 119.598H71.6133V133.711H88.5488V119.598Z" stroke="#663366" stroke-width="4.23387" stroke-miterlimit="10"/>
<path d="M60.3222 119.598H43.3867V133.711H60.3222V119.598Z" stroke="#663366" stroke-width="4.23387" stroke-miterlimit="10"/>
<path d="M32.0966 119.598H15.1611V133.711H32.0966V119.598Z" stroke="#663366" stroke-width="4.23387" stroke-miterlimit="10"/>
<path d="M102.661 128.066H133.71" stroke="#663366" stroke-width="4.23387" stroke-miterlimit="10"/>
<path d="M102.661 136.531H133.71" stroke="#663366" stroke-width="4.23387" stroke-miterlimit="10"/>
<path d="M13.0988 49.4122L5 46.532C5 41.6998 5 41.6873 5 36.8551L13.0988 33.9749L16.0162 26.9317L12.326 19.1685C15.7427 15.7518 15.7518 15.7427 19.1685 12.326L26.9317 16.0162C29.743 14.8517 31.1633 14.2634 33.9749 13.0988L36.8551 5C41.6873 5 41.6998 5 46.532 5L49.4122 13.0988C52.2235 14.2634 53.6438 14.8517 56.4554 16.0162L64.2186 12.326C67.6353 15.7427 67.6443 15.7518 71.0611 19.1685L67.3708 26.9317C68.5354 29.743 69.1237 31.1633 70.2883 33.9749L78.3871 36.8551C78.3871 41.6873 78.3871 41.6998 78.3871 46.532L70.2883 49.4122C69.1237 52.2235 68.5354 53.6438 67.3708 56.4554L71.0611 64.2186C67.6443 67.6353 67.6353 67.6443 64.2186 71.0611L56.4554 67.3708C53.6441 68.5354 52.2237 69.1237 49.4122 70.2883L46.532 78.3871C41.6998 78.3871 41.6873 78.3871 36.8551 78.3871L33.9749 70.2883L26.9317 67.3708L19.1685 71.0611C15.7518 67.6443 15.7427 67.6353 12.326 64.2186L16.0162 56.4554L13.0988 49.4122Z" stroke="#663366" stroke-width="4.23387" stroke-miterlimit="10"/>
<path d="M54.3951 60.0412H28.9918C25.874 60.0412 23.3467 57.5139 23.3467 54.396V28.9928C23.3467 25.875 25.874 23.3477 28.9918 23.3477H54.3951C57.5129 23.3477 60.0402 25.875 60.0402 28.9928V54.396C60.0402 57.5139 57.5129 60.0412 54.3951 60.0412Z" stroke="#663366" stroke-width="4.23387" stroke-miterlimit="10"/>
<path d="M51.5723 30.9688V52.4204" stroke="#663366" stroke-width="4.23387" stroke-miterlimit="10"/>
<path d="M43.1048 52.4201V38.8717C43.1048 35.7539 40.5774 33.2266 37.4596 33.2266C34.3418 33.2266 31.8145 35.7539 31.8145 38.8717V52.4201" stroke="#663366" stroke-width="4.23387" stroke-miterlimit="10"/>
<path d="M31.8145 46.2109H43.1048" stroke="#663366" stroke-width="4.23387" stroke-miterlimit="10"/>
</svg>
