<svg width="150" height="150" viewBox="0 0 150 150" fill="none" xmlns="http://www.w3.org/2000/svg">
<path d="M41.0655 75.707H15.5547V79.0813H41.0655V75.707Z" fill="#663366"/>
<path d="M11.1208 83.5151C7.74662 83.5151 5 80.7685 5 77.3943C5 74.0201 7.74662 71.2734 11.1208 71.2734C14.4951 71.2734 17.2417 74.0184 17.2417 77.3943C17.2417 80.7702 14.4968 83.5151 11.1208 83.5151ZM11.1208 74.6477C9.60582 74.6477 8.37423 75.8793 8.37423 77.3943C8.37423 78.9093 9.60582 80.1409 11.1208 80.1409C12.6359 80.1409 13.8675 78.9093 13.8675 77.3943C13.8675 75.8793 12.6359 74.6477 11.1208 74.6477Z" fill="#663366"/>
<path d="M11.1208 83.5151C7.74662 83.5151 5 80.7685 5 77.3943C5 74.0201 7.74662 71.2734 11.1208 71.2734C14.4951 71.2734 17.2417 74.0184 17.2417 77.3943C17.2417 80.7702 14.4968 83.5151 11.1208 83.5151ZM11.1208 74.6477C9.60582 74.6477 8.37423 75.8793 8.37423 77.3943C8.37423 78.9093 9.60582 80.1409 11.1208 80.1409C12.6359 80.1409 13.8675 78.9093 13.8675 77.3943C13.8675 75.8793 12.6359 74.6477 11.1208 74.6477Z" fill="#663366"/>
<path d="M14.3552 51.3433C10.981 51.3433 8.23438 48.5983 8.23438 45.2224C8.23438 41.8465 10.9793 39.1016 14.3552 39.1016C17.7311 39.1016 20.4761 41.8482 20.4761 45.2224C20.4761 48.5966 17.7294 51.3433 14.3552 51.3433ZM14.3552 42.4758C12.8402 42.4758 11.6086 43.7074 11.6086 45.2224C11.6086 46.7374 12.8402 47.969 14.3552 47.969C15.8703 47.969 17.1018 46.7374 17.1018 45.2224C17.1018 43.7074 15.8703 42.4758 14.3552 42.4758Z" fill="#663366"/>
<path d="M41.064 59.1747H33.2173L26.8973 46.9094H18.7891V43.5352H28.9556L35.2755 55.8005H41.064V59.1747Z" fill="#663366"/>
<path d="M14.3552 51.3433C10.981 51.3433 8.23438 48.5983 8.23438 45.2224C8.23438 41.8465 10.9793 39.1016 14.3552 39.1016C17.7311 39.1016 20.4761 41.8482 20.4761 45.2224C20.4761 48.5966 17.7294 51.3433 14.3552 51.3433ZM14.3552 42.4758C12.8402 42.4758 11.6086 43.7074 11.6086 45.2224C11.6086 46.7374 12.8402 47.969 14.3552 47.969C15.8703 47.969 17.1018 46.7374 17.1018 45.2224C17.1018 43.7074 15.8703 42.4758 14.3552 42.4758Z" fill="#663366"/>
<path d="M14.3552 115.437C10.981 115.437 8.23438 112.69 8.23438 109.316C8.23438 105.942 10.9793 103.195 14.3552 103.195C17.7311 103.195 20.4761 105.942 20.4761 109.316C20.4761 112.69 17.7294 115.437 14.3552 115.437ZM14.3552 106.57C12.8402 106.57 11.6086 107.801 11.6086 109.316C11.6086 110.831 12.8402 112.063 14.3552 112.063C15.8703 112.063 17.1018 110.831 17.1018 109.316C17.1018 107.801 15.8703 106.57 14.3552 106.57Z" fill="#663366"/>
<path d="M28.9573 111.001H18.7891V107.627H26.8956L33.2156 95.3164H41.064V98.6906H35.2772L28.9573 111.001Z" fill="#663366"/>
<path d="M14.3552 115.437C10.981 115.437 8.23438 112.69 8.23438 109.316C8.23438 105.942 10.9793 103.195 14.3552 103.195C17.7311 103.195 20.4761 105.942 20.4761 109.316C20.4761 112.69 17.7294 115.437 14.3552 115.437ZM14.3552 106.57C12.8402 106.57 11.6086 107.801 11.6086 109.316C11.6086 110.831 12.8402 112.063 14.3552 112.063C15.8703 112.063 17.1018 110.831 17.1018 109.316C17.1018 107.801 15.8703 106.57 14.3552 106.57Z" fill="#663366"/>
<path d="M76.5305 16.5547H73.1562V42.0655H76.5305V16.5547Z" fill="#663366"/>
<path d="M74.8416 18.2417C71.4673 18.2417 68.7207 15.4951 68.7207 12.1208C68.7207 8.74662 71.4656 6 74.8416 6C78.2158 6 80.9624 8.74493 80.9624 12.1208C80.9624 15.4968 78.2158 18.2417 74.8416 18.2417ZM74.8416 9.37423C73.3265 9.37423 72.0949 10.6058 72.0949 12.1208C72.0949 13.6359 73.3265 14.8675 74.8416 14.8675C76.3566 14.8675 77.5882 13.6359 77.5882 12.1208C77.5882 10.6058 76.3566 9.37423 74.8416 9.37423Z" fill="#663366"/>
<path d="M74.8416 18.2417C71.4673 18.2417 68.7207 15.4951 68.7207 12.1208C68.7207 8.74662 71.4656 6 74.8416 6C78.2158 6 80.9624 8.74493 80.9624 12.1208C80.9624 15.4968 78.2158 18.2417 74.8416 18.2417ZM74.8416 9.37423C73.3265 9.37423 72.0949 10.6058 72.0949 12.1208C72.0949 13.6359 73.3265 14.8675 74.8416 14.8675C76.3566 14.8675 77.5882 13.6359 77.5882 12.1208C77.5882 10.6058 76.3566 9.37423 74.8416 9.37423Z" fill="#663366"/>
<path d="M107.011 21.48C103.637 21.48 100.891 18.735 100.891 15.3591C100.891 11.9832 103.637 9.23828 107.011 9.23828C110.386 9.23828 113.132 11.9849 113.132 15.3591C113.132 18.7334 110.386 21.48 107.011 21.48ZM107.011 12.6125C105.496 12.6125 104.265 13.8441 104.265 15.3591C104.265 16.8742 105.496 18.1057 107.011 18.1057C108.527 18.1057 109.758 16.8742 109.758 15.3591C109.758 13.8441 108.527 12.6125 107.011 12.6125Z" fill="#663366"/>
<path d="M96.4348 42.0679H93.0605V34.2212L105.326 27.9012V19.793H108.7V29.9595L96.4348 36.2794V42.0679Z" fill="#663366"/>
<path d="M107.011 21.48C103.637 21.48 100.891 18.735 100.891 15.3591C100.891 11.9832 103.637 9.23828 107.011 9.23828C110.386 9.23828 113.132 11.9849 113.132 15.3591C113.132 18.7334 110.386 21.48 107.011 21.48ZM107.011 12.6125C105.496 12.6125 104.265 13.8441 104.265 15.3591C104.265 16.8742 105.496 18.1057 107.011 18.1057C108.527 18.1057 109.758 16.8742 109.758 15.3591C109.758 13.8441 108.527 12.6125 107.011 12.6125Z" fill="#663366"/>
<path d="M42.9197 21.48C39.5454 21.48 36.7988 18.735 36.7988 15.3591C36.7988 11.9832 39.5438 9.23828 42.9197 9.23828C46.2956 9.23828 49.0405 11.9849 49.0405 15.3591C49.0405 18.7334 46.2939 21.48 42.9197 21.48ZM42.9197 12.6125C41.4046 12.6125 40.1731 13.8441 40.1731 15.3591C40.1731 16.8742 41.4046 18.1057 42.9197 18.1057C44.4347 18.1057 45.6663 16.8742 45.6663 15.3591C45.6663 13.8441 44.4347 12.6125 42.9197 12.6125Z" fill="#663366"/>
<path d="M56.9175 42.0679H53.5433V36.2811L41.2324 29.9612V19.793H44.6066V27.8995L56.9175 34.2195V42.0679Z" fill="#663366"/>
<path d="M42.9197 21.48C39.5454 21.48 36.7988 18.735 36.7988 15.3591C36.7988 11.9832 39.5438 9.23828 42.9197 9.23828C46.2956 9.23828 49.0405 11.9849 49.0405 15.3591C49.0405 18.7334 46.2939 21.48 42.9197 21.48ZM42.9197 12.6125C41.4046 12.6125 40.1731 13.8441 40.1731 15.3591C40.1731 16.8742 41.4046 18.1057 42.9197 18.1057C44.4347 18.1057 45.6663 16.8742 45.6663 15.3591C45.6663 13.8441 44.4347 12.6125 42.9197 12.6125Z" fill="#663366"/>
<path d="M134.446 75.707H108.936V79.0813H134.446V75.707Z" fill="#663366"/>
<path d="M138.879 83.5151C135.504 83.5151 132.758 80.7685 132.758 77.3943C132.758 74.0201 135.504 71.2734 138.879 71.2734C142.253 71.2734 145 74.0184 145 77.3943C145 80.7702 142.253 83.5151 138.879 83.5151ZM138.879 74.6477C137.364 74.6477 136.132 75.8793 136.132 77.3943C136.132 78.9093 137.364 80.1409 138.879 80.1409C140.394 80.1409 141.625 78.9093 141.625 77.3943C141.625 75.8793 140.394 74.6477 138.879 74.6477Z" fill="#663366"/>
<path d="M138.879 83.5151C135.504 83.5151 132.758 80.7685 132.758 77.3943C132.758 74.0201 135.504 71.2734 138.879 71.2734C142.253 71.2734 145 74.0184 145 77.3943C145 80.7702 142.253 83.5151 138.879 83.5151ZM138.879 74.6477C137.364 74.6477 136.132 75.8793 136.132 77.3943C136.132 78.9093 137.364 80.1409 138.879 80.1409C140.394 80.1409 141.625 78.9093 141.625 77.3943C141.625 75.8793 140.394 74.6477 138.879 74.6477Z" fill="#663366"/>
<path d="M135.361 51.3433C131.987 51.3433 129.24 48.5983 129.24 45.2224C129.24 41.8465 131.985 39.1016 135.361 39.1016C138.737 39.1016 141.482 41.8482 141.482 45.2224C141.482 48.5966 138.735 51.3433 135.361 51.3433ZM135.361 42.4758C133.846 42.4758 132.614 43.7074 132.614 45.2224C132.614 46.7374 133.846 47.969 135.361 47.969C136.876 47.969 138.108 46.7374 138.108 45.2224C138.108 43.7074 136.876 42.4758 135.361 42.4758Z" fill="#663366"/>
<path d="M116.782 59.1747H108.936V55.8005H114.724L121.044 43.5352H130.927V46.9094H123.102L116.782 59.1747Z" fill="#663366"/>
<path d="M135.361 51.3433C131.987 51.3433 129.24 48.5983 129.24 45.2224C129.24 41.8465 131.985 39.1016 135.361 39.1016C138.737 39.1016 141.482 41.8482 141.482 45.2224C141.482 48.5966 138.735 51.3433 135.361 51.3433ZM135.361 42.4758C133.846 42.4758 132.614 43.7074 132.614 45.2224C132.614 46.7374 133.846 47.969 135.361 47.969C136.876 47.969 138.108 46.7374 138.108 45.2224C138.108 43.7074 136.876 42.4758 135.361 42.4758Z" fill="#663366"/>
<path d="M135.361 115.437C131.987 115.437 129.24 112.69 129.24 109.316C129.24 105.942 131.985 103.195 135.361 103.195C138.737 103.195 141.482 105.942 141.482 109.316C141.482 112.69 138.735 115.437 135.361 115.437ZM135.361 106.57C133.846 106.57 132.614 107.801 132.614 109.316C132.614 110.831 133.846 112.063 135.361 112.063C136.876 112.063 138.108 110.831 138.108 109.316C138.108 107.801 136.876 106.57 135.361 106.57Z" fill="#663366"/>
<path d="M130.926 111.001H121.041L114.722 98.6906H111.209V95.3164H116.783L123.103 107.627H130.926V111.001Z" fill="#663366"/>
<path d="M135.361 115.437C131.987 115.437 129.24 112.69 129.24 109.316C129.24 105.942 131.985 103.195 135.361 103.195C138.737 103.195 141.482 105.942 141.482 109.316C141.482 112.69 138.735 115.437 135.361 115.437ZM135.361 106.57C133.846 106.57 132.614 107.801 132.614 109.316C132.614 110.831 133.846 112.063 135.361 112.063C136.876 112.063 138.108 110.831 138.108 109.316C138.108 107.801 136.876 106.57 135.361 106.57Z" fill="#663366"/>
<path d="M58.996 111.244H51.7499C50.1319 111.244 48.546 110.588 47.3988 109.443L41.337 103.379C40.1763 102.22 39.5352 100.675 39.5352 99.028V52.5936C39.5352 50.974 40.1914 49.3881 41.337 48.2425L47.3971 42.1807C48.5427 41.0352 50.1285 40.3789 51.7499 40.3789H98.1826C99.8258 40.3789 101.371 41.0183 102.534 42.1791L108.595 48.2425C109.741 49.3915 110.399 50.9774 110.399 52.5936V96.526L107.922 95.2152C107.426 94.952 106.863 94.8136 106.296 94.8136C104.374 94.8136 102.812 96.3759 102.812 98.2958H99.4378V94.9064C99.4378 93.5668 98.6533 92.3285 97.4403 91.7549C96.978 91.5356 96.4769 91.4242 95.9539 91.4242H95.8358C93.9142 91.4242 92.3519 92.9865 92.3519 94.9064H88.9777V92.5191C88.9777 90.5975 87.4154 89.0353 85.4955 89.0353H85.3774C83.4558 89.0353 81.8935 90.5975 81.8935 92.5191H78.5193V68.142C78.5193 66.2204 76.957 64.6582 75.0354 64.6582C73.1155 64.6582 71.5532 66.2204 71.5532 68.142V99.8935H68.179C68.179 99.5814 68.1469 99.2659 68.0828 98.9572C67.6458 96.8415 65.7546 95.3029 63.5866 95.3029C61.4187 95.3029 59.5274 96.8398 59.0905 98.9589C59.0281 99.2659 58.996 99.5814 58.996 99.8935V111.244ZM51.7499 43.7531C51.016 43.7531 50.2989 44.0501 49.7827 44.5663L43.7226 50.6281C43.2046 51.1444 42.9094 51.8614 42.9094 52.5936V99.028C42.9094 99.7721 43.1979 100.469 43.7209 100.992L49.7827 107.055C50.3006 107.573 51.0193 107.87 51.7499 107.87H55.6218V99.8935C55.6218 99.3536 55.6775 98.8104 55.7854 98.279C56.5446 94.5977 59.8244 91.9287 63.5866 91.9287C65.2754 91.9287 66.8681 92.4668 68.179 93.3931V68.142C68.179 64.3612 71.2546 61.2839 75.0354 61.2839C78.8162 61.2839 81.8935 64.3612 81.8935 68.142V86.6142C82.9159 86.0086 84.107 85.661 85.3774 85.661H85.4955C88.1864 85.661 90.5214 87.2216 91.6433 89.484C92.8041 88.5848 94.2584 88.05 95.8358 88.05H95.9539C96.9814 88.05 97.9666 88.271 98.8844 88.7046C100.561 89.4992 101.822 90.9383 102.422 92.6406C103.526 91.8831 104.86 91.4394 106.296 91.4394C106.541 91.4394 106.783 91.4529 107.025 91.4782V52.5936C107.025 51.8631 106.728 51.1478 106.208 50.6264L100.15 44.5663C99.6251 44.0416 98.9266 43.7531 98.1826 43.7531H51.7499Z" fill="#663366"/>
<path d="M84.3914 143.79C68.5309 143.79 55.6262 130.885 55.6262 115.024V100.022C55.6228 99.9786 55.6211 99.9347 55.6211 99.8908C55.6211 95.4993 59.1944 91.926 63.586 91.926C65.2933 91.926 66.8775 92.4659 68.1766 93.3853V68.1394C68.1766 64.3585 71.2539 61.2812 75.0347 61.2812C78.8155 61.2812 81.8928 64.3585 81.8928 68.1394V86.6116C82.9152 86.0059 84.1063 85.6584 85.3767 85.6584H85.4948C88.1874 85.6584 90.5224 87.2189 91.6443 89.483C92.8051 88.5855 94.2594 88.049 95.8368 88.049H95.9566C98.9445 88.049 101.49 89.9689 102.43 92.6379C103.532 91.8821 104.865 91.4401 106.299 91.4401C110.081 91.4401 113.157 94.5157 113.157 98.2965V115.024C113.157 130.885 100.252 143.79 84.3914 143.79ZM58.997 99.7778C58.9987 99.8149 59.0004 99.852 59.0004 99.8908V115.024C59.0004 129.026 70.3901 140.415 84.3914 140.415C98.3928 140.415 109.782 129.026 109.782 115.024V98.2965C109.782 96.3766 108.22 94.8143 106.299 94.8143C104.377 94.8143 102.815 96.3766 102.815 98.2965V101.755C102.815 102.686 102.059 103.442 101.128 103.442C100.196 103.442 99.4405 102.686 99.4405 101.755V94.9054C99.4405 92.9855 97.8782 91.4232 95.9566 91.4232H95.8368C93.9152 91.4232 92.3529 92.9855 92.3529 94.9054V98.1683C92.3529 99.0996 91.5971 99.8554 90.6658 99.8554C89.7345 99.8554 88.9787 99.0996 88.9787 98.1683V92.5165C88.9787 90.5948 87.4164 89.0326 85.4948 89.0326H85.3767C83.4551 89.0326 81.8928 90.5948 81.8928 92.5165V96.6769C81.8928 97.6082 81.137 98.364 80.2057 98.364C79.2744 98.364 78.5186 97.6082 78.5186 96.6769V68.1394C78.5186 66.2177 76.9563 64.6555 75.0347 64.6555C73.1131 64.6555 71.5508 66.2177 71.5508 68.1394V103.849C71.5508 104.78 70.795 105.536 69.8637 105.536C68.9324 105.536 68.1766 104.78 68.1766 103.849V99.8908C68.1766 97.3602 66.1166 95.3002 63.586 95.3002C61.0924 95.3002 59.0577 97.2977 58.997 99.7778Z" fill="#663366"/>
<path d="M71.5522 100.303H68.3602L68.0818 98.9567C67.6448 96.8377 65.7536 95.3007 63.584 95.3007C61.416 95.3007 59.5248 96.8377 59.0878 98.9567L58.8094 100.303H57.1544C53.3769 100.303 50.3047 97.2308 50.3047 93.4533V57.9278C50.3047 54.1504 53.3769 51.0781 57.1544 51.0781H92.9954C96.7728 51.0781 99.8451 54.1504 99.8451 57.9278V64.4671H96.4709V57.9278C96.4709 56.0112 94.912 54.4524 92.9954 54.4524H57.1577C55.2412 54.4524 53.6823 56.0112 53.6823 57.9278V93.4533C53.6823 95.0527 54.7688 96.4024 56.2416 96.8056C57.4648 93.9072 60.3464 91.9265 63.5856 91.9265C65.2744 91.9265 66.8671 92.4647 68.178 93.3909V68.1399C68.178 64.3591 71.2536 61.2818 75.0344 61.2818C78.8152 61.2818 81.8925 64.3591 81.8925 68.1399V86.6121C82.9149 86.0064 84.106 85.6589 85.3764 85.6589H85.4945C88.1854 85.6589 90.5204 87.2195 91.6423 89.4819C92.8031 88.5827 94.2574 88.0478 95.8348 88.0478H95.9529C96.1284 88.0478 96.3022 88.0546 96.4742 88.0664V81.0092H99.8485V92.8932L97.4393 91.7527C96.977 91.5334 96.4759 91.4221 95.9529 91.4221H95.8348C93.9132 91.4221 92.3509 92.9843 92.3509 94.9043H88.9767V92.517C88.9767 90.5954 87.4144 89.0331 85.4945 89.0331H85.3764C83.4548 89.0331 81.8925 90.5954 81.8925 92.517H78.5183V68.1399C78.5183 66.2183 76.956 64.656 75.0344 64.656C73.1145 64.656 71.5522 66.2183 71.5522 68.1399V100.303Z" fill="#663366"/>
<path d="M99.8488 69.4492H96.4746V75.5245H99.8488V69.4492Z" fill="#663366"/>
</svg>
