<svg width="150" height="150" viewBox="0 0 150 150" fill="none" xmlns="http://www.w3.org/2000/svg">
<path d="M144.67 57.6929C143.721 51.9222 140.822 47.3822 136.29 44.5707C133.457 42.8121 130.569 42.1557 127.881 42.6125C119.542 29.0117 106.529 19.2836 91.0575 15.1401C75.0473 10.8518 58.3259 13.0534 43.973 21.3375C34.1465 27.007 26.0757 35.2391 20.6359 45.1423C20.0534 46.2007 20.4417 47.5299 21.5002 48.1097C22.5586 48.6895 23.8877 48.3039 24.4675 47.2454C29.5244 38.0424 37.0236 30.3928 46.1583 25.1226C59.4992 17.4211 75.0418 15.3753 89.9253 19.3601C104.079 23.1507 116.016 31.9709 123.775 44.2972C119.744 47.0759 117.307 52.6961 117.663 58.5462C117.909 62.6513 119.446 66.5349 122.014 69.6035C120.395 76.7471 117.994 81.8888 114.499 85.7259C114.001 86.2728 113.815 87.0304 113.998 87.7442C114.181 88.4581 114.715 89.0324 115.415 89.2676C117.863 90.0935 120.253 90.5038 122.553 90.5038C127.06 90.5038 131.22 88.9285 134.781 85.8626C134.874 85.7942 134.959 85.7204 135.038 85.6411C135.946 84.8343 136.816 83.9372 137.639 82.9335C143.131 76.2822 146.021 65.8976 144.67 57.6929ZM119.941 85.9228C122.277 82.6053 124.109 78.5604 125.482 73.7004C127.87 76.8291 129.688 80.0646 130.916 83.3629C128.195 85.3457 124.58 86.6776 119.941 85.9228ZM134.319 80.1028C132.442 75.7406 129.658 71.5207 126.004 67.514C125.999 67.5058 125.991 67.5003 125.985 67.4948C125.98 67.4894 125.977 67.4839 125.972 67.4784C123.639 65.0334 122.238 61.7706 122.028 58.2891C121.776 54.1402 123.379 50.0925 125.98 48.1069C128.605 53.0626 130.487 58.3328 131.581 63.8054C131.789 64.8447 132.702 65.564 133.722 65.564C133.865 65.564 134.01 65.5503 134.155 65.5202C135.339 65.2823 136.107 64.1309 135.869 62.9467C134.753 57.3619 132.872 51.9714 130.271 46.8817C131.447 47.0157 132.686 47.4806 133.982 48.2847C137.461 50.4426 139.605 53.8476 140.355 58.4012C141.511 65.43 139.031 74.3376 134.319 80.1028ZM128.496 102.034C127.438 101.452 126.108 101.84 125.529 102.898C120.48 112.093 112.981 119.746 103.838 125.027C76.9508 140.545 42.6329 131.886 26.2234 105.844C30.2519 103.063 32.6887 97.445 32.3332 91.5978C32.0871 87.4954 30.55 83.609 27.9819 80.5322C29.5791 73.4843 32.0433 68.2004 35.4975 64.4071C35.9953 63.8601 36.1812 63.1025 35.998 62.386C35.812 61.6722 35.2787 61.0978 34.5786 60.8626C25.98 57.9664 18.0842 60.2145 12.3464 67.1967C6.86282 73.87 3.97748 84.2599 5.33127 92.4647C6.28302 98.2299 9.17931 102.764 13.7056 105.576C15.9592 106.974 18.2456 107.676 20.4417 107.676C21.0106 107.676 21.5713 107.624 22.1264 107.529C30.4625 121.129 43.4753 130.855 58.9413 135.001C64.2881 136.434 69.7142 137.142 75.1075 137.142C85.8557 137.142 96.4672 134.323 106.029 128.806C115.863 123.126 123.931 114.891 129.366 104.993C129.943 103.946 129.554 102.617 128.496 102.034ZM30.055 64.2266C27.7139 67.5495 25.8815 71.5945 24.5113 76.4463C22.1237 73.3175 20.3023 70.0848 19.077 66.781C21.2677 65.1838 24.0436 64.0133 27.4678 64.0133C28.291 64.0105 29.1552 64.0789 30.055 64.2266ZM9.64151 91.7618C8.4819 84.7331 10.9625 75.8145 15.672 70.0411C17.5509 74.4087 20.3351 78.6315 23.9917 82.6327L24.0081 82.6491C24.0135 82.6545 24.0163 82.66 24.0218 82.6655C26.3574 85.1187 27.7577 88.3842 27.9655 91.8658C28.2171 96.0119 26.6145 100.057 24.0163 102.045C21.3935 97.0922 19.5091 91.822 18.4179 86.344C18.1827 85.1597 17.0285 84.3912 15.8471 84.6264C14.6628 84.8616 13.8943 86.013 14.1295 87.1973C15.2454 92.7902 17.127 98.1835 19.7307 103.273C18.5519 103.142 17.3102 102.674 16.0084 101.867C12.5351 99.7123 10.3936 96.31 9.64151 91.7618ZM90.4449 40.75C90.0347 40.3398 89.4795 40.11 88.8997 40.11H61.0992C59.893 40.11 58.9139 41.0891 58.9139 42.2952L58.9085 56.0656H41.2381C40.6583 56.0656 40.1004 56.2953 39.6929 56.7056C39.2854 57.1158 39.0529 57.671 39.0529 58.2535L39.0748 97.2645C39.0748 98.4706 40.0539 99.4497 41.26 99.4497H61.0745H64.4768H69.4379H80.5308H84.5402H88.8751H108.761C109.341 99.4497 109.898 99.22 110.306 98.8098C110.713 98.3995 110.946 97.8443 110.946 97.2618L110.921 57.4303C110.921 56.4731 110.295 55.6253 109.379 55.3436L91.0794 49.6932L91.0822 42.3007C91.0849 41.7154 90.8552 41.1602 90.4449 40.75ZM43.4233 60.436H58.903L58.8893 95.0738H43.4452L43.4233 60.436ZM71.6259 95.0738V84.9191H78.3483V95.0738H71.6259ZM84.5429 95.0738H82.7215V82.7338C82.7215 81.525 81.7424 80.5486 80.5363 80.5486H69.4434C68.2346 80.5486 67.2582 81.5277 67.2582 82.7338V95.0766H64.4823H63.2652L63.2871 44.4832H86.7145L86.6926 95.0766H84.5429V95.0738ZM106.554 59.0412L106.576 95.0738H91.0657L91.0822 54.2633L106.554 59.0412ZM56.2994 90.151C56.2994 91.3598 55.3203 92.3362 54.1142 92.3362H48.2067C46.9979 92.3362 46.0215 91.3571 46.0215 90.151C46.0215 88.9449 47.0006 87.9658 48.2067 87.9658H54.1142C55.3203 87.9658 56.2994 88.9449 56.2994 90.151ZM56.2994 81.8888C56.2994 83.0976 55.3203 84.074 54.1142 84.074H48.2067C46.9979 84.074 46.0215 83.0949 46.0215 81.8888C46.0215 80.6827 47.0006 79.7036 48.2067 79.7036H54.1142C55.3203 79.7008 56.2994 80.6799 56.2994 81.8888ZM56.2994 73.6238C56.2994 74.8326 55.3203 75.809 54.1142 75.809H48.2067C46.9979 75.809 46.0215 74.8299 46.0215 73.6238C46.0215 72.4177 47.0006 71.4386 48.2067 71.4386H54.1142C55.3203 71.4359 56.2994 72.415 56.2994 73.6238ZM46.0188 65.3589C46.0188 64.15 46.9979 63.1737 48.204 63.1737H54.1114C55.3203 63.1737 56.2966 64.1528 56.2966 65.3589C56.2966 66.565 55.3175 67.5441 54.1114 67.5441H48.204C46.9979 67.5468 46.0188 66.5677 46.0188 65.3589ZM103.964 90.151C103.964 91.3598 102.985 92.3362 101.778 92.3362H95.871C94.6622 92.3362 93.6858 91.3571 93.6858 90.151C93.6858 88.9449 94.6649 87.9658 95.871 87.9658H101.778C102.985 87.9658 103.964 88.9449 103.964 90.151ZM93.6831 81.8888C93.6831 80.6799 94.6622 79.7036 95.8683 79.7036H101.776C102.985 79.7036 103.961 80.6827 103.961 81.8888C103.961 83.0949 102.982 84.074 101.776 84.074H95.8683C94.6622 84.074 93.6831 83.0949 93.6831 81.8888ZM93.6831 73.6238C93.6831 72.415 94.6622 71.4386 95.8683 71.4386H101.776C102.985 71.4386 103.961 72.4177 103.961 73.6238C103.961 74.8299 102.982 75.809 101.776 75.809H95.8683C94.6622 75.809 93.6831 74.8299 93.6831 73.6238ZM93.6831 65.3589C93.6831 64.15 94.6622 63.1737 95.8683 63.1737H101.776C102.985 63.1737 103.961 64.1528 103.961 65.3589C103.961 66.565 102.982 67.5441 101.776 67.5441H95.8683C94.6622 67.5468 93.6831 66.5677 93.6831 65.3589ZM74.1612 74.9092C74.1612 76.1181 73.1821 77.0944 71.976 77.0944H68.2483C67.0394 77.0944 66.063 76.1153 66.063 74.9092C66.063 73.7004 67.0422 72.724 68.2483 72.724H71.976C73.1821 72.724 74.1612 73.7031 74.1612 74.9092ZM74.1612 66.647C74.1612 67.8558 73.1821 68.8322 71.976 68.8322H68.2483C67.0394 68.8322 66.063 67.8531 66.063 66.647C66.063 65.4409 67.0422 64.4618 68.2483 64.4618H71.976C73.1821 64.4591 74.1612 65.4382 74.1612 66.647ZM74.1612 58.3821C74.1612 59.5909 73.1821 60.5673 71.976 60.5673H68.2483C67.0394 60.5673 66.063 59.5882 66.063 58.3821C66.063 57.176 67.0422 56.1969 68.2483 56.1969H71.976C73.1821 56.1969 74.1612 57.1732 74.1612 58.3821ZM74.1612 50.1171C74.1612 51.326 73.1821 52.3023 71.976 52.3023H68.2483C67.0394 52.3023 66.063 51.3232 66.063 50.1171C66.063 48.911 67.0422 47.9319 68.2483 47.9319H71.976C73.1821 47.9319 74.1612 48.911 74.1612 50.1171ZM83.9139 74.9092C83.9139 76.1181 82.9348 77.0944 81.7287 77.0944H78.001C76.7922 77.0944 75.8158 76.1153 75.8158 74.9092C75.8158 73.7004 76.7949 72.724 78.001 72.724H81.7287C82.9348 72.724 83.9139 73.7031 83.9139 74.9092ZM83.9139 66.647C83.9139 67.8558 82.9348 68.8322 81.7287 68.8322H78.001C76.7922 68.8322 75.8158 67.8531 75.8158 66.647C75.8158 65.4409 76.7949 64.4618 78.001 64.4618H81.7287C82.9348 64.4591 83.9139 65.4382 83.9139 66.647ZM83.9139 58.3821C83.9139 59.5909 82.9348 60.5673 81.7287 60.5673H78.001C76.7922 60.5673 75.8158 59.5882 75.8158 58.3821C75.8158 57.176 76.7949 56.1969 78.001 56.1969H81.7287C82.9348 56.1969 83.9139 57.1732 83.9139 58.3821ZM83.9139 50.1171C83.9139 51.326 82.9348 52.3023 81.7287 52.3023H78.001C76.7922 52.3023 75.8158 51.3232 75.8158 50.1171C75.8158 48.911 76.7949 47.9319 78.001 47.9319H81.7287C82.9348 47.9319 83.9139 48.911 83.9139 50.1171Z" fill="#663366"/>
</svg>
