<svg width="150" height="150" viewBox="0 0 150 150" fill="none" xmlns="http://www.w3.org/2000/svg">
<path d="M62.2683 91.9611V89.8496C62.2683 88.9429 62.8349 88.1436 63.6819 87.8633C65.4177 87.2847 67.1236 86.5808 68.752 85.7577C69.5513 85.358 70.5236 85.5191 71.1618 86.1573L72.6589 87.6545C75.1403 90.1359 79.1725 90.1359 81.6598 87.6545L87.6604 81.6539C88.8594 80.4549 89.5215 78.8564 89.5215 77.1564C89.5215 75.4564 88.8594 73.8578 87.6604 72.659L86.1633 71.1618C85.525 70.5236 85.364 69.5572 85.7636 68.752C86.5868 67.1177 87.2906 65.4117 87.8632 63.682C88.1436 62.835 88.9429 62.2683 89.8495 62.2683H91.9611C95.4684 62.2683 98.3256 59.4171 98.3256 55.9038V47.4218C98.3256 43.9145 95.4744 41.0573 91.9611 41.0573H89.8495C88.9429 41.0573 88.1495 40.4906 87.8692 39.6436C87.2966 37.9079 86.5868 36.2019 85.7636 34.5676C85.364 33.7683 85.525 32.8021 86.1633 32.1638L87.6604 30.6666C88.8594 29.4677 89.5215 27.8692 89.5215 26.1692C89.5215 24.4692 88.8594 22.8706 87.6604 21.6717L81.6598 15.6711C79.1784 13.1897 75.1403 13.1897 72.6589 15.6711L71.1677 17.1683C70.5295 17.8065 69.5572 17.9676 68.758 17.5679C67.1237 16.7448 65.4177 16.0409 63.682 15.4623C62.835 15.182 62.2683 14.3827 62.2683 13.476V11.3645C62.2683 7.85716 59.4171 5 55.9038 5H47.4218C43.9145 5 41.0573 7.8512 41.0573 11.3645V13.476C41.0573 14.3827 40.4906 15.182 39.6436 15.4623C37.9079 16.0409 36.2019 16.7448 34.5736 17.5679C33.7743 17.9676 32.8081 17.8125 32.1638 17.1683L30.6666 15.6711C28.1853 13.1897 24.1471 13.1897 21.6658 15.6711L15.6651 21.6717C14.4662 22.8707 13.804 24.4692 13.804 26.1692C13.804 27.8692 14.4661 29.4678 15.6651 30.6666L17.1623 32.1638C17.8006 32.802 17.9616 33.7684 17.562 34.5736C16.7388 36.2079 16.035 37.9139 15.4623 39.6436C15.182 40.4906 14.3827 41.0573 13.476 41.0573H11.3645C7.85716 41.0573 5 43.9085 5 47.4218V55.9038C5 59.4112 7.8512 62.2683 11.3645 62.2683H13.476C14.3827 62.2683 15.176 62.835 15.4564 63.682C16.029 65.4177 16.7388 67.1237 17.562 68.758C17.9616 69.5573 17.8006 70.5235 17.1623 71.1618L15.6651 72.659C14.4662 73.8579 13.804 75.4564 13.804 77.1564C13.804 78.8564 14.4661 80.455 15.6651 81.6539L21.6658 87.6545C24.1471 90.1359 28.1853 90.1359 30.6666 87.6545L32.1578 86.1573C32.7961 85.5191 33.7684 85.358 34.5676 85.7577C36.2019 86.5808 37.9079 87.2847 39.6436 87.8633C40.4906 88.1436 41.0573 88.9429 41.0573 89.8496V91.9611C41.0573 95.4685 43.9085 98.3256 47.4218 98.3256H55.9038C59.4111 98.3256 62.2683 95.4744 62.2683 91.9611ZM45.2988 91.9611V89.8496C45.2988 87.1117 43.5631 84.696 40.9803 83.837C39.4414 83.3241 37.9263 82.6978 36.4769 81.97C35.5762 81.5166 34.6099 81.296 33.6495 81.296C32.0092 81.296 30.3868 81.9342 29.164 83.1571L27.6728 84.6542C26.8437 85.4833 25.5016 85.4833 24.6725 84.6542L18.6719 78.6536C18.2723 78.254 18.0516 77.7231 18.0516 77.1564C18.0516 76.5898 18.2723 76.0589 18.6719 75.6593L20.1691 74.1621C22.1076 72.2236 22.5848 69.2888 21.3561 66.8551C20.6284 65.3997 19.9961 63.8846 19.489 62.3457C18.6301 59.763 16.2144 58.0273 13.4824 58.0273H11.3709C10.2018 58.0273 9.24749 57.0789 9.24749 55.9038V47.4218C9.24749 46.2527 10.2019 45.2984 11.3709 45.2984H13.4824C16.2203 45.2984 18.6361 43.5626 19.489 40.9799C19.996 39.441 20.6283 37.9259 21.3561 36.4765C22.5848 34.0368 22.1077 31.1022 20.1691 29.1636L18.6719 27.6664C18.2723 27.2667 18.0516 26.7299 18.0516 26.1692C18.0516 25.6026 18.2723 25.0717 18.6719 24.672L24.6725 18.6714C25.5017 17.8423 26.8438 17.8423 27.6728 18.6714L29.17 20.1686C31.1085 22.1071 34.0432 22.5843 36.4829 21.3616C37.9323 20.6338 39.4474 20.0075 40.9863 19.4945C43.569 18.6356 45.3048 16.2199 45.3048 13.482V11.3704C45.3048 10.2013 46.2592 9.247 47.4282 9.247H55.9102C57.0793 9.247 58.0336 10.1954 58.0336 11.3704V13.482C58.0336 16.2199 59.7694 18.6356 62.3521 19.4945C63.891 20.0075 65.4061 20.6338 66.8555 21.3616C69.2952 22.5843 72.2298 22.1072 74.1685 20.1686L75.6597 18.6714C76.4888 17.8423 77.8309 17.8423 78.6599 18.6714L84.6605 24.672C85.0602 25.0717 85.2809 25.6026 85.2809 26.1692C85.2809 26.7359 85.0602 27.2667 84.6605 27.6664L83.1634 29.1636C81.2248 31.1021 80.7477 34.0368 81.9764 36.4705C82.7041 37.9259 83.3363 39.441 83.8434 40.9799C84.7024 43.5626 87.1181 45.2984 89.85 45.2984H91.9615C93.1306 45.2984 94.085 46.2468 94.085 47.4218V55.9038C94.085 57.0729 93.1306 58.0273 91.9615 58.0273H89.85C87.1121 58.0273 84.6964 59.763 83.8434 62.3457C83.3364 63.8846 82.7041 65.3997 81.9764 66.8492C80.7476 69.2888 81.2248 72.2234 83.1634 74.1621L84.6605 75.6593C85.0602 76.0589 85.2809 76.5957 85.2809 77.1564C85.2809 77.7231 85.0602 78.254 84.6605 78.6536L78.6599 84.6542C77.8308 85.4833 76.4887 85.4833 75.6597 84.6542L74.1625 83.1571C72.224 81.2185 69.2833 80.7413 66.8496 81.9641C65.4001 82.6918 63.8851 83.3181 62.3462 83.8311C59.7634 84.6901 58.0277 87.1058 58.0277 89.8437V91.9552C58.0277 93.1243 57.0733 94.0786 55.9042 94.0786H47.4222C46.2532 94.0786 45.2988 93.1302 45.2988 91.9552V91.9611Z" fill="#663366"/>
<path d="M138.618 87.7213H136.494C135.593 87.7213 134.8 87.1547 134.52 86.3077C133.911 84.4824 133.196 82.7705 132.408 81.2376C132.015 80.4443 132.176 79.46 132.826 78.8159L134.299 77.3247C136.768 74.8553 136.774 70.8231 134.299 68.3239L128.31 62.3351C125.817 59.8716 121.785 59.8776 119.327 62.3351L117.8 63.8442C117.18 64.4705 116.19 64.6316 115.426 64.2499C113.87 63.4506 112.158 62.7408 110.332 62.1264C109.485 61.8461 108.919 61.0528 108.919 60.152V58.0286C108.919 54.5212 106.068 51.6641 102.554 51.6641C101.385 51.6641 100.431 52.6125 100.431 53.7875C100.431 54.9625 101.379 55.9109 102.554 55.9109C103.723 55.9109 104.678 56.8593 104.678 58.0344V60.1578C104.678 62.8898 106.413 65.2995 108.99 66.1584C110.613 66.6953 112.122 67.3275 113.506 68.0374C115.957 69.2602 118.898 68.777 120.8 66.8444L122.316 65.3473C123.151 64.5122 124.475 64.5122 125.316 65.3473L131.287 71.3181C132.116 72.1592 132.122 73.5072 131.287 74.3423L129.825 75.8276C127.869 77.7542 127.386 80.6949 128.62 83.1643C129.318 84.5303 129.95 86.0393 130.487 87.6618C131.346 90.2386 133.756 91.9743 136.488 91.9743H138.611C139.781 91.9743 140.735 92.9227 140.735 94.0977V102.58C140.735 103.749 139.781 104.703 138.611 104.703H136.488C133.762 104.703 131.352 106.439 130.487 109.016C129.945 110.638 129.318 112.147 128.608 113.531C127.38 115.983 127.869 118.923 129.801 120.826L131.299 122.347C132.122 123.17 132.116 124.518 131.299 125.347L125.328 131.318C124.475 132.159 123.151 132.165 122.304 131.318L120.818 129.857C118.898 127.906 115.957 127.417 113.482 128.652C112.122 129.35 110.606 129.982 108.99 130.519C106.407 131.378 104.677 133.788 104.677 136.519V138.643C104.677 139.812 103.723 140.766 102.554 140.766H94.072C92.9029 140.766 91.9486 139.818 91.9486 138.643V136.519C91.9486 133.788 90.2129 131.378 87.6361 130.519C86.0136 129.982 84.5045 129.35 83.1208 128.64C80.6692 127.411 77.7286 127.9 75.8258 129.833L74.3108 131.33C73.4757 132.165 72.1515 132.165 71.3105 131.33L65.3397 125.359C64.5106 124.518 64.5046 123.17 65.3397 122.335L66.8011 120.85C68.7575 118.923 69.2407 115.982 68.006 113.513C67.3081 112.147 66.6758 110.638 66.1389 109.015C65.28 106.439 62.8702 104.703 60.1383 104.703H58.0148C56.8457 104.703 55.8914 103.755 55.8914 102.58C55.8914 101.404 54.943 100.456 53.768 100.456C52.5989 100.456 51.6445 101.404 51.6445 102.58C51.6445 106.087 54.4957 108.944 58.009 108.944H60.1325C61.0332 108.944 61.8265 109.511 62.1069 110.358C62.7153 112.183 63.4311 113.895 64.2184 115.428C64.6121 116.221 64.451 117.205 63.8009 117.849L62.3276 119.341C59.8581 121.81 59.8522 125.842 62.3276 128.341L68.3163 134.33C70.8095 136.794 74.8417 136.782 77.2993 134.33L78.8263 132.821C79.4466 132.189 80.4368 132.034 81.2003 132.416C82.7571 133.215 84.469 133.925 86.2942 134.539C87.1412 134.819 87.7078 135.613 87.7078 136.513V138.637C87.7078 142.144 90.559 145.001 94.0723 145.001H102.554C106.062 145.001 108.919 142.15 108.919 138.637V136.513C108.919 135.613 109.485 134.819 110.333 134.539C112.158 133.931 113.87 133.215 115.403 132.427C116.196 132.034 117.18 132.195 117.824 132.845L119.321 134.318C121.785 136.788 125.823 136.788 128.322 134.318L134.311 128.33C136.774 125.836 136.769 121.804 134.311 119.347L132.802 117.82C132.17 117.199 132.009 116.215 132.396 115.44C133.196 113.889 133.905 112.171 134.514 110.352C134.794 109.505 135.587 108.938 136.488 108.938H138.612C142.119 108.938 144.976 106.087 144.976 102.573V94.0915C144.976 90.5841 142.125 87.727 138.612 87.727L138.618 87.7213Z" fill="#663366"/>
<path d="M79.256 93.7727C79.256 92.5977 78.2837 91.6493 77.1147 91.6493C75.9456 91.6493 74.9912 92.5977 74.9912 93.7727V108.935C74.9912 112.443 77.8424 115.3 81.3557 115.3H94.0786C94.6453 115.3 95.1642 115.515 95.5877 115.95C95.9814 116.332 96.1961 116.857 96.1961 117.423C96.1961 118.598 97.1445 119.547 98.3196 119.547C99.4887 119.547 100.443 118.598 100.443 117.423C100.443 116.254 101.397 115.3 102.566 115.3H115.289C118.797 115.3 121.654 112.449 121.654 108.935V87.7239C121.654 84.2165 118.803 81.3594 115.289 81.3594H102.566C100.932 81.3594 99.4528 81.9976 98.3255 83.0116C97.1982 81.9916 95.719 81.3594 94.0846 81.3594H91.6689C90.4998 81.3594 89.5455 82.3078 89.5455 83.4828C89.5455 84.6579 90.4939 85.6062 91.6689 85.6062H94.0846C95.2537 85.6062 96.2081 86.5547 96.2081 87.7297V111.423C95.54 111.184 94.8242 111.065 94.0846 111.065H81.3617C80.1926 111.065 79.2383 110.116 79.2383 108.941V94.0828C79.2502 93.9814 79.2621 93.88 79.2621 93.7786L79.256 93.7727ZM102.561 85.6068H115.284C116.453 85.6068 117.407 86.5552 117.407 87.7303V108.942C117.407 110.111 116.453 111.065 115.284 111.065H102.561C101.815 111.065 101.106 111.196 100.437 111.429V87.7362C100.437 86.5671 101.392 85.6128 102.561 85.6128V85.6068Z" fill="#663366"/>
<path d="M58.027 43.1875H45.3041C44.135 43.1875 43.1807 44.1359 43.1807 45.3109V58.0338C43.1807 59.2089 44.1291 60.1573 45.3041 60.1573H58.027C59.1961 60.1573 60.1505 59.2089 60.1505 58.0338V45.3109C60.1505 44.1359 59.202 43.1875 58.027 43.1875ZM55.9036 55.9104H47.4216V47.4284H55.9036V55.9104Z" fill="#663366"/>
<path d="M58.0284 70.7593C58.0284 71.9344 58.9768 72.8827 60.1518 72.8827C61.3209 72.8827 62.2752 71.9343 62.2752 70.7593V68.6359C65.7826 68.6359 68.6398 65.7846 68.6398 62.2713H70.7632C71.9323 62.2713 72.8866 61.3229 72.8866 60.1479C72.8866 58.9728 71.9382 58.0245 70.7632 58.0245H68.6398V53.7836H70.7632C71.9323 53.7836 72.8866 52.8352 72.8866 51.6601C72.8866 50.485 71.9382 49.5367 70.7632 49.5367H68.6398V45.2958H70.7632C71.9323 45.2958 72.8866 44.3474 72.8866 43.1723C72.8866 41.9973 71.9382 41.0489 70.7632 41.0489H68.6398C68.6398 37.5415 65.7886 34.6844 62.2752 34.6844V32.5609C62.2752 31.3859 61.3269 30.4375 60.1518 30.4375C58.9827 30.4375 58.0284 31.3859 58.0284 32.5609V34.6844H53.7875V32.5609C53.7875 31.3859 52.8391 30.4375 51.664 30.4375C50.4949 30.4375 49.5406 31.3859 49.5406 32.5609V34.6844H45.2997V32.5609C45.2997 31.3859 44.3513 30.4375 43.1762 30.4375C42.0071 30.4375 41.0528 31.3859 41.0528 32.5609V34.6844C37.5454 34.6844 34.6883 37.5356 34.6883 41.0489H32.5648C31.3957 41.0489 30.4414 41.9973 30.4414 43.1723C30.4414 44.3474 31.3898 45.2958 32.5648 45.2958H34.6883V49.5367H32.5648C31.3957 49.5367 30.4414 50.4851 30.4414 51.6601C30.4414 52.8352 31.3898 53.7836 32.5648 53.7836H34.6883V58.0245H32.5648C31.3957 58.0245 30.4414 58.9729 30.4414 60.1479C30.4414 61.323 31.3898 62.2713 32.5648 62.2713H34.6883C34.6883 65.7787 37.5395 68.6359 41.0528 68.6359V70.7593C41.0528 71.9344 42.0012 72.8827 43.1762 72.8827C44.3453 72.8827 45.2997 71.9343 45.2997 70.7593V68.6359H49.5406V70.7593C49.5406 71.9344 50.489 72.8827 51.664 72.8827C52.8331 72.8827 53.7875 71.9343 53.7875 70.7593V68.6359H58.0284V70.7593ZM41.0589 64.3948C39.8898 64.3948 38.9355 63.4464 38.9355 62.2713V41.0599C38.9355 39.8908 39.8898 38.9364 41.0589 38.9364H62.2704C63.4395 38.9364 64.3938 39.8848 64.3938 41.0599V62.2713C64.3938 63.4405 63.4394 64.3948 62.2704 64.3948H41.0589Z" fill="#663366"/>
</svg>
