<svg width="150" height="150" viewBox="0 0 150 150" fill="none" xmlns="http://www.w3.org/2000/svg">
<mask id="mask0_750_863" style="mask-type:luminance" maskUnits="userSpaceOnUse" x="5" y="5" width="140" height="140">
<path d="M5 5H145V145H5V5Z" fill="white"/>
</mask>
<g mask="url(#mask0_750_863)">
<path d="M17.8994 36.2567H9.6807C8.23422 36.2567 7.05078 37.4401 7.05078 38.8866V54.8857C7.05078 56.3319 8.23422 57.5156 9.6807 57.5156H17.8994C19.3459 57.5156 20.5293 56.3319 20.5293 54.8857V38.8866C20.5293 37.4401 19.3459 36.2567 17.8994 36.2567Z" stroke="#663366" stroke-width="3.5" stroke-miterlimit="10" stroke-linecap="round" stroke-linejoin="round"/>
<path d="M32.3261 37.5721H50.6519C53.5954 37.5721 56.5179 38.0714 59.2944 39.0489L60.8642 39.6016L57.8717 31.5305C56.9956 29.1683 54.7422 27.6001 52.2225 27.6001H33.13C31.6168 27.6001 30.3904 28.8268 30.3904 30.34C30.3904 32.1769 29.7246 33.9515 28.5163 35.3348L25.8418 38.3979C27.9585 37.8532 30.1364 37.5721 32.3261 37.5721Z" stroke="#663366" stroke-width="3.5" stroke-miterlimit="10" stroke-linecap="round" stroke-linejoin="round"/>
<path d="M102.878 42.392H76.6843C71.465 42.392 66.2833 41.5066 61.3598 39.7736L59.2959 39.0473C56.5191 38.0695 53.5969 37.5702 50.6531 37.5702H32.3273C29.5929 37.5702 26.8755 38.0011 24.2751 38.8471L20.5293 40.0656V53.7038L24.2751 54.9225C26.8755 55.7683 29.5929 56.1992 32.3273 56.1992H50.6531C53.5969 56.1992 56.5191 55.6999 59.2959 54.7227L61.3598 53.9961C66.2833 52.2631 71.465 51.3777 76.6843 51.3777H102.878C105.36 51.3777 107.371 49.3663 107.371 46.8848C107.371 44.4034 105.36 42.392 102.878 42.392Z" stroke="#663366" stroke-width="3.5" stroke-miterlimit="10" stroke-linecap="round" stroke-linejoin="round"/>
<path d="M33.1813 46.8857C33.1813 42.4822 36.3282 38.6806 40.6669 37.9273C41.9714 37.7009 43.3668 37.5702 44.9793 37.5702H32.3276C29.5929 37.5702 26.8755 38.0011 24.2754 38.8471L20.5293 40.0656V53.7038L24.2754 54.9225C26.8755 55.768 29.5929 56.1992 32.3276 56.1992H44.9793C43.3624 56.1992 41.9657 56.0685 40.6633 55.8429C36.3258 55.0915 33.1813 51.2877 33.1813 46.8857Z" stroke="#663366" stroke-width="3.5" stroke-miterlimit="10" stroke-linecap="round" stroke-linejoin="round"/>
<path d="M102.878 42.3932H92.9414C95.4226 42.3932 97.4343 44.4046 97.4343 46.8861C97.4343 49.3675 95.4226 51.3789 92.9414 51.3789H102.878C105.36 51.3789 107.371 49.3675 107.371 46.8861C107.371 44.4046 105.36 42.3932 102.878 42.3932Z" stroke="#663366" stroke-width="3.5" stroke-miterlimit="10" stroke-linecap="round" stroke-linejoin="round"/>
<path d="M32.3261 56.1999H50.6519C53.5954 56.1999 56.5179 55.7006 59.2944 54.7233L60.8642 54.1707L57.8717 62.2415C56.9956 64.6037 54.7422 66.1719 52.2225 66.1719H33.13C31.6168 66.1719 30.3904 64.9452 30.3904 63.4323C30.3904 61.5954 29.7246 59.8207 28.5163 58.4371L25.8418 55.3741C27.9585 55.9188 30.1364 56.1999 32.3261 56.1999Z" stroke="#663366" stroke-width="3.5" stroke-miterlimit="10" stroke-linecap="round" stroke-linejoin="round"/>
<path d="M57.8719 31.5305C56.9958 29.168 54.7424 27.6001 52.2227 27.6001H44.6211C47.1408 27.6001 49.3945 29.168 50.2703 31.5305L52.5377 37.6451C54.8397 37.8127 57.1125 38.2809 59.2948 39.0489L60.8644 39.6016L57.8719 31.5305Z" stroke="#663366" stroke-width="3.5" stroke-miterlimit="10" stroke-linecap="round" stroke-linejoin="round"/>
<path d="M59.2948 54.7233C57.1125 55.4917 54.8397 55.9595 52.5379 56.1269L50.2706 62.2415C49.3945 64.604 47.1408 66.1719 44.6211 66.1719H52.2227C54.7424 66.1719 56.9961 64.604 57.8719 62.2415L60.8644 54.1707L59.2948 54.7233Z" stroke="#663366" stroke-width="3.5" stroke-miterlimit="10" stroke-linecap="round" stroke-linejoin="round"/>
<path d="M58.2345 43.048H47.2513C45.8048 43.048 44.6211 44.2314 44.6211 45.6779V48.0888C44.6211 49.5353 45.8048 50.7188 47.2513 50.7188H58.2345C59.6812 50.7188 60.8644 49.5353 60.8644 48.0888V45.6779C60.8644 44.2314 59.6812 43.048 58.2345 43.048Z" stroke="#663366" stroke-width="3.5" stroke-miterlimit="10" stroke-linecap="round" stroke-linejoin="round"/>
<path d="M81.0703 31.761V42.3906" stroke="#663366" stroke-width="3.5" stroke-miterlimit="10" stroke-linecap="round" stroke-linejoin="round"/>
<path d="M78.515 31.7616L74.0547 42.1719" stroke="#663366" stroke-width="3.5" stroke-miterlimit="10" stroke-linecap="round" stroke-linejoin="round"/>
<path d="M85.3993 22.3377H74.8025C73.5769 22.3377 72.5742 23.3404 72.5742 24.5659V29.5335C72.5742 30.7593 73.5769 31.7617 74.8025 31.7617H85.3993C86.6248 31.7617 87.6275 30.7593 87.6275 29.5335V24.5659C87.6275 23.3404 86.6248 22.3377 85.3993 22.3377Z" stroke="#663366" stroke-width="3.5" stroke-miterlimit="10" stroke-linecap="round" stroke-linejoin="round"/>
<path d="M23.6141 22.3377H13.0173C11.7918 22.3377 10.7891 23.3404 10.7891 24.5659V29.5335C10.7891 30.7593 11.7918 31.7617 13.0173 31.7617H23.6141C24.8396 31.7617 25.8423 30.7593 25.8423 29.5335V24.5659C25.8423 23.3404 24.8396 22.3377 23.6141 22.3377Z" stroke="#663366" stroke-width="3.5" stroke-miterlimit="10" stroke-linecap="round" stroke-linejoin="round"/>
<path d="M18.3164 31.7623V36.2891" stroke="#663366" stroke-width="3.5" stroke-miterlimit="10" stroke-linecap="round" stroke-linejoin="round"/>
<path d="M19.6875 31.7648L25.8415 38.3984" stroke="#663366" stroke-width="3.5" stroke-miterlimit="10" stroke-linecap="round" stroke-linejoin="round"/>
<path d="M81.0703 62.0078V51.3785" stroke="#663366" stroke-width="3.5" stroke-miterlimit="10" stroke-linecap="round" stroke-linejoin="round"/>
<path d="M78.515 62.0078L74.0547 51.5975" stroke="#663366" stroke-width="3.5" stroke-miterlimit="10" stroke-linecap="round" stroke-linejoin="round"/>
<path d="M85.3993 71.4336H74.8025C73.5769 71.4336 72.5742 70.4309 72.5742 69.2056V64.2378C72.5742 63.0123 73.5769 62.0096 74.8025 62.0096H85.3993C86.6248 62.0096 87.6275 63.0123 87.6275 64.2378V69.2056C87.6275 70.4309 86.6248 71.4336 85.3993 71.4336Z" stroke="#663366" stroke-width="3.5" stroke-miterlimit="10" stroke-linecap="round" stroke-linejoin="round"/>
<path d="M23.6141 71.4336H13.0173C11.7918 71.4336 10.7891 70.4309 10.7891 69.2056V64.2378C10.7891 63.0123 11.7918 62.0096 13.0173 62.0096H23.6141C24.8396 62.0096 25.8423 63.0123 25.8423 64.2378V69.2056C25.8423 70.4309 24.8396 71.4336 23.6141 71.4336Z" stroke="#663366" stroke-width="3.5" stroke-miterlimit="10" stroke-linecap="round" stroke-linejoin="round"/>
<path d="M18.3164 62.0078V57.4811" stroke="#663366" stroke-width="3.5" stroke-miterlimit="10" stroke-linecap="round" stroke-linejoin="round"/>
<path d="M19.6875 62.0078L25.8415 55.3742" stroke="#663366" stroke-width="3.5" stroke-miterlimit="10" stroke-linecap="round" stroke-linejoin="round"/>
<path d="M101.07 71.4336H94.7505C93.7513 71.4336 92.9414 70.6237 92.9414 69.6248V62.6079C92.9414 61.8633 93.3341 61.1742 93.9747 60.7952L93.992 60.7851C94.6323 60.4056 95.0253 59.7165 95.0253 58.9722C95.0253 57.8418 95.2396 56.7213 95.6572 55.671L97.3629 51.3802H102.878V69.6248C102.878 70.6237 102.069 71.4336 101.07 71.4336Z" stroke="#663366" stroke-width="3.5" stroke-miterlimit="10" stroke-linecap="round" stroke-linejoin="round"/>
<path d="M37.6436 92.4832H29.4248C27.9784 92.4832 26.7949 93.6667 26.7949 95.1132V111.112C26.7949 112.559 27.9784 113.742 29.4248 113.742H37.6436C39.09 113.742 40.2735 112.559 40.2735 111.112V95.1132C40.2735 93.6667 39.09 92.4832 37.6436 92.4832Z" stroke="#663366" stroke-width="3.5" stroke-miterlimit="10" stroke-linecap="round" stroke-linejoin="round"/>
<path d="M122.622 98.6183H96.4285C91.2091 98.6183 86.0275 97.7332 81.1039 96.0001L79.04 95.2736C76.2633 94.2961 73.3411 93.7968 70.3972 93.7968H52.0714C49.3371 93.7968 46.6196 94.2274 44.0193 95.0734L40.2734 96.2921V109.93L44.0193 111.149C46.6196 111.995 49.3371 112.426 52.0714 112.426H70.3972C73.3411 112.426 76.2633 111.926 79.04 110.949L81.1039 110.222C86.0275 108.49 91.2091 107.604 96.4285 107.604H122.622C125.104 107.604 127.115 105.593 127.115 103.111C127.115 100.63 125.104 98.6183 122.622 98.6183Z" stroke="#663366" stroke-width="3.5" stroke-miterlimit="10" stroke-linecap="round" stroke-linejoin="round"/>
<path d="M52.9234 103.112C52.9234 98.7085 56.0704 94.9072 60.4091 94.1539C61.7136 93.9275 63.109 93.7968 64.7214 93.7968H52.0698C49.3351 93.7968 46.6177 94.2274 44.0176 95.0734L40.2715 96.2921V109.93L44.0176 111.149C46.6177 111.995 49.3351 112.426 52.0698 112.426H64.7214C63.1046 112.426 61.7079 112.295 60.4055 112.069C56.068 111.318 52.9234 107.514 52.9234 103.112Z" stroke="#663366" stroke-width="3.5" stroke-miterlimit="10" stroke-linecap="round" stroke-linejoin="round"/>
<path d="M122.623 98.6198H112.686C115.167 98.6198 117.178 100.631 117.178 103.113C117.178 105.594 115.167 107.605 112.686 107.605H122.623C125.104 107.605 127.115 105.594 127.115 103.113C127.115 100.631 125.104 98.6198 122.623 98.6198Z" stroke="#663366" stroke-width="3.5" stroke-miterlimit="10" stroke-linecap="round" stroke-linejoin="round"/>
<path d="M52.0702 112.426H70.396C73.3396 112.426 76.2621 111.927 79.0386 110.95L80.6084 110.397L77.6159 118.468C76.7398 120.83 74.4864 122.398 71.9666 122.398H52.8741C51.3609 122.398 50.1346 121.172 50.1346 119.659C50.1346 117.822 49.4688 116.047 48.2604 114.664L45.5859 111.601C47.7026 112.145 49.8805 112.426 52.0702 112.426Z" stroke="#663366" stroke-width="3.5" stroke-miterlimit="10" stroke-linecap="round" stroke-linejoin="round"/>
<path d="M77.616 87.7573C76.7399 85.3948 74.4865 83.827 71.9668 83.827H64.3652C66.885 83.827 69.1386 85.3948 70.0145 87.7573L72.2818 93.872C74.5839 94.0393 76.8567 94.5074 79.039 95.2755L80.6085 95.8281L77.616 87.7573Z" stroke="#663366" stroke-width="3.5" stroke-miterlimit="10" stroke-linecap="round" stroke-linejoin="round"/>
<path d="M79.039 110.95C76.8567 111.718 74.5839 112.186 72.2821 112.353L70.0147 118.468C69.1386 120.831 66.885 122.398 64.3652 122.398H71.9668C74.4865 122.398 76.7402 120.831 77.616 118.468L80.6085 110.397L79.039 110.95Z" stroke="#663366" stroke-width="3.5" stroke-miterlimit="10" stroke-linecap="round" stroke-linejoin="round"/>
<path d="M77.9786 99.2785H66.9954C65.5487 99.2785 64.3652 100.462 64.3652 101.908V104.319C64.3652 105.766 65.5487 106.949 66.9954 106.949H77.9786C79.4254 106.949 80.6085 105.766 80.6085 104.319V101.908C80.6085 100.462 79.4254 99.2785 77.9786 99.2785Z" stroke="#663366" stroke-width="3.5" stroke-miterlimit="10" stroke-linecap="round" stroke-linejoin="round"/>
<path d="M100.814 87.9879V98.6172" stroke="#663366" stroke-width="3.5" stroke-miterlimit="10" stroke-linecap="round" stroke-linejoin="round"/>
<path d="M98.2572 87.9881L93.7969 98.3984" stroke="#663366" stroke-width="3.5" stroke-miterlimit="10" stroke-linecap="round" stroke-linejoin="round"/>
<path d="M105.141 78.5643H94.5446C93.3191 78.5643 92.3164 79.567 92.3164 80.7922V85.76C92.3164 86.9856 93.3191 87.9883 94.5446 87.9883H105.141C106.367 87.9883 107.37 86.9856 107.37 85.76V80.7922C107.37 79.567 106.367 78.5643 105.141 78.5643Z" stroke="#663366" stroke-width="3.5" stroke-miterlimit="10" stroke-linecap="round" stroke-linejoin="round"/>
<path d="M43.3582 78.5643H32.7614C31.5359 78.5643 30.5332 79.567 30.5332 80.7922V85.76C30.5332 86.9856 31.5359 87.9883 32.7614 87.9883H43.3582C44.5838 87.9883 45.5865 86.9856 45.5865 85.76V80.7922C45.5865 79.567 44.5838 78.5643 43.3582 78.5643Z" stroke="#663366" stroke-width="3.5" stroke-miterlimit="10" stroke-linecap="round" stroke-linejoin="round"/>
<path d="M38.0605 87.9889V92.5156" stroke="#663366" stroke-width="3.5" stroke-miterlimit="10" stroke-linecap="round" stroke-linejoin="round"/>
<path d="M39.4316 87.9914L45.5856 94.625" stroke="#663366" stroke-width="3.5" stroke-miterlimit="10" stroke-linecap="round" stroke-linejoin="round"/>
<path d="M100.814 118.234V107.605" stroke="#663366" stroke-width="3.5" stroke-miterlimit="10" stroke-linecap="round" stroke-linejoin="round"/>
<path d="M98.2572 118.234L93.7969 107.824" stroke="#663366" stroke-width="3.5" stroke-miterlimit="10" stroke-linecap="round" stroke-linejoin="round"/>
<path d="M105.141 127.66H94.5446C93.3191 127.66 92.3164 126.657 92.3164 125.432V120.464C92.3164 119.239 93.3191 118.236 94.5446 118.236H105.141C106.367 118.236 107.37 119.239 107.37 120.464V125.432C107.37 126.657 106.367 127.66 105.141 127.66Z" stroke="#663366" stroke-width="3.5" stroke-miterlimit="10" stroke-linecap="round" stroke-linejoin="round"/>
<path d="M43.3582 127.66H32.7614C31.5359 127.66 30.5332 126.657 30.5332 125.432V120.464C30.5332 119.239 31.5359 118.236 32.7614 118.236H43.3582C44.5838 118.236 45.5865 119.239 45.5865 120.464V125.432C45.5865 126.657 44.5838 127.66 43.3582 127.66Z" stroke="#663366" stroke-width="3.5" stroke-miterlimit="10" stroke-linecap="round" stroke-linejoin="round"/>
<path d="M38.0605 118.234V113.708" stroke="#663366" stroke-width="3.5" stroke-miterlimit="10" stroke-linecap="round" stroke-linejoin="round"/>
<path d="M39.4316 118.234L45.5856 111.601" stroke="#663366" stroke-width="3.5" stroke-miterlimit="10" stroke-linecap="round" stroke-linejoin="round"/>
<path d="M120.814 78.5638H114.495C113.495 78.5638 112.686 79.3737 112.686 80.3726V87.3896C112.686 88.1339 113.078 88.8232 113.719 89.2022L113.736 89.2123C114.376 89.5916 114.769 90.2809 114.769 91.0252C114.769 92.1556 114.984 93.2761 115.401 94.3264L117.107 98.6172H122.623V80.3726C122.623 79.3737 121.813 78.5638 120.814 78.5638Z" stroke="#663366" stroke-width="3.5" stroke-miterlimit="10" stroke-linecap="round" stroke-linejoin="round"/>
<path d="M120.814 127.66H114.495C113.495 127.66 112.686 126.85 112.686 125.851V118.834C112.686 118.09 113.078 117.401 113.719 117.022L113.736 117.011C114.376 116.632 114.769 115.943 114.769 115.199C114.769 114.068 114.984 112.948 115.401 111.898L117.107 107.607H122.623V125.851C122.623 126.85 121.813 127.66 120.814 127.66Z" stroke="#663366" stroke-width="3.5" stroke-miterlimit="10" stroke-linecap="round" stroke-linejoin="round"/>
<path d="M122.063 12.8914C121.125 12.8914 120.365 13.6516 120.365 14.5892V24.1836H131.657V12.8914H122.063Z" stroke="#663366" stroke-width="3.5" stroke-miterlimit="10" stroke-linecap="round" stroke-linejoin="round"/>
<path d="M141.251 12.8914H131.656V24.1836H142.948V14.5892C142.948 13.6516 142.188 12.8914 141.251 12.8914Z" stroke="#663366" stroke-width="3.5" stroke-miterlimit="10" stroke-linecap="round" stroke-linejoin="round"/>
<path d="M131.657 35.4766H120.365V24.1847H131.657V35.4766Z" stroke="#663366" stroke-width="3.5" stroke-miterlimit="10" stroke-linecap="round" stroke-linejoin="round"/>
<path d="M142.948 35.4766H131.656V24.1847H142.948V35.4766Z" stroke="#663366" stroke-width="3.5" stroke-miterlimit="10" stroke-linecap="round" stroke-linejoin="round"/>
<path d="M131.657 46.7695H120.365V35.4777H131.657V46.7695Z" stroke="#663366" stroke-width="3.5" stroke-miterlimit="10" stroke-linecap="round" stroke-linejoin="round"/>
<path d="M142.948 46.7695H131.656V35.4777H142.948V46.7695Z" stroke="#663366" stroke-width="3.5" stroke-miterlimit="10" stroke-linecap="round" stroke-linejoin="round"/>
<path d="M131.657 58.0625H120.365V46.7706H131.657V58.0625Z" stroke="#663366" stroke-width="3.5" stroke-miterlimit="10" stroke-linecap="round" stroke-linejoin="round"/>
<path d="M142.948 58.0625H131.656V46.7706H142.948V58.0625Z" stroke="#663366" stroke-width="3.5" stroke-miterlimit="10" stroke-linecap="round" stroke-linejoin="round"/>
<path d="M131.657 69.3516H120.365V58.0597H131.657V69.3516Z" stroke="#663366" stroke-width="3.5" stroke-miterlimit="10" stroke-linecap="round" stroke-linejoin="round"/>
<path d="M142.948 69.3516H131.656V58.0597H142.948V69.3516Z" stroke="#663366" stroke-width="3.5" stroke-miterlimit="10" stroke-linecap="round" stroke-linejoin="round"/>
<path d="M142.948 80.6445H131.656V69.3527H142.948V80.6445Z" stroke="#663366" stroke-width="3.5" stroke-miterlimit="10" stroke-linecap="round" stroke-linejoin="round"/>
<path d="M142.948 91.9375H131.656V80.6456H142.948V91.9375Z" stroke="#663366" stroke-width="3.5" stroke-miterlimit="10" stroke-linecap="round" stroke-linejoin="round"/>
<path d="M142.948 103.227H131.656V91.9347H142.948V103.227Z" stroke="#663366" stroke-width="3.5" stroke-miterlimit="10" stroke-linecap="round" stroke-linejoin="round"/>
<path d="M142.948 114.52H131.656V103.228H142.948V114.52Z" stroke="#663366" stroke-width="3.5" stroke-miterlimit="10" stroke-linecap="round" stroke-linejoin="round"/>
<path d="M142.948 125.812H131.656V114.521H142.948V125.812Z" stroke="#663366" stroke-width="3.5" stroke-miterlimit="10" stroke-linecap="round" stroke-linejoin="round"/>
<path d="M122.622 125.813V125.851C122.622 126.85 121.812 127.66 120.813 127.66H120.365V135.408C120.365 136.345 121.125 137.105 122.063 137.105H131.657V125.813H122.622Z" stroke="#663366" stroke-width="3.5" stroke-miterlimit="10" stroke-linecap="round" stroke-linejoin="round"/>
<path d="M131.656 125.813V137.105H141.251C142.188 137.105 142.948 136.345 142.948 135.408V125.813H131.656Z" stroke="#663366" stroke-width="3.5" stroke-miterlimit="10" stroke-linecap="round" stroke-linejoin="round"/>
<path d="M122.621 125.812H131.656V114.521H122.621V125.812Z" stroke="#663366" stroke-width="3.5" stroke-miterlimit="10" stroke-linecap="round" stroke-linejoin="round"/>
<path d="M127.108 103.228C127.046 105.655 125.063 107.605 122.621 107.605V114.52H131.656V103.228H127.108Z" stroke="#663366" stroke-width="3.5" stroke-miterlimit="10" stroke-linecap="round" stroke-linejoin="round"/>
<path d="M122.621 91.9344V98.6172C125.103 98.6172 127.114 100.629 127.114 103.11C127.114 103.15 127.109 103.187 127.108 103.227H131.656V91.9344H122.621Z" stroke="#663366" stroke-width="3.5" stroke-miterlimit="10" stroke-linecap="round" stroke-linejoin="round"/>
<path d="M122.621 91.9375H131.656V80.6459H122.621V91.9375Z" stroke="#663366" stroke-width="3.5" stroke-miterlimit="10" stroke-linecap="round" stroke-linejoin="round"/>
<path d="M120.365 69.3524V78.5656H120.813C121.812 78.5656 122.622 79.3755 122.622 80.3746V80.6445H131.657V69.3524H120.365Z" stroke="#663366" stroke-width="3.5" stroke-miterlimit="10" stroke-linecap="round" stroke-linejoin="round"/>
<path d="M54.5678 83.827H52.8741C51.3609 83.827 50.1346 85.0533 50.1346 86.5665C50.1346 88.4032 49.4687 90.1781 48.2607 91.5617L45.5859 94.6245C47.7026 94.08 49.8805 93.7989 52.0702 93.7989H70.396C73.3396 93.7989 76.2621 94.2982 79.0388 95.2755L80.6084 95.8281L77.6159 87.7573C76.7398 85.3946 74.4864 83.827 71.9666 83.827H64.1381" stroke="#663366" stroke-width="3.5" stroke-miterlimit="10" stroke-linecap="round" stroke-linejoin="round"/>
<path d="M102.878 26.9759V24.1461C102.878 23.1469 102.069 22.337 101.07 22.337H94.7502C93.7513 22.337 92.9414 23.1469 92.9414 24.1461V31.163C92.9414 31.9073 93.3341 32.5966 93.9747 32.9756L93.9917 32.9857C94.6323 33.365 95.025 34.0543 95.025 34.7984C95.025 35.929 95.2396 37.0493 95.6572 38.0998L97.3629 42.3906H102.878V36.5462" stroke="#663366" stroke-width="3.5" stroke-miterlimit="10" stroke-linecap="round" stroke-linejoin="round"/>
</g>
</svg>
