<svg width="150" height="150" viewBox="0 0 150 150" fill="none" xmlns="http://www.w3.org/2000/svg">
<path d="M34.6766 41.3633L32.0859 50.3627" stroke="#663366" stroke-width="4.22535" stroke-miterlimit="10" stroke-linecap="round" stroke-linejoin="round"/>
<path d="M29.3487 59.8711C29.1222 60.6567 30.1492 57.0925 27.2129 67.2838" stroke="#663366" stroke-width="4.22535" stroke-miterlimit="10" stroke-linecap="round" stroke-linejoin="round"/>
<path d="M48.5051 42.9648L49.082 44.1724C50.3208 46.7688 53.0189 48.3386 55.8867 48.135C56.9383 48.0598 51.6721 48.4361 68.4358 47.2384C71.9256 46.9868 74.8701 49.7665 74.8701 53.2116C74.8701 56.3434 72.4865 58.9316 69.3974 59.2077C66.7605 59.4415 68.3059 59.3029 50.1453 60.9215L47.7949 78.502" stroke="#663366" stroke-width="4.22535" stroke-miterlimit="10" stroke-linecap="round" stroke-linejoin="round"/>
<path d="M54.7606 27.1811C57.0048 33.2752 54.3028 40.0763 48.5045 42.9656C43.8612 45.2834 38.4572 44.5087 34.6769 41.3648C30.3553 37.7758 28.7969 31.6073 31.2547 26.2589C31.4271 25.8856 31.6138 25.5234 31.8203 25.1758" stroke="#663366" stroke-width="4.22535" stroke-miterlimit="10" stroke-linecap="round" stroke-linejoin="round"/>
<path d="M54.7614 27.1807C56.0116 26.8895 56.9223 26.301 57.3296 25.4131C58.5544 22.7517 54.8012 18.4131 48.9465 15.7176C38.3491 10.8444 32.862 17.6945 31.9882 19.5923C31.1057 21.5126 31.1029 23.5717 31.8215 25.1754C32.2967 26.2388 33.0885 27.1016 34.1491 27.5909C36.8077 28.8126 40.1564 27.2176 41.6243 24.0244C41.6524 23.9621 41.6781 23.8999 41.7062 23.8405C42.5716 24.3807 43.5108 24.8926 44.5147 25.3537C48.4147 27.1469 52.264 27.7579 54.7614 27.1807Z" stroke="#663366" stroke-width="4.22535" stroke-miterlimit="10" stroke-linecap="round" stroke-linejoin="round"/>
<path d="M68.7578 59.2656C69.924 71.8065 79.4834 81.9084 91.766 83.8972" stroke="#663366" stroke-width="4.22535" stroke-miterlimit="10" stroke-linecap="round" stroke-linejoin="round"/>
<path d="M70.2461 47.3846C74.0585 36.7277 84.2461 29.1055 96.2126 29.1055C111.911 29.1055 124.452 42.2136 123.763 57.8378" stroke="#663366" stroke-width="4.22535" stroke-miterlimit="10" stroke-linecap="round" stroke-linejoin="round"/>
<path d="M144.999 92.7422V102.814C144.999 109.873 142.74 116.404 138.904 121.721" stroke="#663366" stroke-width="4.22535" stroke-miterlimit="10" stroke-linecap="round" stroke-linejoin="round"/>
<path d="M131.984 128.756C126.588 132.781 119.896 135.165 112.647 135.165C108.571 135.165 16.509 135.165 12.4242 135.165C8.32704 135.165 5 131.842 5 127.741C5 123.64 8.3231 120.317 12.4242 120.317C20.8566 120.317 48.0614 120.317 59.7811 120.317C69.0436 120.317 77.4436 114.884 81.245 106.438L89.9929 86.9996C90.4878 85.8993 91.0819 84.8613 91.7661 83.8971C94.6087 79.8638 98.9754 77.0782 103.942 76.2495L108.374 75.5112C115.176 74.3771 120.685 69.3709 122.464 62.7075C124.713 54.2701 121.37 66.8162 126.13 48.9565C127.25 44.7537 131.056 41.832 135.403 41.832C140.704 41.832 145 46.1281 145 51.4284V82.1351" stroke="#663366" stroke-width="4.22535" stroke-miterlimit="10" stroke-linecap="round" stroke-linejoin="round"/>
<path d="M47.7943 78.502L27.2129 67.2852" stroke="#663366" stroke-width="4.22535" stroke-miterlimit="10" stroke-linecap="round" stroke-linejoin="round"/>
<path d="M64.8973 47.4922C64.8973 47.4922 62.7561 53.5589 66.0483 59.5068" stroke="#663366" stroke-width="4.22535" stroke-miterlimit="10" stroke-linecap="round" stroke-linejoin="round"/>
<path d="M114.243 118.196H99.3949C96.4648 118.196 94.0918 115.823 94.0918 112.893C94.0918 109.963 96.4648 107.59 99.3949 107.59H114.243C117.173 107.59 119.546 109.963 119.546 112.893C119.546 115.823 117.173 118.196 114.243 118.196Z" stroke="#663366" stroke-width="4.22535" stroke-miterlimit="10" stroke-linecap="round" stroke-linejoin="round"/>
<path d="M145 92.739H126.969C124.039 92.739 121.666 90.3661 121.666 87.4359C121.666 84.5063 124.039 82.1328 126.969 82.1328H145V92.739Z" stroke="#663366" stroke-width="4.22535" stroke-miterlimit="10" stroke-linecap="round" stroke-linejoin="round"/>
<path d="M81.7285 63.5117H87.7274V69.5134" stroke="#663366" stroke-width="4.22535" stroke-miterlimit="10" stroke-linecap="round" stroke-linejoin="round"/>
<path d="M87.7275 63.5117C85.5201 65.719 67.9579 83.2813 65.6895 85.5497" stroke="#663366" stroke-width="4.22535" stroke-miterlimit="10" stroke-linecap="round" stroke-linejoin="round"/>
<circle cx="91.9701" cy="54.558" r="2.11267" fill="#663366"/>
<circle cx="111.06" cy="56.6791" r="2.11267" fill="#663366"/>
<circle cx="96.2123" cy="41.8314" r="2.11267" fill="#663366"/>
<circle cx="100.454" cy="67.2846" r="2.11267" fill="#663366"/>
<path d="M24.8307 77.7109C24.7349 81.9842 26.1152 88.3983 34.5349 90.9475C35.9461 91.3729 37.2447 92.0405 38.3856 92.9053C40.6081 94.5785 42.2278 96.987 42.8954 99.7813L47.794 120.317H57.5602V96.4039C57.5602 92.5785 56.2391 88.8687 53.8222 85.9025L47.794 78.5053" stroke="#663366" stroke-width="4.22535" stroke-miterlimit="10" stroke-linecap="round" stroke-linejoin="round"/>
<path d="M47.794 78.5021L27.2109 67.2852" stroke="#663366" stroke-width="4.22535" stroke-miterlimit="10" stroke-linecap="round" stroke-linejoin="round"/>
<path d="M27.2112 67.2852L24.8309 77.7077L15.0957 120.313H25.4478L38.3858 92.902" stroke="#663366" stroke-width="4.22535" stroke-miterlimit="10" stroke-linecap="round" stroke-linejoin="round"/>
</svg>
