<svg width="150" height="150" viewBox="0 0 150 150" fill="none" xmlns="http://www.w3.org/2000/svg">
<path d="M96.9538 77.1989L107.699 66.4539C110.95 63.2029 116.221 63.2029 119.471 66.4539C122.722 69.7049 122.722 74.9757 119.471 78.2264L90.4213 107.277H71.587L57.3756 93.1485L40.5625 107.277H24.0078V105.19C24.0078 101.733 26.8107 98.9301 30.2681 98.9301H36.8121L54.8555 81.0246C57.816 78.0869 62.1675 77.404 65.7748 78.9718C66.882 79.4529 67.9189 80.1461 68.8238 81.0512L80.9624 93.1898L91.2326 82.9195" stroke="#663366" stroke-width="4.16227" stroke-miterlimit="10"/>
<path d="M113.497 72.4275L102.84 83.0843L90.808 71.052C89.2283 69.4723 86.6669 69.4723 85.0871 71.052C83.5074 72.6317 83.5074 75.1932 85.0871 76.7729L103.006 94.6914" stroke="#663366" stroke-width="4.16227" stroke-miterlimit="10"/>
<path d="M85.6309 88.5234L97.4034 100.296" stroke="#663366" stroke-width="4.16227" stroke-miterlimit="10"/>
<path d="M60.25 95.985L72.0045 84.2305" stroke="#663366" stroke-width="4.16227" stroke-miterlimit="10"/>
<path d="M132.319 63.5557C138.067 63.5557 142.728 58.8956 142.728 53.147C142.728 47.3984 138.067 42.7383 132.319 42.7383C126.57 42.7383 121.91 47.3984 121.91 53.147C121.91 58.8956 126.57 63.5557 132.319 63.5557Z" stroke="#663366" stroke-width="4.16227" stroke-miterlimit="10"/>
<path d="M59.3867 107.277H71.5866" stroke="#663366" stroke-width="4.16227" stroke-miterlimit="10"/>
<path d="M119.472 78.2253L133.142 64.5558C135.779 61.9189 140.054 61.9189 142.691 64.5558C145.327 67.1917 145.328 71.4652 142.693 74.1024L97.0964 119.744H7.08789V107.275H55.2256" stroke="#663366" stroke-width="4.16227" stroke-miterlimit="10"/>
<path d="M97.0957 119.745H145V111.434H105.172" stroke="#663366" stroke-width="4.16227" stroke-miterlimit="10"/>
<path d="M136.393 111.435V80.1992" stroke="#663366" stroke-width="4.16227" stroke-miterlimit="10"/>
<path d="M36.632 144.994C43.6041 144.994 49.2561 139.342 49.2561 132.37C49.2561 125.398 43.6041 119.746 36.632 119.746C29.6598 119.746 24.0078 125.398 24.0078 132.37C24.0078 139.342 29.6598 144.994 36.632 144.994Z" stroke="#663366" stroke-width="4.16227" stroke-miterlimit="10"/>
<path d="M36.633 136.532C38.9317 136.532 40.7952 134.668 40.7952 132.369C40.7952 130.071 38.9317 128.207 36.633 128.207C34.3342 128.207 32.4707 130.071 32.4707 132.369C32.4707 134.668 34.3342 136.532 36.633 136.532Z" stroke="#663366" stroke-width="4.16227" stroke-miterlimit="10"/>
<path d="M119.744 130.146V119.746" stroke="#663366" stroke-width="4.16227" stroke-miterlimit="10"/>
<path d="M111.42 119.746V144.994H119.744V134.308" stroke="#663366" stroke-width="4.16227" stroke-miterlimit="10"/>
<path d="M32.3774 44.8642C39.2737 44.8642 44.8642 39.2737 44.8642 32.3774C44.8642 25.4812 39.2737 19.8906 32.3774 19.8906C25.4812 19.8906 19.8906 25.4812 19.8906 32.3774C19.8906 39.2737 25.4812 44.8642 32.3774 44.8642Z" stroke="#663366" stroke-width="4.16227" stroke-miterlimit="10"/>
<path d="M32.377 13.602V5" stroke="#663366" stroke-width="4.16227" stroke-miterlimit="10"/>
<path d="M19.102 19.1023L13.0195 13.0195" stroke="#663366" stroke-width="4.16227" stroke-miterlimit="10"/>
<path d="M13.602 32.375H5" stroke="#663366" stroke-width="4.16227" stroke-miterlimit="10"/>
<path d="M19.102 45.6523L13.0195 51.7348" stroke="#663366" stroke-width="4.16227" stroke-miterlimit="10"/>
<path d="M32.377 51.1523V59.7544" stroke="#663366" stroke-width="4.16227" stroke-miterlimit="10"/>
<path d="M45.6523 45.6523L51.7348 51.7348" stroke="#663366" stroke-width="4.16227" stroke-miterlimit="10"/>
<path d="M51.1523 32.375H59.7544" stroke="#663366" stroke-width="4.16227" stroke-miterlimit="10"/>
<path d="M45.6523 19.1023L51.7348 13.0195" stroke="#663366" stroke-width="4.16227" stroke-miterlimit="10"/>
<path d="M28.4219 30.2969V34.4591" stroke="#663366" stroke-width="4.16227" stroke-miterlimit="10"/>
</svg>
