<svg width="150" height="150" viewBox="0 0 150 150" fill="none" xmlns="http://www.w3.org/2000/svg">
<mask id="mask0_750_866" style="mask-type:luminance" maskUnits="userSpaceOnUse" x="5" y="5" width="140" height="140">
<path d="M5 5H145V145H5V5Z" fill="white"/>
</mask>
<g mask="url(#mask0_750_866)">
<path d="M111.914 65.8125V78.5273C111.914 80.7829 110.068 82.6289 107.813 82.6289H99.6094C97.3538 82.6289 95.5078 80.7832 95.5078 78.5273V65.8125M83.2031 65.8125V78.5273C83.2031 80.7829 81.3572 82.6289 79.1016 82.6289H70.8984C68.6429 82.6289 66.7969 80.7832 66.7969 78.5273V65.8125M54.4922 65.8125V78.5273C54.4922 80.7829 52.6462 82.6289 50.3906 82.6289H42.1875C39.9319 82.6289 38.0859 80.7832 38.0859 78.5273V65.8125M16.4663 52.0384L21.6797 41.9119H128.32L140.625 65.8125V78.5273C140.625 80.7829 138.779 82.6289 136.523 82.6289H128.32C126.064 82.6289 124.218 80.7832 124.218 78.5273V65.8125M25.7815 65.8125V78.5273C25.7815 80.7829 23.9356 82.6289 21.68 82.6289H13.4766C11.221 82.6289 9.375 80.7832 9.375 78.5273V65.8125L14.5884 55.6857" stroke="#663366" stroke-width="4.10156" stroke-miterlimit="22.926"/>
<path d="M54.4919 78.5273H66.7966M83.2029 78.5273H95.5075M111.914 78.5273H124.218M25.7812 78.5273H38.0857" stroke="#663366" stroke-width="4.10156" stroke-miterlimit="22.926"/>
<path d="M9.375 65.8125H140.625" stroke="#663366" stroke-width="4.10156" stroke-miterlimit="22.926"/>
<path d="M13.4766 132.695V82.6314M116.016 132.695H5M124.219 132.695H120.117M145 132.695H128.32M136.523 82.6314V132.695" stroke="#663366" stroke-width="4.10156" stroke-miterlimit="22.926"/>
<path d="M70.8979 103.186H124.218M25.7812 124.492H60.6443" stroke="#663366" stroke-width="4.10156" stroke-miterlimit="22.926"/>
<path d="M25.7812 78.5298V132.695M60.6443 132.695V78.5298M70.8979 82.6314V111.39H124.218V78.5298" stroke="#663366" stroke-width="4.10156" stroke-miterlimit="22.926"/>
<path d="M93.3386 25.5078H128.32V41.9141M21.6797 41.9141V25.5078H56.6611" stroke="#663366" stroke-width="4.10156" stroke-miterlimit="22.926"/>
<path d="M58.5938 41.9141C58.5938 32.8559 65.9418 25.5078 75 25.5078C84.0582 25.5078 91.4063 32.8559 91.4063 41.9141M50.3906 41.9141C50.3906 28.3283 61.4145 17.305 75 17.305C88.5855 17.305 99.6094 28.3283 99.6094 41.9141M66.7969 41.9141C66.7969 37.3837 70.4697 33.7109 75 33.7109C79.5303 33.7109 83.2031 37.3837 83.2031 41.9141" stroke="#663366" stroke-width="4.10156" stroke-miterlimit="22.926"/>
<path d="M109.863 33.7085H113.965M113.965 88.7812H118.066M50.3906 90.832H54.4922M118.066 33.7085H122.168" stroke="#663366" stroke-width="4.10156" stroke-miterlimit="2.613"/>
</g>
</svg>
