<svg width="150" height="150" viewBox="0 0 150 150" fill="none" xmlns="http://www.w3.org/2000/svg">
<path d="M21.9004 121.196V13.168" stroke="#663366" stroke-width="4.22536" stroke-miterlimit="10" stroke-linecap="round" stroke-linejoin="round"/>
<path d="M33.168 102.956V13.3789" stroke="#663366" stroke-width="4.22536" stroke-miterlimit="10" stroke-linecap="round" stroke-linejoin="round"/>
<path d="M44.4355 57.0117V102.956" stroke="#663366" stroke-width="4.22536" stroke-miterlimit="10" stroke-linecap="round" stroke-linejoin="round"/>
<path d="M44.4355 13.3789V34.3933" stroke="#663366" stroke-width="4.22536" stroke-miterlimit="10" stroke-linecap="round" stroke-linejoin="round"/>
<path d="M128.098 13.168V121.196" stroke="#663366" stroke-width="4.22536" stroke-miterlimit="10" stroke-linecap="round" stroke-linejoin="round"/>
<path d="M105.562 102.956V13.3789" stroke="#663366" stroke-width="4.22536" stroke-miterlimit="10" stroke-linecap="round" stroke-linejoin="round"/>
<path d="M116.83 86.832V102.959" stroke="#663366" stroke-width="4.22536" stroke-miterlimit="10" stroke-linecap="round" stroke-linejoin="round"/>
<path d="M116.83 13.3789V76.9705" stroke="#663366" stroke-width="4.22536" stroke-miterlimit="10" stroke-linecap="round" stroke-linejoin="round"/>
<path d="M59.929 76.9707C63.8183 76.9707 66.9712 74.4484 66.9712 71.3369C66.9712 68.2255 63.8183 65.7031 59.929 65.7031C56.0396 65.7031 52.8867 68.2255 52.8867 71.3369C52.8867 74.4484 56.0396 76.9707 59.929 76.9707Z" stroke="#663366" stroke-width="4.22536" stroke-miterlimit="10" stroke-linecap="round" stroke-linejoin="round"/>
<path d="M90.0677 91.9317C93.957 91.9317 97.1099 89.4093 97.1099 86.2979C97.1099 83.1864 93.957 80.6641 90.0677 80.6641C86.1783 80.6641 83.0254 83.1864 83.0254 86.2979C83.0254 89.4093 86.1783 91.9317 90.0677 91.9317Z" stroke="#663366" stroke-width="4.22536" stroke-miterlimit="10" stroke-linecap="round" stroke-linejoin="round"/>
<path d="M85.7093 45.2827L97.1102 49.545V60.8126L66.9707 49.545V38.2773L76.4527 41.8221" stroke="#663366" stroke-width="4.22536" stroke-miterlimit="10" stroke-linecap="round" stroke-linejoin="round"/>
<path d="M97.1113 60.8125V86.2979" stroke="#663366" stroke-width="4.22536" stroke-miterlimit="10" stroke-linecap="round" stroke-linejoin="round"/>
<path d="M66.9707 71.3365V49.543" stroke="#663366" stroke-width="4.22536" stroke-miterlimit="10" stroke-linecap="round" stroke-linejoin="round"/>
<path d="M60.4951 5H128.098V13.169H21.9004V5H50.6359" stroke="#663366" stroke-width="4.22536" stroke-miterlimit="10" stroke-linecap="round" stroke-linejoin="round"/>
<path d="M35.6342 112.887H21.9004" stroke="#663366" stroke-width="4.22536" stroke-miterlimit="10" stroke-linecap="round" stroke-linejoin="round"/>
<path d="M128.098 112.887H45.4941" stroke="#663366" stroke-width="4.22536" stroke-miterlimit="10" stroke-linecap="round" stroke-linejoin="round"/>
<path d="M77.0195 103.027H128.098" stroke="#663366" stroke-width="4.22536" stroke-miterlimit="10" stroke-linecap="round" stroke-linejoin="round"/>
<path d="M21.9004 103.027H57.2286" stroke="#663366" stroke-width="4.22536" stroke-miterlimit="10" stroke-linecap="round" stroke-linejoin="round"/>
<path d="M96.67 29.3643L94.5615 30.2679C92.3795 31.2031 90.6407 32.9417 89.7054 35.124L88.8018 37.2325L87.906 35.1423C86.9657 32.9485 85.2175 31.2 83.0237 30.26L80.9336 29.3643L83.0421 28.4606C85.224 27.5254 86.9629 25.7868 87.8981 23.6045L88.8018 21.4961L89.7054 23.6045C90.6407 25.7865 92.3792 27.5254 94.5615 28.4606L96.67 29.3643Z" stroke="#663366" stroke-width="4.22536" stroke-miterlimit="10" stroke-linecap="round" stroke-linejoin="round"/>
<path d="M76.9722 103.027L74.3303 104.16C71.5959 105.331 69.4173 107.51 68.2455 110.244L67.1131 112.886L65.9807 110.244C64.8088 107.51 62.6303 105.331 59.8959 104.16L57.2539 103.027L59.8959 101.895C62.6303 100.723 64.8088 98.5443 65.9807 95.8099L67.1131 93.168L68.2455 95.8099C69.4173 98.5443 71.5959 100.723 74.3303 101.895L76.9722 103.027Z" stroke="#663366" stroke-width="4.22536" stroke-miterlimit="10" stroke-linecap="round" stroke-linejoin="round"/>
<path d="M55.7032 45.7051L52.6838 46.9992C49.559 48.3384 47.0691 50.8285 45.7297 53.9533L44.4356 56.9727L43.1415 53.9533C41.8023 50.8285 39.3122 48.3386 36.1874 46.9992L33.168 45.7051L36.1874 44.411C39.3122 43.0719 41.8021 40.5817 43.1415 37.4569L44.4356 34.4375L45.7297 37.4569C47.0688 40.5817 49.559 43.0716 52.6838 44.411L55.7032 45.7051Z" stroke="#663366" stroke-width="4.22536" stroke-miterlimit="10" stroke-linecap="round" stroke-linejoin="round"/>
<path d="M21.8504 29.7891H7.81691C6.26113 29.7891 5 31.0502 5 32.606V145" stroke="#663366" stroke-width="4.22536" stroke-miterlimit="10" stroke-linecap="round" stroke-linejoin="round"/>
<path d="M144.999 145V32.606C144.999 31.0502 143.738 29.7891 142.182 29.7891H128.117" stroke="#663366" stroke-width="4.22536" stroke-miterlimit="10" stroke-linecap="round" stroke-linejoin="round"/>
<path d="M21.9004 145.001V136.551H128.098V145.001" stroke="#663366" stroke-width="4.22536" stroke-miterlimit="10" stroke-linecap="round" stroke-linejoin="round"/>
<path d="M21.6202 48.0992H14.8596C14.0819 48.0992 13.4512 47.4684 13.4512 46.6907V41.0569C13.4512 40.2791 14.0819 39.6484 14.8596 39.6484H21.6202" stroke="#663366" stroke-width="4.22536" stroke-miterlimit="10" stroke-linecap="round" stroke-linejoin="round"/>
<path d="M21.6202 66.4077H14.8596C14.0819 66.4077 13.4512 65.777 13.4512 64.9993V59.3655C13.4512 58.5877 14.0819 57.957 14.8596 57.957H21.6202" stroke="#663366" stroke-width="4.22536" stroke-miterlimit="10" stroke-linecap="round" stroke-linejoin="round"/>
<path d="M21.6202 84.7202H14.8596C14.0819 84.7202 13.4512 84.0895 13.4512 83.3118V77.678C13.4512 76.9002 14.0819 76.2695 14.8596 76.2695H21.6202" stroke="#663366" stroke-width="4.22536" stroke-miterlimit="10" stroke-linecap="round" stroke-linejoin="round"/>
<path d="M21.6202 103.029H14.8596C14.0819 103.029 13.4512 102.398 13.4512 101.62V95.9866C13.4512 95.2088 14.0819 94.5781 14.8596 94.5781H21.6202" stroke="#663366" stroke-width="4.22536" stroke-miterlimit="10" stroke-linecap="round" stroke-linejoin="round"/>
<path d="M128.381 112.887H135.141C135.919 112.887 136.55 113.517 136.55 114.295V119.929C136.55 120.707 135.919 121.337 135.141 121.337H128.099H21.9019H14.8596C14.0819 121.337 13.4512 120.707 13.4512 119.929V114.295C13.4512 113.517 14.0819 112.887 14.8596 112.887H21.6202" stroke="#663366" stroke-width="4.22536" stroke-miterlimit="10" stroke-linecap="round" stroke-linejoin="round"/>
<path d="M21.9019 145.001H14.8596C14.0819 145.001 13.4512 144.371 13.4512 143.593V137.959C13.4512 137.181 14.0819 136.551 14.8596 136.551H21.9019" stroke="#663366" stroke-width="4.22536" stroke-miterlimit="10" stroke-linecap="round" stroke-linejoin="round"/>
<path d="M128.381 39.6484H135.141C135.919 39.6484 136.55 40.2791 136.55 41.0569V46.6907C136.55 47.4684 135.919 48.0992 135.141 48.0992H128.381" stroke="#663366" stroke-width="4.22536" stroke-miterlimit="10" stroke-linecap="round" stroke-linejoin="round"/>
<path d="M128.381 57.957H135.141C135.919 57.957 136.55 58.5877 136.55 59.3655V64.9993C136.55 65.777 135.919 66.4077 135.141 66.4077H128.381" stroke="#663366" stroke-width="4.22536" stroke-miterlimit="10" stroke-linecap="round" stroke-linejoin="round"/>
<path d="M128.381 76.2695H135.141C135.919 76.2695 136.55 76.9002 136.55 77.678V83.3118C136.55 84.0895 135.919 84.7202 135.141 84.7202H128.381" stroke="#663366" stroke-width="4.22536" stroke-miterlimit="10" stroke-linecap="round" stroke-linejoin="round"/>
<path d="M128.381 94.5781H135.141C135.919 94.5781 136.55 95.2088 136.55 95.9866V101.62C136.55 102.398 135.919 103.029 135.141 103.029H128.381" stroke="#663366" stroke-width="4.22536" stroke-miterlimit="10" stroke-linecap="round" stroke-linejoin="round"/>
<path d="M128.098 136.551H135.14C135.918 136.551 136.548 137.181 136.548 137.959V143.593C136.548 144.371 135.918 145.001 135.14 145.001H128.098" stroke="#663366" stroke-width="4.22536" stroke-miterlimit="10" stroke-linecap="round" stroke-linejoin="round"/>
</svg>
