<svg width="150" height="150" viewBox="0 0 150 150" fill="none" xmlns="http://www.w3.org/2000/svg">
<path d="M17.1371 15.1641H13.4677C8.79101 15.1641 5 18.9551 5 23.6318V136.535C5 141.212 8.79101 145.003 13.4677 145.003H136.532C141.209 145.003 145 141.212 145 136.535V23.6318C145 18.9551 141.209 15.1641 136.532 15.1641H130.04" stroke="#663366" stroke-width="4.23387" stroke-miterlimit="10"/>
<path d="M5 43.3867H145" stroke="#663366" stroke-width="4.23387" stroke-miterlimit="10"/>
<path d="M76.4121 128.348H135.686" stroke="#663366" stroke-width="4.23387" stroke-miterlimit="10"/>
<path d="M67.9434 128.348H72.1772" stroke="#663366" stroke-width="4.23387" stroke-miterlimit="10"/>
<path d="M22.7838 25.3226C19.666 25.3226 17.1387 22.7952 17.1387 19.6774V10.6452C17.1387 7.52734 19.666 5 22.7838 5C25.9017 5 28.429 7.52734 28.429 10.6452V19.6774C28.429 22.7952 25.9017 25.3226 22.7838 25.3226Z" stroke="#663366" stroke-width="4.23387" stroke-miterlimit="10"/>
<path d="M56.6549 25.3226C53.5371 25.3226 51.0098 22.7952 51.0098 19.6774V10.6452C51.0098 7.52734 53.5371 5 56.6549 5C59.7727 5 62.3001 7.52734 62.3001 10.6452V19.6774C62.3001 22.7952 59.7727 25.3226 56.6549 25.3226Z" stroke="#663366" stroke-width="4.23387" stroke-miterlimit="10"/>
<path d="M90.526 25.3226C87.4082 25.3226 84.8809 22.7952 84.8809 19.6774V10.6452C84.8809 7.52734 87.4082 5 90.526 5C93.6438 5 96.1712 7.52734 96.1712 10.6452V19.6774C96.1712 22.7952 93.6438 25.3226 90.526 25.3226Z" stroke="#663366" stroke-width="4.23387" stroke-miterlimit="10"/>
<path d="M124.397 25.3226C121.279 25.3226 118.752 22.7952 118.752 19.6774V10.6452C118.752 7.52734 121.279 5 124.397 5C127.515 5 130.042 7.52734 130.042 10.6452V19.6774C130.042 22.7952 127.515 25.3226 124.397 25.3226Z" stroke="#663366" stroke-width="4.23387" stroke-miterlimit="10"/>
<path d="M28.4277 15.1641H51.0084" stroke="#663366" stroke-width="4.23387" stroke-miterlimit="10"/>
<path d="M62.2988 15.1641H84.8795" stroke="#663366" stroke-width="4.23387" stroke-miterlimit="10"/>
<path d="M96.1699 15.1641H118.751" stroke="#663366" stroke-width="4.23387" stroke-miterlimit="10"/>
<path d="M53.5487 127.499H25.3229C22.2051 127.499 19.6777 124.972 19.6777 121.854V85.1608C19.6777 82.043 22.2051 79.5156 25.3229 79.5156H53.5487C56.6665 79.5156 59.1939 82.043 59.1939 85.1608V121.854C59.1939 124.972 56.6665 127.499 53.5487 127.499Z" stroke="#663366" stroke-width="4.23387" stroke-miterlimit="10"/>
<path d="M49.3145 87.9844V119.033" stroke="#663366" stroke-width="4.23387" stroke-miterlimit="10"/>
<path d="M39.4355 87.9844V119.033" stroke="#663366" stroke-width="4.23387" stroke-miterlimit="10"/>
<path d="M29.5566 119.033V87.9844" stroke="#663366" stroke-width="4.23387" stroke-miterlimit="10"/>
<path d="M45.082 54.1133V79.5165" stroke="#663366" stroke-width="4.23387" stroke-miterlimit="10"/>
<path d="M33.791 79.5165V54.1133" stroke="#663366" stroke-width="4.23387" stroke-miterlimit="10"/>
<path d="M25.3242 54.1133H53.55" stroke="#663366" stroke-width="4.23387" stroke-miterlimit="10"/>
<path d="M29.5581 135.968C27.2199 135.968 25.3242 134.072 25.3242 131.734V127.5H33.792V131.734C33.792 134.072 31.8963 135.968 29.5581 135.968Z" stroke="#663366" stroke-width="4.23387" stroke-miterlimit="10"/>
<path d="M49.3159 135.968C51.6541 135.968 53.5498 134.072 53.5498 131.734V127.5H45.082V131.734C45.082 134.072 46.9777 135.968 49.3159 135.968Z" stroke="#663366" stroke-width="4.23387" stroke-miterlimit="10"/>
<path d="M106.266 80.1535L132.064 73.241C134.263 72.6511 135.57 70.3902 134.98 68.1914C134.655 66.9805 133.8 65.9842 132.651 65.4818L128.217 63.537C125.395 62.3035 122.236 62.0636 119.261 62.8596L79.522 73.5092L71.1079 65.6963L64.5566 67.4519L68.7708 83.1765C69.7389 86.7951 73.4591 88.943 77.0776 87.9749L89.4857 84.6499" stroke="#663366" stroke-width="4.23387" stroke-miterlimit="10"/>
<path d="M92.4763 77.2976L84.5762 96.7367L94.8413 93.9861L113.225 71.7383" stroke="#663366" stroke-width="4.23387" stroke-miterlimit="10"/>
<path d="M115.928 128.347V119.879" stroke="#663366" stroke-width="4.23387" stroke-miterlimit="10"/>
<path d="M115.928 119.881C112.811 119.881 110.283 117.353 110.283 114.236V108.59C110.283 105.473 112.811 102.945 115.928 102.945C119.046 102.945 121.574 105.473 121.574 108.59V114.236C121.574 117.353 119.046 119.881 115.928 119.881Z" stroke="#663366" stroke-width="4.23387" stroke-miterlimit="10"/>
<path d="M104.639 128.347V119.879" stroke="#663366" stroke-width="4.23387" stroke-miterlimit="10"/>
<path d="M104.637 119.881C101.52 119.881 98.9922 117.353 98.9922 114.236V108.59C98.9922 105.473 101.52 102.945 104.637 102.945C107.755 102.945 110.283 105.473 110.283 108.59V114.236C110.283 117.353 107.755 119.881 104.637 119.881Z" stroke="#663366" stroke-width="4.23387" stroke-miterlimit="10"/>
<path d="M127.219 128.347V119.879" stroke="#663366" stroke-width="4.23387" stroke-miterlimit="10"/>
<path d="M127.219 119.881C124.102 119.881 121.574 117.354 121.574 114.236V102.946C121.574 99.8281 124.102 97.3008 127.219 97.3008C130.337 97.3008 132.865 99.8281 132.865 102.946V114.236C132.865 117.354 130.337 119.881 127.219 119.881Z" stroke="#663366" stroke-width="4.23387" stroke-miterlimit="10"/>
</svg>
