<svg width="1000" height="1000" viewBox="0 0 1000 1000" fill="none" xmlns="http://www.w3.org/2000/svg">
<circle cx="500" cy="500" r="500" fill="#9D54A1"/>
<path d="M836.065 588.296C836.065 582.982 832.732 578.141 826.726 574.619L737.311 522.585C742.782 519.409 819.595 475.172 815.065 477.75C817.392 476.398 817.36 473.003 815.065 471.651L618.905 357.678C634.091 318.723 658.175 252.946 658.018 228.864C658.018 192.99 631.796 177.269 599.821 195.599C569.637 213.049 545.207 255.431 545.334 290.109C545.428 298.127 548.1 308 553.131 319.506C486.571 280.802 448.214 258.542 450.097 259.611C449.028 259.014 447.708 258.982 446.607 259.611L278.9 356.327C295.879 311.429 304.525 282.031 304.431 269.27C304.431 240.439 283.051 228.27 258.15 242.671C234.066 256.631 215.327 289.109 215.484 316.589C215.484 333.284 230.041 358.09 243.121 377.081L190.3 407.515C188.005 408.867 187.973 412.169 190.3 413.521L243.561 444.49L172.63 485.395C166.499 488.948 163.135 493.884 163.135 499.292V499.386L163.229 571.952C163.261 577.265 166.593 582.139 172.63 585.629L199.576 601.286C201.21 602.261 203.348 601.663 204.323 600.028C205.298 598.362 204.732 596.256 203.065 595.281L176.12 579.623C172.316 577.423 170.209 574.687 170.178 571.952L170.084 511.397C179.013 517.999 503.074 705.101 553.444 734.343C553.444 736.512 553.539 803.136 553.539 798.985L242.24 618.07C240.573 617.096 238.467 617.662 237.492 619.328C236.517 620.994 237.083 623.101 238.75 624.075C248.936 629.986 175.836 587.509 555.264 808.033C566.615 814.636 584.379 814.667 595.886 808.064C952.05 602.439 775.634 704.274 826.664 674.815C832.795 671.294 836.191 666.357 836.191 660.949L836.065 588.352C836.097 588.352 836.065 588.296 836.065 588.296ZM555.231 625.71C556.362 626.371 557.683 626.308 558.721 625.71C573.781 617.033 504.171 657.183 705.959 540.722L732.684 556.223L520.491 678.654L215.574 501.45L278.708 464.947L555.231 625.71ZM500.775 559.685L546.459 533.275L625.313 579.21C623.898 580.027 577.177 607.066 580.038 605.4C579.032 605.086 581.044 606.249 500.775 559.685ZM545.421 457.721L331.908 333.905L362.72 316.11L399.978 337.584C401.047 338.213 402.367 338.213 403.436 337.584L487.161 289.197L512.534 303.942L432.453 350.318C430.158 351.67 430.127 354.971 432.453 356.323L517.941 406.031C519.576 407.006 521.714 406.408 522.688 404.773C523.663 403.107 523.097 401.001 521.431 400.026L441.13 353.305L519.481 307.935L537.623 318.468L486.594 347.96C484.299 349.312 484.268 352.613 486.594 353.965L628.142 436.281C629.243 436.942 630.595 436.91 631.632 436.281L686.119 404.714L733.218 432.099L676.278 465.207C673.952 466.559 674.015 469.891 676.278 471.212L744.128 510.607L727.747 520.071L574.689 431.034C573.023 430.059 570.916 430.625 569.942 432.292C568.967 433.958 569.533 436.065 571.199 437.039L720.828 524.096L690.205 541.797L577.77 476.62C576.701 476.022 575.38 475.991 574.28 476.62L465.555 539.313L440.119 524.473L545.415 463.76C547.741 462.377 547.685 459.01 545.421 457.721ZM598.211 391.381C599.437 392.953 599.877 393.864 601.827 394.053C601.921 394.053 601.984 394.179 602.078 394.179C604.751 394.179 605.348 391.915 606.26 389.714C609.215 382.546 613.46 371.761 616.352 364.404L679.015 400.844L629.872 429.33L495.238 351.042L544.506 322.556L558.403 330.605C566.201 345.853 581.579 370.095 598.211 391.381ZM751.043 506.609L684.923 468.219L740.04 436.149L806.317 474.696L751.043 506.609ZM603.274 201.628C630.219 186.127 651.064 197.949 651.064 228.887C651.253 257.781 611.951 357.106 601.136 383.828C585.321 363.14 552.591 316.231 552.245 290.043C552.151 257.627 575.008 217.974 603.274 201.628ZM448.332 266.616L480.245 285.167L401.705 330.536L369.572 312.017L448.332 266.616ZM247.046 382.794C249.404 386.095 255.503 394.427 257.61 396.942C259.119 398.703 262.389 398.577 263.458 396.062C265.659 390.874 271.978 374.588 274.997 366.728L283.989 361.54L322.599 383.894L260.126 419.989L221.516 397.635L247.046 382.794ZM261.603 248.667C281.945 236.971 297.477 245.838 297.477 269.293C297.665 291.05 267.482 367.392 259.339 387.829C247.36 371.919 222.396 336.36 222.396 316.583C222.27 291.745 239.846 261.275 261.603 248.667ZM214.504 401.564L258.427 427C259.527 427.629 260.879 427.598 261.917 427L331.307 386.881C333.602 385.529 333.602 382.197 331.307 380.876L290.843 357.452L324.862 337.833L536.741 460.707L431.478 521.42C429.151 522.772 429.183 526.105 431.478 527.425L463.799 546.29C464.868 546.919 466.22 546.951 467.289 546.29L576.013 483.597L683.257 545.756L632.26 575.217L548.221 526.263C547.152 525.666 545.832 525.634 544.732 526.263L492.13 556.666C489.835 558.018 489.804 561.319 492.13 562.671L572.804 609.581L557.021 618.699L198.974 410.53L214.504 401.564ZM176.115 491.39L250.473 448.504L271.79 460.892L206.927 498.402C204.632 499.754 204.6 503.055 206.927 504.407L518.757 685.636C519.889 686.296 521.209 686.233 522.247 685.636L741.362 559.212C743.689 557.86 743.657 554.496 741.362 553.207L712.908 536.7L729.571 527.111C729.697 527.048 729.728 526.922 729.823 526.859L730.357 526.545L823.201 580.591C831.344 585.339 830.841 591.596 823.075 596.123C805.154 606.468 590.664 730.347 592.394 729.373C583.245 734.592 566.958 734.183 558.721 729.373C34.2548 424.65 215.291 529.817 176.02 506.99C172.216 504.758 170.109 502.022 170.109 499.255C170.109 496.489 172.31 493.591 176.115 491.39ZM560.514 802.906C560.514 801.523 560.42 733.422 560.42 737.76C561.363 738.106 562.4 738.263 563.375 738.514C571.298 740.747 578.75 740.967 587.553 738.546C588.591 738.263 589.691 738.106 590.697 737.729C590.697 742.979 590.791 805.169 590.791 802.875C582.083 807.025 569.16 807.025 560.514 802.906ZM823.238 668.811L597.74 799.043L597.646 734.4C780.098 629.04 827.353 601.875 829.18 600.491L829.275 660.983C829.275 663.781 827.137 666.579 823.238 668.811Z" fill="white"/>
<path d="M624.37 651.713L653.107 668.408C656 670.106 660.244 670.075 663.074 668.408L709.072 641.872C713.254 639.451 713.096 634.42 709.103 632.126L680.335 615.399C677.474 613.733 673.292 613.733 670.368 615.399L624.402 641.936C620.283 644.325 620.283 649.356 624.37 651.713ZM673.858 621.404C674.581 620.996 676.153 620.996 676.876 621.404L703.695 636.999L659.646 662.435C658.923 662.875 657.351 662.844 656.628 662.435L629.809 646.841L673.858 621.404Z" fill="white"/>
<path d="M484.868 451.594L453.679 433.484C452.044 432.51 449.906 433.075 448.931 434.742C447.956 436.408 448.522 438.515 450.189 439.489L476.191 454.581L397.682 499.887L298.737 442.508L377.089 397.076L407.146 414.526C408.781 415.5 410.919 414.903 411.894 413.268C412.869 411.602 412.303 409.495 410.636 408.52L378.85 390.064C377.781 389.436 376.46 389.436 375.36 390.064L290.09 439.521C287.794 440.841 287.794 444.206 290.09 445.526L395.917 506.899C397.048 507.559 398.369 507.496 399.406 506.899L484.829 457.599C487.156 456.247 487.163 452.946 484.868 451.594Z" fill="white"/>
<path d="M603.685 298.094C620.851 288.158 634.717 264.105 634.559 244.424C634.559 222.98 618.367 213.989 599.943 224.616C582.461 234.677 568.785 258.321 568.785 278.443C568.942 299.288 584.569 309.004 603.685 298.094ZM603.402 230.653C616.89 222.855 627.611 228.043 627.611 244.455C627.737 261.622 615.192 283.41 600.226 292.088C585.89 300.231 575.829 294.1 575.734 278.443C575.734 260.867 588.153 239.424 603.402 230.653Z" fill="white"/>
<path d="M286.221 282.156C286.221 265.209 273.361 257.412 258.112 266.121C244.373 274.107 233.62 292.752 233.62 308.535C233.62 325.355 246.574 333.216 261.854 324.444C275.31 316.71 286.221 297.72 286.221 282.156ZM240.568 308.535C240.568 295.204 250.001 278.886 261.571 272.127C271.726 266.341 279.272 270.083 279.272 282.156C279.272 295.267 269.714 311.899 258.395 318.408C248.083 324.413 240.568 320.263 240.568 308.535Z" fill="white"/>
</svg>
