<svg width="1000" height="1000" viewBox="0 0 1000 1000" fill="none" xmlns="http://www.w3.org/2000/svg">
<circle cx="500" cy="500" r="500" fill="#9D54A1"/>
<path d="M836.064 588.296C836.064 582.982 832.732 578.14 826.726 574.619L737.311 522.584C742.782 519.409 819.595 475.172 815.065 477.75C817.392 476.398 817.36 473.002 815.065 471.65L618.905 357.678C634.091 318.723 658.175 252.946 658.018 228.863C658.018 192.989 631.796 177.268 599.821 195.599C569.637 213.049 545.207 255.431 545.334 290.109C545.428 298.126 548.1 307.999 553.131 319.506C486.571 280.802 448.214 258.542 450.097 259.611C449.028 259.013 447.708 258.982 446.607 259.611L278.9 356.326C295.879 311.429 304.525 282.031 304.431 269.269C304.431 240.438 283.051 228.27 258.15 242.67C234.066 256.63 215.327 289.108 215.484 316.588C215.484 333.283 230.041 358.09 243.121 377.08L190.3 407.515C188.005 408.867 187.973 412.168 190.3 413.52L243.561 444.49L172.63 485.394C166.499 488.947 163.135 493.883 163.135 499.291V499.386L163.229 571.951C163.261 577.265 166.593 582.138 172.63 585.628L199.575 601.286C201.21 602.26 203.348 601.663 204.323 600.028C205.298 598.362 204.732 596.255 203.065 595.28L176.12 579.623C172.316 577.422 170.209 574.687 170.178 571.951L170.083 511.396C179.013 517.999 503.074 705.101 553.444 734.342C553.444 736.512 553.539 803.136 553.539 798.985L242.24 618.07C240.573 617.095 238.467 617.661 237.492 619.327C236.517 620.994 237.083 623.1 238.75 624.075C248.936 629.986 175.836 587.509 555.264 808.032C566.615 814.635 584.379 814.667 595.886 808.064C952.05 602.439 775.634 704.273 826.664 674.814C832.795 671.293 836.191 666.357 836.191 660.949L836.065 588.352C836.097 588.352 836.064 588.296 836.064 588.296ZM555.231 625.71C556.362 626.37 557.683 626.307 558.72 625.71C573.781 617.032 504.171 657.183 705.959 540.722L732.684 556.222L520.491 678.654L215.574 501.45L278.708 464.946L555.231 625.71ZM500.775 559.684L546.459 533.274L625.313 579.209C623.898 580.027 577.177 607.066 580.038 605.399C579.032 605.085 581.044 606.248 500.775 559.684ZM545.421 457.721L331.908 333.905L362.72 316.109L399.978 337.584C401.047 338.213 402.367 338.213 403.436 337.584L487.161 289.196L512.533 303.942L432.453 350.317C430.158 351.669 430.127 354.97 432.453 356.322L517.941 406.031C519.576 407.005 521.714 406.408 522.688 404.773C523.663 403.107 523.097 401 521.431 400.025L441.13 353.304L519.481 307.935L537.623 318.468L486.594 347.96C484.299 349.312 484.268 352.613 486.594 353.965L628.142 436.281C629.243 436.941 630.595 436.91 631.632 436.281L686.119 404.714L733.218 432.099L676.278 465.206C673.952 466.558 674.015 469.891 676.278 471.211L744.128 510.607L727.747 520.071L574.689 431.034C573.023 430.059 570.916 430.625 569.942 432.291C568.967 433.958 569.533 436.064 571.199 437.039L720.828 524.096L690.205 541.797L577.77 476.619C576.701 476.022 575.38 475.99 574.28 476.619L465.555 539.313L440.119 524.472L545.415 463.76C547.741 462.376 547.685 459.01 545.421 457.721ZM598.211 391.38C599.437 392.952 599.877 393.864 601.827 394.053C601.921 394.053 601.984 394.178 602.078 394.178C604.751 394.178 605.348 391.915 606.26 389.714C609.215 382.545 613.46 371.761 616.352 364.404L679.014 400.844L629.872 429.33L495.238 351.041L544.506 322.555L558.403 330.604C566.201 345.853 581.579 370.094 598.211 391.38ZM751.043 506.608L684.923 468.219L740.04 436.149L806.317 474.696L751.043 506.608ZM603.274 201.627C630.219 186.127 651.064 197.949 651.064 228.887C651.253 257.781 611.951 357.106 601.136 383.828C585.321 363.14 552.591 316.23 552.245 290.042C552.151 257.627 575.008 217.974 603.274 201.627ZM448.332 266.616L480.245 285.166L401.705 330.535L369.572 312.016L448.332 266.616ZM247.046 382.794C249.404 386.095 255.503 394.427 257.61 396.942C259.119 398.703 262.389 398.577 263.458 396.062C265.659 390.874 271.978 374.587 274.997 366.727L283.989 361.54L322.599 383.894L260.126 419.988L221.516 397.634L247.046 382.794ZM261.603 248.667C281.945 236.971 297.477 245.837 297.477 269.292C297.665 291.049 267.482 367.392 259.339 387.828C247.36 371.919 222.396 336.36 222.396 316.583C222.27 291.744 239.846 261.275 261.603 248.667ZM214.504 401.564L258.427 427C259.527 427.629 260.879 427.597 261.917 427L331.307 386.881C333.602 385.529 333.602 382.196 331.307 380.876L290.843 357.452L324.862 337.833L536.741 460.707L431.478 521.42C429.151 522.772 429.183 526.104 431.478 527.425L463.799 546.29C464.868 546.919 466.22 546.95 467.289 546.29L576.013 483.596L683.257 545.755L632.26 575.216L548.221 526.263C547.152 525.665 545.832 525.634 544.731 526.263L492.13 556.666C489.835 558.018 489.804 561.319 492.13 562.671L572.804 609.581L557.021 618.699L198.974 410.53L214.504 401.564ZM176.115 491.389L250.473 448.504L271.79 460.892L206.927 498.401C204.631 499.753 204.6 503.055 206.927 504.407L518.757 685.636C519.889 686.296 521.209 686.233 522.247 685.636L741.362 559.212C743.689 557.86 743.657 554.495 741.362 553.206L712.907 536.7L729.571 527.11C729.697 527.047 729.728 526.922 729.823 526.859L730.357 526.544L823.201 580.591C831.344 585.339 830.841 591.595 823.075 596.123C805.154 606.467 590.664 730.346 592.394 729.372C583.245 734.592 566.958 734.183 558.721 729.372C34.2547 424.649 215.29 529.816 176.02 506.99C172.216 504.757 170.109 502.022 170.109 499.255C170.109 496.488 172.31 493.59 176.115 491.389ZM560.514 802.906C560.514 801.522 560.419 733.421 560.419 737.759C561.363 738.105 562.4 738.262 563.375 738.514C571.298 740.746 578.75 740.966 587.553 738.545C588.591 738.262 589.691 738.105 590.697 737.728C590.697 742.979 590.791 805.169 590.791 802.874C582.083 807.024 569.16 807.024 560.514 802.906ZM823.238 668.811L597.74 799.042L597.646 734.4C780.098 629.04 827.353 601.875 829.18 600.49L829.274 660.983C829.274 663.781 827.136 666.579 823.238 668.811Z" fill="white"/>
<path d="M624.37 651.712L653.107 668.407C656 670.105 660.244 670.074 663.074 668.407L709.072 641.871C713.254 639.45 713.096 634.419 709.103 632.125L680.335 615.398C677.474 613.732 673.292 613.732 670.368 615.398L624.402 641.935C620.283 644.324 620.283 649.355 624.37 651.712ZM673.858 621.403C674.581 620.995 676.153 620.995 676.876 621.403L703.695 636.998L659.646 662.434C658.923 662.874 657.351 662.843 656.628 662.434L629.809 646.84L673.858 621.403Z" fill="white"/>
<path d="M484.868 451.593L453.679 433.483C452.044 432.509 449.906 433.074 448.931 434.741C447.956 436.407 448.522 438.514 450.189 439.488L476.191 454.58L397.683 499.886L298.738 442.507L377.089 397.075L407.147 414.525C408.781 415.499 410.919 414.902 411.894 413.267C412.869 411.601 412.303 409.494 410.636 408.52L378.85 390.063C377.781 389.435 376.46 389.435 375.36 390.063L290.09 439.52C287.795 440.84 287.795 444.205 290.09 445.525L395.917 506.898C397.049 507.558 398.369 507.495 399.407 506.898L484.83 457.598C487.156 456.246 487.163 452.945 484.868 451.593Z" fill="white"/>
<path d="M603.685 298.093C620.851 288.157 634.717 264.105 634.559 244.423C634.559 222.98 618.367 213.989 599.943 224.616C582.461 234.677 568.785 258.32 568.785 278.442C568.942 299.288 584.569 309.003 603.685 298.093ZM603.402 230.652C616.89 222.855 627.611 228.043 627.611 244.454C627.737 261.621 615.192 283.409 600.226 292.088C585.89 300.231 575.829 294.1 575.734 278.442C575.734 260.867 588.153 239.424 603.402 230.652Z" fill="white"/>
<path d="M286.221 282.156C286.221 265.209 273.361 257.412 258.112 266.121C244.373 274.107 233.62 292.752 233.62 308.535C233.62 325.355 246.574 333.216 261.854 324.444C275.31 316.71 286.221 297.72 286.221 282.156ZM240.568 308.535C240.568 295.204 250.001 278.886 261.571 272.127C271.726 266.341 279.272 270.083 279.272 282.156C279.272 295.267 269.714 311.899 258.395 318.408C248.083 324.413 240.568 320.263 240.568 308.535Z" fill="white"/>
</svg>
