<svg width="150" height="150" viewBox="0 0 150 150" fill="none" xmlns="http://www.w3.org/2000/svg">
<path d="M18.2394 145.002H5V47.6836H36.5859" stroke="#663366" stroke-width="4.22535" stroke-miterlimit="10" stroke-linecap="round" stroke-linejoin="round"/>
<path d="M135.546 47.6836H144.999V145.002H28.0977" stroke="#663366" stroke-width="4.22535" stroke-miterlimit="10" stroke-linecap="round" stroke-linejoin="round"/>
<path d="M125.687 47.6836H113.414" stroke="#663366" stroke-width="4.22535" stroke-miterlimit="10" stroke-linecap="round" stroke-linejoin="round"/>
<path d="M45.123 22.0742H104.879" stroke="#663366" stroke-width="4.22535" stroke-miterlimit="10" stroke-linecap="round" stroke-linejoin="round"/>
<path d="M45.123 30.6094H104.879" stroke="#663366" stroke-width="4.22535" stroke-miterlimit="10" stroke-linecap="round" stroke-linejoin="round"/>
<path d="M45.123 39.1484H104.879" stroke="#663366" stroke-width="4.22535" stroke-miterlimit="10" stroke-linecap="round" stroke-linejoin="round"/>
<path d="M45.123 47.6836H104.879" stroke="#663366" stroke-width="4.22535" stroke-miterlimit="10" stroke-linecap="round" stroke-linejoin="round"/>
<path d="M87.7344 13.5352V47.6814" stroke="#663366" stroke-width="4.22535" stroke-miterlimit="10" stroke-linecap="round" stroke-linejoin="round"/>
<path d="M96.4121 13.5352V47.6814" stroke="#663366" stroke-width="4.22535" stroke-miterlimit="10" stroke-linecap="round" stroke-linejoin="round"/>
<path d="M79.1973 13.5352V47.6814" stroke="#663366" stroke-width="4.22535" stroke-miterlimit="10" stroke-linecap="round" stroke-linejoin="round"/>
<path d="M70.6602 13.5352V47.6814" stroke="#663366" stroke-width="4.22535" stroke-miterlimit="10" stroke-linecap="round" stroke-linejoin="round"/>
<path d="M62.123 13.5352V47.6814" stroke="#663366" stroke-width="4.22535" stroke-miterlimit="10" stroke-linecap="round" stroke-linejoin="round"/>
<path d="M53.5879 13.5352V47.6814" stroke="#663366" stroke-width="4.22535" stroke-miterlimit="10" stroke-linecap="round" stroke-linejoin="round"/>
<path d="M65.3465 5H109.431C111.631 5 113.414 6.7831 113.414 8.9831V59.0648H104.879V13.5352H45.1211V59.0648H36.5859V8.9831C36.5859 6.7831 38.369 5 40.569 5H55.4873" stroke="#663366" stroke-width="4.22535" stroke-miterlimit="10" stroke-linecap="round" stroke-linejoin="round"/>
<path d="M5 59.0664H145" stroke="#663366" stroke-width="4.22535" stroke-miterlimit="10" stroke-linecap="round" stroke-linejoin="round"/>
<path d="M144.716 131.719H96.168" stroke="#663366" stroke-width="4.22535" stroke-miterlimit="10" stroke-linecap="round" stroke-linejoin="round"/>
<path d="M53.8328 131.719H5.28516" stroke="#663366" stroke-width="4.22535" stroke-miterlimit="10" stroke-linecap="round" stroke-linejoin="round"/>
<path d="M127.358 59.0664H22.6426V98.9039H127.358V59.0664Z" stroke="#663366" stroke-width="4.22535" stroke-miterlimit="10" stroke-linecap="round" stroke-linejoin="round"/>
<path d="M82.3933 124.247V119.653C82.3933 118.433 81.7426 117.306 80.686 116.696L76.7077 114.399C75.6511 113.789 74.3497 113.789 73.2931 114.399L69.3147 116.696C68.2581 117.306 67.6074 118.433 67.6074 119.653V124.247C67.6074 125.467 68.2581 126.594 69.3147 127.204L73.2931 129.501C74.3497 130.111 75.6511 130.111 76.7077 129.501L80.686 127.204C81.7423 126.594 82.3933 125.466 82.3933 124.247Z" stroke="#663366" stroke-width="4.22535" stroke-miterlimit="10" stroke-linecap="round" stroke-linejoin="round"/>
<path d="M67.6074 100.121V101.199C67.6074 102.419 68.2581 103.547 69.3147 104.157L73.2931 106.453C74.3497 107.063 75.6511 107.063 76.7077 106.453L80.686 104.157C81.7426 103.547 82.3933 102.419 82.3933 101.199V100.121" stroke="#663366" stroke-width="4.22535" stroke-miterlimit="10" stroke-linecap="round" stroke-linejoin="round"/>
<path d="M52.3984 117.438L53.3322 117.977C54.3889 118.587 55.6903 118.587 56.7469 117.977L60.7252 115.68C61.7818 115.07 62.4325 113.943 62.4325 112.723V108.129C62.4325 106.909 61.7818 105.782 60.7252 105.172L59.7914 104.633" stroke="#663366" stroke-width="4.22535" stroke-miterlimit="10" stroke-linecap="round" stroke-linejoin="round"/>
<path d="M59.7914 139.27L60.7252 138.731C61.7818 138.121 62.4325 136.994 62.4325 135.774V131.18C62.4325 129.96 61.7818 128.833 60.7252 128.223L56.7469 125.926C55.6903 125.316 54.3889 125.316 53.3322 125.926L52.3984 126.465" stroke="#663366" stroke-width="4.22535" stroke-miterlimit="10" stroke-linecap="round" stroke-linejoin="round"/>
<path d="M82.3933 143.782V142.704C82.3933 141.484 81.7426 140.356 80.686 139.746L76.7077 137.45C75.6511 136.84 74.3497 136.84 73.2931 137.45L69.3147 139.746C68.2581 140.356 67.6074 141.484 67.6074 142.704V143.782" stroke="#663366" stroke-width="4.22535" stroke-miterlimit="10" stroke-linecap="round" stroke-linejoin="round"/>
<path d="M97.6024 126.465L96.6686 125.926C95.612 125.316 94.3106 125.316 93.254 125.926L89.2757 128.223C88.2191 128.833 87.5684 129.96 87.5684 131.18V135.774C87.5684 136.994 88.2191 138.121 89.2757 138.731L90.2095 139.27" stroke="#663366" stroke-width="4.22535" stroke-miterlimit="10" stroke-linecap="round" stroke-linejoin="round"/>
<path d="M90.2095 104.633L89.2757 105.172C88.2191 105.782 87.5684 106.909 87.5684 108.129V112.723C87.5684 113.943 88.2191 115.07 89.2757 115.68L93.254 117.977C94.3106 118.587 95.612 118.587 96.6686 117.977L97.6024 117.438" stroke="#663366" stroke-width="4.22535" stroke-miterlimit="10" stroke-linecap="round" stroke-linejoin="round"/>
<path d="M74.9999 145C87.7294 145 98.0486 134.681 98.0486 121.951C98.0486 109.222 87.7294 98.9023 74.9999 98.9023C62.2704 98.9023 51.9512 109.222 51.9512 121.951C51.9512 134.681 62.2704 145 74.9999 145Z" stroke="#663366" stroke-width="4.22535" stroke-miterlimit="10" stroke-linecap="round" stroke-linejoin="round"/>
<path d="M75 106.91V113.942" stroke="#663366" stroke-width="4.22535" stroke-miterlimit="10" stroke-linecap="round" stroke-linejoin="round"/>
<path d="M61.9746 114.43L68.0645 117.946" stroke="#663366" stroke-width="4.22535" stroke-miterlimit="10" stroke-linecap="round" stroke-linejoin="round"/>
<path d="M61.9746 129.473L68.0645 125.957" stroke="#663366" stroke-width="4.22535" stroke-miterlimit="10" stroke-linecap="round" stroke-linejoin="round"/>
<path d="M75 136.993V129.961" stroke="#663366" stroke-width="4.22535" stroke-miterlimit="10" stroke-linecap="round" stroke-linejoin="round"/>
<path d="M88.0254 129.473L81.9355 125.957" stroke="#663366" stroke-width="4.22535" stroke-miterlimit="10" stroke-linecap="round" stroke-linejoin="round"/>
<path d="M88.0254 114.43L81.9355 117.946" stroke="#663366" stroke-width="4.22535" stroke-miterlimit="10" stroke-linecap="round" stroke-linejoin="round"/>
<path d="M135.041 107.426L133.618 109.89L132.195 107.426" stroke="#663366" stroke-width="4.22535" stroke-miterlimit="10" stroke-linecap="round" stroke-linejoin="round"/>
<path d="M36.9589 107.426L35.5361 109.89L34.1133 107.426" stroke="#663366" stroke-width="4.22535" stroke-miterlimit="10" stroke-linecap="round" stroke-linejoin="round"/>
<path d="M115.654 117.203L114.231 119.667L112.809 117.203" stroke="#663366" stroke-width="4.22535" stroke-miterlimit="10" stroke-linecap="round" stroke-linejoin="round"/>
<path d="M16.6659 114.957L15.2431 117.421L13.8203 114.957" stroke="#663366" stroke-width="4.22535" stroke-miterlimit="10" stroke-linecap="round" stroke-linejoin="round"/>
</svg>
