<?xml version="1.0" encoding="utf-8"?>
<!-- Generator: Adobe Illustrator 24.2.1, SVG Export Plug-In . SVG Version: 6.00 Build 0)  -->
<svg version="1.1" id="Layer_1" xmlns="http://www.w3.org/2000/svg" xmlns:xlink="http://www.w3.org/1999/xlink" x="0px" y="0px"
	 viewBox="0 0 300 300" style="enable-background:new 0 0 300 300;" xml:space="preserve">
<style type="text/css">
	.st0{display:none;fill-rule:evenodd;clip-rule:evenodd;fill:#663366;}
	.st1{fill:#663366;}
</style>
<path class="st0" d="M84,59.6c-18.9,6.7-33.7,24.7-44.4,54.2c-10.8,29.6-17.4,70.6-19.8,123l33.9,7.4c4.3-23.8,7.7-42.6,10.4-56.2
	c2.6-13.5,4.5-22.8,5.7-27.6c-1.3-22.6-3.4-44.5-6.4-65.6v0c-0.2-1.7,1-3.3,2.7-3.5s3.3,0.9,3.5,2.7c2.9,20.9,5.1,42.5,6.4,64.9v0
	c0.3,0.6,0.3,1.3,0.2,2l0,0.1c0.3,5.5,0.6,11.1,0.8,16.7c1.1,28.1,0.9,57.4-0.5,87.8l41.7-1.9L111,108.3c0-0.2,0-0.4,0-0.5
	c0.1-0.8,0.4-1.6,1.1-2.1c0.6-0.5,1.4-0.8,2.3-0.8c2,0.1,4,0.3,5.9,0.4c-3.6-2.7-6.6-6.1-8.9-10c-4-6.9-5.5-15-4.3-22.9
	c0.2-1.2,0.4-2.4,0.7-3.6c-7.9-1.2-15.4-3.8-22.3-7.8C85,60.4,84.4,60,84,59.6L84,59.6z M153.8,221.4c8.3,0,15.5,5.9,17.2,14.1
	c1.6,8.2-2.7,16.4-10.4,19.6c-7.7,3.2-16.6,0.5-21.2-6.4c-4.6-6.9-3.7-16.2,2.2-22.1C144.7,223.3,149.2,221.4,153.8,221.4
	L153.8,221.4z M161.8,231c-3.8-3.8-9.7-4.4-14.2-1.4c-4.4,3-6.2,8.7-4.1,13.6c2,4.9,7.3,7.7,12.6,6.7c5.2-1,9-5.6,9-11
	C165,235.9,163.9,233.1,161.8,231L161.8,231z M151.1,170.4c8.3,0,15.5,5.9,17.1,14.1c1.6,8.2-2.8,16.4-10.5,19.5
	c-7.7,3.2-16.6,0.5-21.2-6.4c-4.6-6.9-3.7-16.2,2.2-22.1C142,172.2,146.5,170.4,151.1,170.4L151.1,170.4z M159,179.9L159,179.9
	c-3.8-3.8-9.7-4.4-14.2-1.4c-4.4,3-6.2,8.7-4.1,13.6c2.1,4.9,7.3,7.7,12.6,6.7c5.3-1,9-5.6,9-11C162.3,184.9,161.1,182,159,179.9
	L159,179.9z M149.8,122.7c8.3,0,15.5,5.9,17.1,14.1c1.6,8.2-2.8,16.4-10.5,19.5c-7.7,3.2-16.6,0.5-21.2-6.4
	c-4.6-6.9-3.7-16.2,2.2-22.1C140.7,124.5,145.1,122.7,149.8,122.7L149.8,122.7z M157.7,132.2c-3.8-3.8-9.7-4.4-14.1-1.4
	c-4.4,3-6.2,8.7-4.1,13.6c2.1,4.9,7.3,7.7,12.5,6.7c5.2-1,9-5.6,9-11C161,137.2,159.8,134.3,157.7,132.2L157.7,132.2z M73.1,271.9
	c-0.2,0-0.4,0-0.6,0h-0.1c-1.6-0.2-2.7-1.6-2.6-3.2c1.4-28.6,1.7-56.2,0.9-82.8c-0.2,1.1-0.4,2.2-0.6,3.3
	c-2.9,15-6.5,34.7-10.9,59.1v0c0,0.1,0,0.3-0.1,0.4c-0.4,1.7-2,2.8-3.7,2.4l-39.6-8.7c-1.5-0.3-2.5-1.7-2.5-3.2
	c2.4-54.2,9.1-96.7,20.3-127.4c11.1-30.4,26.5-49.5,46.4-57.3c-0.3-0.7-0.5-1.5-0.6-2.3c-0.3-3.7,1-7.4,3.5-10.2
	c4.2-5.4,12.6-11.5,25.1-18.2c0.3-0.2,0.6-0.3,0.9-0.4c0.3-0.1,0.7-0.1,1-0.1l70.5-0.8c0.7,0,1.4,0.2,2,0.6c0.3,0.2,0.5,0.5,0.8,0.8
	l19.5,28c0.4,0.3,0.6,0.7,0.8,1.2l0.4,0.6c18.7,12.5,35,34.7,48.7,66.5c13.7,31.8,25.1,73.3,33.9,124.5c0.1,0.8,0,1.7-0.5,2.3
	c-0.5,0.7-1.2,1.1-2,1.3c-0.1,0-0.2,0-0.3,0l-41.5,5.3c-1.4,0.2-2.7-0.6-3.3-1.9c-9.1-22-16.6-42.1-22.5-60.2l1.6,80.4v0
	c0,1.7-1.3,3.2-3,3.2l-29.5,0.8c-1.7,0-3.1-1.3-3.1-3c0-1.7,1.3-3.1,3-3.2l26.3-0.7l-2-99.9c-2.3-8.6-4.2-16.6-5.6-24.1
	c-5.4-28.6-4.2-49.6,3.5-62.9c0.9-1.5,2.8-2,4.3-1.2c1.5,0.9,2,2.8,1.1,4.3c-7,12-7.9,31.6-2.8,58.7c5.1,27.1,16.3,61.6,33.5,103.3
	l36.1-4.6c-8.7-49.3-19.7-89.2-33-119.9c-12.5-28.9-27-49.4-43.4-61.6c-0.7,5.6-3.6,10.7-8,14.2c-5.5,4.5-13.7,7.3-24.6,8.4
	c3.9,10.4,1.2,17.9-8.1,22.8c-5.9,3-14.6,4.8-26.3,5.2l0,0c-0.2,0-0.4,0-0.6,0c-5.6,0.2-11.8,0.1-18.6-0.3l6.9,155.2v0l0.2,4.8
	l41.6-1.1l0,0c1.7,0,3.1,1.4,3.1,3c0,1.7-1.3,3.1-3,3.2l-44.5,1.2h-0.1c-0.8,0-1.6-0.3-2.3-0.8c-0.6-0.6-1-1.3-1-2.2l-0.2-4.7
	L73.1,271.9L73.1,271.9z M113.8,29.4l60.6-0.7c-13.3,18.6-24.6,34.4-33.2,46.6v0c-6.3-5.6-11.8-12.2-16.1-19.5
	C120.3,47.5,116.5,38.7,113.8,29.4L113.8,29.4z M137.6,80.5c-6.7,9.5-11.5,16.2-13.9,19.6v0c-2.8-2.2-5.2-4.9-7-8
	c-3.3-5.7-4.5-12.4-3.5-18.9c0.3-1.9,0.7-3.8,1.4-5.7c0.4-0.9,0.3-1.9-0.1-2.7c-0.5-0.8-1.3-1.4-2.2-1.6c-11.2-2-18.9-4.5-23.2-7.5
	v0c-1.7-0.9-2.9-2.5-3.4-4.4c0-2.1,0.8-4.1,2.2-5.6c3.4-4.3,10-9.2,19.9-14.8h0c2.8,9.8,6.9,19.2,12,28
	C124.6,67.1,130.6,74.3,137.6,80.5L137.6,80.5z M180.6,31c-27.6,38.6-45.7,64-51.5,72.3c0.7,0.3,1.4,0.6,2.2,0.9
	c1.7,0.6,3.4,1,5.2,1.3c10.6-0.4,18.4-1.9,23.5-4.6c6.8-3.5,8-9.7,3.6-18.4c-0.5-0.9-0.6-2.1-0.1-3.1c0.5-1,1.5-1.6,2.6-1.6
	c1.2-0.1,2.2-0.1,3.1-0.2c10.2-0.9,17.7-3.3,22.4-7.2c4.4-3.6,6.6-9.3,6-14.9L180.6,31z"/>
<g>
	<path class="st1" d="M138.4,134.7H94.8c-2.2,0-4.1-0.9-5.3-2.5c-1.2-1.6-1.5-3.7-0.9-5.7l8.3-29c1.1-3.8,5-6.8,9-6.8h32.5
		c4.2,0,7.7,3.5,7.7,7.7V127C146,131.3,142.6,134.7,138.4,134.7z M105.9,95.8c-1.7,0-3.6,1.5-4.1,3.1l-8.3,29
		c-0.2,0.5-0.1,1,0.1,1.2c0.2,0.3,0.6,0.4,1.2,0.4h43.6c1.4,0,2.6-1.1,2.6-2.6V98.4c0-1.4-1.1-2.6-2.6-2.6
		C138.4,95.8,105.9,95.8,105.9,95.8z"/>
	<path class="st1" d="M210.7,134.7h-51.3c-4.2,0-7.7-3.5-7.7-7.7V98.4c0-4.2,3.5-7.7,7.7-7.7h40.2c4,0,7.9,3,9,6.8l8.3,29
		c0.6,2.1,0.3,4.2-0.9,5.7C214.7,133.8,212.8,134.7,210.7,134.7z M159.4,95.8c-1.4,0-2.6,1.2-2.6,2.6V127c0,1.4,1.1,2.6,2.6,2.6
		h51.3c0.5,0,1-0.2,1.2-0.4c0.2-0.3,0.2-0.7,0.1-1.2l-8.3-29c-0.5-1.6-2.4-3.1-4.1-3.1H159.4z"/>
	<path class="st1" d="M102.7,205.5c-8.9,0-16.1-7.2-16.1-16.1c0-8.9,7.2-16.1,16.1-16.1c8.9,0,16.1,7.2,16.1,16.1
		C118.8,198.3,111.6,205.5,102.7,205.5z M102.7,178.4c-6.1,0-11,4.9-11,11c0,6.1,4.9,11,11,11s11-4.9,11-11
		C113.7,183.3,108.7,178.4,102.7,178.4z"/>
	<path class="st1" d="M237,205.5c-8.9,0-16.1-7.2-16.1-16.1c0-8.9,7.2-16.1,16.1-16.1c8.9,0,16.1,7.2,16.1,16.1
		C253.1,198.3,245.9,205.5,237,205.5z M237,178.4c-6.1,0-11,4.9-11,11c0,6.1,4.9,11,11,11c6.1,0,11-4.9,11-11
		C248,183.3,243.1,178.4,237,178.4z"/>
	<path class="st1" d="M237,218.7c-12.5,0-23.3-7.9-27.4-19h-79.5c-4.2,11.1-14.9,19-27.4,19s-23.2-7.9-27.4-19H62.7
		c-3.5,0-6.4-2.9-6.4-6.4v-8.1c0-3.5,2.2-6.3,5-6.4c0.2-0.2,0.4-0.6,0.5-1.4c0-0.5,0.5-12.1,2.7-23.9c3-15.6,7.5-23.9,13.9-25.4
		l7.7-31.7c0.1-0.2,0-0.4,0-0.4c0-0.1-0.2-0.1-0.4-0.1h-1.5c-3.5,0-6.4-2.9-6.4-6.4v-1.7c0-3.5,2.9-6.4,6.4-6.4H208
		c3.2,0,6.5,2.2,7.6,5.2l13.6,34.3c0.4,1,1.7,1.9,2.8,1.9c0.9,0,22.5-0.4,37.9,14.7c9.4,9.2,14.5,22.1,14.9,38.3
		c3.5,0,6.4,2.9,6.4,6.4v11.1c0,3.5-2.9,6.4-6.4,6.4h-20.5C260.3,210.8,249.5,218.7,237,218.7z M237,165.3
		c-13.3,0-24.1,10.8-24.1,24.1c0,13.3,10.8,24.1,24.1,24.1c13.3,0,24.1-10.8,24.1-24.1S250.3,165.3,237,165.3z M102.7,165.3
		c-13.3,0-24.1,10.8-24.1,24.1c0,13.3,10.8,24.1,24.1,24.1s24.1-10.8,24.1-24.1C126.8,176.1,116,165.3,102.7,165.3z M265.8,194.5
		h19.1c0.7,0,1.3-0.6,1.3-1.3v-11.1c0-0.7-0.6-1.3-1.3-1.3h-2.5c-1.4,0-2.6-1.1-2.6-2.6c0-16-4.5-28.5-13.4-37.2
		c-14-13.6-34-13.3-34.2-13.3c-3.3,0-6.5-2.1-7.7-5.1l-13.6-34.3c-0.4-1-1.8-2-2.9-2H84.1c-0.7,0-1.3,0.6-1.3,1.3v1.7
		c0,0.7,0.6,1.3,1.3,1.3h1.5c1.8,0,3.4,0.8,4.5,2.1c1,1.3,1.4,3.1,1,4.8l-8.1,33.4c-0.3,1.1-1.3,2-2.5,2c-8.2,0-12.8,26-13.5,44.5
		c-0.1,3.4-2.4,6.2-5.1,6.3c-0.1,0.2-0.4,0.6-0.4,1.3v8.1c0,0.7,0.6,1.3,1.3,1.3h11.1c-0.3-1.7-0.4-3.4-0.4-5.1
		c0-16.1,13.1-29.3,29.3-29.3c16.1,0,29.3,13.1,29.3,29.3c0,1.8-0.2,3.5-0.4,5.1h76.7c-0.3-1.7-0.4-3.4-0.4-5.1
		c0-16.1,13.1-29.3,29.3-29.3c16.1,0,29.3,13.1,29.3,29.3C266.3,191.2,266.1,192.9,265.8,194.5z"/>
	<path class="st1" d="M46.7,165.9H21.5c-1.4,0-2.6-1.1-2.6-2.6c0-1.4,1.1-2.6,2.6-2.6h25.2c1.4,0,2.6,1.1,2.6,2.6
		C49.3,164.8,48.1,165.9,46.7,165.9z"/>
	<path class="st1" d="M36.5,181.7H11.3c-1.4,0-2.6-1.1-2.6-2.6c0-1.4,1.1-2.6,2.6-2.6h25.2c1.4,0,2.6,1.1,2.6,2.6
		C39,180.6,37.9,181.7,36.5,181.7z"/>
	<path class="st1" d="M46.7,197.5H21.5c-1.4,0-2.6-1.1-2.6-2.6c0-1.4,1.1-2.6,2.6-2.6h25.2c1.4,0,2.6,1.1,2.6,2.6
		C49.3,196.4,48.1,197.5,46.7,197.5z"/>
</g>
</svg>
