<svg width="200" height="200" viewBox="0 0 200 200" fill="none" xmlns="http://www.w3.org/2000/svg">
<g clip-path="url(#clip0_46_136)">
<path fill-rule="evenodd" clip-rule="evenodd" d="M48.7114 109.173H151.288V6.5117H48.7114V109.173ZM153.042 112.684H46.9577C45.9886 112.684 45.2031 111.898 45.2031 110.928V4.75585C45.2031 3.78652 45.9886 3.00013 46.9577 3.00013L153.042 3C154.011 3 154.797 3.78652 154.797 4.75585V110.928C154.797 111.898 154.011 112.684 153.042 112.684Z" fill="black"/>
<path fill-rule="evenodd" clip-rule="evenodd" d="M60.37 97.5043H139.631V18.1799H60.37V97.5043ZM141.386 101.016H58.6156C57.6471 101.016 56.8613 100.229 56.8613 99.2599V16.4242C56.8613 15.4547 57.6471 14.6685 58.6156 14.6685H141.386C142.354 14.6685 143.139 15.4548 143.139 16.4242L143.14 99.2597C143.14 100.229 142.354 101.016 141.386 101.016Z" fill="black"/>
<path fill-rule="evenodd" clip-rule="evenodd" d="M93.5901 87.9115C92.9661 87.9115 92.3621 87.5778 92.0451 86.988L77.4766 59.9887L59.9069 79.119C59.2518 79.8369 58.1416 79.8828 57.4285 79.2241C56.7153 78.5703 56.6684 77.4593 57.3238 76.7461L76.5591 55.7958C76.9425 55.38 77.5057 55.1743 78.0675 55.2427C78.6305 55.3159 79.1248 55.6543 79.3943 56.1526L95.1319 85.319C95.5925 86.1742 95.2744 87.2393 94.4221 87.7012C94.1571 87.8429 93.8715 87.9115 93.5901 87.9115Z" fill="black"/>
<path fill-rule="evenodd" clip-rule="evenodd" d="M85.2181 72.3979C84.9367 72.3979 84.6509 72.3295 84.3856 72.1876C83.5336 71.7259 83.2156 70.6604 83.6757 69.8054L96.7092 45.6502C96.9782 45.1518 97.4726 44.8136 98.0354 44.7449C98.5974 44.6764 99.1601 44.8821 99.5443 45.2981L118.571 66.0151C119.226 66.7329 119.18 67.844 118.467 68.4978C117.753 69.1517 116.643 69.106 115.988 68.3925L98.6266 49.4864L86.7631 71.4743C86.446 72.0642 85.8416 72.398 85.2181 72.3979Z" fill="black"/>
<path fill-rule="evenodd" clip-rule="evenodd" d="M110.2 82.077C109.919 82.077 109.634 82.0086 109.368 81.8669C108.516 81.405 108.198 80.3399 108.658 79.4847L121.692 55.3293C121.961 54.831 122.455 54.4927 123.018 54.4242C123.58 54.3554 124.142 54.5612 124.527 54.9774L142.677 74.7432C143.333 75.4565 143.285 76.5676 142.572 77.2215C141.859 77.8799 140.749 77.8341 140.093 77.1164L123.609 59.1656L111.746 81.1536C111.428 81.7433 110.824 82.077 110.2 82.077Z" fill="black"/>
<path fill-rule="evenodd" clip-rule="evenodd" d="M108.626 32.6787C106.63 32.6787 105.007 34.3018 105.007 36.3C105.007 38.2978 106.63 39.9211 108.626 39.9211L127.267 39.921C129.262 39.921 130.886 38.298 130.886 36.3C130.886 34.8961 130.062 33.6022 128.788 33.0125C127.976 32.6329 127.578 31.7048 127.865 30.859C127.99 30.484 128.054 30.0954 128.054 29.6976C128.054 27.6993 126.431 26.0762 124.435 26.0762C122.939 26.0762 121.579 27.0136 121.049 28.4127C120.79 29.094 120.138 29.5466 119.408 29.5466C118.679 29.5466 118.026 29.094 117.768 28.4127C117.238 27.0136 115.878 26.0717 114.382 26.0717C112.387 26.0716 110.763 27.6994 110.763 29.6976C110.763 29.9811 110.796 30.2644 110.862 30.5388C110.994 31.092 110.851 31.6727 110.479 32.1025C110.106 32.5278 109.55 32.7518 108.986 32.6969C108.868 32.6833 108.747 32.6787 108.626 32.6787ZM127.267 43.4327H108.626C104.696 43.4327 101.498 40.2321 101.498 36.3C101.498 32.834 103.983 29.9353 107.265 29.2951C107.473 25.546 110.586 22.5603 114.382 22.5603C116.295 22.5603 118.096 23.342 119.409 24.6453C120.722 23.342 122.523 22.5647 124.435 22.5647C128.365 22.5647 131.563 25.7655 131.563 29.6976C131.563 29.9901 131.545 30.2829 131.509 30.5709C133.296 31.9013 134.394 34.023 134.394 36.3C134.394 40.2321 131.197 43.4327 127.267 43.4327Z" fill="black"/>
<path fill-rule="evenodd" clip-rule="evenodd" d="M79.6002 31.3254C76.0678 31.3254 73.1941 34.2015 73.1941 37.7358C73.1942 41.2701 76.0678 44.1461 79.6002 44.1461C83.1321 44.1461 86.0061 41.2701 86.0061 37.7358C86.0062 34.2014 83.1321 31.3254 79.6002 31.3254ZM79.6002 47.6576C74.1335 47.6576 69.6855 43.2089 69.6855 37.7358C69.6855 32.2628 74.1335 27.814 79.6002 27.814C85.067 27.8138 89.5148 32.2628 89.5148 37.7358C89.5148 43.2088 85.0668 47.6576 79.6002 47.6576Z" fill="black"/>
<path fill-rule="evenodd" clip-rule="evenodd" d="M8.54712 183.029C7.57832 183.029 6.79297 182.242 6.79297 181.273V92.8865C6.79297 91.917 7.57832 91.1306 8.54712 91.1306C9.51591 91.1305 10.3014 91.917 10.3014 92.8865V181.273C10.3014 182.242 9.51591 183.029 8.54712 183.029ZM21.0892 183.029C20.1204 183.029 19.3349 182.242 19.3349 181.273V92.8865C19.3349 91.917 20.1204 91.1306 21.0892 91.1306C22.058 91.1305 22.8435 91.917 22.8435 92.8865V181.273C22.8435 182.242 22.058 183.029 21.0892 183.029Z" fill="black"/>
<path fill-rule="evenodd" clip-rule="evenodd" d="M3.50856 194.162H26.1293V183.029H3.50856V194.162ZM27.8836 197.674H1.75428C0.785487 197.674 0 196.887 0 195.918V181.273C0 180.303 0.785487 179.517 1.75428 179.517H27.8836C28.8524 179.517 29.6378 180.303 29.6378 181.273V195.918C29.6378 196.887 28.8524 197.674 27.8836 197.674Z" fill="black"/>
<path fill-rule="evenodd" clip-rule="evenodd" d="M14.8192 75.8132C10.0234 75.8132 6.12172 79.718 6.12172 84.5143C6.12172 89.3153 10.0234 93.2199 14.8192 93.2199C19.6149 93.2199 23.5166 89.3153 23.5166 84.5143C23.5166 79.718 19.6149 75.8132 14.8192 75.8132ZM14.8192 96.7313C8.08883 96.7313 2.61328 91.2538 2.61328 84.5143C2.61328 77.7793 8.08883 72.3018 14.8192 72.3018C21.5495 72.3018 27.0251 77.7794 27.0251 84.5143C27.0251 91.2538 21.5495 96.7313 14.8192 96.7313Z" fill="black"/>
<path fill-rule="evenodd" clip-rule="evenodd" d="M178.913 183.029C177.944 183.029 177.158 182.242 177.158 181.273V92.8865C177.158 91.917 177.944 91.1306 178.912 91.1306C179.881 91.1305 180.667 91.917 180.667 92.8865V181.273C180.667 182.242 179.881 183.029 178.913 183.029ZM191.455 183.029C190.485 183.029 189.7 182.242 189.7 181.273V92.8865C189.7 91.917 190.485 91.1306 191.455 91.1306C192.423 91.1305 193.209 91.917 193.209 92.8865V181.273C193.209 182.242 192.423 183.029 191.455 183.029Z" fill="black"/>
<path fill-rule="evenodd" clip-rule="evenodd" d="M173.87 194.162H196.491V183.029H173.87V194.162ZM198.245 197.674H172.116C171.147 197.674 170.361 196.887 170.361 195.918V181.273C170.361 180.303 171.147 179.517 172.116 179.517H198.245C199.214 179.517 199.999 180.303 199.999 181.273V195.918C199.999 196.887 199.214 197.674 198.245 197.674Z" fill="black"/>
<path fill-rule="evenodd" clip-rule="evenodd" d="M185.18 75.8132C180.385 75.8132 176.483 79.718 176.483 84.5143C176.483 89.3153 180.385 93.2199 185.18 93.2199C189.976 93.2199 193.878 89.3153 193.878 84.5143C193.878 79.718 189.976 75.8132 185.18 75.8132ZM185.18 96.7313C178.45 96.7313 172.975 91.2538 172.975 84.5143C172.975 77.7793 178.45 72.3018 185.18 72.3018C191.911 72.3018 197.386 77.7794 197.386 84.5143C197.386 91.2538 191.911 96.7313 185.18 96.7313Z" fill="black"/>
<path fill-rule="evenodd" clip-rule="evenodd" d="M100.001 143.062C76.1517 143.062 62.6069 138.773 48.2673 134.228C40.1174 131.649 31.6897 128.979 20.7526 126.83C19.802 126.643 19.1824 125.719 19.3693 124.768C19.5561 123.817 20.4788 123.195 21.4285 123.387C32.5598 125.573 41.0832 128.27 49.3258 130.881C64.0109 135.531 76.6935 139.55 100.001 139.55C123.309 139.55 135.991 135.531 150.676 130.881C158.919 128.27 167.442 125.573 178.574 123.387C179.523 123.195 180.446 123.817 180.633 124.768C180.82 125.719 180.2 126.643 179.249 126.83C168.312 128.979 159.885 131.649 151.735 134.228C137.395 138.773 123.851 143.062 100.001 143.062ZM100.001 155.613C73.8611 155.613 47.8411 150.423 20.4539 139.747C19.5511 139.395 19.1044 138.375 19.456 137.474C19.8076 136.569 20.8253 136.121 21.7273 136.473C48.7013 146.989 74.305 152.101 100.001 152.101C125.697 152.101 151.301 146.989 178.275 136.473C179.177 136.121 180.194 136.569 180.546 137.474C180.898 138.375 180.451 139.395 179.548 139.747C152.161 150.423 126.141 155.613 100.001 155.613Z" fill="black"/>
</g>
<defs>
<clipPath id="clip0_46_136">
<rect width="200" height="200" fill="white"/>
</clipPath>
</defs>
</svg>
