<svg width="150" height="150" viewBox="0 0 150 150" fill="none" xmlns="http://www.w3.org/2000/svg">
<path d="M119.777 127.218V134.594C119.777 140.341 115.118 145 109.371 145H44.713C38.9656 145 34.3066 140.341 34.3066 134.594V42.0469" stroke="#663366" stroke-width="4.16254" stroke-miterlimit="10" stroke-linecap="round" stroke-linejoin="round"/>
<path d="M34.3066 32.3348V17.4884C34.3066 11.741 38.9656 7.08203 44.713 7.08203H109.371C115.118 7.08203 119.777 11.741 119.777 17.4884V117.493" stroke="#663366" stroke-width="4.16254" stroke-miterlimit="10" stroke-linecap="round" stroke-linejoin="round"/>
<path d="M66.5664 15.4062H80.4415" stroke="#663366" stroke-width="4.16254" stroke-miterlimit="10" stroke-linecap="round" stroke-linejoin="round"/>
<path d="M55.9316 68.6875C57.5539 69.9443 59.5012 70.7793 61.6021 71.064L65.3526 71.5721C68.6271 72.0156 71.5684 73.8055 73.467 76.51C75.2325 79.025 75.9529 82.1275 75.4764 85.1631L75.4648 85.2378C75.1501 87.2419 75.3549 89.2932 76.0592 91.1955L77.7198 95.6799C78.4279 97.5922 78.6202 99.6204 78.3239 101.576" stroke="#663366" stroke-width="4.16254" stroke-miterlimit="10" stroke-linecap="round" stroke-linejoin="round"/>
<path d="M92.4454 95.5728C91.8249 93.4177 90.7676 91.3947 89.3213 89.6373C87.5267 87.457 86.7277 84.6245 87.1187 81.8278C87.5205 78.9532 89.1412 76.3904 91.566 74.7951L94.4043 72.9277C95.7971 72.0114 97.3086 71.3091 98.889 70.8359" stroke="#663366" stroke-width="4.16254" stroke-miterlimit="10" stroke-linecap="round" stroke-linejoin="round"/>
<path d="M81.0653 58.9727V60.2214C81.0653 62.5202 79.2016 64.384 76.9028 64.384C74.6039 64.384 72.7402 62.5202 72.7402 60.2214V46.0688C72.7402 43.77 74.6039 41.9062 76.9028 41.9062C79.2016 41.9062 81.0653 43.77 81.0653 46.0688V49.2601" stroke="#663366" stroke-width="4.16254" stroke-miterlimit="10" stroke-linecap="round" stroke-linejoin="round"/>
<path d="M55.71 88.3235C54.2637 85.2698 53.4542 81.858 53.4542 78.2604C53.4542 70.0816 57.6384 62.8621 63.9782 58.6274C65.1193 57.8654 65.8022 56.5825 65.802 55.2102C65.802 55.1725 65.802 55.1342 65.802 55.0959C65.8017 51.8191 62.1517 49.8411 59.4211 51.6521C50.7494 57.4039 45.0525 67.2832 45.1297 78.4857C45.2509 96.0639 59.7935 110.349 77.371 110.172C94.8437 109.995 108.955 95.7747 108.955 78.2604C108.955 67.0088 103.13 57.1167 94.332 51.4348C91.6033 49.6724 88.0044 51.6635 88.0041 54.9116C88.0041 54.9519 88.0041 54.9916 88.0041 55.0312C88.0038 56.4207 88.7037 57.7172 89.8686 58.4745C96.3916 62.7158 100.695 70.0927 100.629 78.4505C100.531 90.8418 90.6967 101.156 78.3226 101.814C71.9175 102.154 66.0242 99.9239 61.5839 96.0633" stroke="#663366" stroke-width="4.16254" stroke-miterlimit="10" stroke-linecap="round" stroke-linejoin="round"/>
</svg>
