<svg width="657" height="781" viewBox="0 0 657 781" fill="none" xmlns="http://www.w3.org/2000/svg">
<path d="M656.05 328.133C656.05 263.234 636.812 199.793 600.768 145.832C564.724 91.8709 513.494 49.8133 453.555 24.9777C393.616 0.142159 327.661 -6.35594 264.031 6.30513C200.4 18.9662 141.952 50.2178 96.0765 96.108C50.2014 141.998 18.96 200.466 6.30309 264.117C-6.35382 327.769 0.142022 393.745 24.9694 453.704C49.7969 513.662 91.8408 564.909 145.784 600.965C199.728 637.021 263.148 656.265 328.025 656.265C333.132 656.265 338.199 656.144 343.225 655.901C343.471 655.89 343.717 655.929 343.947 656.015C344.178 656.102 344.389 656.235 344.567 656.405C344.745 656.576 344.887 656.781 344.983 657.007C345.08 657.234 345.13 657.479 345.129 657.725L344.197 778.955C344.194 779.323 344.302 779.684 344.507 779.989C344.712 780.295 345.006 780.531 345.348 780.667C345.69 780.803 346.065 780.833 346.424 780.751C346.783 780.67 347.109 780.482 347.359 780.212L467.779 653.549C493.679 627.884 518.12 602.178 545.398 574.607C609.155 510.14 656.05 425.928 656.05 328.133Z" fill="url(#paint0_linear_173_102)"/>
<path d="M328.025 615.599C261.541 615.596 197.115 592.535 145.723 550.343C94.3316 508.152 59.1541 449.441 46.1841 384.213C33.2141 318.986 43.2542 251.278 74.5938 192.625C105.933 133.972 156.633 88.0035 218.056 62.5516C279.478 37.0997 347.822 33.739 411.443 53.0422C475.065 72.3454 530.027 113.118 566.966 168.414C603.905 223.709 620.536 290.106 614.023 356.291C607.511 422.477 578.259 484.356 531.252 531.386C504.628 558.17 472.957 579.405 438.073 593.86C403.188 608.316 365.784 615.704 328.025 615.599Z" fill="white"/>
<path d="M181.236 294.858V341.404H175.599V294.858H181.236ZM229.446 294.858V341.404H223.991L198.628 304.858H198.173V341.404H192.537V294.858H197.991L223.446 331.495H223.9V294.858H229.446ZM277.633 294.858V341.404H272.179L246.815 304.858H246.361V341.404H240.724V294.858H246.179L271.633 331.495H272.088V294.858H277.633ZM328.184 318.131C328.184 323.04 327.298 327.283 325.525 330.858C323.753 334.434 321.321 337.192 318.23 339.131C315.139 341.07 311.609 342.04 307.639 342.04C303.669 342.04 300.139 341.07 297.048 339.131C293.957 337.192 291.525 334.434 289.753 330.858C287.98 327.283 287.094 323.04 287.094 318.131C287.094 313.222 287.98 308.98 289.753 305.404C291.525 301.828 293.957 299.07 297.048 297.131C300.139 295.192 303.669 294.222 307.639 294.222C311.609 294.222 315.139 295.192 318.23 297.131C321.321 299.07 323.753 301.828 325.525 305.404C327.298 308.98 328.184 313.222 328.184 318.131ZM322.73 318.131C322.73 314.101 322.056 310.699 320.707 307.927C319.374 305.154 317.563 303.055 315.275 301.631C313.003 300.207 310.457 299.495 307.639 299.495C304.821 299.495 302.268 300.207 299.98 301.631C297.707 303.055 295.897 305.154 294.548 307.927C293.215 310.699 292.548 314.101 292.548 318.131C292.548 322.161 293.215 325.563 294.548 328.336C295.897 331.108 297.707 333.207 299.98 334.631C302.268 336.055 304.821 336.767 307.639 336.767C310.457 336.767 313.003 336.055 315.275 334.631C317.563 333.207 319.374 331.108 320.707 328.336C322.056 325.563 322.73 322.161 322.73 318.131ZM337.383 294.858L351.202 334.04H351.747L365.565 294.858H371.474L354.383 341.404H348.565L331.474 294.858H337.383ZM376.633 341.404H370.724L387.815 294.858H393.633L410.724 341.404H404.815L390.906 302.222H390.542L376.633 341.404ZM378.815 323.222H402.633V328.222H378.815V323.222ZM409.991 299.858V294.858H444.9V299.858H430.264V341.404H424.628V299.858H409.991ZM453.599 341.404V294.858H481.69V299.858H459.236V315.586H480.236V320.586H459.236V336.404H482.054V341.404H453.599Z" fill="black"/>
<defs>
<linearGradient id="paint0_linear_173_102" x1="0.0406795" y1="390.41" x2="656.05" y2="390.41" gradientUnits="userSpaceOnUse">
<stop stop-color="#EB67A6"/>
<stop offset="1" stop-color="#B32E91"/>
</linearGradient>
</defs>
</svg>
