<svg width="575" height="684" viewBox="0 0 575 684" fill="none" xmlns="http://www.w3.org/2000/svg">
<path d="M574.218 287.203C574.218 230.4 557.379 174.872 525.831 127.642C494.283 80.4114 449.443 43.5999 396.981 21.8621C344.518 0.124427 286.79 -5.56313 231.097 5.51866C175.403 16.6005 124.245 43.9539 84.0924 84.12C43.9395 124.286 16.595 175.461 5.51688 231.173C-5.56128 286.885 0.124306 344.631 21.8549 397.111C43.5855 449.59 80.3851 494.445 127.6 526.004C174.815 557.562 230.324 574.406 287.109 574.406C291.579 574.406 296.013 574.3 300.412 574.087C300.628 574.077 300.843 574.111 301.045 574.187C301.247 574.263 301.432 574.379 301.588 574.529C301.743 574.678 301.867 574.857 301.952 575.056C302.037 575.254 302.08 575.468 302.08 575.684L301.264 681.792C301.261 682.115 301.355 682.43 301.535 682.697C301.715 682.965 301.971 683.172 302.271 683.291C302.57 683.41 302.898 683.435 303.213 683.364C303.527 683.293 303.812 683.129 304.031 682.892L409.431 572.028C432.1 549.565 453.492 527.065 477.368 502.934C533.172 446.508 574.218 372.8 574.218 287.203Z" fill="url(#paint0_linear_171_115)"/>
<path d="M287.108 538.812C228.918 538.81 172.528 518.625 127.546 481.696C82.5649 444.767 51.7752 393.38 40.423 336.288C29.0708 279.197 37.8586 219.934 65.289 168.598C92.7195 117.261 137.095 77.0262 190.856 54.749C244.617 32.4719 304.436 29.5304 360.122 46.4258C415.807 63.3212 463.914 99.0082 496.246 147.406C528.577 195.804 543.133 253.919 537.433 311.849C531.733 369.779 506.13 423.94 464.986 465.103C441.683 488.547 413.963 507.133 383.429 519.785C352.896 532.437 320.157 538.904 287.108 538.812Z" fill="white"/>
<path d="M188.711 252.858V299.404H183.074V252.858H188.711ZM236.921 252.858V299.404H231.466L206.103 262.858H205.648V299.404H200.012V252.858H205.466L230.921 289.495H231.376V252.858H236.921ZM250.109 252.858L263.927 292.04H264.472L278.29 252.858H284.199L267.109 299.404H261.29L244.199 252.858H250.109ZM291.449 299.404V252.858H319.54V257.858H297.086V273.586H318.086V278.586H297.086V294.404H319.904V299.404H291.449ZM355.154 264.495C354.881 262.192 353.775 260.404 351.836 259.131C349.896 257.858 347.518 257.222 344.699 257.222C342.639 257.222 340.836 257.555 339.29 258.222C337.76 258.889 336.563 259.805 335.699 260.972C334.851 262.139 334.427 263.464 334.427 264.949C334.427 266.192 334.722 267.26 335.313 268.154C335.919 269.033 336.692 269.767 337.631 270.358C338.571 270.934 339.556 271.411 340.586 271.79C341.616 272.154 342.563 272.449 343.427 272.677L348.154 273.949C349.366 274.267 350.715 274.707 352.199 275.267C353.699 275.828 355.131 276.593 356.495 277.563C357.874 278.517 359.01 279.745 359.904 281.245C360.798 282.745 361.245 284.586 361.245 286.767C361.245 289.283 360.586 291.555 359.268 293.586C357.965 295.616 356.056 297.23 353.54 298.427C351.04 299.624 348.002 300.222 344.427 300.222C341.093 300.222 338.207 299.684 335.768 298.608C333.343 297.533 331.434 296.033 330.04 294.108C328.662 292.184 327.881 289.949 327.699 287.404H333.518C333.669 289.161 334.26 290.616 335.29 291.767C336.336 292.904 337.654 293.752 339.245 294.313C340.851 294.858 342.578 295.131 344.427 295.131C346.578 295.131 348.51 294.783 350.222 294.086C351.934 293.374 353.29 292.389 354.29 291.131C355.29 289.858 355.79 288.374 355.79 286.677C355.79 285.131 355.359 283.874 354.495 282.904C353.631 281.934 352.495 281.146 351.086 280.54C349.677 279.934 348.154 279.404 346.518 278.949L340.79 277.313C337.154 276.267 334.275 274.775 332.154 272.836C330.033 270.896 328.972 268.358 328.972 265.222C328.972 262.616 329.677 260.343 331.086 258.404C332.51 256.449 334.419 254.934 336.813 253.858C339.222 252.767 341.912 252.222 344.881 252.222C347.881 252.222 350.548 252.76 352.881 253.836C355.215 254.896 357.063 256.351 358.427 258.199C359.806 260.048 360.533 262.146 360.609 264.495H355.154ZM367.966 257.858V252.858H402.876V257.858H388.239V299.404H382.603V257.858H367.966Z" fill="black"/>
<defs>
<linearGradient id="paint0_linear_171_115" x1="0.0356053" y1="341.712" x2="574.218" y2="341.712" gradientUnits="userSpaceOnUse">
<stop stop-color="#EB67A6"/>
<stop offset="1" stop-color="#B32E91"/>
</linearGradient>
</defs>
</svg>
