<svg width="657" height="781" viewBox="0 0 657 781" fill="none" xmlns="http://www.w3.org/2000/svg">
<path d="M656.05 328.133C656.05 263.234 636.812 199.793 600.768 145.832C564.724 91.8709 513.494 49.8133 453.555 24.9777C393.616 0.142159 327.661 -6.35594 264.031 6.30513C200.4 18.9662 141.952 50.2178 96.0765 96.108C50.2014 141.998 18.96 200.466 6.30309 264.117C-6.35382 327.769 0.142022 393.745 24.9694 453.704C49.7969 513.662 91.8408 564.909 145.784 600.965C199.728 637.021 263.148 656.265 328.025 656.265C333.132 656.265 338.199 656.144 343.225 655.901C343.471 655.89 343.717 655.929 343.947 656.015C344.178 656.102 344.389 656.235 344.567 656.405C344.745 656.576 344.887 656.781 344.983 657.007C345.08 657.234 345.13 657.479 345.129 657.725L344.197 778.955C344.194 779.323 344.302 779.684 344.507 779.989C344.712 780.295 345.006 780.531 345.348 780.667C345.69 780.803 346.065 780.833 346.424 780.751C346.783 780.67 347.109 780.482 347.359 780.212L467.779 653.549C493.679 627.884 518.12 602.178 545.398 574.607C609.155 510.14 656.05 425.928 656.05 328.133Z" fill="url(#paint0_linear_173_102)"/>
<path d="M328.025 615.599C261.541 615.596 197.115 592.535 145.723 550.343C94.3316 508.152 59.1541 449.441 46.1841 384.213C33.2141 318.986 43.2542 251.278 74.5938 192.625C105.933 133.972 156.633 88.0035 218.056 62.5516C279.478 37.0997 347.822 33.739 411.443 53.0422C475.065 72.3454 530.027 113.118 566.966 168.414C603.905 223.709 620.536 290.106 614.023 356.291C607.511 422.477 578.259 484.356 531.252 531.386C504.628 558.17 472.957 579.405 438.073 593.86C403.188 608.316 365.784 615.704 328.025 615.599Z" fill="white"/>
<path d="M238.986 294.858V341.404H233.349V294.858H238.986ZM287.196 294.858V341.404H281.741L256.378 304.858H255.923V341.404H250.287V294.858H255.741L281.196 331.495H281.65V294.858H287.196ZM300.383 294.858L314.202 334.04H314.747L328.565 294.858H334.474L317.383 341.404H311.565L294.474 294.858H300.383ZM341.724 341.404V294.858H369.815V299.858H347.361V315.586H368.361V320.586H347.361V336.404H370.179V341.404H341.724ZM405.429 306.495C405.156 304.192 404.05 302.404 402.111 301.131C400.171 299.858 397.792 299.222 394.974 299.222C392.914 299.222 391.111 299.555 389.565 300.222C388.035 300.889 386.838 301.805 385.974 302.972C385.126 304.139 384.702 305.464 384.702 306.949C384.702 308.192 384.997 309.26 385.588 310.154C386.194 311.033 386.967 311.767 387.906 312.358C388.845 312.934 389.83 313.411 390.861 313.79C391.891 314.154 392.838 314.449 393.702 314.677L398.429 315.949C399.641 316.267 400.989 316.707 402.474 317.267C403.974 317.828 405.406 318.593 406.77 319.563C408.148 320.517 409.285 321.745 410.179 323.245C411.073 324.745 411.52 326.586 411.52 328.767C411.52 331.283 410.861 333.555 409.542 335.586C408.239 337.616 406.33 339.23 403.815 340.427C401.315 341.624 398.277 342.222 394.702 342.222C391.368 342.222 388.482 341.684 386.042 340.608C383.618 339.533 381.709 338.033 380.315 336.108C378.936 334.184 378.156 331.949 377.974 329.404H383.792C383.944 331.161 384.535 332.616 385.565 333.767C386.611 334.904 387.929 335.752 389.52 336.313C391.126 336.858 392.853 337.131 394.702 337.131C396.853 337.131 398.785 336.783 400.497 336.086C402.209 335.374 403.565 334.389 404.565 333.131C405.565 331.858 406.065 330.374 406.065 328.677C406.065 327.131 405.633 325.874 404.77 324.904C403.906 323.934 402.77 323.146 401.361 322.54C399.952 321.934 398.429 321.404 396.792 320.949L391.065 319.313C387.429 318.267 384.55 316.775 382.429 314.836C380.308 312.896 379.247 310.358 379.247 307.222C379.247 304.616 379.952 302.343 381.361 300.404C382.785 298.449 384.694 296.934 387.088 295.858C389.497 294.767 392.186 294.222 395.156 294.222C398.156 294.222 400.823 294.76 403.156 295.836C405.489 296.896 407.338 298.351 408.702 300.199C410.08 302.048 410.808 304.146 410.883 306.495H405.429ZM418.241 299.858V294.858H453.15V299.858H438.514V341.404H432.878V299.858H418.241Z" fill="black"/>
<defs>
<linearGradient id="paint0_linear_173_102" x1="0.0406795" y1="390.41" x2="656.05" y2="390.41" gradientUnits="userSpaceOnUse">
<stop stop-color="#EB67A6"/>
<stop offset="1" stop-color="#B32E91"/>
</linearGradient>
</defs>
</svg>
