<svg width="657" height="781" viewBox="0 0 657 781" fill="none" xmlns="http://www.w3.org/2000/svg">
<path d="M656.05 328.133C656.05 263.234 636.812 199.793 600.768 145.832C564.724 91.8709 513.494 49.8133 453.555 24.9777C393.616 0.142159 327.661 -6.35594 264.031 6.30513C200.4 18.9662 141.952 50.2178 96.0765 96.108C50.2014 141.998 18.96 200.466 6.30309 264.117C-6.35382 327.769 0.142022 393.745 24.9694 453.704C49.7969 513.662 91.8408 564.909 145.784 600.965C199.728 637.021 263.148 656.265 328.025 656.265C333.132 656.265 338.199 656.144 343.225 655.901C343.471 655.89 343.717 655.929 343.947 656.015C344.178 656.102 344.389 656.235 344.567 656.405C344.745 656.576 344.887 656.781 344.983 657.007C345.08 657.234 345.13 657.479 345.129 657.725L344.197 778.955C344.194 779.323 344.302 779.684 344.507 779.989C344.712 780.295 345.006 780.531 345.348 780.667C345.69 780.803 346.065 780.833 346.424 780.751C346.783 780.67 347.109 780.482 347.359 780.212L467.779 653.549C493.679 627.884 518.12 602.178 545.398 574.607C609.155 510.14 656.05 425.928 656.05 328.133Z" fill="url(#paint0_linear_173_102)"/>
<path d="M328.025 615.599C261.541 615.596 197.115 592.535 145.723 550.343C94.3316 508.152 59.1541 449.441 46.1841 384.213C33.2141 318.986 43.2542 251.278 74.5938 192.625C105.933 133.972 156.633 88.0035 218.056 62.5516C279.478 37.0997 347.822 33.739 411.443 53.0422C475.065 72.3454 530.027 113.118 566.966 168.414C603.905 223.709 620.536 290.106 614.023 356.291C607.511 422.477 578.259 484.356 531.252 531.386C504.628 558.17 472.957 579.405 438.073 593.86C403.188 608.316 365.784 615.704 328.025 615.599Z" fill="white"/>
<path d="M266.412 341.404V294.858H272.048V336.404H293.684V341.404H266.412ZM308.048 294.858V341.404H302.412V294.858H308.048ZM321.258 294.858L335.077 334.04H335.622L349.44 294.858H355.349L338.258 341.404H332.44L315.349 294.858H321.258ZM362.599 341.404V294.858H390.69V299.858H368.236V315.586H389.236V320.586H368.236V336.404H391.054V341.404H362.599Z" fill="black"/>
<defs>
<linearGradient id="paint0_linear_173_102" x1="0.0406795" y1="390.41" x2="656.05" y2="390.41" gradientUnits="userSpaceOnUse">
<stop stop-color="#EB67A6"/>
<stop offset="1" stop-color="#B32E91"/>
</linearGradient>
</defs>
</svg>
