<svg width="150" height="150" viewBox="0 0 150 150" fill="none" xmlns="http://www.w3.org/2000/svg">
<path d="M92.7104 57.5731C92.7104 52.7605 88.8092 48.8594 83.9966 48.8594C79.1841 48.8594 75.2829 52.7605 75.2829 57.5731C75.2829 62.3857 71.3818 66.2868 66.5692 66.2868C61.7566 66.2868 57.8555 62.3857 57.8555 57.5731" stroke="#663366" stroke-width="6.28572" stroke-miterlimit="10" stroke-linecap="round" stroke-linejoin="round"/>
<path d="M53.4989 31.4336L44.7852 40.1473" stroke="#663366" stroke-width="6.28572" stroke-miterlimit="10" stroke-linecap="round" stroke-linejoin="round"/>
<path d="M97.0664 31.4336L105.78 40.1473" stroke="#663366" stroke-width="6.28572" stroke-miterlimit="10" stroke-linecap="round" stroke-linejoin="round"/>
<path d="M53.4989 83.7137L44.7852 75" stroke="#663366" stroke-width="6.28572" stroke-miterlimit="10" stroke-linecap="round" stroke-linejoin="round"/>
<path d="M97.0664 83.7137L105.78 75" stroke="#663366" stroke-width="6.28572" stroke-miterlimit="10" stroke-linecap="round" stroke-linejoin="round"/>
<path d="M87.6056 69.8972C94.4113 63.0914 94.4113 52.057 87.6056 45.2513C80.7998 38.4455 69.7654 38.4455 62.9597 45.2513C56.1539 52.057 56.1539 63.0914 62.9597 69.8972C69.7654 76.7029 80.7998 76.7029 87.6056 69.8972Z" stroke="#663366" stroke-width="6.28572" stroke-miterlimit="10" stroke-linecap="round" stroke-linejoin="round"/>
<path d="M92.4763 112.41C103.023 115.406 110.138 121.074 110.138 127.573C110.138 137.198 94.5323 145 75.2826 145C56.0329 145 40.4277 137.198 40.4277 127.573C40.4277 121.074 47.542 115.406 58.0889 112.41" stroke="#663366" stroke-width="6.28572" stroke-miterlimit="10" stroke-linecap="round" stroke-linejoin="round"/>
<path d="M75.2823 127.573L40.7157 96.7984C29.8529 87.2181 23 73.1955 23 57.5726C23 28.698 46.4077 5 75.2823 5C104.157 5 127.565 28.698 127.565 57.5726C127.565 73.1955 120.712 87.2181 109.849 96.7984L75.2823 127.573Z" stroke="#663366" stroke-width="6.28572" stroke-miterlimit="10" stroke-linecap="round" stroke-linejoin="round"/>
</svg>
