<svg width="71" height="71" viewBox="0 0 71 71" fill="none" xmlns="http://www.w3.org/2000/svg">
<g clip-path="url(#clip0_273_4)">
<path d="M35.8295 1.2821C16.7328 1.2821 1.25182 16.7631 1.25182 35.8598C1.25182 54.9565 16.7328 70.4375 35.8295 70.4375C54.9263 70.4375 70.4072 54.9565 70.4072 35.8598C70.4072 16.7631 54.9263 1.2821 35.8295 1.2821Z" fill="#A44294" stroke="#A44294"/>
<path d="M50.0437 36.921C50.6295 36.3352 50.6295 35.3855 50.0437 34.7997L40.4977 25.2538C39.912 24.668 38.9622 24.668 38.3764 25.2538C37.7906 25.8395 37.7906 26.7893 38.3764 27.3751L46.8617 35.8604L38.3764 44.3456C37.7906 44.9314 37.7906 45.8812 38.3764 46.467C38.9622 47.0527 39.912 47.0527 40.4977 46.467L50.0437 36.921ZM18.29 37.3604H48.983V34.3604H18.29V37.3604Z" fill="white"/>
</g>
<defs>
<clipPath id="clip0_273_4">
<rect width="71" height="71" fill="white"/>
</clipPath>
</defs>
</svg>
