<svg width="200" height="200" viewBox="0 0 200 200" fill="none" xmlns="http://www.w3.org/2000/svg">
<g clip-path="url(#clip0_46_137)">
<path d="M56.9369 2.0092C50.0618 2.0092 44.4056 7.65763 44.4056 14.5327V78.087H11.9455C5.37503 78.087 0 83.4854 0 90.0558V171.86C0 186.126 11.3047 197.79 25.3281 197.79C26.0547 197.79 26.7735 197.743 27.4843 197.681C27.6953 197.743 27.9062 197.775 28.1172 197.79H174.672C188.695 197.79 200 186.126 200 171.86V14.5235C200 7.64843 194.352 2 187.477 2L56.9369 2.0092ZM56.9369 8.25923H187.478C190.978 8.25923 193.751 11.0326 193.751 14.5327V171.869C193.751 182.869 185.251 191.549 174.673 191.549L41.804 191.541C47.2258 186.776 50.6634 179.721 50.6634 171.862V14.5248C50.6634 11.0248 53.4369 8.25142 56.9369 8.25142V8.25923ZM75.5308 29.5793H75.523C73.7964 29.5871 72.4057 30.9856 72.4135 32.7121V73.2664C72.4214 74.9851 73.812 76.3758 75.523 76.3758H168.859C170.586 76.3836 171.992 74.9929 172 73.2664V32.7121C172 31.884 171.672 31.0793 171.078 30.4933C170.492 29.9074 169.695 29.5715 168.859 29.5793L75.5308 29.5793ZM78.6714 35.8294H165.758V70.1575H78.6634L78.6714 35.8294ZM11.9531 84.3376H44.4132V171.862C44.4132 182.862 35.921 191.542 25.3427 191.542C14.7645 191.542 6.26443 182.862 6.26443 171.862L6.24881 90.0576C6.24881 86.8622 8.74882 84.3388 11.9442 84.3388L11.9531 84.3376ZM75.5314 100.463H75.5236C74.6954 100.47 73.9064 100.799 73.3203 101.392C72.7344 101.978 72.4063 102.775 72.4141 103.603C72.4219 105.322 73.8047 106.705 75.5235 106.713H168.86C169.688 106.721 170.485 106.392 171.071 105.807C171.665 105.221 171.993 104.432 172.001 103.603C172.001 102.767 171.673 101.971 171.079 101.377C170.493 100.791 169.696 100.463 168.86 100.463L75.5314 100.463ZM75.5314 130.799H75.5236C73.8048 130.807 72.4219 132.197 72.4141 133.916C72.4141 135.635 73.8048 137.025 75.5236 137.033H168.86C169.688 137.033 170.485 136.705 171.079 136.119C171.665 135.541 171.993 134.744 172.001 133.916C171.993 133.08 171.665 132.291 171.071 131.705C170.485 131.119 169.688 130.799 168.86 130.799L75.5314 130.799ZM75.5314 161.111H75.5236C73.8048 161.119 72.4141 162.509 72.4141 164.228C72.4063 165.056 72.7345 165.853 73.3204 166.439C73.9063 167.033 74.6954 167.361 75.5236 167.369H168.86C169.696 167.369 170.493 167.041 171.079 166.447C171.673 165.861 172.001 165.064 172.001 164.228C171.993 163.4 171.665 162.603 171.079 162.017C170.485 161.431 169.688 161.103 168.86 161.111L75.5314 161.111Z" fill="black"/>
</g>
<defs>
<clipPath id="clip0_46_137">
<rect width="200" height="200" fill="white"/>
</clipPath>
</defs>
</svg>
