<svg width="650" height="650" viewBox="0 0 650 650" fill="none" xmlns="http://www.w3.org/2000/svg">
<path d="M604.629 332.727C604.629 487.366 479.269 612.727 324.629 612.727C169.989 612.727 44.6289 487.366 44.6289 332.727C44.6289 178.087 169.989 52.7266 324.629 52.7266C479.269 52.7266 604.629 178.087 604.629 332.727Z" fill="url(#paint0_linear_487_154)"/>
<path d="M324.629 35.7266C488.657 35.7266 621.629 168.698 621.629 332.727C621.629 496.755 488.657 629.727 324.629 629.727C160.6 629.727 27.6289 496.755 27.6289 332.727C27.6289 168.698 160.6 35.7266 324.629 35.7266Z" stroke="white" stroke-opacity="0.4" stroke-width="34"/>
<path d="M595.843 344.04C585.118 493.82 455.003 606.547 305.222 595.822C155.442 585.097 42.7152 454.982 53.4401 305.201C64.1651 155.421 194.28 42.6943 344.061 53.4192C493.841 64.1442 606.568 194.259 595.843 344.04Z" fill="url(#paint1_linear_487_154)"/>
<path d="M102.674 446.311C101.215 447.031 99.7111 447.357 98.1611 447.289C96.635 447.21 95.1591 446.659 93.7333 445.638C92.3076 444.617 91.0873 443.078 90.0724 441.022L88.196 437.219L79.1568 441.68L76.1299 435.546L101.311 423.12L106.214 433.056C107.205 435.065 107.696 436.934 107.687 438.663C107.678 440.392 107.235 441.905 106.358 443.2C105.48 444.495 104.253 445.532 102.674 446.311ZM94.7206 438.148C95.2988 439.32 96.0046 440.057 96.8378 440.359C97.671 440.662 98.5898 440.565 99.5942 440.07C100.599 439.574 101.234 438.904 101.501 438.058C101.768 437.213 101.612 436.204 101.034 435.033L99.3875 431.697L93.0744 434.812L94.7206 438.148Z" fill="white"/>
<path d="M98.9509 476.773C97.4735 474.585 96.6239 472.23 96.402 469.71C96.195 467.211 96.632 464.808 97.713 462.502C98.8311 460.202 100.528 458.284 102.805 456.747C105.081 455.21 107.483 454.36 110.012 454.197C112.555 454.057 114.947 454.549 117.187 455.675C119.443 456.823 121.309 458.491 122.786 460.679C124.264 462.867 125.106 465.21 125.313 467.709C125.535 470.23 125.09 472.621 123.979 474.884C122.883 477.168 121.197 479.079 118.921 480.616C116.645 482.153 114.231 483.01 111.68 483.188C109.152 483.351 106.768 482.869 104.527 481.743C102.287 480.618 100.428 478.961 98.9509 476.773ZM104.122 473.281C105.376 475.137 106.994 476.2 108.978 476.47C110.977 476.761 112.993 476.22 115.026 474.848C117.081 473.46 118.336 471.792 118.791 469.844C119.282 467.903 118.901 466.005 117.648 464.148C116.379 462.27 114.757 461.177 112.78 460.871C110.819 460.587 108.799 461.146 106.722 462.549C104.666 463.936 103.393 465.601 102.901 467.541C102.447 469.489 102.854 471.402 104.122 473.281Z" fill="white"/>
<path d="M160.264 505.754L134.783 519.638L129.115 513.601L139.521 497.686L122.873 506.953L117.205 500.916L132.803 476.505L137.814 481.842L125.677 498.778L144.001 488.432L149.148 493.915L137.532 511.405L155.227 500.389L160.264 505.754Z" fill="white"/>
<path d="M168.281 518.824L164.748 523.272L171.922 528.968L168.638 533.103L161.465 527.407L157.634 532.231L165.747 538.674L162.339 542.965L148.87 532.269L166.332 510.279L179.802 520.975L176.394 525.266L168.281 518.824Z" fill="white"/>
<path d="M185.133 558.1L185.736 546.012L184.341 545.15L178.77 554.168L172.951 550.573L187.709 526.684L197.476 532.718C199.359 533.881 200.755 535.199 201.664 536.669C202.596 538.154 203.034 539.678 202.977 541.242C202.934 542.783 202.478 544.256 201.609 545.663C200.628 547.251 199.298 548.388 197.62 549.076C195.965 549.777 194.102 549.849 192.033 549.291L191.701 562.157L185.133 558.1ZM186.885 541.033L190.492 543.261C191.558 543.92 192.514 544.15 193.358 543.95C194.225 543.765 194.952 543.196 195.541 542.243C196.102 541.335 196.271 540.453 196.049 539.594C195.849 538.75 195.216 537.999 194.15 537.34L190.543 535.112L186.885 541.033Z" fill="white"/>
<path d="M218.186 550.13L215.797 555.283L224.107 559.136L221.886 563.926L213.576 560.073L210.984 565.661L220.383 570.019L218.077 574.991L202.474 567.755L214.286 542.281L229.89 549.516L227.585 554.488L218.186 550.13Z" fill="white"/>
<path d="M248.084 556.183C250.903 557.084 253.188 558.431 254.939 560.223C256.689 562.015 257.811 564.109 258.304 566.507C258.831 568.887 258.672 571.398 257.827 574.039C256.991 576.656 255.663 578.793 253.845 580.451C252.052 582.117 249.91 583.168 247.419 583.604C244.954 584.047 242.324 583.822 239.53 582.928L229.51 579.724L238.063 552.978L248.084 556.183ZM240.914 577.156C243.378 577.944 245.511 577.884 247.313 576.976C249.115 576.069 250.41 574.383 251.198 571.919C251.986 569.456 251.913 567.319 250.981 565.508C250.048 563.698 248.349 562.399 245.885 561.611L242.799 560.624L237.828 576.169L240.914 577.156Z" fill="white"/>
<path d="M301.493 581.153C303.07 581.682 304.275 582.639 305.11 584.023C305.948 585.38 306.274 586.867 306.089 588.483C305.823 590.815 304.789 592.575 302.989 593.765C301.218 594.931 298.876 595.348 295.961 595.014L282.966 593.527L286.158 565.629L298.717 567.066C301.551 567.39 303.689 568.293 305.13 569.773C306.598 571.256 307.204 573.11 306.95 575.336C306.762 576.978 306.169 578.293 305.17 579.279C304.198 580.268 302.972 580.893 301.493 581.153ZM291.663 577.693L296.114 578.202C297.226 578.33 298.101 578.188 298.739 577.778C299.406 577.344 299.794 576.651 299.903 575.697C300.012 574.743 299.791 573.98 299.239 573.407C298.714 572.837 297.895 572.488 296.782 572.36L292.331 571.851L291.663 577.693ZM295.397 589.393C296.536 589.524 297.439 589.372 298.106 588.938C298.802 588.481 299.207 587.763 299.319 586.782C299.431 585.802 299.188 584.996 298.589 584.364C298.017 583.735 297.161 583.355 296.022 583.224L291.094 582.661L290.389 588.82L295.397 589.393Z" fill="white"/>
<path d="M341.467 568.251L331.999 587.18L332.123 596.459L325.284 596.55L325.159 587.271L315.189 568.603L322.948 568.499L328.545 580.185L333.787 568.354L341.467 568.251Z" fill="white"/>
<path d="M387.249 569.943C387.579 571.535 387.517 573.073 387.062 574.557C386.602 576.014 385.698 577.304 384.352 578.428C383.005 579.551 381.209 580.346 378.963 580.812L374.812 581.673L376.859 591.543L370.162 592.932L364.459 565.437L375.308 563.187C377.501 562.732 379.433 562.726 381.105 563.169C382.776 563.612 384.129 564.421 385.162 565.596C386.196 566.77 386.891 568.219 387.249 569.943ZM377.349 575.591C378.629 575.325 379.52 574.828 380.022 574.097C380.524 573.366 380.661 572.453 380.434 571.356C380.206 570.26 379.717 569.476 378.966 569.005C378.214 568.535 377.199 568.432 375.92 568.698L372.277 569.453L373.707 576.346L377.349 575.591Z" fill="white"/>
<path d="M415.266 581.34C412.777 582.22 410.285 582.451 407.789 582.032C405.319 581.604 403.103 580.577 401.142 578.951C399.197 577.291 397.767 575.167 396.852 572.577C395.936 569.987 395.717 567.449 396.195 564.96C396.698 562.463 397.776 560.272 399.429 558.386C401.106 556.492 403.19 555.105 405.679 554.225C408.168 553.345 410.648 553.118 413.118 553.546C415.614 553.965 417.817 554.996 419.727 556.64C421.663 558.275 423.089 560.387 424.004 562.976C424.92 565.566 425.143 568.118 424.674 570.631C424.196 573.119 423.131 575.306 421.479 577.192C419.826 579.077 417.755 580.46 415.266 581.34ZM413.186 575.457C415.298 574.71 416.733 573.41 417.493 571.558C418.277 569.697 418.26 567.61 417.442 565.297C416.616 562.958 415.317 561.325 413.546 560.395C411.791 559.432 409.857 559.323 407.746 560.07C405.609 560.826 404.143 562.122 403.35 563.958C402.582 565.785 402.616 567.88 403.451 570.244C404.278 572.582 405.569 574.233 407.324 575.196C409.095 576.125 411.049 576.212 413.186 575.457Z" fill="white"/>
<path d="M432.276 543.454L444.423 568.77L438.257 571.729L426.109 546.413L432.276 543.454Z" fill="white"/>
<path d="M477.893 549.559L472.075 553.156L453.236 544.44L462.345 559.172L456.527 562.769L441.76 538.885L447.578 535.288L466.459 544.072L457.308 529.272L463.126 525.675L477.893 549.559Z" fill="white"/>
<path d="M487.165 506.679L490.632 510.923L484.869 515.629L499.165 533.133L493.867 537.46L479.572 519.956L473.809 524.662L470.343 520.418L487.165 506.679Z" fill="white"/>
<path d="M501.919 512.371C499.907 510.463 498.53 508.331 497.788 505.974C497.026 503.599 496.944 501.224 497.541 498.85C498.137 496.439 499.37 494.246 501.242 492.272C503.535 489.853 506.137 488.388 509.047 487.876C511.957 487.365 514.79 487.865 517.547 489.375L512.373 494.833C511.136 494.432 509.938 494.398 508.777 494.731C507.635 495.044 506.614 495.675 505.715 496.623C504.266 498.152 503.624 499.895 503.789 501.853C503.955 503.81 504.927 505.633 506.708 507.32C508.488 509.008 510.36 509.883 512.324 509.943C514.287 510.004 515.993 509.27 517.443 507.741C518.342 506.793 518.917 505.74 519.169 504.583C519.44 503.406 519.342 502.211 518.875 500.997L524.049 495.54C525.705 498.212 526.355 501.015 526 503.948C525.625 506.863 524.29 509.53 521.997 511.949C520.126 513.923 518.012 515.281 515.655 516.023C513.297 516.727 510.921 516.771 508.528 516.156C506.135 515.541 503.932 514.279 501.919 512.371Z" fill="white"/>
<path d="M544.559 476.054L538.471 484.584L541.533 488.833L537.374 494.661L520.418 470.081L525.018 463.634L553.777 471.674L549.572 477.567L544.559 476.054ZM539.238 474.419L528.849 471.281L535.219 480.052L539.238 474.419Z" fill="white"/>
<path d="M564.883 452.688C563.916 454.5 562.756 455.966 561.402 457.087C560.048 458.208 558.562 458.896 556.945 459.152C555.34 459.383 553.713 459.089 552.065 458.27L555.493 451.848C556.46 452.243 557.336 452.302 558.119 452.025C558.878 451.735 559.49 451.155 559.954 450.284C560.432 449.39 560.608 448.578 560.485 447.847C560.337 447.103 559.899 446.537 559.17 446.148C558.558 445.821 557.939 445.763 557.313 445.973C556.7 446.159 556.101 446.489 555.516 446.963C554.943 447.413 554.197 448.103 553.277 449.033C551.929 450.369 550.738 451.411 549.704 452.159C548.67 452.907 547.477 453.388 546.123 453.602C544.769 453.817 543.316 453.51 541.763 452.681C539.458 451.45 538.104 449.655 537.701 447.294C537.275 444.92 537.778 442.392 539.21 439.711C540.666 436.982 542.499 435.134 544.708 434.166C546.893 433.187 549.182 433.26 551.574 434.385L548.089 440.913C547.264 440.534 546.484 440.495 545.748 440.797C544.989 441.087 544.383 441.656 543.931 442.503C543.542 443.232 543.428 443.927 543.589 444.587C543.727 445.235 544.161 445.754 544.89 446.143C545.69 446.57 546.514 446.526 547.363 446.012C548.212 445.498 549.322 444.579 550.693 443.255C552.088 441.945 553.296 440.927 554.318 440.203C555.352 439.455 556.534 438.967 557.864 438.74C559.194 438.513 560.6 438.795 562.083 439.586C563.494 440.34 564.582 441.389 565.345 442.733C566.121 444.054 566.486 445.579 566.44 447.308C566.394 449.036 565.875 450.83 564.883 452.688Z" fill="white"/>
<path d="M555.807 403.07L560.916 405.053L558.224 411.989L579.293 420.166L576.818 426.542L555.749 418.366L553.057 425.302L547.949 423.319L555.807 403.07Z" fill="white"/>
<path d="M253.796 141.127V163.727H216.596V280.727H188.596V163.727H151.396V141.127H253.796ZM337.826 254.127H282.226L273.026 280.727H243.626L293.826 140.927H326.426L376.626 280.727H347.026L337.826 254.127ZM330.226 231.727L310.026 173.327L289.826 231.727H330.226ZM497.19 184.327C497.19 191.793 495.39 198.793 491.79 205.327C488.323 211.86 482.79 217.127 475.19 221.127C467.723 225.127 458.257 227.127 446.79 227.127H423.39V280.727H395.39V141.127H446.79C457.59 141.127 466.79 142.993 474.39 146.727C481.99 150.46 487.657 155.593 491.39 162.127C495.257 168.66 497.19 176.06 497.19 184.327ZM445.59 204.527C453.323 204.527 459.057 202.793 462.79 199.327C466.523 195.727 468.39 190.727 468.39 184.327C468.39 170.727 460.79 163.927 445.59 163.927H423.39V204.527H445.59Z" fill="white"/>
<path d="M338.72 340.727L333.26 335.207C331.22 337.327 329.04 338.907 326.72 339.947C324.4 340.947 321.78 341.447 318.86 341.447C315.98 341.447 313.42 340.927 311.18 339.887C308.98 338.847 307.26 337.367 306.02 335.447C304.82 333.527 304.22 331.287 304.22 328.727C304.22 325.807 305.04 323.247 306.68 321.047C308.36 318.807 310.82 317.047 314.06 315.767C312.78 314.247 311.86 312.847 311.3 311.567C310.74 310.287 310.46 308.887 310.46 307.367C310.46 305.607 310.9 304.027 311.78 302.627C312.7 301.187 314 300.067 315.68 299.267C317.36 298.467 319.3 298.067 321.5 298.067C323.66 298.067 325.54 298.487 327.14 299.327C328.74 300.167 329.94 301.347 330.74 302.867C331.54 304.347 331.9 306.007 331.82 307.847H326.36C326.4 306.207 325.94 304.927 324.98 304.007C324.02 303.047 322.78 302.567 321.26 302.567C319.66 302.567 318.36 303.027 317.36 303.947C316.4 304.827 315.92 305.967 315.92 307.367C315.92 308.567 316.24 309.727 316.88 310.847C317.56 311.967 318.68 313.347 320.24 314.987L332.72 327.527L333.8 325.847L337.88 319.007H343.76L338.84 327.527C338.16 328.727 337.36 329.987 336.44 331.307L345.86 340.727H338.72ZM318.86 336.767C321.02 336.767 322.96 336.347 324.68 335.507C326.44 334.667 328.1 333.367 329.66 331.607L317.36 319.247C312.24 321.207 309.68 324.307 309.68 328.547C309.68 330.907 310.52 332.867 312.2 334.427C313.92 335.987 316.14 336.767 318.86 336.767Z" fill="white"/>
<path d="M181.503 368.655V376.015H195.903V385.551H181.503V393.679H197.823V403.727H168.959V358.607H197.823V368.655H181.503ZM238.246 403.727L229.478 390.991L221.99 403.727H207.718L222.374 380.623L207.206 358.607H221.99L230.502 371.023L237.798 358.607H252.07L237.606 381.327L253.03 403.727H238.246ZM298.982 373.647C298.982 376.377 298.342 378.873 297.062 381.135C295.825 383.353 293.926 385.145 291.366 386.511C288.849 387.833 285.755 388.495 282.086 388.495H275.878V403.727H263.334V358.607H282.086C285.713 358.607 288.785 359.247 291.302 360.527C293.862 361.807 295.782 363.577 297.062 365.839C298.342 368.1 298.982 370.703 298.982 373.647ZM280.87 378.511C284.411 378.511 286.182 376.889 286.182 373.647C286.182 370.361 284.411 368.719 280.87 368.719H275.878V378.511H280.87ZM322.566 394.127H336.582V403.727H310.022V358.607H322.566V394.127ZM369.091 404.175C364.867 404.175 360.984 403.193 357.443 401.231C353.902 399.225 351.086 396.473 348.995 392.975C346.947 389.433 345.923 385.444 345.923 381.007C345.923 376.569 346.947 372.601 348.995 369.103C351.086 365.561 353.902 362.809 357.443 360.847C360.984 358.884 364.867 357.903 369.091 357.903C373.358 357.903 377.24 358.884 380.739 360.847C384.28 362.809 387.075 365.561 389.123 369.103C391.171 372.601 392.195 376.569 392.195 381.007C392.195 385.444 391.171 389.433 389.123 392.975C387.075 396.473 384.28 399.225 380.739 401.231C377.198 403.193 373.315 404.175 369.091 404.175ZM369.091 392.527C372.291 392.527 374.808 391.481 376.643 389.391C378.52 387.3 379.459 384.505 379.459 381.007C379.459 377.423 378.52 374.607 376.643 372.559C374.808 370.468 372.291 369.423 369.091 369.423C365.848 369.423 363.31 370.468 361.475 372.559C359.64 374.607 358.723 377.423 358.723 381.007C358.723 384.548 359.64 387.364 361.475 389.455C363.31 391.503 365.848 392.527 369.091 392.527ZM426.682 403.727L417.722 387.087H416.378V403.727H403.834V358.607H423.61C427.237 358.607 430.309 359.247 432.826 360.527C435.343 361.764 437.242 363.492 438.522 365.711C439.802 367.887 440.442 370.34 440.442 373.071C440.442 376.143 439.589 378.852 437.882 381.199C436.218 383.503 433.765 385.145 430.522 386.127L440.698 403.727H426.682ZM416.378 378.511H422.586C424.293 378.511 425.573 378.105 426.426 377.295C427.279 376.484 427.706 375.311 427.706 373.775C427.706 372.324 427.258 371.193 426.362 370.383C425.509 369.529 424.25 369.103 422.586 369.103H416.378V378.511ZM464.691 368.655V376.015H479.091V385.551H464.691V393.679H481.011V403.727H452.147V358.607H481.011V368.655H464.691ZM160.048 445.071C160.048 440.633 160.965 436.687 162.8 433.231C164.677 429.732 167.323 427.023 170.736 425.103C174.149 423.14 178.075 422.159 182.512 422.159C188.144 422.159 192.88 423.673 196.72 426.703C200.56 429.689 203.035 433.764 204.144 438.927H190.64C189.829 437.22 188.699 435.919 187.248 435.023C185.84 434.127 184.197 433.679 182.32 433.679C179.419 433.679 177.093 434.724 175.344 436.815C173.637 438.863 172.784 441.615 172.784 445.071C172.784 448.569 173.637 451.364 175.344 453.455C177.093 455.503 179.419 456.527 182.32 456.527C184.197 456.527 185.84 456.079 187.248 455.183C188.699 454.287 189.829 452.985 190.64 451.279H204.144C203.035 456.441 200.56 460.537 196.72 463.567C192.88 466.553 188.144 468.047 182.512 468.047C178.075 468.047 174.149 467.087 170.736 465.167C167.323 463.204 164.677 460.495 162.8 457.039C160.965 453.54 160.048 449.551 160.048 445.071ZM256.468 422.607V467.727H243.924V449.615H228.628V467.727H216.084V422.607H228.628V439.567H243.924V422.607H256.468ZM282.191 432.655V440.015H296.591V449.551H282.191V457.679H298.511V467.727H269.647V422.607H298.511V432.655H282.191ZM352.501 467.727H339.957L323.253 442.511V467.727H310.709V422.607H323.253L339.957 448.143V422.607H352.501V467.727ZM407.439 467.727H394.895L378.191 442.511V467.727H365.647V422.607H378.191L394.895 448.143V422.607H407.439V467.727ZM449.128 460.367H433.128L430.696 467.727H417.512L433.96 422.607H448.424L464.808 467.727H451.56L449.128 460.367ZM445.992 450.767L441.128 436.175L436.328 450.767H445.992ZM487.441 422.607V467.727H474.897V422.607H487.441Z" fill="white"/>
<defs>
<linearGradient id="paint0_linear_487_154" x1="168.389" y1="100.887" x2="501.029" y2="550.007" gradientUnits="userSpaceOnUse">
<stop offset="0.246227" stop-color="#8453A2"/>
<stop offset="1" stop-color="#4E59A8"/>
</linearGradient>
<linearGradient id="paint1_linear_487_154" x1="189.39" y1="89.2299" x2="480.429" y2="547.307" gradientUnits="userSpaceOnUse">
<stop offset="0.246227" stop-color="#8453A2"/>
<stop offset="1" stop-color="#4E59A8"/>
</linearGradient>
</defs>
</svg>
