<svg width="608" height="608" viewBox="0 0 608 608" fill="none" xmlns="http://www.w3.org/2000/svg">
<g filter="url(#filter0_d_112_10)">
<rect x="4" width="600" height="600" rx="300" fill="white"/>
<rect x="4" width="600" height="600" rx="300" stroke="#BFABCC"/>
<g clip-path="url(#clip0_112_10)">
<path d="M270.323 122.214C257.759 126.913 246.506 133.913 236.9 143.029C227.631 151.826 220.273 162.234 215.03 173.932C209.787 185.631 206.941 198.06 206.548 210.863C206.154 224.097 208.42 237.162 213.288 249.666C217.876 261.42 224.56 272.015 233.155 281.149C234.484 282.572 235.29 284.406 235.383 286.315L237.705 327.439L275.566 309.676C277.27 308.871 279.18 308.683 280.977 309.133C299.309 313.7 318.445 312.858 336.346 306.718C349.059 302.357 360.519 295.618 370.387 286.69C379.917 278.079 387.557 267.803 393.099 256.179C398.642 244.555 401.806 232.164 402.499 219.361C403.211 206.09 401.245 192.969 396.62 180.353C396.582 180.24 396.545 180.147 396.507 180.034C391.938 167.681 385.085 156.581 376.154 147.053C367.447 137.769 357.148 130.357 345.539 125.003C333.986 119.669 321.647 116.655 308.933 116.094C295.77 115.513 282.775 117.572 270.323 122.214ZM273.244 130.057C284.629 125.808 296.519 123.918 308.558 124.461C320.186 124.985 331.477 127.718 342.094 132.603C352.711 137.488 362.148 144.283 370.087 152.762C378.251 161.485 384.524 171.63 388.699 182.936C388.737 183.029 388.774 183.123 388.812 183.216C393.043 194.766 394.841 206.764 394.185 218.893C393.549 230.611 390.665 241.935 385.591 252.567C380.517 263.217 373.532 272.595 364.807 280.475C355.782 288.636 345.296 294.795 333.649 298.8C317.284 304.416 299.758 305.183 283.018 301.009C279.367 300.092 275.472 300.485 272.027 302.095L245.363 314.598L243.734 285.829C243.51 281.954 241.918 278.248 239.24 275.403C231.376 267.055 225.272 257.359 221.078 246.596C216.603 235.14 214.524 223.198 214.899 211.088C215.254 199.389 217.857 188.027 222.651 177.32C227.444 166.614 234.166 157.124 242.648 149.075C251.43 140.745 261.71 134.325 273.225 130.039L273.244 130.057Z" fill="url(#paint0_linear_112_10)"/>
<mask id="mask0_112_10" style="mask-type:luminance" maskUnits="userSpaceOnUse" x="87" y="313" width="460" height="129">
<path d="M106.971 441.713C103.263 440.72 100.567 439.747 98.8819 438.774C96.9907 437.407 95.474 435.386 94.2944 432.728C93.1335 430.07 92.553 427.225 92.553 424.211C92.553 421.815 93.0024 418.596 93.8824 414.59C94.182 413.224 94.3505 412.381 94.3505 412.063C94.3505 411.932 94.3505 411.839 94.2944 411.801C94.2195 411.801 94.1446 411.558 94.0322 411.09C93.7514 410.06 93.4143 409.106 92.9837 408.226C92.553 407.346 91.8789 406.654 90.9427 406.148C90.0439 405.774 89.4447 405.025 89.1077 403.902C88.7894 402.779 88.4523 401.001 88.0966 398.53C88.0217 397.912 87.9842 397.444 87.9468 397.145C89.2575 394.543 90.3622 392.653 91.261 391.511C92.1785 390.369 93.4705 389.302 95.1557 388.347C96.8409 387.393 99.8181 385.914 104.106 383.93C104.237 383.649 104.462 383.219 104.78 382.638C110.266 372.212 114.573 364.295 117.681 358.923C120.789 353.532 124.31 348.141 128.261 342.713C131.631 338.146 134.795 334.103 137.791 330.602C140.768 327.083 143.69 324.051 146.536 321.524C149.382 318.978 152.153 317.032 154.831 315.665C157.508 314.299 160.073 313.606 162.545 313.606C166.084 313.606 169.885 314.505 173.967 316.302C178.049 318.099 181.813 320.588 185.239 323.733C189.078 327.158 192.13 332.418 194.395 339.475C196.212 345.109 197.466 350.425 198.159 355.422C198.852 360.439 199.282 367.552 199.488 376.78C202.541 378.389 204.825 379.793 206.342 380.973C207.858 382.152 208.907 383.593 209.487 385.278C210.555 388.254 211.079 390.406 211.079 391.717V392.016C211.004 392.185 210.948 392.278 210.873 392.278C210.779 392.278 210.555 391.979 210.255 391.398C209.937 390.706 209.637 390.144 209.3 389.695C208.982 389.246 208.589 388.946 208.139 388.778C207.315 388.404 206.398 388.123 205.405 387.936C204.413 387.748 202.99 387.524 201.136 387.243C200.425 387.168 199.863 387.112 199.488 387.037C199.488 392.802 199.451 398.118 199.376 403.022C199.301 407.908 199.208 411.857 199.076 414.89C198.945 417.903 198.758 419.419 198.571 419.419C198.459 419.419 198.421 419.943 198.421 421.01L198.477 421.684C198.477 422.807 198.29 424.155 197.916 425.727C197.541 427.281 197.092 428.647 196.605 429.789C196.099 430.931 195.687 431.511 195.35 431.511H195.144C195.051 431.474 194.938 431.436 194.826 431.418C194.695 431.418 194.583 431.455 194.526 431.511C194.452 431.624 194.246 431.68 193.909 431.717C193.01 431.829 192.336 432.11 191.849 432.597C191.568 432.84 191.325 433.009 191.081 433.084C190.838 433.177 190.482 433.215 189.995 433.215C188.872 433.215 188.048 433.121 187.523 432.953C187.018 432.784 186.531 432.335 186.082 431.642C185.632 430.931 185.089 429.733 184.434 428.011C183.236 424.267 181.213 413.317 178.367 395.123C178.199 393.813 177.993 392.671 177.768 391.679C177.543 390.687 177.375 390.182 177.281 390.182C176.083 390.182 171.252 391.324 162.807 393.607C154.362 395.891 146.873 398.062 140.357 400.121C138.634 405.4 136.612 411.745 134.29 419.157C132.511 424.922 131.219 428.947 130.433 431.23C129.646 433.514 128.878 435.33 128.111 436.659C127.418 437.819 126.819 438.605 126.276 438.98C125.751 439.354 124.909 439.56 123.785 439.597C122.681 439.597 121.726 439.485 120.902 439.242C120.246 439.036 119.572 438.942 118.898 438.942C118 438.942 117.382 439.036 117.045 439.204C116.876 439.204 116.726 439.073 116.576 438.793L116.52 438.736V438.849C116.52 439.186 116.333 439.354 115.959 439.354C115.753 439.354 115.64 439.41 115.64 439.504C115.64 439.541 115.64 439.597 115.696 439.654L115.753 439.71C115.753 439.71 115.341 440.028 114.517 440.589L114.367 440.683C113.861 441.188 113.337 441.544 112.794 441.713C112.27 441.881 111.334 441.975 109.985 441.975C108.581 441.975 107.57 441.9 106.952 441.769L106.971 441.713ZM149.138 373.672C149.55 373.635 150.861 373.523 153.052 373.317C160.261 372.587 165.784 372.138 169.623 371.932L174.772 371.52C174.36 369.667 173.424 364.182 171.945 355.048C170.915 348.796 170.11 344.079 169.548 340.897C168.986 337.715 168.612 336.031 168.443 335.862H168.387C168.181 335.862 167.432 336.742 166.121 338.52C164.811 340.28 163.706 341.964 162.77 343.536C159.062 349.676 154.512 359.728 149.12 373.691L149.138 373.672ZM223.83 420.599C222.051 420.318 219.73 418.933 216.902 416.424C214.075 413.916 211.641 410.36 209.6 405.718C207.559 401.094 206.529 395.573 206.529 389.19C206.529 385.24 206.96 381.44 207.821 377.772C208.364 375.507 209.3 372.849 210.592 369.817C211.903 366.784 212.989 364.707 213.888 363.621C214.842 362.517 216.153 361.674 217.801 361.094C219.449 360.514 221.228 360.214 223.156 360.214C224.766 360.214 226.339 360.42 227.893 360.832C229.429 361.244 230.833 361.861 232.069 362.685C233.099 363.378 233.81 364.126 234.185 364.95C234.559 365.773 234.747 366.99 234.747 368.6C234.747 370.079 234.578 371.651 234.241 373.336C233.53 376.143 232.912 379.4 232.406 383.106C231.9 386.813 231.582 391.267 231.395 396.49C232.93 391.511 234.185 387.655 235.159 384.903C236.525 380.448 237.799 376.986 238.941 374.515C240.083 372.044 241.506 370.153 243.21 368.862C244.914 367.552 247.086 366.915 249.726 366.915C251.879 366.915 254.201 367.252 256.654 367.945C259.107 368.637 261.298 369.573 263.227 370.771C264.088 371.277 265.38 372.418 267.14 374.159C268.881 375.9 270.473 377.641 271.877 379.363C273.282 381.085 273.993 382.17 273.993 382.657C273.993 383.163 273.544 383.462 272.664 383.537C270.922 383.743 269.724 383.836 269.106 383.836C267.664 383.836 266.129 383.425 264.519 382.582C262.908 381.74 261.092 380.523 259.07 378.951C257.216 377.547 255.138 376.181 252.834 374.833C252.722 374.758 252.647 374.721 252.572 374.683L250.569 376.031C247.198 378.127 244.371 381.216 242.068 385.296C239.765 389.377 238.061 393.663 236.975 398.156C235.87 402.648 235.327 406.598 235.327 409.985C235.327 412.175 235.233 414.047 235.065 415.601C234.934 416.499 234.784 417.023 234.653 417.192C234.522 417.36 234.11 417.548 233.417 417.753C232.518 417.997 231.9 418.352 231.563 418.839C231.058 419.494 230.384 419.981 229.56 420.299C228.736 420.617 227.556 420.786 226.002 420.786C225.104 420.786 224.392 420.711 223.849 420.58L223.83 420.599ZM336.271 418.072C333.219 416.499 330.279 413.467 327.433 408.993C324.605 404.52 322.546 399.578 321.272 394.206C321.16 393.832 321.085 393.645 321.01 393.645C320.842 393.645 320.411 394.524 319.718 396.265C318.688 398.867 317.621 401.319 316.498 403.621C315.374 405.924 314.007 408.17 312.36 410.36C310.206 413.28 308.39 415.301 306.948 416.406C305.506 417.529 303.952 418.072 302.267 418.072H302.005C301.293 418.072 300.357 418.24 299.234 418.577C297.698 419.026 296.256 419.251 294.964 419.251C293.279 419.251 291.519 419.008 289.684 418.54C287.849 418.053 286.201 417.417 284.76 416.593C283.243 415.769 281.614 414.122 279.835 411.67C278.075 409.218 276.783 406.803 275.997 404.445C275.66 403.284 275.435 402.33 275.323 401.619C275.229 400.907 275.173 399.503 275.173 397.444C275.173 394.843 275.36 392.447 275.716 390.294C276.072 388.142 276.708 385.802 277.588 383.294C278.206 381.478 279.124 379.381 280.322 376.986C281.52 374.608 282.588 372.811 283.505 371.614C285.115 369.48 287.325 367.327 290.152 365.137C292.961 362.947 295.47 361.412 297.661 360.551C300.413 359.447 303.316 358.904 306.405 358.904C309.158 358.904 311.854 359.353 314.532 360.27C317.209 361.188 319.662 362.498 321.89 364.201C323.051 365.025 323.781 365.437 324.044 365.437C324.175 365.437 324.362 365.343 324.605 365.137C325.261 364.407 326.403 363.64 328.051 362.816C329.698 361.992 331.721 361.581 334.117 361.581C336.046 361.581 338.012 361.712 340.034 361.992C342.057 362.273 343.068 362.61 343.068 363.022L342.955 363.228C342.955 363.228 342.993 363.284 343.068 363.284C343.143 363.284 343.199 363.284 343.274 363.228H343.423C343.667 363.228 344.097 363.434 344.734 363.827C345.371 364.22 345.97 364.912 346.513 365.886C347.056 366.859 347.337 368.151 347.337 369.779C347.337 371.108 346.962 374.084 346.213 378.689C345.502 382.9 344.921 386.644 344.509 389.901C344.097 393.158 343.892 396.471 343.892 399.84C343.892 403.21 344.303 405.755 345.127 408.02C345.951 410.285 346.906 412.157 348.011 413.635C348.629 414.422 349.191 414.964 349.715 415.283C350.22 415.601 350.951 415.751 351.868 415.751C352.28 415.751 352.786 415.713 353.404 415.657C354.227 415.582 355.089 415.545 355.969 415.545C355.969 415.545 355.426 416.2 354.321 417.286C353.366 418.072 352.224 418.82 350.932 419.55C349.621 420.28 348.704 420.636 348.161 420.636C343.592 420.636 339.604 419.794 336.158 418.109L336.271 418.072ZM301.312 408.525C302.922 407.065 304.814 405.081 306.967 402.554C309.12 400.027 311.03 397.426 312.678 394.749C313.745 392.971 315.374 389.845 317.565 385.39C319.756 380.935 320.86 378.464 320.86 377.978V377.921H320.804C320.43 377.921 318.988 378.801 316.479 380.542C313.97 382.283 311.423 384.304 308.839 386.569C306.255 388.834 304.364 390.837 303.203 392.596C301.181 395.647 299.777 398.773 298.99 401.993C298.204 405.194 297.811 407.852 297.811 409.948C297.811 410.453 297.923 410.715 298.166 410.715C298.653 410.715 299.702 409.985 301.312 408.525ZM379.412 420.599C376.041 420.355 372.802 419.307 369.656 417.454C366.511 415.601 363.908 413.373 361.848 410.772C359.096 407.346 357.055 403.378 355.688 398.867C354.34 394.356 353.422 389.152 352.935 383.256C352.449 377.36 352.149 369.424 352.018 359.484C347.618 360.383 342.468 360.832 336.514 360.832C333.911 360.832 332.301 360.701 331.683 360.42C331.309 360.327 330.953 360.046 330.597 359.615C330.26 359.185 330.092 358.81 330.092 358.511V358.249C330.092 358.005 329.979 357.743 329.773 357.444C329.567 357.144 329.343 356.976 329.099 356.901C328.612 356.77 328.257 356.377 327.994 355.741C327.732 355.104 327.601 354.393 327.601 353.607C327.601 352.502 327.845 351.585 328.313 350.836C328.968 349.882 330.335 348.946 332.432 348.066C334.529 347.168 337.057 346.419 340.034 345.82C343.011 345.221 346.101 344.828 349.322 344.66L353.235 344.397C353.89 340.56 354.677 337.528 355.594 335.338C356.512 333.148 357.823 331.519 359.489 330.471C361.155 329.423 363.384 328.899 366.155 328.899C367.803 328.899 369.376 329.067 370.892 329.404C373.532 330.097 375.873 331.239 377.895 332.848C378.27 333.148 378.494 333.316 378.569 333.316H378.625C378.794 333.316 379.318 333.878 380.161 335.02C381.022 336.143 381.659 337.116 382.071 337.902C382.689 339.175 383.101 340.392 383.288 341.59C383.475 342.769 383.569 344.285 383.569 346.138C391.264 347.486 397.2 348.703 401.376 349.844C405.57 350.968 408.06 352.203 408.884 353.551C409.165 354.037 409.296 354.58 409.296 355.198C409.296 355.479 409.24 355.984 409.146 356.733V356.789C400.196 356.789 391.601 356.826 383.4 356.901C383.157 358.642 382.801 365.324 382.314 376.929C381.827 388.535 381.603 394.73 381.603 395.554C381.603 400.495 381.809 404.539 382.22 407.664C382.632 410.809 383.475 413.149 384.748 414.684C385.572 415.676 386.527 416.406 387.632 416.836C388.737 417.286 389.729 417.51 390.609 417.51C390.852 417.51 391.058 417.454 391.227 417.36C391.47 417.286 391.639 417.248 391.733 417.248C391.864 417.248 391.938 417.286 391.938 417.36C391.938 417.697 391.508 418.147 390.647 418.708C389.785 419.251 388.68 419.738 387.295 420.168C385.928 420.599 384.486 420.804 382.969 420.804C381.94 420.804 380.741 420.73 379.374 420.599H379.412ZM414.67 420.599C411.3 420.355 408.06 419.307 404.915 417.454C401.769 415.601 399.166 413.373 397.106 410.772C394.354 407.346 392.313 403.378 390.946 398.867C389.598 394.356 388.68 389.152 388.194 383.256C387.707 377.36 387.407 369.424 387.276 359.484C382.876 360.383 377.727 360.832 371.772 360.832C369.17 360.832 367.559 360.701 366.941 360.42C366.567 360.327 366.211 360.046 365.855 359.615C365.518 359.185 365.35 358.81 365.35 358.511V358.249C365.35 358.005 365.237 357.743 365.05 357.444C364.844 357.144 364.619 356.976 364.376 356.901C363.889 356.77 363.533 356.377 363.271 355.741C363.009 355.104 362.878 354.393 362.878 353.607C362.878 352.502 363.122 351.585 363.59 350.836C364.245 349.882 365.612 348.946 367.709 348.066C369.806 347.168 372.334 346.419 375.311 345.82C378.288 345.221 381.378 344.828 384.599 344.66L388.512 344.397C389.167 340.56 389.954 337.528 390.871 335.338C391.789 333.148 393.099 331.519 394.766 330.471C396.432 329.423 398.661 328.899 401.432 328.899C403.08 328.899 404.652 329.067 406.169 329.404C408.809 330.097 411.15 331.239 413.172 332.848C413.547 333.148 413.771 333.316 413.846 333.316H413.902C414.071 333.316 414.595 333.878 415.438 335.02C416.299 336.143 416.936 337.116 417.348 337.902C417.966 339.175 418.377 340.392 418.565 341.59C418.752 342.769 418.846 344.285 418.846 346.138C426.541 347.486 432.477 348.703 436.653 349.844C440.847 350.968 443.337 352.203 444.161 353.551C444.442 354.037 444.573 354.58 444.573 355.198C444.573 355.479 444.517 355.984 444.423 356.733V356.789C435.473 356.789 426.878 356.826 418.677 356.901C418.434 358.642 418.078 365.324 417.591 376.929C417.104 388.535 416.879 394.73 416.879 395.554C416.879 400.495 417.085 404.539 417.497 407.664C417.909 410.809 418.752 413.149 420.025 414.684C420.849 415.676 421.804 416.406 422.909 416.836C424.014 417.286 425.006 417.51 425.886 417.51C426.129 417.51 426.335 417.454 426.504 417.36C426.747 417.286 426.916 417.248 427.009 417.248C427.14 417.248 427.215 417.286 427.215 417.36C427.215 417.697 426.785 418.147 425.923 418.708C425.062 419.251 423.957 419.738 422.572 420.168C421.205 420.599 419.763 420.804 418.246 420.804C417.217 420.804 416.018 420.73 414.651 420.599H414.67ZM484.007 418.072C480.955 416.499 478.015 413.467 475.169 408.993C472.341 404.52 470.282 399.578 469.008 394.206C468.915 393.832 468.821 393.645 468.746 393.645C468.578 393.645 468.147 394.524 467.454 396.265C466.424 398.867 465.357 401.319 464.234 403.621C463.11 405.924 461.743 408.17 460.096 410.36C457.942 413.28 456.126 415.301 454.684 416.406C453.242 417.529 451.688 418.072 450.003 418.072H449.741C449.029 418.072 448.093 418.24 446.97 418.577C445.434 419.026 443.993 419.251 442.701 419.251C441.015 419.251 439.255 419.008 437.42 418.54C435.585 418.053 433.937 417.417 432.496 416.593C430.979 415.769 429.35 414.122 427.571 411.67C425.811 409.218 424.519 406.803 423.733 404.445C423.396 403.284 423.171 402.33 423.059 401.619C422.946 400.907 422.909 399.503 422.909 397.444C422.909 394.843 423.096 392.447 423.452 390.294C423.808 388.142 424.444 385.802 425.324 383.294C425.942 381.478 426.86 379.381 428.058 376.986C429.256 374.608 430.324 372.811 431.241 371.614C432.851 369.48 435.061 367.327 437.888 365.137C440.697 362.947 443.206 361.412 445.397 360.551C448.149 359.447 451.052 358.904 454.141 358.904C456.894 358.904 459.59 359.353 462.268 360.27C464.945 361.188 467.398 362.498 469.626 364.201C470.787 365.025 471.517 365.437 471.78 365.437C471.911 365.437 472.098 365.343 472.341 365.137C472.997 364.407 474.139 363.64 475.787 362.816C477.434 361.992 479.457 361.581 481.853 361.581C483.782 361.581 485.748 361.712 487.77 361.992C489.793 362.273 490.804 362.61 490.804 363.022L490.691 363.228C490.691 363.228 490.729 363.284 490.804 363.284C490.879 363.284 490.935 363.284 491.01 363.228H491.159C491.403 363.228 491.834 363.434 492.47 363.827C493.107 364.22 493.706 364.912 494.249 365.886C494.792 366.859 495.073 368.151 495.073 369.779C495.073 371.108 494.698 374.084 493.949 378.689C493.238 382.9 492.657 386.644 492.245 389.901C491.834 393.158 491.628 396.471 491.628 399.84C491.628 403.21 492.04 405.755 492.863 408.02C493.687 410.285 494.642 412.157 495.747 413.635C496.365 414.422 496.927 414.964 497.451 415.283C497.956 415.601 498.687 415.751 499.604 415.751C500.016 415.751 500.522 415.713 501.14 415.657C501.963 415.582 502.825 415.545 503.705 415.545C503.705 415.545 503.162 416.2 502.057 417.286C501.102 418.072 499.96 418.82 498.668 419.55C497.357 420.28 496.44 420.636 495.897 420.636C491.328 420.636 487.34 419.794 483.894 418.109L484.007 418.072ZM449.048 408.525C450.658 407.065 452.55 405.081 454.703 402.554C456.856 400.027 458.766 397.426 460.414 394.749C461.481 392.971 463.11 389.845 465.301 385.39C467.492 380.935 468.596 378.464 468.596 377.978V377.921H468.54C468.166 377.921 466.724 378.801 464.215 380.542C461.706 382.283 459.159 384.304 456.575 386.569C453.991 388.834 452.1 390.837 450.939 392.596C448.917 395.647 447.513 398.773 446.726 401.993C445.94 405.194 445.547 407.852 445.547 409.948C445.547 410.453 445.659 410.715 445.902 410.715C446.389 410.715 447.438 409.985 449.048 408.525ZM524.77 420.599C520.725 420.056 517.093 418.165 513.91 414.964C510.727 411.764 507.955 407.852 505.615 403.266C504.285 400.552 503.199 397.931 502.394 395.385C501.589 392.84 501.009 390.201 500.653 387.468C500.297 384.716 500.11 381.665 500.11 378.315C500.11 376.181 500.222 374.459 500.447 373.148C500.671 371.819 501.065 370.547 501.608 369.311C502.394 367.496 503.555 366.129 505.109 365.249C506.645 364.351 508.835 363.902 511.644 363.902C513.329 363.902 515.033 364.014 516.775 364.257C518.516 364.501 519.864 364.819 520.875 365.231C523.628 366.391 525.463 367.327 526.418 368.038C527.354 368.75 528.215 369.798 528.964 371.202C529.825 372.811 530.256 374.721 530.256 376.911C530.256 377.828 530.031 380.018 529.582 383.443C529.17 386.607 528.852 389.358 528.627 391.698C528.402 394.056 528.29 396.377 528.29 398.68C528.29 401.151 528.683 403.64 529.451 406.148C530.219 408.656 531.211 410.697 532.409 412.307C533.608 413.898 534.787 414.702 535.967 414.702C536.66 414.702 537.521 414.422 538.589 413.879C539.656 413.336 541.023 412.55 542.708 411.558C544.861 410.285 546.153 409.649 546.565 409.649C546.696 409.649 546.771 409.686 546.771 409.761C546.771 409.929 546.565 410.21 546.172 410.584C545.779 410.959 545.142 411.52 544.243 412.288C542.97 413.392 542.015 414.234 541.36 414.852C539.618 416.387 538.139 417.491 536.941 418.147C535.742 418.802 534.17 419.363 532.203 419.85C530.181 420.468 528.384 420.786 526.792 420.786C526.137 420.786 525.463 420.73 524.789 420.636L524.77 420.599ZM512.524 358.118C510.371 357.388 508.873 355.853 508.068 353.457C507.262 351.08 506.851 348.085 506.851 344.472C506.851 342.9 506.888 341.814 506.982 341.253C507.075 340.691 507.3 340.055 507.674 339.381C508.161 338.426 508.854 337.696 509.753 337.228C510.67 336.742 512.019 336.498 513.854 336.498C515.164 336.498 516.55 336.648 518.048 336.929C519.546 337.228 520.482 337.547 520.856 337.884C521.137 338.164 521.362 338.295 521.531 338.295C521.905 338.295 522.56 338.576 523.515 339.119C524.452 339.662 525.332 340.523 526.137 341.665C526.942 342.806 527.354 344.285 527.354 346.063C527.354 348.328 526.979 350.724 526.249 353.251C525.519 355.778 524.583 357.032 523.44 357.032C523.028 357.032 522.579 356.957 522.111 356.826C521.83 356.751 521.624 356.733 521.493 356.733C520.988 356.733 520.22 356.995 519.227 357.5C518.61 357.837 518.048 358.118 517.524 358.305C517.018 358.492 516.419 358.586 515.782 358.586C514.79 358.586 513.704 358.436 512.543 358.118H512.524Z" fill="white"/>
</mask>
<g mask="url(#mask0_112_10)">
<path d="M576 308.758H81V459.981H576V308.758Z" fill="url(#paint1_linear_112_10)"/>
<path d="M576 308.758H81V459.981H576V308.758Z" fill="url(#paint2_linear_112_10)" style="mix-blend-mode:overlay"/>
</g>
<mask id="mask1_112_10" style="mask-type:luminance" maskUnits="userSpaceOnUse" x="268" y="251" width="70" height="18">
<path d="M337.918 260.166C337.918 264.846 334.136 268.627 329.455 268.627C324.774 268.627 320.992 264.846 320.992 260.166C320.992 255.487 324.774 251.706 329.455 251.706C334.136 251.706 337.918 255.487 337.918 260.166ZM302.997 251.706C298.316 251.706 294.534 255.487 294.534 260.166C294.534 264.846 298.316 268.627 302.997 268.627C307.678 268.627 311.461 264.846 311.461 260.166C311.461 255.487 307.678 251.706 302.997 251.706ZM276.54 251.706C271.859 251.706 268.076 255.487 268.076 260.166C268.076 264.846 271.859 268.627 276.54 268.627C281.221 268.627 285.003 264.846 285.003 260.166C285.003 255.487 281.221 251.706 276.54 251.706Z" fill="white"/>
</mask>
<g mask="url(#mask1_112_10)">
<path d="M376.734 141.943H234.822V279.783H376.734V141.943Z" fill="url(#paint3_linear_112_10)"/>
</g>
<path d="M244.202 185.032C244.202 185.332 244.202 185.65 244.184 185.987C244.184 186.324 244.165 186.623 244.165 186.885C244.128 187.484 244.128 187.99 244.165 188.383C244.202 188.776 244.333 189.094 244.558 189.337C244.783 189.581 245.157 189.73 245.682 189.787C246.187 189.861 246.917 189.861 247.854 189.843C248.509 189.805 249.033 189.768 249.389 189.712C249.764 189.656 250.026 189.562 250.194 189.393C250.363 189.225 250.456 188.982 250.494 188.663C250.531 188.345 250.55 187.933 250.55 187.428V186.885C250.55 186.642 250.55 186.436 250.569 186.23C250.569 186.024 250.587 185.8 250.587 185.519C250.625 184.882 250.625 184.209 250.606 183.516C250.606 182.805 250.513 182.131 250.381 181.457C250.307 181.289 250.176 181.158 249.988 181.083C249.782 181.008 249.539 180.933 249.258 180.877C248.977 180.821 248.678 180.802 248.378 180.783C248.078 180.783 247.816 180.764 247.573 180.764H247.367C245.288 180.764 243.678 180.54 242.498 180.109C241.319 179.679 240.458 179.042 239.896 178.2C239.334 177.358 238.96 176.328 238.81 175.093C238.66 173.857 238.585 172.454 238.585 170.881C238.585 169.403 238.735 168.148 239.034 167.119C239.334 166.09 239.821 165.228 240.495 164.555C241.169 163.881 242.049 163.394 243.173 163.095C244.296 162.795 245.682 162.645 247.367 162.645C249.052 162.645 250.381 162.814 251.505 163.132C252.628 163.45 253.527 163.956 254.22 164.648C254.913 165.341 255.4 166.221 255.699 167.287C255.999 168.373 256.149 169.665 256.149 171.181H250.531C250.531 170.451 250.531 169.852 250.475 169.421C250.438 168.991 250.344 168.654 250.157 168.448C249.97 168.223 249.67 168.092 249.239 168.055C248.809 168.017 248.191 167.98 247.404 167.98C246.618 167.98 246 167.999 245.588 168.055C245.176 168.111 244.858 168.223 244.671 168.411C244.465 168.598 244.352 168.878 244.296 169.29C244.24 169.683 244.221 170.245 244.221 170.937V171.742C244.184 172.304 244.184 172.865 244.202 173.427C244.202 173.989 244.315 174.513 244.483 174.962C244.521 175.055 244.671 175.149 244.933 175.205C245.195 175.28 245.494 175.317 245.831 175.355C246.168 175.392 246.487 175.411 246.786 175.43C247.086 175.43 247.311 175.449 247.442 175.449C249.633 175.449 251.336 175.711 252.516 176.235C253.696 176.759 254.557 177.47 255.119 178.369C255.662 179.267 255.98 180.353 256.074 181.625C256.149 182.898 256.205 184.283 256.205 185.781V186.885C256.205 188.364 256.055 189.618 255.755 190.666C255.456 191.714 254.969 192.576 254.295 193.249C253.621 193.923 252.722 194.41 251.58 194.709C250.438 195.009 249.052 195.159 247.423 195.159C245.345 195.159 243.734 194.934 242.555 194.485C241.375 194.036 240.514 193.38 239.952 192.538C239.39 191.677 239.016 190.629 238.866 189.356C238.716 188.083 238.641 186.642 238.641 185.051H244.259L244.202 185.032Z" fill="url(#paint4_linear_112_10)"/>
<path d="M264.369 162.664L264.518 186.923V187.166C264.518 187.428 264.518 187.728 264.537 188.064C264.537 188.401 264.612 188.682 264.706 188.925H264.65C264.818 189.188 265.193 189.412 265.754 189.581C266.316 189.749 266.934 189.824 267.608 189.824C268.32 189.824 268.975 189.712 269.593 189.506C270.211 189.3 270.548 189 270.623 188.626C270.698 172.079 270.716 163.432 270.716 162.645H276.24V185.257C276.24 186.829 276.165 188.233 276.015 189.468C275.866 190.704 275.51 191.733 274.948 192.576C274.386 193.418 273.506 194.054 272.327 194.485C271.147 194.915 269.537 195.14 267.496 195.14C265.829 195.14 264.444 194.99 263.32 194.691C262.197 194.391 261.317 193.904 260.643 193.231C259.968 192.557 259.5 191.696 259.201 190.648C258.901 189.599 258.751 188.327 258.751 186.867V162.645H264.369V162.664Z" fill="url(#paint5_linear_112_10)"/>
<path d="M284.572 195.159H278.955V162.664H287.812C289.815 162.664 291.426 162.889 292.624 163.338C293.822 163.787 294.721 164.424 295.339 165.21C295.957 166.015 296.369 166.95 296.537 168.036C296.725 169.122 296.818 170.301 296.818 171.574C296.818 171.948 296.818 172.304 296.799 172.678C296.799 173.053 296.781 173.408 296.781 173.783C296.781 174.082 296.781 174.4 296.762 174.718C296.762 175.037 296.743 175.355 296.743 175.692C296.743 177.732 296.462 179.304 295.882 180.427C295.302 181.551 294.515 182.374 293.485 182.88C292.455 183.404 291.182 183.703 289.684 183.778C288.186 183.853 286.482 183.909 284.61 183.909V195.14L284.572 195.159ZM284.572 178.612C286.258 178.612 287.55 178.612 288.448 178.556C289.347 178.518 289.984 178.368 290.396 178.106C290.808 177.844 291.032 177.414 291.07 176.834C291.126 176.253 291.126 175.43 291.089 174.382V171.349C291.126 170.451 290.995 169.777 290.714 169.309C290.433 168.841 290.04 168.523 289.553 168.317C289.066 168.111 288.505 168.017 287.887 167.999C287.269 167.999 286.632 167.98 285.995 167.98H284.572V178.612Z" fill="url(#paint6_linear_112_10)"/>
<path d="M315.224 195.159H299.383V162.627H315.224V167.943H305.001V175.467H312.228V180.783H305.001V189.861H315.224V195.177V195.159Z" fill="url(#paint7_linear_112_10)"/>
<path d="M329.923 195.159L325.504 183.928H323.856V195.159H318.239V162.627H327.058C328.706 162.627 330.092 162.776 331.215 163.095C332.339 163.413 333.256 163.899 333.93 164.573C334.604 165.247 335.091 166.089 335.391 167.138C335.69 168.167 335.859 169.908 335.896 172.36C335.934 174.793 335.896 176.478 335.821 177.395C335.746 178.312 335.54 179.173 335.241 179.96C334.941 180.746 334.473 181.438 333.855 182.037C333.237 182.636 332.395 183.085 331.327 183.385L335.934 195.177H329.923V195.159ZM323.856 178.705C325.485 178.705 326.759 178.649 327.639 178.556C328.519 178.462 329.174 178.256 329.567 177.957C329.961 177.657 330.204 177.227 330.241 176.646C330.279 176.066 330.316 174.756 330.298 172.678C330.298 170.601 330.017 169.29 329.492 168.747C328.968 168.205 328.163 167.924 327.058 167.924H323.856V178.705Z" fill="url(#paint8_linear_112_10)"/>
<path d="M256.28 221.064C256.28 222.674 256.205 224.115 256.055 225.369C255.905 226.642 255.549 227.709 254.969 228.552C254.407 229.413 253.527 230.049 252.329 230.498C251.13 230.947 249.52 231.172 247.479 231.172C245.794 231.172 244.408 231.022 243.285 230.723C242.161 230.423 241.263 229.937 240.589 229.263C239.915 228.589 239.428 227.728 239.128 226.68C238.829 225.632 238.679 224.359 238.679 222.899V206.895C238.679 205.416 238.829 204.162 239.128 203.132C239.428 202.103 239.915 201.242 240.589 200.568C241.263 199.894 242.161 199.408 243.285 199.089C244.408 198.771 245.813 198.621 247.479 198.621C249.146 198.621 250.513 198.771 251.655 199.089C252.797 199.408 253.696 199.913 254.37 200.624C255.044 201.336 255.531 202.215 255.83 203.282C256.13 204.349 256.28 205.641 256.28 207.138H250.662C250.662 206.408 250.662 205.828 250.606 205.379C250.569 204.948 250.456 204.611 250.25 204.405C250.044 204.181 249.726 204.05 249.295 204.012C248.865 203.975 248.247 203.937 247.442 203.937C246.637 203.937 246.019 203.937 245.588 203.993C245.157 204.031 244.839 204.143 244.652 204.349C244.465 204.555 244.352 204.855 244.334 205.248C244.296 205.641 244.277 206.202 244.277 206.895V219.941C244.277 221.139 244.277 222.506 244.334 224.003C244.408 224.565 244.802 224.995 245.513 225.257C246.225 225.519 247.011 225.65 247.854 225.65C248.752 225.65 249.501 225.538 250.119 225.295C250.382 225.22 250.569 224.976 250.644 224.546C250.719 224.115 250.775 223.666 250.775 223.198C250.775 222.936 250.775 222.674 250.756 222.412C250.756 222.169 250.719 221.944 250.681 221.738V221.027H256.298L256.28 221.064Z" fill="url(#paint9_linear_112_10)"/>
<path d="M276.596 231.191H271.072V216.797H264.706V231.191H259.088V198.64H264.706V211.481H271.072V198.64H276.596V231.191Z" fill="url(#paint10_linear_112_10)"/>
<path d="M295.713 231.191H279.873V198.64H295.713V203.956H285.49V211.481H292.718V216.797H285.49V225.875H295.713V231.191Z" fill="url(#paint11_linear_112_10)"/>
<path d="M317.827 231.191H312.247L304.233 212.735V231.191H298.616V198.64H304.177L312.21 217.096V198.64H317.827V231.191Z" fill="url(#paint12_linear_112_10)"/>
<path d="M340.203 231.191H334.623L326.609 212.735V231.191H320.991V198.64H326.553L334.585 217.096V198.64H340.203V231.191Z" fill="url(#paint13_linear_112_10)"/>
<path d="M354.246 231.191V224.771H347.917V231.191H342.3V224.228C342.3 221.963 342.375 219.735 342.506 217.564C342.637 215.393 342.937 213.24 343.405 211.125C343.873 209.01 344.566 206.914 345.483 204.855C346.401 202.796 347.655 200.737 349.228 198.659H352.842C354.452 200.737 355.707 202.796 356.624 204.873C357.542 206.951 358.253 209.029 358.74 211.144C359.227 213.24 359.526 215.393 359.676 217.564C359.807 219.735 359.882 221.963 359.882 224.228V231.191H354.265H354.246ZM354.19 219.455C354.115 218.35 354.021 217.208 353.872 216.029C353.722 214.85 353.516 213.671 353.254 212.51C352.992 211.35 352.673 210.208 352.299 209.085C351.924 207.962 351.512 206.914 351.044 205.921C350.052 208.018 349.322 210.227 348.816 212.51C348.329 214.813 348.03 217.115 347.936 219.455H354.209H354.19Z" fill="url(#paint14_linear_112_10)"/>
<path d="M368.889 231.191H363.271V206.577H368.889V231.191ZM363.384 194.11C364.076 194.11 364.732 194.354 365.331 194.709C365.556 194.84 365.762 195.009 365.949 195.177C366.099 195.327 366.117 195.327 366.267 195.177C366.698 194.766 367.203 194.485 367.746 194.279C368.964 193.83 370.349 194.167 371.21 195.121C371.585 195.533 371.772 196.038 371.866 196.581C371.978 197.386 371.847 198.172 371.566 198.94C371.267 199.782 370.836 200.531 370.293 201.223C369.862 201.766 369.357 202.253 368.832 202.721C368.177 203.301 367.484 203.844 366.754 204.349C366.567 204.48 366.38 204.592 366.192 204.705C366.117 204.742 366.08 204.705 366.024 204.686C365.331 204.274 364.694 203.788 364.076 203.282C363.608 202.908 363.178 202.515 362.747 202.103C361.904 201.279 361.23 200.344 360.8 199.239C360.556 198.621 360.388 198.004 360.369 197.33C360.35 196.787 360.425 196.244 360.65 195.739C360.856 195.271 361.193 194.915 361.605 194.635C362.148 194.26 362.766 194.092 363.421 194.092L363.384 194.11Z" fill="url(#paint15_linear_112_10)"/>
</g>
<circle cx="304" cy="300" r="287.5" stroke="#8865A3" stroke-width="25"/>
</g>
<defs>
<filter id="filter0_d_112_10" x="0" y="0" width="608" height="608" filterUnits="userSpaceOnUse" color-interpolation-filters="sRGB">
<feFlood flood-opacity="0" result="BackgroundImageFix"/>
<feColorMatrix in="SourceAlpha" type="matrix" values="0 0 0 0 0 0 0 0 0 0 0 0 0 0 0 0 0 0 127 0" result="hardAlpha"/>
<feOffset dy="4"/>
<feGaussianBlur stdDeviation="2"/>
<feComposite in2="hardAlpha" operator="out"/>
<feColorMatrix type="matrix" values="0 0 0 0 0 0 0 0 0 0 0 0 0 0 0 0 0 0 0.25 0"/>
<feBlend mode="normal" in2="BackgroundImageFix" result="effect1_dropShadow_112_10"/>
<feBlend mode="normal" in="SourceGraphic" in2="effect1_dropShadow_112_10" result="shape"/>
</filter>
<linearGradient id="paint0_linear_112_10" x1="354.881" y1="299.071" x2="235.202" y2="143.685" gradientUnits="userSpaceOnUse">
<stop stop-color="#A24B9C"/>
<stop offset="1" stop-color="#2E59A4"/>
</linearGradient>
<linearGradient id="paint1_linear_112_10" x1="81" y1="384.379" x2="576" y2="384.379" gradientUnits="userSpaceOnUse">
<stop offset="0.03" stop-color="#00A551"/>
<stop offset="0.24" stop-color="#009BDF"/>
<stop offset="0.46" stop-color="#F6921E"/>
<stop offset="0.63" stop-color="#BE1E2D"/>
<stop offset="0.78" stop-color="#DB6DA9"/>
<stop offset="1" stop-color="#2E59A4"/>
</linearGradient>
<linearGradient id="paint2_linear_112_10" x1="81" y1="384.379" x2="576" y2="384.379" gradientUnits="userSpaceOnUse">
<stop offset="0.03" stop-color="#00A551"/>
<stop offset="0.24" stop-color="#009BDF"/>
<stop offset="0.46" stop-color="#F6921E"/>
<stop offset="0.63" stop-color="#BE1E2D"/>
<stop offset="0.78" stop-color="#DB6DA9"/>
<stop offset="1" stop-color="#2E59A4"/>
</linearGradient>
<linearGradient id="paint3_linear_112_10" x1="266.691" y1="127.081" x2="344.802" y2="294.647" gradientUnits="userSpaceOnUse">
<stop stop-color="#2E59A4"/>
<stop offset="1" stop-color="#A24B9C"/>
</linearGradient>
<linearGradient id="paint4_linear_112_10" x1="218.718" y1="143.347" x2="344.064" y2="299.423" gradientUnits="userSpaceOnUse">
<stop stop-color="#295CA9"/>
<stop offset="1" stop-color="#AA4A9B"/>
</linearGradient>
<linearGradient id="paint5_linear_112_10" x1="232.013" y1="132.678" x2="357.377" y2="288.735" gradientUnits="userSpaceOnUse">
<stop stop-color="#295CA9"/>
<stop offset="1" stop-color="#AA4A9B"/>
</linearGradient>
<linearGradient id="paint6_linear_112_10" x1="242.311" y1="124.404" x2="367.657" y2="280.48" gradientUnits="userSpaceOnUse">
<stop stop-color="#295CA9"/>
<stop offset="1" stop-color="#AA4A9B"/>
</linearGradient>
<linearGradient id="paint7_linear_112_10" x1="255.194" y1="114.053" x2="380.539" y2="270.129" gradientUnits="userSpaceOnUse">
<stop stop-color="#295CA9"/>
<stop offset="1" stop-color="#AA4A9B"/>
</linearGradient>
<linearGradient id="paint8_linear_112_10" x1="266.129" y1="105.275" x2="391.493" y2="261.331" gradientUnits="userSpaceOnUse">
<stop stop-color="#295CA9"/>
<stop offset="1" stop-color="#AA4A9B"/>
</linearGradient>
<linearGradient id="paint9_linear_112_10" x1="201.211" y1="157.404" x2="326.556" y2="313.48" gradientUnits="userSpaceOnUse">
<stop stop-color="#295CA9"/>
<stop offset="1" stop-color="#AA4A9B"/>
</linearGradient>
<linearGradient id="paint10_linear_112_10" x1="213.625" y1="147.446" x2="338.971" y2="303.522" gradientUnits="userSpaceOnUse">
<stop stop-color="#295CA9"/>
<stop offset="1" stop-color="#AA4A9B"/>
</linearGradient>
<linearGradient id="paint11_linear_112_10" x1="225.74" y1="137.713" x2="351.086" y2="293.789" gradientUnits="userSpaceOnUse">
<stop stop-color="#295CA9"/>
<stop offset="1" stop-color="#AA4A9B"/>
</linearGradient>
<linearGradient id="paint12_linear_112_10" x1="238.154" y1="127.736" x2="363.5" y2="283.812" gradientUnits="userSpaceOnUse">
<stop stop-color="#295CA9"/>
<stop offset="1" stop-color="#AA4A9B"/>
</linearGradient>
<linearGradient id="paint13_linear_112_10" x1="251.748" y1="116.824" x2="377.094" y2="272.88" gradientUnits="userSpaceOnUse">
<stop stop-color="#295CA9"/>
<stop offset="1" stop-color="#AA4A9B"/>
</linearGradient>
<linearGradient id="paint14_linear_112_10" x1="262.066" y1="108.532" x2="387.411" y2="264.607" gradientUnits="userSpaceOnUse">
<stop stop-color="#295CA9"/>
<stop offset="1" stop-color="#AA4A9B"/>
</linearGradient>
<linearGradient id="paint15_linear_112_10" x1="274.873" y1="98.2553" x2="400.218" y2="254.312" gradientUnits="userSpaceOnUse">
<stop stop-color="#295CA9"/>
<stop offset="1" stop-color="#AA4A9B"/>
</linearGradient>
<clipPath id="clip0_112_10">
<rect width="495" height="344" fill="white" transform="translate(81 116)"/>
</clipPath>
</defs>
</svg>
