<svg width="500" height="500" viewBox="0 0 500 500" fill="none" xmlns="http://www.w3.org/2000/svg">
<circle cx="250" cy="250" r="250" fill="#47AF2E"/>
<path fill-rule="evenodd" clip-rule="evenodd" d="M250.002 0.0234375C112.29 0.0234375 0.165527 112.244 0.165527 250.073C0.165527 387.902 112.29 500 250.002 500C387.714 500 499.717 387.902 499.717 250.073C499.717 112.244 387.714 0.0234375 250.002 0.0234375ZM250.002 41.6915C365.214 41.6915 458.084 134.763 458.084 250.073C458.084 365.383 365.214 458.332 250.002 458.332C134.79 458.332 41.7982 365.383 41.7982 250.073C41.7982 134.763 134.79 41.6915 250.002 41.6915ZM353.596 149.646C350.85 149.846 348.172 150.59 345.715 151.833C343.259 153.076 341.073 154.795 339.285 156.889L217.111 298.821L159.825 239.615C157.909 237.65 155.625 236.083 153.102 235.005C150.579 233.926 147.869 233.358 145.126 233.331C142.383 233.305 139.661 233.821 137.119 234.851C134.576 235.881 132.261 237.403 130.308 239.331C126.387 243.192 124.152 248.449 124.092 253.954C124.031 259.459 126.15 264.764 129.986 268.711L203.005 344.193C205.018 346.274 207.441 347.912 210.121 349.004C212.801 350.095 215.679 350.615 218.571 350.53C221.463 350.446 224.306 349.76 226.918 348.514C229.53 347.269 231.854 345.492 233.742 343.298L370.796 183.95C374.402 179.768 376.201 174.323 375.797 168.814C375.393 163.305 372.819 158.181 368.642 154.571C364.471 151.012 359.062 149.241 353.596 149.646Z" fill="white"/>
</svg>
