<svg width="657" height="781" viewBox="0 0 657 781" fill="none" xmlns="http://www.w3.org/2000/svg">
<path d="M656.05 328.133C656.05 263.234 636.812 199.793 600.768 145.832C564.724 91.8709 513.494 49.8133 453.555 24.9777C393.616 0.142159 327.661 -6.35594 264.031 6.30513C200.4 18.9662 141.952 50.2178 96.0765 96.108C50.2014 141.998 18.96 200.466 6.30309 264.117C-6.35382 327.769 0.142022 393.745 24.9694 453.704C49.7969 513.662 91.8408 564.909 145.784 600.965C199.728 637.021 263.148 656.265 328.025 656.265C333.132 656.265 338.199 656.144 343.225 655.901C343.471 655.89 343.717 655.929 343.947 656.015C344.178 656.102 344.389 656.235 344.567 656.405C344.745 656.576 344.887 656.781 344.983 657.007C345.08 657.234 345.13 657.479 345.129 657.725L344.197 778.955C344.194 779.323 344.302 779.684 344.507 779.989C344.712 780.295 345.006 780.531 345.348 780.667C345.69 780.803 346.065 780.833 346.424 780.751C346.783 780.67 347.109 780.482 347.359 780.212L467.779 653.549C493.679 627.884 518.12 602.178 545.398 574.607C609.155 510.14 656.05 425.928 656.05 328.133Z" fill="url(#paint0_linear_173_102)"/>
<path d="M328.025 615.599C261.541 615.596 197.115 592.535 145.723 550.343C94.3316 508.152 59.1541 449.441 46.1841 384.213C33.2141 318.986 43.2542 251.278 74.5938 192.625C105.933 133.972 156.633 88.0035 218.056 62.5516C279.478 37.0997 347.822 33.739 411.443 53.0422C475.065 72.3454 530.027 113.118 566.966 168.414C603.905 223.709 620.536 290.106 614.023 356.291C607.511 422.477 578.259 484.356 531.252 531.386C504.628 558.17 472.957 579.405 438.073 593.86C403.188 608.316 365.784 615.704 328.025 615.599Z" fill="white"/>
<path d="M220.031 293.586L240.758 352.358H241.577L262.304 293.586H271.167L245.531 363.404H236.804L211.167 293.586H220.031ZM290.497 293.586V363.404H282.042V293.586H290.497ZM345.631 311.04C345.221 307.586 343.562 304.904 340.653 302.995C337.744 301.086 334.176 300.131 329.949 300.131C326.858 300.131 324.153 300.631 321.835 301.631C319.54 302.631 317.744 304.006 316.449 305.756C315.176 307.506 314.54 309.495 314.54 311.722C314.54 313.586 314.983 315.188 315.869 316.529C316.778 317.847 317.937 318.949 319.346 319.836C320.756 320.699 322.233 321.415 323.778 321.983C325.324 322.529 326.744 322.972 328.04 323.313L335.131 325.222C336.949 325.699 338.971 326.358 341.199 327.199C343.449 328.04 345.596 329.188 347.642 330.642C349.71 332.074 351.415 333.915 352.756 336.165C354.096 338.415 354.767 341.177 354.767 344.449C354.767 348.222 353.778 351.631 351.801 354.677C349.846 357.722 346.983 360.142 343.21 361.938C339.46 363.733 334.903 364.631 329.54 364.631C324.54 364.631 320.21 363.824 316.551 362.211C312.915 360.597 310.051 358.347 307.96 355.461C305.892 352.574 304.721 349.222 304.449 345.404H313.176C313.403 348.04 314.29 350.222 315.835 351.949C317.403 353.654 319.381 354.927 321.767 355.767C324.176 356.586 326.767 356.995 329.54 356.995C332.767 356.995 335.665 356.472 338.233 355.427C340.801 354.358 342.835 352.881 344.335 350.995C345.835 349.086 346.585 346.858 346.585 344.313C346.585 341.995 345.937 340.108 344.642 338.654C343.346 337.199 341.642 336.017 339.528 335.108C337.415 334.199 335.131 333.404 332.676 332.722L324.085 330.267C318.631 328.699 314.312 326.461 311.131 323.552C307.949 320.642 306.358 316.836 306.358 312.131C306.358 308.222 307.415 304.813 309.528 301.904C311.665 298.972 314.528 296.699 318.119 295.086C321.733 293.449 325.767 292.631 330.221 292.631C334.721 292.631 338.721 293.438 342.221 295.052C345.721 296.642 348.494 298.824 350.54 301.597C352.608 304.37 353.699 307.517 353.812 311.04H345.631ZM377.122 293.586V363.404H368.667V293.586H377.122ZM390.256 301.086V293.586H442.619V301.086H420.665V363.404H412.21V301.086H390.256Z" fill="black"/>
<defs>
<linearGradient id="paint0_linear_173_102" x1="0.0406795" y1="390.41" x2="656.05" y2="390.41" gradientUnits="userSpaceOnUse">
<stop stop-color="#EB67A6"/>
<stop offset="1" stop-color="#B32E91"/>
</linearGradient>
</defs>
</svg>
