<svg width="1020" height="1214" viewBox="0 0 1020 1214" fill="none" xmlns="http://www.w3.org/2000/svg">
<path d="M1020 510.199C1020 409.291 990.088 310.65 934.045 226.748C878.002 142.846 798.346 77.4525 705.15 38.8368C611.954 0.221037 509.404 -9.88257 410.467 9.80357C311.531 29.4897 220.652 78.0815 149.323 149.434C77.9934 220.787 29.4176 311.695 9.7379 410.664C-9.94178 509.633 0.158323 612.217 38.7614 705.444C77.3645 798.671 142.737 878.353 226.611 934.414C310.485 990.475 409.094 1020.4 509.969 1020.4C517.91 1020.4 525.788 1020.21 533.602 1019.83C533.985 1019.81 534.367 1019.87 534.726 1020.01C535.085 1020.14 535.413 1020.35 535.69 1020.62C535.967 1020.88 536.187 1021.2 536.337 1021.55C536.487 1021.9 536.564 1022.28 536.564 1022.67L535.115 1211.16C535.109 1211.74 535.277 1212.3 535.597 1212.77C535.916 1213.25 536.371 1213.61 536.903 1213.83C537.435 1214.04 538.018 1214.08 538.576 1213.96C539.135 1213.83 539.641 1213.54 540.03 1213.12L727.267 1016.17C767.537 976.269 805.539 936.3 847.953 893.432C947.085 793.195 1020 662.256 1020 510.199Z" fill="url(#paint0_linear_171_115)"/>
<path d="M509.968 957.167C406.595 957.164 306.422 921.306 226.515 855.704C146.608 790.103 91.9125 698.815 71.746 597.396C51.5795 495.977 67.1905 390.7 115.919 299.503C164.648 208.307 243.479 136.832 338.982 97.2583C434.484 57.6843 540.749 52.459 639.672 82.4727C738.594 112.486 824.053 175.882 881.488 261.858C938.922 347.835 964.78 451.072 954.654 553.981C944.528 656.89 899.046 753.104 825.957 826.228C784.561 867.874 735.317 900.891 681.076 923.367C626.836 945.843 568.677 957.331 509.968 957.167Z" fill="white"/>
<path d="M388.211 524.715L369.12 454.897H377.711L392.301 511.76H392.983L407.847 454.897H417.392L432.256 511.76H432.938L447.529 454.897H456.12L437.029 524.715H428.301L412.892 469.078H412.347L396.938 524.715H388.211ZM522.282 489.806C522.282 497.169 520.952 503.533 518.293 508.897C515.634 514.26 511.986 518.397 507.35 521.306C502.713 524.215 497.418 525.669 491.463 525.669C485.509 525.669 480.213 524.215 475.577 521.306C470.941 518.397 467.293 514.26 464.634 508.897C461.975 503.533 460.645 497.169 460.645 489.806C460.645 482.442 461.975 476.078 464.634 470.715C467.293 465.351 470.941 461.215 475.577 458.306C480.213 455.397 485.509 453.942 491.463 453.942C497.418 453.942 502.713 455.397 507.35 458.306C511.986 461.215 515.634 465.351 518.293 470.715C520.952 476.078 522.282 482.442 522.282 489.806ZM514.1 489.806C514.1 483.76 513.088 478.658 511.066 474.499C509.066 470.34 506.35 467.192 502.918 465.056C499.509 462.919 495.691 461.851 491.463 461.851C487.236 461.851 483.407 462.919 479.975 465.056C476.566 467.192 473.85 470.34 471.827 474.499C469.827 478.658 468.827 483.76 468.827 489.806C468.827 495.851 469.827 500.953 471.827 505.113C473.85 509.272 476.566 512.419 479.975 514.556C483.407 516.692 487.236 517.76 491.463 517.76C495.691 517.76 499.509 516.692 502.918 514.556C506.35 512.419 509.066 509.272 511.066 505.113C513.088 500.953 514.1 495.851 514.1 489.806ZM536.498 524.715V454.897H560.088C565.543 454.897 570.02 455.828 573.52 457.692C577.02 459.533 579.611 462.067 581.293 465.294C582.975 468.522 583.816 472.192 583.816 476.306C583.816 480.419 582.975 484.067 581.293 487.249C579.611 490.431 577.032 492.931 573.554 494.749C570.077 496.544 565.634 497.442 560.225 497.442H541.134V489.806H559.952C563.679 489.806 566.679 489.26 568.952 488.169C571.248 487.078 572.907 485.533 573.929 483.533C574.975 481.51 575.498 479.101 575.498 476.306C575.498 473.51 574.975 471.067 573.929 468.976C572.884 466.885 571.213 465.272 568.918 464.135C566.623 462.976 563.588 462.397 559.816 462.397H544.952V524.715H536.498ZM569.361 493.351L586.543 524.715H576.725L559.816 493.351H569.361ZM597.904 524.715V454.897H606.358V489.533H607.176L638.54 454.897H649.586L620.267 486.397L649.586 524.715H639.358L615.086 492.26L606.358 502.078V524.715H597.904Z" fill="black"/>
<defs>
<linearGradient id="paint0_linear_171_115" x1="0.000750757" y1="607.032" x2="1020" y2="607.032" gradientUnits="userSpaceOnUse">
<stop stop-color="#EB67A6"/>
<stop offset="1" stop-color="#B32E91"/>
</linearGradient>
</defs>
</svg>
