<svg width="657" height="781" viewBox="0 0 657 781" fill="none" xmlns="http://www.w3.org/2000/svg">
<path d="M656.05 328.133C656.05 263.234 636.812 199.793 600.768 145.832C564.724 91.8709 513.494 49.8133 453.555 24.9777C393.616 0.142159 327.661 -6.35594 264.031 6.30513C200.4 18.9662 141.952 50.2178 96.0765 96.108C50.2014 141.998 18.96 200.466 6.30309 264.117C-6.35382 327.769 0.142022 393.745 24.9694 453.704C49.7969 513.662 91.8408 564.909 145.784 600.965C199.728 637.021 263.148 656.265 328.025 656.265C333.132 656.265 338.199 656.144 343.225 655.901C343.471 655.89 343.717 655.929 343.947 656.015C344.178 656.102 344.389 656.235 344.567 656.405C344.745 656.576 344.887 656.781 344.983 657.007C345.08 657.234 345.13 657.479 345.129 657.725L344.197 778.955C344.194 779.323 344.302 779.684 344.507 779.989C344.712 780.295 345.006 780.531 345.348 780.667C345.69 780.803 346.065 780.833 346.424 780.751C346.783 780.67 347.109 780.482 347.359 780.212L467.779 653.549C493.679 627.884 518.12 602.178 545.398 574.607C609.155 510.14 656.05 425.928 656.05 328.133Z" fill="url(#paint0_linear_173_102)"/>
<path d="M328.025 615.599C261.541 615.596 197.115 592.535 145.723 550.343C94.3316 508.152 59.1541 449.441 46.1841 384.213C33.2141 318.986 43.2542 251.278 74.5938 192.625C105.933 133.972 156.633 88.0035 218.056 62.5516C279.478 37.0997 347.822 33.739 411.443 53.0422C475.065 72.3454 530.027 113.118 566.966 168.414C603.905 223.709 620.536 290.106 614.023 356.291C607.511 422.477 578.259 484.356 531.252 531.386C504.628 558.17 472.957 579.405 438.073 593.86C403.188 608.316 365.784 615.704 328.025 615.599Z" fill="white"/>
<path d="M198.349 363.404L179.258 293.586H187.849L202.44 350.449H203.122L217.986 293.586H227.531L242.395 350.449H243.077L257.667 293.586H266.258L247.167 363.404H238.44L223.031 307.767H222.486L207.077 363.404H198.349ZM332.42 328.495C332.42 335.858 331.091 342.222 328.432 347.586C325.773 352.949 322.125 357.086 317.488 359.995C312.852 362.904 307.557 364.358 301.602 364.358C295.648 364.358 290.352 362.904 285.716 359.995C281.079 357.086 277.432 352.949 274.773 347.586C272.113 342.222 270.784 335.858 270.784 328.495C270.784 321.131 272.113 314.767 274.773 309.404C277.432 304.04 281.079 299.904 285.716 296.995C290.352 294.086 295.648 292.631 301.602 292.631C307.557 292.631 312.852 294.086 317.488 296.995C322.125 299.904 325.773 304.04 328.432 309.404C331.091 314.767 332.42 321.131 332.42 328.495ZM324.238 328.495C324.238 322.449 323.227 317.347 321.204 313.188C319.204 309.029 316.488 305.881 313.057 303.745C309.648 301.608 305.829 300.54 301.602 300.54C297.375 300.54 293.545 301.608 290.113 303.745C286.704 305.881 283.988 309.029 281.966 313.188C279.966 317.347 278.966 322.449 278.966 328.495C278.966 334.54 279.966 339.642 281.966 343.802C283.988 347.961 286.704 351.108 290.113 353.245C293.545 355.381 297.375 356.449 301.602 356.449C305.829 356.449 309.648 355.381 313.057 353.245C316.488 351.108 319.204 347.961 321.204 343.802C323.227 339.642 324.238 334.54 324.238 328.495ZM346.636 363.404V293.586H370.227C375.682 293.586 380.159 294.517 383.659 296.381C387.159 298.222 389.75 300.756 391.432 303.983C393.113 307.211 393.954 310.881 393.954 314.995C393.954 319.108 393.113 322.756 391.432 325.938C389.75 329.12 387.17 331.62 383.693 333.438C380.216 335.233 375.773 336.131 370.363 336.131H351.273V328.495H370.091C373.818 328.495 376.818 327.949 379.091 326.858C381.386 325.767 383.045 324.222 384.068 322.222C385.113 320.199 385.636 317.79 385.636 314.995C385.636 312.199 385.113 309.756 384.068 307.665C383.023 305.574 381.352 303.961 379.057 302.824C376.761 301.665 373.727 301.086 369.954 301.086H355.091V363.404H346.636ZM379.5 332.04L396.682 363.404H386.863L369.954 332.04H379.5ZM408.042 363.404V293.586H416.497V328.222H417.315L448.679 293.586H459.724L430.406 325.086L459.724 363.404H449.497L425.224 330.949L416.497 340.767V363.404H408.042Z" fill="black"/>
<defs>
<linearGradient id="paint0_linear_173_102" x1="0.0406795" y1="390.41" x2="656.05" y2="390.41" gradientUnits="userSpaceOnUse">
<stop stop-color="#EB67A6"/>
<stop offset="1" stop-color="#B32E91"/>
</linearGradient>
</defs>
</svg>
