<svg width="575" height="684" viewBox="0 0 575 684" fill="none" xmlns="http://www.w3.org/2000/svg">
<path d="M574.218 287.203C574.218 230.4 557.379 174.872 525.831 127.642C494.283 80.4114 449.443 43.5999 396.981 21.8621C344.518 0.124427 286.79 -5.56313 231.097 5.51866C175.403 16.6005 124.245 43.9539 84.0924 84.12C43.9395 124.286 16.595 175.461 5.51688 231.173C-5.56128 286.885 0.124306 344.631 21.8549 397.111C43.5855 449.59 80.3851 494.445 127.6 526.004C174.815 557.562 230.324 574.406 287.109 574.406C291.579 574.406 296.013 574.3 300.412 574.087C300.628 574.077 300.843 574.111 301.045 574.187C301.247 574.263 301.432 574.379 301.588 574.529C301.743 574.678 301.867 574.857 301.952 575.056C302.037 575.254 302.08 575.468 302.08 575.684L301.264 681.792C301.261 682.115 301.355 682.43 301.535 682.697C301.715 682.965 301.971 683.172 302.271 683.291C302.57 683.41 302.898 683.435 303.213 683.364C303.527 683.293 303.812 683.129 304.031 682.892L409.431 572.028C432.1 549.565 453.492 527.065 477.368 502.934C533.172 446.508 574.218 372.8 574.218 287.203Z" fill="url(#paint0_linear_171_115)"/>
<path d="M287.108 538.812C228.918 538.81 172.528 518.625 127.546 481.696C82.5649 444.767 51.7752 393.38 40.423 336.288C29.0708 279.197 37.8586 219.934 65.289 168.598C92.7195 117.261 137.095 77.0262 190.856 54.749C244.617 32.4719 304.436 29.5304 360.122 46.4258C415.807 63.3212 463.914 99.0082 496.246 147.406C528.577 195.804 543.133 253.919 537.433 311.849C531.733 369.779 506.13 423.94 464.986 465.103C441.683 488.547 413.963 507.133 383.429 519.785C352.896 532.437 320.157 538.904 287.108 538.812Z" fill="white"/>
<path d="M206.029 299.404L193.302 252.858H199.029L208.756 290.767H209.211L219.12 252.858H225.484L235.393 290.767H235.847L245.574 252.858H251.302L238.574 299.404H232.756L222.484 262.313H222.12L211.847 299.404H206.029ZM295.41 276.131C295.41 281.04 294.523 285.283 292.751 288.858C290.978 292.434 288.546 295.192 285.455 297.131C282.364 299.07 278.834 300.04 274.864 300.04C270.895 300.04 267.364 299.07 264.273 297.131C261.182 295.192 258.751 292.434 256.978 288.858C255.205 285.283 254.319 281.04 254.319 276.131C254.319 271.222 255.205 266.98 256.978 263.404C258.751 259.828 261.182 257.07 264.273 255.131C267.364 253.192 270.895 252.222 274.864 252.222C278.834 252.222 282.364 253.192 285.455 255.131C288.546 257.07 290.978 259.828 292.751 263.404C294.523 266.98 295.41 271.222 295.41 276.131ZM289.955 276.131C289.955 272.101 289.281 268.699 287.932 265.927C286.599 263.154 284.788 261.055 282.501 259.631C280.228 258.207 277.682 257.495 274.864 257.495C272.046 257.495 269.493 258.207 267.205 259.631C264.932 261.055 263.122 263.154 261.773 265.927C260.44 268.699 259.773 272.101 259.773 276.131C259.773 280.161 260.44 283.563 261.773 286.336C263.122 289.108 264.932 291.207 267.205 292.631C269.493 294.055 272.046 294.767 274.864 294.767C277.682 294.767 280.228 294.055 282.501 292.631C284.788 291.207 286.599 289.108 287.932 286.336C289.281 283.563 289.955 280.161 289.955 276.131ZM304.887 299.404V252.858H320.614C324.251 252.858 327.235 253.48 329.569 254.722C331.902 255.949 333.629 257.639 334.751 259.79C335.872 261.942 336.432 264.389 336.432 267.131C336.432 269.874 335.872 272.305 334.751 274.427C333.629 276.548 331.91 278.214 329.591 279.427C327.273 280.624 324.311 281.222 320.705 281.222H307.978V276.131H320.523C323.008 276.131 325.008 275.767 326.523 275.04C328.054 274.313 329.16 273.283 329.841 271.949C330.538 270.601 330.887 268.995 330.887 267.131C330.887 265.267 330.538 263.639 329.841 262.245C329.145 260.851 328.031 259.775 326.501 259.017C324.97 258.245 322.948 257.858 320.432 257.858H310.523V299.404H304.887ZM326.796 278.495L338.251 299.404H331.705L320.432 278.495H326.796ZM345.824 299.404V252.858H351.461V275.949H352.006L372.915 252.858H380.279L360.734 273.858L380.279 299.404H373.461L357.279 277.767L351.461 284.313V299.404H345.824Z" fill="black"/>
<defs>
<linearGradient id="paint0_linear_171_115" x1="0.0356053" y1="341.712" x2="574.218" y2="341.712" gradientUnits="userSpaceOnUse">
<stop stop-color="#EB67A6"/>
<stop offset="1" stop-color="#B32E91"/>
</linearGradient>
</defs>
</svg>
