<svg width="150" height="150" viewBox="0 0 150 150" fill="none" xmlns="http://www.w3.org/2000/svg">
<path d="M103.457 31.2188H135.835C138.252 31.2188 140.212 33.1765 140.212 35.5934V117.187C140.212 119.604 138.252 121.565 135.835 121.565H23.1646C20.7477 121.565 18.7871 119.604 18.7871 117.187V35.5934C18.7871 33.1765 20.7477 31.2188 23.1646 31.2188H45.6017" stroke="#663366" stroke-width="4.22534" stroke-miterlimit="10" stroke-linecap="round" stroke-linejoin="round"/>
<path d="M132.596 107.781V113.951H26.4043V38.8359H57.5141" stroke="#663366" stroke-width="4.22534" stroke-miterlimit="10" stroke-linecap="round" stroke-linejoin="round"/>
<path d="M101.486 38.8359H132.596V97.8994" stroke="#663366" stroke-width="4.22534" stroke-miterlimit="10" stroke-linecap="round" stroke-linejoin="round"/>
<path d="M85.1772 37.1555H73.8218C72.4865 37.1555 71.4043 36.0732 71.4043 34.738V23.3823C71.4043 22.0471 72.4865 20.9648 73.8218 20.9648H85.1772C86.5124 20.9648 87.5947 22.0471 87.5947 23.3823V34.7378C87.5947 36.0732 86.5124 37.1555 85.1772 37.1555Z" stroke="#663366" stroke-width="4.22534" stroke-miterlimit="10" stroke-linecap="round" stroke-linejoin="round"/>
<path d="M75.8691 20.9616V14.9805" stroke="#663366" stroke-width="4.22534" stroke-miterlimit="10" stroke-linecap="round" stroke-linejoin="round"/>
<path d="M83.1289 20.9616V14.9805" stroke="#663366" stroke-width="4.22534" stroke-miterlimit="10" stroke-linecap="round" stroke-linejoin="round"/>
<path d="M75.8691 43.1335V37.1523" stroke="#663366" stroke-width="4.22534" stroke-miterlimit="10" stroke-linecap="round" stroke-linejoin="round"/>
<path d="M83.1289 43.1335V37.1523" stroke="#663366" stroke-width="4.22534" stroke-miterlimit="10" stroke-linecap="round" stroke-linejoin="round"/>
<path d="M87.5957 25.4297H93.5768" stroke="#663366" stroke-width="4.22534" stroke-miterlimit="10" stroke-linecap="round" stroke-linejoin="round"/>
<path d="M87.5957 32.6875H93.5768" stroke="#663366" stroke-width="4.22534" stroke-miterlimit="10" stroke-linecap="round" stroke-linejoin="round"/>
<path d="M65.4238 25.4297H71.4047" stroke="#663366" stroke-width="4.22534" stroke-miterlimit="10" stroke-linecap="round" stroke-linejoin="round"/>
<path d="M65.4238 32.6875H71.4047" stroke="#663366" stroke-width="4.22534" stroke-miterlimit="10" stroke-linecap="round" stroke-linejoin="round"/>
<path d="M79.5005 53.1142C92.7868 53.1142 103.558 42.3435 103.558 29.0571C103.558 15.7707 92.7868 5 79.5005 5C66.2141 5 55.4434 15.7707 55.4434 29.0571C55.4434 42.3435 66.2141 53.1142 79.5005 53.1142Z" stroke="#663366" stroke-width="4.22534" stroke-miterlimit="10" stroke-linecap="round" stroke-linejoin="round"/>
<path d="M127.072 121.566H31.9277V137.648C31.9277 141.709 35.2196 145.001 39.2804 145.001H119.719C123.78 145.001 127.072 141.709 127.072 137.648V121.566Z" stroke="#663366" stroke-width="4.22534" stroke-miterlimit="10" stroke-linecap="round" stroke-linejoin="round"/>
<path d="M31.9281 131.281H18.7884V144.719H10" stroke="#663366" stroke-width="4.22534" stroke-miterlimit="10" stroke-linecap="round" stroke-linejoin="round"/>
<path d="M97.7324 129.379H113.223" stroke="#663366" stroke-width="4.22534" stroke-miterlimit="10" stroke-linecap="round" stroke-linejoin="round"/>
<path d="M97.7324 137.188H113.223" stroke="#663366" stroke-width="4.22534" stroke-miterlimit="10" stroke-linecap="round" stroke-linejoin="round"/>
<circle cx="42.0873" cy="133.285" r="2.11267" fill="#663366"/>
<circle cx="51.2787" cy="133.285" r="2.11267" fill="#663366"/>
<path d="M77.996 133.281H60.4727" stroke="#663366" stroke-width="4.22534" stroke-miterlimit="10" stroke-linecap="round" stroke-linejoin="round"/>
<path d="M86.5592 65.5976L79.4995 69.09L72.4398 65.5976C66.8925 62.8534 60.1767 65.2933 57.6849 70.9587C55.9415 74.9223 56.7195 79.5426 59.6649 82.7167L74.7719 98.9977C77.3237 101.748 81.6752 101.748 84.2268 98.9977L99.3338 82.7167C102.279 79.5426 103.057 74.922 101.314 70.9587C98.8225 65.2936 92.1067 62.8534 86.5592 65.5976Z" stroke="#663366" stroke-width="4.22534" stroke-miterlimit="10" stroke-linecap="round" stroke-linejoin="round"/>
<path d="M38.2109 82.7664H49.8239L57.9047 94.2543L69.1807 75.0938L74.7393 82.7087H87.5961L93.5772 88.9241L99.3355 82.7185H115.556" stroke="#663366" stroke-width="4.22534" stroke-miterlimit="10" stroke-linecap="round" stroke-linejoin="round"/>
<path d="M119.426 47.0703V55.3773" stroke="#663366" stroke-width="4.22534" stroke-miterlimit="10" stroke-linecap="round" stroke-linejoin="round"/>
<path d="M123.58 51.2227H115.273" stroke="#663366" stroke-width="4.22534" stroke-miterlimit="10" stroke-linecap="round" stroke-linejoin="round"/>
</svg>
