<svg width="150" height="150" viewBox="0 0 150 150" fill="none" xmlns="http://www.w3.org/2000/svg">
<mask id="mask0_660_2515" style="mask-type:luminance" maskUnits="userSpaceOnUse" x="5" y="5" width="140" height="140">
<path d="M5 5H145V145H5V5Z" fill="white"/>
</mask>
<g mask="url(#mask0_660_2515)">
<path d="M87.3046 126.699H114.93C130.027 126.699 142.266 114.461 142.266 99.3639C142.266 89.2172 136.736 80.3628 128.527 75.6473C129.787 71.2387 128.683 66.2974 125.211 62.8253C121.379 58.9936 115.757 58.0443 111.037 59.9758C104.966 50.7692 94.5329 44.6939 82.6797 44.6939C81.5632 44.6939 80.4599 44.7478 79.3711 44.8531" stroke="#663366" stroke-width="4.47" stroke-miterlimit="10" stroke-linecap="round" stroke-linejoin="round"/>
<path d="M34.5277 64.2248C25.5256 65.7084 18.6593 73.5268 18.6593 82.9492C18.6593 83.2481 18.668 83.5453 18.682 83.8409C12.111 87.931 7.73438 95.2156 7.73438 103.525C7.73438 116.324 18.1094 126.699 30.9082 126.699H62.6953" stroke="#663366" stroke-width="4.47" stroke-miterlimit="10" stroke-linecap="round" stroke-linejoin="round"/>
<path d="M42.5182 92.9738C42.5182 92.9738 38.2004 89.3445 33.1087 90.8782C28.4334 92.2864 27.7796 97.6775 31.1621 99.8827C31.1621 99.8827 34.4808 101.363 38.1621 102.721C47.0236 105.99 43.2067 114.562 36.0727 114.562C32.5003 114.562 29.502 112.998 27.6875 110.996" stroke="#663366" stroke-width="4.47" stroke-miterlimit="10" stroke-linecap="round" stroke-linejoin="round"/>
<path d="M121.516 92.9738C121.516 92.9738 117.198 89.3445 112.107 90.8782C107.431 92.2864 106.778 97.6775 110.16 99.8827C110.16 99.8827 113.479 101.363 117.16 102.721C126.022 105.99 122.204 114.562 115.071 114.562C111.498 114.562 108.5 112.998 106.686 110.996" stroke="#663366" stroke-width="4.47" stroke-miterlimit="10" stroke-linecap="round" stroke-linejoin="round"/>
<path d="M69.5625 106.906C69.5625 111.135 66.1347 114.562 61.9062 114.562C57.6778 114.562 54.25 111.135 54.25 106.906C54.25 102.678 57.6778 99.25 61.9062 99.25C66.1347 99.25 69.5625 102.678 69.5625 106.906Z" stroke="#663366" stroke-width="4.47" stroke-miterlimit="10" stroke-linecap="round" stroke-linejoin="round"/>
<path d="M69.5625 98.232V114.562" stroke="#663366" stroke-width="4.47" stroke-miterlimit="10" stroke-linecap="round" stroke-linejoin="round"/>
<path d="M95.8125 106.906C95.8125 111.135 92.3847 114.562 88.1562 114.562C83.9278 114.562 80.5 111.135 80.5 106.906C80.5 102.678 83.9278 99.25 88.1562 99.25C92.3847 99.25 95.8125 102.678 95.8125 106.906Z" stroke="#663366" stroke-width="4.47" stroke-miterlimit="10" stroke-linecap="round" stroke-linejoin="round"/>
<path d="M95.8125 98.232V114.562" stroke="#663366" stroke-width="4.47" stroke-miterlimit="10" stroke-linecap="round" stroke-linejoin="round"/>
<path d="M66.0905 50.5495C66.0905 45.1488 61.7123 40.7705 56.3116 40.7705C50.9112 40.7705 46.5332 45.1488 46.5332 50.5495C46.5332 55.9498 50.9112 60.3281 56.3116 60.3281C61.7123 60.3281 66.0905 55.9498 66.0905 50.5495Z" stroke="#663366" stroke-width="4.47" stroke-miterlimit="10" stroke-linecap="round" stroke-linejoin="round"/>
<path d="M83.5613 56.1844V44.9103H79.0502C78.4806 42.6055 77.5711 40.4346 76.3757 38.4558L79.5664 35.265L71.5941 27.293L68.4033 30.4837C66.4245 29.2882 64.2539 28.3788 61.9491 27.8092V23.2978H50.6747V27.8092C48.3702 28.3788 46.1994 29.2882 44.2205 30.4837L41.0298 27.293L33.0577 35.265L36.2484 38.4558C35.053 40.4346 34.1432 42.6055 33.5737 44.9103H29.0625V56.1844H33.5737C34.1432 58.4892 35.053 60.6597 36.2484 62.6386L33.0577 65.8293L41.0298 73.8017L44.2205 70.6109C46.1994 71.8064 48.3702 72.7159 50.6747 73.2854V77.7969H61.9491V73.2854C64.2539 72.7159 66.4245 71.8064 68.4033 70.6109L71.5941 73.8017L79.5664 65.8293L76.3757 62.6386C77.5711 60.6597 78.4806 58.4892 79.0502 56.1844H83.5613Z" stroke="#663366" stroke-width="4.47" stroke-miterlimit="10" stroke-linecap="round" stroke-linejoin="round"/>
</g>
</svg>
