<svg width="150" height="150" viewBox="0 0 150 150" fill="none" xmlns="http://www.w3.org/2000/svg">
<path d="M115.408 67.09C105.777 67.0721 96.7591 62.3579 91.2423 54.4632C85.7256 46.5627 84.4058 36.4749 87.7052 27.4259C91.0046 18.378 98.5069 11.5057 107.81 9.00837C116.032 6.80289 124.807 8.25339 131.88 12.9854C138.954 17.7175 143.651 25.2732 144.751 33.7086C145.856 42.1502 143.264 50.6575 137.647 57.0478C132.023 63.4443 123.92 67.1018 115.408 67.09ZM115.503 12.4523C113.292 12.4523 111.092 12.7436 108.964 13.3203V13.3143C101.426 15.3355 95.2611 20.7393 92.2705 27.9444C89.2863 35.1495 89.8212 43.335 93.721 50.089C97.6208 56.843 104.439 61.4019 112.167 62.4185C119.902 63.435 127.666 60.8015 133.183 55.2847C138.7 49.768 141.333 42.0041 140.317 34.2694C139.294 26.5412 134.74 19.7226 127.987 15.8229C124.188 13.6234 119.884 12.4583 115.503 12.4523Z" fill="#663366"/>
<path d="M109.438 66.4325C108.63 66.4265 107.881 65.9807 107.494 65.2673C107.108 64.554 107.138 63.686 107.572 63.0023C115.015 51.5468 125.928 49.6505 126.393 49.5672C127.605 49.377 128.741 50.1974 128.943 51.41C129.145 52.6168 128.325 53.7642 127.118 53.9663C126.975 53.9901 117.63 55.714 111.31 65.4277V65.4337C110.894 66.0638 110.193 66.4384 109.438 66.4325ZM95.3789 58.3179C95.0282 58.3179 94.6834 58.2288 94.3743 58.0683C93.8452 57.8008 93.4469 57.3371 93.2626 56.7782C93.0783 56.2135 93.1259 55.6012 93.3993 55.0721C98.6663 44.7163 95.4563 35.7521 95.4205 35.6501C95.0876 34.5325 95.6761 33.3436 96.77 32.9274C97.8638 32.5172 99.0943 33.0225 99.5819 34.0807C99.7483 34.5206 103.559 44.918 97.3586 57.0927C96.9781 57.8417 96.2172 58.312 95.3789 58.3179Z" fill="#663366"/>
<path d="M114.157 60.7953C113.765 60.7953 113.378 60.6942 113.039 60.498L96.798 51.1172C95.728 50.4989 95.3594 49.1375 95.9777 48.0734C96.5959 47.0034 97.9573 46.6348 99.0214 47.2531L115.269 56.634H115.275C116.149 57.1393 116.577 58.1677 116.315 59.1426C116.048 60.1175 115.162 60.7953 114.157 60.7953Z" fill="#663366"/>
<path d="M115.728 39.3142C114.926 39.3142 114.188 38.8862 113.79 38.1966C113.392 37.5011 113.392 36.6451 113.796 35.9554L123.7 18.804C123.997 18.2928 124.485 17.9182 125.055 17.7637C125.626 17.6091 126.233 17.6923 126.75 17.9896C127.814 18.6019 128.182 19.9692 127.564 21.0333L117.66 38.1847C117.268 38.8802 116.531 39.3142 115.728 39.3142Z" fill="#663366"/>
<path d="M113.569 46.7846C110.4 46.7906 107.773 44.3354 107.559 41.1787C107.345 38.0161 109.622 35.2279 112.761 34.8119C115.905 34.3898 118.83 36.4824 119.454 39.5855C120.079 42.6946 118.182 45.7502 115.126 46.5766C114.621 46.7133 114.092 46.7846 113.569 46.7846ZM113.587 39.2764C112.814 39.2704 112.166 39.8411 112.065 40.6021C111.958 41.3571 112.439 42.0764 113.177 42.2785C113.92 42.4807 114.693 42.1002 114.99 41.3928C115.281 40.6854 115.008 39.865 114.342 39.4845C114.11 39.3478 113.848 39.2764 113.587 39.2764Z" fill="#663366"/>
<path d="M97.5128 37.1099C96.4843 37.1039 95.5986 36.4084 95.3489 35.4156C95.0992 34.4228 95.5569 33.3885 96.4605 32.9069L124.584 17.9678C125.108 17.6467 125.744 17.5635 126.332 17.724C126.921 17.8905 127.42 18.2888 127.705 18.8297C127.991 19.3767 128.044 20.0127 127.848 20.5893C127.652 21.1719 127.224 21.6415 126.665 21.9031L98.5518 36.8482C98.2308 37.0206 97.8741 37.1038 97.5055 37.1098L97.5128 37.1099Z" fill="#663366"/>
<path d="M126.75 53.9934C125.55 53.9874 124.569 53.0362 124.527 51.8413L123.404 20.007C123.362 18.7765 124.325 17.748 125.556 17.7005C126.786 17.6589 127.821 18.622 127.862 19.8526L128.98 51.6807H128.986C129.027 52.9113 128.064 53.9457 126.834 53.9873L126.75 53.9934Z" fill="#663366"/>
<path d="M131.053 119.091H15.1298C9.54168 119.091 5 114.948 5 109.853V41.0545C5 35.9658 9.54184 31.8164 15.1298 31.8164H88.3571C89.5936 31.8164 90.5924 32.8151 90.5924 34.0517C90.5924 35.2823 89.5937 36.275 88.3571 36.275H15.1298C12.0028 36.275 9.45844 38.415 9.45844 41.0545L9.46438 109.853C9.46438 112.487 12.0088 114.633 15.1357 114.633H131.059C134.186 114.633 136.724 112.493 136.724 109.853V51.4869C136.724 50.2563 137.717 49.2577 138.947 49.2577C140.184 49.2577 141.183 50.2564 141.183 51.4869V109.853C141.171 114.948 136.629 119.091 131.053 119.091Z" fill="#663366"/>
<path d="M79.3687 131.498C78.7802 131.498 78.2155 131.26 77.7933 130.844C77.3772 130.422 77.1394 129.857 77.1453 129.263V116.862C77.1453 115.631 78.1381 114.633 79.3686 114.633C80.6051 114.633 81.6039 115.632 81.6039 116.862V129.263C81.6039 129.857 81.3661 130.422 80.95 130.844C80.5279 131.26 79.9633 131.498 79.3687 131.498ZM66.8134 131.498C66.2189 131.498 65.6542 131.26 65.2321 130.844C64.8159 130.422 64.5781 129.857 64.5781 129.263V116.862C64.5781 115.631 65.5768 114.633 66.8134 114.633C68.044 114.633 69.0367 115.632 69.0367 116.862V129.263C69.0367 129.857 68.8049 130.422 68.3887 130.844C67.9667 131.26 67.402 131.498 66.8134 131.498Z" fill="#663366"/>
<path d="M106.014 142.365H40.1628C38.9323 142.365 37.9336 141.366 37.9336 140.136V140.035C37.9336 136.373 40.0916 132.996 44.0092 130.523C47.6058 128.264 52.3319 127.016 57.3136 127.016H88.8617C93.8433 127.016 98.5754 128.258 102.166 130.523C106.084 132.984 108.242 136.361 108.242 140.035V140.136H108.248C108.248 140.724 108.01 141.295 107.594 141.711C107.172 142.127 106.608 142.365 106.014 142.365ZM42.8809 137.906H103.303C101.603 134.262 95.682 131.486 88.8693 131.486H57.3151C50.5023 131.498 44.5811 134.274 42.8809 137.906Z" fill="#663366"/>
<path d="M138.947 102.701H7.23508C6.00452 102.701 5.00586 101.702 5.00586 100.465C5.00586 99.2349 6.00458 98.2422 7.23508 98.2422H138.947C140.178 98.2422 141.171 99.235 141.171 100.465C141.171 101.702 140.178 102.701 138.947 102.701Z" fill="#663366"/>
<path d="M37.779 93.5936C37.4342 93.5936 37.0894 93.5639 36.7446 93.5104C31.6916 92.69 28.6419 86.2697 27.1201 73.2986C26.1986 65.3802 28.9332 58.2821 35.0325 52.7535C40.8287 47.4983 49.4188 43.7888 59.8632 42.0172V42.0232C69.7315 40.3765 79.8193 40.5905 89.6049 42.6593V42.6652C90.1993 42.7781 90.7165 43.1229 91.0494 43.6223C91.3764 44.1276 91.4894 44.7399 91.3645 45.3285C91.2337 45.911 90.877 46.4223 90.3658 46.7433C89.8545 47.0584 89.2422 47.1595 88.6537 47.0168H88.6596C79.4274 45.0729 69.9164 44.8707 60.6057 46.4223C51.1297 48.0274 43.1165 51.4516 38.0152 56.0647C32.9205 60.6838 30.7864 66.2718 31.5473 72.764C33.2535 87.3287 36.5052 88.9581 37.4564 89.1118C38.1936 89.2307 40.9994 89.0286 46.1833 81.3598H46.1893C48.163 78.3874 49.9344 75.2842 51.4861 72.074C51.8547 71.2893 52.6453 70.7899 53.5073 70.7959H92.6708C93.5328 70.7959 94.3175 71.2893 94.692 72.074C96.2495 75.302 98.027 78.4171 100.013 81.4013C105.179 89.0284 107.979 89.2305 108.716 89.1117C109.667 88.9571 112.925 87.3282 114.625 72.7639H114.631C114.934 70.3087 114.762 67.8238 114.131 65.4399C113.81 64.251 114.512 63.0264 115.701 62.7053C116.89 62.3783 118.114 63.0858 118.435 64.2746C119.214 67.2054 119.428 70.267 119.06 73.281C117.538 86.2643 114.476 92.6908 109.429 93.4928C105.422 94.1467 101.124 90.9842 96.2912 83.8384L96.2972 83.8444C94.4484 81.0741 92.7719 78.1969 91.2798 75.2244H54.8982C53.4001 78.1908 51.7297 81.0741 49.8808 83.8444C45.4639 90.3896 41.4868 93.5937 37.7773 93.5937L37.779 93.5936Z" fill="#663366"/>
<path d="M77.0862 55.435H69.0905C67.86 55.435 66.8613 54.4363 66.8613 53.2058C66.8613 51.9752 67.86 50.9766 69.0905 50.9766H77.0862C78.3168 50.9766 79.3155 51.9753 79.3155 53.2058C79.3155 54.4363 78.3167 55.435 77.0862 55.435Z" fill="#663366"/>
<path d="M77.0862 65.2008H69.0905C67.86 65.2008 66.8613 64.2021 66.8613 62.9655C66.8613 61.7349 67.86 60.7422 69.0905 60.7422H77.0862C78.3168 60.7422 79.3155 61.735 79.3155 62.9655C79.3155 64.202 78.3167 65.2008 77.0862 65.2008Z" fill="#663366"/>
<path d="M95.7406 57.318H94.6943C93.4578 57.318 92.459 56.3252 92.459 55.0947C92.459 53.8582 93.4577 52.8594 94.6943 52.8594H95.7406C96.9711 52.8594 97.9639 53.8581 97.9639 55.0947C97.9639 56.3252 96.9711 57.318 95.7406 57.318Z" fill="#663366"/>
<path d="M95.7406 67.4623H94.6943C93.4578 67.4623 92.459 66.4636 92.459 65.2331C92.459 64.0026 93.4577 63.0039 94.6943 63.0039H95.7406C96.9711 63.0039 97.9639 64.0026 97.9639 65.2331C97.9639 66.4637 96.9711 67.4623 95.7406 67.4623Z" fill="#663366"/>
<path d="M89.1298 62.8303C87.8933 62.8303 86.8945 61.8316 86.8945 60.6011V59.7331C86.8945 58.5026 87.8933 57.5039 89.1298 57.5039C90.3604 57.5039 91.3531 58.5026 91.3531 59.7331V60.6011C91.3531 61.8316 90.3544 62.8303 89.1298 62.8303Z" fill="#663366"/>
<path d="M54.9243 63.2827H44.8776C43.647 63.2827 42.6543 62.2839 42.6543 61.0534C42.6543 59.8229 43.6471 58.8242 44.8776 58.8242H54.9243C56.1548 58.8242 57.1476 59.8229 57.1476 61.0534C57.1476 62.284 56.1548 63.2827 54.9243 63.2827Z" fill="#663366"/>
<path d="M49.9011 67.4594C48.6705 67.4594 47.6719 66.4607 47.6719 65.2302V56.8659C47.6719 55.6354 48.6706 54.6367 49.9011 54.6367C51.1316 54.6367 52.1303 55.6354 52.1303 56.8659V65.2362C52.1244 66.4667 51.1316 67.4594 49.9011 67.4594Z" fill="#663366"/>
</svg>
