<svg width="150" height="150" viewBox="0 0 150 150" fill="none" xmlns="http://www.w3.org/2000/svg">
<path d="M103.434 21.2862C96.8023 14.3363 87.455 10 77.1135 10C68.8141 10 61.1564 12.7949 55.0273 17.4904" stroke="#663366" stroke-width="4.22535" stroke-miterlimit="10" stroke-linecap="round" stroke-linejoin="round"/>
<path d="M48.0764 24.4844C43.4643 30.5827 40.7246 38.172 40.7246 46.3897" stroke="#663366" stroke-width="4.22535" stroke-miterlimit="10" stroke-linecap="round" stroke-linejoin="round"/>
<path d="M102.219 37.4765C98.5445 27.1557 88.678 19.7461 77.1121 19.7461C62.422 19.7461 50.4707 31.6974 50.4707 46.3875" stroke="#663366" stroke-width="4.22535" stroke-miterlimit="10" stroke-linecap="round" stroke-linejoin="round"/>
<path d="M94.0075 46.3868C94.0075 37.0561 86.4435 29.4922 77.1131 29.4922C67.7827 29.4922 60.2188 37.0561 60.2188 46.3868" stroke="#663366" stroke-width="4.22535" stroke-miterlimit="10" stroke-linecap="round" stroke-linejoin="round"/>
<path d="M77.112 49.4466C79.7324 49.4466 81.8568 47.3223 81.8568 44.7018C81.8568 42.0813 79.7324 39.957 77.112 39.957C74.4915 39.957 72.3672 42.0813 72.3672 44.7018C72.3672 47.3223 74.4915 49.4466 77.112 49.4466Z" stroke="#663366" stroke-width="4.22535" stroke-miterlimit="10" stroke-linecap="round" stroke-linejoin="round"/>
<path d="M130.388 130.988V61.1355C130.388 58.802 128.496 56.9102 126.163 56.9102H64.0625" stroke="#663366" stroke-width="4.22535" stroke-miterlimit="10" stroke-linecap="round" stroke-linejoin="round"/>
<path d="M36.0775 56.9102H23.8367C21.5032 56.9102 19.6113 58.802 19.6113 61.1355V130.988" stroke="#663366" stroke-width="4.22535" stroke-miterlimit="10" stroke-linecap="round" stroke-linejoin="round"/>
<path d="M35.9866 65.4062H29.5159C28.7381 65.4062 28.1074 66.037 28.1074 66.8147V121.085C28.1074 121.863 28.7381 122.494 29.5159 122.494H120.485C121.263 122.494 121.894 121.863 121.894 121.085V88.3798" stroke="#663366" stroke-width="4.22535" stroke-miterlimit="10" stroke-linecap="round" stroke-linejoin="round"/>
<path d="M121.893 78.5206V66.8147C121.893 66.037 121.262 65.4062 120.484 65.4062H64.1543" stroke="#663366" stroke-width="4.22535" stroke-miterlimit="10" stroke-linecap="round" stroke-linejoin="round"/>
<path d="M45.1408 130.988H7.8169C6.26113 130.988 5 132.249 5 133.805V138.026C5 139.582 6.26113 140.843 7.8169 140.843H142.183C143.739 140.843 145 139.582 145 138.026V133.805C145 132.249 143.739 130.988 142.183 130.988H55" stroke="#663366" stroke-width="4.22535" stroke-miterlimit="10" stroke-linecap="round" stroke-linejoin="round"/>
<path d="M60.9156 81.8278C60.9156 79.9272 62.3252 78.3602 64.1551 78.1039V57.6317C64.1551 55.9884 62.8229 54.6562 61.1796 54.6562H38.9618C37.3184 54.6562 35.9863 55.9884 35.9863 57.6317V79.8495C35.9863 81.4929 37.3184 82.825 38.9618 82.825H60.9156V81.8278Z" stroke="#663366" stroke-width="4.22535" stroke-miterlimit="10" stroke-linecap="round" stroke-linejoin="round"/>
<path d="M43.3262 62.1211H56.8157" stroke="#663366" stroke-width="4.22535" stroke-miterlimit="10" stroke-linecap="round" stroke-linejoin="round"/>
<path d="M43.3262 68.7422H56.8157" stroke="#663366" stroke-width="4.22535" stroke-miterlimit="10" stroke-linecap="round" stroke-linejoin="round"/>
<path d="M43.3262 75.3594H52.405" stroke="#663366" stroke-width="4.22535" stroke-miterlimit="10" stroke-linecap="round" stroke-linejoin="round"/>
<path d="M106.338 93.8984H98.8661C98.461 93.8984 98.1328 94.2266 98.1328 94.6317V111.944C98.1328 112.349 98.461 112.678 98.8661 112.678H111.484C111.889 112.678 112.217 112.349 112.217 111.944V99.777C112.217 99.5827 112.14 99.3959 112.003 99.2584L106.857 94.1128C106.719 93.9756 106.533 93.8984 106.338 93.8984Z" stroke="#663366" stroke-width="4.22535" stroke-miterlimit="10" stroke-linecap="round" stroke-linejoin="round"/>
<path d="M45.9888 93.8984H38.5164C38.1114 93.8984 37.7832 94.2266 37.7832 94.6317V111.944C37.7832 112.349 38.1114 112.678 38.5164 112.678H51.1345C51.5395 112.678 51.8677 112.349 51.8677 111.944V99.777C51.8677 99.5827 51.7905 99.3959 51.6531 99.2584L46.5074 94.1128C46.37 93.9756 46.1835 93.8984 45.9888 93.8984Z" stroke="#663366" stroke-width="4.22535" stroke-miterlimit="10" stroke-linecap="round" stroke-linejoin="round"/>
<path d="M85.3202 106.232H64.6808C62.6017 106.232 60.916 104.546 60.916 102.467V81.8273C60.916 79.7481 62.6017 78.0625 64.6808 78.0625H85.3202C87.3994 78.0625 89.085 79.7481 89.085 81.8273V102.467C89.085 104.546 87.3994 106.232 85.3202 106.232Z" stroke="#663366" stroke-width="4.22535" stroke-miterlimit="10" stroke-linecap="round" stroke-linejoin="round"/>
<path d="M80.8102 91.3059L70.0325 85.9172C69.4054 85.6037 68.668 86.0597 68.668 86.7606V97.538C68.668 98.2389 69.4054 98.6949 70.0325 98.3814L80.8102 92.9927C81.5052 92.6451 81.5052 91.6532 80.8102 91.3059Z" stroke="#663366" stroke-width="4.22535" stroke-miterlimit="10" stroke-linecap="round" stroke-linejoin="round"/>
<path d="M105.194 48.8719H127.412C129.055 48.8719 130.387 47.5397 130.387 45.8964V23.6786C130.387 22.0352 129.055 20.7031 127.412 20.7031H105.194C103.551 20.7031 102.219 22.0352 102.219 23.6786V45.8964C102.219 47.5397 103.551 48.8719 105.194 48.8719Z" stroke="#663366" stroke-width="4.22535" stroke-miterlimit="10" stroke-linecap="round" stroke-linejoin="round"/>
<path d="M102.219 45.8951V42.9064L108.811 36.314C109.198 35.9267 109.827 35.9267 110.214 36.314L114.495 40.5946C114.882 40.9819 115.51 40.9819 115.897 40.5946L122.393 34.0991C122.78 33.7118 123.408 33.7118 123.796 34.0991L130.388 40.6915V45.8954C130.388 47.5388 129.056 48.8709 127.413 48.8709H105.195C103.551 48.8706 102.219 47.5385 102.219 45.8951Z" stroke="#663366" stroke-width="4.22535" stroke-miterlimit="10" stroke-linecap="round" stroke-linejoin="round"/>
</svg>
