<svg width="150" height="150" viewBox="0 0 150 150" fill="none" xmlns="http://www.w3.org/2000/svg">
<path fill-rule="evenodd" clip-rule="evenodd" d="M116.349 10.9681C119.937 10.9681 122.855 13.8881 122.855 17.4757C122.855 21.0634 119.937 23.9833 116.349 23.9833C112.76 23.9833 109.842 21.0634 109.842 17.4757C109.842 13.8881 112.76 10.9681 116.349 10.9681ZM116.349 27.9496C122.125 27.9496 126.823 23.2511 126.823 17.4757C126.823 11.7003 122.125 7 116.349 7C110.572 7 105.874 11.7003 105.874 17.4757C105.874 23.2511 110.572 27.9496 116.349 27.9496ZM34.9484 10.9681C38.536 10.9681 41.456 13.8881 41.456 17.4757C41.456 21.0634 38.536 23.9833 34.9484 23.9833C31.3607 23.9833 28.4408 21.0634 28.4408 17.4757C28.4408 13.8881 31.3607 10.9681 34.9484 10.9681ZM34.9484 27.9496C40.7238 27.9496 45.4223 23.2511 45.4223 17.4757C45.4223 11.7003 40.7238 7 34.9484 7C29.173 7 24.4745 11.7003 24.4745 17.4757C24.4745 23.2511 29.173 27.9496 34.9484 27.9496ZM121.532 94.1045H130.87C133.586 94.1045 135.795 91.8952 135.795 89.178V83.5588C135.795 80.8416 133.586 78.6323 130.87 78.6323H121.837L128.408 73.3755C128.878 72.9987 129.149 72.4297 129.149 71.8267V66.5036C131.043 65.0266 132.206 62.7724 132.333 60.389H136.708C139.094 60.389 141.034 62.3309 141.034 64.7143V107.367H121.532V94.1045ZM111.34 107.367C111.231 107.125 111.105 106.886 110.963 106.655L103.49 94.3037C102.989 93.4773 103.916 92.9707 104.556 92.4587C105.461 93.4709 106.773 94.1045 108.228 94.1045H117.564V107.367H111.34ZM108.228 90.1363H130.87C131.389 90.1363 131.829 89.6984 131.829 89.178V83.5588C131.829 83.0401 131.389 82.6004 130.87 82.6004H116.879L107.683 89.9569C107.841 90.0681 108.027 90.1363 108.228 90.1363ZM107.937 111.16C108.147 110.314 108.016 109.444 107.568 108.708L100.095 96.3586C98.8365 94.2786 99.3174 91.5667 101.218 90.0484L125.183 70.8737V67.8156L115.377 69.5565L93.6229 87.8212C93.6102 87.832 93.5995 87.8409 93.5869 87.8499C91.1587 89.7935 90.5664 93.1335 92.1763 95.7933L102.022 112.066C103.51 114.522 107.254 113.96 107.937 111.16ZM58.967 107.367L64.4875 92.2236C66.4007 86.9777 60.7886 81.8699 55.365 76.9291C51.623 73.5245 47.3839 69.6641 47.3839 67.0815V60.389H100.109C100.087 60.4196 100.062 60.4446 100.039 60.4734C98.5171 62.4276 98.3296 65.2309 99.4521 67.3956L87.3108 76.7891C84.3965 79.0451 83.8583 83.2534 86.1137 86.1701L88.0844 88.7149C86.8621 91.5955 87.0362 94.9641 88.7807 97.8465L94.5435 107.367H58.967ZM53.075 111.951L60.7617 90.865C61.7613 88.1191 56.9443 83.7329 52.6926 79.8634C47.9223 75.5202 43.4158 71.4175 43.4158 67.0815V52.7884C43.4158 51.1338 45.3377 50.2044 46.6337 51.2342L53.1683 56.4227H68.671C70.0996 56.4227 71.259 55.2615 71.259 53.8348C71.259 52.4062 70.0996 51.2468 68.671 51.2468H55.286C54.6004 51.2468 53.9633 50.8915 53.599 50.3064L44.8839 36.2322C44.3149 35.3151 42.994 34.888 40.7238 34.888H30.2175C26.5599 34.888 23.5807 37.8654 23.5807 41.5267V67.3345C23.5807 71.4067 24.5247 77.4064 25.5584 78.6323L36.4254 78.6269C37.8606 78.661 39.754 79.4088 41.0593 80.208C41.1922 80.2888 41.3142 80.3857 41.4219 80.4952L50.749 89.8294C52.3948 91.4788 52.9332 93.4045 52.262 95.2495L46.9819 109.731C46.7127 110.476 46.7468 111.285 47.0842 112.008C47.5814 113.076 48.3041 113.387 49.2522 113.731C50.7975 114.293 52.5114 113.496 53.075 111.951ZM43.6204 107.367L48.5326 93.8909C48.6797 93.4889 48.2902 92.9845 47.9403 92.6328L46.3358 91.0265C45.6017 92.8302 43.8322 94.1045 41.7737 94.1045H32.4376V107.367H43.6204ZM8.96635 107.367V64.7143C8.96635 62.3309 10.9082 60.389 13.2934 60.389H19.6144V67.3345C19.6144 69.7538 20.0489 75.3021 21.2116 78.6323H19.1352C16.4162 78.6323 14.2069 80.8416 14.2069 83.5588V89.178C14.2069 91.8952 16.4162 94.1045 19.1352 94.1045H28.4695V107.367H8.96635ZM19.1352 90.1363C18.6129 90.1363 18.1732 89.6984 18.1732 89.178V83.5588C18.1732 83.0401 18.6129 82.6004 19.1352 82.6004H36.3339C37.1936 82.7242 37.9832 83.0024 38.7891 83.4708L42.7302 87.4174V89.178C42.7302 89.6984 42.2905 90.1363 41.7737 90.1363H19.1352ZM65.8461 33.0502H78.6927L71.302 47.8315C70.4962 47.4761 69.606 47.2787 68.671 47.2787H58.7282L65.8461 33.0502ZM110.093 57.0868L106.222 57.6431V52.2769H110.093V57.0868ZM91.0887 84.7684C90.8733 84.9425 90.6651 85.1237 90.4677 85.3122L89.2509 83.7418C88.3379 82.5608 88.5574 80.8409 89.739 79.9263L102.277 70.224C104.335 71.288 105.811 70.9477 107.905 70.6476L91.0887 84.7684ZM80.8175 53.8348C80.8175 55.2615 81.9806 56.4227 83.4056 56.4227H102.254V50.292C102.254 49.1972 103.144 48.3088 104.239 48.3088H112.078C113.171 48.3088 114.061 49.1972 114.061 50.292V56.5645L118.137 55.8879V47.2392C118.137 46.1444 119.027 45.256 120.12 45.256C121.216 45.256 122.105 46.1444 122.105 47.2392V56.1338C122.105 57.9411 120.755 59.4773 118.896 59.786L103.802 62.2825C103.58 62.4386 103.382 62.6288 103.216 62.8532C102.799 63.4077 102.623 64.0897 102.718 64.7681C102.923 66.1806 104.235 67.1623 105.649 66.9631L114.192 65.7373L126.452 63.5621C127.821 62.6522 128.571 61.01 128.336 59.375L128.209 37.5119C128.203 36.2394 127.466 34.888 126.112 34.888H111.462C109.109 34.888 106.981 36.7204 105.913 38.5348L99.0177 50.2669C98.6642 50.8735 98.0127 51.2468 97.3091 51.2468H83.4056C81.9806 51.2468 80.8175 52.4062 80.8175 53.8348ZM145 64.7143C145 60.1414 141.281 56.4227 136.708 56.4227H132.27L132.177 37.4921C132.159 33.8076 129.495 30.9199 126.112 30.9199H111.462C108.013 30.9199 104.493 33.1202 102.492 36.5247L96.1731 47.2787H83.4056C78.6764 47.2787 75.5355 52.1387 77.3825 56.4227H74.694C75.5109 54.5282 75.3827 52.3619 74.3584 50.5827L83.6748 31.9537C84.3342 30.6386 83.3701 29.0839 81.8998 29.0839H64.6185C63.8665 29.0839 63.1809 29.5074 62.8435 30.1787L55.2322 45.405L48.258 34.1432C46.2586 30.9199 42.0931 30.9199 40.7238 30.9199H30.2175C24.3721 30.9199 19.6144 35.6777 19.6144 41.5267V56.4227H13.2934C8.72052 56.4227 5 60.1414 5 64.7143V131.664C5 132.759 5.88845 133.647 6.98319 133.647C8.07974 133.647 8.96819 132.759 8.96819 131.664V111.335H28.4695V127.057L12.8519 138.872C11.3341 140.019 12.1622 142.438 14.0508 142.438C14.4671 142.438 14.8871 142.307 15.2461 142.036L30.4544 130.532L45.6592 142.036C46.535 142.698 47.7788 142.524 48.4392 141.65C49.0996 140.776 48.9256 139.532 48.0533 138.872L32.4376 127.057V111.335H42.8576C43.0983 114.024 44.8365 116.342 47.4037 117.28C48.4337 117.656 49.1269 117.881 50.2698 117.881C53.1653 117.881 55.7962 116.068 56.8025 113.31L57.5222 111.335H96.943L98.6301 114.119C101.935 119.583 110.258 118.349 111.791 112.107C111.853 111.851 111.902 111.592 111.936 111.335H117.564V127.057L101.949 138.872C101.076 139.532 100.902 140.776 101.563 141.65C102.227 142.524 103.47 142.696 104.343 142.036L119.547 130.532L134.756 142.036C135.628 142.694 136.871 142.529 137.536 141.65C138.196 140.776 138.022 139.532 137.15 138.872L121.532 127.057V111.335H141.034V131.664C141.034 132.759 141.924 133.647 143.017 133.647C144.113 133.647 145 132.759 145 131.664V64.7143Z" fill="#663366"/>
</svg>
