<svg width="150" height="150" viewBox="0 0 150 150" fill="none" xmlns="http://www.w3.org/2000/svg">
<mask id="mask0_258_307" style="mask-type:luminance" maskUnits="userSpaceOnUse" x="10" y="10" width="130" height="130">
<path d="M139.873 139.873V10.127H10.127V139.873H139.873Z" fill="white" stroke="white" stroke-width="0.253906"/>
</mask>
<g mask="url(#mask0_258_307)">
<path d="M102.445 110.48C102.445 125.637 90.158 137.924 75.0011 137.924C59.8439 137.924 47.5566 125.637 47.5566 110.48C47.5566 95.3224 59.8439 83.0351 75.0011 83.0351C90.158 83.0351 102.445 95.3224 102.445 110.48Z" stroke="#663366" stroke-width="3.80859" stroke-miterlimit="10" stroke-linecap="round" stroke-linejoin="round"/>
<path d="M88.4677 93.5246C87.0143 87.5045 81.5957 83.0309 75.1289 83.0309C67.5491 83.0309 61.4043 89.1757 61.4043 96.7558C61.4043 104.336 67.5491 110.48 75.1289 110.48C80.9881 110.48 85.9867 106.808 87.9558 101.64" stroke="#663366" stroke-width="3.80859" stroke-miterlimit="10" stroke-linecap="round" stroke-linejoin="round"/>
<path d="M97.3795 126.371C97.3922 126.062 97.4003 125.752 97.4003 125.441C97.4003 116.885 92.6027 109.451 85.5518 105.678" stroke="#663366" stroke-width="3.80859" stroke-miterlimit="10" stroke-linecap="round" stroke-linejoin="round"/>
<path d="M64.6243 105.587C57.4781 109.329 52.6016 116.815 52.6016 125.441C52.6016 125.752 52.6097 126.062 52.6221 126.371" stroke="#663366" stroke-width="3.80859" stroke-miterlimit="10" stroke-linecap="round" stroke-linejoin="round"/>
<path d="M104.311 129.701C107.756 131.974 111.881 133.301 116.317 133.301C128.378 133.301 138.155 123.524 138.155 111.463C138.155 99.402 128.378 89.6248 116.317 89.6248C112.253 89.6248 108.451 90.7387 105.192 92.6722" stroke="#663366" stroke-width="3.80859" stroke-miterlimit="10" stroke-linecap="round" stroke-linejoin="round"/>
<path d="M110.045 109.406C111.839 110.698 114.039 111.461 116.418 111.461C122.449 111.461 127.339 106.571 127.339 100.54C127.339 94.5084 122.449 89.6187 116.418 89.6187C112.191 89.6187 108.529 92.0211 106.713 95.5331" stroke="#663366" stroke-width="3.80859" stroke-miterlimit="10" stroke-linecap="round" stroke-linejoin="round"/>
<path d="M134.123 124.107C134.134 123.862 134.14 123.615 134.14 123.367C134.14 116.559 130.322 110.644 124.712 107.642" stroke="#663366" stroke-width="3.80859" stroke-miterlimit="10" stroke-linecap="round" stroke-linejoin="round"/>
<path d="M45.6921 129.7C42.2466 131.972 38.1219 133.299 33.6854 133.299C21.6248 133.299 11.8477 123.522 11.8477 111.461C11.8477 99.4003 21.6248 89.6231 33.6854 89.6231C37.7496 89.6231 41.5519 90.737 44.8108 92.6705" stroke="#663366" stroke-width="3.80859" stroke-miterlimit="10" stroke-linecap="round" stroke-linejoin="round"/>
<path d="M39.9579 109.406C38.164 110.698 35.9642 111.461 33.5851 111.461C27.5535 111.461 22.6641 106.571 22.6641 100.54C22.6641 94.5084 27.5535 89.6189 33.5851 89.6189C37.8113 89.6189 41.4742 92.0211 43.2899 95.5334" stroke="#663366" stroke-width="3.80859" stroke-miterlimit="10" stroke-linecap="round" stroke-linejoin="round"/>
<path d="M15.8798 124.107C15.8696 123.862 15.8633 123.615 15.8633 123.367C15.8633 116.559 19.6808 110.644 25.2913 107.642" stroke="#663366" stroke-width="3.80859" stroke-miterlimit="10" stroke-linecap="round" stroke-linejoin="round"/>
<path d="M52.1364 39.9172C51.8721 41.3279 51.7324 42.7823 51.7324 44.2697C51.7324 48.3718 52.7849 52.2279 54.633 55.5843H54.632L63.712 71.6037C63.8798 71.9 63.9682 72.2347 63.9682 72.5752V76.4609H86.478V72.5752C86.478 72.2347 86.5661 71.9 86.7339 71.6037L95.8138 55.5843H95.8128C97.6689 52.2137 98.7226 48.339 98.7135 44.2174C98.6858 31.3801 88.22 20.8651 75.3833 20.7796C66.7065 20.7217 59.1122 25.3692 54.9966 32.3198" stroke="#663366" stroke-width="3.80859" stroke-miterlimit="10" stroke-linecap="round" stroke-linejoin="round"/>
<path d="M63.9695 76.4604H63.8674C62.507 76.4604 61.4043 77.5631 61.4043 78.9236V86.6367" stroke="#663366" stroke-width="3.80859" stroke-miterlimit="10" stroke-linecap="round" stroke-linejoin="round"/>
<path d="M86.0342 76.4604H86.1363C87.4967 76.4604 88.5994 77.5631 88.5994 78.9236V86.6367" stroke="#663366" stroke-width="3.80859" stroke-miterlimit="10" stroke-linecap="round" stroke-linejoin="round"/>
<path d="M75.283 11.98L75.2617 14.416" stroke="#663366" stroke-width="3.80859" stroke-miterlimit="10" stroke-linecap="round" stroke-linejoin="round"/>
<path d="M48.2637 21.8154L49.8272 23.6836" stroke="#663366" stroke-width="3.80859" stroke-miterlimit="10" stroke-linecap="round" stroke-linejoin="round"/>
<path d="M102.303 21.8154L100.739 23.6836" stroke="#663366" stroke-width="3.80859" stroke-miterlimit="10" stroke-linecap="round" stroke-linejoin="round"/>
<path d="M106.713 43.0059H109.999" stroke="#663366" stroke-width="3.80859" stroke-miterlimit="10" stroke-linecap="round" stroke-linejoin="round"/>
<path d="M43.5439 43.0059H40.2578" stroke="#663366" stroke-width="3.80859" stroke-miterlimit="10" stroke-linecap="round" stroke-linejoin="round"/>
<path d="M78.8339 76.207V57.6013C78.8339 57.4337 78.8847 57.2699 78.9794 57.1321L86.4958 46.1831C86.7217 45.8538 86.6809 45.4102 86.3983 45.1276L82.1423 40.8714C81.8183 40.5477 81.2935 40.5477 80.9695 40.8714L79.3293 42.5116C79.0431 42.7978 78.5924 42.8356 78.2626 42.6015L75.4813 40.6261C75.1939 40.422 74.8085 40.422 74.521 40.6261L71.7397 42.6015C71.4099 42.8356 70.9592 42.7978 70.6733 42.5116L69.0329 40.8714C68.7091 40.5477 68.184 40.5477 67.8603 40.8714L63.6041 45.1276C63.3217 45.4102 63.2809 45.8538 63.5068 46.1831L71.023 57.1321C71.1179 57.2699 71.1687 57.4337 71.1687 57.6013V60.8635" stroke="#663366" stroke-width="3.80859" stroke-miterlimit="10" stroke-linecap="round" stroke-linejoin="round"/>
<path d="M71.1689 68.9788V76.207" stroke="#663366" stroke-width="3.80859" stroke-miterlimit="10" stroke-linecap="round" stroke-linejoin="round"/>
<path d="M26.4805 76.0918L38.9343 60.1282" stroke="#663366" stroke-width="3.80859" stroke-miterlimit="10" stroke-linecap="round" stroke-linejoin="round"/>
<path d="M32.3066 61.8251L38.9331 60.1285L38.8998 66.9688" stroke="#663366" stroke-width="3.80859" stroke-miterlimit="10" stroke-linecap="round" stroke-linejoin="round"/>
<path d="M123.777 76.0918L111.323 60.1282" stroke="#663366" stroke-width="3.80859" stroke-miterlimit="10" stroke-linecap="round" stroke-linejoin="round"/>
<path d="M117.95 61.8251L111.323 60.1285L111.357 66.9688" stroke="#663366" stroke-width="3.80859" stroke-miterlimit="10" stroke-linecap="round" stroke-linejoin="round"/>
</g>
</svg>
