<svg width="150" height="150" viewBox="0 0 150 150" fill="none" xmlns="http://www.w3.org/2000/svg">
<path d="M138.046 72.7425C138.336 72.7425 138.628 72.6646 138.895 72.5024C139.657 72.0318 139.894 71.0339 139.425 70.2712L102.805 10.7724C102.51 10.2953 101.991 10.0032 101.429 10H101.423C100.865 10 100.346 10.2872 100.049 10.761L74.9464 50.7801L50.3229 10.7724C50.0276 10.2953 49.5084 10.0032 48.9469 10H48.9404C48.3822 10 47.863 10.2872 47.5661 10.761L10.2487 70.2582C9.7716 71.0176 10.002 72.0188 10.7598 72.4942C11.0275 72.663 11.3261 72.7425 11.6198 72.7425C12.1601 72.7425 12.6875 72.4731 12.9958 71.9815L30.1357 44.6563L34.9306 51.533C35.5391 52.4044 36.9848 52.4044 37.5933 51.533L42.4239 44.6076L47.2496 51.533C47.8549 52.4044 49.3071 52.4044 49.9124 51.533L54.7316 44.6092L59.5557 51.533C59.8592 51.9679 60.3557 52.2275 60.8863 52.2275C61.4169 52.2275 61.915 51.9679 62.2168 51.5314L67.1983 44.3756L73.0252 53.8437L62.7312 70.255C62.2542 71.0144 62.4846 72.0156 63.2424 72.491C64.0034 72.9664 65.0045 72.7393 65.4783 71.9782L82.6183 44.653L87.4132 51.5298C88.0216 52.4011 89.4707 52.4011 90.0759 51.5298L94.9049 44.6044L99.7306 51.5298C100.336 52.4011 101.788 52.4011 102.393 51.5298L107.214 44.606L112.037 51.5298C112.34 51.9663 112.837 52.2259 113.367 52.2259C113.898 52.2259 114.396 51.9663 114.698 51.5298L119.681 44.3739L136.663 71.9669C136.968 72.4683 137.501 72.7425 138.046 72.7425ZM60.8847 47.7669L56.0606 40.8431C55.4553 39.9734 54.0031 39.9717 53.3978 40.8431L48.5786 47.7669L43.7529 40.8431C43.4494 40.4082 42.9529 40.1486 42.4223 40.1486C41.8917 40.1486 41.3952 40.4082 41.0917 40.8431L36.2611 47.7701L32.0082 41.6706L48.9291 14.6975L65.342 41.3639L60.8847 47.7669ZM113.366 47.7669L108.543 40.8431C107.938 39.9717 106.486 39.9717 105.88 40.8431L101.06 47.7669L96.2338 40.8415C95.9304 40.4066 95.4338 40.147 94.9032 40.147C94.3726 40.147 93.8745 40.4066 93.5727 40.8415L88.7437 47.7685L84.4908 41.669L101.41 14.6959L117.823 41.3623L113.366 47.7669Z" fill="#663366"/>
<path d="M133.476 85.4438C133.793 85.7732 134.218 85.9387 134.643 85.9387C135.049 85.9387 135.456 85.7878 135.769 85.4827C136.413 84.8596 136.431 83.8325 135.808 83.1883L124.625 71.614C124.622 71.6108 124.618 71.6108 124.615 71.6076C124.321 71.3074 123.913 71.1191 123.458 71.1191C123.004 71.1191 122.595 71.3074 122.301 71.6076C122.298 71.6108 122.295 71.6108 122.292 71.614L111.108 83.1883C110.485 83.8325 110.503 84.8596 111.147 85.4827C111.79 86.1058 112.82 86.0896 113.44 85.4438L121.834 76.7562V83.5063L111.108 94.6084C110.485 95.2526 110.503 96.2797 111.147 96.9028C111.79 97.5259 112.82 97.5097 113.44 96.8639L121.834 88.1763V94.9265L111.108 106.03C110.485 106.674 110.503 107.701 111.147 108.325C111.79 108.948 112.82 108.93 113.44 108.286L121.834 99.598V120.759C121.834 121.655 122.559 122.381 123.457 122.381C124.354 122.381 125.079 121.655 125.079 120.759V99.5964L133.473 108.284C133.79 108.613 134.215 108.779 134.64 108.779C135.045 108.779 135.453 108.628 135.766 108.323C136.41 107.7 136.428 106.673 135.805 106.029L125.079 94.9248V88.1747L133.473 96.8623C133.79 97.1917 134.215 97.3572 134.64 97.3572C135.045 97.3572 135.453 97.2063 135.766 96.9012C136.41 96.2781 136.428 95.251 135.805 94.6068L125.079 83.5047V76.7546L133.476 85.4438Z" fill="#663366"/>
<path d="M13.5577 122.977C12.9347 123.621 12.9525 124.648 13.5951 125.271C14.2393 125.894 15.2696 125.878 15.8895 125.232L24.8367 115.972V138.377C24.8367 139.273 25.562 140 26.4593 140C27.3567 140 28.082 139.273 28.082 138.377V115.972L37.0292 125.232C37.3456 125.562 37.7707 125.727 38.1959 125.727C38.6015 125.727 39.0088 125.576 39.3236 125.271C39.9662 124.648 39.984 123.621 39.3609 122.977L28.082 111.302V103.987L37.0292 113.247C37.3456 113.577 37.7707 113.742 38.1959 113.742C38.6015 113.742 39.0088 113.591 39.322 113.286C39.9662 112.663 39.984 111.636 39.3609 110.992L28.082 99.3171V92.0023L37.0292 101.263C37.3456 101.592 37.7707 101.758 38.1959 101.758C38.6015 101.758 39.0088 101.607 39.322 101.302C39.9662 100.679 39.984 99.6514 39.3609 99.0072L27.626 86.8601C27.6228 86.8569 27.6195 86.8569 27.6163 86.8537C27.3226 86.5535 26.9137 86.3652 26.4593 86.3652C26.005 86.3652 25.5977 86.5535 25.3024 86.8537C25.2991 86.8569 25.2959 86.8569 25.2927 86.8601L13.5577 99.0072C12.9347 99.6514 12.9525 100.679 13.5967 101.302C14.2393 101.925 15.2696 101.907 15.8895 101.263L24.8367 92.0023V99.3171L13.5577 110.992C12.9347 111.636 12.9525 112.663 13.5967 113.286C14.2393 113.91 15.2696 113.892 15.8895 113.247L24.8367 103.987V111.302L13.5577 122.977Z" fill="#663366"/>
<path d="M83.5325 78.0865C84.1669 78.0865 84.7689 77.7116 85.0285 77.0902C85.4861 76.0014 85.7182 74.8477 85.7182 73.6648V73.2867C85.7182 72.391 84.9928 71.6641 84.0955 71.6641C83.1982 71.6641 82.4729 72.391 82.4729 73.2867V73.6648C82.4729 74.4144 82.3252 75.1462 82.0364 75.8359C81.6892 76.6618 82.077 77.6127 82.9045 77.9599C83.1106 78.0443 83.3215 78.0865 83.5325 78.0865Z" fill="#663366"/>
<path d="M58.4232 90.6048C59.1437 93.1394 60.9464 95.2131 63.3658 96.2906C63.5816 96.3863 63.8055 96.4317 64.0245 96.4317C64.646 96.4317 65.2399 96.0731 65.5076 95.4679C65.8727 94.6501 65.5044 93.6895 64.6866 93.326C63.1467 92.6412 62.0027 91.3253 61.5435 89.7173C61.2985 88.854 60.3947 88.3575 59.5396 88.6009C58.678 88.8459 58.1766 89.7432 58.4232 90.6048Z" fill="#663366"/>
<path d="M60.917 125.394C60.917 126.29 61.6423 127.017 62.5396 127.017H68.8987C69.7961 127.017 70.5214 126.29 70.5214 125.394C70.5214 124.498 69.7961 123.771 68.8987 123.771H62.5396C61.6423 123.771 60.917 124.497 60.917 125.394Z" fill="#663366"/>
<path d="M66.1197 79.3394C63.4959 79.5958 61.1333 80.9912 59.6373 83.1672C59.131 83.9055 59.3176 84.9164 60.0559 85.4243C60.3366 85.6174 60.6563 85.7099 60.9727 85.7099C61.4887 85.7099 61.9966 85.4648 62.3114 85.0056C63.2639 83.6199 64.7664 82.7323 66.4361 82.57C67.3286 82.4824 67.9792 81.689 67.8916 80.7981C67.804 79.9073 67.0268 79.255 66.1197 79.3394Z" fill="#663366"/>
<path d="M51.8957 121.682C51.3294 120.987 50.3072 120.882 49.6143 121.45C48.9182 122.016 48.816 123.038 49.3823 123.733C51.0471 125.776 53.5167 126.972 56.1535 127.015C56.1633 127.015 56.173 127.015 56.1811 127.015C57.0654 127.015 57.7891 126.306 57.8037 125.42C57.8184 124.525 57.1044 123.786 56.2087 123.77C54.5293 123.744 52.9569 122.982 51.8957 121.682Z" fill="#663366"/>
<path d="M81.4154 95.2611C81.2175 96.1357 81.7659 97.0038 82.6389 97.2017C84.2761 97.5733 85.6537 98.6426 86.4213 100.134C86.7101 100.694 87.2764 101.015 87.867 101.015C88.1153 101.015 88.37 100.957 88.6069 100.835C89.4037 100.426 89.7185 99.4475 89.3095 98.6508C88.1023 96.3028 85.9328 94.6217 83.3593 94.0376C82.4718 93.8364 81.6134 94.3865 81.4154 95.2611Z" fill="#663366"/>
<path d="M57.0615 110.558C57.0615 111.454 57.7868 112.181 58.6842 112.181H65.0433C65.9406 112.181 66.6659 111.454 66.6659 110.558C66.6659 109.662 65.9406 108.936 65.0433 108.936H58.6842C57.7868 108.936 57.0615 109.662 57.0615 110.558Z" fill="#663366"/>
<path d="M51.676 110.226C49.4075 111.601 47.8806 113.884 47.4879 116.488C47.3549 117.374 47.965 118.202 48.851 118.335C48.9337 118.348 49.0165 118.352 49.0944 118.352C49.883 118.352 50.5758 117.776 50.6975 116.972C50.9442 115.323 51.9145 113.876 53.3586 113.003C54.1245 112.539 54.3695 111.541 53.9055 110.773C53.4398 110.007 52.4435 109.764 51.676 110.226Z" fill="#663366"/>
<path d="M68.6719 95.439C68.6719 96.3347 69.3972 97.0617 70.2945 97.0617H76.6536C77.5509 97.0617 78.2763 96.3347 78.2763 95.439C78.2763 94.5433 77.5509 93.8164 76.6536 93.8164H70.2945C69.3972 93.8164 68.6719 94.5417 68.6719 95.439Z" fill="#663366"/>
<path d="M73.6348 125.394C73.6348 126.29 74.3601 127.017 75.2574 127.017H81.6181C82.5155 127.017 83.2408 126.29 83.2408 125.394C83.2408 124.498 82.5155 123.771 81.6181 123.771H75.2574C74.3601 123.771 73.6348 124.497 73.6348 125.394Z" fill="#663366"/>
<path d="M86.3545 125.394C86.3545 126.29 87.0798 127.017 87.9771 127.017H94.3362C95.2336 127.017 95.9589 126.29 95.9589 125.394C95.9589 124.498 95.2336 123.771 94.3362 123.771H87.9771C87.0798 123.771 86.3545 124.497 86.3545 125.394Z" fill="#663366"/>
<path d="M79.3837 110.558C79.3837 109.662 78.6584 108.936 77.761 108.936H71.4019C70.5046 108.936 69.7793 109.662 69.7793 110.558C69.7793 111.454 70.5046 112.181 71.4019 112.181H77.761C78.6567 112.181 79.3837 111.454 79.3837 110.558Z" fill="#663366"/>
<path d="M88.8047 104.045C87.9561 103.761 87.0361 104.222 86.7521 105.072C86.2248 106.66 85.0256 107.925 83.4598 108.541C82.6241 108.869 82.2152 109.812 82.5446 110.646C82.7961 111.285 83.4079 111.674 84.0553 111.674C84.2532 111.674 84.4545 111.639 84.6492 111.561C87.114 110.59 89.0027 108.6 89.8335 106.096C90.1158 105.246 89.6566 104.327 88.8047 104.045Z" fill="#663366"/>
<path d="M100.874 123.828C99.9722 123.722 99.1787 124.368 99.0797 125.259C98.9791 126.15 99.6201 126.953 100.511 127.052C102.177 127.24 103.669 128.149 104.602 129.549C104.913 130.018 105.429 130.271 105.953 130.271C106.262 130.271 106.575 130.184 106.852 129.999C107.597 129.502 107.8 128.494 107.302 127.748C105.835 125.553 103.493 124.123 100.874 123.828Z" fill="#663366"/>
<path d="M78.4859 79.0468C77.944 79.2139 77.3777 79.2983 76.8032 79.2983H72.6363C71.739 79.2983 71.0137 80.0252 71.0137 80.9209C71.0137 81.8166 71.739 82.5436 72.6363 82.5436H76.8016C77.7022 82.5436 78.5898 82.4105 79.4416 82.1477C80.2968 81.8832 80.7771 80.9745 80.5126 80.1194C80.2513 79.261 79.3475 78.7839 78.4859 79.0468Z" fill="#663366"/>
<path d="M105.536 134.923V138.169C105.536 139.064 106.261 139.791 107.159 139.791C108.056 139.791 108.781 139.064 108.781 138.169V134.923C108.781 134.028 108.056 133.301 107.159 133.301C106.261 133.301 105.536 134.028 105.536 134.923Z" fill="#663366"/>
</svg>
