<svg width="150" height="150" viewBox="0 0 150 150" fill="none" xmlns="http://www.w3.org/2000/svg">
<path d="M75 10C39.1255 10 10 39.1255 10 75C10 110.874 39.1255 140 75 140C110.874 140 140 110.874 140 75C140 39.1255 110.874 10 75 10ZM75 14.3387C108.53 14.3387 135.683 41.4703 135.683 74.9999C135.683 108.529 108.53 135.667 75 135.667C41.4704 135.667 14.3333 108.529 14.3333 74.9999C14.3333 41.4703 41.4704 14.3387 75 14.3387ZM74.9946 18.6721C64.7517 18.6721 55.1528 21.4238 46.8771 26.2121C46.8663 26.2175 46.8555 26.2175 46.8446 26.2229C46.8392 26.2283 46.8338 26.2337 46.8284 26.2392C38.2972 31.1846 31.1799 38.2966 26.2336 46.8284H26.239C26.2336 46.8338 26.2336 46.8392 26.2282 46.8446C26.2282 46.8446 26.2282 46.8501 26.2228 46.8555C21.4291 55.143 18.6666 64.7518 18.6666 75.0062C18.6666 85.2599 21.4237 94.8688 26.2174 103.151H26.2228C26.2228 103.157 26.2282 103.168 26.2282 103.178C26.2336 103.184 26.2445 103.189 26.2499 103.195C31.1899 111.71 38.2911 118.811 46.8058 123.751V123.756C46.8221 123.767 46.8329 123.783 46.8437 123.794C46.8654 123.799 46.8817 123.799 46.8979 123.805C55.1746 128.588 64.7623 131.339 74.9946 131.339C75 131.339 75.0054 131.339 75.0108 131.345C75.0216 131.339 75.0271 131.339 75.0325 131.339C85.2429 131.334 94.8147 128.588 103.075 123.821C103.113 123.816 103.145 123.805 103.183 123.794C103.248 123.745 103.319 123.696 103.378 123.642C111.79 118.719 118.811 111.682 123.718 103.254C123.745 103.232 123.772 103.205 123.799 103.178C123.837 103.097 123.875 103.016 123.902 102.929C128.615 94.7012 131.328 85.1895 131.339 75.0446C131.339 75.0338 131.345 75.023 131.345 75.0121C131.345 74.9796 131.339 74.9471 131.334 74.9146C131.318 64.7746 128.604 55.2683 123.891 47.0454V47.0508C123.864 46.9804 123.832 46.91 123.799 46.845C123.778 46.8179 123.75 46.7962 123.729 46.7746C118.816 38.3191 111.769 31.2661 103.33 26.3379C103.281 26.3 103.232 26.262 103.178 26.2241C103.151 26.2187 103.124 26.2133 103.097 26.2025C94.8199 21.425 85.2268 18.6721 74.9946 18.6721ZM72.8387 23.0596V25.1667C72.8333 25.7463 73.0662 26.2988 73.4725 26.705C73.8787 27.1167 74.4366 27.3442 75.0108 27.3442C76.2079 27.3388 77.1775 26.3638 77.1721 25.1667V23.0597C85.0696 23.3847 92.5072 25.4647 99.1092 28.926L98.0421 30.7676C97.4463 31.8022 97.8038 33.1292 98.8438 33.7251C99.3421 34.0122 99.9325 34.088 100.49 33.9363C101.043 33.7901 101.52 33.4218 101.801 32.9234L102.858 31.098C109.32 35.2038 114.807 40.691 118.912 47.1528L117.087 48.2145H117.092C116.058 48.8103 115.695 50.1374 116.291 51.1774C116.897 52.2066 118.219 52.5586 119.254 51.9574L121.09 50.9011C124.546 57.504 126.626 64.9356 126.951 72.8271H124.849V72.8325C124.269 72.8325 123.717 73.06 123.311 73.4663C122.899 73.8779 122.672 74.4304 122.677 75.01C122.677 76.2017 123.652 77.1713 124.849 77.1659H126.951C126.626 85.0634 124.546 92.4955 121.09 99.0974L119.254 98.0358C118.214 97.4399 116.886 97.7974 116.291 98.8374C116.004 99.3358 115.928 99.9262 116.079 100.484C116.226 101.037 116.594 101.513 117.092 101.8L118.912 102.857C114.807 109.319 109.319 114.806 102.863 118.906L101.807 117.086H101.801C101.52 116.588 101.043 116.225 100.491 116.073C99.9326 115.921 99.3422 116.003 98.8439 116.29C97.8039 116.885 97.4464 118.207 98.0422 119.247L99.1039 121.083C92.501 124.539 85.0694 126.625 77.1723 126.95V124.843C77.1778 123.645 76.2082 122.676 75.0111 122.671C74.4369 122.665 73.879 122.898 73.4727 123.304C73.0665 123.71 72.8335 124.268 72.839 124.843V126.944C64.9415 126.625 57.5094 124.545 50.9074 121.089L51.9637 119.242V119.247C52.5595 118.213 52.2129 116.891 51.1783 116.29C50.1437 115.694 48.8166 116.051 48.2208 117.086L47.1537 118.922C40.6862 114.816 35.1991 109.329 31.0878 102.862L32.924 101.795L32.9294 101.8C33.4278 101.513 33.7907 101.036 33.9424 100.484C34.094 99.9259 34.0182 99.3355 33.7257 98.8372C33.444 98.3388 32.9728 97.9813 32.4203 97.8297H32.4148C31.8623 97.678 31.2719 97.7539 30.7682 98.0355L28.9211 99.108C25.4599 92.5051 23.3799 85.068 23.0603 77.1654H25.1727C26.3698 77.1708 27.3394 76.2013 27.3448 75.0096C27.3502 74.43 27.1227 73.8775 26.711 73.4658C26.3048 73.0595 25.7469 72.832 25.1727 72.832H23.0602C23.3852 64.9346 25.4652 57.4969 28.9211 50.895L30.7681 51.9566C31.8027 52.5579 33.1244 52.2058 33.7256 51.1766C34.3215 50.1366 33.964 48.8096 32.9294 48.2137L31.0877 47.1412C35.1935 40.6737 40.6861 35.1866 47.1537 31.0809L48.2262 32.9171L48.2207 32.9225C48.8166 33.9625 50.1436 34.32 51.1782 33.7242C52.2128 33.1229 52.5595 31.7959 51.9637 30.7667L50.902 28.9196C57.5049 25.4638 64.942 23.3838 72.8391 23.0642L72.8387 23.0596ZM75 31.6775C73.8083 31.6775 72.8441 32.6416 72.8441 33.8333V68.8786C70.3308 69.7777 68.5108 72.1881 68.5108 74.9994C68.5108 78.5636 71.4412 81.5103 75 81.5103C78.5641 81.5103 81.5108 78.5636 81.5108 74.9994C81.5108 72.1991 79.6908 69.7886 77.1775 68.8895V33.8332C77.1721 33.259 76.9446 32.7065 76.5329 32.3056C76.1266 31.8994 75.5742 31.6721 75 31.6775ZM75 72.8448C76.2242 72.8448 77.1775 73.7819 77.1775 75.0007C77.1775 76.2249 76.2241 77.1782 75 77.1782C73.7758 77.1782 72.8441 76.2248 72.8441 75.0007C72.8441 73.7765 73.7812 72.8448 75 72.8448Z" fill="#663366"/>
</svg>
