<svg width="150" height="150" viewBox="0 0 150 150" fill="none" xmlns="http://www.w3.org/2000/svg">
<path d="M130.546 54.8109L138.585 41.3387C141.202 36.9702 140.094 31.3599 136.047 28.2948C133.741 26.5572 130.796 25.9149 127.99 26.5389C125.173 27.1629 122.787 28.9983 121.418 31.5496L114.207 45.1442C102.961 40.684 89.0318 38.1939 74.6512 38.1939C38.3998 38.1939 10 52.9815 10 71.8683C10 109.439 39.0089 140 74.6512 140C110.293 140 139.302 109.439 139.302 71.8683C139.302 65.7929 136.266 59.9324 130.546 54.8109ZM125.55 33.7762C126.268 32.4302 127.528 31.4757 129.007 31.127C130.485 30.7967 132.031 31.127 133.242 32.0509C135.378 33.666 135.95 36.609 134.581 38.9093L111.761 77.1602C110.763 74.9515 109.905 72.6817 109.236 70.363C108.956 69.3474 108.037 68.6866 107.039 68.6561L125.55 33.7762ZM124.832 75.2817C124.601 75.8935 124.114 76.4381 123.524 76.6889C122.793 76.9887 121.826 76.8786 121.205 76.3891C120.177 75.606 118.71 75.8262 117.931 76.8724C117.152 77.9064 117.371 79.3809 118.412 80.1641C119.629 81.0695 121.138 81.559 122.647 81.559C123.548 81.559 124.473 81.3877 125.313 81.0451C126.11 80.7147 126.822 80.2314 127.43 79.6379C128.039 81.1246 128.398 82.7215 128.398 84.4162C128.398 84.4468 128.416 84.4774 128.416 84.508C126.268 86.5881 123.621 88.5337 120.536 90.3018C118.168 87.7628 116.081 84.9913 114.322 82.0485L120.743 71.2867C122.167 72.4185 123.584 73.7644 124.832 75.2817ZM74.6518 100.843H74.0737C73.7937 99.968 73.9154 98.8238 74.4935 97.9306C75.2421 96.7376 76.6904 95.8137 78.4368 95.3916C80.3355 94.9388 82.4227 95.0612 84.2179 95.2692C85.5567 95.4099 86.9623 95.6118 88.1125 96.1441C89.141 96.6152 89.9016 97.3371 90.1815 98.1019C90.4128 98.7137 90.291 99.5091 89.9016 99.8273C89.8833 99.8456 89.8833 99.8456 89.8712 99.8579C84.9968 100.5 79.9035 100.843 74.6518 100.843ZM94.5628 96.4439C93.8325 94.4861 92.226 92.8586 90.0475 91.8553C88.2888 91.0538 86.451 90.7724 84.7166 90.5888C82.5381 90.3563 79.9639 90.1973 77.3654 90.8213C74.408 91.5249 71.9738 93.1524 70.5558 95.41C69.5457 97.0251 69.1379 98.9157 69.3266 100.72C64.4644 100.5 59.7482 99.9863 55.2572 99.2154C55.4276 97.949 56.0179 96.7069 57.0038 95.7097C57.4237 95.2692 57.8131 95.0183 58.1539 94.9082C58.373 94.847 58.592 94.8776 58.5616 94.847C59.5414 95.6913 61.0201 95.569 61.8478 94.5656C62.6876 93.5806 62.5659 92.0939 61.5678 91.2617C60.3508 90.2278 58.5434 89.8974 56.8333 90.3991C55.6954 90.7295 54.667 91.3841 53.669 92.4058C52.0502 94.0638 50.9914 96.15 50.6446 98.328C42.4658 96.5416 35.1877 93.8985 29.3642 90.6191C29.6928 90.2765 30.0032 89.885 30.2648 89.4261C31.1046 87.9516 31.3115 86.1713 30.9038 83.9626C30.8247 83.522 30.7152 83.0999 30.6239 82.6655C30.4352 81.864 30.2648 81.1176 30.2527 80.4568C30.2223 79.172 29.1938 78.1563 27.9159 78.1563H27.8672C26.5771 78.1869 25.5486 79.2514 25.579 80.5545C25.5973 81.7109 25.8468 82.7816 26.0598 83.7359C26.1389 84.1091 26.2302 84.4701 26.291 84.8494C26.5405 86.1465 26.3701 86.7889 26.1997 87.107C26.0111 87.4374 25.6094 87.7494 25.1713 88.0308C23.5831 86.9051 22.1469 85.7303 20.869 84.5068C20.869 84.4762 20.8872 84.4456 20.8872 84.415C20.8872 70.4106 45.503 58.5719 74.6334 58.5719C79.946 58.5719 85.1186 58.9635 90.0903 59.6977C88.6237 61.6738 88.0335 64.2741 88.4839 66.6845C88.7029 67.8103 89.6827 68.5935 90.772 68.5935C90.912 68.5935 91.0702 68.5751 91.2102 68.5445C92.4699 68.2937 93.3158 67.07 93.0662 65.7853C92.8472 64.6412 93.1453 63.3563 93.8634 62.4326C94.5206 61.5883 95.5429 61.007 96.6079 60.848C99.4133 61.4598 102.109 62.2123 104.695 63.075L100.88 70.2823L97.685 71.1755C97.0643 71.3468 96.0055 71.6466 95.1899 72.5093C93.3643 74.4365 94.3502 77.0367 94.6605 77.881L102.042 97.5077C99.7539 98.0889 97.3868 98.6212 94.9526 99.0556C94.9952 98.1929 94.8853 97.2883 94.5628 96.4439ZM106.569 96.2359L99.0477 76.2349C98.9686 76.033 98.926 75.8617 98.8773 75.7332C98.9077 75.7149 98.9382 75.7149 98.9564 75.7027L105.437 73.8672C107.695 80.6951 111.389 87.0579 116.221 92.5212C113.269 93.9161 110.032 95.1591 106.569 96.2359ZM74.6518 42.8911C88.2344 42.8911 101.366 45.1916 111.992 49.3458L106.929 58.8839C103.923 57.8499 100.789 56.9749 97.5028 56.2531C97.3446 56.1919 97.1742 56.1613 97.0038 56.1429C89.9995 54.6379 82.4414 53.8548 74.6516 53.8548C45.0522 53.8548 21.2466 64.8185 16.9313 79.5569C15.4647 77.0974 14.6737 74.5155 14.6737 71.8663C14.6737 56.1553 42.1377 42.8911 74.6518 42.8911ZM74.6518 135.3C46.3906 135.3 22.6519 114.516 16.3411 86.6364C26.668 97.9304 48.6355 105.541 74.6518 105.541C100.668 105.541 122.635 97.93 132.962 86.6364C126.652 114.517 102.913 135.3 74.6518 135.3ZM132.372 79.5569C131.064 75.1091 127.948 70.912 123.147 67.1983L128.1 58.8837C132.366 62.9217 134.611 67.3758 134.611 71.8541C134.63 74.5155 133.833 77.0975 132.372 79.5569ZM64.4649 23.2206C61.6901 19.7578 61.6901 14.337 64.4649 10.8803C65.2743 9.86469 66.7408 9.70562 67.7511 10.5193C68.7612 11.333 68.9195 12.8075 68.1101 13.8232C66.7105 15.5791 66.7105 18.5219 68.1101 20.2778C70.885 23.7406 70.885 29.1614 68.1101 32.6181C67.6415 33.1994 66.9721 33.493 66.2844 33.493C65.7733 33.493 65.256 33.3217 64.8179 32.9791C63.8077 32.1654 63.6495 30.691 64.4588 29.6753C65.8645 27.9193 65.8645 24.9704 64.4649 23.2206ZM30.7637 29.4856C27.9889 26.0228 27.9889 20.602 30.7637 17.1453C31.5731 16.1297 33.0396 15.9706 34.0499 16.7843C35.0601 17.598 35.2183 19.0724 34.4089 20.0882C33.0093 21.8441 33.0093 24.7869 34.4089 26.5428C37.1838 30.0056 37.1838 35.4264 34.4089 38.8831C33.9403 39.4643 33.2709 39.758 32.5833 39.758C32.0721 39.758 31.5548 39.5867 31.1167 39.2441C30.1065 38.4304 29.9483 36.956 30.7576 35.9403C32.1694 34.1843 32.1694 31.2354 30.7637 29.4856ZM96.1939 26.3531C93.419 22.8903 93.419 17.4695 96.1939 14.0128C97.0032 12.9972 98.4697 12.8381 99.48 13.6518C100.49 14.4655 100.648 15.94 99.839 16.9557C98.4394 18.7116 98.4394 21.6544 99.839 23.4103C102.614 26.8731 102.614 32.2939 99.839 35.7506C99.3705 36.3318 98.7011 36.6255 98.0134 36.6255C97.5022 36.6255 96.985 36.4542 96.5468 36.1116C95.5366 35.2979 95.3784 33.8235 96.1878 32.8078C97.5996 31.0518 97.5996 28.1029 96.1939 26.3531ZM48.8676 68.0607C46.0501 66.7759 42.338 67.3082 39.849 69.3455C37.6217 71.1627 36.3742 74.0442 36.5143 77.0666C36.6725 80.2604 38.3521 83.2704 41.0296 85.1181C42.8552 86.3723 45.0641 87.027 47.261 87.027C48.4111 87.027 49.5674 86.8374 50.6567 86.4641C54.1009 85.2711 56.5596 82.2487 56.7482 78.9327C56.8699 76.724 56.0606 74.4542 54.381 72.3679C52.8719 70.4713 51.0645 69.064 48.8676 68.0607ZM49.1476 82.0163C47.4193 82.6097 45.2225 82.2977 43.6768 81.2331C42.2102 80.2175 41.2791 78.5718 41.2001 76.8342C41.121 75.3169 41.7295 73.873 42.8066 72.9981C43.5551 72.3863 44.5653 72.0559 45.5328 72.0559C46.044 72.0559 46.5308 72.1477 46.9507 72.3374C48.4903 73.041 49.6952 73.9832 50.7663 75.3107C51.6851 76.4548 52.1537 77.6418 52.1051 78.6451C52.0016 80.0401 50.7723 81.4535 49.1476 82.0163ZM82.7693 68.0424C81.9904 66.6168 81.0106 65.0017 79.2945 64.0472C77.2376 62.9031 74.5905 62.9826 71.8337 64.2797C71.1461 64.6101 70.4767 64.971 69.8255 65.3442C68.8884 65.8765 68.0181 66.3599 67.1602 66.6413C65.3711 67.2042 62.9369 68.2075 62.3161 70.4346C61.878 72.0314 62.4744 73.4447 62.8273 74.3013L66.6428 83.4479C66.941 84.1515 67.5009 85.4853 68.8213 86.2194C69.4907 86.5926 70.1601 86.7211 70.7869 86.7211C72.0344 86.7211 73.1237 86.2071 73.7018 85.9196L85.8361 80.1074C86.9437 79.5751 87.4549 78.2719 87.0045 77.134C85.7874 74.0443 84.3577 70.9913 82.7693 68.0424ZM71.6756 81.7043C71.4078 81.8266 71.207 81.9062 71.0853 81.9735C71.0245 81.8511 70.9758 81.7226 70.9454 81.6614L67.1298 72.5149C67.069 72.3742 66.9412 72.0621 66.8621 71.8725C67.0933 71.7134 67.5923 71.4625 68.5416 71.1689C69.8804 70.7467 71.0183 70.1043 72.1077 69.4803C72.6676 69.1683 73.2274 68.8379 73.8055 68.5748C75.1321 67.9508 76.3309 67.8101 77.0125 68.2016C77.6332 68.5442 78.1626 69.4558 78.6495 70.3491C79.7996 72.466 80.8646 74.6563 81.8138 76.8955L71.6756 81.7043Z" fill="#663366"/>
</svg>
