<svg width="150" height="150" viewBox="0 0 150 150" fill="none" xmlns="http://www.w3.org/2000/svg">
<path d="M139.995 57.8295C139.979 56.9262 140.006 55.9799 139.893 55.0874C139.683 53.3883 139.135 51.4743 138.441 49.9043C129.763 30.2201 92.9119 23.1825 71.4315 24.0744C53.1884 24.553 29.2786 29.2038 16.2026 42.9575C13.0357 46.2911 10.6754 50.6784 10.1539 55.27C9.91734 57.3723 10.0087 59.5122 10.0679 61.6199C10.1432 64.2867 10.5948 66.846 11.1056 69.459C15.5682 92.5457 29.4615 104.445 46.3227 113.37C46.7098 114.289 47.0593 115.257 47.6023 116.096C49.7099 119.349 53.6834 121.752 57.2158 123.204C63.7592 125.887 71.6407 126.871 78.6797 126.295C81.4272 126.064 84.2069 125.704 86.8953 125.053C92.0139 123.817 98.0142 121.203 101.472 117.09C102.445 115.929 103.106 114.762 103.698 113.38C125.983 103.622 140.302 81.3085 139.995 57.8295ZM99.019 117.456C89.7228 125.543 72.5931 126.457 61.1247 122.983C57.2213 121.8 52.4953 119.612 49.8177 116.467C49.2155 115.757 48.7693 114.988 48.3338 114.171C49.6188 114.579 50.8661 115.122 52.1512 115.547C65.7918 119.935 83.3835 120.101 97.4382 115.773C98.8791 115.327 100.288 114.789 101.697 114.251C101.024 115.456 100.024 116.521 99.019 117.456ZM88.2281 116.252C51.3772 121.999 22.4765 103.697 14.0308 74.6205C12.9823 71.0665 12.2995 67.4695 11.7726 63.808C12.4124 65.1468 13.0307 66.4694 13.8426 67.7167C17.2191 72.8998 22.7625 77.0452 28.1546 79.9003C32.0097 81.9434 36.053 83.5402 40.1983 84.8844C53.0109 89.0513 66.5114 90.4277 79.9425 89.9868C89.0989 89.6857 98.3521 88.5136 107.132 85.8146C118.649 82.2714 132.096 76.0184 137.989 64.8834C135.951 89.0781 115.546 111.994 88.2281 116.252ZM132.601 69.781C129.085 73.5822 124.638 76.534 120.063 78.8998C117.686 80.1256 115.305 81.2547 112.81 82.2172C102.551 86.1744 90.5241 88.067 79.572 88.481C60.4259 89.1907 34.139 85.1906 19.4774 71.9364C15.2245 68.0921 11.7672 62.7263 11.4931 56.877C11.278 52.2908 14.2083 47.4356 17.2193 44.1451C29.2844 30.9563 52.4364 26.4554 70.4482 25.6391C89.5516 24.8757 116.553 29.2522 131.129 42.5856C134.984 46.1127 138.366 51.0055 138.587 56.3774C138.796 61.4422 135.94 66.1732 132.601 69.781Z" fill="#663366"/>
<path d="M129.709 42.6839C116.3 30.0004 90.6216 25.9246 72.0234 26.1833C54.5332 26.7049 31.0914 31.0976 19.2845 43.657C15.8273 47.3347 13.3755 51.9478 13.5315 57.1201C13.5691 58.3728 13.8218 59.5934 14.1713 60.7924C15.2896 64.6151 17.5424 67.5131 20.3974 70.1853C24.4245 73.949 29.0215 76.5942 34.0487 78.7987C47.8556 84.8528 63.1476 86.525 78.0942 86.3905C81.4385 86.3098 84.8042 86.1539 88.1271 85.7937C102.257 84.2559 121.017 79.4816 131.076 68.9009C134.393 65.4114 136.597 60.938 136.484 56.0507C136.361 50.7386 133.457 46.2271 129.709 42.6839ZM129.371 65.6151C129.129 67.6529 127.86 70.4057 126.225 71.6854C123.386 73.9059 120.252 75.5565 116.999 77.0674C100.476 84.7238 78.8348 86.5035 60.878 84.385C48.915 82.971 36.2635 79.9977 26.1234 73.2392C25.1932 72.6209 22.4135 70.653 21.8113 69.8303C20.9027 68.5883 21.0371 66.2925 21.2414 64.8569C21.2575 64.7655 21.2737 64.6795 21.2952 64.5881C22.5318 58.5931 27.1181 54.4746 32.0109 51.254C31.2528 52.4907 30.5216 53.7112 30.1022 55.1091C29.4463 57.2866 29.371 60.6094 30.4678 62.6579C29.8011 63.5774 28.3118 65.6097 28.4677 66.7334C28.5161 67.0936 28.7312 67.384 29.0269 67.5829C30.2582 68.4109 33.1347 68.626 34.5864 69.2496C35.0058 69.4324 35.3821 69.8195 35.7424 70.0937C42.6406 75.3682 52.9421 77.9706 61.4429 78.8039C68.4702 79.4921 75.8196 79.2932 82.8146 78.3469C92.5141 77.035 109.031 73.2445 115.203 65.0612C116.042 63.9483 116.795 62.6525 116.902 61.2385C116.945 60.6847 116.918 60.1094 117.021 59.5609C117.273 58.249 117.612 57.5339 117.397 56.1199C117.069 53.9692 115.574 52.7273 113.918 51.5174C114.106 50.6733 114.241 49.8936 114.241 49.028C115.241 49.4259 116.198 50.0119 117.139 50.5335C120.58 52.4207 124.166 54.5607 126.65 57.6683C128.462 59.9426 129.725 62.6526 129.371 65.6151ZM49.4679 47.361C46.2634 48.947 42.5159 50.3987 40.6503 53.6893C39.7846 55.211 39.7739 56.555 40.2416 58.2056C39.048 57.9583 37.8222 57.7809 36.6017 57.8293C34.6016 57.9099 33.166 59.7004 31.9078 61.0822L31.3164 61.7865C31.3056 61.7435 30.9669 60.851 30.8217 59.6466C30.5959 57.8293 30.8594 55.9582 31.596 54.2484C34.1714 48.2804 42.4406 44.5705 48.6402 42.6027L48.6671 42.608C48.78 42.7156 48.7155 42.8715 48.6993 43.022C48.5058 44.7426 48.6775 45.8125 49.4679 47.361ZM74.3288 41.479C74.5546 41.9199 74.9633 42.7586 74.8719 43.2533L74.7858 43.2963C74.4417 43.1673 74.1675 42.8769 73.8772 42.6619C73.5008 42.3877 73.0868 42.135 72.5975 42.2156C71.1458 42.4683 70.3233 41.3984 69.0113 41.2586C68.6134 41.2156 68.3553 41.3446 68.0596 41.6027C66.5596 42.9468 68.0273 44.5437 67.8983 45.7534C67.866 46.0653 67.5327 46.1782 67.4144 46.4524C67.28 46.7696 67.2047 47.1245 67.0864 47.4524C66.6348 48.6998 66.3498 49.5063 66.2853 50.8613C66.1563 50.7914 66.0326 50.7269 65.8982 50.6623C64.7099 50.0763 63.3174 50.2161 62.1023 50.6247C61.8603 50.5817 61.613 50.5279 61.3657 50.5172C61.0001 50.4957 60.4463 50.501 60.1721 50.7967C60.0269 50.9527 59.9677 51.114 59.9677 51.3237C59.9677 51.4419 59.9677 51.4957 59.9301 51.6032C59.5699 51.6301 59.2419 51.5495 58.8924 51.4688L58.9462 51.5065C58.5537 51.4204 58.0106 51.243 57.6235 51.3882C57.4192 51.4635 57.2418 51.5441 57.0213 51.5065C57.0267 51.4366 57.0267 51.4258 57.059 51.3505C57.2418 50.9473 57.8117 50.458 58.1236 50.1516C60.0108 48.3074 61.9947 47.0761 64.511 46.2535C65.2261 46.06 67.0057 45.7159 67.4627 45.1728L67.4197 45.076C66.0755 44.6244 63.3065 45.7159 62.0485 46.2697C60.3602 47.0116 56.9729 48.9311 56.3008 50.7752C56.0965 51.3398 56.3761 51.2161 56.5213 51.5387C55.9298 51.7054 54.9889 51.071 54.3599 50.9903C54.333 50.9849 54.3007 50.9849 54.2739 50.9796C54.7362 49.9903 55.1395 49.044 55.7256 48.1138C56.1503 48.1192 56.6504 48.1676 57.016 47.9095C57.5429 47.5385 58.5215 45.3234 58.7419 44.6352C58.8548 44.2857 58.9085 43.9093 58.9677 43.5491C59.4569 43.7588 59.8172 43.8824 60.3602 43.8502C61.1344 43.8018 62.2528 43.4899 62.7582 42.8824C63.0539 42.5275 63.1668 42.1996 63.5163 41.8178C63.9948 41.8178 64.6992 41.9253 65.0701 41.5812C65.1347 41.4199 65.1938 41.2371 65.3067 41.1027C65.8874 40.3822 66.3552 41.1403 67.0004 40.9038C67.2316 40.8231 67.4897 40.6242 67.694 40.4898C69.3661 39.3822 69.2049 38.6079 71.5598 38.3499C71.6835 38.3337 71.8555 38.3015 71.9416 38.3767C72.3018 38.694 72.5384 39.1564 72.9255 39.4897L73.0115 39.5596L72.7642 40.0758C73.2158 40.721 73.6568 41.065 74.3288 41.479ZM73.2911 35.1883C74.189 34.3711 74.1137 33.3387 74.3611 32.2366C75.2267 32.2742 76.6353 33.5324 77.13 34.2205C77.5225 34.769 77.8236 35.5593 78.3828 35.9572C78.7914 36.2529 79.399 36.1023 79.8613 36.0432C80.1033 36.7798 80.1355 37.6616 80.4474 38.3498C80.5388 38.5541 80.6678 38.71 80.8883 38.7853C81.3184 38.9305 81.7593 38.5703 82.1034 38.3606C82.2593 39.2585 82.2862 40.0704 82.2485 40.9789C81.7324 41.5704 81.3507 42.1672 80.9635 42.85L80.313 42.9845C79.9581 43.4845 79.5871 43.963 79.243 44.4738C78.7967 42.1296 77.6085 39.7745 76.5386 37.6616C76.216 36.9895 75.8934 36.2905 75.4472 35.6883C76.3235 37.9949 77.0978 40.2477 77.7323 42.635C77.8775 43.1673 78.1248 43.8071 78.0979 44.3609C77.7699 44.4577 77.8183 44.3179 77.3721 44.5383C76.8505 44.2641 76.3397 43.635 75.9203 43.221C75.8074 42.6726 75.7214 42.0973 75.5494 41.5651C75.3235 40.8661 74.9579 40.5328 74.3342 40.2102C74.0762 39.3338 73.6191 38.7962 73.0277 38.124C73.7589 37.0326 73.4793 36.4088 73.2911 35.1883ZM83.781 41.8338C84.1681 41.6349 84.5014 41.3338 84.8939 41.1241C85.652 40.7208 86.4585 40.4036 87.222 40.0058C88.464 40.1079 88.9103 40.0326 90.034 39.5165C91.5287 39.753 91.631 39.5971 92.9643 39.1455C93.2976 39.1401 93.6632 39.1294 93.9751 39.2369C94.2923 39.581 93.8353 40.1563 93.8084 40.5703C93.7869 40.8553 93.8299 41.1671 93.8514 41.4574C93.545 41.7424 93.1901 41.9951 92.8568 42.2586C92.803 42.7317 92.717 43.2049 92.6363 43.6726C92.5449 43.7425 92.4535 43.8177 92.3621 43.8876C91.604 44.4952 91.4534 45.0382 91.3513 45.9737C91.0609 46.0598 90.7545 46.1189 90.4588 46.1834C90.0716 46.7856 89.8189 47.5813 89.5286 48.2427C87.55 47.9846 86.9371 48.5922 85.3509 49.5707C84.0712 48.9954 83.3131 49.0868 82.0227 49.5277C81.8238 49.2266 81.5657 48.8986 81.4205 48.576C81.3399 48.3932 81.313 48.248 81.3883 48.0599C81.8291 47.0007 86.1682 44.3393 87.3294 43.6833C90.0231 42.1886 91.2759 41.7692 92.2652 41.1831C89.3725 41.5541 85.5283 43.2585 83.2324 45.0382C82.2377 45.8071 81.3883 46.7049 80.5602 47.6405C80.3667 47.3125 80.1462 46.9523 80.0225 46.592C79.8344 46.0651 79.8236 45.3877 80.0817 44.8876C80.3613 44.3446 80.7054 44.2317 81.2484 44.0435C81.8775 43.2854 82.0818 42.3659 82.9205 41.7583C83.2162 41.8067 83.496 41.8177 83.781 41.8338ZM83.2594 38.9035C83.9154 38.9251 84.6897 39.0326 85.3241 39.1993C85.523 39.253 85.6682 39.296 85.7703 39.4788C85.6305 39.667 85.4638 39.6939 85.2488 39.7853C84.6896 39.9789 84.2756 40.2638 83.8078 40.6187C83.7594 40.3068 83.7433 40.1079 83.539 39.7638C83.3508 39.452 83.2487 39.2745 83.2594 38.9035ZM105.578 55.1467C105.331 54.7273 105.024 54.394 104.696 54.0391C106.239 52.824 107.589 51.9369 109.584 51.7432C112.294 51.5282 115.487 53.3616 116.159 56.1252C116.493 57.5016 116.175 59.0072 115.444 60.206C114.32 62.034 112.519 62.8997 110.498 63.389C108.906 63.6309 107.207 63.5019 105.788 62.69C106.293 61.6738 106.637 60.6254 106.675 59.4856C106.712 58.2113 106.218 56.2434 105.578 55.1467ZM59.6772 55.8833C62.7366 55.9048 65.7851 56.1306 68.7638 56.8565C70.4197 57.292 72.0542 57.9856 73.6673 58.5502C73.5006 58.7975 73.3017 59.0233 73.092 59.2384C71.9683 60.4105 70.6564 60.5019 69.1187 60.5341C65.113 60.6202 61.3817 59.3835 57.8008 57.6953C56.3921 57.0286 54.8598 56.2436 53.7307 55.1629C55.0533 54.835 56.9459 54.3994 58.032 53.5715C58.2686 53.3941 58.4137 52.8618 58.6396 52.7543C59.0374 52.5553 59.9353 53.0769 60.5053 52.8295C60.9892 52.6199 60.8494 52.1037 61.0752 51.7381C61.586 50.9208 62.9033 52.1144 63.5915 51.9962C64.0001 51.9263 64.1883 51.6037 64.4033 51.2864C65.1722 51.3456 66.0593 52.2059 66.7153 52.1413C66.9519 52.1198 67.0917 51.9854 67.2368 51.8187C67.3336 51.7058 67.3498 51.6789 67.4895 51.6091C68.5703 52.0069 69.522 52.636 70.538 53.1683C71.0219 53.421 71.565 53.6091 72.0273 53.8995C72.5596 54.2328 73.5329 55.9802 73.7747 56.5985C73.8876 56.8888 73.9414 57.2168 74.0059 57.5233C73.522 57.3082 73.0381 57.0878 72.5488 56.8888C68.3389 55.2005 63.4676 54.9855 58.9889 55.3296C58.3974 55.3727 57.4511 55.3135 56.9189 55.5393L56.9081 55.6361C57.3275 55.9963 59.0696 55.8779 59.6772 55.8833ZM77.9685 54.8617C78.6943 53.9423 79.0975 53.566 80.2373 53.5445C80.8933 53.5283 81.3234 53.609 81.8073 54.0767C81.9041 54.4424 82.0708 54.8026 82.2052 55.1575C81.4901 55.4908 80.7588 55.6736 79.9738 55.7758C79.1405 55.8725 78.2533 55.7758 77.4306 55.6306C77.5812 55.351 77.7749 55.109 77.9685 54.8617ZM77.2802 53.8563C76.5867 53.2917 75.8178 52.8186 75.1027 52.2756C75.5974 51.4261 75.877 50.9422 76.8717 50.711C78.2911 50.711 79.0331 51.1304 79.7374 52.4155C78.8019 52.4961 78.2589 52.6843 77.619 53.3832L77.2802 53.8563ZM80.7859 52.4207C80.8988 52.0927 81.0654 51.754 81.2697 51.4744C81.7268 50.84 82.3289 50.5711 83.0817 50.4421C83.6677 50.3991 84.2592 50.4905 84.7754 50.7862C85.0764 50.9582 85.3668 51.2271 85.4474 51.5766C85.7055 52.7325 83.8076 53.2218 83.1893 54.1359L83.1409 54.2111L83.0656 54.2165C83.0011 54.0714 82.9366 53.9369 82.8559 53.7971C82.3774 52.9691 81.6784 52.6573 80.7859 52.4207ZM80.1299 51.0711C79.3557 50.0066 78.5008 49.7754 77.2749 49.528C76.2157 48.4043 74.8394 47.6623 73.5436 46.8559C73.0758 46.5548 71.6456 45.5547 71.2962 45.1675C71.2693 45.1407 71.2532 45.1084 71.2316 45.0761L71.2048 45.1138C71.608 45.6514 72.1672 46.1246 72.635 46.6084C73.7157 47.7268 74.7104 48.829 75.9308 49.8075C75.7803 49.8667 75.6298 49.9258 75.49 50.0064C74.7587 50.4097 74.3716 51.0334 74.1512 51.813C73.5651 51.4259 73.3877 51.3345 73.3447 51.0065C73.4146 50.8237 73.5221 50.5925 73.4791 50.3936C73.2748 49.4957 71.8392 48.9096 71.1403 48.4364C71.1457 46.8234 69.9413 47.0976 69.1402 46.2643C69.2101 46.0922 69.3176 45.8772 69.3445 45.6944C69.4037 45.2857 68.9251 44.8771 68.7154 44.5707C68.2746 43.9147 68.4735 42.9039 68.6133 42.1727C70.5166 42.8662 70.8822 43.6727 73.1081 43.3663C73.5705 43.8824 74.006 44.2588 74.6405 44.5491L75.4846 44.3502C76.0492 44.7319 76.5062 45.3449 77.0009 45.818C77.3558 45.7643 77.7052 45.7374 78.0601 45.7159C78.7537 46.6353 79.087 47.7966 79.8021 48.716C80.1838 49.2053 80.8075 49.1731 81.0387 49.8451C80.8828 50.2269 80.3772 50.7163 80.1299 51.0711ZM69.9627 48.0334C69.9573 48.1355 69.9573 48.2431 69.9573 48.3452C69.9681 49.4259 71.651 49.9797 72.3929 50.7271L72.4628 50.797C72.2262 51.082 72.0058 51.3616 71.8015 51.6734C71.8391 51.9207 71.9843 52.4584 71.866 52.6681L71.7047 52.6251C70.624 52.0713 68.3174 50.6465 67.2528 50.539C67.3119 49.2755 67.7474 48.1088 68.2528 46.9581C68.8389 47.2914 69.382 47.6947 69.9627 48.0334ZM73.1995 53.3885C73.0704 53.0874 73.0167 52.7325 72.9468 52.4153L72.9844 52.3831C73.4199 52.3401 76.1996 54.3348 76.6836 54.7058C76.6298 54.8348 76.5706 54.937 76.5008 55.0553C76.1943 55.2542 75.7426 55.0875 75.4039 55.1789C75.2104 55.2273 75.205 55.2811 75.1297 55.4478C75.1351 55.5768 75.1351 55.6789 75.205 55.7972C75.6405 56.4747 77.2964 56.8242 78.0599 56.9102C79.7644 57.1091 82.458 56.7381 83.7753 55.5284C83.9473 55.3725 83.9097 55.1574 83.9204 54.9424C84.157 54.5768 84.6033 54.3456 84.985 54.1574C87.297 53.0121 89.824 53.1197 92.3026 52.6573C93.1199 52.5014 93.8833 52.2702 94.6414 51.9315C94.6844 51.9745 94.6576 51.9423 94.6791 52.0498C93.8511 53.1896 92.3564 54.2004 91.1681 54.9532C86.6355 57.8297 80.603 59.4427 75.2911 58.2544C75.2534 57.2275 74.7964 56.0124 74.248 55.1467C73.8932 54.5768 73.4629 54.0121 73.1995 53.3885ZM95.7494 50.6303C93.9643 51.5712 90.9534 51.8454 88.9211 52.0067C88.1361 52.0712 87.3619 52.1357 86.5877 52.2863C86.6199 51.5658 86.6092 51.055 86.1629 50.4529C86.7328 50.0927 87.3135 49.5657 87.9587 49.3453C88.6147 49.1248 89.6308 49.3991 90.0933 49.1786C90.6417 48.9152 91.0503 47.7807 91.26 47.2269C91.9751 46.8182 92.2009 46.4526 92.5397 45.7106C92.9859 45.9794 93.3784 46.2966 93.7709 46.6408C93.33 48.5226 95.1848 48.5657 95.7494 50.6303ZM93.1632 55.7219C94.4321 54.066 96.0559 53.0283 98.1259 52.7648C98.1689 52.7595 98.212 52.7541 98.255 52.7541C100.169 52.582 102.32 53.8778 103.728 55.0714C104.858 56.0285 105.492 57.3619 105.594 58.8405C105.696 60.3137 105.186 62.1202 104.202 63.2386C103.073 64.529 101.352 65.0882 99.6853 65.2011C98.1208 65.2118 96.2389 64.9 94.9485 63.9483C93.4161 62.8192 92.4269 60.9588 92.1688 59.0879C91.986 57.7975 92.3836 56.7382 93.1632 55.7219ZM112.766 51.0658C112.04 51.055 111.245 50.6948 110.513 50.5926C108.658 50.3238 107.277 50.6679 105.787 51.797C105.169 52.3185 104.54 52.7917 103.879 53.2433C102.846 52.5498 101.771 52.0444 100.642 51.5282C100.502 50.9798 100.384 50.4098 100.341 49.8452C100.201 48.2 100.685 46.6945 101.755 45.4472C103.088 43.888 104.776 43.0706 106.82 42.9148C108.201 42.8987 109.39 43.3987 110.503 44.1945C111.927 45.2107 112.782 46.9366 113.062 48.641C113.164 49.3507 113.191 50.4636 112.766 51.0658ZM101.104 44.4793L100.491 45.1568C98.5019 44.0653 96.3889 43.3072 94.292 42.4578C94.7007 41.9846 94.7813 41.6029 94.9157 41.0061C95.8244 41.2104 96.7384 41.5545 97.631 41.8287C99.1902 42.3072 100.776 42.7481 102.292 43.3557C101.884 43.7159 101.497 44.0922 101.104 44.4793ZM99.8945 46.1945C99.3192 47.3774 98.7761 48.5494 99.1686 49.8883C99.3461 50.4904 99.545 50.9797 99.5988 51.6088C99.4643 51.7486 99.3407 51.7056 99.1525 51.7163L97.8083 51.7432C97.3997 51.4421 96.9696 51.2163 96.5072 51.0066C96.6524 50.8292 96.7491 50.6141 96.8567 50.4098C96.8083 50.2807 96.8352 50.356 96.7922 50.2485C96.405 49.2484 95.4803 48.5764 94.9588 47.6409C95.0287 47.4634 95.0932 47.2806 95.1362 47.0924C95.1846 46.8666 95.1577 46.6677 95.0287 46.4688C94.577 45.7913 93.5877 45.0762 92.7974 44.9256C93.3243 44.5009 93.5877 44.2159 93.8458 43.5815C95.948 44.1837 97.9697 45.1838 99.8945 46.1945ZM68.1129 38.6295C67.871 38.9253 67.5484 39.1511 67.2419 39.3823C67.043 39.5275 66.7634 39.7855 66.5322 39.8554C66.1021 39.9845 65.5966 39.6027 65.1182 39.8339C64.7257 40.0275 64.5536 40.3501 64.4031 40.7426C64.0106 40.6297 63.6665 40.5006 63.3331 40.2694C63.0213 39.9899 62.7578 39.678 62.532 39.3231C64.2526 38.8392 66.344 38.7317 68.1237 38.5704L68.1129 38.6295ZM62.618 41.4253C62.1556 42.1028 61.6018 42.4039 60.8867 42.7534C60.9673 42.6028 61.0211 42.4469 61.0803 42.2856C61.0534 42.0974 61.0641 42.092 60.9189 41.9737C60.4566 41.8716 60.0103 42.0598 59.5748 42.1888C59.1931 42.3017 58.3812 42.4684 58.107 42.7534C57.8059 43.0652 57.2628 46.1352 56.3219 46.7106C55.9939 46.6676 55.8326 46.7052 55.5369 46.8396L55.4563 46.8773C54.7412 47.4794 54.1067 48.259 53.4454 48.9258L53.4024 48.7322V48.9688C53.3433 49.0226 53.354 49.0333 53.2788 49.0387C52.9024 49.0548 52.2841 48.5871 51.9884 48.372C50.827 47.5171 49.9883 46.3612 49.7839 44.9095C49.5634 43.3503 50.0689 41.9147 51.0151 40.6781C52.198 39.1296 53.8809 38.2693 55.7842 38.0059C58.623 37.7371 61.3599 38.8714 62.618 41.4253ZM50.1119 48.3128L50.2625 48.3236C51.7734 49.9312 52.467 49.6301 53.3219 50.2108C53.1337 50.4742 52.8487 50.8183 52.8326 51.1517C52.8272 51.3399 52.8648 51.4635 52.9993 51.5979C53.7466 52.3345 56.6876 52.5442 57.6985 52.5012C57.0856 52.8507 56.4565 53.1303 55.7952 53.3776C55.1177 53.6303 53.0423 54.0551 52.6283 54.5067C52.4885 54.6573 52.4509 54.953 52.4778 55.1519C52.5423 55.6089 52.9079 55.953 53.252 56.2218C57.4565 59.4694 65.5377 61.9802 70.8661 61.2167C72.3661 61.0017 73.2049 60.2543 74.0866 59.0876C74.9146 59.3402 75.7696 59.5661 76.6298 59.6897C81.7968 60.4317 87.8885 58.6467 92.0389 55.539C91.3022 56.4745 91.0173 57.4584 91.0603 58.6359C91.1571 61.3081 92.2969 63.0664 94.1841 64.8137C93.1303 65.0987 91.4527 65.4428 90.7699 66.3568C90.6355 66.5343 90.5709 66.6848 90.6032 66.9106C90.743 67.0451 90.8398 67.0719 91.0441 67.0719C91.5549 67.0719 92.4312 66.5827 93.1947 66.3192C93.6733 66.1525 94.2109 66.088 94.6626 65.8568C94.8938 65.7385 95.0551 65.5772 95.2217 65.3837C96.4368 65.8837 97.781 66.2224 99.0929 66.2762C101.636 66.3783 103.405 65.4159 105.212 63.7383C106.679 64.3513 108.072 64.7223 109.674 64.5825C112.131 64.3674 114.217 63.3942 115.814 61.5124C115.658 62.1952 115.422 62.7974 115.061 63.3942C114.449 64.3996 113.615 65.2975 112.766 66.1041C107.362 71.255 98.6256 73.9057 91.5274 75.6638C90.9199 75.8089 90.3069 75.9433 89.6941 76.0724C76.9083 78.7016 63.1016 79.0618 50.4385 75.6423C46.0888 74.4648 41.8359 72.8518 38.0507 70.3571C38.1798 70.384 38.3034 70.4109 38.4325 70.4377C41.266 70.9969 41.5832 69.6043 42.8951 67.6311C43.5726 66.6149 44.3307 65.7923 45.3468 65.1148C45.0296 65.7278 44.6801 66.3515 44.4112 66.9859C44.2715 67.3193 44.0295 67.9484 44.2392 68.2978C44.4005 68.5613 44.8252 68.7065 45.1048 68.7817C46.0081 69.0237 48.3309 69.0237 50.0298 69.5829C50.7341 69.814 51.4331 70.0883 52.0837 70.4431C52.901 70.884 53.6429 71.427 54.5409 71.7012C55.2022 71.4109 56.3206 70.0667 56.9228 69.513C57.8529 68.6474 58.8046 67.7549 59.8208 66.986C60.6166 66.3839 61.9177 66.0451 62.4769 65.201C62.7404 64.8031 62.7726 64.2762 62.6812 63.8192C62.4447 62.6309 61.3855 61.7116 60.4284 61.0663C59.6435 60.534 58.7939 60.1415 57.8961 59.8351C56.0196 59.1899 52.0356 58.4318 50.0892 58.835C49.7773 58.8995 49.4655 59.0125 49.2182 59.2168C48.573 59.7329 47.3417 61.8137 46.7826 62.631C46.0729 61.8514 45.3524 61.061 44.5405 60.3889C43.4491 59.4856 41.9598 59.12 41.3145 57.7706C40.9005 56.9049 40.9005 55.8994 41.2446 55.007C42.0995 52.781 44.6211 50.9423 46.6481 49.8669C47.7719 49.2916 48.9614 48.8182 50.1119 48.3128ZM34.6754 68.0672C33.3258 67.6747 31.9333 67.4166 30.5837 67.008C30.2557 66.9058 29.7772 66.7822 29.5084 66.5671C29.4922 66.4757 29.4868 66.3951 29.5084 66.3037C29.6481 65.7445 30.1482 65.1746 30.4761 64.7122C31.8257 62.8143 33.9333 60.0561 35.9926 58.9377C36.5786 58.9162 37.1701 58.9109 37.7507 58.9539C41.0197 59.1743 43.7296 60.9271 45.821 63.3412C45.4017 63.6853 44.9339 63.9649 44.5038 64.2982C43.5252 65.0725 42.6058 66.0402 41.8692 67.0457C41.4014 67.6855 41.1218 68.535 40.5626 69.0996C40.2131 69.4491 39.7131 69.4007 39.2561 69.4061C37.7237 69.1426 36.17 68.5027 34.6754 68.0672ZM50.2193 59.8786C53.2034 59.8248 57.6714 60.3249 60.0639 62.1852C60.5693 62.5777 61.5532 63.5401 61.5748 64.2069C61.5855 64.4596 61.4242 64.6155 61.2414 64.7607C60.5962 65.2715 59.8004 65.6048 59.1283 66.0887C57.8487 67.0189 56.6981 68.1426 55.5474 69.2286C55.1227 69.6372 54.6657 70.019 54.2194 70.4061C51.5687 68.4597 48.4879 68.0565 45.3211 67.7554C46.1814 65.6478 48.5741 61.341 50.2193 59.8786ZM129.793 68.5672C130.712 65.8736 130.863 63.3735 129.831 60.6743C127.61 54.8783 119.502 50.163 114.104 47.7274C113.851 47.1844 113.636 46.6252 113.394 46.0768C112.103 43.1895 109.103 41.4475 105.936 41.8776C105.125 41.9905 104.243 42.4798 103.431 42.3938C102.366 42.2809 101.022 41.6679 99.9738 41.34C98.4038 40.8507 96.764 40.4528 95.2316 39.8668C95.4144 39.3345 95.6832 38.7968 95.2155 38.485C94.952 38.3076 94.6079 38.2645 94.3014 38.2162C93.1777 38.0387 92.4949 38.1839 91.425 38.4474C91.2153 38.3613 91.0056 38.2646 90.7906 38.1947C90.0755 37.9635 89.398 38.4097 88.7905 38.727C86.3226 38.2807 83.9031 37.6624 81.4083 37.3774C81.1502 36.6516 80.8008 35.4473 80.1502 35.0116C79.7577 34.7482 79.3921 34.8503 78.9619 34.9256C78.3651 34.361 77.8974 33.6782 77.3274 33.0868C76.7038 32.5492 75.408 31.2964 74.6175 31.1243C74.3917 31.0759 74.1659 31.1136 73.9724 31.2426C73.2734 31.7158 73.2196 32.8179 73.0691 33.5814C72.9132 33.7105 72.7519 33.8556 72.6228 34.0116C72.112 34.6568 72.4561 35.5439 72.5314 36.2751C72.44 36.3665 72.4776 36.3504 72.3755 36.388C72.2464 36.4364 72.112 36.4794 71.9991 36.5547C71.8486 36.6568 71.7572 36.8235 71.7464 37.0009C71.7464 37.0278 71.7464 37.0601 71.7518 37.087C71.4453 37.3235 69.7732 37.3128 69.3001 37.3397C66.6818 37.5063 64.0041 37.8558 61.4395 38.3881C61.1653 38.1999 60.8857 38.0225 60.6008 37.8558C58.7082 36.7536 56.5253 36.5815 54.4337 37.1461C52.1863 37.7483 50.5141 39.1193 49.3528 41.1248C45.159 42.3238 41.0029 44.1411 37.0725 46.6251C36.309 47.109 35.6585 47.7596 34.895 48.2381C34.0132 48.7866 33.0616 49.2274 32.169 49.7651C29.1903 51.5448 26.4267 53.6739 24.1846 56.3516C22.0878 58.8571 20.3349 62.1529 20.0124 65.4543C19.921 66.3952 19.9748 67.3307 20.0608 68.2663C17.1897 65.1371 14.8508 61.809 14.6896 57.3894C14.5552 53.7441 15.652 50.7169 17.7059 47.7491C18.3135 46.8727 18.9372 46.0178 19.663 45.2382C31.5454 32.431 54.4397 28.3014 72.0524 27.6778C89.4724 26.8391 116.651 31.7587 129.486 44.528C132.605 47.6357 135.325 51.8724 135.315 56.3996C135.298 60.8354 132.895 65.4703 129.793 68.5672Z" fill="#663366"/>
<path d="M63.4587 66.3672C63.8458 66.5715 64.3889 66.2973 64.7491 66.1521L64.8405 66.136C65.405 66.0392 66.6632 66.3565 66.8998 66.05C66.9965 65.9263 67.0449 65.7489 66.9965 65.5983C66.9213 65.351 66.7331 65.179 66.5019 65.0768C66.2115 64.9478 65.8728 64.937 65.5556 64.9316C64.8459 64.98 63.8673 65.0983 63.3727 65.6682C63.2706 65.7865 63.2437 65.8887 63.2061 66.0392C63.2706 66.2328 63.2759 66.2704 63.4587 66.3672Z" fill="#663366"/>
<path d="M47.6619 57.2944C47.393 57.2891 47.1242 57.2998 46.8554 57.3052C46.1403 57.5041 45.108 57.7891 44.7208 58.4827C44.6617 58.5848 44.6455 58.687 44.624 58.8053C44.7047 58.9666 44.7154 58.9988 44.909 59.0472C45.3875 59.1655 45.9897 58.816 46.409 58.6278C46.6832 58.5579 46.9574 58.4827 47.2424 58.4665C47.78 58.4397 48.4629 58.6332 48.8177 58.1332C48.8338 57.9504 48.8177 57.7622 48.694 57.617C48.4682 57.3374 48.0006 57.2998 47.6619 57.2944Z" fill="#663366"/>
<path d="M65.3189 71.5891C65.0286 71.546 64.6899 71.5622 64.3995 71.5891C63.4962 71.7934 62.5554 72.159 62.0446 72.9923C61.9102 73.2074 61.7919 73.5246 61.894 73.7773C61.9478 73.9063 62.0553 73.987 62.1951 74.0085C62.4532 74.0461 62.6898 73.8902 62.8565 73.7128C62.9801 73.5837 63.0984 73.444 63.2167 73.3095C63.6845 72.9332 64.1953 72.745 64.7652 72.5944C65.0985 72.702 65.4749 72.8848 65.819 72.7342C65.948 72.6805 66.0072 72.6052 66.0878 72.4977C66.1362 72.3364 66.147 72.2234 66.0609 72.0675C65.9211 71.8094 65.6039 71.6321 65.3189 71.5891Z" fill="#663366"/>
<path d="M101.295 69.7466C101.537 69.8327 101.736 69.8488 101.972 69.7251C102.182 69.6176 102.37 69.4025 102.542 69.2359C103.042 68.9939 103.505 68.8434 104.058 68.7681C104.521 68.709 105.198 68.7735 105.618 68.5745C105.709 68.5315 105.741 68.4401 105.774 68.3487C105.822 68.2304 105.817 68.1444 105.79 68.0154C105.602 67.7358 105.365 67.6551 105.037 67.596C104.634 67.5207 104.214 67.553 103.806 67.5745C102.956 67.725 101.854 67.9992 101.311 68.7251C101.171 68.9133 101.053 69.1606 101.096 69.4025C101.128 69.58 101.177 69.623 101.295 69.7466Z" fill="#663366"/>
<path d="M46.5059 52.6421C46.5758 52.8088 46.6456 52.9325 46.8123 53.0185C47.2425 53.2389 48.1135 52.669 48.5597 52.5453C48.8877 52.4647 49.2156 52.384 49.549 52.3679C50.1619 52.3303 51.3341 52.5668 51.705 52.0131C51.7212 51.8356 51.7427 51.7012 51.6244 51.5453C51.3018 51.1367 50.3716 51.1851 49.8985 51.1797C49.7318 51.1797 49.5705 51.1797 49.4092 51.1958C48.5758 51.3033 47.1725 51.5991 46.6242 52.2819C46.5328 52.4056 46.5059 52.4969 46.5059 52.6421Z" fill="#663366"/>
<path d="M89.8524 70.836C90.132 70.9866 90.5191 70.8091 90.7664 70.6854C91.2611 70.4435 91.4116 70.2768 92.0407 70.1263C92.2558 70.1854 92.4762 70.2392 92.6859 70.3091C92.7128 70.3198 92.7343 70.336 92.7612 70.3467C93.2451 70.6102 93.815 71.2823 94.4064 71.1425C94.5193 71.1156 94.5462 71.0564 94.6215 70.9704C94.686 70.6532 94.6 70.4166 94.4118 70.1531C93.9817 69.5402 93.1752 69.1638 92.4493 69.0671C92.2074 69.0348 91.9762 69.0509 91.7342 69.0724C91.0621 69.2122 90.0943 69.4972 89.7125 70.1155C89.6372 70.2392 89.6211 70.3521 89.5996 70.4865C89.6641 70.6693 89.6696 70.7392 89.8524 70.836Z" fill="#663366"/>
<path d="M70.3508 71.6102C70.7971 71.9381 73.3403 72.1586 74.0661 72.293C76.3942 72.7231 78.7922 73.6802 80.9697 74.5942C81.3675 74.6964 81.6901 74.7986 82.0719 74.5835C83.0934 74.0189 87.9324 69.1531 88.7819 68.0348C88.9755 67.7767 89.1099 67.4863 89.1906 67.1745C89.3304 66.6476 89.2551 66.1637 88.9647 65.7013C87.8518 63.9216 83.5075 62.5344 81.4805 62.1097C80.5718 61.9215 79.561 61.8408 78.6362 61.9376C76.1683 62.3301 73.1681 65.3787 71.7219 67.3788C71.1466 68.1745 69.9368 70.1423 70.1035 71.1478C70.1411 71.3414 70.1842 71.4865 70.3508 71.6102ZM78.8889 63.0882C79.0395 63.0721 79.19 63.0667 79.3352 63.0613C81.7493 62.986 88.3733 65.1635 88.1152 66.7766C88.0561 67.1368 87.6636 67.5615 87.427 67.8358C86.513 68.8842 85.4323 69.8305 84.4376 70.8091C83.4805 71.7554 82.6203 72.8199 81.5127 73.5941L80.803 73.3253C74.8994 70.9488 73.8833 71.2661 71.2702 70.707C72.1358 68.0079 75.9102 63.7549 78.8889 63.0882Z" fill="#663366"/>
</svg>
