<svg width="150" height="150" viewBox="0 0 150 150" fill="none" xmlns="http://www.w3.org/2000/svg">
<mask id="mask0_258_375" style="mask-type:luminance" maskUnits="userSpaceOnUse" x="10" y="10" width="130" height="130">
<path d="M10 10H140V140H10V10Z" fill="white"/>
</mask>
<g mask="url(#mask0_258_375)">
<path d="M59.0869 138.096V117.836" stroke="#663366" stroke-width="3.80859" stroke-miterlimit="10" stroke-linecap="round" stroke-linejoin="round"/>
<path d="M48.6523 124.798V136.079C48.6523 137.193 49.5555 138.096 50.6691 138.096H59.0866V124.798H48.6523Z" stroke="#663366" stroke-width="3.80859" stroke-miterlimit="10" stroke-linecap="round" stroke-linejoin="round"/>
<path d="M85.4129 76.3719C85.4129 76.155 85.1227 76.0806 85.0206 76.2716C83.7026 78.7367 81.1049 80.4148 78.1141 80.4148H65.4219V87.6699C65.4219 93.8274 70.2466 99.4512 77.5444 99.4512C84.0411 99.4512 89.3261 94.1661 89.3261 87.6699V80.4082C87.1626 80.3386 85.4129 78.5516 85.4129 76.3719Z" stroke="#663366" stroke-width="3.80859" stroke-miterlimit="10" stroke-linecap="round" stroke-linejoin="round"/>
<path d="M81.6983 106.049C81.6983 104.376 82.7045 102.939 84.1437 102.305C83.8065 102.106 83.5912 101.742 83.5902 101.34L83.5889 97.7771C81.8204 98.8385 79.7529 99.4504 77.5449 99.4504C75.1082 99.4504 72.9492 98.821 71.1516 97.7566V101.333C71.1516 101.796 70.9289 102.069 70.6727 102.243L67.7822 103.372C69.6888 106.46 73.1323 108.637 77.5348 108.637C79.0069 108.637 80.4123 108.347 81.6983 107.823V106.049Z" stroke="#663366" stroke-width="3.80859" stroke-miterlimit="10" stroke-linecap="round" stroke-linejoin="round"/>
<path d="M121.013 131.613H80.3347C79.4163 131.613 78.6719 132.358 78.6719 133.276C78.6719 135.938 80.8296 138.096 83.4915 138.096H117.856C120.518 138.096 122.676 135.938 122.676 133.276C122.676 132.358 121.932 131.613 121.013 131.613Z" stroke="#663366" stroke-width="3.80859" stroke-miterlimit="10" stroke-linecap="round" stroke-linejoin="round"/>
<path d="M81.6982 127.521V106.051C81.6982 104.377 82.7045 102.94 84.1436 102.306C83.8064 102.108 83.5911 101.744 83.5901 101.342L83.5893 97.7782C81.8209 98.8398 79.7533 99.4519 77.5448 99.4519C75.1081 99.4519 72.9491 98.8225 71.1515 97.7581V101.335C71.1515 101.798 70.9288 102.071 70.6726 102.245L54.7319 108.47C52.1326 109.54 48.6523 112.906 48.6523 117.9V136.079C48.6523 137.193 49.5552 138.096 50.6691 138.096H83.4916C80.8134 138.096 78.645 135.911 78.6724 133.226C78.6813 132.327 79.4364 131.613 80.335 131.613H85.6988H85.699H85.7902C83.5304 131.613 81.6982 129.781 81.6982 127.521Z" stroke="#663366" stroke-width="3.80859" stroke-miterlimit="10" stroke-linecap="round" stroke-linejoin="round"/>
<path d="M99.4766 116.787H101.871" stroke="#663366" stroke-width="3.80859" stroke-miterlimit="10" stroke-linecap="round" stroke-linejoin="round"/>
<path d="M50.3268 24.8246C50.3268 31.9599 44.5426 37.7441 37.4071 37.7441C30.2718 37.7441 24.4873 31.9599 24.4873 24.8246C24.4873 17.6891 30.2718 11.9049 37.4071 11.9049C44.5426 11.9049 50.3268 17.6891 50.3268 24.8246Z" stroke="#663366" stroke-width="3.80859" stroke-miterlimit="10" stroke-linecap="round" stroke-linejoin="round"/>
<path d="M40.9278 20.4081C42.8725 22.3528 42.8725 25.5053 40.9278 27.4497C38.9834 29.3944 35.8309 29.3944 33.8862 27.4497C31.9416 25.5053 31.9416 22.3528 33.8862 20.4081C35.8309 18.4637 38.9834 18.4637 40.9278 20.4081Z" stroke="#663366" stroke-width="3.80859" stroke-miterlimit="10" stroke-linecap="round" stroke-linejoin="round"/>
<path d="M41.0344 28.9092H33.7808C31.0358 28.9092 28.8105 31.1342 28.8105 33.8792V34.4677C31.0947 36.5053 34.1063 37.7441 37.4076 37.7441C40.7088 37.7441 43.7204 36.5053 46.0043 34.4677V33.8792C46.0043 31.1342 43.7793 28.9092 41.0344 28.9092Z" stroke="#663366" stroke-width="3.80859" stroke-miterlimit="10" stroke-linecap="round" stroke-linejoin="round"/>
<path d="M87.9196 24.8246C87.9196 31.9599 82.1354 37.7441 74.9998 37.7441C67.8646 37.7441 62.0801 31.9599 62.0801 24.8246C62.0801 17.6891 67.8646 11.9049 74.9998 11.9049C82.1354 11.9049 87.9196 17.6891 87.9196 24.8246Z" stroke="#663366" stroke-width="3.80859" stroke-miterlimit="10" stroke-linecap="round" stroke-linejoin="round"/>
<path d="M78.5208 20.4081C80.4652 22.3528 80.4652 25.5053 78.5208 27.4497C76.5761 29.3944 73.4236 29.3944 71.4792 27.4497C69.5343 25.5053 69.5343 22.3528 71.4792 20.4081C73.4236 18.4637 76.5761 18.4637 78.5208 20.4081Z" stroke="#663366" stroke-width="3.80859" stroke-miterlimit="10" stroke-linecap="round" stroke-linejoin="round"/>
<path d="M78.6271 28.9092H71.3735C68.6286 28.9092 66.4033 31.1342 66.4033 33.8792V34.4677C68.6875 36.5053 71.699 37.7441 75.0003 37.7441C78.3016 37.7441 81.3132 36.5053 83.5971 34.4677V33.8792C83.5971 31.1342 81.3721 28.9092 78.6271 28.9092Z" stroke="#663366" stroke-width="3.80859" stroke-miterlimit="10" stroke-linecap="round" stroke-linejoin="round"/>
<path d="M125.513 24.8246C125.513 31.9599 119.729 37.7441 112.594 37.7441C105.458 37.7441 99.6738 31.9599 99.6738 24.8246C99.6738 17.6891 105.458 11.9049 112.594 11.9049C119.729 11.9049 125.513 17.6891 125.513 24.8246Z" stroke="#663366" stroke-width="3.80859" stroke-miterlimit="10" stroke-linecap="round" stroke-linejoin="round"/>
<path d="M116.115 20.4081C118.059 22.3528 118.059 25.5053 116.115 27.4497C114.17 29.3944 111.017 29.3944 109.073 27.4497C107.128 25.5053 107.128 22.3528 109.073 20.4081C111.017 18.4637 114.17 18.4637 116.115 20.4081Z" stroke="#663366" stroke-width="3.80859" stroke-miterlimit="10" stroke-linecap="round" stroke-linejoin="round"/>
<path d="M116.221 28.9092H108.967C106.222 28.9092 103.997 31.1342 103.997 33.8792V34.4677C106.281 36.5053 109.293 37.7441 112.594 37.7441C115.895 37.7441 118.907 36.5053 121.191 34.4677V33.8792C121.191 31.1342 118.966 28.9092 116.221 28.9092Z" stroke="#663366" stroke-width="3.80859" stroke-miterlimit="10" stroke-linecap="round" stroke-linejoin="round"/>
<path d="M75 44.5307V54.0098" stroke="#663366" stroke-width="3.80859" stroke-miterlimit="10" stroke-linecap="round" stroke-linejoin="round"/>
<path d="M112.593 44.5307V49.2704H83.3848V54.0098" stroke="#663366" stroke-width="3.80859" stroke-miterlimit="10" stroke-linecap="round" stroke-linejoin="round"/>
<path d="M37.4072 44.5307V49.2704H66.6158V54.0098" stroke="#663366" stroke-width="3.80859" stroke-miterlimit="10" stroke-linecap="round" stroke-linejoin="round"/>
<path d="M119.65 112.343V106.051C119.65 103.791 117.818 101.959 115.558 101.959H85.7905C83.5304 101.959 81.6982 103.791 81.6982 106.051V127.521C81.6982 129.781 83.5304 131.613 85.7905 131.613H115.558C117.818 131.613 119.65 129.781 119.65 127.521V121.23" stroke="#663366" stroke-width="3.80859" stroke-miterlimit="10" stroke-linecap="round" stroke-linejoin="round"/>
<path d="M70.5567 60.6952H69.2748C64.9507 60.6952 61.4453 64.2006 61.4453 68.5246V77.1173C61.4453 78.9381 62.9215 80.4141 64.742 80.4141H78.1143C81.105 80.4141 83.7025 78.736 85.0208 76.2708C85.1228 76.0796 85.413 76.1543 85.413 76.3709C85.413 78.5946 87.2323 80.4141 89.456 80.4141C90.6214 80.4141 91.5751 79.4604 91.5751 78.2947V69.328C91.5751 67.2155 89.732 65.6799 87.9006 65.8208C86.8413 65.9023 85.8693 65.2363 85.6654 64.1935C85.3219 62.4378 84.4528 60.6952 81.0568 60.6952H79.4435" stroke="#663366" stroke-width="3.80859" stroke-miterlimit="10" stroke-linecap="round" stroke-linejoin="round"/>
</g>
</svg>
