<svg width="150" height="150" viewBox="0 0 150 150" fill="none" xmlns="http://www.w3.org/2000/svg">
<path d="M137.584 93.9386C136.196 92.067 134.681 90.4289 134.616 90.3592C134.477 90.2051 134.302 90.0835 134.105 90.0008L126.334 86.7311C126.324 86.7263 126.312 86.7247 126.299 86.7214C126.282 86.7133 126.267 86.7052 126.251 86.6971C126.118 86.65 124.884 86.2332 123.297 86.2332C123.294 86.2332 123.291 86.2332 123.288 86.2332C121.011 86.2332 119.147 87.0847 117.897 88.7033C117.897 88.7033 117.895 88.7082 117.893 88.7114C117.89 88.713 117.885 88.7163 117.882 88.7195C116.901 90.0008 115.821 91.1279 114.676 92.127C113.38 92.8244 111.646 93.5802 109.473 94.2889C110.984 92.5438 112.58 90.4322 114.176 87.8908C117.989 81.8235 121.022 74.5284 123.192 66.2117C125.894 55.8757 127.266 43.9098 127.274 30.648C127.274 29.8274 126.611 29.1641 125.79 29.1641C124.971 29.1641 124.306 29.8274 124.306 30.6464C124.29 59.8524 117.504 76.9061 111.815 86.0694C109.011 90.5862 106.194 93.6726 103.957 95.6999C99.8571 96.4622 96.062 96.5157 93.2935 95.7972C86.3001 93.9856 79.9961 93.9889 76.1296 94.2694C74.4315 94.0878 73.2476 94.3148 72.5145 94.563C70.7175 93.8575 68.0366 94.2094 65.359 94.7268C65.3525 94.7284 65.3492 94.73 65.3411 94.73H65.3379L65.3184 94.7349C64.6081 94.8695 63.9074 95.0155 63.2295 95.1566L62.5921 95.288L61.6061 95.4891C61.1746 95.5734 59.8739 95.8264 59.3209 95.7907C58.2197 95.7161 54.9257 94.0424 51.2733 91.908L54.024 76.4C54.0256 76.3968 54.0256 76.3952 54.0256 76.3919L54.0272 76.3855C54.0418 76.2979 54.0467 76.2119 54.0467 76.1243C54.0467 76.1146 54.0483 76.1049 54.0483 76.0968L53.8926 68.3038C53.878 67.6908 53.492 67.1475 52.913 66.9383L50.7949 66.163C50.091 65.9068 49.3077 66.2117 48.9655 66.875L47.3858 69.9257L45.7494 70.902C45.1412 71.2669 44.8752 72.0097 45.1136 72.6779L46.4646 76.4601L43.315 82.3716C38.7982 82.0392 35.6696 85.0379 34.4484 86.4652L33.4202 86.363L32.8282 84.6098C32.5882 83.8929 31.8437 83.4729 31.1026 83.6351L25.1796 84.9406C25.1099 84.8774 25.0369 84.8125 24.9736 84.7493C24.9542 84.7347 24.9396 84.7233 24.9234 84.712C24.9185 84.7055 24.9104 84.6974 24.9023 84.6909L17.4954 78.6155C17.0542 78.2522 16.4412 78.176 15.9222 78.4192L10.8556 80.8033C10.3998 81.0174 10.0819 81.4456 10.0138 81.9419C9.9457 82.4414 10.1322 82.936 10.5101 83.2669L12.0979 84.6471L10.7209 86.0208C10.3236 86.4165 10.1857 87.0004 10.3593 87.5356C10.5344 88.0675 10.9967 88.4552 11.5465 88.5395L15.8168 89.185L17.6932 90.9885C16.4476 96.0794 19.3491 99.3717 20.3579 100.33C20.5995 100.922 20.9093 101.508 21.2726 102.057C21.2759 102.061 21.2807 102.067 21.284 102.072C21.2872 102.079 21.2904 102.085 21.2937 102.09C21.5613 102.497 21.8678 102.898 22.2052 103.284L23.5334 106.448C23.7281 106.912 24.1449 107.247 24.6444 107.335C24.732 107.351 24.8147 107.359 24.9007 107.359C25.311 107.359 25.7067 107.189 25.9905 106.884L26.4398 106.401C27.8556 107.024 29.3202 107.332 30.7182 107.332C32.6676 107.332 34.4873 106.74 35.8626 105.596C36.9039 106.555 38.7446 108.003 41.5391 109.374C46.5781 111.847 52.5903 113.097 59.4506 113.097C60.4983 113.097 61.5639 113.065 62.6489 113.008C63.0106 112.987 63.3609 112.969 63.7079 112.948L64.3453 114.787C64.527 115.314 64.9892 115.694 65.5439 115.769L67.6377 116.06C67.9977 117.358 68.9027 119.338 71.1408 120.22C71.8674 120.509 72.6605 120.652 73.5184 120.652C77.6784 120.652 83.4133 117.267 90.9224 110.402L103.868 109.09C104.014 109.074 104.16 109.039 104.298 108.981L124.47 100.397L128.971 104.785C129.248 105.058 129.621 105.207 130.004 105.207C130.108 105.207 130.215 105.196 130.317 105.173C130.805 105.069 131.204 104.729 131.387 104.263C131.439 104.13 132.044 102.494 131.814 99.6296C134.311 100.768 136.112 101.324 137.396 101.324C138.376 101.324 139.06 101.005 139.532 100.376C140.533 99.049 139.949 97.1239 137.584 93.9386ZM21.3926 94.5549C21.1348 94.9263 20.9531 95.3528 20.8217 95.8086C20.5704 95.1663 20.3871 94.4105 20.3709 93.5429C20.6596 93.8153 21.0164 94.1413 21.4234 94.5111C21.4137 94.5257 21.404 94.5403 21.3926 94.5549ZM20.3757 89.4477L17.5343 86.7149C17.3088 86.5025 17.0299 86.363 16.7266 86.3176L14.8972 86.0402L15.3221 85.6169C15.6124 85.3266 15.7681 84.9277 15.7551 84.5157C15.7421 84.1038 15.554 83.7178 15.2475 83.4469L14.1771 82.5176L16.3374 81.5023L22.15 86.2689C21.7137 87.208 21.0683 88.4535 20.3757 89.4477ZM92.5442 98.6727C94.0395 99.062 95.6873 99.2517 97.4113 99.2825C95.2819 99.5599 93.6438 99.6053 92.8767 99.6085C90.6872 99.6215 89.1692 99.3215 87.8101 98.8268L84.7351 97.3898C84.7318 97.3866 84.7253 97.3834 84.7253 97.3834C84.7188 97.3801 84.7107 97.3753 84.7026 97.3736C84.6686 97.3558 84.6345 97.3363 84.5988 97.3169C87.0575 97.5342 89.7514 97.9494 92.5442 98.6727ZM74.537 98.2316C74.5856 97.9315 74.5953 97.6574 74.5856 97.4012C75.0284 97.3525 75.5409 97.3023 76.1199 97.2585C76.5172 97.3152 76.9648 97.4028 77.453 97.5293L74.6359 101.073C74.4526 99.988 74.4137 99.0263 74.537 98.2316ZM66.7051 97.4969C70.2018 96.8871 71.2641 97.166 71.6063 97.4126C71.6063 97.4126 71.6436 97.5099 71.6047 97.7791C71.3338 99.5063 71.5706 101.607 72.2923 104.023L69.1103 108.026C67.6247 105.535 65.4968 101.071 66.7051 97.4969ZM49.2704 72.2611C49.5088 72.12 49.7018 71.914 49.8283 71.6675L50.9457 69.5121L51.0511 74.7863L49.0887 74.9826L48.32 72.8288L49.2704 72.2611ZM49.0206 77.9732L50.7576 77.7981L48.5454 90.2684C47.9713 89.9116 47.3988 89.5531 46.8344 89.1915C46.9998 88.3449 47.1117 87.5404 47.0874 86.9842C47.1344 86.8982 47.2204 86.7684 47.2788 86.676C47.6096 86.1651 48.2243 85.2163 47.7134 84.1427C47.4523 83.5961 46.9949 83.228 46.3608 82.962L49.0206 77.9732ZM44.5119 85.5148C44.3805 85.7499 44.2605 86.0192 44.1843 86.3159C44.1843 86.3127 44.1827 86.3078 44.181 86.3046C44.0659 85.8716 43.7707 85.5358 43.3993 85.3558C43.8794 85.4077 44.2394 85.4645 44.5119 85.5148ZM43.1333 88.1227C43.6053 87.9946 43.9637 87.654 44.1275 87.2339C44.1194 87.9135 43.6848 89.8662 43.2047 91.595L38.6457 94.2921C39.1096 91.9616 40.2627 88.8914 43.1333 88.1227ZM36.4384 88.726C36.9022 88.1129 38.9863 85.6121 42.0824 85.3347C39.2896 86.1927 37.2445 88.5071 36.1611 92.0459C35.921 92.8325 35.754 93.5996 35.6356 94.2889C35.6113 94.2678 35.5869 94.2484 35.561 94.2273C35.2934 92.7725 35.9081 90.2246 36.4384 88.726ZM30.4408 86.8203L30.9144 88.2167C31.0993 88.7698 31.5907 89.159 32.1681 89.2207L33.1509 89.318C32.9644 90.0137 32.7779 90.8457 32.6579 91.7134C31.1431 90.377 29.458 88.8622 27.8443 87.3929L30.4408 86.8203ZM26.8355 103.285C26.8242 103.28 26.816 103.277 26.8047 103.271C26.7366 103.235 26.6636 103.203 26.5922 103.177C26.5728 103.17 26.5598 103.164 26.5436 103.16C26.4576 103.13 26.3684 103.112 26.2776 103.102C26.2679 103.1 26.2614 103.1 26.25 103.1C26.1738 103.091 26.0959 103.091 26.0149 103.095C25.9889 103.095 25.9646 103.1 25.9354 103.104C25.8754 103.11 25.8137 103.121 25.7537 103.138C25.7262 103.144 25.6986 103.149 25.6726 103.157C25.6094 103.178 25.5445 103.203 25.4829 103.23C25.4651 103.24 25.4472 103.246 25.431 103.256C25.4245 103.256 25.4196 103.258 25.4132 103.263L24.8536 101.925C24.8147 101.834 24.7677 101.751 24.7158 101.67C24.7093 101.659 24.7028 101.649 24.6963 101.639C24.6606 101.586 24.6185 101.537 24.5763 101.487C24.3184 101.206 24.0914 100.912 23.8838 100.612C23.5675 99.3052 23.3794 97.4126 23.7054 96.5173C24.959 97.591 26.4284 98.8025 28.0113 100.017C29.9056 101.47 31.6816 102.709 33.3342 103.744C31.6297 104.701 29.1174 104.581 26.8355 103.285ZM43.2371 104.573C38.5841 104.573 30.3938 98.3873 25.1196 93.8251C24.9736 93.6077 24.7758 93.4326 24.5422 93.319C23.8027 92.6719 23.1296 92.0637 22.5474 91.522C23.3064 90.5052 23.9713 89.305 24.4628 88.3173C26.6895 90.3641 30.4846 93.8153 33.2109 96.1216C33.2304 96.1394 33.2531 96.1556 33.2742 96.1735C34.5538 97.2536 35.5902 98.0743 36.1059 98.3662C36.1108 98.3678 36.114 98.3711 36.1189 98.3727C36.1189 98.3727 36.1254 98.3759 36.1286 98.3776C36.1367 98.3824 36.1448 98.3873 36.1513 98.3921C40.214 100.57 43.6864 103.215 44.5703 104.461C44.3189 104.513 43.9264 104.563 43.3361 104.573H43.2371ZM44.4924 107.473C45.7007 107.335 47.2998 106.889 47.6696 105.345C48.0475 103.786 46.8619 102.066 43.8291 99.7675C42.5495 98.7992 41.1077 97.8537 39.8005 97.0622L45.2304 93.851C45.5547 93.658 45.7948 93.3482 45.8986 92.9866C45.9521 92.8049 46.0202 92.547 46.1062 92.2454C49.5931 94.4349 56.5021 98.5754 59.1214 98.7522C59.2203 98.7603 59.3193 98.7619 59.4279 98.7619C58.7613 101.164 58.6851 105.047 61.9385 110.066C54.1115 110.408 48.4303 109.093 44.4924 107.473ZM65.4287 109.868C60.6297 103.53 62.1104 99.5015 62.7851 98.277C62.9068 98.2527 63.0268 98.2283 63.1468 98.204L63.2198 98.1878L63.5036 98.131C62.8257 102.502 65.0784 107.126 66.7084 109.787C66.2932 109.813 65.8666 109.844 65.4287 109.868ZM66.8511 112.955L66.783 112.758C67.4349 112.713 68.0561 112.669 68.6383 112.625C68.6464 112.625 68.6481 112.624 68.6529 112.622C68.7405 112.616 68.8248 112.599 68.9092 112.578C68.9254 112.573 68.9416 112.569 68.9578 112.565C69.0389 112.539 69.1152 112.51 69.1898 112.473C69.2027 112.465 69.2173 112.458 69.2271 112.45C69.3779 112.372 69.5125 112.265 69.6309 112.132C69.6406 112.121 69.6536 112.108 69.6633 112.098C69.6714 112.087 69.6812 112.079 69.6877 112.069L80.3788 98.6257L83.3824 100.03C83.3873 100.032 83.3922 100.035 83.397 100.038C83.7733 100.231 84.1398 100.424 84.5096 100.609L74.5937 109.398C74.5613 109.425 74.5402 109.455 74.5126 109.487C74.4834 109.515 74.4526 109.539 74.4283 109.571L71.1798 113.555L66.8511 112.955ZM72.2502 117.465C71.7328 117.265 71.3582 116.92 71.0841 116.537L71.5966 116.607C71.6647 116.617 71.7312 116.622 71.8009 116.622C72.2421 116.622 72.667 116.424 72.9508 116.073L76.4231 111.814C76.4977 111.826 76.5707 111.836 76.6486 111.836C76.6972 111.836 76.7491 111.834 76.7978 111.829L85.8103 110.918C81.4671 114.515 75.4549 118.707 72.2502 117.465ZM103.344 106.159L90.4131 107.466C90.2525 107.455 90.0952 107.473 89.9395 107.515L80.0609 108.514L87.5554 101.869C88.9972 102.309 90.671 102.583 92.888 102.576C93.9828 102.572 96.6977 102.484 100.134 101.847C100.277 101.842 100.42 101.814 100.559 101.766C105.311 100.836 111.322 98.8479 116.332 94.6116C117.621 93.8964 118.665 93.1585 119.369 92.4335C119.509 92.2924 119.637 92.1513 119.746 92.0135C120.946 93.152 122.477 95.1485 122.576 97.9786L103.344 106.159ZM125.505 97.2552C125.172 93.5088 123.014 90.9495 121.452 89.5629C122.68 88.9936 124.11 89.2093 124.82 89.3764C128.061 94.3878 128.826 98.2219 128.893 100.562L125.505 97.2552ZM131.162 96.0194C130.763 94.5727 130.159 92.9606 129.277 91.1912L132.655 92.6103C134.582 94.7268 136.292 97.072 136.843 98.3029C136.053 98.157 134.405 97.6477 131.162 96.0194Z" fill="#663366"/>
<path d="M83.9325 70.0158C84.7548 70.0158 85.4182 69.3525 85.4182 68.5334V57.179C85.4182 56.3583 84.7548 55.6934 83.9325 55.6934C83.1135 55.6934 82.4502 56.3583 82.4502 57.179V68.5334C82.4502 69.3525 83.1135 70.0158 83.9325 70.0158Z" fill="#663366"/>
<path d="M92.1946 77.2508C93.0136 77.2508 93.6786 76.5875 93.6786 75.7685V62.3121C93.6786 61.4931 93.0136 60.8281 92.1946 60.8281C91.3723 60.8281 90.709 61.4931 90.709 62.3121V75.7685C90.709 76.5875 91.3723 77.2508 92.1946 77.2508Z" fill="#663366"/>
<path d="M83.9325 79.3048C84.7548 79.3048 85.4182 78.6414 85.4182 77.8192V73.1207C85.4182 72.3017 84.7548 71.6367 83.9325 71.6367C83.1135 71.6367 82.4502 72.3017 82.4502 73.1207V77.8192C82.4502 78.6414 83.1135 79.3048 83.9325 79.3048Z" fill="#663366"/>
<path d="M109.188 61.4832C110.009 61.4832 110.672 60.8182 110.672 59.9992V52.1106C110.672 51.2916 110.009 50.625 109.188 50.625C108.367 50.625 107.704 51.2916 107.704 52.1106V59.9992C107.704 60.8182 108.367 61.4832 109.188 61.4832Z" fill="#663366"/>
<path d="M114.583 57.4632C115.402 57.4632 116.066 56.7966 116.066 55.9792V47.5992C116.066 46.7802 115.402 46.1152 114.583 46.1152C113.763 46.1152 113.098 46.7802 113.098 47.5992V55.9792C113.098 56.7966 113.763 57.4632 114.583 57.4632Z" fill="#663366"/>
<path d="M60.4892 52.9068C61.3131 52.9068 61.9764 52.2434 61.9764 51.4244V40.0683C61.9764 39.2493 61.3131 38.5859 60.4892 38.5859C59.6718 38.5859 59.0068 39.2493 59.0068 40.0683V51.4244C59.0068 52.2434 59.6718 52.9068 60.4892 52.9068Z" fill="#663366"/>
<path d="M52.2346 60.1418C53.052 60.1418 53.717 59.4785 53.717 58.6594V45.2031C53.717 44.384 53.052 43.7207 52.2346 43.7207C51.4124 43.7207 50.749 44.384 50.749 45.2031V58.6594C50.749 59.4785 51.4124 60.1418 52.2346 60.1418Z" fill="#663366"/>
<path d="M60.4892 62.1934C61.3131 62.1934 61.9764 61.5285 61.9764 60.7095V56.0094C61.9764 55.1903 61.3131 54.5254 60.4892 54.5254C59.6718 54.5254 59.0068 55.1903 59.0068 56.0094V60.7095C59.0068 61.5285 59.6718 62.1934 60.4892 62.1934Z" fill="#663366"/>
<path d="M35.2369 44.3758C36.0559 44.3758 36.7209 43.7092 36.7209 42.8902V35.0016C36.7209 34.1809 36.0559 33.5176 35.2369 33.5176C34.4179 33.5176 33.7529 34.1809 33.7529 35.0016V42.8902C33.7529 43.7076 34.4195 44.3758 35.2369 44.3758Z" fill="#663366"/>
<path d="M29.8417 40.348C30.6624 40.348 31.3273 39.683 31.3273 38.864V30.484C31.3273 29.665 30.6624 29 29.8417 29C29.0227 29 28.3594 29.665 28.3594 30.484V38.864C28.3594 39.683 29.0227 40.348 29.8417 40.348Z" fill="#663366"/>
</svg>
