<svg width="150" height="150" viewBox="0 0 150 150" fill="none" xmlns="http://www.w3.org/2000/svg">
<path d="M114.893 74.3036H110.004C109.163 74.3036 108.48 73.6156 108.48 72.7678C108.48 71.92 109.163 71.232 110.004 71.232H114.893C115.733 71.232 116.416 71.92 116.416 72.7678C116.416 73.6156 115.733 74.3036 114.893 74.3036ZM122.014 78.6323C122.014 77.7845 121.331 77.0965 120.49 77.0965H115.599C114.758 77.0965 114.076 77.7845 114.076 78.6323C114.076 79.4801 114.758 80.1681 115.599 80.1681H120.49C121.333 80.168 122.014 79.4799 122.014 78.6323ZM129.349 89.233C129.349 88.3852 128.666 87.6972 127.825 87.6972H122.936C122.095 87.6972 121.413 88.3852 121.413 89.233C121.413 90.0807 122.095 90.7688 122.936 90.7688H127.825C128.666 90.7667 129.349 90.0807 129.349 89.233ZM29.0545 87.2631C29.0545 86.4153 28.372 85.7273 27.5311 85.7273H22.64C21.7991 85.7273 21.1166 86.4153 21.1166 87.2631C21.1166 88.1109 21.7991 88.7989 22.64 88.7989H27.5311C28.372 88.7969 29.0545 88.1109 29.0545 87.2631ZM33.9437 80.8232C33.9437 79.9755 33.2612 79.2874 32.4202 79.2874H27.5312C26.6903 79.2874 26.0078 79.9755 26.0078 80.8232C26.0078 81.671 26.6903 82.3591 27.5312 82.3591H32.4202C33.2632 82.3591 33.9437 81.6731 33.9437 80.8232ZM10.1015 48.2307C9.80296 47.4363 10.199 46.5516 10.9851 46.2486C20.621 42.5547 31.0572 39.7207 41.9993 37.8205C42.8341 37.6834 43.5339 38.2923 43.7604 39.0737C43.8091 39.2416 43.8274 39.5056 43.8274 39.6808V50.0451C50.0063 49.0254 56.2785 48.3333 62.5895 47.9299V38.4821C58.7322 38.732 54.873 39.0944 51.028 39.5775C50.1953 39.6964 49.4314 39.0861 49.3279 38.2446C49.2243 37.4031 49.8154 36.6351 50.6501 36.5307C81.2398 32.6873 112.615 36.1375 139.005 46.251C139.791 46.554 140.187 47.4386 139.888 48.2331C139.657 48.8454 139.08 49.2221 138.465 49.2221C138.284 49.2221 138.103 49.1893 137.924 49.1218C135.653 48.2516 133.33 47.4488 130.986 46.6789V55.9834C133.413 56.7637 135.814 57.595 138.176 58.4837C138.964 58.7806 139.364 59.6652 139.072 60.4597C138.84 61.0781 138.261 61.4589 137.644 61.4589C137.467 61.4589 137.286 61.4282 137.112 61.3606C99.3824 47.1663 50.6217 47.1683 12.8945 61.3606C12.1044 61.6575 11.2269 61.2541 10.9344 60.4597C10.6399 59.6649 11.04 58.7803 11.8281 58.4834C14.1822 57.5967 16.575 56.7715 18.9941 55.9913V46.6705C16.644 47.4403 14.3306 48.2533 12.0677 49.1215C11.889 49.189 11.7062 49.2218 11.5253 49.2218C10.912 49.2218 10.3331 48.8451 10.1015 48.2307ZM106.158 50.0409V40.6114C100.026 39.5896 93.7703 38.8832 87.445 38.4797V47.9296C93.7398 48.3331 99.9958 49.0232 106.158 50.0409ZM127.943 45.6916C121.888 43.8385 115.616 42.3375 109.203 41.154V50.5753C115.587 51.7404 121.849 53.2475 127.943 55.078C127.943 55.0782 127.943 45.6916 127.943 45.6916ZM65.6362 47.7352C71.8842 47.4342 78.1545 47.4363 84.4003 47.7372V38.2955C78.1869 37.9986 71.9147 38.0149 65.6362 38.3222V47.7352ZM40.7785 50.5795V41.191C34.3174 42.3786 28.0592 43.9081 22.0407 45.747V55.0863C28.1344 53.2537 34.3945 51.7446 40.7785 50.5795ZM11.5255 71.9856C11.7063 71.9856 11.889 71.9528 12.0679 71.8852C50.2948 57.2384 99.6972 57.2343 137.924 71.8852C138.714 72.1862 139.59 71.789 139.888 70.9945C140.189 70.2 139.791 69.3134 139.005 69.0124C100.122 54.1116 49.8703 54.1158 10.9831 69.0124C10.197 69.3154 9.80094 70.2 10.0995 70.9945C10.3331 71.6068 10.912 71.9856 11.5255 71.9856ZM138.475 106.482C133.957 106.482 131.623 108.374 129.564 110.047C127.663 111.589 126.017 112.924 122.597 112.924C121.725 112.924 120.956 112.808 120.222 112.634C117.216 90.6725 97.9931 74.2318 75 74.2318C52.0049 74.2318 32.7737 90.6848 29.7756 112.654C29.0749 112.824 28.2949 112.924 27.3788 112.924C23.9542 112.924 22.311 111.589 20.4098 110.043C18.3562 108.374 16.0305 106.484 11.5295 106.484C10.6886 106.484 10.0061 107.172 10.0061 108.02C10.0061 108.868 10.6886 109.556 11.5295 109.556C14.9541 109.556 16.5973 110.891 18.4985 112.437C20.5521 114.106 22.8798 115.996 27.3808 115.996C31.8819 115.996 34.2077 114.106 36.2611 112.437C38.1623 110.889 39.8055 109.556 43.2302 109.556C46.675 109.556 48.3224 110.893 50.2317 112.443C52.2852 114.11 54.615 115.998 59.1099 115.998C63.6111 115.998 65.9388 114.108 67.9923 112.439C69.8934 110.891 71.5366 109.558 74.9613 109.558C78.4061 109.558 80.0535 110.895 81.9628 112.445C84.0164 114.112 86.3441 116 90.839 116C95.3402 116 97.6679 114.108 99.7234 112.441C101.625 110.893 103.266 109.56 106.69 109.56C107.791 109.56 108.76 109.697 109.648 109.978C110.454 110.23 111.307 109.775 111.557 108.968C111.807 108.157 111.358 107.295 110.556 107.044C109.367 106.671 108.104 106.491 106.69 106.491C102.189 106.491 99.8634 108.381 97.8079 110.05C95.9067 111.594 94.2656 112.931 90.8389 112.931C87.4163 112.931 85.7731 111.596 83.8719 110.054C81.8123 108.381 79.4785 106.489 74.9611 106.489C70.46 106.489 68.1343 108.379 66.0808 110.048C64.1797 111.596 62.5365 112.929 59.1118 112.929C55.6892 112.929 54.048 111.594 52.1448 110.052C50.0852 108.379 47.7514 106.487 43.2341 106.487C38.7329 106.487 36.4052 108.377 34.3517 110.045C33.9393 110.381 33.5392 110.703 33.131 111.006C36.8136 91.5981 54.2698 77.3055 75.0061 77.3055C96.8209 77.3055 115.033 93.1011 117.368 114.049C117.375 114.047 117.377 114.045 117.381 114.042C117.444 114.61 117.809 115.124 118.382 115.324C119.666 115.777 121.045 115.994 122.599 115.994C127.094 115.994 129.421 114.106 131.475 112.439C133.384 110.889 135.034 109.552 138.477 109.552C139.317 109.552 140 108.864 140 108.016C139.998 107.168 139.315 106.482 138.475 106.482Z" fill="#663366"/>
</svg>
