<svg width="150" height="150" viewBox="0 0 150 150" fill="none" xmlns="http://www.w3.org/2000/svg">
<path d="M73.1405 35.1328C70.085 35.1328 67.6406 37.5772 67.6406 40.6327C67.6406 43.6882 70.085 46.1325 73.1405 46.1325C76.196 46.1325 78.6404 43.6882 78.6404 40.6327C78.6404 37.5772 76.196 35.1328 73.1405 35.1328ZM73.1405 43.0771C71.7655 43.0771 70.6961 42.0076 70.6961 40.6327C70.6961 39.2577 71.7655 38.1883 73.1405 38.1883C74.5155 38.1883 75.5849 39.2577 75.5849 40.6327C75.5849 42.0076 74.5155 43.0771 73.1405 43.0771Z" fill="#663366"/>
<path d="M68.4052 49.4931C68.4052 46.5904 66.1136 44.2988 63.2109 44.2988C60.3082 44.2988 58.0166 46.5904 58.0166 49.4931C58.0166 52.3959 60.3082 54.6875 63.2109 54.6875C66.1136 54.6875 68.4052 52.3959 68.4052 49.4931ZM61.0721 49.4931C61.0721 48.271 61.9887 47.3543 63.2109 47.3543C64.4331 47.3543 65.3498 48.271 65.3498 49.4931C65.3498 50.7153 64.4331 51.632 63.2109 51.632C61.9887 51.632 61.0721 50.7153 61.0721 49.4931Z" fill="#663366"/>
<path d="M63.2094 38.1867C63.2094 35.7424 61.2234 33.6035 58.6262 33.6035C56.029 33.6035 54.043 35.5896 54.043 38.1867C54.043 40.7839 56.029 42.77 58.6262 42.77C61.2234 42.77 63.2094 40.6311 63.2094 38.1867ZM57.2512 38.1867C57.2512 37.4229 57.8623 36.659 58.779 36.659C59.6956 36.659 60.3067 37.2701 60.3067 38.1867C60.3067 39.1034 59.6956 39.7145 58.779 39.7145C57.8623 39.7145 57.2512 38.9506 57.2512 38.1867Z" fill="#663366"/>
<path d="M66.2645 56.2168C63.9729 56.2168 62.1396 58.0501 62.1396 60.3417C62.1396 62.6333 63.9729 64.4666 66.2645 64.4666C68.5562 64.4666 70.3895 62.6333 70.3895 60.3417C70.3895 58.0501 68.5562 56.2168 66.2645 56.2168ZM66.2645 61.5639C65.6535 61.5639 65.1951 61.1056 65.1951 60.4945C65.1951 59.8834 65.6535 59.4251 66.2645 59.4251C66.8756 59.4251 67.334 59.8834 67.334 60.4945C67.334 61.1056 66.8756 61.5639 66.2645 61.5639Z" fill="#663366"/>
<path d="M43.8081 52.7006C45.3359 52.7006 46.7108 52.0895 47.7802 51.0201C48.8497 49.9506 49.308 48.5757 49.308 47.2007C49.308 45.8257 48.6969 44.4508 47.6275 43.3813C45.4886 41.2425 41.9748 41.3953 39.9888 43.5341C37.8499 45.673 38.0027 49.1868 40.1415 51.1728C41.0582 52.0895 42.4332 52.7006 43.8081 52.7006ZM42.1276 45.5202C42.5859 45.0619 43.197 44.7563 43.8081 44.7563C44.4192 44.7563 45.0303 44.9091 45.4886 45.3674C45.947 45.8257 46.2525 46.4368 46.2525 47.0479C46.2525 47.659 46.0997 48.2701 45.6414 48.7284C45.1831 49.1868 44.572 49.4923 43.9609 49.4923C43.3498 49.4923 42.7387 49.3395 42.2804 48.8812C41.211 47.9646 41.211 46.4368 42.1276 45.5202Z" fill="#663366"/>
<path d="M43.1962 65.6893C44.5711 65.6893 45.9461 65.231 47.0155 64.1616C49.0016 62.0227 49.0016 58.8145 46.8627 56.8284C44.7239 54.8423 41.5156 54.8423 39.5296 56.9812C37.5435 59.12 37.5435 62.3283 39.6823 64.3143C40.599 65.231 41.974 65.6893 43.1962 65.6893ZM41.6684 58.9672C42.1267 58.5089 42.7378 58.3561 43.1962 58.3561C43.8073 58.3561 44.2656 58.5089 44.7239 58.9672C45.6405 59.7311 45.6405 61.2589 44.7239 62.0227C43.8073 62.7866 42.4323 62.9394 41.6684 62.0227C40.9045 61.2589 40.9045 59.8839 41.6684 58.9672Z" fill="#663366"/>
<path d="M28.6841 52.8554C27.7675 53.7721 27.4619 54.8415 27.4619 56.0637C27.4619 57.2859 27.9202 58.3553 28.8369 59.2719C29.7535 60.0358 30.8229 60.4941 32.0451 60.4941C32.0451 60.4941 32.0451 60.4941 32.1979 60.4941C33.4201 60.4941 34.4895 60.0358 35.4062 59.1192C37.0867 57.2859 37.0867 54.3832 35.2534 52.7027C34.3367 51.786 33.2673 51.4805 32.0451 51.4805C30.6702 51.4805 29.6008 51.9388 28.6841 52.8554ZM32.0451 54.536C32.5035 54.536 32.809 54.6887 33.1146 54.9943C33.7257 55.6054 33.7257 56.522 33.1146 57.1331C32.809 57.4387 32.5035 57.5914 32.0451 57.5914C31.5868 57.5914 31.2813 57.4387 30.9757 57.1331C30.6702 56.8276 30.5174 56.522 30.5174 56.0637C30.5174 55.6054 30.6702 55.2998 30.9757 54.9943C31.2813 54.6887 31.5868 54.536 32.0451 54.536Z" fill="#663366"/>
<path d="M50.2245 68.8967C50.9884 69.6606 52.0578 70.1189 53.1272 70.1189C54.1966 70.1189 55.266 69.6606 56.1827 68.8967C57.8632 67.2162 57.7104 64.6191 56.0299 62.9386C54.3494 61.258 51.7522 61.4108 50.0717 63.0913C48.544 64.6191 48.544 67.369 50.2245 68.8967ZM52.3633 65.0774C52.5161 64.7718 52.8217 64.7718 53.1272 64.7718C53.4328 64.7718 53.7383 64.9246 53.8911 65.0774C54.3494 65.5357 54.3494 66.2996 53.8911 66.7579C53.4328 67.2162 52.6689 67.2162 52.2106 66.7579C51.905 66.2996 51.905 65.5357 52.3633 65.0774Z" fill="#663366"/>
<path d="M28.0711 78.3669H28.2239C29.7516 78.3669 30.9738 77.7558 32.0432 76.6864C32.9599 75.617 33.571 74.242 33.571 72.7143C33.571 71.1865 32.9599 69.9643 31.8905 68.8949C30.821 67.9783 29.4461 67.3672 27.9183 67.3672C24.8628 67.52 22.5712 69.9643 22.724 73.0198C22.8768 75.9225 25.1684 78.3669 28.0711 78.3669ZM26.3906 71.1865C26.8489 70.7282 27.46 70.4227 28.0711 70.4227C28.0711 70.4227 28.0711 70.4227 28.2239 70.4227C28.835 70.4227 29.4461 70.5754 29.9044 71.0338C30.3627 71.4921 30.6683 72.1032 30.6683 72.7143C30.6683 73.3254 30.5155 73.9365 30.0572 74.3948C29.5988 74.8531 28.9877 75.1587 28.3767 75.1587C27.0017 75.1587 25.9323 74.242 25.9323 72.8671C25.7795 72.256 25.9323 71.6449 26.3906 71.1865Z" fill="#663366"/>
<path d="M32.0443 82.6453C32.1971 85.548 34.4887 87.6869 37.2386 87.6869H37.3914C40.2941 87.5341 42.5857 85.0897 42.433 82.3398C42.2802 79.4371 39.8358 77.1455 37.0859 77.2982C34.1832 77.451 31.8916 79.8954 32.0443 82.6453ZM35.7109 81.1176C36.1692 80.6593 36.6275 80.5065 37.2386 80.3537C38.4608 80.3537 39.5303 81.2704 39.5303 82.4925C39.5303 83.7147 38.6136 84.7842 37.3914 84.7842C36.1692 84.7842 35.2526 83.8675 35.0998 82.6453C35.0998 82.0342 35.2526 81.4231 35.7109 81.1176Z" fill="#663366"/>
<path d="M26.2385 91.9653H26.3913C28.8357 91.8125 30.8217 89.8264 30.8217 87.2293C30.6689 84.7849 28.5301 82.7988 26.0857 82.7988C23.6413 82.9516 21.6553 84.9377 21.6553 87.5348C21.808 90.132 23.7941 91.9653 26.2385 91.9653ZM26.0857 86.0071C26.8496 86.0071 27.6135 86.6182 27.6135 87.3821C27.6135 88.1459 27.0024 88.9098 26.2385 88.9098C25.4746 88.9098 24.7108 88.2987 24.7108 87.5348C24.7108 86.771 25.3219 86.0071 26.0857 86.0071Z" fill="#663366"/>
<path d="M48.0853 83.4089C49.3075 83.4089 50.3769 82.9505 51.1408 82.0339C51.9046 81.27 52.363 80.2006 52.2102 78.9784C52.0574 76.6868 50.2241 74.8535 47.9325 74.8535C45.6409 75.0063 43.8076 76.8396 43.8076 79.1312C43.8076 80.2006 44.2659 81.27 45.1826 82.0339C45.9465 82.9505 47.0159 83.4089 48.0853 83.4089ZM48.0853 78.0618C48.6964 78.0618 49.3075 78.5201 49.3075 79.1312C49.3075 79.4367 49.1547 79.7423 49.0019 79.8951C48.8492 80.0478 48.5436 80.2006 48.2381 80.2006C47.9325 80.2006 47.627 80.0478 47.4742 79.8951C47.3214 79.7423 47.1686 79.4367 47.1686 79.1312C46.8631 78.5201 47.4742 78.0618 48.0853 78.0618Z" fill="#663366"/>
<path d="M36.0169 107.396C37.3918 107.396 38.7668 106.632 39.8362 105.563C41.8223 103.271 41.6695 99.9102 39.3779 97.9242C37.0863 95.9381 33.7252 96.0909 31.7392 98.3825C30.8225 99.4519 30.2114 100.827 30.3642 102.355C30.3642 103.73 31.1281 105.105 32.1975 106.174C33.2669 107.091 34.4891 107.549 35.8641 107.549C35.8641 107.396 35.8641 107.396 36.0169 107.396ZM33.878 100.369C34.3363 99.9102 34.9474 99.6047 35.7113 99.6047C36.3224 99.6047 36.7807 99.7574 37.239 100.216C38.1557 101.132 38.3085 102.66 37.3918 103.577C36.4752 104.493 34.9474 104.646 34.0308 103.73C33.1142 102.966 33.1142 101.438 33.878 100.369Z" fill="#663366"/>
<path d="M49.0014 107.395C50.3764 107.395 51.9041 106.784 52.8207 105.714C54.8068 103.576 54.654 100.215 52.5152 98.3813C50.3764 96.3952 47.0153 96.548 45.182 98.6868C43.196 100.826 43.3487 104.187 45.4876 106.02C46.557 106.937 47.7792 107.395 49.0014 107.395ZM47.3209 100.673C47.7792 100.215 48.3903 99.909 49.0014 99.909C49.4597 99.909 50.0708 100.062 50.5291 100.52C51.4458 101.284 51.4458 102.659 50.6819 103.576C49.918 104.492 48.5431 104.492 47.6264 103.728C46.7098 102.964 46.557 101.59 47.3209 100.673Z" fill="#663366"/>
<path d="M41.8218 116.867C42.7384 117.631 43.8078 118.089 44.8772 118.089C46.0994 118.089 47.3216 117.631 48.2383 116.562C49.9188 114.728 49.766 111.826 47.9327 110.145C46.0994 108.465 43.1967 108.617 41.5162 110.451C39.8357 112.437 39.9885 115.187 41.8218 116.867ZM43.8078 112.59C44.1134 112.284 44.5717 112.131 44.8772 112.131C45.1828 112.131 45.6411 112.284 45.7939 112.437C46.0994 112.742 46.2522 113.048 46.2522 113.506C46.2522 113.964 46.0994 114.27 45.9467 114.576C45.3356 115.187 44.4189 115.187 43.8078 114.728C43.5023 114.423 43.3495 114.117 43.3495 113.659C43.3495 113.201 43.5023 112.895 43.8078 112.59Z" fill="#663366"/>
<path d="M54.0433 96.2431C55.2655 96.2431 56.3349 95.7848 57.0988 94.8682C57.8627 94.1043 58.1682 93.0349 58.1682 91.8127C58.1682 90.7433 57.5571 89.6738 56.7932 88.91C55.1127 87.3822 52.3628 87.535 50.835 89.2155C50.0712 89.9794 49.7656 91.0488 49.7656 92.271C49.7656 93.3404 50.3767 94.4098 51.1406 95.1737C52.0572 95.9376 53.1267 96.2431 54.0433 96.2431ZM53.2794 91.2016C53.7378 90.7433 54.3488 90.7433 54.9599 91.0488C55.1127 91.2016 55.2655 91.5071 55.2655 91.8127C55.2655 92.1182 55.1127 92.4238 54.9599 92.5765C54.5016 93.0349 53.8905 93.0349 53.2794 92.7293C53.1267 92.5765 52.9739 92.271 52.9739 91.9655C52.9739 91.8127 52.9739 91.5071 53.2794 91.2016Z" fill="#663366"/>
<path d="M61.8348 122.214C61.9876 122.214 62.1404 122.214 62.1404 122.214C63.5153 122.061 64.8903 121.45 65.807 120.381C66.7236 119.311 67.1819 117.936 67.1819 116.409C67.0291 115.034 66.4181 113.659 65.3486 112.742C64.2792 111.826 62.9042 111.367 61.3765 111.367C60.0015 111.52 58.6266 112.131 57.7099 113.2C56.7933 114.27 56.335 115.645 56.335 117.173C56.6405 120.075 59.0849 122.214 61.8348 122.214ZM60.1543 115.187C60.6126 114.728 61.2237 114.423 61.8348 114.423H61.9876C63.2098 114.423 64.2792 115.339 64.432 116.714C64.432 117.325 64.2792 117.936 63.8209 118.395C63.3626 118.853 62.7515 119.159 62.1404 119.159C61.5293 119.159 60.9182 119.006 60.4599 118.548C60.0015 118.089 59.696 117.478 59.696 116.867C59.5432 116.409 59.696 115.798 60.1543 115.187Z" fill="#663366"/>
<path d="M65.9599 107.701C66.1126 110.451 68.4042 112.59 71.1542 112.59C71.3069 112.59 71.4597 112.59 71.4597 112.59C74.3624 112.437 76.5013 109.84 76.3485 106.937C76.1957 105.562 75.5846 104.34 74.5152 103.271C73.4458 102.354 72.0708 101.896 70.6959 102.048C67.9459 102.354 65.8071 104.798 65.9599 107.701ZM72.6819 105.715C73.1402 106.173 73.4458 106.632 73.4458 107.243C73.4458 107.854 73.293 108.312 72.9875 108.771C72.5291 109.229 72.0708 109.534 71.4597 109.534C70.2375 109.687 69.1681 108.771 69.1681 107.548C69.0153 106.326 69.932 105.257 71.1542 105.257C71.6125 105.104 72.2236 105.257 72.6819 105.715Z" fill="#663366"/>
<path d="M72.0704 118.547C72.2232 120.991 74.2092 122.824 76.6536 122.824C76.8064 122.824 76.8064 122.824 76.9592 122.824C79.4036 122.671 81.3896 120.533 81.2369 117.935C81.0841 116.713 80.6258 115.644 79.7091 114.88C78.7925 114.116 77.5703 113.658 76.3481 113.811C73.7509 113.963 71.9176 116.102 72.0704 118.547ZM77.5703 117.172C77.8758 117.477 78.0286 117.783 78.0286 118.241C78.0286 119.005 77.4175 119.769 76.6536 119.769C75.8898 119.769 75.1259 119.158 75.1259 118.394C75.1259 117.63 75.737 116.866 76.5009 116.866C76.8064 116.713 77.2647 116.866 77.5703 117.172Z" fill="#663366"/>
<path d="M67.4882 100.826C67.641 100.826 67.641 100.826 67.7937 100.826C68.8631 100.826 69.9326 100.214 70.6964 99.4506C71.4603 98.6867 71.7659 97.4645 71.7659 96.3951C71.6131 94.1035 69.627 92.2702 67.3354 92.423C66.266 92.423 65.1966 93.0341 64.4327 93.7979C63.6688 94.7146 63.3633 95.784 63.3633 96.8534C63.3633 97.9228 63.9744 98.9923 64.7382 99.7561C65.5021 100.52 66.4188 100.826 67.4882 100.826ZM67.4882 95.4784C68.0993 95.4784 68.7104 95.9368 68.7104 96.5479C68.7104 96.8534 68.5576 97.159 68.4048 97.3117C68.2521 97.4645 67.9465 97.6173 67.641 97.7701C67.3354 97.7701 67.0299 97.6173 66.8771 97.4645C66.5715 97.3117 66.5715 97.0062 66.4188 96.7006C66.266 96.0895 66.7243 95.6312 67.4882 95.4784Z" fill="#663366"/>
<path d="M90.2521 102.812C88.8771 102.965 87.5021 103.576 86.5855 104.798C84.5994 107.09 84.905 110.604 87.1966 112.437C88.1132 113.201 89.4882 113.659 90.7104 113.659C90.8632 113.659 91.0159 113.659 91.1687 113.659C92.5437 113.506 93.9187 112.895 94.8353 111.673C95.7519 110.604 96.2103 109.229 96.0575 107.701C95.9047 106.173 95.2936 104.951 94.0714 104.034C93.1548 103.118 91.7798 102.659 90.2521 102.812ZM92.5437 109.84C92.2381 110.298 91.627 110.604 91.016 110.604C90.4049 110.604 89.7938 110.451 89.3354 109.993C88.266 109.076 88.266 107.701 89.0299 106.632C89.4882 106.173 89.9465 105.868 90.7104 105.868H90.8632C91.4743 105.868 91.9326 106.02 92.3909 106.479C92.8492 106.937 93.1548 107.395 93.1548 108.159C93.1548 108.923 93.002 109.381 92.5437 109.84Z" fill="#663366"/>
<path d="M90.403 100.214C91.9307 100.214 93.3057 99.6034 94.3751 98.3812C96.2084 96.2423 95.9028 92.8813 93.764 91.048C92.6946 90.1314 91.3196 89.6731 89.9446 89.8258C88.5697 89.9786 87.3475 90.5897 86.4308 91.6591C85.5142 92.7285 85.0559 94.1035 85.2086 95.4785C85.3614 96.8534 85.9725 98.0756 87.0419 98.9923C88.1113 99.7561 89.1808 100.214 90.403 100.214ZM88.7224 93.4924C89.028 93.0341 89.6391 92.7285 90.2502 92.7285C90.8613 92.7285 91.3196 92.8813 91.7779 93.1869C92.6946 93.9507 92.8473 95.3257 92.0835 96.2423C91.3196 97.159 89.9446 97.3118 89.028 96.5479C88.1113 95.9368 87.9586 94.409 88.7224 93.4924Z" fill="#663366"/>
<path d="M105.375 101.744C107.056 99.7577 106.75 97.0077 104.764 95.3272C103.848 94.5633 102.625 94.105 101.403 94.2578C100.181 94.4106 99.1115 94.8689 98.3477 95.7855C96.6672 97.7716 96.9727 100.522 98.9588 102.202C99.8754 102.966 100.792 103.271 101.861 103.271C103.236 103.271 104.611 102.66 105.375 101.744ZM101.098 99.9104C100.486 99.4521 100.334 98.3827 100.945 97.7716C101.25 97.466 101.556 97.3133 102.014 97.3133H102.167C102.473 97.3133 102.778 97.466 103.084 97.6188C103.389 97.9244 103.542 98.2299 103.542 98.6882C103.542 99.1466 103.389 99.4521 103.236 99.7577C102.931 100.063 102.625 100.216 102.167 100.216C101.709 100.216 101.403 100.063 101.098 99.9104Z" fill="#663366"/>
<path d="M79.8624 86.0078C78.7929 86.1606 77.7235 86.6189 76.9596 87.5356C75.4319 89.3688 75.7374 91.966 77.418 93.4937C78.1818 94.1048 79.0985 94.4104 80.1679 94.4104C80.3207 94.4104 80.4734 94.4104 80.4734 94.4104C81.5429 94.2576 82.6123 93.7993 83.3762 92.8826C84.9039 91.0494 84.5983 88.4522 82.9178 86.9245C82.0012 86.3134 80.9318 86.0078 79.8624 86.0078ZM81.0845 91.0494C80.9318 91.3549 80.6262 91.3549 80.3207 91.5077C80.0151 91.5077 79.7096 91.5077 79.5568 91.2021C79.0985 90.7438 78.9457 90.1327 79.404 89.5216C79.5568 89.2161 79.8624 89.2161 80.1679 89.0633C80.1679 89.0633 80.1679 89.0633 80.3207 89.0633C80.6262 89.0633 80.779 89.2161 81.0845 89.3688C81.3901 89.8272 81.3901 90.4383 81.0845 91.0494Z" fill="#663366"/>
<path d="M114.695 53.6186C113.625 52.3964 111.792 52.0909 110.264 53.0075L104.917 56.063L69.779 75.007C68.5568 75.6181 67.9457 76.993 67.9457 78.368C67.9457 78.6736 68.0985 78.9791 68.0985 79.1319C67.9457 79.2847 67.6401 79.4374 67.4874 79.5902C67.3346 79.743 67.1818 80.0485 67.0291 80.3541C66.7235 80.3541 66.5707 80.2013 66.2652 80.3541C65.9596 80.3541 65.6541 80.5068 65.5013 80.5068C65.3485 80.3541 65.1958 80.0485 65.043 79.8958C64.8902 79.743 64.5847 79.5902 64.4319 79.4374C64.4319 79.1319 64.5847 78.9791 64.5847 78.6736C64.5847 78.368 64.5847 78.0625 64.4319 77.9097C64.5847 77.7569 64.8902 77.6041 65.043 77.4514C65.1958 77.2986 65.3485 76.993 65.5013 76.8403C65.8069 76.8403 65.9596 76.993 66.2652 76.993C67.6402 76.993 68.8623 76.2292 69.3207 75.007L85.3619 38.0357L87.8063 32.383C88.4174 30.8553 87.9591 29.022 86.7369 28.1053C84.1398 25.9665 78.0288 22.6055 66.5707 22.6055C55.1127 22.6055 49.0017 26.1193 46.2518 28.1053C45.9462 28.4109 45.6407 28.5637 45.4879 28.8692C45.0296 28.7164 44.4185 28.7164 43.8074 28.7164C40.4464 29.1748 33.7243 31.1608 25.7801 39.2578C17.8358 47.5076 16.0025 54.3825 15.697 57.7435C15.697 58.0491 15.697 58.5074 15.697 58.8129C15.2386 59.1185 14.7803 59.424 14.4748 59.8823C12.7943 62.3267 9.58601 68.5905 10.0443 80.0485C10.5027 91.5066 14.1692 97.4648 16.3081 100.062C16.6136 100.367 16.7664 100.52 17.0719 100.826C16.9192 101.284 16.9192 101.895 16.9192 102.506C17.5303 105.867 19.6691 112.437 28.0717 120.075C36.4742 127.714 43.5018 129.242 46.8629 129.547C47.0157 129.547 47.0157 129.547 47.1684 129.547C47.474 129.547 47.7795 129.547 47.9323 129.395C48.2378 129.853 48.5434 130.311 49.0017 130.617C51.4461 132.297 56.7932 134.894 65.9596 134.894C67.0291 134.894 68.2513 134.894 69.4734 134.742C80.7787 133.978 86.7369 130.006 89.3341 127.867C89.6396 127.561 89.7924 127.256 90.0979 126.95C90.4035 126.95 90.709 127.103 91.0146 127.103C91.3201 127.103 91.4729 127.103 91.7785 127.103C95.1395 126.492 101.709 124.047 109.042 115.339C116.375 106.631 117.75 99.6036 117.903 96.2426C117.903 95.7843 117.903 95.4787 117.75 95.1732C118.208 94.8676 118.667 94.5621 118.972 94.1037C120.806 91.201 123.555 84.7845 122.486 73.4792C121.111 61.8684 116.986 56.063 114.695 53.6186ZM71.3067 77.7569L106.445 58.8129H106.598C106.75 58.8129 106.75 58.8129 106.903 58.9657C108.278 60.4934 111.792 65.0767 112.861 74.3959C113.778 83.7151 111.334 88.9094 110.264 90.5899C110.111 90.7427 109.959 90.7427 109.806 90.7427L71.4595 78.5208C71.3067 78.5208 71.154 78.368 71.154 78.2152C71.0012 77.9097 71.154 77.7569 71.3067 77.7569ZM87.8063 118.089L69.9318 82.0346C69.9318 81.8818 69.9318 81.729 69.9318 81.5763C69.9318 81.4235 70.0845 81.4235 70.2373 81.4235H70.3901L108.431 93.4926C108.584 93.4926 108.736 93.6454 108.736 93.7982C108.584 95.937 107.82 101.59 101.709 108.77C95.5978 115.95 90.2507 117.784 88.2647 118.089C87.9591 118.395 87.8063 118.242 87.8063 118.089ZM66.5707 83.4096C66.7235 83.4096 66.8763 83.4096 66.8763 83.5623L84.7509 119.311C84.7509 119.464 84.7508 119.617 84.5981 119.77C83.0703 121.145 78.3343 124.506 68.8623 125.117C59.3904 125.728 54.5016 123.131 52.8211 121.909C52.6683 121.756 52.6683 121.603 52.6683 121.45L66.1124 83.5623C66.2652 83.4096 66.418 83.4096 66.5707 83.4096ZM47.1684 37.2718C47.3212 37.2718 47.474 37.4246 47.474 37.4246L62.9042 74.7014C62.9042 74.8542 62.9042 75.007 62.9042 75.1598C62.7514 75.3125 62.5986 75.3125 62.4458 75.3125L25.3217 60.6462C25.169 60.6462 25.0162 60.4934 25.169 60.3407C25.3217 58.2018 26.6967 52.702 33.266 45.8271C39.5297 38.9523 45.0296 37.5773 47.1684 37.2718ZM23.6412 63.5489L61.2236 78.368C61.3764 78.368 61.3764 78.5208 61.3764 78.6736C61.3764 78.8263 61.3764 78.9791 61.2236 78.9791L24.8634 95.6315C24.7106 95.6315 24.5579 95.6315 24.4051 95.4787C23.0301 93.7982 19.9746 89.0622 19.5163 79.5902C19.2108 70.1182 21.9607 65.2294 23.1829 63.5489C23.3357 63.5489 23.4884 63.5489 23.6412 63.5489ZM25.9328 98.687L62.5986 82.0346H62.7514C62.9042 82.0346 62.9042 82.0346 63.0569 82.1874C63.2097 82.3401 63.2097 82.4929 63.2097 82.6457L49.7656 120.228C49.7656 120.381 49.6128 120.534 49.46 120.534C47.3212 120.381 41.8213 119.311 34.7937 113.048C27.7661 106.784 26.2384 101.284 25.9328 99.2981C25.7801 98.9925 25.7801 98.687 25.9328 98.687ZM66.5707 73.4792C66.5707 73.632 66.418 73.632 66.2652 73.632C66.1124 73.632 65.9596 73.632 65.9596 73.4792L50.6822 36.5079C50.6822 36.3551 50.6822 36.2024 50.835 36.0496C52.5155 34.8274 57.4043 31.7719 66.8763 31.7719C76.3483 31.7719 81.0843 34.6746 82.7648 36.0496C82.9176 36.2024 82.9176 36.3551 82.9176 36.5079L66.5707 73.4792ZM48.3906 30.2442C50.835 28.4109 56.3349 25.3554 66.7235 25.3554C77.1121 25.3554 82.612 28.4109 84.9036 30.2442C85.0564 30.3969 85.2092 30.7025 85.0564 31.008L83.987 33.4524C81.3898 31.6191 76.1955 28.8692 66.7235 28.8692C57.2515 28.8692 51.7517 31.6191 49.3073 33.4524L48.2378 31.008C48.0851 30.7025 48.0851 30.3969 48.3906 30.2442ZM28.2244 41.2439C35.5576 33.758 41.5158 31.9247 44.4185 31.4664C44.724 31.4664 45.0296 31.6191 45.0296 31.7719L46.099 34.2163C43.0435 34.6746 37.3909 36.6607 30.8216 43.5355C24.2523 50.4104 22.419 56.2158 21.9607 59.2713L19.3635 58.3546C19.058 58.2018 18.9052 58.0491 18.9052 57.7435C19.3635 54.8408 21.0441 48.7298 28.2244 41.2439ZM13.0998 79.8958C12.7943 69.5071 15.697 63.8545 17.3775 61.5629C17.5303 61.4101 17.8358 61.2573 18.1414 61.4101L20.7385 62.4795C18.9052 65.0767 16.4608 70.4238 16.7664 79.8958C17.0719 89.3677 19.9746 94.7148 21.9607 97.1592L19.5163 98.3814C19.2108 98.5342 18.9052 98.3814 18.7525 98.2286C17.0719 96.2426 13.4054 90.7427 13.0998 79.8958ZM47.1684 126.339C44.1129 126.186 38.002 124.659 30.2105 117.631C22.419 110.603 20.433 104.645 19.9746 101.742C19.9746 101.437 20.1274 101.131 20.2802 101.131L22.7246 100.062C23.3357 103.117 25.4745 108.77 32.5021 115.034C39.5297 121.45 45.4879 122.978 48.5434 123.284L47.6267 125.881C47.7795 126.186 47.474 126.492 47.1684 126.339ZM87.348 125.575C85.5147 127.256 80.1676 131.075 69.3207 131.686C58.932 132.45 53.2794 129.7 50.835 128.02C50.5295 127.867 50.5295 127.561 50.5295 127.256L51.4461 124.659C53.7377 126.186 58.3209 128.172 65.9596 128.172C66.8763 128.172 67.9457 128.172 69.0151 128.02C78.4871 127.408 83.6814 124.2 86.1258 122.214L87.348 124.659C87.6536 124.964 87.6536 125.27 87.348 125.575ZM106.598 113.2C99.8755 121.145 93.9173 123.436 91.0146 124.047C90.709 124.047 90.4035 123.895 90.4035 123.742L89.1813 121.298C92.2368 120.534 97.7366 118.242 103.848 111.062C109.959 103.729 111.334 97.9231 111.639 94.7148L114.236 95.4787C114.542 95.6315 114.695 95.7843 114.695 96.0898C114.695 98.9925 113.472 105.256 106.598 113.2ZM116.222 92.2704C116.07 92.576 115.764 92.576 115.458 92.576L112.861 91.8121C114.389 89.0622 116.681 83.5623 115.611 74.0903C114.695 64.6183 111.334 59.5768 109.195 57.1324L111.486 55.7574C111.792 55.6047 112.097 55.6047 112.25 55.9102C114.389 58.0491 117.903 63.2434 118.972 73.632C120.347 84.0207 117.903 89.6733 116.222 92.2704Z" fill="#663366"/>
<path d="M108.125 77.298C107.056 76.3814 105.528 75.9231 104.153 76.0758C101.098 76.3814 98.9588 78.9785 99.2644 82.034C99.5699 84.7839 101.862 86.9228 104.611 86.9228C104.764 86.9228 104.917 86.9228 105.223 86.9228C108.278 86.6172 110.417 83.8673 110.111 80.9646C109.959 79.5896 109.195 78.2147 108.125 77.298ZM104.917 84.0201C104.306 84.0201 103.695 83.8673 103.237 83.5618C102.778 83.1034 102.473 82.6451 102.32 81.8812C102.167 80.5063 103.084 79.4369 104.459 79.2841C104.611 79.2841 104.611 79.2841 104.764 79.2841C105.375 79.2841 105.834 79.4369 106.292 79.8952C106.75 80.3535 107.056 80.8118 107.209 81.5757C107.209 82.6451 106.139 83.8673 104.917 84.0201Z" fill="#663366"/>
<path d="M94.834 77.756C94.9867 77.756 95.1395 77.756 95.4451 77.756C98.3478 77.4505 100.487 74.8533 100.181 71.9506C99.8755 69.0479 97.2784 66.9091 94.3756 67.2146C93.0007 67.3674 91.7785 67.9785 90.8618 69.0479C89.9452 70.1173 89.6396 71.4923 89.6396 72.8673C89.9452 75.77 92.2368 77.756 94.834 77.756ZM94.6812 70.4229H94.834C95.9034 70.4229 96.82 71.1867 96.9728 72.4089C97.1256 73.6311 96.2089 74.7005 94.9867 74.8533C93.7645 75.0061 92.6951 74.0895 92.5424 72.8673C92.5424 71.6451 93.459 70.5756 94.6812 70.4229Z" fill="#663366"/>
<path d="M102.778 70.4232C103.542 71.0343 104.611 71.4926 105.681 71.4926C105.834 71.4926 105.986 71.4926 106.139 71.4926C107.361 71.3398 108.431 70.7287 109.195 69.8121C109.959 68.8955 110.264 67.6733 110.264 66.4511C110.111 65.2289 109.5 64.1595 108.584 63.3956C107.667 62.6317 106.445 62.3262 105.223 62.3262C104 62.4789 102.931 63.09 102.167 64.0067C101.403 64.9233 101.098 66.1455 101.098 67.3677C101.25 68.5899 101.862 69.6593 102.778 70.4232ZM104.459 65.9927C104.764 65.6872 105.07 65.5344 105.528 65.3817H105.681C105.986 65.3817 106.292 65.5344 106.598 65.6872C106.903 65.9927 107.056 66.2983 107.209 66.7566C107.209 67.2149 107.209 67.5205 106.903 67.826C106.598 68.1316 106.292 68.2844 105.834 68.4371C105.07 68.5899 104.306 67.9788 104.153 67.0622C104.153 66.6038 104.153 66.2983 104.459 65.9927Z" fill="#663366"/>
<path d="M81.6963 79.8952C82.4601 80.5063 83.3768 80.8119 84.2934 80.8119C84.4462 80.8119 84.599 80.8119 84.7517 80.8119C85.8212 80.6591 86.8906 80.2008 87.5017 79.2841C88.2655 78.3675 88.5711 77.2981 88.4183 76.2286C88.2655 75.1592 87.8072 74.0898 86.8906 73.3259C85.9739 72.5621 84.9045 72.2565 83.8351 72.4093C82.7657 72.5621 81.6963 73.0204 80.9324 73.937C80.1685 74.8537 79.863 75.9231 80.0157 76.9925C80.3213 78.2147 80.7796 79.2841 81.6963 79.8952ZM84.2934 75.4648C84.599 75.4648 84.9045 75.6175 85.0573 75.7703C85.3628 75.9231 85.5156 76.2286 85.5156 76.5342C85.5156 76.8397 85.5156 77.1453 85.2101 77.2981C85.0573 77.6036 84.7517 77.7564 84.4462 77.7564C84.1406 77.7564 83.8351 77.7564 83.6823 77.4508C83.3768 77.2981 83.224 76.9925 83.224 76.687C83.0712 76.2286 83.5295 75.6175 84.2934 75.4648Z" fill="#663366"/>
<path d="M132.57 16.0354C131.5 14.966 129.667 14.6605 128.292 15.4243L123.25 18.1743L90.7094 36.0488C89.4873 36.6599 88.8762 37.8821 89.0289 39.2571C89.1817 40.632 90.0983 41.7015 91.3205 42.007L127.07 53.4651L132.57 55.2984C132.875 55.4511 133.333 55.4511 133.639 55.4511C134.861 55.4511 135.931 54.84 136.542 53.7706C138.222 51.1735 140.819 45.0625 139.75 34.5211C138.681 23.8269 134.861 18.4798 132.57 16.0354ZM91.9316 38.9515C91.9316 38.7988 92.0844 38.7988 92.0844 38.7988L124.931 21.077C125.084 21.077 125.084 21.077 125.236 21.077C126.611 22.4519 129.82 26.7296 130.736 35.4377C131.653 44.1459 129.361 48.8818 128.292 50.4096C128.292 50.5624 128.139 50.5624 127.986 50.5624L92.2372 39.1043C92.0844 39.1043 91.9316 39.1043 91.9316 38.9515ZM133.945 52.0901C133.792 52.2429 133.639 52.3957 133.333 52.2429L131.042 51.479C132.57 48.8818 134.556 43.6875 133.639 34.9794C132.722 26.2713 129.667 21.5353 127.681 19.2437L129.82 18.0215C129.972 17.8687 130.278 18.0215 130.431 18.1743C131.958 19.8548 135.625 24.5908 136.694 34.6739C137.764 44.4514 135.319 49.7985 133.945 52.0901Z" fill="#663366"/>
<path d="M128.292 41.7001C127.986 38.7974 125.389 36.8114 122.639 37.1169C121.264 37.2697 120.042 37.8808 119.125 38.9502C118.209 40.0196 117.903 41.3946 118.056 42.7696C118.209 44.1445 118.82 45.3667 119.889 46.2834C120.806 47.0472 122.028 47.5056 123.098 47.5056C123.25 47.5056 123.403 47.5056 123.709 47.5056C125.084 47.3528 126.306 46.7417 127.223 45.6723C128.139 44.6028 128.445 43.0751 128.292 41.7001ZM123.403 44.2973C122.792 44.2973 122.334 44.1445 121.875 43.839C121.417 43.5334 121.112 42.9223 121.112 42.464C120.959 41.2418 121.875 40.3252 122.945 40.1724H123.098C124.167 40.1724 125.084 40.9363 125.236 42.0057C125.389 43.2279 124.625 44.1445 123.403 44.2973Z" fill="#663366"/>
<path d="M119.125 33.3013C118.82 30.5514 116.375 28.5653 113.626 28.8709C110.876 29.1764 108.89 31.6208 109.195 34.3707C109.501 36.9679 111.639 38.8012 114.084 38.8012C114.237 38.8012 114.389 38.8012 114.542 38.8012C117.292 38.4956 119.278 36.0512 119.125 33.3013ZM115.612 34.9818C115.306 35.4402 114.848 35.5929 114.237 35.7457C113.778 35.7457 113.167 35.5929 112.862 35.2874C112.403 34.9818 112.251 34.5235 112.098 33.9124C112.098 33.4541 112.251 32.843 112.556 32.5374C112.862 32.2319 113.32 31.9263 113.931 31.7736H114.084C115 31.7736 115.917 32.5374 116.07 33.4541C116.07 34.0652 115.917 34.6763 115.612 34.9818Z" fill="#663366"/>
<path d="M124.168 32.8426C124.321 32.8426 124.474 32.8426 124.626 32.8426C127.071 32.5371 128.751 30.3982 128.446 28.1066C128.14 25.815 126.154 23.9817 123.71 24.2873C121.265 24.5928 119.585 26.7317 119.89 29.0233C120.043 31.1621 121.876 32.8426 124.168 32.8426ZM123.099 27.6483C123.251 27.3428 123.557 27.19 124.015 27.19H124.168C124.474 27.19 124.779 27.3428 124.932 27.4955C125.237 27.6483 125.39 27.9539 125.39 28.4122C125.39 28.7177 125.39 29.0233 125.085 29.3288C124.779 29.6344 124.626 29.7872 124.168 29.7872C123.862 29.7872 123.557 29.7871 123.251 29.4816C122.946 29.3288 122.793 29.0233 122.793 28.565C122.793 28.2594 122.946 27.9539 123.099 27.6483Z" fill="#663366"/>
<path d="M103.848 33.6062C101.709 33.759 100.028 35.745 100.334 38.0367C100.487 40.1755 102.32 41.7032 104.306 41.7032C104.459 41.7032 104.612 41.7032 104.764 41.7032C106.903 41.5505 108.584 39.5644 108.278 37.2728C107.973 34.9812 105.986 33.4534 103.848 33.6062ZM104.306 38.6478C103.848 38.6478 103.237 38.3422 103.237 37.7311C103.237 37.2728 103.542 36.6617 104.153 36.6617C104.153 36.6617 104.153 36.6617 104.306 36.6617C104.764 36.6617 105.223 36.9672 105.223 37.5783C105.223 38.0367 104.917 38.495 104.306 38.6478Z" fill="#663366"/>
</svg>
