<svg width="150" height="150" viewBox="0 0 150 150" fill="none" xmlns="http://www.w3.org/2000/svg">
<path d="M43.5837 91.896H40.8058V86.3237H109.189V91.896H88.263V138.995H82.7073V124.444H67.2831V138.995H61.7274V122.903L47.2741 110.012C47.0028 109.767 46.7153 109.587 46.4169 109.473C46.1293 109.359 45.7929 109.304 45.4186 109.304H18.3509C16.0614 109.304 13.9726 108.363 12.4588 106.839C10.9451 105.332 10.0011 103.237 10.0011 100.93V61.7925C10.0011 57.9669 11.5636 54.4897 14.0756 51.9647C16.6039 49.4289 20.0709 47.8671 23.885 47.8671H29.8748C33.689 47.8671 37.1559 49.4343 39.6734 51.9539C42.2016 54.4897 43.7588 57.9669 43.7588 61.7925V74.6239C43.7588 75.3912 44.0735 76.0932 44.578 76.5993C45.0772 77.1108 45.7771 77.421 46.5475 77.421H61.0175V82.9933H46.5475C44.258 82.9933 42.1692 82.0519 40.6554 80.5283C39.1417 79.021 38.1977 76.9259 38.1977 74.6186V61.7871C38.1977 59.4853 37.259 57.3957 35.7508 55.8828C34.2425 54.3701 32.1537 53.4286 29.864 53.4286H23.8742C21.5793 53.4286 19.4959 54.37 17.9875 55.8828C16.4791 57.3956 15.5406 59.4906 15.5406 61.7871V100.924C15.5406 101.691 15.8553 102.393 16.3599 102.9C16.859 103.411 17.5589 103.721 18.3294 103.721H45.397C46.4333 103.721 47.4207 103.901 48.3593 104.255C49.3034 104.608 50.1606 105.142 50.9419 105.838L61.7062 115.443V91.8745H43.5583L43.5837 91.896ZM109.65 117.831H104.132V112.259H140V117.831H134.482V138.999H128.926V132.295H115.211V138.999H109.655V117.831H109.65ZM115.206 126.717H128.921V117.831H115.206V126.717ZM21.0773 126.717H34.7931V117.831H21.0773V126.717ZM34.7931 132.289H21.0773V138.994H15.5216V117.826H10.0038V112.254H45.8717V117.826H40.3538V138.994H34.7981V132.289H34.7931ZM84.1712 31.722H91.0508C93.3349 31.722 95.4183 32.6634 96.9267 34.1761C98.4459 35.6999 99.3844 37.7895 99.3844 40.0804V50.6754C99.3844 52.9664 98.4458 55.056 96.9375 56.5689C95.4183 58.0926 93.3349 59.0339 91.0508 59.0339H90.2803C90.4648 59.7032 90.7524 60.3345 91.1322 60.9059C91.9568 62.1357 93.2101 63.0826 94.7184 63.5016C96.1941 63.9043 97.0622 65.428 96.6607 66.9081C96.4111 67.8223 95.7329 68.5079 94.9028 68.7964C92.8249 69.5256 90.6384 69.7487 88.5333 69.4875C86.4228 69.2263 84.3557 68.4699 82.511 67.2564C80.6772 66.0429 79.1744 64.4376 78.0946 62.5928C77.449 61.4881 76.9498 60.291 76.6189 59.0393H74.1611C72.6257 59.0393 71.3833 57.7932 71.3833 56.2532C71.3833 54.7132 72.6257 53.467 74.1611 53.467H78.9573C80.4005 53.4725 81.6213 54.5934 81.7243 56.0573C81.822 57.396 82.2235 58.6693 82.8745 59.7849C83.531 60.9113 84.4425 61.8854 85.5548 62.6201L85.826 62.7888C84.7898 60.7645 84.3178 58.4354 84.5782 56.0466C84.6812 54.6045 85.8803 53.4617 87.3452 53.4617H91.0509C91.8159 53.4617 92.5158 53.1461 93.015 52.6454C93.5141 52.1394 93.8288 51.4428 93.8288 50.6755V40.0805C93.8288 39.3132 93.5141 38.6112 93.015 38.1105C92.5104 37.6099 91.8159 37.2943 91.0509 37.2943H84.1713C84.1225 39.5145 83.1947 41.5334 81.7299 43.0081C80.2106 44.5318 78.1272 45.4731 75.8431 45.4731H73.3854C73.0544 46.7247 72.5553 47.9219 71.9097 49.0266C70.83 50.8713 69.3271 52.4821 67.4932 53.6902C65.6486 54.9037 63.5814 55.6602 61.4709 55.9214C59.3659 56.1826 57.1848 55.9594 55.1014 55.2357C54.2713 54.9418 53.5932 54.2562 53.3436 53.3419C52.9421 51.8618 53.8102 50.3382 55.2859 49.9355C56.7941 49.5219 58.0475 48.5696 58.8721 47.3397C59.2519 46.7684 59.5395 46.1426 59.7239 45.4677H58.9535C56.6694 45.4677 54.586 44.5263 53.0776 43.0135C51.5584 41.4898 50.6199 39.4002 50.6199 37.1093V26.5142C50.6199 24.2233 51.5585 22.1337 53.0668 20.6208C54.586 19.0971 56.6694 18.1558 58.9535 18.1558H75.843C78.1271 18.1558 80.2105 19.0972 81.7189 20.61C83.2381 22.1337 84.1766 24.2233 84.1766 26.5142V31.7165L84.1712 31.722ZM71.0469 39.9008H75.843C76.608 39.9008 77.3079 39.5852 77.8071 39.0846C78.3062 38.5785 78.6209 37.882 78.6209 37.1146V26.5196C78.6209 25.7523 78.3063 25.0503 77.8071 24.5496C77.3025 24.049 76.6081 23.7334 75.843 23.7334H58.9535C58.1885 23.7334 57.4886 24.049 56.9894 24.5496C56.4903 25.0557 56.1756 25.7523 56.1756 26.5196V37.1146C56.1756 37.8819 56.4903 38.5839 56.9894 39.0846C57.494 39.5852 58.1885 39.9008 58.9535 39.9008H62.6592C64.1241 39.9008 65.3232 41.0382 65.4263 42.4857C65.6867 44.8745 65.2147 47.2036 64.1784 49.2279L64.4497 49.0592C65.5565 48.3246 66.4733 47.3505 67.1299 46.224C67.781 45.1085 68.1824 43.8352 68.2801 42.4964C68.3832 41.0326 69.6039 39.9116 71.0471 39.9061L71.0469 39.9008ZM82.7117 118.876V91.896H67.2876V118.876H82.7117ZM123.002 16.5668C119.844 16.5668 116.985 17.8511 114.913 19.9244C112.845 21.9977 111.565 24.8709 111.565 28.038C111.565 31.205 112.845 34.0728 114.913 36.1515C116.98 38.2248 119.844 39.5091 123.002 39.5091C126.16 39.5091 129.019 38.2249 131.091 36.1515C133.159 34.0782 134.439 31.205 134.439 28.038C134.439 24.8709 133.159 22.0032 131.091 19.9244C129.024 17.8511 126.16 16.5668 123.002 16.5668ZM110.985 15.99C114.055 12.91 118.309 11 123.002 11C127.695 11 131.943 12.91 135.02 15.99C138.09 19.07 139.995 23.3362 139.995 28.0433C139.995 32.7504 138.09 37.0112 135.02 40.0966C131.949 43.1766 127.695 45.0866 123.002 45.0866C118.309 45.0866 114.061 43.1766 110.985 40.0966C107.914 37.0167 106.009 32.7504 106.009 28.0433C106.009 23.3362 107.914 19.0754 110.985 15.99ZM94.1062 139V112.118C94.1062 109.811 95.0448 107.715 96.5531 106.203C98.0613 104.69 100.15 103.748 102.451 103.748H131.641C132.411 103.748 133.116 103.438 133.61 102.938C134.12 102.426 134.429 101.724 134.429 100.946V61.8089C134.429 59.5071 133.491 57.4175 131.982 55.9047C130.474 54.3919 128.385 53.4505 126.096 53.4505H120.106C117.811 53.4505 115.728 54.3919 114.219 55.9047C112.711 57.4174 111.772 59.5124 111.772 61.8089V74.6404C111.772 76.9313 110.834 79.0264 109.325 80.5447C107.801 82.0739 105.712 83.0152 103.428 83.0152H88.9578V77.4429H103.428C104.198 77.4429 104.904 77.1327 105.397 76.632C105.907 76.1205 106.217 75.4186 106.217 74.6404V61.8089C106.217 57.9834 107.779 54.5061 110.291 51.9811C112.819 49.4453 116.286 47.8836 120.101 47.8836H126.09C129.904 47.8836 133.371 49.4508 135.889 51.9703C138.417 54.5061 139.974 57.9834 139.974 61.8089V100.946C139.974 103.237 139.036 105.332 137.527 106.85C136.003 108.379 133.914 109.321 131.63 109.321H102.44C101.675 109.321 100.975 109.636 100.47 110.142C99.9658 110.648 99.6511 111.35 99.6511 112.118V139H94.0954L94.1062 139ZM26.9927 11C31.6858 11 35.934 12.91 39.0102 15.99C42.081 19.07 43.9854 23.3362 43.9854 28.0433C43.9854 32.7504 42.081 37.0112 39.0102 40.0966C35.9394 43.1766 31.6858 45.0866 26.9927 45.0866C22.2996 45.0866 18.0514 43.1766 14.9752 40.0966C11.9044 37.0167 10 32.7504 10 28.0433C10 23.3362 11.9044 19.0754 14.9752 15.99C18.046 12.91 22.2996 11 26.9927 11ZM35.0821 19.9299C33.015 17.8566 30.1503 16.5723 26.9927 16.5723C23.8351 16.5723 20.9758 17.8566 18.9032 19.9299C16.8361 22.0032 15.5556 24.8764 15.5556 28.0434C15.5556 31.2105 16.836 34.0783 18.9032 36.157C20.9704 38.2303 23.8351 39.5146 26.9927 39.5146C30.1503 39.5146 33.0096 38.2303 35.0821 36.157C37.1493 34.0837 38.4298 31.2105 38.4298 28.0434C38.4298 24.8764 37.1493 22.0086 35.0821 19.9299Z" fill="#663366"/>
</svg>
