<svg width="150" height="150" viewBox="0 0 150 150" fill="none" xmlns="http://www.w3.org/2000/svg">
<path d="M75 126.612H10V118.765H140V126.612H82.8471M19.8089 61.9558C19.8089 52.8268 19.8089 46.0968 19.8089 45.4508C19.8089 43.2839 18.0522 41.5272 15.8853 41.5272M15.8853 41.5272C13.7185 41.5272 11.9618 43.2839 11.9618 45.4508C11.9618 47.6176 11.9618 118.242 11.9618 118.242M15.8853 41.5272V37.6037M19.8089 118.242C19.8089 118.242 19.8089 91.2963 19.8089 69.8026M21.7706 49.3743H10M21.7706 57.2214H10M21.7706 75.5312H10M21.7706 96.4568H10M138.038 81.827C138.038 61.9642 138.038 46.6765 138.038 45.4508C138.038 43.2839 136.281 41.5272 134.114 41.5272M134.114 41.5272C131.948 41.5272 130.191 43.2839 130.191 45.4508C130.191 47.6176 130.191 118.242 130.191 118.242M134.114 41.5272V37.6037M138.038 118.242C138.038 118.242 138.038 104.922 138.038 89.674M128.229 49.3743H140M128.229 57.2214H140M128.229 75.5312H140M128.229 96.4568H140M31.0059 79.3802H54.024M30.7443 118.242V71.5332M87.8674 118.242C87.8674 118.242 87.8674 110.326 87.8674 102.483C87.8674 94.6402 83.0283 90.3557 75 87.2273C66.9716 90.3557 62.1326 94.6402 62.1326 102.483C62.1326 110.326 62.1326 118.242 62.1326 118.242M46.4385 118.242C46.4385 118.242 46.4385 113.963 46.4385 111.571C46.4385 109.18 44.9629 107.874 42.5149 106.92C40.0669 107.874 38.5914 109.18 38.5914 111.571C38.5914 113.963 38.5914 118.242 38.5914 118.242M118.994 79.3802H95.976M119.256 118.242V71.5332M111.409 118.242C111.409 118.242 111.409 113.963 111.409 111.571C111.409 109.18 109.933 107.874 107.485 106.92C105.037 107.874 103.562 109.18 103.562 111.571C103.562 113.963 103.562 118.242 103.562 118.242M87.8674 103.863V79.38H62.1326V103.863M54.2855 63.6861V118.242M95.4529 71.5332H54.5471M95.7145 91.2254V63.6861C95.7145 63.6861 97.6987 61.0173 97.6987 55.0676C97.6987 45.1319 88.9503 37.3366 74.9997 30.3747M95.7145 118.242V99.0725M111.408 79.3802C111.408 79.3802 111.408 68.02 111.408 63.6861C111.408 59.3521 109.476 55.8714 103.561 53.2233M103.561 53.2233C100.746 54.4838 98.8326 55.9332 97.6006 57.5735M103.561 53.2233V49.2998M87.8674 63.6861H113.37M36.6296 63.6861H80.0203M74.9997 30.3747C61.0495 37.3366 52.3007 45.1319 52.3007 55.0676C52.3007 61.017 54.2853 63.6861 54.2853 63.6861M74.9997 30.3747V23M62.3942 38.2218H87.6055M46.4385 79.1187V71.5332M103.561 71.5332V79.1187M52.3991 57.5732C51.1671 55.9329 49.254 54.4838 46.4385 53.223C40.5238 55.8712 38.5914 59.3519 38.5914 63.6858C38.5914 68.0198 38.5914 79.38 38.5914 79.38M46.4385 49.2998V53.2233M74.9997 101.688V97.7646M74.9997 118.242V112.226M46.4385 99.0725C46.4385 99.0725 46.4385 94.2706 46.4385 91.8791C46.4385 89.4875 44.9629 88.1813 42.5149 87.2273C40.0669 88.1813 38.5914 89.4875 38.5914 91.8791C38.5914 94.2706 38.5914 99.0725 38.5914 99.0725H46.4385ZM111.409 99.0725C111.409 99.0725 111.409 94.2706 111.409 91.8791C111.409 89.4875 109.933 88.1813 107.485 87.2273C105.037 88.1813 103.562 89.4875 103.562 91.8791C103.562 94.2706 103.562 99.0725 103.562 99.0725H111.409Z" stroke="#663366" stroke-width="3.5" stroke-miterlimit="10" stroke-linecap="round" stroke-linejoin="round"/>
</svg>
