<svg width="150" height="150" viewBox="0 0 150 150" fill="none" xmlns="http://www.w3.org/2000/svg">
<path d="M32.9524 29.535C32.8273 29.3236 32.6965 29.1179 32.5487 28.9237C30.2059 25.9646 25.9584 25.3875 22.9105 27.6098C19.8626 29.8263 19.0894 34.0652 21.1592 37.2242C21.2615 37.4584 21.4037 37.6755 21.5857 37.8526C21.6255 37.8926 21.6709 37.9326 21.7164 37.9726C31.7639 51.0947 41.8178 64.2059 51.8648 77.3051C52.5472 78.1848 53.8152 78.3448 54.6909 77.6649C55.5723 76.9794 55.7372 75.7113 55.0605 74.8258C45.0357 61.7722 35.0115 48.6787 24.7476 35.328H24.7533C24.7135 35.2537 24.668 35.1852 24.6225 35.1166C24.1505 34.4654 23.9572 33.6485 24.088 32.8544C24.2188 32.0603 24.6566 31.352 25.3162 30.8834C25.9701 30.4207 26.7832 30.2379 27.5737 30.3807C28.3641 30.5292 29.0634 30.9806 29.5126 31.6489L78.8861 98.9039C78.9543 99.041 79.0396 99.1667 79.142 99.281L91.8393 116.567C92.5672 117.538 93.2779 118.515 93.9888 119.492C94.7109 120.486 95.4331 121.474 96.1553 122.445C96.2974 122.64 96.4055 122.862 96.468 123.097C96.5249 123.337 96.5419 123.582 96.5078 123.822C96.4282 124.319 96.1382 124.753 95.7117 125.016C95.6776 125.033 95.6435 125.045 95.6094 125.062C94.8361 125.507 93.8524 125.336 93.2723 124.656L93.1984 124.548L81.4734 109.231L81.462 109.226V109.22C78.7553 105.735 76.0885 102.239 73.4218 98.7486C73.3876 98.7029 73.3478 98.6572 73.308 98.6115C69.6972 93.9328 66.1263 89.2542 62.5554 84.5355V84.5412C61.8788 83.65 60.6108 83.4729 59.718 84.1527C58.831 84.8325 58.6547 86.1064 59.3314 87.0033C62.3621 91.0079 65.41 94.9782 68.4634 98.9543L68.3269 99.0057L68.3326 99C64.2841 100.588 60.463 102.702 56.9658 105.29C54.2081 107.461 51.7345 109.968 49.6022 112.756C49.3122 112.956 49.079 113.236 48.9312 113.556L48.9085 113.579C44.2685 115.235 40.1404 118.08 36.9332 121.828C35.199 123.873 33.7717 126.164 32.7028 128.626C32.3957 129.329 32.5094 130.146 32.9984 130.734C33.4875 131.328 34.2665 131.591 35.0057 131.419L37.8658 130.757L36.5864 133.145C36.2509 133.773 36.2679 134.533 36.6319 135.15C36.9958 135.761 37.6554 136.138 38.3661 136.138C38.4514 136.138 38.5367 136.132 38.6163 136.121C43.6543 135.533 48.3909 133.413 52.195 130.048C54.0885 128.363 55.7091 126.392 56.9885 124.199L57.0738 124.182L57.0681 124.176C57.3752 124.073 57.6709 123.953 57.9609 123.816C58.0518 123.804 58.1485 123.787 58.2395 123.765V129.849C58.2452 135.453 62.7657 140 68.3496 140H82.5026C83.6171 140 84.5212 139.092 84.5212 137.972C84.5212 136.847 83.6171 135.938 82.5026 135.938H68.3496C65.0003 135.938 62.288 133.208 62.2823 129.849V121.108L64.1246 119.617L64.244 119.526C64.4658 119.36 64.7672 119.172 65.0117 119C65.3187 118.783 65.6485 118.56 65.9897 118.332C66.5697 117.955 67.1781 117.566 67.849 117.178C68.5826 116.749 69.3388 116.315 70.1804 115.898C70.2771 115.847 70.3795 115.801 70.4761 115.75C70.6694 115.653 70.8685 115.561 71.0732 115.464V115.47C72.3639 114.853 73.6832 114.304 75.0308 113.83L75.1503 113.796C76.35 113.385 77.675 113.053 79.0111 112.733L82.5877 117.401C85.0385 120.6 87.5006 123.805 90.156 127.289H90.1617C90.5768 127.781 91.0772 128.198 91.6344 128.523C91.714 128.575 91.7937 128.626 91.8732 128.672V128.666C92.4134 128.969 92.9991 129.18 93.6019 129.289C93.6644 129.3 93.7326 129.3 93.7952 129.312H93.8009C94.0738 129.363 94.3524 129.392 94.6367 129.403C94.8869 129.386 95.1371 129.352 95.3816 129.306C95.5522 129.283 95.7228 129.277 95.8934 129.237C96.4279 129.123 96.9397 128.934 97.423 128.672C97.5254 128.62 97.6334 128.615 97.7301 128.557C97.8267 128.512 98.0656 128.369 98.1793 128.295L98.2134 128.272C98.293 128.215 98.3499 128.14 98.4295 128.078H98.4238C100.841 126.078 101.267 122.531 99.4018 120.011C98.6626 119.029 97.9405 118.029 97.2126 117.029C96.5019 116.058 95.7968 115.087 95.0917 114.139L93.4371 111.882C93.8351 111.933 94.3014 112.019 94.7278 112.088C96.4394 112.345 98.1281 112.699 99.7943 113.156L99.9194 113.185C100.943 113.47 102.006 113.824 103.075 114.213C103.325 114.304 103.547 114.378 103.815 114.476C103.911 114.521 104.201 114.658 104.264 114.681C105.429 115.133 106.572 115.647 107.687 116.212C107.812 116.269 107.943 116.361 108.068 116.435C108.267 116.555 108.472 116.664 108.671 116.789L109.342 117.183L109.387 117.223L110.092 117.623C110.263 117.72 110.422 117.829 110.593 117.92C110.922 118.109 111.252 118.292 111.582 118.514L111.593 118.52H111.605C112.27 118.983 112.918 119.463 113.538 119.954L113.68 120.068C114.09 120.4 114.476 120.737 114.857 121.074V129.831L114.846 129.848C114.846 133.208 112.133 135.938 108.784 135.938H94.6312C93.5167 135.938 92.6069 136.847 92.6069 137.972C92.6069 139.092 93.5167 140 94.6312 140H108.784C114.362 139.994 118.889 135.453 118.894 129.848V123.433C119.554 123.616 120.236 123.713 120.924 123.724C124.251 123.73 127.242 121.674 128.447 118.56C129.658 115.441 128.839 111.899 126.383 109.637C122.545 106.118 118.195 103.205 113.487 101L113.441 100.982C108.801 98.8001 103.905 97.2292 98.867 96.3151L82.8094 33.4694C82.5365 32.384 81.4334 31.7328 80.353 32.007C79.2669 32.2869 78.6187 33.3952 78.8917 34.4806L94.5226 95.6635C94.4146 95.652 94.318 95.652 94.2099 95.6406C92.595 95.4692 91.2076 95.3778 90.1158 95.3378L89.9907 95.3207L68.4905 18.0626L68.4734 17.9998C68.4564 17.9141 68.4279 17.8227 68.3995 17.7427L68.4052 17.737C68.0924 16.1888 68.9965 14.6578 70.4977 14.1894C72.0046 13.7266 73.6137 14.4864 74.2165 15.9431C74.2165 16.1088 74.2393 16.2802 74.2791 16.4459L75.8598 22.6612C75.9906 23.1868 76.326 23.6381 76.7866 23.9123C77.2472 24.1865 77.8045 24.2665 78.3219 24.1351C78.8451 23.998 79.2886 23.661 79.5615 23.1982C79.8345 22.7355 79.9141 22.1757 79.7776 21.6558L78.2196 15.6975C78.2196 15.5033 78.1968 15.3148 78.1457 15.1262C77.0767 11.4245 73.2668 9.25364 69.5539 10.2361C65.8464 11.2187 63.5946 14.9948 64.4817 18.748C64.5045 18.8394 64.5329 18.9251 64.5613 19.0108L64.5898 19.125L85.8164 95.4238C84.5028 95.498 83.1097 95.6294 81.6427 95.818L32.9524 29.535ZM90.7192 105.291C91.7257 103.349 92.8857 101.492 94.1764 99.727C94.5176 99.767 94.8474 99.8012 95.2113 99.8469C95.3535 99.8641 95.5013 99.8869 95.6492 99.9098C100.119 100.521 104.497 101.664 108.699 103.32C106.544 105.182 104.849 107.53 103.758 110.17C103.155 109.964 102.558 109.764 101.972 109.587C101.614 109.478 101.233 109.324 100.88 109.233C99.6181 108.884 98.4183 108.622 97.2696 108.399C96.9683 108.342 96.701 108.302 96.411 108.25C95.6547 108.119 94.927 107.993 94.2445 107.907C93.8692 107.856 93.5451 107.822 93.1983 107.788C92.6183 107.725 92.0838 107.668 91.589 107.633C91.3275 107.616 91.1 107.599 90.8612 107.582C90.6622 107.57 90.4234 107.548 90.2414 107.536L89.8945 107.062C90.1504 106.474 90.4065 105.897 90.7192 105.291ZM70.9032 109.496C71.3581 107.805 71.9949 106.165 72.7967 104.606L76.2993 109.176C76.1458 109.221 76.0207 109.279 75.8729 109.324C74.9005 109.61 73.9623 109.913 73.0695 110.244L73.0241 110.25C72.8194 110.324 72.5976 110.415 72.3246 110.53L72.12 110.61C71.9209 110.69 71.7105 110.758 71.5172 110.838C71.1874 110.969 70.8804 111.112 70.5619 111.249C70.6586 110.655 70.7553 110.067 70.9032 109.496ZM59.4398 108.507C62.4137 106.342 65.6207 104.537 69.0096 103.12C67.3834 106.325 66.4281 109.827 66.2063 113.415C65.6377 113.74 65.0975 114.06 64.5857 114.38C64.4265 114.483 64.2843 114.574 64.1308 114.677C63.7783 114.906 63.4257 115.134 63.1016 115.357L63.0732 115.374L63.0618 115.38H63.0561L63.0334 115.403H63.0277C62.9026 115.488 62.7775 115.58 62.6467 115.671C62.4932 115.78 62.3681 115.877 62.2202 115.985C62.1236 116.06 62.0098 116.134 61.9132 116.202C61.8677 116.237 61.8108 116.271 61.7653 116.305L61.5606 116.459L61.3957 116.585L61.3389 116.631C61.0716 116.831 60.8556 117.008 60.6281 117.191C60.5314 117.265 60.4291 117.345 60.3438 117.419C60.2756 117.476 60.1846 117.545 60.122 117.596L60.105 117.608L60.0822 117.631C59.8548 117.819 59.6671 117.985 59.4966 118.133L59.4852 118.139C59.3146 118.265 59.1611 118.402 59.0189 118.55L58.9621 118.602H58.9507C58.4389 119.03 57.8817 119.407 57.2904 119.721C56.0678 119.453 54.9646 118.796 54.1401 117.853C53.4976 117.088 53.0654 116.163 52.8892 115.174C54.7884 112.684 56.989 110.444 59.4398 108.507ZM49.5173 127.01C47.4021 128.896 44.9229 130.312 42.2333 131.181L43.3535 129.084L47.8968 125.331H47.8911C48.7497 124.617 48.8748 123.337 48.164 122.475C47.4589 121.612 46.1909 121.486 45.3266 122.195L40.8459 125.896L38.5088 126.439C38.9751 125.754 39.4755 125.097 40.0099 124.462C42.5687 121.48 45.8156 119.178 49.4661 117.75C50.1712 119.687 51.5246 121.315 53.2873 122.366C52.2694 124.091 51.0014 125.662 49.5173 127.01ZM123.893 118.373C122.358 120.001 119.805 120.092 118.162 118.573C116.808 117.35 115.381 116.213 113.886 115.168C113.311 114.774 112.714 114.437 112.123 114.111L110.929 113.403C110.849 113.351 110.775 113.317 110.696 113.266C110.281 113.009 109.866 112.757 109.45 112.54L109.445 112.534L109.371 112.5C108.762 112.192 108.154 111.906 107.529 111.632V111.638C108.393 109.564 109.74 107.724 111.446 106.279C111.935 105.902 112.447 105.559 112.982 105.256C116.86 107.21 120.448 109.689 123.649 112.632C125.292 114.151 125.4 116.716 123.893 118.373ZM88.4289 99.3728L88.4573 99.3842H89.4922C88.662 100.67 87.8773 101.989 87.1721 103.354L84.3973 99.5727C85.7734 99.447 87.0927 99.3842 88.4289 99.3728Z" fill="#663366"/>
</svg>
