<svg width="150" height="150" viewBox="0 0 150 150" fill="none" xmlns="http://www.w3.org/2000/svg">
<path fill-rule="evenodd" clip-rule="evenodd" d="M55.1164 127.273H94.5743C97.6745 127.273 100.211 130.137 100.211 133.637C100.211 137.137 97.6745 140.001 94.5743 140.001H55.1164C52.016 140.001 49.4796 137.137 49.4796 133.637C49.4796 130.137 52.0162 127.273 55.1164 127.273Z" stroke="#663366" stroke-width="4" stroke-miterlimit="2.6131" stroke-linecap="round" stroke-linejoin="round"/>
<path d="M71.6754 140C75.1629 140 78.016 137.137 78.016 133.637C78.016 130.139 75.1655 127.276 71.6798 127.273" stroke="#663366" stroke-width="4" stroke-miterlimit="2.6131" stroke-linecap="round" stroke-linejoin="round"/>
<path d="M57.4054 127.272C53.9181 127.271 51.065 124.408 51.065 120.908C51.065 108.658 61.0531 98.6348 73.2604 98.6348H76.4306C88.6382 98.6348 98.626 108.658 98.626 120.908C98.626 124.408 95.7729 127.271 92.2856 127.272" stroke="#663366" stroke-width="4" stroke-miterlimit="2.6131" stroke-linecap="round" stroke-linejoin="round"/>
<path d="M65.3334 112.488V115.405C67.2252 116.509 68.5041 118.567 68.5041 120.91C68.5041 124.41 65.651 127.273 62.1637 127.274" stroke="#663366" stroke-width="4" stroke-miterlimit="2.6131" stroke-linecap="round" stroke-linejoin="round"/>
<path d="M84.3577 112.488V115.405C82.4661 116.509 81.187 118.567 81.187 120.91C81.187 124.41 84.0401 127.273 87.5274 127.274" stroke="#663366" stroke-width="4" stroke-miterlimit="2.6131" stroke-linecap="round" stroke-linejoin="round"/>
<path d="M74.8455 98.6217C85.0533 98.6217 93.3283 90.3467 93.3283 80.139C93.3283 69.9313 85.0533 61.6562 74.8455 61.6562C64.6378 61.6562 56.3628 69.9313 56.3628 80.139C56.3628 90.3467 64.6378 98.6217 74.8455 98.6217Z" stroke="#663366" stroke-width="4" stroke-miterlimit="2.6131" stroke-linecap="round" stroke-linejoin="round"/>
<path d="M52.7017 110.828C50.6669 109.889 48.7116 108.83 46.8427 107.663M30.0296 90.8455C24.8843 82.6101 22 72.9546 22 62.8456C22 33.6597 45.6597 10 74.8456 10C104.031 10 127.691 33.6597 127.691 62.8456C127.691 83.617 115.523 102.462 96.5915 111.01" stroke="#663366" stroke-width="4" stroke-miterlimit="2.6131" stroke-linecap="round" stroke-linejoin="round"/>
<path d="M77.4878 10.3301V22.5961C77.4878 32.6235 85.6921 40.8278 95.7195 40.8278C99.716 40.8278 102.986 44.0976 102.986 48.094V55.4924C102.986 65.5199 111.19 73.7241 121.217 73.7241H126.297" stroke="#663366" stroke-width="4" stroke-miterlimit="2.6131" stroke-linecap="round" stroke-linejoin="round"/>
<path d="M31.007 33.807C38.3227 40.1411 47.2462 39.3727 53.8846 35.5398L60.0139 32.001C63.475 30.0029 64.6717 25.5362 62.6736 22.0751L58.9744 15.6678C58.5657 14.9597 58.21 14.055 57.9067 13.0527" stroke="#663366" stroke-width="4" stroke-miterlimit="2.6131" stroke-linecap="round" stroke-linejoin="round"/>
<path d="M110.104 101.852C108.892 93.1922 101.537 86.4314 92.6212 86.1523" stroke="#663366" stroke-width="4" stroke-miterlimit="2.6131" stroke-linecap="round" stroke-linejoin="round"/>
<path d="M23.1605 53.1445H35.4975C39.494 53.1445 42.7638 56.4146 42.7638 60.4108C42.7638 68.7829 48.4833 75.8827 56.2074 77.9991" stroke="#663366" stroke-width="4" stroke-miterlimit="2.6131" stroke-linecap="round" stroke-linejoin="round"/>
<path d="M37.4782 100.214L37.4786 100.211" stroke="#663366" stroke-width="4" stroke-miterlimit="22.9256" stroke-linecap="round" stroke-linejoin="round"/>
</svg>
