<svg width="150" height="150" viewBox="0 0 150 150" fill="none" xmlns="http://www.w3.org/2000/svg">
<path d="M115.953 45.3203L89.6259 71.6472L76.9231 58.9445L58.71 77.1574" stroke="#663366" stroke-width="5" stroke-miterlimit="10"/>
<path d="M64.6367 100.264L31.5243 133.376C27.5154 137.385 21.0158 137.385 17.0066 133.376C12.9978 129.367 12.9978 122.868 17.0066 118.859L50.1191 85.7461" stroke="#663366" stroke-width="5" stroke-miterlimit="10"/>
<path d="M37.876 97.9902L52.3936 112.508" stroke="#663366" stroke-width="5" stroke-miterlimit="10"/>
<path d="M136.383 60.7503C136.383 86.5698 115.452 107.501 89.6331 107.501C63.8138 107.501 42.8828 86.5696 42.8828 60.7503C42.8828 34.9309 63.8135 14 89.6331 14C115.453 14 136.383 34.9309 136.383 60.7503Z" stroke="#663366" stroke-width="5" stroke-miterlimit="10"/>
<path d="M115.953 67.2143V45.3203H94.0586" stroke="#663366" stroke-width="5" stroke-miterlimit="10"/>
</svg>
