<svg width="150" height="150" viewBox="0 0 150 150" fill="none" xmlns="http://www.w3.org/2000/svg">
<path d="M11.6177 107.075C11.8717 107.075 12.1289 107.015 12.3687 106.889C18.3257 103.751 24.1944 99.2173 29.8432 93.4292V136.001H11.9127C11.0198 136.001 10.2973 136.724 10.2973 137.617C10.2973 138.51 11.0198 139.232 11.9127 139.232H137.619C138.512 139.232 139.234 138.51 139.234 137.617C139.234 136.724 138.512 136.001 137.619 136.001H119.239V93.4785C124.871 99.2432 130.723 103.76 136.664 106.889C136.904 107.015 137.161 107.075 137.415 107.075C137.996 107.075 138.557 106.761 138.846 106.212C139.262 105.424 138.96 104.447 138.169 104.031C132.325 100.952 126.546 96.4347 120.973 90.623C123.665 89.3537 125.544 86.6304 125.544 83.4578C125.544 79.0801 121.991 75.5195 117.623 75.5195C113.255 75.5195 109.701 79.0801 109.701 83.4578C109.701 86.678 111.633 89.4436 114.39 90.6868C110.931 94.2529 95.6556 108.732 75.2879 109.331C61.203 109.721 47.4914 103.482 34.5653 90.7555C37.3927 89.5424 39.3796 86.7292 39.3796 83.4578C39.3796 79.0801 35.8269 75.5195 31.4586 75.5195C27.0904 75.5195 23.5362 79.0801 23.5362 83.4578C23.5362 86.6177 25.4027 89.3301 28.0774 90.6061C22.4963 96.4261 16.7119 100.951 10.8637 104.031C10.0733 104.447 9.77042 105.424 10.1869 106.212C10.4756 106.761 11.0372 107.075 11.6177 107.075ZM112.931 83.4578C112.931 80.8627 115.036 78.7504 117.623 78.7504C120.209 78.7504 122.313 80.8627 122.313 83.4578C122.313 86.0529 120.209 88.1636 117.623 88.1636C115.036 88.1636 112.931 86.0529 112.931 83.4578ZM75.4141 112.561C96.0184 111.942 111.239 98.4529 116.008 93.6667V136.001H33.0741V93.8179C45.9995 106.265 59.7361 112.581 73.9627 112.581C74.4454 112.581 74.9298 112.575 75.4141 112.561ZM31.4586 78.7504C34.0443 78.7504 36.1487 80.8627 36.1487 83.4578C36.1487 86.0529 34.0443 88.1636 31.4586 88.1636C28.8715 88.1636 26.767 86.0529 26.767 83.4578C26.767 80.8627 28.8715 78.7504 31.4586 78.7504Z" fill="#663366"/>
<path d="M92.3869 10C91.494 10 90.7715 10.7225 90.7715 11.6154V68.8996C90.7715 69.7925 91.494 70.515 92.3869 70.515H137.948C138.841 70.515 139.564 69.7925 139.564 68.8996V11.6154C139.564 10.7225 138.841 10 137.948 10H92.3869ZM136.333 67.2842H94.0023V13.2308H136.333V67.2842Z" fill="#663366"/>
<path d="M92.3869 70.515H137.948C138.841 70.515 139.564 69.7925 139.564 68.8996V11.6154C139.564 10.7225 138.841 10 137.948 10H92.3869C91.494 10 90.7715 10.7225 90.7715 11.6154V68.8996C90.7715 69.7925 91.494 70.515 92.3869 70.515ZM94.0023 13.2308H136.333V67.2842H94.0023V13.2308Z" fill="#663366"/>
<path d="M111.772 60.9305H138.385C139.278 60.9305 140 60.208 140 59.3151V21.2014C140 20.3085 139.278 19.5859 138.385 19.5859H111.772C110.879 19.5859 110.156 20.3085 110.156 21.2014V59.3151C110.156 60.208 110.879 60.9305 111.772 60.9305ZM113.387 22.8168H136.77V57.6997H113.387V22.8168Z" fill="#663366"/>
<path d="M138.385 19.5859H111.772C110.879 19.5859 110.156 20.3085 110.156 21.2014V59.3151C110.156 60.208 110.879 60.9305 111.772 60.9305H138.385C139.278 60.9305 140 60.208 140 59.3151V21.2014C140 20.3085 139.278 19.5859 138.385 19.5859ZM136.77 57.6997H113.387V22.8168H136.77V57.6997Z" fill="#663366"/>
</svg>
