<svg width="150" height="150" viewBox="0 0 150 150" fill="none" xmlns="http://www.w3.org/2000/svg">
<path d="M136.641 128.207H132.647V66.4091C137.032 63.8843 140 59.1319 140 53.7006C140 53.5945 139.984 53.499 139.974 53.4036C139.974 53.3877 139.974 53.3611 139.958 53.3505C139.942 53.2551 139.915 53.1596 139.889 53.0641V53.0482L126.39 13.3737C126.104 12.5463 125.332 12 124.464 12H25.5306C24.6631 12 23.8909 12.5569 23.6051 13.3843L10.1058 53.0371V53.053C10.0793 53.1484 10.0529 53.2439 10.037 53.3394C10.037 53.3553 10.037 53.3818 10.0212 53.3924C10.0159 53.4985 10 53.594 10 53.7001C10 59.1314 12.9675 63.8838 17.3527 66.4086V128.206H13.359C11.5023 128.206 10 129.728 10 131.585V135.632C10 137.494 11.5023 139 13.359 139H136.64C138.497 139 139.999 137.494 139.999 135.632V131.585C139.999 129.728 138.498 128.207 136.641 128.207ZM128.585 128.207H122.168L122.163 68.0005C123.195 68.2339 124.274 68.3664 125.374 68.3664C126.469 68.3664 127.543 68.2445 128.585 68.0111L128.585 128.207ZM111.578 128.207V98.5259C111.578 96.5156 109.954 94.8873 107.949 94.8873H107.748V92.0337C107.748 88.4216 105.918 85.1491 103.009 83.2237C103.712 81.9454 104.119 80.4815 104.119 78.9168C104.119 73.9893 100.126 69.9848 95.1959 69.9848C90.2817 69.9848 86.2881 73.9893 86.2881 78.9168C86.2881 80.4761 86.6954 81.9454 87.3989 83.2237C84.4896 85.1385 82.6593 88.4216 82.6593 92.0337V94.8873H80.0886C80.9402 93.3119 81.2682 91.5458 80.9561 89.9015C80.6705 88.3686 79.8347 87.0639 78.6127 86.2364C78.0309 85.8439 77.4067 85.584 76.7455 85.4355C76.6662 83.5367 75.8092 81.8075 74.3069 80.7786C73.1009 79.9511 71.5828 79.6541 70.0435 79.9352C68.811 80.1686 67.6315 80.7627 66.6422 81.6325C66.3566 81.309 66.0339 81.0225 65.6689 80.7786C64.4523 79.9511 62.9342 79.6541 61.4055 79.9352C60.173 80.1686 58.9935 80.7627 58.0043 81.6325C57.7186 81.309 57.396 81.0225 57.031 80.7786C55.8143 79.9511 54.2962 79.6541 52.7675 79.9352C50.9003 80.2906 49.1494 81.484 47.975 83.2079C47.3932 84.0618 46.9859 85.0006 46.769 85.9659C45.5788 86.5387 44.4944 87.4457 43.6533 88.6657C42.3151 90.6229 41.9606 92.9301 42.5161 94.8714H42.0559C40.0669 94.8714 38.4377 96.4997 38.4377 98.51V128.191H31.8997L31.8838 66.4095C34.079 65.1471 35.9199 63.312 37.2052 61.1267C39.7496 65.4442 44.4522 68.3507 49.8 68.3507C55.1637 68.3507 59.8504 65.4442 62.3948 61.1267C64.9391 65.4442 69.6257 68.3507 74.9895 68.3507C80.3532 68.3507 85.04 65.4442 87.5843 61.1267C90.1286 65.4442 94.8312 68.3507 100.179 68.3507C105.543 68.3507 110.229 65.4442 112.774 61.1267C114.059 63.312 115.9 65.1312 118.095 66.3936V128.191H111.578L111.578 128.207ZM42.4847 128.207V98.9604H47.7004H47.8062H47.8855H107.51V128.207H42.4847ZM46.9968 94.6533C46.087 94.0275 46.1028 92.3195 47.0126 90.9724C47.7056 89.9699 48.7317 89.3547 49.5834 89.3547C49.8955 89.3547 50.1811 89.4342 50.4244 89.5987C50.8317 89.8692 50.9957 90.3306 51.0592 90.6595C51.1121 90.9194 51.1121 91.2005 51.0856 91.4763C51.0433 91.6513 51.0169 91.8317 50.9904 92.0067C50.8846 92.4416 50.6783 92.8765 50.4086 93.285C49.8531 94.1124 49.028 94.6959 48.2133 94.8443C48.134 94.8602 48.0388 94.8708 47.9436 94.8867H47.7108C47.4728 94.8708 47.2136 94.8178 46.9968 94.6533ZM55.0795 92.224C55.1853 91.805 55.3757 91.3701 55.6508 90.9723C56.3279 89.9804 57.3699 89.3705 58.2375 89.3705C58.5337 89.3705 58.8194 89.45 59.0627 89.6039C59.5758 89.9592 59.7927 90.6647 59.7133 91.4497C59.671 91.6406 59.634 91.8422 59.6075 92.0491C59.5017 92.4681 59.3113 92.903 59.0362 93.3008C58.3856 94.2502 57.3965 94.8496 56.5607 94.9026H56.328C56.0688 94.8867 55.8255 94.8231 55.6244 94.6693C55.1113 94.3139 54.8945 93.5978 54.9738 92.8075C55.0108 92.606 55.0425 92.415 55.0795 92.224ZM63.6911 92.2347C63.7969 91.7997 64.0032 91.3648 64.273 90.9723C64.8284 90.1449 65.6536 89.5614 66.4682 89.413C66.5899 89.3864 66.7274 89.3705 66.8596 89.3705C67.1294 89.3705 67.4151 89.4236 67.6848 89.6039C68.1979 89.9593 68.3196 90.5958 68.3461 90.9458C68.3619 91.1103 68.3619 91.2853 68.3302 91.4603C68.2879 91.6513 68.2508 91.8422 68.2244 92.0332C68.1186 92.4681 67.9123 92.8871 67.6531 93.2849C67.0183 94.2237 66.098 94.8072 65.2833 94.8867H64.9025C64.6591 94.8602 64.4423 94.7913 64.2518 94.6534C63.8445 94.3669 63.6805 93.9055 63.6171 93.582C63.5642 93.3221 63.5642 93.0516 63.5906 92.7651C63.6382 92.5901 63.6647 92.415 63.6911 92.2347ZM76.3017 93.2849C75.6405 94.2608 74.6249 94.8602 73.768 94.8867H73.6304C73.3606 94.8708 73.1015 94.8071 72.9005 94.6533C72.3873 94.2979 72.1705 93.6084 72.2392 92.8181C72.2921 92.6006 72.3345 92.3991 72.3609 92.1816C72.4667 91.7732 72.6571 91.3542 72.9163 90.9723C73.6093 89.9698 74.6354 89.3545 75.4871 89.3545C75.7992 89.3545 76.0848 89.4341 76.3281 89.5985C76.7354 89.869 76.8994 90.3305 76.9523 90.6593C77.111 91.4762 76.8677 92.4521 76.3017 93.2849ZM72.673 85.9759C72.0647 86.2623 71.4934 86.6389 70.9539 87.1004C70.6682 86.7768 70.3297 86.4745 69.9806 86.2305C69.5468 85.9335 69.0707 85.716 68.5735 85.5516C68.5893 85.5357 68.5999 85.5092 68.5999 85.4986C69.1553 84.6711 69.9805 84.0876 70.7951 83.9392C71.1178 83.8703 71.6098 83.8597 72.0118 84.1408C72.4931 84.4856 72.7365 85.1909 72.673 85.9759ZM64.0297 85.9653C63.4213 86.2623 62.8395 86.6442 62.3106 87.1057C62.0249 86.7821 61.7022 86.4957 61.3373 86.2358C60.8929 85.9388 60.4168 85.7054 59.9301 85.5569C59.946 85.541 59.9566 85.5304 59.9566 85.5039C60.512 84.6764 61.3372 84.0929 62.136 83.9445C62.4745 83.8756 62.9506 83.865 63.3526 84.1461C63.871 84.4855 64.0984 85.1751 64.0297 85.9653ZM55.4075 85.9759C54.7991 86.2623 54.2173 86.6389 53.6884 87.1004C53.4027 86.7768 53.08 86.4745 52.715 86.2305C52.2707 85.9335 51.7946 85.7001 51.3079 85.5516C51.3238 85.5357 51.3344 85.5092 51.3344 85.4986C51.8898 84.6711 52.715 84.0876 53.5138 83.9392C53.8523 83.8703 54.3284 83.8597 54.7304 84.1408C55.2276 84.4856 55.4709 85.175 55.4075 85.9759ZM95.1913 83.7906C92.5094 83.7906 90.346 81.6053 90.346 78.9163C90.346 76.2272 92.5254 74.0578 95.1913 74.0578C97.8732 74.0578 100.052 76.2431 100.052 78.9163C100.052 81.6055 97.8731 83.7906 95.1913 83.7906ZM90.1661 86.3048C91.5997 87.2807 93.3188 87.8641 95.1913 87.8641C97.0585 87.8641 98.7776 87.2913 100.216 86.3048C102.327 87.4186 103.681 89.6039 103.681 92.0491V94.9027L86.7122 94.8974V92.0438C86.7122 89.6039 88.0661 87.4027 90.1661 86.3048ZM46.9807 16.0642H62.934L60.5113 51.6651H39.6965L43.4998 33.0479L46.9807 16.0642ZM103.02 16.0642L110.293 51.6543H89.4892L87.0665 16.0642H103.02ZM110.563 55.7386C109.616 60.5971 105.321 64.2941 100.19 64.2941C95.0587 64.2941 90.7636 60.6131 89.8166 55.7386H110.563ZM83.003 16.0642L85.4258 51.6543H64.5839L67.0066 16.0642H83.003ZM85.357 55.7386C84.4101 60.5971 80.1149 64.2941 74.9839 64.2941C69.8528 64.2941 65.5735 60.6131 64.6267 55.7386H85.357ZM60.1832 55.7386C59.2363 60.5971 54.9411 64.2941 49.81 64.2941C44.679 64.2941 40.3997 60.6131 39.4369 55.7386H60.1832ZM125.374 64.2941C120.243 64.2941 115.948 60.6131 115.001 55.7386H135.731C134.785 60.6024 130.505 64.2941 125.374 64.2941ZM135.138 51.6651H114.446L107.162 16.0642H123.004L135.138 51.6651ZM26.9804 16.0642H42.839L35.5656 51.6543H14.8619L26.9804 16.0642ZM14.2535 55.7386H34.9843C34.0375 60.5971 29.7422 64.2941 24.6112 64.2941C19.4961 64.2941 15.2162 60.6024 14.2535 55.7386ZM21.4158 68.0015C22.4473 68.2349 23.5158 68.3569 24.6266 68.3569C25.7216 68.3569 26.806 68.2349 27.8375 67.9909V128.213H21.4211L21.4158 68.0015ZM135.937 134.928H14.0627V132.281H135.937V134.928ZM68.5676 118.564C68.1761 119.148 67.5361 119.461 66.8907 119.461C66.4993 119.461 66.1079 119.355 65.7534 119.105L64.2617 118.087C63.3413 117.451 63.098 116.188 63.7327 115.265C64.3675 114.342 65.6264 114.098 66.5468 114.735L68.0386 115.753C68.9484 116.369 69.1918 117.631 68.5676 118.564ZM82.881 102.949C80.067 102.095 77.2898 102.445 75.0682 103.968C75.0418 103.984 75.0259 104.01 74.9995 104.021C74.973 104.005 74.9571 103.978 74.9307 103.968C72.7091 102.445 69.9319 102.095 67.1179 102.949C64.4518 103.766 62.0556 105.585 60.3471 108.094C56.7607 113.404 57.4218 120.177 61.8494 123.206C63.2987 124.197 64.965 124.659 66.6841 124.659C69.5934 124.659 72.6562 123.301 74.9995 120.856C77.3429 123.312 80.4003 124.659 83.3148 124.659C85.0339 124.659 86.7002 124.197 88.1496 123.206C92.577 120.177 93.2541 113.388 89.6519 108.094C87.9433 105.585 85.5364 103.766 82.881 102.949ZM64.1395 119.842C61.5528 118.076 61.3624 113.827 63.7057 110.38C64.8853 108.64 66.5198 107.394 68.2971 106.837C68.9055 106.646 69.5032 106.566 70.0692 106.566C70.8838 106.566 71.6403 106.757 72.3014 107.123C71.7301 108.237 71.3651 109.515 71.2593 110.884C71.1112 112.841 71.4603 114.851 72.2749 116.734C72.2908 116.776 72.3014 116.813 72.3278 116.84C72.3966 116.988 72.4654 117.137 72.5288 117.285C72.5447 117.328 72.5712 117.365 72.5817 117.407C70.2172 120.399 66.5622 121.497 64.1395 119.842ZM85.8588 119.842C83.2721 121.608 79.252 120.235 76.9192 116.787C76.8134 116.623 76.7023 116.463 76.6071 116.299C76.5542 116.204 76.5013 116.124 76.459 116.029C76.4326 115.975 76.3902 115.922 76.3638 115.864C75.4963 114.22 75.1578 112.443 75.364 110.868C75.364 110.852 75.364 110.825 75.3799 110.815C75.3958 110.666 75.4222 110.528 75.4593 110.38C75.4751 110.327 75.4857 110.284 75.4857 110.231C75.5122 110.109 75.5386 109.987 75.5809 109.876C75.6074 109.796 75.6338 109.727 75.6497 109.658C75.6761 109.563 75.7185 109.483 75.7449 109.388C75.7872 109.282 75.8401 109.17 75.893 109.064C75.9195 109.022 75.9353 108.969 75.9618 108.926C76.3003 108.274 76.7764 107.733 77.3689 107.335C78.1147 106.831 78.9928 106.577 79.9396 106.577C80.5109 106.577 81.1034 106.672 81.7117 106.847C83.4837 107.388 85.1235 108.651 86.3031 110.38C88.6359 113.838 88.4454 118.076 85.8588 119.842ZM86.2767 115.254C86.9115 116.177 86.6681 117.455 85.7477 118.076L84.256 119.094C83.9016 119.338 83.5102 119.45 83.1187 119.45C82.4681 119.45 81.8333 119.137 81.4419 118.553C80.8071 117.63 81.0504 116.352 81.9709 115.732L83.4626 114.713C84.383 114.087 85.6579 114.315 86.2767 115.254Z" fill="#663366"/>
</svg>
