<svg width="150" height="150" viewBox="0 0 150 150" fill="none" xmlns="http://www.w3.org/2000/svg">
<path fill-rule="evenodd" clip-rule="evenodd" d="M49.7455 97.8728C48.9622 97.8728 48.3264 97.237 48.3264 96.4536V93.638C48.3264 91.5774 49.4049 89.7609 51.2101 88.7788C52.2149 88.2339 52.8336 87.1893 52.8336 86.0597V67.9237C52.8336 66.8168 51.9311 65.9086 50.8241 65.9086C49.7115 65.9086 48.809 66.8111 48.809 67.9237C48.809 68.7071 48.1732 69.3429 47.3898 69.3429C46.6065 69.3429 45.9707 68.7071 45.9707 67.9237C45.9707 65.2501 48.1448 63.0703 50.8241 63.0703C53.4977 63.0703 55.6719 65.2445 55.6719 67.9237V86.0597C55.6719 88.2282 54.4855 90.2263 52.5725 91.2708C51.6642 91.7646 51.1647 92.6048 51.1647 93.6379V96.4535C51.1647 97.2368 50.5289 97.8728 49.7455 97.8728Z" fill="#663366"/>
<path fill-rule="evenodd" clip-rule="evenodd" d="M47.3893 78.7205C46.6059 78.7205 45.9702 78.0847 45.9702 77.3013V61.412C45.9702 60.2994 45.0676 59.3968 43.955 59.3968C42.8481 59.3968 41.9398 60.2994 41.9398 61.412V76.0574C41.9398 76.8408 41.3041 77.4765 40.5207 77.4765C39.7373 77.4765 39.1016 76.8408 39.1016 76.0574V61.412C39.1016 58.7384 41.2757 56.5586 43.955 56.5586C46.6286 56.5586 48.8084 58.7327 48.8084 61.412V77.3013C48.8084 78.0847 48.1727 78.7205 47.3893 78.7205Z" fill="#663366"/>
<path fill-rule="evenodd" clip-rule="evenodd" d="M33.6633 77.869C32.8742 77.869 32.2441 77.2332 32.2441 76.4499V60.328C32.2441 57.6544 34.4183 55.4746 37.0919 55.4746C39.7655 55.4746 41.9453 57.6488 41.9453 60.328V61.5825C41.9453 62.3659 41.3095 63.0017 40.5262 63.0017C39.7428 63.0017 39.107 62.3659 39.107 61.5825V60.328C39.107 59.2154 38.2044 58.3129 37.0919 58.3129C35.9849 58.3129 35.0824 59.2154 35.0824 60.328V76.4499C35.0824 77.2332 34.4466 77.869 33.6633 77.869Z" fill="#663366"/>
<path fill-rule="evenodd" clip-rule="evenodd" d="M26.8 77.7336C26.0166 77.7336 25.3809 77.0978 25.3809 76.3145V63.5819C25.3809 60.9083 27.555 58.7285 30.2343 58.7285C32.9079 58.7285 35.0877 60.9027 35.0877 63.5819C35.0877 64.3653 34.4519 65.0011 33.6685 65.0011C32.8852 65.0011 32.2494 64.3653 32.2494 63.5819C32.2494 62.4693 31.3468 61.5668 30.2342 61.5668C29.1217 61.5668 28.2191 62.4693 28.2191 63.5819V76.3145C28.2191 77.0978 27.5834 77.7336 26.8 77.7336Z" fill="#663366"/>
<path fill-rule="evenodd" clip-rule="evenodd" d="M28.3676 97.8742C27.5842 97.8742 26.9484 97.2384 26.9484 96.4551V93.6395C26.9484 93.2989 26.7327 92.981 26.3467 92.4474C26.0345 92.0103 25.6826 91.5165 25.4385 90.8977L23.6446 86.3621C23.3268 85.5674 23.0543 85.0111 22.5774 84.5456L15.5157 77.5975C14.545 76.6382 14.0057 75.3553 14 73.9759C13.9944 72.5851 14.528 71.2794 15.5101 70.3032C16.4808 69.3325 17.775 68.7988 19.1544 68.7988H19.1601C20.5395 68.8045 21.8337 69.3381 22.7988 70.3089L27.8055 75.3269C28.3561 75.8832 28.3561 76.7801 27.7998 77.3364C27.2435 77.887 26.3466 77.887 25.7903 77.3307L20.7836 72.3127C20.3522 71.8756 19.7732 71.6372 19.1487 71.6372C18.53 71.6372 17.9453 71.8756 17.5082 72.3127C17.0654 72.7554 16.827 73.3401 16.8327 73.9702C16.8327 74.5833 17.0711 75.1566 17.5026 75.5824L24.5586 82.5304C25.4782 83.433 25.9267 84.4434 26.2729 85.3234L28.0724 89.859C28.1916 90.1598 28.413 90.472 28.6515 90.8069C29.1567 91.5108 29.7811 92.385 29.7811 93.6565V96.4721C29.7811 97.2555 29.1453 97.8912 28.3619 97.8912L28.3676 97.8742Z" fill="#663366"/>
<path fill-rule="evenodd" clip-rule="evenodd" d="M29.7881 137.161H48.3281V97.8792H29.7881V137.161ZM49.7465 139.999H28.3684C27.585 139.999 26.9492 139.363 26.9492 138.58V96.4602C26.9492 95.6768 27.585 95.041 28.3684 95.041H49.7465C50.5298 95.041 51.1656 95.6768 51.1656 96.4602V138.58C51.1656 139.363 50.5298 139.999 49.7465 139.999Z" fill="#663366"/>
<path fill-rule="evenodd" clip-rule="evenodd" d="M49.7465 105.707H28.3684C27.585 105.707 26.9492 105.072 26.9492 104.288C26.9492 103.505 27.585 102.869 28.3684 102.869H49.7465C50.5298 102.869 51.1656 103.505 51.1656 104.288C51.1656 105.072 50.5298 105.707 49.7465 105.707Z" fill="#663366"/>
<path fill-rule="evenodd" clip-rule="evenodd" d="M63.279 117.326C62.4956 117.326 61.8599 116.69 61.8599 115.907V113.341C61.8599 112.45 61.4284 111.718 60.6451 111.292C58.8569 110.316 57.75 108.459 57.75 106.433V89.9083C57.75 87.3992 59.7878 85.3613 62.2969 85.3613C64.806 85.3613 66.8439 87.3992 66.8439 89.9083C66.8439 90.6916 66.2081 91.3217 65.4247 91.3217C64.6414 91.3217 64.0056 90.6916 64.0056 89.9083C64.0056 88.9659 63.2392 88.1996 62.2969 88.1996C61.3546 88.1996 60.5882 88.9659 60.5882 89.9083V106.433C60.5882 107.415 61.1332 108.323 62.0017 108.8C63.6934 109.719 64.6981 111.417 64.6981 113.341V115.907C64.6981 116.69 64.0624 117.326 63.279 117.326Z" fill="#663366"/>
<path fill-rule="evenodd" clip-rule="evenodd" d="M65.425 99.8708C64.6416 99.8708 64.0059 99.235 64.0059 98.4517V83.9708C64.0059 81.4617 66.0437 79.4238 68.5528 79.4238C71.0619 79.4238 73.0997 81.4617 73.0997 83.9708V97.3164C73.0997 98.1054 72.4639 98.7355 71.6806 98.7355C70.8972 98.7355 70.2614 98.1054 70.2614 97.3164V83.9708C70.2614 83.0284 69.4894 82.2621 68.5528 82.2621C67.6104 82.2621 66.8441 83.0284 66.8441 83.9708V98.4517C66.8441 99.235 66.2084 99.8708 65.425 99.8708Z" fill="#663366"/>
<path fill-rule="evenodd" clip-rule="evenodd" d="M77.9345 99.094C77.1512 99.094 76.5154 98.4582 76.5154 97.6749V82.9844C76.5154 82.0421 75.7491 81.2758 74.8067 81.2758C73.8644 81.2758 73.0981 82.0421 73.0981 82.9844V84.1311C73.0981 84.9145 72.4623 85.5502 71.6789 85.5502C70.8955 85.5502 70.2598 84.9145 70.2598 84.1311V82.9844C70.2598 80.4753 72.2976 78.4375 74.8067 78.4375C77.3158 78.4375 79.3536 80.4753 79.3536 82.9844V97.6749C79.3536 98.4582 78.7236 99.094 77.9345 99.094Z" fill="#663366"/>
<path fill-rule="evenodd" clip-rule="evenodd" d="M84.1906 98.9694C83.4072 98.9694 82.7715 98.3337 82.7715 97.5503V85.9473C82.7715 85.005 82.0051 84.2386 81.0628 84.2386C80.1205 84.2386 79.3541 85.005 79.3541 85.9473C79.3541 86.7307 78.724 87.3665 77.935 87.3665C77.1516 87.3665 76.5215 86.7307 76.5215 85.9473C76.5215 83.4382 78.5593 81.4004 81.0684 81.4004C83.5775 81.4004 85.6153 83.4382 85.6153 85.9473V97.5503C85.6153 98.3337 84.9796 98.9694 84.1962 98.9694H84.1906Z" fill="#663366"/>
<path fill-rule="evenodd" clip-rule="evenodd" d="M82.7609 117.327C81.9776 117.327 81.3418 116.692 81.3418 115.908V113.343C81.3418 112.145 81.9265 111.327 82.392 110.675C82.6134 110.368 82.8007 110.101 82.9085 109.84L84.5491 105.702C84.867 104.89 85.287 103.954 86.1386 103.113L92.5702 96.7783C92.9392 96.415 93.1378 95.9269 93.1378 95.3989C93.1435 94.8597 92.9335 94.3544 92.5588 93.9798C92.1841 93.6051 91.6846 93.4008 91.1567 93.4008H91.151C90.6231 93.4065 90.1236 93.6051 89.7546 93.9798L85.1906 98.5551C84.6343 99.1114 83.7374 99.1114 83.1812 98.5607C82.6305 98.0101 82.6249 97.1075 83.1755 96.5512L87.7394 91.976C88.642 91.0677 89.8511 90.5682 91.1454 90.5625H91.1511C92.4454 90.5625 93.6545 91.0677 94.5628 91.9703C95.4767 92.8842 95.9763 94.1048 95.9706 95.4047C95.9706 96.6932 95.4597 97.8966 94.5514 98.7935L88.1199 105.129C87.6998 105.537 87.4614 106.014 87.1775 106.741L85.5427 110.873C85.3099 111.458 84.9807 111.912 84.6969 112.315C84.362 112.781 84.1746 113.059 84.1746 113.337V115.903C84.1746 116.686 83.5388 117.322 82.7555 117.322L82.7609 117.327Z" fill="#663366"/>
<path fill-rule="evenodd" clip-rule="evenodd" d="M64.6968 137.161H81.3404V117.328H64.6968V137.161ZM82.7602 139.999H63.2785C62.4952 139.999 61.8594 139.364 61.8594 138.58V115.907C61.8594 115.124 62.4952 114.488 63.2785 114.488H82.7602C83.5435 114.488 84.1793 115.124 84.1793 115.907V138.58C84.1793 139.364 83.5435 139.999 82.7602 139.999Z" fill="#663366"/>
<path fill-rule="evenodd" clip-rule="evenodd" d="M82.7602 124.463H63.2785C62.4952 124.463 61.8594 123.828 61.8594 123.044C61.8594 122.261 62.4952 121.625 63.2785 121.625H82.7602C83.5435 121.625 84.1793 122.261 84.1793 123.044C84.1793 123.828 83.5435 124.463 82.7602 124.463Z" fill="#663366"/>
<path fill-rule="evenodd" clip-rule="evenodd" d="M99.3578 90.9642C98.5744 90.9642 97.9386 90.3284 97.9386 89.5451V86.7295C97.9386 85.6964 97.4391 84.8505 96.5308 84.3567C94.6178 83.3122 93.4258 81.3198 93.4258 79.1457V61.0097C93.4258 58.3361 95.5999 56.1562 98.2792 56.1562C100.953 56.1562 103.133 58.3304 103.133 61.0097C103.133 61.793 102.497 62.4288 101.713 62.4288C100.93 62.4288 100.294 61.793 100.294 61.0097C100.294 59.9027 99.3917 58.9945 98.2792 58.9945C97.1722 58.9945 96.264 59.8971 96.264 61.0097V79.1457C96.264 80.2753 96.8884 81.3141 97.8875 81.8647C99.6927 82.8468 100.771 84.669 100.771 86.7296V89.5452C100.771 90.3286 100.135 90.9644 99.3521 90.9644L99.3578 90.9642Z" fill="#663366"/>
<path fill-rule="evenodd" clip-rule="evenodd" d="M101.714 71.8123C100.931 71.8123 100.295 71.1765 100.295 70.3931V54.5038C100.295 51.8302 102.469 49.6504 105.148 49.6504C107.822 49.6504 110.002 51.8245 110.002 54.5038V69.1492C110.002 69.9326 109.366 70.5683 108.583 70.5683C107.799 70.5683 107.163 69.9326 107.163 69.1492V54.5038C107.163 53.3912 106.261 52.4886 105.148 52.4886C104.036 52.4886 103.133 53.3912 103.133 54.5038V70.3931C103.133 71.1765 102.497 71.8123 101.714 71.8123Z" fill="#663366"/>
<path fill-rule="evenodd" clip-rule="evenodd" d="M115.44 70.9608C114.657 70.9608 114.021 70.325 114.021 69.5417V53.4198C114.021 52.3072 113.119 51.4047 112.006 51.4047C110.899 51.4047 109.996 52.3072 109.996 53.4198V54.6743C109.996 55.4577 109.361 56.0935 108.577 56.0935C107.794 56.0935 107.158 55.4577 107.158 54.6743V53.4198C107.158 50.7462 109.332 48.5664 112.006 48.5664C114.68 48.5664 116.859 50.7405 116.859 53.4198V69.5417C116.859 70.325 116.224 70.9608 115.44 70.9608Z" fill="#663366"/>
<path fill-rule="evenodd" clip-rule="evenodd" d="M122.309 70.8254C121.526 70.8254 120.89 70.1896 120.89 69.4063V56.6737C120.89 55.5611 119.988 54.6586 118.875 54.6586C117.768 54.6586 116.86 55.5611 116.86 56.6737C116.86 57.4571 116.224 58.0929 115.441 58.0929C114.657 58.0929 114.021 57.4571 114.021 56.6737C114.021 54.0001 116.196 51.8203 118.875 51.8203C121.549 51.8203 123.728 53.9944 123.728 56.6737V69.4063C123.728 70.1896 123.093 70.8254 122.309 70.8254Z" fill="#663366"/>
<path fill-rule="evenodd" clip-rule="evenodd" d="M120.743 90.9655C119.96 90.9655 119.324 90.3297 119.324 89.5463V86.7307C119.324 85.4649 119.949 84.5849 120.454 83.8812C120.692 83.5519 120.914 83.234 121.033 82.9332L122.827 78.3976C123.173 77.5177 123.621 76.5072 124.541 75.6047L131.597 68.6566C132.023 68.2365 132.261 67.6575 132.267 67.0444C132.273 66.42 132.029 65.8296 131.591 65.3869C131.16 64.9498 130.575 64.7114 129.951 64.7114H129.945C129.326 64.7114 128.747 64.9498 128.316 65.3869L123.309 70.4049C122.759 70.9612 121.856 70.9612 121.3 70.4106C120.744 69.86 120.744 68.9574 121.294 68.4011L126.301 63.3831C127.266 62.4124 128.56 61.8787 129.94 61.873H129.945C131.325 61.873 132.619 62.4067 133.59 63.3774C134.566 64.3538 135.105 65.6594 135.1 67.0501C135.094 68.4295 134.555 69.7124 133.584 70.6718L126.528 77.6198C126.057 78.0853 125.779 78.6416 125.461 79.4363L123.667 83.9719C123.417 84.5964 123.065 85.0902 122.759 85.5216C122.373 86.0552 122.157 86.3788 122.157 86.7137V89.5293C122.157 90.3127 121.521 90.9484 120.738 90.9484L120.743 90.9655Z" fill="#663366"/>
<path fill-rule="evenodd" clip-rule="evenodd" d="M100.778 137.161H119.318V90.9651H100.778V137.161ZM120.737 139.999H99.3586C98.5752 139.999 97.9395 139.364 97.9395 138.58V89.552C97.9395 88.7686 98.5752 88.1328 99.3586 88.1328H120.737C121.52 88.1328 122.156 88.7686 122.156 89.552V138.58C122.156 139.364 121.52 139.999 120.737 139.999Z" fill="#663366"/>
<path fill-rule="evenodd" clip-rule="evenodd" d="M120.743 98.7992H99.3644C98.5811 98.7992 97.9453 98.1634 97.9453 97.3801C97.9453 96.5967 98.5811 95.9609 99.3644 95.9609H120.743C121.526 95.9609 122.162 96.5967 122.162 97.3801C122.162 98.1634 121.526 98.7992 120.743 98.7992Z" fill="#663366"/>
<path fill-rule="evenodd" clip-rule="evenodd" d="M61.7643 48.8635C61.2704 48.8635 60.7879 48.6024 60.5268 48.1426C53.1586 35.0751 42.2368 25.4929 28.068 19.6627C27.3414 19.3618 26.9952 18.5387 27.296 17.8122C27.5969 17.0856 28.42 16.7393 29.1465 17.0402C43.9227 23.1198 55.31 33.1111 62.996 46.7451C63.382 47.4263 63.1379 48.2948 62.4568 48.6808C62.2354 48.8057 61.997 48.8635 61.7643 48.8635Z" fill="#663366"/>
<path fill-rule="evenodd" clip-rule="evenodd" d="M87.3429 48.8624C87.1045 48.8624 86.8717 48.8057 86.6503 48.6808C85.9692 48.2948 85.7251 47.4319 86.1111 46.7451C93.7972 33.11 105.184 23.1131 119.961 17.0402C120.687 16.7393 121.51 17.0856 121.811 17.8122C122.112 18.5388 121.766 19.3619 121.039 19.6627C106.87 25.4925 95.948 35.0739 88.5803 48.1426C88.3192 48.6024 87.8367 48.8624 87.3429 48.8624Z" fill="#663366"/>
<path fill-rule="evenodd" clip-rule="evenodd" d="M77.9913 40.0184C77.7529 40.0184 77.5145 39.9616 77.2988 39.8367C76.6176 39.4507 76.3735 38.5879 76.7595 37.901C83.0719 26.7125 92.4149 18.5037 104.54 13.5206C105.267 13.2198 106.096 13.566 106.397 14.2926C106.697 15.0192 106.351 15.848 105.625 16.1432C94.1011 20.8831 85.2289 28.677 79.2402 39.2985C78.9791 39.764 78.4966 40.0251 78.0027 40.0251L77.9913 40.0184Z" fill="#663366"/>
<path fill-rule="evenodd" clip-rule="evenodd" d="M71.1118 40.0193C70.6122 40.0193 70.1354 39.7581 69.8743 39.2927C63.8855 28.6718 55.008 20.8835 43.4899 16.1373C42.7633 15.8421 42.417 15.0133 42.7179 14.2868C43.0188 13.5602 43.8419 13.2139 44.5684 13.5148C56.6937 18.5045 66.0366 26.7071 72.3493 37.8952C72.7353 38.5764 72.4969 39.4392 71.81 39.8308C71.5943 39.9557 71.3502 40.0125 71.1175 40.0125L71.1118 40.0193Z" fill="#663366"/>
<path fill-rule="evenodd" clip-rule="evenodd" d="M25.921 36.9347C25.132 36.9347 24.5019 36.3046 24.5019 35.5156V33.2336C24.5019 32.4502 25.132 31.8145 25.921 31.8145C26.7044 31.8145 27.3402 32.4502 27.3402 33.2336V35.5156C27.3402 36.3046 26.7044 36.9347 25.921 36.9347ZM21.7771 41.0787H19.4895C18.7061 41.0787 18.0703 40.4429 18.0703 39.6595C18.0703 38.8762 18.7061 38.2404 19.4895 38.2404H21.7771C22.5605 38.2404 23.1962 38.8762 23.1962 39.6595C23.1962 40.4429 22.5605 41.0787 21.7771 41.0787ZM32.3468 41.0787H30.0592C29.2758 41.0787 28.6401 40.4429 28.6401 39.6595C28.6401 38.8762 29.2758 38.2404 30.0592 38.2404H32.3468C33.1302 38.2404 33.766 38.8762 33.766 39.6595C33.766 40.4429 33.1302 41.0787 32.3468 41.0787ZM25.9209 47.5046C25.1319 47.5046 24.5018 46.8688 24.5018 46.0854V43.8035C24.5018 43.0201 25.1319 42.3843 25.9209 42.3843C26.7043 42.3843 27.34 43.0201 27.34 43.8035V46.0854C27.34 46.8688 26.7043 47.5046 25.9209 47.5046Z" fill="#663366"/>
<path fill-rule="evenodd" clip-rule="evenodd" d="M123.183 36.9347C122.399 36.9347 121.764 36.3046 121.764 35.5156V33.2336C121.764 32.4502 122.399 31.8145 123.183 31.8145C123.972 31.8145 124.602 32.4502 124.602 33.2336V35.5156C124.602 36.3046 123.966 36.9347 123.183 36.9347ZM119.039 41.0787H116.751C115.968 41.0787 115.332 40.4429 115.332 39.6595C115.332 38.8762 115.968 38.2404 116.751 38.2404H119.039C119.822 38.2404 120.458 38.8762 120.458 39.6595C120.458 40.4429 119.822 41.0787 119.039 41.0787ZM129.609 41.0787H127.327C126.543 41.0787 125.907 40.4429 125.907 39.6595C125.907 38.8762 126.543 38.2404 127.327 38.2404H129.609C130.398 38.2404 131.028 38.8762 131.028 39.6595C131.028 40.4429 130.398 41.0787 129.609 41.0787ZM123.183 47.5046C122.399 47.5046 121.763 46.8688 121.763 46.0854V43.8035C121.763 43.0201 122.399 42.3843 123.183 42.3843C123.972 42.3843 124.602 43.0201 124.602 43.8035V46.0854C124.602 46.8688 123.966 47.5046 123.183 47.5046Z" fill="#663366"/>
<path fill-rule="evenodd" clip-rule="evenodd" d="M81.5461 70.8979C80.7627 70.8979 80.127 70.2621 80.127 69.4788C80.127 69.1041 79.9339 68.6102 79.7353 68.0823C79.4685 67.3728 79.1562 66.5666 79.1562 65.6697C79.1562 64.7728 79.4628 63.9724 79.7353 63.2629C79.9339 62.735 80.127 62.2411 80.127 61.8665C80.127 61.4918 79.9339 60.998 79.7353 60.47C79.4685 59.7605 79.1562 58.9543 79.1562 58.0632C79.1562 57.1663 79.4628 56.3659 79.7353 55.6564C79.9339 55.1285 80.127 54.6347 80.127 54.26C80.127 53.8853 79.9339 53.3858 79.7353 52.8636C79.4685 52.1596 79.1562 51.3535 79.1562 50.4568C79.1562 49.5599 79.4628 48.7594 79.7353 48.05C79.9339 47.522 80.127 47.0282 80.127 46.6535C80.127 45.8702 80.7627 45.2344 81.5461 45.2344C82.3295 45.2344 82.9652 45.8702 82.9652 46.6535C82.9652 47.5504 82.6587 48.3509 82.3862 49.0603C82.1875 49.5882 81.9945 50.0878 81.9945 50.4568C81.9945 50.8314 82.1875 51.3253 82.3862 51.8532C82.6587 52.5628 82.9652 53.3689 82.9652 54.2658C82.9652 55.1627 82.6587 55.9631 82.3862 56.6726C82.1875 57.2005 81.9945 57.6944 81.9945 58.069C81.9945 58.4437 82.1875 58.9376 82.3862 59.4655C82.6587 60.1751 82.9652 60.9812 82.9652 61.8723C82.9652 62.7692 82.6587 63.5696 82.3862 64.2791C82.1875 64.807 81.9945 65.3065 81.9945 65.6755C81.9945 66.0502 82.1875 66.5497 82.3862 67.072C82.6587 67.7815 82.9652 68.5877 82.9652 69.4788C82.9652 70.2621 82.3295 70.8979 81.5461 70.8979Z" fill="#663366"/>
<path fill-rule="evenodd" clip-rule="evenodd" d="M68.5285 70.8979C67.7451 70.8979 67.1094 70.2621 67.1094 69.4788C67.1094 69.1041 66.922 68.6102 66.7177 68.0823C66.4452 67.3728 66.1387 66.5666 66.1387 65.6697C66.1387 64.7728 66.4452 63.9724 66.7177 63.2629C66.9164 62.735 67.1094 62.2411 67.1094 61.8665C67.1094 61.4918 66.922 60.998 66.7177 60.47C66.4452 59.7605 66.1387 58.9543 66.1387 58.0632C66.1387 57.1663 66.4452 56.3659 66.7177 55.6564C66.9164 55.1285 67.1094 54.6347 67.1094 54.26C67.1094 53.8853 66.922 53.3858 66.7177 52.8636C66.4452 52.1596 66.1387 51.3535 66.1387 50.4568C66.1387 49.5599 66.4452 48.7594 66.7177 48.05C66.9164 47.522 67.1094 47.0282 67.1094 46.6535C67.1094 45.8702 67.7451 45.2344 68.5285 45.2344C69.3119 45.2344 69.9477 45.8702 69.9477 46.6535C69.9477 47.5504 69.6411 48.3509 69.3686 49.0603C69.1643 49.5882 68.977 50.0878 68.977 50.4568C68.977 50.8314 69.1643 51.3253 69.3686 51.8532C69.6354 52.5628 69.9477 53.3689 69.9477 54.2658C69.9477 55.1627 69.6411 55.9631 69.3686 56.6726C69.1643 57.2005 68.977 57.6944 68.977 58.069C68.977 58.4437 69.1643 58.9376 69.3686 59.4655C69.6354 60.1751 69.9477 60.9812 69.9477 61.8723C69.9477 62.7692 69.6411 63.5696 69.3686 64.2791C69.1643 64.807 68.977 65.3065 68.977 65.6755C68.977 66.0502 69.1643 66.5497 69.3686 67.072C69.6354 67.7815 69.9477 68.5877 69.9477 69.4788C69.9477 70.2621 69.3119 70.8979 68.5285 70.8979Z" fill="#663366"/>
<path fill-rule="evenodd" clip-rule="evenodd" d="M70.2606 18.2651L72.5993 19.8204C72.7583 19.9226 72.8889 20.0588 72.9967 20.2121L74.5577 22.5509L76.1131 20.2121C76.2153 20.0588 76.3515 19.9226 76.5048 19.8204L78.8492 18.2651L76.5048 16.704C76.3515 16.6019 76.2153 16.4656 76.1131 16.3124L74.5577 13.9736L72.9967 16.3124C72.8889 16.4713 72.7583 16.6019 72.5993 16.704L70.2606 18.2651ZM74.552 26.5358C74.0809 26.5358 73.6324 26.2974 73.3713 25.9057L70.7885 22.0343L66.917 19.4515C66.5197 19.1904 66.2812 18.7476 66.2812 18.2708C66.2812 17.7939 66.5197 17.3512 66.9113 17.09L70.7828 14.5072L73.3656 10.6301C73.6267 10.2384 74.0695 10 74.5463 10C75.0232 10 75.4603 10.2384 75.7271 10.6301L78.3098 14.5072L82.1813 17.09C82.5787 17.3512 82.8114 17.7996 82.8114 18.2708C82.8114 18.7419 82.573 19.1847 82.1813 19.4515L78.3098 22.0343L75.7271 25.9057C75.4659 26.3031 75.0232 26.5358 74.5463 26.5358H74.552Z" fill="#663366"/>
<path fill-rule="evenodd" clip-rule="evenodd" d="M99.7634 47.4753C99.4001 47.4753 99.0368 47.339 98.7587 47.0609C98.208 46.5102 98.208 45.6077 98.7587 45.0514C99.0198 44.7902 99.2412 44.3021 99.4682 43.7912C99.7804 43.0986 100.132 42.3096 100.763 41.6795C101.398 41.0494 102.187 40.6975 102.874 40.3853C103.391 40.1525 103.879 39.9368 104.14 39.6757C104.401 39.4146 104.617 38.9264 104.85 38.4098C105.162 37.7173 105.508 36.9339 106.144 36.2982C106.774 35.6624 107.563 35.3104 108.255 35.0039C108.772 34.7712 109.255 34.5555 109.516 34.2887C109.777 34.0275 109.998 33.5394 110.225 33.0285C110.537 32.3359 110.889 31.5469 111.52 30.9168C112.155 30.2867 112.944 29.9348 113.631 29.6225C114.148 29.3898 114.636 29.1741 114.897 28.913C115.448 28.3623 116.35 28.3623 116.907 28.913C117.457 29.4636 117.457 30.3662 116.907 30.9225C116.271 31.5526 115.482 31.9045 114.795 32.2167C114.278 32.4438 113.79 32.6652 113.529 32.9263C113.268 33.1874 113.052 33.6756 112.819 34.1865C112.507 34.879 112.155 35.668 111.525 36.2981C110.895 36.9339 110.106 37.2802 109.414 37.5924C108.897 37.8251 108.414 38.0408 108.153 38.302C107.892 38.5631 107.671 39.0513 107.444 39.5678C107.132 40.2604 106.78 41.0437 106.15 41.6795C105.514 42.3096 104.725 42.6615 104.038 42.9737C103.521 43.2008 103.033 43.4222 102.772 43.6833C102.511 43.9444 102.295 44.4326 102.062 44.9435C101.75 45.6361 101.398 46.4251 100.768 47.0552C100.49 47.3333 100.127 47.4696 99.7691 47.4696L99.7634 47.4753Z" fill="#663366"/>
<path fill-rule="evenodd" clip-rule="evenodd" d="M49.3413 47.4754C48.978 47.4754 48.6147 47.3392 48.3365 47.061C47.7007 46.4309 47.3545 45.6419 47.0423 44.9494C46.8095 44.4328 46.5938 43.9503 46.3327 43.6892C46.0716 43.4281 45.5834 43.2067 45.0668 42.9796C44.3743 42.6674 43.5909 42.3154 42.9552 41.6854C42.3251 41.0496 41.9731 40.2605 41.6609 39.5737C41.4338 39.0571 41.2125 38.5689 40.9513 38.3078C40.6902 38.0467 40.202 37.831 39.6911 37.5983C38.9986 37.2861 38.2096 36.9398 37.5795 36.304C36.9437 35.6739 36.5974 34.8849 36.2852 34.1924C36.0525 33.6758 35.8368 33.1933 35.5757 32.9321C35.3145 32.671 34.8263 32.4496 34.3098 32.2226C33.6172 31.9104 32.8339 31.5584 32.1981 30.9283C31.6475 30.372 31.6475 29.4751 32.1981 28.9188C32.7544 28.3682 33.6513 28.3682 34.2076 28.9188C34.4688 29.18 34.9569 29.3957 35.4735 29.6284C36.166 29.9406 36.9494 30.2926 37.5851 30.9227C38.2209 31.5528 38.5672 32.3418 38.8794 33.0343C39.1121 33.5509 39.3278 34.0334 39.5947 34.2945C39.8558 34.5556 40.344 34.777 40.8549 35.0098C41.5474 35.3163 42.3364 35.6682 42.9665 36.304C43.6023 36.9341 43.9486 37.7232 44.2608 38.4157C44.4935 38.9322 44.7092 39.4204 44.9703 39.6815C45.2315 39.9427 45.7196 40.1584 46.2362 40.3911C46.9287 40.7033 47.7121 41.0553 48.3479 41.6854C48.9836 42.3155 49.3299 43.1045 49.6421 43.797C49.8749 44.3136 50.0906 44.7961 50.3574 45.0572C50.908 45.6135 50.908 46.5104 50.3574 47.0667C50.0792 47.3449 49.7159 47.4811 49.3526 47.4811L49.3413 47.4754Z" fill="#663366"/>
</svg>
