<svg width="150" height="150" viewBox="0 0 150 150" fill="none" xmlns="http://www.w3.org/2000/svg">
<path d="M66.8747 95.3105H74.9017C83.9305 95.3105 91.2497 102.63 91.2497 111.659V136.074C91.2497 138.241 89.493 139.998 87.3262 139.998H13.9235C11.7567 139.998 10 138.241 10 136.074V111.659C10 102.63 17.3192 95.3105 26.348 95.3105H34.375" stroke="#663366" stroke-width="3.80859" stroke-miterlimit="10" stroke-linecap="round" stroke-linejoin="round"/>
<path d="M26.25 115.625V140" stroke="#663366" stroke-width="3.80859" stroke-miterlimit="10" stroke-linecap="round" stroke-linejoin="round"/>
<path d="M75 115.625V140" stroke="#663366" stroke-width="3.80859" stroke-miterlimit="10" stroke-linecap="round" stroke-linejoin="round"/>
<path d="M75 87.1875V95.3123" stroke="#663366" stroke-width="3.80859" stroke-miterlimit="10" stroke-linecap="round" stroke-linejoin="round"/>
<path d="M123.75 87.1875V111.562" stroke="#663366" stroke-width="3.80859" stroke-miterlimit="10" stroke-linecap="round" stroke-linejoin="round"/>
<path d="M102.479 36.1621V39.9496C102.479 41.3582 101.337 42.4999 99.9284 42.4999H98.6914" stroke="#663366" stroke-width="3.80859" stroke-miterlimit="10" stroke-linecap="round" stroke-linejoin="round"/>
<path d="M36.6052 100.324L34.377 95.3105H66.8767L56.775 118.036" stroke="#663366" stroke-width="3.80859" stroke-miterlimit="10" stroke-linecap="round" stroke-linejoin="round"/>
<path d="M44.4769 118.04L40.459 109" stroke="#663366" stroke-width="3.80859" stroke-miterlimit="10" stroke-linecap="round" stroke-linejoin="round"/>
<path d="M54.6879 103.436L56.7726 118.036L51.8185 129.184C51.3581 130.219 49.8884 130.219 49.4283 129.184L44.4766 118.039L46.5613 103.436" stroke="#663366" stroke-width="3.80859" stroke-miterlimit="10" stroke-linecap="round" stroke-linejoin="round"/>
<path d="M54.6873 95.3105H46.5625V103.435H54.6873V95.3105Z" stroke="#663366" stroke-width="3.80859" stroke-miterlimit="10" stroke-linecap="round" stroke-linejoin="round"/>
<path d="M117.591 30.3123C117.591 46.5622 110.764 58.7497 99.3095 58.7497C87.9761 58.7497 81.0283 46.5622 81.0283 30.3123C81.0283 16.8505 89.7746 10 99.3095 10C108.946 10 117.591 16.8505 117.591 30.3123Z" stroke="#663366" stroke-width="3.80859" stroke-miterlimit="10" stroke-linecap="round" stroke-linejoin="round"/>
<path d="M53.7931 64.5996V68.3868C53.7931 69.7954 52.6514 70.9371 51.2428 70.9371H50.0059" stroke="#663366" stroke-width="3.80859" stroke-miterlimit="10" stroke-linecap="round" stroke-linejoin="round"/>
<path d="M68.9062 58.7478C68.9062 74.9977 62.0795 87.1852 50.625 87.1852C39.2915 87.1852 32.3438 74.9977 32.3438 58.7478C32.3438 45.286 41.09 38.4355 50.625 38.4355C60.2616 38.4355 68.9062 45.286 68.9062 58.7478Z" stroke="#663366" stroke-width="3.80859" stroke-miterlimit="10" stroke-linecap="round" stroke-linejoin="round"/>
<path d="M33.9118 29.998C21.7141 41.1411 14.0625 57.177 14.0625 75C14.0625 82.9155 15.5717 90.4785 18.3182 97.4171" stroke="#663366" stroke-width="3.80859" stroke-miterlimit="10" stroke-linecap="round" stroke-linejoin="round"/>
<path d="M86.5466 15.1551C82.8077 14.4378 78.9472 14.0625 74.9991 14.0625C62.4928 14.0625 50.8667 17.8299 41.1934 24.2919" stroke="#663366" stroke-width="3.80859" stroke-miterlimit="10" stroke-linecap="round" stroke-linejoin="round"/>
<path d="M135.881 72.3741C135.201 56.3366 128.323 41.9033 117.58 31.4082" stroke="#663366" stroke-width="3.80859" stroke-miterlimit="10" stroke-linecap="round" stroke-linejoin="round"/>
<path d="M91.249 133.747C104.404 130.116 115.774 122.186 123.753 111.562" stroke="#663366" stroke-width="3.80859" stroke-miterlimit="10" stroke-linecap="round" stroke-linejoin="round"/>
<path d="M58.75 84.748V95.3125" stroke="#663366" stroke-width="3.80859" stroke-miterlimit="10" stroke-linecap="round" stroke-linejoin="round"/>
<path d="M102.495 66.875H75.0976C72.5542 66.875 70.1464 67.4559 68 68.492" stroke="#663366" stroke-width="3.80859" stroke-miterlimit="10" stroke-linecap="round" stroke-linejoin="round"/>
<path d="M91.249 111.562H136.075C138.242 111.562 139.999 109.806 139.999 107.639V83.223C139.999 74.1942 132.68 66.875 123.651 66.875H111.65" stroke="#663366" stroke-width="3.80859" stroke-miterlimit="10" stroke-linecap="round" stroke-linejoin="round"/>
</svg>
