<svg width="150" height="150" viewBox="0 0 150 150" fill="none" xmlns="http://www.w3.org/2000/svg">
<path d="M41.4536 70.7191C40.8195 71.3532 40.8195 72.3362 41.4536 72.9703C41.7707 73.2874 42.1829 73.4459 42.5634 73.4459C42.9439 73.4459 43.3878 73.2874 43.6732 72.9703C45.3854 71.2581 46.8122 67.5484 43.6732 64.3776C41.8024 62.5069 43.1975 60.763 43.6732 60.2557C44.2756 59.6215 44.2756 58.6386 43.6732 58.0362C43.039 57.402 42.0561 57.402 41.4219 58.0362C39.7097 59.7484 38.2829 63.4581 41.4219 66.6288C43.3244 68.4679 41.9293 70.2118 41.4536 70.7191Z" fill="#663366"/>
<path d="M53.7881 70.7191C53.154 71.3532 53.154 72.3362 53.7881 72.9703C54.1052 73.2874 54.5174 73.4459 54.8979 73.4459C55.2784 73.4459 55.7223 73.2874 56.0076 72.9703C57.7198 71.2581 59.1467 67.5484 56.0076 64.3776C54.1369 62.5069 55.532 60.763 56.0076 60.2557C56.6101 59.6215 56.6101 58.6386 56.0076 58.0362C55.3735 57.402 54.3906 57.402 53.7564 58.0362C52.0442 59.7484 50.6174 63.4581 53.7564 66.6288C55.6588 68.4679 54.2637 70.2118 53.7881 70.7191Z" fill="#663366"/>
<path d="M66.1216 70.7191C65.4875 71.3532 65.4875 72.3362 66.1216 72.9703C66.4387 73.2874 66.8509 73.4459 67.2314 73.4459C67.6119 73.4459 68.0558 73.2874 68.3411 72.9703C70.0533 71.2581 71.4801 67.5484 68.3411 64.3776C66.4704 62.5069 67.8655 60.763 68.3411 60.2557C68.9436 59.6215 68.9436 58.6386 68.3411 58.0362C67.707 57.402 66.7241 57.402 66.0899 58.0362C64.3777 59.7484 62.9509 63.4581 66.0899 66.6288C67.9923 68.4679 66.5972 70.2118 66.1216 70.7191Z" fill="#663366"/>
<path d="M138.415 82.9268H130.488V43.261C132.39 41.8024 133.659 39.5512 133.659 36.9512V24.2683C133.659 24.2049 133.627 24.1415 133.627 24.078C133.627 24.0146 133.627 23.9512 133.627 23.8878L130.456 11.2049C130.266 10.5073 129.632 10 128.902 10H21.0976C20.3683 10 19.7341 10.5073 19.5439 11.2049L16.3732 23.8878C16.3415 23.9512 16.3732 24.0146 16.3732 24.078C16.3732 24.1415 16.3415 24.2049 16.3415 24.2683V36.9512C16.3415 39.5195 17.6098 41.8024 19.5122 43.261V82.9268H11.5854C10.6976 82.9268 10 83.6244 10 84.5122V138.415C10 139.302 10.6976 140 11.5854 140H43.2927H106.707H138.415C139.302 140 140 139.302 140 138.415V84.5122C140 83.6244 139.302 82.9268 138.415 82.9268ZM130.488 25.8537V36.9512C130.488 39.5829 128.363 41.7073 125.732 41.7073C123.1 41.7073 120.976 39.5829 120.976 36.9512V25.8537H130.488ZM124.146 76.5854V73.4146H127.317V76.5854H124.146ZM127.317 79.7561V82.9268H124.146V79.7561H127.317ZM124.146 70.2439V67.0732H127.317V70.2439H124.146ZM124.146 63.9024V60.7317H127.317V63.9024H124.146ZM124.146 57.561V54.3902H127.317V57.561H124.146ZM124.146 51.2195V44.7195C124.654 44.8146 125.193 44.878 125.732 44.878C126.271 44.878 126.81 44.8146 127.317 44.7195V51.2195H124.146ZM127.666 13.1707L130.044 22.6829H120.627L118.249 13.1707H127.666ZM114.983 13.1707L117.361 22.6829H107.944L105.566 13.1707H114.983ZM117.805 25.8537V36.9512C117.805 39.5829 115.68 41.7073 113.049 41.7073C110.417 41.7073 108.293 39.5829 108.293 36.9512V25.8537H117.805ZM102.3 13.1707L104.678 22.6829H95.261L92.8829 13.1707H102.3ZM105.122 25.8537V36.9512C105.122 39.5829 102.998 41.7073 100.366 41.7073C97.7341 41.7073 95.6098 39.5829 95.6098 36.9512V25.8537H105.122ZM82.9268 13.1707H89.6171L91.9951 22.6829H82.9268V13.1707ZM82.9268 25.8537H92.439V36.9512C92.439 39.5829 90.3146 41.7073 87.6829 41.7073C85.0512 41.7073 82.9268 39.5829 82.9268 36.9512V25.8537ZM70.2439 13.1707H79.7561V22.6829H70.2439V13.1707ZM70.2439 25.8537H79.7561V36.9512C79.7561 39.5829 77.6317 41.7073 75 41.7073C72.3683 41.7073 70.2439 39.5829 70.2439 36.9512V25.8537ZM60.3829 13.1707H67.0732V22.6829H58.0049L60.3829 13.1707ZM57.561 25.8537H67.0732V36.9512C67.0732 39.5829 64.9488 41.7073 62.3171 41.7073C59.6854 41.7073 57.561 39.5829 57.561 36.9512V25.8537ZM47.7 13.1707H57.1171L54.739 22.6829H45.322L47.7 13.1707ZM44.878 25.8537H54.3902V36.9512C54.3902 39.5829 52.2659 41.7073 49.6341 41.7073C47.0024 41.7073 44.878 39.5829 44.878 36.9512V25.8537ZM35.0171 13.1707H44.4341L42.0561 22.6829H32.639L35.0171 13.1707ZM32.1951 25.8537H41.7073V36.9512C41.7073 39.5829 39.5829 41.7073 36.9512 41.7073C34.3195 41.7073 32.1951 39.5829 32.1951 36.9512V25.8537ZM36.9512 44.878C39.5512 44.878 41.8341 43.6098 43.2927 41.6439C44.7512 43.578 47.0341 44.878 49.6341 44.878C52.2341 44.878 54.5171 43.6098 55.9756 41.6439C57.4341 43.578 59.7171 44.878 62.3171 44.878C64.9171 44.878 67.2 43.6098 68.6585 41.6439C70.1171 43.578 72.4 44.878 75 44.878C77.6 44.878 79.8829 43.6098 81.3415 41.6439C82.8 43.578 85.0829 44.878 87.6829 44.878C90.2829 44.878 92.5659 43.6098 94.0244 41.6439C95.4829 43.578 97.7659 44.878 100.366 44.878C102.966 44.878 105.249 43.6098 106.707 41.6439C108.166 43.578 110.449 44.878 113.049 44.878C115.649 44.878 117.932 43.6098 119.39 41.6439C119.834 42.2463 120.373 42.7854 120.976 43.2293V70.2122H117.805V62.3171C117.805 60.2561 116.473 58.5122 114.634 57.8463V55.9756C114.634 55.0878 113.937 54.3902 113.049 54.3902C112.161 54.3902 111.463 55.0878 111.463 55.9756V57.8463C109.624 58.5122 108.293 60.2561 108.293 62.3171V70.2439H105.122V62.3171C105.122 60.2561 103.79 58.5122 101.951 57.8463V55.9756C101.951 55.0878 101.254 54.3902 100.366 54.3902C99.4781 54.3902 98.7805 55.0878 98.7805 55.9756V57.8463C96.9415 58.5122 95.6098 60.2561 95.6098 62.3171V70.2439H90.8537C89.9659 70.2439 89.2683 70.9415 89.2683 71.8293V82.9268H76.5854V78.1707C76.5854 77.2829 75.8878 76.5854 75 76.5854H33.7805C32.8927 76.5854 32.1951 77.2829 32.1951 78.1707V82.9268H29.0244V43.261C29.6268 42.8171 30.1659 42.278 30.6098 41.6756C32.0683 43.6098 34.3512 44.878 36.9512 44.878ZM101.951 67.0732V70.2439H98.7805V67.0732H101.951ZM98.7805 63.9024V62.3171C98.7805 61.4293 99.4781 60.7317 100.366 60.7317C101.254 60.7317 101.951 61.4293 101.951 62.3171V63.9024H98.7805ZM103.537 73.4146H109.878H116.22H120.976V82.9268H92.439V73.4146H97.1951H103.537ZM114.634 67.0732V70.2439H111.463V67.0732H114.634ZM111.463 63.9024V62.3171C111.463 61.4293 112.161 60.7317 113.049 60.7317C113.937 60.7317 114.634 61.4293 114.634 62.3171V63.9024H111.463ZM73.4146 79.7561V82.9268H35.3659V79.7561H73.4146ZM22.3341 13.1707H31.7512L29.3732 22.6829H19.9561L22.3341 13.1707ZM19.5122 25.8537H29.0244V36.9512C29.0244 39.5829 26.9 41.7073 24.2683 41.7073C21.6366 41.7073 19.5122 39.5829 19.5122 36.9512V25.8537ZM22.6829 76.5854V73.4146H25.8537V76.5854H22.6829ZM25.8537 79.7561V82.9268H22.6829V79.7561H25.8537ZM22.6829 70.2439V67.0732H25.8537V70.2439H22.6829ZM22.6829 63.9024V60.7317H25.8537V63.9024H22.6829ZM22.6829 57.561V54.3902H25.8537V57.561H22.6829ZM22.6829 51.2195V44.7195C23.1902 44.8146 23.7293 44.878 24.2683 44.878C24.8073 44.878 25.3463 44.8146 25.8537 44.7195V51.2195H22.6829ZM105.122 136.829H44.878V105.122H105.122V136.829ZM136.829 92.439H122.561C121.673 92.439 120.976 93.1366 120.976 94.0244C120.976 94.9122 121.673 95.6098 122.561 95.6098H136.829V101.951H125.732C124.844 101.951 124.146 102.649 124.146 103.537C124.146 104.424 124.844 105.122 125.732 105.122H136.829V111.463H125.732C124.844 111.463 124.146 112.161 124.146 113.049C124.146 113.937 124.844 114.634 125.732 114.634H136.829V120.976H119.39C118.502 120.976 117.805 121.673 117.805 122.561C117.805 123.449 118.502 124.146 119.39 124.146H136.829V130.488H122.561C121.673 130.488 120.976 131.185 120.976 132.073C120.976 132.961 121.673 133.659 122.561 133.659H136.829V136.829H108.293V103.537C108.293 102.649 107.595 101.951 106.707 101.951H43.2927C42.4049 101.951 41.7073 102.649 41.7073 103.537V136.829H13.1707V133.659H33.7805C34.6683 133.659 35.3659 132.961 35.3659 132.073C35.3659 131.185 34.6683 130.488 33.7805 130.488H13.1707V124.146H21.0976C21.9854 124.146 22.6829 123.449 22.6829 122.561C22.6829 121.673 21.9854 120.976 21.0976 120.976H13.1707V114.634H24.2683C25.1561 114.634 25.8537 113.937 25.8537 113.049C25.8537 112.161 25.1561 111.463 24.2683 111.463H13.1707V105.122H30.6098C31.4976 105.122 32.1951 104.424 32.1951 103.537C32.1951 102.649 31.4976 101.951 30.6098 101.951H13.1707V95.6098H24.2683C25.1561 95.6098 25.8537 94.9122 25.8537 94.0244C25.8537 93.1366 25.1561 92.439 24.2683 92.439H13.1707V86.0976H21.0976H27.439H33.7805H75H90.8537H122.561H128.902H136.829V92.439Z" fill="#663366"/>
<path d="M95.6099 78.1713C95.6099 79.0591 96.3074 79.7567 97.1952 79.7567H116.22C117.107 79.7567 117.805 79.0591 117.805 78.1713C117.805 77.2835 117.107 76.5859 116.22 76.5859H97.1952C96.3074 76.5859 95.6099 77.2835 95.6099 78.1713Z" fill="#663366"/>
</svg>
