<svg width="150" height="150" viewBox="0 0 150 150" fill="none" xmlns="http://www.w3.org/2000/svg">
<path d="M38.9725 120.121C38.9086 120.743 39.112 121.347 39.5306 121.795C39.9317 122.243 40.5246 122.493 41.1292 122.493H62.382C62.9866 122.493 63.5621 122.231 63.9806 121.795C64.3992 121.347 64.6026 120.725 64.5387 120.121C64.0446 114.941 60.5682 110.756 55.8886 109.192C57.0803 108.076 57.8592 106.494 57.8592 104.745C57.8592 101.379 55.1329 98.6523 51.7669 98.6523C48.4009 98.6523 45.6746 101.379 45.6746 104.745C45.6746 106.512 46.4361 108.093 47.6452 109.192C42.9656 110.773 39.4892 114.941 38.9951 120.121H38.9725ZM51.7441 100.978C53.8194 100.978 55.511 102.67 55.511 104.745C55.511 106.82 53.8194 108.512 51.7441 108.512C49.6688 108.512 47.9772 106.82 47.9772 104.745C47.9772 102.67 49.6688 100.978 51.7441 100.978ZM51.7441 110.837C57.1678 110.837 61.6674 114.901 62.237 120.185H41.2923C41.8794 114.854 46.3439 110.837 51.7386 110.837H51.7441Z" fill="#663366"/>
<path d="M85.4608 120.121C85.3968 120.743 85.6003 121.347 86.0188 121.795C86.42 122.243 87.0129 122.493 87.6175 122.493H108.87C109.475 122.493 110.05 122.231 110.469 121.795C110.887 121.347 111.091 120.725 111.027 120.121C110.533 114.941 107.056 110.756 102.377 109.192C103.586 108.076 104.348 106.494 104.348 104.745C104.348 101.379 101.621 98.6523 98.2552 98.6523C94.8894 98.6523 92.1628 101.379 92.1628 104.745C92.1628 106.512 92.9244 108.093 94.1335 109.192C89.4539 110.773 85.9775 114.941 85.4834 120.121H85.4608ZM98.25 100.978C100.325 100.978 102.017 102.67 102.017 104.745C102.017 106.82 100.325 108.512 98.25 108.512C96.1747 108.512 94.4831 106.82 94.4831 104.745C94.4831 102.67 96.1747 100.978 98.25 100.978ZM98.25 110.837C103.691 110.837 108.173 114.901 108.743 120.185H87.7981C88.3853 114.854 92.8498 110.837 98.2445 110.837H98.25Z" fill="#663366"/>
<path d="M62.2264 130.103C62.1625 130.725 62.3659 131.33 62.7845 131.777C63.1856 132.225 63.7785 132.475 64.3831 132.475H85.6359C86.2405 132.475 86.816 132.213 87.2345 131.777C87.6531 131.33 87.8565 130.708 87.7926 130.103C87.2985 124.924 83.8221 120.738 79.1425 119.174C80.3342 118.058 81.1131 116.477 81.1131 114.727C81.1131 111.361 78.3868 108.635 75.0208 108.635C71.6548 108.635 68.9285 111.361 68.9285 114.727C68.9285 116.494 69.69 118.076 70.8991 119.174C66.2195 120.755 62.7431 124.924 62.249 130.103H62.2264ZM74.998 110.943C77.0733 110.943 78.7649 112.634 78.7649 114.71C78.7649 116.785 77.0733 118.477 74.998 118.477C72.9228 118.477 71.2311 116.785 71.2311 114.71C71.2311 112.634 72.9228 110.943 74.998 110.943ZM74.998 120.819C80.4217 120.819 84.9213 124.883 85.491 130.167H64.5462C65.1333 124.836 69.5978 120.819 74.9925 120.819H74.998Z" fill="#663366"/>
<path d="M133.718 131.777C134.136 131.33 134.34 130.708 134.276 130.103C133.782 124.924 130.305 120.738 125.626 119.174C126.817 118.058 127.596 116.477 127.596 114.727C127.596 111.361 124.87 108.635 121.504 108.635C118.138 108.635 115.412 111.361 115.412 114.727C115.412 116.494 116.173 118.076 117.382 119.174C112.703 120.755 109.226 124.924 108.732 130.103C108.668 130.725 108.872 131.33 109.29 131.777C109.691 132.225 110.284 132.475 110.889 132.475H132.142C132.746 132.475 133.322 132.213 133.74 131.777H133.718ZM121.487 110.943C123.562 110.943 125.254 112.634 125.254 114.71C125.254 116.785 123.562 118.477 121.487 118.477C119.411 118.477 117.72 116.785 117.72 114.71C117.72 112.634 119.411 110.943 121.487 110.943ZM111.058 130.167C111.645 124.837 116.109 120.82 121.504 120.82C126.899 120.82 131.427 124.883 131.997 130.167H111.052H111.058Z" fill="#663366"/>
<path d="M15.7205 130.103C15.6566 130.725 15.8601 131.33 16.2786 131.777C16.6797 132.225 17.2727 132.475 17.8772 132.475H39.13C39.7346 132.475 40.3101 132.213 40.7287 131.777C41.1472 131.33 41.3507 130.708 41.2867 130.103C40.7926 124.924 37.3162 120.738 32.6366 119.174C33.8458 118.058 34.6073 116.477 34.6073 114.727C34.6073 111.361 31.8809 108.635 28.5149 108.635C25.149 108.635 22.4226 111.361 22.4226 114.727C22.4226 116.494 23.1841 118.076 24.3933 119.174C19.7136 120.755 16.2372 124.924 15.7432 130.103H15.7205ZM28.5097 110.943C30.585 110.943 32.2766 112.634 32.2766 114.71C32.2766 116.785 30.585 118.477 28.5097 118.477C26.4345 118.477 24.7428 116.785 24.7428 114.71C24.7428 112.634 26.4345 110.943 28.5097 110.943ZM28.5097 120.819C33.9334 120.819 38.433 124.883 39.0026 130.167H18.0579C18.645 124.836 23.1095 120.819 28.5042 120.819H28.5097Z" fill="#663366"/>
<path d="M11.162 124.742C11.7956 124.742 12.3246 124.213 12.3246 123.579V85.5845H137.675V123.579C137.675 124.213 138.204 124.742 138.837 124.742C139.471 124.742 140 124.213 140 123.579V84.4222C140 84.3466 139.971 84.2653 139.953 84.1897V72.1446C139.953 69.0286 137.489 66.4999 134.402 66.3605V22.3488C134.402 20.3781 132.792 18.7679 130.821 18.7679H107.644C105.673 18.7679 104.08 20.3781 104.08 22.3488V35.696H92.611C91.1228 35.696 89.8962 36.9226 89.8962 38.4108V66.3143H85.2166C84.676 61.5707 80.909 57.8037 76.1654 57.2632V29.3299C77.8222 28.8358 79.0314 27.301 79.0314 25.4874V22.0285C79.0314 19.7962 77.2176 18 75.0029 18C72.788 18 70.9743 19.8138 70.9743 22.0285V25.4874C70.9743 27.3012 72.1835 28.8358 73.8403 29.3299V57.2632C69.0967 57.8038 65.3296 61.5707 64.7891 66.3143H60.1095V38.4108C60.1095 36.9226 58.8829 35.696 57.3948 35.696H45.9369V22.3488C45.9369 20.3781 44.3267 18.7679 42.356 18.7679H19.179C17.2083 18.7679 15.5981 20.3781 15.5981 22.3488V66.3426C12.4997 66.453 10 69.0109 10 72.1383V123.573C10 124.207 10.529 124.736 11.1626 124.736L11.162 124.742ZM106.406 22.3473C106.406 21.6497 106.964 21.0916 107.644 21.0916H130.821C131.519 21.0916 132.077 21.6497 132.077 22.3473V66.3128H110.218V38.4093C110.218 36.9211 108.992 35.6946 107.504 35.6946H106.405L106.406 22.3473ZM92.2218 38.4093C92.2218 38.1942 92.3904 38.0198 92.6113 38.0198H107.505C107.72 38.0198 107.895 38.1884 107.895 38.4093V66.3128H92.2046V38.4093H92.2218ZM73.2935 25.4981V22.0392C73.2935 21.0917 74.0667 20.336 74.9968 20.336C75.9268 20.336 76.7 21.1092 76.7 22.0392V25.4981C76.7 26.4456 75.9268 27.2013 74.9968 27.2013C74.0667 27.2013 73.2935 26.4282 73.2935 25.4981ZM74.9968 59.5225C78.9963 59.5225 82.2981 62.4815 82.8737 66.3124H67.1257C67.6838 62.4699 71.0032 59.5225 75.0027 59.5225H74.9968ZM44.7687 38.0197H57.3893C57.6044 38.0197 57.7788 38.1883 57.7788 38.4092V66.3127H42.0888V38.4092C42.0888 38.1941 42.2574 38.0197 42.4783 38.0197H44.7687ZM17.9173 22.3476C17.9173 21.65 18.4754 21.0919 19.173 21.0919H42.35C43.0476 21.0919 43.6057 21.65 43.6057 22.3476V35.6949H42.4895C41.0013 35.6949 39.7748 36.9214 39.7748 38.4096V66.3131H17.9163L17.9173 22.3476ZM12.325 72.1439C12.325 70.2196 13.8888 68.6558 15.813 68.6558H16.4001C16.5106 68.7023 16.6327 68.7314 16.7548 68.7314C16.8768 68.7314 17.0047 68.7023 17.1094 68.6558H132.862C132.973 68.7023 133.095 68.7314 133.217 68.7314C133.339 68.7314 133.467 68.7023 133.571 68.6558H134.112C136.036 68.6558 137.6 70.2196 137.6 72.1439V83.2588H12.3243L12.325 72.1439Z" fill="#663366"/>
<path d="M49.9494 50.9379C52.6468 50.9379 54.85 48.7347 54.85 46.0373C54.85 43.34 52.6468 41.1367 49.9494 41.1367C47.2521 41.1367 45.0488 43.34 45.0488 46.0373C45.0488 48.7347 47.2521 50.9379 49.9494 50.9379ZM49.9494 43.4506C51.3737 43.4506 52.5247 44.6132 52.5247 46.0259C52.5247 47.4385 51.3621 48.6012 49.9494 48.6012C48.5368 48.6012 47.3741 47.4385 47.3741 46.0259C47.3741 44.6132 48.5368 43.4506 49.9494 43.4506Z" fill="#663366"/>
<path d="M49.9494 63.227C52.6468 63.227 54.85 61.0237 54.85 58.3264C54.85 55.629 52.6468 53.4258 49.9494 53.4258C47.2521 53.4258 45.0488 55.629 45.0488 58.3264C45.0488 61.0237 47.2521 63.227 49.9494 63.227ZM49.9494 55.7396C51.3737 55.7396 52.5247 56.9023 52.5247 58.3149C52.5247 59.7276 51.3621 60.8902 49.9494 60.8902C48.5368 60.8902 47.3741 59.7276 47.3741 58.3149C47.3741 56.9023 48.5368 55.7396 49.9494 55.7396Z" fill="#663366"/>
<path d="M30.7532 27.2031C26.9107 27.2031 23.7773 30.3365 23.7773 34.179C23.7773 38.0215 26.9107 41.1549 30.7532 41.1549C34.5957 41.1549 37.7291 38.0215 37.7291 34.179C37.7291 30.3365 34.5957 27.2031 30.7532 27.2031ZM30.7532 38.847C28.1779 38.847 26.1026 36.7543 26.1026 34.1964C26.1026 31.6385 28.1953 29.5458 30.7532 29.5458C33.3111 29.5458 35.4038 31.6385 35.4038 34.1964C35.4038 36.7543 33.3111 38.847 30.7532 38.847Z" fill="#663366"/>
<path d="M30.7532 46.334C26.9107 46.334 23.7773 49.4674 23.7773 53.3099C23.7773 57.1524 26.9107 60.2857 30.7532 60.2857C34.5957 60.2857 37.7291 57.1524 37.7291 53.3099C37.7291 49.4674 34.5957 46.334 30.7532 46.334ZM30.7532 57.9721C28.1779 57.9721 26.1026 55.8794 26.1026 53.3215C26.1026 50.7636 28.1953 48.6709 30.7532 48.6709C33.3111 48.6709 35.4038 50.7636 35.4038 53.3215C35.4038 55.8794 33.3111 57.9721 30.7532 57.9721Z" fill="#663366"/>
<path d="M119.242 41.1725C123.084 41.1725 126.217 38.0391 126.217 34.1966C126.217 30.3541 123.084 27.2207 119.242 27.2207C115.399 27.2207 112.266 30.3541 112.266 34.1966C112.266 38.0391 115.399 41.1725 119.242 41.1725ZM119.242 29.5286C121.817 29.5286 123.892 31.6213 123.892 34.1792C123.892 36.7371 121.799 38.8298 119.242 38.8298C116.684 38.8298 114.591 36.7371 114.591 34.1792C114.591 31.6213 116.684 29.5286 119.242 29.5286Z" fill="#663366"/>
<path d="M119.242 60.2975C123.084 60.2975 126.217 57.1641 126.217 53.3216C126.217 49.4791 123.084 46.3457 119.242 46.3457C115.399 46.3457 112.266 49.4791 112.266 53.3216C112.266 57.1641 115.399 60.2975 119.242 60.2975ZM119.242 48.6594C121.817 48.6594 123.892 50.7521 123.892 53.31C123.892 55.8679 121.799 57.9606 119.242 57.9606C116.684 57.9606 114.591 55.8679 114.591 53.31C114.591 50.7521 116.684 48.6594 119.242 48.6594Z" fill="#663366"/>
<path d="M100.047 41.125C97.3497 41.125 95.1465 43.3283 95.1465 46.0256C95.1465 48.7229 97.3497 50.9262 100.047 50.9262C102.744 50.9262 104.948 48.7229 104.948 46.0256C104.948 43.3283 102.744 41.125 100.047 41.125ZM100.047 48.6124C98.6228 48.6124 97.4718 47.4497 97.4718 46.0371C97.4718 44.6244 98.6344 43.4618 100.047 43.4618C101.46 43.4618 102.622 44.6244 102.622 46.0371C102.622 47.4497 101.46 48.6124 100.047 48.6124Z" fill="#663366"/>
<path d="M100.047 53.4141C97.3497 53.4141 95.1465 55.6173 95.1465 58.3147C95.1465 61.012 97.3497 63.2153 100.047 63.2153C102.744 63.2153 104.948 61.012 104.948 58.3147C104.948 55.6173 102.744 53.4141 100.047 53.4141ZM100.047 60.9014C98.6228 60.9014 97.4718 59.7388 97.4718 58.3261C97.4718 56.9135 98.6344 55.7508 100.047 55.7508C101.46 55.7508 102.622 56.9135 102.622 58.3261C102.622 59.7387 101.46 60.9014 100.047 60.9014Z" fill="#663366"/>
</svg>
