<svg width="150" height="150" viewBox="0 0 150 150" fill="none" xmlns="http://www.w3.org/2000/svg">
<g clip-path="url(#clip0_259_1795)">
<path d="M36.8472 124.561C33.4038 134.553 29.2133 154.643 29.043 155.483C28.9167 156.1 29.0705 156.739 29.4769 157.23C29.8833 157.722 30.4765 158 31.1081 158L63.5885 157.995C64.7528 157.995 65.6974 157.055 65.6974 155.898V143.077L90.708 150.962C96.557 152.807 102.939 152.654 108.689 150.53L128.191 143.344C130.651 142.438 132.903 140.969 134.715 139.107L155.047 118.194C156.409 116.796 157.112 114.879 156.985 112.936C156.859 110.992 155.904 109.19 154.371 107.988C152.444 106.465 149.912 106.099 147.709 106.896C147.979 105.93 148.215 104.969 148.412 103.975C151.62 87.4245 143.096 73.446 140.383 69.5208V69.5044C138.203 66.3592 136.308 63.842 134.616 61.636C130.047 55.6132 127.74 52.5936 127.74 46.7614C127.74 39.1005 137.033 31.817 137.132 31.7513C137.851 31.2053 138.131 30.2715 137.835 29.4142C137.538 28.5624 136.736 28 135.836 28L74.5992 28.0109C73.6986 28.0109 72.8968 28.5843 72.6001 29.4251C72.3035 30.277 72.6001 31.2161 73.3031 31.7622C73.402 31.8332 82.6945 39.1009 82.6945 46.7724C82.6945 52.6041 80.3878 55.6345 75.8075 61.6567C74.1215 63.8627 72.2212 66.369 70.0409 69.5142C67.4816 73.2163 59.7379 85.9558 61.6325 101.332C44.9312 105.498 40.0385 115.311 36.8582 124.523L36.8472 124.561ZM72.9072 72.8123H137.498C140.42 77.3006 146.961 89.3083 144.259 103.216C143.726 105.984 142.837 108.654 141.628 111.226L125.894 123.539C125.488 123.861 125.037 124.085 124.532 124.211L109.571 128.11C108.11 128.486 106.606 128.377 105.211 127.787C101.806 126.318 96.2422 124.042 91.7112 122.196C94.8032 122.141 98.7246 122.393 103.327 123.386C111.889 125.232 116.206 121.639 117.37 117.653C117.694 116.55 117.776 115.474 117.639 114.508C120.66 111.04 122.532 106.344 122.532 101.157C122.532 90.564 114.745 81.9366 105.166 81.9366C95.5935 81.9366 88.251 90.0998 87.8335 100.306C84.0385 99.6068 79.6668 99.2028 74.8558 99.4813C71.5112 99.6778 68.474 100.027 65.7171 100.502C64.2673 87.7524 70.1436 77.0058 72.8731 72.8122L72.9072 72.8123ZM130.513 32.2032C127.745 35.1791 124.439 39.6511 123.681 44.6747H86.7469C85.989 39.6567 82.6828 35.1845 79.9148 32.2032H130.513ZM86.8191 48.8684H123.616C124.138 54.7929 126.922 58.4732 131.239 64.1735C132.249 65.5168 133.364 66.9856 134.556 68.6074L75.8629 68.6019C77.0437 66.9801 78.1531 65.5114 79.1692 64.1844C83.5133 58.4838 86.2978 54.7925 86.8195 48.8625L86.8191 48.8684ZM92.0476 101.162C92.0476 92.8733 97.9515 86.1352 105.196 86.1352C112.434 86.1352 118.343 92.8733 118.343 101.162C118.343 104.908 117.135 108.321 115.153 110.963C112.846 110.084 103.724 105.918 102.669 105.443C101.939 105.023 98.0725 102.871 92.0532 101.266V101.184L92.0476 101.162ZM75.1325 103.652C89.912 102.811 100.495 109.019 100.593 109.074C100.664 109.118 100.736 109.156 100.802 109.183C101.208 109.364 110.517 113.628 113.428 114.775C113.582 115.266 113.582 116.495 112.78 117.641C111.39 119.585 108.364 120.17 104.245 119.291C91.3225 116.511 83.2389 119.039 82.9028 119.149C82.0571 119.416 81.4804 120.181 81.4419 121.065C81.4144 121.944 81.9362 122.758 82.7655 123.08C82.9083 123.135 97.1217 128.868 103.575 131.636C105.794 132.587 108.326 132.783 110.676 132.166L125.637 128.267C126.708 127.989 127.675 127.514 128.548 126.826L148.401 111.28C149.401 110.5 150.79 110.5 151.79 111.28C152.394 111.755 152.762 112.454 152.817 113.224C152.872 113.994 152.592 114.731 152.059 115.277L131.728 136.191C130.349 137.616 128.636 138.719 126.763 139.407L107.261 146.593C102.384 148.395 96.9688 148.52 92.0202 146.959L64.2526 138.206C63.6045 137.998 62.918 138.124 62.3689 138.511C61.8197 138.904 61.5121 139.532 61.5121 140.204V153.789H33.7121C34.9643 147.991 38.1827 133.603 40.8408 125.904C44.6083 114.988 50.0619 105.078 75.1433 103.636L75.1325 103.652Z" fill="#663366"/>
</g>
<defs>
<clipPath id="clip0_259_1795">
<rect width="150" height="150" fill="white"/>
</clipPath>
</defs>
</svg>
