<svg width="150" height="150" viewBox="0 0 150 150" fill="none" xmlns="http://www.w3.org/2000/svg">
<path d="M68.0319 74.6087C68.374 75.5228 69.24 76.0894 70.1648 76.0894C70.4268 76.0894 70.6994 76.0413 70.9613 75.9451C72.1374 75.5068 72.7361 74.1971 72.2977 73.0157C71.25 70.2199 69.5661 67.606 67.4279 65.4677C65.3911 63.4097 63.007 61.822 60.4091 60.7422C63.718 58.2245 65.8937 54.2847 65.8937 49.8158C65.8937 42.2143 59.7141 36.0352 52.1131 36.0352C44.5116 36.0352 38.3379 42.2147 38.3379 49.8158C38.3379 54.3168 40.5404 58.2832 43.8867 60.7956C38.6747 62.9499 34.3609 67.0607 32.0729 72.5132C31.9553 72.7965 31.8965 73.1333 31.8965 73.4327C31.8965 74.6889 32.9122 75.6885 34.1684 75.6885C35.1413 75.6885 35.9699 75.0684 36.296 74.2025C39.017 67.793 45.2232 63.6556 52.1293 63.6556C56.7159 63.6556 60.9978 65.4357 64.2051 68.6752C65.8943 70.3644 67.2146 72.4171 68.0379 74.6088L68.0319 74.6087ZM52.1124 40.5842C57.2068 40.5842 61.3496 44.727 61.3496 49.8215C61.3496 54.9159 57.2068 59.0534 52.1124 59.0534C47.0179 59.0534 42.8805 54.9106 42.8805 49.8215C42.8805 44.727 47.0233 40.5842 52.1124 40.5842Z" fill="#663366"/>
<path d="M113.727 74.2614C114.202 75.4214 115.549 75.9827 116.693 75.4962C117.853 75.0205 118.409 73.6894 117.928 72.5294C116.859 69.9368 115.223 67.4938 113.192 65.4571C111.145 63.4097 108.761 61.8221 106.163 60.7476C109.477 58.2299 111.653 54.2847 111.653 49.8158C111.653 42.2143 105.473 36.0352 97.8774 36.0352C90.2818 36.0352 84.0968 42.2147 84.0968 49.8158C84.0968 54.3275 86.3046 58.2992 89.6616 60.8118C84.2732 63.0516 79.8416 67.3762 77.7034 73.0052C77.2544 74.1759 77.8424 75.4909 79.0238 75.9346C79.2857 76.0361 79.5583 76.0843 79.8309 76.0843C80.7504 76.0843 81.6111 75.5283 81.9532 74.6142C84.4496 68.0551 90.843 63.6504 97.8672 63.6504C102.438 63.6504 106.736 65.4358 109.975 68.67C111.584 70.2844 112.878 72.2141 113.722 74.2561L113.727 74.2614ZM97.8768 40.5845C102.971 40.5845 107.109 44.7273 107.109 49.8217C107.109 54.9162 102.966 59.0536 97.8768 59.0536C92.7824 59.0536 88.6396 54.9108 88.6396 49.8217C88.6396 44.7273 92.7824 40.5845 97.8768 40.5845Z" fill="#663366"/>
<path d="M46.9588 109.874C44.9114 107.822 42.5166 106.234 39.9187 105.16C43.2437 102.642 45.43 98.6913 45.43 94.2064C45.43 86.6049 39.2504 80.4258 31.6548 80.4258C24.0592 80.4258 17.8742 86.6053 17.8742 94.2064C17.8742 98.6913 20.0607 102.647 23.3909 105.165C15.5381 108.415 10 116.145 10 125.157V130.727C10 131.983 11.0157 132.999 12.272 132.999H46.1473C47.4035 132.999 48.4193 131.983 48.4193 130.727C48.4193 129.476 47.4036 128.455 46.1473 128.455H14.5382V125.157C14.5382 115.738 22.2038 108.067 31.6277 108.067C36.2037 108.067 40.5068 109.853 43.741 113.087C44.7246 114.076 45.5264 115.075 46.1305 116.07C46.772 117.134 48.1672 117.492 49.2523 116.834C50.3267 116.182 50.6634 114.787 50.0167 113.712C49.2309 112.408 48.1992 111.12 46.9589 109.88L46.9588 109.874ZM31.6483 84.9694C36.7427 84.9694 40.8802 89.1122 40.8802 94.2067C40.8802 99.3011 36.7374 103.439 31.6483 103.439C26.5538 103.439 22.411 99.2958 22.411 94.2067C22.411 89.1122 26.5538 84.9694 31.6483 84.9694Z" fill="#663366"/>
<path d="M133.654 109.874C131.601 107.822 129.212 106.234 126.609 105.16C129.934 102.642 132.12 98.6913 132.12 94.2064C132.12 86.6049 125.941 80.4258 118.339 80.4258C110.738 80.4258 104.564 86.6053 104.564 94.2064C104.564 98.6913 106.751 102.642 110.076 105.16C105.975 106.849 102.437 109.773 99.9937 113.686C99.3255 114.75 99.6516 116.156 100.715 116.818C101.784 117.487 103.185 117.161 103.848 116.097C106.991 111.072 112.406 108.073 118.329 108.073C122.905 108.073 127.208 109.858 130.448 113.103C133.677 116.3 135.457 120.582 135.457 125.163V128.461H103.853C102.597 128.461 101.581 129.477 101.581 130.733C101.581 131.984 102.597 133.005 103.853 133.005H137.728C138.985 133.005 140 131.99 140 130.733V125.163C140 119.358 137.745 113.927 133.655 109.88L133.654 109.874ZM118.34 84.9694C123.434 84.9694 127.577 89.1122 127.577 94.2067C127.577 99.3011 123.434 103.439 118.34 103.439C113.245 103.439 109.108 99.2958 109.108 94.2067C109.108 89.1122 113.25 84.9694 118.34 84.9694Z" fill="#663366"/>
<path d="M83.2671 105.154C86.5921 102.636 88.773 98.686 88.773 94.2064C88.773 86.6049 82.5935 80.4258 74.9979 80.4258C67.4023 80.4258 61.2173 86.6053 61.2173 94.2064C61.2173 98.686 63.3984 102.636 66.7233 105.154C58.8759 108.41 53.3379 116.15 53.3379 125.157V130.706C53.3379 131.962 54.3536 132.978 55.6098 132.978H94.3761C95.6324 132.978 96.6481 131.962 96.6481 130.706V125.157C96.6481 116.145 91.11 108.41 83.2627 105.154H83.2671ZM74.9974 84.9691C80.0918 84.9691 84.2293 89.1119 84.2293 94.2064C84.2293 99.3008 80.0865 103.438 74.9974 103.438C69.9029 103.438 65.7601 99.2955 65.7601 94.2064C65.7601 89.1119 69.9029 84.9691 74.9974 84.9691ZM92.1089 128.44H57.8859V125.163C57.8859 115.728 65.5623 108.052 75.0029 108.052C84.4378 108.052 92.1143 115.728 92.1143 125.163V128.44H92.1089Z" fill="#663366"/>
<path d="M64.0993 32.0462C64.5429 32.661 65.2325 32.9817 65.9436 32.9817C66.4086 32.9817 66.8737 32.8427 67.2746 32.5487C68.2903 31.811 68.5202 30.3891 67.7771 29.3734L62.7844 22.5043C62.0467 21.478 60.6141 21.2642 59.6091 22.0019C58.5934 22.7395 58.3635 24.1615 59.1066 25.1771L64.0993 32.0462Z" fill="#663366"/>
<path d="M74.9927 30.0381C76.2489 30.0381 77.2646 29.0224 77.2646 27.7661V19.272C77.2646 18.0157 76.2489 17 74.9927 17C73.7418 17 72.7207 18.0157 72.7207 19.272V27.7661C72.7207 29.0223 73.7364 30.0381 74.9927 30.0381Z" fill="#663366"/>
<path d="M84.0471 32.9817C84.7527 32.9817 85.4476 32.661 85.8914 32.0462L90.8842 25.1771C91.6219 24.1615 91.3974 22.7396 90.3817 22.0019C89.366 21.2642 87.9441 21.478 87.2064 22.5043L82.2136 29.3734C81.4759 30.3891 81.7005 31.811 82.7161 32.5487C83.1224 32.8427 83.5874 32.9817 84.0471 32.9817Z" fill="#663366"/>
</svg>
