<svg width="150" height="150" viewBox="0 0 150 150" fill="none" xmlns="http://www.w3.org/2000/svg">
<path d="M63.6988 26.3855C69.1366 23.2857 69.093 24.8609 74.1972 25.2872C75.756 25.4172 78.0907 25.0126 79.6856 24.8536L129.306 19.7525C131.858 19.4924 134.425 19.1528 136.991 19.1022C139.137 18.3147 143.074 22.3104 135.201 23.1196C128.407 23.806 84.0859 28.2786 77.3799 29.0661C76.7201 30.3161 76.3069 30.8797 74.8061 30.5762C72.5222 32.2308 71.0794 34.2251 70.34 36.9418C70.3762 36.9418 137.695 36.9346 137.732 36.9346C140.038 37.0646 142.162 40.9447 135.666 40.9447H69.6378C70.5586 53.1846 80.3682 49.7164 76.1631 70.6696H119.36C123.993 70.6696 125.153 69.528 124.957 74.9038C124.297 93.2997 114.988 108.935 98.6376 118.046C96.5206 119.21 94.1351 119.874 92.0687 121.074C92.163 130.886 88.6465 130.944 79.4097 130.936H56.5929C54.3381 130.936 49.7269 131.211 47.7112 130.619C43.6003 129.419 41.6934 125.004 42.8607 121.074C25.3077 115.712 11.4298 96.5872 10.2568 78.7393C9.74201 70.8781 9.29248 70.6757 16.405 70.6757H41.3749C43.1875 63.4069 44.3112 61.6367 39.8451 55.654C36.2055 50.7769 35.2194 46.9547 35.2847 40.9503C33.5591 40.813 30.0645 41.4416 28.745 40.3723C27.4037 39.2813 28.2085 37.3954 29.7093 37.0485C31.1158 36.7306 34.3205 36.9402 35.8937 36.9474C36.249 35.8491 36.6913 34.8014 37.1698 33.7537C35.698 34.021 30.6807 34.8086 29.4481 34.3389C27.882 33.7392 27.7878 31.6077 29.4046 30.9431C30.2166 30.6107 31.2824 30.589 32.1598 30.4951L36.9667 29.9387C41.6722 29.3896 40.5556 28.4142 44.0719 27.2074C46.5878 26.3476 49.5823 26.5138 51.9747 27.6771C55.774 25.4155 59.4501 25.1643 63.6988 26.3855ZM69.1076 28.3941C64.54 29.1238 61.8574 32.8448 60.545 36.949C60.5812 36.949 65.5766 36.9562 66.2726 36.949L66.3379 36.7972C68.0127 33.0327 67.7372 31.884 71.1956 28.394C70.4996 28.3723 69.7964 28.329 69.1076 28.3941ZM57.5942 29.5501C54.9116 30.0342 54.8535 30.7351 53.07 32.1586C50.8297 33.9577 50.5685 33.7265 49.4593 36.949H56.6516C57.2897 34.1311 58.37 31.8767 60.0739 29.5501C59.2473 29.4779 58.4279 29.4273 57.5942 29.5501ZM46.6244 30.5834C43.2457 31.2481 40.9908 33.8131 39.9322 36.9489H45.515C45.979 35.4533 46.5228 33.9864 47.313 32.6282C48.1323 31.2192 49.9231 30.0053 46.6244 30.5834ZM39.0623 40.9519C38.6853 52.1369 45.6818 53.7771 46.5882 60.7642C47.0449 64.2612 45.6746 67.3393 45.5151 70.6775C46.2764 70.6775 50.0031 70.8581 50.409 70.5547L50.4815 70.3668C56.4704 51.5294 45.2324 55.0778 44.9859 40.9527C43.2676 40.9455 40.6647 40.7785 39.0623 40.9519ZM48.7488 40.9519C48.9663 49.702 55.5497 52.0574 56.0427 59.3767C56.3037 63.2422 55.3394 66.9851 54.3533 70.6773C57.1881 70.7134 60.0231 70.6845 62.8579 70.6773L63.0464 70.6484C63.3002 70.0415 63.3074 69.0082 63.4162 68.3291C64.656 60.2654 64.8662 60.8797 60.5088 54.673C57.7754 50.7784 56.1078 45.7134 56.3326 40.9446L48.7488 40.9519ZM60.0884 40.9519C59.9071 51.2626 67.259 54.3984 67.9041 61.1692C68.2014 64.3195 67.3821 67.5999 66.8166 70.6779C68.5784 70.6779 70.3329 70.7284 72.1021 70.7501L72.1456 70.8513C72.1891 70.779 72.2254 70.7357 72.2834 70.6779C73.574 64.7603 74.9153 59.5219 71.3844 54.0233C68.4189 49.4062 65.9756 47.2529 65.9466 40.9525C63.989 40.9163 62.0385 40.9447 60.0884 40.9519ZM13.961 74.4354C13.6493 74.8761 14.1205 80.1145 14.2075 80.9166L22.6325 80.9093C24.0535 80.9093 25.6631 80.7576 27.0551 80.9888C28.5125 81.2345 29.2592 83.0986 28.0557 84.1391C26.7434 85.2662 23.8578 84.7315 22.2771 84.7243H15.0486C18.0431 100.837 32.5799 115.354 48.5806 118.75C51.4518 119.357 54.3374 119.299 57.252 119.299H74.0655C88.1021 119.306 97.5412 117.153 107.969 106.43C113.834 100.397 117.844 92.8611 119.881 84.7259H42.0555C40.7505 84.7259 36.7338 85.1884 35.784 84.2346C34.4355 82.8835 35.407 81.0193 37.1471 80.9109C37.1834 80.9109 120.541 80.9253 120.591 80.9253C120.881 78.7576 121.091 76.6407 121.055 74.4441L13.961 74.4354ZM88.2265 122.175L88.038 122.189C86.153 122.312 84.3259 122.796 82.4336 122.919C77.1046 123.266 71.7177 123.099 66.3742 123.099C53.1062 123.034 52.5914 123.396 46.3713 122.182C46.19 123.634 46.1682 124.638 47.0673 125.874C47.9011 126.719 48.8364 127.297 50.0689 127.29L80.7964 127.218C85.8789 127.218 88.0902 128.027 88.286 122.297L88.2265 122.175Z" fill="#663366"/>
</svg>
