<svg width="150" height="150" viewBox="0 0 150 150" fill="none" xmlns="http://www.w3.org/2000/svg">
<path d="M127.593 78.1108C127.593 77.2121 126.865 76.4858 125.968 76.4858H118.649C114.285 55.905 95.8992 40.9922 74.8032 40.9922C53.6992 40.9922 35.3235 55.9017 30.9571 76.4858H23.625C22.728 76.4858 22 77.2121 22 78.1108C22 101.82 37.7106 121.924 59.2665 128.572C57.4091 131.499 56.4259 134.85 56.4259 138.374C56.4259 139.273 57.1539 139.999 58.051 139.999H91.5409C92.4379 139.999 93.1659 139.273 93.1659 138.374C93.1659 134.863 92.1876 131.502 90.3286 128.571C111.884 121.923 127.593 101.818 127.593 78.1108ZM74.8016 44.2422C94.1344 44.2422 110.996 57.751 115.3 76.4858H34.303C38.6093 57.7493 55.4607 44.2422 74.8016 44.2422ZM89.8314 136.749H59.7621C60.04 134.106 61.0247 131.629 62.6075 129.471C66.5238 130.401 70.6009 130.908 74.7967 130.908C78.999 130.908 83.0843 130.399 87.0055 129.468C88.5866 131.626 89.5519 134.114 89.8314 136.749ZM74.7967 127.656C48.0197 127.656 26.1373 106.305 25.276 79.7358H124.316C123.456 106.306 101.574 127.656 74.7967 127.656Z" fill="#663366"/>
<path d="M67.6775 24.175C71.5857 24.175 74.7642 20.9965 74.7642 17.0883C74.7642 13.1802 71.5857 10 67.6775 10C66.7805 10 66.0525 10.7264 66.0525 11.625C66.0525 12.5236 66.7805 13.25 67.6775 13.25C69.7933 13.25 71.5142 14.9725 71.5142 17.0867C71.5142 19.2008 69.7933 20.9234 67.6775 20.9234C63.7693 20.9234 60.5908 24.1019 60.5908 28.0084C60.5908 31.9166 63.771 35.0951 67.6775 35.0951C68.5745 35.0951 69.3025 34.3687 69.3025 33.4701C69.3025 32.5715 68.5745 31.8451 67.6775 31.8451C65.5617 31.8451 63.8409 30.1226 63.8409 28.0084C63.8409 25.8943 65.5617 24.175 67.6775 24.175Z" fill="#663366"/>
<path d="M81.9158 10C81.0188 10 80.2908 10.7264 80.2908 11.625C80.2908 12.5236 81.0188 13.25 81.9158 13.25C84.0316 13.25 85.7525 14.9725 85.7525 17.0867C85.7525 19.2008 84.0316 20.9234 81.9158 20.9234C78.0076 20.9234 74.8291 24.1019 74.8291 28.0084C74.8291 31.9166 78.0076 35.0951 81.9158 35.0951C82.8128 35.0951 83.5408 34.3687 83.5408 33.4701C83.5408 32.5715 82.8128 31.8451 81.9158 31.8451C79.8 31.8451 78.0791 30.1226 78.0791 28.0084C78.0791 25.8943 79.8 24.1734 81.9158 24.1734C85.824 24.1734 89.0025 20.9949 89.0025 17.0867C89.0025 13.1785 85.824 10 81.9158 10Z" fill="#663366"/>
</svg>
