<svg width="150" height="150" viewBox="0 0 150 150" fill="none" xmlns="http://www.w3.org/2000/svg">
<path d="M135.589 65.9262C134.909 65.5166 134.202 65.262 133.495 65.19C134.837 60.186 135.246 54.8719 134.572 49.9393C133.54 42.3557 130.187 36.9033 125.156 34.6065C121.085 32.7355 116.164 33.0898 111.061 35.4977C107.781 27.8144 102.18 21.9523 95.2272 21.5371C93.0623 21.4098 90.9028 21.836 88.8095 22.7549C88.7819 22.5999 88.7543 22.4283 88.6825 22.2567C87.705 19.5776 86.2248 17.8948 84.2587 17.2415C82.0385 16.5053 79.382 17.1585 76.3388 19.1569C75.9411 19.4281 75.3888 19.7104 74.9967 19.5831C74.1793 19.3285 73.4116 17.5017 72.8483 16.1511C72.4672 15.2432 72.1138 14.3797 71.6775 13.7154C70.374 11.7448 68.071 10.7262 65.6685 11.0639C62.8242 11.4624 60.5377 13.5992 59.5159 16.7764C59.2343 17.6566 59.0189 18.1215 58.8808 18.3927C58.7372 18.2931 58.5715 18.1658 58.4279 18.0551C57.6216 17.4296 56.5059 16.5826 54.9485 16.3114C54.8381 16.2948 54.6945 16.256 54.5398 16.2117C53.507 15.9571 51.5685 15.4755 50.3701 16.8096C49.0666 18.2543 49.746 20.7065 50.3701 22.4337C50.4253 22.5887 50.3866 22.6164 50.3535 22.633C49.9006 22.9042 48.1886 22.633 45.8413 19.998C44.6097 18.6252 42.1796 18.7249 40.0588 20.225C37.1317 22.2952 34.9556 26.9285 38.308 33.261C37.0654 33.7703 36.1707 34.7501 35.762 36.0952C35.0385 38.5197 34.4033 38.8298 34.3315 38.8574C34.0499 38.9681 33.2711 38.5197 32.7189 38.1765C31.6143 37.5233 30.1342 36.6764 28.5767 37.385L28.168 36.6045C27.798 35.9125 26.9529 35.6413 26.257 36.0066C21.0268 38.7578 17.1773 43.3909 15.4265 49.0316C13.858 54.0745 14.1397 59.3885 16.161 64.193C15.7082 64.8573 15.0178 65.5658 13.9574 66.3187C11.0744 68.3612 9.66051 71.1678 10.0693 74.013C10.4227 76.4209 12.0796 78.5743 14.3937 79.7368C14.6754 84.0711 15.6253 91.7378 18.7623 100.285C23.4843 113.11 34.0448 129.861 57.6875 136.847C63.4148 138.28 69.1696 139 74.9352 139C80.7008 139 86.5168 138.275 92.2721 136.83C115.844 129.872 126.414 113.122 131.136 100.296C134.318 91.6387 135.251 83.8722 135.522 79.5657C136.002 79.4827 136.483 79.3941 136.908 79.2945C138.504 78.9402 139.592 77.6781 139.907 75.8072C140.432 72.6907 138.703 67.7696 135.621 65.8876L135.589 65.9262ZM137.091 75.3754C136.92 76.4105 136.456 76.5212 136.273 76.5489C135.638 76.6928 134.915 76.8201 134.169 76.9474C130.552 77.584 126.829 78.2538 125.984 80.7448C125.984 80.7614 125.957 80.7725 125.957 80.8001C125.167 83.0088 123.78 85.1954 121.842 87.2767C120.273 88.976 118.263 90.6367 115.932 92.1922C115.905 92.2088 115.877 92.2365 115.85 92.2476C114.806 92.9285 113.712 93.565 112.585 94.174C111.553 94.7275 110.481 95.2534 109.388 95.7461C107.902 96.427 106.35 97.0635 104.71 97.6447C104.638 97.6724 104.555 97.7001 104.483 97.7167C103.406 98.0986 102.291 98.4695 101.147 98.8072C101.004 98.8514 100.877 98.8902 100.739 98.9345C100.595 98.8348 100.441 98.7352 100.275 98.6356C99.7502 98.2979 99.1979 97.9436 98.6345 97.462C97.5741 96.5542 96.6407 95.0375 96.9776 93.709C97.331 92.2754 99.1812 91.1295 102.169 90.4764C104.389 89.9948 106.002 89.3969 106.582 88.0961C107.134 86.8783 106.527 85.7878 105.986 84.808C105.406 83.7452 104.842 82.7378 105.279 81.376C106.195 78.4146 108.123 75.7796 109.393 75.7519H109.421C110.255 75.7519 111.26 77.097 112.105 79.3666C112.795 81.1933 113.673 82.2727 114.806 82.6657C115.695 82.9757 116.656 82.8484 117.633 82.2671C117.716 82.2118 117.805 82.1564 117.876 82.0955C120.461 79.7152 120.721 78.9347 121.267 76.3165C121.477 75.2703 121.792 73.8366 122.411 71.7276C123.101 69.3916 123.2 69.4303 124.476 69.7846C125.962 70.2108 128.464 70.9304 131.7 68.5225C132.562 67.8859 133.313 67.814 134.147 68.3398C135.97 69.458 137.51 73.0726 137.118 75.3699L137.091 75.3754ZM58.4063 134.146C39.1749 128.478 29.0516 115.951 23.7114 104.797C36.4197 114.517 55.071 120.202 74.9358 120.202C94.8006 120.202 113.435 114.517 126.16 104.797C120.814 115.951 110.707 128.461 91.5205 134.129C80.5189 136.891 69.3623 136.891 58.4049 134.146L58.4063 134.146ZM15.5704 68.6782C19.4309 65.9437 19.7401 63.1925 19.9113 61.72V61.6093C20.9165 61.7366 23.203 62.1906 24.4899 63.8622C25.4398 65.0966 25.7215 66.8236 25.2962 69.0212C24.5893 72.8076 26.9917 75.8078 29.5544 78.9851C31.1394 80.9557 32.7521 82.9651 33.7684 85.2789C32.5368 86.7236 31.7746 88.567 31.6752 90.593C31.5923 90.5376 31.504 90.4823 31.4321 90.4103C30.1453 89.4028 28.9854 88.3401 27.9969 87.2661C27.6876 86.9284 27.3893 86.5741 27.0911 86.2199C27.0469 86.1645 27.0083 86.1092 26.9807 86.0649C25.6496 84.4651 24.6611 82.7768 24.0093 81.0609C23.3852 79.4445 23.0759 77.7728 23.0759 76.1011C23.0759 75.5032 23.1035 74.9829 23.1587 74.4847C23.2582 73.7042 22.7059 72.9957 21.9271 72.896C21.1484 72.7964 20.4414 73.3499 20.3421 74.1304C20.2703 74.7393 20.2316 75.3925 20.2316 76.101C20.2316 77.4462 20.4139 78.7802 20.7397 80.0811C19.3093 78.9906 17.785 78.0385 16.3159 77.5292C14.4491 76.8926 13.0794 75.3593 12.8253 73.6488C12.5712 71.8608 13.5322 70.0895 15.5426 68.6724L15.5704 68.6782ZM35.3475 41.5382C36.6896 41.0123 37.6781 39.5565 38.4569 36.9492C38.6005 36.4676 38.9208 35.8311 40.1414 35.7425C42.461 35.5986 46.0067 37.5969 47.4372 40.7299C47.7907 41.5104 47.5642 43.3538 47.382 44.8372C47.1003 47.0901 46.8573 49.0331 47.9177 50.1789C50.4196 52.8691 52.7226 51.7952 54.1089 51.1421C54.6722 50.8708 55.2245 50.6162 55.6664 50.6162C56.5004 50.6162 57.1797 50.7878 57.7154 51.1255C53.5456 55.5484 51.8777 61.6817 53.0209 67.4943C52.9657 67.9758 52.9105 68.4851 52.8663 69.0553C52.7669 70.6274 52.314 71.109 52.2035 71.1533C52.1041 71.181 51.7672 71.0814 51.3972 70.6717C50.4086 69.5812 49.9005 67.4003 50.9995 64.9592C51.9495 62.8612 51.7783 60.7633 50.5191 59.1912C49.1052 57.4199 46.5315 56.6393 43.9468 57.1763C43.0576 57.3589 41.5001 57.8682 39.9758 59.2023L37.7557 54.9786L30.7857 41.6879L29.8965 39.9886C30.2334 40.0439 30.8299 40.3871 31.2552 40.6418C32.3708 41.306 33.7847 42.1308 35.3421 41.5219L35.3475 41.5382ZM41.1577 23.0169C42.1187 22.1256 43.052 21.8987 43.4883 21.8987C43.5987 21.8987 43.6871 21.9153 43.7313 21.943C47.1666 25.7958 50.149 26.1112 51.8058 25.1148C53.0484 24.3786 53.5455 22.9172 53.0374 21.5167C52.4022 19.7288 52.4409 19.0092 52.4851 18.7822C52.8109 18.7268 53.5731 18.9261 53.8713 18.9925C54.1144 19.0479 54.3076 19.1032 54.4789 19.1364C55.357 19.2914 56.0474 19.8173 56.7266 20.3432C57.5606 20.9798 58.5215 21.716 59.7256 21.334C60.9682 20.9355 61.6199 19.5903 62.2274 17.6806C62.8902 15.5716 64.3317 14.1545 66.0714 13.9109C67.4025 13.7282 68.6451 14.2652 69.3355 15.3114C69.6337 15.7653 69.943 16.5015 70.2689 17.282C71.1305 19.3522 72.108 21.6883 74.2011 22.3248C75.3609 22.6791 76.6036 22.4079 77.918 21.5443C79.4866 20.5092 81.7068 19.3911 83.3913 19.9446C84.4958 20.3155 85.3851 21.4171 86.0478 23.2326C86.1472 23.4873 85.5397 24.1958 85.142 24.6774C84.9321 24.932 84.7057 25.2032 84.4793 25.4966C83.7171 26.1332 82.955 26.8417 82.2315 27.6222C73.4942 21.6992 61.548 23.7253 55.2959 32.3384C52.1976 36.6063 50.9439 41.8207 51.7613 47.035C51.8607 47.6716 51.9877 48.3082 52.1589 48.9337C51.3802 49.2326 50.8997 49.1772 50.0934 48.3247C49.8946 47.8985 50.0934 46.1991 50.237 45.1917C50.491 43.1657 50.7451 41.0677 50.0547 39.551C48.3149 35.726 44.4545 33.3568 41.3174 32.9638C41.207 32.6926 41.0744 32.4269 40.9198 32.1446C38.0368 26.8471 40.1576 23.9963 41.1904 23.0166L41.1577 23.0169ZM95.067 24.362C105.191 24.9598 112.161 40.3595 111.399 53.2124C111.299 54.9672 111.029 56.6279 110.647 58.1722C109.206 56.4729 107.51 55.0004 105.589 53.7937C105.533 46.8633 100.557 41.0676 94.0953 40.6857C92.9079 40.6137 91.7647 40.741 90.6601 41.0123C89.9973 36.6504 87.8876 32.5098 84.4689 29.3933C87.5948 26.1218 91.0411 24.3505 94.4653 24.3505C94.6642 24.3505 94.863 24.3505 95.0618 24.3671L95.067 24.362ZM130.303 66.0555C130.193 66.1275 130.094 66.1828 129.978 66.2658C127.857 67.838 126.587 67.4726 125.228 67.074C124.692 66.919 124.184 66.8194 123.715 66.7917C125.2 60.7691 122.599 54.5195 117.197 52.0568C116.248 51.6196 115.259 51.3483 114.27 51.1767C114.27 46.7815 113.492 42.2645 112.067 38.1241C114.651 36.8786 117.159 36.242 119.462 36.242C121.075 36.242 122.599 36.552 123.985 37.1942C128.116 39.0762 130.872 43.7537 131.778 50.3464C132.457 55.3616 131.905 60.9911 130.309 66.0789L130.303 66.0555ZM131.055 90.5442C130.999 90.7711 130.944 91.0091 130.883 91.2527C130.812 91.5627 130.74 91.8782 130.657 92.2048C130.602 92.4318 130.53 92.6698 130.475 92.9134C130.392 93.2399 130.303 93.5665 130.221 93.9042C130.149 94.1478 130.077 94.3858 130.011 94.6294C129.911 94.967 129.812 95.3102 129.712 95.6479C129.641 95.8915 129.558 96.1461 129.469 96.4007C129.359 96.7384 129.26 97.0816 129.144 97.4359C129.061 97.6905 128.972 97.9451 128.89 98.1887C128.79 98.4876 128.691 98.7865 128.58 99.0799C116.518 110.561 96.5137 117.403 74.9367 117.403C53.3597 117.403 33.3549 110.561 21.2932 99.0799C21.2103 98.8363 21.122 98.6149 21.0391 98.3714C20.9286 98.0448 20.8127 97.7182 20.7022 97.4082C20.6194 97.1369 20.531 96.8712 20.4481 96.6C20.3487 96.2734 20.2383 95.9468 20.1389 95.6202C20.056 95.3656 19.9842 95.1109 19.9124 94.8397C19.813 94.5131 19.7302 94.1865 19.6308 93.8765C19.559 93.6219 19.5037 93.3783 19.4319 93.1237C19.3491 92.8137 19.2607 92.4871 19.1889 92.1716C19.1337 91.928 19.0785 91.7066 19.0177 91.463C18.9459 91.1531 18.8631 90.8265 18.7913 90.5109C18.736 90.284 18.6919 90.0736 18.6477 89.8467C18.5924 89.592 18.5372 89.3374 18.493 89.0828C27.4015 102.174 49.3168 111.457 74.9205 111.457C100.524 111.457 122.439 102.174 131.348 89.0828C131.304 89.2655 131.265 89.4537 131.237 89.6474C131.182 89.9463 131.11 90.2452 131.039 90.5386L131.055 90.5442ZM118.484 75.7484C118.032 77.8906 117.976 78.1563 116.065 79.9166C115.867 80.0162 115.756 80.0273 115.74 80.0162C115.74 80.0162 115.386 79.8723 114.922 78.8095C115.165 78.029 115.347 77.2374 115.502 76.4403C116.662 75.9753 117.75 75.3332 118.755 74.5249C118.656 74.9622 118.573 75.3774 118.501 75.7317L118.484 75.7484ZM94.2224 93.0354C94.0788 93.5889 94.0678 94.1425 94.0954 94.6795C94.0402 94.6795 93.985 94.6961 93.9242 94.6961C91.1959 94.6961 88.9757 92.4708 88.9757 89.7363C88.9757 87.0017 91.1959 84.7765 93.9242 84.7765C96.2548 84.7765 98.2099 86.4039 98.7291 88.5904C95.6749 89.8359 94.5703 91.6239 94.2169 93.0409L94.2224 93.0354ZM96.7961 99.6393C96.9231 99.75 97.0391 99.822 97.1661 99.9216H97.122C96.6249 100.049 96.1168 100.165 95.6252 100.276C95.2442 100.359 94.8631 100.447 94.4654 100.531C93.9408 100.641 93.4216 100.741 92.8969 100.84C92.5158 100.912 92.1347 100.996 91.7536 101.051C91.2014 101.15 90.638 101.234 90.0857 101.322C89.7157 101.377 89.3512 101.449 88.9811 101.494C88.3736 101.577 87.7495 101.665 87.1309 101.737C86.8051 101.782 86.4958 101.82 86.1699 101.865C85.2366 101.975 84.2922 102.064 83.3422 102.147C81.6024 102.302 79.8904 102.39 78.1839 102.429C77.7034 102.457 77.2063 102.473 76.7259 102.473H76.4718H76.146H75.9913C75.6379 102.473 75.301 102.49 74.9309 102.473H74.4228C72.6996 102.457 70.9875 102.402 69.3473 102.33L67.7788 102.202C68.3145 101.04 68.6293 99.7943 68.6293 98.4769C68.6293 97.0764 68.2924 95.7534 67.7235 94.5799C67.8229 94.5799 67.9058 94.5522 68.0218 94.5522C79.3051 94.126 80.2384 93.6444 82.1439 87.0849L82.5416 85.7231C83.4584 82.6897 84.8889 80.7799 86.4738 80.4811C87.7165 80.2375 89.2297 80.9792 90.8258 82.5513C88.0809 83.758 86.1589 86.5037 86.1589 89.6921C86.1589 93.9876 89.6495 97.4861 93.9352 97.4861C94.2887 97.4861 94.6421 97.4584 94.979 97.4031C95.4871 98.2832 96.1388 99.0304 96.7905 99.5841L96.7961 99.6393ZM74.9363 108.64C46.3225 108.64 22.5129 96.8937 17.9009 81.5326C20.2923 83.1324 22.8935 85.6732 24.7714 87.8541C24.7991 87.9095 24.8432 87.9537 24.8819 87.998C25.2188 88.3966 25.5612 88.8062 25.9147 89.1881C26.3786 89.6974 26.8923 90.1956 27.4114 90.6883C27.4556 90.7326 27.4943 90.7713 27.5384 90.799C28.0189 91.2529 28.527 91.6902 29.0517 92.1164C29.1235 92.1718 29.1787 92.2271 29.2505 92.2714C29.7752 92.6977 30.3275 93.1239 30.8909 93.5169C30.9627 93.5612 31.0179 93.6166 31.0897 93.6608C31.0897 93.6608 31.1063 93.6608 31.1173 93.6774C31.642 94.0594 32.1943 94.4413 32.7577 94.7956C32.7853 94.8122 32.8129 94.8233 32.8405 94.8399C32.9234 94.8953 33.0228 94.9672 33.0835 94.9949L33.2658 95.1056C33.3763 95.1776 33.5088 95.2495 33.6027 95.316C33.6579 95.3602 33.7297 95.399 33.8015 95.4267C33.8291 95.4433 33.8567 95.4543 33.8844 95.482C34.155 95.637 34.4201 95.8086 34.7017 95.9636C34.7846 96.019 34.884 96.0633 34.9724 96.1075C35.0828 96.1795 35.1988 96.2348 35.3258 96.3068C35.5965 96.4618 35.8616 96.6057 36.1432 96.7441C36.3255 96.8437 36.5133 96.9434 36.6955 97.043C36.8391 97.115 36.9772 97.1869 37.1318 97.2534C37.2754 97.3253 37.4135 97.3973 37.5405 97.4637C37.7117 97.5467 37.8664 97.6187 38.0376 97.7073C38.4463 97.9066 38.8715 98.1058 39.2968 98.2885C39.4956 98.3716 39.6779 98.4601 39.8767 98.5598C39.9595 98.604 40.0314 98.6317 40.1197 98.6705C40.6002 98.8808 41.0973 99.0801 41.5777 99.2794C41.8041 99.3624 42.014 99.4621 42.2404 99.5506C42.2846 99.5672 42.3233 99.5949 42.3675 99.606C42.4779 99.6503 42.6105 99.689 42.7209 99.7333C43.5991 100.071 44.5048 100.398 45.4217 100.713C45.6758 100.796 45.9464 100.885 46.2004 100.968C47.178 101.294 48.1776 101.593 49.1994 101.876C49.227 101.876 49.2546 101.892 49.2712 101.903H49.2878H49.3154C49.6136 101.986 49.9229 102.075 50.2211 102.158C50.6574 102.285 51.1103 102.401 51.5632 102.512C51.6184 102.512 51.6626 102.54 51.7178 102.556L52.0161 102.628C52.1707 102.673 52.3254 102.711 52.4966 102.739C52.4966 102.739 52.607 102.767 52.6678 102.783C54.4186 103.21 56.3294 103.592 58.3233 103.918C59.2014 104.062 60.0906 104.2 60.9798 104.328C61.8855 104.455 62.8465 104.571 63.8793 104.682C63.9235 104.682 63.9787 104.682 64.0229 104.699H64.0395H64.0561C64.1665 104.699 64.2825 104.726 64.393 104.726H64.4206C64.6636 104.754 64.9011 104.782 65.1441 104.798H65.3539C65.4644 104.826 65.5638 104.843 65.6798 104.843C65.8621 104.859 66.0609 104.87 66.2431 104.887C66.6242 104.915 67.0053 104.942 67.3864 104.97H67.4968H67.7399C67.7399 104.97 67.784 104.998 67.7951 104.998L69.1095 105.081C69.4354 105.097 69.7889 105.097 70.1258 105.108C71.2966 105.164 72.4731 105.191 73.6604 105.208H73.7598C73.9587 105.208 74.1409 105.225 74.3232 105.225H74.8479H76.2617H76.444H76.6428C76.9245 105.225 77.1951 105.208 77.4768 105.197H77.902H78.2113H78.2555C78.5372 105.197 78.8188 105.169 79.1171 105.169C79.5258 105.153 79.9234 105.141 80.3321 105.114C81.3759 105.058 82.4253 105.003 83.4857 104.903C84.6732 104.804 85.8331 104.676 87.0039 104.533C87.1585 104.516 87.3297 104.488 87.4844 104.477C88.473 104.35 89.4615 104.206 90.4391 104.068C90.6379 104.04 90.8478 103.996 91.0466 103.968C91.9965 103.813 92.9409 103.641 93.8743 103.459C94.0566 103.431 94.2278 103.387 94.41 103.359C95.36 103.16 96.2878 102.96 97.2102 102.734C97.2654 102.734 97.3207 102.706 97.3649 102.689C97.4643 102.662 97.5637 102.645 97.6631 102.617C97.8067 102.59 97.9448 102.545 98.0884 102.518C98.116 102.518 98.1436 102.501 98.1712 102.49C100.11 102.008 101.988 101.455 103.827 100.846C104.136 100.746 104.451 100.636 104.743 100.519H104.771C104.898 100.475 105.025 100.436 105.152 100.375C105.461 100.265 105.787 100.165 106.086 100.049C106.395 99.938 106.693 99.8218 106.991 99.7111C107.063 99.6834 107.135 99.6557 107.201 99.6281C108.245 99.2184 109.167 98.8365 110.045 98.4545C110.2 98.3826 110.327 98.3106 110.482 98.2442C111.526 97.7626 112.547 97.2644 113.519 96.7441C113.674 96.661 113.818 96.5891 113.972 96.5005C115.033 95.9193 116.049 95.3104 117.026 94.6849C117.109 94.6296 117.209 94.5853 117.297 94.5299C117.369 94.4856 117.441 94.4303 117.507 94.386C118.65 93.6221 119.727 92.8249 120.732 92.0057C120.843 91.9227 120.942 91.823 121.058 91.7345C121.439 91.4079 121.82 91.0813 122.174 90.7547C122.328 90.6108 122.472 90.4724 122.61 90.3451C122.908 90.0628 123.19 89.7804 123.472 89.4815C123.571 89.3708 123.681 89.2712 123.781 89.1715C123.825 89.1162 123.864 89.0719 123.908 89.0165C124.388 88.4907 124.841 87.9703 125.25 87.4278C125.305 87.3559 125.349 87.2839 125.405 87.2175C125.615 86.9352 125.841 86.6529 126.04 86.365C126.603 85.6731 127.934 83.3758 128.442 81.7871C128.442 81.7595 128.459 81.7428 128.47 81.7152V81.6875C128.47 81.6709 128.486 81.6432 128.486 81.6321C128.658 81.0343 130.464 80.525 132.165 80.1596C128.575 96.1741 104.224 108.601 74.7928 108.601L74.9363 108.64ZM31.8572 77.3097C33.4147 77.6474 34.9831 77.819 36.5516 77.819C40.0863 77.819 43.5769 76.9554 46.7856 75.2671C47.476 74.8962 47.7466 74.0493 47.3821 73.3518L44.7366 68.2813L41.3566 61.8324C42.5717 60.5592 43.8475 60.1165 44.5378 59.9614C46.0621 59.6348 47.5754 60.0445 48.3156 60.9689C49.0501 61.8878 48.7795 63.0115 48.426 63.7865C46.7856 67.4012 47.6915 70.7999 49.3152 72.5879C50.4474 73.8223 51.8723 74.2872 53.1481 73.8334C54.0096 73.5234 55.4787 72.527 55.6942 69.2444C55.8764 66.139 56.4453 65.6741 56.5005 65.6297C56.7435 65.4747 57.8978 65.8733 58.5937 66.1113C59.2013 66.3216 59.8364 66.5375 60.5323 66.7202C61.4822 66.9638 61.9462 67.5118 62.5427 68.2093C64.0284 69.953 65.5802 71.215 69.7556 68.9012C72.4564 67.4011 74.1077 69.8367 74.5495 70.6171C75.4276 72.1893 75.2288 73.3517 75.0742 73.4347C72.9809 74.6415 70.2085 78.6381 70.7773 81.9207C70.9596 83.0278 71.7272 84.9375 74.6489 85.4634C76.4603 85.79 78.0123 86.2992 79.244 86.9359C78.41 89.7866 77.9129 90.8052 75.1017 91.2591C71.9647 88.5522 69.4628 87.1629 67.6514 87.1518C66.7622 87.0965 65.9006 87.4784 65.2875 88.104C64.2437 89.1834 63.4761 89.8033 62.9237 90.1854C62.4266 90.0027 61.9351 89.8477 61.4104 89.7481C61.2006 88.5856 61.184 86.7699 61.184 85.8953C61.1674 82.1423 59.5713 79.3081 56.7987 78.1455C53.9157 76.9388 50.3259 77.747 47.8627 80.1605C47.0563 80.9521 46.4764 81.6496 45.9684 82.2585C45.6315 82.6681 45.3167 83.039 45.0074 83.3379C43.6763 82.5574 42.1631 82.1035 40.567 82.1035C38.9709 82.1035 37.3582 82.5685 36.0272 83.3656C34.884 81.0684 33.3099 79.0867 31.8684 77.2988L31.8572 77.3097ZM29.0019 44.3455L33.6963 53.2853L24.0699 50.2961C25.1027 47.8604 26.8148 45.8012 29.0019 44.3455ZM28.0685 69.7255C28.7313 70.124 29.4106 70.4894 30.1175 70.7883C30.6145 70.9986 31.1227 71.1868 31.6418 71.3418C32.0781 71.4857 32.5199 71.5965 32.9562 71.6795C33.0998 71.7072 33.2379 71.7348 33.3815 71.7625C33.6797 71.8179 33.989 71.8732 34.2872 71.9175C34.4584 71.9452 34.6241 71.9618 34.7954 71.9729C35.077 72.0005 35.3587 72.0282 35.6459 72.0448C35.8171 72.0448 35.9993 72.0614 36.1706 72.0614C36.2976 72.0614 36.4246 72.078 36.5516 72.078C36.651 72.078 36.7339 72.0614 36.8333 72.0614C37.2972 72.0614 37.7667 72.0172 38.2196 71.9784C38.3466 71.9784 38.4736 71.9618 38.6006 71.9341C39.1805 71.8622 39.7439 71.7514 40.3127 71.6241C40.4563 71.5965 40.5944 71.5522 40.738 71.5134C41.1743 71.4027 41.6161 71.2588 42.0524 71.1038C42.2236 71.0484 42.3783 70.9931 42.5495 70.9211C42.6599 70.8768 42.7759 70.8381 42.8864 70.7938L44.2284 73.3733C40.0034 75.2277 35.2813 75.499 30.8132 74.0985C30.2168 73.9158 29.6424 73.6999 29.0624 73.4619C28.3279 72.1998 27.9192 70.9654 28.1015 69.7199L28.0685 69.7255ZM23.2194 53.0024L32.8458 55.9916L24.6608 60.2983C24.3073 60.0879 23.9539 59.8997 23.6004 59.7337C22.91 57.5526 22.7499 55.2553 23.2194 53.0024ZM26.8644 62.3407L34.1436 58.5157L31.1447 68.1641C30.1119 67.7268 29.1675 67.1456 28.2893 66.4647C28.1789 64.8926 27.6929 63.5199 26.8589 62.3575L26.8644 62.3407ZM41.539 68.2803C39.0923 69.2601 36.4358 69.4981 33.8456 68.9889L36.8445 59.3405L41.539 68.2803ZM54.5344 46.5975C53.8275 42.1359 54.9155 37.6687 57.5609 34.0153C60.8525 29.4818 66 27.0739 71.2192 27.0739C74.671 27.0739 78.1338 28.1201 81.1328 30.3065C88.1745 35.449 90.0799 45.0754 85.7831 52.4712C85.275 51.8346 84.7503 51.2257 84.1705 50.6556C85.2474 48.5023 85.7556 46.0943 85.6285 43.6808C85.5456 42.308 84.7945 41.0903 83.5905 40.4204C82.3865 39.7562 80.9616 39.7562 79.7576 40.4204L77.3662 41.7268C76.234 42.3523 75.4719 43.5147 75.3283 44.8432C75.3007 45.1532 75.2178 45.4688 75.1018 45.7621C74.776 45.6902 74.4501 45.6071 74.1132 45.5518C71.7659 45.1698 69.4188 45.2695 67.1543 45.7621C66.9003 45.2529 66.7567 44.6717 66.7843 44.0738C66.8285 42.7564 66.2044 41.5109 65.1606 40.7304L62.9294 39.103C61.8138 38.2948 60.3833 38.1121 59.1131 38.6214C57.8262 39.1473 56.9094 40.2655 56.6553 41.6382C56.2743 43.7473 56.4123 45.8895 56.9812 47.9044C56.5725 47.8325 56.1472 47.7937 55.6943 47.7937C55.3851 47.7937 55.0868 47.838 54.8052 47.8934C54.7057 47.4671 54.6063 47.0409 54.5345 46.6036L54.5344 46.5975ZM93.9403 43.5087C98.806 43.791 102.567 48.1418 102.777 53.4448C102.705 53.5168 102.633 53.5888 102.578 53.6718L99.8498 58.6482L97.149 63.5804C95.7904 64.2723 94.2772 64.6266 92.6976 64.5435C91.6538 64.4882 90.6597 64.2169 89.7429 63.8184C89.7429 60.7406 88.9808 57.7404 87.4951 55.0336C89.7982 51.6348 90.9029 47.7489 90.8751 43.8796C91.6925 43.6249 92.5431 43.481 93.4323 43.481C93.6035 43.481 93.7692 43.481 93.9404 43.4976L93.9403 43.5087ZM103.495 86.204C103.639 86.4476 103.804 86.7687 103.893 86.9845C103.65 87.1285 103.031 87.4108 101.545 87.7374C101.501 87.7374 101.473 87.754 101.435 87.765C101.264 87.1285 101.026 86.503 100.7 85.9383C101.352 85.5397 102.042 85.1744 102.865 84.9585C103.075 85.4235 103.301 85.8497 103.5 86.204L103.495 86.204ZM65.8012 92.0274C65.7018 91.9444 65.619 91.8447 65.5196 91.7562C66.0829 91.2912 66.6628 90.7487 67.3034 90.0955C67.331 90.0678 67.3863 90.0125 67.6293 89.9958C68.281 89.9958 69.3966 90.4774 70.9927 91.6122C70.087 91.6565 69.0707 91.6952 67.922 91.7395C67.1322 91.7672 66.4363 91.8668 65.8177 92.0107L65.8012 92.0274ZM46.9289 89.7633C47.1001 89.7633 47.2548 89.7633 47.4094 89.791C49.6849 89.9626 51.6069 91.3797 52.4849 93.4444C51.4521 94.9335 50.8612 96.6883 50.8612 98.5149C50.8612 98.8249 50.9054 99.1404 50.933 99.4504C50.6514 99.3784 50.3697 99.3065 50.0714 99.2234C47.807 98.5979 45.5758 97.8506 43.4109 97.0148C43.3832 97.0148 43.3114 96.9594 43.2838 96.9594C43.212 96.9151 43.1292 96.8874 43.0574 96.8764C42.3228 96.5941 41.5994 96.2675 40.8813 95.9409V95.8578C40.8813 92.5144 43.5986 89.7798 46.9343 89.7798L46.9289 89.7633ZM48.1274 84.0784C48.5913 83.5138 49.116 82.8717 49.8229 82.1964C51.4466 80.5966 53.8657 80.0153 55.6882 80.7793C57.3837 81.4878 58.3337 83.3146 58.3447 85.9937C58.3447 87.2282 58.3613 88.5291 58.527 89.7081C57.0966 89.9074 55.7434 90.4609 54.567 91.2968C53.2636 89.0715 51.0599 87.527 48.4752 87.0897C48.1218 86.3812 47.6965 85.728 47.1718 85.1468C47.4811 84.8202 47.7959 84.4659 48.1218 84.0839L48.1274 84.0784ZM65.8007 98.5199C65.8007 99.782 65.4197 100.983 64.7127 101.991C64.6133 101.991 64.5139 101.974 64.4034 101.963C63.3983 101.863 62.4263 101.753 61.4487 101.609C60.5706 101.481 59.709 101.354 58.8475 101.199C57.9307 101.044 57.0361 100.889 56.1634 100.718C55.8928 100.662 55.6388 100.607 55.3737 100.546C54.8766 100.446 54.3961 100.336 53.9322 100.219C53.7776 99.6658 53.6892 99.0845 53.6892 98.531C53.6892 97.0697 54.2139 95.6692 55.1583 94.5786C56.3016 93.2335 57.9695 92.4696 59.7369 92.4696C63.0728 92.4696 65.8011 95.1931 65.8011 98.5476L65.8007 98.5199ZM61.2332 63.9841C60.8356 63.8845 60.4821 63.7572 60.1176 63.6299C60.1452 62.0025 60.5263 60.386 61.3216 58.9137C61.5646 58.4598 61.9844 58.3767 62.1556 58.3767H62.2108C62.3931 58.3767 62.7465 58.4321 63.0171 58.7863L64.5304 60.8843C64.7127 61.1556 64.7734 61.4932 64.6574 61.8032C64.0499 63.5026 64.2487 65.3625 65.1379 66.907C64.9943 66.7631 64.8562 66.6081 64.685 66.4088C63.9947 65.5896 63.0281 64.4658 61.2222 64.0009L61.2332 63.9841ZM77.8632 66.381L80.365 65.8994C80.8289 65.8164 81.1437 66.071 81.2542 66.1983C81.3646 66.309 81.6077 66.6522 81.4806 67.1172C80.9283 69.2152 79.6857 71.0696 77.9901 72.4479C77.9348 71.4404 77.609 70.3388 77.0015 69.2429C76.8026 68.9052 76.5928 68.5786 76.3498 68.2631C76.659 67.8811 76.9131 67.4549 77.1285 66.9899C77.2721 66.6633 77.5372 66.4364 77.852 66.381H77.8632ZM59.4277 42.146C59.5382 41.5482 59.98 41.3267 60.1623 41.2382C60.2451 41.2105 60.4053 41.1551 60.5986 41.1551C60.7974 41.1551 61.0349 41.2105 61.2613 41.3821L63.4926 43.0095C63.8018 43.2364 63.9731 43.5907 63.9565 43.9893C63.9289 44.8971 64.1111 45.7883 64.437 46.5964C62.9955 47.1611 61.5927 47.9028 60.3058 48.8327C59.3448 46.7791 58.9913 44.4375 59.4166 42.1458L59.4277 42.146ZM77.8193 46.5412C77.974 46.0873 78.09 45.6223 78.1452 45.1408C78.1894 44.7311 78.3992 44.3879 78.7251 44.2052L81.1165 42.8989C81.6136 42.6276 82.0499 42.8158 82.2045 42.8989C82.3757 42.9819 82.7568 43.2697 82.801 43.8344C82.9004 45.5227 82.5911 47.2055 81.9229 48.75C80.6526 47.8421 79.2774 47.0893 77.8082 46.5413L77.8193 46.5412ZM106.367 67.2888L96.8231 70.0787L101.617 61.3216C103.738 62.8107 105.395 64.8643 106.367 67.2888ZM94.0672 81.9528C93.2167 80.9453 92.3993 80.1649 91.6205 79.5559L93.5315 76.0852L95.2712 82.0636C94.8736 81.9916 94.4814 81.9528 94.0672 81.9528ZM75.1341 82.7056C74.5984 82.606 74.2449 82.451 74.0185 82.2683C76.8462 81.8421 79.6187 80.7406 82.0929 78.9526C83.9597 77.5909 85.5006 75.9358 86.7321 74.0648C88.0742 74.491 89.488 74.7734 90.9461 74.9284L89.1954 78.1168C87.9251 77.6186 86.8205 77.5909 85.9589 77.7459C83.4293 78.2109 81.3638 80.5247 80.0769 84.2335C78.3261 83.3976 76.4704 82.9437 75.1449 82.7057L75.1341 82.7056ZM89.5103 66.7804C90.4713 67.107 91.4599 67.3339 92.5093 67.3893C92.7357 67.3893 92.9621 67.4059 93.1886 67.4059C93.8513 67.4059 94.503 67.334 95.1382 67.2232L92.6804 71.7181L92.4098 72.2163H92.2275C90.7861 72.1333 89.4164 71.8897 88.0964 71.5244C88.7591 70.0519 89.2396 68.4799 89.5102 66.8358L89.5103 66.7804ZM102.296 82.1685C100.866 82.5228 99.7664 83.176 98.8717 83.7407C98.7888 83.6687 98.7005 83.6133 98.6287 83.558L96.2372 75.2991L103.108 79.0854C102.898 79.6112 102.699 80.1205 102.572 80.5579C102.39 81.1225 102.318 81.665 102.301 82.1576L102.296 82.1685ZM97.6014 72.8025L107.162 70.0125C107.371 71.186 107.416 72.3651 107.316 73.5386C106.173 74.1918 105.195 75.3266 104.417 76.5555L97.6014 72.8025ZM61.9677 51.148C64.6851 49.1774 67.8773 48.1422 71.1579 48.1422C71.9918 48.1422 72.8258 48.2141 73.6597 48.3415C77.8019 49.0057 81.4525 51.2476 83.9103 54.6463C86.368 58.0451 87.3731 62.2133 86.7104 66.3649C86.0477 70.5166 83.8109 74.1755 80.4198 76.6388C78.4095 78.1001 76.1617 78.9915 73.8752 79.3899C74.2011 78.5375 74.7092 77.6906 75.2615 77.0207C76.6919 76.6111 78.0616 75.9413 79.2765 75.0667C81.7067 73.2953 83.4629 70.7324 84.2251 67.8373C84.562 66.5641 84.2251 65.2301 83.3193 64.2669C82.4301 63.3038 81.1157 62.8775 79.8288 63.1211L77.3269 63.6027C76.1119 63.8296 75.0625 64.6655 74.5433 65.839C74.4605 66.0383 74.3445 66.1933 74.2175 66.3649C72.5771 65.4294 70.5558 65.2301 68.3797 66.4368C68.3245 66.4645 68.2803 66.4922 68.2251 66.5199C68.1699 66.3095 68.0705 66.0936 67.9158 65.922C67.8606 65.8667 67.8054 65.7947 67.7612 65.7227C67.1371 64.8592 66.9714 63.7411 67.3359 62.7335C67.7612 61.5434 67.5789 60.2094 66.8388 59.2074L65.3256 57.1094C64.5469 56.03 63.3042 55.4487 61.9897 55.5373C60.6587 55.6203 59.4879 56.3898 58.8526 57.5633C57.9634 59.2074 57.4553 61.0064 57.3283 62.8332C56.7208 62.7501 56.1133 62.7612 55.5445 62.9882C55.8151 58.438 58.0353 54.0317 62.0062 51.1422L61.9677 51.148ZM40.5505 84.9582C42.3454 84.9582 44.0133 85.7775 45.1456 87.1115C41.4839 87.8643 38.6562 90.8978 38.148 94.6508C37.4853 94.3131 36.806 93.9423 36.1101 93.5437C35.7842 93.361 35.4584 93.1728 35.1491 92.9902C35.1325 92.9902 35.1049 92.9625 35.0939 92.9625C34.9834 92.8905 34.8509 92.8075 34.7404 92.7355C34.5858 92.1986 34.4974 91.6284 34.4974 91.0361C34.4974 87.6927 37.2147 84.9581 40.5616 84.9581L40.5505 84.9582ZM110.183 73.0126C110.183 72.8687 110.211 72.7303 110.211 72.5864C110.228 70.9977 110.012 69.3979 109.548 67.8258C109.405 67.3276 109.239 66.846 109.04 66.3645C108.985 66.2095 108.897 66.0545 108.841 65.9106C108.698 65.6006 108.571 65.2851 108.416 64.9751C108.333 64.8035 108.234 64.6374 108.134 64.4658C107.98 64.1946 107.836 63.9289 107.671 63.6577C107.56 63.4861 107.444 63.32 107.334 63.1484C107.162 62.9048 106.997 62.6502 106.809 62.4232C106.682 62.2516 106.555 62.0966 106.411 61.9417C106.212 61.7147 106.014 61.4877 105.815 61.2774C105.671 61.1224 105.533 60.9785 105.39 60.8401C105.18 60.6297 104.937 60.4139 104.71 60.2146C104.567 60.0873 104.429 59.9433 104.274 59.8326C104.02 59.6223 103.738 59.423 103.468 59.2237C103.324 59.1241 103.197 59.0245 103.059 58.9248C103.031 58.9082 103.004 58.8805 102.976 58.8694L104.346 56.3619C108.19 58.8584 110.979 62.6281 112.277 67.0897C113.028 69.6692 113.21 72.3207 112.873 74.9113C112.067 73.8928 111.178 73.2506 110.172 73.0569L110.183 73.0126ZM116.021 54.6344C120.771 56.8043 122.665 62.8823 120.246 68.1687C119.258 70.3498 117.673 72.0381 115.833 73.1562C115.905 70.8589 115.635 68.5506 114.983 66.281C114.447 64.4377 113.668 62.7217 112.718 61.1109C113.453 58.9577 113.95 56.5884 114.149 54.0421C114.784 54.1694 115.408 54.3687 116.016 54.651L116.021 54.6344ZM26.3283 39.2562L27.6703 41.8191C27.6703 41.8191 27.6151 41.8634 27.5709 41.8911C27.4273 41.9907 27.2892 42.0904 27.1457 42.19C26.864 42.3893 26.5934 42.572 26.3283 42.7879C26.1736 42.9152 26.03 43.0425 25.8754 43.1698C25.6324 43.3691 25.4115 43.5794 25.185 43.7953C25.0414 43.9392 24.8868 44.0776 24.7487 44.2326C24.5388 44.443 24.3235 44.6699 24.1246 44.8969C23.981 45.0519 23.854 45.2069 23.727 45.3619C23.5282 45.6054 23.3459 45.8434 23.1747 46.0981C23.0642 46.2697 22.9482 46.4247 22.8378 46.5963C22.6555 46.8675 22.5009 47.1498 22.3297 47.4155C22.2303 47.5705 22.1474 47.7421 22.048 47.8971C21.8768 48.2237 21.7222 48.5503 21.5841 48.8769C21.5289 49.0208 21.4571 49.1481 21.4018 49.2865C21.203 49.7681 21.0207 50.2497 20.8661 50.7478C20.5402 51.794 20.3138 52.8458 20.2034 53.9197C20.0211 55.547 20.1039 57.1912 20.4132 58.7964C20.1316 58.7521 19.8775 58.7245 19.7063 58.7134C18.6183 58.6304 18.0108 59.04 17.6408 59.5769C16.978 56.4051 17.1161 53.0894 18.1047 49.8844C19.491 45.4061 22.3904 41.6641 26.3173 39.2286L26.3283 39.2562Z" fill="#663366"/>
</svg>
