<svg width="150" height="150" viewBox="0 0 150 150" fill="none" xmlns="http://www.w3.org/2000/svg">
<path d="M123.403 94.8397V94.8084C123.388 94.7614 123.377 94.7092 123.356 94.6622C123.351 94.6465 123.346 94.6361 123.341 94.6204V94.5995L115.608 78.2374L115.603 24.0025H117.19C118.96 24.0025 120.396 22.5668 120.401 20.7917V13.2213C120.401 12.3651 120.062 11.5454 119.456 10.9398C118.851 10.3342 118.026 9.99483 117.169 10.0001H32.8206C31.0455 10.0001 29.6046 11.441 29.6046 13.2109V20.7865C29.6046 22.5616 31.0403 24.0025 32.8206 24.0025H34.4026L34.3974 78.232L26.6704 94.5942V94.615C26.6704 94.6255 26.6704 94.6464 26.6496 94.6568V94.662C26.6287 94.709 26.6182 94.7612 26.6078 94.8082V94.8395C26.5921 94.897 26.5869 94.9596 26.5869 95.017V95.0379V136.784C26.5869 138.554 28.0174 139.99 29.7821 140H120.208C121.983 140 123.419 138.559 123.424 136.784V95.0379V95.017C123.419 94.9596 123.414 94.8971 123.403 94.8397ZM31.6927 20.7917V13.2213C31.6927 12.9237 31.8076 12.6366 32.0216 12.4225C32.2305 12.2084 32.5176 12.0884 32.8204 12.0884H117.169C117.796 12.0884 118.297 12.5896 118.297 13.2161V15.1792L60.8036 15.174C60.2293 15.174 59.7594 15.6439 59.7594 16.2182C59.7594 16.7925 60.2293 17.2624 60.8036 17.2624H118.297V20.7917C118.297 21.413 117.791 21.9142 117.169 21.9142L32.8204 21.9194C32.1992 21.9142 31.6927 21.413 31.6927 20.7917ZM113.505 24.0025V77.4234H52.0231V72.9856C52.801 72.7664 53.4955 72.3173 54.0071 71.6908H102.358C105.34 71.6908 107.757 69.2735 107.762 66.2923V46.2493C107.762 45.675 107.292 45.2051 106.718 45.2051C106.138 45.2051 105.674 45.675 105.674 46.2493V66.2817C105.669 68.109 104.186 69.5918 102.358 69.5918H54.8745C54.8902 69.4612 54.8954 69.3307 54.8954 69.2054C54.8954 67.0387 53.1412 65.2897 50.9797 65.2897C48.8182 65.2897 47.064 67.0387 47.064 69.2054C47.064 69.3203 47.064 69.4352 47.0849 69.5448V69.5396C45.4925 69.2733 44.323 67.8949 44.3178 66.2817V35.1439C44.323 33.3166 45.8058 31.839 47.6331 31.8338H102.358C104.186 31.839 105.669 33.3166 105.674 35.1439V39.2998C105.674 39.8741 106.138 40.344 106.718 40.344C107.292 40.344 107.762 39.8741 107.762 39.2998V35.1491C107.757 32.1679 105.34 29.7506 102.358 29.7506L47.6331 29.7454C44.6519 29.7506 42.2346 32.1679 42.2294 35.1439V66.2817C42.2346 69.2629 44.6519 71.675 47.6331 71.6802H47.9516C48.4632 72.3067 49.1576 72.7557 49.9356 72.975V77.4128H36.4871V24.0026L113.505 24.0025ZM50.9793 71.0333C50.2379 71.0333 49.5748 70.5843 49.2929 69.9004C49.0058 69.2217 49.1624 68.4332 49.6897 67.9112C50.2118 67.3891 50.9949 67.2325 51.6789 67.5144C52.3629 67.7963 52.8066 68.4646 52.8066 69.2059C52.8066 69.6863 52.6135 70.1509 52.2689 70.4955C51.9295 70.8401 51.4648 71.0333 50.9793 71.0333ZM36.0994 79.5122H49.9354V85.7042H47.6591C47.0848 85.7042 46.6149 86.1741 46.6149 86.7484C46.6149 87.3227 47.0848 87.7925 47.6591 87.7925H54.3002C54.8745 87.7925 55.3444 87.3227 55.3444 86.7484C55.3444 86.1741 54.8745 85.7042 54.3002 85.7042H52.0239V79.5122H113.892L120.736 93.9951H29.2611L36.0994 79.5122ZM121.336 136.786C121.336 137.089 121.216 137.371 121.002 137.585C120.793 137.794 120.506 137.914 120.208 137.914H29.7818C29.1605 137.914 28.6541 137.413 28.6541 136.786V102.824H71.6484C72.2228 102.824 72.6926 102.355 72.6926 101.78C72.6926 101.206 72.2228 100.736 71.6484 100.736H28.6541V96.0842H121.326L121.336 136.786Z" fill="#663366"/>
<path d="M69.8199 82.0488H63.1527C61.1323 82.0488 59.498 83.683 59.498 85.7035C59.498 87.724 61.1323 89.3582 63.1527 89.3582H69.8251H69.8199C71.8404 89.3582 73.4746 87.724 73.4746 85.7035C73.4746 83.683 71.8404 82.0488 69.8199 82.0488ZM69.8199 87.2697H63.1527C62.2861 87.2697 61.5864 86.5701 61.5864 85.7034C61.5864 84.8367 62.286 84.1371 63.1527 84.1371H69.8251H69.8199C70.6866 84.1371 71.3862 84.8367 71.3862 85.7034C71.3862 86.5701 70.6866 87.2697 69.8199 87.2697Z" fill="#663366"/>
<path d="M89.0591 82.0488H82.392C80.3715 82.0488 78.7373 83.683 78.7373 85.7035C78.7373 87.724 80.3715 89.3582 82.392 89.3582H89.0644H89.0591C91.0796 89.3582 92.7138 87.724 92.7138 85.7035C92.7138 83.683 91.0796 82.0488 89.0591 82.0488ZM89.0591 87.2697H82.392C81.5253 87.2697 80.8257 86.5701 80.8257 85.7034C80.8257 84.8367 81.5253 84.1371 82.392 84.1371H89.0644H89.0591C89.9258 84.1371 90.6254 84.8367 90.6254 85.7034C90.6254 86.5701 89.9258 87.2697 89.0591 87.2697Z" fill="#663366"/>
<path d="M108.304 82.0488H101.631C99.616 82.0488 97.9766 83.683 97.9766 85.7035C97.9766 87.724 99.616 89.3582 101.631 89.3582H108.304C110.324 89.3582 111.958 87.724 111.958 85.7035C111.958 83.683 110.324 82.0488 108.304 82.0488ZM108.304 87.2697H101.631C100.77 87.2697 100.065 86.5701 100.065 85.7034C100.065 84.8367 100.77 84.1371 101.631 84.1371H108.304C109.17 84.1371 109.87 84.8367 109.87 85.7034C109.87 86.5701 109.17 87.2697 108.304 87.2697Z" fill="#663366"/>
<path d="M98.9899 130.415H110.956H110.951C111.99 130.415 112.987 129.997 113.718 129.266C114.454 128.53 114.867 127.533 114.867 126.499V107.474C114.867 106.435 114.454 105.438 113.718 104.707C112.987 103.971 111.99 103.559 110.951 103.559H98.9899C96.8232 103.559 95.0742 105.313 95.0742 107.474V126.499C95.0742 128.66 96.8233 130.415 98.9899 130.415ZM97.1626 107.474C97.1626 106.466 97.9771 105.646 98.9899 105.646H110.956H110.951C111.959 105.646 112.778 106.466 112.778 107.474V126.498C112.778 126.984 112.585 127.449 112.241 127.788C111.901 128.133 111.437 128.326 110.951 128.326H98.99C97.9771 128.326 97.1626 127.506 97.1626 126.498L97.1626 107.474Z" fill="#663366"/>
<path d="M109.066 121.696C109.342 121.696 109.609 121.581 109.802 121.388C110 121.189 110.11 120.928 110.11 120.652V113.322C110.11 112.747 109.64 112.277 109.066 112.277C108.491 112.277 108.021 112.747 108.021 113.322V120.652C108.021 120.928 108.131 121.189 108.33 121.388C108.523 121.581 108.789 121.696 109.066 121.696Z" fill="#663366"/>
<path d="M76.0069 117.143C76.0069 119.112 77.192 120.881 79.0141 121.638C80.8311 122.39 82.9194 121.973 84.3133 120.584C85.7021 119.19 86.1198 117.101 85.368 115.285C84.6109 113.462 82.8411 112.277 80.8727 112.277C78.1892 112.283 76.0121 114.46 76.0069 117.143ZM83.6451 117.143C83.6451 118.266 82.9663 119.279 81.9327 119.707C80.8937 120.135 79.6981 119.9 78.9046 119.106C78.1162 118.313 77.876 117.117 78.3094 116.078C78.7375 115.044 79.7503 114.366 80.8729 114.366C82.4026 114.371 83.6451 115.613 83.6451 117.143Z" fill="#663366"/>
<path d="M64.2337 112.277C62.2654 112.277 60.4955 113.463 59.7385 115.285C58.9867 117.102 59.4044 119.19 60.7931 120.584C62.1871 121.973 64.2755 122.39 66.0923 121.638C67.9144 120.881 69.0943 119.112 69.0943 117.143C69.0943 114.46 66.9173 112.283 64.2337 112.277ZM64.2337 119.921C63.1112 119.921 62.0983 119.242 61.6702 118.203C61.2421 117.169 61.4771 115.974 62.2706 115.18C63.0642 114.387 64.2598 114.152 65.2935 114.58C66.3325 115.008 67.0059 116.021 67.0059 117.143C67.0059 118.673 65.7634 119.916 64.2337 119.921Z" fill="#663366"/>
<path d="M47.5997 112.277C45.6314 112.277 43.8563 113.463 43.1045 115.279C42.3474 117.096 42.7651 119.19 44.1539 120.579C45.5479 121.973 47.6363 122.39 49.4531 121.638C51.27 120.881 52.4551 119.112 52.4603 117.143C52.4551 114.46 50.2832 112.283 47.5944 112.277L47.5997 112.277ZM47.5997 119.921C46.472 119.921 45.4643 119.242 45.031 118.208C44.6029 117.169 44.8378 115.974 45.6314 115.18C46.425 114.387 47.6206 114.152 48.6543 114.58C49.6932 115.008 50.3667 116.021 50.372 117.143C50.3668 118.673 49.1294 119.916 47.5997 119.921Z" fill="#663366"/>
<path d="M39.4661 133.213H33.8745V126.896C33.8745 126.316 33.4098 125.852 32.8303 125.852C32.256 125.852 31.7861 126.316 31.7861 126.896V133.344C31.7861 133.866 31.995 134.362 32.3657 134.727C32.7311 135.098 33.2271 135.301 33.7493 135.301H39.4661C40.0404 135.301 40.5103 134.832 40.5103 134.257C40.5103 133.683 40.0404 133.213 39.4661 133.213Z" fill="#663366"/>
<path d="M51.7034 17.2622H55.6034C56.1777 17.2622 56.6476 16.7923 56.6476 16.218C56.6476 15.6437 56.1777 15.1738 55.6034 15.1738H51.7034C51.1291 15.1738 50.6592 15.6437 50.6592 16.218C50.6592 16.7923 51.1291 17.2622 51.7034 17.2622Z" fill="#663366"/>
<path d="M90.94 46.4407C90.8095 45.9552 90.4179 45.5793 89.9271 45.4696L85.8862 44.5508L88.3714 39.1418C88.6115 38.6198 88.4967 38.0141 88.0947 37.6122C87.6927 37.2101 87.087 37.1005 86.565 37.3354L81.1561 39.8206L80.2372 35.7797H80.2424C80.1275 35.2889 79.7516 34.8974 79.2661 34.7668C78.7753 34.6363 78.2584 34.7877 77.9139 35.1584L74.9954 38.3171L72.0769 35.1636V35.1584C71.7323 34.7877 71.2154 34.6363 70.7247 34.7668C70.2391 34.8974 69.8632 35.2889 69.7484 35.7797L68.8295 39.8206L63.4206 37.3354H63.4258C62.9037 37.1005 62.2928 37.2101 61.8909 37.6121C61.4889 38.0142 61.3792 38.625 61.6194 39.1418L64.1046 44.5508L60.0636 45.4696C59.5729 45.5793 59.1813 45.9552 59.0508 46.4407C58.9203 46.9315 59.0665 47.4536 59.4424 47.7981L62.601 50.7219L59.4424 53.6404H59.4371C59.0665 53.9849 58.9203 54.507 59.0508 54.9926C59.1813 55.4833 59.5729 55.8592 60.0637 55.9689L64.1046 56.8878L61.6194 62.2967L61.6142 62.2915C61.3792 62.8135 61.4889 63.4244 61.8909 63.8264C62.2929 64.2284 62.9037 64.338 63.4206 64.0978L68.8295 61.6126L69.7484 65.6536C69.8632 66.1496 70.2391 66.5359 70.7247 66.6665C71.2155 66.797 71.7323 66.6508 72.0769 66.2801L74.9954 63.111L77.9139 66.2645V66.2697C78.1697 66.5464 78.53 66.7082 78.9111 66.7082C79.5481 66.7082 80.1015 66.2645 80.2424 65.6432L81.1613 61.6022L86.5702 64.0874C87.0871 64.3276 87.698 64.2179 88.0999 63.8159C88.5019 63.4139 88.6116 62.8031 88.3766 62.281L85.8914 56.8721L89.9324 55.9532V55.9584C90.4232 55.8436 90.8095 55.4677 90.94 54.9821C91.0706 54.4913 90.9244 53.9745 90.5537 53.6299L87.3898 50.7218L90.5485 47.8033H90.5537C90.9244 47.4588 91.0757 46.9315 90.94 46.4407ZM85.3954 49.709C85.1187 49.9701 84.9621 50.3355 84.9621 50.7114C84.9621 51.0926 85.1187 51.4528 85.3954 51.7139L88.1208 54.2303L84.5548 55.0396V55.0344C84.1528 55.1283 83.8135 55.3946 83.6307 55.7601C83.448 56.1307 83.4376 56.5589 83.6099 56.9348L85.646 61.3726L81.2082 59.3364C80.8375 59.1641 80.4094 59.1694 80.0387 59.3469C79.6732 59.5296 79.407 59.869 79.3182 60.2658L78.509 63.8317L75.9925 61.1115L75.9873 61.1168C75.7315 60.8348 75.3712 60.6782 74.9901 60.6782C74.609 60.6782 74.2487 60.8348 73.9929 61.1168L71.4764 63.8369L70.6672 60.271H70.662C70.5732 59.869 70.3069 59.5296 69.9415 59.3469C69.5708 59.1694 69.1427 59.1641 68.772 59.3364L64.3342 61.3725L66.3703 56.9348C66.5426 56.5641 66.5374 56.1308 66.3547 55.7601C66.1719 55.3946 65.8326 55.1283 65.4306 55.0343L61.8646 54.2251L64.59 51.7086V51.7139C64.8667 51.4528 65.0233 51.0926 65.0233 50.7114C65.0233 50.3303 64.8667 49.9701 64.59 49.7142L61.8698 47.1978L65.4306 46.3885H65.4358C65.8326 46.2998 66.1719 46.0335 66.3547 45.6628C66.5374 45.2921 66.5426 44.864 66.3703 44.4933L64.3342 40.0556L68.772 42.0917C69.1427 42.264 69.5708 42.2587 69.9415 42.076C70.3069 41.8933 70.5732 41.5591 70.6672 41.1571L71.4764 37.5912L73.9929 40.3113C74.2487 40.5881 74.609 40.7499 74.9901 40.7499C75.3712 40.7499 75.7315 40.5881 75.9925 40.3113L78.509 37.5912L79.3182 41.1571C79.407 41.5591 79.6732 41.8933 80.0387 42.076C80.4094 42.2587 80.8375 42.2639 81.2134 42.0917L85.6512 40.0556L83.6151 44.4933C83.4428 44.864 83.448 45.2921 83.6255 45.6628C83.8083 46.0283 84.1476 46.2946 84.5496 46.3885L88.1156 47.1978L85.3954 49.709Z" fill="#663366"/>
<path d="M76.9573 102.823H82.857C83.4313 102.823 83.9012 102.353 83.9012 101.779C83.9012 101.204 83.4313 100.734 82.857 100.734H76.9573C76.383 100.734 75.9131 101.204 75.9131 101.779C75.9131 102.353 76.383 102.823 76.9573 102.823Z" fill="#663366"/>
<path d="M30.0941 79.24C30.6109 79.1669 30.9921 78.7284 30.9921 78.2063C30.9921 77.6842 30.6109 77.2456 30.0941 77.1725C27.0868 76.734 25.4788 75.1312 25.0403 72.1292C24.962 71.6123 24.5182 71.2312 23.9961 71.2364C23.474 71.2312 23.0302 71.6071 22.9519 72.1239C22.5029 75.126 20.8948 76.734 17.8876 77.1883V77.1831C17.3811 77.2614 17 77.6999 17 78.2168C17 78.7337 17.3811 79.1722 17.8876 79.2506C20.9052 79.6787 22.5132 81.2867 22.9361 84.3044H22.9414C23.0197 84.8212 23.4739 85.1971 24.0012 85.1815C24.5233 85.1867 24.9671 84.8108 25.0454 84.2939C25.4996 81.3075 27.1078 79.6994 30.0941 79.24ZM24.0169 80.8376C23.4008 79.7256 22.4872 78.8119 21.375 78.1958C22.4662 77.5745 23.3694 76.6765 23.9855 75.5853C24.6068 76.6922 25.5308 77.6058 26.6482 78.2168C25.5518 78.838 24.6433 79.7412 24.0273 80.8376H24.0169Z" fill="#663366"/>
<path d="M131.296 35.5143C128.284 35.0758 126.676 33.473 126.242 30.4605C126.164 29.9541 125.726 29.5782 125.209 29.5782C124.692 29.573 124.243 29.9541 124.164 30.4657C123.715 33.4678 122.107 35.0758 119.105 35.5301H119.111C118.599 35.6084 118.218 36.047 118.218 36.5638C118.218 37.0807 118.599 37.5193 119.111 37.5976C122.128 38.0257 123.736 39.6285 124.164 42.6514L124.159 42.6462C124.232 43.1578 124.666 43.5389 125.188 43.5442C125.699 43.5442 126.138 43.1683 126.216 42.6566C126.676 39.6598 128.284 38.0518 131.281 37.5923V37.5975C131.797 37.5192 132.179 37.0806 132.179 36.5637C132.179 36.0416 131.797 35.6031 131.281 35.53L131.296 35.5143ZM125.224 39.169C124.608 38.0569 123.695 37.1433 122.588 36.5272C123.679 35.9111 124.582 35.0079 125.198 33.9167C125.814 35.0288 126.733 35.9424 127.845 36.5586C126.749 37.1799 125.845 38.083 125.224 39.1742V39.169Z" fill="#663366"/>
</svg>
