<svg width="150" height="150" viewBox="0 0 150 150" fill="none" xmlns="http://www.w3.org/2000/svg">
<path d="M31.943 86.9688C29.3028 86.9688 27.1553 89.1162 27.1553 91.7564C27.1553 94.3966 29.3042 96.5441 31.943 96.5441C34.5817 96.5441 36.7306 94.3966 36.7306 91.7564C36.7306 89.1162 34.5831 86.9688 31.943 86.9688ZM31.943 93.6712C30.8872 93.6712 30.0282 92.8122 30.0282 91.7564C30.0282 90.7006 30.8872 89.8416 31.943 89.8416C32.9987 89.8416 33.8577 90.7006 33.8577 91.7564C33.8577 92.8122 32.9987 93.6712 31.943 93.6712Z" fill="#663366"/>
<path d="M60.672 86.9688C58.0318 86.9688 55.8843 89.1162 55.8843 91.7564C55.8843 94.3966 58.0332 96.5441 60.672 96.5441C63.3107 96.5441 65.4596 94.3966 65.4596 91.7564C65.4596 89.1162 63.3122 86.9688 60.672 86.9688ZM60.672 93.6712C59.6162 93.6712 58.7572 92.8122 58.7572 91.7564C58.7572 90.7006 59.6162 89.8416 60.672 89.8416C61.7277 89.8416 62.5867 90.7006 62.5867 91.7564C62.5867 92.8122 61.7277 93.6712 60.672 93.6712Z" fill="#663366"/>
<path d="M102.329 86.9688C99.689 86.9688 97.5415 89.1162 97.5415 91.7564C97.5415 94.3966 99.689 96.5441 102.329 96.5441C104.969 96.5441 107.117 94.3966 107.117 91.7564C107.117 89.1162 104.969 86.9688 102.329 86.9688ZM102.329 93.6712C101.273 93.6712 100.414 92.8122 100.414 91.7564C100.414 90.7006 101.273 89.8416 102.329 89.8416C103.385 89.8416 104.244 90.7006 104.244 91.7564C104.244 92.8122 103.386 93.6712 102.329 93.6712Z" fill="#663366"/>
<path d="M134.373 52.0132H129.669C129.477 48.2885 126.413 45.3093 122.641 45.3093H101.924C100.794 42.7266 98.2338 41 95.3494 41H41.1609C38.2765 41 35.7153 42.7266 34.5862 45.3093H17.0645C13.1688 45.3093 10 48.4781 10 52.3738V86.1275C10 90.0231 13.1688 93.1919 17.0645 93.1919H21.5189C21.8536 95.6324 23.0243 97.8043 24.7351 99.416H11.4379C10.645 99.416 10.0014 100.058 10.0014 100.852C10.0014 101.647 10.645 102.289 11.4379 102.289H83.2603C84.0547 102.289 84.6967 101.647 84.6967 100.852C84.6967 100.058 84.0547 99.416 83.2603 99.416H67.8802C69.5925 97.8043 70.7618 95.6324 71.0965 93.1919H91.9048C92.2395 95.6324 93.4102 97.8043 95.1225 99.416H92.093C91.2987 99.416 90.6566 100.058 90.6566 100.852C90.6566 101.647 91.2987 102.289 92.093 102.289H119.291C120.085 102.289 120.727 101.647 120.727 100.852C120.727 100.058 120.085 99.416 119.291 99.416H109.537C111.249 97.8043 112.419 95.6324 112.753 93.1919H122.641C126.536 93.1919 129.705 90.0231 129.705 86.1275V54.8861H134.373C135.892 54.8861 137.127 56.1215 137.127 57.6398C137.127 58.4327 137.769 59.0763 138.564 59.0763C139.358 59.0763 140 58.4327 140 57.6398C140 54.5371 137.476 52.0132 134.373 52.0132ZM41.1609 43.8743H95.3494C96.6035 43.8743 97.7526 44.4216 98.5513 45.3108H37.959C38.7577 44.4202 39.9069 43.8743 41.1609 43.8743ZM31.9432 99.416C27.7186 99.416 24.2826 95.9786 24.2826 91.7555C24.2826 87.5323 27.72 84.0949 31.9432 84.0949C36.1663 84.0949 39.6038 87.5323 39.6038 91.7555C39.6038 95.9786 36.1678 99.416 31.9432 99.416ZM39.1513 99.416C40.8635 97.8043 42.0328 95.6324 42.3675 93.1919H50.2478C50.5825 95.6324 51.7532 97.8043 53.464 99.416H39.1513ZM60.6721 99.416C56.4476 99.416 53.0116 95.9786 53.0116 91.7555C53.0116 87.5323 56.449 84.0949 60.6721 84.0949C64.8953 84.0949 68.3327 87.5323 68.3327 91.7555C68.3327 95.9786 64.8967 99.416 60.6721 99.416ZM102.329 99.416C98.1046 99.416 94.6671 95.9786 94.6671 91.7555C94.6671 87.5323 98.1046 84.0949 102.329 84.0949C106.552 84.0949 109.99 87.5323 109.99 91.7555C109.99 95.9786 106.554 99.416 102.329 99.416ZM126.832 86.1275C126.832 88.4387 124.952 90.319 122.641 90.319H112.753C112.05 85.1909 107.648 81.222 102.329 81.222C97.0085 81.222 92.6087 85.1909 91.9034 90.319H71.0965C70.3926 85.1909 65.9928 81.222 60.6721 81.222C55.3515 81.222 50.9531 85.1909 50.2478 90.319H42.3675C41.6636 85.1909 37.2638 81.222 31.9432 81.222C26.6226 81.222 22.2242 85.1909 21.5189 90.319H17.0645C14.7532 90.319 12.8729 88.4387 12.8729 86.1275V52.3738C12.8729 50.0626 14.7532 48.1822 17.0645 48.1822H103.419L117.393 77.5289C117.632 78.0302 118.137 78.3477 118.69 78.3477H126.832V86.1275ZM126.832 75.4762H119.6L106.603 48.1837H122.641C124.828 48.1837 126.609 49.8744 126.796 52.0147H119.291C118.496 52.0147 117.854 52.6582 117.854 53.4511C117.854 54.2441 118.496 54.8876 119.291 54.8876H126.832V75.4762Z" fill="#663366"/>
<path d="M100.893 52.0137H22.4496C21.6567 52.0137 21.0132 52.6572 21.0132 53.4501V69.2511C21.0132 70.044 21.6567 70.6875 22.4496 70.6875H100.893C101.687 70.6875 102.329 70.044 102.329 69.2511V53.4501C102.329 52.6572 101.687 52.0137 100.893 52.0137ZM30.8184 57.1289C31.5309 57.1289 32.1112 57.7078 32.1112 58.4202C32.1112 59.1327 31.5309 59.713 30.8184 59.713C30.1059 59.713 29.527 59.1327 29.527 58.4202C29.527 57.7078 30.1059 57.1289 30.8184 57.1289ZM27.5821 67.8146C28.0719 66.46 29.3704 65.5134 30.8442 65.5134C32.3209 65.5134 33.6137 66.4485 34.1035 67.8146H27.5821ZM37.0123 67.8146C37.0195 67.6724 37.0267 67.5302 36.9879 67.3851C36.2611 64.5926 33.7344 62.6419 30.8442 62.6419C27.8622 62.6419 25.2507 64.7564 24.633 67.671C24.623 67.7198 24.6373 67.7672 24.6316 67.816H23.8861V54.888H28.6393C27.4528 55.622 26.6541 56.9263 26.6541 58.4202C26.6541 60.7171 28.5229 62.5859 30.8184 62.5859C33.1153 62.5859 34.9841 60.7171 34.9841 58.4202C34.9841 56.9249 34.1854 55.622 32.9975 54.888H37.6889V67.3363C37.6889 67.5058 37.732 67.6638 37.7852 67.8146H37.0123ZM47.5257 67.8146C48.1506 66.8335 49.248 66.1943 50.4604 66.1943C51.6756 66.1943 52.7702 66.8292 53.3936 67.8146H47.5257ZM56.5164 67.8146C55.7034 65.16 53.26 63.3214 50.4618 63.3214C47.6694 63.3214 45.2231 65.1859 44.4144 67.8146H40.4656C40.5202 67.6638 40.5618 67.5058 40.5618 67.3363V54.8866H59.6364V67.3363C59.6364 67.5058 59.6795 67.6638 59.7326 67.8146H56.5164ZM69.0724 67.8146C69.6973 66.8335 70.7947 66.1943 72.0071 66.1943C73.2238 66.1943 74.3169 66.8292 74.9418 67.8146H69.0724ZM78.0632 67.8146C77.2501 65.16 74.8082 63.3214 72.0085 63.3214C69.2161 63.3214 66.7698 65.1859 65.9611 67.8146H62.4131C62.4676 67.6638 62.5093 67.5058 62.5093 67.3363V54.8866H81.8238V67.3363C81.8238 67.5058 81.8669 67.6638 81.92 67.8146H78.0632ZM89.1827 67.8146C89.8061 66.8335 90.905 66.1943 92.1174 66.1943C93.334 66.1943 94.4272 66.8292 95.052 67.8146H89.1827ZM99.4562 67.8146H98.172C97.359 65.16 94.9156 63.3214 92.1159 63.3214C89.3235 63.3214 86.8787 65.1859 86.0699 67.8146H84.6004C84.655 67.6638 84.6967 67.5058 84.6967 67.3363V54.8866H99.4562V67.8146Z" fill="#663366"/>
<path d="M50.4347 54.9355C48.1379 54.9355 46.269 56.8044 46.269 59.1012C46.269 61.3981 48.1379 63.2655 50.4347 63.2655C52.7316 63.2655 54.599 61.3967 54.599 59.1012C54.6004 56.8044 52.7316 54.9355 50.4347 54.9355ZM50.4347 60.394C49.7223 60.394 49.1419 59.8152 49.1419 59.1027C49.1419 58.3902 49.7223 57.8099 50.4347 57.8099C51.1472 57.8099 51.7261 58.3902 51.7261 59.1027C51.7261 59.8152 51.1487 60.394 50.4347 60.394Z" fill="#663366"/>
<path d="M71.9811 54.9355C69.6842 54.9355 67.8154 56.8044 67.8154 59.1012C67.8154 61.3981 69.6842 63.2655 71.9811 63.2655C74.278 63.2655 76.1454 61.3967 76.1454 59.1012C76.1468 56.8044 74.278 54.9355 71.9811 54.9355ZM71.9811 60.394C71.2686 60.394 70.6883 59.8152 70.6883 59.1027C70.6883 58.3902 71.2686 57.8099 71.9811 57.8099C72.6936 57.8099 73.2725 58.3902 73.2725 59.1027C73.2725 59.8152 72.695 60.394 71.9811 60.394Z" fill="#663366"/>
<path d="M92.0915 63.2655C94.3884 63.2655 96.2558 61.3967 96.2558 59.1012C96.2558 56.8044 94.387 54.9355 92.0915 54.9355C89.7961 54.9355 87.9272 56.8044 87.9272 59.1012C87.9272 61.3967 89.7961 63.2655 92.0915 63.2655ZM92.0915 57.807C92.804 57.807 93.3829 58.3873 93.3829 59.0998C93.3829 59.8123 92.804 60.3912 92.0915 60.3912C91.379 60.3912 90.8001 59.8123 90.8001 59.0998C90.8001 58.3873 91.379 57.807 92.0915 57.807Z" fill="#663366"/>
<path d="M105.68 106.479H20.1757C19.3828 106.479 18.7393 107.121 18.7393 107.915C18.7393 108.709 19.3828 109.351 20.1757 109.351H105.68C106.475 109.351 107.117 108.709 107.117 107.915C107.117 107.121 106.475 106.479 105.68 106.479Z" fill="#663366"/>
</svg>
