<svg width="150" height="150" viewBox="0 0 150 150" fill="none" xmlns="http://www.w3.org/2000/svg">
<path d="M13.1309 94.2393C13.5303 94.1633 13.9339 94.3949 14.0527 94.7959L14.3213 95.6719C14.9648 97.7144 15.7197 99.7372 16.5518 101.704H16.5527C16.7341 102.115 16.5442 102.589 16.1338 102.763L16.1299 102.765C16.0319 102.802 15.9231 102.826 15.8184 102.826C15.5095 102.826 15.2175 102.644 15.084 102.346V102.344C14.2194 100.328 13.4514 98.2566 12.79 96.1602L12.5137 95.2607V95.2598C12.3881 94.8356 12.623 94.3856 13.0508 94.2588L13.1309 94.2393Z" fill="#663366" stroke="#663366" stroke-width="0.25"/>
<path d="M18.8306 107.947C19.2079 107.783 19.6503 107.922 19.8579 108.284H19.8589C21.0761 110.399 22.4257 112.475 23.8755 114.443L23.9214 114.513C24.1317 114.867 24.0422 115.326 23.7085 115.57L23.7095 115.571C23.5599 115.681 23.3928 115.729 23.228 115.729C22.982 115.728 22.7382 115.61 22.5815 115.398V115.397C21.2789 113.633 20.0526 111.788 18.9302 109.9L18.4556 109.089L18.4546 109.088C18.2351 108.696 18.3683 108.207 18.7554 107.985L18.7563 107.984L18.8306 107.947Z" fill="#663366" stroke="#663366" stroke-width="0.25"/>
<path d="M14.9604 50.8789C15.1565 50.5266 15.5957 50.3635 15.981 50.5264H15.9819L16.0552 50.5625C16.3836 50.7456 16.5478 51.1401 16.436 51.5049L16.4077 51.583C15.4502 53.8372 14.6249 56.165 13.9399 58.5127C13.8373 58.8671 13.5146 59.0956 13.1675 59.0957C13.0913 59.0957 13.0186 59.0876 12.938 59.0635V59.0625C12.512 58.9358 12.2681 58.4864 12.4019 58.0537C13.1028 55.6512 13.9499 53.2615 14.9243 50.9521L14.9253 50.9512L14.9604 50.8789Z" fill="#663366" stroke="#663366" stroke-width="0.25"/>
<path d="M11.5596 64.7344L11.6426 64.7451L11.7217 64.7637C12.1095 64.8746 12.3688 65.2588 12.2959 65.6738L12.2969 65.6748C11.9419 67.7815 11.6888 69.9241 11.542 72.0664L11.4854 72.9844C11.4617 73.4173 11.1067 73.749 10.6807 73.749H10.6338C10.1824 73.7251 9.85258 73.343 9.87598 72.8906L9.93457 71.9512C10.0866 69.7577 10.3429 67.5562 10.7109 65.4004V65.3984L10.7295 65.3193C10.8334 64.9568 11.1762 64.7058 11.5596 64.7344Z" fill="#663366" stroke="#663366" stroke-width="0.25"/>
<path d="M10.6479 79.583C11.088 79.5594 11.4751 79.8966 11.4995 80.3398L11.563 81.2578C11.7259 83.4012 11.9904 85.547 12.3569 87.6416L12.3677 87.7236C12.3989 88.1286 12.1151 88.4996 11.7026 88.5732L11.6919 88.5752H11.6812C11.6672 88.5752 11.6522 88.5764 11.6313 88.5781C11.6122 88.5797 11.5871 88.582 11.561 88.582C11.181 88.582 10.8429 88.3059 10.772 87.9199V87.9189C10.3923 85.7694 10.1145 83.5688 9.95264 81.375L9.89014 80.4346C9.86655 79.9942 10.2042 79.6069 10.6479 79.583Z" fill="#663366" stroke="#663366" stroke-width="0.25"/>
<path d="M111.594 129.17C111.952 128.982 112.411 129.074 112.637 129.421H112.636C112.886 129.789 112.801 130.286 112.429 130.539L112.428 130.538C110.36 131.959 108.198 133.273 105.983 134.441L105.984 134.442C105.87 134.508 105.735 134.539 105.609 134.539C105.36 134.539 105.118 134.424 104.961 134.211L104.899 134.113L104.898 134.111C104.695 133.72 104.834 133.23 105.231 133.023L106.039 132.588C107.919 131.557 109.759 130.423 111.522 129.213L111.524 129.212L111.594 129.17Z" fill="#663366" stroke="#663366" stroke-width="0.25"/>
<path d="M136.846 94.1172C136.958 93.7161 137.36 93.4783 137.759 93.5469L137.839 93.5645L137.841 93.5654L137.918 93.5928C138.294 93.7457 138.512 94.1576 138.392 94.5547L138.391 94.5537C137.697 96.9628 136.863 99.3584 135.895 101.668L135.896 101.669C135.77 101.977 135.469 102.166 135.154 102.166C135.048 102.166 134.946 102.142 134.849 102.104L134.847 102.104C134.436 101.937 134.239 101.464 134.413 101.054H134.412C135.349 98.799 136.175 96.4645 136.846 94.1172Z" fill="#663366" stroke="#663366" stroke-width="0.25"/>
<path d="M131.239 107.598C131.475 107.266 131.927 107.153 132.291 107.36L132.36 107.405C132.692 107.642 132.799 108.094 132.599 108.45L132.598 108.449C131.376 110.632 130.015 112.769 128.546 114.806L128.545 114.807C128.387 115.019 128.136 115.137 127.892 115.137C127.728 115.137 127.562 115.09 127.419 114.986H127.418C127.087 114.743 126.987 114.285 127.192 113.934L127.237 113.865C128.667 111.884 130.004 109.802 131.194 107.668V107.667L131.239 107.598Z" fill="#663366" stroke="#663366" stroke-width="0.25"/>
<path d="M122.661 119.511C122.944 119.26 123.366 119.242 123.677 119.461L123.742 119.511L123.746 119.515L123.802 119.573C124.07 119.877 124.074 120.34 123.793 120.649H123.792C122.104 122.499 120.287 124.275 118.398 125.917L118.397 125.918C118.241 126.051 118.059 126.114 117.87 126.114C117.676 126.114 117.477 126.042 117.325 125.902L117.262 125.838C116.971 125.499 117.01 124.995 117.34 124.703L117.341 124.702L118.029 124.096C119.624 122.666 121.159 121.145 122.602 119.568V119.567L122.661 119.511Z" fill="#663366" stroke="#663366" stroke-width="0.25"/>
<path d="M97.0815 15.3262C97.2622 14.9664 97.6882 14.7791 98.0825 14.9277L98.0815 14.9287C100.132 15.6881 102.173 16.5589 104.149 17.5254L104.992 17.9453L105.064 17.9873C105.41 18.2088 105.537 18.6476 105.346 19.0244L105.347 19.0254C105.205 19.3101 104.919 19.4678 104.628 19.4678C104.513 19.4677 104.386 19.4448 104.265 19.3809L103.442 18.9707C101.511 18.0253 99.5239 17.1746 97.522 16.4355V16.4346C97.1033 16.2836 96.8909 15.8177 97.0483 15.4004H97.0493L97.0815 15.3262Z" fill="#663366" stroke="#663366" stroke-width="0.25"/>
<path d="M83.4492 11.377L84.3809 11.499C86.5557 11.7997 88.733 12.2115 90.8594 12.7256H90.8584C91.2668 12.8221 91.521 13.2111 91.4668 13.6152L91.4512 13.6953C91.364 14.0676 91.0319 14.3115 90.6699 14.3115C90.6061 14.3115 90.5424 14.3038 90.4795 14.2881V14.2871C88.1128 13.7088 85.679 13.2709 83.252 12.9717V12.9707C82.8069 12.922 82.5029 12.5114 82.5498 12.0811V12.0791L82.5645 11.998C82.6555 11.6 83.0345 11.3251 83.4492 11.377Z" fill="#663366" stroke="#663366" stroke-width="0.25"/>
<path d="M75.9385 10.877H75.9395L76.0205 10.8828C76.396 10.9273 76.6997 11.2292 76.7324 11.6084L76.7354 11.6904C76.7274 12.134 76.363 12.4785 75.9258 12.4863H75.9229C73.4754 12.4664 70.9941 12.5861 68.5732 12.8389L68.5723 12.8369C68.5376 12.8436 68.51 12.8467 68.4873 12.8467C68.0778 12.8466 67.7308 12.5392 67.6904 12.1221L67.6855 12.0391C67.6837 11.6308 67.9943 11.2817 68.4072 11.2373H68.4082L69.3418 11.1465C71.5253 10.9494 73.7422 10.8594 75.9385 10.877Z" fill="#663366" stroke="#663366" stroke-width="0.25"/>
<path d="M110.445 21.9043C110.702 21.5886 111.162 21.5129 111.509 21.7422L112.29 22.2666C114.103 23.5041 115.866 24.8407 117.542 26.2539L117.603 26.3096C117.888 26.5971 117.903 27.0665 117.639 27.3828L117.64 27.3838C117.481 27.5745 117.251 27.6689 117.024 27.6689C116.887 27.6689 116.75 27.6335 116.627 27.5625L116.51 27.4795C114.635 25.9101 112.653 24.4271 110.618 23.0771V23.0762C110.249 22.8325 110.144 22.3362 110.396 21.9707L110.445 21.9043Z" fill="#663366" stroke="#663366" stroke-width="0.25"/>
<path d="M130.929 43.1885C131.313 42.9624 131.809 43.0872 132.031 43.4746L132.497 44.29C133.573 46.2035 134.567 48.1866 135.443 50.1904H135.442C135.623 50.5927 135.442 51.0746 135.03 51.249L135.026 51.25C134.927 51.2881 134.813 51.3115 134.709 51.3115C134.4 51.3115 134.108 51.1303 133.975 50.832V50.8301C133.125 48.8753 132.158 46.9411 131.102 45.085L130.643 44.2939C130.415 43.909 130.54 43.4106 130.929 43.1885Z" fill="#663366" stroke="#663366" stroke-width="0.25"/>
<path d="M121.883 31.3975C122.206 31.0919 122.717 31.1072 123.018 31.4307L123.66 32.1172C125.146 33.733 126.557 35.4392 127.872 37.1914L127.917 37.2598C128.129 37.6083 128.046 38.0658 127.714 38.3174L127.715 38.3184C127.57 38.4315 127.395 38.4775 127.232 38.4775C127.019 38.4775 126.804 38.3939 126.648 38.2295L126.585 38.1543C125.305 36.4433 123.928 34.7785 122.477 33.2041L121.851 32.5352C121.544 32.2119 121.559 31.6985 121.883 31.3975Z" fill="#663366" stroke="#663366" stroke-width="0.25"/>
<path d="M39.2344 13.1602L39.4473 13.166C41.6367 13.2772 43.3836 15.0931 43.3838 17.3096V18.8906H55.1348V17.3096C55.135 15.0217 56.9973 13.1602 59.2852 13.1602H60.2383L60.4502 13.166C62.6336 13.2773 64.3807 15.0933 64.3809 17.3096V18.8906H71.6924C73.2357 18.8906 74.6275 19.519 75.6328 20.4062C76.6354 21.2911 77.2686 22.4474 77.2686 23.5137V67.4121C77.2685 69.3187 76.6991 70.9499 75.7148 72.1064C74.7294 73.2642 73.3324 73.9403 71.6934 73.9404H27.8721L26.8398 73.9336C25.201 73.9335 23.804 73.2594 22.8184 72.1025C21.8339 70.9467 21.2647 69.3152 21.2646 67.4053V23.5137C21.2646 22.4473 21.8977 21.2913 22.9004 20.4072C23.9056 19.521 25.2967 18.8943 26.8398 18.8975L34.1387 18.8906V17.3096C34.1389 15.0221 35.9933 13.1603 38.2812 13.1602H39.2344ZM22.874 67.4121L22.8789 67.6875C22.926 69.0516 23.3229 70.1842 23.9746 70.9873C24.668 71.8417 25.6557 72.3311 26.8408 72.3311H71.6924C72.8773 72.331 73.8643 71.8415 74.5576 70.9873C75.2527 70.1307 75.6581 68.8994 75.6582 67.4121V29.0889H22.874V67.4121ZM38.2881 14.7754C36.8912 14.7754 35.7539 15.9126 35.7539 17.3096V21.6006L35.7676 21.8594C35.8976 23.1353 36.9784 24.1348 38.2881 24.1348H39.7207C40.1703 24.1349 40.5254 24.4981 40.5254 24.9395C40.5253 25.3889 40.1619 25.744 39.7207 25.7441H38.2881C36.0069 25.7441 34.1445 23.8887 34.1445 21.6006V20.499L26.8398 20.4932C25.7082 20.4932 24.7132 20.9553 24.001 21.5693C23.2836 22.1879 22.874 22.9417 22.874 23.5068V27.4727L75.6514 27.4785V23.5127C75.6512 22.9442 75.2406 22.1917 74.5234 21.5742C73.8113 20.9611 72.8172 20.5001 71.6855 20.5H59.2783C58.8288 20.5 58.4738 20.1366 58.4736 19.6953C58.4736 19.2457 58.8369 18.8906 59.2783 18.8906H62.7715V17.3096C62.7715 15.9126 61.6342 14.7754 60.2373 14.7754H59.2842C57.8874 14.7756 56.751 15.9128 56.751 17.3096V19.6953L56.7441 21.6016C56.7446 22.9981 57.8817 24.1348 59.2783 24.1348H60.7109C61.1604 24.135 61.5156 24.4982 61.5156 24.9395C61.5155 25.3888 61.1521 25.7439 60.7109 25.7441H59.2783C56.9906 25.7441 55.1279 23.8889 55.1279 21.6006V20.5H38.2812C37.8318 20.4999 37.4768 20.1365 37.4766 19.6953C37.4766 19.2457 37.8399 18.8907 38.2812 18.8906H41.7744V17.3096C41.7744 15.9127 40.638 14.7755 39.2412 14.7754H38.2881Z" fill="#663366" stroke="#663366" stroke-width="0.25"/>
<path d="M35.896 51.8281C36.3455 51.8283 36.7007 52.1915 36.7007 52.6328V55.2559L38.439 53.5176C38.7543 53.2022 39.2603 53.2022 39.5757 53.5176C39.8908 53.8329 39.8908 54.338 39.5757 54.6533L36.7007 57.5283V60.6562L39.6724 59.6855L41.522 56.0605L41.563 55.9883C41.7852 55.6425 42.2309 55.5141 42.6021 55.7061H42.603C43.0025 55.9098 43.1612 56.3902 42.9565 56.7861L42.9575 56.7871L41.8413 58.9766L44.3394 58.1641H44.3403L44.4194 58.1436C44.8144 58.0609 45.2254 58.2783 45.3354 58.6699H45.3364C45.4779 59.0943 45.2501 59.5525 44.8228 59.6875L44.8237 59.6885L42.3247 60.501L44.5151 61.6172L44.5874 61.6582C44.9332 61.8803 45.0603 62.3252 44.8687 62.6963L44.8696 62.6973C44.7273 62.9818 44.4428 63.1396 44.1519 63.1396C44.0356 63.1396 43.9079 63.1163 43.7866 63.0518V63.0508L40.1626 61.2031L37.1899 62.1729L39.0317 64.7041L43.0317 65.3428H43.0308C43.4662 65.4064 43.7637 65.8165 43.6948 66.2559L43.6958 66.2568C43.6401 66.6544 43.2916 66.9374 42.9058 66.9375C42.8766 66.9375 42.8262 66.9372 42.7798 66.9287V66.9297L40.3442 66.543L41.8862 68.6641L41.9331 68.7334C42.1436 69.0893 42.0455 69.5484 41.7134 69.792H41.7124C41.5689 69.8956 41.3962 69.9423 41.2397 69.9424C40.9897 69.9424 40.7432 69.8326 40.5845 69.6104V69.6094L39.0425 67.4883L38.6577 69.9238C38.6011 70.3204 38.2529 70.6025 37.8677 70.6025C37.8388 70.6025 37.7895 70.602 37.7437 70.5938V70.5947C37.7425 70.5946 37.7409 70.5939 37.7397 70.5938H37.7368V70.5928C37.3036 70.5261 37.0072 70.1163 37.0776 69.6777L37.7153 65.6572L35.8755 63.1338L34.0347 65.6641L34.6733 69.6846L34.6821 69.7656C34.7068 70.1689 34.4239 70.5339 34.0103 70.6006L33.9995 70.6025H33.9897C33.9799 70.6026 33.9673 70.6037 33.9478 70.6055C33.9308 70.607 33.9066 70.6094 33.8833 70.6094C33.5439 70.6094 33.2418 70.3914 33.1294 70.0732L33.0933 69.9307L32.7075 67.4961L31.1655 69.6182V69.6191C31.008 69.8318 30.7562 69.9492 30.5112 69.9492C30.3885 69.9492 30.2645 69.9229 30.1499 69.8662L30.0386 69.7988L30.0366 69.7979C29.6838 69.5313 29.6027 69.0273 29.8638 68.6709L31.4058 66.5498L28.9722 66.9355L28.9624 66.9375H28.9526C28.9428 66.9375 28.9301 66.9387 28.9106 66.9404C28.8937 66.942 28.8686 66.9443 28.8452 66.9443C28.4577 66.9441 28.1195 66.6598 28.0562 66.2666L28.0464 66.1855C28.0213 65.7818 28.3051 65.4162 28.7192 65.3496L32.7397 64.7109L34.5796 62.1797L31.6079 61.21L27.9829 63.0596L27.979 63.0615C27.8656 63.1144 27.7409 63.1465 27.6196 63.1465C27.3268 63.1465 27.0435 62.9804 26.9019 62.7051L26.9009 62.7041C26.7034 62.3092 26.8623 61.8284 27.2554 61.624H27.2563L29.4458 60.5078L26.9478 59.6953L26.9468 59.6943C26.529 59.5524 26.3005 59.1031 26.4341 58.6787L26.4351 58.6758L26.4653 58.6006C26.6331 58.2316 27.0528 58.0388 27.4507 58.1641H27.4517L29.9487 58.9766L28.8345 56.7871H28.8335C28.636 56.3922 28.795 55.9114 29.188 55.707L29.1899 55.7061L29.2642 55.6729C29.618 55.5384 30.0203 55.6712 30.228 55.9893L30.269 56.0596L30.27 56.0605L32.1177 59.6855L35.0913 60.6562V57.5293L32.2153 54.6533C31.9004 54.3381 31.9004 53.8329 32.2153 53.5176C32.5307 53.2022 33.0367 53.2022 33.3521 53.5176L35.0913 55.2568V52.6328C35.0913 52.1832 35.4546 51.8281 35.896 51.8281Z" fill="#663366" stroke="#663366" stroke-width="0.25"/>
<path d="M35.9233 35.5898C38.7577 35.5898 41.059 37.8913 41.0591 40.7256C41.0591 43.56 38.7577 45.8613 35.9233 45.8613C33.089 45.8612 30.7876 43.5599 30.7876 40.7256C30.7877 37.8913 33.0891 35.5899 35.9233 35.5898ZM35.9233 37.1992C33.9802 37.1993 32.3971 38.7824 32.397 40.7256C32.397 42.6688 33.9801 44.2519 35.9233 44.252C37.8666 44.252 39.4497 42.6689 39.4497 40.7256C39.4496 38.7824 37.8666 37.1992 35.9233 37.1992Z" fill="#663366" stroke="#663366" stroke-width="0.25"/>
<path d="M35.9224 30.8262C36.372 30.8262 36.7271 31.1895 36.7271 31.6309V33.2363C36.7271 33.686 36.3638 34.041 35.9224 34.041C35.474 34.041 35.1097 33.6721 35.1177 33.2344V31.6309C35.1177 31.1812 35.481 30.8262 35.9224 30.8262Z" fill="#663366" stroke="#663366" stroke-width="0.25"/>
<path d="M29.6177 33.0918C29.9543 32.8635 30.415 32.9256 30.6812 33.2432L31.7144 34.4688V34.4697L31.7642 34.5352C31.992 34.8719 31.9295 35.3327 31.6118 35.5986L31.6108 35.5977C31.4662 35.7248 31.2783 35.787 31.0991 35.7871C30.9001 35.7871 30.699 35.7153 30.5454 35.5693L30.4829 35.5029L29.4507 34.2705C29.1661 33.9306 29.2137 33.4254 29.5522 33.1416L29.6177 33.0918Z" fill="#663366" stroke="#663366" stroke-width="0.25"/>
<path d="M26.1763 38.9248C26.2875 38.5364 26.6735 38.2763 27.0894 38.3506L28.6685 38.6299V38.6309L28.7485 38.6494C29.1367 38.7608 29.3969 39.1459 29.3228 39.5615L29.3218 39.5605C29.2579 39.9491 28.9187 40.2244 28.5337 40.2246C28.4954 40.2246 28.4448 40.2244 28.3931 40.2158H28.3911L26.814 39.9355V39.9365C26.3766 39.8649 26.0873 39.445 26.1577 39.0068V39.0039L26.1763 38.9248Z" fill="#663366" stroke="#663366" stroke-width="0.25"/>
<path d="M29.1001 43.7461C29.451 43.5922 29.861 43.696 30.0835 44.0068L30.1284 44.0771V44.0781L30.1655 44.1523C30.3195 44.5034 30.2158 44.9133 29.9048 45.1357L29.8354 45.1807L28.4429 45.9795L28.4419 45.9805C28.3144 46.0522 28.1727 46.083 28.0405 46.083C27.7663 46.083 27.491 45.9422 27.3403 45.6885L27.3384 45.6855C27.1338 45.3198 27.229 44.8663 27.562 44.6279L27.6323 44.583L29.0249 43.7842L29.0259 43.7832L29.1001 43.7461Z" fill="#663366" stroke="#663366" stroke-width="0.25"/>
<path d="M32.6343 47.4229C32.8155 47.057 33.2414 46.8781 33.6333 47.0186L33.7095 47.0498C34.078 47.2257 34.2552 47.6544 34.1157 48.0508L34.1147 48.0518L33.562 49.5645C33.4436 49.8882 33.1351 50.0928 32.8042 50.0928C32.7091 50.0927 32.6224 50.0771 32.5317 50.0469L32.5269 50.0449C32.1108 49.8876 31.8976 49.4306 32.0474 49.0127L32.6011 47.5V47.498L32.6343 47.4229Z" fill="#663366" stroke="#663366" stroke-width="0.25"/>
<path d="M38.2051 47.0186C38.5983 46.871 39.0244 47.0507 39.2051 47.4219L39.2383 47.499L39.791 49.0117V49.0127L39.8154 49.0908C39.9138 49.4857 39.703 49.9037 39.3096 50.0449L39.3066 50.0459C39.2159 50.0762 39.1294 50.0928 39.0342 50.0928C38.7048 50.0928 38.3952 49.896 38.2764 49.5635V49.5625L37.7236 48.0518V48.0498C37.575 47.6271 37.7856 47.1681 38.2051 47.0176V47.0186Z" fill="#663366" stroke="#663366" stroke-width="0.25"/>
<path d="M41.7515 43.9961C41.9783 43.6874 42.3876 43.5815 42.7349 43.7363L42.8091 43.7744L44.1948 44.5674L44.1968 44.5684L44.2651 44.6133C44.5963 44.8564 44.6944 45.3094 44.4878 45.6709L44.4868 45.6699C44.3435 45.924 44.0683 46.0732 43.7925 46.0732C43.6583 46.0732 43.5191 46.0508 43.3862 45.9678V45.9668L41.9976 45.1709L41.9966 45.1699C41.6109 44.9417 41.4854 44.4528 41.7056 44.0674L41.7065 44.0654L41.7515 43.9961Z" fill="#663366" stroke="#663366" stroke-width="0.25"/>
<path d="M44.8257 38.3477C45.2278 38.3223 45.6002 38.5964 45.6743 39.0107L45.6851 39.0918C45.7145 39.4699 45.4692 39.819 45.1011 39.9238L45.02 39.9424L43.4409 40.2227L43.4302 40.2236H43.4185C43.4047 40.2236 43.3901 40.2249 43.3696 40.2266C43.3505 40.2282 43.3244 40.2305 43.2983 40.2305C42.9135 40.2303 42.5743 39.9557 42.5103 39.5674L42.5093 39.5684C42.4301 39.1327 42.7234 38.7153 43.1636 38.6367L44.7427 38.3564H44.7446L44.8257 38.3477Z" fill="#663366" stroke="#663366" stroke-width="0.25"/>
<path d="M41.1514 33.2471C41.4302 32.9 41.9396 32.8642 42.2764 33.1436H42.2773C42.6061 33.4052 42.6591 33.8733 42.4316 34.209L42.3818 34.2744L41.3486 35.5059L41.3496 35.5068C41.1907 35.6975 40.9607 35.792 40.7334 35.792C40.5509 35.792 40.369 35.7282 40.2197 35.6025V35.6016C39.8718 35.3219 39.8363 34.8103 40.1182 34.4736L41.1514 33.2471Z" fill="#663366" stroke="#663366" stroke-width="0.25"/>
<path d="M63.103 50.8555C63.401 50.8556 63.6699 51.013 63.812 51.2734V51.2744L66.313 55.8887L69.4468 55.2158L69.5464 55.2021C69.7778 55.1843 70.0139 55.2704 70.1792 55.4346L70.2485 55.5107C70.396 55.6956 70.4498 55.9372 70.4019 56.1699L70.4009 56.1709L69.5688 60.0488L72.02 62.4863L72.0864 62.5605C72.2084 62.717 72.2707 62.9158 72.2554 63.1143L72.2407 63.2139C72.1857 63.4734 72.005 63.6932 71.7603 63.7959L71.7593 63.7969L68.2378 65.2344L68.3921 67.3369H68.3911C68.4144 67.6293 68.2723 67.9115 68.0278 68.0693L68.0288 68.0703C67.8963 68.156 67.7392 68.2041 67.5874 68.2041C67.4869 68.2041 67.3902 68.186 67.2983 68.1504L67.2085 68.1094L63.9136 66.3545V69.7852C63.9134 70.2345 63.5509 70.5896 63.1099 70.5898C62.6603 70.5898 62.3054 70.2264 62.3052 69.7852V66.3545L59.0103 68.1094L59.0093 68.1084C58.7487 68.2499 58.4347 68.2343 58.1909 68.0771C57.9463 67.9194 57.8034 67.6362 57.8267 67.3438L57.98 65.2412L54.4595 63.8037L54.4585 63.8027C54.2442 63.7129 54.0791 63.533 54.0044 63.3154L53.978 63.2207C53.9222 62.9576 54.0102 62.6817 54.1987 62.4932L56.6353 60.0488L55.8042 56.1709C55.7486 55.9087 55.8349 55.6256 56.0239 55.4365C56.2152 55.2385 56.4919 55.1613 56.7573 55.2158H56.7583L59.8911 55.8887L62.3931 51.2744V51.2734L62.4526 51.1807C62.6049 50.9756 62.8485 50.8555 63.103 50.8555ZM61.0132 57.1895L61.0142 57.1904C60.8484 57.4982 60.4859 57.6722 60.1362 57.5928V57.5918L57.6274 57.0537L58.2935 60.1436H58.2944L58.3081 60.2422C58.3263 60.4747 58.2393 60.7124 58.0737 60.8779L58.0728 60.877L56.1802 62.7764L59.1255 63.9785L59.2407 64.0371C59.4949 64.1935 59.6431 64.4793 59.6226 64.7822V64.7832L59.5317 66.0088L62.2915 64.5381V60.8496C62.2915 60.4 62.6548 60.0449 63.0962 60.0449C63.5455 60.0451 63.9006 60.4076 63.9009 60.8486L63.9067 64.5391L66.6655 66.0098L66.5757 64.7832V64.6553C66.5984 64.357 66.7918 64.095 67.0728 63.9785L70.0112 62.7764L68.1187 60.877V60.876C67.9213 60.6848 67.8435 60.4095 67.8979 60.1445V60.1436L68.563 57.0537L66.0552 57.5918L66.0562 57.5928C65.7067 57.6722 65.3517 57.5047 65.1792 57.1914L65.1782 57.1904L63.0952 53.3477L61.0132 57.1895Z" fill="#663366" stroke="#663366" stroke-width="0.25"/>
<path d="M54.1924 32.3877C55.1295 32.1977 58.5834 31.7729 61.542 34.9971L61.8086 35.2979C62.0211 35.5491 62.2087 35.8038 62.3828 36.0596C62.6345 35.6893 62.9159 35.3305 63.2246 34.998L63.543 34.667C66.8501 31.3887 70.6315 32.3928 70.8125 32.4434L70.916 32.4795C71.1476 32.5792 71.3232 32.7838 71.3799 33.0322L71.4316 33.2871C71.5979 34.2514 71.9516 37.7121 69.3594 40.8086L69.0586 41.1514C67.3254 43.0424 65.415 43.6814 63.9072 43.8438V46.9033C63.9072 47.353 63.5439 47.708 63.1025 47.708C62.653 47.7079 62.2979 47.3446 62.2979 46.9033V43.8643C62.1231 43.8761 61.9233 43.8896 61.7031 43.8896C60.2256 43.8896 57.969 43.4626 55.9189 41.3535L55.7207 41.1445C52.3851 37.5051 53.3432 33.2116 53.3857 33.0342L53.4189 32.9287C53.5108 32.691 53.7054 32.5124 53.9541 32.4434L54.1924 32.3877ZM60.3652 36.0801C58.2628 33.794 55.8959 33.7755 54.8828 33.8945C54.7656 34.9995 54.7412 37.6943 56.9053 40.0557H56.9043C59.0063 42.3415 61.3733 42.3591 62.3867 42.2402C62.5001 41.1703 62.5274 38.6123 60.5674 36.3086L60.3652 36.0801ZM69.8926 33.8955C68.9131 33.7797 66.6632 33.7848 64.6182 35.8584L64.415 36.0732C63.9623 36.5706 63.5838 37.1042 63.2803 37.6748C64.0573 39.5039 64.0836 41.2009 63.999 42.1992C65.1529 42.0237 66.5628 41.4803 67.8682 40.0557L68.0713 39.8271C70.0321 37.523 70.0114 34.9695 69.8926 33.8955Z" fill="#663366" stroke="#663366" stroke-width="0.25"/>
<path d="M110.667 44.4395C118.479 44.4395 125.589 47.5007 130.867 52.4873C130.97 52.5438 131.054 52.6293 131.117 52.7236C136.667 58.0893 140.125 65.5952 140.125 73.9033C140.125 88.4819 129.478 100.615 115.55 102.95L114.884 103.054C113.505 103.254 112.1 103.362 110.668 103.362C102.767 103.362 95.5901 100.232 90.2979 95.1504C90.1903 95.0877 90.111 95.0032 90.0498 94.917C84.6001 89.5701 81.21 82.1245 81.21 73.9033C81.21 70.1962 81.906 66.6493 83.1641 63.377C83.1859 63.2833 83.2189 63.193 83.2676 63.1133C84.8256 59.1657 87.2167 55.6317 90.2148 52.7314C90.2798 52.6347 90.365 52.5494 90.4658 52.4883C95.7305 47.5144 102.828 44.4461 110.627 44.4395H110.667ZM92.8467 95.2656C97.6791 99.3003 103.892 101.746 110.667 101.746C117.442 101.746 123.654 99.3003 128.487 95.2656H92.8467ZM85.085 84.8975C86.5082 88.1885 88.5497 91.1598 91.0625 93.6494H130.266C132.782 91.1612 134.822 88.1981 136.237 84.8975H85.085ZM82.8428 74.7021C82.9274 77.7042 83.4847 80.5972 84.4541 83.2949H136.879C137.848 80.5972 138.406 77.7105 138.49 74.7021H82.8428ZM84.5137 64.3408C83.5053 67.0785 82.934 70.0243 82.8428 73.0928H138.491C138.406 70.025 137.822 67.0789 136.819 64.3408H84.5137ZM91.2334 53.9795C88.6879 56.4626 86.6145 59.428 85.165 62.7314H136.168C134.718 59.428 132.645 56.4628 130.1 53.9795H91.2334ZM110.666 46.0498C103.978 46.0499 97.8338 48.4291 93.0293 52.3701H128.303C123.498 48.4229 117.354 46.0498 110.666 46.0498Z" fill="#663366" stroke="#663366" stroke-width="0.25"/>
<mask id="path-31-outside-1_259_1894" maskUnits="userSpaceOnUse" x="27.2402" y="77.7344" width="70" height="63" fill="black">
<rect fill="white" x="27.2402" y="77.7344" width="70" height="63"/>
<path d="M95.8342 113.812C93.8151 112.213 91.0165 112.206 88.9908 113.685L83.76 103.963C83.3735 102.984 82.6406 102.217 81.6809 101.784L75.4306 98.9591C74.8109 98.6792 74.3311 98.1861 74.0712 97.5531L69.1403 85.6388C68.8004 84.8259 68.2007 84.1395 67.4344 83.6998L59.4316 79.0887C58.7719 78.7089 57.979 78.6289 57.2528 78.8755C56.5331 79.122 55.9467 79.6684 55.6602 80.3748L52.7282 87.498C52.5949 87.8245 52.4017 88.1111 52.1551 88.3643L45.8449 93.1086L44.952 91.5626C44.5188 90.8097 43.7459 90.3699 42.8797 90.3699C42.0135 90.3699 41.2405 90.8163 40.8074 91.5626L36.3163 99.3589C35.8032 100.252 35.4834 101.211 35.3501 102.184C35.1369 103.803 35.4634 105.463 36.3163 106.949C36.6895 107.602 37.1492 108.175 37.6757 108.674L36.3163 114.132C34.284 112.213 31.1387 112.059 28.9332 113.805C28.5001 114.145 28.2402 114.685 28.2402 115.258V130.277L28.2469 137.36C28.2469 138.6 29.2597 139.619 30.5058 139.619H94.2685C95.5079 139.619 96.5208 138.606 96.5274 137.367L96.5407 121.828C96.5407 121.808 96.5341 121.788 96.5341 121.761L96.5407 119.049L96.5474 115.271C96.5274 114.698 96.2673 114.158 95.8342 113.812ZM29.7787 114.865C31.4846 113.512 33.9367 113.652 35.4693 115.191L35.9357 115.678L34.8096 120.195C33.1504 119.429 31.2046 119.516 29.6054 120.442V115.251C29.6054 115.098 29.6655 114.951 29.7787 114.865ZM37.495 100.038L41.9928 92.2488C42.1793 91.9223 42.5125 91.7357 42.8857 91.7357C43.2588 91.7357 43.592 91.929 43.7786 92.2488L48.2764 100.038C49.4025 101.984 49.4025 104.316 48.2764 106.262C47.1502 108.208 45.1311 109.374 42.8789 109.374C40.6267 109.374 38.6076 108.208 37.4814 106.262C36.3687 104.316 36.3688 101.984 37.495 100.038ZM42.8858 110.733C45.6311 110.733 48.0833 109.321 49.456 106.942C50.8287 104.569 50.8287 101.731 49.456 99.352L46.5375 94.2877L53.0144 89.41C53.0344 89.39 53.0544 89.3766 53.081 89.3567C53.4808 88.9702 53.7873 88.5171 53.9939 88.004L56.9259 80.8807C57.0659 80.5342 57.3457 80.2677 57.6989 80.1544C58.052 80.0344 58.4385 80.0744 58.7584 80.2543L62.11 82.1867L62.9629 99.3322C63.0429 101.011 64.3689 102.351 66.0415 102.464L67.1009 102.531C67.9339 102.584 68.6335 103.164 68.8467 103.97L73.4378 121.255C73.4112 121.282 73.3712 121.308 73.3445 121.342L72.9314 121.795C72.1185 122.608 71.0389 123.054 69.8929 123.054C68.7468 123.054 67.6673 122.608 66.8611 121.802L66.3947 121.315C64.189 119.109 60.6042 119.109 58.3719 121.335L57.9588 121.788C57.1459 122.601 56.0663 123.048 54.9204 123.048C53.7744 123.048 52.6947 122.601 51.8886 121.795L51.4221 121.308C49.2165 119.103 45.625 119.103 43.3994 121.328L42.9862 121.782C42.1733 122.595 41.0937 123.041 39.9478 123.041C38.8018 123.041 37.7221 122.594 36.916 121.788L36.4495 121.302C36.3163 121.169 36.1697 121.035 36.0297 120.915L38.8618 109.554C40.0345 110.327 41.4198 110.733 42.8858 110.733ZM67.8798 86.1588L72.8107 98.0731C73.2039 99.0193 73.9302 99.7723 74.863 100.199L81.1134 103.024C81.7598 103.317 82.2462 103.837 82.4994 104.497C82.5061 104.523 82.5194 104.55 82.5394 104.577L90.7887 119.903C89.8624 120.162 89.0161 120.656 88.3033 121.369L87.9034 121.815C87.0905 122.628 86.011 123.074 84.865 123.074C83.719 123.074 82.6394 122.628 81.8332 121.822L81.3667 121.335C79.5476 119.516 76.7756 119.203 74.6167 120.402L70.1588 103.63C69.799 102.264 68.5996 101.278 67.1869 101.185L66.1274 101.118C65.1412 101.052 64.3684 100.259 64.315 99.2792L63.5087 83.007L66.7604 84.8795C67.2601 85.166 67.6599 85.6257 67.8798 86.1588ZM95.1665 115.264L95.1598 120.448C94.3069 119.955 93.3407 119.682 92.3211 119.682C92.2878 119.682 92.2478 119.689 92.2145 119.689L89.6358 114.897C91.1817 113.658 93.4006 113.625 94.9865 114.877C95.0998 114.964 95.1665 115.104 95.1665 115.264ZM29.6041 137.36V122.1C31.2899 120.614 33.8753 120.674 35.4746 122.28L35.941 122.767C37.0138 123.84 38.4331 124.419 39.9392 124.419C41.4518 124.419 42.8712 123.833 43.9639 122.74L44.3771 122.287C46.0563 120.608 48.7749 120.608 50.4475 122.28L50.9139 122.767C51.9868 123.84 53.406 124.419 54.9121 124.419C56.4247 124.419 57.8441 123.833 58.9369 122.74L59.35 122.287C61.0292 120.608 63.7478 120.608 65.4204 122.28L65.8869 122.767C66.9597 123.84 68.3789 124.419 69.885 124.419C71.3976 124.419 72.817 123.833 73.9098 122.74L74.3229 122.287C76.0021 120.608 78.7208 120.608 80.3933 122.28L80.8598 122.767C81.9259 123.84 83.3519 124.419 84.8579 124.419C86.3706 124.419 87.79 123.833 88.8827 122.74L89.2825 122.294C90.0955 121.481 91.175 121.034 92.321 121.034C93.3805 121.034 94.3733 121.414 95.1597 122.107L95.1464 137.353C95.1464 137.846 94.7465 138.246 94.2534 138.246L30.4975 138.239C30.0044 138.253 29.6041 137.853 29.6041 137.36Z"/>
</mask>
<path d="M95.8342 113.812C93.8151 112.213 91.0165 112.206 88.9908 113.685L83.76 103.963C83.3735 102.984 82.6406 102.217 81.6809 101.784L75.4306 98.9591C74.8109 98.6792 74.3311 98.1861 74.0712 97.5531L69.1403 85.6388C68.8004 84.8259 68.2007 84.1395 67.4344 83.6998L59.4316 79.0887C58.7719 78.7089 57.979 78.6289 57.2528 78.8755C56.5331 79.122 55.9467 79.6684 55.6602 80.3748L52.7282 87.498C52.5949 87.8245 52.4017 88.1111 52.1551 88.3643L45.8449 93.1086L44.952 91.5626C44.5188 90.8097 43.7459 90.3699 42.8797 90.3699C42.0135 90.3699 41.2405 90.8163 40.8074 91.5626L36.3163 99.3589C35.8032 100.252 35.4834 101.211 35.3501 102.184C35.1369 103.803 35.4634 105.463 36.3163 106.949C36.6895 107.602 37.1492 108.175 37.6757 108.674L36.3163 114.132C34.284 112.213 31.1387 112.059 28.9332 113.805C28.5001 114.145 28.2402 114.685 28.2402 115.258V130.277L28.2469 137.36C28.2469 138.6 29.2597 139.619 30.5058 139.619H94.2685C95.5079 139.619 96.5208 138.606 96.5274 137.367L96.5407 121.828C96.5407 121.808 96.5341 121.788 96.5341 121.761L96.5407 119.049L96.5474 115.271C96.5274 114.698 96.2673 114.158 95.8342 113.812ZM29.7787 114.865C31.4846 113.512 33.9367 113.652 35.4693 115.191L35.9357 115.678L34.8096 120.195C33.1504 119.429 31.2046 119.516 29.6054 120.442V115.251C29.6054 115.098 29.6655 114.951 29.7787 114.865ZM37.495 100.038L41.9928 92.2488C42.1793 91.9223 42.5125 91.7357 42.8857 91.7357C43.2588 91.7357 43.592 91.929 43.7786 92.2488L48.2764 100.038C49.4025 101.984 49.4025 104.316 48.2764 106.262C47.1502 108.208 45.1311 109.374 42.8789 109.374C40.6267 109.374 38.6076 108.208 37.4814 106.262C36.3687 104.316 36.3688 101.984 37.495 100.038ZM42.8858 110.733C45.6311 110.733 48.0833 109.321 49.456 106.942C50.8287 104.569 50.8287 101.731 49.456 99.352L46.5375 94.2877L53.0144 89.41C53.0344 89.39 53.0544 89.3766 53.081 89.3567C53.4808 88.9702 53.7873 88.5171 53.9939 88.004L56.9259 80.8807C57.0659 80.5342 57.3457 80.2677 57.6989 80.1544C58.052 80.0344 58.4385 80.0744 58.7584 80.2543L62.11 82.1867L62.9629 99.3322C63.0429 101.011 64.3689 102.351 66.0415 102.464L67.1009 102.531C67.9339 102.584 68.6335 103.164 68.8467 103.97L73.4378 121.255C73.4112 121.282 73.3712 121.308 73.3445 121.342L72.9314 121.795C72.1185 122.608 71.0389 123.054 69.8929 123.054C68.7468 123.054 67.6673 122.608 66.8611 121.802L66.3947 121.315C64.189 119.109 60.6042 119.109 58.3719 121.335L57.9588 121.788C57.1459 122.601 56.0663 123.048 54.9204 123.048C53.7744 123.048 52.6947 122.601 51.8886 121.795L51.4221 121.308C49.2165 119.103 45.625 119.103 43.3994 121.328L42.9862 121.782C42.1733 122.595 41.0937 123.041 39.9478 123.041C38.8018 123.041 37.7221 122.594 36.916 121.788L36.4495 121.302C36.3163 121.169 36.1697 121.035 36.0297 120.915L38.8618 109.554C40.0345 110.327 41.4198 110.733 42.8858 110.733ZM67.8798 86.1588L72.8107 98.0731C73.2039 99.0193 73.9302 99.7723 74.863 100.199L81.1134 103.024C81.7598 103.317 82.2462 103.837 82.4994 104.497C82.5061 104.523 82.5194 104.55 82.5394 104.577L90.7887 119.903C89.8624 120.162 89.0161 120.656 88.3033 121.369L87.9034 121.815C87.0905 122.628 86.011 123.074 84.865 123.074C83.719 123.074 82.6394 122.628 81.8332 121.822L81.3667 121.335C79.5476 119.516 76.7756 119.203 74.6167 120.402L70.1588 103.63C69.799 102.264 68.5996 101.278 67.1869 101.185L66.1274 101.118C65.1412 101.052 64.3684 100.259 64.315 99.2792L63.5087 83.007L66.7604 84.8795C67.2601 85.166 67.6599 85.6257 67.8798 86.1588ZM95.1665 115.264L95.1598 120.448C94.3069 119.955 93.3407 119.682 92.3211 119.682C92.2878 119.682 92.2478 119.689 92.2145 119.689L89.6358 114.897C91.1817 113.658 93.4006 113.625 94.9865 114.877C95.0998 114.964 95.1665 115.104 95.1665 115.264ZM29.6041 137.36V122.1C31.2899 120.614 33.8753 120.674 35.4746 122.28L35.941 122.767C37.0138 123.84 38.4331 124.419 39.9392 124.419C41.4518 124.419 42.8712 123.833 43.9639 122.74L44.3771 122.287C46.0563 120.608 48.7749 120.608 50.4475 122.28L50.9139 122.767C51.9868 123.84 53.406 124.419 54.9121 124.419C56.4247 124.419 57.8441 123.833 58.9369 122.74L59.35 122.287C61.0292 120.608 63.7478 120.608 65.4204 122.28L65.8869 122.767C66.9597 123.84 68.3789 124.419 69.885 124.419C71.3976 124.419 72.817 123.833 73.9098 122.74L74.3229 122.287C76.0021 120.608 78.7208 120.608 80.3933 122.28L80.8598 122.767C81.9259 123.84 83.3519 124.419 84.8579 124.419C86.3706 124.419 87.79 123.833 88.8827 122.74L89.2825 122.294C90.0955 121.481 91.175 121.034 92.321 121.034C93.3805 121.034 94.3733 121.414 95.1597 122.107L95.1464 137.353C95.1464 137.846 94.7465 138.246 94.2534 138.246L30.4975 138.239C30.0044 138.253 29.6041 137.853 29.6041 137.36Z" fill="#663366"/>
<path d="M95.8342 113.812C93.8151 112.213 91.0165 112.206 88.9908 113.685L83.76 103.963C83.3735 102.984 82.6406 102.217 81.6809 101.784L75.4306 98.9591C74.8109 98.6792 74.3311 98.1861 74.0712 97.5531L69.1403 85.6388C68.8004 84.8259 68.2007 84.1395 67.4344 83.6998L59.4316 79.0887C58.7719 78.7089 57.979 78.6289 57.2528 78.8755C56.5331 79.122 55.9467 79.6684 55.6602 80.3748L52.7282 87.498C52.5949 87.8245 52.4017 88.1111 52.1551 88.3643L45.8449 93.1086L44.952 91.5626C44.5188 90.8097 43.7459 90.3699 42.8797 90.3699C42.0135 90.3699 41.2405 90.8163 40.8074 91.5626L36.3163 99.3589C35.8032 100.252 35.4834 101.211 35.3501 102.184C35.1369 103.803 35.4634 105.463 36.3163 106.949C36.6895 107.602 37.1492 108.175 37.6757 108.674L36.3163 114.132C34.284 112.213 31.1387 112.059 28.9332 113.805C28.5001 114.145 28.2402 114.685 28.2402 115.258V130.277L28.2469 137.36C28.2469 138.6 29.2597 139.619 30.5058 139.619H94.2685C95.5079 139.619 96.5208 138.606 96.5274 137.367L96.5407 121.828C96.5407 121.808 96.5341 121.788 96.5341 121.761L96.5407 119.049L96.5474 115.271C96.5274 114.698 96.2673 114.158 95.8342 113.812ZM29.7787 114.865C31.4846 113.512 33.9367 113.652 35.4693 115.191L35.9357 115.678L34.8096 120.195C33.1504 119.429 31.2046 119.516 29.6054 120.442V115.251C29.6054 115.098 29.6655 114.951 29.7787 114.865ZM37.495 100.038L41.9928 92.2488C42.1793 91.9223 42.5125 91.7357 42.8857 91.7357C43.2588 91.7357 43.592 91.929 43.7786 92.2488L48.2764 100.038C49.4025 101.984 49.4025 104.316 48.2764 106.262C47.1502 108.208 45.1311 109.374 42.8789 109.374C40.6267 109.374 38.6076 108.208 37.4814 106.262C36.3687 104.316 36.3688 101.984 37.495 100.038ZM42.8858 110.733C45.6311 110.733 48.0833 109.321 49.456 106.942C50.8287 104.569 50.8287 101.731 49.456 99.352L46.5375 94.2877L53.0144 89.41C53.0344 89.39 53.0544 89.3766 53.081 89.3567C53.4808 88.9702 53.7873 88.5171 53.9939 88.004L56.9259 80.8807C57.0659 80.5342 57.3457 80.2677 57.6989 80.1544C58.052 80.0344 58.4385 80.0744 58.7584 80.2543L62.11 82.1867L62.9629 99.3322C63.0429 101.011 64.3689 102.351 66.0415 102.464L67.1009 102.531C67.9339 102.584 68.6335 103.164 68.8467 103.97L73.4378 121.255C73.4112 121.282 73.3712 121.308 73.3445 121.342L72.9314 121.795C72.1185 122.608 71.0389 123.054 69.8929 123.054C68.7468 123.054 67.6673 122.608 66.8611 121.802L66.3947 121.315C64.189 119.109 60.6042 119.109 58.3719 121.335L57.9588 121.788C57.1459 122.601 56.0663 123.048 54.9204 123.048C53.7744 123.048 52.6947 122.601 51.8886 121.795L51.4221 121.308C49.2165 119.103 45.625 119.103 43.3994 121.328L42.9862 121.782C42.1733 122.595 41.0937 123.041 39.9478 123.041C38.8018 123.041 37.7221 122.594 36.916 121.788L36.4495 121.302C36.3163 121.169 36.1697 121.035 36.0297 120.915L38.8618 109.554C40.0345 110.327 41.4198 110.733 42.8858 110.733ZM67.8798 86.1588L72.8107 98.0731C73.2039 99.0193 73.9302 99.7723 74.863 100.199L81.1134 103.024C81.7598 103.317 82.2462 103.837 82.4994 104.497C82.5061 104.523 82.5194 104.55 82.5394 104.577L90.7887 119.903C89.8624 120.162 89.0161 120.656 88.3033 121.369L87.9034 121.815C87.0905 122.628 86.011 123.074 84.865 123.074C83.719 123.074 82.6394 122.628 81.8332 121.822L81.3667 121.335C79.5476 119.516 76.7756 119.203 74.6167 120.402L70.1588 103.63C69.799 102.264 68.5996 101.278 67.1869 101.185L66.1274 101.118C65.1412 101.052 64.3684 100.259 64.315 99.2792L63.5087 83.007L66.7604 84.8795C67.2601 85.166 67.6599 85.6257 67.8798 86.1588ZM95.1665 115.264L95.1598 120.448C94.3069 119.955 93.3407 119.682 92.3211 119.682C92.2878 119.682 92.2478 119.689 92.2145 119.689L89.6358 114.897C91.1817 113.658 93.4006 113.625 94.9865 114.877C95.0998 114.964 95.1665 115.104 95.1665 115.264ZM29.6041 137.36V122.1C31.2899 120.614 33.8753 120.674 35.4746 122.28L35.941 122.767C37.0138 123.84 38.4331 124.419 39.9392 124.419C41.4518 124.419 42.8712 123.833 43.9639 122.74L44.3771 122.287C46.0563 120.608 48.7749 120.608 50.4475 122.28L50.9139 122.767C51.9868 123.84 53.406 124.419 54.9121 124.419C56.4247 124.419 57.8441 123.833 58.9369 122.74L59.35 122.287C61.0292 120.608 63.7478 120.608 65.4204 122.28L65.8869 122.767C66.9597 123.84 68.3789 124.419 69.885 124.419C71.3976 124.419 72.817 123.833 73.9098 122.74L74.3229 122.287C76.0021 120.608 78.7208 120.608 80.3933 122.28L80.8598 122.767C81.9259 123.84 83.3519 124.419 84.8579 124.419C86.3706 124.419 87.79 123.833 88.8827 122.74L89.2825 122.294C90.0955 121.481 91.175 121.034 92.321 121.034C93.3805 121.034 94.3733 121.414 95.1597 122.107L95.1464 137.353C95.1464 137.846 94.7465 138.246 94.2534 138.246L30.4975 138.239C30.0044 138.253 29.6041 137.853 29.6041 137.36Z" stroke="#663366" stroke-width="0.5" mask="url(#path-31-outside-1_259_1894)"/>
<path d="M43.5298 128.121C45.741 126.122 49.1022 126.121 51.2964 128.103L51.5122 128.308L51.5142 128.31L51.978 128.794L52.1284 128.937C52.8924 129.629 53.8782 130.01 54.9214 130.01C56.0342 130.01 57.0821 129.577 57.8716 128.787L58.2808 128.338L58.2847 128.334L58.5034 128.128C60.72 126.129 64.0752 126.128 66.269 128.109L66.4849 128.314L66.4868 128.316L66.9507 128.801L67.1011 128.943C67.865 129.636 68.8507 130.017 69.894 130.017C71.0068 130.017 72.0548 129.583 72.8442 128.794L73.2534 128.345L73.2573 128.341L73.4751 128.135C75.6864 126.136 79.0475 126.134 81.2417 128.116L81.4575 128.321L81.4595 128.322L81.3784 128.399L81.3765 128.401L81.4595 128.323L81.9233 128.808L82.0737 128.95C82.8377 129.643 83.8235 130.023 84.8667 130.023C85.9785 130.023 87.0257 129.591 87.8149 128.803L88.2124 128.359L88.2134 128.357L88.272 128.301C88.5555 128.05 88.9776 128.031 89.2847 128.258L89.3491 128.31L89.3501 128.311L89.4067 128.369C89.675 128.673 89.6783 129.136 89.3979 129.446L89.397 129.445L88.978 129.912L88.9731 129.917C87.8572 131.033 86.4059 131.633 84.8599 131.633C83.3213 131.633 81.863 131.04 80.7729 129.943L80.772 129.941L80.3071 129.457L80.1519 129.31C78.5194 127.835 75.9931 127.884 74.4136 129.464L74.0044 129.913L74.0005 129.917C72.8845 131.033 71.4333 131.633 69.8872 131.633C68.3483 131.633 66.8968 131.04 65.8003 129.943L65.7993 129.941L65.3345 129.457L65.1792 129.31C63.5467 127.835 61.0205 127.884 59.4409 129.464L59.0317 129.913L59.0278 129.917C57.9119 131.033 56.4605 131.633 54.9146 131.633C53.3756 131.633 51.9241 131.04 50.8276 129.943L50.8257 129.941L50.3618 129.457L50.2065 129.31C48.5755 127.836 46.051 127.883 44.4712 129.459L44.4722 129.46L44.0581 129.913L44.0552 129.917C42.9463 131.033 41.4897 131.632 39.9429 131.599V131.6L39.9419 131.599L39.9399 131.6V131.599C38.4021 131.598 36.9518 131.006 35.856 129.91L35.854 129.908L35.3882 129.422V129.423C35.0784 129.105 35.0966 128.592 35.4106 128.286C35.7087 127.996 36.1781 127.993 36.4878 128.253L36.5474 128.309L36.5483 128.31L37.0054 128.787L37.1558 128.93C37.9198 129.622 38.9063 130.003 39.9497 130.003C40.9928 130.003 41.9789 129.623 42.7485 128.925L42.8989 128.78L43.3081 128.332L43.312 128.327L43.5298 128.121Z" fill="#663366" stroke="#663366" stroke-width="0.25"/>
<path d="M35.4336 77.0254C35.7489 76.7103 36.254 76.7104 36.5693 77.0254C36.865 77.321 36.8837 77.784 36.625 78.1006L36.5693 78.1621C36.173 78.5586 35.9531 79.0869 35.9531 79.6465C35.9532 80.2058 36.1732 80.7335 36.5693 81.1299C36.5842 81.1416 36.5963 81.1557 36.6074 81.1709H36.6094L37.0225 81.6504C38.3996 83.0537 38.4344 85.2867 37.127 86.7334L36.9961 86.8711C36.8387 87.0285 36.6332 87.1074 36.4277 87.1074C36.2481 87.1074 36.0684 87.0473 35.9209 86.9268L35.8594 86.8711C35.5445 86.5559 35.5446 86.0506 35.8594 85.7354L36.0049 85.5752C36.6811 84.7473 36.632 83.5324 35.8594 82.7598V82.7588C35.8447 82.747 35.8313 82.734 35.8203 82.7188V82.7197L35.4141 82.2539V82.2529C34.7286 81.5508 34.3506 80.6357 34.3506 79.6523C34.3507 78.6603 34.7302 77.7288 35.4336 77.0254Z" fill="#663366" stroke="#663366" stroke-width="0.25"/>
<path d="M41.2524 77.0254C41.5677 76.7103 42.0729 76.7104 42.3882 77.0254C42.6838 77.321 42.7026 77.784 42.4438 78.1006L42.3882 78.1621C41.9917 78.5587 41.772 79.0805 41.772 79.6465C41.7721 80.2058 41.992 80.7335 42.3882 81.1299C42.403 81.1416 42.4152 81.1557 42.4263 81.1709H42.4282L42.8413 81.6504C44.2185 83.0537 44.2533 85.2867 42.9458 86.7334L42.8149 86.8711C42.6576 87.0285 42.452 87.1074 42.2466 87.1074C42.0669 87.1074 41.8872 87.0473 41.7397 86.9268L41.6782 86.8711C41.3633 86.5559 41.3634 86.0506 41.6782 85.7354L41.8237 85.5752C42.4999 84.7473 42.4509 83.5324 41.6782 82.7598V82.7588C41.6635 82.747 41.6501 82.734 41.6392 82.7188V82.7197L41.2329 82.2539V82.2529C40.5475 81.5508 40.1694 80.6357 40.1694 79.6523C40.1695 78.6603 40.5491 77.7288 41.2524 77.0254Z" fill="#663366" stroke="#663366" stroke-width="0.25"/>
<path d="M47.0283 77.0254C47.3436 76.7103 47.8488 76.7104 48.1641 77.0254C48.4597 77.321 48.4784 77.784 48.2197 78.1006L48.1641 78.1621C47.7676 78.5587 47.5479 79.0805 47.5479 79.6465C47.548 80.2058 47.7679 80.7335 48.1641 81.1299C48.1789 81.1416 48.1911 81.1557 48.2021 81.1709H48.2041L48.6172 81.6504C49.9943 83.0537 50.0292 85.2867 48.7217 86.7334L48.5908 86.8711C48.4334 87.0285 48.2279 87.1074 48.0225 87.1074C47.8428 87.1074 47.6631 87.0473 47.5156 86.9268L47.4541 86.8711C47.1392 86.5559 47.1393 86.0506 47.4541 85.7354L47.5996 85.5752C48.2758 84.7473 48.2268 83.5324 47.4541 82.7598V82.7588C47.4394 82.747 47.426 82.734 47.415 82.7188V82.7197L47.0088 82.2539V82.2529C46.3233 81.5508 45.9453 80.6357 45.9453 79.6523C45.9454 78.6603 46.3249 77.7288 47.0283 77.0254Z" fill="#663366" stroke="#663366" stroke-width="0.25"/>
<path d="M53.4805 105.322C54.1224 105.322 54.7029 105.636 55.0547 106.163L55.1221 106.271V106.271L57.9941 111.249L58.1592 111.559C58.9316 113.123 58.877 114.936 57.9941 116.465C57.0524 118.096 55.3582 119.072 53.4746 119.072C51.7023 119.072 50.108 118.214 49.1396 116.763L48.9551 116.465C48.0132 114.834 48.013 112.88 48.9688 111.248L51.8398 106.271V106.271L51.9072 106.163C52.2589 105.636 52.8387 105.322 53.4805 105.322ZM53.4678 106.932C53.4119 106.932 53.2903 106.947 53.2168 107.075L53.2158 107.076L50.3438 112.054C49.6933 113.181 49.6942 114.533 50.3447 115.66C50.9954 116.787 52.1665 117.463 53.4678 117.463C54.7755 117.463 55.9401 116.787 56.5908 115.66L56.7061 115.446C57.2042 114.437 57.2041 113.277 56.7061 112.268L56.5908 112.054L53.7197 107.076L53.7188 107.075C53.6453 106.947 53.5236 106.932 53.4678 106.932Z" fill="#663366" stroke="#663366" stroke-width="0.25"/>
</svg>
