<svg width="150" height="150" viewBox="0 0 150 150" fill="none" xmlns="http://www.w3.org/2000/svg">
<path d="M43.083 47.207C46.6219 46.069 50.4685 47.9402 51.7861 51.5059L63.3525 77.1543H81.7705C82.9279 77.1543 84.4856 77.4088 85.7637 78.5166C87.029 79.6136 87.997 81.5284 88.0566 84.7939H88.7812C88.7431 77.1382 89.7079 72.6576 92.2471 68.2539L81.7354 59.3994L78.2832 63.9326L78.2822 63.9316C77.9938 64.3108 77.5603 64.5097 77.1221 64.5098C76.8474 64.5098 76.5715 64.4315 76.3281 64.2715L76.2256 64.1982C75.586 63.6958 75.4699 62.7638 75.9639 62.1152L84.7275 50.6152L84.8252 50.499C85.3033 49.9891 86.0707 49.8905 86.6602 50.2617L86.7842 50.3486L86.8975 50.4482C87.3997 50.9325 87.4978 51.7115 87.1318 52.3076L87.0459 52.4316L83.5283 57.0469L93.8594 65.749C95.1031 63.971 96.6092 62.0983 98.4053 59.9561L91.6641 54.7383C91.0227 54.2417 90.8986 53.3098 91.3867 52.6582H91.3877L91.4844 52.542C91.9588 52.0299 92.7253 51.9226 93.3184 52.291L93.4424 52.377L133.753 83.5645L133.776 83.582V83.583C138.586 87.3438 140.887 91.704 139.901 95.334L139.795 95.6836C138.897 98.3662 136.227 100.015 132.863 100.015H118.018C115.892 101.941 113.099 103.125 110.029 103.125C106.96 103.125 104.167 101.941 102.042 100.015H29.8848C27.7597 101.94 24.9655 103.124 21.8975 103.124C15.2668 103.124 9.87509 97.6471 9.875 90.9189C9.875 84.695 14.4921 79.5483 20.4326 78.8125V73.4424C20.4326 71.2037 21.3567 69.6577 22.5771 68.6748C23.7932 67.6955 25.2994 67.2774 26.4678 67.2773H42.7207L38.624 56.5254V56.5244C37.2634 52.8281 39.1111 48.7088 42.7412 47.3271L43.083 47.207ZM110.031 81.6846C105.019 81.6846 100.938 85.8246 100.938 90.9189C100.939 96.0132 105.019 100.153 110.031 100.153C115.043 100.153 119.124 96.0131 119.124 90.9189C119.124 85.8248 115.043 81.6848 110.031 81.6846ZM21.8975 81.6846C16.8853 81.6848 12.8057 85.8248 12.8057 90.9189C12.8058 96.0116 16.8853 100.152 21.8975 100.152C26.9098 100.152 30.9901 96.0118 30.9902 90.9189C30.9902 85.8247 26.9085 81.6846 21.8975 81.6846ZM100.74 61.7598C97.2132 65.9596 94.9421 68.9011 93.5576 72.1982C92.1746 75.4922 91.674 79.152 91.71 84.7939H99.6465C101.732 81.1644 105.6 78.7129 110.031 78.7129C116.663 78.7131 122.054 84.1893 122.054 90.9189C122.054 93.1533 121.447 95.2406 120.411 97.043H132.864C135.009 97.043 136.541 96.1589 137.021 94.7275L137.074 94.5518C137.569 92.6984 136.54 89.497 131.989 85.9355L131.985 85.9346L131.976 85.9268L100.74 61.7598ZM33.501 87.7656C33.7679 88.7719 33.9209 89.8265 33.9209 90.9189C33.9209 93.1532 33.3155 95.2406 32.2783 97.043H99.6514C98.6141 95.2405 98.0078 93.1534 98.0078 90.9189C98.0078 89.8264 98.1608 88.7729 98.4277 87.7656H86.6279C86.6214 87.7669 86.6127 87.7685 86.6025 87.7686C86.5926 87.7686 86.5837 87.7669 86.5771 87.7656H33.501ZM86.5586 87.7617C86.5589 87.7618 86.5632 87.7628 86.5674 87.7637C86.5648 87.763 86.5628 87.7621 86.5615 87.7617H86.5586ZM86.6436 87.7617C86.6427 87.762 86.641 87.7623 86.6396 87.7627C86.6424 87.7621 86.6447 87.762 86.6455 87.7617H86.6436ZM49.0811 52.6436C48.2776 50.4692 46.0272 49.3795 43.9678 50.04L43.7695 50.1094C41.6538 50.913 40.573 53.3165 41.3633 55.4697H41.3643L52.5381 84.7949H85.1279C85.0767 82.4446 84.4577 81.2895 83.7646 80.7168C83.0567 80.1319 82.2431 80.127 81.7725 80.127H62.4092C62.2863 80.1268 62.1647 80.0834 62.0869 80.0635L62 80.0498L61.8799 80.0205C61.8172 79.9958 61.7602 79.963 61.708 79.9287L61.5654 79.8271C61.5467 79.8134 61.5274 79.8029 61.4971 79.7842L61.4043 79.7148L61.4033 79.7139C61.3506 79.6627 61.3061 79.6057 61.2666 79.5479L61.1611 79.376C61.1566 79.3681 61.1503 79.3617 61.1328 79.3408L61.0762 79.2559V79.2539L61.0635 79.2266L61.0586 79.2158V79.2148C61.0581 79.2136 61.0573 79.2119 61.0566 79.21L49.084 52.6514L49.0811 52.6436ZM26.4316 70.249C26.408 70.25 26.3736 70.2523 26.3301 70.2559C26.243 70.263 26.1193 70.2761 25.9717 70.3027C25.6758 70.356 25.2858 70.4609 24.8984 70.6631C24.5118 70.865 24.1289 71.1637 23.8428 71.6064C23.5571 72.0487 23.3633 72.642 23.3633 73.4404V78.8105C27.1743 79.283 30.432 81.5708 32.2822 84.7939H49.3965L43.8545 70.248H26.4678C26.4664 70.2481 26.454 70.2481 26.4316 70.249Z" fill="#663366" stroke="#663366" stroke-width="0.25"/>
</svg>
