<svg width="150" height="150" viewBox="0 0 150 150" fill="none" xmlns="http://www.w3.org/2000/svg">
<path d="M67.9722 140.001C66.1781 140.001 64.4006 139.664 62.7279 139.023C48.8828 133.685 35.9603 126.205 24.4384 116.853C18.8297 112.359 17.3558 104.438 20.9717 98.227L28.0763 85.9222C37.7866 69.0965 54.3648 59.115 66.5538 53.7052C80.3711 47.5722 96.2255 43.9121 108.961 43.9121C115.161 43.9121 123.071 44.8174 125.544 49.1013C126.289 50.393 126.841 52.5129 125.235 55.3006L80.5534 132.696C77.9699 137.212 73.1722 139.995 67.9722 140.001ZM24.5542 100.298C21.9707 104.742 23.0251 110.417 27.0438 113.63H27.0383C38.2226 122.711 50.7647 129.975 64.2015 135.158C68.9876 137.013 74.4142 135.092 76.9644 130.632L121.646 53.2359C122.397 51.9331 122.076 51.3811 121.955 51.1769C121.127 49.7361 117.224 48.0524 108.96 48.0524C86.4364 48.0524 47.5632 60.4455 31.659 87.9925L24.5542 100.298Z" fill="#663366"/>
<path d="M22.5325 101.719C21.7927 101.719 21.1082 101.327 20.7384 100.687C20.374 100.046 20.374 99.257 20.7439 98.6166L62.2018 26.8299C63.4936 24.5886 65.4809 23.4735 67.7939 23.6832C74.7716 24.3236 82.9421 37.0534 87.0814 48.7069V48.7014C87.4071 49.7668 86.8385 50.8985 85.7896 51.2683C84.7463 51.6382 83.5925 51.1193 83.1784 50.0815C78.7952 37.76 71.2379 28.1541 67.4127 27.8008C67.0814 27.7677 66.4632 27.7125 65.7842 28.9049L24.332 100.686C23.9621 101.332 23.2777 101.725 22.5325 101.719Z" fill="#663366"/>
<path d="M105.471 66.7622C104.5 66.7622 103.539 66.5027 102.7 66.0114C99.973 64.4325 99.0787 60.8499 100.713 58.0068C102.347 55.1639 105.896 54.1425 108.629 55.7324C109.97 56.5108 110.931 57.8136 111.273 59.3207C111.991 62.4341 110.186 65.5642 107.133 66.4971C106.598 66.6682 106.034 66.7566 105.471 66.7622ZM105.841 59.1441C105.195 59.1607 104.605 59.525 104.295 60.0936C103.804 60.9437 104.019 61.9927 104.77 62.4342L104.765 62.4287C105.123 62.6274 105.548 62.6716 105.935 62.5446C106.89 62.241 107.453 61.2639 107.243 60.2867H107.249C107.16 59.8837 106.906 59.5414 106.553 59.3317C106.338 59.2047 106.089 59.1441 105.841 59.1441Z" fill="#663366"/>
<path d="M63.0189 73.4436C62.1688 73.4546 61.396 72.9302 61.0813 72.1408C60.7666 71.3458 60.9764 70.4405 61.6002 69.8553L69.1464 62.734V62.7395C69.5439 62.3476 70.0794 62.1378 70.6369 62.1489C71.1945 62.1599 71.7189 62.3918 72.0999 62.7947C72.4863 63.2032 72.685 63.7442 72.663 64.2963C72.6409 64.8538 72.398 65.3782 71.984 65.7481L64.4432 72.8694C64.0623 73.2392 63.5544 73.4436 63.0189 73.4436Z" fill="#663366"/>
<path d="M104.721 38.2449C103.964 38.2449 103.269 37.8364 102.904 37.1684L99.9732 31.7971C99.4212 30.7979 99.791 29.5392 100.79 28.9927C101.795 28.4407 103.054 28.8105 103.606 29.8097L106.542 35.1811V35.1866C106.89 35.8269 106.874 36.6053 106.504 37.2291C106.128 37.8584 105.455 38.2449 104.721 38.2449Z" fill="#663366"/>
<path d="M48.4787 117.721C47.5072 117.721 46.5576 117.467 45.7186 116.981C42.9915 115.402 42.0973 111.82 43.7313 108.977C45.3654 106.133 48.9205 105.123 51.6476 106.702C54.3746 108.281 55.2689 111.864 53.6348 114.707C52.5804 116.562 50.6151 117.71 48.4787 117.721ZM48.8486 110.108C48.2027 110.13 47.6176 110.489 47.3085 111.058C46.8117 111.908 47.0325 112.957 47.7777 113.398C48.523 113.834 49.5442 113.492 50.0411 112.637C50.5324 111.781 50.3171 110.738 49.5664 110.302H49.5608C49.3511 110.175 49.1082 110.108 48.8598 110.108H48.8486Z" fill="#663366"/>
<path d="M68.589 113.68C67.6174 113.68 66.6569 113.426 65.8124 112.934C63.0853 111.355 62.191 107.773 63.8251 104.941C65.459 102.114 69.0143 101.077 71.7413 102.666C74.4684 104.245 75.3627 107.828 73.7286 110.671C72.6742 112.52 70.7143 113.663 68.589 113.68ZM68.9589 106.067C68.313 106.089 67.7223 106.448 67.4131 107.016C66.9218 107.867 67.1371 108.916 67.8879 109.352C68.6386 109.782 69.6544 109.445 70.1513 108.59C70.6426 107.74 70.4273 106.691 69.6765 106.249V106.255C69.4557 106.133 69.2073 106.067 68.9589 106.067Z" fill="#663366"/>
<path d="M124.759 51.5001C123.605 51.5001 122.468 51.191 121.469 50.6113C120.514 50.0151 120.21 48.7675 120.784 47.7959C121.353 46.8299 122.595 46.4931 123.578 47.0452C124.113 47.3543 124.743 47.4371 125.339 47.2881C126.034 47.0728 126.614 46.587 126.945 45.9411C127.409 45.0523 127.508 44.02 127.221 43.0649C126.945 42.0437 126.393 41.3315 126.001 41.1052C124.82 40.4207 124.549 40.5201 123.423 40.9176C122.457 41.2598 121.381 40.8513 120.9 39.946C120.415 39.0407 120.669 37.92 121.491 37.3072C121.662 37.1747 121.85 37.0588 122.043 36.9484C122.242 36.6614 122.424 36.3633 122.595 36.0596C123.39 34.6795 123.313 33.5092 122.352 32.3555C120.597 30.2467 116.467 29.0432 114.017 29.9099C113.05 30.2466 111.985 29.8326 111.499 28.9328C111.019 28.0275 111.267 26.9123 112.084 26.2996C112.261 26.1671 112.443 26.0456 112.636 25.9407C112.714 25.8359 112.874 25.5985 113.189 25.052C113.376 24.7318 113.553 23.6719 113.338 22.4519C113.15 21.37 112.719 20.4977 112.233 20.2162C110.417 19.1674 108.943 20.2162 108.226 20.9504C107.635 21.5466 106.741 21.7233 105.968 21.4086C105.195 21.0885 104.687 20.3377 104.687 19.4985C104.687 18.1626 104.466 17.445 103.175 16.6997C102.623 16.3905 101.712 16.3408 100.834 16.5893C99.868 16.8377 99.0345 17.4449 98.51 18.295C98.234 18.7698 97.7813 19.1175 97.2514 19.2611C96.7214 19.4046 96.1529 19.3273 95.6781 19.0513C94.9052 18.5986 94.1047 18.1128 93.3375 17.6326C90.0695 15.6121 86.6855 13.5143 84.229 14.3203C82.7384 14.8061 81.408 16.4346 80.2764 19.1672H80.2708C79.8568 20.1664 78.7472 20.6797 77.7204 20.3485C75.8325 19.7523 72.6528 19.4101 71.8468 20.3485C71.6647 20.5583 70.8752 21.8611 73.1828 26.5093C73.6906 27.5305 73.2766 28.7727 72.2498 29.2804C71.2285 29.7938 69.9864 29.3743 69.4786 28.353C67.0221 23.4068 66.7681 19.9068 68.7058 17.6491C70.8587 15.1429 74.8058 15.441 77.1961 15.9378C78.7197 12.9568 80.6187 11.1242 82.9483 10.3733C87.232 8.99324 91.6262 11.7092 95.5125 14.1161L96.2302 14.5522C97.2128 13.6248 98.4108 12.9513 99.7191 12.598C101.706 12.046 103.716 12.2336 105.239 13.1169C106.763 14.0002 107.646 15.049 108.154 16.1089C110.175 15.3195 112.444 15.5127 114.298 16.6279C115.894 17.5498 116.998 19.366 117.412 21.7397C117.644 23.0039 117.627 24.3067 117.357 25.5653C120.47 25.9351 123.639 27.4422 125.521 29.7056C127.299 31.8364 127.729 34.3978 126.769 36.882C127.216 37.0586 127.646 37.2684 128.06 37.5113C129.501 38.3394 130.677 40.0175 131.207 41.9828V41.9773C131.798 43.9978 131.555 46.1672 130.534 48.0055C129.656 49.6174 128.165 50.7988 126.393 51.2846C125.858 51.4281 125.311 51.5001 124.759 51.5001Z" fill="#663366"/>
<path d="M90.1575 50.1891C89.4178 50.1891 88.7388 49.7916 88.369 49.1513C87.9991 48.5109 87.9991 47.7215 88.369 47.0867L92.167 40.4953L88.082 28.737L81.8992 39.441C81.325 40.4291 80.0554 40.7714 79.0672 40.1972C78.0791 39.6287 77.7368 38.3589 78.3109 37.3708L86.7571 22.7413H86.7516C87.1601 22.0402 87.9385 21.6372 88.7445 21.7145C89.5505 21.7973 90.2405 22.3383 90.5 23.1056L96.3848 40.0316C96.5835 40.6002 96.5228 41.2296 96.2191 41.7484L91.952 49.1512C91.5821 49.7971 90.8972 50.1891 90.1575 50.1891Z" fill="#663366"/>
<path d="M111.499 42.1971C110.566 42.1971 109.754 41.5788 109.506 40.679C109.258 39.7847 109.638 38.8297 110.433 38.355L115.678 35.2083V35.2028C116.66 34.6177 117.93 34.9378 118.521 35.9149C119.106 36.8976 118.786 38.1728 117.803 38.7579L112.559 41.9045V41.899C112.239 42.0978 111.874 42.1971 111.499 42.1971Z" fill="#663366"/>
<path d="M96.3725 28.33C95.4396 28.33 94.6226 27.7117 94.3741 26.8175C94.1257 25.9176 94.5066 24.9681 95.3015 24.4879L100.546 21.3413C101.528 20.7561 102.804 21.0763 103.389 22.0589C103.974 23.036 103.659 24.3113 102.677 24.8964L97.4324 28.043C97.1122 28.2307 96.7423 28.3356 96.3669 28.3301L96.3725 28.33Z" fill="#663366"/>
<path d="M61.5951 48.8228C60.745 48.8283 59.9722 48.3094 59.6575 47.5145C59.3427 46.7196 59.5526 45.8143 60.1764 45.2346L67.7226 38.1133C68.5562 37.3349 69.87 37.3735 70.6539 38.2071C71.4378 39.0407 71.3936 40.3545 70.5601 41.1384L63.0138 48.2597V48.2542C62.6329 48.6185 62.125 48.8228 61.5951 48.8228Z" fill="#663366"/>
<path d="M55.8647 86.0383C55.3347 86.0383 54.8213 85.8341 54.4404 85.4642L46.9273 78.3098C46.0992 77.5204 46.0661 76.2121 46.8555 75.3841C47.6449 74.556 48.9533 74.5229 49.7813 75.3068L57.2944 82.4612C57.9127 83.0463 58.1114 83.9462 57.7968 84.7356C57.4821 85.525 56.7148 86.0383 55.8647 86.0383Z" fill="#663366"/>
<path d="M83.6266 68.3421C82.771 68.3476 82.0037 67.8232 81.689 67.0338C81.3743 66.2388 81.5786 65.3335 82.2024 64.7538L89.7486 57.6325C90.5822 56.8431 91.896 56.8818 92.6799 57.7153C93.4638 58.5489 93.4251 59.8627 92.5916 60.6466L85.0453 67.7679C84.6644 68.1322 84.1566 68.3366 83.6266 68.3421Z" fill="#663366"/>
<path d="M94.1824 88.7498C91.5879 88.7498 89.341 86.9558 88.7615 84.4274C88.0438 81.314 89.849 78.1783 92.9018 77.2344C94.3812 76.7873 95.9766 76.9695 97.318 77.7368C98.6595 78.5152 99.62 79.818 99.9623 81.3251C100.382 83.1081 99.9678 84.985 98.8417 86.4259C97.7155 87.8667 95.9987 88.7224 94.1659 88.7555L94.1824 88.7498ZM94.5523 81.1373C94.3977 81.1373 94.2431 81.1594 94.0941 81.2035C93.1446 81.5127 92.5815 82.4898 92.7858 83.4669C92.8741 83.8699 93.128 84.2122 93.4758 84.422C94.2266 84.8526 95.2423 84.5158 95.7337 83.6602V83.6657C95.9821 83.2461 96.0594 82.7548 95.9545 82.2856C95.8662 81.8826 95.6178 81.5348 95.2645 81.3251C95.0492 81.2036 94.8007 81.1373 94.5523 81.1373Z" fill="#663366"/>
<path d="M60.0327 99.676C59.1771 99.687 58.4098 99.1626 58.0951 98.3732C57.7804 97.5783 57.9846 96.6729 58.614 96.0877L66.1602 88.9664L66.1547 88.972C66.5522 88.58 67.0932 88.3702 67.6452 88.3813C68.2028 88.3923 68.7327 88.6242 69.1137 89.0272C69.4946 89.4357 69.6988 89.9767 69.6768 90.5287C69.6547 91.0862 69.4118 91.6107 68.9978 91.9805L61.4515 99.1128C61.0706 99.4771 60.5626 99.6815 60.0327 99.676Z" fill="#663366"/>
<path d="M36.9305 105.13C36.6214 105.13 36.3178 105.058 36.0362 104.92C35.0095 104.423 34.5789 103.192 35.0702 102.16L41.2309 89.3525C41.4683 88.8557 41.8934 88.4803 42.4123 88.2981C42.9312 88.1159 43.4998 88.1491 43.9966 88.3864C45.0234 88.8833 45.4596 90.1199 44.9627 91.1521L38.8019 103.954C38.4542 104.671 37.731 105.124 36.9305 105.13Z" fill="#663366"/>
<path d="M62.1026 131.097C61.2524 131.103 60.4851 130.578 60.1704 129.789C59.8558 128.994 60.06 128.089 60.6838 127.509L68.2301 120.388C69.0636 119.604 70.3719 119.642 71.1558 120.476C71.9397 121.304 71.9066 122.618 71.073 123.402L63.5268 130.523C63.1459 130.887 62.638 131.097 62.1026 131.097Z" fill="#663366"/>
<path d="M86.934 99.9188C86.8291 99.9188 86.7187 99.9077 86.6083 99.8856L76.357 98.2517C75.8105 98.1689 75.3137 97.8708 74.988 97.4291C74.6568 96.982 74.5243 96.4189 74.6126 95.8724C74.6954 95.3258 74.999 94.8345 75.4517 94.5143C75.9044 94.1942 76.4675 94.0672 77.0085 94.161L87.2543 95.8007C88.3252 95.9663 89.0815 96.9268 88.9987 98.0088C88.9159 99.0853 88.0104 99.9188 86.934 99.9188Z" fill="#663366"/>
<path d="M81.4023 87.188C80.5963 87.1935 79.8622 86.7298 79.5254 85.9956L75.1091 76.6111V76.6166C74.6564 75.5843 75.1091 74.3864 76.1249 73.9061C77.1461 73.4313 78.355 73.8509 78.8574 74.8611L83.2627 84.2456L83.2572 84.2401C83.5608 84.886 83.5111 85.6313 83.1302 86.233C82.7548 86.8292 82.0924 87.188 81.3857 87.188L81.4023 87.188Z" fill="#663366"/>
</svg>
