<svg width="150" height="150" viewBox="0 0 150 150" fill="none" xmlns="http://www.w3.org/2000/svg">
<path d="M74.4038 95.3216V95.3793C74.4038 96.543 73.4651 97.4865 72.3075 97.4865C71.1499 97.4865 70.2112 96.543 70.2112 95.3793V95.3216C70.2112 94.158 71.1499 93.2145 72.3075 93.2145C73.4651 93.2145 74.4038 94.158 74.4038 95.3216ZM139.728 95.3321C139.155 96.3438 137.872 96.695 136.865 96.1184L128.115 91.102L118.327 97.2453V97.2401C117.342 97.8586 116.049 97.5598 115.433 96.5691C114.818 95.5837 115.12 94.2838 116.101 93.6651L125.956 87.4851L125.716 67.2735L117.879 63.0172H117.884C116.544 63.143 115.287 63.7405 114.349 64.7102V98.9392C114.349 100.103 113.41 101.046 112.252 101.046H86.2154V101.46C86.2102 104.239 83.9679 106.493 81.2042 106.493H74.6755L74.7954 116.814L80.7662 120.231C81.7414 120.824 82.0647 122.087 81.5067 123.083C80.9435 124.073 79.692 124.435 78.6908 123.895L72.7721 120.504L66.1026 124.676L66.1078 124.682C65.1223 125.295 63.8291 124.996 63.2137 124.011C62.5983 123.02 62.9008 121.72 63.8811 121.101L70.6081 116.882L70.4881 106.487H63.4014C60.6377 106.482 58.3954 104.233 58.3954 101.455V101.041H33.2503C32.0926 101.041 31.154 100.103 31.154 98.9393V77.2543C30.8203 76.8455 30.5074 76.4156 30.2206 75.9701H21.898C21.8458 75.9701 21.7989 75.9701 21.752 75.9649L21.9188 100.664L28.3172 107.095L28.312 107.09C29.1307 107.913 29.1307 109.245 28.312 110.073C27.4881 110.896 26.1636 110.896 25.3448 110.073L19.8904 104.59L13.6432 111.457C12.861 112.316 11.5365 112.374 10.6812 111.593C9.82602 110.807 9.76866 109.475 10.5509 108.616L17.7262 100.727L17.528 71.9592C17.5176 71.8282 17.5124 71.6919 17.5124 71.5556V63.7873C17.5124 61.3499 19.4784 59.3789 21.898 59.3737H30.2206C30.5074 58.9281 30.8203 58.4983 31.154 58.0894V35.8073C29.0369 34.7013 27.9471 32.2849 28.5153 29.9575C29.0837 27.6354 31.1644 26 33.5474 26H113.535C116.236 26.0052 118.478 28.0915 118.687 30.791C118.901 33.4957 117.008 35.9069 114.343 36.3315V40.1528C120.126 37.8883 126.504 37.6944 132.412 39.5972C133.199 39.8488 133.762 40.5407 133.856 41.3636C133.95 42.1866 133.554 42.9938 132.845 43.4131C130.634 44.734 129.403 47.0561 129.069 50.5105C128.975 51.475 128.245 52.2508 127.291 52.3922C124.793 52.7592 121.471 53.9385 120.575 59.6888L128.798 64.1495V64.1547C129.471 64.5164 129.888 65.2188 129.898 65.9841L130.149 87.4181L138.941 92.4607L138.946 92.4555C139.952 93.0373 140.296 94.3215 139.723 95.3332L139.728 95.3321ZM32.5678 31.2045C32.573 31.7444 33.0111 32.1795 33.5482 32.19H113.536C113.807 32.2004 114.062 32.1008 114.255 31.9121C114.448 31.7287 114.558 31.4718 114.558 31.2045C114.558 30.9372 114.448 30.6803 114.255 30.4916C114.062 30.3082 113.807 30.2086 113.536 30.2191H33.5482C33.0111 30.2243 32.573 30.6646 32.5678 31.2045ZM45.01 70.2133C46.1311 69.8778 46.8925 68.8452 46.8925 67.6711C46.8925 66.4969 46.1312 65.4643 45.01 65.1288V70.2133ZM40.8174 56.873C37.5895 57.502 34.8154 59.562 33.2613 62.4765C32.8963 63.1631 32.1871 63.5877 31.4154 63.5877H30.5758V71.7543H31.4154C32.1871 71.7543 32.8964 72.1789 33.2613 72.8656C34.8154 75.78 37.5895 77.84 40.8174 78.469V56.873ZM21.8985 71.7546H26.3779V63.588H21.8985C21.789 63.5932 21.7056 63.6771 21.7004 63.7871V71.5555C21.7056 71.6656 21.789 71.7493 21.8985 71.7546ZM82.0233 89.2408C82.0128 88.79 81.653 88.4283 81.2046 88.423H63.407C62.9586 88.4283 62.5988 88.79 62.5936 89.2408V101.465C62.5988 101.915 62.9586 102.277 63.407 102.282H81.2046C81.653 102.277 82.0129 101.915 82.0233 101.465V89.2408ZM76.0368 84.2034L75.5102 82.5627H69.0961L68.5695 84.2034H76.0368ZM110.151 96.8309V72.3937C110.105 72.3989 110.052 72.4094 110.005 72.4094C107.429 72.6034 105.458 74.1077 103.977 77.0117C103.618 77.7194 102.898 78.1597 102.111 78.1597H102.043C101.234 78.1335 100.51 77.6407 100.186 76.8912C95.5663 66.2033 97.0733 55.0854 104.212 47.1549V47.1601C105.943 45.2364 107.946 43.5799 110.146 42.238V36.4039H35.3478V54.4886C37.6475 53.1572 40.2548 52.4548 42.9143 52.4548C43.467 52.4548 44.0041 52.6749 44.3953 53.0733C44.7864 53.4665 45.0106 54.0011 45.0106 54.562V60.8469C48.4732 61.2296 51.0909 64.1702 51.0909 67.6716C51.0909 71.1732 48.4732 74.1138 45.0106 74.5016V80.7812C45.0106 81.9449 44.072 82.8884 42.9143 82.8884C40.2548 82.8884 37.6475 82.186 35.3478 80.8546V96.8312H58.3971V89.2412C58.3971 86.4578 60.6394 84.2091 63.4031 84.2039H64.1592L65.5776 79.8113H65.5828C65.8644 78.9412 66.6675 78.3542 67.5749 78.3542H77.0342C77.9415 78.3542 78.7498 78.9412 79.0314 79.8113L80.4498 84.2039H81.2059C83.9696 84.2091 86.212 86.4578 86.2172 89.2412V96.8366L110.151 96.8309ZM116.435 58.9909C117.509 52.1871 121.42 49.5086 125.107 48.544C125.43 46.4578 126.228 44.4765 127.443 42.7519C119.96 41.6616 112.42 44.3715 107.325 49.9855C104.739 52.8527 102.956 56.3542 102.147 60.1335C101.334 63.9128 101.532 67.8442 102.711 71.5239C104.145 69.9776 106.011 68.9083 108.061 68.4469C109.474 62.0311 113.072 59.6882 116.435 58.9909Z" fill="#663366"/>
</svg>
