<svg width="150" height="150" viewBox="0 0 150 150" fill="none" xmlns="http://www.w3.org/2000/svg">
<mask id="path-1-outside-1_259_1537" maskUnits="userSpaceOnUse" x="9" y="35" width="132" height="80" fill="black">
<rect fill="white" x="9" y="35" width="132" height="80"/>
<path d="M138.968 88.4901H135.261V77.5923C135.261 77.0225 134.799 76.5605 134.23 76.5605H128.154V68.0486V60.8909C128.154 60.3211 127.692 59.8591 127.122 59.8591H120.015C119.445 59.8591 118.983 60.3211 118.983 60.8909V67.0169H96.1699V63.2768C96.1699 62.707 95.7079 62.245 95.1381 62.245H94.9852V53.7331C94.9852 53.1634 94.5232 52.7014 93.9534 52.7014H89.2151C88.6454 52.7014 88.1834 53.1634 88.1834 53.7331V56.2803H83.1392V53.7331C83.1392 53.1634 82.6772 52.7014 82.1074 52.7014H77.3689C76.7991 52.7014 76.3371 53.1634 76.3371 53.7331V56.2803H72.4776V53.7331C72.4776 53.1634 72.0157 52.7014 71.4459 52.7014H66.7076C66.1378 52.7014 65.6759 53.1634 65.6759 53.7331V55.0873H63.0008V46.5754C63.0008 46.0056 62.5388 45.5437 61.969 45.5437H57.0778V37.0317C57.0778 36.462 56.6158 36 56.0461 36C55.4763 36 55.0143 36.462 55.0143 37.0317V45.5437H50.1231C49.5533 45.5437 49.0913 46.0056 49.0913 46.5754V55.0873H40.4935V44.1895C40.4935 43.6197 40.0315 43.1577 39.4618 43.1577H34.7235C34.1537 43.1577 33.6917 43.6197 33.6917 44.1895V55.0873H31.0169V44.1895C31.0169 43.6197 30.555 43.1577 29.9852 43.1577H25.2469C24.6771 43.1577 24.2151 43.6197 24.2151 44.1895V55.0873H16.9547C16.385 55.0873 15.923 55.5493 15.923 56.119V88.4901H11.0317C10.462 88.4901 10 88.952 10 89.5218V113.381C10 113.951 10.462 114.413 11.0317 114.413H138.968C139.538 114.413 140 113.951 140 113.381V89.5218C140 88.952 139.538 88.4901 138.968 88.4901ZM133.198 88.4901H115.123V82.3641C115.123 81.7943 114.661 81.3323 114.092 81.3323H102.093V78.624H133.198V88.4901H133.198ZM106.831 76.5605V69.0804H111.875V76.5605H106.831ZM121.047 76.5605V69.0804H126.091V76.5605H121.047ZM121.047 61.9226H126.091V67.0169H121.047V61.9226ZM118.983 76.5605H113.939V69.0804H118.983V76.5605ZM104.768 69.0804V76.5605H102.093V74.0134C102.093 73.4436 101.631 72.9816 101.061 72.9816H96.1699V69.0804H104.768ZM75 72.9816C74.4302 72.9816 73.9683 73.4436 73.9683 74.0134V76.5605H41.6785V76.3993V69.2416V64.3085H94.1064V72.9816H75ZM39.615 63.2768V68.2098H36.9399V63.1156H39.615V63.2768ZM39.615 82.5253H36.9399V77.4311H39.615V82.5253ZM41.6785 85.7817H49.0918V88.4901H41.6785V85.7817ZM50.1236 81.3323C49.5538 81.3323 49.0918 81.7943 49.0918 82.3641V83.7183H41.6785V83.557V78.624H73.9683V81.3323H50.1236ZM67.7396 54.7649H70.4144V57.312C70.4144 57.8818 70.8764 58.3437 71.4462 58.3437H77.3691C77.9389 58.3437 78.4009 57.8818 78.4009 57.312V54.7649H81.076V57.312C81.076 57.8818 81.5379 58.3437 82.1077 58.3437H89.2154C89.7852 58.3437 90.2471 57.8818 90.2471 57.312V54.7649H92.9219V62.245H67.7399V56.119L67.7396 54.7649ZM60.9376 47.6071V50.3155H51.1551V47.6071H60.9376ZM51.1553 52.379H60.9378V55.0873H51.1553V52.379ZM35.7555 45.2212H38.4303V55.0873H35.7555V45.2212ZM26.2786 45.2212H28.9534V55.0873H26.2786V45.2212ZM17.9865 57.1508H65.6761V62.245H41.6785V62.0838C41.6785 61.514 41.2165 61.0521 40.6467 61.0521H35.9082C35.3384 61.0521 34.8764 61.514 34.8764 62.0838V69.2416C34.8764 69.8113 35.3384 70.2733 35.9082 70.2733H39.615V75.3676H35.9082C35.3384 75.3676 34.8764 75.8295 34.8764 76.3993V83.557C34.8764 84.1268 35.3384 84.5888 35.9082 84.5888H39.615V88.4901H17.9865V57.1508ZM95.2911 101.451V112.349H90.2471V95.4157C93.1071 95.9112 95.2911 98.4281 95.2911 101.451ZM88.1834 112.349H83.1392V101.451C83.1392 98.4281 85.3229 95.9112 88.1834 95.4157V112.349ZM137.937 112.349H97.3546V101.451C97.3546 96.9357 93.7035 93.2619 89.2154 93.2619C84.7276 93.2619 81.0762 96.9357 81.0762 101.451V112.349H12.0635V90.5536H50.1236C50.6934 90.5536 51.1553 90.0916 51.1553 89.5218V83.3958H75C75.5698 83.3958 76.0317 82.9339 76.0317 82.3641V75.0451H100.029V82.3641C100.029 82.9339 100.491 83.3958 101.061 83.3958H113.06V89.5218C113.06 90.0916 113.522 90.5536 114.092 90.5536H137.937V112.349Z"/>
</mask>
<path d="M138.968 88.4901H135.261V77.5923C135.261 77.0225 134.799 76.5605 134.23 76.5605H128.154V68.0486V60.8909C128.154 60.3211 127.692 59.8591 127.122 59.8591H120.015C119.445 59.8591 118.983 60.3211 118.983 60.8909V67.0169H96.1699V63.2768C96.1699 62.707 95.7079 62.245 95.1381 62.245H94.9852V53.7331C94.9852 53.1634 94.5232 52.7014 93.9534 52.7014H89.2151C88.6454 52.7014 88.1834 53.1634 88.1834 53.7331V56.2803H83.1392V53.7331C83.1392 53.1634 82.6772 52.7014 82.1074 52.7014H77.3689C76.7991 52.7014 76.3371 53.1634 76.3371 53.7331V56.2803H72.4776V53.7331C72.4776 53.1634 72.0157 52.7014 71.4459 52.7014H66.7076C66.1378 52.7014 65.6759 53.1634 65.6759 53.7331V55.0873H63.0008V46.5754C63.0008 46.0056 62.5388 45.5437 61.969 45.5437H57.0778V37.0317C57.0778 36.462 56.6158 36 56.0461 36C55.4763 36 55.0143 36.462 55.0143 37.0317V45.5437H50.1231C49.5533 45.5437 49.0913 46.0056 49.0913 46.5754V55.0873H40.4935V44.1895C40.4935 43.6197 40.0315 43.1577 39.4618 43.1577H34.7235C34.1537 43.1577 33.6917 43.6197 33.6917 44.1895V55.0873H31.0169V44.1895C31.0169 43.6197 30.555 43.1577 29.9852 43.1577H25.2469C24.6771 43.1577 24.2151 43.6197 24.2151 44.1895V55.0873H16.9547C16.385 55.0873 15.923 55.5493 15.923 56.119V88.4901H11.0317C10.462 88.4901 10 88.952 10 89.5218V113.381C10 113.951 10.462 114.413 11.0317 114.413H138.968C139.538 114.413 140 113.951 140 113.381V89.5218C140 88.952 139.538 88.4901 138.968 88.4901ZM133.198 88.4901H115.123V82.3641C115.123 81.7943 114.661 81.3323 114.092 81.3323H102.093V78.624H133.198V88.4901H133.198ZM106.831 76.5605V69.0804H111.875V76.5605H106.831ZM121.047 76.5605V69.0804H126.091V76.5605H121.047ZM121.047 61.9226H126.091V67.0169H121.047V61.9226ZM118.983 76.5605H113.939V69.0804H118.983V76.5605ZM104.768 69.0804V76.5605H102.093V74.0134C102.093 73.4436 101.631 72.9816 101.061 72.9816H96.1699V69.0804H104.768ZM75 72.9816C74.4302 72.9816 73.9683 73.4436 73.9683 74.0134V76.5605H41.6785V76.3993V69.2416V64.3085H94.1064V72.9816H75ZM39.615 63.2768V68.2098H36.9399V63.1156H39.615V63.2768ZM39.615 82.5253H36.9399V77.4311H39.615V82.5253ZM41.6785 85.7817H49.0918V88.4901H41.6785V85.7817ZM50.1236 81.3323C49.5538 81.3323 49.0918 81.7943 49.0918 82.3641V83.7183H41.6785V83.557V78.624H73.9683V81.3323H50.1236ZM67.7396 54.7649H70.4144V57.312C70.4144 57.8818 70.8764 58.3437 71.4462 58.3437H77.3691C77.9389 58.3437 78.4009 57.8818 78.4009 57.312V54.7649H81.076V57.312C81.076 57.8818 81.5379 58.3437 82.1077 58.3437H89.2154C89.7852 58.3437 90.2471 57.8818 90.2471 57.312V54.7649H92.9219V62.245H67.7399V56.119L67.7396 54.7649ZM60.9376 47.6071V50.3155H51.1551V47.6071H60.9376ZM51.1553 52.379H60.9378V55.0873H51.1553V52.379ZM35.7555 45.2212H38.4303V55.0873H35.7555V45.2212ZM26.2786 45.2212H28.9534V55.0873H26.2786V45.2212ZM17.9865 57.1508H65.6761V62.245H41.6785V62.0838C41.6785 61.514 41.2165 61.0521 40.6467 61.0521H35.9082C35.3384 61.0521 34.8764 61.514 34.8764 62.0838V69.2416C34.8764 69.8113 35.3384 70.2733 35.9082 70.2733H39.615V75.3676H35.9082C35.3384 75.3676 34.8764 75.8295 34.8764 76.3993V83.557C34.8764 84.1268 35.3384 84.5888 35.9082 84.5888H39.615V88.4901H17.9865V57.1508ZM95.2911 101.451V112.349H90.2471V95.4157C93.1071 95.9112 95.2911 98.4281 95.2911 101.451ZM88.1834 112.349H83.1392V101.451C83.1392 98.4281 85.3229 95.9112 88.1834 95.4157V112.349ZM137.937 112.349H97.3546V101.451C97.3546 96.9357 93.7035 93.2619 89.2154 93.2619C84.7276 93.2619 81.0762 96.9357 81.0762 101.451V112.349H12.0635V90.5536H50.1236C50.6934 90.5536 51.1553 90.0916 51.1553 89.5218V83.3958H75C75.5698 83.3958 76.0317 82.9339 76.0317 82.3641V75.0451H100.029V82.3641C100.029 82.9339 100.491 83.3958 101.061 83.3958H113.06V89.5218C113.06 90.0916 113.522 90.5536 114.092 90.5536H137.937V112.349Z" fill="#663366"/>
<path d="M138.968 88.4901H135.261V77.5923C135.261 77.0225 134.799 76.5605 134.23 76.5605H128.154V68.0486V60.8909C128.154 60.3211 127.692 59.8591 127.122 59.8591H120.015C119.445 59.8591 118.983 60.3211 118.983 60.8909V67.0169H96.1699V63.2768C96.1699 62.707 95.7079 62.245 95.1381 62.245H94.9852V53.7331C94.9852 53.1634 94.5232 52.7014 93.9534 52.7014H89.2151C88.6454 52.7014 88.1834 53.1634 88.1834 53.7331V56.2803H83.1392V53.7331C83.1392 53.1634 82.6772 52.7014 82.1074 52.7014H77.3689C76.7991 52.7014 76.3371 53.1634 76.3371 53.7331V56.2803H72.4776V53.7331C72.4776 53.1634 72.0157 52.7014 71.4459 52.7014H66.7076C66.1378 52.7014 65.6759 53.1634 65.6759 53.7331V55.0873H63.0008V46.5754C63.0008 46.0056 62.5388 45.5437 61.969 45.5437H57.0778V37.0317C57.0778 36.462 56.6158 36 56.0461 36C55.4763 36 55.0143 36.462 55.0143 37.0317V45.5437H50.1231C49.5533 45.5437 49.0913 46.0056 49.0913 46.5754V55.0873H40.4935V44.1895C40.4935 43.6197 40.0315 43.1577 39.4618 43.1577H34.7235C34.1537 43.1577 33.6917 43.6197 33.6917 44.1895V55.0873H31.0169V44.1895C31.0169 43.6197 30.555 43.1577 29.9852 43.1577H25.2469C24.6771 43.1577 24.2151 43.6197 24.2151 44.1895V55.0873H16.9547C16.385 55.0873 15.923 55.5493 15.923 56.119V88.4901H11.0317C10.462 88.4901 10 88.952 10 89.5218V113.381C10 113.951 10.462 114.413 11.0317 114.413H138.968C139.538 114.413 140 113.951 140 113.381V89.5218C140 88.952 139.538 88.4901 138.968 88.4901ZM133.198 88.4901H115.123V82.3641C115.123 81.7943 114.661 81.3323 114.092 81.3323H102.093V78.624H133.198V88.4901H133.198ZM106.831 76.5605V69.0804H111.875V76.5605H106.831ZM121.047 76.5605V69.0804H126.091V76.5605H121.047ZM121.047 61.9226H126.091V67.0169H121.047V61.9226ZM118.983 76.5605H113.939V69.0804H118.983V76.5605ZM104.768 69.0804V76.5605H102.093V74.0134C102.093 73.4436 101.631 72.9816 101.061 72.9816H96.1699V69.0804H104.768ZM75 72.9816C74.4302 72.9816 73.9683 73.4436 73.9683 74.0134V76.5605H41.6785V76.3993V69.2416V64.3085H94.1064V72.9816H75ZM39.615 63.2768V68.2098H36.9399V63.1156H39.615V63.2768ZM39.615 82.5253H36.9399V77.4311H39.615V82.5253ZM41.6785 85.7817H49.0918V88.4901H41.6785V85.7817ZM50.1236 81.3323C49.5538 81.3323 49.0918 81.7943 49.0918 82.3641V83.7183H41.6785V83.557V78.624H73.9683V81.3323H50.1236ZM67.7396 54.7649H70.4144V57.312C70.4144 57.8818 70.8764 58.3437 71.4462 58.3437H77.3691C77.9389 58.3437 78.4009 57.8818 78.4009 57.312V54.7649H81.076V57.312C81.076 57.8818 81.5379 58.3437 82.1077 58.3437H89.2154C89.7852 58.3437 90.2471 57.8818 90.2471 57.312V54.7649H92.9219V62.245H67.7399V56.119L67.7396 54.7649ZM60.9376 47.6071V50.3155H51.1551V47.6071H60.9376ZM51.1553 52.379H60.9378V55.0873H51.1553V52.379ZM35.7555 45.2212H38.4303V55.0873H35.7555V45.2212ZM26.2786 45.2212H28.9534V55.0873H26.2786V45.2212ZM17.9865 57.1508H65.6761V62.245H41.6785V62.0838C41.6785 61.514 41.2165 61.0521 40.6467 61.0521H35.9082C35.3384 61.0521 34.8764 61.514 34.8764 62.0838V69.2416C34.8764 69.8113 35.3384 70.2733 35.9082 70.2733H39.615V75.3676H35.9082C35.3384 75.3676 34.8764 75.8295 34.8764 76.3993V83.557C34.8764 84.1268 35.3384 84.5888 35.9082 84.5888H39.615V88.4901H17.9865V57.1508ZM95.2911 101.451V112.349H90.2471V95.4157C93.1071 95.9112 95.2911 98.4281 95.2911 101.451ZM88.1834 112.349H83.1392V101.451C83.1392 98.4281 85.3229 95.9112 88.1834 95.4157V112.349ZM137.937 112.349H97.3546V101.451C97.3546 96.9357 93.7035 93.2619 89.2154 93.2619C84.7276 93.2619 81.0762 96.9357 81.0762 101.451V112.349H12.0635V90.5536H50.1236C50.6934 90.5536 51.1553 90.0916 51.1553 89.5218V83.3958H75C75.5698 83.3958 76.0317 82.9339 76.0317 82.3641V75.0451H100.029V82.3641C100.029 82.9339 100.491 83.3958 101.061 83.3958H113.06V89.5218C113.06 90.0916 113.522 90.5536 114.092 90.5536H137.937V112.349Z" stroke="#663366" stroke-width="0.8" mask="url(#path-1-outside-1_259_1537)"/>
<path d="M28.7998 60.8506C29.4798 60.8508 30.0312 61.4029 30.0312 62.083V69.2402C30.0312 69.9203 29.4798 70.4714 28.7998 70.4717H24.0615C23.3813 70.4717 22.8291 69.9205 22.8291 69.2402V62.083C22.8291 61.4028 23.3813 60.8506 24.0615 60.8506H28.7998ZM25.293 68.0088H27.5674V63.3145H25.293V68.0088Z" fill="#663366" stroke="#663366" stroke-width="0.4"/>
<path d="M28.7998 75.167C29.4798 75.1672 30.0312 75.7193 30.0312 76.3994V83.5566C30.0312 84.2367 29.4798 84.7878 28.7998 84.7881H24.0615C23.3813 84.7881 22.8291 84.2369 22.8291 83.5566V76.3994C22.8291 75.7192 23.3813 75.167 24.0615 75.167H28.7998ZM25.293 82.3252H27.5674V77.6309H25.293V82.3252Z" fill="#663366" stroke="#663366" stroke-width="0.4"/>
<path d="M50.124 66.8154C50.8042 66.8155 51.3555 67.3677 51.3555 68.0479V72.8193C51.3554 73.4994 50.8041 74.0507 50.124 74.0508H45.3857C44.7055 74.0508 44.1534 73.4995 44.1533 72.8193V68.0479C44.1533 67.3676 44.7055 66.8154 45.3857 66.8154H50.124ZM46.6172 71.5879H48.8916V69.2793H46.6172V71.5879Z" fill="#663366" stroke="#663366" stroke-width="0.4"/>
<path d="M60.7842 66.8154L60.9092 66.8223C61.5305 66.8851 62.0156 67.41 62.0156 68.0479V72.8193C62.0155 73.4994 61.4642 74.0505 60.7842 74.0508H56.0459C55.3657 74.0508 54.8136 73.4995 54.8135 72.8193V68.0479C54.8135 67.3676 55.3657 66.8154 56.0459 66.8154H60.7842ZM57.2773 71.5879H59.5518V69.2793H57.2773V71.5879Z" fill="#663366" stroke="#663366" stroke-width="0.4"/>
<path d="M71.4463 66.8154C72.1263 66.8157 72.6777 67.3678 72.6777 68.0479V72.8193C72.6777 73.4994 72.1263 74.0505 71.4463 74.0508H66.708C66.0278 74.0508 65.4757 73.4995 65.4756 72.8193V68.0479C65.4756 67.3676 66.0278 66.8154 66.708 66.8154H71.4463ZM67.9395 71.5879H70.2139V69.2793H67.9395V71.5879Z" fill="#663366" stroke="#663366" stroke-width="0.4"/>
<path d="M79.7373 77.5537C80.4173 77.554 80.9688 78.1061 80.9688 78.7861V81.1719C80.9686 81.8518 80.4172 82.4031 79.7373 82.4033C79.0572 82.4033 78.5051 81.852 78.5049 81.1719V78.7861C78.5049 78.1059 79.0571 77.5537 79.7373 77.5537Z" fill="#663366" stroke="#663366" stroke-width="0.4"/>
<path d="M84.4775 77.5537C85.1576 77.554 85.709 78.1061 85.709 78.7861V81.1719C85.7088 81.8518 85.1575 82.4031 84.4775 82.4033C83.7974 82.4033 83.2453 81.852 83.2451 81.1719V78.7861C83.2451 78.1059 83.7973 77.5537 84.4775 77.5537Z" fill="#663366" stroke="#663366" stroke-width="0.4"/>
<path d="M57.2314 85.9053C57.9115 85.9055 58.4629 86.4576 58.4629 87.1377V89.5234C58.4627 90.2034 57.9114 90.7546 57.2314 90.7549C56.5513 90.7549 55.9992 90.2035 55.999 89.5234V87.1377C55.999 86.4575 56.5512 85.9053 57.2314 85.9053Z" fill="#663366" stroke="#663366" stroke-width="0.4"/>
<path d="M64.3369 85.9053C65.0166 85.9055 65.5684 86.4576 65.5684 87.1377V89.5234C65.5682 90.2034 65.0168 90.7546 64.3369 90.7549C63.6568 90.7549 63.1047 90.2035 63.1045 89.5234V87.1377C63.1045 86.4575 63.6567 85.9053 64.3369 85.9053Z" fill="#663366" stroke="#663366" stroke-width="0.4"/>
<path d="M71.4463 85.9053C72.1263 85.9055 72.6777 86.4576 72.6777 87.1377V89.5234C72.6776 90.2034 72.1262 90.7546 71.4463 90.7549C70.7662 90.7549 70.214 90.2035 70.2139 89.5234V87.1377C70.2139 86.4575 70.7661 85.9053 71.4463 85.9053Z" fill="#663366" stroke="#663366" stroke-width="0.4"/>
<path d="M106.983 85.9053C107.663 85.9055 108.215 86.4576 108.215 87.1377V89.5234C108.215 90.2034 107.663 90.7546 106.983 90.7549C106.303 90.7549 105.751 90.2035 105.751 89.5234V87.1377C105.751 86.4575 106.303 85.9053 106.983 85.9053Z" fill="#663366" stroke="#663366" stroke-width="0.4"/>
<path d="M131.86 93.0615C132.54 93.0618 133.092 93.6139 133.092 94.2939V96.6797C133.092 97.3596 132.54 97.9109 131.86 97.9111C131.18 97.9111 130.628 97.3598 130.628 96.6797V94.2939C130.628 93.6137 131.18 93.0615 131.86 93.0615Z" fill="#663366" stroke="#663366" stroke-width="0.4"/>
<path d="M117.644 93.0615C118.324 93.0618 118.875 93.6139 118.875 94.2939V96.6797C118.875 97.3596 118.323 97.9109 117.644 97.9111C116.963 97.9111 116.411 97.3598 116.411 96.6797V94.2939C116.411 93.6137 116.963 93.0615 117.644 93.0615Z" fill="#663366" stroke="#663366" stroke-width="0.4"/>
<path d="M32.3545 93.0615C33.0342 93.0618 33.5859 93.6138 33.5859 94.2939V96.6797C33.5858 97.3596 33.0344 97.9109 32.3545 97.9111C31.6744 97.9111 31.1222 97.3598 31.1221 96.6797V94.2939C31.1221 93.6137 31.6743 93.0615 32.3545 93.0615Z" fill="#663366" stroke="#663366" stroke-width="0.4"/>
<path d="M18.1396 93.0615C18.8197 93.0618 19.3711 93.6139 19.3711 94.2939V96.6797C19.3709 97.3596 18.8196 97.9109 18.1396 97.9111C17.4595 97.9111 16.9074 97.3598 16.9072 96.6797V94.2939C16.9072 93.6137 17.4594 93.0615 18.1396 93.0615Z" fill="#663366" stroke="#663366" stroke-width="0.4"/>
<path d="M46.5693 93.0615C47.2494 93.0618 47.8008 93.6139 47.8008 94.2939V96.6797C47.8006 97.3596 47.2493 97.9109 46.5693 97.9111C45.8892 97.9111 45.3371 97.3598 45.3369 96.6797V94.2939L45.3438 94.168C45.4066 93.5467 45.9315 93.0615 46.5693 93.0615Z" fill="#663366" stroke="#663366" stroke-width="0.4"/>
<path d="M91.583 77.5537C92.263 77.554 92.8145 78.1061 92.8145 78.7861V81.1719C92.8143 81.8518 92.2629 82.4031 91.583 82.4033C90.9029 82.4033 90.3508 81.852 90.3506 81.1719V78.7861C90.3506 78.1059 90.9028 77.5537 91.583 77.5537Z" fill="#663366" stroke="#663366" stroke-width="0.4"/>
<path d="M96.3232 77.5537C97.003 77.554 97.5547 78.106 97.5547 78.7861V81.1719C97.5545 81.8518 97.0032 82.4031 96.3232 82.4033C95.6431 82.4033 95.091 81.852 95.0908 81.1719V78.7861C95.0908 78.1059 95.643 77.5537 96.3232 77.5537Z" fill="#663366" stroke="#663366" stroke-width="0.4"/>
</svg>
