<svg width="150" height="150" viewBox="0 0 150 150" fill="none" xmlns="http://www.w3.org/2000/svg">
<path fill-rule="evenodd" clip-rule="evenodd" d="M40.424 114.404H13.9511V109.187C13.9511 101.902 19.8913 95.9821 27.1876 95.9821C34.4898 95.9821 40.424 101.908 40.424 109.187L40.4299 114.404H40.424ZM27.1876 80.5676C30.3559 80.5676 32.9382 83.1436 32.9382 86.3046C32.9382 89.4656 30.362 92.0416 27.1876 92.0416C24.0192 92.0416 21.4369 89.4715 21.4369 86.3046C21.4369 83.1437 24.019 80.5676 27.1876 80.5676ZM33.8087 93.3649C35.698 91.5983 36.8883 89.0873 36.8883 86.3044C36.8883 80.9693 32.5413 76.6267 27.1876 76.6267C21.8398 76.6267 17.4869 80.9693 17.4869 86.3044C17.4869 89.0872 18.6713 91.5983 20.5664 93.3649C14.3658 95.9586 10.0009 102.074 10.0009 109.187V116.378C10.0009 117.465 10.8833 118.345 11.9731 118.345H42.4015C43.4912 118.345 44.3736 117.465 44.3736 116.378V109.187C44.3736 102.074 40.0095 95.9528 33.8087 93.3649ZM135.062 114.404H108.589V109.187C108.589 101.902 114.53 95.982 121.826 95.982C129.128 95.982 135.062 101.908 135.062 109.187L135.068 114.404H135.062ZM121.826 80.5674C124.994 80.5674 127.577 83.1434 127.577 86.3044C127.577 89.4654 125 92.0414 121.826 92.0414C118.658 92.0414 116.075 89.4713 116.075 86.3044C116.075 83.1436 118.657 80.5674 121.826 80.5674ZM128.447 93.3647C130.336 91.5981 131.521 89.0872 131.521 86.3043C131.521 80.9692 127.174 76.6266 121.82 76.6266C116.472 76.6266 112.119 80.9692 112.119 86.3043C112.119 89.087 113.304 91.5981 115.199 93.3647C108.998 95.9584 104.633 102.074 104.633 109.187V116.378C104.633 117.465 105.516 118.345 106.605 118.345H137.028C138.118 118.345 139 117.465 139 116.378V109.187C139.012 102.074 134.648 95.9527 128.447 93.3647ZM135.062 65.8323H108.589V60.6153C108.589 53.3304 114.53 47.4102 121.826 47.4102C129.128 47.4102 135.062 53.3363 135.062 60.6153L135.068 65.8323H135.062ZM121.826 31.9957C124.994 31.9957 127.577 34.5717 127.577 37.7327C127.577 40.8937 125 43.4697 121.826 43.4697C118.658 43.4697 116.075 40.8996 116.075 37.7327C116.075 34.5658 118.657 31.9957 121.826 31.9957ZM128.447 44.7871C130.336 43.0205 131.521 40.5095 131.521 37.7266C131.521 32.3915 127.174 28.0489 121.82 28.0489C116.472 28.0489 112.119 32.3915 112.119 37.7266C112.119 40.5094 113.304 43.0205 115.199 44.7871C108.998 47.3808 104.633 53.4959 104.633 60.6096V67.7999C104.633 68.8871 105.516 69.7674 106.605 69.7674H137.028C138.118 69.7674 139 68.8871 139 67.7999V60.6096C139.012 53.496 134.648 47.3809 128.447 44.7871ZM40.4231 65.8323H13.9502V60.6153C13.9502 53.3304 19.8904 47.4102 27.1867 47.4102C34.4889 47.4102 40.4231 53.3363 40.4231 60.6153L40.429 65.8323H40.4231ZM27.1867 31.9957C30.355 31.9957 32.9373 34.5717 32.9373 37.7327C32.9373 40.8937 30.3611 43.4697 27.1867 43.4697C24.0183 43.4697 21.436 40.8996 21.436 37.7327C21.436 34.5658 24.0181 31.9957 27.1867 31.9957ZM33.8078 44.7871C35.697 43.0205 36.8873 40.5095 36.8873 37.7266C36.8873 32.3915 32.5404 28.0489 27.1867 28.0489C21.8389 28.0489 17.486 32.3915 17.486 37.7266C17.486 40.5094 18.6704 43.0205 20.5655 44.7871C14.3649 47.3808 10 53.4959 10 60.6096V67.7999C10 68.8871 10.8824 69.7674 11.9722 69.7674L42.4005 69.7733C43.4902 69.7733 44.3727 68.893 44.3727 67.8059V60.6155C44.3727 53.496 40.0086 47.3811 33.8078 44.7871ZM96.5552 118.244C96.5552 119.958 95.1575 121.358 93.4341 121.358H91.6633C89.5491 117.151 85.9306 113.831 81.5125 112.094C83.7807 110.132 85.2198 107.243 85.2198 104.023C85.2198 98.1325 80.4168 93.3408 74.5063 93.3408C68.6018 93.3408 63.7988 98.1325 63.7988 104.023C63.7988 107.249 65.2379 110.132 67.5062 112.094C63.0881 113.831 59.4695 117.151 57.3553 121.358H55.5845C53.8671 121.358 52.4634 119.964 52.4634 118.244V54.9255C52.4634 53.2121 53.8611 51.8118 55.5845 51.8118H93.4343C95.1517 51.8118 96.5553 53.2121 96.5553 54.9255L96.5552 118.244ZM67.743 104.023C67.743 107.739 70.7752 110.77 74.5062 110.77C78.2372 110.77 81.2694 107.745 81.2694 104.023C81.2694 100.307 78.2372 97.2817 74.5062 97.2817C70.7811 97.2758 67.743 100.301 67.743 104.023ZM89.7387 136.064V129.902C89.7387 121.672 83.0524 114.706 74.5063 114.706C65.9603 114.706 59.274 121.672 59.274 129.902V136.064H89.7387ZM61.2707 42.5602C61.2707 35.2753 67.2108 29.3551 74.5071 29.3551C81.8093 29.3551 87.7435 35.2812 87.7435 42.5602V47.8717H61.2707V42.5602ZM74.5071 13.9403C77.6755 13.9403 80.2577 16.5103 80.2577 19.6773C80.2577 22.8381 77.6815 25.4143 74.5071 25.4143C71.3387 25.4143 68.7565 22.8383 68.7565 19.6773C68.7565 16.5162 71.3386 13.9403 74.5071 13.9403ZM93.4343 47.8722H91.6932V42.5606C91.6932 35.4471 87.3284 29.332 81.1277 26.7382C83.0169 24.9715 84.2072 22.4665 84.2072 19.6777C84.2072 14.3426 79.8543 10 74.5065 10C69.1587 10 64.8058 14.3426 64.8058 19.6777C64.8058 22.4605 65.9903 24.9715 67.8794 26.7382C61.6788 29.3318 57.3139 35.447 57.3139 42.5606V47.8722H55.5728C51.676 47.8722 48.5015 51.0391 48.5015 54.9208V118.246C48.5015 122.133 51.6699 125.3 55.5728 125.3H55.8867C55.5195 126.777 55.3241 128.319 55.3241 129.903V138.033C55.3241 139.12 56.2065 140 57.2963 140H91.7105C92.8002 140 93.6827 139.12 93.6827 138.033V129.903C93.6827 128.313 93.4872 126.777 93.12 125.3H93.4339C97.3308 125.3 100.505 122.139 100.505 118.246L100.499 54.9269C100.499 51.0392 97.3313 47.8722 93.4343 47.8722Z" fill="#663366"/>
</svg>
