<svg width="150" height="150" viewBox="0 0 150 150" fill="none" xmlns="http://www.w3.org/2000/svg">
<path d="M111.743 73.1362L115.091 71.1456C116.492 70.3126 117.351 68.8032 117.351 67.1732V63.4311C117.351 61.6161 116.289 59.9691 114.635 59.2209L113.027 58.4932C111.373 57.7448 110.311 56.098 110.311 54.2831V50.742C110.311 49.5163 110.798 48.341 111.665 47.4743L115.033 44.1062C115.899 43.2395 116.386 42.0642 116.386 40.8384V37.2096C116.386 34.6574 114.317 32.5882 111.765 32.5882H106.033C104.807 32.5882 103.632 33.0751 102.765 33.9418L97.7485 38.9585C96.8817 39.8252 95.7064 40.3121 94.4807 40.3121H84.7896C82.2374 40.3121 80.1683 38.243 80.1683 35.6907C80.1683 33.1385 78.0991 31.0694 75.5469 31.0694H71.3673C70.1989 31.0694 69.0737 30.6268 68.2186 29.8307L64.3534 26.2329C63.4981 25.4367 62.3732 24.9941 61.2048 24.9941H48.529C46.9748 24.9941 45.5244 25.7755 44.6696 27.0736L42.0991 30.9762C41.2442 32.2744 39.7938 33.0557 38.2397 33.0557H33.9534C31.4011 33.0557 29.332 35.1248 29.332 37.6771V42.8248C29.332 44.0505 29.8189 45.2258 30.6856 46.0926L34.6379 50.0448C35.5046 50.9116 36.6799 51.3984 37.9056 51.3984H39.5484C42.1007 51.3984 44.1698 53.4675 44.1698 56.0198V57.7793C44.1698 59.005 43.6829 60.1803 42.8162 61.047L39.5065 64.3567C38.6397 65.2235 38.1529 66.3988 38.1529 67.6245V77.7374C38.1529 80.2896 40.222 82.3587 42.7743 82.3587H56.8896L65.4298 64.5374C66.1983 62.9336 67.8188 61.9132 69.5972 61.9132H73.6972C74.9229 61.9132 76.0982 62.4001 76.965 63.2668L83.1654 69.4673" stroke="#663366" stroke-width="4" stroke-miterlimit="10" stroke-linecap="round" stroke-linejoin="round"/>
<path d="M56.8899 93.9256L20 104.527V20.6011L56.8899 10V93.9256Z" stroke="#663366" stroke-width="4" stroke-miterlimit="10" stroke-linecap="round" stroke-linejoin="round"/>
<path d="M93.7803 20.6011L130.67 10V93.9256L122.993 96.1317" stroke="#663366" stroke-width="4" stroke-miterlimit="10" stroke-linecap="round" stroke-linejoin="round"/>
<path d="M93.7798 67.2866V20.6011L56.8896 10" stroke="#663366" stroke-width="4" stroke-miterlimit="10" stroke-linecap="round" stroke-linejoin="round"/>
<path d="M56.8896 93.9258L65.7421 96.4695" stroke="#663366" stroke-width="4" stroke-miterlimit="10" stroke-linecap="round" stroke-linejoin="round"/>
<path d="M71.526 127.7L61.036 138.189C58.6212 140.604 54.7061 140.604 52.2916 138.189C49.8768 135.775 49.8768 131.86 52.2916 129.445L62.7815 118.955L71.526 127.7Z" stroke="#663366" stroke-width="4" stroke-miterlimit="10" stroke-linecap="round" stroke-linejoin="round"/>
<path d="M94.3164 124.161C109.797 124.161 122.346 111.612 122.346 96.1313C122.346 80.6509 109.797 68.1016 94.3164 68.1016C78.836 68.1016 66.2866 80.6509 66.2866 96.1313C66.2866 111.612 78.836 124.161 94.3164 124.161Z" stroke="#663366" stroke-width="4" stroke-miterlimit="10" stroke-linecap="round" stroke-linejoin="round"/>
<path d="M67.3643 123.083L74.2755 116.172" stroke="#663366" stroke-width="4" stroke-miterlimit="10" stroke-linecap="round" stroke-linejoin="round"/>
<path d="M94.3162 111.861L85.3691 101.34C81.4046 96.6779 81.6843 89.7534 86.0114 85.4263C90.598 80.8397 98.0348 80.8397 102.621 85.4263C106.948 89.7534 107.228 96.6781 103.264 101.34L94.3162 111.861Z" stroke="#663366" stroke-width="4" stroke-miterlimit="10" stroke-linecap="round" stroke-linejoin="round"/>
<circle cx="94.3158" cy="93.4086" r="2.91836" fill="#663366"/>
</svg>
