<svg width="150" height="150" viewBox="0 0 150 150" fill="none" xmlns="http://www.w3.org/2000/svg">
<path d="M40.491 96.2674C34.6163 93.8733 29.1595 90.355 24.6707 85.8661C10.0986 71.294 6.06533 52.9287 13.9971 35.5392C24.308 30.8371 36.9023 31.2164 48.0498 35.6309" stroke="#663366" stroke-width="4" stroke-miterlimit="10" stroke-linecap="round" stroke-linejoin="round"/>
<path d="M102.112 35.5674C113.219 31.213 125.742 30.8596 136.003 35.5394C143.935 52.9288 139.902 71.2941 125.329 85.8662C120.841 90.3551 115.384 93.8734 109.509 96.2675" stroke="#663366" stroke-width="4" stroke-miterlimit="10" stroke-linecap="round" stroke-linejoin="round"/>
<path d="M101.63 70.0576C103.899 64.7467 105.196 59.0778 105.196 53.4061C105.196 34.8925 91.3784 16.12 75 10C58.6216 16.12 44.8044 34.8925 44.8044 53.4061C44.8044 58.9575 46.0468 64.5065 48.2276 69.7195" stroke="#663366" stroke-width="4" stroke-miterlimit="10" stroke-linecap="round" stroke-linejoin="round"/>
<path d="M89.677 68.5039H93.3331C102.268 68.5039 109.509 75.7455 109.509 84.6801V106.248C109.509 115.183 102.268 122.425 93.3331 122.425H56.667C47.7324 122.425 40.4908 115.183 40.4908 106.248V84.6801C40.4908 75.7455 47.7324 68.5039 56.667 68.5039H60.2406" stroke="#663366" stroke-width="4" stroke-miterlimit="10" stroke-linecap="round" stroke-linejoin="round"/>
<path d="M94.4116 92.2285V103.282C94.4116 105.516 92.6009 107.326 90.3676 107.326H75.0002M75.0002 107.326V122.424M75.0002 107.326H59.6328C57.3994 107.326 55.5887 105.516 55.5887 103.282V92.2285" stroke="#663366" stroke-width="4" stroke-miterlimit="10" stroke-linecap="round" stroke-linejoin="round"/>
<path d="M111.531 139.948H38.4689C33.6298 139.948 29.7068 136.025 29.7068 131.186C29.7068 126.347 33.6298 122.424 38.4689 122.424H111.531C116.37 122.424 120.293 126.347 120.293 131.186C120.293 136.025 116.37 139.948 111.531 139.948Z" stroke="#663366" stroke-width="4" stroke-miterlimit="10" stroke-linecap="round" stroke-linejoin="round"/>
<path d="M75.0001 122.424V139.948" stroke="#663366" stroke-width="4" stroke-miterlimit="10" stroke-linecap="round" stroke-linejoin="round"/>
<path d="M75.0002 77.1303C66.662 77.1303 59.9025 70.3708 59.9025 62.0325V57.7189C59.9025 49.3806 66.662 42.6211 75.0002 42.6211C83.3385 42.6211 90.098 49.3806 90.098 57.7189V62.0325C90.098 70.3708 83.3385 77.1303 75.0002 77.1303Z" stroke="#663366" stroke-width="4" stroke-miterlimit="10" stroke-linecap="round" stroke-linejoin="round"/>
</svg>
