<svg width="150" height="150" viewBox="0 0 150 150" fill="none" xmlns="http://www.w3.org/2000/svg">
<path fill-rule="evenodd" clip-rule="evenodd" d="M46.8945 139.699C45.9074 139.699 45.0613 138.993 44.885 138.006L38.8566 100.673C38.7509 100.073 38.9272 99.4739 39.3149 99.0156C39.7027 98.5573 40.2668 98.3105 40.8661 98.3105H109.082C109.682 98.3105 110.246 98.5573 110.633 99.0156C111.021 99.4739 111.198 100.073 111.092 100.637L105.134 137.971C104.958 139.064 103.9 139.84 102.807 139.663C101.714 139.487 100.939 138.429 101.115 137.337L106.685 102.365H43.2281L48.8687 137.337C49.045 138.429 48.3047 139.487 47.1765 139.663C47.106 139.663 47.0003 139.699 46.8945 139.699Z" fill="#663366"/>
<path fill-rule="evenodd" clip-rule="evenodd" d="M96.3205 102.365C95.1924 102.365 94.2758 101.448 94.2758 100.32V98.3811C94.2758 95.7723 93.7823 93.2341 92.7599 90.872C91.7728 88.5805 90.3979 86.5006 88.6352 84.7379C86.8725 82.9752 84.7925 81.565 82.501 80.6132C80.1038 79.5908 77.6007 79.0973 74.9919 79.0973C72.3832 79.0973 69.8449 79.5908 67.4829 80.6132C65.1914 81.6003 63.1114 82.9752 61.3487 84.7379C59.586 86.5006 58.1759 88.5805 57.224 90.872C56.2016 93.2693 55.7081 95.7723 55.7081 98.3811V100.32C55.7081 101.448 54.7915 102.365 53.6634 102.365C52.5353 102.365 51.6187 101.448 51.6187 100.32V98.3811C51.6187 95.2435 52.2532 92.1764 53.4519 89.2856C54.6152 86.5006 56.3074 83.9975 58.4579 81.8471C60.6084 79.6966 63.1114 78.0044 65.8965 76.841C68.7873 75.6071 71.8544 75.0078 74.9919 75.0078C78.1295 75.0078 81.1966 75.6424 84.0874 76.841C86.8725 78.0044 89.3755 79.6966 91.526 81.8471C93.6765 83.9975 95.3687 86.5006 96.532 89.2856C97.7659 92.1764 98.3652 95.2435 98.3652 98.3811V100.32C98.33 101.448 97.4486 102.365 96.3205 102.365Z" fill="#663366"/>
<path fill-rule="evenodd" clip-rule="evenodd" d="M58.8809 125.809C57.7528 125.809 56.8362 124.892 56.8362 123.764V110.826C56.8362 109.698 57.7528 108.781 58.8809 108.781C60.009 108.781 60.9256 109.698 60.9256 110.826V123.764C60.9256 124.892 60.009 125.809 58.8809 125.809Z" fill="#663366"/>
<path fill-rule="evenodd" clip-rule="evenodd" d="M74.992 125.809C73.8639 125.809 72.9473 124.892 72.9473 123.764V110.826C72.9473 109.698 73.8639 108.781 74.992 108.781C76.1201 108.781 77.0367 109.698 77.0367 110.826V123.764C77.0015 124.892 76.0849 125.809 74.992 125.809Z" fill="#663366"/>
<path fill-rule="evenodd" clip-rule="evenodd" d="M91.0679 125.809C89.9398 125.809 89.0232 124.892 89.0232 123.764V110.826C89.0232 109.698 89.9398 108.781 91.0679 108.781C92.196 108.781 93.1126 109.698 93.1126 110.826V123.764C93.1126 124.892 92.196 125.809 91.0679 125.809Z" fill="#663366"/>
<path fill-rule="evenodd" clip-rule="evenodd" d="M127.45 48.4609C120.54 48.4609 114.935 42.8555 114.935 35.9458V31.4685C114.935 30.3404 115.851 29.4238 116.979 29.4238H137.955C139.083 29.4238 140 30.3404 140 31.4685V35.9458C139.965 42.8555 134.324 48.4609 127.45 48.4609ZM118.989 33.5133V35.9458C118.989 40.5993 122.796 44.4067 127.45 44.4067C132.103 44.4067 135.911 40.5993 135.911 35.9458V33.5133H118.989Z" fill="#663366"/>
<path fill-rule="evenodd" clip-rule="evenodd" d="M122.761 130.885C121.632 130.885 120.716 129.968 120.716 128.84V45.324C120.716 44.1959 121.632 43.2793 122.761 43.2793C123.889 43.2793 124.805 44.1959 124.805 45.324V128.84C124.805 129.968 123.889 130.885 122.761 130.885Z" fill="#663366"/>
<path fill-rule="evenodd" clip-rule="evenodd" d="M131.398 130.884C130.269 130.884 129.353 129.968 129.353 128.839V45.6756C129.353 44.5475 130.269 43.6309 131.398 43.6309C132.526 43.6309 133.442 44.5475 133.442 45.6756V128.839C133.407 129.968 132.49 130.884 131.398 130.884Z" fill="#663366"/>
<path fill-rule="evenodd" clip-rule="evenodd" d="M134.042 139.697H120.117C118.531 139.697 117.261 138.428 117.261 136.842V135.326C117.261 129.897 121.668 125.525 127.062 125.525C132.491 125.525 136.863 129.932 136.863 135.326V136.842C136.898 138.393 135.593 139.697 134.042 139.697ZM121.316 135.643H132.808V135.326C132.808 132.153 130.235 129.58 127.062 129.58C123.889 129.58 121.316 132.153 121.316 135.326V135.643Z" fill="#663366"/>
<path fill-rule="evenodd" clip-rule="evenodd" d="M12.0286 33.5143C11.6055 33.5143 11.1825 33.3733 10.7947 33.0913C9.91336 32.4214 9.73709 31.1523 10.4069 30.2357L25.0725 10.8108C25.4603 10.3173 26.0596 10 26.6942 10H123.254C123.889 10 124.488 10.282 124.876 10.8108L139.542 30.2357C140.212 31.117 140.035 32.4214 139.154 33.0913C138.273 33.7611 136.968 33.5848 136.298 32.7035L122.232 14.0894H27.7166L13.6503 32.7035C13.2625 33.2323 12.6279 33.5143 12.0286 33.5143Z" fill="#663366"/>
<path fill-rule="evenodd" clip-rule="evenodd" d="M43.5102 48.4609C36.6005 48.4609 30.9951 42.8555 30.9951 35.9458V31.4685C30.9951 30.3404 31.9117 29.4238 33.0398 29.4238H54.0159C55.144 29.4238 56.0606 30.3404 56.0606 31.4685V35.9458C56.0253 42.8555 50.42 48.4609 43.5102 48.4609ZM35.0493 33.5133V35.9458C35.0493 40.5993 38.8567 44.4067 43.5102 44.4067C48.1637 44.4067 51.9712 40.5993 51.9712 35.9458V33.5133H35.0493Z" fill="#663366"/>
<path fill-rule="evenodd" clip-rule="evenodd" d="M64.4863 48.4609C57.5766 48.4609 51.9712 42.8555 51.9712 35.9458V31.4685C51.9712 30.3404 52.8878 29.4238 54.0159 29.4238H74.992C76.1201 29.4238 77.0367 30.3404 77.0367 31.4685V35.9458C77.0014 42.8555 71.3961 48.4609 64.4863 48.4609ZM56.0254 33.5133V35.9458C56.0254 40.5993 59.8328 44.4067 64.4863 44.4067C69.1398 44.4067 72.9472 40.5993 72.9472 35.9458V33.5133H56.0254Z" fill="#663366"/>
<path fill-rule="evenodd" clip-rule="evenodd" d="M85.4624 48.4609C78.5526 48.4609 72.9473 42.8555 72.9473 35.9458V31.4685C72.9473 30.3404 73.8639 29.4238 74.992 29.4238H95.968C97.0961 29.4238 98.0127 30.3404 98.0127 31.4685V35.9458C97.9775 42.8555 92.3721 48.4609 85.4624 48.4609ZM77.0015 33.5133V35.9458C77.0015 40.5993 80.8089 44.4067 85.4624 44.4067C90.1159 44.4067 93.9233 40.5993 93.9233 35.9458V33.5133H77.0015Z" fill="#663366"/>
<path fill-rule="evenodd" clip-rule="evenodd" d="M106.438 48.4609C99.5287 48.4609 93.9233 42.8555 93.9233 35.9458V31.4685C93.9233 30.3404 94.8399 29.4238 95.9681 29.4238H116.944C118.072 29.4238 118.989 30.3404 118.989 31.4685V35.9458C118.989 42.8555 113.348 48.4609 106.438 48.4609ZM97.9775 33.5133V35.9458C97.9775 40.5993 101.785 44.4067 106.438 44.4067C111.092 44.4067 114.899 40.5993 114.899 35.9458V33.5133H97.9775Z" fill="#663366"/>
<path fill-rule="evenodd" clip-rule="evenodd" d="M22.5342 48.4609C15.6244 48.4609 10.019 42.8555 10.019 35.9458V31.4685C10.019 30.3404 10.9356 29.4238 12.0638 29.4238H33.0398C34.1679 29.4238 35.0845 30.3404 35.0845 31.4685V35.9458C35.0493 42.8555 29.4087 48.4609 22.5342 48.4609ZM14.0732 33.5133V35.9458C14.0732 40.5993 17.8806 44.4067 22.5342 44.4067C27.1877 44.4067 30.9951 40.5993 30.9951 35.9458V33.5133H14.0732Z" fill="#663366"/>
<path fill-rule="evenodd" clip-rule="evenodd" d="M17.8448 130.885C16.7166 130.885 15.8 129.968 15.8 128.84V45.324C15.8 44.1959 16.7166 43.2793 17.8448 43.2793C18.9729 43.2793 19.8895 44.1959 19.8895 45.324V128.84C19.8895 129.968 18.9729 130.885 17.8448 130.885Z" fill="#663366"/>
<path fill-rule="evenodd" clip-rule="evenodd" d="M26.4822 130.884C25.3541 130.884 24.4375 129.968 24.4375 128.839V45.6756C24.4375 44.5475 25.3541 43.6309 26.4822 43.6309C27.6103 43.6309 28.5269 44.5475 28.5269 45.6756V128.839C28.4917 129.968 27.5751 130.884 26.4822 130.884Z" fill="#663366"/>
<path fill-rule="evenodd" clip-rule="evenodd" d="M29.1268 139.697H15.2015C13.6151 139.697 12.3459 138.428 12.3459 136.842V135.326C12.3459 129.897 16.7527 125.525 22.1465 125.525C27.5404 125.525 31.9471 129.932 31.9471 135.326V136.842C31.9823 138.393 30.6779 139.697 29.1268 139.697ZM16.4001 135.643H27.8929V135.326C27.8929 132.153 25.3194 129.58 22.1465 129.58C18.9737 129.58 16.4001 132.153 16.4001 135.326V135.643Z" fill="#663366"/>
<path fill-rule="evenodd" clip-rule="evenodd" d="M119.271 139.699H29.1265C27.9984 139.699 27.0818 138.782 27.0818 137.654C27.0818 136.526 27.9984 135.609 29.1265 135.609H119.306C120.434 135.609 121.351 136.526 121.351 137.654C121.315 138.782 120.399 139.699 119.271 139.699Z" fill="#663366"/>
</svg>
