<svg width="150" height="150" viewBox="0 0 150 150" fill="none" xmlns="http://www.w3.org/2000/svg">
<path d="M17.8789 68.0411V54.6289" stroke="#663366" stroke-width="4" stroke-miterlimit="10" stroke-linecap="round" stroke-linejoin="round"/>
<path d="M17.8789 128.182V77.2324" stroke="#663366" stroke-width="4" stroke-miterlimit="10" stroke-linecap="round" stroke-linejoin="round"/>
<path d="M132.121 71.0612V54.6289" stroke="#663366" stroke-width="4" stroke-miterlimit="10" stroke-linecap="round" stroke-linejoin="round"/>
<path d="M132.121 128.181V120.303" stroke="#663366" stroke-width="4" stroke-miterlimit="10" stroke-linecap="round" stroke-linejoin="round"/>
<path d="M62 42.6973C62 49.8773 56.1801 55.6973 49 55.6973C41.8199 55.6973 36 49.8773 36 42.6973" stroke="#663366" stroke-width="4" stroke-miterlimit="10" stroke-linecap="round" stroke-linejoin="round"/>
<path d="M88 42.697C88 49.877 82.1801 55.6969 75 55.6969C67.8199 55.6969 62 49.877 62 42.697L65.1514 10" stroke="#663366" stroke-width="4" stroke-miterlimit="10" stroke-linecap="round" stroke-linejoin="round"/>
<path d="M114 42.697C114 49.877 108.18 55.6969 101 55.6969C93.8199 55.6969 88 49.877 88 42.697L84.8486 10" stroke="#663366" stroke-width="4" stroke-miterlimit="10" stroke-linecap="round" stroke-linejoin="round"/>
<path d="M108.485 10L114 42.697C114 49.9508 119.941 55.8178 127.223 55.6943C135.776 55.5526 141.456 47.2786 139.023 39.2618L134.648 24.8331C131.977 16.0247 123.857 10 114.652 10C105.851 10 43.5957 10 35.349 10C26.1438 10 18.0234 16.0247 15.3525 24.8331L10.9773 39.2618C9.13109 45.3469 11.9725 51.9808 17.7741 54.5834C25.9764 58.3691 36.0003 52.3133 36.0003 42.697L41.5155 10" stroke="#663366" stroke-width="4" stroke-miterlimit="10" stroke-linecap="round" stroke-linejoin="round"/>
<path d="M29.697 128.182C26.8236 128.182 18.8889 128.182 15.9091 128.182C12.6421 128.182 10 130.832 10 134.091C10 137.355 12.6447 140 15.9091 140H105.157" stroke="#663366" stroke-width="4" stroke-miterlimit="10" stroke-linecap="round" stroke-linejoin="round"/>
<path d="M69.0918 128.182C71.9288 128.182 130.87 128.182 134.092 128.182C137.356 128.182 140.001 130.826 140.001 134.091C140.001 137.35 137.359 140 134.092 140H114.35" stroke="#663366" stroke-width="4" stroke-miterlimit="10" stroke-linecap="round" stroke-linejoin="round"/>
<path d="M69.0912 128.182H29.6973V83.6666C29.6973 76.7044 35.3411 71.0605 42.3033 71.0605H56.4851C63.4473 71.0605 69.0912 76.7044 69.0912 83.6666V128.182Z" stroke="#663366" stroke-width="4" stroke-miterlimit="10" stroke-linecap="round" stroke-linejoin="round"/>
<path d="M59.2419 98.2436C59.2419 101.723 56.4188 104.547 52.9388 104.547H45.848C42.368 104.547 39.5449 101.723 39.5449 98.2436C39.5449 94.3857 39.5449 91.0711 39.5449 87.2132C39.5449 83.7333 42.368 80.9102 45.848 80.9102H52.9388C56.4188 80.9102 59.2419 83.7333 59.2419 87.2132C59.2419 91.0711 59.2419 94.3854 59.2419 98.2436Z" stroke="#663366" stroke-width="4" stroke-miterlimit="10" stroke-linecap="round" stroke-linejoin="round"/>
<path d="M39.5449 92.7266H59.2419" stroke="#663366" stroke-width="4" stroke-miterlimit="10" stroke-linecap="round" stroke-linejoin="round"/>
<path d="M132.121 120.303C130.967 120.303 91.5872 120.303 90.4293 120.303C85.1715 120.303 80.9092 116.04 80.9092 110.783V80.5806C80.9092 75.3228 85.1717 71.0605 90.4293 71.0605H132.121V120.303Z" stroke="#663366" stroke-width="4" stroke-miterlimit="10" stroke-linecap="round" stroke-linejoin="round"/>
<path d="M106.056 111.505C112.65 111.61 117.713 109.706 120.369 108.485C120.763 104.283 117.743 97.1265 111.44 94.6973" stroke="#663366" stroke-width="4" stroke-miterlimit="10" stroke-linecap="round" stroke-linejoin="round"/>
<path d="M101.591 94.6971C100.703 93.704 99.328 91.9117 98.4392 89.3132C98.4297 89.286 98.4206 89.2588 98.4114 89.2316C97.3615 86.1067 99.7227 82.8789 103.019 82.8789H110.01C113.307 82.8789 115.668 86.1067 114.618 89.2316C114.609 89.2588 114.6 89.286 114.591 89.3132C113.701 91.9117 112.326 93.704 111.439 94.6971" stroke="#663366" stroke-width="4" stroke-miterlimit="10" stroke-linecap="round" stroke-linejoin="round"/>
<path d="M106.975 111.505C100.381 111.61 95.3175 109.706 92.662 108.485C92.2681 104.283 95.2882 97.1265 101.591 94.6973" stroke="#663366" stroke-width="4" stroke-miterlimit="10" stroke-linecap="round" stroke-linejoin="round"/>
<path d="M106.516 120.302V111.51" stroke="#663366" stroke-width="4" stroke-miterlimit="10" stroke-linecap="round" stroke-linejoin="round"/>
<path d="M106.516 82.8787V78.9395" stroke="#663366" stroke-width="4" stroke-miterlimit="10" stroke-linecap="round" stroke-linejoin="round"/>
</svg>
