<svg width="150" height="150" viewBox="0 0 150 150" fill="none" xmlns="http://www.w3.org/2000/svg">
<path d="M41.6111 18.0859C23.4695 36.2276 23.4695 65.7464 41.6111 83.888C42.005 84.282 42.406 84.6641 42.8104 85.0408" stroke="#663366" stroke-width="3.5" stroke-miterlimit="10" stroke-linecap="round" stroke-linejoin="round"/>
<path d="M106.214 85.0408C106.618 84.6641 107.019 84.282 107.413 83.888C125.555 65.7464 125.555 36.2276 107.413 18.0859" stroke="#663366" stroke-width="3.5" stroke-miterlimit="10" stroke-linecap="round" stroke-linejoin="round"/>
<path d="M99.5118 71.6219C103.279 67.0632 105.613 61.7102 106.502 56.166" stroke="#663366" stroke-width="3.5" stroke-miterlimit="10" stroke-linecap="round" stroke-linejoin="round"/>
<path d="M51.5877 28.0625C39.6834 39.9668 38.9918 58.9004 49.509 71.6237" stroke="#663366" stroke-width="3.5" stroke-miterlimit="10" stroke-linecap="round" stroke-linejoin="round"/>
<path d="M106.674 47.011C105.899 40.6881 103.264 34.5551 98.7781 29.4961" stroke="#663366" stroke-width="3.5" stroke-miterlimit="10" stroke-linecap="round" stroke-linejoin="round"/>
<path d="M92.8805 24.2872C87.6554 20.6815 81.3268 18.5664 74.5124 18.5664" stroke="#663366" stroke-width="3.5" stroke-miterlimit="10" stroke-linecap="round" stroke-linejoin="round"/>
<path d="M74.5124 26.7891C64.0196 26.7891 55.5134 35.2953 55.5134 45.7881V51.286C56.4438 50.1461 57.8589 49.4176 59.4447 49.4176H60.8266V47.9489C60.8266 44.7311 63.4352 42.1225 66.6531 42.1225H82.3718C85.5896 42.1225 88.1982 44.7311 88.1982 47.9489V49.4176H89.5801C91.1663 49.4176 92.5813 50.1464 93.5115 51.286V45.7881C93.5115 35.2953 85.0053 26.7891 74.5124 26.7891Z" stroke="#663366" stroke-width="3.5" stroke-miterlimit="10" stroke-linecap="round" stroke-linejoin="round"/>
<path d="M95.9577 119.436V71.043H80.0457" stroke="#663366" stroke-width="3.5" stroke-miterlimit="10" stroke-linecap="round" stroke-linejoin="round"/>
<path d="M68.9792 71.043H53.0671V119.436" stroke="#663366" stroke-width="3.5" stroke-miterlimit="10" stroke-linecap="round" stroke-linejoin="round"/>
<path d="M76.7933 70.0161H72.2315C71.101 70.0161 70.0103 69.8493 68.9792 69.543V73.1202C68.9792 76.1761 71.4565 78.6534 74.5124 78.6534C77.5683 78.6534 80.0456 76.1761 80.0456 73.1202V69.543C79.0148 69.8493 77.9238 70.0161 76.7933 70.0161Z" stroke="#663366" stroke-width="3.5" stroke-miterlimit="10" stroke-linecap="round" stroke-linejoin="round"/>
<path d="M89.5801 49.418H88.1982V58.6111C88.1982 59.5446 88.0834 60.4509 87.872 61.3194H89.5801C92.382 61.3194 94.6532 59.0479 94.6532 56.2462V54.4914C94.6532 51.6894 92.3817 49.418 89.5801 49.418Z" stroke="#663366" stroke-width="3.5" stroke-miterlimit="10" stroke-linecap="round" stroke-linejoin="round"/>
<path d="M60.8266 58.6111V49.418H59.4447C56.6428 49.418 54.3716 51.6894 54.3716 54.4911V56.246C54.3716 59.0479 56.643 61.3191 59.4447 61.3191H61.1528C60.9411 60.4509 60.8266 59.5446 60.8266 58.6111Z" stroke="#663366" stroke-width="3.5" stroke-miterlimit="10" stroke-linecap="round" stroke-linejoin="round"/>
<path d="M76.7933 70.0145H72.2316C65.9327 70.0145 60.8266 64.9085 60.8266 58.6096V47.9475C60.8266 44.7297 63.4353 42.1211 66.6531 42.1211H82.3718C85.5896 42.1211 88.1982 44.7297 88.1982 47.9475V58.6096C88.1982 64.9085 83.0922 70.0145 76.7933 70.0145Z" stroke="#663366" stroke-width="3.5" stroke-miterlimit="10" stroke-linecap="round" stroke-linejoin="round"/>
<path d="M64.8754 51.5332C66.4786 53.1364 69.0731 53.1364 70.6762 51.5332" stroke="#663366" stroke-width="3.5" stroke-miterlimit="10" stroke-linecap="round" stroke-linejoin="round"/>
<path d="M78.3486 51.5332C79.9518 53.1364 82.5463 53.1364 84.1494 51.5332" stroke="#663366" stroke-width="3.5" stroke-miterlimit="10" stroke-linecap="round" stroke-linejoin="round"/>
<path d="M71.1769 63.4258H77.848" stroke="#663366" stroke-width="3.5" stroke-miterlimit="10" stroke-linecap="round" stroke-linejoin="round"/>
<path d="M74.5124 53.4805L72.7419 56.1362L74.5124 58.1283" stroke="#663366" stroke-width="3.5" stroke-miterlimit="10" stroke-linecap="round" stroke-linejoin="round"/>
<path d="M124.647 121.635V121.174C124.647 118.13 123.19 115.547 121.025 113.924H109.364L75.3842 127.895C74.8258 128.125 74.1993 128.125 73.6406 127.895L39.6605 113.924H28.0002C25.835 115.548 24.3775 118.131 24.3775 121.174V123.856C24.3775 132.772 31.6054 140 40.5218 140H108.503C114.985 140 120.571 136.178 123.14 130.667" stroke="#663366" stroke-width="3.5" stroke-miterlimit="10" stroke-linecap="round" stroke-linejoin="round"/>
<path d="M32.4045 103.444C32.4045 102.218 31.4799 101.149 30.257 101.069C28.917 100.983 27.8033 102.044 27.8033 103.365C27.8033 102.095 26.7732 101.064 25.5028 101.064C24.2323 101.064 23.2023 102.095 23.2023 103.365C23.2023 102.095 22.1722 101.064 20.9018 101.064C19.6313 101.064 18.6013 102.095 18.6013 103.365C18.6013 102.044 17.4875 100.983 16.1475 101.069C14.9246 101.149 14 102.218 14 103.444V108.973C14 111.707 16.216 113.923 18.9497 113.923H27.4551C30.1888 113.923 32.4048 111.707 32.4048 108.973L32.4045 103.444Z" stroke="#663366" stroke-width="3.5" stroke-miterlimit="10" stroke-linecap="round" stroke-linejoin="round"/>
<path d="M44.3247 77.7614L39.1938 102.434H32.1822C32.3239 102.745 32.4045 103.088 32.4045 103.445V108.974C32.4045 111.708 30.1885 113.924 27.4548 113.924H42.7205C47.0416 113.924 50.757 110.862 51.5835 106.621L53.0669 99.0094V71.043H52.5838C48.5867 71.043 45.1385 73.848 44.3247 77.7614Z" stroke="#663366" stroke-width="3.5" stroke-miterlimit="10" stroke-linecap="round" stroke-linejoin="round"/>
<path d="M116.62 108.974V103.445C116.62 103.088 116.701 102.745 116.843 102.434H109.831L104.7 77.7614C103.887 73.848 100.438 71.043 96.4411 71.043H95.958V99.0094L97.4414 106.621C98.2679 110.863 101.983 113.924 106.304 113.924H121.57C118.836 113.924 116.62 111.708 116.62 108.974Z" stroke="#663366" stroke-width="3.5" stroke-miterlimit="10" stroke-linecap="round" stroke-linejoin="round"/>
<path d="M116.62 103.444C116.62 102.218 117.545 101.149 118.768 101.069C120.108 100.983 121.222 102.044 121.222 103.365C121.222 102.095 122.252 101.064 123.522 101.064C124.793 101.064 125.823 102.095 125.823 103.365C125.823 102.095 126.853 101.064 128.123 101.064C129.394 101.064 130.424 102.095 130.424 103.365C130.424 102.044 131.537 100.983 132.877 101.069C134.1 101.149 135.025 102.218 135.025 103.444V108.973C135.025 111.707 132.809 113.923 130.075 113.923H121.57C118.836 113.923 116.62 111.707 116.62 108.973V103.444H116.62Z" stroke="#663366" stroke-width="3.5" stroke-miterlimit="10" stroke-linecap="round" stroke-linejoin="round"/>
<path d="M64.0475 137.516V139.066C64.0475 139.582 64.4658 140 64.9818 140H86.657V128.174H73.3897C68.23 128.174 64.0475 132.356 64.0475 137.516Z" stroke="#663366" stroke-width="3.5" stroke-miterlimit="10" stroke-linecap="round" stroke-linejoin="round"/>
<path d="M86.6568 128.174L107.342 123.928" stroke="#663366" stroke-width="3.5" stroke-miterlimit="10" stroke-linecap="round" stroke-linejoin="round"/>
<path d="M18.894 140H130.131" stroke="#663366" stroke-width="3.5" stroke-miterlimit="10" stroke-linecap="round" stroke-linejoin="round"/>
<path d="M56.9925 10.3107L57.7406 11.6785C58.57 13.1951 59.8169 14.4422 61.3338 15.2717L62.7015 16.0197C63.1156 16.2463 63.1156 16.8411 62.7015 17.0676L61.3338 17.8157C59.8172 18.6451 58.57 19.892 57.7406 21.4088L56.9925 22.7766C56.766 23.1907 56.1712 23.1907 55.9447 22.7766L55.1966 21.4088C54.3671 19.8923 53.1202 18.6451 51.6034 17.8157L50.2357 17.0676C49.8216 16.8411 49.8216 16.2463 50.2357 16.0197L51.6034 15.2717C53.12 14.4422 54.3671 13.1953 55.1966 11.6785L55.9447 10.3107C56.1712 9.89642 56.766 9.89642 56.9925 10.3107Z" stroke="#663366" stroke-width="3.5" stroke-miterlimit="10" stroke-linecap="round" stroke-linejoin="round"/>
<path d="M97.2198 20.0476L97.9409 21.3664C98.7405 22.8286 99.9429 24.0308 101.405 24.8307L102.724 25.5518C103.123 25.7702 103.123 26.3436 102.724 26.562L101.405 27.2831C99.9429 28.0827 98.7408 29.2849 97.9409 30.7473L97.2198 32.0662C97.0013 32.4656 96.428 32.4656 96.2096 32.0662L95.4884 30.7473C94.6888 29.2852 93.4864 28.083 92.0242 27.2831L90.7054 26.562C90.306 26.3436 90.306 25.7702 90.7054 25.5518L92.0242 24.8307C93.4864 24.031 94.6886 22.8289 95.4884 21.3664L96.2096 20.0476C96.428 19.6482 97.0016 19.6482 97.2198 20.0476Z" stroke="#663366" stroke-width="3.5" stroke-miterlimit="10" stroke-linecap="round" stroke-linejoin="round"/>
<path d="M74.5124 86.7709V78.6523" stroke="#663366" stroke-width="3.5" stroke-miterlimit="10" stroke-linecap="round" stroke-linejoin="round"/>
<path d="M74.5124 126.006V95.9258" stroke="#663366" stroke-width="3.5" stroke-miterlimit="10" stroke-linecap="round" stroke-linejoin="round"/>
</svg>
