<svg width="150" height="150" viewBox="0 0 150 150" fill="none" xmlns="http://www.w3.org/2000/svg">
<path fill-rule="evenodd" clip-rule="evenodd" d="M53.1682 95.2898C51.7526 88.069 47.3488 88.6959 43.8324 78.4191C36.522 57.0544 52.2954 34.5805 74.9999 34.5805C97.7044 34.5805 113.478 57.0547 106.167 78.4191C102.649 88.7006 98.2421 88.0697 96.8294 95.3009C97.9047 96.5733 98.43 98.1814 98.42 99.8419C116.867 99.6215 125.553 121.571 113.047 134.119C103.876 143.321 88.5821 141.454 81.8246 130.407C73.3207 135.26 62.4457 129.887 61.2455 120.011C55.0705 118.81 52.105 111.033 55.4236 106.816C51.5659 104.274 50.245 98.773 53.1682 95.2898ZM55.1547 89.8716C55.7005 90.8796 56.1464 91.967 56.4841 93.1787C58.5326 92.5843 65.0071 92.8286 67.5348 92.8286V76.5936L64.8787 75.055C60.3229 79.6262 52.5457 76.3666 52.5457 69.9454C52.5457 65.9451 55.7797 62.7001 59.7667 62.7001C64.5351 62.7001 67.972 67.2652 66.7381 71.8355L71.2597 74.4552V92.8286H77.7173V63.8667L83.0124 62.4333C83.0124 58.4321 86.2455 55.188 90.2333 55.188C96.6602 55.188 99.8577 63.0219 95.3387 67.5561C91.9794 70.9269 86.3454 70.1692 83.9745 66.048L81.4422 66.7287V92.8284C84.099 92.8284 91.4129 92.5665 93.5131 93.1863C95.3827 86.4686 99.9795 85.0033 102.647 77.2076C109.13 58.2586 95.1423 38.3176 74.9999 38.3176C54.8575 38.3176 40.8695 58.2585 47.3529 77.2076C49.5732 83.697 52.53 85.0277 55.1547 89.8716ZM80.1834 127.061C79.3583 124.886 78.8995 122.531 78.8813 120.071L65.0346 120.16C66.317 127.166 74.1984 130.63 80.1834 127.061ZM62.9978 116.451L79.1961 116.347C79.7259 113.387 80.9013 110.653 82.5715 108.296H60.6148C55.5061 108.296 57.7918 116.483 62.9978 116.451ZM60.6148 104.559H86.0016C88.4556 102.483 91.414 100.988 94.6659 100.286C94.9562 97.809 93.2779 96.5662 90.8905 96.5662H59.1088C53.0773 96.5662 54.6269 104.559 60.6148 104.559ZM59.7667 66.4376C55.2004 66.4376 55.1055 73.4534 59.7667 73.4534C64.3465 73.4534 64.4178 66.4376 59.7667 66.4376ZM90.2333 58.9256C85.6658 58.9256 85.5731 65.9414 90.2333 65.9414C94.7996 65.9414 94.8945 58.9256 90.2333 58.9256ZM19 64.3207V68.0581H36.9057V64.3207H19ZM36.7188 25.1366L34.0856 27.7787L46.7471 40.4828L49.3803 37.8407L36.7188 25.1366ZM76.8625 10V27.9664H73.1377V10H76.8625ZM115.915 27.7787L113.281 25.1366L100.62 37.8407L103.253 40.4828L115.915 27.7787ZM131 68.0581V64.3207H113.094V68.0581H131ZM110.414 108.361C100.18 98.092 82.605 105.399 82.605 119.919C82.605 134.438 100.18 141.746 110.414 131.477C116.775 125.094 116.775 114.743 110.414 108.361ZM91.7995 117.578L89.1663 120.22L96.7688 127.848L108.624 115.953L105.991 113.311L96.7688 122.564L91.7995 117.578Z" fill="#663366"/>
</svg>
