<svg width="150" height="150" viewBox="0 0 150 150" fill="none" xmlns="http://www.w3.org/2000/svg">
<path d="M129.805 139.994C130.582 140.048 131.273 139.438 131.267 138.645C131.273 133.402 131.262 107.47 131.267 102.803C131.267 102.507 131.165 102.231 131.003 102.005L135.044 64.5331C135.189 64.2634 135.249 63.9181 135.168 63.6106C135.2 63.4649 135.205 63.3193 135.189 63.1736L137.849 38.5041C137.908 37.9539 137.622 37.4198 137.131 37.1608L100.372 18.0265C100.178 17.9348 99.973 17.8863 99.7572 17.8755C99.6601 17.8809 99.5576 17.8917 99.4605 17.9079L89.1189 20.2007C88.5848 19.003 87.6892 18.0051 86.551 17.3469C87.6569 10.2798 78.2755 7.10233 74.8391 13.3278C72.8862 13.085 70.9765 13.8025 69.644 15.1458C68.6406 13.9374 67.6965 13.3385 67.6156 13.2955C65.9756 12.3406 64.0065 12.2974 62.3611 13.1013C59.912 10.3607 55.1376 11.2293 53.8321 14.6711C51.6634 13.7001 48.8798 14.52 47.5851 16.5106C46.8568 16.2841 46.107 16.1492 45.3301 16.1276C44.0462 14.1693 41.7211 13.0364 39.3367 13.3332C35.8949 7.10238 26.5027 10.296 27.6194 17.3577C25.9794 18.3072 24.8573 19.9579 24.5769 21.8461H21.3724C20.628 21.8461 20.0238 22.4503 20.0238 23.1948V35.5109L13.0592 37.0538C12.3848 37.2048 11.9371 37.8306 12.0072 38.5157L17.0675 84.9532C17.0297 85.1959 17.0513 85.4441 17.1484 85.6761L19.0204 102.869C19.0528 107.325 18.9988 133.591 19.0204 138.651C19.0204 139.396 19.6246 140 20.3691 140H129.8L129.805 139.994ZM120.521 120.017V137.297H98.0515V121.367H114.624C115.368 121.367 115.973 120.762 115.973 120.018C115.973 119.273 115.368 118.669 114.624 118.669H98.0515V111.295H120.521V120.017ZM121.87 108.597H21.7222V104.151H128.575V108.597H121.87ZM49.4079 118.669H48.3559V111.294H68.7208V118.669H49.4079ZM45.6587 111.294V118.669H29.6524V111.294H45.6587ZM29.6524 121.366H48.0589V137.296H29.6524V121.366ZM70.0699 121.366H87.4241V137.296H69.0176V121.366H70.0699ZM87.4185 118.669H71.4123V111.294H87.4185V118.669ZM57.392 83.3557L65.2089 75.5387L73.0259 83.3557L65.2089 91.1726L57.392 83.3557ZM94.3776 65.8178L94.4801 65.9203L93.2717 80.3398L86.5607 73.6288L94.3776 65.8118L94.3776 65.8178ZM48.447 88.4862L45.7604 91.1728L37.9435 83.3558L45.7604 75.5388L53.5774 83.3558L48.447 88.4862ZM55.4817 85.2656L63.2987 93.0826L55.4817 100.9L47.6648 93.0826L55.4817 85.2656ZM104.741 90.5309L104.099 91.1728L96.2817 83.3559L104.099 75.5389L111.916 83.3559L104.741 90.5309ZM74.2873 100.252L67.1124 93.0772L74.9294 85.2603L82.7463 93.0772L74.9294 100.894L74.2873 100.252ZM85.2926 90.5309L84.6506 91.1728L76.8336 83.3559L84.6506 75.5389L92.4676 83.3559L85.2926 90.5309ZM92.7156 86.9218L91.7608 98.283L86.555 93.0772L92.7102 86.9219L92.7156 86.9218ZM94.2585 100.797L95.3699 87.5855L95.4724 86.3609L102.194 93.0827L94.3556 100.921C94.3287 100.878 94.2963 100.84 94.2639 100.803L94.2585 100.797ZM45.7606 94.987L52.2288 101.455H39.2924L45.7606 94.987ZM65.2084 94.987L71.6766 101.455H58.7402L65.2084 94.987ZM84.6507 94.987L91.1189 101.455H78.1824L84.6507 94.987ZM104.098 94.987L110.54 101.428L97.6411 101.45L104.104 94.9871L104.098 94.987ZM35.3973 85.9024L36.0392 85.2605L43.8562 93.0774L36.0392 100.894L28.2223 93.0774L35.3973 85.9024ZM123.546 94.987L128.515 99.9556L128.358 101.401L117.116 101.418L123.546 94.987ZM121.637 93.0774L113.82 100.894L106.003 93.0774L113.82 85.2604L121.637 93.0774ZM113.82 81.4518L106.003 73.6348L113.82 65.8178L121.637 73.6348L113.82 81.4518ZM96.0221 79.8064L96.977 68.4236L102.194 73.6402L96.022 79.8118L96.0221 79.8064ZM75.5703 80.8098L74.9284 81.4518L67.1114 73.6348L74.9284 65.8178L82.7453 73.6348L75.5703 80.8098ZM56.1225 66.4594L63.2974 73.6343L55.4805 81.4513L47.6635 73.6343L55.4805 65.8174L56.1225 66.4594ZM28.2214 73.6343L36.0383 65.8174L43.8553 73.6343L36.0383 81.4513L28.2214 73.6343ZM26.3117 75.5387L34.1286 83.3556L26.3117 91.1726L19.741 84.6019L19.4982 82.3523L26.3117 75.5387ZM26.3117 94.9865L32.7799 101.455H21.5805L21.4079 99.8902L26.3117 94.9865ZM123.545 71.7242L117.077 65.256H130.013L123.545 71.7242ZM104.097 71.7242L97.6291 65.256H110.566L104.097 71.7242ZM84.6496 71.7242L78.1813 65.256H91.1178L84.6496 71.7242ZM65.2073 71.7242L58.739 65.256H71.6755L65.2073 71.7242ZM45.7595 71.7242L39.2912 65.256H52.2277L45.7595 71.7242ZM26.3117 71.7242L19.8435 65.256H32.7799L26.3117 71.7242ZM24.4074 73.6339L19.126 78.9153L17.8313 67.0578L24.4074 73.6339ZM24.4074 93.0762L21.0357 96.4479L20.2103 88.8791L24.4074 93.0762ZM128.88 96.5072L125.449 93.0762L129.711 88.8144L128.88 96.5072ZM130.17 84.5418L123.539 91.1719L115.722 83.3549L123.534 75.5435L125.654 77.6744C126.177 78.2031 127.035 78.2031 127.564 77.6798C128.092 77.1565 128.092 76.2988 127.569 75.7701L125.444 73.6338L132.058 67.0199L130.17 84.5418ZM132.543 62.5584H97.4677L100.926 21.3592L135.069 39.1346L132.543 62.5584ZM75.2302 16.1638C75.9315 16.4119 76.7569 15.975 76.9457 15.2575C78.5534 10.5425 85.3452 12.9 83.6836 17.5934C83.3923 18.2893 83.7969 19.1524 84.5198 19.3737C85.2966 19.6272 85.9495 20.1397 86.3864 20.8033L81.7254 21.8337H63.9335C65.034 19.8808 67.2944 18.6346 69.5386 18.8288C69.9108 18.845 70.283 18.7155 70.5528 18.4566C70.6769 18.3433 70.774 18.203 70.8495 18.052C71.5939 16.4443 73.4282 15.565 75.2354 16.1584L75.2302 16.1638ZM51.2028 17.0377C52.1469 16.7788 53.1881 17.1456 53.7707 17.9224C54.5961 19.0176 56.3763 18.2677 56.1768 16.9136C55.8477 14.9607 58.1297 13.4341 59.8182 14.4807C60.6921 14.8691 60.7461 16.0883 61.7333 16.261C62.1487 16.3419 62.5748 16.2286 62.8931 15.9481C63.8264 15.1227 65.175 14.9878 66.2108 15.592C66.2162 15.5974 66.5992 15.8456 67.0955 16.3473C64.6571 16.9137 62.5208 18.5915 61.3933 20.8303C61.2261 21.1539 61.0912 21.4992 60.9564 21.8391H49.4171V19.8971C49.3739 19.4655 49.3577 19.0339 49.5034 18.6293C49.7731 17.8417 50.3989 17.2483 51.1974 17.0379L51.2028 17.0377ZM29.6517 19.3736C30.38 19.1524 30.7792 18.2839 30.4771 17.5879C30.3045 17.1617 30.2128 16.7086 30.2128 16.25C30.2829 12.1338 36.0066 11.3301 37.2204 15.2628C37.4147 15.9803 38.2346 16.4173 38.936 16.1691C40.7432 15.5757 42.5773 16.455 43.3219 18.0627C43.5538 18.5698 44.0717 18.8719 44.6328 18.8395C45.3179 18.7748 46.0354 18.8503 46.6989 19.0445C46.6882 19.3574 46.6828 19.6703 46.7205 19.9832V21.8444H27.3155C27.623 20.7007 28.4862 19.7675 29.6514 19.379L29.6517 19.3736ZM21.6621 37.9044C22.2663 37.7695 22.7195 37.2085 22.7195 36.5881V24.5363H69.545L28.5944 33.6047C27.8661 33.7666 27.4076 34.4841 27.5694 35.2124C27.7313 35.9407 28.4488 36.3993 29.1771 36.2374L82.0668 24.5255C82.207 24.5147 82.3419 24.4877 82.466 24.4392C86.102 23.6354 94.5393 21.7634 98.2568 20.9435L94.7665 62.5639L17.3426 62.5585L14.818 39.415L21.6584 37.8991L21.6621 37.9044ZM21.7215 137.296V111.294H26.9598V137.296H21.7215ZM50.7551 121.366H57.1855V137.296H50.7551V121.366ZM59.8829 137.296V121.366H66.3133V137.296H59.8829ZM90.1152 137.296V111.294H95.3535V137.296H90.1152ZM123.217 137.296V111.294H128.456V137.296H123.217Z" fill="#663366"/>
<path d="M50.7864 50.4447C50.9429 51.0381 51.477 51.4535 52.0919 51.4535H64.8935L64.1652 54.2479H51.806C51.0616 54.2479 50.4573 54.8521 50.4573 55.5965C50.4627 56.5082 51.2666 57.0477 52.1296 56.9452C51.8761 59.3134 55.0805 59.3134 54.827 56.9452H62.2987C62.0451 59.3134 65.2495 59.3134 64.996 56.9452C65.6757 57.0099 66.3446 56.6215 66.5173 55.9364L68.7831 47.224L70.2289 41.6783L71.7448 35.8575H74.1076C75.8879 35.8143 75.8879 33.2032 74.1076 33.1602H70.7037C70.0887 33.1602 69.5546 33.5755 69.3981 34.169L68.7454 36.6775H48.9468C48.0891 36.6559 47.4039 37.5406 47.6413 38.3661L50.7863 50.4394L50.7864 50.4447ZM68.0439 39.3748C67.6177 41.0094 65.9939 47.2402 65.6002 48.7508H53.1385L50.6947 39.3748H68.0439Z" fill="#663366"/>
</svg>
