<svg width="150" height="150" viewBox="0 0 150 150" fill="none" xmlns="http://www.w3.org/2000/svg">
<mask id="path-1-outside-1_259_1887" maskUnits="userSpaceOnUse" x="9" y="16.3672" width="132" height="123" fill="black">
<rect fill="white" x="9" y="16.3672" width="132" height="123"/>
<path d="M117.556 80.5569C129.932 80.5569 140 70.489 140 58.1119C140 55.4578 139.54 52.8563 138.633 50.3846C138.471 49.9413 137.977 49.7147 137.535 49.8757C137.092 50.0382 136.864 50.53 137.027 50.9733C137.865 53.2583 138.289 55.6602 138.289 58.1119C138.289 69.5454 128.988 78.8449 117.556 78.8449C113.666 78.8449 109.903 77.7573 106.623 75.7147V62.9014L120.948 45.3044C121.1 45.1162 121.167 44.871 121.129 44.6316C121.092 44.3921 120.953 44.1797 120.749 44.0471L116.601 41.3502C116.239 41.1136 115.762 41.1863 115.484 41.5127L102.42 56.859C102.113 57.2182 102.157 57.7584 102.517 58.0649C102.879 58.3728 103.418 58.3272 103.723 57.968L116.299 43.1947L119.019 44.9623L105.104 62.0575C104.98 62.2101 104.911 62.4011 104.911 62.5978V103.009H99.7784V62.5978C99.7784 62.3911 99.7043 62.193 99.5689 62.0376L90.553 51.6476L92.9007 49.2999L99.3465 55.9353C99.6758 56.2745 100.216 56.2802 100.555 55.9524C100.895 55.6245 100.902 55.0829 100.572 54.7436L93.5221 47.4853C93.3625 47.3214 93.1444 47.2273 92.9149 47.2259C92.6883 47.1617 92.4659 47.3142 92.3034 47.4767L88.7783 51.0018C88.4604 51.3197 88.4433 51.8286 88.737 52.1664L98.0664 62.9171V74.7226C95.6489 76.473 92.8009 77.4052 89.7975 77.4052C81.9932 77.4052 75.6443 71.0563 75.6443 63.2521C75.6443 60.176 76.6136 57.251 78.4481 54.7935C78.7161 54.4329 78.6605 53.9268 78.3198 53.6332C75.181 50.9363 73.3821 47.0234 73.3821 42.8968C73.3821 35.0925 79.731 28.7436 87.5353 28.7436C87.8432 28.7436 88.1482 28.7564 88.4519 28.775C88.8325 28.8092 89.1731 28.574 89.3057 28.2248C91.3769 22.7553 96.6966 19.0791 102.545 19.0791C107.745 19.0791 112.518 21.9215 114.998 26.4985C115.216 26.9019 115.712 27.0616 116.122 26.8606C118.053 25.9255 120.127 25.4523 122.285 25.4523C130.089 25.4523 136.438 31.8012 136.438 39.6055C136.438 41.8462 135.926 43.9944 134.915 45.99C134.702 46.4105 134.87 46.9265 135.292 47.1389C135.714 47.3527 136.228 47.1845 136.441 46.7626C137.574 44.5261 138.148 42.1171 138.148 39.6055C138.148 30.8575 131.031 23.7417 122.285 23.7417C120.135 23.7417 118.06 24.1608 116.105 24.9904C113.233 20.2694 108.11 17.3672 102.547 17.3672C96.2005 17.3672 90.4104 21.2273 87.9416 27.0374C87.8076 27.0331 87.6736 27.0317 87.5382 27.0317C78.7902 27.0317 71.6745 34.1489 71.6745 42.8954C71.6745 47.2615 73.4705 51.4138 76.6278 54.4058C74.8646 57.0229 73.9352 60.0648 73.9352 63.2506C73.9352 71.9986 81.0524 79.1143 89.7989 79.1143C92.761 79.1143 95.5848 78.3047 98.0679 76.778V103.008H76.8859C76.6407 101.434 76.4682 100.361 76.4126 100.081C76.1218 98.6329 71.1399 88.7018 68.9419 84.3628C69.6988 85.3549 70.3445 86.1845 70.4899 86.3299C70.6111 86.4995 70.8463 87.2322 71.0016 87.7169C71.2525 88.498 71.512 89.3077 71.8384 89.8821C72.343 90.773 73.4206 91.1864 74.5182 91.1864C75.2124 91.1864 75.9151 91.021 76.4853 90.706C76.8802 90.4879 77.1168 90.1401 77.1524 89.7267C77.2037 89.1366 76.8203 88.6092 76.2943 88.1103C76.5495 88.0362 76.7419 87.8979 76.883 87.6941C76.9799 87.5544 77.2607 87.0483 76.8117 86.4183C76.5167 86.0035 74.0279 84.8061 73.8924 84.6165L73.4848 83.8097C69.1586 75.2714 68.3974 73.3556 68.3304 72.9849C68.2206 72.0242 67.3867 66.5192 67.0774 64.4879C67.1644 64.2926 67.2513 64.0973 67.3311 63.9206C67.8628 62.7489 68.3204 61.7354 68.3104 60.9728C68.2591 56.9972 64.7739 53.9226 61.933 52.0681L61.9601 50.0853C62.1597 50.1779 62.3492 50.2606 62.5231 50.3219C62.7013 50.3846 62.8781 50.4131 63.0562 50.4131C64.8623 50.4131 66.6198 47.3869 67.2413 45.7562C68.0168 43.725 68.3133 39.6311 68.2876 39.0823C68.2876 39.0652 68.2776 39.0524 68.2748 39.0353C68.7438 38.3639 69.0673 37.5272 69.1671 36.585C69.3866 34.5152 68.3332 32.1433 65.4838 31.509C65.0775 31.4192 64.6228 31.2567 64.1268 31.0828C62.4105 30.4826 60.0457 29.663 57.4643 30.6722C56.9568 30.085 56.2583 29.5689 55.3575 29.1442C53.6313 28.3331 51.3249 28.4158 49.4832 29.3608C47.6729 30.2902 46.4656 31.9523 46.0807 34.0434C45.6431 36.421 46.2147 38.7445 46.6751 40.6118C47.0215 42.0202 47.3807 43.4769 46.9331 43.8832C46.7378 44.06 46.6352 44.318 46.6552 44.5802C46.6751 44.8439 46.8148 45.082 47.0343 45.2288C47.1198 45.2858 47.7043 45.655 48.4669 45.6536C48.7505 45.6536 49.0613 45.6023 49.3777 45.4654C50.3955 45.025 51.0683 43.8718 51.3776 42.0373C51.6228 40.579 51.9792 39.1493 52.3826 37.9006C52.3412 38.8371 52.4154 39.8136 52.6491 40.8085C53.3419 43.7706 55.1294 46.1767 57.2932 47.1717V50.3076C54.3953 51.8329 50.0391 63.1038 49.8752 63.4431C46.0522 71.3428 45.472 73.0006 45.4079 73.5794C45.3295 74.2792 44.8377 80.3131 44.6382 83.3735C42.4515 82.9716 40.1238 83.3465 38.1938 84.4555C36.4704 82.7635 34.1498 81.8056 31.7194 81.8056C28.5107 81.8056 25.5273 83.4819 23.8496 86.2059C20.7606 87.1495 18.6353 89.999 18.6353 93.2604C18.6353 93.8662 18.7094 94.4635 18.8548 95.045C16.9262 95.7563 15.6077 97.5923 15.6077 99.7233C15.6077 100.983 16.0923 102.122 16.8649 103H10.8553C10.382 103 10 103.384 10 103.856C10 104.328 10.3834 104.711 10.8553 104.711H48.8147L36.67 127.916C36.6671 127.921 36.6685 127.928 36.6657 127.933C36.6628 127.94 36.6557 127.943 36.6529 127.95L35.1177 131.238C34.9295 131.643 35.0834 132.125 35.4712 132.344L43.6788 136.996H26.5935C26.1203 136.996 25.7383 137.379 25.7383 137.851C25.7383 138.323 26.1217 138.706 26.5935 138.706H99.1327C99.6059 138.706 99.9879 138.323 99.9879 137.851C99.9879 137.379 99.6045 136.996 99.1327 136.996H81.5228L86.5632 136.172C86.8311 136.128 87.0621 135.961 87.1861 135.719C87.3101 135.478 87.3115 135.193 87.1918 134.949C86.4776 133.499 84.3452 131.019 81.128 131.047C80.592 127.472 78.3469 112.487 77.1496 104.72H124.997C125.471 104.72 125.853 104.336 125.853 103.864C125.853 103.392 125.469 103.009 124.997 103.009H106.623V77.716C109.955 79.5776 113.702 80.5569 117.556 80.5569ZM71.9595 84.588L72.3572 85.3749C72.544 85.7583 72.906 86.0619 73.3408 86.3299C73.3294 86.3413 73.3166 86.3527 73.3066 86.3655C72.9089 86.7989 73.1198 87.3021 73.2339 87.5729C73.3764 87.9121 73.6786 88.1644 74.2944 88.6577C74.5182 88.8358 74.8959 89.1394 75.1654 89.3974C74.4341 89.5771 73.5546 89.4402 73.328 89.0397C73.0899 88.6192 72.8462 87.8623 72.6323 87.1951C72.2888 86.1261 72.0779 85.5032 71.7386 85.1625C71.4991 84.903 69.5505 82.3529 67.6832 79.857C67.4452 78.3189 67.1672 76.3347 66.9363 74.1652C67.4366 75.4467 68.7224 78.2006 71.9595 84.588ZM66.6013 60.9984C66.607 61.3805 66.1266 62.4424 65.7746 63.2178C65.2443 64.3896 64.744 65.4957 64.7454 66.321C64.7568 72.5573 65.8971 79.7087 66.3533 82.3173H54.8557V67.9346C54.8557 67.889 54.8372 67.8505 54.83 67.8078C56.5491 64.505 58.5775 60.662 59.8091 58.7676C60.9053 57.0813 60.0785 55.0985 58.7714 53.8826C58.187 53.3396 57.5598 52.9832 56.9511 52.805C57.2718 52.423 57.6396 52.0937 58.0373 51.8428C58.5533 52.088 59.5497 52.5926 60.6843 53.3082C60.7043 53.3182 60.7185 53.3339 60.7385 53.3424C63.3071 54.9688 66.5586 57.6829 66.6013 60.9984ZM48.5025 85.0656C50.8459 75.9071 51.5316 73.9771 51.724 73.6563C51.925 73.3655 52.3726 72.5302 53.1438 71.0506V83.1027L52.364 87.8765C51.9535 87.8851 51.553 87.9392 51.1667 88.0533C50.5081 86.8758 49.593 85.8681 48.5025 85.0656ZM60.2382 51.0489C59.7492 50.7795 59.3302 50.5642 59.0066 50.4074V48.2693C59.4656 48.5928 59.8832 48.8751 60.2652 49.1217L60.2382 51.0489ZM63.0947 48.7126C62.0527 48.3448 60.355 47.156 58.9296 46.1069C58.7799 45.6151 58.5747 44.6743 58.7586 43.9174C58.8156 43.6808 58.7671 43.4313 58.6303 43.2318C58.3195 42.7785 57.6154 41.3858 58.0829 40.4108C58.1599 40.2498 58.2254 40.1614 58.2425 40.1186C58.2825 40.1543 58.3224 40.1984 58.3338 40.1842C58.2525 40.5961 58.4635 41.0352 58.8569 41.1806C59.2532 41.3288 59.6737 41.1962 59.8789 40.8299C59.8875 40.8185 60.8041 39.7694 64.9906 40.5035C65.5166 40.5961 66.0226 40.5519 66.4987 40.4037C66.3732 41.7907 66.0967 43.963 65.642 45.1504C64.9236 47.0405 63.5409 48.6769 63.0947 48.7126ZM49.6928 41.7607C49.449 43.209 49.0342 43.6893 48.799 43.849C48.9872 42.8426 48.6779 41.5897 48.3386 40.2098C47.8953 38.4124 47.3935 36.3754 47.7641 34.3598C48.1319 32.3642 49.3279 31.3707 50.2672 30.8889C51.6314 30.189 53.3846 30.112 54.6319 30.6993C55.1479 30.9431 55.5684 31.221 55.8991 31.5175C55.6126 31.7142 55.3247 31.9437 55.0367 32.1946C54.6447 32.1162 54.2399 32.1504 53.8522 32.3286C51.0982 33.5972 49.7484 41.4272 49.6928 41.7607ZM57.0252 43.8846C56.9696 44.2638 56.9654 44.6444 56.9896 45.0007C55.7637 44.0072 54.7645 42.3409 54.3169 40.4279C53.6954 37.7681 54.257 35.2821 55.8222 33.7783C57.3003 32.3585 58.6973 31.9038 60.0158 31.9038C61.2702 31.9038 62.4533 32.3172 63.5637 32.7049C64.131 32.903 64.6513 33.0812 65.1132 33.1839C67.056 33.6172 67.6034 35.1339 67.468 36.4096C67.3711 37.3276 66.9762 38.1501 66.4402 38.5535C66.1024 38.8086 65.7218 38.8927 65.2856 38.82C62.2523 38.2926 60.5275 38.5977 59.5596 39.0296C59.3387 38.7716 59.055 38.5677 58.7357 38.4623C58.0629 38.2356 57.1321 38.438 56.5391 39.6725C55.748 41.3245 56.6061 43.1562 57.0252 43.8846ZM47.1113 73.7789C47.1655 73.414 47.7955 71.6821 51.4175 64.1957C51.6157 63.7866 51.7354 63.5357 51.7482 63.5044C53.3904 59.4604 55.3902 54.9517 55.8478 54.4471C55.9091 54.4001 56.0003 54.3773 56.1115 54.3773C56.4764 54.3773 57.0651 54.631 57.6054 55.1342C58.1898 55.6773 59.008 56.859 58.3751 57.8354C56.8898 60.1189 54.3368 65.0424 52.4724 68.6359C51.476 70.5574 50.5352 72.372 50.3185 72.6842C49.9764 73.1774 49.3164 74.982 46.8148 84.7605L46.591 85.6272C46.4798 86.0391 46.5525 86.5067 46.7022 86.9942C46.6865 86.9942 46.6694 86.9956 46.6523 86.9984C46.0679 87.0612 45.8954 87.58 45.8013 87.8594C45.6859 88.2072 45.7472 88.5964 45.8854 89.3718C45.9353 89.654 46.0194 90.1316 46.0536 90.5036C45.3837 90.1572 44.8135 89.4744 44.9061 89.024C45.0045 88.5493 45.3195 87.8209 45.5975 87.178C46.0436 86.1475 46.2945 85.5416 46.2646 85.057C46.2461 84.4227 46.9545 75.1958 47.1113 73.7789ZM49.6785 103.01H20.5867C18.785 103.003 17.3211 101.536 17.3211 99.7333C17.3211 98.1126 18.4799 96.7513 20.0793 96.4961C20.3344 96.4562 20.5582 96.3009 20.6865 96.0771C20.8148 95.8518 20.8348 95.581 20.7407 95.3401C20.4813 94.6787 20.3501 93.9817 20.3501 93.2704C20.3501 90.6718 22.1077 88.4125 24.625 87.7767C24.8516 87.7197 25.0455 87.5715 25.161 87.3676C26.4952 84.9986 29.0111 83.5275 31.7237 83.5275C33.9046 83.5275 35.9772 84.474 37.4098 86.1246C37.6948 86.4525 38.1809 86.5152 38.5373 86.27C40.2877 85.0769 42.5086 84.6678 44.5569 85.1112C44.5569 85.1126 44.5569 85.1169 44.5569 85.1183C44.537 85.3264 44.2305 86.0334 44.0281 86.501C43.7016 87.255 43.3652 88.0347 43.2313 88.6805C42.892 90.3169 44.5412 92.0032 46.1848 92.3624C46.2917 92.3852 46.3957 92.3966 46.4969 92.3966C46.8148 92.3966 47.1042 92.284 47.3308 92.0659C47.757 91.6568 47.8169 91.0068 47.7499 90.2855C47.9894 90.3967 48.226 90.4223 48.464 90.361C48.6294 90.3197 49.1739 90.1244 49.2523 89.3533C49.3008 88.8686 49.0727 88.3113 48.7791 87.6199C49.2623 88.1816 49.6671 88.8102 49.975 89.4944C50.0719 89.7068 50.2515 89.8721 50.4739 89.9491C50.5651 89.9805 50.6606 89.9976 50.7547 89.9976C50.8901 89.9976 51.0227 89.9662 51.1453 89.9035C51.4389 89.7524 51.7539 89.674 52.0775 89.6326L49.9764 102.506L49.7056 103.023C49.697 103.015 49.6899 103.01 49.6785 103.01ZM51.5587 103.169C51.6014 103.087 51.6299 103 51.6456 102.909L54.7274 84.0264H66.4246C66.2478 85.0057 65.7575 86.8773 64.3876 89.7652C63.5737 91.4829 62.5816 94.0501 61.5325 96.7698C59.5539 101.897 57.3103 107.707 55.3446 110.309L43.0958 129.266L38.6542 127.812L51.5587 103.169ZM62.8681 98.0584C64.1752 100.148 65.1331 101.767 65.8245 103.01H60.9095C61.5781 101.383 62.2338 99.6991 62.8681 98.0584ZM37.8816 129.361L42.8364 130.983C43.3524 132.128 43.944 133.989 44.3659 135.421L37.0007 131.247L37.8816 129.361ZM46.5839 136.996C46.5825 136.987 46.5867 136.98 46.5839 136.971C46.5326 136.78 45.405 132.567 44.43 130.353L56.7444 111.289C57.8563 109.82 59.0294 107.424 60.1911 104.72H66.7353C67.3454 105.94 67.5535 106.563 67.6062 106.873C68.2577 110.658 73.0557 131.799 73.3094 132.916L74.1148 136.996H46.5839ZM84.9852 134.696L75.7042 136.213L75.1639 133.481L80.5079 132.778C80.5107 132.778 80.5122 132.776 80.515 132.775C80.5179 132.775 80.5207 132.775 80.5222 132.775C82.7059 132.457 84.1941 133.724 84.9852 134.696ZM74.8104 131.803C73.9195 127.873 69.8698 109.945 69.2911 106.585C69.1985 106.048 68.9177 104.414 63.7376 96.2282C63.7062 96.1797 63.6606 96.1483 63.6222 96.1084C64.4746 93.909 65.2714 91.8934 65.9314 90.5007C66.8807 88.5009 67.4266 86.9685 67.7559 85.8139C70.7265 91.6953 74.5382 99.4397 74.7349 100.42C75.0242 101.87 78.6833 126.268 79.4217 131.197L74.8104 131.803Z"/>
</mask>
<path d="M117.556 80.5569C129.932 80.5569 140 70.489 140 58.1119C140 55.4578 139.54 52.8563 138.633 50.3846C138.471 49.9413 137.977 49.7147 137.535 49.8757C137.092 50.0382 136.864 50.53 137.027 50.9733C137.865 53.2583 138.289 55.6602 138.289 58.1119C138.289 69.5454 128.988 78.8449 117.556 78.8449C113.666 78.8449 109.903 77.7573 106.623 75.7147V62.9014L120.948 45.3044C121.1 45.1162 121.167 44.871 121.129 44.6316C121.092 44.3921 120.953 44.1797 120.749 44.0471L116.601 41.3502C116.239 41.1136 115.762 41.1863 115.484 41.5127L102.42 56.859C102.113 57.2182 102.157 57.7584 102.517 58.0649C102.879 58.3728 103.418 58.3272 103.723 57.968L116.299 43.1947L119.019 44.9623L105.104 62.0575C104.98 62.2101 104.911 62.4011 104.911 62.5978V103.009H99.7784V62.5978C99.7784 62.3911 99.7043 62.193 99.5689 62.0376L90.553 51.6476L92.9007 49.2999L99.3465 55.9353C99.6758 56.2745 100.216 56.2802 100.555 55.9524C100.895 55.6245 100.902 55.0829 100.572 54.7436L93.5221 47.4853C93.3625 47.3214 93.1444 47.2273 92.9149 47.2259C92.6883 47.1617 92.4659 47.3142 92.3034 47.4767L88.7783 51.0018C88.4604 51.3197 88.4433 51.8286 88.737 52.1664L98.0664 62.9171V74.7226C95.6489 76.473 92.8009 77.4052 89.7975 77.4052C81.9932 77.4052 75.6443 71.0563 75.6443 63.2521C75.6443 60.176 76.6136 57.251 78.4481 54.7935C78.7161 54.4329 78.6605 53.9268 78.3198 53.6332C75.181 50.9363 73.3821 47.0234 73.3821 42.8968C73.3821 35.0925 79.731 28.7436 87.5353 28.7436C87.8432 28.7436 88.1482 28.7564 88.4519 28.775C88.8325 28.8092 89.1731 28.574 89.3057 28.2248C91.3769 22.7553 96.6966 19.0791 102.545 19.0791C107.745 19.0791 112.518 21.9215 114.998 26.4985C115.216 26.9019 115.712 27.0616 116.122 26.8606C118.053 25.9255 120.127 25.4523 122.285 25.4523C130.089 25.4523 136.438 31.8012 136.438 39.6055C136.438 41.8462 135.926 43.9944 134.915 45.99C134.702 46.4105 134.87 46.9265 135.292 47.1389C135.714 47.3527 136.228 47.1845 136.441 46.7626C137.574 44.5261 138.148 42.1171 138.148 39.6055C138.148 30.8575 131.031 23.7417 122.285 23.7417C120.135 23.7417 118.06 24.1608 116.105 24.9904C113.233 20.2694 108.11 17.3672 102.547 17.3672C96.2005 17.3672 90.4104 21.2273 87.9416 27.0374C87.8076 27.0331 87.6736 27.0317 87.5382 27.0317C78.7902 27.0317 71.6745 34.1489 71.6745 42.8954C71.6745 47.2615 73.4705 51.4138 76.6278 54.4058C74.8646 57.0229 73.9352 60.0648 73.9352 63.2506C73.9352 71.9986 81.0524 79.1143 89.7989 79.1143C92.761 79.1143 95.5848 78.3047 98.0679 76.778V103.008H76.8859C76.6407 101.434 76.4682 100.361 76.4126 100.081C76.1218 98.6329 71.1399 88.7018 68.9419 84.3628C69.6988 85.3549 70.3445 86.1845 70.4899 86.3299C70.6111 86.4995 70.8463 87.2322 71.0016 87.7169C71.2525 88.498 71.512 89.3077 71.8384 89.8821C72.343 90.773 73.4206 91.1864 74.5182 91.1864C75.2124 91.1864 75.9151 91.021 76.4853 90.706C76.8802 90.4879 77.1168 90.1401 77.1524 89.7267C77.2037 89.1366 76.8203 88.6092 76.2943 88.1103C76.5495 88.0362 76.7419 87.8979 76.883 87.6941C76.9799 87.5544 77.2607 87.0483 76.8117 86.4183C76.5167 86.0035 74.0279 84.8061 73.8924 84.6165L73.4848 83.8097C69.1586 75.2714 68.3974 73.3556 68.3304 72.9849C68.2206 72.0242 67.3867 66.5192 67.0774 64.4879C67.1644 64.2926 67.2513 64.0973 67.3311 63.9206C67.8628 62.7489 68.3204 61.7354 68.3104 60.9728C68.2591 56.9972 64.7739 53.9226 61.933 52.0681L61.9601 50.0853C62.1597 50.1779 62.3492 50.2606 62.5231 50.3219C62.7013 50.3846 62.8781 50.4131 63.0562 50.4131C64.8623 50.4131 66.6198 47.3869 67.2413 45.7562C68.0168 43.725 68.3133 39.6311 68.2876 39.0823C68.2876 39.0652 68.2776 39.0524 68.2748 39.0353C68.7438 38.3639 69.0673 37.5272 69.1671 36.585C69.3866 34.5152 68.3332 32.1433 65.4838 31.509C65.0775 31.4192 64.6228 31.2567 64.1268 31.0828C62.4105 30.4826 60.0457 29.663 57.4643 30.6722C56.9568 30.085 56.2583 29.5689 55.3575 29.1442C53.6313 28.3331 51.3249 28.4158 49.4832 29.3608C47.6729 30.2902 46.4656 31.9523 46.0807 34.0434C45.6431 36.421 46.2147 38.7445 46.6751 40.6118C47.0215 42.0202 47.3807 43.4769 46.9331 43.8832C46.7378 44.06 46.6352 44.318 46.6552 44.5802C46.6751 44.8439 46.8148 45.082 47.0343 45.2288C47.1198 45.2858 47.7043 45.655 48.4669 45.6536C48.7505 45.6536 49.0613 45.6023 49.3777 45.4654C50.3955 45.025 51.0683 43.8718 51.3776 42.0373C51.6228 40.579 51.9792 39.1493 52.3826 37.9006C52.3412 38.8371 52.4154 39.8136 52.6491 40.8085C53.3419 43.7706 55.1294 46.1767 57.2932 47.1717V50.3076C54.3953 51.8329 50.0391 63.1038 49.8752 63.4431C46.0522 71.3428 45.472 73.0006 45.4079 73.5794C45.3295 74.2792 44.8377 80.3131 44.6382 83.3735C42.4515 82.9716 40.1238 83.3465 38.1938 84.4555C36.4704 82.7635 34.1498 81.8056 31.7194 81.8056C28.5107 81.8056 25.5273 83.4819 23.8496 86.2059C20.7606 87.1495 18.6353 89.999 18.6353 93.2604C18.6353 93.8662 18.7094 94.4635 18.8548 95.045C16.9262 95.7563 15.6077 97.5923 15.6077 99.7233C15.6077 100.983 16.0923 102.122 16.8649 103H10.8553C10.382 103 10 103.384 10 103.856C10 104.328 10.3834 104.711 10.8553 104.711H48.8147L36.67 127.916C36.6671 127.921 36.6685 127.928 36.6657 127.933C36.6628 127.94 36.6557 127.943 36.6529 127.95L35.1177 131.238C34.9295 131.643 35.0834 132.125 35.4712 132.344L43.6788 136.996H26.5935C26.1203 136.996 25.7383 137.379 25.7383 137.851C25.7383 138.323 26.1217 138.706 26.5935 138.706H99.1327C99.6059 138.706 99.9879 138.323 99.9879 137.851C99.9879 137.379 99.6045 136.996 99.1327 136.996H81.5228L86.5632 136.172C86.8311 136.128 87.0621 135.961 87.1861 135.719C87.3101 135.478 87.3115 135.193 87.1918 134.949C86.4776 133.499 84.3452 131.019 81.128 131.047C80.592 127.472 78.3469 112.487 77.1496 104.72H124.997C125.471 104.72 125.853 104.336 125.853 103.864C125.853 103.392 125.469 103.009 124.997 103.009H106.623V77.716C109.955 79.5776 113.702 80.5569 117.556 80.5569ZM71.9595 84.588L72.3572 85.3749C72.544 85.7583 72.906 86.0619 73.3408 86.3299C73.3294 86.3413 73.3166 86.3527 73.3066 86.3655C72.9089 86.7989 73.1198 87.3021 73.2339 87.5729C73.3764 87.9121 73.6786 88.1644 74.2944 88.6577C74.5182 88.8358 74.8959 89.1394 75.1654 89.3974C74.4341 89.5771 73.5546 89.4402 73.328 89.0397C73.0899 88.6192 72.8462 87.8623 72.6323 87.1951C72.2888 86.1261 72.0779 85.5032 71.7386 85.1625C71.4991 84.903 69.5505 82.3529 67.6832 79.857C67.4452 78.3189 67.1672 76.3347 66.9363 74.1652C67.4366 75.4467 68.7224 78.2006 71.9595 84.588ZM66.6013 60.9984C66.607 61.3805 66.1266 62.4424 65.7746 63.2178C65.2443 64.3896 64.744 65.4957 64.7454 66.321C64.7568 72.5573 65.8971 79.7087 66.3533 82.3173H54.8557V67.9346C54.8557 67.889 54.8372 67.8505 54.83 67.8078C56.5491 64.505 58.5775 60.662 59.8091 58.7676C60.9053 57.0813 60.0785 55.0985 58.7714 53.8826C58.187 53.3396 57.5598 52.9832 56.9511 52.805C57.2718 52.423 57.6396 52.0937 58.0373 51.8428C58.5533 52.088 59.5497 52.5926 60.6843 53.3082C60.7043 53.3182 60.7185 53.3339 60.7385 53.3424C63.3071 54.9688 66.5586 57.6829 66.6013 60.9984ZM48.5025 85.0656C50.8459 75.9071 51.5316 73.9771 51.724 73.6563C51.925 73.3655 52.3726 72.5302 53.1438 71.0506V83.1027L52.364 87.8765C51.9535 87.8851 51.553 87.9392 51.1667 88.0533C50.5081 86.8758 49.593 85.8681 48.5025 85.0656ZM60.2382 51.0489C59.7492 50.7795 59.3302 50.5642 59.0066 50.4074V48.2693C59.4656 48.5928 59.8832 48.8751 60.2652 49.1217L60.2382 51.0489ZM63.0947 48.7126C62.0527 48.3448 60.355 47.156 58.9296 46.1069C58.7799 45.6151 58.5747 44.6743 58.7586 43.9174C58.8156 43.6808 58.7671 43.4313 58.6303 43.2318C58.3195 42.7785 57.6154 41.3858 58.0829 40.4108C58.1599 40.2498 58.2254 40.1614 58.2425 40.1186C58.2825 40.1543 58.3224 40.1984 58.3338 40.1842C58.2525 40.5961 58.4635 41.0352 58.8569 41.1806C59.2532 41.3288 59.6737 41.1962 59.8789 40.8299C59.8875 40.8185 60.8041 39.7694 64.9906 40.5035C65.5166 40.5961 66.0226 40.5519 66.4987 40.4037C66.3732 41.7907 66.0967 43.963 65.642 45.1504C64.9236 47.0405 63.5409 48.6769 63.0947 48.7126ZM49.6928 41.7607C49.449 43.209 49.0342 43.6893 48.799 43.849C48.9872 42.8426 48.6779 41.5897 48.3386 40.2098C47.8953 38.4124 47.3935 36.3754 47.7641 34.3598C48.1319 32.3642 49.3279 31.3707 50.2672 30.8889C51.6314 30.189 53.3846 30.112 54.6319 30.6993C55.1479 30.9431 55.5684 31.221 55.8991 31.5175C55.6126 31.7142 55.3247 31.9437 55.0367 32.1946C54.6447 32.1162 54.2399 32.1504 53.8522 32.3286C51.0982 33.5972 49.7484 41.4272 49.6928 41.7607ZM57.0252 43.8846C56.9696 44.2638 56.9654 44.6444 56.9896 45.0007C55.7637 44.0072 54.7645 42.3409 54.3169 40.4279C53.6954 37.7681 54.257 35.2821 55.8222 33.7783C57.3003 32.3585 58.6973 31.9038 60.0158 31.9038C61.2702 31.9038 62.4533 32.3172 63.5637 32.7049C64.131 32.903 64.6513 33.0812 65.1132 33.1839C67.056 33.6172 67.6034 35.1339 67.468 36.4096C67.3711 37.3276 66.9762 38.1501 66.4402 38.5535C66.1024 38.8086 65.7218 38.8927 65.2856 38.82C62.2523 38.2926 60.5275 38.5977 59.5596 39.0296C59.3387 38.7716 59.055 38.5677 58.7357 38.4623C58.0629 38.2356 57.1321 38.438 56.5391 39.6725C55.748 41.3245 56.6061 43.1562 57.0252 43.8846ZM47.1113 73.7789C47.1655 73.414 47.7955 71.6821 51.4175 64.1957C51.6157 63.7866 51.7354 63.5357 51.7482 63.5044C53.3904 59.4604 55.3902 54.9517 55.8478 54.4471C55.9091 54.4001 56.0003 54.3773 56.1115 54.3773C56.4764 54.3773 57.0651 54.631 57.6054 55.1342C58.1898 55.6773 59.008 56.859 58.3751 57.8354C56.8898 60.1189 54.3368 65.0424 52.4724 68.6359C51.476 70.5574 50.5352 72.372 50.3185 72.6842C49.9764 73.1774 49.3164 74.982 46.8148 84.7605L46.591 85.6272C46.4798 86.0391 46.5525 86.5067 46.7022 86.9942C46.6865 86.9942 46.6694 86.9956 46.6523 86.9984C46.0679 87.0612 45.8954 87.58 45.8013 87.8594C45.6859 88.2072 45.7472 88.5964 45.8854 89.3718C45.9353 89.654 46.0194 90.1316 46.0536 90.5036C45.3837 90.1572 44.8135 89.4744 44.9061 89.024C45.0045 88.5493 45.3195 87.8209 45.5975 87.178C46.0436 86.1475 46.2945 85.5416 46.2646 85.057C46.2461 84.4227 46.9545 75.1958 47.1113 73.7789ZM49.6785 103.01H20.5867C18.785 103.003 17.3211 101.536 17.3211 99.7333C17.3211 98.1126 18.4799 96.7513 20.0793 96.4961C20.3344 96.4562 20.5582 96.3009 20.6865 96.0771C20.8148 95.8518 20.8348 95.581 20.7407 95.3401C20.4813 94.6787 20.3501 93.9817 20.3501 93.2704C20.3501 90.6718 22.1077 88.4125 24.625 87.7767C24.8516 87.7197 25.0455 87.5715 25.161 87.3676C26.4952 84.9986 29.0111 83.5275 31.7237 83.5275C33.9046 83.5275 35.9772 84.474 37.4098 86.1246C37.6948 86.4525 38.1809 86.5152 38.5373 86.27C40.2877 85.0769 42.5086 84.6678 44.5569 85.1112C44.5569 85.1126 44.5569 85.1169 44.5569 85.1183C44.537 85.3264 44.2305 86.0334 44.0281 86.501C43.7016 87.255 43.3652 88.0347 43.2313 88.6805C42.892 90.3169 44.5412 92.0032 46.1848 92.3624C46.2917 92.3852 46.3957 92.3966 46.4969 92.3966C46.8148 92.3966 47.1042 92.284 47.3308 92.0659C47.757 91.6568 47.8169 91.0068 47.7499 90.2855C47.9894 90.3967 48.226 90.4223 48.464 90.361C48.6294 90.3197 49.1739 90.1244 49.2523 89.3533C49.3008 88.8686 49.0727 88.3113 48.7791 87.6199C49.2623 88.1816 49.6671 88.8102 49.975 89.4944C50.0719 89.7068 50.2515 89.8721 50.4739 89.9491C50.5651 89.9805 50.6606 89.9976 50.7547 89.9976C50.8901 89.9976 51.0227 89.9662 51.1453 89.9035C51.4389 89.7524 51.7539 89.674 52.0775 89.6326L49.9764 102.506L49.7056 103.023C49.697 103.015 49.6899 103.01 49.6785 103.01ZM51.5587 103.169C51.6014 103.087 51.6299 103 51.6456 102.909L54.7274 84.0264H66.4246C66.2478 85.0057 65.7575 86.8773 64.3876 89.7652C63.5737 91.4829 62.5816 94.0501 61.5325 96.7698C59.5539 101.897 57.3103 107.707 55.3446 110.309L43.0958 129.266L38.6542 127.812L51.5587 103.169ZM62.8681 98.0584C64.1752 100.148 65.1331 101.767 65.8245 103.01H60.9095C61.5781 101.383 62.2338 99.6991 62.8681 98.0584ZM37.8816 129.361L42.8364 130.983C43.3524 132.128 43.944 133.989 44.3659 135.421L37.0007 131.247L37.8816 129.361ZM46.5839 136.996C46.5825 136.987 46.5867 136.98 46.5839 136.971C46.5326 136.78 45.405 132.567 44.43 130.353L56.7444 111.289C57.8563 109.82 59.0294 107.424 60.1911 104.72H66.7353C67.3454 105.94 67.5535 106.563 67.6062 106.873C68.2577 110.658 73.0557 131.799 73.3094 132.916L74.1148 136.996H46.5839ZM84.9852 134.696L75.7042 136.213L75.1639 133.481L80.5079 132.778C80.5107 132.778 80.5122 132.776 80.515 132.775C80.5179 132.775 80.5207 132.775 80.5222 132.775C82.7059 132.457 84.1941 133.724 84.9852 134.696ZM74.8104 131.803C73.9195 127.873 69.8698 109.945 69.2911 106.585C69.1985 106.048 68.9177 104.414 63.7376 96.2282C63.7062 96.1797 63.6606 96.1483 63.6222 96.1084C64.4746 93.909 65.2714 91.8934 65.9314 90.5007C66.8807 88.5009 67.4266 86.9685 67.7559 85.8139C70.7265 91.6953 74.5382 99.4397 74.7349 100.42C75.0242 101.87 78.6833 126.268 79.4217 131.197L74.8104 131.803Z" fill="#663366"/>
<path d="M117.556 80.5569C129.932 80.5569 140 70.489 140 58.1119C140 55.4578 139.54 52.8563 138.633 50.3846C138.471 49.9413 137.977 49.7147 137.535 49.8757C137.092 50.0382 136.864 50.53 137.027 50.9733C137.865 53.2583 138.289 55.6602 138.289 58.1119C138.289 69.5454 128.988 78.8449 117.556 78.8449C113.666 78.8449 109.903 77.7573 106.623 75.7147V62.9014L120.948 45.3044C121.1 45.1162 121.167 44.871 121.129 44.6316C121.092 44.3921 120.953 44.1797 120.749 44.0471L116.601 41.3502C116.239 41.1136 115.762 41.1863 115.484 41.5127L102.42 56.859C102.113 57.2182 102.157 57.7584 102.517 58.0649C102.879 58.3728 103.418 58.3272 103.723 57.968L116.299 43.1947L119.019 44.9623L105.104 62.0575C104.98 62.2101 104.911 62.4011 104.911 62.5978V103.009H99.7784V62.5978C99.7784 62.3911 99.7043 62.193 99.5689 62.0376L90.553 51.6476L92.9007 49.2999L99.3465 55.9353C99.6758 56.2745 100.216 56.2802 100.555 55.9524C100.895 55.6245 100.902 55.0829 100.572 54.7436L93.5221 47.4853C93.3625 47.3214 93.1444 47.2273 92.9149 47.2259C92.6883 47.1617 92.4659 47.3142 92.3034 47.4767L88.7783 51.0018C88.4604 51.3197 88.4433 51.8286 88.737 52.1664L98.0664 62.9171V74.7226C95.6489 76.473 92.8009 77.4052 89.7975 77.4052C81.9932 77.4052 75.6443 71.0563 75.6443 63.2521C75.6443 60.176 76.6136 57.251 78.4481 54.7935C78.7161 54.4329 78.6605 53.9268 78.3198 53.6332C75.181 50.9363 73.3821 47.0234 73.3821 42.8968C73.3821 35.0925 79.731 28.7436 87.5353 28.7436C87.8432 28.7436 88.1482 28.7564 88.4519 28.775C88.8325 28.8092 89.1731 28.574 89.3057 28.2248C91.3769 22.7553 96.6966 19.0791 102.545 19.0791C107.745 19.0791 112.518 21.9215 114.998 26.4985C115.216 26.9019 115.712 27.0616 116.122 26.8606C118.053 25.9255 120.127 25.4523 122.285 25.4523C130.089 25.4523 136.438 31.8012 136.438 39.6055C136.438 41.8462 135.926 43.9944 134.915 45.99C134.702 46.4105 134.87 46.9265 135.292 47.1389C135.714 47.3527 136.228 47.1845 136.441 46.7626C137.574 44.5261 138.148 42.1171 138.148 39.6055C138.148 30.8575 131.031 23.7417 122.285 23.7417C120.135 23.7417 118.06 24.1608 116.105 24.9904C113.233 20.2694 108.11 17.3672 102.547 17.3672C96.2005 17.3672 90.4104 21.2273 87.9416 27.0374C87.8076 27.0331 87.6736 27.0317 87.5382 27.0317C78.7902 27.0317 71.6745 34.1489 71.6745 42.8954C71.6745 47.2615 73.4705 51.4138 76.6278 54.4058C74.8646 57.0229 73.9352 60.0648 73.9352 63.2506C73.9352 71.9986 81.0524 79.1143 89.7989 79.1143C92.761 79.1143 95.5848 78.3047 98.0679 76.778V103.008H76.8859C76.6407 101.434 76.4682 100.361 76.4126 100.081C76.1218 98.6329 71.1399 88.7018 68.9419 84.3628C69.6988 85.3549 70.3445 86.1845 70.4899 86.3299C70.6111 86.4995 70.8463 87.2322 71.0016 87.7169C71.2525 88.498 71.512 89.3077 71.8384 89.8821C72.343 90.773 73.4206 91.1864 74.5182 91.1864C75.2124 91.1864 75.9151 91.021 76.4853 90.706C76.8802 90.4879 77.1168 90.1401 77.1524 89.7267C77.2037 89.1366 76.8203 88.6092 76.2943 88.1103C76.5495 88.0362 76.7419 87.8979 76.883 87.6941C76.9799 87.5544 77.2607 87.0483 76.8117 86.4183C76.5167 86.0035 74.0279 84.8061 73.8924 84.6165L73.4848 83.8097C69.1586 75.2714 68.3974 73.3556 68.3304 72.9849C68.2206 72.0242 67.3867 66.5192 67.0774 64.4879C67.1644 64.2926 67.2513 64.0973 67.3311 63.9206C67.8628 62.7489 68.3204 61.7354 68.3104 60.9728C68.2591 56.9972 64.7739 53.9226 61.933 52.0681L61.9601 50.0853C62.1597 50.1779 62.3492 50.2606 62.5231 50.3219C62.7013 50.3846 62.8781 50.4131 63.0562 50.4131C64.8623 50.4131 66.6198 47.3869 67.2413 45.7562C68.0168 43.725 68.3133 39.6311 68.2876 39.0823C68.2876 39.0652 68.2776 39.0524 68.2748 39.0353C68.7438 38.3639 69.0673 37.5272 69.1671 36.585C69.3866 34.5152 68.3332 32.1433 65.4838 31.509C65.0775 31.4192 64.6228 31.2567 64.1268 31.0828C62.4105 30.4826 60.0457 29.663 57.4643 30.6722C56.9568 30.085 56.2583 29.5689 55.3575 29.1442C53.6313 28.3331 51.3249 28.4158 49.4832 29.3608C47.6729 30.2902 46.4656 31.9523 46.0807 34.0434C45.6431 36.421 46.2147 38.7445 46.6751 40.6118C47.0215 42.0202 47.3807 43.4769 46.9331 43.8832C46.7378 44.06 46.6352 44.318 46.6552 44.5802C46.6751 44.8439 46.8148 45.082 47.0343 45.2288C47.1198 45.2858 47.7043 45.655 48.4669 45.6536C48.7505 45.6536 49.0613 45.6023 49.3777 45.4654C50.3955 45.025 51.0683 43.8718 51.3776 42.0373C51.6228 40.579 51.9792 39.1493 52.3826 37.9006C52.3412 38.8371 52.4154 39.8136 52.6491 40.8085C53.3419 43.7706 55.1294 46.1767 57.2932 47.1717V50.3076C54.3953 51.8329 50.0391 63.1038 49.8752 63.4431C46.0522 71.3428 45.472 73.0006 45.4079 73.5794C45.3295 74.2792 44.8377 80.3131 44.6382 83.3735C42.4515 82.9716 40.1238 83.3465 38.1938 84.4555C36.4704 82.7635 34.1498 81.8056 31.7194 81.8056C28.5107 81.8056 25.5273 83.4819 23.8496 86.2059C20.7606 87.1495 18.6353 89.999 18.6353 93.2604C18.6353 93.8662 18.7094 94.4635 18.8548 95.045C16.9262 95.7563 15.6077 97.5923 15.6077 99.7233C15.6077 100.983 16.0923 102.122 16.8649 103H10.8553C10.382 103 10 103.384 10 103.856C10 104.328 10.3834 104.711 10.8553 104.711H48.8147L36.67 127.916C36.6671 127.921 36.6685 127.928 36.6657 127.933C36.6628 127.94 36.6557 127.943 36.6529 127.95L35.1177 131.238C34.9295 131.643 35.0834 132.125 35.4712 132.344L43.6788 136.996H26.5935C26.1203 136.996 25.7383 137.379 25.7383 137.851C25.7383 138.323 26.1217 138.706 26.5935 138.706H99.1327C99.6059 138.706 99.9879 138.323 99.9879 137.851C99.9879 137.379 99.6045 136.996 99.1327 136.996H81.5228L86.5632 136.172C86.8311 136.128 87.0621 135.961 87.1861 135.719C87.3101 135.478 87.3115 135.193 87.1918 134.949C86.4776 133.499 84.3452 131.019 81.128 131.047C80.592 127.472 78.3469 112.487 77.1496 104.72H124.997C125.471 104.72 125.853 104.336 125.853 103.864C125.853 103.392 125.469 103.009 124.997 103.009H106.623V77.716C109.955 79.5776 113.702 80.5569 117.556 80.5569ZM71.9595 84.588L72.3572 85.3749C72.544 85.7583 72.906 86.0619 73.3408 86.3299C73.3294 86.3413 73.3166 86.3527 73.3066 86.3655C72.9089 86.7989 73.1198 87.3021 73.2339 87.5729C73.3764 87.9121 73.6786 88.1644 74.2944 88.6577C74.5182 88.8358 74.8959 89.1394 75.1654 89.3974C74.4341 89.5771 73.5546 89.4402 73.328 89.0397C73.0899 88.6192 72.8462 87.8623 72.6323 87.1951C72.2888 86.1261 72.0779 85.5032 71.7386 85.1625C71.4991 84.903 69.5505 82.3529 67.6832 79.857C67.4452 78.3189 67.1672 76.3347 66.9363 74.1652C67.4366 75.4467 68.7224 78.2006 71.9595 84.588ZM66.6013 60.9984C66.607 61.3805 66.1266 62.4424 65.7746 63.2178C65.2443 64.3896 64.744 65.4957 64.7454 66.321C64.7568 72.5573 65.8971 79.7087 66.3533 82.3173H54.8557V67.9346C54.8557 67.889 54.8372 67.8505 54.83 67.8078C56.5491 64.505 58.5775 60.662 59.8091 58.7676C60.9053 57.0813 60.0785 55.0985 58.7714 53.8826C58.187 53.3396 57.5598 52.9832 56.9511 52.805C57.2718 52.423 57.6396 52.0937 58.0373 51.8428C58.5533 52.088 59.5497 52.5926 60.6843 53.3082C60.7043 53.3182 60.7185 53.3339 60.7385 53.3424C63.3071 54.9688 66.5586 57.6829 66.6013 60.9984ZM48.5025 85.0656C50.8459 75.9071 51.5316 73.9771 51.724 73.6563C51.925 73.3655 52.3726 72.5302 53.1438 71.0506V83.1027L52.364 87.8765C51.9535 87.8851 51.553 87.9392 51.1667 88.0533C50.5081 86.8758 49.593 85.8681 48.5025 85.0656ZM60.2382 51.0489C59.7492 50.7795 59.3302 50.5642 59.0066 50.4074V48.2693C59.4656 48.5928 59.8832 48.8751 60.2652 49.1217L60.2382 51.0489ZM63.0947 48.7126C62.0527 48.3448 60.355 47.156 58.9296 46.1069C58.7799 45.6151 58.5747 44.6743 58.7586 43.9174C58.8156 43.6808 58.7671 43.4313 58.6303 43.2318C58.3195 42.7785 57.6154 41.3858 58.0829 40.4108C58.1599 40.2498 58.2254 40.1614 58.2425 40.1186C58.2825 40.1543 58.3224 40.1984 58.3338 40.1842C58.2525 40.5961 58.4635 41.0352 58.8569 41.1806C59.2532 41.3288 59.6737 41.1962 59.8789 40.8299C59.8875 40.8185 60.8041 39.7694 64.9906 40.5035C65.5166 40.5961 66.0226 40.5519 66.4987 40.4037C66.3732 41.7907 66.0967 43.963 65.642 45.1504C64.9236 47.0405 63.5409 48.6769 63.0947 48.7126ZM49.6928 41.7607C49.449 43.209 49.0342 43.6893 48.799 43.849C48.9872 42.8426 48.6779 41.5897 48.3386 40.2098C47.8953 38.4124 47.3935 36.3754 47.7641 34.3598C48.1319 32.3642 49.3279 31.3707 50.2672 30.8889C51.6314 30.189 53.3846 30.112 54.6319 30.6993C55.1479 30.9431 55.5684 31.221 55.8991 31.5175C55.6126 31.7142 55.3247 31.9437 55.0367 32.1946C54.6447 32.1162 54.2399 32.1504 53.8522 32.3286C51.0982 33.5972 49.7484 41.4272 49.6928 41.7607ZM57.0252 43.8846C56.9696 44.2638 56.9654 44.6444 56.9896 45.0007C55.7637 44.0072 54.7645 42.3409 54.3169 40.4279C53.6954 37.7681 54.257 35.2821 55.8222 33.7783C57.3003 32.3585 58.6973 31.9038 60.0158 31.9038C61.2702 31.9038 62.4533 32.3172 63.5637 32.7049C64.131 32.903 64.6513 33.0812 65.1132 33.1839C67.056 33.6172 67.6034 35.1339 67.468 36.4096C67.3711 37.3276 66.9762 38.1501 66.4402 38.5535C66.1024 38.8086 65.7218 38.8927 65.2856 38.82C62.2523 38.2926 60.5275 38.5977 59.5596 39.0296C59.3387 38.7716 59.055 38.5677 58.7357 38.4623C58.0629 38.2356 57.1321 38.438 56.5391 39.6725C55.748 41.3245 56.6061 43.1562 57.0252 43.8846ZM47.1113 73.7789C47.1655 73.414 47.7955 71.6821 51.4175 64.1957C51.6157 63.7866 51.7354 63.5357 51.7482 63.5044C53.3904 59.4604 55.3902 54.9517 55.8478 54.4471C55.9091 54.4001 56.0003 54.3773 56.1115 54.3773C56.4764 54.3773 57.0651 54.631 57.6054 55.1342C58.1898 55.6773 59.008 56.859 58.3751 57.8354C56.8898 60.1189 54.3368 65.0424 52.4724 68.6359C51.476 70.5574 50.5352 72.372 50.3185 72.6842C49.9764 73.1774 49.3164 74.982 46.8148 84.7605L46.591 85.6272C46.4798 86.0391 46.5525 86.5067 46.7022 86.9942C46.6865 86.9942 46.6694 86.9956 46.6523 86.9984C46.0679 87.0612 45.8954 87.58 45.8013 87.8594C45.6859 88.2072 45.7472 88.5964 45.8854 89.3718C45.9353 89.654 46.0194 90.1316 46.0536 90.5036C45.3837 90.1572 44.8135 89.4744 44.9061 89.024C45.0045 88.5493 45.3195 87.8209 45.5975 87.178C46.0436 86.1475 46.2945 85.5416 46.2646 85.057C46.2461 84.4227 46.9545 75.1958 47.1113 73.7789ZM49.6785 103.01H20.5867C18.785 103.003 17.3211 101.536 17.3211 99.7333C17.3211 98.1126 18.4799 96.7513 20.0793 96.4961C20.3344 96.4562 20.5582 96.3009 20.6865 96.0771C20.8148 95.8518 20.8348 95.581 20.7407 95.3401C20.4813 94.6787 20.3501 93.9817 20.3501 93.2704C20.3501 90.6718 22.1077 88.4125 24.625 87.7767C24.8516 87.7197 25.0455 87.5715 25.161 87.3676C26.4952 84.9986 29.0111 83.5275 31.7237 83.5275C33.9046 83.5275 35.9772 84.474 37.4098 86.1246C37.6948 86.4525 38.1809 86.5152 38.5373 86.27C40.2877 85.0769 42.5086 84.6678 44.5569 85.1112C44.5569 85.1126 44.5569 85.1169 44.5569 85.1183C44.537 85.3264 44.2305 86.0334 44.0281 86.501C43.7016 87.255 43.3652 88.0347 43.2313 88.6805C42.892 90.3169 44.5412 92.0032 46.1848 92.3624C46.2917 92.3852 46.3957 92.3966 46.4969 92.3966C46.8148 92.3966 47.1042 92.284 47.3308 92.0659C47.757 91.6568 47.8169 91.0068 47.7499 90.2855C47.9894 90.3967 48.226 90.4223 48.464 90.361C48.6294 90.3197 49.1739 90.1244 49.2523 89.3533C49.3008 88.8686 49.0727 88.3113 48.7791 87.6199C49.2623 88.1816 49.6671 88.8102 49.975 89.4944C50.0719 89.7068 50.2515 89.8721 50.4739 89.9491C50.5651 89.9805 50.6606 89.9976 50.7547 89.9976C50.8901 89.9976 51.0227 89.9662 51.1453 89.9035C51.4389 89.7524 51.7539 89.674 52.0775 89.6326L49.9764 102.506L49.7056 103.023C49.697 103.015 49.6899 103.01 49.6785 103.01ZM51.5587 103.169C51.6014 103.087 51.6299 103 51.6456 102.909L54.7274 84.0264H66.4246C66.2478 85.0057 65.7575 86.8773 64.3876 89.7652C63.5737 91.4829 62.5816 94.0501 61.5325 96.7698C59.5539 101.897 57.3103 107.707 55.3446 110.309L43.0958 129.266L38.6542 127.812L51.5587 103.169ZM62.8681 98.0584C64.1752 100.148 65.1331 101.767 65.8245 103.01H60.9095C61.5781 101.383 62.2338 99.6991 62.8681 98.0584ZM37.8816 129.361L42.8364 130.983C43.3524 132.128 43.944 133.989 44.3659 135.421L37.0007 131.247L37.8816 129.361ZM46.5839 136.996C46.5825 136.987 46.5867 136.98 46.5839 136.971C46.5326 136.78 45.405 132.567 44.43 130.353L56.7444 111.289C57.8563 109.82 59.0294 107.424 60.1911 104.72H66.7353C67.3454 105.94 67.5535 106.563 67.6062 106.873C68.2577 110.658 73.0557 131.799 73.3094 132.916L74.1148 136.996H46.5839ZM84.9852 134.696L75.7042 136.213L75.1639 133.481L80.5079 132.778C80.5107 132.778 80.5122 132.776 80.515 132.775C80.5179 132.775 80.5207 132.775 80.5222 132.775C82.7059 132.457 84.1941 133.724 84.9852 134.696ZM74.8104 131.803C73.9195 127.873 69.8698 109.945 69.2911 106.585C69.1985 106.048 68.9177 104.414 63.7376 96.2282C63.7062 96.1797 63.6606 96.1483 63.6222 96.1084C64.4746 93.909 65.2714 91.8934 65.9314 90.5007C66.8807 88.5009 67.4266 86.9685 67.7559 85.8139C70.7265 91.6953 74.5382 99.4397 74.7349 100.42C75.0242 101.87 78.6833 126.268 79.4217 131.197L74.8104 131.803Z" stroke="#663366" stroke-width="0.5" mask="url(#path-1-outside-1_259_1887)"/>
<path d="M25.835 16.9941C30.7362 16.9941 34.7236 20.9815 34.7236 25.8828C34.7236 26.4235 34.2848 26.863 33.7441 26.8633C33.2034 26.8633 32.7637 26.4252 32.7637 25.8828C32.7637 22.0633 29.6545 18.9551 25.835 18.9551C22.0156 18.9553 18.9072 22.0634 18.9072 25.8828C18.9073 29.7022 22.0142 32.8103 25.835 32.8105C28.4632 32.8105 30.8339 31.3537 32.0215 29.0068V29.0059L32.0713 28.9189C32.3398 28.5018 32.8861 28.3471 33.3379 28.5752C33.7898 28.8035 33.9891 29.3357 33.8105 29.7998L33.7695 29.8916C32.2473 32.9014 29.2062 34.7715 25.835 34.7715C20.9339 34.7713 16.9454 30.784 16.9453 25.8828C16.9453 20.9816 20.9339 16.9943 25.835 16.9941Z" fill="#663366" stroke="#663366" stroke-width="0.25"/>
<path d="M25.835 10.875C26.3756 10.8751 26.8154 11.3131 26.8154 11.8555V15.1377C26.8154 15.6783 26.3773 16.1181 25.835 16.1182C25.2925 16.1182 24.8545 15.6784 24.8545 15.1377V11.8555C24.8545 11.3146 25.2941 10.875 25.835 10.875Z" fill="#663366" stroke="#663366" stroke-width="0.25"/>
<path d="M25.835 35.6445C26.3756 35.6446 26.8154 36.0827 26.8154 36.625V39.9072C26.8154 40.448 26.3757 40.8876 25.835 40.8877C25.2942 40.8877 24.8545 40.4496 24.8545 39.9072V36.625C24.8545 36.0826 25.2942 35.6445 25.835 35.6445Z" fill="#663366" stroke="#663366" stroke-width="0.25"/>
<path d="M39.8613 24.9004C40.4022 24.9004 40.8418 25.34 40.8418 25.8809C40.8417 26.4215 40.4037 26.8613 39.8613 26.8613H36.5791C36.0384 26.8613 35.5987 26.4232 35.5986 25.8809C35.5986 25.3386 36.0368 24.9004 36.5791 24.9004H39.8613Z" fill="#663366" stroke="#663366" stroke-width="0.25"/>
<path d="M15.0908 24.9004C15.6317 24.9004 16.0713 25.34 16.0713 25.8809C16.0712 26.4215 15.6332 26.8613 15.0908 26.8613H11.8086C11.2662 26.8613 10.8282 26.4215 10.8281 25.8809C10.8281 25.3401 11.2662 24.9004 11.8086 24.9004H15.0908Z" fill="#663366" stroke="#663366" stroke-width="0.25"/>
<path d="M35.1348 15.2021C35.5201 14.8892 36.0876 14.9097 36.4463 15.2695C36.8044 15.6292 36.8273 16.1973 36.5137 16.582L36.4463 16.6562L34.126 18.9775C33.9351 19.1684 33.6835 19.2645 33.4336 19.2646C33.1827 19.2646 32.9299 19.1698 32.7383 18.9766V18.9775C32.3563 18.5939 32.3569 17.9733 32.7393 17.5908L35.0596 15.2695L35.1348 15.2021Z" fill="#663366" stroke="#663366" stroke-width="0.25"/>
<path d="M17.6191 32.7178C18.0036 32.4043 18.572 32.4251 18.9307 32.7852C19.2887 33.1447 19.3115 33.7129 18.998 34.0977L18.9307 34.1719L16.6094 36.4932C16.4184 36.684 16.1669 36.7803 15.917 36.7803C15.6671 36.7803 15.4156 36.684 15.2246 36.4932H15.2236C14.8417 36.1095 14.8422 35.4889 15.2246 35.1064L17.5449 32.7852L17.6191 32.7178Z" fill="#663366" stroke="#663366" stroke-width="0.25"/>
<path d="M32.7383 32.7842C33.1219 32.4022 33.7425 32.4028 34.125 32.7852L36.4443 35.1055H36.4453L36.5117 35.1807C36.825 35.5664 36.8029 36.1337 36.4443 36.4922C36.2533 36.6832 36.002 36.7803 35.752 36.7803C35.5332 36.7803 35.3133 36.7059 35.1338 36.5596L35.0596 36.4922L32.7383 34.1719C32.3565 33.7885 32.3539 33.1669 32.7383 32.7842Z" fill="#663366" stroke="#663366" stroke-width="0.25"/>
<path d="M15.2217 15.2686C15.6053 14.8866 16.2259 14.8871 16.6084 15.2695L18.9297 17.5898L18.9971 17.665C19.3101 18.0507 19.2879 18.6181 18.9297 18.9766C18.7386 19.1676 18.4864 19.2646 18.2363 19.2646C18.0176 19.2646 17.7977 19.1904 17.6182 19.0439L17.5439 18.9766L15.2217 16.6562C14.8399 16.2728 14.8373 15.6513 15.2217 15.2686Z" fill="#663366" stroke="#663366" stroke-width="0.25"/>
<path d="M113.412 136.871C113.953 136.871 114.393 137.311 114.393 137.852C114.392 138.392 113.954 138.832 113.412 138.832H106.371C105.83 138.832 105.391 138.392 105.391 137.852C105.391 137.311 105.829 136.871 106.371 136.871H113.412Z" fill="#663366" stroke="#663366" stroke-width="0.25"/>
</svg>
