<svg width="150" height="150" viewBox="0 0 150 150" fill="none" xmlns="http://www.w3.org/2000/svg">
<path d="M139.937 39.0708L132.794 16.9174C132.619 16.3715 132.106 16 131.53 16H18.476C17.9001 16 17.3863 16.3715 17.2112 16.9174L10.0632 39.0708C9.93332 39.4761 10.0067 39.9151 10.2551 40.2584C10.5036 40.6018 10.9045 40.8044 11.3279 40.8044H15.9805V46.5791C15.9805 47.3108 16.5733 47.9074 17.313 47.9074H19.5206V56.8172C19.5206 59.9072 21.6378 62.4906 24.4948 63.273V119.788H20.7966C20.0626 119.788 19.4641 120.379 19.4641 121.117V125.569L15.0375 125.563C14.3035 125.563 13.705 126.154 13.705 126.891V132.672C13.705 133.403 14.2978 134 15.0375 134H134.963C135.697 134 136.295 133.409 136.295 132.672V126.891C136.295 126.16 135.702 125.563 134.963 125.563H130.525L130.53 121.111C130.53 120.379 129.938 119.783 129.198 119.783H125.5L125.505 63.2732C128.362 62.4908 130.48 59.9074 130.48 56.8173L130.474 47.9019H132.682C133.416 47.9019 134.014 47.311 134.014 46.5736V40.7989H138.667C139.09 40.7989 139.491 40.5963 139.739 40.253C139.993 39.9152 140.067 39.4761 139.937 39.0708ZM22.1855 56.8109V47.9011H30.3555V56.8109C30.3555 59.0566 28.5205 60.8802 26.2733 60.8802C24.0148 60.8858 22.1855 59.0566 22.1855 56.8109ZM41.1856 47.9011V56.8109C41.1856 59.0566 39.3506 60.8802 37.1034 60.8802C34.8506 60.8802 33.0213 59.051 33.0213 56.8109L33.0156 47.9011H41.1856ZM52.0093 47.9011V56.8109C52.0093 59.0566 50.1744 60.8802 47.9272 60.8802C45.6743 60.8802 43.845 59.051 43.845 56.8109V47.9011H52.0093ZM62.8444 47.9011V56.8109C62.8444 59.0566 61.0094 60.8802 58.7622 60.8802C56.5094 60.8802 54.6744 59.051 54.6744 56.8109V47.9011H62.8444ZM73.6681 47.9011V56.8109C73.6681 59.0566 71.8332 60.8802 69.586 60.8802C67.3331 60.8802 65.5038 59.051 65.5038 56.8109V47.9011H73.6681ZM84.4975 47.9011V56.8109C84.4975 59.0566 82.6626 60.8802 80.4154 60.8802C78.1625 60.8802 76.3332 59.051 76.3332 56.8109V47.9011H84.4975ZM95.3269 47.9011V56.8109C95.3269 59.0566 93.492 60.8802 91.2391 60.8802C88.9863 60.8802 87.157 59.051 87.157 56.8109V47.9011H95.3269ZM106.156 47.9011V56.8109C106.156 59.0566 104.321 60.8802 102.074 60.8802C99.8213 60.8802 97.992 59.051 97.992 56.8109V47.9011H106.156ZM116.986 47.9011V56.8109C116.986 59.0566 115.151 60.8802 112.904 60.8802C110.651 60.8802 108.821 59.051 108.821 56.8109L108.816 47.9011H116.986ZM16.3655 128.212H20.7978C21.5318 128.212 22.1303 127.621 22.1303 126.884V122.432H55.4314V131.342H16.3659L16.3655 128.212ZM58.0905 131.342V75.7501H91.9062V131.342H58.0905ZM129.198 128.212H133.63V131.342H94.5707V122.432H127.872V126.884C127.872 127.621 128.464 128.212 129.198 128.212ZM94.5701 119.781V74.4267C94.5701 73.695 93.9772 73.0984 93.2376 73.0984H56.7638C56.0298 73.0984 55.4313 73.6894 55.4313 74.4267V119.785H27.156V63.4501C29.0078 63.2025 30.6227 62.2175 31.6842 60.7878C32.9151 62.4481 34.8742 63.5402 37.0989 63.5402C39.3235 63.5402 41.2827 62.4483 42.5136 60.7878C43.7444 62.4481 45.7036 63.5402 47.9283 63.5402C50.1529 63.5402 52.1121 62.4483 53.343 60.7878C54.5738 62.4481 56.533 63.5402 58.7577 63.5402C60.9823 63.5402 62.9415 62.4483 64.1724 60.7878C65.4032 62.4481 67.3624 63.5402 69.5871 63.5402C71.8117 63.5345 73.7709 62.4426 75.0018 60.7766C76.2326 62.4369 78.1918 63.5289 80.4165 63.5289C82.6411 63.5289 84.6002 62.437 85.8312 60.7766C87.062 62.4369 89.0212 63.5289 91.2459 63.5289C93.4705 63.5289 95.4296 62.437 96.6606 60.7766C97.8914 62.4369 99.8506 63.5289 102.075 63.5289C104.3 63.5289 106.259 62.437 107.49 60.7766C108.721 62.4369 110.68 63.5289 112.905 63.5289C115.129 63.5289 117.088 62.437 118.319 60.7766C119.381 62.2118 120.99 63.1912 122.848 63.4389V119.774L94.5701 119.781ZM127.815 56.8106C127.815 59.0563 125.98 60.8799 123.733 60.8799C121.48 60.8799 119.65 59.0507 119.65 56.8106L119.645 47.9008H127.815V56.8106ZM131.355 45.2499H18.6452V40.7979H131.355V45.2499ZM132.687 38.1524H13.1525L19.4424 18.656H130.559L136.849 38.1524H132.687ZM51.05 90.6088C50.6943 85.0762 46.0757 80.6803 40.4351 80.6803C34.7946 80.6803 30.1759 85.0762 29.8202 90.6088C29.8145 90.6651 29.7863 90.7214 29.7863 90.7833C29.7863 90.8227 29.8033 90.8508 29.8089 90.8846C29.8033 91.0197 29.7863 91.1548 29.7863 91.2955V108.327C29.7863 109.058 30.3792 109.655 31.1188 109.655H49.7619C50.4959 109.655 51.0944 109.064 51.0944 108.327L51.0887 91.2955C51.0887 91.1548 51.0718 91.0197 51.0662 90.8846C51.0718 90.8508 51.0887 90.8171 51.0887 90.7833C51.0887 90.7214 51.0613 90.6707 51.05 90.6088ZM32.446 92.106H39.1085V98.2241H32.446V92.106ZM41.7678 92.106H48.4303V98.2241H41.7678V92.106ZM48.2044 89.4551H41.7678V83.4496C44.9296 83.9842 47.4704 86.3706 48.2044 89.4551ZM39.1027 83.4496V89.4551H32.6661C33.4057 86.3708 35.9408 83.9843 39.1027 83.4496ZM32.4458 100.875H39.1083V106.999L32.4458 107.005V100.875ZM41.7676 107.005V100.881H48.4302V107.005H41.7676ZM120.215 90.7835C120.215 90.7215 120.187 90.6709 120.181 90.609C119.825 85.0763 115.207 80.6805 109.566 80.6805C103.926 80.6805 99.3071 85.0763 98.9514 90.609C98.9457 90.6653 98.9175 90.7215 98.9175 90.7835C98.9175 90.8228 98.9344 90.851 98.9401 90.8848C98.9344 91.0198 98.9175 91.1549 98.9175 91.2956V108.327C98.9175 109.058 99.5104 109.655 100.25 109.655H118.893C119.627 109.655 120.226 109.064 120.226 108.327L120.214 91.2956C120.214 91.1549 120.197 91.0198 120.192 90.8848C120.197 90.851 120.215 90.8172 120.215 90.7835ZM101.572 92.1061H108.235V98.2242H101.572V92.1061ZM110.899 92.1061H117.562V98.2242H110.899V92.1061ZM117.336 89.4552H110.899V83.4497C114.061 83.9844 116.596 86.3707 117.336 89.4552ZM108.234 83.4497V89.4552H101.798C102.532 86.3709 105.073 83.9844 108.234 83.4497ZM101.572 100.876H108.234V106.999H101.572V100.876ZM110.899 107.005V100.881H117.562V107.005H110.899ZM86.1797 85.386C85.7844 85.144 85.2932 85.1271 84.8811 85.3354C80.6126 87.5023 77.9644 91.8137 77.9644 96.5866V108.147C77.9644 108.541 78.1451 108.918 78.45 109.172L80.4036 110.776L79.6188 118.228C79.5962 119.202 79.9576 120.125 80.6408 120.817C81.324 121.515 82.2387 121.898 83.2154 121.898C85.1972 121.898 86.8176 120.288 86.8176 118.312V86.518C86.812 86.0564 86.5749 85.6281 86.1797 85.386ZM84.1528 118.313C84.1528 118.831 83.7293 119.247 83.2099 119.247C82.9558 119.247 82.7186 119.146 82.538 118.966C82.3573 118.786 82.2613 118.544 82.2613 118.397L83.1139 110.343C83.159 109.898 82.984 109.465 82.6396 109.178L80.6183 107.518V96.5874C80.6183 93.6044 81.9282 90.8464 84.1472 88.9779L84.1528 118.313ZM69.4557 85.0935C65.9381 85.0935 63.1885 88.9434 63.1885 93.8569C63.1885 96.9188 64.2782 99.6936 66.1132 101.292C66.2204 101.388 66.2826 101.517 66.2826 101.664V118.83C66.2826 120.575 67.711 121.999 69.4613 121.999C71.2116 121.999 72.6401 120.581 72.6401 118.83L72.6345 101.664C72.6345 101.517 72.6966 101.388 72.8039 101.292C74.6332 99.6992 75.7285 96.9188 75.7285 93.8569C75.7229 88.9433 72.9675 85.0935 69.4557 85.0935ZM71.048 99.2941C70.3648 99.8907 69.9696 100.752 69.9696 101.664V118.83C69.9696 119.112 69.7381 119.348 69.4501 119.348C69.1622 119.348 68.9307 119.117 68.9307 118.83L68.9363 101.664C68.9363 100.757 68.5411 99.8906 67.8579 99.2941C66.6157 98.2078 65.8423 96.1253 65.8423 93.8571C65.8423 90.5419 67.4965 87.7446 69.4502 87.7446C71.4038 87.7446 73.0581 90.5419 73.0581 93.8571C73.0637 96.1309 72.2901 98.2134 71.048 99.2941ZM81.6742 24.7577L77.8856 24.2062L76.1917 20.7841C75.7456 19.8779 74.2551 19.8779 73.809 20.7841L72.1151 24.2062L68.3265 24.7577C67.824 24.8309 67.4119 25.1799 67.2538 25.6583C67.0957 26.1367 67.2255 26.6658 67.5925 27.0147L70.3365 29.677L69.6872 33.4369C69.6025 33.9322 69.8058 34.4387 70.218 34.7314C70.6301 35.0297 71.1722 35.0691 71.6182 34.8327L75.0002 33.0653L78.388 34.8439C78.5856 34.9453 78.7945 34.9959 79.0091 34.9959C79.2858 34.9959 79.5568 34.9115 79.7883 34.7426C80.1948 34.4443 80.4037 33.9434 80.319 33.4481L79.6697 29.6883L82.4137 27.026C82.775 26.6714 82.9049 26.1479 82.7525 25.6695C82.5944 25.1799 82.1767 24.8309 81.6742 24.7577ZM77.3153 28.2699C77.0048 28.5738 76.858 29.0128 76.9314 29.4406L77.2419 31.2417L75.6215 30.3918C75.4239 30.2961 75.215 30.2455 75.0004 30.2455C74.7858 30.2455 74.5769 30.2961 74.3793 30.3974L72.7588 31.2473L73.0694 29.4462C73.1428 29.0185 73.0016 28.5794 72.6855 28.2755L71.3755 26.9979L73.188 26.7333C73.6227 26.6714 73.9954 26.4013 74.1873 26.0073L75.0004 24.3694L75.8134 26.0073C76.0054 26.4013 76.3837 26.6714 76.8128 26.7333L78.6252 26.9979L77.3153 28.2699ZM65.735 28.1292L62.8951 27.7183L61.6247 25.1518C61.1786 24.2456 59.6881 24.2456 59.2421 25.1518L57.9717 27.7127L55.1317 28.1235C54.6292 28.1967 54.217 28.5457 54.0589 29.0241C53.9008 29.5025 54.0307 30.0316 54.3977 30.3805L56.4529 32.3786L55.9674 35.1984C55.8827 35.6937 56.0859 36.2002 56.4981 36.4929C56.9103 36.7912 57.4523 36.8306 57.8984 36.5942L60.4391 35.2659L62.9799 36.5942C63.1719 36.6955 63.3864 36.7462 63.5953 36.7462C63.872 36.7462 64.143 36.6618 64.3745 36.4929C64.781 36.1946 64.9899 35.6937 64.9052 35.1984L64.4197 32.3786L66.4749 30.3805C66.8363 30.026 66.9661 29.5025 66.8137 29.0241C66.6499 28.5513 66.2375 28.2023 65.735 28.1292ZM62.0593 30.9716C61.7488 31.2755 61.602 31.7145 61.6754 32.1423L61.8222 32.9978L61.0487 32.5926C60.8567 32.4912 60.6421 32.4406 60.4332 32.4406C60.2187 32.4406 60.0098 32.4912 59.8178 32.5926L59.0443 32.9978L59.1911 32.1423C59.2645 31.7145 59.1233 31.2755 58.8071 30.9716L58.1804 30.3637L59.0443 30.2399C59.479 30.178 59.8517 29.9078 60.0437 29.5138L60.4276 28.7371L60.8172 29.5195C61.0092 29.9078 61.3874 30.1836 61.8166 30.2455L62.6804 30.3693L62.0593 30.9716ZM94.869 28.1292L92.029 27.7183L90.7586 25.1574C90.5328 24.7072 90.0754 24.4201 89.5673 24.4201C89.0591 24.4201 88.5961 24.7072 88.3759 25.1574L87.1055 27.7239L84.2656 28.1348C83.7631 28.208 83.3509 28.5569 83.1928 29.0353C83.0347 29.5137 83.1646 30.0428 83.5316 30.3918L85.5868 32.3898L85.1012 35.2096C85.0166 35.7049 85.2198 36.2115 85.632 36.5042C86.0442 36.8025 86.5862 36.8419 87.0322 36.6055L89.573 35.2772L92.1138 36.6055C92.3057 36.7068 92.5203 36.7574 92.7292 36.7574C93.0059 36.7574 93.2769 36.673 93.5084 36.5042C93.9149 36.2059 94.1238 35.7049 94.0391 35.2096L93.5535 32.3898L95.6088 30.3918C95.9701 30.0372 96.1 29.5137 95.9476 29.0353C95.7838 28.5513 95.3659 28.2023 94.869 28.1292ZM91.1933 30.9716C90.8827 31.2755 90.7359 31.7145 90.8093 32.1423L90.9561 32.9978L90.1826 32.5926C89.9906 32.4912 89.7761 32.4406 89.5672 32.4406C89.3526 32.4406 89.1437 32.4912 88.9517 32.5926L88.1782 32.9978L88.325 32.1423C88.3984 31.7145 88.2573 31.2755 87.9411 30.9716L87.3144 30.3637L88.1782 30.2399C88.613 30.178 88.9856 29.9078 89.1776 29.5138L89.5672 28.7315L89.9511 29.5082C90.1431 29.9022 90.5214 30.1723 90.9505 30.2343L91.8144 30.3581L91.1933 30.9716Z" fill="#663366"/>
</svg>
