<svg width="150" height="150" viewBox="0 0 150 150" fill="none" xmlns="http://www.w3.org/2000/svg">
<path d="M45.3486 34.1461V43.3293C44.1085 43.6524 43.1797 44.7772 43.1797 46.1212V49.0168C43.1797 50.6088 44.4776 51.9124 46.0753 51.9124H50.5631L54.7393 88.1783C54.8259 88.8994 55.4315 89.4647 56.1699 89.4647H93.7102C94.4485 89.4647 95.0542 88.9167 95.1407 88.1783L99.3169 51.9124H103.805C105.397 51.9124 106.7 50.6146 106.7 49.0168V46.1212C106.7 44.7771 105.772 43.6523 104.531 43.3293V34.1461C104.531 32.2253 103.793 30.4256 102.432 29.0643L99.5648 26.1686C100.419 24.4381 100.153 22.2693 98.74 20.8387L96.4961 18.5776C94.6964 16.7895 91.7835 16.7895 89.9837 18.5776C89.1415 19.4486 88.657 20.6311 88.657 21.8424C88.657 23.0537 89.1415 24.2362 90.001 25.1072L92.2448 27.3683C93.1158 28.2393 94.2695 28.7123 95.4923 28.7123C96.2134 28.7123 96.9113 28.522 97.5458 28.2105L100.395 31.0888C101.191 31.8849 101.653 32.9924 101.653 34.1287V43.208H95.1578V40.6699C95.1578 33.373 89.2683 27.4374 82.0002 27.3336C83.8922 25.505 85.0574 22.9324 85.0574 20.1002C85.0574 14.5339 80.5236 10 74.9572 10C69.3908 10 64.857 14.5339 64.857 20.1002C64.857 22.9383 66.0395 25.4878 67.9141 27.3336C60.6345 27.4375 54.7566 33.373 54.7566 40.6699V43.208H48.2615V34.1287C48.2615 32.9924 48.7172 31.8849 49.519 31.0888L52.3686 28.2105C53.0031 28.522 53.6953 28.7123 54.4221 28.7123C55.6449 28.7123 56.8159 28.2393 57.6696 27.3683L59.9134 25.1072C60.7556 24.2362 61.2401 23.0537 61.2401 21.8424C61.2401 20.6311 60.7556 19.4485 59.8961 18.5659C58.108 16.7778 55.1834 16.7778 53.3836 18.5659L51.1398 20.827C49.7093 22.2749 49.4555 24.4322 50.3149 26.157L47.4481 29.0526C46.1041 30.4139 45.3484 32.2136 45.3484 34.1345L45.3486 34.1461ZM96.7092 25.3438C96.0574 25.9783 94.9384 25.9783 94.3038 25.3438L92.0715 23.0999C91.7485 22.7596 91.5524 22.3154 91.5524 21.8598C91.5524 21.4041 91.7428 20.9426 92.0542 20.6369C92.3946 20.2966 92.8214 20.1351 93.2656 20.1351C93.7097 20.1351 94.1366 20.2966 94.4769 20.6369L96.7092 22.8807C97.3899 23.5614 97.3899 24.6688 96.7092 25.3496V25.3438ZM53.1928 22.8749L55.4251 20.6311C55.7654 20.2907 56.2096 20.1292 56.6364 20.1292C57.0633 20.1292 57.5074 20.2907 57.8305 20.6138C58.1535 20.9541 58.3496 21.3983 58.3496 21.8539C58.3496 22.3096 58.1593 22.7711 57.8478 23.0941L55.6155 25.3379C54.9636 25.9725 53.8274 25.9725 53.2101 25.3379C52.5294 24.6573 52.5294 23.5498 53.2101 22.8691L53.1928 22.8749ZM92.4401 86.551H57.4722L53.4691 51.8947H96.4258L92.4227 86.551H92.4401ZM67.7175 20.1342C67.7175 16.1483 70.9535 12.9123 74.9393 12.9123C78.9252 12.9123 82.1612 16.1483 82.1612 20.1342C82.1612 24.12 78.9252 27.356 74.9393 27.356C70.9535 27.356 67.7175 24.12 67.7175 20.1342ZM57.6172 40.6926C57.6172 34.9359 62.3127 30.2404 68.0694 30.2404H81.8152C87.5719 30.2404 92.2674 34.9359 92.2674 40.6926V43.2307H57.611V40.6926H57.6172ZM103.821 46.1263V49.0047H46.0577V46.1091H103.809L103.821 46.1263Z" fill="#663366"/>
<path d="M54.7207 127.326V135.137C54.7207 137.807 56.8897 139.982 59.566 139.982H90.3224C92.9931 139.982 95.1677 137.813 95.1677 135.137V127.326C95.1677 120.029 89.2782 114.094 82.0101 113.99C83.9021 112.161 85.0673 109.589 85.0673 106.768C85.0673 101.202 80.5335 96.668 74.9671 96.668C69.4007 96.668 64.8669 101.202 64.8669 106.768C64.8669 109.606 66.0494 112.156 67.924 113.99C60.6444 114.094 54.7665 120.029 54.7665 127.326H54.7207ZM67.7167 106.768C67.7167 102.782 70.9527 99.546 74.9386 99.546C78.9245 99.546 82.1605 102.782 82.1605 106.768C82.1605 110.754 78.9245 113.99 74.9386 113.99C70.9527 113.99 67.7167 110.754 67.7167 106.768ZM68.057 116.868H81.8029C87.5596 116.868 92.255 121.564 92.255 127.32V135.131C92.255 136.209 91.384 137.08 90.3054 137.08H59.549C58.4703 137.08 57.5993 136.209 57.5993 135.131V127.32C57.5993 121.564 62.2947 116.868 68.0514 116.868H68.057Z" fill="#663366"/>
<path d="M14.8113 139.982H45.5559C48.2267 139.982 50.4012 137.813 50.4012 135.137V127.326C50.4012 120.029 44.5118 114.094 37.2437 113.99C39.1356 112.161 40.3008 109.589 40.3008 106.768C40.3008 101.202 35.767 96.668 30.2006 96.668C24.6342 96.668 20.1004 101.202 20.1004 106.768C20.1004 109.606 21.2829 112.156 23.1576 113.99C15.8779 114.094 10 120.029 10 127.326V135.137C10 137.807 12.169 139.982 14.8453 139.982H14.8113ZM22.9619 106.774C22.9619 102.788 26.1979 99.5524 30.1838 99.5524C34.1696 99.5524 37.4057 102.788 37.4057 106.774C37.4057 110.76 34.1696 113.996 30.1838 113.996C26.1979 113.996 22.9619 110.76 22.9619 106.774ZM12.8617 127.333C12.8617 121.576 17.5571 116.881 23.3138 116.881H37.0597C42.8164 116.881 47.5118 121.576 47.5118 127.333V135.143C47.5118 136.222 46.6408 137.093 45.5621 137.093L14.8116 137.087C13.733 137.087 12.862 136.216 12.862 135.137V127.327L12.8617 127.333Z" fill="#663366"/>
<path d="M126.755 114.008C128.647 112.179 129.813 109.606 129.813 106.786C129.813 101.219 125.279 96.6855 119.712 96.6855C114.146 96.6855 109.612 101.219 109.612 106.786C109.612 109.624 110.795 112.173 112.669 114.008C105.39 114.111 99.5117 120.047 99.5117 127.344V135.154C99.5117 137.825 101.681 140 104.357 140H135.113C137.784 140 139.959 137.831 139.959 135.154V127.344C139.959 120.047 134.069 114.111 126.801 114.008H126.755ZM112.49 106.786C112.49 102.8 115.726 99.5639 119.712 99.5639C123.698 99.5639 126.934 102.8 126.934 106.786C126.934 110.772 123.698 114.008 119.712 114.008C115.726 114.008 112.49 110.772 112.49 106.786ZM137.034 135.154C137.034 136.233 136.163 137.104 135.085 137.104H104.328C103.25 137.104 102.379 136.233 102.379 135.154V127.344C102.379 121.587 107.074 116.892 112.831 116.892H126.577C132.333 116.892 137.029 121.587 137.029 127.344V135.154H137.034Z" fill="#663366"/>
</svg>
