<svg width="150" height="150" viewBox="0 0 150 150" fill="none" xmlns="http://www.w3.org/2000/svg">
<path d="M54.208 19.3945V13.8086" stroke="#663366" stroke-width="4" stroke-miterlimit="22.9256" stroke-linecap="round" stroke-linejoin="round"/>
<path d="M25.3716 51.8945C27.7987 43.7063 33.6218 36.9778 41.209 33.3406C45.3484 31.3563 48.3798 28.5628 50.6949 24.5991L54.1795 18.6328L57.6644 24.5991C59.9795 28.5631 63.0109 31.3563 67.1503 33.3406C74.6588 36.94 80.4398 43.5672 82.9113 51.6404" stroke="#663366" stroke-width="4" stroke-miterlimit="22.9256" stroke-linecap="round" stroke-linejoin="round"/>
<path d="M89.2188 86.4258V52.6562H19.1406V118.418H89.2188" stroke="#663366" stroke-width="4" stroke-miterlimit="22.9256" stroke-linecap="round" stroke-linejoin="round"/>
<path fill-rule="evenodd" clip-rule="evenodd" d="M52.0264 69.9452L54.1795 67.8926L56.3327 69.9452C61.9643 75.314 64.8329 82.0123 64.8329 89.793V118.419H43.5259V89.793C43.5261 82.0115 46.3943 75.3145 52.0264 69.9452Z" stroke="#663366" stroke-width="4" stroke-miterlimit="22.9256" stroke-linecap="round" stroke-linejoin="round"/>
<path fill-rule="evenodd" clip-rule="evenodd" d="M107.881 77.5391C120.572 77.5391 130.859 87.8268 130.859 100.518C130.859 113.208 113.848 136.191 107.881 136.191C101.914 136.191 84.9023 113.208 84.9023 100.518C84.9023 87.8268 95.1901 77.5391 107.881 77.5391Z" stroke="#663366" stroke-width="4" stroke-miterlimit="22.9256" stroke-linecap="round" stroke-linejoin="round"/>
<path d="M113.266 105.904C116.24 102.929 116.24 98.1061 113.266 95.1315C110.291 92.1568 105.468 92.1568 102.494 95.1315C99.5189 98.1061 99.5189 102.929 102.494 105.904C105.468 108.878 110.291 108.878 113.266 105.904Z" stroke="#663366" stroke-width="4" stroke-miterlimit="22.9256" stroke-linecap="round" stroke-linejoin="round"/>
</svg>
