<svg width="150" height="150" viewBox="0 0 150 150" fill="none" xmlns="http://www.w3.org/2000/svg">
<path d="M75.7314 21.8047C94.9227 21.9483 111.771 25.7922 123.425 31.8223C135.439 38.0391 142.011 46.6315 139.765 55.9316C139.619 56.5379 139.405 57.1257 139.203 57.6992C139.05 58.1326 138.903 58.559 138.791 58.9902L138.69 59.4229V59.4238C138.595 59.8995 138.52 60.3801 138.446 60.8652C138.373 61.3492 138.299 61.8388 138.207 62.3242V62.3252C137.723 64.8018 137.168 67.2629 136.544 69.707L136.543 69.708C131.648 88.4202 121.351 104.649 103.94 114.833C103.701 116.532 103.129 118.041 102.044 119.378L101.815 119.648C99.275 122.537 95.2754 124.548 91.0254 125.896C86.7709 127.244 82.2413 127.934 78.6162 128.166C77.2228 128.322 75.7665 128.295 74.3867 128.279V128.278C69.0321 128.228 63.7928 127.467 58.7148 125.806L57.7012 125.462C55.4 124.653 53.1159 123.654 51.1016 122.229L50.7021 121.938C48.2887 120.127 46.3729 117.786 45.8975 114.707C45.2075 114.268 44.502 113.853 43.792 113.435C43.2408 113.11 42.6874 112.784 42.1406 112.443L41.5967 112.099C39.1288 110.5 36.7706 108.612 34.6084 106.622V106.621C25.821 98.5247 19.517 88.1828 15.6826 76.9131L15.3193 75.8203C13.7193 70.885 12.5718 65.7906 11.6035 60.707L11.4209 59.7051C11.3748 59.4584 11.3256 59.2146 11.2646 58.9746L11.1992 58.7354C11.0542 58.2316 10.9051 57.8586 10.7451 57.4336C10.6251 57.1146 10.5009 56.7714 10.374 56.332L10.2461 55.8584C7.99017 46.9151 14.4299 38.438 26.0918 32.2002C37.7712 25.9532 54.7718 21.896 73.8662 21.8018L75.7314 21.8047ZM47.625 115.634C47.9868 116.459 48.3917 117.242 48.9248 117.962L49.0996 118.19C50.9395 120.53 53.9274 122.194 56.6729 123.32L57.1855 123.526C68.0266 127.792 82.7928 127.68 93.4814 123.208L93.958 123.005C96.343 121.968 98.7664 120.602 100.456 118.665C101.183 117.789 101.705 116.886 102.078 115.835C90.914 121.072 79.3904 123.044 67.1143 121.494V121.495C62.6271 120.956 58.3016 119.931 54.2188 118.496H54.2178C51.9561 117.695 50.6097 117.096 49.6162 116.613C48.8066 116.219 48.2493 115.913 47.625 115.634ZM133.979 72.6611C127.468 79.6667 117.967 84.3555 107.712 87.3223C97.8829 90.1659 87.3477 91.434 78.0605 91.6436L76.2207 91.6719C56.0934 91.8259 32.9377 87.458 16.8428 75.123C17.6784 77.5956 18.5366 80.0357 19.5596 82.4375L19.8916 83.2031C21.4711 86.7756 23.4635 90.3663 25.6104 93.6328L26.0732 94.3271L26.0742 94.3291L26.4717 94.9199C34.8923 107.28 47.9016 116.09 62.915 119.144H62.9141C95.4511 125.534 122.576 106.767 133.145 75.335L133.631 73.9082C133.766 73.4943 133.886 73.0796 133.979 72.6611ZM136.371 63.0381C136.008 63.5021 135.621 63.9463 135.243 64.3838V64.3848C131.182 69.0607 125.174 72.5634 118.728 75.1621C112.681 77.5995 106.235 79.2475 100.615 80.3223L99.5029 80.5293C87.104 82.7821 72.2777 83.4143 58.2188 81.8682C44.6026 80.3707 31.6856 76.8276 22.3916 70.7158L21.5039 70.1162C19.4513 68.6939 17.3736 67.0999 15.6396 65.2793V65.2783C15.3737 65.0015 15.1173 64.7157 14.8672 64.4258L14.1309 63.5479C14.0154 63.407 13.8828 63.2299 13.7646 63.0791C14.4724 66.5693 15.1952 70.1111 16.3535 73.457C25.7767 81.3462 47.5623 90.4485 76.1523 90.3467L77.9727 90.3271C96.8364 90.0035 117.423 85.6345 131.558 73.4512L132.293 72.8145C133.025 72.1742 133.737 71.517 134.353 70.7861L134.428 70.6914C134.783 70.2098 134.874 69.6108 135.031 68.9551L135.037 68.9336H135.036C135.516 66.9793 136.092 65.0075 136.371 63.0381ZM73.8643 23.3252C58.8576 23.4942 43.1356 26.4568 31.1992 31.5576C25.231 34.1081 20.2193 37.1887 16.7158 40.7129C13.2137 44.2357 11.2277 48.1919 11.2793 52.502L11.293 52.9443C11.5079 57.5032 14.1481 61.6022 17.3789 64.7295L18.0312 65.3447C24.8675 71.6216 34.6851 75.5496 45.167 77.915C55.9822 80.3556 67.4826 81.1263 77.0947 81.1104C85.7805 80.9923 94.149 80.0386 102.088 78.4336L103.929 78.0459C106.06 77.5836 108.842 76.9427 110.275 76.5293L110.993 76.3174C118.463 74.0709 127.489 70.0559 132.917 64.5713L133.528 63.9326C136.434 60.7927 138.595 56.906 138.704 52.583L138.708 52.1338C138.679 48.1506 136.761 44.3329 133.344 40.8447C129.926 37.3561 125.018 34.2088 119.04 31.5752C107.457 26.4729 91.8898 23.3127 75.457 23.3154L73.8643 23.3252Z" fill="#663366" stroke="#663366" stroke-width="0.4"/>
<mask id="path-2-outside-1_323_293" maskUnits="userSpaceOnUse" x="11.4697" y="22.6055" width="127" height="59" fill="black">
<rect fill="white" x="11.4697" y="22.6055" width="127" height="59"/>
<path d="M74.093 23.6055C37.8984 23.9764 12.171 37.6575 12.4723 52.5105C12.5745 57.5152 15.3913 61.4663 18.8856 64.7885C31.7496 77.0181 56.9449 80.2924 76.0557 80.2594C85.5437 80.2433 95.0854 79.195 104.493 77.0931C109.315 76.0019 111.266 75.5235 116.76 73.3893C120.894 71.782 125.006 69.7983 128.544 67.0891C129.694 66.2128 130.753 65.2237 131.769 64.1969C135.048 60.8963 137.446 56.9828 137.419 52.193C137.311 30.5886 95.6548 25.3793 74.093 23.6055ZM113.223 73.5232C104.52 76.6572 95.4291 77.9797 86.2473 78.6999C76.8077 79.4364 67.0938 79.4257 57.6919 78.2376C56.0254 78.028 54.3696 77.7001 52.714 77.4152C42.0648 75.5928 28.3462 71.7492 20.3038 64.449C19.9491 62.4708 19.9007 60.6807 20.5619 58.7509C22.8734 52.0528 31.1842 47.618 37.1612 44.736C36.4516 45.8057 35.4948 46.7788 34.8765 47.8915C35.0647 48.4829 35.4517 49.6332 35.9409 49.9934C35.957 50.0041 35.9785 50.0202 35.9946 50.031C35.3764 50.2783 34.6937 50.3589 34.0432 50.4664C31.9468 50.8212 29.5061 51.1276 28.1085 52.9393C27.4903 53.7402 26.9796 55.2615 27.1409 56.2668C27.1731 56.4765 27.2968 56.6754 27.4795 56.7829C27.5709 56.8366 27.5978 56.8044 27.6892 56.7775C28.6622 55.654 26.6732 53.1113 33.7099 51.6384C34.9033 51.3911 36.1021 51.1653 37.2794 50.8266C37.9191 51.0524 38.5427 51.3803 39.1556 51.6706C41.5478 52.7995 43.7302 53.9069 46.4343 54.0413C45.4075 54.5681 44.3539 55.0466 43.2841 55.4767C40.0103 56.7883 36.371 57.9978 34.8604 61.5296C34.1669 63.1584 34.296 64.9001 34.9464 66.5236C36.5806 70.5983 40.7576 72.6679 44.8537 73.4044C47.0416 73.7969 49.2027 73.8721 51.3099 74.6677C52.0732 74.958 52.8956 75.3289 53.5247 75.8557C54.1805 76.4094 54.7665 77.3664 55.5728 77.6834C57.0189 78.2479 61.6742 76.1352 63.174 75.5332C64.6846 76.189 66.2542 77.0491 67.8938 77.3233C68.3615 77.4039 69.1732 77.4362 69.5711 77.1513L69.5388 76.9255C69.0658 76.5223 67.9315 76.4202 67.3186 76.2159C65.9103 75.7375 64.6899 74.9096 63.3137 74.4043C61.4269 75.0655 58.4058 76.8986 56.4383 76.6299C55.7394 76.5331 54.7772 75.1677 54.1805 74.6838C53.7128 74.3075 53.1914 74.028 52.6377 73.7968C49.7241 72.5497 46.6277 72.6733 43.5959 71.9799C40.7253 71.3241 38.2471 69.8781 36.6828 67.3299C35.8818 66.029 35.3658 64.2981 35.7367 62.7768C36.6398 59.0729 40.6339 57.8527 43.7249 56.5518C48.848 54.4015 49.8263 53.0684 52.4819 51.1653L55.5298 49.0204C55.9545 48.714 56.4598 48.4076 56.8415 48.0528C56.9436 47.9561 57.0243 47.7948 57.0404 47.655C57.0565 47.4938 57.0081 47.4346 56.9168 47.3217C56.4383 47.2626 55.7072 47.9722 55.2933 48.2356C54.2182 48.9183 53.1 49.5419 52.0678 50.2837C51.0196 51.0363 50.0411 51.8965 48.9607 52.6007C48.9768 52.5738 49.0252 52.4824 49.0306 52.4663C49.4392 51.6868 50.0466 50.9934 50.5466 50.2676C51.3852 49.0473 52.127 47.5421 52.5894 46.1283C52.713 45.7574 52.8313 45.2575 52.627 44.8919C52.3098 44.3221 51.5304 44.5855 51.0196 44.4027C49.9338 44.0103 48.4931 43.3222 46.9986 42.3814C47.8103 42.1449 48.6759 41.9944 49.5036 41.8062C51.7937 41.2955 54.0783 40.8601 56.3899 40.4462C56.4329 40.4354 56.5135 40.4462 56.5565 40.4462C56.5726 40.672 55.3577 42.7792 55.2502 43.5748C55.2018 43.9242 55.2502 44.2682 55.4814 44.5424C56.8844 46.2088 60.3194 44.5531 62.1526 44.795C63.2976 44.9455 64.3351 45.4132 65.0501 46.3432C63.8621 46.8055 62.6687 47.2624 61.5183 47.8108C61.0775 48.0204 60.0937 48.3913 59.9217 48.859C59.954 49.0848 60.1367 49.2245 60.2926 49.3805C63.4857 47.714 69.5065 45.7519 73.0814 45.5745C74.3393 45.51 75.5435 45.6767 76.7744 45.9024C76.8389 46.354 76.9572 46.7948 77.0701 47.2356C75.4951 47.2571 73.9145 47.3001 72.3342 47.284C70.7699 47.2679 69.1464 47.1818 67.5821 47.3324C67.3241 47.3592 66.98 47.37 66.8241 47.6011C66.7112 47.7678 66.6898 48.1011 66.7758 48.2731C66.8994 48.5257 67.2166 48.6279 67.4746 48.6709C68.0713 48.7677 68.7594 48.7031 69.3668 48.6978C71.3397 48.6816 73.3233 48.5795 75.2962 48.4935C75.823 48.472 76.8497 48.2946 77.3336 48.4935L77.3443 48.5903C76.3875 49.6439 72.8342 49.8804 72.2536 50.5631C72.1891 50.6384 72.1461 50.7566 72.1999 50.8534C72.2644 50.9771 72.3934 51.0416 72.517 51.09C73.8395 51.5415 77.5217 49.6117 78.8496 49.015C79.027 49.0526 79.113 49.0956 79.2313 49.23C79.5807 49.6332 79.7903 50.7674 79.6237 51.2728C79.5001 51.6491 79.2044 51.9662 79.1883 52.3802C79.1829 52.6006 79.2528 52.7887 79.4087 52.9446C80.2849 53.8262 83.419 54.3208 84.7038 54.3746C86.4401 56.2184 88.5312 57.1915 90.7729 58.2504C91.7083 58.6912 92.6276 59.1589 93.5682 59.5836C94.4713 59.9921 95.869 60.7071 96.8527 60.3039C97.2881 60.1265 97.6214 59.7502 97.7988 59.3256C98.331 58.0515 97.2666 56.2131 96.7613 55.0626C97.487 55.2077 98.2827 55.2723 99.0244 55.2292C99.9598 55.1755 101.271 54.8906 101.89 54.1326C101.986 54.009 102.051 53.8316 102.008 53.6757C101.949 53.4553 101.782 53.3854 101.615 53.2671C101.986 53.251 102.4 53.509 102.771 53.5789C104.131 53.8369 105.76 53.6972 107.099 53.3854C109.905 52.7295 112.593 50.9985 114.178 48.5688C114.684 47.8001 114.974 46.9346 115.468 46.1712C116.694 46.8969 117.952 47.5581 119.156 48.3161C123.731 51.1975 128.316 54.8207 130.235 60.0727C130.617 61.1156 130.794 62.2445 131.042 63.3304C126.252 68.3566 119.662 71.2004 113.222 73.5226L113.223 73.5232ZM37.3617 46.1347C38.4046 44.6134 39.7915 41.9041 41.2967 40.872C41.7913 40.9042 42.3396 41.0924 42.8127 41.2321C43.5599 41.4579 44.3555 41.6945 45.0436 42.0654C46.9788 43.1029 47.3874 44.0275 51.8224 45.6939C51.2902 46.6669 50.9192 47.7206 50.3816 48.6989C49.5484 50.2203 48.3927 51.6233 47.3337 52.9941L46.6564 53.1177C45.0706 53.193 43.5224 52.6178 42.0764 52.0318C40.9905 51.591 37.3619 50.0105 36.6792 49.3494C36.3244 49.0054 36.1255 48.5269 35.9373 48.0808C36.3512 47.4034 36.9155 46.7906 37.3617 46.1347ZM79.7381 48.8548C80.7218 48.6183 81.6088 48.285 82.5333 47.8926C82.7484 48.0969 82.9096 50.0536 83.001 50.489C83.216 51.5158 83.6192 52.4027 84.0761 53.3381C83.2268 53.2628 82.3828 53.0102 81.5604 52.7844C81.0927 52.6339 80.6519 52.4672 80.2057 52.2522C80.2487 52.1071 80.2863 51.9619 80.324 51.8168C80.5659 50.7417 80.3186 49.7686 79.7381 48.8548ZM84.0279 50.4299C83.8773 49.5644 83.8773 48.6775 83.6569 47.8281L83.6301 47.7206C84.0386 47.6561 84.4579 47.6238 84.8718 47.5862C88.0328 47.355 90.9248 48.7903 93.0321 51.2578C94.3115 52.7792 96.7467 56.5797 96.8972 58.5042C96.9133 58.7031 96.8488 58.9342 96.6983 59.074C96.494 59.2675 96.1554 59.2406 95.8973 59.2406C94.9996 58.9933 94.1503 58.5203 93.3009 58.144C91.4679 57.3269 89.5379 56.5582 87.8231 55.5207C85.8879 54.3434 84.4202 52.7145 84.0279 50.4299ZM94.4351 48.9193L93.2095 48.4785C92.3225 48.1882 91.4517 47.8334 90.5807 47.5108C91.2688 47.0109 91.8816 46.5647 92.3494 45.8391C92.7848 46.382 92.6612 46.769 94.4351 48.9193ZM92.8117 44.4145C92.8869 44.4414 92.8977 44.4468 92.9729 44.4898C94.8222 45.5703 96.5961 47.8334 97.1122 49.9138C95.478 49.2902 93.3116 46.3713 92.8117 44.4145ZM91.9032 44.6457C91.5161 45.8659 90.0594 46.5701 89.0273 47.1346C88.0973 46.8658 87.1888 46.6185 86.2211 46.5057C85.4148 46.468 84.603 46.468 83.7967 46.554C84.3827 46.0487 84.9632 45.5327 85.5277 45.0005C86.4845 44.8338 87.6779 44.3661 90.2207 44.1404C90.5808 44.1135 90.9464 44.0759 91.3065 44.092C91.5753 44.1081 91.7205 44.1511 91.9032 44.3554C91.9194 44.4629 91.9301 44.5489 91.9032 44.6457ZM95.0909 52.3113C94.3652 51.2523 93.5857 50.2524 92.6397 49.387C95.3275 49.8869 98.354 51.5211 100.381 53.3166C100.526 53.4456 100.606 53.494 100.623 53.6929L100.44 53.8434C98.9292 54.3111 97.4779 54.2896 96.0102 53.6607C95.6769 53.2468 95.3973 52.7575 95.0909 52.3113ZM99.7677 51.2953C100.993 49.9837 102.472 49.4299 104.117 48.8118C106.24 49.2364 108.385 50.8061 110.546 50.8007C109.143 51.763 107.734 52.3005 106.052 52.5531C104.063 52.9187 101.488 52.3113 99.7677 51.2953ZM107.6 49.2956C107.003 49.0107 106.412 48.715 105.826 48.4033C106.691 48.0861 107.584 47.8388 108.444 47.5055C110.567 46.6831 113.502 45.2155 115.018 43.5276C115.056 43.576 115.045 43.6566 115.04 43.7157C114.981 44.1673 114.776 44.6618 114.626 45.0919C113.868 47.2906 112.691 49.3549 110.718 50.6718C109.745 50.1182 108.616 49.7741 107.6 49.2956ZM112.519 44.1834C110.54 45.5542 108.202 46.6078 105.891 47.2852C104.654 47.6507 103.375 47.9088 102.187 48.4302C101.069 48.9194 100.122 49.6612 99.171 50.4084L99.1119 50.4299C99.0904 50.2955 99.1172 50.2687 99.1656 50.1504C100.359 47.3927 102.966 45.6026 105.837 44.9252C107.514 44.5328 109.256 44.4092 110.944 44.0275C111.89 43.8125 112.777 43.4846 113.68 43.1298L113.787 43.1513C113.589 43.5329 112.895 43.9254 112.519 44.1834ZM104.332 44.2103C103.966 44.4737 103.455 44.5974 103.047 44.7855C101.687 45.4145 100.714 46.2961 99.7785 47.4518C99.5258 47.7636 99.2946 48.0969 99.0635 48.4195C99.4237 47.2529 99.8483 46.1079 100.434 45.0329C101.02 43.9631 101.724 42.9471 102.235 41.8344C103.154 39.84 103.622 37.7327 104.246 35.6362C104.778 36.2759 105.67 38.91 105.762 39.7969C105.885 41.157 105.509 43.3609 104.332 44.2103ZM100.784 42.2267C100.171 42.3073 100.106 38.4798 99.4989 38.0444C99.3323 38.4261 99.3108 38.9905 99.2947 39.4044C99.2517 40.4742 99.4667 42.3772 100.209 43.1835C99.8322 43.7641 99.499 44.3662 99.1657 44.9683C98.2142 43.8931 97.7035 42.4041 96.9186 41.2053C97.0584 41.8235 97.2197 42.4363 97.3702 43.0491C97.6605 44.1403 98.112 45.0542 98.7839 45.952C98.499 46.7959 98.2033 47.6346 97.9023 48.4677C97.5207 47.7313 97.1444 46.9948 96.6283 46.3443C96.1176 45.7046 95.4242 45.1455 95.0425 44.4145C95.3973 43.1942 96.1284 41.9633 96.8488 40.9312C98.6981 38.2756 100.751 36.5285 103.66 35.0878L103.676 35.1846C103.015 36.9048 101.784 41.0655 100.784 42.2267ZM94.4565 42.9148L94.1555 43.6674C91.8493 42.0762 90.4678 40.8882 87.5273 40.8721C87.5757 40.6087 87.6026 40.3399 87.6348 40.0765C90.199 40.4904 92.7255 40.8291 95.2575 41.4366C94.9726 41.9204 94.7092 42.4095 94.4565 42.9148ZM91.1881 43.1513L89.57 43.2803C88.4519 43.4093 87.3822 43.576 86.2855 43.8555C86.7263 43.2212 87.022 42.603 87.2908 41.8773C88.8282 41.8235 89.9786 42.2375 91.1881 43.1513ZM86.006 42.3503C84.6836 45.2318 81.7216 46.7799 78.8993 47.8335L78.6037 47.9196L78.5499 47.8765C78.7972 47.2261 79.4262 46.6186 79.8616 46.0703C80.6088 45.1242 81.3506 44.1888 82.1785 43.318C84.4309 40.9419 85.7802 39.8615 86.1726 36.405C86.8553 38.2487 86.8285 40.5495 86.006 42.3503ZM80.5335 43.5384C79.5982 44.6242 78.8563 45.8445 78.0017 46.9841C77.9855 46.9358 77.9694 46.8874 77.9587 46.839C77.319 44.2694 79.1306 41.9096 80.9476 40.3237C81.6894 39.6732 82.5226 39.1303 83.2484 38.4529C84.0655 37.6842 84.7052 36.8886 85.2751 35.9264L85.3181 35.9909C85.1891 39.5173 82.5924 41.1408 80.5335 43.5384ZM79.496 40.2324C78.98 39.4852 78.3725 38.8078 77.808 38.0982C79.2218 38.066 80.7002 38.1197 82.0978 38.3294C81.4151 38.8669 81.0119 38.9906 79.496 40.2324ZM78.7811 40.9527C78.3403 41.5548 77.9102 42.1461 77.5447 42.802L76.9695 44.0438C76.2384 43.3288 75.4428 42.6784 74.7171 41.9527C72.2389 39.4691 70.6853 36.6093 70.1047 33.1421C70.2768 33.2818 70.4004 33.5237 70.5402 33.7011C70.9487 34.2387 71.3949 34.7924 71.9163 35.2171C73.3409 36.3836 75.0503 37.1523 76.4534 38.3457C77.3404 39.0929 78.0285 40.0765 78.7811 40.9527ZM76.19 44.6565L75.3192 44.5383C73.8677 44.3125 72.4324 44.4361 70.9811 44.6135C70.3683 43.904 69.8092 43.1567 69.3791 42.3181C67.8202 39.2916 68.2018 36.2006 69.1909 33.0665C69.406 33.3729 69.6371 35.0986 69.7446 35.6093C70.6262 39.7807 73.1636 41.9741 76.19 44.6565ZM68.5458 43.0062C68.949 43.6675 69.4274 44.2857 69.8467 44.9414C68.4759 45.2747 67.1482 45.6564 65.8096 46.0918C65.7182 45.9359 65.6268 45.78 65.514 45.6403C65.0732 45.0543 64.4872 44.6511 63.8259 44.3555C61.1811 43.1836 59.4825 44.7802 56.9989 44.4039C56.3807 44.3125 56.1872 44.0061 56.2947 43.447C56.542 42.1138 57.687 40.4527 58.2837 39.1787C58.6331 38.4315 58.8965 37.5659 59.3212 36.8671C59.4179 36.7112 59.5685 36.6145 59.719 36.5123C60.4554 36.5446 61.1651 36.8349 61.8585 37.0607C63.2024 37.5068 65.8526 38.4637 67.1697 38.4207C67.2396 39.9796 67.7341 41.6732 68.5458 43.0062ZM131.962 62.3854C131.844 61.7135 131.715 61.0469 131.522 60.3911C129.941 54.9563 125.071 50.516 120.356 47.6347C118.873 46.7262 117.303 46.0113 115.776 45.178C116.196 43.7857 116.346 42.6299 116.18 41.1786C116.147 40.9259 116.142 40.6625 115.927 40.4959C115.647 40.5281 114.572 41.4474 114.228 41.6785C112.965 42.5171 109.852 43.474 108.336 43.3665C107.681 43.3181 106.976 43.0601 106.321 42.9311C107.251 40.2916 106.638 38.7005 105.563 36.2598C105.283 35.6201 105.004 34.9697 105.014 34.2548C105.02 33.9161 105.143 33.5559 105.229 33.228C101.37 35.088 98.3324 36.6309 95.8918 40.3454C93.1448 39.867 90.3925 39.1735 87.608 38.9531C87.4789 37.3781 87.1134 35.6794 86.635 34.1741C86.5275 33.8355 86.3931 33.4108 86.0598 33.2334C85.8877 33.2495 85.791 33.2549 85.662 33.3839C85.2427 33.8194 85.0061 34.6257 84.7051 35.1579C84.4793 35.5504 84.2374 35.9266 83.9686 36.2922C83.7052 36.6577 83.4203 37.0072 83.1193 37.3405C82.7054 37.3082 82.2968 37.2652 81.8829 37.2222C80.0713 37.0179 78.2329 37.0018 76.4104 36.8835C74.7117 35.6848 72.712 34.7655 71.4111 33.0937C70.8789 32.411 70.2284 30.2984 69.6855 30.0081C69.5081 30.0027 69.3898 30.0296 69.2554 30.1532C68.6211 30.7177 67.6373 34.3838 67.4385 35.346C67.3041 35.9804 67.2073 36.6147 67.1751 37.2651C66.9117 37.3189 66.6106 37.4102 66.3418 37.4049C65.7882 37.3995 65.1968 37.163 64.6701 36.9963C63.5036 36.6254 60.219 35.3245 59.1493 35.7223C58.9397 35.7975 58.7354 35.9373 58.6064 36.1147C58.3161 36.5125 58.1817 37.1898 57.9882 37.6575C57.8 38.1198 57.5689 38.5714 57.3485 39.0229C56.4131 39.2595 55.4187 39.3455 54.467 39.5175C51.6287 40.0282 48.5269 40.555 45.8175 41.5226C44.9413 40.9689 42.248 39.8508 41.2966 39.9744C39.7269 40.1787 39.1678 42.3934 37.9422 43.1622C37.2917 43.5707 36.8348 43.5868 33.7814 45.0759C27.7929 48.0056 20.0789 53.5264 18.9285 60.0637C18.7511 61.0582 18.7618 62.0742 18.7457 63.0794C16.0309 60.1605 13.7624 56.8329 13.6119 52.699C12.9077 33.207 54.3699 25.3532 73.9004 24.7889C100.741 24.0148 135.737 35.1102 136.312 51.7852C136.441 55.5429 134.511 59.6708 131.962 62.3854Z"/>
</mask>
<path d="M74.093 23.6055C37.8984 23.9764 12.171 37.6575 12.4723 52.5105C12.5745 57.5152 15.3913 61.4663 18.8856 64.7885C31.7496 77.0181 56.9449 80.2924 76.0557 80.2594C85.5437 80.2433 95.0854 79.195 104.493 77.0931C109.315 76.0019 111.266 75.5235 116.76 73.3893C120.894 71.782 125.006 69.7983 128.544 67.0891C129.694 66.2128 130.753 65.2237 131.769 64.1969C135.048 60.8963 137.446 56.9828 137.419 52.193C137.311 30.5886 95.6548 25.3793 74.093 23.6055ZM113.223 73.5232C104.52 76.6572 95.4291 77.9797 86.2473 78.6999C76.8077 79.4364 67.0938 79.4257 57.6919 78.2376C56.0254 78.028 54.3696 77.7001 52.714 77.4152C42.0648 75.5928 28.3462 71.7492 20.3038 64.449C19.9491 62.4708 19.9007 60.6807 20.5619 58.7509C22.8734 52.0528 31.1842 47.618 37.1612 44.736C36.4516 45.8057 35.4948 46.7788 34.8765 47.8915C35.0647 48.4829 35.4517 49.6332 35.9409 49.9934C35.957 50.0041 35.9785 50.0202 35.9946 50.031C35.3764 50.2783 34.6937 50.3589 34.0432 50.4664C31.9468 50.8212 29.5061 51.1276 28.1085 52.9393C27.4903 53.7402 26.9796 55.2615 27.1409 56.2668C27.1731 56.4765 27.2968 56.6754 27.4795 56.7829C27.5709 56.8366 27.5978 56.8044 27.6892 56.7775C28.6622 55.654 26.6732 53.1113 33.7099 51.6384C34.9033 51.3911 36.1021 51.1653 37.2794 50.8266C37.9191 51.0524 38.5427 51.3803 39.1556 51.6706C41.5478 52.7995 43.7302 53.9069 46.4343 54.0413C45.4075 54.5681 44.3539 55.0466 43.2841 55.4767C40.0103 56.7883 36.371 57.9978 34.8604 61.5296C34.1669 63.1584 34.296 64.9001 34.9464 66.5236C36.5806 70.5983 40.7576 72.6679 44.8537 73.4044C47.0416 73.7969 49.2027 73.8721 51.3099 74.6677C52.0732 74.958 52.8956 75.3289 53.5247 75.8557C54.1805 76.4094 54.7665 77.3664 55.5728 77.6834C57.0189 78.2479 61.6742 76.1352 63.174 75.5332C64.6846 76.189 66.2542 77.0491 67.8938 77.3233C68.3615 77.4039 69.1732 77.4362 69.5711 77.1513L69.5388 76.9255C69.0658 76.5223 67.9315 76.4202 67.3186 76.2159C65.9103 75.7375 64.6899 74.9096 63.3137 74.4043C61.4269 75.0655 58.4058 76.8986 56.4383 76.6299C55.7394 76.5331 54.7772 75.1677 54.1805 74.6838C53.7128 74.3075 53.1914 74.028 52.6377 73.7968C49.7241 72.5497 46.6277 72.6733 43.5959 71.9799C40.7253 71.3241 38.2471 69.8781 36.6828 67.3299C35.8818 66.029 35.3658 64.2981 35.7367 62.7768C36.6398 59.0729 40.6339 57.8527 43.7249 56.5518C48.848 54.4015 49.8263 53.0684 52.4819 51.1653L55.5298 49.0204C55.9545 48.714 56.4598 48.4076 56.8415 48.0528C56.9436 47.9561 57.0243 47.7948 57.0404 47.655C57.0565 47.4938 57.0081 47.4346 56.9168 47.3217C56.4383 47.2626 55.7072 47.9722 55.2933 48.2356C54.2182 48.9183 53.1 49.5419 52.0678 50.2837C51.0196 51.0363 50.0411 51.8965 48.9607 52.6007C48.9768 52.5738 49.0252 52.4824 49.0306 52.4663C49.4392 51.6868 50.0466 50.9934 50.5466 50.2676C51.3852 49.0473 52.127 47.5421 52.5894 46.1283C52.713 45.7574 52.8313 45.2575 52.627 44.8919C52.3098 44.3221 51.5304 44.5855 51.0196 44.4027C49.9338 44.0103 48.4931 43.3222 46.9986 42.3814C47.8103 42.1449 48.6759 41.9944 49.5036 41.8062C51.7937 41.2955 54.0783 40.8601 56.3899 40.4462C56.4329 40.4354 56.5135 40.4462 56.5565 40.4462C56.5726 40.672 55.3577 42.7792 55.2502 43.5748C55.2018 43.9242 55.2502 44.2682 55.4814 44.5424C56.8844 46.2088 60.3194 44.5531 62.1526 44.795C63.2976 44.9455 64.3351 45.4132 65.0501 46.3432C63.8621 46.8055 62.6687 47.2624 61.5183 47.8108C61.0775 48.0204 60.0937 48.3913 59.9217 48.859C59.954 49.0848 60.1367 49.2245 60.2926 49.3805C63.4857 47.714 69.5065 45.7519 73.0814 45.5745C74.3393 45.51 75.5435 45.6767 76.7744 45.9024C76.8389 46.354 76.9572 46.7948 77.0701 47.2356C75.4951 47.2571 73.9145 47.3001 72.3342 47.284C70.7699 47.2679 69.1464 47.1818 67.5821 47.3324C67.3241 47.3592 66.98 47.37 66.8241 47.6011C66.7112 47.7678 66.6898 48.1011 66.7758 48.2731C66.8994 48.5257 67.2166 48.6279 67.4746 48.6709C68.0713 48.7677 68.7594 48.7031 69.3668 48.6978C71.3397 48.6816 73.3233 48.5795 75.2962 48.4935C75.823 48.472 76.8497 48.2946 77.3336 48.4935L77.3443 48.5903C76.3875 49.6439 72.8342 49.8804 72.2536 50.5631C72.1891 50.6384 72.1461 50.7566 72.1999 50.8534C72.2644 50.9771 72.3934 51.0416 72.517 51.09C73.8395 51.5415 77.5217 49.6117 78.8496 49.015C79.027 49.0526 79.113 49.0956 79.2313 49.23C79.5807 49.6332 79.7903 50.7674 79.6237 51.2728C79.5001 51.6491 79.2044 51.9662 79.1883 52.3802C79.1829 52.6006 79.2528 52.7887 79.4087 52.9446C80.2849 53.8262 83.419 54.3208 84.7038 54.3746C86.4401 56.2184 88.5312 57.1915 90.7729 58.2504C91.7083 58.6912 92.6276 59.1589 93.5682 59.5836C94.4713 59.9921 95.869 60.7071 96.8527 60.3039C97.2881 60.1265 97.6214 59.7502 97.7988 59.3256C98.331 58.0515 97.2666 56.2131 96.7613 55.0626C97.487 55.2077 98.2827 55.2723 99.0244 55.2292C99.9598 55.1755 101.271 54.8906 101.89 54.1326C101.986 54.009 102.051 53.8316 102.008 53.6757C101.949 53.4553 101.782 53.3854 101.615 53.2671C101.986 53.251 102.4 53.509 102.771 53.5789C104.131 53.8369 105.76 53.6972 107.099 53.3854C109.905 52.7295 112.593 50.9985 114.178 48.5688C114.684 47.8001 114.974 46.9346 115.468 46.1712C116.694 46.8969 117.952 47.5581 119.156 48.3161C123.731 51.1975 128.316 54.8207 130.235 60.0727C130.617 61.1156 130.794 62.2445 131.042 63.3304C126.252 68.3566 119.662 71.2004 113.222 73.5226L113.223 73.5232ZM37.3617 46.1347C38.4046 44.6134 39.7915 41.9041 41.2967 40.872C41.7913 40.9042 42.3396 41.0924 42.8127 41.2321C43.5599 41.4579 44.3555 41.6945 45.0436 42.0654C46.9788 43.1029 47.3874 44.0275 51.8224 45.6939C51.2902 46.6669 50.9192 47.7206 50.3816 48.6989C49.5484 50.2203 48.3927 51.6233 47.3337 52.9941L46.6564 53.1177C45.0706 53.193 43.5224 52.6178 42.0764 52.0318C40.9905 51.591 37.3619 50.0105 36.6792 49.3494C36.3244 49.0054 36.1255 48.5269 35.9373 48.0808C36.3512 47.4034 36.9155 46.7906 37.3617 46.1347ZM79.7381 48.8548C80.7218 48.6183 81.6088 48.285 82.5333 47.8926C82.7484 48.0969 82.9096 50.0536 83.001 50.489C83.216 51.5158 83.6192 52.4027 84.0761 53.3381C83.2268 53.2628 82.3828 53.0102 81.5604 52.7844C81.0927 52.6339 80.6519 52.4672 80.2057 52.2522C80.2487 52.1071 80.2863 51.9619 80.324 51.8168C80.5659 50.7417 80.3186 49.7686 79.7381 48.8548ZM84.0279 50.4299C83.8773 49.5644 83.8773 48.6775 83.6569 47.8281L83.6301 47.7206C84.0386 47.6561 84.4579 47.6238 84.8718 47.5862C88.0328 47.355 90.9248 48.7903 93.0321 51.2578C94.3115 52.7792 96.7467 56.5797 96.8972 58.5042C96.9133 58.7031 96.8488 58.9342 96.6983 59.074C96.494 59.2675 96.1554 59.2406 95.8973 59.2406C94.9996 58.9933 94.1503 58.5203 93.3009 58.144C91.4679 57.3269 89.5379 56.5582 87.8231 55.5207C85.8879 54.3434 84.4202 52.7145 84.0279 50.4299ZM94.4351 48.9193L93.2095 48.4785C92.3225 48.1882 91.4517 47.8334 90.5807 47.5108C91.2688 47.0109 91.8816 46.5647 92.3494 45.8391C92.7848 46.382 92.6612 46.769 94.4351 48.9193ZM92.8117 44.4145C92.8869 44.4414 92.8977 44.4468 92.9729 44.4898C94.8222 45.5703 96.5961 47.8334 97.1122 49.9138C95.478 49.2902 93.3116 46.3713 92.8117 44.4145ZM91.9032 44.6457C91.5161 45.8659 90.0594 46.5701 89.0273 47.1346C88.0973 46.8658 87.1888 46.6185 86.2211 46.5057C85.4148 46.468 84.603 46.468 83.7967 46.554C84.3827 46.0487 84.9632 45.5327 85.5277 45.0005C86.4845 44.8338 87.6779 44.3661 90.2207 44.1404C90.5808 44.1135 90.9464 44.0759 91.3065 44.092C91.5753 44.1081 91.7205 44.1511 91.9032 44.3554C91.9194 44.4629 91.9301 44.5489 91.9032 44.6457ZM95.0909 52.3113C94.3652 51.2523 93.5857 50.2524 92.6397 49.387C95.3275 49.8869 98.354 51.5211 100.381 53.3166C100.526 53.4456 100.606 53.494 100.623 53.6929L100.44 53.8434C98.9292 54.3111 97.4779 54.2896 96.0102 53.6607C95.6769 53.2468 95.3973 52.7575 95.0909 52.3113ZM99.7677 51.2953C100.993 49.9837 102.472 49.4299 104.117 48.8118C106.24 49.2364 108.385 50.8061 110.546 50.8007C109.143 51.763 107.734 52.3005 106.052 52.5531C104.063 52.9187 101.488 52.3113 99.7677 51.2953ZM107.6 49.2956C107.003 49.0107 106.412 48.715 105.826 48.4033C106.691 48.0861 107.584 47.8388 108.444 47.5055C110.567 46.6831 113.502 45.2155 115.018 43.5276C115.056 43.576 115.045 43.6566 115.04 43.7157C114.981 44.1673 114.776 44.6618 114.626 45.0919C113.868 47.2906 112.691 49.3549 110.718 50.6718C109.745 50.1182 108.616 49.7741 107.6 49.2956ZM112.519 44.1834C110.54 45.5542 108.202 46.6078 105.891 47.2852C104.654 47.6507 103.375 47.9088 102.187 48.4302C101.069 48.9194 100.122 49.6612 99.171 50.4084L99.1119 50.4299C99.0904 50.2955 99.1172 50.2687 99.1656 50.1504C100.359 47.3927 102.966 45.6026 105.837 44.9252C107.514 44.5328 109.256 44.4092 110.944 44.0275C111.89 43.8125 112.777 43.4846 113.68 43.1298L113.787 43.1513C113.589 43.5329 112.895 43.9254 112.519 44.1834ZM104.332 44.2103C103.966 44.4737 103.455 44.5974 103.047 44.7855C101.687 45.4145 100.714 46.2961 99.7785 47.4518C99.5258 47.7636 99.2946 48.0969 99.0635 48.4195C99.4237 47.2529 99.8483 46.1079 100.434 45.0329C101.02 43.9631 101.724 42.9471 102.235 41.8344C103.154 39.84 103.622 37.7327 104.246 35.6362C104.778 36.2759 105.67 38.91 105.762 39.7969C105.885 41.157 105.509 43.3609 104.332 44.2103ZM100.784 42.2267C100.171 42.3073 100.106 38.4798 99.4989 38.0444C99.3323 38.4261 99.3108 38.9905 99.2947 39.4044C99.2517 40.4742 99.4667 42.3772 100.209 43.1835C99.8322 43.7641 99.499 44.3662 99.1657 44.9683C98.2142 43.8931 97.7035 42.4041 96.9186 41.2053C97.0584 41.8235 97.2197 42.4363 97.3702 43.0491C97.6605 44.1403 98.112 45.0542 98.7839 45.952C98.499 46.7959 98.2033 47.6346 97.9023 48.4677C97.5207 47.7313 97.1444 46.9948 96.6283 46.3443C96.1176 45.7046 95.4242 45.1455 95.0425 44.4145C95.3973 43.1942 96.1284 41.9633 96.8488 40.9312C98.6981 38.2756 100.751 36.5285 103.66 35.0878L103.676 35.1846C103.015 36.9048 101.784 41.0655 100.784 42.2267ZM94.4565 42.9148L94.1555 43.6674C91.8493 42.0762 90.4678 40.8882 87.5273 40.8721C87.5757 40.6087 87.6026 40.3399 87.6348 40.0765C90.199 40.4904 92.7255 40.8291 95.2575 41.4366C94.9726 41.9204 94.7092 42.4095 94.4565 42.9148ZM91.1881 43.1513L89.57 43.2803C88.4519 43.4093 87.3822 43.576 86.2855 43.8555C86.7263 43.2212 87.022 42.603 87.2908 41.8773C88.8282 41.8235 89.9786 42.2375 91.1881 43.1513ZM86.006 42.3503C84.6836 45.2318 81.7216 46.7799 78.8993 47.8335L78.6037 47.9196L78.5499 47.8765C78.7972 47.2261 79.4262 46.6186 79.8616 46.0703C80.6088 45.1242 81.3506 44.1888 82.1785 43.318C84.4309 40.9419 85.7802 39.8615 86.1726 36.405C86.8553 38.2487 86.8285 40.5495 86.006 42.3503ZM80.5335 43.5384C79.5982 44.6242 78.8563 45.8445 78.0017 46.9841C77.9855 46.9358 77.9694 46.8874 77.9587 46.839C77.319 44.2694 79.1306 41.9096 80.9476 40.3237C81.6894 39.6732 82.5226 39.1303 83.2484 38.4529C84.0655 37.6842 84.7052 36.8886 85.2751 35.9264L85.3181 35.9909C85.1891 39.5173 82.5924 41.1408 80.5335 43.5384ZM79.496 40.2324C78.98 39.4852 78.3725 38.8078 77.808 38.0982C79.2218 38.066 80.7002 38.1197 82.0978 38.3294C81.4151 38.8669 81.0119 38.9906 79.496 40.2324ZM78.7811 40.9527C78.3403 41.5548 77.9102 42.1461 77.5447 42.802L76.9695 44.0438C76.2384 43.3288 75.4428 42.6784 74.7171 41.9527C72.2389 39.4691 70.6853 36.6093 70.1047 33.1421C70.2768 33.2818 70.4004 33.5237 70.5402 33.7011C70.9487 34.2387 71.3949 34.7924 71.9163 35.2171C73.3409 36.3836 75.0503 37.1523 76.4534 38.3457C77.3404 39.0929 78.0285 40.0765 78.7811 40.9527ZM76.19 44.6565L75.3192 44.5383C73.8677 44.3125 72.4324 44.4361 70.9811 44.6135C70.3683 43.904 69.8092 43.1567 69.3791 42.3181C67.8202 39.2916 68.2018 36.2006 69.1909 33.0665C69.406 33.3729 69.6371 35.0986 69.7446 35.6093C70.6262 39.7807 73.1636 41.9741 76.19 44.6565ZM68.5458 43.0062C68.949 43.6675 69.4274 44.2857 69.8467 44.9414C68.4759 45.2747 67.1482 45.6564 65.8096 46.0918C65.7182 45.9359 65.6268 45.78 65.514 45.6403C65.0732 45.0543 64.4872 44.6511 63.8259 44.3555C61.1811 43.1836 59.4825 44.7802 56.9989 44.4039C56.3807 44.3125 56.1872 44.0061 56.2947 43.447C56.542 42.1138 57.687 40.4527 58.2837 39.1787C58.6331 38.4315 58.8965 37.5659 59.3212 36.8671C59.4179 36.7112 59.5685 36.6145 59.719 36.5123C60.4554 36.5446 61.1651 36.8349 61.8585 37.0607C63.2024 37.5068 65.8526 38.4637 67.1697 38.4207C67.2396 39.9796 67.7341 41.6732 68.5458 43.0062ZM131.962 62.3854C131.844 61.7135 131.715 61.0469 131.522 60.3911C129.941 54.9563 125.071 50.516 120.356 47.6347C118.873 46.7262 117.303 46.0113 115.776 45.178C116.196 43.7857 116.346 42.6299 116.18 41.1786C116.147 40.9259 116.142 40.6625 115.927 40.4959C115.647 40.5281 114.572 41.4474 114.228 41.6785C112.965 42.5171 109.852 43.474 108.336 43.3665C107.681 43.3181 106.976 43.0601 106.321 42.9311C107.251 40.2916 106.638 38.7005 105.563 36.2598C105.283 35.6201 105.004 34.9697 105.014 34.2548C105.02 33.9161 105.143 33.5559 105.229 33.228C101.37 35.088 98.3324 36.6309 95.8918 40.3454C93.1448 39.867 90.3925 39.1735 87.608 38.9531C87.4789 37.3781 87.1134 35.6794 86.635 34.1741C86.5275 33.8355 86.3931 33.4108 86.0598 33.2334C85.8877 33.2495 85.791 33.2549 85.662 33.3839C85.2427 33.8194 85.0061 34.6257 84.7051 35.1579C84.4793 35.5504 84.2374 35.9266 83.9686 36.2922C83.7052 36.6577 83.4203 37.0072 83.1193 37.3405C82.7054 37.3082 82.2968 37.2652 81.8829 37.2222C80.0713 37.0179 78.2329 37.0018 76.4104 36.8835C74.7117 35.6848 72.712 34.7655 71.4111 33.0937C70.8789 32.411 70.2284 30.2984 69.6855 30.0081C69.5081 30.0027 69.3898 30.0296 69.2554 30.1532C68.6211 30.7177 67.6373 34.3838 67.4385 35.346C67.3041 35.9804 67.2073 36.6147 67.1751 37.2651C66.9117 37.3189 66.6106 37.4102 66.3418 37.4049C65.7882 37.3995 65.1968 37.163 64.6701 36.9963C63.5036 36.6254 60.219 35.3245 59.1493 35.7223C58.9397 35.7975 58.7354 35.9373 58.6064 36.1147C58.3161 36.5125 58.1817 37.1898 57.9882 37.6575C57.8 38.1198 57.5689 38.5714 57.3485 39.0229C56.4131 39.2595 55.4187 39.3455 54.467 39.5175C51.6287 40.0282 48.5269 40.555 45.8175 41.5226C44.9413 40.9689 42.248 39.8508 41.2966 39.9744C39.7269 40.1787 39.1678 42.3934 37.9422 43.1622C37.2917 43.5707 36.8348 43.5868 33.7814 45.0759C27.7929 48.0056 20.0789 53.5264 18.9285 60.0637C18.7511 61.0582 18.7618 62.0742 18.7457 63.0794C16.0309 60.1605 13.7624 56.8329 13.6119 52.699C12.9077 33.207 54.3699 25.3532 73.9004 24.7889C100.741 24.0148 135.737 35.1102 136.312 51.7852C136.441 55.5429 134.511 59.6708 131.962 62.3854Z" fill="#663366"/>
<path d="M74.093 23.6055C37.8984 23.9764 12.171 37.6575 12.4723 52.5105C12.5745 57.5152 15.3913 61.4663 18.8856 64.7885C31.7496 77.0181 56.9449 80.2924 76.0557 80.2594C85.5437 80.2433 95.0854 79.195 104.493 77.0931C109.315 76.0019 111.266 75.5235 116.76 73.3893C120.894 71.782 125.006 69.7983 128.544 67.0891C129.694 66.2128 130.753 65.2237 131.769 64.1969C135.048 60.8963 137.446 56.9828 137.419 52.193C137.311 30.5886 95.6548 25.3793 74.093 23.6055ZM113.223 73.5232C104.52 76.6572 95.4291 77.9797 86.2473 78.6999C76.8077 79.4364 67.0938 79.4257 57.6919 78.2376C56.0254 78.028 54.3696 77.7001 52.714 77.4152C42.0648 75.5928 28.3462 71.7492 20.3038 64.449C19.9491 62.4708 19.9007 60.6807 20.5619 58.7509C22.8734 52.0528 31.1842 47.618 37.1612 44.736C36.4516 45.8057 35.4948 46.7788 34.8765 47.8915C35.0647 48.4829 35.4517 49.6332 35.9409 49.9934C35.957 50.0041 35.9785 50.0202 35.9946 50.031C35.3764 50.2783 34.6937 50.3589 34.0432 50.4664C31.9468 50.8212 29.5061 51.1276 28.1085 52.9393C27.4903 53.7402 26.9796 55.2615 27.1409 56.2668C27.1731 56.4765 27.2968 56.6754 27.4795 56.7829C27.5709 56.8366 27.5978 56.8044 27.6892 56.7775C28.6622 55.654 26.6732 53.1113 33.7099 51.6384C34.9033 51.3911 36.1021 51.1653 37.2794 50.8266C37.9191 51.0524 38.5427 51.3803 39.1556 51.6706C41.5478 52.7995 43.7302 53.9069 46.4343 54.0413C45.4075 54.5681 44.3539 55.0466 43.2841 55.4767C40.0103 56.7883 36.371 57.9978 34.8604 61.5296C34.1669 63.1584 34.296 64.9001 34.9464 66.5236C36.5806 70.5983 40.7576 72.6679 44.8537 73.4044C47.0416 73.7969 49.2027 73.8721 51.3099 74.6677C52.0732 74.958 52.8956 75.3289 53.5247 75.8557C54.1805 76.4094 54.7665 77.3664 55.5728 77.6834C57.0189 78.2479 61.6742 76.1352 63.174 75.5332C64.6846 76.189 66.2542 77.0491 67.8938 77.3233C68.3615 77.4039 69.1732 77.4362 69.5711 77.1513L69.5388 76.9255C69.0658 76.5223 67.9315 76.4202 67.3186 76.2159C65.9103 75.7375 64.6899 74.9096 63.3137 74.4043C61.4269 75.0655 58.4058 76.8986 56.4383 76.6299C55.7394 76.5331 54.7772 75.1677 54.1805 74.6838C53.7128 74.3075 53.1914 74.028 52.6377 73.7968C49.7241 72.5497 46.6277 72.6733 43.5959 71.9799C40.7253 71.3241 38.2471 69.8781 36.6828 67.3299C35.8818 66.029 35.3658 64.2981 35.7367 62.7768C36.6398 59.0729 40.6339 57.8527 43.7249 56.5518C48.848 54.4015 49.8263 53.0684 52.4819 51.1653L55.5298 49.0204C55.9545 48.714 56.4598 48.4076 56.8415 48.0528C56.9436 47.9561 57.0243 47.7948 57.0404 47.655C57.0565 47.4938 57.0081 47.4346 56.9168 47.3217C56.4383 47.2626 55.7072 47.9722 55.2933 48.2356C54.2182 48.9183 53.1 49.5419 52.0678 50.2837C51.0196 51.0363 50.0411 51.8965 48.9607 52.6007C48.9768 52.5738 49.0252 52.4824 49.0306 52.4663C49.4392 51.6868 50.0466 50.9934 50.5466 50.2676C51.3852 49.0473 52.127 47.5421 52.5894 46.1283C52.713 45.7574 52.8313 45.2575 52.627 44.8919C52.3098 44.3221 51.5304 44.5855 51.0196 44.4027C49.9338 44.0103 48.4931 43.3222 46.9986 42.3814C47.8103 42.1449 48.6759 41.9944 49.5036 41.8062C51.7937 41.2955 54.0783 40.8601 56.3899 40.4462C56.4329 40.4354 56.5135 40.4462 56.5565 40.4462C56.5726 40.672 55.3577 42.7792 55.2502 43.5748C55.2018 43.9242 55.2502 44.2682 55.4814 44.5424C56.8844 46.2088 60.3194 44.5531 62.1526 44.795C63.2976 44.9455 64.3351 45.4132 65.0501 46.3432C63.8621 46.8055 62.6687 47.2624 61.5183 47.8108C61.0775 48.0204 60.0937 48.3913 59.9217 48.859C59.954 49.0848 60.1367 49.2245 60.2926 49.3805C63.4857 47.714 69.5065 45.7519 73.0814 45.5745C74.3393 45.51 75.5435 45.6767 76.7744 45.9024C76.8389 46.354 76.9572 46.7948 77.0701 47.2356C75.4951 47.2571 73.9145 47.3001 72.3342 47.284C70.7699 47.2679 69.1464 47.1818 67.5821 47.3324C67.3241 47.3592 66.98 47.37 66.8241 47.6011C66.7112 47.7678 66.6898 48.1011 66.7758 48.2731C66.8994 48.5257 67.2166 48.6279 67.4746 48.6709C68.0713 48.7677 68.7594 48.7031 69.3668 48.6978C71.3397 48.6816 73.3233 48.5795 75.2962 48.4935C75.823 48.472 76.8497 48.2946 77.3336 48.4935L77.3443 48.5903C76.3875 49.6439 72.8342 49.8804 72.2536 50.5631C72.1891 50.6384 72.1461 50.7566 72.1999 50.8534C72.2644 50.9771 72.3934 51.0416 72.517 51.09C73.8395 51.5415 77.5217 49.6117 78.8496 49.015C79.027 49.0526 79.113 49.0956 79.2313 49.23C79.5807 49.6332 79.7903 50.7674 79.6237 51.2728C79.5001 51.6491 79.2044 51.9662 79.1883 52.3802C79.1829 52.6006 79.2528 52.7887 79.4087 52.9446C80.2849 53.8262 83.419 54.3208 84.7038 54.3746C86.4401 56.2184 88.5312 57.1915 90.7729 58.2504C91.7083 58.6912 92.6276 59.1589 93.5682 59.5836C94.4713 59.9921 95.869 60.7071 96.8527 60.3039C97.2881 60.1265 97.6214 59.7502 97.7988 59.3256C98.331 58.0515 97.2666 56.2131 96.7613 55.0626C97.487 55.2077 98.2827 55.2723 99.0244 55.2292C99.9598 55.1755 101.271 54.8906 101.89 54.1326C101.986 54.009 102.051 53.8316 102.008 53.6757C101.949 53.4553 101.782 53.3854 101.615 53.2671C101.986 53.251 102.4 53.509 102.771 53.5789C104.131 53.8369 105.76 53.6972 107.099 53.3854C109.905 52.7295 112.593 50.9985 114.178 48.5688C114.684 47.8001 114.974 46.9346 115.468 46.1712C116.694 46.8969 117.952 47.5581 119.156 48.3161C123.731 51.1975 128.316 54.8207 130.235 60.0727C130.617 61.1156 130.794 62.2445 131.042 63.3304C126.252 68.3566 119.662 71.2004 113.222 73.5226L113.223 73.5232ZM37.3617 46.1347C38.4046 44.6134 39.7915 41.9041 41.2967 40.872C41.7913 40.9042 42.3396 41.0924 42.8127 41.2321C43.5599 41.4579 44.3555 41.6945 45.0436 42.0654C46.9788 43.1029 47.3874 44.0275 51.8224 45.6939C51.2902 46.6669 50.9192 47.7206 50.3816 48.6989C49.5484 50.2203 48.3927 51.6233 47.3337 52.9941L46.6564 53.1177C45.0706 53.193 43.5224 52.6178 42.0764 52.0318C40.9905 51.591 37.3619 50.0105 36.6792 49.3494C36.3244 49.0054 36.1255 48.5269 35.9373 48.0808C36.3512 47.4034 36.9155 46.7906 37.3617 46.1347ZM79.7381 48.8548C80.7218 48.6183 81.6088 48.285 82.5333 47.8926C82.7484 48.0969 82.9096 50.0536 83.001 50.489C83.216 51.5158 83.6192 52.4027 84.0761 53.3381C83.2268 53.2628 82.3828 53.0102 81.5604 52.7844C81.0927 52.6339 80.6519 52.4672 80.2057 52.2522C80.2487 52.1071 80.2863 51.9619 80.324 51.8168C80.5659 50.7417 80.3186 49.7686 79.7381 48.8548ZM84.0279 50.4299C83.8773 49.5644 83.8773 48.6775 83.6569 47.8281L83.6301 47.7206C84.0386 47.6561 84.4579 47.6238 84.8718 47.5862C88.0328 47.355 90.9248 48.7903 93.0321 51.2578C94.3115 52.7792 96.7467 56.5797 96.8972 58.5042C96.9133 58.7031 96.8488 58.9342 96.6983 59.074C96.494 59.2675 96.1554 59.2406 95.8973 59.2406C94.9996 58.9933 94.1503 58.5203 93.3009 58.144C91.4679 57.3269 89.5379 56.5582 87.8231 55.5207C85.8879 54.3434 84.4202 52.7145 84.0279 50.4299ZM94.4351 48.9193L93.2095 48.4785C92.3225 48.1882 91.4517 47.8334 90.5807 47.5108C91.2688 47.0109 91.8816 46.5647 92.3494 45.8391C92.7848 46.382 92.6612 46.769 94.4351 48.9193ZM92.8117 44.4145C92.8869 44.4414 92.8977 44.4468 92.9729 44.4898C94.8222 45.5703 96.5961 47.8334 97.1122 49.9138C95.478 49.2902 93.3116 46.3713 92.8117 44.4145ZM91.9032 44.6457C91.5161 45.8659 90.0594 46.5701 89.0273 47.1346C88.0973 46.8658 87.1888 46.6185 86.2211 46.5057C85.4148 46.468 84.603 46.468 83.7967 46.554C84.3827 46.0487 84.9632 45.5327 85.5277 45.0005C86.4845 44.8338 87.6779 44.3661 90.2207 44.1404C90.5808 44.1135 90.9464 44.0759 91.3065 44.092C91.5753 44.1081 91.7205 44.1511 91.9032 44.3554C91.9194 44.4629 91.9301 44.5489 91.9032 44.6457ZM95.0909 52.3113C94.3652 51.2523 93.5857 50.2524 92.6397 49.387C95.3275 49.8869 98.354 51.5211 100.381 53.3166C100.526 53.4456 100.606 53.494 100.623 53.6929L100.44 53.8434C98.9292 54.3111 97.4779 54.2896 96.0102 53.6607C95.6769 53.2468 95.3973 52.7575 95.0909 52.3113ZM99.7677 51.2953C100.993 49.9837 102.472 49.4299 104.117 48.8118C106.24 49.2364 108.385 50.8061 110.546 50.8007C109.143 51.763 107.734 52.3005 106.052 52.5531C104.063 52.9187 101.488 52.3113 99.7677 51.2953ZM107.6 49.2956C107.003 49.0107 106.412 48.715 105.826 48.4033C106.691 48.0861 107.584 47.8388 108.444 47.5055C110.567 46.6831 113.502 45.2155 115.018 43.5276C115.056 43.576 115.045 43.6566 115.04 43.7157C114.981 44.1673 114.776 44.6618 114.626 45.0919C113.868 47.2906 112.691 49.3549 110.718 50.6718C109.745 50.1182 108.616 49.7741 107.6 49.2956ZM112.519 44.1834C110.54 45.5542 108.202 46.6078 105.891 47.2852C104.654 47.6507 103.375 47.9088 102.187 48.4302C101.069 48.9194 100.122 49.6612 99.171 50.4084L99.1119 50.4299C99.0904 50.2955 99.1172 50.2687 99.1656 50.1504C100.359 47.3927 102.966 45.6026 105.837 44.9252C107.514 44.5328 109.256 44.4092 110.944 44.0275C111.89 43.8125 112.777 43.4846 113.68 43.1298L113.787 43.1513C113.589 43.5329 112.895 43.9254 112.519 44.1834ZM104.332 44.2103C103.966 44.4737 103.455 44.5974 103.047 44.7855C101.687 45.4145 100.714 46.2961 99.7785 47.4518C99.5258 47.7636 99.2946 48.0969 99.0635 48.4195C99.4237 47.2529 99.8483 46.1079 100.434 45.0329C101.02 43.9631 101.724 42.9471 102.235 41.8344C103.154 39.84 103.622 37.7327 104.246 35.6362C104.778 36.2759 105.67 38.91 105.762 39.7969C105.885 41.157 105.509 43.3609 104.332 44.2103ZM100.784 42.2267C100.171 42.3073 100.106 38.4798 99.4989 38.0444C99.3323 38.4261 99.3108 38.9905 99.2947 39.4044C99.2517 40.4742 99.4667 42.3772 100.209 43.1835C99.8322 43.7641 99.499 44.3662 99.1657 44.9683C98.2142 43.8931 97.7035 42.4041 96.9186 41.2053C97.0584 41.8235 97.2197 42.4363 97.3702 43.0491C97.6605 44.1403 98.112 45.0542 98.7839 45.952C98.499 46.7959 98.2033 47.6346 97.9023 48.4677C97.5207 47.7313 97.1444 46.9948 96.6283 46.3443C96.1176 45.7046 95.4242 45.1455 95.0425 44.4145C95.3973 43.1942 96.1284 41.9633 96.8488 40.9312C98.6981 38.2756 100.751 36.5285 103.66 35.0878L103.676 35.1846C103.015 36.9048 101.784 41.0655 100.784 42.2267ZM94.4565 42.9148L94.1555 43.6674C91.8493 42.0762 90.4678 40.8882 87.5273 40.8721C87.5757 40.6087 87.6026 40.3399 87.6348 40.0765C90.199 40.4904 92.7255 40.8291 95.2575 41.4366C94.9726 41.9204 94.7092 42.4095 94.4565 42.9148ZM91.1881 43.1513L89.57 43.2803C88.4519 43.4093 87.3822 43.576 86.2855 43.8555C86.7263 43.2212 87.022 42.603 87.2908 41.8773C88.8282 41.8235 89.9786 42.2375 91.1881 43.1513ZM86.006 42.3503C84.6836 45.2318 81.7216 46.7799 78.8993 47.8335L78.6037 47.9196L78.5499 47.8765C78.7972 47.2261 79.4262 46.6186 79.8616 46.0703C80.6088 45.1242 81.3506 44.1888 82.1785 43.318C84.4309 40.9419 85.7802 39.8615 86.1726 36.405C86.8553 38.2487 86.8285 40.5495 86.006 42.3503ZM80.5335 43.5384C79.5982 44.6242 78.8563 45.8445 78.0017 46.9841C77.9855 46.9358 77.9694 46.8874 77.9587 46.839C77.319 44.2694 79.1306 41.9096 80.9476 40.3237C81.6894 39.6732 82.5226 39.1303 83.2484 38.4529C84.0655 37.6842 84.7052 36.8886 85.2751 35.9264L85.3181 35.9909C85.1891 39.5173 82.5924 41.1408 80.5335 43.5384ZM79.496 40.2324C78.98 39.4852 78.3725 38.8078 77.808 38.0982C79.2218 38.066 80.7002 38.1197 82.0978 38.3294C81.4151 38.8669 81.0119 38.9906 79.496 40.2324ZM78.7811 40.9527C78.3403 41.5548 77.9102 42.1461 77.5447 42.802L76.9695 44.0438C76.2384 43.3288 75.4428 42.6784 74.7171 41.9527C72.2389 39.4691 70.6853 36.6093 70.1047 33.1421C70.2768 33.2818 70.4004 33.5237 70.5402 33.7011C70.9487 34.2387 71.3949 34.7924 71.9163 35.2171C73.3409 36.3836 75.0503 37.1523 76.4534 38.3457C77.3404 39.0929 78.0285 40.0765 78.7811 40.9527ZM76.19 44.6565L75.3192 44.5383C73.8677 44.3125 72.4324 44.4361 70.9811 44.6135C70.3683 43.904 69.8092 43.1567 69.3791 42.3181C67.8202 39.2916 68.2018 36.2006 69.1909 33.0665C69.406 33.3729 69.6371 35.0986 69.7446 35.6093C70.6262 39.7807 73.1636 41.9741 76.19 44.6565ZM68.5458 43.0062C68.949 43.6675 69.4274 44.2857 69.8467 44.9414C68.4759 45.2747 67.1482 45.6564 65.8096 46.0918C65.7182 45.9359 65.6268 45.78 65.514 45.6403C65.0732 45.0543 64.4872 44.6511 63.8259 44.3555C61.1811 43.1836 59.4825 44.7802 56.9989 44.4039C56.3807 44.3125 56.1872 44.0061 56.2947 43.447C56.542 42.1138 57.687 40.4527 58.2837 39.1787C58.6331 38.4315 58.8965 37.5659 59.3212 36.8671C59.4179 36.7112 59.5685 36.6145 59.719 36.5123C60.4554 36.5446 61.1651 36.8349 61.8585 37.0607C63.2024 37.5068 65.8526 38.4637 67.1697 38.4207C67.2396 39.9796 67.7341 41.6732 68.5458 43.0062ZM131.962 62.3854C131.844 61.7135 131.715 61.0469 131.522 60.3911C129.941 54.9563 125.071 50.516 120.356 47.6347C118.873 46.7262 117.303 46.0113 115.776 45.178C116.196 43.7857 116.346 42.6299 116.18 41.1786C116.147 40.9259 116.142 40.6625 115.927 40.4959C115.647 40.5281 114.572 41.4474 114.228 41.6785C112.965 42.5171 109.852 43.474 108.336 43.3665C107.681 43.3181 106.976 43.0601 106.321 42.9311C107.251 40.2916 106.638 38.7005 105.563 36.2598C105.283 35.6201 105.004 34.9697 105.014 34.2548C105.02 33.9161 105.143 33.5559 105.229 33.228C101.37 35.088 98.3324 36.6309 95.8918 40.3454C93.1448 39.867 90.3925 39.1735 87.608 38.9531C87.4789 37.3781 87.1134 35.6794 86.635 34.1741C86.5275 33.8355 86.3931 33.4108 86.0598 33.2334C85.8877 33.2495 85.791 33.2549 85.662 33.3839C85.2427 33.8194 85.0061 34.6257 84.7051 35.1579C84.4793 35.5504 84.2374 35.9266 83.9686 36.2922C83.7052 36.6577 83.4203 37.0072 83.1193 37.3405C82.7054 37.3082 82.2968 37.2652 81.8829 37.2222C80.0713 37.0179 78.2329 37.0018 76.4104 36.8835C74.7117 35.6848 72.712 34.7655 71.4111 33.0937C70.8789 32.411 70.2284 30.2984 69.6855 30.0081C69.5081 30.0027 69.3898 30.0296 69.2554 30.1532C68.6211 30.7177 67.6373 34.3838 67.4385 35.346C67.3041 35.9804 67.2073 36.6147 67.1751 37.2651C66.9117 37.3189 66.6106 37.4102 66.3418 37.4049C65.7882 37.3995 65.1968 37.163 64.6701 36.9963C63.5036 36.6254 60.219 35.3245 59.1493 35.7223C58.9397 35.7975 58.7354 35.9373 58.6064 36.1147C58.3161 36.5125 58.1817 37.1898 57.9882 37.6575C57.8 38.1198 57.5689 38.5714 57.3485 39.0229C56.4131 39.2595 55.4187 39.3455 54.467 39.5175C51.6287 40.0282 48.5269 40.555 45.8175 41.5226C44.9413 40.9689 42.248 39.8508 41.2966 39.9744C39.7269 40.1787 39.1678 42.3934 37.9422 43.1622C37.2917 43.5707 36.8348 43.5868 33.7814 45.0759C27.7929 48.0056 20.0789 53.5264 18.9285 60.0637C18.7511 61.0582 18.7618 62.0742 18.7457 63.0794C16.0309 60.1605 13.7624 56.8329 13.6119 52.699C12.9077 33.207 54.3699 25.3532 73.9004 24.7889C100.741 24.0148 135.737 35.1102 136.312 51.7852C136.441 55.5429 134.511 59.6708 131.962 62.3854Z" stroke="#663366" stroke-width="0.8" mask="url(#path-2-outside-1_323_293)"/>
<path d="M116.266 66.8145C116.271 66.8185 116.278 66.8235 116.291 66.832L116.335 66.8633L116.35 66.873L116.361 66.8857C116.446 66.9757 116.477 67.0974 116.49 67.1953C116.505 67.2989 116.504 67.4123 116.496 67.5186C116.481 67.7319 116.438 67.9498 116.417 68.0605C116.362 68.3565 116.276 68.7282 116.136 69.0742C115.997 69.4165 115.796 69.7593 115.496 69.9668L115.375 70.0508L115.259 69.96C115.191 69.9066 115.065 69.811 115.004 69.6631L115.002 69.6602C114.971 69.5821 114.961 69.4887 114.958 69.4004C114.955 69.3084 114.96 69.204 114.971 69.0938C114.992 68.8725 115.036 68.6136 115.092 68.3584C115.148 68.1027 115.216 67.8461 115.286 67.6279C115.354 67.4156 115.429 67.2217 115.503 67.1045C115.586 66.9689 115.69 66.894 115.808 66.8506C115.861 66.8309 115.914 66.8183 115.961 66.8086C116.012 66.7979 116.052 66.7916 116.1 66.7803L116.19 66.7588L116.266 66.8145Z" fill="#663366" stroke="#663366" stroke-width="0.4"/>
<path d="M23.5703 60.2148L23.7041 60.2363C23.8398 60.2623 23.9791 60.3065 24.126 60.4219L24.2051 60.4912C24.3815 60.6626 24.5023 60.8975 24.584 61.125C24.655 61.3228 24.7012 61.5292 24.7285 61.7129L24.75 61.8887V61.8916L24.7578 62.1426C24.7545 62.2219 24.7436 62.2977 24.7217 62.3721C24.677 62.5231 24.5916 62.6491 24.4717 62.7891L24.3984 62.874L24.2891 62.8564C24.1988 62.8423 24.11 62.8249 24.0234 62.7881C23.934 62.75 23.8566 62.696 23.7783 62.6211V62.6201C23.3786 62.2436 23.1599 61.6436 23.1309 61.1279V61.127C23.1227 60.9688 23.1217 60.8246 23.1592 60.6846C23.1983 60.5391 23.2739 60.4141 23.3887 60.2812L23.4609 60.1982L23.5703 60.2148Z" fill="#663366" stroke="#663366" stroke-width="0.4"/>
<path d="M123.619 66.25C123.619 66.3149 123.622 66.3958 123.602 66.4678C123.579 66.5466 123.53 66.6099 123.488 66.666L123.457 66.707L123.411 66.7275C123.295 66.7808 123.195 66.8097 123.089 66.8203C122.988 66.8304 122.889 66.8233 122.786 66.8154L122.779 66.8145C122.544 66.7892 122.308 66.7928 122.059 66.7988C121.813 66.8048 121.554 66.8136 121.292 66.7939H121.29C121.158 66.783 121.026 66.7661 120.9 66.7188C120.769 66.6693 120.654 66.5897 120.548 66.4668L120.494 66.4053L120.5 66.3223L120.518 66.1836C120.545 66.0496 120.605 65.9271 120.729 65.8135L120.832 65.7393C120.941 65.6778 121.065 65.652 121.167 65.6387C121.306 65.6205 121.461 65.6199 121.555 65.6152H121.559L122.152 65.5938C122.363 65.5912 122.58 65.5999 122.777 65.6406H122.778L123.003 65.7012C123.227 65.7765 123.441 65.9039 123.59 66.1455L123.619 66.1934V66.25Z" fill="#663366" stroke="#663366" stroke-width="0.4"/>
<path d="M84.1943 74.9922C85.4949 75.0049 86.8325 75.3877 87.8486 76.251L88.0781 76.4512C88.1592 76.5258 88.242 76.6077 88.3164 76.6953C88.4636 76.8686 88.6003 77.0875 88.6182 77.3408L88.623 77.4121L88.5811 77.4707C88.5587 77.5022 88.5519 77.515 88.5342 77.541C88.5208 77.5606 88.4956 77.5968 88.4551 77.627C88.4124 77.6587 88.3681 77.6726 88.3359 77.6807L88.2295 77.7021L88.1289 77.7207L88.0547 77.6504C87.9493 77.5503 87.8378 77.4501 87.7246 77.3477V77.3467C86.5121 76.2741 85.1245 75.9936 83.5137 76.0967C82.7644 76.2027 82.0369 76.4111 81.4131 76.8027L81.1523 76.9824C81.056 77.055 80.9577 77.157 80.8525 77.2803C80.8005 77.3413 80.7491 77.4063 80.6953 77.4727C80.642 77.5384 80.5861 77.6065 80.5303 77.6729C80.4193 77.8047 80.2984 77.9379 80.166 78.0449C80.0665 78.1254 79.9549 78.1961 79.8301 78.2393L79.7002 78.2725L79.625 78.2852L79.5596 78.2451C79.5007 78.2081 79.4224 78.162 79.3652 78.0967C79.3324 78.0592 79.3085 78.0188 79.29 77.9756L79.2461 77.8379C79.2055 77.6717 79.227 77.4954 79.2734 77.3428C79.3085 77.2274 79.3606 77.1153 79.4248 77.0195L79.4922 76.9297C80.6496 75.559 82.2466 75.1033 83.9277 74.9941H83.9346L84.1943 74.9922Z" fill="#663366" stroke="#663366" stroke-width="0.4"/>
<path d="M34.1035 55.2246C34.4257 55.2247 34.797 55.3183 35.1348 55.4648C35.4713 55.6109 35.7949 55.8184 36.0137 56.0635L36.1016 56.1748C36.1272 56.2138 36.1486 56.2555 36.1641 56.3018C36.1792 56.3473 36.1872 56.3925 36.1904 56.4375L36.1895 56.5723L36.1846 56.6514L36.126 56.7051C36.1062 56.7236 36.0365 56.7972 35.9805 56.8408C35.9147 56.8919 35.811 56.9531 35.6768 56.9414L35.6719 56.9404C35.5718 56.9293 35.4576 56.8898 35.3672 56.8564C35.2644 56.8185 35.1853 56.7856 35.1211 56.7666L35.1191 56.7656C34.7164 56.6403 34.4147 56.5648 34.1182 56.5449C33.8251 56.5253 33.5257 56.56 33.1309 56.6709H33.1299C31.24 57.1982 29.3786 58.7521 28.4238 60.4619L28.4229 60.4629C27.73 61.6965 27.3694 63.2527 27.7686 64.6035L27.8359 64.8115C28.2019 65.8342 28.9939 66.6491 29.9512 67.3408C30.9712 68.0779 32.1498 68.6557 33.1572 69.1943L33.3447 69.2783C33.413 69.3083 33.4874 69.3413 33.5605 69.376C33.704 69.4439 33.8605 69.5272 33.9814 69.6318L34.043 69.6885C34.1006 69.7463 34.1456 69.8088 34.1709 69.8877C34.1862 69.9357 34.1915 69.9815 34.1943 70.0205C34.1968 70.0536 34.1981 70.1061 34.2002 70.1426L34.2051 70.2188L34.1572 70.2793C34.1418 70.2986 34.1348 70.3077 34.1182 70.3291C34.1048 70.3464 34.0856 70.3706 34.0605 70.3936C34.0016 70.4475 33.9346 70.4738 33.8574 70.4893L33.8584 70.4902C33.7177 70.5189 33.5504 70.5042 33.3799 70.4707C33.2054 70.4364 33.0085 70.3778 32.7998 70.3037C32.3819 70.1553 31.8995 69.9374 31.4248 69.7012C30.476 69.2291 29.5355 68.6721 29.1582 68.416V68.417C27.8354 67.5214 26.8131 66.3561 26.4277 64.7754L26.3584 64.4541C26.0201 62.602 26.5031 60.6666 27.5742 59.1426L27.8447 58.7725C29.2338 56.9557 31.1449 55.6516 33.4336 55.2383L33.4434 55.2363H33.4531L33.7842 55.2236C33.8939 55.2229 34.0021 55.2246 34.1035 55.2246Z" fill="#663366" stroke="#663366" stroke-width="0.4"/>
<path d="M43.9727 61.9326C44.0112 61.9326 44.0581 61.9331 44.1074 61.9346L44.2568 61.9453L44.2627 61.9463L44.3877 61.9697C44.432 61.981 44.4778 61.9972 44.5205 62.0215C44.617 62.0765 44.6774 62.1604 44.7266 62.2588L44.7803 62.4033C44.7936 62.4518 44.8028 62.4993 44.8105 62.541L44.8535 62.7637L44.9092 62.957C45.0465 63.4028 45.238 63.8074 45.5107 64.1875L45.6162 64.3271C46.165 65.0198 47.039 65.6602 48.1182 66.2471C49.2661 66.8712 50.6293 67.4257 52.041 67.915C54.8661 68.8942 57.8588 69.6031 59.6777 70.0889L61.0117 70.457C64.1416 71.3416 67.3839 72.3431 70.5645 72.1572L70.9199 72.1309C72.694 71.9677 74.414 71.3952 76.1709 70.8564C78.0346 70.2849 79.9355 69.7532 81.9277 69.8408L82.4365 69.8779C83.6143 69.9961 84.725 70.3306 85.8086 70.7139C87.0554 71.1548 88.2513 71.6531 89.5068 71.9863L89.8271 72.0674C90.5775 72.2456 91.36 72.3613 92.1533 72.4609C93.0551 72.5742 93.9795 72.6671 94.8672 72.8047L95.8193 72.958C96.1994 73.0248 96.6235 73.1079 97.0352 73.21C97.4467 73.312 97.8525 73.4349 98.1924 73.5811C98.4833 73.7062 98.7496 73.8581 98.9238 74.0479L98.9932 74.1318L99.0205 74.1699L99.0283 74.2158L99.0469 74.3457C99.0506 74.3882 99.0513 74.4305 99.0449 74.4736C99.0387 74.5155 99.0259 74.556 99.0107 74.5957L98.96 74.7139L98.9219 74.7969L98.8359 74.8223C98.481 74.9303 98.1224 74.9019 97.7891 74.833C97.6292 74.7999 97.462 74.7535 97.2998 74.707L96.8408 74.5781C95.5078 74.2383 93.9845 74.0653 92.5518 73.916C91.3072 73.7863 90.1213 73.6739 89.2119 73.4785L88.8398 73.3896C87.7343 73.0936 86.6838 72.66 85.6455 72.2793C84.7316 71.9442 83.8191 71.6465 82.8535 71.498L82.4355 71.4434C80.7488 71.2648 79.0826 71.6015 77.4062 72.0654C75.9501 72.4684 74.471 72.9728 72.9961 73.2939L72.3643 73.4199C68.7712 74.0633 65.0715 73.1088 61.6895 72.2266L60.2598 71.8584C56.5917 70.9338 52.7827 70.1198 49.2686 68.5869L48.5693 68.2705C47.69 67.8577 46.6387 67.3208 45.7217 66.6357C44.8068 65.9523 44.0063 65.1066 43.6543 64.0684L43.5781 63.8086C43.4322 63.2034 43.5041 62.6115 43.7939 62.042L43.8496 61.9326H43.9727Z" fill="#663366" stroke="#663366" stroke-width="0.4"/>
<path d="M52.1221 62.9219C52.4741 63.0546 52.8363 63.2873 53.1816 63.5146C53.5351 63.7473 53.8737 63.9763 54.2021 64.1328H54.2012C56.5098 65.2291 59.3714 65.4131 61.9053 65.1465H61.9062L63.0879 65.0117C64.2756 64.8723 65.4794 64.7432 66.6982 64.8291L67.2197 64.8809C68.4187 65.0311 69.4992 65.3844 70.5293 65.7744C71.7144 66.2232 72.8156 66.7125 73.9824 67.0234L74.3018 67.1035C77.5972 67.8844 80.7957 67.0668 84.3223 66.21H84.3232L85.5225 65.9277C85.9198 65.829 86.3109 65.7201 86.6826 65.583V65.582L86.8291 65.5254C86.9159 65.4877 86.9736 65.4497 87.0176 65.3965C86.685 65.1934 86.259 65.0844 85.8271 65.0078L85.3779 64.9355C83.6204 64.6766 82.1923 64.836 80.7891 65.0605C79.564 65.2566 78.3443 65.5057 76.9551 65.5576L76.3486 65.5674C74.6673 65.5578 73.0112 65.1928 71.4102 64.7705L70.7275 64.5869C70.4839 64.5198 70.2391 64.4939 69.9805 64.4746C69.79 64.4604 69.5871 64.4492 69.3809 64.4258L69.1738 64.3984C68.9149 64.3572 68.6592 64.2726 68.4688 64.0117L68.4258 63.9531L68.4307 63.8809C68.4315 63.868 68.4315 63.8558 68.4316 63.8369C68.4317 63.8205 68.4317 63.7947 68.4346 63.7676C68.4415 63.7027 68.4638 63.6343 68.5195 63.5674L68.623 63.4639C68.8833 63.245 69.2815 63.1633 69.6973 63.1426C70.1874 63.1182 70.7693 63.1761 71.3496 63.2676C71.9317 63.3593 72.522 63.4862 73.0312 63.6016C73.2884 63.6598 73.5229 63.7144 73.7256 63.7607L74.2305 63.8691L74.2324 63.8701L74.5752 63.9316C76.2708 64.2093 77.6531 64.0406 79.0342 63.8174C80.506 63.5795 81.9909 63.2764 83.8203 63.4102L84.2734 63.4482C84.7621 63.4957 85.3443 63.573 85.9043 63.709C86.5949 63.8767 87.291 64.1421 87.7236 64.582L87.8066 64.6729L87.8359 64.707L87.8477 64.75C87.8895 64.9033 87.8651 65.0362 87.833 65.1475C88.0161 65.0971 88.2078 65.0259 88.4062 64.9434C88.6958 64.8229 89.0094 64.6782 89.3008 64.5811L89.5879 64.4893C91.0405 64.0467 92.6885 63.8612 94.1846 63.9688H94.1836C95.1446 64.0356 96.237 64.3204 96.9619 65.0576L97.1016 65.2109L97.1025 65.2119L97.2061 65.3438C97.311 65.4885 97.4076 65.6741 97.3848 65.9082L97.376 65.9961L97.3057 66.0488L97.1982 66.1289L97.1523 66.1641L97.0947 66.1689C96.7617 66.1974 96.4456 66.0931 96.165 65.9668C96.0239 65.9032 95.8856 65.8306 95.7559 65.7627L95.3828 65.5762H95.3818C95.0705 65.4339 94.6431 65.3529 94.1406 65.3252C93.641 65.2977 93.0815 65.3234 92.5156 65.3828C91.5242 65.4869 90.5265 65.6943 89.8174 65.8965L89.5322 65.9824C88.2396 66.3971 87.9078 66.8459 83.9561 67.835L83.1152 68.04C79.5285 68.891 76.0399 69.4191 72.4131 68.1465H72.4121C71.465 67.8128 70.564 67.3822 69.6914 67.0352C68.8061 66.683 67.9141 66.4006 66.917 66.3301V66.3291C66.108 66.2739 65.1961 66.335 64.1992 66.4238C63.2067 66.5123 62.1297 66.6289 61.0127 66.6826C58.9146 66.7834 56.6442 66.6632 54.4062 65.707L53.96 65.5049C53.6578 65.3605 53.1533 65.1025 52.7012 64.79C52.4752 64.6339 52.2567 64.4599 52.082 64.2764C51.9315 64.1182 51.8022 63.9409 51.7363 63.75L51.7119 63.667V63.666C51.6417 63.3692 51.7943 63.1545 51.8789 63.0088L51.9639 62.8623L52.1221 62.9219Z" fill="#663366" stroke="#663366" stroke-width="0.4"/>
<path d="M116.981 52.1934C117.621 52.1322 118.261 52.1772 118.881 52.2812L118.882 52.2803C121.77 52.7508 124.571 54.418 126.271 56.8242L126.486 57.1396C126.719 57.4896 126.991 57.9353 127.213 58.3975C127.361 58.7054 127.489 59.0256 127.568 59.333C127.647 59.638 127.68 59.9448 127.625 60.2197L127.626 60.2207C127.562 60.5445 127.421 60.7707 127.21 60.9092C127.007 61.0426 126.767 61.0753 126.543 61.0771C126.322 61.0789 126.077 61.0489 125.872 61.0332C125.655 61.0166 125.471 61.0146 125.323 61.0527H125.322C124.644 61.2211 124.068 61.5796 123.453 61.9785C122.722 62.503 121.937 63.0931 121.021 63.3779L121.021 63.377C120.622 63.5011 120.141 63.5793 119.665 63.5723C119.191 63.5652 118.706 63.4734 118.314 63.2461H118.313C117.925 63.0191 117.731 62.5749 117.604 62.1611C117.538 61.9493 117.486 61.7288 117.437 61.5293C117.386 61.3259 117.341 61.1457 117.286 60.998V60.9971C117.069 60.4041 116.782 59.8063 116.466 59.2393L116.142 58.6836C115.988 58.4313 115.812 58.1667 115.627 57.8906C115.443 57.6158 115.25 57.3293 115.068 57.0381C114.706 56.4581 114.375 55.8416 114.23 55.2227L114.231 55.2217C114.102 54.6807 114.296 54.1242 114.563 53.708H114.564L114.675 53.5479C115.245 52.7738 116.069 52.3947 116.957 52.1973L116.969 52.1943L116.981 52.1934ZM117.357 53.5146C116.682 53.6967 116.061 53.9394 115.732 54.5029L115.731 54.5049C115.668 54.6116 115.622 54.7301 115.572 54.8604C115.906 55.631 116.335 56.3499 116.785 57.0723C117.247 57.8138 117.731 58.5625 118.131 59.3604L118.28 59.6846C118.418 60.0123 118.525 60.3483 118.627 60.6758C118.764 61.1166 118.893 61.5409 119.074 61.9404L119.118 62.0342C119.129 62.0553 119.136 62.0635 119.14 62.0674C119.142 62.0704 119.152 62.084 119.225 62.1113L119.337 62.1475C119.907 62.3061 120.609 62.1493 121.15 61.874L121.395 61.7383C121.635 61.5943 121.867 61.4272 122.104 61.252C122.415 61.0211 122.739 60.7738 123.086 60.5684L123.091 60.5654L123.524 60.3271C123.945 60.1015 124.329 59.9181 124.731 59.8096C125.186 59.687 125.657 59.6631 126.228 59.7627C125.38 57.4719 123.761 55.742 121.565 54.624H121.564C120.321 53.9862 118.737 53.4076 117.357 53.5146Z" fill="#663366" stroke="#663366" stroke-width="0.4"/>
<path d="M103.675 59.6328C105.36 59.5032 107.255 59.8458 108.851 60.0908L109.429 60.1807C110.043 60.2795 110.752 60.4115 111.423 60.6211C112.312 60.899 113.177 61.3257 113.667 62.0352L113.775 62.208C114.276 63.085 114.187 64.1882 113.988 65.0742C113.817 65.8441 113.307 67.2675 112.668 68.6006C112.348 69.2684 111.991 69.9199 111.625 70.459C111.308 70.9258 110.972 71.3247 110.633 71.5723L110.487 71.6689C110.106 71.8975 109.655 71.9042 109.24 71.8477C108.83 71.7916 108.401 71.6634 108.082 71.5898L108.077 71.5889C105.938 71.038 104.957 70.6129 102.471 70.8086L102.472 70.8096C102.152 70.8359 101.787 70.889 101.392 70.9414C101 70.9933 100.583 71.0443 100.172 71.0625C99.4114 71.0962 98.6258 71.0219 98.0498 70.5938L97.9375 70.5029C97.1507 69.8195 97.2057 68.8021 97.4512 67.8965C97.6496 67.1584 98.2269 65.7198 98.8633 64.3281C99.4982 62.9395 100.209 61.5606 100.68 60.9561L100.815 60.793C101.505 60.0171 102.369 59.7791 103.341 59.666L103.675 59.6328ZM108.079 61.2588C106.256 61.0156 104.374 60.9331 103.446 60.9932C102.719 61.0821 102.2 61.2484 101.771 61.8174V61.8184C101.608 62.0331 101.326 62.5453 100.992 63.2266C100.661 63.9015 100.288 64.7258 99.9414 65.5498C99.5945 66.3743 99.2758 67.1958 99.0557 67.8662C98.9455 68.2017 98.8609 68.4964 98.8096 68.7324C98.7563 68.9778 98.7463 69.1306 98.7598 69.2012C98.7849 69.3154 98.8525 69.4021 98.9609 69.4619L98.9619 69.4629L99.0928 69.5195C99.2414 69.5708 99.4429 69.6047 99.6895 69.6211C100.012 69.6426 100.387 69.633 100.774 69.6084C101.161 69.5838 101.555 69.5453 101.914 69.5098C102.27 69.4746 102.596 69.4413 102.84 69.4316L103.481 69.417C104.906 69.4059 105.845 69.5633 106.698 69.7803C107.65 70.0223 108.446 70.3195 109.699 70.542C110.313 69.8418 111.085 68.6293 111.702 67.3408C112.307 66.0786 112.748 64.7843 112.775 63.8574V63.6768C112.76 63.1881 112.602 62.7479 112.253 62.4453V62.4443C111.951 62.1847 111.378 61.9472 110.626 61.7432C109.882 61.5414 108.991 61.3804 108.079 61.2588Z" fill="#663366" stroke="#663366" stroke-width="0.4"/>
<path d="M64.3037 49.7686C64.8727 49.7248 65.4561 49.725 66.0186 49.7412L66.5547 49.7617C67.7683 49.8186 68.7343 49.9522 69.6162 50.29C70.6135 50.6722 71.486 51.3102 72.4873 52.3594C72.7517 52.4205 73.1718 52.4996 73.6748 52.5928C74.2084 52.6916 74.8286 52.8069 75.4326 52.9355C76.0356 53.064 76.6281 53.2071 77.1055 53.3623C77.344 53.4398 77.5595 53.5223 77.7344 53.6094C77.8615 53.6727 77.9801 53.744 78.0713 53.8271L78.1523 53.915L78.1787 53.9482L78.1895 53.9902C78.3084 54.4751 78.2417 54.979 78.1201 55.4521C78.0093 55.8833 77.8432 56.3222 77.7168 56.6992C77.9828 57.0804 78.2915 57.4404 78.623 57.7764L78.9854 58.127L79.2158 58.3311C80.3743 59.3079 81.6206 59.6454 82.9492 59.7803C83.6617 59.8526 84.3923 59.8662 85.1494 59.8896C85.9032 59.913 86.6801 59.9463 87.4688 60.0596L87.8643 60.1299C88.0042 60.16 88.1498 60.1982 88.292 60.2451C88.538 60.3264 88.7886 60.4404 88.9873 60.6055L89.0693 60.6797L89.0703 60.6807L89.1494 60.7666C89.1742 60.7982 89.1961 60.8337 89.2119 60.874C89.2428 60.9528 89.2422 61.0335 89.2422 61.0957V61.1729L89.1904 61.2295C89.1806 61.2404 89.173 61.2494 89.165 61.2588C89.1576 61.2676 89.1478 61.2804 89.1357 61.293L89.0371 61.373C88.8799 61.4816 88.6906 61.5194 88.5039 61.5254C88.3164 61.5314 88.1119 61.5059 87.9092 61.4717C87.5921 61.4181 87.2851 61.3455 86.9941 61.3037L86.708 61.2744C85.9648 61.2318 85.2152 61.2398 84.4531 61.2344C83.8841 61.2303 83.3102 61.219 82.7383 61.1719L82.168 61.1113C80.8917 60.9494 79.9498 60.5934 79.1367 60.0234C78.3833 59.4952 77.7512 58.7891 77.0684 57.9121C75.4304 59.8391 72.9793 62.0366 70.4902 62.7295H70.4893C69.9936 62.8647 69.4945 62.9695 68.9873 63.041L68.4775 63.1016C67.7484 63.1723 65.7392 63.2656 63.7812 63.2676C62.8018 63.2686 61.8307 63.2466 61.0361 63.1865C60.639 63.1565 60.2822 63.1174 59.9893 63.0654C59.7743 63.0273 59.5818 62.9798 59.4297 62.9199L59.292 62.8555L59.2529 62.834L59.2266 62.7979C59.2024 62.7641 59.1775 62.7299 59.1592 62.7012C59.1393 62.67 59.118 62.6306 59.1055 62.582C59.0929 62.5332 59.0927 62.4886 59.0957 62.4502C59.0985 62.4146 59.1051 62.3724 59.1113 62.3301L59.1191 62.2764L59.1533 62.2334C59.2005 62.1749 59.2543 62.1036 59.3252 62.0547C59.4044 62.0001 59.4919 61.9795 59.5859 61.9629L59.8145 61.9287C60.0465 61.9002 60.2876 61.8875 60.5244 61.8799C60.8468 61.8695 61.1525 61.8685 61.4434 61.8525L62.3525 61.8184C63.2643 61.7939 64.1834 61.7961 65.0947 61.7871C66.3129 61.775 67.5213 61.7426 68.7031 61.6016H68.7041L69.1777 61.5322C70.1127 61.3651 70.9811 61.0282 71.8018 60.5469L72.208 60.2939C74.3135 58.9052 76.0577 57.5687 76.7256 55.208C76.4318 55.4325 76.1444 55.6706 75.8506 55.9111C75.417 56.2661 74.9695 56.6231 74.4746 56.9189L74.4736 56.918C72.8492 57.8931 70.5347 58.885 68.1611 59.626C65.9377 60.3201 63.6453 60.7998 61.8076 60.8369L61.4463 60.8389C60.8268 60.8305 60.2357 60.7238 59.6611 60.6045C59.2264 60.5142 58.8043 60.4172 58.377 60.3457L57.9473 60.2842C57.3326 60.213 56.7021 60.1988 56.0605 60.1914C55.5817 60.1859 55.0955 60.1845 54.6113 60.1631L54.1279 60.1338C52.5462 60.0154 50.6125 59.6597 49.4795 58.3115L49.4775 58.3086C49.3089 58.1006 49.1213 57.8254 48.9795 57.5312C48.8395 57.2407 48.7335 56.91 48.7559 56.5986L48.7598 56.5537L48.7812 56.5146C48.8275 56.433 48.8704 56.3634 48.9346 56.3047C48.995 56.2495 49.068 56.2109 49.1445 56.1689L49.2256 56.124L49.3115 56.1572L49.3711 56.1895C49.3871 56.2011 49.3988 56.2127 49.4053 56.2188C49.4239 56.2362 49.4426 56.2562 49.46 56.2764C49.4954 56.3175 49.5371 56.3715 49.5811 56.4307C49.6693 56.5495 49.778 56.7055 49.8877 56.8633C49.9982 57.0224 50.1108 57.1848 50.21 57.3213C50.3122 57.462 50.3899 57.5607 50.4336 57.6035L50.5918 57.749C51.3983 58.4512 52.4274 58.784 53.5332 58.9375C54.5017 59.0719 55.5096 59.0658 56.4609 59.0596C56.2923 58.9364 56.1251 58.8084 55.9658 58.6738V58.6748C55.5356 58.3136 55.0273 57.7958 54.6182 57.2188C54.2628 56.7175 53.9694 56.1531 53.8818 55.5967L53.8574 55.3584C53.8388 54.9404 53.9964 54.5404 54.2041 54.1904C54.4126 53.8392 54.6834 53.5192 54.9131 53.2598C55.9478 52.0839 57.5773 51.2582 59.293 50.7041C61.012 50.149 62.8415 49.8593 64.3037 49.7695V49.7686ZM65.4814 51.2705L65.4805 51.2695C65.455 51.2708 65.4373 51.272 65.4238 51.2725C65.4091 51.273 65.4028 51.273 65.3965 51.2734C65.3846 51.2742 65.3702 51.2759 65.3096 51.2842L65.3008 51.2852C63.72 51.4328 61.7793 51.6643 59.9727 52.1758C58.1623 52.6884 56.5145 53.4748 55.4912 54.7129L55.4902 54.7139C55.3273 54.9094 55.1877 55.0947 55.0713 55.2998C55.7157 56.7604 57.1251 57.9656 58.6006 58.5723H58.5996C59.5471 58.9565 60.5226 59.18 61.5371 59.2012C64.6118 59.1845 67.7142 58.2297 69.8809 56.0264V56.0254L70.0879 55.8105C70.3226 55.5588 70.6305 55.2076 70.9062 54.8438C71.0902 54.601 71.2565 54.3563 71.377 54.1348C71.5007 53.9071 71.5625 53.728 71.5654 53.6084V53.6064L71.5615 53.5059C71.5398 53.3073 71.4365 53.1212 71.2852 52.9521L71.2061 52.8691C70.5101 52.1938 69.5635 51.7771 68.541 51.5381C67.5194 51.2993 66.435 51.2413 65.4814 51.2705ZM72.9785 53.8691C72.5529 55.1765 71.6436 56.2201 70.6865 57.1436C71.0686 56.9792 71.4489 56.8028 71.8311 56.625L71.833 56.624L72.3496 56.375C73.4141 55.8327 74.2877 55.1911 75.2246 54.4014C74.4725 54.1854 73.7279 53.9613 72.9785 53.8691Z" fill="#663366" stroke="#663366" stroke-width="0.4"/>
<path d="M64.668 55.4756C65.0817 55.4977 65.5351 55.5705 65.9121 55.8604L65.9727 55.9102C66.0285 55.9612 66.0725 56.0175 66.1055 56.085C66.1465 56.169 66.1632 56.2586 66.1768 56.3428L66.1855 56.3945L66.167 56.4434C66.1209 56.5685 66.063 56.6616 65.9824 56.7402C65.9456 56.7762 65.905 56.8077 65.8633 56.8369L65.7373 56.9199L65.6885 56.9512H65.6299C65.2547 56.9512 64.7527 56.9225 64.3779 56.6494V56.6484C64.2841 56.5811 64.2167 56.5091 64.1719 56.415C64.1316 56.3305 64.1153 56.2377 64.1006 56.1592L64.0908 56.1074L64.1074 56.0576C64.2032 55.7773 64.3548 55.6641 64.5303 55.5205L64.5908 55.4717L64.668 55.4756Z" fill="#663366" stroke="#663366" stroke-width="0.4"/>
<path d="M60.5605 55.4854C60.7961 55.4938 61.0323 55.5288 61.2627 55.5986L61.4004 55.6445L61.4023 55.6455L61.5801 55.7275C61.6352 55.7587 61.6867 55.7942 61.7344 55.8369C61.8063 55.9014 61.864 55.9763 61.9141 56.0625L61.9619 56.1533L61.9785 56.1875L61.9814 56.2256L61.9844 56.3203C61.982 56.4113 61.9642 56.4909 61.9326 56.5674C61.8949 56.6585 61.837 56.7431 61.7891 56.8174L61.7422 56.8896L61.6572 56.9053C61.3197 56.9679 60.8587 56.9977 60.4775 56.8408L60.3154 56.7598C60.1444 56.6521 59.9868 56.4981 59.9404 56.251V56.2461C59.8954 55.9681 60.0276 55.7452 60.1123 55.5908L60.167 55.4922L60.2793 55.4873L60.5605 55.4854Z" fill="#663366" stroke="#663366" stroke-width="0.4"/>
<path d="M59.0303 52.708C59.1429 52.708 59.2469 52.7107 59.3506 52.7344C59.4045 52.7467 59.4556 52.764 59.5068 52.7871L59.665 52.874L59.7139 52.9053L59.7383 52.959C59.7646 53.0161 59.8017 53.0867 59.8203 53.1592C59.8422 53.2442 59.8406 53.3268 59.8242 53.4248C59.7837 53.6817 59.6462 53.9057 59.4893 54.0889C59.331 54.2735 59.1414 54.4296 58.9775 54.5518L58.9326 54.5859L58.877 54.5908C58.7557 54.6024 58.6457 54.6044 58.5342 54.5811C58.4211 54.5573 58.3195 54.5107 58.2109 54.4443L58.1553 54.4102L58.1309 54.3506C58.1083 54.2963 58.0774 54.2294 58.0605 54.1611C58.0412 54.0825 58.0389 54.0045 58.0527 53.9111L58.0537 53.9072L58.0742 53.8086C58.1957 53.3248 58.5876 52.9854 58.9121 52.7471L58.9648 52.708H59.0303Z" fill="#663366" stroke="#663366" stroke-width="0.4"/>
<path d="M66.7305 51.5127C66.9019 51.5682 67.125 51.6302 67.3018 51.8281L67.3613 51.9014C67.4729 52.0535 67.538 52.2349 67.543 52.4277L67.54 52.5254C67.501 53.0195 67.2295 53.2809 66.9268 53.5342L66.8301 53.6143L66.7158 53.5625C66.4789 53.4553 66.2664 53.3374 66.1055 53.0693L66.1064 53.0684C65.9401 52.8091 65.8859 52.5056 65.9717 52.2021V52.2012L66.0156 52.0762C66.0643 51.9594 66.1288 51.8644 66.2109 51.7822C66.3155 51.6777 66.4419 51.6021 66.5713 51.5293L66.6475 51.4863L66.7305 51.5127Z" fill="#663366" stroke="#663366" stroke-width="0.4"/>
<path d="M63.5361 53.3955C63.5362 53.4789 63.565 53.6322 63.4688 53.8086L63.4678 53.8076C63.2738 54.1664 62.9099 54.2269 62.6719 54.2969L62.6592 54.3008L62.6465 54.3027C62.5602 54.3164 62.4192 54.3449 62.2949 54.3594C62.1666 54.3743 62.0133 54.3807 61.8721 54.3398H61.8711C61.7546 54.3056 61.6658 54.2562 61.5928 54.1787C61.5293 54.1113 61.4842 54.0265 61.4473 53.9619L61.4209 53.916V53.8633C61.4209 53.7582 61.4261 53.6409 61.4883 53.5088L61.4902 53.5059L61.5762 53.3613C61.7943 53.0546 62.1241 52.9606 62.3984 52.8633L62.4209 52.8545L62.4453 52.8525C62.579 52.8396 62.7808 52.8154 62.9697 52.8564L63.0498 52.8779L63.0527 52.8789L63.1357 52.9131C63.2142 52.9499 63.2809 52.9957 63.3389 53.0537C63.4135 53.1284 63.4666 53.2153 63.5127 53.3018L63.5361 53.3457V53.3955Z" fill="#663366" stroke="#663366" stroke-width="0.4"/>
<path d="M65.8486 53.1367H65.8535L66.0049 53.1582C66.0533 53.1698 66.1001 53.1865 66.1455 53.209C66.1906 53.2313 66.2317 53.2577 66.2695 53.2881L66.376 53.3896L66.4082 53.4248L66.4209 53.4707L66.4463 53.5723C66.4536 53.6066 66.4595 53.6416 66.4619 53.6777C66.4669 53.7527 66.4572 53.8225 66.4385 53.9014L66.4395 53.9023C66.3601 54.2485 66.1195 54.4087 65.8906 54.5371L65.8701 54.5488L65.8477 54.5547C65.6051 54.6243 65.3809 54.6918 65.1572 54.6777C64.9186 54.6627 64.7034 54.5601 64.4561 54.3564L64.418 54.3242L64.3984 54.2793C64.3905 54.2606 64.3819 54.2426 64.3701 54.2188C64.3594 54.1971 64.3453 54.1679 64.333 54.1367C64.3059 54.0678 64.286 53.9823 64.3057 53.8789H64.3066L64.3408 53.7568C64.4417 53.4876 64.6781 53.3292 64.8467 53.2139L64.8906 53.1836L64.9443 53.1797C65.2251 53.1589 65.5491 53.1254 65.8486 53.1367Z" fill="#663366" stroke="#663366" stroke-width="0.4"/>
<path d="M68.4736 52.4814L68.6289 52.4941C68.8867 52.5248 69.1367 52.6022 69.3701 52.7051L69.6416 52.8398L69.6436 52.8408L69.8438 52.9658C70.0177 53.0874 70.1973 53.2544 70.2861 53.4795L70.3271 53.6211L70.3281 53.624L70.3408 53.7236C70.3553 53.9483 70.2692 54.1083 70.1807 54.2607L70.1152 54.373L69.9854 54.3584C69.9051 54.3495 69.7057 54.3479 69.4473 54.2578L69.4443 54.2568C69.24 54.1823 68.9657 54.0681 68.7227 53.9102C68.4848 53.7556 68.2437 53.5379 68.1592 53.2422L68.1602 53.2412C68.0756 52.9527 68.2198 52.7341 68.2842 52.5967L68.3398 52.4766L68.4736 52.4814Z" fill="#663366" stroke="#663366" stroke-width="0.4"/>
<path d="M64.1553 51.2471C64.3269 51.2491 64.5127 51.2656 64.6943 51.3047C64.9352 51.3565 65.1826 51.4517 65.376 51.6221H65.375C65.5286 51.7552 65.6443 51.9539 65.6201 52.1953V52.1973C65.5891 52.4829 65.3703 52.6695 65.2529 52.7822L65.2002 52.833L65.127 52.8369C64.7549 52.8602 64.3044 52.8749 63.9092 52.666L63.7441 52.5625H63.7432C63.6055 52.4611 63.4832 52.2856 63.4746 52.0869L63.4756 52.0859C63.4557 51.7107 63.6768 51.4873 63.8555 51.3086L63.9102 51.2529L63.9883 51.25L64.1553 51.2471Z" fill="#663366" stroke="#663366" stroke-width="0.4"/>
<path d="M57.0791 53.9707C57.259 53.9861 57.4669 53.9981 57.666 54.0322H57.668L57.7861 54.0625C57.9062 54.1013 58.0314 54.165 58.1416 54.2383C58.2866 54.3347 58.4359 54.4682 58.5146 54.6221H58.5137C58.5649 54.7212 58.5882 54.8153 58.5752 54.917C58.5643 55.0016 58.527 55.084 58.5059 55.1367L58.4873 55.1826L58.4492 55.2148C58.2534 55.381 58.1073 55.4687 57.8447 55.5312L57.8174 55.5371L57.7891 55.5361C57.5712 55.5258 57.3178 55.5197 57.082 55.4795H57.0801C56.7584 55.4214 56.4475 55.2186 56.2666 54.9473L56.2422 54.9111L56.2354 54.8682C56.2261 54.8093 56.1733 54.6553 56.2695 54.4873H56.2686C56.3535 54.3323 56.4827 54.2277 56.6113 54.1523C56.7385 54.0779 56.8782 54.0248 56.9922 53.9824L57.0342 53.9668L57.0791 53.9707Z" fill="#663366" stroke="#663366" stroke-width="0.4"/>
<path d="M66.9277 53.335C66.9408 53.3376 66.9816 53.3477 67.0234 53.3613L67.0244 53.3594C67.3304 53.4381 67.6834 53.597 67.998 53.8027C68.2717 53.9817 68.5316 54.2056 68.7041 54.458L68.7725 54.5674L68.79 54.5996L68.7959 54.6357C68.8153 54.7652 68.8113 54.8726 68.7871 54.9785C68.7644 55.0778 68.7239 55.1715 68.6855 55.2637L68.6338 55.3887L68.499 55.3867C68.0983 55.3817 67.7615 55.3186 67.4082 55.1416L67.2549 55.0586C66.9547 54.882 66.6748 54.6126 66.582 54.2236L66.5811 54.2246C66.5428 54.0714 66.5376 53.9354 66.5654 53.8008C66.5924 53.6706 66.6485 53.5531 66.7129 53.4355L66.7832 53.3066L66.9277 53.335Z" fill="#663366" stroke="#663366" stroke-width="0.4"/>
</svg>
