<svg width="150" height="150" viewBox="0 0 150 150" fill="none" xmlns="http://www.w3.org/2000/svg">
<path d="M33.4344 14.8977V24.2691C33.4341 24.6803 33.5936 25.0755 33.8792 25.3712C34.1648 25.667 34.5541 25.8403 34.965 25.8545L40.2859 26.0388V31.2764C39.0461 35.3773 35.969 42.9613 29.0148 49.2404C28.7042 49.5214 28.5173 49.9138 28.495 50.332C28.4727 50.7502 28.6169 51.1603 28.8959 51.4726L32.7471 55.7891C33.0147 56.0892 33.3863 56.2763 33.7867 56.3128C34.187 56.3492 34.5863 56.2322 34.9036 55.9853C36.102 55.0184 37.2365 53.9748 38.2998 52.861C37.5259 55.161 36.2675 57.2682 34.6095 59.0403C34.4559 59.1959 34.336 59.3816 34.2576 59.5858C34.1792 59.79 34.1439 60.0081 34.1538 60.2266C34.1638 60.4451 34.2189 60.6591 34.3156 60.8553C34.4123 61.0514 34.5485 61.2255 34.7158 61.3664L39.429 65.3401C39.7056 65.5732 40.0536 65.7047 40.4152 65.7128C40.7768 65.7208 41.1303 65.605 41.417 65.3845C41.5621 65.2731 43.3948 63.8229 45.3673 60.6225C46.3016 62.1925 46.9337 63.9235 47.2309 65.7262C47.4933 67.6377 47.5674 70.7656 47.4473 74.6438C47.1326 74.6271 46.8156 74.6187 46.4961 74.6184C44.0218 74.6217 41.5746 75.1336 39.3065 76.1225C38.5424 74.4111 37.8127 72.9554 37.2099 71.8218C36.5038 70.5067 35.3712 69.471 33.9985 68.8847C32.6257 68.2985 31.0944 68.1967 29.6561 68.596L20.2113 71.2658C19.9787 71.3315 19.7643 71.4496 19.5843 71.611C19.4044 71.7724 19.2637 71.9727 19.173 72.1968C19.0824 72.4209 19.0442 72.6627 19.0613 72.9038C19.0785 73.1449 19.1506 73.3789 19.272 73.5879C19.7536 74.4171 20.2407 75.3152 20.7198 76.2569C20.8137 76.4433 20.9435 76.6093 21.1017 76.7454C21.2599 76.8816 21.4434 76.9851 21.6417 77.0502C21.84 77.1152 22.0492 77.1405 22.2573 77.1245C22.4654 77.1085 22.6683 77.0515 22.8543 76.9569C23.0404 76.8623 23.2059 76.7319 23.3414 76.5732C23.477 76.4145 23.5798 76.2306 23.6441 76.032C23.7084 75.8334 23.7328 75.6241 23.716 75.4161C23.6992 75.2081 23.6415 75.0054 23.5461 74.8197C23.3654 74.4646 23.1838 74.1154 23.0012 73.7722L30.5189 71.6471C31.2602 71.4415 32.0494 71.4944 32.7567 71.7969C33.4639 72.0995 34.0472 72.6336 34.4106 73.3117C36.3392 76.9382 39.6276 84.01 40.9502 92.1508H26.8682C25.8706 88.5893 24.3511 85.1951 22.3591 82.0787L28.1936 81.1136C28.6233 81.0441 29.064 81.1071 29.457 81.2942C29.85 81.4814 30.1767 81.7837 30.3937 82.1611C31.6333 84.3514 32.6359 86.6676 33.3844 89.0705C33.5098 89.4719 33.7895 89.807 34.1619 90.0022C34.5344 90.1974 34.9691 90.2366 35.3705 90.1113C35.7719 89.9859 36.107 89.7063 36.3022 89.3338C36.4974 88.9613 36.5366 88.5266 36.4113 88.1252C35.5942 85.5029 34.4998 82.9751 33.1466 80.5849C32.6074 79.6466 31.7952 78.8949 30.8181 78.4298C29.841 77.9647 28.7454 77.8083 27.6772 77.9813L19.3267 79.3626C19.0545 79.4076 18.7987 79.5229 18.5847 79.697C18.3707 79.8712 18.2058 80.0982 18.1064 80.3556C18.007 80.613 17.9765 80.8919 18.018 81.1647C18.0594 81.4375 18.1713 81.6947 18.3426 81.911C22.2315 86.8233 23.7946 92.8401 24.0471 93.8971C23.3135 122.546 39.1971 131.43 46.074 133.923C46.8279 134.192 47.4903 134.669 47.9846 135.298C48.4788 135.928 48.7848 136.685 48.867 137.481L48.9859 138.582C49.0272 138.971 49.2107 139.331 49.5012 139.592C49.7917 139.854 50.1687 139.999 50.5598 140H77.7748C78.1661 140 78.5436 139.855 78.8346 139.594C79.1256 139.332 79.3095 138.972 79.351 138.583L79.4699 137.482C79.5522 136.686 79.8582 135.929 80.3525 135.299C80.8468 134.67 81.5093 134.193 82.2633 133.924C89.1572 131.427 105.104 122.505 104.286 93.6886C104.28 93.552 104.257 93.4168 104.216 93.2863C104.47 91.032 104.243 88.7495 103.55 86.5892C102.857 84.4289 101.715 82.4398 100.198 80.7531C98.6811 79.0663 96.8239 77.7201 94.7489 76.803C92.6739 75.886 90.4282 75.4191 88.1596 75.4329C85.7509 75.4303 83.3724 75.9695 81.2003 77.0107C80.7472 76.6704 80.2799 76.3533 79.7985 76.0595C79.7073 75.0132 79.6039 73.9743 79.4814 72.968C79.3443 71.8405 79.1576 70.7089 78.9265 69.6075C78.8403 69.196 78.5941 68.8356 78.2421 68.6055C77.8901 68.3755 77.4612 68.2948 77.0497 68.381C76.6381 68.4673 76.2777 68.7135 76.0477 69.0654C75.8177 69.4174 75.7369 69.8464 75.8232 70.2579C76.036 71.2721 76.2076 72.3125 76.3341 73.3493C76.3781 73.7128 76.4165 74.0869 76.4569 74.4591C75.0267 73.9482 73.5374 73.621 72.0247 73.4853V69.9325C72.0247 69.512 71.8577 69.1088 71.5603 68.8115C71.263 68.5142 70.8598 68.3471 70.4393 68.3471C70.0189 68.3471 69.6156 68.5142 69.3183 68.8115C69.021 69.1088 68.854 69.512 68.854 69.9325V73.4912C67.3702 73.621 65.9084 73.9356 64.5026 74.4278V66.5133C64.5026 66.0928 64.3355 65.6896 64.0382 65.3923C63.7409 65.0949 63.3377 64.9279 62.9172 64.9279C62.4968 64.9279 62.0935 65.0949 61.7962 65.3923C61.4989 65.6896 61.3319 66.0928 61.3319 66.5133V75.9041C60.0499 76.6628 58.8674 77.5785 57.812 78.6297C55.7075 76.9227 53.2438 75.7143 50.6058 75.0952C50.7148 71.865 50.7358 67.9385 50.3731 65.2957C49.9312 62.0743 48.2872 59.1608 47.0791 57.3864C47.8063 55.7689 48.4061 54.0971 48.873 52.3862C49.5146 53.8427 50.1781 55.1312 50.7865 56.2366C52.8637 60.0228 54.1461 64.1931 54.5553 68.4922C54.7289 70.2484 54.8394 71.9907 54.8842 73.6715C54.8952 74.0847 55.067 74.4772 55.3632 74.7655C55.6593 75.0538 56.0563 75.215 56.4696 75.2149H56.5124C56.9323 75.2037 57.3307 75.0263 57.6199 74.7216C57.9091 74.4169 58.0656 74.0099 58.0549 73.5899C58.0082 71.8337 57.8928 70.0145 57.7117 68.1834C57.2609 63.456 55.8492 58.8704 53.5632 54.7079C51.5518 51.0533 48.8777 45.3107 48.8777 37.6733V21.169H51.8404V35.9084C51.8306 38.8466 52.411 41.7568 53.547 44.4665L53.5807 44.5458C53.7446 44.9331 54.0556 45.2393 54.4454 45.3972C54.8351 45.5551 55.2716 45.5518 55.6589 45.3878C56.0461 45.2239 56.3524 44.9129 56.5103 44.5231C56.6682 44.1334 56.6648 43.6969 56.5009 43.3096L56.4684 43.2335C55.4971 40.914 55.0016 38.4231 55.0111 35.9084V21.169H58.8528V33.4158C58.8528 33.8363 59.0198 34.2395 59.3171 34.5368C59.6144 34.8342 60.0177 35.0012 60.4381 35.0012C60.8586 35.0012 61.2618 34.8342 61.5591 34.5368C61.8564 34.2395 62.0235 33.8363 62.0235 33.4158V21.169H66.8525V29.9495C66.8525 30.3699 67.0195 30.7732 67.3168 31.0705C67.6141 31.3678 68.0174 31.5348 68.4378 31.5348C68.8583 31.5348 69.2615 31.3678 69.5588 31.0705C69.8561 30.7732 70.0232 30.3699 70.0232 29.9495V27.0669L130.646 29.1651H130.701C131.121 29.1651 131.524 28.9981 131.822 28.7008C132.119 28.4035 132.286 28.0002 132.286 27.5797V24.6393C132.286 24.2188 132.119 23.8156 131.822 23.5183C131.524 23.221 131.121 23.054 130.701 23.054C130.28 23.054 129.877 23.221 129.58 23.5183C129.282 23.8156 129.115 24.2188 129.115 24.6393V25.9397L70.0232 23.8942V21.169H130.701C131.121 21.169 131.524 21.0019 131.822 20.7046C132.119 20.4073 132.286 20.0041 132.286 19.5836V11.5863C132.286 11.3734 132.243 11.1627 132.16 10.9667C132.077 10.7707 131.956 10.5934 131.802 10.4455C131.649 10.2975 131.468 10.1819 131.269 10.1056C131.071 10.0292 130.859 9.9936 130.646 10.0009L34.965 13.3135C34.5543 13.3277 34.1652 13.5008 33.8796 13.7964C33.5941 14.0919 33.4345 14.4868 33.4344 14.8977ZM46.4969 77.7875C50.3474 77.7922 54.0455 79.2924 56.8111 81.9717C59.5766 84.6509 61.1933 88.2996 61.32 92.1481H52.2835C51.6493 90.0051 50.4968 88.4348 48.8353 87.4863C46.8176 86.3369 44.5469 86.4162 43.0341 86.6711C42.8449 85.9407 42.6454 85.2248 42.4356 84.5233C45.1807 83.8646 51.1448 83.1872 54.044 88.6623C54.1414 88.8463 54.2741 89.0092 54.4346 89.1419C54.595 89.2746 54.78 89.3744 54.979 89.4356C55.178 89.4969 55.3871 89.5183 55.5944 89.4987C55.8016 89.479 56.003 89.4188 56.187 89.3214C56.371 89.2239 56.534 89.0912 56.6667 88.9308C56.7994 88.7704 56.8992 88.5854 56.9604 88.3864C57.0216 88.1874 57.043 87.9783 57.0234 87.771C57.0038 87.5637 56.9435 87.3624 56.8461 87.1784C53.2644 80.416 45.9218 80.351 41.4491 81.4913C41.1507 80.6424 40.8439 79.8267 40.5352 79.0427C42.4145 78.2173 44.4443 77.79 46.4969 77.7875ZM72.8618 86.3984C70.9547 86.1992 69.0276 86.4481 67.2337 87.1253C67.0403 87.2021 66.8638 87.3164 66.7145 87.4614C66.5651 87.6065 66.4458 87.7796 66.3634 87.9707C66.2809 88.1619 66.2369 88.3675 66.2339 88.5756C66.2309 88.7838 66.2689 88.9906 66.3457 89.184C66.4226 89.3775 66.5369 89.554 66.6819 89.7033C66.827 89.8527 67.0001 89.972 67.1912 90.0544C67.3824 90.1369 67.588 90.1809 67.7961 90.1839C68.0043 90.1869 68.211 90.1489 68.4045 90.072C69.5963 89.6247 70.87 89.4376 72.14 89.5235C72.0505 90.2087 72.0048 90.899 72.0033 91.59C72.0033 91.7751 72.0176 91.9622 72.0239 92.1481H64.4935C64.4434 90.1376 64.0548 88.15 63.3441 86.2688C64.6294 84.9418 68.2373 82.049 74.222 83.4353C73.6694 84.3744 73.2137 85.3672 72.8618 86.3984ZM43.7416 89.7673C44.7415 89.617 46.1311 89.5905 47.2753 90.2492C48.0082 90.6943 48.5819 91.3594 48.9146 92.1496H44.1617C44.0394 91.344 43.8993 90.5494 43.7416 89.7657V89.7673ZM81.1817 130.944C79.9191 131.395 78.803 132.181 77.9529 133.218C77.1029 134.254 76.5509 135.503 76.3563 136.829H51.9779C51.7836 135.503 51.2319 134.254 50.3819 133.217C49.5319 132.18 48.4156 131.394 47.1529 130.943C41.0282 128.723 27.0189 120.842 27.1921 95.3188H101.142C101.315 120.842 87.3063 128.723 81.1817 130.943V130.944ZM94.5601 92.1496C94.4179 91.0947 94.0174 90.0912 93.394 89.2283C92.7706 88.3654 91.9438 87.6698 90.9869 87.2034C90.03 86.737 88.9727 86.5142 87.909 86.5548C86.8453 86.5954 85.808 86.8981 84.8894 87.436C84.7069 87.5398 84.5467 87.6788 84.4183 87.845C84.2899 88.0111 84.1959 88.2012 84.1415 88.404C84.0872 88.6069 84.0737 88.8185 84.1018 89.0266C84.1299 89.2347 84.1991 89.4352 84.3054 89.6163C84.4116 89.7975 84.5528 89.9557 84.7207 90.0818C84.8886 90.2079 85.0799 90.2995 85.2835 90.351C85.487 90.4026 85.6988 90.4132 85.9065 90.3823C86.1142 90.3513 86.3137 90.2794 86.4934 90.1707C86.93 89.9155 87.4195 89.7642 87.924 89.7286C88.4284 89.6929 88.9343 89.7739 89.4025 89.9652C89.8706 90.1565 90.2885 90.453 90.6236 90.8318C90.9587 91.2105 91.2022 91.6613 91.3351 92.1493H79.9879C80.0274 90.0084 80.9055 87.9686 82.4334 86.4686C83.9614 84.9685 86.017 84.1281 88.1582 84.1281C90.2994 84.1281 92.3551 84.9685 93.883 86.4686C95.411 87.9686 96.2891 90.0084 96.3286 92.1493L94.5601 92.1496ZM101.144 91.5916C101.144 91.7766 101.14 91.9626 101.132 92.1496H99.5028C99.4675 89.164 98.2568 86.3127 96.133 84.2139C94.0093 82.1152 91.1439 80.9382 88.158 80.9382C85.1722 80.9382 82.3068 82.1152 80.1831 84.2139C78.0593 86.3127 76.8485 89.164 76.8133 92.1496H75.1843C75.1761 91.9647 75.172 91.7787 75.172 91.5916C75.1626 89.8802 75.4915 88.1838 76.1399 86.5999C76.7882 85.0161 77.7433 83.576 78.9501 82.3625C80.1569 81.149 81.5917 80.186 83.172 79.5288C84.7522 78.8717 86.4468 78.5334 88.1582 78.5334C89.8697 78.5334 91.5642 78.8717 93.1445 79.5288C94.7248 80.186 96.1595 81.149 97.3664 82.3625C98.5732 83.576 99.5282 85.0161 100.177 86.5999C100.825 88.1838 101.154 89.8802 101.144 91.5916ZM70.4385 76.5858C73.2048 76.587 75.915 77.3659 78.2599 78.8335C77.5359 79.3955 76.8605 80.0176 76.2409 80.6931C69.0787 78.4946 64.26 81.2876 61.9006 83.3089C61.3678 82.4343 60.7619 81.6065 60.0893 80.8342C62.8449 78.1103 66.5639 76.5836 70.4385 76.5858ZM34.0816 52.5221L32.2906 50.5143C35.5386 47.3185 38.2501 43.62 40.3208 39.5611C40.3334 41.6517 40.2061 43.7408 39.9399 45.8145C38.2695 48.2821 36.302 50.5349 34.0816 52.5221ZM46.8279 46.5136C45.6388 55.3674 42.0666 60.1715 40.381 61.9978L37.9982 59.9887C44.109 52.3101 43.5172 39.2618 43.4566 38.1806V25.5596C43.6557 25.3352 43.7868 25.0587 43.8343 24.7625C43.8818 24.4662 43.8439 24.1626 43.7249 23.8872C43.606 23.6117 43.4109 23.3759 43.1627 23.2074C42.9145 23.039 42.6234 22.9447 42.3235 22.9359L36.6051 22.7377V21.169H45.707V37.6733C45.7059 40.6556 46.0825 43.626 46.8279 46.5136ZM36.6051 16.4292L129.115 13.2271V17.9983H36.6051V16.4292Z" fill="#663366"/>
<path d="M85.1194 36.9782C85.0601 36.606 84.8702 36.2671 84.5837 36.0223C84.2971 35.7774 83.9328 35.6427 83.5559 35.6422L77.6108 35.6342L72.7992 32.1441C72.4941 31.9227 72.1201 31.8172 71.7443 31.8466C71.3685 31.8761 71.0155 32.0384 70.7486 32.3046L66.5395 36.5022L60.6693 37.4368C60.2971 37.496 59.9583 37.6859 59.7134 37.9724C59.4686 38.2588 59.3338 38.6231 59.3332 39L59.3249 44.945L55.8344 49.7566C55.613 50.0617 55.5076 50.4357 55.5371 50.8116C55.5666 51.1874 55.729 51.5404 55.9953 51.8072L60.1929 56.0164L61.1271 61.8865C61.1863 62.2587 61.3763 62.5976 61.6628 62.8425C61.9493 63.0873 62.3137 63.2221 62.6906 63.2226L68.6357 63.2309L73.4472 66.7211C73.7523 66.9425 74.1263 67.0479 74.5021 67.0185C74.8779 66.9891 75.231 66.8267 75.4979 66.5605L79.707 62.3629L85.5772 61.4284C85.9494 61.3692 86.2884 61.1793 86.5333 60.8929C86.7782 60.6064 86.913 60.2421 86.9136 59.8652L86.922 53.9201L90.4121 49.1082C90.6334 48.8031 90.7387 48.4291 90.7092 48.0534C90.6797 47.6777 90.5173 47.3248 90.2512 47.0579L86.054 42.8488L85.1194 36.9782ZM84.0541 52.4751C83.8581 52.745 83.7523 53.0698 83.7516 53.4033L83.7445 58.5101L78.7015 59.3131C78.3715 59.3651 78.0663 59.52 77.8296 59.7558L74.2138 63.3625L70.0803 60.3642C69.8103 60.1683 69.4853 60.0626 69.1517 60.0622L64.0453 60.0535L63.2423 55.0104C63.1903 54.6804 63.0354 54.3752 62.7996 54.1385L59.1929 50.5227L62.1908 46.3893C62.3868 46.1193 62.4927 45.7943 62.4932 45.4607L62.5004 40.3538L67.5434 39.5513C67.8734 39.4988 68.1785 39.3438 68.4153 39.1082L72.0311 35.5015L76.1645 38.4998C76.4347 38.6957 76.7598 38.8014 77.0936 38.8018L82.2 38.8085L83.003 43.8519C83.055 44.182 83.2099 44.4871 83.4457 44.7239L87.0524 48.3397L84.0541 52.4751Z" fill="#663366"/>
<path d="M78.554 44.01C77.6247 43.1517 76.5218 42.5033 75.32 42.1086C74.1182 41.7139 72.8455 41.5821 71.5884 41.7223C69.0807 42.0434 66.8256 43.536 65.2386 45.9235C65.1234 46.0969 65.0434 46.2913 65.0033 46.4956C64.9632 46.6999 64.9637 46.9101 65.0049 47.1142C65.046 47.3183 65.1269 47.5123 65.243 47.6851C65.3591 47.8579 65.5081 48.0062 65.6815 48.1214C65.8549 48.2367 66.0493 48.3166 66.2536 48.3567C66.4579 48.3968 66.6681 48.3963 66.8722 48.3552C67.0763 48.314 67.2703 48.2331 67.4431 48.117C67.6159 48.0009 67.7642 47.8519 67.8794 47.6785C68.965 46.0444 70.3871 45.0718 71.9914 44.8665C72.7977 44.7848 73.6121 44.877 74.3797 45.1368C75.1473 45.3966 75.8502 45.818 76.4411 46.3726C77.3577 47.1935 77.911 48.3445 77.9796 49.573C78.0483 50.8014 77.6267 52.0069 76.8073 52.9248C76.207 53.5952 75.3652 54 74.4667 54.0504C73.5682 54.1008 72.6864 53.7926 72.0148 53.1936C71.7524 52.9567 71.5412 52.6688 71.3941 52.3473C71.247 52.0259 71.1672 51.6778 71.1595 51.3244C71.1492 51.0613 71.1946 50.799 71.2926 50.5546C71.3907 50.3102 71.5393 50.0893 71.7287 49.9063C71.846 49.7705 71.9892 49.6595 72.1499 49.5798C72.3107 49.5001 72.4857 49.4534 72.6648 49.4422C73.0691 49.5258 73.4328 49.745 73.6953 50.0637C73.9539 50.3917 74.3316 50.6044 74.7462 50.6556C75.1607 50.7067 75.5788 50.5922 75.9094 50.3368C76.24 50.0815 76.4564 49.706 76.5117 49.2919C76.5669 48.8778 76.4566 48.4587 76.2045 48.1256C76.0713 47.9528 74.8467 46.4352 72.9264 46.2822C72.3035 46.2455 71.6799 46.3437 71.0985 46.5703C70.517 46.7968 69.9914 47.1463 69.5575 47.5949C69.0464 48.0779 68.6426 48.6631 68.3723 49.3124C68.102 49.9617 67.9714 50.6606 67.9888 51.3637C68.0003 52.157 68.1763 52.9393 68.5055 53.6612C68.8347 54.3831 69.3101 55.0289 69.9015 55.5577C71.2005 56.7164 72.906 57.3124 74.6439 57.2149C76.3817 57.1174 78.0099 56.3344 79.1711 55.0377C79.8548 54.2732 80.3812 53.3815 80.7202 52.4134C81.0592 51.4454 81.2042 50.4201 81.1468 49.3961C81.0894 48.372 80.8308 47.3693 80.3858 46.4452C79.9408 45.5211 79.3181 44.6938 78.5532 44.0104L78.554 44.01Z" fill="#663366"/>
</svg>
