<svg width="150" height="150" viewBox="0 0 150 150" fill="none" xmlns="http://www.w3.org/2000/svg">
<mask id="mask0_259_1553" style="mask-type:luminance" maskUnits="userSpaceOnUse" x="10" y="10" width="130" height="131">
<path d="M10 10.334H140V140.334H10V10.334Z" fill="white"/>
</mask>
<g mask="url(#mask0_259_1553)">
<path d="M47.0392 74.5686L75.7653 103.295C79.7316 107.261 86.162 107.261 90.1286 103.295L133.218 60.2057C137.184 56.2394 137.184 49.8087 133.218 45.8425L104.492 17.1163C100.525 13.15 94.0948 13.15 90.1286 17.1163L47.0392 60.2057C43.0729 64.1719 43.0729 70.6024 47.0392 74.5686Z" stroke="#663366" stroke-width="4" stroke-miterlimit="10" stroke-linecap="round" stroke-linejoin="round"/>
<path d="M39.8566 88.9329L61.4013 110.478C63.3843 112.461 66.5998 112.461 68.5828 110.478L75.7643 103.296L47.0381 74.5697L39.8566 81.7511C37.8733 83.7344 37.8733 86.9496 39.8566 88.9329Z" stroke="#663366" stroke-width="4" stroke-miterlimit="10" stroke-linecap="round" stroke-linejoin="round"/>
<path d="M80.2527 44.9459C87.1934 38.0048 98.4471 38.0048 105.388 44.9459C112.329 51.8867 112.329 63.1403 105.388 70.0813C98.4471 77.0224 87.1934 77.0224 80.2527 70.0813C73.3116 63.1403 73.3116 51.8867 80.2527 44.9459Z" stroke="#663366" stroke-width="4" stroke-miterlimit="10" stroke-linecap="round" stroke-linejoin="round"/>
<path d="M94.6158 44.944C97.5906 41.9692 102.413 41.9692 105.388 44.944C108.363 47.9187 108.363 52.7414 105.388 55.7162C102.413 58.691 97.5906 58.691 94.6158 55.7162C91.6411 52.7414 91.6411 47.9187 94.6158 44.944Z" stroke="#663366" stroke-width="4" stroke-miterlimit="10" stroke-linecap="round" stroke-linejoin="round"/>
<path d="M80.2533 70.0807L74.8672 75.4668" stroke="#663366" stroke-width="4" stroke-miterlimit="10" stroke-linecap="round" stroke-linejoin="round"/>
<path d="M37.9297 106.057C37.9297 108.16 36.2245 109.865 34.1211 109.865C32.0177 109.865 30.3125 108.16 30.3125 106.057C30.3125 103.953 32.0177 102.248 34.1211 102.248C36.2245 102.248 37.9297 103.953 37.9297 106.057Z" fill="#663366"/>
<path d="M37.9297 126.369C37.9297 128.473 36.2245 130.178 34.1211 130.178C32.0177 130.178 30.3125 128.473 30.3125 126.369C30.3125 124.266 32.0177 122.561 34.1211 122.561C36.2245 122.561 37.9297 124.266 37.9297 126.369Z" fill="#663366"/>
<path d="M27.7734 116.213C27.7734 118.316 26.0682 120.021 23.9648 120.021C21.8615 120.021 20.1562 118.316 20.1562 116.213C20.1562 114.11 21.8615 112.404 23.9648 112.404C26.0682 112.404 27.7734 114.11 27.7734 116.213Z" fill="#663366"/>
<path d="M48.0859 116.213C48.0859 118.316 46.3807 120.021 44.2773 120.021C42.174 120.021 40.4688 118.316 40.4688 116.213C40.4688 114.11 42.174 112.404 44.2773 112.404C46.3807 112.404 48.0859 114.11 48.0859 116.213Z" fill="#663366"/>
<path d="M17.6172 106.057C17.6172 108.16 15.912 109.865 13.8086 109.865C11.7052 109.865 10 108.16 10 106.057C10 103.953 11.7052 102.248 13.8086 102.248C15.912 102.248 17.6172 103.953 17.6172 106.057Z" fill="#663366"/>
<path d="M17.6172 126.369C17.6172 128.473 15.912 130.178 13.8086 130.178C11.7052 130.178 10 128.473 10 126.369C10 124.266 11.7052 122.561 13.8086 122.561C15.912 122.561 17.6172 124.266 17.6172 126.369Z" fill="#663366"/>
<path d="M27.7734 136.525C27.7734 138.629 26.0682 140.334 23.9648 140.334C21.8615 140.334 20.1562 138.629 20.1562 136.525C20.1562 134.422 21.8615 132.717 23.9648 132.717C26.0682 132.717 27.7734 134.422 27.7734 136.525Z" fill="#663366"/>
<path d="M48.0859 136.525C48.0859 138.629 46.3807 140.334 44.2773 140.334C42.174 140.334 40.4688 138.629 40.4688 136.525C40.4688 134.422 42.174 132.717 44.2773 132.717C46.3807 132.717 48.0859 134.422 48.0859 136.525Z" fill="#663366"/>
</g>
</svg>
