<svg width="150" height="150" viewBox="0 0 150 150" fill="none" xmlns="http://www.w3.org/2000/svg">
<path d="M61.3215 51.412C61.5449 51.5136 61.7683 51.5745 61.9917 51.5745C62.5603 51.5745 63.0884 51.2699 63.3524 50.7215C64.5913 48.2438 66.744 46.2535 69.4655 45.0958C71.4558 44.2428 73.3243 43.1664 74.9896 41.887C76.6753 43.1868 78.5235 44.2631 80.4935 45.0958C83.1946 46.2535 85.3677 48.2438 86.6066 50.7215C86.9721 51.473 87.9064 51.7776 88.6578 51.412C89.4093 51.0465 89.7139 50.1325 89.3483 49.3608C87.8048 46.2535 85.0834 43.7351 81.712 42.2931C79.6405 41.4198 77.7111 40.2216 76.0051 38.7796C75.4364 38.2922 74.6037 38.2922 74.0351 38.7796C72.3494 40.2216 70.42 41.3995 68.3079 42.2931C64.9365 43.7351 62.2151 46.2332 60.6512 49.3608C60.2654 50.1122 60.57 51.0262 61.3215 51.412Z" fill="#663366"/>
<path d="M119.183 25.8407C119.975 25.4954 120.747 25.1096 121.478 24.6831C122.209 25.1096 122.981 25.5158 123.773 25.8407C123.976 25.9219 124.179 25.9626 124.362 25.9626C124.951 25.9626 125.52 25.6173 125.763 25.0283C126.088 24.2566 125.723 23.363 124.951 23.038C124.037 22.6521 123.144 22.1647 122.311 21.6164C121.803 21.2711 121.133 21.2711 120.625 21.6164C119.792 22.1647 118.899 22.6318 117.965 23.038C117.193 23.363 116.827 24.2566 117.152 25.0283C117.518 25.8001 118.411 26.1657 119.183 25.8407Z" fill="#663366"/>
<path d="M121.478 48.668C118.269 48.668 115.669 51.2676 115.669 54.4764V64.3874C115.669 65.2201 116.36 65.9106 117.193 65.9106H125.763C126.596 65.9106 127.286 65.2201 127.286 64.3874V54.4764C127.286 51.2676 124.666 48.668 121.478 48.668ZM124.24 62.8642H118.716V54.4764C118.716 52.9532 119.955 51.7144 121.478 51.7144C123.001 51.7144 124.24 52.9532 124.24 54.4764V62.8642Z" fill="#663366"/>
<path d="M125.763 41.4004H117.193C116.36 41.4004 115.669 42.0909 115.669 42.9236C115.669 43.7563 116.36 44.4468 117.193 44.4468H125.763C126.596 44.4468 127.286 43.7563 127.286 42.9236C127.286 42.0909 126.596 41.4004 125.763 41.4004Z" fill="#663366"/>
<path d="M25.618 25.9628C25.8211 25.9628 26.0242 25.9222 26.207 25.841C26.9991 25.4957 27.7708 25.1098 28.5019 24.6833C29.2331 25.1098 30.0048 25.4957 30.7969 25.841C31.5687 26.1659 32.4623 25.8207 32.7872 25.0286C33.1122 24.2365 32.7669 23.3632 31.9748 23.0383C31.0406 22.6321 30.147 22.165 29.3143 21.6166C28.8066 21.2714 28.1364 21.2917 27.6287 21.6166C26.796 22.165 25.9227 22.6524 24.9884 23.0383C24.2167 23.3632 23.8511 24.2568 24.1761 25.0286C24.4604 25.6176 25.0291 25.9628 25.618 25.9628Z" fill="#663366"/>
<path d="M139.98 77.9144V74.6852C139.98 72.7761 138.477 71.2326 136.588 71.1514V36.6661C136.588 35.7319 136.222 34.8992 135.633 34.2696C136.243 32.7058 136.588 31.0608 136.588 29.3954C136.588 23.851 133.115 18.7939 127.733 16.4787C126.555 15.9709 125.499 15.2398 124.666 14.3259C123.793 13.3713 123.224 12.295 122.96 11.1779C122.798 10.5077 122.189 10.0203 121.478 10.0203C120.808 10.0406 120.158 10.5077 119.995 11.1779C119.427 13.4932 117.68 15.4226 115.202 16.4787C109.82 18.7736 106.347 23.8307 106.347 29.3954C106.347 31.0608 106.672 32.7058 107.302 34.2696C106.713 34.8992 106.347 35.7319 106.347 36.6661V71.1108H95.9085V63.7182C97.1879 60.9967 97.8378 58.1331 97.8378 55.1883C97.8378 46.8411 92.598 39.2048 84.454 35.7319C82.484 34.8992 80.7171 33.6604 79.3564 32.1575C78.3206 31.0202 77.5488 29.7813 77.0208 28.4612C77.2036 28.4206 77.3863 28.4003 77.5894 28.3393C81.6919 27.2223 84.4134 23.5463 84.3524 19.2001C84.3524 19.2001 84.3524 19.1189 84.3524 19.0986C84.3321 18.2456 83.7635 17.5551 82.9511 17.3317C82.1184 17.1286 81.2857 17.4738 80.8592 18.2253C80.25 19.322 79.0923 19.9922 77.8332 19.9922C75.9038 19.9922 74.3399 18.4284 74.3399 16.5193C74.3399 15.2601 75.0102 14.1228 76.1069 13.4932C76.838 13.0667 77.2036 12.2137 77.0005 11.4013C76.7974 10.5687 76.0865 10.0203 75.1726 10C75.0914 10.0203 75.0508 10.0203 74.9898 10.0203C70.7249 10.0203 67.1098 12.7011 65.9928 16.7427C65.0586 20.0937 65.9522 23.526 68.3487 25.9428C69.6485 27.2426 71.2529 28.0956 72.9589 28.4612C71.6794 31.6294 69.0392 34.229 65.5054 35.7319C57.3817 39.1845 52.1215 46.8208 52.1215 55.1883C52.1215 58.1331 52.7918 60.9967 54.0509 63.7182V71.1108H43.6119V36.6661C43.6119 35.7319 43.2464 34.8992 42.6574 34.2696C43.2667 32.7058 43.6119 31.0608 43.6119 29.3954C43.6119 23.8307 40.139 18.7736 34.7571 16.499C32.2793 15.4429 30.5327 13.5135 29.9641 11.1779C29.8219 10.5077 29.1923 10.0609 28.5018 10.0203C27.791 10.0203 27.1817 10.5077 27.0192 11.1983C26.7552 12.3356 26.1662 13.3917 25.3132 14.3462C24.4805 15.2601 23.4245 15.9913 22.2465 16.499C16.8646 18.7939 13.3917 23.8713 13.3917 29.3954C13.3917 31.0608 13.7166 32.7058 14.3462 34.2696C13.7572 34.8992 13.3917 35.7319 13.3917 36.6661V71.1514C11.5029 71.2326 10 72.7761 10 74.6852V77.9144C10 79.8235 11.5029 81.367 13.3917 81.4482V129.683C11.5029 129.764 10 131.308 10 133.217V136.446C10 138.396 11.6044 140 13.5541 140H136.426C138.375 140 139.98 138.396 139.98 136.446V133.217C139.98 131.308 138.477 129.764 136.588 129.683V81.4482C138.477 81.3467 139.98 79.8032 139.98 77.9144ZM128.464 129.663V101.676C128.464 97.452 125.824 93.6135 121.742 91.8669C120.93 91.5216 120.198 91.0139 119.65 90.4046C119.061 89.7547 118.675 89.0439 118.492 88.2721C118.33 87.5816 117.721 87.0942 117.01 87.0942C116.299 87.0942 115.69 87.5816 115.527 88.2518C115.141 89.8157 113.963 91.1358 112.257 91.8466C108.175 93.5729 105.535 97.4316 105.535 101.656V129.642H100.458V101.676C100.458 97.452 97.8175 93.6135 93.7354 91.8669C92.923 91.5216 92.1918 91.0139 91.6435 90.4046C91.0545 89.7547 90.6686 89.0439 90.4859 88.2721C90.3234 87.5816 89.7141 87.0942 89.0033 87.0942C88.2925 87.0942 87.6832 87.5816 87.5207 88.2518C87.1348 89.8157 85.9569 91.1358 84.2509 91.8466C80.1687 93.5729 77.5285 97.4316 77.5285 101.656V129.642H72.4512V101.676C72.4512 97.452 69.811 93.6135 65.7288 91.8669C64.9164 91.5216 64.1853 91.0139 63.6369 90.4046C63.048 89.7547 62.6621 89.0439 62.4793 88.2721C62.3168 87.5816 61.7075 87.0942 60.9967 87.0942C60.2859 87.0942 59.6766 87.5816 59.5141 88.2518C59.1283 89.8157 57.9503 91.1358 56.2443 91.8466C52.1622 93.5729 49.5219 97.4316 49.5219 101.656V129.642H44.4446V101.676C44.4446 97.452 41.8044 93.6135 37.7222 91.8669C36.9099 91.5216 36.1787 91.0139 35.6304 90.4046C35.0414 89.7547 34.6555 89.0439 34.4727 88.2721C34.3103 87.5816 33.701 87.0942 32.9902 87.0942C32.2793 87.0942 31.6701 87.5816 31.5076 88.2518C31.1217 89.8157 29.9438 91.1358 28.2378 91.8466C24.1556 93.5729 21.5154 97.4316 21.5154 101.656V129.642H16.4381V81.4685H133.562V129.663H128.464ZM108.581 129.663V103.199H125.418V129.663H108.581ZM108.744 100.153C109.272 97.7769 110.998 95.7054 113.456 94.6696C114.898 94.0603 116.116 93.1261 117.01 91.9888C117.132 92.1309 117.254 92.2934 117.375 92.4356C118.228 93.3698 119.325 94.1415 120.544 94.6696C123.001 95.7257 124.727 97.7769 125.255 100.153H108.744ZM80.5749 129.663V103.199H97.4113V129.663H80.5749ZM80.7374 100.153C81.2654 97.7769 82.9917 95.7054 85.4492 94.6696C86.8911 94.0603 88.1097 93.1261 89.0033 92.0091C89.1251 92.1512 89.247 92.3137 89.3689 92.4559C90.2218 93.3901 91.3185 94.1618 92.5371 94.6899C94.9945 95.746 96.7208 97.7972 97.2489 100.173H80.7374V100.153ZM52.5683 129.663V103.199H69.4048V129.663H52.5683ZM52.7308 100.153C53.2589 97.7769 54.9852 95.7054 57.4426 94.6696C58.8846 94.0603 60.1031 93.1261 60.9967 91.9888C61.1186 92.1309 61.2404 92.2934 61.3623 92.4356C62.2153 93.3698 63.312 94.1415 64.5305 94.6696C66.988 95.7257 68.7143 97.7769 69.2423 100.153H52.7308ZM24.5618 129.663V103.199H41.3982V129.663H24.5618ZM24.7243 100.153C25.2523 97.7769 26.9786 95.7054 29.436 94.6696C30.878 94.0603 32.0965 93.1261 32.9902 91.9888C33.112 92.1309 33.2339 92.2934 33.3557 92.4356C34.2087 93.3698 35.3054 94.1415 36.524 94.6696C38.9814 95.7257 40.7077 97.7769 41.2357 100.153H24.7243ZM116.401 19.3017C118.533 18.3878 120.28 16.9661 121.478 15.2195C121.762 15.6257 122.067 16.0116 122.412 16.3974C123.529 17.6363 124.951 18.6315 126.535 19.3017C130.8 21.1295 133.542 25.0898 133.542 29.4157C133.542 30.6952 133.298 31.9341 132.831 33.1323H110.105C109.638 31.9341 109.394 30.6952 109.394 29.4157C109.394 25.0695 112.136 21.1092 116.401 19.3017ZM109.394 36.6661C109.394 36.3818 109.617 36.1584 109.902 36.1584H133.034C133.318 36.1584 133.542 36.3818 133.542 36.6661V71.1108H109.394V36.6661ZM68.9377 17.5551C69.3845 15.9303 70.4406 14.6305 71.8622 13.8588C71.4763 14.6915 71.2732 15.6054 71.2732 16.5396C71.2732 20.1344 74.1978 23.0589 77.8128 23.0589C78.7674 23.0589 79.6813 22.8558 80.514 22.4699C79.7422 23.8916 78.4221 24.968 76.7771 25.4148C74.4821 26.0241 72.1465 25.4351 70.5015 23.79C68.897 22.1653 68.3081 19.8297 68.9377 17.5551ZM66.7036 38.5549C70.3593 36.9911 73.2432 34.4524 75.0102 31.3045C75.5788 32.3199 76.2896 33.2948 77.102 34.2087C78.7674 36.0569 80.9202 37.5394 83.2761 38.5549C90.2828 41.5404 94.7914 48.08 94.7914 55.2086C94.7914 57.5035 94.3243 59.7578 93.4104 61.9106H56.5693C55.6554 59.7578 55.1883 57.5035 55.1883 55.2086C55.1883 48.0597 59.6969 41.5201 66.7036 38.5549ZM57.1176 64.957H92.8621V71.1311H57.1176V64.957ZM16.4381 71.1311V36.6661C16.4381 36.3818 16.6615 36.1584 16.9458 36.1584H40.0781C40.3624 36.1584 40.5858 36.3818 40.5858 36.6661V71.1108H16.4381V71.1311ZM23.4448 19.3017C25.0289 18.6315 26.4506 17.6363 27.5879 16.3974C27.9331 16.0116 28.2378 15.6257 28.5018 15.2195C29.7 16.9661 31.4467 18.3878 33.5791 19.3017C37.8441 21.1092 40.5858 25.0695 40.5858 29.3954C40.5858 30.6749 40.3421 31.9138 39.875 33.112H17.1489C16.6818 31.9138 16.4381 30.6546 16.4381 29.3954C16.4381 25.0898 19.1798 21.1092 23.4448 19.3017ZM13.0464 77.9144V74.6852C13.0464 74.4009 13.2698 74.1775 13.5541 74.1775H136.426C136.71 74.1775 136.933 74.4009 136.933 74.6852V77.9144C136.933 78.1987 136.71 78.4221 136.426 78.4221H13.5541C13.2698 78.4221 13.0464 78.1784 13.0464 77.9144ZM136.933 133.217V136.446C136.933 136.73 136.71 136.954 136.426 136.954H13.5541C13.2698 136.954 13.0464 136.73 13.0464 136.446V133.217C13.0464 132.932 13.2698 132.709 13.5541 132.709H136.426C136.71 132.709 136.933 132.932 136.933 133.217Z" fill="#663366"/>
<path d="M28.5221 48.668C25.3132 48.668 22.7136 51.2676 22.7136 54.4764V64.3874C22.7136 65.2201 23.4041 65.9106 24.2368 65.9106H32.8074C33.64 65.9106 34.3306 65.2201 34.3306 64.3874V54.4764C34.3306 51.2676 31.7107 48.668 28.5221 48.668ZM31.2842 62.8642H25.76V54.4764C25.76 52.9532 26.9989 51.7144 28.5221 51.7144C30.0453 51.7144 31.2842 52.9532 31.2842 54.4764V62.8642Z" fill="#663366"/>
<path d="M32.8074 41.4004H24.2166C23.3839 41.4004 22.6934 42.0909 22.6934 42.9236C22.6934 43.7563 23.3839 44.4468 24.2166 44.4468H32.7871C33.6198 44.4468 34.3103 43.7563 34.3103 42.9236C34.3103 42.0909 33.6401 41.4004 32.8074 41.4004Z" fill="#663366"/>
</svg>
