<svg width="150" height="150" viewBox="0 0 150 150" fill="none" xmlns="http://www.w3.org/2000/svg">
<path d="M60.1627 11C59.6674 11 59.1923 11.1968 58.842 11.5471C58.4917 11.8974 58.2949 12.3724 58.2949 12.8678V13.8017C58.2969 16.2126 59.2555 18.5242 60.9602 20.2289C62.665 21.9337 64.9766 22.8923 67.3875 22.8943H94.5305C95.5907 22.8943 96.6073 23.3154 97.3569 24.065C98.1066 24.8146 98.5277 25.8313 98.5277 26.8914C98.5277 27.9515 98.1066 28.9682 97.3569 29.7178C96.6073 30.4674 95.5907 30.8885 94.5305 30.8885H80.2754C79.78 30.8885 79.3049 31.0853 78.9546 31.4356C78.6044 31.7859 78.4076 32.2609 78.4076 32.7563C78.4076 33.2517 78.6044 33.7268 78.9546 34.0771C79.3049 34.4274 79.78 34.6241 80.2754 34.6241H94.5305C96.5814 34.6241 98.5483 33.8094 99.9984 32.3593C101.449 30.9091 102.263 28.9422 102.263 26.8914C102.263 24.8405 101.449 22.8737 99.9984 21.4235C98.5483 19.9733 96.5814 19.1586 94.5305 19.1586H67.3875C65.9673 19.1566 64.6059 18.5916 63.6017 17.5874C62.5976 16.5833 62.0325 15.2219 62.0306 13.8017V12.8977C62.0345 12.6499 61.9891 12.4038 61.897 12.1737C61.805 11.9437 61.668 11.7342 61.4942 11.5576C61.3203 11.381 61.1131 11.2407 60.8845 11.145C60.6559 11.0493 60.4106 11 60.1627 11Z" fill="#663366"/>
<path d="M43.4863 40.7362C43.4863 43.3121 44.5096 45.7826 46.3311 47.604C48.1526 49.4255 50.623 50.4488 53.199 50.4488H66.0047C66.5001 50.4488 66.9752 50.252 67.3255 49.9017C67.6757 49.5515 67.8725 49.0764 67.8725 48.581C67.8725 48.0856 67.6757 47.6105 67.3255 47.2603C66.9752 46.91 66.5001 46.7132 66.0047 46.7132H53.1766C51.6865 46.5838 50.2991 45.9004 49.2883 44.798C48.2775 43.6956 47.7167 42.2543 47.7167 40.7586C47.7167 39.2629 48.2775 37.8216 49.2883 36.7192C50.2991 35.6168 51.6865 34.9334 53.1766 34.804H66.2662C66.7616 34.804 67.2367 34.6072 67.587 34.2569C67.9372 33.9066 68.134 33.4316 68.134 32.9362C68.134 32.4408 67.9372 31.9657 67.587 31.6154C67.2367 31.2651 66.7616 31.0684 66.2662 31.0684H53.1766C50.6122 31.0742 48.1543 32.094 46.3389 33.9052C44.5236 35.7163 43.4982 38.1719 43.4863 40.7362Z" fill="#663366"/>
<path d="M59.7363 64.0842C59.7363 64.5796 59.9331 65.0547 60.2834 65.405C60.6337 65.7553 61.1088 65.9521 61.6041 65.9521C62.0995 65.9521 62.5746 65.7553 62.9249 65.405C63.2752 65.0547 63.472 64.5796 63.472 64.0842C63.472 63.0737 63.8734 62.1045 64.588 61.3899C65.3026 60.6753 66.2717 60.2739 67.2823 60.2739H90.8392C93.147 60.2719 95.3598 59.3543 96.9917 57.7224C98.6236 56.0905 99.5412 53.8777 99.5432 51.5699C99.5463 50.4043 99.3125 49.2503 98.8559 48.1779C98.7577 47.9528 98.6162 47.7491 98.4394 47.5786C98.2626 47.4081 98.054 47.2741 97.8254 47.1843C97.5968 47.0945 97.3527 47.0505 97.1071 47.055C96.8615 47.0595 96.6193 47.1123 96.3941 47.2104C96.1689 47.3085 95.9653 47.45 95.7948 47.6268C95.6243 47.8036 95.4903 48.0123 95.4005 48.2409C95.3106 48.4695 95.2667 48.7136 95.2712 48.9591C95.2756 49.2047 95.3284 49.447 95.4266 49.6722C95.681 50.2802 95.8106 50.9332 95.8076 51.5923C95.8076 52.91 95.2841 54.1737 94.3524 55.1055C93.4206 56.0372 92.1569 56.5607 90.8392 56.5607H67.2823C65.2855 56.5626 63.3707 57.3552 61.9566 58.7651C60.5425 60.175 59.7442 62.0874 59.7363 64.0842Z" fill="#663366"/>
<path d="M39.1611 57.4479C39.1602 57.6935 39.2078 57.9368 39.3013 58.1638C39.3948 58.3909 39.5324 58.5972 39.706 58.7708C39.8797 58.9445 40.086 59.082 40.313 59.1755C40.5401 59.2691 40.7834 59.3167 41.029 59.3157H48.8514C49.3468 59.3157 49.8218 59.1189 50.1721 58.7686C50.5224 58.4183 50.7192 57.9433 50.7192 57.4479C50.7192 56.9525 50.5224 56.4774 50.1721 56.1271C49.8218 55.7769 49.3468 55.5801 48.8514 55.5801H41.0066C40.5151 55.586 40.0457 55.7854 39.7003 56.135C39.3548 56.4847 39.1611 56.9564 39.1611 57.4479Z" fill="#663366"/>
<path d="M88.075 50.427C88.5704 50.427 89.0454 50.2303 89.3957 49.88C89.746 49.5297 89.9428 49.0546 89.9428 48.5592C89.9428 48.0638 89.746 47.5888 89.3957 47.2385C89.0454 46.8882 88.5704 46.6914 88.075 46.6914H73.2819C72.7865 46.6914 72.3114 46.8882 71.9611 47.2385C71.6109 47.5888 71.4141 48.0638 71.4141 48.5592C71.4141 49.0546 71.6109 49.5297 71.9611 49.88C72.3114 50.2303 72.7865 50.427 73.2819 50.427H88.075Z" fill="#663366"/>
<path d="M24.8156 60.8031C25.1663 61.1538 25.642 61.3508 26.138 61.3508C26.634 61.3508 27.1097 61.1538 27.4604 60.8031C27.8111 60.4524 28.0082 59.9767 28.0082 59.4807C28.0082 58.9847 27.8111 58.509 27.4604 58.1583L25.4282 56.1261C25.0755 55.7863 24.6034 55.5987 24.1136 55.6036C23.6239 55.6085 23.1557 55.8056 22.8098 56.1525C22.464 56.4993 22.2682 56.968 22.2647 57.4578C22.2611 57.9476 22.4501 58.4191 22.7909 58.7709L24.8156 60.8031Z" fill="#663366"/>
<path d="M22.7919 68.4927C22.9635 68.6668 23.1683 68.8048 23.3942 68.8985C23.62 68.9922 23.8624 69.0396 24.1068 69.0381C24.3524 69.039 24.5956 68.9912 24.8226 68.8976C25.0495 68.804 25.2557 68.6664 25.4293 68.4927L27.3718 66.5502C27.7126 66.1984 27.9015 65.7269 27.898 65.2371C27.8944 64.7473 27.6986 64.2786 27.3528 63.9318C27.007 63.5849 26.5388 63.3878 26.049 63.3829C25.5593 63.378 25.0872 63.5656 24.7344 63.9054L22.7919 65.8479C22.618 66.0214 22.48 66.2275 22.3858 66.4544C22.2916 66.6814 22.2432 66.9246 22.2432 67.1703C22.2432 67.416 22.2916 67.6593 22.3858 67.8862C22.48 68.1131 22.618 68.3192 22.7919 68.4927Z" fill="#663366"/>
<path d="M31.9129 60.9523C32.1584 60.9532 32.4016 60.9054 32.6286 60.8118C32.8556 60.7182 33.0618 60.5806 33.2353 60.4069L34.879 58.7707C35.2297 58.42 35.4267 57.9443 35.4267 57.4483C35.4267 56.9523 35.2297 56.4766 34.879 56.1259C34.7053 55.9522 34.4991 55.8145 34.2722 55.7205C34.0453 55.6265 33.8021 55.5781 33.5566 55.5781C33.0605 55.5781 32.5849 55.7752 32.2341 56.1259L30.5905 57.7621C30.2428 58.1144 30.0479 58.5895 30.0479 59.0845C30.0479 59.5795 30.2428 60.0546 30.5905 60.4069C30.764 60.5806 30.9702 60.7182 31.1971 60.8118C31.4241 60.9054 31.6674 60.9532 31.9129 60.9523Z" fill="#663366"/>
<path d="M30.5907 66.8547L32.2344 68.4909C32.5858 68.8404 33.0612 69.0366 33.5568 69.0366C34.0524 69.0366 34.5278 68.8404 34.8792 68.4909C35.2269 68.1386 35.4218 67.6635 35.4218 67.1685C35.4218 66.6735 35.2269 66.1984 34.8792 65.8461L33.2356 64.2099C32.8848 63.8591 32.4091 63.6621 31.9131 63.6621C31.4171 63.6621 30.9415 63.8591 30.5907 64.2099C30.24 64.5606 30.043 65.0363 30.043 65.5323C30.043 66.0283 30.24 66.504 30.5907 66.8547Z" fill="#663366"/>
<path d="M113.738 27.3618C113.911 27.5399 114.117 27.6819 114.345 27.7795C114.573 27.877 114.818 27.9282 115.066 27.93C115.314 27.9318 115.56 27.8842 115.79 27.7899C116.019 27.6957 116.227 27.5567 116.403 27.3811C116.578 27.2055 116.716 26.9967 116.81 26.7671C116.903 26.5374 116.95 26.2914 116.948 26.0434C116.945 25.7954 116.893 25.5504 116.795 25.3226C116.697 25.0949 116.554 24.889 116.376 24.717L114.351 22.6922C113.999 22.3515 113.528 22.1625 113.038 22.1661C112.548 22.1696 112.079 22.3654 111.733 22.7112C111.386 23.057 111.189 23.5253 111.184 24.015C111.179 24.5048 111.366 24.9769 111.706 25.3296L113.738 27.3618Z" fill="#663366"/>
<path d="M111.707 35.0504C111.88 35.2252 112.086 35.364 112.313 35.4587C112.54 35.5535 112.784 35.6022 113.03 35.6022C113.275 35.6022 113.519 35.5535 113.746 35.4587C113.973 35.364 114.179 35.2252 114.352 35.0504L116.302 33.1078C116.48 32.9353 116.622 32.729 116.72 32.501C116.817 32.273 116.868 32.0278 116.87 31.7798C116.872 31.5318 116.824 31.2859 116.73 31.0565C116.636 30.8271 116.497 30.6188 116.321 30.4436C116.146 30.2685 115.937 30.1301 115.707 30.0365C115.478 29.9429 115.232 29.896 114.984 29.8985C114.736 29.901 114.491 29.9529 114.263 30.0511C114.035 30.1493 113.829 30.2919 113.657 30.4705L111.707 32.413C111.358 32.7631 111.162 33.2373 111.162 33.7317C111.162 34.2261 111.358 34.7003 111.707 35.0504Z" fill="#663366"/>
<path d="M119.514 24.3293C119.335 24.5019 119.193 24.7082 119.096 24.9362C118.998 25.1642 118.947 25.4094 118.945 25.6574C118.944 25.9054 118.991 26.1513 119.085 26.3807C119.18 26.6101 119.319 26.8184 119.494 26.9935C119.67 27.1687 119.879 27.3071 120.108 27.4006C120.338 27.4942 120.584 27.5412 120.832 27.5387C121.08 27.5362 121.325 27.4843 121.553 27.3861C121.78 27.2879 121.986 27.1453 122.158 26.9667L123.802 25.3305C123.98 25.1579 124.122 24.9516 124.22 24.7236C124.317 24.4956 124.368 24.2504 124.37 24.0024C124.372 23.7544 124.324 23.5086 124.23 23.2792C124.136 23.0498 123.997 22.8414 123.821 22.6663C123.646 22.4912 123.437 22.3528 123.207 22.2592C122.978 22.1656 122.732 22.1187 122.484 22.1212C122.236 22.1237 121.991 22.1755 121.763 22.2737C121.535 22.3719 121.329 22.5145 121.157 22.6931L119.514 24.3293Z" fill="#663366"/>
<path d="M119.514 33.4145L121.157 35.0507C121.329 35.2293 121.535 35.3719 121.763 35.4701C121.991 35.5683 122.236 35.6201 122.484 35.6226C122.732 35.6251 122.978 35.5782 123.207 35.4846C123.437 35.391 123.646 35.2526 123.821 35.0775C123.997 34.9024 124.136 34.6941 124.23 34.4647C124.324 34.2353 124.372 33.9894 124.37 33.7414C124.368 33.4934 124.317 33.2482 124.22 33.0202C124.122 32.7922 123.98 32.5859 123.802 32.4133L122.158 30.7771C121.986 30.5985 121.78 30.4559 121.553 30.3577C121.325 30.2595 121.08 30.2077 120.832 30.2052C120.584 30.2027 120.338 30.2496 120.108 30.3432C119.879 30.4368 119.67 30.5752 119.494 30.7503C119.319 30.9254 119.18 31.1337 119.085 31.3631C118.991 31.5926 118.944 31.8384 118.945 32.0864C118.947 32.3344 118.998 32.5796 119.096 32.8076C119.193 33.0356 119.335 33.2419 119.514 33.4145Z" fill="#663366"/>
<path d="M127.045 134.305H118.035C117.539 134.305 117.064 134.501 116.714 134.852C116.364 135.202 116.167 135.677 116.167 136.173C116.167 136.668 116.364 137.143 116.714 137.493C117.064 137.844 117.539 138.04 118.035 138.04H127.045C127.541 138.04 128.016 137.844 128.366 137.493C128.716 137.143 128.913 136.668 128.913 136.173C128.913 135.677 128.716 135.202 128.366 134.852C128.016 134.501 127.541 134.305 127.045 134.305Z" fill="#663366"/>
<path d="M18.592 116.561H11.8678C11.3724 116.561 10.8974 116.757 10.5471 117.108C10.1968 117.458 10 117.933 10 118.428C10 118.924 10.1968 119.399 10.5471 119.749C10.8974 120.099 11.3724 120.296 11.8678 120.296H18.592C19.0873 120.296 19.5624 120.099 19.9127 119.749C20.263 119.399 20.4598 118.924 20.4598 118.428C20.4598 117.933 20.263 117.458 19.9127 117.108C19.5624 116.757 19.0873 116.561 18.592 116.561Z" fill="#663366"/>
<path d="M138.132 95.9414H128.86C129.299 93.7218 129.591 91.4755 129.734 89.2172C129.76 88.6077 129.663 87.9991 129.448 87.4279C129.234 86.8567 128.907 86.3345 128.486 85.8925C128.069 85.4523 127.566 85.1014 127.008 84.8613C126.451 84.6211 125.851 84.4967 125.244 84.4954H101.687C101.814 84.1069 101.889 83.6885 101.986 83.2851H102.15L118.871 79.8184C119.302 80.939 120.056 81.9064 121.037 82.5977C122.053 83.2671 123.243 83.623 124.459 83.6213C124.886 83.6238 125.312 83.5813 125.729 83.4943C126.934 83.253 128.04 82.6588 128.906 81.7873C129.773 80.9158 130.36 79.8064 130.594 78.6001C130.828 77.3938 130.698 76.1452 130.22 75.0131C129.742 73.881 128.938 72.9166 127.911 72.2425C128.798 70.8783 129.112 69.2194 128.785 67.6253C128.622 66.8119 128.299 66.039 127.835 65.3515C127.37 64.6641 126.774 64.0757 126.081 63.6207C125.404 63.1712 124.644 62.8616 123.846 62.7102C123.048 62.5588 122.228 62.5686 121.433 62.7391C120.033 63.0379 118.777 63.8103 117.879 64.9261C116.981 66.0419 116.495 67.4332 116.502 68.8655L99.6099 72.3621C98.254 70.4519 96.4285 68.9238 94.3096 67.9252C92.1907 66.9266 89.8501 66.4914 87.5139 66.6615L65.5559 68.4546C61.5036 68.7934 57.7186 70.615 54.9257 73.5705C52.1328 76.5261 50.5282 80.408 50.4191 84.473H49.1116C49.1446 83.812 49.0244 83.1523 48.7605 82.5454C48.532 82.0327 48.2005 81.5726 47.7866 81.1934C47.3728 80.8142 46.8854 80.5242 46.3547 80.3414L40.6317 78.1C40.0979 77.8826 39.5258 77.7744 38.9495 77.7819C38.3731 77.7894 37.804 77.9124 37.276 78.1437C36.748 78.375 36.2718 78.7098 35.8754 79.1283C35.4791 79.5469 35.1707 80.0406 34.9685 80.5805L33.4743 84.4581H31.4794C30.8458 84.4589 30.2194 84.5922 29.6403 84.8496C29.0613 85.1069 28.5426 85.4825 28.1174 85.9523C27.7155 86.3865 27.4089 86.8999 27.2172 87.4596C27.0255 88.0193 26.9529 88.6129 27.0041 89.2023C27.3175 94.7141 28.5131 100.14 30.5455 105.273H15.2145C14.7191 105.273 14.244 105.47 13.8937 105.82C13.5435 106.17 13.3467 106.645 13.3467 107.141C13.3467 107.636 13.5435 108.111 13.8937 108.462C14.244 108.812 14.7191 109.009 15.2145 109.009H33.3472C33.662 109.003 33.9705 108.92 34.2449 108.766C34.5193 108.611 34.7511 108.391 34.9193 108.125C35.0876 107.859 35.187 107.556 35.2086 107.242C35.2302 106.928 35.1734 106.613 35.0432 106.326C32.5261 100.845 31.0612 94.9403 30.7248 88.9184C30.7176 88.8373 30.7286 88.7556 30.757 88.6794C30.7855 88.6031 30.8306 88.5341 30.8892 88.4776C30.961 88.3913 31.0514 88.3223 31.1536 88.2757C31.2558 88.2291 31.3672 88.2062 31.4794 88.2086H125.244C125.344 88.209 125.444 88.2297 125.536 88.2695C125.629 88.3093 125.712 88.3674 125.782 88.4402C125.925 88.594 126.003 88.7978 125.998 89.0081C125.851 91.3391 125.534 93.6564 125.05 95.9414H115.628C115.133 95.9414 114.658 96.1382 114.308 96.4884C113.957 96.8387 113.76 97.3138 113.76 97.8092C113.76 98.3046 113.957 98.7797 114.308 99.1299C114.658 99.4802 115.133 99.677 115.628 99.677H124.138C121.838 107.616 117.513 114.82 111.588 120.583C105.663 126.346 98.3416 130.47 90.3421 132.55C82.3426 134.629 73.9398 134.593 65.9584 132.445C57.9769 130.297 50.691 126.111 44.8156 120.298H50.1875C50.6828 120.298 51.1579 120.101 51.5082 119.751C51.8585 119.4 52.0553 118.925 52.0553 118.43C52.0553 117.935 51.8585 117.459 51.5082 117.109C51.1579 116.759 50.6828 116.562 50.1875 116.562H40.6467C40.6069 116.558 40.5669 116.558 40.5271 116.562H27.161C26.6657 116.562 26.1906 116.759 25.8403 117.109C25.49 117.459 25.2932 117.935 25.2932 118.43C25.2932 118.925 25.49 119.4 25.8403 119.751C26.1906 120.101 26.6657 120.298 27.161 120.298H39.6829C45.1574 126.526 52.0616 131.333 59.803 134.306H33.534C33.0387 134.306 32.5636 134.503 32.2133 134.853C31.863 135.204 31.6662 135.679 31.6662 136.174C31.6662 136.67 31.863 137.145 32.2133 137.495C32.5636 137.845 33.0387 138.042 33.534 138.042H105.602C106.097 138.042 106.572 137.845 106.923 137.495C107.273 137.145 107.47 136.67 107.47 136.174C107.47 135.679 107.273 135.204 106.923 134.853C106.572 134.503 106.097 134.306 105.602 134.306H96.9725C104.506 131.378 111.245 126.717 116.643 120.701C122.041 114.685 125.948 107.483 128.045 99.677H138.132C138.627 99.677 139.102 99.4802 139.452 99.1299C139.803 98.7797 140 98.3046 140 97.8092C140 97.3138 139.803 96.8387 139.452 96.4884C139.102 96.1382 138.627 95.9414 138.132 95.9414ZM126.551 78.7575C126.189 79.3108 125.622 79.6978 124.975 79.8333C124.326 79.9616 123.653 79.8302 123.1 79.4672C122.551 79.1028 122.17 78.536 122.039 77.8908C121.965 77.5703 121.956 77.2384 122.012 76.9143C122.067 76.5903 122.187 76.2805 122.364 76.0031C122.54 75.7257 122.77 75.4862 123.04 75.2985C123.31 75.1108 123.615 74.9787 123.936 74.9098C124.103 74.8739 124.274 74.8564 124.444 74.8575C124.929 74.8545 125.403 74.9977 125.804 75.2684C126.081 75.4449 126.319 75.6755 126.503 75.9465C126.688 76.2174 126.816 76.523 126.88 76.8448C126.953 77.1648 126.961 77.496 126.905 77.8193C126.848 78.1425 126.728 78.4513 126.551 78.7276V78.7575ZM119.08 72.1454C119.37 72.0837 119.641 71.9548 119.871 71.7691C120.102 71.5834 120.285 71.3462 120.408 71.0765C120.53 70.8068 120.587 70.5122 120.574 70.2164C120.562 69.9206 120.48 69.6319 120.335 69.3736C120.259 69.0525 120.248 68.7196 120.303 68.3943C120.358 68.069 120.477 67.7579 120.654 67.4794C120.831 67.201 121.062 66.9607 121.333 66.7727C121.604 66.5848 121.91 66.453 122.233 66.3851C122.546 66.3154 122.87 66.3107 123.184 66.3711C123.499 66.4314 123.798 66.5557 124.063 66.7362C124.347 66.9223 124.589 67.1639 124.777 67.4464C124.964 67.7289 125.093 68.0465 125.154 68.3799C125.224 68.6952 125.228 69.0214 125.168 69.3386C125.108 69.6559 124.983 69.9575 124.803 70.2253C124.627 70.4983 124.398 70.7333 124.13 70.9168C123.862 71.1002 123.56 71.2284 123.241 71.2937C122.063 71.5335 120.981 72.1159 120.132 72.9678C119.282 73.8197 118.703 74.9033 118.467 76.0828L102.27 79.3925C102.217 78.7948 102.173 78.2195 102.053 77.5546C101.937 76.931 101.767 76.3186 101.545 75.7241L119.08 72.1454ZM65.8921 72.1454L78.3616 71.1293L78.6007 77.4724C78.62 77.9547 78.8253 78.4108 79.1735 78.7451C79.5217 79.0794 79.9858 79.2659 80.4685 79.2655H80.5432C81.0374 79.2461 81.5037 79.0314 81.8398 78.6687C82.1759 78.3059 82.3545 77.8247 82.3363 77.3305L82.0898 70.823L87.8501 70.3523C89.7321 70.2092 91.6162 70.5995 93.2865 71.4782C94.9569 72.357 96.3457 73.6887 97.2938 75.3207C97.8486 76.2548 98.2355 77.2789 98.4369 78.3466C98.5783 79.0129 98.6608 79.6904 98.6834 80.3713C98.6948 80.7357 98.6773 81.1004 98.6311 81.4621C98.4413 82.5101 98.0803 83.5197 97.5627 84.4506H54.1547C54.2573 81.3211 55.5055 78.3383 57.6623 76.0684C59.8192 73.7986 62.7345 72.3999 65.8547 72.1379L65.8921 72.1454ZM38.7639 81.5816H39.2421L45.3685 84.1069C45.4009 84.2268 45.4009 84.3531 45.3685 84.473H37.5685L38.7639 81.5816Z" fill="#663366"/>
<path d="M128.83 115.029C127.754 115.028 126.701 115.346 125.806 115.943C124.91 116.54 124.212 117.389 123.799 118.383C123.387 119.378 123.278 120.472 123.488 121.528C123.698 122.583 124.216 123.553 124.977 124.314C125.738 125.076 126.708 125.594 127.764 125.803C128.819 126.013 129.914 125.905 130.908 125.492C131.902 125.079 132.751 124.381 133.348 123.486C133.945 122.59 134.263 121.537 134.262 120.461C134.26 119.021 133.687 117.641 132.669 116.622C131.651 115.604 130.27 115.031 128.83 115.029ZM128.83 122.164C128.493 122.166 128.163 122.067 127.882 121.881C127.601 121.695 127.381 121.429 127.251 121.118C127.121 120.807 127.086 120.464 127.151 120.133C127.216 119.802 127.378 119.498 127.616 119.259C127.854 119.02 128.157 118.857 128.488 118.791C128.818 118.724 129.161 118.758 129.473 118.886C129.785 119.015 130.051 119.233 130.239 119.514C130.426 119.794 130.526 120.124 130.526 120.461C130.526 120.911 130.348 121.344 130.03 121.663C129.712 121.982 129.281 122.162 128.83 122.164Z" fill="#663366"/>
</svg>
