<svg width="150" height="150" viewBox="0 0 150 150" fill="none" xmlns="http://www.w3.org/2000/svg">
<path d="M74.9999 121.584C100.686 121.584 121.584 100.687 121.584 75.001C121.584 49.3152 100.686 28.418 74.9999 28.418C49.3141 28.418 28.416 49.3152 28.416 75.001C28.416 100.687 49.3141 121.584 74.9999 121.584ZM74.9999 31.668C98.894 31.668 118.334 51.1069 118.334 75.001C118.334 98.8952 98.894 118.334 74.9999 118.334C51.1057 118.334 31.666 98.8952 31.666 75.001C31.666 51.1069 51.1057 31.668 74.9999 31.668Z" fill="#663366"/>
<path d="M42.3397 140C50.9773 140 59.0975 136.657 65.204 130.587C65.2321 130.559 65.2417 130.522 65.2671 130.493C68.4314 131.046 71.6798 131.351 75 131.351C106.072 131.351 131.351 106.073 131.351 75C131.351 71.6259 131.036 68.326 130.465 65.1135C136.608 59.0153 140 50.9161 140 42.2453C140 24.4655 125.534 10 107.754 10C99.1401 10 91.0437 13.3539 84.9531 19.4445C84.9261 19.4715 84.917 19.5075 84.8924 19.5359C81.6781 18.964 78.3762 18.6487 75 18.6487C43.9282 18.6487 18.6487 43.9274 18.6487 75C18.6487 78.43 18.9736 81.7836 19.5635 85.0462C13.4019 91.1267 10 99.2029 10 107.848C10 125.577 24.5076 140 42.3397 140ZM107.754 13.25C123.742 13.25 136.75 26.2571 136.75 42.2453C136.75 49.3191 134.233 55.9669 129.644 61.2358C124.597 41.2072 108.803 25.4102 88.7764 20.3587C94.0473 15.7754 100.7 13.25 107.754 13.25ZM75 21.8987C104.28 21.8987 128.101 45.7198 128.101 75C128.101 104.28 104.28 128.101 75 128.101C45.7198 128.101 21.8987 104.28 21.8987 75C21.8987 45.7198 45.7198 21.8987 75 21.8987ZM61.368 129.675C56.082 134.237 49.4122 136.75 42.3397 136.75C26.2992 136.75 13.25 123.785 13.25 107.848C13.25 100.793 15.7791 94.1631 20.3893 88.909C25.4879 108.917 41.3213 124.674 61.368 129.675Z" fill="#663366"/>
<path d="M45.6149 95.059C48.8347 99.5769 54.289 101.811 59.8527 100.885L60.5319 100.773C64.1501 100.174 67.846 101.335 70.4057 103.883L70.8849 104.361C73.6525 107.116 77.3278 108.586 81.1189 108.586C82.6757 108.586 84.2547 108.338 85.7956 107.827C91.0086 106.105 94.5966 101.91 95.3932 96.6039L95.4916 95.9453C96.0169 92.4493 98.2877 89.4278 101.568 87.8608L102.184 87.5656C107.138 85.1963 110.218 80.3872 110.22 75.0139C110.223 69.6406 107.147 64.8283 102.193 62.4543L101.574 62.1591C98.2989 60.5888 96.0312 57.5658 95.5091 54.0682L95.4091 53.4089C94.6156 48.1046 91.0324 43.9064 85.821 42.1799C80.5334 40.4263 74.8173 41.7498 70.9103 45.6338L70.4263 46.1138C67.8634 48.6616 64.1723 49.8185 60.5509 49.2146L59.8717 49.102C54.3112 48.1705 48.8538 50.4017 45.6308 54.9172C42.5125 59.286 42.1745 64.7061 44.7262 69.4169C46.6162 72.9049 46.6147 77.0705 44.7215 80.5594C42.1665 85.2677 42.5014 90.6878 45.6149 95.059ZM47.5827 67.868C45.6371 64.2752 45.8958 60.1398 48.2762 56.8056C50.7708 53.3097 55.0126 51.5871 59.3385 52.3075L60.0161 52.4202C64.6737 53.1938 69.417 51.7005 72.7162 48.4196L73.2002 47.9396C76.2328 44.926 80.673 43.8993 84.799 45.2648C88.8218 46.5978 91.5862 49.8224 92.194 53.8921L92.294 54.5506C92.9764 59.1138 95.9201 63.0533 100.171 65.0909L100.79 65.3861C104.662 67.2412 106.973 70.8403 106.97 75.0123C106.968 79.1851 104.654 82.781 100.779 84.6338L100.163 84.9289C95.9121 86.961 92.9637 90.8981 92.2765 95.4637L92.1781 96.123C91.5672 100.189 88.8012 103.412 84.7768 104.742C80.6508 106.106 76.2106 105.076 73.178 102.057L72.6972 101.58C69.9693 98.8636 66.2511 97.368 62.4156 97.368C61.6126 97.368 60.8048 97.433 59.9987 97.5671L59.3195 97.6798C54.9872 98.3907 50.7533 96.6697 48.2619 93.173C45.8847 89.8365 45.6292 85.701 47.5779 82.1098C49.998 77.6506 49.9995 72.3265 47.5827 67.868Z" fill="#663366"/>
<path d="M75.2487 90.8337C83.9783 90.8337 91.0813 83.7307 91.0813 74.9995C91.0813 66.269 83.9783 59.166 75.2487 59.166C66.519 59.166 59.416 66.269 59.416 74.9995C59.416 83.7307 66.519 90.8337 75.2487 90.8337ZM75.2487 62.416C82.1866 62.416 87.8313 68.0607 87.8313 74.9995C87.8313 81.9382 82.1866 87.5837 75.2487 87.5837C68.3107 87.5837 62.666 81.9382 62.666 74.9995C62.666 68.0607 68.3107 62.416 75.2487 62.416Z" fill="#663366"/>
<path d="M75.2491 82.6513C76.1473 82.6513 76.8741 81.9237 76.8741 81.0263C76.8741 80.1289 76.1473 79.4013 75.2491 79.4013C72.8228 79.4013 70.8486 77.4272 70.8486 75C70.8486 74.1026 70.1218 73.375 69.2236 73.375C68.3254 73.375 67.5986 74.1026 67.5986 75C67.5986 79.2188 71.0311 82.6513 75.2491 82.6513Z" fill="#663366"/>
</svg>
