<svg width="150" height="150" viewBox="0 0 150 150" fill="none" xmlns="http://www.w3.org/2000/svg">
<path d="M118.333 31.334H114V35.6673H118.333V31.334Z" fill="#663366"/>
<path d="M140 52.9993C140 52.4247 139.772 51.8736 139.366 51.4673C138.959 51.061 138.408 50.8327 137.833 50.8327H135.483C135.15 48.8727 134.357 47.0195 133.171 45.4243C131.984 43.8292 130.437 42.5375 128.655 41.6547L127 40.827V24.8327C127 24.258 126.772 23.7069 126.366 23.3006C125.959 22.8943 125.408 22.666 124.833 22.666H107.5C106.926 22.666 106.374 22.8943 105.968 23.3006C105.562 23.7069 105.333 24.258 105.333 24.8327V40.827L103.678 41.6547C101.897 42.5375 100.35 43.8292 99.1631 45.4243C97.9764 47.0195 97.1839 48.8727 96.8505 50.8327H94.5002C93.9255 50.8327 93.3744 51.061 92.9681 51.4673C92.5618 51.8736 92.3335 52.4247 92.3335 52.9993V133.166C92.3335 133.741 92.5618 134.292 92.9681 134.698C93.3744 135.104 93.9255 135.333 94.5002 135.333H137.833C138.408 135.333 138.959 135.104 139.366 134.698C139.772 134.292 140 133.741 140 133.166V52.9993ZM122.667 26.9993V39.9993H109.667V26.9993H122.667ZM105.616 45.5303L108.012 44.3327H124.322L126.717 45.5303C127.775 46.0551 128.708 46.7996 129.455 47.714C130.202 48.6284 130.745 49.6916 131.048 50.8327H101.286C101.589 49.6916 102.132 48.6284 102.879 47.714C103.625 46.7996 104.559 46.0551 105.616 45.5303ZM135.667 55.166V65.9993H96.6668V55.166H135.667ZM135.667 70.3327V117.999H96.6668V70.3327H135.667ZM96.6668 130.999V122.333H135.667V130.999H96.6668Z" fill="#663366"/>
<path d="M12.1667 118C11.592 118 11.0409 118.228 10.6346 118.635C10.2283 119.041 10 119.592 10 120.167V133.167C10 133.741 10.2283 134.292 10.6346 134.699C11.0409 135.105 11.592 135.333 12.1667 135.333H88V131H68.5V122.333H88V118H81.5V109.333H88V105H68.5V96.3333H88V92H80.3354C81.0998 90.6839 81.5016 89.1887 81.5 87.6667V83.3333H88V79H81.5V70.3333H88V66H81.5V57.3333H88V53H81.5V44.3333H96.6667V40H81.5V31.3333H101V27H90.1667V18.3333H120.5V14H62C61.4254 14 60.8743 14.2283 60.4679 14.6346C60.0616 15.0409 59.8333 15.592 59.8333 16.1667V27H29.5C28.9254 27 28.3743 27.2283 27.9679 27.6346C27.5616 28.0409 27.3333 28.592 27.3333 29.1667V40H16.5C15.9254 40 15.3743 40.2283 14.9679 40.6346C14.5616 41.0409 14.3333 41.592 14.3333 42.1667V55.1667C14.3333 55.7413 14.5616 56.2924 14.9679 56.6987C15.3743 57.1051 15.9254 57.3333 16.5 57.3333H27.3333V66H12.1667C11.592 66 11.0409 66.2283 10.6346 66.6346C10.2283 67.0409 10 67.592 10 68.1667V81.1667C10 81.7413 10.2283 82.2924 10.6346 82.6987C11.0409 83.1051 11.592 83.3333 12.1667 83.3333H23V92H12.1667C11.592 92 11.0409 92.2283 10.6346 92.6346C10.2283 93.0409 10 93.592 10 94.1667V107.167C10 107.741 10.2283 108.292 10.6346 108.699C11.0409 109.105 11.592 109.333 12.1667 109.333H23V118H12.1667ZM64.1667 131H40.3333V122.333H64.1667V131ZM27.3333 109.333H51.1667V118H27.3333V109.333ZM77.1667 118H55.5V109.333H77.1667V118ZM64.1667 105H42.5V96.3333H64.1667V105ZM27.3333 83.3333H51.1667V92H27.3333V83.3333ZM31.6667 57.3333H38.1667V66H31.6667V57.3333ZM55.5 92V83.3333H64.1667V87.6667C64.1655 89.1888 64.5678 90.684 65.3326 92H55.5ZM64.1667 66H55.5V63.8333C55.5 62.6841 55.9565 61.5819 56.7692 60.7692C57.5819 59.9565 58.6841 59.5 59.8333 59.5C60.9826 59.5 62.0848 59.9565 62.8975 60.7692C63.7101 61.5819 64.1667 62.6841 64.1667 63.8333V66ZM55.5 74.6667V70.3333H64.1667V79H54.3354C55.0998 77.6839 55.5016 76.1887 55.5 74.6667ZM85.8333 27H81.5V18.3333H85.8333V27ZM62 31.3333C62.5746 31.3333 63.1257 31.1051 63.5321 30.6987C63.9384 30.2924 64.1667 29.7413 64.1667 29.1667V18.3333H77.1667V87.6667C77.1667 88.8159 76.7101 89.9181 75.8975 90.7308C75.0848 91.5435 73.9826 92 72.8333 92C71.6841 92 70.5819 91.5435 69.7692 90.7308C68.9565 89.9181 68.5 88.8159 68.5 87.6667V63.8333C68.5 61.5348 67.5869 59.3304 65.9616 57.7051C64.3363 56.0798 62.1319 55.1667 59.8333 55.1667C57.5348 55.1667 55.3304 56.0798 53.7051 57.7051C52.0798 59.3304 51.1667 61.5348 51.1667 63.8333V74.6667C51.1667 75.8159 50.7101 76.9181 49.8975 77.7308C49.0848 78.5435 47.9826 79 46.8333 79C45.6841 79 44.5819 78.5435 43.7692 77.7308C42.9565 76.9181 42.5 75.8159 42.5 74.6667V31.3333H62ZM38.1667 31.3333V40H31.6667V31.3333H38.1667ZM18.6667 53V44.3333H38.1667V53H18.6667ZM14.3333 79V70.3333H38.1667V74.6667C38.1655 76.1888 38.5678 77.684 39.3326 79H14.3333ZM14.3333 105V96.3333H38.1667V105H14.3333ZM25.1667 122.333H36V131H14.3333V122.333H25.1667Z" fill="#663366"/>
<path d="M116.167 89.834C117.452 89.834 118.709 89.4528 119.778 88.7385C120.847 88.0243 121.68 87.0091 122.172 85.8214C122.664 84.6337 122.792 83.3268 122.542 82.0659C122.291 80.805 121.672 79.6468 120.763 78.7378C119.854 77.8288 118.695 77.2097 117.435 76.9589C116.174 76.7081 114.867 76.8368 113.679 77.3288C112.491 77.8207 111.476 78.6539 110.762 79.7228C110.048 80.7917 109.667 82.0484 109.667 83.334C109.668 85.0573 110.354 86.7095 111.572 87.928C112.791 89.1466 114.443 89.8321 116.167 89.834ZM116.167 81.1673C116.595 81.1673 117.014 81.2944 117.37 81.5325C117.727 81.7705 118.004 82.1089 118.168 82.5048C118.332 82.9007 118.375 83.3364 118.292 83.7567C118.208 84.177 118.002 84.563 117.699 84.8661C117.396 85.1691 117.009 85.3754 116.589 85.459C116.169 85.5426 115.733 85.4997 115.337 85.3357C114.941 85.1717 114.603 84.894 114.365 84.5377C114.127 84.1814 114 83.7625 114 83.334C114 82.7595 114.229 82.2088 114.635 81.8026C115.041 81.3964 115.592 81.168 116.167 81.1673Z" fill="#663366"/>
<path d="M120.5 94.166H111.833V98.4993H120.5V94.166Z" fill="#663366"/>
<path d="M124.833 102.834H107.5V107.167H124.833V102.834Z" fill="#663366"/>
</svg>
