<svg width="150" height="150" viewBox="0 0 150 150" fill="none" xmlns="http://www.w3.org/2000/svg">
<path d="M97.7342 98.47C100.363 96.4254 104.346 93.3187 108.833 85.7508C111.887 80.5995 111.993 74.7576 110.692 69.6593C111.25 68.7831 112.365 67.3226 114.038 66.3402C114.304 66.1809 115.26 66.1012 115.897 66.0481C117.543 65.9153 119.588 65.7295 121.208 64.4018C122.827 63.0741 123.358 61.1091 123.757 59.5424C123.969 58.7724 124.208 57.8961 124.474 57.5244C124.766 57.1261 125.456 56.6481 126.12 56.1701C127.607 55.108 129.466 53.8069 129.917 51.4967C130.369 49.213 129.121 47.3012 128.112 45.7877C127.66 45.0973 127.182 44.3538 126.97 43.7961C126.864 43.5306 126.89 42.7074 126.917 42.1232C126.943 40.3973 126.996 38.0606 125.456 36.0955C124.314 34.6351 122.588 34.1307 121.075 33.7058C120.146 33.4403 119.19 33.1482 118.712 32.7233C118.526 32.5375 118.207 31.8471 118.021 31.4222C117.437 30.0946 116.614 28.2623 114.702 27.5985C112.764 26.8816 110.932 27.7844 109.63 28.4217C109.206 28.6341 108.568 28.9528 108.489 28.9793C108.276 28.9262 107.665 28.581 107.294 28.3686C106.099 27.6782 104.452 26.6957 102.461 27.1205C100.682 27.5189 99.5931 28.9262 98.7434 30.0415C98.4513 30.4133 98.0265 30.9709 97.9999 31.024C97.7344 31.0771 97.044 30.9178 96.566 30.8116C95.2384 30.5195 93.5655 30.1743 92.0254 30.9709C90.2729 31.8471 89.4762 33.573 88.8919 34.8476C88.7592 35.1663 88.5468 35.6177 88.414 35.8301C88.2281 35.9363 88.1219 35.9628 87.9095 35.9363C88.414 28.7668 86.3428 21.8895 81.8021 17.0302C75.1371 9.94037 64.4628 8.10822 52.5142 12.0116C45.0792 14.4546 40.3261 18.6234 38.3877 24.4122C37.2194 27.8907 37.2459 31.555 37.8567 35.0071C37.4583 35.0071 37.06 34.9805 36.6618 34.9008C36.4493 34.8212 35.9448 34.4229 35.5996 34.1573C34.5375 33.3342 33.077 32.219 31.1386 32.1658C29.3065 32.1392 27.8725 33.1748 26.7573 33.9979C26.359 34.29 25.7217 34.7414 25.5093 34.7945C25.2703 34.8476 24.5799 34.7945 24.102 34.7414C22.615 34.6087 20.5704 34.4228 18.924 35.777C17.3573 37.025 17.1449 38.9104 16.9325 40.3974C16.8528 41.0347 16.7731 41.7251 16.6138 42.0437C16.5076 42.2031 16.0827 42.6014 15.7906 42.8669C14.7551 43.8494 13.3212 45.1771 13.0291 47.3014C12.8432 48.9211 13.5867 50.3019 14.1709 51.4172C14.463 51.9748 14.8613 52.6918 14.8613 52.9839C14.8347 53.1963 14.6223 53.7274 14.4895 54.0991C14.0116 55.3206 13.3477 56.9669 14.0912 58.6663C14.8613 60.4455 16.5341 61.0827 17.7555 61.5873C18.0742 61.7201 18.5787 61.9059 18.6052 61.8794C18.6849 62.0387 18.8177 62.5698 18.9239 62.915C19.216 64.1099 19.6408 65.7296 21.0747 66.7652C22.482 67.7742 24.1284 67.6415 25.3497 67.5353C25.6418 67.5087 26.0136 67.4822 26.2526 67.4822C26.4119 67.668 26.6243 68.0398 26.7836 68.2788C27.3944 69.2612 28.2441 70.589 29.7311 71.12C31.404 71.7573 32.9972 71.2262 34.1921 70.8545C34.4311 70.7748 34.7497 70.6686 34.9621 70.6155C35.0684 70.6686 35.1215 70.7483 35.2808 71.0138C35.5729 71.4652 36.0243 72.1291 36.7943 72.6867C36.8209 73.0585 36.7943 73.4568 36.8474 73.8285C37.2192 77.9177 38.2282 81.5289 39.8214 84.5296C41.9722 88.5923 45.6632 91.46 50.1774 92.6816C54.8508 93.9296 59.896 93.133 63.9852 90.5573C66.2954 89.0969 69.1632 87.2382 71.7653 85.406C72.0574 87.3444 72.6416 89.5749 73.8099 91.6992L74.2082 92.4161C76.4122 96.4522 77.6868 98.7359 77.3416 102.055C76.4122 103.648 74.3676 108.083 75.0049 114.88C75.0315 115.173 75.1111 115.465 75.2173 115.73C75.3236 115.969 75.8546 117.031 76.784 118.2L77.1823 121.891C75.1643 122.74 72.4027 124.36 71.3671 127.228C70.7298 128.98 70.5439 131.795 73.2524 135.327C75.6156 138.433 78.0585 140 80.528 140C80.7404 140 80.9794 140 81.1918 139.973C82.9177 139.788 84.1658 138.858 85.042 137.929C85.9183 138.858 87.1663 139.761 88.8922 139.973C89.1047 140 89.3436 140 89.5561 140C92.0255 140 94.4684 138.433 96.8316 135.327C99.5402 131.795 99.3543 128.98 98.717 127.228C97.6814 124.36 94.9198 122.74 92.9017 121.891L93.4328 117.164C95.5571 114.907 95.1322 112.278 94.7074 109.729C94.3887 107.844 94.0435 105.746 94.3887 102.958C94.6808 100.834 95.5036 100.196 97.7342 98.47ZM91.3348 40.2647C92.636 39.4947 93.2202 38.1935 93.7513 37.0253C93.9106 36.6535 94.1761 36.0959 94.3885 35.8038C94.6806 35.8304 95.1586 35.9366 95.5038 36.0163C96.7518 36.2818 98.2653 36.6004 99.7789 36.0428C101.266 35.4852 102.222 34.2637 102.965 33.2812C103.178 33.0157 103.47 32.6174 103.603 32.4315C103.895 32.5643 104.32 32.8033 104.612 32.9891C105.621 33.5733 106.869 34.2903 108.329 34.3168C109.763 34.3699 111.011 33.7061 111.993 33.2281C112.232 33.0954 112.551 32.9626 112.817 32.8298C112.923 33.0688 113.056 33.3609 113.162 33.5999C113.613 34.6089 114.171 35.8836 115.233 36.7863C116.587 37.9546 118.233 38.4326 119.588 38.8309C120.199 39.0167 121.101 39.2823 121.287 39.4416C121.659 39.893 121.632 41.0348 121.606 42.0438C121.579 43.1856 121.553 44.354 121.951 45.5223C122.376 46.7438 123.066 47.806 123.703 48.7352C124.102 49.3194 124.686 50.2222 124.739 50.4612C124.606 50.7798 123.65 51.4702 123.066 51.8685C122.11 52.5589 121.022 53.329 120.225 54.3911C119.349 55.586 118.977 56.9668 118.658 58.2148C118.472 58.9052 118.154 60.1002 117.862 60.3391C117.49 60.6312 116.322 60.7374 115.445 60.8171C114.118 60.9233 112.631 61.0561 111.356 61.7996C110.241 62.4368 109.338 63.2069 108.541 63.9769C108.329 63.552 108.117 63.1537 107.904 62.7554C106.258 59.8611 103.762 56.7277 100.868 53.7272C101.399 53.2227 102.036 52.612 102.7 51.8951C108.834 51.0719 113.056 56.1701 113.241 56.4091C113.773 57.0729 114.543 57.3915 115.313 57.3915C115.897 57.3915 116.481 57.2057 116.959 56.8074C118.101 55.9045 118.287 54.2317 117.384 53.0634C117.171 52.7978 113.082 47.7792 106.577 46.6905C107.957 44.2476 108.674 41.8312 108.674 39.521C108.674 38.0605 107.506 36.8656 106.045 36.8391H106.019C104.558 36.8391 103.364 38.0075 103.364 39.468C103.337 42.495 101.186 45.5754 99.3539 47.6199C98.4777 48.6024 97.628 49.4256 97.0172 49.9832C94.3619 47.6199 91.5471 45.5487 88.8919 44.0352C88.0953 43.5838 87.3253 43.1855 86.5287 42.8137C86.688 42.2826 86.9005 41.725 87.0332 41.194C88.1485 41.3267 89.6089 41.3269 91.3348 40.2647ZM43.406 26.0851C44.7868 21.9692 48.398 18.9422 54.1601 17.0569C64.2239 13.7642 72.6413 15.0388 77.9249 20.6682C82.5186 25.554 83.8728 33.2014 81.722 40.6891C79.8632 39.9987 78.0577 39.4411 76.2786 38.8834C73.9949 38.1665 71.7911 37.4761 69.5339 36.5467C71.0475 34.4755 73.5701 31.8203 76.5441 32.2451C77.978 32.4576 79.3321 31.4485 79.5446 29.9881C79.757 28.5277 78.748 27.2001 77.2876 26.9876C72.6672 26.3238 69.1091 28.8995 66.7192 31.5814L67.2768 23.3497C67.383 21.8892 66.2678 20.6146 64.8074 20.5084C63.347 20.4022 62.0723 21.5174 61.9661 22.9778L61.435 30.8642C59.7622 28.6869 57.213 26.1111 53.4955 24.3054C52.1678 23.6681 50.6012 24.2258 49.9372 25.5269C49.2999 26.8546 49.8576 28.4479 51.1587 29.0851C53.6813 30.3066 55.487 32.0326 56.7615 33.5726C53.9469 34.2365 51.3446 35.8563 49.539 38.2991C48.6096 39.5737 47.4677 41.2996 46.2995 43.3177C45.3702 41.4855 44.3347 39.1488 43.6177 36.573V36.4933C43.6177 36.4668 43.5911 36.4668 43.5911 36.4402C42.6617 33.0944 42.2642 29.4044 43.406 26.0851ZM36.1304 65.4115C34.8293 65.0928 33.5813 65.4646 32.5988 65.7832C32.3333 65.8629 31.935 65.9956 31.7226 66.0753C31.5898 65.8894 31.4305 65.6239 31.2977 65.438C30.7135 64.4821 29.97 63.3137 28.6689 62.6764C27.3943 62.0126 26.0135 62.1188 24.9249 62.2251C24.739 62.2516 24.4735 62.2516 24.261 62.2782C24.2079 62.0657 24.1283 61.8002 24.0752 61.6143C23.8362 60.6319 23.5175 59.3838 22.6147 58.4014C21.765 57.4455 20.6231 57.0206 19.7204 56.649C19.5876 56.5958 19.4283 56.5427 19.2956 56.4631C19.3487 56.3303 19.4018 56.171 19.4549 56.0648C19.8001 55.1885 20.2515 54.0732 20.1984 52.8253C20.1453 51.2586 19.4283 49.9575 18.8707 48.9219C18.6583 48.5502 18.3662 47.966 18.3131 48.0191C18.3662 47.7536 19.0566 47.1163 19.4283 46.7976C20.1453 46.1338 20.9684 45.3637 21.4464 44.3015C21.9509 43.2128 22.0837 42.071 22.2164 41.0886C22.2695 40.7434 22.3227 40.292 22.3758 39.9733C22.7209 39.9468 23.2255 39.9999 23.5972 40.053C24.5797 40.1326 25.6685 40.2389 26.8367 39.9468C28.0316 39.6281 29.014 38.9112 29.8637 38.3005C30.2885 38.0084 30.8993 37.557 30.9789 37.4773C31.2445 37.5304 31.9349 38.0615 32.3332 38.3801C33.2094 39.0705 34.2185 39.814 35.4931 40.0795C36.8208 40.3451 38.0952 40.3716 39.2106 40.2654C40.5382 44.0891 42.2643 47.249 43.2997 48.9219C42.45 50.6479 41.6268 52.4802 40.8568 54.3921C40.3788 54.3124 39.8743 54.2327 39.2901 54.1796C35.7851 50.5949 36.9269 45.3639 36.9799 45.0717C37.3251 43.6644 36.4754 42.204 35.0416 41.8588C33.6342 41.5136 32.1738 42.3633 31.8286 43.7972C31.749 44.0893 30.501 49.3203 32.9439 54.3389C30.7399 54.7106 28.8015 55.4275 27.288 56.5959C26.1197 57.4721 25.8807 59.145 26.757 60.3134C27.288 61.0038 28.0846 61.3755 28.8812 61.3755C29.4389 61.3755 29.9965 61.1896 30.4745 60.8444C32.466 59.3574 35.5992 59.2247 37.8829 59.384C38.2812 59.4105 38.653 59.4636 38.9982 59.4902C38.3078 61.641 37.7502 63.8185 37.3784 65.9427C36.9801 65.7303 36.6084 65.5442 36.1304 65.4115ZM89.4498 126.351C90.9103 126.696 93.3266 127.812 93.7514 129.06C94.0701 129.962 93.3266 131.237 92.6362 132.14C91.0164 134.264 89.9011 134.769 89.5295 134.716C89.1577 134.689 88.6001 134.025 88.4142 133.6C88.3611 133.521 88.3346 133.414 88.2814 133.335L87.3786 131.821L87.299 131.742C87.1928 131.582 87.06 131.476 86.9538 131.343C86.821 131.21 86.7148 131.078 86.582 130.998L86.5024 130.918C86.3962 130.839 86.2634 130.839 86.1306 130.786C85.9713 130.706 85.812 130.626 85.6261 130.6C85.4402 130.573 85.2809 130.573 85.1216 130.573C84.9622 130.573 84.8029 130.573 84.6436 130.6C84.4577 130.626 84.2719 130.706 84.086 130.786C83.9798 130.839 83.847 130.839 83.7673 130.892L83.6877 130.971C83.5284 131.078 83.4221 131.21 83.2894 131.343C83.1566 131.476 83.0238 131.582 82.9442 131.715L82.8645 131.795L81.9351 133.308C81.882 133.388 81.8289 133.494 81.8024 133.574C81.5899 134.025 81.0323 134.689 80.6606 134.742C80.2888 134.822 79.1736 134.291 77.5539 132.166C76.8635 131.264 76.12 130.016 76.4386 129.086C76.89 127.838 79.2799 126.723 80.7402 126.378C82.0413 126.086 82.9175 124.838 82.7848 123.51L82.5723 121.996C82.652 122.023 82.7317 122.049 82.8379 122.076C83.2893 122.156 83.7407 122.182 84.2187 122.182C85.3605 122.182 86.5023 121.943 87.644 121.492L87.4316 123.483C87.2723 124.811 88.1487 126.032 89.4498 126.351ZM89.1577 102.374C88.7329 105.906 89.1843 108.641 89.5295 110.632C89.8216 112.438 89.9278 113.234 89.6357 113.553C88.069 115.226 85.7323 117.138 83.7407 116.819C81.9883 116.554 80.7402 114.668 80.2889 113.898C79.864 107.871 82.0148 104.658 82.0945 104.551C82.3335 104.206 82.5194 103.808 82.5725 103.383C83.3691 98.0193 81.4041 94.4346 78.9082 89.8939L78.5099 89.1769C76.3591 85.247 76.9698 80.6533 76.9963 80.6268C77.1556 79.5381 76.6511 78.476 75.6952 77.9182C74.7393 77.3872 73.5444 77.4668 72.6947 78.1572C69.6942 80.6001 64.7818 83.8131 61.1971 86.0967C58.3558 87.9024 54.8507 88.4335 51.5848 87.5837C48.5046 86.7606 46.0086 84.8222 44.5482 82.0871C43.2736 79.6974 42.4769 76.7764 42.1584 73.3776C41.1494 62.7032 49.7261 46.9838 53.8155 41.4607C55.9397 38.5664 59.7634 37.7167 62.9234 39.3894C63.4279 39.655 63.9058 39.8674 64.4103 40.1064C64.4635 40.1329 64.49 40.1595 64.5166 40.186C64.5431 40.2126 64.5962 40.186 64.6228 40.2126C68.181 41.912 71.5002 42.9742 74.6866 43.9833C78.59 45.2047 82.281 46.3465 86.2904 48.6567C92.5571 52.268 100.019 59.5967 103.285 65.3588C105.993 70.1384 107.666 77.2813 104.241 83.0702C100.257 89.7617 96.9118 92.3905 94.4424 94.3024C91.8933 96.2673 89.6623 98.0192 89.1577 102.374Z" fill="#663366"/>
<path d="M45.8502 98.3926C40.4865 97.4102 35.0694 98.552 30.5554 101.579C30.4757 101.606 30.4226 101.659 30.343 101.712C29.5995 102.216 29.2012 103.066 29.2012 103.889C29.2012 104.394 29.3339 104.898 29.6526 105.35C29.6526 105.35 29.6791 105.376 29.6791 105.403L50.1249 135.09V135.116C50.6294 135.86 51.4791 136.258 52.3022 136.258C52.8333 136.258 53.3378 136.099 53.8157 135.78C58.383 132.647 61.4366 127.92 62.4456 122.477C62.6846 121.203 62.7908 119.954 62.7908 118.68C62.7908 114.511 61.5428 110.475 59.1265 106.97C55.9931 102.456 51.2671 99.3751 45.8502 98.3926ZM57.2151 121.52C56.631 124.68 55.1174 127.521 52.8604 129.725L35.6809 104.764C38.5487 103.436 41.7351 103.038 44.895 103.622C48.9311 104.366 52.4362 106.623 54.7729 110.021C56.552 112.624 57.4814 115.624 57.4814 118.731C57.4814 119.66 57.401 120.591 57.2151 121.52Z" fill="#663366"/>
<path d="M49.9653 60.6567C47.3364 64.3742 44.3094 70.3222 48.372 78.8202C48.8234 79.7761 49.7794 80.3337 50.7618 80.3337C51.1335 80.3337 51.5318 80.2541 51.9036 80.0682C53.2313 79.4309 53.7889 77.8642 53.1516 76.5366C50.337 70.6417 52.1426 66.7649 54.2934 63.7379C55.1431 62.543 54.851 60.8701 53.6561 60.0469C52.4878 59.1707 50.815 59.4618 49.9653 60.6567Z" fill="#663366"/>
<path d="M137.274 102.507C136.451 97.1162 133.636 92.3631 129.282 89.0706C129.229 89.0175 129.149 88.9644 129.096 88.9113C127.927 88.0351 126.255 88.3006 125.378 89.4689L103.976 118.412C103.949 118.438 103.949 118.465 103.923 118.465C103.577 118.943 103.392 119.501 103.392 120.032C103.392 120.855 103.763 121.651 104.48 122.182C108.092 124.838 112.34 126.245 116.748 126.245C117.784 126.245 118.819 126.165 119.855 126.006C125.325 125.183 130.158 122.289 133.45 117.828C136.106 114.243 137.513 109.968 137.513 105.586C137.513 104.604 137.434 103.569 137.274 102.507ZM129.175 114.721C126.733 118.04 123.148 120.191 119.085 120.802C115.899 121.28 112.739 120.775 109.924 119.342L127.953 94.965C130.131 97.2487 131.565 100.116 132.043 103.303C132.149 104.073 132.228 104.869 132.228 105.639C132.202 108.906 131.167 112.066 129.175 114.721Z" fill="#663366"/>
</svg>
