<svg width="150" height="150" viewBox="0 0 150 150" fill="none" xmlns="http://www.w3.org/2000/svg">
<path d="M123.422 70.8661C115.278 67.9397 104.018 65.8043 91.5628 64.8111L90.2069 55.3452V43.8391L97.4036 40.2502L110.116 38.1373C110.623 38.0529 111.084 37.7918 111.416 37.4005C111.749 37.0091 111.931 36.5128 111.931 36V31.6666C111.931 31.1958 111.777 30.7378 111.493 30.3619C111.209 29.986 110.809 29.7127 110.356 29.5833L95.1487 25.2499C94.7276 25.13 94.2801 25.1397 93.8646 25.2777L83.6897 28.6604V24.0833C83.6897 22.0721 82.8886 20.1432 81.4627 18.7211C80.0367 17.2989 78.1028 16.5 76.0862 16.5C74.0696 16.5 72.1357 17.2989 70.7098 18.7211C69.2838 20.1432 68.4828 22.0721 68.4828 24.0833V28.1609L64.3721 26.1111L66.2809 14.6895C66.3573 14.2325 66.2847 13.7631 66.0739 13.3502C65.8631 12.9373 65.5251 12.6026 65.1096 12.3954L60.7648 10.2287C60.2494 9.97177 59.6528 9.92948 59.1063 10.1112C58.5597 10.2928 58.1078 10.6836 57.8501 11.1975L49.1604 28.5309C49.0328 28.7854 48.9567 29.0625 48.9364 29.3464C48.9162 29.6302 48.9522 29.9153 49.0424 30.1852L51.2148 36.6852C51.379 37.1758 51.7135 37.5918 52.1581 37.858L62.4779 44.0332L64.5533 48.1732L58.0468 46.8754C57.7314 46.8125 57.4059 46.8203 57.0938 46.8981L48.4041 49.0648C48.0156 49.1616 47.6615 49.3636 47.381 49.6486C47.1004 49.9335 46.9043 50.2903 46.8143 50.6795L43.106 66.7064C34.3697 68.2184 26.9936 70.3442 21.7101 72.8812C15.2668 75.9751 12 79.6039 12 83.6666V94.5C12 97.8156 14.2213 100.863 18.5172 103.543V111.833C18.5218 115.854 20.1254 119.709 22.9762 122.553C25.8271 125.396 29.6924 126.995 33.7241 127H44.7439C45.2704 130.608 47.0805 133.906 49.8434 136.293C52.6064 138.679 56.1379 139.995 59.7931 140H90.2069C93.8621 139.995 97.3936 138.679 100.157 136.293C102.92 133.906 104.73 130.608 105.256 127H116.276C120.308 126.995 124.173 125.396 127.024 122.553C129.875 119.709 131.478 115.854 131.483 111.833V103.543C135.779 100.863 138 97.8156 138 94.5V83.6666C138 78.7192 132.959 74.2927 123.422 70.8661ZM107.586 33.3009V34.1644L98.4419 35.6844L97.3808 30.3928L107.586 33.3009ZM109.759 71.6548V73.1279C109.758 75.2215 109.238 77.2825 108.246 79.1274C107.254 80.9723 105.819 82.544 104.071 83.7027L105.302 80.0186C105.453 79.5677 105.451 79.0798 105.296 78.6302C105.142 78.1806 104.843 77.7942 104.446 77.5306L92.2202 69.4013L92.1929 69.211C98.0899 69.6922 103.955 70.5081 109.759 71.6548ZM90.2809 73.3198L100.656 80.218L99.7648 82.884L85.7811 76.6857L90.2809 73.3198ZM76.0862 20.8333C76.7599 20.8341 77.4169 21.0427 77.967 21.4306C78.5171 21.8185 78.9333 22.3667 79.1587 23H73.0137C73.2391 22.3667 73.6553 21.8185 74.2054 21.4306C74.7555 21.0427 75.4125 20.8341 76.0862 20.8333ZM72.8276 27.3333H79.3448V30.5833C79.3448 31.4452 79.0015 32.2719 78.3904 32.8814C77.7793 33.4909 76.9504 33.8333 76.0862 33.8333C75.222 33.8333 74.3931 33.4909 73.782 32.8814C73.1709 32.2719 72.8276 31.4452 72.8276 30.5833V27.3333ZM53.449 29.6663L60.7648 15.0736L61.7314 15.5555L59.937 26.2921L54.2252 31.9888L53.449 29.6663ZM56.7795 35.5699L62.3946 29.9697L68.9686 33.248C69.5068 34.6788 70.4659 35.9141 71.7203 36.7917C72.9746 37.6694 74.4657 38.1484 75.9978 38.1661C77.53 38.1838 79.0317 37.7392 80.3061 36.8907C81.5804 36.0423 82.568 34.8295 83.1391 33.4114L92.9041 30.1649L94.2685 36.9688L87.0628 40.5621C86.702 40.742 86.3986 41.0187 86.1865 41.3609C85.9744 41.7032 85.8621 42.0976 85.8621 42.5V52.799L69.9633 49.2753L66.081 41.5309C65.8961 41.1624 65.6099 40.854 65.2557 40.642L56.7795 35.5699ZM59.7931 51.6428L68.0354 53.287L86.0962 57.2899L87.8743 69.703L82.0509 74.0591L74.6351 62.9648C74.3492 62.5369 73.92 62.2244 73.4243 62.0833L59.7931 58.199V51.6428ZM58.7575 62.4107L65.6387 64.3716C62.8904 64.4912 60.1824 64.6639 57.5147 64.8897L58.7575 62.4107ZM50.7486 52.9469L55.4483 51.775V59.3218L45.787 78.593L44.9153 78.1582L50.7486 52.9469ZM44.5862 122.667H33.7241C30.8443 122.663 28.0835 121.521 26.0471 119.49C24.0108 117.459 22.8654 114.705 22.8621 111.833V105.818C24.192 106.41 25.6403 106.978 27.2069 107.522V111.833C27.2089 113.557 27.8961 115.209 29.1179 116.427C30.3397 117.646 31.9963 118.331 33.7241 118.333H44.5862V122.667ZM33.7241 114C33.1482 113.999 32.596 113.771 32.1887 113.365C31.7815 112.958 31.5524 112.408 31.5517 111.833V108.884C35.8392 110.072 40.1911 111.016 44.5862 111.71V114H33.7241ZM66.3103 135.667H59.7931C56.9133 135.663 54.1524 134.521 52.1161 132.49C50.0798 130.459 48.9343 127.705 48.931 124.833V112.355C50.3556 112.545 51.8038 112.719 53.2759 112.877V124.833C53.2778 126.557 53.9651 128.209 55.1869 129.427C56.4087 130.646 58.0652 131.331 59.7931 131.333H66.3103V135.667ZM57.6207 124.833V113.292C63.1976 113.758 69.0351 114 75 114C80.9649 114 86.8024 113.758 92.3793 113.292V124.833C92.3787 125.408 92.1496 125.958 91.7423 126.365C91.335 126.771 90.7829 126.999 90.2069 127H59.7931C59.2171 126.999 58.665 126.771 58.2577 126.365C57.8504 125.958 57.6213 125.408 57.6207 124.833ZM79.3448 135.667H70.6552V131.333H79.3448V135.667ZM101.069 124.833C101.066 127.705 99.9202 130.459 97.8839 132.49C95.8476 134.521 93.0867 135.663 90.2069 135.667H83.6897V131.333H90.2069C91.9348 131.331 93.5913 130.646 94.8131 129.427C96.0349 128.209 96.7222 126.557 96.7241 124.833V112.877C98.1951 112.719 99.6434 112.545 101.069 112.355V124.833ZM127.138 111.833C127.135 114.705 125.989 117.459 123.953 119.49C121.917 121.521 119.156 122.663 116.276 122.667H105.414V118.333H116.276C118.004 118.331 119.66 117.646 120.882 116.427C122.104 115.209 122.791 113.557 122.793 111.833V107.522C124.358 106.978 125.807 106.41 127.138 105.818V111.833ZM105.414 114V111.71C109.809 111.016 114.161 110.072 118.448 108.884V111.833C118.448 112.408 118.219 112.958 117.811 113.365C117.404 113.771 116.852 113.999 116.276 114H105.414ZM133.655 94.5C133.655 98.5887 125.266 102.436 117.415 104.673C106.115 107.893 91.0515 109.667 75 109.667C58.9485 109.667 43.8853 107.893 32.5852 104.673C24.734 102.436 16.3448 98.5887 16.3448 94.5V91.1873C19.5999 93.7861 24.6516 96.086 31.3916 98.0065C43.0691 101.334 58.556 103.167 75 103.167C91.444 103.167 106.931 101.334 118.608 98.0065C125.348 96.086 130.4 93.7861 133.655 91.1873V94.5ZM117.415 93.8398C106.115 97.0599 91.0515 98.8333 75 98.8333C58.9485 98.8333 43.8853 97.0599 32.5852 93.8398C24.734 91.6028 16.3448 87.7553 16.3448 83.6666C16.3448 81.4743 18.9195 79.0305 23.5948 76.7855C28.1638 74.5916 34.4968 72.712 42.0432 71.2996L41.0034 75.7934C40.649 75.2252 40.3164 74.6386 40.0117 74.0309L36.1257 75.9691C38.2515 80.2456 41.5363 83.8425 45.6075 86.3519C49.6787 88.8614 54.3734 90.1829 59.1593 90.1666H70.6552V85.8333H59.1593C55.3712 85.8408 51.649 84.8446 48.3735 82.9466C48.5038 82.8028 48.6142 82.6422 48.7016 82.4691L55.228 69.4509C60.9788 68.8807 66.9855 68.5656 73.1213 68.5121L79.7097 78.3685C79.938 78.71 80.2589 78.9798 80.635 79.1466L95.72 85.8333H88.0345V90.1666H97.0196C101.549 90.1615 105.891 88.3647 109.094 85.1704C112.297 81.9762 114.098 77.6453 114.103 73.1279V72.6219C116.757 73.2587 119.376 74.0334 121.949 74.9428C129.279 77.5766 133.655 80.8377 133.655 83.6666C133.655 87.7553 125.266 91.6028 117.415 93.8398Z" fill="#663366"/>
</svg>
