<svg width="150" height="150" viewBox="0 0 150 150" fill="none" xmlns="http://www.w3.org/2000/svg">
<path d="M124.02 140H25.0968C24.5407 140 24.0074 139.779 23.6141 139.386C23.2209 138.993 23 138.459 23 137.903V12.0968C23 11.5407 23.2209 11.0074 23.6141 10.6141C24.0074 10.2209 24.5407 10 25.0968 10H124.02C124.576 10 125.109 10.2209 125.502 10.6141C125.896 11.0074 126.117 11.5407 126.117 12.0968V137.903C126.117 138.459 125.896 138.993 125.502 139.386C125.109 139.779 124.576 140 124.02 140ZM27.1935 135.806H121.923V14.1935H27.1935V135.806Z" fill="#663366"/>
<path d="M112.085 128.066H37.0313C36.4752 128.066 35.9419 127.845 35.5487 127.452C35.1555 127.059 34.9346 126.525 34.9346 125.969V24.0323C34.9346 23.4762 35.1555 22.9429 35.5487 22.5497C35.9419 22.1565 36.4752 21.9355 37.0313 21.9355H112.085C112.641 21.9355 113.174 22.1565 113.567 22.5497C113.961 22.9429 114.181 23.4762 114.181 24.0323V125.969C114.181 126.525 113.961 127.059 113.567 127.452C113.174 127.845 112.641 128.066 112.085 128.066ZM39.1169 123.872H109.988V26.1291H39.1281L39.1169 123.872Z" fill="#663366"/>
<path d="M37.0313 38.8523C36.756 38.8523 36.4833 38.7981 36.2289 38.6927C35.9746 38.5873 35.7434 38.4329 35.5487 38.2382C35.354 38.0435 35.1996 37.8123 35.0942 37.558C34.9888 37.3036 34.9346 37.0309 34.9346 36.7555V24.0323C34.9346 23.4762 35.1555 22.9429 35.5487 22.5497C35.9419 22.1565 36.4752 21.9355 37.0313 21.9355H49.5477C50.0982 21.9348 50.627 22.1508 51.0194 22.537C51.4118 22.9231 51.6364 23.4483 51.6445 23.9988V24.2364C51.64 28.1109 50.0991 31.8256 47.3596 34.5655C44.6202 37.3055 40.9059 38.8471 37.0313 38.8523ZM39.1281 26.1291V34.4463C41.1589 34.0248 43.0186 33.009 44.4707 31.5281C45.9228 30.0471 46.9018 28.1678 47.2832 26.1291H39.1281Z" fill="#663366"/>
<path d="M112.085 38.8523C108.213 38.8442 104.501 37.3012 101.764 34.5616C99.0272 31.8219 97.4878 28.109 97.4834 24.2364C97.4834 24.1665 97.4834 24.0994 97.4834 24.0295V23.9988C97.4915 23.4483 97.716 22.9231 98.1085 22.537C98.5009 22.1508 99.0296 21.9348 99.5802 21.9355H112.097C112.653 21.9355 113.186 22.1565 113.579 22.5497C113.972 22.9429 114.193 23.4762 114.193 24.0323V36.7555C114.193 37.0318 114.139 37.3054 114.033 37.5605C113.927 37.8157 113.771 38.0473 113.575 38.2422C113.379 38.437 113.147 38.5912 112.891 38.6959C112.635 38.8006 112.362 38.8538 112.085 38.8523ZM101.834 26.1291C102.215 28.1678 103.194 30.0471 104.646 31.5281C106.098 33.009 107.958 34.0248 109.989 34.4463V26.1291H101.834Z" fill="#663366"/>
<path d="M49.5477 128.065H37.0313C36.4752 128.065 35.9419 127.844 35.5487 127.451C35.1555 127.058 34.9346 126.525 34.9346 125.968V113.245C34.9346 112.689 35.1555 112.156 35.5487 111.763C35.9419 111.369 36.4752 111.148 37.0313 111.148C40.9064 111.153 44.6214 112.694 47.3615 115.434C50.1015 118.174 51.6428 121.889 51.6473 125.764V126.002C51.6392 126.553 51.4142 127.079 51.0212 127.465C50.6282 127.851 50.0987 128.067 49.5477 128.065ZM39.1281 123.872H47.2832C46.9018 121.833 45.9228 119.954 44.4707 118.473C43.0186 116.992 41.1589 115.976 39.1281 115.554V123.872Z" fill="#663366"/>
<path d="M112.085 128.065H99.5657C99.0156 128.065 98.4876 127.849 98.0958 127.463C97.7039 127.077 97.4798 126.552 97.4717 126.002V125.764C97.4761 121.889 99.0174 118.174 101.757 115.434C104.498 112.694 108.213 111.153 112.088 111.148C112.644 111.148 113.177 111.369 113.57 111.763C113.963 112.156 114.184 112.689 114.184 113.245V125.968C114.184 126.244 114.13 126.517 114.024 126.771C113.919 127.026 113.764 127.257 113.569 127.452C113.374 127.647 113.143 127.801 112.888 127.906C112.633 128.012 112.36 128.066 112.085 128.065ZM101.833 123.872H109.988V115.554C107.957 115.975 106.097 116.991 104.645 118.472C103.192 119.953 102.214 121.833 101.833 123.872Z" fill="#663366"/>
<path d="M90.9717 128.066H58.1446C57.5885 128.066 57.0552 127.845 56.662 127.452C56.2688 127.058 56.0479 126.525 56.0479 125.969V108.98C56.0479 108.423 56.2688 107.89 56.662 107.497C57.0552 107.104 57.5885 106.883 58.1446 106.883H90.9717C91.5278 106.883 92.0611 107.104 92.4544 107.497C92.8476 107.89 93.0685 108.423 93.0685 108.98V125.969C93.0685 126.525 92.8476 127.058 92.4544 127.452C92.0611 127.845 91.5278 128.066 90.9717 128.066ZM60.2414 123.872H88.8749V111.065H60.2414V123.872Z" fill="#663366"/>
<path d="M83.8872 111.064H65.2287C64.7048 111.065 64.1998 110.869 63.8131 110.516C63.4265 110.162 63.1865 109.677 63.1403 109.155C63.1068 108.808 63.0928 108.462 63.0928 108.121C63.0928 105.081 64.3004 102.165 66.45 100.015C68.5996 97.8658 71.5151 96.6582 74.5551 96.6582C77.5951 96.6582 80.5106 97.8658 82.6603 100.015C84.8099 102.165 86.0175 105.081 86.0175 108.121C86.0175 108.462 86.0035 108.808 85.97 109.155C85.9239 109.676 85.6846 110.161 85.2992 110.514C84.9138 110.867 84.4101 111.064 83.8872 111.064ZM67.3926 106.871H81.7233C81.4349 105.179 80.5573 103.644 79.2459 102.538C77.9345 101.431 76.2739 100.824 74.5579 100.824C72.842 100.824 71.1814 101.431 69.87 102.538C68.5586 103.644 67.681 105.179 67.3926 106.871Z" fill="#663366"/>
<path d="M90.9717 43.1297H58.1446C57.5885 43.1297 57.0552 42.9088 56.662 42.5156C56.2688 42.1224 56.0479 41.5891 56.0479 41.033V24.0323C56.0479 23.4762 56.2688 22.9429 56.662 22.5497C57.0552 22.1565 57.5885 21.9355 58.1446 21.9355H90.9717C91.5278 21.9355 92.0611 22.1565 92.4544 22.5497C92.8476 22.9429 93.0685 23.4762 93.0685 24.0323V41.0218C93.07 41.2981 93.0168 41.5719 92.9121 41.8276C92.8074 42.0833 92.6532 42.3158 92.4583 42.5117C92.2635 42.7076 92.0318 42.863 91.7767 42.9691C91.5216 43.0751 91.248 43.1297 90.9717 43.1297ZM60.2414 38.9362H88.8749V26.1291H60.2414V38.9362Z" fill="#663366"/>
<path d="M74.5581 53.334C71.5192 53.3303 68.6058 52.1214 66.457 49.9726C64.3082 47.8238 63.0994 44.9105 63.0957 41.8716C63.0957 41.5305 63.0957 41.1839 63.1432 40.8372C63.1894 40.3154 63.4295 39.8298 63.8161 39.4763C64.2027 39.1228 64.7078 38.9271 65.2316 38.9277H83.8901C84.414 38.9271 84.919 39.1228 85.3056 39.4763C85.6923 39.8298 85.9323 40.3154 85.9785 40.8372C86.012 41.1839 86.026 41.5305 86.026 41.8716C86.0216 44.9112 84.8118 47.825 82.6619 49.9738C80.512 52.1226 77.5977 53.331 74.5581 53.334ZM67.3927 43.1297C67.6811 44.8212 68.5587 46.3561 69.8701 47.4628C71.1815 48.5695 72.8421 49.1766 74.5581 49.1766C76.274 49.1766 77.9346 48.5695 79.246 47.4628C80.5574 46.3561 81.435 44.8212 81.7234 43.1297H67.3927Z" fill="#663366"/>
<path d="M74.558 91.8444C71.2265 91.8444 67.9699 90.8565 65.1999 89.0057C62.4299 87.1548 60.2709 84.5241 58.9961 81.4463C57.7212 78.3684 57.3876 74.9817 58.0375 71.7142C58.6875 68.4468 60.2917 65.4455 62.6474 63.0898C65.0031 60.7341 68.0044 59.1298 71.2718 58.4799C74.5393 57.83 77.9261 58.1635 81.0039 59.4384C84.0818 60.7133 86.7125 62.8723 88.5633 65.6423C90.4142 68.4123 91.402 71.6689 91.402 75.0003C91.3969 79.4661 89.6206 83.7474 86.4628 86.9052C83.3051 90.063 79.0237 91.8393 74.558 91.8444ZM74.558 62.3498C72.0559 62.3498 69.6101 63.0917 67.5297 64.4818C65.4493 65.8719 63.8279 67.8476 62.8704 70.1592C61.9129 72.4708 61.6624 75.0144 62.1505 77.4683C62.6386 79.9223 63.8435 82.1764 65.6127 83.9456C67.3819 85.7148 69.636 86.9197 72.09 87.4078C74.5439 87.8959 77.0875 87.6454 79.3991 86.6879C81.7107 85.7304 83.6864 84.109 85.0765 82.0286C86.4666 79.9482 87.2085 77.5024 87.2085 75.0003C87.2048 71.6463 85.8708 68.4308 83.4992 66.0591C81.1275 63.6875 77.912 62.3535 74.558 62.3498Z" fill="#663366"/>
<path d="M74.5578 82.4347C74.1898 82.4355 73.8281 82.3391 73.5094 82.1552L68.8853 79.4741C68.5666 79.2904 68.3019 79.026 68.1178 78.7075C67.9338 78.389 67.8369 78.0276 67.8369 77.6597V72.3199C67.8369 71.952 67.9338 71.5906 68.1178 71.2721C68.3019 70.9536 68.5666 70.6892 68.8853 70.5055L73.5094 67.8356C73.8281 67.6516 74.1897 67.5547 74.5578 67.5547C74.9258 67.5547 75.2874 67.6516 75.6062 67.8356L80.2274 70.5279C80.5462 70.7116 80.8109 70.976 80.9949 71.2945C81.179 71.613 81.2759 71.9744 81.2758 72.3423V77.6821C81.2759 78.0499 81.179 78.4113 80.9949 78.7298C80.8109 79.0484 80.5462 79.3128 80.2274 79.4965L75.6062 82.1664C75.2862 82.346 74.9247 82.4386 74.5578 82.4347ZM72.0416 76.4603L74.5578 77.9169L77.0739 76.4603V73.5416L74.5578 72.0851L72.0416 73.5416V76.4603Z" fill="#663366"/>
<path d="M74.5587 71.7601C74.2833 71.7601 74.0107 71.7059 73.7563 71.6005C73.5019 71.4951 73.2707 71.3407 73.076 71.146C72.8813 70.9513 72.7269 70.7201 72.6215 70.4657C72.5161 70.2114 72.4619 69.9387 72.4619 69.6633V60.253C72.4619 59.6969 72.6828 59.1636 73.076 58.7704C73.4693 58.3772 74.0026 58.1562 74.5587 58.1562C75.1148 58.1562 75.6481 58.3772 76.0413 58.7704C76.4346 59.1636 76.6555 59.6969 76.6555 60.253V69.6633C76.6555 69.9387 76.6012 70.2114 76.4959 70.4657C76.3905 70.7201 76.236 70.9513 76.0413 71.146C75.8466 71.3407 75.6155 71.4951 75.3611 71.6005C75.1067 71.7059 74.834 71.7601 74.5587 71.7601Z" fill="#663366"/>
<path d="M69.9339 74.4409C69.566 74.4412 69.2045 74.3448 68.8855 74.1613L60.7361 69.4562C60.2541 69.1781 59.9024 68.72 59.7582 68.1826C59.614 67.6452 59.6892 67.0725 59.9673 66.5906C60.2453 66.1086 60.7034 65.7569 61.2408 65.6127C61.7782 65.4685 62.3509 65.5437 62.8329 65.8218L70.9823 70.5269C71.3827 70.7574 71.6958 71.1137 71.8729 71.5404C72.05 71.9671 72.0812 72.4404 71.9616 72.8866C71.8421 73.3329 71.5785 73.7272 71.2118 74.0083C70.8452 74.2893 70.3959 74.4414 69.9339 74.4409Z" fill="#663366"/>
<path d="M61.7875 84.4721C61.3252 84.4733 60.8756 84.3216 60.5084 84.0408C60.1413 83.76 59.8772 83.3657 59.7573 82.9192C59.6374 82.4728 59.6684 81.9993 59.8454 81.5723C60.0225 81.1453 60.3357 80.7888 60.7363 80.5582L68.8857 75.853C69.1244 75.7153 69.3878 75.626 69.661 75.5901C69.9341 75.5543 70.2117 75.5725 70.4778 75.6439C70.7439 75.7153 70.9933 75.8384 71.2118 76.0062C71.4303 76.174 71.6137 76.3832 71.7513 76.6218C71.889 76.8605 71.9783 77.1239 72.0142 77.397C72.0501 77.6702 72.0318 77.9477 71.9604 78.2138C71.889 78.4799 71.7659 78.7294 71.5981 78.9479C71.4303 79.1664 71.2212 79.3497 70.9825 79.4874L62.8331 84.1926C62.5151 84.3759 62.1545 84.4723 61.7875 84.4721Z" fill="#663366"/>
<path d="M74.5587 91.8441C74.0026 91.8441 73.4693 91.6232 73.076 91.23C72.6828 90.8368 72.4619 90.3034 72.4619 89.7473V80.337C72.4619 79.7809 72.6828 79.2476 73.076 78.8544C73.4693 78.4611 74.0026 78.2402 74.5587 78.2402C75.1148 78.2402 75.6481 78.4611 76.0413 78.8544C76.4346 79.2476 76.6555 79.7809 76.6555 80.337V89.7473C76.6555 90.3034 76.4346 90.8368 76.0413 91.23C75.6481 91.6232 75.1148 91.8441 74.5587 91.8441Z" fill="#663366"/>
<path d="M87.3294 84.4725C86.9616 84.4722 86.6002 84.3758 86.281 84.1929L78.1316 79.4737C77.6496 79.1957 77.2979 78.7376 77.1537 78.2002C77.0095 77.6628 77.0847 77.0901 77.3628 76.6081C77.6408 76.1262 78.0989 75.7744 78.6363 75.6303C79.1737 75.4861 79.7464 75.5613 80.2284 75.8393L88.3778 80.5445C88.7782 80.775 89.0913 81.1313 89.2684 81.558C89.4455 81.9847 89.4767 82.4579 89.3571 82.9042C89.2376 83.3505 88.974 83.7448 88.6074 84.0258C88.2407 84.3069 87.7914 84.459 87.3294 84.4585V84.4725Z" fill="#663366"/>
<path d="M79.182 74.4409C78.7198 74.442 78.2701 74.2904 77.9029 74.0095C77.5358 73.7287 77.2717 73.3344 77.1518 72.888C77.0319 72.4416 77.0629 71.968 77.24 71.541C77.417 71.114 77.7302 70.7575 78.1308 70.5269L86.2803 65.8218C86.7622 65.5437 87.3349 65.4685 87.8723 65.6127C88.4097 65.7569 88.8678 66.1086 89.1459 66.5906C89.4239 67.0725 89.4991 67.6452 89.3549 68.1826C89.2108 68.72 88.859 69.1781 88.377 69.4562L80.2276 74.1613C79.9097 74.3448 79.549 74.4412 79.182 74.4409Z" fill="#663366"/>
<path d="M59.8107 77.0959H37.0313C36.4752 77.0959 35.9419 76.875 35.5487 76.4818C35.1555 76.0885 34.9346 75.5552 34.9346 74.9991C34.9346 74.443 35.1555 73.9097 35.5487 73.5165C35.9419 73.1233 36.4752 72.9023 37.0313 72.9023H59.8107C60.3668 72.9023 60.9001 73.1233 61.2933 73.5165C61.6866 73.9097 61.9075 74.443 61.9075 74.9991C61.9075 75.5552 61.6866 76.0885 61.2933 76.4818C60.9001 76.875 60.3668 77.0959 59.8107 77.0959Z" fill="#663366"/>
<path d="M112.085 77.0959H89.3058C88.7497 77.0959 88.2163 76.875 87.8231 76.4818C87.4299 76.0885 87.209 75.5552 87.209 74.9991C87.209 74.443 87.4299 73.9097 87.8231 73.5165C88.2163 73.1233 88.7497 72.9023 89.3058 72.9023H112.085C112.641 72.9023 113.175 73.1233 113.568 73.5165C113.961 73.9097 114.182 74.443 114.182 74.9991C114.182 75.5552 113.961 76.0885 113.568 76.4818C113.175 76.875 112.641 77.0959 112.085 77.0959Z" fill="#663366"/>
<path d="M49.4673 100.423C49.0517 100.425 48.6452 100.302 48.2989 100.073C47.9527 99.8428 47.6824 99.5155 47.5221 99.1321C47.3618 98.7487 47.3187 98.3264 47.3983 97.9185C47.4779 97.5106 47.6766 97.1355 47.9692 96.8405C48.2619 96.5454 48.6355 96.3438 49.0427 96.2609C49.4499 96.1781 49.8726 96.2178 50.2572 96.3751C50.6419 96.5323 50.9713 96.8 51.2039 97.1444C51.4365 97.4888 51.5619 97.8944 51.5641 98.3099V98.3267C51.5641 98.8828 51.3432 99.4161 50.9499 99.8093C50.5567 100.203 50.0234 100.423 49.4673 100.423Z" fill="#663366"/>
<path d="M58.855 98.0739C58.4395 98.075 58.0331 97.9529 57.6869 97.7232C57.3408 97.4935 57.0704 97.1664 56.91 96.7831C56.7497 96.3999 56.7064 95.9777 56.7858 95.5699C56.8651 95.1621 57.0635 94.787 57.3559 94.4918C57.6483 94.1967 58.0216 93.9948 58.4287 93.9117C58.8357 93.8285 59.2583 93.8678 59.643 94.0247C60.0277 94.1815 60.3573 94.4488 60.5903 94.7928C60.8232 95.1368 60.949 95.5421 60.9518 95.9575V95.9687C60.9529 96.2448 60.8994 96.5183 60.7946 96.7737C60.6897 97.029 60.5354 97.2612 60.3406 97.4568C60.1458 97.6524 59.9143 97.8076 59.6593 97.9135C59.4044 98.0194 59.131 98.0739 58.855 98.0739Z" fill="#663366"/>
<path d="M47.8872 92.6305C47.4717 92.6316 47.0651 92.5095 46.7189 92.2797C46.3726 92.0498 46.1023 91.7225 45.942 91.3391C45.7817 90.9557 45.7386 90.5334 45.8182 90.1255C45.8978 89.7176 46.0965 89.3425 46.3892 89.0475C46.6818 88.7525 47.0554 88.5508 47.4626 88.468C47.8698 88.3851 48.2925 88.4248 48.6772 88.5821C49.0618 88.7393 49.3913 89.0071 49.6239 89.3514C49.8565 89.6958 49.9818 90.1014 49.984 90.517V90.5337C49.984 91.0898 49.7631 91.6232 49.3699 92.0164C48.9766 92.4096 48.4433 92.6305 47.8872 92.6305Z" fill="#663366"/>
<path d="M54.2056 88.2438C53.79 88.2449 53.3834 88.1228 53.0372 87.893C52.691 87.6631 52.4207 87.3358 52.2604 86.9524C52.1001 86.569 52.057 86.1467 52.1366 85.7388C52.2162 85.3309 52.4148 84.9558 52.7075 84.6608C53.0002 84.3657 53.3737 84.1641 53.781 84.0813C54.1882 83.9984 54.6108 84.0381 54.9955 84.1954C55.3802 84.3526 55.7096 84.6203 55.9422 84.9647C56.1748 85.3091 56.3001 85.7147 56.3024 86.1302V86.147C56.3024 86.7031 56.0814 87.2364 55.6882 87.6297C55.295 88.0229 54.7617 88.2438 54.2056 88.2438Z" fill="#663366"/>
<path d="M88.4282 95.9684C88.0127 95.9695 87.6061 95.8474 87.2599 95.6176C86.9137 95.3877 86.6433 95.0604 86.483 94.677C86.3227 94.2936 86.2796 93.8713 86.3592 93.4634C86.4388 93.0555 86.6375 92.6804 86.9302 92.3854C87.2229 92.0904 87.5964 91.8887 88.0036 91.8059C88.4109 91.723 88.8335 91.7627 89.2182 91.92C89.6028 92.0772 89.9323 92.3449 90.1649 92.6893C90.3975 93.0337 90.5228 93.4393 90.525 93.8548V93.8716C90.5254 94.1471 90.4714 94.4199 90.3662 94.6745C90.2609 94.929 90.1065 95.1603 89.9117 95.3551C89.7169 95.5499 89.4856 95.7043 89.2311 95.8095C88.9765 95.9148 88.7037 95.9688 88.4282 95.9684Z" fill="#663366"/>
<path d="M96.1519 101.933C95.7363 101.934 95.3297 101.812 94.9835 101.582C94.6373 101.353 94.367 101.025 94.2067 100.642C94.0464 100.258 94.0033 99.8361 94.0829 99.4283C94.1624 99.0204 94.3611 98.6452 94.6538 98.3502C94.9465 98.0552 95.32 97.8535 95.7273 97.7707C96.1345 97.6879 96.5571 97.7276 96.9418 97.8848C97.3265 98.0421 97.6559 98.3098 97.8885 98.6542C98.1211 98.9985 98.2464 99.4041 98.2486 99.8197V99.8365C98.2486 100.393 98.0277 100.926 97.6345 101.319C97.2413 101.712 96.708 101.933 96.1519 101.933Z" fill="#663366"/>
<path d="M101.956 94.57C101.54 94.5711 101.133 94.449 100.787 94.2191C100.441 93.9893 100.171 93.662 100.01 93.2786C99.8501 92.8952 99.807 92.4729 99.8866 92.065C99.9662 91.6571 100.165 91.282 100.458 90.9869C100.75 90.6919 101.124 90.4903 101.531 90.4074C101.938 90.3246 102.361 90.3643 102.746 90.5215C103.13 90.6788 103.46 90.9465 103.692 91.2909C103.925 91.6353 104.05 92.0408 104.052 92.4564V92.4732C104.052 93.0293 103.831 93.5626 103.438 93.9558C103.045 94.3491 102.512 94.57 101.956 94.57Z" fill="#663366"/>
<path d="M96.6782 87.3649C96.2627 87.366 95.8561 87.2439 95.5099 87.0141C95.1637 86.7842 94.8933 86.4569 94.733 86.0735C94.5727 85.6901 94.5296 85.2678 94.6092 84.8599C94.6888 84.452 94.8875 84.0769 95.1802 83.7819C95.4729 83.4868 95.8464 83.2852 96.2536 83.2023C96.6609 83.1195 97.0835 83.1592 97.4682 83.3165C97.8528 83.4737 98.1823 83.7414 98.4149 84.0858C98.6475 84.4302 98.7728 84.8358 98.775 85.2513V85.2681C98.775 85.8242 98.5541 86.3575 98.1609 86.7508C97.7677 87.144 97.2343 87.3649 96.6782 87.3649Z" fill="#663366"/>
<path d="M99.8364 65.6032C99.421 65.6043 99.0145 65.4822 98.6684 65.2525C98.3222 65.0228 98.0519 64.6957 97.8915 64.3124C97.7311 63.9292 97.6879 63.507 97.7672 63.0992C97.8466 62.6914 98.045 62.3163 98.3374 62.0211C98.6298 61.726 99.0031 61.5241 99.4101 61.441C99.8172 61.3578 100.24 61.3971 100.624 61.554C101.009 61.7108 101.339 61.9781 101.572 62.3221C101.805 62.6661 101.93 63.0714 101.933 63.4868V63.5064C101.933 64.0625 101.712 64.5958 101.319 64.989C100.926 65.3823 100.393 65.6032 99.8364 65.6032Z" fill="#663366"/>
<path d="M91.7632 61.0387C91.3476 61.0398 90.9411 60.9177 90.5948 60.6879C90.2486 60.458 89.9783 60.1307 89.818 59.7473C89.6577 59.3639 89.6146 58.9416 89.6942 58.5337C89.7738 58.1258 89.9725 57.7507 90.2651 57.4557C90.5578 57.1607 90.9314 56.959 91.3386 56.8762C91.7458 56.7933 92.1685 56.8331 92.5531 56.9903C92.9378 57.1475 93.2672 57.4153 93.4998 57.7596C93.7324 58.104 93.8578 58.5096 93.86 58.9252V58.9419C93.8603 59.2174 93.8064 59.4902 93.7011 59.7448C93.5959 59.9993 93.4414 60.2306 93.2467 60.4254C93.0519 60.6202 92.8206 60.7746 92.566 60.8799C92.3115 60.9851 92.0387 61.0391 91.7632 61.0387Z" fill="#663366"/>
<path d="M101.769 52.7907C101.354 52.7918 100.947 52.6697 100.601 52.44C100.255 52.2103 99.9845 51.8832 99.8241 51.4999C99.6637 51.1167 99.6205 50.6945 99.6998 50.2867C99.7792 49.8789 99.9776 49.5038 100.27 49.2086C100.562 48.9135 100.936 48.7116 101.343 48.6285C101.75 48.5453 102.172 48.5846 102.557 48.7415C102.942 48.8983 103.271 49.1656 103.504 49.5096C103.737 49.8536 103.863 50.2589 103.866 50.6743V50.6939C103.866 51.25 103.645 51.7833 103.252 52.1765C102.858 52.5698 102.325 52.7907 101.769 52.7907Z" fill="#663366"/>
<path d="M49.1177 64.3766C48.7021 64.3777 48.2956 64.2556 47.9493 64.0258C47.6031 63.7959 47.3328 63.4686 47.1725 63.0852C47.0122 62.7018 46.9691 62.2795 47.0487 61.8716C47.1283 61.4637 47.3269 61.0886 47.6196 60.7936C47.9123 60.4986 48.2859 60.2969 48.6931 60.2141C49.1003 60.1312 49.523 60.1709 49.9076 60.3282C50.2923 60.4854 50.6217 60.7531 50.8543 61.0975C51.0869 61.4419 51.2123 61.8475 51.2145 62.2631V62.2798C51.2145 62.8359 50.9936 63.3692 50.6003 63.7625C50.2071 64.1557 49.6738 64.3766 49.1177 64.3766Z" fill="#663366"/>
<path d="M58.7681 56.652C58.3525 56.6531 57.9459 56.531 57.5997 56.3012C57.2535 56.0713 56.9832 55.744 56.8229 55.3606C56.6626 54.9772 56.6195 54.5549 56.6991 54.147C56.7787 53.7391 56.9773 53.364 57.27 53.069C57.5627 52.774 57.9362 52.5723 58.3435 52.4895C58.7507 52.4066 59.1733 52.4463 59.558 52.6036C59.9427 52.7608 60.2721 53.0285 60.5047 53.3729C60.7373 53.7173 60.8626 54.1229 60.8649 54.5384V54.5552C60.8649 55.1113 60.644 55.6446 60.2507 56.0379C59.8575 56.4311 59.3242 56.652 58.7681 56.652Z" fill="#663366"/>
<path d="M48.064 52.4391C47.6484 52.4402 47.2418 52.3181 46.8956 52.0883C46.5494 51.8584 46.2791 51.5311 46.1188 51.1477C45.9585 50.7643 45.9154 50.342 45.995 49.9341C46.0746 49.5262 46.2732 49.1511 46.5659 48.8561C46.8586 48.5611 47.2321 48.3594 47.6394 48.2766C48.0466 48.1937 48.4692 48.2334 48.8539 48.3907C49.2386 48.5479 49.568 48.8156 49.8006 49.16C50.0332 49.5044 50.1585 49.91 50.1608 50.3256V50.3423C50.1608 50.8984 49.9398 51.4317 49.5466 51.825C49.1534 52.2182 48.6201 52.4391 48.064 52.4391Z" fill="#663366"/>
<path d="M90.9717 34.6252H58.1446C57.5885 34.6252 57.0552 34.4043 56.662 34.0111C56.2688 33.6178 56.0479 33.0845 56.0479 32.5284C56.0479 31.9723 56.2688 31.439 56.662 31.0458C57.0552 30.6526 57.5885 30.4316 58.1446 30.4316H90.9717C91.5278 30.4316 92.0611 30.6526 92.4544 31.0458C92.8476 31.439 93.0685 31.9723 93.0685 32.5284C93.0685 33.0845 92.8476 33.6178 92.4544 34.0111C92.0611 34.4043 91.5278 34.6252 90.9717 34.6252Z" fill="#663366"/>
<path d="M70.0372 43.1297C69.4811 43.1297 68.9478 42.9088 68.5546 42.5156C68.1613 42.1224 67.9404 41.5891 67.9404 41.033V24.0323C67.9404 23.4762 68.1613 22.9429 68.5546 22.5497C68.9478 22.1565 69.4811 21.9355 70.0372 21.9355C70.5933 21.9355 71.1266 22.1565 71.5198 22.5497C71.9131 22.9429 72.134 23.4762 72.134 24.0323V41.0218C72.1355 41.2981 72.0823 41.5719 71.9776 41.8276C71.8729 42.0833 71.7187 42.3158 71.5238 42.5117C71.329 42.7076 71.0973 42.863 70.8422 42.9691C70.5871 43.0751 70.3135 43.1297 70.0372 43.1297Z" fill="#663366"/>
<path d="M79.0792 43.1297C78.5231 43.1297 77.9898 42.9088 77.5965 42.5156C77.2033 42.1224 76.9824 41.5891 76.9824 41.033V24.0323C76.9824 23.4762 77.2033 22.9429 77.5965 22.5497C77.9898 22.1565 78.5231 21.9355 79.0792 21.9355C79.6353 21.9355 80.1686 22.1565 80.5618 22.5497C80.9551 22.9429 81.176 23.4762 81.176 24.0323V41.0218C81.1774 41.2981 81.1243 41.5719 81.0196 41.8276C80.9149 42.0833 80.7607 42.3158 80.5658 42.5117C80.371 42.7076 80.1393 42.863 79.8842 42.9691C79.6291 43.0751 79.3555 43.1297 79.0792 43.1297Z" fill="#663366"/>
<path d="M70.0372 128.066C69.4811 128.066 68.9478 127.845 68.5546 127.452C68.1613 127.058 67.9404 126.525 67.9404 125.969V108.98C67.9404 108.423 68.1613 107.89 68.5546 107.497C68.9478 107.104 69.4811 106.883 70.0372 106.883C70.5933 106.883 71.1266 107.104 71.5198 107.497C71.9131 107.89 72.134 108.423 72.134 108.98V125.969C72.134 126.525 71.9131 127.058 71.5198 127.452C71.1266 127.845 70.5933 128.066 70.0372 128.066Z" fill="#663366"/>
<path d="M79.0792 128.066C78.5231 128.066 77.9898 127.845 77.5965 127.452C77.2033 127.058 76.9824 126.525 76.9824 125.969V108.98C76.9824 108.423 77.2033 107.89 77.5965 107.497C77.9898 107.104 78.5231 106.883 79.0792 106.883C79.6353 106.883 80.1686 107.104 80.5618 107.497C80.9551 107.89 81.176 108.423 81.176 108.98V125.969C81.176 126.525 80.9551 127.058 80.5618 127.452C80.1686 127.845 79.6353 128.066 79.0792 128.066Z" fill="#663366"/>
<path d="M90.9717 119.569H58.1446C57.5885 119.569 57.0552 119.348 56.662 118.954C56.2688 118.561 56.0479 118.028 56.0479 117.472C56.0479 116.916 56.2688 116.382 56.662 115.989C57.0552 115.596 57.5885 115.375 58.1446 115.375H90.9717C91.5278 115.375 92.0611 115.596 92.4544 115.989C92.8476 116.382 93.0685 116.916 93.0685 117.472C93.0685 118.028 92.8476 118.561 92.4544 118.954C92.0611 119.348 91.5278 119.569 90.9717 119.569Z" fill="#663366"/>
</svg>
