<svg width="150" height="150" viewBox="0 0 150 150" fill="none" xmlns="http://www.w3.org/2000/svg">
<path d="M110.75 70.5235C112.382 70.2429 113.847 69.3486 114.845 68.0226L126.133 79.3746C126.545 79.7769 127.097 80.003 127.672 80.0052C128.24 80.0028 128.785 79.7763 129.188 79.3746C129.896 78.6376 130.447 77.7642 130.808 76.8073C131.169 75.8503 131.333 74.8297 131.29 73.8073C131.312 69.0447 128.17 62.9338 123.1 57.8449C122.212 56.9751 121.302 56.1704 120.392 55.4093H137.833C138.408 55.4093 138.959 55.1801 139.365 54.7723C139.772 54.3645 140 53.8113 140 53.2345C140 47.0366 131.615 42.361 120.5 42.361C119.291 42.3594 118.083 42.4247 116.882 42.5567L129.21 30.1826C129.614 29.7752 129.84 29.224 129.84 28.6494C129.84 28.0749 129.614 27.5237 129.21 27.1163C128.476 26.4062 127.606 25.8532 126.652 25.4906C125.699 25.128 124.682 24.9634 123.663 25.0068H123.642C118.918 25.0068 112.83 28.1601 107.76 33.2272C106.905 34.0912 106.095 34.9985 105.333 35.9456C104.571 34.9985 103.761 34.0912 102.907 33.2272C97.8367 28.1601 91.7483 25.0068 87.025 25.0068H87.0033C85.9847 24.9634 84.9679 25.128 84.0145 25.4906C83.061 25.8532 82.1909 26.4062 81.4567 27.1163C81.0531 27.5237 80.8266 28.0749 80.8266 28.6494C80.8266 29.224 81.0531 29.7752 81.4567 30.1826L93.8067 42.5567C92.615 42.448 91.4017 42.361 90.1667 42.361C79.0517 42.361 70.6667 47.0366 70.6667 53.2345C70.6667 53.8113 70.8949 54.3645 71.3013 54.7723C71.7076 55.1801 72.2587 55.4093 72.8333 55.4093H90.275C89.365 56.1704 88.455 56.9751 87.5667 57.8449C82.4967 62.9338 79.355 69.0447 79.3767 73.8073C79.3334 74.8297 79.4974 75.8503 79.8586 76.8073C80.2199 77.7642 80.7709 78.6376 81.4783 79.3746C81.8819 79.7763 82.4266 80.0028 82.995 80.0052C83.5698 80.003 84.1213 79.7769 84.5333 79.3746L95.8217 68.0226C96.8201 69.3486 98.2845 70.2429 99.9167 70.5235L96.7967 120.651H70.6667V109.777C70.6615 108.048 69.9751 106.392 68.7572 105.169C67.5393 103.947 65.889 103.258 64.1667 103.253H46.8333V74.9817H68.5C69.0746 74.9817 69.6257 74.7525 70.0321 74.3447C70.4384 73.9369 70.6667 73.3837 70.6667 72.8069C70.6667 60.8243 59.01 51.0598 44.6667 51.0598C30.3233 51.0598 18.6667 60.8243 18.6667 72.8069C18.6667 73.3837 18.8949 73.9369 19.3013 74.3447C19.7076 74.7525 20.2587 74.9817 20.8333 74.9817H42.5V103.253H37.9283L30.215 89.8567C29.3525 88.3592 27.935 87.2647 26.2717 86.8121C25.4462 86.5871 24.5845 86.5289 23.7365 86.6409C22.8884 86.7529 22.071 87.0329 21.3317 87.4645C20.5915 87.8925 19.9427 88.4628 19.4223 89.1427C18.9019 89.8226 18.5201 90.5987 18.2988 91.4268C18.0774 92.2549 18.0208 93.1187 18.1323 93.9687C18.2438 94.8187 18.5211 95.6384 18.9483 96.3808L21.0717 100.078L15.1567 111.952H12.1667C11.592 111.952 11.0409 112.181 10.6346 112.589C10.2283 112.997 10 113.55 10 114.126V125H140V120.651H113.87L110.75 70.5235ZM66.16 70.6322H57.6017C57.4375 65.8286 56.0822 61.142 53.6583 56.9968C60.3317 59.4542 65.2067 64.5648 66.16 70.6322ZM31.7317 70.6322H23.1733C24.1267 64.5648 29.0017 59.4542 35.675 56.9968C33.2512 61.142 31.8958 65.8286 31.7317 70.6322ZM36.0867 70.6322C36.6717 61.5637 40.875 55.4093 44.6667 55.4093C48.4583 55.4093 52.6617 61.5637 53.2467 70.6322H36.0867ZM18.6667 120.651H14.3333V116.301H18.6667V120.651ZM23.6717 104.579L27.9183 111.952H20.01L23.6717 104.579ZM57.6667 120.651H23V116.301H57.6667V120.651ZM66.3333 120.651H62V116.301H66.3333V120.651ZM66.3333 111.952H32.9233L22.7183 94.2061C22.5714 93.9602 22.4764 93.6866 22.4391 93.4023C22.4018 93.118 22.4231 92.829 22.5017 92.5533C22.5701 92.2762 22.6937 92.0158 22.865 91.7879C23.0363 91.5599 23.2517 91.369 23.4983 91.2267C23.9972 90.9392 24.589 90.861 25.145 91.0093C25.7011 91.1648 26.175 91.5314 26.4667 92.0314L34.7867 106.515C34.9776 106.847 35.2524 107.122 35.5835 107.313C35.9145 107.504 36.2899 107.604 36.6717 107.602H64.1667C64.7413 107.602 65.2924 107.831 65.6987 108.239C66.1051 108.647 66.3333 109.2 66.3333 109.777V111.952ZM126.957 73.7856V74.0465L116.058 63.1077C115.871 61.8661 115.326 60.7065 114.491 59.7715C113.655 58.8365 112.566 58.1669 111.357 57.8449C111.668 57.0708 111.83 56.2442 111.833 55.4093H112.44C115.264 56.8009 117.829 58.6693 120.023 60.933C124.248 65.152 126.978 70.219 126.957 73.7856ZM120.5 46.7104C127.152 46.7104 132.503 48.7329 134.648 51.0598H110.143C109.601 50.4622 108.955 49.9684 108.237 49.6028C112.002 47.5798 116.231 46.5826 120.5 46.7104ZM107.132 40.7735C108.223 39.173 109.464 37.6803 110.837 36.3153C115.04 32.0746 120.067 29.3562 123.642 29.3562C123.728 29.3454 123.815 29.3454 123.902 29.3562L108.822 44.4705C107.61 44.951 106.455 45.5636 105.377 46.2972C105.117 46.1232 104.813 45.971 104.553 45.797C105.191 44.0169 106.058 42.3281 107.132 40.7735ZM105.333 53.2345C105.762 53.2345 106.181 53.3621 106.537 53.6011C106.893 53.84 107.171 54.1797 107.335 54.577C107.499 54.9744 107.542 55.4117 107.458 55.8335C107.375 56.2554 107.168 56.6429 106.865 56.947C106.562 57.2512 106.176 57.4583 105.756 57.5422C105.336 57.6261 104.9 57.583 104.504 57.4184C104.108 57.2538 103.77 56.9751 103.532 56.6175C103.294 56.2598 103.167 55.8394 103.167 55.4093C103.167 54.8325 103.395 54.2793 103.801 53.8715C104.208 53.4637 104.759 53.2345 105.333 53.2345ZM86.765 29.3562H87.025C90.6 29.3562 95.6267 32.0746 99.83 36.3153C100.873 37.3577 101.836 38.4772 102.712 39.6644C101.98 40.8713 101.35 42.1369 100.827 43.4484L86.765 29.3562ZM76.0183 51.0598C78.1633 48.7329 83.515 46.7104 90.1667 46.7104C94.3332 46.6008 98.4605 47.5429 102.17 49.4506C102.083 49.6028 101.997 49.7333 101.91 49.8855C101.395 50.2101 100.929 50.6054 100.523 51.0598H76.0183ZM94.6083 63.1077L83.71 74.0465V73.7856C83.6883 70.219 86.4183 65.152 90.6433 60.933C92.8372 58.6693 95.4023 56.8009 98.2267 55.4093H98.8333C98.8365 56.2442 98.9983 57.0708 99.31 57.8449C98.1006 58.1669 97.0113 58.8365 96.176 59.7715C95.3407 60.7065 94.7958 61.8661 94.6083 63.1077ZM98.8333 64.1081C98.8333 63.678 98.9604 63.2575 99.1985 62.8999C99.4366 62.5423 99.775 62.2635 100.171 62.0989C100.567 61.9343 101.002 61.8913 101.423 61.9752C101.843 62.0591 102.229 62.2662 102.532 62.5703C102.835 62.8745 103.041 63.262 103.125 63.6838C103.209 64.1057 103.166 64.5429 103.002 64.9403C102.838 65.3377 102.56 65.6773 102.204 65.9163C101.847 66.1553 101.429 66.2828 101 66.2828C100.425 66.2828 99.8743 66.0537 99.4679 65.6459C99.0616 65.238 98.8333 64.6849 98.8333 64.1081ZM101.13 120.651L104.315 69.6971C104.676 69.4735 105.017 69.2188 105.333 68.936C105.65 69.2188 105.991 69.4735 106.352 69.6971L109.537 120.651H101.13ZM107.5 64.1081C107.5 63.678 107.627 63.2575 107.865 62.8999C108.103 62.5423 108.442 62.2635 108.838 62.0989C109.233 61.9343 109.669 61.8913 110.089 61.9752C110.51 62.0591 110.896 62.2662 111.199 62.5703C111.502 62.8745 111.708 63.262 111.792 63.6838C111.875 64.1057 111.832 64.5429 111.668 64.9403C111.504 65.3377 111.227 65.6773 110.87 65.9163C110.514 66.1553 110.095 66.2828 109.667 66.2828C109.092 66.2828 108.541 66.0537 108.135 65.6459C107.728 65.238 107.5 64.6849 107.5 64.1081Z" fill="#663366"/>
</svg>
