<svg width="150" height="150" viewBox="0 0 150 150" fill="none" xmlns="http://www.w3.org/2000/svg">
<path d="M73.002 121.426C73.695 121.252 74.4064 121.594 74.7158 122.212L74.7764 122.349L74.7793 122.357L74.8242 122.503C75.0108 123.238 74.6336 124.013 73.8877 124.282L73.8867 124.281L63.4336 128.089L63.4326 128.087C63.2648 128.153 63.0785 128.184 62.9268 128.184C62.306 128.184 61.7304 127.814 61.5078 127.204L61.5068 127.203C61.2444 126.476 61.559 125.672 62.2549 125.338L62.3994 125.277L72.8525 121.472L72.8545 121.471L73.002 121.426Z" fill="#663366" stroke="#663366"/>
<path d="M93.9121 113.834C94.6031 113.661 95.3169 113.997 95.627 114.621L95.6875 114.76L95.6895 114.766L95.7344 114.912C95.9208 115.647 95.5437 116.422 94.7979 116.691L94.7969 116.69L84.3438 120.497L84.3428 120.496C84.175 120.562 83.9886 120.593 83.8369 120.593C83.2162 120.593 82.6405 120.223 82.418 119.613L82.417 119.611C82.1375 118.836 82.5131 117.974 83.3076 117.687L93.7627 113.88H93.7646L93.9121 113.834Z" fill="#663366" stroke="#663366"/>
<path d="M79.958 80.3623C80.4339 79.6897 81.3829 79.537 82.0459 80.0117L82.0449 80.0127L93.5908 88.2539H93.5898C94.2613 88.73 94.4137 89.6773 93.9395 90.3398L93.9346 90.3467L93.9307 90.3525C93.6312 90.7442 93.1947 90.9717 92.7139 90.9717C92.4362 90.9716 92.113 90.898 91.8545 90.6895L80.3105 82.4473V82.4482C79.6385 81.9728 79.4858 81.0252 79.959 80.3623H79.958Z" fill="#663366" stroke="#663366"/>
<path d="M60.8047 17.9316C68.6732 17.9318 75.0782 24.3434 75.084 32.2266V32.2275L75.0791 32.5947C74.8833 40.2991 68.5497 46.5066 60.8047 46.5068C52.9153 46.5068 46.509 40.0957 46.5088 32.2275C46.5088 24.3373 52.9371 17.9316 60.8047 17.9316ZM60.8047 20.9326C54.5791 20.9326 49.5042 26.0069 49.5039 32.2324C49.5039 38.4517 54.5779 43.5107 60.8047 43.5107C67.025 43.5106 72.083 38.4579 72.083 32.2324C72.0828 26.0058 67.029 20.9328 60.8047 20.9326Z" fill="#663366" stroke="#663366"/>
<path d="M58.2295 9.64746C64.784 8.91611 71.0861 10.9183 75.9492 15.2822L76.3936 15.6914C80.9154 19.9719 83.496 25.9581 83.4961 32.21C83.4961 39.9549 79.625 47.0766 73.1484 51.2686L73.1475 51.2676C70.2366 53.1528 67.7152 55.3833 65.6807 57.8584C68.2453 58.2897 70.4308 59.0512 72.0332 60.0596C73.8046 61.1744 74.9453 62.6492 74.9453 64.3662C74.9453 65.8321 74.1227 67.1196 72.8018 68.1504C71.6926 69.0159 70.2012 69.7263 68.4424 70.25L70.5254 71.7393H70.5264C71.1991 72.2151 71.3517 73.1641 70.877 73.8271L70.873 73.833L70.8682 73.8398C70.5687 74.2315 70.1322 74.459 69.6514 74.459C69.344 74.4589 69.0297 74.3655 68.7705 74.1758V74.1768L64.3809 71.0498C63.2417 71.1841 62.0644 71.2646 60.8125 71.2646C56.8781 71.2646 53.398 70.5677 50.8818 69.3818C48.3928 68.2087 46.7012 66.4764 46.7012 64.3496C46.7012 62.6218 47.8476 61.1415 49.6279 60.0264C51.2357 59.0193 53.4272 58.2626 55.9971 57.8398C54.08 55.5488 51.7719 53.4711 49.0645 51.6426L48.4639 51.2451C41.1947 46.5325 37.28 38.2298 38.2666 29.5664L38.3271 29.0801C39.7146 18.913 48.0024 10.7736 58.2295 9.64844V9.64746ZM58.043 60.5664C55.4039 60.8313 53.2969 61.4471 51.8516 62.1816C51.102 62.5626 50.5479 62.9659 50.1885 63.3525C49.8258 63.7427 49.6953 64.0766 49.6953 64.3301C49.6954 64.647 49.8887 65.0591 50.4092 65.5273C50.9214 65.9881 51.6935 66.4486 52.6963 66.8574C54.6983 67.6737 57.5352 68.249 60.8057 68.249C62.1293 68.249 63.3687 68.1642 64.4971 68L64.5332 67.9941H64.5996C66.9084 67.6734 68.7789 67.0694 70.0586 66.3633C70.7021 66.0082 71.1789 65.6376 71.4883 65.2803C71.7983 64.9223 71.916 64.6081 71.916 64.3516C71.916 64.0984 71.7861 63.7663 71.4238 63.3779C71.0649 62.9931 70.5121 62.5913 69.7637 62.2119C68.3203 61.4802 66.2172 60.8668 63.5869 60.5947C63.5467 60.6509 63.5143 60.6979 63.4863 60.7451L63.4736 60.7676L63.458 60.7881C63.3456 60.9396 63.2456 61.0942 63.1465 61.2559C62.8578 61.7371 62.5845 62.2144 62.3154 62.6934L62.1045 63.0713C62.0668 63.1465 62.0165 63.2122 61.9707 63.2656C61.9668 63.2724 61.9637 63.2805 61.959 63.2881C61.9489 63.3042 61.9366 63.3212 61.9229 63.3389L61.875 63.3926L61.8633 63.4043L61.8506 63.415C61.8156 63.4456 61.7832 63.4691 61.7598 63.4844C61.7401 63.4972 61.7178 63.5094 61.709 63.5146L61.582 63.6426H61.5303C61.4295 63.7052 61.3355 63.7352 61.2998 63.7471L61.2842 63.752C61.2793 63.7539 61.2741 63.7567 61.2686 63.7588C61.2593 63.7623 61.2475 63.7646 61.2344 63.7686L61.2236 63.7725H61.2227C61.2108 63.7758 61.1978 63.7784 61.1836 63.7812C61.0903 63.8052 60.9479 63.8379 60.8057 63.8379C60.3729 63.8378 60.0016 63.6422 59.7363 63.377L59.7246 63.3643L59.7139 63.3525C59.6743 63.3074 59.6363 63.2555 59.6006 63.2051C59.5747 63.1823 59.5437 63.1515 59.5156 63.1113C59.4943 63.0809 59.4785 63.0486 59.4648 63.0166L59.292 62.6689L58.877 61.9297C58.7342 61.6841 58.588 61.4402 58.4424 61.2002L58.4375 61.1914L58.4326 61.1836C58.4002 61.1252 58.362 61.0631 58.3154 60.9902C58.2726 60.9231 58.2206 60.8429 58.1729 60.7627L58.043 60.5664ZM61.3242 63.7344C61.3266 63.7333 61.3287 63.7331 61.3301 63.7324C61.3312 63.7319 61.3322 63.7309 61.333 63.7305C61.3318 63.7311 61.3285 63.7323 61.3242 63.7344ZM60.8057 12.5166C60.0411 12.5166 59.2839 12.5532 58.5234 12.6377H58.5225C49.5212 13.6216 42.2366 20.9053 41.2109 29.9092C40.3964 37.209 43.5484 44.2093 49.4902 48.3506L50.0742 48.7422L50.0752 48.7432L50.8291 49.2441C54.5523 51.7767 57.6066 54.742 59.9727 58.1104L59.9971 58.1445L60.0068 58.1543L60.0176 58.1738L60.0645 58.2393V58.252C60.0868 58.2902 60.1003 58.315 60.126 58.3535H60.125C60.1658 58.41 60.1989 58.4615 60.2207 58.4971L60.2783 58.585L60.2842 58.5928L60.2891 58.5996C60.464 58.8507 60.6377 59.103 60.8047 59.3584C61.0496 58.9722 61.3077 58.5901 61.5762 58.2148C61.5801 58.2079 61.5841 58.2001 61.5889 58.1924C61.6069 58.1635 61.6305 58.131 61.6611 58.0986C64.1971 54.5211 67.5392 51.3394 71.4922 48.7607L71.4932 48.7598L72.0137 48.4102C77.3226 44.7233 80.4785 38.7242 80.4785 32.2275C80.4785 26.8018 78.2251 21.6086 74.2998 17.8945L73.915 17.54C70.2599 14.2606 65.6662 12.5166 60.8057 12.5166Z" fill="#663366" stroke="#663366"/>
<path d="M117.806 58.7793C125.679 58.7795 132.085 65.1859 132.085 73.0752C132.085 80.9486 125.673 87.3543 117.806 87.3545C109.916 87.3545 103.51 80.9434 103.51 73.0752C103.51 65.1849 109.938 58.7793 117.806 58.7793ZM117.806 61.7588C111.58 61.7588 106.505 66.8328 106.505 73.0586C106.505 79.2778 111.579 84.3369 117.806 84.3369C123.838 84.3367 128.786 79.5889 129.07 73.6396L129.084 73.0596V73.0586L129.069 72.4785C128.767 66.5196 123.836 61.759 117.806 61.7588Z" fill="#663366" stroke="#663366"/>
<path d="M115.233 50.4912C121.788 49.7599 128.09 51.762 132.953 56.126L133.397 56.5352C137.919 60.8156 140.5 66.8019 140.5 73.0537C140.5 80.7987 136.629 87.9203 130.152 92.1123L130.151 92.1113C127.207 94.0125 124.699 96.2258 122.672 98.6484C125.242 99.0789 127.43 99.8347 129.034 100.84C130.81 101.953 131.949 103.428 131.949 105.155C131.949 107.282 130.256 109.014 127.767 110.188C125.25 111.373 121.769 112.07 117.838 112.07C115.009 112.07 112.411 111.703 110.242 111.065L105.267 112.881L105.266 112.88C105.098 112.946 104.911 112.977 104.759 112.977C104.138 112.977 103.562 112.607 103.34 111.997L103.339 111.995C103.059 111.22 103.435 110.358 104.229 110.07L106.326 109.307C104.732 108.215 103.711 106.811 103.711 105.172C103.711 103.541 104.746 102.132 106.357 101.044L103.395 98.9365V98.9355C102.724 98.4599 102.571 97.5139 103.043 96.8516L103.138 96.7324C103.636 96.1627 104.509 96.0558 105.131 96.501L109.422 99.5664C110.506 99.1956 111.7 98.9027 113.003 98.6865C111.085 96.3944 108.777 94.3155 106.068 92.4863L105.468 92.0889C98.1986 87.3762 94.2839 79.0735 95.2705 70.4102L95.3311 69.9238C96.7185 59.7567 105.006 51.6174 115.233 50.4922V50.4912ZM120.564 101.466C120.416 101.7 120.293 101.876 120.171 102.082L120.169 102.085C119.879 102.567 119.606 103.046 119.336 103.526L119.125 103.904L119.124 103.906C118.846 104.398 118.344 104.686 117.805 104.687H117.783C117.25 104.687 116.735 104.381 116.489 103.915L116.484 103.906L116.294 103.526L116.27 103.478L116.264 103.452C116.261 103.448 116.258 103.443 116.254 103.437C116.25 103.43 116.246 103.424 116.24 103.416C116.235 103.409 116.229 103.4 116.223 103.391L116.211 103.373L116.2 103.354C115.97 102.937 115.748 102.55 115.501 102.161L115.5 102.16C115.388 101.982 115.218 101.734 115.091 101.518L115.084 101.507L115.078 101.495C115.067 101.473 115.053 101.454 115.04 101.433C112.404 101.698 110.3 102.313 108.855 103.047C108.106 103.428 107.552 103.831 107.192 104.218C106.83 104.608 106.699 104.942 106.699 105.195C106.699 105.558 106.947 106.035 107.608 106.563C108.244 107.071 109.188 107.564 110.394 107.979C110.654 107.993 110.924 108.07 111.166 108.229C112.995 108.771 115.273 109.115 117.805 109.115C121.075 109.115 123.912 108.539 125.914 107.723C126.917 107.314 127.689 106.853 128.201 106.393C128.722 105.924 128.914 105.512 128.914 105.195C128.914 104.942 128.784 104.608 128.422 104.218C128.063 103.831 127.509 103.426 126.761 103.044C125.32 102.308 123.222 101.687 120.6 101.412L120.564 101.466ZM117.805 53.3652C117.04 53.3652 116.283 53.4028 115.522 53.4873H115.521C106.52 54.471 99.2357 61.7538 98.21 70.7578C97.369 78.2934 100.755 85.51 107.073 89.5918H107.074L107.827 90.0928C111.527 92.6117 114.565 95.5746 116.924 98.915C116.95 98.938 116.982 98.9699 117.012 99.0117C117.039 99.0507 117.058 99.0924 117.073 99.1338C117.316 99.483 117.562 99.845 117.802 100.216C118.045 99.8355 118.296 99.4635 118.546 99.0957V99.0869L118.638 98.957C121.181 95.3676 124.531 92.1683 128.491 89.6084L129.012 89.2588C134.321 85.5719 137.478 79.5729 137.478 73.0762C137.477 67.6508 135.224 62.4581 131.299 58.7441L130.913 58.3887C127.258 55.1095 122.665 53.3653 117.805 53.3652Z" fill="#663366" stroke="#663366"/>
<path d="M33.6113 83.3066C41.9613 83.3066 48.7467 90.0918 48.7305 98.4482L48.7256 98.8379C48.5181 106.993 41.8155 113.567 33.6113 113.567C25.2557 113.567 18.4697 106.783 18.4697 98.4482C18.4698 90.092 25.2609 83.3067 33.6113 83.3066ZM33.6113 86.2861C26.9246 86.2862 21.4707 91.7401 21.4707 98.4268C21.4707 105.135 26.9241 110.567 33.6113 110.567C40.2931 110.567 45.752 105.129 45.752 98.4268C45.7519 91.74 40.2981 86.2861 33.6113 86.2861Z" fill="#663366" stroke="#663366"/>
<path d="M31.5127 74.3867C38.2335 73.8117 44.6605 75.9484 49.6758 80.4434L50.1484 80.8779C54.9668 85.4326 57.7109 91.7877 57.7109 98.4238C57.7109 106.651 53.5849 114.212 46.7129 118.658L46.7119 118.657C43.513 120.746 40.7958 123.151 38.5225 125.813C40.7668 126.171 42.738 126.766 44.3203 127.546C45.9194 128.335 47.159 129.335 47.8545 130.51L51.9053 129.036H51.9072L52.0527 128.991C52.7879 128.805 53.5628 129.182 53.832 129.928L53.877 130.074C54.0631 130.809 53.6859 131.582 52.9404 131.852L52.9414 131.853L48.3984 133.499C48.0007 135.433 46.2272 137.002 43.7549 138.088C41.1255 139.243 37.5723 139.919 33.5693 139.919C29.4045 139.919 25.7196 139.185 23.0566 137.939C20.4223 136.707 18.6389 134.892 18.6387 132.668C18.6387 130.842 19.8626 129.281 21.7686 128.106C23.5027 127.038 25.8721 126.239 28.6494 125.797C26.4275 123.124 23.7085 120.703 20.4873 118.613V118.614C12.7568 113.609 8.60946 104.779 9.66113 95.5898L9.72559 95.0752C11.187 84.291 19.9889 75.6562 30.8613 74.4512L31.5127 74.3867ZM30.7002 128.585C27.8446 128.872 25.561 129.54 23.9932 130.339C23.1816 130.753 22.5798 131.193 22.1875 131.616C21.7923 132.043 21.6437 132.414 21.6436 132.705C21.6436 133.072 21.8548 133.528 22.3965 134.031C22.9326 134.529 23.7437 135.025 24.8066 135.465C26.9294 136.343 29.9753 136.961 33.5947 136.961C37.0447 136.961 39.9739 136.397 42.0781 135.58C43.1311 135.171 43.9612 134.705 44.5459 134.228C45.0544 133.813 45.344 133.417 45.4648 133.07C45.4574 133.053 45.447 133.035 45.4404 133.016V133.015C45.3459 132.739 45.3415 132.452 45.4043 132.191C45.0914 131.552 44.2206 130.787 42.7148 130.106C41.1823 129.414 39.0838 128.853 36.5225 128.61C36.5199 128.614 36.5182 128.618 36.5156 128.622C36.4558 128.708 36.4061 128.781 36.3633 128.851L36.3623 128.85C36.3163 128.931 36.2683 129.01 36.2246 129.078C36.1751 129.156 36.1336 129.219 36.0957 129.283L36.0908 129.294L36.0889 129.293C35.7537 129.83 35.4461 130.369 35.1582 130.907L34.9482 131.307L34.9424 131.315L34.9375 131.325C34.8978 131.393 34.8569 131.444 34.833 131.474C34.8065 131.506 34.8022 131.511 34.7969 131.519L34.7852 131.536L34.7725 131.553C34.5161 131.875 34.1255 132.077 33.708 132.077H33.5928C33.0678 132.047 32.5572 131.778 32.2949 131.262V131.263L32.0908 130.875L31.6377 130.094C31.4836 129.833 31.3274 129.57 31.1699 129.307L31.168 129.305C31.0515 129.107 30.9331 128.934 30.8018 128.734L30.7949 128.725C30.7668 128.68 30.7331 128.634 30.7002 128.585ZM33.6055 77.3076C32.8046 77.3076 31.9829 77.3664 31.1523 77.4521L31.1514 77.4512C21.499 78.5226 13.6913 86.3108 12.6006 95.9629C11.6944 104.024 15.3352 111.768 22.0938 116.143H22.0928C26.9596 119.29 30.818 123.14 33.5947 127.586C33.8498 127.189 34.1122 126.772 34.3936 126.368L34.5127 126.187C34.5597 126.112 34.6126 126.062 34.6455 126.034C37.3318 122.238 40.8792 118.867 45.0732 116.142H45.0742L45.6309 115.768C51.313 111.824 54.6885 105.398 54.6885 98.4277C54.6884 92.4328 52.1193 86.6954 47.6592 82.6904L47.2881 82.3652C43.4257 79.0614 38.6607 77.3076 33.6055 77.3076Z" fill="#663366" stroke="#663366"/>
</svg>
