<svg width="150" height="150" viewBox="0 0 150 150" fill="none" xmlns="http://www.w3.org/2000/svg">
<path d="M138.343 34.3745L98.246 26.6559C98.3475 26.0466 98.3475 25.4372 98.3475 24.8278V24.4216C98.3475 22.492 96.9264 20.7654 95.0992 20.3592L69.7219 15.2812C68.5038 15.078 67.2857 15.3827 66.3721 16.0936C65.357 16.9061 64.8495 18.1248 64.8495 19.3436V20.1561C64.8495 20.1561 12.4708 10 12.0647 10C11.0497 10 10.2376 10.7109 10.0346 11.625C9.83155 12.7421 10.5421 13.7577 11.6587 13.9609L64.8495 24.32C65.154 31.6324 70.128 37.9292 77.0306 39.6557V49.8118C76.9291 49.9133 76.7261 50.0149 76.6246 50.218L55.9167 70.9364C52.8714 69.3114 49.3186 68.8036 45.9688 69.4129C47.5929 66.8739 48.608 63.9287 48.608 60.7803C48.608 55.0929 45.3597 49.8118 40.3858 47.2727L42.619 41.4838C42.9235 40.7729 42.7205 39.9604 42.213 39.351C41.7054 38.7416 40.8933 38.5385 40.0813 38.8432L32.2651 41.4838C24.8549 41.89 18.8659 46.054 16.3281 52.8586C12.6738 62.4053 17.5462 73.0699 27.0881 76.7261C27.2911 76.8277 27.5956 76.8277 27.7987 76.8277C28.5092 76.8277 29.2198 76.4214 29.5243 75.7105C30.7424 76.0152 32.062 76.2183 33.2802 76.2183C34.0922 76.2183 34.9043 76.1168 35.7164 76.0152C33.8892 78.6558 32.8741 81.7026 32.8741 85.0541C32.8741 89.2181 34.4983 93.1789 37.442 96.1242L56.7288 115.117L55.8152 116.031C55.0031 116.843 55.0031 118.062 55.8152 118.875C56.2212 119.281 56.7288 119.484 57.2363 119.484C57.7439 119.484 58.2514 119.281 58.6574 118.875L59.571 117.961L61.9057 120.296C64.951 123.343 69.1129 124.968 73.3763 124.765C77.6396 124.562 81.7 122.531 84.4408 119.281L87.08 116.031L87.283 116.336C87.7906 117.351 89.0087 117.757 90.0238 117.25C91.0388 116.742 91.4449 115.523 90.9373 114.507L90.0238 112.679L92.1554 110.039L97.3324 135.125C97.9415 137.969 100.581 140 103.524 140H117.736C120.578 140 122.811 137.664 122.811 134.82C122.811 132.891 121.695 131.063 119.969 130.149L110.63 125.477V103.134V102.626L120.273 112.274C120.781 112.782 121.593 112.985 122.304 112.782L133.165 109.633C133.571 109.532 134.079 109.633 134.485 109.938C134.992 110.446 134.992 111.258 134.485 111.766L125.044 121.211C124.334 121.922 123.319 122.024 122.507 121.414L116.619 117.454C115.706 116.844 114.386 117.047 113.777 117.961C113.168 118.875 113.371 120.196 114.284 120.805L120.172 124.766C121.187 125.477 122.405 125.782 123.623 125.782C125.146 125.782 126.77 125.172 127.887 123.953L137.327 114.508C139.459 112.376 139.459 109.024 137.327 106.891C135.906 105.469 133.876 104.962 132.049 105.571L122.405 108.415L108.498 94.5008C105.555 89.4228 100.073 86.0713 93.8811 86.0713C89.9222 86.0713 86.1664 87.4932 83.1211 89.9306L81.091 91.454V83.0245L86.5724 77.5402C87.9936 76.1184 88.8056 74.0872 88.8056 72.056C88.8056 70.0247 87.9936 67.9935 86.5724 66.5717C85.8619 65.8608 84.9483 65.2514 84.0347 64.8452L87.5875 61.2905C89.1102 59.8687 89.9222 57.8375 89.9222 55.8063C89.9222 53.7751 89.1102 51.7438 87.689 50.322C86.1664 48.697 84.1362 47.8845 82.106 47.8845C81.8015 47.8845 81.3955 47.8845 81.091 47.9861V40.3691C81.5985 40.3691 82.0045 40.4706 82.5121 40.4706C86.2679 40.4706 89.9222 39.2519 92.7645 36.916C94.7947 35.1895 96.3173 33.0567 97.2309 30.6192L137.529 38.4394H137.935C138.849 38.4394 139.762 37.7285 139.965 36.8144C140.168 35.6973 139.458 34.5801 138.341 34.377L138.343 34.3745ZM77.0314 55.4991V65.3505C76.5239 65.6552 76.0163 66.0614 75.6103 66.4677L64.0382 78.0456L59.7749 73.6785C59.6733 73.5769 59.4703 73.3738 59.2673 73.2722L77.0314 55.4991ZM44.5485 60.7803C44.5485 61.5928 44.447 62.4053 44.244 63.2178L35.3112 60.5772L38.9655 51.0305C42.3153 52.9601 44.5485 56.7179 44.5485 60.7803ZM20.0856 54.0773C22.1158 48.6946 26.6837 45.5462 32.6727 45.3431C32.8757 45.3431 33.0788 45.3431 33.2818 45.2415L37.3421 43.9212L26.6837 71.8512C20.4916 68.4997 17.5479 60.8827 20.0856 54.0773ZM31.0486 71.7488L33.8908 64.4365L42.7221 66.9755C40.6919 70.0223 37.2406 71.952 33.3833 71.952C32.5712 71.952 31.7591 71.8504 31.0486 71.7488ZM81.3971 116.741C79.3669 119.178 76.4232 120.6 73.2764 120.803C70.1296 120.905 67.0843 119.788 64.8511 117.553L62.5164 115.218L78.4533 99.2726L85.1529 112.171L81.3971 116.741ZM85.356 93.1789C87.6907 91.2493 90.5329 90.2337 93.5782 90.2337C100.684 90.2337 106.47 96.0226 106.47 103.132V126.795C106.47 127.607 106.876 128.217 107.586 128.623L118.042 133.802C118.448 134.005 118.651 134.412 118.651 134.818C118.651 135.427 118.143 135.935 117.534 135.935H103.222C102.308 135.935 101.394 135.224 101.191 134.31L95.6084 107.092C95.4054 105.975 94.4918 105.061 93.3752 104.756C92.2586 104.451 91.0405 104.858 90.3299 105.772L87.8937 108.717L81.4986 96.3265L85.356 93.1789ZM77.0322 91.0462L75.002 89.015L77.0322 86.9837V91.0462ZM83.7318 74.5933L71.4492 86.8822C69.9266 88.4056 67.8964 89.2181 65.7647 89.2181H46.5803C45.4637 89.2181 44.5501 90.1321 44.5501 91.2493C44.5501 92.3665 45.4637 93.2805 46.5803 93.2805H65.7647C67.9979 93.2805 70.0281 92.6711 71.9568 91.6555L76.1186 95.8195L59.6742 112.272L40.3874 93.0782C38.1542 90.8439 36.9361 88.0002 36.9361 84.8518C36.9361 81.7034 38.1542 78.8597 40.3874 76.6254C42.6206 74.391 45.4629 73.1723 48.6097 73.1723C50.9444 73.1723 53.1776 73.8832 55.1062 75.102C55.7153 75.5082 56.3244 76.016 56.8319 76.5238L58.253 77.9457H49.6248C48.5081 77.9457 47.5946 78.8597 47.5946 79.9769C47.5946 81.094 48.5081 82.0081 49.6248 82.0081H64.8511C65.3587 82.0081 65.8662 81.805 66.2722 81.3987L78.4533 69.2114C79.8745 67.7896 82.2092 67.7896 83.7318 69.2114C84.4424 69.9224 84.8484 70.8364 84.8484 71.852C84.8484 72.8676 84.4424 73.8824 83.7318 74.5933ZM84.7469 53.0625C85.4575 53.7734 85.8635 54.6875 85.8635 55.7031C85.8635 56.7187 85.4575 57.6327 84.7469 58.3437L81.0926 61.8983V52.1485C82.3107 51.8438 83.7318 52.1485 84.7469 53.0625ZM90.2284 33.766C87.3861 36.1019 83.6303 36.9144 79.773 36.2034L78.7579 36.0003C73.0734 34.8832 68.9115 29.602 68.9115 23.6099V19.3444L94.2888 24.4224V24.8287C94.2888 28.3833 92.8676 31.5317 90.2284 33.766Z" fill="#663366"/>
</svg>
