<svg width="150" height="150" viewBox="0 0 150 150" fill="none" xmlns="http://www.w3.org/2000/svg">
<path d="M125.21 59.9877C125.631 60.0688 126.063 60.1155 126.505 60.1155C126.945 60.1155 127.377 60.0688 127.79 59.9877L132.496 73.0411C128.627 74.6937 124.383 74.6937 120.515 73.0411L125.21 59.9877ZM126.505 51.0373C128.044 51.0373 129.194 52.1909 129.194 53.6138C129.194 55.0436 128.044 56.2041 126.505 56.2041C124.966 56.2041 123.806 55.0436 123.806 53.6138C123.808 52.1909 124.968 51.0373 126.505 51.0373ZM44.9917 45.033L73.6819 52.4965L102.382 45.033L107.185 63.7108L73.6819 70.2142L40.1876 63.7108L44.9917 45.033ZM73.6906 14.0547L124.543 27.2687V35.2278L73.6819 48.4384L22.8291 35.2278V27.2687L73.6906 14.0547ZM73.6819 10L18.916 24.2294V38.2498L41.2047 44.0521L35.3593 66.7674L73.6819 74.2015L112.015 66.7674L106.17 44.0521L124.545 39.2756V47.442C121.882 48.2778 119.896 50.7075 119.896 53.6138C119.896 55.3476 120.606 56.9225 121.739 58.0829L115.569 75.2342L117.009 76.0545C122.891 79.3735 130.123 79.3735 136.005 76.0545L137.434 75.2342L131.264 58.0829C132.397 56.9225 133.107 55.3476 133.107 53.6138C133.107 50.6988 131.128 48.2709 128.458 47.442V24.2294L73.6819 10Z" fill="#663366"/>
<path fill-rule="evenodd" clip-rule="evenodd" d="M38.8668 103.727H117.98V121.637H38.8668V103.727ZM36.6909 89.2836H130.446V99.8141H34.9364V125.548H130.446V136.078H36.6909C30.1875 136.078 25.4127 133.548 22.0851 129.397C18.747 125.242 16.9321 119.343 16.9321 112.678C16.9321 106.003 18.7487 100.121 22.0851 95.9649C25.411 91.8066 30.1875 89.2836 36.6909 89.2836ZM36.6909 85.3516C29.1359 85.3516 23.0469 88.491 19.0354 93.5007C15.0153 98.512 13 105.292 13 112.678C13 120.06 15.0153 126.85 19.0354 131.861C23.0452 136.869 29.1359 140 36.6909 140H134.359V121.637H121.893V103.727H134.359V85.3516H36.6909Z" fill="#663366"/>
</svg>
