<svg xmlns="http://www.w3.org/2000/svg" version="1.1" viewBox="-5.0 -10.0 110.0 135.0">
 <path d="m52.605 55.215c0 1.0547-0.63672 2.0039-1.6094 2.4062s-2.0938 0.17969-2.8359-0.5625c-0.74609-0.74609-0.96875-1.8672-0.56641-2.8398s1.3516-1.6055 2.4062-1.6055c1.4375 0 2.6055 1.1641 2.6055 2.6016zm-13.543-2.6016c-1.0547 0-2.0039 0.63281-2.4062 1.6055s-0.17969 2.0938 0.56641 2.8398c0.74219 0.74219 1.8633 0.96484 2.8359 0.5625s1.6094-1.3516 1.6094-2.4062c0-0.69141-0.27734-1.3516-0.76562-1.8398-0.48828-0.48828-1.1484-0.76172-1.8398-0.76172zm21.875 0c-1.0547 0-2.0039 0.63281-2.4062 1.6055s-0.17969 2.0938 0.56641 2.8398c0.74219 0.74219 1.8633 0.96484 2.8359 0.5625s1.6094-1.3516 1.6094-2.4062c0-0.69141-0.27734-1.3516-0.76562-1.8398-0.48828-0.48828-1.1484-0.76172-1.8398-0.76172zm-10.938 9.8164c-1.0547 0-2.0039 0.63281-2.4062 1.6055s-0.17969 2.0938 0.56641 2.8398c0.74219 0.74609 1.8633 0.96875 2.8359 0.5625 0.97266-0.40234 1.6094-1.3516 1.6094-2.4023 0-0.69141-0.27734-1.3555-0.76562-1.8438-0.48828-0.48828-1.1484-0.76172-1.8398-0.76172zm-10.938 0c-1.0547 0-2.0039 0.63281-2.4062 1.6055s-0.17969 2.0938 0.56641 2.8398c0.74219 0.74609 1.8633 0.96875 2.8359 0.5625 0.97266-0.40234 1.6094-1.3516 1.6094-2.4023 0-0.69141-0.27734-1.3555-0.76562-1.8438-0.48828-0.48828-1.1484-0.76172-1.8398-0.76172zm21.875 0c-1.0547 0-2.0039 0.63281-2.4062 1.6055s-0.17969 2.0938 0.56641 2.8398c0.74219 0.74609 1.8633 0.96875 2.8359 0.5625 0.97266-0.40234 1.6094-1.3516 1.6094-2.4023 0-0.69141-0.27734-1.3555-0.76562-1.8438-0.48828-0.48828-1.1484-0.76172-1.8398-0.76172zm-10.938 9.7656c-1.0547 0-2.0039 0.63281-2.4062 1.6055-0.40234 0.97266-0.17969 2.0938 0.56641 2.8398 0.74219 0.74609 1.8633 0.96875 2.8359 0.5625 0.97266-0.40234 1.6094-1.3516 1.6094-2.4023 0-0.69141-0.27734-1.3555-0.76562-1.8438-0.48828-0.48828-1.1484-0.76172-1.8398-0.76172zm-10.938 0c-1.0547 0-2.0039 0.63281-2.4062 1.6055-0.40234 0.97266-0.17969 2.0938 0.56641 2.8398 0.74219 0.74609 1.8633 0.96875 2.8359 0.5625 0.97266-0.40234 1.6094-1.3516 1.6094-2.4023 0-0.69141-0.27734-1.3555-0.76562-1.8438-0.48828-0.48828-1.1484-0.76172-1.8398-0.76172zm21.875 0c-1.0547 0-2.0039 0.63281-2.4062 1.6055-0.40234 0.97266-0.17969 2.0938 0.56641 2.8398 0.74219 0.74609 1.8633 0.96875 2.8359 0.5625 0.97266-0.40234 1.6094-1.3516 1.6094-2.4023 0-0.69141-0.27734-1.3555-0.76562-1.8438-0.48828-0.48828-1.1484-0.76172-1.8398-0.76172zm11.895-55.008v65.625c-0.007812 4.3125-3.5 7.8086-7.8125 7.8125h-30.039c-4.3125-0.003906-7.8047-3.5-7.8125-7.8125v-65.625c0.007812-4.3125 3.5-7.8086 7.8125-7.8125h30.039c4.3125 0.003906 7.8047 3.5 7.8125 7.8125zm-32.809-4.6875v2.3359h19.957l-0.003907-2.3359zm29.684 4.6875c-0.003906-2.5859-2.1016-4.6836-4.6875-4.6875h-1.918v2.3359c0 1.7266-1.3984 3.125-3.125 3.125h-19.953c-1.7266 0-3.125-1.3984-3.125-3.125v-2.3359h-1.918c-2.5859 0.003906-4.6836 2.1016-4.6875 4.6875v65.625c0.003906 2.5859 2.1016 4.6836 4.6875 4.6875h30.039c2.5859-0.003906 4.6836-2.1016 4.6875-4.6875zm-19.707 14.191c-0.63281 0-1.2148-0.33984-1.5273-0.89062-0.30859-0.55469-0.29688-1.2266 0.03125-1.7695 0.33203-0.53906 0.92578-0.85938 1.5586-0.83984 0.63281 0.023438 1.2031 0.38281 1.4922 0.94531 0.39844 0.76562 1.3438 1.0664 2.1094 0.66797 0.76563-0.39844 1.0625-1.3438 0.66406-2.1094-0.8125-1.5625-2.4023-2.5664-4.1641-2.625-1.7617-0.058593-3.4141 0.83594-4.332 2.3398-0.91406 1.5039-0.94531 3.3867-0.082031 4.9219 0.86328 1.5352 2.4883 2.4844 4.25 2.4844 0.64453 0.003906 1.2383 0.35547 1.543 0.92578 0.30078 0.56641 0.26953 1.2578-0.085938 1.793-0.35547 0.53906-0.98047 0.83594-1.6211 0.77734-0.64063-0.0625-1.1992-0.46875-1.4492-1.0625-0.33594-0.79688-1.2539-1.168-2.0469-0.83203-0.79688 0.33594-1.168 1.2539-0.83203 2.0469 0.69922 1.6562 2.25 2.793 4.0391 2.957 1.7891 0.16797 3.5234-0.66406 4.5156-2.1602 0.99219-1.4961 1.082-3.418 0.23438-5-0.85156-1.582-2.5-2.5703-4.2969-2.5703z"/>
<text x="0.0" y="117.5" font-size="5.0" font-weight="bold" font-family="Arbeit Regular, Helvetica, Arial-Unicode, Arial, Sans-serif" fill="#000000">Created by PercobaanTA</text><text x="0.0" y="122.5" font-size="5.0" font-weight="bold" font-family="Arbeit Regular, Helvetica, Arial-Unicode, Arial, Sans-serif" fill="#000000">from Noun Project</text></svg>