<svg width="150" height="150" viewBox="0 0 150 150" fill="none" xmlns="http://www.w3.org/2000/svg">
<path d="M62.1002 26.7744C54.0067 26.7744 47.4229 33.3583 47.4229 41.4518V108.548C47.4229 116.642 54.0067 123.226 62.1002 123.226H87.2614C95.3549 123.226 101.939 116.642 101.939 108.548V41.4518C101.939 33.3583 95.3549 26.7744 87.2614 26.7744H62.1002ZM93.5517 43.5485H97.7452V58.2259H91.5681L93.8536 51.3695L92.9373 50.4532C92.6563 50.1701 85.9048 43.5485 74.6808 43.5485C63.4568 43.5485 56.7052 50.1701 56.4243 50.4532L55.508 51.3695L57.7934 58.2259H51.6164V43.5485H55.8099C61.5907 43.5485 66.2937 38.8455 66.2937 33.0647V30.9679H83.0678V33.0647C83.0678 38.8455 87.7709 43.5485 93.5517 43.5485ZM93.5517 106.451C87.7709 106.451 83.0678 111.155 83.0678 116.935V119.032H66.2937V116.935C66.2937 111.155 61.5907 106.451 55.8099 106.451H51.6164V69.6637C52.8786 70.3934 54.3191 70.8065 55.8099 70.8065H60.0034V85.1441L55.508 98.6305L56.4243 99.5468C56.7052 99.8299 63.4568 106.451 74.6808 106.451C85.9048 106.451 92.6563 99.8299 92.9373 99.5468L93.8536 98.6305L89.3581 85.1441V70.8065H93.5517C95.0425 70.8065 96.4829 70.3934 97.7452 69.6637V106.451H93.5517ZM97.7452 62.432C97.7431 63.3147 97.4768 64.1534 96.9484 64.881C96.16 65.965 94.8894 66.6129 93.5517 66.6129H89.3581V64.8558L90.1696 62.4194H97.7452V62.432ZM85.1646 66.6129V83.3871H64.197V66.6129H85.1646ZM63.612 87.5806H85.7517L89.0206 97.3871C87.0014 98.9576 81.8999 102.258 74.6808 102.258C67.4574 102.258 62.356 98.9555 60.3431 97.3871L63.612 87.5806ZM85.7496 62.4194H63.612L60.3431 52.6128C62.3602 51.0424 67.4616 47.7421 74.6808 47.7421C81.9041 47.7421 87.0056 51.0445 89.0185 52.6128L85.7496 62.4194ZM60.0034 64.8558V66.6129H55.8099C54.4722 66.6129 53.2015 65.965 52.4131 64.881C51.8848 64.1534 51.6164 63.3147 51.6164 62.432V62.4194H59.192L60.0034 64.8558ZM62.1002 30.9679V33.0647C62.1002 36.5328 59.278 39.355 55.8099 39.355H51.8282C52.8031 34.5765 57.0386 30.9679 62.1002 30.9679ZM51.8282 110.645H55.8099C59.278 110.645 62.1002 113.467 62.1002 116.935V119.032C57.0386 119.032 52.8031 115.424 51.8282 110.645ZM87.2614 119.032V116.935C87.2614 113.467 90.0836 110.645 93.5517 110.645H97.5334C96.5584 115.424 92.323 119.032 87.2614 119.032ZM97.5334 39.355H93.5517C90.0836 39.355 87.2614 36.5328 87.2614 33.0647V30.9679C92.323 30.9679 96.5584 34.5765 97.5334 39.355Z" fill="#663366"/>
<path d="M105.352 85.3352L110.326 87.323V108.549C110.326 118.953 101.859 127.419 91.4549 127.419H57.9067C47.5026 127.419 39.0358 118.953 39.0358 108.549V87.323L44.0094 85.3331L42.4515 81.4395L11 94.02L12.5579 97.9137L26.4553 92.3552V108.549C26.4553 125.891 40.5644 140 57.9067 140H91.4549C108.797 140 122.906 125.891 122.906 108.549V92.3552L136.804 97.9137L138.362 94.02L106.91 81.4395L105.352 85.3352ZM118.713 108.549C118.713 123.578 106.485 135.806 91.4549 135.806H57.9067C42.8771 135.806 30.6488 123.578 30.6488 108.549V90.6778L34.8423 89.0004V108.549C34.8423 121.265 45.1898 131.613 57.9067 131.613H91.4549C104.172 131.613 114.519 121.265 114.519 108.549V89.0004L118.713 90.6778V108.549Z" fill="#663366"/>
<path d="M118.713 70.8066H114.519V79.1937H118.713V70.8066Z" fill="#663366"/>
<path d="M127.1 66.6123H122.906V83.3864H127.1V66.6123Z" fill="#663366"/>
<path d="M135.487 62.4189H131.293V87.5801H135.487V62.4189Z" fill="#663366"/>
<path d="M44.0094 64.6647L39.0358 62.677V41.4515C39.0358 31.0473 47.5026 22.5806 57.9067 22.5806H91.4549C101.859 22.5806 110.326 31.0473 110.326 41.4515V62.677L105.352 64.6668L106.91 68.5605L138.362 55.9799L136.804 52.0863L122.906 57.6448V41.4515C122.906 24.1091 108.797 10 91.4549 10H57.9067C40.5644 10 26.4553 24.1091 26.4553 41.4515V57.6448L12.5579 52.0863L11 55.9799L42.4515 68.5605L44.0094 64.6647ZM30.6488 41.4515C30.6488 26.4219 42.8771 14.1935 57.9067 14.1935H91.4549C106.485 14.1935 118.713 26.4219 118.713 41.4515V59.3222L114.519 60.9996V41.4515C114.519 28.7346 104.172 18.3871 91.4549 18.3871H57.9067C45.1898 18.3871 34.8423 28.7346 34.8423 41.4515V60.9996L30.6488 59.3222V41.4515Z" fill="#663366"/>
<path d="M34.8422 70.8066H30.6487V79.1937H34.8422V70.8066Z" fill="#663366"/>
<path d="M26.4552 66.6123H22.2617V83.3864H26.4552V66.6123Z" fill="#663366"/>
<path d="M18.0682 62.4189H13.8746V87.5801H18.0682V62.4189Z" fill="#663366"/>
</svg>
