<svg width="150" height="150" viewBox="0 0 150 150" fill="none" xmlns="http://www.w3.org/2000/svg">
<path d="M140 75.0046C140 64.5284 135.089 58.8962 130.341 55.8906C132.169 51.5843 132.403 46.6585 131.017 41.2096C127.706 28.1692 117.894 26.3505 113.482 26.2088C112.543 16.799 105.144 10.5281 94.0833 10.025C88.3603 9.76099 83.2821 11.5891 79.3776 15.3165C76.2749 18.277 74.1573 22.2989 73.3448 26.5392L68.5156 22.9184C68.7644 22.0297 68.9015 21.1055 68.9015 20.1609C68.9066 14.5597 64.3515 10.0046 58.7503 10.0046C53.1491 10.0046 48.594 14.5597 48.594 20.1609C48.594 21.725 48.9647 23.2231 49.6451 24.6044L38.9861 32.8005C37.1581 31.211 34.8322 30.3172 32.3439 30.3172C26.7427 30.3172 22.1876 34.8723 22.1876 40.4735C22.1876 44.079 24.1224 47.3545 27.1236 49.1572L21.5426 64.9653C21.0856 64.9043 20.6286 64.8485 20.1563 64.8485C14.5551 64.8485 10 69.4036 10 75.0048C10 80.606 14.5551 85.1611 20.1563 85.1611C20.6286 85.1611 21.0907 85.1052 21.5426 85.0443L27.1236 100.858C24.1173 102.665 22.1825 105.936 22.1825 109.536C22.1825 115.137 26.7376 119.692 32.3388 119.692C34.8271 119.692 37.1579 118.799 38.9811 117.209L49.635 125.4C48.9596 126.782 48.5889 128.285 48.5889 129.844C48.5889 135.445 53.144 140 58.7452 140C64.3464 140 68.9015 135.445 68.9015 129.844C68.9015 128.899 68.7593 127.975 68.5156 127.086L73.3448 123.465C74.1573 127.706 76.28 131.728 79.3776 134.688C83.0339 138.177 87.7261 140 93.0017 140C93.3572 140 93.7228 139.99 94.0834 139.974C105.138 139.472 112.537 133.2 113.482 123.796C117.9 123.654 127.711 121.821 131.017 108.79C132.398 103.341 132.169 98.4152 130.341 94.1089C135.084 91.1027 140 85.471 140 74.9949L140 75.0046ZM72.9688 87.1922H66.875C66.4739 87.1922 66.0828 87.314 65.7477 87.5324L59.7402 91.5441C58.0899 90.0714 55.9316 89.2233 53.6718 89.2233C48.6343 89.2233 44.5312 93.3264 44.5312 98.3639C44.5312 103.401 48.6343 107.505 53.6718 107.505C58.7093 107.505 62.8124 103.401 62.8124 98.3639C62.8124 97.135 62.5483 95.9568 62.0862 94.86L67.4893 91.2546H72.9686V105.474H66.8748C66.1943 105.474 65.5647 105.814 65.1838 106.378L61.7255 111.568H54.6871C53.5648 111.568 52.6559 112.477 52.6559 113.599C52.6559 114.721 53.5648 115.63 54.6871 115.63H62.8122C63.4926 115.63 64.1223 115.29 64.5032 114.726L67.9615 109.537H72.9686V118.677L66.6057 123.451C64.6912 121.105 61.8322 119.693 58.7498 119.693C56.2614 119.693 53.9357 120.587 52.1075 122.176L41.4485 113.98C42.1188 112.604 42.4997 111.085 42.4997 109.537C42.4997 103.935 37.9446 99.3803 32.3434 99.3803C31.8711 99.3803 31.409 99.4361 30.957 99.4971L25.3761 83.6838C27.8035 82.2213 29.5148 79.8091 30.0836 77.0365H40.7071C41.0473 78.5395 41.7532 79.9209 42.7637 81.0584L36.8985 87.9037C36.5836 88.2694 36.411 88.7416 36.411 89.224V95.3178C36.411 96.4401 37.3199 97.3491 38.4422 97.3491C39.5645 97.3491 40.4735 96.4401 40.4735 95.3178V89.9756L46.1 83.4095C47.2071 83.8817 48.3953 84.1458 49.6141 84.1458C53.9558 84.1458 57.5817 81.0989 58.5111 77.0363H66.8799C68.0021 77.0363 68.9111 76.1273 68.9111 75.0051C68.9111 73.8828 68.0021 72.9738 66.8799 72.9738H58.5111C57.5818 68.9113 53.956 65.8643 49.6141 65.8643C48.3852 65.8643 47.1968 66.1335 46.1 66.6007L40.4735 60.0346V54.6923C40.4735 53.5701 39.5645 52.6611 38.4422 52.6611C37.3199 52.6611 36.411 53.5701 36.411 54.6923V60.7861C36.411 61.2736 36.5836 61.7408 36.8985 62.1064L42.7688 68.9568C41.7531 70.0943 41.0524 71.4756 40.7071 72.9736H30.0836C29.5148 70.1908 27.8035 67.7786 25.3761 66.3212L30.957 50.5131C31.4141 50.574 31.8711 50.6299 32.3434 50.6299C37.9446 50.6299 42.4997 46.0748 42.4997 40.4736C42.4997 38.9248 42.1188 37.4013 41.4485 36.0302L52.1075 27.834C53.9356 29.4235 56.2614 30.3173 58.7498 30.3173C61.8322 30.3173 64.6963 28.9005 66.6057 26.5595L72.9686 31.333V40.4736H67.9615L64.5032 35.2837C64.1274 34.72 63.4927 34.3798 62.8122 34.3798H54.6871C53.5648 34.3798 52.6559 35.2888 52.6559 36.411C52.6559 37.5333 53.5648 38.4423 54.6871 38.4423H61.7255L65.1838 43.6322C65.5595 44.1959 66.1943 44.5361 66.8748 44.5361H72.9686V58.7556H67.4893L62.0862 55.1451C62.5483 54.0482 62.8124 52.8701 62.8124 51.6462C62.8124 46.6087 58.7093 42.5056 53.6718 42.5056C48.6343 42.5056 44.5312 46.6087 44.5312 51.6462C44.5312 56.6838 48.6343 60.7868 53.6718 60.7868C55.9367 60.7868 58.0948 59.9337 59.7402 58.4661L65.7477 62.4778C66.0828 62.7012 66.4739 62.818 66.875 62.818H72.9688V87.1922ZM57.7847 95.4035C58.4144 96.2566 58.7496 97.2824 58.7496 98.364C58.7496 101.162 56.4695 103.442 53.6715 103.442C50.8735 103.442 48.5934 101.162 48.5934 98.364C48.5934 95.566 50.8735 93.2859 53.6715 93.2859C55.2965 93.2859 56.83 94.068 57.7847 95.4035ZM46.7347 79.1638C45.3534 78.2447 44.5308 76.6858 44.5308 75.0048C44.5308 73.3189 45.3534 71.765 46.7703 70.8204C47.6133 70.2364 48.5933 69.9266 49.609 69.9266C52.407 69.9266 54.6871 72.2067 54.6871 75.0047C54.6871 77.8027 52.407 80.0828 49.609 80.0828C48.5934 80.0828 47.608 79.7732 46.7347 79.1638ZM53.6714 56.7231C50.8734 56.7231 48.5933 54.443 48.5933 51.645C48.5933 48.847 50.8734 46.5669 53.6714 46.5669C56.4694 46.5669 58.7495 48.847 58.7495 51.645C58.7495 52.7216 58.4143 53.7474 57.7694 54.6259C56.8299 55.9361 55.3015 56.7231 53.6714 56.7231ZM58.7495 14.0673C62.1112 14.0673 64.8433 16.7994 64.8433 20.1611C64.8433 21.1919 64.5944 22.1822 64.1171 23.0506C63.0405 25.031 60.9838 26.2548 58.7495 26.2548C56.84 26.2548 55.0831 25.3916 53.9253 23.8834C53.0925 22.7966 52.6558 21.5119 52.6558 20.1611C52.6558 16.7994 55.3878 14.0673 58.7495 14.0673ZM32.3437 34.3799C34.2532 34.3799 36.0101 35.2432 37.1782 36.7615C37.9907 37.8076 38.4376 39.1279 38.4376 40.4737C38.4376 43.8354 35.7055 46.5675 32.3438 46.5675C31.6379 46.5675 30.9625 46.4507 30.3176 46.2171C27.8852 45.3589 26.25 43.0534 26.25 40.4736C26.25 37.1119 28.9821 34.3799 32.3437 34.3799ZM14.063 75.0051C14.063 71.6434 16.7951 68.9113 20.1568 68.9113C20.8627 68.9113 21.5381 69.0281 22.183 69.2617C24.6155 70.1199 26.2506 72.4254 26.2506 75.0051C26.2506 77.5849 24.6155 79.8903 22.1627 80.7536C21.5381 80.9822 20.8627 81.099 20.1568 81.099C16.7951 81.099 14.063 78.3668 14.063 75.0051ZM32.3437 115.63C28.9821 115.63 26.25 112.898 26.25 109.537C26.25 106.957 27.8851 104.651 30.3378 103.788C30.9624 103.56 31.6378 103.443 32.3437 103.443C35.7054 103.443 38.4375 106.175 38.4375 109.537C38.4375 110.882 37.9906 112.203 37.1731 113.254C36.0152 114.762 34.2531 115.63 32.3437 115.63ZM58.7495 135.943C55.3878 135.943 52.6557 133.211 52.6557 129.849C52.6557 128.498 53.0924 127.214 53.9202 126.132C55.078 124.624 56.8401 123.755 58.7494 123.755C60.9839 123.755 63.0405 124.984 64.1221 126.975C64.5944 127.828 64.8432 128.823 64.8432 129.849C64.8432 133.211 62.1112 135.943 58.7495 135.943ZM126.755 91.4983C123.922 92.9608 121.479 93.2959 121.464 93.301C120.352 93.4432 119.565 94.4588 119.702 95.571C119.829 96.5967 120.707 97.3483 121.713 97.3483C121.799 97.3483 121.885 97.3432 121.967 97.3331C122.068 97.3229 124.079 97.0436 126.7 95.9823C128.071 99.3998 128.203 103.361 127.075 107.799C124.414 118.27 116.853 119.677 113.486 119.768C112.435 105.265 100.06 101.528 99.9273 101.488C98.8558 101.183 97.7335 101.802 97.4237 102.879C97.1139 103.955 97.7335 105.078 98.805 105.393C99.2417 105.52 109.525 108.704 109.525 121.723C109.525 131.671 101.451 135.581 93.895 135.922C89.3247 136.13 85.2622 134.693 82.1848 131.753C78.9551 128.67 77.0253 124.161 77.0253 119.692V87.5977C82.3167 94.3111 90.9198 95.2912 91.0407 95.3064C91.1118 95.3115 93.0313 95.5197 93.2649 93.4885C93.3969 92.3763 92.5641 91.3759 91.4469 91.2643C90.863 91.2033 77.1313 89.6545 77.0247 75.0194C77.1313 60.4346 90.8671 58.8044 91.4521 58.7433C92.5643 58.6265 93.3768 57.6363 93.265 56.5191C93.1533 55.4019 92.1529 54.5945 91.0408 54.7012C90.919 54.7113 82.3166 55.6965 77.0255 62.42V30.3163C77.0255 25.8475 78.9552 21.3382 82.1849 18.2558C85.2623 15.3155 89.3198 13.8784 93.8951 14.0866C101.451 14.4269 109.525 18.3421 109.525 28.2853C109.525 41.2958 99.2571 44.4847 98.8051 44.616C97.7286 44.9258 97.109 46.0481 97.4137 47.1246C97.7184 48.2063 98.8458 48.8258 99.9223 48.5211C100.054 48.4805 112.43 44.743 113.481 30.2404C116.853 30.3318 124.415 31.7384 127.07 42.2096C128.198 46.6479 128.061 50.6088 126.695 54.0264C124.074 52.965 122.063 52.6858 121.962 52.6755C120.845 52.5435 119.839 53.3204 119.697 54.4326C119.555 55.5396 120.337 56.5603 121.449 56.7076C121.474 56.7076 123.917 57.0479 126.745 58.5103C130.935 60.6787 135.927 65.2948 135.927 75.0087C135.927 84.7182 130.935 89.3387 126.745 91.5032L126.755 91.4983Z" fill="#663366"/>
<path d="M115.624 58.7547C115.624 57.6375 114.72 56.7336 113.598 56.7285H113.593C112.476 56.7285 111.572 57.6324 111.562 58.7496C111.562 59.1864 111.358 69.5458 100.765 73.0796C99.9377 73.3538 99.374 74.1308 99.374 75.0093C99.374 75.8828 99.9326 76.6597 100.765 76.9391C111.353 80.4683 111.562 90.8075 111.562 91.269C111.562 92.3862 112.476 93.2952 113.593 93.2952C114.71 93.2952 115.624 92.3862 115.624 91.264C115.624 87.2319 113.552 79.4318 106.25 75.0139C113.552 70.596 115.624 62.7959 115.624 58.7638L115.624 58.7547Z" fill="#663366"/>
</svg>
