<svg width="150" height="150" viewBox="0 0 150 150" fill="none" xmlns="http://www.w3.org/2000/svg">
<path d="M134.038 17H15.9614C12.6711 17 10 19.6863 10 22.9815V101.93C10 105.231 12.6773 107.911 15.9614 107.911H61.0183L56.8416 123.097H50.5767C47.5777 123.097 45.1433 125.545 45.1433 128.548C45.1433 131.557 47.5837 134 50.5767 134H99.4162C102.415 134 104.85 131.551 104.85 128.548C104.85 125.539 102.409 123.097 99.4162 123.097H93.1513L88.9746 107.911H116.13L126.978 118.796C128.18 120.002 129.765 120.606 131.355 120.606C132.988 120.606 134.627 119.978 135.878 118.717C137.068 117.523 137.736 115.94 137.754 114.258C137.778 112.559 137.134 110.969 135.957 109.781L134.093 107.911C137.353 107.881 140 105.213 140 101.93V22.9817C140 19.6802 137.322 17 134.038 17ZM62.7433 81.3232C60.9646 81.3658 59.2526 80.5618 57.5043 78.8684C57.4861 78.8502 57.4678 78.838 57.4436 78.8197C58.5302 77.5893 59.1251 77.0715 60.0782 76.7121C60.2482 76.6451 60.4303 76.5842 60.6307 76.5293C61.7052 76.2126 62.3183 75.0857 62.0027 74.0076C61.7477 73.1304 60.9524 72.5579 60.0903 72.5457C59.89 72.5396 59.6897 72.57 59.4893 72.631C58.3844 72.9538 57.5224 73.3802 56.7636 73.9162V64.7672H66.4586L67.9824 66.2961C67.4846 67.8432 67.8427 69.6158 69.069 70.8402C69.5608 71.3336 70.1314 71.6808 70.7445 71.9001C70.3196 73.6482 70.0828 75.4329 70.0342 77.2238C67.4056 79.8917 64.9531 81.2684 62.7433 81.3232ZM46.4562 66.6678C45.3453 66.5216 44.3314 67.3134 44.1858 68.4281C43.7912 71.4798 41.3932 73.758 36.8585 75.3842C32.5423 74.166 29.8468 72.4483 28.8452 70.2798C28.2138 68.9093 28.2381 67.216 28.9059 65.2363C31.3706 66.15 33.7201 66.6129 35.9358 66.6129C38.4491 66.6129 40.7863 66.022 42.9353 64.8525C43.0992 64.7855 43.251 64.7003 43.3906 64.5967C45.7886 63.1775 47.9377 61.015 49.7953 58.1158C50.4024 57.1716 50.1292 55.9107 49.1882 55.3077C48.2473 54.6986 46.9906 54.9727 46.3896 55.9168C45.1147 57.9085 43.7246 59.4496 42.2129 60.5462C40.3066 59.1391 39.3779 57.6102 39.3839 55.9046C39.39 54.7838 38.4915 53.8641 37.3745 53.858C36.2514 53.8519 35.3408 54.7534 35.3347 55.8742C35.3165 58.2925 36.2514 60.467 38.1212 62.3614C35.4744 62.8914 32.4936 62.4041 29.1001 60.9239C24.2798 54.7414 24.5167 49.3811 29.8771 44.1968C31.5466 45.5612 32.6758 47.4068 33.3071 49.7945C33.5438 50.7082 34.3694 51.3112 35.2679 51.3112C35.4379 51.3112 35.6139 51.2869 35.7839 51.2442C36.8645 50.9579 37.5141 49.8432 37.2287 48.7589C36.2999 45.2321 34.4666 42.4666 31.759 40.5237C31.9229 37.6364 33.2464 35.9127 35.9418 35.0842C38.9589 38.611 41.4722 40.3044 43.7123 40.3044C44.0462 40.3044 44.374 40.2679 44.6958 40.1948C46.7538 39.7197 48.1744 37.8375 48.9149 34.597C49.1638 33.5006 48.4839 32.4104 47.3911 32.1606C46.3045 31.9108 45.2118 32.593 44.9628 33.6895C44.5136 35.6447 43.949 36.193 43.779 36.2356C43.7669 36.2356 42.4556 36.4792 39.0014 32.4286C40.1488 29.8337 42.1157 28.189 44.9933 27.4277C47.4823 26.8673 50.0684 27.4338 52.1021 28.981C52.2174 29.0724 52.3449 29.1455 52.4785 29.2125C52.606 29.2673 52.6667 29.316 52.7031 29.3465C52.697 29.5536 52.7031 29.7607 52.7213 29.9739L52.7152 73.9101C51.9503 73.3741 51.0943 72.9538 49.9895 72.6248C48.915 72.3081 47.7918 72.9294 47.4762 74.0014C47.1605 75.0796 47.7797 76.2065 48.8482 76.5232C50.1534 76.907 50.7544 77.3638 52.0353 78.8197C52.0171 78.838 51.9928 78.8501 51.9746 78.8684C50.2081 80.5801 48.4718 81.3841 46.6748 81.3171C44.7869 81.2501 42.7287 80.2206 40.5312 78.2532C45.1086 76.0787 47.6887 72.954 48.2047 68.9397C48.3504 67.8311 47.5672 66.8139 46.4562 66.6678ZM78.4616 43.1559C83.13 47.1396 84.7328 51.2146 83.3485 55.6064C81.1874 56.7698 79.19 58.256 77.4053 60.0408C76.2579 61.1921 75.2502 62.4348 74.3639 63.7321C73.7143 63.3788 72.9858 63.1839 72.227 63.1839C71.7535 63.1839 71.2921 63.2631 70.8489 63.4032L68.7363 61.2895C68.3417 60.8936 67.8196 60.6926 67.3036 60.6926H56.7709V56.3008H72.3369C73.0775 57.7505 74.577 58.7434 76.3072 58.7434C78.7658 58.7434 80.7692 56.7332 80.7692 54.2664C80.7692 51.7995 78.7658 49.7893 76.3072 49.7893C74.577 49.7893 73.0776 50.7822 72.3369 52.2319H56.7709V47.8401H67.3036C67.8196 47.8401 68.3417 47.6391 68.7363 47.2432L70.855 45.1173C71.2982 45.2574 71.7595 45.3366 72.2331 45.3366C73.4229 45.3366 74.5461 44.8676 75.3898 44.027C77.1321 42.2788 77.1321 39.4403 75.3898 37.6982C74.5459 36.8515 73.4289 36.3886 72.2331 36.3886C71.0432 36.3886 69.9201 36.8576 69.0763 37.6982C67.8501 38.9286 67.4919 40.6951 67.9897 42.2423L66.4659 43.7712H56.7709V29.993C56.7891 29.7676 56.8013 29.5483 56.7891 29.329C56.8255 29.2986 56.8862 29.2559 57.0076 29.195C57.1412 29.1341 57.2687 29.0549 57.384 28.9636C59.4117 27.4164 62.0039 26.8499 64.4868 27.4103C67.7225 28.2753 69.8109 30.2488 70.8733 33.4406C71.104 34.135 71.6928 34.6528 72.4092 34.7929C76.2155 35.536 77.8607 37.6131 77.7393 41.5358C77.7272 42.1632 77.9881 42.7538 78.4616 43.1559ZM71.9417 67.9589C71.802 67.8188 71.7899 67.6056 71.8931 67.4473C71.9113 67.429 71.9356 67.4107 71.9538 67.3924C71.972 67.3742 71.9902 67.3498 72.0084 67.3315C72.1116 67.2645 72.2391 67.2462 72.3605 67.2828C72.2452 67.5264 72.142 67.7762 72.0388 68.0259C72.0024 68.0076 71.972 67.9894 71.9417 67.9589ZM75.8938 54.266C75.8938 54.0406 76.0759 53.8578 76.3005 53.8578C76.5251 53.8578 76.7073 54.0406 76.7073 54.266C76.7073 54.4913 76.5251 54.6741 76.3005 54.6741C76.0759 54.6802 75.8938 54.4913 75.8938 54.266ZM71.9417 40.573C72.0388 40.4755 72.1541 40.4512 72.2331 40.4512C72.312 40.4512 72.4212 40.4694 72.5245 40.573C72.6823 40.7314 72.6823 40.9933 72.5245 41.1517C72.4273 41.2491 72.312 41.2735 72.2331 41.2735C72.1784 41.2735 72.1056 41.2613 72.0327 41.2187C72.0084 41.1882 71.9842 41.1638 71.9599 41.1395C71.9417 41.1212 71.9174 41.1029 71.8992 41.0847C71.7899 40.9263 71.802 40.7131 71.9417 40.573ZM80.2708 62.9153C84.2714 58.9013 89.5955 56.6901 95.2594 56.6901C100.923 56.6901 106.241 58.9013 110.248 62.9153C118.51 71.2055 118.51 84.6979 110.248 92.9874C106.247 97.0015 100.923 99.2126 95.2594 99.2126C89.5955 99.2126 84.2774 97.0015 80.2708 92.9874C72.0085 84.6973 72.0085 71.2111 80.2708 62.9153ZM113.114 95.8691C113.193 95.7899 113.272 95.7046 113.351 95.6193L114.334 96.6061L113.854 97.0873L112.871 96.1005C112.944 96.0274 113.029 95.9483 113.114 95.8691ZM118.584 98.0985L124.83 104.366L121.576 107.631L115.33 101.357L118.584 98.0985ZM117.351 90.2104C120.806 83.9426 121.406 76.5051 119.16 69.8297L119.858 68.6175L125.006 80.0507C125.322 80.7451 125.996 81.208 126.755 81.2445C126.785 81.2445 126.822 81.2506 126.852 81.2506C127.574 81.2506 128.248 80.8669 128.606 80.2334L132.34 73.7158H135.946V90.2106L117.351 90.2104ZM131.168 69.6457C130.446 69.6457 129.772 70.0355 129.414 70.6629L127.07 74.7501L121.922 63.3169C121.613 62.6226 120.933 62.1596 120.174 62.1231C119.415 62.0865 118.699 62.4764 118.316 63.1403L117.102 65.254C116.028 63.3901 114.698 61.6298 113.108 60.0338C108.336 55.2461 101.998 52.6147 95.2541 52.6147C92.7105 52.6147 90.2214 52.9924 87.8539 53.7172C88.0299 51.7923 87.781 49.9163 87.1072 48.0828H93.9367C94.7077 48.0828 95.4119 47.6442 95.7519 46.9559L101.046 36.2658L107.171 52.8885C107.444 53.6316 108.118 54.1433 108.901 54.2103C109.684 54.2773 110.437 53.8813 110.826 53.1991L116.69 42.9841L121.838 54.4173C122.154 55.1117 122.827 55.5746 123.586 55.6112C123.617 55.6112 123.653 55.6172 123.683 55.6172C124.406 55.6172 125.08 55.2335 125.438 54.6L129.165 48.0885H135.934V69.6449L131.168 69.6457ZM15.9633 21.0626H134.04C135.09 21.0626 135.946 21.9214 135.946 22.9753V44.0202H128.006C127.283 44.0202 126.61 44.4101 126.251 45.0375L123.908 49.1247L118.76 37.6915C118.451 36.9971 117.771 36.5342 117.012 36.4977C116.253 36.4611 115.537 36.851 115.154 37.5149L109.472 47.4132L103.219 30.4428C102.94 29.6814 102.236 29.1636 101.428 29.1149C100.621 29.0723 99.8621 29.5169 99.5039 30.2418L92.6804 44.02H84.8674C84.0236 42.8871 82.9977 41.7724 81.8016 40.676C81.6559 35.663 79.088 32.3616 74.3225 31.0579C72.6955 27.1352 69.733 24.5831 65.4956 23.4622C65.4774 23.4561 65.4531 23.45 65.4349 23.4439C61.8288 22.6155 58.0771 23.4013 55.1025 25.5941C54.975 25.655 54.8597 25.7281 54.7443 25.8012C54.629 25.7281 54.5076 25.6611 54.3861 25.5941C51.4114 23.4014 47.6598 22.6154 44.0538 23.4439C44.0356 23.45 44.0113 23.4561 43.9931 23.4622C39.7556 24.5769 36.7932 27.1292 35.1662 31.0579C30.4006 32.3615 27.8388 35.6568 27.687 40.676C20.3839 47.3215 19.6311 54.9537 25.4711 62.8546C24.0688 66.2839 23.9656 69.3418 25.1676 71.9732C26.7096 75.3355 30.2003 77.7416 35.834 79.3192C39.446 83.2236 43.046 85.2581 46.5306 85.386C46.6459 85.3921 46.7613 85.3921 46.8766 85.3921C49.6085 85.3921 52.2128 84.2347 54.629 81.9506C54.6654 81.9262 54.7019 81.9019 54.7383 81.8714C54.7747 81.8958 54.8111 81.9262 54.8476 81.9506C57.2638 84.2347 59.8681 85.3921 62.6 85.3921C62.6789 85.3921 62.7578 85.3921 62.8367 85.386C65.3137 85.3251 67.8451 84.2956 70.4009 82.3159C70.8744 85.0509 71.7972 87.7188 73.163 90.2041L14.0585 90.2101V22.9819C14.0585 21.9281 14.9145 21.0631 15.9648 21.0631L15.9633 21.0626ZM100.802 128.549C100.802 129.316 100.183 129.937 99.4243 129.937H50.5847C49.838 129.937 49.2067 129.304 49.2067 128.555C49.2067 127.787 49.8259 127.166 50.5847 127.166H99.4243C100.171 127.16 100.802 127.799 100.802 128.549ZM88.9523 123.097H61.0513L65.2279 107.911H84.7756L88.9523 123.097ZM15.9633 103.848C14.9131 103.848 14.0571 102.989 14.0571 101.936V94.2789L75.9543 94.2728C76.4096 94.821 76.8892 95.3509 77.4052 95.8686C82.1768 100.656 88.5146 103.288 95.2588 103.288C100.516 103.288 105.518 101.68 109.732 98.7132L110.988 99.974C110.636 100.352 110.442 100.845 110.442 101.363C110.442 101.905 110.654 102.417 111.037 102.8L112.081 103.848L15.9633 103.848ZM133.013 115.842C132.114 116.743 130.694 116.78 129.838 115.921L124.441 110.506L127.695 107.241L133.092 112.656C133.493 113.058 133.711 113.612 133.705 114.203C133.699 114.818 133.456 115.397 133.013 115.842ZM134.039 103.848H130.044L120.507 94.279H135.945V101.936C135.945 102.99 135.089 103.848 134.039 103.848ZM95.2591 95.7531C100 95.7531 104.45 93.9013 107.801 90.5389C114.716 83.6011 114.716 72.3086 107.801 65.3695C104.45 62.0072 99.9943 60.1553 95.2591 60.1553C90.5178 60.1553 86.0679 62.007 82.7169 65.3695C79.366 68.7319 77.5203 73.2027 77.5203 77.9539C77.5203 82.7111 79.3658 87.176 82.7169 90.5383C86.0681 93.9006 90.5178 95.7531 95.2591 95.7531ZM85.5823 68.2446C88.1685 65.6497 91.6044 64.2244 95.2591 64.2244C98.9138 64.2244 102.35 65.6498 104.936 68.2446C110.272 73.5988 110.272 82.3091 104.936 87.6569C102.35 90.2518 98.9138 91.6771 95.2591 91.6771C91.6044 91.6771 88.1685 90.2517 85.5823 87.6569C82.9961 85.062 81.5756 81.6144 81.5756 77.9475C81.5756 74.2866 82.9962 70.8395 85.5823 68.2446Z" fill="#663366"/>
</svg>
