<svg width="150" height="150" viewBox="0 0 150 150" fill="none" xmlns="http://www.w3.org/2000/svg">
<path d="M138.783 89.2736C136.239 84.8898 130.576 83.3755 126.149 85.9158L100.39 100.692C99.0485 97.0982 95.5711 94.5414 91.4866 94.5414H68.4968C66.714 94.5414 65.2071 94.0641 63.7609 93.0272C60.9184 90.9917 56.9498 89.9107 52.2857 89.9107C47.7374 89.9107 43.057 91.3702 40.0763 93.7459C37.7029 95.6277 35.186 96.5001 32.1502 96.5001H31.2891C30.6378 94.0147 28.3913 92.1767 25.6923 92.1767L15.8067 92.1657C12.5998 92.1548 10 94.7389 10 97.9267V128.433C10 131.609 12.5997 134.205 15.8067 134.205H25.6812C28.3969 134.205 30.6709 132.339 31.2892 129.837C34.3582 129.837 37.6643 130.106 41.4233 130.638C45.4912 131.214 49.6474 132.059 53.6603 132.855C55.7798 133.277 57.9711 133.727 60.1182 134.117C63.2809 134.709 66.2229 135 69.0489 135C72.8519 135 76.4507 134.468 80.1433 133.398C86.1762 131.642 92.844 128.339 102.442 122.37L135.449 101.806C139.815 99.0787 141.284 93.5696 138.783 89.2736ZM27.2935 128.432C27.2935 129.315 26.5704 130.034 25.6818 130.034H15.8072C14.9185 130.034 14.1955 129.315 14.1955 128.432V97.9257C14.1955 97.0424 14.9186 96.3237 15.8072 96.3237H25.6818C26.5704 96.3237 27.2935 97.0424 27.2935 97.9257V128.432ZM133.232 98.2614L100.225 118.826C82.5071 129.865 73.6871 132.367 60.8866 130.007C58.767 129.612 56.5923 129.179 54.4839 128.756C50.416 127.944 46.1879 127.083 42.0096 126.496C38.1404 125.947 34.6906 125.684 31.4838 125.667L31.4783 100.649H32.1406C36.1257 100.649 39.5755 99.4532 42.683 96.9842C44.9294 95.212 48.6883 94.0653 52.2761 94.0653C56.0516 94.0653 59.1701 94.8664 61.3061 96.3972C63.4698 97.9554 65.8267 98.7016 68.4981 98.7016H91.4879C94.4133 98.7016 96.7867 101.061 96.7867 103.969C96.7867 106.877 94.4133 109.236 91.4879 109.236H64.0782C62.9191 109.236 61.9862 110.163 61.9862 111.315C61.9862 112.467 62.9191 113.395 64.0782 113.395H91.4879C96.2899 113.395 100.275 109.828 100.882 105.209L128.227 89.5169C130.644 88.1288 133.735 88.9573 135.121 91.3549C136.512 93.7142 135.678 96.7318 133.233 98.2626L133.232 98.2614ZM48.0804 57.5008C47.4456 57.5008 46.8385 57.7971 46.441 58.2854L37.9629 68.902H31.803C30.8867 65.5607 27.8068 63.1026 24.1583 63.1026C19.7757 63.1026 16.2321 66.6415 16.2321 70.9979C16.2321 75.3543 19.7922 78.8931 24.1583 78.8931C27.8012 78.8931 30.8866 76.4351 31.803 73.0938H38.9674C39.6022 73.0938 40.2093 72.7975 40.6068 72.3092L49.0849 61.6926H58.9208C62.8783 66.1038 68.6022 68.8965 74.9882 68.8965C81.3743 68.8965 87.1092 66.1038 91.0556 61.6926H100.891L109.37 72.3092C109.767 72.803 110.374 73.0938 111.009 73.0938H118.173C119.09 76.4351 122.17 78.8931 125.818 78.8931C130.201 78.8931 133.761 75.3543 133.761 70.9979C133.761 66.6415 130.201 63.1026 125.818 63.1026C122.175 63.1026 119.09 65.5607 118.173 68.902H112.014L103.535 58.2854C103.138 57.7916 102.531 57.5008 101.896 57.5008H93.9975C95.3002 55.0866 96.1446 52.3873 96.4262 49.5342H107.83C108.746 52.8756 111.826 55.3336 115.474 55.3336C119.857 55.3336 123.417 51.7948 123.417 47.4383C123.417 43.0819 119.857 39.5431 115.474 39.5431C111.832 39.5431 108.746 42.0011 107.83 45.3424H96.4262C96.1447 42.4895 95.2947 39.7955 93.9975 37.3759H101.896C102.531 37.3759 103.138 37.0796 103.535 36.5913L112.014 25.9747H118.173C119.09 29.316 122.17 31.774 125.818 31.774C130.201 31.774 133.761 28.2352 133.761 23.8952C133.761 19.5388 130.201 16 125.818 16C122.175 16 119.09 18.458 118.173 21.7993L111.031 21.8103C110.396 21.8103 109.789 22.1066 109.392 22.5949L100.914 33.2115H91.0777C87.1201 28.8003 81.3962 26.0076 75.0102 26.0076C68.6241 26.0076 62.8892 28.8003 58.9428 33.2115H49.1069L40.6288 22.5949C40.2314 22.1011 39.6243 21.8103 38.9894 21.8103H31.825C30.9088 18.469 27.8289 16.011 24.1803 16.011C19.7977 16.011 16.2541 19.5498 16.2541 23.9062C16.2541 28.2626 19.8142 31.785 24.1803 31.785C27.8232 31.785 30.9087 29.327 31.825 25.9857H37.9849L46.463 36.6023C46.8605 37.096 47.4676 37.3868 48.1024 37.3868H56.0009C54.6983 39.801 53.8538 42.5003 53.5722 45.3534H42.1687C41.2525 42.0121 38.1726 39.5541 34.524 39.5541C30.1414 39.5541 26.5813 43.0929 26.5813 47.4493C26.5813 51.8057 30.1414 55.3445 34.524 55.3445C38.1669 55.3445 41.2524 52.8865 42.1687 49.5452H53.5722C53.8537 52.3982 54.7037 55.0921 56.0009 57.5118L48.0804 57.5008ZM24.158 74.7068C22.0937 74.7068 20.4158 73.0334 20.4158 70.9869C20.4158 68.935 22.0992 67.2671 24.158 67.2671C26.2223 67.2671 27.9002 68.9405 27.9002 70.9869C27.9057 73.0334 26.2223 74.7068 24.158 74.7068ZM125.84 67.2779C127.904 67.2779 129.582 68.9513 129.582 70.9978C129.582 73.0497 127.899 74.7176 125.84 74.7176C123.776 74.7176 122.098 73.0442 122.098 70.9978C122.092 68.9458 123.776 67.2779 125.84 67.2779ZM115.48 43.7345C117.544 43.7345 119.222 45.4079 119.222 47.4544C119.222 49.5063 117.539 51.1742 115.48 51.1742C113.421 51.1797 111.738 49.5063 111.738 47.4598C111.738 45.4079 113.421 43.7345 115.48 43.7345ZM125.84 20.1967C127.904 20.1967 129.582 21.8701 129.582 23.9166C129.582 25.9685 127.899 27.6364 125.84 27.6364C123.776 27.6364 122.098 25.963 122.098 23.9166C122.092 21.8646 123.776 20.1967 125.84 20.1967ZM24.158 27.642C22.0937 27.642 20.4158 25.9686 20.4158 23.9222C20.4158 21.8702 22.0992 20.2023 24.158 20.2023C26.2223 20.2023 27.9002 21.8757 27.9002 23.9222C27.9057 25.9686 26.2223 27.642 24.158 27.642ZM34.5182 51.1798C32.454 51.1798 30.776 49.5064 30.776 47.46C30.776 45.408 32.4595 43.7401 34.5182 43.7401C36.5825 43.7401 38.2605 45.4135 38.2605 47.46C38.2605 49.5064 36.577 51.1798 34.5182 51.1798ZM74.9984 30.2096C84.5638 30.2096 92.3516 37.9512 92.3516 47.4591C92.3516 56.9671 84.5635 64.7086 74.9984 64.7086C65.4329 64.7032 57.6451 56.9671 57.6451 47.4591C57.6451 37.9512 65.4332 30.2096 74.9984 30.2096ZM78.3322 51.9257C78.3322 50.6198 77.2559 49.539 75.9312 49.539H74.0546C70.4227 49.539 67.4697 46.6037 67.4697 42.9934C67.4697 39.7782 69.8156 37.0954 72.912 36.5467L72.9065 35.3342C72.9065 34.182 73.8393 33.2547 74.9985 33.2547C76.1577 33.2547 77.0905 34.182 77.0905 35.3342V36.4315H80.4243C81.5835 36.4315 82.5163 37.3588 82.5163 38.511C82.5163 39.6632 81.5835 40.5905 80.4243 40.5905H74.0492C72.7356 40.5905 71.6482 41.6603 71.6482 42.9771C71.6482 44.2829 72.7246 45.3637 74.0492 45.3637H75.9259C79.5577 45.3637 82.5108 48.299 82.5108 51.9093C82.5108 55.1245 80.1649 57.8074 77.0684 58.356V59.5521C77.0684 60.7043 76.1356 61.6316 74.9765 61.6316C73.8173 61.6316 72.8845 60.7043 72.8845 59.5521V58.4548H69.5506C68.3915 58.4548 67.4586 57.5275 67.4586 56.3753C67.4586 55.2231 68.3915 54.2958 69.5506 54.2958H75.9257C77.2615 54.2958 78.3322 53.2315 78.3322 51.9257Z" fill="#663366"/>
</svg>
