<svg width="150" height="150" viewBox="0 0 150 150" fill="none" xmlns="http://www.w3.org/2000/svg">
<path d="M65.2856 112.335V109.783C67.7717 109.42 70.2638 108.758 72.1835 107.553C76.9173 104.59 79.9817 99.6003 80.87 93.4953C83.3442 93.1734 85.0075 92.4698 85.0672 92.44L85.5382 92.2433L85.8005 91.8021C88.1675 87.6049 87.446 72.9681 83.9703 69.2593L83.6483 68.9255L83.1892 68.8181C83.1117 68.8003 81.4662 68.4187 79.2842 68.4068C76.184 60.3164 67.5451 55.0342 56.9566 55.0342C50.2255 55.0342 44.6392 57.1685 40.7935 61.1989C37.133 65.0443 35.1476 70.5115 34.9806 77.1055C34.1579 76.879 33.5319 77.0459 33.1623 77.2247C32.6138 77.4871 31.6956 78.2144 31.6956 80.0924L31.6777 83.282C31.6777 85.3746 32.1785 86.8711 34.6826 88.2899C34.7601 88.3376 35.2311 88.6238 36.0539 89.0531C37.3536 98.0139 41.7595 104.745 48.2042 107.976C48.2639 108.858 48.2817 109.728 48.2639 110.48C47.8346 110.569 47.5186 110.635 47.4709 110.646C34.1162 114.307 33.9611 125.724 33.9611 125.831C33.9611 129.069 36.4651 131.263 40.2032 131.293L71.7539 135.46L71.9507 135.478C75.355 135.478 78.1333 132.896 78.2703 129.599C78.3776 127.143 78.318 125.432 76.6964 122.32C74.3057 117.717 70.3653 114.302 65.2856 112.335ZM83.3564 89.8227C82.8974 89.9777 82.1641 90.1864 81.234 90.3593C82.2118 80.1643 80.7928 73.5521 80.2443 71.4963C80.9896 71.544 81.6156 71.6334 82.0151 71.693C84.0421 74.7277 84.8827 86.0188 83.3564 89.8227ZM43.0007 63.2979C46.25 59.8936 51.0732 58.0752 56.9516 58.0752C67.1168 58.0752 75.2072 63.4647 77.115 71.6148C77.1329 71.6625 77.8483 73.9339 78.2418 78.0417C75.9822 79.0791 67.8501 82.4356 56.7078 82.4535H56.6005C46.6023 82.4535 40.6527 80.1462 38.0413 78.8048C37.9041 72.2407 39.5845 66.8808 43.0007 63.2979ZM34.7434 83.2766L34.7613 80.4208C35.9238 81.2435 42.6071 85.5003 56.6005 85.5003H56.7078C67.177 85.4824 75.0411 82.7399 78.4569 81.2853C78.5165 82.6923 78.5165 84.2186 78.4748 85.8819C76.722 86.8 69.0549 90.3534 56.7257 90.3534H56.7078C43.8419 90.3534 36.407 85.7448 36.2697 85.6554C34.8209 84.8327 34.7434 84.4332 34.7434 83.2766ZM39.4175 90.4787C43.1437 91.8678 48.9864 93.412 56.707 93.412H56.7248C67.5159 93.412 74.8552 90.8781 78.2588 89.3817C78.1693 90.5086 78.0442 91.6533 77.8951 92.8755C77.1916 98.1698 74.5981 102.462 70.5857 104.966C66.7701 107.363 59.0912 107.315 55.5677 106.952C47.364 106.123 41.3849 99.8926 39.4175 90.4787ZM55.2402 109.986C55.6695 110.033 57.3448 110.182 59.5566 110.182C60.3794 110.182 61.2975 110.153 62.2454 110.105V114.183C61.7864 114.594 60.1111 115.298 58.2033 115.465C55.3654 115.709 52.9211 115.22 51.8062 114.201C51.4067 113.837 51.21 113.42 51.198 112.937C51.2457 112.537 51.3828 111.029 51.3352 109.24C52.5693 109.586 53.8869 109.849 55.2402 109.986ZM75.2372 129.476C75.1597 131.092 73.7885 132.373 72.0655 132.421L40.5331 128.254L40.3363 128.236C39.1022 128.236 37.0393 127.914 37.0393 125.827C37.0393 125.446 37.2539 116.61 48.2239 113.588C48.3908 114.655 48.8976 115.632 49.7501 116.414C51.2585 117.803 53.7803 118.548 56.8031 118.548C57.3397 118.548 57.9001 118.518 58.4664 118.47C60.1 118.333 63.9931 117.54 65.0424 115.478C69.0548 117.218 72.0776 119.979 74.033 123.717C75.3148 126.239 75.3267 127.366 75.2372 129.476Z" fill="#663366"/>
<path d="M100.45 56.5963C102.512 56.5963 104.665 55.8153 105.672 55.4516C106.358 55.2072 107.091 54.9031 107.872 54.5812C110.74 56.8109 114.269 58.0331 117.87 58.0331C120.649 58.0331 123.475 57.3177 126.038 55.8034C129.765 53.6213 132.418 50.1097 133.515 45.9125C134.093 43.6708 134.188 41.3814 133.807 39.1636C134.451 38.6628 135.041 38.156 135.577 37.685C137.014 36.4032 141.39 32.4982 139.56 29.3682C137.318 25.5347 130.754 27.7525 127.732 29.0343C122.652 25.1113 115.504 24.4377 109.642 27.8717C103.764 31.3236 100.884 37.9116 101.844 44.2606C99.4356 46.2757 94.3798 51.0691 96.4844 54.6404C97.337 56.1368 98.8637 56.5963 100.45 56.5963ZM130.546 45.1613C129.663 48.5656 127.511 51.4034 124.471 53.192C121.448 54.9628 117.906 55.4635 114.502 54.5812C113.268 54.2592 112.123 53.7703 111.05 53.1324C113.888 51.7433 117.233 49.9248 121.126 47.6354C124.912 45.4236 128.209 43.2832 130.939 41.3337C131.023 42.5976 130.886 43.8974 130.546 45.1613ZM136.925 30.9243C136.925 30.9421 137.259 32.0988 133.539 35.4136C133.342 35.5984 133.109 35.7773 132.895 35.9621C132.591 35.1692 132.221 34.4061 131.798 33.6549C131.309 32.8321 130.76 32.081 130.164 31.3833C133.05 30.34 136.24 29.7795 136.925 30.9243ZM111.182 30.5129C117.442 26.8523 125.496 28.939 129.175 35.199C129.693 36.0813 130.093 37.0173 130.379 37.9772C127.541 40.1115 123.893 42.4963 119.606 45.0123C115.134 47.6356 111.438 49.6208 108.421 51.01C107.688 50.2648 107.05 49.4241 106.496 48.5061C102.829 42.246 104.94 34.1735 111.182 30.5129ZM102.71 47.5764C103.032 48.4171 103.395 49.2397 103.872 50.0506C104.343 50.8615 104.898 51.5948 105.476 52.2803C105.202 52.3877 104.91 52.5069 104.653 52.6023C101.1 53.8841 99.4666 53.6993 99.1148 53.121C98.5723 52.1849 100.361 49.7585 102.71 47.5764Z" fill="#663366"/>
<path d="M114.977 87.4355C101.73 87.4355 90.957 98.2088 90.957 111.456C90.957 124.703 101.73 135.476 114.977 135.476C128.225 135.476 138.997 124.703 138.997 111.456C139.003 98.2143 128.212 87.4355 114.977 87.4355ZM114.977 132.419C103.411 132.419 94.0095 123.017 94.0095 111.451C94.0095 99.8855 103.412 90.4835 114.977 90.4835C126.543 90.4835 135.945 99.8855 135.945 111.451C135.951 123.017 126.531 132.419 114.977 132.419Z" fill="#663366"/>
<path d="M37.1386 51.0225C37.1386 43.5462 31.0515 37.4531 23.5693 37.4531C16.0931 37.4531 10 43.5403 10 51.0225C10 58.4987 16.0872 64.5918 23.5693 64.5918C31.0515 64.5918 37.1386 58.5165 37.1386 51.0225ZM23.5574 61.5393C17.7564 61.5393 13.0406 56.8234 13.0406 51.0225C13.0406 45.2215 17.7564 40.5056 23.5574 40.5056C29.3584 40.5056 34.0742 45.2215 34.0742 51.0225C34.0742 56.8234 29.3584 61.5393 23.5574 61.5393Z" fill="#663366"/>
<path d="M58.6916 31.8245C63.33 31.8245 67.1038 28.0565 67.1038 23.4123C67.1038 18.7738 63.3358 15 58.6916 15C54.0531 15 50.2793 18.768 50.2793 23.4123C50.2972 28.0507 54.0652 31.8245 58.6916 31.8245ZM58.6916 18.0704C61.6368 18.0704 64.0513 20.467 64.0513 23.4301C64.0513 26.3932 61.6546 28.7899 58.6916 28.7899C55.7285 28.7899 53.3318 26.3932 53.3318 23.4301C53.3318 20.467 55.7463 18.0704 58.6916 18.0704Z" fill="#663366"/>
<path d="M48.1445 40.5527H51.197V43.3429H48.1445V40.5527Z" fill="#663366"/>
<path d="M18.3545 49.2217H21.407V52.0118H18.3545V49.2217Z" fill="#663366"/>
<path d="M84.7744 52.7627H87.8269V55.5528H84.7744V52.7627Z" fill="#663366"/>
<path d="M72.5645 37.5H75.617V40.2901H72.5645V37.5Z" fill="#663366"/>
<path d="M100.055 23.7637H103.107V26.5538H100.055V23.7637Z" fill="#663366"/>
<path d="M84.7744 115.34H87.8269V118.13H84.7744V115.34Z" fill="#663366"/>
<path d="M112.629 100.518H115.681V103.308H112.629V100.518Z" fill="#663366"/>
<path d="M104.282 116.025H107.335V118.816H104.282V116.025Z" fill="#663366"/>
<path d="M118.733 122.44H121.786V125.231H118.733V122.44Z" fill="#663366"/>
<path d="M16.0928 80.2354H19.1453V83.0255H16.0928V80.2354Z" fill="#663366"/>
<path d="M26.7773 98.5508H29.8299V101.341H26.7773V98.5508Z" fill="#663366"/>
<path d="M16.0928 109.234H19.1453V112.025H16.0928V109.234Z" fill="#663366"/>
<path d="M75.5098 21.2002H78.5623V23.9903H75.5098V21.2002Z" fill="#663366"/>
<path d="M93.9502 87.8672H97.0027V90.6573H93.9502V87.8672Z" fill="#663366"/>
<path d="M116.719 77.6895H119.771V80.4796H116.719V77.6895Z" fill="#663366"/>
<path d="M97.4561 69.0498H100.509V71.8399H97.4561V69.0498Z" fill="#663366"/>
<path d="M28.6367 30.4355H31.6892V33.2257H28.6367V30.4355Z" fill="#663366"/>
<path d="M36.2686 19.752H39.3211V22.5421H36.2686V19.752Z" fill="#663366"/>
</svg>
