<svg width="150" height="150" viewBox="0 0 150 150" fill="none" xmlns="http://www.w3.org/2000/svg">
<path d="M130.309 21.1391H19.6939C18.6105 21.1391 17.7323 22.0146 17.7323 23.0946V106.474C17.7323 107.554 18.6105 108.43 19.6939 108.43H130.309C131.392 108.43 132.271 107.554 132.271 106.474V23.0946C132.271 22.0146 131.392 21.1391 130.309 21.1391ZM128.347 104.519H21.6555V25.0488H128.349L128.347 104.519ZM131.483 13H18.5195C13.8221 13 10 16.8089 10 21.4933V108.075C10 112.758 13.8221 116.569 18.5195 116.569H60.886L58.6167 127.284H46.6045C45.1961 127.284 44.0506 127.722 43.1998 128.587C41.6441 130.167 41.6904 132.593 41.7236 134.365C41.7279 134.601 41.7323 134.828 41.7323 135.044C41.7323 136.124 42.6105 137 43.6939 137H106.306C107.389 137 108.268 136.124 108.268 135.044C108.268 134.83 108.272 134.601 108.276 134.365C108.31 132.593 108.356 130.167 106.8 128.587C105.949 127.723 104.804 127.284 103.396 127.284H91.3832L89.114 116.569H131.48C136.178 116.569 140 112.758 140 108.075V21.4933C140.003 16.8089 136.181 13 131.483 13ZM104.002 131.326C104.255 131.584 104.337 132.34 104.358 133.089H45.6439C45.6656 132.341 45.7465 131.584 45.9992 131.326C46.0801 131.244 46.3069 131.195 46.6045 131.195H60.2042C60.2057 131.195 60.2071 131.195 60.21 131.195C60.2114 131.195 60.2114 131.195 60.2129 131.195H89.7885C89.79 131.195 89.79 131.195 89.7914 131.195C89.7929 131.195 89.7943 131.195 89.7972 131.195H103.396C103.695 131.195 103.921 131.244 104.002 131.326ZM87.3763 127.284H62.6266L64.8959 116.569H85.107L87.3763 127.284ZM136.08 108.075C136.08 110.603 134.017 112.659 131.482 112.659H86.7031C86.6945 112.659 86.6844 112.659 86.6757 112.659H63.3257C63.3171 112.659 63.3084 112.659 63.2997 112.659H18.5195C15.9845 112.659 13.9218 110.603 13.9218 108.075V21.4933C13.9218 18.9661 15.9845 16.9097 18.5195 16.9097H131.483C134.018 16.9097 136.081 18.9661 136.081 21.4933V108.075H136.08ZM53.5437 95.3671H96.4606C97.5439 95.3671 98.4222 94.4916 98.4222 93.4116V46.3253C98.4222 45.7997 98.2098 45.2971 97.8343 44.9285L87.4239 34.7604C87.057 34.4018 86.5645 34.2016 86.0517 34.2016H53.5437C52.4604 34.2016 51.5821 35.0772 51.5821 36.1572V93.413C51.5821 94.4916 52.4604 95.3671 53.5437 95.3671ZM55.5053 38.1113H85.2514L94.499 47.1461V91.456H55.5053V38.1113ZM61.4132 68.7971V58.7413C61.4132 57.6613 62.2915 56.7857 63.3749 56.7857H73.0413V54.0165C73.0413 52.9365 73.9195 52.061 75.0029 52.061C76.0862 52.061 76.9645 52.9365 76.9645 54.0165V56.7857H86.6309C87.7143 56.7857 88.5925 57.6613 88.5925 58.7413V68.7971C88.5925 69.8771 87.7143 70.7526 86.6309 70.7526C85.5476 70.7526 84.6693 69.8771 84.6693 68.7971V60.6969H76.9645V76.5891C76.9645 77.6691 76.0862 78.5447 75.0029 78.5447C73.9195 78.5447 73.0413 77.6691 73.0413 76.5891V60.6969H65.3364V68.7971C65.3364 69.8771 64.4582 70.7526 63.3749 70.7526C62.2915 70.7526 61.4132 69.8756 61.4132 68.7971ZM69.8678 50.1025H80.1337C81.217 50.1025 82.0953 49.227 82.0953 48.1469V42.489C82.0953 41.409 81.217 40.5335 80.1337 40.5335H69.8678C68.7844 40.5335 67.9062 41.409 67.9062 42.489V48.1469C67.9076 49.227 68.7859 50.1025 69.8678 50.1025ZM71.8294 44.4446H78.1735V46.1928H71.8294V44.4446ZM63.3749 71.8211C60.769 71.8211 58.65 73.9337 58.65 76.5315C58.65 79.1293 60.769 81.2418 63.3749 81.2418C65.9807 81.2418 68.0997 79.1293 68.0997 76.5315C68.0997 73.9337 65.9792 71.8211 63.3749 71.8211ZM63.3749 77.3321C62.9328 77.3321 62.5717 76.9736 62.5717 76.5315C62.5717 76.0894 62.9314 75.7308 63.3749 75.7308C63.8169 75.7308 64.178 76.0894 64.178 76.5315C64.178 76.9736 63.8169 77.3321 63.3749 77.3321ZM75.0014 79.6132C72.3956 79.6132 70.2766 81.7257 70.2766 84.3235C70.2766 86.9213 72.3971 89.0339 75.0014 89.0339C77.6058 89.0339 79.7263 86.9213 79.7263 84.3235C79.7263 81.7257 77.6073 79.6132 75.0014 79.6132ZM75.0014 85.1242C74.5594 85.1242 74.1983 84.7656 74.1983 84.3235C74.1983 83.8829 74.558 83.5229 75.0014 83.5229C75.4435 83.5229 75.8046 83.8814 75.8046 84.3235C75.8046 84.7642 75.4449 85.1242 75.0014 85.1242ZM86.628 71.8211C84.0222 71.8211 81.9032 73.9337 81.9032 76.5315C81.9032 79.1293 84.0236 81.2418 86.628 81.2418C89.2324 81.2418 91.3529 79.1293 91.3529 76.5315C91.3544 73.9337 89.2339 71.8211 86.628 71.8211ZM86.628 77.3321C86.186 77.3321 85.8249 76.9736 85.8249 76.5315C85.8249 76.0908 86.1846 75.7308 86.628 75.7308C87.07 75.7308 87.4312 76.0894 87.4312 76.5315C87.4312 76.9721 87.0715 77.3321 86.628 77.3321ZM32.3042 47.1476C32.3042 42.4372 34.4377 37.9501 38.4215 34.1066C37.6112 33.9424 36.9612 33.2743 36.8629 32.4102C36.7401 31.3374 37.5144 30.3683 38.5905 30.2473L44.9173 29.5302C45.6136 29.451 46.2997 29.749 46.7157 30.3107C47.1317 30.8723 47.2169 31.6125 46.9367 32.2533L44.3959 38.0739C43.964 39.0646 42.8084 39.5183 41.8146 39.0862C41.1198 38.7853 40.6879 38.1301 40.6402 37.4244C37.7614 40.3952 36.2274 43.726 36.2274 47.1461C36.2274 52.3389 39.7504 57.3099 46.148 61.1447C47.0768 61.7006 47.3758 62.903 46.8183 63.8275C46.4499 64.4381 45.8013 64.775 45.1354 64.775C44.7917 64.775 44.4435 64.6843 44.1272 64.4957C36.5033 59.9279 32.3042 53.766 32.3042 47.1476ZM109.363 92.1443C112.243 89.1735 113.776 85.8442 113.776 82.4212C113.776 77.2285 110.252 72.2575 103.853 68.4226C102.925 67.8668 102.626 66.6644 103.183 65.7399C103.741 64.8139 104.945 64.5144 105.874 65.0717C113.498 69.6409 117.697 75.8028 117.697 82.4212C117.697 87.1345 115.565 91.6202 111.581 95.4622C112.392 95.6263 113.04 96.2945 113.139 97.1585C113.261 98.2314 112.487 99.2005 111.411 99.3215L105.084 100.039C105.01 100.047 104.935 100.052 104.862 100.052C104.245 100.052 103.657 99.7607 103.286 99.2596C102.87 98.6979 102.785 97.9578 103.065 97.317L105.606 91.4963C106.037 90.507 107.193 90.0534 108.187 90.484C108.883 90.7835 109.315 91.4387 109.363 92.1443Z" fill="#663366"/>
</svg>
