<svg width="150" height="150" viewBox="0 0 150 150" fill="none" xmlns="http://www.w3.org/2000/svg">
<path d="M30.1752 99.6649C26.2911 98.419 23.3383 95.1649 22.4696 91.1721C22.324 90.5033 22.547 89.8076 23.0543 89.3486C26.0833 86.6058 30.3779 85.6759 34.2623 86.9219C38.1468 88.1678 41.0996 91.4219 41.9683 95.4147C42.1138 96.0836 41.8908 96.7792 41.3835 97.2383C38.3408 99.993 34.0429 100.905 30.1752 99.6649ZM26.5381 91.4711C27.3621 93.6174 29.1248 95.3125 31.3432 96.0239C33.5616 96.7348 35.9811 96.3815 37.9001 95.1155C37.076 92.9692 35.3133 91.2741 33.0949 90.5626C30.876 89.8512 28.4562 90.2048 26.5381 91.4711Z" fill="#663366"/>
<path d="M45.368 128.53C44.3119 128.53 43.4562 127.674 43.4562 126.618V105.588C43.4562 102.287 41.8093 99.2325 39.051 97.4186C38.1688 96.8384 37.9241 95.6529 38.504 94.7707C39.0844 93.8887 40.2702 93.6437 41.1519 94.2236C44.9889 96.7472 47.2797 100.995 47.2797 105.588V126.618C47.2797 127.674 46.424 128.53 45.368 128.53Z" fill="#663366"/>
<path d="M49.3512 102.974C48.8439 102.514 48.6209 101.819 48.7664 101.15C49.6351 97.1573 52.5879 93.903 56.4724 92.6573C60.3566 91.4111 64.6512 92.3415 67.6804 95.084C68.1877 95.5433 68.4107 96.2387 68.2652 96.9075C67.3965 100.9 64.4437 104.155 60.5592 105.4C56.6982 106.639 52.3978 105.732 49.3512 102.974ZM52.8349 100.851C54.7533 102.117 57.1729 102.471 59.3915 101.759C61.6099 101.048 63.3726 99.3528 64.1969 97.2065C62.278 95.9404 59.8588 95.5869 57.6401 96.2981C55.4217 97.0095 53.659 98.7046 52.8349 100.851Z" fill="#663366"/>
<path d="M45.3668 128.53C44.3108 128.53 43.4551 127.674 43.4551 126.618V111.324C43.4551 106.731 45.7459 102.483 49.5829 99.9592C50.4651 99.3791 51.6504 99.6238 52.2308 100.506C52.8107 101.388 52.566 102.574 51.6838 103.154C48.9255 104.968 47.2786 108.023 47.2786 111.324V126.618C47.2786 127.674 46.4229 128.53 45.3668 128.53Z" fill="#663366"/>
<path d="M108.617 97.2383C108.11 96.779 107.887 96.0836 108.032 95.4148C108.901 91.422 111.854 88.1676 115.738 86.9219C119.622 85.6757 123.917 86.6061 126.946 89.3486C127.453 89.8079 127.676 90.5033 127.531 91.1722C126.662 95.165 123.709 98.4193 119.825 99.665C115.964 100.904 111.663 99.9969 108.617 97.2383ZM112.101 95.1155C114.019 96.3816 116.439 96.7357 118.657 96.024C120.876 95.3126 122.638 93.6175 123.463 91.4712C121.544 90.2048 119.125 89.8515 116.906 90.5627C114.687 91.2741 112.925 92.9692 112.101 95.1155Z" fill="#663366"/>
<path d="M104.632 128.53C103.576 128.53 102.721 127.674 102.721 126.618V105.588C102.721 100.996 105.012 96.7474 108.849 94.2239C109.73 93.6437 110.916 93.8884 111.496 94.7709C112.076 95.6531 111.832 96.8384 110.949 97.4188C108.191 99.2327 106.544 102.287 106.544 105.589V126.618C106.544 127.674 105.689 128.53 104.632 128.53Z" fill="#663366"/>
<path d="M89.4409 105.4C85.5567 104.154 82.6039 100.9 81.7352 96.9074C81.5896 96.2385 81.8127 95.5429 82.3199 95.0838C85.3489 92.3408 89.6433 91.4115 93.528 92.6572C97.4127 93.9029 100.365 97.1572 101.234 101.15C101.379 101.819 101.156 102.514 100.649 102.974C97.6064 105.728 93.3085 106.641 89.4409 105.4ZM85.8037 97.2064C86.6278 99.3527 88.3904 101.048 90.6088 101.759C92.8272 102.47 95.2468 102.117 97.1657 100.851C96.3416 98.7045 94.5789 97.0094 92.3605 96.2979C90.1413 95.5868 87.7221 95.9403 85.8037 97.2064Z" fill="#663366"/>
<path d="M104.632 128.53C103.576 128.53 102.72 127.674 102.72 126.618V111.324C102.72 108.022 101.073 104.968 98.3147 103.154C97.4325 102.574 97.1877 101.388 97.7676 100.506C98.3481 99.624 99.5339 99.3791 100.416 99.959C104.253 102.483 106.543 106.731 106.543 111.324V126.618C106.543 127.674 105.688 128.53 104.632 128.53Z" fill="#663366"/>
<path d="M138.088 55.8821H117.058C116.002 55.8821 115.146 55.0262 115.146 53.9704V21.4704C115.146 20.4146 116.002 19.5586 117.058 19.5586H138.088C139.144 19.5586 139.999 20.4146 139.999 21.4704V53.9704C139.999 55.0262 139.144 55.8821 138.088 55.8821ZM118.97 52.0586H136.176V23.3821H118.97V52.0586Z" fill="#663366"/>
<path d="M32.9412 55.8821H11.9118C10.8557 55.8821 10 55.0262 10 53.9704V21.4704C10 20.4146 10.8557 19.5586 11.9118 19.5586H32.9412C33.9972 19.5586 34.8529 20.4146 34.8529 21.4704V53.9704C34.8529 55.0262 33.9972 55.8821 32.9412 55.8821ZM13.8235 52.0586H31.0294V23.3821H13.8235V52.0586Z" fill="#663366"/>
<path d="M94.1175 55.8821H55.8822C55.3752 55.8821 54.8891 55.6807 54.5302 55.3221L47.4435 48.2351H32.9411C31.885 48.2351 31.0293 47.3791 31.0293 46.3233V29.1174C31.0293 28.0616 31.885 27.2057 32.9411 27.2057H47.4435L54.5305 20.1186C54.8891 19.76 55.3752 19.5586 55.8825 19.5586H94.1178C94.6248 19.5586 95.1109 19.76 95.4698 20.1186L102.556 27.2057H117.059C118.115 27.2057 118.97 28.0616 118.97 29.1174V46.3233C118.97 47.3791 118.115 48.2351 117.059 48.2351H102.556L95.4693 55.3221C95.1106 55.6807 94.6245 55.8821 94.1175 55.8821ZM56.674 52.0586H93.3256L100.413 44.9716C100.771 44.6129 101.258 44.4115 101.765 44.4115H115.147V31.0292H101.765C101.258 31.0292 100.771 30.8278 100.413 30.4692L93.3258 23.3821H56.674L49.5869 30.4692C49.2283 30.8278 48.7422 31.0292 48.2352 31.0292H34.8528V44.4115H48.2352C48.7422 44.4115 49.2283 44.6129 49.5872 44.9716L56.674 52.0586Z" fill="#663366"/>
<path d="M109.411 31.0294C108.355 31.0294 107.499 30.1735 107.499 29.1176V19.5588C107.499 16.3963 104.926 13.8235 101.764 13.8235H48.2346C45.0723 13.8235 42.4993 16.3963 42.4993 19.5588V29.1176C42.4993 30.1735 41.6436 31.0294 40.5875 31.0294C39.5315 31.0294 38.6758 30.1735 38.6758 29.1176V19.5588C38.6758 14.288 42.9637 10 48.2346 10H101.764C107.035 10 111.323 14.288 111.323 19.5588V29.1176C111.323 30.1735 110.467 31.0294 109.411 31.0294Z" fill="#663366"/>
<path d="M90.2949 65.4409H59.7067C58.6506 65.4409 57.7949 64.585 57.7949 63.5292V53.9704C57.7949 52.9146 58.6506 52.0586 59.7067 52.0586H90.2949C91.351 52.0586 92.2067 52.9146 92.2067 53.9704V63.5292C92.2067 64.585 91.351 65.4409 90.2949 65.4409ZM61.6185 61.6174H88.3832V55.8821H61.6185V61.6174Z" fill="#663366"/>
<path d="M65.4412 44.4116C61.7515 44.4116 58.75 41.4099 58.75 37.7205C58.75 34.031 61.7515 31.0293 65.4412 31.0293C69.1309 31.0293 72.1324 34.031 72.1324 37.7205C72.1324 41.4099 69.1309 44.4116 65.4412 44.4116ZM65.4412 34.8528C63.86 34.8528 62.5735 36.1393 62.5735 37.7205C62.5735 39.3016 63.86 40.5881 65.4412 40.5881C67.0223 40.5881 68.3088 39.3016 68.3088 37.7205C68.3088 36.1393 67.0223 34.8528 65.4412 34.8528Z" fill="#663366"/>
<path d="M84.5584 44.4116C80.8687 44.4116 77.8672 41.4099 77.8672 37.7205C77.8672 34.031 80.8687 31.0293 84.5584 31.0293C88.2481 31.0293 91.2495 34.031 91.2495 37.7205C91.2495 41.4099 88.2481 44.4116 84.5584 44.4116ZM84.5584 34.8528C82.9772 34.8528 81.6907 36.1393 81.6907 37.7205C81.6907 39.3016 82.9772 40.5881 84.5584 40.5881C86.1395 40.5881 87.426 39.3016 87.426 37.7205C87.426 36.1393 86.1395 34.8528 84.5584 34.8528Z" fill="#663366"/>
<path d="M138.088 140H11.9118C10.8557 140 10 139.144 10 138.088V126.618C10 125.562 10.8557 124.706 11.9118 124.706H138.088C139.144 124.706 140 125.562 140 126.618V138.088C140 139.144 139.144 140 138.088 140ZM13.8235 136.177H136.176V128.53H13.8235V136.177Z" fill="#663366"/>
<path d="M64.5966 73.3048C63.8913 72.5192 63.9563 71.3104 64.7419 70.6051L65.6904 69.7538C66.4763 69.0484 67.6848 69.1137 68.3904 69.8993C69.0957 70.6849 69.0307 71.8937 68.2451 72.599L67.2966 73.4503C66.5107 74.1557 65.3022 74.0904 64.5966 73.3048Z" fill="#663366"/>
<path d="M57.1884 79.9571C56.4831 79.1715 56.5481 77.9628 57.3337 77.2572L59.141 75.6347C59.9271 74.9292 61.1353 74.9947 61.8409 75.78C62.5462 76.5657 62.4812 77.7744 61.6956 78.48L59.8884 80.1024C59.1025 80.808 57.8938 80.7425 57.1884 79.9571Z" fill="#663366"/>
<path d="M50.6358 85.8383C49.9302 85.0527 49.9955 83.8439 50.7813 83.1386L51.7298 82.2873C52.5152 81.5814 53.7242 81.6469 54.4295 82.4328C55.1351 83.2184 55.0698 84.4272 54.2839 85.1325L53.3355 85.9838C52.5519 86.6876 51.3426 86.6254 50.6358 85.8383Z" fill="#663366"/>
<path d="M82.7044 73.4516L81.7559 72.6002C80.9701 71.8949 80.9048 70.6862 81.6104 69.9006C82.3152 69.1147 83.5239 69.0492 84.3101 69.755L85.2586 70.6064C86.0444 71.3117 86.1097 72.5205 85.4041 73.3061C84.7024 74.0876 83.4946 74.1605 82.7044 73.4516Z" fill="#663366"/>
<path d="M90.1137 80.1036L88.3064 78.4811C87.5208 77.7756 87.4558 76.5668 88.1611 75.7812C88.8664 74.9956 90.0749 74.9301 90.861 75.6359L92.6683 77.2584C93.4539 77.9639 93.5189 79.1727 92.8136 79.9583C92.108 80.7439 90.8993 80.8089 90.1137 80.1036Z" fill="#663366"/>
<path d="M96.6631 85.9848L95.7146 85.1332C94.929 84.4279 94.864 83.2191 95.5695 82.4335C96.2743 81.6482 97.4833 81.5822 98.2692 82.2885L99.2177 83.1401C100.003 83.8454 100.068 85.0542 99.3627 85.8398C98.6587 86.6239 97.4497 86.6914 96.6631 85.9848Z" fill="#663366"/>
</svg>
