<svg width="150" height="150" viewBox="0 0 150 150" fill="none" xmlns="http://www.w3.org/2000/svg">
<path d="M119.751 126.508L109.48 116.217C109.151 115.888 108.699 115.695 108.219 115.695C107.739 115.695 107.3 115.888 106.957 116.217L106.162 117.014L102.35 113.195C106.395 107.685 108.781 100.885 108.781 93.5341C108.781 81.0177 101.842 70.0814 91.6128 64.4071V29.4134C91.6128 25.6901 88.5961 22.6675 84.8937 22.6675H74.1567V15.1522C74.1567 12.3082 71.853 10 69.0144 10H50.5984C47.7599 10 45.4562 12.3082 45.4562 15.1522V22.6675H34.7192C31.0168 22.6675 28 25.6901 28 29.4134V49.1566V73.6261V98.0955V117.839C28 121.562 31.0168 124.585 34.7192 124.585H63.7488C67.4238 125.986 71.4004 126.769 75.5691 126.769C82.9053 126.769 89.6931 124.365 95.2055 120.312L99.0177 124.131L98.2223 124.928C97.523 125.629 97.523 126.755 98.2223 127.456L108.493 137.747C109.933 139.203 111.866 140 113.923 140C115.98 140 117.9 139.203 119.353 137.747L119.751 137.348C121.191 135.906 122 133.969 122 131.908C122 129.847 121.205 127.923 119.765 126.467L119.751 126.508ZM75.5965 60.2579C65.5452 60.2579 56.5222 64.7643 50.4338 71.8537H31.5927V50.9427H88.075V62.6897C84.2217 61.1234 80.012 60.2441 75.6102 60.2441L75.5965 60.2579ZM42.3982 93.5341C42.3982 94.4821 42.4531 95.4164 42.5217 96.3507H31.5927V75.4397H47.7599C44.3729 80.6468 42.3982 86.8706 42.3982 93.5341ZM49.0352 15.1522C49.0352 14.2866 49.7482 13.5722 50.6121 13.5722H69.0282C69.8921 13.5722 70.6051 14.2866 70.6051 15.1522V22.6675H49.0352V15.1522ZM34.7466 26.2397H84.9074C86.6489 26.2397 88.075 27.6686 88.075 29.4134V47.3843H31.579V29.4134C31.579 27.6686 32.9914 26.2397 34.7466 26.2397ZM34.7466 121.054C33.0051 121.054 31.579 119.625 31.579 117.88V99.9228H43.0016C44.702 108.675 49.8442 116.217 56.9473 121.067H34.7466V121.054ZM45.9498 93.5341C45.9498 77.157 59.2511 63.8301 75.5965 63.8301C91.9419 63.8301 105.243 77.157 105.243 93.5341C105.243 109.911 91.9419 123.238 75.5965 123.238C59.2511 123.238 45.9498 109.911 45.9498 93.5341ZM100.128 116.011L103.653 119.542L101.554 121.644L98.0303 118.114L100.128 116.011ZM117.242 134.862L116.844 135.26C116.076 136.029 115.034 136.469 113.937 136.469C112.84 136.469 111.798 136.043 111.03 135.26L102.021 126.233L108.233 120.01L117.242 129.036C118.01 129.806 118.435 130.85 118.435 131.949C118.435 133.048 118.01 134.092 117.242 134.862ZM95.7541 76.896C95.6169 76.7311 95.4798 76.5663 95.3427 76.4151C95.3427 76.4151 95.329 76.4014 95.3152 76.3877C95.1918 76.2503 95.0821 76.1129 94.9587 75.9892C94.9587 75.9892 94.9313 75.9617 94.9313 75.948L94.5062 75.4946C89.5285 70.26 82.823 67.3885 75.6102 67.3885C68.3974 67.3885 61.7193 70.26 56.7416 75.4671C56.7416 75.4671 56.7142 75.4946 56.7142 75.5083C56.5771 75.6595 56.4263 75.8106 56.2891 75.9617C56.2891 75.9617 56.2754 75.9892 56.2617 75.9892C56.1246 76.1403 56.0012 76.2777 55.8778 76.4289C55.7406 76.5937 55.6035 76.7449 55.4664 76.9097C51.6268 81.5811 49.5014 87.4889 49.5014 93.5616C49.5014 99.6343 51.6131 105.542 55.4664 110.213C55.5898 110.365 55.7132 110.502 55.8366 110.639C55.8366 110.653 55.864 110.667 55.8778 110.694C56.0012 110.845 56.1383 110.983 56.2617 111.134C56.2617 111.134 56.2754 111.148 56.2891 111.161C56.4263 111.313 56.5634 111.464 56.7142 111.615L56.7416 111.642C61.7193 116.85 68.4111 119.721 75.6102 119.721C82.8093 119.721 89.5285 116.836 94.5062 111.601L94.9313 111.148C94.9313 111.148 94.945 111.134 94.9587 111.12C95.0958 110.983 95.2193 110.832 95.3564 110.681C95.3564 110.681 95.3701 110.667 95.3838 110.653C95.5072 110.502 95.6306 110.351 95.7678 110.2C99.6073 105.528 101.733 99.6206 101.733 93.5479C101.733 87.4752 99.621 81.5673 95.7678 76.9097L95.7541 76.896ZM93.0115 107.919L92.6687 108.331C92.6687 108.331 92.655 108.359 92.6413 108.359C92.5316 108.482 92.4219 108.606 92.3122 108.73C92.3122 108.73 92.2985 108.757 92.2848 108.757L91.9282 109.128C87.6225 113.648 81.8357 116.135 75.6102 116.135C69.3847 116.135 63.5842 113.648 59.2922 109.128C59.2922 109.128 59.2922 109.114 59.2648 109.101L58.9357 108.743C58.9357 108.743 58.9082 108.716 58.9082 108.702C58.7985 108.592 58.7026 108.469 58.5929 108.345C58.5929 108.331 58.5654 108.317 58.5517 108.304L58.2089 107.892C54.8904 103.866 53.0667 98.755 53.0667 93.5204C53.0667 88.272 54.8904 83.1748 58.2226 79.1355C58.3323 78.9981 58.4557 78.8607 58.4832 78.8195C58.5106 78.792 58.5517 78.7508 58.5791 78.7233C58.6888 78.5859 58.8123 78.4623 58.9357 78.3249C58.9357 78.3249 58.9494 78.3111 58.9631 78.2974L59.2922 77.9402C59.2922 77.9402 59.3059 77.9264 59.3196 77.9127C63.6254 73.3925 69.4121 70.9057 75.6376 70.9057C81.8632 70.9057 87.6636 73.3925 91.9557 77.9127L92.2985 78.2837C92.2985 78.2837 92.3122 78.2974 92.3259 78.3111C92.4493 78.4348 92.559 78.5722 92.6687 78.7096C92.6687 78.7233 92.6961 78.737 92.7098 78.7645C92.8196 78.8882 92.9155 79.0118 93.0252 79.1355C96.3437 83.1748 98.1812 88.272 98.1812 93.5204C98.1812 98.7688 96.3574 103.866 93.039 107.892L93.0115 107.919ZM90.4198 80.111C89.8988 79.8087 89.268 79.795 88.7332 80.0697C83.4538 82.7489 79.4635 84.0678 76.2684 85.112C68.5893 87.64 66.0937 89.0277 66.8616 99.8679L61.829 105.927C61.1982 106.683 61.308 107.809 62.0621 108.441C62.3913 108.716 62.8026 108.853 63.2003 108.853C63.7077 108.853 64.215 108.633 64.5716 108.208L69.3847 102.41C71.4279 102.794 73.3476 103 75.1303 103C79.5594 103 83.1796 101.819 85.9084 99.442C90.0633 95.8423 91.8871 89.8246 91.3386 81.5398C91.2974 80.9353 90.9683 80.3995 90.4473 80.111H90.4198ZM83.5635 96.7491C81.0267 98.9474 77.338 99.7992 72.566 99.2908C74.4035 97.862 76.5015 96.6804 78.5584 95.5263C79.7103 94.8806 80.917 94.2073 82.0277 93.5067C82.8642 92.9846 83.111 91.8854 82.5899 91.0473C82.0689 90.2092 80.9718 89.9619 80.1354 90.484C79.1069 91.1298 77.9962 91.7618 76.8169 92.4075C74.5818 93.6578 72.3055 94.9493 70.2486 96.5705C70.1389 90.8962 71.6473 90.3879 77.3929 88.5056C80.0531 87.64 83.5224 86.4859 87.8693 84.4663C87.8419 90.1131 86.3746 94.3173 83.5772 96.7354L83.5635 96.7491Z" fill="#663366"/>
</svg>
