<svg width="150" height="150" viewBox="0 0 150 150" fill="none" xmlns="http://www.w3.org/2000/svg">
<path d="M22.7944 26.7369C22.7944 24.3678 24.7552 22.4302 27.4851 21.8582V21.4912C27.4851 20.5629 28.238 19.8073 29.1752 19.8073C30.1068 19.8073 30.8652 20.5575 30.8652 21.4912V21.8636C32.5607 22.2252 34.0068 23.1211 34.8356 24.3839C35.3448 25.1611 35.1281 26.2027 34.3481 26.71C33.5681 27.2173 32.5227 27.0015 32.0136 26.2243C31.629 25.6414 30.6053 25.0532 29.1806 25.0532C27.4635 25.0532 26.1798 25.9436 26.1798 26.7425C26.1798 27.5412 27.4635 28.4317 29.1806 28.4317C32.761 28.4317 35.5614 30.6499 35.5614 33.4832C35.5614 35.8524 33.6006 37.7899 30.8707 38.3619V38.7289C30.8707 39.6572 30.1178 40.4128 29.1806 40.4128C28.249 40.4128 27.4906 39.6626 27.4906 38.7289V38.3565C25.7951 37.9949 24.349 37.099 23.5202 35.8362C23.011 35.059 23.2277 34.0174 24.0077 33.5101C24.7877 33.0028 25.8331 33.2187 26.3422 33.9958C26.7268 34.5787 27.7505 35.167 29.1752 35.167C30.8923 35.167 32.176 34.2765 32.176 33.4777C32.176 32.6789 30.8923 31.7884 29.1752 31.7884C25.6002 31.7884 22.7944 29.5702 22.7944 26.7369ZM71.3923 73.8526H11.6901C10.753 73.8526 10 73.097 10 72.1687C10 61.2939 12.887 50.6625 18.3632 41.3312C15.4003 38.4978 13.5477 34.5148 13.5477 30.1056C13.5477 21.5192 20.5569 14.5348 29.1753 14.5348C33.6007 14.5348 37.5981 16.3805 40.4419 19.3328C49.8072 13.8765 60.472 11 71.3919 11C72.3236 11 73.082 11.7502 73.082 12.6839V72.1691C73.082 73.0974 72.3241 73.8526 71.3923 73.8526ZM29.1757 42.3132C35.9302 42.3132 41.428 36.8354 41.428 30.1054C41.428 23.3755 35.9302 17.8977 29.1757 17.8977C22.4212 17.8977 16.9234 23.3755 16.9234 30.1054C16.9234 36.8408 22.4212 42.3132 29.1757 42.3132ZM69.7034 70.4856V14.3895C60.1214 14.6647 50.7936 17.2823 42.5222 22.0153C43.9685 24.3737 44.8026 27.1423 44.8026 30.1053C44.8026 38.6917 37.7935 45.676 29.175 45.676C26.2014 45.676 23.4226 44.8449 21.0555 43.404C16.3051 51.645 13.6781 60.938 13.4019 70.4863L69.7027 70.4917L69.7034 70.4856ZM34.8416 54.4617V66.5077C34.8416 67.4359 34.0887 68.1916 33.1515 68.1916H23.5641C22.6324 68.1916 21.874 67.4414 21.874 66.5077V54.4617C21.874 53.5334 22.6269 52.7778 23.5641 52.7778H33.1515C34.0832 52.7778 34.8416 53.5334 34.8416 54.4617ZM31.4616 56.1401H25.2541V64.8182H31.4616V56.1401ZM51.1188 46.0047V66.5078C51.1188 67.4361 50.3659 68.1917 49.4287 68.1917H39.8413C38.9096 68.1917 38.1512 67.4415 38.1512 66.5078L38.1567 46.0047C38.1567 45.0764 38.9096 44.3208 39.8467 44.3208H49.4342C50.3604 44.3208 51.1188 45.071 51.1188 46.0047ZM47.7388 47.6831H41.5313V64.8178H47.7388V47.6831ZM67.396 37.5424V66.5023C67.396 67.4306 66.6431 68.1862 65.706 68.1862H56.1239C55.1923 68.1862 54.4339 67.436 54.4339 66.5023V37.5424C54.4339 36.6141 55.1868 35.8585 56.1239 35.8585H65.7114C66.643 35.8639 67.396 36.614 67.396 37.5424ZM64.0215 39.2263H57.814V64.8178H64.0215V39.2263ZM130.158 98.1933C130.158 99.1216 129.405 99.8773 128.468 99.8773H124.405C124.151 99.8773 123.961 100.023 123.896 100.266L123.279 102.57C123.273 102.597 123.268 102.624 123.257 102.651L120.002 114.848C121.063 115.523 121.767 116.705 121.767 118.049C121.767 120.137 120.061 121.837 117.965 121.837H102.046C101.114 121.837 100.356 121.087 100.356 120.153C100.356 119.225 101.109 118.469 102.046 118.469H117.965C118.198 118.469 118.393 118.275 118.393 118.043C118.393 117.816 118.209 117.628 117.981 117.617H117.927H101.969C101.216 117.617 100.55 117.115 100.344 116.392L97.6414 106.85C97.5114 106.397 97.5818 105.911 97.831 105.506C98.0802 105.107 98.4864 104.826 98.9522 104.74L120.283 100.719L120.635 99.3968C121.096 97.6698 122.612 96.5095 124.411 96.5095H128.473C129.399 96.5095 130.158 97.265 130.158 98.1933ZM119.319 104.33L101.395 107.708L103.248 114.255H116.67L119.319 104.33ZM118.902 125.642C118.902 127.655 117.255 129.296 115.235 129.296C113.215 129.296 111.568 127.655 111.568 125.642C111.568 123.629 113.215 121.989 115.235 121.989C117.255 121.989 118.902 123.629 118.902 125.642ZM115.528 125.642C115.528 125.486 115.392 125.351 115.235 125.351C115.078 125.351 114.943 125.486 114.943 125.642C114.943 125.799 115.078 125.934 115.235 125.934C115.392 125.934 115.528 125.804 115.528 125.642ZM108.838 125.642C108.838 127.655 107.191 129.296 105.171 129.296C103.151 129.296 101.504 127.655 101.504 125.642C101.504 123.629 103.151 121.989 105.171 121.989C107.191 121.989 108.838 123.629 108.838 125.642ZM105.458 125.642C105.458 125.486 105.323 125.351 105.166 125.351C105.009 125.351 104.873 125.486 104.873 125.642C104.873 125.799 105.009 125.934 105.166 125.934C105.328 125.934 105.458 125.804 105.458 125.642ZM140 110.099C140 124.456 128.278 136.134 113.87 136.134C109.791 136.134 105.929 135.195 102.484 133.528C94.489 137.154 85.9467 139 77.0804 139C60.6846 139 45.2637 132.637 33.6713 121.082C22.0743 109.538 15.6878 94.1723 15.6878 77.8362C15.6878 76.9079 16.4407 76.1523 17.3778 76.1523H75.3898V18.3457C75.3898 17.4175 76.1427 16.6618 77.0799 16.6618C93.4756 16.6618 108.897 23.0248 120.489 34.5799C132.086 46.1347 138.472 61.4937 138.472 77.8312C138.472 83.989 137.557 90.0553 135.753 95.8833C138.435 99.9741 140 104.859 140 110.099ZM133.185 92.5859C134.307 88.3278 134.94 83.9509 135.065 79.5147L108.605 79.5201C108.583 81.2309 108.524 82.9418 108.432 84.6363C110.187 84.2639 112.007 84.0642 113.875 84.0642C121.513 84.0642 128.403 87.3563 133.185 92.5859ZM31.2776 113.273H51.3023C47.7273 103.456 45.7232 91.7874 45.5553 79.5201H19.0897C19.458 92.2136 23.9489 103.893 31.2776 113.273ZM54.8993 113.273H75.3898V79.5201H48.9297C49.103 91.8951 51.1889 103.596 54.8993 113.273ZM122.883 42.4004H102.858C106.433 52.2174 108.437 63.8858 108.605 76.1531H135.065C134.702 63.4596 130.211 51.7801 122.883 42.4004ZM99.2555 42.4004H78.7649V76.1531H105.225C105.057 63.778 102.971 52.0716 99.2555 42.4004ZM97.8634 39.0327C97.4842 38.18 97.0888 37.338 96.6772 36.5232C91.7534 26.7115 85.4485 20.969 78.7699 20.1387V39.0335L97.8634 39.0327ZM56.2957 116.635C56.6749 117.488 57.0703 118.33 57.482 119.144C62.4057 128.956 68.7107 134.699 75.3892 135.529V116.634L56.2957 116.635ZM92.852 125.556C90.8912 122.917 89.4233 119.9 88.573 116.635H78.7689V135.53C84.9276 134.774 89.6999 129.976 92.852 125.556ZM87.7388 110.099C87.7388 98.8514 94.9374 89.2445 104.98 85.6123C105.116 83.5993 105.197 81.5592 105.23 79.5137L78.7639 79.5191V113.272H87.9289C87.8043 112.23 87.7388 111.173 87.7388 110.099ZM89.3042 21.3246C93.1771 24.4332 96.7032 29.0475 99.6986 35.0166C100.349 36.3065 100.961 37.6503 101.54 39.0319H120.044C112.038 30.2403 101.361 23.9151 89.3042 21.3246ZM64.8533 134.342C60.9804 131.233 57.4543 126.619 54.4589 120.65C53.8089 119.36 53.1968 118.016 52.6172 116.634H34.1082C42.1139 125.426 52.7964 131.757 64.8533 134.342ZM98.8859 131.416C97.5209 130.461 96.2535 129.382 95.0997 128.195C93.2635 130.661 91.3188 132.723 89.2768 134.363C92.5539 133.662 95.7605 132.685 98.8859 131.416ZM136.624 110.098C136.624 97.599 126.413 87.4261 113.869 87.4261C101.324 87.4261 91.1137 97.5993 91.1137 110.098C91.1137 122.597 101.319 132.77 113.869 132.77C126.414 132.77 136.624 122.597 136.624 110.098Z" fill="#663366"/>
</svg>
