<svg width="150" height="150" viewBox="0 0 150 150" fill="none" xmlns="http://www.w3.org/2000/svg">
<path d="M50.8833 88.5119C50.3064 88.5119 49.8393 88.0447 49.8393 87.4693C49.8393 87.2147 49.9327 86.9777 50.0898 86.7949L57.987 76.3588C58.3336 75.8984 58.9863 75.809 59.444 76.157C59.9017 76.5023 59.9924 77.1536 59.6457 77.6113L52.974 86.4307H62.1062C62.6803 86.4307 63.1461 86.8965 63.1461 87.4706C63.1461 87.7292 63.0567 87.9621 62.8997 88.145L54.9998 98.5811C54.6531 99.0415 54.0018 99.1309 53.5455 98.7842C53.0851 98.4389 52.9944 97.7876 53.3397 97.3299L60.0127 88.5119H50.8833ZM24.3048 115.786H88.686C90.3543 115.786 91.8803 115.096 92.9907 113.988C94.1011 112.88 94.7876 111.357 94.7876 109.685V103.869H18.2059V109.685C18.2059 111.354 18.8938 112.878 20.0042 113.988C21.1091 115.097 22.6338 115.786 24.3048 115.786ZM88.6846 117.868H87.516V129.161H90.0266V117.868H88.6846ZM85.4348 117.868H82.8687V129.161H85.4348V117.868ZM80.7875 117.868H78.1077V123.914C78.1077 125.407 78.564 126.756 79.2966 127.723C79.7177 128.278 80.2282 128.703 80.7888 128.94V117.868H80.7875ZM76.0264 117.868H36.9062V123.914C36.9062 125.873 36.3009 127.669 35.3192 128.984C34.2751 130.377 32.8113 131.242 31.162 131.242H21.8688C20.2208 131.242 18.753 130.377 17.7117 128.984C16.7286 127.669 16.1246 125.873 16.1246 123.914V79.4245C16.1246 77.289 16.302 75.1942 16.6406 73.1536H14.4442C13.1632 73.1536 12.023 72.4833 11.2119 71.4041C10.4645 70.4088 10 69.0547 10 67.5774C10 66.1298 10.4685 64.7838 11.2187 63.7953C12.0285 62.7269 13.1659 62.0621 14.4428 62.0621H19.996V62.0648C20.0868 62.0648 20.1829 62.0756 20.2723 62.1027C26.2764 50.3057 38.1926 41.9684 52.0519 41.0625V37.9941C52.0519 36.5181 52.5177 35.164 53.2652 34.1674C53.8461 33.3915 54.6017 32.8268 55.4534 32.5696V18.044C55.4534 17.4685 55.9206 17 56.4961 17C57.0729 17 57.5387 17.4685 57.5387 18.044V32.5709C58.3905 32.8255 59.1474 33.3915 59.7283 34.1688C60.4745 35.1654 60.9403 36.5195 60.9403 37.9955V41.0612C70.5165 41.6854 79.168 45.8588 85.5756 52.2705C89.1748 55.8684 92.0686 60.1704 94.0239 64.9477C94.4247 64.3925 94.9298 63.8901 95.4958 63.4853C96.2622 62.9355 97.1627 62.5496 98.0862 62.4223C99.0612 62.2896 100.054 62.4399 100.964 62.9775C101.917 63.5408 102.751 64.5157 103.316 66.0215C103.572 66.6904 103.79 67.8617 103.802 68.9437C103.81 69.5679 103.749 70.1894 103.589 70.7162C103.847 71.0209 104.067 71.3269 104.233 71.6343C104.364 71.8807 104.467 72.1312 104.536 72.3818C104.919 72.6431 105.363 73.0006 105.715 73.4095C106.134 73.8862 106.445 74.4495 106.498 75.0656C106.511 75.1821 106.503 75.2985 106.474 75.4123L106.651 75.6519C106.773 74.7338 106.903 73.8049 107.041 72.8692C107.172 71.985 107.751 70.2274 108.372 68.7229C108.793 67.7047 109.263 66.7608 109.694 66.1786L109.691 66.1027C109.691 65.5069 109.787 65.0939 109.97 64.7337C110.155 64.3587 110.36 64.1515 110.62 63.8942C110.819 63.6965 110.972 63.5597 111.128 63.4148L111.13 63.4175C111.236 63.3228 111.347 63.2198 111.551 63.0208C112.558 61.2889 113.757 60.0201 115.133 59.1711C116.39 58.3951 117.772 57.9767 119.273 57.8874V36.5181C119.273 35.4999 119.61 34.5398 120.142 33.8275C120.738 33.034 121.584 32.5316 122.524 32.5316H136.692C137.655 32.5316 138.509 33.0218 139.109 33.8072C139.657 34.5208 140 35.489 140 36.5154V127.196C140 128.246 139.663 129.225 139.123 129.941C138.519 130.74 137.66 131.24 136.692 131.24H122.522C121.579 131.24 120.727 130.732 120.128 129.919C119.602 129.206 119.271 128.24 119.271 127.193V63.3959C118.606 63.0899 117.84 63.7547 117.033 64.4589C116.088 65.2794 115.098 66.1393 113.77 66.3113L113.554 66.5063C113.435 66.6132 113.313 66.7243 113.11 66.9017L112.965 67.0506C112.509 67.5435 112.254 67.8211 111.19 67.8211L111.044 67.8076C110.854 68.1799 110.585 68.8042 110.294 69.5056C109.733 70.8706 109.209 72.4264 109.101 73.1644C108.809 75.1374 108.553 77.0751 108.327 78.9736L108.484 79.392C109.397 81.8917 110.063 84.78 110.402 86.7258V86.7367C113.993 108.95 114.49 121.983 113.671 127.696C113.143 131.382 111.887 132.617 110.294 131.75C109.259 131.187 108.178 129.074 107.305 125.659C105.205 117.449 103.706 100.756 106.204 79.2471C105.889 78.4698 105.55 77.7657 105.194 77.1997C105.025 77.2389 104.842 77.2389 104.664 77.1834C104.061 77.006 103.623 76.8056 103.201 76.4942C102.893 76.268 102.613 76.0013 102.293 75.6452C101.133 75.4461 100.199 74.658 99.2833 73.8821C98.4545 73.178 97.6434 72.4996 97.0557 72.7081L96.9894 72.7365C96.8066 72.8069 96.6427 72.8774 96.487 72.9505L96.3354 73.025C96.6861 75.1062 96.8716 77.2403 96.8716 79.4164V123.906C96.8716 125.862 96.2541 127.658 95.2602 128.969C94.204 130.367 92.7199 131.237 91.0719 131.237H81.8328C80.1862 131.237 78.7008 130.367 77.6432 128.969C76.6507 127.657 76.0318 125.862 76.0318 123.906V117.868H76.0264ZM34.8249 117.868H32.2033V128.942C32.7463 128.703 33.246 128.285 33.6522 127.738C34.378 126.77 34.8235 125.413 34.8235 123.914L34.8249 117.868ZM30.1194 117.868H27.5533V129.161H30.1194V117.868ZM25.4734 117.868H22.9074V129.161H25.4734V117.868ZM94.7835 101.788V93.0468H82.6792C81.145 93.0468 79.7502 92.4199 78.7387 91.407L78.6832 91.3461C77.7069 90.344 77.1043 88.9737 77.1043 87.4693C77.1043 85.935 77.7312 84.543 78.7387 83.5342C79.7502 82.524 81.145 81.8957 82.6792 81.8957H94.7835V79.4245C94.7835 69.4244 90.6928 60.3342 84.101 53.7424C77.5105 47.152 68.4177 43.0585 58.4203 43.0585H54.5665C34.5663 43.0585 18.2032 59.4216 18.2032 79.4231V81.8944H30.3089C31.8404 81.8944 33.2162 82.5227 34.2156 83.5329C35.2149 84.5444 35.8283 85.9364 35.8283 87.4679C35.8283 89.0008 35.2149 90.3955 34.2156 91.4056C33.2176 92.4185 31.8404 93.0455 30.3089 93.0455H18.2032V101.786H94.7835V101.788ZM94.7835 90.9629V83.9756H82.6792C81.7177 83.9756 80.8457 84.371 80.212 85.0034C79.5782 85.6371 79.1856 86.5119 79.1856 87.4693C79.1856 88.4076 79.5593 89.2621 80.1673 89.8918L80.212 89.9364C80.847 90.5688 81.7177 90.9629 82.6792 90.9629H94.7835ZM54.5678 40.9772H58.8549V37.9955C58.8549 36.9731 58.553 36.0632 58.0668 35.4145C57.643 34.8512 57.0851 34.5019 56.4947 34.5019C55.9043 34.5019 55.3451 34.8512 54.9226 35.4145C54.4365 36.0632 54.1332 36.9731 54.1332 37.9955V40.9772H54.5678ZM18.2059 83.9756V90.9629H30.3117C31.2677 90.9629 32.1221 90.5756 32.7382 89.95C33.3638 89.3176 33.747 88.4388 33.747 87.4693C33.747 86.5011 33.3638 85.6209 32.7382 84.9858C32.1221 84.3616 31.2677 83.9756 30.3117 83.9756H18.2059ZM41.1933 48.8541H71.7407C73.5552 48.8541 75.1787 49.8074 76.3352 51.3511C77.4293 52.8 78.1036 54.7919 78.1063 56.9788H78.109L78.1063 56.9815V62.364C78.1063 64.5536 77.4293 66.5428 76.3352 67.9971C75.1774 69.5381 73.5552 70.4914 71.7407 70.4914H41.1933C39.3788 70.4914 37.7552 69.5381 36.5961 67.9971C35.502 66.5401 34.8222 64.5482 34.8222 62.364H34.8263V56.9815C34.8263 54.7946 35.5033 52.8 36.5934 51.3511C37.7552 49.8074 39.3788 48.8541 41.1933 48.8541ZM71.7407 50.9367H41.1933C40.0653 50.9367 39.024 51.5704 38.2576 52.5941C37.4207 53.7072 36.9035 55.255 36.9035 56.9815V62.364H36.9089C36.9089 64.0932 37.4234 65.6437 38.2549 66.7514C39.024 67.7751 40.0653 68.4102 41.1933 68.4102H71.7407C72.8659 68.4102 73.9099 67.7751 74.6764 66.7514C75.5132 65.641 76.0305 64.0878 76.0305 62.364V56.9815H76.0251L76.0305 56.9788C76.0305 55.255 75.5132 53.7072 74.6764 52.5941C73.9086 51.5704 72.8659 50.9367 71.7407 50.9367ZM18.5417 64.1406H14.4442C13.8511 64.1406 13.2932 64.49 12.8721 65.0452C12.3873 65.6857 12.084 66.5821 12.084 67.576C12.084 68.597 12.3873 69.5124 12.8721 70.1569C13.2945 70.7203 13.8511 71.0696 14.4442 71.0696H16.8383C17.0536 69.7494 17.3244 68.4684 17.6426 67.2212C17.9066 66.1867 18.2113 65.1616 18.5417 64.1406ZM19.3772 127.739C19.7875 128.283 20.2804 128.705 20.8248 128.94V117.571C19.8349 117.219 18.9398 116.572 18.2018 115.705V123.915C18.2059 125.414 18.6528 126.771 19.3772 127.739ZM94.7835 123.911V115.701C94.0347 116.581 93.1193 117.241 92.1038 117.59V128.944C92.6644 128.706 93.1735 128.281 93.596 127.726C94.3286 126.757 94.7835 125.406 94.7835 123.911ZM107.765 84.2803C106.025 103.173 107.417 117.721 109.319 125.15C110.044 127.995 110.747 129.643 111.282 129.934C111.3 129.945 111.366 129.099 111.608 127.409C112.402 121.854 111.901 109.05 108.346 87.0793C108.208 86.2736 108.012 85.3121 107.765 84.2803ZM96.1173 70.853L96.2826 70.7893C98.0158 70.1001 99.3009 71.1847 100.62 72.3032C101.218 72.8083 101.828 73.3229 102.377 73.5287L102.426 73.4393C102.486 73.3066 102.526 73.1658 102.549 73.0114C102.532 72.9004 102.479 72.7677 102.402 72.6174C102.205 72.2545 101.883 71.8794 101.481 71.5111C101.283 71.3418 101.082 71.1766 100.884 71.0168C100.529 70.7514 100.143 70.4968 99.7382 70.2666C98.5453 69.5842 97.2521 69.1265 96.3245 69.1712C96.1796 69.1793 96.0483 69.1996 95.94 69.2348L95.8208 69.3648C95.921 69.855 96.0212 70.3533 96.1173 70.853ZM97.4552 67.1928C98.2893 67.3431 99.1871 67.6613 100.05 68.0811C99.9454 67.5029 99.7816 67.0642 99.569 66.7554C99.4214 66.5415 99.2589 66.4142 99.0883 66.3736C98.8973 66.3302 98.6631 66.3722 98.3977 66.4954C98.093 66.639 97.7748 66.8719 97.4552 67.1928ZM113.615 63.6234C113.729 63.7832 113.845 63.9497 113.954 64.1285C114.531 63.8834 115.11 63.381 115.673 62.8935C116.804 61.9077 117.882 60.9761 119.27 61.2158V59.9754C118.155 60.0607 117.136 60.3749 116.223 60.9382C115.252 61.534 114.38 62.4223 113.615 63.6234ZM121.35 61.0804V127.199C121.35 127.789 121.525 128.321 121.799 128.695C122.009 128.981 122.271 129.161 122.517 129.161H136.686C136.964 129.161 137.238 128.981 137.456 128.69C137.737 128.317 137.912 127.791 137.912 127.196V61.079L121.35 61.0804ZM121.35 58.9991H137.912V36.5181C137.912 35.9548 137.737 35.4416 137.458 35.0774C137.24 34.7944 136.964 34.6156 136.686 34.6156H122.518C122.267 34.6156 122.008 34.793 121.795 35.0747C121.523 35.4403 121.351 35.9548 121.351 36.5181V58.9991H121.35ZM127.732 47.2671H129.377C129.951 47.2671 130.417 47.7302 130.417 48.3043C130.803 47.5582 131.168 46.8744 131.577 46.1418L130.152 46.1161C129.58 46.1052 129.122 45.634 129.133 45.0612V45.0463C129.136 44.9421 129.144 44.8364 129.154 44.7241L128.987 45.0192C128.586 45.7234 128.111 46.5656 127.732 47.2671ZM128.097 49.3483H126.091C125.516 49.3483 125.049 48.8812 125.049 48.3084C125.049 48.2122 125.064 48.1161 125.09 48.02C125.284 47.3429 126.378 45.4119 127.182 43.9915C127.47 43.4823 127.718 43.045 127.874 42.7538L130.673 37.7761C130.871 37.4159 131.27 37.1911 131.705 37.2412C132.276 37.3076 132.684 37.8222 132.62 38.3922C132.509 39.3685 132.192 40.6035 131.881 41.8168C131.679 42.6103 131.477 43.3984 131.347 44.0592L133.12 44.0903C133.219 44.0863 133.323 44.0957 133.427 44.1188C133.982 44.2596 134.324 44.8243 134.185 45.3808C134.018 46.0551 133.438 47.0707 133.026 47.8033L132.784 48.238L129.024 55.5854C128.963 55.6883 128.907 55.7844 128.831 55.8819C128.755 55.974 128.707 56.0187 128.636 56.0701C128.642 56.0674 128.646 56.0674 128.639 56.0729C128.398 56.3085 128.046 56.4249 127.692 56.3518C127.132 56.2353 126.772 55.6842 126.888 55.1263L128.097 49.3483ZM128.602 56.0918C128.597 56.0945 128.594 56.0972 128.602 56.0918Z" fill="#663366"/>
</svg>
