<svg width="150" height="150" viewBox="0 0 150 150" fill="none" xmlns="http://www.w3.org/2000/svg">
<path d="M105.112 43.2771C104.24 43.2771 103.368 43.3244 102.52 43.3952C105.96 4.58799 51.2753 -3.1829 43.8065 34.9394C13.036 40.6081 8.44163 82.8874 37.3037 95.0989V124.269H112.698V96.3271C142.314 86.8556 136.33 44.0093 105.112 43.2771ZM107.986 119.545H42.0159V73.8883H107.986V119.545ZM112.698 91.3433V69.1408H37.3037V89.8789C12.9653 77.2423 20.6697 40.8679 48.0946 39.1201C48.5422 25.5151 59.4509 14.5083 73.1162 14.5791C91.423 14.8153 102.332 32.5302 96.3943 49.4419C125.421 39.9231 140.5 79.439 112.698 91.3197V91.3433ZM114.277 127.411H35.7251C27.4552 127.623 27.4317 139.787 35.7251 140H114.253C122.523 139.787 122.547 127.623 114.253 127.411H114.277ZM114.277 135.276H35.7251C33.6989 135.276 33.6517 132.135 35.7251 132.135H114.253C116.28 132.135 116.327 135.276 114.253 135.276H114.277Z" fill="#663366"/>
</svg>
