<svg width="150" height="150" viewBox="0 0 150 150" fill="none" xmlns="http://www.w3.org/2000/svg">
<path d="M137.894 116.169H131.254V47.2853C131.254 44.6362 129.109 42.4786 126.475 42.4786H103.224V41.0742L115.334 36.8675C116.179 36.5739 116.743 35.776 116.743 34.8758C116.743 33.9757 116.179 33.1777 115.334 32.8841L75.6764 19.1149C75.2321 18.9617 74.7497 18.9617 74.3053 19.1149L34.6539 32.8841C33.8097 33.1777 33.2448 33.9757 33.2448 34.8758C33.2448 35.776 33.8097 36.5739 34.6539 36.8675L46.7646 41.0742V42.4786H23.5135C20.8794 42.4786 18.734 44.6362 18.734 47.2853V116.169H12.0947C10.9331 116.169 10 117.114 10 118.275V124.084C10 128.451 13.5292 132 17.8643 132H132.136C136.471 132 140 128.451 140 124.084V118.275C140 117.107 139.061 116.169 137.905 116.169H137.894ZM47.8108 59.2916C57.2811 64.7878 66.1611 67.5263 74.9585 67.6603H74.9902H75.022C80.3537 67.5773 85.7172 66.5432 91.2205 64.5132V67.156L87.8311 72.0968C87.1773 73.0543 87.4122 74.3692 88.3643 75.0332C88.7261 75.2821 89.145 75.4034 89.5512 75.4034C90.2177 75.4034 90.8715 75.0843 91.2777 74.4906L93.3089 71.5223L95.34 74.4906C95.7463 75.0843 96.4 75.4034 97.0665 75.4034C97.4791 75.4034 97.8917 75.2821 98.2535 75.0332C99.2056 74.3757 99.4468 73.0608 98.7866 72.0968L95.3972 67.156V62.7897C97.6188 61.7811 99.8721 60.6193 102.157 59.2916C102.805 58.9149 103.205 58.2191 103.205 57.4659V53.738H120.037V109.128H29.9301V53.738H46.7627V57.4659C46.7627 58.2191 47.1634 58.9149 47.8108 59.2916ZM99.0285 56.2339C97.8098 56.9169 96.6101 57.5425 95.4105 58.1233V43.7797L99.0285 42.5222V56.2339ZM74.9845 23.3266L108.219 34.8679L93.3663 40.0257L75.7651 32.9081C74.6924 32.474 73.4673 32.9974 73.0357 34.0762C72.6041 35.155 73.1246 36.3871 74.1973 36.8212L87.3172 42.1258L74.9844 46.4092L41.7563 34.8615L74.9844 23.3201L74.9845 23.3266ZM74.299 50.6418C74.5211 50.7184 74.7496 50.7567 74.9845 50.7567C75.213 50.7567 75.4478 50.7184 75.67 50.6418L91.2147 45.2413V59.9998C85.648 62.2213 80.2845 63.3575 74.9844 63.4406C67.2534 63.3193 59.3826 60.9574 50.9534 56.2401V42.5284L74.299 50.6418ZM22.9236 47.2776C22.9236 46.9649 23.1966 46.6904 23.5076 46.6904H46.7587V49.5183H29.2209C27.2976 49.5183 25.7362 51.0886 25.7362 53.0228V109.836C25.7362 111.771 27.2977 113.341 29.2209 113.341H120.756C122.679 113.341 124.241 111.77 124.241 109.836V53.0228C124.241 51.0886 122.679 49.5183 120.756 49.5183H103.218V46.6904H126.469C126.78 46.6904 127.053 46.9649 127.053 47.2776V116.161L22.9249 116.168L22.9236 47.2776ZM93.8809 120.381C93.2335 121.281 92.1798 121.868 90.993 121.868H58.9965C57.8096 121.868 56.7559 121.281 56.1086 120.381H93.8809ZM135.793 124.077C135.793 126.113 134.149 127.773 132.124 127.773H17.8591C15.8343 127.773 14.1903 126.113 14.1903 124.077V120.381H51.5198C52.4338 123.668 55.4362 126.087 58.997 126.087H90.9935C94.548 126.087 97.5504 123.668 98.4707 120.381H135.8V124.077H135.793ZM39.8326 100.324H72.8901V99.309C72.8901 98.1408 73.8295 97.2023 74.9848 97.2023C76.1401 97.2023 77.0795 98.1471 77.0795 99.309V100.324H110.144C111.305 100.324 112.238 101.269 112.238 102.431C112.238 103.592 111.299 104.537 110.144 104.537H77.0795V105.546C77.0795 106.714 76.1401 107.652 74.9848 107.652C73.8296 107.652 72.8901 106.708 72.8901 105.546V104.537H39.8326C38.6711 104.537 37.7379 103.592 37.7379 102.431C37.7379 101.269 38.6773 100.324 39.8326 100.324ZM68.2624 89.8486C68.5861 90.0337 68.9479 90.1295 69.3097 90.1295C69.6715 90.1295 70.0333 90.0337 70.357 89.8486L81.7125 83.2609C82.3599 82.8843 82.7598 82.1885 82.7598 81.4352C82.7598 80.682 82.3599 79.9862 81.7125 79.6095L70.357 73.0153C69.7095 72.6387 68.9098 72.6387 68.2623 73.0153C67.6148 73.392 67.215 74.0877 67.215 74.841V88.0293C67.215 88.7825 67.6149 89.4783 68.2623 89.8549L68.2624 89.8486ZM71.4106 78.4924L76.4759 81.4352L71.4106 84.3717V78.4924Z" fill="#663366"/>
</svg>
