<svg width="150" height="150" viewBox="0 0 150 150" fill="none" xmlns="http://www.w3.org/2000/svg">
<path d="M121.714 132.571H28.8571C28.3646 132.571 27.8922 132.376 27.5439 132.027C27.1957 131.679 27 131.207 27 130.714V15.5714C27 14.0938 27.587 12.6767 28.6318 11.6318C29.6767 10.587 31.0938 10 32.5714 10H118C119.478 10 120.895 10.587 121.94 11.6318C122.984 12.6767 123.571 14.0938 123.571 15.5714V130.714C123.571 131.207 123.376 131.679 123.027 132.027C122.679 132.376 122.207 132.571 121.714 132.571ZM30.7143 128.857H119.857V15.5714C119.857 15.0789 119.661 14.6065 119.313 14.2582C118.965 13.9099 118.493 13.7143 118 13.7143H32.5714C32.0789 13.7143 31.6065 13.9099 31.2582 14.2582C30.9099 14.6065 30.7143 15.0789 30.7143 15.5714V128.857Z" fill="#663366"/>
<path d="M114.286 125.142H36.2859C35.7933 125.142 35.3209 124.946 34.9727 124.598C34.6244 124.25 34.4287 123.777 34.4287 123.285V19.2849C34.4287 18.7923 34.6244 18.32 34.9727 17.9717C35.3209 17.6234 35.7933 17.4277 36.2859 17.4277H114.286C114.778 17.4277 115.251 17.6234 115.599 17.9717C115.947 18.32 116.143 18.7923 116.143 19.2849V123.285C116.143 123.777 115.947 124.25 115.599 124.598C115.251 124.946 114.778 125.142 114.286 125.142ZM38.143 121.428H112.429V21.142H38.143V121.428Z" fill="#663366"/>
<path d="M116.143 140H101.286C100.793 140 100.321 139.805 99.9727 139.456C99.6244 139.108 99.4287 138.636 99.4287 138.143V130.715C99.4287 130.222 99.6244 129.75 99.9727 129.401C100.321 129.053 100.793 128.857 101.286 128.857H116.143C116.636 128.857 117.108 129.053 117.456 129.401C117.804 129.75 118 130.222 118 130.715V138.143C118 138.636 117.804 139.108 117.456 139.456C117.108 139.805 116.636 140 116.143 140ZM103.143 136.286H114.286V132.572H103.143V136.286Z" fill="#663366"/>
<path d="M49.2856 140H34.4284C33.9359 140 33.4635 139.805 33.1152 139.456C32.767 139.108 32.5713 138.636 32.5713 138.143V130.715C32.5713 130.222 32.767 129.75 33.1152 129.401C33.4635 129.053 33.9359 128.857 34.4284 128.857H49.2856C49.7781 128.857 50.2505 129.053 50.5988 129.401C50.9471 129.75 51.1427 130.222 51.1427 130.715V138.143C51.1427 138.636 50.9471 139.108 50.5988 139.456C50.2505 139.805 49.7781 140 49.2856 140ZM36.2856 136.286H47.4284V132.572H36.2856V136.286Z" fill="#663366"/>
<path d="M86.429 43.4277H64.1433C63.6507 43.4277 63.1784 43.2321 62.8301 42.8838C62.4818 42.5355 62.2861 42.0631 62.2861 41.5706V19.2849C62.2861 18.7923 62.4818 18.32 62.8301 17.9717C63.1784 17.6234 63.6507 17.4277 64.1433 17.4277H86.429C86.9215 17.4277 87.3939 17.6234 87.7422 17.9717C88.0905 18.32 88.2861 18.7923 88.2861 19.2849V41.5706C88.2861 42.0631 88.0905 42.5355 87.7422 42.8838C87.3939 43.2321 86.9215 43.4277 86.429 43.4277ZM66.0004 39.7134H84.5718V21.142H66.0004V39.7134Z" fill="#663366"/>
<path d="M82.7143 50.8577H67.8571C67.3646 50.8577 66.8922 50.662 66.5439 50.3138C66.1957 49.9655 66 49.4931 66 49.0006V41.572C66 41.0794 66.1957 40.6071 66.5439 40.2588C66.8922 39.9105 67.3646 39.7148 67.8571 39.7148H82.7143C83.2068 39.7148 83.6792 39.9105 84.0275 40.2588C84.3758 40.6071 84.5714 41.0794 84.5714 41.572V49.0006C84.5714 49.4931 84.3758 49.9655 84.0275 50.3138C83.6792 50.662 83.2068 50.8577 82.7143 50.8577ZM69.7143 47.1434H80.8571V43.4291H69.7143V47.1434Z" fill="#663366"/>
<path d="M78.9996 58.2854H71.571C71.0785 58.2854 70.6061 58.0898 70.2578 57.7415C69.9095 57.3932 69.7139 56.9208 69.7139 56.4283V48.9997C69.7139 48.5072 69.9095 48.0348 70.2578 47.6865C70.6061 47.3382 71.0785 47.1426 71.571 47.1426H78.9996C79.4921 47.1426 79.9645 47.3382 80.3128 47.6865C80.6611 48.0348 80.8567 48.5072 80.8567 48.9997V56.4283C80.8567 56.9208 80.6611 57.3932 80.3128 57.7415C79.9645 58.0898 79.4921 58.2854 78.9996 58.2854ZM73.4282 54.5711H77.1424V50.8569H73.4282V54.5711Z" fill="#663366"/>
<path d="M80.8577 115.86C76.0612 115.851 71.4208 114.154 67.7494 111.068C64.078 107.981 61.6097 103.701 60.777 98.9775C59.9443 94.2538 60.8003 89.3878 63.1951 85.2319C65.5898 81.0759 69.3705 77.8951 73.8748 76.2468C74.2407 76.1098 74.6404 76.0917 75.0171 76.1951C75.3939 76.2984 75.7284 76.5179 75.9732 76.8223C76.218 77.1268 76.3605 77.5006 76.3806 77.8908C76.4006 78.2809 76.2971 78.6674 76.0848 78.9953C74.3494 81.6787 73.4271 84.8068 73.4291 88.0025C73.4322 90.6865 74.0816 93.3303 75.3224 95.7103C76.5631 98.0904 78.3589 100.137 80.5576 101.676C82.7564 103.215 85.2935 104.202 87.9544 104.554C90.6154 104.905 93.3218 104.611 95.8448 103.695C96.2107 103.558 96.6105 103.54 96.9873 103.644C97.3641 103.747 97.6986 103.967 97.9434 104.271C98.1881 104.575 98.3306 104.949 98.3506 105.339C98.3706 105.73 98.2671 106.116 98.0548 106.444C96.2079 109.33 93.6648 111.704 90.6596 113.35C87.6545 114.995 84.2838 115.858 80.8577 115.86ZM70.532 82.3196C67.0694 85.0877 64.8482 89.118 64.3572 93.5237C63.8661 97.9295 65.1453 102.35 67.9134 105.812C70.6815 109.275 74.7118 111.496 79.1175 111.987C83.5233 112.478 87.9437 111.199 91.4063 108.431H90.1434C84.7254 108.431 79.5293 106.279 75.6982 102.448C71.8671 98.6166 69.7148 93.4205 69.7148 88.0025C69.7153 86.079 69.9905 84.1654 70.532 82.3196Z" fill="#663366"/>
<path d="M74.5059 80.5706H62.2859C61.7933 80.5706 61.3209 80.3749 60.9727 80.0266C60.6244 79.6784 60.4287 79.206 60.4287 78.7134V69.4277C60.4287 68.9352 60.6244 68.4628 60.9727 68.1145C61.3209 67.7663 61.7933 67.5706 62.2859 67.5706H92.0001V63.8563H75.2859C74.7933 63.8563 74.3209 63.6606 73.9727 63.3124C73.6244 62.9641 73.4287 62.4917 73.4287 61.9992V56.4277H77.143V60.142H93.8573C94.3498 60.142 94.8222 60.3377 95.1705 60.686C95.5188 61.0342 95.7144 61.5066 95.7144 61.9992V69.4277C95.7144 69.9203 95.5188 70.3927 95.1705 70.7409C94.8222 71.0892 94.3498 71.2849 93.8573 71.2849H64.143V76.8563H74.5059V80.5706Z" fill="#663366"/>
</svg>
