<svg width="150" height="150" viewBox="0 0 150 150" fill="none" xmlns="http://www.w3.org/2000/svg">
<path d="M93.1437 16.0361V11.8407C93.1437 10.8239 93.9616 10 94.9711 10C95.9805 10 96.7985 10.8239 96.7985 11.8407V16.0361C96.7985 17.0528 95.9805 17.8768 94.9711 17.8768C93.9617 17.8768 93.1437 17.0529 93.1437 16.0361ZM107.438 21.2425C107.728 21.4119 108.041 21.4879 108.349 21.4879C108.981 21.4879 109.596 21.1548 109.932 20.5647L112.015 16.9301C112.519 16.0478 112.218 14.926 111.348 14.4117C110.472 13.9034 109.358 14.2072 108.847 15.0837L106.765 18.7182C106.26 19.6064 106.562 20.7342 107.438 21.2425ZM118.147 31.3512C118.46 31.3512 118.773 31.2694 119.057 31.1058L122.666 29.0082C123.542 28.4998 123.838 27.372 123.333 26.4897C122.828 25.6074 121.708 25.3094 120.833 25.8178L117.224 27.9154C116.348 28.4238 116.052 29.5516 116.557 30.4338C116.899 31.024 117.514 31.3512 118.147 31.3512ZM80.0094 20.5705C80.3458 21.1607 80.9607 21.4938 81.5931 21.4938C81.9063 21.4938 82.2196 21.412 82.5038 21.2484C83.3798 20.74 83.6757 19.6122 83.171 18.7299L81.0884 15.0954C80.5837 14.2131 79.464 13.9151 78.5881 14.4234C77.7122 14.9318 77.4163 16.0596 77.921 16.9419L80.0094 20.5705ZM67.2816 29.0081L70.89 31.1058C71.18 31.2752 71.4933 31.3512 71.8007 31.3512C72.4331 31.3512 73.048 31.0181 73.3845 30.4279C73.8892 29.5456 73.5875 28.4238 72.7173 27.9095L69.109 25.8118C68.233 25.3035 67.1193 25.6073 66.6087 26.4838C66.104 27.372 66.4057 28.4998 67.2816 29.0081ZM123.861 113.215C123.745 114.226 122.967 115.044 121.975 115.207L119.342 115.634C118.988 116.867 118.501 118.047 117.886 119.175L119.446 121.354C120.038 122.178 120.015 123.306 119.388 124.106C118.356 125.415 117.178 126.607 115.873 127.648C115.084 128.279 113.958 128.302 113.14 127.706L110.977 126.134C109.857 126.753 108.685 127.244 107.461 127.601L107.038 130.254C106.875 131.259 106.063 132.042 105.06 132.153C104.236 132.252 103.406 132.299 102.577 132.299C101.747 132.299 100.917 132.252 100.094 132.153C99.5657 132.088 99.0842 131.843 98.7304 131.475L58.2556 139.959C58.1337 139.988 58.0061 140 57.8843 140C57.4202 140 56.9735 139.825 56.6312 139.497C56.1962 139.083 55.9873 138.481 56.0801 137.891C56.7879 133.064 55.9409 129.909 53.487 128.249C51.242 126.73 48.701 126.724 45.7657 126.724C44.2401 126.724 42.6622 126.718 41.0609 126.485C37.5744 125.971 35.2249 124.802 33.8792 122.909C32.0575 120.344 32.6261 117.27 33.0844 114.798C33.241 113.945 33.3919 113.133 33.4093 112.508C33.4267 111.918 33.3106 111.824 32.8407 111.415C32.2026 110.866 30.7582 109.621 31.7965 107.19C31.3847 106.828 31.0946 106.443 30.8916 106.098C30.1838 104.888 30.0098 103.334 30.3695 101.382C29.3426 101.003 28.4376 100.506 27.6719 99.904C25.9549 98.5601 25.1369 97.3623 25.0149 96.0182C24.8583 94.2711 25.9605 93.0323 27.0222 91.8345C27.4051 91.4079 27.7996 90.9638 28.1592 90.4788C30.2998 87.6214 31.9416 84.4954 33.0438 81.1882C34.4129 77.0804 34.8364 73.5568 35.2425 70.1445C36.0721 63.2319 36.8494 56.6992 45.3945 48.0685C51.2305 42.1727 58.9402 38.3104 67.6888 36.8962C69.8583 36.5456 72.0744 36.3586 74.2962 36.3235C74.6791 33.9103 75.4855 31.4445 76.7211 28.9494C76.7443 28.9026 76.7733 28.85 76.8023 28.8091C80.7181 22.3699 87.5112 18.5251 94.971 18.5251H94.9826C102.437 18.5251 109.23 22.3699 113.145 28.8091C113.174 28.8559 113.198 28.9026 113.227 28.9494C116.261 35.0907 116.719 41.0156 114.59 46.5602C113.749 48.7573 113 50.0311 112.345 51.153C111.596 52.4268 110.982 53.4786 110.355 55.7632C114.671 64.7151 115.037 76.3254 111.341 87.7433C110.546 90.2033 109.612 92.3244 108.516 94.1709C109.363 94.4806 110.187 94.8546 110.982 95.2928L113.145 93.7209C113.963 93.1249 115.083 93.1541 115.878 93.7794C117.177 94.8195 118.361 96.0057 119.393 97.3204C120.02 98.1151 120.043 99.2487 119.451 100.072L117.891 102.246C118.506 103.374 118.993 104.554 119.347 105.787L121.981 106.214C122.973 106.371 123.756 107.19 123.866 108.206C124.046 109.872 124.046 111.555 123.861 113.215ZM78.7689 45.2412C79.4998 47.1519 80.1379 48.2388 80.7528 49.2905C81.7564 50.9967 82.6962 52.6096 83.6012 56.799C84.5816 61.351 85.4981 62.9462 85.939 63.4838H88.7875V51.9083C86.8788 52.0953 84.9238 51.3649 83.6824 49.8457C81.8666 47.6252 82.151 44.394 84.338 42.5007C84.4018 42.4481 84.4656 42.3955 84.5352 42.3487C87.0066 40.7302 90.3363 41.1509 92.2797 43.3246C93.2485 44.4114 93.7358 45.7903 93.6604 47.2162C93.6488 47.3915 93.6314 47.5668 93.6024 47.7421H96.3346C96.3056 47.5668 96.2882 47.3915 96.2766 47.2162C96.1954 45.7963 96.6885 44.4115 97.6573 43.3246C99.6007 41.1509 102.931 40.7301 105.402 42.3487C105.471 42.3955 105.535 42.4422 105.599 42.5007C107.786 44.3997 108.07 47.6252 106.255 49.8457C105.013 51.359 103.058 52.0953 101.15 51.9083V63.4838H103.998C104.439 62.9462 105.355 61.351 106.336 56.799C107.235 52.6094 108.181 50.9967 109.184 49.2905C109.799 48.2446 110.437 47.1577 111.168 45.2412C112.926 40.6602 112.537 35.8921 109.973 30.6741C106.719 25.3742 101.115 22.219 94.9662 22.219H94.9604C88.8112 22.219 83.2072 25.3802 79.9535 30.6741C77.4069 35.8921 77.0111 40.6543 78.7689 45.2412ZM102.147 67.1587H87.8009V69.7706C87.8009 70.127 88.0968 70.4192 88.4448 70.4192H101.497C101.851 70.4192 102.141 70.1212 102.141 69.7706L102.147 67.1587ZM91.943 74.1062C92.5637 75.1405 93.6892 75.8299 94.9712 75.8299C96.2533 75.8299 97.3787 75.1346 97.9995 74.1062H91.943ZM89.7559 47.782C89.9067 47.5424 89.9937 47.2736 90.0111 46.9931C90.0343 46.5549 89.8835 46.1342 89.5644 45.7777C88.8625 44.9948 87.5747 44.8195 86.6348 45.3629C86.0315 45.9589 85.9677 46.8412 86.5014 47.4957C87.1395 48.2728 88.3635 48.4832 89.2917 47.9631C89.4425 47.8813 89.5934 47.8229 89.7559 47.782ZM99.937 46.9931C99.9544 47.2678 100.041 47.5366 100.192 47.782C100.349 47.8229 100.505 47.8813 100.645 47.9631C101.573 48.4832 102.797 48.2786 103.435 47.4956C103.969 46.8412 103.911 45.9648 103.302 45.3628C102.362 44.8194 101.074 44.9947 100.372 45.7777C100.065 46.1341 99.908 46.5549 99.937 46.9931ZM97.5005 51.4164H92.4478V63.4768H97.5005V51.4164ZM59.9439 135.845L97.7441 127.909L97.6919 127.594C96.4678 127.237 95.296 126.747 94.1763 126.127L92.0126 127.699C91.1946 128.295 90.075 128.266 89.2803 127.641C87.9808 126.601 86.7973 125.414 85.7648 124.1C85.1382 123.305 85.115 122.171 85.7009 121.348L87.2615 119.168C86.6466 118.04 86.1593 116.86 85.8054 115.627L83.1717 115.201C82.1797 115.037 81.4024 114.219 81.2864 113.214C81.095 111.554 81.095 109.871 81.2864 108.212C81.4024 107.201 82.1798 106.383 83.1775 106.219L85.8054 105.793C86.1593 104.56 86.6466 103.38 87.2615 102.252L85.7009 100.072C85.1034 99.2369 85.1266 98.1324 85.759 97.3203C86.7916 96.0115 87.9692 94.8194 89.2745 93.7793C90.0634 93.1483 91.1889 93.1249 92.0068 93.7151L94.1705 95.2869C95.2902 94.6675 96.462 94.1767 97.6861 93.8203L98.1095 91.1675C98.272 90.1625 99.0841 89.3795 100.088 89.2685C101.735 89.0757 103.406 89.0757 105.054 89.2685C105.639 89.3386 106.156 89.6308 106.515 90.0573C106.997 88.9997 107.444 87.8544 107.85 86.5923C110.657 77.9151 110.947 69.1789 108.772 61.8402C107.925 64.3762 106.962 65.948 105.79 66.7484V69.7577C105.79 71.9956 104.096 73.848 101.927 74.07C101.126 77.1902 98.301 79.5041 94.9595 79.5041C91.6123 79.5041 88.793 77.196 87.9923 74.07C85.8228 73.8479 84.1287 71.9956 84.1287 69.7577V66.7484C82.3999 65.5681 81.1238 62.7166 80.0157 57.5571C79.2384 53.9518 78.5133 52.713 77.5909 51.1412C76.9296 50.0193 76.187 48.7454 75.3459 46.5484C74.5279 44.4156 74.0986 42.2303 74.0406 39.9982C72.0972 40.0391 70.1596 40.2144 68.2569 40.5182C60.2745 41.8096 53.2604 45.3096 47.9705 50.6503C40.3188 58.381 39.6749 63.7567 38.8569 70.5633C38.445 73.9933 37.9809 77.8731 36.4959 82.3374C35.2661 86.0186 33.4387 89.4954 31.0661 92.6741C30.6078 93.2877 30.1437 93.8077 29.7318 94.2752C29.3315 94.7251 28.7282 95.4029 28.647 95.6775C28.6818 95.771 28.8906 96.1859 29.9 96.9747C30.66 97.5707 31.6868 98.0148 32.9457 98.2953C33.4446 98.4063 33.8739 98.7219 34.1349 99.1659C34.3902 99.61 34.454 100.142 34.3032 100.633C33.5722 103.028 33.8681 103.928 34.0305 104.203C34.0827 104.29 34.2219 104.53 34.8369 104.659C35.4982 104.799 36.0319 105.295 36.2233 105.95C36.4148 106.604 36.2291 107.311 35.7418 107.785C35.5272 107.995 35.3648 108.194 35.2661 108.381C35.2313 108.451 35.1965 108.509 35.1733 108.562C35.1849 108.574 35.1965 108.579 35.2081 108.591C35.8753 109.17 37.1284 110.239 37.0587 112.594C37.0297 113.505 36.8557 114.452 36.67 115.457C36.3046 117.426 35.9275 119.46 36.8441 120.751C37.5692 121.774 39.1587 122.469 41.5778 122.825C42.9179 123.024 44.2985 123.024 45.7604 123.024C48.9975 123.03 52.3505 123.03 55.518 125.174C58.6854 127.325 60.1643 130.901 59.9439 135.845ZM120.316 109.685L117.572 109.235C116.824 109.112 116.232 108.545 116.075 107.797C115.721 106.144 115.083 104.578 114.167 103.152C113.755 102.515 113.778 101.685 114.219 101.072L115.849 98.799C115.397 98.2906 114.915 97.7998 114.405 97.344L112.148 98.986C111.533 99.4301 110.715 99.4535 110.083 99.0386C108.667 98.1154 107.118 97.4667 105.477 97.1161C104.74 96.9583 104.171 96.3565 104.05 95.6086L103.603 92.8447C102.924 92.8038 102.24 92.8038 101.561 92.8447L101.114 95.6086C100.992 96.3624 100.43 96.9584 99.6871 97.1161C98.0453 97.4667 96.4907 98.1153 95.0809 99.0386C94.4486 99.4535 93.6248 99.4301 93.0158 98.986L90.7592 97.344C90.2545 97.7998 89.7672 98.2848 89.3147 98.799L90.9448 101.072C91.3857 101.691 91.4089 102.515 90.9971 103.152C90.0805 104.578 89.4365 106.138 89.0884 107.792C88.9318 108.534 88.3343 109.106 87.5917 109.229L84.8477 109.679C84.8071 110.363 84.8071 111.052 84.8477 111.736L87.5917 112.186C88.3401 112.308 88.9318 112.875 89.0884 113.623C89.4365 115.277 90.0804 116.843 90.9971 118.269C91.4089 118.906 91.3857 119.735 90.9448 120.349L89.3147 122.622C89.7672 123.13 90.2487 123.621 90.7592 124.077L93.0158 122.435C93.6307 121.991 94.4486 121.967 95.0809 122.382C96.4964 123.305 98.0453 123.954 99.6929 124.305C100.43 124.462 100.998 125.064 101.12 125.812L101.567 128.576C102.245 128.617 102.93 128.617 103.609 128.576L104.055 125.812C104.177 125.058 104.74 124.462 105.482 124.305C107.124 123.948 108.679 123.305 110.094 122.382C110.727 121.967 111.551 121.991 112.16 122.435L114.416 124.077C114.921 123.621 115.408 123.136 115.861 122.622L114.231 120.349C113.79 119.729 113.766 118.905 114.178 118.269C115.095 116.843 115.739 115.283 116.087 113.623C116.244 112.881 116.841 112.308 117.584 112.186L120.328 111.736C120.351 111.058 120.351 110.369 120.316 109.685ZM114.556 110.713C114.556 117.363 109.184 122.774 102.582 122.774C95.9802 122.774 90.6083 117.363 90.6083 110.713C90.6083 104.064 95.9802 98.6528 102.582 98.6528C109.184 98.647 114.556 104.064 114.556 110.713ZM110.895 110.713C110.895 106.091 107.165 102.334 102.576 102.334C97.9873 102.334 94.2572 106.091 94.2572 110.713C94.2572 115.335 97.9873 119.093 102.576 119.093C107.165 119.093 110.895 115.33 110.895 110.713Z" fill="#663366"/>
</svg>
