<svg width="150" height="150" viewBox="0 0 150 150" fill="none" xmlns="http://www.w3.org/2000/svg">
<path fill-rule="evenodd" clip-rule="evenodd" d="M74.4965 80.9364C73.61 80.9364 72.8921 80.2214 72.8921 79.3385C72.8921 78.4556 73.61 77.7407 74.4965 77.7407C78.5101 77.7407 82.1485 79.3603 84.7808 81.9819C87.413 84.6036 89.0392 88.2274 89.0392 92.2248C89.0392 93.1078 88.3213 93.8227 87.4348 93.8227C86.5484 93.8227 85.8305 93.1077 85.8305 92.2248C85.8305 89.1103 84.5633 86.2882 82.513 84.2461C80.4572 82.1985 77.6236 80.9364 74.4965 80.9364ZM19.5184 10H129.476C130.439 10 131.314 10.3954 131.956 11.0292L131.972 11.0454C132.608 11.6846 133 12.5566 133 13.5099V16.5975C133 17.5617 132.603 18.4337 131.967 19.073C131.929 19.1109 131.885 19.1488 131.842 19.1813C131.216 19.7501 130.384 20.1021 129.481 20.1021L88.1043 20.0913V42.321C88.1043 42.6243 88.0173 42.9114 87.8705 43.1552L83.7427 55.451C83.5197 56.1173 82.8942 56.5398 82.2254 56.5398V56.5452H79.7835L78.4184 67.7577C78.3205 68.5702 77.6298 69.1714 76.8249 69.166H72.175C71.332 69.166 70.6359 68.5159 70.5761 67.6926L69.2165 56.5451H66.7746C66.0186 56.5451 65.3878 56.0305 65.2137 55.3263L61.1293 43.1551C60.9825 42.9113 60.8955 42.6297 60.8955 42.3209L60.89 20.0913H19.5187C18.5561 20.0913 17.675 19.6958 17.0388 19.0621H17.0333C16.397 18.4283 16 17.5509 16 16.5921V13.5046C16 12.5458 16.397 11.6738 17.0333 11.0347L17.0442 11.0238C17.6805 10.3901 18.5558 10 19.5184 10ZM84.8953 20.0912H64.0976V40.7234H84.8953V20.0912ZM129.476 13.1957H19.5184C19.4314 13.1957 19.3553 13.2282 19.3063 13.2824L19.2954 13.2878C19.2411 13.342 19.2084 13.4178 19.2084 13.5045V16.592C19.2084 16.6733 19.2411 16.7491 19.3009 16.8033V16.8087L19.3063 16.8141C19.3607 16.8683 19.4368 16.9008 19.5184 16.9008H129.476C129.547 16.9008 129.612 16.8791 129.661 16.8466C129.672 16.8358 129.683 16.8249 129.693 16.8141C129.748 16.7599 129.786 16.6787 129.786 16.6029L129.78 13.5045C129.78 13.4178 129.748 13.342 129.693 13.2932L129.688 13.2878C129.639 13.2282 129.563 13.1957 129.476 13.1957ZM84.2382 43.9187H64.7575L67.9227 53.3492H81.0786L84.2382 43.9187ZM76.5535 56.545H72.4475L73.595 65.9755H75.4061L76.5535 56.545ZM93.8706 89.6351C93.2941 85.2964 91.2764 81.4072 88.3178 78.4605C84.7827 74.9396 79.8935 72.7567 74.4984 72.7567C69.1034 72.7567 64.2141 74.9342 60.679 78.4605C57.7204 81.4072 55.7027 85.2964 55.1262 89.6351L16.9209 108.659C16.6217 108.81 16.3607 109.049 16.1975 109.374C15.806 110.159 16.1214 111.118 16.91 111.508L73.7759 139.827C74.211 140.049 74.744 140.065 75.2172 139.832L132.078 111.513C132.377 111.367 132.638 111.123 132.801 110.798C133.193 110.013 132.877 109.054 132.088 108.664L93.8706 89.6351ZM54.9845 93.2643L21.2052 110.089L74.4972 136.625L127.789 110.089L94.0098 93.2643C93.7434 98.2259 91.6224 102.689 88.3157 105.983C84.7806 109.509 79.8914 111.686 74.4963 111.686C69.1013 111.686 64.212 109.509 60.6769 105.983C57.3703 102.695 55.2438 98.2259 54.9828 93.2643H54.9845ZM86.0447 80.7192C83.0915 77.778 79.0071 75.9526 74.4985 75.9526C69.9899 75.9526 65.9056 77.7726 62.9524 80.7192C59.9993 83.6605 58.1665 87.7284 58.1665 92.2189C58.1665 96.7093 59.9939 100.777 62.9524 103.724C65.9056 106.665 69.9899 108.485 74.4985 108.485C79.0071 108.485 83.0915 106.665 86.0447 103.724C88.9978 100.783 90.8306 96.7147 90.8306 92.2189C90.8306 87.7284 89.0032 83.6605 86.0447 80.7192Z" fill="#663366"/>
</svg>
