<svg width="150" height="150" viewBox="0 0 150 150" fill="none" xmlns="http://www.w3.org/2000/svg">
<path d="M125.154 53.371C125.61 53.3762 126.045 53.1977 126.375 52.8879L129.546 49.8849H129.541C132.475 51.691 136.291 51.0399 138.466 48.3624C140.636 45.6848 140.489 41.805 138.12 39.3007C135.751 36.7964 131.894 36.4394 129.105 38.466C126.317 40.4925 125.463 44.2778 127.109 47.307L124.451 49.8271H111.155V44.451C111.155 43.947 110.94 43.4692 110.573 43.1332C110.201 42.7972 109.703 42.6345 109.205 42.687C101.841 43.422 93.1154 38.3399 83.2673 27.5775L83.2725 27.5723C82.9371 27.21 82.4654 27 81.9675 27H68.0473C67.5494 27 67.0777 27.21 66.7423 27.5723C56.8997 38.3349 48.1731 43.4223 40.8098 42.6871C40.3119 42.6346 39.814 42.7974 39.442 43.1334C39.0751 43.4694 38.8602 43.9471 38.8602 44.4511V49.8272H25.5637L22.9064 47.3072C24.5521 44.2726 23.6978 40.4821 20.9043 38.4504C18.1161 36.4238 14.2535 36.7808 11.8792 39.2904C9.5103 41.7999 9.36352 45.6849 11.5385 48.3625C13.7136 51.0453 17.5396 51.6963 20.4746 49.885L23.6454 52.8881H23.6402C23.9703 53.1978 24.4054 53.3763 24.8613 53.3711H38.8607V56.3637H28.41C27.4509 56.3899 26.6856 57.1775 26.6856 58.1382C26.6856 59.0989 27.4508 59.8865 28.41 59.9127H38.8659L38.8607 67.2839H34.4792L32.1207 63.0733C31.8063 62.5116 31.2141 62.1703 30.5747 62.1703H25.6481C25.1712 62.1545 24.71 62.3383 24.364 62.669C24.0234 63.005 23.8295 63.4618 23.8295 63.9396C23.8295 64.4226 24.0234 64.8793 24.364 65.2153C24.71 65.5461 25.1712 65.7298 25.6481 65.7141H29.5421L31.9006 69.9246C32.215 70.4811 32.802 70.8276 33.4414 70.8329H38.8607V75.0644H27.1155C26.2245 71.7306 23.0066 69.5729 19.5946 70.0191C16.1774 70.4706 13.6251 73.3844 13.6251 76.8337C13.6251 80.2882 16.1774 83.202 19.5946 83.6535C23.0066 84.0998 26.2245 81.942 27.1155 78.6082H38.8659V83.538V84.1733H32.1783C31.2192 84.1996 30.4593 84.9871 30.4593 85.9478C30.4593 86.9086 31.2193 87.6909 32.1783 87.7223H39.0912C39.2903 89.6544 39.6834 91.5654 40.2547 93.4239H33.9445C33.3051 93.4239 32.7181 93.7704 32.4037 94.327L30.0453 98.5375H26.146C25.1921 98.569 24.427 99.3513 24.427 100.312C24.427 101.273 25.1922 102.06 26.146 102.087H31.0778C31.7172 102.087 32.3042 101.74 32.6134 101.178L34.9823 96.9677H41.6542H41.649C43.6197 100.911 46.5703 104.281 50.2128 106.754H37.4771C37.0263 106.754 36.5913 106.927 36.2612 107.237L33.0903 110.24V110.245C30.1606 108.444 26.3556 109.095 24.1911 111.773C22.0265 114.445 22.1733 118.314 24.5422 120.808C26.9059 123.307 30.7528 123.664 33.5358 121.643C36.3135 119.617 37.1678 115.842 35.5274 112.818L38.1847 110.298H56.2453C58.284 111.316 60.3334 112.209 62.2935 113.064C67.0104 115.128 71.4652 117.07 73.5932 119.926C73.9233 120.373 74.4527 120.635 75.0083 120.635C75.5638 120.635 76.0931 120.373 76.4234 119.926C78.5512 117.076 83.006 115.133 87.7231 113.064C89.6779 112.209 91.7325 111.311 93.7712 110.298H111.832L114.489 112.818C112.838 115.857 113.692 119.648 116.486 121.685C119.279 123.717 123.142 123.36 125.522 120.85C127.896 118.341 128.048 114.456 125.873 111.768C123.692 109.085 119.866 108.429 116.926 110.245L113.755 107.242V107.237C113.43 106.927 112.99 106.754 112.539 106.754H99.8037C103.446 104.281 106.397 100.911 108.368 96.9678H115.034L117.393 101.178H117.398C117.707 101.735 118.294 102.081 118.933 102.081H123.871C124.824 102.055 125.59 101.273 125.59 100.312C125.59 99.3514 124.824 98.5638 123.871 98.5376H119.977L117.618 94.3271V94.3218C117.304 93.7653 116.717 93.4241 116.077 93.4188H109.767C110.338 91.5655 110.726 89.6545 110.925 87.7277H117.833C118.792 87.7014 119.552 86.9139 119.552 85.9532C119.552 84.9924 118.792 84.2049 117.833 84.1787H111.145V83.5434V78.6135H122.896C123.787 81.9474 127.005 84.1051 130.417 83.6589C133.834 83.2074 136.386 80.2936 136.386 76.839C136.386 73.3897 133.834 70.4759 130.417 70.0245C127.005 69.5782 123.787 71.7359 122.896 75.0698H111.156V70.833H116.575H116.57C117.209 70.833 117.796 70.4865 118.111 69.93L120.469 65.7194H124.363V65.7142C124.84 65.7299 125.301 65.5515 125.647 65.2154C125.988 64.8794 126.182 64.4227 126.182 63.9449C126.182 63.4619 125.988 63.0052 125.647 62.6692C125.301 62.3384 124.84 62.1547 124.363 62.1704H119.442C118.802 62.1704 118.215 62.5169 117.901 63.0734L115.537 67.284H111.156V59.9128H121.612H121.607C122.089 59.9233 122.55 59.7448 122.891 59.4088C123.236 59.0728 123.43 58.6161 123.43 58.1383C123.43 57.6605 123.236 57.1985 122.891 56.8678C122.55 56.5318 122.089 56.3533 121.607 56.3638H111.156V53.3712L125.154 53.371ZM133.136 40.7025C134.478 40.7025 135.688 41.5163 136.202 42.7605C136.715 43.9995 136.432 45.4328 135.484 46.383C134.535 47.3332 133.104 47.6168 131.862 47.1023C130.625 46.5878 129.813 45.3749 129.813 44.0309C129.818 42.1934 131.301 40.7077 133.136 40.7025ZM16.8798 47.3596C15.5381 47.3543 14.3275 46.5458 13.8137 45.3016C13.3001 44.0626 13.5831 42.6293 14.5318 41.6791C15.4856 40.7288 16.9112 40.4453 18.1533 40.9598C19.3954 41.4743 20.2025 42.6871 20.2025 44.0311C20.1972 45.8687 18.7142 47.3543 16.8798 47.3596ZM20.4856 80.1671C19.1439 80.1671 17.9281 79.3533 17.4143 78.1144C16.9007 76.8701 17.1837 75.4368 18.1324 74.4866C19.0862 73.5311 20.5118 73.2476 21.7539 73.7621C22.996 74.2766 23.8083 75.4894 23.8083 76.8387C23.8031 78.6762 22.32 80.1618 20.4856 80.1671ZM29.5002 119.427C28.1532 119.427 26.9426 118.613 26.4289 117.375C25.9152 116.13 26.1983 114.697 27.1521 113.747C28.1007 112.796 29.5263 112.513 30.7684 113.027C32.0105 113.542 32.8176 114.755 32.8176 116.099C32.8176 117.936 31.3293 119.422 29.5002 119.427ZM120.516 112.77C121.863 112.77 123.074 113.584 123.587 114.823C124.101 116.067 123.818 117.5 122.864 118.451C121.916 119.401 120.49 119.684 119.248 119.17C118.006 118.655 117.199 117.443 117.199 116.099C117.199 114.261 118.687 112.775 120.516 112.77ZM129.531 73.51C130.872 73.51 132.088 74.3185 132.602 75.5627C133.116 76.807 132.833 78.2403 131.879 79.1905C130.93 80.1408 129.499 80.4295 128.262 79.9098C127.02 79.3953 126.208 78.1825 126.208 76.8384C126.213 75.0009 127.696 73.51 129.531 73.51ZM86.3078 109.82C81.9577 111.721 77.8121 113.532 75.0081 116.209C72.2042 113.532 68.0584 111.721 63.7084 109.82C53.7242 105.457 42.4035 100.517 42.4035 83.5378V46.299C47.4662 46.0365 52.3457 44.3249 56.4699 41.3691C61.0086 38.2716 65.1543 34.6385 68.8229 30.5435H81.1918C84.8606 34.6385 89.0062 38.2716 93.5449 41.3691C97.6696 44.3249 102.549 46.0365 107.611 46.299V83.5378C107.611 100.517 96.2973 105.461 86.3078 109.82ZM100.422 51.0985C93.8345 49.5339 87.0684 45.1082 79.7361 37.5696H79.7413C79.4059 37.2283 78.95 37.0341 78.473 37.0341H71.5549C71.0727 37.0341 70.6168 37.2283 70.2813 37.5696C62.9492 45.1087 56.1827 49.5345 49.595 51.0985H49.6002C48.7983 51.2875 48.2376 52.0015 48.2376 52.8258V82.7934C48.2376 91.309 51.3507 96.4903 58.9764 100.685C61.0728 101.835 63.3947 102.853 65.6483 103.83V103.835C68.5519 105.016 71.3663 106.413 74.0706 108.004C74.6471 108.366 75.3756 108.366 75.9521 108.004C78.6512 106.413 81.4657 105.016 84.3743 103.835C86.6228 102.853 88.9498 101.84 91.041 100.69C98.6667 96.4902 101.78 91.3083 101.78 82.7987V52.8257C101.78 52.0014 101.219 51.2876 100.422 51.0985ZM98.2422 82.7932C98.2422 90.0016 95.8261 94.0074 89.3377 97.5774C87.3829 98.6536 85.234 99.5882 82.9594 100.586H82.9647C80.2394 101.709 77.5821 102.996 75.0087 104.434C72.4354 102.996 69.7782 101.709 67.0581 100.586C64.7835 99.5934 62.6346 98.6537 60.6797 97.5774C54.1914 94.0074 51.7753 90.0016 51.7753 82.7932V54.1911C58.4313 52.2643 65.1609 47.7965 72.2939 40.5775H77.7237C84.8515 47.7964 91.5862 52.2642 98.2424 54.1911L98.2422 82.7932ZM65.4335 61.3413V65.1844H63.9555C61.9063 65.1896 60.2449 66.8539 60.2397 68.9066V85.2875C60.2449 87.3455 61.9063 89.0098 63.9555 89.0098H86.0628C88.112 89.0098 89.7734 87.3455 89.7786 85.2875V68.9066C89.7734 66.8539 88.112 65.1896 86.0628 65.1844H84.5847V61.3413C84.5847 56.0439 80.2976 51.7494 75.0094 51.7494C69.7212 51.7494 65.4335 56.0439 65.4335 61.3413ZM86.2407 68.9014V85.2823H86.2354C86.2354 85.3768 86.1568 85.4556 86.0625 85.4556H63.9552C63.8609 85.4556 63.7823 85.3768 63.7823 85.2823V68.9068C63.7823 68.807 63.8609 68.7335 63.9552 68.7283H86.0625C86.1568 68.7335 86.2354 68.807 86.2354 68.9068L86.2407 68.9014ZM81.052 61.3413L81.0468 65.1844H68.9715V61.3413C68.9715 58.0022 71.6758 55.2932 75.0091 55.2932C78.3425 55.2932 81.0468 58.0022 81.0468 61.3413H81.052ZM73.2377 78.745V81.5275C73.2272 82.0053 73.4054 82.4673 73.7408 82.8138C74.0763 83.155 74.5322 83.3493 75.0092 83.3493C75.4861 83.3493 75.9473 83.155 76.2775 82.8138C76.6129 82.4673 76.7911 82.0053 76.7806 81.5275V78.745C78.5259 77.9155 79.464 75.9887 79.0395 74.1039C78.615 72.214 76.9379 70.8752 75.0092 70.8752C73.0805 70.8752 71.4086 72.214 70.9841 74.1039C70.5595 75.9887 71.4976 77.9155 73.2377 78.745ZM75.0091 74.4242C75.245 74.4242 75.4599 74.5712 75.5542 74.7865C75.6433 75.007 75.5961 75.2642 75.4284 75.4322C75.2607 75.6002 75.0039 75.6527 74.7838 75.5582C74.5637 75.469 74.4221 75.2537 74.4221 75.0175C74.4274 74.692 74.6842 74.4295 75.0091 74.4242Z" fill="#663366"/>
</svg>
