<svg width="150" height="150" viewBox="0 0 150 150" fill="none" xmlns="http://www.w3.org/2000/svg">
<path d="M109.48 78.0834H82.9405C79.8351 78.0834 78.5479 76.389 78.3735 74.8023C78.1552 72.7738 79.7232 70.2341 83.0483 69.2531C83.2812 68.5157 83.823 67.7769 84.6083 67.1447C85.8689 66.1108 87.477 65.598 89.1034 65.7111C90.4864 63.8715 93.1845 62.7148 96.21 62.7148C99.2356 62.7148 101.94 63.8729 103.321 65.7151C104.869 65.582 106.502 66.0918 107.808 67.142C108.596 67.7743 109.139 68.5143 109.372 69.2531C112.699 70.2341 114.265 72.7738 114.045 74.8023C113.875 76.3836 112.582 78.0834 109.48 78.0834ZM88.6229 67.6864C87.6157 67.7103 86.6446 68.0664 85.8609 68.6993C85.21 69.2225 84.9145 69.7722 84.9145 70.061C84.9145 70.2889 84.8367 70.5099 84.6938 70.6874C84.551 70.8648 84.3517 70.9881 84.1291 71.0367C81.5894 71.5904 80.2184 73.2782 80.3595 74.588C80.4607 75.5264 81.4244 76.0868 82.9405 76.0868H109.48C110.994 76.0868 111.959 75.5264 112.061 74.588C112.202 73.2782 110.831 71.5904 108.291 71.0367C108.068 70.9881 107.869 70.8648 107.726 70.6874C107.583 70.5099 107.505 70.2889 107.506 70.061C107.506 69.7722 107.209 69.2211 106.558 68.698C105.759 68.0524 104.412 67.4708 103.049 67.7663C102.839 67.8129 102.619 67.7903 102.423 67.7018C102.227 67.6133 102.064 67.4636 101.96 67.2751C101.112 65.739 98.8016 64.7075 96.21 64.7075C93.6184 64.7075 91.313 65.7377 90.4611 67.2724C90.3566 67.4598 90.1946 67.6087 89.9989 67.6969C89.8033 67.7851 89.5846 67.808 89.3749 67.7623C89.1276 67.7104 88.8755 67.6849 88.6229 67.6864Z" fill="#663366"/>
<path d="M97.5408 51.5546C97.3259 51.5544 97.1169 51.4848 96.9447 51.3563C96.7725 51.2278 96.6464 51.0471 96.5851 50.8412C95.6946 47.8489 96.042 44.7502 97.5621 42.116C99.0822 39.4818 101.594 37.6316 104.63 36.9062C104.879 36.8469 105.14 36.8851 105.361 37.0128C105.582 37.1406 105.746 37.3482 105.819 37.593C106.709 40.5852 106.362 43.6826 104.842 46.3182C103.322 48.9537 100.81 50.8026 97.7737 51.5267C97.6974 51.5451 97.6193 51.5544 97.5408 51.5546ZM104.14 39.1277C102.095 39.8259 100.372 41.242 99.2918 43.1135C98.2112 44.985 97.8459 47.1848 98.2636 49.3051C100.309 48.6074 102.032 47.1914 103.113 45.3198C104.193 43.4482 104.559 41.2481 104.14 39.1277Z" fill="#663366"/>
<path d="M97.5406 51.5527C97.3658 51.5534 97.1939 51.5074 97.0428 51.4195C96.9292 51.3542 96.8295 51.267 96.7496 51.1631C96.6697 51.0592 96.6111 50.9406 96.5771 50.814C96.5431 50.6874 96.5344 50.5553 96.5515 50.4253C96.5686 50.2953 96.6112 50.17 96.6767 50.0565L101.644 41.4538C101.71 41.3402 101.797 41.2406 101.901 41.1607C102.005 41.0808 102.124 41.0222 102.251 40.9882C102.377 40.9542 102.51 40.9455 102.64 40.9626C102.77 40.9797 102.895 41.0222 103.009 41.0878C103.122 41.1533 103.222 41.2406 103.302 41.3446C103.382 41.4487 103.44 41.5674 103.474 41.6941C103.508 41.8208 103.517 41.953 103.5 42.083C103.483 42.2131 103.44 42.3385 103.375 42.4521L98.4071 51.0548C98.3191 51.2065 98.1927 51.3324 98.0406 51.4198C97.8885 51.5072 97.716 51.553 97.5406 51.5527Z" fill="#663366"/>
<path d="M97.553 64.3541C97.4218 64.3543 97.292 64.3286 97.1708 64.2785C97.0496 64.2283 96.9394 64.1548 96.8467 64.0621C96.754 63.9693 96.6804 63.8592 96.6303 63.738C96.5802 63.6168 96.5545 63.4869 96.5547 63.3558V50.5589C96.5547 50.2941 96.6599 50.0402 96.8471 49.8529C97.0343 49.6657 97.2882 49.5605 97.553 49.5605C97.8178 49.5605 98.0717 49.6657 98.2589 49.8529C98.4461 50.0402 98.5513 50.2941 98.5513 50.5589V63.3584C98.5506 63.6228 98.4451 63.876 98.258 64.0626C98.0708 64.2493 97.8173 64.3541 97.553 64.3541Z" fill="#663366"/>
<path d="M97.5419 51.5546C97.4639 51.5544 97.3862 51.545 97.3103 51.5267C94.2728 50.8026 91.7637 48.9524 90.2423 46.3182C88.7209 43.684 88.3788 40.5852 89.2653 37.593C89.338 37.3482 89.5017 37.1406 89.7228 37.0128C89.9439 36.8851 90.2056 36.8469 90.4539 36.9062C94.3394 37.8379 97.3463 40.6172 98.4963 44.3535C98.5742 44.6066 98.5483 44.8803 98.4243 45.1143C98.3004 45.3483 98.0886 45.5236 97.8355 45.6014C97.5823 45.6792 97.3087 45.6533 97.0746 45.5294C96.8406 45.4055 96.6654 45.1936 96.5876 44.9405C96.1726 43.5948 95.4448 42.3666 94.4639 41.3562C93.4829 40.3459 92.2766 39.5822 90.9438 39.1277C90.5272 41.2481 90.8922 43.4477 91.9714 45.3199C93.2159 47.4749 95.2764 48.9896 97.7736 49.5793C98.0121 49.6355 98.2216 49.7775 98.3622 49.9781C98.5028 50.1788 98.5647 50.4242 98.536 50.6676C98.5074 50.9109 98.3903 51.1352 98.207 51.2978C98.0237 51.4604 97.787 51.5499 97.5419 51.5493V51.5546Z" fill="#663366"/>
<path d="M97.5433 51.554C97.3679 51.554 97.1957 51.5078 97.0438 51.4202C96.892 51.3326 96.7658 51.2066 96.6781 51.0548L91.7118 42.4521C91.5794 42.2227 91.5436 41.95 91.6122 41.6941C91.6809 41.4383 91.8484 41.2201 92.0778 41.0878C92.3073 40.9554 92.58 40.9196 92.8358 40.9882C93.0917 41.0569 93.3098 41.2243 93.4422 41.4538L98.4085 50.0565C98.5407 50.2857 98.5765 50.5579 98.5082 50.8135C98.4398 51.0691 98.2727 51.2871 98.0437 51.4195C97.8919 51.5083 97.7191 51.5547 97.5433 51.554Z" fill="#663366"/>
<path d="M90.162 60.4875C88.2455 60.4899 86.3626 59.9847 84.7046 59.0233C82.0704 57.5019 80.2202 54.9928 79.4961 51.9553C79.4368 51.7071 79.4748 51.4456 79.6023 51.2245C79.7298 51.0035 79.9371 50.8396 80.1816 50.7667C83.1739 49.8762 86.2726 50.2236 88.9068 51.745C91.541 53.2664 93.3912 55.7755 94.1167 58.8117C94.1759 59.06 94.1378 59.3217 94.01 59.5428C93.8822 59.7639 93.6746 59.9276 93.4298 60.0003C92.3698 60.3196 91.2691 60.4837 90.162 60.4875ZM81.7243 52.4478C82.422 54.4933 83.8381 56.2163 85.7097 57.297C87.5813 58.3777 89.7814 58.7428 91.9018 58.3245C91.2031 56.2796 89.7869 54.5574 87.9155 53.4768C86.0442 52.3963 83.8446 52.0307 81.7243 52.4478Z" fill="#663366"/>
<path d="M93.1498 60.0489C92.9746 60.0491 92.8024 60.0032 92.6506 59.9158L84.0505 54.9549C83.9369 54.8893 83.8373 54.802 83.7574 54.698C83.6775 54.594 83.6189 54.4752 83.5849 54.3485C83.5509 54.2218 83.5422 54.0897 83.5593 53.9596C83.5764 53.8296 83.6189 53.7041 83.6844 53.5905C83.75 53.4769 83.8373 53.3773 83.9413 53.2974C84.0454 53.2175 84.1641 53.1589 84.2908 53.1249C84.4175 53.0909 84.5497 53.0822 84.6797 53.0993C84.8098 53.1164 84.9352 53.1589 85.0488 53.2245L93.6502 58.1907C93.8409 58.3005 93.9899 58.4701 94.0743 58.6732C94.1586 58.8764 94.1734 59.1017 94.1165 59.3142C94.0596 59.5267 93.9341 59.7144 93.7595 59.8482C93.5849 59.982 93.3711 60.0545 93.1511 60.0542L93.1498 60.0489Z" fill="#663366"/>
<path d="M97.2045 62.3904C97.0298 62.3905 96.8581 62.3446 96.7067 62.2573L92.6442 59.9119C92.5306 59.8464 92.431 59.7591 92.3511 59.655C92.2713 59.551 92.2126 59.4322 92.1787 59.3055C92.1447 59.1788 92.136 59.0467 92.153 58.9167C92.1701 58.7866 92.2126 58.6612 92.2782 58.5476C92.3437 58.4339 92.431 58.3343 92.5351 58.2545C92.6391 58.1746 92.7579 58.116 92.8846 58.082C93.0113 58.048 93.1434 58.0393 93.2735 58.0564C93.4035 58.0734 93.5289 58.116 93.6426 58.1815L97.705 60.5269C97.8957 60.6367 98.0449 60.8064 98.1292 61.0097C98.2134 61.213 98.2282 61.4385 98.1711 61.651C98.114 61.8636 97.9883 62.0513 97.8135 62.185C97.6387 62.3187 97.4246 62.3909 97.2045 62.3904Z" fill="#663366"/>
<path d="M99.3718 29.509C99.2842 29.5086 99.1969 29.497 99.1123 29.4744C96.1525 28.6824 93.0366 28.6824 90.0769 29.4744C89.8211 29.5429 89.5486 29.507 89.3193 29.3745C89.0901 29.2421 88.9228 29.024 88.8543 28.7683C88.7858 28.5125 88.8217 28.24 88.9542 28.0107C89.0866 27.7814 89.3047 27.6142 89.5604 27.5457C92.8585 26.6632 96.3306 26.6632 99.6287 27.5457C99.8632 27.6078 100.067 27.7531 100.202 27.9546C100.337 28.156 100.394 28.3997 100.363 28.6402C100.332 28.8807 100.214 29.1016 100.031 29.2614C99.8488 29.4213 99.6144 29.5093 99.3718 29.509Z" fill="#663366"/>
<path d="M100.983 31.5996C100.602 31.6033 100.225 31.5252 99.8769 31.3707C99.5288 31.2162 99.2179 30.9887 98.9653 30.7038C98.7126 30.4189 98.524 30.083 98.4122 29.719C98.3004 29.3549 98.268 28.9711 98.3173 28.5934C98.3665 28.2158 98.4962 27.8531 98.6975 27.5299C98.8989 27.2066 99.1673 26.9304 99.4846 26.7197C99.8019 26.5091 100.161 26.3689 100.537 26.3088C100.913 26.2487 101.297 26.2699 101.665 26.3711C102.284 26.5418 102.82 26.9305 103.175 27.4656C103.53 28.0007 103.68 28.6462 103.597 29.2829C103.513 29.9197 103.203 30.5049 102.722 30.9306C102.241 31.3564 101.623 31.5939 100.98 31.5996H100.983ZM100.983 28.2719C100.836 28.2717 100.694 28.32 100.578 28.4092C100.461 28.4984 100.378 28.6235 100.34 28.7651C100.302 28.9067 100.311 29.0569 100.368 29.1923C100.424 29.3277 100.523 29.4408 100.65 29.514C100.777 29.5872 100.925 29.6165 101.07 29.5972C101.215 29.5779 101.35 29.5111 101.454 29.4073C101.557 29.3035 101.624 29.1684 101.642 29.023C101.661 28.8776 101.632 28.7301 101.558 28.6033C101.515 28.528 101.458 28.462 101.389 28.409C101.321 28.356 101.242 28.3171 101.159 28.2945C101.099 28.2801 101.039 28.2743 100.978 28.2772L100.983 28.2719Z" fill="#663366"/>
<path d="M115.873 36.9427C115.724 36.9431 115.577 36.9099 115.442 36.8456C115.308 36.7813 115.189 36.6876 115.096 36.5713C113.172 34.1878 110.656 32.3517 107.799 31.2471C107.677 31.1998 107.565 31.1289 107.47 31.0383C107.375 30.9478 107.299 30.8395 107.246 30.7196C107.193 30.5996 107.164 30.4704 107.16 30.3392C107.157 30.2081 107.18 30.0776 107.227 29.9552C107.275 29.8329 107.346 29.721 107.436 29.6261C107.527 29.5311 107.635 29.4549 107.755 29.4019C107.875 29.3488 108.004 29.3198 108.135 29.3167C108.266 29.3136 108.397 29.3363 108.519 29.3836C111.703 30.6159 114.507 32.6636 116.651 35.3215C116.769 35.468 116.844 35.6451 116.866 35.8322C116.888 36.0194 116.856 36.2089 116.775 36.3789C116.693 36.5488 116.566 36.6923 116.406 36.7925C116.246 36.8928 116.062 36.9458 115.873 36.9454V36.9427Z" fill="#663366"/>
<path d="M116.919 39.8926C116.29 39.8933 115.682 39.6717 115.201 39.267C114.721 38.8623 114.399 38.3007 114.292 37.6814C114.186 37.0622 114.302 36.4252 114.62 35.8833C114.938 35.3414 115.437 34.9294 116.03 34.7202C116.622 34.511 117.27 34.5182 117.857 34.7404C118.445 34.9625 118.935 35.3855 119.241 35.9343C119.547 36.4831 119.649 37.1224 119.529 37.7392C119.409 38.3559 119.075 38.9103 118.585 39.3043C118.113 39.6849 117.525 39.8926 116.919 39.8926ZM116.919 36.5716C116.768 36.5723 116.621 36.6244 116.504 36.7194C116.382 36.8147 116.298 36.9492 116.265 37.0999C116.232 37.2505 116.252 37.408 116.322 37.5453C116.393 37.6826 116.508 37.7913 116.65 37.8528C116.791 37.9143 116.95 37.9248 117.098 37.8824C117.246 37.84 117.375 37.7475 117.463 37.6205C117.55 37.4936 117.591 37.3402 117.578 37.1865C117.565 37.0328 117.499 36.8884 117.392 36.778C117.284 36.6675 117.141 36.5979 116.988 36.5809C116.964 36.5765 116.94 36.5734 116.916 36.5716H116.919Z" fill="#663366"/>
<path d="M124.813 52.6763C124.556 52.6763 124.31 52.5776 124.124 52.4006C123.938 52.2237 123.828 51.9821 123.816 51.726C123.669 48.6658 122.722 45.6978 121.067 43.1192C120.996 43.0089 120.948 42.8857 120.924 42.7567C120.901 42.6276 120.903 42.4952 120.931 42.3671C120.959 42.2389 121.012 42.1174 121.086 42.0097C121.161 41.9019 121.256 41.8099 121.367 41.7389C121.477 41.6679 121.6 41.6194 121.729 41.596C121.858 41.5727 121.991 41.575 122.119 41.6028C122.247 41.6306 122.368 41.6834 122.476 41.7581C122.584 41.8329 122.676 41.9281 122.747 42.0384C124.59 44.9117 125.646 48.2189 125.808 51.6288C125.815 51.7597 125.795 51.8907 125.751 52.0141C125.707 52.1376 125.639 52.251 125.551 52.3481C125.462 52.4452 125.356 52.5239 125.237 52.5797C125.119 52.6356 124.99 52.6675 124.859 52.6737L124.813 52.6763Z" fill="#663366"/>
<path d="M124.89 56.0006C124.178 55.9831 123.501 55.6856 123.006 55.1725C122.512 54.6593 122.239 53.972 122.248 53.2594C122.257 52.5469 122.546 51.8664 123.053 51.3656C123.56 50.8648 124.244 50.584 124.957 50.584C125.669 50.584 126.353 50.8648 126.86 51.3656C127.367 51.8664 127.657 52.5469 127.665 53.2594C127.674 53.972 127.402 54.6593 126.907 55.1725C126.413 55.6856 125.736 55.9831 125.023 56.0006H124.89ZM124.861 52.673C124.686 52.6819 124.521 52.7598 124.403 52.8897C124.284 53.0196 124.222 53.191 124.23 53.3664C124.239 53.5416 124.317 53.706 124.447 53.8239C124.577 53.9418 124.748 54.0037 124.924 53.996C125.098 53.9867 125.263 53.9088 125.38 53.7793C125.498 53.6497 125.56 53.4789 125.553 53.3039C125.544 53.1287 125.466 52.9642 125.337 52.8461C125.207 52.7279 125.036 52.6657 124.861 52.673Z" fill="#663366"/>
<path d="M122.752 70.6615C122.571 70.6614 122.394 70.6124 122.24 70.5198C122.085 70.4272 121.958 70.2943 121.873 70.1354C121.787 69.9765 121.747 69.7974 121.755 69.6173C121.763 69.4371 121.82 69.2625 121.92 69.1121C123.606 66.556 124.59 63.6018 124.775 60.5453C124.783 60.4142 124.816 60.2859 124.874 60.1678C124.931 60.0497 125.011 59.944 125.109 59.8568C125.207 59.7696 125.322 59.7026 125.446 59.6596C125.57 59.6166 125.701 59.5985 125.832 59.6062C125.964 59.614 126.092 59.6475 126.21 59.7049C126.328 59.7623 126.434 59.8423 126.521 59.9405C126.608 60.0387 126.675 60.1531 126.718 60.2772C126.761 60.4013 126.779 60.5327 126.772 60.6638C126.567 64.0719 125.47 67.3664 123.59 70.2169C123.498 70.3545 123.373 70.4672 123.227 70.5447C123.081 70.6223 122.917 70.6624 122.752 70.6615Z" fill="#663366"/>
<path d="M121.831 73.7051C121.415 73.7071 121.004 73.6115 120.632 73.426C120.259 73.2405 119.935 72.9703 119.686 72.637C119.437 72.3037 119.269 71.9166 119.197 71.5069C119.124 71.0971 119.149 70.6761 119.269 70.2775C119.388 69.879 119.6 69.514 119.886 69.212C120.172 68.9099 120.525 68.6791 120.917 68.5382C121.308 68.3973 121.727 68.3501 122.14 68.4004C122.554 68.4508 122.949 68.5972 123.295 68.8281C123.77 69.1444 124.13 69.6048 124.323 70.1413C124.516 70.6779 124.532 71.2623 124.368 71.8085C124.204 72.3547 123.869 72.8338 123.412 73.1752C122.956 73.5166 122.401 73.7024 121.831 73.7051ZM121.831 70.3841C121.671 70.3837 121.516 70.4408 121.395 70.5451C121.274 70.6494 121.194 70.7938 121.171 70.952C121.147 71.1101 121.182 71.2715 121.267 71.4065C121.353 71.5414 121.485 71.641 121.638 71.687C121.791 71.733 121.956 71.7224 122.101 71.657C122.247 71.5916 122.365 71.4758 122.432 71.3309C122.5 71.186 122.513 71.0216 122.469 70.8677C122.426 70.7139 122.328 70.581 122.194 70.4932C122.088 70.4234 121.964 70.3855 121.836 70.3841H121.831Z" fill="#663366"/>
<path d="M110.486 83.9734C110.251 83.9736 110.025 83.8914 109.845 83.7413C109.665 83.5912 109.544 83.3827 109.502 83.1522C109.461 82.9217 109.501 82.684 109.617 82.4805C109.733 82.2771 109.917 82.1209 110.137 82.0393C113.01 80.9687 115.551 79.1604 117.504 76.7962C117.673 76.592 117.916 76.4632 118.18 76.4381C118.443 76.413 118.706 76.4937 118.911 76.6625C119.115 76.8312 119.244 77.0742 119.269 77.3379C119.294 77.6016 119.213 77.8645 119.044 78.0687C116.868 80.6997 114.039 82.7125 110.84 83.9055C110.727 83.9495 110.607 83.9725 110.486 83.9734Z" fill="#663366"/>
<path d="M108.93 86.2071C108.444 86.2082 107.966 86.0761 107.55 85.825C107.133 85.574 106.793 85.2137 106.567 84.7832C106.341 84.3527 106.237 83.8685 106.267 83.3831C106.296 82.8977 106.458 82.4296 106.735 82.0298C107.012 81.6299 107.393 81.3135 107.837 81.1149C108.281 80.9163 108.77 80.8431 109.253 80.9032C109.736 80.9634 110.192 81.1545 110.574 81.456C110.956 81.7574 111.247 82.1577 111.418 82.6132C111.663 83.2739 111.636 84.005 111.343 84.646C111.05 85.287 110.515 85.7857 109.855 86.0327C109.56 86.1461 109.246 86.2052 108.93 86.2071ZM108.93 82.8794C108.788 82.8788 108.649 82.9237 108.535 83.0074C108.42 83.0911 108.335 83.2092 108.293 83.3446C108.25 83.48 108.251 83.6255 108.297 83.7598C108.343 83.8942 108.431 84.0103 108.547 84.0914C108.664 84.1724 108.803 84.2141 108.945 84.2102C109.087 84.2064 109.224 84.1573 109.336 84.0701C109.448 83.9829 109.529 83.8622 109.568 83.7256C109.606 83.5889 109.6 83.4436 109.55 83.3107C109.503 83.1844 109.418 83.0755 109.307 82.9985C109.196 82.9215 109.065 82.88 108.93 82.8794Z" fill="#663366"/>
<path d="M97.7301 88.1618C95.9492 88.1608 94.1769 87.9149 92.463 87.431C92.2089 87.3586 91.994 87.1885 91.8651 86.9579C91.7363 86.7273 91.704 86.455 91.7755 86.2008C91.847 85.9465 92.0164 85.7309 92.2466 85.6012C92.4767 85.4715 92.7489 85.4384 93.0034 85.509C95.9532 86.338 99.0691 86.377 102.039 85.6221C102.167 85.5854 102.302 85.5749 102.434 85.5911C102.567 85.6073 102.695 85.6499 102.81 85.7164C102.926 85.783 103.028 85.872 103.108 85.9784C103.189 86.0848 103.248 86.2062 103.281 86.3356C103.313 86.4651 103.32 86.5998 103.3 86.7318C103.28 86.8638 103.234 86.9905 103.164 87.1043C103.094 87.2181 103.002 87.3167 102.893 87.3943C102.785 87.4719 102.662 87.527 102.531 87.5562C100.962 87.957 99.3494 88.1604 97.7301 88.1618Z" fill="#663366"/>
<path d="M91.132 88.6854C90.7208 88.6856 90.315 88.5905 89.9467 88.4075C89.5783 88.2246 89.2574 87.9588 89.009 87.631C88.7606 87.3032 88.5916 86.9223 88.5152 86.5182C88.4387 86.114 88.4569 85.6977 88.5684 85.3018C88.6486 84.9501 88.7994 84.6183 89.0118 84.3267C89.2241 84.035 89.4935 83.7896 89.8036 83.6052C90.1137 83.4209 90.4581 83.3015 90.8158 83.2543C91.1734 83.2071 91.537 83.2331 91.8843 83.3308C92.2316 83.4284 92.5554 83.5956 92.8361 83.8222C93.1169 84.0488 93.3486 84.3301 93.5172 84.649C93.6859 84.9679 93.788 85.3178 93.8173 85.6774C93.8466 86.0369 93.8025 86.3987 93.6877 86.7407C93.5308 87.2982 93.1963 87.7892 92.7352 88.1394C92.274 88.4897 91.7111 88.6799 91.132 88.6814V88.6854ZM91.132 85.3577C91.0294 85.356 90.9277 85.378 90.835 85.422C90.7422 85.4661 90.6609 85.531 90.5974 85.6117C90.534 85.6924 90.49 85.7867 90.4691 85.8872C90.4481 85.9877 90.4506 86.0917 90.4765 86.1911C90.5025 86.2904 90.551 86.3825 90.6184 86.4599C90.6858 86.5374 90.7701 86.5982 90.8649 86.6377C90.9597 86.6771 91.0624 86.6941 91.1648 86.6872C91.2673 86.6804 91.3668 86.65 91.4555 86.5983C91.5315 86.5558 91.5982 86.4986 91.6519 86.43C91.7056 86.3615 91.7452 86.2829 91.7683 86.199C91.8147 86.0301 91.7926 85.8497 91.7069 85.697C91.6212 85.5442 91.4787 85.4314 91.3104 85.383C91.2513 85.3678 91.1904 85.3611 91.1294 85.3631L91.132 85.3577Z" fill="#663366"/>
<path d="M83.9582 85.57C83.8309 85.5703 83.7048 85.5458 83.5868 85.4981C80.4182 84.2268 77.6396 82.1446 75.5298 79.4604C75.3661 79.2521 75.292 78.9873 75.3235 78.7244C75.3551 78.4614 75.4899 78.2217 75.6981 78.0581C75.9064 77.8945 76.1712 77.8203 76.4342 77.8519C76.6971 77.8834 76.9368 78.0182 77.1004 78.2265C78.9935 80.6352 81.4865 82.5039 84.3295 83.6453C84.5447 83.7316 84.7231 83.8902 84.8341 84.0938C84.9451 84.2973 84.9817 84.5332 84.9378 84.7608C84.8939 84.9885 84.7721 85.1937 84.5933 85.3414C84.4146 85.489 84.19 85.5699 83.9582 85.57Z" fill="#663366"/>
<path d="M75.2987 80.1905C75.191 80.1902 75.0835 80.184 74.9765 80.1719C74.2893 80.0901 73.6609 79.7439 73.2246 79.2067C72.7883 78.6695 72.5783 77.9835 72.6392 77.2941C72.7001 76.6047 73.0271 75.9662 73.5508 75.5138C74.0746 75.0614 74.7539 74.8307 75.4448 74.8707C76.1357 74.9106 76.7839 75.2181 77.252 75.7279C77.7201 76.2376 77.9712 76.9097 77.9522 77.6015C77.9332 78.2933 77.6456 78.9505 77.1502 79.4338C76.6548 79.9171 75.9907 80.1885 75.2987 80.1905ZM75.2987 76.8695C75.1508 76.8688 75.0071 76.9185 74.8914 77.0106C74.7692 77.1046 74.6836 77.2381 74.6489 77.3883C74.6143 77.5384 74.6328 77.696 74.7014 77.834C74.77 77.972 74.8843 78.082 75.0249 78.1451C75.1655 78.2082 75.3237 78.2205 75.4724 78.18C75.6211 78.1395 75.7511 78.0486 75.8403 77.9229C75.9294 77.7972 75.9722 77.6444 75.9613 77.4907C75.9504 77.337 75.8864 77.1918 75.7804 77.08C75.6744 76.9681 75.5328 76.8965 75.3799 76.8775L75.2987 76.8695Z" fill="#663366"/>
<path d="M70.3671 73.1228C70.1978 73.1235 70.0312 73.0811 69.8828 72.9996C69.7345 72.9181 69.6094 72.8002 69.5192 72.657C67.7102 69.7616 66.6947 66.4413 66.5748 63.0293C66.5702 62.8982 66.5914 62.7675 66.6373 62.6446C66.6832 62.5217 66.7529 62.4091 66.8423 62.3131C66.9317 62.2171 67.0392 62.1397 67.1585 62.0852C67.2779 62.0308 67.4068 62.0004 67.5379 61.9957C67.669 61.9911 67.7997 62.0123 67.9226 62.0582C68.0455 62.1041 68.1581 62.1738 68.2541 62.2632C68.3501 62.3526 68.4275 62.4601 68.482 62.5794C68.5364 62.6988 68.5668 62.8277 68.5715 62.9588C68.6804 66.0182 69.591 68.9953 71.2123 71.5921C71.3069 71.7431 71.3593 71.9167 71.3641 72.0949C71.3689 72.273 71.326 72.4492 71.2398 72.6051C71.1535 72.761 71.0271 72.891 70.8736 72.9816C70.7202 73.0722 70.5453 73.12 70.3671 73.1202V73.1228Z" fill="#663366"/>
<path d="M67.5151 63.9881C66.816 63.9758 66.1501 63.6879 65.6622 63.1871C65.1744 62.6862 64.9041 62.0129 64.9103 61.3137C64.9164 60.6146 65.1985 59.9462 65.695 59.4539C66.1916 58.9617 66.8625 58.6855 67.5617 58.6855C68.2609 58.6855 68.9317 58.9617 69.4283 59.4539C69.9249 59.9462 70.2069 60.6146 70.2131 61.3137C70.2192 62.0129 69.949 62.6862 69.4611 63.1871C68.9733 63.6879 68.3073 63.9758 67.6083 63.9881H67.5151ZM67.5151 60.6671H67.4925C67.3297 60.6876 67.1802 60.7675 67.0728 60.8915C66.9653 61.0155 66.9074 61.1748 66.9102 61.3388C66.913 61.5028 66.9763 61.6601 67.088 61.7803C67.1996 61.9005 67.3517 61.9753 67.5151 61.9902H67.539C67.6692 61.9841 67.7947 61.94 67.8999 61.8632C68.0052 61.7865 68.0857 61.6805 68.1313 61.5585C68.1769 61.4365 68.1858 61.3038 68.1567 61.1768C68.1276 61.0498 68.0619 60.9341 67.9676 60.8441C67.8453 60.7298 67.6839 60.6665 67.5164 60.6671H67.5151Z" fill="#663366"/>
<path d="M66.7279 55.0593H66.6547C66.3911 55.0402 66.1459 54.9174 65.9727 54.7178C65.7996 54.5181 65.7126 54.258 65.7309 53.9944C65.9787 50.5891 67.1165 47.3086 69.0307 44.4812C69.1793 44.262 69.4089 44.1108 69.669 44.0609C69.9291 44.0109 70.1984 44.0664 70.4177 44.215C70.6369 44.3636 70.7881 44.5933 70.838 44.8534C70.8879 45.1135 70.8325 45.3828 70.6839 45.602C68.9651 48.1367 67.9424 51.0785 67.7182 54.1328C67.7001 54.3836 67.5881 54.6183 67.4045 54.79C67.2209 54.9618 66.9793 55.0579 66.7279 55.0593Z" fill="#663366"/>
<path d="M70.7793 46.3206C70.2489 46.3204 69.7307 46.1604 69.2925 45.8614C68.7713 45.5055 68.395 44.9744 68.232 44.3646C68.069 43.7549 68.1302 43.1069 68.4043 42.5384C68.6785 41.9699 69.1475 41.5185 69.7261 41.2664C70.3047 41.0143 70.9546 40.9781 71.5576 41.1643C72.1607 41.3506 72.6769 41.747 73.0126 42.2815C73.3482 42.816 73.481 43.4532 73.3868 44.0773C73.2926 44.7014 72.9777 45.271 72.4992 45.6826C72.0207 46.0942 71.4105 46.3206 70.7793 46.3206ZM70.7793 42.9929C70.7347 42.9926 70.6901 42.9966 70.6462 43.0049C70.5188 43.0311 70.4018 43.0942 70.3097 43.1862C70.2177 43.2783 70.1547 43.3953 70.1285 43.5228C70.1023 43.6502 70.114 43.7826 70.1623 43.9035C70.2106 44.0244 70.2932 44.1285 70.4 44.2028C70.472 44.2545 70.5536 44.2912 70.6401 44.3109C70.7265 44.3306 70.816 44.3328 70.9032 44.3174C70.9905 44.302 71.0739 44.2694 71.1484 44.2214C71.2229 44.1734 71.287 44.1109 71.3371 44.0378C71.4347 43.8921 71.4709 43.7137 71.4377 43.5415C71.4046 43.3693 71.3048 43.2171 71.16 43.118C71.0518 43.0412 70.9227 42.9994 70.79 42.9982L70.7793 42.9929Z" fill="#663366"/>
<path d="M74.4494 38.3215C74.2589 38.3214 74.0724 38.2669 73.912 38.1644C73.7515 38.0618 73.6237 37.9155 73.5436 37.7427C73.4636 37.5699 73.4346 37.3778 73.4602 37.1891C73.4858 37.0003 73.5648 36.8229 73.688 36.6776C75.898 34.0729 78.7542 32.0953 81.97 30.9433C82.0952 30.8914 82.2296 30.8655 82.3652 30.8673C82.5007 30.869 82.6344 30.8983 82.7583 30.9534C82.8821 31.0085 82.9934 31.0883 83.0854 31.1878C83.1774 31.2873 83.2482 31.4045 83.2934 31.5323C83.3387 31.66 83.3574 31.7957 83.3485 31.9309C83.3397 32.0661 83.3033 32.1981 83.2418 32.3189C83.1802 32.4396 83.0947 32.5466 82.9905 32.6332C82.8863 32.7199 82.7655 32.7844 82.6355 32.8228C79.7518 33.8573 77.1908 35.632 75.2094 37.9687C75.1161 38.0794 74.9997 38.1683 74.8684 38.2292C74.7371 38.2901 74.5941 38.3216 74.4494 38.3215Z" fill="#663366"/>
<path d="M83.8565 33.9835C83.1903 33.9827 82.5486 33.7323 82.0581 33.2815C81.5676 32.8307 81.2639 32.2124 81.207 31.5486C81.1501 30.8849 81.3442 30.2239 81.7508 29.6962C82.1575 29.1686 82.7473 28.8126 83.4036 28.6985C84.06 28.5844 84.7353 28.7206 85.2961 29.0801C85.857 29.4397 86.2626 29.9964 86.433 30.6404C86.6034 31.2845 86.5262 31.969 86.2165 32.5588C85.9068 33.1487 85.3872 33.601 84.7603 33.8264C84.4705 33.931 84.1646 33.9842 83.8565 33.9835ZM83.8565 30.6558C83.7507 30.6566 83.6466 30.6827 83.5529 30.7318C83.4591 30.781 83.3785 30.8517 83.3176 30.9383C83.2567 31.0248 83.2173 31.1246 83.2027 31.2295C83.1881 31.3343 83.1987 31.4411 83.2336 31.541C83.274 31.6564 83.3454 31.7586 83.44 31.8361C83.5346 31.9136 83.6488 31.9636 83.77 31.9805C83.8911 31.9974 84.0146 31.9805 84.1268 31.9318C84.2391 31.8831 84.3357 31.8044 84.4061 31.7043C84.4765 31.6043 84.518 31.4868 84.526 31.3647C84.5339 31.2426 84.5081 31.1207 84.4513 31.0124C84.3945 30.904 84.309 30.8134 84.204 30.7505C84.0991 30.6876 83.9789 30.6548 83.8565 30.6558Z" fill="#663366"/>
<path fill-rule="evenodd" clip-rule="evenodd" d="M119.936 106.214H89.3379V119.689H94.4054C95.521 119.691 96.5905 120.134 97.3793 120.923C98.1682 121.712 98.6119 122.782 98.6131 123.897V128.652C98.6127 129.106 98.4323 129.54 98.1117 129.861C97.791 130.181 97.3563 130.361 96.903 130.361H53.1001C52.6468 130.361 52.2121 130.181 51.8914 129.861C51.5708 129.54 51.3904 129.106 51.39 128.652V123.9C51.3913 122.785 51.835 121.715 52.6238 120.926C53.4126 120.137 54.4822 119.694 55.5977 119.693H60.6574V106.217H17.471H10V98.7465V27.4694C10.0025 25.4889 10.7905 23.5902 12.191 22.1899C13.5916 20.7896 15.4905 20.0021 17.471 20H132.529C134.51 20.0021 136.408 20.7896 137.809 22.1899C139.21 23.5902 139.998 25.4889 140 27.4694V74.3646V106.214H119.936ZM13.4201 92.2827V27.4694C13.4214 26.3954 13.8486 25.3658 14.608 24.6064C15.3674 23.847 16.397 23.4198 17.471 23.4186H132.529C133.602 23.4215 134.63 23.8494 135.388 24.6086C136.146 25.3679 136.572 26.3965 136.574 27.4694V74.3646V92.2827H115.85H13.4201ZM55.5977 123.113H94.4054C94.6128 123.116 94.8107 123.201 94.9571 123.348C95.1036 123.495 95.187 123.693 95.1898 123.9V126.942H54.8133V123.897C54.8169 123.69 54.9007 123.493 55.0471 123.346C55.1934 123.2 55.3908 123.116 55.5977 123.113ZM79.8745 106.217H85.9178V119.693H64.0775V106.217H70.1208V106.845C70.1092 107.493 70.2267 108.136 70.4666 108.738C70.7065 109.34 71.0638 109.888 71.5179 110.35C71.9719 110.813 72.5134 111.18 73.1109 111.43C73.7083 111.681 74.3497 111.81 74.9977 111.81C75.6455 111.81 76.287 111.681 76.8844 111.43C77.4819 111.18 78.0234 110.813 78.4774 110.35C78.9314 109.888 79.2888 109.34 79.5287 108.738C79.7686 108.136 79.8861 107.493 79.8745 106.845V106.217ZM73.6363 107.418C73.5659 107.235 73.533 107.041 73.5394 106.845V106.217H76.4559V106.845C76.4623 107.041 76.4294 107.235 76.359 107.418C76.2886 107.6 76.1822 107.767 76.0461 107.907C75.9101 108.048 75.7472 108.16 75.567 108.236C75.3869 108.313 75.1933 108.352 74.9977 108.352C74.802 108.352 74.6084 108.313 74.4283 108.236C74.2481 108.16 74.0852 108.048 73.9492 107.907C73.8131 107.767 73.7067 107.6 73.6363 107.418ZM13.4201 95.7076H115.852H136.574V102.366H119.936L17.471 102.794H13.4201V95.7076Z" fill="#663366"/>
<path fill-rule="evenodd" clip-rule="evenodd" d="M38.3574 86.4167C34.4518 86.4183 30.6917 84.9348 27.8393 82.267C24.9868 79.5992 23.2555 75.9466 22.9961 72.0496C22.7367 68.1526 23.9687 64.3028 26.4425 61.2805C28.9162 58.2582 32.4465 56.2895 36.3179 55.7735C36.5591 55.7418 36.8044 55.7619 37.0373 55.8325C37.2702 55.9032 37.4854 56.0226 37.6684 56.183C37.8515 56.3433 37.9983 56.5409 38.0989 56.7624C38.1996 56.984 38.2519 57.2245 38.2523 57.4678V71.1704L49.6768 78.4672C49.8832 78.5987 50.0589 78.7729 50.1921 78.9782C50.3253 79.1834 50.4129 79.4149 50.4489 79.6569C50.4849 79.8989 50.4685 80.1458 50.4008 80.381C50.3331 80.6161 50.2157 80.8339 50.0565 81.0198C48.6129 82.7121 46.8193 84.071 44.7995 85.0028C42.7797 85.9345 40.5818 86.4169 38.3574 86.4167ZM38.8502 82.9843C36.2104 83.091 33.6096 82.3202 31.4543 80.7923L36.9689 74.4054L46.0449 80.2024C44.02 81.8993 41.4899 82.8776 38.8502 82.9843ZM34.8431 71.6426L28.9724 78.439V78.4343C27.7661 76.9088 26.9501 75.1121 26.5952 73.2C26.2402 71.2879 26.3569 69.3181 26.9353 67.4613C27.5136 65.6045 28.5361 63.9167 29.9141 62.5444C31.292 61.1721 32.984 60.1565 34.8431 59.5858V71.6426Z" fill="#663366"/>
<path fill-rule="evenodd" clip-rule="evenodd" d="M39.3991 56.0904C39.3994 55.8413 39.4541 55.5954 39.5593 55.3697C39.6644 55.1439 39.8176 54.9439 40.008 54.7834C40.1985 54.623 40.4217 54.506 40.662 54.4408C40.9023 54.3755 41.154 54.3634 41.3994 54.4054C43.898 54.8399 46.2666 55.8315 48.3294 57.3068C50.3921 58.782 52.0961 60.7029 53.3149 62.9269C54.5336 65.1509 55.2357 67.6209 55.3691 70.1534C55.5025 72.6859 55.0637 75.216 54.0853 77.5557C53.9892 77.7858 53.8439 77.9921 53.6597 78.1601C53.4755 78.3282 53.2568 78.454 53.0189 78.5287C52.781 78.6034 52.5297 78.6253 52.2825 78.5927C52.0352 78.5601 51.7981 78.4739 51.5877 78.3401L40.1867 71.0574C39.9455 70.9025 39.7473 70.6894 39.6102 70.4377C39.4731 70.186 39.4016 69.9038 39.4023 69.6172L39.3991 56.0904ZM51.5751 74.272L42.8193 68.679L42.8099 58.2695C46.0114 59.3518 48.6894 61.5975 50.313 64.5616C51.9365 67.5256 52.387 70.9915 51.5751 74.272Z" fill="#663366"/>
</svg>
