<svg xmlns="http://www.w3.org/2000/svg" data-name="Layer 1" viewBox="0 0 96 120" x="0px" y="0px"><path d="M35.064,19.418a1.09,1.09,0,0,1,1.09-1.09H49.705a1.09,1.09,0,1,1,0,2.18H36.154A1.09,1.09,0,0,1,35.064,19.418ZM28.575,49.161a9.809,9.809,0,0,1-1.3-19.532,1.091,1.091,0,0,1,1.233,1.08v8.734l7.282,4.651a1.089,1.089,0,0,1,.242,1.627A9.8,9.8,0,0,1,28.575,49.161Zm-4.4-3.585a7.619,7.619,0,0,0,9.3-.376L27.69,41.505h0Zm-1.582-1.5,3.742-4.332V32.059a7.622,7.622,0,0,0-3.742,12.014Zm6.646-14.245a1.091,1.091,0,0,1,1.275-1.074A10.763,10.763,0,0,1,38.6,43.513a1.091,1.091,0,0,1-1.592.5l-7.267-4.642a1.088,1.088,0,0,1-.5-.918Zm2.18,8.024L37,41.42a8.589,8.589,0,0,0-5.587-10.2Zm11.014,9.137a1.09,1.09,0,0,0,1.09-1.09v-.407h.407a1.09,1.09,0,0,0,0-2.18h-.407v-.407a1.09,1.09,0,1,0-2.18,0v.407h-.407a1.09,1.09,0,0,0,0,2.18h.407V45.9A1.09,1.09,0,0,0,42.429,46.989ZM9.964,34.644h5.548l1.214,2.137A1.09,1.09,0,0,0,18.621,35.7l-1.527-2.689a1.092,1.092,0,0,0-.948-.551H9.964a1.09,1.09,0,0,0,0,2.18Zm38.1-7.662H40.931a1.089,1.089,0,0,0-.943.545l-1.91,3.308a1.09,1.09,0,0,0,1.888,1.089l1.595-2.762h6.5a1.09,1.09,0,1,0,0-2.18Zm1.09,4.674a1.09,1.09,0,0,0-1.09-1.09H43.309a1.09,1.09,0,1,0,0,2.18h4.755A1.09,1.09,0,0,0,49.154,31.656Zm-34.2,14.6a1.089,1.089,0,0,0,1.089-1.09v-.011h.011a1.09,1.09,0,1,0,0-2.18h-.011v-.011a1.09,1.09,0,1,0-2.179,0v.011h-.011a1.09,1.09,0,1,0,0,2.18h.011v.011A1.09,1.09,0,0,0,14.954,46.253Zm19.331-18.81h.275v.275a1.09,1.09,0,1,0,2.179,0v-.275h.275a1.09,1.09,0,1,0,0-2.179h-.275v-.275a1.09,1.09,0,1,0-2.179,0v.275h-.275a1.09,1.09,0,1,0,0,2.179ZM9.964,38.326h4.182a1.09,1.09,0,1,0,0-2.18H9.964a1.09,1.09,0,1,0,0,2.18Zm2.107-9.068v.481a1.09,1.09,0,0,0,2.18,0v-.481A2.572,2.572,0,0,0,16.1,26.907v-.722c0-2-1.847-2.348-2.734-2.515a3.3,3.3,0,0,1-.948-.263.453.453,0,0,1-.01-.11v-.722c0-.089.268-.355.756-.355s.756.266.756.355v.39a1.09,1.09,0,0,0,2.18,0v-.39a2.571,2.571,0,0,0-1.846-2.351v-.482a1.09,1.09,0,0,0-2.18,0v.482a2.571,2.571,0,0,0-1.846,2.351V23.3c0,2,1.847,2.348,2.734,2.515a3.342,3.342,0,0,1,.948.262.465.465,0,0,1,.01.111v.722c0,.088-.268.354-.756.354s-.756-.266-.756-.354v-.391a1.09,1.09,0,0,0-2.18,0v.391A2.572,2.572,0,0,0,12.071,29.258Zm10.33-4.49h5.988a1.09,1.09,0,0,0,0-2.18H22.4a1.09,1.09,0,0,0,0,2.18Zm-4.272,0h.73a1.09,1.09,0,0,0,0-2.18h-.73a1.09,1.09,0,0,0,0,2.18ZM22.4,28.442h5.988a1.09,1.09,0,0,0,0-2.18H22.4a1.09,1.09,0,0,0,0,2.18Zm-4.272,0h.73a1.09,1.09,0,0,0,0-2.18h-.73a1.09,1.09,0,0,0,0,2.18ZM55.152,44.883v8.849a1.09,1.09,0,0,1-1.09,1.089H50.133a1.09,1.09,0,0,1-1.09-1.089V44.883a1.09,1.09,0,0,1,1.09-1.09h3.929A1.09,1.09,0,0,1,55.152,44.883Zm-2.18,1.09h-1.75v6.669h1.75Zm9.084-4.368V53.732a1.09,1.09,0,0,1-1.09,1.089H57.037a1.09,1.09,0,0,1-1.09-1.089V41.605a1.09,1.09,0,0,1,1.09-1.09h3.929A1.09,1.09,0,0,1,62.056,41.605Zm-2.18,1.089H58.127v9.948h1.749Zm9.084,2.189v8.849a1.09,1.09,0,0,1-1.09,1.089H63.941a1.09,1.09,0,0,1-1.09-1.089V44.883a1.09,1.09,0,0,1,1.09-1.09H67.87A1.09,1.09,0,0,1,68.96,44.883Zm-2.18,1.09H65.031v6.669H66.78Zm4.716-16.2a1.089,1.089,0,0,1,.755-1.344l2.667-.748a1.089,1.089,0,0,1,1.375,1.188l-.352,2.747a1.09,1.09,0,0,1-2.057.347L68.216,38.6a2.533,2.533,0,1,1-4.815.69L60.312,37.27a2.506,2.506,0,0,1-2.621,0L54.6,39.292a2.527,2.527,0,0,1-4.785,1.427H47.223a1.09,1.09,0,1,1,0-2.179h2.594a2.519,2.519,0,0,1,3.591-1.071L56.5,35.447a2.531,2.531,0,1,1,5.009,0L64.6,37.469a2.483,2.483,0,0,1,1.963-.281l5.688-6.661A1.089,1.089,0,0,1,71.5,29.774ZM52.448,39.629a.351.351,0,1,0-.351.351A.356.356,0,0,0,52.448,39.629ZM59,35.46a.351.351,0,1,0-.35-.35A.355.355,0,0,0,59,35.46Zm7.255,4.169a.351.351,0,1,0-.35.351A.355.355,0,0,0,66.256,39.629ZM46.134,48.4H35.668a1.09,1.09,0,1,0,0,2.18H46.134a1.09,1.09,0,0,0,0-2.18Zm0,4.246H28.859a1.09,1.09,0,1,0,0,2.179H46.134a1.09,1.09,0,1,0,0-2.179Zm-36.17-.9h4.992a1.09,1.09,0,1,0,0-2.18H9.964a1.09,1.09,0,1,0,0,2.18Zm8.555-2.18H17.91a1.09,1.09,0,1,0,0,2.18h.609a1.09,1.09,0,0,0,0-2.18ZM9.964,55.412h4.992a1.09,1.09,0,0,0,0-2.18H9.964a1.09,1.09,0,1,0,0,2.18Zm8.555-2.18H17.91a1.09,1.09,0,0,0,0,2.18h.609a1.09,1.09,0,0,0,0-2.18ZM56.2,24.768h8.568a1.09,1.09,0,1,0,0-2.18H56.2a1.09,1.09,0,0,0,0,2.18Zm-4.144,0H53a1.09,1.09,0,1,0,0-2.18h-.943a1.09,1.09,0,0,0,0,2.18Zm0,3.59H67.419a1.09,1.09,0,1,0,0-2.18H52.057a1.09,1.09,0,0,0,0,2.18Zm0,3.59h8.336a1.09,1.09,0,0,0,0-2.18H52.057a1.09,1.09,0,0,0,0,2.18Zm15.362,0a1.09,1.09,0,1,0,0-2.18H63.594a1.09,1.09,0,0,0,0,2.18ZM94.5,59.991a12.887,12.887,0,0,1-.3,2.77,1.088,1.088,0,0,1-1.158.851l-1.4-.121a10.715,10.715,0,0,1-.434,1.046l1.076.906a1.09,1.09,0,0,1,.217,1.42,12.932,12.932,0,0,1-3.918,3.917,1.089,1.089,0,0,1-1.42-.217l-.905-1.075a10.466,10.466,0,0,1-1.046.433l.12,1.4a1.09,1.09,0,0,1-.85,1.158,12.859,12.859,0,0,1-5.541,0,1.09,1.09,0,0,1-.851-1.158l.121-1.4a10.242,10.242,0,0,1-1.046-.434l-.905,1.076a1.091,1.091,0,0,1-1.421.217,12.928,12.928,0,0,1-3.266-3H52.07v8.589H55.3a2.685,2.685,0,0,1,2.682,2.682v3.031a1.09,1.09,0,0,1-1.09,1.089H28.972a1.09,1.09,0,0,1-1.09-1.089V79.053a2.685,2.685,0,0,1,2.682-2.682h3.225V67.782H6.262A4.767,4.767,0,0,1,1.5,63.02V17.588a4.767,4.767,0,0,1,4.762-4.761H79.6a4.767,4.767,0,0,1,4.762,4.761V47.479c.04.008.081.014.12.023a1.09,1.09,0,0,1,.851,1.158l-.12,1.4a10.715,10.715,0,0,1,1.046.434l.905-1.076a1.09,1.09,0,0,1,1.42-.217A12.946,12.946,0,0,1,92.5,53.119a1.09,1.09,0,0,1-.217,1.42l-1.076.905a10.473,10.473,0,0,1,.434,1.046l1.4-.12a1.09,1.09,0,0,1,1.158.851A12.887,12.887,0,0,1,94.5,59.991ZM3.68,17.588V58.9H68.969a12.822,12.822,0,0,1,.252-1.68,1.088,1.088,0,0,1,1.157-.851l1.4.12a10.242,10.242,0,0,1,.434-1.046l-.741-.623h-.627a1.09,1.09,0,0,1-1.09-1.089V38.85a1.09,1.09,0,0,1,1.09-1.09h3.929a1.09,1.09,0,0,1,1.09,1.09V49.128a1.079,1.079,0,0,1,.394.29l.905,1.076a10.715,10.715,0,0,1,1.046-.434l-.121-1.4a1.09,1.09,0,0,1,.851-1.158,12.9,12.9,0,0,1,3.24-.288V17.588A2.585,2.585,0,0,0,79.6,15.006H6.262A2.585,2.585,0,0,0,3.68,17.588ZM73.685,39.94h-1.75V51.75a12.908,12.908,0,0,1,1.75-1.717ZM55.3,78.551H30.564a.509.509,0,0,0-.5.5v1.941H55.8V79.053A.509.509,0,0,0,55.3,78.551ZM49.89,67.782H46.038v.4a3.109,3.109,0,1,1-6.217,0v-.4H35.969v8.589H49.89Zm-7.89.4a.93.93,0,1,0,1.859,0v-.4H42Zm30.213-3.643a10.242,10.242,0,0,1-.434-1.046l-1.4.121a1.09,1.09,0,0,1-1.157-.851,12.847,12.847,0,0,1-.252-1.68H3.68V63.02A2.585,2.585,0,0,0,6.262,65.6H70.984a1.043,1.043,0,0,1,.153-.159ZM92.32,59.991a10.722,10.722,0,0,0-.087-1.364l-1.285.111a1.092,1.092,0,0,1-1.15-.817,8.256,8.256,0,0,0-.906-2.185,1.09,1.09,0,0,1,.235-1.391l.987-.831a10.794,10.794,0,0,0-1.928-1.928l-.831.987a1.09,1.09,0,0,1-1.391.235,8.309,8.309,0,0,0-2.185-.906,1.091,1.091,0,0,1-.817-1.15l.111-1.285a10.728,10.728,0,0,0-2.727,0l.11,1.285a1.089,1.089,0,0,1-.816,1.15,8.329,8.329,0,0,0-2.186.906,1.088,1.088,0,0,1-1.39-.235l-.831-.987A10.766,10.766,0,0,0,73.3,53.514l.988.831a1.091,1.091,0,0,1,.235,1.391,8.292,8.292,0,0,0-.907,2.185,1.09,1.09,0,0,1-1.149.817l-1.285-.111a10.607,10.607,0,0,0,0,2.727l1.285-.11a1.088,1.088,0,0,1,1.149.816,8.3,8.3,0,0,0,.907,2.186,1.091,1.091,0,0,1-.235,1.391l-.988.83A10.772,10.772,0,0,0,75.233,68.4l.83-.987a1.092,1.092,0,0,1,1.391-.236,8.284,8.284,0,0,0,2.186.907,1.089,1.089,0,0,1,.816,1.149l-.11,1.285a10.682,10.682,0,0,0,2.727,0l-.111-1.285a1.09,1.09,0,0,1,.817-1.149,8.292,8.292,0,0,0,2.185-.907,1.091,1.091,0,0,1,1.391.236l.831.987a10.8,10.8,0,0,0,1.928-1.929l-.987-.83a1.09,1.09,0,0,1-.235-1.391A8.281,8.281,0,0,0,89.8,62.06a1.091,1.091,0,0,1,1.15-.816l1.285.11A10.694,10.694,0,0,0,92.32,59.991Zm-5.476,0a5.135,5.135,0,1,1-5.135-5.135A5.141,5.141,0,0,1,86.844,59.991Zm-2.18,0a2.955,2.955,0,1,0-2.955,2.955A2.958,2.958,0,0,0,84.664,59.991Z"/><text x="0" y="111" fill="#000000" font-size="5px" font-weight="bold" font-family="'Helvetica Neue', Helvetica, Arial-Unicode, Arial, Sans-serif">Created by Rohman haris</text><text x="0" y="116" fill="#000000" font-size="5px" font-weight="bold" font-family="'Helvetica Neue', Helvetica, Arial-Unicode, Arial, Sans-serif">from the Noun Project</text></svg>