<svg width="150" height="150" viewBox="0 0 150 150" fill="none" xmlns="http://www.w3.org/2000/svg">
<path d="M61.9677 47.8387C64.7456 47.8387 67.4611 47.015 69.7709 45.4717C72.0806 43.9284 73.8809 41.7348 74.9439 39.1683C76.007 36.6019 76.2851 33.7778 75.7432 31.0533C75.2012 28.3288 73.8635 25.8261 71.8993 23.8618C69.935 21.8976 67.4323 20.5599 64.7078 20.0179C61.9833 19.476 59.1592 19.7541 56.5928 20.8172C54.0263 21.8803 51.8328 23.6805 50.2894 25.9902C48.7461 28.3 47.9224 31.0155 47.9224 33.7934C47.9224 37.5185 49.4021 41.0909 52.0361 43.725C54.6702 46.359 58.2426 47.8387 61.9677 47.8387ZM73.204 33.7934C73.204 36.0157 72.545 38.1881 71.3103 40.0359C70.0757 41.8837 68.3208 43.3239 66.2676 44.1744C64.2145 45.0248 61.9552 45.2473 59.7756 44.8138C57.596 44.3802 55.5939 43.3101 54.0225 41.7386C52.451 40.1672 51.3809 38.1651 50.9473 35.9855C50.5138 33.8059 50.7363 31.5466 51.5867 29.4935C52.4372 27.4403 53.8774 25.6854 55.7252 24.4508C57.573 23.2161 59.7454 22.5571 61.9677 22.5571C64.9478 22.5571 67.8057 23.7409 69.913 25.8481C72.0202 27.9554 73.204 30.8134 73.204 33.7934Z" fill="#663366"/>
<path d="M61.1394 34.9453L65.353 37.8808C65.5879 38.0447 65.8672 38.1329 66.1536 38.1336C66.3788 38.1348 66.601 38.0818 66.8015 37.9792C67.0019 37.8765 67.1747 37.7271 67.3054 37.5437C67.5186 37.2398 67.6028 36.8638 67.5397 36.498C67.4765 36.1321 67.2711 35.8062 66.9683 35.5914L63.3727 33.0773V25.7737C63.3727 25.4012 63.2247 25.0439 62.9613 24.7805C62.6979 24.5171 62.3406 24.3691 61.9681 24.3691C61.5956 24.3691 61.2384 24.5171 60.975 24.7805C60.7116 25.0439 60.5636 25.4012 60.5636 25.7737V33.7936C60.5608 34.0175 60.6116 34.239 60.7118 34.4393C60.8119 34.6397 60.9586 34.8131 61.1394 34.9453Z" fill="#663366"/>
<path d="M48.9197 61.1673H58.1334C58.5059 61.1673 58.8632 61.0194 59.1266 60.756C59.39 60.4926 59.538 60.1353 59.538 59.7628V50.5491C59.538 50.1766 59.39 49.8193 59.1266 49.5559C58.8632 49.2925 58.5059 49.1445 58.1334 49.1445H48.9197C48.5472 49.1445 48.1899 49.2925 47.9265 49.5559C47.6631 49.8193 47.5151 50.1766 47.5151 50.5491V59.7628C47.5151 60.1353 47.6631 60.4926 47.9265 60.756C48.1899 61.0194 48.5472 61.1673 48.9197 61.1673ZM50.3242 51.9536H56.7289V58.3583H50.3242V51.9536Z" fill="#663366"/>
<path d="M74.9879 49.1445H65.7742C65.4017 49.1445 65.0444 49.2925 64.781 49.5559C64.5176 49.8193 64.3696 50.1766 64.3696 50.5491V59.7628C64.3696 60.1353 64.5176 60.4926 64.781 60.756C65.0444 61.0194 65.4017 61.1673 65.7742 61.1673H74.9879C75.3604 61.1673 75.7177 61.0194 75.9811 60.756C76.2445 60.4926 76.3924 60.1353 76.3924 59.7628V50.5491C76.3924 50.1766 76.2445 49.8193 75.9811 49.5559C75.7177 49.2925 75.3604 49.1445 74.9879 49.1445ZM73.5834 58.3583H67.1787V51.9536H73.5834V58.3583Z" fill="#663366"/>
<path d="M59.538 74.5109V65.2971C59.538 64.9246 59.39 64.5674 59.1266 64.304C58.8632 64.0406 58.5059 63.8926 58.1334 63.8926H48.9197C48.5472 63.8926 48.1899 64.0406 47.9265 64.304C47.6631 64.5674 47.5151 64.9246 47.5151 65.2971V74.5109C47.5151 74.8834 47.6631 75.2406 47.9265 75.504C48.1899 75.7674 48.5472 75.9154 48.9197 75.9154H58.1334C58.5059 75.9154 58.8632 75.7674 59.1266 75.504C59.39 75.2406 59.538 74.8834 59.538 74.5109ZM50.3242 66.7016H56.7289V73.1063H50.3242V66.7016Z" fill="#663366"/>
<path d="M93.6824 54.2855H102.896C103.269 54.2855 103.626 54.1375 103.889 53.8741C104.153 53.6107 104.301 53.2535 104.301 52.881V43.6672C104.301 43.2947 104.153 42.9375 103.889 42.6741C103.626 42.4107 103.269 42.2627 102.896 42.2627H93.6824C93.3099 42.2627 92.9526 42.4107 92.6892 42.6741C92.4258 42.9375 92.2778 43.2947 92.2778 43.6672V52.881C92.2778 53.2535 92.4258 53.6107 92.6892 53.8741C92.9526 54.1375 93.3099 54.2855 93.6824 54.2855ZM95.0869 45.0718H101.492V51.4764H95.0869V45.0718Z" fill="#663366"/>
<path d="M30.2252 42.2627H21.0115C20.639 42.2627 20.2817 42.4107 20.0183 42.6741C19.7549 42.9375 19.6069 43.2947 19.6069 43.6672V52.881C19.6069 53.2535 19.7549 53.6107 20.0183 53.8741C20.2817 54.1375 20.639 54.2855 21.0115 54.2855H30.2252C30.5977 54.2855 30.955 54.1375 31.2184 53.8741C31.4818 53.6107 31.6297 53.2535 31.6297 52.881V43.6672C31.6297 43.2947 31.4818 42.9375 31.2184 42.6741C30.955 42.4107 30.5977 42.2627 30.2252 42.2627ZM28.8207 51.4764H22.416V45.0718H28.8207V51.4764Z" fill="#663366"/>
<path d="M30.2252 57.0107H21.0115C20.639 57.0107 20.2817 57.1587 20.0183 57.4221C19.7549 57.6855 19.6069 58.0428 19.6069 58.4153V67.629C19.6069 68.0015 19.7549 68.3588 20.0183 68.6222C20.2817 68.8856 20.639 69.0336 21.0115 69.0336H30.2252C30.5977 69.0336 30.955 68.8856 31.2184 68.6222C31.4818 68.3588 31.6297 68.0015 31.6297 67.629V58.4153C31.6297 58.0428 31.4818 57.6855 31.2184 57.4221C30.955 57.1587 30.5977 57.0107 30.2252 57.0107ZM28.8207 66.2245H22.416V59.8198H28.8207V66.2245Z" fill="#663366"/>
<path d="M30.2252 71.7588H21.0115C20.639 71.7588 20.2817 71.9068 20.0183 72.1702C19.7549 72.4336 19.6069 72.7908 19.6069 73.1633V82.3771C19.6069 82.7496 19.7549 83.1068 20.0183 83.3702C20.2817 83.6336 20.639 83.7816 21.0115 83.7816H30.2252C30.5977 83.7816 30.955 83.6336 31.2184 83.3702C31.4818 83.1068 31.6297 82.7496 31.6297 82.3771V73.1633C31.6297 72.7908 31.4818 72.4336 31.2184 72.1702C30.955 71.9068 30.5977 71.7588 30.2252 71.7588ZM28.8207 80.9725H22.416V74.5679H28.8207V80.9725Z" fill="#663366"/>
<path d="M126.661 116.674C126.062 116.081 125.299 115.68 124.47 115.525C123.641 115.37 122.785 115.467 122.012 115.804L113.936 107.826C116.845 103.508 118.4 98.4188 118.4 93.2116C118.4 88.0044 116.845 82.9158 113.936 78.5975V36.6862C113.936 36.3136 113.788 35.9564 113.524 35.693C113.261 35.4296 112.904 35.2816 112.531 35.2816H85.4656V11.4045C85.4656 11.032 85.3177 10.6748 85.0543 10.4114C84.7909 10.148 84.4336 10 84.0611 10H39.8323C39.4598 10 39.1026 10.148 38.8392 10.4114C38.5758 10.6748 38.4278 11.032 38.4278 11.4045V35.2816H11.4045C11.032 35.2816 10.6748 35.4296 10.4114 35.693C10.148 35.9564 10 36.3136 10 36.6862V112.531C10 112.904 10.148 113.261 10.4114 113.524C10.6748 113.788 11.032 113.936 11.4045 113.936H76.4485C80.7868 117.269 86.0648 119.151 91.5332 119.315C97.0016 119.478 102.383 117.916 106.913 114.848L114.919 122.854C114.576 123.631 114.475 124.493 114.631 125.328C114.786 126.162 115.19 126.93 115.79 127.531L127.026 138.768C127.816 139.557 128.887 140 130.003 140C131.12 140 132.191 139.557 132.981 138.768L137.925 133.824C138.714 133.034 139.157 131.963 139.157 130.846C139.157 129.73 138.714 128.659 137.925 127.869L126.661 116.674ZM135.931 131.885L130.973 136.844C130.71 137.101 130.357 137.245 129.989 137.245C129.622 137.245 129.269 137.101 129.006 136.844L117.77 125.607C117.508 125.344 117.361 124.988 117.361 124.617C117.361 124.246 117.508 123.89 117.77 123.627L122.714 118.683C122.977 118.421 123.333 118.274 123.704 118.274C124.075 118.274 124.431 118.421 124.694 118.683L135.931 129.919C136.188 130.182 136.332 130.535 136.332 130.902C136.332 131.27 136.188 131.623 135.931 131.885ZM19.8317 111.098V90.536H31.377V111.098H19.8317ZM32.7815 87.7269H18.4272C18.0547 87.7269 17.6975 87.8749 17.4341 88.1383C17.1706 88.4017 17.0227 88.759 17.0227 89.1315V111.098H12.8091V38.0626H38.4278V111.098H34.2142V89.1315C34.2142 88.9458 34.1774 88.762 34.1059 88.5907C34.0345 88.4194 33.9298 88.2639 33.7978 88.1333C33.6659 88.0027 33.5094 87.8995 33.3374 87.8298C33.1654 87.76 32.9812 87.7251 32.7956 87.7269H32.7815ZM111.084 75.0861L110.775 74.749C108.278 72.2478 105.295 70.2834 102.011 68.9764H102.882C103.254 68.9764 103.612 68.8284 103.875 68.565C104.138 68.3016 104.286 67.9444 104.286 67.5719V58.4143C104.286 58.0418 104.138 57.6845 103.875 57.4211C103.612 57.1577 103.254 57.0098 102.882 57.0098H93.6822C93.3097 57.0098 92.9524 57.1577 92.689 57.4211C92.4256 57.6845 92.2776 58.0418 92.2776 58.4143V67.1645C89.9755 67.1778 87.6851 67.4942 85.4656 68.1056V38.0907H111.126L111.084 75.0861ZM41.2368 111.098V12.781H82.6566V68.9624C80.4015 69.9097 78.2924 71.1723 76.3923 72.7125V65.2965C76.3923 64.924 76.2444 64.5668 75.981 64.3034C75.7176 64.04 75.3603 63.892 74.9878 63.892H65.7741C65.4016 63.892 65.0443 64.04 64.7809 64.3034C64.5175 64.5668 64.3695 64.924 64.3695 65.2965V74.5103C64.3695 74.8828 64.5175 75.24 64.7809 75.5034C65.0443 75.7668 65.4016 75.9148 65.7741 75.9148H72.895C71.8912 77.0309 70.9887 78.2342 70.1983 79.5104H52.2484C51.8759 79.5104 51.5186 79.6584 51.2552 79.9218C50.9918 80.1852 50.8439 80.5424 50.8439 80.9149V111.098H41.2368ZM73.5411 66.7011V73.1057H67.1786V66.7011H73.5411ZM53.6529 82.3195H68.6955C66.88 86.2545 66.0719 90.5794 66.3441 94.9045C66.6162 99.2296 67.9601 103.419 70.2545 107.095V111.098H53.6529V82.3195ZM95.0867 66.2235V59.8188H101.491V66.2235H95.0867ZM73.0636 111.098V110.775L73.3585 111.098H73.0636ZM75.8727 109.694C72.6191 106.439 70.4039 102.292 69.5069 97.7774C68.61 93.2632 69.0716 88.5845 70.8335 84.3326C72.5953 80.0807 75.5783 76.4467 79.4053 73.89C83.2322 71.3333 87.7314 69.9687 92.3338 69.9687C96.9362 69.9687 101.435 71.3333 105.262 73.89C109.089 76.4467 112.072 80.0807 113.834 84.3326C115.596 88.5845 116.058 93.2632 115.161 97.7774C114.264 102.292 112.048 106.439 108.795 109.694C104.432 114.057 98.5167 116.511 92.3466 116.516C86.1766 116.521 80.2566 114.078 75.8867 109.722L75.8727 109.694ZM109.16 113.177C109.728 112.738 110.272 112.27 110.789 111.773C111.323 111.239 111.815 110.691 112.278 110.129L119.792 117.629L116.66 120.762L109.16 113.177Z" fill="#663366"/>
<path d="M92.3476 112.236C96.7399 112.249 101.001 110.739 104.405 107.964C107.809 105.188 110.145 101.318 111.016 97.0126C111.887 92.7076 111.239 88.2337 109.181 84.353C107.124 80.4723 103.785 77.4247 99.7335 75.7294C95.6816 74.034 91.1673 73.7957 86.9594 75.0551C82.7515 76.3144 79.1103 78.9935 76.6559 82.636C74.2016 86.2785 73.0858 90.6593 73.4987 95.0321C73.9115 99.4049 75.8275 103.499 78.9203 106.618C80.6724 108.4 82.7624 109.815 85.0679 110.78C87.3735 111.745 89.8484 112.24 92.3476 112.236ZM108.514 93.2611C108.51 97.0006 107.209 100.623 104.834 103.511C102.459 106.4 99.1564 108.375 95.4881 109.102C91.8199 109.828 88.0132 109.261 84.7166 107.495C81.4199 105.73 78.8372 102.877 77.4082 99.4211C75.9793 95.9654 75.7926 92.1211 76.8799 88.5432C77.9672 84.9653 80.2612 81.8749 83.3713 79.7986C86.4813 77.7222 90.215 76.7882 93.9364 77.1557C97.6578 77.5233 101.137 79.1695 103.781 81.8141C105.286 83.3155 106.479 85.0999 107.291 87.0645C108.104 89.0291 108.519 91.1351 108.514 93.2611Z" fill="#663366"/>
</svg>
