<svg width="150" height="150" viewBox="0 0 150 150" fill="none" xmlns="http://www.w3.org/2000/svg">
<path fill-rule="evenodd" clip-rule="evenodd" d="M32.9729 33.3071C32.9729 32.4097 33.7048 31.6875 34.5904 31.6875H76.258C77.1543 31.6875 77.8597 32.4097 77.8597 33.3071C77.8597 34.2045 77.1384 34.9267 76.258 34.9267H34.5904C33.7048 34.9267 32.9729 34.2045 32.9729 33.3071ZM65.79 114.044H91.4102V117.346H65.79V114.044ZM64.1725 120.596H93.0226C93.9189 120.596 94.6401 119.874 94.6401 118.977V112.424C94.6401 111.527 93.9082 110.804 93.0226 110.804L64.1725 110.81C63.2762 110.81 62.555 111.532 62.555 112.429V118.982C62.555 119.863 63.2763 120.596 64.1725 120.596ZM65.79 99.9768H91.4102V103.28H65.79V99.9768ZM64.1725 106.524H93.0226C93.9189 106.524 94.6401 105.802 94.6401 104.905V98.3519C94.6401 97.4545 93.9082 96.7323 93.0226 96.7323L64.1725 96.7376C63.2762 96.7376 62.555 97.4598 62.555 98.3572V104.91C62.555 105.807 63.2763 106.524 64.1725 106.524ZM65.79 85.9211H91.4102V89.2241H65.79V85.9211ZM64.1725 92.4579H93.0226C93.9189 92.4579 94.6401 91.7358 94.6401 90.8383V84.2856C94.6401 83.3882 93.9082 82.666 93.0226 82.666L64.1725 82.6713C63.2762 82.6713 62.555 83.3935 62.555 84.2909V90.8437C62.555 91.7358 63.2763 92.4579 64.1725 92.4579ZM23.0615 107.534H26.6306L26.6359 113.555H23.0668L23.0615 107.534ZM22.1971 116.805H27.5057C28.821 116.805 29.8658 115.743 29.8658 114.442V106.668C29.8658 105.362 28.8051 104.305 27.5057 104.305L22.1971 104.3C20.8818 104.3 19.8371 105.362 19.8371 106.663V114.437C19.8318 115.733 20.8765 116.805 22.1971 116.805ZM23.0615 90.1487H26.6306V96.1705H23.0615V90.1487ZM22.1971 99.4203H27.5057C28.821 99.4203 29.8658 98.3582 29.8658 97.0572V89.2831C29.8658 87.9767 28.8051 86.92 27.5057 86.92L22.1971 86.9094C20.8818 86.9094 19.8371 87.9714 19.8371 89.2724V97.0466C19.8318 98.3423 20.8765 99.4203 22.1971 99.4203ZM23.0615 72.7583H26.6306V78.78H23.0615V72.7583ZM22.1971 82.0298H27.5057C28.821 82.0298 29.8658 80.9678 29.8658 79.6668V71.8926C29.8658 70.5863 28.8051 69.5295 27.5057 69.5295L22.1971 69.5242C20.8818 69.5242 19.8371 70.5863 19.8371 71.8873V79.6614C19.8318 80.9571 20.8765 82.0298 22.1971 82.0298ZM42.965 107.535H46.5342L46.5395 113.557H42.965L42.965 107.535ZM42.1006 116.807H47.4093C48.7245 116.807 49.7693 115.744 49.7693 114.443V106.669C49.7693 105.363 48.7086 104.306 47.4093 104.306H42.1006C40.7854 104.306 39.7406 105.368 39.7406 106.669V114.443C39.7247 115.734 40.78 116.807 42.1006 116.807ZM42.965 90.1499H46.5342V96.1717H42.965V90.1499ZM42.1006 99.4215H47.4093C48.7245 99.4215 49.7693 98.3595 49.7693 97.0584V89.2843C49.7693 87.978 48.7086 86.9212 47.4093 86.9212H42.1006C40.7854 86.9212 39.7406 87.9833 39.7406 89.2843V97.0584C39.7247 98.3435 40.78 99.4215 42.1006 99.4215ZM42.965 72.7595H46.5342V78.7812L42.965 78.7865V72.7595ZM42.1006 82.031H47.4093C48.7245 82.031 49.7693 80.969 49.7693 79.668V71.8938C49.7693 70.5875 48.7086 69.5308 47.4093 69.5308H42.1006C40.7854 69.5308 39.7406 70.5928 39.7406 71.8938V79.668C39.7247 80.9584 40.78 82.031 42.1006 82.031ZM125.84 68.3309C125.84 67.4335 126.572 66.7113 127.458 66.7113H131.329C132.226 66.7113 132.947 67.4335 132.947 68.3309C132.947 69.2284 132.215 69.9505 131.329 69.9505H127.458C126.572 69.9505 125.84 69.2284 125.84 68.3309ZM136.765 72.4888V58.6243H122.012V72.4888C122.012 75.5475 124.494 78.022 127.538 78.022H131.245C134.284 78.0379 136.765 75.5475 136.765 72.4888ZM97.6107 125.75V76.6636L54.4945 41.1437V57.3179H57.9681C58.8644 57.3179 59.5856 58.04 59.5856 58.9375V125.74H97.6107V125.75ZM56.3558 125.75V60.5682H13.2504V125.75H56.3558ZM30.5876 25.2386V57.3328H51.2646V46.0646H34.5913C33.695 46.0646 32.9738 45.3424 32.9738 44.445C32.9738 43.5476 33.7056 42.8254 34.5913 42.8254H51.2497V37.7117C51.2497 37.0851 51.6156 36.5169 52.1725 36.2461C52.7293 35.9753 53.4081 36.055 53.896 36.4639L61.6229 42.8255H76.2597C77.156 42.8255 77.8614 43.5476 77.8614 44.4451C77.8614 45.3425 77.1401 46.0647 76.2597 46.0647H65.563L80.2799 58.1772L80.2746 25.2388L30.5876 25.2386ZM138.399 55.3902H136.781V47.0321C136.781 46.1346 136.049 45.4125 135.164 45.4125C134.283 45.4125 133.546 46.1346 133.546 47.0321V55.3902H125.241V47.0321C125.241 46.1346 124.509 45.4125 123.624 45.4125C122.711 45.4125 122.006 46.1346 122.006 47.0321V55.3902H120.389C119.492 55.3902 118.771 56.1124 118.771 57.0098V72.4948C118.771 77.3324 122.706 81.2778 127.543 81.2778H127.776V119.096C127.776 122.766 124.79 125.755 121.126 125.755C117.461 125.755 114.475 122.766 114.475 119.096V101.636C114.475 100.739 113.744 100.017 112.858 100.017H100.872V75.9035C100.872 75.415 100.655 74.9636 100.273 74.6503L83.5089 60.8387V23.6196C83.5089 22.7222 82.777 22 81.8914 22H28.9702C28.0739 22 27.3527 22.7222 27.3527 23.6196V57.3342H11.6175C10.7212 57.3342 10 58.0564 10 58.9538V127.37C10 128.267 10.7319 128.99 11.6175 128.99H99.228C100.124 128.99 100.846 128.267 100.846 127.37V103.257H111.219V119.091C111.219 124.555 115.658 129 121.104 129C126.551 129 130.989 124.555 130.989 119.091L130.984 81.2725H131.218C136.065 81.2725 140 77.3324 140 72.4895V57.0045C140.01 56.1071 139.279 55.3902 138.399 55.3902Z" fill="#663366"/>
</svg>
