<svg width="150" height="150" viewBox="0 0 150 150" fill="none" xmlns="http://www.w3.org/2000/svg">
<path d="M51.2686 56.3023C51.2686 54.5483 49.9273 53.207 48.1734 53.207C46.4194 53.207 45.0781 54.5483 45.0781 56.3023C45.0781 58.0562 46.4194 59.3975 48.1734 59.3975C49.9273 59.3975 51.2686 58.0562 51.2686 56.3023Z" fill="#663366"/>
<path d="M43.0156 64.5557C43.0156 65.6906 43.9442 66.6192 45.0791 66.6192H50.2378C51.3728 66.6192 52.3013 65.6906 52.3013 64.5557C52.3013 63.4208 51.3728 62.4922 50.2378 62.4922H45.0791C43.9442 62.4922 43.0156 63.4208 43.0156 64.5557Z" fill="#663366"/>
<path d="M26.5079 96.9524V123.365H17.2222C16.0873 123.365 15.1587 124.294 15.1587 125.429V133.683C15.1587 134.817 16.0873 135.746 17.2222 135.746H137.937C139.071 135.746 140 134.817 140 133.683V125.429C140 124.294 139.071 123.365 137.937 123.365H120.397V87.254H134.841C137.73 87.254 140 84.9841 140 82.0952V74.873C140 73.7381 139.587 72.7063 138.968 71.7778V56.3016C138.968 55.1667 138.04 54.2381 136.905 54.2381H134.841C131.23 54.2381 128.238 56.9206 127.722 60.4286H113.175C113.175 58.6746 111.833 57.3333 110.079 57.3333H93.5714C90.6825 57.3333 88.4127 59.6032 88.4127 62.4921V68.6825C88.4127 68.9921 88.4127 69.4048 88.5159 69.7143H83.4603C84.5952 68.0635 85.3175 66.2063 85.3175 64.0397C85.3175 58.6746 80.881 54.2381 75.5159 54.2381C70.1508 54.2381 65.7143 58.6746 65.7143 64.0397C65.7143 66.2063 66.4365 68.2698 67.6746 69.8175C65.8175 70.2302 64.2698 71.7778 63.8571 73.6349C61.1746 69.9206 59.5238 65.381 59.5238 60.4286C59.5238 47.9444 69.7381 37.7302 82.2222 37.7302C92.2302 37.7302 100.897 44.127 103.889 53.7222C104.198 54.8571 105.333 55.373 106.468 55.0635C107.603 54.754 108.119 53.619 107.81 52.4841C104.302 41.1349 94.0873 33.6032 82.2222 33.6032C67.4683 33.6032 55.3968 45.6746 55.3968 60.4286C55.3968 68.2698 58.8016 75.3889 64.1667 80.3413C64.2698 80.4444 64.373 80.5476 64.4762 80.6508C69.2222 84.7778 75.4127 87.254 82.119 87.254H85.2143V102.627C84.1825 102.73 83.1508 102.73 82.119 102.73C58.8016 102.73 39.8175 83.746 39.8175 60.4286C39.8175 40.619 53.4365 24.0079 71.8016 19.3651V23.2857C71.8016 26.6905 74.5873 29.4762 77.9921 29.4762H86.246C89.6508 29.4762 92.4365 26.6905 92.4365 23.2857V19.4683C108.738 23.5952 121.532 37.2143 124.008 54.4444C124.214 55.5794 125.246 56.4048 126.381 56.1984C127.516 55.9921 128.341 54.9603 128.135 53.8254C125.349 34.119 109.976 18.5397 90.8889 14.9286C90.7857 14.9286 90.7857 14.9286 90.6825 14.9286C88 14.3095 85.1111 14 82.2222 14H54.3651C42.0873 14 30.7381 18.8492 22.4841 27.619C14.4365 36.2857 10 47.9444 10 60.4286C10 72.9127 14.4365 84.5714 22.4841 93.2381C23.8254 94.5794 25.0635 95.8175 26.5079 96.9524ZM135.873 131.619H19.2857V127.492H135.873V131.619ZM135.873 82.0952C135.873 82.7143 135.46 83.127 134.841 83.127H82.2222C76.754 83.127 71.6984 81.1667 67.7778 77.9683V74.873C67.7778 74.254 68.1905 73.8413 68.8095 73.8413H93.5714H111.111H134.841C135.46 73.8413 135.873 74.254 135.873 74.873V82.0952ZM131.746 61.4603C131.746 59.7063 133.087 58.3651 134.841 58.3651V69.7143H131.746V62.4921V61.4603ZM127.619 64.5556V69.7143H113.175V64.5556H127.619ZM92.5397 68.6825V62.4921C92.5397 61.873 92.9524 61.4603 93.5714 61.4603H109.048V62.4921V69.7143H93.5714C92.9524 69.7143 92.5397 69.3016 92.5397 68.6825ZM75.5159 58.3651C78.6111 58.3651 81.1905 60.9444 81.1905 64.0397C81.1905 67.1349 78.6111 69.7143 75.5159 69.7143C72.4206 69.7143 69.8413 67.1349 69.8413 64.0397C69.8413 60.9444 72.4206 58.3651 75.5159 58.3651ZM116.27 87.254V123.365H89.4444V87.254H116.27ZM85.3175 106.754V123.365H65.7143V103.865C70.873 105.825 76.4444 106.857 82.2222 106.857C83.254 106.857 84.2857 106.857 85.3175 106.754ZM88.4127 23.2857C88.4127 24.4206 87.4841 25.3492 86.3492 25.3492H78.0952C76.9603 25.3492 76.0317 24.4206 76.0317 23.2857V18.5397C78.0952 18.2302 80.1587 18.127 82.2222 18.127C84.2857 18.127 86.3492 18.3333 88.4127 18.6429V23.2857ZM54.3651 18.127H63.1349C47.0397 25.4524 35.7937 41.6508 35.7937 60.4286C35.7937 78.5873 46.3175 94.373 61.5873 102.008V123.365H30.6349V99.9444C37.5476 104.381 45.6984 106.857 54.3651 106.857H55.3968C56.5317 106.857 57.4603 105.929 57.4603 104.794C57.4603 103.659 56.5317 102.73 55.3968 102.73H54.3651C45.0794 102.73 36.8254 99.7381 30.119 94.6825C29.9127 94.4762 29.7064 94.2698 29.5 94.1667C20.0079 86.5317 14.127 74.4603 14.127 60.4286C14.127 36.2857 31.4603 18.127 54.3651 18.127Z" fill="#663366"/>
</svg>
