<svg width="150" height="150" viewBox="0 0 150 150" fill="none" xmlns="http://www.w3.org/2000/svg">
<path d="M79.649 109.144C80.5292 109.144 81.2402 109.852 81.2402 110.729C81.2402 111.606 80.5293 112.314 79.649 112.314H70.3503C69.47 112.314 68.7591 111.606 68.7591 110.729C68.7591 109.852 69.47 109.144 70.3503 109.144H79.649ZM11.5903 98.2646C12.4706 98.2646 13.1816 97.5565 13.1816 96.6798V40.7036C13.1816 36.8992 16.2905 33.8027 20.1105 33.8027L102.794 33.8364H102.8H102.811H102.834C103.714 33.8364 104.425 33.1284 104.425 32.2517C104.425 32.0381 104.38 31.8358 104.301 31.6447C103.5 28.318 103.838 24.862 105.159 21.7655L119.62 33.3587C119.914 33.5947 120.269 33.7071 120.619 33.7071C121.082 33.7071 121.545 33.5048 121.861 33.1171C122.413 32.4371 122.306 31.4424 121.618 30.8917L106.717 18.9389C107.033 18.4893 107.36 18.0397 107.727 17.6183C108.297 16.9551 108.223 15.9549 107.558 15.3817C106.892 14.8141 105.887 14.8871 105.312 15.5502C101.689 19.7481 100.104 25.2721 100.877 30.6614L20.1114 30.6389C14.5366 30.6389 10.0001 35.157 10.0001 40.7092V96.6796C10.0001 97.5563 10.7101 98.2646 11.5903 98.2646ZM133.111 31.1837C132.276 30.9028 131.379 31.3523 131.097 32.184C130.821 33.0157 131.266 33.9092 132.101 34.1901C134.878 35.1118 136.818 37.7923 136.818 40.7032V109.886C136.818 113.707 133.71 116.82 129.89 116.82H20.1105C16.2906 116.82 13.1816 113.713 13.1816 109.886V104.637H126.521C127.401 104.637 128.112 103.929 128.112 103.052C128.112 102.176 127.401 101.468 126.521 101.468H11.5912C10.711 101.468 10 102.176 10 103.052V109.891C10 115.46 14.5365 119.99 20.1112 119.99H73.4089V132.825H41.456C40.5758 132.825 39.8648 133.533 39.8648 134.415C39.8648 135.286 40.5757 136 41.456 136H108.544C109.424 136 110.135 135.292 110.135 134.415C110.135 133.539 109.424 132.825 108.544 132.825H76.5911V119.99H129.889C135.464 119.99 140 115.46 140 109.891V40.703C140 36.3816 137.23 32.5493 133.111 31.1837ZM47.1038 82.1033H25.4138C24.5392 82.1033 23.8226 82.8113 23.8226 83.688C23.8226 84.5647 24.5336 85.2728 25.4138 85.2728H47.1038C47.9841 85.2728 48.6951 84.5647 48.6951 83.688C48.6951 82.8113 47.9841 82.1033 47.1038 82.1033ZM47.1038 74.708H28.4732C27.593 74.708 26.882 75.416 26.882 76.2927C26.882 77.1694 27.5929 77.8775 28.4732 77.8775H47.0995C47.9797 77.8775 48.6907 77.1694 48.6907 76.2927C48.6964 75.4161 47.9841 74.708 47.1038 74.708ZM47.1038 89.4983H25.4138C24.5392 89.4983 23.8226 90.2063 23.8226 91.083C23.8226 91.9598 24.5336 92.6734 25.4138 92.6734H47.1038C47.9841 92.6734 48.6951 91.9654 48.6951 91.083C48.6951 90.212 47.9841 89.4983 47.1038 89.4983ZM81.5456 88.3406C81.8446 88.5991 82.217 88.7228 82.5838 88.7228C83.0352 88.7228 83.4753 88.5373 83.7912 88.1721C87.8538 83.4685 89.366 77.0903 87.8425 71.1174C87.6281 70.2688 86.7592 69.7574 85.9072 69.971C85.0552 70.1901 84.5418 71.0499 84.7562 71.8984C85.6195 75.2758 85.2866 78.7937 83.9437 81.9406L69.4759 70.3643C68.7932 69.8136 67.7888 69.9259 67.2359 70.6059C66.6829 71.2859 66.7958 72.2862 67.4785 72.8369L82.3911 84.7729C82.0751 85.2281 81.7422 85.6833 81.3755 86.1104C80.8056 86.7735 80.8798 87.7674 81.5456 88.3406ZM94.179 68.6159C94.1846 68.6159 94.1902 68.6215 94.1902 68.6215C94.3821 68.6215 94.5739 68.5766 94.7545 68.5147C97.9707 67.8573 101.057 66.3456 103.788 63.991C109.854 58.7593 112.376 50.7626 110.226 43.6203C109.972 42.783 109.086 42.311 108.245 42.5583C107.405 42.8111 106.925 43.6934 107.179 44.5307C108.161 47.79 107.952 51.2742 106.728 54.483L91.6619 42.3784C90.9792 41.8277 89.9748 41.9345 89.4218 42.6144C88.8689 43.3 88.9761 44.2947 89.6588 44.8454L105.276 57.394C104.328 58.9281 103.132 60.3555 101.693 61.5975C99.5266 63.4688 97.0891 64.7107 94.5501 65.3063L89.1559 60.9905C88.4675 60.4398 87.4687 60.5466 86.9158 61.2321C86.3628 61.9177 86.4757 62.9068 87.1584 63.4575L89.9176 65.6661C88.0726 65.5312 86.2331 65.0592 84.4558 64.2387C76.3702 60.496 66.5922 62.9518 61.2029 70.0718C60.6725 70.7687 60.8136 71.7633 61.5189 72.2916C61.8066 72.5051 62.1452 72.6063 62.4725 72.6063C62.9577 72.6063 63.4317 72.3928 63.7476 71.9769C65.8974 69.1334 68.8879 67.2003 72.1548 66.2787L80.3871 72.9042C80.6805 73.1403 81.036 73.2583 81.3858 73.2583C81.8485 73.2583 82.3112 73.056 82.6215 72.6682C83.1745 71.9882 83.0673 70.9879 82.3845 70.4372L76.4543 65.6662C78.7113 65.655 80.9851 66.127 83.1124 67.1104C86.7179 68.7625 90.5153 69.2403 94.1772 68.6165L94.179 68.6159ZM112.167 33.6289C111.484 33.0782 110.48 33.185 109.927 33.865C109.374 34.5505 109.481 35.5453 110.164 36.096L112.613 38.0684C110.361 38.0741 108.093 37.6132 105.966 36.6298C99.0255 33.421 91.3116 34.5843 85.32 39.7487C79.2488 44.9861 76.7154 52.9772 78.865 60.1194C79.0738 60.8106 79.7057 61.249 80.3885 61.249C80.5408 61.249 80.6932 61.2265 80.8455 61.1815C81.6862 60.9343 82.1659 60.0464 81.9119 59.209C80.9302 55.9497 81.1389 52.4712 82.3633 49.2624L98.0155 61.8277C98.3089 62.0638 98.6644 62.1818 99.0142 62.1818C99.4769 62.1818 99.9396 61.9795 100.256 61.5917C100.809 60.9117 100.701 59.917 100.019 59.3607L83.8132 46.3514C84.7611 44.8173 85.963 43.3843 87.4018 42.1423C89.5629 40.2766 91.9891 39.0404 94.5113 38.4447L102.614 44.9296C102.907 45.1656 103.257 45.278 103.607 45.278C104.07 45.278 104.532 45.0757 104.848 44.688C105.401 44.008 105.288 43.0077 104.606 42.457L99.1211 38.0681C100.978 38.2029 102.834 38.6806 104.623 39.5067C112.719 43.2324 122.498 40.7823 127.875 33.6736C128.406 32.9767 128.265 31.982 127.559 31.4538C126.86 30.9312 125.855 31.066 125.331 31.7685C123.187 34.6064 120.19 36.5395 116.918 37.4554L112.167 33.6289ZM48.6958 57.5516C48.6958 58.4282 47.9848 59.1363 47.1046 59.1363H40.5198V65.6944C40.5198 66.571 39.8089 67.2791 38.9286 67.2791H31.9715C31.0913 67.2791 30.3803 66.5711 30.3803 65.6944V59.1363H23.7956C22.9154 59.1363 22.2044 58.4283 22.2044 57.5516V50.6226C22.2044 49.746 22.9153 49.0379 23.7956 49.0379H30.3803V42.4798C30.3803 41.6032 31.0913 40.8951 31.9715 40.8951H38.9286C39.8089 40.8951 40.5198 41.6031 40.5198 42.4798V49.0379H47.1046C47.9848 49.0379 48.6958 49.7459 48.6958 50.6226V57.5516ZM45.5135 52.2074H38.9288C38.0485 52.2074 37.3376 51.4993 37.3376 50.6226V44.0646H33.5627V50.6226C33.5627 51.4937 32.8518 52.2074 31.9715 52.2074H25.3868V55.9669H31.9715C32.8517 55.9669 33.5627 56.675 33.5627 57.5517V64.1097H37.3376V57.5517C37.3376 56.675 38.0485 55.9669 38.9288 55.9669H45.5135V52.2074Z" fill="#663366"/>
</svg>
