<svg width="150" height="150" viewBox="0 0 150 150" fill="none" xmlns="http://www.w3.org/2000/svg">
<path d="M90.8913 19.8906H37.1956C34.0869 19.8906 31.5435 22.4341 31.5435 25.5428V50.9776C31.5435 54.0863 34.0869 56.6298 37.1956 56.6298H90.8913C94 56.6298 96.5435 54.0863 96.5435 50.9776V25.5428C96.5435 22.4341 94 19.8906 90.8913 19.8906ZM93.7174 50.9776C93.7174 52.5319 92.4456 53.8037 90.8913 53.8037H37.1956C35.6413 53.8037 34.3695 52.5319 34.3695 50.9776V25.5428C34.3695 23.9885 35.6413 22.7167 37.1956 22.7167H90.8913C92.4456 22.7167 93.7174 23.9885 93.7174 25.5428V50.9776Z" fill="#663366"/>
<path d="M65.0325 64.1192C64.7499 63.8366 64.4673 63.6953 64.0434 63.6953C63.6195 63.6953 63.3369 63.8366 63.0543 64.1192C62.3477 64.9671 45.6738 83.4779 45.6738 99.0214C45.6738 114.989 62.913 121.206 63.6195 121.489C63.7608 121.489 63.9021 121.63 64.0434 121.63C64.1847 121.63 64.326 121.63 64.4673 121.489C65.1738 121.347 82.413 115.13 82.413 99.0214C82.413 83.4779 65.739 64.9671 65.0325 64.1192ZM48.4999 99.0214C48.4999 87.9997 57.9673 74.7171 62.6304 68.9236V89.8366L58.5325 85.1736C57.9673 84.6084 57.1195 84.6084 56.5543 85.0323C55.989 85.5975 55.989 86.4453 56.413 87.0105L62.6304 93.9344V108.347L56.5543 102.413C55.989 101.847 55.1412 101.847 54.576 102.413C54.0108 102.978 54.0108 103.826 54.576 104.391L62.6304 112.304V117.815C58.3912 116.119 48.4999 110.184 48.4999 99.0214ZM65.4564 118.097V102.413L72.5217 95.4888C73.0869 94.9236 73.0869 94.0757 72.5217 93.5105C71.9564 92.9453 71.1086 92.9453 70.5434 93.5105L65.4564 98.4562V83.9018L69.8369 77.8257C70.2608 77.2605 70.1195 76.2714 69.5543 75.8475C68.989 75.4236 67.9999 75.5649 67.576 76.1301L65.4564 79.0975V68.9236C70.1195 74.7171 79.5869 87.9997 79.5869 99.0214C79.5869 110.184 69.6956 116.119 65.4564 118.097Z" fill="#663366"/>
<path d="M64.0435 28.3691C53.587 28.3691 44.2609 35.717 41.4348 46.3148C41.2935 46.7387 41.4348 47.1626 41.7174 47.5865C42 47.8691 42.424 48.1517 42.8479 48.1517H46.5218C46.9457 48.1517 47.3696 48.0104 47.6522 47.5865C50.7609 44.0539 55.1414 41.9344 59.6631 41.9344C64.1848 41.9344 68.7066 44.0539 71.674 47.5865C71.9566 47.8691 72.3805 48.1517 72.8044 48.1517H85.2392C85.6631 48.1517 86.087 48.0104 86.3696 47.5865C86.6522 47.3039 86.6522 46.7387 86.6522 46.3148C83.8261 35.717 74.5 28.3691 64.0435 28.3691ZM65.4566 40.0974V31.1952C69.6957 31.4778 73.7935 33.1735 76.9022 35.9996L69.5544 42.0757C68.2827 41.3691 66.8696 40.6626 65.4566 40.0974ZM45.9566 45.3257H44.8261C45.9566 42.3583 47.6522 39.6735 49.7718 37.4126L52.3153 40.8039C49.7718 41.7931 47.6522 43.3474 45.9566 45.3257ZM55 39.8148L51.75 35.5757C54.8587 33.1735 58.674 31.6191 62.6305 31.3365V39.5322C61.6414 39.3909 60.6522 39.2496 59.6631 39.2496C58.1087 39.1083 56.4131 39.3909 55 39.8148ZM73.3696 45.3257C72.9457 44.7604 72.3805 44.3365 71.9566 43.9126L79.0218 37.9778C80.8587 40.0974 82.4131 42.4996 83.4022 45.3257H73.3696Z" fill="#663366"/>
<path d="M133.283 53.8043H131.87V46.7391C131.87 46.3152 131.587 45.8913 131.304 45.6087L114.913 34.7283V29.7826C114.913 28.9348 114.348 28.3696 113.5 28.3696H106.435V25.5435C106.435 16.9239 99.5109 10 90.8913 10H37.1957C28.5761 10 21.6522 16.9239 21.6522 25.5435V128.837C18.4022 129.543 16 132.37 16 135.761V138.587C16 139.435 16.5652 140 17.413 140H110.674C111.522 140 112.087 139.435 112.087 138.587V135.761C112.087 132.37 109.685 129.543 106.435 128.837V115.978H113.5C114.348 115.978 114.913 115.413 114.913 114.565V108.772C124.38 108.065 131.87 100.152 131.87 90.5435V62.2826H133.283C134.13 62.2826 134.696 61.7174 134.696 60.8696V55.2174C134.696 54.3696 134.13 53.8043 133.283 53.8043ZM129.043 47.4457V53.8043H123.391V48.1522C123.391 47.7283 123.109 47.3043 122.826 47.0217L114.913 41.7935V38.1196L129.043 47.4457ZM119.152 53.8043C118.304 53.8043 117.739 54.3696 117.739 55.2174V60.8696C117.739 61.7174 118.304 62.2826 119.152 62.2826H120.565V90.5435C120.565 93.9348 118.163 96.7609 114.913 97.4674V91.9565C114.913 91.1087 114.348 90.5435 113.5 90.5435H106.435V53.8043H113.5C114.348 53.8043 114.913 53.2391 114.913 52.3913V45.1848L120.565 49V53.8043H119.152ZM112.087 31.1957V50.9783H106.435V31.1957H112.087ZM24.4783 25.5435C24.4783 18.4783 30.1304 12.8261 37.1957 12.8261H90.8913C97.9565 12.8261 103.609 18.4783 103.609 25.5435V29.7826V52.3913V91.9565V114.565V128.696H24.4783V25.5435ZM109.261 135.761V137.174H18.8261V135.761C18.8261 133.359 20.663 131.522 23.0652 131.522H105.022C107.424 131.522 109.261 133.359 109.261 135.761ZM112.087 113.152H106.435V93.3696H112.087V99.0217V107.5V113.152ZM129.043 90.5435C129.043 98.5978 122.826 105.239 114.913 106.087V100.435C119.717 99.7283 123.391 95.6304 123.391 90.6848V62.2826H129.043V90.5435ZM131.87 59.4565H130.457H121.978H120.565V56.6304H131.87V59.4565Z" fill="#663366"/>
</svg>
