<svg width="150" height="150" viewBox="0 0 150 150" fill="none" xmlns="http://www.w3.org/2000/svg">
<path d="M131.925 23.9221H112.547L109.471 12.5157C109.173 11.4222 108.048 10.7758 106.948 11.0718L93.4801 14.6604C93.1518 13.9717 92.4404 13.4944 91.6196 13.4944L33.7248 13.4884C32.5878 13.4884 31.6637 14.4067 31.6637 15.5364V23.922H18.0684C13.6177 23.922 10 27.5167 10 31.9391V111.892C10 116.314 13.6177 119.909 18.0684 119.909H55.498L51.7283 126.482C48.7186 126.971 46.4142 129.575 46.4142 132.699C46.4142 136.173 49.2597 139 52.7558 139H97.2442C100.74 139 103.586 136.173 103.586 132.699C103.586 129.569 101.281 126.971 98.2717 126.482L94.502 119.909H131.932C136.382 119.909 140 116.314 140 111.892L139.994 31.9391C139.994 27.5167 136.375 23.9221 131.925 23.9221ZM123.881 81.7519L109.221 85.6546L107.428 79.0029L122.087 75.1002L123.881 81.7519ZM74.3816 86.1138V79.2266H89.5637V86.1138H74.3816ZM55.0838 79.2266H70.266V86.1138H55.0838V79.2266ZM89.5639 29.2938V75.1373H74.3817V29.2938H89.5639ZM70.2599 25.1977H55.0778V17.5794H70.2599V25.1977ZM70.2599 29.2938V75.1373H55.0778V29.2938H70.2599ZM50.9622 75.1373H35.78V29.2938H50.9622V75.1373ZM35.78 79.2273H50.9622V86.1146H35.78V79.2273ZM124.466 90.2108V94.6513H25.5303V90.2108H124.466ZM93.6826 86.1148V43.8672L105.077 86.1148H93.6826ZM106.36 75.0528L94.4182 30.7745L109.078 26.8718L121.019 71.1501L106.36 75.0528ZM108.013 22.9146L93.6826 26.7267V18.8425L106.025 15.5559L108.007 22.9144L108.013 22.9146ZM89.5656 17.58V25.1983H74.3835V17.58H89.5656ZM50.9623 17.58V25.1983H35.7802V17.58H50.9623ZM18.0684 28.0137H31.6637V86.1141H23.4737C22.3367 86.1141 21.4126 87.0324 21.4126 88.1622V96.6988C21.4126 97.8285 22.3367 98.7468 23.4737 98.7468H126.526C127.663 98.7468 128.587 97.8285 128.587 96.6988V88.1622C128.587 87.0324 127.663 86.1141 126.526 86.1141H123.407L126.934 85.1777C128.034 84.8817 128.685 83.764 128.387 82.6705L113.648 28.019H131.919C134.095 28.019 135.871 29.777 135.871 31.946V103.978L14.1153 103.972V31.9399C14.1153 29.7771 15.8855 28.0137 18.0684 28.0137ZM97.2377 134.918H52.7492C51.521 134.918 50.5239 133.927 50.5239 132.707C50.5239 131.486 51.521 130.495 52.7492 130.495H97.2377C98.4659 130.495 99.4631 131.486 99.4631 132.707C99.4631 133.927 98.4659 134.918 97.2377 134.918ZM93.474 126.405H56.5129L60.2339 119.917H89.7471L93.4681 126.405H93.474ZM131.925 115.821H18.0684C15.8917 115.821 14.1162 114.063 14.1162 111.894V108.069H135.872V111.894C135.872 114.056 134.103 115.821 131.92 115.821H131.925Z" fill="#663366"/>
</svg>
