<svg width="150" height="150" viewBox="0 0 150 150" fill="none" xmlns="http://www.w3.org/2000/svg">
<path d="M121.4 67.855C119.523 67.0989 117.582 66.5592 115.6 66.2038V30.9509C115.6 28.2217 113.376 26 110.643 26H23.4745C20.7413 26 18.5175 28.2217 18.5175 30.9509V93.5162C18.5175 94.2402 18.6829 94.9232 18.964 95.5448H11.4641C11.0322 95.5448 10.6208 95.7364 10.3426 96.067C10.0645 96.3975 9.94737 96.8348 10.022 97.2605L11.7686 107.164C11.8915 107.863 12.5006 108.372 13.2106 108.372H83.7144C88.5499 118.202 98.647 125 110.331 125C126.691 125 140 111.705 140 95.362C139.999 83.1932 132.698 72.3949 121.4 67.855ZM21.4455 30.9509C21.4455 29.8335 22.3561 28.9252 23.4745 28.9252H110.644C111.763 28.9252 112.673 29.8335 112.673 30.9509V65.8352C111.897 65.7752 111.117 65.7255 110.331 65.7255C95.3823 65.7255 82.7262 76.8851 80.8918 91.6836C80.7396 92.8931 80.6649 94.132 80.6649 95.3664C80.6649 95.4278 80.6737 95.4849 80.6737 95.5463H23.476C22.3575 95.5463 21.4469 94.6366 21.4469 93.5177V30.9509H21.4455ZM14.4389 105.45L13.2077 98.4715H80.8289C81.0836 100.901 81.6604 103.231 82.4685 105.45H14.4389ZM110.331 122.078C95.5872 122.078 83.5914 110.095 83.5914 95.3649C83.5914 94.2519 83.6602 93.1345 83.7964 92.0434C85.4506 78.7075 96.858 68.6507 110.331 68.6507C113.785 68.6507 117.141 69.2957 120.307 70.5711C130.49 74.6619 137.071 84.3955 137.071 95.3664C137.071 110.093 125.075 122.078 110.331 122.078ZM25.53 42.6604C25.9047 42.6604 26.2795 42.5171 26.565 42.2319L34.1557 34.6468C34.7282 34.075 34.7282 33.1492 34.1557 32.5787C33.5833 32.0069 32.6581 32.0069 32.0857 32.5787L24.4949 40.1638C23.9225 40.7356 23.9225 41.6614 24.4949 42.2319C24.7804 42.5171 25.1552 42.6604 25.53 42.6604ZM67.0572 35.7906C68.2591 35.7906 69.2371 34.815 69.2371 33.6143C69.2371 32.412 68.2591 31.435 67.0572 31.435C65.8553 31.435 64.8773 32.412 64.8773 33.6143C64.8773 34.8136 65.8553 35.7906 67.0572 35.7906ZM67.0572 32.8654C67.4701 32.8654 67.8053 33.2003 67.8053 33.6143C67.8053 34.0252 67.4701 34.3602 67.0572 34.3602C66.6444 34.3602 66.3091 34.0252 66.3091 33.6143C66.3091 33.2003 66.6444 32.8654 67.0572 32.8654ZM25.2708 50.5014C25.6456 50.5014 26.0204 50.358 26.3059 50.0728L42.1798 34.2125C42.7522 33.6406 42.7522 32.7162 42.1798 32.1444C41.6074 31.5725 40.6822 31.5725 40.1097 32.1444L24.2358 48.0047C23.6634 48.5766 23.6634 49.5009 24.2358 50.0728C24.5228 50.3595 24.8961 50.5014 25.2708 50.5014ZM76.2085 100.496H57.9088C57.1007 100.496 56.4448 101.149 56.4448 101.958C56.4448 102.767 57.1007 103.421 57.9088 103.421H76.2085C77.0181 103.421 77.6725 102.767 77.6725 101.958C77.6725 101.149 77.0181 100.496 76.2085 100.496ZM114.202 82.7252C113.446 82.4371 112.599 82.813 112.31 83.5662L104.362 104.255C104.072 105.009 104.45 105.855 105.204 106.144C105.377 106.21 105.554 106.241 105.728 106.241C106.315 106.241 106.872 105.884 107.096 105.302L115.044 84.6134C115.335 83.8616 114.957 83.0163 114.202 82.7252ZM101.884 82.8905C101.297 82.3376 100.37 82.3639 99.8138 82.9504L89.9099 93.4285C89.3785 93.993 89.3785 94.872 89.9099 95.4366L99.8138 105.92C100.102 106.225 100.49 106.378 100.88 106.378C101.24 106.378 101.601 106.245 101.885 105.98C102.472 105.426 102.5 104.499 101.945 103.912L92.9901 94.4333L101.945 84.9586C102.499 84.3706 102.472 83.4463 101.884 82.8905ZM129.496 93.4343L119.592 82.9504C119.036 82.3639 118.109 82.3376 117.522 82.8905C116.935 83.4448 116.907 84.3721 117.462 84.9586L126.417 94.4376L117.462 103.912C116.907 104.499 116.935 105.425 117.522 105.98C117.805 106.247 118.166 106.378 118.528 106.378C118.917 106.378 119.304 106.225 119.594 105.92L129.497 95.4424C130.027 94.8779 130.027 93.9974 129.496 93.4343Z" fill="#663366"/>
</svg>
