<svg width="150" height="150" viewBox="0 0 150 150" fill="none" xmlns="http://www.w3.org/2000/svg">
<path d="M21.7102 128.467H34.9746C36.2105 128.467 37.2115 127.46 37.2115 126.217V112.875C37.2115 111.632 36.2105 110.625 34.9746 110.625H21.7102C20.4743 110.625 19.4733 111.632 19.4733 112.875V126.217C19.4733 127.46 20.4743 128.467 21.7102 128.467ZM23.947 115.125H32.7378V123.967H23.947V115.125ZM66.7155 128.467H79.98C81.2159 128.467 82.2168 127.46 82.2168 126.217V112.875C82.2168 111.632 81.2159 110.625 79.98 110.625H66.7155C65.4797 110.625 64.4787 111.632 64.4787 112.875V126.217C64.4787 127.46 65.4797 128.467 66.7155 128.467ZM68.9524 115.125H77.7432V123.967H68.9524V115.125ZM139.983 54.7482C139.983 54.4558 139.95 54.1633 139.832 53.8877C139.485 53.0439 138.669 52.4983 137.763 52.4983H118.526L122.759 48.2404C123.178 47.8186 123.413 47.2448 123.413 46.6486L123.424 14.2499H123.402C123.402 13.9574 123.368 13.6649 123.251 13.3893C122.904 12.5456 122.088 12 121.182 12H88.9712C88.3784 12 87.808 12.2362 87.3885 12.6581L39.0784 61.2561C38.6757 61.6611 38.4241 62.2236 38.4241 62.848V73.8275L10.6543 101.759C10.2516 102.17 10 102.727 10 103.351V135.75C10 136.993 11.001 138 12.2368 138H44.4474C45.0682 138 45.633 137.741 46.0356 137.331L54.9998 128.314V135.75C54.9998 136.993 56.0008 138 57.2366 138H89.4472C90.0624 138 90.6216 137.747 91.0298 137.342L139.346 88.7439C139.765 88.322 140 87.7483 140 87.152V54.7534H139.983L139.983 54.7482ZM132.367 56.9982L88.5245 101.096H62.6387L66.2176 97.4965H72.8666C73.4817 97.4965 74.041 97.2434 74.4492 96.8384L114.058 56.9981L132.367 56.9982ZM42.8986 65.0978H70.6355V92.9967H42.8986V65.0978ZM75.1092 89.813V63.776L118.951 19.6835V45.7205L75.1092 89.8187V89.813ZM89.9003 16.4998H115.786L71.944 60.598H46.0581L89.9003 16.4998ZM42.2114 133.495H14.4745V105.596H42.2114V133.495ZM46.6851 130.311V103.346C46.6851 102.103 45.6841 101.096 44.4483 101.096H17.639L38.4256 80.1878V95.2453C38.4256 96.4884 39.4266 97.4952 40.6625 97.4952H59.9001L55.6725 101.747C55.2642 102.152 55.007 102.721 55.007 103.345V121.946L46.6915 130.31L46.6851 130.311ZM87.2161 133.495H59.4792V105.596H87.2161V133.495ZM91.6898 130.311V104.28L135.532 60.182V86.2133L91.6898 130.311ZM63.3988 70.1262H50.1344C48.8985 70.1262 47.8975 71.1331 47.8975 72.3762V85.7181C47.8975 86.9611 48.8985 87.968 50.1344 87.968H63.3988C64.6347 87.968 65.6357 86.9611 65.6357 85.7181V72.3762C65.6357 71.1331 64.6347 70.1262 63.3988 70.1262ZM61.162 83.4682H52.3712V74.6261H61.162V83.4682Z" fill="#663366"/>
</svg>
