<svg width="150" height="150" viewBox="0 0 150 150" fill="none" xmlns="http://www.w3.org/2000/svg">
<path d="M127.323 76.1054H125.224V68.6299H129.877C131.955 68.6299 133.644 66.9403 133.644 64.8687V53.6589C133.644 51.5805 131.955 49.891 129.877 49.891H114.229V11.589C114.229 10.7107 113.519 10 112.64 10H11.5889C10.7106 10 10 10.7107 10 11.589V112.646C10 113.524 10.7106 114.235 11.5889 114.235H70.6058V134.328C70.6058 137.452 73.1467 140 76.2775 140H133.048C136.883 140 140 136.882 140 133.047V88.7777C140 81.7916 134.315 76.1062 127.329 76.1062L127.323 76.1054ZM136.681 87.1879H93.2996L92.4683 84.0904C94.1511 81.1472 97.3287 79.2765 100.721 79.2765H127.323C132.016 79.2765 135.924 82.7025 136.681 87.1879ZM79.1199 96.7685L75.9421 91.2709C76.8941 87.6975 77.8528 84.1305 78.8115 80.5638C79.502 77.9893 80.1926 75.4081 80.883 72.8335H86.1658L91.1068 91.2706L87.9289 96.7682C87.4999 97.5191 87.7412 98.4711 88.4787 98.9203L93.2655 101.83V106.289H73.7774V101.83L78.5642 98.9203C79.3017 98.4711 79.5497 97.5191 79.1139 96.7682L79.1199 96.7685ZM73.7834 109.467H93.2715V129.883H73.7834V109.467ZM95.6794 99.5777L91.4558 97.0165L94.1843 92.2966C94.3922 91.9345 94.4525 91.4988 94.3452 91.0898L94.1508 90.3724H136.815V125.745H96.4437V100.938C96.4437 100.382 96.1555 99.8722 95.6795 99.5839L95.6794 99.5777ZM122.046 76.1049H105.99V68.6293H122.046V76.1049ZM130.467 53.6585V64.8683C130.467 65.1834 130.198 65.4516 129.877 65.4516H98.1601C97.8451 65.4516 97.5769 65.1834 97.5769 64.8683V53.6585C97.5769 53.3367 97.8451 53.0685 98.1601 53.0685H129.877C130.198 53.0685 130.467 53.3367 130.467 53.6585ZM48.7367 13.1768H75.4863L75.2851 50.6686L63.1708 39.9883C62.5741 39.4654 61.6891 39.4587 61.0925 39.9749L48.5357 50.7088L48.7367 13.1768ZM13.1776 111.055V13.1768H45.5582L45.3369 54.1614C45.3302 54.7849 45.6923 55.3481 46.2554 55.6096C46.8186 55.871 47.4823 55.7772 47.9583 55.3749L62.104 43.28L75.8006 55.3548C76.0956 55.6163 76.471 55.7504 76.8531 55.7504C77.0744 55.7504 77.2956 55.7035 77.5034 55.6096C78.0733 55.3548 78.4353 54.7917 78.442 54.1681L78.6632 13.1698H111.058V49.8841H98.1589C96.0874 49.8841 94.3979 51.5737 94.3979 53.652V64.8618C94.3979 66.9335 96.0873 68.6231 98.1589 68.6231H102.818V76.0986H100.72C97.1732 76.0986 93.8011 77.6339 91.421 80.1883L88.9137 70.8289C88.726 70.1316 88.0958 69.6556 87.3785 69.6556H79.6553C78.938 69.6556 78.3078 70.1383 78.1201 70.8356C77.329 73.8057 76.5312 76.7757 75.7335 79.7459L72.6966 91.0899C72.5893 91.4989 72.6429 91.9279 72.8575 92.2967L75.586 97.0166L71.3624 99.5778C70.8864 99.8661 70.5982 100.382 70.5982 100.932V111.056L13.1776 111.055ZM88.8868 136.821H76.2762C74.9019 136.821 73.7824 135.701 73.7824 134.327V133.053H93.2704V134.327C93.2704 135.701 92.1509 136.821 90.7765 136.821H88.8868ZM133.041 136.821H95.8531C96.2218 136.07 96.4363 135.225 96.4363 134.327V128.91H136.808V133.046C136.808 135.125 135.112 136.821 133.033 136.821L133.041 136.821ZM99.7747 113.02H109.053V122.292C109.053 123.171 109.764 123.881 110.642 123.881H117.4C118.278 123.881 118.989 123.171 118.989 122.292V113.02H128.267C129.145 113.02 129.856 112.309 129.856 111.431V104.666C129.856 103.788 129.145 103.077 128.267 103.077H118.989V93.8051C118.989 92.9269 118.278 92.2162 117.4 92.2162H110.642C109.764 92.2162 109.053 92.9269 109.053 93.8051V103.077H99.7747C98.8965 103.077 98.1858 103.788 98.1858 104.666V111.431C98.1858 112.309 98.8965 113.02 99.7747 113.02ZM101.364 106.255H110.642C111.52 106.255 112.231 105.545 112.231 104.666V95.3941H115.811V104.666C115.811 105.545 116.521 106.255 117.4 106.255H126.678V109.842H117.4C116.521 109.842 115.811 110.553 115.811 111.431V120.703H112.231V111.431C112.231 110.553 111.52 109.842 110.642 109.842H101.364V106.255ZM78.2336 115.715C78.2336 114.837 78.9442 114.126 79.8225 114.126H81.9343V112.014C81.9343 111.136 82.645 110.425 83.5232 110.425C84.4014 110.425 85.1121 111.136 85.1121 112.014V114.126H87.2239C88.1022 114.126 88.8128 114.837 88.8128 115.715C88.8128 116.594 88.1022 117.304 87.2239 117.304H85.1121V119.416C85.1121 120.294 84.4014 121.005 83.5232 121.005C82.645 121.005 81.9343 120.294 81.9343 119.416V117.304H79.8225C78.9442 117.304 78.2336 116.594 78.2336 115.715ZM77.4157 123.338C77.4157 122.46 78.1263 121.749 79.0046 121.749H88.035C88.9132 121.749 89.6239 122.46 89.6239 123.338C89.6239 124.217 88.9132 124.927 88.035 124.927H79.0046C78.1263 124.927 77.4157 124.217 77.4157 123.338ZM89.6239 127.327C89.6239 128.206 88.9133 128.916 88.0351 128.916H79.0046C78.1264 128.916 77.4158 128.206 77.4158 127.327C77.4158 126.449 78.1264 125.738 79.0046 125.738H88.0351C88.9133 125.738 89.6239 126.449 89.6239 127.327Z" fill="#663366"/>
</svg>
