<svg width="150" height="150" viewBox="0 0 150 150" fill="none" xmlns="http://www.w3.org/2000/svg">
<path d="M125.126 39.7497H105.193V37.8533C105.193 36.1663 103.828 34.7952 102.151 34.7952H101.202C99.6265 29.4843 96.44 24.6944 92.1009 21.1789C87.7905 17.6878 82.5026 15.5966 77.0267 15.1796V12.0392C77.0267 10.9135 76.1181 10 74.9986 10C73.879 10 72.9704 10.9135 72.9704 12.0392V15.1796C67.4945 15.5966 62.2052 17.6864 57.8963 21.1789C53.5572 24.6944 50.3707 29.4843 48.7946 34.7952H47.8459C46.1679 34.7952 44.8043 36.1677 44.8043 37.8533V39.7497H24.8715C20.531 39.7497 17 43.2999 17 47.6655V118.399C17 122.763 20.531 126.314 24.8715 126.314H50.3764L45.0182 135.561C44.4814 136.486 44.4757 137.587 45.001 138.506C45.5278 139.427 46.5067 140 47.5559 140H102.444C103.493 140 104.472 139.428 104.999 138.506C105.524 137.587 105.519 136.486 104.982 135.561L99.6236 126.316H125.129C129.469 126.316 133 122.766 133 118.4V47.6655C132.999 43.3013 129.468 39.7497 125.126 39.7497ZM128.942 47.6655V112.396H126.458V109.34C126.458 107.771 125.189 106.495 123.629 106.495H122.612V67.6275H123.629C125.189 67.6275 126.458 66.3518 126.458 64.783V60.4925C126.458 58.9237 125.189 57.648 123.629 57.648H120.584H102.334V45.2929C103.357 45.2309 104.244 44.6608 104.748 43.8281H125.126C127.23 43.8281 128.942 45.5498 128.942 47.6655ZM48.8607 38.8737H101.136V41.2246H48.8607V38.8737ZM74.9986 19.1772C79.319 19.1772 83.4055 25.7494 84.9198 34.7967H65.0788C66.5917 25.748 70.6781 19.1772 74.9986 19.1772ZM51.7199 45.303H98.2772V57.6494H51.7199V45.303ZM120.584 61.7278H122.401V63.5491H27.5958V61.7278H29.413H120.584ZM118.556 67.6275V70.5961H31.4412V67.6275H118.556ZM31.4412 74.6746H118.556V106.497H115.55V87.4366C115.55 82.4417 111.508 78.3763 106.539 78.3763C101.571 78.3763 97.528 82.4403 97.528 87.4366V106.497H94.5223V87.4366C94.5223 82.4417 90.4804 78.3763 85.5111 78.3763C80.5419 78.3763 76.5 82.4403 76.5 87.4366V106.497H73.4943V87.4366C73.4943 82.4417 69.4523 78.3763 64.4831 78.3763C59.5139 78.3763 55.4719 82.4403 55.4719 87.4366V106.497H52.4663V87.4366C52.4663 82.4417 48.4243 78.3763 43.4551 78.3763C38.4859 78.3763 34.4439 82.4403 34.4439 87.4366V106.497H31.4383V74.6746H31.4412ZM111.494 106.497H101.586V87.4366C101.586 84.6902 103.808 82.4547 106.541 82.4547C109.272 82.4547 111.495 84.6888 111.495 87.4366L111.494 106.497ZM90.466 106.497H80.5577V87.4366C80.5577 84.6902 82.7797 82.4547 85.5126 82.4547C88.2455 82.4547 90.4674 84.6888 90.4674 87.4366L90.466 106.497ZM69.4394 106.497H59.5311V87.4366C59.5311 84.6902 61.7531 82.4547 64.486 82.4547C67.2189 82.4547 69.4409 84.6888 69.4409 87.4366L69.4394 106.497ZM48.4128 106.497H38.5046V87.4366C38.5046 84.6902 40.7265 82.4547 43.4594 82.4547C46.1909 82.4547 48.4143 84.6888 48.4143 87.4366L48.4128 106.497ZM27.5958 110.575H122.401V112.396H27.5958V110.575ZM96.938 34.7952H89.0278C88.2512 29.7051 86.7068 25.1014 84.6097 21.6825C84.4992 21.5036 84.3873 21.3333 84.2739 21.1601C90.077 23.7405 94.7549 28.6516 96.938 34.7952ZM65.7247 21.1615C65.6113 21.3333 65.4979 21.505 65.3888 21.684C63.2903 25.1014 61.7473 29.7066 60.9708 34.7967H53.0605C55.2423 28.6502 59.9201 23.7405 65.7247 21.1615ZM24.8715 43.8281H45.2493C45.7531 44.6608 46.6402 45.2309 47.6636 45.2929V57.648H29.413H26.3686C24.8084 57.648 23.5395 58.9237 23.5395 60.4925V64.783C23.5395 66.3518 24.8084 67.6275 26.3686 67.6275H27.3848V106.497H26.3686C24.8084 106.497 23.5395 107.772 23.5395 109.341V112.398H21.0549V47.6655C21.0549 45.5498 22.7673 43.8281 24.8715 43.8281ZM100.493 135.92H49.5037L55.0715 126.314H94.9271L100.493 135.92ZM125.126 122.236H24.8715C22.7673 122.236 21.0563 120.514 21.0563 118.399V116.475H128.944V118.399C128.942 120.514 127.23 122.236 125.126 122.236ZM94.1176 51.4755C94.1176 52.6012 93.209 53.5147 92.0894 53.5147H85.6231C84.5035 53.5147 83.5949 52.6012 83.5949 51.4755C83.5949 50.3498 84.5035 49.4363 85.6231 49.4363H92.0894C93.209 49.4363 94.1176 50.3498 94.1176 51.4755ZM66.4022 51.4755C66.4022 52.6012 65.4936 53.5147 64.374 53.5147H57.9077C56.7882 53.5147 55.8796 52.6012 55.8796 51.4755C55.8796 50.3498 56.7882 49.4363 57.9077 49.4363H64.374C65.4936 49.4363 66.4022 50.3498 66.4022 51.4755ZM80.2606 51.4755C80.2606 52.6012 79.352 53.5147 78.2324 53.5147H71.7661C70.6466 53.5147 69.738 52.6012 69.738 51.4755C69.738 50.3498 70.6466 49.4363 71.7661 49.4363H78.2324C79.352 49.4363 80.2606 50.3498 80.2606 51.4755Z" fill="#663366"/>
</svg>
