<svg width="150" height="150" viewBox="0 0 150 150" fill="none" xmlns="http://www.w3.org/2000/svg">
<path d="M86.6106 38.7578H44.9897V53.1881C47.8407 52.0068 50.9652 51.3536 54.2485 51.3536C60.8917 51.3536 66.9165 54.0373 71.2661 58.3705L71.3865 58.4957C75.6712 62.8234 78.3197 68.7624 78.3197 75.3049C78.3197 83.4212 73.0227 89.0989 66.9486 95.6035C63.2111 99.6046 59.1509 103.954 56.0592 109.278C55.4846 110.274 54.2041 110.617 53.2027 110.045C52.8689 109.855 52.6117 109.588 52.4311 109.278C50.275 105.56 47.6484 102.321 44.989 99.3433V120.492H84.9626C86.1227 120.492 87.0639 121.428 87.0639 122.582C87.0639 123.736 86.1227 124.673 84.9626 124.673H42.8877C42.4828 124.673 42.0998 124.553 41.7714 124.357L11.3461 109.219C10.5582 108.919 10 108.157 10 107.264V63.1387C10 61.9846 10.9412 61.0483 12.1013 61.0483C13.2614 61.0483 14.2026 61.9846 14.2026 63.1387V105.985L40.7811 119.208V94.7883C35.0299 88.6153 30.1652 83.0846 30.1652 75.3007C30.1652 68.6922 32.863 62.6987 37.2189 58.3717C38.3078 57.2885 39.5007 56.3086 40.7812 55.4484V37.9523L14.2027 24.7297V48.3227C14.2027 49.4768 13.2615 50.4131 12.1014 50.4131C10.9414 50.4131 10.0001 49.4768 10.0001 48.3227V21.3545C10.0111 21.0388 10.0822 20.723 10.23 20.4291C10.7443 19.4002 12.0029 18.981 13.0371 19.4982L43.3532 34.5877H86.1887C86.2872 28.1208 88.9631 22.2689 93.2367 18.0169C97.5925 13.6837 103.612 11 110.254 11C116.897 11 122.922 13.6837 127.272 18.0169L127.392 18.1421C131.677 22.4698 134.325 28.4087 134.325 34.9512C134.325 39.1645 132.897 42.7247 130.676 46.078L138.654 50.0519C139.442 50.3513 140 51.1134 140 52.0061V137.922C139.989 138.238 139.918 138.554 139.77 138.847C139.256 139.876 137.997 140.296 136.963 139.778L106.647 124.689H99.8451C98.685 124.689 97.7438 123.753 97.7438 122.598C97.7438 121.444 98.685 120.508 99.8451 120.508H105.022V74.3031C103.96 74.031 102.986 73.6826 102.132 73.2689L101.957 73.1709C99.4894 71.9188 97.9681 70.0625 97.9681 67.8905C97.9681 66.056 99.0406 64.4557 100.857 63.2472C101.613 62.7463 102.515 62.3 103.528 61.9407C101.574 59.5564 99.5166 57.3571 97.5576 55.2505C92.4795 49.8124 87.9486 44.9566 86.5916 38.7674L86.6106 38.7578ZM10.0116 55.2032C10.0116 54.0492 10.9528 53.1129 12.1129 53.1129C13.2729 53.1129 14.2142 54.0492 14.2142 55.2032V56.2593C14.2142 57.4133 13.2729 58.3496 12.1129 58.3496C10.9528 58.3496 10.0116 57.4133 10.0116 56.2593V55.2032ZM91.8848 124.679C90.7248 124.679 89.7836 123.743 89.7836 122.589C89.7836 121.435 90.7248 120.499 91.8848 120.499H92.9464C94.1065 120.499 95.0477 121.435 95.0477 122.589C95.0477 123.743 94.1065 124.679 92.9464 124.679H91.8848ZM109.248 121.31L135.827 134.532V53.2707L128.172 49.4602C126.601 51.3709 124.828 53.2707 122.984 55.2412C121.02 57.3425 118.968 59.5416 117.014 61.9315C118.026 62.2962 118.929 62.7371 119.684 63.2379C121.496 64.4464 122.574 66.0468 122.574 67.8813C122.574 70.1078 120.981 71.9966 118.409 73.2487C116.297 74.283 113.419 74.9199 110.289 74.9199L109.26 74.8927V121.3L109.248 121.31ZM124.33 20.9675C120.735 17.3911 115.766 15.1756 110.284 15.1756C104.795 15.1756 99.8266 17.3911 96.2373 20.9675C92.6422 24.544 90.4151 29.4868 90.4151 34.9408C90.4151 41.4351 95.1867 46.5465 100.659 52.4035C103.866 55.8384 107.302 59.5184 110.29 63.9495C113.278 59.5184 116.714 55.8331 119.921 52.3981C125.387 46.5408 130.159 41.4347 130.159 34.9409C130.159 29.5246 127.976 24.6254 124.446 21.0598L124.342 20.9618L124.33 20.9675ZM114.311 65.4696C113.534 66.5801 112.79 67.7233 112.089 68.9209C111.515 69.9171 110.234 70.26 109.233 69.6884C108.899 69.4979 108.642 69.2312 108.461 68.9209C107.766 67.7233 107.022 66.5747 106.239 65.4696C105.008 65.769 103.969 66.1881 103.202 66.6998C102.568 67.1244 102.19 67.5381 102.19 67.8811C102.19 68.3601 102.819 68.9154 103.848 69.438L103.99 69.5033C104.921 69.9551 106.081 70.3035 107.389 70.5213L107.553 70.5485C108.406 70.6791 109.32 70.7499 110.278 70.7499C112.768 70.7499 114.989 70.2709 116.56 69.5142C117.676 68.9807 118.36 68.3928 118.36 67.8919C118.36 67.549 117.983 67.1298 117.348 66.7107C116.582 66.199 115.542 65.7744 114.311 65.4804L114.311 65.4696ZM68.3065 61.3324C64.7114 57.7559 59.7427 55.5404 54.2601 55.5404C48.7716 55.5404 43.803 57.7559 40.2137 61.3324C36.6185 64.9088 34.3914 69.8516 34.3914 75.3056C34.3914 81.6801 38.9935 86.7209 44.3398 92.4534L44.6353 92.7692C47.842 96.204 51.2785 99.884 54.2662 104.315C57.254 99.884 60.6904 96.1987 63.8971 92.7637C69.3637 86.9064 74.1354 81.8003 74.1354 75.3065C74.1354 69.8902 71.9521 64.991 68.4226 61.4254L68.3186 61.3274L68.3065 61.3324ZM110.278 21.1964C113.665 21.1964 116.735 22.5681 118.956 24.7728C121.184 26.9939 122.563 30.0421 122.563 33.4118C122.563 36.7814 121.184 39.8353 118.967 42.0453C116.735 44.2608 113.67 45.6326 110.283 45.6326C106.896 45.6326 103.826 44.2608 101.604 42.0562C99.3773 39.8351 97.9983 36.7868 97.9983 33.4172C97.9983 30.0476 99.3773 26.9937 101.594 24.7837C103.826 22.5682 106.89 21.1964 110.278 21.1964ZM115.996 27.7287C114.54 26.2806 112.51 25.377 110.278 25.377C108.045 25.377 106.02 26.2752 104.559 27.7287C103.104 29.1767 102.195 31.1963 102.195 33.4172C102.195 35.6437 103.098 37.6524 104.559 39.1057C106.015 40.5538 108.045 41.4574 110.278 41.4574C112.516 41.4574 114.535 40.5592 115.996 39.1057C117.452 37.6577 118.36 35.6381 118.36 33.4172C118.36 31.1963 117.457 29.182 115.996 27.7287ZM54.2489 61.0544C57.9262 61.0544 61.2587 62.5405 63.6719 64.9357C66.0907 67.3418 67.5845 70.657 67.5845 74.3151C67.5845 77.9732 66.0907 81.2883 63.6829 83.689C61.2641 86.0952 57.9316 87.5813 54.2544 87.5813C50.5771 87.5813 47.2446 86.0952 44.8314 83.6999C42.4126 81.2938 40.9188 77.9786 40.9188 74.3205C40.9188 70.6624 42.4126 67.3473 44.8204 64.9466C47.2392 62.5404 50.5717 61.0544 54.2489 61.0544ZM60.7115 67.8915C59.0589 66.2475 56.7716 65.235 54.2489 65.235C51.7208 65.235 49.4389 66.253 47.7918 67.8915C46.1392 69.5354 45.1215 71.8109 45.1215 74.3149C45.1215 76.8299 46.1448 79.0999 47.7918 80.7439C49.4444 82.3879 51.7317 83.4003 54.2489 83.4003C56.7771 83.4003 59.0589 82.3823 60.7115 80.7439C62.3641 79.0999 63.3818 76.8245 63.3818 74.3149C63.3818 71.8 62.3585 69.53 60.7115 67.8915Z" fill="#663366"/>
</svg>
