<svg width="150" height="150" viewBox="0 0 150 150" fill="none" xmlns="http://www.w3.org/2000/svg">
<path fill-rule="evenodd" clip-rule="evenodd" d="M37.1339 38.9139C36.7211 38.5002 36.1777 38.2425 35.5963 38.1848C35.0149 38.1271 34.4316 38.2729 33.9456 38.5974C33.4596 38.9219 33.1012 39.405 32.9313 39.9643C32.7614 40.5236 32.7907 41.1246 33.014 41.6648C33.2374 42.2049 33.6411 42.6509 34.1563 42.9266C34.6714 43.2023 35.2662 43.2907 35.8393 43.1768C36.4123 43.0628 36.9281 42.7536 37.2988 42.3017C37.6694 41.8499 37.872 41.2834 37.872 40.6988C37.8724 40.3673 37.8074 40.039 37.6807 39.7327C37.5541 39.4264 37.3682 39.1482 37.1339 38.9139ZM29.0594 51.4879C30.9191 52.7382 33.1088 53.4059 35.3493 53.4059C37.5897 53.4059 39.7794 52.7382 41.6391 51.4879C41.0434 50.3327 40.1414 49.3639 39.032 48.6875C37.9225 48.0111 36.6484 47.6533 35.3493 47.6533C34.0501 47.6533 32.776 48.0111 31.6666 48.6875C30.5571 49.3639 29.6552 50.3327 29.0594 51.4879ZM43.3176 34.1588C45.3249 36.1671 46.5006 38.8596 46.6096 41.6979C46.7186 44.5361 45.7529 47.3109 43.9054 49.4674C42.6643 47.4586 40.759 45.9485 38.5206 45.1995C38.7777 45.0181 39.0193 44.8155 39.2428 44.5939C40.0126 43.8241 40.5369 42.8432 40.7495 41.7752C40.9621 40.7072 40.8534 39.6001 40.437 38.594C40.0207 37.5879 39.3155 36.7279 38.4107 36.1228C37.5058 35.5177 36.4419 35.1948 35.3536 35.1948C34.2653 35.1948 33.2014 35.5177 32.2966 36.1228C31.3917 36.7279 30.6865 37.5879 30.2702 38.594C29.8539 39.6001 29.7451 40.7072 29.9577 41.7752C30.1703 42.8432 30.6946 43.8241 31.4644 44.5939C31.6879 44.8155 31.9295 45.0181 32.1867 45.1995C29.9477 45.9475 28.0421 47.4579 26.8018 49.4674C24.8938 47.2555 23.9187 44.3889 24.0819 41.4716C24.245 38.5544 25.5338 35.8145 27.6765 33.8295C29.8192 31.8444 32.6484 30.7693 35.5679 30.8308C38.4873 30.8922 41.2688 32.0854 43.3262 34.1588H43.3176ZM35.3486 27.8776C38.645 27.877 41.8397 29.0201 44.3883 31.1122C46.9368 33.2043 48.6815 36.1159 49.325 39.3508C49.9686 42.5858 49.4711 45.9439 47.9175 48.853C46.3639 51.7621 43.8502 54.0422 40.8047 55.3047C37.7593 56.5672 34.3706 56.734 31.216 55.7767C28.0614 54.8195 25.3362 52.7973 23.5047 50.0548C21.6731 47.3124 20.8487 44.0193 21.1718 40.7368C21.4948 37.4542 22.9455 34.3853 25.2764 32.053C26.5976 30.7275 28.1676 29.6762 29.8961 28.9596C31.6246 28.243 33.4776 27.8753 35.3486 27.8776ZM111.355 126.622H39.1778V132.027H111.355V126.622ZM92.8317 123.64C91.6987 122.91 90.647 122.06 89.6943 121.106C86.5339 117.956 84.6013 113.78 84.2444 109.33H66.2842C65.928 113.78 63.9953 117.956 60.8343 121.106C59.8818 122.059 58.8306 122.908 57.6984 123.639L92.8317 123.64ZM87.233 109.332C87.6139 113.24 89.4317 116.868 92.3341 119.512C95.2364 122.155 99.0165 123.627 102.941 123.64H112.33C112.862 123.641 113.372 123.853 113.749 124.23C114.125 124.606 114.337 125.116 114.338 125.649V132.994C114.337 133.257 114.285 133.518 114.183 133.761C114.081 134.004 113.933 134.225 113.746 134.41C113.56 134.597 113.339 134.746 113.095 134.847C112.852 134.948 112.591 135 112.327 135H38.2057C37.9418 135 37.6806 134.948 37.4369 134.847C37.1933 134.746 36.972 134.597 36.7858 134.41C36.5991 134.225 36.4508 134.004 36.3494 133.761C36.2481 133.518 36.1956 133.257 36.195 132.994V125.649C36.1954 125.116 36.407 124.605 36.7835 124.229C37.1599 123.852 37.6704 123.64 38.2028 123.64H47.5917C51.5163 123.626 55.296 122.155 58.198 119.511C61.1001 116.868 62.9177 113.24 63.2986 109.332H17.15C15.2542 109.327 13.4374 108.572 12.0973 107.23C10.7572 105.888 10.0031 104.07 10 102.173V22.1542C10.0042 20.2581 10.7588 18.4408 12.0988 17.1001C13.4388 15.7593 15.255 15.0042 17.15 15H132.85C134.745 15.0042 136.561 15.7593 137.901 17.1001C139.241 18.4408 139.996 20.2581 140 22.1542V102.173C139.996 104.069 139.241 105.886 137.901 107.227C136.561 108.568 134.745 109.323 132.85 109.327L87.233 109.332ZM137.023 99.2419H12.977V102.173C12.9804 103.28 13.4211 104.34 14.2029 105.123C14.9846 105.906 16.044 106.347 17.15 106.351H132.85C133.956 106.347 135.015 105.906 135.797 105.123C136.579 104.34 137.02 103.28 137.023 102.173V99.2419ZM12.977 96.2617V22.1542C12.9812 21.0481 13.4222 19.9885 14.2039 19.2063C14.9856 18.4242 16.0445 17.9829 17.15 17.9788H132.85C133.955 17.9829 135.014 18.4242 135.796 19.2063C136.578 19.9885 137.019 21.0481 137.023 22.1542V96.2617H12.977ZM31.7374 66.8731H75C75.1994 66.8793 75.398 66.8454 75.584 66.7733C75.77 66.7013 75.9397 66.5926 76.0829 66.4537C76.2261 66.3148 76.34 66.1485 76.4178 65.9647C76.4955 65.7809 76.5356 65.5833 76.5356 65.3837C76.5356 65.1841 76.4955 64.9866 76.4178 64.8028C76.34 64.619 76.2261 64.4527 76.0829 64.3138C75.9397 64.1749 75.77 64.0662 75.584 63.9941C75.398 63.9221 75.1994 63.8881 75 63.8943H31.7374C31.5381 63.8881 31.3395 63.9221 31.1535 63.9941C30.9674 64.0662 30.7978 64.1749 30.6546 64.3138C30.5113 64.4527 30.3975 64.619 30.3197 64.8028C30.2419 64.9866 30.2018 65.1841 30.2018 65.3837C30.2018 65.5833 30.2419 65.7809 30.3197 65.9647C30.3975 66.1485 30.5113 66.3148 30.6546 66.4537C30.7978 66.5926 30.9674 66.7013 31.1535 66.7733C31.3395 66.8454 31.5381 66.8793 31.7374 66.8731ZM31.7374 77.1188H75C75.3955 77.1188 75.7749 76.9616 76.0546 76.6817C76.3343 76.4019 76.4914 76.0223 76.4914 75.6265C76.4914 75.2308 76.3343 74.8512 76.0546 74.5713C75.7749 74.2915 75.3955 74.1343 75 74.1343H31.7374C31.5381 74.1281 31.3395 74.162 31.1535 74.234C30.9674 74.3061 30.7978 74.4148 30.6546 74.5537C30.5113 74.6926 30.3975 74.8589 30.3197 75.0427C30.2419 75.2265 30.2018 75.4241 30.2018 75.6236C30.2018 75.8232 30.2419 76.0208 30.3197 76.2046C30.3975 76.3884 30.5113 76.5547 30.6546 76.6936C30.7978 76.8325 30.9674 76.9412 31.1535 77.0133C31.3395 77.0853 31.5381 77.1192 31.7374 77.113V77.1188ZM31.7374 87.3659H75C75.395 87.3659 75.7738 87.209 76.053 86.9295C76.3323 86.6501 76.4892 86.271 76.4892 85.8758C76.4892 85.4806 76.3323 85.1016 76.053 84.8222C75.7738 84.5427 75.395 84.3857 75 84.3857H31.7374C31.3425 84.3857 30.9637 84.5427 30.6844 84.8222C30.4051 85.1016 30.2482 85.4806 30.2482 85.8758C30.2482 86.271 30.4051 86.6501 30.6844 86.9295C30.9637 87.209 31.3425 87.3659 31.7374 87.3659ZM58.1 46.3846H75C75.1994 46.3908 75.398 46.3569 75.584 46.2848C75.77 46.2128 75.9397 46.1041 76.0829 45.9652C76.2261 45.8262 76.34 45.66 76.4178 45.4762C76.4955 45.2924 76.5356 45.0948 76.5356 44.8952C76.5356 44.6956 76.4955 44.4981 76.4178 44.3143C76.34 44.1305 76.2261 43.9642 76.0829 43.8253C75.9397 43.6864 75.77 43.5777 75.584 43.5056C75.398 43.4336 75.1994 43.3996 75 43.4058H58.1C57.7132 43.4179 57.3464 43.5801 57.0771 43.8581C56.8078 44.1361 56.6572 44.5081 56.6572 44.8952C56.6572 45.2824 56.8078 45.6543 57.0771 45.9323C57.3464 46.2103 57.7132 46.3725 58.1 46.3846ZM58.1 36.1389H75C75.1994 36.1451 75.398 36.1112 75.584 36.0391C75.77 35.9671 75.9397 35.8584 76.0829 35.7195C76.2261 35.5805 76.34 35.4142 76.4178 35.2305C76.4955 35.0467 76.5356 34.8491 76.5356 34.6495C76.5356 34.4499 76.4955 34.2524 76.4178 34.0686C76.34 33.8848 76.2261 33.7185 76.0829 33.5796C75.9397 33.4407 75.77 33.332 75.584 33.2599C75.398 33.1878 75.1994 33.1539 75 33.1601H58.1C57.7132 33.1722 57.3464 33.3344 57.0771 33.6124C56.8078 33.8904 56.6572 34.2624 56.6572 34.6495C56.6572 35.0367 56.8078 35.4086 57.0771 35.6866C57.3464 35.9646 57.7132 36.1268 58.1 36.1389ZM58.1 56.6303H75C75.1994 56.6365 75.398 56.6026 75.584 56.5305C75.77 56.4585 75.9397 56.3498 76.0829 56.2109C76.2261 56.0719 76.34 55.9056 76.4178 55.7219C76.4955 55.5381 76.5356 55.3405 76.5356 55.1409C76.5356 54.9413 76.4955 54.7438 76.4178 54.56C76.34 54.3762 76.2261 54.2099 76.0829 54.071C75.9397 53.9321 75.77 53.8233 75.584 53.7513C75.398 53.6792 75.1994 53.6453 75 53.6515H58.1C57.7132 53.6636 57.3464 53.8258 57.0771 54.1038C56.8078 54.3818 56.6572 54.7538 56.6572 55.1409C56.6572 55.5281 56.8078 55.9 57.0771 56.178C57.3464 56.456 57.7132 56.6182 58.1 56.6303ZM84.9999 46.3846H91.0102C91.3159 46.3844 91.6142 46.2901 91.8646 46.1146C92.1149 45.939 92.3053 45.6907 92.4099 45.4032L94.0667 41.8579L96.5612 52.1412C96.6331 52.4395 96.7957 52.7082 97.0265 52.9103C97.2573 53.1124 97.545 53.2379 97.8501 53.2696C98.1552 53.3013 98.4626 53.2376 98.73 53.0873C98.9973 52.937 99.2116 52.7075 99.3432 52.4303L102.521 46.3817H108.01C108.278 46.3821 108.542 46.3098 108.773 46.1724C109.003 46.035 109.192 45.8376 109.32 45.6012L111.644 42.0357L114.211 51.8969C114.284 52.1774 114.437 52.4305 114.651 52.6249C114.866 52.8194 115.133 52.9467 115.419 52.9913C115.705 53.0359 115.998 52.9957 116.261 52.8757C116.525 52.7557 116.748 52.5612 116.902 52.3161L120.623 46.3846H127.679C128.066 46.3725 128.433 46.2103 128.702 45.9323C128.971 45.6543 129.122 45.2824 129.122 44.8952C129.122 44.5081 128.971 44.1361 128.702 43.8581C128.433 43.5801 128.066 43.4179 127.679 43.4058H119.805C119.554 43.4055 119.307 43.469 119.087 43.5903C118.868 43.7117 118.682 43.8869 118.549 44.0996L116.211 47.8299L113.668 38.051C113.598 37.7705 113.448 37.5166 113.235 37.3204C113.023 37.1243 112.758 36.9945 112.473 36.947C112.188 36.8996 111.895 36.9365 111.631 37.0533C111.367 37.1701 111.142 37.3617 110.985 37.6044L107.211 43.4029H101.628C101.357 43.4031 101.091 43.4775 100.86 43.6182C100.628 43.7588 100.439 43.9603 100.314 44.2007L98.5242 47.6131L95.9618 37.0624C95.8892 36.7638 95.7258 36.495 95.4941 36.2933C95.2623 36.0915 94.9737 35.9667 94.6681 35.9361C94.3624 35.9055 94.0548 35.9706 93.7877 36.1223C93.5206 36.2741 93.3072 36.5051 93.1769 36.7835L90.0699 43.4015H84.9999C84.6131 43.4136 84.2463 43.5758 83.977 43.8538C83.7076 44.1318 83.557 44.5037 83.557 44.8909C83.557 45.278 83.7076 45.65 83.977 45.928C84.2463 46.206 84.6131 46.3682 84.9999 46.3803V46.3846ZM24.56 66.8731H25.1262C25.3256 66.8793 25.5242 66.8454 25.7102 66.7733C25.8962 66.7013 26.0659 66.5926 26.2091 66.4537C26.3523 66.3148 26.4662 66.1485 26.544 65.9647C26.6217 65.7809 26.6618 65.5833 26.6618 65.3837C26.6618 65.1841 26.6217 64.9866 26.544 64.8028C26.4662 64.619 26.3523 64.4527 26.2091 64.3138C26.0659 64.1749 25.8962 64.0662 25.7102 63.9941C25.5242 63.9221 25.3256 63.8881 25.1262 63.8943H24.56C24.1733 63.9064 23.8064 64.0686 23.5371 64.3466C23.2678 64.6246 23.1172 64.9966 23.1172 65.3837C23.1172 65.7709 23.2678 66.1429 23.5371 66.4209C23.8064 66.6988 24.1733 66.861 24.56 66.8731ZM24.56 77.1188H25.1262C25.3256 77.125 25.5242 77.0911 25.7102 77.019C25.8962 76.947 26.0659 76.8383 26.2091 76.6994C26.3523 76.5604 26.4662 76.3942 26.544 76.2104C26.6217 76.0266 26.6618 75.829 26.6618 75.6294C26.6618 75.4298 26.6217 75.2323 26.544 75.0485C26.4662 74.8647 26.3523 74.6984 26.2091 74.5595C26.0659 74.4206 25.8962 74.3119 25.7102 74.2398C25.5242 74.1678 25.3256 74.1338 25.1262 74.14H24.56C24.1733 74.1521 23.8064 74.3143 23.5371 74.5923C23.2678 74.8703 23.1172 75.2423 23.1172 75.6294C23.1172 76.0166 23.2678 76.3886 23.5371 76.6666C23.8064 76.9445 24.1733 77.1067 24.56 77.1188ZM24.56 87.3659H25.1262C25.5212 87.3659 25.9 87.209 26.1793 86.9295C26.4585 86.6501 26.6154 86.271 26.6154 85.8758C26.6154 85.4806 26.4585 85.1016 26.1793 84.8222C25.9 84.5427 25.5212 84.3857 25.1262 84.3857H24.56C24.165 84.3857 23.7862 84.5427 23.507 84.8222C23.2277 85.1016 23.0708 85.4806 23.0708 85.8758C23.0708 86.271 23.2277 86.6501 23.507 86.9295C23.7862 87.209 24.165 87.3659 24.56 87.3659ZM108.944 61.8377H103.473V68.8835C103.473 69.2783 103.316 69.657 103.037 69.9361C102.758 70.2153 102.38 70.3722 101.985 70.3722H94.9434V75.8513H101.985C102.38 75.8513 102.758 76.0081 103.037 76.2873C103.316 76.5665 103.473 76.9451 103.473 77.3399V84.3872H108.944V77.3399C108.944 76.9451 109.101 76.5665 109.38 76.2873C109.659 76.0081 110.038 75.8513 110.432 75.8513H117.474V70.3765H110.437C110.042 70.3765 109.664 70.2197 109.385 69.9405C109.106 69.6613 108.949 69.2827 108.949 68.8878V61.8377H108.944ZM101.981 58.8589C101.785 58.8588 101.592 58.8971 101.411 58.9718C101.23 59.0466 101.066 59.1562 100.928 59.2944C100.79 59.4327 100.68 59.5969 100.605 59.7776C100.53 59.9583 100.492 60.152 100.492 60.3476V67.3934H93.4542C93.0594 67.3938 92.6808 67.5509 92.4016 67.8303C92.1224 68.1096 91.9654 68.4884 91.965 68.8835V77.3399C91.965 77.7351 92.1219 78.1141 92.4012 78.3936C92.6805 78.673 93.0593 78.83 93.4542 78.83H100.496V85.8758C100.496 86.271 100.653 86.6501 100.932 86.9295C101.211 87.209 101.59 87.3659 101.985 87.3659H110.437C110.831 87.3656 111.21 87.2085 111.489 86.9291C111.768 86.6497 111.925 86.2709 111.926 85.8758V78.83H118.967C119.163 78.83 119.357 78.7915 119.537 78.7166C119.718 78.6417 119.882 78.5319 120.02 78.3935C120.158 78.2551 120.268 78.0908 120.342 77.9101C120.417 77.7293 120.455 77.5355 120.455 77.3399V68.8835C120.455 68.4886 120.299 68.1098 120.02 67.8304C119.741 67.551 119.362 67.3938 118.967 67.3934H111.926V60.3476C111.925 59.9526 111.768 59.574 111.489 59.2949C111.21 59.0157 110.831 58.8589 110.437 58.8589H101.981Z" fill="#663366"/>
</svg>
