<svg width="150" height="150" viewBox="0 0 150 150" fill="none" xmlns="http://www.w3.org/2000/svg">
<path d="M116.09 81.6331H92.245V75.9643L92.8032 75.4931L95.5276 78.2732C95.7478 78.4926 96.0893 78.715 96.3997 78.715H100.681C101.195 80.3068 102.897 81.8344 104.911 81.8344C107.333 81.8344 109.303 79.8163 109.303 77.3953C109.303 74.9739 107.333 72.9239 104.911 72.9239C102.896 72.9239 101.195 74.205 100.681 76.0622H96.8849L94.547 73.7805L96.0999 72.2558C96.7523 71.5759 96.8852 70.577 96.4297 69.7466L93.9374 65.239C94.3266 64.4468 94.6611 63.6429 94.949 62.7985L99.8187 61.4038C100.791 61.1841 101.53 60.2348 101.53 59.2314V56.9596H107.809C108.323 59.0821 110.024 60.29 112.04 60.29C114.46 60.29 116.43 58.3753 116.43 55.9544C116.43 53.5334 114.46 51.5914 112.04 51.5914C110.024 51.5914 108.322 52.9315 107.809 54.8372H101.45L101.449 52.7068C101.449 51.7591 100.812 50.913 99.9001 50.6482L94.9471 49.2172C94.6587 48.3743 94.3239 47.5664 93.9355 46.774L96.3641 42.3704C96.8987 41.5244 96.7708 40.4008 96.0662 39.7049L94.5595 38.1298L96.8844 35.7351H100.681C101.195 37.5923 102.896 39.0241 104.911 39.0241C107.332 39.0241 109.302 37.0898 109.302 34.6689C109.302 32.2477 107.332 30.3359 104.911 30.3359C102.896 30.3359 101.194 31.49 100.681 33.6124H96.3997C96.0893 33.6124 95.7913 33.6957 95.5716 33.9151L92.9024 36.5631L91.4018 35.0541C90.7343 34.3765 89.6829 34.22 88.8453 34.6829L84.3314 37.1723C83.5387 36.7823 82.7306 36.4467 81.8866 36.158L80.4909 31.3294C80.2913 30.4431 79.5596 29.7649 78.652 29.6567C78.6061 29.6511 78.5594 29.6328 78.513 29.6328H71.6784C71.6318 29.6328 71.5853 29.6509 71.5394 29.6562C70.6331 29.7647 69.9017 30.4346 69.7011 31.3204L68.3045 36.1532C67.4609 36.4411 66.653 36.7775 65.8613 37.1678L61.3456 34.676C60.5085 34.2144 59.4571 34.3661 58.7952 35.0382L57.2888 36.5432L54.6209 33.9154C54.4014 33.6954 54.103 33.6121 53.7926 33.6121H49.5111C48.9969 31.4897 47.2952 30.3534 45.2802 30.3534C42.8588 30.3534 40.8891 32.3026 40.8891 34.7235C40.8891 37.1447 42.8588 39.0337 45.2802 39.0337C47.2955 39.0337 48.9972 37.592 49.5111 35.7349H53.3076L55.6317 38.1287L54.1292 39.6646C53.4296 40.357 53.2967 41.4769 53.8064 42.3182L56.2562 46.7647C55.867 47.5572 55.5327 48.369 55.2441 49.2127L50.2905 50.6466C49.3795 50.9101 48.7433 51.7578 48.7433 52.7044L48.743 54.8372H42.3833C41.8694 52.9312 40.168 51.6187 38.153 51.6187C35.7321 51.6187 33.7622 53.5881 33.7622 56.009C33.7622 58.4299 35.7321 60.2892 38.153 60.2892C40.1683 60.2892 41.8697 59.0818 42.3836 56.9593H48.7422L48.7414 59.1999C48.7414 60.2035 49.441 61.1297 50.4136 61.3496L55.2427 62.7735C55.5306 63.618 55.8654 64.4399 56.2551 65.2319L53.7621 69.754C53.3065 70.582 53.4394 71.5987 54.1099 72.297L55.6585 73.7912L53.3341 76.0616H49.5373C49.0234 74.2045 47.3218 72.8987 45.3062 72.8987C42.8858 72.8987 40.9159 74.8956 40.9159 77.3166C40.9159 79.738 42.8858 81.8201 45.3062 81.8201C47.322 81.8201 49.0237 80.3065 49.5373 78.7147H53.8188C54.1295 78.7147 54.4272 78.4924 54.6471 78.273L57.306 75.5554L57.7552 75.9635V81.6331H34.1021C33.455 81.6331 32.8164 82.3722 32.8164 83.019V112.823C32.8164 113.47 33.4547 114 34.1021 114H71.5782C72.225 114 72.6123 113.47 72.6123 112.823V97.0208H77.6531V112.823C77.6531 113.47 77.9683 114 78.6149 114H116.09C116.737 114 117.184 113.47 117.184 112.823V83.019C117.184 82.3722 116.737 81.6331 116.09 81.6331ZM104.911 75.2968C106.041 75.2968 106.96 76.2158 106.96 77.3449C106.96 78.4738 106.041 79.3931 104.911 79.3931C103.782 79.3931 102.864 78.4738 102.864 77.3449C102.864 76.2158 103.782 75.2968 104.911 75.2968ZM112.04 53.9616C113.169 53.9616 114.088 54.8807 114.088 56.0095C114.088 57.139 113.169 58.0582 112.04 58.0582C110.911 58.0582 109.992 57.1392 109.992 56.0095C109.992 54.8807 110.911 53.9616 112.04 53.9616ZM104.911 32.656C106.041 32.656 106.96 33.575 106.96 34.7039C106.96 35.8328 106.041 36.752 104.911 36.752C103.782 36.752 102.864 35.833 102.864 34.7039C102.864 33.575 103.782 32.656 104.911 32.656ZM45.2805 36.752C44.1508 36.752 43.2321 35.833 43.2321 34.7039C43.2321 33.575 44.1508 32.656 45.2805 32.656C46.4099 32.656 47.3286 33.575 47.3286 34.7039C47.3286 35.833 46.4099 36.752 45.2805 36.752ZM38.153 58.058C37.0234 58.058 36.1051 57.139 36.1051 56.0093C36.1051 54.8807 37.0234 53.9614 38.153 53.9614C39.2819 53.9614 40.2007 54.8804 40.2007 56.0093C40.2007 57.139 39.2819 58.058 38.153 58.058ZM45.3062 79.3931C44.1773 79.3931 43.2586 78.4738 43.2586 77.3449C43.2586 76.2158 44.1773 75.2968 45.3062 75.2968C46.4362 75.2968 47.3547 76.2158 47.3547 77.3449C47.3547 78.4738 46.4362 79.3931 45.3062 79.3931ZM71.2786 69.1637C65.5003 67.5719 61.4761 62.0917 61.4761 56.0531C61.4761 48.543 67.5861 42.4158 75.0967 42.4158C82.6069 42.4158 88.7169 48.5513 88.7169 56.0618C88.7169 62.0999 84.693 67.5719 78.9144 69.1637H71.2786ZM89.8572 71.5514V87.4319L83.9656 80.5575C83.5199 80.0471 82.6998 80.0471 82.2559 80.5575L73.6974 90.393L68.8543 84.8305C68.4088 84.3198 67.688 84.3198 67.2428 84.8305L60.4082 92.8351V71.5514H89.8572ZM58.3248 97.9213L46.347 104.836V91.0058L58.3248 97.9213ZM67.9859 87.4377L72.8426 92.9723C73.2881 93.4832 74.163 93.4676 74.6072 92.9579L83.0832 83.1156L89.8572 90.9936V94.8984H61.5215L67.9859 87.4377ZM87.4695 97.0208H91.248C91.8948 97.0208 92.245 96.6046 92.245 95.9575V92.5106H101.531V103.388H87.4695V97.0208ZM58.6065 65.8333C58.7978 65.4873 58.801 65.0682 58.6158 64.7188C58.0698 63.6886 57.6339 62.6366 57.2835 61.503C57.1673 61.126 56.8683 60.8333 56.4899 60.7235L51.0843 59.1609L51.0862 52.8569L56.491 51.2959C56.8696 51.186 57.1678 50.8934 57.2845 50.5166C57.6361 49.3835 58.0725 48.3313 58.618 47.2993C58.8023 46.9507 58.7989 46.5318 58.6079 46.1858L55.8864 41.2559L60.3456 36.8006L65.2737 39.5205C65.6207 39.7121 66.0394 39.716 66.3882 39.5303C67.419 38.9841 68.4709 38.5484 69.604 38.1972C69.9808 38.0807 70.2729 37.7899 70.3827 37.4116L71.9438 32.0208H78.2482L79.8088 37.4116C79.9181 37.7902 80.2112 38.0847 80.588 38.2011C81.7211 38.5516 82.7736 38.9864 83.8048 39.5324C84.1539 39.7184 84.5729 39.7134 84.9191 39.5221L89.8463 36.8016L94.3064 41.2575L91.5849 46.1863C91.3941 46.5315 91.3904 46.9501 91.5748 47.2998C92.1205 48.3326 92.5564 49.3851 92.908 50.5172C93.0242 50.8936 93.3226 51.1865 93.7015 51.2961L99.1069 52.8577L99.1077 59.1609L93.7023 60.7235C93.3237 60.8333 93.025 61.126 92.9088 61.503C92.5586 62.635 92.1227 63.688 91.5767 64.7193C91.3917 65.0684 91.3955 65.4871 91.5862 65.833L94.221 70.7632L92.245 72.6519V70.2674C92.245 69.6205 91.8948 69.1634 91.248 69.1634H84.2455C88.4155 65.9798 91.0593 61.3502 91.0593 56.0528C91.0593 47.251 83.8987 40.0734 75.0964 40.0734C66.2941 40.0734 59.1332 47.2595 59.1332 56.0615C59.1332 61.3586 61.777 65.9798 65.947 69.1634H58.944C58.2972 69.1634 57.7552 69.6205 57.7552 70.2674V72.6511L55.876 70.7632L58.6065 65.8333ZM70.4899 111.613H35.2042V84.2861H57.7552V94.9446L45.6705 87.9628C45.3083 87.7545 44.7515 87.7545 44.3893 87.9628C44.0272 88.1723 43.694 88.5584 43.694 88.9773V106.866C43.694 107.284 44.0314 107.67 44.3941 107.88C44.5756 107.984 44.8345 108.036 45.0367 108.036C45.2391 108.036 45.4699 107.984 45.6511 107.88L61.1569 98.9355C61.5196 98.7268 61.7499 98.2858 61.7499 97.8677C61.7499 97.5692 61.6419 97.2864 61.4456 97.0211H70.4899V111.613ZM114.796 111.613H79.7756V97.0208H85.0817V104.483C85.0817 105.13 85.7487 105.511 86.3955 105.511H102.6C103.247 105.511 103.918 105.13 103.918 104.483V103.677L108.149 104.555C108.227 104.571 108.268 104.578 108.346 104.578C108.614 104.578 108.73 104.487 108.94 104.314C109.213 104.092 109.224 103.759 109.224 103.408V92.4347C109.224 92.0824 109.194 91.7495 108.922 91.5277C108.65 91.3048 108.428 91.2173 108.085 91.2865L103.918 92.1636V91.3592C103.918 90.7124 103.247 90.1229 102.6 90.1229H92.245V84.2861H114.796V111.613ZM103.918 94.5551L107.102 93.8682V101.974L103.918 101.286V94.5551Z" fill="#663366"/>
<path d="M72.3608 82.1891C74.7244 82.1891 76.6476 80.2657 76.6476 77.9021C76.6476 75.5379 74.7244 73.6152 72.3608 73.6152C69.9967 73.6152 68.0737 75.5379 68.0737 77.9021C68.0737 80.2657 69.9967 82.1891 72.3608 82.1891ZM72.3608 75.9571C73.4326 75.9571 74.3047 76.8292 74.3047 77.9018C74.3047 78.9739 73.4326 79.8467 72.3608 79.8467C71.2887 79.8467 70.4164 78.9739 70.4164 77.9018C70.4164 76.8294 71.2887 75.9571 72.3608 75.9571Z" fill="#663366"/>
<path d="M75 140C39.1587 140 10 110.841 10 75C10 39.159 39.1587 10 75 10C110.841 10 140 39.159 140 75C140 110.841 110.841 140 75 140ZM75 12.3976C40.4808 12.3976 12.3976 40.4808 12.3976 75C12.3976 109.519 40.4808 137.602 75 137.602C109.519 137.602 137.602 109.519 137.602 75C137.602 40.4808 109.519 12.3976 75 12.3976Z" fill="#663366"/>
</svg>
