<svg width="150" height="150" viewBox="0 0 150 150" fill="none" xmlns="http://www.w3.org/2000/svg">
<path d="M20.8037 120.023C20.2289 120.023 19.6777 120.252 19.2712 120.658C18.8648 121.065 18.6365 121.616 18.6365 122.191C18.6365 122.765 18.8648 123.317 19.2712 123.723C19.6777 124.13 20.2289 124.358 20.8037 124.358C21.3785 124.358 21.9297 124.13 22.3361 123.723C22.7426 123.317 22.9709 122.765 22.9709 122.191C22.9709 121.616 22.7426 121.065 22.3361 120.658C21.9297 120.252 21.3785 120.023 20.8037 120.023Z" fill="#663366"/>
<path d="M129.164 120.023C128.589 120.023 128.038 120.252 127.632 120.658C127.225 121.065 126.997 121.616 126.997 122.191C126.997 122.765 127.225 123.317 127.632 123.723C128.038 124.13 128.589 124.358 129.164 124.358C129.739 124.358 130.29 124.13 130.696 123.723C131.103 123.317 131.331 122.765 131.331 122.191C131.331 121.616 131.103 121.065 130.696 120.658C130.29 120.252 129.739 120.023 129.164 120.023Z" fill="#663366"/>
<path d="M74.9839 120.023C74.4091 120.023 73.8578 120.252 73.4514 120.658C73.045 121.065 72.8167 121.616 72.8167 122.191C72.8167 122.765 73.045 123.317 73.4514 123.723C73.8578 124.13 74.4091 124.358 74.9839 124.358C75.5586 124.358 76.1099 124.13 76.5163 123.723C76.9227 123.317 77.1511 122.765 77.1511 122.191C77.1511 121.616 76.9227 121.065 76.5163 120.658C76.1099 120.252 75.5586 120.023 74.9839 120.023Z" fill="#663366"/>
<path d="M100.99 126.525C103.384 126.525 105.325 124.585 105.325 122.191C105.325 119.797 103.384 117.856 100.99 117.856C98.5966 117.856 96.656 119.797 96.656 122.191C96.656 124.585 98.5966 126.525 100.99 126.525Z" fill="#663366"/>
<path d="M46.8102 126.525C49.2041 126.525 51.1447 124.585 51.1447 122.191C51.1447 119.797 49.2041 117.856 46.8102 117.856C44.4164 117.856 42.4758 119.797 42.4758 122.191C42.4758 124.585 44.4164 126.525 46.8102 126.525Z" fill="#663366"/>
<path d="M129.164 111.355H121.457C121.854 110.677 122.156 109.948 122.355 109.188H131.331C131.906 109.188 132.457 108.959 132.864 108.553C133.27 108.147 133.498 107.595 133.498 107.021V96.1845C133.498 93.8854 132.585 91.6805 130.959 90.0548C129.334 88.429 127.129 87.5157 124.83 87.5157H117.723L115.363 80.4398C114.79 78.7129 113.686 77.2108 112.21 76.1467C110.734 75.0827 108.96 74.5108 107.141 74.5125H90.5053C88.6857 74.5108 86.9119 75.0827 85.4358 76.1467C83.9597 77.2108 82.8565 78.7129 82.283 80.4398L80.2544 86.521L63.0338 76.9528C62.5315 76.6734 61.9387 76.6051 61.386 76.7628C60.8332 76.9205 60.3658 77.2913 60.0864 77.7936C59.8071 78.296 59.7387 78.8887 59.8964 79.4415C60.0541 79.9942 60.4249 80.4617 60.9273 80.741L74.1278 88.0749L59.148 89.2278C56.9741 89.4047 54.9457 90.3908 53.4637 91.9911C51.9818 93.5914 51.1542 95.6895 51.1445 97.8706V107.021C51.1445 107.595 51.3729 108.147 51.7793 108.553C52.1857 108.959 52.737 109.188 53.3117 109.188H62.2883C62.4869 109.948 62.7888 110.677 63.1855 111.355H46.8101V104.853C46.8055 103.494 46.3741 102.171 45.577 101.07C44.7798 99.9692 43.6572 99.1465 42.3674 98.718L40.393 67.144L48.5851 44.605L74.9838 34.3368V42.4031C74.0064 42.7402 73.1247 43.308 72.4134 44.0583C71.7021 44.8087 71.1822 45.7195 70.8979 46.7136C70.6136 47.7076 70.5731 48.7555 70.78 49.7685C70.9868 50.7815 71.4349 51.7297 72.0863 52.5327L65.5088 55.1615C65.0213 55.3557 64.6207 55.7202 64.3816 56.1873C64.1425 56.6544 64.0809 57.1924 64.2085 57.7015L66.3757 66.3703C66.4432 66.6481 66.565 66.9098 66.734 67.1404C66.9031 67.3709 67.1162 67.5657 67.3609 67.7136C67.6056 67.8614 67.8771 67.9594 68.1598 68.0019C68.4426 68.0443 68.7309 68.0304 69.0083 67.9609C69.2856 67.8914 69.5464 67.7678 69.7758 67.597C70.0051 67.4263 70.1984 67.2119 70.3445 66.9661C70.4906 66.7204 70.5866 66.4481 70.627 66.1651C70.6675 65.8821 70.6515 65.5939 70.58 65.317L68.8766 58.4752L77.151 55.1745L85.4341 58.4752L83.7176 65.3149C83.6481 65.5909 83.6337 65.878 83.6752 66.1596C83.7166 66.4413 83.8132 66.712 83.9593 66.9563C84.1054 67.2006 84.2982 67.4138 84.5267 67.5836C84.7552 67.7534 85.0149 67.8765 85.291 67.9458C85.4641 67.9885 85.6416 68.0103 85.8198 68.0109C86.3023 68.0105 86.7709 67.8491 87.1513 67.5523C87.5317 67.2556 87.8021 66.8403 87.9199 66.3725L90.0979 57.6906C90.226 57.1813 90.1648 56.6427 89.9256 56.1751C89.6864 55.7075 89.2856 55.3427 88.7976 55.1485L82.2179 52.5262C82.8683 51.7233 83.3156 50.7755 83.5218 49.763C83.728 48.7506 83.6871 47.7033 83.4026 46.71C83.1181 45.7167 82.5983 44.8066 81.8873 44.0569C81.1763 43.3072 80.295 42.7399 79.3182 42.4031V33.0278C80.6168 32.695 81.8202 32.0649 82.8335 31.1872C83.8467 30.3096 84.6422 29.2084 85.1569 27.9707C85.6717 26.733 85.8917 25.3925 85.7996 24.0551C85.7076 22.7178 85.3059 21.4201 84.6263 20.2646C83.9467 19.1091 83.0079 18.1274 81.8839 17.3969C80.7599 16.6665 79.4814 16.2073 78.1495 16.0556C76.8176 15.9039 75.4687 16.0638 74.2092 16.5228C72.9497 16.9818 71.8141 17.7273 70.8921 18.7004L41.7952 28.6696V28.6847C40.0668 28.758 38.3972 29.3332 36.9905 30.34C35.5838 31.3469 34.5008 32.7417 33.8741 34.3541V34.3823H33.8589L23.4932 62.8811L23.5235 62.8919C23.1866 63.7941 23.0042 64.7465 22.9839 65.7093H22.9709L20.912 98.718C19.6222 99.1465 18.4995 99.9692 17.7024 101.07C16.9052 102.171 16.4739 103.494 16.4692 104.853V112.274C14.1962 113.275 12.3359 115.026 11.1999 117.235C10.0639 119.443 9.72112 121.975 10.2289 124.406C10.7367 126.838 12.0642 129.021 13.9892 130.59C15.9143 132.159 18.32 133.02 20.8036 133.027H129.164C132.038 133.027 134.794 131.885 136.826 129.853C138.858 127.821 140 125.065 140 122.191C140 119.317 138.858 116.561 136.826 114.529C134.794 112.497 132.038 111.355 129.164 111.355ZM66.3713 115.689C64.9303 117.55 64.1484 119.837 64.1484 122.191C64.1484 124.545 64.9303 126.832 66.3713 128.693H29.4161C30.8571 126.832 31.6391 124.545 31.6391 122.191C31.6391 119.837 30.8571 117.55 29.4161 115.689H66.3713ZM79.0105 109.188H105.632C105.831 109.948 106.133 110.677 106.53 111.355H78.1133C78.51 110.677 78.8118 109.948 79.0105 109.188ZM68.4822 122.191C68.4822 120.905 68.8635 119.648 69.5779 118.579C70.2923 117.51 71.3077 116.676 72.4957 116.184C73.6838 115.692 74.991 115.563 76.2522 115.814C77.5134 116.065 78.6719 116.684 79.5811 117.594C80.4904 118.503 81.1096 119.661 81.3605 120.923C81.6114 122.184 81.4826 123.491 80.9905 124.679C80.4984 125.867 79.6651 126.883 78.5959 127.597C77.5267 128.311 76.2697 128.693 74.9838 128.693C73.2595 128.693 71.6058 128.008 70.3865 126.788C69.1672 125.569 68.4822 123.915 68.4822 122.191ZM83.5963 115.689H120.551C119.11 117.55 118.329 119.837 118.329 122.191C118.329 124.545 119.11 126.832 120.551 128.693H83.5963C85.0373 126.832 85.8192 124.545 85.8192 122.191C85.8192 119.837 85.0373 117.55 83.5963 115.689ZM109.659 107.021C109.659 106.163 109.913 105.325 110.39 104.613C110.866 103.9 111.543 103.344 112.335 103.016C113.127 102.688 113.998 102.602 114.839 102.769C115.68 102.937 116.452 103.349 117.058 103.956C117.665 104.562 118.077 105.334 118.245 106.175C118.412 107.016 118.326 107.887 117.998 108.679C117.67 109.471 117.114 110.148 116.402 110.625C115.689 111.101 114.851 111.355 113.994 111.355C112.844 111.355 111.741 110.898 110.929 110.085C110.116 109.273 109.659 108.17 109.659 107.021ZM111.252 81.8116L113.153 87.5157H103.157V78.8469H107.141C108.051 78.8471 108.937 79.1336 109.675 79.6657C110.413 80.1978 110.965 80.9485 111.252 81.8116ZM90.5053 78.8469H98.8231V87.5157H84.4935L86.3941 81.8095C86.682 80.9468 87.2339 80.1965 87.9717 79.6648C88.7095 79.1331 89.5959 78.847 90.5053 78.8469ZM55.4789 97.8706C55.484 96.78 55.8981 95.7309 56.6392 94.9308C57.3804 94.1307 58.3947 93.6377 59.4818 93.5492L81.5699 91.8501H124.83C125.979 91.8501 127.082 92.3068 127.894 93.1196C128.707 93.9325 129.164 95.035 129.164 96.1845V104.853H122.355C121.882 102.995 120.803 101.347 119.289 100.17C117.774 98.9928 115.911 98.3538 113.994 98.3538C112.076 98.3538 110.213 98.9928 108.698 100.17C107.184 101.347 106.105 102.995 105.632 104.853H79.0105C78.5374 102.995 77.4586 101.347 75.9445 100.17C74.4304 98.9928 72.5672 98.3538 70.6494 98.3538C68.7316 98.3538 66.8684 98.9928 65.3543 100.17C63.8402 101.347 62.7614 102.995 62.2883 104.853H55.4789V97.8706ZM66.315 107.021C66.315 106.163 66.5692 105.325 67.0455 104.613C67.5217 103.9 68.1987 103.344 68.9907 103.016C69.7827 102.688 70.6542 102.602 71.495 102.769C72.3358 102.937 73.1081 103.349 73.7143 103.956C74.3205 104.562 74.7333 105.334 74.9005 106.175C75.0678 107.016 74.9819 107.887 74.6539 108.679C74.3258 109.471 73.7703 110.148 73.0575 110.625C72.3447 111.101 71.5067 111.355 70.6494 111.355C69.4998 111.355 68.3974 110.898 67.5845 110.085C66.7716 109.273 66.315 108.17 66.315 107.021ZM26.8588 73.0626C28.2741 74.0078 29.9378 74.5123 31.6397 74.5123C33.3416 74.5123 35.0053 74.0078 36.4205 73.0626L38.0026 98.3517H25.2768L26.8588 73.0626ZM35.3954 42.8236C36.4105 44.0372 37.7331 44.9557 39.2249 45.4827C40.1892 45.8223 41.2042 45.9953 42.2265 45.9942C42.6537 45.993 43.0803 45.9612 43.503 45.8989L38.2648 60.3151C37.4594 59.3367 36.4481 58.548 35.3029 58.0052C34.1577 57.4624 32.907 57.1789 31.6397 57.1748C31.1304 57.1807 30.6227 57.2322 30.1226 57.3287L35.3954 42.8236ZM31.6397 61.5092C32.4969 61.5092 33.335 61.7634 34.0478 62.2397C34.7605 62.716 35.3161 63.3929 35.6442 64.1849C35.9722 64.977 36.0581 65.8485 35.8908 66.6893C35.7236 67.53 35.3108 68.3024 34.7046 68.9085C34.0984 69.5147 33.3261 69.9275 32.4853 70.0948C31.6445 70.262 30.773 70.1762 29.981 69.8481C29.189 69.5201 28.512 68.9645 28.0357 68.2517C27.5595 67.5389 27.3053 66.7009 27.3053 65.8437C27.3053 64.6941 27.7619 63.5916 28.5748 62.7788C29.3876 61.9659 30.4901 61.5092 31.6397 61.5092ZM77.151 46.3388C77.7258 46.3388 78.277 46.5671 78.6835 46.9736C79.0899 47.38 79.3182 47.9312 79.3182 48.506C79.3182 49.0808 79.0899 49.632 78.6835 50.0384C78.277 50.4449 77.7258 50.6732 77.151 50.6732C76.5762 50.6732 76.025 50.4449 75.6186 50.0384C75.2121 49.632 74.9838 49.0808 74.9838 48.506C74.9838 47.9312 75.2121 47.38 75.6186 46.9736C76.025 46.5671 76.5762 46.3388 77.151 46.3388ZM77.151 20.3323C78.0083 20.3323 78.8463 20.5865 79.5591 21.0628C80.2719 21.5391 80.8274 22.216 81.1555 23.008C81.4835 23.8 81.5694 24.6715 81.4021 25.5123C81.2349 26.3531 80.8221 27.1254 80.2159 27.7316C79.6097 28.3378 78.8374 28.7506 77.9966 28.9179C77.1558 29.0851 76.2843 28.9993 75.4923 28.6712C74.7003 28.3431 74.0234 27.7876 73.5471 27.0748C73.0708 26.362 72.8166 25.524 72.8166 24.6667C72.8164 23.8644 73.0417 23.0781 73.4668 22.3977L73.5101 22.3825L73.4949 22.3435C73.8859 21.7277 74.4259 21.2206 75.065 20.869C75.7041 20.5174 76.4216 20.3328 77.151 20.3323ZM71.3797 31.086L50.943 39.0288C51.3231 37.2489 51.1139 35.3936 50.347 33.743C49.8623 32.7054 49.1765 31.7743 48.3293 31.0036L68.5407 24.0859C68.5277 24.2831 68.4822 24.4673 68.4822 24.6667C68.4854 25.8805 68.7452 27.0799 69.2446 28.1862C69.744 29.2925 70.4716 30.2807 71.3797 31.086ZM42.2352 32.991C42.7762 32.9909 43.3133 33.0825 43.8237 33.2619C44.3905 33.4526 44.9129 33.7557 45.3597 34.153C45.8066 34.5503 46.1687 35.0337 46.4244 35.5743C46.659 36.0737 46.7908 36.6152 46.812 37.1666C46.8332 37.7179 46.7434 38.2679 46.5479 38.7839C46.0929 39.8945 45.2255 40.7857 44.1277 41.2706C43.0299 41.7555 41.7869 41.7963 40.6596 41.3846C40.0927 41.1935 39.5702 40.89 39.1234 40.4923C38.6765 40.0946 38.3145 39.6109 38.0589 39.07C37.8238 38.5711 37.6917 38.0299 37.6705 37.4788C37.6492 36.9277 37.7394 36.378 37.9354 35.8625C38.2761 35.0042 38.8699 34.2698 39.6379 33.7569C40.4059 33.244 41.3117 32.9768 42.2352 32.991ZM20.8036 104.853C20.8036 104.279 21.032 103.727 21.4384 103.321C21.8448 102.914 22.3961 102.686 22.9709 102.686H40.3085C40.8833 102.686 41.4345 102.914 41.841 103.321C42.2474 103.727 42.4757 104.279 42.4757 104.853V111.355H20.8036V104.853ZM14.302 122.191C14.302 120.905 14.6833 119.648 15.3978 118.579C16.1122 117.51 17.1276 116.676 18.3156 116.184C19.5036 115.692 20.8109 115.563 22.0721 115.814C23.3332 116.065 24.4917 116.684 25.401 117.594C26.3103 118.503 26.9295 119.661 27.1803 120.923C27.4312 122.184 27.3025 123.491 26.8104 124.679C26.3183 125.867 25.4849 126.883 24.4158 127.597C23.3466 128.311 22.0895 128.693 20.8036 128.693C19.0793 128.693 17.4256 128.008 16.2063 126.788C14.987 125.569 14.302 123.915 14.302 122.191ZM129.164 128.693C127.878 128.693 126.621 128.311 125.552 127.597C124.483 126.883 123.649 125.867 123.157 124.679C122.665 123.491 122.536 122.184 122.787 120.923C123.038 119.661 123.657 118.503 124.567 117.594C125.476 116.684 126.634 116.065 127.896 115.814C129.157 115.563 130.464 115.692 131.652 116.184C132.84 116.676 133.855 117.51 134.57 118.579C135.284 119.648 135.666 120.905 135.666 122.191C135.666 123.915 134.981 125.569 133.761 126.788C132.542 128.008 130.888 128.693 129.164 128.693Z" fill="#663366"/>
</svg>
