<svg width="150" height="150" viewBox="0 0 150 150" fill="none" xmlns="http://www.w3.org/2000/svg">
<path d="M74.9993 35.9784C54.5877 35.9784 37.9829 52.5737 37.9829 72.9747C37.9829 86.4708 43.5451 92.6889 49.4357 99.2695C50.3439 100.285 51.2828 101.337 52.2167 102.424C54.1615 104.697 55.4955 107.113 56.2652 109.765C54.0844 110.781 52.5656 112.997 52.5656 115.557C52.5656 117.86 53.7868 119.881 55.6135 121.004C55.0388 121.964 54.7053 123.087 54.7053 124.282C54.7053 127.807 57.5787 130.674 61.1038 130.674H61.5861V132.839C61.5861 136.789 64.7982 140 68.7492 140H81.2486C85.1995 140 88.4116 136.789 88.4116 132.839V130.674H88.8939C92.4241 130.674 95.2924 127.807 95.2924 124.282C95.2924 123.082 94.9589 121.964 94.3842 121.004C96.2109 119.876 97.4321 117.855 97.4321 115.557C97.4321 112.997 95.9133 110.781 93.7325 109.765C94.5022 107.113 95.8364 104.697 97.781 102.424C98.7097 101.337 99.6487 100.285 100.557 99.2695C106.448 92.688 112.01 86.4758 112.01 72.9747C112.015 52.579 95.4108 35.9784 74.9993 35.9784ZM91.0393 113.228C92.3272 113.228 93.3739 114.274 93.3739 115.562C93.3739 116.849 92.3271 117.901 91.0393 117.901L58.9593 117.896C57.6714 117.896 56.6247 116.844 56.6247 115.557C56.6247 114.269 57.6714 113.223 58.9593 113.223L91.0393 113.228ZM84.3535 132.849C84.3535 134.562 82.9629 135.952 81.2491 135.952H68.7497C67.0359 135.952 65.6454 134.562 65.6454 132.849V130.684H84.3479L84.3535 132.849ZM88.8945 126.621H61.1046C59.8167 126.621 58.7649 125.575 58.7649 124.287C58.7649 123 59.8168 121.953 61.1046 121.953H88.8945C90.1824 121.953 91.2342 123 91.2342 124.287C91.2342 125.575 90.1874 126.621 88.8945 126.621ZM97.5353 96.5601C96.6117 97.5912 95.6521 98.6633 94.6977 99.7816C92.2399 102.654 90.5877 105.737 89.6897 109.164H60.3091C59.406 105.742 57.759 102.659 55.3011 99.7816C54.3416 98.6581 53.3873 97.5911 52.4636 96.5601C46.6448 90.0555 42.0474 84.9205 42.0474 72.9732C42.0474 54.8138 56.8303 40.0347 74.9995 40.0347C93.1688 40.0347 107.952 54.8138 107.952 72.9732C107.952 84.9205 103.354 90.0609 97.5353 96.5601ZM72.9676 27.0154V12.0314C72.9676 10.908 73.8758 10 74.9995 10C76.1233 10 77.0315 10.908 77.0315 12.0314V27.0154C77.0315 28.1388 76.1233 29.0468 74.9995 29.0468C73.8758 29.0468 72.9676 28.1388 72.9676 27.0154ZM106.068 41.9127C105.278 41.1175 105.278 39.8351 106.068 39.04L116.674 28.4469C117.47 27.6569 118.752 27.6569 119.548 28.4469C120.338 29.2421 120.338 30.5245 119.548 31.3196L108.942 41.9127C108.547 42.3077 108.028 42.5077 107.505 42.5077C106.987 42.5077 106.468 42.3077 106.068 41.9127ZM119.548 114.643C120.343 115.433 120.343 116.721 119.548 117.516C119.153 117.911 118.63 118.111 118.111 118.111C117.593 118.111 117.075 117.911 116.674 117.516L106.074 106.918C105.278 106.128 105.278 104.84 106.074 104.045C106.869 103.25 108.152 103.25 108.947 104.045L119.548 114.643ZM30.4513 31.3149C29.656 30.5249 29.656 29.2374 30.4513 28.4422C31.2466 27.6471 32.5294 27.6471 33.3247 28.4422L43.9307 39.0352C44.7261 39.8252 44.7261 41.1128 43.9307 41.9079C43.5357 42.3029 43.0123 42.503 42.494 42.503C41.9757 42.503 41.4575 42.3029 41.0572 41.9079L30.4513 31.3149ZM29.0198 75.006H14.032C12.9082 75.006 12 74.0981 12 72.9746C12 71.8511 12.9082 70.9432 14.032 70.9432H29.0198C30.1435 70.9432 31.0517 71.8511 31.0517 72.9746C31.0517 74.0981 30.1435 75.006 29.0198 75.006ZM43.9314 104.045C44.7216 104.841 44.7216 106.123 43.9314 106.918L33.3254 117.511C32.9303 117.906 32.4121 118.106 31.8886 118.106C31.3704 118.106 30.8521 117.906 30.4518 117.511C29.6616 116.716 29.6616 115.434 30.4518 114.639L41.0578 104.045C41.8532 103.255 43.136 103.255 43.9314 104.045ZM138 72.9745C138 74.0979 137.092 75.0059 135.968 75.0059H120.98C119.857 75.0059 118.948 74.0979 118.948 72.9745C118.948 71.851 119.856 70.943 120.98 70.943H135.968C137.092 70.9482 138 71.8561 138 72.9745ZM102.232 70.9482H97.7675C96.7977 59.9652 88.0183 51.188 77.0328 50.2188V45.7611C77.0328 44.6376 76.1246 43.7296 75.0009 43.7296C73.8771 43.7296 72.9689 44.6376 72.9689 45.7611V50.2188C61.9831 51.1884 53.2036 59.9655 52.2342 70.9482H47.7702C46.6465 70.9482 45.7382 71.8561 45.7382 72.9796C45.7382 74.103 46.6464 75.011 47.7702 75.011H52.2291C53.1989 85.9991 61.9783 94.7817 72.969 95.7509V100.214C72.969 101.337 73.8772 102.245 75.001 102.245C76.1247 102.245 77.0329 101.337 77.0329 100.214V95.7509C88.0187 94.7813 96.7982 85.9991 97.7729 75.011H102.232C103.356 75.011 104.264 74.103 104.264 72.9796C104.259 71.8562 103.35 70.9482 102.232 70.9482ZM77.032 91.667V87.4092C77.032 86.2858 76.1238 85.3778 75.0001 85.3778C73.8763 85.3778 72.9681 86.2858 72.9681 87.4092V91.667C64.2247 90.7231 57.2565 83.7517 56.3121 75.0047H60.5709C61.6946 75.0047 62.6029 74.0967 62.6029 72.9733C62.6029 71.8498 61.6947 70.9419 60.5709 70.9419H56.3121C57.2562 62.1955 64.2242 55.2343 72.9681 54.2901V58.5479C72.9681 59.6713 73.8763 60.5793 75.0001 60.5793C76.1238 60.5793 77.032 59.6713 77.032 58.5479V54.2901C85.7807 55.234 92.7436 62.2002 93.6881 70.9419H89.4292C88.3055 70.9419 87.3973 71.8498 87.3973 72.9733C87.3973 74.0967 88.3055 75.0047 89.4292 75.0047H93.6881C92.7439 83.7511 85.7759 90.7228 77.032 91.667ZM75.0001 64.9257C70.5565 64.9257 66.9442 68.5371 66.9442 72.9743C66.9442 77.4167 70.5565 81.0281 75.0001 81.0281C79.4436 81.0281 83.0559 77.4167 83.0559 72.9743C83.0559 68.5371 79.4436 64.9257 75.0001 64.9257ZM75.0001 76.9705C72.7988 76.9705 71.0029 75.1802 71.0029 72.9743C71.0029 70.7736 72.7937 68.9884 75.0001 68.9884C77.2013 68.9884 78.9972 70.7788 78.9972 72.9743C78.9972 75.1802 77.2013 76.9705 75.0001 76.9705Z" fill="#663366"/>
</svg>
