<svg width="150" height="150" viewBox="0 0 150 150" fill="none" xmlns="http://www.w3.org/2000/svg">
<path d="M134.526 109.161L109.457 97.0054V87.9863C116.119 83.4562 120.526 75.8924 120.731 67.3037C125.446 66.5863 129.094 62.5482 129.094 57.6287C129.094 57.5877 129.094 57.5672 129.094 57.5262V45.9858C129.094 36.9256 125.569 28.3779 119.132 21.9416C112.696 15.5257 104.148 12 95.0879 12C76.3322 12 61.0612 27.2505 61.0612 46.0063V57.6492C61.0612 62.5687 64.7098 66.6068 69.4244 67.3242C69.5679 73.9656 72.1916 80.197 76.9061 84.9116C78.0745 86.0799 79.3659 87.1253 80.6983 88.0478V97.0259L72.6426 100.921C71.9046 101.289 71.5972 102.171 71.9456 102.909C72.2941 103.647 73.196 103.954 73.9339 103.606L81.7847 99.7931L93.5711 114.388V135.46H65.4477V119.266C65.4477 118.446 64.7713 117.77 63.9514 117.77C63.1315 117.77 62.455 118.446 62.455 119.266V135.439H55.3627C54.0918 135.439 53.0464 134.394 53.0464 133.123V127.056C53.0464 126.236 52.37 125.559 51.5501 125.559C50.7301 125.559 50.0537 126.236 50.0537 127.056V133.143C50.0537 136.054 52.4315 138.432 55.3422 138.432H95.0264H134.711C137.621 138.432 139.999 136.054 139.999 133.143V118.016C140.061 114.224 137.949 110.842 134.526 109.161ZM120.751 64.2905V50.9258C123.765 51.6022 126.04 54.2875 126.101 57.5057V57.6287C126.101 57.6492 126.101 57.6492 126.101 57.6696C126.081 60.8878 123.806 63.6141 120.751 64.2905ZM95.0879 14.9517C103.349 14.9517 111.138 18.1699 117.021 24.0324C122.883 29.9153 126.101 37.7045 126.101 45.9653V50.5568C124.667 49.163 122.822 48.2405 120.751 47.9126V46.9082C120.751 46.4162 120.505 45.9653 120.116 45.6783C119.706 45.3913 119.214 45.3298 118.743 45.4938C117.103 46.0883 115.36 46.3752 113.577 46.3752C108.678 46.3752 104.107 44.0794 101.155 40.2668C100.807 39.8158 100.499 39.3444 100.192 38.8524C100.069 38.627 99.905 38.4425 99.782 38.217C98.5521 36.0032 97.8757 33.5229 97.8347 30.9197C97.8142 30.0998 97.2197 29.4643 96.3178 29.4643C95.4979 29.4848 94.8419 30.1613 94.8624 30.9812C94.9034 33.7689 95.5799 36.4337 96.7688 38.8934C93.8785 44.7764 87.9136 48.548 81.3337 48.548C77.8696 48.548 74.5489 47.5231 71.7201 45.5963C71.2692 45.2888 70.6747 45.2478 70.1828 45.5143C69.6908 45.7808 69.3834 46.2727 69.3834 46.8262V47.8921C67.3131 48.1996 65.4477 49.1425 64.0334 50.5363V45.9243C64.0334 28.8699 77.9721 14.9517 95.0879 14.9517ZM69.3834 64.2905C66.3292 63.6141 64.0334 60.8673 64.0334 57.6082C64.0334 54.349 66.3292 51.6022 69.3834 50.9258V64.2905ZM72.3761 66.7093V49.4499C75.1433 50.8233 78.1975 51.5407 81.3542 51.5407C88.4466 51.5407 94.9854 47.8101 98.6136 41.8657C98.6546 41.9271 98.7161 41.9681 98.7571 42.0296C98.8391 42.1526 98.9211 42.2756 99.0235 42.3781C99.044 42.4191 99.1055 42.4191 99.126 42.4601C102.631 46.7647 107.92 49.3474 113.598 49.3474C115.012 49.3474 116.426 49.1835 117.779 48.876V49.2245V65.9099V66.6683C117.779 79.1721 107.592 89.3596 95.0879 89.3596C89.0205 89.3596 83.322 87.0024 79.0379 82.7183C74.7539 78.4752 72.3761 72.7767 72.3761 66.7093ZM83.691 97.4154V89.7081C87.1962 91.4299 91.0498 92.3728 95.0674 92.3728C99.167 92.3728 103.021 91.3889 106.464 89.6671V97.3539L95.0674 111.457L83.691 97.4154ZM137.068 133.123C137.068 134.394 136.043 135.439 134.752 135.439H122.576V125.498C122.576 124.678 121.899 124.001 121.079 124.001C120.26 124.001 119.583 124.678 119.583 125.498V135.439H96.5638V114.367L108.371 99.7931L133.235 111.846C135.613 113.014 137.088 115.372 137.088 117.995V133.123H137.068Z" fill="#663366"/>
<path d="M100.294 77.8396C100.868 77.2657 100.868 76.3023 100.294 75.7283C99.6992 75.1544 98.7563 75.1544 98.1824 75.7283C97.3624 76.5482 96.2555 77.0197 95.0872 77.0197C93.9188 77.0197 92.8119 76.5687 91.992 75.7283C91.3975 75.1544 90.4751 75.1544 89.8807 75.7283C89.3067 76.3023 89.3067 77.2657 89.8807 77.8396C91.2745 79.2335 93.1193 79.9919 95.0872 79.9919C97.055 79.9919 98.8998 79.213 100.294 77.8396Z" fill="#663366"/>
<path d="M94.718 69.4554C95.538 69.4554 96.2144 68.779 96.2144 67.9591V65.5198C96.2144 64.6999 95.538 64.0234 94.718 64.0234C93.8981 64.0234 93.2217 64.6999 93.2217 65.5198V67.9591C93.2217 68.7995 93.8981 69.4554 94.718 69.4554Z" fill="#663366"/>
<path d="M87.1945 59.8623C86.3746 59.8623 85.6982 60.5387 85.6982 61.3587C85.6982 62.8345 84.4888 64.0439 83.0129 64.0439C81.5371 64.0439 80.3277 62.8345 80.3277 61.3587C80.3277 60.5387 79.6512 59.8623 78.8313 59.8623C78.0114 59.8623 77.335 60.5387 77.335 61.3587C77.335 64.4744 79.8767 67.0366 82.9924 67.0366C86.1286 67.0366 88.6704 64.4949 88.6704 61.3587C88.6909 60.5387 88.0144 59.8623 87.1945 59.8623Z" fill="#663366"/>
<path d="M107.141 67.0161C110.277 67.0161 112.819 64.4744 112.819 61.3382C112.819 60.5182 112.142 59.8418 111.322 59.8418C110.503 59.8418 109.826 60.5182 109.826 61.3382C109.826 62.814 108.617 64.0234 107.141 64.0234C105.665 64.0234 104.456 62.814 104.456 61.3382C104.456 60.5182 103.779 59.8418 102.959 59.8418C102.139 59.8418 101.463 60.5182 101.463 61.3382C101.483 64.4744 104.025 67.0161 107.141 67.0161Z" fill="#663366"/>
<path d="M39.8657 124.432C56.3256 124.432 69.7313 111.026 69.7313 94.5659C69.7313 78.1059 56.3256 64.7002 39.8657 64.7002C23.4057 64.7002 10 78.1059 10 94.5659C9.97953 111.046 23.3853 124.432 39.8657 124.432C39.8452 124.432 39.8452 124.432 39.8657 124.432ZM13.0337 96.0622H22.8318C22.9548 100.551 23.6107 104.753 24.6971 108.484C22.8933 109.55 21.2125 110.8 19.6341 112.256C15.8215 107.869 13.3822 102.253 13.0337 96.0622ZM19.6546 76.876C21.2125 78.3314 22.9138 79.5818 24.7176 80.6477C23.6312 84.3783 22.9753 88.5804 22.8523 93.0695H13.0337C13.3822 86.8791 15.8215 81.2626 19.6546 76.876ZM66.6771 96.0622C66.3287 102.253 63.9099 107.869 60.0563 112.256C58.4984 110.8 56.7971 109.55 54.9932 108.484C56.0796 104.753 56.7356 100.551 56.8586 96.0622H66.6771ZM38.3693 81.7341C34.8642 81.5496 31.5025 80.6887 28.3868 79.2333C30.6826 73.0429 34.2902 68.6973 38.3693 67.8364V81.7341ZM38.3693 84.7268V93.09H25.8245C25.9475 89.1749 26.5215 85.4442 27.4439 82.103C30.8465 83.6404 34.5362 84.5423 38.3693 84.7268ZM38.3693 96.0622V104.425C34.5362 104.61 30.867 105.512 27.4644 107.049C26.5215 103.708 25.9475 99.9773 25.8245 96.0622H38.3693ZM38.3693 107.398V121.295C34.3107 120.434 30.7031 116.089 28.4073 109.898C31.5025 108.443 34.8642 107.582 38.3693 107.398ZM54.0298 111.374C55.4237 112.235 56.7356 113.24 57.9655 114.367C55.4032 116.704 52.4105 118.549 49.0898 119.778C51.0576 117.606 52.7385 114.756 54.0298 111.374ZM41.3415 121.295V107.398C44.8467 107.582 48.2084 108.443 51.3036 109.898C49.0283 116.089 45.4207 120.414 41.3415 121.295ZM52.2465 107.049C48.8438 105.491 45.1747 104.61 41.3415 104.425V96.0622H53.8863C53.7634 99.9773 53.1894 103.708 52.2465 107.049ZM41.3415 93.0695V84.7063C45.1747 84.5218 48.8438 83.6199 52.2465 82.062C53.1894 85.4032 53.7634 89.1339 53.8863 93.0695H41.3415ZM41.3415 81.7341V67.8364C45.4002 68.6973 49.0078 73.0429 51.3036 79.2333C48.2289 80.6887 44.8467 81.5496 41.3415 81.7341ZM49.0898 69.3533C52.4105 70.5626 55.4032 72.428 57.9655 74.7647C56.7356 75.8921 55.4237 76.8965 54.0298 77.7575C52.7385 74.3753 51.0576 71.526 49.0898 69.3533ZM25.681 77.7575C24.2872 76.8965 22.9753 75.8921 21.7454 74.7647C24.3077 72.428 27.3004 70.5831 30.6211 69.3533C28.6532 71.526 26.9724 74.3753 25.681 77.7575ZM25.681 111.374C26.9724 114.756 28.6532 117.606 30.6211 119.778C27.3004 118.569 24.3077 116.704 21.7454 114.367C22.9753 113.26 24.2872 112.256 25.681 111.374ZM66.6771 93.0695H56.8791C56.7561 88.5599 56.1001 84.3578 55.0137 80.6272C56.8176 79.5613 58.4984 78.3109 60.0768 76.8555C63.8894 81.2421 66.3287 86.8791 66.6771 93.0695Z" fill="#663366"/>
</svg>
