<svg width="150" height="150" viewBox="0 0 150 150" fill="none" xmlns="http://www.w3.org/2000/svg">
<path d="M82.5304 113.478V104.89C82.5277 104.432 82.3435 103.993 82.0179 103.67C81.6924 103.348 81.2521 103.166 80.7931 103.166H72.1849C71.7241 103.166 71.2823 103.349 70.9565 103.674C70.6307 103.999 70.4476 104.44 70.4476 104.9V113.488C70.4476 113.948 70.6307 114.389 70.9565 114.714C71.2823 115.039 71.7241 115.222 72.1849 115.222H80.7931C81.0221 115.222 81.2488 115.177 81.4603 115.089C81.6717 115.001 81.8637 114.873 82.0251 114.711C82.1866 114.549 82.3143 114.356 82.401 114.145C82.4877 113.933 82.5317 113.707 82.5304 113.478ZM79.0558 111.745H73.9164V106.617H79.0558V111.745ZM132.323 86.1637H113.486L113.04 62.619H113.529C113.757 62.619 113.983 62.5742 114.194 62.4871C114.405 62.4 114.596 62.2723 114.758 62.1114C114.919 61.9504 115.047 61.7593 115.134 61.549C115.221 61.3387 115.266 61.1133 115.266 60.8857V54.9215H128.667C128.895 54.9215 129.121 54.8767 129.331 54.7896C129.542 54.7025 129.734 54.5748 129.895 54.4138C130.056 54.2529 130.184 54.0618 130.272 53.8515C130.359 53.6412 130.404 53.4158 130.404 53.1882V45.599C130.404 45.1393 130.221 44.6984 129.895 44.3733C129.569 44.0483 129.127 43.8657 128.667 43.8657H120.96C120.916 43.8281 120.87 43.7929 120.823 43.7602L72.1849 10.3052C71.8953 10.1064 71.552 10 71.2004 10C70.8489 10 70.5056 10.1064 70.216 10.3052L21.4276 43.8685H13.7373C13.2765 43.8685 12.8346 44.0512 12.5088 44.3762C12.183 44.7013 12 45.1422 12 45.6019V53.1882C12 53.4158 12.0449 53.6412 12.1322 53.8515C12.2195 54.0618 12.3475 54.2529 12.5088 54.4138C12.6702 54.5748 12.8617 54.7025 13.0724 54.7896C13.2832 54.8767 13.5091 54.9215 13.7373 54.9215H27.1389V60.8987C27.1389 61.3584 27.3219 61.7993 27.6477 62.1244C27.9735 62.4494 28.4154 62.632 28.8761 62.632H29.3105L28.5591 112.435H25.6825C25.2217 112.435 24.7798 112.618 24.454 112.943C24.1282 113.268 23.9452 113.709 23.9452 114.169V119.344H16.4127C16.1845 119.344 15.9586 119.389 15.7478 119.476C15.5371 119.563 15.3456 119.691 15.1842 119.852C15.0229 120.013 14.8949 120.204 14.8076 120.414C14.7203 120.625 14.6754 120.85 14.6754 121.078V127.995C14.6754 128.455 14.8584 128.896 15.1842 129.221C15.51 129.546 15.9519 129.728 16.4127 129.728H62.9556V134.351C62.9614 135.85 63.5617 137.286 64.6255 138.344C65.6892 139.403 67.1298 139.998 68.6322 140H124.659C126.164 139.998 127.607 139.401 128.671 138.339C129.735 137.277 130.334 135.838 130.336 134.336V132.04H132.322C133.827 132.038 135.27 131.441 136.335 130.379C137.399 129.317 137.998 127.878 138 126.376V91.8288C137.998 90.3272 137.399 88.8875 136.335 87.8256C135.271 86.7636 133.829 86.166 132.323 86.1637ZM130.337 100.678H134.536V103.877H130.337V100.678ZM134.536 91.8288V97.2166H129.716C129.24 96.2866 128.516 95.5057 127.624 94.96C126.732 94.4144 125.706 94.1251 124.659 94.1241H74.0872V91.8288C74.088 91.2445 74.321 90.6843 74.7351 90.271C75.1493 89.8578 75.7108 89.6254 76.2964 89.6246H132.323C132.909 89.625 133.471 89.8573 133.885 90.2706C134.299 90.6839 134.532 91.2444 134.533 91.8288H134.536ZM50.0014 119.344V114.157C50.0014 113.698 49.8183 113.257 49.4925 112.932C49.1667 112.607 48.7249 112.424 48.2641 112.424H45.3976L44.6462 62.6205H45.0806C45.5413 62.6205 45.9832 62.4379 46.309 62.1128C46.6348 61.7877 46.8178 61.3468 46.8178 60.8871V54.9215H61.3646V60.8987C61.3646 61.3584 61.5476 61.7993 61.8734 62.1244C62.1992 62.4494 62.6411 62.632 63.1019 62.632H63.5362L62.9571 99.7705V99.7965V112.435H59.9082C59.4474 112.435 59.0055 112.618 58.6797 112.943C58.3539 113.268 58.1709 113.709 58.1709 114.169V119.344H50.0014ZM77.5704 54.9215V59.1682H64.8304V54.9215H77.5704ZM95.5888 54.9215V60.8987C95.5888 61.1263 95.6338 61.3517 95.7211 61.562C95.8084 61.7723 95.9364 61.9634 96.0977 62.1244C96.259 62.2853 96.4505 62.413 96.6613 62.5001C96.8721 62.5872 97.098 62.632 97.3261 62.632H97.7706L97.6591 86.1767H79.2266L78.8705 62.632H79.3048C79.7656 62.632 80.2075 62.4494 80.5333 62.1244C80.8591 61.7993 81.0421 61.3584 81.0421 60.8987V54.9215H95.5888ZM61.6426 115.886H62.9556V119.344H61.6426V115.886ZM66.9991 62.6234H75.4032L75.7579 86.1911C74.3534 86.3263 73.0496 86.9779 72.0999 88.0191C71.1503 89.0603 70.6227 90.4167 70.6199 91.8245V94.1241H68.6322C67.9026 94.1233 67.1798 94.2641 66.504 94.5386L66.9991 62.6234ZM101.125 86.168L101.236 62.6234H109.571L110.017 86.168H101.125ZM111.795 59.1668H99.0547V54.9215H111.795V59.1668ZM71.2004 13.8311L114.865 43.8758H27.5356L71.2004 13.8311ZM15.4716 47.328H126.929V51.4548H15.4716V47.328ZM43.3447 54.9215V59.1682H30.6047V54.9215H43.3447ZM41.9289 112.433H32.0221L32.7734 62.6291H41.1775L41.9289 112.433ZM27.4168 115.886H46.5268V119.344H27.4168V115.886ZM18.1514 126.257V122.801H62.9556V126.257H18.1514ZM124.659 136.541H68.6322C68.0465 136.54 67.485 136.307 67.0709 135.894C66.6567 135.481 66.4237 134.921 66.4229 134.336V99.7834C66.4249 99.1998 66.6584 98.6407 67.0724 98.2285C67.4864 97.8162 68.0472 97.5843 68.6322 97.5835H124.659C125.245 97.5843 125.806 97.8168 126.221 98.23C126.635 98.6432 126.868 99.2034 126.868 99.7878V134.336C126.868 134.921 126.635 135.481 126.221 135.894C125.806 136.307 125.245 136.54 124.659 136.541ZM132.322 128.58H130.337V107.338H134.536V126.376C134.535 126.961 134.301 127.521 133.887 127.935C133.472 128.348 132.908 128.58 132.322 128.58ZM87.8565 108.722C87.8565 108.494 87.9015 108.269 87.9888 108.058C88.0761 107.848 88.2041 107.657 88.3654 107.496C88.5267 107.335 88.7182 107.207 88.929 107.12C89.1398 107.033 89.3657 106.988 89.5938 106.988H117.688C118.129 107.017 118.542 107.211 118.844 107.533C119.146 107.854 119.314 108.278 119.314 108.718C119.314 109.158 119.146 109.582 118.844 109.904C118.542 110.225 118.129 110.419 117.688 110.448H89.5909C89.1319 110.447 88.6919 110.265 88.3669 109.942C88.0419 109.618 87.8585 109.18 87.8565 108.722ZM100.958 128.077C100.958 128.537 100.775 128.978 100.45 129.303C100.124 129.628 99.6819 129.811 99.2212 129.811H94.0673C93.8302 129.826 93.5925 129.793 93.3688 129.713C93.1452 129.633 92.9404 129.508 92.7671 129.346C92.5937 129.184 92.4556 128.988 92.3611 128.77C92.2667 128.553 92.2179 128.318 92.2179 128.081C92.2179 127.844 92.2667 127.609 92.3611 127.392C92.4556 127.174 92.5937 126.979 92.7671 126.816C92.9404 126.654 93.1452 126.529 93.3688 126.449C93.5925 126.369 93.8302 126.336 94.0673 126.351H99.2212C99.6804 126.351 100.121 126.533 100.447 126.856C100.772 127.179 100.956 127.619 100.958 128.077ZM111.873 128.077C111.873 128.537 111.69 128.978 111.364 129.303C111.038 129.628 110.596 129.811 110.136 129.811H104.985C104.747 129.826 104.51 129.793 104.286 129.713C104.063 129.633 103.858 129.508 103.684 129.346C103.511 129.184 103.373 128.988 103.278 128.77C103.184 128.553 103.135 128.318 103.135 128.081C103.135 127.844 103.184 127.609 103.278 127.392C103.373 127.174 103.511 126.979 103.684 126.816C103.858 126.654 104.063 126.529 104.286 126.449C104.51 126.369 104.747 126.336 104.985 126.351H110.138C110.597 126.352 111.037 126.534 111.362 126.857C111.687 127.18 111.871 127.62 111.873 128.077ZM122.787 128.077C122.787 128.305 122.742 128.53 122.655 128.741C122.568 128.951 122.44 129.142 122.278 129.303C122.117 129.464 121.926 129.592 121.715 129.679C121.504 129.766 121.278 129.811 121.05 129.811H115.899C115.459 129.782 115.045 129.588 114.744 129.267C114.442 128.945 114.274 128.521 114.274 128.081C114.274 127.641 114.442 127.217 114.744 126.896C115.045 126.574 115.459 126.38 115.899 126.351H121.054C121.513 126.352 121.952 126.534 122.277 126.857C122.602 127.181 122.785 127.62 122.787 128.077ZM90.0426 128.077C90.0426 128.537 89.8596 128.978 89.5338 129.303C89.208 129.628 88.7661 129.811 88.3053 129.811H83.1543C82.7139 129.782 82.3008 129.588 81.999 129.267C81.6971 128.945 81.5291 128.521 81.5291 128.081C81.5291 127.641 81.6971 127.217 81.999 126.896C82.3008 126.574 82.7139 126.38 83.1543 126.351H88.3097C88.7682 126.352 89.2076 126.534 89.5322 126.857C89.8569 127.181 90.0403 127.62 90.0426 128.077ZM79.1282 128.077C79.1282 128.537 78.9452 128.978 78.6194 129.303C78.2936 129.628 77.8517 129.811 77.3909 129.811H72.237C71.9999 129.826 71.7622 129.793 71.5386 129.713C71.3149 129.633 71.1101 129.508 70.9368 129.346C70.7635 129.184 70.6253 128.988 70.5308 128.77C70.4364 128.553 70.3877 128.318 70.3877 128.081C70.3877 127.844 70.4364 127.609 70.5308 127.392C70.6253 127.174 70.7635 126.979 70.9368 126.816C71.1101 126.654 71.3149 126.529 71.5386 126.449C71.7622 126.369 71.9999 126.336 72.237 126.351H77.3909C77.8502 126.351 78.2907 126.533 78.6163 126.856C78.9419 127.179 79.1259 127.619 79.1282 128.077Z" fill="#663366"/>
</svg>
