<svg width="150" height="150" viewBox="0 0 150 150" fill="none" xmlns="http://www.w3.org/2000/svg">
<path fill-rule="evenodd" clip-rule="evenodd" d="M123.946 36.6664H133.181C134.184 36.6664 134.998 35.8509 134.998 34.8456V21.0688C135.126 14.7445 129.843 10.4001 124.335 10.0769C124.207 10.0462 124.09 10 123.951 10L25.0463 10.0051C18.9857 10 13.9949 14.9959 14 21.0739V128.931C13.9949 135.004 18.9806 140.005 25.0463 140H105.488C106.896 139.969 109.895 139.477 111.477 138.292C117.358 138.564 123.373 136.579 127.304 132.296C139.405 120.581 132.249 99.7514 116.529 96.8731V36.666L123.946 36.6664ZM131.363 21.0737V33.0299H116.53L116.535 21.0737C116.535 16.9806 119.867 13.6414 123.952 13.6414C128.032 13.6414 131.363 16.9806 131.363 21.0737ZM111.288 134.834C111.012 134.742 110.72 134.701 110.428 134.752C107.019 134.327 103.533 132.773 100.303 129.726C87.7929 116.405 100.262 98.7347 114.267 100.176C114.461 100.223 114.651 100.243 114.85 100.233C118.183 100.705 121.587 102.264 124.74 105.239C137.097 118.396 125.084 135.798 111.288 134.834ZM112.522 96.5295C94.0791 96.2679 84.6495 119.621 97.7391 132.295C99.3362 134.034 101.286 135.373 103.421 136.362H25.0471C23.0047 136.362 21.1516 135.526 19.8106 134.188C18.4644 132.844 17.6299 130.982 17.6299 128.935V21.073C17.6299 16.9748 20.9572 13.646 25.0471 13.6408H115.833C114.031 15.6104 112.905 18.2058 112.905 21.073V96.5393C112.772 96.5393 112.65 96.5243 112.522 96.5295ZM29.2392 56.9377H30.8772L31.1536 57.6045L29.9916 58.7637C28.5481 60.1999 28.5687 62.5387 29.9916 63.9801L34.6804 68.6784C36.1137 70.1147 38.4478 70.1147 39.8811 68.6784L41.043 67.5141L41.7034 67.7911V69.4324C41.7034 71.4687 43.3516 73.1203 45.3838 73.1203H52.0177C54.0447 73.1203 55.6981 71.4687 55.6981 69.4324V67.7859L56.3635 67.509L57.5203 68.6733C58.9537 70.1147 61.2877 70.0992 62.7211 68.6733L67.4098 63.9647C68.8431 62.5234 68.8431 60.1948 67.4098 58.7587L66.2478 57.5943L66.5191 56.9327H68.1623C70.1893 56.9378 71.8375 55.2657 71.8426 53.2448V46.5973C71.8426 44.5815 70.1893 42.9043 68.1623 42.9094H66.5243L66.2478 42.2478L67.4098 41.0834C68.8431 39.6472 68.8431 37.3083 67.4098 35.8721L62.721 31.1738C61.2826 29.7273 58.9588 29.7479 57.5203 31.1738L56.3584 32.3381L55.698 32.0611V30.4147C55.7032 28.3835 54.0345 26.7319 52.0176 26.7268H45.3837C43.372 26.7268 41.6982 28.3784 41.7033 30.4147V32.0611L41.0379 32.3381L39.8708 31.1738C38.4324 29.7273 36.1085 29.753 34.6754 31.1738L29.9866 35.8721C28.5533 37.3083 28.5533 39.6472 29.9866 41.0834L31.1486 42.2426L30.8722 42.9094L29.2393 42.9197C27.2122 42.9197 25.564 44.5866 25.5589 46.6076V53.255C25.5589 55.2862 27.207 56.9377 29.2392 56.9377ZM29.188 46.6023C29.1982 46.5562 29.1931 46.5715 29.2392 46.551H32.1569C33.6515 46.5869 33.9383 45.0738 34.3529 43.9762C34.8596 42.8683 35.6735 41.5963 34.6139 40.5859C34.5986 40.5654 32.5307 38.5137 32.5409 38.4828C32.9913 38.0161 37.1887 33.6973 37.3115 33.7486L39.3846 35.8207C40.4339 36.8927 41.6471 36.0413 42.7527 35.554C43.8481 35.1488 45.3786 34.8 45.3274 33.3484V30.4248L45.3581 30.3786C45.4093 30.4248 52.0995 30.2811 52.0586 30.4248V33.3484C52.0279 34.8461 53.5379 35.1334 54.6332 35.554C55.7389 36.0618 56.9981 36.8722 58.0116 35.8207L60.0795 33.7486C60.1 33.728 60.1205 33.7383 60.1512 33.7486C60.1666 33.7896 64.8605 38.4264 64.8553 38.4828C64.8655 38.5239 62.7976 40.5601 62.7771 40.5859C61.6971 41.6425 62.557 42.8633 63.0433 43.9762C63.4425 45.0739 63.8009 46.6024 65.2444 46.551H68.1621L68.2082 46.5818C68.1621 46.6331 68.3054 53.3369 68.1621 53.296H65.2444C63.7548 53.2549 63.4579 54.7885 63.0484 55.8656C62.5468 56.9735 61.7278 58.2456 62.7771 59.256L64.845 61.3282C64.5328 61.8513 60.1818 66.0367 60.1204 66.1085C60.0641 66.1291 58.0627 64.0364 58.0216 64.0313C56.9723 62.949 55.7489 63.8004 54.6433 64.2928C53.5684 64.6929 52.0123 65.0468 52.0686 66.4984C52.0686 66.5138 52.0737 69.458 52.0533 69.458C52.0072 69.4887 45.3989 69.4887 45.3528 69.458C45.317 69.4323 45.3374 66.5291 45.3374 66.4984C45.3682 65.0007 43.8632 64.7134 42.7679 64.2928C41.6929 63.8056 40.3826 62.9644 39.3844 64.0261C39.3639 64.0364 37.3165 66.124 37.2806 66.1085C36.8096 65.6469 32.5099 61.4718 32.5559 61.3282L34.6136 59.256C35.6937 58.2045 34.844 56.9837 34.3526 55.8708C33.9533 54.7731 33.6001 53.2446 32.1515 53.296C32.1259 53.2908 29.2133 53.3113 29.198 53.2806C29.1519 53.2498 29.2136 46.6433 29.188 46.6023ZM48.7012 61.0107C63.2846 60.6414 63.2899 39.2163 48.7012 38.8473C34.1177 39.2166 34.1125 60.6365 48.7012 61.0107ZM53.953 44.6642C60.7097 51.7733 50.5438 61.96 43.4442 55.1944C36.6926 48.0802 46.8534 37.8934 53.953 44.6642ZM79.8125 29.2461H103.164C105.529 29.2564 105.544 32.8724 103.164 32.8827H79.8125C77.4425 32.8724 77.4322 29.2564 79.8125 29.2461ZM103.159 45.4849H79.8125C77.4476 45.4746 77.4322 41.8586 79.8125 41.8483H103.164C105.524 41.8535 105.539 45.4747 103.159 45.4849ZM103.159 58.0823H79.8125C77.4476 58.072 77.4322 54.456 79.8125 54.4457H103.164C105.524 54.456 105.539 58.072 103.159 58.0823ZM103.159 70.6796H79.8125C77.4476 70.6694 77.4322 67.0533 79.8125 67.0431H103.164C105.524 67.0533 105.539 70.6694 103.159 70.6796ZM95.936 95.8788H27.3706C25.021 95.8737 24.9801 92.2525 27.3706 92.2423H95.9308C98.2854 92.2474 98.3265 95.8686 95.936 95.8788ZM103.159 83.2815H27.3702C25.0257 83.2763 24.9746 79.6552 27.3702 79.6449H103.159C105.508 79.65 105.554 83.2712 103.159 83.2815ZM86.7681 108.481H27.3702C25.0155 108.476 24.9797 104.854 27.3702 104.844H86.7628C89.1175 104.849 89.1534 108.47 86.7681 108.481ZM116.273 124.238C118.643 124.248 118.648 127.864 116.273 127.874H108.769C106.399 127.864 106.394 124.248 108.769 124.238H110.704V117.216C110.074 117.349 109.44 117.446 108.769 117.441C106.399 117.431 106.394 113.815 108.769 113.805C109.747 113.815 110.955 113.42 112.045 113.128C112.204 113.087 112.337 113.107 112.48 113.097C112.5 113.097 112.521 113.092 112.541 113.092C112.762 113.092 112.961 113.123 113.145 113.194C113.176 113.205 113.207 113.22 113.238 113.23C113.36 113.287 113.478 113.348 113.586 113.43C114.016 113.718 114.333 114.184 114.338 114.872V124.232L116.273 124.238ZM110.704 108.901C110.719 106.506 114.354 106.531 114.333 108.927C114.318 111.322 110.678 111.296 110.704 108.901Z" fill="#663366"/>
</svg>
