<svg width="150" height="150" viewBox="0 0 150 150" fill="none" xmlns="http://www.w3.org/2000/svg">
<path fill-rule="evenodd" clip-rule="evenodd" d="M73.7373 78.0415C73.1822 77.7587 72.8066 77.1822 72.8066 76.5187C72.8066 75.5725 73.574 74.8056 74.5211 74.8056C75.4682 74.8056 76.2356 75.5724 76.2356 76.5187C76.2356 77.1822 75.8546 77.7586 75.3049 78.0415V79.1618C75.3049 79.5914 74.9511 79.9449 74.5212 79.9449C74.0912 79.9449 73.7374 79.5914 73.7374 79.1618L73.7373 78.0415ZM118.144 103.879L114.214 104.668C113.567 104.798 112.935 104.428 112.712 103.83C111.999 102.324 111.112 100.246 110.682 98.1526C110.198 95.7924 110.296 93.405 111.76 91.6539C111.983 91.382 112.228 91.1427 112.484 90.9197C113.24 90.2726 114.089 89.8919 114.982 89.8375C115.907 89.7831 116.822 90.0714 117.654 90.7729C117.861 90.9469 118.068 91.1536 118.275 91.3929C118.781 91.9802 119.108 92.6708 119.314 93.3941C119.505 94.0576 119.597 94.7374 119.636 95.3682C119.728 96.8637 119.581 98.3919 119.445 99.8494L119.434 99.9473L119.407 100.246C119.331 101.04 119.255 101.829 119.206 102.656C119.178 103.27 118.726 103.765 118.144 103.879ZM43.2806 38.6483C42.6275 37.6586 41.871 36.7395 41.0382 35.9074C37.8541 32.726 33.4511 30.7574 28.5962 30.7574C23.7358 30.7574 19.3382 32.7261 16.1542 35.9074C12.9702 39.0888 11 43.4882 11 48.3392C11 53.1955 12.9703 57.5895 16.1542 60.7709C19.0442 63.6586 22.9412 65.5511 27.2682 65.872V84.1332C22.9467 84.4595 19.0661 86.3411 16.1815 89.2233C13.003 92.3992 11.0382 96.7825 11.0382 101.628C11.0382 106.473 13.003 110.857 16.1815 114.033C19.36 117.209 23.7468 119.172 28.5963 119.172C33.4458 119.172 37.8325 117.208 41.0111 114.033C41.784 113.26 42.4807 112.423 43.0957 111.52L50.8243 115.974C50.8461 115.99 50.8679 116.007 50.8951 116.017L57.1868 119.645C57.0399 120.564 56.9637 121.499 56.9637 122.456C56.9637 127.302 58.9285 131.685 62.107 134.861C65.2854 138.037 69.6723 140 74.5218 140C79.3713 140 83.758 138.037 86.9366 134.861C90.1152 131.685 92.0799 127.302 92.0799 122.456C92.0799 121.499 92.0037 120.558 91.8568 119.639L98.1431 116.012L105.942 111.515C106.563 112.417 107.26 113.26 108.027 114.027C111.206 117.203 115.592 119.166 120.442 119.166C125.291 119.166 129.678 117.203 132.857 114.027C136.035 110.851 138 106.468 138 101.622C138 96.777 136.035 92.3938 132.857 89.2178C129.972 86.3356 126.086 84.4539 121.77 84.1277V67.5037C125.83 67.0469 129.477 65.2088 132.22 62.4625C135.404 59.2811 137.374 54.8871 137.374 50.0307C137.374 45.1744 135.404 40.7804 132.22 37.599C129.036 34.4176 124.633 32.449 119.778 32.449C114.918 32.449 110.52 34.4177 107.336 37.599C106.928 38.0068 106.536 38.4364 106.171 38.8824L98.2141 34.2925C98.1923 34.2762 98.1705 34.2653 98.1433 34.2544L93.2286 31.4156C93.5008 30.1812 93.6477 28.8977 93.6477 27.5817C93.6477 22.7254 91.6774 18.3314 88.4935 15.15C85.3095 11.9685 80.9064 10 76.0515 10C71.1912 10 66.7936 11.9687 63.6095 15.15C60.4255 18.3312 58.4553 22.7308 58.4553 27.5817C58.4553 28.3376 58.5043 29.0826 58.5969 29.8114L50.8955 34.2544L43.2806 38.6483ZM59.1617 32.5412C59.9999 35.4072 61.551 37.9631 63.6084 40.0188C66.1555 42.5638 69.481 44.3313 73.193 44.9404V57.6495C68.8714 57.9704 64.9909 59.8574 62.1063 62.7396C61.3388 63.5118 60.6367 64.3492 60.0217 65.2521L44.3412 56.2083C45.5277 53.8427 46.1971 51.1725 46.1971 48.3447C46.1971 45.7072 45.6147 43.2056 44.5751 40.965L52.2276 36.5546L59.1617 32.5412ZM29.9242 65.8715C34.2511 65.5506 38.148 63.6636 41.0382 60.7704C41.7457 60.0634 42.3988 59.2912 42.9812 58.4701L58.6937 67.5355C57.5834 69.8358 56.9629 72.419 56.9629 75.1435C56.9629 77.868 57.5834 80.4458 58.6937 82.7461L43.101 91.7408C42.486 90.8381 41.7839 89.9952 41.0164 89.2283C38.1318 86.3461 34.2511 84.4644 29.9297 84.1383V75.1435L29.9242 65.8715ZM44.4231 109.235C45.5334 106.935 46.1539 104.357 46.1539 101.633C46.1539 98.908 45.5334 96.3303 44.4231 94.03L60.0158 85.0352C60.6363 85.938 61.333 86.7809 62.1004 87.5477C65.2789 90.7236 69.6657 92.6868 74.5152 92.6868C79.3647 92.6868 83.7514 90.7236 86.93 87.5477C87.7029 86.7755 88.3996 85.9381 89.0146 85.0352L104.607 94.03C103.497 96.3303 102.877 98.908 102.877 101.633C102.877 104.357 103.497 106.935 104.607 109.235L96.8133 113.733L91.191 116.974C90.3201 114.336 88.8452 111.976 86.9239 110.056C83.7455 106.88 79.3586 104.917 74.5091 104.917C69.6596 104.917 65.2729 106.88 62.0943 110.056C60.173 111.976 58.698 114.331 57.8326 116.968L52.2159 113.727C52.1886 113.711 52.1669 113.7 52.1397 113.689L44.4231 109.235ZM119.118 84.1383V67.6117C114.519 67.4431 110.377 65.5125 107.335 62.4726C106.355 61.4991 105.495 60.406 104.766 59.2206L90.3475 67.5357C91.4578 69.836 92.0782 72.4137 92.0782 75.1382C92.0782 77.8627 91.4578 80.4405 90.3475 82.7408L105.94 91.7355C106.561 90.8328 107.257 89.9899 108.025 89.2231C110.909 86.3463 114.797 84.4644 119.118 84.1383ZM104.645 41.0572C103.078 43.6838 102.18 46.7565 102.18 50.0357C102.18 52.4557 102.67 54.7614 103.557 56.8606L89.019 65.2462C88.3986 64.3435 87.7019 63.5006 86.9345 62.7338C84.0499 59.8515 80.1637 57.9644 75.8478 57.6437V45.1685H76.0546C80.9149 45.1685 85.3126 43.1998 88.4966 40.0185C90.1948 38.3217 91.5445 36.2879 92.4371 34.0147L96.8238 36.5435C96.851 36.5598 96.8728 36.5707 96.9 36.5816L104.645 41.0572ZM69.0878 69.3853C68.2768 69.3853 67.5366 69.717 66.9978 70.2554L66.9815 70.2717C66.4427 70.8101 66.1106 71.5497 66.1106 72.3654V81.6702C66.1106 82.4805 66.4427 83.2201 66.9815 83.7585L66.9869 83.7639H66.9924L66.9978 83.7694C67.5366 84.3078 68.2768 84.6395 69.0932 84.6395H79.946C80.7134 84.6395 81.4155 84.3458 81.9435 83.8618C81.9761 83.8346 82.0142 83.802 82.0469 83.7694C82.5857 83.231 82.9177 82.4914 82.9177 81.6702V72.3655C82.9177 71.5497 82.5857 70.8047 82.0469 70.2663L82.0414 70.2718C81.5026 69.7334 80.757 69.3962 79.946 69.3962H78.6398V68.7545C78.6398 66.8783 77.3226 64.9804 75.3143 64.9804H73.7196C71.7059 64.9804 70.3942 66.8784 70.3942 68.7545V69.3962L69.088 69.3908L69.0878 69.3853ZM72.729 69.3853V68.7436C72.729 68.227 72.9793 67.5146 73.5182 67.3351C73.5835 67.3134 73.6542 67.3025 73.725 67.3025H75.3197C75.3904 67.3025 75.4557 67.3134 75.521 67.3351C76.0599 67.5146 76.3102 68.2216 76.3102 68.7436V69.3853H72.729ZM79.946 72.0391H69.0932C69.0061 72.0391 68.9245 72.0717 68.8701 72.1261L68.8646 72.1315C68.8102 72.1859 68.7775 72.2621 68.7775 72.3545V81.6593C68.7775 81.7517 68.8102 81.8279 68.8646 81.8823L68.8701 81.8877C68.9245 81.9421 69.0061 81.9801 69.0932 81.9801H79.946C80.0222 81.9801 80.0875 81.953 80.1365 81.9203C80.1474 81.9095 80.1583 81.8986 80.1691 81.8877C80.229 81.8333 80.2617 81.7517 80.2617 81.6647V72.3599C80.2617 72.2729 80.229 72.1968 80.1691 72.137L80.1746 72.1315L80.1691 72.1261C80.1093 72.0772 80.0331 72.0391 79.946 72.0391ZM85.0567 64.6106C82.3626 61.9186 78.6343 60.2491 74.5197 60.2491C70.405 60.2491 66.6768 61.9132 63.9826 64.6106C61.2885 67.3025 59.6176 71.0277 59.6176 75.1443C59.6176 79.2556 61.2831 82.9808 63.9826 85.6727C66.6822 88.3701 70.405 90.0341 74.5197 90.0341C78.6343 90.0341 82.3626 88.3701 85.0567 85.6727C87.7508 82.9808 89.4217 79.2556 89.4217 75.1443C89.4217 71.0277 87.7508 67.3025 85.0567 64.6106ZM85.0567 111.939C87.7508 114.631 89.4217 118.356 89.4217 122.468C89.4217 126.579 87.7563 130.304 85.0567 132.996C82.3626 135.688 78.6343 137.357 74.5197 137.357C70.405 137.357 66.6768 135.693 63.9826 132.996C61.2885 130.304 59.6176 126.579 59.6176 122.468C59.6176 118.356 61.2831 114.631 63.9826 111.939C66.6822 109.242 70.405 107.578 74.5197 107.578C78.6343 107.578 82.3626 109.242 85.0567 111.939ZM75.5864 129.564L70.824 132.164C70.1981 132.506 69.4906 132.561 68.8592 132.376C68.2224 132.191 67.6563 131.761 67.3134 131.136L64.2601 125.562L75.5864 129.564ZM63.7051 124.539L63.3132 123.827C62.9758 123.212 62.9213 122.522 63.1064 121.896C63.2914 121.271 63.7105 120.711 64.331 120.374L78.1446 112.825C78.2208 112.776 78.3024 112.733 78.3895 112.7C78.9664 112.428 79.6087 112.396 80.1856 112.564C80.2183 112.575 80.2455 112.581 80.2727 112.591C80.8116 112.771 81.296 113.13 81.6225 113.646C81.6769 113.723 81.7205 113.804 81.7586 113.886L82.096 114.506V114.511L82.6512 115.523L85.7208 121.129C86.0583 121.744 86.1127 122.434 85.9276 123.06C85.7426 123.685 85.3235 124.245 84.703 124.583L75.5864 129.564L63.7051 124.539ZM69.6104 129.814L67.2212 125.447L80.964 117.937L83.3532 122.304L74.3238 127.237L69.6104 129.814ZM79.6903 115.621L66.334 122.919L65.9476 123.131L65.6809 122.647L79.4237 115.137L79.6903 115.621ZM24.6915 92.035H32.491C33.2257 92.035 33.819 92.6277 33.819 93.3619V96.4073H36.8669C37.6016 96.4073 38.1949 97.0001 38.1949 97.7342V105.527C38.1949 106.261 37.6016 106.854 36.8669 106.854H33.819V109.9C33.819 110.634 33.2257 111.226 32.491 111.226H24.6915C23.9568 111.226 23.3635 110.634 23.3635 109.9V106.854H20.3156C19.5809 106.854 18.9876 106.261 18.9876 105.527V97.7342C18.9876 97.0001 19.5809 96.4073 20.3156 96.4073H23.3635V93.3619C23.3635 92.6332 23.9622 92.035 24.6915 92.035ZM31.1628 94.6888V97.7342C31.1628 98.4683 31.7561 99.0611 32.4908 99.0611H35.5387V104.2H32.4908C31.7561 104.2 31.1628 104.793 31.1628 105.527V108.572L26.0195 108.578V105.533C26.0195 104.798 25.4263 104.206 24.6915 104.206H21.6436V99.0665H24.6915C25.4263 99.0665 26.0195 98.4738 26.0195 97.7396V94.6942L31.1628 94.6888ZM39.131 91.105C41.8251 93.7969 43.496 97.5221 43.496 101.633C43.496 105.745 41.8306 109.47 39.131 112.162C36.4369 114.854 32.7086 116.523 28.594 116.523C24.4793 116.523 20.7511 114.859 18.0515 112.162C15.3574 109.47 13.6865 105.745 13.6865 101.633C13.6865 97.5221 15.3574 93.7969 18.0515 91.105C20.7456 88.4131 24.4739 86.7436 28.594 86.7436C32.7086 86.7436 36.4314 88.4077 39.131 91.105ZM28.594 38.3984C30.0689 38.3984 31.4023 38.9966 32.3657 39.9592C33.3345 40.9272 33.9277 42.2595 33.9277 43.7333C33.9277 45.207 33.329 46.5393 32.3657 47.5073C32.2677 47.6052 32.1643 47.6977 32.0609 47.7901C33.2256 48.111 34.3251 48.5895 35.3374 49.1986C37.3675 50.4276 39.0384 52.1895 40.1542 54.2942L40.1651 54.3105C40.5134 54.9523 40.2685 55.7572 39.6262 56.1052C39.4249 56.214 39.2126 56.2629 39.0003 56.2629V56.2684L18.1868 56.2629C17.4521 56.2629 16.8588 55.6702 16.8588 54.936C16.8588 54.6913 16.9241 54.4629 17.0384 54.2671C18.1542 52.1734 19.8251 50.4115 21.866 49.1879C22.8729 48.5842 23.9669 48.1111 25.1207 47.7903C25.0173 47.6978 24.9138 47.6054 24.8159 47.5075C23.8471 46.5449 23.2538 45.2072 23.2538 43.7334C23.2538 42.2596 23.8525 40.9273 24.8159 39.9593C25.7847 38.9968 27.119 38.3984 28.594 38.3984ZM30.488 41.8409C30.9724 42.3249 31.2718 42.9992 31.2718 43.7388C31.2718 44.4785 30.9724 45.1473 30.488 45.6368C30.0036 46.1208 29.3288 46.4253 28.5885 46.4253C27.8483 46.4253 27.1789 46.1262 26.689 45.6368C26.2046 45.1528 25.9053 44.4839 25.9053 43.7388C25.9053 42.9992 26.2046 42.3304 26.689 41.8409C27.1734 41.3569 27.8483 41.0578 28.5885 41.0578C29.3342 41.0523 30.0036 41.3514 30.488 41.8409ZM33.9659 51.4666C34.9184 52.043 35.7784 52.7663 36.5022 53.6093H20.6852C21.409 52.7609 22.2689 52.0322 23.2269 51.4557C24.7889 50.5149 26.6285 49.9765 28.5934 49.9765C30.5583 49.9765 32.3984 50.5203 33.9659 51.4666ZM39.1583 37.7841C41.8633 40.4868 43.5342 44.2175 43.5342 48.3396C43.5342 52.4617 41.8633 56.1977 39.1583 58.8951C36.4533 61.5979 32.7196 63.2674 28.5941 63.2674C24.4686 63.2674 20.7295 61.5979 18.0245 58.8951C15.3195 56.1923 13.6486 52.4617 13.6486 48.3396C13.6486 44.2175 15.3195 40.4814 18.0245 37.7841C20.7295 35.0813 24.4632 33.4118 28.5941 33.4118C32.7196 33.4118 36.4533 35.0813 39.1583 37.7841ZM66.6988 29.7191C66.6988 28.985 67.292 28.3922 68.0268 28.3922C68.7616 28.3922 69.3548 28.985 69.3548 29.7191V33.4116C69.3548 34.1458 68.7616 34.7385 68.0268 34.7385C67.292 34.7385 66.6988 34.1458 66.6988 33.4116V29.7191ZM85.4 34.0044C85.4 34.7386 84.8068 35.3313 84.072 35.3313C83.3373 35.3313 82.744 34.7386 82.744 34.0044V26.641C82.744 26.1733 82.7005 25.7274 82.6188 25.3196C82.5317 24.8845 82.3957 24.4603 82.227 24.0524C81.9439 23.3835 82.2596 22.6058 82.9345 22.3231C83.6094 22.0403 84.3823 22.3557 84.6653 23.03C84.9048 23.5902 85.0898 24.1884 85.215 24.8028C85.3402 25.4173 85.4055 26.0319 85.4055 26.6464L85.4 34.0044ZM82.2759 19.6914C82.8202 20.1754 82.8692 21.0129 82.3793 21.5567C81.8949 22.1005 81.0568 22.1494 80.5125 21.66C79.903 21.1162 79.2008 20.6811 78.4334 20.3874C77.7041 20.1047 76.8985 19.9524 76.0496 19.9524C74.21 19.9524 72.5337 20.7029 71.3199 21.9156C70.1062 23.1284 69.3551 24.7979 69.3551 26.6414C69.3551 27.3756 68.7618 27.9683 68.0271 27.9683C67.2923 27.9683 66.699 27.3756 66.699 26.6414C66.699 24.0691 67.7495 21.7362 69.4477 20.0394C71.1403 18.3482 73.4806 17.293 76.0551 17.293C77.2144 17.293 78.3356 17.5106 79.3805 17.913C80.4582 18.3317 81.4378 18.941 82.2759 19.6914ZM82.1562 29.7194C82.1562 30.4536 81.5629 31.0463 80.8282 31.0463C80.0934 31.0463 79.5002 30.4536 79.5002 29.7194V26.6415C79.5002 25.6952 79.1137 24.8359 78.4878 24.2106C77.8619 23.5852 77.002 23.1991 76.0549 23.1991C75.1079 23.1991 74.2425 23.5852 73.622 24.2106C72.9961 24.836 72.6097 25.6952 72.6097 26.6415V35.5982C72.6097 36.3323 72.0165 36.9251 71.2817 36.9251C70.5469 36.9251 69.9537 36.3323 69.9537 35.5982V26.6415C69.9537 24.9611 70.6395 23.4383 71.7444 22.3343C72.8493 21.2304 74.3732 20.5451 76.0605 20.5451C77.7423 20.5451 79.2663 21.2303 80.3712 22.3343C81.4761 23.4383 82.1619 24.961 82.1619 26.6415L82.1562 29.7194ZM82.1562 35.7449C82.1562 36.4791 81.5629 37.0718 80.8282 37.0718C80.0934 37.0718 79.5002 36.4791 79.5002 35.7449V32.8953C79.5002 32.1611 80.0934 31.5684 80.8282 31.5684C81.5629 31.5684 82.1562 32.1611 82.1562 32.8953V35.7449ZM78.9069 35.2174C78.9069 35.9516 78.3137 36.5443 77.5789 36.5443C76.8442 36.5443 76.2509 35.9516 76.2509 35.2174V26.5C76.2074 26.4619 76.1366 26.4402 76.0495 26.4402C75.9624 26.4402 75.8917 26.4674 75.8427 26.5V29.1648C75.8427 29.8989 75.2494 30.4917 74.5147 30.4917C73.7799 30.4917 73.1867 29.8989 73.1867 29.1648V26.4566C73.1867 25.6898 73.5296 24.9991 74.0902 24.5097C74.6018 24.0584 75.293 23.781 76.0495 23.781C76.8059 23.781 77.4973 24.0584 78.0088 24.5097C78.5639 24.9992 78.9123 25.6898 78.9123 26.4566L78.9069 35.2174ZM75.8427 26.5054L75.8046 26.4619H75.8427V26.5054ZM73.1921 32.3787C73.1921 31.6445 73.7854 31.0518 74.5201 31.0518C75.2549 31.0518 75.8481 31.6445 75.8481 32.3787V36.5444C75.8481 37.2785 75.2549 37.8713 74.5201 37.8713C73.7854 37.8713 73.1921 37.2785 73.1921 36.5444V32.3787ZM86.6137 17.0271C89.3187 19.7299 90.9896 23.4605 90.9896 27.5826C90.9896 31.7047 89.3187 35.4408 86.6137 38.1381C83.9087 40.8409 80.175 42.5104 76.0495 42.5104C71.924 42.5104 68.1849 40.8409 65.4853 38.1381C62.7803 35.4354 61.1095 31.7047 61.1095 27.5826C61.1095 23.4605 62.7803 19.7245 65.4853 17.0271C68.1903 14.3243 71.924 12.6548 76.0495 12.6548C80.175 12.6548 83.9142 14.3297 86.6137 17.0271ZM114.121 47.3237C113.604 47.3237 113.201 47.4978 112.885 47.7697C112.657 47.9654 112.504 48.1884 112.395 48.4168C112.368 48.4658 112.346 48.5147 112.325 48.5636L111.987 49.3957L112.014 44.8548H118.992C119.03 44.8548 119.46 45.1104 119.983 45.3769C120.842 45.8119 121.735 46.2687 122.405 46.2687V46.2633H126.536V47.3183H120.44L114.121 47.3237ZM129.197 47.3237H130.231C130.514 47.3237 130.829 47.389 131.107 47.5032V47.4978C131.33 47.5902 131.542 47.7207 131.717 47.8839C132.027 48.1775 132.212 48.5528 132.212 48.9987C132.212 49.1836 132.179 49.3739 132.098 49.5588L129.208 56.6339C129.093 56.9113 128.93 57.1886 128.647 57.4279C128.331 57.6998 127.934 57.8738 127.417 57.8738H111.307C111.177 57.8738 111.035 57.8575 110.883 57.8303C110.752 57.8031 110.616 57.765 110.48 57.7107L110.464 57.7052L110.458 57.7107L110.442 57.7052C110.409 57.6889 110.377 57.678 110.344 57.6617C110.099 57.5475 109.881 57.3898 109.707 57.194C109.457 56.9058 109.315 56.5795 109.315 56.2206C109.304 56.1499 109.299 56.0846 109.299 56.0139L109.375 44.2457C109.381 43.7998 109.495 43.381 109.685 43.0656C110.001 42.5326 110.507 42.2009 111.128 42.2009H118.992C119.586 42.2009 120.375 42.5979 121.186 43.0167C121.768 43.3103 122.367 43.6203 122.399 43.6203V43.6257H127.499V43.6203C128.136 43.6203 128.637 43.9738 128.931 44.5448C129.088 44.8493 129.186 45.2409 129.186 45.6433L129.197 47.3237ZM120.445 49.9775H129.061L126.916 55.2253H112.472L114.616 49.9775H120.445ZM130.345 39.4817C133.05 42.1845 134.721 45.9151 134.721 50.0372C134.721 54.1594 133.05 57.8954 130.345 60.5928C127.64 63.2955 123.906 64.965 119.781 64.965C115.655 64.965 111.916 63.2955 109.217 60.5928C106.512 57.89 104.841 54.1594 104.841 50.0372C104.841 45.9151 106.512 42.1791 109.217 39.4817C111.922 36.7789 115.655 35.1094 119.781 35.1094C123.901 35.1094 127.635 36.7789 130.345 39.4817ZM130.982 91.1066C128.288 88.4147 124.559 86.7452 120.445 86.7452C116.33 86.7452 112.602 88.4092 109.908 91.1066C107.214 93.7985 105.543 97.5237 105.543 101.635C105.543 105.746 107.208 109.471 109.908 112.163C112.602 114.855 116.33 116.525 120.445 116.525C124.559 116.525 128.288 114.861 130.982 112.163C133.676 109.471 135.347 105.746 135.347 101.635C135.347 97.5237 133.676 93.7985 130.982 91.1066ZM123.52 110.782L124.429 110.962C124.293 111.255 124.124 111.522 123.923 111.718C123.83 111.816 123.716 111.897 123.612 111.946C123.591 111.892 123.569 111.826 123.553 111.756C123.493 111.495 123.482 111.201 123.514 110.896C123.514 110.864 123.514 110.82 123.52 110.782ZM120.875 110.674C120.929 110.075 121.06 109.488 121.212 108.95C121.365 108.248 122.05 107.791 122.763 107.933L126.307 108.634L126.339 108.64C127.063 108.765 127.542 109.455 127.412 110.179C127.303 110.804 127.118 111.451 126.829 112.071C126.573 112.631 126.231 113.159 125.784 113.605C125.43 113.958 124.962 114.29 124.44 114.475C123.923 114.66 123.351 114.703 122.774 114.524C122.257 114.361 121.855 114.045 121.555 113.654C121.25 113.262 121.065 112.805 120.962 112.365C120.842 111.821 120.826 111.244 120.875 110.674ZM124.249 105.306C124.211 104.817 124.162 104.316 124.113 103.821L124.086 103.528L124.075 103.43C123.945 102.087 123.808 100.678 123.89 99.362C123.923 98.8889 123.983 98.394 124.108 97.9589C124.217 97.5728 124.38 97.2193 124.619 96.942C124.717 96.8278 124.821 96.7245 124.93 96.6374C125.213 96.3982 125.49 96.2948 125.746 96.3111C126.035 96.3275 126.356 96.4906 126.677 96.7625C126.813 96.8767 126.949 97.0181 127.085 97.1813C127.934 98.1928 127.945 99.797 127.607 101.45C127.303 102.929 126.726 104.441 126.165 105.687L124.249 105.306ZM126.671 108.498L122.742 107.715V107.71C122.165 107.595 121.713 107.101 121.68 106.486C121.631 105.659 121.555 104.865 121.479 104.071L121.452 103.778L121.441 103.68C121.299 102.222 121.153 100.694 121.25 99.1988C121.289 98.568 121.381 97.8936 121.572 97.2247C121.778 96.5068 122.105 95.8162 122.611 95.2234C122.818 94.9896 123.019 94.7829 123.232 94.6035C124.07 93.9019 124.984 93.6083 125.904 93.6681C126.791 93.7225 127.64 94.1031 128.402 94.7503C128.658 94.9678 128.898 95.2125 129.126 95.4844C130.596 97.2355 130.688 99.623 130.204 101.983C129.774 104.077 128.892 106.154 128.174 107.655C127.951 108.259 127.319 108.629 126.671 108.498ZM119.672 105.121C119.52 104.42 118.834 103.963 118.121 104.099L114.545 104.806C113.821 104.931 113.337 105.621 113.467 106.339C113.582 106.965 113.767 107.623 114.05 108.237C114.311 108.797 114.654 109.325 115.1 109.771C115.454 110.124 115.922 110.456 116.445 110.641C116.962 110.826 117.533 110.869 118.11 110.69C118.627 110.527 119.03 110.211 119.329 109.825C119.634 109.434 119.819 108.977 119.922 108.536C120.048 107.998 120.064 107.422 120.015 106.851C119.961 106.247 119.83 105.659 119.672 105.121ZM117.375 107.073C117.403 107.378 117.392 107.672 117.332 107.933C117.315 108.003 117.294 108.069 117.272 108.123C117.163 108.074 117.054 107.987 116.956 107.895C116.755 107.693 116.586 107.427 116.45 107.133L117.359 106.954C117.37 106.992 117.375 107.035 117.375 107.073ZM114.719 101.864L116.641 101.477C116.679 100.988 116.733 100.488 116.777 99.9928L116.804 99.6937L116.815 99.5958C116.945 98.2526 117.082 96.844 116.994 95.528C116.962 95.0549 116.902 94.5654 116.777 94.1249C116.668 93.7443 116.505 93.3908 116.265 93.1134C116.167 92.9992 116.064 92.8959 115.955 92.8035C115.672 92.5642 115.394 92.4663 115.138 92.4772C114.85 92.4935 114.529 92.6566 114.208 92.9285C114.072 93.0482 113.936 93.1841 113.8 93.3527C112.951 94.3642 112.94 95.9685 113.283 97.6217C113.582 99.1063 114.159 100.618 114.719 101.864Z" fill="#663366"/>
</svg>
