<svg width="150" height="150" viewBox="0 0 150 150" fill="none" xmlns="http://www.w3.org/2000/svg">
<path d="M39.5475 122.268H31.6704C28.4132 122.268 25.7598 124.915 25.7598 128.178V134.089C25.7598 137.346 28.4076 139.999 31.6704 139.999H39.5475C42.8048 139.999 45.4582 137.352 45.4582 134.089V128.178C45.4582 124.921 42.8103 122.268 39.5475 122.268ZM41.5195 134.089C41.5195 135.174 40.6332 136.061 39.5475 136.061H31.6704C30.5847 136.061 29.6984 135.18 29.6984 134.089V128.178C29.6984 127.092 30.5847 126.206 31.6704 126.206H39.5475C40.6333 126.206 41.5195 127.087 41.5195 128.178V134.089Z" fill="#663366"/>
<path d="M71.0612 112.424H63.1841C59.9268 112.424 57.2734 115.072 57.2734 118.334V134.088C57.2734 137.345 59.9213 139.999 63.1841 139.999H71.0612C74.3184 139.999 76.9718 137.351 76.9718 134.088V118.334C76.9718 115.077 74.324 112.424 71.0612 112.424ZM73.0277 134.088C73.0277 135.174 72.1414 136.06 71.0557 136.06H63.1785C62.0928 136.06 61.2065 135.179 61.2065 134.088V118.334C61.2065 117.249 62.0928 116.362 63.1785 116.362H71.0557C72.1414 116.362 73.0277 117.243 73.0277 118.334V134.088Z" fill="#663366"/>
<path d="M102.576 80.9102H94.6987C91.4415 80.9102 88.7881 83.558 88.7881 86.8208V134.089C88.7881 137.346 91.436 140 94.6987 140H102.576C105.833 140 108.486 137.352 108.486 134.089V86.8208C108.486 83.5636 105.839 80.9102 102.576 80.9102ZM104.542 134.089C104.542 135.175 103.656 136.061 102.57 136.061H94.6932C93.6075 136.061 92.7212 135.18 92.7212 134.089V86.8208C92.7212 85.7351 93.6075 84.8488 94.6932 84.8488H102.57C103.656 84.8488 104.542 85.7296 104.542 86.8208V134.089Z" fill="#663366"/>
<path d="M134.09 41.5193H126.212C122.955 41.5193 120.302 44.1672 120.302 47.43V134.089C120.302 137.346 122.95 139.999 126.212 139.999H134.09C137.347 139.999 140 137.351 140 134.089L139.995 47.4243C139.995 44.1671 137.347 41.5137 134.084 41.5137L134.09 41.5193ZM136.056 134.089C136.056 135.174 135.17 136.061 134.084 136.061H126.207C125.121 136.061 124.235 135.18 124.235 134.089L124.24 47.4243C124.24 46.3386 125.127 45.4523 126.212 45.4523H134.09C135.175 45.4523 136.062 46.3331 136.062 47.4243V134.083L136.056 134.089Z" fill="#663366"/>
<path d="M125.68 32.5187C127.026 33.2112 128.533 33.6377 130.145 33.6377C135.573 33.6377 139.994 29.2172 139.994 23.7886C139.994 18.36 135.573 13.9395 130.145 13.9395C124.716 13.9395 120.295 18.36 120.295 23.7886C120.295 26.1761 121.187 28.342 122.605 30.0482L103.095 54.4551C101.749 53.7627 100.242 53.3362 98.6305 53.3362C93.2018 53.3362 88.7813 57.7567 88.7813 63.1853C88.7813 65.1906 89.3907 67.0519 90.4209 68.6084L72.5401 86.4892C70.9835 85.4589 69.1222 84.8496 67.117 84.8496C61.6884 84.8496 57.2679 89.2701 57.2679 94.6987C57.2679 95.0311 57.3344 95.3524 57.3676 95.6792L44.1837 99.8117C42.4997 96.7817 39.309 94.7043 35.603 94.7043C30.1744 94.7043 25.7539 99.1248 25.7539 104.553C25.7539 109.982 30.1744 114.403 35.603 114.403C41.0317 114.403 45.4522 109.982 45.4522 104.553C45.4522 104.221 45.3857 103.9 45.3525 103.573L58.5364 99.4404C60.2204 102.47 63.4111 104.548 67.117 104.548C72.5457 104.548 76.9662 100.127 76.9662 94.6987C76.9662 92.6934 76.3568 90.8321 75.3265 89.2756L93.2074 71.3948C94.764 72.4252 96.6253 73.0344 98.6305 73.0344C104.059 73.0344 108.48 68.6139 108.48 63.1853C108.48 60.7978 107.588 58.6319 106.17 56.9257L125.68 32.5187ZM35.6078 110.453C32.3506 110.453 29.6972 107.805 29.6972 104.543C29.6972 101.285 32.3451 98.632 35.6078 98.632C38.8651 98.632 41.5185 101.28 41.5185 104.543C41.5185 107.8 38.8706 110.453 35.6078 110.453ZM130.15 17.884C133.407 17.884 136.06 20.5318 136.06 23.7946C136.06 27.0518 133.412 29.7052 130.15 29.7052C126.892 29.7052 124.239 27.0574 124.239 23.7946C124.239 20.5374 126.887 17.884 130.15 17.884ZM67.1223 100.605C63.865 100.605 61.2116 97.9567 61.2116 94.6939C61.2116 91.4367 63.8595 88.7833 67.1223 88.7833C70.3795 88.7833 73.0329 91.4312 73.0329 94.6939C73.0329 97.9512 70.385 100.605 67.1223 100.605ZM98.6367 69.0901C95.3795 69.0901 92.7261 66.4422 92.7261 63.1795C92.7261 59.9223 95.3739 57.2688 98.6367 57.2688C101.894 57.2688 104.547 59.9167 104.547 63.1795C104.547 66.4367 101.899 69.0901 98.6367 69.0901Z" fill="#663366"/>
<path d="M27.948 114.39C27.948 113.299 27.0673 112.418 25.976 112.418H19.8494C16.5922 112.418 13.9388 109.771 13.9388 106.508L13.9443 19.8491C13.9443 16.5919 16.5922 13.9385 19.8549 13.9385H94.698C97.9552 13.9385 100.609 16.5864 100.609 19.8491V48.8039C100.609 49.8952 101.489 50.7759 102.581 50.7759C103.666 50.7759 104.553 49.8951 104.553 48.8039V19.8491C104.553 14.4205 100.132 10 94.7035 10L19.8491 10.0055C14.4205 10.0055 10 14.426 10 19.8547V106.513C10 111.942 14.4205 116.362 19.8491 116.362H25.9757C27.0615 116.362 27.948 115.482 27.948 114.39Z" fill="#663366"/>
<path d="M21.8216 21.821H23.7936C24.8794 21.821 25.7656 20.9402 25.7656 19.849C25.7656 18.7577 24.8849 17.877 23.7936 17.877H21.8216C20.7359 17.877 19.8496 18.7577 19.8496 19.849C19.8496 20.9402 20.7304 21.821 21.8216 21.821Z" fill="#663366"/>
<path d="M33.6364 21.821C34.7221 21.821 35.6084 20.9402 35.6084 19.849C35.6084 18.7577 34.7276 17.877 33.6364 17.877H31.6644C30.5787 17.877 29.6924 18.7577 29.6924 19.849C29.6924 20.9402 30.5732 21.821 31.6644 21.821H33.6364Z" fill="#663366"/>
<path d="M43.486 21.821C44.5717 21.821 45.458 20.9402 45.458 19.849C45.458 18.7577 44.5773 17.877 43.486 17.877H41.514C40.4283 17.877 39.542 18.7577 39.542 19.849C39.542 20.9402 40.4228 21.821 41.514 21.821H43.486Z" fill="#663366"/>
<path d="M18.0987 55.9773C17.6002 56.9467 17.9824 58.1321 18.9518 58.6307C22.2422 60.3202 25.9536 61.2121 29.6983 61.2121C42.7326 61.2121 53.3352 50.6095 53.3352 37.5752C53.3352 33.8361 52.4433 30.1191 50.7538 26.8287C50.2553 25.8648 49.0698 25.4771 48.1004 25.9756C47.131 26.4742 46.7488 27.6596 47.2473 28.629C48.671 31.4042 49.3911 34.4122 49.3911 37.5752C49.3911 48.4325 40.5556 57.2741 29.6922 57.2741C26.5292 57.2741 23.5157 56.5539 20.746 55.1303C19.7766 54.6318 18.5912 55.0195 18.0926 55.9834L18.0987 55.9773Z" fill="#663366"/>
<path d="M63.9709 46.6109C64.1371 45.9462 64.7741 45.4587 65.5053 45.4587C68.5686 45.4587 71.0614 42.966 71.0614 39.9026V35.2551C71.0614 32.1917 68.5686 29.6989 65.4887 29.6989C64.7796 29.6989 64.1426 29.217 63.9598 28.4913C63.8269 28.0149 63.6939 27.533 63.5222 27.0511C63.1511 26.0319 62.021 25.5057 60.9963 25.8768C59.9716 26.2479 59.4452 27.378 59.8219 28.4027C59.9604 28.7794 60.0601 29.1561 60.1543 29.5106C60.7692 31.9423 62.9629 33.6375 65.5109 33.6375C66.3861 33.6375 67.1228 34.3798 67.1228 35.255V39.9026C67.1228 40.7778 66.3806 41.52 65.4888 41.52C62.9628 41.52 60.7692 43.2151 60.1598 45.6192C59.4286 48.3336 58.343 50.9703 56.9525 53.4022C56.4429 54.2386 56.177 55.208 56.177 56.1996C56.177 57.6677 56.7586 59.0524 57.8166 60.116C58.4481 60.7475 58.4481 61.7779 57.8166 62.4094L54.5096 65.7164C54.1329 66.1041 53.6399 66.1651 53.3795 66.1651C53.1192 66.1651 52.6262 66.1097 52.2329 65.6998C50.4437 63.905 47.6961 63.5505 45.5689 64.8135C43.0983 66.2316 40.4615 67.3172 37.7749 68.0374C35.3487 68.6522 33.648 70.8459 33.648 73.394C33.648 74.2692 32.9057 75.0114 32.036 75.0114H27.3885C26.5132 75.0114 25.7765 74.2691 25.7765 73.3774C25.7765 70.8514 24.0815 68.6578 21.6829 68.0484C21.3007 67.9432 20.9184 67.8379 20.5362 67.705C19.517 67.3394 18.3869 67.8712 18.0158 68.8959C17.6502 69.9207 18.182 71.0508 19.2013 71.4163C19.6832 71.5881 20.1651 71.7265 20.6859 71.865C21.3562 72.0368 21.8381 72.6738 21.8381 73.3994C21.8381 76.4628 24.3308 78.9555 27.3942 78.9555H32.0417C35.1051 78.9555 37.5979 76.4628 37.5979 73.3828C37.5979 72.6738 38.0798 72.0367 38.7778 71.8595C41.8244 71.0452 44.7715 69.8265 47.5633 68.2256C48.1782 67.86 48.9371 67.9708 49.4412 68.4749C51.5018 70.5855 55.3019 70.5689 57.3293 68.4915L60.6198 65.2011C62.7856 63.0352 62.7856 59.5066 60.6198 57.335C60.304 57.0193 60.1323 56.6204 60.1323 56.205C60.1323 55.9335 60.2043 55.6787 60.3649 55.4128C61.9492 52.6432 63.168 49.6962 63.9933 46.6273L63.9709 46.6109Z" fill="#663366"/>
</svg>
