<svg width="150" height="150" viewBox="0 0 150 150" fill="none" xmlns="http://www.w3.org/2000/svg">
<path fill-rule="evenodd" clip-rule="evenodd" d="M85.6496 98.5975C86.8691 98.5969 88.0613 98.9563 89.0755 99.6302C90.0897 100.304 90.8804 101.262 91.3474 102.383C91.8145 103.505 91.937 104.738 91.6994 105.929C91.4619 107.119 90.875 108.213 90.0129 109.071C89.1508 109.93 88.0523 110.514 86.8563 110.751C85.6603 110.988 84.4206 110.867 83.2939 110.403C82.1672 109.938 81.2042 109.152 80.5267 108.143C79.8491 107.134 79.4875 105.947 79.4875 104.734C79.4902 103.107 80.1402 101.549 81.2951 100.399C82.4501 99.2486 84.0159 98.6009 85.6496 98.5975ZM85.6496 113.909C87.475 113.91 89.2599 113.373 90.7785 112.365C92.2971 111.357 93.4811 109.923 94.1808 108.245C94.8805 106.567 95.0644 104.72 94.7092 102.938C94.354 101.156 93.4758 99.5186 92.1855 98.2334C90.8953 96.9482 89.251 96.0728 87.4608 95.7179C85.6705 95.363 83.8148 95.5446 82.1282 96.2396C80.4417 96.9347 79.0002 98.1121 77.9861 99.6227C76.9719 101.133 76.4308 102.909 76.4311 104.726C76.4345 107.159 77.4066 109.492 79.1345 111.213C80.8623 112.934 83.2051 113.903 85.6496 113.909ZM31.3819 57.9547C32.1059 57.9544 32.8137 58.1678 33.4158 58.5679C34.0179 58.968 34.4872 59.5369 34.7645 60.2025C35.0417 60.8682 35.1144 61.6007 34.9733 62.3074C34.8323 63.0142 34.4838 63.6634 33.972 64.173C33.4602 64.6827 32.808 65.0298 32.098 65.1704C31.3879 65.3111 30.6519 65.2391 29.983 64.9634C29.3142 64.6877 28.7424 64.2208 28.3402 63.6217C27.9379 63.0226 27.7232 62.3182 27.7232 61.5976C27.7236 60.6318 28.1092 59.7057 28.7952 59.0226C29.4812 58.3395 30.4116 57.9554 31.3819 57.9547ZM31.3819 68.2855C32.7115 68.2866 34.0115 67.8952 35.1176 67.1608C36.2236 66.4264 37.0859 65.382 37.5955 64.1597C38.105 62.9374 38.2388 61.5922 37.9801 60.2942C37.7213 58.9961 37.0815 57.8037 36.1416 56.8677C35.2018 55.9316 34.0041 55.2941 32.7001 55.0357C31.3962 54.7772 30.0445 54.9096 28.8161 55.4159C27.5877 55.9223 26.5378 56.7799 25.7992 57.8802C25.0606 58.9806 24.6666 60.2743 24.6669 61.5976C24.6676 63.3704 25.3752 65.0703 26.6342 66.3243C27.8933 67.5782 29.6008 68.2835 31.3819 68.2855ZM75.3557 22.5365C75.8845 22.5362 76.4015 22.692 76.8413 22.9842C77.2811 23.2764 77.6239 23.6919 77.8265 24.178C78.029 24.6642 78.0822 25.1992 77.9792 25.7154C77.8762 26.2316 77.6217 26.7059 77.2479 27.0781C76.8741 27.4504 76.3978 27.7039 75.8792 27.8067C75.3606 27.9095 74.823 27.8569 74.3345 27.6555C73.8459 27.4542 73.4283 27.1132 73.1345 26.6756C72.8407 26.238 72.6839 25.7235 72.6839 25.1972C72.6854 24.4923 72.9674 23.8166 73.468 23.318C73.9687 22.8194 74.6474 22.5384 75.3557 22.5365ZM75.3557 30.9043C76.4899 30.9031 77.5982 30.5673 78.5407 29.9393C79.4832 29.3113 80.2174 28.4193 80.6505 27.376C81.0837 26.3327 81.1964 25.185 80.9743 24.078C80.7522 22.971 80.2054 21.9544 79.4029 21.1567C78.6004 20.359 77.5783 19.816 76.4658 19.5964C75.3533 19.3767 74.2003 19.4903 73.1527 19.9228C72.105 20.3552 71.2097 21.0871 70.5799 22.026C69.9501 22.9648 69.6141 24.0684 69.6144 25.1972C69.6167 26.7114 70.2226 28.1627 71.299 29.2327C72.3754 30.3027 73.8344 30.9039 75.3557 30.9043ZM31.3819 47.3899C28.5584 47.3916 25.7988 48.2265 23.452 49.789C21.1052 51.3516 19.2766 53.5715 18.1973 56.1683C17.118 58.7651 16.8365 61.6221 17.3883 64.3782C17.9402 67.1342 19.3007 69.6654 21.2979 71.652C23.295 73.6385 25.839 74.9911 28.6084 75.5387C31.3778 76.0863 34.2481 75.8044 36.8565 74.7285C39.4649 73.6527 41.6942 71.8313 43.2627 69.4946C44.8312 67.1578 45.6683 64.4107 45.6683 61.6005C45.6649 57.8312 44.1583 54.2173 41.4796 51.5528C38.8009 48.8883 35.169 47.391 31.3819 47.3899ZM62.4944 27.0606C62.857 29.4892 63.9043 31.7656 65.5147 33.6254C67.1252 35.4853 69.2327 36.8522 71.5925 37.5676L47.9671 56.5536C47.1429 53.8923 45.6865 51.4679 43.7214 49.4856C41.7562 47.5033 39.3401 46.0214 36.6776 45.1654L62.4944 27.0606ZM75.3484 15.3258C73.3861 15.3249 71.4675 15.9033 69.8355 16.9878C68.2034 18.0723 66.9311 19.6141 66.1796 21.4184C65.428 23.2226 65.2309 25.2081 65.6132 27.1238C65.9955 29.0396 66.9401 30.7994 68.3274 32.1808C69.7147 33.5622 71.4824 34.503 73.407 34.8844C75.3316 35.2657 77.3266 35.0705 79.1396 34.3232C80.9527 33.576 82.5024 32.3104 83.5927 30.6864C84.6831 29.0625 85.265 27.1533 85.265 25.2001C85.2612 22.5832 84.2153 20.0745 82.3565 18.2237C80.4978 16.3728 77.9777 15.3308 75.3484 15.3258ZM103.426 22.1321C102.656 24.1076 102.656 26.2984 103.426 28.2739H87.9484C88.4457 26.2566 88.4457 24.1494 87.9484 22.1321H103.426ZM111.289 19.8513C112.351 19.853 113.388 20.1679 114.27 20.7562C115.152 21.3445 115.839 22.1798 116.244 23.1565C116.649 24.1333 116.754 25.2076 116.546 26.2437C116.338 27.2799 115.826 28.2314 115.075 28.978C114.323 29.7245 113.366 30.2327 112.325 30.4382C111.284 30.6437 110.204 30.5374 109.224 30.1326C108.243 29.7279 107.405 29.0428 106.815 28.1641C106.226 27.2854 105.911 26.2525 105.911 25.1958C105.911 24.4932 106.05 23.7975 106.32 23.1485C106.591 22.4995 106.987 21.91 107.487 21.4136C107.986 20.9172 108.579 20.5237 109.232 20.2556C109.884 19.9875 110.583 19.8501 111.289 19.8513ZM63.5771 103.389L32.9711 78.7823C37.1883 78.3913 41.1164 76.4792 44.0158 73.4062C46.9152 70.3331 48.5858 66.3111 48.7131 62.0974L79.4164 83.6198C75.0594 84.903 71.2035 87.4873 68.3706 91.023C65.5377 94.5588 63.8644 98.8754 63.5771 103.389ZM104.702 104.734C104.702 100.983 103.585 97.3167 101.491 94.1983C99.3976 91.0799 96.422 88.6494 92.9406 87.2141C89.4593 85.7789 85.6285 85.4033 81.9327 86.135C78.2369 86.8667 74.8421 88.6727 72.1775 91.3247C69.513 93.9767 67.6984 97.3556 66.9633 101.034C66.2282 104.712 66.6055 108.525 68.0475 111.99C69.4895 115.455 71.9315 118.417 75.0647 120.501C78.1978 122.584 81.8814 123.696 85.6496 123.696C90.701 123.691 95.5439 121.691 99.1157 118.136C102.688 114.581 104.697 109.761 104.702 104.734ZM116.726 114.7L128.917 129.245V136.961H41.1679V129.237L53.3717 114.693H65.9354C67.7827 118.318 70.6027 121.363 74.0827 123.49C77.5627 125.617 81.5666 126.742 85.6503 126.742C89.7341 126.742 93.738 125.617 97.2179 123.49C100.698 121.363 103.518 118.318 105.365 114.693L116.726 114.7ZM27.687 78.466L63.6976 107.401C63.8752 108.844 64.1976 110.266 64.6598 111.645H52.6577C52.4329 111.645 52.2108 111.694 52.0071 111.788C51.8034 111.883 51.6232 112.021 51.4792 112.193L38.4714 127.709C38.2353 127.98 38.1068 128.327 38.1101 128.686V138.476C38.1101 138.88 38.271 139.267 38.5575 139.553C38.844 139.838 39.2327 139.999 39.6382 140H130.458C130.659 140 130.858 139.96 131.043 139.884C131.229 139.807 131.397 139.695 131.539 139.553C131.681 139.412 131.793 139.244 131.87 139.059C131.947 138.874 131.986 138.676 131.986 138.476V128.686C131.984 128.328 131.856 127.983 131.626 127.709L118.615 112.193C118.47 112.022 118.29 111.884 118.086 111.79C117.882 111.695 117.66 111.646 117.436 111.645H106.653C107.752 108.338 108.047 104.817 107.513 101.374C106.979 97.931 105.631 94.6631 103.581 91.8395C101.53 89.0158 98.8354 86.717 95.7181 85.132C92.6008 83.5471 89.1501 82.7214 85.6496 82.7228C84.953 82.7228 84.267 82.7551 83.5917 82.8196L49.713 59.0698L75.794 38.1092C78.0597 38.0294 80.2649 37.3608 82.1905 36.1698C84.116 34.9788 85.6949 33.3069 86.77 31.3203H105.509C107.072 32.7844 109.138 33.5987 111.285 33.5968C111.839 33.5957 112.392 33.5416 112.935 33.435L118.916 39.9119C119.061 40.0663 119.236 40.1895 119.431 40.2739C119.625 40.3584 119.835 40.4023 120.048 40.4031C120.199 40.404 120.349 40.3811 120.493 40.3352L134.899 35.918C135.094 35.8613 135.275 35.7666 135.433 35.6394C135.59 35.5123 135.721 35.3552 135.817 35.1772C135.913 34.9993 135.973 34.8042 135.993 34.6031C136.012 34.4021 135.992 34.1991 135.932 34.0061C135.872 33.8131 135.774 33.6338 135.644 33.4788C135.514 33.3237 135.354 33.1959 135.174 33.1028C134.994 33.0098 134.797 32.9533 134.595 32.9367C134.393 32.92 134.189 32.9436 133.996 33.006L120.517 37.14L115.944 32.1927C117.102 31.427 118.052 30.388 118.709 29.1683C119.366 27.9487 119.71 26.5862 119.71 25.2023C119.71 23.8183 119.366 22.4559 118.709 21.2362C118.052 20.0166 117.102 18.9776 115.944 18.2118L120.517 13.2645L133.996 17.3986C134.382 17.511 134.797 17.4677 135.151 17.2781C135.505 17.0885 135.77 16.7677 135.889 16.3852C136.008 16.0027 135.97 15.5892 135.785 15.2339C135.6 14.8786 135.281 14.6102 134.899 14.4866L120.493 10.0665C120.217 9.98264 119.922 9.978 119.643 10.0531C119.364 10.1282 119.112 10.28 118.916 10.4912L112.935 16.9667C112.393 16.8597 111.842 16.8055 111.289 16.8049C109.143 16.8029 107.077 17.6173 105.513 19.0814H86.77C85.4774 16.6877 83.4592 14.7606 81.0027 13.5745C78.5461 12.3884 75.7763 12.0035 73.0873 12.4747C70.3983 12.9459 67.9271 14.2492 66.0253 16.1991C64.1234 18.149 62.8879 20.6461 62.4944 23.3353L32.4849 44.3768C32.1235 44.3551 31.7593 44.3392 31.3892 44.3392C27.1043 44.3267 22.9665 45.8939 19.774 48.7385C16.5814 51.583 14.5602 55.5034 14.1002 59.7436C13.6402 63.9837 14.7741 68.2432 17.283 71.7004C19.7919 75.1577 23.4982 77.5678 27.687 78.466Z" fill="#663366"/>
</svg>
