<svg width="150" height="150" viewBox="0 0 150 150" fill="none" xmlns="http://www.w3.org/2000/svg">
<path fill-rule="evenodd" clip-rule="evenodd" d="M38.9868 68.3318C38.4107 68.9871 37.4119 69.0453 36.7567 68.4692C36.1016 67.8932 36.0433 66.8944 36.6193 66.2392L38.5482 64.062C31.6678 65.8376 26.7162 72.0733 26.7162 79.3504C26.7162 80.2277 26.008 80.9358 25.1308 80.9358C24.2535 80.9358 23.5454 80.2277 23.5454 79.3504C23.5454 70.8317 29.1998 63.4911 37.1576 61.156L35.2182 60.2207C34.4308 59.8402 34.1032 58.8943 34.4837 58.1069C34.8641 57.3195 35.8101 56.9918 36.5975 57.3723L43.0869 60.506C44.1597 60.9764 44.445 62.25 43.5942 63.1324L38.9862 68.3378L38.9868 68.3318ZM120.675 120.353C120.675 119.475 121.383 118.767 122.261 118.767C123.138 118.767 123.846 119.475 123.846 120.353V136.83H136.265C136.576 136.83 136.835 136.571 136.835 136.26V116.131C136.835 103.522 126.515 93.2013 113.906 93.2013H86.1621C73.5533 93.2013 63.2328 103.522 63.2328 116.131V136.26C63.2328 136.571 63.4918 136.83 63.8036 136.83H76.2222V120.353C76.2222 119.475 76.9304 118.767 77.8076 118.767C78.6849 118.767 79.393 119.475 79.393 120.353V136.83H120.686V120.353H120.675ZM63.7924 140H136.259C138.32 140 140 138.32 140 136.259V116.13C140 101.772 128.258 90.0293 113.9 90.0293H110.565C115.903 86.4886 119.116 80.5435 119.116 74.1117C119.116 63.569 110.57 55.0245 100.028 55.0245C94.395 55.0245 89.1 57.4871 85.4637 61.7729V49.3172H120.025C120.902 49.3172 121.61 48.6091 121.61 47.7318C121.61 46.8546 120.902 46.1465 120.025 46.1465H83.8781C83.0009 46.1465 82.2928 46.8546 82.2928 47.7318V66.6446C82.2928 66.7556 82.3033 66.8613 82.3245 66.9617C81.4314 69.1706 80.94 71.5857 80.94 74.1117C80.94 76.643 81.4367 79.0687 82.335 81.2828C82.3086 81.3991 82.2927 81.5154 82.2927 81.6422V82.2922H47.7318C46.8545 82.2922 46.1464 83.0003 46.1464 83.8776V118.439H11.5854C10.7082 118.439 10 119.147 10 120.024C10 120.901 10.7081 121.609 11.5854 121.609H47.7319C48.6091 121.609 49.3173 120.901 49.3173 120.024V85.463H83.8783C84.1266 85.463 84.3592 85.4048 84.5652 85.3044C85.9075 87.1593 87.5775 88.7605 89.4904 90.0288H86.1559C71.7982 90.0288 60.0556 101.771 60.0556 116.129V136.258C60.0556 138.319 61.7361 140 63.797 140L63.7924 140ZM100.028 58.195C108.822 58.195 115.946 65.3238 115.946 74.1125C115.946 82.9013 108.822 90.0301 100.028 90.0301C91.24 90.0301 84.1107 82.9013 84.1107 74.1125C84.1107 65.3238 91.2342 58.195 100.028 58.195ZM75.1333 32.1839C74.5572 32.8392 73.5584 32.8973 72.9032 32.3213C72.2481 31.7453 72.1898 30.7465 72.7658 30.0913L74.6947 27.914C67.8143 29.6896 62.8627 35.9254 62.8627 43.2025C62.8627 44.0797 62.1545 44.7879 61.2773 44.7879C60.4 44.7879 59.6919 44.0797 59.6919 43.2025C59.6919 34.6838 65.3463 27.3431 73.3041 25.0081L71.3647 24.0727C70.5773 23.6923 70.2497 22.7463 70.6302 21.9589C71.0106 21.1715 71.9566 20.8439 72.744 21.2244L79.2334 24.3581C80.3062 24.8284 80.5915 26.102 79.7407 26.9845L75.1327 32.1898L75.1333 32.1839ZM97.424 10C105.779 10 112.554 16.7748 112.554 25.1302C112.554 33.4856 105.779 40.2604 97.424 40.2604C89.0686 40.2604 82.2938 33.4856 82.2938 25.1302C82.2938 16.7748 89.0686 10 97.424 10ZM97.424 13.1708C90.8183 13.1708 85.4652 18.524 85.4652 25.1296C85.4652 31.7353 90.8183 37.0885 97.424 37.0885C104.03 37.0885 109.383 31.7353 109.383 25.1296C109.383 18.524 104.03 13.1708 97.424 13.1708ZM11.5877 82.2929H38.681C39.5583 82.2929 40.2664 83.001 40.2664 83.8783V110.972C40.2664 111.849 39.5583 112.557 38.681 112.557H11.5877C10.7105 112.557 10.0023 111.849 10.0023 110.972V83.8783C10.0023 83.0011 10.7104 82.2929 11.5877 82.2929ZM37.0955 85.4637V109.387H13.1719V85.4637H37.0955ZM56.7644 46.1474H65.7957C71.6404 46.1474 76.4124 50.9193 76.4124 56.7641V65.7954C76.4124 71.6401 71.6405 76.4121 65.7957 76.4121H56.7644C50.9197 76.4121 46.1477 71.6402 46.1477 65.7954V56.7641C46.1477 50.9194 50.9196 46.1474 56.7644 46.1474ZM65.7957 49.3182C69.8859 49.3182 73.2416 52.6739 73.2416 56.7641V65.7954C73.2416 69.8856 69.8859 73.2413 65.7957 73.2413H56.7644C52.6742 73.2413 49.3185 69.8856 49.3185 65.7954V56.7641C49.3185 52.6739 52.6742 49.3182 56.7644 49.3182H65.7957Z" fill="#663366"/>
</svg>
