<svg width="150" height="150" viewBox="0 0 150 150" fill="none" xmlns="http://www.w3.org/2000/svg">
<path d="M140 64.5161H135.288L128.266 68.2111C127.476 67.7749 126.654 67.4053 125.767 67.1832L116.933 64.9727V63.9684C120.841 61.2409 123.226 56.7351 123.226 51.9355V48.2702C123.226 40.1247 116.843 33.3082 108.999 33.0707C108.601 33.0604 108.208 33.0748 107.814 33.0942L110.105 27.7325L99.0013 16.6323L92.4561 20.8924C89.9692 19.4918 87.339 18.4014 84.6075 17.6366L82.9909 10H67.0112L65.3946 17.6387C62.663 18.4035 60.0308 19.4938 57.546 20.8944L51.0007 16.6343L39.9067 27.7284L42.158 33.0942C42.072 33.0901 41.9901 33.0748 41.9041 33.0727C37.8887 32.956 34.1068 34.4211 31.2339 37.2099C28.357 39.9968 26.7742 43.7368 26.7742 47.7419V51.9355C26.7742 56.7351 29.1566 61.2389 33.0645 63.9663V64.9727L27.3025 66.4133L16.8585 60.3226H10V103.77L30.6278 110.645H34.6453L35.147 108.888L41.47 112.684C41.5734 116.122 44.3306 118.888 47.7655 119.009C47.8863 122.429 50.6352 125.178 54.0558 125.299C54.1766 128.72 56.9256 131.469 60.3461 131.589C60.471 135.09 63.3377 137.903 66.8668 137.903C68.1773 137.903 69.4622 137.495 70.5423 136.767L72.3995 138.407C73.5636 139.432 75.0624 140 76.6186 140H77.0067C80.4958 140 83.3349 137.179 83.3789 133.701C86.8302 133.657 89.6252 130.862 89.6692 127.411C93.1226 127.367 95.9196 124.568 95.9595 121.115C99.4446 121.033 102.258 118.186 102.258 114.681C102.258 114.47 102.248 114.262 102.226 114.052L140 95.1671V64.5161ZM119.032 48.2702V51.9355C119.032 55.6571 117.021 59.1339 113.784 61.0085L112.736 61.6146L112.744 68.25L123.22 70.8669L100.161 83.0032V77.3548C100.161 74.5362 99.0228 71.9552 97.1584 70.0478L104.355 68.25V61.6095L103.308 61.0044C100.073 59.1339 98.0645 55.6571 98.0645 51.9355V47.7419C98.0645 44.8824 99.1948 42.2082 101.25 40.2169C103.302 38.2266 106.026 37.1536 108.873 37.2642C114.474 37.4321 119.032 42.37 119.032 48.2702ZM78.1615 81.3548L68.6697 78.3213C64.3441 76.935 59.6622 76.7282 55.2342 77.709L54.0323 77.9752V77.3548C54.0323 74.4635 55.9929 71.9531 58.7961 71.2508L70.8064 68.25V61.6095L69.7601 61.0044C66.5249 59.1339 64.5161 55.6571 64.5161 51.9355V47.7419C64.5161 44.8824 65.6464 42.2082 67.7012 40.2169C69.754 38.2266 72.4947 37.1536 75.3245 37.2642C80.9258 37.4321 85.4839 42.37 85.4839 48.2702V51.9355C85.4839 55.6571 83.4731 59.1339 80.2358 61.0085L79.1874 61.6146L79.1956 68.25L91.2039 71.2508C94.0071 71.9531 95.9677 74.4635 95.9677 77.3548V85.2115L95.4497 85.4839H94.1648L81.2739 81.8002C80.2583 81.5125 79.212 81.3947 78.1615 81.3548ZM54.5022 41.382C58.4398 33.7525 66.3651 28.871 75 28.871C83.553 28.871 91.4445 33.687 95.4118 41.2131C94.4136 43.2146 93.871 45.4312 93.871 47.7419V51.9355C93.871 56.7351 96.2534 61.2389 100.161 63.9663V64.9727L91.7742 67.0726L83.385 64.9727V63.9684C87.2929 61.2409 89.6774 56.7351 89.6774 51.9355V48.2702C89.6774 40.1247 83.295 33.3082 75.4505 33.0707C71.4371 32.9529 67.6531 34.419 64.7803 37.2079C61.9054 39.9968 60.3226 43.7368 60.3226 47.7419V51.9355C60.3226 56.7351 62.705 61.2389 66.6129 63.9663V64.9727L58.2258 67.0726L49.8367 64.9727V63.9684C53.7446 61.2409 56.129 56.7351 56.129 51.9355V48.2702C56.129 45.8028 55.5352 43.4603 54.5022 41.382ZM44.8589 28.701L51.5577 22.0022L57.4538 25.8394L58.5821 25.1474C61.4088 23.4151 64.4639 22.1465 67.6613 21.3818L68.9513 21.0726L70.4102 14.1935H79.5918L81.0467 21.0705L82.3367 21.3787C85.534 22.1445 88.5891 23.413 91.4159 25.1453L92.5441 25.8374L98.4403 22.0001L105.131 28.6928L102.753 34.2614C101.134 34.9575 99.633 35.9373 98.3266 37.2038C98.2406 37.2878 98.1669 37.3778 98.0829 37.4639C93.143 29.6112 84.4099 24.6774 75 24.6774C65.5225 24.6774 56.7648 29.6573 51.8372 37.5898C50.5185 36.2097 48.95 35.0917 47.2116 34.3105L44.8589 28.701ZM37.2581 68.25V61.6095L36.2117 61.0044C32.9765 59.1339 30.9677 55.6571 30.9677 51.9355V47.7419C30.9677 44.8824 32.098 42.2082 34.1528 40.2169C36.2056 38.2266 38.9351 37.1536 41.7762 37.2642C47.3775 37.4321 51.9355 42.37 51.9355 48.2702V51.9355C51.9355 55.6571 49.9247 59.1339 46.6874 61.0085L45.639 61.6146L45.6472 68.25L52.8416 70.0478C50.9772 71.9552 49.8387 74.5362 49.8387 77.3548V78.9079L43.2986 80.3617L43.4685 79.7679L43.5484 75.8928L32.4902 69.4417L37.2581 68.25ZM14.1935 64.5161H15.7221L30.8019 73.3117L23.1929 103.747L14.1935 100.746V64.5161ZM31.3076 106.452L27.1806 105.077L34.5726 75.5119L39.3548 78.3008V78.8997L31.4837 106.452H31.3076ZM45.6452 112.488C45.6452 111.87 45.895 111.264 46.3332 110.825L50.0189 107.14C50.4571 106.701 51.0632 106.452 51.6816 106.452C52.9777 106.452 54.0323 107.506 54.0323 108.802C54.0323 109.421 53.7824 110.027 53.3443 110.465L49.6585 114.151C49.2203 114.589 48.6142 114.839 47.9958 114.839C46.6997 114.839 45.6452 113.784 45.6452 112.488ZM51.9355 118.778C51.9355 118.16 52.1853 117.554 52.6235 117.116L56.3092 113.43C56.7474 112.992 57.3535 112.742 57.9719 112.742C59.268 112.742 60.3226 113.796 60.3226 115.093C60.3226 115.711 60.0728 116.317 59.6346 116.755L55.9488 120.441C55.5106 120.879 54.9045 121.129 54.2862 121.129C52.99 121.129 51.9355 120.074 51.9355 118.778ZM58.2258 125.069C58.2258 124.45 58.4756 123.844 58.9138 123.406L62.5995 119.72C63.0377 119.282 63.6438 119.032 64.2622 119.032C65.5584 119.032 66.6129 120.087 66.6129 121.383C66.6129 122.001 66.3631 122.607 65.9249 123.046L62.2392 126.731C61.801 127.17 61.1949 127.419 60.5765 127.419C59.2803 127.419 58.2258 126.365 58.2258 125.069ZM66.8668 133.71C65.5707 133.71 64.5161 132.655 64.5161 131.359C64.5161 130.741 64.7659 130.135 65.2041 129.696L68.8899 126.011C69.3281 125.572 69.9342 125.323 70.5525 125.323C71.8487 125.323 72.9032 126.377 72.9032 127.673C72.9032 128.292 72.6534 128.898 72.2152 129.336L68.5295 133.022C68.0913 133.46 67.4852 133.71 66.8668 133.71ZM77.0067 135.806H76.6186C76.0842 135.806 75.5723 135.612 75.174 135.259L73.6056 133.876L75.1802 132.301C75.7423 131.739 76.1784 131.07 76.5009 130.353L78.4073 131.939C78.9059 132.355 79.1935 132.967 79.1935 133.62C79.1935 134.826 78.2127 135.806 77.0067 135.806ZM95.8101 116.935H95.4476C94.9214 116.935 94.4074 116.749 94.0051 116.411L82.6346 106.936L79.9481 110.159L90.9899 119.359C91.4865 119.775 91.7742 120.387 91.7742 121.039C91.7742 122.245 90.7934 123.226 89.5873 123.226H89.1297C88.6208 123.226 88.1233 123.046 87.7311 122.718L76.3422 113.228L73.6557 116.451L84.6976 125.652C85.1962 126.065 85.4839 126.677 85.4839 127.329C85.4839 128.535 84.5031 129.516 83.297 129.516C82.4923 129.516 81.708 129.23 81.0907 128.718L76.4108 124.817C75.3798 122.71 73.2616 121.241 70.7809 121.153C70.66 117.732 67.9111 114.983 64.4905 114.862C64.3697 111.442 61.6208 108.693 58.2002 108.572C58.0774 105.072 55.2107 102.258 51.6816 102.258C49.9585 102.258 48.2723 102.956 47.0539 104.175L43.3682 107.86C43.1481 108.08 42.9658 108.33 42.7805 108.578L36.3397 104.713L41.986 84.9515L56.1413 81.8043C59.8547 80.974 63.7698 81.1542 67.391 82.3131L70.4799 83.3011L60.0083 88.5369C57.6156 89.7358 56.129 92.1428 56.129 94.819V95.2337C56.129 99.1068 59.2803 102.258 63.1534 102.258C64.426 102.258 65.6782 101.912 66.7665 101.256L74.5741 96.5738C76.1426 95.634 78.2475 95.8398 79.602 97.0581L97.3182 113.002C97.7922 113.432 98.0645 114.042 98.0645 114.681C98.0645 115.925 97.054 116.935 95.8101 116.935ZM135.806 92.5748L100.482 110.239C100.367 110.117 100.247 110.001 100.121 109.889L82.4083 93.9447C80.8562 92.5441 78.8495 91.7742 76.7589 91.7742C75.2304 91.7742 73.7294 92.1899 72.4149 92.9782L64.6042 97.6622C64.166 97.9263 63.6653 98.0645 63.1534 98.0645C61.5911 98.0645 60.3226 96.796 60.3226 95.2337V94.819C60.3226 93.7389 60.9225 92.7704 61.887 92.2881L73.583 86.4401C75.5846 85.4378 77.9609 85.2136 80.1181 85.834L93.2946 89.5976L96.4858 89.6774L135.806 68.982V92.5748Z" fill="#663366"/>
</svg>
