<svg width="150" height="150" viewBox="0 0 150 150" fill="none" xmlns="http://www.w3.org/2000/svg">
<path fill-rule="evenodd" clip-rule="evenodd" d="M70.2726 107.733C69.3457 107.489 68.7983 106.541 69.0476 105.62C69.2915 104.694 70.2401 104.147 71.1615 104.396L86.2943 108.459C88.0776 108.752 89.5789 107.901 90.0125 106.14C90.4516 104.38 89.5681 102.89 87.8445 102.327L74.4891 98.1608H53.0789L39.9946 105.729L51.9732 126.466L58.0276 123.031C59.6536 122.083 61.6375 121.964 63.3665 122.706L83.3947 131.033V131.027C86.0288 132.138 89.0587 131.737 91.3189 129.987L122.317 106.15C123.325 105.446 124.068 104.417 124.409 103.23C124.686 102.169 124.523 101.047 123.965 100.105C123.407 99.1674 122.491 98.4902 121.428 98.2247C120.377 97.9485 119.26 98.0731 118.295 98.5769C111.645 103.084 102.577 107.743 95.4547 111.904C93.3301 113.139 91.0589 113.29 88.7174 112.662L70.2724 107.721L70.2726 107.733ZM85.4817 82.8131L85.4763 79.9365H75.991V82.8185L85.4817 82.8131ZM72.5438 82.8131V78.2084H72.5383C72.5383 77.2549 73.3134 76.4748 74.2728 76.4748H75.6278V65.2338H74.2728C73.3134 65.2338 72.5383 64.4592 72.5383 63.5057V58.901H63.5516V63.5057C63.557 64.4591 62.7819 65.2338 61.828 65.2338H60.4729V76.4802H61.828V76.4748C62.7819 76.4802 63.557 77.2549 63.5516 78.2084V82.8131L72.5438 82.8131ZM79.075 76.4748H82.3976V65.2338H79.075V76.4802V76.4748ZM85.8503 76.4748H87.2053C87.666 76.4748 88.1051 76.659 88.4303 76.9841C88.7555 77.3091 88.9398 77.7479 88.9398 78.2084V82.8131H97.3411V78.2084C97.3357 77.2549 98.1108 76.4802 99.0647 76.4748H100.42V65.2338H99.0647C98.1108 65.2338 97.3357 64.4592 97.3411 63.5057V58.901H88.9398V63.5057C88.9344 64.4591 88.1593 65.2338 87.2053 65.2338H85.8503V76.4802V76.4748ZM75.9855 58.8842V61.7662H85.4708V58.8896L75.9855 58.8842ZM60.1048 82.8182V79.9362H50.6195V82.8182H60.1048ZM47.1668 82.8182V78.2081C47.1668 77.2547 47.9419 76.4746 48.8958 76.4746H50.2509V65.2336H48.8958C47.9419 65.2336 47.1668 64.4589 47.1668 63.5054V58.8791C45.8714 58.7491 44.8795 57.6602 44.8741 56.3546V52.0207C44.8795 50.6285 46.0123 49.4963 47.4053 49.4855H49.5626V38.2607C49.1181 38.2553 48.6737 38.1957 48.24 38.0819C46.2129 37.5402 44.7169 35.8175 44.4621 33.7318C44.2074 31.6462 45.248 29.6146 47.0909 28.6016L77.992 10.7517C79.6886 9.74945 81.7916 9.74945 83.488 10.7517C86.0681 12.2414 114.492 28.6446 114.492 28.6294C116.53 29.7887 117.522 32.1669 116.92 34.4259C116.318 36.6849 114.27 38.256 111.928 38.2505V49.4807H114.085H114.08C115.478 49.4862 116.611 50.6184 116.617 52.0106V56.3445C116.611 57.7421 115.478 58.8743 114.08 58.8797H113.744V63.4845C113.744 64.4379 112.969 65.2126 112.015 65.218H110.66V76.4644H112.015V76.459C112.476 76.459 112.915 76.6432 113.24 76.9682C113.565 77.2879 113.744 77.7321 113.744 78.1871V82.7919H114.08C115.478 82.8027 116.606 83.9295 116.617 85.3271V88.7346H119.37C120.091 88.7346 120.779 89.0217 121.289 89.5255C121.798 90.0347 122.08 90.7227 122.08 91.4432V94.8182L122.329 94.8832C124.275 95.3816 125.945 96.6384 126.964 98.372C127.977 100.106 128.264 102.175 127.75 104.114C127.202 106.054 126.015 107.744 124.378 108.909L93.4395 132.718C90.2037 135.231 85.8676 135.806 82.0842 134.229L62.0561 125.903C61.3081 125.572 60.4462 125.621 59.747 126.038L53.4379 129.608C53.8227 131.743 52.8254 133.882 50.9554 134.971L43.2478 139.414C40.8738 140.654 37.9415 139.869 36.5105 137.604C22.9384 114.125 26.4831 120.269 22.6891 113.713C21.269 111.254 22.1145 108.112 24.5753 106.692L32.1094 102.358H32.1148C33.9957 101.28 36.348 101.497 38.0012 102.9L46.1748 98.1599H42.1096C40.6137 98.1599 39.3996 96.9464 39.3996 95.4513V91.4587C39.3996 89.9636 40.6137 88.7501 42.1096 88.7501H44.8631V85.348C44.874 84.0479 45.8604 82.9589 47.1558 82.829L47.1668 82.8182ZM53.7035 76.4691H57.0314L57.026 65.2336H53.6927V76.48L53.7035 76.4691ZM50.6193 58.8896V61.7716H60.1046V58.8896H50.6193ZM110.285 82.8181V79.9361H100.8V82.8181H110.285ZM103.889 76.4798L107.206 76.4744V65.2334H103.884V76.4798L103.889 76.4798ZM100.81 58.8892V61.7712H110.295V58.8892H100.81ZM86.1381 98.1644H112.155L93.71 108.923C93.2168 109.221 92.6802 109.422 92.1165 109.519C92.7073 108.761 93.1301 107.883 93.3632 106.951C94.2304 103.452 92.3876 100.147 88.9024 99.0312C88.523 98.912 87.5149 98.5924 86.1327 98.1644L86.1381 98.1644ZM48.3268 88.76H113.153V86.2788H48.3268V88.76ZM118.604 94.7029V92.2217L42.8681 92.2163V94.6974L118.604 94.7029ZM80.739 26.2652C77.3731 26.2652 74.3377 28.2967 73.0477 31.4008C71.7631 34.5104 72.4732 38.0912 74.8527 40.4695C77.2321 42.8476 80.8149 43.5574 83.9261 42.2735C87.0319 40.9842 89.059 37.9505 89.059 34.5863C89.0536 29.9978 85.3299 26.2761 80.739 26.2707V26.2652ZM80.739 29.7269C78.7715 29.7269 76.9991 30.9133 76.2457 32.7282C75.4923 34.543 75.9096 36.6341 77.3026 38.0209C78.6902 39.4132 80.7823 39.8303 82.5981 39.0773C84.4139 38.3243 85.601 36.5528 85.601 34.5863C85.6064 33.297 85.0915 32.0564 84.1809 31.1463C83.2704 30.2361 82.029 29.7215 80.739 29.7269ZM53.0098 49.495L108.464 49.5005V37.0622L81.77 21.6614C81.1358 21.2822 80.3445 21.2822 79.7103 21.6614L53.0107 37.0677L53.0098 49.495ZM48.3268 52.9567V55.4379H113.153V52.9567H48.3268ZM111.137 34.6186C111.944 34.9707 112.893 34.6457 113.31 33.871C113.733 33.0963 113.494 32.1266 112.763 31.639L81.7698 13.7613C81.1356 13.3875 80.3444 13.3875 79.7101 13.7613L48.8145 31.5946C48.3809 31.8167 48.0665 32.2068 47.9364 32.6781C47.8172 33.1115 47.8768 33.5774 48.1044 33.9674C48.3267 34.3575 48.7007 34.6392 49.1343 34.7584C49.7847 34.9317 50.1208 34.7313 50.5761 34.5146L77.9917 18.6575C79.6883 17.6553 81.7913 17.6553 83.4877 18.6575C92.3118 23.7498 83.4877 18.6575 111.131 34.6061L111.137 34.6186ZM33.817 105.347C34.6246 104.881 35.6652 105.152 36.1369 105.959L49.8391 129.687L49.8445 129.681C50.2998 130.494 50.0234 131.512 49.2212 131.984L41.6979 136.318C40.8903 136.767 39.8713 136.496 39.3943 135.706L25.6866 111.984C25.2314 111.176 25.5078 110.153 26.3045 109.681L33.817 105.347Z" fill="#663366"/>
</svg>
