<svg width="150" height="150" viewBox="0 0 150 150" fill="none" xmlns="http://www.w3.org/2000/svg">
<path fill-rule="evenodd" clip-rule="evenodd" d="M12.8469 98.8634H137.212V21.8169H12.8469V98.8634ZM138.62 101.68H11.4085C10.6293 101.68 10 101.051 10 100.272V20.4085C10 19.6293 10.6293 19 11.4085 19H138.591C139.37 19 139.999 19.6293 139.999 20.4085V100.272C140.029 101.051 139.4 101.68 138.62 101.68Z" fill="#663366"/>
<path fill-rule="evenodd" clip-rule="evenodd" d="M22.4063 89.274H127.592V31.4068H22.4063V89.274ZM129.031 92.1209H20.9978C20.2187 92.1209 19.5894 91.4916 19.5894 90.7124V29.9983C19.5894 29.2192 20.2187 28.5898 20.9978 28.5898H129.031C129.81 28.5898 130.439 29.2192 130.439 29.9983V90.7124C130.469 91.4616 129.81 92.1209 129.031 92.1209Z" fill="#663366"/>
<path fill-rule="evenodd" clip-rule="evenodd" d="M49.2276 128.95H100.802V124.245C100.802 121.638 98.6739 119.54 96.0967 119.54H53.9625C51.3553 119.54 49.2576 121.668 49.2576 124.245L49.2276 128.95ZM102.21 131.797H47.8191C47.04 131.797 46.4106 131.168 46.4106 130.388V124.245C46.4106 120.08 49.797 116.693 53.9625 116.693H96.0967C100.262 116.693 103.649 120.08 103.649 124.245V130.388C103.649 131.138 102.989 131.797 102.21 131.797Z" fill="#663366"/>
<path fill-rule="evenodd" clip-rule="evenodd" d="M55.91 119.511C55.6403 119.511 55.3706 119.451 55.1609 119.271C54.5016 118.852 54.3218 117.983 54.7413 117.324L66.1889 99.4929C66.6084 98.8336 67.4775 98.6538 68.1368 99.0733C68.7961 99.4929 68.9759 100.362 68.5563 101.021L57.1087 118.882C56.839 119.301 56.3895 119.511 55.91 119.511Z" fill="#663366"/>
<path fill-rule="evenodd" clip-rule="evenodd" d="M94.119 119.511C93.6396 119.511 93.1901 119.271 92.9203 118.852L81.4728 101.021C81.0532 100.362 81.233 99.4929 81.8923 99.0733C82.5516 98.6538 83.4207 98.8336 83.8402 99.4929L95.2878 117.324C95.7073 117.983 95.5275 118.852 94.8682 119.271C94.6285 119.451 94.3888 119.511 94.119 119.511Z" fill="#663366"/>
<path fill-rule="evenodd" clip-rule="evenodd" d="M48.8382 73.3606C46.8603 73.3606 45.0623 72.7013 43.8636 71.5326C43.2942 70.9932 43.2942 70.0942 43.8636 69.5248C44.403 68.9554 45.302 68.9554 45.8714 69.5248C46.5007 70.1541 47.6395 70.5437 48.8382 70.5437C50.786 70.5437 52.2245 69.5547 52.2245 68.6857C52.2245 67.9964 51.2655 67.1274 49.6173 66.8876C47.6095 66.588 43.444 66.0186 43.444 62.1827C43.444 59.5456 46.1711 57.5078 49.6773 57.5078C51.6551 57.5078 53.4532 58.1671 54.6519 59.3358C55.2212 59.8752 55.2212 60.7743 54.6519 61.3436C54.1124 61.913 53.2134 61.913 52.644 61.3436C52.0147 60.7143 50.876 60.3248 49.6773 60.3248C47.7294 60.3248 46.2909 61.3137 46.2909 62.1827C46.2909 62.9319 46.5606 63.5612 50.0369 64.0707C53.0036 64.4902 55.0714 66.3782 55.0714 68.6857C55.0714 71.2929 52.3144 73.3606 48.8382 73.3606Z" fill="#663366"/>
<path fill-rule="evenodd" clip-rule="evenodd" d="M49.2576 75.1299C48.4784 75.1299 47.8491 74.5006 47.8491 73.7214V57.1194C47.8491 56.3403 48.4784 55.7109 49.2576 55.7109C50.0367 55.7109 50.6661 56.3403 50.6661 57.1194V73.7214C50.6661 74.5006 50.0367 75.1299 49.2576 75.1299Z" fill="#663366"/>
<path fill-rule="evenodd" clip-rule="evenodd" d="M31.5764 78.9956C30.7973 78.9956 30.168 78.3663 30.168 77.5871V53.2835C30.168 52.5043 30.7973 51.875 31.5764 51.875C32.3556 51.875 32.9849 52.5043 32.9849 53.2835V77.5871C32.9849 78.3663 32.3556 78.9956 31.5764 78.9956ZM37.8696 78.9956C37.0905 78.9956 36.4611 78.3663 36.4611 77.5871V53.2835C36.4611 52.5043 37.0905 51.875 37.8696 51.875C38.6488 51.875 39.2781 52.5043 39.2781 53.2835V77.5871C39.2781 78.3663 38.6488 78.9956 37.8696 78.9956Z" fill="#663366"/>
<path fill-rule="evenodd" clip-rule="evenodd" d="M60.6448 78.9956C59.8656 78.9956 59.2363 78.3663 59.2363 77.5871V53.2835C59.2363 52.5043 59.8656 51.875 60.6448 51.875C61.424 51.875 62.0533 52.5043 62.0533 53.2835V77.5871C62.0533 78.3663 61.424 78.9956 60.6448 78.9956ZM66.938 78.9956C66.1588 78.9956 65.5295 78.3663 65.5295 77.5871V53.2835C65.5295 52.5043 66.1588 51.875 66.938 51.875C67.7171 51.875 68.3464 52.5043 68.3464 53.2835V77.5871C68.3464 78.3663 67.7171 78.9956 66.938 78.9956Z" fill="#663366"/>
<path fill-rule="evenodd" clip-rule="evenodd" d="M28.6695 82.5009H69.8448V78.9947H28.6695V82.5009ZM71.2533 85.3178H27.261C26.4819 85.3178 25.8525 84.6885 25.8525 83.9094V77.5862C25.8525 76.8071 26.4819 76.1777 27.261 76.1777H71.2533C72.0324 76.1777 72.6618 76.8071 72.6618 77.5862V83.9094C72.6917 84.6885 72.0324 85.3178 71.2533 85.3178Z" fill="#663366"/>
<path fill-rule="evenodd" clip-rule="evenodd" d="M28.6695 51.8434H69.8148V49.8956L49.2572 38.388L28.6995 49.8956L28.6695 51.8434ZM71.2533 54.6904H27.261C26.4819 54.6904 25.8525 54.061 25.8525 53.2819V49.0864C25.8525 48.577 26.1222 48.0975 26.5718 47.8578L48.5679 35.5411C48.9874 35.3014 49.5269 35.3014 49.9464 35.5411L71.9425 47.8578C72.3921 48.0975 72.6618 48.577 72.6618 49.0864V53.2819C72.6618 54.061 72.0324 54.6904 71.2533 54.6904Z" fill="#663366"/>
<path fill-rule="evenodd" clip-rule="evenodd" d="M122.767 85.3189H77.4866C76.7074 85.3189 76.0781 84.6896 76.0781 83.9104C76.0781 83.1313 76.7074 82.502 77.4866 82.502H122.767C123.547 82.502 124.176 83.1313 124.176 83.9104C124.206 84.6896 123.577 85.3189 122.767 85.3189Z" fill="#663366"/>
<path fill-rule="evenodd" clip-rule="evenodd" d="M86.0277 85.3177C85.2485 85.3177 84.6192 84.6884 84.6192 83.9092V71.233H82.1319V83.9092C82.1319 84.6884 81.5026 85.3177 80.7234 85.3177C79.9443 85.3177 79.3149 84.6884 79.3149 83.9092V69.8245C79.3149 69.0453 79.9443 68.416 80.7234 68.416H86.0576C86.8368 68.416 87.4661 69.0453 87.4661 69.8245V83.9092C87.4361 84.6884 86.8068 85.3177 86.0277 85.3177Z" fill="#663366"/>
<path fill-rule="evenodd" clip-rule="evenodd" d="M97.2054 85.3183C96.4262 85.3183 95.7969 84.689 95.7969 83.9099V66.259H93.3096V83.9099C93.3096 84.689 92.6803 85.3183 91.9012 85.3183C91.122 85.3183 90.4927 84.689 90.4927 83.9099V64.8206C90.4927 64.0414 91.122 63.4121 91.9012 63.4121H97.2354C98.0145 63.4121 98.6438 64.0414 98.6438 64.8206V83.9099C98.6139 84.689 97.9845 85.3183 97.2054 85.3183Z" fill="#663366"/>
<path fill-rule="evenodd" clip-rule="evenodd" d="M108.383 85.3183C107.604 85.3183 106.975 84.689 106.975 83.9099V61.2544H104.487V83.9099C104.487 84.689 103.858 85.3183 103.079 85.3183C102.3 85.3183 101.67 84.689 101.67 83.9099V59.846C101.67 59.0668 102.3 58.4375 103.079 58.4375H108.413C109.192 58.4375 109.822 59.0668 109.822 59.846V83.9099C109.792 84.689 109.162 85.3183 108.383 85.3183Z" fill="#663366"/>
<path fill-rule="evenodd" clip-rule="evenodd" d="M119.561 85.3177C118.782 85.3177 118.153 84.6884 118.153 83.9093V56.2493H115.666V83.8793C115.666 84.6584 115.036 85.2878 114.257 85.2878C113.478 85.2878 112.849 84.6584 112.849 83.8793V54.8108C112.849 54.0317 113.478 53.4023 114.257 53.4023H119.591C120.37 53.4023 121 54.0317 121 54.8108V83.8793C120.97 84.6884 120.341 85.3177 119.561 85.3177Z" fill="#663366"/>
<path fill-rule="evenodd" clip-rule="evenodd" d="M81.4427 64.7302C80.9632 64.7302 80.4837 64.4904 80.214 64.0109C79.8244 63.3217 80.0642 62.4526 80.7234 62.0631L118.123 40.4865C118.812 40.0969 119.681 40.3366 120.071 40.9959C120.46 41.6852 120.221 42.5542 119.561 42.9438L82.1619 64.5204C81.9221 64.6702 81.6824 64.7302 81.4427 64.7302Z" fill="#663366"/>
<path fill-rule="evenodd" clip-rule="evenodd" d="M116.145 50.0159C115.965 50.0159 115.785 49.9859 115.635 49.926C114.916 49.6263 114.556 48.8172 114.826 48.098L116.864 42.8836L111.32 42.0446C110.541 41.9247 110.001 41.2055 110.121 40.4263C110.241 39.6472 110.96 39.1077 111.739 39.2276L119.022 40.3364C119.441 40.3963 119.831 40.6661 120.04 41.0257C120.25 41.3853 120.28 41.8648 120.13 42.2543L117.433 49.1169C117.223 49.6863 116.714 50.0159 116.145 50.0159Z" fill="#663366"/>
</svg>
