<svg width="150" height="150" viewBox="0 0 150 150" fill="none" xmlns="http://www.w3.org/2000/svg">
<path d="M137.965 134.394H26.7324C25.6085 134.394 24.7012 133.487 24.7012 132.363V66.3231C24.7012 65.1992 25.6084 64.2919 26.7324 64.2919C27.8563 64.2919 28.7635 65.1991 28.7635 66.3231V130.332H135.933V65.7147H57.518C56.3941 65.7147 55.4868 64.8075 55.4868 63.6835C55.4868 62.5596 56.394 61.6523 57.518 61.6523H137.965C139.088 61.6523 139.996 62.5596 139.996 63.6835V132.349C139.996 133.48 139.089 134.394 137.965 134.394Z" fill="#663366"/>
<path d="M137.964 65.7109C137.815 65.7109 137.66 65.6974 137.504 65.6568L66.2591 49.1842C65.1691 48.9269 64.4853 47.8369 64.7358 46.7469C64.9931 45.6569 66.0831 44.9731 67.1731 45.2236L138.425 61.7029C139.515 61.9601 140.199 63.0502 139.948 64.1401C139.725 65.0812 138.885 65.7109 137.964 65.7109Z" fill="#663366"/>
<path d="M137.965 121.12H26.7324C25.6085 121.12 24.7012 120.212 24.7012 119.088C24.7012 117.964 25.6084 117.057 26.7324 117.057H137.965C139.089 117.057 139.996 117.964 139.996 119.088C139.996 120.212 139.089 121.12 137.965 121.12ZM137.965 107.24H26.7324C25.6085 107.24 24.7012 106.333 24.7012 105.209C24.7012 104.085 25.6084 103.178 26.7324 103.178H137.965C139.089 103.178 139.996 104.085 139.996 105.209C139.996 106.333 139.089 107.24 137.965 107.24Z" fill="#663366"/>
<path d="M63.6188 95.8397H39.123C37.9991 95.8397 37.0918 94.9325 37.0918 93.8085V81.6894C37.0918 80.5655 37.999 79.6582 39.123 79.6582H63.6119C64.7358 79.6582 65.6431 80.5654 65.6431 81.6894V93.8085C65.6499 94.9392 64.736 95.8397 63.6188 95.8397ZM41.1543 91.7774H61.5875V83.7206H41.1543V91.7774Z" fill="#663366"/>
<path d="M118.223 88.1143C113.044 88.1143 108.839 83.9438 108.839 78.8117C108.839 73.6932 113.051 69.5293 118.223 69.5293C123.396 69.5293 127.6 73.6931 127.6 78.8117C127.6 83.9436 123.396 88.1143 118.223 88.1143ZM118.223 73.5917C115.285 73.5917 112.902 75.9343 112.902 78.8117C112.902 81.6959 115.285 84.0519 118.223 84.0519C121.148 84.0519 123.538 81.7093 123.538 78.8117C123.538 75.9341 121.162 73.5917 118.223 73.5917Z" fill="#663366"/>
<path d="M93.0839 99.3737C91.96 99.3737 91.0527 98.4664 91.0527 97.3425V93.2734C91.0527 92.1495 91.96 91.2422 93.0839 91.2422C94.2078 91.2422 95.1151 92.1494 95.1151 93.2734V97.3425C95.1151 98.4596 94.2011 99.3737 93.0839 99.3737Z" fill="#663366"/>
<path d="M99.5834 99.3737C98.4595 99.3737 97.5522 98.4664 97.5522 97.3425V93.2734C97.5522 92.1495 98.4595 91.2422 99.5834 91.2422C100.707 91.2422 101.615 92.1494 101.615 93.2734V97.3425C101.615 98.4596 100.701 99.3737 99.5834 99.3737Z" fill="#663366"/>
<path d="M106.077 99.3737C104.953 99.3737 104.045 98.4664 104.045 97.3425V93.2734C104.045 92.1495 104.953 91.2422 106.077 91.2422C107.2 91.2422 108.108 92.1494 108.108 93.2734V97.3425C108.108 98.4596 107.201 99.3737 106.077 99.3737Z" fill="#663366"/>
<path d="M112.576 99.3737C111.452 99.3737 110.545 98.4664 110.545 97.3425V93.2734C110.545 92.1495 111.452 91.2422 112.576 91.2422C113.7 91.2422 114.607 92.1494 114.607 93.2734V97.3425C114.607 98.4596 113.7 99.3737 112.576 99.3737Z" fill="#663366"/>
<path d="M119.076 99.3737C117.952 99.3737 117.044 98.4664 117.044 97.3425V93.2734C117.044 92.1495 117.952 91.2422 119.076 91.2422C120.2 91.2422 121.107 92.1494 121.107 93.2734V97.3425C121.107 98.4596 120.193 99.3737 119.076 99.3737Z" fill="#663366"/>
<path d="M125.568 99.3737C124.444 99.3737 123.537 98.4664 123.537 97.3425V93.2734C123.537 92.1495 124.444 91.2422 125.568 91.2422C126.692 91.2422 127.599 92.1494 127.599 93.2734V97.3425C127.599 98.4596 126.692 99.3737 125.568 99.3737Z" fill="#663366"/>
<path d="M41.0055 79.829C40.6602 79.829 40.3149 79.7342 39.9967 79.5582C29.868 73.7695 21.7232 65.2657 16.4351 54.9479C11.0457 44.4199 8.98075 32.6325 10.4703 20.8378C10.5448 20.2555 10.8698 19.7274 11.3504 19.4092C11.8379 19.0775 12.4405 18.9759 13.0092 19.1316C22.1222 21.5758 31.9397 20.181 39.949 15.2996C40.5989 14.9001 41.4114 14.9001 42.0614 15.2996C50.0641 20.1811 59.8809 21.5826 69.0012 19.1316C69.5699 18.9827 70.1657 19.0775 70.6599 19.4092C71.1474 19.741 71.4724 20.2555 71.5401 20.8378C73.0296 32.6184 70.9646 44.4185 65.5753 54.9479C60.2943 65.2661 52.1427 73.7692 42.0137 79.5582C41.6955 79.7478 41.3508 79.829 41.0055 79.829ZM14.2686 23.6131C12.5015 44.5073 22.7994 64.547 41.0125 75.4474C59.2184 64.5469 69.5225 44.5056 67.7563 23.6131C63.3894 24.5068 58.9413 24.6355 54.4931 23.9923C49.6996 23.3085 45.1769 21.758 41.0131 19.3952C36.8494 21.7581 32.3199 23.295 27.5332 23.9923C23.0783 24.6355 18.6355 24.5068 14.2686 23.6131Z" fill="#663366"/>
<path d="M49.691 63.9971H32.3188C31.1949 63.9971 30.2876 63.0898 30.2876 61.9659V44.8163C30.2876 43.6924 31.1948 42.7852 32.3188 42.7852H49.691C50.8149 42.7852 51.7222 43.6924 51.7222 44.8163V61.9591C51.7222 63.0898 50.815 63.9971 49.691 63.9971ZM34.3491 59.9347H47.6599V46.8474H34.3491V59.9347Z" fill="#663366"/>
<path d="M47.1655 46.8522C46.0416 46.8522 45.1343 45.9449 45.1343 44.821V38.8495C45.1343 36.6829 43.3333 34.9159 41.1127 34.9159C38.7024 34.9159 36.8744 36.6085 36.8744 38.8495V44.821C36.8744 45.9449 35.9671 46.8522 34.8432 46.8522C33.7193 46.8522 32.812 45.9449 32.812 44.821V38.8495C32.812 34.3675 36.4613 30.8535 41.1127 30.8535C45.5676 30.8535 49.1967 34.4418 49.1967 38.8495V44.821C49.1967 45.9381 48.2827 46.8522 47.1655 46.8522Z" fill="#663366"/>
</svg>
