<svg width="150" height="150" viewBox="0 0 150 150" fill="none" xmlns="http://www.w3.org/2000/svg">
<path fill-rule="evenodd" clip-rule="evenodd" d="M49.9927 101.528C51.4304 102.38 52.4946 103.74 52.9587 105.342C55.0983 103.615 58.0754 103.378 60.4584 104.738C61.981 105.613 63.0904 107.057 63.5432 108.755L63.5602 108.828V108.823C64.2055 108.371 64.9243 108.033 65.6885 107.83C67.3866 107.373 69.1978 107.61 70.7205 108.49L70.794 108.535H70.7884C73.5845 110.194 74.7562 113.624 73.5676 116.642C75.0561 116.394 76.5788 116.659 77.892 117.393C77.9146 117.404 77.9429 117.421 77.9656 117.432C81.107 119.249 82.1994 123.232 80.4277 126.385C80.4164 126.414 80.3994 126.436 80.3881 126.464L77.1335 132.089L81.7917 134.769V134.775C83.7728 135.897 86.2916 135.226 87.4405 133.263L87.4745 133.206C88.5556 131.237 87.8764 128.766 85.9349 127.632H85.9293L83.2634 126.098H83.2577C82.6748 125.748 82.4766 124.997 82.8162 124.411C83.1558 123.824 83.903 123.615 84.503 123.942L90.3614 127.316C92.3424 128.439 94.8612 127.767 96.0102 125.804C97.1365 123.841 96.4686 121.336 94.5102 120.185L89.0538 117.043C88.4595 116.698 88.2557 115.937 88.601 115.339C88.9462 114.746 89.7103 114.543 90.3047 114.887L95.7441 118.019H95.7554L95.7724 118.03L98.9478 119.858L99.0044 119.892L98.9987 119.886C100.974 120.969 103.459 120.281 104.597 118.34L104.631 118.284C105.712 116.315 105.027 113.844 103.08 112.71L103.012 112.67L94.6405 107.852C94.3462 107.694 94.1311 107.423 94.0405 107.102C93.9499 106.78 93.9952 106.436 94.1594 106.148C94.3292 105.861 94.6065 105.652 94.9292 105.567C95.2518 105.483 95.5971 105.528 95.8801 105.703L104.263 110.526C104.285 110.538 104.308 110.549 104.331 110.56L104.478 110.65L109.997 113.827C110.019 113.838 110.042 113.849 110.065 113.866C112.046 114.994 114.57 114.317 115.713 112.354C116.845 110.379 116.166 107.869 114.196 106.718L114.14 106.684L96.7343 96.6645C94.5382 96.7491 92.3421 96.5347 90.2025 96.0439C85.3573 94.8309 80.9821 92.2132 77.6369 88.5179C77.6142 88.4953 77.5916 88.4784 77.569 88.4558L77.4671 88.3486C75.9219 86.8479 73.8446 86.0129 71.688 86.0185C69.5597 85.9565 67.4882 86.7012 65.892 88.106L65.8297 88.168L65.7278 88.2639V88.2696C63.7411 90.3795 61.3413 92.0608 58.6696 93.2118C56.1677 94.2386 53.3264 94.0242 51.0113 92.6307C50.5868 92.3881 50.2019 92.0891 49.851 91.7506C47.9322 89.8887 47.5302 86.9664 48.8718 84.6588C49.1152 84.2357 49.4095 83.8464 49.7548 83.5023L58.0129 75.034C57.1922 75.034 56.3715 75.0622 55.5508 75.0904C51.6283 75.5248 47.6662 74.8817 44.0776 73.24L30.6517 96.4165C33.5497 98.1316 36.0515 100.445 37.9816 103.198C38.5985 103.988 39.2155 104.772 39.9117 105.545L40.8626 103.897C42.7021 100.744 46.7548 99.6605 49.9245 101.483C49.9528 101.5 49.9755 101.511 49.9981 101.528L49.9927 101.528ZM102.757 14.995C103.357 14.6565 104.115 14.8596 104.461 15.4577C104.8 16.05 104.596 16.8117 104.002 17.1502L97.6513 20.806C97.057 21.1501 96.2929 20.9414 95.9476 20.349C95.608 19.751 95.8118 18.995 96.4117 18.6508L102.762 14.995H102.757ZM50.9606 44.8008C51.2493 44.6259 51.5946 44.5695 51.9229 44.6541C52.2511 44.7331 52.5342 44.9475 52.704 45.2352C52.8738 45.5286 52.9134 45.8727 52.8228 46.1999C52.7323 46.5215 52.5115 46.798 52.2172 46.9559L47.2475 49.8163C46.6532 50.1436 45.9004 49.9405 45.5607 49.3537C45.2155 48.767 45.4079 48.011 45.9909 47.6612L50.9606 44.8008ZM45.9966 17.1499C45.4023 16.8114 45.1986 16.0498 45.5382 15.4573C45.8834 14.8593 46.6419 14.6562 47.2419 14.9947L53.0266 18.3234V18.329C53.6266 18.6675 53.8304 19.4292 53.4907 20.0216C53.1455 20.6196 52.3814 20.8227 51.787 20.4842L45.9966 17.1499ZM97.1987 46.6105L97.2043 46.6161C96.6044 46.272 96.4006 45.5103 96.7459 44.9123C97.0911 44.3199 97.8553 44.1168 98.4553 44.4609L104.008 47.6541C104.58 48.0095 104.766 48.7543 104.427 49.3354C104.087 49.9222 103.346 50.1309 102.751 49.8093L97.1988 46.6161L97.1987 46.6105ZM42.2321 33.6513C41.5359 33.6513 40.9756 33.0928 40.9756 32.4045C40.9756 31.7162 41.5359 31.1577 42.2321 31.1577H48.396C49.0866 31.1577 49.6469 31.7162 49.6469 32.4045C49.6469 33.0928 49.0866 33.6513 48.396 33.6513H42.2321ZM100.843 33.6513C100.147 33.6513 99.5864 33.0928 99.5864 32.4045C99.5864 31.7162 100.147 31.1577 100.843 31.1577H107.771H107.765C108.461 31.1577 109.022 31.7162 109.022 32.4045C109.022 33.0928 108.461 33.6513 107.765 33.6513H100.843ZM71.3934 39.372C72.0669 39.3946 72.6046 39.9475 72.6046 40.6188C72.6046 41.2958 72.0669 41.8487 71.3934 41.8713H68.3029C67.9746 41.8713 67.652 41.7359 67.4199 41.5046C67.1822 41.2676 67.052 40.9517 67.052 40.6188V34.8417C67.052 34.1534 67.6124 33.5948 68.3029 33.5948H80.9307C81.6212 33.5948 82.1816 34.1534 82.1816 34.8417V40.6188C82.1816 40.9517 82.0514 41.2676 81.8193 41.5046C81.5816 41.7359 81.2646 41.8713 80.9307 41.8713H77.8402C77.1667 41.8487 76.629 41.2958 76.629 40.6188C76.629 39.9475 77.1667 39.3946 77.8402 39.372H79.6798V36.0886H75.8705V57.5896H81.9835V56.828C81.9496 54.1312 83.3363 51.615 85.64 50.1933C93.3265 45.3132 96.8528 35.9591 94.3057 27.2363C91.753 18.5141 83.7325 12.5176 74.6195 12.5176C65.501 12.5176 57.4807 18.5147 54.9334 27.2363C52.3806 35.9585 55.9126 45.313 63.5991 50.1933C65.8971 51.615 67.284 54.1312 67.2556 56.828V57.584H73.3686L73.363 36.0887H69.5537V39.3721L71.3934 39.372ZM84.4854 57.713C86.1438 58.1643 87.2985 59.6651 87.2985 61.3802C87.2985 63.0953 86.1438 64.596 84.4854 65.0474V68.6187C84.6043 68.6638 84.7231 68.7089 84.842 68.7653C85.5835 69.07 86.1834 69.3352 86.7892 69.6003C90.0099 71.0277 93.1909 72.4324 96.4963 70.943L103.956 67.5975C103.905 64.3535 105.62 61.3352 108.434 59.7104L112.016 57.6455H112.022C116.312 55.1914 121.786 56.6525 124.271 60.9233L138.806 86.0062C141.268 90.2826 139.802 95.7383 135.523 98.2149L135.455 98.2544L131.934 100.274C128.442 102.271 124.044 101.713 121.163 98.9088L116.556 105.369L116.561 105.363C118.854 107.422 119.425 110.785 117.942 113.482C117.908 113.549 117.874 113.617 117.829 113.679C115.99 116.742 112.039 117.803 108.903 116.065C108.841 116.037 108.778 115.998 108.716 115.958L107.556 115.292C107.782 116.748 107.51 118.232 106.792 119.513C106.78 119.541 106.763 119.563 106.752 119.591H106.746C105.179 122.288 101.935 123.529 98.958 122.565C99.2353 124.099 98.9636 125.673 98.1882 127.027L98.1825 127.044C96.6147 129.741 93.3658 130.982 90.3885 130.023C90.6658 131.529 90.4055 133.087 89.6527 134.424C89.6413 134.452 89.6244 134.474 89.613 134.503C87.7792 137.656 83.7265 138.74 80.5568 136.917L75.8927 134.232L74.5116 136.618V136.624C74.4777 136.692 74.4437 136.754 74.3984 136.81C72.5532 139.845 68.6419 140.889 65.5233 139.18C65.4553 139.151 65.3874 139.112 65.3251 139.072C64.0346 138.305 63.0441 137.12 62.5234 135.716C60.5084 138.243 56.9651 138.954 54.1349 137.402C54.0613 137.374 53.9934 137.335 53.9312 137.29C51.7407 135.981 50.4954 133.532 50.7332 130.993L50.6596 131.016C48.9899 131.462 47.2126 131.242 45.7069 130.401C45.6786 130.39 45.656 130.373 45.6277 130.362V130.356C43.2448 128.979 41.96 126.288 42.3957 123.58C40.7429 123.981 38.9995 123.727 37.5279 122.881C34.3638 121.053 33.2771 117.024 35.0996 113.859L38.609 107.806L38.6033 107.811C37.692 106.824 36.826 105.797 36.0224 104.725C34.245 102.181 31.9301 100.048 29.2414 98.4857C26.4114 101.634 21.7473 102.384 18.0683 100.274L14.5477 98.2545L14.4797 98.215C10.2007 95.7439 8.72893 90.2827 11.1969 86.0063L25.7203 60.9234C28.205 56.6526 33.6785 55.1913 37.9688 57.6455L41.5518 59.7104C45.5083 61.9953 47.1157 66.8754 45.2818 71.0504C48.4741 72.4496 51.9891 72.9855 55.4588 72.6019C57.27 72.4947 59.0926 72.5229 60.8982 72.6921C61.7189 72.2521 62.5963 71.9248 63.5076 71.7274L64.7471 71.4397V65.0532C63.0888 64.6018 61.9397 63.1011 61.9397 61.386C61.9397 59.6709 63.0887 58.1701 64.7471 57.7188V56.8274C64.7811 54.9826 63.8302 53.2561 62.2566 52.2858C56.6191 48.7089 52.8155 42.8642 51.8475 36.2687C50.8796 29.6735 52.8324 22.988 57.202 17.9436C61.5773 12.8998 67.928 10 74.6191 10C81.3038 10 87.6601 12.8998 92.0303 17.9436C96.3999 22.9873 98.3528 29.6728 97.3848 36.2687C96.4169 42.8639 92.6132 48.7088 86.9757 52.2858C85.3966 53.2562 84.4513 54.9826 84.4852 56.8274V57.7188L84.4854 57.713ZM81.9836 65.1883H67.2559V70.8752L78.6894 68.2631C79.7082 68.0205 80.761 67.9359 81.8081 68.0205L81.9835 68.0374L81.9836 65.1883ZM83.4892 60.0883H65.7447C65.0259 60.0883 64.4428 60.6694 64.4428 61.3859C64.4428 62.108 65.0258 62.6891 65.7447 62.6891H83.4892C84.208 62.6891 84.7967 62.108 84.7967 61.3859C84.7967 60.6694 84.208 60.0883 83.4892 60.0883ZM82.9854 70.7568C83.2911 70.8414 83.5968 70.9486 83.8967 71.0727C84.4401 71.2927 85.1137 71.5917 85.7816 71.8908C89.5173 73.5438 93.2021 75.1686 97.5322 73.2279L104.375 70.1531L104.37 70.1475C104.562 70.7399 104.811 71.3097 105.117 71.8513C105.128 71.8795 105.145 71.9021 105.156 71.9303L119.584 96.8385L114.467 104.015L100.957 96.2405V96.2349C103.204 95.84 105.411 95.2645 107.562 94.5029C108.213 94.2772 108.558 93.5664 108.332 92.9175C108.105 92.2687 107.392 91.9245 106.741 92.1502C100.487 94.3279 95.2399 94.6721 90.7574 93.617L90.763 93.6227C86.3934 92.5225 82.4482 90.1531 79.4314 86.8132C79.4087 86.7906 79.3917 86.768 79.3691 86.7455L79.2333 86.6101H79.2389C75.0561 82.6326 68.5242 82.4972 64.1765 86.2998C64.1482 86.3223 64.1256 86.3393 64.0973 86.3675L63.9501 86.5141L63.9558 86.5085C62.2238 88.3703 60.1239 89.8597 57.7975 90.8922C55.9919 91.6369 53.9372 91.4902 52.2562 90.4916C52.0128 90.3506 51.7807 90.1814 51.5826 89.9839C50.4846 88.9176 50.2525 87.2421 51.0166 85.9218C51.1581 85.6736 51.3336 85.4479 51.5317 85.2448L60.2653 76.2914H60.2596C60.7747 75.7611 61.3577 75.3041 62.0029 74.9374C62.6482 74.582 63.3444 74.3224 64.0633 74.1588L66.1972 73.668V73.6736C66.2538 73.6624 66.3104 73.6511 66.3614 73.6342L79.2439 70.6778C80.0137 70.4973 80.8117 70.4352 81.5985 70.4917C82.0174 70.5255 82.4249 70.5989 82.8325 70.7004C82.8834 70.7173 82.9343 70.7343 82.9853 70.7455L82.9854 70.7568ZM127.468 83.9584C125.17 83.9584 123.195 85.5776 122.748 87.823C122.295 90.0685 123.501 92.3139 125.623 93.194C127.746 94.0685 130.191 93.3295 131.47 91.4225C132.744 89.5212 132.495 86.9825 130.87 85.3689C129.97 84.4662 128.748 83.9584 127.468 83.9584ZM129.104 87.1403C128.323 86.3618 127.101 86.2377 126.184 86.847C125.267 87.4619 124.91 88.6298 125.329 89.6453C125.753 90.6608 126.835 91.2419 127.916 91.0275C128.997 90.8131 129.778 89.8653 129.778 88.7652C129.778 88.1558 129.534 87.5691 129.104 87.1403ZM34.6523 62.9153C32.36 62.9153 30.3845 64.5345 29.9374 66.7743C29.4902 69.0197 30.6958 71.2652 32.8128 72.1395C34.9353 73.014 37.3805 72.2749 38.654 70.3736C39.9275 68.4723 39.6785 65.9392 38.0597 64.32C37.1541 63.4173 35.9315 62.9153 34.6523 62.9153ZM36.2881 66.0916C35.507 65.3187 34.29 65.1946 33.3731 65.8039C32.4562 66.4132 32.0996 67.5867 32.5184 68.5965C32.9429 69.612 34.0241 70.1876 35.1052 69.9731C36.1863 69.7587 36.9617 68.8165 36.9617 67.7164C36.9617 67.1071 36.7182 66.526 36.2881 66.0916ZM41.2803 108.156L43.018 105.155C44.167 103.186 46.6915 102.515 48.6724 103.643L48.7347 103.677C50.6535 104.845 51.2987 107.321 50.1837 109.273L50.1441 109.341L47.863 113.285C46.6404 115.367 45.4235 117.443 44.2236 119.53C42.984 121.268 40.6293 121.781 38.7729 120.726C36.8031 119.581 36.1296 117.07 37.2559 115.096L41.2011 108.286C41.2294 108.241 41.2577 108.196 41.2803 108.151L41.2803 108.156ZM40.3124 61.8656C43.369 63.6484 44.4331 67.5356 42.7123 70.6216L42.684 70.678L28.149 95.7552C26.3491 98.8299 22.404 99.885 19.3021 98.119L15.7871 96.0993C15.7645 96.0824 15.7475 96.0711 15.7248 96.0598V96.0542C12.6457 94.2657 11.5872 90.3335 13.3533 87.2474L27.8824 62.1587C29.6824 59.0896 33.6218 58.0401 36.7237 59.8004L40.3124 61.8656ZM113.273 59.8007L113.267 59.8063C116.369 58.0461 120.308 59.0955 122.108 62.1646L136.643 87.2417C138.409 90.3334 137.351 94.2601 134.272 96.0542C134.249 96.0655 134.226 96.0824 134.209 96.0937L130.694 98.119C127.593 99.8849 123.648 98.8299 121.853 95.7551L107.318 70.678L107.284 70.6216C105.564 67.5356 106.628 63.6484 109.684 61.8656L113.267 59.8007L113.273 59.8007ZM71.1502 120.973C72.3218 119.117 74.7388 118.497 76.6688 119.552L76.7254 119.586H76.7198C78.667 120.72 79.3574 123.191 78.2707 125.16L78.2367 125.216L72.3048 135.456C71.1671 137.391 68.6879 138.074 66.7125 136.996L66.6559 136.962H66.6615C64.6974 135.817 64.0183 133.306 65.1446 131.337L71.15 120.968L71.1502 120.973ZM62.9826 130.096L60.9563 133.6H60.9506C60.9166 133.65 60.8883 133.707 60.86 133.763C59.6997 135.625 57.2885 136.268 55.3527 135.23C55.3017 135.196 55.2508 135.168 55.1998 135.14C53.2754 133.978 52.6358 131.501 53.7508 129.555L62.009 115.298L62.892 113.769L63.8259 112.155C64.9749 110.192 67.4936 109.515 69.4747 110.643L69.537 110.677C71.4614 111.845 72.101 114.322 70.986 116.274L68.9144 119.851L62.9824 130.09L62.9826 130.096ZM52.5225 126.694V126.688C51.3904 128.618 48.9339 129.312 46.9586 128.251C46.9133 128.217 46.868 128.184 46.8171 128.161C44.9209 127.01 44.27 124.578 45.3285 122.638C45.3625 122.593 45.3908 122.542 45.4134 122.491L46.5851 120.471L52.3472 110.519L53.5245 108.483H53.5302C53.5641 108.437 53.5868 108.392 53.6151 108.342C54.7697 106.452 57.2093 105.797 59.1564 106.863C59.196 106.886 59.2413 106.914 59.2865 106.937C61.1601 108.076 61.8223 110.474 60.7978 112.409L60.7299 112.522L60.5148 112.9L52.5225 126.694Z" fill="#663366"/>
</svg>
