<svg width="150" height="150" viewBox="0 0 150 150" fill="none" xmlns="http://www.w3.org/2000/svg">
<path d="M34.2657 56.3223C36.6253 56.3223 38.9319 55.6213 40.8939 54.308C42.8558 52.9947 44.385 51.128 45.2879 48.944C46.1909 46.76 46.4272 44.3568 45.9668 42.0383C45.5065 39.7197 44.3702 37.5901 42.7017 35.9185C41.0332 34.2469 38.9074 33.1086 36.5932 32.6474C34.2789 32.1862 31.8801 32.4229 29.7001 33.3276C27.5201 34.2322 25.6568 35.7642 24.3459 37.7297C23.0349 39.6952 22.3352 42.0061 22.3352 44.37C22.3391 47.5388 23.5972 50.5767 25.8338 52.8174C28.0704 55.058 31.1027 56.3185 34.2657 56.3223ZM34.2657 35.8809C35.9415 35.8812 37.5797 36.3793 38.973 37.3123C40.3662 38.2453 41.4521 39.5712 42.0932 41.1224C42.7344 42.6736 42.902 44.3804 42.5748 46.0271C42.2477 47.6737 41.4406 49.1862 40.2555 50.3733C39.0703 51.5604 37.5605 52.3687 35.9168 52.6962C34.2731 53.0236 32.5694 52.8554 31.0212 52.2128C29.4729 51.5703 28.1496 50.4822 27.2186 49.0862C26.2875 47.6902 25.7906 46.049 25.7906 44.37C25.7929 42.119 26.6866 39.9609 28.2755 38.3693C29.8644 36.7778 32.0188 35.8828 34.2657 35.8809ZM137.168 90.8438V26.7574C137.908 26.6738 138.592 26.3203 139.089 25.7643C139.587 25.2082 139.862 24.4883 139.864 23.7418V19.0504C139.863 18.2417 139.542 17.4665 138.971 16.8947C138.4 16.3229 137.626 16.0011 136.819 16H53.4871C52.6799 16.0011 51.9061 16.3229 51.3354 16.8947C50.7646 17.4665 50.4434 18.2417 50.4423 19.0504V23.7418C50.4438 24.5343 50.7534 25.2951 51.3053 25.8629C51.8572 26.4307 52.6081 26.7608 53.3989 26.7834V59.5175H23.9559C20.2559 59.5217 16.7086 60.9961 14.0922 63.6173C11.4759 66.2384 10.0042 69.7922 10 73.499V95.3005C9.99982 96.4303 10.2917 97.5408 10.8472 98.524C11.4028 99.5071 12.203 100.329 13.17 100.911C14.137 101.492 15.2378 101.812 16.3651 101.841C17.4924 101.869 18.6078 101.604 19.6027 101.072V126.788C19.6016 128.499 20.1344 130.168 21.1268 131.561C22.1191 132.954 23.5213 134.001 25.1372 134.556C26.753 135.111 28.5017 135.147 30.1385 134.657C31.7753 134.167 33.2183 133.177 34.2657 131.825C35.313 133.177 36.7561 134.167 38.3929 134.657C40.0297 135.147 41.7783 135.111 43.3942 134.556C45.01 134.001 46.4122 132.954 47.4046 131.561C48.3969 130.168 48.9298 128.499 48.9286 126.788L48.9416 72.6561L53.3989 72.6416V90.8438C52.6317 90.8955 51.9128 91.2369 51.3871 91.799C50.8614 92.3611 50.5682 93.1021 50.5666 93.8724V98.5653C50.5678 99.3742 50.8891 100.15 51.4602 100.721C52.0313 101.293 52.8054 101.615 53.6128 101.616H136.955C137.763 101.615 138.537 101.293 139.107 100.721C139.678 100.149 139.999 99.374 140 98.5653V93.8724C139.998 93.1021 139.705 92.3611 139.18 91.799C138.654 91.2369 137.935 90.8955 137.168 90.8438ZM53.8919 19.4632H136.415V23.3304H53.8919V19.4632ZM47.2067 69.2002C46.7501 69.2036 46.3132 69.3872 45.9908 69.7113C45.6685 70.0353 45.4867 70.4736 45.4848 70.931L45.4732 126.788C45.4515 128.033 44.9426 129.219 44.056 130.092C43.1695 130.965 41.9762 131.454 40.7333 131.454C39.4903 131.454 38.2971 130.965 37.4105 130.092C36.524 129.219 36.0151 128.033 35.9933 126.788V107.189C36.0153 106.948 35.987 106.706 35.9102 106.477C35.8334 106.248 35.7097 106.037 35.5471 105.859C35.3846 105.681 35.1866 105.538 34.966 105.44C34.7454 105.343 34.5068 105.293 34.2657 105.293C34.0245 105.293 33.786 105.343 33.5653 105.44C33.3447 105.538 33.1468 105.681 32.9842 105.859C32.8216 106.037 32.698 106.248 32.6211 106.477C32.5443 106.706 32.516 106.948 32.538 107.189V126.788C32.5163 128.033 32.0073 129.219 31.1208 130.092C30.2343 130.965 29.041 131.454 27.798 131.454C26.5551 131.454 25.3618 130.965 24.4753 130.092C23.5888 129.219 23.0798 128.033 23.0581 126.788V79.9126C23.0187 79.4809 22.8196 79.0795 22.4999 78.7873C22.1803 78.495 21.7632 78.333 21.3304 78.333C20.8977 78.333 20.4806 78.495 20.1609 78.7873C19.8413 79.0795 19.6422 79.4809 19.6027 79.9126V95.3005C19.6027 96.1172 19.2789 96.9005 18.7025 97.478C18.1261 98.0554 17.3443 98.3799 16.5291 98.3799C15.7139 98.3799 14.9321 98.0554 14.3556 97.478C13.7792 96.9005 13.4554 96.1172 13.4554 95.3005V73.4918C13.4584 70.7029 14.5658 68.029 16.5344 66.0571C18.503 64.0851 21.1721 62.9761 23.9559 62.9734H67.6454C68.4602 62.9734 69.2417 63.2977 69.8178 63.8749C70.394 64.4521 70.7177 65.235 70.7177 66.0513C70.7177 66.8676 70.394 67.6505 69.8178 68.2277C69.2417 68.8049 68.4602 69.1292 67.6454 69.1292L55.1381 69.1726H55.1208L47.2067 69.2002ZM67.6526 72.5923C69.3843 72.5914 71.0446 71.9013 72.2683 70.674C73.4921 69.4466 74.179 67.7825 74.1781 66.0477C74.1771 64.3129 73.4883 62.6495 72.2632 61.4235C71.0381 60.1975 69.377 59.5093 67.6454 59.5103H56.8557V26.7936H133.718V90.822H118.766V68.7352C118.766 68.2743 118.583 67.8322 118.258 67.5062C117.933 67.1802 117.491 66.9971 117.031 66.9971H106.674C106.446 66.9971 106.22 67.0421 106.01 67.1294C105.799 67.2168 105.608 67.3448 105.447 67.5062C105.286 67.6676 105.158 67.8592 105.071 68.0701C104.984 68.281 104.939 68.507 104.939 68.7352V90.822H101.822V75.1213C101.822 74.6603 101.639 74.2182 101.314 73.8923C100.988 73.5663 100.547 73.3832 100.087 73.3832H89.7309C89.2707 73.3832 88.8295 73.5663 88.5041 73.8923C88.1787 74.2182 87.9959 74.6603 87.9959 75.1213V90.822H84.8774V81.0742C84.8774 80.6133 84.6947 80.1712 84.3693 79.8452C84.0439 79.5193 83.6027 79.3361 83.1425 79.3361H72.7865C72.3264 79.3361 71.8851 79.5193 71.5598 79.8452C71.2344 80.1712 71.0516 80.6133 71.0516 81.0742V90.822H56.8557V72.63L67.6526 72.5923ZM108.397 90.822V70.4675H115.305V90.822H108.397ZM91.4542 90.822V76.8521H98.3621V90.822H91.4542ZM74.5099 90.822V82.8051H81.4177V90.822H74.5099ZM136.545 98.1525H54.0292V94.2852H72.4627C72.6765 94.3277 72.8966 94.3277 73.1104 94.2852H82.8259C83.0397 94.3277 83.2598 94.3277 83.4736 94.2852H89.4012C89.6155 94.3277 89.8361 94.3277 90.0504 94.2852H99.7659C99.9797 94.3277 100.2 94.3277 100.414 94.2852H106.341C106.555 94.3277 106.775 94.3277 106.989 94.2852H116.704C116.919 94.3277 117.139 94.3277 117.354 94.2852H136.545V98.1525ZM115.022 34.3948C115.022 33.9351 115.203 33.4941 115.527 33.1684C115.851 32.8426 116.29 32.6587 116.749 32.6567H126.267C126.699 32.6944 127.102 32.8931 127.395 33.2137C127.689 33.5342 127.852 33.9534 127.852 34.3883C127.852 34.8233 127.689 35.2424 127.395 35.563C127.102 35.8835 126.699 36.0823 126.267 36.1199H116.749C116.293 36.118 115.855 35.9358 115.532 35.6129C115.208 35.2899 115.025 34.8523 115.022 34.3948ZM115.022 42.0714C115.023 41.6129 115.206 41.1738 115.53 40.8496C115.853 40.5254 116.292 40.3425 116.749 40.3406H126.267C126.699 40.3782 127.102 40.5769 127.395 40.8975C127.689 41.2181 127.852 41.6372 127.852 42.0721C127.852 42.5071 127.689 42.9262 127.395 43.2468C127.102 43.5674 126.699 43.7661 126.267 43.8037H116.749C116.292 43.8018 115.854 43.619 115.53 43.2952C115.207 42.9713 115.024 42.5325 115.022 42.0743V42.0714ZM115.022 49.748C115.022 49.2883 115.203 48.8473 115.527 48.5215C115.851 48.1958 116.29 48.0118 116.749 48.0099H126.267C126.699 48.0475 127.102 48.2463 127.395 48.5668C127.689 48.8874 127.852 49.3065 127.852 49.7415C127.852 50.1764 127.689 50.5955 127.395 50.9161C127.102 51.2367 126.699 51.4354 126.267 51.473H116.749C116.294 51.4712 115.857 51.2898 115.534 50.9681C115.21 50.6464 115.027 50.2102 115.022 49.7538V49.748ZM92.9274 66.9537C96.3877 66.9554 99.7708 65.929 102.649 64.0043C105.527 62.0796 107.77 59.343 109.096 56.1407C110.421 52.9385 110.769 49.4144 110.095 46.0141C109.421 42.6139 107.755 39.4903 105.309 37.0384C102.863 34.5865 99.7458 32.9164 96.3522 32.2395C92.9585 31.5626 89.4406 31.9091 86.2436 33.2354C83.0465 34.5616 80.3138 36.8079 78.3912 39.6902C76.4686 42.5725 75.4424 45.9613 75.4424 49.4279C75.4466 54.0732 77.2899 58.5272 80.5678 61.8128C83.8457 65.0983 88.2906 66.9472 92.9274 66.9537ZM106.846 47.6898H94.6624V35.4869C97.7575 35.8765 100.635 37.2874 102.841 39.497C105.047 41.7066 106.456 44.5891 106.846 47.6898ZM91.2027 35.4811V49.4279C91.2027 49.6561 91.2475 49.8822 91.3347 50.093C91.4219 50.3039 91.5497 50.4955 91.7108 50.6569C91.8719 50.8183 92.0632 50.9463 92.2736 51.0337C92.4841 51.121 92.7097 51.166 92.9376 51.166H106.853C106.53 53.7773 105.481 56.2451 103.826 58.2885C102.172 60.3319 99.9774 61.8687 97.4935 62.7239C95.0096 63.579 92.3359 63.7182 89.7769 63.1255C87.218 62.5328 84.8765 61.2321 83.0193 59.3715C81.1622 57.5109 79.8638 55.1652 79.2722 52.6016C78.6806 50.0379 78.8195 47.3593 79.6731 44.8709C80.5267 42.3824 82.0607 40.1841 84.1004 38.5264C86.14 36.8686 88.6034 35.818 91.2099 35.4942L91.2027 35.4811Z" fill="#663366"/>
</svg>
