<svg width="150" height="150" viewBox="0 0 150 150" fill="none" xmlns="http://www.w3.org/2000/svg">
<path fill-rule="evenodd" clip-rule="evenodd" d="M11.3264 22H138.673C139.404 22 140 22.5966 140 23.3288V98.865C140 99.5972 139.404 100.194 138.673 100.194L81.6085 100.188V116.064L90.5028 126.825C91.2286 127.698 90.5678 129 89.479 129H60.5156C59.416 129 58.739 127.693 59.5352 126.776L68.386 116.064L68.3915 100.188H11.3271C10.5958 100.188 10 99.5918 10 98.8596V23.3289C10 22.5913 10.5952 22 11.3264 22ZM105.165 51.6622C105.777 50.8215 106.693 49.7692 107.364 49.5197V49.5143C108.724 49.0153 108.394 46.976 106.931 46.9488L91.1258 46.6451C89.945 46.5963 89.3329 47.9088 90.0046 48.7767L99.6843 61.2947C100.589 62.515 102.441 61.5442 102.03 60.1503C101.829 59.4669 102.127 58.1 102.436 57.1021L108.47 60.134C109.126 60.4594 109.916 60.1937 110.241 59.5428C110.566 58.8865 110.301 58.0946 109.651 57.7693L103.416 54.6344L103.774 53.9185L110.014 57.0588C110.669 57.3842 111.46 57.1185 111.785 56.4676C112.11 55.8168 111.845 55.0194 111.195 54.6941L105.165 51.6622ZM99.3911 49.4547L93.7848 49.3463L99.7106 57.01C100.377 54.4825 101.839 51.5753 103.464 49.5307L99.3911 49.4547ZM112.364 72.516V77.2835C112.364 77.9778 111.828 78.5527 111.151 78.6069H115.647V72.5107L112.364 72.516ZM110.929 78.6069C110.246 78.5527 109.715 77.9778 109.715 77.2835V72.516H107.624V75.4286C107.624 77.1751 104.97 77.1751 104.97 75.4286V72.516H102.879V75.4286C102.879 77.1751 100.225 77.1751 100.225 75.4286V72.516H98.1344V75.4286C98.1344 77.1751 95.4801 77.1751 95.4801 75.4286V72.516H93.3893V77.2835C93.3893 77.9778 92.853 78.5527 92.176 78.6069H110.929ZM91.9437 78.6069C91.2612 78.5527 90.7304 77.9778 90.7304 77.2835V72.516H88.6395V75.4286C88.6395 77.1751 85.9853 77.1751 85.9853 75.4286V72.516H83.8945V75.4286C83.8945 77.1751 81.2402 77.1751 81.2402 75.4286V72.516H79.1494V77.2835C79.1494 77.9778 78.6132 78.5527 77.9361 78.6069H91.9437ZM77.7081 78.6069C77.0256 78.5527 76.4948 77.9778 76.4948 77.2835V72.516H74.4039V75.4286C74.4039 77.1751 71.7497 77.1751 71.7497 75.4286V72.516H69.6589V75.4286C69.6589 77.1751 67.0047 77.1751 67.0047 75.4286V72.516H64.9138V75.4286C64.9138 77.1751 62.2596 77.1751 62.2596 75.4286V72.516H58.9825V78.6123H77.7081V78.6069ZM57.6499 69.8584C56.9186 69.8584 56.3228 70.455 56.3228 71.1872V79.9357C56.3228 80.6679 56.9186 81.2645 57.6499 81.2645H116.973C117.704 81.2645 118.3 80.6679 118.3 79.9357V71.1872C118.3 70.455 117.704 69.8584 116.973 69.8584H57.6499ZM68.3912 89.4429C67.4378 89.4429 66.5712 89.8334 65.9429 90.4626C63.7546 92.6537 65.3308 96.3853 68.3912 96.3853H81.6134C82.5667 96.3853 83.4334 95.9948 84.0617 95.3656C86.25 93.1744 84.6738 89.4429 81.6134 89.4429H68.3912ZM81.6078 92.1006H68.3856C67.3186 92.1006 67.3186 93.7278 68.3856 93.7278H81.6078C82.6749 93.7278 82.6749 92.1006 81.6078 92.1006ZM74.0244 55.1156L68.4885 51.9155V58.3156L74.0244 55.1156ZM72.5781 51.2159L67.8222 48.466C66.9393 47.9562 65.8397 48.607 65.8451 49.6104H65.8397V60.599C65.8397 61.5861 66.923 62.3184 67.9089 61.7L72.5835 58.999L77.334 56.2491C78.2223 55.7339 78.2061 54.4592 77.3394 53.9604L72.5781 51.2159ZM70.4765 43.8342C64.2527 43.8342 59.2152 48.8837 59.2152 55.1102C59.2152 61.3421 64.2581 66.3862 70.4765 66.3862C76.6949 66.3862 81.7378 61.3367 81.7378 55.1102C81.7378 48.8837 76.6949 43.8342 70.4765 43.8342ZM76.5648 49.0139C73.201 45.6457 67.7518 45.6457 64.3881 49.0139C61.0243 52.3821 61.0243 57.8384 64.3881 61.2064C67.7519 64.5746 73.2011 64.5746 76.5648 61.2064C79.9232 57.8437 79.9232 52.3819 76.5648 49.0139ZM32.4949 59.5522C32.0291 58.9936 32.1049 58.1583 32.6628 57.6919C33.2208 57.2255 34.0549 57.3014 34.5207 57.86L37.7166 61.7109V56.9868C37.7166 55.2404 40.3708 55.2404 40.3708 56.9868V61.7109L43.5667 57.86C44.0325 57.3014 44.8667 57.22 45.4245 57.6919C45.9825 58.1584 46.0637 58.9936 45.5925 59.5522L40.3654 65.8547V74.191H43.3717C44.2275 67.9103 50.7654 59.58 50.7654 53.9663C50.7654 47.4849 45.5166 42.2294 39.0437 42.2294C32.5708 42.2294 27.3221 47.485 27.3221 53.9663C27.3221 59.58 33.8599 67.9109 34.7158 74.191H37.7221V65.8547L32.4949 59.5522ZM45.9391 75.5142C45.9391 69.8735 53.425 60.7727 53.425 53.9608C53.425 46.0095 46.99 39.5664 39.0493 39.5664C31.1084 39.5664 24.6737 46.0098 24.6737 53.9608C24.6737 60.773 32.1595 69.8742 32.1595 75.5142V81.285C32.1595 82.0172 32.7553 82.6138 33.4866 82.6138H44.6124C45.3437 82.6138 45.9395 82.0172 45.9395 81.285L45.9391 75.5142ZM43.2903 76.8484H34.8132V79.9617H43.2903V76.8484ZM78.9542 100.187H71.0458V116.54C71.0458 116.838 70.9483 117.136 70.7425 117.386L63.3379 126.34H86.6618L79.3005 117.434C79.0838 117.201 78.9538 116.887 78.9538 116.54L78.9542 100.187ZM20.5184 29.6623C19.7871 29.6623 19.1913 30.2589 19.1913 30.9911V86.3402C19.1913 87.0724 19.7871 87.669 20.5184 87.669H129.486C130.217 87.669 130.813 87.0724 130.813 86.3402L130.808 30.9911C130.808 30.2589 130.212 29.6623 129.481 29.6623H20.5184ZM128.159 32.32H21.8399V85.0115H128.153L128.159 32.32ZM137.346 24.6508H12.6532V97.5295H137.351L137.346 24.6508Z" fill="#663366"/>
</svg>
