<svg width="150" height="150" viewBox="0 0 150 150" fill="none" xmlns="http://www.w3.org/2000/svg">
<path d="M139.828 112.439L127.233 91.1434L127.228 36.0632C127.228 28.3086 120.92 22 113.165 22H36.8411C29.0866 22 22.778 28.3081 22.778 36.0632V91.1488L10.1775 112.439C10.1044 112.564 10 112.862 10 113.081V113.086C10 120.841 16.3081 127.149 24.0632 127.149H125.937C133.691 127.149 140 120.841 140 113.086V113.081C140 112.877 139.901 112.569 139.828 112.439ZM25.3283 59.5093L74.3823 85.7133C74.5703 85.8125 74.7739 85.8648 74.9828 85.8648C75.1864 85.8648 75.3953 85.8125 75.5833 85.7133L124.68 59.5093V90.2197H25.3289L25.3283 59.5093ZM26.7591 57.3841L75.0244 31.6239L123.248 57.3841L74.9829 83.1443L26.7591 57.3841ZM36.8426 24.5496H113.166C119.516 24.5496 124.68 29.714 124.68 36.0638V55.259L75.6263 29.055C75.2503 28.8513 74.8013 28.8513 74.4253 29.055L25.3285 55.259V36.0638C25.3285 29.714 30.4928 24.5496 36.8426 24.5496ZM24.7801 92.7679H125.229L136.498 111.812H92.5716L89.5638 106.731C89.334 106.345 88.9163 106.104 88.4672 106.104L61.5427 106.11C61.0936 106.11 60.6758 106.35 60.4461 106.736L57.4383 111.817L13.5123 111.812L24.7801 92.7679ZM89.6043 111.812H60.4032L62.2726 108.658H87.7454L89.6043 111.812ZM125.939 124.6H24.0703C18.1538 124.6 13.261 120.11 12.6239 114.36H137.385C136.748 120.115 131.86 124.6 125.939 124.6Z" fill="#663366"/>
<path d="M76.2791 69.8607V65.4013C80.2216 63.678 84.0753 63.7615 88.0336 65.7093C88.4356 65.9078 88.9056 65.8765 89.2711 65.6467C89.6471 65.4117 89.8717 65.0044 89.8717 64.5658V46.3358C89.8717 45.8136 89.5531 45.3489 89.0727 45.1556C84.2424 43.2079 79.5063 43.1661 74.9895 44.9833C70.154 43.1609 65.4177 43.2079 60.9063 45.1713C60.4415 45.375 60.1387 45.8345 60.1387 46.341V64.5656C60.1387 65.0043 60.3684 65.4168 60.7392 65.6466C61.1099 65.8815 61.5799 65.9024 61.9768 65.7092C65.9349 63.7615 69.7888 63.6779 73.7313 65.4011V69.8606C73.7313 70.5655 74.3005 71.1347 75.0054 71.1347C75.7104 71.1347 76.2791 70.5604 76.2791 69.8607ZM87.3233 47.2139V62.6286C83.7515 61.3179 80.0545 61.2447 76.2843 62.6286V47.1925C79.8561 45.8349 83.4852 45.8458 87.3233 47.2139ZM62.6861 62.6286V47.1925C66.2631 45.8349 69.8922 45.8453 73.7251 47.2134V62.6281C70.1585 61.3174 66.4615 61.2447 62.6861 62.6286Z" fill="#663366"/>
</svg>
