<svg width="150" height="150" viewBox="0 0 150 150" fill="none" xmlns="http://www.w3.org/2000/svg">
<path fill-rule="evenodd" clip-rule="evenodd" d="M19.6008 77.9762C17.2375 76.5713 16.2279 73.6655 17.2262 71.0984C18.6082 67.2448 22.2293 64.6551 26.3188 64.5874C28.3551 64.5366 30.2672 65.5465 31.3727 67.2562L35.6821 59.4982C38.4966 54.392 40.8375 50.1605 46.9462 48.8514V48.8458C55.5198 46.2278 64.4312 44.8793 73.394 44.8343C82.43 44.8907 91.4147 46.2392 100.068 48.8514C107.458 51.018 109.99 56.0846 113.786 62.3475L116.973 67.6285C120.053 63.0471 128.497 64.9259 131.063 70.4779C131.813 71.8546 131.949 73.4795 131.447 74.9635C130.939 76.4473 129.833 77.6435 128.395 78.2698C132.518 81.0965 134.989 85.7682 135 90.7671V118.125C134.989 120.619 133.776 122.961 131.74 124.411V135.058C131.576 137.924 129.134 140.124 126.268 139.995H113.324C110.458 140.124 108.021 137.924 107.852 135.058V125.838H41.1422V135.058C40.9786 137.924 38.5419 140.124 35.6765 139.995H22.7315C19.8661 140.124 17.4238 137.924 17.2602 135.058V124.411V124.416C15.2183 122.966 14 120.625 14 118.125V88.6959C14.0056 84.4248 16.0926 80.4188 19.5954 77.9757L19.6008 77.9762ZM68.9558 42.8601C68.9558 43.7515 68.2394 44.4681 67.3482 44.4681C66.4626 44.4681 65.7406 43.7516 65.7406 42.8601V39.7399C64.6971 39.9599 63.6085 39.6383 62.8583 38.8823C62.1025 38.1319 61.7753 37.043 62.001 35.9991H58.8817C58.4417 36.0104 58.0243 35.8468 57.7085 35.5478C57.3982 35.2431 57.2234 34.8256 57.2234 34.3911C57.2234 33.9567 57.3982 33.5392 57.7085 33.2345C58.0243 32.9298 58.4417 32.7662 58.8817 32.7775H62.001V28.8448H58.8817C58.4417 28.8561 58.0243 28.6925 57.7085 28.3934C57.3982 28.0888 57.2234 27.6712 57.2234 27.2368C57.2234 26.8023 57.3982 26.3848 57.7085 26.0801C58.0243 25.7755 58.4417 25.6118 58.8817 25.6231H62.001V21.7019H58.8817C58.4417 21.7132 58.0243 21.5495 57.7085 21.2449C57.3982 20.9402 57.2234 20.5227 57.2234 20.0882C57.2234 19.6538 57.3982 19.2363 57.7085 18.9316C58.0243 18.6326 58.4417 18.4689 58.8817 18.4802H62.001C61.8035 17.38 62.1758 16.2515 62.9824 15.4786C63.7552 14.8467 64.7592 14.5759 65.7407 14.7395V11.608C65.7407 10.7222 66.4627 10 67.3483 10C68.2395 10 68.9558 10.7222 68.9558 11.608V14.7282H72.8873L72.893 11.608C72.893 10.7222 73.6093 10 74.5005 10C75.3918 10 76.1081 10.7222 76.1081 11.608V14.7282H80.0396L80.0453 11.608C80.0453 10.7222 80.7616 10 81.6528 10C82.5384 10 83.2604 10.7222 83.2604 11.608V14.7282C84.3039 14.5533 85.3699 14.8693 86.1483 15.5858C86.8647 16.3701 87.1806 17.4364 87.0001 18.4746H90.1193C90.5593 18.4633 90.9767 18.627 91.2926 18.9316C91.6028 19.2363 91.7776 19.6538 91.7776 20.0883C91.7776 20.5227 91.6028 20.9402 91.2926 21.2449C90.9767 21.544 90.5593 21.7076 90.1193 21.6963H87.0001V25.6289H90.1193C90.5593 25.6177 90.9767 25.7813 91.2926 26.086C91.6028 26.385 91.7776 26.8025 91.7776 27.237C91.7776 27.6771 91.6028 28.0946 91.2926 28.3936C90.9767 28.6983 90.5593 28.8619 90.1193 28.8506H87.0001V32.7777H90.1193C90.5593 32.7664 90.9767 32.93 91.2926 33.2347C91.6028 33.5337 91.7776 33.9512 91.7776 34.3857C91.7776 34.8258 91.6028 35.2433 91.2926 35.5423C90.9767 35.847 90.5593 36.0106 90.1193 35.9993H87.0001C87.1806 37.0431 86.8647 38.1094 86.1427 38.8881C85.3643 39.6047 84.2983 39.9206 83.2548 39.7457V42.8659C83.2548 43.7517 82.5328 44.474 81.6472 44.474C80.756 44.474 80.0396 43.7518 80.0396 42.8659V39.7457H76.1081V42.8659C76.1081 43.7517 75.3918 44.474 74.5005 44.474C73.6093 44.474 72.893 43.7518 72.893 42.8659V39.7457H68.9558V42.8659L68.9558 42.8601ZM67.3482 17.9443H65.216V36.5235H83.7841V17.9443H67.3482ZM34.7015 78.8341H34.5774H27.0811C21.6437 78.8511 17.2385 83.2576 17.2216 88.6966V111.83H131.78V90.7621C131.758 84.1833 126.433 78.8571 119.851 78.8346H114.306C114.069 78.8854 113.827 78.8854 113.584 78.8346L34.7015 78.8341ZM33.7031 75.6181L41.2501 62.0431C43.6925 57.6196 45.7117 53.9522 51.0985 52.8463V52.8407C65.9555 49.7319 81.2977 49.7319 96.1547 52.8407C102.844 54.223 104.931 59.2502 108.079 64.4523L114.83 75.6182H118.051H118.046C117.56 74.9129 117.115 74.1907 116.709 73.4403L111.034 64.0009C107.752 58.5394 105.366 53.7378 99.1837 51.9267C82.4654 46.7585 64.5732 46.7585 47.8549 51.9267C47.8098 51.9436 47.7646 51.9549 47.7195 51.9605C42.9758 52.9423 40.9509 56.6097 38.5086 61.0388L30.3919 75.6128L33.7031 75.6181ZM111.068 75.6181C108.829 71.9112 106.358 67.9109 104.198 64.2097C101.874 60.2263 99.9226 56.8974 95.5117 55.9834L95.5173 55.9778C81.0776 52.9762 66.1758 52.9762 51.7361 55.9778C47.5226 56.8467 45.8587 60.3504 43.6082 64.3958L37.3698 75.6124L111.068 75.6181ZM128.526 125.737C128.114 125.799 127.702 125.839 127.285 125.839H111.069V135.058C111.069 136.09 112.231 136.773 113.325 136.773H126.27C127.364 136.773 128.526 136.085 128.526 135.058L128.526 125.737ZM129.299 122.143V122.137C129.349 122.109 129.406 122.081 129.462 122.053C130.889 121.257 131.78 119.751 131.78 118.12V115.045H17.2215V118.126C17.2328 120.603 19.2408 122.611 21.717 122.623H127.284C127.984 122.628 128.677 122.465 129.304 122.143L129.299 122.143ZM37.9341 125.839H21.7184C21.301 125.839 20.8892 125.805 20.4775 125.737V135.052C20.4775 136.085 21.6338 136.767 22.7337 136.767H35.6786C36.7728 136.767 37.9348 136.079 37.9348 135.052L37.9341 125.839ZM119.507 71.8212L120.398 73.2937C120.94 73.92 121.594 74.4448 122.322 74.834C125.841 76.7523 129.705 75.1951 128.148 71.8324C126.484 68.2384 120.878 67.1269 119.535 69.5925C119.202 70.2978 119.191 71.1103 119.507 71.8212ZM28.5036 68.7293C26.7832 66.5346 21.4698 68.3851 20.2797 72.0751C19.1516 75.5789 23.1395 76.7185 26.4731 74.3151C27.5335 73.576 28.3458 72.5208 28.7801 71.3022C29.0903 70.5067 29.0283 69.6208 28.6109 68.8761C28.5714 68.8309 28.5376 68.7801 28.5093 68.7294L28.5036 68.7293ZM66.2215 106.757H82.7824C83.6567 106.735 84.3448 106.018 84.3448 105.149C84.3448 104.28 83.6567 103.564 82.7824 103.541H66.2215C65.3473 103.564 64.6592 104.28 64.6592 105.149C64.6592 106.018 65.3473 106.735 66.2215 106.757ZM57.9412 97.3066H91.0674C91.9529 97.3066 92.6749 96.5845 92.6749 95.6986C92.6749 94.8071 91.953 94.0906 91.0674 94.0906H57.9355C57.0499 94.0906 56.3279 94.8071 56.3279 95.6986C56.3279 96.5844 57.0499 97.3066 57.9355 97.3066H57.9412ZM46.3444 96.6691L27.6739 91.5009H27.6682C27.4257 91.4275 27.1719 91.4275 26.9293 91.5009L35.2886 99.5241C35.5424 99.8288 35.9373 99.9811 36.3321 99.919L46.265 96.7029V96.6973C46.2876 96.6916 46.3158 96.6804 46.3384 96.6691H46.3444ZM28.5258 88.4089C24.6789 87.3425 22.1126 91.3258 24.3236 93.4474L33.0607 101.837C34.1494 102.977 35.7907 103.417 37.3024 102.971L47.2353 99.7553H47.241C48.6624 99.3998 49.6552 98.1134 49.6439 96.6521C49.6326 95.1852 48.623 93.9157 47.1959 93.5771L28.5196 88.409L28.5258 88.4089ZM101.802 93.5771C100.375 93.9156 99.3649 95.1851 99.3536 96.652C99.3423 98.1133 100.335 99.3997 101.757 99.7552L111.689 102.971H111.695C113.207 103.417 114.848 102.977 115.937 101.837L124.68 93.4473C126.885 91.3315 124.33 87.3424 120.477 88.4088L101.802 93.5771ZM121.334 91.5007L102.658 96.6689C102.68 96.6802 102.709 96.6915 102.731 96.6971L112.664 99.9132L112.67 99.9189C113.059 99.9809 113.459 99.8286 113.708 99.5239L122.067 91.5007C121.824 91.4274 121.571 91.4274 121.334 91.5007Z" fill="#663366"/>
</svg>
