<svg width="150" height="150" viewBox="0 0 150 150" fill="none" xmlns="http://www.w3.org/2000/svg">
<path d="M69.9978 64.169V69.5147H75.7025C76.6542 69.5147 77.4246 70.2898 77.4246 71.2472V75.2194H85.2708V64.3857C85.2708 64.266 85.1745 64.1691 85.0555 64.1691L69.9978 64.169ZM34.149 25.4447C37.7123 25.4504 40.8904 27.7129 42.0631 31.098C44.5103 31.0011 46.9633 31.0581 49.4049 31.269C62.7461 2.91033 86.2732 2.91033 99.6083 31.269C100.271 31.212 100.923 31.1607 101.58 31.1322C131.955 29.5594 141.598 50.4339 124.698 75.0022C132.51 86.366 135.637 98.4589 130.448 107.497C129.275 109.526 127.746 111.321 125.927 112.786C127.202 117.054 124.964 121.585 120.818 123.135C116.665 124.685 112.031 122.725 110.23 118.661C106.7 119.02 103.143 119.043 99.6077 118.735C86.2722 147.088 62.7394 147.088 49.4044 118.735C48.7416 118.781 48.0844 118.832 47.4329 118.866C17.0516 120.445 7.40889 99.5692 24.3087 75.0023C23.9348 74.4495 23.5609 73.8967 23.2096 73.3496C15.9414 62.0713 13.8 50.9521 18.485 42.6318H18.4907C20.2639 39.5714 22.8075 37.0355 25.8722 35.2858C25.4643 32.8353 26.1498 30.3335 27.7417 28.4357C29.3393 26.538 31.679 25.4447 34.149 25.4447ZM42.5106 34.5345V34.5402C42.2274 38.1248 39.7121 41.1396 36.2451 42.04C32.7838 42.9404 29.1355 41.5385 27.1527 38.5466C24.83 39.9314 22.8926 41.8919 21.533 44.2341C17.3125 51.5686 19.6863 61.7806 26.4616 72.0442C31.0446 66.163 36.296 60.8401 42.1083 56.1842C43.2073 48.7927 45.1618 41.5555 47.9263 34.6139C46.0624 34.4942 44.2496 34.4657 42.5105 34.5284L42.5106 34.5345ZM37.6499 30.3572C36.2337 28.9381 34.1036 28.5108 32.2568 29.2801C30.4043 30.0551 29.1976 31.8674 29.1976 33.8848C29.1976 35.8965 30.4042 37.7145 32.2568 38.4837C34.1035 39.2531 36.2336 38.8314 37.6499 37.4066C39.5817 35.4577 39.5817 32.3062 37.6499 30.3572ZM117.895 106.786C120.331 106.786 122.648 107.852 124.24 109.704C132.862 102.13 130.143 89.4497 122.557 77.9548L122.552 77.9605C117.969 83.836 112.712 89.1589 106.899 93.8146C105.8 101.206 103.846 108.443 101.076 115.379C103.885 115.573 106.707 115.539 109.511 115.271C109.5 113.025 110.378 110.871 111.952 109.281C113.527 107.691 115.663 106.796 117.895 106.791L117.895 106.786ZM121.396 111.71C119.98 110.285 117.85 109.858 115.997 110.627C114.151 111.397 112.944 113.214 112.944 115.232C112.944 117.244 114.151 119.062 115.997 119.831C117.85 120.606 119.98 120.179 121.396 118.748C123.322 116.805 123.322 113.659 121.396 111.71ZM47.258 115.426L47.9265 115.386V115.38C45.162 108.445 43.2075 101.207 42.1085 93.8157C36.2962 89.1597 31.0447 83.8426 26.4618 77.9615C11.8519 100.096 20.6491 116.804 47.258 115.426ZM51.5238 115.05C57.761 114.263 63.8961 112.798 69.8216 110.69C61.443 106.991 53.5005 102.381 46.1303 96.9326C47.2746 103.15 49.0821 109.225 51.5238 115.05ZM74.5017 108.923C79.7362 106.815 84.8121 104.33 89.6901 101.48C94.5791 98.6537 99.2584 95.4737 103.7 91.9689C104.499 86.3497 104.895 80.6793 104.889 75.003C104.895 69.3269 104.499 63.6565 103.706 58.0371C94.8114 51.0331 84.9828 45.3229 74.5018 41.0829C64.0271 45.3287 54.2041 51.039 45.3097 58.0371C43.7349 69.2925 43.7349 80.7133 45.3097 91.9631C54.2038 98.9671 64.0265 104.678 74.5017 108.923ZM107.569 88.7551C112.35 84.6518 116.672 80.0413 120.474 75.0035C116.678 69.9656 112.35 65.3494 107.569 61.2462C108.572 70.3873 108.572 79.6149 107.569 88.7551ZM122.553 72.0459L122.927 71.476C137.152 49.3981 127.878 33.2302 101.75 34.5812L101.076 34.6211H101.082C103.852 41.5624 105.801 48.8001 106.9 56.1913C112.712 60.8474 117.964 66.1648 122.553 72.0459ZM97.4852 34.9512C91.248 35.7434 85.1185 37.2023 79.1932 39.3166C87.5661 43.0153 95.5085 47.6313 102.873 53.0739C101.734 46.8563 99.9269 40.7814 97.4852 34.9512ZM41.436 61.2455C36.6546 65.3544 32.3267 69.9649 28.5311 75.0027C32.3323 80.0349 36.6604 84.6454 41.436 88.7543C40.4332 79.6133 40.4332 70.3857 41.436 61.2455ZM46.1267 53.0731L46.1323 53.0788C53.5025 47.6363 61.4455 43.0202 69.8178 39.3273C63.8922 37.213 57.7569 35.7427 51.52 34.9505C49.084 40.7805 47.2769 46.8556 46.1326 53.0733L46.1267 53.0731ZM74.5022 37.378C81.4192 34.6368 88.6252 32.7219 95.9834 31.6733C84.0131 7.41857 65.0017 7.41857 53.0371 31.6733C60.3903 32.7219 67.5904 34.6367 74.5022 37.378ZM102.868 96.9373C95.4975 102.374 87.5603 106.985 79.1938 110.689C85.1194 112.797 91.249 114.262 97.4858 115.049C99.9274 109.224 101.735 103.155 102.873 96.9375L102.868 96.9373ZM74.5022 112.627C67.5909 115.362 60.3906 117.277 53.0371 118.331C64.9903 142.569 84.0028 142.604 95.9834 118.331C88.6245 117.283 81.4185 115.368 74.5022 112.627ZM76.2244 95.5294C76.2244 96.4869 75.454 97.2619 74.5022 97.2619C73.5505 97.2619 72.7801 96.4869 72.7801 95.5294V89.3005H67.6305V95.5294C67.6305 96.4869 66.8601 97.2619 65.9084 97.2619C64.9566 97.2619 64.1862 96.4869 64.1862 95.5294V89.3005C63.1325 89.3746 62.1015 88.9814 61.3537 88.2291C60.606 87.4769 60.2207 86.4396 60.2887 85.3797H54.0968C53.1508 85.3797 52.3803 84.6046 52.3803 83.6472C52.3803 82.6955 53.1508 81.9204 54.0968 81.9204H60.2887V76.7344H54.0968C53.1508 76.7344 52.3803 75.9593 52.3803 75.0076C52.3803 74.0502 53.1508 73.2751 54.0968 73.2751H60.2887V68.0834H54.0968C53.6323 68.0948 53.1847 67.9238 52.8505 67.5933C52.5163 67.2684 52.3293 66.8239 52.3293 66.3566C52.3293 65.8893 52.5163 65.439 52.8505 65.1142C53.1847 64.7894 53.6323 64.6127 54.0968 64.6241H60.2887C60.215 63.5641 60.6059 62.5212 61.3537 61.7747C62.1015 61.0224 63.1326 60.6292 64.1862 60.7033V54.5142C64.1862 53.5625 64.9566 52.7874 65.9084 52.7874C66.8601 52.7874 67.6305 53.5624 67.6305 54.5142V60.7033H72.7857L72.7801 54.48C72.7801 53.5226 73.5505 52.7476 74.5022 52.7476C75.4483 52.7476 76.2188 53.5226 76.2188 54.48V60.7033H81.3796V54.48C81.3796 53.5226 82.1501 52.7476 83.1018 52.7476C84.0535 52.7476 84.8183 53.5226 84.8183 54.48V60.7033C85.872 60.6349 86.9087 61.0224 87.6508 61.7747C88.3986 62.5269 88.7838 63.5642 88.7158 64.6241H94.8681C95.3326 64.6127 95.7858 64.7894 96.12 65.1142C96.4486 65.4391 96.6412 65.8893 96.6412 66.3566C96.6412 66.8239 96.4486 67.2684 96.12 67.5933C95.7858 67.9238 95.3326 68.0948 94.8681 68.0834H88.7158V73.2751H94.9077H94.902C95.8537 73.2751 96.6242 74.0502 96.6242 75.0076C96.6242 75.9593 95.8537 76.7344 94.902 76.7344H88.7158V81.9204H94.9077H94.902C95.8537 81.9204 96.6242 82.6955 96.6242 83.6472C96.6242 84.6046 95.8537 85.3797 94.902 85.3797H88.7158C88.7838 86.4397 88.3986 87.4769 87.6508 88.2291C86.9086 88.9814 85.8719 89.3689 84.8183 89.3005V95.5294C84.8183 96.4869 84.0535 97.2619 83.1018 97.2619C82.15 97.2619 81.3796 96.4869 81.3796 95.5294V89.3005H76.2187L76.2244 95.5294ZM83.0961 85.8356H85.062H85.0563C85.1753 85.8356 85.2716 85.7387 85.2772 85.619V78.6777H77.4254V85.8355L83.0961 85.8356ZM63.728 75.0019V85.6189C63.7337 85.7386 63.8244 85.8355 63.9433 85.8412H73.9875V72.973H68.2771C67.8182 72.973 67.382 72.7963 67.0591 72.4715C66.7362 72.1466 66.5549 71.7021 66.5549 71.2462V64.1681H63.9433H63.949C63.83 64.1681 63.7337 64.265 63.7281 64.3846L63.728 75.0019Z" fill="#663366"/>
</svg>
