<svg width="150" height="150" viewBox="0 0 150 150" fill="none" xmlns="http://www.w3.org/2000/svg">
<path fill-rule="evenodd" clip-rule="evenodd" d="M102.937 77.2357C102.937 76.4176 103.603 75.7564 104.427 75.7564C105.251 75.7564 105.916 76.4177 105.916 77.2357V77.8073C106.774 78.0483 107.541 78.4966 108.162 79.085C109.138 80.0152 109.742 81.2985 109.742 82.7219C109.742 83.54 109.076 84.2012 108.252 84.2012C107.429 84.2012 106.763 83.5399 106.763 82.7219C106.763 82.1335 106.509 81.6011 106.103 81.2088C105.68 80.8054 105.087 80.5588 104.427 80.5588C103.767 80.5588 103.174 80.8054 102.751 81.2088C102.345 81.5955 102.091 82.1335 102.091 82.7219C102.091 83.3103 102.345 83.8426 102.751 84.2349C103.174 84.6384 103.767 84.8849 104.427 84.8849C105.877 84.8849 107.197 85.4509 108.162 86.3643C109.138 87.2945 109.742 88.5778 109.742 90.0011C109.742 91.4245 109.138 92.7077 108.162 93.638C107.541 94.2264 106.774 94.6747 105.916 94.9157V95.4873C105.916 96.3054 105.251 96.9666 104.427 96.9666C103.603 96.9666 102.937 96.3053 102.937 95.4873V94.9157C102.08 94.6747 101.312 94.2264 100.692 93.638C99.7155 92.7078 99.1117 91.4245 99.1117 90.0011C99.1117 89.183 99.7775 88.5218 100.601 88.5218C101.425 88.5218 102.091 89.1831 102.091 90.0011C102.091 90.5895 102.345 91.1219 102.751 91.5142C103.174 91.9176 103.767 92.1642 104.427 92.1642C105.087 92.1642 105.679 91.9176 106.103 91.5142C106.509 91.1275 106.763 90.5896 106.763 90.0011C106.763 89.4127 106.509 88.8804 106.103 88.4881C105.679 88.0846 105.087 87.8381 104.427 87.8381C102.977 87.8381 101.656 87.2721 100.692 86.3588C99.7154 85.4285 99.1116 84.1452 99.1116 82.7219C99.1116 81.2985 99.7153 80.0153 100.692 79.085C101.312 78.4966 102.08 78.0483 102.937 77.8073V77.2357ZM24.6433 98.44H33.784L32.0631 56.7144H26.3643L24.6433 98.44ZM21.4442 104.313H36.9894V101.399H21.4442V104.313ZM81.8571 30.0915L58.8253 19.1082L12.9753 40.9795V47.8722H104.675V40.9795L81.8513 30.0915H81.8571ZM35.5551 50.8252H22.871V53.756H35.5551V50.8252ZM51.2014 50.8252V53.756H63.8855V50.8252H51.2014ZM79.5315 50.8252V53.756H92.2156V50.8252H79.5315ZM53.1081 95.1459L61.9836 95.3141L60.3923 56.7158H54.6935L53.1081 95.1459ZM47.477 104.314H39.967V101.417C39.967 100.682 39.7018 100.004 39.2673 99.4832C39.2391 99.444 39.2053 99.4047 39.1658 99.3655C38.641 98.7995 37.9132 98.4465 37.1006 98.4465H36.7621L35.0412 56.7209H35.6731C36.4856 56.7209 37.2191 56.3679 37.7382 55.8019L37.7326 55.7963L37.7382 55.7907C38.2348 55.2583 38.5395 54.5298 38.5395 53.7397V50.8258H48.2331V53.7397C48.2331 54.4738 48.4983 55.1518 48.9327 55.673C48.961 55.7123 48.9948 55.7515 49.0343 55.7907C49.5591 56.3567 50.2869 56.7097 51.1051 56.7097H51.737L50.1515 95.1172C49.5195 95.1957 48.944 95.4815 48.5039 95.9017C48.013 96.3724 47.6857 97.0169 47.6237 97.7397C47.6124 97.8125 47.6068 97.8854 47.6068 97.9582H47.6124L47.4883 104.307L47.477 104.314ZM47.3585 110.394L47.4206 107.267H16.4038V110.394H47.3585ZM47.2005 118.547L47.3021 113.353H12.9731V118.547H47.2005ZM95.1782 98.2453C95.8553 98.391 96.5323 98.5367 96.9725 98.632L110.847 99.6014C111.05 99.6182 111.248 99.635 111.44 99.6631C113.821 98.4246 115.83 96.5698 117.246 94.3226C118.696 92.0194 119.536 89.2905 119.536 86.3597C119.536 82.2129 117.844 78.4584 115.107 75.7462C112.371 73.0284 108.59 71.3473 104.42 71.3473C100.245 71.3473 96.4647 73.0284 93.7338 75.7462C90.9973 78.464 89.3045 82.2185 89.3045 86.3597C89.3045 88.7917 89.88 91.0837 90.907 93.1065C91.9283 95.1182 93.3954 96.8723 95.1726 98.2395L95.1782 98.2453ZM81.3543 97.2198L83.0244 56.7165H88.7232L89.5244 76.1677C87.5101 79.0647 86.3309 82.5784 86.3309 86.3665C86.3309 89.2636 87.0249 92.0095 88.2605 94.4415C88.7514 95.4054 89.3213 96.3188 89.9702 97.1761C86.7766 96.6101 84.3616 96.5092 81.3485 97.2209L81.3543 97.2198ZM66.2106 99.9264L66.2445 98.2846C66.2614 97.4888 65.9454 96.7603 65.4319 96.228C65.2965 96.0879 65.1442 95.959 64.9806 95.8525L63.3668 56.7163H63.9988C64.7548 56.7163 65.4432 56.4081 65.9567 55.9037C65.9962 55.8701 66.0301 55.8365 66.0639 55.7973C66.5605 55.2649 66.8652 54.5308 66.8652 53.7407V50.8268H76.5588V53.7407C76.5588 54.5308 76.8635 55.2593 77.36 55.7973C77.8847 56.3632 78.6126 56.7163 79.4251 56.7163H80.0571L78.3474 98.1277C77.9694 98.2622 77.5744 98.4079 77.1681 98.5704C77.1117 98.5872 77.0497 98.6096 76.9876 98.6377C76.9424 98.6545 76.8917 98.6769 76.8352 98.7049C75.6503 99.1756 74.3525 99.736 72.8968 100.403L66.2105 99.9321L66.2106 99.9264ZM116.258 103.014C115.891 102.302 115.389 101.652 114.757 101.114C116.755 99.7302 118.459 97.9539 119.762 95.8917C121.511 93.1234 122.515 89.8621 122.515 86.371C122.515 81.4061 120.49 76.9175 117.217 73.6672C113.945 70.4171 109.419 68.4052 104.426 68.4052C99.7934 68.4052 95.5672 70.1368 92.3678 72.9779L91.6964 56.7215H92.3283C93.1352 56.7215 93.8687 56.3684 94.3935 55.7969C94.89 55.2645 95.1947 54.536 95.1947 53.7459V50.832H106.164C106.987 50.832 107.653 50.1707 107.653 49.3527V40.056H107.648C107.648 39.5068 107.337 38.9801 106.801 38.7279L59.462 16.1451C59.0726 15.9601 58.6043 15.9433 58.1811 16.1451L10.9705 38.6662C10.4006 38.8736 10 39.4171 10 40.056V49.3526C10 50.1708 10.6658 50.8319 11.4895 50.8319H19.8967V53.7458C19.8967 54.5359 20.2014 55.2644 20.6979 55.8024L20.7036 55.7968C21.2283 56.3628 21.9618 56.7158 22.7687 56.7158H23.4007L21.6797 98.4414H21.3412C20.5287 98.4414 19.7952 98.7945 19.2704 99.3604C18.7739 99.8928 18.4692 100.627 18.4692 101.417V104.314H14.9258C14.102 104.314 13.4363 104.975 13.4363 105.793V110.4H11.4952C10.6714 110.4 10.0057 111.061 10.0057 111.879V120.032C10.0057 120.851 10.6715 121.512 11.4952 121.512H47.1559L46.9585 131.671C46.9528 131.722 46.9472 131.778 46.9472 131.828H46.9528C46.9415 132.613 47.2575 133.336 47.7653 133.862C48.2393 134.35 48.8882 134.675 49.616 134.737C49.6893 134.748 49.7627 134.753 49.836 134.753V134.748L62.4975 134.989C62.5483 134.994 62.6047 135 62.6555 135V134.994C63.4455 135.006 64.1734 134.692 64.7038 134.187C65.1947 133.717 65.5219 133.072 65.584 132.35C65.5953 132.277 65.6009 132.204 65.6009 132.131H65.5953L65.6404 129.615L72.5637 128.825L89.2313 133.33C92.3798 134.182 97.4692 134.244 102.102 133.487C106.198 132.815 110.024 131.475 112.038 129.43L137.654 103.558C140.261 100.93 140.481 97.8138 139.358 95.2417C138.929 94.2666 138.309 93.3756 137.541 92.6304C136.779 91.8794 135.871 91.2742 134.884 90.8651C132.282 89.7836 129.151 90.047 126.539 92.6751L116.258 103.025L116.258 103.014ZM65.6964 126.623L72.5125 125.849C72.7043 125.827 72.8962 125.844 73.0711 125.888L90.0102 130.467C92.792 131.218 97.3849 131.257 101.628 130.562C105.166 129.979 108.382 128.915 109.911 127.362L135.539 101.478C137.158 99.8478 137.31 97.9537 136.633 96.4127C136.357 95.7851 135.956 95.2079 135.46 94.726C134.963 94.2385 134.376 93.8462 133.744 93.5828C132.176 92.9328 130.269 93.1065 128.655 94.7372L116.964 106.505C116.907 107.34 116.699 108.164 116.332 108.909C115.378 110.865 113.437 112.322 110.532 112.266L96.0537 111.991C95.2355 111.98 94.5811 111.307 94.5923 110.495C94.6036 109.682 95.2807 109.032 96.0989 109.043L110.577 109.318C112.151 109.346 113.172 108.612 113.657 107.626C113.872 107.183 113.99 106.695 114.007 106.202C114.013 106.118 114.013 106.04 114.007 105.956V105.922C113.99 105.513 113.911 105.104 113.759 104.712C113.33 103.591 112.292 102.672 110.644 102.56L96.6569 101.579C96.5723 101.574 96.4933 101.562 96.4199 101.546C95.3479 101.316 94.7499 101.187 94.1911 101.064C85.6993 99.2144 83.5439 98.7493 73.794 103.244C73.557 103.35 73.3087 103.395 73.0661 103.378L66.1541 102.896L65.697 126.634L65.6964 126.623ZM62.7003 128.354C62.6946 128.281 62.6946 128.214 62.7059 128.147L63.2025 102.319L63.2194 101.377C63.2137 101.321 63.2137 101.26 63.2194 101.198V101.176L63.2758 98.2899L50.6424 98.0489L50.5635 98.0545L50.4168 105.76V105.799C50.4168 105.833 50.4168 105.861 50.4111 105.889L49.9146 131.722L49.9202 131.801L62.5536 132.042L62.6326 132.036L62.7059 128.354L62.7003 128.354Z" fill="#663366"/>
</svg>
