<svg width="150" height="150" viewBox="0 0 150 150" fill="none" xmlns="http://www.w3.org/2000/svg">
<path fill-rule="evenodd" clip-rule="evenodd" d="M108.03 24.786C108.03 22.1703 110.146 20.0476 112.754 20.0476C115.368 20.0476 117.485 22.1703 117.485 24.786C117.485 27.4082 115.368 29.5243 112.754 29.5243C110.146 29.5243 108.03 27.4082 108.03 24.786ZM112.754 15.0003C107.368 15.0003 102.998 19.3839 102.998 24.786C102.998 29.6492 106.536 33.6845 111.169 34.4468C111.155 34.5519 111.142 34.6636 111.142 34.7754V49.2994C111.142 50.9161 109.838 52.2239 108.233 52.2239H102.802C98.4118 52.2239 94.8541 55.7925 94.8541 60.1957V63.8301C94.8541 65.2233 95.981 66.3537 97.3701 66.3537C98.7591 66.3537 99.886 65.2233 99.886 63.8301V60.1957C99.886 58.579 101.19 57.2712 102.802 57.2712H108.233C112.616 57.2712 116.174 53.7026 116.174 49.2994V34.7754C116.174 34.5059 116.135 34.243 116.056 33.9999C119.824 32.646 122.517 29.0315 122.517 24.7859C122.517 19.3838 118.146 15.0003 112.754 15.0003ZM27.4151 76.2186C24.552 73.4387 19.9983 73.4715 17.1744 76.2974C14.3178 79.1562 14.3178 83.796 17.1678 86.6548L42.5956 112.16C46.4482 116.025 51.6634 118.233 57.1146 118.305L93.7466 118.791C100.515 118.883 106.975 121.617 111.757 126.421L117.012 131.692C117.995 132.678 117.995 134.275 117.012 135.261C116.029 136.246 114.437 136.246 113.454 135.261L108.2 129.99C104.341 126.119 99.1319 123.911 93.6807 123.839L57.0486 123.352C50.2804 123.26 43.8203 120.526 39.0379 115.729L13.6101 90.2235C8.79444 85.3931 8.79445 77.5529 13.6232 72.723C18.3864 67.9583 26.0785 67.8991 30.9144 72.5981L44.7521 86.0443C46.6129 82.5678 50.236 80.399 54.1738 80.4055L72.0336 80.4253C72.0402 80.4253 72.0533 80.4187 72.0795 80.4055C72.145 80.3727 72.2564 80.307 72.3809 80.1821C75.5848 77.0999 83.1523 73.5444 92.2266 73.551C102.808 73.5641 109.831 79.5512 112.944 82.9818L139.263 109.376C140.246 110.361 140.246 111.958 139.263 112.944C138.28 113.93 136.681 113.93 135.705 112.944L109.347 86.505L109.301 86.4655L109.261 86.4195C106.634 83.5081 100.842 78.6121 92.2201 78.599C84.2464 78.5924 77.9958 81.7797 75.8665 83.8237C75.0213 84.6387 73.7043 85.4799 72.0468 85.4733L54.1668 85.4536C52.0702 85.4536 50.144 86.6168 49.1611 88.4767C48.2897 90.1263 48.2897 92.1043 49.1546 93.754C50.1308 95.6204 52.0571 96.7837 54.1537 96.7902L85.3212 96.8231C86.7102 96.8297 87.8371 97.96 87.8371 99.3533C87.8371 100.747 86.7036 101.877 85.3146 101.87L54.1472 101.837C50.1767 101.831 46.5403 99.6227 44.6993 96.1001C43.9983 94.766 43.6052 93.3202 43.5003 91.8547L27.4151 76.2186ZM61.4138 34.2624C61.3811 34.4267 61.3614 34.5975 61.3614 34.775V63.8304C61.3614 65.2236 62.4883 66.354 63.8773 66.354C65.2663 66.354 66.3933 65.2236 66.3933 63.8304V34.775C66.3933 34.5975 66.3736 34.4267 66.3409 34.2624C70.5406 33.1649 73.6332 29.3399 73.6332 24.7856C73.6332 19.3835 69.2696 15 63.8774 15C58.4918 15 54.1216 19.3835 54.1216 24.7856C54.1216 29.3399 57.2206 33.1649 61.4138 34.2624ZM59.1533 24.7856C59.1533 22.17 61.2696 20.0473 63.8773 20.0473C66.4849 20.0473 68.6012 22.17 68.6012 24.7856C68.6012 27.4079 66.4849 29.524 63.8773 29.524C61.2696 29.524 59.1533 27.4079 59.1533 24.7856ZM86.3053 48.7736C90.4789 47.6629 93.5517 43.8446 93.5517 39.3165C93.5517 33.9079 89.1816 29.5243 83.7894 29.5243C78.4038 29.5243 74.0336 33.9079 74.0336 39.3165C74.0336 43.8446 77.1064 47.6628 81.2735 48.7736V62.9231C81.2735 64.3163 82.4004 65.4467 83.7894 65.4467C85.185 65.4467 86.3053 64.3163 86.3053 62.9231V48.7736ZM79.0655 39.3165C79.0655 36.6943 81.1817 34.5716 83.7894 34.5716C86.4036 34.5716 88.5199 36.6943 88.5199 39.3165C88.5199 41.9322 86.4036 44.0549 83.7894 44.0549C81.1817 44.0549 79.0655 41.9322 79.0655 39.3165ZM40.3569 41.9912C40.3635 41.9978 40.37 41.9978 40.3766 42.0044L44.2161 45.8556C44.7599 46.4076 45.0678 47.1503 45.0678 47.9258V63.8299C45.0678 65.2232 46.1947 66.3535 47.5837 66.3535C48.9727 66.3535 50.0997 65.2232 50.0997 63.8299V47.9258C50.0997 45.8097 49.2676 43.7856 47.7738 42.287L43.9343 38.4358C43.8491 38.3504 43.7574 38.2715 43.6657 38.1992C44.3077 36.898 44.6681 35.4259 44.6681 33.8683C44.6681 28.4597 40.3045 24.0827 34.9123 24.0827C29.5267 24.0827 25.1565 28.4597 25.1565 33.8683C25.1565 39.2704 29.5267 43.6539 34.9123 43.6539C36.9303 43.6539 38.8041 43.0428 40.3569 41.9912ZM30.1883 33.8683C30.1883 31.2461 32.3046 29.13 34.9123 29.13C37.5265 29.13 39.6362 31.2461 39.6362 33.8683C39.6362 36.484 37.5265 38.6067 34.9123 38.6067C32.3046 38.6067 30.1883 36.484 30.1883 33.8683Z" fill="#663366"/>
</svg>
