<svg width="150" height="150" viewBox="0 0 150 150" fill="none" xmlns="http://www.w3.org/2000/svg">
<path d="M134.275 24.0225H79.3354C76.2147 24.0225 73.6895 26.5477 73.6895 29.6684V134.354C73.6895 137.475 76.2147 140 79.3354 140H134.275C137.396 140 139.921 137.475 139.921 134.354V29.6684C139.921 26.5477 137.396 24.0225 134.275 24.0225ZM76.769 43.0133H136.842V117.047H76.769V43.0133ZM76.769 29.6684C76.769 28.2518 77.9188 27.1021 79.3354 27.1021H134.275C135.692 27.1021 136.842 28.2518 136.842 29.6684V39.9337H76.769V29.6684ZM136.842 134.354C136.842 135.771 135.692 136.92 134.275 136.92H79.3354C77.9188 136.92 76.769 135.771 76.769 134.354V120.126H136.842V134.354Z" fill="#663366"/>
<path d="M115.406 31.9678H98.2214C97.3797 31.9678 96.6816 32.6658 96.6816 33.5076C96.6816 34.3493 97.3797 35.0474 98.2214 35.0474H115.406C116.247 35.0474 116.945 34.3493 116.945 33.5076C116.945 32.6658 116.247 31.9678 115.406 31.9678Z" fill="#663366"/>
<path d="M106.803 134.046C109.842 134.046 112.326 131.583 112.326 128.524C112.326 125.485 109.842 123.001 106.803 123.001C103.764 123.001 101.301 125.465 101.301 128.524C101.301 131.562 103.764 134.046 106.803 134.046ZM106.803 126.101C108.137 126.101 109.246 127.189 109.246 128.544C109.246 129.879 108.158 130.987 106.803 130.987C105.448 130.987 104.38 129.899 104.38 128.544C104.38 127.189 105.468 126.101 106.803 126.101Z" fill="#663366"/>
<path d="M70.36 79.086H66.644C65.638 79.086 64.673 79.2707 63.7286 79.5376C64.0366 78.5111 64.2624 77.4641 64.2624 76.3554C64.2624 73.4811 63.1332 70.7505 61.1007 68.718L58.4728 66.0901C57.8774 65.4947 56.8919 65.4947 56.2965 66.0901L53.6686 68.718C51.6361 70.7505 50.5069 73.4606 50.5069 76.3554C50.5069 77.4641 50.7122 78.5111 51.0407 79.5376C50.1168 79.2707 49.1519 79.086 48.1253 79.086H44.4093C43.5675 79.086 42.8695 79.784 42.8695 80.6258V84.3418C42.8695 87.3598 44.1219 90.0904 46.1339 92.0613H44.4093C43.5675 92.0613 42.8695 92.7594 42.8695 93.6011V97.3172C42.8695 103.271 47.7147 108.116 53.6686 108.116H55.8449V114.624C54.4282 115.466 53.1143 116.185 50.4864 116.185C47.7353 116.185 46.4213 115.405 44.9226 114.501C43.2596 113.495 41.3708 112.366 37.7574 112.366C34.144 112.366 32.2757 113.495 30.6127 114.501C29.2988 115.281 28.1491 115.979 26.0549 116.144V108.116H28.2312C34.1851 108.116 39.0303 103.271 39.0303 97.3172V93.6011C39.0303 92.7594 38.3322 92.0613 37.4905 92.0613H35.7659C37.7779 90.0904 39.0303 87.3598 39.0303 84.3418V80.6258C39.0303 79.784 38.3322 79.086 37.4905 79.086H33.7744C32.7684 79.086 31.8035 79.2707 30.8591 79.5376C31.1671 78.5111 31.3929 77.4641 31.3929 76.3554C31.3929 73.4811 30.2637 70.7505 28.2312 68.718L25.6033 66.0901C25.0079 65.4947 24.0224 65.4947 23.427 66.0901L20.7991 68.718C18.7666 70.7505 17.6374 73.4606 17.6374 76.3554C17.6374 77.4641 17.8427 78.5111 18.1712 79.5376C17.2473 79.2707 16.2824 79.086 15.2558 79.086H11.5398C10.698 79.086 10 79.784 10 80.6258V84.3418C10 87.3598 11.2524 90.0904 13.2644 92.0613H11.5398C10.698 92.0613 10 92.7594 10 93.6011V97.3172C10 103.271 14.8452 108.116 20.7991 108.116H22.9753V115.856C21.6819 115.487 20.6143 114.789 19.5262 114.05C17.35 112.571 14.8863 110.888 10.9033 112.695C10.1232 113.044 9.79469 113.967 10.1437 114.727C10.4927 115.507 11.3961 115.836 12.1762 115.487C14.5783 114.399 15.7896 115.22 17.8016 116.595C19.5467 117.786 21.723 119.285 25.0489 119.285C28.6623 119.285 30.5306 118.156 32.1936 117.15C33.7129 116.246 35.0063 115.466 37.7574 115.466C40.5085 115.466 41.8224 116.246 43.3212 117.15C44.9842 118.156 46.873 119.285 50.4864 119.285C54.0998 119.285 55.9886 118.156 57.6515 117.15C59.1708 116.246 60.4642 115.466 63.2359 115.466C66.2128 115.466 67.4857 115.713 68.5533 116.082C69.354 116.37 70.2368 115.959 70.5242 115.158C70.8117 114.358 70.4011 113.475 69.6004 113.187C67.9784 112.592 66.2539 112.387 63.2359 112.387C61.4292 112.387 60.0536 112.674 58.9244 113.085V108.157H61.1007C67.0546 108.157 71.8998 103.312 71.8998 97.3582V93.6422C71.8998 92.8004 71.2017 92.1024 70.36 92.1024H68.6354C70.6474 90.1314 71.8998 87.4009 71.8998 84.3829V80.6668C71.8998 79.784 71.2017 79.086 70.36 79.086ZM26.0549 95.1409H26.2397C26.1781 95.2025 26.1165 95.2641 26.0549 95.3257V95.1409ZM22.9753 95.3462C22.9138 95.2846 22.8522 95.223 22.7906 95.1614H22.9753V95.3462ZM35.9507 97.3377C35.9507 101.588 32.481 105.057 28.2312 105.057H26.0549V102.881C26.0549 98.6311 29.5246 95.1614 33.7744 95.1614H35.9507V97.3377ZM35.9507 82.1656V84.3418C35.9507 88.5916 32.481 92.0613 28.2312 92.0613H26.0549V89.8851C26.0549 85.6352 29.5246 82.1656 33.7744 82.1656H35.9507ZM22.9753 70.8943L24.5151 69.3545L26.0549 70.8943C27.5126 72.3519 28.3133 74.2818 28.3133 76.3554C28.3133 78.429 27.5126 80.3589 26.0549 81.8165L24.5151 83.3563L22.9753 81.8165C21.5177 80.3589 20.717 78.429 20.717 76.3554C20.717 74.2818 21.5177 72.3519 22.9753 70.8943ZM13.0796 84.3418V82.1656H15.2558C19.5057 82.1656 22.9753 85.6352 22.9753 89.8851V92.0613H20.7991C16.5287 92.0613 13.0796 88.6122 13.0796 84.3418ZM13.0796 97.3377V95.1614H15.2558C19.5057 95.1614 22.9753 98.6311 22.9753 102.881V105.057H20.7991C16.5287 105.057 13.0796 101.588 13.0796 97.3377ZM55.8449 95.3462C55.7833 95.2846 55.7217 95.223 55.6601 95.1614H55.8449V95.3462ZM58.9244 95.1409H59.1092C59.0476 95.2025 58.986 95.2641 58.9244 95.3257V95.1409ZM55.8449 70.8943L57.3846 69.3545L58.9244 70.8943C60.3821 72.3519 61.1828 74.2818 61.1828 76.3554C61.1828 78.429 60.3821 80.3589 58.9244 81.8165L57.3846 83.3563L55.8449 81.8165C54.3872 80.3589 53.5865 78.429 53.5865 76.3554C53.5865 74.2818 54.3872 72.3519 55.8449 70.8943ZM45.9491 84.3418V82.1656H48.1253C52.3752 82.1656 55.8449 85.6352 55.8449 89.8851V92.0613H53.6686C49.3982 92.0613 45.9491 88.6122 45.9491 84.3418ZM45.9491 97.3377V95.1614H48.1253C52.3752 95.1614 55.8449 98.6311 55.8449 102.881V105.057H53.6686C49.3982 105.057 45.9491 101.588 45.9491 97.3377ZM68.8202 97.3377C68.8202 101.588 65.3505 105.057 61.1007 105.057H58.9244V102.881C58.9244 98.6311 62.3941 95.1614 66.644 95.1614H68.8202V97.3377ZM68.8202 84.3418C68.8202 88.5916 65.3505 92.0613 61.1007 92.0613H58.9244V89.8851C58.9244 85.6352 62.3941 82.1656 66.644 82.1656H68.8202V84.3418Z" fill="#663366"/>
<path d="M48.0831 32.6451C48.0831 26.0753 42.7246 20.7168 36.1548 20.7168C29.5851 20.7168 24.2266 26.0753 24.2266 32.6451C24.2266 39.2149 29.5851 44.5734 36.1548 44.5734C42.7246 44.5734 48.0831 39.2149 48.0831 32.6451ZM36.1548 41.4938C31.2686 41.4938 27.3062 37.5314 27.3062 32.6451C27.3062 27.7588 31.2686 23.7964 36.1548 23.7964C41.0411 23.7964 45.0035 27.7588 45.0035 32.6451C45.0035 37.5314 41.0206 41.4938 36.1548 41.4938Z" fill="#663366"/>
<path d="M36.157 17.699C36.9987 17.699 37.6968 17.0009 37.6968 16.1592V11.5398C37.6968 10.698 36.9987 10 36.157 10C35.3152 10 34.6172 10.698 34.6172 11.5398V16.1592C34.6172 17.0009 35.2947 17.699 36.157 17.699Z" fill="#663366"/>
<path d="M34.6172 49.1326V53.752C34.6172 54.5937 35.3152 55.2918 36.157 55.2918C36.9987 55.2918 37.6968 54.5937 37.6968 53.752V49.1326C37.6968 48.2908 36.9987 47.5928 36.157 47.5928C35.3152 47.5928 34.6172 48.2703 34.6172 49.1326Z" fill="#663366"/>
<path d="M26.5702 19.1369C26.8576 19.6296 27.3709 19.9171 27.9047 19.9171C28.1716 19.9171 28.4385 19.8555 28.6643 19.7117C29.4034 19.2806 29.6498 18.3362 29.2186 17.6176L26.9397 13.5936C26.5086 12.8545 25.5642 12.6082 24.8251 13.0393C24.086 13.4499 23.8396 14.3943 24.2707 15.1334L26.5702 19.1369Z" fill="#663366"/>
<path d="M45.3768 51.6789C45.6642 52.1716 46.1775 52.459 46.7113 52.459C46.9782 52.459 47.2451 52.3974 47.4709 52.2537C48.21 51.8226 48.4564 50.8782 48.0253 50.1596L45.7258 46.1561C45.2947 45.417 44.3708 45.1707 43.6317 45.6018C42.8926 46.0329 42.6462 46.9773 43.0774 47.6959L45.3768 51.6789Z" fill="#663366"/>
<path d="M17.1063 23.427L21.1098 25.7265C21.3562 25.8702 21.6231 25.9318 21.8694 25.9318C22.4032 25.9318 22.9165 25.6649 23.2039 25.1516C23.6351 24.433 23.3887 23.4886 22.6496 23.0575L18.6461 20.758C17.907 20.3269 16.9626 20.5733 16.552 21.3124C16.1209 22.0515 16.3672 22.9959 17.1063 23.427Z" fill="#663366"/>
<path d="M49.6656 42.2126L53.669 44.512C53.9154 44.6557 54.1823 44.7173 54.4287 44.7173C54.9625 44.7173 55.4757 44.4504 55.7631 43.9371C56.1943 43.198 55.9274 42.2536 55.2088 41.843L51.2054 39.5436C50.4662 39.1124 49.5218 39.3793 49.1112 40.0979C48.7006 40.8165 48.9265 41.7814 49.6656 42.2126Z" fill="#663366"/>
<path d="M15.0515 34.186H19.6709C20.5127 34.186 21.2107 33.488 21.2107 32.6462C21.2107 31.8045 20.5127 31.1064 19.6709 31.1064H15.0515C14.2098 31.1064 13.5117 31.8045 13.5117 32.6462C13.5117 33.488 14.1892 34.186 15.0515 34.186Z" fill="#663366"/>
<path d="M51.1055 32.6462C51.1055 33.488 51.8035 34.186 52.6453 34.186H57.2647C58.1064 34.186 58.8044 33.488 58.8044 32.6462C58.8044 31.8045 58.1064 31.1064 57.2647 31.1064H52.6453C51.783 31.1064 51.1055 31.784 51.1055 32.6462Z" fill="#663366"/>
<path d="M21.1098 39.5429L17.1063 41.8423C16.3672 42.2734 16.1209 43.2178 16.552 43.9364C16.8394 44.4292 17.3527 44.7166 17.8865 44.7166C18.1534 44.7166 18.4203 44.655 18.6461 44.5113L22.6496 42.2118C23.3887 41.7807 23.6351 40.8363 23.2039 40.1177C22.7933 39.3786 21.8489 39.1117 21.1098 39.5429Z" fill="#663366"/>
<path d="M50.4265 25.9317C50.6934 25.9317 50.9603 25.8701 51.1861 25.7264L55.1896 23.427C55.9287 22.9959 56.1751 22.0515 55.7439 21.3329C55.3128 20.5938 54.3684 20.3474 53.6498 20.7786L49.6669 23.0575C48.9278 23.4886 48.6814 24.433 49.1125 25.1516C49.3794 25.6648 49.8927 25.9317 50.4265 25.9317Z" fill="#663366"/>
<path d="M24.8251 52.2531C25.0714 52.3969 25.3383 52.4584 25.5847 52.4584C26.1185 52.4584 26.6318 52.1915 26.9192 51.6783L29.2186 47.6748C29.6498 46.9357 29.3829 45.9913 28.6643 45.5807C27.9252 45.1495 26.9808 45.4164 26.5702 46.135L24.2707 50.1385C23.8396 50.8776 24.086 51.822 24.8251 52.2531Z" fill="#663366"/>
<path d="M43.6317 19.6906C43.8781 19.8344 44.145 19.8959 44.3913 19.8959C44.9251 19.8959 45.4384 19.629 45.7258 19.1158L48.0253 15.1123C48.4564 14.3732 48.1895 13.4288 47.4709 13.0182C46.7318 12.587 45.7874 12.8539 45.3768 13.5725L43.0774 17.576C42.6462 18.3356 42.8926 19.2595 43.6317 19.6906Z" fill="#663366"/>
<path d="M21.9304 122.035L19.7337 124.232C19.1383 124.827 19.1383 125.813 19.7337 126.408C20.0416 126.716 20.4317 126.86 20.8218 126.86C21.2119 126.86 21.6019 126.716 21.9099 126.408L24.1067 124.211C24.7021 123.616 24.7021 122.631 24.1067 122.035C23.5113 121.419 22.5258 121.419 21.9304 122.035Z" fill="#663366"/>
<path d="M34.2478 128.586C33.6524 127.991 32.6669 127.991 32.0715 128.586C31.4762 129.182 31.4762 130.167 32.0715 130.762L34.2683 132.959C34.5763 133.267 34.9664 133.411 35.3564 133.411C35.7465 133.411 36.1366 133.267 36.4446 132.959C37.0399 132.364 37.0399 131.378 36.4446 130.783L34.2478 128.586Z" fill="#663366"/>
<path d="M53.4441 128.585L51.2473 130.782C50.6519 131.377 50.6519 132.363 51.2473 132.958C51.5553 133.266 51.9454 133.41 52.3354 133.41C52.7255 133.41 53.1156 133.266 53.4236 132.958L55.6203 130.761C56.2157 130.166 56.2157 129.18 55.6203 128.585C55.0044 127.969 54.0395 127.969 53.4441 128.585Z" fill="#663366"/>
<path d="M41.7029 121.133C41.1075 120.538 40.122 120.538 39.5266 121.133C38.9312 121.728 38.9312 122.714 39.5266 123.309L41.7234 125.506C42.0314 125.814 42.4214 125.958 42.8115 125.958C43.2016 125.958 43.5917 125.814 43.8996 125.506C44.495 124.911 44.495 123.925 43.8996 123.33L41.7029 121.133Z" fill="#663366"/>
<path d="M64.7751 121.133C64.1797 120.538 63.1943 120.538 62.5989 121.133C62.0035 121.728 62.0035 122.714 62.5989 123.309L64.7957 125.506C65.1036 125.814 65.4937 125.958 65.8838 125.958C66.2739 125.958 66.6639 125.814 66.9719 125.506C67.5673 124.911 67.5673 123.925 66.9719 123.33L64.7751 121.133Z" fill="#663366"/>
<path d="M105.551 62.1679C104.34 63.8514 93.7461 78.7772 93.7461 85.4496C93.7461 92.6559 99.5973 98.5071 106.804 98.5071C114.01 98.5071 119.861 92.6559 119.861 85.4496C119.861 78.7772 109.247 63.8514 108.056 62.1679C107.481 61.3672 106.147 61.3672 105.551 62.1679ZM106.804 95.4275C101.301 95.4275 96.8257 90.9518 96.8257 85.4496C96.8257 81.1998 103.19 71.0371 106.804 65.7608C110.437 71.0371 116.781 81.1998 116.781 85.4496C116.802 90.9518 112.306 95.4275 106.804 95.4275Z" fill="#663366"/>
<path d="M92.1029 93.6434C88.2226 93.5407 85.2046 90.4406 85.2046 86.5809C85.2046 83.8503 89.1465 77.1573 92.2876 72.5174C92.3698 72.6406 92.4519 72.7638 92.5545 72.9075C93.0267 73.6055 93.9917 73.8108 94.6897 73.3181C95.3878 72.8459 95.5931 71.8809 95.1209 71.1829C94.197 69.8074 93.5605 68.9245 93.5605 68.9245C93.2731 68.5139 92.8009 68.2881 92.3082 68.2881C91.8154 68.2881 91.3432 68.5345 91.0558 68.9245C90.1319 70.1974 82.125 81.4687 82.125 86.5809C82.125 92.1241 86.4775 96.5793 92.0208 96.723C92.0413 96.723 92.0413 96.723 92.0618 96.723C92.9036 96.723 93.5811 96.066 93.6016 95.2242C93.6221 94.362 92.9446 93.6639 92.1029 93.6434Z" fill="#663366"/>
<path d="M120.088 68.9023C120.088 68.9023 119.452 69.7851 118.528 71.1812C118.056 71.8792 118.241 72.8442 118.959 73.3164C119.678 73.7886 120.622 73.6038 121.094 72.8852C121.177 72.7415 121.279 72.6183 121.361 72.4951C124.503 77.1145 128.444 83.828 128.444 86.5586C128.444 90.4184 125.406 93.5185 121.546 93.6211C120.704 93.6417 120.027 94.3602 120.047 95.202C120.068 96.0437 120.745 96.7007 121.587 96.7007C121.608 96.7007 121.608 96.7007 121.628 96.7007C127.172 96.557 131.524 92.1019 131.524 86.5586C131.524 81.4465 123.517 70.1752 122.614 68.9023C121.998 68.1016 120.663 68.1016 120.088 68.9023Z" fill="#663366"/>
</svg>
