<svg width="150" height="150" viewBox="0 0 150 150" fill="none" xmlns="http://www.w3.org/2000/svg">
<path d="M115.671 55.8681H115.648C114.365 55.8565 113.337 54.8053 113.348 53.5218C113.354 52.7842 113.342 52.0408 113.302 51.2974C112.361 31.7255 96.2914 15.6445 76.7135 14.6915C66.3119 14.1804 56.3521 17.7811 48.6967 24.8085C47.7559 25.6739 46.2807 25.61 45.4154 24.6692C44.5442 23.7225 44.6081 22.2532 45.5548 21.3878C54.1269 13.5067 65.2888 9.49363 76.9392 10.0512C98.8751 11.1198 116.884 29.1354 117.942 51.0714C117.982 51.9077 118 52.7382 117.988 53.5629C117.976 54.8406 116.937 55.8628 115.665 55.8628L115.671 55.8681Z" fill="#663366"/>
<path d="M57.5711 112.011C56.4327 112.011 55.4396 111.175 55.2712 110.013L54.8936 107.318C53.6276 98.3278 49.3822 89.5928 42.6103 82.0429C36.4542 75.1782 32.7141 66.7217 31.7964 57.581C31.6686 56.3033 32.5979 55.165 33.8755 55.0373C35.1706 54.9211 36.2915 55.8387 36.4193 57.1164C37.2381 65.2705 40.5776 72.8152 46.0717 78.9363C53.4592 87.1717 58.1054 96.7598 59.4991 106.668L59.8766 109.362C60.0566 110.634 59.1681 111.807 57.902 111.988C57.7917 112.005 57.6813 112.011 57.5768 112.011L57.5711 112.011Z" fill="#663366"/>
<path d="M91.9989 112.01C91.8886 112.01 91.7782 112.004 91.6737 111.987C90.4018 111.807 89.519 110.633 89.6991 109.362L89.943 107.631C91.1394 99.1515 94.1827 91.2242 98.7476 84.7017C99.4793 83.6505 100.931 83.3949 101.982 84.1325C103.034 84.8701 103.289 86.3163 102.552 87.3674C98.4049 93.2914 95.6289 100.522 94.5428 108.275L94.2989 110.005C94.1363 111.167 93.1373 112.003 91.999 112.003L91.9989 112.01Z" fill="#663366"/>
<path d="M84.5888 140.001H64.9812C60.5035 140.001 56.8621 136.359 56.8621 131.881V121.538C56.8621 120.254 57.9016 119.215 59.1852 119.215C60.4687 119.215 61.5082 120.254 61.5082 121.538V131.881C61.5082 133.798 63.0647 135.354 64.9812 135.354H84.5888C86.5054 135.354 88.0618 133.798 88.0618 131.881V121.538C88.0618 120.254 89.1014 119.215 90.3849 119.215C91.6684 119.215 92.708 120.254 92.708 121.538V131.881C92.708 136.359 89.0666 140.001 84.5888 140.001Z" fill="#663366"/>
<path d="M93.7176 123.851H55.8508C51.8086 123.851 48.5215 120.564 48.5215 116.522V114.687C48.5215 110.645 51.8086 107.357 55.8508 107.357H93.7176C97.7598 107.357 101.047 110.645 101.047 114.687V116.522C101.047 120.564 97.7598 123.851 93.7176 123.851ZM55.8508 112.004C54.3757 112.004 53.1677 113.206 53.1677 114.687V116.522C53.1677 118.003 54.3699 119.205 55.8508 119.205H93.7176C95.1928 119.205 96.4008 118.003 96.4008 116.522V114.687C96.4008 113.206 95.1986 112.004 93.7176 112.004H55.8508Z" fill="#663366"/>
<path d="M74.7852 112.01C73.5017 112.01 72.4622 110.97 72.4622 109.687V69.4559C72.4622 68.1724 73.5017 67.1328 74.7852 67.1328C76.0688 67.1328 77.1083 68.1724 77.1083 69.4559V109.687C77.1083 110.97 76.0688 112.01 74.7852 112.01Z" fill="#663366"/>
<path d="M93.1079 81.2827C92.591 81.2827 92.0741 81.1143 91.6444 80.76L87.3409 77.2695L82.869 80.7832C82.0617 81.4163 80.9408 81.4511 80.0986 80.8587L74.7846 77.1302L69.4706 80.8587C68.6284 81.4453 67.5076 81.4163 66.7003 80.7832L62.2283 77.2695L57.9248 80.76C56.9317 81.5731 55.4625 81.4163 54.6609 80.4232C53.8537 79.4242 54.0047 77.9608 54.9978 77.1593L60.7416 72.4957C61.5838 71.8104 62.786 71.8046 63.6397 72.4725L68.2103 76.0675L73.4488 72.3969C74.2503 71.8394 75.3189 71.8394 76.1146 72.3969L81.3531 76.0675L85.9238 72.4725C86.7775 71.8046 87.9797 71.8104 88.8218 72.4957L94.5657 77.1593C95.5646 77.9665 95.7156 79.43 94.9025 80.4232C94.4437 80.9923 93.7758 81.2827 93.0964 81.2827H93.1079Z" fill="#663366"/>
<path d="M137.509 100.901C137.329 100.901 137.149 100.878 136.975 100.837L108.836 94.1875C108.017 93.9958 107.367 93.3744 107.135 92.5613C106.902 91.7481 107.135 90.877 107.727 90.2847L110.991 87.0208L78.4274 55.1472L67.236 66.3387C63.3506 70.2299 57.0202 70.2299 53.129 66.3387L13.9212 27.0312C12.0396 25.1496 11 22.6406 11 19.9806C11 17.3149 12.0396 14.8117 13.9212 12.9243C17.8124 9.03306 24.1428 9.03306 28.0282 12.9243L60.1798 45.1695L71.3538 33.9955C75.245 30.1043 81.5696 30.1043 85.4608 33.9955L125.104 72.9074L129.39 68.6213C129.988 68.0231 130.865 67.7966 131.679 68.0289C132.492 68.2612 133.113 68.9175 133.299 69.7421L139.775 98.0608C139.955 98.8448 139.716 99.6637 139.147 100.227C138.706 100.663 138.113 100.901 137.509 100.901ZM113.953 90.6216L134.408 95.4536L129.703 74.8706L126.759 77.8152C125.859 78.7212 124.401 78.7212 123.489 77.8326L82.191 37.2942C80.1003 35.2034 76.7201 35.2034 74.641 37.2767L61.8233 50.0944C61.3877 50.53 60.7953 50.7739 60.1797 50.7739C59.5641 50.7739 58.9717 50.53 58.536 50.0886L24.7416 16.2064C22.6625 14.1331 19.2823 14.1331 17.2032 16.2064C16.1926 17.217 15.6409 18.5527 15.6409 19.9757C15.6409 21.4044 16.1984 22.7402 17.2032 23.745L56.405 63.0464C58.4842 65.1197 61.8643 65.1255 63.9435 63.0464L76.7611 50.2288C77.6613 49.3286 79.119 49.3228 80.0308 50.2114L115.917 85.3365C116.359 85.772 116.614 86.3644 116.614 86.9859C116.614 87.6074 116.37 88.1997 115.935 88.6411L113.953 90.6216Z" fill="#663366"/>
</svg>
