<svg width="150" height="150" viewBox="0 0 150 150" fill="none" xmlns="http://www.w3.org/2000/svg">
<path d="M138.297 93.5911C135.49 88.7282 129.936 86.4213 124.715 87.4869C125.682 84.2471 125.371 80.6334 123.551 77.4818C120.041 71.4018 112.238 69.3113 106.158 72.8218L105.659 73.11C104.638 67.2026 100.142 62.4734 94.3589 61.1074L110.214 40.5716C111.266 39.2097 111.448 37.4058 110.691 35.8637C109.933 34.3218 108.394 33.3637 106.673 33.3637H98.0703V23.5239C98.0703 22.5066 97.2456 21.6818 96.2282 21.6818H85.607V11.8421C85.607 10.8247 84.7822 10 83.7648 10H58.8381C57.8207 10 56.9959 10.8247 56.9959 11.8421V21.6818H46.3748C45.3573 21.6818 44.5326 22.5066 44.5326 23.5239V33.3637H31.9337L27.123 17.7571C26.8848 16.9845 26.1709 16.4576 25.3627 16.4576H11.8422C10.8248 16.4576 10 17.2824 10 18.2997C10 19.3171 10.8248 20.1418 11.8422 20.1418H24.0029L28.7999 35.7037C28.8083 35.7342 28.8175 35.7645 28.8278 35.7945L37.1594 62.8237V88.7842C37.1594 89.8016 37.9842 90.6263 39.0016 90.6263H43.0162C47.7693 90.6263 51.6576 87.2379 52.6921 82.1945L56.3446 64.3882H81.1047C77.9551 67.1332 75.9587 71.1692 75.9587 75.6653C75.9587 80.1668 77.9609 84.345 81.3326 87.1542L59.0384 100.025L59.0415 100.031C55.1353 102.208 52.486 106.379 52.486 111.159C52.486 111.211 52.4894 111.262 52.49 111.313L44.1386 116.134L44.1418 116.14C40.2356 118.317 37.5863 122.488 37.5863 127.268C37.5863 134.289 43.2981 140 50.3188 140C52.7031 140 54.9353 139.34 56.8451 138.195L56.848 138.2L68.0437 131.737C69.8572 136.559 74.5158 140 79.9644 140C82.3487 140 84.5809 139.34 86.4907 138.195L86.4936 138.2L133.634 110.985C139.716 107.474 141.807 99.6711 138.297 93.5911ZM108 76.0121C111.775 73.8332 116.482 74.6916 119.275 77.8232L108.017 84.3226C107.136 84.8313 106.834 85.9579 107.343 86.839C107.684 87.43 108.303 87.7603 108.94 87.7603C109.253 87.7603 109.569 87.6808 109.859 87.5132L121.117 81.0137C122.432 84.9987 120.821 89.5053 117.046 91.685L77.498 114.517C77.7912 113.447 77.9506 112.321 77.9506 111.159C77.9506 105.256 73.9115 100.279 68.4524 98.8442L108 76.0121ZM90.9203 79.424C88.8476 79.424 87.1615 77.7379 87.1615 75.6653C87.1615 73.5926 88.8476 71.9066 90.9203 71.9066C92.993 71.9066 94.6791 73.5926 94.6791 75.6653C94.6791 77.7379 92.993 79.424 90.9203 79.424ZM94.386 33.3637H73.1436V25.3661H94.386V33.3637ZM60.6803 13.6842H81.9226V21.6818H60.6803V13.6842ZM48.2169 25.3661H69.4595V33.3637H48.2169V25.3661ZM106.673 37.0479C107.104 37.0479 107.303 37.3237 107.384 37.4882C107.465 37.6524 107.561 37.979 107.297 38.3197L90.0153 60.7039H40.3614L33.0695 37.0479H106.673ZM49.0827 81.4542C48.4095 84.7368 45.9713 86.9421 43.0162 86.9421H40.8437V64.3882H52.5834L49.0827 81.4542ZM79.6431 75.6653C79.6431 69.4471 84.7022 64.3882 90.9206 64.3882C96.9547 64.3882 101.897 69.1521 102.184 75.1161L98.1466 77.4468C98.2877 76.8755 98.3637 76.2792 98.3637 75.665C98.3637 71.5611 95.0247 68.2221 90.9206 68.2221C86.8165 68.2221 83.4774 71.5611 83.4774 75.665C83.4774 79.0511 85.7512 81.9145 88.8518 82.8132L84.8159 85.1432C81.6039 83.0753 79.6431 79.53 79.6431 75.6653ZM65.2183 102.111C70.2075 102.111 74.2666 106.17 74.2666 111.159C74.2666 116.148 70.2075 120.207 65.2183 120.207C60.2292 120.207 56.1701 116.148 56.1701 111.159C56.1701 106.17 60.2292 102.111 65.2183 102.111ZM41.2703 127.268C41.2703 122.279 45.3294 118.22 50.3186 118.22C55.3077 118.22 59.3668 122.279 59.3668 127.268C59.3668 132.257 55.3077 136.316 50.3186 136.316C45.3294 136.316 41.2703 132.257 41.2703 127.268ZM62.5982 130.626C62.8914 129.556 63.0509 128.43 63.0509 127.268C63.0509 125.992 62.8601 124.761 62.5093 123.598C63.3827 123.788 64.2886 123.891 65.2181 123.891C66.0878 123.891 66.9373 123.802 67.7587 123.635C67.4124 124.802 67.2318 126.023 67.2318 127.268C67.2318 127.493 67.2381 127.717 67.2497 127.94L62.5982 130.626ZM70.9162 127.268C70.9162 125.031 71.7336 122.902 73.2194 121.241L78.1191 118.413C78.7236 118.287 79.3425 118.22 79.9641 118.22C84.9533 118.22 89.0123 122.279 89.0123 127.268C89.0123 132.257 84.9535 136.316 79.9644 136.316C74.9752 136.316 70.9162 132.257 70.9162 127.268ZM131.792 107.794L92.2443 130.626C92.5375 129.556 92.697 128.43 92.697 127.268C92.697 121.586 88.9547 116.763 83.8058 115.129L118.888 94.8755C119.899 94.2921 120.797 93.5879 121.58 92.7947L122.746 92.1213C127.067 89.6268 132.612 91.1126 135.106 95.4329C137.601 99.7537 136.114 105.299 131.792 107.794ZM131.008 97.7992C131.517 98.6803 131.214 99.8069 130.334 100.316L100.536 117.519C100.246 117.686 99.9291 117.766 99.6167 117.766C98.9798 117.766 98.3608 117.436 98.0195 116.844C97.5108 115.963 97.8129 114.837 98.6938 114.328L128.491 97.125C129.373 96.6163 130.499 96.9184 131.008 97.7992ZM83.2735 100.735C82.7647 99.8542 83.0669 98.7277 83.9477 98.219L100.553 88.6321C101.435 88.1232 102.561 88.4253 103.07 89.3063C103.578 90.1874 103.276 91.314 102.395 91.8227L85.7899 101.409C85.4996 101.577 85.183 101.657 84.8706 101.657C84.2337 101.657 83.6145 101.326 83.2735 100.735Z" fill="#663366"/>
</svg>
