<svg width="150" height="150" viewBox="0 0 150 150" fill="none" xmlns="http://www.w3.org/2000/svg">
<path d="M136.276 50.699C135.425 48.4401 133.714 46.6587 131.456 45.6828C129.228 44.7187 126.74 44.6632 124.448 45.5265L116.536 48.5083V24.8147C116.536 16.646 109.888 10 101.719 10H59.9098C51.7411 10 45.0951 16.646 45.0951 24.8147V45.5463C42.7401 44.8393 40.8064 44.7695 40.6898 44.7671C39.6543 44.7465 38.6196 45.5169 38.407 46.6048L30.608 86.4873L13.1273 136.669C12.7139 137.856 13.3407 139.153 14.5277 139.567C15.7132 139.976 17.0105 139.353 17.4247 138.167L34.9586 87.8315C34.9935 87.7283 35.0221 87.6252 35.0427 87.5188L42.4647 49.5652C43.5613 49.7874 44.9856 50.2055 46.3162 50.9887C48.6664 52.4026 49.7693 54.5315 49.6892 57.4998C49.421 67.6982 49.6908 76.1684 49.6932 76.2525C49.6979 76.4024 49.7178 76.5516 49.7519 76.6976C49.7733 76.7865 51.8585 85.8018 52.1172 96.2168C52.3703 106.205 51.1301 110.434 45.4791 118.843C45.2268 119.219 45.0927 119.66 45.0927 120.113V125.18C45.0927 133.351 51.7411 140 59.9137 140H101.719C109.892 140 116.542 133.351 116.542 125.18C116.542 123.923 115.524 122.904 114.267 122.904C113.01 122.904 111.991 123.923 111.991 125.18C111.991 130.842 107.383 135.449 101.719 135.449H59.9137C54.25 135.449 49.6424 130.842 49.6424 125.18V120.801C55.4831 111.986 56.9367 106.779 56.6653 96.1025C56.4154 86.0335 54.5777 77.4197 54.2349 75.8891C54.1953 74.5164 53.9969 66.7785 54.2373 57.6212C54.3508 53.4293 52.7575 50.054 49.6448 47.7672V24.8147C49.6448 19.155 54.25 14.5497 59.9098 14.5497H101.719C107.379 14.5497 111.985 19.155 111.985 24.8147V64.5965L107.383 66.3334C105.039 67.2142 103.182 68.9471 102.155 71.2132C101.165 73.3992 101.078 75.8192 101.911 78.0259C102.528 79.662 103.631 81.0315 105.013 82.0328C103.841 82.9279 102.863 84.0593 102.219 85.4209C101.168 87.6442 101.059 90.1119 101.911 92.3732C102.523 93.9967 103.615 95.3551 104.983 96.3532C101.849 98.7463 100.483 102.929 101.911 106.719C103.212 110.171 106.632 112.491 110.42 112.491C111.555 112.491 112.67 112.286 113.737 111.883L123.515 108.196C128.282 106.403 130.737 101.16 128.987 96.5056C128.374 94.8822 127.283 93.5222 125.916 92.5224C129.049 90.1293 130.414 85.9478 128.987 82.1598C128.374 80.5348 127.283 79.1764 125.915 78.1766C129.047 75.7851 130.414 71.602 128.987 67.81C128.428 66.3279 127.462 65.0734 126.261 64.1022L130.807 62.3891C133.097 61.5258 134.93 59.8413 135.968 57.645C137.018 55.4233 137.126 52.9564 136.276 50.699ZM119.273 81.1061C119.667 81.0045 120.067 80.9347 120.473 80.9347C122.381 80.9347 124.091 82.0725 124.729 83.7642C125.597 86.0668 124.333 88.6836 121.911 89.5977L111.678 93.4032C109.428 93.9919 106.949 92.8366 106.167 90.7657C105.754 89.6707 105.813 88.4647 106.332 87.3665C106.864 86.243 107.806 85.3797 108.985 84.9353L119.273 81.1061ZM121.911 103.939L112.129 107.627C109.768 108.515 107 107.32 106.169 105.115C105.301 102.81 106.564 100.195 108.985 99.2811L119.297 95.4439C119.684 95.3456 120.075 95.2789 120.473 95.2789C122.381 95.2789 124.091 96.4167 124.729 98.11C125.596 100.413 124.333 103.028 121.911 103.939ZM120.478 66.5873C122.382 66.5873 124.091 67.7244 124.729 69.4144C125.596 71.7186 124.333 74.3347 121.911 75.2464L111.674 79.059C109.428 79.6429 106.949 78.4908 106.167 76.4199C105.764 75.3511 105.812 74.1688 106.3 73.0905C106.824 71.9329 107.778 71.0458 108.985 70.5919L119.029 66.8285C119.502 66.6794 119.986 66.5873 120.478 66.5873ZM131.855 55.701C131.323 56.8238 130.382 57.6871 129.201 58.1314L116.536 62.8795V53.3714L126.054 49.7842C127.233 49.3383 128.508 49.3668 129.652 49.8596C130.766 50.3412 131.605 51.2084 132.018 52.3034C132.431 53.3976 132.372 54.6045 131.855 55.701Z" fill="#663366"/>
<path d="M76.312 125.943C75.0551 125.943 74.0371 126.962 74.0371 128.219C74.0371 129.476 75.0551 130.495 76.312 130.495H85.3201C86.577 130.495 87.5958 129.476 87.5958 128.219C87.5958 126.962 86.577 125.943 85.3201 125.943H76.312Z" fill="#663366"/>
<path d="M112.653 115.841C112.231 116.266 111.986 116.855 111.986 117.461C111.986 118.068 112.231 118.639 112.653 119.082C113.092 119.507 113.661 119.753 114.262 119.753C114.879 119.753 115.447 119.507 115.871 119.082C116.309 118.639 116.536 118.068 116.536 117.461C116.536 116.855 116.293 116.266 115.871 115.841C115.041 114.99 113.499 114.99 112.653 115.841Z" fill="#663366"/>
<path d="M98.8429 63.6427C95.7055 58.0575 91.789 56.8848 89.0579 56.8848C85.6175 56.8848 82.5848 58.7185 80.817 60.0713C79.0476 58.7185 76.0134 56.8848 72.5737 56.8848C69.8403 56.8848 65.9245 58.0575 62.7181 63.7776C58.3033 73.0333 63.9639 83.0682 79.5427 93.6038C79.9283 93.8641 80.3727 93.9942 80.817 93.9942C81.2613 93.9942 81.7073 93.8641 82.0913 93.6038C97.667 83.0698 103.326 73.0349 98.8429 63.6427ZM80.817 88.9573C68.3422 80.2324 63.633 72.4279 66.7553 65.8707C68.4311 62.8857 70.3346 61.4353 72.5737 61.4353C75.9705 61.4353 79.1603 64.629 79.1872 64.6559C79.6141 65.0939 80.2013 65.3391 80.8122 65.3407H80.8202C81.428 65.3407 82.0151 65.0939 82.442 64.6607C82.4738 64.6282 85.6619 61.4353 89.0579 61.4353C91.2955 61.4353 93.1998 62.8857 94.8057 65.7358C97.9939 72.4247 93.2886 80.234 80.817 88.9573Z" fill="#663366"/>
<path d="M85.7974 73.1658H83.0933V70.4545C83.0933 69.1977 82.0745 68.1797 80.8176 68.1797C79.5608 68.1797 78.542 69.1977 78.542 70.4545V73.1658H75.8315C74.5747 73.1658 73.5566 74.1838 73.5566 75.4407C73.5566 76.6975 74.5747 77.7163 75.8315 77.7163H78.542V80.4252C78.542 81.682 79.5608 82.7008 80.8176 82.7008C82.0745 82.7008 83.0933 81.682 83.0933 80.4252V77.7163H85.7974C87.0542 77.7163 88.073 76.6975 88.073 75.4407C88.073 74.1838 87.0542 73.1658 85.7974 73.1658Z" fill="#663366"/>
</svg>
