<svg width="150" height="150" viewBox="0 0 150 150" fill="none" xmlns="http://www.w3.org/2000/svg">
<path d="M129.261 10H29.7827C23.8591 10 19.0435 14.8156 19.0435 20.7392V28.2566C13.9282 29.0761 10 33.4849 10 38.8262V106.652C10 112.576 14.8156 117.392 20.7392 117.392H51.3511L46.5468 136.609H38.8259C37.8877 136.609 37.1302 137.366 37.1302 138.304C37.1302 139.243 37.8876 140 38.8259 140H97.6088C98.5471 140 99.3045 139.243 99.3045 138.304C99.3045 137.366 98.5471 136.609 97.6088 136.609H89.8879L85.0836 117.392H115.696C121.619 117.392 126.435 112.576 126.435 106.652V99.3046H129.261C135.184 99.3046 140 94.4889 140 88.5654V20.7392C140 14.8156 135.185 10 129.261 10ZM136.609 20.7392V52.9572H126.435V50.1311C126.435 44.5298 122.106 39.9685 116.629 39.488C118.494 37.555 119.653 34.938 119.653 32.0441C119.653 26.1206 114.837 21.3049 108.913 21.3049C102.99 21.3049 98.1743 26.1206 98.1743 32.0441C98.1743 34.938 99.3329 37.555 101.198 39.488C95.7154 39.9684 91.3916 44.5298 91.3916 50.1311V52.9572H81.2177V13.3915H129.261C133.314 13.3915 136.609 16.6865 136.609 20.7392ZM108.913 39.3919C104.86 39.3919 101.565 36.0968 101.565 32.0441C101.565 27.9915 104.86 24.6963 108.913 24.6963C112.966 24.6963 116.261 27.9915 116.261 32.0441C116.261 36.0968 112.966 39.3919 108.913 39.3919ZM102.13 42.7833H115.696C119.748 42.7833 123.043 46.0785 123.043 50.1311V52.9572H94.7827V50.1311C94.7827 46.0785 98.0776 42.7833 102.13 42.7833ZM22.4345 20.7403C22.4345 16.6877 25.7296 13.3925 29.7823 13.3925H77.8258V52.9582H67.6519V50.1321C67.6519 44.5308 63.3223 39.9696 57.8454 39.489C59.7107 37.556 60.8693 34.9391 60.8693 32.0451C60.8693 26.1216 56.0536 21.306 50.13 21.306C44.2065 21.306 39.3908 26.1216 39.3908 32.0451C39.3908 34.9391 40.5495 37.556 42.4147 39.489C36.932 39.9695 32.6082 44.5308 32.6082 50.1321V52.9582H22.4343L22.4345 20.7403ZM67.652 95.9142V93.0882C67.652 87.4868 63.3224 82.9256 57.8455 82.445C59.7108 80.512 60.8694 77.8951 60.8694 75.0012C60.8694 69.0776 56.0538 64.262 50.1302 64.262C44.2066 64.262 39.391 69.0776 39.391 75.0012C39.391 77.8951 40.5497 80.512 42.4148 82.445C36.9322 82.9255 32.6083 87.4868 32.6083 93.0882V95.9142H29.7823C25.7296 95.9142 22.4345 92.619 22.4345 88.5664V56.3484H77.8256V95.9141L67.652 95.9142ZM50.1308 82.349C46.0781 82.349 42.783 79.0538 42.783 75.0012C42.783 70.9485 46.0781 67.6534 50.1308 67.6534C54.1834 67.6534 57.4786 70.9485 57.4786 75.0012C57.4786 79.0538 54.1834 82.349 50.1308 82.349ZM43.3481 85.7403H56.9134C60.9661 85.7403 64.2612 89.0355 64.2612 93.0882V95.9142H36.0006V93.0882C36.0006 89.0355 39.2955 85.7403 43.3481 85.7403ZM50.1308 39.3928C46.0781 39.3928 42.783 36.0976 42.783 32.045C42.783 27.9924 46.0781 24.6972 50.1308 24.6972C54.1834 24.6972 57.4786 27.9924 57.4786 32.045C57.4786 36.0976 54.1834 39.3928 50.1308 39.3928ZM43.3481 42.7842H56.9134C60.9661 42.7842 64.2612 46.0793 64.2612 50.132V52.958H36.0006V50.132C36.0006 46.0793 39.2955 42.7842 43.3481 42.7842ZM19.0435 31.6945V88.5673C19.0435 91.416 20.1796 93.9934 21.994 95.9151H13.3914V38.8282C13.3914 35.3635 15.8106 32.469 19.0435 31.6945ZM86.3953 136.611H50.0403L54.8447 117.394H81.5903L86.3953 136.611ZM115.696 114.002H20.7394C16.6867 114.002 13.3915 110.707 13.3915 106.654V99.3063H123.044V106.654C123.044 110.707 119.749 114.002 115.696 114.002ZM108.914 82.3497C104.861 82.3497 101.566 79.0545 101.566 75.0019C101.566 70.9492 104.861 67.6541 108.914 67.6541C112.966 67.6541 116.261 70.9492 116.261 75.0019C116.261 79.0545 112.966 82.3497 108.914 82.3497ZM102.131 85.7411H115.696C119.749 85.7411 123.044 89.0362 123.044 93.0889V95.9149H94.7834V93.0889C94.7834 89.0362 98.0783 85.7411 102.131 85.7411ZM129.262 95.9149H126.435V93.0889C126.435 87.4876 122.106 82.9263 116.629 82.4458C118.494 80.5128 119.653 77.8958 119.653 75.0019C119.653 69.0783 114.837 64.2627 108.914 64.2627C102.99 64.2627 98.1744 69.0783 98.1744 75.0019C98.1744 77.8958 99.3331 80.5128 101.198 82.4458C95.7156 82.9262 91.3918 87.4876 91.3918 93.0889V95.9149H81.2179V56.3493H136.609V88.5673C136.609 92.6199 133.314 95.9149 129.262 95.9149Z" fill="#663366"/>
</svg>
