<svg width="150" height="150" viewBox="0 0 150 150" fill="none" xmlns="http://www.w3.org/2000/svg">
<path d="M139.107 66.3313L121.788 36.3291C120.899 34.7939 119.465 33.6917 117.739 33.2306C116.018 32.7694 114.224 33.0056 112.684 33.8885L102.815 39.5852C101.28 40.4737 100.177 41.9078 99.7164 43.6342C99.4408 44.6633 99.4127 45.7149 99.6264 46.7272C93.4127 48.3636 87.1709 48.3468 79.7259 46.7103C71.7858 44.9614 67.9394 46.6203 62.716 51.2823L50.3447 46.8622C50.9857 44.0841 49.7823 41.0867 47.1844 39.5908L37.3154 33.8941C35.7803 33.0056 33.9865 32.7694 32.2601 33.2362C30.5394 33.6973 29.0998 34.7995 28.2113 36.3347L10.8919 66.3312C9.05319 69.5141 10.1497 73.5969 13.3324 75.4302L23.2014 81.1269C24.2248 81.7173 25.3607 82.021 26.5135 82.021C27.0927 82.021 27.6775 81.9423 28.2567 81.7904C29.7862 81.3799 31.0852 80.4689 31.9793 79.1923L39.3739 88.4319L39.1827 88.7019C36.416 92.6328 38.0018 96.8224 40.9878 98.9257C42.0731 99.6905 43.3495 100.185 44.671 100.32C44.5417 101.541 44.7385 102.772 45.2784 103.936C46.4199 106.399 48.8997 108.143 51.6045 108.385C52.6167 108.474 53.6064 108.351 54.5229 108.025C55.0797 109.402 56.0581 110.595 57.267 111.444C59.3476 112.911 62.1536 113.39 64.5941 112.22C65.3589 113.648 66.6072 114.863 68.2155 115.605C69.2614 116.089 70.3299 116.325 71.3702 116.325C73.6251 116.325 75.7395 115.217 77.2016 113.137L77.7808 112.31L83.9664 115.915C85.2654 116.674 86.5532 117 87.7677 117C90.4332 117 92.7331 115.408 93.9983 113.238C94.6562 112.102 95.0442 110.803 95.0724 109.487C97.8108 109.56 100.195 107.952 101.494 105.725C102.107 104.673 102.478 103.475 102.557 102.26C104.008 102.429 105.453 102.137 106.758 101.389C109.114 100.039 110.638 97.4186 110.649 94.708C110.654 93.3977 110.306 92.1718 109.654 91.0976C110.784 90.4228 111.723 89.4444 112.386 88.3139C113.697 86.0589 113.916 83.1401 112.42 80.7726L117.414 78.2252L117.684 78.692C118.572 80.2272 120.006 81.3294 121.732 81.7905C122.312 81.948 122.896 82.0211 123.476 82.0211C124.628 82.0211 125.764 81.7174 126.788 81.1269L136.657 75.4302C139.851 73.5914 140.946 69.5086 139.107 66.3313ZM27.1134 77.4774C26.5454 77.6292 25.9494 77.5561 25.4432 77.2637L15.5743 71.567C14.5227 70.9596 14.1628 69.6099 14.7701 68.564L32.0896 38.5676C32.382 38.0614 32.8543 37.7015 33.4279 37.5497C33.6191 37.4991 33.8159 37.471 34.0071 37.471C34.3895 37.471 34.7606 37.5722 35.0924 37.7634L44.9613 43.4601C46.0129 44.0674 46.3728 45.4115 45.7655 46.463L28.4461 76.4595C28.1593 76.96 27.6813 77.3255 27.1134 77.4774ZM43.5734 95.27C43.1797 94.9888 41.2848 93.4873 42.848 91.266L47.9708 83.9778C49.534 81.7508 51.5866 83.0274 51.9859 83.3086C52.3795 83.5898 54.2745 85.0857 52.7169 87.3126L47.5885 94.6008C46.0196 96.8221 43.9727 95.5512 43.5734 95.27ZM54.4601 102.665C53.8078 103.593 52.9868 104.02 52.0196 103.936C50.9118 103.835 49.8153 103.064 49.3485 102.052C48.9436 101.175 49.0673 100.258 49.7196 99.3302L51.2379 97.1707L56.3608 89.8825V89.8769L58.3964 86.9808C59.9597 84.7538 62.0178 86.0304 62.4115 86.3116C62.8053 86.5928 64.7002 88.0943 63.1369 90.3155L62.6308 91.0353L55.4667 101.22L54.4601 102.665ZM59.8584 107.788C59.4648 107.513 57.5698 106.011 59.1274 103.784L66.2859 93.6054C67.8492 91.3841 69.9073 92.6607 70.301 92.9362C70.6947 93.2174 72.5897 94.719 71.0264 96.9402L69.1651 99.5832L64.3178 106.472L63.8623 107.119C62.3047 109.346 60.252 108.069 59.8584 107.788ZM73.5736 110.561C72.3758 112.259 70.8913 111.91 70.1097 111.55C69.0301 111.05 68.1079 109.925 68.2484 108.649L72.5446 102.541C73.6974 101.973 75.0695 102.468 75.9017 103.312C76.5034 103.925 77.3412 105.207 76.1435 106.905L73.5736 110.561ZM108.545 86.0636C108.303 86.4797 106.97 88.4986 104.62 87.1321L95.6001 81.8797C94.5373 81.2611 93.1708 81.621 92.5466 82.6838C91.9281 83.7467 92.288 85.1132 93.3508 85.7375L102.371 90.9899L104.727 92.362C105.711 92.9356 106.206 93.7173 106.2 94.6846C106.194 95.7981 105.519 96.9565 104.552 97.5076C103.714 97.9856 102.787 97.9406 101.808 97.3726L98.8898 95.6743L89.7913 90.3712C88.7285 89.7526 87.362 90.1125 86.7378 91.1754C86.1193 92.2382 86.4792 93.6048 87.542 94.229L96.6461 99.5321H96.6517C99.0022 100.904 97.9057 103.058 97.6639 103.474C97.4221 103.89 96.0893 105.909 93.7387 104.543L91.4163 103.187H91.4107L83.9822 98.8629C82.9194 98.2443 81.553 98.6042 80.9288 99.6671C80.3102 100.73 80.6701 102.096 81.7329 102.721L89.1613 107.045H89.167C91.5119 108.417 90.4153 110.566 90.1735 110.987C89.9317 111.404 88.5933 113.422 86.2484 112.056L80.3327 108.614C81.8566 105.769 81.418 102.552 79.0899 100.19C78.0609 99.1441 76.8125 98.4412 75.5022 98.0925C77.0542 94.6115 75.5135 91.1418 72.8818 89.2915C71.5266 88.3355 69.862 87.8012 68.1976 87.8631C67.9558 85.743 66.7074 83.8648 64.9979 82.6613C62.7035 81.0473 59.532 80.6255 56.934 82.2957C56.3604 81.2497 55.5338 80.3443 54.561 79.6639C51.5695 77.5607 47.0933 77.4876 44.3322 81.4186L42.0717 84.6353L34.4128 75.0752L48.3698 50.8992L59.099 54.7346C58.666 55.1563 58.2217 55.595 57.7606 56.0505C56.7541 57.0402 55.7137 58.0693 54.5497 59.1941C54.1392 59.5878 53.8974 60.122 53.8749 60.69L53.2844 73.1294C53.1326 76.3462 54.6959 77.8251 55.6406 78.4213C57.6931 79.7147 60.6454 79.4392 63.9518 77.6565C66.7634 76.1381 68.3829 72.6684 69.8168 69.6091C70.1092 68.9849 70.3848 68.3888 70.6659 67.8321C70.8515 67.7421 71.0371 67.6577 71.217 67.5677C75.0127 65.7682 77.4644 64.7334 79.9444 66.1675L107.532 82.1216C109.883 83.4938 108.792 85.6474 108.545 86.0636ZM108.725 77.6563L82.1779 62.2867C77.5386 59.6098 73.1638 61.6849 69.3006 63.5182C68.8957 63.7094 68.4964 63.9006 68.0915 64.0862C67.6473 64.2887 67.2818 64.6373 67.0569 65.0647C66.6182 65.897 66.1909 66.808 65.7748 67.6909C64.6332 70.126 63.3399 72.8872 61.8272 73.7026C59.7634 74.8161 58.3914 74.8555 58.0146 74.6193C57.8516 74.518 57.7054 74.0738 57.7447 73.3202L58.2958 61.7637C59.2293 60.8527 60.1065 59.9923 60.8994 59.2107C69.0026 51.2251 70.9257 49.3299 78.7817 51.062C84.1576 52.2486 92.2439 53.4521 101.617 50.8089L115.203 74.3443L108.725 77.6563ZM134.44 71.5659L124.571 77.2626C124.065 77.555 123.474 77.6281 122.901 77.4763C122.333 77.3244 121.855 76.9589 121.562 76.4584L104.249 46.4562C103.956 45.9501 103.883 45.3596 104.035 44.7859C104.187 44.2179 104.552 43.7399 105.053 43.4475L114.922 37.7508C115.254 37.5596 115.63 37.4584 116.007 37.4584C116.198 37.4584 116.395 37.4865 116.586 37.5371C117.16 37.689 117.632 38.0545 117.925 38.555L135.244 68.5572C135.851 69.6088 135.486 70.9587 134.44 71.5659Z" fill="#663366"/>
</svg>
