<svg width="150" height="150" viewBox="0 0 150 150" fill="none" xmlns="http://www.w3.org/2000/svg">
<path d="M126.254 24.9771L76.2025 10.1031C75.7433 9.96563 75.259 9.96563 74.7998 10.1031L24.7486 24.9771C23.7107 25.2833 23 26.2333 23 27.3081V80.4851C23 92.5593 28.7806 105.552 39.272 117.082C49.0974 127.869 62.0496 136.187 74.8112 139.9C75.0377 139.963 75.2641 140 75.4969 140C75.7296 140 75.9623 139.969 76.1825 139.9C88.9454 136.188 101.897 127.876 111.722 117.082C122.214 105.558 127.994 92.5594 127.994 80.4851L128 27.3081C128 26.2332 127.289 25.2833 126.251 24.9771M123.1 80.4851C123.1 104.234 98.1598 128.101 75.4965 135.019C52.8332 128.101 27.893 104.234 27.893 80.4851L27.8993 29.1208L75.5028 14.9781L123.106 29.1208V80.4851H123.1ZM74.7976 21.7149L35.9428 33.2642C34.905 33.5704 34.1942 34.5203 34.1942 35.5952V80.4864C34.1942 100.147 55.5306 121.395 74.6786 128.165C74.9428 128.258 75.2196 128.308 75.5027 128.308C75.7794 128.308 76.0562 128.258 76.3267 128.165C95.4747 121.396 116.811 100.147 116.811 80.4864V35.5952C116.811 34.5203 116.1 33.5704 115.062 33.2642L76.2077 21.7149C75.7485 21.5774 75.2642 21.5774 74.805 21.7149M111.917 37.4013V80.4862C111.917 97.3474 92.8709 116.752 75.5103 123.283C58.1497 116.752 39.1031 97.3474 39.1031 80.4862V37.4013L75.5103 26.5834L111.917 37.4013ZM63.388 62.6123C60.4568 59.7 55.6888 59.7 52.7575 62.6123C49.8262 65.5246 49.8262 70.2617 52.7575 73.1741L66.3947 86.7294C67.8163 88.1418 69.7034 88.9168 71.71 88.9168C73.7166 88.9168 75.6037 88.1418 77.0252 86.7294L98.2554 65.6366C99.677 64.2242 100.457 62.3493 100.457 60.3557C100.457 58.362 99.677 56.4871 98.2554 55.0748C95.3241 52.1625 90.5562 52.1687 87.6248 55.0748L71.7106 70.8861L63.3886 62.6179L63.388 62.6123ZM91.0899 58.5126C92.1089 57.5002 93.7758 57.5002 94.7948 58.5126C95.2918 59.0063 95.5622 59.6563 95.5622 60.3561C95.5622 61.0498 95.2918 61.706 94.7948 62.1934L73.5647 83.2863C72.5772 84.2675 70.8473 84.2675 69.8598 83.2863L56.2225 69.7372C55.2035 68.7248 55.2035 67.0686 56.2225 66.0562C56.732 65.55 57.4051 65.2938 58.078 65.2938C58.7511 65.2938 59.4178 65.55 59.9336 66.0562L69.9916 76.0492C70.91 76.9617 72.5328 76.9617 73.4512 76.0492L91.0952 58.5193L91.0899 58.5126Z" fill="#663366"/>
</svg>
