<svg width="150" height="150" viewBox="0 0 150 150" fill="none" xmlns="http://www.w3.org/2000/svg">
<path d="M123.745 114.339C123.2 114.339 122.661 114.13 122.248 113.716L116.845 108.313C116.284 107.753 116.085 106.921 116.326 106.161L119.033 97.8106C119.253 97.1247 119.803 96.6012 120.499 96.4179L126.97 94.6848C127.661 94.5016 128.405 94.6744 128.939 95.156L135.457 101.036C136.049 101.57 136.29 102.386 136.085 103.156L134.106 110.543C133.803 111.674 132.64 112.345 131.509 112.041C130.379 111.737 129.708 110.575 130.012 109.444L131.656 103.313L126.955 99.0722L122.708 100.208L120.75 106.235L125.243 110.727C126.07 111.554 126.07 112.894 125.243 113.722C124.829 114.135 124.284 114.339 123.745 114.339Z" fill="#663366"/>
<path d="M120.748 100.664C119.811 100.664 118.958 100.041 118.706 99.0934L115.785 88.1929C115.481 87.062 116.151 85.8997 117.282 85.596C118.408 85.2924 119.576 85.9625 119.879 87.0934L122.801 97.9939C123.104 99.1248 122.434 100.287 121.303 100.591C121.115 100.638 120.932 100.664 120.748 100.664ZM127.795 98.774C126.858 98.774 126.005 98.151 125.754 97.2033L122.832 86.3028C122.528 85.1719 123.199 84.0096 124.33 83.7059C125.455 83.4022 126.623 84.0724 126.926 85.2033L129.848 96.1038C130.152 97.2347 129.481 98.397 128.35 98.7007C128.162 98.7531 127.979 98.774 127.795 98.774Z" fill="#663366"/>
<path d="M67.8859 20.7173C67.8492 20.7173 67.8126 20.7173 67.7759 20.7121C66.6084 20.6545 65.7078 19.6597 65.7707 18.4869C65.9696 14.4712 69.844 10 75.0796 10C80.3099 10 84.1791 14.4712 84.3833 18.4869C84.4408 19.6544 83.5403 20.6492 82.378 20.7121C81.2157 20.7697 80.2157 19.8691 80.1528 18.7068C80.0533 16.6859 77.7654 14.2409 75.0794 14.2409C72.3884 14.2409 70.1057 16.6859 70.0009 18.7068C69.9433 19.8377 69.0063 20.7173 67.8859 20.7173Z" fill="#663366"/>
<path d="M68.3928 62.0781C67.2253 62.0781 66.2725 61.1304 66.2725 59.9577V47.8216C66.2725 46.654 67.2201 45.7012 68.3928 45.7012C69.5604 45.7012 70.5132 46.6488 70.5132 47.8216V59.9577C70.5132 61.1305 69.5656 62.0781 68.3928 62.0781Z" fill="#663366"/>
<path d="M81.7542 62.0781C80.5866 62.0781 79.6338 61.1304 79.6338 59.9577V47.8216C79.6338 46.654 80.5814 45.7012 81.7542 45.7012C82.9217 45.7012 83.8746 46.6488 83.8746 47.8216V59.9577C83.8693 61.1305 82.9217 62.0781 81.7542 62.0781Z" fill="#663366"/>
<path d="M99.8591 112.969H50.2889C47.8386 112.969 45.6711 112.011 44.0218 110.194C42.3778 108.377 41.6291 106.131 41.8647 103.686C42.205 100.188 42.315 96.3507 42.4354 92.2879C42.6867 83.7016 42.9485 74.8223 45.4563 68.2145C45.87 67.1203 47.0951 66.5705 48.1842 66.9841C49.2784 67.3977 49.8282 68.6229 49.4145 69.712C47.1632 75.6544 46.9119 84.1726 46.671 92.4089C46.5506 96.545 46.4354 100.451 46.0794 104.089C45.959 105.346 46.3098 106.404 47.1579 107.341C48.0061 108.273 49.027 108.728 50.2888 108.728H99.8591C101.121 108.728 102.142 108.278 102.99 107.341C103.838 106.409 104.189 105.346 104.068 104.089C103.718 100.451 103.597 96.545 103.477 92.4089C103.236 84.1733 102.985 75.6603 100.733 69.712C100.32 68.6177 100.869 67.3978 101.964 66.9841C103.058 66.5705 104.278 67.1203 104.697 68.2145C107.205 74.8219 107.461 83.7019 107.718 92.2879C107.838 96.3507 107.948 100.188 108.288 103.686C108.524 106.126 107.78 108.377 106.131 110.194C104.477 112.011 102.309 112.969 99.8591 112.969ZM95.4507 62.9426C95.1994 62.9426 94.9376 62.8955 94.6863 62.8013C93.4559 62.3248 92.0266 62.084 90.4506 62.084L59.6917 62.0788C58.1158 62.0788 56.6917 62.3196 55.4561 62.796C54.3618 63.2201 53.1419 62.6756 52.7126 61.5866C52.2885 60.4924 52.833 59.2724 53.922 58.8431C55.6446 58.1782 57.5817 57.8379 59.6864 57.8379H90.4453C92.55 57.8379 94.4872 58.1782 96.2098 58.8431C97.304 59.2672 97.8434 60.4924 97.4192 61.5866C97.0998 62.4296 96.2989 62.9426 95.4507 62.9426Z" fill="#663366"/>
<path d="M93.304 89.6854C92.1364 89.6854 91.1836 88.7378 91.1836 87.565V80.6907C91.1836 79.5232 92.1312 78.5703 93.304 78.5703C94.4715 78.5703 95.4244 79.518 95.4244 80.6907V87.565C95.4244 88.7378 94.4767 89.6854 93.304 89.6854Z" fill="#663366"/>
<path d="M56.843 89.6854C55.6755 89.6854 54.7227 88.7378 54.7227 87.565V80.6907C54.7227 79.5232 55.6703 78.5703 56.843 78.5703C58.0106 78.5703 58.9634 79.518 58.9634 80.6907V87.565C58.9582 88.7378 58.0105 89.6854 56.843 89.6854Z" fill="#663366"/>
<path d="M55.1415 140C54.5603 140 53.9791 139.921 53.4032 139.77L53.0367 139.67C51.3141 139.209 49.8691 138.099 48.9739 136.55C48.0787 135 47.843 133.194 48.2985 131.471L53.9687 110.309C54.2724 109.178 55.4348 108.508 56.5656 108.811C57.6965 109.115 58.3667 110.277 58.063 111.408L52.3928 132.571C52.2253 133.204 52.3143 133.864 52.6389 134.44C52.9687 135.01 53.4975 135.419 54.131 135.591L54.4975 135.691C55.1311 135.864 55.7907 135.769 56.3666 135.445C56.9373 135.115 57.3457 134.586 57.5132 133.953L63.8431 110.319C64.1468 109.188 65.3092 108.518 66.44 108.821C67.5709 109.125 68.2411 110.287 67.9374 111.418L61.6075 135.052C61.1467 136.775 60.0368 138.22 58.4871 139.115C57.4504 139.691 56.2986 140 55.1415 140Z" fill="#663366"/>
<path d="M95.0109 139.995C92.0528 139.995 89.3407 138.015 88.5397 135.031L82.2098 111.397C81.9061 110.267 82.5763 109.104 83.7072 108.801C84.8329 108.497 86.0004 109.167 86.3041 110.298L92.634 133.932C92.9848 135.241 94.3408 136.021 95.6497 135.67L96.0162 135.571C96.6497 135.403 97.1785 134.995 97.5084 134.424C97.8382 133.853 97.9272 133.194 97.7544 132.555L92.0842 111.393C91.7806 110.262 92.4507 109.099 93.5816 108.796C94.7073 108.492 95.8748 109.162 96.1785 110.293L101.849 131.455C102.807 135.021 100.681 138.701 97.1158 139.66L96.7493 139.759C96.1681 139.921 95.5816 139.995 95.0109 139.995Z" fill="#663366"/>
<path d="M48.9739 71.2818C44.4242 71.2818 40.7227 67.5803 40.7227 63.0306C40.7227 58.4808 44.4242 54.7793 48.9739 54.7793C53.5236 54.7793 57.2252 58.4808 57.2252 63.0306C57.2252 67.5803 53.5236 71.2818 48.9739 71.2818ZM48.9739 59.0201C46.7593 59.0201 44.9582 60.8212 44.9582 63.0358C44.9582 65.2504 46.7593 67.0463 48.9739 67.0463C51.1885 67.0463 52.9844 65.2452 52.9844 63.0358C52.9896 60.816 51.1887 59.0201 48.9739 59.0201Z" fill="#663366"/>
<path d="M36.1882 83.6443C35.6437 83.6443 35.1045 83.4349 34.6908 83.0213C33.8636 82.1941 33.8636 80.8538 34.6908 80.0265L45.2824 69.4349C46.1097 68.6077 47.45 68.6077 48.2772 69.4349C49.1045 70.2622 49.1045 71.6025 48.2772 72.4297L37.6857 83.0213C37.272 83.4402 36.7275 83.6443 36.1882 83.6443ZM30.4762 77.9375C29.9317 77.9375 29.3925 77.7281 28.9788 77.3145C28.1516 76.4873 28.1516 75.147 28.9788 74.3197L41.3558 61.9427C42.1831 61.1155 43.5234 61.1155 44.3506 61.9427C45.1779 62.7699 45.1779 64.1103 44.3506 64.9375L31.9736 77.3145C31.56 77.7281 31.0207 77.9375 30.4762 77.9375Z" fill="#663366"/>
<path d="M30.0677 90.1842C25.518 90.1842 21.8164 86.4826 21.8164 81.9329C21.8164 77.3832 25.518 73.6816 30.0677 73.6816C34.6174 73.6816 38.3189 77.3832 38.3189 81.9329C38.3189 86.4878 34.6174 90.1842 30.0677 90.1842ZM30.0677 77.9224C27.8531 77.9224 26.0572 79.7235 26.0572 81.9381C26.0572 84.1527 27.8583 85.9538 30.0677 85.9538C32.277 85.9538 34.0782 84.1527 34.0782 81.9381C34.0782 79.7235 32.2824 77.9224 30.0677 77.9224Z" fill="#663366"/>
<path d="M101.173 71.2818C96.6234 71.2818 92.9219 67.5803 92.9219 63.0306C92.9219 58.4808 96.6234 54.7793 101.173 54.7793C105.723 54.7793 109.424 58.4808 109.424 63.0306C109.424 67.5803 105.723 71.2818 101.173 71.2818ZM101.173 59.0201C98.9585 59.0201 97.1574 60.8212 97.1574 63.0358C97.1574 65.2504 98.9585 67.0463 101.173 67.0463C103.388 67.0463 105.184 65.2452 105.184 63.0358C105.189 60.816 103.388 59.0201 101.173 59.0201Z" fill="#663366"/>
<path d="M113.958 83.6443C113.414 83.6443 112.875 83.4349 112.461 83.0213L101.869 72.4297C101.042 71.6025 101.042 70.2622 101.869 69.4349C102.697 68.6077 104.037 68.6077 104.864 69.4349L115.456 80.0265C116.283 80.8537 116.283 82.1941 115.456 83.0213C115.042 83.4402 114.503 83.6443 113.958 83.6443ZM119.67 77.9375C119.126 77.9375 118.587 77.7281 118.173 77.3145L105.796 64.9375C104.969 64.1103 104.969 62.7699 105.796 61.9427C106.623 61.1155 107.964 61.1155 108.791 61.9427L121.168 74.3197C121.995 75.1469 121.995 76.4873 121.168 77.3145C120.754 77.7281 120.21 77.9375 119.67 77.9375Z" fill="#663366"/>
<path d="M120.078 90.1842C115.529 90.1842 111.827 86.4826 111.827 81.9329C111.827 77.3832 115.529 73.6816 120.078 73.6816C124.628 73.6816 128.33 77.3832 128.33 81.9329C128.33 86.4878 124.628 90.1842 120.078 90.1842ZM120.078 77.9224C117.864 77.9224 116.063 79.7235 116.063 81.9381C116.063 84.1527 117.864 85.9538 120.078 85.9538C122.293 85.9538 124.094 84.1527 124.094 81.9381C124.094 79.7235 122.288 77.9224 120.078 77.9224Z" fill="#663366"/>
<path d="M105.79 100.272H44.3557C43.1882 100.272 42.2354 99.3244 42.2354 98.1516C42.2354 96.9841 43.183 96.0312 44.3557 96.0312H105.79C106.958 96.0312 107.911 96.9789 107.911 98.1516C107.911 99.3244 106.963 100.272 105.79 100.272Z" fill="#663366"/>
<path d="M78.6544 43.0044H71.4973C70.3298 43.0044 69.377 42.0568 69.377 40.8841C69.377 39.7165 70.3246 38.7637 71.4973 38.7637H78.6544C79.8219 38.7637 80.7747 39.7113 80.7747 40.8841C80.7695 42.0568 79.8218 43.0044 78.6544 43.0044Z" fill="#663366"/>
<path d="M67.5028 35.8786C64.0682 35.8786 61.2725 33.0829 61.2725 29.6483C61.2725 26.2137 64.0682 23.418 67.5028 23.418C70.9373 23.418 73.7331 26.2137 73.7331 29.6483C73.7383 33.0829 70.9373 35.8786 67.5028 35.8786ZM67.5028 27.6483C66.4033 27.6483 65.508 28.5436 65.508 29.6431C65.508 30.7425 66.4033 31.6379 67.5028 31.6379C68.6023 31.6379 69.4976 30.7426 69.4976 29.6431C69.4976 28.5488 68.6075 27.6483 67.5028 27.6483Z" fill="#663366"/>
<path d="M82.6444 35.8786C79.2098 35.8786 76.4141 33.0829 76.4141 29.6483C76.4141 26.2137 79.2098 23.418 82.6444 23.418C86.0789 23.418 88.8747 26.2137 88.8747 29.6483C88.8747 33.0829 86.0789 35.8786 82.6444 35.8786ZM82.6444 27.6483C81.5449 27.6483 80.6496 28.5436 80.6496 29.6431C80.6496 30.7425 81.5449 31.6379 82.6444 31.6379C83.7439 31.6379 84.6392 30.7426 84.6392 29.6431C84.6392 28.5488 83.7439 27.6483 82.6444 27.6483Z" fill="#663366"/>
<path d="M95.8801 49.9429H54.262C53.0944 49.9429 52.1416 48.9953 52.1416 47.8225L52.1468 18.5969C52.1468 17.4294 53.0945 16.4766 54.2672 16.4766H95.8854C97.0529 16.4766 98.0058 17.4242 98.0058 18.5969V47.8225C98.0005 48.9953 97.0529 49.9429 95.8801 49.9429ZM56.3824 45.7073H93.7651V20.7171H56.3824V45.7073Z" fill="#663366"/>
<path d="M40.1308 28.3769C36.5078 28.3769 33.5654 25.4293 33.5654 21.8115C33.5654 18.1885 36.5131 15.2461 40.1308 15.2461C43.7538 15.2461 46.6962 18.1937 46.6962 21.8115C46.6962 25.4293 43.7538 28.3769 40.1308 28.3769ZM40.1308 19.4816C38.8481 19.4816 37.801 20.5287 37.801 21.8115C37.801 23.0942 38.8481 24.1414 40.1308 24.1414C41.4136 24.1414 42.4607 23.0942 42.4607 21.8115C42.4607 20.5235 41.4188 19.4816 40.1308 19.4816Z" fill="#663366"/>
<path d="M47.0837 35.3304H40.136C38.9685 35.3304 38.0156 34.3827 38.0156 33.21V26.2571C38.0156 25.0896 38.9633 24.1367 40.136 24.1367C41.3035 24.1367 42.2564 25.0844 42.2564 26.2571V31.0896H47.0889C48.2564 31.0896 49.2093 32.0373 49.2093 33.21C49.1988 34.3828 48.2512 35.3304 47.0837 35.3304Z" fill="#663366"/>
<path d="M53.833 41.5332C48.943 41.5332 44.9639 37.8002 44.9639 33.2139C44.9639 28.6276 48.943 24.8945 53.833 24.8945C54.0163 24.8945 54.2047 24.8998 54.388 24.9102C55.5555 24.9783 56.4456 25.9783 56.3828 27.1459C56.3147 28.3134 55.3199 29.2035 54.1471 29.1407C54.0476 29.1354 53.9377 29.1302 53.8382 29.1302C51.2833 29.1302 49.2047 30.9627 49.2047 33.214C49.2047 35.4653 51.2833 37.2978 53.8382 37.2978C53.9429 37.2978 54.0476 37.2926 54.1524 37.2874C55.3199 37.2193 56.3199 38.1093 56.388 39.2821C56.4561 40.4497 55.566 41.4497 54.3932 41.5178C54.2047 41.5283 54.0215 41.5332 53.833 41.5332Z" fill="#663366"/>
<path d="M110.016 28.3769C106.393 28.3769 103.45 25.4293 103.45 21.8115C103.45 18.1885 106.398 15.2461 110.016 15.2461C113.639 15.2461 116.581 18.1937 116.581 21.8115C116.581 25.4293 113.639 28.3769 110.016 28.3769ZM110.016 19.4816C108.733 19.4816 107.686 20.5287 107.686 21.8115C107.686 23.0942 108.733 24.1414 110.016 24.1414C111.298 24.1414 112.345 23.0942 112.345 21.8115C112.345 20.5235 111.298 19.4816 110.016 19.4816Z" fill="#663366"/>
<path d="M110.016 35.3304H103.069C101.901 35.3304 100.948 34.3827 100.948 33.21C100.948 32.0425 101.896 31.0896 103.069 31.0896H107.901L107.896 26.2571C107.896 25.0896 108.844 24.1367 110.016 24.1367C111.184 24.1367 112.137 25.0844 112.137 26.2571L112.131 33.21C112.131 34.3828 111.189 35.3304 110.016 35.3304Z" fill="#663366"/>
<path d="M96.3146 41.5335C96.1261 41.5335 95.9429 41.5283 95.7596 41.5178C94.5921 41.4497 93.702 40.4497 93.7649 39.2822C93.8329 38.1146 94.8329 37.2245 96.0005 37.2874C96.1 37.2926 96.2099 37.2978 96.3146 37.2978C98.8695 37.2978 100.948 35.4653 100.948 33.214C100.948 30.9627 98.8695 29.1302 96.3146 29.1302C96.2099 29.1302 96.1052 29.1354 96.0057 29.1407C94.8382 29.2087 93.8329 28.3187 93.7701 27.1459C93.702 25.9783 94.5921 24.9731 95.7649 24.9102C95.9481 24.8998 96.1314 24.8945 96.3199 24.8945C101.21 24.8945 105.189 28.6276 105.189 33.2139C105.184 37.7951 101.205 41.5335 96.3146 41.5335Z" fill="#663366"/>
<path d="M26.4034 114.342C25.8589 114.342 25.3197 114.132 24.906 113.719C24.0788 112.891 24.0788 111.551 24.906 110.724L29.3983 106.232L27.4454 100.211L23.1993 99.0744L18.503 103.315L20.147 109.446C20.4506 110.577 19.7805 111.739 18.6496 112.043C17.5187 112.347 16.3564 111.677 16.0527 110.546L14.0736 103.158C13.8642 102.389 14.1103 101.572 14.7019 101.038L21.2202 95.1583C21.7543 94.6766 22.4925 94.4986 23.1889 94.6871L29.6549 96.4201C30.346 96.6034 30.9009 97.1269 31.1209 97.8128L33.8277 106.164C34.0737 106.923 33.8748 107.75 33.3093 108.316L27.9063 113.719C27.4874 114.137 26.948 114.342 26.4034 114.342Z" fill="#663366"/>
<path d="M29.3978 100.664C29.2146 100.664 29.0313 100.643 28.8481 100.591C27.7172 100.287 27.047 99.1248 27.3507 97.994L30.2722 87.0934C30.5758 85.9625 31.7382 85.2923 32.869 85.596C33.9999 85.8997 34.6702 87.0621 34.3664 88.1929L31.445 99.0934C31.1884 100.041 30.335 100.664 29.3978 100.664ZM22.3507 98.774C22.1675 98.774 21.9842 98.7531 21.801 98.7007C20.6701 98.397 19.9999 97.2347 20.3036 96.1038L23.2251 85.2033C23.5287 84.0724 24.6911 83.4022 25.8219 83.7059C26.9528 84.0096 27.623 85.172 27.3193 86.3028L24.3978 97.2033C24.1413 98.151 23.2826 98.774 22.3507 98.774Z" fill="#663366"/>
</svg>
