<svg width="150" height="150" viewBox="0 0 150 150" fill="none" xmlns="http://www.w3.org/2000/svg">
<mask id="path-1-outside-1_254_932" maskUnits="userSpaceOnUse" x="9" y="9" width="131" height="132" fill="black">
<rect fill="white" x="9" y="9" width="131" height="132"/>
<path d="M13.1762 59.4047C13.1151 59.4047 13.0464 59.3971 12.9853 59.3743C12.6265 59.2754 12.4204 58.8949 12.5197 58.5373C13.2602 55.9807 14.1686 53.4392 15.2297 50.9892C15.3747 50.6468 15.7793 50.487 16.1228 50.6316C16.4663 50.7761 16.6267 51.1794 16.4816 51.5142C15.451 53.9187 14.5579 56.3991 13.8326 58.9102C13.741 59.2145 13.4663 59.4047 13.1762 59.4047ZM10.68 75.0411C11.0388 75.0411 11.3441 74.752 11.3594 74.3867C11.451 71.7692 11.7029 69.1442 12.1152 66.5723C12.1762 66.1995 11.9167 65.8571 11.5503 65.7962C11.1762 65.7354 10.8327 65.9941 10.7716 66.3593C10.3517 68.9845 10.0922 71.6704 10.0006 74.3336C9.98531 74.7065 10.2754 75.0184 10.6571 75.0336C10.6647 75.0413 10.6723 75.0411 10.68 75.0411ZM14.8328 97.5569C14.7107 97.1993 14.3213 97.0167 13.9702 97.1385C13.619 97.2602 13.4282 97.6483 13.5503 97.9983C14.4282 100.517 15.4664 103.005 16.6496 105.394C16.7641 105.63 17.0084 105.775 17.2603 105.775C17.3596 105.775 17.4664 105.752 17.558 105.706C17.8939 105.539 18.0313 105.136 17.8634 104.801C16.7107 102.465 15.6878 100.022 14.8328 97.5569ZM11.5578 82.24C11.5273 81.8672 11.1914 81.5932 10.825 81.6237C10.4509 81.6541 10.1761 81.9813 10.2066 82.3541C10.4357 85.0097 10.8403 87.6805 11.3975 90.2827C11.4662 90.6022 11.7487 90.8153 12.0617 90.8153C12.1075 90.8153 12.1533 90.8077 12.2067 90.8001C12.5731 90.724 12.8098 90.3588 12.7258 89.9935C12.1762 87.4521 11.7869 84.8424 11.5578 82.24ZM29.0699 32.2646C29.2455 32.2646 29.4211 32.1961 29.5508 32.0591C31.383 30.1949 33.3449 28.422 35.3908 26.7938C35.6809 26.5579 35.7343 26.1394 35.4977 25.8426C35.261 25.5535 34.8412 25.5002 34.5435 25.7361C32.4594 27.3949 30.4516 29.2057 28.5813 31.1156C28.3142 31.382 28.3218 31.8157 28.589 32.0668C28.7264 32.2037 28.8943 32.2646 29.0699 32.2646ZM19.0924 44.7586C19.1992 44.8195 19.3137 44.8499 19.4359 44.8499C19.6725 44.8499 19.8939 44.7282 20.0237 44.5151C21.3444 42.263 22.8177 40.0716 24.4056 37.9941C24.6346 37.6974 24.5735 37.2713 24.2758 37.043C23.9781 36.8147 23.5506 36.8756 23.3216 37.1724C21.7032 39.2876 20.1916 41.5324 18.848 43.8303C18.6572 44.1651 18.7717 44.576 19.0924 44.7586ZM128.647 113.194C128.342 112.981 127.922 113.05 127.701 113.362C126.357 115.264 124.891 117.113 123.349 118.863C123.097 119.145 123.128 119.571 123.41 119.814C123.54 119.928 123.7 119.982 123.861 119.982C124.051 119.982 124.235 119.905 124.372 119.753C125.952 117.973 127.449 116.078 128.815 114.145C129.029 113.833 128.953 113.407 128.647 113.194ZM107.082 132.072C105.051 133.229 102.944 134.286 100.807 135.207C100.463 135.359 100.303 135.755 100.456 136.097C100.57 136.349 100.814 136.508 101.082 136.508C101.173 136.508 101.265 136.486 101.349 136.447C103.532 135.504 105.693 134.423 107.761 133.244C108.089 133.062 108.204 132.643 108.013 132.316C107.815 132.004 107.402 131.89 107.082 132.072ZM118.418 123.847C116.685 125.414 114.853 126.906 112.975 128.275C112.67 128.496 112.601 128.914 112.822 129.219C112.952 129.401 113.166 129.493 113.372 129.493C113.509 129.493 113.647 129.447 113.769 129.363C115.693 127.963 117.563 126.449 119.327 124.844C119.601 124.592 119.624 124.166 119.372 123.892C119.128 123.619 118.693 123.596 118.418 123.847ZM101.257 18.3016C103.593 19.3364 105.891 20.5234 108.09 21.8246C108.196 21.8855 108.319 21.9235 108.433 21.9235C108.662 21.9235 108.891 21.8094 109.013 21.5887C109.204 21.2691 109.105 20.8506 108.777 20.6604C106.532 19.3289 104.181 18.1114 101.799 17.0537C101.456 16.9015 101.059 17.0537 100.906 17.3961C100.761 17.7537 100.914 18.1495 101.257 18.3016ZM129.823 43.1686C129.953 43.3816 130.174 43.4881 130.403 43.4881C130.525 43.4881 130.647 43.4577 130.762 43.3892C131.082 43.1914 131.182 42.7729 130.983 42.4609C129.609 40.2467 128.09 38.0933 126.456 36.0541C126.22 35.7649 125.8 35.7117 125.502 35.9475C125.212 36.1834 125.159 36.6019 125.395 36.8987C126.991 38.8922 128.479 41 129.823 43.1686ZM86.561 13.8351C89.0803 14.2764 91.5993 14.8851 94.0422 15.6308C94.1033 15.6536 94.172 15.6612 94.2407 15.6612C94.5308 15.6612 94.798 15.471 94.8895 15.1819C94.9964 14.8243 94.7979 14.4438 94.4391 14.3373C91.943 13.5764 89.3701 12.9677 86.7975 12.5035C86.4311 12.4426 86.0723 12.6861 86.0112 13.0514C85.9502 13.4166 86.1946 13.7666 86.561 13.8351ZM71.1787 12.9829H71.2245C73.7666 12.8231 76.3697 12.8155 78.9195 12.9524C79.2859 12.9829 79.6142 12.6861 79.6294 12.3133C79.6523 11.9404 79.3623 11.6208 78.9882 11.6056C76.3851 11.4611 73.7285 11.4763 71.133 11.6361C70.7589 11.6589 70.4765 11.9785 70.4994 12.3513C70.5223 12.7089 70.8199 12.9829 71.1787 12.9829ZM114.448 26.1464C116.471 27.7063 118.418 29.4031 120.242 31.1911C120.372 31.3204 120.548 31.3889 120.716 31.3889C120.891 31.3889 121.067 31.3204 121.197 31.1911C121.464 30.9248 121.456 30.4911 121.189 30.24C119.326 28.4138 117.341 26.679 115.273 25.0887C114.975 24.8605 114.548 24.9137 114.319 25.2105C114.097 25.492 114.151 25.9181 114.448 26.1464ZM53.3244 107.563C53.3244 104.9 55.5001 102.731 58.172 102.731C60.8439 102.731 63.0196 104.9 63.0196 107.563C63.0196 110.226 60.8439 112.395 58.172 112.395C55.5001 112.395 53.3244 110.226 53.3244 107.563ZM54.6833 107.563C54.6833 109.48 56.2482 111.04 58.1721 111.04C60.0959 111.04 61.6684 109.48 61.6684 107.563C61.6684 105.645 60.1035 104.086 58.1721 104.086C56.2483 104.086 54.6833 105.645 54.6833 107.563ZM37.0491 107.563C37.0491 104.9 39.2248 102.731 41.8966 102.731C44.5685 102.731 46.7442 104.9 46.7442 107.563C46.7442 110.226 44.5685 112.395 41.8966 112.395C39.2248 112.395 37.0491 110.226 37.0491 107.563ZM41.8966 104.086C39.9729 104.086 38.4002 105.645 38.4002 107.563C38.4002 109.48 39.9652 111.04 41.8966 111.04C43.8204 111.04 45.3854 109.48 45.3854 107.563C45.3854 105.645 43.8205 104.086 41.8966 104.086ZM94.5859 118.352V136.097C94.5859 138.28 92.2423 140 89.2574 140H68.6378C65.6454 140 63.3093 138.288 63.3093 136.097V131.098L59.561 126.38H34.4993C31.0793 126.38 28.2929 123.603 28.2929 120.194V117.325H26.6669C23.3003 117.325 20.5674 114.593 20.5674 111.245C20.5674 107.89 23.3079 105.158 26.6669 105.158H28.2929V100.418C28.2929 98.0819 29.606 96.0426 31.5296 94.9849C32.4151 94.5056 33.4228 94.2316 34.4915 94.2316H37.0489V88.0379C34.6977 87.7031 32.8808 85.6944 32.8808 83.2595C32.8808 80.5963 35.0565 78.4277 37.7284 78.4277C40.4003 78.4277 42.5759 80.5963 42.5759 83.2595C42.5759 85.6944 40.7591 87.7108 38.4079 88.0379V94.2316H60.2645V88.0379C57.9133 87.7031 56.0964 85.6944 56.0964 83.2595C56.0964 80.5963 58.2721 78.4277 60.944 78.4277C63.6159 78.4277 65.7916 80.5963 65.7916 83.2595C65.7916 85.6944 63.9747 87.7108 61.6235 88.0379L61.6311 94.2316H65.6313C69.0513 94.2316 71.8377 97.009 71.8377 100.418V105.151H73.3951C76.7617 105.151 79.4946 107.882 79.4946 111.238C79.4946 112.105 79.3113 112.927 78.9831 113.673H89.2583C92.2126 113.665 94.5859 116.23 94.5859 118.352ZM93.2347 136.089V118.345C93.2347 117.036 91.5323 115.02 89.2573 115.02H68.6378C66.3704 115.02 64.6604 117.044 64.6604 118.345V119.349C64.6604 119.722 64.3551 120.026 63.981 120.026H56.2555L64.5155 130.42C64.6071 130.542 64.6605 130.686 64.6605 130.839V136.081C64.6605 137.466 66.485 138.63 68.6379 138.63H89.2575C91.4103 138.638 93.2347 137.474 93.2347 136.089ZM34.4911 125.01H58.4759L54.3155 119.775C54.1552 119.57 54.1246 119.296 54.2391 119.06C54.3536 118.824 54.5903 118.68 54.8498 118.68H63.3005V118.345C63.3005 116.23 65.6824 113.665 68.629 113.665H70.4535L70.4612 100.418C70.4612 97.7549 68.2855 95.5863 65.6136 95.5863H34.482C31.8101 95.5863 29.6344 97.7549 29.6344 100.418V110.081C29.9016 112.752 31.0161 114.875 32.9551 116.382C38.0927 120.354 47.2153 119.083 48.9862 118.794C49.3603 118.733 49.7038 118.976 49.7649 119.349C49.8259 119.722 49.574 120.065 49.2076 120.125C48.4213 120.255 46.2838 120.567 43.65 120.567C39.9858 120.567 35.3672 119.966 32.1153 117.447C31.0771 116.64 30.2526 115.682 29.6267 114.586V120.178C29.642 122.849 31.8192 125.01 34.4911 125.01ZM26.6664 115.963H28.2924V110.158C28.2847 110.112 28.2771 110.059 28.2695 110.013C28.2618 109.937 28.2771 109.868 28.2924 109.8V106.498H26.6664C24.048 106.498 21.918 108.62 21.918 111.23C21.918 113.84 24.0478 115.963 26.6664 115.963ZM73.3775 106.498H71.8202V113.665H77.4387C77.8662 112.958 78.1257 112.121 78.1257 111.23C78.1257 108.621 75.996 106.498 73.3775 106.498ZM60.9418 79.7743C59.0181 79.7743 57.4454 81.3342 57.4454 83.2517C57.4454 85.1693 59.0104 86.7291 60.9418 86.7291C62.8656 86.7291 64.4306 85.1693 64.4306 83.2517C64.4306 81.3342 62.8657 79.7743 60.9418 79.7743ZM34.2308 83.2517C34.2308 85.1692 35.7957 86.7291 37.7195 86.7291C39.6433 86.7291 41.2159 85.1693 41.2159 83.2517C41.2159 81.3342 39.651 79.7743 37.7195 79.7743C35.8034 79.7743 34.2308 81.3342 34.2308 83.2517ZM86.324 122.325H71.1783C70.8043 122.325 70.4989 122.629 70.4989 123.002C70.4989 123.375 70.8043 123.679 71.1783 123.679H86.324C86.698 123.679 87.0034 123.375 87.0034 123.002C87.0034 122.629 86.6904 122.325 86.324 122.325ZM86.324 129.964H71.1783C70.8043 129.964 70.4989 130.269 70.4989 130.641C70.4989 131.014 70.8043 131.319 71.1783 131.319H86.324C86.698 131.319 87.0034 131.014 87.0034 130.641C87.0034 130.269 86.6904 129.964 86.324 129.964ZM30.3379 69.7156C29.6661 69.7156 29.0096 69.6243 28.376 69.4721C24.7881 68.5894 22.1086 65.3632 22.1086 61.5207V59.6337C20.0398 59.3065 18.4519 57.5185 18.4519 55.3651C18.4519 52.9758 20.3986 51.0431 22.7881 51.0431C25.1852 51.0431 27.1242 52.9833 27.1242 55.3651C27.1242 56.826 26.3914 58.1196 25.2692 58.9032C24.7425 59.2761 24.1241 59.5272 23.46 59.6261V61.5131C23.46 65.2872 26.544 68.3612 30.3304 68.3612C34.1168 68.3612 37.2009 65.2872 37.2009 61.5131V61.4675C34.9413 61.2848 32.9411 60.2196 31.529 58.6218C31.4985 58.5913 31.4679 58.5609 31.4374 58.5228C30.1854 57.0543 29.4221 55.152 29.4221 53.0748V45.3211C29.4221 44.9483 29.7275 44.6439 30.1016 44.6439H32.8497C33.2237 44.6439 33.5291 44.9483 33.5291 45.3211C33.5291 45.694 33.2237 45.9983 32.8497 45.9983H30.7809V53.0747C30.7809 56.9781 33.9642 60.151 37.8804 60.151C41.7965 60.151 44.9799 56.9781 44.9799 53.0747V45.9983H42.9111C42.537 45.9983 42.2316 45.694 42.2316 45.3211C42.2316 44.9483 42.537 44.6439 42.9111 44.6439H45.6592C46.0332 44.6439 46.3386 44.9483 46.3386 45.3211V46.5081C46.6439 46.4853 46.9493 46.4777 47.2623 46.4777H48.6364L48.644 41.0068C48.3387 40.771 48.0409 40.5122 47.7585 40.2307L46.5218 39.0209L45.4989 38.0241C43.9873 36.5403 43.1553 34.5773 43.1553 32.4847V22.0754C43.1553 15.6458 48.8196 10 55.2702 10C61.95 10 67.3852 15.4175 67.3852 22.0754V32.4237C67.3852 34.5161 66.5531 36.4868 65.0416 37.9631L62.7133 40.2459C62.4461 40.5046 62.1789 40.7405 61.8888 40.9687V46.4852H63.2629C71.5838 46.4852 78.3476 54.1475 78.3476 63.5749C78.3476 66.4664 75.9964 68.8099 73.0955 68.8099H34.0783C32.9638 69.3806 31.689 69.7156 30.3379 69.7156ZM35.9945 67.448H73.1023C75.2551 67.448 76.9956 65.7055 76.9956 63.5674C76.9956 54.8932 70.8352 47.832 63.27 47.832H61.5829L57.4758 54.1323C56.9872 54.8856 56.1627 55.3269 55.2696 55.3269C54.3764 55.3269 53.5519 54.878 53.0634 54.1323L48.9563 47.832H47.2692C46.9638 47.832 46.6509 47.8473 46.3455 47.8701V53.0823C46.3455 57.4955 42.9179 61.125 38.5665 61.475V61.5207C38.5665 63.849 37.5747 65.9565 35.9945 67.448ZM44.514 26.4135H44.7506C45.7736 26.4135 46.8194 24.6862 46.8194 23.446V22.0764C46.8194 20.6992 47.9416 19.5808 49.3232 19.5808H61.2092C62.5909 19.5808 63.713 20.6993 63.713 22.0764V23.446C63.713 24.6863 64.7512 26.4135 65.7818 26.4135H66.0184V22.0763C66.0184 16.164 61.1937 11.3552 55.2623 11.3552C49.6285 11.3552 44.4985 16.4609 44.4985 22.0763L44.514 26.4135ZM44.514 32.4855C44.514 34.2127 45.201 35.8335 46.4454 37.0586L48.7049 39.2652C52.3082 42.7881 58.1632 42.7881 61.7665 39.2652L64.0948 36.9824C65.3468 35.7574 66.0262 34.1367 66.0262 32.4093V27.7603H65.7896C63.736 27.7603 62.3619 25.158 62.3619 23.4382V22.0686C62.3619 21.4371 61.8428 20.9197 61.2092 20.9197H49.3157C48.6821 20.9197 48.163 21.4371 48.163 22.0686V23.4382C48.163 25.1579 46.7965 27.7603 44.7354 27.7603H44.4987L44.514 32.4855ZM49.9951 41.9053V46.9578L54.1937 53.3875C54.4304 53.7603 54.8273 53.9657 55.2625 53.9657C55.7052 53.9657 56.0946 53.7527 56.3312 53.3875L60.5298 46.9578V41.8674C58.8961 42.7957 57.0641 43.2674 55.2319 43.2674C53.4227 43.2674 51.6135 42.8032 49.9951 41.9053ZM19.8113 55.358C19.8113 56.9939 21.1473 58.3254 22.7885 58.3254C24.4298 58.3254 25.7656 56.9938 25.7656 55.358C25.7656 53.722 24.4297 52.3905 22.7885 52.3905C21.1472 52.3829 19.8113 53.7221 19.8113 55.358ZM102.516 68.9705C102.081 67.852 102.035 66.6042 102.387 65.4475C102.623 64.6638 103.051 63.9409 103.616 63.3551C103.791 63.1725 103.974 63.0051 104.181 62.8529C105.036 62.1985 106.097 61.8333 107.181 61.8333C107.211 61.8257 107.234 61.8257 107.265 61.8257C107.295 61.8257 107.333 61.8333 107.364 61.8333C107.471 61.8409 107.555 61.8409 107.639 61.8561C107.707 61.8637 107.776 61.8713 107.845 61.8789C107.929 61.8865 108.013 61.9017 108.097 61.917C108.165 61.9322 108.234 61.9474 108.295 61.9626C108.379 61.9854 108.463 62.0083 108.547 62.0311C108.608 62.0539 108.677 62.0691 108.746 62.092C108.83 62.1224 108.914 62.1528 108.998 62.1833C109.074 62.2137 109.127 62.2365 109.181 62.2594C109.265 62.2974 109.349 62.3355 109.433 62.3811L109.479 62.4039C109.524 62.4268 109.57 62.4496 109.608 62.4724C109.7 62.5181 109.776 62.5713 109.86 62.6246C109.937 62.6703 109.975 62.7007 110.013 62.7235C110.105 62.7844 110.196 62.8529 110.28 62.9214C110.341 62.967 110.372 62.9898 110.402 63.0127C110.532 63.1192 110.647 63.2333 110.761 63.3551L110.975 63.5757L111.166 63.3779C111.303 63.2333 111.425 63.1192 111.555 63.0203C111.585 62.9975 111.616 62.9746 111.647 62.9442C111.761 62.8529 111.845 62.7844 111.937 62.7235C111.975 62.7007 112.013 62.6779 112.051 62.6474L112.089 62.6246C112.181 62.5637 112.257 62.5181 112.341 62.4724C112.387 62.4496 112.433 62.4268 112.479 62.3963C112.593 62.3355 112.677 62.2974 112.761 62.2518C112.815 62.2289 112.868 62.2061 112.921 62.1909C113.028 62.1452 113.112 62.1148 113.196 62.092C113.257 62.0692 113.326 62.0539 113.395 62.0311C113.479 62.0083 113.563 61.9855 113.647 61.9626C113.708 61.9474 113.776 61.9322 113.845 61.9246C113.937 61.9094 114.013 61.8941 114.105 61.8865C114.173 61.8789 114.242 61.8637 114.303 61.8637C114.387 61.8561 114.471 61.8485 114.555 61.8485C114.616 61.8409 114.654 61.8409 114.692 61.8409C114.715 61.8409 114.738 61.8409 114.769 61.8485C115.845 61.8485 116.914 62.2137 117.761 62.8681C117.96 63.0203 118.151 63.1877 118.326 63.3703C118.891 63.9562 119.311 64.679 119.555 65.4627C119.906 66.6117 119.861 67.8672 119.425 68.9857C119.173 69.6249 118.807 70.2108 118.334 70.7053L113.341 75.9403C113.028 76.2751 112.654 76.5262 112.234 76.7088C111.83 76.8762 111.402 76.9675 110.967 76.9675C110.059 76.9675 109.211 76.6023 108.585 75.9479L103.608 70.6901C103.134 70.188 102.768 69.6172 102.516 68.9705ZM104.593 64.2986C104.173 64.74 103.868 65.2498 103.692 65.8509C103.425 66.7107 103.463 67.6542 103.791 68.4837C103.974 68.963 104.249 69.3891 104.6 69.7544L109.578 75.0121C110.12 75.5904 110.99 75.7654 111.715 75.4611C111.96 75.3622 112.181 75.21 112.357 75.0121L117.334 69.7544C117.693 69.3815 117.96 68.963 118.143 68.4837C118.471 67.6467 118.502 66.7108 118.242 65.8509C118.059 65.265 117.761 64.74 117.342 64.2986C117.212 64.1693 117.074 64.0399 116.929 63.9334C116.296 63.4464 115.494 63.1801 114.7 63.1953H114.654L114.609 63.2029C114.548 63.2105 114.486 63.2105 114.425 63.2105C114.38 63.2181 114.326 63.2181 114.28 63.2334C114.219 63.241 114.151 63.2562 114.097 63.2638C114.051 63.2714 114.006 63.2866 113.952 63.2942C113.891 63.3095 113.83 63.3247 113.769 63.3399C113.723 63.3551 113.67 63.3703 113.624 63.3855C113.563 63.4084 113.509 63.4312 113.441 63.454C113.38 63.4769 113.341 63.4921 113.311 63.5073C113.25 63.5377 113.189 63.5682 113.128 63.5986L113.082 63.6214L112.998 63.6671C112.937 63.6975 112.883 63.7356 112.83 63.7736L112.708 63.8497C112.639 63.8953 112.578 63.9486 112.517 63.9943L112.463 64.0399C112.334 64.1388 112.25 64.2225 112.166 64.3138L111.463 65.0443C111.212 65.3106 110.738 65.3106 110.486 65.0443L109.807 64.3367C109.7 64.2225 109.608 64.1388 109.517 64.0627L109.425 63.9943C109.364 63.941 109.295 63.8953 109.234 63.8497L109.12 63.7812C109.059 63.7432 108.998 63.7051 108.937 63.6671L108.807 63.6062C108.746 63.5758 108.692 63.5453 108.624 63.5149C108.593 63.4997 108.555 63.4845 108.524 63.4692C108.433 63.4388 108.379 63.4084 108.311 63.3932C108.265 63.3779 108.219 63.3627 108.173 63.3475C108.112 63.3247 108.051 63.3171 107.99 63.3018C107.944 63.2942 107.891 63.279 107.845 63.2714C107.784 63.2638 107.723 63.2486 107.662 63.241C107.616 63.2334 107.563 63.2258 107.517 63.2182C107.456 63.2105 107.395 63.2105 107.334 63.2105L107.288 63.2029H107.242H107.188C106.395 63.2029 105.646 63.454 105.013 63.941C104.86 64.0399 104.715 64.1693 104.593 64.2986ZM106.73 70.1196L109.097 70.15H109.104C109.372 70.15 109.624 69.9902 109.73 69.7391L109.952 69.2293L110.791 71.611C110.883 71.8621 111.112 72.0371 111.372 72.0599C111.395 72.0599 111.41 72.0675 111.433 72.0675C111.677 72.0675 111.906 71.9382 112.021 71.7251L112.891 70.1653H114.555C114.929 70.1653 115.234 69.8609 115.234 69.4881C115.234 69.1152 114.929 68.8109 114.555 68.8109H112.501C112.257 68.8109 112.028 68.9402 111.914 69.1533L111.578 69.7544L110.662 67.1598C110.57 66.8935 110.326 66.7185 110.043 66.7032C109.753 66.6956 109.509 66.8554 109.402 67.1141L108.677 68.8033L106.761 68.7805H106.753C106.379 68.7805 106.081 69.0773 106.074 69.4501C106.058 69.8077 106.356 70.1196 106.73 70.1196ZM109.792 48.4102C109.792 47.771 110.318 47.2384 110.967 47.2384C111.608 47.2384 112.143 47.7634 112.143 48.4102C112.143 49.0493 111.616 49.5819 110.967 49.5819C110.311 49.5743 109.792 49.0493 109.792 48.4102ZM110.776 48.4102C110.776 48.5091 110.86 48.5928 110.96 48.5928C111.059 48.5928 111.143 48.5091 111.143 48.4102C111.143 48.3113 111.059 48.2276 110.96 48.2276C110.86 48.2199 110.776 48.3036 110.776 48.4102ZM104.593 79.8591L101.532 82.9103L100.096 81.4798C99.8292 81.2135 99.4017 81.2135 99.1422 81.4798C98.875 81.7461 98.875 82.1722 99.1422 82.4309L101.051 84.3331C101.18 84.4625 101.356 84.531 101.532 84.531C101.7 84.531 101.875 84.4625 102.013 84.3331L105.555 80.8026C105.822 80.5362 105.822 80.1101 105.555 79.8514C105.287 79.6003 104.86 79.6004 104.593 79.8591ZM104.593 87.4452L101.532 90.4964L100.096 89.0659C99.8292 88.7996 99.4017 88.7996 99.1422 89.0659C98.875 89.3322 98.875 89.7583 99.1422 90.017L101.051 91.9192C101.18 92.0486 101.356 92.1171 101.532 92.1171C101.7 92.1171 101.875 92.0486 102.013 91.9192L105.555 88.3887C105.822 88.1224 105.822 87.6962 105.555 87.4375C105.287 87.1864 104.86 87.1865 104.593 87.4452ZM121.326 82.3015H108.318C107.944 82.3015 107.639 82.6059 107.639 82.9788C107.639 83.3516 107.944 83.656 108.318 83.656H121.326C121.7 83.656 122.006 83.3516 122.006 82.9788C122.006 82.6059 121.693 82.3015 121.326 82.3015ZM113.402 90.1236C113.402 89.7507 113.097 89.4463 112.723 89.4463L108.31 89.454C107.936 89.454 107.631 89.7583 107.631 90.1312C107.631 90.504 107.936 90.8084 108.31 90.8084H112.73C113.105 90.8008 113.402 90.504 113.402 90.1236ZM138.19 105.844C139.366 107.061 139.244 109.093 137.938 110.379C137.267 111.041 136.373 111.421 135.488 111.421C134.686 111.421 133.946 111.117 133.419 110.561L130.03 107.305C128.358 108.172 126.51 108.636 124.602 108.636C124.365 108.636 124.136 108.629 123.9 108.613C120.976 108.446 118.274 107.221 116.212 105.159H92.7082C90.9754 105.159 89.563 103.751 89.563 102.024V52.3446C89.563 50.6173 90.9753 49.2096 92.7082 49.2096H100.044C100.334 48.3574 101.136 47.7335 102.083 47.7335H105.388C105.64 45.6562 107.037 43.929 108.93 43.1986C109.564 42.9551 110.243 42.8181 110.961 42.8181C113.824 42.8181 116.198 44.9715 116.534 47.7335H119.839C120.794 47.7335 121.595 48.3574 121.878 49.2096H129.221C130.954 49.2096 132.367 50.6173 132.367 52.3446V87.3309C132.779 87.6885 133.176 88.0842 133.542 88.5026C135.657 90.9147 136.718 94.0191 136.527 97.2378C136.412 99.1781 135.848 101.027 134.901 102.655L138.19 105.844ZM136.984 109.42C137.763 108.644 137.877 107.464 137.228 106.795L134.152 103.812C133.679 104.444 133.144 105.037 132.541 105.577C132.129 105.95 131.686 106.285 131.228 106.589L134.381 109.61C135.038 110.287 136.228 110.166 136.984 109.42ZM131.633 104.565C133.755 102.655 135.007 100.03 135.182 97.1617C135.35 94.293 134.411 91.5387 132.526 89.3929C130.648 87.2547 128.06 85.9841 125.243 85.8167C125.037 85.8091 124.831 85.7939 124.625 85.7939C119.059 85.7939 114.372 90.2147 114.036 95.9214C113.868 98.7901 114.807 101.544 116.693 103.69C118.571 105.828 121.159 107.099 123.976 107.266C126.8 107.434 129.51 106.468 131.633 104.565ZM90.9134 102.024C90.9134 103.005 91.715 103.804 92.6998 103.804H115.037C113.946 102.336 113.205 100.647 112.869 98.8661H95.6622C95.2882 98.8661 94.9828 98.5617 94.9828 98.1888V55.7908C94.9828 55.1516 95.5096 54.619 96.1584 54.619H99.922V50.5635H92.708C91.7232 50.5635 90.9216 51.3624 90.9216 52.344L90.9134 102.024ZM101.273 49.8863V56.7725C101.273 57.2138 101.631 57.5715 102.074 57.5715L119.838 57.5639C120.281 57.5639 120.64 57.2062 120.64 56.7649V49.8787C120.64 49.4374 120.281 49.0797 119.838 49.0797H115.892C115.517 49.0797 115.212 48.7754 115.212 48.4025C115.212 46.0666 113.304 44.1643 110.96 44.1643C108.616 44.1643 106.708 46.0665 106.708 48.4025C106.708 48.7754 106.403 49.0797 106.028 49.0797H102.082C101.639 49.0873 101.273 49.445 101.273 49.8863ZM122.006 50.5559V54.6114H125.769C126.41 54.6114 126.945 55.1364 126.945 55.7832V84.6667C128.403 84.9559 129.777 85.5113 131.014 86.3103V52.3369C131.014 51.3553 130.212 50.5564 129.227 50.5564L122.006 50.5559ZM112.677 95.8446C113.066 89.1867 118.723 84.0811 125.319 84.4693C125.41 84.4769 125.494 84.4845 125.586 84.4921V55.9728H122.013V56.7718C122.013 57.9588 121.044 58.9252 119.853 58.9252H102.089C100.898 58.9252 99.9286 57.9589 99.9286 56.7718V55.9728H96.3407V97.5099H112.693C112.654 96.9545 112.647 96.4001 112.677 95.8446Z"/>
</mask>
<path d="M13.1762 59.4047C13.1151 59.4047 13.0464 59.3971 12.9853 59.3743C12.6265 59.2754 12.4204 58.8949 12.5197 58.5373C13.2602 55.9807 14.1686 53.4392 15.2297 50.9892C15.3747 50.6468 15.7793 50.487 16.1228 50.6316C16.4663 50.7761 16.6267 51.1794 16.4816 51.5142C15.451 53.9187 14.5579 56.3991 13.8326 58.9102C13.741 59.2145 13.4663 59.4047 13.1762 59.4047ZM10.68 75.0411C11.0388 75.0411 11.3441 74.752 11.3594 74.3867C11.451 71.7692 11.7029 69.1442 12.1152 66.5723C12.1762 66.1995 11.9167 65.8571 11.5503 65.7962C11.1762 65.7354 10.8327 65.9941 10.7716 66.3593C10.3517 68.9845 10.0922 71.6704 10.0006 74.3336C9.98531 74.7065 10.2754 75.0184 10.6571 75.0336C10.6647 75.0413 10.6723 75.0411 10.68 75.0411ZM14.8328 97.5569C14.7107 97.1993 14.3213 97.0167 13.9702 97.1385C13.619 97.2602 13.4282 97.6483 13.5503 97.9983C14.4282 100.517 15.4664 103.005 16.6496 105.394C16.7641 105.63 17.0084 105.775 17.2603 105.775C17.3596 105.775 17.4664 105.752 17.558 105.706C17.8939 105.539 18.0313 105.136 17.8634 104.801C16.7107 102.465 15.6878 100.022 14.8328 97.5569ZM11.5578 82.24C11.5273 81.8672 11.1914 81.5932 10.825 81.6237C10.4509 81.6541 10.1761 81.9813 10.2066 82.3541C10.4357 85.0097 10.8403 87.6805 11.3975 90.2827C11.4662 90.6022 11.7487 90.8153 12.0617 90.8153C12.1075 90.8153 12.1533 90.8077 12.2067 90.8001C12.5731 90.724 12.8098 90.3588 12.7258 89.9935C12.1762 87.4521 11.7869 84.8424 11.5578 82.24ZM29.0699 32.2646C29.2455 32.2646 29.4211 32.1961 29.5508 32.0591C31.383 30.1949 33.3449 28.422 35.3908 26.7938C35.6809 26.5579 35.7343 26.1394 35.4977 25.8426C35.261 25.5535 34.8412 25.5002 34.5435 25.7361C32.4594 27.3949 30.4516 29.2057 28.5813 31.1156C28.3142 31.382 28.3218 31.8157 28.589 32.0668C28.7264 32.2037 28.8943 32.2646 29.0699 32.2646ZM19.0924 44.7586C19.1992 44.8195 19.3137 44.8499 19.4359 44.8499C19.6725 44.8499 19.8939 44.7282 20.0237 44.5151C21.3444 42.263 22.8177 40.0716 24.4056 37.9941C24.6346 37.6974 24.5735 37.2713 24.2758 37.043C23.9781 36.8147 23.5506 36.8756 23.3216 37.1724C21.7032 39.2876 20.1916 41.5324 18.848 43.8303C18.6572 44.1651 18.7717 44.576 19.0924 44.7586ZM128.647 113.194C128.342 112.981 127.922 113.05 127.701 113.362C126.357 115.264 124.891 117.113 123.349 118.863C123.097 119.145 123.128 119.571 123.41 119.814C123.54 119.928 123.7 119.982 123.861 119.982C124.051 119.982 124.235 119.905 124.372 119.753C125.952 117.973 127.449 116.078 128.815 114.145C129.029 113.833 128.953 113.407 128.647 113.194ZM107.082 132.072C105.051 133.229 102.944 134.286 100.807 135.207C100.463 135.359 100.303 135.755 100.456 136.097C100.57 136.349 100.814 136.508 101.082 136.508C101.173 136.508 101.265 136.486 101.349 136.447C103.532 135.504 105.693 134.423 107.761 133.244C108.089 133.062 108.204 132.643 108.013 132.316C107.815 132.004 107.402 131.89 107.082 132.072ZM118.418 123.847C116.685 125.414 114.853 126.906 112.975 128.275C112.67 128.496 112.601 128.914 112.822 129.219C112.952 129.401 113.166 129.493 113.372 129.493C113.509 129.493 113.647 129.447 113.769 129.363C115.693 127.963 117.563 126.449 119.327 124.844C119.601 124.592 119.624 124.166 119.372 123.892C119.128 123.619 118.693 123.596 118.418 123.847ZM101.257 18.3016C103.593 19.3364 105.891 20.5234 108.09 21.8246C108.196 21.8855 108.319 21.9235 108.433 21.9235C108.662 21.9235 108.891 21.8094 109.013 21.5887C109.204 21.2691 109.105 20.8506 108.777 20.6604C106.532 19.3289 104.181 18.1114 101.799 17.0537C101.456 16.9015 101.059 17.0537 100.906 17.3961C100.761 17.7537 100.914 18.1495 101.257 18.3016ZM129.823 43.1686C129.953 43.3816 130.174 43.4881 130.403 43.4881C130.525 43.4881 130.647 43.4577 130.762 43.3892C131.082 43.1914 131.182 42.7729 130.983 42.4609C129.609 40.2467 128.09 38.0933 126.456 36.0541C126.22 35.7649 125.8 35.7117 125.502 35.9475C125.212 36.1834 125.159 36.6019 125.395 36.8987C126.991 38.8922 128.479 41 129.823 43.1686ZM86.561 13.8351C89.0803 14.2764 91.5993 14.8851 94.0422 15.6308C94.1033 15.6536 94.172 15.6612 94.2407 15.6612C94.5308 15.6612 94.798 15.471 94.8895 15.1819C94.9964 14.8243 94.7979 14.4438 94.4391 14.3373C91.943 13.5764 89.3701 12.9677 86.7975 12.5035C86.4311 12.4426 86.0723 12.6861 86.0112 13.0514C85.9502 13.4166 86.1946 13.7666 86.561 13.8351ZM71.1787 12.9829H71.2245C73.7666 12.8231 76.3697 12.8155 78.9195 12.9524C79.2859 12.9829 79.6142 12.6861 79.6294 12.3133C79.6523 11.9404 79.3623 11.6208 78.9882 11.6056C76.3851 11.4611 73.7285 11.4763 71.133 11.6361C70.7589 11.6589 70.4765 11.9785 70.4994 12.3513C70.5223 12.7089 70.8199 12.9829 71.1787 12.9829ZM114.448 26.1464C116.471 27.7063 118.418 29.4031 120.242 31.1911C120.372 31.3204 120.548 31.3889 120.716 31.3889C120.891 31.3889 121.067 31.3204 121.197 31.1911C121.464 30.9248 121.456 30.4911 121.189 30.24C119.326 28.4138 117.341 26.679 115.273 25.0887C114.975 24.8605 114.548 24.9137 114.319 25.2105C114.097 25.492 114.151 25.9181 114.448 26.1464ZM53.3244 107.563C53.3244 104.9 55.5001 102.731 58.172 102.731C60.8439 102.731 63.0196 104.9 63.0196 107.563C63.0196 110.226 60.8439 112.395 58.172 112.395C55.5001 112.395 53.3244 110.226 53.3244 107.563ZM54.6833 107.563C54.6833 109.48 56.2482 111.04 58.1721 111.04C60.0959 111.04 61.6684 109.48 61.6684 107.563C61.6684 105.645 60.1035 104.086 58.1721 104.086C56.2483 104.086 54.6833 105.645 54.6833 107.563ZM37.0491 107.563C37.0491 104.9 39.2248 102.731 41.8966 102.731C44.5685 102.731 46.7442 104.9 46.7442 107.563C46.7442 110.226 44.5685 112.395 41.8966 112.395C39.2248 112.395 37.0491 110.226 37.0491 107.563ZM41.8966 104.086C39.9729 104.086 38.4002 105.645 38.4002 107.563C38.4002 109.48 39.9652 111.04 41.8966 111.04C43.8204 111.04 45.3854 109.48 45.3854 107.563C45.3854 105.645 43.8205 104.086 41.8966 104.086ZM94.5859 118.352V136.097C94.5859 138.28 92.2423 140 89.2574 140H68.6378C65.6454 140 63.3093 138.288 63.3093 136.097V131.098L59.561 126.38H34.4993C31.0793 126.38 28.2929 123.603 28.2929 120.194V117.325H26.6669C23.3003 117.325 20.5674 114.593 20.5674 111.245C20.5674 107.89 23.3079 105.158 26.6669 105.158H28.2929V100.418C28.2929 98.0819 29.606 96.0426 31.5296 94.9849C32.4151 94.5056 33.4228 94.2316 34.4915 94.2316H37.0489V88.0379C34.6977 87.7031 32.8808 85.6944 32.8808 83.2595C32.8808 80.5963 35.0565 78.4277 37.7284 78.4277C40.4003 78.4277 42.5759 80.5963 42.5759 83.2595C42.5759 85.6944 40.7591 87.7108 38.4079 88.0379V94.2316H60.2645V88.0379C57.9133 87.7031 56.0964 85.6944 56.0964 83.2595C56.0964 80.5963 58.2721 78.4277 60.944 78.4277C63.6159 78.4277 65.7916 80.5963 65.7916 83.2595C65.7916 85.6944 63.9747 87.7108 61.6235 88.0379L61.6311 94.2316H65.6313C69.0513 94.2316 71.8377 97.009 71.8377 100.418V105.151H73.3951C76.7617 105.151 79.4946 107.882 79.4946 111.238C79.4946 112.105 79.3113 112.927 78.9831 113.673H89.2583C92.2126 113.665 94.5859 116.23 94.5859 118.352ZM93.2347 136.089V118.345C93.2347 117.036 91.5323 115.02 89.2573 115.02H68.6378C66.3704 115.02 64.6604 117.044 64.6604 118.345V119.349C64.6604 119.722 64.3551 120.026 63.981 120.026H56.2555L64.5155 130.42C64.6071 130.542 64.6605 130.686 64.6605 130.839V136.081C64.6605 137.466 66.485 138.63 68.6379 138.63H89.2575C91.4103 138.638 93.2347 137.474 93.2347 136.089ZM34.4911 125.01H58.4759L54.3155 119.775C54.1552 119.57 54.1246 119.296 54.2391 119.06C54.3536 118.824 54.5903 118.68 54.8498 118.68H63.3005V118.345C63.3005 116.23 65.6824 113.665 68.629 113.665H70.4535L70.4612 100.418C70.4612 97.7549 68.2855 95.5863 65.6136 95.5863H34.482C31.8101 95.5863 29.6344 97.7549 29.6344 100.418V110.081C29.9016 112.752 31.0161 114.875 32.9551 116.382C38.0927 120.354 47.2153 119.083 48.9862 118.794C49.3603 118.733 49.7038 118.976 49.7649 119.349C49.8259 119.722 49.574 120.065 49.2076 120.125C48.4213 120.255 46.2838 120.567 43.65 120.567C39.9858 120.567 35.3672 119.966 32.1153 117.447C31.0771 116.64 30.2526 115.682 29.6267 114.586V120.178C29.642 122.849 31.8192 125.01 34.4911 125.01ZM26.6664 115.963H28.2924V110.158C28.2847 110.112 28.2771 110.059 28.2695 110.013C28.2618 109.937 28.2771 109.868 28.2924 109.8V106.498H26.6664C24.048 106.498 21.918 108.62 21.918 111.23C21.918 113.84 24.0478 115.963 26.6664 115.963ZM73.3775 106.498H71.8202V113.665H77.4387C77.8662 112.958 78.1257 112.121 78.1257 111.23C78.1257 108.621 75.996 106.498 73.3775 106.498ZM60.9418 79.7743C59.0181 79.7743 57.4454 81.3342 57.4454 83.2517C57.4454 85.1693 59.0104 86.7291 60.9418 86.7291C62.8656 86.7291 64.4306 85.1693 64.4306 83.2517C64.4306 81.3342 62.8657 79.7743 60.9418 79.7743ZM34.2308 83.2517C34.2308 85.1692 35.7957 86.7291 37.7195 86.7291C39.6433 86.7291 41.2159 85.1693 41.2159 83.2517C41.2159 81.3342 39.651 79.7743 37.7195 79.7743C35.8034 79.7743 34.2308 81.3342 34.2308 83.2517ZM86.324 122.325H71.1783C70.8043 122.325 70.4989 122.629 70.4989 123.002C70.4989 123.375 70.8043 123.679 71.1783 123.679H86.324C86.698 123.679 87.0034 123.375 87.0034 123.002C87.0034 122.629 86.6904 122.325 86.324 122.325ZM86.324 129.964H71.1783C70.8043 129.964 70.4989 130.269 70.4989 130.641C70.4989 131.014 70.8043 131.319 71.1783 131.319H86.324C86.698 131.319 87.0034 131.014 87.0034 130.641C87.0034 130.269 86.6904 129.964 86.324 129.964ZM30.3379 69.7156C29.6661 69.7156 29.0096 69.6243 28.376 69.4721C24.7881 68.5894 22.1086 65.3632 22.1086 61.5207V59.6337C20.0398 59.3065 18.4519 57.5185 18.4519 55.3651C18.4519 52.9758 20.3986 51.0431 22.7881 51.0431C25.1852 51.0431 27.1242 52.9833 27.1242 55.3651C27.1242 56.826 26.3914 58.1196 25.2692 58.9032C24.7425 59.2761 24.1241 59.5272 23.46 59.6261V61.5131C23.46 65.2872 26.544 68.3612 30.3304 68.3612C34.1168 68.3612 37.2009 65.2872 37.2009 61.5131V61.4675C34.9413 61.2848 32.9411 60.2196 31.529 58.6218C31.4985 58.5913 31.4679 58.5609 31.4374 58.5228C30.1854 57.0543 29.4221 55.152 29.4221 53.0748V45.3211C29.4221 44.9483 29.7275 44.6439 30.1016 44.6439H32.8497C33.2237 44.6439 33.5291 44.9483 33.5291 45.3211C33.5291 45.694 33.2237 45.9983 32.8497 45.9983H30.7809V53.0747C30.7809 56.9781 33.9642 60.151 37.8804 60.151C41.7965 60.151 44.9799 56.9781 44.9799 53.0747V45.9983H42.9111C42.537 45.9983 42.2316 45.694 42.2316 45.3211C42.2316 44.9483 42.537 44.6439 42.9111 44.6439H45.6592C46.0332 44.6439 46.3386 44.9483 46.3386 45.3211V46.5081C46.6439 46.4853 46.9493 46.4777 47.2623 46.4777H48.6364L48.644 41.0068C48.3387 40.771 48.0409 40.5122 47.7585 40.2307L46.5218 39.0209L45.4989 38.0241C43.9873 36.5403 43.1553 34.5773 43.1553 32.4847V22.0754C43.1553 15.6458 48.8196 10 55.2702 10C61.95 10 67.3852 15.4175 67.3852 22.0754V32.4237C67.3852 34.5161 66.5531 36.4868 65.0416 37.9631L62.7133 40.2459C62.4461 40.5046 62.1789 40.7405 61.8888 40.9687V46.4852H63.2629C71.5838 46.4852 78.3476 54.1475 78.3476 63.5749C78.3476 66.4664 75.9964 68.8099 73.0955 68.8099H34.0783C32.9638 69.3806 31.689 69.7156 30.3379 69.7156ZM35.9945 67.448H73.1023C75.2551 67.448 76.9956 65.7055 76.9956 63.5674C76.9956 54.8932 70.8352 47.832 63.27 47.832H61.5829L57.4758 54.1323C56.9872 54.8856 56.1627 55.3269 55.2696 55.3269C54.3764 55.3269 53.5519 54.878 53.0634 54.1323L48.9563 47.832H47.2692C46.9638 47.832 46.6509 47.8473 46.3455 47.8701V53.0823C46.3455 57.4955 42.9179 61.125 38.5665 61.475V61.5207C38.5665 63.849 37.5747 65.9565 35.9945 67.448ZM44.514 26.4135H44.7506C45.7736 26.4135 46.8194 24.6862 46.8194 23.446V22.0764C46.8194 20.6992 47.9416 19.5808 49.3232 19.5808H61.2092C62.5909 19.5808 63.713 20.6993 63.713 22.0764V23.446C63.713 24.6863 64.7512 26.4135 65.7818 26.4135H66.0184V22.0763C66.0184 16.164 61.1937 11.3552 55.2623 11.3552C49.6285 11.3552 44.4985 16.4609 44.4985 22.0763L44.514 26.4135ZM44.514 32.4855C44.514 34.2127 45.201 35.8335 46.4454 37.0586L48.7049 39.2652C52.3082 42.7881 58.1632 42.7881 61.7665 39.2652L64.0948 36.9824C65.3468 35.7574 66.0262 34.1367 66.0262 32.4093V27.7603H65.7896C63.736 27.7603 62.3619 25.158 62.3619 23.4382V22.0686C62.3619 21.4371 61.8428 20.9197 61.2092 20.9197H49.3157C48.6821 20.9197 48.163 21.4371 48.163 22.0686V23.4382C48.163 25.1579 46.7965 27.7603 44.7354 27.7603H44.4987L44.514 32.4855ZM49.9951 41.9053V46.9578L54.1937 53.3875C54.4304 53.7603 54.8273 53.9657 55.2625 53.9657C55.7052 53.9657 56.0946 53.7527 56.3312 53.3875L60.5298 46.9578V41.8674C58.8961 42.7957 57.0641 43.2674 55.2319 43.2674C53.4227 43.2674 51.6135 42.8032 49.9951 41.9053ZM19.8113 55.358C19.8113 56.9939 21.1473 58.3254 22.7885 58.3254C24.4298 58.3254 25.7656 56.9938 25.7656 55.358C25.7656 53.722 24.4297 52.3905 22.7885 52.3905C21.1472 52.3829 19.8113 53.7221 19.8113 55.358ZM102.516 68.9705C102.081 67.852 102.035 66.6042 102.387 65.4475C102.623 64.6638 103.051 63.9409 103.616 63.3551C103.791 63.1725 103.974 63.0051 104.181 62.8529C105.036 62.1985 106.097 61.8333 107.181 61.8333C107.211 61.8257 107.234 61.8257 107.265 61.8257C107.295 61.8257 107.333 61.8333 107.364 61.8333C107.471 61.8409 107.555 61.8409 107.639 61.8561C107.707 61.8637 107.776 61.8713 107.845 61.8789C107.929 61.8865 108.013 61.9017 108.097 61.917C108.165 61.9322 108.234 61.9474 108.295 61.9626C108.379 61.9854 108.463 62.0083 108.547 62.0311C108.608 62.0539 108.677 62.0691 108.746 62.092C108.83 62.1224 108.914 62.1528 108.998 62.1833C109.074 62.2137 109.127 62.2365 109.181 62.2594C109.265 62.2974 109.349 62.3355 109.433 62.3811L109.479 62.4039C109.524 62.4268 109.57 62.4496 109.608 62.4724C109.7 62.5181 109.776 62.5713 109.86 62.6246C109.937 62.6703 109.975 62.7007 110.013 62.7235C110.105 62.7844 110.196 62.8529 110.28 62.9214C110.341 62.967 110.372 62.9898 110.402 63.0127C110.532 63.1192 110.647 63.2333 110.761 63.3551L110.975 63.5757L111.166 63.3779C111.303 63.2333 111.425 63.1192 111.555 63.0203C111.585 62.9975 111.616 62.9746 111.647 62.9442C111.761 62.8529 111.845 62.7844 111.937 62.7235C111.975 62.7007 112.013 62.6779 112.051 62.6474L112.089 62.6246C112.181 62.5637 112.257 62.5181 112.341 62.4724C112.387 62.4496 112.433 62.4268 112.479 62.3963C112.593 62.3355 112.677 62.2974 112.761 62.2518C112.815 62.2289 112.868 62.2061 112.921 62.1909C113.028 62.1452 113.112 62.1148 113.196 62.092C113.257 62.0692 113.326 62.0539 113.395 62.0311C113.479 62.0083 113.563 61.9855 113.647 61.9626C113.708 61.9474 113.776 61.9322 113.845 61.9246C113.937 61.9094 114.013 61.8941 114.105 61.8865C114.173 61.8789 114.242 61.8637 114.303 61.8637C114.387 61.8561 114.471 61.8485 114.555 61.8485C114.616 61.8409 114.654 61.8409 114.692 61.8409C114.715 61.8409 114.738 61.8409 114.769 61.8485C115.845 61.8485 116.914 62.2137 117.761 62.8681C117.96 63.0203 118.151 63.1877 118.326 63.3703C118.891 63.9562 119.311 64.679 119.555 65.4627C119.906 66.6117 119.861 67.8672 119.425 68.9857C119.173 69.6249 118.807 70.2108 118.334 70.7053L113.341 75.9403C113.028 76.2751 112.654 76.5262 112.234 76.7088C111.83 76.8762 111.402 76.9675 110.967 76.9675C110.059 76.9675 109.211 76.6023 108.585 75.9479L103.608 70.6901C103.134 70.188 102.768 69.6172 102.516 68.9705ZM104.593 64.2986C104.173 64.74 103.868 65.2498 103.692 65.8509C103.425 66.7107 103.463 67.6542 103.791 68.4837C103.974 68.963 104.249 69.3891 104.6 69.7544L109.578 75.0121C110.12 75.5904 110.99 75.7654 111.715 75.4611C111.96 75.3622 112.181 75.21 112.357 75.0121L117.334 69.7544C117.693 69.3815 117.96 68.963 118.143 68.4837C118.471 67.6467 118.502 66.7108 118.242 65.8509C118.059 65.265 117.761 64.74 117.342 64.2986C117.212 64.1693 117.074 64.0399 116.929 63.9334C116.296 63.4464 115.494 63.1801 114.7 63.1953H114.654L114.609 63.2029C114.548 63.2105 114.486 63.2105 114.425 63.2105C114.38 63.2181 114.326 63.2181 114.28 63.2334C114.219 63.241 114.151 63.2562 114.097 63.2638C114.051 63.2714 114.006 63.2866 113.952 63.2942C113.891 63.3095 113.83 63.3247 113.769 63.3399C113.723 63.3551 113.67 63.3703 113.624 63.3855C113.563 63.4084 113.509 63.4312 113.441 63.454C113.38 63.4769 113.341 63.4921 113.311 63.5073C113.25 63.5377 113.189 63.5682 113.128 63.5986L113.082 63.6214L112.998 63.6671C112.937 63.6975 112.883 63.7356 112.83 63.7736L112.708 63.8497C112.639 63.8953 112.578 63.9486 112.517 63.9943L112.463 64.0399C112.334 64.1388 112.25 64.2225 112.166 64.3138L111.463 65.0443C111.212 65.3106 110.738 65.3106 110.486 65.0443L109.807 64.3367C109.7 64.2225 109.608 64.1388 109.517 64.0627L109.425 63.9943C109.364 63.941 109.295 63.8953 109.234 63.8497L109.12 63.7812C109.059 63.7432 108.998 63.7051 108.937 63.6671L108.807 63.6062C108.746 63.5758 108.692 63.5453 108.624 63.5149C108.593 63.4997 108.555 63.4845 108.524 63.4692C108.433 63.4388 108.379 63.4084 108.311 63.3932C108.265 63.3779 108.219 63.3627 108.173 63.3475C108.112 63.3247 108.051 63.3171 107.99 63.3018C107.944 63.2942 107.891 63.279 107.845 63.2714C107.784 63.2638 107.723 63.2486 107.662 63.241C107.616 63.2334 107.563 63.2258 107.517 63.2182C107.456 63.2105 107.395 63.2105 107.334 63.2105L107.288 63.2029H107.242H107.188C106.395 63.2029 105.646 63.454 105.013 63.941C104.86 64.0399 104.715 64.1693 104.593 64.2986ZM106.73 70.1196L109.097 70.15H109.104C109.372 70.15 109.624 69.9902 109.73 69.7391L109.952 69.2293L110.791 71.611C110.883 71.8621 111.112 72.0371 111.372 72.0599C111.395 72.0599 111.41 72.0675 111.433 72.0675C111.677 72.0675 111.906 71.9382 112.021 71.7251L112.891 70.1653H114.555C114.929 70.1653 115.234 69.8609 115.234 69.4881C115.234 69.1152 114.929 68.8109 114.555 68.8109H112.501C112.257 68.8109 112.028 68.9402 111.914 69.1533L111.578 69.7544L110.662 67.1598C110.57 66.8935 110.326 66.7185 110.043 66.7032C109.753 66.6956 109.509 66.8554 109.402 67.1141L108.677 68.8033L106.761 68.7805H106.753C106.379 68.7805 106.081 69.0773 106.074 69.4501C106.058 69.8077 106.356 70.1196 106.73 70.1196ZM109.792 48.4102C109.792 47.771 110.318 47.2384 110.967 47.2384C111.608 47.2384 112.143 47.7634 112.143 48.4102C112.143 49.0493 111.616 49.5819 110.967 49.5819C110.311 49.5743 109.792 49.0493 109.792 48.4102ZM110.776 48.4102C110.776 48.5091 110.86 48.5928 110.96 48.5928C111.059 48.5928 111.143 48.5091 111.143 48.4102C111.143 48.3113 111.059 48.2276 110.96 48.2276C110.86 48.2199 110.776 48.3036 110.776 48.4102ZM104.593 79.8591L101.532 82.9103L100.096 81.4798C99.8292 81.2135 99.4017 81.2135 99.1422 81.4798C98.875 81.7461 98.875 82.1722 99.1422 82.4309L101.051 84.3331C101.18 84.4625 101.356 84.531 101.532 84.531C101.7 84.531 101.875 84.4625 102.013 84.3331L105.555 80.8026C105.822 80.5362 105.822 80.1101 105.555 79.8514C105.287 79.6003 104.86 79.6004 104.593 79.8591ZM104.593 87.4452L101.532 90.4964L100.096 89.0659C99.8292 88.7996 99.4017 88.7996 99.1422 89.0659C98.875 89.3322 98.875 89.7583 99.1422 90.017L101.051 91.9192C101.18 92.0486 101.356 92.1171 101.532 92.1171C101.7 92.1171 101.875 92.0486 102.013 91.9192L105.555 88.3887C105.822 88.1224 105.822 87.6962 105.555 87.4375C105.287 87.1864 104.86 87.1865 104.593 87.4452ZM121.326 82.3015H108.318C107.944 82.3015 107.639 82.6059 107.639 82.9788C107.639 83.3516 107.944 83.656 108.318 83.656H121.326C121.7 83.656 122.006 83.3516 122.006 82.9788C122.006 82.6059 121.693 82.3015 121.326 82.3015ZM113.402 90.1236C113.402 89.7507 113.097 89.4463 112.723 89.4463L108.31 89.454C107.936 89.454 107.631 89.7583 107.631 90.1312C107.631 90.504 107.936 90.8084 108.31 90.8084H112.73C113.105 90.8008 113.402 90.504 113.402 90.1236ZM138.19 105.844C139.366 107.061 139.244 109.093 137.938 110.379C137.267 111.041 136.373 111.421 135.488 111.421C134.686 111.421 133.946 111.117 133.419 110.561L130.03 107.305C128.358 108.172 126.51 108.636 124.602 108.636C124.365 108.636 124.136 108.629 123.9 108.613C120.976 108.446 118.274 107.221 116.212 105.159H92.7082C90.9754 105.159 89.563 103.751 89.563 102.024V52.3446C89.563 50.6173 90.9753 49.2096 92.7082 49.2096H100.044C100.334 48.3574 101.136 47.7335 102.083 47.7335H105.388C105.64 45.6562 107.037 43.929 108.93 43.1986C109.564 42.9551 110.243 42.8181 110.961 42.8181C113.824 42.8181 116.198 44.9715 116.534 47.7335H119.839C120.794 47.7335 121.595 48.3574 121.878 49.2096H129.221C130.954 49.2096 132.367 50.6173 132.367 52.3446V87.3309C132.779 87.6885 133.176 88.0842 133.542 88.5026C135.657 90.9147 136.718 94.0191 136.527 97.2378C136.412 99.1781 135.848 101.027 134.901 102.655L138.19 105.844ZM136.984 109.42C137.763 108.644 137.877 107.464 137.228 106.795L134.152 103.812C133.679 104.444 133.144 105.037 132.541 105.577C132.129 105.95 131.686 106.285 131.228 106.589L134.381 109.61C135.038 110.287 136.228 110.166 136.984 109.42ZM131.633 104.565C133.755 102.655 135.007 100.03 135.182 97.1617C135.35 94.293 134.411 91.5387 132.526 89.3929C130.648 87.2547 128.06 85.9841 125.243 85.8167C125.037 85.8091 124.831 85.7939 124.625 85.7939C119.059 85.7939 114.372 90.2147 114.036 95.9214C113.868 98.7901 114.807 101.544 116.693 103.69C118.571 105.828 121.159 107.099 123.976 107.266C126.8 107.434 129.51 106.468 131.633 104.565ZM90.9134 102.024C90.9134 103.005 91.715 103.804 92.6998 103.804H115.037C113.946 102.336 113.205 100.647 112.869 98.8661H95.6622C95.2882 98.8661 94.9828 98.5617 94.9828 98.1888V55.7908C94.9828 55.1516 95.5096 54.619 96.1584 54.619H99.922V50.5635H92.708C91.7232 50.5635 90.9216 51.3624 90.9216 52.344L90.9134 102.024ZM101.273 49.8863V56.7725C101.273 57.2138 101.631 57.5715 102.074 57.5715L119.838 57.5639C120.281 57.5639 120.64 57.2062 120.64 56.7649V49.8787C120.64 49.4374 120.281 49.0797 119.838 49.0797H115.892C115.517 49.0797 115.212 48.7754 115.212 48.4025C115.212 46.0666 113.304 44.1643 110.96 44.1643C108.616 44.1643 106.708 46.0665 106.708 48.4025C106.708 48.7754 106.403 49.0797 106.028 49.0797H102.082C101.639 49.0873 101.273 49.445 101.273 49.8863ZM122.006 50.5559V54.6114H125.769C126.41 54.6114 126.945 55.1364 126.945 55.7832V84.6667C128.403 84.9559 129.777 85.5113 131.014 86.3103V52.3369C131.014 51.3553 130.212 50.5564 129.227 50.5564L122.006 50.5559ZM112.677 95.8446C113.066 89.1867 118.723 84.0811 125.319 84.4693C125.41 84.4769 125.494 84.4845 125.586 84.4921V55.9728H122.013V56.7718C122.013 57.9588 121.044 58.9252 119.853 58.9252H102.089C100.898 58.9252 99.9286 57.9589 99.9286 56.7718V55.9728H96.3407V97.5099H112.693C112.654 96.9545 112.647 96.4001 112.677 95.8446Z" fill="#663366"/>
<path d="M13.1762 59.4047C13.1151 59.4047 13.0464 59.3971 12.9853 59.3743C12.6265 59.2754 12.4204 58.8949 12.5197 58.5373C13.2602 55.9807 14.1686 53.4392 15.2297 50.9892C15.3747 50.6468 15.7793 50.487 16.1228 50.6316C16.4663 50.7761 16.6267 51.1794 16.4816 51.5142C15.451 53.9187 14.5579 56.3991 13.8326 58.9102C13.741 59.2145 13.4663 59.4047 13.1762 59.4047ZM10.68 75.0411C11.0388 75.0411 11.3441 74.752 11.3594 74.3867C11.451 71.7692 11.7029 69.1442 12.1152 66.5723C12.1762 66.1995 11.9167 65.8571 11.5503 65.7962C11.1762 65.7354 10.8327 65.9941 10.7716 66.3593C10.3517 68.9845 10.0922 71.6704 10.0006 74.3336C9.98531 74.7065 10.2754 75.0184 10.6571 75.0336C10.6647 75.0413 10.6723 75.0411 10.68 75.0411ZM14.8328 97.5569C14.7107 97.1993 14.3213 97.0167 13.9702 97.1385C13.619 97.2602 13.4282 97.6483 13.5503 97.9983C14.4282 100.517 15.4664 103.005 16.6496 105.394C16.7641 105.63 17.0084 105.775 17.2603 105.775C17.3596 105.775 17.4664 105.752 17.558 105.706C17.8939 105.539 18.0313 105.136 17.8634 104.801C16.7107 102.465 15.6878 100.022 14.8328 97.5569ZM11.5578 82.24C11.5273 81.8672 11.1914 81.5932 10.825 81.6237C10.4509 81.6541 10.1761 81.9813 10.2066 82.3541C10.4357 85.0097 10.8403 87.6805 11.3975 90.2827C11.4662 90.6022 11.7487 90.8153 12.0617 90.8153C12.1075 90.8153 12.1533 90.8077 12.2067 90.8001C12.5731 90.724 12.8098 90.3588 12.7258 89.9935C12.1762 87.4521 11.7869 84.8424 11.5578 82.24ZM29.0699 32.2646C29.2455 32.2646 29.4211 32.1961 29.5508 32.0591C31.383 30.1949 33.3449 28.422 35.3908 26.7938C35.6809 26.5579 35.7343 26.1394 35.4977 25.8426C35.261 25.5535 34.8412 25.5002 34.5435 25.7361C32.4594 27.3949 30.4516 29.2057 28.5813 31.1156C28.3142 31.382 28.3218 31.8157 28.589 32.0668C28.7264 32.2037 28.8943 32.2646 29.0699 32.2646ZM19.0924 44.7586C19.1992 44.8195 19.3137 44.8499 19.4359 44.8499C19.6725 44.8499 19.8939 44.7282 20.0237 44.5151C21.3444 42.263 22.8177 40.0716 24.4056 37.9941C24.6346 37.6974 24.5735 37.2713 24.2758 37.043C23.9781 36.8147 23.5506 36.8756 23.3216 37.1724C21.7032 39.2876 20.1916 41.5324 18.848 43.8303C18.6572 44.1651 18.7717 44.576 19.0924 44.7586ZM128.647 113.194C128.342 112.981 127.922 113.05 127.701 113.362C126.357 115.264 124.891 117.113 123.349 118.863C123.097 119.145 123.128 119.571 123.41 119.814C123.54 119.928 123.7 119.982 123.861 119.982C124.051 119.982 124.235 119.905 124.372 119.753C125.952 117.973 127.449 116.078 128.815 114.145C129.029 113.833 128.953 113.407 128.647 113.194ZM107.082 132.072C105.051 133.229 102.944 134.286 100.807 135.207C100.463 135.359 100.303 135.755 100.456 136.097C100.57 136.349 100.814 136.508 101.082 136.508C101.173 136.508 101.265 136.486 101.349 136.447C103.532 135.504 105.693 134.423 107.761 133.244C108.089 133.062 108.204 132.643 108.013 132.316C107.815 132.004 107.402 131.89 107.082 132.072ZM118.418 123.847C116.685 125.414 114.853 126.906 112.975 128.275C112.67 128.496 112.601 128.914 112.822 129.219C112.952 129.401 113.166 129.493 113.372 129.493C113.509 129.493 113.647 129.447 113.769 129.363C115.693 127.963 117.563 126.449 119.327 124.844C119.601 124.592 119.624 124.166 119.372 123.892C119.128 123.619 118.693 123.596 118.418 123.847ZM101.257 18.3016C103.593 19.3364 105.891 20.5234 108.09 21.8246C108.196 21.8855 108.319 21.9235 108.433 21.9235C108.662 21.9235 108.891 21.8094 109.013 21.5887C109.204 21.2691 109.105 20.8506 108.777 20.6604C106.532 19.3289 104.181 18.1114 101.799 17.0537C101.456 16.9015 101.059 17.0537 100.906 17.3961C100.761 17.7537 100.914 18.1495 101.257 18.3016ZM129.823 43.1686C129.953 43.3816 130.174 43.4881 130.403 43.4881C130.525 43.4881 130.647 43.4577 130.762 43.3892C131.082 43.1914 131.182 42.7729 130.983 42.4609C129.609 40.2467 128.09 38.0933 126.456 36.0541C126.22 35.7649 125.8 35.7117 125.502 35.9475C125.212 36.1834 125.159 36.6019 125.395 36.8987C126.991 38.8922 128.479 41 129.823 43.1686ZM86.561 13.8351C89.0803 14.2764 91.5993 14.8851 94.0422 15.6308C94.1033 15.6536 94.172 15.6612 94.2407 15.6612C94.5308 15.6612 94.798 15.471 94.8895 15.1819C94.9964 14.8243 94.7979 14.4438 94.4391 14.3373C91.943 13.5764 89.3701 12.9677 86.7975 12.5035C86.4311 12.4426 86.0723 12.6861 86.0112 13.0514C85.9502 13.4166 86.1946 13.7666 86.561 13.8351ZM71.1787 12.9829H71.2245C73.7666 12.8231 76.3697 12.8155 78.9195 12.9524C79.2859 12.9829 79.6142 12.6861 79.6294 12.3133C79.6523 11.9404 79.3623 11.6208 78.9882 11.6056C76.3851 11.4611 73.7285 11.4763 71.133 11.6361C70.7589 11.6589 70.4765 11.9785 70.4994 12.3513C70.5223 12.7089 70.8199 12.9829 71.1787 12.9829ZM114.448 26.1464C116.471 27.7063 118.418 29.4031 120.242 31.1911C120.372 31.3204 120.548 31.3889 120.716 31.3889C120.891 31.3889 121.067 31.3204 121.197 31.1911C121.464 30.9248 121.456 30.4911 121.189 30.24C119.326 28.4138 117.341 26.679 115.273 25.0887C114.975 24.8605 114.548 24.9137 114.319 25.2105C114.097 25.492 114.151 25.9181 114.448 26.1464ZM53.3244 107.563C53.3244 104.9 55.5001 102.731 58.172 102.731C60.8439 102.731 63.0196 104.9 63.0196 107.563C63.0196 110.226 60.8439 112.395 58.172 112.395C55.5001 112.395 53.3244 110.226 53.3244 107.563ZM54.6833 107.563C54.6833 109.48 56.2482 111.04 58.1721 111.04C60.0959 111.04 61.6684 109.48 61.6684 107.563C61.6684 105.645 60.1035 104.086 58.1721 104.086C56.2483 104.086 54.6833 105.645 54.6833 107.563ZM37.0491 107.563C37.0491 104.9 39.2248 102.731 41.8966 102.731C44.5685 102.731 46.7442 104.9 46.7442 107.563C46.7442 110.226 44.5685 112.395 41.8966 112.395C39.2248 112.395 37.0491 110.226 37.0491 107.563ZM41.8966 104.086C39.9729 104.086 38.4002 105.645 38.4002 107.563C38.4002 109.48 39.9652 111.04 41.8966 111.04C43.8204 111.04 45.3854 109.48 45.3854 107.563C45.3854 105.645 43.8205 104.086 41.8966 104.086ZM94.5859 118.352V136.097C94.5859 138.28 92.2423 140 89.2574 140H68.6378C65.6454 140 63.3093 138.288 63.3093 136.097V131.098L59.561 126.38H34.4993C31.0793 126.38 28.2929 123.603 28.2929 120.194V117.325H26.6669C23.3003 117.325 20.5674 114.593 20.5674 111.245C20.5674 107.89 23.3079 105.158 26.6669 105.158H28.2929V100.418C28.2929 98.0819 29.606 96.0426 31.5296 94.9849C32.4151 94.5056 33.4228 94.2316 34.4915 94.2316H37.0489V88.0379C34.6977 87.7031 32.8808 85.6944 32.8808 83.2595C32.8808 80.5963 35.0565 78.4277 37.7284 78.4277C40.4003 78.4277 42.5759 80.5963 42.5759 83.2595C42.5759 85.6944 40.7591 87.7108 38.4079 88.0379V94.2316H60.2645V88.0379C57.9133 87.7031 56.0964 85.6944 56.0964 83.2595C56.0964 80.5963 58.2721 78.4277 60.944 78.4277C63.6159 78.4277 65.7916 80.5963 65.7916 83.2595C65.7916 85.6944 63.9747 87.7108 61.6235 88.0379L61.6311 94.2316H65.6313C69.0513 94.2316 71.8377 97.009 71.8377 100.418V105.151H73.3951C76.7617 105.151 79.4946 107.882 79.4946 111.238C79.4946 112.105 79.3113 112.927 78.9831 113.673H89.2583C92.2126 113.665 94.5859 116.23 94.5859 118.352ZM93.2347 136.089V118.345C93.2347 117.036 91.5323 115.02 89.2573 115.02H68.6378C66.3704 115.02 64.6604 117.044 64.6604 118.345V119.349C64.6604 119.722 64.3551 120.026 63.981 120.026H56.2555L64.5155 130.42C64.6071 130.542 64.6605 130.686 64.6605 130.839V136.081C64.6605 137.466 66.485 138.63 68.6379 138.63H89.2575C91.4103 138.638 93.2347 137.474 93.2347 136.089ZM34.4911 125.01H58.4759L54.3155 119.775C54.1552 119.57 54.1246 119.296 54.2391 119.06C54.3536 118.824 54.5903 118.68 54.8498 118.68H63.3005V118.345C63.3005 116.23 65.6824 113.665 68.629 113.665H70.4535L70.4612 100.418C70.4612 97.7549 68.2855 95.5863 65.6136 95.5863H34.482C31.8101 95.5863 29.6344 97.7549 29.6344 100.418V110.081C29.9016 112.752 31.0161 114.875 32.9551 116.382C38.0927 120.354 47.2153 119.083 48.9862 118.794C49.3603 118.733 49.7038 118.976 49.7649 119.349C49.8259 119.722 49.574 120.065 49.2076 120.125C48.4213 120.255 46.2838 120.567 43.65 120.567C39.9858 120.567 35.3672 119.966 32.1153 117.447C31.0771 116.64 30.2526 115.682 29.6267 114.586V120.178C29.642 122.849 31.8192 125.01 34.4911 125.01ZM26.6664 115.963H28.2924V110.158C28.2847 110.112 28.2771 110.059 28.2695 110.013C28.2618 109.937 28.2771 109.868 28.2924 109.8V106.498H26.6664C24.048 106.498 21.918 108.62 21.918 111.23C21.918 113.84 24.0478 115.963 26.6664 115.963ZM73.3775 106.498H71.8202V113.665H77.4387C77.8662 112.958 78.1257 112.121 78.1257 111.23C78.1257 108.621 75.996 106.498 73.3775 106.498ZM60.9418 79.7743C59.0181 79.7743 57.4454 81.3342 57.4454 83.2517C57.4454 85.1693 59.0104 86.7291 60.9418 86.7291C62.8656 86.7291 64.4306 85.1693 64.4306 83.2517C64.4306 81.3342 62.8657 79.7743 60.9418 79.7743ZM34.2308 83.2517C34.2308 85.1692 35.7957 86.7291 37.7195 86.7291C39.6433 86.7291 41.2159 85.1693 41.2159 83.2517C41.2159 81.3342 39.651 79.7743 37.7195 79.7743C35.8034 79.7743 34.2308 81.3342 34.2308 83.2517ZM86.324 122.325H71.1783C70.8043 122.325 70.4989 122.629 70.4989 123.002C70.4989 123.375 70.8043 123.679 71.1783 123.679H86.324C86.698 123.679 87.0034 123.375 87.0034 123.002C87.0034 122.629 86.6904 122.325 86.324 122.325ZM86.324 129.964H71.1783C70.8043 129.964 70.4989 130.269 70.4989 130.641C70.4989 131.014 70.8043 131.319 71.1783 131.319H86.324C86.698 131.319 87.0034 131.014 87.0034 130.641C87.0034 130.269 86.6904 129.964 86.324 129.964ZM30.3379 69.7156C29.6661 69.7156 29.0096 69.6243 28.376 69.4721C24.7881 68.5894 22.1086 65.3632 22.1086 61.5207V59.6337C20.0398 59.3065 18.4519 57.5185 18.4519 55.3651C18.4519 52.9758 20.3986 51.0431 22.7881 51.0431C25.1852 51.0431 27.1242 52.9833 27.1242 55.3651C27.1242 56.826 26.3914 58.1196 25.2692 58.9032C24.7425 59.2761 24.1241 59.5272 23.46 59.6261V61.5131C23.46 65.2872 26.544 68.3612 30.3304 68.3612C34.1168 68.3612 37.2009 65.2872 37.2009 61.5131V61.4675C34.9413 61.2848 32.9411 60.2196 31.529 58.6218C31.4985 58.5913 31.4679 58.5609 31.4374 58.5228C30.1854 57.0543 29.4221 55.152 29.4221 53.0748V45.3211C29.4221 44.9483 29.7275 44.6439 30.1016 44.6439H32.8497C33.2237 44.6439 33.5291 44.9483 33.5291 45.3211C33.5291 45.694 33.2237 45.9983 32.8497 45.9983H30.7809V53.0747C30.7809 56.9781 33.9642 60.151 37.8804 60.151C41.7965 60.151 44.9799 56.9781 44.9799 53.0747V45.9983H42.9111C42.537 45.9983 42.2316 45.694 42.2316 45.3211C42.2316 44.9483 42.537 44.6439 42.9111 44.6439H45.6592C46.0332 44.6439 46.3386 44.9483 46.3386 45.3211V46.5081C46.6439 46.4853 46.9493 46.4777 47.2623 46.4777H48.6364L48.644 41.0068C48.3387 40.771 48.0409 40.5122 47.7585 40.2307L46.5218 39.0209L45.4989 38.0241C43.9873 36.5403 43.1553 34.5773 43.1553 32.4847V22.0754C43.1553 15.6458 48.8196 10 55.2702 10C61.95 10 67.3852 15.4175 67.3852 22.0754V32.4237C67.3852 34.5161 66.5531 36.4868 65.0416 37.9631L62.7133 40.2459C62.4461 40.5046 62.1789 40.7405 61.8888 40.9687V46.4852H63.2629C71.5838 46.4852 78.3476 54.1475 78.3476 63.5749C78.3476 66.4664 75.9964 68.8099 73.0955 68.8099H34.0783C32.9638 69.3806 31.689 69.7156 30.3379 69.7156ZM35.9945 67.448H73.1023C75.2551 67.448 76.9956 65.7055 76.9956 63.5674C76.9956 54.8932 70.8352 47.832 63.27 47.832H61.5829L57.4758 54.1323C56.9872 54.8856 56.1627 55.3269 55.2696 55.3269C54.3764 55.3269 53.5519 54.878 53.0634 54.1323L48.9563 47.832H47.2692C46.9638 47.832 46.6509 47.8473 46.3455 47.8701V53.0823C46.3455 57.4955 42.9179 61.125 38.5665 61.475V61.5207C38.5665 63.849 37.5747 65.9565 35.9945 67.448ZM44.514 26.4135H44.7506C45.7736 26.4135 46.8194 24.6862 46.8194 23.446V22.0764C46.8194 20.6992 47.9416 19.5808 49.3232 19.5808H61.2092C62.5909 19.5808 63.713 20.6993 63.713 22.0764V23.446C63.713 24.6863 64.7512 26.4135 65.7818 26.4135H66.0184V22.0763C66.0184 16.164 61.1937 11.3552 55.2623 11.3552C49.6285 11.3552 44.4985 16.4609 44.4985 22.0763L44.514 26.4135ZM44.514 32.4855C44.514 34.2127 45.201 35.8335 46.4454 37.0586L48.7049 39.2652C52.3082 42.7881 58.1632 42.7881 61.7665 39.2652L64.0948 36.9824C65.3468 35.7574 66.0262 34.1367 66.0262 32.4093V27.7603H65.7896C63.736 27.7603 62.3619 25.158 62.3619 23.4382V22.0686C62.3619 21.4371 61.8428 20.9197 61.2092 20.9197H49.3157C48.6821 20.9197 48.163 21.4371 48.163 22.0686V23.4382C48.163 25.1579 46.7965 27.7603 44.7354 27.7603H44.4987L44.514 32.4855ZM49.9951 41.9053V46.9578L54.1937 53.3875C54.4304 53.7603 54.8273 53.9657 55.2625 53.9657C55.7052 53.9657 56.0946 53.7527 56.3312 53.3875L60.5298 46.9578V41.8674C58.8961 42.7957 57.0641 43.2674 55.2319 43.2674C53.4227 43.2674 51.6135 42.8032 49.9951 41.9053ZM19.8113 55.358C19.8113 56.9939 21.1473 58.3254 22.7885 58.3254C24.4298 58.3254 25.7656 56.9938 25.7656 55.358C25.7656 53.722 24.4297 52.3905 22.7885 52.3905C21.1472 52.3829 19.8113 53.7221 19.8113 55.358ZM102.516 68.9705C102.081 67.852 102.035 66.6042 102.387 65.4475C102.623 64.6638 103.051 63.9409 103.616 63.3551C103.791 63.1725 103.974 63.0051 104.181 62.8529C105.036 62.1985 106.097 61.8333 107.181 61.8333C107.211 61.8257 107.234 61.8257 107.265 61.8257C107.295 61.8257 107.333 61.8333 107.364 61.8333C107.471 61.8409 107.555 61.8409 107.639 61.8561C107.707 61.8637 107.776 61.8713 107.845 61.8789C107.929 61.8865 108.013 61.9017 108.097 61.917C108.165 61.9322 108.234 61.9474 108.295 61.9626C108.379 61.9854 108.463 62.0083 108.547 62.0311C108.608 62.0539 108.677 62.0691 108.746 62.092C108.83 62.1224 108.914 62.1528 108.998 62.1833C109.074 62.2137 109.127 62.2365 109.181 62.2594C109.265 62.2974 109.349 62.3355 109.433 62.3811L109.479 62.4039C109.524 62.4268 109.57 62.4496 109.608 62.4724C109.7 62.5181 109.776 62.5713 109.86 62.6246C109.937 62.6703 109.975 62.7007 110.013 62.7235C110.105 62.7844 110.196 62.8529 110.28 62.9214C110.341 62.967 110.372 62.9898 110.402 63.0127C110.532 63.1192 110.647 63.2333 110.761 63.3551L110.975 63.5757L111.166 63.3779C111.303 63.2333 111.425 63.1192 111.555 63.0203C111.585 62.9975 111.616 62.9746 111.647 62.9442C111.761 62.8529 111.845 62.7844 111.937 62.7235C111.975 62.7007 112.013 62.6779 112.051 62.6474L112.089 62.6246C112.181 62.5637 112.257 62.5181 112.341 62.4724C112.387 62.4496 112.433 62.4268 112.479 62.3963C112.593 62.3355 112.677 62.2974 112.761 62.2518C112.815 62.2289 112.868 62.2061 112.921 62.1909C113.028 62.1452 113.112 62.1148 113.196 62.092C113.257 62.0692 113.326 62.0539 113.395 62.0311C113.479 62.0083 113.563 61.9855 113.647 61.9626C113.708 61.9474 113.776 61.9322 113.845 61.9246C113.937 61.9094 114.013 61.8941 114.105 61.8865C114.173 61.8789 114.242 61.8637 114.303 61.8637C114.387 61.8561 114.471 61.8485 114.555 61.8485C114.616 61.8409 114.654 61.8409 114.692 61.8409C114.715 61.8409 114.738 61.8409 114.769 61.8485C115.845 61.8485 116.914 62.2137 117.761 62.8681C117.96 63.0203 118.151 63.1877 118.326 63.3703C118.891 63.9562 119.311 64.679 119.555 65.4627C119.906 66.6117 119.861 67.8672 119.425 68.9857C119.173 69.6249 118.807 70.2108 118.334 70.7053L113.341 75.9403C113.028 76.2751 112.654 76.5262 112.234 76.7088C111.83 76.8762 111.402 76.9675 110.967 76.9675C110.059 76.9675 109.211 76.6023 108.585 75.9479L103.608 70.6901C103.134 70.188 102.768 69.6172 102.516 68.9705ZM104.593 64.2986C104.173 64.74 103.868 65.2498 103.692 65.8509C103.425 66.7107 103.463 67.6542 103.791 68.4837C103.974 68.963 104.249 69.3891 104.6 69.7544L109.578 75.0121C110.12 75.5904 110.99 75.7654 111.715 75.4611C111.96 75.3622 112.181 75.21 112.357 75.0121L117.334 69.7544C117.693 69.3815 117.96 68.963 118.143 68.4837C118.471 67.6467 118.502 66.7108 118.242 65.8509C118.059 65.265 117.761 64.74 117.342 64.2986C117.212 64.1693 117.074 64.0399 116.929 63.9334C116.296 63.4464 115.494 63.1801 114.7 63.1953H114.654L114.609 63.2029C114.548 63.2105 114.486 63.2105 114.425 63.2105C114.38 63.2181 114.326 63.2181 114.28 63.2334C114.219 63.241 114.151 63.2562 114.097 63.2638C114.051 63.2714 114.006 63.2866 113.952 63.2942C113.891 63.3095 113.83 63.3247 113.769 63.3399C113.723 63.3551 113.67 63.3703 113.624 63.3855C113.563 63.4084 113.509 63.4312 113.441 63.454C113.38 63.4769 113.341 63.4921 113.311 63.5073C113.25 63.5377 113.189 63.5682 113.128 63.5986L113.082 63.6214L112.998 63.6671C112.937 63.6975 112.883 63.7356 112.83 63.7736L112.708 63.8497C112.639 63.8953 112.578 63.9486 112.517 63.9943L112.463 64.0399C112.334 64.1388 112.25 64.2225 112.166 64.3138L111.463 65.0443C111.212 65.3106 110.738 65.3106 110.486 65.0443L109.807 64.3367C109.7 64.2225 109.608 64.1388 109.517 64.0627L109.425 63.9943C109.364 63.941 109.295 63.8953 109.234 63.8497L109.12 63.7812C109.059 63.7432 108.998 63.7051 108.937 63.6671L108.807 63.6062C108.746 63.5758 108.692 63.5453 108.624 63.5149C108.593 63.4997 108.555 63.4845 108.524 63.4692C108.433 63.4388 108.379 63.4084 108.311 63.3932C108.265 63.3779 108.219 63.3627 108.173 63.3475C108.112 63.3247 108.051 63.3171 107.99 63.3018C107.944 63.2942 107.891 63.279 107.845 63.2714C107.784 63.2638 107.723 63.2486 107.662 63.241C107.616 63.2334 107.563 63.2258 107.517 63.2182C107.456 63.2105 107.395 63.2105 107.334 63.2105L107.288 63.2029H107.242H107.188C106.395 63.2029 105.646 63.454 105.013 63.941C104.86 64.0399 104.715 64.1693 104.593 64.2986ZM106.73 70.1196L109.097 70.15H109.104C109.372 70.15 109.624 69.9902 109.73 69.7391L109.952 69.2293L110.791 71.611C110.883 71.8621 111.112 72.0371 111.372 72.0599C111.395 72.0599 111.41 72.0675 111.433 72.0675C111.677 72.0675 111.906 71.9382 112.021 71.7251L112.891 70.1653H114.555C114.929 70.1653 115.234 69.8609 115.234 69.4881C115.234 69.1152 114.929 68.8109 114.555 68.8109H112.501C112.257 68.8109 112.028 68.9402 111.914 69.1533L111.578 69.7544L110.662 67.1598C110.57 66.8935 110.326 66.7185 110.043 66.7032C109.753 66.6956 109.509 66.8554 109.402 67.1141L108.677 68.8033L106.761 68.7805H106.753C106.379 68.7805 106.081 69.0773 106.074 69.4501C106.058 69.8077 106.356 70.1196 106.73 70.1196ZM109.792 48.4102C109.792 47.771 110.318 47.2384 110.967 47.2384C111.608 47.2384 112.143 47.7634 112.143 48.4102C112.143 49.0493 111.616 49.5819 110.967 49.5819C110.311 49.5743 109.792 49.0493 109.792 48.4102ZM110.776 48.4102C110.776 48.5091 110.86 48.5928 110.96 48.5928C111.059 48.5928 111.143 48.5091 111.143 48.4102C111.143 48.3113 111.059 48.2276 110.96 48.2276C110.86 48.2199 110.776 48.3036 110.776 48.4102ZM104.593 79.8591L101.532 82.9103L100.096 81.4798C99.8292 81.2135 99.4017 81.2135 99.1422 81.4798C98.875 81.7461 98.875 82.1722 99.1422 82.4309L101.051 84.3331C101.18 84.4625 101.356 84.531 101.532 84.531C101.7 84.531 101.875 84.4625 102.013 84.3331L105.555 80.8026C105.822 80.5362 105.822 80.1101 105.555 79.8514C105.287 79.6003 104.86 79.6004 104.593 79.8591ZM104.593 87.4452L101.532 90.4964L100.096 89.0659C99.8292 88.7996 99.4017 88.7996 99.1422 89.0659C98.875 89.3322 98.875 89.7583 99.1422 90.017L101.051 91.9192C101.18 92.0486 101.356 92.1171 101.532 92.1171C101.7 92.1171 101.875 92.0486 102.013 91.9192L105.555 88.3887C105.822 88.1224 105.822 87.6962 105.555 87.4375C105.287 87.1864 104.86 87.1865 104.593 87.4452ZM121.326 82.3015H108.318C107.944 82.3015 107.639 82.6059 107.639 82.9788C107.639 83.3516 107.944 83.656 108.318 83.656H121.326C121.7 83.656 122.006 83.3516 122.006 82.9788C122.006 82.6059 121.693 82.3015 121.326 82.3015ZM113.402 90.1236C113.402 89.7507 113.097 89.4463 112.723 89.4463L108.31 89.454C107.936 89.454 107.631 89.7583 107.631 90.1312C107.631 90.504 107.936 90.8084 108.31 90.8084H112.73C113.105 90.8008 113.402 90.504 113.402 90.1236ZM138.19 105.844C139.366 107.061 139.244 109.093 137.938 110.379C137.267 111.041 136.373 111.421 135.488 111.421C134.686 111.421 133.946 111.117 133.419 110.561L130.03 107.305C128.358 108.172 126.51 108.636 124.602 108.636C124.365 108.636 124.136 108.629 123.9 108.613C120.976 108.446 118.274 107.221 116.212 105.159H92.7082C90.9754 105.159 89.563 103.751 89.563 102.024V52.3446C89.563 50.6173 90.9753 49.2096 92.7082 49.2096H100.044C100.334 48.3574 101.136 47.7335 102.083 47.7335H105.388C105.64 45.6562 107.037 43.929 108.93 43.1986C109.564 42.9551 110.243 42.8181 110.961 42.8181C113.824 42.8181 116.198 44.9715 116.534 47.7335H119.839C120.794 47.7335 121.595 48.3574 121.878 49.2096H129.221C130.954 49.2096 132.367 50.6173 132.367 52.3446V87.3309C132.779 87.6885 133.176 88.0842 133.542 88.5026C135.657 90.9147 136.718 94.0191 136.527 97.2378C136.412 99.1781 135.848 101.027 134.901 102.655L138.19 105.844ZM136.984 109.42C137.763 108.644 137.877 107.464 137.228 106.795L134.152 103.812C133.679 104.444 133.144 105.037 132.541 105.577C132.129 105.95 131.686 106.285 131.228 106.589L134.381 109.61C135.038 110.287 136.228 110.166 136.984 109.42ZM131.633 104.565C133.755 102.655 135.007 100.03 135.182 97.1617C135.35 94.293 134.411 91.5387 132.526 89.3929C130.648 87.2547 128.06 85.9841 125.243 85.8167C125.037 85.8091 124.831 85.7939 124.625 85.7939C119.059 85.7939 114.372 90.2147 114.036 95.9214C113.868 98.7901 114.807 101.544 116.693 103.69C118.571 105.828 121.159 107.099 123.976 107.266C126.8 107.434 129.51 106.468 131.633 104.565ZM90.9134 102.024C90.9134 103.005 91.715 103.804 92.6998 103.804H115.037C113.946 102.336 113.205 100.647 112.869 98.8661H95.6622C95.2882 98.8661 94.9828 98.5617 94.9828 98.1888V55.7908C94.9828 55.1516 95.5096 54.619 96.1584 54.619H99.922V50.5635H92.708C91.7232 50.5635 90.9216 51.3624 90.9216 52.344L90.9134 102.024ZM101.273 49.8863V56.7725C101.273 57.2138 101.631 57.5715 102.074 57.5715L119.838 57.5639C120.281 57.5639 120.64 57.2062 120.64 56.7649V49.8787C120.64 49.4374 120.281 49.0797 119.838 49.0797H115.892C115.517 49.0797 115.212 48.7754 115.212 48.4025C115.212 46.0666 113.304 44.1643 110.96 44.1643C108.616 44.1643 106.708 46.0665 106.708 48.4025C106.708 48.7754 106.403 49.0797 106.028 49.0797H102.082C101.639 49.0873 101.273 49.445 101.273 49.8863ZM122.006 50.5559V54.6114H125.769C126.41 54.6114 126.945 55.1364 126.945 55.7832V84.6667C128.403 84.9559 129.777 85.5113 131.014 86.3103V52.3369C131.014 51.3553 130.212 50.5564 129.227 50.5564L122.006 50.5559ZM112.677 95.8446C113.066 89.1867 118.723 84.0811 125.319 84.4693C125.41 84.4769 125.494 84.4845 125.586 84.4921V55.9728H122.013V56.7718C122.013 57.9588 121.044 58.9252 119.853 58.9252H102.089C100.898 58.9252 99.9286 57.9589 99.9286 56.7718V55.9728H96.3407V97.5099H112.693C112.654 96.9545 112.647 96.4001 112.677 95.8446Z" stroke="#663366" mask="url(#path-1-outside-1_254_932)"/>
</svg>
