<svg width="150" height="150" viewBox="0 0 150 150" fill="none" xmlns="http://www.w3.org/2000/svg">
<path fill-rule="evenodd" clip-rule="evenodd" d="M11.3254 19H138.673C139.404 19 140 19.5966 140 20.3288V99.3815C140 100.114 139.404 100.71 138.673 100.71H81.0881V119.211L87.3119 130.004C87.8265 130.899 87.1711 131.995 86.169 131.995V132L63.8365 131.989C62.8506 131.989 62.1193 130.904 62.7369 129.917L68.9119 119.205V100.705L11.3271 100.71C10.5958 100.71 10 100.114 10 99.3761V20.329C10 19.5967 10.5958 19.0001 11.3271 19.0001L11.3254 19ZM101.671 63.7027C100.739 63.4532 100.663 62.5094 100.387 61.5169C99.4606 61.4138 98.4531 61.4138 97.5268 61.5169C97.2506 62.5149 97.1802 63.4531 96.2431 63.7027C95.4956 63.9033 94.4555 64.3047 93.8056 64.7006C92.9226 65.2376 92.2618 64.6464 91.2976 64.0986C90.5664 64.679 89.8513 65.3949 89.2718 66.1271L89.911 67.2606C90.3985 68.1176 89.7593 68.7034 89.3097 69.7935C89.1418 70.2058 88.9956 70.6342 88.8764 71.0736C88.6272 72.0065 87.6901 72.0824 86.6935 72.359C86.5905 73.2919 86.5905 74.2953 86.6935 75.2228C87.6901 75.4994 88.6272 75.5699 88.8764 76.5082C89.0768 77.2567 89.4776 78.2981 89.8731 78.9489C90.4093 79.833 89.8189 80.4947 89.2718 81.4656C89.8406 82.1761 90.5718 82.9138 91.2976 83.4886L92.4297 82.8486C93.2856 82.3605 93.8706 83.0005 94.9593 83.4506C95.371 83.6188 95.7989 83.7652 96.2377 83.8845C97.1694 84.134 97.2452 85.0724 97.5214 86.0703C98.4531 86.1734 99.4552 86.1734 100.381 86.0703C100.658 85.0723 100.728 84.1341 101.665 83.8791C102.418 83.6785 103.453 83.2771 104.103 82.8811C104.986 82.3442 105.647 82.9354 106.611 83.4832C107.342 82.9028 108.057 82.1869 108.637 81.4547L107.997 80.3157C107.51 79.4588 108.149 78.8729 108.599 77.7828C108.766 77.3706 108.913 76.9421 109.032 76.5028H109.037C109.287 75.5699 110.224 75.494 111.22 75.2174C111.323 74.2845 111.323 73.2811 111.22 72.3536C110.224 72.077 109.287 72.0065 109.037 71.0682C108.837 70.3197 108.436 69.2782 108.041 68.6275C107.504 67.7434 108.095 67.0816 108.642 66.1108C108.073 65.4003 107.342 64.6626 106.616 64.0878L105.479 64.7278C104.623 65.2159 104.038 64.5759 102.949 64.1257C102.537 63.963 102.109 63.822 101.671 63.7027ZM103.09 61.3596L102.705 59.9602C102.57 59.4612 102.147 59.0707 101.6 59.0002C99.856 58.7724 98.7726 58.6802 97.0014 58.908C96.2972 59.0002 95.4738 59.0111 95.2138 59.9602L94.8238 61.3596L93.1067 62.0755L91.8825 61.3813C91.4275 61.0992 90.8316 61.1101 90.3821 61.4572C89.0062 62.5148 88.1395 63.2471 87.0617 64.6573L87.0671 64.6627L86.7096 65.1291C86.3413 65.5414 86.26 66.1597 86.5471 66.6641L87.2621 67.9333L86.5471 69.6527L85.1496 70.0432C84.6513 70.1788 84.2613 70.6018 84.1908 71.1497C83.9633 72.8961 83.8712 73.9809 84.0987 75.7545C84.1908 76.4596 84.2017 77.284 85.1442 77.5444L86.5417 77.9349L87.2567 79.6543L86.5633 80.88C86.0433 81.7587 86.6012 82.3391 87.0563 82.9303L87.0617 82.9249C87.8038 83.9337 88.8492 84.9479 89.835 85.7073C90.393 86.1358 90.9888 86.7107 91.8392 86.228L93.1067 85.512L94.8239 86.228L95.2139 87.6273C95.3493 88.1263 95.7718 88.5168 96.3189 88.5873C98.063 88.8151 99.1465 88.9073 100.918 88.6795C101.622 88.5873 102.445 88.5765 102.705 87.6273L103.095 86.228L104.812 85.512L106.037 86.2063C106.492 86.4883 107.087 86.4775 107.537 86.1304C108.913 85.0781 109.78 84.3404 110.857 82.9303C111.285 82.3716 111.859 81.775 111.377 80.9235L110.662 79.6543L111.377 77.935L112.775 77.5444C113.273 77.4088 113.663 76.9858 113.734 76.438C113.961 74.6915 114.053 73.6067 113.826 71.8332C113.734 71.1281 113.723 70.3036 112.775 70.0433L111.372 69.6527L110.657 67.9334L111.35 66.7076C111.87 65.8289 111.312 65.2486 110.857 64.6573L110.852 64.6628C110.11 63.6539 109.064 62.6343 108.079 61.8803C107.521 61.4519 106.925 60.8769 106.074 61.3597L104.807 62.0756L103.09 61.3596ZM98.9568 66.7075C95.0513 66.7075 91.8825 69.8805 91.8825 73.7911C91.8825 80.0772 99.5092 83.2502 103.956 78.7973C108.403 74.3444 105.24 66.7075 98.9568 66.7075ZM102.082 70.6615C99.3034 67.8791 94.5367 69.8588 94.5367 73.7911C94.5367 77.7233 99.3034 79.703 102.082 76.9206C103.81 75.1904 103.81 72.3863 102.082 70.6615ZM108.712 35.3465C107.759 35.4984 107.309 34.6631 106.654 33.8766C105.728 34.1695 104.872 34.5492 104.043 35.0428L104.238 36.339H104.233C104.373 37.3153 103.566 37.6299 102.765 38.4815C102.461 38.8015 102.174 39.1486 101.903 39.5229C101.335 40.3039 100.435 40.0381 99.4062 39.9405C98.9729 40.7758 98.61 41.714 98.377 42.6145C99.2004 43.2219 100.056 43.6341 99.9587 44.5942C99.8612 45.5108 99.8829 46.3895 100.029 47.3006C100.181 48.2552 99.352 48.7054 98.5612 49.3617C98.8537 50.2946 99.2328 51.1407 99.7258 51.976L101.02 51.7807V51.7862C101.995 51.6451 102.31 52.4533 103.16 53.256C103.48 53.5598 103.826 53.8472 104.2 54.1184C104.98 54.6879 104.715 55.5883 104.617 56.6188C105.451 57.0527 106.388 57.4161 107.288 57.6493C107.894 56.8249 108.306 55.968 109.265 56.0656C110.186 56.1632 111.058 56.1415 111.968 55.9951C112.921 55.8432 113.371 56.6731 114.026 57.465C114.958 57.1721 115.808 56.7924 116.637 56.2989L116.442 55.0026H116.447C116.306 54.0263 117.114 53.7117 117.915 52.8601C118.219 52.5401 118.506 52.193 118.776 51.8187C119.345 51.0377 120.244 51.3035 121.274 51.4011C121.707 50.5658 122.07 49.6276 122.303 48.7271C121.479 48.1197 120.624 47.7075 120.721 46.7474C120.819 45.8254 120.797 44.9521 120.651 44.041C120.499 43.0864 121.328 42.6362 122.119 41.9799C121.826 41.0524 121.447 40.1954 120.954 39.3656L119.66 39.5609V39.5554C118.685 39.6965 118.37 38.8883 117.52 38.0856C117.2 37.7818 116.854 37.4944 116.48 37.2232V37.2178C115.7 36.6483 115.965 35.7479 116.063 34.7174C115.229 34.2835 114.292 33.9201 113.392 33.6868C112.786 34.5113 112.374 35.3682 111.415 35.2706C110.5 35.1838 109.617 35.2055 108.712 35.3465ZM109.064 32.6346L108.198 31.5824C107.878 31.1322 107.298 30.9153 106.74 31.078C105.105 31.5661 103.994 31.9566 102.505 32.8733C101.903 33.2421 101.15 33.5893 101.297 34.5547L101.513 36.0029L100.235 37.3534L98.8591 37.2232C98.3229 37.1419 97.765 37.4022 97.4941 37.9066C96.6654 39.4416 96.1887 40.4233 95.7662 42.1751C95.6037 42.864 95.3166 43.6342 96.102 44.22L97.272 45.0878L97.3208 46.9481L96.2699 47.8159C95.8203 48.1359 95.6037 48.7163 95.7662 49.2749C96.2537 50.913 96.6437 52.0194 97.5592 53.5164C97.9275 54.1184 98.2742 54.8723 99.2383 54.7259L100.685 54.5089L102.033 55.789L101.909 57.1666C101.828 57.7036 102.088 58.2622 102.591 58.5334C104.124 59.3633 105.105 59.8406 106.854 60.2636C107.542 60.4264 108.311 60.7138 108.896 59.9274L109.763 58.7558L111.621 58.707L112.488 59.7592C112.807 60.2094 113.387 60.4263 113.945 60.2636C115.581 59.7755 116.691 59.385 118.181 58.4683C118.782 58.0995 119.535 57.7524 119.389 56.7816L119.172 55.3333L120.45 53.9828L121.826 54.113C122.362 54.1943 122.92 53.934 123.191 53.4296C124.02 51.8946 124.497 50.9129 124.919 49.1611C125.082 48.4722 125.369 47.702 124.583 47.1162L123.413 46.2484L123.365 44.3881L124.415 43.5203C124.865 43.2003 125.082 42.6199 124.919 42.0613C124.432 40.4232 124.042 39.3113 123.126 37.8198C122.758 37.2178 122.411 36.4639 121.447 36.6103L120.001 36.8273L118.652 35.5472L118.782 34.1696C118.863 33.6326 118.603 33.074 118.099 32.8028C116.566 31.9729 115.591 31.4956 113.836 31.0726C113.149 30.9099 112.379 30.6224 111.794 31.4088L110.928 32.5804L109.064 32.6346ZM107.461 39.2083C103.891 40.8029 102.293 44.9792 103.886 48.5536C106.448 54.3136 114.703 54.0643 116.946 48.201C119.183 42.3596 113.224 36.6321 107.461 39.2083ZM111.924 41.5352C108.225 40.1142 104.709 43.9053 106.296 47.4688C107.889 51.043 113.051 50.94 114.465 47.2518C115.342 44.9684 114.21 42.4138 111.924 41.5352ZM78.4333 100.709H71.5595V119.556H71.5541C71.5541 119.784 71.4999 120.012 71.3753 120.218L66.1211 129.33H83.8664L78.6556 120.294C78.5147 120.082 78.4281 119.827 78.4281 119.551L78.4389 100.709L78.4333 100.709ZM79.0075 59.8508L73.0004 56.3796V63.3275L76.0013 61.5919L79.0075 59.8508ZM77.3229 55.821L72.3341 52.9356C71.4511 52.4257 70.3515 53.0766 70.3569 54.08H70.3515V65.6165C70.3515 66.5873 71.424 67.3575 72.4478 66.7012L77.3282 63.8809L82.3171 60.9955C83.1675 60.5019 83.2542 59.2056 82.2412 58.6632L77.3229 55.821ZM74.9991 48.4446C68.7048 48.4446 63.6078 53.5539 63.6078 59.8508C63.6078 66.1534 68.7104 71.2571 74.9991 71.2571C81.2934 71.2571 86.3905 66.1478 86.3905 59.8508C86.3905 53.5539 81.2933 48.4446 74.9991 48.4446ZM81.1796 53.6623C77.7671 50.2453 72.2312 50.2453 68.8185 53.6623C65.406 57.0793 65.406 62.6224 68.8185 66.0395C72.231 69.4565 77.7669 69.4565 81.1796 66.0395C84.5921 62.6225 84.5921 57.0794 81.1796 53.6623ZM46.5776 65.6543C48.9393 64.5913 49.1506 64.8408 49.3456 65.0631C50.1202 65.9581 50.819 66.7717 53.7386 65.3669C53.8849 65.2964 54.8003 64.8787 54.9466 64.9438C55.6128 65.2421 56.3929 64.9438 56.6907 64.2767C56.9886 63.6095 56.6907 62.8285 56.0245 62.5302C53.9715 61.6136 51.7507 63.7994 51.3498 63.333C50.5427 62.4001 49.6489 61.3641 45.4943 63.2408C44.828 63.5391 44.5301 64.3255 44.8334 64.9926C45.1259 65.6543 45.9114 65.9527 46.5776 65.6543ZM46.5776 58.4894C48.9393 57.4263 49.1506 57.6758 49.3456 57.8982C50.1202 58.7931 50.819 59.6068 53.7386 58.202C53.8849 58.1314 54.8003 57.7138 54.9466 57.7789C55.6128 58.0772 56.3929 57.7789 56.6907 57.1118C56.9886 56.4446 56.6907 55.6636 56.0245 55.3653C53.9715 54.4487 51.7507 56.6345 51.3498 56.168C50.5427 55.2351 49.6489 54.1991 45.4943 56.0758C44.828 56.3741 44.5301 57.1606 44.8334 57.8277C45.1259 58.4948 45.9114 58.7931 46.5776 58.4894ZM46.5776 51.33C48.9393 50.267 49.1506 50.5165 49.3456 50.7388C50.1202 51.6338 50.819 52.4474 53.7386 51.0426C53.8849 50.9721 54.8003 50.5544 54.9466 50.6195C55.6128 50.9178 56.3929 50.6195 56.6907 49.9524C56.9886 49.2853 56.6907 48.5042 56.0245 48.2059C53.9715 47.2893 51.7507 49.4751 51.3498 49.0087C50.5427 48.0758 49.6489 47.0398 45.4943 48.9164C44.828 49.2148 44.5301 50.0012 44.8334 50.6683C45.1259 51.3354 45.9114 51.6338 46.5776 51.33ZM28.627 65.6538C30.9887 64.5907 31.2 64.8402 31.395 65.0626C32.1696 65.9575 32.8683 66.7711 35.788 65.3663C35.9343 65.2958 36.8497 64.8782 36.9905 64.9433C37.6568 65.2416 38.4368 64.9433 38.7347 64.2761C39.0326 63.609 38.7347 62.8279 38.0684 62.5297C36.0154 61.613 33.7947 63.7988 33.3938 63.3324C32.5867 62.3995 31.6929 61.3635 27.5382 63.2402C26.872 63.5385 26.5741 64.325 26.8774 64.9921C27.1753 65.6538 27.9608 65.9521 28.627 65.6538ZM28.627 58.4889C30.9887 57.4258 31.2 57.6753 31.395 57.8977C32.1696 58.7926 32.8683 59.6062 35.788 58.2014C35.9343 58.1309 36.8497 57.7133 36.9905 57.7783C37.6568 58.0766 38.4368 57.7783 38.7347 57.1112C39.0326 56.4441 38.7347 55.663 38.0684 55.3648C36.0154 54.4481 33.7947 56.6339 33.3938 56.1675C32.5867 55.2346 31.6929 54.1986 27.5382 56.0753C26.872 56.3736 26.5741 57.16 26.8774 57.8271C27.1753 58.4943 27.9608 58.7926 28.627 58.4889ZM28.627 51.3295C30.9887 50.2664 31.2 50.5159 31.395 50.7383C32.1696 51.6332 32.8683 52.4468 35.788 51.042C35.9343 50.9715 36.8497 50.5539 36.9905 50.619C37.6568 50.9173 38.4368 50.619 38.7347 49.9518C39.0326 49.2847 38.7347 48.5036 38.0684 48.2054C36.0154 47.2888 33.7947 49.4746 33.3938 49.0081C32.5867 48.0752 31.6929 47.0392 27.5382 48.9159C26.872 49.2142 26.5741 50.0007 26.8774 50.6678C27.1753 51.3349 27.9608 51.6332 28.627 51.3295ZM43.1109 44.6962V69.2657C43.1109 69.5803 43.7284 69.9762 44.7252 70.3721C47.6881 71.5383 52.6608 71.5383 55.6183 70.3721C56.615 69.9762 57.2325 69.5803 57.2325 69.2657L57.2271 44.6962C57.2271 44.3816 56.6096 43.9857 55.6129 43.5898C52.6499 42.4182 47.6773 42.4237 44.7198 43.5898C43.7231 43.9803 43.1109 44.3816 43.1109 44.6962ZM40.4567 69.2657V44.6962C40.4567 44.3816 39.8392 43.9857 38.8425 43.5898C35.8795 42.4237 30.9069 42.4182 27.9494 43.5898C26.9527 43.9803 26.3351 44.3816 26.3351 44.6962V69.2657C26.3351 69.5803 26.9526 69.9762 27.9494 70.3721C30.9123 71.5383 35.8849 71.5383 38.8425 70.3721C39.8391 69.9762 40.4567 69.5803 40.4567 69.2657ZM33.3932 40.0586C30.9123 40.0586 28.6427 40.4654 26.9798 41.1217C24.9376 41.9244 23.681 43.1828 23.681 44.696V69.2654C23.681 74.3963 37.3529 75.3455 41.7786 71.7278C45.0287 74.3855 52.6229 74.4018 56.5773 72.8397C58.6195 72.0369 59.8761 70.7786 59.8761 69.2654L59.8815 44.6959C59.8815 39.565 46.2096 38.6159 41.7839 42.2336C39.8502 40.6499 36.3129 40.0586 33.3932 40.0586ZM20.4473 26.1459C19.716 26.1459 19.1202 26.7425 19.1202 27.4747L19.1256 92.2245C19.1256 92.9567 19.7214 93.5533 20.4527 93.5533H129.551C130.283 93.5533 130.878 92.9567 130.878 92.2245L130.873 27.4747C130.873 26.7425 130.277 26.1459 129.546 26.1459H20.4473ZM128.224 28.8036H21.7743V90.9014H128.219L128.224 28.8036ZM137.346 21.6551H12.6529V98.0502H137.352L137.346 21.6551Z" fill="#663366"/>
</svg>
