<svg width="150" height="150" viewBox="0 0 150 150" fill="none" xmlns="http://www.w3.org/2000/svg">
<path fill-rule="evenodd" clip-rule="evenodd" d="M93.1677 127.132C93.2055 127.197 93.2433 127.262 93.2703 127.332L98.1788 137.175L106.149 133.172L103.773 128.411C103.735 128.346 103.697 128.281 103.67 128.205L99.761 120.361C99.7232 120.296 99.6854 120.231 99.6584 120.16L94.199 109.213C93.6536 108.113 92.7033 107.344 91.6232 106.981C90.5378 106.618 89.3174 106.667 88.2213 107.214C87.5247 107.566 86.9577 108.075 86.5474 108.682C86.5366 108.698 86.5258 108.714 86.515 108.731C86.2936 109.061 86.1208 109.424 85.9966 109.798C85.6348 110.887 85.6834 112.111 86.2342 113.21L89.1556 119.072C89.1934 119.137 89.2312 119.202 89.2582 119.278L93.1677 127.132ZM64.7153 74.8637L67.5611 74.7228L69.7319 69.6904C69.9965 69.0783 70.7038 68.7966 71.314 69.0566C71.6326 69.1975 71.8594 69.4575 71.9728 69.7608L74.7862 77.5992L75.7366 75.5733C75.9418 75.1345 76.3684 74.8799 76.8166 74.8745L81.4822 74.7932L84.1065 69.3599C84.3981 68.7586 85.1163 68.504 85.7211 68.7965C85.9857 68.9265 86.1855 69.1378 86.2989 69.3924L88.7235 74.7553L90.1815 74.7011C90.0897 72.2255 89.4795 69.7337 88.3023 67.3718C86.0991 62.9515 82.3138 59.8421 77.983 58.3957C73.6469 56.9493 68.7653 57.1552 64.3535 59.3708C59.9471 61.581 56.8475 65.3782 55.4057 69.7227C53.9639 74.0725 54.1691 78.9696 56.3777 83.3953C58.5863 87.8156 62.3662 90.925 66.697 92.3714C71.0331 93.8178 75.9147 93.6119 80.3265 91.3963C84.7329 89.1861 87.8325 85.3889 89.2743 81.0444C89.6955 79.7768 89.9763 78.4605 90.1059 77.1225L88.07 77.193C87.5678 77.2417 87.071 76.9708 86.8497 76.4833L85.154 72.7348L83.3288 76.5105C83.1398 76.9114 82.7348 77.1876 82.2596 77.193L77.5941 77.2743L75.7256 81.2666C75.596 81.5483 75.353 81.7813 75.0399 81.8896C74.4135 82.1171 73.7223 81.7867 73.5008 81.1583L70.7307 73.439L69.4941 76.2992C69.3321 76.7434 68.9163 77.0739 68.4195 77.0956L64.7205 77.2797C64.5153 78.011 64.1211 78.6665 63.6027 79.1919C62.8089 79.9882 61.7127 80.4812 60.5031 80.4812C59.2935 80.4812 58.1973 79.9882 57.4035 79.1919C56.6097 78.3956 56.1183 77.296 56.1183 76.0825C56.1183 74.8691 56.6097 73.7694 57.4035 72.9731C58.1973 72.1768 59.2935 71.6839 60.5031 71.6839C61.7127 71.6839 62.8089 72.1768 63.6027 72.9731C64.1211 73.4986 64.5101 74.1432 64.7153 74.8637ZM92.6009 75.8496C92.6009 75.8875 92.6009 75.92 92.5955 75.9525C92.5361 77.9514 92.1851 79.9232 91.5641 81.803C89.9279 86.7379 86.4125 91.0499 81.4067 93.558C76.4063 96.0661 70.8606 96.3099 65.9461 94.663C61.0267 93.0217 56.7283 89.4951 54.2281 84.4735C51.7279 79.4574 51.4849 73.8941 53.1265 68.964C54.7627 64.0291 58.2781 59.7171 63.2839 57.209C68.2843 54.7009 73.83 54.4571 78.7445 56.1039C83.6639 57.7453 87.9623 61.2718 90.4625 66.2934C91.9907 69.3594 92.6765 72.6373 92.6009 75.8496ZM95.9002 75.6708C95.8678 78.1247 95.4574 80.5461 94.6906 82.8484C92.7844 88.585 88.7021 93.5904 82.8863 96.5102C77.0706 99.43 70.623 99.7063 64.9041 97.794C59.1856 95.8818 54.196 91.7866 51.2854 85.9524C48.3748 80.1181 48.0994 73.6503 50.0056 67.9134C51.9118 62.1765 55.9941 57.1714 61.81 54.2516C67.6257 51.3317 74.0733 51.0555 79.7921 52.9677C85.5109 54.8799 90.5002 58.9752 93.4108 64.8094C95.1442 68.2817 95.9434 71.9762 95.9056 75.611C95.9002 75.6327 95.9002 75.6545 95.9002 75.6708ZM98.2924 74.4086C98.1574 70.8008 97.2718 67.166 95.56 63.7317C92.3524 57.3017 86.8499 52.7785 80.5431 50.6766C74.2414 48.5694 67.135 48.8781 60.7252 52.0958C54.3155 55.3135 49.8065 60.8335 47.7058 67.1602C45.6215 73.4494 45.9076 80.5294 49.0666 86.9326C49.0936 87.0084 49.1314 87.0789 49.1746 87.1493C52.3876 93.5252 57.8686 98.005 64.1376 100.101C69.2513 101.808 74.8889 101.932 80.2618 100.199L84.1552 108.005C83.977 108.346 83.8258 108.698 83.707 109.061C83.1508 110.735 83.2264 112.62 84.0741 114.316L86.1747 118.525L39.4375 118.514V34.2738H52.3758V35.8881C52.3758 36.5598 52.9158 37.1015 53.5854 37.1015H95.4082C96.0778 37.1015 96.6178 36.5598 96.6178 35.8881V34.2738H109.556L109.562 118.514H101.532L96.4073 108.243C96.3803 108.167 96.3425 108.097 96.2993 108.032C95.4461 106.396 94.0152 105.242 92.379 104.695C92.0172 104.576 91.65 104.484 91.272 104.424L87.3786 96.6185C91.9847 93.3465 95.2679 88.7421 96.9743 83.6122C97.6979 81.4291 98.1353 79.1485 98.2649 76.8355L99.8795 76.7759C100.096 77.4422 100.468 78.0435 100.949 78.5256C101.743 79.3219 102.839 79.8148 104.048 79.8148C105.258 79.8148 106.354 79.3219 107.148 78.5256C107.942 77.7293 108.433 76.6296 108.433 75.4162C108.433 74.2028 107.942 73.1031 107.148 72.3068C106.354 71.5105 105.258 71.0175 104.048 71.0175C102.839 71.0175 101.743 71.5105 100.949 72.3068C100.398 72.8647 99.9875 73.569 99.7931 74.3545L98.2924 74.4086ZM104.054 77.3825C104.594 77.3825 105.086 77.1604 105.442 76.8083C105.798 76.4508 106.014 75.9579 106.014 75.4162C106.014 74.8745 105.793 74.3815 105.442 74.024C105.086 73.6665 104.594 73.4498 104.054 73.4498C103.514 73.4498 103.023 73.6719 102.666 74.024C102.31 74.3815 102.094 74.8745 102.094 75.4162C102.094 75.9579 102.315 76.4508 102.666 76.8083C103.023 77.1604 103.514 77.3825 104.054 77.3825ZM60.509 78.0542C59.969 78.0542 59.4776 77.8321 59.1212 77.48C58.7648 77.1225 58.5488 76.6296 58.5488 76.0879C58.5488 75.5462 58.7702 75.0532 59.1212 74.6957C59.4776 74.3382 59.969 74.1215 60.509 74.1215C61.049 74.1215 61.5404 74.3436 61.8968 74.6957C62.2531 75.0532 62.4691 75.5462 62.4691 76.0879C62.4691 76.6296 62.2477 77.1225 61.8968 77.48C61.5404 77.8322 61.049 78.0542 60.509 78.0542ZM91.3971 128.99H33.4874C32.2508 128.99 31.1277 128.481 30.3176 127.668C29.5022 126.85 29 125.724 29 124.488V28.3096C29 27.0691 29.5076 25.9424 30.3176 25.1297C31.133 24.3118 32.2561 23.808 33.4874 23.808H52.3764V23.6346C52.3764 22.0691 53.0136 20.6499 54.0395 19.6207C55.0655 18.5914 56.4803 17.9522 58.0409 17.9522H63.754C64.2076 15.8451 65.3146 13.9815 66.8536 12.5948C68.6356 10.9804 70.99 10 73.5766 10C76.1632 10 78.5175 10.9805 80.3049 12.5894C81.8439 13.9815 82.951 15.8397 83.4045 17.9468H90.959C92.5196 17.9468 93.9343 18.586 94.9549 19.6152C95.9809 20.6445 96.6181 22.0637 96.6181 23.6292V23.8026L115.513 23.7972C116.749 23.7972 117.872 24.3064 118.682 25.1189C119.498 25.9369 120 27.0636 120 28.2987V124.478C120 125.718 119.492 126.845 118.682 127.657C117.867 128.475 116.744 128.979 115.513 128.979L106.754 128.985L108.844 133.172C109.141 133.768 108.898 134.494 108.304 134.792L98.1788 139.873C97.5848 140.171 96.8612 139.927 96.5642 139.331L91.3971 128.99ZM105.544 126.558L102.742 120.94H110.772C111.441 120.94 111.981 120.399 111.981 119.727V33.0598C111.981 32.3881 111.441 31.8464 110.772 31.8464H96.6188V26.2289H115.513C116.08 26.2289 116.599 26.4618 116.977 26.841C117.355 27.2202 117.587 27.7349 117.587 28.3091V124.488C117.587 125.057 117.355 125.577 116.977 125.956C116.599 126.335 116.086 126.568 115.513 126.568L105.545 126.563L105.544 126.558ZM87.384 120.94L90.1865 126.558H33.4864C32.9194 126.558 32.401 126.325 32.023 125.946C31.645 125.566 31.4128 125.052 31.4128 124.478V28.2988C31.4128 27.73 31.645 27.21 32.023 26.8308C32.401 26.4516 32.914 26.2186 33.4864 26.2186H52.3754V31.8361H38.2225C37.5529 31.8361 37.0129 32.3778 37.0129 33.0495V119.717C37.0129 120.388 37.5529 120.93 38.2225 120.93L87.384 120.94ZM85.8234 105.93C86.1906 105.621 86.5956 105.35 87.033 105.117C87.1032 105.074 87.1788 105.036 87.2598 105.004C87.708 104.792 88.167 104.63 88.6314 104.516L85.3428 97.9236C84.927 98.1673 84.5004 98.3949 84.0684 98.617C83.9982 98.6603 83.928 98.6982 83.8524 98.7253C83.415 98.942 82.9777 99.1424 82.5349 99.332L85.8234 105.93ZM73.5763 26.4519C75.423 26.4519 76.9189 24.9514 76.9189 23.0987C76.9189 21.2461 75.4232 19.7455 73.5763 19.7455C71.7296 19.7455 70.2337 21.246 70.2337 23.0987C70.2337 24.9459 71.7294 26.4519 73.5763 26.4519ZM54.8007 34.675H94.2043V23.6297C94.2043 22.7359 93.8425 21.9233 93.2485 21.3384C92.6599 20.7479 91.8499 20.385 90.9644 20.385H82.3785C81.7251 20.385 81.1905 19.8649 81.1689 19.2149C80.9529 17.3135 80.0403 15.6179 78.6903 14.3991C77.3403 13.1803 75.5476 12.4327 73.5819 12.4327C71.6163 12.4327 69.8235 13.1748 68.4736 14.3991C67.1074 15.6342 66.1841 17.3568 65.9842 19.2906C65.9194 19.9136 65.3956 20.3794 64.7854 20.3794V20.3849H58.0462C57.1553 20.3849 56.3452 20.7478 55.7621 21.3382C55.1735 21.9287 54.8117 22.7412 54.8117 23.6296V33.0607L54.8007 34.675Z" fill="#663366"/>
</svg>
