<svg width="150" height="150" viewBox="0 0 150 150" fill="none" xmlns="http://www.w3.org/2000/svg">
<path fill-rule="evenodd" clip-rule="evenodd" d="M112.398 85.432L105.786 74.0665C105.668 74.0047 105.527 74.044 105.459 74.1565L98.9255 85.432L99.0101 85.7637H112.32L112.314 85.758C112.427 85.6906 112.461 85.5444 112.398 85.432ZM61.6267 95.8308L50.3032 89.3218C50.1509 89.2263 49.9478 89.3443 49.9534 89.5242V102.548C49.9478 102.728 50.1452 102.846 50.3032 102.75L61.7169 96.157C61.779 96.0445 61.7395 95.904 61.6267 95.8366V95.8308ZM61.7903 99.5575H61.7846C68.1149 104.442 76.3856 106.066 84.1042 103.936C91.8167 101.811 98.0738 96.1793 100.98 88.748H108.32C105.138 99.4052 96.6582 107.673 85.8937 110.619C75.1289 113.564 63.6016 110.771 55.3992 103.233L61.7903 99.5575ZM68.0303 58.8679L78.8967 51.4258H78.8911C78.9419 51.3077 78.8911 51.1728 78.7783 51.111L66.9921 45.4844C66.8284 45.4 66.6366 45.5349 66.6592 45.7148L67.6973 58.8117C67.7707 58.9185 67.9173 58.941 68.0245 58.8623L68.0303 58.8679ZM63.7819 47.0471C63.5901 46.1365 63.6634 45.1866 63.9963 44.3154C64.363 43.551 65.0175 42.9608 65.8243 42.6797C66.6254 42.3987 67.5056 42.4493 68.2729 42.8203L72.273 44.7314C73.0516 44.6189 73.8133 44.5346 74.5636 44.4728H74.558C84.3751 43.7083 94.0625 47.0585 101.296 53.7137C108.523 60.3745 112.636 69.7394 112.636 79.5473V79.9183L114.978 83.9598V83.9654C115.548 84.9491 115.548 86.1631 114.978 87.1524C114.408 88.1361 113.347 88.7488 112.207 88.7488H111.423C108.151 100.778 98.7343 110.182 86.6713 113.482C74.6031 116.776 61.6942 113.465 52.7233 104.78C51.9899 105.337 51.1153 105.669 50.1957 105.742C49.3438 105.747 48.5257 105.41 47.922 104.809C47.3183 104.213 46.9798 103.398 46.9854 102.549V97.5632C41.7271 88.7945 40.5648 78.1761 43.7865 68.4804C47.0137 58.7842 54.3087 50.9597 63.7819 47.0471ZM64.6056 57.6539C59.5335 60.5767 55.6349 65.1522 53.5643 70.6158C51.4993 76.0737 51.3865 82.0768 53.254 87.6085L51.7871 86.7653C51.048 86.3437 50.1735 86.2257 49.3554 86.4449C48.5316 86.6641 47.832 87.1981 47.4088 87.9345C47.0082 88.8114 46.8615 89.7839 46.9913 90.7394C44.1535 83.0836 44.334 74.6402 47.4935 67.1145C50.6529 59.5887 56.5601 53.5343 64.0241 50.1736L64.5996 57.655L64.6056 57.6539ZM75.6301 57.2717H75.6244C81.6105 56.822 87.5291 58.7837 92.0539 62.7127C96.5844 66.6417 99.3378 72.2177 99.7045 78.1873L96.3588 83.9599L96.3532 83.9656C95.7664 84.9436 95.7664 86.1689 96.3532 87.1526C96.6353 87.636 97.0359 88.0407 97.5211 88.3217L97.8709 88.496H97.8652C95.1514 94.6734 89.7802 99.2994 83.2527 101.087C76.7306 102.874 69.7401 101.632 64.2393 97.703C64.685 96.9723 64.8204 96.0842 64.606 95.2523C64.3916 94.4204 63.8443 93.7066 63.0996 93.2794L57.5365 90.081C54.8621 85.1009 54.1852 79.2944 55.6351 73.8365C57.0908 68.373 60.5663 63.6683 65.362 60.6554C66.4058 61.9819 68.3015 62.2742 69.695 61.3186L75.6192 57.2772L75.6301 57.2717ZM80.4935 53.9609H80.4878C81.4357 53.3201 81.966 52.2241 81.8758 51.083C81.7912 49.9475 81.0972 48.9414 80.0647 48.4524L77.7345 47.3394C85.2665 47.4406 92.5276 50.1499 98.266 55.012C104.01 59.8685 107.869 66.5743 109.178 73.9602L108.484 72.763V72.7686C107.936 71.7512 106.876 71.1049 105.713 71.0879C104.557 71.071 103.473 71.6837 102.898 72.6843L102.108 74.0445C100.946 68.8508 98.17 64.1629 94.1755 60.633C90.181 57.1031 85.1765 54.9108 79.8675 54.3768L80.4825 53.9609L80.4935 53.9609ZM107.243 123.964C106.532 124.143 105.793 123.772 105.511 123.092L104.303 120.164L101.341 124.576L98.0634 129.483L109.082 131.754V131.76C108.789 131.125 108.541 130.473 108.326 129.804C108.275 129.416 108.377 129.022 108.614 128.708C108.851 128.393 109.206 128.19 109.596 128.134C111.429 127.904 113.229 127.437 114.939 126.74C122.059 123.778 126.51 119.483 128.688 114.509C131.08 109.051 130.764 102.711 128.265 96.3594L128.259 96.365C127.926 95.505 127.531 94.6674 127.086 93.858C129.405 108.377 122.329 120.883 107.249 123.964L107.243 123.964ZM111.864 130.748L112.874 133.21L112.879 133.204C113.088 133.716 112.998 134.295 112.642 134.716C112.287 135.138 111.728 135.329 111.192 135.217L95.3044 131.94V131.934C94.8135 131.833 94.4073 131.501 94.2211 131.04C94.0349 130.579 94.097 130.057 94.3791 129.646L98.8702 122.935L103.372 116.201C103.688 115.723 104.247 115.47 104.817 115.554C105.387 115.633 105.855 116.027 106.03 116.572L107.779 120.816C124.005 116.819 127.668 101.001 122.115 86.9497C121.856 86.2696 122.126 85.5107 122.753 85.1454C123.385 84.78 124.18 84.9205 124.648 85.477C127.312 88.3718 129.472 91.6882 131.024 95.2968C133.805 102.357 134.127 109.484 131.402 115.707C128.925 121.362 123.96 126.213 116.073 129.484H116.079C114.719 130.035 113.314 130.462 111.875 130.754L111.864 130.748ZM47.4427 35.6196H47.4483C48.1648 35.4397 48.9039 35.8107 49.1804 36.4908L50.3878 39.4194L56.6278 30.0942L45.6146 27.8234C45.9024 28.4586 46.1563 29.1106 46.3707 29.7739C46.4214 30.1674 46.3199 30.5608 46.0829 30.87C45.8403 31.1848 45.4905 31.3927 45.1012 31.4433C43.2676 31.6738 41.4678 32.1403 39.7583 32.8373C32.638 35.7996 28.1865 40.094 26.0088 45.0685C23.6166 50.5265 23.9325 56.8668 26.4432 63.2181C26.7761 64.0781 27.171 64.9157 27.6167 65.7251C25.2978 51.206 32.373 38.6999 47.4534 35.6191L47.4427 35.6196ZM42.8219 28.8352H42.8276C41.3888 29.1275 39.9839 29.549 38.6242 30.1055C30.7367 33.3881 25.7718 38.2333 23.2953 43.8824C20.5702 50.0992 20.8918 57.2321 23.6733 64.2927C25.2305 67.8957 27.3857 71.212 30.0545 74.1012C30.5171 74.6633 31.3183 74.8038 31.9502 74.4385C32.5764 74.0787 32.8472 73.3086 32.5877 72.6341C27.0359 58.5762 30.692 42.7642 46.9184 38.7682L48.6674 43.012H48.6618C48.8367 43.5516 49.3049 43.9506 49.8748 44.0293C50.439 44.108 51.0032 43.8551 51.3191 43.3829L60.3238 29.9151H60.3294C60.6003 29.5048 60.651 28.9877 60.4592 28.5324C60.273 28.0771 59.8724 27.7454 59.3872 27.6442L43.4994 24.3673C42.9634 24.2493 42.3992 24.4404 42.0437 24.8563C41.6883 25.2779 41.598 25.8625 41.8068 26.3684L42.8167 28.8303L42.8219 28.8352ZM66.3995 74.882H61.5813V77.1866H66.3939V74.882H66.3995ZM60.0974 71.9141H62.5009L62.5065 69.025C62.4953 68.6202 62.6476 68.2324 62.9297 67.9457C63.2062 67.6591 63.5955 67.4961 63.996 67.4961C64.4023 67.4961 64.7859 67.6591 65.068 67.9457C65.3445 68.2324 65.4968 68.6202 65.4855 69.025V71.9253H67.8891V71.9197C68.7072 71.9309 69.3672 72.5886 69.3729 73.4036V78.6817C69.3672 79.4967 68.7015 80.1599 67.8834 80.1599H65.4799V90.0752C65.4517 90.8734 64.7916 91.5086 63.9905 91.5086C63.1837 91.5086 62.5292 90.8734 62.5011 90.0752V80.1599H60.0975C59.7026 80.1599 59.3189 80.0082 59.0425 79.7271C58.7604 79.4517 58.608 79.0751 58.608 78.6816V73.4035C58.608 72.5885 59.2738 71.9196 60.0974 71.9196L60.0974 71.9141ZM79.7203 82.4421H74.9021V84.7468H79.7147V82.4421H79.7203ZM73.4126 79.4855C73.0176 79.4855 72.6396 79.6373 72.3631 79.9183C72.081 80.1937 71.9231 80.5759 71.9231 80.9694V86.2419C71.9231 86.6354 72.081 87.012 72.3631 87.2874C72.6396 87.5685 73.0176 87.7258 73.4126 87.7258H75.8161V90.0754H75.8217C75.8443 90.8736 76.5044 91.5087 77.3111 91.5087C78.1123 91.5087 78.7724 90.8736 78.8006 90.0754V87.7258H81.2041C82.0278 87.7258 82.6935 87.0626 82.6935 86.242V80.9695C82.6935 80.1488 82.0278 79.4856 81.2041 79.4856H78.8006V69.0251C78.8118 68.6204 78.6595 68.2325 78.3774 67.9459C78.101 67.6592 77.7117 67.4962 77.3111 67.4962C76.9105 67.4962 76.5212 67.6592 76.2391 67.9459C75.9626 68.2325 75.8103 68.6204 75.8216 69.0251V79.4856L73.4126 79.4855ZM93.0355 77.001H88.2229V79.3056H93.0355V77.001ZM86.7334 74.0331C85.9153 74.0331 85.2496 74.6964 85.2496 75.517V80.7895C85.2496 81.1829 85.4019 81.5595 85.684 81.8406C85.9605 82.116 86.3441 82.2734 86.7334 82.2734H89.1426V90.0753C89.1708 90.8735 89.8253 91.5087 90.632 91.5087C91.4388 91.5087 92.0933 90.8735 92.1214 90.0753V82.2734H94.525C95.3487 82.2734 96.0144 81.6101 96.0144 80.7895V75.517C96.0144 74.6964 95.3486 74.0332 94.525 74.0332H92.1214V69.0249C92.1327 68.6202 91.9804 68.2323 91.7039 67.9457C91.4218 67.659 91.0325 67.496 90.632 67.496C90.2314 67.496 89.8421 67.659 89.5656 67.9457C89.2835 68.2323 89.1312 68.6202 89.1425 69.0249V74.0332L86.7334 74.0331ZM120.936 13.968H114.278V17.3236C114.278 17.9757 113.844 18.5546 113.212 18.7401C112.224 19.0324 111.271 19.4259 110.368 19.9149C109.781 20.2297 109.059 20.1172 108.602 19.6451L106.289 17.2899L101.578 21.9834L103.874 24.3273V24.3217C104.359 24.7826 104.478 25.5133 104.162 26.1036C103.688 26.9861 103.298 27.9079 103.005 28.8635C102.847 29.5324 102.249 29.9989 101.561 29.9989H98.1869V36.6317H101.555C102.21 36.6317 102.791 37.0589 102.977 37.6884C103.276 38.6384 103.654 39.5602 104.111 40.4427C104.478 41.0273 104.393 41.7861 103.902 42.2751L101.521 44.6471L106.232 49.3406L108.619 46.9686H108.613C109.076 46.5077 109.787 46.4009 110.362 46.71C111.248 47.1878 112.179 47.57 113.138 47.8623C113.804 48.0253 114.272 48.6155 114.278 49.3013V52.6569H120.935V49.3069C120.935 48.6549 121.364 48.0759 121.996 47.8904C122.955 47.6037 123.88 47.2271 124.761 46.7606C125.347 46.3952 126.109 46.4795 126.6 46.9685L128.981 49.3405L133.686 44.6471L131.305 42.2695L131.311 42.2751C130.848 41.8142 130.741 41.1059 131.051 40.527C131.531 39.6502 131.915 38.7227 132.208 37.7671C132.372 37.1038 132.964 36.6317 133.652 36.6317H137.021V29.9989H133.658C132.998 29.9989 132.422 29.5661 132.231 28.9422C131.949 27.9866 131.57 27.0648 131.102 26.1879C130.735 25.6033 130.82 24.8445 131.311 24.3555L133.692 21.9835L128.986 17.29L126.6 19.662C126.137 20.1229 125.421 20.2297 124.845 19.915C123.96 19.4428 123.034 19.055 122.075 18.7627C121.404 18.6053 120.935 18.0095 120.935 17.3237L120.936 13.968ZM112.789 11.0001C111.965 11.0001 111.299 11.6634 111.299 12.484V16.2612L109.968 16.8121L107.434 14.2264C107.164 13.906 106.774 13.7149 106.357 13.698C105.939 13.6812 105.539 13.8442 105.245 14.1365L98.4355 20.9266C97.86 21.5 97.8544 22.4275 98.4186 23.0064L101.048 25.6876L100.484 27.0423L96.6978 27.0366C95.874 27.0366 95.2083 27.6999 95.2083 28.5205V38.1211C95.2083 38.9418 95.8741 39.605 96.6978 39.605H100.484C100.653 40.0603 100.839 40.4987 101.042 40.9427L98.3621 43.6127V43.6071C97.781 44.1861 97.781 45.1248 98.3621 45.7093L105.178 52.4995L105.172 52.4939C105.753 53.0728 106.695 53.0728 107.282 52.4939L109.956 49.8239C110.408 50.0318 110.837 50.1948 111.299 50.3747V54.152C111.299 54.9726 111.965 55.6358 112.789 55.6358H122.425C123.243 55.6358 123.909 54.9726 123.909 54.152V50.3747L125.252 49.8239L127.932 52.4939V52.4882C128.513 53.0672 129.455 53.0672 130.036 52.4882L136.852 45.6981V45.7037C137.128 45.4226 137.286 45.046 137.286 44.6526C137.286 44.2591 137.128 43.8825 136.852 43.6014L134.172 40.9314L134.73 39.5937H138.516V39.5993C139.334 39.5937 140 38.9304 140 38.1154V28.5148C140 27.6942 139.334 27.0309 138.511 27.0309H134.725L134.166 25.6932L136.846 23.0232L136.852 23.0288C137.128 22.7477 137.286 22.3711 137.286 21.9777C137.286 21.5842 137.128 21.2076 136.852 20.9322L130.036 14.1364C129.754 13.861 129.376 13.7036 128.981 13.7036C128.586 13.7036 128.208 13.861 127.932 14.1364L125.252 16.812L123.909 16.2555V12.4839C123.909 11.6632 123.243 11 122.425 11L112.789 11.0001ZM123.492 27.4532C121.111 25.0812 117.534 24.3729 114.419 25.6545C111.311 26.9417 109.285 29.9601 109.285 33.3158C109.285 36.6715 111.31 39.69 114.419 40.9771C117.534 42.2587 121.111 41.5505 123.492 39.1784C126.741 35.9408 126.741 30.6909 123.492 27.4532ZM117.613 22.0515C113.043 22.0515 108.924 24.7944 107.175 29.0045C105.426 33.209 106.391 38.0543 109.623 41.2694C112.856 44.4902 117.714 45.4571 121.934 43.7145C126.16 41.972 128.913 37.8631 128.913 33.3101C128.913 30.3254 127.723 27.4587 125.601 25.3509C123.486 23.2373 120.608 22.0515 117.613 22.0515ZM19.7015 125.932H35.6009C36.2441 125.887 36.7462 125.353 36.7462 124.706C36.7462 124.06 36.2441 123.526 35.6009 123.481H19.7015C19.0583 123.526 18.5561 124.06 18.5561 124.706C18.5561 125.353 19.0583 125.887 19.7015 125.932ZM29.1575 104.291C28.5481 103.684 27.6341 103.504 26.8386 103.83C26.0431 104.156 25.524 104.932 25.524 105.792C25.524 106.646 26.043 107.422 26.8386 107.748C27.6341 108.08 28.5481 107.894 29.1575 107.287C29.9869 106.461 29.9869 105.117 29.1575 104.291ZM31.1943 133.852H24.108C24.7738 135.189 26.1505 136.038 27.6512 136.038C29.152 136.038 30.5286 135.189 31.1943 133.852ZM37.0845 128.624C38.969 127.91 40.0804 125.971 39.7362 123.992C39.3977 122.014 37.6937 120.558 35.6852 120.513V118.175C42.9464 114.476 46.7153 106.303 44.8083 98.4063C42.9013 90.5032 35.8037 84.9384 27.6509 84.9384C19.4926 84.9384 12.4 90.5032 10.4934 98.4063C8.58081 106.304 12.3553 114.477 19.6165 118.175V120.507C17.6024 120.552 15.9041 122.008 15.5656 123.987C15.2214 125.965 16.3329 127.905 18.2116 128.619V132.362V132.357C18.2116 133.177 18.8774 133.84 19.701 133.84H20.9874C21.2808 135.071 21.924 136.19 22.8379 137.067C24.6095 138.77 27.1484 139.405 29.5124 138.742C31.8764 138.079 33.71 136.213 34.325 133.841H35.6057C36.4238 133.841 37.0895 133.177 37.0951 132.357V128.613L37.0845 128.624ZM21.1851 128.894H34.1052V130.884H21.1907V128.894H21.1851ZM29.129 110.654V120.513H32.6948L32.7005 117.247C32.7005 116.663 33.0503 116.129 33.5863 115.893C39.9222 113.099 43.4316 106.269 42.0097 99.5128C40.5823 92.7564 34.6074 87.9168 27.679 87.9C20.7506 87.8831 14.7532 92.6946 13.2976 99.4453C11.8364 106.19 15.3118 113.037 21.6364 115.864C22.2119 116.083 22.5899 116.634 22.5899 117.247V120.512H26.1558V110.653C23.7353 109.922 22.2232 107.533 22.5957 105.038C22.9681 102.548 25.1177 100.704 27.6453 100.704C30.1729 100.704 32.3226 102.548 32.6949 105.038C33.0673 107.534 31.5552 109.922 29.1349 110.653L29.129 110.654ZM112.123 33.1469C111.92 32.804 111.863 32.3993 111.959 32.0171C112.061 31.6292 112.315 31.3032 112.659 31.1065C113.003 30.9097 113.409 30.8591 113.793 30.9659C114.177 31.0728 114.504 31.3257 114.696 31.6742L116.01 33.945L120.749 29.2235V29.2291C121.331 28.6502 122.273 28.6502 122.854 29.2291C123.435 29.8081 123.435 30.7468 122.854 31.3257L116.744 37.402C116.422 37.728 115.959 37.8798 115.502 37.8179C115.045 37.7617 114.645 37.4919 114.413 37.0928L112.123 33.1469Z" fill="#663366"/>
</svg>
