<svg width="150" height="150" viewBox="0 0 150 150" fill="none" xmlns="http://www.w3.org/2000/svg">
<path d="M71.0535 95.8567C73.0919 95.8567 74.938 94.6243 75.7179 92.7366C76.498 90.849 76.0664 88.6806 74.6207 87.235C73.1752 85.7894 71.0068 85.3577 69.1191 86.143C67.2315 86.923 65.999 88.7639 65.999 90.8074C66.0042 93.5947 68.2662 95.8515 71.0535 95.8567ZM71.0535 88.3583C72.0415 88.3583 72.936 88.9511 73.3155 89.8663C73.6951 90.7867 73.4819 91.8371 72.7851 92.5391C72.0831 93.2411 71.0275 93.4491 70.1123 93.0695C69.1971 92.6899 68.5991 91.7955 68.5991 90.8075C68.6043 89.4555 69.6962 88.3583 71.0535 88.3583Z" fill="#663366"/>
<path d="M119.367 95.8567C121.411 95.8567 123.252 94.6243 124.037 92.7366C124.817 90.849 124.385 88.6806 122.939 87.235C121.494 85.7894 119.32 85.3577 117.433 86.143C115.55 86.923 114.318 88.7639 114.318 90.8074C114.323 93.5947 116.58 95.8515 119.367 95.8567ZM119.367 88.3583C120.36 88.3583 121.255 88.9511 121.634 89.8663C122.014 90.7867 121.801 91.8371 121.099 92.5391C120.402 93.2411 119.346 93.4491 118.431 93.0695C117.516 92.6899 116.918 91.7955 116.918 90.8075C116.918 89.4555 118.015 88.3583 119.367 88.3583Z" fill="#663366"/>
<path d="M83.5602 97.7805H106.856C109.29 97.7753 111.266 95.8045 111.266 93.3709V88.2436C111.266 85.81 109.29 83.834 106.856 83.834H83.5602C81.1266 83.834 79.1558 85.81 79.1558 88.2436V93.3709C79.1558 95.8045 81.1266 97.7753 83.5602 97.7805ZM81.7506 88.2436H81.7558C81.7558 87.2452 82.5618 86.434 83.5602 86.434H106.856C107.855 86.434 108.666 87.2452 108.666 88.2436V89.5072H81.7556L81.7506 88.2436ZM81.7506 92.1072H108.666V93.3708C108.666 94.3692 107.855 95.1753 106.857 95.1804H83.5605H83.5657C82.5673 95.1752 81.756 94.3692 81.756 93.3708L81.7506 92.1072Z" fill="#663366"/>
<path d="M22.423 100.77H25.0126L24.243 109.251C24.0818 110.567 25.9485 111.212 26.635 110.068L35.0955 96.8024C35.3451 96.4072 35.3659 95.9132 35.1527 95.5024C34.9395 95.0916 34.5235 94.8264 34.0607 94.8004L30.4103 94.6288L32.5527 88.5552V88.55C32.6931 88.1548 32.6307 87.7128 32.3863 87.3696C32.1419 87.0264 31.7467 86.8184 31.3255 86.8184H24.6487C24.0299 86.8184 23.4943 87.2604 23.3747 87.8688L21.149 99.2152V99.2204C21.071 99.6 21.175 99.9952 21.4194 100.297C21.669 100.593 22.033 100.77 22.423 100.77ZM25.7198 89.4236L29.4898 89.4184L27.3787 95.4088H27.3735C27.2383 95.7988 27.2955 96.2252 27.5243 96.5684C27.7531 96.9116 28.1275 97.1196 28.5383 97.1404L31.6947 97.2912L27.3162 104.161L27.7322 99.5845C27.7634 99.2205 27.6438 98.8617 27.3994 98.5913C27.1498 98.3209 26.8014 98.1701 26.4374 98.1701H24.0038L25.7198 89.4236Z" fill="#663366"/>
<path d="M37.1341 55.8535H19.2879C17.8943 55.8587 16.7607 56.9871 16.7607 58.3807V70.6216C16.7607 72.0152 17.8943 73.1487 19.2879 73.1487H37.1394C38.5331 73.1487 39.6614 72.0151 39.6614 70.6216V58.3807C39.6614 56.987 38.5329 55.8535 37.1341 55.8535ZM37.0613 70.5487H19.3602V58.4535H37.0613V70.5487Z" fill="#663366"/>
<path d="M22.9846 63.5805H33.4367C34.1543 63.5805 34.7367 63.0033 34.7367 62.2805C34.7367 61.5629 34.1543 60.9805 33.4367 60.9805H22.9846C22.267 60.9805 21.6846 61.5629 21.6846 62.2805C21.6846 63.0033 22.267 63.5805 22.9846 63.5805Z" fill="#663366"/>
<path d="M22.9846 68.0199H28.2106C28.9282 68.0199 29.5106 67.4375 29.5106 66.7199C29.5106 66.0023 28.9282 65.4199 28.2106 65.4199H22.9846C22.267 65.4199 21.6846 66.0023 21.6846 66.7199C21.6846 67.4375 22.267 68.0199 22.9846 68.0199Z" fill="#663366"/>
<path d="M137.911 50.6057H136.59C136.569 48.9573 136.465 48.0576 135.93 47.3401C135.129 46.2689 133.896 46.2689 132.024 46.2689L128.509 46.2741V43.9393L128.504 43.9445C128.499 39.9457 125.259 36.706 121.265 36.7008H114.225V36.4096C114.219 33.976 112.248 32.0052 109.815 32H80.455C78.0215 32.0052 76.0506 33.976 76.0454 36.4096V36.7008H69.1814C65.1826 36.706 61.943 39.9457 61.9378 43.9445V46.2949L58.4122 46.2897C56.5402 46.2897 55.3026 46.2897 54.5018 47.3557C53.961 48.0733 53.857 48.9676 53.8362 50.6213H52.5049C51.3505 50.6213 50.4145 51.5573 50.4145 52.7117V61.8637C50.4145 63.0182 51.3505 63.9541 52.5049 63.9541H57.757C58.9166 63.9541 59.8526 63.0181 59.8526 61.8637V52.7117C59.8526 51.5521 58.9166 50.6213 57.757 50.6213H56.4362C56.4206 50.0649 56.4622 49.5137 56.5662 48.9676C57.1798 48.8948 57.7986 48.8688 58.4121 48.8896L61.9377 48.8948V77.428H58.4225C56.5193 77.4332 54.8866 78.8061 54.5538 80.6832C52.7182 81.2656 51.4753 82.9608 51.4702 84.8848L51.4598 101.01C51.4598 102.008 50.6485 102.819 49.6501 102.819H46.4209V57.5529C46.4157 53.5593 43.1812 50.3248 39.1876 50.3196H17.2333C13.2396 50.3248 10.0052 53.5593 10 57.5529V117.322C10 117.665 10.1352 117.992 10.3796 118.237C10.624 118.481 10.9568 118.622 11.3 118.622H45.1208C45.464 118.622 45.7968 118.481 46.0412 118.237C46.2856 117.992 46.4208 117.665 46.4208 117.322V105.419H49.65C52.0836 105.419 54.0545 103.448 54.0597 101.014L54.0701 84.8893V84.8841C54.0701 84.3589 54.3041 83.8545 54.7045 83.5114C55.2505 85.1026 56.7428 86.1686 58.4225 86.1738H61.9377V101.019H61.9429C61.9429 104.743 64.7717 107.857 68.4741 108.227V115.538C68.4793 117.238 69.8574 118.616 71.5577 118.622H77.5897C79.2901 118.616 80.6681 117.238 80.6733 115.538V108.263H109.278V115.283C109.278 117.186 110.604 118.627 112.362 118.627H118.394L118.389 118.622C120.094 118.616 121.472 117.238 121.472 115.538V108.258C125.388 108.138 128.498 104.935 128.503 101.019V48.8786L132.018 48.8734H132.023C132.637 48.8474 133.25 48.8734 133.859 48.9514C133.963 49.4974 134.004 50.0486 133.984 50.605H132.673C131.519 50.605 130.583 51.541 130.583 52.7006V61.8631C130.583 63.0175 131.519 63.9535 132.673 63.9535H137.91C139.064 63.9535 140 63.0175 140 61.8631V52.7006C140 51.541 139.065 50.6057 137.911 50.6057ZM57.258 53.2213V61.3542H53.0148V53.2213H57.258ZM43.8208 116.022H12.5999V79.3316H43.8208V116.022ZM43.8208 76.7358L12.5999 76.7306V57.5531C12.6051 54.9947 14.6747 52.9251 17.2332 52.9199H39.1875C41.746 52.9251 43.8156 54.9947 43.8208 57.5531V76.7358ZM61.9425 83.579L58.4222 83.5738C57.689 83.5738 57.0909 82.9758 57.0909 82.2374V81.3638C57.0909 80.6306 57.689 80.0326 58.4222 80.0274H61.9373L61.9425 83.579ZM78.6452 36.4142V36.409C78.6452 35.4106 79.4565 34.6045 80.4549 34.5993H109.815C110.813 34.6045 111.624 35.4106 111.624 36.409V39.5966C111.624 40.595 110.813 41.401 109.815 41.401H80.4549C79.4565 41.401 78.6452 40.595 78.6452 39.5966V36.4142ZM64.5424 49.9034L93.8557 49.8982L93.8661 73.7295L88.3228 73.7243C87.6364 69.1638 83.7156 65.7891 79.1031 65.7891C74.4907 65.7891 70.5751 69.164 69.8886 73.7243H64.5429L64.5424 49.9034ZM85.6807 73.7347L72.5298 73.7243C73.185 70.6147 75.9254 68.3891 79.1026 68.3891C82.2798 68.3891 85.0255 70.6147 85.6807 73.7243V73.7347ZM78.0731 115.537C78.0731 115.803 77.8547 116.021 77.5895 116.021H71.5575C71.2923 116.021 71.0739 115.803 71.0739 115.537V108.263H78.0679L78.0731 115.537ZM118.872 115.537C118.872 115.803 118.659 116.021 118.388 116.021H112.356C112.003 116.021 111.873 115.636 111.873 115.277V108.257H118.867L118.872 115.537ZM125.902 101.019C125.902 103.583 123.822 105.658 121.264 105.663H69.1803C66.6167 105.658 64.5419 103.583 64.5419 101.019V76.3239H125.903L125.902 101.019ZM125.902 73.724H96.4707L96.4603 49.8927L125.903 49.8979L125.902 73.724ZM125.902 47.2928L64.5416 47.298V43.9441C64.5416 41.3804 66.6164 39.3056 69.1801 39.3004H76.0441V39.5968C76.0493 42.0252 78.0201 44.0013 80.4537 44.0013H109.814C112.247 44.0013 114.218 42.0252 114.223 39.5968V39.3056H121.264V39.3004C123.823 39.3056 125.903 41.3804 125.903 43.9441L125.902 47.2928ZM137.4 61.3531H133.182V53.2046H137.4V61.3531Z" fill="#663366"/>
</svg>
