<svg width="150" height="150" viewBox="0 0 150 150" fill="none" xmlns="http://www.w3.org/2000/svg">
<path d="M122.876 116.958V45.1914C124.071 45.5826 125.266 45.7782 126.461 45.7782C127.46 45.7782 128.656 45.5826 129.851 45.1914V124.704L122.876 116.958ZM27.1047 117.154L20.1296 124.704V45.1914C21.3248 45.5826 22.52 45.7782 23.7151 45.7782C24.7144 45.7782 25.9096 45.5826 27.1047 45.1914V117.154ZM85.0415 23.1274C85.2374 23.1274 85.2374 23.1274 85.2374 23.323V41.0055C85.2374 41.2011 85.2374 41.2011 85.0415 41.2011H64.939C64.743 41.2011 64.743 41.2011 64.743 41.0055V23.3425C64.743 23.1469 64.743 23.1469 64.939 23.1469H85.0415V23.1274ZM80.6722 19.5674H69.3082V14.5795H80.6526V19.5674H80.6722ZM71.1108 44.8001H78.8696V47.3821L75.0882 52.7416L71.1108 47.3821V44.8001ZM61.1575 28.702V35.4503H27.4966C25.3022 35.4503 24.107 34.0616 24.107 32.0664C24.107 30.0713 25.3022 28.6825 27.4966 28.6825H61.1575V28.702ZM88.8229 28.702H122.66C124.659 28.702 125.854 30.0908 125.854 32.086C125.854 34.0811 124.659 35.4699 122.66 35.4699H88.8229V28.702ZM114.705 25.1225H88.8229V23.3425C88.8229 21.1518 87.0399 19.5674 85.0415 19.5674H84.2381V14.1883C84.2381 12.4083 82.6511 11 81.0445 11H68.8968C67.3097 11 65.7031 12.3888 65.7031 14.1883V19.5674H64.8998C62.9013 19.5674 61.1183 21.1518 61.1183 23.3425V25.1225H35.2751C32.8847 21.1518 28.5154 18.5698 23.7347 18.5698C16.1718 18.5698 10 24.7313 10 32.086C10 37.0543 12.7822 41.4358 16.7596 43.8221V128.694L14.5652 131.061C13.1741 132.45 12.9781 135.442 14.1733 137.222C15.3685 139.218 17.7589 140 20.1492 140H129.851C132.241 140 134.632 139.198 135.827 137.222C137.022 135.442 136.826 132.45 135.435 131.061L133.24 128.675V43.8026C137.218 41.4162 140 37.0543 140 32.0664C140 24.7118 133.828 18.5503 126.461 18.5503C121.68 18.5698 117.096 21.1518 114.705 25.1225ZM119.094 39.0299H122.68C126.657 39.0299 129.439 36.0567 129.439 32.0664C129.439 28.2913 126.657 25.103 122.68 25.103H119.094C121.093 23.1078 123.679 22.1298 126.461 22.1298C132.045 22.1298 136.414 26.5113 136.414 32.0664C136.414 36.0371 134.22 39.4211 130.83 41.2011H130.635C129.243 41.7879 127.852 42.1986 126.461 42.1986C123.463 42.2182 120.877 41.025 119.094 39.0299ZM132.437 133.056L132.829 133.447C133.025 134.034 133.221 134.64 132.829 135.442C132.241 136.44 130.83 136.636 129.635 136.636H20.3451C19.15 136.636 17.7589 136.44 17.1515 135.442C16.7596 134.64 16.9555 134.054 17.1515 133.447L17.5433 133.056H132.437ZM76.6752 102.053L92.9962 92.9184V113.183L76.6752 122.122V102.053ZM56.9646 92.8989L73.2856 102.034V122.102L56.9646 113.163V92.8989ZM58.7671 90.1213L75.0882 81.1823L91.2133 90.1213L75.0882 98.8647L58.7671 90.1213ZM96.6014 105.613H104.772C107.554 106.004 108.945 106.611 110.943 108.801L129.263 129.477H20.737L39.0565 108.801C41.055 106.611 42.4461 106.024 45.2283 105.613H53.3986V114.161C53.3986 114.748 53.7905 115.354 54.3979 115.745L74.1085 126.679C74.6963 126.875 75.3037 127.071 75.8915 126.679L95.4062 115.745C95.994 115.55 96.6014 114.943 96.6014 114.161V105.613ZM96.6014 90.5125C96.6014 89.5149 96.4054 88.9281 95.6021 88.5174L75.8915 77.5832C75.3037 77.192 74.6963 77.192 74.1085 77.5832L54.3979 88.5174C53.5946 88.9086 53.3986 89.7105 53.3986 90.5125V102.249H45.0324C41.2509 102.64 39.0565 103.442 36.4702 106.415L30.4943 113.163V43.8026C32.4928 42.6094 34.0799 41.025 35.2751 39.0299H61.1575V41.025C61.1575 43.0202 62.9405 44.8001 64.939 44.8001H67.7212V47.9885C67.7212 48.3797 67.7212 48.5753 67.9171 48.986L73.5011 56.7319C74.3045 57.7295 75.6956 57.7295 76.4793 56.7319L81.8478 49.1817C82.2396 48.7904 82.2396 48.3797 82.2396 47.9885V44.8001H85.0219C87.0203 44.8001 88.8033 43.0202 88.8033 41.025V39.0299H114.686C115.881 41.025 117.468 42.6094 119.466 43.8026V113.163L113.491 106.415C110.904 103.442 108.71 102.64 104.928 102.249H96.5622V90.5125H96.6014ZM75.0882 69.2505C77.2826 69.2505 77.2826 65.671 75.0882 65.671C72.6978 65.671 72.6978 69.2505 75.0882 69.2505ZM75.0882 63.2846C77.2826 63.2846 77.2826 59.7051 75.0882 59.7051C72.6978 59.7051 72.6978 63.2846 75.0882 63.2846ZM75.0882 75.0208C77.2826 75.0208 77.2826 71.4412 75.0882 71.4412C72.6978 71.4412 72.6978 75.0208 75.0882 75.0208ZM30.8862 25.1225H27.4966C23.3233 25.1225 20.5215 28.3108 20.5215 32.086C20.5215 36.0567 23.3037 39.0494 27.4966 39.0494H30.8862C29.1032 41.0446 26.4974 42.2378 23.7151 42.2378C18.1311 42.2378 13.5659 37.6607 13.5659 32.1055C13.5659 26.5504 18.1507 22.1689 23.7151 22.1689C26.3014 22.1494 29.1032 23.1274 30.8862 25.1225Z" fill="#663366"/>
</svg>
