<svg width="150" height="150" viewBox="0 0 150 150" fill="none" xmlns="http://www.w3.org/2000/svg">
<path d="M92.3333 25.167H36C34.2767 25.1689 32.6245 25.8543 31.4059 27.0729C30.1873 28.2915 29.5019 29.9437 29.5 31.667V44.667C29.5019 46.3903 30.1873 48.0425 31.4059 49.2611C32.6245 50.4797 34.2767 51.1651 36 51.167H92.3333C94.0567 51.1651 95.7089 50.4797 96.9275 49.2611C98.146 48.0425 98.8315 46.3903 98.8333 44.667V31.667C98.8315 29.9437 98.146 28.2915 96.9275 27.0729C95.7089 25.8543 94.0567 25.1689 92.3333 25.167ZM94.5 44.667C94.4996 45.2415 94.2712 45.7924 93.865 46.1986C93.4587 46.6049 92.9079 46.8333 92.3333 46.8337H36C35.4255 46.8333 34.8746 46.6049 34.4684 46.1986C34.0621 45.7924 33.8337 45.2415 33.8333 44.667V31.667C33.8337 31.0925 34.0621 30.5416 34.4684 30.1354C34.8746 29.7291 35.4255 29.5007 36 29.5003H92.3333C92.9079 29.5007 93.4587 29.7291 93.865 30.1354C94.2712 30.5416 94.4996 31.0925 94.5 31.667V44.667Z" fill="#663366"/>
<path d="M40.3333 55.5H36C35.4254 55.5 34.8743 55.7283 34.4679 56.1346C34.0616 56.5409 33.8333 57.092 33.8333 57.6667C33.8333 58.2413 34.0616 58.7924 34.4679 59.1987C34.8743 59.6051 35.4254 59.8333 36 59.8333H40.3333C40.908 59.8333 41.4591 59.6051 41.8654 59.1987C42.2717 58.7924 42.5 58.2413 42.5 57.6667C42.5 57.092 42.2717 56.5409 41.8654 56.1346C41.4591 55.7283 40.908 55.5 40.3333 55.5Z" fill="#663366"/>
<path d="M53.3333 55.5H49C48.4254 55.5 47.8743 55.7283 47.4679 56.1346C47.0616 56.5409 46.8333 57.092 46.8333 57.6667C46.8333 58.2413 47.0616 58.7924 47.4679 59.1987C47.8743 59.6051 48.4254 59.8333 49 59.8333H53.3333C53.908 59.8333 54.4591 59.6051 54.8654 59.1987C55.2717 58.7924 55.5 58.2413 55.5 57.6667C55.5 57.092 55.2717 56.5409 54.8654 56.1346C54.4591 55.7283 53.908 55.5 53.3333 55.5Z" fill="#663366"/>
<path d="M66.3333 55.5H62C61.4254 55.5 60.8743 55.7283 60.4679 56.1346C60.0616 56.5409 59.8333 57.092 59.8333 57.6667C59.8333 58.2413 60.0616 58.7924 60.4679 59.1987C60.8743 59.6051 61.4254 59.8333 62 59.8333H66.3333C66.908 59.8333 67.4591 59.6051 67.8654 59.1987C68.2717 58.7924 68.5 58.2413 68.5 57.6667C68.5 57.092 68.2717 56.5409 67.8654 56.1346C67.4591 55.7283 66.908 55.5 66.3333 55.5Z" fill="#663366"/>
<path d="M79.3333 55.5H75C74.4254 55.5 73.8743 55.7283 73.4679 56.1346C73.0616 56.5409 72.8333 57.092 72.8333 57.6667C72.8333 58.2413 73.0616 58.7924 73.4679 59.1987C73.8743 59.6051 74.4254 59.8333 75 59.8333H79.3333C79.908 59.8333 80.4591 59.6051 80.8654 59.1987C81.2717 58.7924 81.5 58.2413 81.5 57.6667C81.5 57.092 81.2717 56.5409 80.8654 56.1346C80.4591 55.7283 79.908 55.5 79.3333 55.5Z" fill="#663366"/>
<path d="M92.3333 55.5H88C87.4254 55.5 86.8743 55.7283 86.4679 56.1346C86.0616 56.5409 85.8333 57.092 85.8333 57.6667C85.8333 58.2413 86.0616 58.7924 86.4679 59.1987C86.8743 59.6051 87.4254 59.8333 88 59.8333H92.3333C92.908 59.8333 93.4591 59.6051 93.8654 59.1987C94.2717 58.7924 94.5 58.2413 94.5 57.6667C94.5 57.092 94.2717 56.5409 93.8654 56.1346C93.4591 55.7283 92.908 55.5 92.3333 55.5Z" fill="#663366"/>
<path d="M135.591 45.0422C135.628 44.9197 135.653 44.7939 135.667 44.6667V38.1667C135.667 37.6596 135.489 37.1686 135.165 36.7787L124.332 23.7787C123.964 23.337 123.435 23.0597 122.863 23.0077C122.29 22.9558 121.72 23.1334 121.279 23.5015C120.837 23.8696 120.56 24.3981 120.508 24.9707C120.456 25.5433 120.633 26.1131 121.001 26.5547L131.333 38.9517V44.6667H129.167C126.295 44.67 123.541 45.8125 121.51 47.8434C119.479 49.8743 118.337 52.6279 118.333 55.5V59.8333C118.337 62.7055 119.479 65.459 121.51 67.4899C123.541 69.5208 126.295 70.6633 129.167 70.6667H131.333V111.833C131.333 112.983 130.877 114.085 130.064 114.897C129.251 115.71 128.149 116.167 127 116.167C125.851 116.167 124.749 115.71 123.936 114.897C123.123 114.085 122.667 112.983 122.667 111.833V88C122.663 85.1279 121.521 82.3743 119.49 80.3434C117.459 78.3125 114.705 77.17 111.833 77.1667H109.667V20.8333C109.663 17.9612 108.521 15.2076 106.49 13.1767C104.459 11.1458 101.705 10.0034 98.8333 10H29.5C26.6279 10.0034 23.8743 11.1458 21.8434 13.1767C19.8125 15.2076 18.67 17.9612 18.6667 20.8333V122.667H12.1667C11.8821 122.667 11.6003 122.722 11.3373 122.831C11.0744 122.94 10.8355 123.1 10.6342 123.301C10.433 123.502 10.2734 123.741 10.1646 124.004C10.0558 124.267 9.99984 124.549 10 124.833V137.833C9.99984 138.118 10.0558 138.4 10.1646 138.663C10.2734 138.926 10.433 139.165 10.6342 139.366C10.8355 139.567 11.0744 139.727 11.3373 139.835C11.6003 139.944 11.8821 140 12.1667 140H116.167C116.451 140 116.733 139.944 116.996 139.835C117.259 139.727 117.498 139.567 117.699 139.366C117.9 139.165 118.06 138.926 118.169 138.663C118.278 138.4 118.333 138.118 118.333 137.833V124.833C118.333 124.549 118.278 124.267 118.169 124.004C118.06 123.741 117.9 123.502 117.699 123.301C117.498 123.1 117.259 122.94 116.996 122.831C116.733 122.722 116.451 122.667 116.167 122.667H109.667V81.5H111.833C113.557 81.5019 115.209 82.1873 116.427 83.4059C117.646 84.6245 118.331 86.2767 118.333 88V111.833C118.333 114.132 119.246 116.336 120.872 117.962C122.497 119.587 124.701 120.5 127 120.5C129.299 120.5 131.503 119.587 133.128 117.962C134.754 116.336 135.667 114.132 135.667 111.833V70.2674C136.93 69.8223 138.025 68.9969 138.801 67.9046C139.577 66.8122 139.996 65.5065 140 64.1667V51.1667C139.996 49.8135 139.568 48.4956 138.778 47.3974C137.987 46.2992 136.873 45.4758 135.591 45.0422ZM114 135.667H14.3333V127H114V135.667ZM66.3333 122.667V116.167H68.5C73.67 116.161 78.6266 114.105 82.2824 110.449C85.9381 106.793 87.9944 101.837 88 96.6667C88.0002 96.3821 87.9442 96.1003 87.8354 95.8373C87.7266 95.5744 87.567 95.3355 87.3658 95.1342C87.1645 94.933 86.9256 94.7734 86.6627 94.6646C86.3997 94.5558 86.1179 94.4998 85.8333 94.5H81.5C78.5892 94.5006 75.7157 95.154 73.0909 96.4121C70.4661 97.6703 68.1569 99.5012 66.3333 101.77V85.8333H68.5C72.521 85.8285 76.3758 84.229 79.2191 81.3858C82.0623 78.5425 83.6618 74.6876 83.6667 70.6667C83.6668 70.3821 83.6109 70.1003 83.5021 69.8373C83.3932 69.5744 83.2337 69.3355 83.0324 69.1342C82.8312 68.933 82.5923 68.7734 82.3293 68.6646C82.0664 68.5558 81.7846 68.4998 81.5 68.5H77.1667C73.1457 68.5049 69.2908 70.1044 66.4476 72.9476C63.6044 75.7908 62.0049 79.6457 62 83.6667V90.3917C59.4726 86.3493 55.9597 83.015 51.791 80.7018C47.6222 78.3885 42.9342 77.1721 38.1667 77.1667H31.6667C31.3821 77.1665 31.1003 77.2224 30.8373 77.3313C30.5744 77.4401 30.3355 77.5997 30.1342 77.8009C29.933 78.0021 29.7734 78.2411 29.6646 78.504C29.5558 78.7669 29.4998 79.0488 29.5 79.3333C29.5086 86.801 32.479 93.9602 37.7594 99.2406C43.0398 104.521 50.1991 107.491 57.6667 107.5H62V122.667H23V20.8333C23.0019 19.11 23.6873 17.4578 24.9059 16.2392C26.1245 15.0206 27.7767 14.3352 29.5 14.3333H98.8333C100.557 14.3352 102.209 15.0206 103.427 16.2392C104.646 17.4578 105.331 19.11 105.333 20.8333V122.667H66.3333ZM66.4878 111.833C67.0134 108.225 68.8191 104.927 71.5752 102.54C74.3314 100.154 77.8541 98.8378 81.5 98.8333H83.5122C82.9866 102.441 81.1809 105.74 78.4248 108.126C75.6686 110.513 72.1459 111.829 68.5 111.833H66.4878ZM66.5513 81.5C67.0539 79.0549 68.3842 76.8578 70.3179 75.2791C72.2516 73.7004 74.6704 72.8366 77.1667 72.8333H79.1154C78.6127 75.2785 77.2825 77.4756 75.3488 79.0543C73.4151 80.633 70.9963 81.4967 68.5 81.5H66.5513ZM61.9027 103.167H57.6667C51.7227 103.16 45.9953 100.935 41.6052 96.9273C37.2152 92.9199 34.4785 87.4187 33.9307 81.5H38.1667C44.1106 81.5072 49.8381 83.7321 54.2281 87.7394C58.6181 91.7467 61.3548 97.248 61.9027 103.167ZM135.667 64.1667C135.666 64.7412 135.438 65.2921 135.032 65.6983C134.625 66.1046 134.075 66.333 133.5 66.3333H129.167C127.443 66.3315 125.791 65.646 124.573 64.4275C123.354 63.2089 122.669 61.5567 122.667 59.8333V55.5C122.669 53.7767 123.354 52.1245 124.573 50.9059C125.791 49.6873 127.443 49.0019 129.167 49H133.5C134.075 49.0004 134.625 49.2288 135.032 49.635C135.438 50.0413 135.666 50.5922 135.667 51.1667V64.1667Z" fill="#663366"/>
</svg>
