<svg width="150" height="150" viewBox="0 0 150 150" fill="none" xmlns="http://www.w3.org/2000/svg">
<path d="M134 80.659V85.4034V85.3982C134.026 88.5558 132.001 91.3573 129.012 92.3103L125.925 93.321C124.702 93.6928 123.744 94.6616 123.39 95.8974C122.937 97.3479 122.422 98.7827 121.849 100.176C121.282 101.553 120.642 102.925 119.929 104.286V104.292C119.632 104.847 119.47 105.47 119.46 106.098C119.465 106.737 119.621 107.36 119.913 107.926L121.386 110.837V110.832C122.828 113.634 122.292 117.053 120.064 119.268L113.39 125.971V125.976C111.188 128.223 107.789 128.762 105.009 127.312L102.114 125.83C100.985 125.217 99.6259 125.222 98.5015 125.845C97.148 126.563 95.7788 127.207 94.415 127.778C93.025 128.359 91.609 128.877 90.1618 129.328H90.1566C89.5528 129.506 89.0061 129.83 88.5585 130.281C88.1108 130.726 87.7828 131.27 87.5954 131.878L86.5959 134.983C86.1222 136.444 85.2059 137.722 83.9774 138.628C82.7384 139.528 81.2496 140.005 79.7243 140H70.2966C67.1575 140.031 64.3673 137.994 63.4197 134.983L62.4202 131.878C62.0454 130.652 61.0823 129.694 59.8589 129.333C58.4118 128.877 56.9958 128.359 55.6058 127.783C54.2419 127.212 52.8727 126.568 51.5089 125.851V125.845C50.9571 125.547 50.3376 125.39 49.7076 125.379C49.0829 125.39 48.4634 125.542 47.9064 125.835L45.0119 127.312C42.2215 128.762 38.8223 128.223 36.615 125.976L29.9515 119.268C27.7234 117.053 27.1873 113.634 28.6293 110.832L30.1025 107.921V107.926C30.7168 106.79 30.7064 105.418 30.0817 104.292C29.3789 102.93 28.7334 101.553 28.166 100.181C27.5882 98.7829 27.0728 97.3585 26.6251 95.9028V95.8976C26.4429 95.2901 26.1202 94.7403 25.6829 94.2848C25.2352 93.8397 24.6886 93.5098 24.0899 93.3212L20.9925 92.3106C18.0044 91.3575 15.9794 88.556 16.0002 85.3984V80.6593C16.0002 79.7429 16.7394 78.9993 17.6556 78.9993H45.6833C46.5943 78.9993 47.3335 79.7429 47.3335 80.6593C47.3335 90.6035 52.6069 99.793 61.1708 104.768C69.7343 109.737 80.2814 109.737 88.8453 104.768C97.4088 99.7932 102.682 90.6035 102.682 80.6593C102.688 79.7429 103.427 78.9993 104.338 78.9993H132.355C133.261 78.9993 134 79.7426 134 80.659ZM57.3597 54.4136C60.5821 54.5969 63.2371 57.0162 63.7315 60.2209C64.2261 63.4309 62.4301 66.5467 59.4159 67.7039C56.4018 68.8612 52.992 67.7458 51.2376 65.0228C49.4833 62.2998 49.858 58.7128 52.1382 56.4191C52.6953 55.8535 53.346 55.3875 54.0644 55.0524C52.9503 52.4341 51.1699 50.1667 48.895 48.4754C44.0952 44.9198 37.713 44.3856 32.3871 47.093C27.0668 49.795 23.7091 55.283 23.7039 61.2841C23.7039 61.9963 23.7507 62.7032 23.8444 63.4101C23.8652 63.5619 23.8861 63.7138 23.9173 63.8657C24.2036 63.8342 24.4899 63.8133 24.7815 63.8185C28.0403 63.8185 30.841 66.1384 31.4709 69.3536C32.106 72.5687 30.3933 75.7841 27.3843 77.0356C24.3754 78.2871 20.9031 77.2294 19.0914 74.5064C17.285 71.7781 17.6391 68.1492 19.94 65.8294C20.2055 65.5675 20.4866 65.3214 20.7885 65.1015C20.7105 64.6878 20.6376 64.2689 20.5803 63.8395C19.7786 57.9012 21.7828 51.9263 25.9995 47.6898C26.4004 47.2918 26.8168 46.9095 27.2489 46.5377H27.2541C26.9001 45.7575 26.619 44.9511 26.4056 44.1237C26.0828 42.8826 25.9162 41.6049 25.9162 40.322C25.9162 33.6978 30.2267 27.8537 36.5308 25.9325C37.7802 19.4077 43.4493 14.6948 50.0508 14.6844C51.0295 14.6844 52.0083 14.7891 52.9713 14.9986C54.1166 13.5742 55.5326 12.4012 57.1359 11.5425C62.3001 8.80896 68.6303 9.77778 72.743 13.9409C73.6332 14.8416 74.3932 15.8575 75.0023 16.9676C75.6113 15.8574 76.3765 14.8364 77.2668 13.9409C81.3793 9.77778 87.7147 8.80386 92.8738 11.5425C94.4771 12.4013 95.8983 13.5742 97.0436 14.9933C98.0015 14.7891 98.9802 14.6844 99.9641 14.6844C106.565 14.6949 112.229 19.4077 113.479 25.9272C121.173 28.2628 125.65 36.3061 123.609 44.124C123.391 44.9461 123.11 45.7525 122.766 46.5328C123.198 46.8994 123.609 47.2869 124.01 47.6848C128.227 51.9213 130.236 57.8961 129.435 63.8399C129.377 64.2641 129.304 64.6882 129.226 65.1019H129.221C129.523 65.3218 129.809 65.568 130.075 65.8298C132.386 68.1548 132.745 71.7942 130.934 74.5277C129.122 77.2665 125.639 78.3294 122.62 77.0726C119.601 75.8159 117.883 72.5901 118.518 69.3644C119.153 66.1388 121.969 63.8189 125.239 63.8189C125.525 63.8189 125.811 63.8347 126.098 63.8713C126.129 63.7195 126.15 63.5676 126.171 63.4157C126.259 62.7088 126.301 61.9966 126.301 61.2845C126.306 53.723 121.017 47.2087 113.656 45.6952C106.295 44.1818 98.8924 48.0936 95.9512 55.0529C96.6644 55.3881 97.3202 55.8541 97.8773 56.4196C100.157 58.7132 100.532 62.3003 98.7779 65.0233C97.0235 67.7464 93.6189 68.867 90.6048 67.7097C87.5907 66.5524 85.7894 63.4367 86.284 60.2267C86.7785 57.022 89.4335 54.5974 92.6506 54.4142C94.6496 49.1671 98.8247 45.0669 104.077 43.1818C109.335 41.2913 115.15 41.8151 119.996 44.6009C120.527 43.2394 120.798 41.7888 120.793 40.3226C120.798 34.9343 117.143 30.2371 111.943 28.9488C111.755 28.9436 111.568 28.9017 111.391 28.8336C110.657 28.687 109.907 28.6137 109.158 28.6189C108.262 28.5927 107.549 27.8544 107.549 26.9537C107.549 26.0582 108.262 25.3198 109.158 25.2937C109.423 25.2937 109.673 25.2937 109.933 25.3146C108.356 20.3765 103.442 17.3289 98.3505 18.13C93.2541 18.9312 89.5007 23.3456 89.4955 28.5298C89.5111 28.9802 89.3446 29.4148 89.0322 29.7342C88.7199 30.0589 88.293 30.2422 87.8453 30.2422C87.3976 30.2422 86.9707 30.0589 86.6584 29.7342C86.3512 29.4148 86.1794 28.9802 86.1951 28.5298C86.1899 24.859 87.6422 21.3348 90.2243 18.7427C91.2446 17.7215 92.4107 16.8628 93.6862 16.203C92.9938 15.5118 92.2025 14.9305 91.3436 14.4696C87.4548 12.4222 82.6968 13.1553 79.6045 16.2815C77.72 18.1666 76.6581 20.7326 76.6581 23.4032V33.5046C76.6789 37.4477 79.7555 40.684 83.6651 40.8881C87.5798 41.0871 90.9689 38.1756 91.3853 34.2587C91.4218 33.8136 91.63 33.3999 91.9684 33.1171C92.3068 32.8291 92.7492 32.6929 93.1865 32.7348C93.629 32.782 94.0351 33.0019 94.311 33.3475C94.5869 33.6931 94.7118 34.1382 94.6598 34.5833C94.2485 38.6679 91.5623 42.1553 87.7361 43.5797C83.9098 45.004 79.6098 44.1086 76.6582 41.2809V45.3707C77.8607 45.6744 78.9592 46.3028 79.8389 47.1878C81.7963 49.1568 82.3846 52.1154 81.3277 54.6866C80.271 57.263 77.7721 58.9387 75.0079 58.9387C72.2384 58.9387 69.7449 57.263 68.6828 54.6866C67.6261 52.1154 68.2143 49.1568 70.1717 47.1878C71.0515 46.3028 72.15 45.6744 73.3524 45.3707V41.2809C70.4008 44.1139 66.1008 45.0093 62.2745 43.585C58.4482 42.1659 55.7569 38.6731 55.3456 34.5887C55.2936 34.1488 55.4185 33.7037 55.6944 33.3529C55.9703 33.0073 56.3764 32.7873 56.8189 32.7402C57.2561 32.6983 57.6987 32.8345 58.037 33.1225C58.3754 33.4053 58.5888 33.8189 58.6201 34.2641C59.0365 38.181 62.4255 41.0926 66.3403 40.8935C70.2551 40.6893 73.3317 37.4531 73.3525 33.51V23.414C73.3473 19.8846 71.5148 16.6117 68.5111 14.7842C65.5126 12.9566 61.78 12.8414 58.6722 14.4752C57.808 14.936 57.0167 15.5225 56.3192 16.2085C60.9159 18.5754 63.8103 23.3355 63.8103 28.5301C63.8103 29.4465 63.0711 30.1901 62.1653 30.1901C61.2543 30.1901 60.515 29.4465 60.515 28.5301C60.515 23.3407 56.7616 18.9262 51.6652 18.1199C46.5688 17.3187 41.6493 20.3716 40.0771 25.3149C40.3322 25.2992 40.5873 25.294 40.8476 25.294C41.2953 25.2783 41.7274 25.4511 42.0501 25.7653C42.3677 26.0742 42.5499 26.5036 42.5499 26.954C42.5499 27.4043 42.3677 27.8337 42.0501 28.1479C41.7273 28.4621 41.2953 28.6297 40.8476 28.6192C40.1032 28.6139 39.3535 28.6873 38.6195 28.8339C38.4425 28.902 38.2603 28.9386 38.0728 28.9491C32.8671 30.2373 29.2126 34.9344 29.2178 40.3229C29.2178 41.3231 29.3428 42.3181 29.5874 43.2867C29.702 43.7319 29.8477 44.1717 30.0195 44.5959C34.8609 41.8101 40.6758 41.2917 45.9331 43.182C51.1857 45.0671 55.3608 49.1673 57.3598 54.4092L57.3597 54.4136ZM59.4628 58.7652C58.2707 57.566 56.4018 57.3828 55.0014 58.3201C53.601 59.2627 53.0545 61.0745 53.7 62.6403C54.3455 64.2061 56.001 65.0962 57.6564 64.7663C59.3067 64.4364 60.4988 62.9807 60.4988 61.2839C60.504 60.3361 60.1292 59.4302 59.4628 58.7652ZM27.2705 68.1752C26.0784 66.9761 24.2095 66.7928 22.8091 67.7354C21.4035 68.6779 20.8622 70.4846 21.5077 72.0503C22.148 73.6161 23.8035 74.5115 25.4588 74.1816C27.1143 73.8517 28.3064 72.3907 28.3064 70.694C28.3116 69.7462 27.9369 68.8403 27.2705 68.1752ZM127.732 68.1752C126.54 66.9761 124.671 66.7928 123.271 67.7354C121.87 68.6779 121.324 70.4846 121.969 72.0503C122.615 73.6161 124.27 74.5115 125.92 74.1816C127.576 73.8517 128.768 72.3907 128.768 70.694C128.773 69.7514 128.398 68.8403 127.732 68.1752ZM95.5399 58.7652C94.5247 57.7441 93.0047 57.4403 91.6772 57.9902C90.355 58.5453 89.4908 59.8439 89.4908 61.2839C89.496 62.7187 90.3602 64.0175 91.6824 64.5672C93.0047 65.117 94.5248 64.8133 95.5399 63.7975C96.201 63.1272 96.5758 62.2212 96.5758 61.2787C96.5758 60.3361 96.201 59.4302 95.5399 58.7652ZM77.5074 49.528C76.3152 48.3288 74.4463 48.1456 73.0459 49.0881C71.6403 50.0254 71.099 51.8373 71.7445 53.4031C72.39 54.9688 74.0455 55.859 75.6956 55.5291C77.3511 55.1992 78.5432 53.7434 78.5432 52.0467C78.5484 51.0989 78.1737 50.193 77.5074 49.528ZM43.8624 69.7623C44.1123 70.1236 44.206 70.574 44.1279 71.0086C44.0499 71.4433 43.8 71.8255 43.4356 72.0769C43.0764 72.323 42.6287 72.4173 42.1966 72.3335C41.7645 72.2497 41.3845 71.9983 41.1398 71.6318C40.2392 70.2912 39.5051 68.8407 38.9534 67.3222C38.4016 65.8036 38.0476 64.2169 37.8862 62.6093C37.7977 61.6981 38.4537 60.8864 39.3595 60.7974C40.2653 60.7084 41.0723 61.3734 41.1608 62.2846C41.2909 63.6199 41.5876 64.9291 42.0353 66.1911C42.4987 67.4531 43.1128 68.6521 43.8624 69.7623ZM108.867 71.6317C108.357 72.3858 107.331 72.5795 106.576 72.0664C105.826 71.5479 105.634 70.5164 106.144 69.7622C107.654 67.5366 108.585 64.9656 108.856 62.2844C108.95 61.3733 109.752 60.7082 110.658 60.7972C111.563 60.8863 112.225 61.6979 112.136 62.6091C111.969 64.2167 111.61 65.8034 111.064 67.322C110.512 68.8458 109.772 70.2912 108.867 71.6317ZM70.0057 89.8177V83.0836C70.0109 82.1672 70.7501 81.4235 71.6611 81.4235H78.3505C79.2615 81.4235 80.0008 82.1671 80.0008 83.0836V89.8177C80.0008 90.2628 79.829 90.6817 79.5167 90.9959C79.2095 91.3049 78.7878 91.4777 78.3506 91.4777H71.6612C71.2239 91.4777 70.8022 91.3049 70.4951 90.9959C70.1827 90.6817 70.0109 90.2628 70.0057 89.8177ZM73.3114 84.7488V88.1578H76.7004V84.7488H73.3114ZM87.1686 77.6114H92.1089H92.1037C92.5514 77.6009 92.9835 77.7685 93.3062 78.0827C93.6238 78.3969 93.806 78.8263 93.806 79.2766C93.806 79.7217 93.6238 80.1511 93.3062 80.4653C92.9834 80.7795 92.5514 80.9471 92.1037 80.9366H87.1634V84.7959H96.3516C97.2626 84.7959 97.9967 85.5395 97.9967 86.4559C97.9967 87.3671 97.2627 88.1107 96.3516 88.1107H87.1686V91.9701H92.1089H92.1037C92.5514 91.9543 92.9835 92.1272 93.3062 92.4361C93.6238 92.7503 93.806 93.1797 93.806 93.63C93.806 94.0804 93.6238 94.5098 93.3062 94.824C92.9834 95.1382 92.5514 95.3057 92.1037 95.29H87.1634V97.0286H87.1686C87.1686 97.4685 86.9916 97.8926 86.6845 98.2016C86.3773 98.5105 85.9609 98.6886 85.5236 98.6886H64.4925C64.0553 98.6886 63.6336 98.5158 63.3264 98.2016C63.0141 97.8926 62.8371 97.4685 62.8371 97.0286V95.29H57.8968H57.902C57.0066 95.2638 56.2987 94.5255 56.2987 93.63C56.2987 92.7293 57.0067 91.9909 57.902 91.9648H62.8423L62.8371 88.1107H53.6541C52.7431 88.1107 52.009 87.3671 52.009 86.4507C52.009 85.5343 52.7431 84.7907 53.6541 84.7907H62.8371V80.9313H57.8968H57.902C57.0066 80.9051 56.2987 80.1668 56.2987 79.2661C56.2987 78.3706 57.0067 77.6322 57.902 77.6061H62.8423L62.8371 75.8727C62.8423 74.9563 63.5815 74.2127 64.4926 74.2127H66.2209V69.2433V69.2485C66.2209 68.3321 66.9601 67.5885 67.8712 67.5885C68.7822 67.5885 69.5162 68.3321 69.5162 69.2485V74.218H73.3529V64.9755C73.3789 64.0748 74.1129 63.3627 75.0083 63.3627C75.8985 63.3627 76.6326 64.0748 76.6586 64.9755V74.2127H80.4901V69.2433V69.2485C80.5161 68.3478 81.2449 67.6357 82.1403 67.6357C83.0357 67.6357 83.7646 68.3479 83.7906 69.2485V74.218L85.5241 74.2127C85.9614 74.2127 86.3831 74.3908 86.6902 74.6997C86.9974 75.0087 87.1744 75.4328 87.1744 75.8727L87.1686 77.6114ZM66.1429 77.5433V95.3687H83.8689V77.5433H66.1429ZM130.705 85.4086V82.3243H105.935C105.373 93.0487 99.3553 102.721 90.0166 107.926C80.6774 113.131 69.3333 113.131 59.9952 107.926C50.6561 102.721 44.6387 93.0487 44.0763 82.3243H19.3124V85.4034V85.3982C19.2812 87.1211 20.39 88.6553 22.0247 89.158L25.1117 90.1687V90.1739C27.3554 90.8704 29.0994 92.6509 29.7709 94.9131C30.1978 96.2693 30.6767 97.5942 31.2077 98.9034C31.7595 100.244 32.3582 101.527 32.9986 102.763C33.5452 103.789 33.8367 104.931 33.8419 106.093C33.8471 107.256 33.5712 108.397 33.0454 109.429L31.5721 112.34H31.5669C30.7652 113.859 31.0567 115.728 32.2905 116.922L38.9643 123.625L38.9591 123.63C40.146 124.866 42.0046 125.165 43.5142 124.358L46.4087 122.876C47.4342 122.337 48.5743 122.059 49.73 122.065C50.8857 122.075 52.0206 122.368 53.0409 122.913C54.2643 123.557 55.5397 124.165 56.8776 124.714C58.1738 125.259 59.4908 125.741 60.8444 126.16H60.8392C61.9481 126.5 62.9579 127.108 63.7805 127.919C64.603 128.736 65.2068 129.747 65.5504 130.852L66.5603 133.957C67.0601 135.601 68.5853 136.717 70.2929 136.685H79.7154C81.4281 136.717 82.9534 135.601 83.4531 133.957L84.4579 130.852H84.4631C84.8014 129.747 85.4105 128.736 86.2278 127.919C87.0555 127.102 88.0654 126.5 89.1742 126.16C90.5173 125.741 91.8396 125.259 93.1411 124.714C94.479 124.165 95.7543 123.557 96.9777 122.918H96.9725C99.0393 121.793 101.522 121.777 103.605 122.877L106.499 124.358H106.494C108.009 125.16 109.862 124.861 111.054 123.625L117.718 116.923C118.311 116.336 118.707 115.577 118.847 114.749C118.972 113.922 118.827 113.079 118.447 112.341L116.973 109.434C116.442 108.403 116.166 107.261 116.166 106.099C116.177 104.936 116.463 103.789 117.01 102.768C117.65 101.537 118.249 100.249 118.795 98.9087C119.337 97.6048 119.816 96.2748 120.242 94.9184C120.909 92.6562 122.658 90.8758 124.896 90.174L127.983 89.1634C129.623 88.6607 130.727 87.1264 130.696 85.4035L130.705 85.4086Z" fill="#663366"/>
</svg>
