<svg width="150" height="150" viewBox="0 0 150 150" fill="none" xmlns="http://www.w3.org/2000/svg">
<path d="M137.833 10H12.1667C11.592 10 11.0409 10.2283 10.6346 10.6346C10.2283 11.0409 10 11.592 10 12.1667V137.833C10 138.408 10.2283 138.959 10.6346 139.365C11.0409 139.772 11.592 140 12.1667 140H137.833C138.408 140 138.959 139.772 139.365 139.365C139.772 138.959 140 138.408 140 137.833V12.1667C140 11.592 139.772 11.0409 139.365 10.6346C138.959 10.2283 138.408 10 137.833 10ZM14.3333 14.3333H135.667V23H14.3333V14.3333ZM114 79.3333H105.333C104.759 79.3333 104.208 79.5616 103.801 79.9679C103.395 80.3743 103.167 80.9254 103.167 81.5C103.167 82.0746 103.395 82.6257 103.801 83.0321C104.208 83.4384 104.759 83.6667 105.333 83.6667H114.583L128.369 127H21.6307L35.4172 83.6667H44.6667C45.2413 83.6667 45.7924 83.4384 46.1987 83.0321C46.6051 82.6257 46.8333 82.0746 46.8333 81.5C46.8333 80.9254 46.6051 80.3743 46.1987 79.9679C45.7924 79.5616 45.2413 79.3333 44.6667 79.3333H36V51.1667H57.6667V53.3333C57.6667 53.908 57.8949 54.4591 58.3013 54.8654C58.7076 55.2717 59.2587 55.5 59.8333 55.5H65.4363L73.4682 63.5318C73.8745 63.938 74.4255 64.1662 75 64.1662C75.5745 64.1662 76.1255 63.938 76.5318 63.5318L84.5637 55.5H90.1667C90.7413 55.5 91.2924 55.2717 91.6987 54.8654C92.1051 54.4591 92.3333 53.908 92.3333 53.3333V51.1667H114V79.3333ZM23 27.3333H27.3333V40.3333C27.3333 40.908 27.5616 41.4591 27.9679 41.8654C28.3743 42.2717 28.9254 42.5 29.5 42.5H57.6667V46.8333H23V27.3333ZM68.5 27.3333V33.8333H59.8333C59.2587 33.8333 58.7076 34.0616 58.3013 34.4679C57.8949 34.8743 57.6667 35.4254 57.6667 36V38.1667H31.6667V27.3333H68.5ZM77.1667 27.3333V33.8333H72.8333V27.3333H77.1667ZM111.762 27.3333C111.674 31.2366 110.388 35.0185 108.078 38.1667H92.3333V36C92.3333 35.4254 92.1051 34.8743 91.6987 34.4679C91.2924 34.0616 90.7413 33.8333 90.1667 33.8333H81.5V27.3333H111.762ZM118.333 27.3333V38.1667H113.24C114.986 34.8134 115.96 31.1119 116.091 27.3333H118.333ZM62 51.1667V46.8333H88V51.1667H62ZM78.4363 55.5L75 58.9363L71.5637 55.5H78.4363ZM88 38.1667V42.5H62V38.1667H88ZM92.3333 42.5H102.313C99.141 43.7933 95.7582 44.4925 92.3333 44.5627V42.5ZM103.1 46.8333C105.672 45.874 108.022 44.3994 110.005 42.5H120.5C121.075 42.5 121.626 42.2717 122.032 41.8654C122.438 41.4591 122.667 40.908 122.667 40.3333V27.3333H127V46.8333H103.1ZM14.3333 135.667V27.3333H18.6667V49C18.6667 49.5746 18.8949 50.1257 19.3013 50.5321C19.7076 50.9384 20.2587 51.1667 20.8333 51.1667H31.6667V81.1642L16.6018 128.517C16.4998 128.841 16.4756 129.185 16.5311 129.52C16.5866 129.856 16.7202 130.173 16.9213 130.448C17.1223 130.722 17.3851 130.945 17.6883 131.099C17.9915 131.253 18.3266 131.333 18.6667 131.333H131.333C131.673 131.333 132.009 131.253 132.312 131.099C132.615 130.945 132.878 130.722 133.079 130.448C133.28 130.173 133.413 129.856 133.469 129.52C133.524 129.185 133.5 128.841 133.398 128.517L118.333 81.1642V51.1667H129.167C129.741 51.1667 130.292 50.9384 130.699 50.5321C131.105 50.1257 131.333 49.5746 131.333 49V27.3333H135.667V135.667H14.3333Z" fill="#663366"/>
<path d="M83.6667 91.2767V72.834C83.6667 69.1875 79.8598 66.334 75 66.334C70.1402 66.334 66.3333 69.1875 66.3333 72.834V91.2767C59.6167 93.049 55.5 96.6673 55.5 101.001V109.667C55.5 115.844 63.8828 120.501 75 120.501C86.1172 120.501 94.5 115.844 94.5 109.667V101.001C94.5 96.6673 90.3833 93.049 83.6667 91.2767ZM70.6667 78.4673C72.0383 79.0451 73.5116 79.3427 75 79.3427C76.4884 79.3427 77.9617 79.0451 79.3333 78.4673V97.6055C77.9918 98.2913 76.5067 98.6489 75 98.6489C73.4933 98.6489 72.0082 98.2913 70.6667 97.6055V78.4673ZM75 70.6673C77.6455 70.6673 79.3333 71.95 79.3333 72.834C79.3333 73.718 77.6455 75.0007 75 75.0007C72.3545 75.0007 70.6667 73.718 70.6667 72.834C70.6667 71.95 72.3545 70.6673 75 70.6673ZM66.3333 95.7812V98.834C66.3333 99.1906 66.4213 99.5417 66.5894 99.8562C66.7576 100.171 67.0008 100.439 67.2975 100.637C69.5776 102.16 72.258 102.973 75 102.973C77.742 102.973 80.4224 102.16 82.7025 100.637C82.9992 100.439 83.2424 100.171 83.4106 99.8562C83.5787 99.5417 83.6667 99.1906 83.6667 98.834V95.7812C87.5407 97.0313 90.1667 99.0528 90.1667 101.001C90.1667 104.069 83.6797 107.501 75 107.501C66.3203 107.501 59.8333 104.069 59.8333 101.001C59.8333 99.0507 62.4593 97.0313 66.3333 95.7812ZM75 116.167C66.3203 116.167 59.8333 112.735 59.8333 109.667V107.966C64.4092 110.694 69.677 112.037 75 111.834C80.323 112.037 85.5908 110.694 90.1667 107.966V109.667C90.1667 112.735 83.6797 116.167 75 116.167Z" fill="#663366"/>
</svg>
