<svg width="150" height="150" viewBox="0 0 150 150" fill="none" xmlns="http://www.w3.org/2000/svg">
<path d="M32.2491 48.5849C32.9221 49.0317 33.8441 48.8507 34.2966 48.1663C37.7354 42.9572 42.1922 38.4268 47.2939 34.8975L46.6944 37.5672C46.3041 39.4619 49.1151 40.1067 49.5789 38.212L50.9589 32.0245C51.0042 31.6455 50.9589 31.2666 50.7723 30.9329C50.546 30.6048 50.218 30.3729 49.839 30.2598L43.6515 28.8798C41.7512 28.4952 41.1177 31.3062 43.0068 31.7643L45.7386 32.3751C40.2694 36.1364 35.4957 40.9665 31.825 46.5374C31.3782 47.2162 31.5648 48.1381 32.2435 48.5849L32.2491 48.5849Z" fill="#663366"/>
<path d="M36.2389 104.578L39.146 104.962C41.0747 105.172 41.4537 102.321 39.5306 102.033L33.247 101.207C32.885 101.207 32.4948 101.264 32.195 101.479C31.8726 101.727 31.6747 102.084 31.5898 102.48L30.7641 108.763C30.5435 110.686 33.4053 111.077 33.6938 109.148L34.0331 106.557C37.4324 110.969 41.4706 114.781 46.0971 117.903C46.7645 118.356 47.6865 118.186 48.1502 117.507C48.6084 116.828 48.4274 115.912 47.7543 115.454C43.3314 112.473 39.4798 108.82 36.2446 104.583L36.2389 104.578Z" fill="#663366"/>
<path d="M120.008 97.3438C119.29 96.9649 118.397 97.2364 118.012 97.9547C115.942 101.84 113.351 105.387 110.331 108.559L110.201 105.579C110.077 103.65 107.198 103.763 107.249 105.709L107.526 112.043C107.582 112.394 107.701 112.75 107.95 113.005C108.25 113.288 108.64 113.48 109.064 113.457L115.399 113.18C117.345 113.056 117.197 110.188 115.269 110.228L112.735 110.341C115.829 107.044 118.481 103.367 120.619 99.3517C121.004 98.6334 120.732 97.7397 120.008 97.3551L120.008 97.3438Z" fill="#663366"/>
<path d="M99.7148 32.9808C105.263 36.2443 110.167 40.6559 114.052 45.8423L110.834 45.6218C108.906 45.503 108.696 48.4101 110.636 48.5685L116.79 48.9871C117.225 49.0889 117.706 48.9531 118.034 48.6364C118.311 48.3593 118.475 48.0086 118.537 47.624L118.967 41.3007C119.069 39.3664 116.179 39.1571 116.021 41.1027L115.868 43.3651C111.841 38.1787 106.847 33.7445 101.225 30.4357C100.524 30.0228 99.6188 30.2547 99.2003 30.9617C98.7875 31.663 99.0194 32.568 99.7263 32.9864L99.7148 32.9808Z" fill="#663366"/>
<path d="M56.904 44.6137H93.0844C93.8988 44.6137 94.5605 43.952 94.5605 43.1376V11.4761C94.5605 10.6617 93.8988 10 93.0844 10H79.5159H56.9039C56.0894 10 55.4277 10.6617 55.4277 11.4761V43.1318C55.4277 43.9462 56.0895 44.6079 56.9039 44.6079L56.904 44.6137ZM78.0348 12.9581V20.3956C77.5484 20.2089 75.5066 18.9759 74.9919 19.0495C74.4885 18.9759 72.4185 20.2146 71.949 20.3956V12.9581H78.0403H78.0348ZM58.3809 12.9581H68.9913V22.7881C68.9574 23.8514 70.1904 24.6149 71.1293 24.1116L74.9923 22.1829L78.8554 24.1116C79.7942 24.6149 81.0272 23.857 80.9933 22.7881V12.9581H91.6038V41.6614H58.3815L58.3809 12.9581Z" fill="#663366"/>
<path d="M113.504 61.7122C113.504 66.8986 117.723 71.1236 122.915 71.1236C135.381 70.6485 135.381 52.7699 122.915 52.3008C117.729 52.3008 113.504 56.5201 113.504 61.7122ZM122.915 55.2589C131.444 55.5303 131.444 67.8998 122.915 68.1713C114.386 67.8998 114.386 55.5303 122.915 55.2589Z" fill="#663366"/>
<path d="M133.321 72.4414H112.508C108.826 72.4414 105.828 75.439 105.828 79.121V91.2642C105.828 92.0787 106.49 92.7404 107.304 92.7404H138.524C139.339 92.7404 140 92.0786 140 91.2642V79.121C140 75.439 137.004 72.4414 133.321 72.4414ZM137.043 89.783H108.78V79.1216C108.78 77.0685 110.454 75.3944 112.507 75.3944H133.321C135.374 75.3944 137.048 77.0685 137.048 79.1216V89.783H137.043Z" fill="#663366"/>
<path d="M52.6333 68.2617L47.8654 59.9985C47.6674 59.6592 47.345 59.4103 46.9661 59.3085C46.5872 59.2067 46.1856 59.2576 45.8462 59.4556L41.9493 61.7066C40.6371 60.6603 39.2006 59.8288 37.6622 59.218V54.7271C37.6622 53.9127 37.0005 53.251 36.186 53.251H26.6446C25.8302 53.251 25.1685 53.9127 25.1685 54.7271V59.218C23.6301 59.8288 22.1934 60.6602 20.8814 61.7066L16.9844 59.4556C16.3057 59.0427 15.3499 59.3028 14.9653 59.9985L10.1974 68.2617C9.79014 68.9687 10.0333 69.8737 10.7403 70.2809L14.6259 72.5263C14.3771 74.1834 14.3771 75.835 14.6259 77.4922L10.7403 79.7376C10.0333 80.1448 9.79014 81.0498 10.1974 81.7567L14.9653 90.0199C15.3499 90.7156 16.3001 90.9701 16.9844 90.5629L20.8814 88.3118C22.1935 89.3582 23.6301 90.1896 25.1685 90.8005V95.2913C25.1685 96.1058 25.8302 96.7675 26.6446 96.7675H36.186C37.0005 96.7675 37.6622 96.1057 37.6622 95.2913V90.8005C39.2006 90.1896 40.6372 89.3582 41.9493 88.3118L45.8462 90.5629C46.5249 90.9701 47.4808 90.7156 47.8653 90.0199L52.6333 81.7567C53.0405 81.0497 52.7973 80.1447 52.0903 79.7376L48.2047 77.4922C48.4536 75.835 48.4536 74.1834 48.2047 72.5263L52.0903 70.2809C52.7973 69.8736 53.0406 68.9687 52.6333 68.2617ZM45.8293 70.4846C45.275 70.807 44.9922 71.4461 45.1223 72.0739C45.5409 74.0309 45.5409 75.9878 45.1223 77.9448C44.9866 78.5726 45.275 79.2117 45.8293 79.5342L49.336 81.5589L46.0443 87.2657L42.5263 85.2353C41.9721 84.9129 41.2707 84.9864 40.7957 85.4163C39.3026 86.7624 37.6001 87.7522 35.728 88.3573C35.1171 88.5552 34.7043 89.1208 34.7043 89.7656V93.8153H28.1151V89.7656C28.1151 89.1265 27.7022 88.5552 27.0914 88.3573C25.2192 87.7521 23.5111 86.7623 22.0237 85.4163C21.5486 84.9864 20.8473 84.9129 20.293 85.2353L16.775 87.2657L13.4834 81.5589L16.9901 79.5342C18.5059 78.5274 17.1201 76.463 17.386 75.0094C17.1258 73.5559 18.5058 71.4915 16.9901 70.4847L13.4834 68.46L16.775 62.7532L20.293 64.7836C20.8473 65.1003 21.543 65.0268 22.0237 64.6026C23.5168 63.2565 25.2192 62.2667 27.0914 61.6616C27.7022 61.4636 28.1151 60.8981 28.1151 60.2533V56.2036H34.7043V60.2533C34.7043 60.8924 35.1171 61.4636 35.728 61.6616C37.6001 62.2668 39.3082 63.2566 40.7957 64.6026C41.2708 65.0324 41.9721 65.106 42.5263 64.7836L46.0443 62.7532L49.336 68.46L45.8293 70.4846Z" fill="#663366"/>
<path d="M31.408 66.751C26.855 66.751 23.1504 70.4556 23.1504 75.0085C23.5406 85.9414 39.2816 85.9358 39.6653 75.0085C39.6653 70.4556 35.9609 66.751 31.408 66.751ZM31.408 80.3138C24.4004 80.0933 24.4004 69.9296 31.408 69.7034C38.4156 69.924 38.4156 80.0877 31.408 80.3138Z" fill="#663366"/>
<path d="M102.667 113.294C102.389 112.909 101.943 112.683 101.473 112.683H89.7712V108.249C89.7712 107.434 89.1094 106.772 88.295 106.772H54.314C53.4996 106.772 52.8379 107.434 52.8379 108.249V134.842C52.8379 135.657 53.4996 136.319 54.314 136.319H60.4677C61.8986 141.194 68.8949 141.194 70.3259 136.319H94.4481C95.879 141.194 102.875 141.194 104.306 136.319H108.978C109.793 136.319 110.454 135.657 110.454 134.842V124.498C110.454 124.187 110.358 123.881 110.171 123.632L102.666 113.288L102.667 113.294ZM55.7847 109.731H86.8134V133.372H70.3203C68.8893 128.497 61.893 128.497 60.462 133.372H55.7902V109.731H55.7847ZM65.3884 137.06C62.4756 137.009 62.4756 132.677 65.3884 132.626C68.3012 132.676 68.3012 137.009 65.3884 137.06ZM99.3694 137.06C96.4566 137.009 96.4566 132.677 99.3694 132.626C102.282 132.676 102.282 137.009 99.3694 137.06ZM107.497 133.366H104.301C102.87 128.491 95.8741 128.491 94.4432 133.366H89.7714V115.635H100.721L107.503 124.979V133.367L107.497 133.366Z" fill="#663366"/>
</svg>
