<svg width="150" height="150" viewBox="0 0 150 150" fill="none" xmlns="http://www.w3.org/2000/svg">
<path fill-rule="evenodd" clip-rule="evenodd" d="M57.1446 128.152C57.7322 131.234 55.8431 134.322 52.7788 135.144L46.6501 136.793C43.4431 137.659 40.1152 135.729 39.2585 132.514L31.1474 102.118C30.2907 98.8972 32.2073 95.5608 35.4145 94.695L41.5431 93.0461C44.2889 92.3071 47.1226 93.6141 48.4186 96.0295C53.3829 92.7097 57.0677 91.0112 59.9289 90.2558C63.1471 86.4232 67.6337 83.7045 72.7463 82.7504L77.6229 70.5245C75.4318 68.043 73.9161 64.9273 73.3889 61.464H69.4514C67.2548 61.464 65.146 60.5872 63.5919 59.0265C62.0377 57.4658 61.17 55.3537 61.17 53.1479V47.4458C61.17 45.2399 62.0377 43.1223 63.5919 41.5616C64.13 41.0212 64.7341 40.5635 65.3821 40.1995V38.104C65.3821 31.7126 67.9137 25.5803 72.4168 21.0587C76.9144 16.5367 83.0211 14 89.3854 14H94.5145C100.879 14 106.986 16.5367 111.489 21.0587C115.986 25.5806 118.518 31.7129 118.518 38.104V40.1995C119.166 40.5635 119.77 41.0212 120.308 41.5616C121.862 43.1223 122.735 45.2399 122.735 47.4458V53.1479C122.735 55.3537 121.862 57.4658 120.308 59.0265C119.314 60.0302 118.09 60.7471 116.761 61.1331V65.5945C116.761 66.758 115.822 67.7011 114.663 67.7011H108.315C107.727 68.7102 107.04 69.6587 106.277 70.5245L111.154 82.7504C117.096 83.8589 122.203 87.3551 125.437 92.2134L126.953 91.4414C131.22 89.2576 136.437 90.548 138.831 94.7171C141.242 98.9137 139.803 104.323 135.624 106.75L93.7945 130.998C92.2953 131.952 90.4007 132.393 88.1985 132.404C85.3868 132.41 82.0096 131.709 78.4181 130.799C73.4371 129.536 68.0005 127.866 63.1956 127.518C60.9825 127.364 58.9184 127.479 57.1446 128.152ZM52.993 128.813L44.8875 98.4229C44.6239 97.4413 43.6079 96.8512 42.6304 97.1159L36.5017 98.7648C35.5242 99.0295 34.9366 100.05 35.2002 101.026L43.3058 131.422C43.5694 132.404 44.5853 132.988 45.5629 132.729L51.6915 131.08C52.669 130.815 53.2567 129.795 52.993 128.813ZM66.2223 90.0682C67.1834 90.3054 68.0511 90.6528 68.8748 91.0333C69.9566 91.5351 70.9451 92.1141 72.1038 92.4285L78.9628 94.2704L73.4878 86.8973C70.8079 87.3991 68.3366 88.5076 66.2223 90.0682ZM87.9202 96.6802L92.61 97.9431C93.8346 98.274 94.9219 98.8695 95.8226 99.6581L96.9868 98.125L91.9511 90.8679L87.9202 96.6802ZM98.2719 103.38C98.5245 104.18 98.6618 105.029 98.6618 105.89L121.671 94.138C119.101 90.5094 115.213 87.8789 110.71 86.9525L98.2719 103.38ZM95.8666 112.027C93.8841 113.759 91.1054 114.509 88.3871 113.781L71.2639 109.171C70.1491 108.873 69.4846 107.715 69.7811 106.596C70.0831 105.471 71.2308 104.803 72.3511 105.107L89.4687 109.711C91.5775 110.279 93.7686 109.011 94.3342 106.893C94.8998 104.776 93.6368 102.581 91.528 102.013L71.0167 96.4928C69.8635 96.1839 68.842 95.6876 67.7931 95.1748C66.6344 94.6178 65.4427 94.0222 63.8008 93.9616C60.8902 93.8623 56.821 95.3071 49.71 100.232L56.0747 124.072C57.7991 123.487 59.71 123.239 61.7475 123.25C65.8717 123.278 70.556 124.391 75.125 125.588C79.3864 126.702 83.5382 127.893 86.9704 128.147C88.8101 128.279 90.4026 128.185 91.5723 127.43C91.5998 127.408 91.6327 127.391 91.6602 127.375L133.528 103.1C135.708 101.837 136.46 99.0137 135.203 96.8244C133.929 94.6076 131.128 94.034 128.854 95.1977L96.0757 111.934C96.0043 111.972 95.938 112 95.8666 112.027ZM80.5724 74.4568L76.6953 84.1735L84.3396 94.4693L89.3975 87.179L80.5724 74.4568ZM73.005 57.2506L71.9177 44.0818C71.8957 43.8337 71.8792 43.5855 71.8737 43.3373H69.4519C69.0016 43.3373 68.5622 43.409 68.1504 43.5524C67.5573 43.7509 67.0081 44.0873 66.5578 44.5395C65.7945 45.3116 65.3607 46.3539 65.3607 47.4457V53.1479C65.3607 54.2342 65.7945 55.282 66.5578 56.0485C67.3267 56.8206 68.3646 57.2507 69.4519 57.2507L73.005 57.2506ZM76.1407 44.2693L77.4258 59.8915C78.0024 66.8895 83.8345 72.2828 90.8308 72.2828H93.0714C97.0749 72.2828 100.694 70.5181 103.17 67.7001H92.1323C90.9736 67.7001 90.0345 66.7571 90.0345 65.5935C90.0345 64.43 90.9736 63.487 92.1323 63.487H105.68C106.097 62.3565 106.372 61.1488 106.476 59.8914L107.646 45.6908C104.774 48.7237 101.045 50.0914 96.1083 49.0767C96.0479 49.0656 95.9929 49.0546 95.938 49.0381C92.7694 48.1061 90.2982 45.5749 88.7111 41.3728C86.9593 43.1981 85.0317 44.2293 83.0163 44.6871C80.8581 45.1724 78.5515 44.9862 76.1407 44.2693ZM97.1357 76.022C95.8287 76.3309 94.4668 76.4908 93.0719 76.4908H90.8313C89.4364 76.4908 88.0745 76.3309 86.773 76.022L91.9516 83.4943L97.1357 76.022ZM69.5782 39.1235H72.2032C72.8348 35.9801 74.312 33.0299 76.5196 30.6201C79.8585 26.9805 84.5703 24.9069 89.5018 24.9069H94.4058C99.3372 24.9069 104.044 26.9805 107.382 30.6201C109.59 33.0299 111.067 35.9803 111.699 39.1235H114.324V38.1033C114.324 32.8258 112.237 27.769 108.525 24.0356C104.807 20.3078 99.7711 18.2122 94.5157 18.2122H89.3866C84.1311 18.2122 79.0954 20.3078 75.3831 24.0356C71.6654 27.769 69.5785 32.826 69.5785 38.1033L69.5782 39.1235ZM114.593 57.2502C115.626 57.2116 116.609 56.787 117.345 56.048C118.108 55.2815 118.542 54.2337 118.542 53.1473V47.4452C118.542 46.3533 118.108 45.3111 117.345 44.539C116.894 44.0868 116.345 43.7504 115.752 43.5519C115.34 43.4085 114.901 43.3368 114.451 43.3368H112.034C112.023 43.585 112.007 43.8331 111.985 44.0813L110.903 57.2501H114.451L114.593 57.2502ZM110.079 63.4872H112.567V61.4634H110.513C110.409 62.1527 110.261 62.8255 110.079 63.4872ZM99.6509 94.6005L107.328 84.4701L103.33 74.4556L94.5052 87.1777L99.6509 94.6005ZM107.29 38.7593C106.713 36.8126 105.697 34.9983 104.297 33.4708C101.749 30.697 98.1626 29.1143 94.4063 29.1143H89.5023C85.7406 29.1143 82.1545 30.697 79.6064 33.4708C77.937 35.2962 76.8112 37.524 76.328 39.9063C78.3599 40.6563 80.2929 40.9872 82.0942 40.5791C84.2359 40.0938 86.1031 38.5222 87.7505 35.6105C88.1788 34.844 89.041 34.4304 89.9088 34.5738C90.7709 34.7171 91.4574 35.3789 91.6277 36.2447C92.5668 41.0093 94.1703 44.0809 97.037 44.9688C102.029 45.9559 105.088 43.204 107.29 38.7593ZM40.3193 100.76C41.8295 100.357 43.3891 101.256 43.7901 102.773C44.1965 104.295 43.3013 105.855 41.7856 106.264C40.2755 106.666 38.7213 105.767 38.3149 104.251C37.9085 102.729 38.8091 101.168 40.3193 100.76ZM50.6875 54.4267L50.8412 60.4046C50.8632 61.2097 50.4293 61.9542 49.7209 62.3237C49.0125 62.6987 48.1558 62.638 47.5078 62.1638L36.9585 54.4267H14.1571C13.0533 54.4267 11.9988 53.9911 11.2191 53.208C10.4393 52.425 10 51.3661 10 50.2578V22.0005C10 20.8921 10.4393 19.8332 11.2191 19.0502C11.9989 18.2727 13.0533 17.8315 14.1571 17.8315H54.2673C55.3711 17.8315 56.4256 18.2727 57.2052 19.0502C57.9851 19.8333 58.4189 20.8921 58.4189 22.0005V50.2578C58.4189 51.3662 57.9851 52.4251 57.2052 53.208C56.4254 53.9911 55.371 54.4267 54.2673 54.4267L50.6875 54.4267ZM14.1959 22.0443V50.2183H37.6398C38.0846 50.2183 38.5184 50.3617 38.8754 50.6209L46.5361 56.2348L46.4373 52.3801C46.4208 51.8121 46.635 51.2606 47.0304 50.8526C47.4258 50.4445 47.9694 50.2184 48.5351 50.2184H54.2299V22.0444L14.1959 22.0443ZM48.0627 25.2814C49.2215 25.2814 50.1605 26.2244 50.1605 27.388C50.1605 28.5516 49.2215 29.4946 48.0627 29.4946H20.3577C19.2045 29.4946 18.2599 28.5516 18.2599 27.388C18.2599 26.2245 19.2045 25.2814 20.3577 25.2814H48.0627ZM48.0627 34.0221C49.2215 34.0221 50.1605 34.9651 50.1605 36.1287C50.1605 37.2922 49.2215 38.2352 48.0627 38.2352H20.3577C19.2045 38.2352 18.2599 37.2922 18.2599 36.1287C18.2599 34.9651 19.2045 34.0221 20.3577 34.0221H48.0627ZM48.0627 42.7627C49.2215 42.7627 50.1605 43.7112 50.1605 44.8693C50.1605 46.0329 49.2215 46.9759 48.0627 46.9759H20.3577C19.2045 46.9759 18.2599 46.0329 18.2599 44.8693C18.2599 43.7112 19.2045 42.7627 20.3577 42.7627H48.0627Z" fill="#663366"/>
</svg>
