<svg width="150" height="150" viewBox="0 0 150 150" fill="none" xmlns="http://www.w3.org/2000/svg">
<path d="M114 105.333H109.667V81.5H114V105.333ZM14.3334 111.09C14.331 110.236 14.4981 109.39 14.8249 108.601C15.1517 107.812 15.6318 107.096 16.2373 106.494L18.6667 104.064V120.5C18.6667 120.929 18.7938 121.347 19.0318 121.704C19.2699 122.06 19.6083 122.338 20.0042 122.502C20.4001 122.666 20.8358 122.709 21.2561 122.625C21.6764 122.542 22.0625 122.335 22.3655 122.032L31.8528 112.545C32.0784 112.319 32.3462 112.14 32.641 112.018C32.9358 111.896 33.2517 111.833 33.5707 111.833C33.8898 111.833 34.2057 111.896 34.5004 112.018C34.7952 112.14 35.063 112.319 35.2886 112.545C35.5141 112.771 35.6931 113.039 35.8151 113.333C35.9372 113.628 36 113.944 36 114.263C36 114.582 35.9371 114.898 35.815 115.193C35.6929 115.487 35.5139 115.755 35.2883 115.981L27.9679 123.301C27.6137 123.655 27.3931 124.121 27.3438 124.62C27.2944 125.118 27.4192 125.619 27.6971 126.035C28.7462 127.603 29.3063 129.447 29.3063 131.333C29.3063 133.22 28.7462 135.064 27.6971 136.631C27.4599 136.987 27.3333 137.406 27.3334 137.833V140H31.6667V138.46C32.1927 137.579 32.6196 136.642 32.9396 135.667H83.6667V131.333H33.8334V123.564L38.3528 119.045C39.2827 118.115 39.9214 116.934 40.1904 115.647C40.4595 114.36 40.3474 113.022 39.8677 111.797C39.3881 110.573 38.5618 109.515 37.49 108.753C36.4182 107.991 35.1475 107.558 33.8334 107.507V70.6667H49V66.3333H27.3334C25.0356 66.3359 22.8327 67.2498 21.208 68.8746C19.5832 70.4993 18.6693 72.7023 18.6667 75V79.3333H23V75C23.0014 73.8511 23.4584 72.7497 24.2708 71.9374C25.0831 71.125 26.1845 70.668 27.3334 70.6667H29.5V108.862C29.2488 109.052 29.011 109.259 28.7883 109.481L23 115.269V83.6667H18.6667V97.9358L13.1734 103.429C12.1641 104.433 11.3639 105.627 10.8192 106.942C10.2745 108.257 9.99608 109.667 10 111.09V140H14.3334V111.09ZM85.2221 83.811C86.1991 88.6638 85.9855 93.681 84.5996 98.4332C83.2136 103.185 80.6966 107.531 77.264 111.097C73.8314 114.664 69.5856 117.346 64.89 118.913C60.1945 120.48 55.1891 120.886 50.3025 120.095L46.1988 124.199L43.1346 121.135L47.2396 117.031C46.4559 112.146 46.8661 107.143 48.4354 102.451C50.0046 97.7585 52.6862 93.5156 56.2511 90.0846C59.8161 86.6537 64.1585 84.1364 68.9075 82.748C73.6564 81.3595 78.6709 81.1411 83.5226 82.1113C83.942 82.1952 84.3272 82.4014 84.6297 82.7039C84.9321 83.0064 85.1382 83.3916 85.2221 83.811ZM70.6667 93.6025L78.405 85.8642C75.796 85.772 73.1879 86.0694 70.6667 86.7466V93.6025ZM59.8334 104.436L66.3334 97.9358V88.3329C63.9631 89.4467 61.7723 90.9079 59.8334 92.6684V104.436ZM51.1979 113.072L55.5 108.769V97.7229C52.5093 102.269 51.0059 107.633 51.1979 113.072ZM69.6105 111.833H58.5643L54.2618 116.136C59.7004 116.328 65.0641 114.824 69.6105 111.833ZM79.0013 101H69.3976L62.8976 107.5H74.665C76.4253 105.561 77.8865 103.37 79.0002 101H79.0013ZM81.47 88.9284L73.7309 96.6667H80.5863C81.2636 94.1455 81.5611 91.5374 81.4689 88.9284H81.47ZM38.1667 81.5H53.3334V77.1667H38.1667V81.5ZM49 85.8333H38.1667V90.1667H49V85.8333ZM103.167 85.8333V93.9938C103.848 94.6023 104.394 95.348 104.767 96.182C105.141 97.016 105.334 97.9195 105.333 98.8333V110.038C106.433 109.649 107.616 109.564 108.76 109.791C109.904 110.017 110.965 110.547 111.833 111.326C113.024 110.258 114.567 109.667 116.167 109.667C117.766 109.667 119.309 110.258 120.5 111.326C121.435 110.488 122.592 109.939 123.832 109.745C125.072 109.551 126.341 109.72 127.487 110.232C128.633 110.744 129.606 111.577 130.289 112.63C130.971 113.683 131.334 114.912 131.333 116.167V137.833C131.333 138.408 131.105 138.959 130.699 139.365C130.292 139.772 129.741 140 129.167 140H94.5C94.1875 140 93.8786 139.932 93.5947 139.802C93.3107 139.671 93.0584 139.481 92.855 139.243L80.9616 125.368C79.9112 124.142 79.3337 122.581 79.3334 120.966V120.763C79.3334 119.425 79.73 118.118 80.4732 117.006C81.2163 115.894 82.2725 115.027 83.5083 114.515C84.7441 114.003 86.1038 113.869 87.4157 114.13C88.7276 114.391 89.9326 115.035 90.8785 115.981L92.3334 117.436V98.8333C92.3354 97.11 93.0209 95.4579 94.2394 94.2394C95.458 93.0208 97.1101 92.3353 98.8334 92.3333V85.8333H103.167ZM103.167 118.333C102.592 118.333 102.041 118.105 101.635 117.699C101.228 117.292 101 116.741 101 116.167V98.8333C101 98.2587 100.772 97.7076 100.365 97.3013C99.9591 96.8949 99.408 96.6667 98.8334 96.6667C98.2587 96.6667 97.7076 96.8949 97.3013 97.3013C96.895 97.7076 96.6667 98.2587 96.6667 98.8333V122.667C96.6667 123.095 96.5397 123.514 96.3016 123.87C96.0635 124.227 95.7251 124.504 95.3292 124.668C94.9333 124.832 94.4976 124.875 94.0773 124.792C93.657 124.708 93.271 124.502 92.9679 124.199L87.814 119.045C87.4742 118.705 87.0413 118.474 86.57 118.38C86.0987 118.286 85.6102 118.334 85.1663 118.518C84.7223 118.702 84.3429 119.014 84.076 119.413C83.8091 119.813 83.6666 120.282 83.6667 120.763V120.966C83.6668 121.546 83.8742 122.107 84.2514 122.548L95.4967 135.667H127V116.167C127 115.592 126.772 115.041 126.365 114.635C125.959 114.228 125.408 114 124.833 114C124.259 114 123.708 114.228 123.301 114.635C122.895 115.041 122.667 115.592 122.667 116.167C122.667 116.741 122.438 117.292 122.032 117.699C121.626 118.105 121.075 118.333 120.5 118.333C119.925 118.333 119.374 118.105 118.968 117.699C118.562 117.292 118.333 116.741 118.333 116.167C118.333 115.592 118.105 115.041 117.699 114.635C117.292 114.228 116.741 114 116.167 114C115.592 114 115.041 114.228 114.635 114.635C114.228 115.041 114 115.592 114 116.167C114 116.741 113.772 117.292 113.365 117.699C112.959 118.105 112.408 118.333 111.833 118.333C111.259 118.333 110.708 118.105 110.301 117.699C109.895 117.292 109.667 116.741 109.667 116.167C109.667 115.592 109.438 115.041 109.032 114.635C108.626 114.228 108.075 114 107.5 114C106.925 114 106.374 114.228 105.968 114.635C105.562 115.041 105.333 115.592 105.333 116.167C105.333 116.741 105.105 117.292 104.699 117.699C104.292 118.105 103.741 118.333 103.167 118.333ZM129.167 10H64.1667C61.2945 10.0032 58.5409 11.1456 56.5099 13.1766C54.479 15.2075 53.3366 17.9611 53.3334 20.8333V23H57.6667V20.8333C57.6686 19.11 58.3541 17.4578 59.5727 16.2393C60.7912 15.0207 62.4434 14.3353 64.1667 14.3333H129.167C130.89 14.3353 132.542 15.0207 133.761 16.2393C134.979 17.4578 135.665 19.11 135.667 20.8333V66.3333C135.665 68.0566 134.979 69.7088 133.761 70.9274C132.542 72.146 130.89 72.8314 129.167 72.8333H105.333C104.827 72.8333 104.336 73.011 103.946 73.3355L94.5 81.2072V75C94.5 74.4254 94.2718 73.8743 93.8654 73.4679C93.4591 73.0616 92.908 72.8333 92.3334 72.8333H64.1667C62.4434 72.8314 60.7912 72.146 59.5727 70.9274C58.3541 69.7088 57.6686 68.0566 57.6667 66.3333V27.3333H53.3334V66.3333C53.3366 69.2055 54.479 71.9592 56.5099 73.9901C58.5409 76.021 61.2945 77.1634 64.1667 77.1667H90.1667V85.8333C90.1667 86.2451 90.2841 86.6484 90.505 86.9959C90.726 87.3434 91.0414 87.6207 91.4143 87.7954C91.7872 87.97 92.2022 88.0348 92.6106 87.9822C93.019 87.9295 93.4039 87.7615 93.7203 87.4979L106.119 77.1667H129.167C132.039 77.1634 134.793 76.021 136.823 73.9901C138.854 71.9592 139.997 69.2055 140 66.3333V20.8333C139.997 17.9611 138.854 15.2075 136.823 13.1766C134.793 11.1456 132.039 10.0032 129.167 10ZM62 59.8333H131.333V55.5H129.167V20.8333H124.833V55.5H120.5V29.5H116.167V55.5H111.833V31.6667H107.5V55.5H103.167V25.1667H98.8334V55.5H94.5V36H90.1667V55.5H85.8334V44.6667H81.5V55.5H77.1667V40.3333H72.8334V55.5H68.5V49H64.1667V55.5H62V59.8333ZM72.8334 20.8333H62V25.1667H72.8334V20.8333ZM62 33.8333H72.8334V29.5H62V33.8333ZM68.5 68.5V64.1667H64.1667V68.5H68.5ZM77.1667 68.5V64.1667H72.8334V68.5H77.1667ZM85.8334 68.5V64.1667H81.5V68.5H85.8334ZM94.5 68.5V64.1667H90.1667V68.5H94.5ZM103.167 68.5V64.1667H98.8334V68.5H103.167ZM111.833 68.5V64.1667H107.5V68.5H111.833ZM120.5 68.5V64.1667H116.167V68.5H120.5ZM129.167 68.5V64.1667H124.833V68.5H129.167Z" fill="#663366"/>
</svg>
