<svg width="150" height="150" viewBox="0 0 150 150" fill="none" xmlns="http://www.w3.org/2000/svg">
<path d="M109.45 108.69H93.1125V96.3722L94.0201 96.1129C95.3167 95.7239 96.354 94.6867 96.743 93.3901L97.0023 92.4824H109.32V108.69H109.45ZM95.965 105.837H106.597V95.2053H99.0769C98.4286 96.5019 97.2616 97.6688 95.965 98.3172V105.837Z" fill="#663366"/>
<path d="M119.823 94.4267H115.803C115.025 94.4267 114.377 93.7784 114.377 93.0005C114.377 92.2225 115.025 91.5742 115.803 91.5742H119.823C120.601 91.5742 121.249 92.2225 121.249 93.0005C121.249 93.7784 120.601 94.4267 119.823 94.4267Z" fill="#663366"/>
<path d="M119.823 101.948H115.803C115.025 101.948 114.377 101.3 114.377 100.522C114.377 99.744 115.025 99.0957 115.803 99.0957H119.823C120.601 99.0957 121.249 99.744 121.249 100.522C121.249 101.3 120.601 101.948 119.823 101.948Z" fill="#663366"/>
<path d="M119.823 109.47H115.803C115.025 109.47 114.377 108.821 114.377 108.043C114.377 107.265 115.025 106.617 115.803 106.617H119.823C120.601 106.617 121.249 107.265 121.249 108.043C121.249 108.951 120.601 109.47 119.823 109.47Z" fill="#663366"/>
<path d="M87.0184 94.4267H82.999C82.221 94.4267 81.5727 93.7784 81.5727 93.0005C81.5727 92.2225 82.221 91.5742 82.999 91.5742H87.0184C87.7964 91.5742 88.4447 92.2225 88.4447 93.0005C88.4447 93.7784 87.7964 94.4267 87.0184 94.4267Z" fill="#663366"/>
<path d="M87.0184 101.948H82.999C82.221 101.948 81.5727 101.3 81.5727 100.522C81.5727 99.744 82.221 99.0957 82.999 99.0957H87.0184C87.7964 99.0957 88.4447 99.744 88.4447 100.522C88.4447 101.3 87.7964 101.948 87.0184 101.948Z" fill="#663366"/>
<path d="M87.0184 109.47H82.999C82.221 109.47 81.5727 108.821 81.5727 108.043C81.5727 107.265 82.221 106.617 82.999 106.617H87.0184C87.7964 106.617 88.4447 107.265 88.4447 108.043C88.4447 108.951 87.7964 109.47 87.0184 109.47Z" fill="#663366"/>
<path d="M93.7608 87.6865C92.9828 87.6865 92.3345 87.0382 92.3345 86.2602V82.2407C92.3345 81.4628 92.9828 80.8145 93.7608 80.8145C94.5388 80.8145 95.1871 81.4628 95.1871 82.2407V86.2602C95.1871 87.0382 94.5388 87.6865 93.7608 87.6865Z" fill="#663366"/>
<path d="M101.281 87.6865C100.503 87.6865 99.8549 87.0382 99.8549 86.2602V82.2407C99.8549 81.4628 100.503 80.8145 101.281 80.8145C102.059 80.8145 102.707 81.4628 102.707 82.2407V86.2602C102.707 87.0382 102.059 87.6865 101.281 87.6865Z" fill="#663366"/>
<path d="M108.931 87.6865C108.153 87.6865 107.505 87.0382 107.505 86.2602V82.2407C107.505 81.4628 108.153 80.8145 108.931 80.8145C109.709 80.8145 110.357 81.4628 110.357 82.2407V86.2602C110.357 87.0382 109.709 87.6865 108.931 87.6865Z" fill="#663366"/>
<path d="M93.7608 120.487C92.9828 120.487 92.3345 119.839 92.3345 119.061V115.041C92.3345 114.264 92.9828 113.615 93.7608 113.615C94.5388 113.615 95.1871 114.264 95.1871 115.041V119.061C95.1871 119.969 94.5388 120.487 93.7608 120.487Z" fill="#663366"/>
<path d="M101.281 120.487C100.503 120.487 99.8549 119.839 99.8549 119.061V115.041C99.8549 114.264 100.503 113.615 101.281 113.615C102.059 113.615 102.707 114.264 102.707 115.041V119.061C102.707 119.969 102.059 120.487 101.281 120.487Z" fill="#663366"/>
<path d="M108.931 120.487C108.153 120.487 107.505 119.839 107.505 119.061V115.041C107.505 114.264 108.153 113.615 108.931 113.615C109.709 113.615 110.357 114.264 110.357 115.041V119.061C110.357 119.969 109.709 120.487 108.931 120.487Z" fill="#663366"/>
<path d="M71.7185 115.952C71.1999 115.952 70.6812 115.563 70.4219 115.044C66.9211 106.357 67.1804 96.1136 71.1999 87.556C73.9227 81.8509 77.8126 77.3128 82.4803 74.2009C84.6846 72.7747 86.7591 71.8671 88.7041 70.9594C91.9456 69.5332 94.4091 68.3662 95.5761 65.6433C95.8354 64.995 96.743 64.6061 97.3913 64.995C98.0396 65.2544 98.4286 66.162 98.0396 66.8103C96.354 70.5704 93.2422 71.9967 89.7413 73.5526C87.9261 74.3306 85.9812 75.2382 83.9066 76.5348C79.6278 79.2577 76.127 83.5365 73.5338 88.7229C69.7736 96.5026 69.5143 105.968 72.7558 113.877C73.0151 114.655 72.7558 115.433 71.9778 115.692C71.9778 115.952 71.8482 115.952 71.7185 115.952Z" fill="#663366"/>
<path d="M99.4658 71.3486C98.8175 71.3486 98.2989 70.9596 98.0396 70.3113L97.1319 66.1622L92.9828 67.0698C92.2048 67.1995 91.4269 66.8105 91.2972 66.0325C91.1676 65.2546 91.5565 64.4766 92.3345 64.3469L99.2065 62.791L100.762 69.663C100.892 70.441 100.503 71.219 99.7252 71.3486C99.5955 71.3486 99.5955 71.3486 99.4658 71.3486Z" fill="#663366"/>
<path d="M101.54 136.695C96.354 136.695 91.4269 135.528 87.2778 133.454C84.9439 132.287 83.1286 130.861 81.443 129.694C78.4608 127.619 76.3863 126.063 73.4041 126.323C72.6261 126.452 71.9778 125.804 71.8481 125.026C71.7185 124.248 72.3668 123.6 73.1448 123.47C77.2939 123.081 80.0168 125.026 83.1286 127.36C84.8142 128.527 86.4998 129.823 88.5744 130.861C93.1125 133.195 98.5582 134.232 104.263 133.713C112.821 133.065 121.119 128.527 126.435 121.784C126.954 121.136 127.862 121.006 128.38 121.525C129.029 122.044 129.158 122.951 128.64 123.47C122.805 130.861 113.858 135.788 104.523 136.436C103.485 136.695 102.448 136.695 101.54 136.695Z" fill="#663366"/>
<path d="M74.7007 130.343C74.3117 130.343 73.9227 130.213 73.6634 129.954L68.866 124.767L74.0524 119.97C74.571 119.451 75.4787 119.451 75.9973 120.099C76.5159 120.618 76.5159 121.526 75.8676 122.044L72.7558 124.897L75.6083 128.009C76.127 128.527 76.127 129.435 75.4787 129.954C75.349 130.213 74.96 130.343 74.7007 130.343Z" fill="#663366"/>
<path d="M135.771 117.637C135.382 117.637 134.863 117.377 134.604 117.118C132.14 113.747 132.529 110.376 132.918 106.486C133.178 104.411 133.307 102.337 133.178 100.003C132.918 94.9461 131.103 89.7597 127.862 84.9623C122.934 77.8309 115.025 72.9038 106.468 71.7369C105.69 71.6072 105.171 70.9589 105.301 70.1809C105.43 69.403 106.079 68.8843 106.857 69.014C116.192 70.3106 124.879 75.7564 130.195 83.4063C133.826 88.5928 135.771 94.2978 136.03 99.8732C136.16 102.466 135.901 104.8 135.771 106.875C135.382 110.505 135.123 113.099 136.938 115.562C137.456 116.21 137.197 117.118 136.678 117.507C136.29 117.637 136.03 117.637 135.771 117.637Z" fill="#663366"/>
<path d="M137.716 120.1L130.973 118.025C130.195 117.766 129.806 116.988 130.066 116.21C130.325 115.432 131.103 115.043 131.881 115.302L135.9 116.599L137.197 112.579C137.456 111.801 138.234 111.412 139.012 111.672C139.79 111.931 140.179 112.709 139.92 113.487L137.716 120.1Z" fill="#663366"/>
<path d="M37.7474 70.8278H23.6144C22.8364 70.8278 22.1881 70.1795 22.1881 69.4015C22.1881 68.6236 22.8364 67.9753 23.6144 67.9753H34.8949V67.1973C34.8949 65.6414 33.7279 64.3448 32.3016 64.0855L24.0034 62.9185C23.2254 62.7888 22.7068 62.1405 22.8364 61.3626C22.9661 60.5846 23.6144 60.066 24.3923 60.1956L32.6906 61.3626C35.5432 61.7516 37.7474 64.3448 37.7474 67.1973V70.8278Z" fill="#663366"/>
<path d="M26.0779 89.112H23.0957C19.3356 89.112 16.3534 86.1298 16.3534 82.3697V58.9011L11.8152 57.2155C10.778 56.8265 10 55.7892 10 54.6223V50.3435C10.1297 48.9172 11.2966 47.6206 12.8525 47.6206H18.9466C20.2432 47.6206 21.2805 46.9723 21.9288 45.8054L28.0228 34.5249C29.4491 31.9317 32.3016 30.2461 35.2838 30.2461H72.1075C75.0897 30.2461 77.9422 31.9317 79.3685 34.5249L85.4625 45.8054C86.1108 46.8427 87.1481 47.6206 88.4447 47.6206H94.5388C95.965 47.6206 97.2616 48.7876 97.2616 50.3435V54.6223C97.2616 55.7892 96.6133 56.8265 95.4464 57.2155L90.0006 59.1604C89.2227 59.4197 88.4447 59.0308 88.1854 58.3825C87.9261 57.6045 88.315 56.8265 88.9633 56.5672L94.2794 54.6223V50.4732H88.1854C85.9812 50.4732 83.7769 49.1766 82.7396 47.2316L76.9049 35.9512C75.9973 34.2656 74.182 33.0986 72.1075 33.0986H35.2838C33.3389 33.0986 31.5237 34.1359 30.4864 35.9512L24.3923 47.2316C23.3551 49.1766 21.2805 50.4732 18.9466 50.4732H12.9822V54.6223L19.2059 56.9562V82.4994C19.2059 84.7036 20.8915 86.3892 23.0957 86.3892H26.0779C28.2822 86.3892 29.9677 84.7036 29.9677 82.4994V78.0909H71.1998C71.9778 78.0909 72.6261 78.7392 72.6261 79.5172C72.6261 80.2951 71.9778 80.9434 71.1998 80.9434H32.8203V82.4994C32.8203 86.1298 29.8381 89.112 26.0779 89.112Z" fill="#663366"/>
<path d="M71.1998 70.8278C70.4219 70.8278 69.7736 70.1795 69.7736 69.4015V67.1973C69.7736 64.2151 71.9778 61.7516 74.8303 61.3626L83.1286 60.1956C83.9066 60.066 84.5549 60.5846 84.6845 61.3626C84.8142 62.1405 84.2956 62.7888 83.5176 62.9185L75.2193 64.0855C73.6634 64.3448 72.6261 65.6414 72.6261 67.1973V69.4015C72.6261 70.1795 71.9778 70.8278 71.1998 70.8278Z" fill="#663366"/>
<path d="M59.7897 71.0881H47.7313C45.1381 71.0881 42.9338 69.1432 42.6745 66.55C42.5449 65.1237 42.9338 63.6975 43.9711 62.6602C44.8787 61.6229 46.305 60.9746 47.7313 60.9746H59.6601C61.0863 60.9746 62.5126 61.6229 63.4202 62.6602C64.3278 63.6975 64.8465 65.1237 64.7168 66.55C64.4575 69.1432 62.2533 71.0881 59.7897 71.0881ZM47.7313 63.6975C47.083 63.6975 46.4347 63.9568 46.0457 64.4754C45.6567 64.9941 45.3974 65.6424 45.527 66.2907C45.6567 67.4576 46.5643 68.2356 47.7313 68.2356H59.6601C60.827 68.2356 61.7346 67.328 61.8643 66.2907C61.994 65.6424 61.7346 64.9941 61.3457 64.4754C60.9567 63.9568 60.3084 63.6975 59.6601 63.6975H47.7313Z" fill="#663366"/>
<path d="M53.0474 53.8425C43.7118 53.8425 34.5059 52.9349 28.0229 51.2493C27.2449 50.99 26.8559 50.212 26.9856 49.5637C27.2449 48.7858 28.0229 48.3968 28.6712 48.5264C41.1186 51.8976 64.7168 51.8976 77.1643 48.5264C77.9422 48.2671 78.7202 48.7858 78.8498 49.5637C79.1092 50.3417 78.5905 51.1197 77.8126 51.2493C71.5888 53.0646 62.2533 53.8425 53.0474 53.8425Z" fill="#663366"/>
<path d="M65.1057 33.2284C64.4574 33.2284 63.9388 32.8394 63.8091 32.1911L63.0311 29.2089C62.7718 28.431 62.2532 27.9123 61.6049 27.9123H46.0456C45.3973 27.9123 44.8787 28.431 44.6193 29.2089L43.8414 32.1911C43.5821 32.9691 42.8041 33.3581 42.1558 33.0988C41.3778 32.8394 40.9888 32.0615 41.2482 31.4132L42.0261 28.431C42.5448 26.4861 44.2304 25.1895 46.0456 25.1895H61.6049C63.4201 25.1895 65.1057 26.4861 65.6244 28.431L66.4023 31.4132C66.6617 32.1911 66.143 32.9691 65.4947 33.0988C65.365 33.0988 65.2354 33.2284 65.1057 33.2284Z" fill="#663366"/>
<path d="M47.8609 13H45.0084V15.5932H47.8609V13Z" fill="#663366"/>
<path d="M54.4736 13H51.621V15.5932H54.4736V13Z" fill="#663366"/>
<path d="M61.0863 13H58.2338V15.5932H61.0863V13Z" fill="#663366"/>
<path d="M51.1024 17.668H48.2499V20.2612H51.1024V17.668Z" fill="#663366"/>
<path d="M57.8448 17.668H54.9922V20.2612H57.8448V17.668Z" fill="#663366"/>
</svg>
