<svg width="150" height="150" viewBox="0 0 150 150" fill="none" xmlns="http://www.w3.org/2000/svg">
<path d="M64.3978 136.202C66.843 138.653 70.0997 139.999 73.566 139.999H77.3471C80.8079 139.999 84.0646 138.653 86.5153 136.202C88.9606 133.751 90.3129 130.494 90.3129 127.034V109.37C105.199 103.343 115.129 88.6821 115.129 72.5761C115.129 50.7022 97.3329 32.9062 75.459 32.9062C53.585 32.9062 35.7891 50.7022 35.7891 72.5761C35.7891 88.6821 45.719 103.342 60.605 109.37V125.157V125.163V125.168V127.039C60.5995 130.495 61.947 133.751 64.3978 136.202ZM84.5167 134.204C82.6014 136.119 80.0569 137.173 77.3467 137.173H73.5656C70.8554 137.173 68.3108 136.119 66.3955 134.204C64.4801 132.288 63.4259 129.744 63.4259 127.034V126.575H87.4858V127.034C87.4858 129.738 86.4321 132.288 84.5167 134.204ZM38.6096 72.5764C38.6096 52.2582 55.1352 35.7326 75.4534 35.7326C95.7717 35.7326 112.297 52.2639 112.297 72.5764C112.297 87.8388 102.693 101.709 88.397 107.08C87.845 107.29 87.4807 107.814 87.4807 108.405V123.744H63.4264V108.405C63.4264 107.814 63.0621 107.29 62.5101 107.08C48.2143 101.71 38.6096 87.8444 38.6096 72.5764Z" fill="#663366"/>
<path d="M67.3234 90.0022C67.3234 90.786 67.9581 91.4153 68.7364 91.4153H82.1769C82.9552 91.4153 83.59 90.786 83.59 90.0022V82.7989H90.7932C91.5715 82.7989 92.2063 82.1697 92.2063 81.3859V67.9454C92.2063 67.1671 91.5715 66.5324 90.7932 66.5324H83.59V59.3291C83.59 58.5508 82.9552 57.916 82.1769 57.916H68.7364C67.9581 57.916 67.3234 58.5508 67.3234 59.3291V66.5324H60.1201C59.3418 66.5324 58.707 67.1671 58.707 67.9454V81.3859C58.707 82.1697 59.3418 82.7989 60.1201 82.7989H67.3234V90.0022ZM61.5331 79.9784V69.364H68.7364C69.5147 69.364 70.1495 68.7292 70.1495 67.9509V60.7476H80.7639V67.9509C80.7639 68.7292 81.3986 69.364 82.1769 69.364H89.3802V79.9784H82.1769C81.3986 79.9784 80.7639 80.6076 80.7639 81.3914V88.5947H70.1495V81.3914C70.1495 80.6076 69.5147 79.9784 68.7364 79.9784H61.5331Z" fill="#663366"/>
<path d="M28.2666 74.4931C28.2666 73.7148 27.6318 73.0801 26.8535 73.0801H13.413C12.6348 73.0801 12 73.7148 12 74.4931C12 75.2714 12.6348 75.9062 13.413 75.9062H26.8535C27.6373 75.9062 28.2666 75.2769 28.2666 74.4931Z" fill="#663366"/>
<path d="M137.508 73.0801H124.067C123.289 73.0801 122.654 73.7148 122.654 74.4931C122.654 75.2714 123.289 75.9062 124.067 75.9062H137.508C138.286 75.9062 138.921 75.2714 138.921 74.4931C138.921 73.7148 138.292 73.0801 137.508 73.0801Z" fill="#663366"/>
<path d="M23.1776 34.6171C22.6257 35.1691 22.6257 36.0632 23.1776 36.6153L32.6826 46.1203C32.9586 46.3963 33.3174 46.5343 33.6817 46.5343C34.046 46.5343 34.4048 46.3963 34.6808 46.1203C35.2327 45.5683 35.2327 44.6742 34.6808 44.1221L25.1758 34.6171C24.6238 34.0651 23.7297 34.0651 23.1776 34.6171Z" fill="#663366"/>
<path d="M125.751 34.6171L116.246 44.1221C115.694 44.6741 115.694 45.5683 116.246 46.1203C116.522 46.3963 116.881 46.5343 117.245 46.5343C117.609 46.5343 117.968 46.3963 118.244 46.1203L127.749 36.6153C128.301 36.0634 128.301 35.1692 127.749 34.6171C127.197 34.0651 126.303 34.0652 125.751 34.6171Z" fill="#663366"/>
<path d="M76.8671 24.8535V11.413C76.8671 10.6348 76.2323 10 75.4541 10C74.6758 10 74.041 10.6348 74.041 11.413V24.8535C74.041 25.6318 74.6758 26.2666 75.4541 26.2666C76.2323 26.2666 76.8671 25.6373 76.8671 24.8535Z" fill="#663366"/>
</svg>
