<svg width="150" height="150" viewBox="0 0 150 150" fill="none" xmlns="http://www.w3.org/2000/svg">
<path d="M37.5793 45.8107L38.1451 45.245V92.3427C38.1451 93.1913 38.7108 93.757 39.5594 93.757H47.904H57.3802H69.685H79.1611H91.4659H100.942H109.852L109.287 94.3228C108.721 94.8885 108.579 95.7371 109.145 96.3028C109.428 96.5857 109.852 96.7271 110.277 96.7271C110.56 96.7271 110.984 96.5857 111.267 96.4443L114.661 93.4741C114.803 93.3327 114.803 93.1913 114.944 93.1913C114.944 93.1913 114.944 93.0498 115.085 93.0498C115.227 92.9084 115.227 92.6255 115.227 92.4841C115.227 92.3427 115.227 92.0598 115.085 91.9184C115.085 91.9184 115.085 91.7769 114.944 91.7769C114.944 91.6355 114.803 91.4941 114.661 91.4941L111.267 88.5239C110.701 87.9582 109.852 88.0996 109.287 88.6654C108.721 89.2311 108.862 90.0797 109.428 90.6454L109.994 91.2112H102.498V64.6215H105.468C106.034 64.6215 106.458 64.3386 106.741 63.7729C107.024 63.2071 106.882 62.6414 106.458 62.2171L97.4061 51.8924C96.8404 51.3267 95.8504 51.3267 95.2846 51.8924L86.2328 62.2171C85.8085 62.6414 85.8085 63.2071 85.9499 63.7729C86.2328 64.3386 86.6571 64.6215 87.2228 64.6215H90.193V91.0698H80.7169V73.5319H83.5455C84.1113 73.5319 84.5356 73.249 84.8185 72.6833C85.1013 72.1175 84.9599 71.5518 84.5356 71.1275L75.4838 60.8028C74.918 60.237 73.928 60.237 73.3623 60.8028L64.3105 71.1275C63.8862 71.5518 63.8861 72.1175 64.0276 72.6833C64.3105 73.249 64.7348 73.5319 65.3005 73.5319H68.2706V90.9283H58.7945V82.4422H61.7646C62.3304 82.4422 62.7547 82.1594 63.0375 81.5936C63.3204 81.0279 63.179 80.4622 62.7547 80.0379L53.7029 69.7131C53.1371 69.1474 52.1471 69.1474 51.5813 69.7131L42.5295 80.1793C42.1052 80.6036 42.1052 81.1693 42.2467 81.7351C42.5295 82.3008 42.9538 82.5837 43.5196 82.5837H46.4897V91.0698H40.9738V72.1175H42.5295C43.3781 72.1175 43.9439 71.5518 43.9439 70.7032C43.9439 69.8546 43.3781 69.2888 42.5295 69.2888H40.9738V63.2072H42.5295C43.3781 63.2072 43.9439 62.6414 43.9439 61.7928C43.9439 60.9442 43.3781 60.3785 42.5295 60.3785H40.9738V54.2968H42.5295C43.3781 54.2968 43.9439 53.731 43.9439 52.8824C43.9439 52.0338 43.3781 51.4681 42.5295 51.4681H40.9738V45.245L41.5395 45.8107C41.8224 46.0936 42.2467 46.235 42.671 46.235C42.9538 46.235 43.3781 46.0936 43.661 45.9521C44.2267 45.3864 44.3682 44.5378 43.8024 43.9721L40.8323 40.5776C40.5494 40.2948 40.2666 40.1533 39.8423 40.1533C39.418 40.1533 39.1351 40.2948 38.8522 40.5776L35.4578 43.9721C34.8921 44.5378 35.0335 45.3864 35.5992 45.9521C36.165 46.5179 37.0136 46.5179 37.5793 45.8107ZM91.4659 61.7928H90.193L96.1332 55.0039L102.073 61.7928H100.801C99.9519 61.7928 99.3862 62.3585 99.3862 63.2072V91.0698H92.7388V63.2072C92.8802 62.3585 92.1731 61.7928 91.4659 61.7928ZM69.685 70.7032H68.4121L74.3523 63.9143L80.2926 70.7032H79.0196C78.171 70.7032 77.6053 71.2689 77.6053 72.1175V90.9283H70.9579V72.1175C71.0993 71.4104 70.3921 70.7032 69.685 70.7032ZM47.904 79.755H46.6311L52.5714 72.9661L58.5116 79.755H57.2387C56.3901 79.755 55.8244 80.3207 55.8244 81.1693V91.0698H49.177V81.1693C49.3184 80.3207 48.7527 79.755 47.904 79.755Z" fill="#663366"/>
<path d="M52.713 63.2073H52.8544C53.8445 63.0659 74.4939 60.3786 82.98 45.528L83.2629 46.518C83.4043 47.0838 83.97 47.5081 84.6772 47.5081C84.8186 47.5081 84.9601 47.5081 85.1015 47.5081C85.8087 47.2252 86.233 46.518 86.0916 45.8109L84.8187 41.285C84.6772 40.8606 84.5358 40.5778 84.1115 40.4363C83.8286 40.2949 83.4043 40.1535 82.98 40.2949L78.5955 41.5678C77.8884 41.8507 77.4641 42.5579 77.6055 43.265C77.7469 43.9722 78.5955 44.3965 79.3027 44.2551L80.5756 43.8308C72.7967 57.6914 52.713 60.3786 52.4301 60.3786C51.723 60.5201 51.1572 61.2272 51.1572 61.9344C51.2987 62.6416 52.0058 63.2073 52.713 63.2073Z" fill="#663366"/>
<path d="M131.351 102.384V34.4954C131.351 33.6468 130.785 33.0811 129.936 33.0811H20.3245C19.4759 33.0811 18.9102 33.6468 18.9102 34.4954V102.384C18.9102 103.233 19.4759 103.798 20.3245 103.798H129.936C130.643 103.798 131.351 103.233 131.351 102.384ZM128.522 100.97H21.7388V35.9097H128.522V100.97Z" fill="#663366"/>
<path d="M138.705 107.052H137.15V28.4143C137.15 27.5657 136.584 27 135.735 27H14.3845C13.5359 27 12.9701 27.5657 12.9701 28.4143V107.193H11.4143C10.5657 107.193 10 107.759 10 108.608V110.871C10 117.235 15.0916 122.327 21.4562 122.327H128.522C134.887 122.327 139.978 117.235 139.978 110.871V108.608C140.12 107.759 139.554 107.052 138.705 107.052ZM15.7988 29.8287H134.321V107.193H91.6077H58.512H15.7988V29.8287ZM59.9264 109.881H90.3348V112.144H59.9264V109.881ZM137.291 110.871C137.291 115.679 133.472 119.498 128.664 119.498H21.4562C16.6474 119.498 12.8287 115.679 12.8287 110.871V110.022H14.3845H57.0977V113.699C57.0977 114.548 57.6634 115.114 58.512 115.114H91.7492C92.5978 115.114 93.1635 114.548 93.1635 113.699V110.022H135.877H137.291V110.871Z" fill="#663366"/>
</svg>
