<svg width="150" height="150" viewBox="0 0 150 150" fill="none" xmlns="http://www.w3.org/2000/svg">
<path d="M74.1605 105.026L55.081 106.549C55.1647 104.482 54.4475 102.462 53.0791 100.91C41.6148 88.2207 41.1676 87.7252 32.2798 88.079L24.51 88.3742L24.5334 87.7343C24.5636 86.8482 24.2415 85.9861 23.6378 85.337C23.034 84.6878 22.1977 84.3045 21.3121 84.271L14.4223 84.0109C13.5371 83.9821 12.6766 84.3053 12.029 84.9098C11.3814 85.5142 10.9996 86.3508 10.967 87.2362L10.0025 113.091C9.96837 113.979 10.288 114.844 10.891 115.496C11.4941 116.148 12.3313 116.534 13.2186 116.569L20.1083 116.821H20.25C21.1134 116.818 21.9422 116.481 22.5637 115.882C23.1851 115.282 23.5512 114.465 23.5857 113.602L23.6468 111.967L24.4957 112.064C27.8197 112.44 29.6604 114.436 31.7923 116.746C34.4104 119.585 37.3821 122.804 43.3619 122.988C43.6115 122.996 43.8663 123 44.1263 123C48.4759 123 54.1737 121.937 61.2857 120.613C65.5977 119.81 70.4868 118.899 75.814 118.094H75.8439C77.4988 117.785 78.9727 116.853 79.9635 115.492C80.9542 114.13 81.3868 112.44 81.1726 110.77C80.9583 109.099 80.1135 107.573 78.8112 106.506C77.5089 105.438 75.8477 104.909 74.1683 105.028L74.1605 105.026ZM20.0381 113.259L13.5657 113.022L14.5003 87.5744L20.9728 87.8176L20.1603 109.959V109.976L20.0381 113.259ZM75.2602 114.584C69.8784 115.397 64.9646 116.313 60.6279 117.12C53.3066 118.484 47.5231 119.563 43.4685 119.436C38.9772 119.3 36.8582 117.001 34.4039 114.34C32.1212 111.869 29.533 109.057 24.8922 108.531L23.7755 108.401L24.3813 91.9338L32.4215 91.6282C36.3058 91.4747 37.9125 91.4097 39.8715 92.6465C42.0906 94.0459 44.8829 97.136 50.4519 103.301C50.9769 103.931 51.3273 104.688 51.4678 105.496C51.6084 106.304 51.5342 107.135 51.2527 107.906C51.0508 108.511 50.6986 109.056 50.2291 109.488C49.7596 109.92 49.1881 110.226 48.5682 110.377C48.0724 110.475 47.559 110.435 47.0844 110.261C46.6098 110.087 46.1922 109.785 45.8773 109.39L38.4286 101.146C38.2741 100.965 38.085 100.817 37.8725 100.711C37.66 100.605 37.4284 100.543 37.1913 100.528C36.9543 100.512 36.7166 100.545 36.4924 100.623C36.2681 100.701 36.0618 100.824 35.8856 100.983C35.7094 101.143 35.5669 101.336 35.4665 101.551C35.366 101.766 35.3098 102 35.3009 102.237C35.2921 102.474 35.331 102.711 35.4151 102.934C35.4993 103.156 35.6271 103.359 35.791 103.531L43.2384 111.774C43.9631 112.63 44.9039 113.277 45.963 113.647C47.0222 114.017 48.161 114.096 49.2611 113.877C50.2898 113.656 51.2574 113.212 52.0955 112.575C52.9336 111.939 53.6218 111.126 54.1113 110.195L74.4516 108.572C75.2167 108.528 75.97 108.775 76.5609 109.263C77.1518 109.751 77.5367 110.445 77.6385 111.204C77.7404 111.964 77.5517 112.735 77.1103 113.361C76.6688 113.988 76.0071 114.425 75.2576 114.584H75.2602ZM106.102 68.6345C106.452 68.5142 106.756 68.2875 106.971 67.9861C107.186 67.6846 107.302 67.3233 107.302 66.9529C107.302 66.5824 107.186 66.2212 106.971 65.9197C106.756 65.6182 106.452 65.3915 106.102 65.2713L73.1686 53.9305C72.7932 53.8018 72.3857 53.8018 72.0103 53.9305L39.0773 65.2713C38.727 65.3915 38.4231 65.6182 38.2079 65.9197C37.9927 66.2212 37.877 66.5824 37.877 66.9529C37.877 67.3233 37.9927 67.6846 38.2079 67.9861C38.4231 68.2875 38.727 68.5142 39.0773 68.6345L49.9397 72.3775V86.8552C49.9398 87.2422 50.0662 87.6187 50.2996 87.9274C50.5331 88.236 50.8609 88.4601 51.2332 88.5654L72.1052 94.4777C72.422 94.5661 72.7569 94.5661 73.0737 94.4777L93.9458 88.5654C94.3193 88.4612 94.6485 88.2377 94.8832 87.929C95.1179 87.6202 95.2452 87.2431 95.2457 86.8552V72.3775L100.564 70.545V80.3914C99.4802 80.807 98.5761 81.589 98.0087 82.6019C97.4412 83.6147 97.2462 84.7943 97.4574 85.936C97.6686 87.0777 98.2727 88.1094 99.1649 88.852C100.057 89.5945 101.181 90.0011 102.342 90.0011C103.502 90.0011 104.626 89.5945 105.518 88.852C106.41 88.1094 107.015 87.0777 107.226 85.936C107.437 84.7943 107.242 83.6147 106.674 82.6019C106.107 81.589 105.203 80.807 104.119 80.3914V69.3199L106.102 68.6345ZM102.332 86.4364C102.053 86.4364 101.78 86.3536 101.548 86.1986C101.316 86.0435 101.135 85.8231 101.029 85.5653C100.922 85.3075 100.894 85.0237 100.948 84.75C101.003 84.4763 101.137 84.2248 101.334 84.0275C101.532 83.8302 101.783 83.6958 102.057 83.6413C102.33 83.5869 102.614 83.6148 102.872 83.7216C103.129 83.8284 103.35 84.0093 103.505 84.2413C103.66 84.4734 103.742 84.7462 103.742 85.0253C103.742 85.399 103.594 85.7573 103.33 86.0218C103.066 86.2863 102.708 86.4354 102.334 86.4364H102.332ZM91.68 85.5091L72.5901 90.9181L53.4951 85.5091V73.6026L55.5438 74.3088L72.0103 79.9753C72.3849 80.1036 72.7915 80.1036 73.166 79.9753L89.6338 74.3088L91.6813 73.6026L91.68 85.5091ZM92.9487 69.407L92.8629 69.4369L88.4782 70.9469L72.5901 76.4131L56.7021 70.9508L52.3134 69.433L52.2302 69.4044L45.1143 66.9529L72.5901 57.4862L100.065 66.9529L92.9487 69.407ZM139.097 34.5055C138.799 34.1824 138.44 33.9217 138.041 33.7386C137.641 33.5556 137.209 33.4537 136.77 33.4391L129.869 33.1789C128.983 33.1525 128.123 33.4763 127.475 34.0801C126.827 34.6838 126.443 35.519 126.406 36.4043L126.346 38.03L125.494 37.935C122.17 37.5618 120.33 35.5641 118.198 33.2531C115.581 30.4153 112.616 27.199 106.64 27.0104C102.202 26.8804 96.2584 27.982 88.7356 29.3852C84.4158 30.1916 79.5202 31.1046 74.1839 31.9109H74.154C73.323 32.0366 72.5251 32.3256 71.8062 32.7611C71.0873 33.1967 70.4617 33.7703 69.9654 34.4489C69.4692 35.1275 69.112 35.8976 68.9146 36.7149C68.7171 37.5322 68.6833 38.3805 68.815 39.2109C68.8952 40.0512 69.1407 40.8674 69.5375 41.6125C69.9343 42.3575 70.4745 43.0166 71.1269 43.5519C71.7794 44.0872 72.5313 44.488 73.3393 44.7314C74.1473 44.9747 74.9954 45.0557 75.8348 44.9697L94.9194 43.4533C94.8393 45.5159 95.5515 47.5309 96.9097 49.0846C107.048 60.311 108.569 61.9939 114.93 61.9939C115.76 61.9939 116.674 61.9653 117.701 61.925L125.484 61.6297L125.461 62.2696C125.434 63.1561 125.758 64.0173 126.362 64.666C126.967 65.3148 127.803 65.6987 128.688 65.7343L135.578 65.9866C135.624 65.9866 135.67 65.9866 135.716 65.9866C136.58 65.984 137.41 65.6464 138.03 65.0447C138.651 64.443 139.014 63.624 139.044 62.7599L139.998 36.8933C140.013 36.4554 139.942 36.0188 139.788 35.6085C139.634 35.1983 139.401 34.8226 139.101 34.5029L139.097 34.5055ZM117.562 58.3719C113.684 58.524 112.079 58.5865 110.119 57.3483C107.897 55.945 105.105 52.8562 99.5486 46.7059C99.0248 46.0733 98.6749 45.315 98.5336 44.5058C98.3923 43.6965 98.4643 42.8644 98.7426 42.0916C98.9443 41.4864 99.2961 40.9423 99.7651 40.5102C100.234 40.078 100.805 39.7719 101.424 39.6206C101.92 39.5214 102.434 39.5607 102.909 39.7341C103.384 39.9076 103.802 40.2084 104.118 40.6038L111.567 48.8479C111.886 49.1835 112.325 49.3809 112.788 49.3982C113.251 49.4154 113.702 49.251 114.046 48.9401C114.39 48.6292 114.599 48.1963 114.628 47.7336C114.658 47.2708 114.506 46.8149 114.204 46.4627L106.756 38.2186C106.025 37.3682 105.082 36.7273 104.022 36.3617C102.963 35.996 101.825 35.9187 100.726 36.1377C99.6983 36.3597 98.7315 36.8047 97.8941 37.4413C97.0568 38.078 96.3693 38.8907 95.8801 39.8221L75.541 41.427C75.1543 41.4756 74.7617 41.4441 74.3877 41.3346C74.0136 41.2251 73.6661 41.0398 73.3666 40.7903C73.0671 40.5408 72.822 40.2323 72.6467 39.8841C72.4713 39.5359 72.3693 39.1554 72.347 38.7661C72.2719 38.388 72.275 37.9984 72.3563 37.6216C72.4375 37.2447 72.5952 36.8885 72.8195 36.575C73.0438 36.2615 73.3299 35.9974 73.6603 35.7989C73.9907 35.6004 74.3582 35.4718 74.7402 35.4211C80.1312 34.6069 85.0528 33.6888 89.3959 32.8785C96.7082 31.5142 102.483 30.4361 106.538 30.5609C111.023 30.7027 113.141 32.9995 115.593 35.6604C117.877 38.1379 120.465 40.9458 125.107 41.4673L126.225 41.5974L125.614 58.0662L117.562 58.3719ZM135.494 62.4244L129.021 62.1877L129.835 40.0341V40.0237L129.956 36.7398L136.435 36.983L135.494 62.4244Z" fill="#663366"/>
</svg>
