<svg width="150" height="150" viewBox="0 0 150 150" fill="none" xmlns="http://www.w3.org/2000/svg">
<path d="M95.7696 70.8404L102.79 66.8866C104.587 65.815 105.31 64.0228 105.31 62.0459C104.958 61.3254 104.587 60.4386 104.402 59.5333L84.0622 71.1914C83.525 71.5424 83.8769 72.263 84.4141 72.4477C87.6744 73.7041 92.8798 72.4477 95.7696 70.8404ZM125.816 97.0389C125.816 94.8772 129.058 94.8772 129.058 97.0389V109.418C130.67 110.489 133.189 109.233 133.189 107.256C133.189 106.72 133.541 106 134.097 105.815C137.338 104.558 138.061 100.605 135.356 98.4615C134.634 97.9257 134.634 97.0204 135.171 96.2998C135.708 95.5793 135.894 94.8587 136.079 94.1382C136.079 91.9765 134.467 90.3691 132.3 90.1844C131.392 90.1844 130.503 89.1128 130.855 88.2075C131.392 86.0458 129.595 84.2537 127.428 84.2537C125.261 84.2537 123.464 86.0458 124.001 88.2075C124.186 89.1128 123.464 90.1844 122.556 90.1844C120.389 90.3691 118.777 91.9765 118.777 94.1382C118.962 94.8587 119.129 95.5793 119.685 96.2998C120.222 97.0204 120.222 97.9072 119.499 98.4615C116.795 100.623 117.517 104.558 120.759 105.815C121.296 106 121.667 106.72 121.667 107.256C121.667 109.233 124.186 110.489 125.798 109.418V97.0389H125.816ZM129.058 112.651V120.189C133.559 124.309 137.153 130.055 139.487 134.544C139.673 135.801 139.302 137.057 137.69 136.706C135.523 136.355 130.855 136.891 126.168 137.427C119.147 138.332 111.404 139.939 106.921 132.401C105.662 130.424 105.124 128.096 105.124 125.935C99.9006 131.681 92.1759 137.242 84.0622 135.08L84.4141 135.801C85.1366 137.057 84.2289 138.313 82.6173 138.129C79.746 137.408 73.7996 138.129 68.0385 138.849C60.8325 139.755 52.9226 141.547 47.1615 137.242C43.7345 134.544 41.9376 130.96 41.4004 127.376C37.0842 134.729 31.6751 137.427 28.4518 138.147C13.3359 141.916 5.59264 124.863 12.6134 114.461V68.8635C12.6134 68.1429 12.9654 67.6071 13.3359 67.4224L31.5083 56.4663V37.9906C31.5083 37.0853 32.2308 36.3832 33.12 36.3832H36.8989V31.3579C36.8989 30.4526 37.6214 29.7505 38.5106 29.7505H44.8089V13.9353C44.8089 11.7737 47.8654 11.7737 47.8654 13.9353V29.732H52.5521V11.6074C52.5521 10.7021 53.2746 10 54.1637 10H82.2283C82.9507 10 83.6732 10.7206 83.6732 11.6074V26.4988L100.401 37.8059C100.938 38.1569 101.123 38.5264 101.123 39.0622V57.7226L104.902 55.561C105.254 54.4894 106.162 53.5841 107.236 52.8635C105.625 51.2562 104.532 49.2793 104.532 46.9329V38.859C104.717 34.7389 106.866 28.4572 110.293 25.7597C112.627 23.7828 116.406 25.4087 116.406 28.6235V54.2862C117.128 55.3578 117.666 56.4478 117.851 57.7042C120.018 57.1684 122.167 57.3531 124.149 58.4247L131.17 62.5448C134.764 64.7064 139.08 69.7318 139.636 74.0366C140.173 77.0851 136.931 79.4131 134.06 77.9904L116.109 67.6071L117.369 89.8703C118.277 88.6139 119.351 87.8934 120.796 87.3576C120.981 83.9396 124.038 81.2606 127.446 81.2606C130.873 81.2606 133.93 83.9581 133.93 87.3576C137.172 88.2629 139.321 91.1266 138.969 94.5446C138.969 95.4499 138.783 96.3368 138.246 97.0573C141.303 100.642 140.228 106.036 136.079 108.18C135.542 111.394 132.115 113.371 129.058 112.651ZM125.816 117.676V112.651C122.76 113.371 119.333 111.394 118.796 108.161C118.61 108.161 118.444 107.976 118.258 107.976L118.61 114.794C121.13 115.163 123.649 116.235 125.816 117.676ZM108.551 123.773C113.59 123.588 118.444 124.309 123.315 125.75C125.298 126.286 124.39 129.334 122.241 128.799C117.74 127.357 113.071 126.637 108.385 126.822C108.385 128.263 108.922 129.519 109.644 130.775C113.238 136.706 120.259 135.08 125.835 134.36C129.262 133.824 132.67 133.454 135.375 133.454C131.596 126.822 123.686 116.401 115.035 118.027C111.608 118.581 109.255 120.909 108.551 123.773ZM112.145 115.533C113.22 115.182 114.313 114.812 115.572 114.628L115.035 106.739H106.94L106.755 111.043C108.737 111.228 110.534 111.228 111.793 110.859C113.238 110.508 114.127 112.115 113.405 113.187C113.034 113.907 112.682 114.812 112.145 115.533ZM78.1344 121.981C83.525 122.332 88.9341 121.445 94.158 119.819C96.1401 119.284 97.0293 122.332 95.0657 122.868C89.6751 124.475 84.0807 125.565 78.3381 125.196C79.0606 128.429 82.4691 131.662 85.8961 132.198C88.4154 132.549 93.1021 132.383 98.678 127.708C102.105 125.011 105.699 120.706 109.292 114.24C106.236 114.24 102.272 113.704 98.1408 113.168C91.6572 112.448 83.7473 110.471 79.5978 117.288C78.6716 118.748 78.3196 120.374 78.1344 121.981ZM71.4656 122.351C63.9076 114.461 48.6064 108.882 45.0127 122.535C51.4962 122.184 57.9612 123.071 64.0928 125.048C66.2602 125.584 65.3525 128.632 63.1851 128.096C57.0721 126.304 50.9405 125.233 44.6422 125.769C44.6422 129.002 46.0871 132.401 48.9584 134.563C53.997 138.332 61.555 136.54 67.668 135.819C72.1695 135.283 76.8376 134.563 80.2647 134.748C78.8568 132.032 73.2809 124.143 71.4656 122.351ZM74.8926 121.445C75.4298 117.491 77.4119 113.907 80.6537 111.579V13.2332H55.8124V31.1731V31.3579V36.3832H59.5914C60.4991 36.3832 61.203 37.1038 61.203 37.9906V111.764C66.2602 113.187 70.9283 116.956 74.8926 121.445ZM83.7102 109.953C88.0264 108.512 93.6023 109.418 97.9185 109.953V105.297L83.7102 95.5978V109.953ZM101.16 110.508C102.068 110.508 102.772 110.692 103.68 110.692L105.662 68.6972C105.31 69.0482 104.754 69.4177 104.402 69.6025L101.16 71.5794V110.508ZM46.2723 114.628C49.5141 111.93 53.8303 110.674 57.9612 111.043V39.4317H34.7686V103.856C39.2701 102.6 43.401 101.159 45.7536 99.5515C47.3653 98.48 48.273 99.7363 48.0877 100.808C47.9025 106.184 47.18 110.674 46.2723 114.628ZM14.0768 127.912C20.3751 125.584 25.7658 121.981 30.9896 117.676C32.6013 116.235 34.5834 118.748 32.9718 120.004C27.7479 124.494 21.9868 128.263 15.5217 130.775C17.8558 134.36 22.172 136.521 27.7664 135.08C30.6377 134.36 35.6763 131.847 39.6406 124.124C42.1599 119.284 44.142 112.632 44.8645 103.487C37.6584 106.905 29.0261 108.327 21.4681 111.376C13.7063 114.277 11.9095 121.981 14.0768 127.912ZM15.6885 111.043C19.8194 107.81 26.6735 106.369 31.5269 104.946V60.2538L15.6885 69.7688V76.0505L25.951 69.9535C27.7479 68.8819 29.378 71.5609 27.5626 72.651L15.6885 79.8011V86.0828L25.951 79.9858C27.7479 78.9142 29.378 81.5932 27.5626 82.6833L15.6885 89.8703V95.9673L25.951 89.8703C27.7479 88.7987 29.378 91.6624 27.5626 92.5677L15.6885 99.7548V111.043ZM111.071 51.6257C111.979 51.6257 112.682 51.8104 113.405 51.9767V28.6604C113.405 27.9399 112.682 27.9399 112.145 28.3094C109.441 30.471 108.014 35.6627 107.829 38.8959V46.9698C107.829 48.9467 109.089 50.5541 110.886 51.6441H111.071V51.6257ZM116.999 61.5102C116.647 62.2307 116.091 62.9513 115.387 63.487L135.727 75.1452C136.264 75.4962 136.635 74.9604 136.635 74.4246C136.097 71.0066 132.318 67.0713 129.614 65.2792L122.593 61.3254C120.778 60.2538 118.795 60.6048 116.999 61.5102ZM111.775 65.0944C111.589 65.0944 111.238 65.0944 111.052 65.0944C110.33 65.0944 109.607 65.0944 108.885 64.7434L107.088 103.505H114.831L112.664 65.6302L111.775 65.0944ZM111.071 54.8589C109.089 54.8589 107.477 56.3 107.477 58.4432C107.477 60.4201 109.089 62.0275 111.071 62.0275C113.053 62.0275 114.665 60.4201 114.665 58.4432C114.665 56.3 113.034 54.8589 111.071 54.8589ZM96.4921 60.4201L83.7102 51.8104V58.9975L90.731 63.6718L96.4921 60.4201ZM87.8412 65.4455L83.7102 62.748V67.7734L87.8412 65.4455ZM83.7102 75.4962V80.8726L97.9185 90.5724V83.3853L87.304 76.032C86.0443 76.032 84.7846 75.8657 83.7102 75.4962ZM92.1759 75.4962L97.937 79.6163V73.3346L97.3998 73.6856C95.9549 74.4246 94.1395 75.1452 92.1759 75.4962ZM83.7102 30.2678V37.0853L97.9185 46.785V39.9675L83.7102 30.2678ZM83.7102 40.8728V48.0599L97.9185 57.7596V50.5726L83.7102 40.8728ZM83.7102 84.6602V91.6624L97.9185 101.528V94.3414L83.7102 84.6602ZM67.1494 21.1223H75.967C76.8747 21.1223 77.5786 21.8429 77.5786 22.7297V32.4295C77.5786 33.3348 76.8562 34.0368 75.967 34.0368H67.1494C66.2417 34.0368 65.5377 33.3163 65.5377 32.4295V22.7297C65.5377 21.8429 66.2602 21.1223 67.1494 21.1223ZM74.5406 24.1708H68.5943V30.9884H74.5406V24.1708ZM67.1494 39.9675H75.967C76.8747 39.9675 77.5786 40.5033 77.5786 41.4086V51.2746C77.5786 51.9952 76.8562 52.7157 75.967 52.7157H67.1494C66.2417 52.7157 65.5377 51.9952 65.5377 51.2746V41.4086C65.5377 40.5033 66.2602 39.9675 67.1494 39.9675ZM74.5406 43.016H68.5943V49.6488H74.5406V43.016ZM67.1494 58.6279H75.967C76.8747 58.6279 77.5786 59.3485 77.5786 60.069V69.9351C77.5786 70.8404 76.8562 71.3762 75.967 71.3762H67.1494C66.2417 71.3762 65.5377 70.8404 65.5377 69.9351V60.069C65.5377 59.3485 66.2602 58.6279 67.1494 58.6279ZM74.5406 61.6764H68.5943V68.3092H74.5406V61.6764ZM67.1494 76.9373H75.967C76.8747 76.9373 77.5786 77.6579 77.5786 78.5447V88.2444C77.5786 89.1497 76.8562 89.8518 75.967 89.8518H67.1494C66.2417 89.8518 65.5377 89.1313 65.5377 88.2444V78.5447C65.5377 77.6579 66.2602 76.9373 67.1494 76.9373ZM74.5406 79.9858H68.5943V86.8033H74.5406V79.9858ZM41.4189 45.3439H51.311C52.2187 45.3439 52.9226 46.0645 52.9226 46.9513V56.8173C52.9226 57.7226 52.2001 58.4247 51.311 58.4247H41.4189C40.5112 58.4247 39.8073 57.7042 39.8073 56.8173V46.9513C39.8073 46.0645 40.5297 45.3439 41.4189 45.3439ZM49.6993 48.5772H43.0491V55.21H49.6993V48.5772ZM41.4189 64.1891H51.311C52.2187 64.1891 52.9226 64.7249 52.9226 65.6302V75.4962C52.9226 76.4015 52.2001 77.1036 51.311 77.1036H41.4189C40.5112 77.1036 39.8073 76.3831 39.8073 75.4962V65.6302C39.8073 64.7249 40.5297 64.1891 41.4189 64.1891ZM49.6993 67.2376H43.0491V73.8704H49.6993V67.2376ZM41.4189 82.868H51.311C52.2187 82.868 52.9226 83.5886 52.9226 84.4754V94.1751C52.9226 95.0804 52.2001 95.7825 51.311 95.7825H41.4189C40.5112 95.7825 39.8073 95.062 39.8073 94.1751V84.4754C39.8073 83.4038 40.5297 82.868 41.4189 82.868ZM49.6993 85.9165H43.0491V92.5493H49.6993V85.9165ZM40.1593 36.3832H52.5706V32.9653H40.1593V36.3832Z" fill="#663366"/>
</svg>
