<svg width="150" height="150" viewBox="0 0 150 150" fill="none" xmlns="http://www.w3.org/2000/svg">
<path d="M25.1667 139.999H124.833C133.195 139.999 140 133.194 140 124.833C140 123.635 139.032 122.666 137.833 122.666H129.167V109.226L132.876 111.122C133.561 109.781 134.202 108.416 134.781 107.068L130.794 105.363C130.302 106.516 129.747 107.679 129.167 108.83V68.4993C129.167 62.5258 124.307 57.666 118.333 57.666H31.6667C25.6932 57.666 20.8333 62.5258 20.8333 68.4993V108.769C20.5452 108.195 20.2353 107.638 19.9645 107.055L16.0363 108.884C16.6668 110.24 17.3493 111.586 18.0665 112.881L20.8333 111.352V122.666H12.1667C10.9685 122.666 10 123.635 10 124.833C10 133.194 16.8055 139.999 25.1667 139.999ZM25.1667 68.4993C25.1667 64.9157 28.083 61.9993 31.6667 61.9993H118.333C121.917 61.9993 124.833 64.9157 124.833 68.4993V122.666H25.1667V68.4993ZM23 126.999H127H135.448C134.44 131.937 130.066 135.666 124.833 135.666H25.1667C19.9342 135.666 15.5575 131.937 14.5522 126.999H23Z" fill="#663366"/>
<path d="M116.166 68.5H33.8327C32.6345 68.5 31.666 69.4685 31.666 70.6667V114C31.666 115.198 32.6345 116.167 33.8327 116.167H116.166C117.364 116.167 118.333 115.198 118.333 114V70.6667C118.333 69.4685 117.364 68.5 116.166 68.5ZM113.999 111.833H35.9993V72.8333H113.999V111.833Z" fill="#663366"/>
<path d="M49.0007 36C47.8025 36 46.834 36.9685 46.834 38.1667V51.1667C46.834 52.3648 47.8025 53.3333 49.0007 53.3333H77.1673H85.834H96.6673C97.8655 53.3333 98.834 52.3648 98.834 51.1667V40.3333H105.334C106.532 40.3333 107.501 39.3648 107.501 38.1667V25.1667C107.501 23.9685 106.532 23 105.334 23H92.334V12.1667C92.334 10.9685 91.3655 10 90.1673 10H62.0006H53.334H42.5007C41.3025 10 40.334 10.9685 40.334 12.1667V25.1667C40.334 26.3648 41.3025 27.3333 42.5007 27.3333H53.334H55.5006V36H49.0007ZM51.1673 40.3333H57.6673H68.5006H75.0006V49H51.1673V40.3333ZM70.6673 27.3333H75.0006V36H70.6673V27.3333ZM79.334 49V40.3333H83.6673V49H79.334ZM94.5006 49H88.0006V40.3333H94.5006V49ZM103.167 36H96.6673H85.834H79.334V27.3333H90.1673H103.167V36ZM88.0006 23H77.1673H68.5006H64.1673V14.3333H88.0006V23ZM59.834 14.3333V23H57.6673H55.5006V14.3333H59.834ZM44.6673 14.3333H51.1673V23H44.6673V14.3333ZM59.834 27.3333H62.0006H66.334V36H59.834V27.3333Z" fill="#663366"/>
<path d="M75.4303 94.4922C71.7664 94.4922 68.4796 96.8127 67.2598 100.271L71.3439 101.714C71.9549 99.9869 73.5994 98.8255 75.4324 98.8255C77.2698 98.8255 78.9121 99.9869 79.5231 101.718L83.6116 100.279C82.3896 96.817 79.1028 94.4922 75.4303 94.4922Z" fill="#663366"/>
<path d="M75.4324 85.8242C68.7764 85.8242 62.6274 89.7112 59.7695 95.7259L63.6847 97.587C65.8297 93.0717 70.4404 90.1554 75.4345 90.1554C80.433 90.1554 85.048 93.0739 87.1887 97.5914L91.1039 95.7345C88.246 89.7155 82.0949 85.8242 75.4324 85.8242Z" fill="#663366"/>
<path d="M75.4332 81.4915C83.6145 81.4915 91.0115 86.0199 94.7382 93.3107L98.597 91.339C94.1271 82.5922 85.2503 77.1582 75.4332 77.1582C65.6182 77.1582 56.7413 82.5922 52.2715 91.339L56.1303 93.3107C59.857 86.0199 67.254 81.4915 75.4332 81.4915Z" fill="#663366"/>
<path d="M77.1673 103.166H72.834V107.499H77.1673V103.166Z" fill="#663366"/>
<path d="M140 81.4754L139.996 80.873L135.662 80.9185L135.667 81.4992C135.667 82.7082 135.632 83.9085 135.561 85.1002L139.885 85.358C139.961 84.0819 140 82.797 140 81.4754Z" fill="#663366"/>
<path d="M112.433 33.7548L115.106 30.3445C113.93 29.4215 112.714 28.5332 111.49 27.7012L109.053 31.2848C110.197 32.0627 111.336 32.8925 112.433 33.7548Z" fill="#663366"/>
<path d="M139.474 89.8199L135.176 89.2695C135 90.6475 134.773 92.0364 134.504 93.3992L138.753 94.242C139.043 92.7817 139.286 91.2954 139.474 89.8199Z" fill="#663366"/>
<path d="M135.979 58.9439C135.463 57.5442 134.889 56.151 134.278 54.7969L130.33 56.5779C130.9 57.841 131.433 59.1432 131.912 60.4454L135.979 58.9439Z" fill="#663366"/>
<path d="M121.756 36.3503C120.724 35.2778 119.639 34.2291 118.536 33.2324L115.633 36.4521C116.664 37.3816 117.674 38.3566 118.638 39.3554L121.756 36.3503Z" fill="#663366"/>
<path d="M133.229 64.4171C133.619 65.7409 133.967 67.1038 134.266 68.4666L138.498 67.5393C138.179 66.0789 137.805 64.6186 137.389 63.1973L133.229 64.4171Z" fill="#663366"/>
<path d="M132.295 50.782C131.597 49.4798 130.839 48.1777 130.041 46.9102L126.373 49.2177C127.118 50.4028 127.827 51.6183 128.479 52.8317L132.295 50.782Z" fill="#663366"/>
<path d="M137.725 98.6082L133.544 97.4707C133.178 98.8162 132.762 100.16 132.307 101.464L136.399 102.89C136.887 101.492 137.333 100.051 137.725 98.6082Z" fill="#663366"/>
<path d="M139.804 76.3996C139.685 74.8981 139.516 73.3987 139.303 71.9492L135.016 72.5819C135.215 73.9382 135.373 75.3357 135.484 76.7397L139.804 76.3996Z" fill="#663366"/>
<path d="M127.523 43.2029C126.646 42.0004 125.716 40.8131 124.761 39.6777L121.443 42.4662C122.336 43.5279 123.205 44.6351 124.024 45.7596L127.523 43.2029Z" fill="#663366"/>
<path d="M22.6668 50.7986L18.9293 48.6016C18.171 49.8907 17.4516 51.2167 16.793 52.5406L20.6691 54.4754C21.2866 53.2382 21.9583 52.0032 22.6668 50.7986Z" fill="#663366"/>
<path d="M18.3332 103.208C17.8392 101.914 17.3842 100.586 16.9747 99.2559L12.832 100.521C13.2675 101.947 13.7572 103.373 14.288 104.757L18.3332 103.208Z" fill="#663366"/>
<path d="M14.9324 56.6211C14.3604 58.0034 13.8317 59.4139 13.3594 60.8201L17.4674 62.2003C17.9072 60.8894 18.4012 59.5699 18.9342 58.2808L14.9324 56.6211Z" fill="#663366"/>
<path d="M15.8894 95.2091C15.5753 93.855 15.3044 92.4748 15.0878 91.1055L10.8086 91.788C11.0404 93.257 11.3308 94.7346 11.6666 96.1863L15.8894 95.2091Z" fill="#663366"/>
<path d="M10.0723 78.3913L14.4013 78.5949C14.4641 77.2169 14.5789 75.8151 14.7393 74.4241L10.4363 73.9258C10.2629 75.4143 10.1416 76.918 10.0723 78.3913Z" fill="#663366"/>
<path d="M16.2769 66.2068L12.0844 65.1191C11.7095 66.5665 11.3824 68.0398 11.1094 69.4958L15.3712 70.291C15.6225 68.9325 15.928 67.5566 16.2769 66.2068Z" fill="#663366"/>
<path d="M10.2566 87.3443L14.5726 86.9586C14.4469 85.5654 14.3711 84.1614 14.3451 82.7812L10.0117 82.8701C10.0421 84.3478 10.1244 85.8536 10.2566 87.3443Z" fill="#663366"/>
<path d="M39.4273 32.3477L36.8837 28.8398C35.6812 29.7108 34.4917 30.6382 33.3477 31.5937L36.1275 34.9195C37.1957 34.0268 38.305 33.1623 39.4273 32.3477Z" fill="#663366"/>
<path d="M27.384 43.8996L23.9866 41.2129C23.0615 42.3807 22.1688 43.5962 21.3281 44.8226L24.9053 47.2666C25.6896 46.1226 26.5238 44.9872 27.384 43.8996Z" fill="#663366"/>
<path d="M33.0138 37.709L30.0173 34.5781C28.947 35.6051 27.894 36.6863 26.8887 37.7891L30.0953 40.7055C31.0335 39.672 32.015 38.6645 33.0138 37.709Z" fill="#663366"/>
</svg>
