<svg width="150" height="150" viewBox="0 0 150 150" fill="none" xmlns="http://www.w3.org/2000/svg">
<path d="M53.8156 19.8615C53.8156 18.9809 54.523 18.2697 55.399 18.2697C56.2749 18.2697 56.9824 18.9809 56.9824 19.8615C56.9824 21.662 58.4534 23.1464 60.2557 23.1691H83.0235C84.809 23.1465 86.2856 21.6676 86.2856 19.8615C86.2856 18.9809 86.9931 18.2697 87.869 18.2697C88.7449 18.2697 89.4524 18.9809 89.4524 19.8615C89.4524 23.4004 86.5777 26.3129 83.0461 26.3524H60.2394C56.6909 26.3129 53.8156 23.4004 53.8156 19.8615ZM73.7417 128.452H69.5195C68.6436 128.452 67.9361 129.163 67.9361 130.044C67.9361 130.919 68.6435 131.635 69.5195 131.635H73.7417C74.612 131.635 75.3251 130.924 75.3251 130.044C75.3251 129.169 74.6121 128.452 73.7417 128.452ZM133 95.7485V125.551C133 125.838 132.921 126.121 132.775 126.363L126.661 136.664C125.431 138.781 123.292 140 120.805 140H42.7603C35.8992 140 30.3124 134.807 30.3124 128.424V59.7092H24.9447C20.5596 59.7092 17 56.125 17 51.7225V33.5595C17 29.14 20.5654 25.5389 24.9447 25.5389H30.3124V21.6104C30.3124 15.2437 35.8934 10.034 42.7489 10H100.496C107.369 10.0339 112.944 15.2436 112.944 21.6104V85.3686C114.769 85.871 116.257 87.203 116.953 88.9528C117.807 88.4335 118.801 88.14 119.867 88.14C122.029 88.14 123.91 89.3818 124.847 91.1936C125.662 90.68 126.627 90.3865 127.655 90.3865C130.608 90.3809 133 92.791 133 95.7485ZM33.4797 25.5387H52.0763C55.0521 25.5387 57.6517 27.2037 59.0105 29.6591H104.871C105.747 29.6591 106.454 30.3702 106.454 31.2508L106.46 69.7557C107.718 70.9354 108.509 72.6118 108.509 74.4687V85.8645C108.908 85.6501 109.335 85.4807 109.784 85.3566V21.6099C109.784 16.9929 105.618 13.2112 100.497 13.183H42.7613C37.6463 13.2112 33.4746 16.9929 33.4746 21.6099L33.4797 25.5387ZM92.4289 103.707C93.6192 103.707 94.731 104.035 95.691 104.599V74.4691C95.691 70.9076 98.5601 68.0063 102.086 68.0063C102.502 68.0063 102.906 68.0515 103.299 68.1248V32.8364L59.9868 32.842C60.0093 33.0791 60.0261 33.3161 60.0261 33.5589L60.0205 51.7218C60.0205 56.1244 56.4551 59.7085 52.0758 59.7085H50.5878V66.1994C50.5878 66.8768 50.1611 67.4807 49.5266 67.7009C49.3582 67.763 49.1841 67.7912 49.0101 67.7912C48.5384 67.7912 48.0724 67.5767 47.7692 67.1872L41.8793 59.7085H39.976V120.058H86.1283C86.0777 119.618 86.0441 119.178 86.0441 118.715L86.0384 110.169C86.0384 106.608 88.9029 103.707 92.4289 103.707ZM24.9461 56.5269H42.6429C43.1258 56.5269 43.5806 56.7471 43.8838 57.1309L47.421 61.6238V58.1187C47.421 57.2381 48.1284 56.5269 49.0044 56.5269H52.0812C54.7145 56.5269 56.8593 54.3708 56.8593 51.7236V33.5607C56.8593 30.8908 54.7145 28.7234 52.0812 28.7234H24.9452C22.3064 28.7234 20.1671 30.8908 20.1671 33.5607V51.7236C20.1671 54.3708 22.3129 56.5269 24.9461 56.5269ZM42.7622 136.817H96.9666L88.0898 124.981C87.6743 124.422 87.3318 123.841 87.0398 123.248H38.3822C37.5119 123.248 36.7988 122.531 36.7988 121.656L36.8044 59.7099H33.4805V128.424C33.4805 133.053 37.6472 136.817 42.7622 136.817ZM129.835 95.7485C129.835 94.5407 128.858 93.5642 127.662 93.5642C126.466 93.5642 125.489 94.5463 125.489 95.7485C125.489 96.6234 124.782 97.3403 123.9 97.3403C123.03 97.3403 122.317 96.6235 122.317 95.7485V93.8126C122.317 92.458 121.199 91.3121 119.869 91.3121C118.499 91.3121 117.381 92.4297 117.381 93.8126C117.381 94.6875 116.674 95.4044 115.798 95.4044C114.928 95.4044 114.215 94.6932 114.215 93.8126V91.1936C114.215 89.6075 112.929 88.3207 111.357 88.3207C109.785 88.3207 108.504 89.6076 108.504 91.1936C108.504 92.0685 107.797 92.7854 106.921 92.7854C106.045 92.7854 105.338 92.0742 105.338 91.1936V74.4698C105.338 72.6637 103.872 71.1962 102.075 71.1962C100.296 71.1962 98.847 72.6637 98.847 74.4698L98.8526 110.17C98.8526 111.045 98.1452 111.762 97.2692 111.762C96.3933 111.762 95.6858 111.051 95.6858 110.17C95.6858 108.358 94.2204 106.891 92.4237 106.891C90.6438 106.891 89.1953 108.358 89.1953 110.17V118.716C89.1953 120.375 89.6444 121.758 90.6214 123.067L99.8352 135.355C100.559 136.32 101.531 136.811 102.732 136.811H120.8C122.153 136.811 123.271 136.179 123.933 135.039L129.834 125.105L129.829 95.7494L129.835 95.7485ZM93.609 88.5238C93.6034 91.3912 91.2957 93.7279 88.4547 93.7279L85.3217 93.7223V95.6582C85.3217 100.168 81.6891 103.831 77.2197 103.831C72.7392 103.831 69.0897 100.162 69.0897 95.6582V93.7223H52.9194C50.0727 93.7223 47.7651 91.3855 47.7651 88.5125C47.7651 88.4617 47.7707 88.4109 47.7763 88.3601C47.9729 86.3395 48.5006 84.4938 49.3428 82.8851C50.6173 79.7412 54.4242 76.9416 60.9652 74.3679V72.9116C60.9652 71.6304 61.987 70.5862 63.2503 70.5467C60.8865 67.115 60.1117 62.4302 60.6957 55.4933C61.1505 49.3072 66.1924 46.4849 70.6842 46.4849C75.1872 46.4849 80.246 49.307 80.7065 55.5102C81.2848 62.4187 80.51 67.1035 78.1405 70.5463C79.4151 70.5801 80.437 71.6243 80.437 72.9169V74.3787C85.6755 76.4445 89.1454 78.6345 90.9645 81.0165C91.1274 80.9996 91.2902 80.9713 91.4586 80.9713C93.6989 80.9713 95.5236 82.817 95.5236 85.0917C95.5068 86.531 94.7431 87.7957 93.609 88.5238ZM91.4417 84.1439C90.9196 84.1439 90.5097 84.5559 90.5097 85.0809C90.5097 85.5832 90.9308 85.9896 91.4417 85.9896C91.9302 85.9896 92.3401 85.5776 92.3401 85.0809C92.3401 84.5616 91.9358 84.1439 91.4417 84.1439ZM80.42 77.8054V78.5899C80.42 83.0263 76.8266 86.6387 72.4135 86.6387H72.2562V90.5389H82.1605V86.8871C82.1605 84.9906 83.6821 83.4497 85.5463 83.4497H87.6799C87.809 83.1449 87.9831 82.874 88.174 82.6144C87.0342 81.3105 84.7825 79.6454 80.42 77.8054ZM67.1412 70.2645C67.4556 70.5693 67.6353 70.9982 67.6297 71.4385C67.5848 73.8487 66.765 75.4459 65.1985 76.1911C65.148 76.2136 65.0919 76.2362 65.0357 76.2588C64.7157 76.366 64.4237 76.4733 64.1205 76.5862V78.5955C64.1205 81.2766 66.2934 83.4609 68.9604 83.4609H72.4078C75.0748 83.4609 77.2477 81.2766 77.2477 78.5955V76.5918C76.9445 76.4846 76.6525 76.3773 76.3325 76.2644C76.2819 76.2419 76.2258 76.2249 76.1752 76.1967C75.0691 75.6718 73.7441 74.4187 73.7441 71.416C73.7441 70.9813 73.9125 70.5693 74.227 70.2758C77.1579 67.4141 78.1517 63.0736 77.5396 55.7584C77.2252 51.5421 73.862 49.6625 70.6729 49.6625C67.4951 49.6625 64.1542 51.5421 63.8398 55.7414C63.2222 63.0959 64.2103 67.4364 67.1412 70.2645ZM69.0896 90.5443V86.6441H68.966C64.5529 86.6441 60.9595 83.0317 60.9595 78.5953V77.8051C54.9125 80.3507 52.8519 82.5971 52.2511 84.1324C52.2286 84.1888 52.2062 84.2453 52.1725 84.3017C51.5155 85.5378 51.1001 86.9772 50.9316 88.5857C50.9653 89.675 51.8468 90.5443 52.9192 90.5443L69.0896 90.5443ZM82.1549 93.722H72.2506V95.658C72.2506 98.4067 74.4797 100.653 77.214 100.653C79.9371 100.653 82.1493 98.4123 82.1493 95.658L82.1549 93.722ZM90.3749 89.009C89.1453 88.676 88.1346 87.7955 87.6518 86.6385H85.535C85.4283 86.6385 85.316 86.7626 85.316 86.8924V90.5443H88.4547C89.3867 90.5443 90.1616 89.8896 90.3749 89.009ZM34.0432 47.1345H30.1016C29.2257 47.1345 28.5182 46.4233 28.5182 45.5428V39.7404C28.5182 38.8599 29.2257 38.1487 30.1016 38.1487H34.0432V34.1864C34.0432 33.3058 34.7506 32.5946 35.6266 32.5946H41.3985C42.2744 32.5946 42.9819 33.3058 42.9819 34.1864V38.1487H46.9234C47.7937 38.1487 48.5068 38.8599 48.5068 39.7404V45.5428C48.5068 46.4233 47.7993 47.1345 46.9234 47.1345H42.9819V51.0968C42.9819 51.9774 42.2744 52.6886 41.3985 52.6886H35.6266C34.7507 52.6886 34.0432 51.9774 34.0432 51.0968V47.1345ZM35.6266 43.9512C36.5025 43.9512 37.21 44.6623 37.21 45.5429V49.5052H39.8152V45.5429C39.8152 44.668 40.517 43.9512 41.3986 43.9512H45.3401V41.3322H41.3986C40.5227 41.3322 39.8152 40.621 39.8152 39.7404V35.7781H37.21V39.7404C37.21 40.6153 36.5025 41.3322 35.6266 41.3322H31.685V43.9512H35.6266Z" fill="#663366"/>
</svg>
