<svg width="150" height="150" viewBox="0 0 150 150" fill="none" xmlns="http://www.w3.org/2000/svg">
<path fill-rule="evenodd" clip-rule="evenodd" d="M93.8862 97.4068C94.9921 97.4068 95.8892 98.2966 95.8892 99.3935C95.8892 100.49 94.9921 101.38 93.8862 101.38C92.7803 101.38 91.8832 100.49 91.8832 99.3935C91.8832 98.2966 92.7803 97.4068 93.8862 97.4068ZM109.459 97.4068C110.565 97.4068 111.462 98.2966 111.462 99.3935C111.462 100.49 110.565 101.38 109.459 101.38C108.353 101.38 107.456 100.49 107.456 99.3935C107.456 98.2966 108.353 97.4068 109.459 97.4068ZM56.1662 32.5472C55.2126 32.5472 54.434 31.7804 54.434 30.829C54.434 29.8832 55.207 29.1109 56.1662 29.1109H123.863C124.816 29.1109 125.595 29.8776 125.595 30.829C125.595 31.7749 124.822 32.5472 123.863 32.5472H56.1662ZM45.1298 29.1165C46.0833 29.1165 46.862 29.8832 46.862 30.8346C46.862 31.7804 46.089 32.5527 45.1298 32.5527H45.1241C44.1706 32.5527 43.392 31.786 43.392 30.8346C43.392 29.8888 44.165 29.1165 45.1241 29.1165H45.1298ZM35.6394 29.1165C36.593 29.1165 37.3716 29.8832 37.3716 30.8346C37.3716 31.7804 36.5986 32.5527 35.6394 32.5527H35.6338C34.6802 32.5527 33.9016 31.786 33.9016 30.8346C33.9016 29.8888 34.6746 29.1165 35.6338 29.1165H35.6394ZM26.149 29.1165C27.1026 29.1165 27.8812 29.8832 27.8812 30.8346C27.8812 31.7804 27.1082 32.5527 26.149 32.5527H26.1434C25.1898 32.5527 24.4112 31.786 24.4112 30.8346C24.4112 29.8888 25.1842 29.1165 26.1434 29.1165H26.149ZM45.5074 77.7619L51.1892 74.5103H51.1948C51.3246 74.4376 51.4262 74.3368 51.4939 74.2193H51.4995C51.5616 74.113 51.5898 73.9787 51.5898 73.8164C51.5898 73.6541 51.556 73.5141 51.4995 73.4134H51.4939C51.4262 73.2959 51.3246 73.1951 51.1948 73.1224H51.1892L39.8255 66.6135V66.6079C39.6957 66.5352 39.5603 66.5016 39.4249 66.5016C39.2839 66.5016 39.1428 66.5407 39.013 66.6135C38.8776 66.6919 38.7761 66.787 38.714 66.8989V66.9045C38.6519 67.0109 38.6181 67.1508 38.6181 67.3075V80.3251C38.6181 80.4874 38.6519 80.6273 38.7083 80.7281H38.714C38.7817 80.84 38.8833 80.9407 39.0243 81.0191C39.1541 81.0918 39.2895 81.131 39.4249 81.131C39.5603 81.131 39.6957 81.0918 39.8255 81.0191L45.5073 77.7675L45.5074 77.7619ZM52.9214 77.4709L41.5577 83.9798C40.8806 84.3659 40.1527 84.5618 39.4248 84.5618C38.6969 84.5618 37.9691 84.3659 37.292 83.9798C36.6205 83.5992 36.0958 83.0675 35.7291 82.4407V82.4351C35.3567 81.7971 35.1592 81.0808 35.1592 80.3196V67.3019C35.1592 66.5408 35.3567 65.8188 35.7291 65.1808H35.7347C36.1015 64.554 36.6319 64.0223 37.3033 63.6417C37.9803 63.2556 38.7026 63.0597 39.4305 63.0597C40.1584 63.0597 40.8806 63.2556 41.5577 63.6417H41.5633L52.927 70.1506V70.1562C53.5985 70.5424 54.1288 71.0685 54.4899 71.6897V71.6953C54.8623 72.3333 55.0598 73.0496 55.0598 73.8108C55.0598 74.5664 54.8623 75.2883 54.4899 75.9264V75.932C54.1288 76.5532 53.5984 77.0849 52.9214 77.4655L52.9214 77.4709ZM56.9613 60.8154C60.3129 64.1398 62.3892 68.7401 62.3892 73.8163C62.3892 78.8924 60.3129 83.4928 56.9613 86.8171C53.6098 90.1415 48.9718 92.201 43.8542 92.201C38.7366 92.201 34.0986 90.1415 30.7471 86.8171C27.3956 83.4928 25.3192 78.8924 25.3192 73.8163C25.3192 68.7401 27.3956 64.1398 30.7471 60.8154C34.0986 57.4911 38.7366 55.4315 43.8542 55.4315C48.9718 55.4315 53.6098 57.4911 56.9613 60.8154ZM43.8542 51.9953C49.9253 51.9953 55.4266 54.4353 59.4108 58.3865C63.3943 62.3377 65.8543 67.7888 65.8543 73.817C65.8543 79.8389 63.3943 85.2956 59.4108 89.2475C55.4273 93.1987 49.9317 95.6387 43.8542 95.6387C37.7831 95.6387 32.2818 93.1987 28.2976 89.2475C24.3141 85.3019 21.8541 79.8452 21.8541 73.817C21.8541 67.7951 24.3141 62.3384 28.2976 58.3865C32.2811 54.4353 37.7767 51.9953 43.8542 51.9953ZM110.71 83.2244H92.6314C89.8159 83.2244 87.2486 84.3717 85.3923 86.213C83.536 88.0543 82.3794 90.6007 82.3794 93.3934V107.508C82.3794 110.301 83.5361 112.847 85.3923 114.688C87.2487 116.53 89.8159 117.677 92.6314 117.677H110.71C113.526 117.677 116.093 116.53 117.949 114.688C119.805 112.847 120.962 110.301 120.962 107.508V93.3934C120.962 90.6007 119.805 88.0542 117.949 86.213C116.093 84.3718 113.526 83.2244 110.71 83.2244ZM108.983 79.7938V78.2043C108.983 78.0476 108.916 77.8965 108.809 77.7957C108.701 77.6894 108.555 77.6222 108.397 77.6222H94.9566C94.7986 77.6222 94.6463 77.6894 94.5447 77.7957C94.4375 77.9021 94.3698 78.0476 94.3698 78.2043V79.7938H108.989H108.983ZM78.9218 94.3847C78.1206 94.5134 77.404 94.8996 76.8511 95.4424C76.1627 96.1252 75.7339 97.071 75.7339 98.1064V103.322C75.7339 104.358 76.1627 105.304 76.8511 105.986C77.404 106.535 78.1263 106.915 78.9218 107.044V94.3792V94.3847ZM124.427 107.05C125.229 106.921 125.945 106.535 126.498 105.992C127.187 105.309 127.615 104.363 127.615 103.328V98.1119C127.615 97.0766 127.187 96.1308 126.498 95.4479C125.945 94.8995 125.223 94.5189 124.427 94.3902V107.055V107.05ZM111.969 96.086H91.3743C90.7988 96.086 90.2741 96.3211 89.8961 96.6961C89.5181 97.071 89.2811 97.5915 89.2811 98.1623V100.776C89.2811 101.347 89.5181 101.867 89.8961 102.242C90.2741 102.617 90.7989 102.852 91.3743 102.852H111.969C112.545 102.852 113.069 102.617 113.447 102.242C113.831 101.867 114.062 101.347 114.062 100.776V98.1623C114.062 97.5915 113.825 97.071 113.447 96.6961C113.069 96.3211 112.545 96.086 111.969 96.086ZM91.3743 92.6554C89.8453 92.6554 88.4573 93.2766 87.4472 94.2728C86.4429 95.269 85.8166 96.6457 85.8166 98.1681V100.782C85.8166 102.298 86.4429 103.675 87.4472 104.677C88.4515 105.673 89.8395 106.294 91.3743 106.294H111.969C113.498 106.294 114.886 105.673 115.896 104.677C116.901 103.681 117.527 102.304 117.527 100.782V98.1681C117.527 96.6514 116.901 95.2747 115.896 94.2728C114.892 93.2766 113.504 92.6554 111.969 92.6554H91.3743ZM102.603 63.6254C102.366 63.3904 102.033 63.2449 101.672 63.2449C101.305 63.2449 100.978 63.3904 100.741 63.6254C100.504 63.8605 100.357 64.1907 100.357 64.5489C100.357 64.9126 100.504 65.2372 100.741 65.4723C100.938 65.6682 101.203 65.8025 101.497 65.8417C101.553 65.8361 101.615 65.8305 101.672 65.8305C101.728 65.8305 101.79 65.8361 101.846 65.8417C102.14 65.8025 102.405 65.6682 102.603 65.4723C102.84 65.2372 102.986 64.907 102.986 64.5489C102.986 64.1851 102.84 63.8605 102.603 63.6254ZM101.672 59.8085C100.351 59.8085 99.1607 60.3402 98.2919 61.1965C97.4286 62.0527 96.8926 63.2392 96.8926 64.5487C96.8926 65.8583 97.4286 67.0393 98.2919 67.901C98.7545 68.36 99.3188 68.7293 99.9394 68.97V74.1916H94.9516C93.8344 74.1916 92.8244 74.6449 92.0909 75.3725C91.3574 76.1 90.9004 77.1073 90.9004 78.21V79.9113C87.814 80.3031 85.0436 81.7134 82.9447 83.7953C81.0207 85.7037 79.6665 88.1719 79.1474 90.9254C77.3024 91.0206 75.6322 91.8097 74.3965 93.0298C73.0818 94.3338 72.2636 96.136 72.2636 98.1227V103.339C72.2636 105.32 73.0818 107.122 74.3965 108.432C75.6547 109.68 77.3644 110.474 79.2602 110.542C79.847 113.077 81.1504 115.349 82.9447 117.129C85.4274 119.591 88.8579 121.125 92.6269 121.125H110.705C114.48 121.125 117.905 119.597 120.388 117.129C122.182 115.349 123.485 113.077 124.072 110.542C125.962 110.474 127.678 109.68 128.936 108.432C130.251 107.128 131.069 105.325 131.069 103.339V98.1227C131.069 96.1416 130.251 94.3395 128.936 93.0298C127.706 91.8098 126.036 91.0207 124.185 90.9254C123.672 88.1719 122.312 85.7039 120.388 83.7953C118.289 81.7134 115.518 80.2975 112.432 79.9113V78.21C112.432 77.1018 111.975 76.1 111.241 75.3725C110.508 74.6449 109.492 74.1916 108.381 74.1916H103.393V68.97C104.019 68.7293 104.578 68.36 105.04 67.901C105.904 67.0448 106.44 65.8583 106.44 64.5487C106.44 63.2391 105.904 62.0582 105.04 61.1965C104.177 60.3402 102.981 59.8085 101.661 59.8085H101.672ZM14.621 17C13.3459 17 12.1948 17.5149 11.3542 18.3432C10.5191 19.1715 10 20.3188 10 21.5836V128.416C10 129.681 10.5191 130.823 11.3542 131.657C12.1892 132.485 13.3459 133 14.621 133H135.379C136.654 133 137.805 132.485 138.646 131.657C139.481 130.829 140 129.681 140 128.416V21.5836C140 20.3188 139.481 19.177 138.646 18.3432C137.811 17.5149 136.654 17 135.379 17H14.621ZM136.54 43.6172H13.4583V128.418C13.4583 128.731 13.588 129.022 13.8025 129.229C14.0112 129.436 14.3046 129.57 14.6206 129.57H135.379C135.694 129.57 135.988 129.442 136.197 129.229C136.405 129.022 136.541 128.731 136.541 128.418L136.54 43.6172ZM13.4583 40.181H136.54V21.5784C136.54 21.265 136.411 20.974 136.196 20.7669C135.987 20.5598 135.694 20.4255 135.378 20.4255H14.62C14.3041 20.4255 14.0107 20.5542 13.8019 20.7669C13.5931 20.974 13.4577 21.265 13.4577 21.5784L13.4583 40.181ZM32.9972 102.678C33.2849 102.963 33.4599 103.355 33.4599 103.786C33.4599 104.223 33.2849 104.614 32.9972 104.894C32.7094 105.18 32.3145 105.353 31.88 105.353C31.4399 105.353 31.0449 105.18 30.7628 104.894C30.4751 104.609 30.3001 104.217 30.3001 103.786C30.3001 103.35 30.4751 102.958 30.7628 102.678C31.0506 102.393 31.4455 102.219 31.88 102.219C32.3201 102.219 32.7151 102.393 32.9972 102.678ZM31.8744 98.7884C33.268 98.7884 34.5262 99.3481 35.4404 100.255C35.9539 100.764 36.3601 101.385 36.614 102.074H64.6058C65.5593 102.074 66.3379 102.84 66.3379 103.792C66.3379 104.738 65.5649 105.51 64.6058 105.51H36.614C36.3601 106.198 35.9539 106.819 35.4404 107.329C34.5263 108.235 33.2681 108.795 31.8744 108.795C30.4807 108.795 29.2225 108.235 28.3083 107.329C27.7949 106.819 27.3886 106.198 27.1347 105.51H22.4403C21.4867 105.51 20.7081 104.743 20.7081 103.792C20.7081 102.846 21.4811 102.074 22.4403 102.074H27.1347C27.3886 101.385 27.7949 100.764 28.3083 100.255C29.2224 99.3481 30.4806 98.7884 31.8744 98.7884Z" fill="#663366"/>
</svg>
