<svg width="150" height="150" viewBox="0 0 150 150" fill="none" xmlns="http://www.w3.org/2000/svg">
<path d="M104.29 84.0566C103.711 84.0566 103.159 83.8272 102.75 83.4175L86.2591 66.9271H86.2537C85.8495 66.5229 85.62 65.9766 85.6146 65.4031L85.4835 51.5127C85.478 50.9337 85.702 50.3766 86.1117 49.9614C86.5159 49.5463 87.073 49.3114 87.6521 49.3059L101.767 49.2021V49.2076C102.357 49.2021 102.914 49.4316 103.329 49.8412L119.814 66.3317L119.819 66.3372C120.671 67.1893 120.671 68.5713 119.819 69.4233L105.836 83.4066C105.426 83.8217 104.875 84.0512 104.29 84.0566ZM89.9795 64.4688L104.29 78.7793L115.182 67.8986L100.881 53.5979L89.8692 53.6799L89.9795 64.4688Z" fill="#663366"/>
<path d="M87.6672 53.6982C87.0555 53.6982 86.4765 53.4469 86.0614 52.999C80.9652 47.4876 77.3218 48.5911 75.0277 49.902V49.8965C73.979 50.4974 72.6462 50.1314 72.0454 49.0827C71.45 48.0339 71.816 46.7012 72.8593 46.1058C76.6828 43.9209 82.6257 42.8448 89.2673 50.0331L89.2727 50.0276C89.8626 50.6667 90.0156 51.5953 89.6715 52.3873C89.3219 53.1848 88.5357 53.6982 87.6672 53.6982Z" fill="#663366"/>
<path d="M72.7078 90.3884H38.0222C35.7336 90.4048 33.5487 89.4598 32.0028 87.7774C30.4515 86.0896 29.6924 83.8337 29.9053 81.556L32.7456 47.7332C32.8385 46.597 33.7944 45.7285 34.9305 45.734L75.7883 45.7285C76.9245 45.7285 77.8804 46.597 77.9732 47.7332L80.808 81.556C81.0211 83.8282 80.2564 86.0842 78.716 87.7665C77.1701 89.4488 74.991 90.3993 72.7078 90.3884ZM36.9301 50.1039L34.2536 81.9271V81.9216C34.1498 82.9758 34.4994 84.03 35.2149 84.8111C35.936 85.5977 36.952 86.0347 38.0116 86.0183H72.707C73.7721 86.0347 74.7881 85.5977 75.5091 84.8166C76.2246 84.03 76.5742 82.9813 76.4649 81.9216L73.7939 50.0984L36.9301 50.1039Z" fill="#663366"/>
<path d="M67.9663 50.1037C66.7591 50.1037 65.7814 49.1205 65.7814 47.9188V36.3826C65.7814 35.3994 64.962 33.9682 64.5087 33.7389H46.2157C45.7569 33.9683 44.943 35.3994 44.943 36.3826V47.9188C44.943 49.1205 43.9653 50.1037 42.7581 50.1037C41.551 50.1037 40.5732 49.1205 40.5732 47.9188V36.3826C40.5732 33.5204 42.7472 29.3691 46.1447 29.3691H64.5803C67.9833 29.3691 70.1518 33.5205 70.1518 36.3826V47.9188H70.1573C70.1573 48.4978 69.9279 49.055 69.5127 49.4647C69.1031 49.8743 68.5453 50.1037 67.9663 50.1037Z" fill="#663366"/>
<path d="M55.3595 79.6157H55.283C55.1246 79.6103 54.9662 79.5884 54.8133 79.5447C54.4309 79.4464 54.0868 79.2497 53.8082 78.9766L44.4405 69.6035C41.5127 66.5993 41.5401 61.7926 44.5115 58.8211C47.483 55.8497 52.2898 55.8224 55.2939 58.7501L55.354 58.8102L55.4141 58.7501C58.4237 55.8223 63.2305 55.8497 66.2019 58.8211C69.1734 61.7925 69.2006 66.5993 66.2729 69.6035L56.8998 78.9766C56.4901 79.3863 55.9385 79.6157 55.3595 79.6157ZM49.8645 60.8753C48.5317 60.8753 47.33 61.6837 46.8165 62.9181C46.3031 64.1526 46.5871 65.5727 47.5266 66.5177L55.3541 74.3397L63.176 66.5177H63.1815C64.416 65.2177 64.3886 63.1694 63.1214 61.9021C61.8542 60.6348 59.8058 60.6076 58.5058 61.842L56.9 63.4479V63.4424C56.0478 64.3 54.6659 64.3 53.8084 63.4424L52.2026 61.8366V61.842C51.5853 61.2193 50.7439 60.8753 49.8645 60.8753Z" fill="#663366"/>
<path d="M129.592 109.752H20.74C16.4686 109.752 13.0056 106.289 13 102.017V17.74C13.0055 13.4686 16.4631 10.0056 20.74 10H129.592C133.869 10.0055 137.326 13.4686 137.332 17.74V102.017C137.326 106.289 133.863 109.752 129.592 109.752ZM20.74 14.3703C18.8775 14.3703 17.3698 15.8779 17.3698 17.7406V102.018C17.3698 103.875 18.8773 105.383 20.74 105.383H129.592C131.454 105.383 132.962 103.875 132.962 102.018V17.7406C132.962 15.878 131.454 14.3703 129.592 14.3703H20.74Z" fill="#663366"/>
<path d="M125.144 102.159H25.1858C23.2084 102.153 21.6025 100.553 21.6025 98.5756V21.1809C21.608 19.2035 23.2084 17.6031 25.1858 17.5977H125.144C127.121 17.6031 128.722 19.2035 128.727 21.1809V98.5756C128.727 100.553 127.121 102.153 125.144 102.159ZM25.966 97.789H124.357V21.9674H25.9716L25.966 97.789Z" fill="#663366"/>
<path d="M83.292 123.996H67.0365C65.8348 123.996 64.8516 123.018 64.8516 121.811V107.565C64.8516 106.363 65.8348 105.38 67.0365 105.38C68.2436 105.38 69.2213 106.363 69.2213 107.565V119.625H81.1017L81.1072 107.565C81.1072 106.363 82.0849 105.38 83.292 105.38C84.4937 105.38 85.4769 106.363 85.4769 107.565V121.811C85.4769 122.395 85.2421 122.947 84.8324 123.357C84.4227 123.766 83.871 124.001 83.292 124.001L83.292 123.996Z" fill="#663366"/>
<path d="M112.648 140H37.6845C36.969 140 36.2916 139.645 35.8819 139.05C35.4777 138.46 35.3903 137.701 35.647 137.029L41.814 121.046C42.1417 120.205 42.9501 119.653 43.8513 119.647H106.481C107.382 119.653 108.191 120.205 108.518 121.046L114.685 137.029C114.942 137.701 114.855 138.46 114.451 139.05C114.041 139.645 113.363 140 112.648 140ZM40.8741 135.63H109.458L104.979 124.018H45.3528L40.8741 135.63Z" fill="#663366"/>
</svg>
