<svg width="150" height="150" viewBox="0 0 150 150" fill="none" xmlns="http://www.w3.org/2000/svg">
<path d="M127.407 22.014C127 22.0704 126.639 22.2907 126.408 22.624C126.177 22.9628 126.098 23.3808 126.188 23.7762L127.993 32.1296C122.176 27.3287 114.57 23.8665 106.598 23.8665C88.1698 23.8665 73.1952 38.8345 73.1952 57.2409C73.1952 60.1496 73.4152 63.0133 74.1882 65.8203C74.239 66.2383 74.4703 66.6111 74.8202 66.8426C75.17 67.0742 75.6045 67.142 76.0107 67.029C76.4113 66.9161 76.7499 66.6337 76.9304 66.2552C77.1053 65.8768 77.111 65.4363 76.9417 65.0522C76.2703 62.6179 76.0841 60.0197 76.0841 57.241C76.0841 40.3991 89.733 26.7584 106.598 26.7584C114.114 26.7584 121.528 30.2319 127.001 35.0215L117.477 35.6992C116.681 35.7501 116.072 36.4335 116.123 37.2355C116.173 38.0319 116.862 38.6362 117.657 38.591L130.432 37.6874C130.844 37.6535 131.222 37.4501 131.47 37.1226C131.718 36.795 131.82 36.377 131.741 35.9703L129.032 23.1888C128.897 22.4263 128.174 21.9066 127.407 22.014ZM106.326 36.648C105.852 36.7553 105.457 37.0942 105.288 37.5517C103.234 42.8269 100.165 46.3457 97.4791 49.7006C94.7934 53.0555 92.3784 56.3823 92.3784 60.9911C92.3784 68.6556 98.8334 74.857 106.642 74.857C114.451 74.857 120.816 68.6498 120.816 60.9911C120.816 56.3823 118.435 53.0555 115.761 49.7006C113.086 46.3457 110.005 42.8325 107.952 37.5517C107.703 36.8965 107.015 36.5124 106.326 36.648ZM106.597 41.0761C108.73 45.3799 111.32 48.7743 113.503 51.508C116.121 54.7895 117.927 57.3763 117.927 60.9911C117.927 67.0458 112.928 71.9652 106.642 71.9652C100.356 71.9652 95.2671 67.0402 95.2671 60.9911C95.2671 57.3763 97.1065 54.7895 99.7359 51.508C101.925 48.78 104.464 45.3685 106.597 41.0761ZM137.653 47.5317C137.196 47.5261 136.761 47.7407 136.485 48.1078C136.214 48.4693 136.124 48.9437 136.254 49.3843C136.925 51.8186 137.111 54.4619 137.111 57.2408C137.111 74.0827 123.462 87.6785 106.597 87.6785C99.0758 87.6785 91.6672 84.205 86.1942 79.4155L95.7637 78.7377C96.1474 78.7095 96.5085 78.5287 96.7624 78.2407C97.0107 77.947 97.1405 77.5629 97.1066 77.1788C97.0784 76.7948 96.8978 76.4333 96.5988 76.1848C96.3054 75.9362 95.9217 75.812 95.538 75.8459L82.7635 76.7496C82.3403 76.7778 81.9567 76.9924 81.7027 77.3313C81.4545 77.6702 81.3586 78.0995 81.4545 78.5118L84.2079 91.2482C84.2361 91.6661 84.4392 92.0502 84.7721 92.3044C85.1107 92.5585 85.5338 92.6546 85.9458 92.5698C86.3577 92.4851 86.7075 92.2253 86.9106 91.8582C87.1137 91.491 87.1476 91.0505 87.0065 90.6608L85.2912 82.3977C91.1029 87.1704 98.6525 90.5704 106.597 90.5704C125.025 90.5704 140 75.6487 140 57.2408C140 54.3321 139.825 51.4234 139.052 48.6163C138.888 47.9781 138.313 47.5317 137.653 47.5317ZM45.3435 59.5452C43.5774 59.5452 41.9186 60.0818 40.4234 60.9911H21.7813C18.3282 60.9911 15.3094 63.0865 13.25 66.1816C11.1905 69.2823 10 73.3942 10 77.9691C10 82.5384 11.1905 86.701 13.25 89.8018C15.3095 92.9025 18.3282 94.9981 21.7813 94.9981H40.3786C41.8852 95.9244 43.5609 96.444 45.344 96.444H52.6565C54.5355 96.444 56.3917 95.625 57.8476 94.7722C64.2855 99.4996 68.7657 107.215 69.2678 120.33C69.2621 120.387 69.2621 120.449 69.2678 120.511C69.2678 121.838 68.3932 123.16 66.6045 124.261C64.8158 125.357 62.1865 126.114 59.2919 126.114H56.6738V126.108C56.2902 126.102 55.9121 126.255 55.6413 126.526C55.3648 126.797 55.2125 127.17 55.2125 127.554C55.2125 127.944 55.3648 128.311 55.6413 128.582C55.9121 128.853 56.2902 129.005 56.6738 129H59.2919C62.666 129 65.7469 128.181 68.0941 126.741C69.138 126.102 70.0182 125.25 70.7122 124.346C71.4062 125.25 72.2413 126.102 73.2851 126.741C75.6323 128.181 78.7131 129 82.0873 129C85.4445 129 88.5309 128.203 90.8895 126.786C91.9447 126.153 92.8079 125.317 93.5076 124.391C94.2073 125.317 95.0705 126.148 96.1257 126.786C98.4842 128.204 101.571 129 104.928 129C108.302 129 111.383 128.181 113.73 126.741C114.791 126.091 115.649 125.227 116.348 124.301C117.042 125.216 117.872 126.097 118.921 126.741C121.268 128.181 124.349 129 127.723 129H130.341C130.725 129.005 131.103 128.853 131.374 128.582C131.65 128.311 131.803 127.944 131.803 127.554C131.803 127.17 131.65 126.797 131.374 126.526C131.103 126.255 130.725 126.102 130.341 126.108H127.723C124.829 126.108 122.199 125.351 120.411 124.256C118.622 123.16 117.747 121.838 117.747 120.505V120.511C117.736 119.72 117.093 119.087 116.303 119.087C115.513 119.087 114.87 119.72 114.859 120.511C114.859 121.838 113.984 123.16 112.195 124.261C110.407 125.357 107.822 126.114 104.928 126.114C102.016 126.114 99.3928 125.419 97.6154 124.351C95.838 123.284 94.9521 121.974 94.9521 120.511C94.9408 119.72 94.2975 119.087 93.5076 119.087C92.7177 119.087 92.0744 119.72 92.0631 120.511C92.0631 121.974 91.1773 123.278 89.3999 124.351C87.6225 125.419 84.9987 126.114 82.0873 126.114C79.1928 126.114 76.6085 125.357 74.82 124.261C73.274 123.312 72.405 122.2 72.2019 121.053V121.008C72.1737 120.844 72.1567 120.675 72.1567 120.511C71.6151 104.826 65.3859 95.6022 56.7646 90.6152C56.7477 90.5983 56.7364 90.5814 56.7195 90.5701C53.1309 88.5763 50.7949 87.5597 49.4069 86.0967C48.2164 84.8428 47.4829 82.996 47.0146 79.5507C51.2239 79.6862 54.8745 80.3809 58.0286 81.4937C58.1019 81.5276 58.1753 81.5558 58.2543 81.584C65.8658 84.3346 70.7127 89.4631 74.594 94.727C77.4491 98.596 79.7117 102.516 82.0871 105.611C83.272 107.158 84.5246 108.542 85.9239 109.542H85.4725C84.4455 109.525 83.6669 109.542 82.8092 109.542V109.536C82.4255 109.531 82.0475 109.677 81.7766 109.954C81.5001 110.225 81.3478 110.592 81.3478 110.982C81.3478 111.366 81.5001 111.739 81.7766 112.01C82.0475 112.281 82.4255 112.434 82.8092 112.428C83.7063 112.428 84.4624 112.411 85.4272 112.428C88.8466 112.496 91.9442 111.587 94.2745 110.079C95.2733 109.435 96.0801 108.621 96.7573 107.774C97.4626 108.723 98.3429 109.553 99.4206 110.214C101.773 111.643 104.86 112.428 108.223 112.428C111.586 112.428 114.672 111.649 117.025 110.214C118.086 109.57 118.989 108.751 119.688 107.819C120.377 108.712 121.229 109.536 122.261 110.169C124.608 111.609 127.689 112.428 131.063 112.428H133.681C134.065 112.434 134.443 112.281 134.714 112.01C134.99 111.739 135.143 111.366 135.143 110.982C135.143 110.592 134.99 110.225 134.714 109.954C134.443 109.677 134.065 109.531 133.681 109.536H131.063C128.169 109.536 125.54 108.825 123.751 107.729C121.962 106.633 121.088 105.311 121.088 103.979C121.076 103.193 120.433 102.555 119.643 102.555C118.853 102.555 118.21 103.193 118.199 103.979C118.199 105.357 117.318 106.639 115.535 107.729C113.752 108.813 111.117 109.536 108.223 109.536C105.328 109.536 102.738 108.813 100.955 107.729C99.1725 106.644 98.2921 105.357 98.2921 103.979C98.2978 103.555 98.1172 103.148 97.79 102.872C97.4683 102.589 97.0452 102.47 96.622 102.538C95.911 102.646 95.392 103.261 95.4032 103.979C95.4032 105.035 94.4948 106.475 92.6949 107.638C92.2717 107.909 91.7977 108.181 91.2956 108.407C91.1094 108.322 90.9119 108.277 90.7088 108.271C88.4293 108.243 86.5334 106.695 84.3442 103.843C82.155 100.991 79.8697 97.0314 76.8963 93.0042C73.9115 88.9602 70.1762 84.8541 65.115 81.759C65.2843 80.5334 65.3859 79.2625 65.3859 77.9635C65.3859 72.9988 64.0881 68.5369 61.865 65.182C59.6418 61.827 56.3636 59.5396 52.6566 59.5396H45.344L45.3435 59.5452ZM99.9613 59.7711C99.493 59.7598 99.0472 59.9801 98.7707 60.3585C98.4943 60.7313 98.4153 61.2227 98.562 61.6689C99.651 65.4022 102.263 67.1023 104.43 68.3956C104.763 68.6385 105.181 68.7289 105.581 68.6498C105.982 68.5651 106.332 68.3109 106.535 67.9608C106.743 67.6049 106.789 67.1757 106.664 66.786C106.535 66.3962 106.247 66.0799 105.875 65.9105C103.759 64.651 102.145 63.7022 101.316 60.8498V60.8555C101.158 60.2342 100.605 59.7881 99.9613 59.7711ZM45.3435 62.4371H52.6561C55.1951 62.4371 57.5762 63.9846 59.427 66.7748C61.2776 69.5593 62.4964 73.5243 62.4964 77.9749C62.4964 78.7543 62.4682 79.5281 62.4062 80.2794C61.6952 79.9292 60.9561 79.6412 60.1944 79.3305C60.217 78.8787 60.2396 78.4325 60.2396 77.975C60.2396 74.5241 59.4948 71.4175 58.1179 69.0341C56.7412 66.6507 54.6083 64.9222 52.0693 64.9222C49.5302 64.9222 47.4425 66.6505 46.0658 69.0341C44.6891 71.4175 43.8991 74.5241 43.8991 77.975V77.9693V78.1049C44.3618 83.0752 45.3661 86.0179 47.3297 88.085C49.2256 90.0844 51.7082 91.1519 55.0034 92.9649C54.1175 93.3264 53.226 93.5523 52.6562 93.5523H45.3436C42.8045 93.5523 40.4235 92.0048 38.5727 89.2146C36.7221 86.4301 35.5032 82.42 35.5032 77.9693C35.5032 73.5187 36.722 69.5594 38.5727 66.7692C40.4233 63.9847 42.8045 62.4315 45.3436 62.4315L45.3435 62.4371ZM21.7816 63.883H37.2199C36.8644 64.3122 36.4977 64.7189 36.1817 65.1933C33.9585 68.5483 32.6156 73.0102 32.6156 77.9748C32.6156 82.9395 33.9585 87.4467 36.1817 90.8016C36.4864 91.2591 36.8362 91.6997 37.1748 92.112H21.7826C19.4975 92.112 17.3703 90.7621 15.6888 88.2261C14.0073 85.6901 12.8901 82.0245 12.8901 77.9691C12.8901 73.9138 14.0073 70.2934 15.6888 67.7631C17.3702 65.2327 19.4974 63.8772 21.7826 63.8772L21.7816 63.883ZM52.0704 67.8141C53.2665 67.8141 54.5304 68.65 55.5912 70.4801C56.652 72.3101 57.3517 74.976 57.3517 77.9751V78.3365C54.2541 77.3877 50.7896 76.7777 46.8794 76.6648C47.0543 74.2135 47.6524 72.0278 48.5495 70.4802C49.6103 68.6503 50.8742 67.8141 52.0704 67.8141Z" fill="#663366"/>
</svg>
