<svg width="150" height="150" viewBox="0 0 150 150" fill="none" xmlns="http://www.w3.org/2000/svg">
<g clip-path="url(#clip0_761_8175)">
<path d="M100.205 62.9451V123.767L81.0274 142.945H7.05481V7.05469H100.205V27.7835" stroke="#663366" stroke-width="4.10959" stroke-miterlimit="10"/>
<path d="M100.205 123.766H81.0274V142.944" stroke="#663366" stroke-width="4.10959" stroke-miterlimit="10"/>
<path d="M90.6164 45.1406H16.6438" stroke="#663366" stroke-width="4.10959" stroke-miterlimit="10"/>
<path d="M30.0685 36.9149H19.1096V20.4766H30.0685" stroke="#663366" stroke-width="4.10959" stroke-miterlimit="10"/>
<path d="M19.1096 28.7031H30.0685" stroke="#663366" stroke-width="4.10959" stroke-miterlimit="10"/>
<path d="M74.452 39.1067V20.4766H74.726L81.0274 29.7916H81.5753L87.8767 20.4766H88.1507V39.1067" stroke="#663366" stroke-width="4.10959" stroke-miterlimit="10"/>
<path d="M66.2329 39.1067V25.956C66.2329 22.9297 63.7797 20.4766 60.7534 20.4766C57.7271 20.4766 55.274 22.9297 55.274 25.956V39.1067" stroke="#663366" stroke-width="4.10959" stroke-miterlimit="10"/>
<path d="M55.274 33.0859H66.2329" stroke="#663366" stroke-width="4.10959" stroke-miterlimit="10"/>
<path d="M36.0959 19.3828L47.6027 38.0129" stroke="#663366" stroke-width="4.10959" stroke-miterlimit="10"/>
<path d="M47.6027 19.3828L36.0959 38.0129" stroke="#663366" stroke-width="4.10959" stroke-miterlimit="10"/>
<path d="M129.521 62.9453C129.521 69.9056 123.878 75.5481 116.918 75.5481C109.958 75.5481 104.315 69.9056 104.315 62.9453" stroke="#663366" stroke-width="4.10959" stroke-miterlimit="10"/>
<path d="M138.288 62.9479H95.548C92.9756 62.9479 90.8904 60.8627 90.8904 58.2903C90.8904 55.718 92.9756 53.6328 95.548 53.6328H138.288C140.86 53.6328 142.945 55.718 142.945 58.2903C142.945 60.8627 140.86 62.9479 138.288 62.9479Z" stroke="#663366" stroke-width="4.10959" stroke-miterlimit="10"/>
<path d="M136.096 53.6321H97.7397V37.1937C97.7397 26.6019 106.326 18.0156 116.918 18.0156C127.51 18.0156 136.096 26.6019 136.096 37.1937V53.6321Z" stroke="#663366" stroke-width="4.10959" stroke-miterlimit="10"/>
<path d="M116.918 18.0136C119.944 18.0136 122.397 15.5604 122.397 12.5341C122.397 9.50792 119.944 7.05469 116.918 7.05469C113.892 7.05469 111.438 9.50792 111.438 12.5341C111.438 15.5604 113.892 18.0136 116.918 18.0136Z" stroke="#663366" stroke-width="4.10959" stroke-miterlimit="10"/>
<path d="M27.8767 57.1953H19.1096V65.9624H27.8767V57.1953Z" stroke="#663366" stroke-width="4.10959" stroke-miterlimit="10"/>
<path d="M33.9041 57.1953H84.0411" stroke="#663366" stroke-width="4.10959" stroke-miterlimit="10"/>
<path d="M73.9041 65.4141H33.9041" stroke="#663366" stroke-width="4.10959" stroke-miterlimit="10"/>
<path d="M27.8767 76.3672H19.1096V85.1343H27.8767V76.3672Z" stroke="#663366" stroke-width="4.10959" stroke-miterlimit="10"/>
<path d="M33.9041 76.3672H90.3425" stroke="#663366" stroke-width="4.10959" stroke-miterlimit="10"/>
<path d="M73.9041 84.5859H33.9041" stroke="#663366" stroke-width="4.10959" stroke-miterlimit="10"/>
<path d="M27.8767 95.5469H19.1096V104.314H27.8767V95.5469Z" stroke="#663366" stroke-width="4.10959" stroke-miterlimit="10"/>
<path d="M33.9041 95.5469H90.3425" stroke="#663366" stroke-width="4.10959" stroke-miterlimit="10"/>
<path d="M73.9041 103.766H33.9041" stroke="#663366" stroke-width="4.10959" stroke-miterlimit="10"/>
<path d="M27.8767 114.727H19.1096V123.494H27.8767V114.727Z" stroke="#663366" stroke-width="4.10959" stroke-miterlimit="10"/>
<path d="M33.9041 114.727H90.3425" stroke="#663366" stroke-width="4.10959" stroke-miterlimit="10"/>
<path d="M73.9041 122.945H33.9041" stroke="#663366" stroke-width="4.10959" stroke-miterlimit="10"/>
</g>
<defs>
<clipPath id="clip0_761_8175">
<rect width="140" height="140" fill="white" transform="translate(5 5)"/>
</clipPath>
</defs>
</svg>
