<svg width="150" height="150" viewBox="0 0 150 150" fill="none" xmlns="http://www.w3.org/2000/svg">
<path d="M24.9847 54.4766H18.9945C14.6739 54.4766 11.1711 57.9695 11.1711 62.278V134.189C11.1711 138.498 14.6736 141.991 18.9945 141.991H131.005C135.326 141.991 138.829 138.498 138.829 134.19V62.2783C138.829 57.9695 135.326 54.4768 131.005 54.4768H124.903" stroke="#663366" stroke-width="6.01562" stroke-miterlimit="10" stroke-linecap="round" stroke-linejoin="round"/>
<path d="M49.2171 45.4297H25.676V125.853H75.0011" stroke="#663366" stroke-width="6.01562" stroke-miterlimit="10" stroke-linecap="round" stroke-linejoin="round"/>
<path d="M100.885 45.4297H124.324V125.853H74.9989V63.216" stroke="#663366" stroke-width="6.01562" stroke-miterlimit="10" stroke-linecap="round" stroke-linejoin="round"/>
<path d="M75 62.6445C90.084 62.6445 102.312 50.4136 102.312 35.3261C102.312 20.2386 90.084 8.00781 75 8.00781C59.916 8.00781 47.688 20.2386 47.688 35.3261C47.688 50.4136 59.916 62.6445 75 62.6445Z" stroke="#663366" stroke-width="6.01562" stroke-miterlimit="10" stroke-linecap="round" stroke-linejoin="round"/>
<path d="M61.9226 28.8166C69.1452 21.5924 80.8551 21.5924 88.0774 28.8166" stroke="#663366" stroke-width="6.01562" stroke-miterlimit="10" stroke-linecap="round" stroke-linejoin="round"/>
<path d="M72.0222 37.5598C73.6642 35.9176 76.3357 35.9176 77.9777 37.5598" stroke="#663366" stroke-width="6.01562" stroke-miterlimit="10" stroke-linecap="round" stroke-linejoin="round"/>
<circle cx="75" cy="48.8203" r="3.00781" fill="#663366"/>
<path d="M43.0956 84.2422L49.9851 66.203C50.1259 65.8598 50.6132 65.8593 50.7546 66.2022L57.5815 84.2422" stroke="#663366" stroke-width="6.01562" stroke-miterlimit="10" stroke-linecap="round" stroke-linejoin="round"/>
<path d="M45.2443 82.4609H55.4675" stroke="#663366" stroke-width="6.01562" stroke-miterlimit="10" stroke-linecap="round" stroke-linejoin="round"/>
<path d="M39.3837 96.2109H61.2937" stroke="#663366" stroke-width="6.01562" stroke-miterlimit="10" stroke-linecap="round" stroke-linejoin="round"/>
<path d="M39.3837 108.781H61.2937" stroke="#663366" stroke-width="6.01562" stroke-miterlimit="10" stroke-linecap="round" stroke-linejoin="round"/>
<path d="M88.7063 71.0625H110.616" stroke="#663366" stroke-width="6.01562" stroke-miterlimit="10" stroke-linecap="round" stroke-linejoin="round"/>
<path d="M88.7063 83.6406H110.616" stroke="#663366" stroke-width="6.01562" stroke-miterlimit="10" stroke-linecap="round" stroke-linejoin="round"/>
<path d="M88.7063 96.2109H110.616" stroke="#663366" stroke-width="6.01562" stroke-miterlimit="10" stroke-linecap="round" stroke-linejoin="round"/>
<path d="M88.7063 108.781H110.616" stroke="#663366" stroke-width="6.01562" stroke-miterlimit="10" stroke-linecap="round" stroke-linejoin="round"/>
</svg>
