<svg width="150" height="150" viewBox="0 0 150 150" fill="none" xmlns="http://www.w3.org/2000/svg">
<path d="M38.7026 121.133L40.1566 119.127L31.2973 110.747L24.5747 114.357L23.7659 114.483L17.7836 113.37L17.2043 113.262L16.9213 112.75L13.3036 106.211L13.0135 105.685L13.2505 105.131L15.3379 100.261L15.8419 99.6851L23.0125 95.4102L20.0593 83.7756L12.5343 83.8671L11.7932 83.6303L7.23326 80.3136L6.7507 79.9624L6.71906 79.3738L6.30439 71.6006L6.27051 70.9634L6.77418 70.5645L11.7499 66.626L12.5042 66.3589L19.5884 66.2686L22.0279 54.2501L16.4619 50.2604L16.0597 49.7715L13.3649 43.9671L13.0786 43.3508L13.4426 42.7815L17.4846 36.4592L17.8163 35.9401L18.4288 35.8882L24.4403 35.3698L25.1522 35.5344L31.2907 39.0163L40.1391 30.4355L36.2692 24.7654L36.0511 23.9854L36.4654 17.7668L36.5083 17.1315L37.0569 16.794L43.7936 12.6484L44.3053 12.333L44.8681 12.5414L50.4653 14.6144L51.0753 15.0983L54.9554 21.0101L66.6502 18.3121L66.834 10.6682L67.1247 9.9036L70.856 5.44711L71.2418 4.98599L71.8339 5.00183L79.7108 5.20901L80.3246 5.22484L80.6842 5.71699L84.3118 10.6916L84.5487 11.3602L84.914 18.2058L96.3477 20.9067L100.633 14.6644L101.253 14.1905L106.954 12.2209L107.551 12.0151L108.067 12.3756L114.286 16.729L114.77 17.0679L114.813 17.6586L115.228 23.2557L115.044 23.9868L111.098 30.4116L119.505 38.8187L126.674 35.0016L127.367 34.8617L133.067 35.3798L133.723 35.4396L134.04 36.0142L137.875 42.9584L138.164 43.4828L137.928 44.038L135.856 48.9095L135.439 49.4322L129.158 53.9323L131.784 65.8873L139.543 66.2571L140.26 66.5331L144.509 69.9526L145 70.3483L144.975 70.9651L144.664 78.4279L144.639 79.0284L144.151 79.3812L139.28 82.905L138.582 83.1426L131.18 83.3254L128.747 95.673L135.117 99.2727L135.635 99.8385L137.914 104.814L138.163 105.356L137.895 105.884L134.578 112.413L134.302 112.957L133.707 113.072L127.799 114.212L127 114.095L119.63 110.271L111.28 118.976L113.174 121.344L114.793 123.367L112.206 123.356L39.7045 123.097L37.2838 123.086L38.7025 121.129L38.7026 121.133Z" fill="#663366" stroke="#663366" stroke-width="0.261615" stroke-miterlimit="2.61313"/>
<path d="M42.8002 119.703L42.1259 120.634L109.62 120.875L108.668 119.684L107.991 118.839L108.746 118.052L118.488 107.895L119.128 107.229L119.946 107.654L127.754 111.705L132.647 110.761L135.42 105.303L133.557 101.239L126.754 97.395L125.972 96.9519L126.145 96.0777L128.943 81.8784L129.136 80.9006L130.129 80.8757L138.142 80.6776L142.211 77.7352L142.471 71.4907L139.032 68.7219L130.722 68.3261L129.775 68.2809L129.57 67.3479L126.564 53.6661L126.39 52.8736L127.053 52.398L133.719 47.6228L135.417 43.6294L132.189 37.7844L127.511 37.3594L119.856 41.435L119.045 41.8672L118.399 41.2221L108.656 31.4786L107.967 30.7896L108.477 29.9586L112.722 23.0494L112.379 18.4285L107.161 14.7757L102.443 16.4058L97.9091 23.0087L97.4271 23.7106L96.6068 23.5172L83.4437 20.4077L82.5343 20.1925L82.4858 19.2647L82.0907 11.8613L79.0394 7.67691L72.3693 7.50134L69.3041 11.1626L69.1071 19.3345L69.0833 20.2944L68.1429 20.5115L54.6692 23.62L53.8303 23.8137L53.3571 23.093L49.2274 16.8003L44.58 15.0789L38.9032 18.5723L38.5587 23.7359L42.7699 29.9056L43.3559 30.765L42.6098 31.4893L32.3489 41.4392L31.6832 42.0847L30.8769 41.6274L24.2793 37.8853L19.2457 38.3191L15.8993 43.5538L18.1673 48.4395L24.1243 52.709L24.7766 53.1764L24.6181 53.9581L21.8195 67.743L21.62 68.7274L20.6187 68.7409L12.9602 68.8392L8.81839 72.1184L9.16743 78.6656L12.9127 81.3895L21.0039 81.2901L21.978 81.2776L22.2197 82.2283L25.6398 95.703L25.8653 96.5916L25.0734 97.063L17.4548 101.605L15.7645 105.55L18.8076 111.052L23.7856 111.978L30.9164 108.148L31.7066 107.723L32.3541 108.337L42.6498 118.076L43.4382 118.822L42.8003 119.702L42.8002 119.703Z" fill="white" stroke="#663366" stroke-width="0.261615" stroke-miterlimit="2.61313"/>
<path fill-rule="evenodd" clip-rule="evenodd" d="M38.3924 66.9035L53.7924 56.3668L54.0631 65.5525L68.9229 55.6912V65.0122L84.3235 56.6368L84.4583 64.7421L99.5888 56.3668L99.8589 64.7421L114.179 56.6368L115.53 80.413L112.423 80.5476L39.0679 80.6831L35.1503 80.9531L35.555 66.7687L38.3924 66.9035Z" fill="#663366" stroke="#663366" stroke-width="0.493514" stroke-miterlimit="2.61313"/>
<path d="M75.7716 32.9936H75.7728C86.9675 32.9936 97.1325 37.6166 104.5 45.0737C111.859 52.5237 116.422 62.8025 116.423 74.1229V74.1253V74.1264C116.423 85.4482 111.859 95.7284 104.498 103.178C97.1325 110.634 86.9682 115.257 75.7741 115.258H75.7718H75.7706C64.5752 115.258 54.4101 110.635 47.0438 103.178C39.6838 95.7277 35.1204 85.4487 35.1197 74.1285V74.1261C35.1203 62.8043 39.6838 52.5237 47.0445 45.0737C54.4108 37.6178 64.5751 32.995 75.7692 32.9943H75.7716V32.9936ZM75.7728 35.4721H75.7716H75.7692C65.2585 35.4727 55.718 39.8103 48.8067 46.806C41.8884 53.8087 37.599 63.4749 37.599 74.125V74.1278C37.5995 84.7758 41.8884 94.4413 48.8061 101.444C55.718 108.44 65.2593 112.778 75.7706 112.778H75.7718H75.7741C86.2841 112.778 95.825 108.44 102.736 101.444C109.654 94.442 113.944 84.7758 113.944 74.1257V74.1245V74.1222C113.944 63.4742 109.654 53.808 102.737 46.806C95.8249 39.8095 86.2841 35.4721 75.7728 35.4714" fill="#663366"/>
<path fill-rule="evenodd" clip-rule="evenodd" d="M39.8785 68.3873H43.9317V71.3594H39.8785V68.3873Z" fill="white"/>
<path fill-rule="evenodd" clip-rule="evenodd" d="M46.498 68.3873H50.5505V71.3594H46.498V68.3873Z" fill="white"/>
<path fill-rule="evenodd" clip-rule="evenodd" d="M55.4142 68.3873H59.4665V71.3594H55.4142V68.3873Z" fill="white"/>
<path fill-rule="evenodd" clip-rule="evenodd" d="M62.3033 68.3873H66.3563V71.3594H62.3033V68.3873Z" fill="white"/>
<path fill-rule="evenodd" clip-rule="evenodd" d="M69.869 68.3873H73.9219V71.3594H69.869V68.3873Z" fill="white"/>
<path fill-rule="evenodd" clip-rule="evenodd" d="M77.0286 68.3873H81.0815V71.3594H77.0286V68.3873Z" fill="white"/>
<path fill-rule="evenodd" clip-rule="evenodd" d="M84.4586 68.3873H88.5116V71.3594H84.4586V68.3873Z" fill="white"/>
<path fill-rule="evenodd" clip-rule="evenodd" d="M92.0234 68.3873H96.0763V71.3594H92.0234V68.3873Z" fill="white"/>
<path fill-rule="evenodd" clip-rule="evenodd" d="M99.4534 68.3873H103.506V71.3594H99.4534V68.3873Z" fill="white"/>
<path fill-rule="evenodd" clip-rule="evenodd" d="M106.884 68.3873H110.937V71.3594H106.884V68.3873Z" fill="white"/>
<path d="M89.4229 36.9102C89.4229 36.9102 74.9951 50.0705 99.47 42.4748" stroke="#663366" stroke-width="4.84829" stroke-miterlimit="2.61313"/>
<path d="M86.5443 45.4307V65.0859" stroke="#663366" stroke-width="7.18555" stroke-miterlimit="2.61313"/>
<path fill-rule="evenodd" clip-rule="evenodd" d="M39.468 50.4093L38.6624 51.9241L36.7751 51.6929L35.3102 54.4493L36.5743 55.851L35.7893 57.3281L30.3224 50.976L31.1048 49.5039L39.468 50.4093ZM35.3769 51.522L32.3134 51.1119L34.3768 53.4033L35.3769 51.522ZM40.0314 49.8265L33.9623 44.9119L34.9279 43.7197L40.9926 44.5169L36.9397 41.2352L37.8618 40.0967L43.9311 45.0111L42.9342 46.2417L36.9952 45.4827L40.9538 48.6873L40.0314 49.8265ZM45.0749 43.7172L40.0554 37.7347L41.2302 36.7484L47.0313 38.6879L43.6791 34.6932L44.8014 33.7516L49.8215 39.7334L48.6083 40.7515L42.924 38.8732L46.1972 42.7747L45.0749 43.7172ZM57.3323 35.3106L55.8316 36.1427L54.3744 34.9212L51.6445 36.4342L51.9418 38.2988L50.4788 39.1097L49.3531 30.8047L50.811 29.9966L57.3323 35.3106ZM53.2948 34.0158L50.949 32.0035L51.4316 35.0494L53.2948 34.0158ZM58.8149 26.3451L60.3375 25.9377L61.4319 30.0224C61.6055 30.6701 61.7376 31.0864 61.8258 31.2685C61.9741 31.5598 62.1968 31.7659 62.4902 31.8863C62.787 32.0088 63.1471 32.012 63.5718 31.8977C64.0045 31.7819 64.3068 31.6069 64.4798 31.3706C64.6514 31.1362 64.7254 30.8828 64.7 30.6148C64.6767 30.3441 64.5842 29.912 64.4235 29.3148L63.3056 25.1421L64.8275 24.734L65.8897 28.6959C66.1326 29.6025 66.2635 30.2527 66.2808 30.6484C66.2991 31.0448 66.2324 31.399 66.0803 31.717C65.9281 32.0325 65.6852 32.3181 65.3573 32.5695C65.0276 32.8212 64.5634 33.0267 63.9661 33.1866C63.246 33.3797 62.6787 33.4436 62.261 33.3764C61.8438 33.3097 61.4929 33.1717 61.2059 32.9652C60.9189 32.7573 60.7014 32.5162 60.555 32.243C60.3393 31.8381 60.1193 31.2132 59.8931 30.3685L58.8149 26.3451ZM68.5465 31.8532L68.0018 24.0628L69.5321 23.9558L73.0845 28.9351L72.7212 23.7331L74.183 23.6307L74.7277 31.4214L73.148 31.5315L69.6527 26.6702L70.0083 31.7504L68.5465 31.8532ZM76.3629 31.486L76.4991 23.678L78.0754 23.7052L77.9388 31.5132L76.3629 31.486ZM81.392 31.957L79.9989 23.7815L81.6842 24.0788L82.6246 30.1138L85.5119 24.7537L87.1595 25.0445L83.0494 32.2489L81.392 31.957ZM86.5668 32.9316L89.1095 25.5477L94.5829 27.4324L94.1527 28.6824L90.1692 27.3106L89.6056 28.9472L93.3122 30.2239L92.8846 31.4666L89.1776 30.1901L88.4858 32.2005L92.61 33.62L92.1814 34.865L86.5668 32.9316ZM93.4631 35.3512L97.2486 28.5204L100.153 30.1305C100.883 30.5347 101.378 30.8909 101.64 31.1966C101.903 31.5023 102.049 31.8676 102.074 32.2912C102.098 32.7159 101.998 33.1279 101.775 33.5321C101.49 34.0443 101.104 34.385 100.618 34.5527C100.133 34.7179 99.5647 34.679 98.9176 34.433C99.1196 34.7736 99.2601 35.1013 99.3385 35.4168C99.4168 35.7328 99.4733 36.2464 99.5076 36.9602L99.6042 38.7553L97.9553 37.8416L97.7823 35.8013C97.7227 35.0741 97.6658 34.6059 97.6119 34.3953C97.5582 34.1848 97.4721 34.0146 97.3549 33.8805C97.2363 33.7489 97.0198 33.5956 96.702 33.4194L96.4236 33.2652L94.8432 36.1162L93.4631 35.3512ZM97.0283 32.174L98.0471 32.7386C98.7097 33.106 99.1372 33.3079 99.3342 33.3443C99.5284 33.3792 99.7109 33.3534 99.8813 33.2691C100.048 33.183 100.191 33.0392 100.305 32.8338C100.432 32.6033 100.473 32.3851 100.429 32.1751C100.384 31.9661 100.261 31.7808 100.058 31.6181C99.9538 31.5425 99.623 31.3481 99.0634 31.038L97.9889 30.4421L97.0283 32.174ZM101.596 37.0897L102.868 37.9607C102.607 38.4146 102.507 38.8248 102.568 39.1926C102.63 39.5573 102.843 39.8952 103.211 40.2036C103.599 40.5299 103.962 40.6944 104.298 40.6933C104.633 40.6944 104.894 40.5856 105.079 40.3654C105.197 40.2235 105.256 40.0689 105.256 39.8998C105.256 39.73 105.185 39.5223 105.039 39.276C104.939 39.1076 104.689 38.7503 104.291 38.2029C103.778 37.4989 103.49 36.9206 103.426 36.4678C103.334 35.8306 103.487 35.2756 103.885 34.8015C104.14 34.4969 104.465 34.2854 104.861 34.164C105.256 34.0443 105.675 34.0514 106.116 34.1846C106.557 34.3208 107.007 34.5792 107.467 34.9651C108.219 35.5966 108.645 36.2331 108.75 36.8816C108.851 37.5291 108.683 38.1355 108.241 38.7021L106.988 37.7416C107.195 37.3906 107.269 37.0758 107.211 36.7993C107.155 36.5215 106.956 36.2404 106.616 35.9553C106.266 35.6608 105.93 35.5007 105.611 35.4801C105.406 35.4641 105.237 35.5345 105.108 35.6885C104.988 35.8303 104.947 36.0026 104.982 36.2027C105.027 36.4586 105.285 36.9028 105.757 37.5343C106.228 38.1665 106.542 38.6749 106.7 39.059C106.855 39.4437 106.906 39.8303 106.85 40.2229C106.793 40.6133 106.606 40.9974 106.289 41.375C106.002 41.7175 105.637 41.9597 105.196 42.0984C104.754 42.2371 104.298 42.2344 103.829 42.087C103.358 41.9413 102.862 41.6493 102.343 41.2133C101.587 40.5793 101.152 39.9174 101.04 39.2276C100.928 38.5378 101.113 37.8248 101.596 37.0904V37.0897ZM105.719 44.1095L111.241 38.5876L112.356 39.7024L106.834 45.2242L105.719 44.1095ZM108.881 47.7183L113.851 43.5481L112.362 41.7742L113.375 40.9245L117.363 45.6775L116.351 46.5272L114.865 44.7572L109.895 48.9274L108.881 47.7183ZM112.84 53.5109L115.742 51.9682L118.393 47.3194L119.26 48.9521L117.396 52.0258L120.968 52.1652L121.822 53.7686L116.472 53.3613L113.579 54.9001L112.84 53.5109Z" fill="#663366"/>
<path d="M61.9038 87.0419C62.4917 86.5296 62.9088 86.1882 63.4976 85.676C69.0595 85.2129 75.2836 80.8193 75.8483 85.562C78.1817 80.3446 82.8494 85.9985 88.4839 85.79C88.9009 86.1501 89.3187 86.3968 89.7359 86.7577C91.8037 92.8093 93.8724 98.9755 95.9404 105.028C85.5455 105.365 78.0289 98.4088 77.4422 106.451C76.4362 106.469 75.4312 106.489 74.4253 106.508C73.9338 99.0385 63.5456 105.909 55.8702 105.028C57.8818 99.0327 59.8927 93.0373 61.9038 87.0419Z" stroke="#663366" stroke-width="0.727247" stroke-miterlimit="2.61313"/>
<path d="M61.9038 87.0419C62.4917 86.5296 62.9088 86.1882 63.4976 85.676C69.0595 85.2129 75.2836 80.8193 75.8483 85.562C78.1817 80.3446 82.8494 85.9985 88.4839 85.79C88.9009 86.1501 89.3187 86.3968 89.7359 86.7577C91.8037 92.8093 93.8724 98.9755 95.9404 105.028C85.5455 105.365 78.0289 98.4088 77.4422 106.451C76.4362 106.469 75.4312 106.489 74.4253 106.508C73.9338 99.0385 63.5456 105.909 55.8702 105.028C57.8818 99.0327 59.8927 93.0373 61.9038 87.0419Z" stroke="#663366" stroke-width="0.727247" stroke-miterlimit="2.61313"/>
<path d="M63.5318 85.5932C69.0938 85.1742 75.3179 81.0311 75.8827 85.3194C78.2628 80.9664 81.8488 85.1716 88.4045 85.7526L93.9828 103.09C83.4175 101.916 79.6566 96.5932 75.9967 104.32C70.9746 96.0738 68.6004 102.188 57.8395 103.205L63.5318 85.5932Z" stroke="#663366" stroke-width="0.725648" stroke-miterlimit="2.61313"/>
<path d="M75.9056 85.3879V104" stroke="#663366" stroke-width="0.727247" stroke-miterlimit="2.61313"/>
<path d="M64.579 88.4062C64.579 88.4062 70.0432 86.4711 71.8075 87.3246C73.5722 88.1789 74.0276 87.78 74.0276 87.78" stroke="#663366" stroke-width="0.727247" stroke-miterlimit="2.61313" stroke-dasharray="1.46 0.73"/>
<path d="M64.5938 89.6875C64.5938 89.6875 69.9595 87.7523 71.6921 88.6065C73.4245 89.4601 73.8714 89.0619 73.8714 89.0619" stroke="#663366" stroke-width="0.726543" stroke-miterlimit="2.61313" stroke-dasharray="1.45 0.73"/>
<path d="M64.5615 91.25C64.5615 91.25 69.7951 89.3148 71.4854 90.169C73.1753 91.0227 73.6117 90.6243 73.6117 90.6243" stroke="#663366" stroke-width="0.806531" stroke-miterlimit="2.61313" stroke-dasharray="1.61 0.81"/>
<path d="M64.5606 92.75C64.5606 92.75 69.6295 90.8148 71.2669 91.6684C72.9035 92.5226 73.3257 92.1236 73.3257 92.1236" stroke="#663366" stroke-width="0.811134" stroke-miterlimit="2.61313" stroke-dasharray="1.62 0.81"/>
<path d="M63.8394 94.2656C63.8394 94.2656 69.3036 92.3304 71.0677 93.184C72.832 94.0383 73.2873 93.6393 73.2873 93.6393" stroke="#663366" stroke-width="0.727247" stroke-miterlimit="2.61313" stroke-dasharray="1.46 0.73"/>
<path d="M63.6109 95.6328C63.6109 95.6328 69.0751 93.6977 70.8394 94.5514C72.6041 95.4055 73.0595 95.0073 73.0595 95.0073" stroke="#663366" stroke-width="0.727247" stroke-miterlimit="2.61313" stroke-dasharray="1.46 0.73"/>
<path d="M63.2127 97.1172C63.2127 97.1172 68.6769 95.182 70.441 96.0356C72.206 96.8899 72.6611 96.491 72.6611 96.491" stroke="#663366" stroke-width="0.727247" stroke-miterlimit="2.61313" stroke-dasharray="1.46 0.73"/>
<path d="M62.8145 98.3125C62.8145 98.3125 68.2786 96.3774 70.0429 97.2311C71.8071 98.0847 72.2623 97.6862 72.2623 97.6862" stroke="#663366" stroke-width="0.727247" stroke-miterlimit="2.61313" stroke-dasharray="1.46 0.73"/>
<path d="M87.5163 88.4062C87.5163 88.4062 82.052 86.4711 80.288 87.3246C78.5237 88.1789 78.0684 87.78 78.0684 87.78" stroke="#663366" stroke-width="0.727247" stroke-miterlimit="2.61313" stroke-dasharray="1.46 0.73"/>
<path d="M87.5315 89.6875C87.5315 89.6875 82.1663 87.7523 80.4337 88.6065C78.7013 89.4601 78.2539 89.0619 78.2539 89.0619" stroke="#663366" stroke-width="0.726543" stroke-miterlimit="2.61313" stroke-dasharray="1.45 0.73"/>
<path d="M87.4995 91.25C87.4995 91.25 82.266 89.3148 80.5763 90.169C78.886 91.0227 78.45 90.6243 78.45 90.6243" stroke="#663366" stroke-width="0.806531" stroke-miterlimit="2.61313" stroke-dasharray="1.61 0.81"/>
<path d="M87.498 92.75C87.498 92.75 82.4288 90.8148 80.7922 91.6684C79.1549 92.5226 78.7327 92.1236 78.7327 92.1236" stroke="#663366" stroke-width="0.811134" stroke-miterlimit="2.61313" stroke-dasharray="1.62 0.81"/>
<path d="M88.2558 94.2656C88.2558 94.2656 82.7924 92.3304 81.0276 93.184C79.2633 94.0383 78.808 93.6393 78.808 93.6393" stroke="#663366" stroke-width="0.727247" stroke-miterlimit="2.61313" stroke-dasharray="1.46 0.73"/>
<path d="M88.4843 95.6328C88.4843 95.6328 83.0201 93.6977 81.2558 94.5514C79.4917 95.4055 79.0364 95.0073 79.0364 95.0073" stroke="#663366" stroke-width="0.727247" stroke-miterlimit="2.61313" stroke-dasharray="1.46 0.73"/>
<path d="M88.8827 97.1172C88.8827 97.1172 83.4185 95.182 81.6542 96.0356C79.8899 96.8899 79.4346 96.491 79.4346 96.491" stroke="#663366" stroke-width="0.727247" stroke-miterlimit="2.61313" stroke-dasharray="1.46 0.73"/>
<path d="M89.2807 98.3125C89.2807 98.3125 83.8173 96.3774 82.0523 97.2311C80.2883 98.0847 79.8329 97.6862 79.8329 97.6862" stroke="#663366" stroke-width="0.727247" stroke-miterlimit="2.61313" stroke-dasharray="1.46 0.73"/>
<path d="M6.23951 121.115H142.74H143.98V122.355V142.761V144H142.74H6.23951H4.99963V142.761V122.355V121.115H6.23951Z" fill="#663366" stroke="#663366" stroke-width="0.261615" stroke-miterlimit="2.61313"/>
<path d="M141.501 123.596H7.47925V141.523H141.501V123.596Z" fill="white" stroke="#663366" stroke-width="0.261615" stroke-miterlimit="2.61313"/>
<path fill-rule="evenodd" clip-rule="evenodd" d="M10.8726 137.678V128.719H12.543C13.1654 128.719 13.5721 128.763 13.7631 128.848C14.0688 128.986 14.3201 129.282 14.5189 129.733C14.7176 130.185 14.8175 130.767 14.8175 131.48C14.8175 132.129 14.7307 132.671 14.5598 133.109C14.3886 133.548 14.1736 133.854 13.9166 134.032C13.6607 134.209 13.2184 134.298 12.5896 134.298H11.9087V137.678H10.8726ZM11.9087 130.235V132.776H12.4834C12.8686 132.776 13.1304 132.738 13.2695 132.661C13.4069 132.584 13.5209 132.444 13.6084 132.242C13.6977 132.039 13.7416 131.793 13.7416 131.499C13.7416 131.203 13.6963 130.951 13.6056 130.749C13.5131 130.544 13.4009 130.409 13.2664 130.337C13.1316 130.269 12.8485 130.235 12.4139 130.235H11.9087ZM15.6725 137.678V128.719H17.8601C18.4197 128.719 18.82 128.8 19.0603 128.961C19.2998 129.121 19.4967 129.401 19.6503 129.797C19.805 130.195 19.8815 130.671 19.8815 131.224C19.8815 131.925 19.7643 132.49 19.5292 132.918C19.292 133.345 18.9573 133.614 18.5252 133.723C18.7473 133.953 18.9313 134.201 19.0759 134.472C19.2221 134.743 19.4209 135.229 19.6722 135.93L20.2966 137.678H19.0603L18.3057 135.728C18.0356 135.025 17.851 134.582 17.7532 134.405C17.6568 134.228 17.5531 134.107 17.445 134.038C17.3369 133.971 17.1626 133.938 16.9229 133.938H16.7079V137.678H15.6725ZM16.7079 132.507H17.4799C17.9508 132.507 18.2499 132.478 18.379 132.419C18.5079 132.361 18.6114 132.242 18.6918 132.063C18.7706 131.883 18.8115 131.643 18.8115 131.347C18.8115 131.061 18.7706 130.832 18.6918 130.659C18.6114 130.486 18.5033 130.367 18.366 130.302C18.2694 130.256 17.9872 130.235 17.5227 130.235H16.7079V132.507ZM20.6528 133.254C20.6528 132.186 20.7623 131.307 20.985 130.617C21.2053 129.927 21.4948 129.411 21.8517 129.073C22.2079 128.736 22.6406 128.567 23.1496 128.567C23.886 128.567 24.4851 128.967 24.9501 129.77C25.4132 130.573 25.6455 131.716 25.6455 133.199C25.6455 134.697 25.4002 135.869 24.9092 136.712C24.4778 137.459 23.8931 137.83 23.1535 137.83C22.408 137.83 21.8206 137.461 21.3899 136.724C20.8982 135.882 20.6528 134.724 20.6528 133.254ZM21.7228 133.193C21.7228 134.223 21.8601 134.995 22.1334 135.511C22.408 136.026 22.7473 136.284 23.1535 136.284C23.5614 136.284 23.8988 136.028 24.1682 135.517C24.4371 135.006 24.5699 134.221 24.5699 133.162C24.5699 132.123 24.4396 131.355 24.178 130.857C23.9182 130.361 23.5764 130.112 23.1535 130.112C22.7311 130.112 22.3865 130.363 22.1217 130.863C21.8562 131.366 21.7228 132.142 21.7228 133.193ZM28.8523 134.384V132.874H31.0911V136.443C30.8663 136.822 30.5457 137.148 30.1326 137.421C29.7186 137.695 29.3042 137.83 28.8858 137.83C28.3786 137.83 27.9299 137.653 27.5426 137.296C27.154 136.94 26.8458 136.405 26.6191 135.694C26.3925 134.983 26.2784 134.148 26.2784 133.187C26.2784 132.2 26.3936 131.357 26.6237 130.657C26.8528 129.956 27.1508 129.432 27.5179 129.086C27.8846 128.74 28.3249 128.567 28.8347 128.567C29.4486 128.567 29.9409 128.789 30.3106 129.236C30.6805 129.682 30.9175 130.335 31.0223 131.201L29.9953 131.537C29.9188 131.076 29.7776 130.723 29.5711 130.479C29.367 130.235 29.1209 130.112 28.8347 130.112C28.3937 130.112 28.0336 130.358 27.7601 130.848C27.4855 131.339 27.3496 132.087 27.3496 133.095C27.3496 134.173 27.4974 134.995 27.7939 135.556C28.0485 136.043 28.3937 136.284 28.8262 136.284C29.0289 136.284 29.2395 136.215 29.4591 136.08C29.6766 135.942 29.8708 135.757 30.0433 135.521V134.384H28.8523ZM32.0548 137.678V128.719H34.2425C34.802 128.719 35.2023 128.8 35.4427 128.961C35.6824 129.121 35.8791 129.401 36.0326 129.797C36.1875 130.195 36.2639 130.671 36.2639 131.224C36.2639 131.925 36.1467 132.49 35.9116 132.918C35.6746 133.345 35.3397 133.614 34.9078 133.723C35.1292 133.953 35.3139 134.201 35.4583 134.472C35.6047 134.743 35.8035 135.229 36.0548 135.93L36.679 137.678H35.4427L34.6883 135.728C34.4182 135.025 34.2336 134.582 34.1358 134.405C34.0392 134.228 33.9357 134.107 33.8274 134.038C33.7193 133.971 33.545 133.938 33.3055 133.938H33.0905V137.678H32.0548ZM33.0905 132.507H33.8623C34.3332 132.507 34.6325 132.478 34.7614 132.419C34.8896 132.361 34.994 132.242 35.0742 132.063C35.1532 131.883 35.1939 131.643 35.1939 131.347C35.1939 131.061 35.1532 130.832 35.0742 130.659C34.994 130.486 34.8857 130.367 34.7477 130.302C34.6519 130.256 34.3695 130.235 33.9046 130.235H33.0905V132.507ZM37.2445 137.678V128.719H41.0651V130.235H38.2807V132.221H40.8675V133.729H38.2807V136.168H41.1583V137.678H37.2445ZM41.7754 134.763L42.7897 134.59C42.9037 135.736 43.2775 136.309 43.9122 136.309C44.225 136.309 44.4717 136.193 44.6518 135.957C44.833 135.723 44.9218 135.433 44.9218 135.087C44.9218 134.883 44.8914 134.71 44.8286 134.568C44.7658 134.424 44.6691 134.307 44.5403 134.215C44.4121 134.124 44.1018 133.971 43.6076 133.754C43.1653 133.562 42.8408 133.355 42.6361 133.131C42.4296 132.907 42.2664 132.613 42.1453 132.248C42.0236 131.883 41.964 131.491 41.964 131.072C41.964 130.583 42.0409 130.144 42.1959 129.751C42.3526 129.361 42.5676 129.065 42.8408 128.865C43.1155 128.666 43.4529 128.567 43.8564 128.567C44.4612 128.567 44.9335 128.8 45.2728 129.269C45.6134 129.737 45.7928 130.409 45.8117 131.28L44.7729 131.359C44.7262 130.877 44.6285 130.542 44.4763 130.35C44.3253 130.16 44.1089 130.064 43.8299 130.064C43.5507 130.064 43.3343 130.148 43.184 130.315C43.0318 130.481 42.9562 130.688 42.9562 130.938C42.9562 131.182 43.0248 131.386 43.1621 131.554C43.2994 131.723 43.6154 131.904 44.1078 132.104C44.631 132.321 45.008 132.549 45.2403 132.786C45.4729 133.024 45.6511 133.333 45.774 133.708C45.8965 134.086 45.958 134.543 45.958 135.081C45.958 135.859 45.7903 136.511 45.4555 137.041C45.1192 137.571 44.594 137.836 43.8811 137.836C42.6199 137.836 41.9166 136.812 41.7754 134.763ZM46.5707 134.763L47.585 134.59C47.699 135.736 48.0732 136.309 48.7073 136.309C49.02 136.309 49.2668 136.193 49.4469 135.957C49.6283 135.723 49.7171 135.433 49.7171 135.087C49.7171 134.883 49.6865 134.71 49.6237 134.568C49.5608 134.424 49.4644 134.307 49.3356 134.215C49.2074 134.124 48.8971 133.971 48.4036 133.754C47.9606 133.562 47.6362 133.355 47.4314 133.131C47.2256 132.907 47.0615 132.613 46.9404 132.248C46.8186 131.883 46.7593 131.491 46.7593 131.072C46.7593 130.583 46.8369 130.144 46.9916 129.751C47.1477 129.361 47.3629 129.065 47.6361 128.865C47.9108 128.666 48.2482 128.567 48.6517 128.567C49.2565 128.567 49.7288 128.8 50.0681 129.269C50.4088 129.737 50.5881 130.409 50.6075 131.28L49.5682 131.359C49.5214 130.877 49.4235 130.542 49.2714 130.35C49.1212 130.16 48.9042 130.064 48.625 130.064C48.346 130.064 48.1297 130.148 47.9793 130.315C47.8272 130.481 47.7513 130.688 47.7513 130.938C47.7513 131.182 47.8201 131.386 47.9574 131.554C48.0947 131.723 48.4107 131.904 48.9028 132.104C49.4263 132.321 49.8033 132.549 50.0356 132.786C50.2682 133.024 50.4462 133.333 50.5694 133.708C50.6918 134.086 50.7533 134.543 50.7533 135.081C50.7533 135.859 50.5856 136.511 50.2506 137.041C49.9145 137.571 49.3899 137.836 48.6769 137.836C47.4152 137.836 46.7126 136.812 46.5707 134.763ZM54.7855 137.678V130.235H53.2572V128.719H57.3465V130.235H55.8219V137.678H54.7855ZM58.0232 137.678V128.719H59.0594V132.244H61.0983V128.719H62.1384V137.678H61.0983V133.76H59.0594V137.678H58.0232ZM63.2129 137.678V128.719H65.4006C65.9608 128.719 66.3611 128.8 66.6008 128.961C66.8405 129.121 67.0379 129.401 67.1914 129.797C67.3463 130.195 67.4219 130.671 67.4219 131.224C67.4219 131.925 67.3054 132.49 67.0696 132.918C66.8334 133.345 66.4984 133.614 66.0657 133.723C66.288 133.953 66.4719 134.201 66.617 134.472C66.7632 134.743 66.9616 135.229 67.2133 135.93L67.8371 137.678H66.6008L65.8468 135.728C65.5763 135.025 65.3921 134.582 65.2939 134.405C65.1979 134.228 65.0937 134.107 64.9854 134.038C64.8774 133.971 64.7037 133.938 64.464 133.938H64.2491V137.678H63.2129ZM64.2491 132.507H65.0211C65.4913 132.507 65.7913 132.478 65.9195 132.419C66.0483 132.361 66.152 132.242 66.2322 132.063C66.3113 131.883 66.352 131.643 66.352 131.347C66.352 131.061 66.3113 130.832 66.2322 130.659C66.152 130.486 66.0437 130.367 65.9064 130.302C65.81 130.256 65.5283 130.235 65.0631 130.235H64.2491V132.507ZM68.194 133.254C68.194 132.186 68.3034 131.307 68.5255 130.617C68.7464 129.927 69.0359 129.411 69.3921 129.073C69.749 128.736 70.1817 128.567 70.6901 128.567C71.4272 128.567 72.0262 128.967 72.4905 129.77C72.9543 130.573 73.1867 131.716 73.1867 133.199C73.1867 134.697 72.9406 135.869 72.4498 136.712C72.0184 137.459 71.4342 137.83 70.6947 137.83C69.9491 137.83 69.3617 137.461 68.9304 136.724C68.4394 135.882 68.194 134.724 68.194 133.254ZM69.2639 133.193C69.2639 134.223 69.4012 134.995 69.6745 135.511C69.9491 136.026 70.2884 136.284 70.6947 136.284C71.1027 136.284 71.44 136.028 71.7089 135.517C71.9776 135.006 72.1103 134.221 72.1103 133.162C72.1103 132.123 71.9808 131.355 71.7191 130.857C71.4589 130.361 71.1169 130.112 70.6947 130.112C70.2724 130.112 69.9272 130.363 69.6628 130.863C69.3967 131.366 69.2639 132.142 69.2639 133.193ZM73.9873 128.719H75.0234V133.57C75.0234 134.326 75.0349 134.816 75.0618 135.043C75.107 135.44 75.2165 135.744 75.3887 135.961C75.561 136.176 75.7897 136.284 76.0714 136.284C76.3111 136.284 76.5074 136.207 76.6589 136.055C76.8097 135.903 76.9134 135.69 76.9691 135.419C77.0242 135.149 77.0521 134.568 77.0521 133.675V128.719H78.0928V133.425C78.0928 134.626 78.0473 135.496 77.958 136.03C77.868 136.566 77.666 137 77.3505 137.331C77.0345 137.666 76.618 137.83 76.1018 137.83C75.5663 137.83 75.1466 137.692 74.8455 137.417C74.5443 137.143 74.3266 136.756 74.1906 136.258C74.0547 135.759 73.9873 134.839 73.9873 133.498L73.9873 128.719ZM81.583 134.384V132.874H83.8219V136.443C83.5973 136.822 83.2765 137.148 82.8634 137.421C82.4496 137.695 82.0345 137.83 81.6166 137.83C81.1096 137.83 80.6607 137.653 80.2734 137.296C79.8848 136.94 79.5766 136.405 79.3499 135.694C79.1232 134.983 79.0092 134.148 79.0092 133.187C79.0092 132.2 79.1244 131.357 79.3545 130.657C79.5836 129.956 79.8815 129.432 80.2487 129.086C80.6154 128.74 81.0553 128.567 81.5654 128.567C82.1794 128.567 82.6717 128.789 83.0414 129.236C83.4113 129.682 83.6482 130.335 83.7533 131.201L82.7261 131.537C82.6496 131.076 82.5079 130.723 82.3018 130.479C82.0971 130.235 81.8517 130.112 81.5654 130.112C81.1238 130.112 80.7644 130.358 80.4911 130.848C80.2165 131.339 80.0803 132.087 80.0803 133.095C80.0803 134.173 80.2281 134.995 80.5247 135.556C80.7793 136.043 81.1238 136.284 81.5565 136.284C81.7599 136.284 81.9703 136.215 82.1892 136.08C82.4074 135.942 82.6018 135.757 82.774 135.521V134.384H81.583ZM84.7849 137.678V128.719H85.8213V132.244H87.86V128.719H88.9007V137.678H87.86V133.76H85.8213V137.678H84.7849ZM91.9831 137.678V128.719H93.02V132.697L95.1228 128.719H96.523L94.5834 132.208L96.6254 137.678H95.2803L93.8631 133.473L93.02 134.97V137.678H91.9831ZM97.1732 137.678V128.719H98.1849L100.291 134.701V128.719H101.258V137.678H100.213L98.1408 131.835V137.678H97.1732ZM102.145 133.254C102.145 132.186 102.255 131.307 102.477 130.617C102.698 129.927 102.987 129.411 103.344 129.073C103.7 128.736 104.133 128.567 104.642 128.567C105.378 128.567 105.978 128.967 106.442 129.77C106.906 130.573 107.138 131.716 107.138 133.199C107.138 134.697 106.893 135.869 106.401 136.712C105.97 137.459 105.386 137.83 104.646 137.83C103.901 137.83 103.313 137.461 102.882 136.724C102.391 135.882 102.145 134.724 102.145 133.254ZM103.215 133.193C103.215 134.223 103.353 134.995 103.626 135.511C103.901 136.026 104.24 136.284 104.646 136.284C105.054 136.284 105.391 136.028 105.66 135.517C105.929 135.006 106.062 134.221 106.062 133.162C106.062 132.123 105.932 131.355 105.671 130.857C105.41 130.361 105.068 130.112 104.646 130.112C104.224 130.112 103.878 130.363 103.614 130.863C103.348 131.366 103.215 132.142 103.215 133.193ZM108.674 137.678L107.447 128.719H108.512L109.282 134.872L110.225 128.719H111.463L112.366 134.977L113.158 128.719H114.203L112.952 137.678H111.847L110.819 130.98L109.801 137.678H108.674ZM114.764 137.678V128.792H115.801V136.168H118.386V137.678H114.764ZM119.131 137.678V128.719H122.951V130.235H120.168V132.221H122.754V133.729H120.168V136.168H123.045V137.678H119.131ZM123.919 128.719H125.815C126.294 128.719 126.657 128.796 126.901 128.948C127.145 129.1 127.37 129.359 127.574 129.722C127.78 130.083 127.942 130.554 128.059 131.132C128.177 131.712 128.235 132.429 128.235 133.289C128.235 134.065 128.173 134.737 128.051 135.31C127.928 135.882 127.772 136.335 127.583 136.67C127.395 137.004 127.168 137.254 126.901 137.423C126.633 137.592 126.291 137.678 125.87 137.678H123.919V128.719ZM124.954 130.235V136.168H125.734C126.068 136.168 126.31 136.123 126.459 136.034C126.61 135.944 126.733 135.809 126.827 135.627C126.924 135.446 127.003 135.16 127.066 134.768C127.129 134.378 127.159 133.862 127.159 133.222C127.159 132.559 127.128 132.036 127.063 131.651C126.999 131.27 126.899 130.967 126.764 130.749C126.627 130.527 126.464 130.383 126.269 130.315C126.123 130.26 125.843 130.235 125.426 130.235H124.954ZM131.51 134.384V132.874H133.75V136.443C133.524 136.822 133.204 137.148 132.791 137.421C132.377 137.695 131.962 137.83 131.544 137.83C131.037 137.83 130.588 137.653 130.201 137.296C129.812 136.94 129.504 136.405 129.277 135.694C129.05 134.983 128.937 134.148 128.937 133.187C128.937 132.2 129.052 131.357 129.282 130.657C129.511 129.956 129.809 129.432 130.176 129.086C130.543 128.74 130.983 128.567 131.493 128.567C132.106 128.567 132.6 128.789 132.969 129.236C133.339 129.682 133.575 130.335 133.681 131.201L132.653 131.537C132.577 131.076 132.436 130.723 132.23 130.479C132.025 130.235 131.78 130.112 131.493 130.112C131.052 130.112 130.692 130.358 130.419 130.848C130.144 131.339 130.008 132.087 130.008 133.095C130.008 134.173 130.156 134.995 130.453 135.556C130.706 136.043 131.052 136.284 131.484 136.284C131.687 136.284 131.897 136.215 132.117 136.08C132.334 135.942 132.529 135.757 132.702 135.521V134.384H131.51ZM134.713 137.678V128.719H138.533V130.235H135.749V132.221H138.336V133.729H135.749V136.168H138.627V137.678H134.713Z" fill="#663366"/>
</svg>
