<svg width="150" height="150" viewBox="0 0 150 150" fill="none" xmlns="http://www.w3.org/2000/svg">
<g clip-path="url(#clip0_768_11639)">
<path d="M142.949 45.6519V11.1484C142.949 8.88328 141.113 7.04688 138.848 7.04688H83.3482C81.083 7.04688 79.2466 8.88328 79.2466 11.1484V45.6519" stroke="#663366" stroke-width="4.10156" stroke-miterlimit="10" stroke-linecap="round" stroke-linejoin="round"/>
<path d="M134.456 70.7561H138.848C141.113 70.7561 142.949 68.9197 142.949 66.6545V45.6586L131.505 34.215C129.511 32.22 126.276 32.22 124.282 34.215L111.098 47.3985" stroke="#663366" stroke-width="4.10156" stroke-miterlimit="10" stroke-linecap="round" stroke-linejoin="round"/>
<path d="M74.9999 104.729C91.4181 104.729 104.728 91.4195 104.728 75.0013C104.728 58.583 91.4181 45.2734 74.9999 45.2734C58.5816 45.2734 45.272 58.583 45.272 75.0013C45.272 91.4195 58.5816 104.729 74.9999 104.729Z" stroke="#663366" stroke-width="4.10156" stroke-miterlimit="10" stroke-linecap="round" stroke-linejoin="round"/>
<path d="M84.7509 67.7109H88.9977C91.3432 67.7109 93.2445 69.6124 93.2445 71.9577C93.2445 74.3032 91.343 76.2044 88.9977 76.2044H84.7509" stroke="#663366" stroke-width="4.10156" stroke-miterlimit="10" stroke-linecap="round" stroke-linejoin="round"/>
<path d="M75.0078 80.533L77.9894 91.6605L73.0866 92.9741C71.2633 93.4627 69.3889 92.3805 68.9006 90.5572L66.1933 80.4531" stroke="#663366" stroke-width="4.10156" stroke-miterlimit="10" stroke-linecap="round" stroke-linejoin="round"/>
<path d="M69.4956 80.4531H73.7423C75.0157 80.4531 76.8502 80.7495 77.9891 81.3191L83.7614 84.2052C84.2158 84.4324 84.7507 84.1018 84.7507 83.5938V60.3251C84.7507 59.8168 84.2158 59.4865 83.7614 59.7137L77.9891 62.5998C76.85 63.1694 75.0157 63.4658 73.7423 63.4658H69.4956" stroke="#663366" stroke-width="4.10156" stroke-miterlimit="10" stroke-linecap="round" stroke-linejoin="round"/>
<path d="M65.2488 63.469C60.558 63.469 56.7553 67.2717 56.7553 71.9625C56.7553 76.6534 60.558 80.4561 65.2488 80.4561H69.4956V63.4688H65.2488V63.469Z" stroke="#663366" stroke-width="4.10156" stroke-miterlimit="10" stroke-linecap="round" stroke-linejoin="round"/>
<path d="M28.2847 48.7737V29.0332C28.2847 26.3032 31.3273 24.6749 33.5987 26.1892L48.404 36.0594C50.4334 37.4124 50.4334 40.3942 48.404 41.7472L33.5987 51.6175C31.3273 53.1321 28.2847 51.5037 28.2847 48.7737Z" stroke="#663366" stroke-width="4.10156" stroke-miterlimit="10" stroke-linecap="round" stroke-linejoin="round"/>
<path d="M111.098 28.2874C114.616 28.2874 117.468 25.4354 117.468 21.9171C117.468 18.3989 114.616 15.5469 111.098 15.5469C107.58 15.5469 104.728 18.3989 104.728 21.9171C104.728 25.4354 107.58 28.2874 111.098 28.2874Z" stroke="#663366" stroke-width="4.10156" stroke-miterlimit="10" stroke-linecap="round" stroke-linejoin="round"/>
<path d="M91.2199 121.773C90.9533 122.211 90.7359 122.679 90.573 123.168L87.8758 131.259C87.3415 132.862 88.8667 134.387 90.4699 133.853L98.5612 131.156C99.0503 130.993 99.5179 130.775 99.9554 130.509" stroke="#663366" stroke-width="4.10156" stroke-miterlimit="10" stroke-linecap="round" stroke-linejoin="round"/>
<path d="M109.101 103.617L118.11 112.626" stroke="#663366" stroke-width="4.10156" stroke-miterlimit="10" stroke-linecap="round" stroke-linejoin="round"/>
<path d="M131.623 99.1091C134.111 96.6214 134.111 92.5879 131.623 90.1002C129.136 87.6124 125.102 87.6124 122.614 90.1002L92.2242 120.49C91.8384 120.876 91.5018 121.305 91.2199 121.768L99.9554 130.503C100.418 130.221 100.848 129.885 101.233 129.499L131.623 99.1091Z" stroke="#663366" stroke-width="4.10156" stroke-miterlimit="10" stroke-linecap="round" stroke-linejoin="round"/>
<path d="M130.122 100.617L133.228 103.723C134.829 105.325 134.829 107.922 133.228 109.523L121.113 121.638" stroke="#663366" stroke-width="4.10156" stroke-miterlimit="10" stroke-linecap="round" stroke-linejoin="round"/>
<path d="M70.7531 23.1417V11.1484C70.7531 8.88328 68.9167 7.04688 66.6516 7.04688H11.1522C8.88707 7.04688 7.05066 8.88328 7.05066 11.1484V66.6478C7.05066 68.9129 8.88707 70.7493 11.1522 70.7493H45.5734" stroke="#663366" stroke-width="4.10156" stroke-miterlimit="10" stroke-linecap="round" stroke-linejoin="round"/>
<path d="M70.7531 45.5763V32.7188" stroke="#663366" stroke-width="4.10156" stroke-miterlimit="10" stroke-linecap="round" stroke-linejoin="round"/>
<path d="M79.2466 104.43V138.851C79.2466 141.116 81.083 142.952 83.3482 142.952H138.848C141.113 142.952 142.949 141.116 142.949 138.851V83.3516C142.949 81.0864 141.113 79.25 138.848 79.25H104.426" stroke="#663366" stroke-width="4.10156" stroke-miterlimit="10" stroke-linecap="round" stroke-linejoin="round"/>
<path d="M45.5734 79.25H11.1522C8.88707 79.25 7.05066 81.0864 7.05066 83.3516V138.851C7.05066 141.116 8.88707 142.952 11.1522 142.952H66.6516C68.9167 142.952 70.7531 141.116 70.7531 138.851V104.43" stroke="#663366" stroke-width="4.10156" stroke-miterlimit="10" stroke-linecap="round" stroke-linejoin="round"/>
<path d="M32.5317 107.897V104.727H49.519V117.467C44.6289 117.467 40.704 121.6 41.0463 126.564C41.3351 130.752 44.7284 134.145 48.9167 134.434C53.8801 134.776 58.0128 130.851 58.0128 125.961V99.3984" stroke="#663366" stroke-width="4.10156" stroke-miterlimit="10" stroke-linecap="round" stroke-linejoin="round"/>
<path d="M50.6008 91.9844H28.1395C25.8744 91.9844 24.038 93.8208 24.038 96.0859V117.465C19.1478 117.465 15.2229 121.598 15.5652 126.562C15.854 130.75 19.2473 134.143 23.4356 134.432C28.399 134.774 32.5317 130.849 32.5317 125.959V117.466" stroke="#663366" stroke-width="4.10156" stroke-miterlimit="10" stroke-linecap="round" stroke-linejoin="round"/>
<path d="M118.573 54.874L97.9142 34.215C95.9195 32.22 92.685 32.22 90.6903 34.215L79.3188 45.5867" stroke="#663366" stroke-width="4.10156" stroke-miterlimit="10" stroke-linecap="round" stroke-linejoin="round"/>
<path d="M104.426 70.7509H134.456L125.369 61.6641" stroke="#663366" stroke-width="4.10156" stroke-miterlimit="10" stroke-linecap="round" stroke-linejoin="round"/>
</g>
<defs>
<clipPath id="clip0_768_11639">
<rect width="140" height="140" fill="white" transform="translate(4.99988 5)"/>
</clipPath>
</defs>
</svg>
