<svg width="150" height="150" viewBox="0 0 150 150" fill="none" xmlns="http://www.w3.org/2000/svg">
<g clip-path="url(#clip0_768_11760)">
<path d="M86.5557 109.148C88.4818 119.85 87.8089 131.317 84.0429 142.533C89.4982 140.02 94.8466 136.671 99.8752 132.499C104.507 135.642 108.983 139.13 113.264 142.953C114.635 125.129 110.81 108.555 103.544 94.7969" stroke="#663366" stroke-width="4.10156" stroke-miterlimit="10" stroke-linecap="round" stroke-linejoin="round"/>
<path d="M98.9504 115.491C98.1273 110.523 96.8312 105.732 95.1195 101.18" stroke="#663366" stroke-width="4.10156" stroke-miterlimit="10" stroke-linecap="round" stroke-linejoin="round"/>
<path d="M99.9266 125.055C100.025 127.505 100.011 129.987 99.8746 132.492" stroke="#663366" stroke-width="4.10156" stroke-miterlimit="10" stroke-linecap="round" stroke-linejoin="round"/>
<path d="M122.161 13.5831C123.869 11.4205 125.558 9.24148 127.225 7.04688C132.977 11.7382 138.258 17.0191 142.949 22.7706C140.889 24.3369 138.842 25.9209 136.809 27.5227" stroke="#663366" stroke-width="4.10156" stroke-miterlimit="10" stroke-linecap="round" stroke-linejoin="round"/>
<path d="M132.345 23.2266C135.082 26.2152 137.623 29.3926 139.925 32.7258C137.871 34.2488 135.829 35.791 133.803 37.3523" stroke="#663366" stroke-width="4.10156" stroke-miterlimit="10" stroke-linecap="round" stroke-linejoin="round"/>
<path d="M112.732 16.0965C114.263 14.1031 115.778 12.0961 117.276 10.0781C120.145 12.0605 122.895 14.2152 125.512 16.5258" stroke="#663366" stroke-width="4.10156" stroke-miterlimit="10" stroke-linecap="round" stroke-linejoin="round"/>
<path d="M13.1908 122.477C11.1584 124.078 9.11141 125.663 7.05078 127.229C11.7421 132.98 17.023 138.261 22.7745 142.952C24.3408 140.892 25.9248 138.845 27.5266 136.812" stroke="#663366" stroke-width="4.10156" stroke-miterlimit="10" stroke-linecap="round" stroke-linejoin="round"/>
<path d="M16.0786 112.742C14.0907 114.271 12.0894 115.784 10.0761 117.278C13.1252 121.69 16.5847 125.828 20.3792 129.622C24.1737 133.417 28.3108 136.876 32.7233 139.925C34.2206 137.908 35.7357 135.903 37.2681 133.911" stroke="#663366" stroke-width="4.10156" stroke-miterlimit="10" stroke-linecap="round" stroke-linejoin="round"/>
<path d="M74.781 112.312C67.2513 120.851 60.0462 129.714 53.1657 138.902L46.7607 132.497" stroke="#663366" stroke-width="4.10156" stroke-miterlimit="10" stroke-linecap="round" stroke-linejoin="round"/>
<path d="M118.222 69.6719C114.411 72.9094 110.664 76.207 106.979 79.5703" stroke="#663366" stroke-width="4.10156" stroke-miterlimit="10" stroke-linecap="round" stroke-linejoin="round"/>
<path d="M132.556 46.8203L138.9 53.1668C134.388 56.5465 129.955 60 125.605 63.5356" stroke="#663366" stroke-width="4.10156" stroke-miterlimit="10" stroke-linecap="round" stroke-linejoin="round"/>
<path d="M103.255 69.677C113.928 60.14 125.112 51.1152 136.809 42.6028C129.35 30.7031 119.294 20.6469 107.394 13.1875C98.3032 25.6798 88.6276 37.5877 78.3679 48.911" stroke="#663366" stroke-width="4.10156" stroke-miterlimit="10" stroke-linecap="round" stroke-linejoin="round"/>
<path d="M24.8625 98.5938C21.0289 101.585 17.1379 104.516 13.1895 107.39C16.9191 113.34 21.2969 118.828 26.2324 123.764C31.168 128.699 36.6559 133.077 42.6059 136.807C46.0867 132.024 49.6523 127.327 53.3055 122.714C56.9559 118.101 60.6938 113.578 64.5164 109.137" stroke="#663366" stroke-width="4.10156" stroke-miterlimit="10" stroke-linecap="round" stroke-linejoin="round"/>
<path d="M43.2348 83.4219C39.6746 86.5336 36.0598 89.5879 32.3875 92.5875" stroke="#663366" stroke-width="4.10156" stroke-miterlimit="10" stroke-linecap="round" stroke-linejoin="round"/>
<path d="M71.8051 111.279L67.5682 108.229L62.3748 108.748C60.0339 108.982 57.8057 107.692 56.8424 105.546L54.7038 100.783L49.9403 98.6441C47.7941 97.6805 46.5045 95.4525 46.7383 93.1116L47.257 87.9185L44.2071 83.6816C42.8334 81.7732 42.8334 79.2002 44.2071 77.2919L47.257 73.055L46.7383 67.8618C46.5045 65.5209 47.7941 63.2927 49.9403 62.3294L54.7038 60.1908L56.8424 55.4275C57.806 53.2813 60.0339 51.9918 62.3751 52.2256L67.5682 52.7443L71.8051 49.6944C73.7135 48.3206 76.2865 48.3206 78.1951 49.6944L82.432 52.7443L87.6251 52.2256C89.966 51.9918 92.1943 53.2813 93.1576 55.4275L95.2962 60.1911L100.059 62.3296C102.206 63.2932 103.495 65.5212 103.261 67.8624L102.743 73.0555L105.793 77.2924C107.166 79.2007 107.166 81.7738 105.793 83.6821L102.743 87.919L103.261 93.1124C103.495 95.4533 102.206 97.6816 100.059 98.6449L95.2959 100.783L93.1573 105.547C92.1937 107.693 89.9658 108.983 87.6249 108.749L82.4317 108.23L78.1948 111.28C76.2865 112.653 73.7135 112.653 71.8051 111.279Z" stroke="#663366" stroke-width="4.10156" stroke-miterlimit="10" stroke-linecap="round" stroke-linejoin="round"/>
<path d="M75 100.459C63.9898 100.459 55.0325 91.5009 55.0325 80.4909C55.0325 69.481 63.9898 60.5234 75 60.5234C86.0102 60.5234 94.9675 69.4807 94.9675 80.4909C94.9675 91.5012 86.0102 100.459 75 100.459Z" stroke="#663366" stroke-width="4.10156" stroke-miterlimit="10" stroke-linecap="round" stroke-linejoin="round"/>
<path d="M83.7995 81.3594H66.2005" stroke="#663366" stroke-width="4.10156" stroke-miterlimit="10" stroke-linecap="round" stroke-linejoin="round"/>
</g>
<defs>
<clipPath id="clip0_768_11760">
<rect width="140" height="140" fill="white" transform="translate(5 5)"/>
</clipPath>
</defs>
</svg>
