<svg width="150" height="150" viewBox="0 0 150 150" fill="none" xmlns="http://www.w3.org/2000/svg">
<g clip-path="url(#clip0_768_11689)">
<path d="M15.0219 39.1641V47.4755H18.5052V60.5529H15.0219V69.5534H18.5052V82.6305H15.0219V96.0139" stroke="#663366" stroke-width="4.10156" stroke-miterlimit="10" stroke-linecap="round" stroke-linejoin="round"/>
<path d="M134.972 39.3438V47.4747H131.488V60.5521H134.972V69.5526H131.488V82.6297H134.972V95.968" stroke="#663366" stroke-width="4.10156" stroke-miterlimit="10" stroke-linecap="round" stroke-linejoin="round"/>
<path d="M131.488 69.5547H122.791V82.6318H131.488" stroke="#663366" stroke-width="4.10156" stroke-miterlimit="10" stroke-linecap="round" stroke-linejoin="round"/>
<path d="M131.488 47.4766H122.791V60.554H131.488" stroke="#663366" stroke-width="4.10156" stroke-miterlimit="10" stroke-linecap="round" stroke-linejoin="round"/>
<path d="M103.845 82.6318H112.045V69.5547H103.845" stroke="#663366" stroke-width="4.10156" stroke-miterlimit="10" stroke-linecap="round" stroke-linejoin="round"/>
<path d="M103.845 60.554H112.045V47.4766H103.845" stroke="#663366" stroke-width="4.10156" stroke-miterlimit="10" stroke-linecap="round" stroke-linejoin="round"/>
<path d="M96.6003 7.04688H107.788V15.6711H42.2038V7.04688H87.03" stroke="#663366" stroke-width="4.10156" stroke-miterlimit="10" stroke-linecap="round" stroke-linejoin="round"/>
<path d="M45.9263 38.75H10.2354V30.125H46.1672" stroke="#663366" stroke-width="4.10156" stroke-miterlimit="10" stroke-linecap="round" stroke-linejoin="round"/>
<path d="M112.671 38.75H104.085" stroke="#663366" stroke-width="4.10156" stroke-miterlimit="10" stroke-linecap="round" stroke-linejoin="round"/>
<path d="M103.845 30.125H139.758V38.7492H122.242" stroke="#663366" stroke-width="4.10156" stroke-miterlimit="10" stroke-linecap="round" stroke-linejoin="round"/>
<path d="M103.348 16.2891V101.865" stroke="#663366" stroke-width="4.10156" stroke-miterlimit="10" stroke-linecap="round" stroke-linejoin="round"/>
<path d="M46.6455 102.204V16.2891" stroke="#663366" stroke-width="4.10156" stroke-miterlimit="10" stroke-linecap="round" stroke-linejoin="round"/>
<path d="M91.8152 42.8019V32.6874H81.1779C81.1779 29.1666 78.3238 26.3125 74.803 26.3125C71.2822 26.3125 68.4281 29.1666 68.4281 32.6874H57.7908V43.3247C61.3116 43.3247 64.1657 46.1788 64.1657 49.6996C64.1657 53.2204 61.3116 56.0745 57.7908 56.0745V66.7118H68.4281C68.4281 70.2326 71.2822 73.0867 74.803 73.0867C78.3238 73.0867 81.1779 70.2326 81.1779 66.7118H91.8152V55.552C88.2944 55.552 85.4402 52.6979 85.4402 49.1771C85.4402 45.656 88.2944 42.8019 91.8152 42.8019Z" stroke="#663366" stroke-width="4.10156" stroke-miterlimit="10" stroke-linecap="round" stroke-linejoin="round"/>
<path d="M7.57562 107.823C10.001 98.7641 18.2889 92.0703 28.1053 92.0703C36.0569 92.0703 43.0022 96.459 46.6471 102.939" stroke="#663366" stroke-width="4.10156" stroke-miterlimit="10" stroke-linecap="round" stroke-linejoin="round"/>
<path d="M7.2475 117.391C9.15336 127.161 17.783 134.557 28.1053 134.557C36.0569 134.557 43.0022 130.171 46.6471 123.691" stroke="#663366" stroke-width="4.10156" stroke-miterlimit="10" stroke-linecap="round" stroke-linejoin="round"/>
<path d="M24.0623 116.547V120.837C24.0623 121.522 23.6043 122.124 22.9431 122.306L19.1743 123.347C18.2673 123.598 17.4399 124.077 16.7708 124.738C15.7246 125.772 15.1356 127.181 15.1356 128.651V130.029" stroke="#663366" stroke-width="4.10156" stroke-miterlimit="10" stroke-linecap="round" stroke-linejoin="round"/>
<path d="M32.1495 116.547V120.837C32.1495 121.522 32.6075 122.124 33.2686 122.306L37.0374 123.347C37.9444 123.598 38.7718 124.077 39.4409 124.738C40.4871 125.772 41.0761 127.181 41.0761 128.651V130.029" stroke="#663366" stroke-width="4.10156" stroke-miterlimit="10" stroke-linecap="round" stroke-linejoin="round"/>
<path d="M32.8415 122.68C30.8255 126.474 25.3865 126.474 23.3705 122.68" stroke="#663366" stroke-width="4.10156" stroke-miterlimit="10" stroke-linecap="round" stroke-linejoin="round"/>
<path d="M24.7461 116.844L25.686 117.378C27.1869 118.229 29.0252 118.229 30.5261 117.378L31.4659 116.844C34.0444 115.381 35.6374 112.646 35.6374 109.682V107.59C35.6374 104.631 33.9008 101.947 31.2009 100.734C29.2324 99.8492 26.9796 99.8492 25.0111 100.734C22.3112 101.947 20.5746 104.631 20.5746 107.59V109.682C20.5746 112.646 22.1676 115.381 24.7461 116.844Z" stroke="#663366" stroke-width="4.10156" stroke-miterlimit="10" stroke-linecap="round" stroke-linejoin="round"/>
<path d="M103.116 102.665C106.8 96.3348 113.661 92.0703 121.5 92.0703C133.218 92.0703 142.752 101.601 142.752 113.315C142.752 125.029 133.218 134.56 121.5 134.56C113.585 134.56 106.666 130.212 103.009 123.779" stroke="#663366" stroke-width="4.10156" stroke-miterlimit="10" stroke-linecap="round" stroke-linejoin="round"/>
<path d="M117.456 116.547V120.837C117.456 121.522 116.998 122.124 116.337 122.306L112.569 123.347C111.662 123.598 110.834 124.077 110.165 124.738C109.119 125.772 108.53 127.181 108.53 128.651V130.029" stroke="#663366" stroke-width="4.10156" stroke-miterlimit="10" stroke-linecap="round" stroke-linejoin="round"/>
<path d="M125.544 116.547V120.837C125.544 121.522 126.002 122.124 126.663 122.306L130.432 123.347C131.339 123.598 132.166 124.077 132.835 124.738C133.881 125.772 134.47 127.181 134.47 128.651V130.029" stroke="#663366" stroke-width="4.10156" stroke-miterlimit="10" stroke-linecap="round" stroke-linejoin="round"/>
<path d="M126.236 122.68C124.22 126.474 118.781 126.474 116.765 122.68" stroke="#663366" stroke-width="4.10156" stroke-miterlimit="10" stroke-linecap="round" stroke-linejoin="round"/>
<path d="M118.14 116.844L119.08 117.378C120.581 118.229 122.419 118.229 123.92 117.378L124.86 116.844C127.439 115.381 129.032 112.646 129.032 109.682V107.59C129.032 104.631 127.295 101.947 124.595 100.734C122.627 99.8492 120.374 99.8492 118.405 100.734C115.705 101.947 113.969 104.631 113.969 107.59V109.682C113.969 112.646 115.562 115.381 118.14 116.844Z" stroke="#663366" stroke-width="4.10156" stroke-miterlimit="10" stroke-linecap="round" stroke-linejoin="round"/>
<path d="M62.4162 86.4027C66.187 84.6582 70.3842 83.6875 74.803 83.6875C91.1491 83.6875 104.446 96.9793 104.446 113.32C104.446 129.658 91.1491 142.952 74.803 142.952C58.4569 142.952 45.1596 129.658 45.1596 113.32C45.1596 104.841 48.7389 97.1816 54.4702 91.7785" stroke="#663366" stroke-width="4.10156" stroke-miterlimit="10" stroke-linecap="round" stroke-linejoin="round"/>
<path d="M69.1628 117.82V123.804C69.1628 124.76 68.524 125.599 67.6017 125.854L62.3449 127.306C61.08 127.656 59.9255 128.323 58.9923 129.245C57.5329 130.687 56.7115 132.653 56.7115 134.704V136.625" stroke="#663366" stroke-width="4.10156" stroke-miterlimit="10" stroke-linecap="round" stroke-linejoin="round"/>
<path d="M80.4432 117.82V123.804C80.4432 124.76 81.0819 125.599 82.0042 125.854L87.2611 127.306C88.526 127.656 89.6804 128.323 90.6137 129.245C92.073 130.687 92.8944 132.653 92.8944 134.704V136.625" stroke="#663366" stroke-width="4.10156" stroke-miterlimit="10" stroke-linecap="round" stroke-linejoin="round"/>
<path d="M81.4084 126.375C78.5964 131.668 71.0098 131.668 68.1978 126.375" stroke="#663366" stroke-width="4.10156" stroke-miterlimit="10" stroke-linecap="round" stroke-linejoin="round"/>
<path d="M70.1165 118.233L71.4274 118.977C73.5208 120.165 76.0848 120.165 78.1783 118.977L79.4891 118.233C83.0857 116.192 85.3076 112.377 85.3076 108.243V105.325C85.3076 101.197 82.8855 97.4538 79.1197 95.7615C76.3741 94.5274 73.2318 94.5274 70.4862 95.7615C66.7204 97.454 64.2983 101.197 64.2983 105.325V108.243C64.2983 112.377 66.5203 116.192 70.1165 118.233Z" stroke="#663366" stroke-width="4.10156" stroke-miterlimit="10" stroke-linecap="round" stroke-linejoin="round"/>
<path d="M18.5052 69.5547H27.2021V82.6318H18.5052" stroke="#663366" stroke-width="4.10156" stroke-miterlimit="10" stroke-linecap="round" stroke-linejoin="round"/>
<path d="M18.5052 47.4766H27.2021V60.554H18.5052" stroke="#663366" stroke-width="4.10156" stroke-miterlimit="10" stroke-linecap="round" stroke-linejoin="round"/>
<path d="M45.7459 82.6318H37.9482V69.5547H45.7459" stroke="#663366" stroke-width="4.10156" stroke-miterlimit="10" stroke-linecap="round" stroke-linejoin="round"/>
<path d="M45.7459 60.554H37.9482V47.4766H46.1672" stroke="#663366" stroke-width="4.10156" stroke-miterlimit="10" stroke-linecap="round" stroke-linejoin="round"/>
</g>
<defs>
<clipPath id="clip0_768_11689">
<rect width="140" height="140" fill="white" transform="translate(4.99985 5)"/>
</clipPath>
</defs>
</svg>
