<svg width="150" height="150" viewBox="0 0 150 150" fill="none" xmlns="http://www.w3.org/2000/svg">
<g clip-path="url(#clip0_761_7531)">
<path d="M142.945 7.05469H88.1506V142.945H142.945V7.05469Z" stroke="#663366" stroke-width="4.10959" stroke-miterlimit="10"/>
<path d="M88.1506 23.4922H61.8492" stroke="#663366" stroke-width="4.10959" stroke-miterlimit="10"/>
<path d="M88.1506 142.945H61.8492" stroke="#663366" stroke-width="4.10959" stroke-miterlimit="10"/>
<path d="M61.8493 7.05469H7.05481V142.945H61.8493V7.05469Z" stroke="#663366" stroke-width="4.10959" stroke-miterlimit="10"/>
<path d="M28.9727 82.3964L28.9727 71.4375H18.0138V82.3964H28.9727Z" stroke="#663366" stroke-width="4.10959" stroke-miterlimit="10"/>
<path d="M50.8904 82.3964V71.4375H39.9315V82.3964H50.8904Z" stroke="#663366" stroke-width="4.10959" stroke-miterlimit="10"/>
<path d="M28.9727 104.318L28.9727 93.3594H18.0138V104.318H28.9727Z" stroke="#663366" stroke-width="4.10959" stroke-miterlimit="10"/>
<path d="M50.8904 104.318V93.3594H39.9315V104.318H50.8904Z" stroke="#663366" stroke-width="4.10959" stroke-miterlimit="10"/>
<path d="M49.5205 123.766H19.3835V142.944H49.5205V123.766Z" stroke="#663366" stroke-width="4.10959" stroke-miterlimit="10"/>
<path d="M34.452 123.766V142.944" stroke="#663366" stroke-width="4.10959" stroke-miterlimit="10"/>
<path d="M53.6301 115.547H15.2739V123.766H53.6301V115.547Z" stroke="#663366" stroke-width="4.10959" stroke-miterlimit="10"/>
<path d="M131.986 82.3964L131.986 71.4375L121.027 71.4375L121.027 82.3964L131.986 82.3964Z" stroke="#663366" stroke-width="4.10959" stroke-miterlimit="10"/>
<path d="M110.068 82.3964L110.068 71.4375L99.1096 71.4375L99.1096 82.3964L110.068 82.3964Z" stroke="#663366" stroke-width="4.10959" stroke-miterlimit="10"/>
<path d="M79.9315 48.9724L79.9315 39.1094L70.0685 39.1094L70.0685 48.9724L79.9315 48.9724Z" stroke="#663366" stroke-width="4.10959" stroke-miterlimit="10"/>
<path d="M79.9315 70.8865L79.9315 61.0234L70.0685 61.0234L70.0685 70.8865L79.9315 70.8865Z" stroke="#663366" stroke-width="4.10959" stroke-miterlimit="10"/>
<path d="M79.9315 92.8083L79.9315 82.9453L70.0685 82.9453L70.0685 92.8083L79.9315 92.8083Z" stroke="#663366" stroke-width="4.10959" stroke-miterlimit="10"/>
<path d="M79.9315 114.722L79.9315 104.859L70.0685 104.859L70.0685 114.722L79.9315 114.722Z" stroke="#663366" stroke-width="4.10959" stroke-miterlimit="10"/>
<path d="M131.986 104.318L131.986 93.3594L121.027 93.3594L121.027 104.318L131.986 104.318Z" stroke="#663366" stroke-width="4.10959" stroke-miterlimit="10"/>
<path d="M110.068 104.318L110.068 93.3594L99.1096 93.3594L99.1096 104.318L110.068 104.318Z" stroke="#663366" stroke-width="4.10959" stroke-miterlimit="10"/>
<path d="M100.479 142.945L130.616 142.945L130.616 123.767L100.479 123.767L100.479 142.945Z" stroke="#663366" stroke-width="4.10959" stroke-miterlimit="10"/>
<path d="M115.548 123.766V142.944" stroke="#663366" stroke-width="4.10959" stroke-miterlimit="10"/>
<path d="M96.3698 123.766L134.726 123.766L134.726 115.546L96.3698 115.546L96.3698 123.766Z" stroke="#663366" stroke-width="4.10959" stroke-miterlimit="10"/>
<path d="M100.603 39.8602L96.3699 38.355C96.3699 35.8295 96.3699 35.823 96.3699 33.2975L100.603 31.7923L102.127 28.1112L100.199 24.0536C101.984 22.2679 101.989 22.2632 103.775 20.4772L107.833 22.406C109.302 21.7972 110.044 21.4898 111.514 20.8813L113.019 16.6484C115.544 16.6484 115.551 16.6484 118.077 16.6484L119.582 20.8813C121.051 21.4901 121.794 21.7975 123.263 22.406L127.321 20.4772C129.106 22.263 129.111 22.2676 130.897 24.0536L128.968 28.1112C129.577 29.5805 129.884 30.323 130.493 31.7923L134.726 33.2975C134.726 35.823 134.726 35.8295 134.726 38.355L130.493 39.8602C129.884 41.3295 129.577 42.072 128.968 43.5413L130.897 47.5988C129.111 49.3846 129.107 49.3893 127.321 51.1753L123.263 49.2465C121.794 49.8553 121.051 50.1627 119.582 50.7712L118.077 55.0041C115.551 55.0041 115.545 55.0041 113.019 55.0041L111.514 50.7712L107.833 49.2465L103.775 51.1753C101.989 49.3895 101.985 49.3849 100.199 47.5988L102.127 43.5413L100.603 39.8602Z" stroke="#663366" stroke-width="4.10959" stroke-miterlimit="10"/>
<path d="M115.548 41.3027C118.574 41.3027 121.027 38.8494 121.027 35.8232C121.027 32.797 118.574 30.3438 115.548 30.3438C112.522 30.3438 110.068 32.797 110.068 35.8232C110.068 38.8494 112.522 41.3027 115.548 41.3027Z" stroke="#663366" stroke-width="4.10959" stroke-miterlimit="10"/>
<path d="M51.4384 60.477H18.5616V57.7373C18.5616 54.711 21.0148 52.2578 24.0411 52.2578H45.9589C48.9852 52.2578 51.4384 54.711 51.4384 57.7373V60.477Z" stroke="#663366" stroke-width="4.10959" stroke-miterlimit="10"/>
<path d="M30.0685 22.125H40.4794C46.5318 22.125 51.4383 27.0316 51.4383 33.0839C51.4383 39.1362 46.5318 44.0428 40.4794 44.0428" stroke="#663366" stroke-width="4.10959" stroke-miterlimit="10"/>
<path d="M32.2603 44.0391H18.5616" stroke="#663366" stroke-width="4.10959" stroke-miterlimit="10"/>
<path d="M40.7534 52.2636H32.5342V45.4143C32.5342 43.1447 34.3742 41.3047 36.6438 41.3047C38.9134 41.3047 40.7534 43.1447 40.7534 45.4143V52.2636Z" stroke="#663366" stroke-width="4.10959" stroke-miterlimit="10"/>
<path d="M30.0684 19.3828H21.8492V31.4376H30.0684V19.3828Z" stroke="#663366" stroke-width="4.10959" stroke-miterlimit="10"/>
<path d="M25.9589 13.3594V19.3868" stroke="#663366" stroke-width="4.10959" stroke-miterlimit="10"/>
<path d="M25.9589 31.4375V37.4649" stroke="#663366" stroke-width="4.10959" stroke-miterlimit="10"/>
</g>
<defs>
<clipPath id="clip0_761_7531">
<rect width="140" height="140" fill="white" transform="translate(5 5)"/>
</clipPath>
</defs>
</svg>
