<svg width="150" height="150" viewBox="0 0 150 150" fill="none" xmlns="http://www.w3.org/2000/svg">
<mask id="mask0_761_8783" style="mask-type:luminance" maskUnits="userSpaceOnUse" x="5" y="5" width="140" height="140">
<path d="M5 5.00002H145V145H5V5.00002Z" fill="white"/>
</mask>
<g mask="url(#mask0_761_8783)">
<path d="M14.8586 77.477V140.211C14.8586 141.721 16.0828 142.945 17.593 142.945H132.407C133.917 142.945 135.141 141.721 135.141 140.211V46.2195" stroke="#663366" stroke-width="4.10156" stroke-miterlimit="10" stroke-linecap="round" stroke-linejoin="round"/>
<path d="M37.8658 22.6595H17.5929C16.0827 22.6595 14.8585 23.8839 14.8585 25.3938V68.4531" stroke="#663366" stroke-width="4.10156" stroke-miterlimit="10" stroke-linecap="round" stroke-linejoin="round"/>
<path d="M57.3696 22.6641H49.9745" stroke="#663366" stroke-width="4.10156" stroke-miterlimit="10" stroke-linecap="round" stroke-linejoin="round"/>
<path d="M99.5596 22.6641H92.7333" stroke="#663366" stroke-width="4.10156" stroke-miterlimit="10" stroke-linecap="round" stroke-linejoin="round"/>
<path d="M135.141 37.2031V25.4013C135.141 23.8911 133.917 22.6669 132.407 22.6669H112.032" stroke="#663366" stroke-width="4.10156" stroke-miterlimit="10" stroke-linecap="round" stroke-linejoin="round"/>
<path d="M60.9598 43.9375L92.2146 33.4189" stroke="#663366" stroke-width="4.10156" stroke-miterlimit="10" stroke-linecap="round" stroke-linejoin="round"/>
<path d="M74.71 50.6979C72.9682 49.4475 71.0624 48.4445 69.0458 47.7163L64.3757 46.0303C60.4333 44.6071 57.7848 40.8347 57.7848 36.6432V10.7987L75.0001 7.04551L92.2155 10.7987V36.6432C92.2155 40.8347 89.5667 44.6071 85.6243 46.0303L80.9542 47.7163C78.9376 48.4445 77.0318 49.4475 75.29 50.6979L75.0001 50.9062L74.71 50.6979Z" stroke="#663366" stroke-width="4.10156" stroke-miterlimit="10" stroke-linecap="round" stroke-linejoin="round"/>
<path d="M76.113 16.1356L78.0639 18.8038L81.2044 19.8347C82.0909 20.1256 82.4387 21.195 81.8923 21.9519L79.9578 24.6316L79.9474 27.9372C79.9446 28.8701 79.0352 29.531 78.1465 29.2453L75.0001 28.2336L71.8534 29.2453C70.965 29.531 70.0555 28.8701 70.0525 27.9372L70.0424 24.6316L68.1078 21.9519C67.5615 21.195 67.909 20.1256 68.7955 19.8347L71.9362 18.8038L73.8869 16.1356C74.4379 15.3823 75.562 15.3823 76.113 16.1356Z" stroke="#663366" stroke-width="4.10156" stroke-miterlimit="10" stroke-linecap="round" stroke-linejoin="round"/>
<path d="M94.2792 84.4422H34.0411C32.8479 84.4422 31.7921 85.2163 31.4334 86.3549L27.4147 99.1077C26.8593 100.87 28.1748 102.664 30.0224 102.664H117.599C118.793 102.664 119.849 101.89 120.207 100.751L124.226 87.9985C124.781 86.2365 123.466 84.4422 121.618 84.4422H103.3" stroke="#663366" stroke-width="4.10156" stroke-miterlimit="10" stroke-linecap="round" stroke-linejoin="round"/>
<path d="M39.2875 93.5547H94.4171" stroke="#663366" stroke-width="4.10156" stroke-miterlimit="10" stroke-linecap="round" stroke-linejoin="round"/>
<path d="M106.192 93.5547H106.221" stroke="#663366" stroke-width="4.10156" stroke-miterlimit="10" stroke-linecap="round" stroke-linejoin="round"/>
<path d="M112.325 93.5547H112.353" stroke="#663366" stroke-width="4.10156" stroke-miterlimit="10" stroke-linecap="round" stroke-linejoin="round"/>
<path d="M117.599 129.492H30.0225C28.1752 129.492 26.8591 127.698 27.4147 125.936L31.4334 113.183C31.7919 112.045 32.8479 111.271 34.0412 111.271H121.618C123.465 111.271 124.781 113.065 124.226 114.827L120.207 127.579C119.849 128.718 118.793 129.492 117.599 129.492Z" stroke="#663366" stroke-width="4.10156" stroke-miterlimit="10" stroke-linecap="round" stroke-linejoin="round"/>
<path d="M39.2875 120.375H94.4171" stroke="#663366" stroke-width="4.10156" stroke-miterlimit="10" stroke-linecap="round" stroke-linejoin="round"/>
<path d="M106.192 120.375H106.221" stroke="#663366" stroke-width="4.10156" stroke-miterlimit="10" stroke-linecap="round" stroke-linejoin="round"/>
<path d="M112.325 120.375H112.353" stroke="#663366" stroke-width="4.10156" stroke-miterlimit="10" stroke-linecap="round" stroke-linejoin="round"/>
<path d="M106.772 41.3281C104.091 41.3281 101.674 40.1966 99.9744 38.3862C99.065 37.418 99.065 35.9152 99.9744 34.9469C101.674 33.1365 104.091 32.005 106.772 32.005C109.45 32.005 111.867 33.1362 113.568 34.9461C114.478 35.9143 114.478 37.418 113.568 38.3862C111.867 40.1966 109.451 41.3281 106.772 41.3281Z" stroke="#663366" stroke-width="4.10156" stroke-miterlimit="10" stroke-linecap="round" stroke-linejoin="round"/>
<path d="M109.103 24.8899C106.781 26.2303 104.123 26.4586 101.745 25.7408C100.473 25.3569 99.7219 24.0556 100.025 22.7626C100.593 20.3443 102.119 18.1565 104.441 16.8158C106.761 15.4765 109.419 15.2477 111.797 15.9646C113.07 16.3483 113.821 17.6504 113.518 18.944C112.949 21.3628 111.423 23.5503 109.103 24.8899Z" stroke="#663366" stroke-width="4.10156" stroke-miterlimit="10" stroke-linecap="round" stroke-linejoin="round"/>
<path d="M104.433 48.4413C102.111 47.1009 99.4528 46.8726 97.0753 47.5904C95.8035 47.9743 95.0521 49.2756 95.3556 50.5686C95.9227 52.9869 97.4496 55.1747 99.7714 56.5154C102.091 57.8547 104.75 58.0835 107.128 57.3666C108.4 56.9829 109.152 55.6806 108.848 54.3872C108.279 51.9684 106.753 49.7806 104.433 48.4413Z" stroke="#663366" stroke-width="4.10156" stroke-miterlimit="10" stroke-linecap="round" stroke-linejoin="round"/>
<path d="M43.2281 41.3281C45.9092 41.3281 48.3256 40.1966 50.0255 38.3862C50.935 37.418 50.935 35.9152 50.0255 34.9469C48.3256 33.1365 45.9092 32.005 43.2281 32.005C40.5496 32.005 38.1326 33.1362 36.4319 34.9461C35.5219 35.9143 35.5219 37.418 36.4321 38.3862C38.1335 40.1966 40.549 41.3281 43.2281 41.3281Z" stroke="#663366" stroke-width="4.10156" stroke-miterlimit="10" stroke-linecap="round" stroke-linejoin="round"/>
<path d="M40.8972 24.8899C43.219 26.2303 45.8773 26.4586 48.2552 25.7408C49.5266 25.3569 50.278 24.0556 49.9745 22.7626C49.4074 20.3443 47.8805 18.1565 45.5588 16.8158C43.2389 15.4765 40.5806 15.2477 38.2025 15.9646C36.9302 16.3483 36.1785 17.6504 36.4823 18.944C37.0508 21.3628 38.5774 23.5503 40.8972 24.8899Z" stroke="#663366" stroke-width="4.10156" stroke-miterlimit="10" stroke-linecap="round" stroke-linejoin="round"/>
<path d="M45.567 48.4413C47.8888 47.1009 50.5471 46.8726 52.9247 47.5904C54.1964 47.9743 54.9478 49.2756 54.6443 50.5686C54.0772 52.9869 52.5503 55.1747 50.2286 56.5154C47.9087 57.8547 45.2501 58.0835 42.8723 57.3666C41.6 56.9829 40.8483 55.6806 41.1521 54.3872C41.7206 51.9684 43.2469 49.7806 45.567 48.4413Z" stroke="#663366" stroke-width="4.10156" stroke-miterlimit="10" stroke-linecap="round" stroke-linejoin="round"/>
<path d="M63.6056 65.8828H86.3944" stroke="#663366" stroke-width="4.10156" stroke-miterlimit="10" stroke-linecap="round" stroke-linejoin="round"/>
<path d="M54.7117 72.9609H95.2884" stroke="#663366" stroke-width="4.10156" stroke-miterlimit="10" stroke-linecap="round" stroke-linejoin="round"/>
</g>
</svg>
