<svg width="150" height="150" viewBox="0 0 150 150" fill="none" xmlns="http://www.w3.org/2000/svg">
<path d="M45.3074 118.715V87.1172" stroke="#663366" stroke-width="4.10156" stroke-miterlimit="10" stroke-linecap="round" stroke-linejoin="round"/>
<path d="M54.6918 86.875V118.715" stroke="#663366" stroke-width="4.10156" stroke-miterlimit="10" stroke-linecap="round" stroke-linejoin="round"/>
<path d="M95.3082 118.715V87.1172" stroke="#663366" stroke-width="4.10156" stroke-miterlimit="10" stroke-linecap="round" stroke-linejoin="round"/>
<path d="M104.693 87.1172V118.715" stroke="#663366" stroke-width="4.10156" stroke-miterlimit="10" stroke-linecap="round" stroke-linejoin="round"/>
<path d="M66.9336 118.721V104.128C66.9336 100.278 70.0836 97.125 73.9363 97.125H76.0637C79.9164 97.125 83.0664 100.278 83.0664 104.128V118.721" stroke="#663366" stroke-width="4.10156" stroke-miterlimit="10" stroke-linecap="round" stroke-linejoin="round"/>
<path d="M31.5576 77.2344H20.6201V88.2181H31.5576V77.2344Z" stroke="#663366" stroke-width="4.10156" stroke-miterlimit="10" stroke-linecap="round" stroke-linejoin="round"/>
<path d="M31.5576 97.8281H20.6201V108.812H31.5576V97.8281Z" stroke="#663366" stroke-width="4.10156" stroke-miterlimit="10" stroke-linecap="round" stroke-linejoin="round"/>
<path d="M129.38 77.2344H118.169V88.5284H129.38V77.2344Z" stroke="#663366" stroke-width="4.10156" stroke-miterlimit="10" stroke-linecap="round" stroke-linejoin="round"/>
<path d="M129.38 98.4062H118.169V109.7H129.38V98.4062Z" stroke="#663366" stroke-width="4.10156" stroke-miterlimit="10" stroke-linecap="round" stroke-linejoin="round"/>
<path d="M44.7687 36.5391H30.6183" stroke="#663366" stroke-width="4.10156" stroke-miterlimit="10" stroke-linecap="round" stroke-linejoin="round"/>
<path d="M21.048 36.5391H8.41797C7.66328 36.5391 7.05078 37.1516 7.05078 37.9062V64.7879C7.05078 65.5426 7.66328 66.1551 8.41797 66.1551H39.3" stroke="#663366" stroke-width="4.10156" stroke-miterlimit="10" stroke-linecap="round" stroke-linejoin="round"/>
<path d="M105.169 36.5391H141.582C142.337 36.5391 142.949 37.1513 142.949 37.9062V64.7862C142.949 65.5412 142.337 66.1534 141.582 66.1534H110.638" stroke="#663366" stroke-width="4.10156" stroke-miterlimit="10" stroke-linecap="round" stroke-linejoin="round"/>
<path d="M45.3074 44.3838V29.9922C45.3074 29.2375 45.9171 28.625 46.6746 28.625H53.3C56.9667 20.2523 65.3011 14.4062 75 14.4062C81.5433 14.4062 87.4714 17.0695 91.7589 21.3734C93.8234 23.4461 95.5105 25.9016 96.6999 28.625H103.325C104.083 28.625 104.693 29.2375 104.693 29.9922V44.1065" stroke="#663366" stroke-width="4.10156" stroke-miterlimit="10" stroke-linecap="round" stroke-linejoin="round"/>
<path d="M69.5504 44.3888V32.3871C69.5504 29.3766 71.9922 26.9375 75 26.9375C76.5039 26.9375 77.8656 27.5473 78.8528 28.5344C79.8399 29.5187 80.4496 30.8805 80.4496 32.3871V44.3888" stroke="#663366" stroke-width="4.10156" stroke-miterlimit="10" stroke-linecap="round" stroke-linejoin="round"/>
<path d="M109.863 60.1258V84.984C109.863 85.7387 109.251 86.3512 108.496 86.3512H41.5039C40.7492 86.3512 40.1367 85.7387 40.1367 84.984V46.4375C40.1367 45.6828 40.7492 45.0703 41.5039 45.0703H108.496C109.251 45.0703 109.863 45.6828 109.863 46.4375V50.5555" stroke="#663366" stroke-width="4.10156" stroke-miterlimit="10" stroke-linecap="round" stroke-linejoin="round"/>
<path d="M88.1926 61.1107H79.5828V52.4688H70.4172V61.1107H61.8075V70.3103H70.4172V78.9523H79.5828V70.3103H88.1926V61.1107Z" stroke="#663366" stroke-width="4.10156" stroke-miterlimit="10" stroke-linecap="round" stroke-linejoin="round"/>
<path d="M12.1094 66.8125V117.846" stroke="#663366" stroke-width="4.10156" stroke-miterlimit="10" stroke-linecap="round" stroke-linejoin="round"/>
<path d="M137.891 67.3672V118.401" stroke="#663366" stroke-width="4.10156" stroke-miterlimit="10" stroke-linecap="round" stroke-linejoin="round"/>
<path d="M94.4277 127.477H142.949V135.592H7.05078V127.477H84.8574" stroke="#663366" stroke-width="4.10156" stroke-miterlimit="10" stroke-linecap="round" stroke-linejoin="round"/>
<path d="M33.432 119.555H140.42V126.623" stroke="#663366" stroke-width="4.10156" stroke-miterlimit="10" stroke-linecap="round" stroke-linejoin="round"/>
<path d="M9.58008 126.987V119.555H23.8617" stroke="#663366" stroke-width="4.10156" stroke-miterlimit="10" stroke-linecap="round" stroke-linejoin="round"/>
</svg>
