<svg width="150" height="150" viewBox="0 0 150 150" fill="none" xmlns="http://www.w3.org/2000/svg">
<g clip-path="url(#clip0_761_8734)">
<path d="M59.2388 102.846C59.2388 102.846 57.5634 101.3 54.9808 102.078C52.6095 102.793 52.0205 106.038 53.6319 107.301C54.5572 108.027 55.9496 108.624 57.8259 109.287C62.0257 110.772 60.4731 116.694 56.2012 116.723C54.534 116.734 53.7547 116.628 52.2902 115.67" stroke="#663366" stroke-width="4.10159" stroke-miterlimit="10" stroke-linecap="round" stroke-linejoin="round"/>
<path d="M56.2009 118.88V116.719" stroke="#663366" stroke-width="4.10159" stroke-miterlimit="10" stroke-linecap="round" stroke-linejoin="round"/>
<path d="M56.2009 101.864V99.8594" stroke="#663366" stroke-width="4.10159" stroke-miterlimit="10" stroke-linecap="round" stroke-linejoin="round"/>
<path d="M39.2067 114.194C41.3089 121.653 48.1632 127.121 56.2947 127.121C66.0986 127.121 74.0464 119.173 74.0464 109.369C74.0464 99.565 66.0986 91.6172 56.2947 91.6172C48.1536 91.6172 41.2925 97.0975 39.199 104.57" stroke="#663366" stroke-width="4.10159" stroke-miterlimit="10" stroke-linecap="round" stroke-linejoin="round"/>
<path d="M56.7347 75.7891C44.1537 75.7891 33.1702 82.747 27.4201 93.0141L25.2714 89.8351C24.2039 88.096 21.9286 87.5516 20.1895 88.6191C18.4505 89.6866 17.9061 91.9619 18.9736 93.7012C18.9736 93.7012 25.0696 102.628 25.4254 102.897C26.0852 103.644 27.0477 104.131 28.1565 104.131H28.2478C29.8307 104.131 31.251 103.116 31.7207 101.605C35.0346 90.9411 44.9935 83.179 56.7352 83.179C71.5198 83.179 83.4811 95.4928 82.9028 110.406C82.3819 123.837 71.6128 134.787 58.1924 135.517C45.799 136.192 35.1283 128.201 31.7002 117.066C31.2236 115.517 29.8176 114.444 28.1978 114.444H28.1045C25.6531 114.444 23.8946 116.813 24.6102 119.158C28.924 133.288 42.3285 143.492 57.9772 142.924C75.4341 142.292 89.5985 128.174 90.2862 110.72C91.0393 91.5914 75.6985 75.7891 56.7347 75.7891Z" stroke="#663366" stroke-width="4.10159" stroke-miterlimit="10" stroke-linecap="round" stroke-linejoin="round"/>
<path d="M100.806 65.2935H126.484C129.294 65.2935 131.573 63.0147 131.573 60.2037V12.1367C131.573 9.32572 129.294 7.04688 126.484 7.04688H45.017C42.206 7.04688 39.9272 9.32572 39.9272 12.1367V60.2037C39.9272 63.0147 42.206 65.2935 45.017 65.2935H80.9619L84.5355 76.7424C84.9962 78.2187 87.0856 78.2187 87.5463 76.7424L91.1199 65.2935" stroke="#663366" stroke-width="4.10159" stroke-miterlimit="10" stroke-linecap="round" stroke-linejoin="round"/>
<path d="M91.4207 48.4484C97.9799 48.4484 103.297 43.1311 103.297 36.5719C103.297 30.0126 97.9799 24.6953 91.4207 24.6953C84.8614 24.6953 79.5441 30.0126 79.5441 36.5719C79.5441 43.1311 84.8614 48.4484 91.4207 48.4484Z" stroke="#663366" stroke-width="4.10159" stroke-miterlimit="10" stroke-linecap="round" stroke-linejoin="round"/>
<path d="M59.1592 37.1094L69.137 48.4462" stroke="#663366" stroke-width="4.10159" stroke-miterlimit="10" stroke-linecap="round" stroke-linejoin="round"/>
<path d="M56.2947 24.6953V48.4484" stroke="#663366" stroke-width="4.10159" stroke-miterlimit="10" stroke-linecap="round" stroke-linejoin="round"/>
<path d="M69.1371 30.8685C69.1371 34.2777 66.1475 37.0416 62.6144 37.0416C60.8622 37.0416 56.3464 37.069 56.3464 37.069C56.3464 37.069 56.3182 32.587 56.3182 30.8685C56.3182 29.457 56.3024 24.6953 56.3024 24.6953C56.3024 24.6953 60.544 24.6953 62.6144 24.6953C66.1475 24.6953 69.1371 27.4592 69.1371 30.8685Z" stroke="#663366" stroke-width="4.10159" stroke-miterlimit="10" stroke-linecap="round" stroke-linejoin="round"/>
<path d="M114.897 24.6953V48.4484" stroke="#663366" stroke-width="4.10159" stroke-miterlimit="10" stroke-linecap="round" stroke-linejoin="round"/>
</g>
<defs>
<clipPath id="clip0_761_8734">
<rect width="140" height="140" fill="white" transform="translate(5 5)"/>
</clipPath>
</defs>
</svg>
