<svg width="150" height="150" viewBox="0 0 150 150" fill="none" xmlns="http://www.w3.org/2000/svg">
<g clip-path="url(#clip0_718_3292)">
<path d="M15.022 39.1641V47.4755H18.5054V60.5529H15.022V69.5534H18.5054V82.6305H15.022V96.0139" stroke="#663366" stroke-width="4" stroke-miterlimit="10" stroke-linecap="round" stroke-linejoin="round"/>
<path d="M134.972 39.3438V47.4747H131.489V60.5521H134.972V69.5526H131.489V82.6297H134.972V95.968" stroke="#663366" stroke-width="4" stroke-miterlimit="10" stroke-linecap="round" stroke-linejoin="round"/>
<path d="M131.489 69.5547H122.791V82.6318H131.489" stroke="#663366" stroke-width="4" stroke-miterlimit="10" stroke-linecap="round" stroke-linejoin="round"/>
<path d="M131.489 47.4766H122.791V60.554H131.489" stroke="#663366" stroke-width="4" stroke-miterlimit="10" stroke-linecap="round" stroke-linejoin="round"/>
<path d="M103.845 82.6318H112.045V69.5547H103.845" stroke="#663366" stroke-width="4" stroke-miterlimit="10" stroke-linecap="round" stroke-linejoin="round"/>
<path d="M103.845 60.554H112.045V47.4766H103.845" stroke="#663366" stroke-width="4" stroke-miterlimit="10" stroke-linecap="round" stroke-linejoin="round"/>
<path d="M96.6004 7.04688H107.788V15.6711H42.2039V7.04688H87.0301" stroke="#663366" stroke-width="4" stroke-miterlimit="10" stroke-linecap="round" stroke-linejoin="round"/>
<path d="M45.9264 38.75H10.2355V30.125H46.1673" stroke="#663366" stroke-width="4" stroke-miterlimit="10" stroke-linecap="round" stroke-linejoin="round"/>
<path d="M112.672 38.75H104.086" stroke="#663366" stroke-width="4" stroke-miterlimit="10" stroke-linecap="round" stroke-linejoin="round"/>
<path d="M103.845 30.125H139.758V38.7492H122.242" stroke="#663366" stroke-width="4" stroke-miterlimit="10" stroke-linecap="round" stroke-linejoin="round"/>
<path d="M103.348 16.2891V101.865" stroke="#663366" stroke-width="4" stroke-miterlimit="10" stroke-linecap="round" stroke-linejoin="round"/>
<path d="M46.6456 102.204V16.2891" stroke="#663366" stroke-width="4" stroke-miterlimit="10" stroke-linecap="round" stroke-linejoin="round"/>
<path d="M91.8153 42.8019V32.6874H81.1781C81.1781 29.1666 78.3239 26.3125 74.8031 26.3125C71.2824 26.3125 68.4282 29.1666 68.4282 32.6874H57.791V43.3247C61.3117 43.3247 64.1659 46.1788 64.1659 49.6996C64.1659 53.2204 61.3117 56.0745 57.791 56.0745V66.7118H68.4282C68.4282 70.2326 71.2824 73.0867 74.8031 73.0867C78.3239 73.0867 81.1781 70.2326 81.1781 66.7118H91.8153V55.552C88.2946 55.552 85.4404 52.6979 85.4404 49.1771C85.4404 45.656 88.2946 42.8019 91.8153 42.8019Z" stroke="#663366" stroke-width="4" stroke-miterlimit="10" stroke-linecap="round" stroke-linejoin="round"/>
<path d="M7.57581 107.823C10.0012 98.7641 18.2891 92.0703 28.1055 92.0703C36.0571 92.0703 43.0024 96.459 46.6473 102.939" stroke="#663366" stroke-width="4" stroke-miterlimit="10" stroke-linecap="round" stroke-linejoin="round"/>
<path d="M7.24762 117.391C9.15348 127.161 17.7832 134.557 28.1054 134.557C36.057 134.557 43.0023 130.171 46.6472 123.691" stroke="#663366" stroke-width="4" stroke-miterlimit="10" stroke-linecap="round" stroke-linejoin="round"/>
<path d="M24.0624 116.547V120.837C24.0624 121.522 23.6044 122.124 22.9433 122.306L19.1745 123.347C18.2675 123.598 17.4401 124.077 16.771 124.738C15.7248 125.772 15.1358 127.181 15.1358 128.651V130.029" stroke="#663366" stroke-width="4" stroke-miterlimit="10" stroke-linecap="round" stroke-linejoin="round"/>
<path d="M32.1496 116.547V120.837C32.1496 121.522 32.6076 122.124 33.2688 122.306L37.0376 123.347C37.9446 123.598 38.772 124.077 39.4411 124.738C40.4873 125.772 41.0762 127.181 41.0762 128.651V130.029" stroke="#663366" stroke-width="4" stroke-miterlimit="10" stroke-linecap="round" stroke-linejoin="round"/>
<path d="M32.8417 122.68C30.8256 126.474 25.3867 126.474 23.3706 122.68" stroke="#663366" stroke-width="4" stroke-miterlimit="10" stroke-linecap="round" stroke-linejoin="round"/>
<path d="M24.7463 116.844L25.6861 117.378C27.187 118.229 29.0253 118.229 30.5262 117.378L31.466 116.844C34.0445 115.381 35.6376 112.646 35.6376 109.682V107.59C35.6376 104.631 33.901 101.947 31.201 100.734C29.2326 99.8492 26.9797 99.8492 25.0112 100.734C22.3113 101.947 20.5747 104.631 20.5747 107.59V109.682C20.5747 112.646 22.1678 115.381 24.7463 116.844Z" stroke="#663366" stroke-width="4" stroke-miterlimit="10" stroke-linecap="round" stroke-linejoin="round"/>
<path d="M103.116 102.665C106.8 96.3348 113.661 92.0703 121.5 92.0703C133.218 92.0703 142.752 101.601 142.752 113.315C142.752 125.029 133.218 134.56 121.5 134.56C113.585 134.56 106.666 130.212 103.009 123.779" stroke="#663366" stroke-width="4" stroke-miterlimit="10" stroke-linecap="round" stroke-linejoin="round"/>
<path d="M117.457 116.547V120.837C117.457 121.522 116.999 122.124 116.337 122.306L112.569 123.347C111.662 123.598 110.834 124.077 110.165 124.738C109.119 125.772 108.53 127.181 108.53 128.651V130.029" stroke="#663366" stroke-width="4" stroke-miterlimit="10" stroke-linecap="round" stroke-linejoin="round"/>
<path d="M125.544 116.547V120.837C125.544 121.522 126.002 122.124 126.663 122.306L130.432 123.347C131.339 123.598 132.166 124.077 132.835 124.738C133.881 125.772 134.47 127.181 134.47 128.651V130.029" stroke="#663366" stroke-width="4" stroke-miterlimit="10" stroke-linecap="round" stroke-linejoin="round"/>
<path d="M126.236 122.68C124.22 126.474 118.781 126.474 116.765 122.68" stroke="#663366" stroke-width="4" stroke-miterlimit="10" stroke-linecap="round" stroke-linejoin="round"/>
<path d="M118.14 116.844L119.08 117.378C120.581 118.229 122.42 118.229 123.92 117.378L124.86 116.844C127.439 115.381 129.032 112.646 129.032 109.682V107.59C129.032 104.631 127.295 101.947 124.595 100.734C122.627 99.8492 120.374 99.8492 118.405 100.734C115.706 101.947 113.969 104.631 113.969 107.59V109.682C113.969 112.646 115.562 115.381 118.14 116.844Z" stroke="#663366" stroke-width="4" stroke-miterlimit="10" stroke-linecap="round" stroke-linejoin="round"/>
<path d="M62.4164 86.4027C66.1871 84.6582 70.3844 83.6875 74.8032 83.6875C91.1492 83.6875 104.447 96.9793 104.447 113.32C104.447 129.658 91.1492 142.952 74.8032 142.952C58.4571 142.952 45.1598 129.658 45.1598 113.32C45.1598 104.841 48.7391 97.1816 54.4703 91.7785" stroke="#663366" stroke-width="4" stroke-miterlimit="10" stroke-linecap="round" stroke-linejoin="round"/>
<path d="M69.1629 117.82V123.804C69.1629 124.76 68.5242 125.599 67.6019 125.854L62.345 127.306C61.0801 127.656 59.9257 128.323 58.9924 129.245C57.5331 130.687 56.7117 132.653 56.7117 134.704V136.625" stroke="#663366" stroke-width="4" stroke-miterlimit="10" stroke-linecap="round" stroke-linejoin="round"/>
<path d="M80.4433 117.82V123.804C80.4433 124.76 81.082 125.599 82.0043 125.854L87.2612 127.306C88.5261 127.656 89.6806 128.323 90.6138 129.245C92.0731 130.687 92.8945 132.653 92.8945 134.704V136.625" stroke="#663366" stroke-width="4" stroke-miterlimit="10" stroke-linecap="round" stroke-linejoin="round"/>
<path d="M81.4086 126.375C78.5966 131.668 71.01 131.668 68.198 126.375" stroke="#663366" stroke-width="4" stroke-miterlimit="10" stroke-linecap="round" stroke-linejoin="round"/>
<path d="M70.1167 118.233L71.4275 118.977C73.521 120.165 76.085 120.165 78.1784 118.977L79.4893 118.233C83.0858 116.192 85.3078 112.377 85.3078 108.243V105.325C85.3078 101.197 82.8856 97.4538 79.1199 95.7615C76.3743 94.5274 73.2319 94.5274 70.4863 95.7615C66.7206 97.454 64.2985 101.197 64.2985 105.325V108.243C64.2985 112.377 66.5204 116.192 70.1167 118.233Z" stroke="#663366" stroke-width="4" stroke-miterlimit="10" stroke-linecap="round" stroke-linejoin="round"/>
<path d="M18.5054 69.5547H27.2023V82.6318H18.5054" stroke="#663366" stroke-width="4" stroke-miterlimit="10" stroke-linecap="round" stroke-linejoin="round"/>
<path d="M18.5054 47.4766H27.2023V60.554H18.5054" stroke="#663366" stroke-width="4" stroke-miterlimit="10" stroke-linecap="round" stroke-linejoin="round"/>
<path d="M45.746 82.6318H37.9484V69.5547H45.746" stroke="#663366" stroke-width="4" stroke-miterlimit="10" stroke-linecap="round" stroke-linejoin="round"/>
<path d="M45.746 60.554H37.9484V47.4766H46.1673" stroke="#663366" stroke-width="4" stroke-miterlimit="10" stroke-linecap="round" stroke-linejoin="round"/>
</g>
<defs>
<clipPath id="clip0_718_3292">
<rect width="140" height="140" fill="white" transform="translate(5 5)"/>
</clipPath>
</defs>
</svg>
