<svg width="150" height="150" viewBox="0 0 150 150" fill="none" xmlns="http://www.w3.org/2000/svg">
<g clip-path="url(#clip0_768_11719)">
<path d="M55.8079 94.2617C55.57 93.5574 55.4412 92.8028 55.4412 92.0181V85.9007C55.4412 82.0292 58.5798 78.8906 62.4513 78.8906H87.5487C91.4202 78.8906 94.5587 82.0292 94.5587 85.9007V92.0181C94.5587 92.7582 94.4442 93.4716 94.2315 94.1412" stroke="#663366" stroke-width="4.10123" stroke-miterlimit="10" stroke-linecap="round" stroke-linejoin="round"/>
<path d="M134.973 77.7292V131.206C134.973 137.692 129.715 142.95 123.229 142.95H26.7619C20.2757 142.95 15.0179 137.692 15.0179 131.206V77.2734" stroke="#663366" stroke-width="4.10123" stroke-miterlimit="10" stroke-linecap="round" stroke-linejoin="round"/>
<path d="M126.012 39.8567H23.9884C17.9749 39.8567 13.0545 34.9366 13.0545 28.9228V17.9807C13.0545 11.9673 17.9746 7.04688 23.9884 7.04688H126.012C132.025 7.04688 136.946 11.967 136.946 17.9807V28.9228C136.945 34.9366 132.025 39.8567 126.012 39.8567Z" stroke="#663366" stroke-width="4.10123" stroke-miterlimit="10" stroke-linecap="round" stroke-linejoin="round"/>
<path d="M40.0895 77.3357H15.9117C11.0209 77.3357 7.05636 73.3709 7.05636 68.4804C7.05636 63.5895 11.0212 59.625 15.9117 59.625H33.2542" stroke="#663366" stroke-width="4.10123" stroke-miterlimit="10" stroke-linecap="round" stroke-linejoin="round"/>
<path d="M117.011 59.625H134.088C138.979 59.625 142.944 63.5898 142.944 68.4804C142.944 73.3712 138.979 77.3357 134.088 77.3357H109.902" stroke="#663366" stroke-width="4.10123" stroke-miterlimit="10" stroke-linecap="round" stroke-linejoin="round"/>
<path d="M97.6103 49.8203H107.674C112.565 49.8203 116.529 53.7851 116.529 58.6757C116.529 63.5665 112.564 67.531 107.674 67.531H42.3264C37.4355 67.531 33.471 63.5663 33.471 58.6757C33.471 53.7848 37.4358 49.8203 42.3264 49.8203H89.4082" stroke="#663366" stroke-width="4.10123" stroke-miterlimit="10" stroke-linecap="round" stroke-linejoin="round"/>
<path d="M30.8342 120.168V105.804C30.8342 99.7119 35.7726 94.7734 41.8646 94.7734H108.127C114.219 94.7734 119.158 99.7119 119.158 105.804V142.405" stroke="#663366" stroke-width="4.10123" stroke-miterlimit="10" stroke-linecap="round" stroke-linejoin="round"/>
<path d="M30.8342 142.402V128.453" stroke="#663366" stroke-width="4.10123" stroke-miterlimit="10" stroke-linecap="round" stroke-linejoin="round"/>
<path d="M42.3162 142.404V117.629C42.3162 112.825 46.2113 108.93 51.016 108.93H60.3586C65.1633 108.93 69.0584 112.825 69.0584 117.629V142.404" stroke="#663366" stroke-width="4.10123" stroke-miterlimit="10" stroke-linecap="round" stroke-linejoin="round"/>
<path d="M80.9328 142.404V117.629C80.9328 112.825 84.8279 108.93 89.6326 108.93H98.9752C103.78 108.93 107.675 112.825 107.675 117.629V142.404" stroke="#663366" stroke-width="4.10123" stroke-miterlimit="10" stroke-linecap="round" stroke-linejoin="round"/>
<path d="M37.0177 28.2414V18.7919L43.4063 28.0432C43.5247 28.2143 43.6516 28.1304 43.6516 27.9223V18.6719" stroke="#663366" stroke-width="4.10123" stroke-miterlimit="10" stroke-linecap="round" stroke-linejoin="round"/>
<path d="M50.432 18.6719V28.1391" stroke="#663366" stroke-width="4.10123" stroke-miterlimit="10" stroke-linecap="round" stroke-linejoin="round"/>
<path d="M102.824 18.6719V28.1391" stroke="#663366" stroke-width="4.10123" stroke-miterlimit="10" stroke-linecap="round" stroke-linejoin="round"/>
<path d="M73.3494 18.7109H69.3966V28.0918H73.3494" stroke="#663366" stroke-width="4.10123" stroke-miterlimit="10" stroke-linecap="round" stroke-linejoin="round"/>
<path d="M73.0579 23.4062H69.3966" stroke="#663366" stroke-width="4.10123" stroke-miterlimit="10" stroke-linecap="round" stroke-linejoin="round"/>
<path d="M96.2703 19.6452C96.2703 19.6452 94.5716 18.2171 92.5683 18.8206C90.7287 19.3748 90.4715 21.4957 91.8024 22.3632C91.8024 22.3632 93.1083 22.9459 94.5566 23.4801C98.0429 24.766 96.5413 28.1391 93.7344 28.1391C92.3288 28.1391 91.1493 27.5236 90.4354 26.7357" stroke="#663366" stroke-width="4.10123" stroke-miterlimit="10" stroke-linecap="round" stroke-linejoin="round"/>
<path d="M119.976 18.6719L123 23.303L126 18.6959" stroke="#663366" stroke-width="4.10123" stroke-miterlimit="10" stroke-linecap="round" stroke-linejoin="round"/>
<path d="M122.988 28.1409L123 23.3047" stroke="#663366" stroke-width="4.10123" stroke-miterlimit="10" stroke-linecap="round" stroke-linejoin="round"/>
<path d="M56.5743 18.6719L59.8112 27.997C59.8791 28.1878 60.1497 28.1859 60.2148 27.9942L63.306 18.6894" stroke="#663366" stroke-width="4.10123" stroke-miterlimit="10" stroke-linecap="round" stroke-linejoin="round"/>
<path d="M23.992 18.7734V25.2878C23.992 26.3973 24.5423 27.144 25.4771 27.7415C25.9324 28.0324 26.5074 28.2396 27.2221 28.2404C27.8411 28.2413 28.3581 28.098 28.786 27.8825C29.8756 27.3338 30.5703 26.5007 30.5703 25.2807V18.7734" stroke="#663366" stroke-width="4.10123" stroke-miterlimit="10" stroke-linecap="round" stroke-linejoin="round"/>
<path d="M108.7 18.6719H113.928" stroke="#663366" stroke-width="4.10123" stroke-miterlimit="10" stroke-linecap="round" stroke-linejoin="round"/>
<path d="M111.304 18.9766V28.1414" stroke="#663366" stroke-width="4.10123" stroke-miterlimit="10" stroke-linecap="round" stroke-linejoin="round"/>
<path d="M80.911 23.625L84.8878 28.1435" stroke="#663366" stroke-width="4.10123" stroke-miterlimit="10" stroke-linecap="round" stroke-linejoin="round"/>
<path d="M79.7692 18.6719V28.1391" stroke="#663366" stroke-width="4.10123" stroke-miterlimit="10" stroke-linecap="round" stroke-linejoin="round"/>
<path d="M84.8878 21.1323C84.8878 22.4912 83.6962 23.5928 82.2882 23.5928C81.5899 23.5928 79.79 23.6037 79.79 23.6037C79.79 23.6037 79.7787 21.8175 79.7787 21.1323C79.7787 20.5696 79.7725 18.6719 79.7725 18.6719C79.7725 18.6719 81.463 18.6719 82.2882 18.6719C83.6962 18.6719 84.8878 19.7735 84.8878 21.1323Z" stroke="#663366" stroke-width="4.10123" stroke-miterlimit="10" stroke-linecap="round" stroke-linejoin="round"/>
<path d="M40.6708 68.4844V94.7727" stroke="#663366" stroke-width="4.10123" stroke-miterlimit="10" stroke-linecap="round" stroke-linejoin="round"/>
<path d="M109.329 68.4844V94.2259" stroke="#663366" stroke-width="4.10123" stroke-miterlimit="10" stroke-linecap="round" stroke-linejoin="round"/>
<path d="M22.8685 40.3594V58.6735" stroke="#663366" stroke-width="4.10123" stroke-miterlimit="10" stroke-linecap="round" stroke-linejoin="round"/>
<path d="M38.5663 41V49.8206" stroke="#663366" stroke-width="4.10123" stroke-miterlimit="10" stroke-linecap="round" stroke-linejoin="round"/>
<path d="M111.434 40.5469V49.8233" stroke="#663366" stroke-width="4.10123" stroke-miterlimit="10" stroke-linecap="round" stroke-linejoin="round"/>
<path d="M127.132 40.1797V59.6277" stroke="#663366" stroke-width="4.10123" stroke-miterlimit="10" stroke-linecap="round" stroke-linejoin="round"/>
<path d="M75 79.1875V94.2622" stroke="#663366" stroke-width="4.10123" stroke-miterlimit="10" stroke-linecap="round" stroke-linejoin="round"/>
<path d="M55.6873 109.484V141.957" stroke="#663366" stroke-width="4.10123" stroke-miterlimit="10" stroke-linecap="round" stroke-linejoin="round"/>
<path d="M94.3042 109.484V141.957" stroke="#663366" stroke-width="4.10123" stroke-miterlimit="10" stroke-linecap="round" stroke-linejoin="round"/>
</g>
<defs>
<clipPath id="clip0_768_11719">
<rect width="140" height="140" fill="white" transform="translate(5 5)"/>
</clipPath>
</defs>
</svg>
