<svg width="150" height="150" viewBox="0 0 150 150" fill="none" xmlns="http://www.w3.org/2000/svg">
<g clip-path="url(#clip0_768_11815)">
<path d="M98.7672 30.4754V8.13281" stroke="#663366" stroke-width="4.10156" stroke-miterlimit="10" stroke-linecap="round" stroke-linejoin="round"/>
<path d="M98.7672 8.13281V25.0963L114.061 18.6131C115.825 17.865 115.825 15.3644 114.061 14.6163L98.7672 8.13281Z" stroke="#663366" stroke-width="4.10156" stroke-miterlimit="10" stroke-linecap="round" stroke-linejoin="round"/>
<path d="M62.6762 54.6484H41.1536" stroke="#663366" stroke-width="4.10156" stroke-miterlimit="10" stroke-linecap="round" stroke-linejoin="round"/>
<path d="M23.8809 8.96088C32.6527 4.82651 43.3824 7.5226 49.0699 15.7667C49.5594 16.4777 49.9969 17.2078 50.3824 17.9542C50.6996 18.5667 51.4488 18.8046 52.0695 18.4984C57.3742 15.8843 63.9312 17.4812 67.3902 22.4933C69.873 26.0917 70.1437 30.557 68.4977 34.2812C67.9891 35.4296 68.7984 36.723 70.0535 36.723H77.841C79.5418 36.723 81.1305 37.196 82.484 38.0218" stroke="#663366" stroke-width="4.10156" stroke-miterlimit="10" stroke-linecap="round" stroke-linejoin="round"/>
<path d="M16.4734 14.9219C12.2133 20.4562 11.0949 27.8992 13.6324 34.4754C14.0836 35.643 13.5449 36.9855 12.3992 37.4887C9.24922 38.8777 7.05078 42.0277 7.05078 45.6891C7.05078 50.6383 11.0621 54.6496 16.0113 54.6496H32.6771" stroke="#663366" stroke-width="4.10156" stroke-miterlimit="10" stroke-linecap="round" stroke-linejoin="round"/>
<path d="M65.55 122.418V83.8359" stroke="#663366" stroke-width="4.10156" stroke-miterlimit="10" stroke-linecap="round" stroke-linejoin="round"/>
<path d="M75.2734 122.418V83.8359" stroke="#663366" stroke-width="4.10156" stroke-miterlimit="10" stroke-linecap="round" stroke-linejoin="round"/>
<path d="M122.261 122.418V83.8359" stroke="#663366" stroke-width="4.10156" stroke-miterlimit="10" stroke-linecap="round" stroke-linejoin="round"/>
<path d="M131.984 122.418V83.8359" stroke="#663366" stroke-width="4.10156" stroke-miterlimit="10" stroke-linecap="round" stroke-linejoin="round"/>
<path d="M137.882 74.3128V81.9266C137.882 82.9838 137.025 83.8407 135.968 83.8407H118.277C117.22 83.8407 116.363 82.9838 116.363 81.9266V74.3125" stroke="#663366" stroke-width="4.10156" stroke-miterlimit="10" stroke-linecap="round" stroke-linejoin="round"/>
<path d="M116.364 131.95V124.336C116.364 123.279 117.221 122.422 118.278 122.422H135.968C137.025 122.422 137.882 123.279 137.882 124.336V131.95" stroke="#663366" stroke-width="4.10156" stroke-miterlimit="10" stroke-linecap="round" stroke-linejoin="round"/>
<path d="M81.1709 74.3128V81.9266C81.1709 82.9838 80.314 83.8407 79.2569 83.8407H61.5668C60.5097 83.8407 59.6528 82.9838 59.6528 81.9266V74.3125" stroke="#663366" stroke-width="4.10156" stroke-miterlimit="10" stroke-linecap="round" stroke-linejoin="round"/>
<path d="M59.6528 131.95V124.336C59.6528 123.279 60.5097 122.422 61.5668 122.422H79.2569C80.314 122.422 81.1709 123.279 81.1709 124.336V131.95" stroke="#663366" stroke-width="4.10156" stroke-miterlimit="10" stroke-linecap="round" stroke-linejoin="round"/>
<path d="M138.963 63.3109V59.3625C138.963 58.5531 138.607 57.7875 137.986 57.268L107.583 31.7563C106.598 30.9305 105.354 30.4766 104.069 30.4766H93.4653C92.1801 30.4766 90.936 30.9305 89.9516 31.7563L59.5481 57.268C58.9274 57.7875 58.5719 58.5531 58.5719 59.3625V63.3109" stroke="#663366" stroke-width="4.10156" stroke-miterlimit="10" stroke-linecap="round" stroke-linejoin="round"/>
<path d="M127.321 142.952H141.309C142.215 142.952 142.949 142.217 142.949 141.311V133.594C142.949 132.688 142.215 131.953 141.309 131.953H56.2261C55.3199 131.953 54.5854 132.688 54.5854 133.594V141.311C54.5854 142.217 55.3199 142.952 56.2261 142.952H117.751" stroke="#663366" stroke-width="4.10156" stroke-miterlimit="10" stroke-linecap="round" stroke-linejoin="round"/>
<path d="M54.5854 64.9534V72.6706C54.5854 73.5768 55.3199 74.3112 56.2261 74.3112H141.309C142.215 74.3112 142.949 73.5768 142.949 72.6706V64.9531C142.949 64.047 142.215 63.3125 141.309 63.3125H56.2261C55.3199 63.3128 54.5854 64.0472 54.5854 64.9534Z" stroke="#663366" stroke-width="4.10156" stroke-miterlimit="10" stroke-linecap="round" stroke-linejoin="round"/>
<path d="M36.9151 50.4062C34.5744 50.4062 32.6771 52.3039 32.6771 54.6445C32.6771 56.9854 34.5742 58.8828 36.9151 58.8828C39.256 58.8828 41.1536 56.9854 41.1536 54.6445C41.1536 52.3039 39.2557 50.4062 36.9151 50.4062Z" stroke="#663366" stroke-width="4.10156" stroke-miterlimit="10" stroke-linecap="round" stroke-linejoin="round"/>
<path d="M21.2422 33.8546C24.6383 28.8195 30.3966 25.5 36.9151 25.5C43.4336 25.5 49.1916 28.8195 52.588 33.8546" stroke="#663366" stroke-width="4.10156" stroke-miterlimit="10" stroke-linecap="round" stroke-linejoin="round"/>
<path d="M26.6606 39.4968C28.7245 35.9779 32.548 33.6094 36.9148 33.6094C41.2816 33.6094 45.1051 35.9779 47.169 39.4968" stroke="#663366" stroke-width="4.10156" stroke-miterlimit="10" stroke-linecap="round" stroke-linejoin="round"/>
<path d="M32.912 43.2676C33.7883 41.9967 35.2542 41.1641 36.9151 41.1641C38.5759 41.1641 40.0418 41.9967 40.9182 43.2676" stroke="#663366" stroke-width="4.10156" stroke-miterlimit="10" stroke-linecap="round" stroke-linejoin="round"/>
<path d="M36.9151 67.7734V68.0469" stroke="#663366" stroke-width="4.10156" stroke-linecap="round" stroke-linejoin="round"/>
<path d="M36.9151 75.9219V105.605" stroke="#663366" stroke-width="4.10156" stroke-linecap="round" stroke-linejoin="round" stroke-dasharray="0.53 7.88"/>
<path d="M36.9151 109.547V109.82H37.1885" stroke="#663366" stroke-width="4.10156" stroke-linecap="round" stroke-linejoin="round"/>
<path d="M43.9567 109.82H47.7922" stroke="#663366" stroke-width="4.10156" stroke-linecap="round" stroke-linejoin="round" stroke-dasharray="0.45 6.77"/>
<path d="M51.1762 109.82H51.4496" stroke="#663366" stroke-width="4.10156" stroke-linecap="round" stroke-linejoin="round"/>
<path d="M107.905 131.948V108.138C107.905 103.091 103.814 99 98.7672 99C93.7206 99 89.6295 103.091 89.6295 108.138V131.948" stroke="#663366" stroke-width="4.10156" stroke-miterlimit="10" stroke-linecap="round" stroke-linejoin="round"/>
<path d="M98.7672 54.9531C101.788 54.9531 104.236 52.5047 104.236 49.4844C104.236 46.4641 101.788 44.0156 98.7672 44.0156C95.7469 44.0156 93.2985 46.4641 93.2985 49.4844C93.2985 52.5047 95.7469 54.9531 98.7672 54.9531Z" stroke="#663366" stroke-width="4.10156" stroke-miterlimit="10" stroke-linecap="round" stroke-linejoin="round"/>
</g>
<defs>
<clipPath id="clip0_768_11815">
<rect width="140" height="140" fill="white" transform="translate(5 5)"/>
</clipPath>
</defs>
</svg>
