<svg width="150" height="150" viewBox="0 0 150 150" fill="none" xmlns="http://www.w3.org/2000/svg">
<path d="M14.7579 94.6719V101.778" stroke="#663366" stroke-width="4.1018" stroke-miterlimit="10" stroke-linecap="round" stroke-linejoin="round"/>
<path d="M18.3114 98.2188H11.2047" stroke="#663366" stroke-width="4.1018" stroke-miterlimit="10" stroke-linecap="round" stroke-linejoin="round"/>
<path d="M36.6222 57.7969V64.9034" stroke="#663366" stroke-width="4.1018" stroke-miterlimit="10" stroke-linecap="round" stroke-linejoin="round"/>
<path d="M40.1755 61.3516H33.0687" stroke="#663366" stroke-width="4.1018" stroke-miterlimit="10" stroke-linecap="round" stroke-linejoin="round"/>
<circle cx="102.25" cy="104.988" r="2.0509" fill="#663366"/>
<path d="M33.4963 132.664H72.1758V142.948H13.8126C11.757 142.948 10.0909 141.282 10.0909 139.226V136.386C10.0909 134.33 11.7573 132.664 13.8126 132.664H23.8872" stroke="#663366" stroke-width="4.1018" stroke-miterlimit="10" stroke-linecap="round" stroke-linejoin="round"/>
<path d="M130.539 142.948H72.1755V132.664H130.539C132.594 132.664 134.26 134.33 134.26 136.386V139.226C134.261 141.282 132.594 142.948 130.539 142.948Z" stroke="#663366" stroke-width="4.1018" stroke-miterlimit="10" stroke-linecap="round" stroke-linejoin="round"/>
<path d="M72.1758 132.666C72.1758 132.666 55.4043 121.694 22.9416 121.025C20.4335 120.973 18.221 122.662 17.6194 125.098L15.7498 132.665" stroke="#663366" stroke-width="4.1018" stroke-miterlimit="10" stroke-linecap="round" stroke-linejoin="round"/>
<path d="M22.2995 113.431C22.2995 113.431 54.812 111.348 72.1758 132.666" stroke="#663366" stroke-width="4.1018" stroke-miterlimit="10" stroke-linecap="round" stroke-linejoin="round"/>
<path d="M72.1758 132.666C72.1758 132.666 88.9472 121.694 121.41 121.025C123.918 120.973 126.131 122.662 126.732 125.098L128.602 132.665H72.1758V132.666Z" stroke="#663366" stroke-width="4.1018" stroke-miterlimit="10" stroke-linecap="round" stroke-linejoin="round"/>
<path d="M121.778 113.431C121.778 113.431 89.5395 111.348 72.1758 132.666" stroke="#663366" stroke-width="4.1018" stroke-miterlimit="10" stroke-linecap="round" stroke-linejoin="round"/>
<path d="M84.4071 90.118H59.9445C56.6264 90.118 53.9365 87.428 53.9365 84.11V38.2578H90.4152V84.11C90.4152 87.428 87.7252 90.118 84.4071 90.118Z" stroke="#663366" stroke-width="4.1018" stroke-miterlimit="10" stroke-linecap="round" stroke-linejoin="round"/>
<path d="M134.179 41.8516C134.914 39.7214 135.894 37.6702 137.095 35.7364C138.879 32.8629 139.909 29.4729 139.909 25.8417C139.909 15.3767 131.353 6.91026 120.854 7.05656C110.515 7.20067 102.174 15.8071 102.338 26.1458C102.394 29.6958 103.436 33.0062 105.2 35.8162C108.088 40.4146 109.642 45.7237 109.642 51.1534V51.4126H132.604" stroke="#663366" stroke-width="4.1018" stroke-miterlimit="10" stroke-linecap="round" stroke-linejoin="round"/>
<path d="M132.603 51.4062H109.641V58.8201C109.641 60.7912 111.239 62.389 113.21 62.389H129.034C131.005 62.389 132.603 60.7912 132.603 58.8201V51.4062Z" stroke="#663366" stroke-width="4.1018" stroke-miterlimit="10" stroke-linecap="round" stroke-linejoin="round"/>
<path d="M114.238 31.4198L116.971 33.4644L121.131 30.2891L125.354 33.4644L128.128 31.4198" stroke="#663366" stroke-width="4.1018" stroke-miterlimit="10" stroke-linecap="round" stroke-linejoin="round"/>
<path d="M83.0311 23.4797L72.1758 17.2188L61.3205 23.4797C56.7514 26.115 53.9365 30.9885 53.9365 36.2631V38.2588H90.4152V36.2631C90.4152 30.9885 87.6 26.115 83.0311 23.4797Z" stroke="#663366" stroke-width="4.1018" stroke-miterlimit="10" stroke-linecap="round" stroke-linejoin="round"/>
<path d="M84.4071 90.1172H59.9445L57.2531 96.8351C56.5747 98.5283 57.8216 100.371 59.6456 100.371H84.8845C86.7336 100.371 87.9811 98.4813 87.2545 96.781L84.4071 90.1172Z" stroke="#663366" stroke-width="4.1018" stroke-miterlimit="10" stroke-linecap="round" stroke-linejoin="round"/>
<path d="M84.3631 100.375H60.2622C57.8485 106.221 59.7862 113.924 59.7862 113.924L65.5407 111.33L72.3125 121.574L79.0843 111.33L84.8389 113.924C84.8389 113.924 86.7769 106.221 84.3631 100.375Z" stroke="#663366" stroke-width="4.1018" stroke-miterlimit="10" stroke-linecap="round" stroke-linejoin="round"/>
<path d="M53.9364 70.9609L35.0449 85.5614C32.8597 87.2503 32.4217 90.374 34.0575 92.5988C35.2429 94.2111 37.2634 94.9781 39.2203 94.5592L59.9445 90.1207" stroke="#663366" stroke-width="4.1018" stroke-miterlimit="10" stroke-linecap="round" stroke-linejoin="round"/>
<path d="M90.4173 70.9609L109.309 85.5614C111.494 87.2503 111.932 90.374 110.296 92.5988C109.111 94.2111 107.09 94.9781 105.134 94.5592L84.4093 90.1207" stroke="#663366" stroke-width="4.1018" stroke-miterlimit="10" stroke-linecap="round" stroke-linejoin="round"/>
<path d="M72.3128 64.9031C76.7777 64.9031 80.3972 61.2836 80.3972 56.8188C80.3972 52.3539 76.7777 48.7344 72.3128 48.7344C67.8479 48.7344 64.2284 52.3539 64.2284 56.8188C64.2284 61.2836 67.8479 64.9031 72.3128 64.9031Z" stroke="#663366" stroke-width="4.1018" stroke-miterlimit="10" stroke-linecap="round" stroke-linejoin="round"/>
<path d="M72.1758 73.6094V77.3406" stroke="#663366" stroke-width="4.1018" stroke-miterlimit="10" stroke-linecap="round" stroke-linejoin="round"/>
</svg>
