<svg width="150" height="150" viewBox="0 0 150 150" fill="none" xmlns="http://www.w3.org/2000/svg">
<g clip-path="url(#clip0_768_11789)">
<path d="M91.4384 20.7533C88.6989 20.7533 88.6989 19.1095 85.9595 19.1095C83.2197 19.1095 83.2197 20.7533 80.4797 20.7533C77.7397 20.7533 77.74 19.1095 75 19.1095V7.05469C77.7395 7.05469 77.7394 8.69852 80.4789 8.69852C83.2186 8.69852 83.2186 7.05469 85.9586 7.05469C88.6986 7.05469 88.6984 8.69852 91.4384 8.69852V20.7533Z" stroke="#663366" stroke-width="4.10959" stroke-miterlimit="10"/>
<path d="M75 18.5625V30.0693" stroke="#663366" stroke-width="4.10959" stroke-miterlimit="10"/>
<path d="M110.616 38.2895H39.3836C37.114 38.2895 35.274 36.4495 35.274 34.1799C35.274 31.9103 37.114 30.0703 39.3836 30.0703H110.616C112.886 30.0703 114.726 31.9103 114.726 34.1799C114.726 36.4495 112.886 38.2895 110.616 38.2895Z" stroke="#663366" stroke-width="4.10959" stroke-miterlimit="10" stroke-dasharray="52.05 4.11 82.19 4.11"/>
<path d="M142.945 142.946H7.05481V131.987C7.05481 128.961 9.50796 126.508 12.5343 126.508H137.466C140.492 126.508 142.945 128.961 142.945 131.987V142.946Z" stroke="#663366" stroke-width="4.10959" stroke-miterlimit="10"/>
<path d="M38.0137 142.946V134.727H111.986V142.946" stroke="#663366" stroke-width="4.10959" stroke-miterlimit="10" stroke-dasharray="52.05 4.11"/>
<path d="M103.767 126.508V134.727" stroke="#663366" stroke-width="4.10959" stroke-miterlimit="10"/>
<path d="M46.2329 134.727V126.508" stroke="#663366" stroke-width="4.10959" stroke-miterlimit="10"/>
<path d="M92.8082 96.3672V126.504" stroke="#663366" stroke-width="4.10959" stroke-miterlimit="10"/>
<path d="M57.1918 126.504V96.3672" stroke="#663366" stroke-width="4.10959" stroke-miterlimit="10"/>
<path d="M94.1781 96.3676H55.8219C53.5523 96.3676 51.7123 94.5276 51.7123 92.258C51.7123 89.9884 53.5523 88.1484 55.8219 88.1484H94.1781C96.4477 88.1484 98.2877 89.9884 98.2877 92.258C98.2877 94.5276 96.4477 96.3676 94.1781 96.3676Z" stroke="#663366" stroke-width="4.10959" stroke-miterlimit="10"/>
<path d="M75 126.504V96.3672" stroke="#663366" stroke-width="4.10959" stroke-miterlimit="10"/>
<path d="M107.877 38.2891V126.508" stroke="#663366" stroke-width="4.10959" stroke-miterlimit="10"/>
<path d="M42.1233 126.508V38.2891" stroke="#663366" stroke-width="4.10959" stroke-miterlimit="10"/>
<path d="M11.9863 55.2734V126.506" stroke="#663366" stroke-width="4.10959" stroke-miterlimit="10" stroke-dasharray="52.05 4.11"/>
<path d="M33.9041 85.4125V66.2344H20.2055L20.2055 85.4125H33.9041Z" stroke="#663366" stroke-width="4.10959" stroke-miterlimit="10"/>
<path d="M33.9041 115.545V96.3672H20.2055L20.2055 115.545H33.9041Z" stroke="#663366" stroke-width="4.10959" stroke-miterlimit="10"/>
<path d="M42.1233 55.2739H11.1644C8.89481 55.2739 7.05481 53.4339 7.05481 51.1643C7.05481 48.8947 8.89481 47.0547 11.1644 47.0547H42.1233" stroke="#663366" stroke-width="4.10959" stroke-miterlimit="10"/>
<path d="M138.014 126.506V55.2734" stroke="#663366" stroke-width="4.10959" stroke-miterlimit="10" stroke-dasharray="52.05 4.11"/>
<path d="M129.794 85.4125L129.794 66.2344L116.096 66.2344L116.096 85.4125L129.794 85.4125Z" stroke="#663366" stroke-width="4.10959" stroke-miterlimit="10"/>
<path d="M129.794 115.545L129.794 96.3672L116.096 96.3672L116.096 115.545L129.794 115.545Z" stroke="#663366" stroke-width="4.10959" stroke-miterlimit="10"/>
<path d="M107.877 55.2739H138.836C141.105 55.2739 142.945 53.4339 142.945 51.1643C142.945 48.8947 141.105 47.0547 138.836 47.0547H107.877" stroke="#663366" stroke-width="4.10959" stroke-miterlimit="10"/>
<path d="M75 76.6448C83.3221 76.6448 90.0685 69.8984 90.0685 61.5763C90.0685 53.2542 83.3221 46.5078 75 46.5078C66.6779 46.5078 59.9315 53.2542 59.9315 61.5763C59.9315 69.8984 66.6779 76.6448 75 76.6448Z" stroke="#663366" stroke-width="4.10959" stroke-miterlimit="10"/>
<path d="M75 53.3594V61.5786L80.7534 66.5101" stroke="#663366" stroke-width="4.10959" stroke-miterlimit="10"/>
<path d="M17.4658 134.727H13.3562" stroke="#663366" stroke-width="4.10959" stroke-miterlimit="10"/>
<path d="M132.534 134.727H136.644" stroke="#663366" stroke-width="4.10959" stroke-miterlimit="10"/>
<path d="M99.6575 44.3125V48.4221" stroke="#663366" stroke-width="4.10959" stroke-miterlimit="10"/>
<path d="M99.6575 52.5391V56.6487" stroke="#663366" stroke-width="4.10959" stroke-miterlimit="10"/>
</g>
<defs>
<clipPath id="clip0_768_11789">
<rect width="140" height="140" fill="white" transform="translate(5 5)"/>
</clipPath>
</defs>
</svg>
