<svg width="150" height="150" viewBox="0 0 150 150" fill="none" xmlns="http://www.w3.org/2000/svg">
<g clip-path="url(#clip0_768_11947)">
<path d="M116.923 49.1762C107.398 47.039 100.283 38.5354 100.283 28.3704C100.283 16.5937 109.834 7.04688 121.616 7.04688C133.398 7.04688 142.949 16.5934 142.949 28.3701C142.949 38.4695 135.925 46.9288 126.493 49.1338" stroke="#663366" stroke-width="4.10156" stroke-miterlimit="10" stroke-linecap="round" stroke-linejoin="round"/>
<path d="M116.73 35.393C116.491 33.4098 115.752 31.5116 114.551 29.9065C113.016 28.215 112.081 25.9695 112.081 23.507C112.081 18.2436 116.35 13.9766 121.616 13.9766C126.882 13.9766 131.151 18.2433 131.151 23.507C131.151 25.9463 130.233 28.1723 128.725 29.8581C127.508 31.4924 126.73 33.4037 126.493 35.413" stroke="#663366" stroke-width="4.10156" stroke-miterlimit="10" stroke-linecap="round" stroke-linejoin="round"/>
<path d="M121.616 35.4106V27.3125" stroke="#663366" stroke-width="4.10156" stroke-miterlimit="10" stroke-linecap="round" stroke-linejoin="round"/>
<path d="M127.571 35.6328V38.423C127.571 40.8289 125.62 42.7791 123.213 42.7791H120.018C117.611 42.7791 115.66 40.8287 115.66 38.423V35.6328H127.571Z" stroke="#663366" stroke-width="4.10156" stroke-miterlimit="10" stroke-linecap="round" stroke-linejoin="round"/>
<path d="M79.7878 42.4141C80.7096 42.5666 81.6152 42.7649 82.4946 43.0085C96.7648 46.8651 104.391 61.6632 100.637 75.1631" stroke="#663366" stroke-width="4.10156" stroke-miterlimit="10" stroke-linecap="round" stroke-linejoin="round"/>
<path d="M49.4842 75.1666C45.7294 61.6667 53.3563 46.8688 67.6262 43.0123C68.4679 42.779 69.3336 42.5873 70.2143 42.4375" stroke="#663366" stroke-width="4.10156" stroke-miterlimit="10" stroke-linecap="round" stroke-linejoin="round"/>
<path d="M83.4568 111.267V101.141" stroke="#663366" stroke-width="4.10156" stroke-miterlimit="10" stroke-linecap="round" stroke-linejoin="round"/>
<path d="M66.6584 101.141V111.267" stroke="#663366" stroke-width="4.10156" stroke-miterlimit="10" stroke-linecap="round" stroke-linejoin="round"/>
<path d="M56.9933 88.5742H54.7415C50.614 88.5742 47.2679 85.2298 47.2679 81.1041V78.7613C47.2679 76.6668 48.9665 74.9688 51.0622 74.9688H56.272" stroke="#663366" stroke-width="4.10156" stroke-miterlimit="10" stroke-linecap="round" stroke-linejoin="round"/>
<path d="M93.1276 88.5742H95.3793C99.5069 88.5742 102.853 85.2298 102.853 81.1041V78.7613C102.853 76.6668 101.154 74.9688 99.0587 74.9688H93.5309" stroke="#663366" stroke-width="4.10156" stroke-miterlimit="10" stroke-linecap="round" stroke-linejoin="round"/>
<path d="M86.2583 97.7709L81.9793 101.102C77.9111 104.27 72.2102 104.27 68.142 101.102L63.8629 97.7709C59.8418 94.6401 57.4905 89.8303 57.4905 84.7356V75.1645C57.4905 71.9169 60.2309 69.3419 63.4738 69.5426L69.3588 69.9068C73.0701 70.1365 76.7626 69.2205 79.9361 67.2832L85.3114 64.0017C88.5177 62.0441 92.6313 64.3508 92.6313 68.1062V84.7356C92.631 89.8303 90.2795 94.6401 86.2583 97.7709Z" stroke="#663366" stroke-width="4.10156" stroke-miterlimit="10" stroke-linecap="round" stroke-linejoin="round"/>
<path d="M70.7122 89.8594C73.4055 91.395 76.7097 91.395 79.4028 89.8594" stroke="#663366" stroke-width="4.10156" stroke-miterlimit="10" stroke-linecap="round" stroke-linejoin="round"/>
<path d="M68.9671 28.375H46.5231" stroke="#663366" stroke-width="4.10156" stroke-miterlimit="10" stroke-linecap="round" stroke-linejoin="round"/>
<path d="M100.283 28.375H81.4875" stroke="#663366" stroke-width="4.10156" stroke-miterlimit="10" stroke-linecap="round" stroke-linejoin="round"/>
<path d="M74.9461 33.9317C78.0158 33.9317 80.5043 31.4443 80.5043 28.376C80.5043 25.3077 78.0158 22.8203 74.9461 22.8203C71.8764 22.8203 69.3879 25.3077 69.3879 28.376C69.3879 31.4443 71.8764 33.9317 74.9461 33.9317Z" stroke="#663366" stroke-width="4.10156" stroke-miterlimit="10" stroke-linecap="round" stroke-linejoin="round"/>
<path d="M35.3445 118.795V114.184C35.3445 113.722 35.6893 113.319 36.1817 113.205L40.1162 112.294C49.887 110.031 60.1242 110.016 69.9032 112.248L74.9451 113.399L79.9687 112.237C90.2948 109.848 101.132 109.97 111.389 112.592L113.735 113.192C114.215 113.314 114.546 113.711 114.546 114.164V118.794" stroke="#663366" stroke-width="4.10156" stroke-miterlimit="10" stroke-linecap="round" stroke-linejoin="round"/>
<path d="M74.9453 113.398V121.428" stroke="#663366" stroke-width="4.10156" stroke-miterlimit="10" stroke-linecap="round" stroke-linejoin="round"/>
<path d="M105.143 119.055H117.55C118.663 119.055 119.565 119.902 119.565 120.946V142.928" stroke="#663366" stroke-width="4.10156" stroke-miterlimit="10" stroke-linecap="round" stroke-linejoin="round"/>
<path d="M30.325 142.928V120.946C30.325 119.902 31.2276 119.055 32.3405 119.055H66.3438C67.0523 119.055 67.7413 119.263 68.3076 119.648L68.9584 120.088C72.5221 122.508 77.401 122.549 81.014 120.192L81.8975 119.615C82.4553 119.249 83.1255 119.055 83.8118 119.055H95.5723" stroke="#663366" stroke-width="4.10156" stroke-miterlimit="10" stroke-linecap="round" stroke-linejoin="round"/>
<path d="M67.9292 137.75V142.946" stroke="#663366" stroke-width="4.10156" stroke-miterlimit="10" stroke-linecap="round" stroke-linejoin="round"/>
<path d="M67.9292 119.648V128.183" stroke="#663366" stroke-width="4.10156" stroke-miterlimit="10" stroke-linecap="round" stroke-linejoin="round"/>
<path d="M82.0516 119.648V142.95" stroke="#663366" stroke-width="4.10156" stroke-miterlimit="10" stroke-linecap="round" stroke-linejoin="round"/>
<path d="M45.3618 28.3704C45.3618 27.1123 45.2232 25.8873 44.9667 24.706L49.2375 22.2413L44.0012 13.1757L39.7304 15.6405C37.9235 13.9966 35.7645 12.7338 33.3806 11.9737V7.04688H22.908V11.9739C20.5241 12.7338 18.3651 13.9966 16.5582 15.6407L12.2871 13.176L7.05078 22.2415L11.3216 24.7063C11.0651 25.8875 10.9265 27.1125 10.9265 28.3706C10.9265 29.6287 11.0651 30.8537 11.3216 32.035L7.05078 34.4995L12.2871 43.565L16.5579 41.1002C18.3648 42.7441 20.5239 44.0069 22.9077 44.767V49.6941H33.3804V44.767C35.7642 44.0071 37.9232 42.7444 39.7301 41.1002L44.0009 43.565L49.2373 34.4995L44.9664 32.0347C45.2229 30.8534 45.3618 29.6284 45.3618 28.3704Z" stroke="#663366" stroke-width="4.10156" stroke-miterlimit="10" stroke-linecap="round" stroke-linejoin="round"/>
<path d="M28.1443 37.992C33.458 37.992 37.7657 33.6862 37.7657 28.3749C37.7657 23.0635 33.458 18.7578 28.1443 18.7578C22.8305 18.7578 18.5228 23.0635 18.5228 28.3749C18.5228 33.6862 22.8305 37.992 28.1443 37.992Z" stroke="#663366" stroke-width="4.10156" stroke-miterlimit="10" stroke-linecap="round" stroke-linejoin="round"/>
</g>
<defs>
<clipPath id="clip0_768_11947">
<rect width="140" height="140" fill="white" transform="translate(5 5)"/>
</clipPath>
</defs>
</svg>
