<svg width="150" height="150" viewBox="0 0 150 150" fill="none" xmlns="http://www.w3.org/2000/svg">
<path d="M100.569 122.933H141.992V111.031H100.779" stroke="#663366" stroke-width="6.01562" stroke-miterlimit="10" stroke-linecap="round" stroke-linejoin="round"/>
<path d="M78.0893 111.029H71.1456C64.5036 111.029 59.0996 105.615 59.0996 98.9614C59.0996 92.3076 64.5036 86.8944 71.1456 86.8944H141.992V74.9922H71.1456C57.9309 74.9922 47.2182 85.7235 47.2182 98.9614C47.2182 112.199 57.9309 122.931 71.1456 122.931H78.4382" stroke="#663366" stroke-width="6.01562" stroke-miterlimit="10" stroke-linecap="round" stroke-linejoin="round"/>
<path d="M136.602 110.212C134.962 106.525 134.05 103.258 134.05 98.9612C134.05 94.6642 134.962 91.3974 136.602 87.7109" stroke="#663366" stroke-width="6.01562" stroke-miterlimit="10" stroke-linecap="round" stroke-linejoin="round"/>
<path d="M45.2467 58.1953L47.7189 119.548C47.9136 124.487 43.9695 128.597 39.0353 128.597C34.1014 128.597 30.1571 124.487 30.3518 119.548L32.8239 58.1953" stroke="#663366" stroke-width="6.01562" stroke-miterlimit="10" stroke-linecap="round" stroke-linejoin="round"/>
<path d="M56.0724 56.8359H20.3647" stroke="#663366" stroke-width="6.01562" stroke-miterlimit="10" stroke-linecap="round" stroke-linejoin="round"/>
<path d="M20.3647 25.4844H56.0724" stroke="#663366" stroke-width="6.01562" stroke-miterlimit="10" stroke-linecap="round" stroke-linejoin="round"/>
<path d="M70.0631 21.3984H57.7062V60.9154H70.0631V21.3984Z" stroke="#663366" stroke-width="6.01562" stroke-miterlimit="10" stroke-linecap="round" stroke-linejoin="round"/>
<path d="M20.3647 21.3984H8.00781V60.9154H20.3647V21.3984Z" stroke="#663366" stroke-width="6.01562" stroke-miterlimit="10" stroke-linecap="round" stroke-linejoin="round"/>
<path d="M97.7566 51.3474L105.41 31.2558C105.567 30.8735 106.108 30.8729 106.265 31.2549L113.849 51.3474" stroke="#663366" stroke-width="6.01562" stroke-miterlimit="10" stroke-linecap="round" stroke-linejoin="round"/>
<path d="M100.144 47.9766H111.501" stroke="#663366" stroke-width="6.01562" stroke-miterlimit="10" stroke-linecap="round" stroke-linejoin="round"/>
<path d="M83.003 30.9688V51.3303C83.2283 51.3688 90.1405 51.3303 90.1405 51.3303" stroke="#663366" stroke-width="6.01562" stroke-miterlimit="10" stroke-linecap="round" stroke-linejoin="round"/>
<path d="M118.515 30.9688L122.487 51.0412C122.633 51.4522 123.215 51.4481 123.356 51.0352L129.557 31.0059" stroke="#663366" stroke-width="6.01562" stroke-miterlimit="10" stroke-linecap="round" stroke-linejoin="round"/>
<path d="M129.557 30.9688L135.742 51.0412C135.888 51.4522 136.47 51.4481 136.611 51.0352L140.598 31.0059" stroke="#663366" stroke-width="6.01562" stroke-miterlimit="10" stroke-linecap="round" stroke-linejoin="round"/>
<path d="M99.4265 100.867V128.598L89.7569 124.761L80.0876 128.598V100.867" stroke="#663366" stroke-width="6.01562" stroke-miterlimit="10" stroke-linecap="round" stroke-linejoin="round"/>
<path d="M71.6105 98.9609H117.686" stroke="#663366" stroke-width="6.01562" stroke-miterlimit="10" stroke-linecap="round" stroke-linejoin="round"/>
</svg>
