<svg width="150" height="150" viewBox="0 0 150 150" fill="none" xmlns="http://www.w3.org/2000/svg">
<g clip-path="url(#clip0_761_7789)">
<path d="M93.8363 95.9297H87.6213V110.679H93.8363" stroke="#663366" stroke-width="4.10156" stroke-miterlimit="10" stroke-linecap="round" stroke-linejoin="round"/>
<path d="M93.378 103.305H87.6213" stroke="#663366" stroke-width="4.10156" stroke-miterlimit="10" stroke-linecap="round" stroke-linejoin="round"/>
<path d="M129.019 95.9297H122.804V110.679H129.019" stroke="#663366" stroke-width="4.10156" stroke-miterlimit="10" stroke-linecap="round" stroke-linejoin="round"/>
<path d="M128.56 103.305H122.804" stroke="#663366" stroke-width="4.10156" stroke-miterlimit="10" stroke-linecap="round" stroke-linejoin="round"/>
<path d="M130.143 84.5668V63.6562" stroke="#663366" stroke-width="4.10156" stroke-miterlimit="10" stroke-linecap="round" stroke-linejoin="round"/>
<path d="M19.8567 63.6562V84.207" stroke="#663366" stroke-width="4.10156" stroke-miterlimit="10" stroke-linecap="round" stroke-linejoin="round"/>
<path d="M106.901 38.588V26.3249L77.8974 7.88975C76.1293 6.76592 73.871 6.76592 72.1029 7.88975L43.0992 26.3249V38.588" stroke="#663366" stroke-width="4.10156" stroke-miterlimit="10" stroke-linecap="round" stroke-linejoin="round"/>
<path d="M60.052 38.5859H22.4379C20.6562 38.5859 19.1135 39.823 18.726 41.562L14.9512 58.5059C14.4221 60.8815 16.2295 63.1357 18.6631 63.1357H43.0991" stroke="#663366" stroke-width="4.10156" stroke-miterlimit="10" stroke-linecap="round" stroke-linejoin="round"/>
<path d="M106.901 63.1357H131.337C133.771 63.1357 135.578 60.8812 135.049 58.5059L131.274 41.562C130.887 39.823 129.344 38.5859 127.562 38.5859H89.8794" stroke="#663366" stroke-width="4.10156" stroke-miterlimit="10" stroke-linecap="round" stroke-linejoin="round"/>
<path d="M37.7499 29.7202L43.0989 26.3203" stroke="#663366" stroke-width="4.10156" stroke-miterlimit="10" stroke-linecap="round" stroke-linejoin="round"/>
<path d="M112.25 29.7202L106.901 26.3203" stroke="#663366" stroke-width="4.10156" stroke-miterlimit="10" stroke-linecap="round" stroke-linejoin="round"/>
<path d="M43.0989 84.5652V76.5078" stroke="#663366" stroke-width="4.10156" stroke-miterlimit="10" stroke-linecap="round" stroke-linejoin="round"/>
<path d="M43.0989 66.9369V52.9913C43.0989 50.8732 44.1814 48.9023 45.9689 47.7662L72.1027 31.1554C73.8707 30.0315 76.129 30.0315 77.8971 31.1554L104.031 47.7662C105.818 48.9023 106.901 50.8732 106.901 52.9913V84.5656" stroke="#663366" stroke-width="4.10156" stroke-miterlimit="10" stroke-linecap="round" stroke-linejoin="round"/>
<path d="M92.8645 84.8403V64.75H57.1355V84.8403" stroke="#663366" stroke-width="4.10156" stroke-miterlimit="10" stroke-linecap="round" stroke-linejoin="round"/>
<path d="M75 64.75V84.7539" stroke="#663366" stroke-width="4.10156" stroke-miterlimit="10" stroke-linecap="round" stroke-linejoin="round"/>
<path d="M107.905 142.946H133.622C135.757 142.946 137.488 141.215 137.488 139.08V133.398H12.5124V139.08C12.5124 141.215 14.243 142.946 16.378 142.946H98.3338" stroke="#663366" stroke-width="4.10156" stroke-miterlimit="10" stroke-linecap="round" stroke-linejoin="round"/>
<path d="M126.584 121.656H23.4163C17.3941 121.656 12.5121 126.538 12.5121 132.56V133.391H137.488V132.56C137.488 126.538 132.606 121.656 126.584 121.656Z" stroke="#663366" stroke-width="4.10156" stroke-miterlimit="10" stroke-linecap="round" stroke-linejoin="round"/>
<path d="M61.8362 95.9297V110.667C61.9992 110.695 67.0011 110.667 67.0011 110.667" stroke="#663366" stroke-width="4.10156" stroke-miterlimit="10" stroke-linecap="round" stroke-linejoin="round"/>
<path d="M74.875 95.9297V110.667C75.038 110.695 80.04 110.667 80.04 110.667" stroke="#663366" stroke-width="4.10156" stroke-miterlimit="10" stroke-linecap="round" stroke-linejoin="round"/>
<path d="M31.9328 97.1891C30.7556 96.394 29.3368 95.9297 27.8093 95.9297C23.7362 95.9297 20.4344 99.2314 20.4344 103.305C20.4344 107.378 23.7362 110.679 27.8093 110.679C29.4636 110.679 30.8243 110.135 31.8568 109.215C32.0703 109.025 32.2699 108.818 32.4553 108.598" stroke="#663366" stroke-width="4.10156" stroke-miterlimit="10" stroke-linecap="round" stroke-linejoin="round"/>
<path d="M46.7189 110.679C50.7919 110.679 54.0938 107.378 54.0938 103.305C54.0938 99.2315 50.7919 95.9297 46.7189 95.9297C42.6459 95.9297 39.344 99.2315 39.344 103.305C39.344 107.378 42.6459 110.679 46.7189 110.679Z" stroke="#663366" stroke-width="4.10156" stroke-miterlimit="10" stroke-linecap="round" stroke-linejoin="round"/>
<path d="M112.747 97.1952C111.565 96.3962 110.139 95.9297 108.604 95.9297C104.512 95.9297 101.194 99.2473 101.194 103.34C101.194 107.433 104.512 110.751 108.604 110.751C112.697 110.751 115.001 107.433 115.001 103.34H110.568" stroke="#663366" stroke-width="4.10156" stroke-miterlimit="10" stroke-linecap="round" stroke-linejoin="round"/>
<path d="M7.05078 116.19V90.4922C7.05078 87.4718 9.49914 85.0234 12.5195 85.0234H137.48C140.501 85.0234 142.949 87.4718 142.949 90.4922V116.19C142.949 119.211 140.501 121.659 137.48 121.659H12.5195C9.49914 121.659 7.05078 119.211 7.05078 116.19Z" stroke="#663366" stroke-width="4.10156" stroke-miterlimit="10" stroke-linecap="round" stroke-linejoin="round"/>
</g>
<defs>
<clipPath id="clip0_761_7789">
<rect width="140" height="140" fill="white" transform="translate(5 5)"/>
</clipPath>
</defs>
</svg>
