<?xml version="1.0" encoding="utf-8"?>
<!-- Generator: Adobe Illustrator 24.2.1, SVG Export Plug-In . SVG Version: 6.00 Build 0)  -->
<svg version="1.1" id="Layer_1" xmlns="http://www.w3.org/2000/svg" xmlns:xlink="http://www.w3.org/1999/xlink" x="0px" y="0px"
	 viewBox="0 0 300 300" style="enable-background:new 0 0 300 300;" xml:space="preserve">
<style type="text/css">
	.st0{fill:#663366;}
</style>
<path class="st0" d="M102.7,107v28.7c0,6.9,5.6,12.5,12.5,12.5h64.6c6.9,0,12.5-5.6,12.5-12.5V107c0-6.9-5.6-12.5-12.5-12.5h-64.6
	C108.3,94.5,102.7,100.1,102.7,107z M185.5,107v28.7c0,3.1-2.5,5.7-5.7,5.7h-64.6c-3.1,0-5.7-2.5-5.7-5.7V107c0-3.1,2.5-5.7,5.7-5.7
	h64.6C183,101.4,185.5,103.9,185.5,107z M290.5,103.2c-0.9-3.2-2.9-5.9-5.8-7.6l-127-73.3c-5-2.9-10.6-2.9-15.6,0L15.3,95.6
	c-2.9,1.7-5,4.4-5.8,7.6c-0.9,3.2-0.4,6.6,1.3,9.5l3.6,6.2c3.5,6,11.2,8.1,17.1,4.6l8.7-5v148.7c0,6.9,5.6,12.5,12.5,12.5h189.9
	c6.9,0,12.5-5.6,12.5-12.5V115.7l13.5,7.8c1.9,1.1,4.1,1.7,6.3,1.7c1.1,0,2.2-0.2,3.3-0.4c3.2-0.9,5.9-2.9,7.6-5.8l3.6-6.2
	C290.9,109.9,291.4,106.5,290.5,103.2z M248.2,267.2c0,3.1-2.5,5.7-5.7,5.7H52.6c-3.1,0-5.7-2.5-5.7-5.7V114.5l98.7-57l0,0
	c2.8-1.6,5.9-1.6,8.7,0l93.8,54.2V267.2z M283.3,109.3l-3.6,6.2c-0.8,1.3-2,2.2-3.4,2.6c-1.5,0.4-3,0.2-4.3-0.6l-114.3-66
	c-5-2.9-10.6-2.9-15.6,0l0,0l-114.3,66c-2.7,1.6-6.2,0.6-7.8-2.1l-3.6-6.2c-0.8-1.3-1-2.8-0.6-4.3c0.4-1.5,1.3-2.7,2.6-3.4
	l126.9-73.3c1.4-0.8,2.9-1.2,4.4-1.2c1.5,0,2.9,0.4,4.4,1.2l126.9,73.3c1.3,0.8,2.2,2,2.6,3.4C284.3,106.5,284.1,108,283.3,109.3z
	 M127.4,201.3c0-8.1-6.6-14.7-14.7-14.7H89v-16.7c0-1.9-1.5-3.4-3.4-3.4c-1.9,0-3.4,1.5-3.4,3.4v88.6c0,1.9,1.5,3.4,3.4,3.4
	c1.9,0,3.4-1.5,3.4-3.4v-16.7h117.2v16.7c0,1.9,1.5,3.4,3.4,3.4l0,0c1.9,0,3.4-1.5,3.4-3.4v-37.3c0-3.2-1.3-6.2-3.5-8.5
	c-2.3-2.3-5.3-3.5-8.5-3.5h-75.9C126.5,206.8,127.4,204.1,127.4,201.3z M89,193.4h23.7c4.3,0,7.8,3.5,7.8,7.8c0,4.3-3.5,7.8-7.8,7.8
	c0,0,0,0-0.1,0H88.9L89,193.4L89,193.4z M201,216c1.4,0,2.7,0.6,3.6,1.5c1,1,1.5,2.3,1.5,3.6v13.7H89V216C89,216,201,216,201,216z"
	/>
</svg>
