<svg width="200" height="200" viewBox="0 0 200 200" fill="none" xmlns="http://www.w3.org/2000/svg">
<path d="M153.037 64.817C153.037 57.5946 148.687 51.0846 142.012 48.3246C135.337 45.5571 127.657 47.0871 122.549 52.1946L99.9963 74.7469L77.444 52.1946C70.469 45.2196 59.1591 45.2196 52.1922 52.1946C45.2172 59.1695 45.2172 70.472 52.1922 77.4464L74.7445 99.9987L52.1922 122.551C45.2172 129.526 45.2172 140.828 52.1922 147.803C59.1597 154.778 70.4696 154.778 77.444 147.803L99.9963 125.251L122.549 147.803C129.524 154.778 140.826 154.778 147.8 147.803C154.775 140.835 154.775 129.525 147.8 122.551L125.248 99.9987L147.8 77.4387C151.16 74.1012 153.052 69.5569 153.037 64.817ZM143.557 73.217L118.896 97.8852C117.726 99.0552 117.726 100.953 118.896 102.123L143.572 126.798C148.192 131.434 148.192 138.933 143.572 143.561C138.877 148.046 131.49 148.046 126.802 143.561L102.12 118.901C100.95 117.731 99.0454 117.731 97.8755 118.901L73.1997 143.576C68.5122 148.054 61.1246 148.054 56.4371 143.576C51.8095 138.941 51.8095 131.441 56.4371 126.806L81.0976 102.125C82.2676 100.955 82.2676 99.0572 81.0976 97.8873L56.4217 73.2115C54.2018 70.9839 52.9492 67.9689 52.9492 64.8264C52.9492 61.6765 54.2017 58.6615 56.4217 56.4414C61.1167 51.9565 68.4968 51.9565 73.1918 56.4414L97.8734 81.1019C99.0659 82.2269 100.926 82.2269 102.118 81.1019L126.794 56.426C131.482 51.9411 138.869 51.9411 143.557 56.426C145.784 58.646 147.037 61.6611 147.037 64.8111C147.037 67.9535 145.784 70.9685 143.557 73.1961V73.217Z" fill="white"/>
<path d="M100 10C76.1267 10 53.2384 19.48 36.3616 36.3616C19.479 53.2367 10 76.1267 10 100C10 123.873 19.48 146.762 36.3616 163.638C53.2367 180.521 76.1267 190 100 190C123.873 190 146.762 180.52 163.638 163.638C180.521 146.763 190 123.873 190 100C189.97 76.1421 180.483 53.2595 163.608 36.3923C146.74 19.5172 123.858 10.0307 100 10ZM100 184C77.7242 184 56.3584 175.15 40.599 159.401C24.8491 143.644 16 122.276 16 100C16 77.7242 24.85 56.3584 40.599 40.599C56.3565 24.8491 77.7242 16 100 16C122.276 16 143.642 24.85 159.401 40.599C175.151 56.3565 184 77.7242 184 100C183.977 122.268 175.12 143.62 159.37 159.37C143.62 175.12 122.268 183.977 100 184Z" fill="white"/>
</svg>
