<svg width="200" height="200" viewBox="0 0 200 200" fill="none" xmlns="http://www.w3.org/2000/svg">
<g clip-path="url(#clip0_46_139)">
<path fill-rule="evenodd" clip-rule="evenodd" d="M127.13 46.7195C127.997 47.6753 127.908 49.1644 126.953 50.0312C125.997 50.8981 124.507 50.8092 123.641 49.8534C122.774 48.8977 122.863 47.4085 123.818 46.5417C124.774 45.6749 126.264 45.7638 127.13 46.7195ZM168.942 63.078C169.853 63.9893 169.853 65.4785 168.942 66.3897C168.03 67.301 166.541 67.301 165.63 66.3897C164.718 65.4785 164.718 63.9893 165.63 63.078C166.541 62.1668 168.03 62.1668 168.942 63.078ZM119.595 91.3276C120.506 92.2388 120.506 93.728 119.595 94.6393C118.684 95.5506 117.194 95.5506 116.283 94.6393C115.372 93.728 115.372 92.2388 116.283 91.3276C117.194 90.4163 118.684 90.4163 119.595 91.3276ZM100.345 30.4944C101.257 31.4057 101.257 32.8948 100.345 33.8061C99.4341 34.7174 97.9448 34.7174 97.0335 33.8061C96.1221 32.8948 96.1221 31.4057 97.0335 30.4944C97.9448 29.5831 99.4341 29.5831 100.345 30.4944ZM170.498 100.018C171.409 100.929 171.409 102.418 170.498 103.33C169.586 104.241 168.097 104.241 167.186 103.33C166.274 102.418 166.274 100.929 167.186 100.018C168.097 99.1067 169.586 99.1067 170.498 100.018ZM50.3321 43.8968C49.4208 42.9855 49.4208 41.4964 50.3321 40.5851C51.2435 39.6738 52.7328 39.6738 53.6441 40.5851L55.578 42.5188C56.4893 43.43 56.4893 44.9192 55.578 45.8305C54.6666 46.7418 53.1773 46.7418 52.266 45.8305L50.3321 43.8968ZM53.6441 55.1655C52.7328 56.0768 51.2435 56.0768 50.3321 55.1655C49.4208 54.2542 49.4208 52.7651 50.3321 51.8538L52.266 49.9201C53.1773 49.0088 54.6666 49.0088 55.578 49.9201C56.4893 50.8314 56.4893 52.3205 55.578 53.2318L53.6441 55.1655ZM64.9138 51.8538C65.8251 52.7651 65.8251 54.2542 64.9138 55.1655C64.0024 56.0768 62.5131 56.0768 61.6018 55.1655L59.6679 53.2318C58.7566 52.3205 58.7566 50.8314 59.6679 49.9201C60.5793 49.0088 62.0686 49.0088 62.9799 49.9201L64.9138 51.8538ZM61.6018 40.5851C62.5131 39.6738 64.0024 39.6738 64.9138 40.5851C65.8251 41.4964 65.8251 42.9855 64.9138 43.8968L62.9799 45.8305C62.0686 46.7418 60.5793 46.7418 59.6679 45.8305C58.7566 44.9192 58.7566 43.43 59.6679 42.5188L61.6018 40.5851ZM144.846 138.403C143.935 137.491 143.935 136.002 144.846 135.091C145.758 134.18 147.247 134.18 148.158 135.091L150.092 137.025C151.003 137.936 151.003 139.425 150.092 140.336C149.181 141.248 147.691 141.248 146.78 140.336L144.846 138.403ZM148.158 149.671C147.247 150.583 145.758 150.583 144.846 149.671C143.935 148.76 143.935 147.271 144.846 146.36L146.78 144.426C147.691 143.515 149.181 143.515 150.092 144.426C151.003 145.337 151.003 146.826 150.092 147.738L148.158 149.671ZM159.428 146.36C160.339 147.271 160.339 148.76 159.428 149.671C158.517 150.583 157.027 150.583 156.116 149.671L154.182 147.738C153.271 146.826 153.271 145.337 154.182 144.426C155.093 143.515 156.583 143.515 157.494 144.426L159.428 146.36ZM156.116 135.091C157.027 134.18 158.517 134.18 159.428 135.091C160.339 136.002 160.339 137.491 159.428 138.403L157.494 140.336C156.583 141.248 155.093 141.248 154.182 140.336C153.271 139.425 153.271 137.936 154.182 137.025L156.116 135.091ZM78.8953 9.62396L75.2943 16.6474L80.8736 22.204C81.3626 22.693 81.6738 23.2931 81.7627 23.9599C81.8739 24.6044 81.7627 25.2934 81.4515 25.8936C81.1403 26.5159 80.6513 26.9826 80.0734 27.2938C79.4955 27.5827 78.8286 27.6939 78.1395 27.5827L70.3597 26.3381L66.8032 33.3616C66.492 33.9839 66.003 34.4729 65.425 34.7618C65.3139 34.8285 65.2028 34.8729 65.0694 34.8952C64.5804 35.073 64.0247 35.1397 63.4912 35.0508C62.8021 34.9396 62.202 34.6285 61.7352 34.1617C61.2684 33.695 60.9572 33.0949 60.846 32.4058L59.6235 24.6267L51.8436 23.4042C51.1546 23.2931 50.5544 22.9819 50.0876 22.5152C49.6208 22.0484 49.3096 21.4483 49.1985 20.7593C49.0873 20.0703 49.1985 19.4035 49.4874 18.8256C49.5541 18.7145 49.6208 18.6034 49.6875 18.4922C49.9765 18.0477 50.3988 17.6921 50.8878 17.4254L57.9119 13.8692L56.6671 6.08999C56.556 5.40097 56.6671 4.73419 56.9561 4.1563C57.2673 3.5562 57.7341 3.06722 58.3565 2.75605C58.9566 2.44488 59.6457 2.35598 60.2903 2.44488C60.9349 2.55602 61.5573 2.84496 62.0464 3.33393L67.6034 8.91272L74.6275 5.31207C75.2499 5.0009 75.9167 4.88977 76.5613 5.0009C77.2282 5.11203 77.8284 5.40097 78.3174 5.88995C78.8064 6.37893 79.0954 6.97903 79.2065 7.64582C79.3176 8.29038 79.2065 8.95717 78.8953 9.5795V9.62396ZM70.6487 15.4917L72.627 11.6465L68.7815 13.6247C68.1591 13.9358 67.4923 14.047 66.8476 13.9358C66.203 13.8247 65.5806 13.5358 65.0916 13.0468L62.0464 9.97958L62.7354 14.247C62.8466 14.936 62.7354 15.6028 62.4465 16.1807C62.1575 16.7586 61.6685 17.2476 61.0461 17.5587L57.2006 19.5146L61.4684 20.1814C62.1575 20.2925 62.7577 20.6037 63.2244 21.0705C63.6912 21.5372 64.0024 22.1595 64.1136 22.8263L64.7804 27.0938L66.7365 23.2486C67.0477 22.6263 67.5367 22.1373 68.1146 21.8484C68.6926 21.5594 69.3594 21.4483 70.0485 21.5594L74.3163 22.2485L71.2488 19.2035C70.7598 18.7145 70.4486 18.1144 70.3597 17.4476C70.2485 16.803 70.3597 16.1362 70.6709 15.5139L70.6487 15.4917ZM194.66 125.378L191.059 132.402L196.638 137.958C197.127 138.447 197.438 139.047 197.527 139.714C197.638 140.359 197.527 141.048 197.216 141.648C196.905 142.27 196.416 142.737 195.838 143.048C195.749 143.092 195.682 143.115 195.593 143.159C195.06 143.381 194.482 143.448 193.904 143.359L186.124 142.114L182.567 149.138C182.256 149.76 181.767 150.227 181.189 150.538C180.611 150.827 179.945 150.938 179.255 150.827C178.566 150.716 177.966 150.405 177.499 149.938C177.033 149.471 176.721 148.871 176.61 148.182L175.388 140.403L167.608 139.181C166.919 139.069 166.319 138.758 165.852 138.292C165.385 137.825 165.074 137.225 164.963 136.536C164.852 135.847 164.963 135.18 165.274 134.602C165.563 134.024 166.052 133.535 166.674 133.224L173.698 129.668L172.454 121.889C172.342 121.2 172.454 120.533 172.743 119.955C172.787 119.866 172.832 119.799 172.876 119.71C173.187 119.221 173.609 118.844 174.121 118.577C174.721 118.266 175.41 118.177 176.055 118.266C176.699 118.377 177.322 118.666 177.811 119.155L183.368 124.734L190.392 121.133C191.014 120.822 191.681 120.711 192.326 120.822C192.992 120.933 193.593 121.222 194.082 121.711C194.171 121.8 194.237 121.866 194.304 121.955C194.66 122.4 194.882 122.911 194.971 123.467C195.082 124.111 194.971 124.778 194.66 125.4V125.378ZM186.413 131.246L188.391 127.401L184.546 129.379C183.923 129.69 183.257 129.801 182.612 129.69C181.967 129.579 181.345 129.29 180.856 128.801L177.811 125.734L178.5 130.001C178.611 130.69 178.5 131.357 178.211 131.935C177.922 132.513 177.433 133.002 176.81 133.313L172.965 135.269L177.233 135.936C177.922 136.047 178.522 136.358 178.989 136.825C179.456 137.291 179.767 137.914 179.878 138.581L180.545 142.848L182.501 139.003C182.812 138.38 183.301 137.892 183.879 137.603C184.457 137.314 185.124 137.203 185.813 137.314L190.081 138.003L187.013 134.958C186.524 134.469 186.213 133.869 186.124 133.202C186.013 132.557 186.124 131.89 186.435 131.268L186.413 131.246ZM95.4108 0.777918C96.1666 1.53361 97.0779 2.11149 98.0337 2.53379C99.034 2.95609 100.145 3.17835 101.279 3.17835C102.413 3.17835 103.502 2.95609 104.524 2.53379C105.502 2.13372 106.392 1.53361 107.147 0.777918L107.258 0.666787C108.17 -0.222262 109.615 -0.222262 110.526 0.666787C111.437 1.57806 111.46 3.04499 110.548 3.97849L110.437 4.11185C109.681 4.86754 109.103 5.77882 108.681 6.73455C108.259 7.73473 108.036 8.84604 108.036 9.97958C108.036 11.1131 108.259 12.2022 108.681 13.2246C109.081 14.2026 109.681 15.0916 110.437 15.8473L110.548 15.9584C111.437 16.8697 111.437 18.3144 110.548 19.2257C109.637 20.137 108.17 20.1592 107.236 19.2479L107.125 19.1368C106.369 18.3811 105.458 17.8032 104.502 17.3809C103.502 16.9586 102.39 16.7363 101.257 16.7363C100.123 16.7363 99.034 16.9586 98.0115 17.3809C97.0335 17.781 96.1443 18.3811 95.3886 19.1368L95.2775 19.2701C94.3661 20.1592 92.9213 20.1592 92.0099 19.2701C91.0986 18.3589 91.0763 16.8919 91.9877 15.9584L92.0988 15.8473C92.8546 15.0916 93.4325 14.1803 93.8549 13.2246C94.2772 12.2244 94.4995 11.1131 94.4995 9.97958C94.4995 8.84604 94.2772 7.75695 93.8549 6.73455C93.4547 5.75659 92.8546 4.86754 92.0988 4.11185L91.9877 3.97849C91.0986 3.06722 91.0986 1.62251 91.9877 0.711239C92.899 -0.200036 94.3661 -0.222262 95.2997 0.689013L95.4108 0.800144V0.777918ZM101.279 7.86808C100.501 7.86808 99.7453 7.80141 98.9896 7.66805C99.1229 8.42374 99.1896 9.17943 99.1896 9.95735C99.1896 10.7353 99.1229 11.491 98.9896 12.2467C99.7453 12.1133 100.501 12.0466 101.279 12.0466C102.057 12.0466 102.813 12.1133 103.569 12.2467C103.435 11.491 103.369 10.7353 103.369 9.95735C103.369 9.17943 103.435 8.42374 103.569 7.66805C102.813 7.80141 102.057 7.86808 101.279 7.86808ZM184.19 89.5495C184.946 90.3052 185.857 90.883 186.813 91.3053C187.813 91.7276 188.925 91.9499 190.058 91.9499C191.192 91.9499 192.281 91.7276 193.304 91.3053C194.282 90.9053 195.171 90.3052 195.927 89.5495L196.038 89.4161C196.949 88.5271 198.394 88.5271 199.305 89.4161C200.217 90.3274 200.239 91.7943 199.327 92.7278L199.216 92.8389C198.461 93.5946 197.883 94.5059 197.46 95.4616C197.038 96.4618 196.816 97.5731 196.816 98.7067C196.816 99.8402 197.038 100.929 197.46 101.952C197.86 102.93 198.461 103.819 199.216 104.574L199.327 104.708C200.217 105.619 200.217 107.064 199.327 107.975C198.416 108.886 196.949 108.909 196.015 107.997L195.904 107.886C195.149 107.13 194.237 106.553 193.281 106.13C192.281 105.708 191.17 105.486 190.036 105.486C188.902 105.486 187.813 105.708 186.791 106.13C185.813 106.53 184.924 107.13 184.168 107.886L184.057 107.997C183.145 108.886 181.701 108.886 180.789 107.997C179.878 107.086 179.856 105.619 180.767 104.686L180.878 104.552C181.634 103.796 182.212 102.885 182.634 101.929C183.056 100.929 183.279 99.818 183.279 98.6844C183.279 97.5509 183.056 96.4618 182.634 95.4394C182.234 94.4615 181.634 93.5724 180.878 92.8167L180.767 92.7056C179.878 91.7943 179.878 90.3496 180.767 89.4383C181.678 88.5271 183.145 88.5048 184.079 89.4161L184.19 89.5495ZM190.058 96.6396C189.28 96.6396 188.525 96.573 187.769 96.4396C187.902 97.1953 187.969 97.951 187.969 98.7289C187.969 99.5068 187.902 100.263 187.769 101.018C188.525 100.885 189.28 100.818 190.058 100.818C190.836 100.818 191.592 100.885 192.348 101.018C192.214 100.263 192.148 99.5068 192.148 98.7289C192.148 97.951 192.214 97.1953 192.348 96.4396C191.592 96.573 190.836 96.6396 190.058 96.6396ZM169.608 34.6951L165.874 42.0076L171.698 47.8086C172.187 48.2976 172.498 48.9199 172.609 49.5645C172.72 50.2313 172.609 50.8981 172.298 51.5204C171.987 52.1427 171.498 52.6317 170.898 52.9206C170.32 53.2096 169.631 53.3207 168.942 53.2096L160.828 51.8982L157.116 59.2107C156.805 59.833 156.316 60.322 155.716 60.6331C155.605 60.6998 155.494 60.7443 155.36 60.7665C154.849 60.9443 154.315 61.011 153.76 60.9221C153.071 60.811 152.471 60.4998 151.981 60.033C151.515 59.5663 151.204 58.9662 151.092 58.2549L149.825 50.1424L141.712 48.8755C141.023 48.7643 140.401 48.4532 139.934 47.9864C139.467 47.5197 139.134 46.8973 139.045 46.2305C139.045 46.1861 139.045 46.1416 139.045 46.0972C138.956 45.4526 139.089 44.8303 139.356 44.2746C139.423 44.1635 139.489 44.0524 139.556 43.9635C139.845 43.519 140.267 43.1411 140.778 42.8744L148.092 39.1626L146.78 31.05C146.669 30.361 146.78 29.672 147.069 29.0941C147.358 28.494 147.847 28.005 148.469 27.6939C149.092 27.3827 149.759 27.2938 150.426 27.3827C151.092 27.4938 151.693 27.7828 152.182 28.294L157.983 34.1173L165.296 30.3833C165.919 30.0721 166.585 29.961 167.23 30.0721C167.897 30.1832 168.497 30.4722 168.986 30.9611C169.475 31.4501 169.786 32.0724 169.875 32.7392C169.986 33.3838 169.875 34.0728 169.564 34.6951H169.608ZM161.228 40.8296L163.385 36.6288L159.183 38.7848C158.561 39.0959 157.872 39.2071 157.227 39.0959C156.583 38.9848 155.96 38.6959 155.471 38.1847L152.137 34.8507L152.893 39.496C153.004 40.185 152.893 40.874 152.582 41.4519C152.293 42.052 151.804 42.541 151.159 42.8522L146.958 44.9859L151.604 45.7193C152.293 45.8305 152.915 46.1416 153.382 46.6084C153.849 47.0751 154.16 47.6975 154.271 48.3865L155.005 53.0318L157.138 48.831C157.45 48.2087 157.961 47.7197 158.539 47.4085C159.117 47.1196 159.806 46.9862 160.495 47.0974L165.141 47.8531L161.806 44.5191C161.317 44.0302 161.006 43.4078 160.895 42.7633C160.784 42.1187 160.895 41.4297 161.206 40.8074L161.228 40.8296ZM122.44 107.153C129.753 100.507 138.311 95.6172 147.491 92.6834C156.672 89.7495 166.496 88.7938 176.299 89.994C177.588 90.1496 178.744 89.2383 178.9 87.9492C179.055 86.6601 178.144 85.5043 176.855 85.3487C166.408 84.0818 155.916 85.1264 146.091 88.2381C136.266 91.372 127.108 96.5952 119.306 103.685C118.35 104.552 118.284 106.041 119.151 106.997C120.017 107.953 121.507 108.019 122.462 107.153H122.44ZM132.465 117.843C137.778 114.665 143.757 113.087 149.736 113.087C155.716 113.087 161.695 114.665 167.008 117.843C168.119 118.51 169.542 118.155 170.209 117.043C170.875 115.932 170.52 114.51 169.408 113.843C163.34 110.22 156.538 108.397 149.736 108.397C142.935 108.397 136.133 110.22 130.065 113.843C128.953 114.51 128.597 115.932 129.264 117.043C129.931 118.155 131.354 118.51 132.465 117.843ZM96.3 80.7257C103.391 72.9243 108.614 63.767 111.749 53.9431C114.883 44.1191 115.927 33.6283 114.638 23.182C114.483 21.8928 113.327 20.9816 112.037 21.1371C110.748 21.2927 109.837 22.4485 109.993 23.7376C111.193 33.5394 110.215 43.3634 107.303 52.5428C104.369 61.7222 99.5008 70.2793 92.8324 77.5918C91.9655 78.5475 92.0321 80.0366 92.988 80.9035C93.9438 81.7703 95.4331 81.7036 96.3 80.7479V80.7257ZM86.1639 69.9459C89.7871 63.8782 91.6098 57.0769 91.6098 50.2757C91.6098 43.4745 89.7871 36.6733 86.1639 30.6055C85.4971 29.4942 84.0745 29.1386 82.9631 29.8054C81.8516 30.4722 81.496 31.8946 82.1628 33.0059C85.3415 38.318 86.9197 44.2969 86.9197 50.2757C86.9197 56.2546 85.3415 62.2334 82.1628 67.5455C81.496 68.6568 81.8516 70.0793 82.9631 70.7461C84.0745 71.4129 85.4971 71.0572 86.1639 69.9459ZM142.779 53.8986L119.484 77.1917C118.573 78.103 118.573 79.5921 119.484 80.5034C120.395 81.4147 121.885 81.4147 122.796 80.5034L146.091 57.2103C147.002 56.299 147.002 54.8099 146.091 53.8986C145.18 52.9873 143.69 52.9873 142.779 53.8986ZM74.2718 93.4391L90.654 154.583L121.351 140.514L74.2718 93.4391ZM86.3417 156.562L67.5812 165.163L49.9542 99.4179L59.4901 78.6364L67.6701 86.8156L86.364 156.562H86.3417ZM63.2467 167.141L46.8867 106.086L33.5721 135.091L44.4639 175.765L63.2244 167.163L63.2467 167.141ZM40.1516 177.721L21.391 186.322L17.2122 170.742L30.5268 141.737L40.1738 177.721H40.1516ZM17.0566 188.301L14.1447 177.41L7.03165 192.901L17.0566 188.301ZM68.7593 64.5672C67.1588 62.9669 65.0249 62.1445 62.9133 62.1445C60.8016 62.1445 58.6899 62.9447 57.0672 64.5672C55.4446 66.1897 54.6444 68.3012 54.6444 70.4127C54.6444 71.9907 55.0889 73.5688 55.9781 74.9468L0.207607 196.702C-0.325869 197.88 0.207607 199.258 1.36347 199.792C2.00809 200.08 2.71939 200.058 3.29732 199.792L125.063 143.937C126.441 144.826 128.02 145.271 129.598 145.271C131.709 145.271 133.821 144.47 135.444 142.848C137.066 141.225 137.867 139.114 137.867 137.002C137.867 134.891 137.066 132.779 135.444 131.157L68.8259 64.545L68.7593 64.5672ZM132.065 134.491L65.4473 67.8789C64.7582 67.1899 63.8468 66.8343 62.9133 66.8343C61.9797 66.8343 61.0905 67.1899 60.3792 67.8789C59.6679 68.5679 59.3345 69.4792 59.3345 70.4127C59.3345 71.3462 59.6902 72.2352 60.3792 72.9465L126.997 139.558C127.686 140.247 128.597 140.603 129.531 140.603C130.465 140.603 131.354 140.247 132.065 139.558C132.754 138.869 133.11 137.958 133.11 137.025C133.11 136.091 132.754 135.202 132.065 134.491Z" fill="black"/>
</g>
<defs>
<clipPath id="clip0_46_139">
<rect width="200" height="200" fill="white"/>
</clipPath>
</defs>
</svg>
