<svg width="200" height="200" viewBox="0 0 200 200" fill="none" xmlns="http://www.w3.org/2000/svg">
<g clip-path="url(#clip0_46_142)">
<path d="M13.7558 126.318C14.2475 126.318 14.6892 126.043 14.9225 125.618C15.6726 124.193 16.8226 122.418 18.1476 120.36C22.4393 113.718 28.3062 104.634 27.4229 96.8755C26.6979 90.4836 20.5645 85.2918 13.756 85.2918C6.9475 85.2918 0.814004 90.492 0.0890775 96.8755C-0.794274 104.634 5.08079 113.726 9.36442 120.36C10.6895 122.418 11.8396 124.193 12.5895 125.618C12.8145 126.043 13.2642 126.318 13.7558 126.318ZM2.70551 97.1676C3.28887 92.0675 8.24742 87.9174 13.7558 87.9174C19.2726 87.9174 24.2312 92.0675 24.8062 97.1676C25.5812 103.993 20.006 112.626 15.9308 118.926C15.1225 120.168 14.3891 121.318 13.7475 122.36C13.1142 121.318 12.3725 120.168 11.5642 118.926C7.50585 112.626 1.92213 103.992 2.70551 97.1676ZM19.9728 99.101C19.9728 95.6758 17.181 92.8841 13.7558 92.8841C10.3307 92.8841 7.53892 95.6758 7.53892 99.101C7.53892 102.526 10.3307 105.318 13.7558 105.318C17.181 105.326 19.9728 102.534 19.9728 99.101ZM10.1641 99.101C10.1641 97.1259 11.7724 95.5092 13.7558 95.5092C15.7309 95.5092 17.3476 97.1176 17.3476 99.101C17.3476 101.084 15.7392 102.693 13.7558 102.693C11.7724 102.693 10.1641 101.084 10.1641 99.101ZM55.8485 76.5254C55.8485 79.8089 56.8735 82.8505 58.607 85.3673L58.5653 136.594C58.5653 136.944 58.707 137.278 58.9487 137.528C59.1987 137.778 59.532 137.911 59.882 137.911H140.085C140.81 137.911 141.401 137.319 141.401 136.594L141.451 85.3011C143.16 82.801 144.168 79.7761 144.168 76.5176C144.168 76.4342 144.16 76.3509 144.143 76.2675C144.135 76.2342 144.126 76.2092 144.118 76.1759C144.11 76.1342 144.101 76.0925 144.085 76.0592L132.543 44.8583C132.351 44.3417 131.859 44 131.309 44H106.884H106.876L68.7073 44.0083C68.1573 44.0083 67.6656 44.35 67.474 44.8667L55.9319 76.0675C55.9152 76.1092 55.9069 76.1425 55.8985 76.1842C55.8902 76.2175 55.8819 76.2425 55.8735 76.2759C55.8569 76.3592 55.8485 76.4421 55.8485 76.5254ZM105.866 46.6409L112.616 75.2091H87.3824L94.1326 46.6409H105.866ZM128.559 89.4922C121.859 89.4922 116.325 84.3755 115.667 77.842H141.459C140.784 84.3755 135.259 89.4922 128.559 89.4922ZM112.892 77.842C112.233 84.3755 106.7 89.4922 99.9995 89.4922C93.2991 89.4922 87.7657 84.3755 87.1074 77.842H112.892ZM61.2229 84.4922C61.1646 84.0755 60.8979 83.7172 60.5396 83.5338C59.4646 81.8588 58.7646 79.9254 58.5479 77.8502H84.3406C83.6822 84.3837 78.1488 89.5005 71.4485 89.5005C67.2901 89.4921 63.598 87.534 61.2229 84.4922ZM75.2233 135.286V106.861H86.132V135.286H75.2233ZM88.7655 135.286V105.544C88.7655 104.819 88.1738 104.228 87.4487 104.228H73.9066C73.1816 104.228 72.5899 104.819 72.5899 105.544V135.286H61.1895L61.2312 88.3088C63.973 90.6839 67.5396 92.1257 71.4399 92.1257C77.8151 92.1257 83.2985 88.2838 85.7152 82.8004C88.1319 88.2838 93.6237 92.1257 99.9906 92.1257C106.358 92.1257 111.849 88.2838 114.266 82.8004C116.683 88.2838 122.174 92.1257 128.541 92.1257C132.458 92.1257 136.042 90.6673 138.783 88.2755L138.742 135.293L88.7655 135.286ZM140.942 75.2098H115.316L108.565 46.6415H130.375L140.942 75.2098ZM69.6225 46.6415H91.4322L84.6819 75.2098H59.0556L69.6225 46.6415ZM126.083 104.269H101.815C101.09 104.269 100.499 104.86 100.499 105.585V124.403C100.499 125.128 101.09 125.719 101.815 125.719H126.091C126.816 125.719 127.408 125.128 127.408 124.403V105.585C127.408 104.86 126.816 104.269 126.083 104.269ZM124.774 123.086H103.131V106.902H124.774V123.086ZM187.56 136.603C187.56 148.745 142.45 155.295 99.9993 155.295C57.5491 155.295 12.4385 148.745 12.4385 136.603C12.4385 127.153 38.8819 122.452 54.6477 120.494C55.3644 120.402 56.0227 120.919 56.1144 121.636C56.206 122.361 55.6894 123.011 54.9727 123.102C27.4135 126.528 15.0718 132.344 15.0718 136.594C15.0718 139.553 21.4304 143.995 39.2816 147.586C55.4904 150.853 77.0575 152.645 100.009 152.645C122.96 152.645 144.526 150.845 160.736 147.586C178.586 143.994 184.945 139.544 184.945 136.594C184.945 132.344 172.603 126.519 145.019 123.094C144.302 123.002 143.785 122.344 143.877 121.627C143.969 120.902 144.627 120.394 145.344 120.486C161.103 122.444 187.56 127.144 187.56 136.603ZM199.91 96.8684C199.185 90.4765 193.052 85.2847 186.244 85.2847C179.435 85.2847 173.302 90.4849 172.577 96.8684C171.693 104.627 177.568 113.719 181.852 120.353C183.177 122.411 184.327 124.186 185.077 125.611C185.302 126.044 185.752 126.311 186.244 126.311C186.735 126.311 187.177 126.036 187.41 125.611C188.16 124.186 189.31 122.411 190.635 120.353C194.927 113.719 200.794 104.627 199.91 96.8684ZM188.427 118.928C187.619 120.169 186.885 121.319 186.244 122.361C185.61 121.319 184.869 120.17 184.06 118.928C179.985 112.619 174.41 103.986 175.185 97.1692C175.768 92.0691 180.727 87.919 186.235 87.919C191.752 87.919 196.711 92.0691 197.286 97.1692C198.077 103.994 192.494 112.628 188.427 118.928ZM186.244 92.8854C182.818 92.8854 180.027 95.6771 180.027 99.1023C180.027 102.527 182.818 105.319 186.244 105.319C189.669 105.319 192.46 102.527 192.46 99.1023C192.46 95.6771 189.677 92.8854 186.244 92.8854ZM186.244 102.694C184.269 102.694 182.652 101.086 182.652 99.1023C182.652 97.1272 184.26 95.5105 186.244 95.5105C188.219 95.5105 189.835 97.1189 189.835 99.1023C189.835 101.086 188.227 102.694 186.244 102.694Z" fill="black"/>
</g>
<defs>
<clipPath id="clip0_46_142">
<rect width="200" height="200" fill="white"/>
</clipPath>
</defs>
</svg>
