<svg width="200" height="200" viewBox="0 0 200 200" fill="none" xmlns="http://www.w3.org/2000/svg">
<g clip-path="url(#clip0_46_138)">
<path fill-rule="evenodd" clip-rule="evenodd" d="M7.21992 185.551H9.72541V182.528C9.72541 180.541 10.5397 178.734 11.846 177.428C11.8908 177.383 11.9355 177.347 11.9802 177.303C13.2777 176.068 15.0314 175.308 16.9463 175.308H18.8701V172.346C18.8701 170.378 19.6754 168.589 20.9728 167.291C22.2703 165.994 24.0599 165.189 26.0283 165.189H27.3167V103.959H26.0283C24.0597 103.959 22.2703 103.154 20.9728 101.857C19.6754 100.559 18.8701 98.7701 18.8701 96.802V93.8406H16.9463C14.9599 93.8406 13.1526 93.0264 11.846 91.7202C10.5396 90.414 9.7254 88.6068 9.7254 86.6206V81.2706L9.73434 81.2348V81.2259L9.74329 81.1901V81.1811L9.76119 81.1275V81.1185L9.78803 81.0112L9.79698 80.9843V80.9754L9.80592 80.9396V80.9306L9.81487 80.9038L9.83277 80.868L9.85066 80.7964L9.85961 80.7875L9.87751 80.7338L9.88645 80.7249L9.90435 80.6891L9.92225 80.6622L9.94014 80.6265L9.94909 80.5996V80.5907L9.96698 80.5549V80.5459L9.98488 80.5191L10.0028 80.4833L10.0386 80.4296L10.0923 80.3759L10.128 80.3223L10.1459 80.2865L10.1638 80.2596V80.2507L10.1817 80.2239L10.3696 80.036H10.3786L10.4054 80.0181L10.4144 80.0091L10.4323 80.0002L10.4591 79.9823L10.5665 79.8749L10.5933 79.857L10.6202 79.8302L10.647 79.8123L10.656 79.8034L10.6828 79.7855H10.6918L10.7186 79.7676L10.7544 79.7497L10.7812 79.7318H10.7902L10.817 79.7139L10.826 79.705L10.8528 79.696L10.8707 79.6871L10.8797 79.6781L10.9155 79.6602L10.9423 79.6423L10.9781 79.6244L54.8758 54.7446L97.8961 30.4006V14.9052L97.9051 8.49933V2.0935C97.9051 0.93938 98.8446 0 99.9989 0H126.002C127.156 0 128.096 0.939403 128.096 2.0935C128.096 2.54978 127.953 2.96133 127.711 3.31024L124.714 8.49922L127.81 13.8581C128.382 14.8602 128.042 16.1306 127.04 16.7121C126.709 16.9 126.351 16.9895 126.002 16.9895V16.9984L102.093 17.0073V30.4005L145.122 54.7445L189.066 79.606C189.781 79.937 190.274 80.6617 190.274 81.5027V86.6291C190.274 88.6153 189.459 90.4134 188.153 91.7198H188.144L188.153 91.7288C186.847 93.035 185.039 93.8491 183.053 93.8491H181.129V96.8105C181.129 98.7788 180.324 100.568 179.026 101.865C177.729 103.163 175.939 103.968 173.971 103.968H172.682V165.197H173.971C175.939 165.197 177.729 166.003 179.026 167.3C180.324 168.597 181.129 170.387 181.129 172.355V175.316H183.053C185.039 175.316 186.837 176.13 188.144 177.436L188.153 177.445C189.459 178.752 190.274 180.559 190.274 182.536V185.56H192.779C194.765 185.56 196.564 186.374 197.87 187.68L197.879 187.689C199.186 188.996 200 190.803 200 192.78V197.906C200 199.061 199.06 200 197.906 200L2.09377 199.991C0.939502 199.991 0 199.052 0 197.898V192.771C0 190.785 0.814251 188.978 2.12062 187.671C2.16536 187.627 2.2101 187.591 2.25484 187.546C3.55228 186.312 5.29601 185.551 7.21992 185.551ZM168.485 103.958H152.683V165.188H168.485V103.958ZM148.496 103.958H147.207C145.239 103.958 143.449 103.153 142.152 101.856C140.854 100.559 140.049 98.7693 140.049 96.8012V93.8398H120.525V96.8012C120.525 98.7695 119.72 100.559 118.422 101.856C117.125 103.153 115.335 103.958 113.367 103.958H112.078V165.188H113.367C115.335 165.188 117.125 165.993 118.422 167.291C119.72 168.588 120.525 170.377 120.525 172.345V175.307H140.049V172.345C140.049 170.377 140.854 168.588 142.152 167.291C143.449 165.993 145.239 165.188 147.207 165.188H148.496V103.958ZM176.932 93.8487H144.253V96.81C144.253 97.6242 144.584 98.3578 145.121 98.8946C145.658 99.4314 146.401 99.7624 147.206 99.7624H173.961C174.775 99.7624 175.509 99.4314 176.046 98.8946C176.582 98.3578 176.914 97.6153 176.914 96.81L176.932 93.8487ZM144.253 175.297H176.932V172.336C176.932 171.522 176.6 170.788 176.064 170.251C175.527 169.715 174.784 169.384 173.979 169.384H147.224C146.41 169.384 145.676 169.715 145.139 170.251C144.602 170.788 144.271 171.531 144.271 172.336L144.253 175.297ZM31.5107 165.188H47.3124L47.3035 103.958H31.5018L31.5107 165.188ZM51.5001 165.188H52.7886C54.7571 165.188 56.5466 165.993 57.844 167.29C59.1415 168.587 59.9468 170.377 59.9468 172.345V175.306H79.4708V172.345C79.4708 170.377 80.276 168.587 81.5735 167.29C82.8709 165.993 84.6606 165.188 86.6289 165.188H87.9174L87.9084 103.958H86.62C84.6514 103.958 82.862 103.153 81.5645 101.855C80.2671 100.558 79.4618 98.7688 79.4618 96.8007V93.8393H59.9378V96.8007C59.9378 98.769 59.1325 100.558 57.8351 101.855C56.5377 103.153 54.748 103.958 52.7797 103.958H51.4912L51.5001 165.188ZM55.7415 93.8484H23.0633V96.8098C23.0633 97.624 23.3944 98.3576 23.9313 98.8944C24.4681 99.4312 25.2108 99.7622 26.0161 99.7622H52.7707C53.5849 99.7622 54.3186 99.4312 54.8555 98.8944C55.3924 98.3576 55.7235 97.615 55.7235 96.8098L55.7415 93.8484ZM23.0633 175.297H55.7415V172.336C55.7415 171.522 55.4104 170.788 54.8735 170.251C54.3366 169.714 53.594 169.383 52.7887 169.383H26.0341C25.2198 169.383 24.4861 169.714 23.9493 170.251C23.4124 170.788 23.0813 171.531 23.0813 172.336L23.0633 175.297ZM92.0961 165.187H107.898V103.958H92.0961V165.187ZM86.6201 99.7618H113.375C114.189 99.7618 114.923 99.4308 115.46 98.894C115.996 98.3572 116.327 97.6146 116.327 96.8094V93.848H83.6493V96.8094C83.6493 97.6236 83.9804 98.3572 84.5173 98.894C85.0631 99.4308 85.8059 99.7618 86.6201 99.7618ZM83.6583 175.297H116.336V172.336C116.336 171.521 116.005 170.788 115.469 170.251C114.932 169.714 114.189 169.383 113.384 169.383H86.6291C85.8149 169.383 85.0812 169.714 84.5443 170.251C84.0074 170.788 83.6763 171.53 83.6763 172.336L83.6583 175.297ZM99.997 46.1337C96.3732 46.1337 93.0804 47.6099 90.6913 49.9897L90.6644 50.0166C88.2753 52.4054 86.799 55.6977 86.799 59.33C86.799 62.9533 88.2754 66.2456 90.6555 68.6344L90.6823 68.6613C93.0715 71.0501 96.3642 72.5262 99.997 72.5262C103.621 72.5262 106.914 71.05 109.303 68.6702L109.329 68.6434C111.719 66.2546 113.195 62.9622 113.195 59.33C113.195 55.6977 111.719 52.4143 109.338 50.0255L109.312 49.9986C106.922 47.6098 103.63 46.1337 99.997 46.1337ZM106.359 52.96C104.739 51.3407 102.484 50.3388 99.997 50.3388C97.5096 50.3388 95.2636 51.3408 93.6352 52.96L93.6262 52.969C92.0067 54.5883 91.0046 56.8429 91.0046 59.3299C91.0046 61.817 92.0068 64.0627 93.6262 65.6909L93.6352 65.6998C95.2547 67.3192 97.5096 68.3211 99.997 68.3211C102.484 68.3211 104.739 67.3191 106.359 65.6998L106.368 65.6909C107.987 64.0715 108.989 61.817 108.989 59.3299C108.989 56.8429 107.987 54.5883 106.368 52.969L106.359 52.96ZM143.055 58.3728L99.9976 34.0105L56.9406 58.3728L19.7705 79.3973H180.222L143.055 58.3728ZM186.075 83.5939H13.9202V86.6178C13.9202 87.4499 14.2603 88.2014 14.8061 88.7561C15.3519 89.3018 16.1125 89.6418 16.9446 89.6418H183.034C183.866 89.6418 184.618 89.3018 185.172 88.7561V88.765C185.718 88.2193 186.058 87.4588 186.058 86.6268L186.085 83.5939L186.075 83.5939ZM13.9202 185.55H186.084V182.526C186.084 181.694 185.744 180.943 185.198 180.388L185.189 180.379C184.644 179.833 183.883 179.494 183.051 179.494H16.9434C16.147 179.494 15.4312 179.798 14.8854 180.299L14.8049 180.379C14.259 180.934 13.919 181.685 13.919 182.517L13.9202 185.55ZM102.091 4.1927V12.7993H122.376L120.506 9.55162C120.139 8.92535 120.103 8.12016 120.488 7.44916L122.376 4.18361H102.091L102.091 4.1927ZM192.777 189.737H7.21785C6.42149 189.737 5.70567 190.041 5.15986 190.542L5.07933 190.632C4.53352 191.177 4.1935 191.938 4.1935 192.77V195.794H195.809V192.77C195.809 191.938 195.469 191.186 194.924 190.632L194.915 190.623C194.369 190.077 193.61 189.737 192.777 189.737Z" fill="black"/>
</g>
<defs>
<clipPath id="clip0_46_138">
<rect width="200" height="200" fill="white"/>
</clipPath>
</defs>
</svg>
