<?xml version="1.0" encoding="utf-8"?>
<!-- Generator: Adobe Illustrator 26.0.1, SVG Export Plug-In . SVG Version: 6.00 Build 0)  -->
<svg version="1.1" id="Layer_1" xmlns="http://www.w3.org/2000/svg" xmlns:xlink="http://www.w3.org/1999/xlink" x="0px" y="0px"
	 viewBox="0 0 150 150" style="enable-background:new 0 0 150 150;" xml:space="preserve">
<style type="text/css">
	.st0{fill:#A54294;}
</style>
<path class="st0" d="M72.2,141.2l-2.9-3.2c-1.8-1.8-43.8-51.4-43.8-81.2c0-25.9,20.8-46.7,46.7-46.7s46.7,20.8,46.7,46.7
	c0,29.8-42,79.4-43.8,81.6L72.2,141.2z M72.2,17.2c-21.9,0-39.5,17.6-39.5,39.5c0,23,30.2,61.8,39.5,73.3
	c9.3-11.5,39.5-50.3,39.5-73.3C111.7,34.8,94.1,17.2,72.2,17.2L72.2,17.2z"/>
<path class="st0" d="M72.2,74.7c-10.1,0-18-7.9-18-18s7.9-18,18-18s18,7.9,18,18S82.3,74.7,72.2,74.7z M72.2,46
	c-6.1,0-10.8,4.7-10.8,10.8s4.7,10.8,10.8,10.8S83,62.9,83,56.8S78.3,46,72.2,46z"/>
</svg>
