<svg width="200" height="200" viewBox="0 0 200 200" fill="none" xmlns="http://www.w3.org/2000/svg">
<path d="M38.0123 51.2043H24.9076C23.8844 51.2043 23.0547 52.034 23.0547 53.0573C23.0547 54.0805 23.8844 54.9102 24.9076 54.9102H38.0123C39.0355 54.9102 39.8652 54.0805 39.8652 53.0573C39.8652 52.034 39.0355 51.2043 38.0123 51.2043Z" fill="black"/>
<path d="M68.4049 51.2043H55.3002C54.277 51.2043 53.4473 52.034 53.4473 53.0573C53.4473 54.0805 54.277 54.9102 55.3002 54.9102H68.4049C69.4281 54.9102 70.2578 54.0805 70.2578 53.0573C70.2578 52.034 69.4281 51.2043 68.4049 51.2043Z" fill="black"/>
<path d="M99.0753 51.2043H85.9682C84.9449 51.2043 84.1152 52.034 84.1152 53.0573C84.1152 54.0805 84.9449 54.9102 85.9682 54.9102H99.0753C100.099 54.9102 100.928 54.0805 100.928 53.0573C100.928 52.034 100.099 51.2043 99.0753 51.2043Z" fill="black"/>
<path d="M38.0123 69.6084H24.9076C23.8844 69.6084 23.0547 70.4381 23.0547 71.4613C23.0547 72.4845 23.8844 73.3142 24.9076 73.3142H38.0123C39.0355 73.3142 39.8652 72.4845 39.8652 71.4613C39.8652 70.4381 39.0355 69.6084 38.0123 69.6084Z" fill="black"/>
<path d="M68.4049 69.6084H55.3002C54.277 69.6084 53.4473 70.4381 53.4473 71.4613C53.4473 72.4845 54.277 73.3142 55.3002 73.3142H68.4049C69.4281 73.3142 70.2578 72.4845 70.2578 71.4613C70.2578 70.4381 69.4281 69.6084 68.4049 69.6084Z" fill="black"/>
<path d="M99.0753 69.6084H85.9682C84.9449 69.6084 84.1152 70.4381 84.1152 71.4613C84.1152 72.4845 84.9449 73.3142 85.9682 73.3142H99.0753C100.099 73.3142 100.928 72.4845 100.928 71.4613C100.928 70.4381 100.099 69.6084 99.0753 69.6084Z" fill="black"/>
<path d="M38.0123 87.7468H24.9076C23.8844 87.7468 23.0547 88.5765 23.0547 89.5997C23.0547 90.623 23.8844 91.4527 24.9076 91.4527H38.0123C39.0355 91.4527 39.8652 90.623 39.8652 89.5997C39.8652 88.5765 39.0355 87.7468 38.0123 87.7468Z" fill="black"/>
<path d="M68.4049 87.7468H55.3002C54.277 87.7468 53.4473 88.5765 53.4473 89.5997C53.4473 90.623 54.277 91.4527 55.3002 91.4527H68.4049C69.4281 91.4527 70.2578 90.623 70.2578 89.5997C70.2578 88.5765 69.4281 87.7468 68.4049 87.7468Z" fill="black"/>
<path d="M99.0753 87.7468H85.9682C84.9449 87.7468 84.1152 88.5765 84.1152 89.5997C84.1152 90.623 84.9449 91.4527 85.9682 91.4527H99.0753C100.099 91.4527 100.928 90.623 100.928 89.5997C100.928 88.5765 100.099 87.7468 99.0753 87.7468Z" fill="black"/>
<path d="M38.0123 106.149H24.9076C23.8844 106.149 23.0547 106.978 23.0547 108.002C23.0547 109.025 23.8844 109.855 24.9076 109.855H38.0123C39.0355 109.855 39.8652 109.025 39.8652 108.002C39.8652 106.978 39.0355 106.149 38.0123 106.149Z" fill="black"/>
<path d="M68.4049 106.149H55.3002C54.277 106.149 53.4473 106.978 53.4473 108.002C53.4473 109.025 54.277 109.855 55.3002 109.855H68.4049C69.4281 109.855 70.2578 109.025 70.2578 108.002C70.2578 106.978 69.4281 106.149 68.4049 106.149Z" fill="black"/>
<path d="M99.0753 106.149H85.9682C84.9449 106.149 84.1152 106.978 84.1152 108.002C84.1152 109.025 84.9449 109.855 85.9682 109.855H99.0753C100.099 109.855 100.928 109.025 100.928 108.002C100.928 106.978 100.099 106.149 99.0753 106.149Z" fill="black"/>
<path d="M38.0123 124.549H24.9076C23.8844 124.549 23.0547 125.379 23.0547 126.402C23.0547 127.425 23.8844 128.255 24.9076 128.255H38.0123C39.0355 128.255 39.8652 127.425 39.8652 126.402C39.8652 125.379 39.0355 124.549 38.0123 124.549Z" fill="black"/>
<path d="M68.4049 124.549H55.3002C54.277 124.549 53.4473 125.379 53.4473 126.402C53.4473 127.425 54.277 128.255 55.3002 128.255H68.4049C69.4281 128.255 70.2578 127.425 70.2578 126.402C70.2578 125.379 69.4281 124.549 68.4049 124.549Z" fill="black"/>
<path d="M99.0753 124.549H85.9682C84.9449 124.549 84.1152 125.379 84.1152 126.402C84.1152 127.425 84.9449 128.255 85.9682 128.255H99.0753C100.099 128.255 100.928 127.425 100.928 126.402C100.928 125.379 100.099 124.549 99.0753 124.549Z" fill="black"/>
<path d="M38.0123 142.953H24.9076C23.8844 142.953 23.0547 143.783 23.0547 144.806C23.0547 145.829 23.8844 146.659 24.9076 146.659H38.0123C39.0355 146.659 39.8652 145.829 39.8652 144.806C39.8652 143.783 39.0355 142.953 38.0123 142.953Z" fill="black"/>
<path d="M68.4049 142.953H55.3002C54.277 142.953 53.4473 143.783 53.4473 144.806C53.4473 145.829 54.277 146.659 55.3002 146.659H68.4049C69.4281 146.659 70.2578 145.829 70.2578 144.806C70.2578 143.783 69.4281 142.953 68.4049 142.953Z" fill="black"/>
<path d="M99.0753 142.953H85.9682C84.9449 142.953 84.1152 143.783 84.1152 144.806C84.1152 145.829 84.9449 146.659 85.9682 146.659H99.0753C100.099 146.659 100.928 145.829 100.928 144.806C100.928 143.783 100.099 142.953 99.0753 142.953Z" fill="black"/>
<path d="M38.0123 161.351H24.9076C23.8844 161.351 23.0547 162.181 23.0547 163.204C23.0547 164.227 23.8844 165.057 24.9076 165.057H38.0123C39.0355 165.057 39.8652 164.227 39.8652 163.204C39.8652 162.181 39.0355 161.351 38.0123 161.351Z" fill="black"/>
<path d="M68.4049 161.351H55.3002C54.277 161.351 53.4473 162.181 53.4473 163.204C53.4473 164.227 54.277 165.057 55.3002 165.057H68.4049C69.4281 165.057 70.2578 164.227 70.2578 163.204C70.2578 162.181 69.4281 161.351 68.4049 161.351Z" fill="black"/>
<path d="M99.0753 161.351H85.9682C84.9449 161.351 84.1152 162.181 84.1152 163.204C84.1152 164.227 84.9449 165.057 85.9682 165.057H99.0753C100.099 165.057 100.928 164.227 100.928 163.204C100.928 162.181 100.099 161.351 99.0753 161.351Z" fill="black"/>
<path d="M38.0123 179.49H24.9076C23.8844 179.49 23.0547 180.319 23.0547 181.342C23.0547 182.366 23.8844 183.195 24.9076 183.195H38.0123C39.0355 183.195 39.8652 182.366 39.8652 181.342C39.8652 180.319 39.0355 179.49 38.0123 179.49Z" fill="black"/>
<path d="M68.4049 179.49H55.3002C54.277 179.49 53.4473 180.319 53.4473 181.342C53.4473 182.366 54.277 183.195 55.3002 183.195H68.4049C69.4281 183.195 70.2578 182.366 70.2578 181.342C70.2578 180.319 69.4281 179.49 68.4049 179.49Z" fill="black"/>
<path d="M99.0753 179.49H85.9682C84.9449 179.49 84.1152 180.319 84.1152 181.342C84.1152 182.366 84.9449 183.195 85.9682 183.195H99.0753C100.099 183.195 100.928 182.366 100.928 181.342C100.928 180.319 100.099 179.49 99.0753 179.49Z" fill="black"/>
<path d="M189.854 89.3288C189.805 89.2811 189.752 89.2362 189.698 89.1946C188.03 87.9165 185.948 87.2128 183.834 87.2128H143.863V69.8633C143.863 68.8401 143.033 68.0104 142.01 68.0104C140.986 68.0104 140.157 68.8401 140.157 69.8633V87.2128H115.707V31.1912C115.707 28.0219 114.674 25.1948 112.72 23.0161C112.689 22.9807 112.655 22.9466 112.621 22.9136C110.477 20.8647 107.746 19.7361 104.931 19.7361H47.671V1.85292C47.671 0.829696 46.8413 0 45.8181 0C44.7949 0 43.9652 0.829696 43.9652 1.85292V19.7361H19.0619C16.2447 19.7361 13.5098 20.8639 11.3612 22.912C11.3258 22.9461 11.2916 22.9811 11.2587 23.0178C9.15705 25.3665 8 28.269 8 31.1916V188.279C8 191.198 9.15746 194.099 11.2603 196.45C13.3146 198.74 16.0849 200 19.0615 200H100.186H104.93H183.834C186.262 200 188.364 198.775 189.7 197.748C189.754 197.706 189.805 197.662 189.854 197.615C191.429 196.101 192.369 194.006 192.369 192.011V94.9337C192.37 92.9371 191.429 90.842 189.854 89.3288ZM112.001 188.278C112.001 190.517 111.296 192.487 109.96 193.976C108.602 195.492 106.863 196.294 104.93 196.294H100.186H19.0615C17.1238 196.294 15.38 195.492 14.0203 193.976C12.9646 192.797 11.7058 190.85 11.7058 188.278V31.1912C11.7058 28.656 12.9259 26.7294 13.9709 25.5439C15.4183 24.188 17.223 23.4419 19.0615 23.4419H104.931C106.765 23.4419 108.565 24.1876 110.009 25.5435C111.313 27.0254 112.001 28.9768 112.001 31.1916V188.278H112.001ZM188.664 192.01C188.664 192.96 188.153 194.074 187.356 194.874C186.138 195.79 184.891 196.293 183.834 196.293H112.853C114.719 194.136 115.707 191.37 115.707 188.278V90.9186H183.834C185.102 90.9186 186.349 91.3279 187.36 92.0728C188.155 92.872 188.664 93.9842 188.664 94.9333V192.01H188.664Z" fill="black"/>
<path d="M143.682 105.085H130.578C129.554 105.085 128.725 105.915 128.725 106.938C128.725 107.961 129.554 108.791 130.578 108.791H143.682C144.705 108.791 145.535 107.961 145.535 106.938C145.535 105.915 144.705 105.085 143.682 105.085Z" fill="black"/>
<path d="M174.075 105.085H160.974C159.951 105.085 159.121 105.915 159.121 106.938C159.121 107.961 159.951 108.791 160.974 108.791H174.075C175.098 108.791 175.927 107.961 175.927 106.938C175.927 105.915 175.098 105.085 174.075 105.085Z" fill="black"/>
<path d="M143.682 123.217H130.578C129.554 123.217 128.725 124.046 128.725 125.069C128.725 126.093 129.554 126.922 130.578 126.922H143.682C144.705 126.922 145.535 126.093 145.535 125.069C145.535 124.046 144.705 123.217 143.682 123.217Z" fill="black"/>
<path d="M174.075 123.217H160.974C159.951 123.217 159.121 124.046 159.121 125.069C159.121 126.093 159.951 126.922 160.974 126.922H174.075C175.098 126.922 175.927 126.093 175.927 125.069C175.927 124.046 175.098 123.217 174.075 123.217Z" fill="black"/>
<path d="M143.682 141.615H130.578C129.554 141.615 128.725 142.445 128.725 143.468C128.725 144.491 129.554 145.321 130.578 145.321H143.682C144.705 145.321 145.535 144.491 145.535 143.468C145.535 142.445 144.705 141.615 143.682 141.615Z" fill="black"/>
<path d="M174.075 141.615H160.974C159.951 141.615 159.121 142.445 159.121 143.468C159.121 144.491 159.951 145.321 160.974 145.321H174.075C175.098 145.321 175.927 144.491 175.927 143.468C175.927 142.445 175.098 141.615 174.075 141.615Z" fill="black"/>
<path d="M143.682 160.019H130.578C129.554 160.019 128.725 160.849 128.725 161.872C128.725 162.895 129.554 163.725 130.578 163.725H143.682C144.705 163.725 145.535 162.895 145.535 161.872C145.535 160.849 144.705 160.019 143.682 160.019Z" fill="black"/>
<path d="M174.075 160.019H160.974C159.951 160.019 159.121 160.849 159.121 161.872C159.121 162.895 159.951 163.725 160.974 163.725H174.075C175.098 163.725 175.927 162.895 175.927 161.872C175.927 160.849 175.098 160.019 174.075 160.019Z" fill="black"/>
<path d="M143.682 178.423H130.578C129.554 178.423 128.725 179.253 128.725 180.276C128.725 181.299 129.554 182.129 130.578 182.129H143.682C144.705 182.129 145.535 181.299 145.535 180.276C145.535 179.253 144.705 178.423 143.682 178.423Z" fill="black"/>
<path d="M174.075 178.423H160.974C159.951 178.423 159.121 179.253 159.121 180.276C159.121 181.299 159.951 182.129 160.974 182.129H174.075C175.098 182.129 175.927 181.299 175.927 180.276C175.927 179.253 175.098 178.423 174.075 178.423Z" fill="black"/>
</svg>
