<svg width="200" height="200" viewBox="0 0 200 200" fill="none" xmlns="http://www.w3.org/2000/svg">
<g clip-path="url(#clip0_46_141)">
<path d="M82.4808 25.4125C80.7109 25.4125 79.2748 23.9765 79.2748 22.2065C79.2748 20.4365 80.7109 19.0005 82.4808 19.0005H167.965C172.131 19.0005 175.988 20.4532 178.985 22.9413C181.983 25.4125 184.137 28.9275 184.913 33.0183L187.376 45.8422C187.418 45.9925 187.443 46.1595 187.468 46.3265L192.761 73.9278C192.803 74.0697 192.828 74.22 192.844 74.3619L198.146 102.006L198.163 102.081L198.205 102.315L198.221 102.39L199.674 109.979C200.167 112.567 200.1 115.089 199.482 117.51C198.889 119.906 197.729 122.169 196.034 124.214L195.95 124.314C195.224 125.182 194.456 125.959 193.663 126.61L193.588 126.669C192.769 127.336 191.884 127.929 190.949 128.447C189.405 129.29 187.459 128.714 186.616 127.169C185.773 125.625 186.349 123.68 187.894 122.836C188.436 122.544 188.987 122.169 189.505 121.743L189.58 121.676C190.123 121.225 190.615 120.741 191.058 120.215L191.1 120.165C192.168 118.871 192.903 117.443 193.287 115.94C193.679 114.462 193.713 112.859 193.396 111.181L192.402 106.013H155.324L157.211 124.08H177.874C179.644 124.08 181.08 125.516 181.08 127.286C181.08 129.056 179.644 130.492 177.874 130.492H117.687V156.14H119.382C122.822 156.14 125.961 157.551 128.24 159.822L128.257 159.839C130.536 162.118 131.947 165.257 131.947 168.697V178.607C131.947 180.377 130.511 181.813 128.741 181.813H95.3372C93.5673 181.813 92.1313 180.377 92.1313 178.607C92.1313 176.837 93.5673 175.401 95.3372 175.401H125.535V168.697C125.535 167.002 124.842 165.466 123.74 164.355C122.622 163.237 121.077 162.544 119.391 162.544H80.6431C78.9399 162.544 77.4121 163.237 76.3018 164.339C75.183 165.457 74.4901 167.002 74.4901 168.689V175.393H83.532C85.3019 175.393 86.738 176.829 86.738 178.599C86.738 180.369 85.3019 181.805 83.532 181.805H71.2841C69.5141 181.805 68.0781 180.369 68.0781 178.599V168.689C68.0781 165.249 69.4891 162.11 71.7601 159.83L71.7768 159.814C74.056 157.535 77.1953 156.123 80.6349 156.123H82.3297V130.476H17.2826C14.6526 130.476 12.1814 129.933 9.91887 128.864C7.66464 127.804 5.65257 126.243 3.97456 124.206L3.82428 124.005C2.22965 122.018 1.11929 119.822 0.518064 117.493C-0.0997495 115.072 -0.166541 112.542 0.326038 109.962L1.8038 102.298L1.8205 102.215L1.85389 102.064L7.17218 74.3284C7.18888 74.1949 7.21393 74.0696 7.24732 73.936L12.5489 46.3091C12.5656 46.1504 12.5907 45.9918 12.6408 45.8415L15.1036 33.001C15.8884 28.9016 18.0341 25.4034 21.0312 22.9239L21.24 22.7736C24.2121 20.3858 27.9858 19 32.0601 19H70.6986C72.4686 19 73.9046 20.436 73.9046 22.206C73.9046 23.976 72.4686 25.412 70.6986 25.412H59.5612L57.6744 43.4872H96.8215V25.412L82.4808 25.4125ZM111.277 130.483H88.7517V156.131H111.285V130.483H111.277ZM103.22 43.4878H142.367L140.481 25.4125H103.219L103.22 43.4878ZM103.22 49.8997V71.5401H126.397C128.167 71.5401 129.603 72.9761 129.603 74.746C129.603 76.516 128.167 77.952 126.397 77.952H103.22V99.5924H148.23L145.967 77.952H138.186C136.416 77.952 134.98 76.516 134.98 74.746C134.98 72.9761 136.416 71.5401 138.186 71.5401H145.3L143.037 49.8997H103.22ZM103.22 106.004V124.071H150.784L148.897 106.004H103.22ZM96.8083 124.071V106.004H51.1317L49.2449 124.071H96.8083ZM96.8083 99.5926V77.9522H54.062L51.7994 99.5926H96.8083ZM96.8083 71.5403V49.8999H56.9922L54.7297 71.5403H96.8083ZM44.7026 106.005H7.61591L6.6224 111.173C6.30514 112.842 6.33854 114.445 6.72259 115.932C7.08995 117.351 7.78289 118.728 8.80147 119.997L8.9267 120.139C10.0037 121.442 11.2645 122.435 12.6587 123.086C14.0279 123.738 15.5975 124.072 17.3007 124.072H42.8224L44.7093 106.005L44.7026 106.005ZM53.1183 25.4127H32.0457C29.4659 25.4127 27.1031 26.281 25.2496 27.7419L25.1077 27.8672C23.2292 29.4201 21.8767 31.6325 21.3841 34.2124L19.5974 43.488H51.2233L53.1101 25.4127L53.1183 25.4127ZM148.789 43.488H180.406L178.62 34.2125C178.127 31.6244 176.775 29.4202 174.896 27.8672C173.026 26.3226 170.596 25.4127 167.958 25.4127H146.894L148.781 43.488H148.789ZM149.457 49.8999L151.719 71.5403H185.784L181.626 49.8999H149.44H149.457ZM152.387 77.9522L154.65 99.5926H191.177L187.019 77.9522H152.387ZM45.3633 99.5926L47.6259 77.9522H12.9863L8.82862 99.5926H45.3633ZM48.2938 71.5403L50.5563 49.8999H18.3705L14.2127 71.5403H48.2938Z" fill="black"/>
</g>
<defs>
<clipPath id="clip0_46_141">
<rect width="200" height="200" fill="white"/>
</clipPath>
</defs>
</svg>
