<svg width="200" height="200" viewBox="0 0 200 200" fill="none" xmlns="http://www.w3.org/2000/svg">
<g clip-path="url(#clip0_46_143)">
<path d="M192.716 72.4694C197.424 67.0212 200.01 60.0589 200 52.859C200.007 51.5988 199.627 50.3668 198.912 49.3292C198.196 48.2917 197.18 47.4984 196 47.0565C194.843 46.6132 193.578 46.5352 192.376 46.8332C191.174 47.1312 190.092 47.7908 189.276 48.723C185.306 53.1016 180.184 56.2763 174.496 57.8849C166.023 27.9961 133.933 6.6659 96.6665 6.6659C87.4833 6.64165 78.3465 7.96901 69.5499 10.6053C68.666 9.25213 67.6438 7.99445 66.4999 6.85254C64.3443 4.66962 61.7745 2.93907 58.9412 1.76239C56.1078 0.585719 53.0679 -0.013384 49.9999 0.000226811C48.2318 0.000226811 46.5361 0.702501 45.2859 1.95256C44.0356 3.20261 43.3333 4.89805 43.3333 6.6659V23.6634C34.1253 30.3337 26.7638 39.2343 21.94 49.5295L8.03999 52.3191C5.77679 52.7803 3.74166 54.0072 2.27726 55.7931C0.812861 57.579 0.00863839 59.8149 0 62.1243L0 84.521C0.0103255 86.8297 0.815719 89.0643 2.28065 90.849C3.74558 92.6336 5.78062 93.8592 8.04332 94.3195L21.94 97.1091C26.8978 107.693 34.5314 116.8 44.0866 123.532L46.0199 141.069C46.2886 143.519 47.4524 145.783 49.2881 147.427C51.1238 149.071 53.5021 149.979 55.9666 149.978H70.6999C73.1636 149.984 75.5426 149.079 77.3789 147.437C79.2152 145.795 80.3791 143.531 80.6465 141.083L80.9132 138.68C85.1816 139.365 89.4914 139.76 93.8132 139.863C92.5588 149.568 94.0005 159.43 97.9803 168.37C101.96 177.31 108.324 184.983 116.376 190.546C124.427 196.11 133.855 199.35 143.625 199.912C153.396 200.474 163.133 198.336 171.769 193.732C180.406 189.128 187.608 182.236 192.586 173.811C197.565 165.386 200.128 155.754 199.995 145.969C199.862 136.184 197.037 126.625 191.831 118.339C186.625 110.053 179.238 103.359 170.48 98.9921C173.175 93.705 175.034 88.0317 175.99 82.1746C182.506 80.9326 188.405 77.5098 192.716 72.4694ZM193.333 146.645C193.333 155.873 190.596 164.895 185.468 172.568C180.34 180.241 173.052 186.221 164.525 189.753C155.998 193.285 146.615 194.209 137.562 192.408C128.51 190.608 120.195 186.164 113.668 179.638C107.142 173.113 102.697 164.799 100.897 155.748C99.0959 146.697 100.02 137.315 103.552 128.789C107.084 120.263 113.066 112.976 120.74 107.849C128.414 102.722 137.437 99.9853 146.666 99.9853C159.039 99.9986 170.901 104.919 179.65 113.666C188.399 122.414 193.32 134.274 193.333 146.645ZM172.333 75.9889C171.643 76.1304 171.015 76.4869 170.54 77.0072C170.065 77.5276 169.768 78.185 169.69 78.8851C168.974 84.9947 167.149 90.9222 164.303 96.3759C157.349 93.9066 149.956 92.9143 142.596 93.4621C135.237 94.01 128.073 96.0861 121.561 99.5578C115.049 103.03 109.332 107.821 104.776 113.625C100.22 119.43 96.9246 126.121 95.0999 133.27C89.5785 133.183 84.0771 132.584 78.6665 131.481C78.2116 131.385 77.7416 131.385 77.2869 131.482C76.8321 131.578 76.4026 131.769 76.0258 132.041C75.6491 132.314 75.3336 132.662 75.0995 133.064C74.8654 133.465 74.7179 133.912 74.6665 134.374L73.9999 140.349C73.9085 141.168 73.5173 141.923 72.9018 142.47C72.2864 143.017 71.4901 143.317 70.6666 143.312H55.9666C55.1425 143.317 54.3458 143.017 53.7303 142.469C53.1147 141.921 52.7239 141.165 52.6332 140.346L50.5333 121.315C50.4806 120.842 50.3269 120.385 50.0825 119.975C49.8381 119.566 49.5087 119.214 49.1166 118.942C39.529 112.514 31.9809 103.478 27.3633 92.8997C27.153 92.3964 26.8224 91.9524 26.4005 91.6066C25.9785 91.2609 25.4782 91.024 24.9433 90.9167L9.36332 87.7871C8.60688 87.6355 7.92578 87.2279 7.43464 86.6331C6.94349 86.0382 6.67229 85.2923 6.66666 84.521V62.1243C6.67213 61.3534 6.94286 60.6079 7.43335 60.0131C7.92383 59.4183 8.60416 59.0104 9.35999 58.8581L24.9566 55.7286C25.4932 55.6196 25.9948 55.3802 26.4168 55.0314C26.8389 54.6827 27.1685 54.2353 27.3766 53.7289C31.9071 43.3577 39.2581 34.4662 48.5933 28.066C49.0257 27.7598 49.379 27.3548 49.6236 26.8847C49.8682 26.4146 49.9972 25.893 49.9999 25.3631V6.6659C52.1888 6.65561 54.3578 7.0825 56.3795 7.92151C58.4012 8.76052 60.235 9.99477 61.7732 11.5518C63.0896 12.8709 64.1798 14.3978 64.9999 16.0712C65.3566 16.7954 65.9642 17.3656 66.7097 17.6758C67.4552 17.986 68.2879 18.015 69.0532 17.7576C77.9564 14.7935 87.2828 13.2986 96.6665 13.3316C132.206 13.3316 162.55 34.0818 168.813 62.6576C169.003 63.5199 169.527 64.2717 170.271 64.7478C171.015 65.224 171.917 65.3856 172.78 65.1972C180.568 63.6613 187.716 59.8214 193.296 54.1755C193.012 59.317 191.033 64.2196 187.666 68.1167C184.064 72.3339 179.033 75.075 173.536 75.8156C173.156 75.8589 172.743 75.9056 172.333 75.9889Z" fill="black"/>
<path d="M51.6667 39.9941C49.3592 39.9941 47.1036 40.6783 45.185 41.96C43.2664 43.2418 41.7711 45.0636 40.8881 47.1951C40.0051 49.3266 39.774 51.672 40.2242 53.9348C40.6743 56.1976 41.7855 58.2761 43.4171 59.9074C45.0487 61.5388 47.1275 62.6498 49.3906 63.0999C51.6537 63.55 53.9995 63.3189 56.1313 62.4361C58.2631 61.5532 60.0852 60.058 61.3671 58.1398C62.6491 56.2215 63.3333 53.9662 63.3333 51.6591C63.3333 48.5653 62.1041 45.5983 59.9162 43.4107C57.7283 41.2231 54.7608 39.9941 51.6667 39.9941ZM51.6667 56.6583C50.6778 56.6583 49.7111 56.3651 48.8888 55.8158C48.0666 55.2665 47.4257 54.4857 47.0473 53.5722C46.6688 52.6587 46.5698 51.6535 46.7627 50.6838C46.9557 49.714 47.4319 48.8232 48.1311 48.1241C48.8304 47.4249 49.7213 46.9488 50.6912 46.7559C51.6611 46.563 52.6664 46.662 53.5801 47.0404C54.4937 47.4187 55.2746 48.0595 55.824 48.8816C56.3734 49.7038 56.6666 50.6703 56.6666 51.6591C56.6666 52.985 56.1399 54.2565 55.2022 55.1941C54.2645 56.1316 52.9927 56.6583 51.6667 56.6583Z" fill="black"/>
<path d="M126.376 115.296C126.003 114.512 125.337 113.904 124.522 113.603C123.707 113.302 122.807 113.33 122.013 113.683C121.219 114.036 120.594 114.685 120.271 115.492C119.949 116.299 119.954 117.2 120.286 118.002C127.689 136.412 132.027 155.909 133.126 175.72C130.256 175.35 127.439 174.644 124.733 173.617C123.936 173.27 123.035 173.248 122.222 173.556C121.409 173.864 120.748 174.477 120.381 175.265C120.014 176.052 119.969 176.952 120.255 177.773C120.542 178.593 121.138 179.269 121.916 179.657C122.233 179.807 129.876 183.306 145.846 183.306C167.326 183.306 178.309 174.597 178.766 174.224C179.42 173.659 179.829 172.861 179.906 172C179.984 171.139 179.723 170.281 179.179 169.608C178.636 168.936 177.852 168.5 176.994 168.395C176.136 168.289 175.27 168.521 174.579 169.042C173.672 169.705 172.716 170.298 171.719 170.818C168.259 162.105 165.839 153.015 164.509 143.735C166.253 142.982 167.176 142.469 167.296 142.402C168.063 141.962 168.624 141.236 168.855 140.383C169.086 139.53 168.969 138.62 168.529 137.853C168.09 137.086 167.363 136.525 166.51 136.294C165.657 136.063 164.746 136.18 163.979 136.62C163.889 136.67 155.183 141.472 135.46 144.145C133.303 134.276 130.263 124.621 126.376 115.296ZM145.846 176.64C143.643 176.64 141.683 176.554 139.846 176.434C139.683 172.698 139.416 169.048 139.036 165.519L162.086 163.439C163.093 166.845 164.273 170.198 165.619 173.484C159.254 175.647 152.568 176.714 145.846 176.64ZM158.116 146.082C158.696 149.724 159.433 153.36 160.299 156.907L138.186 158.906C137.775 156.073 137.316 153.337 136.809 150.698C144.03 149.764 151.157 148.22 158.116 146.082Z" fill="black"/>
<path d="M114.027 21.8166C102.573 19.3924 90.7376 19.4014 79.2873 21.8432C78.4875 22.0216 77.7814 22.4884 77.3039 23.1543C76.8265 23.8202 76.6111 24.6387 76.6989 25.4533C76.7867 26.268 77.1716 27.0217 77.78 27.5706C78.3885 28.1195 79.1778 28.4251 79.9973 28.4289C80.2372 28.4296 80.4764 28.4039 80.7106 28.3523C91.2335 26.117 102.108 26.1091 112.634 28.3289C113.067 28.4345 113.517 28.4522 113.957 28.3809C114.397 28.3096 114.818 28.1508 115.196 27.9138C115.573 27.6769 115.899 27.3667 116.155 27.0015C116.41 26.6363 116.59 26.2236 116.683 25.7878C116.776 25.352 116.781 24.9019 116.697 24.4642C116.614 24.0265 116.443 23.61 116.195 23.2394C115.947 22.8689 115.628 22.5517 115.256 22.3067C114.883 22.0618 114.466 21.8973 114.027 21.8166Z" fill="black"/>
</g>
<defs>
<clipPath id="clip0_46_143">
<rect width="200" height="200" fill="white"/>
</clipPath>
</defs>
</svg>
