<svg width="200" height="200" viewBox="0 0 200 200" fill="none" xmlns="http://www.w3.org/2000/svg">
<g clip-path="url(#clip0_46_140)">
<path d="M145.659 64.7873C151.485 64.7873 156.211 60.0559 156.234 54.222C156.234 48.3882 151.508 43.6338 145.682 43.6338C139.856 43.6338 135.13 48.3652 135.107 54.1991C135.107 60.0329 139.833 64.7873 145.659 64.7873ZM145.659 46.367C149.971 46.367 153.481 49.8811 153.458 54.1991C153.458 58.5171 149.948 62.0082 145.636 62.0082C141.324 62.0082 137.814 58.4941 137.837 54.1761C137.837 49.8581 141.347 46.367 145.659 46.367Z" fill="black"/>
<path d="M145.66 72.2285C144.903 72.2285 144.283 72.8487 144.283 73.6066V81.0712C144.283 81.8291 144.88 82.4493 145.637 82.4493C146.394 82.4493 147.013 81.8291 147.013 81.0712V73.6066C147.013 72.8487 146.416 72.2285 145.66 72.2285Z" fill="black"/>
<path d="M118.957 125.79C119.164 125.882 119.37 125.951 119.599 125.951C119.898 125.951 120.196 125.859 120.448 125.652C120.861 125.308 121.067 124.756 120.93 124.251C120.448 122.299 120.219 120.278 120.219 118.256C120.219 114.168 121.205 110.195 123.063 106.635C124.669 110.677 126.527 114.306 128.591 117.407C128.843 117.797 129.279 118.027 129.738 118.027H135.381C136.757 130.613 144.258 140.145 144.602 140.558C144.854 140.88 145.267 141.064 145.68 141.064C146.093 141.064 146.483 140.88 146.758 140.558C147.079 140.145 154.626 130.636 156.048 118.05H161.691C162.15 118.05 162.586 117.82 162.838 117.453C164.902 114.398 166.76 110.769 168.389 106.704C170.224 110.287 171.21 114.26 171.21 118.348C171.21 120.37 170.958 122.391 170.476 124.343C170.339 124.871 170.545 125.423 170.958 125.767C171.21 125.974 171.509 126.066 171.807 126.066C172.013 126.066 172.243 126.02 172.426 125.905C181.808 121.059 187.657 111.481 187.657 100.916C187.657 91.315 182.909 82.5872 174.904 77.3505C175.202 73.8364 175.362 70.2534 175.362 66.6015C175.362 51.7871 171.417 38.8331 166.462 28.3827C166.416 28.1071 166.302 27.8315 166.095 27.6477C157.814 10.6514 146.988 0.522522 146.804 0.361746C146.277 -0.120582 145.474 -0.120582 144.946 0.361746C144.763 0.522522 133.89 10.6284 125.563 27.6018C125.38 27.7855 125.288 28.0152 125.219 28.2908C120.196 38.7183 116.205 51.6952 116.182 66.5096C116.182 70.1156 116.342 73.7215 116.617 77.2586C108.612 82.4724 103.818 91.1772 103.795 100.801C103.795 111.366 109.598 120.967 118.957 125.836V125.79ZM145.657 137.32C143.593 134.288 139.235 126.892 138.156 118.004H153.204C152.126 126.892 147.722 134.288 145.634 137.32H145.657ZM160.934 115.294L130.472 115.248C128.775 112.629 127.238 109.621 125.884 106.29L165.545 106.336C164.168 109.689 162.632 112.675 160.934 115.271V115.294ZM184.882 100.87C184.882 109.414 180.638 117.246 173.688 121.908C173.848 120.714 173.917 119.52 173.917 118.325C173.917 112.997 172.426 107.829 169.605 103.327C172.013 96.4369 173.688 88.6967 174.582 80.4512C181.074 85.2285 184.905 92.6931 184.882 100.87ZM145.841 3.27868C148.479 5.96594 156.278 14.4641 162.792 27.2113L128.843 27.1654C135.381 14.4182 143.203 5.94297 145.864 3.27868H145.841ZM127.467 29.9216L164.1 29.9675C168.825 40.0275 172.587 52.4072 172.564 66.5555C172.564 80.0148 170.522 92.6931 166.715 103.212C166.669 103.35 166.623 103.465 166.577 103.603L124.806 103.534C124.738 103.35 124.669 103.167 124.6 102.983C121.985 95.5641 120.173 86.8592 119.393 77.7869C119.072 74.089 118.911 70.2763 118.911 66.4866C118.911 52.3383 122.719 39.9586 127.467 29.9216ZM116.916 80.3593C117.787 88.5589 119.439 96.4139 121.801 103.258C118.98 107.737 117.466 112.905 117.443 118.234C117.443 119.428 117.512 120.622 117.673 121.817C110.722 117.108 106.525 109.276 106.525 100.732C106.525 92.5553 110.401 85.0907 116.916 80.3363V80.3593Z" fill="black"/>
<path d="M199.153 157.716C197.96 154.638 195.643 152.227 192.638 150.894C189.633 149.562 186.262 149.493 183.211 150.688L145.73 165.318C145.684 160.518 142.931 156.062 138.504 153.972L93.4763 132.727C82.6954 127.651 70.3316 127.146 59.5277 131.372L15.2798 148.644L13.6971 144.578C13.5595 144.234 13.3072 143.958 12.9631 143.82C12.619 143.683 12.252 143.66 11.9079 143.82L0.87463 148.138C0.163544 148.414 -0.18053 149.218 0.094729 149.93L19.2482 199.127C19.4546 199.679 19.9822 200 20.5327 200C20.6933 200 20.8768 199.977 21.0373 199.908L32.0706 195.613C32.4147 195.475 32.69 195.223 32.8276 194.878C32.9652 194.534 32.9882 194.166 32.8276 193.822L30.9926 189.136L49.2285 182.016C54.0684 180.133 59.5048 179.995 64.5283 181.672L108.18 196.096C112.515 197.52 117.034 198.255 121.53 198.255C126.668 198.255 131.76 197.313 136.531 195.452L192.157 173.725C198.488 171.244 201.63 164.078 199.153 157.739V157.716ZM21.2897 196.808L3.14552 150.182L11.6097 146.875L29.7539 193.5L21.2897 196.808ZM191.147 171.129L135.522 192.857C127.15 196.118 117.745 196.325 109.051 193.454L65.3999 179.03C62.762 178.158 60.0324 177.721 57.3257 177.721C54.2061 177.721 51.1323 178.295 48.2192 179.421L29.9833 186.541L16.2433 151.239L60.4911 133.967C70.7445 129.971 82.0302 130.43 92.2836 135.253L137.311 156.499C141.234 158.359 143.551 162.838 142.817 167.202C142.679 168.006 142.45 168.787 142.105 169.499C141.142 171.612 139.445 173.219 137.357 174.046C135.132 174.919 132.678 174.827 130.453 173.771L128.136 172.668L104.533 161.552C103.867 161.253 103.087 161.506 102.743 162.126L100.45 166.237C100.266 166.559 100.22 166.972 100.335 167.317C100.45 167.684 100.702 167.983 101.046 168.143L114.511 174.597C116.667 175.631 118.938 176.205 121.255 176.32C123.388 176.412 125.475 176.09 127.471 175.401L129.283 176.251C132.196 177.629 135.43 177.767 138.367 176.619C141.142 175.539 143.344 173.426 144.606 170.647C144.606 170.624 144.629 170.601 144.652 170.578C144.95 169.889 145.202 169.177 145.363 168.465L184.174 153.306C186.56 152.387 189.152 152.433 191.491 153.467C193.831 154.5 195.62 156.384 196.561 158.75C198.465 163.665 196.033 169.246 191.124 171.152L191.147 171.129ZM123.434 173.518C122.746 173.587 122.057 173.61 121.369 173.587C119.419 173.518 117.516 173.013 115.704 172.14L103.546 166.306L104.51 164.583L123.434 173.518Z" fill="black"/>
</g>
<defs>
<clipPath id="clip0_46_140">
<rect width="200" height="200" fill="white"/>
</clipPath>
</defs>
</svg>
