<svg width="150" height="150" viewBox="0 0 150 150" fill="none" xmlns="http://www.w3.org/2000/svg">
<path d="M112.322 81.7739V7.25802C112.322 6.01098 111.311 5 110.064 5H47.3864C45.5898 5 43.8667 5.7138 42.5963 6.98422L23.9842 25.5966C22.7138 26.867 22 28.5901 22 30.3867V115.645C22 116.892 23.011 117.903 24.258 117.903H76.1934" stroke="#663366" stroke-width="4.22534" stroke-miterlimit="10" stroke-linecap="round" stroke-linejoin="round"/>
<path d="M44.5799 6.03906V23.0658C44.5799 25.5599 42.5579 27.5818 40.0638 27.5818H23.0371" stroke="#663366" stroke-width="4.22534" stroke-miterlimit="10" stroke-linecap="round" stroke-linejoin="round"/>
<path d="M40.084 65.9688H94.2588" stroke="#663366" stroke-width="4.22534" stroke-miterlimit="10" stroke-linecap="round" stroke-linejoin="round"/>
<path d="M94.2566 38.8726L67.1595 25.3242H67.1499L40.0723 38.8726" stroke="#663366" stroke-width="4.22534" stroke-miterlimit="10" stroke-linecap="round" stroke-linejoin="round"/>
<path d="M62.6454 65.967V45.6445H53.6133V65.967" stroke="#663366" stroke-width="4.22534" stroke-miterlimit="10" stroke-linecap="round" stroke-linejoin="round"/>
<path d="M80.7101 45.6445H71.6777V56.9349H80.7101V45.6445Z" stroke="#663366" stroke-width="4.22534" stroke-miterlimit="10" stroke-linecap="round" stroke-linejoin="round"/>
<path d="M89.7422 65.9679V36.6133" stroke="#663366" stroke-width="4.22534" stroke-miterlimit="10" stroke-linecap="round" stroke-linejoin="round"/>
<path d="M44.5801 65.9679V36.6133" stroke="#663366" stroke-width="4.22534" stroke-miterlimit="10" stroke-linecap="round" stroke-linejoin="round"/>
<path d="M62.6445 81.7734H94.2574" stroke="#663366" stroke-width="4.22534" stroke-miterlimit="10" stroke-linecap="round" stroke-linejoin="round"/>
<path d="M62.6445 90.8086H82.967" stroke="#663366" stroke-width="4.22534" stroke-miterlimit="10" stroke-linecap="round" stroke-linejoin="round"/>
<path d="M62.6445 99.8398H76.1929" stroke="#663366" stroke-width="4.22534" stroke-miterlimit="10" stroke-linecap="round" stroke-linejoin="round"/>
<path d="M128.129 86.293L103.29 95.3253L108.001 100.035L70.0812 137.955C69.1995 138.836 69.1995 140.266 70.0812 141.148L73.2739 144.34C74.1555 145.222 75.5854 145.222 76.4671 144.34L114.386 106.421L119.097 111.131L128.129 86.293Z" stroke="#663366" stroke-width="4.22534" stroke-miterlimit="10" stroke-linecap="round" stroke-linejoin="round"/>
<path d="M119.096 120.16V144.999" stroke="#663366" stroke-width="4.22534" stroke-miterlimit="10" stroke-linecap="round" stroke-linejoin="round"/>
<path d="M110.064 124.68V145.002" stroke="#663366" stroke-width="4.22534" stroke-miterlimit="10" stroke-linecap="round" stroke-linejoin="round"/>
<path d="M101.031 133.711V145.001" stroke="#663366" stroke-width="4.22534" stroke-miterlimit="10" stroke-linecap="round" stroke-linejoin="round"/>
<path d="M92 140.484V145" stroke="#663366" stroke-width="4.22534" stroke-miterlimit="10" stroke-linecap="round" stroke-linejoin="round"/>
<path d="M50.6605 81.5103C50.6605 81.5103 48.2741 79.3092 44.5958 80.4173C41.2183 81.4348 40.3795 86.0562 42.6747 87.8565C43.9927 88.8903 45.9755 89.7401 48.6482 90.6846C54.6298 92.799 52.4186 101.235 46.3341 101.275C43.9597 101.291 42.8496 101.14 40.7637 99.7759" stroke="#663366" stroke-width="4.22534" stroke-miterlimit="10" stroke-linecap="round" stroke-linejoin="round"/>
<path d="M46.334 77.2578V104.355" stroke="#663366" stroke-width="4.22534" stroke-miterlimit="10" stroke-linecap="round" stroke-linejoin="round"/>
</svg>
