<svg width="150" height="150" viewBox="0 0 150 150" fill="none" xmlns="http://www.w3.org/2000/svg">
<path d="M21.3332 135.668H7.33324C6.04451 135.668 5 136.712 5 138.001V142.668C5 143.957 6.04479 145.001 7.33324 145.001H100.666C101.955 145.001 103 143.956 103 142.668V138.001C103 136.712 101.955 135.668 100.666 135.668H93.2665" stroke="#663366" stroke-width="4.22535" stroke-miterlimit="10" stroke-linecap="round" stroke-linejoin="round"/>
<path d="M98.3325 91.3322V71.1987C98.3325 69.5975 97.5117 68.1079 96.1579 67.253L58.9832 43.7741C55.9387 41.8513 52.0598 41.8513 49.0153 43.7741L11.8407 67.253C10.4869 68.1079 9.66602 69.5975 9.66602 71.1987V135.665" stroke="#663366" stroke-width="4.22535" stroke-miterlimit="10" stroke-linecap="round" stroke-linejoin="round"/>
<path d="M46.9993 70.3332H60.9993C62.288 70.3332 63.3325 69.2884 63.3325 68V63.3332C63.3325 62.0445 62.288 61 60.9993 61H46.9993C45.7105 61 44.666 62.0448 44.666 63.3332V68C44.666 69.2887 45.7105 70.3332 46.9993 70.3332Z" stroke="#663366" stroke-width="4.22535" stroke-miterlimit="10" stroke-linecap="round" stroke-linejoin="round"/>
<path d="M86.6675 91.3347V84.3347C86.6675 81.7573 84.5782 79.668 82.0007 79.668H26.0007C23.4236 79.668 21.334 81.7573 21.334 84.3347V145.001" stroke="#663366" stroke-width="4.22535" stroke-miterlimit="10" stroke-linecap="round" stroke-linejoin="round"/>
<path d="M86.6675 91.332H21.334" stroke="#663366" stroke-width="4.22535" stroke-miterlimit="10" stroke-linecap="round" stroke-linejoin="round"/>
<path d="M31.0007 14.332H16.334" stroke="#663366" stroke-width="4.22535" stroke-miterlimit="10" stroke-linecap="round" stroke-linejoin="round"/>
<path d="M16.1014 20.8499L16.587 7.25014C16.6321 5.99465 17.6628 5 18.9188 5H28.4157C29.6721 5 30.7028 5.99465 30.7476 7.25014L32.4262 54.2535L14.5039 65.573L15.749 30.709" stroke="#663366" stroke-width="4.22535" stroke-miterlimit="10" stroke-linecap="round" stroke-linejoin="round"/>
<path d="M86.666 145C90.532 145 93.666 141.866 93.666 138C93.666 134.134 90.532 131 86.666 131C82.8 131 79.666 134.134 79.666 138C79.666 141.866 82.8 145 86.666 145Z" stroke="#663366" stroke-width="4.22535" stroke-miterlimit="10" stroke-linecap="round" stroke-linejoin="round"/>
<path d="M126.334 145C130.2 145 133.334 141.866 133.334 138C133.334 134.134 130.2 131 126.334 131C122.468 131 119.334 134.134 119.334 138C119.334 141.866 122.468 145 126.334 145Z" stroke="#663366" stroke-width="4.22535" stroke-miterlimit="10" stroke-linecap="round" stroke-linejoin="round"/>
<path d="M61 126.332H68C69.2887 126.332 70.3332 127.377 70.3332 128.665V135.665" stroke="#663366" stroke-width="4.22535" stroke-miterlimit="10" stroke-linecap="round" stroke-linejoin="round"/>
<path d="M61 110.078V133.332C61 134.621 62.0448 135.665 63.3332 135.665H80.0665" stroke="#663366" stroke-width="4.22535" stroke-miterlimit="10" stroke-linecap="round" stroke-linejoin="round"/>
<path d="M93.267 135.666H112.334V95.9988C112.334 93.4216 110.244 91.332 107.667 91.332H65.6668C63.0893 91.332 61 93.4213 61 95.9988V100.087" stroke="#663366" stroke-width="4.22535" stroke-miterlimit="10" stroke-linecap="round" stroke-linejoin="round"/>
<path d="M112.334 135.668H119.734" stroke="#663366" stroke-width="4.22535" stroke-miterlimit="10" stroke-linecap="round" stroke-linejoin="round"/>
<path d="M132.934 135.666H138C139.289 135.666 140.334 134.622 140.334 133.333V118.413C140.334 117.492 140.061 116.591 139.55 115.824L132.386 105.078C131.52 103.78 130.063 103 128.503 103H112.334" stroke="#663366" stroke-width="4.22535" stroke-miterlimit="10" stroke-linecap="round" stroke-linejoin="round"/>
<path d="M121.668 103V112.734C121.668 113.972 122.16 115.159 123.035 116.034L124.968 117.966C125.843 118.842 127.03 119.333 128.267 119.333H140.334" stroke="#663366" stroke-width="4.22535" stroke-miterlimit="10" stroke-linecap="round" stroke-linejoin="round"/>
<path d="M113.499 26.0972H125.944C126.588 26.0972 127.11 26.6195 127.11 27.264V30.764C127.11 31.7254 128.208 32.2741 128.977 31.6972L144.533 20.0305C145.155 19.5637 145.155 18.6305 144.533 18.1637L128.977 6.49722C128.208 5.92032 127.11 6.46905 127.11 7.43046V10.9305C127.11 11.5747 126.588 12.0972 125.943 12.0972H113.499C112.855 12.0972 112.332 12.6195 112.332 13.264V24.9307C112.332 25.575 112.855 26.0972 113.499 26.0972Z" stroke="#663366" stroke-width="4.22535" stroke-miterlimit="10" stroke-linecap="round" stroke-linejoin="round"/>
<path d="M115.834 35.3352H103.39C102.745 35.3352 102.223 34.813 102.223 34.1685V30.6687C102.223 29.7073 101.125 29.1586 100.356 29.7355L84.8007 41.402C84.1784 41.8687 84.1784 42.802 84.8007 43.2687L100.356 54.9355C101.125 55.5124 102.223 54.9637 102.223 54.0023V50.5023C102.223 49.858 102.745 49.3355 103.39 49.3355H115.834C116.478 49.3355 117.001 48.8133 117.001 48.1687V36.502C117.001 35.8575 116.478 35.3352 115.834 35.3352Z" stroke="#663366" stroke-width="4.22535" stroke-miterlimit="10" stroke-linecap="round" stroke-linejoin="round"/>
</svg>
