<svg width="90" height="62" viewBox="0 0 90 62" fill="none" xmlns="http://www.w3.org/2000/svg">
<path fill-rule="evenodd" clip-rule="evenodd" d="M52.522 6.83049V17.1269L57.2608 15.5823C57.4296 15.5155 57.6249 15.4762 57.8307 15.4762C58.4956 15.4762 59.0391 15.8771 59.0391 16.3762V60.2198H56.6222V17.7435L51.8782 19.288C51.8254 19.3116 51.7673 19.3273 51.704 19.3431L39.5246 23.3085C39.4666 23.3321 39.4085 23.3517 39.3452 23.3674L26.6961 27.4862V60.2155H24.2792L24.2845 26.9047C24.2897 26.5588 24.5589 26.2287 25.0127 26.0833L37.7515 21.9371V19.0839L7.82584 9.33731V19.4767H20.1477C20.8127 19.4767 21.3562 19.8776 21.3562 20.3767C21.3562 20.8719 20.8179 21.2767 20.1477 21.2767H7.82584V24.4208H20.1477C20.8127 24.4208 21.3562 24.8216 21.3562 25.3207C21.3562 25.8159 20.8179 26.2207 20.1477 26.2207H7.82584V29.3648H20.1477C20.8127 29.3648 21.3562 29.7657 21.3562 30.2608C21.3562 30.756 20.8179 31.1608 20.1477 31.1608H7.82584V34.3049H20.1477C20.8127 34.3049 21.3562 34.7057 21.3562 35.2009C21.3562 35.6961 20.8179 36.1009 20.1477 36.1009H7.82584V39.245H20.1477C20.8127 39.245 21.3562 39.6458 21.3562 40.1449C21.3562 40.6401 20.8179 41.041 20.1477 41.041H7.82584V44.185H20.1477C20.8127 44.185 21.3562 44.5859 21.3562 45.085C21.3562 45.5802 20.8179 45.985 20.1477 45.985H7.82584V49.129H20.1477C20.8127 49.129 21.3562 49.5299 21.3562 50.0251C21.3562 50.5203 20.8179 50.9251 20.1477 50.9251H7.82584V54.0691H20.1477C20.8127 54.0691 21.3562 54.47 21.3562 54.9691C21.3562 55.4643 20.8179 55.8652 20.1477 55.8652H7.82584V60.204H1.15039C0.517148 60.204 0 60.6048 0 61.1039C0 61.5991 0.517148 62 1.15039 62H88.8496C89.4829 62 90 61.5991 90 61.1039C90 60.6087 89.4829 60.204 88.8496 60.204H82.1742L82.1689 6.82954L52.522 6.83049ZM58.9494 5.03048H75.7468V0H58.9494V5.03048ZM45.6777 60.2169H37.646V55.3515H45.6777V60.2169ZM44.5853 42.7671V37.6659H51.4349L51.4297 42.7671H44.5853ZM44.5853 46.6618H51.4349V51.763H44.5853V46.6618ZM44.5853 33.7717V28.6705H51.4349V33.7717H44.5853ZM38.7384 37.6664V42.7676H31.8888V37.6664H38.7384ZM31.8888 46.6623H38.7384V51.7635H31.8888V46.6623ZM38.7384 28.6743V33.7756H31.8888V28.6743H38.7384ZM69.915 13.3545C69.915 12.8593 70.4533 12.4545 71.1235 12.4545C71.7884 12.4545 72.3266 12.8554 72.3266 13.3545V53.6849C72.3266 54.1801 71.7883 54.5849 71.1235 54.5849C70.4585 54.5849 69.915 54.184 69.915 53.6849V13.3545ZM62.3636 13.3545C62.3636 12.8593 62.9019 12.4545 63.5668 12.4545C64.2317 12.4545 64.7752 12.8554 64.7752 13.3545V53.6849C64.7752 54.1801 64.237 54.5849 63.5668 54.5849C62.9019 54.5849 62.3636 54.184 62.3636 53.6849V13.3545Z" fill="black"/>
</svg>
