<svg width="90" height="91" viewBox="0 0 90 91" fill="none" xmlns="http://www.w3.org/2000/svg">
<path d="M18.0211 0C17.2096 0.00388768 16.5516 0.637615 16.5476 1.41523V7.09546H10.6819C4.79195 7.09546 0 11.7026 0 17.371V80.7244C0 86.393 4.79185 91 10.6819 91H79.3305C85.2204 91 90 86.3928 90 80.7244V17.371C90 11.7024 85.2202 7.09546 79.3305 7.09546H73.4648V1.41523C73.4608 1.0381 73.3033 0.680413 73.0288 0.412157C72.7503 0.147783 72.3708 3.98664e-05 71.9792 3.98664e-05C71.1719 0.00392754 70.5138 0.637654 70.5098 1.41527V7.0955H46.4777V1.41527C46.4736 0.637684 45.8156 0.00392157 45.0042 3.98664e-05C44.6126 3.98664e-05 44.2371 0.147783 43.9586 0.412157C43.6841 0.680423 43.5266 1.03812 43.5226 1.41523V7.09546H19.4988V1.41523H19.5028C19.4988 1.0381 19.3413 0.680413 19.0668 0.412157C18.7883 0.147783 18.4127 0 18.0211 0ZM10.6859 9.94144H16.5516V15.6334H16.5476C16.5516 16.411 17.2096 17.0448 18.0211 17.0486C18.8365 17.0525 19.4986 16.4188 19.5026 15.6334V9.94144H43.5265V15.6334H43.5224C43.5265 16.0105 43.6839 16.3682 43.9584 16.6365C44.237 16.9009 44.6124 17.0486 45.004 17.0486C45.8154 17.0447 46.4735 16.411 46.4775 15.6334V9.9414H70.5096V15.6334C70.5136 16.411 71.1717 17.0447 71.9791 17.0486C72.7945 17.0525 73.4607 16.4188 73.4647 15.6334V9.9414H79.3304C83.6338 9.9414 87.0491 13.2306 87.0491 17.3752V27.7443H2.95535V17.3752C2.95535 13.2345 6.37466 9.9414 10.6821 9.9414L10.6859 9.94144ZM2.95911 30.5861H87.0446V80.7208C87.0446 84.8615 83.6334 88.1506 79.3259 88.1506L10.6813 88.1545C6.3779 88.1545 2.95456 84.8653 2.95456 80.7247L2.95911 30.5861ZM16.6804 39.4467C14.1937 39.4467 12.1469 41.4218 12.1469 43.8167V52.0669C12.1469 54.4618 14.1937 56.4369 16.6804 56.4369H24.7785C27.2652 56.4369 29.316 54.4618 29.316 52.0669L29.3119 43.8167C29.3119 41.4218 27.2611 39.4467 24.7744 39.4467H16.6804ZM40.9543 39.4467C38.4676 39.4467 36.4208 41.4218 36.4208 43.8167V52.0669C36.4208 54.4618 38.4676 56.4369 40.9543 56.4369H49.0524C51.5391 56.4369 53.5899 54.4618 53.5899 52.0669L53.5859 43.8167C53.5859 41.4218 51.5351 39.4467 49.0484 39.4467H40.9543ZM65.2282 39.4467C62.7415 39.4467 60.6948 41.4218 60.6948 43.8167V52.0669C60.6948 54.4618 62.7415 56.4369 65.2282 56.4369H73.3263C75.8131 56.4369 77.8639 54.4618 77.8639 52.0669L77.8558 43.8167C77.8558 41.4218 75.805 39.4467 73.3183 39.4467H65.2282ZM16.5987 42.2927H16.6835H24.7816C25.6818 42.2927 26.36 42.9458 26.36 43.8128V52.063C26.36 52.9339 25.6778 53.5832 24.7816 53.5832H16.6835C15.7833 53.5832 15.1051 52.93 15.1051 52.063L15.097 43.8167C15.097 42.973 15.7349 42.3354 16.5947 42.2965L16.5987 42.2927ZM40.8727 42.2927H40.9574H49.0555C49.9558 42.2927 50.6339 42.9458 50.6339 43.8128V52.063C50.6339 52.9339 49.9517 53.5832 49.0555 53.5832H40.9574C40.0572 53.5832 39.379 52.93 39.379 52.063L39.371 43.8167C39.371 42.973 40.0088 42.3354 40.8687 42.2965L40.8727 42.2927ZM65.1466 42.2927H65.2314H73.3295C74.2297 42.2927 74.9079 42.9458 74.9079 43.8128V52.063C74.9079 52.9339 74.2256 53.5832 73.3295 53.5832H65.2314C64.3311 53.5832 63.653 52.93 63.653 52.063L63.6409 43.8167C63.6409 42.973 64.2787 42.3354 65.1386 42.2965L65.1466 42.2927ZM16.6752 62.3193C14.1885 62.3193 12.1417 64.2905 12.1417 66.6854V74.9356C12.1417 77.3305 14.1885 79.3017 16.6752 79.3017H24.7733C27.26 79.3017 29.3108 77.3305 29.3108 74.9356V66.6854C29.3108 64.2905 27.26 62.3193 24.7733 62.3193H16.6752ZM40.9491 62.3193C38.4624 62.3193 36.4157 64.2905 36.4157 66.6854V74.9356C36.4157 77.3305 38.4624 79.3017 40.9491 79.3017H49.0472C51.5339 79.3017 53.5848 77.3305 53.5848 74.9356V66.6854C53.5848 64.2905 51.5339 62.3193 49.0472 62.3193H40.9491ZM65.2231 62.3193C62.7364 62.3193 60.6896 64.2905 60.6896 66.6854V74.9356C60.6896 77.3305 62.7364 79.3017 65.2231 79.3017H73.3212C75.8079 79.3017 77.8587 77.3305 77.8587 74.9356V66.6854C77.8587 64.2905 75.8079 62.3193 73.3212 62.3193H65.2231ZM16.6783 65.1614H24.7764C25.6766 65.1614 26.3548 65.8145 26.3548 66.6815V74.9317C26.3548 75.8026 25.6726 76.4519 24.7764 76.4519H16.6783C15.7781 76.4519 15.0999 75.7987 15.0999 74.9317V66.6815C15.0999 65.8106 15.7821 65.1614 16.6783 65.1614ZM40.9522 65.1614H49.0503C49.9506 65.1614 50.6287 65.8145 50.6287 66.6815V74.9317C50.6287 75.8026 49.9465 76.4519 49.0503 76.4519H40.9522C40.052 76.4519 39.3738 75.7987 39.3738 74.9317V66.6815C39.3738 65.8106 40.0561 65.1614 40.9522 65.1614ZM65.2262 65.1614H73.3243C74.2245 65.1614 74.9027 65.8145 74.9027 66.6815V74.9317C74.9027 75.8026 74.2204 76.4519 73.3243 76.4519H65.2262C64.3259 76.4519 63.6478 75.7987 63.6478 74.9317V66.6815C63.6478 65.8106 64.33 65.1614 65.2262 65.1614Z" fill="black"/>
</svg>
