<svg width="90" height="93" viewBox="0 0 90 93" fill="none" xmlns="http://www.w3.org/2000/svg">
<path d="M45.0045 78.8402C47.1367 78.8402 49.0687 79.6332 50.4674 80.9144C50.7616 81.1839 51.0303 81.473 51.2734 81.7816L75.2357 69.1057C75.0651 68.758 74.9244 68.4026 74.8178 68.0354C74.3103 66.2932 74.5278 64.3674 75.5897 62.676L75.611 62.6409L75.6835 62.5315C76.7539 60.9143 78.4256 59.8284 80.2806 59.3753C80.6772 59.2777 81.0824 59.2074 81.4961 59.1722V33.8204C81.0867 33.7814 80.6773 33.715 80.2806 33.6173C78.4128 33.1603 76.7283 32.0587 75.6578 30.4259L75.5171 30.2033C74.5149 28.5431 74.3187 26.6642 74.8177 24.9572C74.9243 24.59 75.0608 24.2346 75.2356 23.883L66.4805 19.2542C65.7001 18.844 65.4314 17.93 65.8792 17.2151C66.327 16.5002 67.3249 16.2542 68.1054 16.6643L77.1889 21.469C77.5343 21.1916 77.9138 20.9416 78.3233 20.7151L78.4171 20.6604C80.2637 19.6838 82.3704 19.4846 84.2766 19.9534C86.1829 20.4182 87.8972 21.5589 88.9634 23.2463C90.0253 24.9416 90.2471 26.8713 89.7353 28.6135C89.2363 30.3244 88.0337 31.8674 86.2512 32.8479L86.0081 32.9729C85.6072 33.176 85.1935 33.3439 84.7714 33.4768V59.5155C85.2191 59.6561 85.6584 59.8358 86.0848 60.0585L86.1403 60.0897C87.9825 61.0624 89.2235 62.6327 89.7353 64.3788C90.2428 66.1054 90.0338 68.0116 88.9933 69.6913L88.8952 69.8514C87.8248 71.4842 86.1403 72.5819 84.2766 73.0389C82.3746 73.5037 80.2722 73.3045 78.4299 72.3319L78.302 72.2655C77.9011 72.0467 77.5343 71.7967 77.1932 71.5272L52.5824 84.5431C52.6805 84.9884 52.7274 85.4493 52.7274 85.922C52.7274 87.8711 51.8617 89.6407 50.4629 90.9219C49.0684 92.2071 47.1323 93 45 93C42.8678 93 40.9358 92.207 39.5371 90.9258L39.4433 90.8321C38.1042 89.5587 37.2726 87.8282 37.2726 85.9219C37.2726 85.4493 37.3238 84.9883 37.4176 84.543L12.8068 71.5271C12.4656 71.8006 12.0989 72.0467 11.698 72.2654L11.5701 72.3318C9.72355 73.3045 7.62535 73.5037 5.72335 73.0388C3.85977 72.5818 2.17523 71.4842 1.10479 69.8514L1.00671 69.6912C-0.0338382 68.0115 -0.242772 66.1053 0.264674 64.3788C0.772152 62.6327 2.01318 61.0624 3.85547 60.0858L3.91518 60.0585C4.34163 59.8358 4.78088 59.6561 5.22863 59.5155V33.4767C4.80644 33.3439 4.39279 33.1798 3.99193 32.9728L3.74884 32.8478C1.96627 31.8673 0.763622 30.3244 0.264703 28.6134C-0.242776 26.8713 -0.0252817 24.9416 1.03659 23.2502C2.10272 21.5588 3.81711 20.4221 5.72337 19.9533C7.62964 19.4846 9.73635 19.6838 11.5829 20.6603L11.6767 20.715C12.0861 20.9377 12.4614 21.1877 12.8069 21.465L37.4177 8.44914C37.3239 8.00383 37.2727 7.5429 37.2727 7.07415C37.2727 5.12497 38.1384 3.35938 39.5372 2.07809L39.5457 2.07028C40.9444 0.792993 42.8721 0 44.9958 0C47.1238 0 49.0514 0.792963 50.4502 2.07418L50.4587 2.08199C51.8532 3.36318 52.7189 5.12887 52.7189 7.07415C52.7189 7.5429 52.6677 8.00383 52.5739 8.44914L55.9813 10.2538C56.7617 10.6679 57.0261 11.5819 56.5741 12.2968C56.1221 13.0116 55.1242 13.2538 54.3437 12.8398L51.2604 11.207C51.0174 11.5156 50.7487 11.8046 50.4544 12.0742C49.06 13.3515 47.1238 14.1484 44.9915 14.1484C42.8593 14.1484 40.9274 13.3554 39.5286 12.0742C39.2344 11.8046 38.9657 11.5156 38.7226 11.207L14.7603 23.8829C14.9309 24.2305 15.0674 24.586 15.174 24.9532C15.6729 26.6563 15.4768 28.539 14.4746 30.1992L14.3339 30.4219C13.2635 32.0547 11.579 33.1563 9.71105 33.6133C9.31445 33.7109 8.90505 33.7812 8.49563 33.8164V59.1681C8.90503 59.2072 9.31443 59.2736 9.71105 59.3713C11.5619 59.8244 13.2336 60.9143 14.3082 62.5274L14.402 62.672C15.4639 64.3595 15.6814 66.2891 15.1739 68.0313C15.0673 68.3985 14.9266 68.754 14.756 69.1016L38.7183 81.7775C38.9614 81.4689 39.2301 81.1798 39.5243 80.9103C40.9188 79.633 42.855 78.8361 44.9872 78.8361L45.0045 78.8402ZM50.1987 48.5905C51.1582 47.3288 52.412 46.2663 53.862 45.4967C55.5423 44.6022 57.4911 44.0865 59.5595 44.0865H64.8561C67.9863 44.0865 70.8436 45.2623 72.9076 47.1568C74.9759 49.0435 76.2595 51.6567 76.2595 54.5317V57.8872C76.2595 58.7153 75.526 59.3872 74.622 59.3872H59.0605V62.1255C59.0605 62.9536 58.327 63.6254 57.4229 63.6254H32.5948C31.6907 63.6254 30.9572 62.9536 30.9572 62.1255V58.77C30.9572 55.895 32.2409 53.2856 34.3049 51.3911C35.0043 50.7505 35.7975 50.1881 36.6632 49.731C36.0577 49.0786 35.3326 48.5162 34.5138 48.0826C33.3241 47.4498 31.9338 47.0865 30.4539 47.0865H25.1573C22.9184 47.0865 20.8884 47.9224 19.4172 49.2701C17.9416 50.6217 17.0291 52.4848 17.0291 54.5317V56.3833H26.4665C27.3706 56.3833 28.1041 57.0552 28.1041 57.8833C28.1041 58.7114 27.3706 59.3833 26.4665 59.3833H15.3909C14.4868 59.3833 13.7533 58.7114 13.7533 57.8833V54.5317C13.7533 51.6646 15.037 49.0552 17.101 47.1607L17.1095 47.1529C19.1736 45.2623 22.0266 44.0904 25.1525 44.0904H30.4491C32.5174 44.0904 34.4664 44.606 36.1467 45.5006C37.5966 46.274 38.8504 47.3365 39.8099 48.5983C40.6287 48.4264 41.4816 48.3326 42.3559 48.3326H47.6525C48.5267 48.3326 49.3796 48.4225 50.1984 48.5944L50.1987 48.5905ZM58.7534 56.3873H72.9797V54.5318C72.9797 52.4849 72.0628 50.6257 70.5915 49.2741C69.1245 47.9225 67.0903 47.0866 64.8514 47.0866H59.5548C58.075 47.0866 56.689 47.4499 55.4949 48.0827C54.6761 48.5163 53.9468 49.0748 53.3412 49.7311C54.2027 50.192 54.9959 50.7505 55.6952 51.3912C57.1751 52.7467 58.254 54.4654 58.7444 56.3834L58.7534 56.3873ZM62.2034 27.2426C64.5021 27.2426 66.5916 28.1019 68.1013 29.4847C69.6194 30.8753 70.5534 32.7894 70.5534 34.8949C70.5534 37.0004 69.6152 38.9144 68.1055 40.2971C66.5959 41.6877 64.5062 42.5432 62.1991 42.5432C59.8962 42.5432 57.8066 41.6838 56.2926 40.301L56.1988 40.2073C54.7446 38.8284 53.8448 36.9534 53.8448 34.8909C53.8448 32.7855 54.783 30.8715 56.2927 29.4887C57.8023 28.0981 59.892 27.2426 62.1991 27.2426L62.2034 27.2426ZM65.7942 31.6019C64.8774 30.7621 63.6065 30.2425 62.2034 30.2425C60.8047 30.2425 59.5338 30.7621 58.6169 31.6058C57.7 32.4418 57.1286 33.6097 57.1286 34.8949C57.1286 36.1488 57.6659 37.2855 58.5402 38.1176L58.6169 38.1801C59.5338 39.0199 60.8046 39.5433 62.2035 39.5433C63.6065 39.5433 64.8731 39.0238 65.7943 38.1801C66.7111 37.3441 67.2826 36.1762 67.2826 34.891C67.2826 33.6058 66.7154 32.4418 65.7985 31.6019H65.7942ZM27.801 27.2426C30.1039 27.2426 32.1935 28.1019 33.7075 29.4847C35.2171 30.8675 36.1554 32.7816 36.1554 34.8949C36.1554 37.0004 35.2172 38.9144 33.7075 40.2971C32.1979 41.6877 30.1082 42.5432 27.801 42.5432C25.4939 42.5432 23.4043 41.6838 21.8946 40.301L21.8007 40.2073C20.3466 38.8284 19.4468 36.9534 19.4468 34.8909C19.4468 32.7777 20.385 30.8676 21.8946 29.4808C23.4043 28.098 25.494 27.2386 27.8011 27.2386L27.801 27.2426ZM31.3876 31.6058C30.4707 30.766 29.1999 30.2425 27.801 30.2425C26.3979 30.2425 25.1314 30.7621 24.2102 31.6058C23.2934 32.4457 22.7219 33.6097 22.7219 34.891C22.7219 36.1449 23.2592 37.2816 24.1335 38.1137L24.2102 38.1762C25.1271 39.016 26.398 39.5395 27.801 39.5395C29.1998 39.5395 30.4706 39.0199 31.3876 38.1762C32.3045 37.3402 32.8759 36.1723 32.8759 34.8871C32.8759 33.6019 32.3088 32.4418 31.3876 31.6019L31.3876 31.6058ZM47.6489 51.3286H42.3522C40.1176 51.3286 38.0834 52.1685 36.6122 53.5161C35.1366 54.8677 34.224 56.727 34.224 58.7739V60.6294H55.7769V58.7739C55.7769 56.727 54.8643 54.8637 53.393 53.5161C51.9217 52.1684 49.8876 51.3325 47.6486 51.3325L47.6489 51.3286ZM45.0005 31.4888C47.3077 31.4888 49.393 32.3482 50.907 33.731C52.4167 35.1138 53.3549 37.0279 53.3549 39.1412C53.3549 41.2544 52.4167 43.1684 50.907 44.5513C49.3974 45.9341 47.3077 46.7935 45.0005 46.7935C42.6934 46.7935 40.6038 45.9341 39.0941 44.5513C37.5844 43.1685 36.6462 41.2544 36.6462 39.1412C36.6462 37.0279 37.5844 35.1178 39.0941 33.731C40.6037 32.3482 42.6934 31.4888 45.0005 31.4888ZM48.5871 35.8521C47.6702 35.0122 46.3994 34.4888 45.0005 34.4888C43.5975 34.4888 42.3309 35.0083 41.4097 35.8521C40.4929 36.6919 39.9214 37.856 39.9214 39.1373C39.9214 40.4224 40.4886 41.5825 41.4097 42.4263C42.3266 43.2662 43.5975 43.7896 45.0005 43.7896C46.4036 43.7896 47.6702 43.2701 48.5871 42.4263C49.504 41.5865 50.0754 40.4224 50.0754 39.1373C50.0754 37.8521 49.5083 36.692 48.5871 35.8521ZM60.3363 16.0083C59.5559 15.5981 59.2872 14.6841 59.735 13.9692C60.1827 13.2543 61.1806 13.0082 61.9611 13.4184L62.1232 13.5043C62.9036 13.9145 63.1722 14.8285 62.7245 15.5434C62.2767 16.2582 61.2788 16.5043 60.4983 16.0942L60.3363 16.0083ZM48.1482 4.19236C47.3465 3.45798 46.2334 3.00097 45.001 3.00097C43.7685 3.00097 42.6555 3.45409 41.8538 4.18846C41.0478 4.92673 40.5488 5.94624 40.5488 7.07513C40.5488 8.20012 41.0478 9.21961 41.8538 9.95791C42.6555 10.6923 43.7728 11.1532 45.001 11.1532C46.2292 11.1532 47.3422 10.6962 48.1482 9.95791C48.9542 9.21963 49.4532 8.20012 49.4532 7.07513C49.4532 5.94624 48.9585 4.92675 48.1525 4.18846L48.1482 4.19236ZM86.1327 24.7512C85.5186 23.7785 84.5249 23.1184 83.4289 22.8489C82.3287 22.5794 81.1133 22.6926 80.0513 23.2512L79.9703 23.2903C78.9511 23.8528 78.2645 24.7434 77.9788 25.7278C77.6845 26.7356 77.8082 27.8489 78.418 28.8175L78.4394 28.8527C79.0534 29.8097 80.0343 30.4543 81.1217 30.7199C82.222 30.9894 83.4374 30.8761 84.4993 30.3176L84.5334 30.3019C85.5825 29.7394 86.2862 28.8371 86.5762 27.841C86.8704 26.8294 86.7467 25.7161 86.1369 24.7473L86.1327 24.7512ZM11.5153 64.0628C10.9012 63.1488 9.94168 62.5317 8.87976 62.2738C7.77525 62.0003 6.55983 62.1136 5.49791 62.6761C4.43599 63.2386 3.72385 64.1488 3.42963 65.1527C3.14391 66.137 3.25052 67.2151 3.81771 68.1643L3.92432 68.3284C4.54269 69.2581 5.50645 69.8831 6.57264 70.1448C7.64304 70.4065 8.82007 70.3088 9.85633 69.7893L10.0397 69.6878C11.0547 69.1214 11.737 68.2386 12.0227 67.262C12.3085 66.2815 12.2018 65.1995 11.6346 64.2503L11.511 64.055L11.5153 64.0628ZM6.57272 22.8482C5.47247 23.1177 4.48304 23.774 3.86894 24.7505C3.25485 25.7192 3.13118 26.8364 3.4297 27.8443C3.71968 28.8403 4.4276 29.7426 5.47243 30.3051L5.50655 30.3208C6.56843 30.8832 7.78378 30.9965 8.88413 30.7231C9.97159 30.4575 10.9524 29.8129 11.5665 28.8559L11.5878 28.8208C12.1977 27.852 12.3213 26.7388 12.0271 25.731C11.7413 24.7466 11.0505 23.856 10.0355 23.2935L9.95452 23.2544C8.89264 22.6919 7.67729 22.5787 6.57693 22.8521L6.57272 22.8482ZM81.1213 62.2739C80.0595 62.5356 79.0999 63.1488 78.4858 64.0629L78.3664 64.2543C77.7949 65.2075 77.6883 66.2855 77.974 67.266C78.2598 68.2426 78.9421 69.1293 79.9571 69.6918L80.1362 69.7855C81.181 70.309 82.3581 70.4105 83.4284 70.1488C84.4945 69.8871 85.4626 69.2621 86.0767 68.3324L86.179 68.1684C86.7505 67.2153 86.8571 66.1372 86.5714 65.1528C86.2771 64.145 85.5607 63.2387 84.4989 62.6762C83.437 62.1137 82.2216 62.0005 81.117 62.27L81.1213 62.2739ZM48.1479 83.0397C47.3461 82.3053 46.2288 81.8444 45.0007 81.8444C43.7725 81.8444 42.6594 82.3014 41.8534 83.0397C41.0474 83.7779 40.5485 84.7974 40.5485 85.9224C40.5485 87.0162 41.0176 88.0122 41.7767 88.7427L41.8534 88.8052C42.6552 89.5396 43.7725 90.0005 45.0007 90.0005C46.2289 90.0005 47.3419 89.5435 48.1479 88.8052C48.9539 88.0708 49.4528 87.0513 49.4528 85.9224C49.4528 84.7974 48.9539 83.778 48.1479 83.0397Z" fill="black"/>
</svg>
