<svg width="71" height="71" viewBox="0 0 71 71" fill="none" xmlns="http://www.w3.org/2000/svg">
<g clip-path="url(#clip0_292_8)">
<path d="M35.0777 69.6554C54.1744 69.6554 69.6554 54.1744 69.6554 35.0777C69.6554 15.981 54.1744 0.5 35.0777 0.5C15.981 0.5 0.5 15.981 0.5 35.0777C0.5 54.1744 15.981 69.6554 35.0777 69.6554Z" fill="#A44294" stroke="white"/>
<path d="M20.8631 34.0165C20.2774 34.6023 20.2774 35.552 20.8631 36.1378L30.4091 45.6838C30.9949 46.2695 31.9446 46.2695 32.5304 45.6838C33.1162 45.098 33.1162 44.1482 32.5304 43.5624L24.0451 35.0771L32.5304 26.5919C33.1162 26.0061 33.1162 25.0563 32.5304 24.4705C31.9446 23.8848 30.9949 23.8848 30.4091 24.4705L20.8631 34.0165ZM52.6168 33.5771H21.9238V36.5771H52.6168V33.5771Z" fill="white"/>
</g>
<defs>
<clipPath id="clip0_292_8">
<rect width="71" height="71" fill="white"/>
</clipPath>
</defs>
</svg>
