<svg width="71" height="71" viewBox="0 0 71 71" fill="none" xmlns="http://www.w3.org/2000/svg">
<path d="M35.0777 69.6554C54.1744 69.6554 69.6554 54.1744 69.6554 35.0777C69.6554 15.981 54.1744 0.5 35.0777 0.5C15.981 0.5 0.5 15.981 0.5 35.0777C0.5 54.1744 15.981 69.6554 35.0777 69.6554Z" fill="#19398A" stroke="white"/>
<path d="M20.8611 34.0165C20.2754 34.6023 20.2754 35.552 20.8611 36.1378L30.4071 45.6838C30.9929 46.2695 31.9426 46.2695 32.5284 45.6838C33.1142 45.098 33.1142 44.1482 32.5284 43.5624L24.0431 35.0771L32.5284 26.5919C33.1142 26.0061 33.1142 25.0563 32.5284 24.4705C31.9426 23.8848 30.9929 23.8848 30.4071 24.4705L20.8611 34.0165ZM52.6148 33.5771H21.9218V36.5771H52.6148V33.5771Z" fill="white"/>
</svg>
