<svg width="90" height="94" viewBox="0 0 90 94" fill="none" xmlns="http://www.w3.org/2000/svg">
<path d="M86.4711 40.5516H88.2356C89.2108 40.5516 90 39.7273 90 38.7087V31.3371C90 30.3884 89.3151 29.6108 88.4366 29.5059C86.9328 28.7711 80.6197 25.7034 51.1754 11.384V6.4502C51.1754 2.89271 48.406 0 45 0C41.594 0 38.8246 2.89261 38.8246 6.4502V11.384C9.78614 25.5057 3.11187 28.7514 1.56337 29.5059C0.684885 29.607 0 30.3885 0 31.3332V38.7048C0 39.7234 0.789135 40.5477 1.76443 40.5477H5.2932V82.9425H1.76443C0.789211 82.9425 0 83.7668 0 84.7855V92.1571C0 93.1757 0.789135 94 1.76443 94H88.2346C89.2098 94 89.999 93.1758 89.999 92.1571V84.7855C89.999 83.7669 89.2099 82.9425 88.2346 82.9425H86.4702L86.4711 40.5516ZM82.9424 58.981H70.5877V40.5516H82.9424V58.981ZM74.9989 82.9425H70.5879V62.6707H74.9989V82.9425ZM31.7638 82.9425V40.5516H59.998V82.9464L31.7638 82.9425ZM21.1778 82.9425H16.7668V62.6707H21.1778V82.9425ZM40.7756 14.502C40.9617 14.4825 41.1516 14.432 41.334 14.3426L43.5116 13.2811C44.4571 12.8224 45.544 12.8224 46.4895 13.2811L48.6671 14.3426C48.8458 14.4281 49.0319 14.4786 49.2217 14.502L80.0469 29.4906H9.95459C11.7153 28.6352 33.0846 18.2424 40.7756 14.502ZM3.52963 33.234H86.4673L86.471 36.8653H3.52954L3.52963 33.234ZM21.1778 40.5512V58.9846L8.82312 58.9807V40.5513L21.1778 40.5512ZM8.82312 62.6703H13.2341V82.946L8.82312 82.9421V62.6703ZM86.4711 90.3174H3.52963V86.6316H86.4711V90.3174ZM78.5277 82.9419V62.6701H82.9387V82.9458L78.5277 82.9419Z" fill="black"/>
</svg>
