<svg width="71" height="71" viewBox="0 0 71 71" fill="none" xmlns="http://www.w3.org/2000/svg">
<path d="M35.0778 0.5C15.981 0.5 0.5 15.981 0.5 35.0777C0.5 54.1744 15.981 69.6554 35.0778 69.6554C54.1745 69.6554 69.6553 54.1744 69.6553 35.0777C69.6553 15.981 54.1745 0.5 35.0778 0.5Z" fill="#19398A" stroke="white"/>
<path d="M49.2928 36.1378C49.8786 35.552 49.8786 34.6023 49.2928 34.0165L39.7468 24.4706C39.1611 23.8848 38.2113 23.8848 37.6255 24.4706C37.0397 25.0563 37.0397 26.0061 37.6255 26.5919L46.1108 35.0772L37.6255 43.5624C37.0397 44.1482 37.0397 45.098 37.6255 45.6838C38.2113 46.2695 39.1611 46.2695 39.7468 45.6838L49.2928 36.1378ZM17.5391 36.5772H48.2321V33.5772H17.5391V36.5772Z" fill="white"/>
</svg>
