<svg width="71" height="71" viewBox="0 0 71 71" fill="none" xmlns="http://www.w3.org/2000/svg">
<g clip-path="url(#clip0_282_2)">
<path d="M35.8286 1.2821C16.7318 1.2821 1.25085 16.7631 1.25085 35.8598C1.25085 54.9565 16.7318 70.4375 35.8286 70.4375C54.9253 70.4375 70.4062 54.9565 70.4062 35.8598C70.4062 16.7631 54.9253 1.2821 35.8286 1.2821Z" fill="#FACA04" stroke="#0152A3"/>
<path d="M50.0428 36.921C50.6286 36.3352 50.6286 35.3855 50.0428 34.7997L40.4968 25.2538C39.9111 24.668 38.9613 24.668 38.3755 25.2538C37.7897 25.8395 37.7897 26.7893 38.3755 27.3751L46.8608 35.8604L38.3755 44.3456C37.7897 44.9314 37.7897 45.8812 38.3755 46.467C38.9613 47.0527 39.9111 47.0527 40.4968 46.467L50.0428 36.921ZM18.2891 37.3604H48.9821V34.3604H18.2891V37.3604Z" fill="#0152A3"/>
</g>
<defs>
<clipPath id="clip0_282_2">
<rect width="71" height="71" fill="white"/>
</clipPath>
</defs>
</svg>
