<svg width="90" height="81" viewBox="0 0 90 81" fill="none" xmlns="http://www.w3.org/2000/svg">
<path d="M19.6111 52.9003C17.9059 52.6003 16.2006 52.3003 14.6848 51.9003C14.1164 51.8003 13.548 51.9003 13.169 52.3003C12.6953 52.7003 12.5059 53.2003 12.5059 53.8003V61.3003C12.5059 62.2003 13.169 63.0003 14.0216 63.2003C15.6322 63.5003 17.3374 63.9003 19.1374 64.1003C19.2322 64.1003 19.3269 64.1003 19.4216 64.1003C19.8953 64.1003 20.2743 63.9003 20.6532 63.6003C21.0322 63.2003 21.3164 62.7003 21.3164 62.1003V54.6003C21.2216 53.9003 20.5585 53.1003 19.6111 52.9003Z" fill="black"/>
<path d="M33.5369 54.4996C31.8316 54.3996 30.2211 54.1996 28.6106 54.0996C28.0421 54.0996 27.5685 54.1996 27.1895 54.5996C26.8106 54.9996 26.6211 55.4996 26.6211 55.9996V63.3996C26.6211 64.3996 27.379 65.1996 28.3264 65.3996C29.9369 65.5996 31.6421 65.6996 33.3474 65.7996H33.4421C33.9158 65.7996 34.3895 65.5996 34.6737 65.2996C35.0527 64.8996 35.2421 64.3996 35.2421 63.8996V56.3996C35.2421 55.3996 34.4843 54.5996 33.5369 54.4996Z" fill="black"/>
<path d="M47.4636 54.9004C46.232 54.9004 43.8636 54.9004 42.5373 54.9004C42.0636 54.9004 41.5899 55.1004 41.211 55.5004C40.8321 55.9004 40.6426 56.4004 40.6426 56.9004V64.3004C40.6426 65.4004 41.4005 66.3004 42.4426 66.3004C43.1057 66.3004 44.0531 66.3004 45.0005 66.3004C45.9478 66.3004 46.8952 66.3004 47.5584 66.3004C48.6005 66.3004 49.3584 65.4004 49.3584 64.3004V56.9004C49.3584 56.4004 49.1689 55.9004 48.7899 55.5004C48.411 55.0004 47.9373 54.9004 47.4636 54.9004Z" fill="black"/>
<path d="M61.3913 54.0996C59.7808 54.2996 58.1703 54.3996 56.465 54.4996C55.5177 54.5996 54.7598 55.3996 54.7598 56.3996V63.7996C54.7598 64.2996 54.9492 64.8996 55.3282 65.1996C55.7071 65.4996 56.1808 65.6996 56.6545 65.6996H56.7492C58.4545 65.5996 60.1598 65.4996 61.7703 65.2996C62.7177 65.1996 63.4756 64.3996 63.4756 63.2996V55.8996C63.4756 55.3996 63.2861 54.7996 62.9071 54.4996C62.4335 54.1996 61.9598 54.0996 61.3913 54.0996Z" fill="black"/>
<path d="M75.3152 52.0005C73.7994 52.4005 72.0941 52.7005 70.3888 53.0005C69.4415 53.2005 68.873 54.0005 68.873 54.9005V62.3005C68.873 62.9005 69.0625 63.4005 69.5362 63.8005C69.9152 64.1005 70.2941 64.3005 70.7678 64.3005C70.8625 64.3005 70.9573 64.3005 71.052 64.3005C72.852 64.0005 74.5573 63.7005 76.1678 63.4005C77.0204 63.2005 77.6836 62.4005 77.6836 61.5005V54.0005C77.6836 53.4005 77.3994 52.8005 77.0204 52.5005C76.3573 52.0005 75.7888 51.8005 75.3152 52.0005Z" fill="black"/>
<path d="M90 33.9C90 30.1 84.9789 27.6 78.3474 25.9V15.4L86.1158 11.3C86.5895 11.1 86.5895 10.4 86.1158 10.1L78.3474 6V4.9C78.3474 3.6 77.4 2.6 76.1684 2.6C74.9368 2.6 73.9895 3.6 73.9895 4.9V24.8C68.5895 23.8 62.6211 23.2 57.5053 22.9V12.9L65.2737 8.8C65.7474 8.6 65.7474 7.9 65.2737 7.6L57.5053 3.5V2.4C57.5053 1.1 56.5579 0.1 55.3263 0.1C54.0947 0.1 53.1474 1.1 53.1474 2.4V22.6C48.6947 22.4 45.4737 22.4 45 22.4C44.5263 22.4 41.3053 22.4 36.7579 22.6V12.8L44.5263 8.7C45 8.5 45 7.8 44.5263 7.5L36.7579 3.4V2.3C36.7579 1 35.8105 0 34.5789 0C33.3474 0 32.4 1 32.4 2.3V22.8C27.2842 23.1 21.3158 23.7 15.9158 24.7V15.2L23.6842 11.1C24.1579 10.9 24.1579 10.2 23.6842 9.9L15.9158 5.8V4.7C15.9158 3.4 14.9684 2.4 13.7368 2.4C12.5053 2.4 11.5579 3.4 11.5579 4.7V25.6C4.92632 27.3 0 29.8 0 33.6C0 33.7 3.78947 69.3 3.78947 69.3C3.97895 71.5 5.30526 73.3 7.2 74.1C15.2526 78.1 29.3684 80.3 45 80.3C60.6316 80.3 74.7474 78.1 82.8 74.4C84.6 73.6 85.9263 71.7 86.2105 69.6L90 33.9ZM45 27.2C69.7263 27.2 84.1263 31.4 85.5474 33.9C84.979 34.9 82.3263 36.1 77.9684 37.2C74.6526 34.8 61.2 33 45 33C28.8 33 15.3474 34.8 12.0316 37.2C7.57895 36.1 5.02105 34.8 4.45263 33.9C5.87368 31.4 20.2737 27.2 45 27.2ZM81.8526 69.1C81.7579 69.6 81.4737 70 81.0947 70.2C73.7053 73.6 59.8737 75.7 45 75.7C30.1263 75.7 16.2947 73.6 8.90526 70.2C8.43158 70 8.14737 69.6 8.14737 69.1L5.02105 39.6C16.3895 45.1 43.5789 45.2 45 45.2C46.4211 45.2 73.6105 45.1 84.9789 39.6L81.8526 69.1Z" fill="black"/>
</svg>
