<svg width="90" height="91" viewBox="0 0 90 91" fill="none" xmlns="http://www.w3.org/2000/svg">
<path d="M10.8079 32.0394H79.1921C82.1668 32.0394 84.8696 33.2547 86.8271 35.2122C88.7847 37.1698 90 39.8725 90 42.8443V79.7125C90 82.6873 88.7847 85.39 86.8271 87.3446C84.8696 89.3021 82.1668 90.5175 79.1921 90.5175H10.8079C7.83316 90.5175 5.13044 89.3021 3.17289 87.3446C1.21534 85.387 0 82.6843 0 79.7125V42.8443C0 39.8696 1.21534 37.1698 3.17289 35.2122C5.13044 33.2547 7.83316 32.0394 10.8079 32.0394ZM71.7019 12.866C72.3495 13.6792 72.2135 14.865 71.4003 15.5125C70.5871 16.1601 69.4014 16.0241 68.7538 15.2109C65.918 11.6566 62.3015 8.75575 58.1647 6.76271C54.1904 4.84656 49.7253 3.77316 45 3.77316C40.2747 3.77316 35.8125 4.84656 31.8353 6.76271C27.6984 8.75575 24.082 11.6595 21.2462 15.2109C20.5986 16.0271 19.4158 16.1601 18.5997 15.5125C17.7865 14.865 17.6505 13.6792 18.2981 12.866C21.4857 8.87107 25.5487 5.60948 30.2001 3.37101C34.6859 1.20942 39.7069 0 45 0C50.296 0 55.3171 1.20942 59.7999 3.37101C64.4483 5.60948 68.5143 8.87403 71.7019 12.866ZM32.134 25.3949C31.5485 26.2554 30.3775 26.4742 29.517 25.8887C28.6565 25.3033 28.4377 24.1293 29.0232 23.2718C30.7915 20.6755 33.1837 18.5317 35.9781 17.0502C38.6749 15.622 41.7473 14.8147 45 14.8147C48.2527 14.8147 51.3251 15.622 54.0219 17.0502C56.8192 18.5287 59.2085 20.6726 60.9768 23.2718C61.5623 24.1293 61.3405 25.3033 60.483 25.8887C59.6225 26.4742 58.4515 26.2525 57.866 25.3949C56.4378 23.3014 54.5157 21.5744 52.2654 20.3857C50.1038 19.2414 47.6288 18.5938 45 18.5938C42.3712 18.5938 39.8962 19.2414 37.7346 20.3857C35.4843 21.5744 33.5622 23.3043 32.134 25.3949ZM34.9786 42.6373L61.8195 59.6905C62.7007 60.2494 62.961 61.4144 62.4021 62.2927C62.2424 62.544 62.0325 62.7451 61.7929 62.89L34.9106 79.9698C34.0324 80.5286 32.8673 80.2655 32.3084 79.3872C32.1103 79.0738 32.0127 78.7249 32.0157 78.3789L32.0127 44.1868C32.0127 43.143 32.8585 42.2973 33.9023 42.2973C34.3015 42.2973 34.6741 42.4244 34.9786 42.6373ZM57.2923 61.2843L35.7889 47.6229V74.9487L57.2923 61.2873V61.2843ZM79.1921 35.8184H10.8079C8.87403 35.8184 7.11756 36.6109 5.84308 37.8854C4.5686 39.1599 3.77612 40.9193 3.77612 42.8502V79.7184C3.77612 81.6523 4.5686 83.4088 5.84308 84.6833C7.11756 85.9577 8.87699 86.7502 10.8079 86.7502H79.1921C81.126 86.7502 82.8824 85.9577 84.1569 84.6833C85.4314 83.4088 86.2239 81.6494 86.2239 79.7184V42.8502C86.2239 40.9193 85.4314 39.1599 84.1569 37.8854C82.8824 36.6109 81.123 35.8184 79.1921 35.8184Z" fill="black"/>
</svg>
