<svg width="90" height="62" viewBox="0 0 90 62" fill="none" xmlns="http://www.w3.org/2000/svg">
<path d="M21.0921 61.0385H1.40487C0.62689 61.0385 0 60.4514 0 59.7307V50.5651C0 44.7889 5.0456 40.0918 11.2508 40.0918C17.456 40.0918 22.5016 44.7887 22.5016 50.5651V59.7307C22.4978 60.4514 21.8662 61.0385 21.0921 61.0385ZM2.80965 58.4193H19.6834V50.5654C19.6834 46.2341 15.8992 42.7114 11.2464 42.7114C6.59366 42.7114 2.80946 46.2341 2.80946 50.5654L2.80965 58.4193Z" fill="black"/>
<path d="M11.2469 42.7113C7.36829 42.7113 4.21484 39.7758 4.21484 36.1652C4.21484 32.5547 7.36829 29.6191 11.2469 29.6191C15.1254 29.6191 18.2789 32.5547 18.2789 36.1652C18.2789 39.7722 15.1254 42.7113 11.2469 42.7113ZM11.2469 32.238C8.92051 32.238 7.02836 33.9993 7.02836 36.1649C7.02836 38.3306 8.92041 40.0919 11.2469 40.0919C13.5733 40.0919 15.4653 38.3306 15.4653 36.1649C15.4653 33.9993 13.5733 32.238 11.2469 32.238Z" fill="black"/>
<path d="M35.1527 58.4193H21.0885C20.3105 58.4193 19.6836 57.8322 19.6836 57.1115C19.6836 56.3873 20.3143 55.8037 21.0885 55.8037H35.1527C35.9307 55.8037 36.5576 56.3908 36.5576 57.1115C36.5613 57.8322 35.9306 58.4193 35.1527 58.4193Z" fill="black"/>
<path d="M37.3661 46.0903C37.0073 46.0903 36.6448 45.9637 36.3729 45.7071C36.2143 45.5594 36.101 45.3836 36.033 45.1938C35.61 44.1391 34.9566 43.1969 34.0956 42.3918C32.4944 40.9082 30.3756 40.0926 28.1248 40.0926C24.6163 40.0926 21.4401 42.1457 20.2128 45.2078C20.0239 45.7211 19.499 46.0938 18.8834 46.0938C18.1054 46.0938 17.4785 45.5102 17.4785 44.786C17.4785 44.6313 17.5087 44.4766 17.5654 44.3324C19.1893 40.2332 23.4342 37.4805 28.1249 37.4805C31.1273 37.4805 33.9522 38.5703 36.0785 40.5461C37.2416 41.6288 38.1179 42.905 38.6843 44.3324C38.7447 44.4871 38.775 44.6453 38.7712 44.8035C38.7674 45.1339 38.6277 45.4609 38.3595 45.7105C38.0838 45.9636 37.7248 46.0903 37.3661 46.0903Z" fill="black"/>
<path d="M28.1238 40.0921C24.2452 40.0921 21.0918 37.1566 21.0918 33.5461C21.0918 29.9355 24.2452 27 28.1238 27C32.0024 27 35.1558 29.9355 35.1558 33.5461C35.152 37.1566 31.9986 40.0921 28.1238 40.0921ZM28.1238 29.6188C25.7975 29.6188 23.9053 31.3801 23.9053 33.5458C23.9053 35.7115 25.7974 37.4728 28.1238 37.4728C30.4502 37.4728 32.3423 35.7115 32.3423 33.5458C32.3423 31.3801 30.4502 29.6188 28.1238 29.6188Z" fill="black"/>
<path d="M36.7607 17.86C36.2622 17.86 35.7788 17.6139 35.5258 17.1779C35.1443 16.524 34.6609 15.9264 34.0868 15.392C32.4932 13.9084 30.3745 13.0927 28.1235 13.0927C25.2647 13.0927 22.621 14.4252 21.0537 16.6576C20.627 17.2623 19.7584 17.431 19.1088 17.0373C18.4592 16.64 18.2779 15.8314 18.7009 15.2267C20.7894 12.249 24.3092 10.4736 28.1236 10.4736C31.126 10.4736 33.9508 11.5634 36.0771 13.5392C36.84 14.2494 37.482 15.0474 37.9957 15.9228C38.3696 16.5591 38.1165 17.3536 37.4368 17.6982C37.2215 17.8072 36.9873 17.86 36.7607 17.86Z" fill="black"/>
<path d="M28.1238 13.0921C24.2452 13.0921 21.0918 10.1566 21.0918 6.54607C21.0918 2.93553 24.2452 0 28.1238 0C32.0024 0 35.1558 2.93553 35.1558 6.54607C35.152 10.1566 31.9986 13.0921 28.1238 13.0921ZM28.1238 2.61882C25.7975 2.61882 23.9053 4.38013 23.9053 6.5458C23.9053 8.71148 25.7974 10.4728 28.1238 10.4728C30.4502 10.4728 32.3423 8.71148 32.3423 6.5458C32.3423 4.38013 30.4502 2.61882 28.1238 2.61882Z" fill="black"/>
<path d="M38.4197 17.9479C38.1969 17.9479 37.9703 17.8987 37.7588 17.7933C37.0752 17.4522 36.8146 16.6612 37.1772 16.0213C39.141 12.6006 42.944 10.4736 47.1092 10.4736C50.1117 10.4736 52.9365 11.5634 55.0628 13.5392C55.8181 14.2423 56.4602 15.0369 56.97 15.9017C57.3439 16.5345 57.0947 17.3325 56.4149 17.6807C55.7351 18.0288 54.8778 17.7967 54.5039 17.1639C54.1224 16.517 53.6428 15.9229 53.0763 15.3955C51.4788 13.9085 49.3601 13.0928 47.1092 13.0928C43.9859 13.0928 41.1346 14.6889 39.6618 17.2553C39.4087 17.6983 38.922 17.9479 38.4197 17.9479Z" fill="black"/>
<path d="M47.1082 13.0921C43.2296 13.0921 40.0762 10.1566 40.0762 6.54607C40.0762 2.93553 43.2296 0 47.1082 0C50.9867 0 54.1402 2.93553 54.1402 6.54607C54.1364 10.1566 50.983 13.0921 47.1082 13.0921ZM47.1082 2.61882C44.7818 2.61882 42.8897 4.38013 42.8897 6.5458C42.8897 8.71148 44.7817 10.4728 47.1082 10.4728C49.4346 10.4728 51.3267 8.71148 51.3267 6.5458C51.3267 4.38013 49.4308 2.61882 47.1082 2.61882Z" fill="black"/>
<path d="M74.1582 18.0921C73.6484 18.0921 73.1536 17.8319 72.9044 17.3784C72.5003 16.6436 71.9791 15.9756 71.3521 15.3921C69.7585 13.9085 67.6398 13.0929 65.3851 13.0929C62.2618 13.0929 59.4105 14.6889 57.9376 17.2554C57.5713 17.8917 56.7216 18.1343 56.0342 17.7968C55.3506 17.4557 55.09 16.6647 55.4526 16.0248C57.4164 12.6006 61.2233 10.4736 65.3846 10.4736C68.3871 10.4736 71.2119 11.5634 73.3382 13.5392C74.1728 14.3162 74.8715 15.2092 75.4078 16.1865C75.7628 16.8298 75.4871 17.6173 74.796 17.9478C74.592 18.0462 74.3735 18.0921 74.1582 18.0921Z" fill="black"/>
<path d="M65.3875 13.0921C61.5089 13.0921 58.3555 10.1566 58.3555 6.54607C58.3555 2.93553 61.5089 0 65.3875 0C69.266 0 72.4195 2.93553 72.4195 6.54607C72.4195 10.1566 69.266 13.0921 65.3875 13.0921ZM65.3875 2.61882C63.0611 2.61882 61.169 4.38013 61.169 6.5458C61.169 8.71148 63.061 10.4728 65.3875 10.4728C67.7139 10.4728 69.606 8.71148 69.606 6.5458C69.606 4.38013 67.7139 2.61882 65.3875 2.61882Z" fill="black"/>
<path d="M10.4225 32.2943C9.64447 32.2943 9.01758 31.7107 9.01758 30.9865C9.01758 30.758 9.08178 30.5365 9.20264 30.3396C11.2005 27.0666 14.9469 25.0381 18.98 25.0381C21.8426 25.0381 24.5732 26.0401 26.6616 27.8611C27.2281 28.3533 27.2583 29.183 26.7296 29.7104C26.2009 30.2377 25.3095 30.2658 24.7431 29.7736C23.1758 28.4096 21.1289 27.6572 18.98 27.6572C15.9625 27.6572 13.1603 29.1724 11.6572 31.6087C11.4193 32.0165 10.9549 32.2943 10.4225 32.2943Z" fill="black"/>
<path d="M18.9812 27.6537C15.1027 27.6537 11.9492 24.7181 11.9492 21.1076C11.9492 17.4971 15.1027 14.5615 18.9812 14.5615C22.8598 14.5615 26.0132 17.4971 26.0132 21.1076C26.0132 24.7181 22.8598 27.6537 18.9812 27.6537ZM18.9812 17.1839C16.6549 17.1839 14.7627 18.9453 14.7627 21.1109C14.7627 23.2766 16.6548 25.0379 18.9812 25.0379C21.3077 25.0379 23.1997 23.2766 23.1997 21.1109C23.1997 18.9453 21.3077 17.1839 18.9812 17.1839Z" fill="black"/>
<path d="M68.9046 58.4193H54.8404C54.0624 58.4193 53.4355 57.8322 53.4355 57.1115C53.4355 56.3873 54.0662 55.8037 54.8404 55.8037H68.9046C69.6826 55.8037 70.3095 56.3908 70.3095 57.1115C70.3133 57.8322 69.6826 58.4193 68.9046 58.4193Z" fill="black"/>
<path d="M71.1142 46.0895C70.7781 46.0895 70.4382 45.977 70.1701 45.7485C69.985 45.5938 69.8566 45.4004 69.7811 45.1895C69.3581 44.1348 68.7047 43.1926 67.8437 42.391C66.2462 40.9074 64.1275 40.0918 61.8729 40.0918C58.3682 40.0918 55.1959 42.1414 53.9684 45.193C53.8929 45.4039 53.7607 45.5973 53.5794 45.752C53.0054 46.2371 52.1141 46.1984 51.5929 45.6641C51.3512 45.4145 51.2303 45.1051 51.2266 44.7957C51.2266 44.6375 51.253 44.4828 51.3134 44.3317C52.9374 40.2289 57.1823 37.4727 61.8729 37.4727C64.8754 37.4727 67.7002 38.5625 69.8265 40.5382C70.9897 41.621 71.8659 42.8972 72.4324 44.3246C72.4928 44.4757 72.5192 44.6304 72.5192 44.7886C72.5155 45.098 72.3946 45.4109 72.1529 45.6605C71.8772 45.9453 71.4956 46.0895 71.1142 46.0895Z" fill="black"/>
<path d="M61.8738 40.0921C57.9952 40.0921 54.8418 37.1566 54.8418 33.5461C54.8418 29.9355 57.9952 27 61.8738 27C65.7524 27 68.9058 29.9355 68.9058 33.5461C68.9058 37.1566 65.7524 40.0921 61.8738 40.0921ZM61.8738 29.6188C59.5475 29.6188 57.6553 31.3801 57.6553 33.5458C57.6553 35.7115 59.5474 37.4728 61.8738 37.4728C64.2002 37.4728 66.0923 35.7115 66.0923 33.5458C66.0923 31.3801 64.2002 29.6188 61.8738 29.6188Z" fill="black"/>
<path d="M45.3497 32.2481C44.904 32.2481 44.4659 32.0513 44.194 31.6856C43.9108 31.3024 43.586 30.9438 43.231 30.6134C41.6373 29.1263 39.5148 28.3106 37.2639 28.3106C35.2963 28.3106 33.4496 28.9223 31.9314 30.0789C31.3309 30.536 30.4434 30.4551 29.9524 29.8926C29.4615 29.3336 29.5483 28.5074 30.1526 28.0504C32.1504 26.5281 34.677 25.6914 37.264 25.6914C40.2664 25.6914 43.0912 26.7812 45.2175 28.757C45.6896 29.1964 46.1239 29.6816 46.5053 30.1914C46.9472 30.7856 46.7886 31.6012 46.1503 32.0125C45.9086 32.1707 45.6291 32.2481 45.3497 32.2481Z" fill="black"/>
<path d="M37.2625 28.3119C33.3839 28.3119 30.2305 25.3763 30.2305 21.7658C30.2305 18.1553 33.3839 15.2197 37.2625 15.2197C41.141 15.2197 44.2945 18.1553 44.2945 21.7658C44.2945 25.3728 41.141 28.3119 37.2625 28.3119ZM37.2625 17.8386C34.9361 17.8386 33.044 19.5999 33.044 21.7655C33.044 23.9312 34.936 25.6925 37.2625 25.6925C39.5889 25.6925 41.481 23.9312 41.481 21.7655C41.481 19.5999 39.5889 17.8386 37.2625 17.8386Z" fill="black"/>
<path d="M47.176 32.6453C46.923 32.6453 46.6662 32.582 46.4358 32.4484C45.7749 32.0687 45.5747 31.2602 45.9826 30.6449C48.0522 27.5441 51.6248 25.6914 55.545 25.6914C57.6712 25.6914 59.7446 26.2469 61.5346 27.3016C62.1918 27.6883 62.3882 28.4969 61.9727 29.1086C61.5573 29.7203 60.6887 29.9032 60.0316 29.5164C58.6871 28.7289 57.1349 28.3106 55.5412 28.3106C52.603 28.3106 49.9216 29.6993 48.3694 32.0266C48.105 32.4239 47.6481 32.6453 47.176 32.6453Z" fill="black"/>
<path d="M55.5457 28.3119C51.6671 28.3119 48.5137 25.3763 48.5137 21.7658C48.5137 18.1553 51.6671 15.2197 55.5457 15.2197C59.4242 15.2197 62.5777 18.1553 62.5777 21.7658C62.5777 25.3728 59.4205 28.3119 55.5457 28.3119ZM55.5457 17.8386C53.2193 17.8386 51.3272 19.5999 51.3272 21.7655C51.3272 23.9312 53.2192 25.6925 55.5457 25.6925C57.8721 25.6925 59.7642 23.9312 59.7642 21.7655C59.7642 19.5999 57.8721 17.8386 55.5457 17.8386Z" fill="black"/>
<path d="M80.7398 32.575C80.2715 32.575 79.8184 32.3606 79.5502 31.9633C79.2216 31.4781 78.8288 31.0211 78.387 30.6098C76.7933 29.1262 74.6746 28.3105 72.4199 28.3105C70.2106 28.3105 68.1259 29.098 66.5398 30.5325C65.9809 31.0352 65.0933 31.0247 64.5495 30.5043C64.0095 29.984 64.0208 29.1579 64.5797 28.6516C66.6946 26.7426 69.478 25.6914 72.42 25.6914C75.4224 25.6914 78.2472 26.7812 80.3736 28.757C80.9627 29.3054 81.4876 29.9137 81.9295 30.564C82.345 31.1757 82.1486 31.9843 81.4915 32.371C81.2573 32.5081 80.9966 32.575 80.7398 32.575Z" fill="black"/>
<path d="M72.4207 28.3119C68.5421 28.3119 65.3887 25.3763 65.3887 21.7658C65.3887 18.1553 68.5421 15.2197 72.4207 15.2197C76.2992 15.2197 79.4527 18.1553 79.4527 21.7658C79.4527 25.3728 76.2992 28.3119 72.4207 28.3119ZM72.4207 17.8386C70.0943 17.8386 68.2022 19.5999 68.2022 21.7655C68.2022 23.9312 70.0942 25.6925 72.4207 25.6925C74.7471 25.6925 76.6392 23.9312 76.6392 21.7655C76.6392 19.5999 74.7471 17.8386 72.4207 17.8386Z" fill="black"/>
<path d="M54.8459 61.0385H35.1549C34.3769 61.0385 33.75 60.4514 33.75 59.7307V50.5651C33.75 44.7889 38.7956 40.0918 45.0008 40.0918C51.206 40.0918 56.2516 44.7887 56.2516 50.5651V59.7307C56.2516 60.4514 55.6201 61.0385 54.8459 61.0385ZM36.5635 58.4193H53.4373V50.5654C53.4373 46.2341 49.6531 42.7114 45.0003 42.7114C40.3475 42.7114 36.5633 46.2341 36.5633 50.5654L36.5635 58.4193Z" fill="black"/>
<path d="M44.9969 42.7113C41.1183 42.7113 37.9648 39.7758 37.9648 36.1652C37.9648 32.5547 41.1183 29.6191 44.9969 29.6191C48.8754 29.6191 52.0289 32.5547 52.0289 36.1652C52.0289 39.7722 48.8754 42.7113 44.9969 42.7113ZM44.9969 32.238C42.6705 32.238 40.7784 33.9993 40.7784 36.1649C40.7784 38.3306 42.6704 40.0919 44.9969 40.0919C47.3233 40.0919 49.2153 38.3306 49.2153 36.1649C49.2153 33.9993 47.3233 32.238 44.9969 32.238Z" fill="black"/>
<path d="M88.5901 61.0385H68.9029C68.1249 61.0385 67.498 60.4514 67.498 59.7307V50.5651C67.498 44.7889 72.5436 40.0918 78.7488 40.0918C84.9538 40.0918 89.9996 44.7887 89.9996 50.5651V59.7307C89.9996 60.4514 89.3681 61.0385 88.5901 61.0385ZM70.3116 58.4193H87.1853V50.5654C87.1853 46.2341 83.4011 42.7114 78.7483 42.7114C74.0956 42.7114 70.3114 46.2341 70.3114 50.5654L70.3116 58.4193Z" fill="black"/>
<path d="M78.7488 42.7113C74.8703 42.7113 71.7168 39.7758 71.7168 36.1652C71.7168 32.5547 74.8703 29.6191 78.7488 29.6191C82.6274 29.6191 85.7808 32.5547 85.7808 36.1652C85.7808 39.7722 82.6236 42.7113 78.7488 42.7113ZM78.7488 32.238C76.4225 32.238 74.5303 33.9993 74.5303 36.1649C74.5303 38.3306 76.4224 40.0919 78.7488 40.0919C81.0753 40.0919 82.9673 38.3306 82.9673 36.1649C82.9673 33.9993 81.0753 32.238 78.7488 32.238Z" fill="black"/>
</svg>
