<svg width="90" height="81" viewBox="0 0 90 81" fill="none" xmlns="http://www.w3.org/2000/svg">
<path d="M84.375 12.9375H52.6875L59.8125 5.8125C60.5625 5.0625 60.5625 3.9375 59.8125 3.1875C59.0625 2.4375 57.9375 2.4375 57.1875 3.1875L47.25 13.125H46.875L34.3125 0.5625C33.5625 -0.1875 32.4375 -0.1875 31.6875 0.5625C30.9375 1.3125 30.9375 2.4375 31.6875 3.1875L41.625 13.125H5.625C2.4375 13.125 0 15.5625 0 18.75V72C0 75.1875 2.4375 77.625 5.625 77.625H11.4375V80.625H17.8125V77.625H72V80.625H78.375V77.625H84.375C87.5625 77.625 90 75.1875 90 72V18.5625C90 15.375 87.5625 12.9375 84.375 12.9375ZM71.8125 69.9375H7.5V20.4375H71.8125V69.9375ZM80.8125 47.25C78.375 47.25 76.3125 45.1875 76.3125 42.75C76.3125 40.3125 78.375 38.25 80.8125 38.25C83.25 38.25 85.3125 40.3125 85.3125 42.75C85.3125 45.1875 83.25 47.25 80.8125 47.25ZM80.8125 32.25C78.375 32.25 76.3125 30.1875 76.3125 27.75C76.3125 25.3125 78.375 23.25 80.8125 23.25C83.25 23.25 85.3125 25.3125 85.3125 27.75C85.3125 30.1875 83.25 32.25 80.8125 32.25Z" fill="black"/>
</svg>
