<svg width="500" height="500" viewBox="0 0 500 500" fill="none" xmlns="http://www.w3.org/2000/svg">
<path d="M279.437 237.771C287.59 229.604 291.667 219.792 291.667 208.333C291.667 196.875 287.59 187.069 279.437 178.917C271.285 170.764 261.472 166.681 250 166.667C238.528 166.653 228.722 170.736 220.583 178.917C212.444 187.097 208.361 196.903 208.333 208.333C208.306 219.764 212.389 229.576 220.583 237.771C228.778 245.965 238.583 250.042 250 250C261.417 249.958 271.229 245.882 279.437 237.771ZM250 403.125C292.361 364.236 323.785 328.91 344.271 297.146C364.757 265.382 375 237.167 375 212.5C375 174.653 362.937 143.667 338.812 119.542C314.687 95.4165 285.083 83.3471 250 83.3332C214.917 83.3193 185.319 95.3887 161.208 119.542C137.097 143.694 125.028 174.681 125 212.5C125 237.153 135.243 265.368 155.729 297.146C176.215 328.924 207.639 364.25 250 403.125ZM250 458.333C194.097 410.764 152.347 366.583 124.75 325.792C97.1528 285 83.3472 247.236 83.3333 212.5C83.3333 160.417 100.09 118.924 133.604 88.0207C167.118 57.1179 205.917 41.6665 250 41.6665C294.083 41.6665 332.889 57.1179 366.417 88.0207C399.944 118.924 416.694 160.417 416.667 212.5C416.667 247.222 402.868 284.986 375.271 325.792C347.674 366.597 305.917 410.778 250 458.333Z" fill="#E4DDE3"/>
</svg>
