<svg width="150" height="150" viewBox="0 0 150 150" fill="none" xmlns="http://www.w3.org/2000/svg">
<path fill-rule="evenodd" clip-rule="evenodd" d="M106.277 85.4639C105.507 85.4639 104.883 84.8396 104.883 84.0693C104.883 83.2991 105.507 82.6747 106.277 82.6747H114.885C115.655 82.6747 116.279 83.2991 116.279 84.0693C116.279 84.8396 115.655 85.4639 114.885 85.4639H106.277ZM79.0207 85.4639C78.2505 85.4639 77.6261 84.8396 77.6261 84.0693C77.6261 83.2991 78.2505 82.6747 79.0207 82.6747H84.3367C85.107 82.6747 85.7314 83.2991 85.7314 84.0693C85.7314 84.8396 85.107 85.4639 84.3367 85.4639H79.0207ZM92.582 37.4682H87.1142V42.6559C87.1142 43.4262 86.4899 44.0505 85.7196 44.0505H80.5319V49.5183H85.7196C86.4899 49.5183 87.1142 50.1427 87.1142 50.9129V56.1006H92.582V50.9129C92.582 50.1427 93.2064 49.5183 93.9766 49.5183H99.1643V44.0505H93.9766C93.2064 44.0505 92.582 43.4262 92.582 42.6559V37.4682ZM85.7196 34.6731H93.9823C94.7526 34.6731 95.377 35.2975 95.377 36.0677V41.2554H100.565C101.335 41.2554 101.959 41.8798 101.959 42.65V50.9128C101.959 51.683 101.335 52.3074 100.565 52.3074H95.377V57.4951C95.377 58.2654 94.7526 58.8897 93.9823 58.8897H85.7196C84.9493 58.8897 84.3249 58.2654 84.3249 57.4951V52.3074H79.1373C78.367 52.3074 77.7426 51.683 77.7426 50.9128V42.65C77.7426 41.8798 78.367 41.2554 79.1373 41.2554H84.3249V36.0677C84.3191 35.3033 84.9435 34.6731 85.7196 34.6731ZM79.0206 71.949C78.2503 71.949 77.6259 71.3246 77.6259 70.5543C77.6259 69.7841 78.2503 69.1597 79.0206 69.1597H114.546C115.316 69.1597 115.94 69.7841 115.94 70.5543C115.94 71.3246 115.316 71.949 114.546 71.949H79.0206ZM70.4426 67.9985C69.6724 67.9985 69.048 67.3741 69.048 66.6039C69.048 65.8336 69.6724 65.2092 70.4426 65.2092H74.0313C74.8016 65.2092 75.4259 65.8336 75.4259 66.6039V74.4991C75.4259 75.2694 74.8016 75.8938 74.0313 75.8938H68.8436C68.0734 75.8938 67.449 75.2694 67.449 74.4991C67.449 73.7289 68.0734 73.1045 68.8436 73.1045H72.6366V67.9985L70.4426 67.9985ZM72.6368 81.5132H67.5367V86.6133H72.6368V81.5132ZM66.1362 78.718H74.0314C74.8017 78.718 75.4261 79.3424 75.4261 80.1127V88.008C75.4261 88.7782 74.8017 89.4026 74.0314 89.4026L66.1362 89.4084C65.3659 89.4084 64.7415 88.784 64.7415 88.0138V80.1185C64.7415 79.3424 65.3659 78.718 66.1362 78.718ZM90.4634 10.7944H89.238C87.5866 10.7944 86.0578 11.6756 84.9316 13.0994C84.0388 14.2257 83.3969 15.6787 83.1285 17.3125C83.1227 17.3475 83.1168 17.3767 83.111 17.4117C83.0293 17.9369 82.9884 18.4854 82.9884 19.0457C82.9884 20.487 83.0118 21.3973 83.0351 22.1442C83.041 22.4243 83.0526 22.6869 83.0526 22.9262C83.0585 22.9729 83.0585 23.0254 83.0585 23.0721C83.0585 23.1012 83.0585 23.1304 83.0526 23.1596C83.076 24.4317 83.0351 25.2427 82.72 26.0423C82.2532 27.2443 81.4187 27.9212 79.6098 29.3859L79.4523 29.5143H100.232L100.074 29.3859C98.2652 27.9213 97.4249 27.2444 96.9639 26.0423C96.6546 25.2428 96.6079 24.4317 96.6313 23.1596C96.6313 23.1304 96.6254 23.1012 96.6254 23.0721C96.6254 23.0195 96.6313 22.9729 96.6313 22.9262C96.6371 22.6811 96.643 22.4243 96.6488 22.1442C96.6663 21.4032 96.6955 20.487 96.6955 19.0457C96.6955 18.4855 96.6546 17.937 96.5729 17.4117C96.5671 17.3826 96.5613 17.3534 96.5613 17.3184C96.2928 15.6844 95.6568 14.2315 94.7582 13.1053C93.6437 11.6756 92.1149 10.7944 90.4634 10.7944ZM120.924 106.926H115.34V112.511L120.924 106.926ZM135.612 15.866H137.001L136.691 12.4348H135.915L135.612 15.866ZM56.7997 77.989C57.3073 77.0379 57.7566 76.0575 58.1476 75.048C60.8026 68.244 60.9894 60.1912 60.4643 51.1704C60.1375 49.3848 59.3672 47.9785 58.1651 47.0273C57.7625 46.7122 57.3073 46.438 56.7996 46.2162L56.7997 77.989ZM52.143 36.5931C52.6974 36.8674 53.1992 37.2292 53.631 37.661C53.7653 37.7952 53.8878 37.9352 54.0104 38.0753V23.0666C54.0104 22.2964 54.6347 21.672 55.405 21.672H80.2342C80.2108 20.8667 80.1933 19.9506 80.1933 19.0403C80.1933 18.8711 80.1992 18.7019 80.205 18.5326H56.4021C55.2292 18.5326 54.1671 19.0111 53.3969 19.7872C52.6208 20.5633 52.1423 21.6254 52.1423 22.7924L52.143 36.5931ZM52.143 46.6999V84.2566C52.8141 83.5856 53.4326 82.897 54.0045 82.1909V45.5395C53.917 45.5336 53.8295 45.522 53.7419 45.5161C53.7069 45.557 53.6661 45.5978 53.6311 45.6328C53.1934 46.0646 52.6974 46.4315 52.143 46.6999ZM50.3866 44.3949L50.3983 44.389C50.8826 44.2548 51.3144 44.0039 51.6528 43.6596C52.1664 43.1461 52.4873 42.4342 52.4873 41.6464C52.4873 40.8585 52.1722 40.1467 51.6528 39.6331C51.3086 39.2888 50.8767 39.0321 50.3983 38.8979H50.3866C50.1473 38.8337 49.9023 38.7987 49.6455 38.7987C48.8577 38.7987 48.1458 39.1196 47.6322 39.6331C47.1187 40.1466 46.7978 40.8585 46.7978 41.6464C46.7978 42.4342 47.1129 43.146 47.6322 43.6596C48.1458 44.1731 48.8577 44.4941 49.6455 44.4941C49.8964 44.4941 50.1473 44.4591 50.3866 44.3949ZM51.6645 88.4513C51.6353 88.4747 51.6062 88.498 51.577 88.5214C49.2429 90.412 46.4827 92.1451 43.2267 93.7149C43.4426 94.2284 43.5943 94.7711 43.6819 95.3312C45.87 94.2925 47.9534 93.1312 49.8966 91.8183C49.9374 91.7833 49.9841 91.7541 50.0308 91.7307C51.3729 90.8146 52.6508 89.8285 53.8471 88.7605C54.0338 88.5913 54.2205 88.4221 54.4073 88.2529C54.4365 88.2237 54.4656 88.1945 54.5006 88.1653C57.5817 85.2768 60.1142 81.8107 61.9056 77.6092C63.6621 73.5012 64.5373 69.0604 64.9166 64.5439C65.2959 59.9574 65.1675 55.3008 64.8991 50.8134V50.8076C64.8933 50.7667 64.8933 50.7084 64.8816 50.6325C64.8758 50.5917 64.8699 50.5333 64.8524 50.4633C64.3273 47.4639 63.0026 45.2407 61.1528 43.7177C59.5539 42.4047 57.5465 41.5936 55.3057 41.2494L55.2649 41.2436C55.2765 41.3778 55.2765 41.512 55.2765 41.6462C55.2765 42.0663 55.2299 42.4806 55.1423 42.8716C55.2824 42.895 55.4166 42.9183 55.5508 42.9416C55.6325 42.9533 55.7142 42.965 55.7901 42.9883C57.4006 43.3268 58.7661 43.9512 59.8865 44.8323C61.6662 46.2328 62.7866 48.2461 63.2243 50.7493C63.236 50.831 63.2418 50.9068 63.2418 50.9885C63.7904 60.3717 63.5861 68.7862 60.7385 76.0687C58.9354 80.7137 56.0643 84.8625 51.6645 88.4513ZM21.2917 43.6599C21.8052 44.1734 22.5171 44.4944 23.3049 44.4944C24.0928 44.4944 24.8046 44.1734 25.3182 43.6599C25.8318 43.1464 26.1526 42.4345 26.1526 41.6467C26.1526 40.8588 25.8317 40.147 25.3182 39.6334C24.8047 39.1198 24.0928 38.799 23.3049 38.799C22.5171 38.799 21.8053 39.1199 21.2917 39.6334C20.7781 40.1469 20.4572 40.8588 20.4572 41.6467C20.4631 42.4344 20.7782 43.1463 21.2917 43.6599ZM17.8022 42.8721C15.9058 43.1698 14.3244 43.835 13.0581 44.8328C11.2783 46.2333 10.1579 48.2466 9.72022 50.7498C9.70854 50.8315 9.70271 50.9073 9.70271 50.989C9.13668 60.4948 9.35842 69.0078 12.3111 76.3545C15.1821 83.4969 20.5739 89.4373 30.2313 93.9595C30.0387 94.4788 29.8986 95.0332 29.8403 95.6051C25.9715 93.8195 22.4119 91.6604 19.3484 88.982C15.8648 85.9359 13.0112 82.2189 11.0447 77.6089C9.28829 73.5008 8.41304 69.0601 8.03958 64.5436C7.66028 59.957 7.78866 55.3004 8.05126 50.8131V50.8072C8.05709 50.7664 8.05709 50.708 8.06876 50.6322C8.07459 50.5913 8.08043 50.533 8.09794 50.4629C8.62311 47.4636 9.94776 45.2403 11.7976 43.7173C13.4023 42.3986 15.4272 41.5816 17.6854 41.2432C17.6738 41.3775 17.6738 41.5117 17.6738 41.6459C17.6679 42.066 17.7147 42.4812 17.8022 42.8721ZM74.1829 122.518H123.293C125.236 122.518 126.998 121.724 128.276 120.446C129.554 119.168 130.348 117.406 130.348 115.463L130.354 22.7925C130.354 20.8493 129.56 19.087 128.282 17.8092C127.004 16.5312 125.242 15.7377 123.299 15.7377H99.0881C98.6621 14.0746 97.9152 12.5807 96.9524 11.3611C95.3067 9.28964 93.0135 8 90.4634 8H89.238C86.688 8 84.3946 9.28961 82.749 11.3611C81.7804 12.5807 81.0393 14.0746 80.6133 15.7377H56.4025C54.4593 15.7377 52.6971 16.5313 51.4192 17.8092C50.1413 19.0871 49.3477 20.8494 49.3477 22.7925V36.0154C47.9064 36.0913 46.611 36.704 45.6539 37.661C44.6327 38.6822 44.0024 40.0943 44.0024 41.6466C44.0024 43.2047 44.6327 44.6168 45.6539 45.6322C46.6109 46.5892 47.9063 47.2019 49.3477 47.2778V86.7302C47.1887 88.4224 44.6387 89.9747 41.6392 91.3868C40.3846 90.1672 38.669 89.4145 36.7784 89.4145C34.8526 89.4145 33.1022 90.1964 31.8417 91.4627C31.8008 91.5036 31.7658 91.5386 31.7249 91.5794C22.5926 87.3722 17.5451 81.8869 14.9013 75.3159C12.1411 68.4535 11.9485 60.3133 12.4796 51.1694C12.8005 49.3839 13.5767 47.9775 14.7788 47.0264C15.87 46.1628 17.3522 45.6434 19.2019 45.5151C19.2369 45.5559 19.2778 45.5968 19.3128 45.6318C20.334 46.653 21.7461 47.2832 23.2983 47.2832C24.8564 47.2832 26.2627 46.653 27.2839 45.6318C28.3051 44.6106 28.9354 43.1985 28.9354 41.6462C28.9354 40.0881 28.3051 38.676 27.2839 37.6607C26.2627 36.6395 24.8506 36.0092 23.2983 36.0092C21.7403 36.0092 20.3281 36.6394 19.3128 37.6607C19.1085 37.8649 18.916 38.0866 18.7467 38.3259C15.4205 38.5651 12.3921 39.6213 10.023 41.5704C7.66555 43.5077 5.9908 46.2912 5.33725 49.9849C5.31974 50.0899 5.30224 50.1949 5.29057 50.3175C5.2789 50.405 5.27306 50.5159 5.26139 50.6501C4.98713 55.2658 4.85291 60.0567 5.24388 64.7774C5.64068 69.5623 6.58601 74.2832 8.47088 78.7063C10.6125 83.7189 13.7168 87.7686 17.5098 91.0831C21.1919 94.2983 25.5159 96.8133 30.2192 98.8266C30.5751 99.7836 31.1295 100.641 31.8355 101.347C32.1448 101.657 32.4832 101.937 32.8509 102.188L32.7225 120.634C32.7166 120.675 32.7166 120.721 32.7166 120.768V120.826H32.7225V120.914C32.8567 126.895 35.0916 131.989 38.7796 135.566C42.4792 139.155 47.6143 141.209 53.5429 141.104C59.2266 141.005 64.3908 138.898 68.137 135.339C71.5273 132.112 73.7568 127.705 74.1829 122.518ZM74.4396 117.278C74.3813 118.165 74.3404 118.993 74.3113 119.723H123.299C124.472 119.723 125.534 119.244 126.304 118.468C127.08 117.692 127.559 116.63 127.559 115.463V22.7924C127.559 21.6195 127.08 20.5575 126.304 19.7873C125.534 19.0112 124.466 18.5327 123.299 18.5327H99.496C99.5018 18.7019 99.5076 18.8711 99.5076 19.0403C99.5076 19.9507 99.4901 20.8669 99.4668 21.672H124.296C125.066 21.672 125.691 22.2964 125.691 23.0667V105.672L125.685 105.707L125.679 105.736V105.742L125.673 105.771V105.777L125.667 105.806V105.818L125.661 105.835L125.656 105.847V105.853L125.65 105.87V105.876L125.644 105.888L125.638 105.905L125.632 105.917V105.923L125.626 105.94L125.621 105.952V105.958L125.615 105.975L125.609 105.987V105.993L125.597 106.028L125.586 106.051L125.591 106.045L125.586 106.063L125.58 106.074L125.574 106.08L125.568 106.098L125.562 106.109L125.556 106.127L125.551 106.139L125.545 106.156V106.162L125.539 106.174L125.533 106.191L125.521 106.203L125.516 106.22L125.51 106.232L125.498 106.249L125.475 106.273L125.469 106.284L125.457 106.296L125.451 106.308V106.314L125.44 106.325L125.434 106.337V106.343L125.346 106.43L125.341 106.454L114.93 116.864C114.913 116.882 114.889 116.905 114.872 116.922L114.79 117.004L114.778 117.01L114.761 117.027H114.755L114.749 117.033L114.679 117.086L114.668 117.097L114.656 117.103L114.638 117.109L114.627 117.115L114.609 117.121L114.603 117.127L114.592 117.132L114.539 117.15C114.358 117.232 114.16 117.278 113.95 117.278L74.4396 117.278ZM67.3672 119.723H56.4027C55.2298 119.723 54.1677 119.244 53.3975 118.468C52.6214 117.692 52.1429 116.63 52.1429 115.463V93.6559C52.779 93.2066 53.3975 92.7456 54.0044 92.2671V115.883C54.0044 116.654 54.6288 117.278 55.399 117.278H67.4723C67.4314 118.066 67.3964 118.883 67.3672 119.723ZM39.7774 102.712C40.501 102.368 41.1603 101.901 41.7206 101.341C42.5025 100.559 43.1035 99.5905 43.4419 98.511C45.496 97.6007 47.4741 96.5911 49.3531 95.4707V115.463C49.3531 117.406 50.1467 119.168 51.4246 120.446C52.7025 121.724 54.4649 122.518 56.4079 122.518H67.215C66.5381 127.769 63.1944 131.317 59.0514 133.01C57.1666 133.78 55.1242 134.171 53.0818 134.171C51.0569 134.171 49.0438 133.78 47.2173 132.98C43.0217 131.154 39.7947 127.145 39.6489 120.761L39.7774 102.712ZM99.9046 103.524C98.6092 104.819 96.8177 105.624 94.8337 105.624C92.8556 105.624 91.0642 104.819 89.7629 103.524C88.4674 102.228 87.6623 100.437 87.6623 98.4527C87.6623 96.4745 88.4675 94.6831 89.7629 93.3818C91.0583 92.0864 92.8498 91.2812 94.8337 91.2812C96.8119 91.2812 98.6033 92.0864 99.9046 93.3818C101.2 94.6773 102.005 96.4687 102.005 98.4527C101.999 100.437 101.2 102.228 99.9046 103.524ZM94.8337 102.829C93.6258 102.829 92.5346 102.339 91.741 101.551C90.9533 100.763 90.4631 99.6664 90.4631 98.4585C90.4631 97.2506 90.9533 96.1593 91.741 95.3658C92.5288 94.578 93.6258 94.0878 94.8337 94.0878C96.0417 94.0878 97.1329 94.578 97.9265 95.3658C98.72 96.1535 99.2044 97.2506 99.2044 98.4585C99.2044 99.6664 98.7142 100.758 97.9265 101.551C97.1387 102.339 96.0417 102.829 94.8337 102.829ZM79.8311 100.209H79.8194C79.1834 100.32 78.524 100.46 77.8704 100.699C77.1643 100.956 76.4874 101.318 75.8981 101.849C73.8966 103.652 72.817 107.532 72.2219 111.518C72.0176 112.918 71.8659 114.336 71.755 115.679C71.7434 115.743 71.7375 115.807 71.7375 115.877C71.58 117.884 71.51 119.693 71.4691 120.971C71.4633 121.024 71.4574 121.076 71.4574 121.129V121.205L71.4516 121.292C71.3057 126.2 69.3217 130.349 66.1998 133.319C62.9495 136.412 58.4505 138.238 53.4847 138.32C48.3263 138.407 43.8797 136.645 40.7053 133.564C37.5309 130.483 35.6052 126.066 35.4885 120.855V120.82H35.4943V120.761C35.4943 120.721 35.4943 120.686 35.4885 120.651L35.611 103.297C35.9845 103.361 36.3696 103.39 36.7606 103.39C36.8306 103.39 36.9006 103.39 36.9707 103.384L36.8598 120.814C37.029 128.464 40.9737 133.308 46.0971 135.537C48.2795 136.488 50.672 136.955 53.0762 136.955C55.4687 136.955 57.8728 136.494 60.0903 135.589C65.5171 133.372 69.8177 128.523 70.0978 121.275C70.1037 121.223 70.1037 121.17 70.1037 121.124V121.042C70.1503 119.262 70.2262 117.622 70.3312 116.123C70.3429 116.047 70.3487 115.965 70.3487 115.883V115.843C70.8506 108.957 71.9827 104.855 73.599 102.398C75.1395 100.058 77.2461 99.2527 79.732 98.8443C79.7495 99.3053 79.7844 99.7597 79.8311 100.209ZM105.512 109.137C102.781 111.868 99.0053 113.56 94.8331 113.56C90.6608 113.56 86.8854 111.868 84.1546 109.137C82.4448 107.427 81.1436 105.309 80.4083 102.94L80.2916 102.958C79.7781 103.045 79.2704 103.15 78.8211 103.314C78.4301 103.454 78.0683 103.646 77.7649 103.915C76.3411 105.198 75.495 108.472 74.9872 111.909C74.8589 112.767 74.7538 113.63 74.6663 114.477H112.538V105.519C112.538 104.749 113.163 104.125 113.933 104.125H122.89L122.896 24.4671H99.4441C99.4674 24.7005 99.5024 24.8814 99.5666 25.0331C99.765 25.5349 100.419 26.0718 101.837 27.2154C102.122 27.4489 102.438 27.7056 102.928 28.1024C103.29 28.4 103.546 28.8027 103.675 29.252C103.797 29.6605 103.809 30.1156 103.71 30.5474C103.599 31.0201 103.36 31.4286 103.039 31.732C102.653 32.0938 102.169 32.298 101.638 32.298H78.0638C77.5328 32.298 77.0484 32.0938 76.6633 31.732C76.3424 31.4286 76.1031 31.0201 75.9922 30.5474C75.8872 30.1156 75.9047 29.6605 76.0272 29.252C76.1556 28.8027 76.4124 28.4 76.7742 28.1024C77.2585 27.6998 77.5794 27.4489 77.8654 27.2154C79.2834 26.0659 79.9369 25.5349 80.1353 25.0331C80.1936 24.8814 80.2345 24.6946 80.252 24.4671H56.8001V38.6935C59.0993 39.1954 61.1883 40.1407 62.9214 41.5704C65.2731 43.5077 66.9536 46.2912 67.6072 49.9849C67.6247 50.0899 67.6422 50.2008 67.6539 50.3175C67.6655 50.4051 67.6714 50.5159 67.683 50.6501C67.9573 55.2658 68.0915 60.0567 67.7006 64.7774C67.3038 69.5624 66.3584 74.2832 64.4736 78.7063C62.5946 83.1062 59.9745 86.7649 56.8059 89.8284V114.489H67.6829C68.2781 107.743 69.5269 103.548 71.2834 100.875C73.5475 97.4321 76.4944 96.4693 79.9372 95.9967C80.4624 92.8106 81.9796 89.9629 84.162 87.7805C86.8929 85.0496 90.6684 83.3574 94.8406 83.3574C99.0129 83.3574 102.782 85.0496 105.519 87.7805C108.25 90.5114 109.942 94.287 109.942 98.4591C109.936 102.626 108.244 106.401 105.513 109.138L105.512 109.137ZM94.8331 110.765C91.437 110.765 88.356 109.388 86.1327 107.159C84.6039 105.63 83.4777 103.699 82.9175 101.539C82.9292 101.434 82.9292 101.318 82.9175 101.207C82.8942 100.997 82.8241 100.804 82.7191 100.641C82.5907 99.9289 82.5265 99.1995 82.5265 98.4585C82.5265 95.0624 83.9037 91.9813 86.1328 89.758C88.3619 87.5289 91.4372 86.1517 94.8333 86.1517C98.2294 86.1517 101.31 87.5289 103.534 89.758C105.763 91.9871 107.14 95.0624 107.14 98.4585C107.14 101.855 105.763 104.936 103.534 107.159C101.31 109.388 98.2351 110.765 94.8331 110.765ZM138.365 23.4515C138.359 23.4106 138.359 23.3698 138.359 23.3289C138.359 23.2881 138.359 23.2472 138.365 23.2064V18.6606H134.246L134.251 66.61H134.257V66.645L136.311 73.1222L138.354 66.6683H138.359V66.645H138.365V66.6392C138.371 66.6217 138.359 66.645 138.359 66.61H138.365L138.365 23.4515ZM142.211 20.3178C142.211 19.5476 142.835 18.9232 143.605 18.9232C144.376 18.9232 145 19.5476 145 20.3178V36.0092C145 36.7794 144.376 37.4038 143.605 37.4038C142.835 37.4038 142.211 36.7794 142.211 36.0092V24.7178H141.149L141.155 66.5917H141.16C141.16 66.726 141.149 66.8718 141.12 67.0411H141.125C141.108 67.1753 141.067 67.3212 141.014 67.4904H141.02L137.642 78.1457C137.408 78.8809 136.626 79.2894 135.891 79.056C135.436 78.9101 135.109 78.56 134.975 78.1399L131.596 67.4846C131.579 67.432 131.567 67.3854 131.555 67.3328C131.526 67.2336 131.509 67.1344 131.491 67.0411V67.0352H131.485C131.462 66.8835 131.45 66.7376 131.45 66.5859H131.456L131.45 17.2487C131.45 16.4901 132.051 15.8774 132.804 15.8599L133.148 12.0203C133.207 11.3784 133.481 10.7832 133.907 10.3572L133.913 10.363C134.362 9.91372 134.957 9.63945 135.646 9.63945V9.64528H136.959L136.953 9.65112C137.642 9.65112 138.237 9.92538 138.68 10.3689C139.112 10.8007 139.386 11.39 139.445 12.032L139.789 15.8716C140.542 15.8891 141.143 16.5076 141.143 17.2604V21.9287H142.205V20.3182L142.211 20.3178ZM36.7782 100.588C35.6228 100.588 34.5724 100.121 33.8138 99.3626C33.0552 98.604 32.5884 97.5537 32.5884 96.3983C32.5884 95.2428 33.0552 94.1924 33.8138 93.4339C34.5724 92.6753 35.6227 92.2085 36.7782 92.2085C37.9336 92.2085 38.984 92.6753 39.7426 93.4339C40.5012 94.1925 40.968 95.2369 40.968 96.3983C40.968 97.5537 40.4953 98.6041 39.7426 99.3626C38.984 100.121 37.9337 100.588 36.7782 100.588ZM92.9542 19.5649C92.5457 19.9734 92.0614 20.3002 91.5245 20.5219C91.4954 20.5336 91.4662 20.5453 91.437 20.5569C90.9352 20.7553 90.3983 20.8604 89.844 20.8604C89.2605 20.8604 88.6944 20.7378 88.1692 20.5219H88.1634C87.6207 20.3002 87.1364 19.9734 86.7337 19.5708C86.4887 19.3257 86.2669 19.0456 86.0802 18.7363C85.9226 18.4796 85.7942 18.1995 85.6892 17.9019C85.6542 17.8143 85.625 17.721 85.6075 17.6334C85.555 17.4584 85.52 17.2833 85.4966 17.1199C85.4616 16.904 85.4441 16.6881 85.4441 16.4722C85.4441 15.8887 85.5667 15.3227 85.7826 14.7975L85.7884 14.7916V14.78C86.0102 14.2489 86.3369 13.7646 86.7396 13.3561L86.7337 13.3503C87.1364 12.9477 87.6207 12.6209 88.1634 12.3992C88.1926 12.3875 88.2217 12.3758 88.2509 12.3641C88.7528 12.1657 89.2896 12.0607 89.8439 12.0607C90.4333 12.0607 90.9993 12.1833 91.5245 12.3992C91.5537 12.4108 91.5829 12.4225 91.6121 12.44C92.1197 12.6617 92.5749 12.9769 92.9542 13.3503C93.351 13.753 93.6778 14.2373 93.9053 14.7858H93.9112C94.1271 15.311 94.2496 15.877 94.2496 16.4664C94.2496 16.6765 94.2321 16.8924 94.2029 17.1083C94.1679 17.33 94.1212 17.5401 94.0629 17.7385C94.0512 17.7677 94.0454 17.8027 94.0337 17.8319C93.9287 18.147 93.7886 18.4504 93.6136 18.7363C93.4152 19.0456 93.1993 19.3198 92.9542 19.5649ZM90.4333 17.8902L90.3866 17.9077C90.2233 17.966 90.0424 18.0011 89.844 18.0011C89.6281 18.0011 89.4297 17.9602 89.2546 17.8902V17.8844C89.0679 17.8085 88.8986 17.6918 88.7528 17.5459C88.6652 17.4584 88.5835 17.3592 88.5252 17.2541C88.461 17.1433 88.4085 17.0382 88.3735 16.9332L88.3443 16.8515C88.3326 16.8048 88.3268 16.7523 88.3151 16.694C88.3034 16.6239 88.2976 16.5481 88.2976 16.4605C88.2976 16.2446 88.3385 16.0462 88.4085 15.8712C88.4902 15.6786 88.6011 15.5094 88.7411 15.3693L88.7469 15.3635L88.7528 15.3693C88.8987 15.2235 89.0679 15.1067 89.2546 15.0309L89.3013 15.0134C89.4647 14.955 89.6456 14.92 89.844 14.92C90.0599 14.92 90.2525 14.9609 90.4333 15.0309L90.4859 15.0484C90.6493 15.1243 90.801 15.2293 90.9352 15.3635C91.0811 15.5094 91.1978 15.6786 91.2736 15.8595V15.8653C91.3495 16.0404 91.3845 16.2388 91.3845 16.4547C91.3845 16.5422 91.3787 16.6181 91.367 16.6823C91.3553 16.7465 91.3378 16.8223 91.3145 16.904L91.297 16.9565C91.262 17.0674 91.2153 17.1725 91.1628 17.2542C91.1044 17.3534 91.0227 17.4525 90.9293 17.5459C90.7951 17.6976 90.6259 17.8085 90.4333 17.8902Z" fill="#663366"/>
</svg>
