<svg width="150" height="150" viewBox="0 0 150 150" fill="none" xmlns="http://www.w3.org/2000/svg">
<path d="M57.2656 86.0938H92.7364" stroke="#663366" stroke-width="4.4" stroke-miterlimit="10" stroke-linecap="round" stroke-linejoin="round"/>
<path d="M35.2825 124.821C49.2618 124.821 60.5943 113.492 60.5943 99.516C60.5943 85.5404 49.2618 74.2109 35.2825 74.2109C21.3032 74.2109 9.9707 85.5404 9.9707 99.516C9.9707 113.492 21.3032 124.821 35.2825 124.821Z" stroke="#663366" stroke-width="4.4" stroke-miterlimit="10" stroke-linecap="round" stroke-linejoin="round"/>
<path d="M35.2832 74.2104V69.2422" stroke="#663366" stroke-width="4.4" stroke-miterlimit="10" stroke-linecap="round" stroke-linejoin="round"/>
<path d="M35.2832 129.789V124.82" stroke="#663366" stroke-width="4.4" stroke-miterlimit="10" stroke-linecap="round" stroke-linejoin="round"/>
<path d="M65.5635 99.5156H60.5938" stroke="#663366" stroke-width="4.4" stroke-miterlimit="10" stroke-linecap="round" stroke-linejoin="round"/>
<path d="M9.9697 99.5156H5" stroke="#663366" stroke-width="4.4" stroke-miterlimit="10" stroke-linecap="round" stroke-linejoin="round"/>
<path d="M56.6962 78.1094L53.1816 81.6227" stroke="#663366" stroke-width="4.4" stroke-miterlimit="10" stroke-linecap="round" stroke-linejoin="round"/>
<path d="M17.3856 117.41L13.8711 120.924" stroke="#663366" stroke-width="4.4" stroke-miterlimit="10" stroke-linecap="round" stroke-linejoin="round"/>
<path d="M56.6962 120.924L53.1816 117.41" stroke="#663366" stroke-width="4.4" stroke-miterlimit="10" stroke-linecap="round" stroke-linejoin="round"/>
<path d="M17.3856 81.6227L13.8711 78.1094" stroke="#663366" stroke-width="4.4" stroke-miterlimit="10" stroke-linecap="round" stroke-linejoin="round"/>
<path d="M114.72 124.821C128.699 124.821 140.032 113.492 140.032 99.516C140.032 85.5404 128.699 74.2109 114.72 74.2109C100.741 74.2109 89.4082 85.5404 89.4082 99.516C89.4082 113.492 100.741 124.821 114.72 124.821Z" stroke="#663366" stroke-width="4.4" stroke-miterlimit="10" stroke-linecap="round" stroke-linejoin="round"/>
<path d="M114.721 74.2104V69.2422" stroke="#663366" stroke-width="4.4" stroke-miterlimit="10" stroke-linecap="round" stroke-linejoin="round"/>
<path d="M114.721 129.789V124.82" stroke="#663366" stroke-width="4.4" stroke-miterlimit="10" stroke-linecap="round" stroke-linejoin="round"/>
<path d="M145.001 99.5156H140.031" stroke="#663366" stroke-width="4.4" stroke-miterlimit="10" stroke-linecap="round" stroke-linejoin="round"/>
<path d="M89.4072 99.5156H84.4375" stroke="#663366" stroke-width="4.4" stroke-miterlimit="10" stroke-linecap="round" stroke-linejoin="round"/>
<path d="M136.134 78.1094L132.619 81.6227" stroke="#663366" stroke-width="4.4" stroke-miterlimit="10" stroke-linecap="round" stroke-linejoin="round"/>
<path d="M96.8212 117.41L93.3066 120.924" stroke="#663366" stroke-width="4.4" stroke-miterlimit="10" stroke-linecap="round" stroke-linejoin="round"/>
<path d="M136.134 120.924L132.619 117.41" stroke="#663366" stroke-width="4.4" stroke-miterlimit="10" stroke-linecap="round" stroke-linejoin="round"/>
<path d="M96.8212 81.6227L93.3066 78.1094" stroke="#663366" stroke-width="4.4" stroke-miterlimit="10" stroke-linecap="round" stroke-linejoin="round"/>
<path d="M35.2832 108.28C40.1232 108.28 44.0468 104.358 44.0468 99.5191C44.0468 94.6804 40.1232 90.7578 35.2832 90.7578C30.4431 90.7578 26.5195 94.6804 26.5195 99.5191C26.5195 104.358 30.4431 108.28 35.2832 108.28Z" stroke="#663366" stroke-width="4.4" stroke-miterlimit="10" stroke-linecap="round" stroke-linejoin="round"/>
<path d="M114.721 108.28C119.561 108.28 123.484 104.358 123.484 99.5191C123.484 94.6804 119.561 90.7578 114.721 90.7578C109.881 90.7578 105.957 94.6804 105.957 99.5191C105.957 104.358 109.881 108.28 114.721 108.28Z" stroke="#663366" stroke-width="4.4" stroke-miterlimit="10" stroke-linecap="round" stroke-linejoin="round"/>
<path d="M131.298 46.8704H83.7148V20" stroke="#663366" stroke-width="4.4" stroke-miterlimit="10" stroke-linecap="round" stroke-linejoin="round"/>
<path d="M131.296 80.1055V46.8715L111.765 20H18.7031V80.1723" stroke="#663366" stroke-width="4.4" stroke-miterlimit="10" stroke-linecap="round" stroke-linejoin="round"/>
<path d="M66.2868 20V46.8704H19.4766" stroke="#663366" stroke-width="4.4" stroke-miterlimit="10" stroke-linecap="round" stroke-linejoin="round"/>
<path d="M79.7911 64.293H70.209" stroke="#663366" stroke-width="4.4" stroke-miterlimit="10" stroke-linecap="round" stroke-linejoin="round"/>
</svg>
