<?xml version="1.0" encoding="UTF-8" standalone="no"?>
<!-- Created with Inkscape (http://www.inkscape.org/) -->
<svg xmlns="http://www.w3.org/2000/svg" xmlns:svg="http://www.w3.org/2000/svg" version="1.1" id="svg9" width="682.66669" height="682.66669" viewBox="0 0 682.66669 682.66669">
  <defs id="defs13">
    <clipPath clipPathUnits="userSpaceOnUse" id="clipPath23">
      <path d="M 0,512 H 512 V 0 H 0 Z" id="path21"/>
    </clipPath>
  </defs>
  <mask id="custom"><rect id="bg" x="0" y="0" width="100%" height="100%" fill="white"/><g transform="matrix(1.3333333,0,0,-1.3333333,0,682.66667)"/></mask><g mask="url(#custom)"><g id="g15" transform="matrix(1.3333333,0,0,-1.3333333,0,682.66667)">
    <g id="g17">
      <g id="g19" clip-path="url(#clipPath23)">
        <g id="g25" transform="translate(271.998,198.2046)">
          <path d="m 0,0 c 0,-8.836 -7.163,-15.999 -15.999,-15.999 -8.834,0 -15.998,7.163 -15.998,15.999 v 23.493 h -23.492 c -8.836,0 -15.999,7.162 -15.999,15.998 0,8.835 7.163,15.998 15.999,15.998 h 23.492 l 0.001,23.493 c 0,8.836 7.163,15.998 15.998,15.998 C -7.163,94.98 0,87.818 0,78.982 V 55.489 h 23.493 c 8.836,0 15.999,-7.163 15.999,-15.998 0,-8.835 -7.163,-15.998 -15.999,-15.998 L 0,23.493 Z" style="fill:none;stroke:#000000;stroke-width:20;stroke-linecap:round;stroke-linejoin:round;stroke-miterlimit:22.926;stroke-dasharray:none;stroke-opacity:1" id="path27"/>
        </g>
        <g id="g29" transform="translate(148.4443,396.6597)">
          <path d="m 0,0 c 18.095,8.223 39.182,7.182 56.362,-2.737 m -85.317,-24.425 c 0.006,0.011 0.013,0.022 0.018,0.034 0.003,0.006 0.007,0.012 0.01,0.018 m 36.483,-131.854 -58.866,0.001 c -22.624,0 -41.134,18.503 -41.134,41.115 0,22.613 18.51,41.116 41.134,41.116 h 18.631 c -2.274,6.43 -3.515,13.349 -3.515,20.558 m 203.33,37.59 c 15.422,15.422 36.338,24.085 58.148,24.085 45.437,0 82.272,-36.817 82.272,-82.233 0,-45.997 -37.441,-82.233 -82.272,-82.233 H 207.556 M 225.253,7.997 c -1.325,53.987 -45.524,97.344 -99.856,97.344 -54.531,0 -98.855,-43.676 -99.868,-97.94" style="fill:none;stroke:#000000;stroke-width:20;stroke-linecap:round;stroke-linejoin:round;stroke-miterlimit:2.613;stroke-dasharray:none;stroke-opacity:1" id="path31"/>
        </g>
        <g id="g33" transform="translate(256.0005,137.6958)">
          <path d="M 0,0 C 55.078,0 100,44.922 100,100 100,155.078 55.078,200 0,200 -55.078,200 -100,155.078 -100,100 -100,44.922 -55.078,0 0,0 Z" style="fill:none;stroke:#000000;stroke-width:20;stroke-linecap:round;stroke-linejoin:round;stroke-miterlimit:22.926;stroke-dasharray:none;stroke-opacity:1" id="path35"/>
        </g>
        <g id="g37" transform="translate(256.0005,9.999)">
          <path d="M 0,0 C 13.219,0 24,10.781 24,24 24,37.219 13.219,48 0,48 -13.219,48 -24,37.219 -24,24 -24,10.781 -13.219,0 0,0 Z" style="fill:none;stroke:#000000;stroke-width:20;stroke-linecap:round;stroke-linejoin:round;stroke-miterlimit:22.926;stroke-dasharray:none;stroke-opacity:1" id="path39"/>
        </g>
        <g id="g41" transform="translate(256,57.999)">
          <path d="M 0,0 V 79.697" style="fill:none;stroke:#000000;stroke-width:20;stroke-linecap:round;stroke-linejoin:round;stroke-miterlimit:22.926;stroke-dasharray:none;stroke-opacity:1" id="path43"/>
        </g>
        <g id="g45" transform="translate(80.0005,67.999)">
          <path d="M 0,0 C 13.219,0 24,10.781 24,24 24,37.219 13.219,48 0,48 -13.219,48 -24,37.219 -24,24 -24,10.781 -13.219,0 0,0 Z" style="fill:none;stroke:#000000;stroke-width:20;stroke-linecap:round;stroke-linejoin:round;stroke-miterlimit:22.926;stroke-dasharray:none;stroke-opacity:1" id="path47"/>
        </g>
        <g id="g49" transform="translate(432,67.999)">
          <path d="M 0,0 C 13.219,0 24,10.781 24,24 24,37.219 13.219,48 0,48 -13.219,48 -24,37.219 -24,24 -24,10.781 -13.219,0 0,0 Z" style="fill:none;stroke:#000000;stroke-width:20;stroke-linecap:round;stroke-linejoin:round;stroke-miterlimit:22.926;stroke-dasharray:none;stroke-opacity:1" id="path51"/>
        </g>
        <g id="g53" transform="translate(104.0005,91.999)">
          <path d="m 0,0 h 56 c 8.801,0 16,7.2 16,16 v 69.69" style="fill:none;stroke:#000000;stroke-width:20;stroke-linecap:round;stroke-linejoin:round;stroke-miterlimit:22.926;stroke-dasharray:none;stroke-opacity:1" id="path55"/>
        </g>
        <g id="g57" transform="translate(408,91.999)">
          <path d="M 0,0 H -56.001 C -64.801,0 -72,7.2 -72,16 v 69.69" style="fill:none;stroke:#000000;stroke-width:20;stroke-linecap:round;stroke-linejoin:round;stroke-miterlimit:22.926;stroke-dasharray:none;stroke-opacity:1" id="path59"/>
        </g>
        <g id="g61" transform="translate(201.999,33.999)">
          <path d="M 0,0 H 0.236" style="fill:none;stroke:#000000;stroke-width:20;stroke-linecap:round;stroke-linejoin:round;stroke-miterlimit:2.613;stroke-dasharray:none;stroke-opacity:1" id="path63"/>
        </g>
        <g id="g65" transform="translate(309.7651,33.999)">
          <path d="M 0,0 H 0.236" style="fill:none;stroke:#000000;stroke-width:20;stroke-linecap:round;stroke-linejoin:round;stroke-miterlimit:2.613;stroke-dasharray:none;stroke-opacity:1" id="path67"/>
        </g>
        <g id="g69" transform="translate(80.0005,37.998)">
          <path d="M 0,0 V 0.236" style="fill:none;stroke:#000000;stroke-width:20;stroke-linecap:round;stroke-linejoin:round;stroke-miterlimit:2.613;stroke-dasharray:none;stroke-opacity:1" id="path71"/>
        </g>
        <g id="g73" transform="translate(431.9995,37.998)">
          <path d="M 0,0 V 0.236" style="fill:none;stroke:#000000;stroke-width:20;stroke-linecap:round;stroke-linejoin:round;stroke-miterlimit:2.613;stroke-dasharray:none;stroke-opacity:1" id="path75"/>
        </g>
        <g id="g77" transform="translate(80.0005,145.7642)">
          <path d="M 0,0 V 0.236" style="fill:none;stroke:#000000;stroke-width:20;stroke-linecap:round;stroke-linejoin:round;stroke-miterlimit:2.613;stroke-dasharray:none;stroke-opacity:1" id="path79"/>
        </g>
        <g id="g81" transform="translate(431.9995,145.7642)">
          <path d="M 0,0 V 0.236" style="fill:none;stroke:#000000;stroke-width:20;stroke-linecap:round;stroke-linejoin:round;stroke-miterlimit:2.613;stroke-dasharray:none;stroke-opacity:1" id="path83"/>
        </g>
      </g>
    </g>
  </g></g>
</svg>
