<svg width="150" height="150" viewBox="0 0 150 150" fill="none" xmlns="http://www.w3.org/2000/svg">
<path d="M140.775 27.9014H9.22535C6.89183 27.9014 5 26.0096 5 23.6761V15.2254C5 12.8918 6.89183 11 9.22535 11H140.775C143.108 11 145 12.8918 145 15.2254V23.6761C145 26.0096 143.108 27.9014 140.775 27.9014Z" stroke="#663366" stroke-width="4.22535" stroke-miterlimit="10" stroke-linecap="round" stroke-linejoin="round"/>
<path d="M96.7598 19.4531H136.254C137.039 19.4531 137.675 20.0895 137.675 20.8745V27.6221" stroke="#663366" stroke-width="4.22535" stroke-miterlimit="10" stroke-linecap="round" stroke-linejoin="round"/>
<path d="M12.3242 27.6221V20.8745C12.3242 20.0895 12.9606 19.4531 13.7456 19.4531H86.9017" stroke="#663366" stroke-width="4.22535" stroke-miterlimit="10" stroke-linecap="round" stroke-linejoin="round"/>
<path d="M91.8775 115.228H9.22535C6.89183 115.228 5 113.336 5 111.003C5 108.669 6.89183 106.777 9.22535 106.777H140.775C143.108 106.777 145 108.669 145 111.003C145 113.336 143.108 115.228 140.775 115.228H101.737" stroke="#663366" stroke-width="4.22535" stroke-miterlimit="10" stroke-linecap="round" stroke-linejoin="round"/>
<path d="M12.3242 106.635V28.043" stroke="#663366" stroke-width="4.22535" stroke-miterlimit="10" stroke-linecap="round" stroke-linejoin="round"/>
<path d="M137.676 56.0703V106.634" stroke="#663366" stroke-width="4.22535" stroke-miterlimit="10" stroke-linecap="round" stroke-linejoin="round"/>
<path d="M137.676 28.043V46.212" stroke="#663366" stroke-width="4.22535" stroke-miterlimit="10" stroke-linecap="round" stroke-linejoin="round"/>
<path d="M74.9999 139.734C77.7224 139.734 79.9295 137.527 79.9295 134.805C79.9295 132.082 77.7224 129.875 74.9999 129.875C72.2774 129.875 70.0703 132.082 70.0703 134.805C70.0703 137.527 72.2774 139.734 74.9999 139.734Z" stroke="#663366" stroke-width="4.22535" stroke-miterlimit="10" stroke-linecap="round" stroke-linejoin="round"/>
<path d="M75 129.733V115.367" stroke="#663366" stroke-width="4.22535" stroke-miterlimit="10" stroke-linecap="round" stroke-linejoin="round"/>
<path d="M26.2034 82.0404C24.0429 78.0413 22.8164 73.4632 22.8164 68.599C22.8164 53.0136 35.4068 40.3689 50.9716 40.2812" stroke="#663366" stroke-width="4.22535" stroke-miterlimit="10" stroke-linecap="round" stroke-linejoin="round"/>
<path d="M79.4527 68.7031C79.3967 84.295 66.7398 96.9172 51.1347 96.9172C43.9401 96.9172 37.3722 94.2341 32.377 89.8141" stroke="#663366" stroke-width="4.22535" stroke-miterlimit="10" stroke-linecap="round" stroke-linejoin="round"/>
<path d="M66.5816 68.7199C66.5159 77.1943 59.6258 84.0439 51.1357 84.0439C42.6049 84.0439 35.6895 77.1284 35.6895 68.5977C35.6895 60.1214 42.5171 53.2397 50.9728 53.1523" stroke="#663366" stroke-width="4.22535" stroke-miterlimit="10" stroke-linecap="round" stroke-linejoin="round"/>
<path d="M51.1348 68.5982V39.5661C51.1348 38.5269 52.0117 37.7007 53.0488 37.7653C60.5418 38.2306 67.6407 41.4157 72.9793 46.754C78.3179 52.0923 81.5027 59.1915 81.968 66.6844C82.0325 67.7216 81.2063 68.5985 80.1672 68.5985L51.1348 68.5982Z" stroke="#663366" stroke-width="4.22535" stroke-miterlimit="10" stroke-linecap="round" stroke-linejoin="round"/>
<path d="M116.966 89.1424L125.567 85.0914C127.723 84.0759 127.723 81.006 125.567 79.9905L108.242 71.8308C107.483 71.4731 106.603 71.4731 105.844 71.8308L88.5194 79.9905C86.3633 81.006 86.3633 84.0759 88.5194 85.0914L97.1433 89.1533" stroke="#663366" stroke-width="4.22535" stroke-miterlimit="10" stroke-linecap="round" stroke-linejoin="round"/>
<path d="M116.9 84.6719H97.1855V96.9167H116.9V84.6719Z" stroke="#663366" stroke-width="4.22535" stroke-miterlimit="10" stroke-linecap="round" stroke-linejoin="round"/>
<path d="M127.183 40.5781H91.5527" stroke="#663366" stroke-width="4.22535" stroke-miterlimit="10" stroke-linecap="round" stroke-linejoin="round"/>
<path d="M100.91 50.4375H91.5527" stroke="#663366" stroke-width="4.22535" stroke-miterlimit="10" stroke-linecap="round" stroke-linejoin="round"/>
<path d="M127.182 50.4375H109.359" stroke="#663366" stroke-width="4.22535" stroke-miterlimit="10" stroke-linecap="round" stroke-linejoin="round"/>
<path d="M114.082 60.2969H91.5527" stroke="#663366" stroke-width="4.22535" stroke-miterlimit="10" stroke-linecap="round" stroke-linejoin="round"/>
<path d="M59.4512 60.1562H71.3391" stroke="#663366" stroke-width="4.22535" stroke-miterlimit="10" stroke-linecap="round" stroke-linejoin="round"/>
<path d="M59.4512 51.707H65.9869" stroke="#663366" stroke-width="4.22535" stroke-miterlimit="10" stroke-linecap="round" stroke-linejoin="round"/>
</svg>
