<svg width="150" height="150" viewBox="0 0 150 150" fill="none" xmlns="http://www.w3.org/2000/svg">
<path d="M29.5184 91.6938H22.9688C22.0066 91.6938 21.2266 90.9138 21.2266 89.9515V71.7774C21.2266 70.8152 22.0066 70.0352 22.9688 70.0352H29.5184V91.6938Z" stroke="#663366" stroke-width="4.22536" stroke-miterlimit="10" stroke-linecap="round" stroke-linejoin="round"/>
<path d="M21.226 89.4813H17.1187C15.2604 89.4813 13.7539 87.9748 13.7539 86.1165V75.6109C13.7539 73.7526 15.2604 72.2461 17.1187 72.2461H21.226V89.4813Z" stroke="#663366" stroke-width="4.22536" stroke-miterlimit="10" stroke-linecap="round" stroke-linejoin="round"/>
<path d="M74.5176 91.6938H81.0672C82.0294 91.6938 82.8094 90.9138 82.8094 89.9515V71.7774C82.8094 70.8152 82.0294 70.0352 81.0672 70.0352H74.5176V91.6938Z" stroke="#663366" stroke-width="4.22536" stroke-miterlimit="10" stroke-linecap="round" stroke-linejoin="round"/>
<path d="M82.8105 89.4813H86.9179C88.7762 89.4813 90.2827 87.9748 90.2827 86.1165V75.6109C90.2827 73.7526 88.7762 72.2461 86.9179 72.2461H82.8105V89.4813Z" stroke="#663366" stroke-width="4.22536" stroke-miterlimit="10" stroke-linecap="round" stroke-linejoin="round"/>
<path d="M32.0556 101.329C30.4243 98.3649 29.5195 94.9838 29.5195 91.4565V65.5415C29.5195 61.2083 33.0325 57.6953 37.3657 57.6953H66.6728C71.006 57.6953 74.519 61.2083 74.519 65.5415V91.4565C74.519 99.6635 69.6207 107.078 62.0717 110.298C55.65 113.037 48.3886 113.037 41.9669 110.298C40.0725 109.49 38.3449 108.418 36.8198 107.135" stroke="#663366" stroke-width="4.22536" stroke-miterlimit="10" stroke-linecap="round" stroke-linejoin="round"/>
<path d="M77.3979 47.1068C84.4951 39.2206 94.7819 34.2617 106.227 34.2617C127.64 34.2617 144.999 51.6206 144.999 73.0341C144.999 94.4477 127.64 111.807 106.227 111.807C93.4061 111.807 82.0391 105.584 74.9805 95.9944" stroke="#663366" stroke-width="4.22536" stroke-miterlimit="10" stroke-linecap="round" stroke-linejoin="round"/>
<path d="M106.227 82.0136C111.187 82.0136 115.207 77.9933 115.207 73.0341C115.207 68.0749 111.187 64.0547 106.227 64.0547C101.268 64.0547 97.248 68.0749 97.248 73.0341C97.248 77.9933 101.268 82.0136 106.227 82.0136Z" stroke="#663366" stroke-width="4.22536" stroke-miterlimit="10" stroke-linecap="round" stroke-linejoin="round"/>
<path d="M79.3582 69.082L81.299 57.6685C82.228 52.2054 79.0106 46.8871 73.7402 45.1747C59.6227 40.5876 44.4156 40.5876 30.2981 45.1747C25.0277 46.8871 21.8102 52.2054 22.7393 57.6685L24.6739 69.0454" stroke="#663366" stroke-width="4.22536" stroke-miterlimit="10" stroke-linecap="round" stroke-linejoin="round"/>
<path d="M16.6531 72.2468L13.7942 55.1532C12.0432 44.6834 20.1159 35.1484 30.7311 35.1484H73.3078C83.923 35.1484 91.9957 44.6834 90.2447 55.1532L87.3858 72.2471" stroke="#663366" stroke-width="4.22536" stroke-miterlimit="10" stroke-linecap="round" stroke-linejoin="round"/>
<path d="M22.0723 90.3359V95.4782C22.0723 99.4047 25.6585 102.588 30.0821 102.588H31.3526" stroke="#663366" stroke-width="4.22536" stroke-miterlimit="10" stroke-linecap="round" stroke-linejoin="round"/>
<path d="M42.4916 106.147H35.5789C33.6335 106.147 32.0566 104.571 32.0566 102.625V102.593C32.0566 100.647 33.6335 99.0703 35.5789 99.0703H42.4916C44.4369 99.0703 46.0138 100.647 46.0138 102.593V102.625C46.0138 104.571 44.4369 106.147 42.4916 106.147Z" stroke="#663366" stroke-width="4.22536" stroke-miterlimit="10" stroke-linecap="round" stroke-linejoin="round"/>
<path d="M40.0137 118.677V110.348" stroke="#663366" stroke-width="4.22536" stroke-miterlimit="10" stroke-linecap="round" stroke-linejoin="round"/>
<path d="M64.0234 110.469V118.675" stroke="#663366" stroke-width="4.22536" stroke-miterlimit="10" stroke-linecap="round" stroke-linejoin="round"/>
<path d="M41.2748 42.5625L40.8503 43.3735C38.701 47.4788 38.9805 52.4329 41.5777 56.2707L42.5416 57.6952" stroke="#663366" stroke-width="4.22536" stroke-miterlimit="10" stroke-linecap="round" stroke-linejoin="round"/>
<path d="M62.7609 42.5625L63.1854 43.3735C65.3347 47.4788 65.0553 52.4329 62.4581 56.2707L61.4941 57.6952" stroke="#663366" stroke-width="4.22536" stroke-miterlimit="10" stroke-linecap="round" stroke-linejoin="round"/>
<path d="M31.9316 144.22H52.019H96.6813C97.9827 144.22 99.0379 143.165 99.0379 141.864V139.977C99.0379 135.669 96.0503 131.937 91.8469 130.994L72.6855 126.695" stroke="#663366" stroke-width="4.22536" stroke-miterlimit="10" stroke-linecap="round" stroke-linejoin="round"/>
<path d="M31.3527 126.695L14.0318 130.581C8.75212 131.766 5 136.453 5 141.864C5 143.165 6.05493 144.22 7.35662 144.22H22.0724" stroke="#663366" stroke-width="4.22536" stroke-miterlimit="10" stroke-linecap="round" stroke-linejoin="round"/>
<path d="M52.0178 124.584L38.7868 118.879C37.6637 118.395 36.3549 118.799 35.7003 119.832L31.3516 126.696L41.1166 135.791C42.4003 136.986 44.4558 136.714 45.384 135.225L52.0178 124.584Z" stroke="#663366" stroke-width="4.22536" stroke-miterlimit="10" stroke-linecap="round" stroke-linejoin="round"/>
<path d="M52.0176 124.584L65.2486 118.879C66.3717 118.395 67.6804 118.799 68.3351 119.832L72.6838 126.696L62.9187 135.791C61.6351 136.986 59.5796 136.714 58.6514 135.225L52.0176 124.584Z" stroke="#663366" stroke-width="4.22536" stroke-miterlimit="10" stroke-linecap="round" stroke-linejoin="round"/>
<path d="M115.028 16.39C115.028 20.5064 111.916 24.8596 108.076 24.8596C104.236 24.8596 101.123 20.5064 101.123 16.39C101.123 12.2737 104.236 9.95312 108.076 9.95312C111.915 9.95341 115.028 12.274 115.028 16.39Z" stroke="#663366" stroke-width="4.22536" stroke-miterlimit="10" stroke-linecap="round" stroke-linejoin="round"/>
<path d="M75.8203 13.4219L77.1972 14.7988C78.7423 16.3438 80.8378 17.2117 83.0229 17.2117H100.944" stroke="#663366" stroke-width="4.22536" stroke-miterlimit="10" stroke-linecap="round" stroke-linejoin="round"/>
<path d="M108.076 9.95381V6" stroke="#663366" stroke-width="4.22536" stroke-miterlimit="10" stroke-linecap="round" stroke-linejoin="round"/>
<path d="M94.0086 20.515C94.0086 22.3311 92.5362 25.7071 90.7201 25.7071C88.904 25.7071 87.4316 22.3314 87.4316 20.515C87.4316 18.6987 88.904 17.2266 90.7201 17.2266C92.5362 17.2266 94.0086 18.699 94.0086 20.515Z" stroke="#663366" stroke-width="4.22536" stroke-miterlimit="10" stroke-linecap="round" stroke-linejoin="round"/>
<path d="M140.331 13.4219L138.954 14.7988C137.409 16.3438 135.314 17.2117 133.128 17.2117H115.207" stroke="#663366" stroke-width="4.22536" stroke-miterlimit="10" stroke-linecap="round" stroke-linejoin="round"/>
<path d="M122.145 20.515C122.145 22.3311 123.617 25.7071 125.433 25.7071C127.249 25.7071 128.721 22.3314 128.721 20.515C128.721 18.6987 127.249 17.2266 125.433 17.2266C123.617 17.2266 122.145 18.699 122.145 20.515Z" stroke="#663366" stroke-width="4.22536" stroke-miterlimit="10" stroke-linecap="round" stroke-linejoin="round"/>
<path d="M115.208 97.3621C112.41 98.3954 109.385 98.9593 106.228 98.9593C98.5585 98.9593 91.6667 95.6292 86.9199 90.3359" stroke="#663366" stroke-width="4.22536" stroke-miterlimit="10" stroke-linecap="round" stroke-linejoin="round"/>
<path d="M126.011 56.2773C129.843 60.7965 132.154 66.6458 132.154 73.0345C132.154 80.9112 128.642 87.9675 123.098 92.7224" stroke="#663366" stroke-width="4.22536" stroke-miterlimit="10" stroke-linecap="round" stroke-linejoin="round"/>
<path d="M101.066 47.619C102.734 47.2821 104.46 47.1055 106.227 47.1055C110.457 47.1055 114.45 48.1184 117.977 49.9148" stroke="#663366" stroke-width="4.22536" stroke-miterlimit="10" stroke-linecap="round" stroke-linejoin="round"/>
<path d="M119.23 99.3351C121.366 99.3351 123.097 97.6039 123.097 95.4683C123.097 93.3328 121.366 91.6016 119.23 91.6016C117.094 91.6016 115.363 93.3328 115.363 95.4683C115.363 97.6039 117.094 99.3351 119.23 99.3351Z" stroke="#663366" stroke-width="4.22536" stroke-miterlimit="10" stroke-linecap="round" stroke-linejoin="round"/>
<path d="M122.144 56.464C124.28 56.464 126.011 54.7328 126.011 52.5972C126.011 50.4617 124.28 48.7305 122.144 48.7305C120.009 48.7305 118.277 50.4617 118.277 52.5972C118.277 54.7328 120.009 56.464 122.144 56.464Z" stroke="#663366" stroke-width="4.22536" stroke-miterlimit="10" stroke-linecap="round" stroke-linejoin="round"/>
</svg>
