<svg width="150" height="150" viewBox="0 0 150 150" fill="none" xmlns="http://www.w3.org/2000/svg">
<path d="M131.226 15.7764C133.771 15.7764 136.199 16.868 137.887 18.7725L137.896 18.7803H137.895C138.404 19.355 138.353 20.2365 137.776 20.7432C137.204 21.2495 136.335 21.1994 135.824 20.6328V20.6338L135.808 20.6172C134.648 19.3092 132.978 18.5576 131.229 18.5576C129.481 18.5577 127.811 19.3092 126.651 20.6172L126.644 20.626L126.643 20.625C124.955 22.5269 122.53 23.6172 119.986 23.6172C117.448 23.6172 115.024 22.5292 113.337 20.6338L113.324 20.6211V20.6201C112.164 19.3126 110.495 18.5617 108.747 18.5615C106.998 18.5615 105.328 19.313 104.168 20.6211L104.16 20.6299L104.156 20.6338C102.473 22.5331 100.049 23.6211 97.5068 23.6211C94.9607 23.6211 92.5331 22.529 90.8457 20.624L90.8281 20.6045L90.8252 20.5996C89.666 19.3027 88.0044 18.5577 86.2637 18.5576C84.5227 18.5576 82.8604 19.3025 81.7012 20.5996L81.6992 20.6045L81.6816 20.624C79.9979 22.5292 77.5696 23.6211 75.0234 23.6211C72.4774 23.621 70.0496 22.5289 68.3623 20.624L68.3447 20.6045L68.3418 20.5996C67.1826 19.3027 65.521 18.5576 63.7803 18.5576C62.141 18.5576 60.5713 19.2178 59.4258 20.3779L59.2021 20.6172C57.5148 22.5258 55.087 23.6171 52.541 23.6172C50.0009 23.6172 47.5749 22.5277 45.8877 20.626L45.8789 20.6172C44.719 19.3092 43.0496 18.5576 41.3008 18.5576C39.6615 18.5577 38.0918 19.2178 36.9463 20.3779L36.7227 20.6172C35.0353 22.5258 32.6075 23.6171 30.0615 23.6172C27.5153 23.6172 25.0868 22.5261 23.3994 20.6211C22.2357 19.3092 20.5661 18.5576 18.8174 18.5576C17.3978 18.5577 16.0284 19.0562 14.9404 19.9453H14.9395C14.4092 20.3756 13.6465 20.3642 13.1357 19.9102C12.5015 19.3454 12.5073 18.3424 13.168 17.7998C14.7518 16.5022 16.7445 15.7765 18.8174 15.7764C21.3636 15.7764 23.7921 16.8684 25.4795 18.7734C26.6432 20.0851 28.3129 20.8369 30.0615 20.8369C31.8102 20.8368 33.4798 20.0852 34.6396 18.7773C36.327 16.8686 38.7546 15.7764 41.3008 15.7764C43.8399 15.7764 46.2651 16.8653 47.9521 18.7656H47.9512L47.9561 18.7705L47.9619 18.7773C49.1218 20.0854 50.7922 20.8369 52.541 20.8369C54.2897 20.8368 55.9593 20.0852 57.1191 18.7773C58.8065 16.8686 61.2341 15.7764 63.7803 15.7764C66.1674 15.7764 68.4507 16.736 70.1172 18.4258L70.4414 18.7734L70.459 18.793L70.4609 18.7969C71.6202 20.0945 73.2822 20.8407 75.0234 20.8408C76.7638 20.8408 78.4248 20.0951 79.584 18.7988L79.5879 18.793L79.6055 18.7734C81.2892 16.8682 83.7175 15.7764 86.2637 15.7764C88.6506 15.7764 90.9332 16.7363 92.5996 18.4258L92.9248 18.7734L92.9424 18.793L92.9443 18.7969C94.1036 20.0945 95.7655 20.8408 97.5068 20.8408C99.2557 20.8408 100.925 20.0884 102.085 18.7803L102.093 18.7715H102.094C103.777 16.8698 106.203 15.7803 108.747 15.7803C111.287 15.7804 113.712 16.8667 115.399 18.7686L115.408 18.7764L115.262 18.9062L115.408 18.7773C116.568 20.0852 118.238 20.8369 119.986 20.8369C121.732 20.8369 123.398 20.0886 124.558 18.7842L124.565 18.7754L124.573 18.7686C126.26 16.8669 128.682 15.7765 131.226 15.7764Z" fill="#663366" stroke="#663366" stroke-width="0.4"/>
<path d="M63.7764 129.96C66.3204 129.96 68.7464 131.05 70.4336 132.952L70.4424 132.961H70.4414C72.4356 135.215 75.8407 135.677 78.3545 134.038L78.4775 133.966C79.1029 133.643 79.8859 133.843 80.2812 134.45L80.3525 134.573C80.6752 135.197 80.481 135.98 79.876 136.373C78.4292 137.312 76.738 137.809 75.0205 137.809C74.6454 137.809 74.2669 137.782 73.8945 137.736H73.8936C71.7557 137.465 69.7896 136.423 68.3584 134.809V134.808L68.3545 134.805C67.1946 133.497 65.5252 132.745 63.7764 132.745C62.0276 132.745 60.3581 133.497 59.1982 134.805C57.5109 136.713 55.0831 137.805 52.5371 137.805C49.9946 137.805 47.5663 136.713 45.8789 134.808H45.8779C45.8747 134.804 45.8719 134.8 45.8691 134.797C44.7095 133.493 43.0424 132.745 41.2969 132.745C39.5481 132.745 37.8786 133.497 36.7188 134.805L36.7109 134.813L36.708 134.814C35.021 136.711 32.5969 137.801 30.0576 137.801C27.5174 137.801 25.0915 136.711 23.4043 134.81L23.3955 134.801V134.8C22.2356 133.492 20.5659 132.741 18.8174 132.741C17.3978 132.741 16.0284 133.24 14.9404 134.129H14.9395C14.4092 134.559 13.6465 134.548 13.1357 134.094C12.5015 133.529 12.5073 132.526 13.168 131.983C14.7518 130.686 16.7445 129.96 18.8174 129.96C21.3574 129.96 23.7834 131.046 25.4707 132.948L25.4795 132.957C26.6394 134.265 28.3089 135.017 30.0576 135.017C31.8064 135.017 33.4758 134.265 34.6357 132.957L34.6436 132.948C36.3306 131.05 38.7566 129.96 41.2969 129.96C43.8371 129.96 46.263 131.05 47.9502 132.952L47.959 132.96V132.961C49.1189 134.269 50.7884 135.021 52.5371 135.021C54.2858 135.02 55.9554 134.269 57.1152 132.961L57.4404 132.612C59.1068 130.92 61.3895 129.96 63.7764 129.96ZM34.7188 133.023L34.7227 133.026L34.7188 133.023Z" fill="#663366" stroke="#663366" stroke-width="0.4"/>
<path d="M89.3125 47.6826C93.8336 47.6828 97.5127 51.3626 97.5127 55.8838V73.0527C97.5127 75.7007 95.3598 77.8504 92.7158 77.8506H77.7363C76.9693 77.8504 76.3468 77.227 76.3467 76.46C76.3467 75.6929 76.9693 75.0695 77.7363 75.0693H92.7158C93.829 75.0692 94.7324 74.1626 94.7324 73.0527V55.8838C94.7324 52.8971 92.2992 50.464 89.3125 50.4639H40.4316C37.4448 50.4639 35.0117 52.897 35.0117 55.8838V73.0527C35.0117 74.166 35.9183 75.0693 37.0283 75.0693H52.0068C52.7741 75.0693 53.3975 75.6927 53.3975 76.46C53.3973 77.2271 52.774 77.8506 52.0068 77.8506H37.0283C34.3839 77.8506 32.2344 75.6968 32.2344 73.0527V55.8838C32.2344 51.3625 35.9143 47.6826 40.4355 47.6826H89.3125Z" fill="#663366" stroke="#663366" stroke-width="0.4"/>
<path d="M64.874 101.651C68.287 101.651 71.0635 104.428 71.0635 107.841C71.0635 111.254 68.287 114.03 64.874 114.03C61.4611 114.03 58.6846 111.254 58.6846 107.841C58.6846 104.428 61.4611 101.651 64.874 101.651ZM64.874 104.429C62.9956 104.429 61.4659 105.959 61.4658 107.837C61.4658 109.715 62.9955 111.246 64.874 111.246C66.7525 111.246 68.2822 109.715 68.2822 107.837C68.2821 105.959 66.7525 104.429 64.874 104.429Z" fill="#663366" stroke="#663366" stroke-width="0.4"/>
<mask id="path-5-outside-1_663_4054" maskUnits="userSpaceOnUse" x="11" y="30.6562" width="95" height="92" fill="black">
<rect fill="white" x="11" y="30.6562" width="95" height="92"/>
<path d="M17.8736 103.154C19.7133 104.994 21.859 106.442 24.2472 107.45C26.7213 108.494 29.3447 109.024 32.0538 109.024H50.8352C51.1113 112.338 52.5331 115.42 54.9101 117.797C57.5708 120.458 61.1084 121.925 64.8736 121.925C68.6388 121.925 72.1764 120.458 74.8371 117.797C77.4977 115.137 78.9643 111.599 78.9643 107.834C78.9643 104.069 77.4977 100.531 74.8371 97.8705C72.1764 95.2098 68.6388 93.7433 64.8736 93.7433C61.1084 93.7433 57.5708 95.2098 54.9101 97.8705C52.5331 100.248 51.1076 103.33 50.8352 106.644H32.0538C22.3105 106.644 14.3845 98.7176 14.3845 88.9742V66.6404C14.3845 65.1589 15.5898 63.9536 17.0713 63.9536H18.4781V66.1702C18.4781 67.827 19.8252 69.1704 21.4784 69.1704H24.4898V73.0513C24.4898 76.4023 25.7959 79.5518 28.1617 81.9177C30.5313 84.2873 33.6808 85.5896 37.0281 85.5896H50.7979C52.0554 85.5896 53.2757 85.2911 54.3765 84.7164L59.0709 87.3361C60.1382 87.9294 61.3435 88.2466 62.5675 88.2466H67.1835C68.4037 88.2466 69.6128 87.9331 70.68 87.3361L75.3744 84.7164C76.4753 85.2911 77.6955 85.5896 78.9531 85.5896H92.7228C96.0739 85.5896 99.2234 84.2836 101.589 81.9177C103.955 79.5518 105.261 76.3986 105.261 73.0513V55.8821C105.261 53.7289 104.839 51.6429 104.007 49.6763C103.205 47.7769 102.056 46.0716 100.589 44.6088C99.1263 43.146 97.421 41.9966 95.5216 41.1906C93.555 40.3584 91.4653 39.9368 89.3158 39.9368H85.3305L83.8602 36.3581C83.2855 34.9625 82.319 33.7796 81.0652 32.9399C79.8114 32.1003 78.3523 31.6562 76.841 31.6562H52.9062C51.3987 31.6562 49.9359 32.1003 48.682 32.9399C47.4282 33.7796 46.4617 34.9625 45.887 36.3581L44.4168 39.9368H40.4314C38.2782 39.9368 36.1922 40.3584 34.2256 41.1906C32.3262 41.9929 30.6209 43.1422 29.1581 44.6088C27.6953 46.0716 26.5459 47.7769 25.7399 49.6763C24.9077 51.6429 24.4861 53.7326 24.4861 55.8821V56.3597H21.4746C19.8178 56.3597 18.4744 57.7068 18.4744 59.3599V61.5765H17.0676C14.2726 61.5765 12 63.8491 12 66.6441V88.978C12 91.6834 12.5299 94.3105 13.5748 96.7846C14.586 99.1691 16.0339 101.311 17.8736 103.154ZM64.8736 96.1278C71.3293 96.1278 76.5835 101.382 76.5835 107.838C76.5835 114.293 71.3293 119.548 64.8736 119.548C58.4179 119.548 53.1637 114.293 53.1637 107.838C53.1637 101.378 58.4179 96.1278 64.8736 96.1278ZM69.5158 85.2613C68.803 85.6568 67.997 85.8695 67.1798 85.8695H62.5637C61.7465 85.8695 60.9405 85.6605 60.2277 85.2613L56.4476 83.1492C57.1342 82.4215 57.6715 81.5669 58.0372 80.6154L61.0487 72.7715C61.5002 71.5997 62.6458 70.8123 63.8996 70.8123H65.8401C67.0977 70.8123 68.2433 71.5997 68.6911 72.7715L71.7025 80.6154C72.0682 81.5632 72.6056 82.4215 73.2922 83.1492L69.5158 85.2613ZM48.0924 37.2612C48.8985 35.3021 50.7867 34.0333 52.9062 34.0333H76.841C78.9605 34.0333 80.8488 35.2983 81.6548 37.2612L82.7556 39.9368H46.9916L48.0924 37.2612ZM26.8669 55.8821C26.8669 48.4039 32.9532 42.3175 40.4314 42.3175H89.3121C96.7903 42.3175 102.877 48.4039 102.877 55.8821V73.0513C102.877 78.6525 98.3203 83.2126 92.7154 83.2126H78.9456C76.7365 83.2126 74.7177 81.8282 73.9266 79.7646L70.9151 71.9206C70.5196 70.8907 69.8292 70.0138 68.9187 69.3906C68.0082 68.7674 66.9447 68.4353 65.8401 68.4353H63.8996C62.7951 68.4353 61.7316 68.7674 60.821 69.3906C59.9105 70.0138 59.2202 70.8907 58.8246 71.9206L55.8132 79.7646C55.0221 81.8282 53.0033 83.2126 50.7941 83.2126H37.0244C31.4232 83.2126 26.8631 78.6563 26.8631 73.0513L26.8669 55.8821ZM20.8552 59.3599C20.8552 59.0166 21.1351 58.7405 21.4746 58.7405H24.4861V66.7934H21.4746C21.1313 66.7934 20.8552 66.5135 20.8552 66.1739V59.3599Z"/>
</mask>
<path d="M17.8736 103.154C19.7133 104.994 21.859 106.442 24.2472 107.45C26.7213 108.494 29.3447 109.024 32.0538 109.024H50.8352C51.1113 112.338 52.5331 115.42 54.9101 117.797C57.5708 120.458 61.1084 121.925 64.8736 121.925C68.6388 121.925 72.1764 120.458 74.8371 117.797C77.4977 115.137 78.9643 111.599 78.9643 107.834C78.9643 104.069 77.4977 100.531 74.8371 97.8705C72.1764 95.2098 68.6388 93.7433 64.8736 93.7433C61.1084 93.7433 57.5708 95.2098 54.9101 97.8705C52.5331 100.248 51.1076 103.33 50.8352 106.644H32.0538C22.3105 106.644 14.3845 98.7176 14.3845 88.9742V66.6404C14.3845 65.1589 15.5898 63.9536 17.0713 63.9536H18.4781V66.1702C18.4781 67.827 19.8252 69.1704 21.4784 69.1704H24.4898V73.0513C24.4898 76.4023 25.7959 79.5518 28.1617 81.9177C30.5313 84.2873 33.6808 85.5896 37.0281 85.5896H50.7979C52.0554 85.5896 53.2757 85.2911 54.3765 84.7164L59.0709 87.3361C60.1382 87.9294 61.3435 88.2466 62.5675 88.2466H67.1835C68.4037 88.2466 69.6128 87.9331 70.68 87.3361L75.3744 84.7164C76.4753 85.2911 77.6955 85.5896 78.9531 85.5896H92.7228C96.0739 85.5896 99.2234 84.2836 101.589 81.9177C103.955 79.5518 105.261 76.3986 105.261 73.0513V55.8821C105.261 53.7289 104.839 51.6429 104.007 49.6763C103.205 47.7769 102.056 46.0716 100.589 44.6088C99.1263 43.146 97.421 41.9966 95.5216 41.1906C93.555 40.3584 91.4653 39.9368 89.3158 39.9368H85.3305L83.8602 36.3581C83.2855 34.9625 82.319 33.7796 81.0652 32.9399C79.8114 32.1003 78.3523 31.6562 76.841 31.6562H52.9062C51.3987 31.6562 49.9359 32.1003 48.682 32.9399C47.4282 33.7796 46.4617 34.9625 45.887 36.3581L44.4168 39.9368H40.4314C38.2782 39.9368 36.1922 40.3584 34.2256 41.1906C32.3262 41.9929 30.6209 43.1422 29.1581 44.6088C27.6953 46.0716 26.5459 47.7769 25.7399 49.6763C24.9077 51.6429 24.4861 53.7326 24.4861 55.8821V56.3597H21.4746C19.8178 56.3597 18.4744 57.7068 18.4744 59.3599V61.5765H17.0676C14.2726 61.5765 12 63.8491 12 66.6441V88.978C12 91.6834 12.5299 94.3105 13.5748 96.7846C14.586 99.1691 16.0339 101.311 17.8736 103.154ZM64.8736 96.1278C71.3293 96.1278 76.5835 101.382 76.5835 107.838C76.5835 114.293 71.3293 119.548 64.8736 119.548C58.4179 119.548 53.1637 114.293 53.1637 107.838C53.1637 101.378 58.4179 96.1278 64.8736 96.1278ZM69.5158 85.2613C68.803 85.6568 67.997 85.8695 67.1798 85.8695H62.5637C61.7465 85.8695 60.9405 85.6605 60.2277 85.2613L56.4476 83.1492C57.1342 82.4215 57.6715 81.5669 58.0372 80.6154L61.0487 72.7715C61.5002 71.5997 62.6458 70.8123 63.8996 70.8123H65.8401C67.0977 70.8123 68.2433 71.5997 68.6911 72.7715L71.7025 80.6154C72.0682 81.5632 72.6056 82.4215 73.2922 83.1492L69.5158 85.2613ZM48.0924 37.2612C48.8985 35.3021 50.7867 34.0333 52.9062 34.0333H76.841C78.9605 34.0333 80.8488 35.2983 81.6548 37.2612L82.7556 39.9368H46.9916L48.0924 37.2612ZM26.8669 55.8821C26.8669 48.4039 32.9532 42.3175 40.4314 42.3175H89.3121C96.7903 42.3175 102.877 48.4039 102.877 55.8821V73.0513C102.877 78.6525 98.3203 83.2126 92.7154 83.2126H78.9456C76.7365 83.2126 74.7177 81.8282 73.9266 79.7646L70.9151 71.9206C70.5196 70.8907 69.8292 70.0138 68.9187 69.3906C68.0082 68.7674 66.9447 68.4353 65.8401 68.4353H63.8996C62.7951 68.4353 61.7316 68.7674 60.821 69.3906C59.9105 70.0138 59.2202 70.8907 58.8246 71.9206L55.8132 79.7646C55.0221 81.8282 53.0033 83.2126 50.7941 83.2126H37.0244C31.4232 83.2126 26.8631 78.6563 26.8631 73.0513L26.8669 55.8821ZM20.8552 59.3599C20.8552 59.0166 21.1351 58.7405 21.4746 58.7405H24.4861V66.7934H21.4746C21.1313 66.7934 20.8552 66.5135 20.8552 66.1739V59.3599Z" fill="#663366"/>
<path d="M17.8736 103.154C19.7133 104.994 21.859 106.442 24.2472 107.45C26.7213 108.494 29.3447 109.024 32.0538 109.024H50.8352C51.1113 112.338 52.5331 115.42 54.9101 117.797C57.5708 120.458 61.1084 121.925 64.8736 121.925C68.6388 121.925 72.1764 120.458 74.8371 117.797C77.4977 115.137 78.9643 111.599 78.9643 107.834C78.9643 104.069 77.4977 100.531 74.8371 97.8705C72.1764 95.2098 68.6388 93.7433 64.8736 93.7433C61.1084 93.7433 57.5708 95.2098 54.9101 97.8705C52.5331 100.248 51.1076 103.33 50.8352 106.644H32.0538C22.3105 106.644 14.3845 98.7176 14.3845 88.9742V66.6404C14.3845 65.1589 15.5898 63.9536 17.0713 63.9536H18.4781V66.1702C18.4781 67.827 19.8252 69.1704 21.4784 69.1704H24.4898V73.0513C24.4898 76.4023 25.7959 79.5518 28.1617 81.9177C30.5313 84.2873 33.6808 85.5896 37.0281 85.5896H50.7979C52.0554 85.5896 53.2757 85.2911 54.3765 84.7164L59.0709 87.3361C60.1382 87.9294 61.3435 88.2466 62.5675 88.2466H67.1835C68.4037 88.2466 69.6128 87.9331 70.68 87.3361L75.3744 84.7164C76.4753 85.2911 77.6955 85.5896 78.9531 85.5896H92.7228C96.0739 85.5896 99.2234 84.2836 101.589 81.9177C103.955 79.5518 105.261 76.3986 105.261 73.0513V55.8821C105.261 53.7289 104.839 51.6429 104.007 49.6763C103.205 47.7769 102.056 46.0716 100.589 44.6088C99.1263 43.146 97.421 41.9966 95.5216 41.1906C93.555 40.3584 91.4653 39.9368 89.3158 39.9368H85.3305L83.8602 36.3581C83.2855 34.9625 82.319 33.7796 81.0652 32.9399C79.8114 32.1003 78.3523 31.6562 76.841 31.6562H52.9062C51.3987 31.6562 49.9359 32.1003 48.682 32.9399C47.4282 33.7796 46.4617 34.9625 45.887 36.3581L44.4168 39.9368H40.4314C38.2782 39.9368 36.1922 40.3584 34.2256 41.1906C32.3262 41.9929 30.6209 43.1422 29.1581 44.6088C27.6953 46.0716 26.5459 47.7769 25.7399 49.6763C24.9077 51.6429 24.4861 53.7326 24.4861 55.8821V56.3597H21.4746C19.8178 56.3597 18.4744 57.7068 18.4744 59.3599V61.5765H17.0676C14.2726 61.5765 12 63.8491 12 66.6441V88.978C12 91.6834 12.5299 94.3105 13.5748 96.7846C14.586 99.1691 16.0339 101.311 17.8736 103.154ZM64.8736 96.1278C71.3293 96.1278 76.5835 101.382 76.5835 107.838C76.5835 114.293 71.3293 119.548 64.8736 119.548C58.4179 119.548 53.1637 114.293 53.1637 107.838C53.1637 101.378 58.4179 96.1278 64.8736 96.1278ZM69.5158 85.2613C68.803 85.6568 67.997 85.8695 67.1798 85.8695H62.5637C61.7465 85.8695 60.9405 85.6605 60.2277 85.2613L56.4476 83.1492C57.1342 82.4215 57.6715 81.5669 58.0372 80.6154L61.0487 72.7715C61.5002 71.5997 62.6458 70.8123 63.8996 70.8123H65.8401C67.0977 70.8123 68.2433 71.5997 68.6911 72.7715L71.7025 80.6154C72.0682 81.5632 72.6056 82.4215 73.2922 83.1492L69.5158 85.2613ZM48.0924 37.2612C48.8985 35.3021 50.7867 34.0333 52.9062 34.0333H76.841C78.9605 34.0333 80.8488 35.2983 81.6548 37.2612L82.7556 39.9368H46.9916L48.0924 37.2612ZM26.8669 55.8821C26.8669 48.4039 32.9532 42.3175 40.4314 42.3175H89.3121C96.7903 42.3175 102.877 48.4039 102.877 55.8821V73.0513C102.877 78.6525 98.3203 83.2126 92.7154 83.2126H78.9456C76.7365 83.2126 74.7177 81.8282 73.9266 79.7646L70.9151 71.9206C70.5196 70.8907 69.8292 70.0138 68.9187 69.3906C68.0082 68.7674 66.9447 68.4353 65.8401 68.4353H63.8996C62.7951 68.4353 61.7316 68.7674 60.821 69.3906C59.9105 70.0138 59.2202 70.8907 58.8246 71.9206L55.8132 79.7646C55.0221 81.8282 53.0033 83.2126 50.7941 83.2126H37.0244C31.4232 83.2126 26.8631 78.6563 26.8631 73.0513L26.8669 55.8821ZM20.8552 59.3599C20.8552 59.0166 21.1351 58.7405 21.4746 58.7405H24.4861V66.7934H21.4746C21.1313 66.7934 20.8552 66.5135 20.8552 66.1739V59.3599Z" stroke="#663366" stroke-width="0.8" mask="url(#path-5-outside-1_663_4054)"/>
<path d="M99.3652 118.542C104.405 118.542 108.506 122.64 108.506 127.68C108.506 132.719 104.405 136.82 99.3652 136.82C94.329 136.82 90.2277 132.716 90.2275 127.68C90.2275 122.644 94.3252 118.542 99.3652 118.542ZM99.3652 121.319C95.8561 121.319 93.0049 124.174 93.0049 127.68C93.005 131.189 95.8597 134.04 99.3652 134.04C102.871 134.04 105.725 131.189 105.726 127.68C105.726 124.171 102.874 121.319 99.3652 121.319Z" fill="#663366" stroke="#663366" stroke-width="0.4"/>
<mask id="path-7-outside-2_663_4054" maskUnits="userSpaceOnUse" x="81.0537" y="24.4336" width="55" height="121" fill="black">
<rect fill="white" x="81.0537" y="24.4336" width="55" height="121"/>
<path d="M127.628 105.735C124.538 105.735 122.023 103.22 122.023 100.13V89.9686C126.796 89.379 130.502 85.3003 130.502 80.3745C130.502 78.3408 129.871 76.4526 128.793 74.8928V64.739C128.793 63.1903 127.531 61.929 125.983 61.929H125.897V26.624C125.897 25.9672 125.363 25.4336 124.706 25.4336C124.05 25.4336 123.516 25.9672 123.516 26.624V61.929H118.142V26.8964C118.142 26.2396 117.609 25.706 116.952 25.706C116.295 25.706 115.762 26.2396 115.762 26.8964V61.929H115.68C114.131 61.929 112.87 63.1903 112.87 64.739V74.8928C111.795 76.4526 111.161 78.3408 111.161 80.3745C111.161 82.0239 111.575 83.58 112.31 84.9383L98.9357 95.984H93.4203C92.5135 95.984 91.6478 96.3198 90.9798 96.9318C90.3118 97.5401 89.8976 98.3722 89.8155 99.2753L88.446 114.262C87.987 114.635 87.5467 115.03 87.125 115.452C85.5353 117.042 84.289 118.893 83.4158 120.952C82.5127 123.087 82.0537 125.352 82.0537 127.688C82.0537 130.024 82.5127 132.289 83.4158 134.427C84.289 136.487 85.5353 138.338 87.125 139.928C88.7147 141.517 90.5656 142.764 92.6254 143.637C94.7599 144.54 97.0251 144.999 99.3611 144.999C101.697 144.999 103.966 144.54 106.1 143.637C108.16 142.764 110.011 141.517 111.601 139.928C113.191 138.338 114.437 136.487 115.31 134.427C116.06 132.659 116.5 130.796 116.631 128.882H127.628C132.032 128.882 135.614 125.3 135.614 120.896V113.724C135.614 109.313 132.032 105.735 127.628 105.735ZM115.254 64.7352C115.254 64.5001 115.444 64.3061 115.683 64.3061H125.986C126.221 64.3061 126.415 64.4964 126.415 64.7352V72.4784C124.837 71.3589 122.911 70.7021 120.837 70.7021C118.762 70.7021 116.833 71.3589 115.258 72.4784V64.7352H115.254ZM120.833 73.0829C124.852 73.0829 128.121 76.3518 128.121 80.3708C128.121 84.3898 124.852 87.6587 120.833 87.6587C116.814 87.6587 113.545 84.3898 113.545 80.3708C113.545 76.3518 116.814 73.0829 120.833 73.0829ZM113.691 86.8825C114.433 87.6997 115.318 88.3864 116.299 88.9088L107.1 96.4579C106.559 96.1482 105.944 95.9803 105.306 95.9803H102.671L113.691 86.8825ZM92.1888 99.488C92.2486 98.8462 92.7784 98.3648 93.4203 98.3648H105.309C105.634 98.3648 105.929 98.4879 106.153 98.6932C106.168 98.7118 106.179 98.7305 106.194 98.7491C106.231 98.7939 106.268 98.8312 106.309 98.8685C106.44 99.0439 106.522 99.2566 106.544 99.4917L107.739 112.538C107.209 112.246 106.668 111.982 106.104 111.743C103.97 110.84 101.705 110.381 99.3648 110.381C97.0251 110.381 94.7637 110.84 92.6292 111.743C92.0694 111.982 91.5246 112.246 90.9947 112.538L92.1888 99.488ZM112.176 128.875H114.243C113.664 136.159 107.839 141.988 100.555 142.562V140.495C100.555 139.838 100.022 139.305 99.3648 139.305C98.708 139.305 98.1744 139.838 98.1744 140.495V142.562C90.8902 141.984 85.0614 136.155 84.4867 128.875H86.5541C87.2108 128.875 87.7445 128.341 87.7445 127.684C87.7445 127.027 87.2108 126.494 86.5541 126.494H84.4867C85.0652 119.21 90.894 113.381 98.1744 112.806V114.874C98.1744 115.53 98.708 116.064 99.3648 116.064C100.022 116.064 100.555 115.53 100.555 114.874V112.806C107.839 113.385 113.668 119.213 114.243 126.494H112.176C111.519 126.494 110.985 127.027 110.985 127.684C110.985 128.341 111.519 128.875 112.176 128.875ZM133.233 120.889C133.233 123.979 130.718 126.494 127.628 126.494H116.631C116.5 124.58 116.06 122.717 115.31 120.949C114.437 118.889 113.191 117.038 111.601 115.448C111.179 115.027 110.739 114.631 110.28 114.258L108.91 99.2716C108.877 98.9208 108.795 98.5775 108.664 98.2528L118.907 89.8492C119.15 89.8977 119.393 89.9387 119.639 89.9686V100.13C119.639 104.533 123.221 108.116 127.625 108.116C130.714 108.116 133.229 110.631 133.229 113.72L133.233 120.889Z"/>
</mask>
<path d="M127.628 105.735C124.538 105.735 122.023 103.22 122.023 100.13V89.9686C126.796 89.379 130.502 85.3003 130.502 80.3745C130.502 78.3408 129.871 76.4526 128.793 74.8928V64.739C128.793 63.1903 127.531 61.929 125.983 61.929H125.897V26.624C125.897 25.9672 125.363 25.4336 124.706 25.4336C124.05 25.4336 123.516 25.9672 123.516 26.624V61.929H118.142V26.8964C118.142 26.2396 117.609 25.706 116.952 25.706C116.295 25.706 115.762 26.2396 115.762 26.8964V61.929H115.68C114.131 61.929 112.87 63.1903 112.87 64.739V74.8928C111.795 76.4526 111.161 78.3408 111.161 80.3745C111.161 82.0239 111.575 83.58 112.31 84.9383L98.9357 95.984H93.4203C92.5135 95.984 91.6478 96.3198 90.9798 96.9318C90.3118 97.5401 89.8976 98.3722 89.8155 99.2753L88.446 114.262C87.987 114.635 87.5467 115.03 87.125 115.452C85.5353 117.042 84.289 118.893 83.4158 120.952C82.5127 123.087 82.0537 125.352 82.0537 127.688C82.0537 130.024 82.5127 132.289 83.4158 134.427C84.289 136.487 85.5353 138.338 87.125 139.928C88.7147 141.517 90.5656 142.764 92.6254 143.637C94.7599 144.54 97.0251 144.999 99.3611 144.999C101.697 144.999 103.966 144.54 106.1 143.637C108.16 142.764 110.011 141.517 111.601 139.928C113.191 138.338 114.437 136.487 115.31 134.427C116.06 132.659 116.5 130.796 116.631 128.882H127.628C132.032 128.882 135.614 125.3 135.614 120.896V113.724C135.614 109.313 132.032 105.735 127.628 105.735ZM115.254 64.7352C115.254 64.5001 115.444 64.3061 115.683 64.3061H125.986C126.221 64.3061 126.415 64.4964 126.415 64.7352V72.4784C124.837 71.3589 122.911 70.7021 120.837 70.7021C118.762 70.7021 116.833 71.3589 115.258 72.4784V64.7352H115.254ZM120.833 73.0829C124.852 73.0829 128.121 76.3518 128.121 80.3708C128.121 84.3898 124.852 87.6587 120.833 87.6587C116.814 87.6587 113.545 84.3898 113.545 80.3708C113.545 76.3518 116.814 73.0829 120.833 73.0829ZM113.691 86.8825C114.433 87.6997 115.318 88.3864 116.299 88.9088L107.1 96.4579C106.559 96.1482 105.944 95.9803 105.306 95.9803H102.671L113.691 86.8825ZM92.1888 99.488C92.2486 98.8462 92.7784 98.3648 93.4203 98.3648H105.309C105.634 98.3648 105.929 98.4879 106.153 98.6932C106.168 98.7118 106.179 98.7305 106.194 98.7491C106.231 98.7939 106.268 98.8312 106.309 98.8685C106.44 99.0439 106.522 99.2566 106.544 99.4917L107.739 112.538C107.209 112.246 106.668 111.982 106.104 111.743C103.97 110.84 101.705 110.381 99.3648 110.381C97.0251 110.381 94.7637 110.84 92.6292 111.743C92.0694 111.982 91.5246 112.246 90.9947 112.538L92.1888 99.488ZM112.176 128.875H114.243C113.664 136.159 107.839 141.988 100.555 142.562V140.495C100.555 139.838 100.022 139.305 99.3648 139.305C98.708 139.305 98.1744 139.838 98.1744 140.495V142.562C90.8902 141.984 85.0614 136.155 84.4867 128.875H86.5541C87.2108 128.875 87.7445 128.341 87.7445 127.684C87.7445 127.027 87.2108 126.494 86.5541 126.494H84.4867C85.0652 119.21 90.894 113.381 98.1744 112.806V114.874C98.1744 115.53 98.708 116.064 99.3648 116.064C100.022 116.064 100.555 115.53 100.555 114.874V112.806C107.839 113.385 113.668 119.213 114.243 126.494H112.176C111.519 126.494 110.985 127.027 110.985 127.684C110.985 128.341 111.519 128.875 112.176 128.875ZM133.233 120.889C133.233 123.979 130.718 126.494 127.628 126.494H116.631C116.5 124.58 116.06 122.717 115.31 120.949C114.437 118.889 113.191 117.038 111.601 115.448C111.179 115.027 110.739 114.631 110.28 114.258L108.91 99.2716C108.877 98.9208 108.795 98.5775 108.664 98.2528L118.907 89.8492C119.15 89.8977 119.393 89.9387 119.639 89.9686V100.13C119.639 104.533 123.221 108.116 127.625 108.116C130.714 108.116 133.229 110.631 133.229 113.72L133.233 120.889Z" fill="#663366"/>
<path d="M127.628 105.735C124.538 105.735 122.023 103.22 122.023 100.13V89.9686C126.796 89.379 130.502 85.3003 130.502 80.3745C130.502 78.3408 129.871 76.4526 128.793 74.8928V64.739C128.793 63.1903 127.531 61.929 125.983 61.929H125.897V26.624C125.897 25.9672 125.363 25.4336 124.706 25.4336C124.05 25.4336 123.516 25.9672 123.516 26.624V61.929H118.142V26.8964C118.142 26.2396 117.609 25.706 116.952 25.706C116.295 25.706 115.762 26.2396 115.762 26.8964V61.929H115.68C114.131 61.929 112.87 63.1903 112.87 64.739V74.8928C111.795 76.4526 111.161 78.3408 111.161 80.3745C111.161 82.0239 111.575 83.58 112.31 84.9383L98.9357 95.984H93.4203C92.5135 95.984 91.6478 96.3198 90.9798 96.9318C90.3118 97.5401 89.8976 98.3722 89.8155 99.2753L88.446 114.262C87.987 114.635 87.5467 115.03 87.125 115.452C85.5353 117.042 84.289 118.893 83.4158 120.952C82.5127 123.087 82.0537 125.352 82.0537 127.688C82.0537 130.024 82.5127 132.289 83.4158 134.427C84.289 136.487 85.5353 138.338 87.125 139.928C88.7147 141.517 90.5656 142.764 92.6254 143.637C94.7599 144.54 97.0251 144.999 99.3611 144.999C101.697 144.999 103.966 144.54 106.1 143.637C108.16 142.764 110.011 141.517 111.601 139.928C113.191 138.338 114.437 136.487 115.31 134.427C116.06 132.659 116.5 130.796 116.631 128.882H127.628C132.032 128.882 135.614 125.3 135.614 120.896V113.724C135.614 109.313 132.032 105.735 127.628 105.735ZM115.254 64.7352C115.254 64.5001 115.444 64.3061 115.683 64.3061H125.986C126.221 64.3061 126.415 64.4964 126.415 64.7352V72.4784C124.837 71.3589 122.911 70.7021 120.837 70.7021C118.762 70.7021 116.833 71.3589 115.258 72.4784V64.7352H115.254ZM120.833 73.0829C124.852 73.0829 128.121 76.3518 128.121 80.3708C128.121 84.3898 124.852 87.6587 120.833 87.6587C116.814 87.6587 113.545 84.3898 113.545 80.3708C113.545 76.3518 116.814 73.0829 120.833 73.0829ZM113.691 86.8825C114.433 87.6997 115.318 88.3864 116.299 88.9088L107.1 96.4579C106.559 96.1482 105.944 95.9803 105.306 95.9803H102.671L113.691 86.8825ZM92.1888 99.488C92.2486 98.8462 92.7784 98.3648 93.4203 98.3648H105.309C105.634 98.3648 105.929 98.4879 106.153 98.6932C106.168 98.7118 106.179 98.7305 106.194 98.7491C106.231 98.7939 106.268 98.8312 106.309 98.8685C106.44 99.0439 106.522 99.2566 106.544 99.4917L107.739 112.538C107.209 112.246 106.668 111.982 106.104 111.743C103.97 110.84 101.705 110.381 99.3648 110.381C97.0251 110.381 94.7637 110.84 92.6292 111.743C92.0694 111.982 91.5246 112.246 90.9947 112.538L92.1888 99.488ZM112.176 128.875H114.243C113.664 136.159 107.839 141.988 100.555 142.562V140.495C100.555 139.838 100.022 139.305 99.3648 139.305C98.708 139.305 98.1744 139.838 98.1744 140.495V142.562C90.8902 141.984 85.0614 136.155 84.4867 128.875H86.5541C87.2108 128.875 87.7445 128.341 87.7445 127.684C87.7445 127.027 87.2108 126.494 86.5541 126.494H84.4867C85.0652 119.21 90.894 113.381 98.1744 112.806V114.874C98.1744 115.53 98.708 116.064 99.3648 116.064C100.022 116.064 100.555 115.53 100.555 114.874V112.806C107.839 113.385 113.668 119.213 114.243 126.494H112.176C111.519 126.494 110.985 127.027 110.985 127.684C110.985 128.341 111.519 128.875 112.176 128.875ZM133.233 120.889C133.233 123.979 130.718 126.494 127.628 126.494H116.631C116.5 124.58 116.06 122.717 115.31 120.949C114.437 118.889 113.191 117.038 111.601 115.448C111.179 115.027 110.739 114.631 110.28 114.258L108.91 99.2716C108.877 98.9208 108.795 98.5775 108.664 98.2528L118.907 89.8492C119.15 89.8977 119.393 89.9387 119.639 89.9686V100.13C119.639 104.533 123.221 108.116 127.625 108.116C130.714 108.116 133.229 110.631 133.229 113.72L133.233 120.889Z" stroke="#663366" stroke-width="0.8" mask="url(#path-7-outside-2_663_4054)"/>
<path d="M116.956 4.7998C117.723 4.79983 118.347 5.42322 118.347 6.19043V15.3965C118.347 16.1636 117.723 16.7871 116.956 16.7871C116.189 16.7871 115.566 16.1636 115.565 15.3965V6.19043C115.565 5.42321 116.189 4.7998 116.956 4.7998Z" fill="#663366" stroke="#663366" stroke-width="0.4"/>
<path d="M124.711 4.7998C125.478 4.79983 126.102 5.42322 126.102 6.19043V13.8066C126.102 14.5739 125.478 15.1972 124.711 15.1973C123.944 15.1973 123.32 14.578 123.32 13.8066V6.19043C123.32 5.42321 123.944 4.7998 124.711 4.7998Z" fill="#663366" stroke="#663366" stroke-width="0.4"/>
<path d="M120.833 78.0693C122.104 78.0693 123.134 79.0995 123.134 80.3701C123.134 81.6409 122.104 82.6709 120.833 82.6709C119.562 82.6707 118.532 81.6408 118.532 80.3701C118.532 79.0996 119.563 78.0695 120.833 78.0693Z" fill="#663366" stroke="#663366" stroke-width="0.4"/>
</svg>
