<svg width="150" height="150" viewBox="0 0 150 150" fill="none" xmlns="http://www.w3.org/2000/svg">
<path d="M75 77.2578V106.613" stroke="#663366" stroke-width="4.22536" stroke-miterlimit="10" stroke-linecap="round" stroke-linejoin="round"/>
<path d="M74.7368 83.771C77.4704 81.0373 75.2544 74.3892 69.7871 68.9219C64.3198 63.4546 57.6716 61.2385 54.938 63.9722C52.2043 66.7058 54.4204 73.354 59.8877 78.8213C65.355 84.2886 72.0032 86.5046 74.7368 83.771Z" stroke="#663366" stroke-width="4.22536" stroke-miterlimit="10" stroke-linecap="round" stroke-linejoin="round"/>
<path d="M90.1094 72.0469C95.5767 66.5796 97.7927 59.9314 95.0591 57.1978C92.3254 54.4641 85.6772 56.6802 80.21 62.1475C74.7427 67.6148 72.5266 74.2629 75.2603 76.9966C77.9939 79.7302 84.6421 77.5142 90.1094 72.0469Z" stroke="#663366" stroke-width="4.22536" stroke-miterlimit="10" stroke-linecap="round" stroke-linejoin="round"/>
<path d="M106.612 34.3555H43.3859C38.3975 34.3555 34.3535 38.3994 34.3535 43.3879V106.614C34.3535 111.602 38.3975 115.646 43.3859 115.646H106.612C111.6 115.646 115.644 111.602 115.644 106.614V43.3876C115.644 38.3991 111.6 34.3555 106.612 34.3555Z" stroke="#663366" stroke-width="4.22536" stroke-miterlimit="10" stroke-linecap="round" stroke-linejoin="round"/>
<path d="M75 14.0352V34.3577" stroke="#663366" stroke-width="4.22536" stroke-miterlimit="10" stroke-linecap="round" stroke-linejoin="round"/>
<path d="M75.0004 14.0321C77.4946 14.0321 79.5165 12.0102 79.5165 9.51606C79.5165 7.02191 77.4946 5 75.0004 5C72.5063 5 70.4844 7.02191 70.4844 9.51606C70.4844 12.0102 72.5063 14.0321 75.0004 14.0321Z" stroke="#663366" stroke-width="4.22536" stroke-miterlimit="10" stroke-linecap="round" stroke-linejoin="round"/>
<path d="M54.6777 23.0664V34.3568" stroke="#663366" stroke-width="4.22536" stroke-miterlimit="10" stroke-linecap="round" stroke-linejoin="round"/>
<path d="M54.6762 23.0673C57.1704 23.0673 59.1923 21.0454 59.1923 18.5512C59.1923 16.0571 57.1704 14.0352 54.6762 14.0352C52.1821 14.0352 50.1602 16.0571 50.1602 18.5512C50.1602 21.0454 52.1821 23.0673 54.6762 23.0673Z" stroke="#663366" stroke-width="4.22536" stroke-miterlimit="10" stroke-linecap="round" stroke-linejoin="round"/>
<path d="M95.3223 23.0664V34.3568" stroke="#663366" stroke-width="4.22536" stroke-miterlimit="10" stroke-linecap="round" stroke-linejoin="round"/>
<path d="M95.3227 23.0673C97.8168 23.0673 99.8388 21.0454 99.8388 18.5512C99.8388 16.0571 97.8168 14.0352 95.3227 14.0352C92.8285 14.0352 90.8066 16.0571 90.8066 18.5512C90.8066 21.0454 92.8285 23.0673 95.3227 23.0673Z" stroke="#663366" stroke-width="4.22536" stroke-miterlimit="10" stroke-linecap="round" stroke-linejoin="round"/>
<path d="M75 135.967V115.645" stroke="#663366" stroke-width="4.22536" stroke-miterlimit="10" stroke-linecap="round" stroke-linejoin="round"/>
<path d="M75.0004 145.001C77.4946 145.001 79.5165 142.979 79.5165 140.485C79.5165 137.991 77.4946 135.969 75.0004 135.969C72.5063 135.969 70.4844 137.991 70.4844 140.485C70.4844 142.979 72.5063 145.001 75.0004 145.001Z" stroke="#663366" stroke-width="4.22536" stroke-miterlimit="10" stroke-linecap="round" stroke-linejoin="round"/>
<path d="M95.3223 126.935V115.645" stroke="#663366" stroke-width="4.22536" stroke-miterlimit="10" stroke-linecap="round" stroke-linejoin="round"/>
<path d="M95.3227 135.97C97.8168 135.97 99.8388 133.948 99.8388 131.454C99.8388 128.959 97.8168 126.938 95.3227 126.938C92.8285 126.938 90.8066 128.959 90.8066 131.454C90.8066 133.948 92.8285 135.97 95.3227 135.97Z" stroke="#663366" stroke-width="4.22536" stroke-miterlimit="10" stroke-linecap="round" stroke-linejoin="round"/>
<path d="M54.6777 126.935V115.645" stroke="#663366" stroke-width="4.22536" stroke-miterlimit="10" stroke-linecap="round" stroke-linejoin="round"/>
<path d="M54.6762 135.97C57.1704 135.97 59.1923 133.948 59.1923 131.454C59.1923 128.959 57.1704 126.938 54.6762 126.938C52.1821 126.938 50.1602 128.959 50.1602 131.454C50.1602 133.948 52.1821 135.97 54.6762 135.97Z" stroke="#663366" stroke-width="4.22536" stroke-miterlimit="10" stroke-linecap="round" stroke-linejoin="round"/>
<path d="M135.967 75H115.645" stroke="#663366" stroke-width="4.22536" stroke-miterlimit="10" stroke-linecap="round" stroke-linejoin="round"/>
<path d="M140.483 79.5165C142.977 79.5165 144.999 77.4946 144.999 75.0004C144.999 72.5063 142.977 70.4844 140.483 70.4844C137.989 70.4844 135.967 72.5063 135.967 75.0004C135.967 77.4946 137.989 79.5165 140.483 79.5165Z" stroke="#663366" stroke-width="4.22536" stroke-miterlimit="10" stroke-linecap="round" stroke-linejoin="round"/>
<path d="M126.935 54.6797H115.645" stroke="#663366" stroke-width="4.22536" stroke-miterlimit="10" stroke-linecap="round" stroke-linejoin="round"/>
<path d="M131.452 59.1962C133.946 59.1962 135.968 57.1743 135.968 54.6801C135.968 52.186 133.946 50.1641 131.452 50.1641C128.957 50.1641 126.936 52.186 126.936 54.6801C126.936 57.1743 128.957 59.1962 131.452 59.1962Z" stroke="#663366" stroke-width="4.22536" stroke-miterlimit="10" stroke-linecap="round" stroke-linejoin="round"/>
<path d="M126.935 95.3242H115.645" stroke="#663366" stroke-width="4.22536" stroke-miterlimit="10" stroke-linecap="round" stroke-linejoin="round"/>
<path d="M131.452 99.8407C133.946 99.8407 135.968 97.8188 135.968 95.3246C135.968 92.8305 133.946 90.8086 131.452 90.8086C128.957 90.8086 126.936 92.8305 126.936 95.3246C126.936 97.8188 128.957 99.8407 131.452 99.8407Z" stroke="#663366" stroke-width="4.22536" stroke-miterlimit="10" stroke-linecap="round" stroke-linejoin="round"/>
<path d="M14.0312 75H34.3538" stroke="#663366" stroke-width="4.22536" stroke-miterlimit="10" stroke-linecap="round" stroke-linejoin="round"/>
<path d="M9.51606 79.5165C12.0102 79.5165 14.0321 77.4946 14.0321 75.0004C14.0321 72.5063 12.0102 70.4844 9.51606 70.4844C7.02191 70.4844 5 72.5063 5 75.0004C5 77.4946 7.02191 79.5165 9.51606 79.5165Z" stroke="#663366" stroke-width="4.22536" stroke-miterlimit="10" stroke-linecap="round" stroke-linejoin="round"/>
<path d="M23.0645 95.3242H34.3549" stroke="#663366" stroke-width="4.22536" stroke-miterlimit="10" stroke-linecap="round" stroke-linejoin="round"/>
<path d="M18.5473 99.8407C21.0415 99.8407 23.0634 97.8188 23.0634 95.3246C23.0634 92.8305 21.0415 90.8086 18.5473 90.8086C16.0532 90.8086 14.0312 92.8305 14.0312 95.3246C14.0312 97.8188 16.0532 99.8407 18.5473 99.8407Z" stroke="#663366" stroke-width="4.22536" stroke-miterlimit="10" stroke-linecap="round" stroke-linejoin="round"/>
<path d="M23.0645 54.6797H34.3549" stroke="#663366" stroke-width="4.22536" stroke-miterlimit="10" stroke-linecap="round" stroke-linejoin="round"/>
<path d="M18.5473 59.1962C21.0415 59.1962 23.0634 57.1743 23.0634 54.6801C23.0634 52.186 21.0415 50.1641 18.5473 50.1641C16.0532 50.1641 14.0312 52.186 14.0312 54.6801C14.0312 57.1743 16.0532 59.1962 18.5473 59.1962Z" stroke="#663366" stroke-width="4.22536" stroke-miterlimit="10" stroke-linecap="round" stroke-linejoin="round"/>
<path d="M43.3867 99.8404V106.615H106.613V59.1953" stroke="#663366" stroke-width="4.22536" stroke-miterlimit="10" stroke-linecap="round" stroke-linejoin="round"/>
<path d="M106.613 50.1611V43.3867H43.3867V90.8062" stroke="#663366" stroke-width="4.22536" stroke-miterlimit="10" stroke-linecap="round" stroke-linejoin="round"/>
</svg>
