<svg width="150" height="150" viewBox="0 0 150 150" fill="none" xmlns="http://www.w3.org/2000/svg">
<path d="M67.8301 57.2227V61.4629" stroke="#663366" stroke-width="4.24022" stroke-miterlimit="10"/>
<path d="M81.6484 90.0469V94.2871" stroke="#663366" stroke-width="4.24022" stroke-miterlimit="10"/>
<path d="M68.3242 15.5156C74.1022 18.9643 78.0682 24.977 78.0682 33.6411C78.0682 43.4219 75.3178 48.7278 72.3298 52.2755" stroke="#663366" stroke-width="4.24022" stroke-miterlimit="10"/>
<path d="M49.0566 62.4275H42.7245C35.926 61.277 33.3084 54.1704 33.3084 51.4114V48.0051C33.3084 48.0051 28.7148 47.2927 28.7148 45.4666C28.7148 42.0123 32.6017 38.1339 32.6017 38.1339C32.6017 23.8754 38.3006 12 54.6621 12H54.665C58.0911 12 61.4408 12.5597 64.4853 13.6876" stroke="#663366" stroke-width="4.24022" stroke-miterlimit="10"/>
<path d="M52.2812 36.1796C52.2812 32.0053 54.3117 30.1328 56.8163 30.1328C59.3209 30.1328 61.3514 32.005 61.3514 36.1796C61.3514 41.2487 56.8163 45.2498 52.2812 45.2498" stroke="#663366" stroke-width="4.24022" stroke-miterlimit="10"/>
<path d="M74.121 99.1992C73.5952 101.136 73.3125 103.261 73.3125 105.577C73.3125 126.961 86.4657 126.961 86.4657 133.972V135.774" stroke="#663366" stroke-width="4.24022" stroke-miterlimit="10"/>
<path d="M102.606 84.5234C114.475 87.0845 118.778 97.6766 118.778 110.067C118.778 110.067 122.668 113.945 122.668 117.399C122.668 119.225 118.074 119.938 118.074 119.938V123.344C118.074 126.106 115.454 132.817 108.658 133.97H92.7695" stroke="#663366" stroke-width="4.24022" stroke-miterlimit="10"/>
<path d="M99.0408 113.711C99.0408 109.537 97.0103 107.664 94.5058 107.664C92.0012 107.664 89.9707 109.536 89.9707 113.711C89.9707 118.78 94.5058 122.781 99.0408 122.781" stroke="#663366" stroke-width="4.24022" stroke-miterlimit="10"/>
<path d="M8.25521 64.6405C3.91493 56.7492 3.91493 47.0905 8.25521 39.1992" stroke="#663366" stroke-width="4.24022" stroke-miterlimit="10"/>
<path d="M15.4627 61.4599C12.0906 55.5716 12.0906 48.2672 15.4627 42.3789" stroke="#663366" stroke-width="4.24022" stroke-miterlimit="10"/>
<path d="M22.3656 56.1343C20.7792 53.5608 20.7792 50.2803 22.3656 47.707" stroke="#663366" stroke-width="4.24022" stroke-miterlimit="10"/>
<path d="M141.744 138.211C146.084 130.32 146.084 120.661 141.744 112.77" stroke="#663366" stroke-width="4.24022" stroke-miterlimit="10"/>
<path d="M134.535 135.03C137.907 129.142 137.907 121.837 134.535 115.949" stroke="#663366" stroke-width="4.24022" stroke-miterlimit="10"/>
<path d="M127.635 129.705C129.221 127.131 129.221 123.851 127.635 121.277" stroke="#663366" stroke-width="4.24022" stroke-miterlimit="10"/>
<path d="M98.3568 72.6327L103.163 68.2933C101.657 64.6575 101.653 64.6479 100.147 61.012L93.6801 61.3422L89.2898 56.9519L89.6202 50.4847C85.9844 48.9786 85.9748 48.9746 82.3389 47.4688L77.9995 52.2752H71.7907L67.4512 47.4688C63.8154 48.9749 63.8058 48.9788 60.1699 50.4847L60.5004 56.9519L56.1101 61.3422L49.6429 61.012C48.1368 64.6479 48.1328 64.6575 46.627 68.2933L51.4334 72.6327V78.8416L46.627 83.181C48.1331 86.8168 48.137 86.8265 49.6429 90.4623L56.1101 90.1318C57.8627 91.8845 58.7478 92.7695 60.5004 94.5222L60.1699 100.989C63.8058 102.495 63.8154 102.499 67.4512 104.005L71.7907 99.1988H77.9995L82.3389 104.005C85.9748 102.499 85.9844 102.495 89.6202 100.989L89.2898 94.5222C91.0424 92.7698 91.9275 91.8845 93.6801 90.1318L100.147 90.4623C101.653 86.8265 101.657 86.8168 103.163 83.181L98.3568 78.8416V72.6327ZM74.8951 85.16C69.6909 85.16 65.4725 80.9413 65.4725 75.7374C65.4725 70.5336 69.6912 66.3148 74.8951 66.3148C80.0989 66.3148 84.3177 70.5336 84.3177 75.7374C84.3177 80.9413 80.0992 85.16 74.8951 85.16Z" stroke="#663366" stroke-width="4.24022" stroke-miterlimit="10"/>
</svg>
