<svg width="150" height="150" viewBox="0 0 150 150" fill="none" xmlns="http://www.w3.org/2000/svg">
<path d="M133.201 112.648V103.806C133.201 101.957 131.469 100.597 129.673 101.036L75 114.396L20.3271 101.036C18.5313 100.597 16.7988 101.957 16.7988 103.806V112.648" stroke="#663366" stroke-width="5.70265" stroke-miterlimit="10" stroke-linecap="round" stroke-linejoin="round"/>
<path d="M75 114.395V126.871" stroke="#663366" stroke-width="5.70265" stroke-miterlimit="10" stroke-linecap="round" stroke-linejoin="round"/>
<path d="M94.0825 134.88L82.2253 137.939C82.0342 141.765 78.8721 144.81 75 144.81C71.1279 144.81 67.9658 141.765 67.7747 137.939L7.17556 123.126C5.89817 122.815 5 121.669 5 120.357V113.395C5 111.547 6.73361 110.187 8.52709 110.626L75 126.873L141.473 110.626C143.266 110.187 145 111.547 145 113.395V120.357C145 121.669 144.102 122.815 142.824 123.126L119.101 128.805" stroke="#663366" stroke-width="5.70265" stroke-miterlimit="10" stroke-linecap="round" stroke-linejoin="round"/>
<circle cx="106.574" cy="131.84" r="2.85132" fill="#663366"/>
<path d="M69.2972 80.4883C62.6581 82.0491 57.0473 86.2745 53.6548 91.9757C52.0124 91.28 50.2047 90.895 48.3086 90.895C40.7583 90.895 34.6279 96.9798 34.5566 104.516" stroke="#663366" stroke-width="5.70265" stroke-miterlimit="10" stroke-linecap="round" stroke-linejoin="round"/>
<path d="M115.444 104.516C115.372 96.9798 109.242 90.895 101.692 90.895C99.7956 90.895 97.9878 91.28 96.3455 91.9757C92.953 86.2745 87.3421 82.0491 80.7031 80.4883" stroke="#663366" stroke-width="5.70265" stroke-miterlimit="10" stroke-linecap="round" stroke-linejoin="round"/>
<path d="M96.8145 44.3007C96.8145 51.7569 94.9603 58.7851 91.6738 64.9776H58.3282C55.042 58.7851 53.1875 51.7569 53.1875 44.3007C53.1875 28.1365 61.904 13.9583 75.001 6C88.0977 13.958 96.8145 28.1365 96.8145 44.3007Z" stroke="#663366" stroke-width="5.70265" stroke-miterlimit="10" stroke-linecap="round" stroke-linejoin="round"/>
<path d="M67.9492 72.0493C67.9492 69.4988 68.5486 67.0948 69.6107 64.9766H80.3876C81.4497 67.0948 82.049 69.4988 82.049 72.0493C82.049 77.5783 79.2319 82.4281 74.9991 85.1503C70.7663 82.4281 67.9492 77.5783 67.9492 72.0493Z" stroke="#663366" stroke-width="5.70265" stroke-miterlimit="10" stroke-linecap="round" stroke-linejoin="round"/>
<path d="M74.9995 42.6787C79.3205 42.6787 82.8233 39.1759 82.8233 34.855C82.8233 30.5341 79.3205 27.0312 74.9995 27.0312C70.6786 27.0312 67.1758 30.5341 67.1758 34.855C67.1758 39.1759 70.6786 42.6787 74.9995 42.6787Z" stroke="#663366" stroke-width="5.70265" stroke-miterlimit="10" stroke-linecap="round" stroke-linejoin="round"/>
<path d="M53.2168 51.6875H51.6691C46.2579 51.6875 41.8711 56.0743 41.8711 61.4855V72.31C41.8711 75.2614 45.3768 76.8074 47.5561 74.8169L58.3278 64.9781" stroke="#663366" stroke-width="5.70265" stroke-miterlimit="10" stroke-linecap="round" stroke-linejoin="round"/>
<path d="M96.7848 51.6875H98.3325C103.744 51.6875 108.131 56.0743 108.131 61.4855V72.31C108.131 75.2614 104.625 76.8074 102.446 74.8169L91.6738 64.9781" stroke="#663366" stroke-width="5.70265" stroke-miterlimit="10" stroke-linecap="round" stroke-linejoin="round"/>
</svg>
