<svg width="150" height="150" viewBox="0 0 150 150" fill="none" xmlns="http://www.w3.org/2000/svg">
<path d="M123.118 111.457H26.9081C20.7254 111.457 15.6992 116.483 15.6992 122.666C15.6992 123.422 15.7659 124.156 15.9216 124.868C16.9447 129.983 21.4816 133.853 26.9081 133.853H123.095C128.522 133.853 133.037 129.983 134.082 124.868C134.238 124.156 134.304 123.422 134.304 122.666C134.327 116.483 129.3 111.457 123.118 111.457ZM130.946 124.223C130.212 127.737 127.076 130.405 123.34 130.405C119.07 130.405 115.601 126.936 115.601 122.666C115.601 118.374 119.07 114.904 123.34 114.904C127.61 114.904 131.102 118.396 131.102 122.666C131.102 123.2 131.057 123.711 130.946 124.223ZM18.924 122.666C18.924 118.396 22.3934 114.904 26.6635 114.904C30.9558 114.904 34.4252 118.396 34.4252 122.666C34.4252 126.936 30.9335 130.405 26.6635 130.405C22.9272 130.405 19.7914 127.737 19.0797 124.223C18.9685 123.711 18.924 123.2 18.924 122.666ZM37.6277 122.666C37.6277 119.508 36.2488 116.661 34.1138 114.66H51.4609C49.3036 116.661 47.947 119.508 47.947 122.666C47.947 125.824 49.3036 128.648 51.4609 130.65H34.1361C36.2711 128.648 37.6277 125.824 37.6277 122.666ZM66.6507 122.666C66.6507 126.936 63.1591 130.405 58.889 130.405C54.619 130.405 51.1495 126.936 51.1495 122.666C51.1495 118.374 54.619 114.904 58.889 114.904C63.1813 114.904 66.6507 118.374 66.6507 122.666ZM69.8533 122.666C69.8533 119.508 68.4744 116.661 66.3394 114.66H83.6864C81.5292 116.661 80.1725 119.508 80.1725 122.666C80.1725 125.824 81.5292 128.648 83.6864 130.65H66.3394C68.4966 128.648 69.8533 125.824 69.8533 122.666ZM98.8763 122.666C98.8763 126.936 95.3846 130.405 91.1146 130.405C86.8445 130.405 83.3751 126.936 83.3751 122.666C83.3751 118.374 86.8445 114.904 91.1146 114.904C95.4068 114.904 98.8763 118.374 98.8763 122.666ZM102.101 122.666C102.101 119.508 100.722 116.661 98.5871 114.66H115.934C113.777 116.661 112.42 119.508 112.42 122.666C112.42 125.824 113.777 128.648 115.934 130.65H98.6094C100.722 128.648 102.101 125.824 102.101 122.666Z" fill="#663366"/>
<path d="M41.2299 96.3152H58.5325C60.0225 96.3152 61.2457 95.0921 61.2457 93.602V87.9086C61.2457 86.4185 60.0225 85.1953 58.5325 85.1953H41.2299C39.7398 85.1953 38.5166 86.4185 38.5166 87.9086V93.602C38.5166 95.0921 39.7398 96.3152 41.2299 96.3152ZM41.7191 88.3979H58.0432V93.1127H41.7191V88.3979Z" fill="#663366"/>
<path d="M138.261 63.2009V17.4535C138.261 11.1374 133.124 6 126.808 6H94.3375C91.602 6 89.0444 7.06751 87.1095 9.00238C85.575 10.5592 84.5964 12.5163 84.2628 14.6291H69.7402C69.0285 12.1382 66.7601 10.3145 64.069 10.3145C60.822 10.3145 58.1755 12.9833 58.1755 16.2303C58.1755 18.9214 59.9991 21.1898 62.4678 21.8793V26.1938L52.2374 33.9333C51.7037 34.3336 51.4813 35.0008 51.6592 35.6457L54.2835 45.0532C54.5281 45.8983 55.3955 46.4098 56.2629 46.1652C57.108 45.9205 57.6195 45.0532 57.3748 44.1858L55.0397 35.8236L64.069 28.996L73.1207 35.8236L70.7855 44.1858C70.5408 45.0309 71.0524 45.9205 71.8975 46.1652C72.0309 46.2097 72.1866 46.2319 72.32 46.2319C73.0317 46.2319 73.6767 45.7649 73.8768 45.0532L76.5011 35.6457C76.679 35.0008 76.4566 34.3336 75.9229 33.9333L65.6703 26.1938V21.8793C67.6497 21.3233 69.1842 19.7887 69.7402 17.8316H84.2628C85.0412 22.7021 89.2446 26.4607 94.3152 26.4607H115.31V63.2231C111.195 66.5591 108.549 71.6743 108.549 77.3677V100.764H92.0468C92.4471 100.052 92.6917 99.2517 92.6917 98.3843V57.9078C92.6917 55.239 90.5122 53.0595 87.8434 53.0595H35.8911C33.2001 53.0595 31.0206 55.239 31.0206 57.9078V98.3843C31.0206 99.2517 31.2653 100.052 31.6656 100.764H26.9063C14.83 100.764 5 110.594 5 122.67C5 134.747 14.83 144.577 26.9063 144.577H123.094C134.569 144.577 143.977 135.703 144.911 124.472C144.955 124.316 145 77.3677 145 77.3677C145.022 71.652 142.376 66.5369 138.261 63.2009ZM66.4265 56.2621V63.1119L63.6242 60.5988C62.6457 59.7315 61.1779 59.687 60.1548 60.5099L56.6187 63.3566V56.2843H66.4265V56.2621ZM34.2232 57.9078C34.2232 56.996 34.9571 56.2621 35.8689 56.2621H53.3939V64.4463C53.3939 65.4916 53.9721 66.4034 54.9062 66.8705C55.2843 67.0484 55.6846 67.1374 56.0627 67.1374C56.6632 67.1374 57.2414 66.9372 57.7307 66.5369L61.7783 63.2899L65.1366 66.2922C65.9372 67.0039 67.0492 67.1818 68.0055 66.737C68.984 66.2922 69.5845 65.3582 69.5845 64.2906V56.2621H87.8212C88.733 56.2621 89.4669 56.996 89.4669 57.9078V98.3843C89.4669 99.2962 88.733 100.03 87.8212 100.03H35.8911C34.9793 100.03 34.2454 99.2962 34.2454 98.3843V57.9078H34.2232ZM64.069 18.9214C62.579 18.9214 61.378 17.7204 61.378 16.2303C61.378 14.7403 62.579 13.5171 64.069 13.5171C65.5591 13.5171 66.7823 14.7403 66.7823 16.2303C66.7823 17.6982 65.5591 18.9214 64.069 18.9214ZM94.3375 23.2359C90.4677 23.2359 87.3097 20.0778 87.3097 16.2303C87.3097 14.3622 88.0436 12.583 89.3558 11.2708C90.6901 9.93645 92.4471 9.22478 94.3152 9.22478H118.868C116.711 11.2931 115.332 14.2065 115.332 17.4535V23.2359H94.3375ZM118.557 17.4535C118.557 12.9166 122.248 9.20254 126.808 9.20254C131.345 9.20254 135.059 12.8944 135.059 17.4535V61.1326C132.568 59.8649 129.766 59.131 126.808 59.131C123.85 59.131 121.048 59.8649 118.579 61.1326V17.4535H118.557ZM111.796 77.3455C111.796 69.0722 118.512 62.3335 126.808 62.3335C135.081 62.3335 141.797 69.0722 141.797 77.3455V111.306C137.95 104.99 131.011 100.764 123.094 100.764H111.774V77.3455H111.796ZM123.116 141.352H26.9063C16.6092 141.352 8.20254 132.967 8.20254 122.648C8.20254 112.329 16.587 103.944 26.9063 103.944H123.094C133.391 103.944 141.797 112.329 141.797 122.648C141.797 132.967 133.413 141.352 123.116 141.352Z" fill="#663366"/>
<path d="M134.326 75.7866C134.326 71.6277 130.968 68.2695 126.832 68.2695C122.673 68.2695 119.314 71.65 119.314 75.7866C119.314 79.9455 122.695 83.3037 126.832 83.3037C130.946 83.3037 134.326 79.9232 134.326 75.7866ZM122.495 75.7866C122.495 73.4069 124.43 71.4721 126.809 71.4721C129.189 71.4721 131.102 73.4069 131.102 75.7866C131.102 78.1663 129.167 80.1011 126.809 80.1011C124.43 80.1011 122.495 78.1663 122.495 75.7866Z" fill="#663366"/>
<path d="M132.482 17.8106C132.482 14.6748 129.946 12.1172 126.811 12.1172C123.675 12.1172 121.117 14.6748 121.117 17.8106C121.117 20.9464 123.675 23.504 126.811 23.504C129.946 23.504 132.482 20.9464 132.482 17.8106ZM124.32 17.8106C124.32 16.4317 125.432 15.3197 126.788 15.3197C128.145 15.3197 129.257 16.4317 129.257 17.8106C129.257 19.1672 128.145 20.2792 126.788 20.2792C125.432 20.3015 124.32 19.1895 124.32 17.8106Z" fill="#663366"/>
</svg>
