<svg width="150" height="150" viewBox="0 0 150 150" fill="none" xmlns="http://www.w3.org/2000/svg">
<path d="M19.6576 130.033C11.2773 128.147 5.01758 120.659 5.01758 111.708V104.324H5.02558C15.3996 104.324 23.8093 112.734 23.8093 123.108V130.037" stroke="#663366" stroke-width="4.3" stroke-miterlimit="10" stroke-linecap="round" stroke-linejoin="round"/>
<path d="M27.9461 130.037C36.3332 128.155 42.5995 120.663 42.5995 111.708V104.324H42.5915C32.5267 104.324 24.3106 112.24 23.8301 122.186" stroke="#663366" stroke-width="4.3" stroke-miterlimit="10" stroke-linecap="round" stroke-linejoin="round"/>
<path d="M70.8099 130.033C62.4296 128.147 56.1699 120.659 56.1699 111.708V104.324H56.1779C66.5519 104.324 74.9616 112.734 74.9616 123.108V130.037" stroke="#663366" stroke-width="4.3" stroke-miterlimit="10" stroke-linecap="round" stroke-linejoin="round"/>
<path d="M79.1004 130.037C87.4875 128.155 93.7538 120.663 93.7538 111.708V104.324H93.7458C83.6809 104.324 75.4647 112.24 74.9844 122.186" stroke="#663366" stroke-width="4.3" stroke-miterlimit="10" stroke-linecap="round" stroke-linejoin="round"/>
<path d="M121.935 130.033C113.555 128.147 107.295 120.659 107.295 111.708V104.324H107.303C117.677 104.324 126.087 112.734 126.087 123.108V130.037" stroke="#663366" stroke-width="4.3" stroke-miterlimit="10" stroke-linecap="round" stroke-linejoin="round"/>
<path d="M130.223 130.037C138.611 128.155 144.877 120.663 144.877 111.708V104.324H144.869C134.804 104.324 126.588 112.24 126.107 122.186" stroke="#663366" stroke-width="4.3" stroke-miterlimit="10" stroke-linecap="round" stroke-linejoin="round"/>
<path d="M26.5793 46.7168V38.7568C26.5793 35.368 23.831 32.6211 20.441 32.6211C17.0507 32.6211 14.3027 35.3682 14.3027 38.7568V46.7168" stroke="#663366" stroke-width="4.3" stroke-miterlimit="10" stroke-linecap="round" stroke-linejoin="round"/>
<path d="M20.4414 32.3351V17.6328" stroke="#663366" stroke-width="4.3" stroke-miterlimit="10" stroke-linecap="round" stroke-linejoin="round"/>
<path d="M135.46 46.4445V38.7568C135.46 35.368 132.712 32.6211 129.322 32.6211C125.932 32.6211 123.184 35.3682 123.184 38.7568V46.4985" stroke="#663366" stroke-width="4.3" stroke-miterlimit="10" stroke-linecap="round" stroke-linejoin="round"/>
<path d="M129.322 32.3351V17.6328" stroke="#663366" stroke-width="4.3" stroke-miterlimit="10" stroke-linecap="round" stroke-linejoin="round"/>
<path d="M51.6077 63.7631H18.6091C11.124 63.7631 5 57.6391 5 50.1539C5 48.4279 6.41229 47.0156 8.13829 47.0156H51.7006" stroke="#663366" stroke-width="4.3" stroke-miterlimit="10" stroke-linecap="round" stroke-linejoin="round"/>
<path d="M98.2168 47.0156H141.72C143.446 47.0156 144.858 48.4279 144.858 50.1539C144.858 57.6388 138.734 63.7631 131.249 63.7631H98.2168" stroke="#663366" stroke-width="4.3" stroke-miterlimit="10" stroke-linecap="round" stroke-linejoin="round"/>
<path d="M51.7008 79.4623H44.4042C36.9085 79.4623 30.7754 73.3294 30.7754 65.8334V64.0117" stroke="#663366" stroke-width="4.3" stroke-miterlimit="10" stroke-linecap="round" stroke-linejoin="round"/>
<path d="M119.081 64.1875V65.8344C119.081 73.3301 112.948 79.4632 105.452 79.4632H98.2148" stroke="#663366" stroke-width="4.3" stroke-miterlimit="10" stroke-linecap="round" stroke-linejoin="round"/>
<path d="M91.4995 86.7898H58.3566C54.7855 86.7898 51.8906 83.8949 51.8906 80.3238V47.2004C51.8906 43.6292 54.7855 40.7344 58.3566 40.7344H91.4995C95.0706 40.7344 97.9655 43.6292 97.9655 47.2004V80.3238C97.9655 83.8947 95.0706 86.7898 91.4995 86.7898Z" stroke="#663366" stroke-width="4.3" stroke-miterlimit="10" stroke-linecap="round" stroke-linejoin="round"/>
<path d="M144.878 130.203H5.01758V144.999H144.878V130.203Z" stroke="#663366" stroke-width="4.3" stroke-miterlimit="10" stroke-linecap="round" stroke-linejoin="round"/>
<path d="M5 22.3945H36.3566" stroke="#663366" stroke-width="4.3" stroke-miterlimit="10" stroke-linecap="round" stroke-linejoin="round"/>
<path d="M113.643 22.3945H144.999" stroke="#663366" stroke-width="4.3" stroke-miterlimit="10" stroke-linecap="round" stroke-linejoin="round"/>
<path d="M74.9285 73.9695C80.5671 73.9695 85.1382 69.4003 85.1382 63.764C85.1382 58.1277 80.5671 53.5586 74.9285 53.5586C69.2898 53.5586 64.7188 58.1277 64.7188 63.764C64.7188 69.4003 69.2898 73.9695 74.9285 73.9695Z" stroke="#663366" stroke-width="4.3" stroke-miterlimit="10" stroke-linecap="round" stroke-linejoin="round"/>
<circle cx="74.928" cy="29.1194" r="3.14286" fill="#663366"/>
<path d="M83.5103 20.7277C81.3051 18.5486 78.2737 17.2031 74.928 17.2031C71.5823 17.2031 68.5508 18.5486 66.3457 20.7277" stroke="#663366" stroke-width="4.3" stroke-miterlimit="10" stroke-linecap="round" stroke-linejoin="round"/>
<path d="M92.0846 12.0571C87.6718 7.69629 81.6089 5 74.9281 5C68.2472 5 62.1843 7.69629 57.7715 12.0571" stroke="#663366" stroke-width="4.3" stroke-miterlimit="10" stroke-linecap="round" stroke-linejoin="round"/>
</svg>
