<svg width="150" height="150" viewBox="0 0 150 150" fill="none" xmlns="http://www.w3.org/2000/svg">
<path d="M144.869 138.4L125.95 95.7821C125.705 95.2307 125.16 94.8753 124.559 94.8753H97.3199V89.1529C97.3199 88.6077 97.032 88.1053 96.5602 87.8357L75.7593 75.8273C75.2876 75.5577 74.7055 75.5577 74.2399 75.8273L53.439 87.8357C52.9673 88.1053 52.6793 88.6077 52.6793 89.1529V94.8753H25.4399C24.8395 94.8753 24.2942 95.2307 24.0492 95.7821L5.13045 138.4C4.92214 138.872 4.96502 139.417 5.24685 139.846C5.52869 140.275 6.00658 140.538 6.52122 140.538H143.479C143.993 140.538 144.471 140.275 144.753 139.846C145.035 139.417 145.077 138.872 144.869 138.4ZM55.7178 91.7935L73.4727 102.044V122.55L55.7178 112.299V91.7935ZM76.5186 102.044L94.2735 91.7935V112.299L76.5186 122.55V102.044ZM74.9992 78.9027L92.7541 89.1528L74.9992 99.403L57.2443 89.1528L74.9992 78.9027ZM8.86055 137.499L26.432 97.9202H52.6785V113.176C52.6785 113.721 52.9664 114.224 53.4382 114.493L74.2391 126.502C74.4719 126.636 74.7354 126.704 74.9988 126.704C75.2623 126.704 75.5257 126.636 75.7585 126.502L96.5594 114.493C97.0312 114.224 97.3191 113.721 97.3191 113.176V97.9202H123.566L141.137 137.499H8.86055ZM11.9791 33.0551H64.3451V46.0438C64.3451 46.8832 65.0252 47.5633 65.8646 47.5633H69.8224V58.8979C69.8224 59.1491 69.8837 59.4003 70.0062 59.6208L73.6577 66.3542C73.9212 66.8444 74.4358 67.1507 74.9934 67.1507C75.5509 67.1507 76.0656 66.8444 76.329 66.3542L79.9805 59.6208C80.1031 59.4003 80.1643 59.1491 80.1643 58.8979V47.5633H84.1222C84.9616 47.5633 85.6416 46.8832 85.6416 46.0438V33.0551H138.008C138.847 33.0551 139.527 32.3751 139.527 31.5357V21.6532C139.527 20.8138 138.847 20.1337 138.008 20.1337L85.6542 20.1276V17.2848C85.6542 16.4454 84.9741 15.7653 84.1347 15.7653H76.4457C76.0352 12.5243 73.2904 10 69.9452 10H23.2225C19.5893 10 16.6362 12.9531 16.6362 16.5863C16.6362 17.8913 17.0284 19.1044 17.6901 20.1275H11.9799C11.1406 20.1275 10.4605 20.8076 10.4605 21.647V31.5295C10.4605 32.375 11.1397 33.0551 11.9791 33.0551ZM136.494 23.1665V30.0101H85.6542V23.1665H136.494ZM77.1312 58.5116L74.999 62.4389L72.8669 58.5116V47.563H77.1249L77.1312 58.5116ZM82.6085 44.5241H67.3897V18.8046H82.6085V44.5241ZM19.6805 16.5805C19.6805 14.6261 21.2673 13.0393 23.2218 13.0393H69.932C71.5985 13.0393 72.9953 14.2034 73.3691 15.7596H65.8637C65.0243 15.7596 64.3443 16.4397 64.3443 17.2791V20.1219L23.2209 20.128C21.2726 20.128 19.6805 18.535 19.6805 16.5805ZM13.5047 23.1668H64.3447V30.0104H13.5047V23.1668Z" fill="#663366"/>
</svg>
