<svg width="150" height="150" viewBox="0 0 150 150" fill="none" xmlns="http://www.w3.org/2000/svg">
<path d="M114.33 79.4141C118.663 77.3126 123.883 79.1091 125.99 83.457L126.171 83.8535C127.022 85.8527 127.099 88.0676 126.38 90.1338C125.613 92.3345 124.034 94.1043 121.937 95.1162C120.73 95.7014 119.433 95.998 118.13 95.998C117.288 95.998 116.444 95.8741 115.62 95.626L115.269 95.5127C113.068 94.7499 111.295 93.1731 110.277 91.0742C108.178 86.7464 109.997 81.5157 114.33 79.4141ZM118.133 80.2148C117.083 80.2149 116.038 80.4528 115.064 80.9258C111.564 82.6236 110.095 86.848 111.789 90.3418C113.491 93.8511 117.7 95.3057 121.205 93.6045V93.6035C122.9 92.7864 124.173 91.3591 124.792 89.5811L124.899 89.2461C125.395 87.5627 125.25 85.7806 124.479 84.1895C123.249 81.654 120.722 80.2148 118.133 80.2148Z" fill="#663366" stroke="#663366" stroke-width="0.6"/>
<path d="M22.3682 107.676C26.0511 107.563 29.1325 110.378 29.293 114.034C29.4576 117.8 26.4452 120.979 22.6387 120.979C20.9732 120.979 19.3885 120.362 18.1514 119.226C16.8405 118.021 16.078 116.379 16.0059 114.604L16 114.272C16.0084 112.623 16.6241 111.054 17.752 109.826C18.9538 108.518 20.5931 107.754 22.3643 107.676H22.3682ZM22.4355 109.356C21.1958 109.411 20.0434 109.915 19.1631 110.785L18.9902 110.964C18.1462 111.882 17.6868 113.052 17.6807 114.284L17.6855 114.531V114.532C17.7393 115.86 18.3081 117.087 19.2891 117.988C20.2708 118.89 21.537 119.365 22.8584 119.294H22.8613C25.6012 119.175 27.733 116.847 27.6133 114.107C27.4964 111.446 25.285 109.352 22.6387 109.352C22.5732 109.352 22.5051 109.353 22.4355 109.356Z" fill="#663366" stroke="#663366" stroke-width="0.6"/>
<mask id="path-3-outside-1_663_4058" maskUnits="userSpaceOnUse" x="4" y="10" width="139" height="131" fill="black">
<rect fill="white" x="4" y="10" width="139" height="131"/>
<path d="M6.89063 118.322L9.27005 118.923C9.56768 119.726 9.93496 120.509 10.365 121.259L9.2938 123.44C8.83206 124.377 9.03417 125.491 9.80303 126.217L11.6917 127.945C12.4495 128.644 13.5999 128.76 14.4869 128.226L16.5835 126.97C17.3782 127.341 18.1893 127.637 19.002 127.857L19.7935 130.165C20.1175 131.11 21.0152 131.744 21.9983 131.744C22.0831 131.744 22.2458 131.735 24.6811 131.632C25.7313 131.59 26.6073 130.874 26.86 129.85L27.4479 127.478C27.9928 127.287 28.5319 127.041 29.0656 126.773C30.1012 131.814 33.603 136.382 38.814 138.406H26.6299C26.3313 138.406 26.0896 138.647 26.0896 138.946C26.0896 139.245 26.3313 139.487 26.6299 139.487C43.1271 139.487 89.8711 139.487 105.952 139.487H127.521C127.82 139.487 128.062 139.245 128.062 138.946C128.062 138.647 127.82 138.406 127.521 138.406H111.755C115.08 137.117 117.898 134.721 119.748 131.471C122.59 126.478 122.536 120.548 119.604 115.611L115.608 108.837L117.248 106.518C118.486 106.564 119.753 106.49 121.011 106.297L123.774 109.322C124.219 109.813 124.829 110.073 125.453 110.073C125.787 110.073 126.125 109.998 126.444 109.844L130.701 107.77C131.604 107.331 132.117 106.338 131.949 105.359L131.283 101.325C132.185 100.489 133.026 99.5446 133.788 98.5103L137.877 98.7129C138.876 98.7615 139.786 98.143 140.129 97.1815L141.673 92.7034C142.01 91.7599 141.672 90.6939 140.849 90.1124L137.522 87.7441C137.566 86.4364 137.492 85.1731 137.304 83.9794L140.342 81.2237C141.085 80.5367 141.29 79.4665 140.85 78.5599L138.786 74.3013C138.349 73.3968 137.353 72.886 136.375 73.0528L132.332 73.7177C131.509 72.8216 130.583 71.9984 129.516 71.2132L129.718 67.1309C129.775 66.1261 129.166 65.2195 128.199 64.8723L123.712 63.3156C122.748 62.9842 121.712 63.3187 121.13 64.1398L118.75 67.4781C117.494 67.4274 116.232 67.4992 114.996 67.6892L112.237 64.6686C111.582 63.9277 110.486 63.7071 109.564 64.1409L105.307 66.2148C104.404 66.6538 103.891 67.647 104.059 68.6264L104.724 72.6697C103.836 73.4865 102.995 74.4322 102.219 75.4844L98.1413 75.2723C97.4076 75.2559 96.704 75.5897 96.2569 76.1441L88.4015 62.8649V54.0828H100.356L106.656 59.4549C106.754 59.5383 106.878 59.5836 107.007 59.5836H113.03C113.396 61.2631 114.891 62.5261 116.678 62.5261C118.74 62.5261 120.416 60.8491 120.416 58.7879C120.416 56.7267 118.74 55.0507 116.678 55.0507C114.715 55.0507 113.118 56.5768 112.97 58.5029H107.206L100.905 53.1309C100.808 53.0475 100.684 53.0021 100.555 53.0021H88.4015V44.0765H118.807C119.072 45.8802 120.614 47.2733 122.49 47.2733C124.551 47.2733 126.227 45.5974 126.227 43.5361C126.227 41.4749 124.551 39.7989 122.49 39.7989C120.614 39.7989 119.072 41.1921 118.807 42.9958H88.4015V34.5831H100.48C100.614 34.5831 100.744 34.5325 100.844 34.4417L107.216 28.6348H112.995C113.26 30.4388 114.802 31.8327 116.678 31.8327C118.74 31.8327 120.416 30.1557 120.416 28.0945C120.416 26.0332 118.74 24.3573 116.678 24.3573C114.802 24.3573 113.26 25.7504 112.995 27.5541H107.007C106.872 27.5541 106.742 27.6047 106.643 27.6955L100.27 33.5024H88.4015V24.9493H90.5365C94.3819 24.9493 97.5107 21.8211 97.5107 17.9752C97.5107 14.1293 94.3819 11 90.5365 11H60.0226C56.1772 11 53.0484 14.1293 53.0484 17.9752C53.0484 21.8211 56.1772 24.9493 60.0226 24.9493H62.2215V33.5024H50.2173L43.8447 27.6955C43.745 27.6047 43.6152 27.5541 43.4806 27.5541H37.4925C37.228 25.7504 35.6856 24.3573 33.8094 24.3573C31.7482 24.3573 30.0716 26.0332 30.0716 28.0945C30.0716 30.1557 31.7482 31.8327 33.8094 31.8327C35.6856 31.8327 37.228 30.4388 37.4925 28.6348H43.2711L49.6437 34.4417C49.7434 34.5325 49.8732 34.5831 50.0078 34.5831H62.2215V42.9958H31.6809C31.4164 41.1921 29.8739 39.7989 27.9983 39.7989C25.9371 39.7989 24.2606 41.4749 24.2606 43.5361C24.2606 45.5974 25.9371 47.2733 27.9983 47.2733C29.8739 47.2733 31.4164 45.8802 31.6809 44.0765H62.2215V53.0021H49.9328C49.8041 53.0021 49.6801 53.0475 49.5825 53.1309L43.2817 58.5029H37.5183C37.3699 56.5768 35.773 55.0507 33.8094 55.0507C31.7482 55.0507 30.0716 56.7267 30.0716 58.7879C30.0716 60.8491 31.7482 62.5261 33.8094 62.5261C35.597 62.5261 37.0914 61.2631 37.4576 59.5836H43.4806C43.6088 59.5836 43.7334 59.5383 43.831 59.4549L50.1318 54.0828H62.2215V62.9282C60.2831 66.1965 70.5377 48.9063 35.4794 108.018C35.3043 107.647 35.1232 107.29 34.927 106.956L36.0094 104.771C36.46 103.826 36.2505 102.718 35.489 102.012L35.4875 102.011L33.5983 100.274C32.822 99.552 31.6933 99.439 30.7888 99.991L28.6759 101.272L26.2885 100.402L25.4959 98.0628C25.1613 97.0876 24.2009 96.4438 23.1677 96.4765L20.6067 96.5842C19.5788 96.6264 18.6838 97.3536 18.431 98.3509L17.8199 100.735C16.9893 101.045 16.2241 101.405 15.4943 101.827L13.3139 100.747C12.3756 100.283 11.2352 100.5 10.535 101.268L8.80567 103.17C8.10224 103.944 7.98931 105.069 8.52863 105.977L9.80092 108.049C9.39723 108.901 9.10119 109.697 8.90171 110.467L6.58826 111.268C5.59723 111.608 4.95976 112.539 5.00198 113.588L5.12124 116.146C5.16345 117.194 5.8748 118.069 6.89063 118.322ZM116.678 56.1314C118.143 56.1314 119.335 57.323 119.335 58.7879C119.335 60.2781 118.168 61.4454 116.678 61.4454C113.245 61.4454 113.153 56.1314 116.678 56.1314ZM122.49 40.8797C123.954 40.8797 125.147 42.0712 125.147 43.5361C125.147 45.0253 123.979 46.1926 122.49 46.1926C119.011 46.1926 118.961 40.8797 122.49 40.8797ZM116.678 25.438C118.143 25.438 119.335 26.6296 119.335 28.0945C119.335 29.5847 118.168 30.752 116.678 30.752C113.2 30.752 113.15 25.438 116.678 25.438ZM33.8094 30.752C32.3197 30.752 31.1524 29.5847 31.1524 28.0945C31.1524 26.6296 32.3445 25.438 33.8094 25.438C37.2901 25.438 37.3364 30.752 33.8094 30.752ZM27.9983 46.1926C26.5086 46.1926 25.3413 45.0253 25.3413 43.5361C25.3413 42.0712 26.5334 40.8797 27.9983 40.8797C31.4768 40.8797 31.5271 46.1926 27.9983 46.1926ZM33.8094 61.4454C32.3197 61.4454 31.1524 60.2781 31.1524 58.7879C31.1524 57.323 32.3445 56.1314 33.8094 56.1314C37.3367 56.1314 37.238 61.4454 33.8094 61.4454ZM118.809 130.936C116.147 135.613 111.34 138.406 105.952 138.406H44.6067C39.2484 138.406 34.4616 135.631 31.8014 130.984C29.1619 126.372 29.1641 120.79 31.8843 116.162L42.6342 98.123C44.5001 99.6828 51.2664 104.453 59.821 100.124C63.764 98.1219 68.6759 98.2644 72.9677 100.507C74.165 101.107 75.5698 101.892 77.2658 102.909C89.2481 110.017 92.5725 114.994 99.0149 116.609C99.0315 116.613 99.0484 116.616 99.065 116.62C105.867 118.301 110.737 114.307 113.947 108.171L118.674 116.161C120.552 119.325 121.163 122.923 120.501 126.375C120.2 127.944 119.636 129.482 118.809 130.936ZM78.174 102.193C78.2479 101.914 78.2906 101.711 78.3117 101.604C78.8117 100.684 85.3816 89.5274 106.193 95.0633L113.29 107.06C108.269 117.202 100.685 118.544 91.8827 111.698C87.7366 108.541 82.677 104.896 78.174 102.193ZM96.9112 77.1551C97.0811 76.6602 97.5761 76.3488 98.0901 76.352L102.456 76.5789C102.641 76.5979 102.816 76.505 102.923 76.3541C103.764 75.1815 104.686 74.1451 105.664 73.2765C105.803 73.153 105.868 72.9673 105.838 72.7847L105.124 68.447C105.035 67.9266 105.298 67.4211 105.78 67.1868L110.03 65.1161C110.514 64.8902 111.087 64.9989 111.434 65.3905L114.395 68.6327C114.52 68.7678 114.705 68.8375 114.884 68.8016C116.23 68.5736 117.611 68.4966 118.99 68.5704C119.169 68.5789 119.352 68.4955 119.459 68.3446L122.011 64.7646C122.315 64.3361 122.859 64.1641 123.36 64.3372L127.839 65.8918C128.347 66.0733 128.668 66.5472 128.639 67.0749L128.423 71.4517C128.414 71.6343 128.498 71.8106 128.647 71.9171C129.839 72.772 130.846 73.6691 131.725 74.658C131.849 74.7963 132.036 74.8702 132.217 74.8322L136.554 74.1187C137.071 74.029 137.581 74.2918 137.814 74.772L139.878 79.0306C140.108 79.5066 140 80.0681 139.612 80.4269L136.359 83.3778C136.222 83.5024 136.158 83.6881 136.19 83.8718C136.417 85.1615 136.497 86.5462 136.431 87.9889C136.423 88.1726 136.508 88.3478 136.657 88.4544L140.224 90.9937L140.225 90.9947C140.66 91.3018 140.833 91.8422 140.653 92.3446L139.11 96.8227C138.928 97.3303 138.448 97.6385 137.927 97.6332L133.55 97.4169C133.369 97.4032 133.19 97.4918 133.084 97.6417C132.261 98.79 131.338 99.8264 130.341 100.721C130.204 100.845 130.139 101.03 130.169 101.211L130.883 105.538C130.972 106.059 130.71 106.564 130.228 106.798L125.971 108.872C125.494 109.103 124.934 108.991 124.573 108.595L121.613 105.353C121.509 105.24 121.364 105.176 121.214 105.176C121.184 105.176 121.153 105.178 121.123 105.184C119.747 105.418 118.359 105.494 117.006 105.425C116.819 105.411 116.644 105.5 116.536 105.652L115.007 107.814L114.267 106.565L107.055 94.3351C107.03 94.2916 106.992 94.258 106.956 94.2237C92.9796 70.6066 98.032 79.1439 96.8898 77.214L96.9112 77.1551ZM63.2268 63.3515C63.2764 63.2681 63.3022 63.1731 63.3022 63.076V24.409C63.3022 24.1103 63.0606 23.8686 62.7619 23.8686H60.0226C56.773 23.8686 54.1292 21.2248 54.1292 17.9752C54.1292 14.7245 56.773 12.0807 60.0226 12.0807H90.5365C93.7861 12.0807 96.4299 14.7245 96.4299 17.9752C96.4299 21.2248 93.7861 23.8686 90.5365 23.8686H87.8611H77.803C77.5044 23.8686 77.2627 24.1103 77.2627 24.409C77.2627 24.7077 77.5044 24.9493 77.803 24.9493H87.3207V63.0127C87.3207 63.1098 87.3466 63.2048 87.3962 63.2881L95.8139 77.5177C95.8201 77.5303 95.8196 77.5451 95.8268 77.5573C96.8085 79.2151 92.2726 71.5556 105.422 93.7602C83.8293 88.4686 77.3738 101.056 77.3102 101.188C77.2875 101.234 77.2716 101.285 77.2627 101.336C77.2613 101.344 77.2433 101.445 77.2034 101.617C75.7623 100.765 74.5223 100.077 73.4595 99.5446C68.8664 97.1446 63.5846 97.0011 59.3323 99.1594C50.9773 103.392 44.6317 98.4686 43.1907 97.1865L63.2268 63.3515ZM6.94024 112.29L9.5339 111.393C9.71016 111.331 9.84261 111.184 9.88377 111.002C10.0801 110.143 10.4125 109.246 10.9007 108.258C10.983 108.091 10.974 107.894 10.8769 107.736L9.45369 105.419C9.16293 104.928 9.22361 104.316 9.60567 103.896L11.335 101.994C11.7117 101.582 12.3302 101.465 12.8347 101.716L15.2769 102.926C15.4431 103.007 15.6389 103 15.7967 102.904C16.6183 102.407 17.488 101.997 18.4542 101.653C18.6241 101.593 18.7524 101.453 18.7967 101.279L19.478 98.619C19.6146 98.0797 20.097 97.6871 20.6516 97.6649L23.2125 97.5573C23.7724 97.5351 24.2927 97.8865 24.4727 98.4111L25.3482 100.994C25.4009 101.149 25.5212 101.272 25.6748 101.328L28.5492 102.376C28.7028 102.432 28.8743 102.415 29.0146 102.331L31.3503 100.915C31.8373 100.617 32.4442 100.677 32.8648 101.068L34.7555 102.807C35.1677 103.189 35.2795 103.792 35.0379 104.299L33.8273 106.741C33.7439 106.908 33.7534 107.107 33.8521 107.266C34.2041 107.834 34.5165 108.451 34.7999 109.138L34.8036 109.147L30.9487 115.613C29.2407 118.517 28.4057 122.083 28.8772 125.668C28.2051 126.028 27.5168 126.323 26.8273 126.547C26.65 126.605 26.5149 126.75 26.4701 126.931L25.8109 129.59C25.6743 130.143 25.203 130.529 24.6373 130.551L22.07 130.661C21.5107 130.684 20.9972 130.342 20.8162 129.815L19.9302 127.231C19.8706 127.057 19.7265 126.926 19.5482 126.882C18.6231 126.654 17.6954 126.314 16.7914 125.873C16.7165 125.836 16.6352 125.818 16.5545 125.818C16.4579 125.818 16.3619 125.843 16.2769 125.895L13.9302 127.301C13.4511 127.589 12.8326 127.528 12.4236 127.149L10.5387 125.425C10.1228 125.033 10.0125 124.427 10.2637 123.917L11.4632 121.474C11.5439 121.309 11.536 121.115 11.4416 120.958C10.9334 120.11 10.5128 119.213 10.1914 118.292C10.1318 118.12 9.98931 117.99 9.81306 117.946L7.15343 117.274C6.60673 117.138 6.22361 116.666 6.20092 116.099L6.08166 113.54C6.05897 112.977 6.40356 112.473 6.94024 112.29Z"/>
</mask>
<path d="M6.89063 118.322L9.27005 118.923C9.56768 119.726 9.93496 120.509 10.365 121.259L9.2938 123.44C8.83206 124.377 9.03417 125.491 9.80303 126.217L11.6917 127.945C12.4495 128.644 13.5999 128.76 14.4869 128.226L16.5835 126.97C17.3782 127.341 18.1893 127.637 19.002 127.857L19.7935 130.165C20.1175 131.11 21.0152 131.744 21.9983 131.744C22.0831 131.744 22.2458 131.735 24.6811 131.632C25.7313 131.59 26.6073 130.874 26.86 129.85L27.4479 127.478C27.9928 127.287 28.5319 127.041 29.0656 126.773C30.1012 131.814 33.603 136.382 38.814 138.406H26.6299C26.3313 138.406 26.0896 138.647 26.0896 138.946C26.0896 139.245 26.3313 139.487 26.6299 139.487C43.1271 139.487 89.8711 139.487 105.952 139.487H127.521C127.82 139.487 128.062 139.245 128.062 138.946C128.062 138.647 127.82 138.406 127.521 138.406H111.755C115.08 137.117 117.898 134.721 119.748 131.471C122.59 126.478 122.536 120.548 119.604 115.611L115.608 108.837L117.248 106.518C118.486 106.564 119.753 106.49 121.011 106.297L123.774 109.322C124.219 109.813 124.829 110.073 125.453 110.073C125.787 110.073 126.125 109.998 126.444 109.844L130.701 107.77C131.604 107.331 132.117 106.338 131.949 105.359L131.283 101.325C132.185 100.489 133.026 99.5446 133.788 98.5103L137.877 98.7129C138.876 98.7615 139.786 98.143 140.129 97.1815L141.673 92.7034C142.01 91.7599 141.672 90.6939 140.849 90.1124L137.522 87.7441C137.566 86.4364 137.492 85.1731 137.304 83.9794L140.342 81.2237C141.085 80.5367 141.29 79.4665 140.85 78.5599L138.786 74.3013C138.349 73.3968 137.353 72.886 136.375 73.0528L132.332 73.7177C131.509 72.8216 130.583 71.9984 129.516 71.2132L129.718 67.1309C129.775 66.1261 129.166 65.2195 128.199 64.8723L123.712 63.3156C122.748 62.9842 121.712 63.3187 121.13 64.1398L118.75 67.4781C117.494 67.4274 116.232 67.4992 114.996 67.6892L112.237 64.6686C111.582 63.9277 110.486 63.7071 109.564 64.1409L105.307 66.2148C104.404 66.6538 103.891 67.647 104.059 68.6264L104.724 72.6697C103.836 73.4865 102.995 74.4322 102.219 75.4844L98.1413 75.2723C97.4076 75.2559 96.704 75.5897 96.2569 76.1441L88.4015 62.8649V54.0828H100.356L106.656 59.4549C106.754 59.5383 106.878 59.5836 107.007 59.5836H113.03C113.396 61.2631 114.891 62.5261 116.678 62.5261C118.74 62.5261 120.416 60.8491 120.416 58.7879C120.416 56.7267 118.74 55.0507 116.678 55.0507C114.715 55.0507 113.118 56.5768 112.97 58.5029H107.206L100.905 53.1309C100.808 53.0475 100.684 53.0021 100.555 53.0021H88.4015V44.0765H118.807C119.072 45.8802 120.614 47.2733 122.49 47.2733C124.551 47.2733 126.227 45.5974 126.227 43.5361C126.227 41.4749 124.551 39.7989 122.49 39.7989C120.614 39.7989 119.072 41.1921 118.807 42.9958H88.4015V34.5831H100.48C100.614 34.5831 100.744 34.5325 100.844 34.4417L107.216 28.6348H112.995C113.26 30.4388 114.802 31.8327 116.678 31.8327C118.74 31.8327 120.416 30.1557 120.416 28.0945C120.416 26.0332 118.74 24.3573 116.678 24.3573C114.802 24.3573 113.26 25.7504 112.995 27.5541H107.007C106.872 27.5541 106.742 27.6047 106.643 27.6955L100.27 33.5024H88.4015V24.9493H90.5365C94.3819 24.9493 97.5107 21.8211 97.5107 17.9752C97.5107 14.1293 94.3819 11 90.5365 11H60.0226C56.1772 11 53.0484 14.1293 53.0484 17.9752C53.0484 21.8211 56.1772 24.9493 60.0226 24.9493H62.2215V33.5024H50.2173L43.8447 27.6955C43.745 27.6047 43.6152 27.5541 43.4806 27.5541H37.4925C37.228 25.7504 35.6856 24.3573 33.8094 24.3573C31.7482 24.3573 30.0716 26.0332 30.0716 28.0945C30.0716 30.1557 31.7482 31.8327 33.8094 31.8327C35.6856 31.8327 37.228 30.4388 37.4925 28.6348H43.2711L49.6437 34.4417C49.7434 34.5325 49.8732 34.5831 50.0078 34.5831H62.2215V42.9958H31.6809C31.4164 41.1921 29.8739 39.7989 27.9983 39.7989C25.9371 39.7989 24.2606 41.4749 24.2606 43.5361C24.2606 45.5974 25.9371 47.2733 27.9983 47.2733C29.8739 47.2733 31.4164 45.8802 31.6809 44.0765H62.2215V53.0021H49.9328C49.8041 53.0021 49.6801 53.0475 49.5825 53.1309L43.2817 58.5029H37.5183C37.3699 56.5768 35.773 55.0507 33.8094 55.0507C31.7482 55.0507 30.0716 56.7267 30.0716 58.7879C30.0716 60.8491 31.7482 62.5261 33.8094 62.5261C35.597 62.5261 37.0914 61.2631 37.4576 59.5836H43.4806C43.6088 59.5836 43.7334 59.5383 43.831 59.4549L50.1318 54.0828H62.2215V62.9282C60.2831 66.1965 70.5377 48.9063 35.4794 108.018C35.3043 107.647 35.1232 107.29 34.927 106.956L36.0094 104.771C36.46 103.826 36.2505 102.718 35.489 102.012L35.4875 102.011L33.5983 100.274C32.822 99.552 31.6933 99.439 30.7888 99.991L28.6759 101.272L26.2885 100.402L25.4959 98.0628C25.1613 97.0876 24.2009 96.4438 23.1677 96.4765L20.6067 96.5842C19.5788 96.6264 18.6838 97.3536 18.431 98.3509L17.8199 100.735C16.9893 101.045 16.2241 101.405 15.4943 101.827L13.3139 100.747C12.3756 100.283 11.2352 100.5 10.535 101.268L8.80567 103.17C8.10224 103.944 7.98931 105.069 8.52863 105.977L9.80092 108.049C9.39723 108.901 9.10119 109.697 8.90171 110.467L6.58826 111.268C5.59723 111.608 4.95976 112.539 5.00198 113.588L5.12124 116.146C5.16345 117.194 5.8748 118.069 6.89063 118.322ZM116.678 56.1314C118.143 56.1314 119.335 57.323 119.335 58.7879C119.335 60.2781 118.168 61.4454 116.678 61.4454C113.245 61.4454 113.153 56.1314 116.678 56.1314ZM122.49 40.8797C123.954 40.8797 125.147 42.0712 125.147 43.5361C125.147 45.0253 123.979 46.1926 122.49 46.1926C119.011 46.1926 118.961 40.8797 122.49 40.8797ZM116.678 25.438C118.143 25.438 119.335 26.6296 119.335 28.0945C119.335 29.5847 118.168 30.752 116.678 30.752C113.2 30.752 113.15 25.438 116.678 25.438ZM33.8094 30.752C32.3197 30.752 31.1524 29.5847 31.1524 28.0945C31.1524 26.6296 32.3445 25.438 33.8094 25.438C37.2901 25.438 37.3364 30.752 33.8094 30.752ZM27.9983 46.1926C26.5086 46.1926 25.3413 45.0253 25.3413 43.5361C25.3413 42.0712 26.5334 40.8797 27.9983 40.8797C31.4768 40.8797 31.5271 46.1926 27.9983 46.1926ZM33.8094 61.4454C32.3197 61.4454 31.1524 60.2781 31.1524 58.7879C31.1524 57.323 32.3445 56.1314 33.8094 56.1314C37.3367 56.1314 37.238 61.4454 33.8094 61.4454ZM118.809 130.936C116.147 135.613 111.34 138.406 105.952 138.406H44.6067C39.2484 138.406 34.4616 135.631 31.8014 130.984C29.1619 126.372 29.1641 120.79 31.8843 116.162L42.6342 98.123C44.5001 99.6828 51.2664 104.453 59.821 100.124C63.764 98.1219 68.6759 98.2644 72.9677 100.507C74.165 101.107 75.5698 101.892 77.2658 102.909C89.2481 110.017 92.5725 114.994 99.0149 116.609C99.0315 116.613 99.0484 116.616 99.065 116.62C105.867 118.301 110.737 114.307 113.947 108.171L118.674 116.161C120.552 119.325 121.163 122.923 120.501 126.375C120.2 127.944 119.636 129.482 118.809 130.936ZM78.174 102.193C78.2479 101.914 78.2906 101.711 78.3117 101.604C78.8117 100.684 85.3816 89.5274 106.193 95.0633L113.29 107.06C108.269 117.202 100.685 118.544 91.8827 111.698C87.7366 108.541 82.677 104.896 78.174 102.193ZM96.9112 77.1551C97.0811 76.6602 97.5761 76.3488 98.0901 76.352L102.456 76.5789C102.641 76.5979 102.816 76.505 102.923 76.3541C103.764 75.1815 104.686 74.1451 105.664 73.2765C105.803 73.153 105.868 72.9673 105.838 72.7847L105.124 68.447C105.035 67.9266 105.298 67.4211 105.78 67.1868L110.03 65.1161C110.514 64.8902 111.087 64.9989 111.434 65.3905L114.395 68.6327C114.52 68.7678 114.705 68.8375 114.884 68.8016C116.23 68.5736 117.611 68.4966 118.99 68.5704C119.169 68.5789 119.352 68.4955 119.459 68.3446L122.011 64.7646C122.315 64.3361 122.859 64.1641 123.36 64.3372L127.839 65.8918C128.347 66.0733 128.668 66.5472 128.639 67.0749L128.423 71.4517C128.414 71.6343 128.498 71.8106 128.647 71.9171C129.839 72.772 130.846 73.6691 131.725 74.658C131.849 74.7963 132.036 74.8702 132.217 74.8322L136.554 74.1187C137.071 74.029 137.581 74.2918 137.814 74.772L139.878 79.0306C140.108 79.5066 140 80.0681 139.612 80.4269L136.359 83.3778C136.222 83.5024 136.158 83.6881 136.19 83.8718C136.417 85.1615 136.497 86.5462 136.431 87.9889C136.423 88.1726 136.508 88.3478 136.657 88.4544L140.224 90.9937L140.225 90.9947C140.66 91.3018 140.833 91.8422 140.653 92.3446L139.11 96.8227C138.928 97.3303 138.448 97.6385 137.927 97.6332L133.55 97.4169C133.369 97.4032 133.19 97.4918 133.084 97.6417C132.261 98.79 131.338 99.8264 130.341 100.721C130.204 100.845 130.139 101.03 130.169 101.211L130.883 105.538C130.972 106.059 130.71 106.564 130.228 106.798L125.971 108.872C125.494 109.103 124.934 108.991 124.573 108.595L121.613 105.353C121.509 105.24 121.364 105.176 121.214 105.176C121.184 105.176 121.153 105.178 121.123 105.184C119.747 105.418 118.359 105.494 117.006 105.425C116.819 105.411 116.644 105.5 116.536 105.652L115.007 107.814L114.267 106.565L107.055 94.3351C107.03 94.2916 106.992 94.258 106.956 94.2237C92.9796 70.6066 98.032 79.1439 96.8898 77.214L96.9112 77.1551ZM63.2268 63.3515C63.2764 63.2681 63.3022 63.1731 63.3022 63.076V24.409C63.3022 24.1103 63.0606 23.8686 62.7619 23.8686H60.0226C56.773 23.8686 54.1292 21.2248 54.1292 17.9752C54.1292 14.7245 56.773 12.0807 60.0226 12.0807H90.5365C93.7861 12.0807 96.4299 14.7245 96.4299 17.9752C96.4299 21.2248 93.7861 23.8686 90.5365 23.8686H87.8611H77.803C77.5044 23.8686 77.2627 24.1103 77.2627 24.409C77.2627 24.7077 77.5044 24.9493 77.803 24.9493H87.3207V63.0127C87.3207 63.1098 87.3466 63.2048 87.3962 63.2881L95.8139 77.5177C95.8201 77.5303 95.8196 77.5451 95.8268 77.5573C96.8085 79.2151 92.2726 71.5556 105.422 93.7602C83.8293 88.4686 77.3738 101.056 77.3102 101.188C77.2875 101.234 77.2716 101.285 77.2627 101.336C77.2613 101.344 77.2433 101.445 77.2034 101.617C75.7623 100.765 74.5223 100.077 73.4595 99.5446C68.8664 97.1446 63.5846 97.0011 59.3323 99.1594C50.9773 103.392 44.6317 98.4686 43.1907 97.1865L63.2268 63.3515ZM6.94024 112.29L9.5339 111.393C9.71016 111.331 9.84261 111.184 9.88377 111.002C10.0801 110.143 10.4125 109.246 10.9007 108.258C10.983 108.091 10.974 107.894 10.8769 107.736L9.45369 105.419C9.16293 104.928 9.22361 104.316 9.60567 103.896L11.335 101.994C11.7117 101.582 12.3302 101.465 12.8347 101.716L15.2769 102.926C15.4431 103.007 15.6389 103 15.7967 102.904C16.6183 102.407 17.488 101.997 18.4542 101.653C18.6241 101.593 18.7524 101.453 18.7967 101.279L19.478 98.619C19.6146 98.0797 20.097 97.6871 20.6516 97.6649L23.2125 97.5573C23.7724 97.5351 24.2927 97.8865 24.4727 98.4111L25.3482 100.994C25.4009 101.149 25.5212 101.272 25.6748 101.328L28.5492 102.376C28.7028 102.432 28.8743 102.415 29.0146 102.331L31.3503 100.915C31.8373 100.617 32.4442 100.677 32.8648 101.068L34.7555 102.807C35.1677 103.189 35.2795 103.792 35.0379 104.299L33.8273 106.741C33.7439 106.908 33.7534 107.107 33.8521 107.266C34.2041 107.834 34.5165 108.451 34.7999 109.138L34.8036 109.147L30.9487 115.613C29.2407 118.517 28.4057 122.083 28.8772 125.668C28.2051 126.028 27.5168 126.323 26.8273 126.547C26.65 126.605 26.5149 126.75 26.4701 126.931L25.8109 129.59C25.6743 130.143 25.203 130.529 24.6373 130.551L22.07 130.661C21.5107 130.684 20.9972 130.342 20.8162 129.815L19.9302 127.231C19.8706 127.057 19.7265 126.926 19.5482 126.882C18.6231 126.654 17.6954 126.314 16.7914 125.873C16.7165 125.836 16.6352 125.818 16.5545 125.818C16.4579 125.818 16.3619 125.843 16.2769 125.895L13.9302 127.301C13.4511 127.589 12.8326 127.528 12.4236 127.149L10.5387 125.425C10.1228 125.033 10.0125 124.427 10.2637 123.917L11.4632 121.474C11.5439 121.309 11.536 121.115 11.4416 120.958C10.9334 120.11 10.5128 119.213 10.1914 118.292C10.1318 118.12 9.98931 117.99 9.81306 117.946L7.15343 117.274C6.60673 117.138 6.22361 116.666 6.20092 116.099L6.08166 113.54C6.05897 112.977 6.40356 112.473 6.94024 112.29Z" fill="#663366"/>
<path d="M6.89063 118.322L9.27005 118.923C9.56768 119.726 9.93496 120.509 10.365 121.259L9.2938 123.44C8.83206 124.377 9.03417 125.491 9.80303 126.217L11.6917 127.945C12.4495 128.644 13.5999 128.76 14.4869 128.226L16.5835 126.97C17.3782 127.341 18.1893 127.637 19.002 127.857L19.7935 130.165C20.1175 131.11 21.0152 131.744 21.9983 131.744C22.0831 131.744 22.2458 131.735 24.6811 131.632C25.7313 131.59 26.6073 130.874 26.86 129.85L27.4479 127.478C27.9928 127.287 28.5319 127.041 29.0656 126.773C30.1012 131.814 33.603 136.382 38.814 138.406H26.6299C26.3313 138.406 26.0896 138.647 26.0896 138.946C26.0896 139.245 26.3313 139.487 26.6299 139.487C43.1271 139.487 89.8711 139.487 105.952 139.487H127.521C127.82 139.487 128.062 139.245 128.062 138.946C128.062 138.647 127.82 138.406 127.521 138.406H111.755C115.08 137.117 117.898 134.721 119.748 131.471C122.59 126.478 122.536 120.548 119.604 115.611L115.608 108.837L117.248 106.518C118.486 106.564 119.753 106.49 121.011 106.297L123.774 109.322C124.219 109.813 124.829 110.073 125.453 110.073C125.787 110.073 126.125 109.998 126.444 109.844L130.701 107.77C131.604 107.331 132.117 106.338 131.949 105.359L131.283 101.325C132.185 100.489 133.026 99.5446 133.788 98.5103L137.877 98.7129C138.876 98.7615 139.786 98.143 140.129 97.1815L141.673 92.7034C142.01 91.7599 141.672 90.6939 140.849 90.1124L137.522 87.7441C137.566 86.4364 137.492 85.1731 137.304 83.9794L140.342 81.2237C141.085 80.5367 141.29 79.4665 140.85 78.5599L138.786 74.3013C138.349 73.3968 137.353 72.886 136.375 73.0528L132.332 73.7177C131.509 72.8216 130.583 71.9984 129.516 71.2132L129.718 67.1309C129.775 66.1261 129.166 65.2195 128.199 64.8723L123.712 63.3156C122.748 62.9842 121.712 63.3187 121.13 64.1398L118.75 67.4781C117.494 67.4274 116.232 67.4992 114.996 67.6892L112.237 64.6686C111.582 63.9277 110.486 63.7071 109.564 64.1409L105.307 66.2148C104.404 66.6538 103.891 67.647 104.059 68.6264L104.724 72.6697C103.836 73.4865 102.995 74.4322 102.219 75.4844L98.1413 75.2723C97.4076 75.2559 96.704 75.5897 96.2569 76.1441L88.4015 62.8649V54.0828H100.356L106.656 59.4549C106.754 59.5383 106.878 59.5836 107.007 59.5836H113.03C113.396 61.2631 114.891 62.5261 116.678 62.5261C118.74 62.5261 120.416 60.8491 120.416 58.7879C120.416 56.7267 118.74 55.0507 116.678 55.0507C114.715 55.0507 113.118 56.5768 112.97 58.5029H107.206L100.905 53.1309C100.808 53.0475 100.684 53.0021 100.555 53.0021H88.4015V44.0765H118.807C119.072 45.8802 120.614 47.2733 122.49 47.2733C124.551 47.2733 126.227 45.5974 126.227 43.5361C126.227 41.4749 124.551 39.7989 122.49 39.7989C120.614 39.7989 119.072 41.1921 118.807 42.9958H88.4015V34.5831H100.48C100.614 34.5831 100.744 34.5325 100.844 34.4417L107.216 28.6348H112.995C113.26 30.4388 114.802 31.8327 116.678 31.8327C118.74 31.8327 120.416 30.1557 120.416 28.0945C120.416 26.0332 118.74 24.3573 116.678 24.3573C114.802 24.3573 113.26 25.7504 112.995 27.5541H107.007C106.872 27.5541 106.742 27.6047 106.643 27.6955L100.27 33.5024H88.4015V24.9493H90.5365C94.3819 24.9493 97.5107 21.8211 97.5107 17.9752C97.5107 14.1293 94.3819 11 90.5365 11H60.0226C56.1772 11 53.0484 14.1293 53.0484 17.9752C53.0484 21.8211 56.1772 24.9493 60.0226 24.9493H62.2215V33.5024H50.2173L43.8447 27.6955C43.745 27.6047 43.6152 27.5541 43.4806 27.5541H37.4925C37.228 25.7504 35.6856 24.3573 33.8094 24.3573C31.7482 24.3573 30.0716 26.0332 30.0716 28.0945C30.0716 30.1557 31.7482 31.8327 33.8094 31.8327C35.6856 31.8327 37.228 30.4388 37.4925 28.6348H43.2711L49.6437 34.4417C49.7434 34.5325 49.8732 34.5831 50.0078 34.5831H62.2215V42.9958H31.6809C31.4164 41.1921 29.8739 39.7989 27.9983 39.7989C25.9371 39.7989 24.2606 41.4749 24.2606 43.5361C24.2606 45.5974 25.9371 47.2733 27.9983 47.2733C29.8739 47.2733 31.4164 45.8802 31.6809 44.0765H62.2215V53.0021H49.9328C49.8041 53.0021 49.6801 53.0475 49.5825 53.1309L43.2817 58.5029H37.5183C37.3699 56.5768 35.773 55.0507 33.8094 55.0507C31.7482 55.0507 30.0716 56.7267 30.0716 58.7879C30.0716 60.8491 31.7482 62.5261 33.8094 62.5261C35.597 62.5261 37.0914 61.2631 37.4576 59.5836H43.4806C43.6088 59.5836 43.7334 59.5383 43.831 59.4549L50.1318 54.0828H62.2215V62.9282C60.2831 66.1965 70.5377 48.9063 35.4794 108.018C35.3043 107.647 35.1232 107.29 34.927 106.956L36.0094 104.771C36.46 103.826 36.2505 102.718 35.489 102.012L35.4875 102.011L33.5983 100.274C32.822 99.552 31.6933 99.439 30.7888 99.991L28.6759 101.272L26.2885 100.402L25.4959 98.0628C25.1613 97.0876 24.2009 96.4438 23.1677 96.4765L20.6067 96.5842C19.5788 96.6264 18.6838 97.3536 18.431 98.3509L17.8199 100.735C16.9893 101.045 16.2241 101.405 15.4943 101.827L13.3139 100.747C12.3756 100.283 11.2352 100.5 10.535 101.268L8.80567 103.17C8.10224 103.944 7.98931 105.069 8.52863 105.977L9.80092 108.049C9.39723 108.901 9.10119 109.697 8.90171 110.467L6.58826 111.268C5.59723 111.608 4.95976 112.539 5.00198 113.588L5.12124 116.146C5.16345 117.194 5.8748 118.069 6.89063 118.322ZM116.678 56.1314C118.143 56.1314 119.335 57.323 119.335 58.7879C119.335 60.2781 118.168 61.4454 116.678 61.4454C113.245 61.4454 113.153 56.1314 116.678 56.1314ZM122.49 40.8797C123.954 40.8797 125.147 42.0712 125.147 43.5361C125.147 45.0253 123.979 46.1926 122.49 46.1926C119.011 46.1926 118.961 40.8797 122.49 40.8797ZM116.678 25.438C118.143 25.438 119.335 26.6296 119.335 28.0945C119.335 29.5847 118.168 30.752 116.678 30.752C113.2 30.752 113.15 25.438 116.678 25.438ZM33.8094 30.752C32.3197 30.752 31.1524 29.5847 31.1524 28.0945C31.1524 26.6296 32.3445 25.438 33.8094 25.438C37.2901 25.438 37.3364 30.752 33.8094 30.752ZM27.9983 46.1926C26.5086 46.1926 25.3413 45.0253 25.3413 43.5361C25.3413 42.0712 26.5334 40.8797 27.9983 40.8797C31.4768 40.8797 31.5271 46.1926 27.9983 46.1926ZM33.8094 61.4454C32.3197 61.4454 31.1524 60.2781 31.1524 58.7879C31.1524 57.323 32.3445 56.1314 33.8094 56.1314C37.3367 56.1314 37.238 61.4454 33.8094 61.4454ZM118.809 130.936C116.147 135.613 111.34 138.406 105.952 138.406H44.6067C39.2484 138.406 34.4616 135.631 31.8014 130.984C29.1619 126.372 29.1641 120.79 31.8843 116.162L42.6342 98.123C44.5001 99.6828 51.2664 104.453 59.821 100.124C63.764 98.1219 68.6759 98.2644 72.9677 100.507C74.165 101.107 75.5698 101.892 77.2658 102.909C89.2481 110.017 92.5725 114.994 99.0149 116.609C99.0315 116.613 99.0484 116.616 99.065 116.62C105.867 118.301 110.737 114.307 113.947 108.171L118.674 116.161C120.552 119.325 121.163 122.923 120.501 126.375C120.2 127.944 119.636 129.482 118.809 130.936ZM78.174 102.193C78.2479 101.914 78.2906 101.711 78.3117 101.604C78.8117 100.684 85.3816 89.5274 106.193 95.0633L113.29 107.06C108.269 117.202 100.685 118.544 91.8827 111.698C87.7366 108.541 82.677 104.896 78.174 102.193ZM96.9112 77.1551C97.0811 76.6602 97.5761 76.3488 98.0901 76.352L102.456 76.5789C102.641 76.5979 102.816 76.505 102.923 76.3541C103.764 75.1815 104.686 74.1451 105.664 73.2765C105.803 73.153 105.868 72.9673 105.838 72.7847L105.124 68.447C105.035 67.9266 105.298 67.4211 105.78 67.1868L110.03 65.1161C110.514 64.8902 111.087 64.9989 111.434 65.3905L114.395 68.6327C114.52 68.7678 114.705 68.8375 114.884 68.8016C116.23 68.5736 117.611 68.4966 118.99 68.5704C119.169 68.5789 119.352 68.4955 119.459 68.3446L122.011 64.7646C122.315 64.3361 122.859 64.1641 123.36 64.3372L127.839 65.8918C128.347 66.0733 128.668 66.5472 128.639 67.0749L128.423 71.4517C128.414 71.6343 128.498 71.8106 128.647 71.9171C129.839 72.772 130.846 73.6691 131.725 74.658C131.849 74.7963 132.036 74.8702 132.217 74.8322L136.554 74.1187C137.071 74.029 137.581 74.2918 137.814 74.772L139.878 79.0306C140.108 79.5066 140 80.0681 139.612 80.4269L136.359 83.3778C136.222 83.5024 136.158 83.6881 136.19 83.8718C136.417 85.1615 136.497 86.5462 136.431 87.9889C136.423 88.1726 136.508 88.3478 136.657 88.4544L140.224 90.9937L140.225 90.9947C140.66 91.3018 140.833 91.8422 140.653 92.3446L139.11 96.8227C138.928 97.3303 138.448 97.6385 137.927 97.6332L133.55 97.4169C133.369 97.4032 133.19 97.4918 133.084 97.6417C132.261 98.79 131.338 99.8264 130.341 100.721C130.204 100.845 130.139 101.03 130.169 101.211L130.883 105.538C130.972 106.059 130.71 106.564 130.228 106.798L125.971 108.872C125.494 109.103 124.934 108.991 124.573 108.595L121.613 105.353C121.509 105.24 121.364 105.176 121.214 105.176C121.184 105.176 121.153 105.178 121.123 105.184C119.747 105.418 118.359 105.494 117.006 105.425C116.819 105.411 116.644 105.5 116.536 105.652L115.007 107.814L114.267 106.565L107.055 94.3351C107.03 94.2916 106.992 94.258 106.956 94.2237C92.9796 70.6066 98.032 79.1439 96.8898 77.214L96.9112 77.1551ZM63.2268 63.3515C63.2764 63.2681 63.3022 63.1731 63.3022 63.076V24.409C63.3022 24.1103 63.0606 23.8686 62.7619 23.8686H60.0226C56.773 23.8686 54.1292 21.2248 54.1292 17.9752C54.1292 14.7245 56.773 12.0807 60.0226 12.0807H90.5365C93.7861 12.0807 96.4299 14.7245 96.4299 17.9752C96.4299 21.2248 93.7861 23.8686 90.5365 23.8686H87.8611H77.803C77.5044 23.8686 77.2627 24.1103 77.2627 24.409C77.2627 24.7077 77.5044 24.9493 77.803 24.9493H87.3207V63.0127C87.3207 63.1098 87.3466 63.2048 87.3962 63.2881L95.8139 77.5177C95.8201 77.5303 95.8196 77.5451 95.8268 77.5573C96.8085 79.2151 92.2726 71.5556 105.422 93.7602C83.8293 88.4686 77.3738 101.056 77.3102 101.188C77.2875 101.234 77.2716 101.285 77.2627 101.336C77.2613 101.344 77.2433 101.445 77.2034 101.617C75.7623 100.765 74.5223 100.077 73.4595 99.5446C68.8664 97.1446 63.5846 97.0011 59.3323 99.1594C50.9773 103.392 44.6317 98.4686 43.1907 97.1865L63.2268 63.3515ZM6.94024 112.29L9.5339 111.393C9.71016 111.331 9.84261 111.184 9.88377 111.002C10.0801 110.143 10.4125 109.246 10.9007 108.258C10.983 108.091 10.974 107.894 10.8769 107.736L9.45369 105.419C9.16293 104.928 9.22361 104.316 9.60567 103.896L11.335 101.994C11.7117 101.582 12.3302 101.465 12.8347 101.716L15.2769 102.926C15.4431 103.007 15.6389 103 15.7967 102.904C16.6183 102.407 17.488 101.997 18.4542 101.653C18.6241 101.593 18.7524 101.453 18.7967 101.279L19.478 98.619C19.6146 98.0797 20.097 97.6871 20.6516 97.6649L23.2125 97.5573C23.7724 97.5351 24.2927 97.8865 24.4727 98.4111L25.3482 100.994C25.4009 101.149 25.5212 101.272 25.6748 101.328L28.5492 102.376C28.7028 102.432 28.8743 102.415 29.0146 102.331L31.3503 100.915C31.8373 100.617 32.4442 100.677 32.8648 101.068L34.7555 102.807C35.1677 103.189 35.2795 103.792 35.0379 104.299L33.8273 106.741C33.7439 106.908 33.7534 107.107 33.8521 107.266C34.2041 107.834 34.5165 108.451 34.7999 109.138L34.8036 109.147L30.9487 115.613C29.2407 118.517 28.4057 122.083 28.8772 125.668C28.2051 126.028 27.5168 126.323 26.8273 126.547C26.65 126.605 26.5149 126.75 26.4701 126.931L25.8109 129.59C25.6743 130.143 25.203 130.529 24.6373 130.551L22.07 130.661C21.5107 130.684 20.9972 130.342 20.8162 129.815L19.9302 127.231C19.8706 127.057 19.7265 126.926 19.5482 126.882C18.6231 126.654 17.6954 126.314 16.7914 125.873C16.7165 125.836 16.6352 125.818 16.5545 125.818C16.4579 125.818 16.3619 125.843 16.2769 125.895L13.9302 127.301C13.4511 127.589 12.8326 127.528 12.4236 127.149L10.5387 125.425C10.1228 125.033 10.0125 124.427 10.2637 123.917L11.4632 121.474C11.5439 121.309 11.536 121.115 11.4416 120.958C10.9334 120.11 10.5128 119.213 10.1914 118.292C10.1318 118.12 9.98931 117.99 9.81306 117.946L7.15343 117.274C6.60673 117.138 6.22361 116.666 6.20092 116.099L6.08166 113.54C6.05897 112.977 6.40356 112.473 6.94024 112.29Z" stroke="#663366" stroke-width="1.2" mask="url(#path-3-outside-1_663_4058)"/>
<path d="M6.53516 138.106C6.99926 138.107 7.37482 138.482 7.375 138.946C7.375 139.411 6.99937 139.787 6.53516 139.787H6.125C5.66079 139.787 5.28516 139.411 5.28516 138.946C5.28533 138.482 5.6609 138.107 6.125 138.106H6.53516Z" fill="#663366" stroke="#663366" stroke-width="0.6"/>
<path d="M23.3877 138.106C23.8519 138.107 24.2274 138.482 24.2275 138.946C24.2275 139.411 23.852 139.787 23.3877 139.787H9.23633C8.77211 139.787 8.39648 139.411 8.39648 138.946C8.39666 138.482 8.77222 138.107 9.23633 138.106H23.3877Z" fill="#663366" stroke="#663366" stroke-width="0.6"/>
<path d="M142.05 138.106C142.514 138.107 142.889 138.482 142.89 138.946C142.89 139.411 142.514 139.787 142.05 139.787H131.304C130.839 139.787 130.464 139.411 130.464 138.946C130.464 138.482 130.84 138.107 131.304 138.106H142.05Z" fill="#663366" stroke="#663366" stroke-width="0.6"/>
<path d="M144.459 138.106C144.923 138.106 145.3 138.482 145.3 138.946C145.3 139.411 144.923 139.787 144.459 139.787H144.21C143.746 139.787 143.37 139.411 143.37 138.946C143.37 138.482 143.746 138.107 144.21 138.106H144.459Z" fill="#663366" stroke="#663366" stroke-width="0.6"/>
<path d="M74.4834 23.5674C74.9477 23.5674 75.324 23.943 75.3242 24.4072C75.3242 24.8716 74.9478 25.248 74.4834 25.248H74.291C73.8268 25.2479 73.4512 24.8715 73.4512 24.4072C73.4514 23.9431 73.8269 23.5676 74.291 23.5674H74.4834Z" fill="#663366" stroke="#663366" stroke-width="0.6"/>
<path d="M68.7832 108.321C70.9687 108.321 72.7469 110.099 72.7471 112.284C72.7471 114.47 70.9689 116.249 68.7832 116.249C66.6037 116.249 64.833 114.469 64.833 112.284C64.8331 110.1 66.6039 108.321 68.7832 108.321ZM68.7832 110.002C67.5336 110.002 66.5138 111.025 66.5137 112.284C66.5137 113.545 67.5336 114.568 68.7832 114.568C70.0416 114.568 71.0664 113.543 71.0664 112.284C71.0663 111.026 70.0416 110.002 68.7832 110.002Z" fill="#663366" stroke="#663366" stroke-width="0.6"/>
<path d="M87.6279 122.845C89.4643 122.845 90.958 124.338 90.958 126.175C90.9579 128.011 89.4643 129.505 87.6279 129.505C85.7964 129.505 84.3087 128.01 84.3086 126.175C84.3086 124.339 85.7963 122.845 87.6279 122.845ZM87.6279 124.525C86.7261 124.525 85.9893 125.264 85.9893 126.175C85.9894 127.085 86.7261 127.824 87.6279 127.824C88.5371 127.824 89.2772 127.083 89.2773 126.175C89.2773 125.266 88.5371 124.525 87.6279 124.525Z" fill="#663366" stroke="#663366" stroke-width="0.6"/>
<path d="M45.46 115.146C48.1015 115.146 50.25 117.295 50.25 119.937C50.2498 122.578 48.1014 124.726 45.46 124.727C42.8268 124.727 40.6868 122.577 40.6865 119.937C40.6865 117.296 42.8267 115.146 45.46 115.146ZM45.46 116.826C43.7564 116.826 42.3672 118.22 42.3672 119.937C42.3674 121.653 43.7565 123.046 45.46 123.046C47.1742 123.046 48.5691 121.651 48.5693 119.937C48.5693 118.222 47.1744 116.826 45.46 116.826Z" fill="#663366" stroke="#663366" stroke-width="0.6"/>
<mask id="path-12-outside-2_663_4058" maskUnits="userSpaceOnUse" x="59.3311" y="62.1641" width="32" height="36" fill="black">
<rect fill="white" x="59.3311" y="62.1641" width="32" height="36"/>
<path d="M61.8032 85.1065C61.7362 85.1377 61.6664 85.1604 61.6016 85.1978C60.3887 85.8975 59.9693 87.4469 60.6718 88.6659C61.3732 89.8783 62.926 90.2938 64.1388 89.5957L64.1393 89.5947C64.2051 89.5567 64.2607 89.5071 64.3221 89.4641C65.4233 90.0527 66.8083 90.3704 68.4206 90.3704C68.6903 90.3704 68.9729 90.3511 69.2539 90.3342C70.1438 92.0854 71.2455 93.3918 72.4724 94.1496C72.4659 94.2232 72.4502 94.2941 72.4502 94.3693C72.4502 95.7699 73.589 96.9087 74.989 96.9087C76.389 96.9087 77.5277 95.7699 77.5277 94.3693C77.5277 94.2912 77.5116 94.2174 77.5047 94.1408C78.8201 93.3401 79.9864 91.9013 80.9097 89.939C81.3348 89.9754 81.7593 90.0105 82.1589 90.0105C83.7798 90.0105 85.163 89.696 86.2622 89.1087C86.3246 89.1525 86.3801 89.2031 86.4475 89.2422C87.662 89.9436 89.2124 89.5304 89.9151 88.3134C90.6165 87.0984 90.2012 85.5474 88.9858 84.8464C88.9213 84.8092 88.8527 84.7875 88.7864 84.7567C88.748 83.3044 88.1598 81.6883 87.0702 80.0398C88.1475 78.391 88.7277 76.7831 88.765 75.344C88.8312 75.3129 88.9013 75.2984 88.9657 75.2612C90.1802 74.5606 90.5966 73.0093 89.895 71.7941C89.1847 70.5636 87.6244 70.1716 86.4275 70.8654C86.3563 70.9063 86.2959 70.9596 86.2297 71.0065C84.8705 70.2736 83.0587 69.9804 80.9216 70.168C79.9992 68.1978 78.8283 66.7474 77.5045 65.9327C77.5115 65.8556 77.5277 65.7812 77.5277 65.7023C77.5277 64.3028 76.389 63.1641 74.989 63.1641C73.589 63.1641 72.4502 64.3028 72.4502 65.7023C72.4502 65.7778 72.466 65.849 72.4725 65.9229C71.2409 66.6796 70.1308 67.9997 69.2285 69.7794C67.286 69.6717 65.6257 69.9738 64.3601 70.6559C64.2932 70.6084 64.232 70.5546 64.1599 70.5129C62.9462 69.8131 61.3926 70.229 60.6924 71.4416C59.9926 72.6532 60.4095 74.2089 61.6211 74.9087C61.6859 74.9461 61.7576 74.962 61.8245 74.9934C61.8662 76.5353 62.5308 78.2649 63.7649 80.0408C62.5193 81.8287 61.8475 83.5646 61.8032 85.1065ZM61.6079 88.1255C61.2074 87.4308 61.4392 86.5406 62.1415 86.134C62.8545 85.7227 63.7672 86.0347 64.1325 86.668C64.4482 87.2139 64.3417 87.9186 63.951 88.3514C63.2347 89.1599 62.0725 88.9289 61.6079 88.1255ZM65.0771 88.6554C65.089 88.6348 65.0928 88.611 65.1041 88.5902C65.4942 87.8571 65.5373 86.8693 65.0023 86.0348C64.5466 85.3215 63.7696 84.8994 62.9746 84.8654C62.946 84.8643 62.919 84.854 62.8903 84.8538C62.9921 83.6791 63.5409 82.3527 64.4574 80.9651C65.2702 81.9854 66.2359 82.9738 67.3471 83.9097C67.6254 85.8627 68.1184 87.6854 68.7766 89.2675C67.3373 89.3047 66.0555 89.1042 65.0771 88.6554ZM69.8959 70.9129C71.2977 71.0596 72.7861 71.4034 74.2855 71.93C73.2954 72.3546 72.3052 72.8258 71.3277 73.391C70.374 73.9398 69.4725 74.559 68.6006 75.2076C68.8932 73.6501 69.3335 72.1936 69.8959 70.9129ZM80.2434 71.3287C80.6161 72.239 80.9265 73.2071 81.163 74.2319C80.5657 73.8205 79.9424 73.4152 79.2718 73.0247C78.5992 72.6345 77.9222 72.2923 77.2459 71.9746C78.2731 71.6635 79.2743 71.4522 80.2434 71.3287ZM80.2336 88.7844C79.2589 88.6548 78.2597 88.4398 77.2421 88.1292C77.9033 87.815 78.5688 87.477 79.2375 87.0923C79.9102 86.705 80.5448 86.2915 81.158 85.8678C80.9165 86.9052 80.6044 87.878 80.2336 88.7844ZM78.7288 73.9598C79.7262 74.5395 80.6362 75.1496 81.4567 75.7725C81.6861 77.1147 81.8106 78.5419 81.8106 80.0306C81.8106 81.4817 81.6861 82.9216 81.456 84.3226C80.6095 84.9672 79.6877 85.5857 78.6982 86.1551C77.7089 86.725 76.7235 87.2084 75.7598 87.6134C74.4781 87.135 73.1812 86.5284 71.8987 85.7868C70.6318 85.0601 69.4483 84.2361 68.3618 83.343C68.2254 82.2422 68.1499 81.1295 68.1499 80.0306C68.1499 78.9466 68.2253 77.8416 68.3614 76.7422C69.4504 75.8575 70.6246 75.0427 71.8681 74.3271C73.1509 73.586 74.454 72.9701 75.7456 72.4854C76.7345 72.8915 77.7372 73.3844 78.7288 73.9598ZM82.6747 76.753C83.8916 77.7963 84.9326 78.911 85.7485 80.0411C84.9363 81.1675 83.8939 82.2862 82.6705 83.3395C82.8015 82.2482 82.8913 81.1451 82.8913 80.0306C82.8913 78.897 82.803 77.8105 82.6747 76.753ZM69.9164 89.1936C69.3522 87.924 68.9074 86.4641 68.607 84.8873C69.4808 85.5411 70.3891 86.167 71.3594 86.7229C72.3364 87.2878 73.3219 87.7561 74.3047 88.177C72.7904 88.7105 71.3033 89.0543 69.9164 89.1936ZM67.1748 82.3163C66.3893 81.582 65.7022 80.82 65.1068 80.0414C65.7019 79.2635 66.389 78.5021 67.1743 77.7678C67.1118 78.5261 67.0692 79.2828 67.0692 80.0306C67.0692 80.7889 67.112 81.553 67.1748 82.3163ZM74.989 95.8279C74.1847 95.8279 73.5309 95.1736 73.5309 94.3693C73.5309 92.974 75.2171 92.8453 75.0087 92.9158C75.8165 92.9277 76.447 93.6631 76.447 94.3693C76.447 95.1736 75.7932 95.8279 74.989 95.8279ZM77.1736 93.0796C77.1641 93.0633 77.149 93.0511 77.1391 93.0348C76.6555 92.2585 75.8044 91.8311 74.989 91.8311C74.1744 91.8311 73.294 92.2748 72.8141 93.0804C72.8126 93.0828 72.8104 93.0846 72.809 93.087C71.9287 92.4759 71.1231 91.4881 70.4258 90.2195C72.1268 90.0058 73.9519 89.5203 75.7771 88.7757C77.1281 89.267 78.4624 89.61 79.7597 89.8076C79.0173 91.2849 78.1423 92.4137 77.1736 93.0796ZM88.9789 87.773C88.5759 88.472 87.684 88.7095 86.9879 88.3071C86.3431 87.9341 86.053 87.0108 86.4544 86.3155L86.4581 86.3108C86.85 85.64 87.7584 85.3861 88.4454 85.7815C89.1471 86.1878 89.3805 87.0787 88.9789 87.773ZM87.6342 84.5155C85.7563 84.5791 84.6066 86.5814 85.4835 88.2337C85.4947 88.2546 85.4985 88.278 85.5103 88.2986C84.4341 88.792 82.9891 88.9807 81.356 88.8852C81.8291 87.6651 82.1993 86.3366 82.4537 84.9176C84.0162 83.6955 85.3506 82.3532 86.3845 80.9915C87.1496 82.2342 87.6101 83.4319 87.6992 84.5065C87.6771 84.5065 87.6563 84.5147 87.6342 84.5155ZM88.9589 72.3345C89.3617 73.0311 89.1231 73.9229 88.4259 74.325C87.7609 74.7084 86.8182 74.4502 86.4375 73.792C86.0572 73.1459 86.2753 72.2002 86.9673 71.8015L86.9678 71.8005C87.6598 71.4009 88.5535 71.6315 88.9589 72.3345ZM85.486 71.8089C85.4744 71.8295 85.4708 71.8527 85.4598 71.8736C85.0402 72.6672 85.0867 73.6187 85.4982 74.3324C85.9397 75.0955 86.78 75.5903 87.6776 75.5968C87.5891 76.6612 87.1357 77.8498 86.3818 79.0881C85.3437 77.7218 84.0099 76.3839 82.4545 75.1757C82.2086 73.7701 81.8391 72.444 81.3594 71.2123C82.9857 71.1158 84.4174 71.3145 85.486 71.8089ZM74.989 64.2448C75.7932 64.2448 76.447 64.8992 76.447 65.7023C76.447 66.4432 75.7745 67.1588 74.9911 67.1588C74.2047 67.1588 73.5309 66.4362 73.5309 65.7023C73.5309 64.8992 74.1847 64.2448 74.989 64.2448ZM72.8085 66.9836L72.8121 66.9883C73.3133 67.8338 74.2329 68.2416 74.989 68.2416C75.7595 68.2416 76.6421 67.8352 77.1393 67.0371C77.1484 67.0224 77.1622 67.0113 77.171 66.9963C78.1403 67.6744 79.0341 68.8292 79.7727 70.2999C78.4781 70.4897 77.1339 70.8321 75.7612 71.3298C73.9532 70.592 72.125 70.1089 70.4025 69.8886C71.1098 68.5973 71.9231 67.5973 72.8085 66.9836ZM61.6285 71.982C62.0296 71.2844 62.9214 71.0448 63.6196 71.448C64.273 71.8262 64.5947 72.7877 64.0636 73.5414C63.5901 74.2108 62.7077 74.2884 62.1615 73.9736C61.466 73.5715 61.2264 72.6775 61.6285 71.982ZM65.0887 73.9799C65.4957 73.2753 65.5555 72.2547 65.1019 71.4617C66.0669 71.0137 67.3343 70.8105 68.7572 70.8406C68.0999 72.4353 67.613 74.2511 67.3463 76.1751C66.2355 77.1102 65.2704 78.0976 64.4587 79.1158C63.5662 77.7532 63.0173 76.416 62.913 75.2517C63.809 75.244 64.6726 74.7009 65.0887 73.9799Z"/>
</mask>
<path d="M61.8032 85.1065C61.7362 85.1377 61.6664 85.1604 61.6016 85.1978C60.3887 85.8975 59.9693 87.4469 60.6718 88.6659C61.3732 89.8783 62.926 90.2938 64.1388 89.5957L64.1393 89.5947C64.2051 89.5567 64.2607 89.5071 64.3221 89.4641C65.4233 90.0527 66.8083 90.3704 68.4206 90.3704C68.6903 90.3704 68.9729 90.3511 69.2539 90.3342C70.1438 92.0854 71.2455 93.3918 72.4724 94.1496C72.4659 94.2232 72.4502 94.2941 72.4502 94.3693C72.4502 95.7699 73.589 96.9087 74.989 96.9087C76.389 96.9087 77.5277 95.7699 77.5277 94.3693C77.5277 94.2912 77.5116 94.2174 77.5047 94.1408C78.8201 93.3401 79.9864 91.9013 80.9097 89.939C81.3348 89.9754 81.7593 90.0105 82.1589 90.0105C83.7798 90.0105 85.163 89.696 86.2622 89.1087C86.3246 89.1525 86.3801 89.2031 86.4475 89.2422C87.662 89.9436 89.2124 89.5304 89.9151 88.3134C90.6165 87.0984 90.2012 85.5474 88.9858 84.8464C88.9213 84.8092 88.8527 84.7875 88.7864 84.7567C88.748 83.3044 88.1598 81.6883 87.0702 80.0398C88.1475 78.391 88.7277 76.7831 88.765 75.344C88.8312 75.3129 88.9013 75.2984 88.9657 75.2612C90.1802 74.5606 90.5966 73.0093 89.895 71.7941C89.1847 70.5636 87.6244 70.1716 86.4275 70.8654C86.3563 70.9063 86.2959 70.9596 86.2297 71.0065C84.8705 70.2736 83.0587 69.9804 80.9216 70.168C79.9992 68.1978 78.8283 66.7474 77.5045 65.9327C77.5115 65.8556 77.5277 65.7812 77.5277 65.7023C77.5277 64.3028 76.389 63.1641 74.989 63.1641C73.589 63.1641 72.4502 64.3028 72.4502 65.7023C72.4502 65.7778 72.466 65.849 72.4725 65.9229C71.2409 66.6796 70.1308 67.9997 69.2285 69.7794C67.286 69.6717 65.6257 69.9738 64.3601 70.6559C64.2932 70.6084 64.232 70.5546 64.1599 70.5129C62.9462 69.8131 61.3926 70.229 60.6924 71.4416C59.9926 72.6532 60.4095 74.2089 61.6211 74.9087C61.6859 74.9461 61.7576 74.962 61.8245 74.9934C61.8662 76.5353 62.5308 78.2649 63.7649 80.0408C62.5193 81.8287 61.8475 83.5646 61.8032 85.1065ZM61.6079 88.1255C61.2074 87.4308 61.4392 86.5406 62.1415 86.134C62.8545 85.7227 63.7672 86.0347 64.1325 86.668C64.4482 87.2139 64.3417 87.9186 63.951 88.3514C63.2347 89.1599 62.0725 88.9289 61.6079 88.1255ZM65.0771 88.6554C65.089 88.6348 65.0928 88.611 65.1041 88.5902C65.4942 87.8571 65.5373 86.8693 65.0023 86.0348C64.5466 85.3215 63.7696 84.8994 62.9746 84.8654C62.946 84.8643 62.919 84.854 62.8903 84.8538C62.9921 83.6791 63.5409 82.3527 64.4574 80.9651C65.2702 81.9854 66.2359 82.9738 67.3471 83.9097C67.6254 85.8627 68.1184 87.6854 68.7766 89.2675C67.3373 89.3047 66.0555 89.1042 65.0771 88.6554ZM69.8959 70.9129C71.2977 71.0596 72.7861 71.4034 74.2855 71.93C73.2954 72.3546 72.3052 72.8258 71.3277 73.391C70.374 73.9398 69.4725 74.559 68.6006 75.2076C68.8932 73.6501 69.3335 72.1936 69.8959 70.9129ZM80.2434 71.3287C80.6161 72.239 80.9265 73.2071 81.163 74.2319C80.5657 73.8205 79.9424 73.4152 79.2718 73.0247C78.5992 72.6345 77.9222 72.2923 77.2459 71.9746C78.2731 71.6635 79.2743 71.4522 80.2434 71.3287ZM80.2336 88.7844C79.2589 88.6548 78.2597 88.4398 77.2421 88.1292C77.9033 87.815 78.5688 87.477 79.2375 87.0923C79.9102 86.705 80.5448 86.2915 81.158 85.8678C80.9165 86.9052 80.6044 87.878 80.2336 88.7844ZM78.7288 73.9598C79.7262 74.5395 80.6362 75.1496 81.4567 75.7725C81.6861 77.1147 81.8106 78.5419 81.8106 80.0306C81.8106 81.4817 81.6861 82.9216 81.456 84.3226C80.6095 84.9672 79.6877 85.5857 78.6982 86.1551C77.7089 86.725 76.7235 87.2084 75.7598 87.6134C74.4781 87.135 73.1812 86.5284 71.8987 85.7868C70.6318 85.0601 69.4483 84.2361 68.3618 83.343C68.2254 82.2422 68.1499 81.1295 68.1499 80.0306C68.1499 78.9466 68.2253 77.8416 68.3614 76.7422C69.4504 75.8575 70.6246 75.0427 71.8681 74.3271C73.1509 73.586 74.454 72.9701 75.7456 72.4854C76.7345 72.8915 77.7372 73.3844 78.7288 73.9598ZM82.6747 76.753C83.8916 77.7963 84.9326 78.911 85.7485 80.0411C84.9363 81.1675 83.8939 82.2862 82.6705 83.3395C82.8015 82.2482 82.8913 81.1451 82.8913 80.0306C82.8913 78.897 82.803 77.8105 82.6747 76.753ZM69.9164 89.1936C69.3522 87.924 68.9074 86.4641 68.607 84.8873C69.4808 85.5411 70.3891 86.167 71.3594 86.7229C72.3364 87.2878 73.3219 87.7561 74.3047 88.177C72.7904 88.7105 71.3033 89.0543 69.9164 89.1936ZM67.1748 82.3163C66.3893 81.582 65.7022 80.82 65.1068 80.0414C65.7019 79.2635 66.389 78.5021 67.1743 77.7678C67.1118 78.5261 67.0692 79.2828 67.0692 80.0306C67.0692 80.7889 67.112 81.553 67.1748 82.3163ZM74.989 95.8279C74.1847 95.8279 73.5309 95.1736 73.5309 94.3693C73.5309 92.974 75.2171 92.8453 75.0087 92.9158C75.8165 92.9277 76.447 93.6631 76.447 94.3693C76.447 95.1736 75.7932 95.8279 74.989 95.8279ZM77.1736 93.0796C77.1641 93.0633 77.149 93.0511 77.1391 93.0348C76.6555 92.2585 75.8044 91.8311 74.989 91.8311C74.1744 91.8311 73.294 92.2748 72.8141 93.0804C72.8126 93.0828 72.8104 93.0846 72.809 93.087C71.9287 92.4759 71.1231 91.4881 70.4258 90.2195C72.1268 90.0058 73.9519 89.5203 75.7771 88.7757C77.1281 89.267 78.4624 89.61 79.7597 89.8076C79.0173 91.2849 78.1423 92.4137 77.1736 93.0796ZM88.9789 87.773C88.5759 88.472 87.684 88.7095 86.9879 88.3071C86.3431 87.9341 86.053 87.0108 86.4544 86.3155L86.4581 86.3108C86.85 85.64 87.7584 85.3861 88.4454 85.7815C89.1471 86.1878 89.3805 87.0787 88.9789 87.773ZM87.6342 84.5155C85.7563 84.5791 84.6066 86.5814 85.4835 88.2337C85.4947 88.2546 85.4985 88.278 85.5103 88.2986C84.4341 88.792 82.9891 88.9807 81.356 88.8852C81.8291 87.6651 82.1993 86.3366 82.4537 84.9176C84.0162 83.6955 85.3506 82.3532 86.3845 80.9915C87.1496 82.2342 87.6101 83.4319 87.6992 84.5065C87.6771 84.5065 87.6563 84.5147 87.6342 84.5155ZM88.9589 72.3345C89.3617 73.0311 89.1231 73.9229 88.4259 74.325C87.7609 74.7084 86.8182 74.4502 86.4375 73.792C86.0572 73.1459 86.2753 72.2002 86.9673 71.8015L86.9678 71.8005C87.6598 71.4009 88.5535 71.6315 88.9589 72.3345ZM85.486 71.8089C85.4744 71.8295 85.4708 71.8527 85.4598 71.8736C85.0402 72.6672 85.0867 73.6187 85.4982 74.3324C85.9397 75.0955 86.78 75.5903 87.6776 75.5968C87.5891 76.6612 87.1357 77.8498 86.3818 79.0881C85.3437 77.7218 84.0099 76.3839 82.4545 75.1757C82.2086 73.7701 81.8391 72.444 81.3594 71.2123C82.9857 71.1158 84.4174 71.3145 85.486 71.8089ZM74.989 64.2448C75.7932 64.2448 76.447 64.8992 76.447 65.7023C76.447 66.4432 75.7745 67.1588 74.9911 67.1588C74.2047 67.1588 73.5309 66.4362 73.5309 65.7023C73.5309 64.8992 74.1847 64.2448 74.989 64.2448ZM72.8085 66.9836L72.8121 66.9883C73.3133 67.8338 74.2329 68.2416 74.989 68.2416C75.7595 68.2416 76.6421 67.8352 77.1393 67.0371C77.1484 67.0224 77.1622 67.0113 77.171 66.9963C78.1403 67.6744 79.0341 68.8292 79.7727 70.2999C78.4781 70.4897 77.1339 70.8321 75.7612 71.3298C73.9532 70.592 72.125 70.1089 70.4025 69.8886C71.1098 68.5973 71.9231 67.5973 72.8085 66.9836ZM61.6285 71.982C62.0296 71.2844 62.9214 71.0448 63.6196 71.448C64.273 71.8262 64.5947 72.7877 64.0636 73.5414C63.5901 74.2108 62.7077 74.2884 62.1615 73.9736C61.466 73.5715 61.2264 72.6775 61.6285 71.982ZM65.0887 73.9799C65.4957 73.2753 65.5555 72.2547 65.1019 71.4617C66.0669 71.0137 67.3343 70.8105 68.7572 70.8406C68.0999 72.4353 67.613 74.2511 67.3463 76.1751C66.2355 77.1102 65.2704 78.0976 64.4587 79.1158C63.5662 77.7532 63.0173 76.416 62.913 75.2517C63.809 75.244 64.6726 74.7009 65.0887 73.9799Z" fill="#663366"/>
<path d="M61.8032 85.1065C61.7362 85.1377 61.6664 85.1604 61.6016 85.1978C60.3887 85.8975 59.9693 87.4469 60.6718 88.6659C61.3732 89.8783 62.926 90.2938 64.1388 89.5957L64.1393 89.5947C64.2051 89.5567 64.2607 89.5071 64.3221 89.4641C65.4233 90.0527 66.8083 90.3704 68.4206 90.3704C68.6903 90.3704 68.9729 90.3511 69.2539 90.3342C70.1438 92.0854 71.2455 93.3918 72.4724 94.1496C72.4659 94.2232 72.4502 94.2941 72.4502 94.3693C72.4502 95.7699 73.589 96.9087 74.989 96.9087C76.389 96.9087 77.5277 95.7699 77.5277 94.3693C77.5277 94.2912 77.5116 94.2174 77.5047 94.1408C78.8201 93.3401 79.9864 91.9013 80.9097 89.939C81.3348 89.9754 81.7593 90.0105 82.1589 90.0105C83.7798 90.0105 85.163 89.696 86.2622 89.1087C86.3246 89.1525 86.3801 89.2031 86.4475 89.2422C87.662 89.9436 89.2124 89.5304 89.9151 88.3134C90.6165 87.0984 90.2012 85.5474 88.9858 84.8464C88.9213 84.8092 88.8527 84.7875 88.7864 84.7567C88.748 83.3044 88.1598 81.6883 87.0702 80.0398C88.1475 78.391 88.7277 76.7831 88.765 75.344C88.8312 75.3129 88.9013 75.2984 88.9657 75.2612C90.1802 74.5606 90.5966 73.0093 89.895 71.7941C89.1847 70.5636 87.6244 70.1716 86.4275 70.8654C86.3563 70.9063 86.2959 70.9596 86.2297 71.0065C84.8705 70.2736 83.0587 69.9804 80.9216 70.168C79.9992 68.1978 78.8283 66.7474 77.5045 65.9327C77.5115 65.8556 77.5277 65.7812 77.5277 65.7023C77.5277 64.3028 76.389 63.1641 74.989 63.1641C73.589 63.1641 72.4502 64.3028 72.4502 65.7023C72.4502 65.7778 72.466 65.849 72.4725 65.9229C71.2409 66.6796 70.1308 67.9997 69.2285 69.7794C67.286 69.6717 65.6257 69.9738 64.3601 70.6559C64.2932 70.6084 64.232 70.5546 64.1599 70.5129C62.9462 69.8131 61.3926 70.229 60.6924 71.4416C59.9926 72.6532 60.4095 74.2089 61.6211 74.9087C61.6859 74.9461 61.7576 74.962 61.8245 74.9934C61.8662 76.5353 62.5308 78.2649 63.7649 80.0408C62.5193 81.8287 61.8475 83.5646 61.8032 85.1065ZM61.6079 88.1255C61.2074 87.4308 61.4392 86.5406 62.1415 86.134C62.8545 85.7227 63.7672 86.0347 64.1325 86.668C64.4482 87.2139 64.3417 87.9186 63.951 88.3514C63.2347 89.1599 62.0725 88.9289 61.6079 88.1255ZM65.0771 88.6554C65.089 88.6348 65.0928 88.611 65.1041 88.5902C65.4942 87.8571 65.5373 86.8693 65.0023 86.0348C64.5466 85.3215 63.7696 84.8994 62.9746 84.8654C62.946 84.8643 62.919 84.854 62.8903 84.8538C62.9921 83.6791 63.5409 82.3527 64.4574 80.9651C65.2702 81.9854 66.2359 82.9738 67.3471 83.9097C67.6254 85.8627 68.1184 87.6854 68.7766 89.2675C67.3373 89.3047 66.0555 89.1042 65.0771 88.6554ZM69.8959 70.9129C71.2977 71.0596 72.7861 71.4034 74.2855 71.93C73.2954 72.3546 72.3052 72.8258 71.3277 73.391C70.374 73.9398 69.4725 74.559 68.6006 75.2076C68.8932 73.6501 69.3335 72.1936 69.8959 70.9129ZM80.2434 71.3287C80.6161 72.239 80.9265 73.2071 81.163 74.2319C80.5657 73.8205 79.9424 73.4152 79.2718 73.0247C78.5992 72.6345 77.9222 72.2923 77.2459 71.9746C78.2731 71.6635 79.2743 71.4522 80.2434 71.3287ZM80.2336 88.7844C79.2589 88.6548 78.2597 88.4398 77.2421 88.1292C77.9033 87.815 78.5688 87.477 79.2375 87.0923C79.9102 86.705 80.5448 86.2915 81.158 85.8678C80.9165 86.9052 80.6044 87.878 80.2336 88.7844ZM78.7288 73.9598C79.7262 74.5395 80.6362 75.1496 81.4567 75.7725C81.6861 77.1147 81.8106 78.5419 81.8106 80.0306C81.8106 81.4817 81.6861 82.9216 81.456 84.3226C80.6095 84.9672 79.6877 85.5857 78.6982 86.1551C77.7089 86.725 76.7235 87.2084 75.7598 87.6134C74.4781 87.135 73.1812 86.5284 71.8987 85.7868C70.6318 85.0601 69.4483 84.2361 68.3618 83.343C68.2254 82.2422 68.1499 81.1295 68.1499 80.0306C68.1499 78.9466 68.2253 77.8416 68.3614 76.7422C69.4504 75.8575 70.6246 75.0427 71.8681 74.3271C73.1509 73.586 74.454 72.9701 75.7456 72.4854C76.7345 72.8915 77.7372 73.3844 78.7288 73.9598ZM82.6747 76.753C83.8916 77.7963 84.9326 78.911 85.7485 80.0411C84.9363 81.1675 83.8939 82.2862 82.6705 83.3395C82.8015 82.2482 82.8913 81.1451 82.8913 80.0306C82.8913 78.897 82.803 77.8105 82.6747 76.753ZM69.9164 89.1936C69.3522 87.924 68.9074 86.4641 68.607 84.8873C69.4808 85.5411 70.3891 86.167 71.3594 86.7229C72.3364 87.2878 73.3219 87.7561 74.3047 88.177C72.7904 88.7105 71.3033 89.0543 69.9164 89.1936ZM67.1748 82.3163C66.3893 81.582 65.7022 80.82 65.1068 80.0414C65.7019 79.2635 66.389 78.5021 67.1743 77.7678C67.1118 78.5261 67.0692 79.2828 67.0692 80.0306C67.0692 80.7889 67.112 81.553 67.1748 82.3163ZM74.989 95.8279C74.1847 95.8279 73.5309 95.1736 73.5309 94.3693C73.5309 92.974 75.2171 92.8453 75.0087 92.9158C75.8165 92.9277 76.447 93.6631 76.447 94.3693C76.447 95.1736 75.7932 95.8279 74.989 95.8279ZM77.1736 93.0796C77.1641 93.0633 77.149 93.0511 77.1391 93.0348C76.6555 92.2585 75.8044 91.8311 74.989 91.8311C74.1744 91.8311 73.294 92.2748 72.8141 93.0804C72.8126 93.0828 72.8104 93.0846 72.809 93.087C71.9287 92.4759 71.1231 91.4881 70.4258 90.2195C72.1268 90.0058 73.9519 89.5203 75.7771 88.7757C77.1281 89.267 78.4624 89.61 79.7597 89.8076C79.0173 91.2849 78.1423 92.4137 77.1736 93.0796ZM88.9789 87.773C88.5759 88.472 87.684 88.7095 86.9879 88.3071C86.3431 87.9341 86.053 87.0108 86.4544 86.3155L86.4581 86.3108C86.85 85.64 87.7584 85.3861 88.4454 85.7815C89.1471 86.1878 89.3805 87.0787 88.9789 87.773ZM87.6342 84.5155C85.7563 84.5791 84.6066 86.5814 85.4835 88.2337C85.4947 88.2546 85.4985 88.278 85.5103 88.2986C84.4341 88.792 82.9891 88.9807 81.356 88.8852C81.8291 87.6651 82.1993 86.3366 82.4537 84.9176C84.0162 83.6955 85.3506 82.3532 86.3845 80.9915C87.1496 82.2342 87.6101 83.4319 87.6992 84.5065C87.6771 84.5065 87.6563 84.5147 87.6342 84.5155ZM88.9589 72.3345C89.3617 73.0311 89.1231 73.9229 88.4259 74.325C87.7609 74.7084 86.8182 74.4502 86.4375 73.792C86.0572 73.1459 86.2753 72.2002 86.9673 71.8015L86.9678 71.8005C87.6598 71.4009 88.5535 71.6315 88.9589 72.3345ZM85.486 71.8089C85.4744 71.8295 85.4708 71.8527 85.4598 71.8736C85.0402 72.6672 85.0867 73.6187 85.4982 74.3324C85.9397 75.0955 86.78 75.5903 87.6776 75.5968C87.5891 76.6612 87.1357 77.8498 86.3818 79.0881C85.3437 77.7218 84.0099 76.3839 82.4545 75.1757C82.2086 73.7701 81.8391 72.444 81.3594 71.2123C82.9857 71.1158 84.4174 71.3145 85.486 71.8089ZM74.989 64.2448C75.7932 64.2448 76.447 64.8992 76.447 65.7023C76.447 66.4432 75.7745 67.1588 74.9911 67.1588C74.2047 67.1588 73.5309 66.4362 73.5309 65.7023C73.5309 64.8992 74.1847 64.2448 74.989 64.2448ZM72.8085 66.9836L72.8121 66.9883C73.3133 67.8338 74.2329 68.2416 74.989 68.2416C75.7595 68.2416 76.6421 67.8352 77.1393 67.0371C77.1484 67.0224 77.1622 67.0113 77.171 66.9963C78.1403 67.6744 79.0341 68.8292 79.7727 70.2999C78.4781 70.4897 77.1339 70.8321 75.7612 71.3298C73.9532 70.592 72.125 70.1089 70.4025 69.8886C71.1098 68.5973 71.9231 67.5973 72.8085 66.9836ZM61.6285 71.982C62.0296 71.2844 62.9214 71.0448 63.6196 71.448C64.273 71.8262 64.5947 72.7877 64.0636 73.5414C63.5901 74.2108 62.7077 74.2884 62.1615 73.9736C61.466 73.5715 61.2264 72.6775 61.6285 71.982ZM65.0887 73.9799C65.4957 73.2753 65.5555 72.2547 65.1019 71.4617C66.0669 71.0137 67.3343 70.8105 68.7572 70.8406C68.0999 72.4353 67.613 74.2511 67.3463 76.1751C66.2355 77.1102 65.2704 78.0976 64.4587 79.1158C63.5662 77.7532 63.0173 76.416 62.913 75.2517C63.809 75.244 64.6726 74.7009 65.0887 73.9799Z" stroke="#663366" stroke-width="1.2" mask="url(#path-12-outside-2_663_4058)"/>
<path d="M74.9883 75.665C77.3974 75.665 79.3564 77.6289 79.3564 80.042C79.3564 82.4504 77.3967 84.4092 74.9883 84.4092C72.58 84.4091 70.6211 82.4503 70.6211 80.042C70.6211 77.629 72.5793 75.6651 74.9883 75.665ZM74.9883 77.3457C73.508 77.3458 72.3018 78.5551 72.3018 80.042C72.3018 81.5227 73.5071 82.7284 74.9883 82.7285C76.4695 82.7285 77.6747 81.5227 77.6748 80.042C77.6748 78.555 76.4686 77.3457 74.9883 77.3457Z" fill="#663366" stroke="#663366" stroke-width="0.6"/>
</svg>
