<svg width="150" height="150" viewBox="0 0 150 150" fill="none" xmlns="http://www.w3.org/2000/svg">
<path d="M82.6562 130.133V111.592" stroke="#663366" stroke-width="4.10156" stroke-miterlimit="10" stroke-linecap="round" stroke-linejoin="round"/>
<path d="M67.3438 111.504V130.133" stroke="#663366" stroke-width="4.10156" stroke-miterlimit="10" stroke-linecap="round" stroke-linejoin="round"/>
<mask id="mask0_673_1283" style="mask-type:luminance" maskUnits="userSpaceOnUse" x="5" y="5" width="140" height="140">
<path d="M5 5H145V145H5V5Z" fill="white"/>
</mask>
<g mask="url(#mask0_673_1283)">
<path d="M57.6336 77.9501C57.5108 77.1123 57.4449 76.2556 57.4449 75.3836C57.4449 68.5406 61.3652 62.6092 67.0817 59.7143M82.7797 59.6454C88.5709 62.5146 92.5513 68.4862 92.5513 75.3836C92.5513 85.08 84.6946 92.9369 74.998 92.9369C69.4499 92.9369 64.5043 90.3587 61.2873 86.3373M67.3436 39.4687C66.59 38.8663 65.54 38.6818 64.5857 39.0769L56.6927 42.3464C55.2965 42.9247 54.6334 44.5254 55.2118 45.9218L57.1554 50.614C54.45 52.5639 52.1216 54.9086 50.2319 57.5396L45.5427 55.5947C44.1466 55.0155 42.5453 55.6781 41.9665 57.0745L38.6937 64.9695C38.1148 66.3659 38.7779 67.9672 40.1743 68.5458L44.8676 70.4899C44.3434 73.6867 44.332 76.9912 44.8712 80.2806L40.179 82.2242C38.7828 82.8025 38.1197 84.4032 38.6981 85.7997L41.9673 93.6927C42.5456 95.0889 44.1466 95.752 45.5427 95.1737L50.2349 93.2298C52.1799 95.9374 54.5224 98.2605 57.1556 100.155L55.2112 104.843C54.6318 106.24 55.2952 107.842 56.6924 108.42L64.5893 111.688C65.9855 112.267 67.5856 111.603 68.164 110.207L70.1056 105.52C73.3027 106.044 76.6069 106.055 79.8966 105.516L81.8402 110.208C82.4185 111.605 84.0192 112.268 85.4157 111.69L93.3084 108.42C94.7049 107.842 95.368 106.241 94.7897 104.845L92.8458 100.152C95.5531 98.2075 97.8817 95.8627 99.7714 93.2317L104.459 95.1734C105.855 95.7517 107.456 95.0889 108.034 93.6933L111.307 85.798C111.886 84.401 111.222 82.7992 109.825 82.2215L105.136 80.2817C105.658 77.0798 105.671 73.7805 105.132 70.4907L109.824 68.5471C111.221 67.9688 111.884 66.3681 111.306 64.9719L108.036 57.0789C107.458 55.6825 105.857 55.0196 104.461 55.5977L99.7684 57.5416C97.8234 54.834 95.4787 52.5057 92.8477 50.6159L94.7918 45.9224C95.3702 44.5259 94.7068 42.925 93.3101 42.3466L85.4132 39.0782C84.5021 38.7012 83.5043 38.8526 82.76 39.391" stroke="#663366" stroke-width="4.10156" stroke-miterlimit="10" stroke-linecap="round" stroke-linejoin="round"/>
<path d="M67.3438 31.5721V91.1861C69.6568 92.3091 72.2561 92.9375 74.997 92.9375C77.7434 92.9375 80.3427 92.3064 82.656 91.1834V53.8723" stroke="#663366" stroke-width="4.10156" stroke-miterlimit="10" stroke-linecap="round" stroke-linejoin="round"/>
<path d="M82.6562 44.7578V31.5696" stroke="#663366" stroke-width="4.10156" stroke-miterlimit="10" stroke-linecap="round" stroke-linejoin="round"/>
<path d="M83.4002 17.5159V29.9616C83.4002 30.7357 82.7726 31.3633 81.9985 31.3633H68.0015C67.2271 31.3633 66.5996 30.7357 66.5996 29.9616V17.5159" stroke="#663366" stroke-width="4.10156" stroke-miterlimit="10" stroke-linecap="round" stroke-linejoin="round"/>
<path d="M79.4367 21.6211H83.4002V12.6567C83.4002 9.56004 80.8895 7.04934 77.7928 7.04934H72.2067C69.1098 7.04934 66.5996 9.56004 66.5996 12.6567V21.6211H70.3246" stroke="#663366" stroke-width="4.10156" stroke-miterlimit="10" stroke-linecap="round" stroke-linejoin="round"/>
<path d="M74.998 39.8519V61.9492" stroke="#663366" stroke-width="4.10156" stroke-miterlimit="10" stroke-linecap="round" stroke-linejoin="round"/>
<path d="M74.998 70.2895V73.2891" stroke="#663366" stroke-width="4.10156" stroke-miterlimit="10" stroke-linecap="round" stroke-linejoin="round"/>
<path d="M69.3047 135.358C72.5403 132.678 77.4556 132.678 80.686 135.363" stroke="#663366" stroke-width="4.10156" stroke-miterlimit="10" stroke-linecap="round" stroke-linejoin="round"/>
<path d="M67.3438 131.497V121.973L73.7414 125.382C74.5283 125.802 75.4725 125.802 76.2589 125.381L82.6415 121.973V131.499C82.6415 132.005 82.4977 132.501 82.2267 132.929L76.3549 142.203C75.7252 143.197 74.2748 143.198 73.6443 142.204L67.7599 132.93C67.4881 132.502 67.3438 132.004 67.3438 131.497Z" stroke="#663366" stroke-width="4.10156" stroke-miterlimit="10" stroke-linecap="round" stroke-linejoin="round"/>
</g>
</svg>
