<svg width="150" height="150" viewBox="0 0 150 150" fill="none" xmlns="http://www.w3.org/2000/svg">
<mask id="mask0_661_2587" style="mask-type:luminance" maskUnits="userSpaceOnUse" x="5" y="0" width="140" height="140">
<path d="M5 0H145V140H5V0Z" fill="white"/>
</mask>
<g mask="url(#mask0_661_2587)">
<path d="M80.8505 23.793L76.5096 13.5719C75.9436 12.2397 74.0553 12.2397 73.4895 13.5719L69.1484 23.793" stroke="#663366" stroke-width="4.10156" stroke-miterlimit="10" stroke-linecap="round" stroke-linejoin="round"/>
<path d="M85.1921 32.8672L89.7995 21.764C90.2917 20.5781 89.0257 19.4291 87.8928 20.0337L79.2497 24.6479C76.5941 26.0654 73.4064 26.0654 70.751 24.6479L62.1077 20.0337C60.9751 19.4291 59.7088 20.5781 60.201 21.764L64.8084 32.8672" stroke="#663366" stroke-width="4.10156" stroke-miterlimit="10" stroke-linecap="round" stroke-linejoin="round"/>
<path d="M47.3887 46.0352C48.4305 38.5922 54.8226 32.8645 62.5527 32.8645H87.4475C95.1776 32.8645 101.57 38.5922 102.612 46.0352" stroke="#663366" stroke-width="4.10156" stroke-miterlimit="10" stroke-linecap="round" stroke-linejoin="round"/>
<path d="M91.2441 81.5625C90.6119 79.5306 90.2715 77.3702 90.2715 75.1304C90.2715 63.1845 99.9558 53.5004 111.902 53.5004C123.848 53.5004 133.532 63.1845 133.532 75.1304C133.532 77.3606 133.194 79.5117 132.567 81.536" stroke="#663366" stroke-width="4.10156" stroke-miterlimit="10" stroke-linecap="round" stroke-linejoin="round"/>
<path d="M111.9 53.5V35.469" stroke="#663366" stroke-width="4.10156" stroke-miterlimit="10" stroke-linecap="round" stroke-linejoin="round"/>
<path d="M115.425 45.1857L111.9 42.2318L115.425 39.2781C118.473 36.7237 122.915 36.7237 125.963 39.2781L128.237 41.184C128.889 41.7303 128.889 42.7333 128.237 43.2799L125.963 45.1857C122.915 47.7402 118.473 47.7402 115.425 45.1857Z" stroke="#663366" stroke-width="4.10156" stroke-miterlimit="10" stroke-linecap="round" stroke-linejoin="round"/>
<path d="M55.5151 81.5352L61.3344 68.7265C62.1711 66.8846 62.441 64.8355 62.109 62.84C61.1298 56.9507 55.3201 53.1608 49.5355 54.6379L41.8782 56.5933C40.2239 57.0157 38.49 57.0157 36.8357 56.5933L29.1784 54.6379C23.3935 53.1608 17.5841 56.9507 16.6049 62.84C16.273 64.8355 16.5426 66.8846 17.3793 68.7265L23.1986 81.5352" stroke="#663366" stroke-width="4.10156" stroke-miterlimit="10" stroke-linecap="round" stroke-linejoin="round"/>
<path d="M39.3574 56.6055V35.4709" stroke="#663366" stroke-width="4.10156" stroke-miterlimit="10" stroke-linecap="round" stroke-linejoin="round"/>
<path d="M35.8323 45.1857L39.3572 42.2318L35.8323 39.2781C32.7843 36.7237 28.3429 36.7237 25.2946 39.2781L23.0201 41.184C22.3682 41.7303 22.3682 42.7333 23.0204 43.2799L25.2946 45.1857C28.3429 47.7402 32.7843 47.7402 35.8323 45.1857Z" stroke="#663366" stroke-width="4.10156" stroke-miterlimit="10" stroke-linecap="round" stroke-linejoin="round"/>
<path d="M137.447 95.7875V106.527" stroke="#663366" stroke-width="4.10156" stroke-miterlimit="10" stroke-linecap="round" stroke-linejoin="round"/>
<path d="M137.446 118.315V135.215C137.446 136.725 136.222 137.949 134.712 137.949H15.2852C13.775 137.949 12.5508 136.725 12.5508 135.215V95.7893" stroke="#663366" stroke-width="4.10156" stroke-miterlimit="10" stroke-linecap="round" stroke-linejoin="round"/>
<path d="M39.3585 95.7891H9.78516C8.27496 95.7891 7.05078 94.5646 7.05078 93.0547V84.2716C7.05078 82.7614 8.27496 81.5372 9.78516 81.5372H140.215C141.725 81.5372 142.949 82.7614 142.949 84.2716V93.0547C142.949 94.5646 141.725 95.7891 140.215 95.7891H50.5328" stroke="#663366" stroke-width="4.10156" stroke-miterlimit="10" stroke-linecap="round" stroke-linejoin="round"/>
<path d="M61.0879 47.1016H62.9254" stroke="#663366" stroke-width="4.10156" stroke-miterlimit="10" stroke-linecap="round" stroke-linejoin="round"/>
<path d="M74.0801 47.1016H75.9176" stroke="#663366" stroke-width="4.10156" stroke-miterlimit="10" stroke-linecap="round" stroke-linejoin="round"/>
<path d="M87.0742 47.1016H88.9117" stroke="#663366" stroke-width="4.10156" stroke-miterlimit="10" stroke-linecap="round" stroke-linejoin="round"/>
<path d="M74.0801 70.2617H75.9176" stroke="#663366" stroke-width="4.10156" stroke-miterlimit="10" stroke-linecap="round" stroke-linejoin="round"/>
<path d="M67.584 58.9844H69.4215" stroke="#663366" stroke-width="4.10156" stroke-miterlimit="10" stroke-linecap="round" stroke-linejoin="round"/>
<path d="M80.5781 58.9844H82.4156" stroke="#663366" stroke-width="4.10156" stroke-miterlimit="10" stroke-linecap="round" stroke-linejoin="round"/>
<path d="M83.1538 118.312H66.8441C63.5842 118.312 60.9414 115.67 60.9414 112.41C60.9414 109.15 63.5842 106.507 66.8441 106.507H83.1538C86.4138 106.507 89.0565 109.15 89.0565 112.41C89.0565 115.67 86.4138 118.312 83.1538 118.312Z" stroke="#663366" stroke-width="4.10156" stroke-miterlimit="10" stroke-linecap="round" stroke-linejoin="round"/>
<path d="M138.308 26.1202L138.376 26.0975C138.869 25.9351 138.869 25.2384 138.376 25.076L138.308 25.0533C135.394 24.0919 133.109 21.8059 132.147 18.8925C132.14 18.8695 132.132 18.8465 132.125 18.8241C131.962 18.3316 131.266 18.3322 131.103 18.8244L131.081 18.893C130.119 21.8065 127.834 24.0919 124.921 25.0533L124.852 25.076C124.359 25.2384 124.359 25.9351 124.852 26.0975L124.92 26.1202C127.834 27.0816 130.119 29.3678 131.081 32.2813C131.089 32.3043 131.096 32.327 131.103 32.3497C131.266 32.8421 131.962 32.8416 132.125 32.3491L132.148 32.2808C133.109 29.3673 135.395 27.0816 138.308 26.1202Z" stroke="#663366" stroke-width="4.10156" stroke-miterlimit="10" stroke-linecap="round" stroke-linejoin="round"/>
<path d="M36.3567 16.1397L36.4251 16.1172C36.9175 15.9545 36.9175 15.2581 36.4251 15.0957L36.3565 15.073C33.443 14.1116 31.1573 11.8254 30.1959 8.91188C30.1885 8.88891 30.1809 8.86622 30.1735 8.84352C30.0108 8.35106 29.3146 8.35161 29.1519 8.84407L29.1292 8.9127C28.1678 11.8262 25.8824 14.1116 22.9692 15.073L22.9006 15.0957C22.4081 15.2581 22.4081 15.9545 22.9006 16.1172L22.9692 16.1397C25.8824 17.1013 28.1681 19.3873 29.1295 22.3007C29.1372 22.3237 29.1448 22.3467 29.1522 22.3691C29.3146 22.8616 30.0111 22.8613 30.1735 22.3686L30.1962 22.3005C31.1576 19.3867 33.4433 17.1013 36.3567 16.1397Z" stroke="#663366" stroke-width="4.10156" stroke-miterlimit="10" stroke-linecap="round" stroke-linejoin="round"/>
<path d="M116.699 13.1681L116.798 13.1353C117.512 12.8996 117.512 11.8892 116.798 11.6535L116.698 11.6207C112.473 10.2264 109.158 6.91073 107.763 2.68502C107.752 2.65194 107.741 2.61858 107.731 2.58577C107.495 1.87155 106.485 1.87237 106.249 2.58658L106.216 2.68612C104.822 6.91182 101.507 10.2262 97.2817 11.6207L97.1821 11.6535C96.4679 11.8892 96.4679 12.8996 97.1821 13.1353L97.2817 13.1681C101.507 14.5626 104.822 17.8783 106.217 22.1037C106.228 22.1371 106.239 22.1702 106.249 22.203C106.485 22.9172 107.495 22.9164 107.731 22.2024L107.764 22.1032C109.158 17.8775 112.473 14.5626 116.699 13.1681Z" stroke="#663366" stroke-width="4.10156" stroke-miterlimit="10" stroke-linecap="round" stroke-linejoin="round"/>
</g>
</svg>
