<svg width="150" height="150" viewBox="0 0 150 150" fill="none" xmlns="http://www.w3.org/2000/svg">
<path d="M123.39 144.999H26.3552C23.1236 144.999 20.5039 142.38 20.5039 139.148C20.5039 135.917 23.1236 133.297 26.3552 133.297H123.39C126.622 133.297 129.241 135.917 129.241 139.148C129.241 142.38 126.622 144.999 123.39 144.999Z" stroke="#663366" stroke-width="4.22538" stroke-miterlimit="10" stroke-linecap="round" stroke-linejoin="round"/>
<path d="M74.8314 77.0625H111.167C113.961 77.0625 116.229 79.3273 116.229 82.1217V133.297H33.5156V97.2739" stroke="#663366" stroke-width="4.22538" stroke-miterlimit="10" stroke-linecap="round" stroke-linejoin="round"/>
<path d="M49.6803 125.398H41.416V100.523" stroke="#663366" stroke-width="4.22538" stroke-miterlimit="10" stroke-linecap="round" stroke-linejoin="round"/>
<path d="M74.8314 84.9609H108.329V125.397H59.5547" stroke="#663366" stroke-width="4.22538" stroke-miterlimit="10" stroke-linecap="round" stroke-linejoin="round"/>
<path d="M41.4163 100.525C31.6492 95.8449 21.4651 93.4494 10.8057 93.6616C9.26705 93.6923 8 92.4616 8 90.9227V56.8509C8 55.2526 9.36311 53.9909 10.9564 54.1182C21.9088 54.9937 32.0621 57.1752 41.4163 60.6622V100.525Z" stroke="#663366" stroke-width="4.22538" stroke-miterlimit="10" stroke-linecap="round" stroke-linejoin="round"/>
<path d="M15.6152 62.2461C21.9798 63.0399 28.0643 64.3323 33.7982 66.1084" stroke="#663366" stroke-width="4.22538" stroke-miterlimit="10" stroke-linecap="round" stroke-linejoin="round"/>
<path d="M41.416 100.525C51.1831 95.8449 61.3671 93.4494 72.0266 93.6616C73.5652 93.6923 74.8323 92.4616 74.8323 90.9227V56.8509C74.8323 55.2526 73.4692 53.9909 71.8759 54.1182C60.9234 54.9937 50.7702 57.1752 41.416 60.6622V100.525Z" stroke="#663366" stroke-width="4.22538" stroke-miterlimit="10" stroke-linecap="round" stroke-linejoin="round"/>
<path d="M49.0312 66.1084C54.7656 64.332 60.8493 63.0396 67.2142 62.2461" stroke="#663366" stroke-width="4.22538" stroke-miterlimit="10" stroke-linecap="round" stroke-linejoin="round"/>
<path d="M49.0312 74.1279C54.7656 72.3516 60.8493 71.0592 67.2142 70.2656" stroke="#663366" stroke-width="4.22538" stroke-miterlimit="10" stroke-linecap="round" stroke-linejoin="round"/>
<path d="M49.0312 82.1464C51.371 81.4216 53.769 80.7774 56.2203 80.2148" stroke="#663366" stroke-width="4.22538" stroke-miterlimit="10" stroke-linecap="round" stroke-linejoin="round"/>
<path d="M74.8318 58.6059H123.553C133.86 58.6059 142.215 50.251 142.215 39.9439C142.215 29.6368 133.86 21.2818 123.553 21.2818C122.652 21.2818 121.767 21.3494 120.9 21.4733C118.421 17.093 113.722 14.1324 108.331 14.1324C107.012 14.1324 105.736 14.3127 104.522 14.6451C100.987 8.85918 94.615 5 87.3389 5C76.2261 5 67.2148 14.0113 67.2148 25.1241C67.2148 26.4959 67.3528 27.8311 67.6148 29.1241C66.3275 28.7663 64.9725 28.5691 63.5725 28.5691C55.2767 28.5691 48.5527 35.2931 48.5527 43.589C48.5527 49.051 51.4711 53.8313 55.8317 56.4594" stroke="#663366" stroke-width="4.22538" stroke-miterlimit="10" stroke-linecap="round" stroke-linejoin="round"/>
<path d="M95.9434 21.1495C98.467 16.9458 103.07 14.1328 108.33 14.1328" stroke="#663366" stroke-width="4.22538" stroke-miterlimit="10" stroke-linecap="round" stroke-linejoin="round"/>
<path d="M87.0211 58.6055V101.28C87.0211 103.316 85.3707 104.966 83.3349 104.966H76.3633" stroke="#663366" stroke-width="4.22538" stroke-miterlimit="10" stroke-linecap="round" stroke-linejoin="round"/>
<path d="M97.6773 58.6055V112.949C97.6773 114.985 96.0269 116.635 93.9911 116.635H87.0195" stroke="#663366" stroke-width="4.22538" stroke-miterlimit="10" stroke-linecap="round" stroke-linejoin="round"/>
<path d="M97.6773 58.6046H87.0195V37.1298C87.0195 34.1867 89.4055 31.8008 92.3483 31.8008C95.2914 31.8008 97.6773 34.1867 97.6773 37.1298V58.6046Z" stroke="#663366" stroke-width="4.22538" stroke-miterlimit="10" stroke-linecap="round" stroke-linejoin="round"/>
<path d="M108.336 58.6059H97.6777V44.7585C97.6777 41.8153 100.064 39.4297 103.006 39.4297C105.95 39.4297 108.335 41.8156 108.335 44.7585V58.6059H108.336Z" stroke="#663366" stroke-width="4.22538" stroke-miterlimit="10" stroke-linecap="round" stroke-linejoin="round"/>
<path d="M118.988 46.8938V58.6043H108.33V36.9853C108.33 34.0422 110.716 31.6562 113.659 31.6562C116.602 31.6562 118.988 34.0422 118.988 36.9853" stroke="#663366" stroke-width="4.22538" stroke-miterlimit="10" stroke-linecap="round" stroke-linejoin="round"/>
</svg>
