<svg width="150" height="150" viewBox="0 0 150 150" fill="none" xmlns="http://www.w3.org/2000/svg">
<path d="M88.8477 49.5408V45.785H88.1984C83.3288 45.785 80.838 39.8854 84.3083 36.4206C85.2879 35.3963 86.6592 34.7918 88.1984 34.7918H90.8067C90.8963 30.8122 94.2323 29.2281 94.2771 29.1946C94.3219 29.1498 94.7921 27.1908 96.8854 25.9817C97.3556 20.2054 103.988 17.054 108.769 20.4627C114.243 24.3528 112.239 32.9503 105.645 34.053C105.298 34.0978 104.968 34.1426 104.576 34.1426C104.487 34.2769 104.408 34.4448 104.274 34.5624C103.25 35.889 103.972 34.4281 103.552 36.3591C107.05 39.7846 104.576 45.7738 99.7065 45.7738H98.5479V49.5296H104.699C105.634 49.5296 106.541 49.9214 107.173 50.5539C107.823 51.2032 108.198 52.0484 108.198 53.028V55.4236C108.198 56.7502 107.476 57.8977 106.356 58.5021L107.593 71.1129H114.97V52.1497C114.97 51.3829 115.441 50.7001 116.129 50.3977L121.603 47.3192C121.469 46.8994 121.435 46.4573 121.435 45.9927V38.509H120.573C115.491 38.509 112.883 32.3575 116.515 28.7193C117.54 27.6503 118.989 27.0122 120.573 27.0122H123.529C123.529 20.9783 130.844 17.9446 135.115 22.2321C136.744 23.8609 137.466 26.2901 136.912 28.5963C140.64 32.1841 138.07 38.5203 132.932 38.5203L131.561 38.5315V41.6995L136.268 39.0464C137.595 38.3243 139.134 39.2591 139.134 40.72H139.179V126.739H143.069C144.138 126.739 145 127.646 145 128.698V135.969C145 137.038 144.138 137.9 143.069 137.9H28.7826C27.7135 137.9 26.8515 137.038 26.8515 135.969V133.361H6.93114C5.90683 133.361 5 132.454 5 131.402V26.9338C5 25.8647 5.90676 25.0027 6.93114 25.0027H17.7003V13.9311C17.7003 12.8621 18.6071 12 19.6594 12H54.3345C55.4035 12 56.2656 12.862 56.2656 13.9311V25.0027H67.0348C68.1039 25.0027 68.9659 25.8647 68.9659 26.9338V71.142H80.0822L81.3192 58.6096C80.9274 58.4417 80.5971 58.2178 80.2949 57.9324C79.6456 57.2831 79.2258 56.3931 79.2258 55.4583V53.0626C79.2258 51.1315 80.8546 49.5643 82.769 49.5643L88.8477 49.5587L88.8477 49.5408ZM135.288 126.722V66.2701H118.833V71.1397H128.063C129.132 71.1397 129.994 72.0017 129.994 73.0708V79.782C129.994 80.8511 129.177 81.7131 127.99 81.7131V126.738H135.289L135.288 126.722ZM124.127 126.722V81.6968H33.7807V126.722H61.4431L61.4375 105.816C61.4375 104.746 62.2995 103.857 63.3686 103.857H95.2223C96.2914 103.857 97.1534 104.763 97.1534 105.816V126.722H124.127ZM29.9305 126.722V81.6968C28.7383 81.6968 27.9267 80.8348 27.9267 79.7657V73.0545C27.9267 71.9854 28.7887 71.1233 29.8578 71.1233H65.1376V28.8467H8.90722V129.453H26.8688V128.686C26.8688 127.617 27.7308 126.727 28.7999 126.727L29.9305 126.722ZM65.3005 126.722H93.3096V107.73H65.3005V126.722ZM141.139 130.612H30.6985V134.037H141.139V130.612ZM103.783 71.1403L102.546 58.9549H85.1388L83.9465 71.1403H103.783ZM126.133 74.9856H31.7732V77.8514H126.133V74.9856ZM17.7923 31.8478H24.2908C25.3599 31.8478 26.222 32.7098 26.222 33.7789V40.2775C26.222 41.3465 25.36 42.2086 24.2908 42.2086H17.7923C16.7232 42.2086 15.8611 41.3466 15.8611 40.2775V33.7622C15.8779 32.6931 16.7231 31.8478 17.7923 31.8478ZM22.3765 35.6931H19.7233V38.3463H22.3765V35.6931ZM17.7923 72.6795H24.2908C25.3599 72.6795 26.222 73.5415 26.222 74.6106V81.1092C26.222 82.1782 25.36 83.0682 24.2908 83.0682H17.7923C16.7232 83.0682 15.8611 82.1615 15.8611 81.1092V74.6106C15.8779 73.5247 16.7231 72.6795 17.7923 72.6795ZM22.3765 76.5248H19.7233V79.178H22.3765V76.5248ZM49.6906 59.072H56.2395C57.3086 59.072 58.1706 59.934 58.1706 61.0031V67.5017C58.1706 68.5707 57.3086 69.4328 56.2395 69.4328H49.6906C48.6216 69.4328 47.7595 68.5708 47.7595 67.5017V61.0031C47.7595 59.934 48.6215 59.072 49.6906 59.072ZM54.3085 62.9173H51.6553V65.5705H54.3085V62.9173ZM33.7491 59.072H40.2979C41.3222 59.072 42.229 59.934 42.229 61.0031V67.5017C42.229 68.5707 41.3223 69.4328 40.2979 69.4328H33.7491C32.68 69.4328 31.8179 68.5708 31.8179 67.5017V61.0031C31.8179 59.934 32.6799 59.072 33.7491 59.072ZM38.3165 62.9173H35.6633V65.5705H38.3165V62.9173ZM17.7914 59.072H24.29C25.3591 59.072 26.2211 59.934 26.2211 61.0031V67.5017C26.2211 68.5707 25.3591 69.4328 24.29 69.4328H17.7914C16.7223 69.4328 15.8603 68.5708 15.8603 67.5017V61.0031C15.8771 59.934 16.7223 59.072 17.7914 59.072ZM22.3756 62.9173H19.7224V65.5705H22.3756V62.9173ZM49.6898 45.4372H56.2386C57.3077 45.4372 58.1698 46.2992 58.1698 47.3684V53.9172C58.1698 54.9415 57.3078 55.8484 56.2386 55.8484H49.6898C48.6207 55.8484 47.7586 54.9416 47.7586 53.9172V47.3684C47.7586 46.2993 48.6206 45.4372 49.6898 45.4372ZM54.3076 49.2826H51.6544V51.9358H54.3076V49.2826ZM33.7482 45.4372H40.297C41.3213 45.4372 42.2282 46.2992 42.2282 47.3684V53.9172C42.2282 54.9415 41.3214 55.8484 40.297 55.8484H33.7482C32.6791 55.8484 31.8171 54.9416 31.8171 53.9172V47.3684C31.8171 46.2993 32.679 45.4372 33.7482 45.4372ZM38.3156 49.2826H35.6624V51.9358H38.3156V49.2826ZM17.7906 45.4372H24.2891C25.3582 45.4372 26.2202 46.2992 26.2202 47.3684V53.9172C26.2202 54.9415 25.3583 55.8484 24.2891 55.8484L17.7906 55.8428C16.7215 55.8428 15.8594 54.936 15.8594 53.9116V47.3628C15.8762 46.2993 16.7214 45.4372 17.7906 45.4372ZM22.3747 49.2826H19.7216V51.9358H22.3747V49.2826ZM49.6889 31.8469H56.2378C57.3068 31.8469 58.1689 32.7089 58.1689 33.7781V40.2766C58.1689 41.3457 57.3069 42.2077 56.2378 42.2077H49.6889C48.6198 42.2077 47.7578 41.3458 47.7578 40.2766V33.7613C47.7578 32.6922 48.6198 31.8469 49.6889 31.8469ZM54.3068 35.6923H51.6536V38.3455H54.3068V35.6923ZM33.7473 31.8469H40.2962C41.3205 31.8469 42.2273 32.7089 42.2273 33.7781V40.2766C42.2273 41.3457 41.3205 42.2077 40.2962 42.2077H33.7473C32.6783 42.2077 31.8162 41.3458 31.8162 40.2766V33.7613C31.8162 32.6922 32.6782 31.8469 33.7473 31.8469ZM38.3147 35.6923H35.6616V38.3455H38.3147V35.6923ZM118.832 55.9494H135.287V43.9711L130.765 46.5347C130.63 46.5795 130.552 46.669 130.418 46.7026L125.156 49.6915C125.111 49.7363 125.022 49.7363 124.988 49.7811L118.837 53.2515L118.832 55.9494ZM135.287 59.8452H118.832V62.4088H135.287V59.8452ZM63.3678 87.1264H74.137C75.2061 87.1264 76.0681 87.9884 76.0681 89.0575V95.5561C76.0681 96.6252 75.2061 97.4872 74.137 97.4872H63.3678C62.2987 97.4872 61.4367 96.6252 61.4367 95.5561V89.0575C61.4367 87.9884 62.2986 87.1264 63.3678 87.1264ZM72.2228 90.9773H65.2989V93.6305H72.2228V90.9773ZM42.2548 87.1264H53.024C54.0931 87.1264 54.9552 87.9884 54.9552 89.0575V95.5561C54.9552 96.6252 54.0932 97.4872 53.024 97.4872H42.2548C41.1857 97.4872 40.3237 96.6252 40.3237 95.5561V89.0575C40.3237 87.9884 41.1801 87.1264 42.2548 87.1264ZM51.093 90.9773H44.1692V93.6305H51.093V90.9773ZM42.2548 101.321H53.024C54.0931 101.321 54.9552 102.183 54.9552 103.252V109.751C54.9552 110.82 54.0932 111.682 53.024 111.682H42.2548C41.1857 111.682 40.3237 110.82 40.3237 109.751V103.252C40.3237 102.183 41.1801 101.321 42.2548 101.321ZM51.093 105.167H44.1692V107.82H51.093V105.167ZM105.572 101.321H116.342C117.411 101.321 118.273 102.183 118.273 103.252V109.751C118.273 110.82 117.411 111.682 116.342 111.682H105.572C104.503 111.682 103.641 110.82 103.641 109.751V103.252C103.641 102.183 104.503 101.321 105.572 101.321ZM114.427 105.167H107.504V107.82H114.427V105.167ZM105.572 87.1263H116.342C117.411 87.1263 118.273 87.9882 118.273 89.0574V95.5559C118.273 96.625 117.411 97.4871 116.342 97.4871H105.572C104.503 97.4871 103.641 96.6251 103.641 95.5559V89.0574C103.641 87.9883 104.503 87.1263 105.572 87.1263ZM114.427 90.9772H107.504V93.6304H114.427V90.9772ZM84.4422 87.1263H95.2114C96.2805 87.1263 97.1425 87.9882 97.1425 89.0574V95.5559C97.1425 96.625 96.2806 97.4871 95.2114 97.4871H84.4422C83.3731 97.4871 82.5111 96.6251 82.5111 95.5559V89.0574C82.5279 87.9883 83.3842 87.1263 84.4422 87.1263ZM93.2972 90.9772H86.3733V93.6304H93.2972V90.9772ZM94.7133 49.5402V43.8086C94.7133 42.7843 95.5753 41.8775 96.6444 41.8775H99.7229C101.43 41.8775 101.984 39.5266 100.4 38.799C99.4207 38.3288 99.0288 37.0918 99.5382 36.1011C99.7957 35.6813 99.93 35.032 99.8405 34.517C99.7509 33.795 100.098 33.0673 100.747 32.6307C101.139 32.418 101.469 32.0262 101.609 31.6064C101.867 30.6717 102.801 30.0672 103.798 30.2351C106.316 30.6549 108.505 28.4831 108.068 25.9643C107.509 22.7514 103.406 21.7719 101.447 24.3802C100.932 25.1023 100.63 26.0538 100.77 27.0334C100.904 27.9681 100.255 28.875 99.3199 29.1323C98.5531 29.3002 97.9486 29.9943 97.8702 30.7611C97.8254 31.4832 97.3105 32.1772 96.5437 32.3899C95.0044 32.9048 94.3552 34.6512 94.9149 35.8603C95.5641 37.2764 94.4951 38.6365 93.1628 38.6365H88.2484C86.7987 38.6365 86.0318 40.3886 87.0897 41.4128C87.392 41.7151 87.767 41.883 88.2484 41.883H90.812C91.8811 41.883 92.7431 42.7897 92.7431 43.8141V49.5458L94.7133 49.5402ZM104.369 53.3856H83.1157V55.0928H104.369V53.3856ZM125.286 45.2247L127.732 43.8534V36.5825C127.732 35.5134 128.594 34.6514 129.663 34.6514H132.949C134.908 34.6514 135.602 31.92 133.766 31.0635C132.742 30.5933 132.35 29.3563 132.904 28.3656C133.929 26.4793 132.557 24.0501 130.341 24.0501C128.079 24.0501 126.87 26.4458 127.643 28.0634C128.292 29.5131 127.223 30.8845 125.891 30.8845H120.596C118.967 30.8845 118.077 32.8883 119.269 34.0974C119.616 34.4445 120.086 34.6571 120.596 34.6571H123.372C124.441 34.6571 125.303 35.5191 125.303 36.5883V45.2249L125.286 45.2247ZM21.608 25.002H52.4385V15.8616H21.608V25.002Z" fill="#663366"/>
</svg>
