<svg width="150" height="150" viewBox="0 0 150 150" fill="none" xmlns="http://www.w3.org/2000/svg">
<path d="M137.357 131.77C138.197 131.77 138.879 131.088 138.879 130.248V119.806C138.879 118.966 138.196 118.283 137.357 118.283H130.129C132.06 116.376 133.256 113.727 133.256 110.811C133.256 105.012 128.537 100.293 122.738 100.293C116.94 100.293 112.221 105.012 112.221 110.811C112.221 113.733 113.416 116.376 115.347 118.283H111.013V114.019C111.013 108.221 106.294 103.502 100.496 103.502H72.2848C70.3598 103.502 68.7032 103.98 67.0756 105.006L62.7006 107.772H23.4017C19.6626 107.772 16.6233 110.811 16.6233 114.55C16.6233 115.927 17.0375 117.21 17.7492 118.283H12.5225C11.6825 118.283 11 118.966 11 119.806V130.248C11 131.088 11.6825 131.77 12.5225 131.77H31.2475V141.955H12.5225C11.6825 141.955 11 142.638 11 143.478C11 144.318 11.6825 145 12.5225 145H137.357C138.197 145 138.879 144.318 138.879 143.478C138.879 142.638 138.197 141.955 137.357 141.955H118.632V131.77H137.357ZM115.265 110.811C115.265 106.693 118.62 103.338 122.738 103.338C126.856 103.338 130.211 106.693 130.211 110.811C130.211 114.929 126.862 118.284 122.744 118.284H122.732C118.614 118.278 115.265 114.929 115.265 110.811ZM19.6676 114.55C19.6676 112.491 21.3418 110.817 23.401 110.817H63.1209C63.2726 110.823 63.4184 110.799 63.5643 110.758C63.7101 110.718 63.8501 110.653 63.9784 110.566L68.7093 107.579C69.8469 106.862 70.9494 106.541 72.291 106.541H100.502C104.62 106.541 107.974 109.895 107.974 114.013V118.278H78.5106C77.0814 118.278 75.9205 117.111 75.9205 115.682C75.9205 114.253 77.0814 113.086 78.5164 113.086H101.378C102.218 113.086 102.9 112.403 102.9 111.563C102.9 110.724 102.218 110.041 101.378 110.041L78.5119 110.047C75.4028 110.047 72.8711 112.579 72.8711 115.688C72.8711 116.627 73.1045 117.502 73.507 118.284L23.3979 118.278C21.3387 118.278 19.6703 116.609 19.6703 114.55L19.6676 114.55ZM14.0443 121.323H23.3952H23.401H78.5084H78.5142H122.731H122.736H122.742H135.832V128.725H14.0427L14.0443 121.323ZM115.586 141.955H34.2911V131.77H115.586V141.955ZM69.5429 54.1806C69.5429 57.1556 71.9638 59.5765 74.9388 59.5765C77.9138 59.5765 80.3347 57.1556 80.3347 54.1806C80.3347 51.2055 77.9138 48.7847 74.9388 48.7847C71.9638 48.7847 69.5429 51.2055 69.5429 54.1806ZM77.2896 54.1806C77.2896 55.4756 76.2338 56.5314 74.9388 56.5314C73.6438 56.5314 72.588 55.4755 72.588 54.1806C72.588 52.8856 73.6438 51.8297 74.9388 51.8297C76.2338 51.8297 77.2896 52.8856 77.2896 54.1806ZM107.664 28.5548C107.664 27.7148 108.347 27.0323 109.187 27.0323C112.162 27.0323 114.583 29.4532 114.583 32.4282C114.583 33.2682 113.9 33.9507 113.06 33.9507C112.22 33.9507 111.538 33.2682 111.538 32.4282C111.538 31.1332 110.482 30.0774 109.187 30.0774C108.341 30.0774 107.664 29.3948 107.664 28.5548ZM127.947 49.4855C130.922 49.4855 133.343 51.9063 133.343 54.8814C133.343 55.7214 132.66 56.4039 131.82 56.4039C130.98 56.4039 130.298 55.7213 130.298 54.8814C130.298 53.5864 129.242 52.5306 127.947 52.5306C127.107 52.5306 126.425 51.8481 126.425 51.0081C126.425 50.1681 127.107 49.4855 127.947 49.4855ZM107.634 74.1839C107.634 75.0239 106.952 75.7064 106.112 75.7064C105.272 75.7064 104.589 75.0239 104.589 74.1839C104.589 72.8889 103.534 71.8331 102.239 71.8331C101.399 71.8331 100.716 71.1506 100.716 70.3106C100.716 69.4706 101.399 68.7881 102.239 68.7881C105.214 68.7881 107.634 71.2089 107.634 74.1839ZM21.9299 64.5355C22.7932 64.5355 23.6274 64.4189 24.4266 64.203L37.9833 74.3823C38.0883 79.6148 42.3759 83.8323 47.6317 83.8323C50.2334 83.8323 52.5959 82.794 54.3343 81.114L61.2235 86.2881V93.7548C61.2235 94.5948 61.906 95.2773 62.746 95.2773C63.5859 95.2773 64.2684 94.5948 64.2684 93.7548V85.5298C64.2684 85.0339 64.0234 84.5964 63.6559 84.3164L63.6617 84.3106L56.1659 78.6814C56.8776 77.3339 57.2859 75.7997 57.2859 74.1781C57.2859 68.8523 52.9576 64.524 47.6318 64.524C46.7684 64.524 45.9343 64.6406 45.135 64.8565L31.5783 54.6772C31.5667 54.0589 31.4967 53.4522 31.3742 52.8689L40.3926 42.0713C40.4918 42.0772 40.5909 42.0772 40.6901 42.0772C46.016 42.0772 50.3443 37.7489 50.3443 32.423C50.3443 29.868 49.3468 27.5405 47.7193 25.8138H65.7379V38.3731C65.7379 41.5464 67.3537 44.3523 69.8097 46.009C67.0914 47.7181 65.2831 50.7399 65.2831 54.1816C65.2831 56.8766 66.3914 59.315 68.1822 61.0708L69.5006 73.6067C69.5822 74.3826 70.2356 74.9717 71.0114 74.9717H73.4148V90.6757C73.4148 91.5157 74.0973 92.1982 74.9373 92.1982C75.7772 92.1982 76.4597 91.5157 76.4597 90.6757V74.9658H78.8631C79.6448 74.9658 80.2981 74.3766 80.3739 73.6007L81.6923 61.0649C83.4772 59.309 84.5914 56.8707 84.5914 54.1756C84.5914 50.7339 82.7831 47.7123 80.0648 46.003C82.5206 44.3521 84.1366 41.5463 84.1366 38.3671V25.8078H102.155C100.528 27.5344 99.5302 29.8619 99.5302 32.417C99.5302 37.7429 103.859 42.0712 109.184 42.0712C109.284 42.0712 109.383 42.0654 109.482 42.0654L118.5 52.863C118.378 53.4463 118.308 54.053 118.296 54.6713L104.739 64.8505C103.94 64.6347 103.106 64.518 102.243 64.518C96.9169 64.518 92.5886 68.8463 92.5886 74.1721C92.5886 75.7996 92.9969 77.3339 93.7086 78.6755L86.2128 84.3046L86.2186 84.3105C85.8511 84.5905 85.6061 85.028 85.6061 85.5238V93.7488C85.6061 94.5888 86.2886 95.2713 87.1285 95.2713C87.9685 95.2713 88.651 94.5888 88.651 93.7488L88.6452 86.2938L95.5344 81.1196C97.2728 82.7996 99.6353 83.838 102.237 83.838C107.493 83.838 111.775 79.6146 111.885 74.3879L125.442 64.2087C126.241 64.4245 127.075 64.5412 127.939 64.5412C133.265 64.5412 137.593 60.2129 137.593 54.8871C137.593 49.567 133.265 45.2329 127.939 45.2329C127.84 45.2329 127.74 45.2387 127.641 45.2387L118.623 34.4411C118.763 33.7936 118.833 33.1169 118.833 32.4285C118.833 29.8736 117.835 27.546 116.208 25.8193H120.39C126.13 25.8193 130.803 21.1468 130.803 15.4125L130.797 6.52246C130.797 5.68246 130.115 5 129.275 5H20.5996C19.7596 5 19.0772 5.6825 19.0772 6.52246V15.4067C19.0772 21.1468 23.7497 25.8135 29.484 25.8135H33.6665C32.0391 27.5401 31.0415 29.8676 31.0415 32.4227C31.0415 33.111 31.1174 33.7877 31.2515 34.4353L22.2331 45.2329C22.1339 45.2271 22.0348 45.2271 21.9356 45.2271C16.6097 45.2271 12.2814 49.5554 12.2814 54.8812C12.2814 60.2013 16.6099 64.5355 21.9299 64.5355ZM54.2473 74.1839C54.2473 77.8297 51.284 80.7931 47.6381 80.7931C43.9923 80.7931 41.0289 77.8297 41.0289 74.1839C41.0289 70.538 43.9923 67.5747 47.6381 67.5747C51.284 67.5747 54.2473 70.538 54.2473 74.1839ZM38.5329 70.9872L27.5428 62.7331C29.1411 61.5898 30.3778 59.968 31.0429 58.078L42.033 66.3322C40.4347 67.4755 39.198 69.0973 38.5329 70.9872ZM77.4942 71.9206H72.3841L71.4683 63.1821C72.5475 63.5963 73.7141 63.8296 74.9391 63.8296C76.1641 63.8296 77.3309 63.5963 78.41 63.1821L77.4942 71.9206ZM81.5483 54.1812C81.5483 57.827 78.585 60.7904 74.9391 60.7904C71.2933 60.7904 68.3299 57.827 68.3299 54.1812C68.3299 50.5353 71.2933 47.5719 74.9391 47.5719H74.9449H74.9508C78.585 47.5719 81.5483 50.5353 81.5483 54.1812ZM81.0933 38.3726C81.0933 41.7676 78.3341 44.5268 74.9391 44.5268C71.5442 44.5268 68.7849 41.7676 68.7849 38.3726V25.8133H81.0933V38.3726ZM102.245 80.7925C98.5992 80.7925 95.6358 77.8291 95.6358 74.1833C95.6358 70.5374 98.5992 67.5741 102.245 67.5741C105.891 67.5741 108.854 70.5374 108.854 74.1833C108.848 77.8291 105.885 80.7925 102.245 80.7925ZM111.345 70.9866C110.68 69.0967 109.444 67.4807 107.845 66.3316L118.835 58.0774C119.5 59.9674 120.737 61.5834 122.335 62.7325L111.345 70.9866ZM134.556 54.8809C134.556 58.5268 131.593 61.4902 127.947 61.4902C124.301 61.4902 121.338 58.5268 121.338 54.8809C121.338 51.2351 124.301 48.2717 127.947 48.2717C131.587 48.2717 134.556 51.2351 134.556 54.8809ZM124.278 45.9558C122.434 46.7142 120.877 48.0325 119.809 49.695L112.844 41.3592C114.688 40.6008 116.245 39.2825 117.313 37.62L124.278 45.9558ZM115.79 32.4282C115.79 36.0741 112.827 39.0375 109.181 39.0375C105.535 39.0375 102.572 36.0741 102.572 32.4282C102.572 28.7824 105.535 25.819 109.181 25.819C112.827 25.819 115.79 28.7824 115.79 32.4282ZM22.1233 15.4116V8.04402H127.759V15.4116C127.759 19.4717 124.458 22.7791 120.392 22.7791L29.4906 22.7733C25.4246 22.7733 22.1233 19.4717 22.1233 15.4116ZM47.3056 32.4282C47.3056 36.0741 44.3422 39.0375 40.6963 39.0375C37.0505 39.0375 34.0871 36.0741 34.0871 32.4282C34.0871 28.7824 37.0505 25.819 40.6963 25.819C44.3363 25.819 47.3056 28.7824 47.3056 32.4282ZM32.5646 37.62C33.6263 39.2825 35.1838 40.595 37.033 41.3592L30.0679 49.695C29.0062 48.0325 27.4487 46.72 25.5995 45.9558L32.5646 37.62ZM21.9304 48.2717C25.5762 48.2717 28.5396 51.2351 28.5396 54.8809C28.5396 58.5268 25.5762 61.4902 21.9304 61.4902C18.2845 61.4902 15.3211 58.5268 15.3211 54.8809C15.3211 51.2351 18.2904 48.2717 21.9304 48.2717ZM35.3004 32.4288C35.3004 29.4538 37.7213 27.0329 40.6963 27.0329C41.5363 27.0329 42.2188 27.7154 42.2188 28.5554C42.2188 29.3953 41.5363 30.0779 40.6963 30.0779C39.4013 30.0779 38.3455 31.1337 38.3455 32.4287C38.3455 33.2687 37.663 33.9511 36.823 33.9511C35.9831 33.9511 35.3004 33.2688 35.3004 32.4288ZM18.0568 56.4044C17.2168 56.4044 16.5343 55.7219 16.5343 54.882C16.5343 51.9069 18.9552 49.4861 21.9302 49.4861C22.7702 49.4861 23.4527 50.1686 23.4527 51.0086C23.4527 51.8485 22.7702 52.531 21.9302 52.531C20.6352 52.531 19.5794 53.5869 19.5794 54.8818C19.5794 55.7218 18.8968 56.4044 18.0568 56.4044ZM42.2415 74.1842C42.2415 71.2092 44.6623 68.7883 47.6374 68.7883C48.4774 68.7883 49.1598 69.4708 49.1598 70.3108C49.1598 71.1507 48.4773 71.8332 47.6374 71.8332C46.3424 71.8332 45.2866 72.8891 45.2866 74.184C45.2866 75.024 44.6041 75.7065 43.7641 75.7065C42.9183 75.7065 42.2415 75.0242 42.2415 74.1842ZM46.9257 12.3792C46.9257 11.5392 47.6082 10.8567 48.4481 10.8567H101.427C102.267 10.8567 102.95 11.5392 102.95 12.3792C102.95 13.2192 102.267 13.9017 101.427 13.9017H48.4481C47.6081 13.9017 46.9257 13.2192 46.9257 12.3792Z" fill="#663366"/>
</svg>
