<svg width="150" height="150" viewBox="0 0 150 150" fill="none" xmlns="http://www.w3.org/2000/svg">
<mask id="path-1-outside-1_663_4055" maskUnits="userSpaceOnUse" x="4" y="13" width="142" height="125" fill="black">
<rect fill="white" x="4" y="13" width="142" height="125"/>
<path d="M141.653 103.761C138.669 101.723 133.909 101.402 127.139 102.757L93.574 109.283C91.1728 104.397 84.504 100.581 77.3235 100.581H71.4214C65.6858 100.581 63.4034 99.1371 59.5994 96.7477C58.6841 96.1712 57.638 95.5174 56.4671 94.828C47.5634 89.657 40.7644 90.0493 30.4632 90.6258C28.9892 90.7031 27.4497 90.7922 25.839 90.8695V89.7461C25.839 87.3865 23.9192 85.4548 21.5477 85.4548H9.29178C6.92024 85.4726 5.00046 87.4043 5.00046 89.7639V125.218C5.00046 127.578 6.92024 129.51 9.29178 129.51H21.5417C23.9014 129.51 25.8331 127.59 25.8331 125.218V124.957C27.2952 125.171 28.7216 125.385 30.2908 125.765C34.0175 126.645 38.4634 129.129 42.7666 131.501C44.8232 132.642 46.951 133.831 48.9599 134.806C51.8485 136.22 54.5767 136.844 57.7863 136.844L79.4035 136.838C82.3693 136.838 84.7765 136.137 86.9222 135.376L140.088 116.6C143.666 115.34 145.491 112.368 144.867 108.855C144.468 106.65 143.387 104.932 141.651 103.761L141.653 103.761ZM22.9696 125.213C22.9696 126.003 22.3277 126.645 21.5372 126.645H9.29313C8.50262 126.645 7.8607 126.003 7.8607 125.213V89.7581C7.8607 88.9676 8.50262 88.3257 9.29313 88.3257H21.5431C22.3336 88.3257 22.9755 88.9676 22.9755 89.7581L22.9696 125.213ZM139.127 113.925L85.9662 132.702C83.7611 133.48 81.8115 133.998 79.4103 133.998L57.7871 133.992C55.0351 133.992 52.6873 133.457 50.2266 132.244C48.2772 131.299 46.286 130.176 44.1581 129.005C39.6825 126.526 35.0583 123.953 30.9512 122.978C29.1265 122.538 27.498 122.295 25.8396 122.063L25.8337 93.7476C27.5098 93.6703 29.1026 93.5811 30.6242 93.5039C40.7583 92.9273 46.8747 92.5766 55.0289 97.3256C56.1523 97.9794 57.127 98.5857 58.0721 99.1801C62.0127 101.659 64.8597 103.454 71.4156 103.454H77.3177C85.3951 103.454 91.6657 108.69 91.6657 113.189C91.6657 115.258 89.9777 116.946 87.9093 116.946L64.9075 116.952C64.117 116.952 63.475 117.594 63.475 118.384C63.475 119.175 64.117 119.817 64.9075 119.817H87.9153C91.5647 119.817 94.5187 116.851 94.5187 113.213C94.5187 112.833 94.489 112.435 94.4415 112.054L127.691 105.588C133.593 104.399 137.748 104.601 140.048 106.152C141.142 106.895 141.795 107.965 142.057 109.409C142.568 112.25 140.441 113.45 139.127 113.925ZM89.3609 90.8111C93.0875 90.8111 96.8142 89.3965 99.6612 86.5494C104.606 81.6043 104.684 74.1925 99.8752 66.2226L92.0711 53.3069C91.4946 52.35 90.4723 51.7853 89.3609 51.7853C88.2375 51.7853 87.2331 52.3619 86.6507 53.3069L78.8466 66.2226C74.0203 74.1931 74.1154 81.6043 79.0606 86.5494C81.9017 89.3964 85.6283 90.8111 89.3609 90.8111ZM81.2952 67.7013L89.0993 54.7856C89.1587 54.6786 89.236 54.6311 89.3608 54.6311C89.4797 54.6311 89.557 54.6786 89.6224 54.7856L97.4264 67.7013C99.3581 70.899 103.239 78.9289 97.6404 84.5284C95.4353 86.7335 92.4991 87.9342 89.3608 87.9342C86.2285 87.9342 83.2745 86.7158 81.0813 84.5284C75.4823 78.9295 79.3636 70.8937 81.2952 67.7013ZM140.696 14H88.6004C82.1633 14 76.9151 19.2364 76.9151 25.6853V33.0793C76.9151 35.439 78.8349 37.3706 81.2064 37.3706H82.9122V39.3796C82.9122 41.4361 84.5884 43.0944 86.627 43.0944H92.1072C94.1637 43.0944 95.822 41.4182 95.822 39.3796V37.3706H140.709C143.068 37.3706 145 35.4508 145 33.0793V18.2913C144.988 15.9198 143.068 14 140.696 14ZM92.9628 39.3678C92.9628 39.8374 92.5824 40.2178 92.1128 40.2178H86.6327C86.1631 40.2178 85.7827 39.8374 85.7827 39.3678V37.3589H92.9806V39.3678H92.9628ZM142.128 33.0854C142.128 33.8759 141.486 34.5178 140.696 34.5178H81.1988C80.4083 34.5178 79.7663 33.8759 79.7663 33.0854V25.6914C79.7663 20.8235 83.7249 16.865 88.5927 16.865H140.689C141.479 16.865 142.121 17.5069 142.121 18.2974L142.128 33.0854ZM32.7993 74.9883C48.1217 74.9883 60.5987 62.5125 60.5987 47.1889C60.5987 31.8666 48.1229 19.3896 32.7993 19.3896C17.477 19.3896 5 31.8654 5 47.1889C5 62.5113 17.4758 74.9883 32.7993 74.9883ZM32.7993 22.2502C46.5531 22.2502 57.7396 33.4363 57.7396 47.1905C57.7396 60.9442 46.5535 72.1307 32.7993 72.1307C19.0456 72.1307 7.85906 60.9447 7.85906 47.1905C7.85906 33.4308 19.0451 22.2502 32.7993 22.2502ZM21.6609 54.3099H25.6788V58.3278C25.6788 60.7767 27.6699 62.7738 30.1247 62.7738H35.4977C37.9465 62.7738 39.9436 60.7826 39.9436 58.3278V54.3099H43.9615C46.4104 54.3099 48.4074 52.3188 48.4074 49.864V44.491C48.4074 42.0422 46.4163 40.0451 43.9615 40.0451H39.9436V36.0272C39.9436 33.5784 37.9525 31.5813 35.4977 31.5813L30.1067 31.5932C27.6579 31.5932 25.6608 33.5843 25.6608 36.0391V40.057H21.6429C19.1941 40.057 17.197 42.0481 17.197 44.5029V49.8759C17.2208 52.3129 19.212 54.3099 21.6609 54.3099ZM20.0798 44.5088C20.0798 43.641 20.793 42.9277 21.6609 42.9277H27.1053C27.8958 42.9277 28.5377 42.2858 28.5377 41.4953V36.0509C28.5377 35.1832 29.2509 34.4698 30.1188 34.4698H35.4918C36.3596 34.4698 37.0729 35.1831 37.0729 36.0509V41.4953C37.0729 42.2858 37.7148 42.9277 38.5053 42.9277H43.9497C44.8175 42.9277 45.5308 43.641 45.5308 44.5088V49.8818C45.5308 50.7496 44.8175 51.4629 43.9497 51.4629H38.5053C37.7148 51.4629 37.0729 52.1048 37.0729 52.8953V58.3397C37.0729 59.2075 36.3596 59.9208 35.4918 59.9208H30.1068C29.239 59.9208 28.5257 59.2076 28.5257 58.3397V52.8953C28.5257 52.1048 27.8838 51.4629 27.0932 51.4629H21.6489C20.7811 51.4629 20.0678 50.7497 20.0678 49.8818L20.0618 44.5088H20.0798Z"/>
</mask>
<path d="M141.653 103.761C138.669 101.723 133.909 101.402 127.139 102.757L93.574 109.283C91.1728 104.397 84.504 100.581 77.3235 100.581H71.4214C65.6858 100.581 63.4034 99.1371 59.5994 96.7477C58.6841 96.1712 57.638 95.5174 56.4671 94.828C47.5634 89.657 40.7644 90.0493 30.4632 90.6258C28.9892 90.7031 27.4497 90.7922 25.839 90.8695V89.7461C25.839 87.3865 23.9192 85.4548 21.5477 85.4548H9.29178C6.92024 85.4726 5.00046 87.4043 5.00046 89.7639V125.218C5.00046 127.578 6.92024 129.51 9.29178 129.51H21.5417C23.9014 129.51 25.8331 127.59 25.8331 125.218V124.957C27.2952 125.171 28.7216 125.385 30.2908 125.765C34.0175 126.645 38.4634 129.129 42.7666 131.501C44.8232 132.642 46.951 133.831 48.9599 134.806C51.8485 136.22 54.5767 136.844 57.7863 136.844L79.4035 136.838C82.3693 136.838 84.7765 136.137 86.9222 135.376L140.088 116.6C143.666 115.34 145.491 112.368 144.867 108.855C144.468 106.65 143.387 104.932 141.651 103.761L141.653 103.761ZM22.9696 125.213C22.9696 126.003 22.3277 126.645 21.5372 126.645H9.29313C8.50262 126.645 7.8607 126.003 7.8607 125.213V89.7581C7.8607 88.9676 8.50262 88.3257 9.29313 88.3257H21.5431C22.3336 88.3257 22.9755 88.9676 22.9755 89.7581L22.9696 125.213ZM139.127 113.925L85.9662 132.702C83.7611 133.48 81.8115 133.998 79.4103 133.998L57.7871 133.992C55.0351 133.992 52.6873 133.457 50.2266 132.244C48.2772 131.299 46.286 130.176 44.1581 129.005C39.6825 126.526 35.0583 123.953 30.9512 122.978C29.1265 122.538 27.498 122.295 25.8396 122.063L25.8337 93.7476C27.5098 93.6703 29.1026 93.5811 30.6242 93.5039C40.7583 92.9273 46.8747 92.5766 55.0289 97.3256C56.1523 97.9794 57.127 98.5857 58.0721 99.1801C62.0127 101.659 64.8597 103.454 71.4156 103.454H77.3177C85.3951 103.454 91.6657 108.69 91.6657 113.189C91.6657 115.258 89.9777 116.946 87.9093 116.946L64.9075 116.952C64.117 116.952 63.475 117.594 63.475 118.384C63.475 119.175 64.117 119.817 64.9075 119.817H87.9153C91.5647 119.817 94.5187 116.851 94.5187 113.213C94.5187 112.833 94.489 112.435 94.4415 112.054L127.691 105.588C133.593 104.399 137.748 104.601 140.048 106.152C141.142 106.895 141.795 107.965 142.057 109.409C142.568 112.25 140.441 113.45 139.127 113.925ZM89.3609 90.8111C93.0875 90.8111 96.8142 89.3965 99.6612 86.5494C104.606 81.6043 104.684 74.1925 99.8752 66.2226L92.0711 53.3069C91.4946 52.35 90.4723 51.7853 89.3609 51.7853C88.2375 51.7853 87.2331 52.3619 86.6507 53.3069L78.8466 66.2226C74.0203 74.1931 74.1154 81.6043 79.0606 86.5494C81.9017 89.3964 85.6283 90.8111 89.3609 90.8111ZM81.2952 67.7013L89.0993 54.7856C89.1587 54.6786 89.236 54.6311 89.3608 54.6311C89.4797 54.6311 89.557 54.6786 89.6224 54.7856L97.4264 67.7013C99.3581 70.899 103.239 78.9289 97.6404 84.5284C95.4353 86.7335 92.4991 87.9342 89.3608 87.9342C86.2285 87.9342 83.2745 86.7158 81.0813 84.5284C75.4823 78.9295 79.3636 70.8937 81.2952 67.7013ZM140.696 14H88.6004C82.1633 14 76.9151 19.2364 76.9151 25.6853V33.0793C76.9151 35.439 78.8349 37.3706 81.2064 37.3706H82.9122V39.3796C82.9122 41.4361 84.5884 43.0944 86.627 43.0944H92.1072C94.1637 43.0944 95.822 41.4182 95.822 39.3796V37.3706H140.709C143.068 37.3706 145 35.4508 145 33.0793V18.2913C144.988 15.9198 143.068 14 140.696 14ZM92.9628 39.3678C92.9628 39.8374 92.5824 40.2178 92.1128 40.2178H86.6327C86.1631 40.2178 85.7827 39.8374 85.7827 39.3678V37.3589H92.9806V39.3678H92.9628ZM142.128 33.0854C142.128 33.8759 141.486 34.5178 140.696 34.5178H81.1988C80.4083 34.5178 79.7663 33.8759 79.7663 33.0854V25.6914C79.7663 20.8235 83.7249 16.865 88.5927 16.865H140.689C141.479 16.865 142.121 17.5069 142.121 18.2974L142.128 33.0854ZM32.7993 74.9883C48.1217 74.9883 60.5987 62.5125 60.5987 47.1889C60.5987 31.8666 48.1229 19.3896 32.7993 19.3896C17.477 19.3896 5 31.8654 5 47.1889C5 62.5113 17.4758 74.9883 32.7993 74.9883ZM32.7993 22.2502C46.5531 22.2502 57.7396 33.4363 57.7396 47.1905C57.7396 60.9442 46.5535 72.1307 32.7993 72.1307C19.0456 72.1307 7.85906 60.9447 7.85906 47.1905C7.85906 33.4308 19.0451 22.2502 32.7993 22.2502ZM21.6609 54.3099H25.6788V58.3278C25.6788 60.7767 27.6699 62.7738 30.1247 62.7738H35.4977C37.9465 62.7738 39.9436 60.7826 39.9436 58.3278V54.3099H43.9615C46.4104 54.3099 48.4074 52.3188 48.4074 49.864V44.491C48.4074 42.0422 46.4163 40.0451 43.9615 40.0451H39.9436V36.0272C39.9436 33.5784 37.9525 31.5813 35.4977 31.5813L30.1067 31.5932C27.6579 31.5932 25.6608 33.5843 25.6608 36.0391V40.057H21.6429C19.1941 40.057 17.197 42.0481 17.197 44.5029V49.8759C17.2208 52.3129 19.212 54.3099 21.6609 54.3099ZM20.0798 44.5088C20.0798 43.641 20.793 42.9277 21.6609 42.9277H27.1053C27.8958 42.9277 28.5377 42.2858 28.5377 41.4953V36.0509C28.5377 35.1832 29.2509 34.4698 30.1188 34.4698H35.4918C36.3596 34.4698 37.0729 35.1831 37.0729 36.0509V41.4953C37.0729 42.2858 37.7148 42.9277 38.5053 42.9277H43.9497C44.8175 42.9277 45.5308 43.641 45.5308 44.5088V49.8818C45.5308 50.7496 44.8175 51.4629 43.9497 51.4629H38.5053C37.7148 51.4629 37.0729 52.1048 37.0729 52.8953V58.3397C37.0729 59.2075 36.3596 59.9208 35.4918 59.9208H30.1068C29.239 59.9208 28.5257 59.2076 28.5257 58.3397V52.8953C28.5257 52.1048 27.8838 51.4629 27.0932 51.4629H21.6489C20.7811 51.4629 20.0678 50.7497 20.0678 49.8818L20.0618 44.5088H20.0798Z" fill="#663366"/>
<path d="M141.653 103.761C138.669 101.723 133.909 101.402 127.139 102.757L93.574 109.283C91.1728 104.397 84.504 100.581 77.3235 100.581H71.4214C65.6858 100.581 63.4034 99.1371 59.5994 96.7477C58.6841 96.1712 57.638 95.5174 56.4671 94.828C47.5634 89.657 40.7644 90.0493 30.4632 90.6258C28.9892 90.7031 27.4497 90.7922 25.839 90.8695V89.7461C25.839 87.3865 23.9192 85.4548 21.5477 85.4548H9.29178C6.92024 85.4726 5.00046 87.4043 5.00046 89.7639V125.218C5.00046 127.578 6.92024 129.51 9.29178 129.51H21.5417C23.9014 129.51 25.8331 127.59 25.8331 125.218V124.957C27.2952 125.171 28.7216 125.385 30.2908 125.765C34.0175 126.645 38.4634 129.129 42.7666 131.501C44.8232 132.642 46.951 133.831 48.9599 134.806C51.8485 136.22 54.5767 136.844 57.7863 136.844L79.4035 136.838C82.3693 136.838 84.7765 136.137 86.9222 135.376L140.088 116.6C143.666 115.34 145.491 112.368 144.867 108.855C144.468 106.65 143.387 104.932 141.651 103.761L141.653 103.761ZM22.9696 125.213C22.9696 126.003 22.3277 126.645 21.5372 126.645H9.29313C8.50262 126.645 7.8607 126.003 7.8607 125.213V89.7581C7.8607 88.9676 8.50262 88.3257 9.29313 88.3257H21.5431C22.3336 88.3257 22.9755 88.9676 22.9755 89.7581L22.9696 125.213ZM139.127 113.925L85.9662 132.702C83.7611 133.48 81.8115 133.998 79.4103 133.998L57.7871 133.992C55.0351 133.992 52.6873 133.457 50.2266 132.244C48.2772 131.299 46.286 130.176 44.1581 129.005C39.6825 126.526 35.0583 123.953 30.9512 122.978C29.1265 122.538 27.498 122.295 25.8396 122.063L25.8337 93.7476C27.5098 93.6703 29.1026 93.5811 30.6242 93.5039C40.7583 92.9273 46.8747 92.5766 55.0289 97.3256C56.1523 97.9794 57.127 98.5857 58.0721 99.1801C62.0127 101.659 64.8597 103.454 71.4156 103.454H77.3177C85.3951 103.454 91.6657 108.69 91.6657 113.189C91.6657 115.258 89.9777 116.946 87.9093 116.946L64.9075 116.952C64.117 116.952 63.475 117.594 63.475 118.384C63.475 119.175 64.117 119.817 64.9075 119.817H87.9153C91.5647 119.817 94.5187 116.851 94.5187 113.213C94.5187 112.833 94.489 112.435 94.4415 112.054L127.691 105.588C133.593 104.399 137.748 104.601 140.048 106.152C141.142 106.895 141.795 107.965 142.057 109.409C142.568 112.25 140.441 113.45 139.127 113.925ZM89.3609 90.8111C93.0875 90.8111 96.8142 89.3965 99.6612 86.5494C104.606 81.6043 104.684 74.1925 99.8752 66.2226L92.0711 53.3069C91.4946 52.35 90.4723 51.7853 89.3609 51.7853C88.2375 51.7853 87.2331 52.3619 86.6507 53.3069L78.8466 66.2226C74.0203 74.1931 74.1154 81.6043 79.0606 86.5494C81.9017 89.3964 85.6283 90.8111 89.3609 90.8111ZM81.2952 67.7013L89.0993 54.7856C89.1587 54.6786 89.236 54.6311 89.3608 54.6311C89.4797 54.6311 89.557 54.6786 89.6224 54.7856L97.4264 67.7013C99.3581 70.899 103.239 78.9289 97.6404 84.5284C95.4353 86.7335 92.4991 87.9342 89.3608 87.9342C86.2285 87.9342 83.2745 86.7158 81.0813 84.5284C75.4823 78.9295 79.3636 70.8937 81.2952 67.7013ZM140.696 14H88.6004C82.1633 14 76.9151 19.2364 76.9151 25.6853V33.0793C76.9151 35.439 78.8349 37.3706 81.2064 37.3706H82.9122V39.3796C82.9122 41.4361 84.5884 43.0944 86.627 43.0944H92.1072C94.1637 43.0944 95.822 41.4182 95.822 39.3796V37.3706H140.709C143.068 37.3706 145 35.4508 145 33.0793V18.2913C144.988 15.9198 143.068 14 140.696 14ZM92.9628 39.3678C92.9628 39.8374 92.5824 40.2178 92.1128 40.2178H86.6327C86.1631 40.2178 85.7827 39.8374 85.7827 39.3678V37.3589H92.9806V39.3678H92.9628ZM142.128 33.0854C142.128 33.8759 141.486 34.5178 140.696 34.5178H81.1988C80.4083 34.5178 79.7663 33.8759 79.7663 33.0854V25.6914C79.7663 20.8235 83.7249 16.865 88.5927 16.865H140.689C141.479 16.865 142.121 17.5069 142.121 18.2974L142.128 33.0854ZM32.7993 74.9883C48.1217 74.9883 60.5987 62.5125 60.5987 47.1889C60.5987 31.8666 48.1229 19.3896 32.7993 19.3896C17.477 19.3896 5 31.8654 5 47.1889C5 62.5113 17.4758 74.9883 32.7993 74.9883ZM32.7993 22.2502C46.5531 22.2502 57.7396 33.4363 57.7396 47.1905C57.7396 60.9442 46.5535 72.1307 32.7993 72.1307C19.0456 72.1307 7.85906 60.9447 7.85906 47.1905C7.85906 33.4308 19.0451 22.2502 32.7993 22.2502ZM21.6609 54.3099H25.6788V58.3278C25.6788 60.7767 27.6699 62.7738 30.1247 62.7738H35.4977C37.9465 62.7738 39.9436 60.7826 39.9436 58.3278V54.3099H43.9615C46.4104 54.3099 48.4074 52.3188 48.4074 49.864V44.491C48.4074 42.0422 46.4163 40.0451 43.9615 40.0451H39.9436V36.0272C39.9436 33.5784 37.9525 31.5813 35.4977 31.5813L30.1067 31.5932C27.6579 31.5932 25.6608 33.5843 25.6608 36.0391V40.057H21.6429C19.1941 40.057 17.197 42.0481 17.197 44.5029V49.8759C17.2208 52.3129 19.212 54.3099 21.6609 54.3099ZM20.0798 44.5088C20.0798 43.641 20.793 42.9277 21.6609 42.9277H27.1053C27.8958 42.9277 28.5377 42.2858 28.5377 41.4953V36.0509C28.5377 35.1832 29.2509 34.4698 30.1188 34.4698H35.4918C36.3596 34.4698 37.0729 35.1831 37.0729 36.0509V41.4953C37.0729 42.2858 37.7148 42.9277 38.5053 42.9277H43.9497C44.8175 42.9277 45.5308 43.641 45.5308 44.5088V49.8818C45.5308 50.7496 44.8175 51.4629 43.9497 51.4629H38.5053C37.7148 51.4629 37.0729 52.1048 37.0729 52.8953V58.3397C37.0729 59.2075 36.3596 59.9208 35.4918 59.9208H30.1068C29.239 59.9208 28.5257 59.2076 28.5257 58.3397V52.8953C28.5257 52.1048 27.8838 51.4629 27.0932 51.4629H21.6489C20.7811 51.4629 20.0678 50.7497 20.0678 49.8818L20.0618 44.5088H20.0798Z" stroke="#663366" stroke-width="0.8" mask="url(#path-1-outside-1_663_4055)"/>
</svg>
