<svg width="150" height="150" viewBox="0 0 150 150" fill="none" xmlns="http://www.w3.org/2000/svg">
<mask id="mask0_665_4097" style="mask-type:luminance" maskUnits="userSpaceOnUse" x="5" y="5" width="140" height="140">
<path d="M5 5H145V145H5V5Z" fill="white"/>
</mask>
<g mask="url(#mask0_665_4097)">
<path d="M29.7535 125.85L33.3344 129.431C35.9777 132.075 40.3027 132.075 42.9457 129.431L48.4878 123.89C51.8516 125.734 55.4325 127.246 59.1685 128.377V136.152C59.1685 139.888 62.2302 142.949 65.9662 142.949H84.0262C87.7698 142.949 90.8236 139.888 90.8236 136.152V128.664C94.6837 127.571 98.3732 126.075 101.846 124.231L107.047 129.431C109.69 132.075 114.015 132.075 116.658 129.431L129.432 116.658C132.075 114.015 132.075 109.689 129.432 107.046L124.51 102.124C126.509 98.5823 128.137 94.7922 129.339 90.8236H136.152C139.888 90.8236 142.949 87.7698 142.949 84.0259V65.9662C142.949 62.2302 139.888 59.1685 136.152 59.1685H129.625C128.463 55.076 126.858 51.1773 124.851 47.5266L129.432 42.9457C132.075 40.3024 132.075 35.9775 129.432 33.3344L116.658 20.5608C114.015 17.9175 109.69 17.9175 107.047 20.5608L102.474 25.1414C98.815 23.1418 94.9164 21.5296 90.8236 20.3746V13.8405C90.8236 10.1045 87.7698 7.05078 84.0262 7.05078H65.9662C62.2302 7.05078 59.1685 10.1045 59.1685 13.8405V20.6538C55.2001 21.8552 51.4177 23.4827 47.8676 25.4827L42.9457 20.5608C40.3027 17.9175 35.9777 17.9175 33.3344 20.5608L20.5608 33.3344C17.9177 35.9775 17.9177 40.3024 20.5608 42.9457L25.7695 48.1542C23.9249 51.6268 22.4289 55.3084 21.336 59.1685H13.8408C10.1048 59.1685 7.05078 62.2302 7.05078 65.9662V84.0259C7.05078 87.7698 10.1048 90.8236 13.8408 90.8236H21.6149C22.7466 94.5675 24.2579 98.1405 26.1028 101.512L20.5608 107.046C17.9177 109.689 17.9177 114.015 20.5608 116.658L22.9482 119.037" stroke="#663366" stroke-width="4.13383" stroke-miterlimit="10" stroke-linecap="round" stroke-linejoin="round"/>
<path d="M80.2498 33.3429C101.108 35.7691 117.292 53.4955 117.292 74.9967C117.292 98.1568 98.519 116.93 75.3588 116.93C52.1989 116.93 33.4258 98.1568 33.4258 74.9967C33.4258 53.3869 49.7727 35.5984 70.7702 33.312" stroke="#663366" stroke-width="4.13383" stroke-miterlimit="10" stroke-linecap="round" stroke-linejoin="round"/>
<path d="M75.3594 98.5664V80.677" stroke="#663366" stroke-width="4.13383" stroke-miterlimit="10" stroke-linecap="round" stroke-linejoin="round"/>
<path d="M75.3604 80.6758C79.6312 80.6758 83.1115 77.1878 83.1115 72.917C83.1115 68.6462 79.6312 65.1661 75.3604 65.1661C71.0895 65.1661 67.6016 68.6462 67.6016 72.917C67.6016 77.1878 71.0895 80.6758 75.3604 80.6758Z" stroke="#663366" stroke-width="4.13383" stroke-miterlimit="10" stroke-linecap="round" stroke-linejoin="round"/>
<path d="M60.3851 86.9531C57.3467 83.5116 55.4941 78.9928 55.4941 74.0477C55.4941 69.0946 57.3467 64.5761 60.3851 61.1423M89.5521 61.1423C92.5903 64.5761 94.4431 69.0946 94.4431 74.0477C94.4431 78.9928 92.5903 83.5116 89.5521 86.9531" stroke="#663366" stroke-width="4.13383" stroke-miterlimit="10" stroke-linecap="round" stroke-linejoin="round"/>
<path d="M53.0216 93.4727C48.4407 88.2948 45.6582 81.4975 45.6582 74.0485C45.6582 66.5921 48.4407 59.7945 53.0216 54.6246M96.9154 54.6246C101.496 59.7945 104.279 66.5921 104.279 74.0485C104.279 81.4975 101.496 88.2948 96.9154 93.4727" stroke="#663366" stroke-width="4.13383" stroke-miterlimit="10" stroke-linecap="round" stroke-linejoin="round"/>
<path d="M57.7969 113.09C59.5564 105.06 66.8034 99.0529 75.3606 99.0529C83.9175 99.0529 91.1573 105.06 92.9246 113.09" stroke="#663366" stroke-width="4.13383" stroke-miterlimit="10" stroke-linecap="round" stroke-linejoin="round"/>
</g>
</svg>
