<svg width="150" height="150" viewBox="0 0 150 150" fill="none" xmlns="http://www.w3.org/2000/svg">
<path d="M133.241 43.2704C129.242 43.2704 125.694 45.2801 123.568 48.3357C119.248 48.3836 115.529 49.4978 112.521 51.6647C109.117 54.0914 106.834 57.653 105.74 62.2468C105.241 64.3317 104.995 66.5465 104.995 69.0143V87.7655C104.995 95.1413 103.997 101.492 102.035 106.653C100.88 109.688 98.7946 113.824 95.3836 116.278C93.7361 117.474 92.0134 118.076 90.2634 118.076C88.5134 118.076 86.7976 117.467 85.1433 116.278C81.7322 113.817 79.6473 109.681 78.4919 106.653C76.5641 101.588 75.573 95.3807 75.532 88.217C80.6931 87.3693 85.451 85.2161 89.3337 81.969C94.6178 77.553 98.0904 71.3392 99.0953 64.4759C99.2662 63.307 99.0406 62.1381 98.4527 61.1331L102.725 32.197C102.828 31.5134 102.889 30.7956 102.917 30.0572C103.012 27.3229 102.438 24.9919 101.201 23.1325C99.7447 20.9587 97.4888 19.5916 94.6928 19.1746C94.2622 19.1062 93.7837 19.0652 93.2436 19.0447L90.065 18.9422C88.9986 17.7527 87.4604 17.0075 85.7446 17.0075C82.5454 17.0075 79.9409 19.6121 79.9409 22.818C79.9409 26.024 82.5454 28.6285 85.7446 28.6285C87.2963 28.6285 88.7113 28.0133 89.7505 27.0153L92.9771 27.1246C93.1343 27.1315 93.3052 27.1451 93.5171 27.1725C94.0093 27.2545 94.3238 27.3981 94.4742 27.6236C94.7476 28.027 94.8843 28.8199 94.8501 29.7975C94.8365 30.1529 94.8023 30.5426 94.7339 31.0279L90.4615 59.957C89.6412 60.7295 89.0602 61.7686 88.8824 62.9717C88.2398 67.3262 86.0523 71.2569 82.7165 74.0459C79.3737 76.835 75.1081 78.3046 70.3708 78.3046C67.2742 78.3046 64.41 77.6894 61.8396 76.4726V49.3337C61.8396 44.0906 57.574 39.8181 52.3241 39.8181H47.2997L46.0077 31.0272C45.9393 30.5419 45.8983 30.1454 45.8846 29.7831C45.8505 28.8124 45.9872 28.0195 46.2674 27.6024C46.4042 27.3905 46.7255 27.247 47.2108 27.1649C47.4159 27.1376 47.5936 27.1239 47.744 27.1171L50.9706 27.0077C52.0165 28.0057 53.4246 28.621 54.9765 28.621C58.1757 28.621 60.7802 26.0165 60.7802 22.8105C60.7802 19.6045 58.1757 17 54.9765 17C53.2607 17 51.7226 17.752 50.6562 18.9346L47.4707 19.0372C46.9306 19.0577 46.4658 19.0987 46.0419 19.167C43.2323 19.584 40.9834 20.9512 39.5204 23.1318C38.29 24.9844 37.7158 27.3153 37.8046 30.0292C37.8183 30.7128 37.8866 31.4169 37.996 32.1894L39.1239 39.8047H14.5156C9.27243 39.8047 5 44.0703 5 49.3203V123.845C5 129.089 9.2656 133.361 14.5156 133.361H52.3189C57.562 133.361 61.8345 129.095 61.8345 123.845V87.4508C62.935 87.7653 64.0561 88.0182 65.1978 88.2028C65.2388 96.8433 66.5376 104.445 69.06 110.802C71.4389 116.825 74.9116 121.61 79.102 124.631C82.513 127.092 86.3685 128.398 90.2582 128.398C94.1479 128.398 98.0101 127.099 101.414 124.638C105.605 121.616 109.077 116.838 111.47 110.809C114.033 104.322 115.332 96.563 115.332 87.7581V69.0069C115.332 67.3458 115.483 65.9103 115.783 64.632C116.289 62.5265 117.205 60.9816 118.511 60.0587C119.441 59.3888 120.63 58.9581 122.065 58.7735C123.631 63.4425 128.04 66.8127 133.229 66.8127C139.723 66.8127 145 61.5286 145 55.0343C145 48.5401 139.723 43.2629 133.229 43.2629L133.241 43.2704ZM85.7512 24.7992C84.6575 24.7992 83.7688 23.9037 83.7688 22.81C83.7688 21.7163 84.6575 20.8208 85.7512 20.8208C86.4963 20.8208 87.1389 21.231 87.4807 21.8325C87.6448 22.1196 87.7405 22.4546 87.7405 22.81C87.7405 23.9106 86.8449 24.7992 85.7512 24.7992ZM53.2679 21.8393C53.6097 21.2377 54.2591 20.8276 54.9974 20.8276C56.0911 20.8276 56.9798 21.7231 56.9798 22.8168C56.9798 23.9105 56.0911 24.806 54.9974 24.806C53.9036 24.806 53.0081 23.9105 53.0081 22.8168C53.0081 22.4613 53.1038 22.1332 53.2679 21.8393ZM98.5139 31.5736C98.6096 30.9379 98.6575 30.4115 98.6711 29.9193C98.7395 28.0804 98.3977 26.5903 97.6594 25.4966C96.9006 24.3413 95.6907 23.6304 94.0705 23.3775C94.05 23.3707 94.0364 23.3707 94.0158 23.3707C93.6741 23.3297 93.3801 23.3023 93.0998 23.2955L91.5276 23.2408C91.5412 23.0972 91.5481 22.9537 91.5481 22.8101L93.0998 22.858C93.4895 22.8717 93.8176 22.899 94.1184 22.9469C95.882 23.2066 97.1536 23.9586 98.0149 25.2437C98.7942 26.4195 99.1565 27.9917 99.095 29.9195C99.0745 30.5142 99.0198 31.0953 98.9446 31.6422L94.9593 58.6515C94.8841 58.6379 94.809 58.6174 94.7338 58.6105C94.6654 58.5969 94.5902 58.5969 94.5218 58.59L98.5071 31.5737L98.5139 31.5736ZM41.7967 31.6488C41.7078 31.0336 41.66 30.473 41.6463 29.9262C41.5779 28.0052 41.9402 26.433 42.7195 25.2572C43.5809 23.9652 44.8593 23.2132 46.6297 22.9535C46.9168 22.9125 47.2449 22.8783 47.6278 22.8646L49.1932 22.8168C49.1932 22.9603 49.2068 23.1039 49.2137 23.2474L47.6414 23.3021C47.368 23.309 47.0672 23.3363 46.7322 23.3773C46.7117 23.3773 46.6981 23.3841 46.6776 23.3841C45.0575 23.6302 43.8543 24.348 43.1023 25.4827C42.3572 26.5901 42.0154 28.0804 42.0769 29.9123C42.0906 30.4113 42.1453 30.9445 42.2342 31.5803L43.4441 39.8175H42.9998L41.7898 31.6485L41.7967 31.6488ZM8.83386 49.3272C8.83386 46.1895 11.3904 43.6329 14.5282 43.6329H41.345H41.3519H41.3587H45.6516H45.6584H45.6653H52.3371C55.4748 43.6329 58.0314 46.1895 58.0314 49.3272V49.9151H8.8339L8.83386 49.3272ZM58.0174 123.859C58.0174 126.997 55.4608 129.554 52.3231 129.554L14.5268 129.547C11.389 129.547 8.83246 126.99 8.83246 123.853V123.265H58.023V123.853L58.0174 123.859ZM8.83386 119.45V53.7363H58.0244V119.45H8.83386ZM121.469 55.0086C119.452 55.2888 117.716 55.9383 116.301 56.9568C114.229 58.4334 112.807 60.7165 112.076 63.7585C111.7 65.3376 111.522 67.0602 111.522 69.0221V87.7733C111.522 96.0994 110.312 103.38 107.927 109.415C106.45 113.148 103.736 118.275 99.1903 121.556C96.4422 123.545 93.3593 124.598 90.2693 124.598C87.1864 124.598 84.1034 123.545 81.3484 121.556C76.8024 118.282 74.0956 113.148 72.6189 109.422C70.2332 103.4 69.0232 96.1195 69.0232 87.7801V87.7323C69.0232 87.7186 69.03 87.6981 69.03 87.6844L69.0916 86.7069C69.1531 85.7157 68.4422 84.8339 67.4578 84.6972L66.4803 84.5605C64.8875 84.3349 63.3289 83.9726 61.8388 83.4804V80.6298C64.4774 81.6279 67.3348 82.1338 70.37 82.1338C76.0165 82.1338 81.1296 80.3565 85.1696 76.9863C89.2233 73.5957 91.8824 68.8174 92.6617 63.5401C92.7711 62.8087 93.4478 62.296 94.1861 62.4053C94.5416 62.4532 94.856 62.6446 95.0679 62.9317C95.2799 63.2188 95.3687 63.5743 95.3209 63.9229C94.4459 69.8633 91.4518 75.2294 86.8854 79.0439C83.3649 81.9902 78.9968 83.8973 74.2526 84.5536L73.2819 84.6903C72.2975 84.8338 71.5865 85.7088 71.6481 86.7L71.7096 87.6775C71.7096 87.6912 71.7096 87.7117 71.7164 87.7253V87.7732C71.7164 95.6004 72.7965 102.409 74.9292 108.014C76.2691 111.534 78.7369 116.36 82.9136 119.382C85.2036 121.036 87.7465 121.904 90.269 121.904C92.7914 121.904 95.348 121.029 97.6244 119.382C101.801 116.374 104.269 111.541 105.609 108.02C107.742 102.429 108.821 95.6201 108.821 87.78V69.0289C108.821 66.8618 109.027 64.9342 109.457 63.1431C110.332 59.4722 112.11 56.6627 114.741 54.7829C116.69 53.3815 119.055 52.5408 121.796 52.2673C121.584 53.1491 121.461 54.0719 121.461 55.0221L121.469 55.0086ZM133.24 62.9997C129.337 62.9997 126.076 60.1696 125.413 56.4509C125.406 56.4099 125.399 56.3757 125.392 56.3347C125.324 55.9109 125.283 55.4802 125.283 55.0427C125.283 50.6609 128.851 47.0925 133.24 47.0925C137.629 47.0925 141.19 50.6609 141.19 55.0427C141.19 59.4245 137.622 62.9997 133.24 62.9997ZM133.24 49.239C130.041 49.239 127.436 51.8435 127.436 55.0427C127.436 58.2419 130.041 60.8464 133.24 60.8464C136.439 60.8464 139.037 58.2419 139.037 55.0427C139.037 51.8435 136.439 49.239 133.24 49.239ZM133.24 57.0251C132.146 57.0251 131.258 56.1364 131.258 55.0427C131.258 53.949 132.146 53.0603 133.24 53.0603C134.334 53.0603 135.216 53.949 135.216 55.0427C135.216 56.1364 134.327 57.0251 133.24 57.0251ZM54.0599 103.277C54.0599 104.33 53.2054 105.191 52.1458 105.191H23.0662C22.0135 105.191 21.152 104.337 21.152 103.277C21.152 102.225 22.0065 101.363 23.0662 101.363H52.1458C53.1985 101.363 54.0599 102.218 54.0599 103.277ZM54.0599 95.4981C54.0599 96.5508 53.2054 97.4123 52.1458 97.4123H23.0662C22.0135 97.4123 21.152 96.5578 21.152 95.4981C21.152 94.4454 22.0065 93.584 23.0662 93.584H52.1458C53.1985 93.584 54.0599 94.4385 54.0599 95.4981ZM54.0599 111.057C54.0599 112.109 53.2054 112.971 52.1458 112.971H23.0662C22.0135 112.971 21.152 112.116 21.152 111.057C21.152 110.004 22.0065 109.142 23.0662 109.142H52.1458C53.1985 109.142 54.0599 109.997 54.0599 111.057ZM26.3138 86.5095C26.3138 87.5622 27.1683 88.4236 28.228 88.4236H38.6458C39.6986 88.4236 40.56 87.5691 40.56 86.5095V80.5691H46.5003C47.553 80.5691 48.4145 79.7146 48.4145 78.655V68.2439C48.4145 67.1912 47.56 66.3298 46.5003 66.3298H40.56V60.3826C40.56 59.3299 39.7055 58.4685 38.6458 58.4685H28.228C27.1752 58.4685 26.3138 59.323 26.3138 60.3826V66.3298H20.3735C19.3208 66.3298 18.4593 67.1843 18.4593 68.2439V78.655C18.4593 79.7077 19.3138 80.5691 20.3735 80.5691H26.3138V86.5095ZM22.2806 76.741V70.1512H28.221C29.2737 70.1512 30.1351 69.2968 30.1351 68.2371V62.2899H36.7317V68.2371C36.7317 69.2898 37.5862 70.1512 38.6458 70.1512H44.5862V76.741H38.6458C37.5931 76.741 36.7317 77.5955 36.7317 78.6551V84.5955H30.1351V78.6551C30.1351 77.6024 29.2806 76.741 28.221 76.741H22.2806ZM19.8812 111.057C19.8812 112.109 19.0267 112.971 17.9671 112.971H14.7063C13.6536 112.971 12.7922 112.116 12.7922 111.057C12.7922 110.004 13.6467 109.142 14.7063 109.142H17.9671C19.0198 109.142 19.8812 109.997 19.8812 111.057ZM19.8812 103.277C19.8812 104.33 19.0267 105.191 17.9671 105.191H14.7063C13.6536 105.191 12.7922 104.337 12.7922 103.277C12.7922 102.225 13.6467 101.363 14.7063 101.363H17.9671C19.0198 101.363 19.8812 102.218 19.8812 103.277ZM19.8812 95.4981C19.8812 96.5508 19.0267 97.4123 17.9671 97.4123H14.7063C13.6536 97.4123 12.7922 96.5578 12.7922 95.4981C12.7922 94.4454 13.6467 93.584 14.7063 93.584H17.9671C19.0198 93.584 19.8812 94.4385 19.8812 95.4981Z" fill="#663366"/>
</svg>
