<svg width="150" height="150" viewBox="0 0 150 150" fill="none" xmlns="http://www.w3.org/2000/svg">
<path fill-rule="evenodd" clip-rule="evenodd" d="M124.716 22.9374C124.716 20.2081 121.406 18.8404 119.475 20.7657C117.543 22.6968 118.917 26.0073 121.646 26.0073C123.343 26.0073 124.716 24.6279 124.716 22.9374ZM59.8043 117.637H54.7095C52.8254 117.637 52.8254 114.779 54.7095 114.779H59.8043V110.3C59.8043 109.514 60.4441 108.874 61.2306 108.874H65.7092V105.951C65.7092 104.067 68.5676 104.067 68.5676 105.951V108.874H70.6925V103.779C70.6925 101.895 73.5509 101.895 73.5509 103.779V108.874H75.6758V105.951C75.6758 104.067 78.5342 104.067 78.5342 105.951V108.874H80.6591V103.779C80.6591 101.895 83.5175 101.895 83.5175 103.779V108.874H87.9961C88.7827 108.874 89.4224 109.514 89.4224 110.3V114.779H94.5172C96.4014 114.779 96.4014 117.637 94.5172 117.637H89.4224V119.762H92.3455C94.2296 119.762 94.2296 122.621 92.3455 122.621H89.4224V124.745H94.5172C96.4014 124.745 96.4014 127.604 94.5172 127.604H89.4224V129.729H92.3455C94.2296 129.729 94.2296 132.587 92.3455 132.587H89.4224V137.066C89.4224 137.852 88.7827 138.492 87.9961 138.492H83.5175V143.587C83.5175 145.471 80.6591 145.471 80.6591 143.587V138.492H78.5342V141.415C78.5342 143.299 75.6758 143.299 75.6758 141.415V138.492H73.5509V143.587C73.5509 145.471 70.6925 145.471 70.6925 143.587V138.492H68.5676V141.415C68.5676 143.299 65.7092 143.299 65.7092 141.415V138.492H61.2306C60.4441 138.492 59.8043 137.852 59.8043 137.066V132.587H56.8813C54.9971 132.587 54.9971 129.729 56.8813 129.729H59.8043V127.604H54.7095C52.8254 127.604 52.8254 124.745 54.7095 124.745H59.8043V122.621H56.8813C54.9971 122.621 54.9971 119.762 56.8813 119.762H59.8043V117.637ZM68.4561 116.094C67.6696 116.094 67.0298 116.733 67.0298 117.52V129.84C67.0298 130.627 67.6696 131.267 68.4561 131.267H80.7764C81.563 131.267 82.2028 130.627 82.2028 129.84V117.52C82.2028 116.733 81.563 116.094 80.7764 116.094H68.4561ZM79.3443 118.952H69.8824V128.414H79.3443V118.952ZM86.5639 111.732H62.6632V135.639H86.57L86.5639 111.732ZM5 86.6687C5 81.4036 11.392 78.7506 15.1193 82.4777C17.6256 84.9841 17.3849 89.1046 14.6204 91.3056L26.6472 114.778H43.3639C45.248 114.778 45.248 117.637 43.3639 117.637H25.7727C25.1681 117.637 24.6574 117.267 24.4461 116.738L12.0261 92.4967C8.38099 93.1775 5 90.3842 5 86.6687ZM8.75656 84.4969C6.82539 86.4281 8.19895 89.7385 10.9283 89.7385C13.6577 89.7385 15.0254 86.4281 13.1 84.4969C11.8968 83.2995 9.95385 83.2995 8.75656 84.4969ZM141.375 86.6687C141.375 83.9393 138.065 82.5716 136.134 84.4969C134.202 86.4281 135.576 89.7385 138.305 89.7385C139.996 89.7385 141.375 88.365 141.375 86.6687ZM142.49 82.4777C146.593 86.5806 142.919 93.5713 137.196 92.4913L124.776 116.733C124.565 117.261 124.048 117.631 123.449 117.631L105.876 117.637C103.992 117.637 103.992 114.779 105.876 114.779H122.587L134.614 91.3062C130.235 87.8196 132.724 80.7409 138.306 80.7409C139.937 80.7409 141.422 81.4036 142.49 82.4777ZM74.6139 37.8858C61.1724 37.8858 47.6658 40.9908 36.7072 47.1833C28.8125 51.6443 22.2268 57.7134 17.8838 65.3846C17.6314 65.8072 17.6079 66.3531 17.8662 66.8109C22.2155 74.5001 28.8071 80.5811 36.7076 85.0483C58.6369 97.4449 90.5962 97.4449 112.519 85.0483C120.408 80.5873 127 74.5182 131.343 66.847C131.595 66.4244 131.619 65.8785 131.36 65.4207C120.496 46.151 96.2366 37.8866 74.6124 37.8866L74.6139 37.8858ZM89.3701 42.0473C104.883 51.5797 107.507 73.1441 94.5705 86.0817C93.0091 87.6431 91.2601 89.0282 89.3701 90.1905C104.919 87.3965 120.386 79.7895 128.479 66.1185C120.385 52.4481 104.918 44.8362 89.3701 42.0473ZM59.857 90.1839C44.3439 80.6516 41.7204 59.0871 54.6566 46.1555C56.218 44.5941 57.967 43.209 59.857 42.0467C44.3079 44.8407 28.8414 52.4478 20.7482 66.1188C28.8424 79.7833 44.3094 87.389 59.857 90.1839ZM92.5571 48.169C102.465 58.077 102.465 74.1419 92.5571 84.0502C82.6491 93.9585 66.5843 93.9582 56.676 84.0502C46.7677 74.1422 46.768 58.0773 56.676 48.169C66.578 38.267 82.6488 38.267 92.5571 48.169ZM67.6872 59.1863C71.5142 55.3592 77.7184 55.3592 81.5455 59.1863C85.3725 63.0133 85.3725 69.2175 81.5455 73.0445C77.7184 76.8716 71.5142 76.8716 67.6872 73.0445C63.8602 69.2175 63.8602 63.0133 67.6872 59.1863ZM74.6134 59.1687C78.4463 59.1687 81.5572 62.2737 81.5572 66.1124C81.5572 72.2815 74.0675 75.3806 69.7064 71.0194C65.3454 66.6642 68.4445 59.1687 74.6134 59.1687ZM68.6146 52.4069L69.1722 52.1779L69.6242 47.5174C69.7592 46.1439 70.9038 45.1108 72.2714 45.1108H76.9729C78.3406 45.1108 79.4852 46.1439 79.6201 47.5174L80.0721 52.1779L80.6297 52.4069L84.2513 49.425C85.3078 48.5564 86.8574 48.6268 87.82 49.5953L91.1422 52.9174C92.1107 53.8859 92.1811 55.4296 91.3124 56.4861L88.3306 60.1078L88.5595 60.6654L93.22 61.1173C94.5935 61.2523 95.6266 62.3969 95.6266 63.7645V68.4661C95.6266 69.8337 94.5936 70.9783 93.22 71.1132L88.5595 71.5652L88.3306 72.1228L91.3065 75.7444C92.1752 76.801 92.1048 78.3506 91.1363 79.3132L87.8142 82.6353C86.8457 83.6038 85.3019 83.6742 84.2454 82.8055L80.6238 79.8237L80.0662 80.0526L79.6142 84.7132C79.4792 86.0867 78.3347 87.1198 76.9671 87.1198H72.2655C70.8979 87.1198 69.7533 86.0867 69.6183 84.7132L69.1664 80.0526L68.6088 79.8237L64.9871 82.7997C63.9306 83.6684 62.3869 83.5979 61.4184 82.6295L58.0963 79.3073C57.1278 78.3388 57.0573 76.7951 57.926 75.7386L60.9079 72.117L60.6789 71.5593L56.0184 71.1074C54.6449 70.9724 53.6118 69.8278 53.6118 68.4602V63.7587C53.6118 62.391 54.6449 61.2464 56.0184 61.1115L60.6789 60.6595L60.9079 60.1019L57.926 56.4803C57.0574 55.4238 57.1278 53.88 58.0963 52.9116L61.4184 49.5894C62.3869 48.6209 63.9307 48.5505 64.9871 49.4192L68.6146 52.4069ZM69.9705 54.9249C70.0057 54.9132 70.1114 54.8721 70.2875 54.8017C71.2442 54.4378 71.8899 53.5925 71.9838 52.5653L72.4299 47.9577H76.7851L77.2312 52.5653C77.284 53.076 77.466 53.5397 77.7595 53.9271C78.3112 54.6491 78.8747 54.7488 79.5555 55.0541C80.4888 55.4708 81.5395 55.3299 82.3261 54.6784L85.9007 51.7378L88.9822 54.8193L86.0416 58.3939C85.7188 58.7872 85.5192 59.245 85.4547 59.7263C85.3373 60.5833 85.6366 61.0353 85.9242 61.7925C86.2881 62.7492 87.1334 63.3948 88.1606 63.4888L92.7682 63.9349V68.2901L88.1606 68.7362C87.6499 68.789 87.1804 68.971 86.7988 69.2644C86.0769 69.8162 85.9771 70.3738 85.6719 71.0605C85.2551 71.9938 85.396 73.0444 86.0475 73.8311L88.9882 77.4056L85.9066 80.4872L82.332 77.5466C81.9387 77.2238 81.4809 77.0242 80.9996 76.9596C80.1367 76.8422 79.673 77.1475 78.9335 77.4292C77.9767 77.7931 77.3311 78.6384 77.2372 79.6656L76.7911 84.2732H72.4359L71.9898 79.6656C71.9369 79.1549 71.755 78.6853 71.4615 78.3038C70.9097 77.5818 70.3521 77.4821 69.6654 77.1768C68.7321 76.7601 67.6815 76.901 66.8949 77.5525L63.3203 80.4931L60.2387 77.4116L63.1793 73.837C63.5022 73.4437 63.7017 72.9859 63.7663 72.5046C63.8837 71.6476 63.5843 71.1898 63.2967 70.4384C62.9328 69.4817 62.0876 68.8419 61.0603 68.7421L56.4644 68.2902V63.935L61.0662 63.4889C61.5769 63.436 62.0464 63.2541 62.428 62.9606C63.1499 62.4089 63.2497 61.8454 63.5549 61.1645C63.9717 60.2313 63.8308 59.1806 63.1793 58.394L60.2386 54.8194L63.3202 51.7378L66.8948 54.6784C67.2881 55.0013 67.7459 55.2008 68.2272 55.2654C68.9668 55.3652 69.3541 55.1773 69.9705 54.9249ZM30.6498 24.1858C30.6498 21.4564 27.3394 20.0887 25.4082 22.014C23.4771 23.9452 24.8506 27.2556 27.58 27.2556C29.2763 27.2556 30.6498 25.8821 30.6498 24.1858ZM31.7709 19.9948C32.5222 20.7461 33.0681 21.697 33.3323 22.7535H43.0406C43.8271 22.7535 44.4669 23.3933 44.4669 24.1798V37.5332C50.0901 35.4612 56.0594 34.0113 62.1633 33.178L62.1692 16.6836C57.7318 15.586 56.1353 10.0099 59.4047 6.74049C63.1319 3.01323 69.524 5.67221 69.524 10.9315C69.524 13.6843 67.634 16.038 65.0278 16.6836V32.8489C71.3847 32.1856 77.8411 32.1856 84.1923 32.8489V23.2872C79.7549 22.1896 78.1583 16.6135 81.4277 13.3441C85.155 9.61681 91.547 12.2758 91.547 17.535C91.547 20.2878 89.657 22.6416 87.0509 23.2872V33.1952C93.1553 34.0287 99.1247 35.4785 104.747 37.5504V22.9409C104.747 22.1543 105.387 21.5146 106.174 21.5146H115.882C116.98 17.0772 122.556 15.4806 125.825 18.75C129.552 22.4773 126.893 28.8693 121.634 28.8693C118.881 28.8693 116.528 26.9793 115.882 24.3731H107.6V38.6715C119.462 43.5961 129.846 51.5202 136.168 62.7015L137.706 65.425C137.964 65.8828 137.94 66.417 137.694 66.8396L136.162 69.5455C113.293 110.005 35.9023 110.005 13.0354 69.5455L11.4976 66.822C11.2393 66.37 11.2628 65.83 11.5093 65.4133L13.0412 62.7074C19.3628 51.5257 29.7459 43.5955 41.6091 38.6774V25.6175H33.3271C32.2295 30.0549 26.6534 31.6514 23.384 28.382C19.6567 24.6548 22.3157 18.2627 27.5749 18.2627C29.2185 18.2627 30.7026 18.9207 31.7709 19.9948ZM88.6948 17.5296C88.6948 14.8002 85.3844 13.4325 83.4532 15.3579C81.5221 17.289 82.8956 20.5995 85.625 20.5995C87.3213 20.5995 88.6948 19.226 88.6948 17.5296ZM85.5018 35.8661C85.4724 35.8602 85.4372 35.8603 85.4079 35.8544C79.2037 35.0033 70.024 34.9974 63.8257 35.8544C63.7963 35.8603 63.7611 35.8602 63.7318 35.8661C53.5715 37.1046 43.7874 40.104 35.3877 44.8526C27.0764 49.5483 20.1271 55.9637 15.5306 64.0937L14.386 66.1188L15.5306 68.1438C37.3006 106.655 111.933 106.655 133.704 68.1438L134.849 66.1188L133.704 64.0937C124.084 47.0719 104.638 38.2034 85.5033 35.8669L85.5018 35.8661ZM66.6724 10.9256C66.6724 8.1962 63.3619 6.82851 61.4308 8.75382C59.4996 10.685 60.8732 13.9954 63.6025 13.9954C65.2988 13.9954 66.6724 12.6219 66.6724 10.9256Z" fill="#663366"/>
</svg>
