<svg width="150" height="150" viewBox="0 0 150 150" fill="none" xmlns="http://www.w3.org/2000/svg">
<path d="M86.118 32.6328L74.9994 43.3984L63.8809 32.6328" stroke="#663366" stroke-width="4.22534" stroke-miterlimit="10" stroke-linecap="round" stroke-linejoin="round"/>
<path d="M60.726 8.84724C65.2133 6.24724 70.4499 4.83034 75.9879 5.01626C91.3879 5.53738 103.712 18.1852 103.712 33.7092C103.712 41.6106 100.52 48.7655 95.3569 53.9542C92.5287 56.7965 90.8921 60.6105 90.8921 64.6218V69.2049C90.8921 70.2387 90.0527 71.0809 89.0161 71.0809H60.9654C59.9288 71.0809 59.0894 70.2387 59.0894 69.2049V64.6049C59.0894 60.6021 57.464 56.7908 54.6415 53.9542C49.4499 48.7345 46.2528 41.5317 46.2894 33.5796C46.3204 26.5655 48.9063 20.1402 53.1513 15.1655" stroke="#663366" stroke-width="4.22534" stroke-miterlimit="10" stroke-linecap="round" stroke-linejoin="round"/>
<path d="M88.3196 71.7109V75.2087C88.3196 77.2644 86.6532 78.9306 84.5977 78.9306H65.4017C63.3459 78.9306 61.6797 77.2642 61.6797 75.2087V71.8039" stroke="#663366" stroke-width="4.22534" stroke-miterlimit="10" stroke-linecap="round" stroke-linejoin="round"/>
<path d="M84.5987 79.5846V83.13C84.5987 85.1857 82.9322 86.8522 80.8764 86.8522H69.1246C67.0688 86.8522 65.4023 85.1857 65.4023 83.13V79.4297" stroke="#663366" stroke-width="4.22534" stroke-miterlimit="10" stroke-linecap="round" stroke-linejoin="round"/>
<path d="M80.6194 87.4638V89.1584C80.6194 92.2624 78.1031 94.7787 74.9992 94.7787C71.8952 94.7787 69.3789 92.2624 69.3789 89.1584V87.3086" stroke="#663366" stroke-width="4.22534" stroke-miterlimit="10" stroke-linecap="round" stroke-linejoin="round"/>
<path d="M75 43.3984V70.4116" stroke="#663366" stroke-width="4.22534" stroke-miterlimit="10" stroke-linecap="round" stroke-linejoin="round"/>
<path d="M37.112 32.6328H20.6543" stroke="#663366" stroke-width="4.22534" stroke-miterlimit="10" stroke-linecap="round" stroke-linejoin="round"/>
<path d="M37.111 23.9918L28.1738 19.2969" stroke="#663366" stroke-width="4.22534" stroke-miterlimit="10" stroke-linecap="round" stroke-linejoin="round"/>
<path d="M37.111 41.2773L28.1738 45.9723" stroke="#663366" stroke-width="4.22534" stroke-miterlimit="10" stroke-linecap="round" stroke-linejoin="round"/>
<path d="M112.891 32.6328H129.348" stroke="#663366" stroke-width="4.22534" stroke-miterlimit="10" stroke-linecap="round" stroke-linejoin="round"/>
<path d="M112.891 23.9918L121.828 19.2969" stroke="#663366" stroke-width="4.22534" stroke-miterlimit="10" stroke-linecap="round" stroke-linejoin="round"/>
<path d="M112.891 41.2773L121.828 45.9723" stroke="#663366" stroke-width="4.22534" stroke-miterlimit="10" stroke-linecap="round" stroke-linejoin="round"/>
<path d="M75 95.4023V120.592" stroke="#663366" stroke-width="4.22534" stroke-miterlimit="10" stroke-linecap="round" stroke-linejoin="round"/>
<path d="M90.7806 112.918C86.6257 111.53 84.3186 108.149 83.5975 105.042C83.3243 103.862 83.2792 102.721 83.451 101.746C85.989 87.2169 107.102 88.3578 115.49 99.1831C117.386 101.628 118.462 103.851 118.885 105.794C119.248 107.47 117.702 108.944 116.057 108.454C113.862 107.797 110.921 107.958 106.496 110.259C104.389 111.355 102.44 112.146 100.64 112.679" stroke="#663366" stroke-width="4.22534" stroke-miterlimit="10" stroke-linecap="round" stroke-linejoin="round"/>
<path d="M75 114.991C78.5901 103.771 94.0529 99.8873 103.906 100.606" stroke="#663366" stroke-width="4.22534" stroke-miterlimit="10" stroke-linecap="round" stroke-linejoin="round"/>
<path d="M51.6061 90.9564C58.6934 90.7733 65.2089 94.0747 66.5498 101.745C66.7216 102.72 66.6765 103.861 66.4033 105.041C65.0371 110.917 57.9892 117.787 43.5047 110.258C39.0794 107.956 36.1386 107.796 33.9442 108.452C32.2991 108.942 30.7526 107.469 31.116 105.793C31.5386 103.849 32.6146 101.627 34.5104 99.1818C36.4569 96.6719 39.085 94.6804 42.0118 93.2888" stroke="#663366" stroke-width="4.22534" stroke-miterlimit="10" stroke-linecap="round" stroke-linejoin="round"/>
<path d="M74.9999 114.991C71.4098 103.771 55.947 99.8873 46.0938 100.606" stroke="#663366" stroke-width="4.22534" stroke-miterlimit="10" stroke-linecap="round" stroke-linejoin="round"/>
<path d="M45.7351 136.051C44.7625 134.275 43.423 132.712 41.7937 131.472L41.167 130.995C38.9315 129.592 36.289 128.777 33.4552 128.777C29.7442 128.777 26.3597 130.171 23.7918 132.46V132.456L22.5355 133.508C17.1572 138.007 11.2724 141.864 5 145" stroke="#663366" stroke-width="4.22534" stroke-miterlimit="10" stroke-linecap="round" stroke-linejoin="round"/>
<path d="M108.641 130.738C105.21 126.281 99.8229 123.409 93.764 123.409C90.739 123.409 87.8108 124.056 85.3531 125.401C82.7176 122.724 79.0536 121.062 75.0004 121.062C70.9472 121.062 67.2832 122.724 64.6477 125.401C62.1173 124.129 59.2618 123.409 56.2368 123.409C50.214 123.409 44.8551 126.247 41.4219 130.658" stroke="#663366" stroke-width="4.22534" stroke-miterlimit="10" stroke-linecap="round" stroke-linejoin="round"/>
<circle cx="51.2572" cy="131.648" r="2.11267" fill="#663366"/>
<circle cx="33.4486" cy="136.05" r="2.11267" fill="#663366"/>
<circle cx="53.9818" cy="138.812" r="2.11267" fill="#663366"/>
<circle cx="96.1537" cy="138.019" r="2.11267" fill="#663366"/>
<circle cx="89.2396" cy="134.316" r="2.11267" fill="#663366"/>
<circle cx="95.7084" cy="130.995" r="2.11267" fill="#663366"/>
<path d="M130.883 136.297C134.798 139.348 139.007 142.001 143.449 144.224L145.001 144.998" stroke="#663366" stroke-width="4.22534" stroke-miterlimit="10" stroke-linecap="round" stroke-linejoin="round"/>
<path d="M104.266 136.051C105.237 134.273 106.578 132.713 108.206 131.47L108.835 130.994C111.068 129.591 113.711 128.777 116.544 128.777C118.877 128.777 121.08 129.327 123.032 130.307" stroke="#663366" stroke-width="4.22534" stroke-miterlimit="10" stroke-linecap="round" stroke-linejoin="round"/>
</svg>
