<svg width="150" height="150" viewBox="0 0 150 150" fill="none" xmlns="http://www.w3.org/2000/svg">
<path d="M97.7648 5V20.9349C97.7648 23.1352 95.9811 24.9186 93.7811 24.9186H56.22C54.0197 24.9186 52.2363 23.1349 52.2363 20.9349V5" stroke="#663366" stroke-width="4.22535" stroke-miterlimit="10" stroke-linecap="round" stroke-linejoin="round"/>
<path d="M88.089 24.918V30.609C88.089 32.4949 86.5603 34.0236 84.6744 34.0236H65.3248C63.4389 34.0236 61.9102 32.4949 61.9102 30.609V24.918" stroke="#663366" stroke-width="4.22535" stroke-miterlimit="10" stroke-linecap="round" stroke-linejoin="round"/>
<path d="M82.6826 34.0234L80.2229 49.2733C80.0006 50.6522 78.8102 51.6657 77.4136 51.6657H72.5854C71.1888 51.6657 69.9987 50.6522 69.7761 49.2733L67.3164 34.0234" stroke="#663366" stroke-width="4.22535" stroke-miterlimit="10" stroke-linecap="round" stroke-linejoin="round"/>
<path d="M97.7637 14.1055H144.999" stroke="#663366" stroke-width="4.22535" stroke-miterlimit="10" stroke-linecap="round" stroke-linejoin="round"/>
<path d="M52.2358 14.1055H5" stroke="#663366" stroke-width="4.22535" stroke-miterlimit="10" stroke-linecap="round" stroke-linejoin="round"/>
<path d="M145 5H79.9297" stroke="#663366" stroke-width="4.22535" stroke-miterlimit="10" stroke-linecap="round" stroke-linejoin="round"/>
<path d="M70.0704 5H5" stroke="#663366" stroke-width="4.22535" stroke-miterlimit="10" stroke-linecap="round" stroke-linejoin="round"/>
<path d="M41.7077 70.6727C44.857 66.6361 49.4288 64.6445 55.0824 64.6445C65.2711 64.6445 70.319 70.0642 75.0007 70.0642C79.6824 70.0642 84.7302 64.6445 94.919 64.6445C106.158 64.6445 113.13 72.5206 113.13 88.6783C113.13 96.9628 108.719 104.509 104.626 109.735C100.215 115.36 97.7641 122.27 97.7641 129.419V129.752C97.7641 133.143 95.0148 135.892 91.6232 135.892C90.2288 135.892 88.9218 135.422 87.8739 134.616C86.826 133.811 86.0401 132.667 85.6852 131.321L82.0852 117.69C81.2345 114.473 78.3274 112.233 75.0007 112.233C73.3387 112.233 71.7781 112.794 70.5303 113.754C69.2824 114.718 68.3415 116.081 67.9162 117.69L64.3162 131.321C63.6063 134.016 61.1669 135.892 58.3781 135.892C56.6824 135.892 55.1472 135.205 54.0373 134.092C52.9246 132.983 52.2373 131.447 52.2373 129.752V129.419C52.2373 122.27 49.7866 115.36 45.3753 109.735C41.2824 104.509 36.8711 96.9628 36.8711 88.6783C36.8711 85.3178 37.1725 82.315 37.7528 79.6671" stroke="#663366" stroke-width="4.22535" stroke-miterlimit="10" stroke-linecap="round" stroke-linejoin="round"/>
<path d="M122.989 145.002H142.724C143.98 145.002 145 143.982 145 142.726V138.173C145 136.914 143.98 135.895 142.724 135.895H7.27606C6.01972 135.895 5 136.914 5 138.173V142.726C5 143.982 6.01972 145.002 7.27606 145.002H113.13" stroke="#663366" stroke-width="4.22535" stroke-miterlimit="10" stroke-linecap="round" stroke-linejoin="round"/>
<path d="M75 60.9606V51.668" stroke="#663366" stroke-width="4.22535" stroke-miterlimit="10" stroke-linecap="round" stroke-linejoin="round"/>
</svg>
