<svg width="150" height="150" viewBox="0 0 150 150" fill="none" xmlns="http://www.w3.org/2000/svg">
<path d="M143.571 144.857H6.42857C6.04969 144.857 5.68633 144.707 5.41842 144.439C5.15051 144.171 5 143.807 5 143.429V6.42857C5 6.04969 5.15051 5.68633 5.41842 5.41842C5.68633 5.15051 6.04969 5 6.42857 5H143.571C143.95 5 144.314 5.15051 144.582 5.41842C144.849 5.68633 145 6.04969 145 6.42857V143.429C145 143.807 144.849 144.171 144.582 144.439C144.314 144.707 143.95 144.857 143.571 144.857ZM7.85714 142H142.143V7.85714H7.85714V142Z" fill="#663366"/>
<path d="M134.858 135.289H15.1434C14.7645 135.289 14.4012 135.138 14.1333 134.87C13.8654 134.602 13.7148 134.239 13.7148 133.86V15.0028C13.7148 14.6239 13.8654 14.2605 14.1333 13.9926C14.4012 13.7247 14.7645 13.5742 15.1434 13.5742H134.858C135.237 13.5742 135.6 13.7247 135.868 13.9926C136.136 14.2605 136.286 14.6239 136.286 15.0028V133.86C136.286 134.239 136.136 134.602 135.868 134.87C135.6 135.138 135.237 135.289 134.858 135.289ZM16.572 132.431H133.429V16.4314H16.572V132.431Z" fill="#663366"/>
<path d="M52.2863 45.2165H15.1434C14.7645 45.2165 14.4012 45.066 14.1333 44.7981C13.8654 44.5302 13.7148 44.1668 13.7148 43.7879C13.7148 43.4091 13.8654 43.0457 14.1333 42.7778C14.4012 42.5099 14.7645 42.3594 15.1434 42.3594H52.2863C52.6652 42.3594 53.0285 42.5099 53.2964 42.7778C53.5643 43.0457 53.7148 43.4091 53.7148 43.7879C53.7148 44.1668 53.5643 44.5302 53.2964 44.7981C53.0285 45.066 52.6652 45.2165 52.2863 45.2165Z" fill="#663366"/>
<path d="M52.2863 52.2634H15.1434C14.7645 52.2634 14.4012 52.1129 14.1333 51.845C13.8654 51.5771 13.7148 51.2137 13.7148 50.8348C13.7148 50.4559 13.8654 50.0926 14.1333 49.8247C14.4012 49.5568 14.7645 49.4062 15.1434 49.4062H52.2863C52.6652 49.4062 53.0285 49.5568 53.2964 49.8247C53.5643 50.0926 53.7148 50.4559 53.7148 50.8348C53.7148 51.2137 53.5643 51.5771 53.2964 51.845C53.0285 52.1129 52.6652 52.2634 52.2863 52.2634Z" fill="#663366"/>
<path d="M134.571 45.2165H97.4286C97.0497 45.2165 96.6863 45.066 96.4184 44.7981C96.1505 44.5302 96 44.1668 96 43.7879C96 43.4091 96.1505 43.0457 96.4184 42.7778C96.6863 42.5099 97.0497 42.3594 97.4286 42.3594H134.571C134.95 42.3594 135.314 42.5099 135.582 42.7778C135.849 43.0457 136 43.4091 136 43.7879C136 44.1668 135.849 44.5302 135.582 44.7981C135.314 45.066 134.95 45.2165 134.571 45.2165Z" fill="#663366"/>
<path d="M134.571 52.2634H97.4286C97.0497 52.2634 96.6863 52.1129 96.4184 51.845C96.1505 51.5771 96 51.2137 96 50.8348C96 50.4559 96.1505 50.0926 96.4184 49.8247C96.6863 49.5568 97.0497 49.4062 97.4286 49.4062H134.571C134.95 49.4062 135.314 49.5568 135.582 49.8247C135.849 50.0926 136 50.4559 136 50.8348C136 51.2137 135.849 51.5771 135.582 51.845C135.314 52.1129 134.95 52.2634 134.571 52.2634Z" fill="#663366"/>
<path d="M97.4289 62.6451H52.286C51.9071 62.6451 51.5437 62.4946 51.2758 62.2267C51.0079 61.9588 50.8574 61.5954 50.8574 61.2165V33.7879C50.8574 33.4091 51.0079 33.0457 51.2758 32.7778C51.5437 32.5099 51.9071 32.3594 52.286 32.3594H97.4289C97.8077 32.3594 98.1711 32.5099 98.439 32.7778C98.7069 33.0457 98.8574 33.4091 98.8574 33.7879V61.2165C98.8574 61.5954 98.7069 61.9588 98.439 62.2267C98.1711 62.4946 97.8077 62.6451 97.4289 62.6451ZM53.7146 59.7879H96.0003V35.2165H53.7146V59.7879Z" fill="#663366"/>
<path d="M58.2372 40.7174C57.8583 40.7174 57.4949 40.5669 57.227 40.299C56.9591 40.0311 56.8086 39.6677 56.8086 39.2888V38.8231C56.8086 38.4442 56.9591 38.0809 57.227 37.8129C57.4949 37.545 57.8583 37.3945 58.2372 37.3945C58.616 37.3945 58.9794 37.545 59.2473 37.8129C59.5152 38.0809 59.6657 38.4442 59.6657 38.8231V39.2888C59.6657 39.6677 59.5152 40.0311 59.2473 40.299C58.9794 40.5669 58.616 40.7174 58.2372 40.7174Z" fill="#663366"/>
<path d="M91.4774 40.7174C91.0985 40.7174 90.7352 40.5669 90.4672 40.299C90.1993 40.0311 90.0488 39.6677 90.0488 39.2888V38.8231C90.0488 38.4442 90.1993 38.0809 90.4672 37.8129C90.7352 37.545 91.0985 37.3945 91.4774 37.3945C91.8563 37.3945 92.2196 37.545 92.4875 37.8129C92.7555 38.0809 92.906 38.4442 92.906 38.8231V39.2888C92.906 39.6677 92.7555 40.0311 92.4875 40.299C92.2196 40.5669 91.8563 40.7174 91.4774 40.7174Z" fill="#663366"/>
<path d="M58.2372 57.6158C57.8583 57.6158 57.4949 57.4653 57.227 57.1974C56.9591 56.9295 56.8086 56.5661 56.8086 56.1873V55.7215C56.8086 55.3427 56.9591 54.9793 57.227 54.7114C57.4949 54.4435 57.8583 54.293 58.2372 54.293C58.616 54.293 58.9794 54.4435 59.2473 54.7114C59.5152 54.9793 59.6657 55.3427 59.6657 55.7215V56.1873C59.6657 56.5661 59.5152 56.9295 59.2473 57.1974C58.9794 57.4653 58.616 57.6158 58.2372 57.6158Z" fill="#663366"/>
<path d="M91.4774 57.6158C91.0985 57.6158 90.7352 57.4653 90.4672 57.1974C90.1993 56.9295 90.0488 56.5661 90.0488 56.1873V55.7215C90.0488 55.3427 90.1993 54.9793 90.4672 54.7114C90.7352 54.4435 91.0985 54.293 91.4774 54.293C91.8563 54.293 92.2196 54.4435 92.4875 54.7114C92.7555 54.9793 92.906 55.3427 92.906 55.7215V56.1873C92.906 56.5661 92.7555 56.9295 92.4875 57.1974C92.2196 57.4653 91.8563 57.6158 91.4774 57.6158Z" fill="#663366"/>
<path d="M74.8566 74.6423C72.3698 74.6393 69.9857 73.6501 68.2272 71.8916C66.4688 70.1332 65.4796 67.7491 65.4766 65.2623V61.2137C65.4766 60.8348 65.6271 60.4715 65.895 60.2036C66.1629 59.9357 66.5263 59.7852 66.9051 59.7852C67.284 59.7852 67.6474 59.9357 67.9153 60.2036C68.1832 60.4715 68.3337 60.8348 68.3337 61.2137V65.2623C68.3337 66.9923 69.0209 68.6514 70.2442 69.8747C71.4675 71.0979 73.1266 71.7852 74.8566 71.7852C76.5865 71.7852 78.2456 71.0979 79.4689 69.8747C80.6922 68.6514 81.3794 66.9923 81.3794 65.2623V61.2137C81.3794 60.8348 81.5299 60.4715 81.7978 60.2036C82.0657 59.9357 82.4291 59.7852 82.808 59.7852C83.1869 59.7852 83.5502 59.9357 83.8181 60.2036C84.0861 60.4715 84.2366 60.8348 84.2366 61.2137V65.2623C84.2335 67.7491 83.2443 70.1332 81.4859 71.8916C79.7275 73.6501 77.3434 74.6393 74.8566 74.6423Z" fill="#663366"/>
<path d="M74.8563 78.6384C74.4774 78.6384 74.1141 78.4879 73.8462 78.22C73.5782 77.9521 73.4277 77.5887 73.4277 77.2098V73.2098C73.4277 72.8309 73.5782 72.4676 73.8462 72.1997C74.1141 71.9318 74.4774 71.7812 74.8563 71.7812C75.2352 71.7812 75.5985 71.9318 75.8665 72.1997C76.1344 72.4676 76.2849 72.8309 76.2849 73.2098V77.2098C76.2849 77.5887 76.1344 77.9521 75.8665 78.22C75.5985 78.4879 75.2352 78.6384 74.8563 78.6384Z" fill="#663366"/>
<path d="M107.914 36.0035C103.66 36.0035 100.737 33.1035 98.1402 30.5293C96.6544 29.0578 95.2545 27.6721 93.6859 26.815C93.463 26.6921 93.2373 26.5721 93.0059 26.4578C92.0932 27.4326 91.3829 28.5787 90.916 29.8297C90.4491 31.0808 90.2349 32.412 90.2859 33.7464C90.2995 34.1253 90.1621 34.4941 89.9038 34.7716C89.6456 35.0492 89.2876 35.2128 88.9087 35.2264C88.7211 35.2332 88.534 35.2029 88.3581 35.1373C88.1822 35.0718 88.021 34.9722 87.8835 34.8443C87.606 34.5861 87.4424 34.2281 87.4287 33.8493C87.3004 30.75 88.2969 27.7088 90.2345 25.2864C84.2345 23.2064 76.3716 23.0578 66.7687 24.8521C62.5802 25.6321 58.4687 27.1893 54.483 28.6921C49.7316 30.4921 44.8173 32.3493 39.5916 32.9778C31.7659 33.9407 23.3973 33.1064 14.7344 30.5035C14.3715 30.3944 14.0667 30.1456 13.8872 29.8118C13.7077 29.478 13.6682 29.0865 13.7773 28.7235C13.8864 28.3606 14.1353 28.0558 14.4691 27.8763C14.8029 27.6968 15.1943 27.6573 15.5573 27.7664C23.843 30.255 31.8202 31.055 39.2544 30.1435C44.1373 29.5407 48.683 27.8235 53.483 26.0064C57.5773 24.4578 61.8087 22.8635 66.2459 22.0264C77.0116 20.0264 85.8087 20.3664 92.4545 23.055C93.2687 22.4028 94.1464 21.8343 95.0745 21.3578C100.452 18.5921 106.82 19.035 111.303 22.5007C114.034 24.6064 115.329 28.4321 114.38 31.6035C113.612 34.175 111.523 35.7664 108.632 35.9835C108.386 35.995 108.143 36.0035 107.914 36.0035ZM95.3802 24.4807C97.1602 25.5321 98.6802 27.0521 100.152 28.5007C102.68 31.0093 105.066 33.3807 108.414 33.1293C110.103 33.0007 111.217 32.1893 111.64 30.7778C112.24 28.7778 111.326 26.1235 109.557 24.7607C105.946 21.9807 100.774 21.6435 96.3802 23.9035C96.0345 24.0864 95.7002 24.2778 95.3802 24.4807Z" fill="#663366"/>
<path d="M116.972 126.717H32.7433C32.5354 126.717 32.3299 126.672 32.1413 126.584C31.9527 126.496 31.7855 126.369 31.6514 126.21C31.5173 126.051 31.4194 125.865 31.3648 125.664C31.3101 125.463 31.2998 125.253 31.3348 125.048L35.049 103.048C35.1105 102.688 35.3079 102.365 35.6005 102.145L54.2348 88.1683C54.3807 88.0601 54.5454 87.9797 54.7205 87.9312L76.769 81.9683C77.024 81.896 77.2941 81.896 77.549 81.9683L100.038 88.6769C100.298 88.754 100.531 88.9036 100.709 89.1083L115.432 106.065C115.612 106.274 115.728 106.53 115.766 106.803L118.375 125.063C118.404 125.266 118.389 125.474 118.33 125.672C118.272 125.869 118.171 126.052 118.035 126.207C117.9 126.362 117.732 126.485 117.544 126.57C117.356 126.654 117.152 126.696 116.946 126.694L116.972 126.717ZM34.429 123.86H115.326L113 107.645L98.8262 91.3198L77.1119 84.8455L55.7433 90.6312L37.7833 104.1L34.429 123.86Z" fill="#663366"/>
<path d="M116.975 126.713C116.748 126.714 116.525 126.66 116.323 126.557C116.122 126.455 115.947 126.305 115.815 126.122L103.649 109.305L94.3689 125.979C94.2543 126.185 94.0905 126.36 93.8921 126.487C93.6936 126.615 93.4667 126.691 93.2316 126.709C92.9965 126.728 92.7605 126.688 92.5446 126.593C92.3288 126.498 92.1398 126.351 91.9946 126.165L76.1803 105.879L60.9032 126.142C60.7645 126.326 60.5835 126.473 60.3755 126.572C60.1675 126.671 59.9387 126.718 59.7086 126.709C59.4785 126.701 59.2539 126.636 59.054 126.522C58.8541 126.408 58.6847 126.247 58.5603 126.053L47.3603 108.625L33.8746 126.15C33.7602 126.299 33.6175 126.424 33.4549 126.518C33.2922 126.611 33.1127 126.672 32.9266 126.696C32.7405 126.721 32.5514 126.708 32.3702 126.659C32.1889 126.61 32.0191 126.526 31.8703 126.412C31.7216 126.297 31.5968 126.155 31.5031 125.992C31.4095 125.829 31.3488 125.65 31.3245 125.464C31.3002 125.278 31.3128 125.089 31.3616 124.907C31.4104 124.726 31.4945 124.556 31.6089 124.408L46.3317 105.265C46.4713 105.083 46.6524 104.938 46.8599 104.841C47.0675 104.744 47.2952 104.698 47.5241 104.708C47.753 104.717 47.9762 104.782 48.1749 104.895C48.3736 105.009 48.5421 105.169 48.666 105.362L59.8575 122.788L75.0203 102.685C75.1519 102.509 75.3222 102.366 75.5179 102.267C75.7136 102.168 75.9295 102.115 76.1489 102.113C76.3684 102.113 76.5851 102.162 76.783 102.257C76.9808 102.352 77.1547 102.49 77.2917 102.662L92.9203 122.713L102.246 105.965C102.363 105.755 102.531 105.578 102.734 105.45C102.938 105.322 103.17 105.247 103.41 105.233C103.65 105.219 103.889 105.265 104.106 105.368C104.323 105.471 104.511 105.627 104.652 105.822L118.143 124.448C118.297 124.66 118.389 124.91 118.41 125.171C118.431 125.432 118.379 125.694 118.261 125.928C118.143 126.162 117.963 126.359 117.741 126.497C117.518 126.636 117.262 126.711 117 126.713H116.975Z" fill="#663366"/>
<path d="M103.495 108.082H103.332L76.1436 104.982L47.595 107.574C47.3479 107.595 47.0996 107.551 46.8745 107.447C46.6493 107.343 46.4552 107.182 46.311 106.981C46.1669 106.779 46.0777 106.543 46.0524 106.296C46.0271 106.05 46.0664 105.8 46.1665 105.574L53.8065 88.7393C53.8926 88.5503 54.0188 88.3823 54.1765 88.2471C54.3341 88.1119 54.5193 88.0127 54.7193 87.9564C54.9192 87.9001 55.1289 87.888 55.334 87.9211C55.539 87.9542 55.7344 88.0316 55.9065 88.1479L74.8636 100.951L75.7207 83.2964C75.7301 83.1088 75.7764 82.9249 75.8568 82.7552C75.9373 82.5854 76.0504 82.4332 76.1897 82.3072C76.329 82.1812 76.4917 82.0838 76.6686 82.0207C76.8455 81.9576 77.0331 81.9299 77.2207 81.9393C77.4083 81.9487 77.5923 81.9949 77.762 82.0754C77.9317 82.1558 78.084 82.2689 78.21 82.4082C78.336 82.5475 78.4334 82.7102 78.4965 82.8872C78.5596 83.0641 78.5873 83.2517 78.5779 83.4393L77.655 102.296L101.655 105.022L98.2636 90.4079C98.2179 90.224 98.2092 90.0328 98.238 89.8455C98.2669 89.6582 98.3327 89.4786 98.4317 89.317C98.5307 89.1554 98.6608 89.0151 98.8145 88.9043C98.9682 88.7934 99.1425 88.7143 99.327 88.6715C99.5116 88.6286 99.7029 88.623 99.8897 88.6548C100.077 88.6866 100.255 88.7552 100.415 88.8567C100.575 88.9582 100.713 89.0906 100.822 89.246C100.93 89.4014 101.007 89.5769 101.046 89.7621L104.898 106.334C104.946 106.543 104.947 106.761 104.9 106.971C104.853 107.18 104.759 107.377 104.625 107.545C104.491 107.713 104.321 107.849 104.127 107.943C103.934 108.036 103.721 108.085 103.506 108.085L103.495 108.082ZM55.7065 91.4536L49.7807 104.511L72.0407 102.488L55.7065 91.4536Z" fill="#663366"/>
<path d="M76.1631 104.976C75.8479 104.977 75.5415 104.873 75.2914 104.681C75.0414 104.489 74.8618 104.22 74.7806 103.916C74.6995 103.611 74.7212 103.288 74.8426 102.998C74.964 102.707 75.1781 102.464 75.4516 102.308L98.9316 88.8277C99.0945 88.7339 99.2742 88.6731 99.4605 88.6488C99.6469 88.6244 99.8362 88.637 100.018 88.6859C100.199 88.7347 100.369 88.8187 100.518 88.9333C100.667 89.0478 100.792 89.1906 100.886 89.3535C100.98 89.5163 101.041 89.696 101.065 89.8823C101.089 90.0687 101.077 90.258 101.028 90.4395C100.979 90.6209 100.895 90.791 100.78 90.94C100.666 91.089 100.523 91.2139 100.36 91.3077L76.8802 104.785C76.6622 104.911 76.4148 104.977 76.1631 104.976Z" fill="#663366"/>
<path d="M24.8563 135.288C24.4774 135.288 24.1141 135.137 23.8462 134.87C23.5782 134.602 23.4277 134.238 23.4277 133.859V125.288C23.4277 124.909 23.5782 124.546 23.8462 124.278C24.1141 124.01 24.4774 123.859 24.8563 123.859H33.9992C34.378 123.859 34.7414 124.01 35.0093 124.278C35.2772 124.546 35.4277 124.909 35.4277 125.288C35.4277 125.667 35.2772 126.03 35.0093 126.298C34.7414 126.566 34.378 126.717 33.9992 126.717H26.2849V133.859C26.2849 134.238 26.1344 134.602 25.8665 134.87C25.5986 135.137 25.2352 135.288 24.8563 135.288Z" fill="#663366"/>
<path d="M125.429 135.288C125.05 135.288 124.687 135.137 124.419 134.87C124.151 134.602 124 134.238 124 133.859V126.717H116.286C115.907 126.717 115.544 126.566 115.276 126.298C115.008 126.03 114.857 125.667 114.857 125.288C114.857 124.909 115.008 124.546 115.276 124.278C115.544 124.01 115.907 123.859 116.286 123.859H125.429C125.808 123.859 126.171 124.01 126.439 124.278C126.707 124.546 126.857 124.909 126.857 125.288V133.859C126.857 134.238 126.707 134.602 126.439 134.87C126.171 135.137 125.808 135.288 125.429 135.288Z" fill="#663366"/>
</svg>
