<svg width="150" height="150" viewBox="0 0 150 150" fill="none" xmlns="http://www.w3.org/2000/svg">
<mask id="mask0_661_2576" style="mask-type:luminance" maskUnits="userSpaceOnUse" x="5" y="5" width="140" height="140">
<path d="M145 5H5V145H145V5Z" fill="white"/>
</mask>
<g mask="url(#mask0_661_2576)">
<mask id="mask1_661_2576" style="mask-type:luminance" maskUnits="userSpaceOnUse" x="5" y="5" width="140" height="140">
<path d="M5 5.00002H145V145H5V5.00002Z" fill="white"/>
</mask>
<g mask="url(#mask1_661_2576)">
<path d="M12.1387 117.246V51.9837C12.1387 50.4735 13.3629 49.2493 14.873 49.2493H47.4734" stroke="#663366" stroke-width="4.10156" stroke-miterlimit="10" stroke-linecap="round" stroke-linejoin="round"/>
<path d="M102.98 49.2493H135.125C136.635 49.2493 137.859 50.4734 137.859 51.9836V118.297" stroke="#663366" stroke-width="4.10156" stroke-miterlimit="10" stroke-linecap="round" stroke-linejoin="round"/>
<path d="M30.4414 74.293H36.5481" stroke="#663366" stroke-width="4.10156" stroke-miterlimit="10" stroke-linecap="round" stroke-linejoin="round"/>
<path d="M30.4414 66.6367H36.5481" stroke="#663366" stroke-width="4.10156" stroke-miterlimit="10" stroke-linecap="round" stroke-linejoin="round"/>
<path d="M48.8403 56.9632H19.6348V97.625" stroke="#663366" stroke-width="4.10156" stroke-miterlimit="10" stroke-linecap="round" stroke-linejoin="round"/>
<path d="M130.364 117.246V56.9621H100.977" stroke="#663366" stroke-width="4.10156" stroke-miterlimit="10" stroke-linecap="round" stroke-linejoin="round"/>
<path d="M19.6348 107.064V117.477" stroke="#663366" stroke-width="4.10156" stroke-miterlimit="10" stroke-linecap="round" stroke-linejoin="round"/>
<path d="M108.561 118.298H93.8051C93.1344 118.298 92.5312 118.706 92.2821 119.329L91.2135 122.001C90.9644 122.623 90.3609 123.032 89.6901 123.032H60.3098C59.6388 123.032 59.0356 122.623 58.7865 122.001L57.7179 119.329C57.4686 118.706 56.8653 118.298 56.1946 118.298H8.69141C7.78523 118.298 7.05078 119.032 7.05078 119.938V125.867C7.05078 128.283 9.00941 130.242 11.4258 130.242L138.574 130.242C140.991 130.242 142.949 128.283 142.949 125.867V119.938C142.949 119.032 142.214 118.298 141.309 118.298H118.001" stroke="#663366" stroke-width="4.10156" stroke-miterlimit="10" stroke-linecap="round" stroke-linejoin="round"/>
<path d="M86.7829 111.117C80.4309 111.117 75.2812 105.968 75.2812 99.6156C75.2812 90.3969 82.7546 82.9236 91.973 82.9236H101.834C102.74 82.9236 103.475 83.658 103.475 84.5642V94.4255C103.475 103.644 96.0015 111.117 86.7829 111.117Z" stroke="#663366" stroke-width="4.10156" stroke-miterlimit="10" stroke-linecap="round" stroke-linejoin="round"/>
<path d="M92.8204 93.5781L78.6992 107.699" stroke="#663366" stroke-width="4.10156" stroke-miterlimit="10" stroke-linecap="round" stroke-linejoin="round"/>
<path d="M63.7796 106.547C70.1318 106.547 75.2812 101.397 75.2812 95.045C75.2812 85.8263 67.8082 78.3533 58.5898 78.3533H48.7285C47.8223 78.3533 47.0879 79.0877 47.0879 79.9939V89.8552C47.0879 99.0736 54.5609 106.547 63.7796 106.547Z" stroke="#663366" stroke-width="4.10156" stroke-miterlimit="10" stroke-linecap="round" stroke-linejoin="round"/>
<path d="M57.7402 89.008L71.8614 103.129" stroke="#663366" stroke-width="4.10156" stroke-miterlimit="10" stroke-linecap="round" stroke-linejoin="round"/>
<path d="M75.2812 123.031V75.0003" stroke="#663366" stroke-width="4.10156" stroke-miterlimit="10" stroke-linecap="round" stroke-linejoin="round"/>
<path d="M97.2674 62.978C100.463 58.5026 102.344 53.0238 102.344 47.1055C102.344 32.0041 90.1017 19.7617 75 19.7617C59.8986 19.7617 47.6562 32.0041 47.6562 47.1055C47.6562 62.2071 59.8986 74.4492 75 74.4492C80.7742 74.4492 86.1292 72.6579 90.5425 69.6031" stroke="#663366" stroke-width="4.10156" stroke-miterlimit="10" stroke-linecap="round" stroke-linejoin="round"/>
<path d="M94.3339 47.1027C94.3339 57.781 85.6774 66.4375 74.9988 66.4375C64.3205 66.4375 55.6641 57.781 55.6641 47.1027C55.6641 36.4242 64.3205 27.7677 74.9988 27.7677C85.6774 27.7677 94.3339 36.4242 94.3339 47.1027Z" stroke="#663366" stroke-width="4.10156" stroke-miterlimit="10" stroke-linecap="round" stroke-linejoin="round"/>
<path d="M80.7895 38.1339L70.8148 38.1514C69.9089 38.1533 69.1758 38.8894 69.1777 39.7953L69.1879 44.6986C69.1898 45.6045 69.9259 46.3375 70.832 46.3356L79.1661 46.3217C80.072 46.3198 80.8081 47.0529 80.81 47.9588L80.8202 52.862C80.8223 53.7679 80.0893 54.504 79.1831 54.5059L69.2084 54.5234" stroke="#663366" stroke-width="4.10156" stroke-miterlimit="10" stroke-linecap="round" stroke-linejoin="round"/>
<path d="M75 34.7969V58.3125" stroke="#663366" stroke-width="4.10156" stroke-miterlimit="10" stroke-linecap="round" stroke-linejoin="round"/>
<path d="M94.3338 27.7677L89.5 32.6016" stroke="#663366" stroke-width="4.10156" stroke-miterlimit="10" stroke-linecap="round" stroke-linejoin="round"/>
<path d="M60.4976 61.6037L55.6641 66.4375" stroke="#663366" stroke-width="4.10156" stroke-miterlimit="10" stroke-linecap="round" stroke-linejoin="round"/>
</g>
</g>
</svg>
