<svg width="150" height="150" viewBox="0 0 150 150" fill="none" xmlns="http://www.w3.org/2000/svg">
<path d="M70.8857 5H93.5536C95.1094 5 96.3705 6.26113 96.3705 7.8169V27.0423C96.3705 28.598 95.1094 29.8592 93.5536 29.8592H55.8071C54.2514 29.8592 52.9902 28.598 52.9902 27.0423V7.8169C52.9902 6.26113 54.2514 5 55.8071 5H61.4356" stroke="#663366" stroke-width="4.22535" stroke-miterlimit="10" stroke-linecap="round" stroke-linejoin="round"/>
<path d="M53.3099 86.7481H43.9696C40.5471 86.7481 37.7725 83.9734 37.7725 80.5509V69.4531" stroke="#663366" stroke-width="4.22535" stroke-miterlimit="10" stroke-linecap="round" stroke-linejoin="round"/>
<path d="M70.1318 86.7462H106.03C109.453 86.7462 112.228 83.9715 112.228 80.549V79.8729V76.3828" stroke="#663366" stroke-width="4.22535" stroke-miterlimit="10" stroke-linecap="round" stroke-linejoin="round"/>
<path d="M112.228 67.0066V45.5055V44.7675C112.228 41.345 109.453 38.5703 106.031 38.5703H43.9687C40.5461 38.5703 37.7715 41.345 37.7715 44.7675V55.9534" stroke="#663366" stroke-width="4.22535" stroke-miterlimit="10" stroke-linecap="round" stroke-linejoin="round"/>
<path d="M76.8516 77.8672L85.6 86.5694" stroke="#663366" stroke-width="4.22535" stroke-miterlimit="10" stroke-linecap="round" stroke-linejoin="round"/>
<path d="M47.5752 66.0195H61.5769C63.7327 66.0195 65.8008 66.8731 67.329 68.3933L70.1312 71.1807" stroke="#663366" stroke-width="4.22535" stroke-miterlimit="10" stroke-linecap="round" stroke-linejoin="round"/>
<path d="M79.4568 20.9273C81.7904 20.9273 83.6821 19.0355 83.6821 16.7019C83.6821 14.3683 81.7904 12.4766 79.4568 12.4766C77.1232 12.4766 75.2314 14.3683 75.2314 16.7019C75.2314 19.0355 77.1232 20.9273 79.4568 20.9273Z" stroke="#663366" stroke-width="4.22535" stroke-miterlimit="10" stroke-linecap="round" stroke-linejoin="round"/>
<path d="M121.62 144.999H28.3803C15.4676 144.999 5 134.531 5 121.619C5 108.706 15.4676 98.2383 28.3803 98.2383H121.62C134.532 98.2383 145 108.706 145 121.619C145 134.531 134.532 144.999 121.62 144.999Z" stroke="#663366" stroke-width="4.22535" stroke-miterlimit="10" stroke-linecap="round" stroke-linejoin="round"/>
<path d="M14.334 139.942L19.1388 133.688" stroke="#663366" stroke-width="4.22535" stroke-miterlimit="10" stroke-linecap="round" stroke-linejoin="round"/>
<path d="M5.55371 125.162L13.3486 123.957" stroke="#663366" stroke-width="4.22535" stroke-miterlimit="10" stroke-linecap="round" stroke-linejoin="round"/>
<path d="M9.44434 108.414L15.9083 112.934" stroke="#663366" stroke-width="4.22535" stroke-miterlimit="10" stroke-linecap="round" stroke-linejoin="round"/>
<path d="M23.8145 98.9766L25.3716 106.709" stroke="#663366" stroke-width="4.22535" stroke-miterlimit="10" stroke-linecap="round" stroke-linejoin="round"/>
<path d="M39.1777 98.5195V106.407" stroke="#663366" stroke-width="4.22535" stroke-miterlimit="10" stroke-linecap="round" stroke-linejoin="round"/>
<path d="M53.7881 98.5195V106.407" stroke="#663366" stroke-width="4.22535" stroke-miterlimit="10" stroke-linecap="round" stroke-linejoin="round"/>
<path d="M68.3975 98.5195V106.407" stroke="#663366" stroke-width="4.22535" stroke-miterlimit="10" stroke-linecap="round" stroke-linejoin="round"/>
<path d="M83.0078 98.5195V106.407" stroke="#663366" stroke-width="4.22535" stroke-miterlimit="10" stroke-linecap="round" stroke-linejoin="round"/>
<path d="M97.6182 98.5195V106.407" stroke="#663366" stroke-width="4.22535" stroke-miterlimit="10" stroke-linecap="round" stroke-linejoin="round"/>
<path d="M112.228 98.5195V106.407" stroke="#663366" stroke-width="4.22535" stroke-miterlimit="10" stroke-linecap="round" stroke-linejoin="round"/>
<path d="M127.834 99.375L125.71 106.971" stroke="#663366" stroke-width="4.22535" stroke-miterlimit="10" stroke-linecap="round" stroke-linejoin="round"/>
<path d="M141.476 109.832L134.699 113.867" stroke="#663366" stroke-width="4.22535" stroke-miterlimit="10" stroke-linecap="round" stroke-linejoin="round"/>
<path d="M144.12 126.824L136.436 125.047" stroke="#663366" stroke-width="4.22535" stroke-miterlimit="10" stroke-linecap="round" stroke-linejoin="round"/>
<path d="M134.287 140.925L129.951 134.336" stroke="#663366" stroke-width="4.22535" stroke-miterlimit="10" stroke-linecap="round" stroke-linejoin="round"/>
<path d="M118.127 144.719V136.832" stroke="#663366" stroke-width="4.22535" stroke-miterlimit="10" stroke-linecap="round" stroke-linejoin="round"/>
<path d="M103.517 144.719V136.832" stroke="#663366" stroke-width="4.22535" stroke-miterlimit="10" stroke-linecap="round" stroke-linejoin="round"/>
<path d="M88.9072 144.719V136.832" stroke="#663366" stroke-width="4.22535" stroke-miterlimit="10" stroke-linecap="round" stroke-linejoin="round"/>
<path d="M74.2969 144.719V136.832" stroke="#663366" stroke-width="4.22535" stroke-miterlimit="10" stroke-linecap="round" stroke-linejoin="round"/>
<path d="M59.6875 144.719V136.832" stroke="#663366" stroke-width="4.22535" stroke-miterlimit="10" stroke-linecap="round" stroke-linejoin="round"/>
<path d="M45.0771 144.719V136.832" stroke="#663366" stroke-width="4.22535" stroke-miterlimit="10" stroke-linecap="round" stroke-linejoin="round"/>
<path d="M30.4678 144.719V136.832" stroke="#663366" stroke-width="4.22535" stroke-miterlimit="10" stroke-linecap="round" stroke-linejoin="round"/>
<path d="M28.3807 136.551C20.1486 136.551 13.4512 129.853 13.4512 121.621C13.4512 113.389 20.1486 106.691 28.3807 106.691H121.62C129.853 106.691 136.55 113.389 136.55 121.621C136.55 129.853 129.853 136.551 121.62 136.551H28.3807Z" stroke="#663366" stroke-width="4.22535" stroke-miterlimit="10" stroke-linecap="round" stroke-linejoin="round"/>
<path d="M28.3807 136.551C36.6261 136.551 43.3103 129.866 43.3103 121.621C43.3103 113.376 36.6261 106.691 28.3807 106.691C20.1354 106.691 13.4512 113.376 13.4512 121.621C13.4512 129.866 20.1354 136.551 28.3807 136.551Z" stroke="#663366" stroke-width="4.22535" stroke-miterlimit="10" stroke-linecap="round" stroke-linejoin="round"/>
<path d="M28.3798 127.099C31.406 127.099 33.8593 124.646 33.8593 121.62C33.8593 118.594 31.406 116.141 28.3798 116.141C25.3536 116.141 22.9004 118.594 22.9004 121.62C22.9004 124.646 25.3536 127.099 28.3798 127.099Z" stroke="#663366" stroke-width="4.22535" stroke-miterlimit="10" stroke-linecap="round" stroke-linejoin="round"/>
<path d="M73.9774 136.551C82.2228 136.551 88.907 129.866 88.907 121.621C88.907 113.376 82.2228 106.691 73.9774 106.691C65.7321 106.691 59.0479 113.376 59.0479 121.621C59.0479 129.866 65.7321 136.551 73.9774 136.551Z" stroke="#663366" stroke-width="4.22535" stroke-miterlimit="10" stroke-linecap="round" stroke-linejoin="round"/>
<path d="M73.9775 127.099C77.0037 127.099 79.4569 124.646 79.4569 121.62C79.4569 118.594 77.0037 116.141 73.9775 116.141C70.9513 116.141 68.498 118.594 68.498 121.62C68.498 124.646 70.9513 127.099 73.9775 127.099Z" stroke="#663366" stroke-width="4.22535" stroke-miterlimit="10" stroke-linecap="round" stroke-linejoin="round"/>
<path d="M121.62 136.551C129.865 136.551 136.55 129.866 136.55 121.621C136.55 113.376 129.865 106.691 121.62 106.691C113.375 106.691 106.69 113.376 106.69 121.621C106.69 129.866 113.375 136.551 121.62 136.551Z" stroke="#663366" stroke-width="4.22535" stroke-miterlimit="10" stroke-linecap="round" stroke-linejoin="round"/>
<path d="M121.62 127.099C124.646 127.099 127.099 124.646 127.099 121.62C127.099 118.594 124.646 116.141 121.62 116.141C118.594 116.141 116.141 118.594 116.141 121.62C116.141 124.646 118.594 127.099 121.62 127.099Z" stroke="#663366" stroke-width="4.22535" stroke-miterlimit="10" stroke-linecap="round" stroke-linejoin="round"/>
<path d="M47.7008 24.0748H45.138C44.4966 24.0748 43.9766 23.5548 43.9766 22.9134V11.9427C43.9766 11.3013 44.4966 10.7812 45.138 10.7812H47.7008C50.6222 10.7812 52.9906 13.1494 52.9906 16.0711V18.7852C52.9904 21.7066 50.6222 24.0748 47.7008 24.0748Z" stroke="#663366" stroke-width="4.22535" stroke-miterlimit="10" stroke-linecap="round" stroke-linejoin="round"/>
<path d="M101.219 87.5547V97.6017" stroke="#663366" stroke-width="4.22535" stroke-miterlimit="10" stroke-linecap="round" stroke-linejoin="round"/>
<path d="M48.7812 97.2333V87.5547" stroke="#663366" stroke-width="4.22535" stroke-miterlimit="10" stroke-linecap="round" stroke-linejoin="round"/>
<path d="M87.9034 29.8594H62.0967V38.5715H87.9034V29.8594Z" stroke="#663366" stroke-width="4.22535" stroke-miterlimit="10" stroke-linecap="round" stroke-linejoin="round"/>
<path d="M75.2313 16.6992H63.4502" stroke="#663366" stroke-width="4.22535" stroke-miterlimit="10" stroke-linecap="round" stroke-linejoin="round"/>
<path d="M21.04 33.9492L30.9305 36.5856L28.2414 48.0422" stroke="#663366" stroke-width="4.22535" stroke-miterlimit="10" stroke-linecap="round" stroke-linejoin="round"/>
<path d="M8.92383 46.0664L11.5602 55.9568L22.5543 53.3765" stroke="#663366" stroke-width="4.22535" stroke-miterlimit="10" stroke-linecap="round" stroke-linejoin="round"/>
<path d="M63.0527 78.9787L78.7192 63.3125" stroke="#663366" stroke-width="4.22535" stroke-miterlimit="10" stroke-linecap="round" stroke-linejoin="round"/>
<path d="M84.4489 69.5352L68.9199 85.0642" stroke="#663366" stroke-width="4.22535" stroke-miterlimit="10" stroke-linecap="round" stroke-linejoin="round"/>
<path d="M59.7653 78.8161L37.9453 56.9961" stroke="#663366" stroke-width="4.22535" stroke-miterlimit="10" stroke-linecap="round" stroke-linejoin="round"/>
<path d="M31.6895 62.6914L53.7883 84.7906" stroke="#663366" stroke-width="4.22535" stroke-miterlimit="10" stroke-linecap="round" stroke-linejoin="round"/>
<path d="M49.6934 49.0586H56.1063" stroke="#663366" stroke-width="4.22535" stroke-miterlimit="10" stroke-linecap="round" stroke-linejoin="round"/>
<path d="M49.6934 55.4922H56.1063" stroke="#663366" stroke-width="4.22535" stroke-miterlimit="10" stroke-linecap="round" stroke-linejoin="round"/>
<path d="M63.8476 58.7507H57.3794C56.6763 58.7507 56.1064 58.1809 56.1064 57.4778V47.0659C56.1064 46.3628 56.6763 45.793 57.3794 45.793H63.8476C64.5507 45.793 65.1205 46.3628 65.1205 47.0659V57.4778C65.1205 58.1809 64.5504 58.7507 63.8476 58.7507Z" stroke="#663366" stroke-width="4.22535" stroke-miterlimit="10" stroke-linecap="round" stroke-linejoin="round"/>
<path d="M90.5701 70.3921C97.7264 70.3921 103.528 64.5907 103.528 57.4343C103.528 50.2779 97.7264 44.4766 90.5701 44.4766C83.4137 44.4766 77.6123 50.2779 77.6123 57.4343C77.6123 64.5907 83.4137 70.3921 90.5701 70.3921Z" stroke="#663366" stroke-width="4.22535" stroke-miterlimit="10" stroke-linecap="round" stroke-linejoin="round"/>
<path d="M90.571 62.2259C93.2157 62.2259 95.3597 60.0819 95.3597 57.4372C95.3597 54.7924 93.2157 52.6484 90.571 52.6484C87.9262 52.6484 85.7822 54.7924 85.7822 57.4372C85.7822 60.0819 87.9262 62.2259 90.571 62.2259Z" stroke="#663366" stroke-width="4.22535" stroke-miterlimit="10" stroke-linecap="round" stroke-linejoin="round"/>
<path d="M29.8777 62.6909C33.9226 62.6909 37.2016 59.4118 37.2016 55.3669C37.2016 51.322 33.9226 48.043 29.8777 48.043C25.8328 48.043 22.5537 51.322 22.5537 55.3669C22.5537 59.4118 25.8328 62.6909 29.8777 62.6909Z" stroke="#663366" stroke-width="4.22535" stroke-miterlimit="10" stroke-linecap="round" stroke-linejoin="round"/>
<path d="M29.4141 55.596L30.178 54.832" stroke="#663366" stroke-width="4.22535" stroke-miterlimit="10" stroke-linecap="round" stroke-linejoin="round"/>
<path d="M61.2595 94.0698C65.3044 94.0698 68.5834 90.7907 68.5834 86.7458C68.5834 82.7009 65.3044 79.4219 61.2595 79.4219C57.2146 79.4219 53.9355 82.7009 53.9355 86.7458C53.9355 90.7907 57.2146 94.0698 61.2595 94.0698Z" stroke="#663366" stroke-width="4.22535" stroke-miterlimit="10" stroke-linecap="round" stroke-linejoin="round"/>
<path d="M60.9424 87.0644L61.6475 86.3594" stroke="#663366" stroke-width="4.22535" stroke-miterlimit="10" stroke-linecap="round" stroke-linejoin="round"/>
<path d="M131.946 62.2266V67.0094" stroke="#663366" stroke-width="4.22535" stroke-miterlimit="10" stroke-linecap="round" stroke-linejoin="round"/>
<path d="M112.229 67.0087V45.5076C112.229 40.0625 116.643 35.6484 122.088 35.6484C124.809 35.6484 127.276 36.7527 129.06 38.5358C130.843 40.3189 131.947 42.7865 131.947 45.5076V52.2744" stroke="#663366" stroke-width="4.22535" stroke-miterlimit="10" stroke-linecap="round" stroke-linejoin="round"/>
<path d="M131.947 76.3828V79.8729C131.947 85.318 127.533 89.7321 122.088 89.7321C116.643 89.7321 112.229 85.318 112.229 79.8729V76.3828" stroke="#663366" stroke-width="4.22535" stroke-miterlimit="10" stroke-linecap="round" stroke-linejoin="round"/>
<path d="M133.967 76.3843H108.763C106.43 76.3843 104.538 74.4925 104.538 72.1589C104.538 69.8254 106.43 67.9336 108.763 67.9336H133.967C134.827 67.9336 135.524 68.6308 135.524 69.4905V74.8271C135.524 75.6871 134.827 76.3843 133.967 76.3843Z" stroke="#663366" stroke-width="4.22535" stroke-miterlimit="10" stroke-linecap="round" stroke-linejoin="round"/>
<path d="M105.254 37.8536V31.3164C105.254 28.2119 107.771 25.6953 110.875 25.6953H116.465C119.57 25.6953 122.087 28.2119 122.087 31.3164V34.2426" stroke="#663366" stroke-width="4.22535" stroke-miterlimit="10" stroke-linecap="round" stroke-linejoin="round"/>
<path d="M120.354 50.6289H123.818" stroke="#663366" stroke-width="4.22535" stroke-miterlimit="10" stroke-linecap="round" stroke-linejoin="round"/>
<path d="M120.354 57.6328H123.818" stroke="#663366" stroke-width="4.22535" stroke-miterlimit="10" stroke-linecap="round" stroke-linejoin="round"/>
<path d="M97.1533 116.418H99.2474" stroke="#663366" stroke-width="4.22535" stroke-miterlimit="10" stroke-linecap="round" stroke-linejoin="round"/>
<path d="M97.1533 126.277H99.2474" stroke="#663366" stroke-width="4.22535" stroke-miterlimit="10" stroke-linecap="round" stroke-linejoin="round"/>
<path d="M50.7529 116.418H52.847" stroke="#663366" stroke-width="4.22535" stroke-miterlimit="10" stroke-linecap="round" stroke-linejoin="round"/>
<path d="M50.7529 126.277H52.847" stroke="#663366" stroke-width="4.22535" stroke-miterlimit="10" stroke-linecap="round" stroke-linejoin="round"/>
</svg>
