<svg width="150" height="150" viewBox="0 0 150 150" fill="none" xmlns="http://www.w3.org/2000/svg">
<path d="M58.0299 45.4553C58.0953 43.5737 57.7767 40.8756 58.706 36.9706C59.7665 32.4624 62.066 28.2962 65.395 24.9672L67.0806 23.2816C71.453 18.9061 78.5465 18.9061 82.9188 23.2816L84.6045 24.9672C89.4388 29.8016 91.9692 36.2568 91.9692 42.7486V45.4553" stroke="#663366" stroke-width="4.22534" stroke-miterlimit="10" stroke-linecap="round" stroke-linejoin="round"/>
<path d="M67.5766 75.1528H66.9402C62.0191 75.1528 58.0312 71.1649 58.0312 66.2438V64.5469" stroke="#663366" stroke-width="4.22534" stroke-miterlimit="10" stroke-linecap="round" stroke-linejoin="round"/>
<path d="M91.9692 64.5469V66.2438C91.9692 71.1649 87.9813 75.1528 83.0602 75.1528H82.4238" stroke="#663366" stroke-width="4.22534" stroke-miterlimit="10" stroke-linecap="round" stroke-linejoin="round"/>
<path d="M66.5156 47.5787V42.7509C66.5156 38.3303 68.272 34.0934 71.3973 30.9684L73.0801 29.2828C74.1443 28.223 75.8578 28.2239 76.9209 29.2828L78.6038 30.9684C81.7291 34.0937 83.4854 38.3303 83.4854 42.7509V47.5787H66.5156Z" stroke="#663366" stroke-width="4.22534" stroke-miterlimit="10" stroke-linecap="round" stroke-linejoin="round"/>
<path d="M44.9809 54.0069L42.6815 62.0618C41.3012 66.8925 46.4488 70.982 50.8412 68.5415L58.0307 64.548V45.457H56.3169C51.0862 45.457 46.4367 48.9198 44.9809 54.0069Z" stroke="#663366" stroke-width="4.22534" stroke-miterlimit="10" stroke-linecap="round" stroke-linejoin="round"/>
<path d="M105.021 54.0069L107.32 62.0618C108.7 66.8925 103.553 70.982 99.1603 68.5415L91.9707 64.548V45.457H93.6848C98.9152 45.457 103.565 48.9198 105.021 54.0069Z" stroke="#663366" stroke-width="4.22534" stroke-miterlimit="10" stroke-linecap="round" stroke-linejoin="round"/>
<path d="M81.7722 90.0007C67.3897 89.972 68.1192 90.065 67.3339 89.9188C64.1463 89.356 62.2457 85.8177 63.7646 82.7746L67.577 75.1523H82.4254L86.2378 82.7746C87.9017 86.1081 85.4651 90.0007 81.7722 90.0007Z" stroke="#663366" stroke-width="4.22534" stroke-miterlimit="10" stroke-linecap="round" stroke-linejoin="round"/>
<path d="M48.8383 106.266C52.3528 106.266 55.2019 103.417 55.2019 99.9027C55.2019 96.3882 52.3528 93.5391 48.8383 93.5391C45.3237 93.5391 42.4746 96.3882 42.4746 99.9027C42.4746 103.417 45.3237 106.266 48.8383 106.266Z" stroke="#663366" stroke-width="4.22534" stroke-miterlimit="10" stroke-linecap="round" stroke-linejoin="round"/>
<path d="M103.991 109.094C107.505 109.094 110.354 106.245 110.354 102.731C110.354 99.2163 107.505 96.3672 103.991 96.3672C100.476 96.3672 97.627 99.2163 97.627 102.731C97.627 106.245 100.476 109.094 103.991 109.094Z" stroke="#663366" stroke-width="4.22534" stroke-miterlimit="10" stroke-linecap="round" stroke-linejoin="round"/>
<path d="M34.1312 130.306H19.3309C11.4146 130.306 5 123.891 5 115.975V51.3036C5 43.3873 11.4146 36.9727 19.3309 36.9727H58.7063" stroke="#663366" stroke-width="4.22534" stroke-miterlimit="10" stroke-linecap="round" stroke-linejoin="round"/>
<path d="M91.2945 36.9727H130.67C138.586 36.9727 145.001 43.3873 145.001 51.3036V115.975C145.001 123.891 138.586 130.306 130.67 130.306H44.0312" stroke="#663366" stroke-width="4.22534" stroke-miterlimit="10" stroke-linecap="round" stroke-linejoin="round"/>
<path d="M17.4148 70.9102H18.0427C20.2119 70.9102 21.9711 72.6693 21.9711 74.8386V92.436C21.9711 94.6053 20.2119 96.3644 18.0427 96.3644H17.4148C15.2455 96.3644 13.4863 94.6053 13.4863 92.436V74.8386C13.4863 72.6693 15.2455 70.9102 17.4148 70.9102Z" stroke="#663366" stroke-width="4.22534" stroke-miterlimit="10" stroke-linecap="round" stroke-linejoin="round"/>
<path d="M132.274 81.9977V112.062C132.274 116.279 128.854 119.699 124.637 119.699H22.8674C20.0277 119.699 17.7285 117.399 17.7285 114.56V110.677C17.7285 108.465 19.1426 106.499 21.2412 105.801L22.7854 105.286C27.3671 103.759 30.4555 99.474 30.4555 94.6433V72.6338C30.4555 67.8031 27.3671 63.5184 22.7854 61.991L21.2412 61.4764C19.1426 60.7778 17.7285 58.8122 17.7285 56.6004V52.717C17.7285 49.8773 20.0279 47.5781 22.8674 47.5781H49.5749" stroke="#663366" stroke-width="4.22534" stroke-miterlimit="10" stroke-linecap="round" stroke-linejoin="round"/>
<path d="M100.428 47.5781H124.638C128.855 47.5781 132.274 50.9976 132.274 55.2144V72.0992" stroke="#663366" stroke-width="4.22534" stroke-miterlimit="10" stroke-linecap="round" stroke-linejoin="round"/>
<path d="M82.6672 89.918L79.259 98.4424C77.7205 102.289 72.2788 102.289 70.7402 98.4424L67.332 89.918" stroke="#663366" stroke-width="4.22534" stroke-miterlimit="10" stroke-linecap="round" stroke-linejoin="round"/>
</svg>
