<svg width="150" height="150" viewBox="0 0 150 150" fill="none" xmlns="http://www.w3.org/2000/svg">
<mask id="path-1-outside-1_661_3368" maskUnits="userSpaceOnUse" x="4" y="13" width="142" height="124" fill="black">
<rect fill="white" x="4" y="13" width="142" height="124"/>
<path fill-rule="evenodd" clip-rule="evenodd" d="M35.3658 19.4102C36.4478 19.4102 37.4268 19.8489 38.1357 20.5563C38.8446 21.2667 39.2818 22.2457 39.2818 23.3277C39.2818 24.4066 38.8446 25.3856 38.1357 26.096C37.4268 26.8034 36.4478 27.2421 35.3658 27.2421C34.2853 27.2421 33.3063 26.8034 32.5975 26.096C31.8886 25.3856 31.4514 24.4066 31.4514 23.3277C31.4514 22.2457 31.8886 21.2667 32.5975 20.5563C33.3063 19.8489 34.2853 19.4102 35.3658 19.4102ZM81.1331 71.765V53.2111L86.993 48.0054L92.3704 43.226C92.8357 42.8107 93.1917 42.3266 93.44 41.777C93.6851 41.2306 93.81 40.6419 93.81 40.0236V32.6523H137.905C139.715 32.6523 141.385 32.2073 142.622 31.4906C144.088 30.6366 145 29.3828 145 27.9322V18.7232C145 17.2711 144.09 16.0157 142.622 15.1617C141.387 14.445 139.716 14 137.905 14H92.3813H67.0276H21.5038C19.6942 14 18.0235 14.445 16.7869 15.1617C15.3192 16.0157 14.4089 17.2727 14.4089 18.7232V21.8975H13.8812C11.4704 21.8975 9.26883 22.8 7.66372 24.2521C6.02115 25.7401 5 27.798 5 30.0713C5 32.34 6.02115 34.3979 7.66372 35.8875C9.26883 37.3396 11.4704 38.2421 13.8812 38.2421H65.5989V40.0267C65.5989 40.645 65.7238 41.2337 65.9689 41.7802C66.2141 42.3298 66.5732 42.8138 67.0369 43.2291L72.4159 48.0085L78.2758 53.2142V71.7681C77.2156 72.2927 76.488 73.3841 76.488 74.6473C76.488 74.7972 76.4989 74.9455 76.5192 75.0923L41.1695 99.1173C40.7276 99.3578 40.4278 99.8278 40.4278 100.368C40.4278 101.158 41.068 101.798 41.8565 101.798H52.4692V134.49C52.4692 135.281 53.1078 135.918 53.8979 135.918H72.0006H87.4083H105.425C106.214 135.918 106.854 135.281 106.854 134.49V101.797H117.552V101.79C118.008 101.79 118.455 101.57 118.73 101.166C119.17 100.516 119.001 99.6326 118.35 99.1891L82.8897 75.0892C82.91 74.9424 82.9209 74.7941 82.9209 74.6442C82.9193 73.381 82.1917 72.2896 81.1331 71.765ZM81.2893 77.4406L112.92 98.9409H105.861L94.3268 91.0856C94.3003 91.0668 94.2737 91.0497 94.2456 91.034L80.5023 81.6938C79.9964 81.3519 79.35 81.3769 78.88 81.7126L65.0868 91.0871L65.0836 91.084L53.4638 98.9425H46.4891L78.1196 77.4422C78.5881 77.7076 79.1283 77.8606 79.7045 77.8606C80.2806 77.8606 80.8224 77.7061 81.2893 77.4406ZM79.7045 84.5886L92.6468 93.3839C92.6717 93.4027 92.6952 93.4198 92.7202 93.4386L103.998 101.121V133.062H88.8385V109.543C88.8385 108.756 88.1984 108.116 87.4099 108.116H72.0021C71.2136 108.116 70.5735 108.756 70.5735 109.543V133.062H55.3266V101.124L66.6794 93.4448L66.6763 93.4417H66.6794L79.7045 84.5886ZM73.4292 133.062V110.973H85.9797V133.06L73.4292 133.062ZM79.7045 90.2299C81.4438 90.2299 83.0193 90.9341 84.1606 92.0755C85.302 93.2169 86.0062 94.7923 86.0062 96.5317C86.0062 98.2711 85.302 99.8465 84.1606 100.988C83.0208 102.126 81.4454 102.833 79.7045 102.833C77.9666 102.833 76.3912 102.126 75.2498 100.988C74.1116 99.8481 73.4043 98.2711 73.4043 96.5317C73.4043 94.7923 74.1085 93.2169 75.2498 92.0755C76.3912 90.9341 77.9651 90.2299 79.7045 90.2299ZM82.1386 94.0975C82.7601 94.7189 83.1473 95.5792 83.1473 96.5317C83.1473 97.4841 82.7616 98.3429 82.1386 98.9659C81.5157 99.5889 80.6553 99.9745 79.7029 99.9745C78.7536 99.9745 77.8917 99.5873 77.2687 98.9659C76.6457 98.3444 76.26 97.4841 76.26 96.5317C76.26 95.5792 76.6441 94.7205 77.2687 94.0975C77.8901 93.4729 78.752 93.0888 79.7029 93.0888C80.6553 93.0873 81.5172 93.4714 82.1386 94.0975ZM65.5989 32.6539H21.5038C19.6942 32.6539 18.0235 32.2089 16.7869 31.4922C15.3208 30.6381 14.4089 29.3843 14.4089 27.9338V24.7564H13.8812C12.1917 24.7564 10.6663 25.3731 9.57173 26.363C8.51312 27.3202 7.85577 28.6317 7.85577 30.0713C7.85577 31.5078 8.51312 32.8194 9.57173 33.7765C10.6663 34.7711 12.1917 35.3832 13.8812 35.3832H65.5989V32.6539ZM93.81 29.7965V16.8573H137.905C139.21 16.8573 140.372 17.1524 141.192 17.6287C141.777 17.9706 142.141 18.3609 142.141 18.7232V27.9322C142.141 28.2914 141.777 28.6817 141.192 29.0236C140.372 29.4999 139.209 29.795 137.905 29.795L93.81 29.7965ZM65.5989 16.8573H21.5038C20.1985 16.8573 19.0353 17.1524 18.2171 17.6287C17.63 17.9706 17.2678 18.3609 17.2678 18.7232V23.3277V27.9322C17.2678 28.2914 17.63 28.6817 18.2171 29.0236C19.0353 29.4999 20.2001 29.795 21.5038 29.795H65.5989V16.8573ZM90.9542 40.0252C90.9542 40.2516 90.9152 40.4483 90.8402 40.6169C90.7653 40.7856 90.642 40.9464 90.4749 41.0963L85.0959 45.8757L79.706 50.666L74.3161 45.8757L68.9387 41.0963C68.7716 40.9464 68.6467 40.7856 68.5733 40.6169C68.5 40.4483 68.4594 40.2516 68.4594 40.0252V16.8573H90.9574V31.2268V40.0252H90.9542ZM79.7045 25.5636C81.269 25.5636 82.6836 26.1975 83.7078 27.2234C84.7321 28.2492 85.366 29.6638 85.366 31.2268C85.366 32.7881 84.7337 34.2059 83.7078 35.2301C82.682 36.2544 81.2674 36.8868 79.7045 36.8868C78.1415 36.8868 76.7269 36.256 75.7026 35.2301C74.6784 34.2043 74.0429 32.7881 74.0429 31.2268C74.0429 29.6623 74.6768 28.2476 75.7026 27.2234C76.7285 26.1991 78.1415 25.5636 79.7045 25.5636ZM81.6874 29.2422C82.1949 29.7513 82.5087 30.4523 82.5087 31.2268C82.5087 32.0012 82.1949 32.7023 81.6874 33.2097C81.18 33.7187 80.4805 34.0294 79.7029 34.0294C78.9284 34.0294 78.2289 33.7187 77.7199 33.2097C77.2125 32.7038 76.8986 32.0028 76.8986 31.2268C76.8986 30.4508 77.2125 29.7513 77.7199 29.2422C78.2274 28.7364 78.9269 28.4225 79.7029 28.4225C80.4805 28.4209 81.18 28.7348 81.6874 29.2422ZM24.6407 19.4102C25.7211 19.4102 26.7017 19.8489 27.4106 20.5563C28.1179 21.2667 28.5566 22.2457 28.5566 23.3277C28.5566 24.4066 28.1179 25.3856 27.4106 26.096C26.7017 26.8034 25.7211 27.2421 24.6407 27.2421C23.5602 27.2421 22.5812 26.8034 21.8723 26.096C21.1635 25.3856 20.7247 24.4066 20.7247 23.3277C20.7247 22.2457 21.1635 21.2667 21.8723 20.5563C22.5812 19.8489 23.5602 19.4102 24.6407 19.4102ZM25.3901 22.5782C25.5822 22.7703 25.7008 23.0357 25.7008 23.3277C25.7008 23.6197 25.5822 23.8851 25.3901 24.0756C25.1996 24.2677 24.9342 24.3863 24.6422 24.3863C24.3502 24.3863 24.0848 24.2677 23.8928 24.0756C23.7023 23.8867 23.5836 23.6213 23.5836 23.3277C23.5836 23.0342 23.7023 22.7703 23.8928 22.5782C24.0848 22.3862 24.3502 22.2675 24.6422 22.2675C24.9342 22.2675 25.1981 22.3862 25.3901 22.5782ZM36.1168 22.5782C35.9248 22.3862 35.6609 22.2675 35.3674 22.2675C35.0738 22.2675 34.81 22.3862 34.6195 22.5782C34.4274 22.7703 34.3088 23.0357 34.3088 23.3277C34.3088 23.6197 34.4274 23.8851 34.6195 24.0756C34.81 24.2677 35.0754 24.3863 35.3674 24.3863C35.6609 24.3863 35.9248 24.2677 36.1168 24.0756C36.3089 23.8867 36.4276 23.6213 36.4276 23.3277C36.4276 23.0342 36.3089 22.7703 36.1168 22.5782Z"/>
</mask>
<path fill-rule="evenodd" clip-rule="evenodd" d="M35.3658 19.4102C36.4478 19.4102 37.4268 19.8489 38.1357 20.5563C38.8446 21.2667 39.2818 22.2457 39.2818 23.3277C39.2818 24.4066 38.8446 25.3856 38.1357 26.096C37.4268 26.8034 36.4478 27.2421 35.3658 27.2421C34.2853 27.2421 33.3063 26.8034 32.5975 26.096C31.8886 25.3856 31.4514 24.4066 31.4514 23.3277C31.4514 22.2457 31.8886 21.2667 32.5975 20.5563C33.3063 19.8489 34.2853 19.4102 35.3658 19.4102ZM81.1331 71.765V53.2111L86.993 48.0054L92.3704 43.226C92.8357 42.8107 93.1917 42.3266 93.44 41.777C93.6851 41.2306 93.81 40.6419 93.81 40.0236V32.6523H137.905C139.715 32.6523 141.385 32.2073 142.622 31.4906C144.088 30.6366 145 29.3828 145 27.9322V18.7232C145 17.2711 144.09 16.0157 142.622 15.1617C141.387 14.445 139.716 14 137.905 14H92.3813H67.0276H21.5038C19.6942 14 18.0235 14.445 16.7869 15.1617C15.3192 16.0157 14.4089 17.2727 14.4089 18.7232V21.8975H13.8812C11.4704 21.8975 9.26883 22.8 7.66372 24.2521C6.02115 25.7401 5 27.798 5 30.0713C5 32.34 6.02115 34.3979 7.66372 35.8875C9.26883 37.3396 11.4704 38.2421 13.8812 38.2421H65.5989V40.0267C65.5989 40.645 65.7238 41.2337 65.9689 41.7802C66.2141 42.3298 66.5732 42.8138 67.0369 43.2291L72.4159 48.0085L78.2758 53.2142V71.7681C77.2156 72.2927 76.488 73.3841 76.488 74.6473C76.488 74.7972 76.4989 74.9455 76.5192 75.0923L41.1695 99.1173C40.7276 99.3578 40.4278 99.8278 40.4278 100.368C40.4278 101.158 41.068 101.798 41.8565 101.798H52.4692V134.49C52.4692 135.281 53.1078 135.918 53.8979 135.918H72.0006H87.4083H105.425C106.214 135.918 106.854 135.281 106.854 134.49V101.797H117.552V101.79C118.008 101.79 118.455 101.57 118.73 101.166C119.17 100.516 119.001 99.6326 118.35 99.1891L82.8897 75.0892C82.91 74.9424 82.9209 74.7941 82.9209 74.6442C82.9193 73.381 82.1917 72.2896 81.1331 71.765ZM81.2893 77.4406L112.92 98.9409H105.861L94.3268 91.0856C94.3003 91.0668 94.2737 91.0497 94.2456 91.034L80.5023 81.6938C79.9964 81.3519 79.35 81.3769 78.88 81.7126L65.0868 91.0871L65.0836 91.084L53.4638 98.9425H46.4891L78.1196 77.4422C78.5881 77.7076 79.1283 77.8606 79.7045 77.8606C80.2806 77.8606 80.8224 77.7061 81.2893 77.4406ZM79.7045 84.5886L92.6468 93.3839C92.6717 93.4027 92.6952 93.4198 92.7202 93.4386L103.998 101.121V133.062H88.8385V109.543C88.8385 108.756 88.1984 108.116 87.4099 108.116H72.0021C71.2136 108.116 70.5735 108.756 70.5735 109.543V133.062H55.3266V101.124L66.6794 93.4448L66.6763 93.4417H66.6794L79.7045 84.5886ZM73.4292 133.062V110.973H85.9797V133.06L73.4292 133.062ZM79.7045 90.2299C81.4438 90.2299 83.0193 90.9341 84.1606 92.0755C85.302 93.2169 86.0062 94.7923 86.0062 96.5317C86.0062 98.2711 85.302 99.8465 84.1606 100.988C83.0208 102.126 81.4454 102.833 79.7045 102.833C77.9666 102.833 76.3912 102.126 75.2498 100.988C74.1116 99.8481 73.4043 98.2711 73.4043 96.5317C73.4043 94.7923 74.1085 93.2169 75.2498 92.0755C76.3912 90.9341 77.9651 90.2299 79.7045 90.2299ZM82.1386 94.0975C82.7601 94.7189 83.1473 95.5792 83.1473 96.5317C83.1473 97.4841 82.7616 98.3429 82.1386 98.9659C81.5157 99.5889 80.6553 99.9745 79.7029 99.9745C78.7536 99.9745 77.8917 99.5873 77.2687 98.9659C76.6457 98.3444 76.26 97.4841 76.26 96.5317C76.26 95.5792 76.6441 94.7205 77.2687 94.0975C77.8901 93.4729 78.752 93.0888 79.7029 93.0888C80.6553 93.0873 81.5172 93.4714 82.1386 94.0975ZM65.5989 32.6539H21.5038C19.6942 32.6539 18.0235 32.2089 16.7869 31.4922C15.3208 30.6381 14.4089 29.3843 14.4089 27.9338V24.7564H13.8812C12.1917 24.7564 10.6663 25.3731 9.57173 26.363C8.51312 27.3202 7.85577 28.6317 7.85577 30.0713C7.85577 31.5078 8.51312 32.8194 9.57173 33.7765C10.6663 34.7711 12.1917 35.3832 13.8812 35.3832H65.5989V32.6539ZM93.81 29.7965V16.8573H137.905C139.21 16.8573 140.372 17.1524 141.192 17.6287C141.777 17.9706 142.141 18.3609 142.141 18.7232V27.9322C142.141 28.2914 141.777 28.6817 141.192 29.0236C140.372 29.4999 139.209 29.795 137.905 29.795L93.81 29.7965ZM65.5989 16.8573H21.5038C20.1985 16.8573 19.0353 17.1524 18.2171 17.6287C17.63 17.9706 17.2678 18.3609 17.2678 18.7232V23.3277V27.9322C17.2678 28.2914 17.63 28.6817 18.2171 29.0236C19.0353 29.4999 20.2001 29.795 21.5038 29.795H65.5989V16.8573ZM90.9542 40.0252C90.9542 40.2516 90.9152 40.4483 90.8402 40.6169C90.7653 40.7856 90.642 40.9464 90.4749 41.0963L85.0959 45.8757L79.706 50.666L74.3161 45.8757L68.9387 41.0963C68.7716 40.9464 68.6467 40.7856 68.5733 40.6169C68.5 40.4483 68.4594 40.2516 68.4594 40.0252V16.8573H90.9574V31.2268V40.0252H90.9542ZM79.7045 25.5636C81.269 25.5636 82.6836 26.1975 83.7078 27.2234C84.7321 28.2492 85.366 29.6638 85.366 31.2268C85.366 32.7881 84.7337 34.2059 83.7078 35.2301C82.682 36.2544 81.2674 36.8868 79.7045 36.8868C78.1415 36.8868 76.7269 36.256 75.7026 35.2301C74.6784 34.2043 74.0429 32.7881 74.0429 31.2268C74.0429 29.6623 74.6768 28.2476 75.7026 27.2234C76.7285 26.1991 78.1415 25.5636 79.7045 25.5636ZM81.6874 29.2422C82.1949 29.7513 82.5087 30.4523 82.5087 31.2268C82.5087 32.0012 82.1949 32.7023 81.6874 33.2097C81.18 33.7187 80.4805 34.0294 79.7029 34.0294C78.9284 34.0294 78.2289 33.7187 77.7199 33.2097C77.2125 32.7038 76.8986 32.0028 76.8986 31.2268C76.8986 30.4508 77.2125 29.7513 77.7199 29.2422C78.2274 28.7364 78.9269 28.4225 79.7029 28.4225C80.4805 28.4209 81.18 28.7348 81.6874 29.2422ZM24.6407 19.4102C25.7211 19.4102 26.7017 19.8489 27.4106 20.5563C28.1179 21.2667 28.5566 22.2457 28.5566 23.3277C28.5566 24.4066 28.1179 25.3856 27.4106 26.096C26.7017 26.8034 25.7211 27.2421 24.6407 27.2421C23.5602 27.2421 22.5812 26.8034 21.8723 26.096C21.1635 25.3856 20.7247 24.4066 20.7247 23.3277C20.7247 22.2457 21.1635 21.2667 21.8723 20.5563C22.5812 19.8489 23.5602 19.4102 24.6407 19.4102ZM25.3901 22.5782C25.5822 22.7703 25.7008 23.0357 25.7008 23.3277C25.7008 23.6197 25.5822 23.8851 25.3901 24.0756C25.1996 24.2677 24.9342 24.3863 24.6422 24.3863C24.3502 24.3863 24.0848 24.2677 23.8928 24.0756C23.7023 23.8867 23.5836 23.6213 23.5836 23.3277C23.5836 23.0342 23.7023 22.7703 23.8928 22.5782C24.0848 22.3862 24.3502 22.2675 24.6422 22.2675C24.9342 22.2675 25.1981 22.3862 25.3901 22.5782ZM36.1168 22.5782C35.9248 22.3862 35.6609 22.2675 35.3674 22.2675C35.0738 22.2675 34.81 22.3862 34.6195 22.5782C34.4274 22.7703 34.3088 23.0357 34.3088 23.3277C34.3088 23.6197 34.4274 23.8851 34.6195 24.0756C34.81 24.2677 35.0754 24.3863 35.3674 24.3863C35.6609 24.3863 35.9248 24.2677 36.1168 24.0756C36.3089 23.8867 36.4276 23.6213 36.4276 23.3277C36.4276 23.0342 36.3089 22.7703 36.1168 22.5782Z" fill="#663366"/>
<path fill-rule="evenodd" clip-rule="evenodd" d="M35.3658 19.4102C36.4478 19.4102 37.4268 19.8489 38.1357 20.5563C38.8446 21.2667 39.2818 22.2457 39.2818 23.3277C39.2818 24.4066 38.8446 25.3856 38.1357 26.096C37.4268 26.8034 36.4478 27.2421 35.3658 27.2421C34.2853 27.2421 33.3063 26.8034 32.5975 26.096C31.8886 25.3856 31.4514 24.4066 31.4514 23.3277C31.4514 22.2457 31.8886 21.2667 32.5975 20.5563C33.3063 19.8489 34.2853 19.4102 35.3658 19.4102ZM81.1331 71.765V53.2111L86.993 48.0054L92.3704 43.226C92.8357 42.8107 93.1917 42.3266 93.44 41.777C93.6851 41.2306 93.81 40.6419 93.81 40.0236V32.6523H137.905C139.715 32.6523 141.385 32.2073 142.622 31.4906C144.088 30.6366 145 29.3828 145 27.9322V18.7232C145 17.2711 144.09 16.0157 142.622 15.1617C141.387 14.445 139.716 14 137.905 14H92.3813H67.0276H21.5038C19.6942 14 18.0235 14.445 16.7869 15.1617C15.3192 16.0157 14.4089 17.2727 14.4089 18.7232V21.8975H13.8812C11.4704 21.8975 9.26883 22.8 7.66372 24.2521C6.02115 25.7401 5 27.798 5 30.0713C5 32.34 6.02115 34.3979 7.66372 35.8875C9.26883 37.3396 11.4704 38.2421 13.8812 38.2421H65.5989V40.0267C65.5989 40.645 65.7238 41.2337 65.9689 41.7802C66.2141 42.3298 66.5732 42.8138 67.0369 43.2291L72.4159 48.0085L78.2758 53.2142V71.7681C77.2156 72.2927 76.488 73.3841 76.488 74.6473C76.488 74.7972 76.4989 74.9455 76.5192 75.0923L41.1695 99.1173C40.7276 99.3578 40.4278 99.8278 40.4278 100.368C40.4278 101.158 41.068 101.798 41.8565 101.798H52.4692V134.49C52.4692 135.281 53.1078 135.918 53.8979 135.918H72.0006H87.4083H105.425C106.214 135.918 106.854 135.281 106.854 134.49V101.797H117.552V101.79C118.008 101.79 118.455 101.57 118.73 101.166C119.17 100.516 119.001 99.6326 118.35 99.1891L82.8897 75.0892C82.91 74.9424 82.9209 74.7941 82.9209 74.6442C82.9193 73.381 82.1917 72.2896 81.1331 71.765ZM81.2893 77.4406L112.92 98.9409H105.861L94.3268 91.0856C94.3003 91.0668 94.2737 91.0497 94.2456 91.034L80.5023 81.6938C79.9964 81.3519 79.35 81.3769 78.88 81.7126L65.0868 91.0871L65.0836 91.084L53.4638 98.9425H46.4891L78.1196 77.4422C78.5881 77.7076 79.1283 77.8606 79.7045 77.8606C80.2806 77.8606 80.8224 77.7061 81.2893 77.4406ZM79.7045 84.5886L92.6468 93.3839C92.6717 93.4027 92.6952 93.4198 92.7202 93.4386L103.998 101.121V133.062H88.8385V109.543C88.8385 108.756 88.1984 108.116 87.4099 108.116H72.0021C71.2136 108.116 70.5735 108.756 70.5735 109.543V133.062H55.3266V101.124L66.6794 93.4448L66.6763 93.4417H66.6794L79.7045 84.5886ZM73.4292 133.062V110.973H85.9797V133.06L73.4292 133.062ZM79.7045 90.2299C81.4438 90.2299 83.0193 90.9341 84.1606 92.0755C85.302 93.2169 86.0062 94.7923 86.0062 96.5317C86.0062 98.2711 85.302 99.8465 84.1606 100.988C83.0208 102.126 81.4454 102.833 79.7045 102.833C77.9666 102.833 76.3912 102.126 75.2498 100.988C74.1116 99.8481 73.4043 98.2711 73.4043 96.5317C73.4043 94.7923 74.1085 93.2169 75.2498 92.0755C76.3912 90.9341 77.9651 90.2299 79.7045 90.2299ZM82.1386 94.0975C82.7601 94.7189 83.1473 95.5792 83.1473 96.5317C83.1473 97.4841 82.7616 98.3429 82.1386 98.9659C81.5157 99.5889 80.6553 99.9745 79.7029 99.9745C78.7536 99.9745 77.8917 99.5873 77.2687 98.9659C76.6457 98.3444 76.26 97.4841 76.26 96.5317C76.26 95.5792 76.6441 94.7205 77.2687 94.0975C77.8901 93.4729 78.752 93.0888 79.7029 93.0888C80.6553 93.0873 81.5172 93.4714 82.1386 94.0975ZM65.5989 32.6539H21.5038C19.6942 32.6539 18.0235 32.2089 16.7869 31.4922C15.3208 30.6381 14.4089 29.3843 14.4089 27.9338V24.7564H13.8812C12.1917 24.7564 10.6663 25.3731 9.57173 26.363C8.51312 27.3202 7.85577 28.6317 7.85577 30.0713C7.85577 31.5078 8.51312 32.8194 9.57173 33.7765C10.6663 34.7711 12.1917 35.3832 13.8812 35.3832H65.5989V32.6539ZM93.81 29.7965V16.8573H137.905C139.21 16.8573 140.372 17.1524 141.192 17.6287C141.777 17.9706 142.141 18.3609 142.141 18.7232V27.9322C142.141 28.2914 141.777 28.6817 141.192 29.0236C140.372 29.4999 139.209 29.795 137.905 29.795L93.81 29.7965ZM65.5989 16.8573H21.5038C20.1985 16.8573 19.0353 17.1524 18.2171 17.6287C17.63 17.9706 17.2678 18.3609 17.2678 18.7232V23.3277V27.9322C17.2678 28.2914 17.63 28.6817 18.2171 29.0236C19.0353 29.4999 20.2001 29.795 21.5038 29.795H65.5989V16.8573ZM90.9542 40.0252C90.9542 40.2516 90.9152 40.4483 90.8402 40.6169C90.7653 40.7856 90.642 40.9464 90.4749 41.0963L85.0959 45.8757L79.706 50.666L74.3161 45.8757L68.9387 41.0963C68.7716 40.9464 68.6467 40.7856 68.5733 40.6169C68.5 40.4483 68.4594 40.2516 68.4594 40.0252V16.8573H90.9574V31.2268V40.0252H90.9542ZM79.7045 25.5636C81.269 25.5636 82.6836 26.1975 83.7078 27.2234C84.7321 28.2492 85.366 29.6638 85.366 31.2268C85.366 32.7881 84.7337 34.2059 83.7078 35.2301C82.682 36.2544 81.2674 36.8868 79.7045 36.8868C78.1415 36.8868 76.7269 36.256 75.7026 35.2301C74.6784 34.2043 74.0429 32.7881 74.0429 31.2268C74.0429 29.6623 74.6768 28.2476 75.7026 27.2234C76.7285 26.1991 78.1415 25.5636 79.7045 25.5636ZM81.6874 29.2422C82.1949 29.7513 82.5087 30.4523 82.5087 31.2268C82.5087 32.0012 82.1949 32.7023 81.6874 33.2097C81.18 33.7187 80.4805 34.0294 79.7029 34.0294C78.9284 34.0294 78.2289 33.7187 77.7199 33.2097C77.2125 32.7038 76.8986 32.0028 76.8986 31.2268C76.8986 30.4508 77.2125 29.7513 77.7199 29.2422C78.2274 28.7364 78.9269 28.4225 79.7029 28.4225C80.4805 28.4209 81.18 28.7348 81.6874 29.2422ZM24.6407 19.4102C25.7211 19.4102 26.7017 19.8489 27.4106 20.5563C28.1179 21.2667 28.5566 22.2457 28.5566 23.3277C28.5566 24.4066 28.1179 25.3856 27.4106 26.096C26.7017 26.8034 25.7211 27.2421 24.6407 27.2421C23.5602 27.2421 22.5812 26.8034 21.8723 26.096C21.1635 25.3856 20.7247 24.4066 20.7247 23.3277C20.7247 22.2457 21.1635 21.2667 21.8723 20.5563C22.5812 19.8489 23.5602 19.4102 24.6407 19.4102ZM25.3901 22.5782C25.5822 22.7703 25.7008 23.0357 25.7008 23.3277C25.7008 23.6197 25.5822 23.8851 25.3901 24.0756C25.1996 24.2677 24.9342 24.3863 24.6422 24.3863C24.3502 24.3863 24.0848 24.2677 23.8928 24.0756C23.7023 23.8867 23.5836 23.6213 23.5836 23.3277C23.5836 23.0342 23.7023 22.7703 23.8928 22.5782C24.0848 22.3862 24.3502 22.2675 24.6422 22.2675C24.9342 22.2675 25.1981 22.3862 25.3901 22.5782ZM36.1168 22.5782C35.9248 22.3862 35.6609 22.2675 35.3674 22.2675C35.0738 22.2675 34.81 22.3862 34.6195 22.5782C34.4274 22.7703 34.3088 23.0357 34.3088 23.3277C34.3088 23.6197 34.4274 23.8851 34.6195 24.0756C34.81 24.2677 35.0754 24.3863 35.3674 24.3863C35.6609 24.3863 35.9248 24.2677 36.1168 24.0756C36.3089 23.8867 36.4276 23.6213 36.4276 23.3277C36.4276 23.0342 36.3089 22.7703 36.1168 22.5782Z" stroke="#663366" mask="url(#path-1-outside-1_661_3368)"/>
</svg>
