<svg width="150" height="150" viewBox="0 0 150 150" fill="none" xmlns="http://www.w3.org/2000/svg">
<path d="M145 133.617H5V144.999H145V133.617Z" stroke="#663366" stroke-width="4.3" stroke-miterlimit="10" stroke-linecap="round" stroke-linejoin="round"/>
<path d="M123.375 133.335V30.6133H88.2852" stroke="#663366" stroke-width="4.3" stroke-miterlimit="10" stroke-linecap="round" stroke-linejoin="round"/>
<path d="M88.2852 18.0898H129.635C133.092 18.0898 135.895 20.8927 135.895 24.35V133.332" stroke="#663366" stroke-width="4.3" stroke-miterlimit="10" stroke-linecap="round" stroke-linejoin="round"/>
<path d="M14.1055 133.332V24.35C14.1055 20.8927 16.9083 18.0898 20.3656 18.0898H62.4795" stroke="#663366" stroke-width="4.3" stroke-miterlimit="10" stroke-linecap="round" stroke-linejoin="round"/>
<path d="M62.4806 30.6133H26.627V133.335" stroke="#663366" stroke-width="4.3" stroke-miterlimit="10" stroke-linecap="round" stroke-linejoin="round"/>
<path d="M87.5211 16.3828H62.4805V32.3178H87.5211V16.3828Z" stroke="#663366" stroke-width="4.3" stroke-miterlimit="10" stroke-linecap="round" stroke-linejoin="round"/>
<path d="M80.6907 32.6016V45.1429H69.3086V32.6016" stroke="#663366" stroke-width="4.3" stroke-miterlimit="10" stroke-linecap="round" stroke-linejoin="round"/>
<path d="M75 16.3821C75 10.0961 80.0961 5 86.3821 5H145" stroke="#663366" stroke-width="4.3" stroke-miterlimit="10" stroke-linecap="round" stroke-linejoin="round"/>
<path d="M66.5098 73.9699V64.0117H78.0825V74.0081" stroke="#663366" stroke-width="4.3" stroke-miterlimit="10" stroke-linecap="round" stroke-linejoin="round"/>
<path d="M70.534 80.3944C68.2721 74.3849 63.0873 69.8082 56.7122 68.3945C55.3355 70.379 53.5613 72.9203 52.0449 75.04C55.832 76.6443 58.9997 79.4255 61.0854 82.9272" stroke="#663366" stroke-width="4.3" stroke-miterlimit="10" stroke-linecap="round" stroke-linejoin="round"/>
<path d="M90.2693 79.9758C91.71 77.1655 93.9335 74.8234 96.6512 73.2344L89.4199 67.9805C84.0433 69.1904 79.5061 72.6178 76.8213 77.2529C75.3803 79.7405 72.7064 81.2236 69.8319 81.2162C69.8142 81.2162 69.7966 81.2162 69.7789 81.2162C58.4529 81.2162 49.2715 90.3978 49.2715 101.724C49.2715 113.05 62.2596 133.617 74.999 133.617C87.7385 133.617 100.727 113.05 100.727 101.724C100.727 94.5716 97.0655 88.2753 91.5153 84.6057C89.983 83.5927 89.4316 81.6103 90.2693 79.9758Z" stroke="#663366" stroke-width="4.3" stroke-miterlimit="10" stroke-linecap="round" stroke-linejoin="round"/>
<path d="M69.8867 81.2188C75.5496 81.2188 80.6767 83.5142 84.3878 87.2254" stroke="#663366" stroke-width="4.3" stroke-miterlimit="10" stroke-linecap="round" stroke-linejoin="round"/>
<path d="M75 46.2305V62.9152" stroke="#663366" stroke-width="4.3" stroke-miterlimit="10" stroke-linecap="round" stroke-linejoin="round"/>
</svg>
