<svg width="150" height="150" viewBox="0 0 150 150" fill="none" xmlns="http://www.w3.org/2000/svg">
<path d="M145 134.859V143.343C145 144.258 144.258 145 143.343 145H117.361C116.446 145 115.704 144.259 115.704 143.343V139.241C115.704 136.821 117.666 134.859 120.086 134.859H126.273" stroke="#663366" stroke-width="4.22535" stroke-miterlimit="10" stroke-linecap="round" stroke-linejoin="round"/>
<path d="M129.721 99.57C128.942 95.8224 127.687 89.0129 127.419 82.9219" stroke="#663366" stroke-width="4.22535" stroke-miterlimit="10" stroke-linecap="round" stroke-linejoin="round"/>
<path d="M139.91 82.0859C139.829 86.2938 139.663 96.5243 139.841 101.741" stroke="#663366" stroke-width="4.22535" stroke-miterlimit="10" stroke-linecap="round" stroke-linejoin="round"/>
<path d="M27.7051 104.635C27.7051 104.635 28.6603 97.9193 29.0837 90.8672" stroke="#663366" stroke-width="4.22535" stroke-miterlimit="10" stroke-linecap="round" stroke-linejoin="round"/>
<path d="M13.1214 89.0469C12.029 92.2691 10.7637 97.5345 10.7637 104.637" stroke="#663366" stroke-width="4.22535" stroke-miterlimit="10" stroke-linecap="round" stroke-linejoin="round"/>
<path d="M134.55 5H138.804C142.226 5 145 7.77437 145 11.1966V52.3541C145 55.7763 142.226 58.5507 138.804 58.5507H114.859C111.436 58.5507 108.662 55.7763 108.662 52.3541V11.1966C108.662 7.77437 111.436 5 114.859 5H124.278" stroke="#663366" stroke-width="4.22535" stroke-miterlimit="10" stroke-linecap="round" stroke-linejoin="round"/>
<path d="M108.662 49.0826L108.662 14.4688L100.211 14.4688L100.211 49.0826L108.662 49.0826Z" stroke="#663366" stroke-width="4.22535" stroke-miterlimit="10" stroke-linecap="round" stroke-linejoin="round"/>
<path d="M122.984 31.7765C122.984 23.8658 129.397 17.4531 137.308 17.4531H144.999V46.1002H137.308C129.397 46.1002 122.984 39.6872 122.984 31.7765Z" stroke="#663366" stroke-width="4.22535" stroke-miterlimit="10" stroke-linecap="round" stroke-linejoin="round"/>
<path d="M117.162 13.3555V16.4729" stroke="#663366" stroke-width="4.22535" stroke-miterlimit="10" stroke-linecap="round" stroke-linejoin="round"/>
<path d="M117.162 47.0781V50.1953" stroke="#663366" stroke-width="4.22535" stroke-miterlimit="10" stroke-linecap="round" stroke-linejoin="round"/>
<path d="M27.943 14.5775C30.5878 14.5775 32.7318 12.4335 32.7318 9.78873C32.7318 7.14399 30.5878 5 27.943 5C25.2983 5 23.1543 7.14399 23.1543 9.78873C23.1543 12.4335 25.2983 14.5775 27.943 14.5775Z" stroke="#663366" stroke-width="4.22535" stroke-miterlimit="10" stroke-linecap="round" stroke-linejoin="round"/>
<path d="M44.6301 56.1695H10.4403C7.43577 56.1695 5 53.7337 5 50.7292V30.6239C5 27.6194 7.43577 25.1836 10.4403 25.1836H44.6299C47.6344 25.1836 50.0701 27.6194 50.0701 30.6239V50.7289C50.0704 53.7337 47.6346 56.1695 44.6301 56.1695Z" stroke="#663366" stroke-width="4.22535" stroke-miterlimit="10" stroke-linecap="round" stroke-linejoin="round"/>
<path d="M18.8421 40.4928C21.0201 40.4928 22.7858 38.7272 22.7858 36.5491C22.7858 34.3711 21.0201 32.6055 18.8421 32.6055C16.6641 32.6055 14.8984 34.3711 14.8984 36.5491C14.8984 38.7272 16.6641 40.4928 18.8421 40.4928Z" stroke="#663366" stroke-width="4.22535" stroke-miterlimit="10" stroke-linecap="round" stroke-linejoin="round"/>
<path d="M36.2288 40.4928C38.4068 40.4928 40.1725 38.7272 40.1725 36.5491C40.1725 34.3711 38.4068 32.6055 36.2288 32.6055C34.0508 32.6055 32.2852 34.3711 32.2852 36.5491C32.2852 38.7272 34.0508 40.4928 36.2288 40.4928Z" stroke="#663366" stroke-width="4.22535" stroke-miterlimit="10" stroke-linecap="round" stroke-linejoin="round"/>
<path d="M17.2041 47.8555H37.8666" stroke="#663366" stroke-width="4.22535" stroke-miterlimit="10" stroke-linecap="round" stroke-linejoin="round"/>
<path d="M27.9434 14.5781V25.184" stroke="#663366" stroke-width="4.22535" stroke-miterlimit="10" stroke-linecap="round" stroke-linejoin="round"/>
<path d="M95.9484 55.604H91.3788C90.4639 55.604 89.6864 54.9347 89.5509 54.0296L87.8926 42.9725C87.4617 40.0989 84.9932 37.973 82.0876 37.973H79.1036C78.2121 37.973 77.4893 37.2502 77.4893 36.3587V27.1902C77.4893 26.2987 78.2121 25.5758 79.1036 25.5758H82.087C84.9929 25.5758 87.4614 23.4496 87.8921 20.5758L89.5507 9.50796C89.6862 8.60289 90.4636 7.93359 91.3786 7.93359H95.9481C98.3019 7.93359 100.21 9.84176 100.21 12.1956V51.342C100.21 53.6961 98.3022 55.604 95.9484 55.604Z" stroke="#663366" stroke-width="4.22535" stroke-miterlimit="10" stroke-linecap="round" stroke-linejoin="round"/>
<path d="M8.95985 110.309C9.96352 106.847 10.7635 104.637 10.7635 104.637H27.7052C27.7052 104.637 33.5063 120.896 31.4844 142.609C31.3582 143.962 30.2255 145.001 28.8658 145.001H8.80323C7.67929 145.001 6.67901 144.287 6.31478 143.224C4.10859 136.789 5.01675 127.721 6.57112 119.992" stroke="#663366" stroke-width="4.22535" stroke-miterlimit="10" stroke-linecap="round" stroke-linejoin="round"/>
<path d="M22.3267 92.4849C29.01 92.4849 34.4278 87.0746 34.4278 80.4006C34.4278 73.7267 29.01 68.3164 22.3267 68.3164C15.6434 68.3164 10.2256 73.7267 10.2256 80.4006C10.2256 87.0746 15.6434 92.4849 22.3267 92.4849Z" stroke="#663366" stroke-width="4.22535" stroke-miterlimit="10" stroke-linecap="round" stroke-linejoin="round"/>
<path d="M48.5644 104.636C48.5644 104.636 47.6145 97.9598 47.1895 90.9297" stroke="#663366" stroke-width="4.22535" stroke-miterlimit="10" stroke-linecap="round" stroke-linejoin="round"/>
<path d="M63.1172 88.9531C64.2163 92.1669 65.5059 97.4647 65.5059 104.634" stroke="#663366" stroke-width="4.22535" stroke-miterlimit="10" stroke-linecap="round" stroke-linejoin="round"/>
<path d="M47.4039 145.001H67.4664C68.5903 145.001 69.5906 144.287 69.9549 143.224C74.583 129.724 65.5061 104.637 65.5061 104.637H48.5644C48.5644 104.637 42.7633 120.896 44.7853 142.609C44.9115 143.962 46.0442 145.001 47.4039 145.001Z" stroke="#663366" stroke-width="4.22535" stroke-miterlimit="10" stroke-linecap="round" stroke-linejoin="round"/>
<path d="M53.9429 92.4849C60.6262 92.4849 66.044 87.0746 66.044 80.4006C66.044 73.7267 60.6262 68.3164 53.9429 68.3164C47.2597 68.3164 41.8418 73.7267 41.8418 80.4006C41.8418 87.0746 47.2597 92.4849 53.9429 92.4849Z" stroke="#663366" stroke-width="4.22535" stroke-miterlimit="10" stroke-linecap="round" stroke-linejoin="round"/>
<path d="M126.272 134.859C126.272 134.859 132.02 136.369 135.636 136.369C139.252 136.369 145 134.859 145 134.859C145 134.859 144.781 117.489 142.594 106.431C142.102 103.942 140.132 102.011 137.637 101.549L128.85 99.9244C128.151 99.7951 127.525 100.374 127.603 101.08C128.035 104.986 128.895 116.811 126.272 134.859Z" stroke="#663366" stroke-width="4.22535" stroke-miterlimit="10" stroke-linecap="round" stroke-linejoin="round"/>
<path d="M133.145 84.4471C138.369 84.4471 142.604 80.2179 142.604 75.0009C142.604 69.7839 138.369 65.5547 133.145 65.5547C127.921 65.5547 123.686 69.7839 123.686 75.0009C123.686 80.2179 127.921 84.4471 133.145 84.4471Z" stroke="#663366" stroke-width="4.22535" stroke-miterlimit="10" stroke-linecap="round" stroke-linejoin="round"/>
<path d="M108.371 134.859V143.343C108.371 144.258 107.63 145 106.714 145H80.7321C79.8172 145 79.0752 144.259 79.0752 143.343V139.241C79.0752 136.821 81.0372 134.859 83.4572 134.859H89.6436" stroke="#663366" stroke-width="4.22535" stroke-miterlimit="10" stroke-linecap="round" stroke-linejoin="round"/>
<path d="M93.1311 99.7549C92.3665 96.1017 91.0989 89.3064 90.8018 83.1797" stroke="#663366" stroke-width="4.22535" stroke-miterlimit="10" stroke-linecap="round" stroke-linejoin="round"/>
<path d="M103.28 82.1289C103.199 86.3813 103.033 96.6416 103.214 101.819" stroke="#663366" stroke-width="4.22535" stroke-miterlimit="10" stroke-linecap="round" stroke-linejoin="round"/>
<path d="M89.6445 134.859C89.6445 134.859 95.3921 136.369 99.0082 136.369C102.624 136.369 108.372 134.859 108.372 134.859C108.372 134.859 108.153 117.489 105.966 106.431C105.474 103.942 103.504 102.011 101.009 101.549L92.2217 99.9244C91.5231 99.7951 90.8972 100.374 90.9755 101.08C91.4071 104.986 92.2671 116.811 89.6445 134.859Z" stroke="#663366" stroke-width="4.22535" stroke-miterlimit="10" stroke-linecap="round" stroke-linejoin="round"/>
<path d="M96.5158 84.4471C101.74 84.4471 105.975 80.2179 105.975 75.0009C105.975 69.7839 101.74 65.5547 96.5158 65.5547C91.2916 65.5547 87.0566 69.7839 87.0566 75.0009C87.0566 80.2179 91.2916 84.4471 96.5158 84.4471Z" stroke="#663366" stroke-width="4.22535" stroke-miterlimit="10" stroke-linecap="round" stroke-linejoin="round"/>
</svg>
