<svg width="150" height="150" viewBox="0 0 150 150" fill="none" xmlns="http://www.w3.org/2000/svg">
<path d="M128.406 52.4257H124.222C120.029 52.4257 116.631 49.0273 116.631 44.835V40.6503C116.631 39.3979 117.646 38.3828 118.898 38.3828H123.083C127.275 38.3828 130.674 41.7812 130.674 45.9735V50.1583C130.674 51.4106 129.659 52.4257 128.406 52.4257Z" stroke="#663366" stroke-width="4.21676" stroke-miterlimit="10" stroke-linecap="round" stroke-linejoin="round"/>
<path d="M132.941 52.4257H137.126C141.318 52.4257 144.717 49.0273 144.717 44.835V40.6503C144.717 39.3979 143.702 38.3828 142.449 38.3828H138.265C134.072 38.3828 130.674 41.7812 130.674 45.9735V50.1583C130.674 51.4106 131.689 52.4257 132.941 52.4257Z" stroke="#663366" stroke-width="4.21676" stroke-miterlimit="10" stroke-linecap="round" stroke-linejoin="round"/>
<path d="M128.406 38.3828H124.222C120.029 38.3828 116.631 34.9843 116.631 30.792V26.6073C116.631 25.355 117.646 24.3398 118.898 24.3398H123.083C127.275 24.3398 130.674 27.7383 130.674 31.9306V36.1153C130.674 37.3677 129.659 38.3828 128.406 38.3828Z" stroke="#663366" stroke-width="4.21676" stroke-miterlimit="10" stroke-linecap="round" stroke-linejoin="round"/>
<path d="M132.941 38.3828H137.126C141.318 38.3828 144.717 34.9843 144.717 30.792V26.6073C144.717 25.355 143.702 24.3398 142.449 24.3398H138.265C134.072 24.3398 130.674 27.7383 130.674 31.9306V36.1153C130.674 37.3677 131.689 38.3828 132.941 38.3828Z" stroke="#663366" stroke-width="4.21676" stroke-miterlimit="10" stroke-linecap="round" stroke-linejoin="round"/>
<path d="M132.277 22.3172L135.236 19.3582C138.201 16.3938 138.201 11.5876 135.236 8.62318L132.277 5.66414C131.392 4.77862 129.956 4.77862 129.071 5.66414L126.112 8.62318C123.148 11.5876 123.148 16.3938 126.112 19.3582L129.071 22.3172C129.956 23.2025 131.392 23.2025 132.277 22.3172Z" stroke="#663366" stroke-width="4.21676" stroke-miterlimit="10" stroke-linecap="round" stroke-linejoin="round"/>
<path d="M130.673 22.9805V57.1292C130.673 65.464 125.331 72.8602 117.419 75.4802L114.629 76.4043" stroke="#663366" stroke-width="4.21676" stroke-miterlimit="10" stroke-linecap="round" stroke-linejoin="round"/>
<path d="M21.3105 52.4257H25.4952C29.6875 52.4257 33.0859 49.0273 33.0859 44.835V40.6503C33.0859 39.3979 32.0708 38.3828 30.8184 38.3828H26.6337C22.4414 38.3828 19.043 41.7812 19.043 45.9735V50.1583C19.043 51.4106 20.0581 52.4257 21.3105 52.4257Z" stroke="#663366" stroke-width="4.21676" stroke-miterlimit="10" stroke-linecap="round" stroke-linejoin="round"/>
<path d="M16.7754 52.4257H12.5907C8.39843 52.4257 5 49.0273 5 44.835V40.6503C5 39.3979 6.01511 38.3828 7.26749 38.3828H11.4522C15.6445 38.3828 19.0429 41.7812 19.0429 45.9735V50.1583C19.0429 51.4106 18.0278 52.4257 16.7754 52.4257Z" stroke="#663366" stroke-width="4.21676" stroke-miterlimit="10" stroke-linecap="round" stroke-linejoin="round"/>
<path d="M21.3105 38.3828H25.4952C29.6875 38.3828 33.0859 34.9843 33.0859 30.792V26.6073C33.0859 25.355 32.0708 24.3398 30.8184 24.3398H26.6337C22.4414 24.3398 19.043 27.7383 19.043 31.9306V36.1153C19.043 37.3677 20.0581 38.3828 21.3105 38.3828Z" stroke="#663366" stroke-width="4.21676" stroke-miterlimit="10" stroke-linecap="round" stroke-linejoin="round"/>
<path d="M16.7754 38.3828H12.5907C8.39843 38.3828 5 34.9843 5 30.792V26.6073C5 25.355 6.01511 24.3398 7.26749 24.3398H11.4522C15.6445 24.3398 19.0429 27.7383 19.0429 31.9306V36.1153C19.0429 37.3677 18.0278 38.3828 16.7754 38.3828Z" stroke="#663366" stroke-width="4.21676" stroke-miterlimit="10" stroke-linecap="round" stroke-linejoin="round"/>
<path d="M19.043 22.9844V57.1331C19.043 65.4679 24.385 72.8641 32.2974 75.4841L34.9677 76.3685" stroke="#663366" stroke-width="4.21676" stroke-miterlimit="10" stroke-linecap="round" stroke-linejoin="round"/>
<path d="M73.1377 105.807C72.5465 106.471 71.46 105.91 71.6582 105.044L73.7764 95.7816C73.8793 95.3316 73.6083 94.8806 73.1627 94.7603L64.9637 92.5443C64.4703 92.411 64.2015 91.8792 64.3871 91.4027L68.7863 80.1023C68.9148 79.772 69.233 79.5547 69.5872 79.5547H79.2143C79.8201 79.5547 80.2359 80.1647 80.0141 80.7286L77.9898 85.8773C77.8371 86.2652 77.985 86.7069 78.3406 86.9245L84.9789 90.9933C85.4355 91.2733 85.5277 91.898 85.1715 92.2977L73.1377 105.807Z" stroke="#663366" stroke-width="4.21676" stroke-miterlimit="10" stroke-linecap="round" stroke-linejoin="round"/>
<path d="M74.8574 52.5445V49.6445" stroke="#663366" stroke-width="4.21676" stroke-miterlimit="10" stroke-linecap="round" stroke-linejoin="round"/>
<path d="M103.342 64.3434L105.392 62.293" stroke="#663366" stroke-width="4.21676" stroke-miterlimit="10" stroke-linecap="round" stroke-linejoin="round"/>
<path d="M115.139 92.8242H118.039" stroke="#663366" stroke-width="4.21676" stroke-miterlimit="10" stroke-linecap="round" stroke-linejoin="round"/>
<path d="M103.342 121.309L105.392 123.359" stroke="#663366" stroke-width="4.21676" stroke-miterlimit="10" stroke-linecap="round" stroke-linejoin="round"/>
<path d="M74.8574 133.105V136.005" stroke="#663366" stroke-width="4.21676" stroke-miterlimit="10" stroke-linecap="round" stroke-linejoin="round"/>
<path d="M46.3766 121.309L44.3262 123.359" stroke="#663366" stroke-width="4.21676" stroke-miterlimit="10" stroke-linecap="round" stroke-linejoin="round"/>
<path d="M34.5777 92.8242H31.6777" stroke="#663366" stroke-width="4.21676" stroke-miterlimit="10" stroke-linecap="round" stroke-linejoin="round"/>
<path d="M46.3766 64.3434L44.3262 62.293" stroke="#663366" stroke-width="4.21676" stroke-miterlimit="10" stroke-linecap="round" stroke-linejoin="round"/>
<path d="M36.6309 111.655L37.3765 113.454C37.8861 114.685 37.8409 116.075 37.2525 117.269L34.8444 122.159C33.969 123.937 34.3224 126.074 35.7235 127.475L40.2098 131.962C41.6109 133.363 43.7485 133.716 45.526 132.841L50.4158 130.433C51.6103 129.844 53.0007 129.799 54.2308 130.309L62.9413 133.917C64.1714 134.426 65.1224 135.441 65.5511 136.702L67.3059 141.862C67.9437 143.738 69.7052 145 71.6865 145H78.0313C80.0127 145 81.7741 143.738 82.412 141.862L84.1667 136.702C84.5954 135.441 85.5464 134.427 86.7766 133.917L95.487 130.309C96.7172 129.8 98.1073 129.845 99.3021 130.433L104.192 132.841C105.969 133.716 108.107 133.363 109.508 131.962L113.994 127.475C115.395 126.074 115.749 123.937 114.873 122.159L112.465 117.269C111.877 116.075 111.832 114.685 112.341 113.454L115.949 104.744C116.459 103.514 117.474 102.563 118.735 102.134L123.895 100.379C125.771 99.7412 127.032 97.9797 127.032 95.9984V89.6536C127.032 87.6723 125.771 85.9108 123.895 85.273L118.735 83.5182C117.474 83.0895 116.459 82.1385 115.949 80.9083L112.341 72.1979C111.832 70.9677 111.877 69.5776 112.465 68.3829L114.873 63.4931C115.749 61.7156 115.395 59.578 113.994 58.1769L109.508 53.6906C108.107 52.2895 105.969 51.9361 104.192 52.8115L99.3021 55.2196C98.1076 55.8079 96.7172 55.8529 95.487 55.3432L86.7769 51.7354C85.5467 51.226 84.5957 50.2109 84.167 48.9501L82.4123 43.7899C81.7744 41.914 80.0129 40.6523 78.0316 40.6523H71.6868C69.7055 40.6523 67.944 41.914 67.3062 43.7899L65.5514 48.9501C65.1227 50.2109 64.1717 51.2257 62.9415 51.7354L54.2311 55.3432C53.0009 55.8526 51.6108 55.8077 50.4161 55.2196L45.5263 52.8115C43.7488 51.9361 41.6112 52.2895 40.2101 53.6906L35.7238 58.1769C34.3227 59.578 33.9693 61.7153 34.8447 63.4931L37.2528 68.3829C37.8411 69.5776 37.8861 70.9675 37.3767 72.1979L33.7689 80.9083C33.2592 82.1385 32.2444 83.0895 30.9836 83.5182L25.8231 85.273C23.9472 85.9108 22.6855 87.6723 22.6855 89.6536V95.9984C22.6855 97.9797 23.9472 99.7412 25.8231 100.379L30.9836 102.134C32.0248 102.488 32.8932 103.202 33.4529 104.132M94.6473 70.6551C95.0637 71.0273 95.473 71.4122 95.8727 71.8119C107.478 83.4176 107.478 102.234 95.8727 113.84C84.2671 125.445 65.4505 125.445 53.8449 113.84C42.2392 102.234 42.2392 83.4176 53.8449 71.8119C63.0267 62.6301 76.7213 60.7146 87.7884 66.0611" stroke="#663366" stroke-width="4.21676" stroke-miterlimit="10" stroke-linecap="round" stroke-linejoin="round"/>
<path d="M25.152 10.8558C24.7855 10.047 24.2707 9.28858 23.6056 8.62346L20.6466 5.66414C19.761 4.77862 18.3254 4.77862 17.4399 5.66414L14.4811 8.62346C11.5167 11.5878 11.5167 16.3941 14.4811 19.3585L17.4401 22.3175C18.3257 23.203 19.7613 23.203 20.6468 22.3175L23.6059 19.3585C23.7448 19.2196 23.8749 19.0757 24.0009 18.9289" stroke="#663366" stroke-width="4.21676" stroke-miterlimit="10" stroke-linecap="round" stroke-linejoin="round"/>
</svg>
