<svg width="150" height="150" viewBox="0 0 150 150" fill="none" xmlns="http://www.w3.org/2000/svg">
<path d="M75.25 48.6839V18.125" stroke="#663366" stroke-width="4.22535" stroke-miterlimit="10" stroke-linecap="round" stroke-linejoin="round"/>
<path d="M75.25 18.1251C78.8745 18.1251 81.8126 15.187 81.8126 11.5625C81.8126 7.93803 78.8745 5 75.25 5C71.6255 5 68.6875 7.93803 68.6875 11.5625C68.6875 15.187 71.6258 18.1251 75.25 18.1251Z" stroke="#663366" stroke-width="4.22535" stroke-miterlimit="10" stroke-linecap="round" stroke-linejoin="round"/>
<path d="M99.3125 22.5001C95.688 22.5001 92.75 19.562 92.75 15.9375C92.75 12.313 95.688 9.375 99.3125 9.375C102.937 9.375 105.875 12.313 105.875 15.9375C105.875 19.562 102.937 22.5001 99.3125 22.5001Z" stroke="#663366" stroke-width="4.22535" stroke-miterlimit="10" stroke-linecap="round" stroke-linejoin="round"/>
<path d="M92.8848 40.1456L99.3118 33.7186V22.5" stroke="#663366" stroke-width="4.22535" stroke-miterlimit="10" stroke-linecap="round" stroke-linejoin="round"/>
<path d="M51.1875 22.5001C54.8119 22.5001 57.7501 19.5619 57.7501 15.9375C57.7501 12.3131 54.8119 9.375 51.1875 9.375C47.5631 9.375 44.625 12.3131 44.625 15.9375C44.625 19.5619 47.5631 22.5001 51.1875 22.5001Z" stroke="#663366" stroke-width="4.22535" stroke-miterlimit="10" stroke-linecap="round" stroke-linejoin="round"/>
<path d="M57.6145 40.1456L51.1875 33.7186V22.5" stroke="#663366" stroke-width="4.22535" stroke-miterlimit="10" stroke-linecap="round" stroke-linejoin="round"/>
<path d="M75.25 117.609V131.874" stroke="#663366" stroke-width="4.22535" stroke-miterlimit="10" stroke-linecap="round" stroke-linejoin="round"/>
<path d="M75.25 131.875C78.8745 131.875 81.8126 134.813 81.8126 138.438C81.8126 142.062 78.8745 145 75.25 145C71.6255 145 68.6875 142.062 68.6875 138.438C68.6875 134.813 71.6258 131.875 75.25 131.875Z" stroke="#663366" stroke-width="4.22535" stroke-miterlimit="10" stroke-linecap="round" stroke-linejoin="round"/>
<path d="M99.3125 127.5C95.688 127.5 92.75 130.438 92.75 134.063C92.75 137.687 95.688 140.625 99.3125 140.625C102.937 140.625 105.875 137.687 105.875 134.063C105.875 130.438 102.937 127.5 99.3125 127.5Z" stroke="#663366" stroke-width="4.22535" stroke-miterlimit="10" stroke-linecap="round" stroke-linejoin="round"/>
<path d="M89.4492 106.418L99.312 116.281V127.5" stroke="#663366" stroke-width="4.22535" stroke-miterlimit="10" stroke-linecap="round" stroke-linejoin="round"/>
<path d="M51.1875 140.625C54.8119 140.625 57.7501 137.687 57.7501 134.063C57.7501 130.438 54.8119 127.5 51.1875 127.5C47.5631 127.5 44.625 130.438 44.625 134.063C44.625 137.687 47.5631 140.625 51.1875 140.625Z" stroke="#663366" stroke-width="4.22535" stroke-miterlimit="10" stroke-linecap="round" stroke-linejoin="round"/>
<path d="M61.0509 106.418L51.1875 116.281V127.5" stroke="#663366" stroke-width="4.22535" stroke-miterlimit="10" stroke-linecap="round" stroke-linejoin="round"/>
<path d="M115.393 70.625H132.125C134.541 70.625 136.5 72.5839 136.5 74.9999C136.5 77.416 134.541 79.3749 132.125 79.3749H101.5C100.34 79.3749 99.227 78.914 98.4064 78.0934L88.3752 68.0619L67.4065 89.0309C66.5521 89.8853 65.4324 90.3123 64.3129 90.3123C63.1935 90.3123 62.0738 89.8853 61.2194 89.0309L51.5634 79.3749H18.3749C15.9586 79.3749 14 77.416 14 74.9999C14 72.5839 15.9586 70.625 18.3749 70.625H53.3749C54.5352 70.625 55.6479 71.0858 56.4684 71.9064L64.3124 79.7503L85.2811 58.7813C86.9898 57.0729 89.7594 57.0729 91.4684 58.7813L103.312 70.625H105.534" stroke="#663366" stroke-width="4.22535" stroke-miterlimit="10" stroke-linecap="round" stroke-linejoin="round"/>
<path d="M30.0629 57.5703C29.1705 60.0996 28.6567 62.8024 28.5897 65.6095C28.5488 67.3221 28.6722 68.9985 28.9452 70.6244" stroke="#663366" stroke-width="4.22535" stroke-miterlimit="10" stroke-linecap="round" stroke-linejoin="round"/>
<path d="M121.553 70.6251C121.825 68.9992 121.949 67.3228 121.908 65.6102C121.579 51.7772 110.392 40.4761 96.5632 40.015C88.7795 39.7555 81.724 42.8868 76.7576 48.0443C75.9362 48.8972 74.5621 48.8972 73.7409 48.0443C68.7745 42.8868 61.719 39.7555 53.9353 40.015C46.4348 40.2651 39.7114 43.704 35.0762 49.0062" stroke="#663366" stroke-width="4.22535" stroke-miterlimit="10" stroke-linecap="round" stroke-linejoin="round"/>
<path d="M71.3574 115.369C71.9456 115.88 72.4774 116.342 72.9453 116.748C74.2687 117.898 76.2321 117.898 77.5552 116.748C83.6811 111.428 100.726 96.6243 112.871 86.0767H112.871C115.065 84.1708 116.94 81.9065 118.405 79.375" stroke="#663366" stroke-width="4.22535" stroke-miterlimit="10" stroke-linecap="round" stroke-linejoin="round"/>
<path d="M32.0957 79.375C33.5602 81.9065 35.4351 84.1708 37.6298 86.0767H37.6292C45.6963 93.0829 55.9255 101.967 63.6805 108.702" stroke="#663366" stroke-width="4.22535" stroke-miterlimit="10" stroke-linecap="round" stroke-linejoin="round"/>
</svg>
