<svg width="150" height="150" viewBox="0 0 150 150" fill="none" xmlns="http://www.w3.org/2000/svg">
<path d="M75.0801 39.793V56.5651" stroke="#663366" stroke-width="4.3" stroke-miterlimit="10"/>
<path d="M20.6406 55.0448H26.4683C32.0779 55.0448 33.8111 51.9448 35.4202 47.4189C37.0293 42.893 41.9741 39.793 47.5837 39.793H63.0133" stroke="#663366" stroke-width="4.3" stroke-miterlimit="10"/>
<path d="M75.0801 39.793V57.9026" stroke="#663366" stroke-width="4.3" stroke-miterlimit="10"/>
<path d="M90.6546 22.3633H59.5078V39.7907H90.6546V22.3633Z" stroke="#663366" stroke-width="4.3" stroke-miterlimit="10"/>
<path d="M13.8438 57.9023V127.365" stroke="#663366" stroke-width="4.3" stroke-miterlimit="10"/>
<path d="M22.5566 22.3633H136.317" stroke="#663366" stroke-width="4.3" stroke-miterlimit="10"/>
<path d="M145 127.363H5V144.791H145V127.363Z" stroke="#663366" stroke-width="4.3" stroke-miterlimit="10"/>
<path d="M22.5582 22.3633H5.13086V55.0428H22.5582V22.3633Z" stroke="#663366" stroke-width="4.3" stroke-miterlimit="10"/>
<path d="M13.8438 22.3623V5H136.317V127.362" stroke="#663366" stroke-width="4.3" stroke-miterlimit="10"/>
<path d="M89.8634 109.938H84.8228C79.4346 109.938 75.0664 105.57 75.0664 100.181V94.8672" stroke="#663366" stroke-width="4.3" stroke-miterlimit="10"/>
<path d="M60.2695 109.938H65.3101C70.6984 109.938 75.0665 105.57 75.0665 100.181V94.8672" stroke="#663366" stroke-width="4.3" stroke-miterlimit="10"/>
<path d="M75.0664 99.0078V127.364" stroke="#663366" stroke-width="4.3" stroke-miterlimit="10"/>
<path d="M83.2557 68.6072C87.7188 63.8873 93.4762 61.6006 98.7016 62.221C101.106 68.5099 100.064 76.7493 95.4165 83.4809C90.7695 90.2126 83.7773 93.6106 77.543 92.8705" stroke="#663366" stroke-width="4.3" stroke-miterlimit="10"/>
<path d="M66.8843 68.5866C62.4241 63.8806 56.676 61.6017 51.4582 62.2209C49.0541 68.5099 50.0963 76.7493 54.7433 83.4809C59.3903 90.2125 66.3824 93.6105 72.6168 92.8705" stroke="#663366" stroke-width="4.3" stroke-miterlimit="10"/>
<path d="M75.0666 56.5625C69.6687 60.0297 65.9512 67.3013 65.9512 75.7137C65.9512 84.1262 69.669 91.3978 75.0666 94.865C80.4644 91.3978 84.182 84.1262 84.182 75.7137C84.1823 67.3015 80.4644 60.0297 75.0666 56.5625Z" stroke="#663366" stroke-width="4.3" stroke-miterlimit="10"/>
</svg>
