<svg width="150" height="150" viewBox="0 0 150 150" fill="none" xmlns="http://www.w3.org/2000/svg">
<path d="M26.2705 30.4545C26.1466 31.3248 26.0601 32.2074 26.0133 33.1008C25.9296 34.6959 24.978 36.133 23.5178 36.7804C14.8751 40.6118 8.87356 49.3168 9.00202 59.4089C9.17303 72.8091 20.3115 83.4847 33.7128 83.4847H115.837C129.279 83.4847 140.539 72.4876 140.515 59.0455C140.488 43.8232 126.803 32.7159 112.401 34.9711C110.361 35.2906 108.412 34.0586 107.758 32.1009C104.716 23.0047 94.8163 17.8376 85.5938 20.5692C83.7705 21.1092 81.7897 20.4342 80.7721 18.8275C75.5081 10.5173 66.2318 5 55.6667 5C43.8622 5 33.6007 11.9138 28.8244 21.9696" stroke="#663366" stroke-width="4.22585" stroke-miterlimit="10" stroke-linecap="round" stroke-linejoin="round"/>
<path d="M46.4244 54.0476C41.8222 50.0984 33.9125 51.1098 33.6192 56.6868C33.235 63.993 47.3752 61.4485 47.1786 69.2226C47.0214 75.4293 37.3833 77.2193 32.332 71.5294" stroke="#663366" stroke-width="4.22585" stroke-miterlimit="10" stroke-linecap="round" stroke-linejoin="round"/>
<path d="M116.426 54.0476C111.824 50.0984 103.914 51.1098 103.621 56.6868C103.237 63.993 117.377 61.4485 117.181 69.2226C117.023 75.4293 107.385 77.2193 102.334 71.5294" stroke="#663366" stroke-width="4.22585" stroke-miterlimit="10" stroke-linecap="round" stroke-linejoin="round"/>
<path d="M63.0903 74.9969C67.1906 74.9969 70.5145 71.673 70.5145 67.5727C70.5145 63.4724 67.1906 60.1484 63.0903 60.1484C58.99 60.1484 55.666 63.4724 55.666 67.5727C55.666 71.673 58.99 74.9969 63.0903 74.9969Z" stroke="#663366" stroke-width="4.22585" stroke-miterlimit="10" stroke-linecap="round" stroke-linejoin="round"/>
<path d="M70.5137 60.1484V74.9969" stroke="#663366" stroke-width="4.22585" stroke-miterlimit="10" stroke-linecap="round" stroke-linejoin="round"/>
<path d="M86.4243 74.9969C90.5246 74.9969 93.8485 71.673 93.8485 67.5727C93.8485 63.4724 90.5246 60.1484 86.4243 60.1484C82.324 60.1484 79 63.4724 79 67.5727C79 71.673 82.324 74.9969 86.4243 74.9969Z" stroke="#663366" stroke-width="4.22585" stroke-miterlimit="10" stroke-linecap="round" stroke-linejoin="round"/>
<path d="M93.8477 60.1484V74.9969" stroke="#663366" stroke-width="4.22585" stroke-miterlimit="10" stroke-linecap="round" stroke-linejoin="round"/>
<path d="M83.1933 40.0985C83.1908 34.8841 79.4129 34.3962 74.7529 34.3984C70.0932 34.4007 66.3155 34.8926 66.3184 40.107C66.3209 45.3214 70.1008 49.5467 74.7605 49.5442C79.4207 49.5416 83.1961 45.3127 83.1933 40.0985Z" stroke="#663366" stroke-width="4.22585" stroke-miterlimit="10" stroke-linecap="round" stroke-linejoin="round"/>
<path d="M93.2721 31.9688L93.2656 35.3494" stroke="#663366" stroke-width="4.22585" stroke-miterlimit="10" stroke-linecap="round" stroke-linejoin="round"/>
<path d="M61.8339 35.0406C61.8387 32.8525 60.0689 31.0751 57.8808 31.0703C55.6926 31.0655 53.9149 32.8353 53.9102 35.0235" stroke="#663366" stroke-width="4.22585" stroke-miterlimit="10" stroke-linecap="round" stroke-linejoin="round"/>
<path d="M41.1079 83.4808C41.0966 84.1597 40.5503 87.115 41.0805 91.5625C41.2369 92.8751 40.729 94.1783 39.7193 95.0506L36.5425 97.7948C34.3437 99.6945 33.8143 102.856 35.2782 105.348L39.4913 112.522C40.9549 115.014 44.0045 116.144 46.7773 115.222L50.7822 113.89C52.0404 113.472 53.4366 113.667 54.501 114.448C56.6103 115.996 58.9083 117.31 61.3562 118.347C62.5724 118.862 63.4367 119.953 63.6964 121.23L64.5233 125.294C65.0974 128.116 67.6177 130.147 70.5451 130.147H78.9715C81.8989 130.147 84.4192 128.116 84.9933 125.294L85.8202 121.23C86.0799 119.953 86.9442 118.862 88.1604 118.347C90.6083 117.31 92.9061 115.996 95.0156 114.448C96.08 113.667 97.4762 113.471 98.7344 113.89L102.739 115.222C105.512 116.144 108.562 115.014 110.025 112.522L114.238 105.348C115.702 102.856 115.173 99.6945 112.974 97.7948L109.797 95.0503C108.788 94.1781 108.279 92.8745 108.436 91.5623C108.586 90.3027 108.666 89.0222 108.666 87.7229C108.666 86.4236 108.586 85.1429 108.436 83.8833C108.42 83.7487 108.411 83.6143 108.409 83.4805" stroke="#663366" stroke-width="4.22585" stroke-miterlimit="10" stroke-linecap="round" stroke-linejoin="round"/>
<path d="M53.9681 98.3329C52.3414 95.1508 51.4238 91.5459 51.4238 87.7268C51.4238 86.2779 51.556 84.86 51.8087 83.4844" stroke="#663366" stroke-width="4.22585" stroke-miterlimit="10" stroke-linecap="round" stroke-linejoin="round"/>
<path d="M97.7053 83.4844C97.958 84.86 98.0901 86.2779 98.0901 87.7268C98.0901 100.613 87.6435 111.06 74.7566 111.06C69.7617 111.06 65.1333 109.491 61.3379 106.818" stroke="#663366" stroke-width="4.22585" stroke-miterlimit="10" stroke-linecap="round" stroke-linejoin="round"/>
<path d="M84.4806 83.4844C85.0483 84.7834 85.3632 86.2185 85.3632 87.7268C85.3632 93.5844 80.6148 98.3329 74.7572 98.3329C67.096 98.3329 61.9901 90.4508 65.0335 83.4844" stroke="#663366" stroke-width="4.22585" stroke-miterlimit="10" stroke-linecap="round" stroke-linejoin="round"/>
<path d="M40.8186 144.997C44.3331 144.997 47.1822 142.148 47.1822 138.633C47.1822 135.119 44.3331 132.27 40.8186 132.27C37.3041 132.27 34.4551 135.119 34.4551 138.633C34.4551 142.148 37.3041 144.997 40.8186 144.997Z" stroke="#663366" stroke-width="4.22585" stroke-miterlimit="10" stroke-linecap="round" stroke-linejoin="round"/>
<path d="M15.3636 128.028C18.8781 128.028 21.7271 125.179 21.7271 121.664C21.7271 118.15 18.8781 115.301 15.3636 115.301C11.8491 115.301 9 118.15 9 121.664C9 125.179 11.8491 128.028 15.3636 128.028Z" stroke="#663366" stroke-width="4.22585" stroke-miterlimit="10" stroke-linecap="round" stroke-linejoin="round"/>
<path d="M47.1621 138.141C50.873 136.888 53.5445 133.378 53.5445 129.244V113.934" stroke="#663366" stroke-width="4.22585" stroke-miterlimit="10" stroke-linecap="round" stroke-linejoin="round"/>
<path d="M21.3965 119.638C28.6162 115.839 26.8281 108.015 35.0491 104.922" stroke="#663366" stroke-width="4.22585" stroke-miterlimit="10" stroke-linecap="round" stroke-linejoin="round"/>
<path d="M134.151 128.028C137.665 128.028 140.514 125.179 140.514 121.664C140.514 118.15 137.665 115.301 134.151 115.301C130.636 115.301 127.787 118.15 127.787 121.664C127.787 125.179 130.636 128.028 134.151 128.028Z" stroke="#663366" stroke-width="4.22585" stroke-miterlimit="10" stroke-linecap="round" stroke-linejoin="round"/>
<path d="M128.119 119.638C120.786 115.779 122.783 108.05 114.467 104.922" stroke="#663366" stroke-width="4.22585" stroke-miterlimit="10" stroke-linecap="round" stroke-linejoin="round"/>
<path d="M108.698 144.997C112.212 144.997 115.061 142.148 115.061 138.633C115.061 135.119 112.212 132.27 108.698 132.27C105.183 132.27 102.334 135.119 102.334 138.633C102.334 142.148 105.183 144.997 108.698 144.997Z" stroke="#663366" stroke-width="4.22585" stroke-miterlimit="10" stroke-linecap="round" stroke-linejoin="round"/>
<path d="M102.351 138.141C98.6403 136.888 95.9688 133.378 95.9688 129.244V113.934" stroke="#663366" stroke-width="4.22585" stroke-miterlimit="10" stroke-linecap="round" stroke-linejoin="round"/>
</svg>
