<svg width="150" height="150" viewBox="0 0 150 150" fill="none" xmlns="http://www.w3.org/2000/svg">
<path d="M112 22.5V127.5C111.988 134.4 106.405 139.994 99.5107 140H51.4893C44.5952 139.994 39.0125 134.4 39 127.5V22.5C39.0125 15.6 44.5952 10.0062 51.4893 10H99.5107C106.405 10.0062 111.988 15.6 112 22.5ZM59.5504 15V18.7374H91.4544L91.4481 15H59.5504ZM107.004 22.5C106.998 18.3626 103.645 15.0062 99.5107 15H96.4445V18.7374C96.4445 21.5 94.209 23.7374 91.4488 23.7374H59.5512C56.791 23.7374 54.5555 21.5 54.5555 18.7374V15H51.4893C47.3554 15.0062 44.002 18.3626 43.9957 22.5V127.5C44.002 131.637 47.3554 134.994 51.4893 135H99.5107C103.645 134.994 106.998 131.637 107.004 127.5V22.5Z" fill="#663366"/>
<path d="M75.0017 60.0669C75.5174 60.0669 75.935 59.6492 75.935 59.1335C75.935 58.6179 75.5174 58.2002 75.0017 58.2002C74.486 58.2002 74.0684 58.6179 74.0684 59.1335C74.0684 59.6492 74.486 60.0669 75.0017 60.0669Z" fill="#663366"/>
<path d="M78.7339 59.1345C78.7339 59.6502 78.3162 60.0679 77.8005 60.0679C77.2849 60.0679 76.8672 59.6502 76.8672 59.1345C76.8672 58.6188 77.2849 58.2012 77.8005 58.2012C78.3162 58.2012 78.7339 58.6188 78.7339 59.1345Z" fill="#663366"/>
<path d="M72.2009 60.0669C72.7166 60.0669 73.1343 59.6492 73.1343 59.1335C73.1343 58.6179 72.7166 58.2002 72.2009 58.2002C71.6852 58.2002 71.2676 58.6179 71.2676 59.1335C71.2676 59.6492 71.6852 60.0669 72.2009 60.0669Z" fill="#663366"/>
<path fill-rule="evenodd" clip-rule="evenodd" d="M98.3343 47.9334C98.3343 47.4177 97.9166 47 97.401 47C96.8853 47 96.4676 47.4177 96.4676 47.9334H92.7343C92.2186 47.9334 91.8009 48.351 91.8009 48.8667C91.8009 49.3824 92.2186 49.8001 92.7343 49.8001H96.4676V52.6001C95.4363 52.6001 94.601 53.4354 94.601 54.4668V56.3334H88.0673V55.4724V55.4304V55.4001C88.0673 55.3394 88.0626 55.2834 88.051 55.2251C88.0066 54.8914 87.8713 54.5717 87.659 54.3057L85.3606 51.4334C85.0059 50.99 84.4716 50.7334 83.9023 50.7334H66.0987C65.5294 50.7334 64.995 50.99 64.6404 51.4334L62.342 54.3057C62.0783 54.6371 61.9337 55.0478 61.9337 55.4724V56.3334H55.4V54.4667C55.4 53.4354 54.5647 52.6 53.5334 52.6V49.8H57.2667C57.7824 49.8 58.2 49.3824 58.2 48.8667C58.2 48.351 57.7824 47.9333 57.2667 47.9333H53.5334C53.5334 47.4177 53.1157 47 52.6 47C52.0843 47 51.6667 47.4177 51.6667 47.9333H47.9333C47.4177 47.9333 47 48.351 47 48.8667C47 49.3824 47.4177 49.8 47.9333 49.8H51.6667V52.6C50.6353 52.6 49.8 53.4354 49.8 54.4667V61.0004C49.8 62.0318 50.6353 62.8671 51.6667 62.8671H53.5334C54.5647 62.8671 55.4 62.0318 55.4 61.0004V58.2004H61.9337V59.7614C61.9337 60.2561 62.1297 60.7298 62.4797 61.0797L62.9603 61.5604C62.944 61.5907 62.9277 61.6187 62.9113 61.6491L59.5024 68.4671H56.3337C55.818 68.4671 55.4003 68.8848 55.4003 69.4004C55.4003 69.9161 55.818 70.3338 56.3337 70.3338H59.1337V71.2671C59.1337 71.7828 59.5513 72.2004 60.067 72.2004C60.5827 72.2004 61.0003 71.7828 61.0003 71.2671V70.3338H74.0671V71.2671C74.0671 71.7828 74.4847 72.2004 75.0004 72.2004C75.5161 72.2004 75.9337 71.7828 75.9337 71.2671V70.3338H89.0004V71.2671C89.0004 71.7828 89.4181 72.2004 89.9338 72.2004C90.4494 72.2004 90.8671 71.7828 90.8671 71.2671V70.3338H93.6671C94.1828 70.3338 94.6004 69.9161 94.6004 69.4004C94.6004 68.8848 94.1828 68.4671 93.6671 68.4671H90.4984L87.0894 61.6491C87.0731 61.6187 87.0568 61.5907 87.0404 61.5604L87.5211 61.0797C87.8711 60.7297 88.0671 60.2561 88.0671 59.7614V58.2004H94.6007V61.0004C94.6007 62.0318 95.4361 62.8671 96.4674 62.8671H98.3341C99.3655 62.8671 100.201 62.0318 100.201 61.0004V54.4667C100.201 53.4354 99.3655 52.6 98.3341 52.6V49.8H102.067C102.583 49.8 103.001 49.3824 103.001 48.8667C103.001 48.351 102.583 47.9333 102.067 47.9333L98.3343 47.9334ZM88.4365 68.4669H61.5659L64.3333 62.9322L64.6553 63.2542C65.0053 63.6042 65.4789 63.8002 65.9736 63.8002H66.6013V64.7335C66.6013 65.7649 67.4366 66.6002 68.4679 66.6002H81.5346C82.566 66.6002 83.4013 65.7649 83.4013 64.7335V63.8002H84.029C84.5237 63.8002 84.9973 63.6042 85.3473 63.2542L85.6693 62.9322L88.4365 68.4669ZM51.6675 54.4665V61.0001H53.5342V54.4665H51.6675ZM96.4676 54.4665V61.0001H98.3343V54.4665H96.4676ZM86.2006 56.3331H66.6009C66.0852 56.3331 65.6675 55.9155 65.6675 55.3998C65.6675 54.8841 66.0852 54.4665 66.6009 54.4665H85.3984L83.9027 52.5998H66.0992L63.8008 55.4721V59.7608L65.9731 61.9332H84.0288L86.2011 59.7608L86.2006 56.3331ZM68.467 64.7329V63.7996H81.5337V64.7329H68.467Z" fill="#663366"/>
<path d="M88.9021 95.1159C88.6711 94.6563 88.1112 94.4673 87.6491 94.6983C87.1894 94.9293 87.0005 95.4892 87.2314 95.9513L88.2628 98.014C88.9511 99.3906 90.9158 99.3906 91.6042 98.014L92.6355 95.9513C92.8665 95.4893 92.6775 94.9293 92.2179 94.6983C91.7559 94.4673 91.1959 94.6563 90.9648 95.1159L89.9335 97.1809L88.9021 95.1159Z" fill="#663366"/>
<path d="M85.1697 85.7829C84.9387 85.3232 84.3787 85.1343 83.9167 85.3652C83.457 85.5963 83.268 86.1562 83.499 86.6183L84.5304 88.6809C85.2187 90.0576 87.1834 90.0576 87.8718 88.6809L88.9031 86.6183C89.1341 86.1563 88.9451 85.5963 88.4854 85.3652C88.0234 85.1342 87.4635 85.3232 87.2324 85.7829L86.2011 87.8479L85.1697 85.7829Z" fill="#663366"/>
<path d="M62.7693 85.7829C62.5383 85.3232 61.9783 85.1343 61.5163 85.3652C61.0566 85.5963 60.8677 86.1562 61.0986 86.6183L62.13 88.6809C62.8183 90.0576 64.783 90.0576 65.4714 88.6809L66.5027 86.6183C66.7337 86.1563 66.5447 85.5963 66.0851 85.3652C65.6231 85.1342 65.0631 85.3232 64.832 85.7829L63.8007 87.8479L62.7693 85.7829Z" fill="#663366"/>
<path d="M57.7839 94.6983C58.2459 94.4673 58.8059 94.6563 59.0369 95.1159L60.0683 97.1809L61.0996 95.1159C61.3306 94.6563 61.8906 94.4673 62.3526 94.6983C62.8123 94.9293 63.0013 95.4893 62.7703 95.9513L61.739 98.014C61.0506 99.3906 59.086 99.3906 58.3976 98.014L57.3662 95.9513C57.1352 95.4893 57.3242 94.9293 57.7839 94.6983Z" fill="#663366"/>
<path d="M73.9686 95.1159C73.7375 94.6563 73.1776 94.4673 72.7155 94.6983C72.2559 94.9293 72.0669 95.4892 72.2979 95.9513L73.3292 98.014C74.0175 99.3906 75.9822 99.3906 76.6706 98.014L77.7019 95.9513C77.9329 95.4893 77.7439 94.9293 77.2843 94.6983C76.8223 94.4673 76.2623 94.6563 76.0312 95.1159L74.9999 97.1809L73.9686 95.1159Z" fill="#663366"/>
<path d="M72.7175 85.3652C73.1795 85.1342 73.7394 85.3233 73.9705 85.7829L75.0019 87.8479L76.0332 85.7829C76.2642 85.3233 76.8242 85.1343 77.2862 85.3652C77.7459 85.5963 77.9349 86.1562 77.7039 86.6183L76.6725 88.681C75.9842 90.0576 74.0195 90.0576 73.3312 88.681L72.2998 86.6183C72.0688 86.1563 72.2578 85.5963 72.7175 85.3652Z" fill="#663366"/>
<path fill-rule="evenodd" clip-rule="evenodd" d="M47.9353 82.4668C47.4196 82.4668 47.002 82.8845 47.002 83.4001C47.002 83.9158 47.4196 84.3335 47.9353 84.3335H58.6246L55.2646 91.8002H47.9353C47.4196 91.8002 47.002 92.2179 47.002 92.7335C47.002 93.2492 47.4196 93.6669 47.9353 93.6669H54.4241L51.0641 101.134H49.8018C49.2861 101.134 48.8684 101.551 48.8684 102.067C48.8684 102.583 49.2861 103 49.8018 103H51.6474H51.6894H64.7143H64.7563H85.2479H85.2899H98.3148H98.3568H100.202C100.718 103 101.136 102.583 101.136 102.067C101.136 101.551 100.718 101.134 100.202 101.134H98.9401L95.5801 93.6669H102.069C102.585 93.6669 103.002 93.2492 103.002 92.7335C103.002 92.2179 102.585 91.8002 102.069 91.8002H94.7396L91.3796 84.3335H102.069C102.585 84.3335 103.002 83.9158 103.002 83.4001C103.002 82.8845 102.585 82.4668 102.069 82.4668H89.9568H89.9148H79.6902H79.6482H70.3566H70.3146H60.0757H60.0477H47.9353ZM93.5311 93.6669L96.8911 101.134H85.964L83.724 93.6669H93.5311ZM89.3311 84.3335L92.6911 91.8002H83.1642L80.9242 84.3335H89.3311ZM60.6727 84.3335L57.3127 91.8002H59.1351C59.6507 91.8002 60.0684 92.2179 60.0684 92.7335C60.0684 93.2492 59.6507 93.6669 59.1351 93.6669H56.4728L53.1128 101.134H64.0398L66.2798 93.6669H61.9352C61.4195 93.6669 61.0018 93.2492 61.0018 92.7335C61.0018 92.2179 61.4195 91.8002 61.9352 91.8002H66.8398L69.0798 84.3335H60.6727ZM81.773 93.6669L84.013 101.134H65.9902L68.2302 93.6669H81.773ZM78.973 84.3335L81.213 91.8002H68.7902L71.0302 84.3335H78.973Z" fill="#663366"/>
<path d="M75.935 74.9997C75.935 74.4841 75.5174 74.0664 75.0017 74.0664C74.486 74.0664 74.0684 74.4841 74.0684 74.9997V77.7998C74.0684 78.3154 74.486 78.7331 75.0017 78.7331C75.5174 78.7331 75.935 78.3154 75.935 77.7998V74.9997Z" fill="#663366"/>
<path d="M73.7943 72.4732C74.1583 72.8372 74.1583 73.4299 73.7943 73.7939C72.7747 74.8135 72.2007 76.1972 72.2007 77.6392V77.8002C72.2007 78.3159 71.783 78.7336 71.2673 78.7336C70.7517 78.7336 70.334 78.3159 70.334 77.8002V77.6392C70.334 75.7025 71.104 73.8428 72.4736 72.4732C72.8376 72.1092 73.4304 72.1092 73.7943 72.4732Z" fill="#663366"/>
<path d="M79.6688 77.6392C79.6688 75.7025 78.8988 73.8428 77.5292 72.4732C77.1652 72.1092 76.5725 72.1092 76.2085 72.4732C75.8446 72.8372 75.8445 73.4299 76.2085 73.7939C77.2282 74.8135 77.8022 76.1972 77.8022 77.6392V77.8002C77.8022 78.3159 78.2199 78.7336 78.7356 78.7336C79.2512 78.7336 79.6689 78.3159 79.6689 77.8002L79.6688 77.6392Z" fill="#663366"/>
<path d="M90.8686 74.9997C90.8686 74.4841 90.451 74.0664 89.9353 74.0664C89.4196 74.0664 89.002 74.4841 89.002 74.9997V77.7998C89.002 78.3154 89.4196 78.7331 89.9353 78.7331C90.451 78.7331 90.8686 78.3154 90.8686 77.7998V74.9997Z" fill="#663366"/>
<path d="M88.7279 72.4732C89.0919 72.8372 89.0919 73.4299 88.7279 73.7939C87.7083 74.8135 87.1343 76.1972 87.1343 77.6392V77.8002C87.1343 78.3159 86.7166 78.7336 86.2009 78.7336C85.6852 78.7336 85.2676 78.3159 85.2676 77.8002V77.6392C85.2676 75.7025 86.0376 73.8428 87.4072 72.4732C87.7712 72.1092 88.364 72.1092 88.7279 72.4732Z" fill="#663366"/>
<path d="M94.6005 77.6392C94.6005 75.7025 93.8305 73.8428 92.4608 72.4732C92.0968 72.1092 91.5041 72.1092 91.1402 72.4732C90.7762 72.8372 90.7762 73.4299 91.1402 73.7939C92.1598 74.8135 92.7339 76.1972 92.7339 77.6392V77.8002C92.7339 78.3159 93.1515 78.7336 93.6672 78.7336C94.1829 78.7336 94.6005 78.3159 94.6005 77.8002L94.6005 77.6392Z" fill="#663366"/>
<path d="M61.0014 74.9997C61.0014 74.4841 60.5838 74.0664 60.0681 74.0664C59.5524 74.0664 59.1348 74.4841 59.1348 74.9997V77.7998C59.1348 78.3154 59.5524 78.7331 60.0681 78.7331C60.5838 78.7331 61.0014 78.3154 61.0014 77.7998V74.9997Z" fill="#663366"/>
<path d="M58.8627 72.4732C59.2267 72.8372 59.2267 73.4299 58.8627 73.7939C57.8431 74.8135 57.269 76.1972 57.269 77.6392V77.8002C57.269 78.3159 56.8513 78.7336 56.3357 78.7336C55.82 78.7336 55.4023 78.3159 55.4023 77.8002V77.6392C55.4023 75.7025 56.1724 73.8428 57.542 72.4732C57.906 72.1092 58.4987 72.1092 58.8627 72.4732Z" fill="#663366"/>
<path d="M62.5956 72.4732C62.2316 72.1092 61.6389 72.1092 61.2749 72.4732C60.911 72.8372 60.9109 73.4299 61.2749 73.7939C62.2946 74.8135 62.8686 76.1972 62.8686 77.6392V77.8002C62.8686 78.3159 63.2863 78.7336 63.802 78.7336C64.3176 78.7336 64.7353 78.3159 64.7353 77.8002V77.6392C64.7353 75.7025 63.9652 73.8428 62.5956 72.4732Z" fill="#663366"/>
<path d="M49.3835 85.3652C49.8455 85.1342 50.4055 85.3233 50.6365 85.7829L51.6679 87.8479L52.6992 85.7829C52.9302 85.3233 53.4902 85.1343 53.9523 85.3652C54.4119 85.5963 54.6009 86.1562 54.3699 86.6183L53.3386 88.681C52.6503 90.0576 50.6856 90.0576 49.9972 88.681L48.9658 86.6183C48.7348 86.1563 48.9238 85.5963 49.3835 85.3652Z" fill="#663366"/>
<path d="M96.0495 85.3652C96.5115 85.1342 97.0715 85.3233 97.3025 85.7829L98.3339 87.8479L99.3652 85.7829C99.5962 85.3233 100.156 85.1343 100.618 85.3652C101.078 85.5963 101.267 86.1562 101.036 86.6183L100.005 88.681C99.3163 90.0576 97.3516 90.0576 96.6632 88.681L95.6318 86.6183C95.4008 86.1563 95.5898 85.5963 96.0495 85.3652Z" fill="#663366"/>
</svg>
