<svg width="150" height="150" viewBox="0 0 150 150" fill="none" xmlns="http://www.w3.org/2000/svg">
<path d="M113.608 91.2441C109.477 91.2441 105.448 92.2902 101.862 94.2605C100.602 92.5136 99.7886 91.2847 99.3924 90.6652V59.3236C99.7887 58.7041 100.602 57.4751 101.862 55.7283C105.448 57.7037 109.477 58.7447 113.613 58.7447C127.062 58.7447 138 47.8115 138 34.3697C137.995 20.933 127.056 10 113.608 10C100.159 10 89.2209 20.9332 89.2209 34.3749C89.2209 36.0761 89.414 37.7469 89.7544 39.3871C85.6544 36.259 80.5484 34.3749 75 34.3749C69.4516 34.3749 64.3409 36.2589 60.2404 39.3922C60.5859 37.7519 60.7738 36.0761 60.7738 34.3749C60.7738 20.933 49.8352 10 36.3869 10C22.9386 10 12 20.9332 12 34.3749C12 47.8167 22.9386 58.7499 36.3869 58.7499C40.5226 58.7499 44.5514 57.7089 48.1384 55.7335C49.4035 57.4855 50.2215 58.7195 50.6126 59.3339V90.656C50.2163 91.2755 49.4034 92.5045 48.1334 94.2614C44.5465 92.2861 40.5175 91.245 36.3871 91.245C22.9385 91.245 12.0001 102.178 12.0001 115.62C12.0001 129.062 22.9387 139.995 36.3871 139.995C49.8354 139.995 60.774 129.062 60.774 115.62C60.774 115.163 60.7333 114.706 60.7079 114.254L61.2465 114.899C61.6326 115.361 62.2016 115.63 62.8062 115.63H87.1931C87.7977 115.63 88.3667 115.361 88.7528 114.899L89.2812 114.264C89.2558 114.716 89.2152 115.168 89.2152 115.625C89.2152 129.067 100.154 140 113.602 140C127.051 140 137.989 129.067 137.989 115.625C137.989 102.183 127.05 91.2501 113.602 91.2501L113.608 91.2441ZM108.741 109.149C107.755 109.89 106.957 110.845 106.393 111.952C102.827 109.616 99.3822 107.656 96.0899 106.097L98.9147 102.705C99.2196 102.339 99.3872 101.882 99.3872 101.405V97.7789C101.521 100.653 104.6 104.538 108.741 109.154L108.741 109.149ZM117.672 115.619C117.672 117.858 115.848 119.681 113.608 119.681C111.367 119.681 109.543 117.858 109.543 115.619C109.543 113.379 111.367 111.556 113.608 111.556C115.848 111.556 117.672 113.379 117.672 115.619ZM106.398 38.0503C106.962 39.1472 107.76 40.1018 108.736 40.8381C104.127 45.9721 100.84 50.192 98.7065 53.1373C97.9596 49.9888 96.6031 47.074 94.764 44.5299C99.1028 42.5849 103.193 40.1476 106.398 38.0503ZM113.608 38.4362C111.367 38.4362 109.543 36.6133 109.543 34.3738C109.543 32.1342 111.367 30.3113 113.608 30.3113C115.848 30.3113 117.672 32.1342 117.672 34.3738C117.672 36.6133 115.848 38.4362 113.608 38.4362ZM113.608 14.0613C124.816 14.0613 133.93 23.1714 133.93 34.3738C133.93 45.5761 124.816 54.6862 113.608 54.6862C110.356 54.6862 107.206 53.8737 104.351 52.4112C106.475 49.669 109.279 46.2768 112.795 42.4175C113.064 42.4429 113.328 42.4987 113.608 42.4987C115.112 42.4987 116.504 42.062 117.713 41.346L122.336 45.9671C122.733 46.3632 123.251 46.5612 123.774 46.5612C124.292 46.5612 124.816 46.3632 125.212 45.9671C126.005 45.1749 126.005 43.8901 125.212 43.0929L120.589 38.4718C121.3 37.2632 121.742 35.8718 121.742 34.3688C121.742 29.8899 118.094 26.2438 113.613 26.2438C112.109 26.2438 110.717 26.6805 109.508 27.3965L104.885 22.7754C104.092 21.9832 102.807 21.9832 102.009 22.7754C101.216 23.5676 101.216 24.8575 102.009 25.6496L106.632 30.2707C106.023 31.3066 105.642 32.4797 105.545 33.7442C102.573 35.7551 98.5339 38.2637 94.1848 40.3153C93.5954 38.3957 93.2906 36.4051 93.2906 34.3739C93.2906 23.1715 102.405 14.0614 113.613 14.0614L113.608 14.0613ZM51.2892 53.1418C49.1554 50.2016 45.8631 45.9715 41.255 40.8376C42.2356 40.0962 43.0333 39.1466 43.5922 38.0498C46.798 40.147 50.8879 42.5795 55.2267 44.5295C53.3875 47.0786 52.0311 49.9884 51.2842 53.1419L51.2892 53.1418ZM32.3233 34.3724C32.3233 32.1329 34.1472 30.31 36.3878 30.31C38.6284 30.31 40.4523 32.1329 40.4523 34.3724C40.4523 36.612 38.6284 38.4349 36.3878 38.4349C34.1472 38.4349 32.3233 36.612 32.3233 34.3724ZM36.3878 54.6849C25.18 54.6849 16.0654 45.5748 16.0654 34.3724C16.0654 23.1701 25.18 14.06 36.3878 14.06C47.5956 14.06 56.7102 23.1701 56.7102 34.3724C56.7102 36.4088 56.4003 38.3995 55.8161 40.3138C51.467 38.2623 47.4229 35.7537 44.4558 33.7427C44.3542 32.4834 43.9782 31.3052 43.3685 30.2693L47.9919 25.6482C48.7845 24.856 48.7845 23.5712 47.9919 22.774C47.1993 21.9818 45.9139 21.9818 45.1163 22.774L40.493 27.3951C39.2838 26.6842 37.8917 26.2424 36.3879 26.2424C31.9068 26.2424 28.2589 29.8885 28.2589 34.3674C28.2589 35.8704 28.6958 37.2619 29.4122 38.4704L24.7888 43.0915C23.9963 43.8837 23.9963 45.1685 24.7888 45.9657C25.1851 46.3618 25.7033 46.5598 26.2267 46.5598C26.7449 46.5598 27.2682 46.3618 27.6645 45.9657L32.2879 41.3446C33.4971 42.0555 34.8892 42.4973 36.393 42.4973C36.6724 42.4973 36.9315 42.4414 37.2059 42.4161C40.7267 46.2755 43.5262 49.6676 45.6499 52.4098C42.7946 53.8773 39.6446 54.6848 36.393 54.6848L36.3878 54.6849ZM51.0863 102.704L53.9111 106.091C50.619 107.65 47.1692 109.616 43.6026 111.951C43.0386 110.844 42.2409 109.89 41.2553 109.148C45.4011 104.527 48.4799 100.643 50.6138 97.7684V101.404C50.6138 101.882 50.7815 102.339 51.0863 102.704ZM36.3878 111.555C38.6284 111.555 40.4523 113.378 40.4523 115.618C40.4523 117.857 38.6284 119.68 36.3878 119.68C34.1472 119.68 32.3233 117.857 32.3233 115.618C32.3233 113.378 34.1472 111.555 36.3878 111.555ZM36.3878 135.93C25.18 135.93 16.0654 126.82 16.0654 115.618C16.0654 104.416 25.18 95.3054 36.3878 95.3054C39.6343 95.3054 42.7894 96.1179 45.6447 97.5804C43.521 100.323 40.7165 103.715 37.2007 107.574C36.9314 107.549 36.6672 107.493 36.3878 107.493C34.884 107.493 33.4918 107.93 32.2827 108.646L27.6644 104.025C26.8719 103.232 25.5864 103.232 24.7889 104.025C23.9963 104.817 23.9963 106.102 24.7889 106.899L29.4122 111.52C28.7009 112.728 28.2589 114.12 28.2589 115.623C28.2589 120.102 31.9068 123.748 36.3879 123.748C37.8917 123.748 39.2839 123.311 40.493 122.595L45.1163 127.216C45.5126 127.612 46.0309 127.81 46.5542 127.81C47.0724 127.81 47.5957 127.612 47.9921 127.216C48.7846 126.424 48.7846 125.139 47.9921 124.342L43.3687 119.721C43.9784 118.69 44.3543 117.517 44.4559 116.258C48.3781 113.602 52.2496 111.372 55.8264 109.686C56.4106 111.596 56.7104 113.586 56.7104 115.618C56.7104 126.82 47.5956 135.93 36.3878 135.93ZM87.1893 110.423V89.2175C87.1893 88.0953 86.2799 87.1863 85.1571 87.1863C84.0343 87.1863 83.1249 88.0953 83.1249 89.2175V111.562H66.8721V89.2175C66.8721 88.0953 65.9627 87.1863 64.8399 87.1863C63.7171 87.1863 62.8076 88.0953 62.8076 89.2175V110.419L54.6786 100.669V58.7495C54.6786 52.1225 57.8845 46.2471 62.8076 42.5398V81.0925C62.8076 82.2148 63.7171 83.1238 64.8399 83.1238C65.9627 83.1238 66.8721 82.2148 66.8721 81.0925V40.4676C66.8721 40.361 66.8264 40.2746 66.8111 40.1731C69.321 39.0661 72.0848 38.4364 75.0011 38.4364C77.9174 38.4364 80.6813 39.0661 83.186 40.1731C83.1708 40.2747 83.1251 40.3661 83.1251 40.4676V81.0925C83.1251 82.2148 84.0345 83.1238 85.1573 83.1238C86.2801 83.1238 87.1895 82.2148 87.1895 81.0925V42.5346C92.1178 46.2417 95.3236 52.1221 95.3236 58.7495V100.669L87.1893 110.423ZM113.608 135.93C102.4 135.93 93.2854 126.82 93.2854 115.618C93.2854 113.587 93.5903 111.596 94.1695 109.687C97.7614 111.378 101.572 113.566 105.54 116.258C105.641 117.517 106.017 118.685 106.627 119.721L102.004 124.342C101.211 125.134 101.211 126.419 102.004 127.216C102.4 127.612 102.918 127.81 103.442 127.81C103.96 127.81 104.483 127.612 104.879 127.216L109.503 122.595C110.712 123.306 112.104 123.748 113.608 123.748C118.089 123.748 121.737 120.102 121.737 115.623C121.737 114.12 121.3 112.728 120.589 111.52L125.207 106.899C126 106.107 126 104.822 125.207 104.025C124.414 103.232 123.124 103.232 122.331 104.025L117.713 108.646C116.504 107.93 115.112 107.493 113.608 107.493C113.329 107.493 113.069 107.549 112.795 107.574C109.274 103.715 106.475 100.323 104.351 97.5805C107.206 96.113 110.362 95.3005 113.608 95.3005C124.816 95.3005 133.93 104.411 133.93 115.613C133.93 126.815 124.816 135.925 113.608 135.925L113.608 135.93Z" fill="#663366"/>
</svg>
