<svg width="150" height="150" viewBox="0 0 150 150" fill="none" xmlns="http://www.w3.org/2000/svg">
<path d="M90.1074 100.629C93.5343 99.4051 97.3183 99.9785 100.229 102.161L105.27 105.942L144.779 110.591L145.027 110.62L144.998 110.868L144.724 113.198L144.695 113.447L144.446 113.418L104.558 108.725C104.309 108.695 104.071 108.601 103.87 108.45H103.869L98.5205 104.438C96.3765 102.83 93.5886 102.408 91.0654 103.31L64.5986 112.761C67.2736 116.524 72.1997 118.217 76.6855 116.722L94.8877 110.654C95.6122 110.413 96.3966 110.786 96.668 111.498C96.939 112.211 96.5997 113.012 95.8984 113.312L63.0488 127.391C62.633 127.569 62.1566 127.539 61.7666 127.31L29.1689 108.135C26.1021 106.331 22.2492 106.944 19.8818 109.452L57.8633 141.104C59.4329 142.411 61.5912 142.764 63.4941 142.023L101.861 127.103C102.1 127.01 102.359 126.983 102.611 127.025L144.847 134.064L145.094 134.105L145.053 134.353L144.626 136.913L144.379 136.872L102.528 129.896L64.5264 144.676C63.533 145.062 62.4933 145.251 61.4609 145.251C59.5119 145.251 57.5871 144.578 56.041 143.29L16.9941 110.751C16.4357 110.285 16.3183 109.473 16.7217 108.868C19.7715 104.294 25.872 102.893 30.6123 105.681L62.5889 124.49L72.8438 120.096C68.0262 119.912 63.4693 117.149 61.2148 112.641C61.0328 112.276 61.0152 111.852 61.167 111.474C61.3188 111.096 61.6254 110.801 62.0088 110.664L90.1074 100.629Z" fill="#663366" stroke="#663366" stroke-width="0.5"/>
<path d="M68.2529 80.8652C68.5225 80.3269 69.1013 80.0154 69.7002 80.0889C70.2979 80.1626 70.7843 80.6046 70.915 81.1924L74.3916 96.835L77.5439 85.8037C77.7187 85.192 78.2771 84.7717 78.9111 84.7715H78.9355C79.5796 84.7823 80.1365 85.2239 80.293 85.8486L82.3701 94.1572H100.279V97.0029H81.2578C80.6048 97.0027 80.0363 96.5582 79.8779 95.9248L78.8193 91.6943L75.5869 103.01C75.4122 103.622 74.853 104.043 74.2197 104.043C74.206 104.043 74.1905 104.043 74.1748 104.042V104.041C73.5247 104.021 72.971 103.563 72.8301 102.928L69.0059 85.7236L63.7598 96.2168C63.5186 96.6988 63.0252 97.0029 62.4863 97.0029H48.1582V94.1572H61.6064L68.2529 80.8652Z" fill="#663366" stroke="#663366" stroke-width="0.5"/>
<path d="M74.2207 21.4141C77.7384 21.4141 81.1097 22.2027 84.2393 23.7578L84.4639 23.8691L84.3525 24.0928L83.3076 26.1943L83.1963 26.418L82.9727 26.3066C80.2402 24.9488 77.2963 24.2608 74.2207 24.2607C67.6343 24.2607 61.5113 27.533 57.8418 33.0146L57.7021 33.2227L57.4941 33.083L55.5449 31.7783L55.3369 31.6387L55.4756 31.4316C59.6743 25.1594 66.6825 21.4141 74.2207 21.4141Z" fill="#663366" stroke="#663366" stroke-width="0.5"/>
<path d="M53.2812 36.292L55.4941 37.0732L55.7295 37.1572L55.6465 37.3926C54.9033 39.4955 54.5264 41.7044 54.5264 43.958C54.5266 54.8172 63.3615 63.6523 74.2207 63.6523C77.2964 63.6523 80.2401 62.9634 82.9727 61.6055L83.1973 61.4941L83.3086 61.7188L84.3525 63.8193L84.4639 64.0439L84.2402 64.1553C81.1105 65.7106 77.7386 66.499 74.2207 66.499C61.7915 66.499 51.6799 56.3873 51.6797 43.958C51.6797 41.3813 52.1116 38.853 52.9629 36.4443L53.0459 36.208L53.2812 36.292Z" fill="#663366" stroke="#663366" stroke-width="0.5"/>
<path d="M88.3896 26.4268C93.7092 30.7315 96.7607 37.1219 96.7607 43.958C96.7607 50.362 94.0218 56.4864 89.2471 60.7598L89.0615 60.9258L88.8945 60.7402L87.3291 58.9912L87.1631 58.8047L87.3486 58.6387C91.5211 54.9045 93.9141 49.5531 93.9141 43.958C93.914 37.9846 91.2482 32.402 86.5986 28.6396L86.4043 28.4824L86.5615 28.2881L88.0381 26.4639L88.1953 26.2695L88.3896 26.4268Z" fill="#663366" stroke="#663366" stroke-width="0.5"/>
<path d="M74.2188 26.1094C84.0605 26.1094 92.0674 34.1163 92.0674 43.958C92.0672 53.7996 84.0604 61.8057 74.2188 61.8057C70.5474 61.8056 67.0204 60.6988 64.0195 58.6055L63.8145 58.4629L63.957 58.2578L65.2988 56.333L65.4424 56.1279L65.6475 56.2715C68.1685 58.03 71.132 58.9589 74.2188 58.959C82.4904 58.959 89.2205 52.2296 89.2207 43.958C89.2207 35.6862 82.4905 28.9561 74.2188 28.9561H73.9688V26.1094H74.2188Z" fill="#663366" stroke="#663366" stroke-width="0.5"/>
<path d="M69.4316 27.0146L70.1006 29.2637L70.1719 29.5029L69.9326 29.5742C63.6251 31.4515 59.2179 37.3663 59.2178 43.9551C59.2178 47.0416 60.147 50.0053 61.9053 52.5264L62.0488 52.7314L61.8438 52.875L59.9199 54.2178L59.7148 54.3604L59.5713 54.1553C57.4777 51.1541 56.3711 47.6262 56.3711 43.9551C56.3712 36.1151 61.6134 29.0812 69.1211 26.8467L69.3604 26.7754L69.4316 27.0146Z" fill="#663366" stroke="#663366" stroke-width="0.5"/>
<path d="M63.9111 43.707V43.957C63.9111 49.6412 68.5356 54.2656 74.2197 54.2656C78.3197 54.2656 82.0297 51.838 83.6719 48.0801L83.7715 47.8506L84.001 47.9512L86.1514 48.8906L86.3799 48.9902L86.2803 49.2197C84.1854 54.0144 79.4511 57.1123 74.2197 57.1123C66.9656 57.1122 61.0645 51.2111 61.0645 43.957V43.707H63.9111Z" fill="#663366" stroke="#663366" stroke-width="0.5"/>
<path d="M74.2197 30.8008C81.4738 30.8008 87.3749 36.702 87.375 43.9561V44.2061H84.5283V43.9561C84.5283 38.2719 79.9038 33.6475 74.2197 33.6475C70.1198 33.6475 66.4097 36.0752 64.7676 39.833L64.668 40.0625L64.4385 39.9619L62.2881 39.0225L62.0596 38.9229L62.1592 38.6934C64.2541 33.8987 68.9884 30.8008 74.2197 30.8008Z" fill="#663366" stroke="#663366" stroke-width="0.5"/>
<path d="M74.2197 37.8398C77.5924 37.8399 80.3359 40.5835 80.3359 43.9561C80.3359 47.3285 77.5924 50.0722 74.2197 50.0723C70.847 50.0723 68.1036 47.3286 68.1035 43.9561C68.1035 40.5835 70.847 37.8398 74.2197 37.8398ZM74.2197 40.6865C72.417 40.6865 70.9502 42.1534 70.9502 43.9561C70.9503 45.7586 72.417 47.2256 74.2197 47.2256C76.0224 47.2255 77.4892 45.7586 77.4893 43.9561C77.4893 42.1535 76.0224 40.6866 74.2197 40.6865Z" fill="#663366" stroke="#663366" stroke-width="0.5"/>
<mask id="path-11-outside-1_663_3764" maskUnits="userSpaceOnUse" x="4" y="4" width="140" height="77" fill="black">
<rect fill="white" x="4" y="4" width="140" height="77"/>
<path d="M27.7772 54.5158H40.8937C44.3195 58.872 48.3055 62.787 52.7421 66.1218L43.2301 75.6337H32.9518C32.4672 74.269 31.1665 73.2873 29.6375 73.2873C27.6967 73.2873 26.1179 74.8662 26.1179 76.807C26.1179 78.7477 27.6967 80.3266 29.6375 80.3266C31.1665 80.3266 32.4672 79.3449 32.9518 77.9802H43.7161C44.0272 77.9802 44.3257 77.8566 44.5456 77.6366L54.6678 67.5145C54.9851 67.7346 55.3039 67.9528 55.6253 68.1671L73.569 80.1295C73.7661 80.261 73.9929 80.3266 74.2198 80.3266C74.4486 80.3266 74.6772 80.2599 74.8754 80.1264L92.8142 68.0411C93.1105 67.8435 93.4041 67.642 93.6968 67.4395L103.894 77.6366C104.114 77.8566 104.412 77.9802 104.723 77.9802H115.488C115.972 79.3449 117.273 80.3266 118.802 80.3266C120.743 80.3266 122.322 78.7477 122.322 76.807C122.322 74.8662 120.743 73.2873 118.802 73.2873C117.273 73.2873 115.972 74.269 115.488 75.6337H105.209L95.6251 66.0495C100.048 62.7352 104.024 58.8448 107.445 54.5158H120.662L136.747 70.6006C136.527 71.0598 136.4 71.5718 136.4 72.1141C136.4 74.0548 137.979 75.6337 139.92 75.6337C141.861 75.6337 143.44 74.0548 143.44 72.1141C143.44 70.1734 141.861 68.5944 139.92 68.5944C139.378 68.5944 138.865 68.7213 138.406 68.9414L121.978 52.513C121.758 52.293 121.46 52.1694 121.148 52.1694H109.218C111.85 48.5098 114.096 44.5731 115.903 40.4372H130.534C130.845 40.4372 131.144 40.3136 131.364 40.0937L138.406 33.051C138.865 33.271 139.378 33.3979 139.92 33.3979C141.861 33.3979 143.44 31.819 143.44 29.8783C143.44 27.9376 141.861 26.3586 139.92 26.3586C137.979 26.3586 136.4 27.9376 136.4 29.8783C136.4 30.4206 136.527 30.9326 136.747 31.3918L130.048 38.0908H116.872C117.086 37.54 117.296 36.9872 117.495 36.4302C119.912 29.6628 119.038 22.191 115.37 16.1977L121.635 9.93361H136.606C137.09 11.2984 138.391 12.28 139.92 12.28C141.861 12.28 143.44 10.7011 143.44 8.76039C143.44 6.81969 141.861 5.24074 139.92 5.24074C138.391 5.24074 137.09 6.22241 136.606 7.58717H121.148C120.837 7.58717 120.539 7.71077 120.319 7.93075L114.022 14.2273C113.397 13.4064 112.715 12.6206 111.975 11.8799C102.801 2.7067 87.8745 2.7067 78.7007 11.8799L74.2097 16.3708L69.7389 12.0059C60.5651 2.83273 45.6387 2.83273 36.4649 12.0059C35.7457 12.7252 35.083 13.4873 34.4721 14.2823L28.1206 7.93075C27.9006 7.71077 27.6022 7.58717 27.2911 7.58717H11.8339C11.3493 6.22241 10.0486 5.24074 8.51965 5.24074C6.5788 5.24074 5 6.81969 5 8.76039C5 10.7011 6.5788 12.28 8.51965 12.28C10.0486 12.28 11.3493 11.2984 11.8339 9.93361H26.805L33.1172 16.2457C29.4094 22.2521 28.517 29.7595 30.9445 36.5564C31.1283 37.0708 31.3211 37.5817 31.5182 38.0908H18.3915L11.6924 31.3918C11.9124 30.9326 12.0393 30.4206 12.0393 29.8783C12.0393 27.9376 10.4605 26.3586 8.51965 26.3586C6.5788 26.3586 5 27.9376 5 29.8783C5 31.819 6.5788 33.3979 8.51965 33.3979C9.062 33.3979 9.57407 33.271 10.0333 33.051L17.0759 40.0937C17.2959 40.3136 17.5943 40.4372 17.9054 40.4372H32.4814C34.2772 44.5721 36.513 48.508 39.1325 52.1694H27.2911C26.98 52.1694 26.6816 52.293 26.4616 52.513L10.0333 68.9414C9.57407 68.7213 9.062 68.5944 8.51965 68.5944C6.5788 68.5944 5 70.1734 5 72.1141C5 74.0548 6.5788 75.6337 8.51965 75.6337C10.4605 75.6337 12.0393 74.0548 12.0393 72.1141C12.0393 71.5718 11.9124 71.0598 11.6924 70.6006L27.7772 54.5158ZM29.6375 77.9802C28.9905 77.9802 28.4643 77.4539 28.4643 76.807C28.4643 76.16 28.9905 75.6337 29.6375 75.6337C30.2846 75.6337 30.8108 76.16 30.8108 76.807C30.8108 77.4539 30.2846 77.9802 29.6375 77.9802ZM118.802 75.6337C119.449 75.6337 119.975 76.16 119.975 76.807C119.975 77.4539 119.449 77.9802 118.802 77.9802C118.155 77.9802 117.629 77.4539 117.629 76.807C117.629 76.16 118.155 75.6337 118.802 75.6337ZM139.92 70.9409C140.567 70.9409 141.093 71.4672 141.093 72.1141C141.093 72.761 140.567 73.2873 139.92 73.2873C139.273 73.2873 138.747 72.761 138.747 72.1141C138.747 71.4672 139.273 70.9409 139.92 70.9409ZM139.92 28.7051C140.567 28.7051 141.093 29.2314 141.093 29.8783C141.093 30.5252 140.567 31.0515 139.92 31.0515C139.273 31.0515 138.747 30.5252 138.747 29.8783C138.747 29.2314 139.273 28.7051 139.92 28.7051ZM139.92 7.58717C140.567 7.58717 141.093 8.11349 141.093 8.76039C141.093 9.40729 140.567 9.93361 139.92 9.93361C139.273 9.93361 138.747 9.40729 138.747 8.76039C138.747 8.11349 139.273 7.58717 139.92 7.58717ZM8.51965 9.93361C7.8726 9.93361 7.34643 9.40729 7.34643 8.76039C7.34643 8.11349 7.8726 7.58717 8.51965 7.58717C9.16669 7.58717 9.69286 8.11349 9.69286 8.76039C9.69286 9.40729 9.16669 9.93361 8.51965 9.93361ZM8.51965 31.0515C7.8726 31.0515 7.34643 30.5252 7.34643 29.8783C7.34643 29.2314 7.8726 28.7051 8.51965 28.7051C9.16669 28.7051 9.69286 29.2314 9.69286 29.8783C9.69286 30.5252 9.16669 31.0515 8.51965 31.0515ZM35.0472 40.4372H48.409V38.0908H34.039C33.7282 37.3227 33.433 36.5481 33.154 35.7671C31.0321 29.8252 31.7273 23.2796 34.8257 17.9543L47.5795 30.7079L49.2385 29.0486L36.1442 15.9544C36.7434 15.1508 37.4039 14.3852 38.1239 13.6652C42.2525 9.5369 47.674 7.47246 53.0982 7.47246C58.5251 7.47246 63.9544 9.53977 68.0899 13.6751L73.4003 18.8596C73.8597 19.3082 74.595 19.3039 75.0493 18.8497L80.3597 13.5392C88.6189 5.28055 102.057 5.28027 110.316 13.5392C111.057 14.2808 111.735 15.0716 112.348 15.9017L99.201 29.0486L100.86 30.7079L113.659 17.9086C116.718 23.2194 117.397 29.729 115.286 35.6413C114.991 36.465 114.678 37.2814 114.348 38.0908H100.031V40.4372H113.334C111.432 44.5963 109.064 48.5347 106.297 52.1694H97.6841V54.5158H104.42C101.33 58.1914 97.8136 61.5087 93.948 64.3724L91.4743 61.8987L89.8153 63.558L92.0082 65.7509C91.8414 65.8645 91.6758 65.9799 91.5078 66.0919L74.2163 77.7411L56.9269 66.2148C56.7353 66.0871 56.5463 65.9558 56.3563 65.8259L58.6242 63.558L56.9652 61.8987L54.419 64.4449C50.5383 61.5614 47.0107 58.2189 43.9143 54.5158H50.7554V52.1694H42.0462C39.292 48.5331 36.9366 44.5949 35.0472 40.4372ZM8.51965 73.2873C7.8726 73.2873 7.34643 72.761 7.34643 72.1141C7.34643 71.4672 7.8726 70.9409 8.51965 70.9409C9.16669 70.9409 9.69286 71.4672 9.69286 72.1141C9.69286 72.761 9.16669 73.2873 8.51965 73.2873Z"/>
</mask>
<path d="M27.7772 54.5158H40.8937C44.3195 58.872 48.3055 62.787 52.7421 66.1218L43.2301 75.6337H32.9518C32.4672 74.269 31.1665 73.2873 29.6375 73.2873C27.6967 73.2873 26.1179 74.8662 26.1179 76.807C26.1179 78.7477 27.6967 80.3266 29.6375 80.3266C31.1665 80.3266 32.4672 79.3449 32.9518 77.9802H43.7161C44.0272 77.9802 44.3257 77.8566 44.5456 77.6366L54.6678 67.5145C54.9851 67.7346 55.3039 67.9528 55.6253 68.1671L73.569 80.1295C73.7661 80.261 73.9929 80.3266 74.2198 80.3266C74.4486 80.3266 74.6772 80.2599 74.8754 80.1264L92.8142 68.0411C93.1105 67.8435 93.4041 67.642 93.6968 67.4395L103.894 77.6366C104.114 77.8566 104.412 77.9802 104.723 77.9802H115.488C115.972 79.3449 117.273 80.3266 118.802 80.3266C120.743 80.3266 122.322 78.7477 122.322 76.807C122.322 74.8662 120.743 73.2873 118.802 73.2873C117.273 73.2873 115.972 74.269 115.488 75.6337H105.209L95.6251 66.0495C100.048 62.7352 104.024 58.8448 107.445 54.5158H120.662L136.747 70.6006C136.527 71.0598 136.4 71.5718 136.4 72.1141C136.4 74.0548 137.979 75.6337 139.92 75.6337C141.861 75.6337 143.44 74.0548 143.44 72.1141C143.44 70.1734 141.861 68.5944 139.92 68.5944C139.378 68.5944 138.865 68.7213 138.406 68.9414L121.978 52.513C121.758 52.293 121.46 52.1694 121.148 52.1694H109.218C111.85 48.5098 114.096 44.5731 115.903 40.4372H130.534C130.845 40.4372 131.144 40.3136 131.364 40.0937L138.406 33.051C138.865 33.271 139.378 33.3979 139.92 33.3979C141.861 33.3979 143.44 31.819 143.44 29.8783C143.44 27.9376 141.861 26.3586 139.92 26.3586C137.979 26.3586 136.4 27.9376 136.4 29.8783C136.4 30.4206 136.527 30.9326 136.747 31.3918L130.048 38.0908H116.872C117.086 37.54 117.296 36.9872 117.495 36.4302C119.912 29.6628 119.038 22.191 115.37 16.1977L121.635 9.93361H136.606C137.09 11.2984 138.391 12.28 139.92 12.28C141.861 12.28 143.44 10.7011 143.44 8.76039C143.44 6.81969 141.861 5.24074 139.92 5.24074C138.391 5.24074 137.09 6.22241 136.606 7.58717H121.148C120.837 7.58717 120.539 7.71077 120.319 7.93075L114.022 14.2273C113.397 13.4064 112.715 12.6206 111.975 11.8799C102.801 2.7067 87.8745 2.7067 78.7007 11.8799L74.2097 16.3708L69.7389 12.0059C60.5651 2.83273 45.6387 2.83273 36.4649 12.0059C35.7457 12.7252 35.083 13.4873 34.4721 14.2823L28.1206 7.93075C27.9006 7.71077 27.6022 7.58717 27.2911 7.58717H11.8339C11.3493 6.22241 10.0486 5.24074 8.51965 5.24074C6.5788 5.24074 5 6.81969 5 8.76039C5 10.7011 6.5788 12.28 8.51965 12.28C10.0486 12.28 11.3493 11.2984 11.8339 9.93361H26.805L33.1172 16.2457C29.4094 22.2521 28.517 29.7595 30.9445 36.5564C31.1283 37.0708 31.3211 37.5817 31.5182 38.0908H18.3915L11.6924 31.3918C11.9124 30.9326 12.0393 30.4206 12.0393 29.8783C12.0393 27.9376 10.4605 26.3586 8.51965 26.3586C6.5788 26.3586 5 27.9376 5 29.8783C5 31.819 6.5788 33.3979 8.51965 33.3979C9.062 33.3979 9.57407 33.271 10.0333 33.051L17.0759 40.0937C17.2959 40.3136 17.5943 40.4372 17.9054 40.4372H32.4814C34.2772 44.5721 36.513 48.508 39.1325 52.1694H27.2911C26.98 52.1694 26.6816 52.293 26.4616 52.513L10.0333 68.9414C9.57407 68.7213 9.062 68.5944 8.51965 68.5944C6.5788 68.5944 5 70.1734 5 72.1141C5 74.0548 6.5788 75.6337 8.51965 75.6337C10.4605 75.6337 12.0393 74.0548 12.0393 72.1141C12.0393 71.5718 11.9124 71.0598 11.6924 70.6006L27.7772 54.5158ZM29.6375 77.9802C28.9905 77.9802 28.4643 77.4539 28.4643 76.807C28.4643 76.16 28.9905 75.6337 29.6375 75.6337C30.2846 75.6337 30.8108 76.16 30.8108 76.807C30.8108 77.4539 30.2846 77.9802 29.6375 77.9802ZM118.802 75.6337C119.449 75.6337 119.975 76.16 119.975 76.807C119.975 77.4539 119.449 77.9802 118.802 77.9802C118.155 77.9802 117.629 77.4539 117.629 76.807C117.629 76.16 118.155 75.6337 118.802 75.6337ZM139.92 70.9409C140.567 70.9409 141.093 71.4672 141.093 72.1141C141.093 72.761 140.567 73.2873 139.92 73.2873C139.273 73.2873 138.747 72.761 138.747 72.1141C138.747 71.4672 139.273 70.9409 139.92 70.9409ZM139.92 28.7051C140.567 28.7051 141.093 29.2314 141.093 29.8783C141.093 30.5252 140.567 31.0515 139.92 31.0515C139.273 31.0515 138.747 30.5252 138.747 29.8783C138.747 29.2314 139.273 28.7051 139.92 28.7051ZM139.92 7.58717C140.567 7.58717 141.093 8.11349 141.093 8.76039C141.093 9.40729 140.567 9.93361 139.92 9.93361C139.273 9.93361 138.747 9.40729 138.747 8.76039C138.747 8.11349 139.273 7.58717 139.92 7.58717ZM8.51965 9.93361C7.8726 9.93361 7.34643 9.40729 7.34643 8.76039C7.34643 8.11349 7.8726 7.58717 8.51965 7.58717C9.16669 7.58717 9.69286 8.11349 9.69286 8.76039C9.69286 9.40729 9.16669 9.93361 8.51965 9.93361ZM8.51965 31.0515C7.8726 31.0515 7.34643 30.5252 7.34643 29.8783C7.34643 29.2314 7.8726 28.7051 8.51965 28.7051C9.16669 28.7051 9.69286 29.2314 9.69286 29.8783C9.69286 30.5252 9.16669 31.0515 8.51965 31.0515ZM35.0472 40.4372H48.409V38.0908H34.039C33.7282 37.3227 33.433 36.5481 33.154 35.7671C31.0321 29.8252 31.7273 23.2796 34.8257 17.9543L47.5795 30.7079L49.2385 29.0486L36.1442 15.9544C36.7434 15.1508 37.4039 14.3852 38.1239 13.6652C42.2525 9.5369 47.674 7.47246 53.0982 7.47246C58.5251 7.47246 63.9544 9.53977 68.0899 13.6751L73.4003 18.8596C73.8597 19.3082 74.595 19.3039 75.0493 18.8497L80.3597 13.5392C88.6189 5.28055 102.057 5.28027 110.316 13.5392C111.057 14.2808 111.735 15.0716 112.348 15.9017L99.201 29.0486L100.86 30.7079L113.659 17.9086C116.718 23.2194 117.397 29.729 115.286 35.6413C114.991 36.465 114.678 37.2814 114.348 38.0908H100.031V40.4372H113.334C111.432 44.5963 109.064 48.5347 106.297 52.1694H97.6841V54.5158H104.42C101.33 58.1914 97.8136 61.5087 93.948 64.3724L91.4743 61.8987L89.8153 63.558L92.0082 65.7509C91.8414 65.8645 91.6758 65.9799 91.5078 66.0919L74.2163 77.7411L56.9269 66.2148C56.7353 66.0871 56.5463 65.9558 56.3563 65.8259L58.6242 63.558L56.9652 61.8987L54.419 64.4449C50.5383 61.5614 47.0107 58.2189 43.9143 54.5158H50.7554V52.1694H42.0462C39.292 48.5331 36.9366 44.5949 35.0472 40.4372ZM8.51965 73.2873C7.8726 73.2873 7.34643 72.761 7.34643 72.1141C7.34643 71.4672 7.8726 70.9409 8.51965 70.9409C9.16669 70.9409 9.69286 71.4672 9.69286 72.1141C9.69286 72.761 9.16669 73.2873 8.51965 73.2873Z" fill="#663366"/>
<path d="M27.7772 54.5158H40.8937C44.3195 58.872 48.3055 62.787 52.7421 66.1218L43.2301 75.6337H32.9518C32.4672 74.269 31.1665 73.2873 29.6375 73.2873C27.6967 73.2873 26.1179 74.8662 26.1179 76.807C26.1179 78.7477 27.6967 80.3266 29.6375 80.3266C31.1665 80.3266 32.4672 79.3449 32.9518 77.9802H43.7161C44.0272 77.9802 44.3257 77.8566 44.5456 77.6366L54.6678 67.5145C54.9851 67.7346 55.3039 67.9528 55.6253 68.1671L73.569 80.1295C73.7661 80.261 73.9929 80.3266 74.2198 80.3266C74.4486 80.3266 74.6772 80.2599 74.8754 80.1264L92.8142 68.0411C93.1105 67.8435 93.4041 67.642 93.6968 67.4395L103.894 77.6366C104.114 77.8566 104.412 77.9802 104.723 77.9802H115.488C115.972 79.3449 117.273 80.3266 118.802 80.3266C120.743 80.3266 122.322 78.7477 122.322 76.807C122.322 74.8662 120.743 73.2873 118.802 73.2873C117.273 73.2873 115.972 74.269 115.488 75.6337H105.209L95.6251 66.0495C100.048 62.7352 104.024 58.8448 107.445 54.5158H120.662L136.747 70.6006C136.527 71.0598 136.4 71.5718 136.4 72.1141C136.4 74.0548 137.979 75.6337 139.92 75.6337C141.861 75.6337 143.44 74.0548 143.44 72.1141C143.44 70.1734 141.861 68.5944 139.92 68.5944C139.378 68.5944 138.865 68.7213 138.406 68.9414L121.978 52.513C121.758 52.293 121.46 52.1694 121.148 52.1694H109.218C111.85 48.5098 114.096 44.5731 115.903 40.4372H130.534C130.845 40.4372 131.144 40.3136 131.364 40.0937L138.406 33.051C138.865 33.271 139.378 33.3979 139.92 33.3979C141.861 33.3979 143.44 31.819 143.44 29.8783C143.44 27.9376 141.861 26.3586 139.92 26.3586C137.979 26.3586 136.4 27.9376 136.4 29.8783C136.4 30.4206 136.527 30.9326 136.747 31.3918L130.048 38.0908H116.872C117.086 37.54 117.296 36.9872 117.495 36.4302C119.912 29.6628 119.038 22.191 115.37 16.1977L121.635 9.93361H136.606C137.09 11.2984 138.391 12.28 139.92 12.28C141.861 12.28 143.44 10.7011 143.44 8.76039C143.44 6.81969 141.861 5.24074 139.92 5.24074C138.391 5.24074 137.09 6.22241 136.606 7.58717H121.148C120.837 7.58717 120.539 7.71077 120.319 7.93075L114.022 14.2273C113.397 13.4064 112.715 12.6206 111.975 11.8799C102.801 2.7067 87.8745 2.7067 78.7007 11.8799L74.2097 16.3708L69.7389 12.0059C60.5651 2.83273 45.6387 2.83273 36.4649 12.0059C35.7457 12.7252 35.083 13.4873 34.4721 14.2823L28.1206 7.93075C27.9006 7.71077 27.6022 7.58717 27.2911 7.58717H11.8339C11.3493 6.22241 10.0486 5.24074 8.51965 5.24074C6.5788 5.24074 5 6.81969 5 8.76039C5 10.7011 6.5788 12.28 8.51965 12.28C10.0486 12.28 11.3493 11.2984 11.8339 9.93361H26.805L33.1172 16.2457C29.4094 22.2521 28.517 29.7595 30.9445 36.5564C31.1283 37.0708 31.3211 37.5817 31.5182 38.0908H18.3915L11.6924 31.3918C11.9124 30.9326 12.0393 30.4206 12.0393 29.8783C12.0393 27.9376 10.4605 26.3586 8.51965 26.3586C6.5788 26.3586 5 27.9376 5 29.8783C5 31.819 6.5788 33.3979 8.51965 33.3979C9.062 33.3979 9.57407 33.271 10.0333 33.051L17.0759 40.0937C17.2959 40.3136 17.5943 40.4372 17.9054 40.4372H32.4814C34.2772 44.5721 36.513 48.508 39.1325 52.1694H27.2911C26.98 52.1694 26.6816 52.293 26.4616 52.513L10.0333 68.9414C9.57407 68.7213 9.062 68.5944 8.51965 68.5944C6.5788 68.5944 5 70.1734 5 72.1141C5 74.0548 6.5788 75.6337 8.51965 75.6337C10.4605 75.6337 12.0393 74.0548 12.0393 72.1141C12.0393 71.5718 11.9124 71.0598 11.6924 70.6006L27.7772 54.5158ZM29.6375 77.9802C28.9905 77.9802 28.4643 77.4539 28.4643 76.807C28.4643 76.16 28.9905 75.6337 29.6375 75.6337C30.2846 75.6337 30.8108 76.16 30.8108 76.807C30.8108 77.4539 30.2846 77.9802 29.6375 77.9802ZM118.802 75.6337C119.449 75.6337 119.975 76.16 119.975 76.807C119.975 77.4539 119.449 77.9802 118.802 77.9802C118.155 77.9802 117.629 77.4539 117.629 76.807C117.629 76.16 118.155 75.6337 118.802 75.6337ZM139.92 70.9409C140.567 70.9409 141.093 71.4672 141.093 72.1141C141.093 72.761 140.567 73.2873 139.92 73.2873C139.273 73.2873 138.747 72.761 138.747 72.1141C138.747 71.4672 139.273 70.9409 139.92 70.9409ZM139.92 28.7051C140.567 28.7051 141.093 29.2314 141.093 29.8783C141.093 30.5252 140.567 31.0515 139.92 31.0515C139.273 31.0515 138.747 30.5252 138.747 29.8783C138.747 29.2314 139.273 28.7051 139.92 28.7051ZM139.92 7.58717C140.567 7.58717 141.093 8.11349 141.093 8.76039C141.093 9.40729 140.567 9.93361 139.92 9.93361C139.273 9.93361 138.747 9.40729 138.747 8.76039C138.747 8.11349 139.273 7.58717 139.92 7.58717ZM8.51965 9.93361C7.8726 9.93361 7.34643 9.40729 7.34643 8.76039C7.34643 8.11349 7.8726 7.58717 8.51965 7.58717C9.16669 7.58717 9.69286 8.11349 9.69286 8.76039C9.69286 9.40729 9.16669 9.93361 8.51965 9.93361ZM8.51965 31.0515C7.8726 31.0515 7.34643 30.5252 7.34643 29.8783C7.34643 29.2314 7.8726 28.7051 8.51965 28.7051C9.16669 28.7051 9.69286 29.2314 9.69286 29.8783C9.69286 30.5252 9.16669 31.0515 8.51965 31.0515ZM35.0472 40.4372H48.409V38.0908H34.039C33.7282 37.3227 33.433 36.5481 33.154 35.7671C31.0321 29.8252 31.7273 23.2796 34.8257 17.9543L47.5795 30.7079L49.2385 29.0486L36.1442 15.9544C36.7434 15.1508 37.4039 14.3852 38.1239 13.6652C42.2525 9.5369 47.674 7.47246 53.0982 7.47246C58.5251 7.47246 63.9544 9.53977 68.0899 13.6751L73.4003 18.8596C73.8597 19.3082 74.595 19.3039 75.0493 18.8497L80.3597 13.5392C88.6189 5.28055 102.057 5.28027 110.316 13.5392C111.057 14.2808 111.735 15.0716 112.348 15.9017L99.201 29.0486L100.86 30.7079L113.659 17.9086C116.718 23.2194 117.397 29.729 115.286 35.6413C114.991 36.465 114.678 37.2814 114.348 38.0908H100.031V40.4372H113.334C111.432 44.5963 109.064 48.5347 106.297 52.1694H97.6841V54.5158H104.42C101.33 58.1914 97.8136 61.5087 93.948 64.3724L91.4743 61.8987L89.8153 63.558L92.0082 65.7509C91.8414 65.8645 91.6758 65.9799 91.5078 66.0919L74.2163 77.7411L56.9269 66.2148C56.7353 66.0871 56.5463 65.9558 56.3563 65.8259L58.6242 63.558L56.9652 61.8987L54.419 64.4449C50.5383 61.5614 47.0107 58.2189 43.9143 54.5158H50.7554V52.1694H42.0462C39.292 48.5331 36.9366 44.5949 35.0472 40.4372ZM8.51965 73.2873C7.8726 73.2873 7.34643 72.761 7.34643 72.1141C7.34643 71.4672 7.8726 70.9409 8.51965 70.9409C9.16669 70.9409 9.69286 71.4672 9.69286 72.1141C9.69286 72.761 9.16669 73.2873 8.51965 73.2873Z" stroke="#663366" mask="url(#path-11-outside-1_663_3764)"/>
</svg>
