<svg width="150" height="150" viewBox="0 0 150 150" fill="none" xmlns="http://www.w3.org/2000/svg">
<path d="M28.333 14.0003C25.9764 14.0003 23.9989 15.797 23.7071 18.0837H6.75006C5.78171 18.0837 5 18.8654 5 19.8338C5 20.8022 5.78168 21.5838 6.75006 21.5838H23.7071C23.9754 23.678 25.6555 25.3638 27.7496 25.6263V28.5839H25.4162C24.4479 28.5839 23.6662 29.3656 23.6662 30.334V61.2509C23.6662 69.4468 30.3455 76.126 38.5413 76.126H44.9581V83.1494L25.8357 94.0462C19.8097 97.4821 16.0823 103.893 16.0823 110.829V123.703C13.7957 123.995 11.9989 125.972 11.9989 128.329V130.662C11.9989 133.217 14.1106 135.329 16.6656 135.329H18.999C21.554 135.329 23.6657 133.217 23.6657 130.662V128.329C23.6657 125.972 21.8691 123.995 19.5823 123.703V110.829C19.5823 105.141 22.6274 99.9026 27.5683 97.085L44.9584 87.1741V93.3284C44.9584 109.902 58.4277 123.37 75.0001 123.37C91.5726 123.37 105.042 109.901 105.042 93.3284V87.0983L122.436 97.0676C127.372 99.8967 130.417 105.141 130.417 110.834V123.709C128.13 124 126.333 125.978 126.333 128.335V130.668C126.333 133.223 128.445 135.335 131 135.335H133.333C135.888 135.335 138 133.223 138 130.668V128.335C138 125.978 136.203 124.001 133.917 123.709V110.834C133.917 103.899 130.201 97.4818 124.181 94.0343L105.042 83.0674V76.1257H111.459C119.655 76.1257 126.334 69.4464 126.334 61.2506V30.3337C126.334 29.3653 125.552 28.5836 124.584 28.5836H122.25V25.626C124.345 25.3577 126.03 23.6777 126.293 21.5835H143.25C144.218 21.5835 145 20.8019 145 19.8335C145 18.8651 144.218 18.0834 143.25 18.0834H126.293C126.001 15.7968 124.024 14 121.667 14H119.334C116.977 14 114.999 15.7967 114.708 18.0834H97.7506C96.7823 18.0834 96.0006 18.8651 96.0006 19.8335C96.0006 20.8019 96.7822 21.5835 97.7506 21.5835H114.708C114.976 23.6777 116.656 25.3635 118.75 25.626V28.5836H116.417C115.448 28.5836 114.667 29.3653 114.667 30.3337V61.2506C114.667 63.0414 113.249 64.4589 111.458 64.4589H105.042C105.042 61.8572 103.811 59.5413 101.903 58.0421C103.811 56.5429 105.042 54.227 105.042 51.6253V36.4588C105.042 31.9671 101.367 28.292 96.8748 28.292H53.124C48.6323 28.292 44.9572 31.967 44.9572 36.4588V51.6253C44.9572 54.227 46.188 56.5429 48.0956 58.0421C46.1882 59.5413 44.9572 61.8572 44.9572 64.4589H38.5404C36.7496 64.4589 35.3321 63.0414 35.3321 61.2506V30.3337C35.3321 29.3653 34.5504 28.5836 33.582 28.5836H31.2487V25.626C33.3428 25.3577 35.0286 23.6777 35.2912 21.5835H52.2482C53.2165 21.5835 53.9982 20.8019 53.9982 19.8335C53.9982 18.8651 53.2166 18.0834 52.2482 18.0834H35.2912C34.9995 15.7968 33.022 14 30.6652 14L28.333 14.0003ZM28.333 17.5004H30.6664C31.3431 17.5004 31.8331 17.9904 31.8331 18.6671V21.0005C31.8331 21.6771 31.3431 22.1671 30.6664 22.1671H28.333C27.6564 22.1671 27.1664 21.6771 27.1664 21.0005V18.6671C27.1664 17.9904 27.6564 17.5004 28.333 17.5004ZM119.335 17.5004H121.668C122.345 17.5004 122.835 17.9904 122.835 18.6671V21.0005C122.835 21.6771 122.345 22.1671 121.668 22.1671H119.335C118.658 22.1671 118.168 21.6771 118.168 21.0005V18.6671C118.168 17.9904 118.658 17.5004 119.335 17.5004ZM53.1257 31.7923H96.8764C99.4898 31.7923 101.543 33.8456 101.543 36.459V51.6255C101.543 54.2388 99.4898 56.2922 96.8764 56.2922H53.1257C50.5123 56.2922 48.4589 54.2388 48.4589 51.6255V36.459C48.4589 33.8456 50.5123 31.7923 53.1257 31.7923ZM27.1667 32.0839H31.8335V61.2506C31.8335 64.9374 34.8551 67.959 38.5419 67.959H44.9587V72.6257H38.5419C32.2417 72.6257 27.1667 67.5507 27.1667 61.2506V32.0839ZM118.169 32.0839H122.835V61.2506C122.835 67.5507 117.76 72.6257 111.46 72.6257H105.043V67.959H111.46C115.147 67.959 118.169 64.9374 118.169 61.2506V32.0839ZM75.0018 37.3339C70.9942 37.3339 67.71 40.6181 67.71 44.6257C67.71 45.594 68.4917 46.3757 69.4601 46.3757C70.4285 46.3757 71.2102 45.5941 71.2102 44.6257C71.2102 42.5081 72.8844 40.8339 75.0019 40.8339C77.1195 40.8339 78.7937 42.5081 78.7937 44.6257C78.7937 45.594 79.5754 46.3757 80.5438 46.3757C81.5121 46.3757 82.2938 45.5941 82.2938 44.6257C82.2938 40.6181 79.0093 37.3339 75.0018 37.3339ZM75.0018 46.0841C73.7126 46.0841 72.6684 47.1283 72.6684 48.4175C72.6684 49.0358 72.9134 49.6308 73.3509 50.0684C73.7884 50.5059 74.3835 50.7509 75.0018 50.7509C75.6202 50.7509 76.2152 50.5059 76.6527 50.0684C77.0902 49.6308 77.3352 49.0358 77.3352 48.4175C77.3352 47.7991 77.0902 47.2041 76.6527 46.7666C76.2152 46.329 75.6202 46.0841 75.0018 46.0841ZM53.1272 59.7926H96.8779C99.4913 59.7926 101.545 61.846 101.545 64.4593V79.2762C96.4929 69.7736 86.4946 63.2929 75.0033 63.2929C63.5119 63.2929 53.5124 69.7797 48.4619 79.2762V64.4593C48.4619 61.846 50.5138 59.7926 53.1272 59.7926ZM75.0018 66.7927C89.6786 66.7927 101.543 78.6578 101.543 93.3341C101.543 108.01 89.678 119.875 75.0018 119.875C60.3256 119.875 48.4604 108.01 48.4604 93.3341C48.4604 78.6578 60.3256 66.7927 75.0018 66.7927ZM75.0018 78.7512C66.9692 78.7512 60.4183 85.3021 60.4183 93.3347C60.4183 101.367 66.9692 107.918 75.0018 107.918C83.0344 107.918 89.5853 101.367 89.5853 93.3347C89.5853 85.3021 83.0344 78.7512 75.0018 78.7512ZM75.0018 82.2513C81.1444 82.2513 86.0853 87.1922 86.0853 93.3348C86.0853 99.4774 81.1444 104.418 75.0018 104.418C68.8592 104.418 63.9183 99.4774 63.9183 93.3348C63.9183 87.1922 68.8592 82.2513 75.0018 82.2513ZM75.0018 91.0015C73.7126 91.0015 72.6684 92.0456 72.6684 93.3348C72.6684 93.9532 72.9134 94.5482 73.3509 94.9857C73.7884 95.4233 74.3835 95.6682 75.0018 95.6682C75.6202 95.6682 76.2152 95.4232 76.6527 94.9857C77.0903 94.5482 77.3352 93.9532 77.3352 93.3348C77.3352 92.7164 77.0902 92.1215 76.6527 91.6839C76.2152 91.2464 75.6202 91.0015 75.0018 91.0015ZM16.6685 127.169H19.0018C19.6785 127.169 20.1685 127.659 20.1685 128.336V130.669C20.1685 131.346 19.6785 131.836 19.0018 131.836H16.6685C15.9918 131.836 15.5018 131.346 15.5018 130.669V128.336C15.5018 127.659 15.9918 127.169 16.6685 127.169ZM131.003 127.169H133.336C134.013 127.169 134.503 127.659 134.503 128.336V130.669C134.503 131.346 134.013 131.836 133.336 131.836H131.003C130.326 131.836 129.836 131.346 129.836 130.669V128.336C129.836 127.659 130.326 127.169 131.003 127.169Z" fill="#663366"/>
</svg>
