<svg width="150" height="150" viewBox="0 0 150 150" fill="none" xmlns="http://www.w3.org/2000/svg">
<mask id="path-1-outside-1_665_4109" maskUnits="userSpaceOnUse" x="4" y="4" width="142" height="142" fill="black">
<rect fill="white" x="4" y="4" width="142" height="142"/>
<path d="M95.4878 66.4634H83.5366V54.5122C83.5366 53.5718 82.7696 52.8049 81.8293 52.8049H68.1707C67.2304 52.8049 66.4634 53.5718 66.4634 54.5122V66.4634H54.5122C53.5718 66.4634 52.8049 67.2304 52.8049 68.1707V81.8293C52.8049 82.7696 53.5718 83.5366 54.5122 83.5366H66.4634V95.4878C66.4634 96.4282 67.2304 97.1951 68.1707 97.1951H81.8293C82.7696 97.1951 83.5366 96.4282 83.5366 95.4878V83.5366H95.4878C96.4282 83.5366 97.1951 82.7696 97.1951 81.8293V68.1707C97.1951 67.2304 96.4282 66.4634 95.4878 66.4634ZM93.7805 80.122H81.8293C80.8889 80.122 80.122 80.8889 80.122 81.8293V93.7805H69.8781V81.8293C69.8781 80.8889 69.1111 80.122 68.1707 80.122H56.2195V69.8781H68.1707C69.1111 69.8781 69.8781 69.1111 69.8781 68.1707V56.2195H80.122V68.1707C80.122 69.1111 80.8889 69.8781 81.8293 69.8781H93.7805V80.122ZM109.06 32.3171H40.9411C36.1792 32.3171 32.3178 36.1785 32.3178 40.9404V109.059C32.3178 113.807 36.1792 117.682 40.9411 117.682H109.06C113.808 117.682 117.683 113.821 117.683 109.059V40.9404C117.683 36.1785 113.821 32.3171 109.06 32.3171ZM114.268 109.059C114.268 111.927 111.927 114.268 109.06 114.268H40.9411C38.0733 114.268 35.7324 111.927 35.7324 109.059V40.9407C35.7324 38.073 38.0733 35.732 40.9411 35.732H109.06C111.927 35.732 114.268 38.073 114.268 40.9407V109.059ZM145 75C145 75.9404 144.233 76.7073 143.293 76.7073H126.22C125.279 76.7073 124.512 75.9404 124.512 75C124.512 74.0596 125.279 73.2927 126.22 73.2927H143.293C144.233 73.2927 145 74.0596 145 75ZM124.512 54.5122C124.512 53.5718 125.279 52.8049 126.22 52.8049H134.756V40.8537C134.756 39.9133 135.523 39.1463 136.463 39.1463C137.404 39.1463 138.171 39.9133 138.171 40.8537V54.5122C138.171 55.4526 137.404 56.2195 136.463 56.2195H126.22C125.279 56.2195 124.512 55.4526 124.512 54.5122ZM138.171 95.4878V109.146C138.171 110.087 137.404 110.854 136.463 110.854C135.523 110.854 134.756 110.087 134.756 109.146V97.1951H126.22C125.279 97.1951 124.512 96.4282 124.512 95.4878C124.512 94.5475 125.279 93.7805 126.22 93.7805H136.463C137.404 93.7805 138.171 94.5475 138.171 95.4878ZM25.4878 75C25.4878 75.9404 24.7208 76.7073 23.7805 76.7073H6.70732C5.76696 76.7073 5 75.9404 5 75C5 74.0596 5.76696 73.2927 6.70732 73.2927H23.7805C24.7208 73.2927 25.4878 74.0596 25.4878 75ZM25.4878 54.5122C25.4878 55.4526 24.7208 56.2195 23.7805 56.2195H13.5366C12.5962 56.2195 11.8293 55.4526 11.8293 54.5122V40.8537C11.8293 39.9133 12.5962 39.1463 13.5366 39.1463C14.4769 39.1463 15.2439 39.9133 15.2439 40.8537V52.8049H23.7805C24.7208 52.8049 25.4878 53.5718 25.4878 54.5122ZM25.4878 95.4878C25.4878 96.4282 24.7208 97.1951 23.7805 97.1951H15.2439V109.146C15.2439 110.087 14.4769 110.854 13.5366 110.854C12.5962 110.854 11.8293 110.087 11.8293 109.146V95.4878C11.8293 94.5475 12.5962 93.7805 13.5366 93.7805H23.7805C24.7208 93.7805 25.4878 94.5475 25.4878 95.4878ZM76.7073 126.22V143.293C76.7073 144.233 75.9404 145 75 145C74.0596 145 73.2927 144.233 73.2927 143.293V126.22C73.2927 125.279 74.0596 124.512 75 124.512C75.9404 124.512 76.7073 125.279 76.7073 126.22ZM110.854 136.463C110.854 137.404 110.087 138.171 109.146 138.171H95.4878C94.5475 138.171 93.7805 137.404 93.7805 136.463V126.22C93.7805 125.279 94.5475 124.512 95.4878 124.512C96.4282 124.512 97.1951 125.279 97.1951 126.22V134.756H109.146C110.087 134.756 110.854 135.523 110.854 136.463ZM56.2195 126.22V136.463C56.2195 137.404 55.4526 138.171 54.5122 138.171H40.8537C39.9133 138.171 39.1463 137.404 39.1463 136.463C39.1463 135.523 39.9133 134.756 40.8537 134.756H52.8049V126.22C52.8049 125.279 53.5718 124.512 54.5122 124.512C55.4526 124.512 56.2195 125.279 56.2195 126.22ZM73.2927 23.7805V6.70732C73.2927 5.76696 74.0596 5 75 5C75.9404 5 76.7073 5.76696 76.7073 6.70732V23.7805C76.7073 24.7208 75.9404 25.4878 75 25.4878C74.0596 25.4878 73.2927 24.7208 73.2927 23.7805ZM93.7805 23.7805V13.5366C93.7805 12.5962 94.5475 11.8293 95.4878 11.8293H109.146C110.087 11.8293 110.854 12.5962 110.854 13.5366C110.854 14.4769 110.087 15.2439 109.146 15.2439H97.1951V23.7805C97.1951 24.7208 96.4282 25.4878 95.4878 25.4878C94.5475 25.4878 93.7805 24.7208 93.7805 23.7805ZM39.1463 13.5366C39.1463 12.5962 39.9133 11.8293 40.8537 11.8293H54.5122C55.4526 11.8293 56.2195 12.5962 56.2195 13.5366V23.7805C56.2195 24.7208 55.4526 25.4878 54.5122 25.4878C53.5718 25.4878 52.8049 24.7208 52.8049 23.7805V15.2439H40.8537C39.9133 15.2439 39.1463 14.4769 39.1463 13.5366ZM49.3902 45.9756C49.3902 47.8564 47.8563 49.3902 45.9756 49.3902C44.0949 49.3902 42.561 47.8563 42.561 45.9756C42.561 44.0949 44.0949 42.561 45.9756 42.561C47.8563 42.561 49.3902 44.0949 49.3902 45.9756Z"/>
</mask>
<path d="M95.4878 66.4634H83.5366V54.5122C83.5366 53.5718 82.7696 52.8049 81.8293 52.8049H68.1707C67.2304 52.8049 66.4634 53.5718 66.4634 54.5122V66.4634H54.5122C53.5718 66.4634 52.8049 67.2304 52.8049 68.1707V81.8293C52.8049 82.7696 53.5718 83.5366 54.5122 83.5366H66.4634V95.4878C66.4634 96.4282 67.2304 97.1951 68.1707 97.1951H81.8293C82.7696 97.1951 83.5366 96.4282 83.5366 95.4878V83.5366H95.4878C96.4282 83.5366 97.1951 82.7696 97.1951 81.8293V68.1707C97.1951 67.2304 96.4282 66.4634 95.4878 66.4634ZM93.7805 80.122H81.8293C80.8889 80.122 80.122 80.8889 80.122 81.8293V93.7805H69.8781V81.8293C69.8781 80.8889 69.1111 80.122 68.1707 80.122H56.2195V69.8781H68.1707C69.1111 69.8781 69.8781 69.1111 69.8781 68.1707V56.2195H80.122V68.1707C80.122 69.1111 80.8889 69.8781 81.8293 69.8781H93.7805V80.122ZM109.06 32.3171H40.9411C36.1792 32.3171 32.3178 36.1785 32.3178 40.9404V109.059C32.3178 113.807 36.1792 117.682 40.9411 117.682H109.06C113.808 117.682 117.683 113.821 117.683 109.059V40.9404C117.683 36.1785 113.821 32.3171 109.06 32.3171ZM114.268 109.059C114.268 111.927 111.927 114.268 109.06 114.268H40.9411C38.0733 114.268 35.7324 111.927 35.7324 109.059V40.9407C35.7324 38.073 38.0733 35.732 40.9411 35.732H109.06C111.927 35.732 114.268 38.073 114.268 40.9407V109.059ZM145 75C145 75.9404 144.233 76.7073 143.293 76.7073H126.22C125.279 76.7073 124.512 75.9404 124.512 75C124.512 74.0596 125.279 73.2927 126.22 73.2927H143.293C144.233 73.2927 145 74.0596 145 75ZM124.512 54.5122C124.512 53.5718 125.279 52.8049 126.22 52.8049H134.756V40.8537C134.756 39.9133 135.523 39.1463 136.463 39.1463C137.404 39.1463 138.171 39.9133 138.171 40.8537V54.5122C138.171 55.4526 137.404 56.2195 136.463 56.2195H126.22C125.279 56.2195 124.512 55.4526 124.512 54.5122ZM138.171 95.4878V109.146C138.171 110.087 137.404 110.854 136.463 110.854C135.523 110.854 134.756 110.087 134.756 109.146V97.1951H126.22C125.279 97.1951 124.512 96.4282 124.512 95.4878C124.512 94.5475 125.279 93.7805 126.22 93.7805H136.463C137.404 93.7805 138.171 94.5475 138.171 95.4878ZM25.4878 75C25.4878 75.9404 24.7208 76.7073 23.7805 76.7073H6.70732C5.76696 76.7073 5 75.9404 5 75C5 74.0596 5.76696 73.2927 6.70732 73.2927H23.7805C24.7208 73.2927 25.4878 74.0596 25.4878 75ZM25.4878 54.5122C25.4878 55.4526 24.7208 56.2195 23.7805 56.2195H13.5366C12.5962 56.2195 11.8293 55.4526 11.8293 54.5122V40.8537C11.8293 39.9133 12.5962 39.1463 13.5366 39.1463C14.4769 39.1463 15.2439 39.9133 15.2439 40.8537V52.8049H23.7805C24.7208 52.8049 25.4878 53.5718 25.4878 54.5122ZM25.4878 95.4878C25.4878 96.4282 24.7208 97.1951 23.7805 97.1951H15.2439V109.146C15.2439 110.087 14.4769 110.854 13.5366 110.854C12.5962 110.854 11.8293 110.087 11.8293 109.146V95.4878C11.8293 94.5475 12.5962 93.7805 13.5366 93.7805H23.7805C24.7208 93.7805 25.4878 94.5475 25.4878 95.4878ZM76.7073 126.22V143.293C76.7073 144.233 75.9404 145 75 145C74.0596 145 73.2927 144.233 73.2927 143.293V126.22C73.2927 125.279 74.0596 124.512 75 124.512C75.9404 124.512 76.7073 125.279 76.7073 126.22ZM110.854 136.463C110.854 137.404 110.087 138.171 109.146 138.171H95.4878C94.5475 138.171 93.7805 137.404 93.7805 136.463V126.22C93.7805 125.279 94.5475 124.512 95.4878 124.512C96.4282 124.512 97.1951 125.279 97.1951 126.22V134.756H109.146C110.087 134.756 110.854 135.523 110.854 136.463ZM56.2195 126.22V136.463C56.2195 137.404 55.4526 138.171 54.5122 138.171H40.8537C39.9133 138.171 39.1463 137.404 39.1463 136.463C39.1463 135.523 39.9133 134.756 40.8537 134.756H52.8049V126.22C52.8049 125.279 53.5718 124.512 54.5122 124.512C55.4526 124.512 56.2195 125.279 56.2195 126.22ZM73.2927 23.7805V6.70732C73.2927 5.76696 74.0596 5 75 5C75.9404 5 76.7073 5.76696 76.7073 6.70732V23.7805C76.7073 24.7208 75.9404 25.4878 75 25.4878C74.0596 25.4878 73.2927 24.7208 73.2927 23.7805ZM93.7805 23.7805V13.5366C93.7805 12.5962 94.5475 11.8293 95.4878 11.8293H109.146C110.087 11.8293 110.854 12.5962 110.854 13.5366C110.854 14.4769 110.087 15.2439 109.146 15.2439H97.1951V23.7805C97.1951 24.7208 96.4282 25.4878 95.4878 25.4878C94.5475 25.4878 93.7805 24.7208 93.7805 23.7805ZM39.1463 13.5366C39.1463 12.5962 39.9133 11.8293 40.8537 11.8293H54.5122C55.4526 11.8293 56.2195 12.5962 56.2195 13.5366V23.7805C56.2195 24.7208 55.4526 25.4878 54.5122 25.4878C53.5718 25.4878 52.8049 24.7208 52.8049 23.7805V15.2439H40.8537C39.9133 15.2439 39.1463 14.4769 39.1463 13.5366ZM49.3902 45.9756C49.3902 47.8564 47.8563 49.3902 45.9756 49.3902C44.0949 49.3902 42.561 47.8563 42.561 45.9756C42.561 44.0949 44.0949 42.561 45.9756 42.561C47.8563 42.561 49.3902 44.0949 49.3902 45.9756Z" fill="#663366"/>
<path d="M95.4878 66.4634H83.5366V54.5122C83.5366 53.5718 82.7696 52.8049 81.8293 52.8049H68.1707C67.2304 52.8049 66.4634 53.5718 66.4634 54.5122V66.4634H54.5122C53.5718 66.4634 52.8049 67.2304 52.8049 68.1707V81.8293C52.8049 82.7696 53.5718 83.5366 54.5122 83.5366H66.4634V95.4878C66.4634 96.4282 67.2304 97.1951 68.1707 97.1951H81.8293C82.7696 97.1951 83.5366 96.4282 83.5366 95.4878V83.5366H95.4878C96.4282 83.5366 97.1951 82.7696 97.1951 81.8293V68.1707C97.1951 67.2304 96.4282 66.4634 95.4878 66.4634ZM93.7805 80.122H81.8293C80.8889 80.122 80.122 80.8889 80.122 81.8293V93.7805H69.8781V81.8293C69.8781 80.8889 69.1111 80.122 68.1707 80.122H56.2195V69.8781H68.1707C69.1111 69.8781 69.8781 69.1111 69.8781 68.1707V56.2195H80.122V68.1707C80.122 69.1111 80.8889 69.8781 81.8293 69.8781H93.7805V80.122ZM109.06 32.3171H40.9411C36.1792 32.3171 32.3178 36.1785 32.3178 40.9404V109.059C32.3178 113.807 36.1792 117.682 40.9411 117.682H109.06C113.808 117.682 117.683 113.821 117.683 109.059V40.9404C117.683 36.1785 113.821 32.3171 109.06 32.3171ZM114.268 109.059C114.268 111.927 111.927 114.268 109.06 114.268H40.9411C38.0733 114.268 35.7324 111.927 35.7324 109.059V40.9407C35.7324 38.073 38.0733 35.732 40.9411 35.732H109.06C111.927 35.732 114.268 38.073 114.268 40.9407V109.059ZM145 75C145 75.9404 144.233 76.7073 143.293 76.7073H126.22C125.279 76.7073 124.512 75.9404 124.512 75C124.512 74.0596 125.279 73.2927 126.22 73.2927H143.293C144.233 73.2927 145 74.0596 145 75ZM124.512 54.5122C124.512 53.5718 125.279 52.8049 126.22 52.8049H134.756V40.8537C134.756 39.9133 135.523 39.1463 136.463 39.1463C137.404 39.1463 138.171 39.9133 138.171 40.8537V54.5122C138.171 55.4526 137.404 56.2195 136.463 56.2195H126.22C125.279 56.2195 124.512 55.4526 124.512 54.5122ZM138.171 95.4878V109.146C138.171 110.087 137.404 110.854 136.463 110.854C135.523 110.854 134.756 110.087 134.756 109.146V97.1951H126.22C125.279 97.1951 124.512 96.4282 124.512 95.4878C124.512 94.5475 125.279 93.7805 126.22 93.7805H136.463C137.404 93.7805 138.171 94.5475 138.171 95.4878ZM25.4878 75C25.4878 75.9404 24.7208 76.7073 23.7805 76.7073H6.70732C5.76696 76.7073 5 75.9404 5 75C5 74.0596 5.76696 73.2927 6.70732 73.2927H23.7805C24.7208 73.2927 25.4878 74.0596 25.4878 75ZM25.4878 54.5122C25.4878 55.4526 24.7208 56.2195 23.7805 56.2195H13.5366C12.5962 56.2195 11.8293 55.4526 11.8293 54.5122V40.8537C11.8293 39.9133 12.5962 39.1463 13.5366 39.1463C14.4769 39.1463 15.2439 39.9133 15.2439 40.8537V52.8049H23.7805C24.7208 52.8049 25.4878 53.5718 25.4878 54.5122ZM25.4878 95.4878C25.4878 96.4282 24.7208 97.1951 23.7805 97.1951H15.2439V109.146C15.2439 110.087 14.4769 110.854 13.5366 110.854C12.5962 110.854 11.8293 110.087 11.8293 109.146V95.4878C11.8293 94.5475 12.5962 93.7805 13.5366 93.7805H23.7805C24.7208 93.7805 25.4878 94.5475 25.4878 95.4878ZM76.7073 126.22V143.293C76.7073 144.233 75.9404 145 75 145C74.0596 145 73.2927 144.233 73.2927 143.293V126.22C73.2927 125.279 74.0596 124.512 75 124.512C75.9404 124.512 76.7073 125.279 76.7073 126.22ZM110.854 136.463C110.854 137.404 110.087 138.171 109.146 138.171H95.4878C94.5475 138.171 93.7805 137.404 93.7805 136.463V126.22C93.7805 125.279 94.5475 124.512 95.4878 124.512C96.4282 124.512 97.1951 125.279 97.1951 126.22V134.756H109.146C110.087 134.756 110.854 135.523 110.854 136.463ZM56.2195 126.22V136.463C56.2195 137.404 55.4526 138.171 54.5122 138.171H40.8537C39.9133 138.171 39.1463 137.404 39.1463 136.463C39.1463 135.523 39.9133 134.756 40.8537 134.756H52.8049V126.22C52.8049 125.279 53.5718 124.512 54.5122 124.512C55.4526 124.512 56.2195 125.279 56.2195 126.22ZM73.2927 23.7805V6.70732C73.2927 5.76696 74.0596 5 75 5C75.9404 5 76.7073 5.76696 76.7073 6.70732V23.7805C76.7073 24.7208 75.9404 25.4878 75 25.4878C74.0596 25.4878 73.2927 24.7208 73.2927 23.7805ZM93.7805 23.7805V13.5366C93.7805 12.5962 94.5475 11.8293 95.4878 11.8293H109.146C110.087 11.8293 110.854 12.5962 110.854 13.5366C110.854 14.4769 110.087 15.2439 109.146 15.2439H97.1951V23.7805C97.1951 24.7208 96.4282 25.4878 95.4878 25.4878C94.5475 25.4878 93.7805 24.7208 93.7805 23.7805ZM39.1463 13.5366C39.1463 12.5962 39.9133 11.8293 40.8537 11.8293H54.5122C55.4526 11.8293 56.2195 12.5962 56.2195 13.5366V23.7805C56.2195 24.7208 55.4526 25.4878 54.5122 25.4878C53.5718 25.4878 52.8049 24.7208 52.8049 23.7805V15.2439H40.8537C39.9133 15.2439 39.1463 14.4769 39.1463 13.5366ZM49.3902 45.9756C49.3902 47.8564 47.8563 49.3902 45.9756 49.3902C44.0949 49.3902 42.561 47.8563 42.561 45.9756C42.561 44.0949 44.0949 42.561 45.9756 42.561C47.8563 42.561 49.3902 44.0949 49.3902 45.9756Z" stroke="#663366" stroke-width="0.4" mask="url(#path-1-outside-1_665_4109)"/>
</svg>
