<svg width="150" height="150" viewBox="0 0 150 150" fill="none" xmlns="http://www.w3.org/2000/svg">
<path fill-rule="evenodd" clip-rule="evenodd" d="M56.9894 60.3467H64.5344V67.8747H56.9894V60.3467ZM73.183 75.5042H80.728V83.0322H73.183V75.5042ZM56.9894 75.5042H64.5344V83.0322H56.9894V75.5042ZM73.183 90.6617H80.728V98.1897H73.183V90.6617ZM56.9894 90.6617H64.5344V98.1897H56.9894V90.6617ZM33.3418 110.633H38.9977V116.276H33.3418V110.633ZM33.3418 96.9875H38.9977V102.631H33.3418V96.9875ZM33.3418 83.3421H38.9977V88.9853H33.3418V83.3421ZM33.3418 69.6967H38.9977V75.3399H33.3418V69.6967ZM98.0975 110.627H103.753V116.27H98.0975V110.627ZM98.0975 96.9818H103.753V102.625H98.0975V96.9818ZM98.0975 83.3365H103.753V88.9796H98.0975V83.3365ZM120.992 25.5047C122.57 27.5362 123.192 30.0137 122.915 32.3838C122.638 34.7936 121.439 37.1016 119.38 38.7268L119.369 38.7325C117.316 40.3577 114.793 40.9954 112.384 40.7189C110.003 40.448 107.723 39.2799 106.094 37.2822C106.043 37.2257 105.992 37.1637 105.947 37.0959C104.369 35.0644 103.747 32.587 104.024 30.2112C104.296 27.8354 105.466 25.5611 107.469 23.9416C107.525 23.8908 107.587 23.84 107.655 23.7949C109.691 22.2205 112.174 21.5997 114.556 21.8762C116.937 22.1471 119.216 23.3152 120.839 25.3129C120.89 25.3694 120.941 25.4371 120.986 25.4992L120.992 25.5047ZM12.7364 130.096C11.7805 130.096 11 130.869 11 131.829V138.268C11 139.221 11.7749 140 12.7364 140H122.966C123.921 140 124.702 139.227 124.702 138.268V131.829C124.702 130.875 123.927 130.096 122.966 130.096H117.558V125.39C117.558 124.436 116.784 123.657 115.822 123.657H113.814V68.7091L114.951 67.5015C115.257 67.1742 115.438 66.734 115.421 66.2487L114.855 51.9544C115.811 51.2715 116.755 50.5661 117.689 49.8268C123.565 45.171 129.487 38.3372 133.396 31.7568C133.447 31.6835 133.492 31.6101 133.526 31.5311C133.582 31.4295 133.645 31.3279 133.701 31.2263C137.83 24.082 139.521 17.1521 136.359 13.1795C133.198 9.201 126.049 9.26876 118.136 11.6614C110.681 13.9131 102.39 18.2189 96.343 23.0044C95.4098 23.7437 94.4992 24.5112 93.6112 25.3012L79.8277 21.5202C79.3639 21.396 78.8944 21.4694 78.5098 21.6895V21.6838L74.5846 23.958H70.5859V15.0416C70.5859 14.0879 69.811 13.3092 68.8495 13.3092C67.8937 13.3092 67.1132 14.0823 67.1132 15.0416V23.958H52.1358C51.1799 23.958 50.3995 24.7312 50.3995 25.6905V33.6305H47.7694C46.8136 33.6305 46.0331 34.4037 46.0331 35.363V55.5552L26.2312 49.3872C26.0389 49.3138 25.8297 49.2743 25.6147 49.2743C24.6589 49.2743 23.8784 50.0474 23.8784 51.0067V123.664H19.8627C18.9068 123.664 18.1263 124.437 18.1263 125.396V130.103H12.7192L12.7364 130.096ZM21.6106 130.096V127.117H114.085V130.096H21.6106ZM121.229 133.555V136.535H14.4737V133.555H19.8809H19.8865H115.823H115.829H121.229ZM27.3632 123.657H46.0443V59.1713L27.3632 53.3475V123.657ZM49.5179 123.657H59.9305V108.156C59.9305 107.202 60.7054 106.423 61.6669 106.423H76.0557C77.0115 106.423 77.792 107.196 77.792 108.156V123.657H88.2047V64.7304C87.5372 65.052 86.7963 65.1705 86.0837 65.0859C85.2297 64.99 84.4038 64.6062 83.7704 63.9572C81.8982 65.3963 80.0147 66.3782 78.1314 66.8974C75.7219 67.5633 73.3295 67.4787 70.954 66.6435C70.3036 66.4573 69.7946 65.8986 69.7097 65.1819C69.4043 62.6481 69.8681 60.2667 71.0841 58.0319C72.023 56.3108 73.4088 54.708 75.2356 53.2126C74.7492 52.4508 74.5626 51.5649 74.6644 50.7126C74.7775 49.7307 75.2639 48.7996 76.0953 48.1394L79.2173 45.6677C78.9346 44.9171 78.8101 44.1158 78.8554 43.3088C78.9119 42.2028 79.2796 41.0968 79.947 40.1092L73.7028 37.0787H49.5296V123.641L49.5179 123.657ZM63.3976 123.657V109.882H74.3193V123.657H63.3976ZM91.6655 123.657H110.347V72.3828L103.967 79.1491C103.311 79.8432 102.219 79.8771 101.523 79.2224C101.246 78.9628 101.077 78.6355 101.009 78.2857L97.2871 61.9377C96.1616 62.361 94.9852 62.4625 93.8822 62.265C93.2883 62.1578 92.717 61.9603 92.191 61.6838L91.6593 62.1014V123.657L91.6655 123.657ZM76.219 27.0114L79.6296 25.0362L90.6757 28.0667C89.7538 28.9753 88.8545 29.9064 87.9665 30.8545C85.9925 32.965 84.0921 35.1547 82.1973 37.3781L74.9464 33.8623C74.8729 33.8228 74.7994 33.7833 74.7202 33.7551L69.2 31.0745L75.6817 27.3161C75.8797 27.2427 76.0607 27.1411 76.2134 27.0057L76.219 27.0114ZM68.6174 27.4234L64.6525 29.7201C63.8267 30.1998 63.544 31.2551 64.0247 32.079C64.2057 32.395 64.4772 32.632 64.7826 32.7731L66.5586 33.6365H53.8836V27.4289H68.6177L68.6174 27.4234ZM88.7754 59.9791L86.7676 61.5705C86.6827 61.6382 86.5809 61.6608 86.4791 61.6495C86.3773 61.6382 86.2812 61.5875 86.2133 61.5028L79.0416 52.4849L79.0303 52.4736L78.1819 51.407C78.114 51.3224 78.0914 51.2208 78.1027 51.1192C78.114 51.0176 78.1649 50.9217 78.2497 50.854L81.1569 48.5514L82.814 50.6338L81.5584 51.627C80.8118 52.2196 80.6874 53.3088 81.2813 54.0536L84.3355 57.8968C84.9294 58.6417 86.021 58.7658 86.7676 58.1733L88.0232 57.1801L89.6804 59.2624L88.9451 59.8437C88.8886 59.8832 88.832 59.9283 88.7754 59.9791ZM95.5116 28.2526C95.3815 28.4275 95.2175 28.5799 95.0309 28.6928C93.4699 30.1318 91.971 31.6442 90.5061 33.2074C87.9609 35.933 85.5119 38.8224 83.0403 41.7399C82.5821 42.2817 82.3333 42.9024 82.2993 43.5007C82.2711 44.0594 82.4294 44.6011 82.7801 45.0413L85.5232 48.4893L97.101 39.3189C97.8476 38.7264 98.9391 38.8505 99.5331 39.5955L102.587 43.4386C103.181 44.1835 103.057 45.2726 102.31 45.8652L90.7267 55.0355L93.1306 58.0546C93.4813 58.4948 93.9677 58.7713 94.5106 58.8729C95.0932 58.9801 95.7493 58.8842 96.3885 58.5682C99.9347 56.8018 103.3 55.0749 106.473 53.2353C109.64 51.3956 112.655 49.4149 115.539 47.1292C120.85 42.9249 126.19 36.8585 129.877 30.9099L117.592 15.4692C110.941 17.704 103.809 21.5132 98.503 25.7117C97.4736 26.5243 96.4782 27.3764 95.5054 28.2567L95.5116 28.2526ZM121.173 14.4041L131.727 27.6714C134.465 22.4232 135.573 17.7336 133.662 15.3239C131.75 12.9199 126.92 12.9313 121.173 14.4041ZM100.484 60.3794C103.131 59.0363 105.699 57.6763 108.21 56.2147C109.324 55.5657 110.416 54.9054 111.496 54.217L111.948 65.6559L110.84 66.8297L110.823 66.8466L103.685 74.4143L100.489 60.3738L100.484 60.3794ZM77.3676 55.9438L81.604 61.271C80.1109 62.411 78.6459 63.1784 77.2092 63.5792C75.8292 63.9629 74.4548 63.9968 73.086 63.6808C73.0916 62.2756 73.4366 60.9495 74.121 59.691C74.8337 58.3874 75.914 57.1403 77.3732 55.9438L77.3676 55.9438ZM98.8042 44.234L87.2208 53.4044L85.9652 54.3976L85.0602 53.2633L97.8993 43.0997L98.8042 44.234ZM119.476 31.9994C119.652 30.4644 119.244 28.8673 118.209 27.5638C117.174 26.2602 115.704 25.4983 114.171 25.3234C112.632 25.1484 111.032 25.5548 109.725 26.5875C108.419 27.6258 107.655 29.0875 107.48 30.6168C107.305 32.1518 107.712 33.7489 108.747 35.0524C109.782 36.356 111.252 37.1178 112.785 37.2928C114.324 37.4677 115.924 37.0614 117.231 36.0287C118.537 34.996 119.301 33.5287 119.476 31.9994Z" fill="#663366"/>
</svg>
