<svg width="150" height="150" viewBox="0 0 150 150" fill="none" xmlns="http://www.w3.org/2000/svg">
<path d="M142.815 133.571H18.3543C17.105 133.571 16.0986 132.559 16.0986 131.309V19.2615C16.0986 18.0121 17.1051 17 18.3543 17C19.6036 17 20.61 18.0122 20.61 19.2615V129.053H142.814C144.035 129.093 145.001 130.094 145.001 131.309C145.001 132.529 144.036 133.525 142.815 133.571Z" fill="#663366"/>
<path d="M18.2628 39.0719H7.2616C6.04118 39.0256 5.0752 38.0308 5.0752 36.8104C5.0752 35.5958 6.04112 34.5951 7.2616 34.5547H18.2628C19.4832 34.5952 20.4492 35.5958 20.4492 36.8104C20.4492 38.0308 19.4833 39.0257 18.2628 39.0719Z" fill="#663366"/>
<path d="M18.2631 52.2398H10.3505C9.13005 52.1994 8.16406 51.1987 8.16406 49.9841C8.16406 48.7637 9.12999 47.7689 10.3505 47.7227H18.2631C19.4835 47.7689 20.4495 48.7638 20.4495 49.9841C20.4495 51.1988 19.4836 52.1994 18.2631 52.2398Z" fill="#663366"/>
<path d="M18.2628 67.3531H7.2616C6.04118 67.3069 5.0752 66.312 5.0752 65.0916C5.0752 63.877 6.04112 62.8764 7.2616 62.8359H18.2628C19.4832 62.8764 20.4492 63.8771 20.4492 65.0916C20.4492 66.3121 19.4833 67.3069 18.2628 67.3531Z" fill="#663366"/>
<path d="M18.2631 80.525H10.3505C9.13005 80.4845 8.16406 79.4839 8.16406 78.2693C8.16406 77.0489 9.12999 76.054 10.3505 76.0078H18.2631C19.4835 76.0541 20.4495 77.0489 20.4495 78.2693C20.4495 79.4839 19.4836 80.4846 18.2631 80.525Z" fill="#663366"/>
<path d="M18.2628 95.6383H7.2616C6.04118 95.592 5.0752 94.5972 5.0752 93.3768C5.0752 92.1622 6.04112 91.1615 7.2616 91.1211H18.2628C19.4832 91.1616 20.4492 92.1622 20.4492 93.3768C20.4492 94.5972 19.4833 95.5921 18.2628 95.6383Z" fill="#663366"/>
<path d="M18.2631 108.81H10.3505C9.13005 108.77 8.16406 107.769 8.16406 106.554C8.16406 105.334 9.12999 104.339 10.3505 104.293H18.2631C19.4835 104.339 20.4495 105.334 20.4495 106.554C20.4495 107.769 19.4836 108.77 18.2631 108.81Z" fill="#663366"/>
<path d="M18.2627 123.923H7.26148C6.01214 123.923 5 122.911 5 121.662C5 120.418 6.0122 119.406 7.26148 119.406H18.2627C19.512 119.406 20.5242 120.418 20.5242 121.662C20.5242 122.911 19.512 123.923 18.2627 123.923Z" fill="#663366"/>
<path d="M40.8494 133.57C39.6 133.57 38.5879 132.557 38.5879 131.308V93.3768C38.5879 92.1332 39.6001 91.1211 40.8494 91.1211C42.0987 91.1211 43.1109 92.1333 43.1109 93.3768V131.308C43.1109 131.91 42.8679 132.482 42.4457 132.91C42.0235 133.332 41.4509 133.57 40.8494 133.57Z" fill="#663366"/>
<path d="M64.5925 133.571C63.3432 133.571 62.3311 132.559 62.3311 131.309V72.7341C62.3311 71.4848 63.3432 70.4727 64.5925 70.4727C65.8361 70.4727 66.8482 71.4848 66.8482 72.7341V131.309C66.8482 131.911 66.6111 132.484 66.1889 132.911C65.7609 133.334 65.1883 133.571 64.5925 133.571Z" fill="#663366"/>
<path d="M88.3416 133.57C87.0923 133.57 86.0859 132.558 86.0859 131.308V91.2479C86.0859 90.0043 87.0924 88.9922 88.3416 88.9922C89.5909 88.9922 90.5973 90.0044 90.5973 91.2479V131.308C90.5973 131.91 90.3602 132.483 89.938 132.911C89.5157 133.333 88.9431 133.57 88.3416 133.57Z" fill="#663366"/>
<path d="M135.811 133.573C134.562 133.573 133.55 132.561 133.55 131.311V50.7744C133.596 49.5597 134.591 48.5938 135.811 48.5938C137.026 48.5938 138.027 49.5597 138.073 50.7744V131.311C138.073 131.913 137.83 132.486 137.408 132.914C136.985 133.336 136.413 133.573 135.811 133.573Z" fill="#663366"/>
<path d="M112.068 133.571C110.825 133.571 109.812 132.559 109.812 131.31V74.0244C109.853 72.8098 110.854 71.8438 112.068 71.8438C113.289 71.8438 114.283 72.8097 114.33 74.0244V131.31C114.33 131.911 114.093 132.484 113.67 132.912C113.242 133.334 112.67 133.571 112.068 133.571Z" fill="#663366"/>
<path d="M96.6368 66.5401C95.7229 66.5343 94.8958 65.9848 94.5487 65.1403C94.2016 64.3016 94.3925 63.3299 95.0403 62.6821L135.742 21.9804C136.633 21.1822 137.992 21.2227 138.836 22.0614C139.687 22.9059 139.727 24.2651 138.94 25.1617L98.2329 65.8811C97.8049 66.3034 97.2325 66.5401 96.6368 66.5401Z" fill="#663366"/>
<path d="M42.5208 67.35C41.5722 67.35 40.7278 66.76 40.3981 65.8751C40.0684 64.9901 40.3287 63.9895 41.0459 63.3764L58.536 48.3724L58.5302 48.3666C59.4788 47.5569 60.9075 47.6667 61.7171 48.6095C62.5326 49.5581 62.4227 50.981 61.48 51.7965L43.9899 66.8004V66.8062C43.5792 67.1591 43.0587 67.35 42.5208 67.35Z" fill="#663366"/>
<path d="M84.8726 66.0314C84.2711 66.0314 83.6985 65.7942 83.2763 65.3662L69.7302 51.7969V51.8027C68.9262 50.9061 68.9667 49.5412 69.817 48.6908C70.673 47.8463 72.038 47.8116 72.9288 48.6214L86.4749 62.1907V62.185C87.1054 62.8385 87.2905 63.7986 86.9434 64.6373C86.5964 65.476 85.7807 66.0256 84.8726 66.0314Z" fill="#663366"/>
<path d="M90.5621 77.7204C86.7273 77.7204 83.2684 75.4068 81.7993 71.8612C80.3243 68.3157 81.1399 64.2322 83.8526 61.5194C86.5652 58.8066 90.6487 57.9911 94.1944 59.4603C97.7401 60.9294 100.048 64.3882 100.048 68.2289C100.042 73.4635 95.8023 77.7087 90.5621 77.7204ZM90.5621 63.2604C88.555 63.2604 86.7447 64.4692 85.9753 66.3259C85.206 68.1825 85.6283 70.3168 87.0511 71.7396C88.474 73.1625 90.6082 73.5847 92.4649 72.8155C94.3215 72.0462 95.5362 70.2358 95.5362 68.2287C95.5246 65.487 93.3038 63.2661 90.5621 63.2604Z" fill="#663366"/>
<path d="M65.7156 55.1301C61.8808 55.1301 58.4219 52.8165 56.9527 49.2709C55.4836 45.7254 56.2934 41.6419 59.0118 38.9291C61.7245 36.2164 65.808 35.4066 69.3536 36.8758C72.8992 38.3449 75.207 41.8037 75.207 45.6444C75.2012 50.879 70.9559 55.1243 65.7156 55.1301ZM65.7156 40.6701C63.7085 40.6759 61.8981 41.8905 61.1345 43.7472C60.3653 45.6038 60.7933 47.7381 62.2162 49.1609C63.639 50.578 65.779 51.006 67.6358 50.2367C69.4867 49.4675 70.7013 47.6513 70.7013 45.6442C70.7013 44.3254 70.175 43.0587 69.238 42.1275C68.3068 41.1963 67.04 40.6699 65.7155 40.6757L65.7156 40.6701Z" fill="#663366"/>
<path d="M36.5527 78.6617C32.7179 78.6617 29.259 76.3481 27.7899 72.8026C26.3207 69.257 27.1305 65.1735 29.8432 62.4607C32.5616 59.7481 36.6393 58.9325 40.185 60.4017C43.7305 61.8708 46.0441 65.3296 46.0441 69.1703C46.0384 74.4106 41.7929 78.6502 36.5585 78.6619L36.5527 78.6617ZM36.5527 64.2017C34.5456 64.2017 32.7353 65.4106 31.9659 67.2673C31.1966 69.1239 31.6188 71.2582 33.0417 72.681C34.4646 74.1039 36.5988 74.5261 38.4555 73.7568C40.3121 72.9876 41.5268 71.1771 41.5268 69.1643V69.1701C41.521 66.4284 39.2941 64.2073 36.5582 64.2016L36.5527 64.2017Z" fill="#663366"/>
<path d="M139.2 34.959C137.951 34.959 136.939 33.9525 136.939 32.7033V24.0503H128.286C127.042 24.0503 126.03 23.0381 126.03 21.7888C126.03 20.5395 127.042 19.5273 128.286 19.5273H139.2C140.444 19.5273 141.456 20.5395 141.462 21.7831V32.6975C141.462 33.299 141.225 33.8716 140.797 34.2996C140.374 34.7218 139.802 34.9648 139.2 34.959Z" fill="#663366"/>
</svg>
