<svg width="150" height="150" viewBox="0 0 150 150" fill="none" xmlns="http://www.w3.org/2000/svg">
<path d="M143.289 72.9467H118.369C117.42 72.9467 116.658 73.7089 116.658 74.6578V90.1978H93.4333C92.4844 90.1978 91.7222 90.96 91.7222 91.9089V107.449H68.5133C67.5644 107.449 66.8022 108.211 66.8022 109.16V124.7H43.5778C42.6289 124.7 41.8667 125.462 41.8667 126.411V143.289C41.8667 144.238 42.6289 145 43.5778 145H143.289C144.238 145 145 144.238 145 143.289V74.6422C145 73.7089 144.238 72.9467 143.289 72.9467ZM91.7378 110.84V141.578H70.2244V110.84H91.7378ZM45.2889 128.091H66.8022V141.593H45.2889V128.091ZM95.1444 141.578V93.6044H116.658V141.578H95.1444ZM141.578 141.578H120.08V76.3533H141.578V141.578ZM126.878 41.2444C136.864 41.2444 145 33.1089 145 23.1222C145 13.1356 136.864 5 126.878 5C116.891 5 108.756 13.1356 108.756 23.1222C108.756 33.1089 116.891 41.2444 126.878 41.2444ZM126.878 8.42222C134.982 8.42222 141.578 15.0178 141.578 23.1222C141.578 31.2267 134.982 37.8222 126.878 37.8222C118.773 37.8222 112.178 31.2267 112.178 23.1222C112.178 15.0178 118.773 8.42222 126.878 8.42222ZM116.953 23.5422C116.347 22.8111 116.456 21.7378 117.187 21.1311C117.918 20.5244 118.991 20.6333 119.598 21.3644L123.067 25.5644C123.207 25.7356 123.347 25.7978 123.564 25.8289C123.782 25.8444 123.922 25.7978 124.093 25.6578L133.94 17.3978C134.656 16.7911 135.744 16.8844 136.351 17.6156C136.958 18.3311 136.864 19.42 136.133 20.0267L126.287 28.2867C125.524 28.9244 124.622 29.2511 123.658 29.2511C123.533 29.2511 123.393 29.2511 123.253 29.2356C122.133 29.1267 121.153 28.6133 120.438 27.7578L116.953 23.5422ZM46.4556 117.529C47.9022 118.509 49.7844 118.431 51.1378 117.358C52.8333 116.02 54.3733 114.464 55.7111 112.769C56.7844 111.416 56.8622 109.533 55.8822 108.087C55.3222 107.262 54.4978 105.691 55.0889 104.244C55.68 102.813 57.3911 102.284 58.3556 102.098C60.0667 101.771 61.3422 100.387 61.5289 98.66C61.7778 96.5444 61.7778 94.3822 61.5289 92.2667C61.3267 90.54 60.0511 89.1556 58.3556 88.8289C57.3911 88.6422 55.68 88.1133 55.0889 86.6822C54.4978 85.2356 55.3378 83.6644 55.8822 82.84C56.8467 81.4089 56.7844 79.5267 55.7111 78.1578C55.6644 78.0956 55.6178 78.0489 55.5711 78.0022H89.6222C78.2978 85.5311 67.3778 89.6689 67.1756 89.7467C66.3978 90.0267 65.9467 90.8356 66.0867 91.6444C66.2267 92.4533 66.9267 93.0444 67.7511 93.06C67.7667 93.06 67.7822 93.06 67.8133 93.06C68.7311 93.06 78.0956 92.9511 89.6222 88.8444C100.278 85.0489 114.729 76.9756 124.078 60.0667L126.116 61.4667C126.691 61.8556 127.438 61.8711 128.013 61.4822C128.589 61.1089 128.884 60.4089 128.76 59.74L126.162 45.8956C126.084 45.4444 125.82 45.0556 125.447 44.8067C125.073 44.5578 124.607 44.4489 124.171 44.5422L110.327 47.14C109.642 47.2644 109.113 47.7933 108.973 48.4622C108.833 49.1311 109.113 49.8311 109.673 50.22L112.862 52.3978C111.587 55.7733 109.736 58.9311 107.496 61.8867C107.216 61.6844 106.889 61.5289 106.5 61.5289H101.382V13.82C101.382 8.95111 97.4311 5 92.5622 5H22.7022C17.8333 5 13.8822 8.95111 13.8822 13.82V61.4978H6.71111C5.76222 61.4978 5 62.26 5 63.2089V76.2756C5 77.2244 5.76222 77.9867 6.71111 77.9867H12C11.9533 78.0489 11.9067 78.0956 11.86 78.1422C10.7867 79.4956 10.7089 81.3778 11.6889 82.8244C12.2489 83.6489 13.0733 85.22 12.4822 86.6667C11.8911 88.0978 10.18 88.6267 9.21556 88.8133C7.50444 89.14 6.22889 90.5244 6.04222 92.2511C5.79333 94.3667 5.79333 96.5289 6.04222 98.6444C6.24444 100.371 7.52 101.756 9.21556 102.082C10.18 102.269 11.8911 102.798 12.4822 104.229C13.0733 105.66 12.2333 107.247 11.6889 108.071C10.7244 109.502 10.7867 111.384 11.86 112.753C13.1978 114.449 14.7378 115.989 16.4333 117.342C17.8022 118.431 19.6844 118.493 21.1156 117.513C21.94 116.953 23.5267 116.113 24.9578 116.72C26.4044 117.311 26.9333 119.038 27.12 120.002C27.4467 121.713 28.8311 122.989 30.5578 123.191C31.6311 123.316 32.72 123.378 33.7933 123.378C34.8667 123.378 35.9556 123.316 37.0289 123.191C38.7556 122.989 40.14 121.713 40.4667 120.002C40.6533 119.038 41.1822 117.311 42.6289 116.72C44.0444 116.129 45.6467 116.969 46.4556 117.529ZM115.896 50.2822L115.024 49.6911L123.129 48.1667L124.653 56.2711L124.436 56.1311C124.031 55.8511 123.533 55.7578 123.051 55.8822C122.569 56.0067 122.18 56.3178 121.947 56.7533C114.916 70.4422 103.684 80.1333 88.58 85.5467C84.9867 86.8378 81.58 87.7244 78.6089 88.3156C81.7356 86.7444 85.3444 84.7689 89.0933 82.4044C103.684 73.2267 112.924 63.0689 116.533 52.2111C116.782 51.5111 116.518 50.7022 115.896 50.2822ZM80.1178 41.0111C82.9489 41.0111 85.2356 43.3133 85.2356 46.1289C85.2356 48.96 82.9333 51.2467 80.1178 51.2467C77.2867 51.2467 75 48.9444 75 46.1289C75 43.3133 77.3022 41.0111 80.1178 41.0111ZM78.4222 37.7756C76.3378 38.1956 74.5333 39.3933 73.3044 41.0422C72.0756 39.3933 70.2711 38.1956 68.1867 37.7756V8.42222H78.4378V37.7756H78.4222ZM52.8022 41.0111C55.6333 41.0111 57.92 43.3133 57.92 46.1289C57.92 48.96 55.6178 51.2467 52.8022 51.2467C49.9867 51.2467 47.6844 48.9444 47.6844 46.1289C47.6844 43.3133 49.9867 41.0111 52.8022 41.0111ZM54.5133 37.7756V8.42222H64.7644V37.7756C62.68 38.1956 60.8756 39.3933 59.6467 41.0422C58.4022 39.3933 56.5978 38.1956 54.5133 37.7756ZM66.46 41.0111C69.2911 41.0111 71.5778 43.3133 71.5778 46.1289C71.5778 48.96 69.2756 51.2467 66.46 51.2467C63.6289 51.2467 61.3422 48.9444 61.3422 46.1289C61.3422 43.3133 63.6444 41.0111 66.46 41.0111ZM17.2889 13.82C17.2889 10.8333 19.7156 8.40667 22.7022 8.40667H33.0778L30.7133 37.3556C26.7778 37.8378 23.5578 41.0267 23.2311 45.1333C23.0444 47.4044 23.76 49.6133 25.2378 51.3556C26.7156 53.0978 28.7844 54.1556 31.0556 54.3422C31.2889 54.3578 31.5222 54.3733 31.7556 54.3733C33.7778 54.3733 35.7067 53.6578 37.2622 52.3356C39.0044 50.8578 40.0622 48.7889 40.2489 46.5178C40.4356 44.2467 39.72 42.0378 38.2422 40.2956C37.1378 39.0044 35.7067 38.0867 34.12 37.62L36.5 8.42222H51.1067V37.7756C47.2178 38.5689 44.2778 42.0222 44.2778 46.1444C44.2778 50.8578 48.1044 54.6844 52.8178 54.6844C55.6178 54.6844 58.0911 53.3311 59.6467 51.2467C61.2022 53.3311 63.6756 54.6844 66.4756 54.6844C69.2756 54.6844 71.7489 53.3311 73.3044 51.2467C74.86 53.3311 77.3333 54.6844 80.1333 54.6844C84.8467 54.6844 88.6733 50.8578 88.6733 46.1444C88.6733 42.0222 85.7333 38.5689 81.8444 37.7756V8.42222H92.5933C95.58 8.42222 98.0067 10.8489 98.0067 13.8356V61.5133H17.2889V13.82ZM31.74 40.7156C31.88 40.7156 32.02 40.7156 32.16 40.7311C33.5289 40.84 34.7578 41.4778 35.6444 42.52C36.5311 43.5622 36.9511 44.8844 36.8422 46.2533C36.7333 47.6222 36.0956 48.8511 35.0533 49.7378C34.0111 50.6244 32.6889 51.0444 31.32 50.9356C29.9511 50.8267 28.7222 50.1889 27.8356 49.1467C26.9489 48.1044 26.5289 46.7822 26.6378 45.4133C26.8556 42.7378 29.0956 40.7156 31.74 40.7156ZM8.42222 64.92H104.836V65.1378C101.74 68.6222 98.1622 71.78 94.4756 74.5644H52.2733C51.9 74.2222 51.5422 73.8644 51.1378 73.5533C49.7689 72.48 47.8867 72.4022 46.4556 73.3822C45.6311 73.9422 44.0444 74.7822 42.6133 74.1756C41.1667 73.5844 40.6378 71.8578 40.4511 70.8933C40.1244 69.1822 38.74 67.9067 37.0133 67.7044C34.8667 67.4556 32.6889 67.4556 30.5422 67.7044C28.8156 67.9067 27.4311 69.1822 27.1044 70.8933C26.9178 71.8578 26.3889 73.5844 24.9422 74.1756C23.4956 74.7667 21.9089 73.9267 21.1 73.3822C19.6533 72.4022 17.7711 72.48 16.4178 73.5533C16.0289 73.8644 15.6711 74.2222 15.2822 74.5644H8.42222V64.92ZM41.3067 113.578C39.1444 114.48 37.6511 116.533 37.1067 119.38C37.06 119.629 36.8889 119.784 36.6244 119.816C34.7422 120.033 32.8289 120.033 30.9467 119.816C30.6978 119.784 30.5267 119.629 30.4644 119.38C29.92 116.533 28.4267 114.48 26.2644 113.578C25.5022 113.267 24.7089 113.111 23.8844 113.111C22.36 113.111 20.7422 113.656 19.1867 114.698C18.9689 114.838 18.7356 114.838 18.5333 114.667C17.04 113.484 15.6867 112.131 14.52 110.638C14.3644 110.436 14.3489 110.202 14.4889 109.984C16.1067 107.589 16.5111 105.084 15.6089 102.922C14.7222 100.76 12.6689 99.2822 9.83778 98.7222C9.58889 98.6756 9.43333 98.5044 9.40222 98.24C9.18444 96.3733 9.18444 94.4756 9.40222 92.6244C9.43333 92.3756 9.58889 92.2044 9.83778 92.1422C12.6689 91.5978 14.7067 90.1044 15.6089 87.9422C16.5111 85.78 16.1067 83.2756 14.4889 80.88C14.3489 80.6622 14.3489 80.4289 14.52 80.2267C15.7022 78.7333 17.0556 77.38 18.5333 76.1978C18.7356 76.0422 18.9689 76.0267 19.1867 76.1667C21.5822 77.7844 24.0867 78.1889 26.2489 77.2867C28.4111 76.3844 29.9044 74.3311 30.4489 71.4844C30.4956 71.2356 30.6667 71.08 30.9311 71.0489C32.8133 70.8311 34.7267 70.8311 36.6089 71.0489C36.8578 71.08 37.0289 71.2356 37.0911 71.4844C37.6356 74.3311 39.1289 76.3844 41.2911 77.2867C43.4533 78.1889 45.9578 77.7844 48.3533 76.1667C48.5711 76.0267 48.8044 76.0267 49.0067 76.1978C50.5 77.38 51.8533 78.7333 53.02 80.2267C53.1756 80.4289 53.1911 80.6622 53.0511 80.88C51.4333 83.2756 51.0289 85.78 51.9311 87.9422C52.8178 90.1044 54.8711 91.5822 57.7022 92.1422C57.9511 92.1889 58.1067 92.36 58.1378 92.6244C58.3556 94.4911 58.3556 96.3889 58.1378 98.24C58.1067 98.4889 57.9511 98.66 57.7022 98.7222C54.8711 99.2667 52.8333 100.76 51.9311 102.922C51.0289 105.084 51.4333 107.589 53.0511 109.984C53.1911 110.202 53.1911 110.436 53.02 110.638C51.8378 112.131 50.4844 113.484 49.0067 114.667C48.8044 114.822 48.5711 114.838 48.3533 114.698C45.9733 113.08 43.4689 112.676 41.3067 113.578ZM36.5156 95.4556C36.5156 96.9644 35.3022 98.1778 33.7933 98.1778C33.4044 98.1778 33.0467 98.1 32.72 97.96L28.1156 100.402C27.8667 100.542 27.5867 100.604 27.3222 100.604C26.7156 100.604 26.1244 100.278 25.8133 99.7022C25.3778 98.8622 25.6889 97.8356 26.5289 97.4L31.1333 94.9578C31.2578 94.32 31.6156 93.76 32.0978 93.3711V85.4222C32.0978 84.4733 32.86 83.7111 33.8089 83.7111C34.7578 83.7111 35.52 84.4733 35.52 85.4222V93.3711C36.1111 93.8378 36.5156 94.6 36.5156 95.4556ZM50.7022 95.4556C50.7022 86.1222 43.1111 78.5311 33.7778 78.5311C24.4444 78.5311 16.8533 86.1222 16.8533 95.4556C16.8533 104.789 24.4444 112.38 33.7778 112.38C43.1111 112.38 50.7022 104.789 50.7022 95.4556ZM33.7778 108.958C26.3267 108.958 20.2756 102.891 20.2756 95.4556C20.2756 88.0044 26.3422 81.9533 33.7778 81.9533C41.2289 81.9533 47.28 88.02 47.28 95.4556C47.2956 102.907 41.2289 108.958 33.7778 108.958Z" fill="#663366"/>
</svg>
