<svg width="150" height="150" viewBox="0 0 150 150" fill="none" xmlns="http://www.w3.org/2000/svg">
<path d="M58.1852 26.168H46.416V145H103.584V26.168H91.8152" stroke="#663366" stroke-width="4.3" stroke-miterlimit="10" stroke-linejoin="round"/>
<path d="M63.4292 38.7422H46.416" stroke="#663366" stroke-width="4.3" stroke-miterlimit="10" stroke-linejoin="round"/>
<path d="M103.584 38.7422H86.6182" stroke="#663366" stroke-width="4.3" stroke-miterlimit="10" stroke-linejoin="round"/>
<path d="M103.584 145.001H145V80.4297H103.584" stroke="#663366" stroke-width="4.3" stroke-miterlimit="10" stroke-linejoin="round"/>
<path d="M81.2853 55.2852H68.7139V67.8566H81.2853V55.2852Z" stroke="#663366" stroke-width="4.3" stroke-miterlimit="10" stroke-linecap="round" stroke-linejoin="round"/>
<path d="M81.2853 80.4297H68.7139V93.0011H81.2853V80.4297Z" stroke="#663366" stroke-width="4.3" stroke-miterlimit="10" stroke-linecap="round" stroke-linejoin="round"/>
<path d="M81.2853 105.57H68.7139V118.142H81.2853V105.57Z" stroke="#663366" stroke-width="4.3" stroke-miterlimit="10" stroke-linecap="round" stroke-linejoin="round"/>
<path d="M131.584 93H116.155V105.571H131.584V93Z" stroke="#663366" stroke-width="4.3" stroke-miterlimit="10" stroke-linecap="round" stroke-linejoin="round"/>
<path d="M131.584 118.145H116.155V130.716H131.584V118.145Z" stroke="#663366" stroke-width="4.3" stroke-miterlimit="10" stroke-linecap="round" stroke-linejoin="round"/>
<path d="M46.416 145.001H5V80.4297H46.416" stroke="#663366" stroke-width="4.3" stroke-miterlimit="10" stroke-linejoin="round"/>
<path d="M33.8446 93H18.416V105.571H33.8446V93Z" stroke="#663366" stroke-width="4.3" stroke-miterlimit="10" stroke-linecap="round" stroke-linejoin="round"/>
<path d="M33.8446 118.145H18.416V130.716H33.8446V118.145Z" stroke="#663366" stroke-width="4.3" stroke-miterlimit="10" stroke-linecap="round" stroke-linejoin="round"/>
<path d="M87.5716 145.001V130.715H62.4287V145.001" stroke="#663366" stroke-width="4.3" stroke-miterlimit="10" stroke-linecap="round" stroke-linejoin="round"/>
<path d="M145 80.4308V67.8594H103.584" stroke="#663366" stroke-width="4.3" stroke-miterlimit="10" stroke-linejoin="round"/>
<path d="M5 80.4308V67.8594H46.416" stroke="#663366" stroke-width="4.3" stroke-miterlimit="10" stroke-linejoin="round"/>
<path d="M124.292 67.2881V53.4141" stroke="#663366" stroke-width="4.3" stroke-miterlimit="10" stroke-linecap="round" stroke-linejoin="round"/>
<path d="M26.1299 67.2881V53.4141" stroke="#663366" stroke-width="4.3" stroke-miterlimit="10" stroke-linecap="round" stroke-linejoin="round"/>
<path d="M74.9996 42.7394C85.4211 42.7394 93.8693 34.2912 93.8693 23.8697C93.8693 13.4483 85.4211 5 74.9996 5C64.5781 5 56.1299 13.4483 56.1299 23.8697C56.1299 34.2912 64.5781 42.7394 74.9996 42.7394Z" stroke="#663366" stroke-width="4.3" stroke-miterlimit="10" stroke-linejoin="round"/>
<path d="M75.0004 42.7394C78.4789 42.7394 81.2987 34.2912 81.2987 23.8697C81.2987 13.4483 78.4789 5 75.0004 5C71.522 5 68.7021 13.4483 68.7021 23.8697C68.7021 34.2912 71.522 42.7394 75.0004 42.7394Z" stroke="#663366" stroke-width="4.3" stroke-miterlimit="10" stroke-linejoin="round"/>
<path d="M56.1299 23.8711H93.8693" stroke="#663366" stroke-width="4.3" stroke-miterlimit="10" stroke-linejoin="round"/>
</svg>
