<svg width="150" height="150" viewBox="0 0 150 150" fill="none" xmlns="http://www.w3.org/2000/svg">
<mask id="path-1-outside-1_635_18" maskUnits="userSpaceOnUse" x="4" y="22.7812" width="142" height="105" fill="black">
<rect fill="white" x="4" y="22.7812" width="142" height="105"/>
<path fill-rule="evenodd" clip-rule="evenodd" d="M52.6099 36.6455C38.8928 38.0959 23.333 40.5777 12.9424 44.4878C11.9566 44.8857 10.4171 45.8659 9.11532 47.4938L30.6555 59.2714C31.2056 59.5504 31.9732 60.0974 32.6143 60.8826C33.2667 61.6816 33.8236 62.7736 33.8236 64.1108V96.7807C33.8236 96.9266 33.8308 97.0798 33.8395 97.2614C33.8479 97.4356 33.8574 97.636 33.8574 97.8399C33.8574 98.2507 33.82 98.733 33.6324 99.2274C33.2399 100.262 32.308 101.066 30.5934 101.652L9.2432 112.723C10.1472 113.586 11.3534 114.404 12.9508 115.046C13.6397 115.322 14.3537 115.633 15.127 115.969C16.9678 116.77 19.1448 117.716 22.1182 118.701C28.5794 116.496 42.8507 111.727 50.36 109.572C53.8551 108.57 56.3966 105.835 58.1621 102.692C59.8126 99.7543 60.7284 96.556 61.0903 94.3703C57.3457 90.7678 53.4579 85.2704 49.9805 77.0999C48.806 76.817 47.2457 76.2684 45.9012 75.4153C44.3989 74.4621 42.9627 72.9895 42.9627 70.917V51.8596C42.9627 50.392 44.0523 48.2497 47.1859 47.3506C47.7072 45.4905 48.6861 43.1933 49.8427 41.0306C50.6829 39.4594 51.6379 37.9194 52.6099 36.6455ZM49.0799 46.996C49.5524 46.9478 50.0569 46.9224 50.5954 46.9224H99.4046C99.943 46.9224 100.448 46.9478 100.92 46.996C100.407 45.4459 99.6019 43.6126 98.6518 41.8358C97.4919 39.6665 96.1581 37.6617 94.9459 36.3959C86.9838 35.6107 79.8454 35.1807 75 35.0178C70.1546 35.1807 63.0162 35.6107 55.0541 36.3959C53.8419 37.6617 52.5081 39.6665 51.3482 41.8358C50.3981 43.6126 49.5931 45.4459 49.0799 46.996ZM97.3901 36.6455C98.3621 37.9194 99.3171 39.4594 100.157 41.0306C101.314 43.1933 102.293 45.4905 102.814 47.3506C105.948 48.2497 107.037 50.392 107.037 51.8596V70.917C107.037 72.9895 105.601 74.4621 104.099 75.4153C102.754 76.2684 101.194 76.817 100.02 77.0999C96.5421 85.2704 92.6545 90.7678 88.9097 94.3703C89.2716 96.556 90.1874 99.7543 91.8379 102.692C93.6034 105.835 96.145 108.57 99.64 109.572C107.149 111.727 121.421 116.496 127.882 118.701C130.855 117.716 133.032 116.77 134.873 115.969C135.646 115.633 136.36 115.322 137.049 115.046C138.647 114.404 139.853 113.586 140.757 112.723L119.406 101.652C117.692 101.066 116.76 100.262 116.368 99.2274C116.18 98.733 116.143 98.2507 116.143 97.8399C116.143 97.6359 116.152 97.4364 116.161 97.2623C116.169 97.0808 116.176 96.9266 116.176 96.7807V64.1108C116.176 62.7736 116.733 61.6816 117.386 60.8826C118.027 60.0974 118.794 59.5502 119.345 59.2714L140.885 47.4938C139.583 45.8657 138.043 44.8857 137.057 44.4878C126.667 40.5777 111.107 38.0959 97.3901 36.6455ZM141.848 48.9131L120.138 60.7833L120.125 60.7901C119.772 60.9671 119.192 61.3702 118.708 61.9623C118.231 62.5471 117.884 63.27 117.884 64.1108V96.7807C117.884 96.969 117.875 97.1583 117.867 97.327L117.866 97.3431C117.857 97.5228 117.85 97.6826 117.85 97.8399C117.85 98.1522 117.88 98.4014 117.964 98.6217C118.109 99.0034 118.514 99.5533 120.013 100.055L120.076 100.076L141.908 111.397C142.972 109.899 143.293 108.447 143.293 107.67V54.5821C143.293 52.2825 142.697 50.406 141.848 48.9131ZM125.098 119.558C118.002 117.157 105.863 113.134 99.1691 111.213C95.0717 110.038 92.2294 106.875 90.3495 103.528C88.8375 100.837 87.9063 97.9573 87.4265 95.7069C82.4323 99.9107 77.8068 100.863 75 100.371C72.1932 100.863 67.5677 99.9107 62.5735 95.7069C62.0937 97.9573 61.1625 100.837 59.6505 103.528C57.7706 106.875 54.9283 110.038 50.8309 111.213C44.1373 113.134 31.9976 117.157 24.9015 119.558C33.6875 122.074 48.2422 124.513 75 124.513C101.758 124.513 116.312 122.074 125.098 119.558ZM99.3178 75.5083C100.374 75.2866 101.916 74.7785 103.184 73.9736C104.506 73.1347 105.33 72.1115 105.33 70.917V51.8596C105.33 51.2086 104.773 49.5337 101.926 48.8846C101.232 48.7263 100.399 48.6297 99.4046 48.6297H50.5954C49.6006 48.6297 48.7678 48.7263 48.0736 48.8846C45.2271 49.5337 44.67 51.2086 44.67 51.8596V70.917C44.67 72.1115 45.4935 73.1347 46.816 73.9736C48.0841 74.7785 49.626 75.2866 50.6822 75.5083H64.1536C65.3844 75.5083 69.0215 74.0885 70.0799 66.7659C70.0988 66.0925 70.4001 65.2175 71.1649 64.5066C71.9685 63.7594 73.2114 63.2572 75 63.2572C76.7886 63.2572 78.0315 63.7594 78.8351 64.5066C79.5999 65.2175 79.9012 66.0925 79.9202 66.7657C80.9785 74.0887 84.6156 75.5083 85.8464 75.5083H99.3178ZM51.8901 77.2157C55.3081 85.0143 59.066 90.1454 62.5847 93.4345C67.8416 98.3483 72.5268 99.1289 74.832 98.6661L75 98.6324L75.168 98.6661C77.4732 99.1289 82.1584 98.3483 87.4153 93.4345C90.9341 90.1454 94.6919 85.0143 98.1099 77.2157H85.8464C83.4647 77.2157 79.3431 74.8307 78.2222 66.9535L78.2139 66.8937V66.8333C78.2139 66.6074 78.1024 66.1563 77.6726 65.757C77.256 65.3698 76.4654 64.9645 75 64.9645C73.5346 64.9645 72.7438 65.3698 72.3274 65.757C71.8976 66.1563 71.7861 66.6074 71.7861 66.8333V66.8937L71.7778 66.9535C70.6569 74.8307 66.5353 77.2157 64.1536 77.2157H51.8901ZM8.09229 111.397L29.9243 100.076L29.9873 100.055C31.4856 99.5533 31.8913 99.0034 32.0362 98.6217C32.1197 98.4014 32.1501 98.1522 32.1501 97.8399C32.1501 97.6826 32.1428 97.5228 32.1342 97.3431L32.1334 97.327C32.1253 97.1583 32.1163 96.969 32.1163 96.7807V64.1108C32.1163 63.27 31.7692 62.5471 31.2917 61.9623C30.8085 61.3702 30.228 60.9671 29.8753 60.7901L29.8618 60.7833L8.15239 48.9131C7.30317 50.406 6.70732 52.2825 6.70732 54.5821V107.67C6.70732 108.447 7.02846 109.899 8.09229 111.397ZM54.1204 34.7731C39.9911 36.1974 23.3731 38.7363 12.3319 42.8933L12.3147 42.9001C10.8851 43.4741 8.7409 44.9088 7.14217 47.3018C5.90744 49.1496 5 51.5668 5 54.5821V107.67C5 108.954 5.55182 111.053 7.19561 113.029C8.33081 114.394 9.98076 115.693 12.3147 116.63C12.9421 116.882 13.6202 117.177 14.3699 117.503C16.284 118.335 18.6643 119.369 21.8584 120.412C30.5476 123.249 45.4096 126.22 75 126.22C104.59 126.22 119.452 123.249 128.142 120.412C131.336 119.369 133.716 118.335 135.63 117.503C136.38 117.177 137.058 116.882 137.685 116.63C140.019 115.693 141.669 114.394 142.804 113.029C144.448 111.053 145 108.954 145 107.67V54.5821C145 51.5668 144.093 49.1496 142.858 47.3018C141.259 44.9088 139.115 43.4741 137.685 42.9001L137.668 42.8933C126.627 38.7363 110.009 36.1974 95.8796 34.7731C93.6835 30.7874 86.8732 23.7812 75 23.7812C63.1268 23.7812 56.3165 30.7874 54.1204 34.7731ZM56.2545 34.5645C63.715 33.858 70.3669 33.4645 74.9715 33.3105L75 33.3094L75.0285 33.3105C79.6331 33.4645 86.285 33.858 93.7455 34.5645C91.261 30.9312 85.1445 25.4886 75 25.4886C64.8555 25.4886 58.739 30.9312 56.2545 34.5645ZM14.4906 99.5032V61.3883H16.198V99.5032H14.4906ZM133.802 99.5032V61.3883H135.509V99.5032H133.802ZM21.2697 92.6969V68.1945H22.977V92.6969H21.2697ZM127.023 92.6969V68.1945H128.73V92.6969H127.023Z"/>
</mask>
<path fill-rule="evenodd" clip-rule="evenodd" d="M52.6099 36.6455C38.8928 38.0959 23.333 40.5777 12.9424 44.4878C11.9566 44.8857 10.4171 45.8659 9.11532 47.4938L30.6555 59.2714C31.2056 59.5504 31.9732 60.0974 32.6143 60.8826C33.2667 61.6816 33.8236 62.7736 33.8236 64.1108V96.7807C33.8236 96.9266 33.8308 97.0798 33.8395 97.2614C33.8479 97.4356 33.8574 97.636 33.8574 97.8399C33.8574 98.2507 33.82 98.733 33.6324 99.2274C33.2399 100.262 32.308 101.066 30.5934 101.652L9.2432 112.723C10.1472 113.586 11.3534 114.404 12.9508 115.046C13.6397 115.322 14.3537 115.633 15.127 115.969C16.9678 116.77 19.1448 117.716 22.1182 118.701C28.5794 116.496 42.8507 111.727 50.36 109.572C53.8551 108.57 56.3966 105.835 58.1621 102.692C59.8126 99.7543 60.7284 96.556 61.0903 94.3703C57.3457 90.7678 53.4579 85.2704 49.9805 77.0999C48.806 76.817 47.2457 76.2684 45.9012 75.4153C44.3989 74.4621 42.9627 72.9895 42.9627 70.917V51.8596C42.9627 50.392 44.0523 48.2497 47.1859 47.3506C47.7072 45.4905 48.6861 43.1933 49.8427 41.0306C50.6829 39.4594 51.6379 37.9194 52.6099 36.6455ZM49.0799 46.996C49.5524 46.9478 50.0569 46.9224 50.5954 46.9224H99.4046C99.943 46.9224 100.448 46.9478 100.92 46.996C100.407 45.4459 99.6019 43.6126 98.6518 41.8358C97.4919 39.6665 96.1581 37.6617 94.9459 36.3959C86.9838 35.6107 79.8454 35.1807 75 35.0178C70.1546 35.1807 63.0162 35.6107 55.0541 36.3959C53.8419 37.6617 52.5081 39.6665 51.3482 41.8358C50.3981 43.6126 49.5931 45.4459 49.0799 46.996ZM97.3901 36.6455C98.3621 37.9194 99.3171 39.4594 100.157 41.0306C101.314 43.1933 102.293 45.4905 102.814 47.3506C105.948 48.2497 107.037 50.392 107.037 51.8596V70.917C107.037 72.9895 105.601 74.4621 104.099 75.4153C102.754 76.2684 101.194 76.817 100.02 77.0999C96.5421 85.2704 92.6545 90.7678 88.9097 94.3703C89.2716 96.556 90.1874 99.7543 91.8379 102.692C93.6034 105.835 96.145 108.57 99.64 109.572C107.149 111.727 121.421 116.496 127.882 118.701C130.855 117.716 133.032 116.77 134.873 115.969C135.646 115.633 136.36 115.322 137.049 115.046C138.647 114.404 139.853 113.586 140.757 112.723L119.406 101.652C117.692 101.066 116.76 100.262 116.368 99.2274C116.18 98.733 116.143 98.2507 116.143 97.8399C116.143 97.6359 116.152 97.4364 116.161 97.2623C116.169 97.0808 116.176 96.9266 116.176 96.7807V64.1108C116.176 62.7736 116.733 61.6816 117.386 60.8826C118.027 60.0974 118.794 59.5502 119.345 59.2714L140.885 47.4938C139.583 45.8657 138.043 44.8857 137.057 44.4878C126.667 40.5777 111.107 38.0959 97.3901 36.6455ZM141.848 48.9131L120.138 60.7833L120.125 60.7901C119.772 60.9671 119.192 61.3702 118.708 61.9623C118.231 62.5471 117.884 63.27 117.884 64.1108V96.7807C117.884 96.969 117.875 97.1583 117.867 97.327L117.866 97.3431C117.857 97.5228 117.85 97.6826 117.85 97.8399C117.85 98.1522 117.88 98.4014 117.964 98.6217C118.109 99.0034 118.514 99.5533 120.013 100.055L120.076 100.076L141.908 111.397C142.972 109.899 143.293 108.447 143.293 107.67V54.5821C143.293 52.2825 142.697 50.406 141.848 48.9131ZM125.098 119.558C118.002 117.157 105.863 113.134 99.1691 111.213C95.0717 110.038 92.2294 106.875 90.3495 103.528C88.8375 100.837 87.9063 97.9573 87.4265 95.7069C82.4323 99.9107 77.8068 100.863 75 100.371C72.1932 100.863 67.5677 99.9107 62.5735 95.7069C62.0937 97.9573 61.1625 100.837 59.6505 103.528C57.7706 106.875 54.9283 110.038 50.8309 111.213C44.1373 113.134 31.9976 117.157 24.9015 119.558C33.6875 122.074 48.2422 124.513 75 124.513C101.758 124.513 116.312 122.074 125.098 119.558ZM99.3178 75.5083C100.374 75.2866 101.916 74.7785 103.184 73.9736C104.506 73.1347 105.33 72.1115 105.33 70.917V51.8596C105.33 51.2086 104.773 49.5337 101.926 48.8846C101.232 48.7263 100.399 48.6297 99.4046 48.6297H50.5954C49.6006 48.6297 48.7678 48.7263 48.0736 48.8846C45.2271 49.5337 44.67 51.2086 44.67 51.8596V70.917C44.67 72.1115 45.4935 73.1347 46.816 73.9736C48.0841 74.7785 49.626 75.2866 50.6822 75.5083H64.1536C65.3844 75.5083 69.0215 74.0885 70.0799 66.7659C70.0988 66.0925 70.4001 65.2175 71.1649 64.5066C71.9685 63.7594 73.2114 63.2572 75 63.2572C76.7886 63.2572 78.0315 63.7594 78.8351 64.5066C79.5999 65.2175 79.9012 66.0925 79.9202 66.7657C80.9785 74.0887 84.6156 75.5083 85.8464 75.5083H99.3178ZM51.8901 77.2157C55.3081 85.0143 59.066 90.1454 62.5847 93.4345C67.8416 98.3483 72.5268 99.1289 74.832 98.6661L75 98.6324L75.168 98.6661C77.4732 99.1289 82.1584 98.3483 87.4153 93.4345C90.9341 90.1454 94.6919 85.0143 98.1099 77.2157H85.8464C83.4647 77.2157 79.3431 74.8307 78.2222 66.9535L78.2139 66.8937V66.8333C78.2139 66.6074 78.1024 66.1563 77.6726 65.757C77.256 65.3698 76.4654 64.9645 75 64.9645C73.5346 64.9645 72.7438 65.3698 72.3274 65.757C71.8976 66.1563 71.7861 66.6074 71.7861 66.8333V66.8937L71.7778 66.9535C70.6569 74.8307 66.5353 77.2157 64.1536 77.2157H51.8901ZM8.09229 111.397L29.9243 100.076L29.9873 100.055C31.4856 99.5533 31.8913 99.0034 32.0362 98.6217C32.1197 98.4014 32.1501 98.1522 32.1501 97.8399C32.1501 97.6826 32.1428 97.5228 32.1342 97.3431L32.1334 97.327C32.1253 97.1583 32.1163 96.969 32.1163 96.7807V64.1108C32.1163 63.27 31.7692 62.5471 31.2917 61.9623C30.8085 61.3702 30.228 60.9671 29.8753 60.7901L29.8618 60.7833L8.15239 48.9131C7.30317 50.406 6.70732 52.2825 6.70732 54.5821V107.67C6.70732 108.447 7.02846 109.899 8.09229 111.397ZM54.1204 34.7731C39.9911 36.1974 23.3731 38.7363 12.3319 42.8933L12.3147 42.9001C10.8851 43.4741 8.7409 44.9088 7.14217 47.3018C5.90744 49.1496 5 51.5668 5 54.5821V107.67C5 108.954 5.55182 111.053 7.19561 113.029C8.33081 114.394 9.98076 115.693 12.3147 116.63C12.9421 116.882 13.6202 117.177 14.3699 117.503C16.284 118.335 18.6643 119.369 21.8584 120.412C30.5476 123.249 45.4096 126.22 75 126.22C104.59 126.22 119.452 123.249 128.142 120.412C131.336 119.369 133.716 118.335 135.63 117.503C136.38 117.177 137.058 116.882 137.685 116.63C140.019 115.693 141.669 114.394 142.804 113.029C144.448 111.053 145 108.954 145 107.67V54.5821C145 51.5668 144.093 49.1496 142.858 47.3018C141.259 44.9088 139.115 43.4741 137.685 42.9001L137.668 42.8933C126.627 38.7363 110.009 36.1974 95.8796 34.7731C93.6835 30.7874 86.8732 23.7812 75 23.7812C63.1268 23.7812 56.3165 30.7874 54.1204 34.7731ZM56.2545 34.5645C63.715 33.858 70.3669 33.4645 74.9715 33.3105L75 33.3094L75.0285 33.3105C79.6331 33.4645 86.285 33.858 93.7455 34.5645C91.261 30.9312 85.1445 25.4886 75 25.4886C64.8555 25.4886 58.739 30.9312 56.2545 34.5645ZM14.4906 99.5032V61.3883H16.198V99.5032H14.4906ZM133.802 99.5032V61.3883H135.509V99.5032H133.802ZM21.2697 92.6969V68.1945H22.977V92.6969H21.2697ZM127.023 92.6969V68.1945H128.73V92.6969H127.023Z" fill="#663366"/>
<path fill-rule="evenodd" clip-rule="evenodd" d="M52.6099 36.6455C38.8928 38.0959 23.333 40.5777 12.9424 44.4878C11.9566 44.8857 10.4171 45.8659 9.11532 47.4938L30.6555 59.2714C31.2056 59.5504 31.9732 60.0974 32.6143 60.8826C33.2667 61.6816 33.8236 62.7736 33.8236 64.1108V96.7807C33.8236 96.9266 33.8308 97.0798 33.8395 97.2614C33.8479 97.4356 33.8574 97.636 33.8574 97.8399C33.8574 98.2507 33.82 98.733 33.6324 99.2274C33.2399 100.262 32.308 101.066 30.5934 101.652L9.2432 112.723C10.1472 113.586 11.3534 114.404 12.9508 115.046C13.6397 115.322 14.3537 115.633 15.127 115.969C16.9678 116.77 19.1448 117.716 22.1182 118.701C28.5794 116.496 42.8507 111.727 50.36 109.572C53.8551 108.57 56.3966 105.835 58.1621 102.692C59.8126 99.7543 60.7284 96.556 61.0903 94.3703C57.3457 90.7678 53.4579 85.2704 49.9805 77.0999C48.806 76.817 47.2457 76.2684 45.9012 75.4153C44.3989 74.4621 42.9627 72.9895 42.9627 70.917V51.8596C42.9627 50.392 44.0523 48.2497 47.1859 47.3506C47.7072 45.4905 48.6861 43.1933 49.8427 41.0306C50.6829 39.4594 51.6379 37.9194 52.6099 36.6455ZM49.0799 46.996C49.5524 46.9478 50.0569 46.9224 50.5954 46.9224H99.4046C99.943 46.9224 100.448 46.9478 100.92 46.996C100.407 45.4459 99.6019 43.6126 98.6518 41.8358C97.4919 39.6665 96.1581 37.6617 94.9459 36.3959C86.9838 35.6107 79.8454 35.1807 75 35.0178C70.1546 35.1807 63.0162 35.6107 55.0541 36.3959C53.8419 37.6617 52.5081 39.6665 51.3482 41.8358C50.3981 43.6126 49.5931 45.4459 49.0799 46.996ZM97.3901 36.6455C98.3621 37.9194 99.3171 39.4594 100.157 41.0306C101.314 43.1933 102.293 45.4905 102.814 47.3506C105.948 48.2497 107.037 50.392 107.037 51.8596V70.917C107.037 72.9895 105.601 74.4621 104.099 75.4153C102.754 76.2684 101.194 76.817 100.02 77.0999C96.5421 85.2704 92.6545 90.7678 88.9097 94.3703C89.2716 96.556 90.1874 99.7543 91.8379 102.692C93.6034 105.835 96.145 108.57 99.64 109.572C107.149 111.727 121.421 116.496 127.882 118.701C130.855 117.716 133.032 116.77 134.873 115.969C135.646 115.633 136.36 115.322 137.049 115.046C138.647 114.404 139.853 113.586 140.757 112.723L119.406 101.652C117.692 101.066 116.76 100.262 116.368 99.2274C116.18 98.733 116.143 98.2507 116.143 97.8399C116.143 97.6359 116.152 97.4364 116.161 97.2623C116.169 97.0808 116.176 96.9266 116.176 96.7807V64.1108C116.176 62.7736 116.733 61.6816 117.386 60.8826C118.027 60.0974 118.794 59.5502 119.345 59.2714L140.885 47.4938C139.583 45.8657 138.043 44.8857 137.057 44.4878C126.667 40.5777 111.107 38.0959 97.3901 36.6455ZM141.848 48.9131L120.138 60.7833L120.125 60.7901C119.772 60.9671 119.192 61.3702 118.708 61.9623C118.231 62.5471 117.884 63.27 117.884 64.1108V96.7807C117.884 96.969 117.875 97.1583 117.867 97.327L117.866 97.3431C117.857 97.5228 117.85 97.6826 117.85 97.8399C117.85 98.1522 117.88 98.4014 117.964 98.6217C118.109 99.0034 118.514 99.5533 120.013 100.055L120.076 100.076L141.908 111.397C142.972 109.899 143.293 108.447 143.293 107.67V54.5821C143.293 52.2825 142.697 50.406 141.848 48.9131ZM125.098 119.558C118.002 117.157 105.863 113.134 99.1691 111.213C95.0717 110.038 92.2294 106.875 90.3495 103.528C88.8375 100.837 87.9063 97.9573 87.4265 95.7069C82.4323 99.9107 77.8068 100.863 75 100.371C72.1932 100.863 67.5677 99.9107 62.5735 95.7069C62.0937 97.9573 61.1625 100.837 59.6505 103.528C57.7706 106.875 54.9283 110.038 50.8309 111.213C44.1373 113.134 31.9976 117.157 24.9015 119.558C33.6875 122.074 48.2422 124.513 75 124.513C101.758 124.513 116.312 122.074 125.098 119.558ZM99.3178 75.5083C100.374 75.2866 101.916 74.7785 103.184 73.9736C104.506 73.1347 105.33 72.1115 105.33 70.917V51.8596C105.33 51.2086 104.773 49.5337 101.926 48.8846C101.232 48.7263 100.399 48.6297 99.4046 48.6297H50.5954C49.6006 48.6297 48.7678 48.7263 48.0736 48.8846C45.2271 49.5337 44.67 51.2086 44.67 51.8596V70.917C44.67 72.1115 45.4935 73.1347 46.816 73.9736C48.0841 74.7785 49.626 75.2866 50.6822 75.5083H64.1536C65.3844 75.5083 69.0215 74.0885 70.0799 66.7659C70.0988 66.0925 70.4001 65.2175 71.1649 64.5066C71.9685 63.7594 73.2114 63.2572 75 63.2572C76.7886 63.2572 78.0315 63.7594 78.8351 64.5066C79.5999 65.2175 79.9012 66.0925 79.9202 66.7657C80.9785 74.0887 84.6156 75.5083 85.8464 75.5083H99.3178ZM51.8901 77.2157C55.3081 85.0143 59.066 90.1454 62.5847 93.4345C67.8416 98.3483 72.5268 99.1289 74.832 98.6661L75 98.6324L75.168 98.6661C77.4732 99.1289 82.1584 98.3483 87.4153 93.4345C90.9341 90.1454 94.6919 85.0143 98.1099 77.2157H85.8464C83.4647 77.2157 79.3431 74.8307 78.2222 66.9535L78.2139 66.8937V66.8333C78.2139 66.6074 78.1024 66.1563 77.6726 65.757C77.256 65.3698 76.4654 64.9645 75 64.9645C73.5346 64.9645 72.7438 65.3698 72.3274 65.757C71.8976 66.1563 71.7861 66.6074 71.7861 66.8333V66.8937L71.7778 66.9535C70.6569 74.8307 66.5353 77.2157 64.1536 77.2157H51.8901ZM8.09229 111.397L29.9243 100.076L29.9873 100.055C31.4856 99.5533 31.8913 99.0034 32.0362 98.6217C32.1197 98.4014 32.1501 98.1522 32.1501 97.8399C32.1501 97.6826 32.1428 97.5228 32.1342 97.3431L32.1334 97.327C32.1253 97.1583 32.1163 96.969 32.1163 96.7807V64.1108C32.1163 63.27 31.7692 62.5471 31.2917 61.9623C30.8085 61.3702 30.228 60.9671 29.8753 60.7901L29.8618 60.7833L8.15239 48.9131C7.30317 50.406 6.70732 52.2825 6.70732 54.5821V107.67C6.70732 108.447 7.02846 109.899 8.09229 111.397ZM54.1204 34.7731C39.9911 36.1974 23.3731 38.7363 12.3319 42.8933L12.3147 42.9001C10.8851 43.4741 8.7409 44.9088 7.14217 47.3018C5.90744 49.1496 5 51.5668 5 54.5821V107.67C5 108.954 5.55182 111.053 7.19561 113.029C8.33081 114.394 9.98076 115.693 12.3147 116.63C12.9421 116.882 13.6202 117.177 14.3699 117.503C16.284 118.335 18.6643 119.369 21.8584 120.412C30.5476 123.249 45.4096 126.22 75 126.22C104.59 126.22 119.452 123.249 128.142 120.412C131.336 119.369 133.716 118.335 135.63 117.503C136.38 117.177 137.058 116.882 137.685 116.63C140.019 115.693 141.669 114.394 142.804 113.029C144.448 111.053 145 108.954 145 107.67V54.5821C145 51.5668 144.093 49.1496 142.858 47.3018C141.259 44.9088 139.115 43.4741 137.685 42.9001L137.668 42.8933C126.627 38.7363 110.009 36.1974 95.8796 34.7731C93.6835 30.7874 86.8732 23.7812 75 23.7812C63.1268 23.7812 56.3165 30.7874 54.1204 34.7731ZM56.2545 34.5645C63.715 33.858 70.3669 33.4645 74.9715 33.3105L75 33.3094L75.0285 33.3105C79.6331 33.4645 86.285 33.858 93.7455 34.5645C91.261 30.9312 85.1445 25.4886 75 25.4886C64.8555 25.4886 58.739 30.9312 56.2545 34.5645ZM14.4906 99.5032V61.3883H16.198V99.5032H14.4906ZM133.802 99.5032V61.3883H135.509V99.5032H133.802ZM21.2697 92.6969V68.1945H22.977V92.6969H21.2697ZM127.023 92.6969V68.1945H128.73V92.6969H127.023Z" stroke="#663366" stroke-width="1.6" mask="url(#path-1-outside-1_635_18)"/>
</svg>
