<svg width="150" height="150" viewBox="0 0 150 150" fill="none" xmlns="http://www.w3.org/2000/svg">
<path d="M68.126 78.8873C68.126 82.6792 71.2097 85.7629 75.0016 85.7629C78.7935 85.7629 81.8772 82.6792 81.8772 78.8873C81.8772 75.097 78.7935 72.0117 75.0016 72.0117C71.2097 72.0117 68.126 75.097 68.126 78.8873ZM77.9074 78.8873C77.9074 80.4895 76.6038 81.7932 75.0016 81.7932C73.3994 81.7932 72.0957 80.4895 72.0957 78.8873C72.0957 77.2851 73.3994 75.9815 75.0016 75.9815C76.6038 75.9815 77.9074 77.2867 77.9074 78.8873Z" fill="#663366"/>
<path d="M87.4441 78.8875H91.4139C91.4139 69.838 84.0508 62.4766 74.9998 62.4766C65.9504 62.4766 58.5889 69.838 58.5889 78.8875H62.5586C62.5586 72.0278 68.1401 66.4463 74.9998 66.4463C81.8611 66.4463 87.4441 72.0278 87.4441 78.8875Z" fill="#663366"/>
<path d="M100.134 78.8871C100.134 65.028 88.857 53.7539 74.9978 53.7539C61.1403 53.7539 49.8662 65.028 49.8662 78.8871H53.836C53.836 67.2177 63.33 57.7236 74.9978 57.7236C86.6689 57.7236 96.1645 67.2177 96.1645 78.8871H100.134Z" fill="#663366"/>
<path d="M108.614 78.8883C108.614 60.356 93.5352 45.2773 74.9997 45.2773C56.4673 45.2773 41.3887 60.3544 41.3887 78.8883H45.3584C45.3584 62.5441 58.6555 49.2471 74.9997 49.2471C91.3455 49.2471 104.644 62.5441 104.644 78.8883H108.614Z" fill="#663366"/>
<path d="M117.418 78.8854C117.418 55.4988 98.3899 36.4727 74.9986 36.4727C51.6121 36.4727 32.5859 55.4988 32.5859 78.8854H36.5557C36.5557 57.6869 53.8002 40.4424 74.9986 40.4424C96.2002 40.4424 113.448 57.6869 113.448 78.8854H117.418Z" fill="#663366"/>
<path d="M72.4586 88.1055C32.1467 88.1055 7.14207 100.378 6.09724 100.901L5 101.45V128.892H20.6471V126.907C20.6471 118.183 27.745 111.086 36.4673 111.086C45.1896 111.086 52.2875 118.183 52.2875 126.907V128.892H97.7093V126.907C97.7093 118.183 104.807 111.086 113.53 111.086C122.253 111.086 129.351 118.183 129.351 126.907V128.892H144.998V101.277L143.68 100.805C120.051 92.3801 96.0881 88.1055 72.4586 88.1055ZM16.7774 124.922H8.97133V103.943C11.9518 102.614 20.8996 98.9381 34.4841 96.0259V107.219C25.1536 108.153 17.7111 115.59 16.7774 124.922ZM38.4538 107.217V95.2208C47.9573 93.4186 59.4172 92.0752 72.4602 92.0752C72.6475 92.0752 72.8349 92.0816 73.0223 92.0816V114.029H51.4618C48.2352 110.279 43.643 107.737 38.4538 107.217ZM56.1604 124.922C55.9127 122.453 55.2077 120.119 54.1359 118.001H95.8673C94.7939 120.119 94.0889 122.455 93.8428 124.922H56.1604ZM98.5398 114.029H76.992V92.1308C88.4646 92.4007 100.009 93.6949 111.548 95.9973V107.217C106.359 107.737 101.765 110.279 98.5398 114.029ZM141.03 124.922H133.224C132.291 115.59 124.848 108.153 115.518 107.219V96.8262C124.04 98.6983 132.556 101.115 141.03 104.08V124.922Z" fill="#663366"/>
<path d="M49.3453 126.911C49.3453 119.81 43.5685 114.035 36.469 114.035C29.3695 114.035 23.5928 119.812 23.5928 126.911C23.5928 134.011 29.3695 139.786 36.469 139.786C43.5685 139.786 49.3453 134.009 49.3453 126.911ZM27.5625 126.911C27.5625 122 31.5577 118.005 36.469 118.005C41.3804 118.005 45.3755 122.002 45.3755 126.911C45.3755 131.821 41.3804 135.816 36.469 135.816C31.5577 135.816 27.5625 131.821 27.5625 126.911Z" fill="#663366"/>
<path d="M42.9255 126.91C42.9255 123.349 40.0291 120.453 36.4691 120.453C32.909 120.453 30.0127 123.349 30.0127 126.91C30.0127 130.468 32.909 133.364 36.4691 133.364C40.0291 133.364 42.9255 130.468 42.9255 126.91ZM33.9824 126.91C33.9824 125.539 35.0987 124.423 36.4691 124.423C37.8394 124.423 38.9557 125.539 38.9557 126.91C38.9557 128.28 37.8394 129.395 36.4691 129.395C35.0987 129.395 33.9824 128.28 33.9824 126.91Z" fill="#663366"/>
<path d="M119.99 126.91C119.99 123.349 117.094 120.453 113.534 120.453C109.975 120.453 107.079 123.349 107.079 126.91C107.079 130.468 109.975 133.364 113.534 133.364C117.094 133.364 119.99 130.468 119.99 126.91ZM111.047 126.91C111.047 125.539 112.162 124.423 113.532 124.423C114.903 124.423 116.019 125.539 116.019 126.91C116.019 128.28 114.903 129.395 113.532 129.395C112.162 129.395 111.047 128.28 111.047 126.91Z" fill="#663366"/>
<path d="M126.41 126.911C126.41 119.81 120.633 114.035 113.534 114.035C106.434 114.035 100.659 119.812 100.659 126.911C100.659 134.011 106.436 139.786 113.534 139.786C120.633 139.786 126.41 134.009 126.41 126.911ZM104.627 126.911C104.627 122 108.622 118.005 113.532 118.005C118.442 118.005 122.439 122.002 122.439 126.911C122.439 131.821 118.442 135.816 113.532 135.816C108.622 135.816 104.627 131.821 104.627 126.911Z" fill="#663366"/>
<path d="M130.181 56.6884V46.9626H115.518V17.0577H97.4826V26.3199H77.78V7H45.3758V32.9367H36.555V18.6456H19.5566V44.052H5.00195V78.0599H8.97169V48.0217H23.5263V22.6154H32.5853V36.9064H49.3455V10.9697H73.8103V30.2897H101.452V21.0275H111.548V50.9323H126.211V60.6582H141.031V78.8872H145V56.6884H130.181Z" fill="#663366"/>
<path d="M143.016 139.855H6.9873V143.825H143.016V139.855Z" fill="#663366"/>
</svg>
