<svg width="150" height="150" viewBox="0 0 150 150" fill="none" xmlns="http://www.w3.org/2000/svg">
<path d="M65.431 89.825C64.8289 89.8241 64.2508 89.5893 63.8186 89.1701C63.3863 88.751 63.1339 88.1804 63.1145 87.5786C63.0951 86.9769 63.3102 86.3911 63.7145 85.945C64.1188 85.4989 64.6806 85.2273 65.2814 85.1876L72.3465 84.7229C72.9589 84.6861 73.561 84.8932 74.0212 85.299C74.4813 85.7048 74.7622 86.2762 74.8023 86.8884C74.8424 87.5006 74.6385 88.1038 74.2353 88.5662C73.832 89.0285 73.2621 89.3125 72.6501 89.3559L65.585 89.8205C65.5329 89.8239 65.483 89.825 65.431 89.825Z" fill="#663366"/>
<path d="M131.043 77.3019L130.962 77.2979C132.835 74.7516 134.442 72.019 135.755 69.1433C138.956 62.0402 140.382 54.266 139.912 46.4894C139.877 45.8274 139.615 45.1975 139.172 44.7044C138.729 44.2113 138.13 43.8846 137.476 43.7785L136.732 43.655C133.678 43.256 130.685 42.4826 127.82 41.3521C124.295 39.7982 120.956 37.8501 117.869 35.5448C117.381 35.1907 116.792 35 116.189 35C115.585 35 114.997 35.1907 114.508 35.5448C111.421 37.8491 108.083 39.7972 104.558 41.3521C101.693 42.4825 98.6992 43.256 95.6452 43.655L94.9062 43.7773C94.2512 43.8814 93.6517 44.2067 93.2075 44.6992C92.7633 45.1916 92.5012 45.8214 92.4651 46.4837C92.1075 52.6795 92.9419 58.8864 94.923 64.7679C84.7117 64.5848 73.4155 64.8485 67.2466 65.2277C64.5123 65.3069 61.8496 66.1204 59.5378 67.5827C58.4748 68.2899 57.3974 69.0428 56.3056 69.8414C52.5924 72.6655 49.0666 75.7278 45.7505 79.0091C36.0703 79.5033 26.4219 80.495 16.8436 81.9803C16.1809 82.1058 15.552 82.3691 14.9976 82.7531C14.4431 83.1371 13.9755 83.6333 13.625 84.2095C11.7195 87.3155 10.5292 90.8066 10.1403 94.4296C9.75136 98.0527 10.1736 101.717 11.3765 105.157C11.7004 106.096 12.3088 106.911 13.1171 107.489C13.9254 108.066 14.8935 108.378 15.8871 108.381H25.8837C26.9157 110.262 28.4342 111.83 30.2802 112.923C32.1263 114.016 34.2321 114.592 36.3774 114.592C38.5226 114.592 40.6284 114.016 42.4745 112.923C44.3206 111.83 45.839 110.262 46.871 108.381H98.1302C99.1619 110.262 100.68 111.83 102.526 112.923C104.372 114.016 106.478 114.593 108.623 114.593C110.768 114.593 112.874 114.016 114.719 112.923C116.565 111.83 118.084 110.262 119.115 108.381H132.34C133.318 108.382 134.274 108.082 135.075 107.52C135.877 106.958 136.486 106.163 136.819 105.243C139.57 97.4938 139.48 89.0192 136.562 81.331C136.131 80.1971 135.38 79.2127 134.401 78.4975C133.421 77.7822 132.254 77.3669 131.043 77.3019ZM97.0392 48.1304C100.225 47.6762 103.344 46.841 106.33 45.6428C109.809 44.1371 113.114 42.2584 116.188 40.0397C119.262 42.2592 122.568 44.1379 126.047 45.6428C129.034 46.8411 132.153 47.6762 135.338 48.1305C135.586 55.4219 133.955 62.6545 130.601 69.1335C127.248 75.6126 122.284 81.1203 116.188 85.1275C110.092 81.1197 105.129 75.6118 101.776 69.1329C98.4223 62.6539 96.7914 55.4215 97.0392 48.1304ZM96.7798 69.4497C97.99 72.0678 99.4424 74.567 101.118 76.9147C95.887 76.9748 90.3898 77.0838 84.7909 77.2376L83.6962 69.3755C88.0612 69.3329 92.6028 69.3505 96.7798 69.4497ZM59.0505 73.5846C60.0818 72.8287 61.101 72.1166 62.1082 71.4484C63.743 70.4465 65.6152 69.8985 67.5322 69.8606C70.4348 69.6829 74.5038 69.5348 79.0201 69.4451L80.1241 77.3756C70.9588 77.6652 61.6738 78.0679 53.0138 78.5625C54.9707 76.8105 57.0992 75.0178 59.0505 73.5846ZM17.7072 86.5406C19.1476 86.2675 20.8659 86.0016 22.8078 85.7435L21.327 89.8477H16.0406C16.4913 88.6955 17.0492 87.5883 17.7072 86.5406ZM36.3774 109.95C34.9061 109.95 33.4678 109.514 32.2445 108.697C31.0211 107.879 30.0676 106.717 29.5046 105.358C28.9415 103.999 28.7942 102.503 29.0812 101.06C29.3683 99.617 30.0768 98.2915 31.1171 97.2511C32.1575 96.2107 33.483 95.5022 34.9261 95.2152C36.3691 94.9281 37.8649 95.0754 39.2242 95.6385C40.5835 96.2015 41.7453 97.155 42.5628 98.3784C43.3802 99.6017 43.8165 101.04 43.8165 102.511C43.8143 104.484 43.0298 106.375 41.6352 107.769C40.2406 109.164 38.3497 109.948 36.3774 109.95ZM36.3774 90.4302C33.1744 90.4338 30.1036 91.7078 27.8387 93.9726C25.5739 96.2375 24.2999 99.3083 24.2963 102.511C24.3162 102.914 24.3567 103.314 24.4177 103.712L15.7624 103.633C14.8738 101.095 14.5083 98.4028 14.688 95.7193C14.7171 95.2849 14.8072 94.9031 14.8621 94.4897H22.1271C22.9947 94.4903 23.8335 94.1783 24.4899 93.611C25.1463 93.0436 25.5764 92.2588 25.7015 91.4003L27.9619 85.1335C41.0784 83.7351 60.771 82.6303 79.9929 82.0218L76.1237 103.739H48.3345C48.3972 103.332 48.4386 102.922 48.4585 102.511C48.4549 99.3083 47.1809 96.2375 44.9161 93.9727C42.6512 91.7078 39.5804 90.4338 36.3774 90.4302ZM108.622 109.95C107.15 109.95 105.712 109.514 104.489 108.697C103.265 107.879 102.312 106.717 101.749 105.358C101.186 103.999 101.039 102.503 101.326 101.06C101.613 99.617 102.321 98.2914 103.362 97.2511C104.402 96.2107 105.727 95.5022 107.17 95.2152C108.613 94.9281 110.109 95.0754 111.469 95.6385C112.828 96.2015 113.99 97.155 114.807 98.3784C115.625 99.6017 116.061 101.04 116.061 102.511C116.059 104.484 115.274 106.375 113.88 107.769C112.485 109.164 110.594 109.948 108.622 109.95ZM132.34 103.739H120.579C120.642 103.332 120.683 102.922 120.703 102.511C120.703 100.925 120.39 99.3542 119.783 97.8886C119.176 96.4229 118.286 95.0912 117.165 93.9695C116.043 92.8478 114.711 91.958 113.246 91.3509C111.78 90.7438 110.209 90.4314 108.623 90.4314C107.037 90.4314 105.466 90.7438 104 91.3509C102.534 91.958 101.203 92.8478 100.081 93.9695C98.9593 95.0912 98.0695 96.4229 97.4624 97.8886C96.8554 99.3542 96.5429 100.925 96.5429 102.511C96.5629 102.922 96.6043 103.332 96.667 103.739H80.8383L84.7324 81.8809C91.7157 81.6888 98.5496 81.5664 104.901 81.5218C107.785 84.6529 111.068 87.3905 114.667 89.6641C115.125 89.9484 115.654 90.0988 116.193 90.0982C116.732 90.0976 117.26 89.946 117.718 89.6607C121.215 87.4509 124.416 84.802 127.24 81.7788C128.477 81.8257 129.674 81.8775 130.794 81.9372C131.108 81.9512 131.411 82.0573 131.664 82.2423C131.918 82.4273 132.112 82.6831 132.222 82.9775C133.421 86.1342 134.078 89.4709 134.164 92.8466C134.276 96.5618 133.657 100.263 132.34 103.739Z" fill="#663366"/>
<path d="M112.747 69.582C112.338 69.5808 111.934 69.4907 111.563 69.3179C111.192 69.1451 110.863 68.8937 110.598 68.5813L106.369 63.6389C106.17 63.4074 106.018 63.139 105.923 62.8489C105.828 62.5588 105.791 62.2529 105.814 61.9485C105.838 61.6441 105.921 61.3473 106.059 61.0751C106.197 60.8029 106.388 60.5607 106.62 60.3623C106.852 60.1638 107.121 60.0131 107.411 59.9188C107.701 59.8244 108.007 59.7882 108.312 59.8124C108.616 59.8365 108.912 59.9204 109.184 60.0594C109.456 60.1983 109.698 60.3895 109.896 60.622L112.743 63.9482L122.475 52.4904C122.874 52.0215 123.443 51.7302 124.056 51.6804C124.669 51.6307 125.277 51.8267 125.746 52.2252C126.215 52.6238 126.506 53.1923 126.556 53.8057C126.606 54.4191 126.41 55.0271 126.011 55.496L114.9 68.5756C114.636 68.8894 114.307 69.1421 113.936 69.3159C113.564 69.4896 113.157 69.5805 112.747 69.582Z" fill="#663366"/>
</svg>
