<svg width="150" height="150" viewBox="0 0 150 150" fill="none" xmlns="http://www.w3.org/2000/svg">
<path d="M75.6542 55.8016C75.6542 57.0138 74.6705 57.9975 73.4583 57.9975H65.4454C64.2332 57.9975 63.2495 57.0138 63.2495 55.8016C63.2495 54.5894 64.2332 53.6057 65.4454 53.6057H73.4583C74.672 53.6057 75.6542 54.5878 75.6542 55.8016ZM56.2856 53.6057H48.2727C47.0606 53.6057 46.0768 54.5894 46.0768 55.8016C46.0768 57.0138 47.0606 57.9975 48.2727 57.9975H56.2856C57.4978 57.9975 58.4815 57.0138 58.4815 55.8016C58.4815 54.5894 57.4994 53.6057 56.2856 53.6057ZM136.895 60.5462V138.059C136.895 141.887 133.608 145 129.569 145H86.5064C82.4658 145 79.1804 141.886 79.1804 138.059V135.595H9.18743C7.42976 135.595 6 134.165 6 132.407V127.119C6 125.361 7.42976 123.931 9.18743 123.931H10.7648V75.3924H9.18743C7.42976 75.3924 6 73.9627 6 72.205V66.9164C6 65.1587 7.42976 63.729 9.18743 63.729H35.8944V47.8773H35.8043C33.9005 47.8773 32.3511 46.3279 32.3511 44.4241V39.0143C32.3511 37.1106 33.9005 35.5611 35.8043 35.5611H37.2154C39.1254 28.9858 43.0681 23.0507 48.4577 18.7086C53.8255 14.3836 60.4304 11.8209 67.2575 11.3655V7.19593C67.2575 5.98374 68.2412 5 69.4534 5C70.6656 5 71.6493 5.98374 71.6493 7.19593V11.364C78.4764 11.8209 85.0798 14.382 90.4491 18.7071C95.8387 23.0492 99.7814 28.9842 101.691 35.5596H103.103C105.006 35.5596 106.556 37.109 106.556 39.0128V44.4225C106.556 46.3263 105.006 47.8757 103.103 47.8757H103.009V53.6057H129.567C133.608 53.6057 136.895 56.72 136.895 60.5462ZM129.567 57.9975H86.5064C84.9166 57.9975 83.5723 59.1646 83.5723 60.5462V63.9046H132.503V60.5462C132.501 59.1646 131.158 57.9975 129.567 57.9975ZM79.1804 91.443C77.2813 92.5806 76.0241 94.6522 76.0241 96.9818V123.933H79.1804V91.443ZM83.5723 124.547H132.503V68.2964H83.5723V124.547ZM80.074 17.728C80.4222 18.2097 80.7625 18.7164 81.0904 19.2479C83.7059 23.4843 85.6206 29.222 86.5624 35.5596H97.0866C94.3017 27.3556 87.9408 20.8626 80.074 17.728ZM56.7829 35.5596H82.1208C80.2667 24.0655 75.0186 15.675 69.4518 15.675C63.8851 15.675 58.637 24.0655 56.7829 35.5596ZM41.8171 35.5596H52.3413C53.2831 29.222 55.1978 23.4859 57.8133 19.2479C58.1412 18.7148 58.4815 18.2097 58.8297 17.728C50.9629 20.8626 44.602 27.3556 41.8171 35.5596ZM36.743 43.4839H102.161V39.953H36.743V43.4839ZM40.2863 63.7274H79.1789V60.5478C79.1789 56.72 82.4658 53.6057 86.5049 53.6057H98.6159V47.8757H40.2863V63.7274ZM10.3919 70.999H79.1789V68.1193H10.3919V70.999ZM15.1567 123.933H19.5159V96.9818C19.5159 91.0001 24.3833 86.1327 30.365 86.1327C36.3467 86.1327 41.2141 91.0001 41.2141 96.9818V123.933H45.5733V96.9818C45.5733 91.0001 50.4407 86.1327 56.4224 86.1327C62.4041 86.1327 67.2715 91.0001 67.2715 96.9818V123.933H71.6307V96.9818C71.6307 92.2076 74.7653 88.0629 79.1789 86.6487V75.3924H15.1567V123.933ZM62.8796 96.9818C62.8796 93.4214 59.9828 90.5246 56.4224 90.5246C52.862 90.5246 49.9651 93.4214 49.9651 96.9818V123.933H62.8781L62.8796 96.9818ZM36.8222 96.9818C36.8222 93.4214 33.9254 90.5246 30.365 90.5246C26.8046 90.5246 23.9078 93.4214 23.9078 96.9818V123.933H36.8207L36.8222 96.9818ZM79.1804 131.204V128.325H10.3919V131.204H79.1804ZM132.501 138.061V128.939H83.5723V138.061C83.5723 139.443 84.9166 140.61 86.5064 140.61H129.567C131.158 140.61 132.501 139.443 132.501 138.061ZM104.294 63.1462H111.779C112.991 63.1462 113.975 62.1625 113.975 60.9503C113.975 59.7381 112.991 58.7543 111.779 58.7543H104.294C103.082 58.7543 102.099 59.7381 102.099 60.9503C102.099 62.1625 103.082 63.1462 104.294 63.1462ZM115.658 134.774C115.658 137.365 113.551 139.472 110.96 139.472H105.115C102.524 139.472 100.417 137.365 100.417 134.774C100.417 132.183 102.524 130.076 105.115 130.076H110.96C113.551 130.076 115.658 132.183 115.658 134.774ZM111.266 134.774C111.266 134.611 111.123 134.468 110.96 134.468H105.115C104.952 134.468 104.809 134.611 104.809 134.774C104.809 134.937 104.952 135.08 105.115 135.08H110.96C111.123 135.08 111.266 134.937 111.266 134.774ZM143.801 21.4671C138.012 15.6781 130.315 12.4907 122.128 12.4907C113.941 12.4907 106.243 15.6781 100.454 21.4671C99.5965 22.325 99.5965 23.7159 100.454 24.5722C101.312 25.43 102.703 25.43 103.561 24.5722C108.52 19.6131 115.114 16.881 122.128 16.881C129.141 16.881 135.735 19.6115 140.694 24.5722C141.123 25.0011 141.686 25.2156 142.247 25.2156C142.809 25.2156 143.37 25.0011 143.799 24.5722C144.659 23.7143 144.659 22.325 143.801 21.4671ZM105.821 26.8318C104.963 27.6897 104.963 29.0806 105.821 29.9369C106.678 30.7947 108.069 30.7947 108.927 29.9369C116.207 22.6575 128.052 22.6575 135.331 29.9369C135.76 30.3658 136.323 30.5803 136.884 30.5803C137.446 30.5803 138.007 30.3658 138.436 29.9369C139.294 29.079 139.294 27.6881 138.436 26.8318C129.444 17.8399 114.813 17.8399 105.821 26.8318ZM131.517 35.9466C132.08 35.9466 132.641 35.7321 133.07 35.3032C133.928 34.4453 133.928 33.0544 133.07 32.1981C127.035 26.1651 117.22 26.1651 111.185 32.1981C110.327 33.0559 110.327 34.4469 111.185 35.3032C112.043 36.161 113.434 36.161 114.292 35.3032C118.612 30.9828 125.643 30.9828 129.965 35.3032C130.394 35.7321 130.955 35.9466 131.517 35.9466ZM122.129 35.2534C125.539 35.2534 128.311 38.0275 128.311 41.4356C128.311 44.8437 125.537 47.6177 122.129 47.6177C118.721 47.6177 115.947 44.8437 115.947 41.4356C115.947 38.0275 118.72 35.2534 122.129 35.2534ZM122.129 39.6453C121.142 39.6453 120.339 40.4487 120.339 41.4356C120.339 42.4224 121.142 43.2259 122.129 43.2259C123.116 43.2259 123.92 42.4224 123.92 41.4356C123.918 40.4487 123.116 39.6453 122.129 39.6453ZM126.847 96.4223C126.847 106.794 118.409 115.233 108.037 115.233C97.6648 115.233 89.2261 106.794 89.2261 96.4223C89.2261 86.0503 97.6648 77.6116 108.037 77.6116C118.409 77.6101 126.847 86.0488 126.847 96.4223ZM122.456 96.4223C122.456 88.4716 115.987 82.0035 108.037 82.0035C100.086 82.0035 93.6179 88.4716 93.6179 96.4223C93.6179 104.373 100.086 110.841 108.037 110.841C115.987 110.841 122.456 104.373 122.456 96.4223ZM113.948 90.035L105.889 98.1691L102.099 94.4735C101.23 93.6265 99.8389 93.6452 98.9935 94.5139C98.1465 95.3826 98.1652 96.772 99.0339 97.619L104.385 102.834C104.812 103.251 105.364 103.458 105.917 103.458C106.483 103.458 107.048 103.24 107.477 102.807L117.069 93.1245C117.922 92.2636 117.916 90.8727 117.055 90.0195C116.193 89.1663 114.802 89.1725 113.948 90.035Z" fill="#663366"/>
</svg>
