<svg width="150" height="150" viewBox="0 0 150 150" fill="none" xmlns="http://www.w3.org/2000/svg">
<path d="M74.9689 135.616C63.3326 135.604 51.9448 132.249 42.1611 125.95C32.3774 119.651 24.61 110.672 19.7836 100.084C14.9572 89.4962 13.2751 77.7441 14.9375 66.2273C16.6 54.7104 21.537 43.9138 29.1607 35.1229L28.428 41.4037L32.6152 41.8852L34.0807 29.198C34.1525 28.8497 34.1344 28.4888 34.0281 28.1495C33.9218 27.8101 33.7308 27.5034 33.4732 27.2583C33.2155 27.0132 32.8996 26.8378 32.5554 26.7486C32.2111 26.6594 31.8498 26.6593 31.5056 26.7484L19.0695 29.7632L20.0326 33.9505L25.8947 32.5477C15.6786 44.314 10.0369 59.3631 10.0002 74.9455C9.96351 90.528 15.5344 105.603 25.695 117.418C35.8555 129.232 49.9275 136.996 65.34 139.292C80.7524 141.588 96.4763 138.262 109.639 129.921L107.42 126.383C97.6956 132.472 86.442 135.674 74.9689 135.616Z" fill="#663366"/>
<path d="M74.9689 10.0001C62.7201 9.98442 50.7188 13.4476 40.3615 19.9866L42.5808 23.5457C54.8994 15.8199 69.5817 12.7717 83.9577 14.9555C98.3337 17.1393 111.448 24.41 120.917 35.4454C130.386 46.4809 135.58 60.5481 135.554 75.0889C135.528 89.6298 130.285 103.679 120.777 114.68L121.51 108.4L117.323 107.918L115.857 120.605C115.816 120.942 115.857 121.284 115.978 121.601C116.098 121.919 116.294 122.202 116.548 122.427C116.93 122.763 117.421 122.949 117.93 122.95C118.089 122.972 118.251 122.972 118.411 122.95L130.847 119.998L129.884 115.811L124.022 117.214C132.111 107.806 137.333 96.2765 139.071 83.9918C140.809 71.707 138.989 59.1816 133.827 47.8993C128.665 36.6171 120.377 27.0508 109.946 20.3338C99.5141 13.6169 87.3759 10.0306 74.9689 10.0001Z" fill="#663366"/>
<path d="M41.4711 105.258C41.4711 105.814 41.6917 106.346 42.0843 106.739C42.477 107.131 43.0095 107.352 43.5647 107.352H51.2273C51.6697 108.864 52.5902 110.192 53.8509 111.137C55.1116 112.081 56.6446 112.592 58.22 112.592C59.7954 112.592 61.3283 112.081 62.5891 111.137C63.8498 110.192 64.7703 108.864 65.2126 107.352H86.8187C87.261 108.864 88.1816 110.192 89.4423 111.137C90.703 112.081 92.2359 112.592 93.8113 112.592C95.3867 112.592 96.9197 112.081 98.1804 111.137C99.4411 110.192 100.362 108.864 100.804 107.352H106.373C106.928 107.352 107.461 107.131 107.853 106.739C108.246 106.346 108.467 105.814 108.467 105.258V92.6968C108.49 92.2402 108.364 91.7885 108.107 91.4104C107.85 91.0324 107.476 90.7489 107.043 90.6032L101.872 88.8864L100.092 81.182C99.3684 77.9287 97.5575 75.0192 94.9579 72.9335C92.3584 70.8478 89.1256 69.7104 85.7928 69.709H70.3838C67.0582 69.7199 63.8352 70.8616 61.2442 72.9465C58.6533 75.0315 56.8485 77.9356 56.1264 81.182L54.4306 88.8027L48.5266 89.7867C46.5802 90.0969 44.8056 91.0836 43.5151 92.5733C42.2245 94.063 41.5008 95.9601 41.4711 97.9308V105.258ZM58.22 108.399C57.5989 108.399 56.9917 108.215 56.4753 107.87C55.9588 107.525 55.5563 107.034 55.3186 106.46C55.0809 105.886 55.0187 105.255 55.1399 104.646C55.2611 104.037 55.5602 103.477 55.9994 103.038C56.4386 102.599 56.9981 102.3 57.6073 102.178C58.2165 102.057 58.8479 102.119 59.4218 102.357C59.9956 102.595 60.4861 102.997 60.8311 103.514C61.1762 104.03 61.3604 104.637 61.3604 105.258C61.3604 106.091 61.0295 106.89 60.4406 107.479C59.8517 108.068 59.0529 108.399 58.22 108.399ZM93.8113 108.399C93.1902 108.399 92.583 108.215 92.0666 107.87C91.5502 107.525 91.1476 107.034 90.91 106.46C90.6723 105.886 90.6101 105.255 90.7313 104.646C90.8524 104.037 91.1515 103.477 91.5907 103.038C92.0299 102.599 92.5895 102.3 93.1986 102.178C93.8078 102.057 94.4393 102.119 95.0131 102.357C95.5869 102.595 96.0774 102.997 96.4225 103.514C96.7675 104.03 96.9517 104.637 96.9517 105.258C96.9517 106.091 96.6209 106.89 96.0319 107.479C95.443 108.068 94.6442 108.399 93.8113 108.399ZM45.6583 97.9308C45.6446 96.9302 45.9897 95.9578 46.6311 95.1897C47.2725 94.4216 48.1677 93.9086 49.1547 93.7436L56.4614 92.5293C56.8762 92.4638 57.2617 92.275 57.5679 91.9875C57.874 91.7 58.0867 91.3271 58.1781 90.9172L60.2717 81.9147C60.7856 79.5917 62.0755 77.5131 63.9288 76.0213C65.7822 74.5294 68.0884 73.7135 70.4676 73.7078H85.9184C88.2976 73.7135 90.6038 74.5294 92.4572 76.0213C94.3105 77.5131 95.6004 79.5917 96.1143 81.9147L98.2079 90.9172C98.2869 91.2695 98.4556 91.5953 98.6978 91.8631C98.9399 92.1309 99.2471 92.3316 99.5897 92.4456L104.447 94.0576V103.165H100.804C100.362 101.653 99.4411 100.325 98.1804 99.3802C96.9197 98.4355 95.3867 97.9248 93.8113 97.9248C92.2359 97.9248 90.703 98.4355 89.4423 99.3802C88.1816 100.325 87.261 101.653 86.8187 103.165H65.2126C64.7703 101.653 63.8498 100.325 62.5891 99.3802C61.3283 98.4355 59.7954 97.9248 58.22 97.9248C56.6446 97.9248 55.1116 98.4355 53.8509 99.3802C52.5902 100.325 51.6697 101.653 51.2273 103.165H45.6583V97.9308Z" fill="#663366"/>
<path d="M72.8752 89.5582H77.0624L73.294 94.5828L76.6437 97.0952L82.9245 88.7207C83.1575 88.4082 83.2986 88.0368 83.3318 87.6484C83.3651 87.26 83.2893 86.8701 83.113 86.5225C82.939 86.1772 82.6728 85.8868 82.3439 85.6836C82.015 85.4803 81.6363 85.3721 81.2497 85.371H77.0624L80.8309 80.3463L77.4812 77.834L71.2003 86.2084C70.9674 86.521 70.8263 86.8923 70.7931 87.2807C70.7598 87.6691 70.8356 88.0591 71.0119 88.4067C71.1859 88.752 71.4521 89.0423 71.781 89.2456C72.1099 89.4488 72.4886 89.557 72.8752 89.5582Z" fill="#663366"/>
<path d="M97.9985 53.9655C99.1548 53.9655 100.092 53.0282 100.092 51.8719C100.092 50.7157 99.1548 49.7783 97.9985 49.7783C96.8423 49.7783 95.9049 50.7157 95.9049 51.8719C95.9049 53.0282 96.8423 53.9655 97.9985 53.9655Z" fill="#663366"/>
<path d="M43.5648 55.0128C43.2145 55.0134 42.8699 55.1018 42.5627 55.2701C42.2554 55.4383 41.9953 55.681 41.8061 55.9758C41.5996 56.281 41.4773 56.6353 41.4516 57.003C41.4259 57.3706 41.4976 57.7384 41.6596 58.0694C42.812 60.5664 44.6437 62.6886 46.9453 64.1937C49.2469 65.6988 51.9256 66.5259 54.675 66.5805C57.4245 66.6351 60.1339 65.915 62.4934 64.5024C64.853 63.0899 66.7675 61.042 68.0181 58.5928L97.8311 61.503C99.1713 61.6281 100.523 61.4721 101.799 61.045C103.076 60.6179 104.249 59.9291 105.244 59.0226C106.239 58.1162 107.034 57.012 107.578 55.7808C108.122 54.5496 108.403 53.2184 108.403 51.8724C108.403 50.5264 108.122 49.1952 107.578 47.9639C107.034 46.7327 106.239 45.6286 105.244 44.7221C104.249 43.8156 103.076 43.1268 101.799 42.6997C100.523 42.2726 99.1713 42.1167 97.8311 42.2418L68.0181 45.2356C66.7675 42.7864 64.853 40.7385 62.4934 39.326C60.1339 37.9135 57.4245 37.1934 54.675 37.248C51.9256 37.3026 49.2469 38.1297 46.9453 39.6348C44.6437 41.1398 42.812 43.2621 41.6596 45.759C41.4976 46.09 41.4259 46.4579 41.4516 46.8255C41.4773 47.1931 41.5996 47.5474 41.8061 47.8526C41.9953 48.1475 42.2554 48.3901 42.5627 48.5584C42.8699 48.7266 43.2145 48.8151 43.5648 48.8157H52.8813V55.0965L43.5648 55.0128ZM54.9749 44.5447H47.5217C48.7552 43.2938 50.2837 42.3735 51.9663 41.8684C53.649 41.3634 55.4317 41.29 57.1501 41.655C58.8686 42.02 60.4676 42.8116 61.7997 43.9569C63.1319 45.1021 64.1544 46.5643 64.773 48.2086C64.9331 48.6263 65.2227 48.9817 65.5995 49.2228C65.9762 49.464 66.4203 49.5781 66.8666 49.5485L98.2707 46.408C99.0285 46.3417 99.7918 46.4336 100.512 46.678C101.233 46.9225 101.894 47.3141 102.455 47.828C103.016 48.3418 103.464 48.9668 103.77 49.663C104.077 50.3593 104.235 51.1117 104.235 51.8724C104.235 52.6331 104.077 53.3854 103.77 54.0817C103.464 54.778 103.016 55.4029 102.455 55.9168C101.894 56.4306 101.233 56.8222 100.512 57.0667C99.7918 57.3111 99.0285 57.4031 98.2707 57.3367L66.8666 54.1963C66.4203 54.1667 65.9762 54.2808 65.5995 54.5219C65.2227 54.763 64.9331 55.1185 64.773 55.5362C64.1544 57.1805 63.1319 58.6426 61.7997 59.7879C60.4676 60.9332 58.8686 61.7248 57.1501 62.0897C55.4317 62.4547 53.649 62.3813 51.9663 61.8763C50.2837 61.3713 48.7552 60.4509 47.5217 59.2H54.9749C55.5302 59.2 56.0627 58.9794 56.4553 58.5868C56.848 58.1942 57.0685 57.6616 57.0685 57.1064V46.6383C57.0685 46.0831 56.848 45.5506 56.4553 45.1579C56.0627 44.7653 55.5302 44.5447 54.9749 44.5447Z" fill="#663366"/>
</svg>
