<svg width="150" height="150" viewBox="0 0 150 150" fill="none" xmlns="http://www.w3.org/2000/svg">
<path fill-rule="evenodd" clip-rule="evenodd" d="M15.4288 107.148H19.3219L19.3277 88.4913C19.3277 87.701 19.9658 87.0629 20.7561 87.0629H23.0158L28.6124 39.1704C26.4347 38.743 24.4735 38.0815 22.846 37.2326C19.6497 35.57 17.6651 33.1758 17.6475 30.4478V30.3775C17.665 27.6437 19.6495 25.2551 22.846 23.5927C23.9231 23.0307 25.1467 22.5507 26.4814 22.1701V16.1814C26.4814 15.3911 27.1195 14.753 27.9098 14.753H32.7629V6.4284C32.7629 5.6381 33.401 5 34.1913 5C34.9816 5 35.6197 5.6381 35.6197 6.4284V14.7471H40.4728C41.2631 14.7471 41.9012 15.3852 41.9012 16.1755V22.1643C43.2359 22.5507 44.4594 23.0307 45.5366 23.5868C48.7329 25.2494 50.7175 27.6437 50.7351 30.3717V30.4419C50.7176 33.1758 48.7331 35.5643 45.5366 37.2268C43.9852 38.0347 42.1296 38.6728 40.0748 39.106L43.6341 69.5526H47.6266C48.4169 69.5526 49.055 70.1907 49.055 70.981V82.6834H58.3163V61.4804C58.3163 60.8131 58.7729 60.2569 59.3876 60.0989L73.8648 54.8769C74.6025 54.6135 75.4221 54.994 75.6854 55.7375C75.744 55.8956 75.7674 56.0595 75.7674 56.2175H75.7732V107.148H79.2564L79.2505 34.574C79.2505 33.7837 79.8886 33.1456 80.6789 33.1456C81.1063 33.1456 81.4868 33.3329 81.7444 33.6256L98.7151 49.327C99.0196 49.608 99.1718 49.9885 99.1718 50.369H99.1776V82.683H108.439L108.451 62.3343C108.451 61.544 109.089 60.9059 109.879 60.9059H121.031C121.821 60.9059 122.459 61.544 122.459 62.3343V88.0752H130.193C130.983 88.0752 131.621 88.7132 131.621 89.5036V107.147H135.514C136.305 107.147 136.943 107.785 136.943 108.576V113.037C136.943 114.898 136.135 116.584 134.829 117.802C133.553 118.99 131.797 119.734 129.877 119.734H113.585V127.139L116.682 129.838C117.53 129.276 118.549 128.948 119.644 128.948C121.125 128.948 122.465 129.551 123.437 130.517C124.409 131.489 125.006 132.829 125.006 134.31C125.006 135.791 124.403 137.132 123.437 138.104C122.465 139.076 121.125 139.673 119.644 139.673C118.163 139.673 116.822 139.076 115.85 138.104C114.879 137.132 114.281 135.791 114.281 134.31C114.281 133.479 114.469 132.695 114.808 131.992L111.255 128.895C110.933 128.632 110.734 128.234 110.734 127.789V119.734H99.9974V133.116C99.9974 133.561 99.7925 133.959 99.4763 134.223L95.9229 137.319C96.2624 138.022 96.4498 138.806 96.4498 139.638C96.4498 141.119 95.8468 142.459 94.8808 143.431C93.909 144.403 92.5684 145 91.0874 145C89.6065 145 88.2658 144.397 87.294 143.431C86.3223 142.459 85.7251 141.119 85.7251 139.638C85.7251 138.157 86.3222 136.816 87.294 135.844C88.2658 134.872 89.6065 134.275 91.0874 134.275C92.1821 134.275 93.2008 134.603 94.0497 135.165L97.1465 132.466V119.734L76.9027 119.728V125.12C77.8101 125.371 78.6179 125.851 79.2677 126.495C80.2395 127.467 80.8366 128.808 80.8366 130.289C80.8366 131.77 80.2337 133.11 79.2677 134.082C78.2959 135.054 76.9553 135.651 75.4743 135.651C73.9933 135.651 72.6526 135.048 71.6809 134.082C70.7091 133.11 70.112 131.77 70.112 130.289C70.112 128.808 70.7149 127.467 71.6809 126.495C72.3249 125.851 73.1386 125.365 74.0459 125.12V119.728H53.8141V132.461L56.9109 135.159C57.7598 134.597 58.7784 134.269 59.8732 134.269C61.3543 134.269 62.6948 134.872 63.6666 135.838C64.6384 136.81 65.2355 138.151 65.2355 139.632C65.2355 141.113 64.6325 142.453 63.6666 143.425C62.6948 144.397 61.3541 144.994 59.8732 144.994C58.3921 144.994 57.0515 144.391 56.0798 143.425C55.108 142.453 54.5108 141.113 54.5108 139.632C54.5108 138.801 54.6982 138.016 55.0377 137.314L51.4843 134.217C51.1681 133.953 50.9632 133.555 50.9632 133.11V119.728H40.2267V127.783C40.2267 128.228 40.0218 128.626 39.7057 128.889L36.1523 131.986C36.4918 132.689 36.6791 133.473 36.6791 134.305C36.6791 135.786 36.0762 137.126 35.1102 138.098C34.1384 139.07 32.7978 139.667 31.3168 139.667C29.8357 139.667 28.4951 139.07 27.5234 138.098C26.5516 137.126 25.9545 135.786 25.9545 134.305C25.9545 132.824 26.5516 131.483 27.5234 130.511C28.4952 129.539 29.8358 128.942 31.3168 128.942C32.4115 128.942 33.4302 129.27 34.279 129.832L37.3758 127.133V119.728L21.066 119.734C19.1399 119.734 17.3838 118.996 16.1134 117.802C14.8079 116.584 14 114.898 14 113.037V108.576C14 107.785 14.6444 107.148 15.4288 107.148ZM121.412 132.537C120.961 132.086 120.329 131.805 119.638 131.805C118.947 131.805 118.321 132.086 117.864 132.537C117.414 132.987 117.133 133.62 117.133 134.31C117.133 135.001 117.414 135.628 117.864 136.084C118.315 136.535 118.947 136.816 119.638 136.816C120.329 136.816 120.955 136.535 121.412 136.084C121.863 135.634 122.144 135.001 122.144 134.31C122.144 133.614 121.863 132.987 121.412 132.537ZM92.8552 137.858C92.4045 137.407 91.7722 137.126 91.0814 137.126C90.3906 137.126 89.7642 137.407 89.3076 137.858C88.8569 138.315 88.5759 138.941 88.5759 139.632C88.5759 140.323 88.8569 140.949 89.3076 141.406C89.7584 141.862 90.3906 142.137 91.0814 142.137C91.7722 142.137 92.3986 141.856 92.8552 141.406C93.306 140.955 93.587 140.329 93.587 139.632C93.587 138.941 93.306 138.315 92.8552 137.858ZM75.4799 127.789H75.4681C74.7774 127.795 74.1568 128.07 73.706 128.521C73.2553 128.971 72.9743 129.598 72.9743 130.295C72.9743 130.985 73.2553 131.612 73.706 132.068C74.1568 132.519 74.789 132.8 75.4798 132.8C76.1706 132.8 76.797 132.519 77.2536 132.068C77.7044 131.618 77.9854 130.985 77.9854 130.295C77.9854 129.604 77.7044 128.977 77.2536 128.521C76.7912 128.07 76.1706 127.789 75.4799 127.789ZM61.6348 137.858C61.1841 137.407 60.5518 137.126 59.861 137.126C59.1702 137.126 58.5439 137.407 58.0872 137.858C57.6365 138.315 57.3555 138.941 57.3555 139.632C57.3555 140.323 57.6365 140.949 58.0872 141.406C58.538 141.862 59.1702 142.137 59.861 142.137C60.5518 142.137 61.1782 141.856 61.6348 141.406C62.0856 140.955 62.3666 140.323 62.3666 139.632C62.3725 138.941 62.0915 138.315 61.6348 137.858ZM33.084 132.537C32.6332 132.086 32.001 131.805 31.3102 131.805C30.6194 131.805 29.993 132.086 29.5364 132.537C29.0856 132.987 28.8046 133.62 28.8046 134.31C28.8046 135.001 29.0856 135.628 29.5364 136.084C29.9872 136.535 30.6194 136.816 31.3102 136.816C32.001 136.816 32.6274 136.535 33.084 136.084C33.5348 135.634 33.8158 135.001 33.8158 134.31C33.8158 133.614 33.5348 132.987 33.084 132.537ZM68.9348 100.286H70.6911C71.4814 100.286 72.1194 99.6476 72.1194 98.8573C72.1194 98.067 71.4814 97.4289 70.6911 97.4289H68.9348C68.1445 97.4289 67.5064 98.067 67.5064 98.8573C67.5064 99.6476 68.1445 100.286 68.9348 100.286ZM63.3968 100.286H65.1531C65.9434 100.286 66.5815 99.6476 66.5815 98.8573C66.5815 98.067 65.9434 97.4289 65.1531 97.4289H63.3968C62.6065 97.4289 61.9684 98.067 61.9684 98.8573C61.9684 99.6476 62.6065 100.286 63.3968 100.286ZM68.9348 92.0548H70.6911C71.4814 92.0548 72.1194 91.4167 72.1194 90.6264C72.1194 89.8361 71.4814 89.1979 70.6911 89.1979H68.9348C68.1445 89.1979 67.5064 89.836 67.5064 90.6264C67.5064 91.4167 68.1445 92.0548 68.9348 92.0548ZM63.3968 92.0548H65.1531C65.9434 92.0548 66.5815 91.4167 66.5815 90.6264C66.5815 89.8361 65.9434 89.1979 65.1531 89.1979H63.3968C62.6065 89.1979 61.9684 89.836 61.9684 90.6264C61.9684 91.4167 62.6065 92.0548 63.3968 92.0548ZM68.9348 83.8238H70.6911C71.4814 83.8238 72.1194 83.1858 72.1194 82.3955C72.1194 81.6052 71.4814 80.9671 70.6911 80.9671H68.9348C68.1445 80.9671 67.5064 81.6052 67.5064 82.3955C67.5064 83.1858 68.1445 83.8238 68.9348 83.8238ZM63.3968 83.8238H65.1531C65.9434 83.8238 66.5815 83.1858 66.5815 82.3955C66.5815 81.6052 65.9434 80.9671 65.1531 80.9671H63.3968C62.6065 80.9671 61.9684 81.6052 61.9684 82.3955C61.9684 83.1858 62.6065 83.8238 63.3968 83.8238ZM68.9348 75.5929H70.6911C71.4814 75.5929 72.1194 74.9549 72.1194 74.1645C72.1194 73.3742 71.4814 72.7361 70.6911 72.7361H68.9348C68.1445 72.7361 67.5064 73.3742 67.5064 74.1645C67.5064 74.9548 68.1445 75.5929 68.9348 75.5929ZM63.3968 75.5929H65.1531C65.9434 75.5929 66.5815 74.9549 66.5815 74.1645C66.5815 73.3742 65.9434 72.7361 65.1531 72.7361H63.3968C62.6065 72.7361 61.9684 73.3742 61.9684 74.1645C61.9684 74.9548 62.6065 75.5929 63.3968 75.5929ZM68.9348 67.362H70.6911C71.4814 67.362 72.1194 66.7239 72.1194 65.9336C72.1194 65.1433 71.4814 64.5052 70.6911 64.5052H68.9348C68.1445 64.5052 67.5064 65.1433 67.5064 65.9336C67.5064 66.7181 68.1445 67.362 68.9348 67.362ZM63.3968 67.362H65.1531C65.9434 67.362 66.5815 66.7239 66.5815 65.9336C66.5815 65.1433 65.9434 64.5052 65.1531 64.5052H63.3968C62.6065 64.5052 61.9684 65.1433 61.9684 65.9336C61.9684 66.7181 62.6065 67.362 63.3968 67.362ZM91.4081 98.8458H93.4396C94.2299 98.8458 94.868 98.2077 94.868 97.4174C94.868 96.6271 94.2299 95.9889 93.4396 95.9889H91.4081C90.6178 95.9889 89.9797 96.627 89.9797 97.4174C89.9797 98.2077 90.6178 98.8458 91.4081 98.8458ZM84.9979 98.8458H87.0294C87.8197 98.8458 88.4578 98.2077 88.4578 97.4174C88.4578 96.6271 87.8197 95.9889 87.0294 95.9889H84.9979C84.2076 95.9889 83.5696 96.627 83.5696 97.4174C83.5696 98.2077 84.2076 98.8458 84.9979 98.8458ZM91.4081 90.6149H93.4396C94.2299 90.6149 94.868 89.9768 94.868 89.1865C94.868 88.3962 94.2299 87.7581 93.4396 87.7581H91.4081C90.6178 87.7581 89.9797 88.3962 89.9797 89.1865C89.9797 89.9768 90.6178 90.6149 91.4081 90.6149ZM84.9979 90.6149H87.0294C87.8197 90.6149 88.4578 89.9768 88.4578 89.1865C88.4578 88.3962 87.8197 87.7581 87.0294 87.7581H84.9979C84.2076 87.7581 83.5696 88.3962 83.5696 89.1865C83.5696 89.9768 84.2076 90.6149 84.9979 90.6149ZM91.4081 82.3839H93.4396C94.2299 82.3839 94.868 81.7458 94.868 80.9555C94.868 80.1652 94.2299 79.5271 93.4396 79.5271H91.4081C90.6178 79.5271 89.9797 80.1652 89.9797 80.9555C89.9797 81.74 90.6178 82.3839 91.4081 82.3839ZM84.9979 82.3839H87.0294C87.8197 82.3839 88.4578 81.7458 88.4578 80.9555C88.4578 80.1652 87.8197 79.5271 87.0294 79.5271H84.9979C84.2076 79.5271 83.5696 80.1652 83.5696 80.9555C83.5696 81.74 84.2076 82.3839 84.9979 82.3839ZM91.4081 74.1472H93.4396C94.2299 74.1472 94.868 73.5091 94.868 72.7188C94.868 71.9285 94.2299 71.2904 93.4396 71.2904H91.4081C90.6178 71.2904 89.9797 71.9285 89.9797 72.7188C89.9797 73.5091 90.6178 74.1472 91.4081 74.1472ZM84.9979 74.1472H87.0294C87.8197 74.1472 88.4578 73.5091 88.4578 72.7188C88.4578 71.9285 87.8197 71.2904 87.0294 71.2904H84.9979C84.2076 71.2904 83.5696 71.9285 83.5696 72.7188C83.5696 73.5091 84.2076 74.1472 84.9979 74.1472ZM91.4081 65.9163H93.4396C94.2299 65.9163 94.868 65.2782 94.868 64.4879C94.868 63.6976 94.2299 63.0595 93.4396 63.0595H91.4081C90.6178 63.0595 89.9797 63.6976 89.9797 64.4879C89.9797 65.2782 90.6178 65.9163 91.4081 65.9163ZM84.9979 65.9163H87.0294C87.8197 65.9163 88.4578 65.2782 88.4578 64.4879C88.4578 63.6976 87.8197 63.0595 87.0294 63.0595H84.9979C84.2076 63.0595 83.5696 63.6976 83.5696 64.4879C83.5696 65.2782 84.2076 65.9163 84.9979 65.9163ZM91.4081 57.6854H93.4396C94.2299 57.6854 94.868 57.0473 94.868 56.257C94.868 55.4667 94.2299 54.8286 93.4396 54.8286H91.4081C90.6178 54.8286 89.9797 55.4667 89.9797 56.257C89.9797 57.0473 90.6178 57.6854 91.4081 57.6854ZM84.9979 57.6854H87.0294C87.8197 57.6854 88.4578 57.0473 88.4578 56.257C88.4578 55.4667 87.8197 54.8286 87.0294 54.8286H84.9979C84.2076 54.8286 83.5696 55.4667 83.5696 56.257C83.5696 57.0473 84.2076 57.6854 84.9979 57.6854ZM106.618 32.1259H112.161C112.952 32.1259 113.59 32.764 113.59 33.5543C113.59 34.3446 112.952 34.9827 112.161 34.9827H106.618C106.776 35.3924 106.998 35.7554 107.273 36.0598C107.8 36.6511 108.526 37.014 109.31 37.014H131.129C131.914 37.014 132.64 36.6452 133.167 36.0598C133.734 35.4276 134.086 34.5378 134.086 33.5542C134.086 32.5356 133.752 31.6341 133.19 31.0019C132.687 30.4399 131.972 30.0886 131.129 30.0886H130.743C130.269 30.0886 129.841 29.8896 129.519 29.5676C129.238 29.2807 129.051 28.8885 129.022 28.4495V28.4436C128.963 27.5538 128.571 26.8279 127.997 26.3068C127.494 25.8502 126.856 25.5399 126.177 25.3936C125.492 25.2472 124.789 25.2648 124.151 25.4755C123.455 25.7038 122.84 26.1663 122.459 26.8981C122.272 27.2552 121.985 27.5128 121.652 27.665C121.341 27.7996 121.008 27.8464 120.68 27.7879C120.639 27.782 120.592 27.7703 120.545 27.7586C120.188 27.6708 119.878 27.4659 119.644 27.1908C119.439 26.939 119.298 26.6288 119.251 26.2893C119.082 24.9955 118.496 23.8598 117.653 23.046C116.863 22.2908 115.844 21.8284 114.732 21.8284C114.439 21.8284 114.164 21.8518 113.907 21.9045C112.748 22.1211 111.67 22.7767 110.88 23.7133C110.09 24.6499 109.586 25.8618 109.586 27.1965C109.586 27.5419 109.616 27.8814 109.68 28.2151C109.756 28.6249 109.686 29.0406 109.499 29.3801C109.323 29.7079 109.048 29.9772 108.708 30.1353C108.65 30.1645 108.585 30.188 108.527 30.2114C107.912 30.4163 107.374 30.8436 106.987 31.4173C106.841 31.6339 106.717 31.8741 106.618 32.1259ZM116.716 34.9826H118.021C118.812 34.9826 119.45 34.3445 119.45 33.5542C119.45 32.7639 118.812 32.1258 118.021 32.1258H116.716C115.926 32.1258 115.287 32.7639 115.287 33.5542C115.287 34.3386 115.926 34.9826 116.716 34.9826ZM109.31 39.8766H131.129C132.757 39.8766 134.226 39.1448 135.286 37.9624C136.31 36.8208 136.942 35.2636 136.942 33.5542C136.942 31.8332 136.339 30.2525 135.309 29.105C134.396 28.0864 133.167 27.4073 131.727 27.2609C131.44 26.014 130.784 24.9837 129.918 24.1992C129.034 23.3972 127.927 22.8527 126.768 22.601C125.615 22.3551 124.391 22.3961 123.273 22.7591C122.629 22.9698 122.02 23.2859 121.482 23.7074C121.043 22.6654 120.411 21.7405 119.632 20.9911C118.327 19.7325 116.617 18.9714 114.732 18.9714C114.287 18.9714 113.836 19.0182 113.38 19.1002C111.571 19.4397 109.908 20.4408 108.697 21.8692C107.485 23.2976 106.724 25.1534 106.724 27.1907C106.724 27.4131 106.735 27.6356 106.753 27.8698C105.898 28.3264 105.167 29.0054 104.61 29.8309C103.908 30.8788 103.492 32.1667 103.492 33.5425C103.492 35.246 104.124 36.8091 105.149 37.9506C106.214 39.139 107.683 39.8766 109.31 39.8766ZM29.3378 21.5181C30.8715 21.2605 32.5049 21.1259 34.1909 21.1259C35.8769 21.1259 37.5101 21.2605 39.044 21.5181V17.6017H29.3378V21.5181ZM28.3134 24.6324C28.2665 24.6442 28.2138 24.6559 28.167 24.6676C26.6625 25.0305 25.3103 25.5223 24.1627 26.1252C22.5938 26.939 21.4406 27.9283 20.8786 28.988L47.4977 28.9821C46.9415 27.9225 45.7883 26.939 44.2135 26.1194C43.0661 25.5223 41.7138 25.0247 40.2093 24.6617C40.1566 24.65 40.1098 24.6442 40.0629 24.6266C38.2774 24.211 36.2871 23.9768 34.1854 23.9768C32.0896 23.9768 30.0988 24.2109 28.3134 24.6324ZM47.4976 31.8389H20.8785C21.4347 32.8985 22.5879 33.882 24.1627 34.7016C26.7033 36.0246 30.251 36.8442 34.1908 36.8442C38.1306 36.8442 41.6782 36.0246 44.2189 34.7016C45.7878 33.882 46.9415 32.8986 47.4976 31.8389ZM31.4335 39.5722L25.8897 87.0615H32.3936V70.9855C32.3936 70.1952 33.0317 69.5571 33.822 69.5571H40.7591L37.2525 39.5436C36.2574 39.6431 35.2328 39.6958 34.1908 39.6958C33.2483 39.6958 32.3291 39.6542 31.4335 39.5722ZM119.602 88.0731V63.7605H111.307V107.145H115.856V89.5014C115.856 88.7111 116.494 88.0729 117.284 88.0729L119.602 88.0731ZM118.712 107.146H128.77L128.764 90.9311H118.707L118.712 107.146ZM99.1895 85.5449V107.146H108.451V85.5449H99.1895ZM82.1124 107.146H96.3321V50.9815L82.1124 37.8273V107.146ZM61.1717 84.1167V107.146H72.9092V58.2409L61.1717 62.4734V84.1167ZM49.0537 85.5451V107.147H58.315V85.5451H49.0537ZM35.2498 87.0613H39.6052C40.3955 87.0613 41.0336 87.6994 41.0336 88.4897V107.14H46.1969V72.4136H35.2497L35.2498 87.0613ZM22.1833 107.146H38.183L38.1771 89.9177H22.1775L22.1833 107.146ZM134.091 110.003H16.8616V113.035C16.8616 114.077 17.3182 115.02 18.0617 115.711C18.8286 116.425 19.8941 116.87 21.0765 116.87L129.876 116.876C131.058 116.876 132.124 116.431 132.891 115.717C133.628 115.026 134.091 114.077 134.091 113.041L134.091 110.003Z" fill="#663366"/>
</svg>
