<svg width="150" height="150" viewBox="0 0 150 150" fill="none" xmlns="http://www.w3.org/2000/svg">
<path d="M75.0006 27.3311C65.573 27.3311 56.3572 30.1267 48.5185 35.3643C40.6797 40.602 34.5702 48.0465 30.9624 56.7564C27.3546 65.4664 26.4107 75.0505 28.2499 84.2969C30.0891 93.5433 34.6289 102.037 41.2952 108.703C47.9615 115.369 56.4549 119.909 65.7013 121.748C74.9477 123.588 84.5319 122.644 93.2418 119.036C101.952 115.428 109.396 109.318 114.634 101.48C119.872 93.641 122.667 84.4252 122.667 74.9976C122.653 62.3601 117.626 50.2442 108.69 41.3081C99.754 32.372 87.6381 27.3454 75.0006 27.3311ZM75.0006 118.331C66.4301 118.331 58.052 115.789 50.9259 111.028C43.7998 106.266 38.2457 99.4987 34.9659 91.5805C31.6861 83.6624 30.8279 74.9496 32.5 66.5437C34.172 58.1379 38.2991 50.4167 44.3593 44.3564C50.4196 38.2961 58.1409 34.169 66.5467 32.497C74.9525 30.825 83.6654 31.6831 91.5835 34.9629C99.5016 38.2427 106.269 43.7969 111.031 50.923C115.792 58.0491 118.334 66.4271 118.334 74.9976C118.321 86.4863 113.751 97.5006 105.627 105.624C97.5036 113.748 86.4892 118.318 75.0006 118.331Z" fill="#663366"/>
<path d="M136.099 85.4131C137.09 85.0156 137.955 84.3546 138.598 83.5015C139.242 82.6484 139.64 81.6357 139.749 80.5728C140.087 76.8595 140.087 73.1234 139.749 69.4101C139.637 68.3481 139.238 67.3368 138.593 66.4854C137.949 65.6339 137.084 64.9746 136.092 64.5785L129.835 62.0781C128.447 56.1707 126.105 50.529 122.901 45.3753L125.549 39.1744C125.989 38.1905 126.142 37.1028 125.991 36.0358C125.841 34.9689 125.392 33.9661 124.698 33.1424C122.315 30.31 119.693 27.6881 116.861 25.3055C116.039 24.6086 115.037 24.1576 113.971 24.0043C112.904 23.851 111.816 24.0016 110.831 24.4389L104.621 27.0995C99.4677 23.8959 93.826 21.554 87.9186 20.1662L85.4139 13.8981C85.0168 12.9069 84.356 12.0434 83.5032 11.401C82.6504 10.7586 81.638 10.3618 80.5757 10.2537C76.8662 9.91542 73.1335 9.91542 69.4239 10.2537C68.3591 10.3618 67.3443 10.76 66.4901 11.4049C65.6359 12.0497 64.9749 12.9166 64.5793 13.9111L62.0789 20.1684C56.1715 21.5562 50.5298 23.898 45.3761 27.1017L39.1751 24.4519C38.1906 24.0133 37.1025 23.8607 36.0354 24.0117C34.9682 24.1627 33.9652 24.611 33.141 25.3055C30.3091 27.6886 27.6872 30.3105 25.3042 33.1424C24.6098 33.9653 24.1614 34.9673 24.0104 36.0334C23.8594 37.0995 24.0119 38.1866 24.4505 39.17L27.1003 45.3753C23.8966 50.529 21.5548 56.1707 20.167 62.0781L13.8988 64.5828C12.9077 64.9799 12.0442 65.6407 11.4018 66.4935C10.7594 67.3463 10.3626 68.3587 10.2545 69.421C9.91516 73.1305 9.91516 76.8633 10.2545 80.5728C10.3626 81.6376 10.7608 82.6524 11.4057 83.5066C12.0505 84.3608 12.9174 85.0217 13.9118 85.4174L20.1692 87.9178C21.557 93.8252 23.8988 99.4669 27.1025 104.621L24.4527 110.822C24.0124 111.805 23.8588 112.893 24.0094 113.96C24.16 115.027 24.6088 116.03 25.3042 116.854C27.6874 119.687 30.3101 122.309 33.1431 124.693C33.9661 125.387 34.9681 125.835 36.0342 125.986C37.1003 126.137 38.1874 125.985 39.1708 125.546L45.3761 122.896C50.5298 126.1 56.1715 128.442 62.0789 129.83L64.5836 136.098C64.9811 137.09 65.6421 137.954 66.4952 138.597C67.3483 139.241 68.361 139.639 69.4239 139.749C71.3284 139.918 73.2697 140 75.1591 140C77.0484 140 78.8879 139.918 80.5757 139.749C81.6398 139.638 82.6534 139.239 83.507 138.594C84.3605 137.949 85.0214 137.083 85.4182 136.089L87.9186 129.832C93.826 128.444 99.4677 126.102 104.621 122.899L110.822 125.546C111.806 125.986 112.894 126.14 113.961 125.989C115.028 125.839 116.031 125.39 116.854 124.695C119.687 122.313 122.309 119.691 124.691 116.858C125.387 116.035 125.836 115.033 125.988 113.966C126.139 112.9 125.986 111.812 125.547 110.828L122.897 104.623C126.101 99.469 128.443 93.8274 129.83 87.9199L136.099 85.4131ZM125.848 85.8768C124.531 92.0582 122.09 97.9453 118.646 103.245C118.453 103.543 118.335 103.884 118.305 104.238C118.274 104.592 118.331 104.948 118.471 105.275L121.567 112.531C121.686 112.778 121.731 113.054 121.698 113.326C121.664 113.598 121.553 113.854 121.378 114.065C119.148 116.717 116.693 119.172 114.04 121.401C113.829 121.57 113.574 121.675 113.305 121.703C113.036 121.731 112.765 121.681 112.523 121.56L105.271 118.466C104.945 118.326 104.588 118.269 104.234 118.3C103.88 118.33 103.539 118.448 103.241 118.641C97.9417 122.085 92.0547 124.526 85.8732 125.843C85.5252 125.917 85.2008 126.076 84.9287 126.305C84.6566 126.535 84.4452 126.828 84.3132 127.158L81.3926 134.469C81.2942 134.725 81.1279 134.95 80.9115 135.12C80.6951 135.289 80.4368 135.397 80.1641 135.431C76.7175 135.743 73.2497 135.743 69.8031 135.431C69.5362 135.393 69.2841 135.285 69.0728 135.118C68.8614 134.951 68.6984 134.73 68.6006 134.479L65.6821 127.158C65.5501 126.828 65.3387 126.535 65.0666 126.305C64.7945 126.076 64.4701 125.917 64.1221 125.843C57.9406 124.526 52.0536 122.085 46.7541 118.641C46.4565 118.446 46.1154 118.329 45.7611 118.298C45.4069 118.267 45.0505 118.325 44.724 118.466L37.4678 121.562C37.2208 121.679 36.9454 121.724 36.6738 121.691C36.4022 121.658 36.1455 121.549 35.9338 121.375C33.2821 119.144 30.8276 116.688 28.5975 114.035C28.4302 113.823 28.3266 113.568 28.2986 113.299C28.2706 113.031 28.3194 112.76 28.4393 112.518L31.5333 105.266C31.6728 104.939 31.7297 104.583 31.6991 104.229C31.6685 103.875 31.5513 103.534 31.3578 103.236C27.9139 97.9366 25.4727 92.0496 24.1558 85.8681C24.0816 85.5201 23.9228 85.1957 23.6934 84.9236C23.464 84.6515 23.1711 84.4401 22.8407 84.3081L15.5282 81.3961C15.272 81.2974 15.0474 81.131 14.8783 80.9146C14.7093 80.6983 14.6022 80.4401 14.5683 80.1676C14.2529 76.7204 14.2529 73.2516 14.5683 69.8045C14.6059 69.5382 14.7136 69.2868 14.8804 69.0758C15.0471 68.8649 15.267 68.7021 15.5173 68.6041L22.8385 65.6813C23.169 65.5493 23.4618 65.3379 23.6912 65.0658C23.9206 64.7937 24.0794 64.4693 24.1537 64.1213C25.4706 57.9398 27.9117 52.0528 31.3557 46.7533C31.5491 46.4553 31.6664 46.1142 31.697 45.7602C31.7276 45.4061 31.6706 45.05 31.5311 44.7232L28.435 37.4649C28.3169 37.2179 28.2717 36.9424 28.3047 36.6707C28.3377 36.399 28.4476 36.1423 28.6213 35.9309C30.8528 33.2804 33.308 30.8267 35.9598 28.5967C36.1714 28.4289 36.4263 28.3247 36.6949 28.2963C36.9634 28.2679 37.2345 28.3165 37.4765 28.4364L44.7283 31.5304C45.0551 31.6698 45.4113 31.7268 45.7653 31.6962C46.1193 31.6656 46.4604 31.5484 46.7585 31.3549C52.0579 27.911 57.9449 25.4698 64.1264 24.1529C64.4745 24.0786 64.7988 23.9198 65.0709 23.6904C65.343 23.461 65.5544 23.1682 65.6864 22.8377L68.6071 15.5274C68.7058 15.2712 68.8722 15.0466 69.0886 14.8775C69.3049 14.7085 69.5631 14.6014 69.8356 14.5676C73.2828 14.2532 76.7515 14.2532 80.1987 14.5676C80.465 14.6051 80.7164 14.7128 80.9273 14.8796C81.1383 15.0463 81.3011 15.2662 81.3991 15.5166L84.3154 22.8377C84.4474 23.1682 84.6588 23.461 84.9309 23.6904C85.203 23.9198 85.5274 24.0786 85.8754 24.1529C92.0569 25.4698 97.9439 27.911 103.243 31.3549C103.541 31.5484 103.882 31.6656 104.237 31.6962C104.591 31.7268 104.947 31.6698 105.274 31.5304L112.53 28.4342C112.777 28.3166 113.052 28.2717 113.324 28.3047C113.595 28.3377 113.852 28.4472 114.064 28.6205C116.715 30.8515 119.168 33.3068 121.398 35.959C121.565 36.1709 121.669 36.4258 121.697 36.6942C121.725 36.9626 121.677 37.2335 121.558 37.4757L118.464 44.7275C118.325 45.0543 118.268 45.4105 118.298 45.7645C118.329 46.1185 118.446 46.4596 118.64 46.7577C122.084 52.0572 124.525 57.9442 125.842 64.1256C125.916 64.4737 126.075 64.7981 126.304 65.0701C126.533 65.3422 126.826 65.5536 127.157 65.6856L134.467 68.6063C134.72 68.7033 134.943 68.8664 135.112 69.0786C135.281 69.2909 135.389 69.5445 135.427 69.8131V69.8348C135.739 73.2814 135.739 76.7492 135.427 80.1958C135.39 80.4626 135.282 80.7147 135.115 80.9261C134.947 81.1374 134.727 81.3004 134.476 81.3983L127.159 84.3146C126.828 84.4468 126.535 84.6585 126.306 84.931C126.076 85.2035 125.918 85.5283 125.844 85.8768H125.848Z" fill="#663366"/>
<path d="M75 40.3311C62.0801 40.3311 49 44.0534 49 51.1644V64.3138C49 64.6258 49.0455 64.9183 49.0542 65.226C49.0476 65.3782 49.0563 65.5306 49.0802 65.681C49.2403 70.2343 50.6478 74.6562 53.1492 78.4643C53.1911 78.5392 53.2374 78.6115 53.2878 78.681C55.5247 81.9393 58.4333 84.6809 61.818 86.7215C65.6875 89.1482 68.805 92.6044 70.8213 96.7028C72.8376 100.801 73.6731 105.38 73.2341 109.926C73.1608 110.557 73.2536 111.197 73.5032 111.781C73.7528 112.365 74.1507 112.874 74.6574 113.257C75.1641 113.641 75.7621 113.885 76.3922 113.966C77.0223 114.047 77.6627 113.963 78.2499 113.72C82.1218 112.13 90.8166 106.865 87.9501 92.3873C85.9156 82.0956 88.9208 78.4145 92.7167 73.754C95.5388 70.7345 97.726 67.1793 99.1488 63.2991C100.572 59.4188 101.201 55.2924 101 51.1644C101 44.0534 87.9198 40.3311 75 40.3311ZM85.2938 76.7678C83.3175 77.0274 81.3265 77.1599 79.3333 77.1643C78.7586 77.1643 78.2075 77.3926 77.8012 77.7989C77.3949 78.2052 77.1666 78.7563 77.1666 79.331C77.1666 79.9056 77.3949 80.4567 77.8012 80.863C78.2075 81.2694 78.7586 81.4976 79.3333 81.4976C80.7763 81.4976 82.1846 81.4326 83.5626 81.3221C82.7425 85.2575 82.792 89.3246 83.7078 93.2388C85.5993 102.792 81.6884 107.209 77.6411 109.25C77.9787 104.117 76.9161 98.9878 74.5666 94.411C75.4333 94.4543 76.2869 94.4976 77.1666 94.4976C77.7412 94.4976 78.2924 94.2694 78.6987 93.863C79.105 93.4567 79.3333 92.9056 79.3333 92.331C79.3333 91.7563 79.105 91.2052 78.6987 90.7989C78.2924 90.3926 77.7412 90.1643 77.1666 90.1643C75.322 90.1574 73.4794 90.0431 71.6481 89.822C69.5558 87.1238 66.9961 84.8232 64.0908 83.0295C63.1081 82.4173 62.1671 81.7406 61.2741 81.0036C63.6686 81.3336 66.0829 81.4986 68.5 81.4976C69.0746 81.4976 69.6257 81.2694 70.032 80.863C70.4384 80.4567 70.6666 79.9056 70.6666 79.331C70.6666 78.7563 70.4384 78.2052 70.032 77.7989C69.6257 77.3926 69.0746 77.1643 68.5 77.1643C64.4396 77.1708 60.3958 76.6478 56.4707 75.6087C55.1314 73.4414 54.2139 71.0405 53.7667 68.5323C58.5468 69.961 63.5109 70.6793 68.5 70.6643C69.0746 70.6643 69.6257 70.4361 70.032 70.0297C70.4384 69.6234 70.6666 69.0723 70.6666 68.4977C70.6666 67.923 70.4384 67.3719 70.032 66.9656C69.6257 66.5593 69.0746 66.331 68.5 66.331C63.3404 66.3574 58.2132 65.5151 53.3333 63.8393V57.4065C54.1898 57.9286 55.0843 58.3856 56.0092 58.7737L56.0633 58.7975C62.1175 61.0479 68.5425 62.1336 75 61.9977C81.4574 62.1336 87.8824 61.0479 93.9366 58.7975L93.9907 58.7737C94.7183 58.4716 95.4287 58.1295 96.1184 57.7489C95.7497 59.881 95.0991 61.9546 94.1836 63.9152C89.4032 65.5446 84.3836 66.3612 79.3333 66.331C78.7586 66.331 78.2075 66.5593 77.8012 66.9656C77.3949 67.3719 77.1666 67.923 77.1666 68.4977C77.1666 69.0723 77.3949 69.6234 77.8012 70.0297C78.2075 70.4361 78.7586 70.6643 79.3333 70.6643C83.1526 70.6627 86.9598 70.2354 90.6844 69.3903C90.2511 69.9407 89.8178 70.4737 89.3844 71.0132C87.8359 72.793 86.4658 74.7204 85.2938 76.7678ZM93.6332 54.1522C90.1704 51.606 86.1018 50.0098 81.8314 49.522C81.5502 49.4782 81.2631 49.4902 80.9864 49.5574C80.7098 49.6245 80.4491 49.7455 80.2193 49.9134C79.9894 50.0813 79.7949 50.2928 79.6468 50.5359C79.4986 50.779 79.3998 51.0489 79.356 51.3301C79.3122 51.6114 79.3242 51.8985 79.3914 52.1751C79.4585 52.4517 79.5795 52.7124 79.7474 52.9423C79.9153 53.1722 80.1268 53.3667 80.3699 53.5148C80.613 53.6629 80.8829 53.7617 81.1641 53.8055C83.7344 54.1713 86.2357 54.9191 88.5849 56.0242C84.1467 57.1567 79.5802 57.708 75 57.6644C70.419 57.7082 65.8517 57.1569 61.4128 56.0242C63.7621 54.9191 66.2633 54.1713 68.8336 53.8055C69.4017 53.717 69.9113 53.4065 70.2503 52.9423C70.5894 52.4781 70.7302 51.8981 70.6417 51.3301C70.5532 50.7621 70.2427 50.2525 69.7785 49.9134C69.3142 49.5743 68.7343 49.4335 68.1663 49.522C63.8967 50.0102 59.8289 51.6064 56.3667 54.1522C54.4167 53.1447 53.3333 52.0722 53.3333 51.1644C53.3333 48.5774 61.974 44.6644 75 44.6644C88.0259 44.6644 96.6666 48.5774 96.6666 51.1644C96.6666 52.0722 95.5832 53.1447 93.6332 54.1522Z" fill="#663366"/>
</svg>
