<svg width="150" height="150" viewBox="0 0 150 150" fill="none" xmlns="http://www.w3.org/2000/svg">
<path d="M82.5438 49H58.7104V53.3333H82.5438V49Z" fill="#663366"/>
<path d="M84.7103 38.166H60.877V42.4993H84.7103V38.166Z" fill="#663366"/>
<path d="M82.5438 27.334H58.7104V31.6673H82.5438V27.334Z" fill="#663366"/>
<path d="M28.377 46.834H45.7103V42.5007H28.377C27.1853 42.5007 26.2103 41.5257 26.2103 40.334C26.2103 39.1423 27.1853 38.1673 28.377 38.1673H45.7103V33.834H28.377C24.7749 33.834 21.877 36.7319 21.877 40.334C21.877 43.9361 24.7749 46.834 28.377 46.834Z" fill="#663366"/>
<path d="M63.0438 92.3337H53.1583L58.5479 77.9254C58.9813 76.815 58.4125 75.5691 57.275 75.1358C56.5708 74.865 55.7854 75.0004 55.1896 75.4337L27.0229 97.1004C26.075 97.8317 25.8854 99.1858 26.6167 100.134C27.0229 100.675 27.6729 100.973 28.3229 100.973H38.2084L32.8188 115.382C32.3854 116.492 32.9542 117.738 34.0917 118.171C34.7958 118.442 35.5813 118.307 36.1771 117.873L64.3438 96.2066C65.2917 95.4754 65.4813 94.1212 64.75 93.1733C64.3438 92.6587 63.7208 92.3337 63.0438 92.3337ZM39.5625 109.83L43.4083 99.5921C43.8417 98.4816 43.2729 97.2358 42.1354 96.8025C41.8917 96.7212 41.6479 96.6671 41.3771 96.6671H34.7417L51.8583 83.5046L48.0125 93.7421C47.5792 94.8525 48.1479 96.0983 49.2854 96.5317C49.5292 96.6129 49.7729 96.6671 50.0438 96.6671H56.6792L39.5625 109.83Z" fill="#663366"/>
<path d="M121.544 76.1104V46.8333H125.877V51.1667H130.21V29.5H125.877V33.8333H121.544V20.8333C121.544 20.2646 121.327 19.6958 120.921 19.2896L112.254 10.6229C111.848 10.2167 111.306 10 110.71 10H80.3771C79.8083 10 79.2396 10.2167 78.8333 10.6229L70.8167 18.6667H45.7104C41.7292 18.6667 38.3708 22.3771 36.4208 28.8771L40.5646 30.1229C42.0542 25.1938 44.2208 23 45.7104 23C47.0646 23 48.6354 24.7063 49.8542 27.4146C51.3708 30.8271 52.2104 35.4042 52.2104 40.3333C52.2104 50.9229 48.3646 57.6667 45.7104 57.6667C44.2208 57.6667 42.0542 55.4729 40.5917 50.5438L36.4479 51.7896C36.8542 53.1708 37.3687 54.525 38.0187 55.825L33.7937 60.0229L30.3542 56.5833L32.0604 54.8771L29 51.8167L16 64.8167L19.0604 67.8771L21.8771 65.0604L25.3167 68.5L18.1938 75.6229C17.7875 76.0292 17.5708 76.5708 17.5708 77.1667V129.167C17.5708 129.735 17.7875 130.304 18.1938 130.71L26.8604 139.377C27.2667 139.783 27.8083 140 28.4042 140H104.237C104.806 140 105.375 139.783 105.781 139.377L114.448 130.71C114.8 130.358 115.044 129.871 115.071 129.356C130.725 123.398 138.552 105.875 132.594 90.2208C130.373 84.5063 126.554 79.6042 121.544 76.1104ZM121.544 38.1667H125.877V42.5H121.544V38.1667ZM52.3729 23H82.5437C83.8979 23 85.4687 24.7063 86.6875 27.4146C88.2042 30.8271 89.0437 35.4042 89.0437 40.3333C89.0437 50.9229 85.1979 57.6667 82.5437 57.6667H52.3729C54.9458 53.7667 56.5437 47.5917 56.5437 40.3333C56.5437 33.075 54.9458 26.9 52.3729 23ZM24.9375 62L27.2937 59.6438L30.7333 63.0833L28.3771 65.4396L24.9375 62ZM103.317 135.667H29.2708L21.8771 128.273V78.0604L40.4562 59.4813C42 61.1063 43.7875 62 45.7104 62H94C97.0875 62 99.8229 59.5083 101.692 54.9583C103.317 51.0313 104.21 45.8313 104.21 40.3333C104.21 34.8354 103.317 29.6625 101.692 25.7083C99.8229 21.1583 97.0875 18.6667 94 18.6667H76.9375L81.2708 14.3333H109.817L117.21 21.7271V73.5917C108.002 69.2313 97.25 69.7729 88.5292 75.0271L67.5937 72.8333C66.4021 72.6979 65.3458 73.5646 65.2104 74.7563C65.1562 75.2708 65.2917 75.8125 65.5896 76.2458L75.7187 90.4646C69.9229 106.2 77.9667 123.642 93.675 129.465C97.0333 130.71 100.581 131.333 104.156 131.333C105.375 131.333 106.594 131.252 107.812 131.117L103.317 135.667ZM93.3229 38.1667C93.2417 35.9729 92.9708 33.8063 92.5375 31.6667H98.9833C99.4438 33.8063 99.7146 35.9729 99.8229 38.1667H93.3229ZM99.8229 42.5C99.7417 44.6938 99.4438 46.8604 98.9833 49H92.5375C92.9708 46.8604 93.2417 44.6938 93.3229 42.5H99.8229ZM91.3187 27.3333C90.7771 25.8167 90.0729 24.3542 89.1792 23H93.9729C95.1104 23 96.5458 24.7063 97.6562 27.3333H91.3187ZM91.3187 53.3333H97.6562C96.5729 55.9604 95.1104 57.6667 93.9729 57.6667H89.1792C90.0729 56.3125 90.7771 54.85 91.3187 53.3333ZM104.21 127C89.8292 127 78.2104 115.327 78.2104 100.973C78.2104 97.5604 78.8875 94.175 80.2146 91.0063C80.5125 90.3021 80.4042 89.5167 79.9708 88.9208L71.9271 77.6542L88.8 79.4146C89.2875 79.4687 89.775 79.3604 90.1813 79.0896C102.288 71.3708 118.348 74.8917 126.094 86.9979C133.84 99.1042 130.292 115.165 118.185 122.91C114.015 125.592 109.167 127 104.21 127Z" fill="#663366"/>
<path d="M109.573 83.9098C108.869 83.5306 108.002 83.5848 107.352 84.0181L94.8938 92.3327H86.8771C85.6854 92.3327 84.7104 93.3077 84.7104 94.4994V107.499C84.7104 108.691 85.6854 109.666 86.8771 109.666H94.8938L107.352 117.981C108.354 118.658 109.681 118.387 110.358 117.385C110.602 117.033 110.71 116.599 110.71 116.193V85.8327C110.71 85.0202 110.277 84.289 109.573 83.9098ZM106.377 112.131L96.7354 105.712C96.3834 105.468 95.95 105.36 95.5438 105.36H89.0438V96.6931H95.5438C95.9771 96.6931 96.3834 96.5577 96.7354 96.3411L106.377 89.9223V112.131Z" fill="#663366"/>
<path d="M116.398 90.6543L113.689 94.0397C115.937 95.8272 117.21 98.3731 117.21 101.027C117.21 103.681 115.937 106.2 113.689 108.015L116.398 111.4C119.675 108.773 121.544 105.008 121.544 101.054C121.544 97.1001 119.675 93.2543 116.398 90.6543Z" fill="#663366"/>
<path d="M112.877 27.334H108.544V31.6673H112.877V27.334Z" fill="#663366"/>
<path d="M112.877 38.166H108.544V42.4993H112.877V38.166Z" fill="#663366"/>
<path d="M112.877 49H108.544V53.3333H112.877V49Z" fill="#663366"/>
<path d="M58.7103 124.834H54.377V129.167H58.7103V124.834Z" fill="#663366"/>
<path d="M47.877 124.834H43.5437V129.167H47.877V124.834Z" fill="#663366"/>
<path d="M37.0438 124.834H32.7104V129.167H37.0438V124.834Z" fill="#663366"/>
</svg>
