<svg width="150" height="150" viewBox="0 0 150 150" fill="none" xmlns="http://www.w3.org/2000/svg">
<path d="M51.0246 99.0595H44.8497C38.7793 98.7577 32.6566 104.956 27.4848 108.101C26.6898 108.647 26.2139 109.546 26.2139 110.51V116.783C26.2139 117.579 26.5389 118.345 27.1134 118.89C27.688 119.442 28.4656 119.737 29.2607 119.703C36.4629 119.395 43.0382 123.759 45.5455 130.52C46.3638 133.022 49.3061 132.581 51.3665 132.586V132.581C53.1076 132.581 54.5178 131.17 54.5236 129.429V102.553C54.5178 100.626 52.9514 99.0595 51.0246 99.0595ZM50.9608 129.023H48.7903C46.5386 121.595 36.9975 115.396 29.7778 116.128V110.846L39.191 104.375C42.1161 101.996 47.4668 102.704 50.9606 102.553L50.9608 129.023Z" fill="#663366"/>
<path d="M91.8743 110.47L76.2224 100.987H76.2166C74.1332 99.728 71.7421 99.0605 69.3046 99.0605H62.0155C60.1584 99.0605 58.6611 100.558 58.6553 102.415V129.663C58.6611 131.276 59.9669 132.582 61.5803 132.582H90.9111C92.5244 132.582 93.8302 131.276 93.8302 129.663V113.947C93.8244 112.525 93.0872 111.213 91.8743 110.47ZM90.2725 129.024H62.218V102.618C65.584 102.798 71.4689 101.922 74.3706 104.034L90.0284 113.517C90.1793 113.61 90.2722 113.773 90.2722 113.947L90.2725 129.024Z" fill="#663366"/>
<path d="M119.993 112.618L98.7242 108.132V108.138C97.3255 107.836 96.0024 107.273 94.8242 106.478L78.9985 95.7997C76.5784 94.1573 73.7173 93.2752 70.7924 93.2752H43.6664C37.4276 92.7703 31.241 99.4327 26.7026 102.839C24.4509 104.824 20.4058 105.352 17.5737 105.991C13.1398 106.948 9.98269 110.877 10.0001 115.41V129.843C10.0059 131.52 10.7835 133.105 12.1126 134.138L16.1519 137.254V137.26C16.9238 137.852 17.9336 138.02 18.8563 137.707C19.7965 137.388 20.5104 136.616 20.7598 135.658C22.0424 130.986 26.4706 127.899 31.2991 128.299C36.1218 128.706 39.9753 132.49 40.4687 137.307C40.5906 138.821 41.85 139.994 43.3704 139.999H94.4994C96.194 140.005 97.6276 138.734 97.8249 137.051C98.4342 131.932 102.822 128.108 107.975 128.195C113.129 128.288 117.377 132.263 117.812 137.399C117.911 138.862 119.13 139.999 120.598 139.999H122.716C124.376 139.988 125.955 139.297 127.098 138.09C128.235 136.883 128.833 135.264 128.746 133.604L128.038 121.939C127.754 117.377 124.462 113.57 119.993 112.618ZM124.514 135.659C123.783 136.587 122.332 136.436 121.288 136.436C120.382 129.681 114.619 124.632 107.8 124.632C100.981 124.632 95.2124 129.681 94.3072 136.436H43.9552C43.1195 130.174 38.0763 125.311 31.791 124.702C25.5 124.086 19.6152 127.882 17.5782 133.86L14.2877 131.318C13.8292 130.964 13.5622 130.418 13.5622 129.844V115.41C13.5448 112.555 15.5412 110.071 18.3327 109.467C21.8438 108.742 26.1616 108.034 28.9241 105.62C33.3638 102.48 38.1692 96.5954 43.6593 96.839H70.7912C73.0082 96.839 75.1728 97.5064 77.001 98.7542L92.8386 109.439C94.3998 110.489 96.1466 111.226 97.9862 111.621L119.262 116.107C122.163 116.722 124.293 119.194 124.479 122.154L125.187 133.808V133.813C125.233 134.498 124.985 135.165 124.514 135.659Z" fill="#663366"/>
<path d="M96.1579 40.3008C91.0798 40.3472 86.9883 44.4735 86.9883 49.5517C86.9883 54.624 91.0798 58.756 96.1579 58.7967C101.23 58.7561 105.322 54.624 105.322 49.5517C105.322 44.4735 101.23 40.3473 96.1579 40.3008ZM96.1579 55.2394C93.0413 55.2046 90.5342 52.6684 90.5342 49.552C90.5342 46.4356 93.0413 43.8993 96.1579 43.8645C99.2745 43.8994 101.782 46.4356 101.782 49.552C101.782 52.6684 99.2745 55.2046 96.1579 55.2394Z" fill="#663366"/>
<path d="M127.068 53.1489C126.331 53.1605 125.594 53.236 124.868 53.3752L113.975 47.7168H113.97C113.737 45.4766 113.082 43.3002 112.037 41.3097V10H108.479V36.5867C101.55 30.0983 90.7668 30.0925 83.8375 36.5867V10H80.2742V41.3038C77.4538 46.8578 77.7032 53.4737 80.9358 58.8009C84.1742 64.1227 89.9255 67.4018 96.1583 67.4597C99.182 67.4597 102.159 66.6878 104.806 65.2196L114.555 70.2919V79.0494L114.561 79.0436C114.561 80.1288 114.991 81.1677 115.757 81.9337C116.529 82.6998 117.568 83.1292 118.653 83.1292V90.2734C118.664 91.6256 119.61 92.7921 120.934 93.0765V98.1023C119.274 99.7563 115.763 101.758 117.713 104.544L122.042 110.626L124.938 108.56L120.934 102.937L123.58 100.517H130.562L133.208 102.937L129.203 108.56L132.099 110.626L136.435 104.544L136.429 104.55C137.288 103.337 137.114 101.683 136.023 100.679L133.208 98.1022V93.0763C134.525 92.7919 135.471 91.6254 135.483 90.2732V83.1291C136.568 83.1291 137.613 82.6996 138.379 81.9336C139.145 81.1675 139.58 80.1287 139.58 79.0434V65.6605C139.569 58.7544 133.974 53.1605 127.068 53.1489ZM81.8061 49.5507C82.4097 30.5901 109.901 30.5961 110.498 49.5507C109.9 68.5112 82.4093 68.5053 81.8061 49.5507ZM108.05 62.8988H108.055C111.311 60.0029 113.395 56.0217 113.923 51.7038L120.446 55.093C116.795 57.3621 114.567 61.3608 114.561 65.6612V66.2764L108.05 62.8988ZM124.49 96.9541L124.496 93.2109H129.644V96.9541H124.49ZM131.919 89.6474H122.215V83.1301H131.925L131.919 89.6474ZM136.016 79.0444C136.016 79.3346 135.784 79.5667 135.494 79.5667H118.64C118.35 79.5667 118.118 79.3346 118.118 79.0444V65.6615C118.118 63.2878 119.058 61.0071 120.735 59.3241C122.412 57.6469 124.693 56.7009 127.067 56.7009C129.446 56.7009 131.721 57.6469 133.398 59.3241C135.081 61.0071 136.021 63.2879 136.016 65.6615L136.016 79.0444Z" fill="#663366"/>
<path d="M127.069 58.332C123.041 58.3785 119.803 61.6517 119.803 65.6793C119.803 69.7011 123.041 72.9802 127.069 73.0265C131.096 72.9801 134.335 69.7011 134.335 65.6793C134.335 61.6517 131.096 58.3784 127.069 58.332ZM127.069 69.4632C125.003 69.4342 123.337 67.7454 123.337 65.6793C123.337 63.6075 125.003 61.9245 127.069 61.8895C129.141 61.9186 130.8 63.6073 130.8 65.6793C130.8 67.7453 129.141 69.4341 127.069 69.4632Z" fill="#663366"/>
<path d="M60.4948 40.3709C65.5671 40.3245 69.6586 36.1981 69.6586 31.12C69.6586 26.0419 65.5671 21.9156 60.4948 21.8691C55.4167 21.9156 51.3252 26.0419 51.3252 31.12C51.3252 36.1981 55.4167 40.3244 60.4948 40.3709ZM60.4948 25.4322C63.6114 25.467 66.1185 28.0032 66.1185 31.1196C66.1185 34.236 63.6114 36.7722 60.4948 36.807C57.3725 36.7722 54.8653 34.236 54.8653 31.1196C54.8653 28.0032 57.3725 25.4669 60.4948 25.4322Z" fill="#663366"/>
<path d="M21.1522 64.699C21.1754 64.6815 21.158 71.8431 21.1638 71.8489C21.1754 73.2011 22.1214 74.3618 23.4446 74.6462V79.672L20.6242 82.2546C19.5331 83.2586 19.359 84.9127 20.2179 86.1198L24.5532 92.202L27.4549 90.136L23.4447 84.5123L26.0911 82.0922H33.0727L35.719 84.5123L31.7088 90.136L34.6105 92.202L38.94 86.1198C40.8842 83.3341 37.3846 81.3376 35.7132 79.678V74.6463C37.0364 74.3619 37.9823 73.2012 37.9941 71.8491C38.0057 71.8491 37.9708 64.6759 38.0057 64.6991C40.2632 64.6991 42.0856 62.8709 42.0913 60.6192V51.8617L51.8413 46.7894C58.7474 50.6139 67.3431 49.4649 72.9947 43.9514C78.6532 38.4439 80.0228 29.8778 76.3723 22.8782V10.0117H72.809V18.1541C65.8795 11.6658 55.1024 11.6658 48.1731 18.1541V10.0117H44.6098V22.8782C43.5651 24.8687 42.9094 27.0452 42.6772 29.2853L31.7898 34.9437C28.1394 34.2415 24.3671 35.2107 21.5117 37.596C18.6563 39.9755 17.0256 43.5157 17.0662 47.2299V60.6186C17.072 62.8704 18.9004 64.699 21.1522 64.699ZM27.0021 78.523V74.7797H32.1498L32.1556 78.523H27.0021ZM34.4306 71.2163H24.7272V64.699H34.4306V71.2163ZM60.4884 16.7727C79.4489 17.3763 79.443 44.8673 60.4884 45.4646C41.5338 44.861 41.5397 17.37 60.4942 16.7727H60.4884ZM42.7238 33.2714C43.252 37.5892 45.3412 41.5704 48.5912 44.4665L42.0854 47.8499V47.2347L42.0912 47.2289C42.0796 42.9286 39.8569 38.9357 36.2007 36.6607L42.7238 33.2714ZM20.6299 47.2289C20.9375 35.4303 38.2207 35.4245 38.5282 47.2289V60.6176C38.5282 60.902 38.2961 61.1341 38.0059 61.1341H21.1521C20.8619 61.1341 20.6298 60.902 20.6298 60.6176L20.6299 47.2289Z" fill="#663366"/>
<path d="M29.5795 54.5949C33.607 54.5485 36.8454 51.2752 36.8454 47.2476C36.8454 43.22 33.607 39.941 29.5795 39.9004C25.5519 39.941 22.3135 43.22 22.3135 47.2476C22.3135 51.2752 25.5519 54.5485 29.5795 54.5949ZM29.5795 43.4579C31.6513 43.4927 33.3111 45.1757 33.3111 47.2476C33.3111 49.3137 31.6513 51.0025 29.5795 51.0316C27.5076 51.0026 25.8478 49.3138 25.8478 47.2476C25.8478 45.1758 27.5076 43.4928 29.5795 43.4579Z" fill="#663366"/>
</svg>
