<svg width="150" height="150" viewBox="0 0 150 150" fill="none" xmlns="http://www.w3.org/2000/svg">
<path d="M34.8118 47.7118H87.0284C88.2254 47.7118 89.195 46.7422 89.195 45.5451V20.8346C89.195 19.6376 88.2254 18.668 87.0284 18.668H79.1362C77.9392 18.668 76.9696 19.6376 76.9696 20.8346C76.9696 22.0317 77.9392 23.0013 79.1362 23.0013H84.8617V43.3785H36.9785V23.0013H68.7042C69.9013 23.0013 70.8708 22.0317 70.8708 20.8346C70.8708 19.6376 69.9013 18.668 68.7042 18.668H34.8125C33.6154 18.668 32.6458 19.6376 32.6458 20.8346V45.5451C32.6458 46.7422 33.6147 47.7118 34.8118 47.7118Z" fill="#663366"/>
<path d="M49.5133 85.6022C44.7358 83.0565 38.7936 83.3489 31.8651 86.4581C31.0418 86.8264 30.5326 87.666 30.5868 88.5651C30.6084 88.9226 31.1934 97.3347 37.7531 101.451C40.0335 102.881 42.6931 103.591 45.7264 103.591C49.0686 103.591 52.8602 102.724 57.069 100.991C58.0061 100.607 58.5532 99.6153 58.3798 98.6187C58.3149 98.2449 56.717 89.4373 49.5074 85.6024L49.5133 85.6022ZM40.0828 97.7898C36.784 95.7369 35.5707 91.8911 35.1428 89.7786C40.1153 87.8341 44.2482 87.7094 47.4603 89.4103C51.16 91.3658 52.9257 95.3741 53.6679 97.6599C47.872 99.7453 43.3057 99.7941 40.0882 97.7899L40.0828 97.7898Z" fill="#663366"/>
<path d="M49.8004 66.3997C48.9499 66.1072 48.002 66.378 47.4279 67.0714C47.2654 67.2664 43.4683 71.9626 44.9092 77.3523C45.9546 81.2631 49.378 84.3345 55.0871 86.4794C55.3362 86.5715 55.5908 86.6148 55.8508 86.6148C56.5658 86.6148 57.2537 86.2573 57.6654 85.629C57.8117 85.4069 61.2458 80.039 59.3391 74.514C58.0716 70.8469 54.8649 68.1168 49.8003 66.3943L49.8004 66.3997ZM54.8216 81.6753C51.5987 80.1857 49.6812 78.3657 49.107 76.2587C48.5708 74.287 49.3074 72.3262 49.9683 71.1019C52.7795 72.3207 54.5508 73.9349 55.2441 75.912C55.9808 78.0136 55.4067 80.2291 54.8271 81.6753H54.8216Z" fill="#663366"/>
<path d="M89.9708 86.4527C83.0375 83.3435 77.1008 83.0619 72.3227 85.5969C65.1185 89.4318 63.5151 98.2394 63.4502 98.6131C63.2768 99.6152 63.8239 100.601 64.761 100.986C68.9698 102.719 72.7614 103.586 76.1036 103.586C79.1369 103.586 81.802 102.871 84.0769 101.446C90.6366 97.3348 91.2215 88.9171 91.2433 88.5596C91.2974 87.6605 90.7883 86.8209 89.9649 86.4526L89.9708 86.4527ZM81.7537 97.7899C78.5362 99.794 73.9753 99.7453 68.174 97.6653C68.9107 95.3795 70.6765 91.371 74.3816 89.4157C77.5937 87.7148 81.7321 87.8449 86.6937 89.7786C86.2604 91.8965 85.047 95.7424 81.7537 97.7899Z" fill="#663366"/>
<path d="M65.9855 86.6196C66.2401 86.6196 66.5001 86.5762 66.7493 86.4841C72.4585 84.3391 75.8818 81.2733 76.9272 77.3571C78.3681 71.9675 74.571 67.2712 74.4084 67.0761C73.8397 66.3774 72.8917 66.112 72.036 66.4045C66.9714 68.127 63.7592 70.8623 62.4972 74.5241C60.5905 80.0492 64.0248 85.4117 64.1709 85.6391C64.5826 86.2675 65.2705 86.625 65.9855 86.625L65.9855 86.6196ZM66.5976 75.9107C67.291 73.9336 69.0622 72.3195 71.8735 71.1006C72.5289 72.3248 73.2656 74.2694 72.7402 76.2356C72.1768 78.3535 70.2539 80.179 67.0202 81.674C66.4406 80.2277 65.8664 78.0123 66.6031 75.9107H66.5976Z" fill="#663366"/>
<path d="M117.319 53.4646C116.122 53.4646 115.152 54.4341 115.152 55.6312V85.0703C115.152 88.6561 112.238 91.5703 108.652 91.5703H97.8621V20.8334C97.8621 14.8588 93.0033 10 87.0287 10H34.8122C28.8375 10 23.9788 14.8588 23.9788 20.8334V122.152H22.5C18.9142 122.152 16 125.066 16 128.652V137.833C16 139.03 16.9696 140 18.1667 140H103.674C104.872 140 105.841 139.03 105.841 137.833V128.652C105.841 125.066 102.927 122.152 99.3411 122.152H97.8624V95.9023H108.652C114.627 95.9023 119.486 91.0435 119.486 85.0689V55.6298C119.486 54.4328 118.516 53.4632 117.319 53.4632L117.319 53.4646ZM45.087 122.153C43.8899 122.153 42.9203 123.123 42.9203 124.32C42.9203 125.517 43.8899 126.487 45.087 126.487H99.3406C100.538 126.487 101.507 127.456 101.507 128.653V135.668H20.3328V128.653C20.3328 127.456 21.3024 126.487 22.4995 126.487H34.8116C36.0087 126.487 36.9783 125.517 36.9783 124.32C36.9783 123.123 36.0087 122.153 34.8116 122.153H28.3116V20.8348C28.3116 17.249 31.2258 14.3347 34.8116 14.3347H87.0281C90.6139 14.3347 93.5282 17.249 93.5282 20.8348V122.153H45.087Z" fill="#663366"/>
<path d="M134.251 10.8515C133.406 10.0065 132.036 10.0065 131.186 10.8515L125.281 16.7557C123.667 18.3699 122.746 20.6015 122.746 22.882V24.9728H117.319C116.696 24.9728 116.1 25.2437 115.688 25.7095L108.094 34.3762C107.748 34.7716 107.558 35.2808 107.558 35.8062V46.9592C107.558 48.1563 108.528 49.1258 109.725 49.1258H124.913C126.11 49.1258 127.08 48.1563 127.08 46.9592V22.8824C127.08 21.7394 127.54 20.6236 128.347 19.8166L134.251 13.9124C135.096 13.0674 135.096 11.6969 134.251 10.8466L134.251 10.8515ZM122.746 44.7973H111.891V36.6235L118.299 29.3111H122.746V44.7973Z" fill="#663366"/>
</svg>
