<svg width="150" height="150" viewBox="0 0 150 150" fill="none" xmlns="http://www.w3.org/2000/svg">
<path fill-rule="evenodd" clip-rule="evenodd" d="M89.2998 46.7413C89.1222 46.5628 88.8795 46.4524 88.6151 46.4524C88.3508 46.4524 88.1067 46.5628 87.9305 46.7413C87.7528 46.9199 87.643 47.1638 87.643 47.4295V59.8014C87.643 60.0686 87.7528 60.3125 87.9305 60.4896C88.1081 60.6681 88.3508 60.7785 88.6151 60.7785C88.8795 60.7785 89.1236 60.6681 89.2998 60.4896C89.4761 60.311 89.5873 60.0671 89.5873 59.8014V47.4295C89.5873 47.1623 89.4775 46.9185 89.2998 46.7413ZM89.2998 122.002C89.1222 121.824 88.8795 121.714 88.6151 121.714C88.3508 121.714 88.1067 121.824 87.9305 122.002C87.7528 122.181 87.643 122.425 87.643 122.691V135.063C87.643 135.33 87.7528 135.574 87.9305 135.751C88.1081 135.928 88.3508 136.04 88.6151 136.04C88.8795 136.04 89.1236 135.929 89.2998 135.751C89.4775 135.572 89.5873 135.328 89.5873 135.063V122.691C89.5873 122.423 89.4775 122.18 89.2998 122.002ZM132.896 91.9349C133.074 91.7563 133.184 91.5124 133.184 91.2467C133.184 90.9811 133.074 90.7357 132.896 90.5586C132.718 90.38 132.476 90.2697 132.211 90.2697H119.901C119.636 90.2697 119.393 90.38 119.217 90.5586C119.039 90.7372 118.929 90.9811 118.929 91.2467C118.929 91.5124 119.039 91.7577 119.217 91.9349C119.394 92.112 119.637 92.2238 119.901 92.2238H132.211C132.477 92.2238 132.718 92.1134 132.896 91.9349ZM129.681 96.1827H121.781C120.709 103.52 117.294 110.082 112.325 115.076C107.356 120.07 100.825 123.502 93.5264 124.579V132.519C102.981 131.395 111.46 127.062 117.856 120.633C124.252 114.205 128.564 105.683 129.682 96.1813L129.681 96.1827ZM58.0121 91.9349C58.1898 91.7563 58.2996 91.5124 58.2996 91.2467C58.2996 90.9811 58.1898 90.7357 58.0121 90.5586C57.8344 90.38 57.5917 90.2697 57.3274 90.2697H45.0174C44.7516 90.2697 44.509 90.38 44.3327 90.5586C44.1551 90.7372 44.0453 90.9811 44.0453 91.2467C44.0453 91.5124 44.1551 91.7577 44.3327 91.9349C44.5104 92.112 44.7531 92.2238 45.0174 92.2238H57.3274C57.5932 92.2238 57.8344 92.1134 58.0121 91.9349ZM55.4481 96.1827H47.5482C48.3427 102.928 50.7448 109.179 54.3619 114.537L54.3749 114.558C55.8497 116.74 57.5239 118.775 59.3743 120.635C65.7705 127.063 74.2497 131.397 83.7039 132.52V124.581C76.4034 123.504 69.8743 120.07 64.9052 115.078C59.9362 110.083 56.5214 103.52 55.4496 96.1842L55.4481 96.1827ZM128.687 50.9732C128.499 50.7845 128.251 50.6901 127.999 50.6901C127.748 50.6901 127.499 50.7845 127.312 50.9718L90.0062 88.4651C89.8184 88.6539 89.726 88.9036 89.726 89.1562C89.726 89.4088 89.8199 89.6585 90.0062 89.8472C90.1925 90.036 90.4424 90.1289 90.6938 90.1289C90.9451 90.1289 91.1936 90.0345 91.3814 89.8458L128.687 52.3524C128.875 52.1637 128.969 51.914 128.969 51.6614C128.969 51.4088 128.875 51.1591 128.688 50.9703L128.687 50.9732ZM94.6112 92.2005C94.4076 93.5042 93.7937 94.67 92.9067 95.5614C91.8089 96.6647 90.2908 97.3485 88.6137 97.3485C86.9366 97.3485 85.4199 96.6662 84.3207 95.5614C83.2229 94.458 82.5425 92.9322 82.5425 91.2467C82.5425 89.5612 83.2214 88.0369 84.3207 86.9321C85.2076 86.0407 86.3675 85.4237 87.6647 85.219L87.2212 85.6647C86.265 86.6257 85.7868 87.8917 85.7868 89.1547C85.7868 90.4178 86.265 91.6837 87.2212 92.6448C88.1775 93.6058 89.4371 94.0864 90.6938 94.0864C91.9505 94.0864 93.2101 93.6058 94.1663 92.6433L94.6098 92.1976L94.6112 92.2005ZM104.214 82.5492C104.752 83.5233 105.202 84.5555 105.556 85.6371C106.133 87.3981 106.445 89.2839 106.445 91.2467C106.445 96.1958 104.448 100.676 101.223 103.919C97.9957 107.162 93.538 109.167 88.6137 109.167C83.6894 109.167 79.2317 107.161 76.0047 103.919C72.7777 100.676 70.7829 96.1958 70.7829 91.2467C70.7829 86.2977 72.7792 81.8175 76.0047 78.5742C79.2317 75.331 83.6894 73.3261 88.6137 73.3261C90.5667 73.3261 92.4431 73.6397 94.1952 74.2189C95.2714 74.5746 96.2984 75.0276 97.2677 75.5676L91.3062 81.5591C91.0925 81.4996 90.8772 81.4458 90.6577 81.4008C89.9816 81.26 89.297 81.186 88.6137 81.186C85.8504 81.186 83.3471 82.3125 81.5357 84.1331C79.7243 85.9536 78.6034 88.4695 78.6034 91.2467C78.6034 94.024 79.7243 96.5399 81.5357 98.3604C83.3471 100.181 85.8504 101.307 88.6137 101.307C91.377 101.307 93.8803 100.181 95.6917 98.3604C97.5031 96.5399 98.624 94.024 98.624 91.2467C98.624 90.56 98.5504 89.8719 98.4103 89.1925C98.3655 88.9733 98.312 88.7555 98.2528 88.5406L104.214 82.5492ZM123.3 49.4068L111.911 60.854L110.93 56.895L122.32 45.4478L123.3 49.4068ZM118.856 67.8341L130.245 56.3869L134.185 57.3726L122.795 68.8198L118.856 67.8341ZM125.255 71.9455C126.373 74.0897 127.315 76.3559 128.057 78.7223C128.824 81.1656 129.373 83.7033 129.681 86.3107H121.779C121.373 83.5349 120.632 80.8709 119.6 78.3637C118.535 75.781 117.166 73.3653 115.539 71.1644L115.611 71.0918L122.792 72.8891C123.474 73.1112 124.252 72.9501 124.794 72.4057L125.253 71.944L125.255 71.9455ZM108.1 113.632C103.951 117.284 98.7844 119.791 93.0873 120.658C92.8403 120.114 92.4994 119.622 92.0834 119.205C91.1936 118.311 89.9658 117.756 88.6137 117.756C87.2617 117.756 86.0324 118.311 85.144 119.205C84.728 119.623 84.3871 120.114 84.1401 120.658C78.4445 119.79 73.2775 117.284 69.1275 113.632L70.754 111.997C71.5225 111.225 71.5225 109.97 70.754 109.198C69.9855 108.425 68.7375 108.425 67.969 109.198L66.3425 110.833C62.7081 106.663 60.2135 101.469 59.3511 95.7443C59.8928 95.4961 60.3825 95.1534 60.7971 94.7353C61.6869 93.841 62.2387 92.607 62.2387 91.2482C62.2387 89.8893 61.6869 88.6539 60.7971 87.761C60.3811 87.3429 59.8928 87.0003 59.3511 86.7521C60.215 81.0277 62.7081 75.8348 66.3425 71.6638L67.969 73.2985C68.7375 74.0709 69.9855 74.0709 70.754 73.2985C71.5225 72.5262 71.5225 71.2719 70.754 70.4995L69.1275 68.8648C73.2761 65.2122 78.443 62.705 84.1401 61.8383C84.3871 62.3827 84.728 62.8748 85.144 63.2915C86.0338 64.1858 87.2617 64.7403 88.6137 64.7403C89.9658 64.7403 91.195 64.1858 92.0834 63.2915C92.4994 62.8734 92.8403 62.3827 93.0873 61.8383C95.4736 62.2027 97.7704 62.8531 99.9385 63.7561C102.01 64.6184 103.967 65.7159 105.779 67.0167L100.136 72.6873C98.6688 71.764 97.09 71.0134 95.4259 70.4632C93.2794 69.7533 90.9885 69.3686 88.6137 69.3686C82.6017 69.3686 77.1589 71.8177 73.2197 75.7767C69.2806 79.7357 66.8437 85.2059 66.8437 91.2482C66.8437 97.2904 69.2806 102.761 73.2197 106.72C77.1589 110.679 82.6017 113.128 88.6137 113.128C94.6257 113.128 100.069 110.679 104.008 106.72C107.947 102.761 110.384 97.2904 110.384 91.2482C110.384 88.86 110.001 86.559 109.295 84.4016C108.747 82.7292 108 81.1424 107.082 79.6674L112.725 73.9968C114.019 75.8173 115.112 77.7845 115.97 79.8663C116.868 82.0454 117.517 84.3537 117.878 86.7521C117.336 87.0003 116.846 87.3429 116.432 87.761C115.542 88.6553 114.99 89.8893 114.99 91.2482C114.99 92.607 115.542 93.8425 116.432 94.7353C116.848 95.1534 117.336 95.4961 117.878 95.7443C117.014 101.469 114.521 106.662 110.886 110.833L109.26 109.198C108.491 108.425 107.243 108.425 106.475 109.198C105.706 109.97 105.706 111.225 106.475 111.997L108.1 113.632ZM96.0066 50.3475C97.7342 50.6611 99.4272 51.0836 101.077 51.6062C103.431 52.3539 105.686 53.299 107.82 54.4226L107.36 54.8843L107.363 54.8872C106.894 55.3605 106.674 56.0602 106.845 56.7556L108.668 64.1132L108.595 64.1858C106.406 62.5511 104.002 61.1763 101.432 60.1049C98.9375 59.0668 96.2883 58.3221 93.525 57.9141V49.973C94.2935 50.0644 95.0561 50.1777 95.8116 50.3112C95.8752 50.3257 95.9402 50.3374 96.0052 50.3461L96.0066 50.3475ZM36.5599 27.0118H19.7937C18.706 27.0118 17.8234 27.8988 17.8234 28.992V115.655C17.8234 116.748 18.706 117.636 19.7937 117.636H51.7083C52.6718 118.994 53.7075 120.298 54.8097 121.539H17.3611C16.4222 121.539 15.5671 121.152 14.9459 120.527C14.3248 119.903 13.9391 119.044 13.9391 118.1V26.5472C13.9391 25.6036 14.3248 24.7442 14.9459 24.1199C15.5671 23.4956 16.4222 23.108 17.3611 23.108H36.5599V27.0118ZM71.6683 23.108V27.0118H88.4346C89.5223 27.0118 90.4049 27.8988 90.4049 28.992V42.8332C91.0405 43.0843 91.611 43.4647 92.0863 43.9423C92.6438 44.5027 93.0685 45.1967 93.3083 45.9704C93.6362 46.0038 93.9641 46.0416 94.2906 46.0822V26.5472C94.2906 25.6036 93.9049 24.7442 93.2838 24.1199C92.6626 23.4956 91.8075 23.108 90.8686 23.108H71.6683ZM63.949 16.9351H67.1211C68.3735 16.9351 69.5103 17.449 70.3336 18.2765C70.5936 18.5378 70.8233 18.8311 71.014 19.149H90.8657C92.8923 19.149 94.7326 19.9809 96.0659 21.3209C97.3991 22.6609 98.2268 24.5104 98.2268 26.5472V46.7559C99.5962 47.0535 100.942 47.4121 102.261 47.8302C105.208 48.7651 108.036 50.0049 110.713 51.5133L121.992 40.1779C122.76 39.4056 124.008 39.4056 124.777 40.1779C125.073 40.4755 125.255 40.8443 125.323 41.2304L126.727 46.8981C127.143 46.7863 127.57 46.7312 127.998 46.7312C129.255 46.7312 130.514 47.2117 131.47 48.1728C132.427 49.1338 132.906 50.3998 132.906 51.6628C132.906 52.0925 132.851 52.5223 132.74 52.9404L138.504 54.382C139.558 54.6419 140.202 55.7118 139.942 56.7716C139.853 57.1345 139.669 57.4496 139.424 57.6964L139.427 57.6993L128.148 69.0361C129.649 71.7263 130.882 74.5688 131.811 77.5304C132.717 80.4122 133.344 83.4231 133.662 86.5314C134.433 86.7724 135.124 87.1992 135.68 87.7596C136.569 88.6539 137.121 89.8879 137.121 91.2467C137.121 92.6056 136.569 93.841 135.68 94.7339C135.122 95.2943 134.432 95.7211 133.662 95.9621C132.567 106.651 127.794 116.243 120.64 123.434C113.484 130.626 103.941 135.421 93.3054 136.522C93.0656 137.297 92.641 137.991 92.0834 138.551C91.1936 139.445 89.9658 140 88.6137 140C87.2617 140 86.0324 139.445 85.144 138.551C84.5865 137.991 84.1618 137.297 83.922 136.522C74.3392 135.53 65.6448 131.539 58.7849 125.5H17.3611C15.3345 125.5 13.4942 124.668 12.161 123.328C10.8277 121.988 10 120.138 10 118.102V26.5472C10 24.5104 10.8277 22.6609 12.161 21.3209C13.4942 19.9809 15.3345 19.149 17.3611 19.149H37.2128C37.4049 18.8311 37.6332 18.5378 37.8932 18.2765C38.7165 17.449 39.8534 16.9351 41.1057 16.9351H44.2778L43.6509 13.6802C43.5628 13.22 43.5744 12.7671 43.6842 12.333C43.7925 11.9033 43.9991 11.4997 44.2995 11.1324C44.6 10.7665 44.9568 10.4863 45.3598 10.2962C45.7743 10.1002 46.2149 10 46.6743 10H61.5511C62.0105 10 62.4525 10.1002 62.8656 10.2962C63.2686 10.4878 63.6254 10.768 63.9259 11.1324C64.2263 11.4997 64.4329 11.9033 64.5412 12.333C64.651 12.7671 64.664 13.22 64.5744 13.6802L63.949 16.9351ZM61.5641 20.8941C60.4764 20.8941 59.5938 20.007 59.5938 18.9139C59.5938 18.7425 59.6155 18.5756 59.6559 18.4159L60.5154 13.9575H47.71L48.5694 18.4159C48.6099 18.5756 48.6316 18.7411 48.6316 18.9139C48.6316 20.007 47.749 20.8941 46.6613 20.8941H41.1043C40.9396 20.8941 40.7879 20.9637 40.6767 21.0755C40.5655 21.1873 40.4962 21.3398 40.4962 21.5053V28.616C40.4962 28.7815 40.5655 28.934 40.6767 29.0457C40.7879 29.1575 40.9396 29.2272 41.1043 29.2272H67.1182C67.2829 29.2272 67.4345 29.1575 67.5458 29.0457C67.657 28.934 67.7263 28.7815 67.7263 28.616V21.5053C67.7263 21.3398 67.657 21.1873 67.5458 21.0755C67.4345 20.9637 67.2829 20.8941 67.1182 20.8941H61.5612H61.5641ZM34.8771 43.0597H30.0915V47.8694H34.8771V43.0597ZM28.1226 39.1007C27.0349 39.1007 26.1523 39.9877 26.1523 41.0809V49.8496C26.1523 50.9427 27.0349 51.8298 28.1226 51.8298H36.8474C37.9351 51.8298 38.8177 50.9427 38.8177 49.8496V41.0809C38.8177 39.9877 37.9351 39.1007 36.8474 39.1007H28.1226ZM34.8771 61.7033H30.0915V66.513H34.8771V61.7033ZM28.1226 57.7443C27.0349 57.7443 26.1523 58.6313 26.1523 59.7245V68.4932C26.1523 69.5864 27.0349 70.4734 28.1226 70.4734H36.8474C37.9351 70.4734 38.8177 69.5864 38.8177 68.4932V59.7245C38.8177 58.6313 37.9351 57.7443 36.8474 57.7443H28.1226ZM34.8771 80.3469H30.0915V85.1566H34.8771V80.3469ZM28.1226 76.3879C27.0349 76.3879 26.1523 77.2749 26.1523 78.3681V87.1368C26.1523 88.23 27.0349 89.117 28.1226 89.117H36.8474C37.9351 89.117 38.8177 88.23 38.8177 87.1368V78.3681C38.8177 77.2749 37.9351 76.3879 36.8474 76.3879H28.1226ZM34.8771 98.9905H30.0915V103.8H34.8771V98.9905ZM28.1226 95.0315C27.0349 95.0315 26.1523 95.9185 26.1523 97.0117V105.78C26.1523 106.874 27.0349 107.761 28.1226 107.761H36.8474C37.9351 107.761 38.8177 106.874 38.8177 105.78V97.0117C38.8177 95.9185 37.9351 95.0315 36.8474 95.0315H28.1226ZM44.964 43.7463H77.3235C78.4112 43.7463 79.2938 42.8593 79.2938 41.7661C79.2938 40.6729 78.4112 39.7859 77.3235 39.7859H44.964C43.8763 39.7859 42.9937 40.6729 42.9937 41.7661C42.9937 42.8593 43.8763 43.7463 44.964 43.7463ZM53.7884 68.8256C53.7725 68.8518 53.7566 68.8779 53.7393 68.9026C50.4704 74.0462 48.2964 79.9578 47.5482 86.3093H55.4481C56.5199 78.972 59.9347 72.41 64.9038 67.416C69.8728 62.4219 76.4034 58.9899 83.7024 57.9127V49.973C81.7755 50.2024 79.8904 50.5638 78.0545 51.0502C77.9996 51.0676 77.9418 51.0836 77.8854 51.0966C70.78 53.0101 64.4271 56.7803 59.3743 61.8586C57.274 63.9695 55.399 66.3039 53.7884 68.8256ZM44.964 69.7852H48.6648C45.9578 74.8664 44.1825 80.524 43.5672 86.5299C42.7958 86.7709 42.1053 87.1977 41.5492 87.7581C40.6594 88.6524 40.1076 89.8864 40.1076 91.2453C40.1076 92.6041 40.6594 93.8396 41.5492 94.7324C42.1068 95.2928 42.7972 95.7196 43.5672 95.9606C44.2215 102.351 46.1904 108.349 49.1978 113.675H21.764V30.9722H37.2128C37.4049 31.2902 37.6332 31.5834 37.8932 31.8447C38.7165 32.6723 39.8534 33.1862 41.1057 33.1862H67.1196C68.372 33.1862 69.5088 32.6723 70.3322 31.8447C70.5922 31.5834 70.8219 31.2902 71.0125 30.9722H86.4614V42.9943C85.9703 43.2368 85.5239 43.5576 85.1411 43.9423C84.5836 44.5027 84.1589 45.1967 83.9191 45.9719C81.6281 46.2085 79.3892 46.6179 77.2138 47.1841H44.9596C43.8719 47.1841 42.9894 48.0712 42.9894 49.1643C42.9894 50.2575 43.8719 51.1445 44.9596 51.1445H67.1687C63.5243 53.116 60.1788 55.5753 57.2205 58.4339H44.9596C43.8719 58.4339 42.9894 59.3209 42.9894 60.4141C42.9894 61.5073 43.8719 62.3943 44.9596 62.3943H53.5804C52.6805 63.4976 51.8311 64.6431 51.0352 65.8292H44.9596C43.8719 65.8292 42.9894 66.7162 42.9894 67.8094C42.9894 68.9026 43.8719 69.7896 44.9596 69.7896L44.964 69.7852Z" fill="#663366"/>
</svg>
