<svg width="150" height="150" viewBox="0 0 150 150" fill="none" xmlns="http://www.w3.org/2000/svg">
<path d="M26.0688 132.709C26.9373 132.265 27.7837 131.771 28.6023 131.227C29.7901 130.442 31.2136 129.984 32.7427 129.984C33.6362 129.984 34.4937 130.142 35.2902 130.428C36.908 126.829 40.5211 124.32 44.7225 124.32L47.3726 124.323C49.7536 120.102 54.2769 117.249 59.4689 117.249C60.6733 117.249 61.8444 117.405 62.9599 117.693C66.0374 113.869 70.7522 111.422 76.0414 111.422C81.3306 111.422 86.0454 113.869 89.1229 117.693C90.2384 117.405 91.4095 117.249 92.6138 117.249C97.8059 117.249 102.329 120.102 104.71 124.323L107.36 124.32C111.562 124.32 115.175 126.829 116.793 130.428C117.589 130.142 118.447 129.984 119.34 129.984C120.869 129.984 122.293 130.442 123.48 131.227C128.187 134.349 133.787 135.842 139.437 135.842H140.838C143.136 135.842 145.001 137.707 145.001 140.005V145H7.08203V140.005C7.08203 137.707 8.94685 135.842 11.2446 135.842H12.646C13.8892 135.842 15.1268 135.77 16.3562 135.623" stroke="#663366" stroke-width="4.16254" stroke-miterlimit="10" stroke-linecap="round" stroke-linejoin="round"/>
<path d="M112.842 133.76C114.137 131.521 116.566 129.984 119.34 129.984" stroke="#663366" stroke-width="4.16254" stroke-miterlimit="10" stroke-linecap="round" stroke-linejoin="round"/>
<path d="M39.3284 133.76C38.0328 131.521 35.515 129.984 32.7422 129.984" stroke="#663366" stroke-width="4.16254" stroke-miterlimit="10" stroke-linecap="round" stroke-linejoin="round"/>
<path d="M76.041 111.422V77.5664" stroke="#663366" stroke-width="4.16254" stroke-miterlimit="10" stroke-linecap="round" stroke-linejoin="round"/>
<path d="M76.041 110.195C76.041 103.875 83.5075 97.5547 89.4291 97.5547" stroke="#663366" stroke-width="4.16254" stroke-miterlimit="10" stroke-linecap="round" stroke-linejoin="round"/>
<path d="M124.4 92.3421C127.07 94.465 128.654 96.5352 128.654 97.5814C128.654 100.229 118.5 109.458 106.271 109.458C94.0385 109.458 89.4375 97.5814 89.4375 97.5814C89.4375 97.5814 94.0385 85.707 106.271 85.707C109.706 85.707 112.975 86.4341 115.903 87.5413" stroke="#663366" stroke-width="4.16254" stroke-miterlimit="10" stroke-linecap="round" stroke-linejoin="round"/>
<path d="M109.047 95.4677V86.543" stroke="#663366" stroke-width="4.16254" stroke-miterlimit="10" stroke-linecap="round" stroke-linejoin="round"/>
<path d="M89.4375 97.582H116.574V107.045" stroke="#663366" stroke-width="4.16254" stroke-miterlimit="10" stroke-linecap="round" stroke-linejoin="round"/>
<path d="M101.309 97.6562V108.348" stroke="#663366" stroke-width="4.16254" stroke-miterlimit="10" stroke-linecap="round" stroke-linejoin="round"/>
<path d="M76.0404 110.195C76.0404 103.875 68.574 97.5547 62.6523 97.5547" stroke="#663366" stroke-width="4.16254" stroke-miterlimit="10" stroke-linecap="round" stroke-linejoin="round"/>
<path d="M45.8111 109.457C58.042 109.457 62.6444 97.5819 62.6444 97.5819C62.6444 97.5819 58.042 85.707 45.8111 85.707C33.5802 85.707 23.4277 94.9365 23.4277 97.5819C23.4277 100.227 33.5802 109.457 45.8111 109.457Z" stroke="#663366" stroke-width="4.16254" stroke-miterlimit="10" stroke-linecap="round" stroke-linejoin="round"/>
<path d="M43.0352 95.4677V86.543" stroke="#663366" stroke-width="4.16254" stroke-miterlimit="10" stroke-linecap="round" stroke-linejoin="round"/>
<path d="M62.6445 97.582H35.5078V107.045" stroke="#663366" stroke-width="4.16254" stroke-miterlimit="10" stroke-linecap="round" stroke-linejoin="round"/>
<path d="M50.7715 97.6562V108.348" stroke="#663366" stroke-width="4.16254" stroke-miterlimit="10" stroke-linecap="round" stroke-linejoin="round"/>
<path d="M111.283 33.6362V72.9694C111.283 75.5086 109.223 77.5677 106.684 77.5677H45.3951C42.8559 77.5677 40.7969 75.5086 40.7969 72.9694V11.6802C40.7969 9.1411 42.8559 7.08203 45.3951 7.08203H106.684C109.223 7.08203 111.283 9.1411 111.283 11.6802V23.9237" stroke="#663366" stroke-width="4.16254" stroke-miterlimit="10" stroke-linecap="round" stroke-linejoin="round"/>
<path d="M60.6505 69.2417H49.123V15.4062H102.959V69.2417H70.3631" stroke="#663366" stroke-width="4.16254" stroke-miterlimit="10" stroke-linecap="round" stroke-linejoin="round"/>
<path d="M61.6367 54.1576L70.4724 30.9581C70.5801 30.6753 70.8512 30.4883 71.1539 30.4883C71.4573 30.4883 71.7292 30.6762 71.8363 30.96L80.591 54.1576" stroke="#663366" stroke-width="4.16254" stroke-miterlimit="10" stroke-linecap="round" stroke-linejoin="round"/>
<path d="M64.4473 48.2617H77.824" stroke="#663366" stroke-width="4.16254" stroke-miterlimit="10" stroke-linecap="round" stroke-linejoin="round"/>
<path d="M88.0449 30.4883V54.1576" stroke="#663366" stroke-width="4.16254" stroke-miterlimit="10" stroke-linecap="round" stroke-linejoin="round"/>
<path d="M140.283 35.9414H127.518V48.7065H140.283V35.9414Z" stroke="#663366" stroke-width="4.16254" stroke-miterlimit="10" stroke-linecap="round" stroke-linejoin="round"/>
<path d="M140.283 70.5234H133.346V77.461H140.283V70.5234Z" stroke="#663366" stroke-width="4.16254" stroke-miterlimit="10" stroke-linecap="round" stroke-linejoin="round"/>
<path d="M140.283 7.1875H133.346V14.1251H140.283V7.1875Z" stroke="#663366" stroke-width="4.16254" stroke-miterlimit="10" stroke-linecap="round" stroke-linejoin="round"/>
<path d="M128.488 19.0664H118.775V28.779H128.488V19.0664Z" stroke="#663366" stroke-width="4.16254" stroke-miterlimit="10" stroke-linecap="round" stroke-linejoin="round"/>
<path d="M128.488 55.8672H118.775V65.5798H128.488V55.8672Z" stroke="#663366" stroke-width="4.16254" stroke-miterlimit="10" stroke-linecap="round" stroke-linejoin="round"/>
<path d="M11.7993 48.707L24.5645 48.707L24.5645 35.9419L11.7993 35.9419L11.7993 48.707Z" stroke="#663366" stroke-width="4.16254" stroke-miterlimit="10" stroke-linecap="round" stroke-linejoin="round"/>
<path d="M11.7988 77.4609L18.7363 77.4609L18.7363 70.5234L11.7988 70.5234L11.7988 77.4609Z" stroke="#663366" stroke-width="4.16254" stroke-miterlimit="10" stroke-linecap="round" stroke-linejoin="round"/>
<path d="M11.7988 14.125L18.7363 14.125L18.7363 7.18744L11.7988 7.18744L11.7988 14.125Z" stroke="#663366" stroke-width="4.16254" stroke-miterlimit="10" stroke-linecap="round" stroke-linejoin="round"/>
<path d="M23.5921 28.7812L33.3047 28.7812L33.3047 19.0687L23.5921 19.0687L23.5921 28.7812Z" stroke="#663366" stroke-width="4.16254" stroke-miterlimit="10" stroke-linecap="round" stroke-linejoin="round"/>
<path d="M23.5921 65.582L33.3047 65.582L33.3047 55.8694L23.5921 55.8694L23.5921 65.582Z" stroke="#663366" stroke-width="4.16254" stroke-miterlimit="10" stroke-linecap="round" stroke-linejoin="round"/>
</svg>
