<svg width="150" height="150" viewBox="0 0 150 150" fill="none" xmlns="http://www.w3.org/2000/svg">
<path d="M133.45 64.7446C130.637 64.7446 128.288 66.6597 127.585 69.2466H104.742C104.422 63.3632 102.313 57.706 98.7148 53.028L105.452 46.2908H115.561C116.333 50.146 119.743 53.0594 123.824 53.0594C128.47 53.0594 132.244 49.2794 132.244 44.6394C132.244 39.993 128.464 36.2194 123.824 36.2194C119.711 36.2194 116.302 39.1766 115.561 43.0821H106.4L106.369 30.2858C109.018 29.5763 110.984 27.1652 110.984 24.3083C110.984 20.8863 108.19 18.0859 104.761 18.0859C101.339 18.0859 98.539 20.88 98.539 24.3083C98.539 27.184 100.498 29.5824 103.154 30.2858L103.204 44.0303L96.6303 50.6042C91.5005 45.2547 84.5561 42.0712 77.1664 41.6694V21.7024C80.9464 20.9489 83.8032 17.621 83.8032 13.6152C83.8032 9.06938 80.1049 5.37109 75.559 5.37109C71.0132 5.37109 67.3149 9.06938 67.3149 13.6152C67.3149 17.6149 70.178 20.9427 73.9516 21.7024V41.6694C66.5425 42.0712 59.6107 45.2547 54.4877 50.5917L47.8823 43.9863V30.2921C50.5319 29.5826 52.4973 27.1715 52.4973 24.3145C52.4973 20.8926 49.7032 18.0922 46.2749 18.0922C42.8529 18.0922 40.0525 20.8863 40.0525 24.3145C40.0525 27.1903 42.0116 29.5887 44.6675 30.2921V43.0382H35.042C34.2885 39.1641 30.8792 36.2256 26.779 36.2256C22.1327 36.2256 18.359 40.0056 18.359 44.6456C18.359 49.292 22.139 53.0656 26.779 53.0656C30.8792 53.0656 34.2886 50.1272 35.042 46.253H45.6156L52.3841 53.0216C48.7863 57.6994 46.6766 63.3441 46.3564 69.2402H23.4318C22.7223 66.6532 20.3803 64.7382 17.5674 64.7382C14.1893 64.7382 11.458 67.4883 11.458 70.8476C11.458 74.2069 14.2081 76.9569 17.5674 76.9569C20.3803 76.9569 22.7286 75.0419 23.4318 72.455H46.3371C46.8834 82.2626 52.3648 91.247 60.9292 96.1961C61.1866 96.3406 61.4566 96.4033 61.7329 96.4033C62.298 96.4033 62.8254 96.1145 63.1331 95.5997C63.5852 94.8274 63.3089 93.8479 62.5366 93.3958C54.4996 88.7494 49.5016 80.1034 49.5016 70.8424C49.5016 64.6892 51.6867 58.7241 55.6737 54.0468C55.6737 54.0468 55.6925 54.0154 55.7051 53.9966C55.7239 53.9777 55.7365 53.9463 55.7553 53.9338C60.703 48.1133 67.9237 44.7855 75.5712 44.7855C83.2251 44.7855 90.4584 48.1258 95.4064 53.9463C99.4249 58.6555 101.641 64.6519 101.641 70.8432C101.641 76.2306 100.003 81.4043 96.9134 85.7933C96.3985 86.5153 96.5743 87.5262 97.2964 88.0285C98.0184 88.5245 99.0293 88.3676 99.5316 87.6455C102.696 83.1435 104.479 77.9195 104.774 72.4381H127.617C128.327 75.025 130.669 76.9401 133.481 76.9401C136.86 76.9401 139.591 74.19 139.591 70.8307C139.591 67.4716 136.841 64.7213 133.481 64.7213L133.45 64.7446ZM123.805 39.4475C126.681 39.4475 129.01 41.7769 129.01 44.6527C129.01 47.5285 126.681 49.8579 123.805 49.8579C120.929 49.8579 118.6 47.5285 118.6 44.6527C118.6 41.7769 120.929 39.4475 123.805 39.4475ZM101.723 24.3216C101.723 22.6641 103.073 21.314 104.73 21.314C106.388 21.314 107.738 22.664 107.738 24.3216C107.738 25.9792 106.388 27.3292 104.73 27.3292C103.073 27.3292 101.723 25.9792 101.723 24.3216ZM43.2282 24.3216C43.2282 22.6641 44.5782 21.314 46.2358 21.314C47.8935 21.314 49.2434 22.664 49.2434 24.3216C49.2434 25.9792 47.8935 27.3292 46.2358 27.3292C44.5782 27.3292 43.2282 25.9792 43.2282 24.3216ZM26.7332 49.8647C23.8574 49.8647 21.528 47.5352 21.528 44.6595C21.528 41.7837 23.8574 39.4542 26.7332 39.4542C29.609 39.4542 31.9384 41.7837 31.9384 44.6595C31.9384 47.5352 29.609 49.8647 26.7332 49.8647ZM17.5095 73.7618C15.9021 73.7618 14.6149 72.462 14.6149 70.8672C14.6149 69.2786 15.9146 67.9726 17.5095 67.9726C19.098 67.9726 20.4041 69.2723 20.4041 70.8672C20.4041 72.4557 19.1044 73.7618 17.5095 73.7618ZM70.4907 13.6292C70.4907 10.8476 72.7385 8.59986 75.5201 8.59986C78.3017 8.59986 80.5495 10.8476 80.5495 13.6292C80.5495 16.4108 78.3017 18.6586 75.5201 18.6586C72.7385 18.6586 70.4907 16.4108 70.4907 13.6292ZM133.449 73.7618C131.842 73.7618 130.554 72.462 130.554 70.8672C130.554 69.2786 131.854 67.9726 133.449 67.9726C135.038 67.9726 136.344 69.2723 136.344 70.8672C136.344 72.4557 135.044 73.7618 133.449 73.7618Z" fill="#663366"/>
<path d="M61.6828 96.8274C61.3312 96.8274 60.9921 96.7332 60.6845 96.5511C52.0824 91.5846 46.5885 82.7439 45.9103 72.8614H23.6833C22.8168 75.53 20.3242 77.3633 17.5112 77.3633C13.9134 77.3633 11 74.4374 11 70.8521C11 67.2668 13.9259 64.3409 17.5112 64.3409C20.3242 64.3409 22.8169 66.1743 23.6833 68.8429H45.9296C46.3126 63.0915 48.3407 57.654 51.813 53.0578L45.4147 46.6596H35.3372C34.4079 50.6279 30.854 53.4722 26.754 53.4722C21.8817 53.4722 17.9322 49.5166 17.9322 44.6503C17.9322 39.778 21.8878 35.8285 26.754 35.8285C30.8542 35.8285 34.408 38.6728 35.3372 42.6411H44.2407V30.6045C41.5094 29.738 39.6257 27.195 39.6257 24.3192C39.6257 20.6713 42.602 17.695 46.2499 17.695C49.8979 17.695 52.8742 20.6713 52.8742 24.3192C52.8742 27.1823 50.9905 29.7379 48.2592 30.6045V43.8341L54.4628 50.0377C59.5424 44.8765 66.2922 41.7935 73.5248 41.31V22.0535C69.6507 21.1368 66.8881 17.6519 66.8881 13.646C66.8881 8.87398 70.7622 5 75.5341 5C80.3059 5 84.1801 8.87414 84.1801 13.646C84.1801 17.6457 81.4173 21.1368 77.5433 22.0535V41.31C84.7766 41.7935 91.5263 44.8953 96.6247 50.0565L102.778 43.9032L102.728 30.6422C99.9964 29.7758 98.1127 27.2328 98.1127 24.357C98.1127 20.709 101.089 17.7328 104.737 17.7328C108.385 17.7328 111.361 20.709 111.361 24.357C111.361 27.2201 109.477 29.7569 106.746 30.6422L106.778 42.729H115.216C116.133 38.7294 119.687 35.8663 123.8 35.8663C128.672 35.8663 132.621 39.8219 132.621 44.6881C132.621 49.5604 128.666 53.51 123.8 53.51C119.718 53.51 116.164 50.6782 115.216 46.7414H105.591L99.2241 53.1081C102.677 57.7043 104.706 63.1355 105.089 68.8744H127.253C128.119 66.2058 130.612 64.3724 133.425 64.3724C137.023 64.3724 139.936 67.2983 139.936 70.8836C139.936 74.4689 137.01 77.3948 133.425 77.3948C130.612 77.3948 128.119 75.5615 127.253 72.8929H105.089C104.737 78.3241 102.903 83.5168 99.7828 87.9371C99.1424 88.835 97.8866 89.061 96.9887 88.4206C96.0908 87.7801 95.8648 86.5243 96.5052 85.6264C99.5442 81.3191 101.152 76.2584 101.152 70.9653V70.8836C101.152 64.7743 98.9665 58.8783 95.0108 54.2439C90.1258 48.505 83.0182 45.2274 75.4842 45.2274C67.9433 45.2274 60.8419 48.505 55.9689 54.2314L55.8433 54.3946C51.9692 58.9783 49.8156 64.8427 49.8156 70.8897V70.9525C49.8344 80.0694 54.7508 88.5518 62.6559 93.1168C63.6229 93.663 63.9431 94.9 63.3968 95.8669C63.0452 96.4948 62.3671 96.8652 61.6639 96.8652L61.6828 96.8274ZM23.0861 72.0703H46.6698V72.4533C47.2349 82.2232 52.6158 90.9882 61.0862 95.8731C61.6513 96.1933 62.4173 95.9861 62.7249 95.4398C62.8881 95.1635 62.9321 94.8307 62.8505 94.5231C62.7689 94.2154 62.5616 93.9454 62.2854 93.7822C54.1229 89.073 49.0432 80.2952 49.0432 70.8768V70.7952C49.062 64.5603 51.2784 58.5326 55.3095 53.7922L55.3723 53.7294C60.4519 47.7646 67.7667 44.4053 75.5145 44.4053C83.2626 44.4053 90.6214 47.7959 95.6567 53.7106C99.7253 58.47 101.973 64.5417 101.992 70.8149V70.8777C101.992 76.3402 100.335 81.602 97.2013 86.0662C96.8182 86.6125 96.9438 87.366 97.4901 87.7553C98.0363 88.1383 98.7898 88.0127 99.1791 87.4665C102.268 83.0649 104.064 77.8723 104.353 72.4726V72.0895H127.898L127.98 72.3784C128.658 74.8523 130.918 76.5915 133.461 76.5915C136.613 76.5915 139.169 74.0361 139.169 70.884C139.169 67.7321 136.613 65.1765 133.461 65.1765C130.906 65.1765 128.658 66.9094 127.98 69.3896L127.898 69.6784H104.364V69.2954C104.025 63.4624 101.972 57.9307 98.3994 53.3031L98.1922 53.0269L105.3 45.9191H115.911L115.974 46.2394C116.728 49.969 120.024 52.6877 123.835 52.6877C128.255 52.6877 131.853 49.0899 131.853 44.6696C131.853 40.2493 128.255 36.6514 123.835 36.6514C119.993 36.6514 116.684 39.4015 115.962 43.1752L115.899 43.4954H105.997L105.947 29.9959L106.254 29.9143C108.791 29.2236 110.562 26.9255 110.562 24.3197C110.562 21.105 107.956 18.4992 104.741 18.4992C101.526 18.4992 98.9206 21.105 98.9206 24.3197C98.9206 26.9255 100.691 29.2361 103.247 29.9143L103.536 29.9959L103.586 44.2049L96.61 51.1807L96.3212 50.8919C91.2605 45.605 84.4291 42.4844 77.1145 42.0825H76.7315V21.3938L77.0517 21.331C80.7185 20.6089 83.3683 17.3754 83.3683 13.6457C83.3683 9.31961 79.8458 5.80343 75.5259 5.80343C71.1998 5.80343 67.6836 9.32587 67.6836 13.6457C67.6836 17.3754 70.3333 20.6027 74.0002 21.331L74.3204 21.3938V42.0632H73.9374C66.6225 42.4839 59.8099 45.617 54.7436 50.8851L54.4547 51.1739L47.4475 44.1667V30.0078L47.7363 29.9262C50.2729 29.2355 52.0624 26.9374 52.0624 24.3316C52.0624 21.1169 49.4567 18.5111 46.2419 18.5111C43.0271 18.5111 40.4214 21.1169 40.4214 24.3316C40.4214 26.9374 42.1921 29.2355 44.7287 29.9262L45.0175 30.0078V43.4634H34.6511L34.5883 43.1432C33.8474 39.3822 30.5511 36.6508 26.7272 36.6508C22.3069 36.6508 18.7091 40.2486 18.7091 44.6689C18.7091 49.0893 22.3069 52.6871 26.7272 52.6871C30.5511 52.6871 33.8663 49.9558 34.5883 46.1947L34.6511 45.8745H45.727L52.8661 53.0135L52.6589 53.2898C49.0924 57.9173 47.033 63.449 46.7128 69.3009V69.6839H23.0858L23.0041 69.3951C22.326 66.9211 20.0657 65.1819 17.5226 65.1819C14.3707 65.1819 11.8151 67.7373 11.8151 70.8894C11.8151 74.0415 14.3705 76.597 17.5226 76.597C20.0781 76.597 22.326 74.864 23.0041 72.3838L23.0858 72.095L23.0861 72.0703ZM133.45 74.1612C131.635 74.1612 130.153 72.6794 130.153 70.8648C130.153 69.0502 131.635 67.5683 133.45 67.5683C135.264 67.5683 136.746 69.0502 136.746 70.8648C136.746 72.6794 135.264 74.1612 133.45 74.1612ZM133.45 68.3595C132.068 68.3595 130.957 69.4834 130.957 70.8523C130.957 72.2211 132.081 73.345 133.45 73.345C134.818 73.345 135.942 72.2211 135.942 70.8523C135.942 69.4835 134.818 68.3595 133.45 68.3595ZM17.5101 74.1612C15.6955 74.1612 14.2136 72.6794 14.2136 70.8648C14.2136 69.0502 15.6955 67.5683 17.5101 67.5683C19.3247 67.5683 20.8065 69.0502 20.8065 70.8648C20.8065 72.6794 19.3247 74.1612 17.5101 74.1612ZM17.5101 68.3595C16.1287 68.3595 15.0173 69.4834 15.0173 70.8523C15.0173 72.2211 16.1413 73.345 17.5101 73.345C18.8789 73.345 20.0028 72.2211 20.0028 70.8523C20.0028 69.4835 18.8789 68.3595 17.5101 68.3595ZM123.805 50.2635C120.716 50.2635 118.198 47.7582 118.198 44.6564C118.198 41.5546 120.722 39.0494 123.805 39.0494C126.895 39.0494 129.412 41.5734 129.412 44.6564C129.412 47.7457 126.907 50.2635 123.805 50.2635ZM123.805 39.8468C121.156 39.8468 119.002 42.0004 119.002 44.6502C119.002 47.2998 121.156 49.4535 123.805 49.4535C126.455 49.4535 128.609 47.2999 128.609 44.6502C128.609 42.0005 126.455 39.8468 123.805 39.8468ZM26.7333 50.2635C23.6441 50.2635 21.1262 47.7582 21.1262 44.6564C21.1262 41.5546 23.6503 39.0494 26.7333 39.0494C29.8225 39.0494 32.3404 41.5734 32.3404 44.6564C32.3404 47.7457 29.8163 50.2635 26.7333 50.2635ZM26.7333 39.8468C24.0837 39.8468 21.9299 42.0004 21.9299 44.6502C21.9299 47.2998 24.0835 49.4535 26.7333 49.4535C29.3829 49.4535 31.5367 47.2999 31.5367 44.6502C31.5367 42.0005 29.3831 39.8468 26.7333 39.8468ZM104.729 27.7222C102.845 27.7222 101.319 26.1965 101.319 24.3128C101.319 22.4291 102.845 20.9033 104.729 20.9033C106.612 20.9033 108.138 22.4291 108.138 24.3128C108.138 26.1965 106.612 27.7222 104.729 27.7222ZM104.729 21.7133C103.297 21.7133 102.123 22.8875 102.123 24.3191C102.123 25.7506 103.297 26.9248 104.729 26.9248C106.16 26.9248 107.335 25.7506 107.335 24.3191C107.335 22.8875 106.16 21.7133 104.729 21.7133ZM46.2342 27.7222C44.3505 27.7222 42.8247 26.1965 42.8247 24.3128C42.8247 22.4291 44.3505 20.9033 46.2342 20.9033C48.1178 20.9033 49.6436 22.4291 49.6436 24.3128C49.6436 26.1965 48.1178 27.7222 46.2342 27.7222ZM46.2342 21.7133C44.8026 21.7133 43.6284 22.8875 43.6284 24.3191C43.6284 25.7506 44.8026 26.9248 46.2342 26.9248C47.6658 26.9248 48.8399 25.7506 48.8399 24.3191C48.8399 22.8875 47.6658 21.7133 46.2342 21.7133ZM75.5193 19.0637C72.5305 19.0637 70.088 16.6213 70.088 13.6325C70.088 10.6437 72.5305 8.20125 75.5193 8.20125C78.508 8.20125 80.9505 10.6437 80.9505 13.6325C80.9505 16.6213 78.508 19.0637 75.5193 19.0637ZM75.5193 8.99868C72.9638 8.99868 70.8917 11.0708 70.8917 13.6262C70.8917 16.1816 72.9638 18.2537 75.5193 18.2537C78.0747 18.2537 80.1468 16.1816 80.1468 13.6262C80.1468 11.0708 78.0747 8.99868 75.5193 8.99868Z" fill="#663366"/>
<path d="M99.0664 94.215H81.8625V87.911C88.9199 85.3052 93.7421 78.4738 93.7421 70.8694C93.7421 60.842 85.5921 52.6914 75.5769 52.6914C72.6698 52.6914 69.9009 53.3507 67.3328 54.6693C66.5479 55.0711 66.2214 56.0381 66.6233 56.8419C67.0251 57.6267 68.0046 57.9532 68.7958 57.5514C70.9181 56.4714 73.1973 55.9252 75.5771 55.9252C83.8212 55.9252 90.5271 62.6436 90.5271 70.8877C90.5271 76.7396 87.0548 82.0453 81.8623 84.4564V74.316C81.7681 72.1624 80.3491 68.0308 75.6587 67.8236C70.8554 67.5975 69.3547 71.9676 69.2104 74.3975V84.4437C64.0051 82.0013 60.6272 76.8086 60.6272 70.9064C60.6272 67.9679 61.4811 65.1362 63.0884 62.6936C63.5719 61.9527 63.3647 60.9606 62.6238 60.4771C61.8829 59.9937 60.8909 60.2009 60.4074 60.9418C58.461 63.918 57.4311 67.3525 57.4311 70.9251C57.4311 78.5916 62.1278 85.2787 69.2291 87.9281V110.771L65.0473 105.239C63.6659 102.922 59.8421 99.2427 54.9069 101.283C52.4958 102.294 51.6104 103.82 51.2714 104.95C50.4866 107.619 52.1254 110.124 52.3954 110.494L69.2232 131.44V143.031C69.2232 143.916 69.9452 144.639 70.8305 144.639C71.7159 144.639 72.4379 143.916 72.4379 143.031V130.881C72.4379 130.511 72.3124 130.159 72.0863 129.871L54.9821 108.592C54.7749 108.284 54.0528 106.922 54.373 105.861C54.5676 105.22 55.1579 104.674 56.1563 104.253C59.8042 102.727 62.2341 106.759 62.3283 106.941C62.3597 107.003 62.3911 107.054 62.4413 107.104L69.5616 116.541C69.9823 117.087 70.7044 117.313 71.3636 117.106C72.0229 116.88 72.4562 116.271 72.4562 115.58V74.5099C72.4876 73.9134 72.8769 70.8933 75.5266 71.0566C78.3395 71.1822 78.6472 73.9512 78.6785 74.4157V102.577C78.6785 103.463 79.4006 104.185 80.2859 104.185C81.1713 104.185 81.8933 103.463 81.8933 102.577V97.4788H87.0672V103.199C87.0672 104.084 87.7893 104.806 88.6746 104.806C89.5599 104.806 90.282 104.084 90.282 103.199V97.4788H95.2485V103.199C95.2485 104.084 95.9706 104.806 96.8559 104.806C97.7412 104.806 98.4633 104.084 98.4633 103.199V97.4599H99.0598C99.6688 97.4913 105.106 97.9874 105.106 102.973V107.374C105.106 108.26 105.828 108.982 106.714 108.982C107.599 108.982 108.321 108.26 108.321 107.374V102.973C108.321 96.4616 102.388 94.421 99.1602 94.2452L99.0664 94.215Z" fill="#663366"/>
<path d="M70.7617 144.99C69.6504 144.99 68.7525 144.092 68.7525 142.981V131.535L52.0003 110.701C51.6486 110.186 49.9722 107.599 50.8136 104.786C51.1652 103.6 52.1321 101.942 54.6687 100.881C59.8614 98.7274 63.8924 102.633 65.3114 104.994L68.7334 109.527V88.1471C61.563 85.353 56.9355 78.5969 56.9355 70.8676C56.9355 67.2196 57.9966 63.6972 59.9869 60.6581C60.596 59.7288 61.8518 59.4714 62.7685 60.0805C63.6978 60.6895 63.9552 61.9264 63.3462 62.8621C61.789 65.2418 60.9539 68.0044 60.9539 70.8489C60.9539 76.3492 63.9112 81.2341 68.7334 83.7393V74.3335C68.8778 71.8094 70.4663 67.1003 75.5961 67.3578C80.5816 67.5964 82.0886 71.9728 82.189 74.2393V83.7582C86.9798 81.2654 90.0501 76.2674 90.0501 70.8362C90.0501 62.7992 83.5264 56.2754 75.5019 56.2754C73.1725 56.2754 70.9561 56.8029 68.8965 57.864C67.8982 58.36 66.6926 57.977 66.1966 56.9975C65.7006 56.018 66.0836 54.7936 67.0631 54.2976C69.6813 52.9476 72.5256 52.2695 75.5019 52.2695C85.7427 52.2695 94.0689 60.6142 94.0689 70.8494C94.0689 78.4845 89.3095 85.4101 82.1893 88.161V93.7869H99.0669C102.363 93.9627 108.617 96.1038 108.617 102.916V107.318C108.617 108.429 107.719 109.327 106.608 109.327C105.496 109.327 104.599 108.429 104.599 107.318V102.916C104.599 98.2888 99.5189 97.8367 98.9413 97.8053H98.7656V103.142C98.7656 104.254 97.8677 105.152 96.7563 105.152C95.6449 105.152 94.7471 104.254 94.7471 103.142V97.8241H90.5842V103.142C90.5842 104.254 89.6864 105.152 88.575 105.152C87.4636 105.152 86.5658 104.254 86.5658 103.142V97.8241H82.1956V102.521C82.1956 103.632 81.2977 104.53 80.1863 104.53C79.075 104.53 78.1771 103.632 78.1771 102.521V74.3593C78.1457 73.9072 77.8694 71.515 75.4143 71.402C73.0974 71.2764 72.796 73.9386 72.7647 74.4912V115.53C72.7647 116.396 72.2184 117.156 71.3959 117.445C70.5734 117.721 69.6755 117.445 69.1607 116.754L62.0404 107.317C62.0404 107.317 61.9462 107.191 61.896 107.11C61.8018 106.946 59.5666 103.217 56.22 104.604C55.3535 104.975 54.8198 105.427 54.6628 105.954C54.4242 106.789 54.983 107.995 55.2279 108.334L72.3129 129.582C72.6017 129.934 72.7649 130.386 72.7649 130.838V142.988C72.7649 144.099 71.8671 144.997 70.7557 144.997L70.7617 144.99ZM57.6954 101.057C56.8415 101.057 55.9437 101.22 54.9955 101.622C52.7477 102.57 51.9062 104.002 51.586 105.032C50.8451 107.537 52.4525 109.967 52.6472 110.237L69.5441 131.258V142.993C69.5441 143.653 70.0903 144.199 70.7496 144.199C71.4089 144.199 71.9552 143.653 71.9552 142.993V130.844C71.9552 130.568 71.861 130.298 71.6789 130.09L54.5746 108.812C54.267 108.36 53.5323 106.916 53.8839 105.722C54.11 104.95 54.7818 104.322 55.8932 103.858C59.8803 102.2 62.4483 106.526 62.5613 106.702C62.5927 106.752 62.6115 106.784 62.6429 106.827L69.7632 116.265C70.0834 116.685 70.6297 116.842 71.1131 116.685C71.6092 116.522 71.9357 116.057 71.9357 115.543V74.4721C71.9671 74.0388 72.3187 70.4034 75.4393 70.6169C78.6353 70.7613 78.9429 73.995 78.9617 74.3465V102.539C78.9617 103.198 79.508 103.744 80.1673 103.744C80.8266 103.744 81.3728 103.198 81.3728 102.539V97.0382H87.3504V103.16C87.3504 103.819 87.8967 104.366 88.5559 104.366C89.2152 104.366 89.7615 103.819 89.7615 103.16V97.0382H95.5317V103.16C95.5317 103.819 96.078 104.366 96.7372 104.366C97.3965 104.366 97.9428 103.819 97.9428 103.16V97.0194H98.9411C99.6193 97.0697 105.39 97.5845 105.39 102.934V107.336C105.39 107.995 105.936 108.541 106.595 108.541C107.254 108.541 107.801 107.995 107.801 107.336V102.934C107.801 96.7306 102.081 94.7717 99.0228 94.6083H81.3736V87.6136L81.6311 87.5194C88.5755 84.945 93.2533 78.2581 93.2533 70.8685C93.2533 61.0608 85.2792 53.0923 75.49 53.0923C72.6457 53.0923 69.927 53.7516 67.4217 55.0199C66.8252 55.3276 66.5992 56.0496 66.8943 56.6461C67.2019 57.2426 67.924 57.4686 68.5205 57.1735C70.693 56.0621 73.035 55.5033 75.4962 55.5033C83.9664 55.5033 90.8481 62.3975 90.8481 70.8677C90.8481 76.8138 87.357 82.2827 81.9573 84.8068L81.3796 85.0831V74.3149C81.2855 72.3056 79.9669 68.4127 75.5591 68.2055C71.0759 68.0297 69.6757 71.998 69.5314 74.3965V85.0518L68.9537 84.7755C63.5225 82.2389 60.1444 76.9018 60.1444 70.8741C60.1444 67.854 61.0109 64.9406 62.6685 62.4353C63.039 61.8702 62.8757 61.1356 62.3294 60.7651C61.7644 60.3946 61.0297 60.5579 60.6592 61.1167C58.7442 64.0113 57.7521 67.3829 57.7521 70.874C57.7521 78.3648 62.2854 84.8886 69.2927 87.5138L69.5501 87.6079V111.926L64.6463 105.434C63.604 103.682 61.0484 101.064 57.6893 101.064L57.6954 101.057Z" fill="#663366"/>
<path d="M106.626 116.843C105.741 116.843 105.019 117.565 105.019 118.45V121.037C104.843 121.967 103.506 128.434 99.2487 131.134C98.7841 131.423 98.5078 131.937 98.5078 132.484V142.963C98.5078 143.848 99.2299 144.57 100.115 144.57C101.001 144.57 101.723 143.848 101.723 142.963V133.319C106.576 129.652 107.989 122.676 108.184 121.552C108.215 121.427 108.234 121.314 108.234 121.182V118.432C108.234 117.546 107.512 116.824 106.626 116.824L106.626 116.843Z" fill="#663366"/>
<path d="M100.116 144.988C99.0043 144.988 98.1064 144.09 98.1064 142.979V132.5C98.1064 131.809 98.4581 131.181 99.0357 130.811C103.18 128.173 104.486 121.712 104.63 120.972V118.466C104.63 117.355 105.528 116.457 106.639 116.457C107.751 116.457 108.649 117.355 108.649 118.466V121.216C108.649 121.38 108.63 121.524 108.598 121.681C108.372 123 106.96 129.8 102.138 133.542V142.991C102.138 144.103 101.24 145.001 100.128 145.001L100.116 144.988ZM106.627 117.241C105.968 117.241 105.421 117.788 105.421 118.447V121.034C105.183 122.352 103.814 128.719 99.4753 131.463C99.1237 131.689 98.9102 132.072 98.9102 132.474V142.953C98.9102 143.613 99.4565 144.159 100.116 144.159C100.775 144.159 101.321 143.613 101.321 142.953V133.114L101.485 133.001C106.288 129.385 107.657 122.277 107.801 121.492C107.832 121.379 107.832 121.285 107.832 121.185V118.434C107.832 117.775 107.286 117.229 106.627 117.229L106.627 117.241Z" fill="#663366"/>
</svg>
