<svg width="150" height="150" viewBox="0 0 150 150" fill="none" xmlns="http://www.w3.org/2000/svg">
<mask id="mask0_672_701" style="mask-type:luminance" maskUnits="userSpaceOnUse" x="5" y="5" width="140" height="140">
<path d="M5 5H145V145H5V5Z" fill="white"/>
</mask>
<g mask="url(#mask0_672_701)">
<path d="M91.3598 24.6362C112.63 31.5323 128.011 51.5069 128.011 75.0772C128.011 104.357 104.274 128.094 74.9945 128.094C45.7148 128.094 21.9805 104.357 21.9805 75.0772C21.9805 51.5042 37.3668 31.5238 58.643 24.6335" stroke="#663366" stroke-width="4.10156" stroke-miterlimit="10" stroke-linecap="round" stroke-linejoin="round"/>
<path d="M21.9805 75.0781V40.7705" stroke="#663366" stroke-width="4.10156" stroke-miterlimit="10" stroke-linecap="round" stroke-linejoin="round"/>
<path d="M15.8086 10.1953H27.2416" stroke="#663366" stroke-width="4.10156" stroke-miterlimit="10" stroke-linecap="round" stroke-linejoin="round"/>
<path d="M30.0844 26.0244V31.1164C30.0844 35.8436 26.2521 39.6758 21.525 39.6758C16.7978 39.6758 12.9658 35.8436 12.9658 31.1164V26.0244" stroke="#663366" stroke-width="4.10156" stroke-miterlimit="10" stroke-linecap="round" stroke-linejoin="round"/>
<path d="M30.7058 24.9336H12.3439C11.4545 24.9336 10.7334 24.2123 10.7334 23.3228V19.146C10.7334 18.2565 11.4545 17.5355 12.3439 17.5355H30.7058C31.5953 17.5355 32.3166 18.2565 32.3166 19.146V23.3228C32.3166 24.2123 31.5953 24.9336 30.7058 24.9336Z" stroke="#663366" stroke-width="4.10156" stroke-miterlimit="10" stroke-linecap="round" stroke-linejoin="round"/>
<path d="M14.7139 16.4414V7.05156" stroke="#663366" stroke-width="4.10156" stroke-miterlimit="10" stroke-linecap="round" stroke-linejoin="round"/>
<path d="M28.335 16.4414V7.05156" stroke="#663366" stroke-width="4.10156" stroke-miterlimit="10" stroke-linecap="round" stroke-linejoin="round"/>
<path d="M128.021 74.9189V109.5" stroke="#663366" stroke-width="4.10156" stroke-miterlimit="10" stroke-linecap="round" stroke-linejoin="round"/>
<path d="M122.758 139.805H134.191" stroke="#663366" stroke-width="4.10156" stroke-miterlimit="10" stroke-linecap="round" stroke-linejoin="round"/>
<path d="M137.034 123.973V118.88C137.034 114.153 133.201 110.321 128.474 110.321C123.747 110.321 119.915 114.153 119.915 118.88V123.973" stroke="#663366" stroke-width="4.10156" stroke-miterlimit="10" stroke-linecap="round" stroke-linejoin="round"/>
<path d="M133.005 132.461H137.656C138.546 132.461 139.266 131.74 139.266 130.85V126.674C139.266 125.784 138.546 125.063 137.656 125.063H119.294C118.405 125.063 117.684 125.784 117.684 126.674V130.85C117.684 131.74 118.405 132.461 119.294 132.461H124.075" stroke="#663366" stroke-width="4.10156" stroke-miterlimit="10" stroke-linecap="round" stroke-linejoin="round"/>
<path d="M121.664 133.559V142.949" stroke="#663366" stroke-width="4.10156" stroke-miterlimit="10" stroke-linecap="round" stroke-linejoin="round"/>
<path d="M135.284 133.559V142.949" stroke="#663366" stroke-width="4.10156" stroke-miterlimit="10" stroke-linecap="round" stroke-linejoin="round"/>
<path d="M106.923 57.0095H112.537C114.522 57.0095 116.132 58.6192 116.132 60.6043C116.132 62.5898 114.522 64.1992 112.537 64.1992H111.298" stroke="#663366" stroke-width="4.10156" stroke-miterlimit="10" stroke-linecap="round" stroke-linejoin="round"/>
<path d="M38.976 64.1992H37.4633C35.4779 64.1992 33.8682 62.5898 33.8682 60.6046C33.8682 58.6192 35.4779 57.0095 37.4633 57.0095H43.0775" stroke="#663366" stroke-width="4.10156" stroke-miterlimit="10" stroke-linecap="round" stroke-linejoin="round"/>
<path d="M86.0527 44.0523H91.1469C96.9738 44.0523 102.142 47.7984 103.952 53.3383L106.539 61.2461" stroke="#663366" stroke-width="4.10156" stroke-miterlimit="10" stroke-linecap="round" stroke-linejoin="round"/>
<path d="M43.4619 61.2461L46.0486 53.3383C47.8588 47.7984 53.0265 44.0523 58.8537 44.0523H63.9506" stroke="#663366" stroke-width="4.10156" stroke-miterlimit="10" stroke-linecap="round" stroke-linejoin="round"/>
<path d="M48.8074 93.716V97.4044C48.8074 99.0232 47.4949 100.336 45.8762 100.336H39.653C38.0312 100.336 36.7188 99.0232 36.7188 97.4044V91.9496" stroke="#663366" stroke-width="4.10156" stroke-miterlimit="10" stroke-linecap="round" stroke-linejoin="round"/>
<path d="M113.282 91.9496V97.4044C113.282 99.0232 111.97 100.336 110.348 100.336H104.125C102.506 100.336 101.193 99.0232 101.193 97.4044V93.716" stroke="#663366" stroke-width="4.10156" stroke-miterlimit="10" stroke-linecap="round" stroke-linejoin="round"/>
<path d="M88.2295 86.5117H94.9336C95.4441 86.5117 95.9339 86.3088 96.2948 85.9476L97.7637 84.4787C98.8252 83.4175 100.265 82.8211 101.766 82.8211H113.807" stroke="#663366" stroke-width="4.10156" stroke-miterlimit="10" stroke-linecap="round" stroke-linejoin="round"/>
<path d="M36.1943 82.8211H48.2346C49.7358 82.8211 51.1757 83.4175 52.2372 84.4787L53.7061 85.9479C54.067 86.3088 54.5568 86.5117 55.0673 86.5117H61.7714" stroke="#663366" stroke-width="4.10156" stroke-miterlimit="10" stroke-linecap="round" stroke-linejoin="round"/>
<path d="M35.1006 81.2991V87.3949C35.1006 90.5834 37.6854 93.168 40.8737 93.168H109.127C112.315 93.168 114.9 90.5834 114.9 87.3949V69.188C114.9 67.4832 113.954 65.9186 112.443 65.127L106.997 62.272C106.432 61.9759 105.804 61.8214 105.166 61.8214H44.8347C44.197 61.8214 43.5689 61.9759 43.0038 62.272L37.5569 65.127C36.047 65.9186 35.1006 67.4832 35.1006 69.188V72.3684" stroke="#663366" stroke-width="4.10156" stroke-miterlimit="10" stroke-linecap="round" stroke-linejoin="round"/>
<path d="M37.9668 65.7518L39.5719 70.5555C40.0468 71.9774 41.283 73.0099 42.7667 73.2243L50.8408 74.3913C51.5769 74.4777 52.3173 74.2647 52.8948 73.7999L55.5748 71.6413C56.4498 70.937 56.1611 69.5378 55.0785 69.237L45.7198 66.6358C45.6449 66.615 45.5711 66.5912 45.4981 66.5642L39.8275 64.4584C38.9257 64.1235 37.9668 64.7901 37.9668 65.7518Z" stroke="#663366" stroke-width="4.10156" stroke-miterlimit="10" stroke-linecap="round" stroke-linejoin="round"/>
<path d="M111.914 66.1703L110.449 70.5557C109.973 71.9773 108.738 73.0101 107.254 73.2244L99.1798 74.3912C98.4431 74.4779 97.703 74.2649 97.1255 73.7998L94.4458 71.6415C93.5708 70.9371 93.8595 69.5377 94.9418 69.2372L104.3 66.636C104.376 66.6152 104.449 66.5914 104.522 66.5641L110.193 64.4583C110.494 64.3468 110.801 64.3462 111.076 64.4312C111.793 64.6514 112.151 65.4594 111.914 66.1703Z" stroke="#663366" stroke-width="4.10156" stroke-miterlimit="10" stroke-linecap="round" stroke-linejoin="round"/>
<path d="M87.683 86.5117H62.3184V75.814C62.3184 75.0019 62.9768 74.3438 63.7886 74.3438H86.2127C87.0248 74.3438 87.683 75.0019 87.683 75.814V86.5117Z" stroke="#663366" stroke-width="4.10156" stroke-miterlimit="10" stroke-linecap="round" stroke-linejoin="round"/>
<path d="M87.0332 74.3441L98.0866 74.3906" stroke="#663366" stroke-width="4.10156" stroke-miterlimit="10" stroke-linecap="round" stroke-linejoin="round"/>
<path d="M62.9676 74.3441L51.9336 74.3906" stroke="#663366" stroke-width="4.10156" stroke-miterlimit="10" stroke-linecap="round" stroke-linejoin="round"/>
<path d="M79.4923 46.5748C86.4721 44.6156 91.5922 38.2095 91.5922 30.6039C91.5922 21.4404 84.164 14.0122 75.0005 14.0122C65.8374 14.0122 58.4092 21.4404 58.4092 30.6039C58.4092 38.2289 63.5547 44.6482 70.5616 46.5898" stroke="#663366" stroke-width="4.10156" stroke-miterlimit="10" stroke-linecap="round" stroke-linejoin="round"/>
<path d="M77.7836 25.0902L72.3662 29.9423L77.6351 31.2731L72.2178 36.125" stroke="#663366" stroke-width="4.10156" stroke-miterlimit="10" stroke-linecap="round" stroke-linejoin="round"/>
<path d="M70.4746 75.5435V85.4688" stroke="#663366" stroke-width="4.10156" stroke-miterlimit="10" stroke-linecap="round" stroke-linejoin="round"/>
<path d="M79.5264 75.5435V85.4688" stroke="#663366" stroke-width="4.10156" stroke-miterlimit="10" stroke-linecap="round" stroke-linejoin="round"/>
</g>
</svg>
