<svg width="150" height="150" viewBox="0 0 150 150" fill="none" xmlns="http://www.w3.org/2000/svg">
<path d="M131.482 13H18.5194C13.822 13 10 16.8089 10 21.4933V108.075C10 112.758 13.822 116.569 18.5194 116.569H61.1166L58.3447 127.284H46.6055C45.1972 127.284 44.0517 127.722 43.1995 128.587C41.6452 130.167 41.69 132.593 41.7232 134.365C41.7276 134.601 41.7319 134.828 41.7319 135.044C41.7319 136.124 42.6101 137 43.6935 137H106.305C107.388 137 108.267 136.124 108.267 135.044C108.267 134.828 108.271 134.601 108.275 134.365C108.309 132.593 108.355 130.167 106.799 128.587C105.948 127.723 104.803 127.284 103.394 127.284H91.6553L88.8834 116.569H131.481C136.178 116.569 140 112.758 140 108.075V21.4933C140.001 16.8089 136.179 13 131.482 13ZM104.001 131.326C104.255 131.584 104.336 132.34 104.356 133.089H45.6435C45.6652 132.341 45.7461 131.584 45.9988 131.326C46.0797 131.244 46.3065 131.195 46.6041 131.195H59.8512C59.8556 131.195 59.8599 131.197 59.8642 131.197C59.8671 131.197 59.87 131.195 59.8743 131.195H90.1257C90.1286 131.195 90.1329 131.197 90.1358 131.197C90.1401 131.197 90.1444 131.195 90.1488 131.195H103.396C103.693 131.195 103.92 131.244 104.001 131.326ZM87.6065 127.284H62.3949L65.1668 116.569H84.8332L87.6065 127.284ZM136.078 108.075C136.078 110.603 134.016 112.659 131.481 112.659H18.5194C15.9844 112.659 13.9217 110.603 13.9217 108.075V21.4933C13.9217 18.9661 15.9844 16.9097 18.5194 16.9097H131.482C134.017 16.9097 136.08 18.9661 136.08 21.4933V108.075H136.078ZM130.308 21.1391H19.6938C18.6104 21.1391 17.7322 22.0146 17.7322 23.0946V106.476C17.7322 107.556 18.6104 108.431 19.6938 108.431H130.308C131.391 108.431 132.269 107.556 132.269 106.476V23.0946C132.269 22.0146 131.391 21.1391 130.308 21.1391ZM128.346 104.519H21.6554V25.0488H128.348L128.346 104.519ZM87.9156 32.7443L92.5697 36.173L90.5388 41.0375C90.2383 41.7546 90.3943 42.5812 90.9346 43.1428C95.5019 47.8877 101.002 50.2897 107.295 50.2897C107.579 50.2897 107.865 50.2854 108.153 50.2753C108.92 50.2494 109.601 49.7799 109.896 49.0729L111.928 44.2099L115.178 44.7096L114.478 46.3959L111.645 50.0982C111.228 50.644 111.128 51.3683 111.382 52.0062C111.637 52.6442 112.207 53.1021 112.887 53.213L113.708 53.3469L114.338 53.8106C114.68 54.0626 115.09 54.1922 115.502 54.1922C115.758 54.1922 116.016 54.1418 116.26 54.0396C116.897 53.7732 117.347 53.1928 117.443 52.5103L118.098 47.8978L119.757 43.9046C119.796 43.811 119.825 43.7145 119.848 43.6195C119.853 43.6036 119.857 43.5878 119.86 43.5719C119.88 43.4769 119.895 43.3833 119.9 43.2883C119.902 43.2739 119.902 43.258 119.902 43.2436C119.906 43.1457 119.905 43.0463 119.895 42.9499C119.884 42.8534 119.864 42.7583 119.84 42.6647C119.835 42.6489 119.832 42.6345 119.828 42.6186C119.802 42.5308 119.77 42.4444 119.733 42.3609C119.726 42.3436 119.717 42.3263 119.708 42.309C119.668 42.2255 119.622 42.1434 119.57 42.0657C119.564 42.057 119.557 42.0484 119.551 42.0398C119.496 41.962 119.437 41.8885 119.37 41.818C119.364 41.8122 119.36 41.8065 119.354 41.7993C119.285 41.7273 119.208 41.6625 119.128 41.6005C119.12 41.5948 119.116 41.589 119.109 41.5847L106.159 32.0459C105.904 31.8573 105.606 31.7349 105.293 31.6859L89.3789 29.2422C88.4891 29.1054 87.6166 29.5921 87.27 30.423C86.9233 31.251 87.1891 32.2101 87.9156 32.7443ZM106.773 46.3728C102.154 46.2605 98.1713 44.6001 94.6671 41.3255L95.8197 38.5664L100.867 42.2831C101.122 42.4718 101.42 42.5942 101.733 42.6431L107.934 43.595L106.773 46.3728ZM104.218 35.4746L110.381 40.0151L102.807 38.8515L96.6431 34.3111L104.218 35.4746ZM42.1551 37.3928V36.3055C42.1551 35.2255 43.0334 34.35 44.1167 34.35C45.2001 34.35 46.0783 35.2255 46.0783 36.3055V37.3928C46.0783 38.4728 45.2001 39.3483 44.1167 39.3483C43.0334 39.3469 42.1551 38.4713 42.1551 37.3928ZM34.2034 41.2089C33.4378 40.4456 33.4378 39.2072 34.2034 38.444C34.9689 37.6808 36.2112 37.6808 36.9767 38.444L37.7481 39.213C38.5136 39.9762 38.5136 41.2146 37.7481 41.9778C37.3653 42.3594 36.8626 42.551 36.3614 42.551C35.8602 42.551 35.3575 42.3594 34.9747 41.9778L34.2034 41.2089ZM30.0968 48.327C30.0968 47.2469 30.975 46.3714 32.0584 46.3714H33.1489C34.2323 46.3714 35.1105 47.2469 35.1105 48.327C35.1105 49.407 34.2323 50.2825 33.1489 50.2825H32.0584C30.975 50.2811 30.0968 49.4055 30.0968 48.327ZM55.0845 46.3714H56.1751C57.2584 46.3714 58.1366 47.2469 58.1366 48.327C58.1366 49.407 57.2584 50.2825 56.1751 50.2825H55.0845C54.0012 50.2825 53.1229 49.407 53.1229 48.327C53.1229 47.2469 54.0012 46.3714 55.0845 46.3714ZM50.4853 41.9778C49.7198 41.2146 49.7198 39.9762 50.4853 39.213L51.2567 38.444C52.0222 37.6808 53.2645 37.6808 54.03 38.444C54.7956 39.2072 54.7956 40.4456 54.03 41.2089L53.2587 41.9778C52.8759 42.3594 52.3732 42.551 51.872 42.551C51.3708 42.5495 50.8681 42.3594 50.4853 41.9778ZM44.238 67.1165C47.3624 67.1165 49.9047 64.5821 49.9047 61.4673V59.5607C49.9047 57.9622 50.3409 56.6115 51.2769 55.3126C52.3501 53.8236 52.9164 52.0667 52.9164 50.2292C52.9164 45.421 48.9918 41.5084 44.1687 41.5084C39.3457 41.5084 35.4211 45.421 35.4211 50.2292C35.4211 52.0667 35.9873 53.825 37.0605 55.3126C37.9965 56.6115 38.4328 57.9608 38.4328 59.5607V61.4673C38.4328 64.5821 40.975 67.1165 44.0994 67.1165H44.238ZM39.3442 50.2292C39.3442 47.5767 41.508 45.4195 44.1687 45.4195C46.8294 45.4195 48.9932 47.5767 48.9932 50.2292C48.9932 51.243 48.6812 52.2122 48.0904 53.0315C47.0966 54.4111 46.4611 55.8727 46.1693 57.4582V55.8295C46.1693 54.7495 45.2911 53.874 44.2077 53.874C43.1244 53.874 42.2461 54.7495 42.2461 55.8295V57.5633H42.184C41.9009 55.9375 41.261 54.4413 40.2456 53.0315C39.6562 52.2122 39.3442 51.243 39.3442 50.2292ZM42.3559 61.473H45.9815C45.9786 62.4292 45.1972 63.2068 44.238 63.2068H44.0994C43.1388 63.2068 42.3588 62.4292 42.3559 61.473ZM44.6468 72.0847C44.5789 72.0933 44.5111 72.1077 44.4446 72.1235C44.4287 72.1278 44.4143 72.1322 44.3998 72.1365C44.3565 72.148 44.3132 72.161 44.2698 72.1754C44.2467 72.1826 44.225 72.1927 44.2019 72.2013C44.1687 72.2143 44.134 72.2287 44.1023 72.2431C44.0777 72.2546 44.0532 72.2661 44.03 72.2776C43.9997 72.2935 43.9694 72.3093 43.9405 72.3251C43.9174 72.3381 43.8943 72.3525 43.8712 72.3655C43.8408 72.3842 43.8119 72.4043 43.7816 72.4259C43.7614 72.4403 43.7426 72.4533 43.7238 72.4677C43.692 72.4922 43.6603 72.5181 43.6299 72.544C43.6155 72.557 43.5996 72.5685 43.5852 72.5815C43.5505 72.6131 43.5173 72.6477 43.484 72.6823C43.4754 72.6909 43.4667 72.6995 43.458 72.7096C43.4205 72.7514 43.3829 72.796 43.3483 72.8421C43.3454 72.845 43.3439 72.8479 43.341 72.8507C43.2688 72.9472 43.2038 73.0524 43.1489 73.1647C43.1489 73.1661 43.1475 73.1676 43.1475 73.169C43.146 73.1704 43.146 73.1719 43.1446 73.1733C40.1401 79.3323 40.1748 84.9341 43.25 89.8244C43.497 90.2161 43.874 90.5085 44.3175 90.6481L74.6021 100.258C74.6165 100.262 74.6309 100.263 74.6454 100.268C74.7075 100.286 74.7725 100.301 74.8361 100.312C74.8649 100.318 74.8938 100.325 74.9227 100.329C75.0007 100.341 75.0802 100.347 75.1611 100.348C75.1726 100.348 75.1856 100.351 75.1972 100.351C75.2261 100.351 75.2521 100.345 75.281 100.344C75.3459 100.341 75.4109 100.34 75.4774 100.329L75.5005 100.327C75.5034 100.327 75.5063 100.325 75.5092 100.325L112.521 94.9971C113.592 94.843 114.336 93.8508 114.182 92.7823C114.027 91.7138 113.03 90.9736 111.96 91.1262L111.037 91.2587C108.583 87.9135 108.579 84.4387 111.015 80.4484L112.519 80.2324C112.523 80.2324 112.528 80.2309 112.532 80.2295C112.551 80.2266 112.57 80.2223 112.588 80.218C112.665 80.205 112.739 80.1863 112.811 80.1647C112.83 80.1589 112.847 80.1546 112.866 80.1488C112.952 80.12 113.036 80.0855 113.116 80.0452C113.127 80.0394 113.137 80.0336 113.147 80.0279C113.224 79.9876 113.298 79.9429 113.368 79.894C113.377 79.8882 113.386 79.8824 113.393 79.8767C113.465 79.8248 113.533 79.7658 113.597 79.7053C113.613 79.6909 113.627 79.6751 113.641 79.6607C113.702 79.5973 113.761 79.5325 113.813 79.462C113.822 79.4504 113.829 79.4389 113.836 79.4274C113.884 79.3597 113.927 79.2891 113.968 79.2157C113.975 79.2013 113.984 79.1869 113.991 79.1725C114.033 79.0875 114.069 79.0011 114.099 78.9104C114.102 78.9032 114.105 78.8975 114.108 78.8903C114.112 78.8773 114.114 78.8658 114.118 78.8528C114.13 78.8139 114.14 78.7736 114.15 78.7333C114.156 78.7074 114.161 78.6829 114.166 78.657C114.173 78.621 114.179 78.585 114.183 78.549C114.187 78.5187 114.19 78.4871 114.193 78.4568C114.196 78.4266 114.198 78.3963 114.199 78.3661C114.2 78.3286 114.2 78.2912 114.2 78.2552C114.2 78.2293 114.199 78.2048 114.198 78.1789C114.195 78.1371 114.192 78.0954 114.186 78.055C114.185 78.0421 114.185 78.0306 114.183 78.0176C114.182 78.0061 114.179 77.996 114.176 77.9845C114.169 77.9442 114.161 77.9053 114.153 77.8664C114.147 77.8405 114.141 77.8146 114.134 77.7886C114.125 77.7555 114.115 77.7224 114.104 77.6907C114.094 77.6605 114.083 77.6302 114.072 77.6014C114.062 77.5741 114.05 77.5467 114.039 77.5208C114.024 77.4891 114.011 77.4574 113.995 77.4257C113.982 77.4013 113.969 77.3768 113.955 77.3523C113.938 77.3221 113.922 77.2918 113.903 77.263C113.887 77.2371 113.868 77.2112 113.851 77.1867C113.834 77.1622 113.816 77.1363 113.797 77.1133C113.774 77.0844 113.751 77.0557 113.727 77.0269C113.711 77.0081 113.696 76.9908 113.68 76.9736C113.652 76.9419 113.62 76.9116 113.588 76.8814C113.575 76.8684 113.562 76.8569 113.549 76.844C113.514 76.8137 113.478 76.7835 113.441 76.7547C113.428 76.7446 113.416 76.7345 113.403 76.7259C113.367 76.6985 113.328 76.674 113.289 76.6496C113.273 76.6395 113.257 76.6294 113.241 76.6193C113.205 76.5977 113.169 76.579 113.133 76.5603C113.111 76.5488 113.088 76.5372 113.067 76.5272C113.035 76.5128 113.002 76.4984 112.968 76.4854C112.938 76.4739 112.909 76.4624 112.877 76.4523C112.863 76.448 112.85 76.4408 112.835 76.4364L93.0464 70.1564C94.6093 67.5039 95.5092 64.4193 95.5092 61.126C95.5092 51.2589 87.4577 43.2321 77.5603 43.2321C67.6629 43.2321 59.6114 51.2589 59.6114 61.126C59.6114 64.1976 60.3929 67.092 61.7666 69.6208L44.6468 72.0847ZM45.9916 76.4177L72.5336 84.839C71.1122 88.5299 70.8306 92.0061 71.6857 95.2318L46.2198 87.1517C44.4634 83.9736 44.3868 80.4441 45.9916 76.4177ZM106.795 91.8722L76.2487 96.27C74.6642 93.0602 74.7581 89.4889 76.5319 85.4151L106.299 81.1295C104.8 84.8707 104.968 88.5039 106.795 91.8722ZM103.509 77.5813L75.3618 81.6335L53.6429 74.7415L64.3262 73.2036C67.6094 76.7763 72.3256 79.0213 77.5574 79.0213C82.6593 79.0213 87.2671 76.8843 90.5388 73.4656L103.509 77.5813ZM77.5589 47.1432C85.2939 47.1432 91.586 53.416 91.586 61.1274C91.586 68.8388 85.2939 75.1102 77.5589 75.1102C69.8252 75.1102 63.5332 68.8374 63.5332 61.1274C63.5332 53.4175 69.8252 47.1432 77.5589 47.1432ZM94.4504 88.154C94.6049 89.2225 93.861 90.2133 92.7893 90.3688L81.4892 91.996C81.3939 92.009 81.3 92.0162 81.2061 92.0162C80.247 92.0162 79.4092 91.3134 79.2677 90.34C79.1131 89.2715 79.857 88.2793 80.9288 88.1252L92.2288 86.498C93.302 86.3453 94.2958 87.0855 94.4504 88.154ZM103.987 86.7817C104.141 87.8502 103.397 88.8423 102.326 88.9964L97.491 89.692C97.3956 89.7049 97.3018 89.7121 97.2079 89.7121C96.2487 89.7121 95.4109 89.0094 95.2694 88.0359C95.1148 86.9674 95.8587 85.9752 96.9305 85.8211L101.765 85.1256C102.838 84.973 103.832 85.7117 103.987 86.7817ZM73.7903 67.4521C74.0965 67.6306 74.4388 67.7213 74.7826 67.7213C75.1119 67.7213 75.4413 67.6393 75.7388 67.4737L84.0676 62.8353C84.6873 62.4897 85.0729 61.8374 85.0729 61.1289C85.0729 60.4204 84.6887 59.768 84.0676 59.4224L75.7388 54.7841C75.1307 54.4457 74.3897 54.4543 73.7903 54.8042C73.1908 55.1556 72.821 55.7964 72.821 56.4905V65.7672C72.821 66.4584 73.1908 67.1007 73.7903 67.4521ZM76.7442 59.8199L79.09 61.126L76.7442 62.4321V59.8199Z" fill="#663366"/>
</svg>
