<svg width="150" height="150" viewBox="0 0 150 150" fill="none" xmlns="http://www.w3.org/2000/svg">
<path d="M63.6155 116.297H55.7422C53.0929 116.297 50.9375 118.454 50.9375 121.105C50.9375 123.757 53.0929 125.913 55.7422 125.913H63.6155C66.2648 125.913 68.4202 123.757 68.4202 121.105C68.4202 118.454 66.2648 116.297 63.6155 116.297ZM63.6155 122.09H55.7422C55.2002 122.09 54.7584 121.648 54.7584 121.105C54.7584 120.563 55.2002 120.121 55.7422 120.121H63.6155C64.1575 120.121 64.5993 120.563 64.5993 121.105C64.5993 121.648 64.1589 122.09 63.6155 122.09ZM54.9701 87.8924H33.7909C32.7351 87.8924 31.8811 88.7483 31.8811 89.8035V97.7176C31.8811 98.7741 32.7365 99.6286 33.7909 99.6286H54.9701C56.0259 99.6286 56.8799 98.7727 56.8799 97.7176V89.8035C56.8813 88.7483 56.0259 87.8924 54.9701 87.8924ZM53.0604 95.8065H35.7006V91.7159H53.059L53.0604 95.8065ZM27.7794 44.4136L36.1339 47.9546V59.6174C36.1339 60.3717 36.5757 61.0539 37.2631 61.3618C42.9133 63.8944 50.1725 65.2885 57.7028 65.2885C65.233 65.2885 72.4923 63.8944 78.1425 61.3618C78.8298 61.0539 79.2716 60.3703 79.2716 59.6174V47.9546L84.9698 45.5393V51.7514L81.8546 53.8715C81.3324 54.2274 81.0191 54.8193 81.0191 55.452V63.8125C81.0191 64.5343 81.4256 65.1953 82.0706 65.5202C82.3416 65.6572 82.6366 65.725 82.9302 65.725C83.3325 65.725 83.7319 65.5979 84.0679 65.3493L86.8823 63.263L89.6968 65.3493C90.2756 65.7787 91.049 65.845 91.6927 65.5202C92.3377 65.1953 92.7442 64.5343 92.7442 63.8125V55.452C92.7442 54.8193 92.4309 54.2274 91.9086 53.8715L88.7935 51.7514V42.8175C88.7935 42.7864 88.7893 42.7567 88.7879 42.7271C88.7893 42.7016 88.7935 42.6776 88.7935 42.6522C88.7935 41.8838 88.3348 41.1917 87.629 40.8922L58.4509 28.5232C57.9738 28.3212 57.4374 28.3212 56.9603 28.5232L27.7822 40.8922C27.0764 41.1917 26.6177 41.8852 26.6177 42.6522C26.6149 43.422 27.0736 44.1141 27.7794 44.4136ZM75.4522 58.3533C70.4541 60.3661 64.2069 61.4664 57.7042 61.4664C51.2001 61.4664 44.9543 60.3661 39.9548 58.3533V49.5747L56.9589 56.7826C57.1975 56.8843 57.4501 56.9337 57.7042 56.9337C57.9583 56.9337 58.2109 56.8829 58.4494 56.7826L75.4522 49.5747V58.3533ZM88.9219 60.0186L88.0186 59.3491C87.3439 58.8491 86.4208 58.8491 85.7447 59.3491L84.8399 60.0186V56.4648L86.8809 55.0763L88.9219 56.4648V60.0186ZM57.7028 32.3609L77.4734 40.7425H63.1469C62.0911 40.7425 61.2371 41.5985 61.2371 42.6536C61.2371 43.7087 62.0925 44.5647 63.1469 44.5647H77.4734L57.7028 52.9463L33.4225 42.6536L57.7028 32.3609ZM33.7909 82.5066H46.0298C47.0856 82.5066 47.9395 81.6506 47.9395 80.5941V72.68C47.9395 71.6235 47.0842 70.7689 46.0298 70.7689H33.7909C32.7351 70.7689 31.8811 71.6249 31.8811 72.68V80.5941C31.8797 81.6506 32.7351 82.5066 33.7909 82.5066ZM35.7006 74.5925H44.1187V78.683H35.7006V74.5925ZM65.799 70.7689H53.5601C52.5043 70.7689 51.6503 71.6249 51.6503 72.68V80.5941C51.6503 81.6506 52.5057 82.5066 53.5601 82.5066H65.799C66.8548 82.5066 67.7088 81.6506 67.7088 80.5941V72.68C67.7088 71.6249 66.8534 70.7689 65.799 70.7689ZM63.8879 78.683H55.4698V74.5925H63.8879V78.683ZM85.5683 70.7689H73.3293C72.2735 70.7689 71.4196 71.6249 71.4196 72.68V80.5941C71.4196 81.6506 72.2749 82.5066 73.3293 82.5066H85.5683C86.624 82.5066 87.478 81.6506 87.478 80.5941V72.68C87.478 71.6249 86.6226 70.7689 85.5683 70.7689ZM83.6571 78.683H75.239V74.5925H83.6571V78.683ZM128.562 121.29L126.947 118.491C126.51 117.734 125.803 117.191 124.957 116.964C124.695 116.893 124.429 116.861 124.164 116.855C123.042 112.426 121.891 109.238 120.251 105.923C120.233 105.886 120.215 105.851 120.193 105.815L114.449 95.8573C113.067 93.4632 109.997 92.6397 107.604 94.0225C107.189 94.2626 106.822 94.5522 106.506 94.8799C105.805 94.1751 104.925 93.6638 103.936 93.3982C102.459 93.0027 100.921 93.2033 99.604 93.9646C99.134 94.2358 98.719 94.5649 98.3591 94.9378V16.9098C98.3591 13.099 95.2609 10 91.4541 10H76.7366C76.7338 10 76.731 10 76.7281 10H42.6324C42.6267 10 42.6211 10 42.6154 10H27.905C24.0982 10 21 13.1004 21 16.9098V124.42C21 128.23 24.0982 131.33 27.905 131.33H91.4527C93.011 131.33 94.51 130.793 95.714 129.846C96.4226 130.453 97.0366 131.147 97.6026 131.97C97.3612 132.296 97.1805 132.668 97.0718 133.072C96.8446 133.919 96.9603 134.804 97.3979 135.561L99.0126 138.36C99.6196 139.411 100.723 140 101.857 140C102.413 140 102.976 139.859 103.49 139.561L127.359 125.769C128.116 125.331 128.658 124.624 128.885 123.776C129.114 122.932 128.998 122.047 128.562 121.29ZM101.512 97.2754C101.946 97.0254 102.455 96.9591 102.945 97.0904C103.436 97.2218 103.844 97.5339 104.094 97.9676L105.769 100.87C106.297 101.784 107.466 102.098 108.379 101.569C109.292 101.041 109.606 99.8716 109.078 98.9577C108.756 98.3984 108.955 97.654 109.513 97.3319C110.072 97.0099 110.815 97.2091 111.137 97.767L116.851 107.671C118.418 110.845 119.506 113.94 120.6 118.367L100.766 129.826C99.4572 127.916 97.9046 126.476 95.8876 125.312L79.8165 116.026C78.9145 115.505 78.604 114.345 79.1248 113.443C79.6457 112.54 80.8045 112.229 81.7064 112.751L89.0334 116.984C89.7829 117.416 90.7286 117.292 91.3398 116.68C91.951 116.068 92.0752 115.122 91.6433 114.372L80.2568 94.6355C79.736 93.733 80.0465 92.5733 80.9485 92.0521C81.3818 91.8021 81.8913 91.7357 82.3811 91.8671C82.8709 91.9984 83.2788 92.3092 83.5301 92.7442L92.8063 108.822C93.1606 109.435 93.8028 109.779 94.462 109.779C94.7866 109.779 95.1141 109.695 95.4162 109.522C96.3294 108.993 96.6427 107.824 96.1149 106.91L93.0378 101.578L93.035 101.572C92.5184 100.67 92.8289 99.5156 93.7295 98.9944C94.6314 98.4732 95.7902 98.784 96.311 99.6865L99.3881 105.019C99.7424 105.632 100.385 105.975 101.044 105.975C101.368 105.975 101.696 105.892 101.998 105.718C102.911 105.19 103.224 104.021 102.697 103.106L100.821 99.8546L100.818 99.849C100.301 98.9521 100.612 97.7952 101.512 97.2754ZM76.5898 95.8065H66.2987V91.7159H76.539C76.0633 93.0098 76.0549 94.4674 76.5898 95.8065ZM73.9165 13.8236L72.7929 16.585H46.5662L45.4426 13.8236H73.9165ZM27.905 13.8236H41.3169L43.5103 19.2164C43.8025 19.9368 44.5026 20.4071 45.2803 20.4071H74.0774C74.8537 20.4071 75.5538 19.9368 75.8474 19.2164L78.0408 13.8222H91.4527C93.1536 13.8222 94.5368 15.2064 94.5368 16.9084V94.9251C93.6109 94.9463 92.6765 95.1906 91.8197 95.685C91.2467 96.0155 90.7526 96.4322 90.3447 96.9082L87.478 91.9391V89.8035C87.478 88.7469 86.6226 87.8924 85.5683 87.8924H64.3876C63.3318 87.8924 62.4778 88.7483 62.4778 89.8035V97.7176C62.4778 98.7741 63.3332 99.6286 64.3876 99.6286H78.7254L84.7708 110.106L83.619 109.441C82.3007 108.68 80.7636 108.478 79.2872 108.875C78.0691 109.201 77.0231 109.904 76.2652 110.879H24.8209V16.9098C24.8209 15.2078 26.2041 13.8236 27.905 13.8236ZM27.905 127.508C26.2041 127.508 24.8209 126.124 24.8209 124.422V114.704H75.064C75.1685 116.566 76.1777 118.341 77.9081 119.34L91.9623 127.46C91.7943 127.488 91.6249 127.508 91.4541 127.508H27.905ZM102.052 135.98L100.979 134.121L123.753 120.963C123.757 120.96 123.762 120.957 123.766 120.956L123.908 120.874L124.981 122.732L102.052 135.98Z" fill="#663366"/>
</svg>
