<svg width="150" height="150" viewBox="0 0 150 150" fill="none" xmlns="http://www.w3.org/2000/svg">
<path d="M96.8563 67.2422H53.1426" stroke="#663366" stroke-width="4.3" stroke-miterlimit="10"/>
<path d="M96.8563 84.7422H53.1426" stroke="#663366" stroke-width="4.3" stroke-miterlimit="10"/>
<path d="M40 119.741V28.1523" stroke="#663366" stroke-width="4.3" stroke-miterlimit="10"/>
<path d="M110 28.1523V119.741" stroke="#663366" stroke-width="4.3" stroke-miterlimit="10"/>
<path d="M145 119.742H5V137.242H145V119.742Z" stroke="#663366" stroke-width="4.3" stroke-miterlimit="10"/>
<path d="M26.8945 33.8498L75.0011 13L123.108 33.8498" stroke="#663366" stroke-width="4.3" stroke-miterlimit="10"/>
<path d="M57.5 119.742V102.242H92.5V119.742" stroke="#663366" stroke-width="4.3" stroke-miterlimit="10"/>
<path d="M75 49.7422C79.8325 49.7422 83.75 45.8247 83.75 40.9922C83.75 36.1597 79.8325 32.2422 75 32.2422C70.1675 32.2422 66.25 36.1597 66.25 40.9922C66.25 45.8247 70.1675 49.7422 75 49.7422Z" stroke="#663366" stroke-width="4.3" stroke-miterlimit="10"/>
<path d="M75 102.242V119.742" stroke="#663366" stroke-width="4.3" stroke-miterlimit="10"/>
<path d="M13.75 84.7422H26.8568" stroke="#663366" stroke-width="4.3" stroke-miterlimit="10"/>
<path d="M13.75 67.2422H26.8568" stroke="#663366" stroke-width="4.3" stroke-miterlimit="10"/>
<path d="M13.75 102.242H26.8568" stroke="#663366" stroke-width="4.3" stroke-miterlimit="10"/>
<path d="M40 49.7422H13.75V119.742" stroke="#663366" stroke-width="4.3" stroke-miterlimit="10"/>
<path d="M136.249 84.7422H123.143" stroke="#663366" stroke-width="4.3" stroke-miterlimit="10"/>
<path d="M136.249 67.2422H123.143" stroke="#663366" stroke-width="4.3" stroke-miterlimit="10"/>
<path d="M136.249 102.242H123.143" stroke="#663366" stroke-width="4.3" stroke-miterlimit="10"/>
<path d="M110 49.7422H136.25V119.742" stroke="#663366" stroke-width="4.3" stroke-miterlimit="10"/>
</svg>
