<svg width="150" height="150" viewBox="0 0 150 150" fill="none" xmlns="http://www.w3.org/2000/svg">
<path d="M129.516 14H20.4839C17.7044 14.0033 15.0397 15.1089 13.0743 17.0743C11.1089 19.0397 10.0033 21.7044 10 24.4839V99.9677C10.0033 102.747 11.1089 105.412 13.0743 107.377C15.0397 109.343 17.7044 110.448 20.4839 110.452H64.5161V118.839H43.5484C40.7689 118.842 38.1042 119.948 36.1388 121.913C34.1734 123.878 33.0678 126.543 33.0645 129.323V133.516C33.0645 134.072 33.2854 134.606 33.6786 134.999C34.0719 135.392 34.6052 135.613 35.1613 135.613H114.839C115.395 135.613 115.928 135.392 116.321 134.999C116.715 134.606 116.935 134.072 116.935 133.516V129.323C116.932 126.543 115.827 123.878 113.861 121.913C111.896 119.948 109.231 118.842 106.452 118.839H85.4839V110.452H129.516C132.296 110.448 134.96 109.343 136.926 107.377C138.891 105.412 139.997 102.747 140 99.9677V24.4839C139.997 21.7044 138.891 19.0397 136.926 17.0743C134.96 15.1089 132.296 14.0033 129.516 14ZM112.742 129.323V131.419H37.2581V129.323C37.2599 127.655 37.9233 126.056 39.1025 124.877C40.2818 123.697 41.8807 123.034 43.5484 123.032H106.452C108.119 123.034 109.718 123.697 110.897 124.877C112.077 126.056 112.74 127.655 112.742 129.323ZM81.2903 118.839H68.7097V110.452H81.2903V118.839ZM135.806 99.9677C135.805 101.635 135.141 103.234 133.962 104.414C132.783 105.593 131.184 106.256 129.516 106.258H20.4839C18.8161 106.256 17.2173 105.593 16.038 104.414C14.8588 103.234 14.1954 101.635 14.1935 99.9677V24.4839C14.1954 22.8161 14.8588 21.2173 16.038 20.038C17.2173 18.8588 18.8161 18.1954 20.4839 18.1935H129.516C131.184 18.1954 132.783 18.8588 133.962 20.038C135.141 21.2173 135.805 22.8161 135.806 24.4839V99.9677Z" fill="#663366"/>
<path d="M125.323 22.3867H86.7536C85.5115 22.3852 84.2969 22.7529 83.2643 23.4432L81.5198 24.6064C79.5805 25.8711 77.3153 26.5444 75.0001 26.5444C72.6849 26.5444 70.4197 25.8711 68.4805 24.6064L66.7359 23.4432C65.7033 22.7529 64.4888 22.3852 63.2466 22.3867H24.6775C23.0098 22.3886 21.4109 23.0519 20.2317 24.2312C19.0524 25.4104 18.3891 27.0093 18.3872 28.677V95.7738C18.3891 97.4416 19.0524 99.0404 20.2317 100.22C21.4109 101.399 23.0098 102.062 24.6775 102.064H125.323C126.99 102.062 128.589 101.399 129.769 100.22C130.948 99.0404 131.611 97.4416 131.613 95.7738V28.677C131.611 27.0093 130.948 25.4104 129.769 24.2312C128.589 23.0519 126.99 22.3886 125.323 22.3867ZM127.419 95.7738C127.419 96.3298 127.198 96.8629 126.805 97.2561C126.412 97.6492 125.879 97.8703 125.323 97.8706H24.6775C24.1215 97.8703 23.5884 97.6492 23.1953 97.2561C22.8021 96.8629 22.5811 96.3298 22.5808 95.7738V28.677C22.5811 28.1211 22.8021 27.5879 23.1953 27.1948C23.5884 26.8016 24.1215 26.5806 24.6775 26.5803H63.2466C63.6608 26.5794 64.0657 26.7021 64.4098 26.9325L66.1543 28.0955C68.7856 29.8111 71.8589 30.7246 75.0001 30.7246C78.1413 30.7246 81.2147 29.8111 83.8459 28.0955L85.5904 26.9325C85.9345 26.7021 86.3394 26.5794 86.7536 26.5803H125.323C125.879 26.5806 126.412 26.8016 126.805 27.1948C127.198 27.5879 127.419 28.1211 127.419 28.677V95.7738Z" fill="#663366"/>
<path d="M63.3943 51.9956L55.2478 60.1421C54.3529 58.0505 52.8043 56.3052 50.834 55.1677C48.8638 54.0303 46.578 53.5619 44.3192 53.8327C42.0604 54.1035 39.9501 55.099 38.3046 56.67C36.6591 58.241 35.567 60.3029 35.1919 62.5468C34.8168 64.7907 35.1789 67.0957 36.2239 69.1165C37.269 71.1372 38.9407 72.765 40.9886 73.7558C43.0365 74.7466 45.3504 75.0471 47.5834 74.6123C49.8165 74.1776 51.8486 73.0309 53.3752 71.3441C54.0424 72.3113 54.9142 73.1199 55.9289 73.7126C56.9435 74.3053 58.0761 74.6674 59.2464 74.7735C60.4166 74.8795 61.5959 74.7268 62.7005 74.3262C63.8052 73.9256 64.8082 73.2869 65.6384 72.4554L74.7463 63.3475C76.2516 61.8422 77.0973 59.8005 77.0973 57.6716C77.0973 55.5427 76.2516 53.501 74.7463 51.9956C73.2409 50.4902 71.1992 49.6445 69.0703 49.6445C66.9414 49.6445 64.8997 50.4902 63.3943 51.9956ZM45.6454 58.0319C46.942 58.0359 48.2056 58.4411 49.2627 59.192C50.3199 59.9428 51.1186 61.0025 51.5494 62.2255H39.7414C40.1722 61.0025 40.9709 59.9428 42.028 59.192C43.0851 58.4411 44.3488 58.0359 45.6454 58.0319ZM45.6454 70.6126C44.3488 70.6086 43.0852 70.2034 42.0282 69.4525C40.9711 68.7017 40.1724 67.642 39.7417 66.419H51.5494C51.1186 67.642 50.3199 68.7017 49.2627 69.4525C48.2056 70.2034 46.942 70.6086 45.6454 70.6126ZM62.6736 69.4906C61.9528 70.2011 60.9803 70.5978 59.9681 70.5942C58.956 70.5906 57.9863 70.1869 57.2706 69.4712C56.5549 68.7555 56.1513 67.7859 56.1476 66.7737C56.144 65.7616 56.5408 64.7891 57.2513 64.0683L60.3228 60.9968L65.7451 66.419L62.6736 69.4906ZM72.9035 57.6716C72.9007 58.6877 72.4976 59.6618 71.7814 60.3827L68.7099 63.4542L63.2876 58.0319L66.3592 54.9604C66.8954 54.4246 67.5785 54.0598 68.3221 53.912C69.0657 53.7643 69.8363 53.8403 70.5367 54.1305C71.2371 54.4206 71.8357 54.9119 72.257 55.5422C72.6783 56.1724 72.9032 56.9135 72.9035 57.6716Z" fill="#663366"/>
<path d="M56.1293 32.8711C50.3234 32.8711 44.648 34.5927 39.8206 37.8183C34.9932 41.0438 31.2307 45.6284 29.0089 50.9923C26.7871 56.3562 26.2058 62.2585 27.3385 67.9528C28.4711 73.6471 31.2669 78.8776 35.3723 82.9829C39.4776 87.0883 44.7081 89.8841 50.4024 91.0167C56.0967 92.1494 61.999 91.5681 67.3629 89.3463C72.7268 87.1245 77.3114 83.362 80.5369 78.5346C83.7625 73.7072 85.4841 68.0318 85.4841 62.2259C85.4754 54.4432 82.3798 46.9818 76.8766 41.4786C71.3734 35.9754 63.912 32.8798 56.1293 32.8711ZM56.1293 87.3872C51.1528 87.3872 46.2882 85.9115 42.1504 83.1468C38.0126 80.382 34.7877 76.4524 32.8833 71.8547C30.9789 67.2571 30.4806 62.198 31.4514 57.3172C32.4223 52.4364 34.8187 47.9531 38.3375 44.4342C41.8564 40.9153 46.3397 38.519 51.2205 37.5481C56.1014 36.5773 61.1604 37.0755 65.7581 38.9799C70.3557 40.8843 74.2854 44.1093 77.0501 48.2471C79.8149 52.3848 81.2906 57.2495 81.2906 62.2259C81.2836 68.897 78.6305 75.2928 73.9133 80.01C69.1962 84.7271 62.8003 87.3803 56.1293 87.3872Z" fill="#663366"/>
<path d="M89.6772 41.2578H123.226V45.4514H89.6772V41.2578Z" fill="#663366"/>
<path d="M89.6772 49.6455H123.226V53.8391H89.6772V49.6455Z" fill="#663366"/>
<path d="M89.6772 58.0322H123.226V62.2258H89.6772V58.0322Z" fill="#663366"/>
<path d="M89.6772 66.4189H123.226V70.6125H89.6772V66.4189Z" fill="#663366"/>
<path d="M89.6772 74.8066H123.226V79.0002H89.6772V74.8066Z" fill="#663366"/>
<path d="M89.6772 83.1934H123.226V87.3869H89.6772V83.1934Z" fill="#663366"/>
</svg>
