<svg width="150" height="150" viewBox="0 0 150 150" fill="none" xmlns="http://www.w3.org/2000/svg">
<path d="M80.0066 111.798C80.9545 111.798 81.7202 112.564 81.7202 113.512C81.7202 114.46 80.9546 115.226 80.0066 115.226H69.9926C69.0447 115.226 68.279 114.46 68.279 113.512C68.279 112.564 69.0446 111.798 69.9926 111.798H80.0066ZM6.71267 100.034C7.66061 100.034 8.42629 99.2687 8.42629 98.3207V37.7934C8.42629 33.6797 11.7743 30.3315 15.8882 30.3315L104.932 30.3679H104.938H104.951H104.975C105.923 30.3679 106.688 29.6023 106.688 28.6543C106.688 28.4234 106.64 28.2046 106.555 27.998C105.692 24.4008 106.057 20.6638 107.478 17.3156L123.053 29.8513C123.369 30.1065 123.752 30.2281 124.128 30.2281C124.627 30.2281 125.125 30.0093 125.465 29.5901C126.061 28.8548 125.945 27.7792 125.204 27.1837L109.157 14.2591C109.497 13.773 109.849 13.2869 110.244 12.8311C110.858 12.1141 110.779 11.0326 110.062 10.4127C109.345 9.79896 108.263 9.87796 107.644 10.595C103.742 15.1341 102.035 21.1072 102.867 26.9347L15.8892 26.9104C9.88558 26.9104 5.00015 31.7958 5.00015 37.7994V98.3205C5.00015 99.2685 5.76469 100.034 6.71267 100.034ZM137.581 27.4995C136.682 27.1957 135.716 27.6818 135.412 28.5811C135.114 29.4805 135.595 30.4466 136.494 30.7504C139.483 31.7469 141.574 34.6454 141.574 37.7929V112.6C141.574 116.732 138.226 120.099 134.112 120.099H15.8882C11.7745 120.099 8.4263 116.738 8.4263 112.6V106.925H130.484C131.432 106.925 132.198 106.159 132.198 105.211C132.198 104.263 131.432 103.498 130.484 103.498H6.71362C5.7657 103.498 5 104.263 5 105.211V112.606C5 118.628 9.88543 123.526 15.889 123.526H73.2865V137.405H38.8757C37.9278 137.405 37.1621 138.17 37.1621 139.124C37.1621 140.066 37.9277 140.838 38.8757 140.838H111.124C112.072 140.838 112.838 140.072 112.838 139.124C112.838 138.176 112.072 137.405 111.124 137.405H76.7135V123.526H134.111C140.115 123.526 145 118.628 145 112.606V37.7928C145 33.12 142.017 28.9761 137.581 27.4995ZM44.958 82.559H21.5995C20.6576 82.559 19.8859 83.3247 19.8859 84.2727C19.8859 85.2206 20.6515 85.9863 21.5995 85.9863H44.958C45.9059 85.9863 46.6716 85.2206 46.6716 84.2727C46.6716 83.3247 45.906 82.559 44.958 82.559ZM44.958 74.5625H24.8942C23.9463 74.5625 23.1806 75.3281 23.1806 76.2761C23.1806 77.2241 23.9462 77.9897 24.8942 77.9897H44.9533C45.9013 77.9897 46.6669 77.2241 46.6669 76.2761C46.673 75.3281 45.906 74.5625 44.958 74.5625ZM44.958 90.5553H21.5995C20.6576 90.5553 19.8859 91.3209 19.8859 92.2689C19.8859 93.2169 20.6515 93.9886 21.5995 93.9886H44.958C45.9059 93.9886 46.6716 93.223 46.6716 92.2689C46.6716 91.3271 45.906 90.5553 44.958 90.5553ZM82.0491 89.3035C82.3711 89.5831 82.7722 89.7167 83.1671 89.7167C83.6532 89.7167 84.1272 89.5162 84.4675 89.1213C88.8425 84.0353 90.4711 77.1385 88.8304 70.6799C88.5995 69.7624 87.6637 69.2094 86.7463 69.4403C85.8287 69.6773 85.2758 70.607 85.5067 71.5245C86.4364 75.1765 86.0778 78.9803 84.6316 82.3832L69.051 69.8656C68.3158 69.2701 67.2341 69.3917 66.6386 70.1269C66.0432 70.8622 66.1647 71.9438 66.8999 72.5393L82.9597 85.4457C82.6194 85.9379 82.2609 86.4301 81.8659 86.8919C81.2522 87.609 81.332 88.6837 82.0491 89.3035ZM95.6543 67.9751C95.6603 67.9751 95.6664 67.9812 95.6664 67.9812C95.873 67.9812 96.0796 67.9326 96.274 67.8657C99.7377 67.1548 103.061 65.5202 106.002 62.9742C112.535 57.3171 115.251 48.6703 112.936 40.9473C112.662 40.0419 111.708 39.5315 110.803 39.7989C109.897 40.0723 109.381 41.0263 109.654 41.9317C110.712 45.456 110.487 49.2234 109.168 52.6932L92.9436 39.6044C92.2083 39.0089 91.1267 39.1244 90.5312 39.8596C89.9357 40.6009 90.0512 41.6765 90.7864 42.272L107.605 55.8408C106.584 57.4997 105.296 59.0431 103.747 60.386C101.413 62.4095 98.7883 63.7524 96.0539 64.3964L90.2448 59.7297C89.5035 59.1342 88.4279 59.2497 87.8324 59.991C87.2369 60.7323 87.3584 61.8019 88.0937 62.3973L91.0651 64.7854C89.0782 64.6396 87.0972 64.1292 85.1832 63.242C76.4756 59.195 65.9454 61.8505 60.1416 69.5494C59.5704 70.3029 59.7223 71.3784 60.4819 71.9497C60.7918 72.1806 61.1564 72.2899 61.5088 72.2899C62.0314 72.2899 62.5418 72.059 62.8821 71.6094C65.1972 68.5346 68.4177 66.4444 71.936 65.4479L80.8015 72.6121C81.1175 72.8673 81.5003 72.9949 81.877 72.9949C82.3753 72.9949 82.8736 72.7762 83.2078 72.3569C83.8033 71.6216 83.6878 70.54 82.9526 69.9445L76.5662 64.7856C78.9967 64.7734 81.4455 65.2839 83.7364 66.3472C87.6193 68.1336 91.7087 68.6503 95.6524 67.9758L95.6543 67.9751ZM115.026 30.1436C114.291 29.5481 113.209 29.6635 112.613 30.3988C112.018 31.1401 112.133 32.2157 112.869 32.8111L115.506 34.944C113.081 34.9501 110.639 34.4518 108.348 33.3884C100.874 29.9187 92.5664 31.1766 86.1139 36.7609C79.5756 42.4241 76.8473 51.0649 79.1623 58.7878C79.3872 59.5352 80.0677 60.0092 80.803 60.0092C80.9671 60.0092 81.1311 59.9849 81.2952 59.9363C82.2006 59.6689 82.7171 58.7088 82.4436 57.8034C81.3863 54.2791 81.6112 50.5177 82.9297 47.048L99.7859 60.635C100.102 60.8902 100.485 61.0178 100.861 61.0178C101.36 61.0178 101.858 60.7991 102.198 60.3798C102.794 59.6446 102.678 58.569 101.943 57.9674L84.4911 43.9004C85.512 42.2415 86.8063 40.692 88.3558 39.3491C90.6831 37.3317 93.296 35.995 96.0122 35.3508L104.738 42.363C105.054 42.6182 105.431 42.7398 105.807 42.7398C106.306 42.7398 106.804 42.521 107.144 42.1017C107.74 41.3665 107.618 40.2848 106.883 39.6893L100.977 34.9436C102.976 35.0894 104.975 35.6059 106.901 36.4992C115.621 40.5278 126.151 37.8785 131.943 30.1918C132.514 29.4383 132.362 28.3627 131.603 27.7915C130.849 27.2264 129.767 27.3723 129.202 28.1318C126.893 31.2005 123.667 33.2907 120.142 34.2812L115.026 30.1436ZM46.6724 56.0112C46.6724 56.9591 45.9067 57.7248 44.9588 57.7248H37.8675V64.816C37.8675 65.764 37.1019 66.5297 36.1539 66.5297H28.6616C27.7137 66.5297 26.948 65.764 26.948 64.816V57.7248H19.8568C18.9089 57.7248 18.1432 56.9592 18.1432 56.0112V48.5189C18.1432 47.571 18.9088 46.8053 19.8568 46.8053H26.948V39.7141C26.948 38.7661 27.7137 38.0004 28.6616 38.0004H36.1539C37.1018 38.0004 37.8675 38.7661 37.8675 39.7141V46.8053H44.9588C45.9067 46.8053 46.6724 47.5709 46.6724 48.5189V56.0112ZM43.2453 50.2325H36.1541C35.2061 50.2325 34.4404 49.4669 34.4404 48.5189V41.4277H30.3753V48.5189C30.3753 49.4608 29.6096 50.2325 28.6616 50.2325H21.5704V54.2977H28.6616C29.6096 54.2977 30.3753 55.0634 30.3753 56.0113V63.1026H34.4404V56.0113C34.4404 55.0634 35.2061 54.2977 36.1541 54.2977H43.2453V50.2325Z" fill="#663366"/>
</svg>
