<svg width="150" height="150" viewBox="0 0 150 150" fill="none" xmlns="http://www.w3.org/2000/svg">
<path d="M103.168 63.3119V100.354C103.168 101.909 101.906 103.171 100.351 103.171H49.647C48.0921 103.171 46.8301 101.909 46.8301 100.354V49.7232C46.8301 48.1682 48.0921 46.9062 49.647 46.9062H100.351C101.906 46.9062 103.168 48.1682 103.168 49.7232V53.4527" stroke="#663366" stroke-width="4.22535" stroke-miterlimit="10" stroke-linecap="round" stroke-linejoin="round"/>
<path d="M75.4218 93.3121H56.6895V56.7656H93.3092V93.3121H85.281" stroke="#663366" stroke-width="4.22535" stroke-miterlimit="10" stroke-linecap="round" stroke-linejoin="round"/>
<path d="M64.1543 82.9745L70.0915 67.4165C70.1639 67.2269 70.3461 67.1016 70.5495 67.1016C70.7535 67.1016 70.936 67.2275 71.0081 67.4179L76.8909 82.9745" stroke="#663366" stroke-width="4.22535" stroke-miterlimit="10" stroke-linecap="round" stroke-linejoin="round"/>
<path d="M66.043 79.0195H75.0317" stroke="#663366" stroke-width="4.22535" stroke-miterlimit="10" stroke-linecap="round" stroke-linejoin="round"/>
<path d="M84.1543 82.9717V67.0977" stroke="#663366" stroke-width="4.22535" stroke-miterlimit="10" stroke-linecap="round" stroke-linejoin="round"/>
<path d="M16.831 28.662C23.3651 28.662 28.662 23.3651 28.662 16.831C28.662 10.2969 23.3651 5 16.831 5C10.2969 5 5 10.2969 5 16.831C5 23.3651 10.2969 28.662 16.831 28.662Z" stroke="#663366" stroke-width="4.22535" stroke-miterlimit="10" stroke-linecap="round" stroke-linejoin="round"/>
<path d="M16.8308 21.0562C19.1644 21.0562 21.0562 19.1644 21.0562 16.8308C21.0562 14.4972 19.1644 12.6055 16.8308 12.6055C14.4972 12.6055 12.6055 14.4972 12.6055 16.8308C12.6055 19.1644 14.4972 21.0562 16.8308 21.0562Z" stroke="#663366" stroke-width="4.22535" stroke-miterlimit="10" stroke-linecap="round" stroke-linejoin="round"/>
<path d="M55.6103 28.662C62.1444 28.662 67.4413 23.3651 67.4413 16.831C67.4413 10.2969 62.1444 5 55.6103 5C49.0762 5 43.7793 10.2969 43.7793 16.831C43.7793 23.3651 49.0762 28.662 55.6103 28.662Z" stroke="#663366" stroke-width="4.22535" stroke-miterlimit="10" stroke-linecap="round" stroke-linejoin="round"/>
<path d="M55.6101 21.0562C57.9437 21.0562 59.8355 19.1644 59.8355 16.8308C59.8355 14.4972 57.9437 12.6055 55.6101 12.6055C53.2765 12.6055 51.3848 14.4972 51.3848 16.8308C51.3848 19.1644 53.2765 21.0562 55.6101 21.0562Z" stroke="#663366" stroke-width="4.22535" stroke-miterlimit="10" stroke-linecap="round" stroke-linejoin="round"/>
<path d="M94.3896 28.662C100.924 28.662 106.221 23.3651 106.221 16.831C106.221 10.2969 100.924 5 94.3896 5C87.8555 5 82.5586 10.2969 82.5586 16.831C82.5586 23.3651 87.8555 28.662 94.3896 28.662Z" stroke="#663366" stroke-width="4.22535" stroke-miterlimit="10" stroke-linecap="round" stroke-linejoin="round"/>
<path d="M94.3894 21.0562C96.723 21.0562 98.6148 19.1644 98.6148 16.8308C98.6148 14.4972 96.723 12.6055 94.3894 12.6055C92.0558 12.6055 90.1641 14.4972 90.1641 16.8308C90.1641 19.1644 92.0558 21.0562 94.3894 21.0562Z" stroke="#663366" stroke-width="4.22535" stroke-miterlimit="10" stroke-linecap="round" stroke-linejoin="round"/>
<path d="M133.169 28.662C139.703 28.662 145 23.3651 145 16.831C145 10.2969 139.703 5 133.169 5C126.635 5 121.338 10.2969 121.338 16.831C121.338 23.3651 126.635 28.662 133.169 28.662Z" stroke="#663366" stroke-width="4.22535" stroke-miterlimit="10" stroke-linecap="round" stroke-linejoin="round"/>
<path d="M133.169 21.0562C135.502 21.0562 137.394 19.1644 137.394 16.8308C137.394 14.4972 135.502 12.6055 133.169 12.6055C130.835 12.6055 128.943 14.4972 128.943 16.8308C128.943 19.1644 130.835 21.0562 133.169 21.0562Z" stroke="#663366" stroke-width="4.22535" stroke-miterlimit="10" stroke-linecap="round" stroke-linejoin="round"/>
<path d="M16.831 145.002C23.3651 145.002 28.662 139.705 28.662 133.171C28.662 126.637 23.3651 121.34 16.831 121.34C10.2969 121.34 5 126.637 5 133.171C5 139.705 10.2969 145.002 16.831 145.002Z" stroke="#663366" stroke-width="4.22535" stroke-miterlimit="10" stroke-linecap="round" stroke-linejoin="round"/>
<path d="M16.8308 137.396C19.1644 137.396 21.0562 135.504 21.0562 133.171C21.0562 130.837 19.1644 128.945 16.8308 128.945C14.4972 128.945 12.6055 130.837 12.6055 133.171C12.6055 135.504 14.4972 137.396 16.8308 137.396Z" stroke="#663366" stroke-width="4.22535" stroke-miterlimit="10" stroke-linecap="round" stroke-linejoin="round"/>
<path d="M55.6103 145.002C62.1444 145.002 67.4413 139.705 67.4413 133.171C67.4413 126.637 62.1444 121.34 55.6103 121.34C49.0762 121.34 43.7793 126.637 43.7793 133.171C43.7793 139.705 49.0762 145.002 55.6103 145.002Z" stroke="#663366" stroke-width="4.22535" stroke-miterlimit="10" stroke-linecap="round" stroke-linejoin="round"/>
<path d="M55.6101 137.396C57.9437 137.396 59.8355 135.504 59.8355 133.171C59.8355 130.837 57.9437 128.945 55.6101 128.945C53.2765 128.945 51.3848 130.837 51.3848 133.171C51.3848 135.504 53.2765 137.396 55.6101 137.396Z" stroke="#663366" stroke-width="4.22535" stroke-miterlimit="10" stroke-linecap="round" stroke-linejoin="round"/>
<path d="M94.3896 145.002C100.924 145.002 106.221 139.705 106.221 133.171C106.221 126.637 100.924 121.34 94.3896 121.34C87.8555 121.34 82.5586 126.637 82.5586 133.171C82.5586 139.705 87.8555 145.002 94.3896 145.002Z" stroke="#663366" stroke-width="4.22535" stroke-miterlimit="10" stroke-linecap="round" stroke-linejoin="round"/>
<path d="M94.3894 137.396C96.723 137.396 98.6148 135.504 98.6148 133.171C98.6148 130.837 96.723 128.945 94.3894 128.945C92.0558 128.945 90.1641 130.837 90.1641 133.171C90.1641 135.504 92.0558 137.396 94.3894 137.396Z" stroke="#663366" stroke-width="4.22535" stroke-miterlimit="10" stroke-linecap="round" stroke-linejoin="round"/>
<path d="M16.831 67.4784C23.3651 67.4784 28.662 62.1815 28.662 55.6474C28.662 49.1133 23.3651 43.8164 16.831 43.8164C10.2969 43.8164 5 49.1133 5 55.6474C5 62.1815 10.2969 67.4784 16.831 67.4784Z" stroke="#663366" stroke-width="4.22535" stroke-miterlimit="10" stroke-linecap="round" stroke-linejoin="round"/>
<path d="M16.8308 59.8726C19.1644 59.8726 21.0562 57.9808 21.0562 55.6472C21.0562 53.3136 19.1644 51.4219 16.8308 51.4219C14.4972 51.4219 12.6055 53.3136 12.6055 55.6472C12.6055 57.9808 14.4972 59.8726 16.8308 59.8726Z" stroke="#663366" stroke-width="4.22535" stroke-miterlimit="10" stroke-linecap="round" stroke-linejoin="round"/>
<path d="M16.831 106.256C23.3651 106.256 28.662 100.959 28.662 94.4247C28.662 87.8907 23.3651 82.5938 16.831 82.5938C10.2969 82.5938 5 87.8907 5 94.4247C5 100.959 10.2969 106.256 16.831 106.256Z" stroke="#663366" stroke-width="4.22535" stroke-miterlimit="10" stroke-linecap="round" stroke-linejoin="round"/>
<path d="M16.8308 98.6499C19.1644 98.6499 21.0562 96.7582 21.0562 94.4246C21.0562 92.091 19.1644 90.1992 16.8308 90.1992C14.4972 90.1992 12.6055 92.091 12.6055 94.4246C12.6055 96.7582 14.4972 98.6499 16.8308 98.6499Z" stroke="#663366" stroke-width="4.22535" stroke-miterlimit="10" stroke-linecap="round" stroke-linejoin="round"/>
<path d="M133.169 67.4784C139.703 67.4784 145 62.1815 145 55.6474C145 49.1133 139.703 43.8164 133.169 43.8164C126.635 43.8164 121.338 49.1133 121.338 55.6474C121.338 62.1815 126.635 67.4784 133.169 67.4784Z" stroke="#663366" stroke-width="4.22535" stroke-miterlimit="10" stroke-linecap="round" stroke-linejoin="round"/>
<path d="M133.169 59.8726C135.502 59.8726 137.394 57.9808 137.394 55.6472C137.394 53.3136 135.502 51.4219 133.169 51.4219C130.835 51.4219 128.943 53.3136 128.943 55.6472C128.943 57.9808 130.835 59.8726 133.169 59.8726Z" stroke="#663366" stroke-width="4.22535" stroke-miterlimit="10" stroke-linecap="round" stroke-linejoin="round"/>
<path d="M133.169 106.256C139.703 106.256 145 100.959 145 94.4247C145 87.8907 139.703 82.5938 133.169 82.5938C126.635 82.5938 121.338 87.8907 121.338 94.4247C121.338 100.959 126.635 106.256 133.169 106.256Z" stroke="#663366" stroke-width="4.22535" stroke-miterlimit="10" stroke-linecap="round" stroke-linejoin="round"/>
<path d="M133.169 98.6499C135.502 98.6499 137.394 96.7582 137.394 94.4246C137.394 92.091 135.502 90.1992 133.169 90.1992C130.835 90.1992 128.943 92.091 128.943 94.4246C128.943 96.7582 130.835 98.6499 133.169 98.6499Z" stroke="#663366" stroke-width="4.22535" stroke-miterlimit="10" stroke-linecap="round" stroke-linejoin="round"/>
<path d="M144.028 128.469C144.653 129.912 145 131.5 145 133.171C145 139.706 139.704 145.002 133.169 145.002C126.634 145.002 121.338 139.706 121.338 133.171C121.338 126.636 126.634 121.34 133.169 121.34C134.397 121.34 135.583 121.529 136.698 121.875" stroke="#663366" stroke-width="4.22535" stroke-miterlimit="10" stroke-linecap="round" stroke-linejoin="round"/>
<path d="M133.169 137.396C135.502 137.396 137.394 135.504 137.394 133.171C137.394 130.837 135.502 128.945 133.169 128.945C130.835 128.945 128.943 130.837 128.943 133.171C128.943 135.504 130.835 137.396 133.169 137.396Z" stroke="#663366" stroke-width="4.22535" stroke-miterlimit="10" stroke-linecap="round" stroke-linejoin="round"/>
<path d="M124.858 25.2812L112.464 37.6756H96.1258L89.3652 46.6897" stroke="#663366" stroke-width="4.22535" stroke-miterlimit="10" stroke-linecap="round" stroke-linejoin="round"/>
<path d="M50.6348 37.6758H53.8742L60.6348 46.6899" stroke="#663366" stroke-width="4.22535" stroke-miterlimit="10" stroke-linecap="round" stroke-linejoin="round"/>
<path d="M25.1406 25.2812L37.535 37.6756H40.7744" stroke="#663366" stroke-width="4.22535" stroke-miterlimit="10" stroke-linecap="round" stroke-linejoin="round"/>
<path d="M64.1543 25.2812L74.9642 36.0911L85.2811 25.8446" stroke="#663366" stroke-width="4.22535" stroke-miterlimit="10" stroke-linecap="round" stroke-linejoin="round"/>
<path d="M74.8594 35.9844V46.6886" stroke="#663366" stroke-width="4.22535" stroke-miterlimit="10" stroke-linecap="round" stroke-linejoin="round"/>
<path d="M25.2812 86.1268L36.0911 75.3169L25.8446 65" stroke="#663366" stroke-width="4.22535" stroke-miterlimit="10" stroke-linecap="round" stroke-linejoin="round"/>
<path d="M35.9863 75.4219H46.6906" stroke="#663366" stroke-width="4.22535" stroke-miterlimit="10" stroke-linecap="round" stroke-linejoin="round"/>
<path d="M25.4219 124.998L37.8162 112.604H54.1543L60.9148 103.59" stroke="#663366" stroke-width="4.22535" stroke-miterlimit="10" stroke-linecap="round" stroke-linejoin="round"/>
<path d="M124.578 124.435L112.747 112.604H96.409L89.6484 103.59" stroke="#663366" stroke-width="4.22535" stroke-miterlimit="10" stroke-linecap="round" stroke-linejoin="round"/>
<path d="M85.5634 124.438L75.3169 114.191L65 124.438" stroke="#663366" stroke-width="4.22535" stroke-miterlimit="10" stroke-linecap="round" stroke-linejoin="round"/>
<path d="M75.4219 114.294V103.59" stroke="#663366" stroke-width="4.22535" stroke-miterlimit="10" stroke-linecap="round" stroke-linejoin="round"/>
<path d="M124.999 64.1562L114.189 74.9661L124.436 85.283" stroke="#663366" stroke-width="4.22535" stroke-miterlimit="10" stroke-linecap="round" stroke-linejoin="round"/>
<path d="M114.296 74.8594H103.592" stroke="#663366" stroke-width="4.22535" stroke-miterlimit="10" stroke-linecap="round" stroke-linejoin="round"/>
</svg>
