<svg width="150" height="150" viewBox="0 0 150 150" fill="none" xmlns="http://www.w3.org/2000/svg">
<path fill-rule="evenodd" clip-rule="evenodd" d="M95.2231 110.291L95.7545 115.809H105.559C106.552 115.809 107.457 116.218 108.117 116.872C108.152 116.907 108.181 116.936 108.205 116.971C108.806 117.619 109.174 118.484 109.174 119.43V126.969C109.174 127.757 108.532 128.399 107.743 128.399L42.2508 128.394C41.4624 128.394 40.8201 127.751 40.8201 126.963V119.424C40.8201 118.431 41.2288 117.526 41.8829 116.872V116.86C42.5369 116.206 43.4421 115.797 44.4406 115.797H54.2454L54.771 110.279L13.6193 110.285C11.2485 110.285 9.09364 109.315 7.52857 107.756C5.96933 106.197 5 104.036 5 101.665V30.6252C5 28.2543 5.96939 26.0995 7.52857 24.5344C9.08781 22.9752 11.2485 22 13.6193 22H136.381C138.752 22 140.906 22.9694 142.471 24.5344C144.031 26.0936 145 28.2543 145 30.6252V101.665C145 104.036 144.031 106.191 142.471 107.756C140.912 109.315 138.752 110.285 136.381 110.285L95.2231 110.291ZM112.439 31.6769C110.506 31.6769 108.754 32.4594 107.487 33.7266C106.22 34.9938 105.437 36.7457 105.437 38.6786C105.437 40.6116 106.22 42.3634 107.487 43.6307C107.867 44.0103 108.287 44.3431 108.748 44.6293L107.569 47.8703C107.154 47.7886 106.734 47.7419 106.307 47.7243C104.807 47.666 103.288 47.993 101.916 48.7229L99.3173 45.3008C99.9187 44.495 100.275 43.4906 100.275 42.4102C100.275 41.0671 99.7319 39.8525 98.8501 38.9764C97.9741 38.1005 96.7595 37.5515 95.4163 37.5515C94.0731 37.5515 92.8586 38.0946 91.9826 38.9764C91.1066 39.8524 90.5577 41.067 90.5577 42.4102C90.5577 43.7533 91.1008 44.9679 91.9826 45.8439C92.8585 46.7199 94.0731 47.2688 95.4163 47.2688C95.9828 47.2688 96.5259 47.1695 97.028 46.9944L99.6559 50.4514C98.1668 52.0282 97.3726 54.037 97.2908 56.0692C97.2792 56.3962 97.285 56.7291 97.3084 57.0561L91.7314 58.4168C91.5387 58.0956 91.3168 57.7919 91.0482 57.5058C90.0496 56.4254 88.7065 55.8531 87.3458 55.7948C86.0377 55.7422 84.7063 56.1744 83.6434 57.097C83.585 57.1379 83.5266 57.1905 83.474 57.243L83.4799 57.2489C82.4229 58.2416 81.8623 59.5672 81.8097 60.9103C81.7571 62.2184 82.1893 63.5498 83.1119 64.6127C83.1528 64.6711 83.2054 64.7295 83.2579 64.7821L83.2638 64.7762C84.2565 65.8332 85.5821 66.3938 86.9252 66.4464C88.2859 66.4989 89.6698 66.0318 90.7502 65.0332C91.8306 64.0346 92.4029 62.6915 92.4612 61.3308C92.4612 61.2782 92.467 61.2257 92.467 61.1673L97.9855 59.8241C98.3476 60.6709 98.8498 61.471 99.4921 62.1892C99.533 62.2476 99.5797 62.3001 99.6323 62.3468L99.6381 62.341C101.057 63.8534 102.891 64.7528 104.8 65.0098L105.051 73.5766C103.702 73.8628 102.5 74.5343 101.559 75.4745C100.292 76.7417 99.5097 78.4935 99.5097 80.4265C99.5097 82.3595 100.292 84.1113 101.559 85.3786C102.827 86.6458 104.578 87.4283 106.506 87.4283C108.439 87.4283 110.19 86.6458 111.458 85.3786C112.725 84.1114 113.507 82.3595 113.507 80.4265C113.507 78.4935 112.725 76.7418 111.458 75.4745C110.506 74.5226 109.274 73.8393 107.901 73.565L107.65 64.9282C109.128 64.6362 110.552 63.9588 111.75 62.8843C111.808 62.8434 111.861 62.7967 111.907 62.7441L111.901 62.7383C113.023 61.693 113.805 60.4141 114.237 59.0535L116.672 59.4097C116.818 60.3149 117.221 61.1908 117.893 61.915C118.798 62.896 120.013 63.4157 121.245 63.4625C122.477 63.5093 123.727 63.0888 124.708 62.1837C125.689 61.2785 126.209 60.0638 126.255 58.8317C126.302 57.5995 125.882 56.3497 124.977 55.3687C124.071 54.3877 122.857 53.868 121.625 53.8212C120.392 53.7744 119.143 54.1949 118.162 55.1001C117.689 55.5322 117.327 56.0402 117.07 56.5833L114.646 56.2271C114.605 54.23 113.875 52.2327 112.445 50.6269C112.404 50.5685 112.357 50.5159 112.304 50.4633L112.299 50.4692C111.68 49.8093 110.985 49.2662 110.237 48.8458L111.423 45.6047C111.756 45.6515 112.094 45.6807 112.439 45.6807C114.372 45.6807 116.124 44.8981 117.385 43.6309C118.652 42.3637 119.435 40.6119 119.435 38.6789C119.435 36.7459 118.652 34.9999 117.385 33.7268C116.124 32.4596 114.372 31.6769 112.439 31.6769ZM115.37 35.7472C114.617 34.9997 113.584 34.5325 112.439 34.5325C111.294 34.5325 110.261 34.9939 109.508 35.7472C108.76 36.4947 108.293 37.5341 108.293 38.6786C108.293 39.8232 108.754 40.8568 109.508 41.6101C109.887 41.9897 110.348 42.2992 110.857 42.5094C110.909 42.5211 110.967 42.5386 111.02 42.5561C111.078 42.5795 111.131 42.597 111.184 42.6262C111.581 42.7547 112.001 42.8189 112.439 42.8189C113.584 42.8189 114.617 42.3576 115.371 41.6101C116.118 40.8626 116.585 39.8232 116.585 38.6787C116.579 37.5341 116.118 36.4947 115.37 35.7472ZM109.431 77.4834C108.719 76.7709 107.75 76.3154 106.669 76.2746C106.628 76.2804 106.587 76.2804 106.541 76.2863C106.471 76.2863 106.401 76.2863 106.336 76.2746C105.256 76.3155 104.287 76.7709 103.568 77.4834C102.821 78.2309 102.354 79.2703 102.354 80.4148C102.354 81.5594 102.815 82.593 103.568 83.3463C104.316 84.0938 105.355 84.5551 106.5 84.5551C107.644 84.5551 108.678 84.0938 109.431 83.3463C110.179 82.5988 110.646 81.5594 110.646 80.4148C110.64 79.2703 110.179 78.2309 109.431 77.4834ZM96.8294 40.9855C96.4674 40.6235 95.971 40.4016 95.4162 40.4016C94.8673 40.4016 94.3651 40.6235 94.003 40.9855C93.641 41.3476 93.4191 41.8498 93.4191 42.3987C93.4191 42.9476 93.641 43.4498 94.003 43.8119C94.3651 44.174 94.8673 44.3959 95.4162 44.3959C95.79 44.3959 96.1404 44.2908 96.444 44.1097C96.4791 44.0747 96.5199 44.0396 96.5667 44.0104C96.6251 43.9696 96.6834 43.9287 96.7418 43.8936C96.7769 43.8644 96.8061 43.8353 96.8353 43.8061C97.1973 43.444 97.4192 42.9418 97.4192 42.3929C97.4134 41.8439 97.1915 41.3476 96.8294 40.9855ZM123.411 58.7082C123.429 58.2002 123.259 57.6863 122.892 57.2892C122.524 56.8862 122.021 56.676 121.513 56.6585C121.005 56.641 120.491 56.8103 120.094 57.1782C119.761 57.4877 119.557 57.8848 119.487 58.3053C119.487 58.3228 119.481 58.3462 119.481 58.3637C119.481 58.3812 119.475 58.3987 119.475 58.4104C119.469 58.4571 119.464 58.5097 119.464 58.5564C119.446 59.0644 119.615 59.5783 119.983 59.9754C120.351 60.3784 120.853 60.5886 121.362 60.6061C121.87 60.6236 122.383 60.4543 122.781 60.0864C123.178 59.7185 123.388 59.2163 123.411 58.7082ZM89.6178 61.2018C89.6294 60.9565 89.6003 60.7054 89.536 60.466C89.5302 60.4543 89.5302 60.4368 89.5243 60.4251C89.4192 60.0631 89.2324 59.7185 88.9637 59.4207C88.5024 58.9185 87.8717 58.6557 87.2411 58.6265C86.6396 58.6031 86.0323 58.7959 85.5418 59.2046C85.5301 59.2163 85.5184 59.2338 85.5067 59.2455L85.5009 59.2397L85.46 59.2747C84.9578 59.736 84.695 60.3609 84.6658 60.9973C84.6425 61.5988 84.8352 62.2062 85.2498 62.6967C85.2615 62.7083 85.279 62.72 85.2907 62.7317L85.2848 62.7375C85.2965 62.7492 85.3082 62.7667 85.3199 62.7784C85.7812 63.2806 86.4119 63.5434 87.0425 63.5726C87.679 63.596 88.3214 63.3799 88.8236 62.9186C89.3258 62.4572 89.5886 61.8324 89.6178 61.2018ZM111.727 57.3009C111.727 57.2834 111.733 57.26 111.733 57.2425C111.738 57.2191 111.738 57.1958 111.744 57.1724C111.768 56.9914 111.785 56.8103 111.791 56.6235C111.849 55.1694 111.365 53.692 110.331 52.524C110.313 52.5065 110.296 52.489 110.278 52.4773L110.284 52.4714L110.249 52.4306C109.607 51.7356 108.836 51.2334 108.007 50.9239L107.972 50.9123L107.931 50.8947C107.37 50.6962 106.786 50.5852 106.196 50.5619C104.701 50.5035 103.189 51.0115 102.009 52.1035C100.83 53.1955 100.199 54.667 100.141 56.1562C100.082 57.6102 100.567 59.0876 101.601 60.2556C101.618 60.2731 101.636 60.2848 101.653 60.3023L101.647 60.3082L101.682 60.3491C102.774 61.5287 104.246 62.1593 105.741 62.2178C107.195 62.2762 108.672 61.7915 109.84 60.7578C109.858 60.7403 109.87 60.7228 109.887 60.7053L109.893 60.7111L109.934 60.6761C110.926 59.7534 111.528 58.5563 111.727 57.3009ZM33.0371 74.8608C35.554 74.3702 38.3045 74.2943 41.2068 74.6622V74.6681C45.5574 75.328 49.6276 74.9834 53.1897 73.7863C56.8863 72.5424 60.0221 70.3877 62.3289 67.497C63.9699 65.4414 65.1202 63.0648 65.786 60.4602C65.8093 60.396 65.8268 60.3259 65.8385 60.2559L65.856 60.1799C66.5042 57.4762 66.621 54.5505 66.1947 51.5197C66.0896 50.7371 65.3655 50.1941 64.5888 50.305C63.8063 50.4101 63.2632 51.1342 63.3742 51.9109C63.6428 53.8146 63.6662 55.6599 63.4618 57.4119L55.2454 50.8598C54.6263 50.3693 53.7329 50.4744 53.2424 51.0875C52.7519 51.7065 52.857 52.6 53.4702 53.0905L62.8136 60.5361C62.3757 61.9727 61.745 63.3216 60.9391 64.5596L48.851 54.9242C48.232 54.4337 47.3386 54.5388 46.8481 55.1519C46.3576 55.7709 46.4627 56.6644 47.0758 57.1549L59.1639 66.7903C58.1478 67.8531 56.9799 68.7699 55.6893 69.5349L46.3109 62.0601C45.6919 61.5696 44.7984 61.6747 44.3079 62.2879C43.8174 62.9069 43.9225 63.8003 44.5357 64.2908L52.8164 70.8955C52.6412 70.9598 52.466 71.0182 52.2908 71.0824C49.1607 72.1335 45.5402 72.4313 41.6392 71.8415V71.8474L41.6042 71.8415C38.2932 71.4152 35.1455 71.5204 32.2607 72.1102C29.3058 72.7175 26.6371 73.8328 24.3596 75.4154C23.7114 75.865 23.5537 76.7527 24.0034 77.4008C24.453 78.049 25.3406 78.2067 25.9888 77.757C27.11 76.9745 28.3422 76.3263 29.6736 75.8124L36.3951 81.1673C37.0141 81.6579 37.9075 81.5528 38.398 80.9396C38.8885 80.3264 38.7834 79.4272 38.1703 78.9367L33.0371 74.8608ZM43.1106 90.371C43.7997 88.66 44.2493 86.8321 44.4537 84.9109C44.6581 83.0073 44.6172 81.0217 44.3369 78.9777C44.2318 78.2011 43.5077 77.6521 42.731 77.7631C41.9544 77.8682 41.4054 78.5923 41.5164 79.369C41.7675 81.1792 41.8025 82.937 41.6215 84.6072C41.4463 86.2657 41.0609 87.8424 40.4652 89.308C40.1733 90.038 40.5295 90.8673 41.2594 91.1593C41.9894 91.4571 42.8186 91.1009 43.1106 90.371ZM41.3295 67.1752C40.9499 64.4831 41.0492 61.9195 41.6157 59.5662C42.1646 57.2711 43.1632 55.1689 44.6056 53.3645C46.5385 50.941 49.1722 49.1658 52.2905 48.1205C55.4732 47.0518 59.1521 46.7306 63.0998 47.2445C66.4109 47.6708 69.5585 47.5657 72.4433 46.9759C75.3982 46.3686 78.0669 45.2533 80.3444 43.6707C80.9926 43.2211 81.1503 42.3334 80.7007 41.6853C80.251 41.0371 79.3634 40.8794 78.7152 41.329C76.7473 42.7014 74.4347 43.6649 71.877 44.1905C69.29 44.7219 66.4519 44.8095 63.462 44.43C59.0764 43.8694 54.9653 44.2314 51.3914 45.4344C47.7533 46.6549 44.6583 48.7454 42.3751 51.6069C40.6816 53.7326 39.4961 56.2144 38.8479 58.924C38.1997 61.6278 38.0829 64.5534 38.5092 67.5843C38.6143 68.3668 39.3384 68.9099 40.115 68.7989C40.8917 68.6763 41.4405 67.9518 41.3295 67.1752ZM63.1633 33.8018C63.3619 32.3886 63.724 31.0396 64.232 29.7724C64.524 29.0425 64.1678 28.2132 63.4378 27.9212C62.7078 27.6293 61.8786 27.9855 61.5866 28.7154C60.8917 30.4322 60.442 32.266 60.2376 34.1989C60.0332 36.1084 60.08 38.0999 60.3661 40.1438C60.4712 40.9263 61.1954 41.4694 61.972 41.3584C62.7487 41.2475 63.2976 40.5292 63.1867 39.7525C63.0699 38.9233 62.9998 38.1057 62.9706 37.3058L68.0978 41.3936C68.7168 41.8841 69.6103 41.779 70.1008 41.1658C70.5913 40.5468 70.4862 39.6534 69.873 39.1629L63.1633 33.8018ZM68.4132 103.592H81.5933C82.3817 103.592 83.024 102.956 83.024 102.162C83.024 101.373 82.3817 100.731 81.5933 100.731L68.4132 100.737C67.6248 100.737 66.9825 101.373 66.9825 102.167C66.9825 102.95 67.6248 103.592 68.4132 103.592ZM94.4643 118.659H44.4356C44.2312 118.659 44.0385 118.746 43.8983 118.88C43.764 119.015 43.6764 119.207 43.6764 119.418V125.532H106.312V119.418C106.312 119.231 106.242 119.056 106.131 118.921C106.119 118.904 106.102 118.892 106.09 118.88C105.95 118.746 105.763 118.659 105.553 118.659L94.4634 118.664L94.4643 118.659ZM7.85548 94.219H142.138L142.144 30.625C142.144 29.0425 141.496 27.6001 140.451 26.5547C139.406 25.5094 137.963 24.8612 136.38 24.8612L13.6191 24.867C12.0366 24.867 10.5942 25.5152 9.54883 26.5605C8.50352 27.6058 7.85534 29.0425 7.85534 30.625L7.85548 94.219ZM142.144 97.0805H7.85548V101.67C7.85548 103.253 8.50368 104.695 9.54897 105.741C10.5943 106.786 12.0367 107.434 13.6193 107.434H136.381C137.963 107.434 139.406 106.786 140.451 105.741C141.496 104.695 142.144 103.253 142.144 101.67V97.0805ZM92.8931 115.802L92.3675 110.283L57.6337 110.289L57.1081 115.808L92.8931 115.802Z" fill="#663366"/>
</svg>
