<svg width="150" height="150" viewBox="0 0 150 150" fill="none" xmlns="http://www.w3.org/2000/svg">
<path d="M138.693 80.4583C137.269 77.7257 134.839 75.7041 131.879 74.77C128.919 73.8358 125.777 74.1147 123.026 75.5368L91.498 91.9467C91.5817 91.4587 91.6376 90.9707 91.6516 90.4827C91.7912 87.4015 90.7021 84.4458 88.5937 82.1593C86.4852 79.8728 83.6368 78.5343 80.551 78.4089L52.974 77.2238C50.9634 77.1401 49.204 77.5305 47.4168 78.4507L28.9995 88.0289L26.947 84.0972C25.8858 82.0756 23.3864 81.2809 21.3478 82.3405L12.23 87.0948C10.2053 88.1544 9.40944 90.65 10.4706 92.6856L31.3872 132.769C31.9038 133.745 32.7556 134.47 33.8168 134.805C34.2357 134.93 34.6546 135 35.0735 135C35.7297 135 36.386 134.847 36.9864 134.526L46.1042 129.772C47.0816 129.256 47.8077 128.405 48.1428 127.346C48.4779 126.286 48.3802 125.171 47.8636 124.195L45.811 120.263L47.7239 119.273C48.5059 118.869 49.3716 118.939 50.6003 119.204L71.0142 123.581C72.6898 123.944 74.505 124.265 76.376 124.265C78.3169 124.265 80.3276 123.916 82.3382 122.87L133.75 96.1154C136.487 94.6933 138.511 92.2673 139.447 89.3116C140.382 86.3559 140.131 83.2049 138.693 80.4583ZM45.071 126.37C45.0012 126.607 44.8336 126.788 44.6241 126.9L35.5063 131.654C35.2969 131.765 35.0455 131.779 34.8082 131.71C34.5708 131.64 34.3893 131.473 34.2776 131.264L13.347 91.1799C13.1236 90.7477 13.2912 90.176 13.738 89.9529L22.8558 85.1987C22.9815 85.129 23.1211 85.1011 23.2607 85.1011C23.5959 85.1011 23.917 85.2823 24.0846 85.5891L45.0012 125.673C45.1129 125.896 45.1408 126.133 45.071 126.37ZM136.375 88.3217C135.705 90.4549 134.239 92.1976 132.27 93.2293L80.8582 119.984C78.1633 121.379 75.3707 121.183 71.7124 120.403L51.2985 116.025C49.6927 115.676 47.9753 115.481 46.2439 116.387L44.3309 117.377L30.4936 90.8871L48.9108 81.3088C50.1814 80.6396 51.3962 80.3747 52.8344 80.4444L80.4113 81.6295C82.6315 81.7271 84.698 82.6891 86.2199 84.3343C87.7419 85.9794 88.5238 88.1126 88.4261 90.3433C88.3284 92.5741 87.3649 94.6236 85.7173 96.1432C84.0557 97.6629 81.9193 98.4437 79.6992 98.3461L61.1424 97.5514C60.2488 97.5096 59.4948 98.2067 59.4529 99.099C59.411 99.9913 60.1091 100.744 61.0028 100.786L79.5596 101.581C79.7271 101.595 79.8947 101.595 80.0623 101.595C82.9666 101.595 85.7312 100.521 87.8955 98.5413C88.5518 97.9418 89.1243 97.2726 89.613 96.5615L89.6269 96.5894L124.52 78.4228C126.489 77.3911 128.765 77.1959 130.902 77.8791C133.038 78.5483 134.783 80.0122 135.817 81.978C136.85 83.9299 137.045 86.1886 136.375 88.3217ZM87.3091 40.3468C87.3091 39.2036 86.2199 38.618 83.7485 37.5305C83.4832 37.419 83.2179 37.2935 82.9526 37.1819C82.7013 37.0704 82.436 36.9589 82.1846 36.8334C79.7411 35.7598 76.6972 34.4214 76.6972 31.0474C76.6972 28.0917 78.9592 25.61 82.0031 24.9547V21.6504C82.0031 20.7581 82.7292 20.0331 83.6228 20.0331C84.5165 20.0331 85.2425 20.7581 85.2425 21.6504V24.9547C88.2865 25.61 90.5485 28.0917 90.5485 31.0474C90.5485 31.9397 89.8224 32.6647 88.9288 32.6647C88.0351 32.6647 87.3091 31.9397 87.3091 31.0474C87.3091 29.3743 85.6475 28.008 83.6228 28.008C81.5982 28.008 79.9366 29.3743 79.9366 31.0474C79.9366 32.1907 81.0257 32.7762 83.4972 33.8637C83.7625 33.9753 84.0278 34.1007 84.2931 34.2123C84.5444 34.3238 84.8097 34.4353 85.061 34.5608C87.5045 35.6344 90.5485 36.9728 90.5485 40.3468C90.5485 43.3025 88.2865 45.7842 85.2425 46.4395V49.7438C85.2425 50.6361 84.5165 51.3611 83.6228 51.3611C82.7292 51.3611 82.0031 50.6361 82.0031 49.7438V46.4395C78.9592 45.7842 76.6972 43.3025 76.6972 40.3468C76.6972 39.4545 77.4233 38.7295 78.3169 38.7295C79.2105 38.7295 79.9366 39.4545 79.9366 40.3468C79.9366 42.0199 81.5982 43.3862 83.6228 43.3862C85.6475 43.3862 87.3091 42.0199 87.3091 40.3468ZM83.6228 56.3942C100.169 56.3942 115.905 49.2419 126.782 36.7637C127.313 36.1502 127.313 35.244 126.782 34.6445C115.905 22.1523 100.169 15 83.6228 15C67.0767 15 51.3404 22.1523 40.4632 34.6305C39.9326 35.244 39.9326 36.1502 40.4632 36.7497C51.3264 49.228 67.0627 56.3942 83.6228 56.3942ZM83.6228 18.6807C93.0199 18.6807 100.658 26.3071 100.658 35.6901C100.658 45.0732 93.0199 52.6995 83.6228 52.6995C74.2257 52.6995 66.588 45.0732 66.588 35.6901C66.574 26.3071 74.2257 18.6807 83.6228 18.6807ZM123.389 35.6901C116.003 43.7208 106.438 49.2558 95.9801 51.7236C100.783 48.015 103.897 42.2151 103.897 35.6901C103.897 29.1652 100.797 23.3653 95.9801 19.6567C106.438 22.1244 116.003 27.6595 123.389 35.6901ZM71.2516 19.6706C66.4483 23.3792 63.3346 29.1792 63.3346 35.7041C63.3346 42.229 66.4344 48.0289 71.2516 51.7375C60.7933 49.2837 51.2287 43.7348 43.8422 35.7041C51.2287 27.6595 60.7933 22.1244 71.2516 19.6706Z" fill="#663366"/>
</svg>
