<svg width="150" height="150" viewBox="0 0 150 150" fill="none" xmlns="http://www.w3.org/2000/svg">
<path d="M131.097 70.1718H109.918C117.838 61.9013 121.623 50.7428 120.332 39.1466C118.319 21.1178 104.295 7.15861 86.2658 5.23321C72.788 3.7454 59.5508 9.45597 51.3897 20.0894H41.0626C38.1307 20.0894 35.7677 22.4743 35.7677 25.3843V45.3166C35.7677 48.2485 38.1526 50.6115 41.0626 50.6115H42.2222L37.5399 60.9168C37.0586 61.9889 37.1461 63.236 37.7806 64.2425C38.4151 65.2489 39.5091 65.8397 40.7125 65.8397H46.5106V70.1499H18.4172C14.3257 70.1499 11 73.4756 11 77.5671V137.583C11 141.674 14.3257 145 18.4172 145H131.097C135.189 145 138.514 141.674 138.514 137.583V77.589C138.536 73.4975 135.189 70.1718 131.097 70.1718ZM85.8282 9.43409C99.678 10.9219 110.815 20.3739 114.775 33.2391H87.2504V25.4062C87.2504 22.4743 84.8655 20.1113 81.9555 20.1113H56.9253C64.2549 12.1909 74.7571 8.25259 85.8282 9.43409ZM40.0123 45.3385V25.4062C40.0123 24.8154 40.4937 24.356 41.0626 24.356H81.9336C82.5244 24.356 82.9838 24.8373 82.9838 25.4062V33.2391H76.4418C75.5229 30.1759 72.7223 27.9442 69.3529 27.9442C65.2614 27.9442 61.9357 31.2699 61.9357 35.3614C61.9357 39.4529 65.2614 42.7786 69.3529 42.7786C72.7004 42.7786 75.5229 40.525 76.4418 37.4837H82.9838V45.3385C82.9838 45.9292 82.5025 46.3887 81.9336 46.3887H45.6135C45.5698 46.3887 45.5479 46.3887 45.5041 46.3887H41.0626C40.4937 46.3887 40.0123 45.9074 40.0123 45.3385ZM72.5473 35.3614C72.5473 37.1118 71.1251 38.5339 69.3747 38.5339C67.6244 38.5339 66.2022 37.1118 66.2022 35.3614C66.2022 33.611 67.6244 32.167 69.3747 32.167C71.1251 32.1889 72.5473 33.611 72.5473 35.3614ZM41.894 61.6169L46.8825 50.6334H81.9336C84.8655 50.6334 87.2285 48.2485 87.2285 45.3385V37.4837H115.781C115.913 38.1839 116.022 38.884 116.11 39.606C117.357 50.7209 113.375 61.3981 105.17 68.8809C101.341 72.3817 99.1529 77.2389 99.1529 82.2056V95.9241H70.7969V85.7938C70.7969 83.1245 68.6308 80.9585 65.9615 80.9585H52.7025C51.6304 80.9585 50.7552 80.0833 50.7552 79.0112V65.0958C50.7552 63.1704 49.2018 61.6169 47.2764 61.6169H41.894ZM18.4172 140.777C16.6668 140.777 15.2446 139.355 15.2446 137.605V77.589C15.2446 75.8386 16.6668 74.4165 18.4172 74.4165H27.9567V140.777H18.4172ZM32.2013 140.777V74.4165H46.5106V79.0331C46.5106 82.4463 49.2893 85.225 52.7025 85.225H65.9615C66.2897 85.225 66.5523 85.4875 66.5523 85.8157V98.0683C66.5523 99.2498 67.4931 100.191 68.6746 100.191H101.297C102.479 100.191 103.419 99.2498 103.419 98.0683V82.2275C103.419 79.4269 104.316 76.7357 105.957 74.4383H120.682V140.799H32.2013V140.777ZM134.291 137.583C134.291 139.333 132.869 140.755 131.119 140.755H124.949V74.4165H131.119C132.869 74.4165 134.291 75.8386 134.291 77.589V137.583Z" fill="#663366"/>
<path d="M23.7577 30.8591L28.3962 32.7845C28.6587 32.8939 28.9432 32.9377 29.2057 32.9377C30.0372 32.9377 30.8248 32.4563 31.1749 31.6249C31.6344 30.5528 31.1093 29.3056 30.0372 28.8462L25.3987 26.9208C24.3266 26.4613 23.0795 26.9864 22.62 28.0585C22.1605 29.1744 22.6856 30.4215 23.7577 30.8591Z" fill="#663366"/>
<path d="M24.5677 43.9548C24.8302 43.9548 25.1147 43.9111 25.3772 43.8017L30.0157 41.8763C31.0878 41.4168 31.6129 40.1915 31.1534 39.0976C30.6939 38.0255 29.4687 37.5004 28.3747 37.9598L23.7362 39.8852C22.6641 40.3447 22.139 41.57 22.5985 42.6639C22.9486 43.4516 23.7362 43.9548 24.5677 43.9548Z" fill="#663366"/>
<path d="M21.593 97.6289C20.4115 97.6289 19.4707 98.5697 19.4707 99.7512V115.439C19.4707 116.62 20.4115 117.561 21.593 117.561C22.7745 117.561 23.7153 116.62 23.7153 115.439V99.7512C23.7153 98.5697 22.7745 97.6289 21.593 97.6289Z" fill="#663366"/>
</svg>
