<svg width="150" height="150" viewBox="0 0 150 150" fill="none" xmlns="http://www.w3.org/2000/svg">
<path d="M129.214 10H74.9512C69.0039 10 64.1655 14.8384 64.1655 20.7857V66.8403H59.961V66.5357C59.961 64.5065 58.3096 62.8551 56.2804 62.8551H48.3893V60.5517H48.6086C50.1503 60.5517 51.4056 59.2964 51.4056 57.7547V53.7451C51.4056 52.2034 50.1503 50.9481 48.6086 50.9481H38.1276C36.5859 50.9481 35.3306 52.2034 35.3306 53.7451V57.7547C35.3306 59.2963 36.5859 60.5517 38.1276 60.5517H38.347V62.8551H30.4558C28.4266 62.8551 26.7753 64.5065 26.7753 66.5357V66.8403H20.8401C18.4698 66.8403 16.5381 68.772 16.5381 71.1424V78.0829H14.6795C12.7539 78.0829 11.1879 79.649 11.1879 81.5746V90.5993C11.1879 92.5249 12.7539 94.0909 14.6795 94.0909H16.5381V103.018C16.5381 105.388 18.4698 107.32 20.8401 107.32H31.8877V111.293H11.6879C10.7555 111.293 10 112.055 10 112.981V125.644C10 133.559 16.4409 140 24.3564 140H62.3927C70.3082 140 76.743 133.559 76.743 125.65V112.987C76.743 112.055 75.9874 111.299 75.0551 111.299L54.8491 111.293V107.32H65.8966C68.267 107.32 70.1987 105.388 70.1987 103.018V99.9774C71.6611 100.703 73.276 101.086 74.9517 101.086H85.8227V116.217C85.8227 116.844 86.1761 117.423 86.7306 117.716C86.9744 117.844 87.2425 117.905 87.5106 117.905C87.8518 117.905 88.1931 117.801 88.4795 117.6L111.94 101.093H129.208C135.156 101.093 139.994 96.2542 139.994 90.3068L140 20.7858C140 14.8384 135.161 10 129.214 10ZM70.198 81.4601H72.0565C72.1175 81.4601 72.1723 81.5149 72.1723 81.5759V90.6005C72.1723 90.6615 72.1175 90.7163 72.0565 90.7163H70.198V81.4601ZM38.7119 54.3246H48.0291V57.1703H38.7119V54.3246ZM41.7222 60.5523H45.0127V62.8557H41.7222V60.5523ZM30.1505 66.5361C30.1505 66.3716 30.2906 66.2315 30.4551 66.2315H56.2801C56.4447 66.2315 56.5848 66.3716 56.5848 66.5361V66.8408H30.1514L30.1505 66.5361ZM14.6849 90.7155C14.624 90.7155 14.5692 90.6606 14.5692 90.5997V81.575C14.5692 81.5141 14.624 81.4593 14.6849 81.4593H16.5435V90.7154L14.6849 90.7155ZM73.3594 125.644C73.3594 131.695 68.4359 136.619 62.3848 136.619L24.3548 136.625C18.3039 136.625 13.3802 131.702 13.3802 125.651V114.676H73.365L73.3594 125.644ZM51.4717 111.294H35.2685V107.321H51.4717V111.294ZM66.8213 103.019C66.8213 103.519 66.3948 103.945 65.8951 103.945H20.8453C20.3456 103.945 19.919 103.519 19.919 103.019V92.4101V92.404V92.3979V79.7658V79.7597V79.7536V71.1252C19.919 70.6255 20.3456 70.199 20.8453 70.199H65.8951C66.3948 70.199 66.8213 70.6255 66.8213 71.1252V103.019ZM136.623 90.3079C136.623 94.3906 133.302 97.7177 129.213 97.7177L111.408 97.7116H111.396C111.359 97.7116 111.323 97.7177 111.286 97.7177C111.268 97.7177 111.249 97.7177 111.225 97.7237C111.189 97.7298 111.158 97.7359 111.121 97.742C111.103 97.7481 111.079 97.7481 111.061 97.7542C111.03 97.7603 111 97.7664 110.975 97.7786C110.951 97.7847 110.926 97.7908 110.902 97.7969C110.878 97.803 110.859 97.8152 110.835 97.8212C110.805 97.8334 110.774 97.8395 110.744 97.8578C110.725 97.8639 110.707 97.8761 110.689 97.8822C110.652 97.9005 110.622 97.9126 110.591 97.9309C110.579 97.937 110.561 97.9492 110.549 97.9614C110.518 97.9797 110.482 97.998 110.451 98.0223C110.445 98.0284 110.445 98.0284 110.439 98.0284L89.2034 112.976V99.4116C89.2034 98.4793 88.4478 97.7238 87.5155 97.7238H74.9566C73.2017 97.7238 71.5382 97.1083 70.2036 95.981V94.1042H72.0621C73.9878 94.1042 75.5538 92.5382 75.5538 90.6125V81.5879C75.5538 79.6623 73.9878 78.0962 72.0621 78.0962H70.2036V71.1557C70.2036 69.3642 69.1068 67.8286 67.553 67.1826L67.5469 20.7864C67.5469 16.7036 70.8678 13.3766 74.9566 13.3766H129.22C133.302 13.3766 136.629 16.6976 136.629 20.7864L136.623 90.3079ZM125.173 17.7277H78.9908C78.0585 17.7277 77.303 18.4833 77.303 19.4156V91.6728C77.303 92.6051 78.0586 93.3607 78.9908 93.3607H125.173C126.105 93.3607 126.861 92.6051 126.861 91.6728V19.4156C126.861 18.4833 126.105 17.7277 125.173 17.7277ZM123.485 89.9849H80.6787V21.1035H123.485V89.9849ZM106.137 41.0834C106.137 39.9256 104.474 38.6338 102.079 38.6338C97.9107 38.6338 94.6446 36.0745 94.6446 32.8022C94.6446 29.993 97.0638 27.7019 100.391 27.1169V26.3552C100.391 25.4229 101.146 24.6674 102.079 24.6674C103.011 24.6674 103.767 25.423 103.767 26.3552V27.1169C107.094 27.7019 109.513 29.987 109.513 32.8022C109.513 33.7345 108.757 34.4901 107.825 34.4901C106.893 34.4901 106.137 33.7345 106.137 32.8022C106.137 31.6444 104.474 30.3526 102.079 30.3526C99.6901 30.3526 98.0204 31.6444 98.0204 32.8022C98.0204 33.96 99.6839 35.2518 102.079 35.2518C106.247 35.2518 109.513 37.8111 109.513 41.0834C109.513 43.8926 107.094 46.1837 103.767 46.7687V47.5304C103.767 48.4627 103.011 49.2182 102.079 49.2182C101.146 49.2182 100.391 48.4626 100.391 47.5304V46.7687C97.0638 46.1837 94.6446 43.8987 94.6446 41.0834C94.6446 40.1511 95.4002 39.3955 96.3325 39.3955C97.2648 39.3955 98.0204 40.1511 98.0204 41.0834C98.0204 42.2412 99.6839 43.533 102.079 43.533C104.474 43.533 106.137 42.2412 106.137 41.0834ZM84.1277 62.2832C83.5245 61.5703 83.6098 60.51 84.3166 59.9007C85.0296 59.2974 86.0898 59.3827 86.6991 60.0896L88.8137 62.5759L94.8281 55.1478C95.413 54.4227 96.4794 54.313 97.2045 54.898C97.9296 55.4829 98.0393 56.5493 97.4543 57.2744L90.1603 66.2867C89.8435 66.6767 89.3681 66.9083 88.8685 66.9144H88.8502C88.3566 66.9144 87.8874 66.7011 87.5645 66.3172L84.1277 62.2832ZM102.627 55.9641H110.689C111.621 55.9641 112.377 56.7198 112.377 57.652C112.377 58.5843 111.621 59.3399 110.689 59.3399H102.627C101.695 59.3399 100.939 58.5843 100.939 57.652C100.939 56.7198 101.695 55.9641 102.627 55.9641ZM102.627 62.0943H118.751C119.683 62.0943 120.439 62.8499 120.439 63.7822C120.439 64.7144 119.683 65.4701 118.751 65.4701H102.627C101.695 65.4701 100.939 64.7144 100.939 63.7822C100.939 62.8499 101.695 62.0943 102.627 62.0943ZM84.1277 78.2539C83.5245 77.541 83.6098 76.4807 84.3166 75.8714C85.0296 75.2681 86.0898 75.3534 86.6991 76.0603L88.8137 78.5465L94.8281 71.1185C95.413 70.3934 96.4794 70.2837 97.2045 70.8686C97.9296 71.4536 98.0393 72.52 97.4543 73.2451L90.1603 82.2574C89.8435 82.6474 89.3681 82.879 88.8685 82.8851H88.8502C88.3566 82.8851 87.8874 82.6657 87.5645 82.2879L84.1277 78.2539ZM100.939 73.6289C100.939 72.6966 101.695 71.9411 102.627 71.9411H110.689C111.621 71.9411 112.377 72.6967 112.377 73.6289C112.377 74.5612 111.621 75.3168 110.689 75.3168H102.627C101.695 75.3168 100.939 74.5551 100.939 73.6289ZM120.439 79.753C120.439 80.6854 119.683 81.4409 118.751 81.4409H102.627C101.695 81.4409 100.939 80.6853 100.939 79.753C100.939 78.8208 101.695 78.0652 102.627 78.0652H118.751C119.683 78.0652 120.439 78.8208 120.439 79.753ZM64.0122 72.2579H22.728C21.7957 72.2579 21.0402 73.0135 21.0402 73.9458V100.215C21.0402 101.148 21.7958 101.903 22.728 101.903H64.0059C64.9382 101.903 65.6938 101.148 65.6938 100.215L65.6999 73.9458C65.6999 73.0135 64.9444 72.2579 64.0122 72.2579ZM62.3182 98.5276H24.4161V75.6336H62.3182V98.5276Z" fill="#663366"/>
</svg>
