<svg width="150" height="150" viewBox="0 0 150 150" fill="none" xmlns="http://www.w3.org/2000/svg">
<path d="M14.0001 41.4997V114.367C13.9959 115.308 14.1787 116.241 14.5379 117.111C14.8971 117.981 15.4255 118.771 16.0925 119.435C16.7596 120.1 17.5519 120.625 18.4235 120.98C19.2951 121.336 20.2286 121.514 21.1699 121.506H55.5079L51.6541 135.649H43.8215C43.2444 135.649 42.691 135.878 42.283 136.286C41.875 136.694 41.6457 137.247 41.6457 137.824C41.6457 138.401 41.875 138.955 42.283 139.363C42.691 139.771 43.2444 140 43.8215 140H53.302H53.3098H53.3161H96.524H96.5302H96.5381H106.019C106.596 140 107.149 139.771 107.557 139.363C107.965 138.955 108.194 138.401 108.194 137.824C108.194 137.247 107.965 136.694 107.557 136.286C107.149 135.878 106.596 135.649 106.019 135.649H98.186L94.3322 121.506H128.671C129.613 121.514 130.546 121.336 131.418 120.98C132.289 120.625 133.082 120.1 133.749 119.435C134.416 118.771 134.944 117.981 135.303 117.111C135.662 116.241 135.845 115.308 135.841 114.367V41.4997C135.841 37.5113 132.659 34.205 128.671 34.205H110.896C110.8 33.8183 110.62 33.4571 110.37 33.1465L90.272 10.7653C90.0703 10.5326 89.8224 10.3443 89.544 10.2126C89.2656 10.0808 88.9628 10.0084 88.6549 10H48.6162C43.2656 10 39.021 14.4733 39.021 19.824V34.205H21.1699C17.1821 34.205 14.0001 37.5113 14.0001 41.4997ZM93.6721 135.649H56.1679L60.0217 121.506H89.8184L93.6721 135.649ZM128.671 117.155H21.1699C20.8 117.164 20.432 117.098 20.088 116.961C19.7441 116.825 19.4312 116.62 19.1681 116.36C18.905 116.1 18.6971 115.789 18.5568 115.447C18.4165 115.104 18.3467 114.737 18.3515 114.367V102.197H131.49V114.367C131.494 114.737 131.425 115.104 131.284 115.447C131.144 115.789 130.936 116.1 130.673 116.36C130.41 116.62 130.097 116.825 129.753 116.961C129.409 117.098 129.041 117.164 128.671 117.155ZM90.9666 17.967L102.4 30.9414H92.4189C91.5432 30.9414 90.9661 30.1122 90.9661 29.2365L90.9666 17.967ZM131.49 41.4997V97.8452H110.82V38.5565H128.671C129.435 38.574 130.161 38.8936 130.689 39.4454C131.217 39.9972 131.505 40.7359 131.49 41.4997ZM48.6162 14.3515H86.6151V29.2365C86.6151 32.5118 89.1444 35.2929 92.4195 35.2929H106.317L106.47 35.4672V97.8452H43.3725V19.824C43.3725 16.8729 45.6651 14.3515 48.6162 14.3515ZM39.021 97.8452H18.3515V41.4997C18.3359 40.7359 18.6239 39.9972 19.1522 39.4454C19.6806 38.8936 20.4062 38.574 21.1699 38.5565H39.021V97.8452Z" fill="#663366"/>
<path d="M54.344 77.0973L74.2808 83.5358C74.4915 83.6051 74.7118 83.6404 74.9335 83.6405C75.158 83.6406 75.381 83.6052 75.5944 83.5358L95.4996 77.0973C95.9313 76.9531 96.3052 76.6741 96.5663 76.3014C96.8274 75.9287 96.9619 75.482 96.95 75.0271V47.776C96.9614 47.3209 96.8264 46.8741 96.5649 46.5013C96.3035 46.1286 95.9293 45.8496 95.4975 45.7053L75.5607 39.2667C75.1312 39.1272 74.6686 39.1272 74.2392 39.2667L54.3372 45.7053C53.9061 45.8499 53.5329 46.1292 53.2726 46.5021C53.0123 46.8749 52.8787 47.3215 52.8915 47.776V75.0271C52.8802 75.4822 53.0153 75.9288 53.2767 76.3015C53.5382 76.6741 53.9123 76.953 54.344 77.0973ZM57.2429 50.7644L72.4731 55.712V78.3897L57.2429 73.4418V50.7644ZM76.8245 78.5651V55.8874L92.5986 50.7644V73.4418L76.8245 78.5651ZM74.9207 43.6242L87.7965 47.776L74.9207 51.9292L62.045 47.776L74.9207 43.6242Z" fill="#663366"/>
</svg>
