<svg width="150" height="150" viewBox="0 0 150 150" fill="none" xmlns="http://www.w3.org/2000/svg">
<path d="M131.847 88.3759C134.08 82.1102 135.225 75.5176 135.225 68.8433C135.225 53.1245 128.986 38.3319 117.653 27.2171C106.348 16.1295 91.3101 10 75.2917 10C59.2733 10 44.2355 16.1295 32.93 27.2171C21.5972 38.3319 15.3588 53.1245 15.3588 68.8433C15.3588 75.5176 16.5029 82.1102 18.764 88.3759C13.7242 92.0264 11 96.14 11 100.444C11 106.628 16.6391 112.54 26.9095 117.062L27.7812 115.073C18.3554 110.905 13.1794 105.729 13.1794 100.444C13.1794 96.9573 15.4132 93.552 19.5268 90.4736C20.6982 93.3613 22.0876 96.1672 23.6949 98.837L25.5474 97.72C23.9128 94.9958 22.4962 92.1626 21.3521 89.2205C24.948 86.9321 29.6337 84.8344 35.3001 83.0365L34.6463 80.966C29.0344 82.7368 24.2942 84.8344 20.5893 87.1773C18.5733 81.2385 17.5381 75.0817 17.5381 68.8433C17.5381 37.5964 43.4455 12.1794 75.2917 12.1794C107.138 12.1794 133.045 37.5964 133.045 68.8433C133.045 75.0545 132.01 81.2385 129.967 87.1228C126.97 85.2431 123.32 83.5268 119.043 82.0013L118.307 84.0444C122.611 85.5972 126.262 87.3407 129.204 89.2205C128.06 92.1626 126.643 94.9958 125.009 97.6928L126.861 98.8097C128.469 96.14 129.858 93.3613 131.029 90.4736C135.17 93.5792 137.404 96.9845 137.404 100.417C137.404 106.492 130.43 112.485 118.307 116.817L119.043 118.86C132.282 114.12 139.583 107.554 139.583 100.39C139.583 96.1127 136.886 91.9992 131.847 88.3759Z" fill="#663366"/>
<path d="M48.0645 126.4L45.8848 139.486L48.0345 139.844L50.2143 126.758L48.0645 126.4Z" fill="#663366"/>
<path d="M98.1752 45.96V24.3842C98.1752 23.9755 97.9572 23.5941 97.5758 23.4034C91.637 20.3795 83.7368 18.7178 75.2917 18.7178C66.8466 18.7178 58.9463 20.3795 53.0075 23.4034C52.6534 23.5941 52.4082 23.9755 52.4082 24.3842V48.1394H54.5876V25.0652C60.145 22.3682 67.4732 20.8972 75.2917 20.8972C83.1102 20.8972 90.4384 22.3682 95.9958 25.0652V45.96H98.1752Z" fill="#663366"/>
<path d="M45.8706 52.4977V30.7039C45.8706 30.1046 45.3802 29.6143 44.7809 29.6143C44.5357 29.6143 44.3178 29.696 44.1271 29.8322C37.3982 34.872 32.0588 41.5191 28.5445 49.1469C28.49 49.2832 28.4355 49.4466 28.4355 49.6101V71.4039C28.4355 72.0032 28.9259 72.4935 29.5252 72.4935C29.9611 72.4935 30.3425 72.2484 30.506 71.867C33.8568 64.5661 39.0055 58.2186 45.4347 53.3967C45.7071 53.1516 45.8706 52.8519 45.8706 52.4977ZM43.6912 51.9529C38.4062 56.0392 33.9385 61.1063 30.6149 66.9089V49.8552C33.6661 43.3171 38.1338 37.5418 43.6912 32.9651V51.9529Z" fill="#663366"/>
<path d="M121.877 58.9539L120.188 45.5507C120.079 44.679 119.615 43.8889 118.907 43.3441L118.798 43.1806C115.529 38.0318 111.334 33.5096 106.457 29.8319C105.967 29.4778 105.286 29.5595 104.932 30.0499C104.796 30.2406 104.714 30.4585 104.714 30.7037V43.78H104.741C103.352 44.8152 102.562 46.4225 102.535 48.1387V53.8868L101.118 54.35C98.2575 55.3034 96.732 58.3818 97.6854 61.2422C97.7127 61.3512 97.7672 61.4329 97.7944 61.5419L100.328 67.8893L96.4868 106.328C96.2961 108.126 94.716 109.434 92.918 109.243C92.7818 109.243 92.6729 109.216 92.5367 109.189L78.5614 106.11V96.4392C82.5115 91.127 85.3175 85.052 86.843 78.5955L89.2403 77.9417C90.6569 77.5603 91.6377 76.2527 91.6377 74.7816V65.9824C91.6377 64.5113 90.6569 63.2037 89.2131 62.8223C89.3766 60.6429 89.4583 58.4363 89.4583 56.2569V45.9593C89.4583 45.36 88.9679 44.8696 88.3686 44.8696C88.1234 44.8696 87.9055 44.9514 87.7148 45.0876C82.2391 49.1739 75.592 51.3805 68.7542 51.4078H64.3682C57.04 51.435 50.5019 56.039 48.0228 62.9313L47.5869 62.8495C45.8162 62.4954 44.0999 63.6396 43.7458 65.4103C43.6913 65.6282 43.6913 65.8462 43.6913 66.0641V74.8361C43.6913 76.28 44.6448 77.5603 46.0341 77.969L46.7697 78.1869C46.7969 78.5411 46.8514 78.868 46.9059 79.2221C47.7232 84.834 49.9298 90.1735 53.3351 94.723L54.6427 96.4392V106.11L44.5358 108.344C38.8149 109.624 34.1838 113.874 32.4675 119.486L26.3652 139.346L28.4356 140L34.5379 120.14C36.0362 115.264 40.0408 111.586 44.9989 110.469L55.5417 108.126C62.4067 112.076 70.8246 112.076 77.6896 108.126L92.1008 111.341C94.1984 111.804 96.3778 110.987 97.6582 109.27L108.991 122.483C107.711 123.872 106.022 124.88 104.196 125.343L94.6888 127.713C94.1167 127.85 93.7626 128.422 93.8715 128.994L96.0509 139.891L98.1758 139.455L96.1871 129.566L104.687 127.441C109.835 126.133 113.54 121.584 113.758 116.272L115.611 68.2163L120.351 63.4761C121.522 62.3047 122.094 60.6429 121.877 58.9539ZM89.4583 74.8089C89.4583 75.2992 89.1314 75.7351 88.6683 75.8713L82.9201 77.4241V65.9007L88.1779 64.9472C88.7772 64.8382 89.3493 65.2196 89.4583 65.8189C89.4583 65.8734 89.4855 65.9552 89.4855 66.0096V74.8089H89.4583ZM59.737 67.508C64.2592 68.407 68.8904 68.4614 73.4126 67.6169L80.7408 66.2821V78.0235L76.0823 79.3038C69.8983 80.9929 63.333 80.9111 57.1762 79.0587L54.5882 78.2959V66.5L59.737 67.508ZM64.3682 53.5872H68.7542C75.3468 53.5599 81.776 51.653 87.2789 48.057V56.2841C87.2789 58.4908 87.1972 60.7246 87.0337 62.9313L73.0312 65.4648C68.7814 66.2548 64.3954 66.2003 60.1729 65.3558L50.2022 63.3671C52.4633 57.4828 58.0752 53.6144 64.3682 53.5872ZM45.8707 74.8361V66.0369C45.8707 65.4375 46.361 64.9472 46.9604 64.9472C47.0421 64.9472 47.0966 64.9472 47.1783 64.9744L52.4088 66.0096V77.5876L46.6607 75.8713C46.1976 75.7624 45.8707 75.3265 45.8707 74.8361ZM49.0308 78.9225V78.8952L56.5496 81.1563C63.0878 83.1178 70.0618 83.1995 76.6544 81.4015L84.4457 79.2766C82.9201 85.052 80.3049 90.4732 76.7361 95.2678C70.4704 98.9455 62.7064 98.9455 56.4134 95.2678L55.0241 93.4153C51.864 89.1655 49.7936 84.1802 49.0308 78.9225ZM56.7676 106.355V97.9103C62.9516 100.961 70.198 100.961 76.382 97.9103V106.355C70.2797 109.761 62.8698 109.761 56.7676 106.355ZM106.893 32.9375C110.326 35.7707 113.322 39.0398 115.856 42.6903H107.983C107.629 42.6903 107.247 42.7175 106.893 42.7992V32.9375ZM118.771 61.9505L113.731 66.9904C113.54 67.181 113.431 67.4535 113.404 67.7259L111.552 116.217C111.497 117.797 111.034 119.323 110.244 120.712L98.5572 107.064C98.5844 106.9 98.6117 106.737 98.6389 106.573L102.535 67.8621C102.562 67.6987 102.535 67.508 102.453 67.3445L99.8103 60.7519C99.1293 59.0629 99.9465 57.1831 101.636 56.5021C101.69 56.4748 101.745 56.4476 101.826 56.4476L103.978 55.7393C104.414 55.6031 104.714 55.1672 104.714 54.7041V48.166C104.714 46.368 106.185 44.8969 107.983 44.8969H116.946C117.491 44.8969 117.954 45.3055 118.035 45.8504L119.724 59.2536C119.833 60.2343 119.506 61.2422 118.771 61.9505Z" fill="#663366"/>
<path d="M90.847 31.6846C80.6584 28.9059 69.9249 28.9059 59.7363 31.6846L60.3357 33.7823C70.1156 31.1125 80.4404 31.1125 90.2476 33.7823L90.847 31.6846Z" fill="#663366"/>
<path d="M59.7363 40.4022L60.3357 42.4999C65.212 41.1378 70.2246 40.4839 75.2917 40.5112C77.4438 40.5112 79.5687 40.6202 81.7208 40.8653L81.966 38.686C79.7594 38.4408 77.5255 38.3318 75.3189 38.3318C70.0339 38.3046 64.8034 39.0129 59.7363 40.4022Z" fill="#663366"/>
<path d="M38.8419 14.3311L37.6433 12.5059C31.2958 16.6739 25.6839 21.8499 21.0527 27.8432L22.769 29.1781C27.264 23.4028 32.7124 18.3629 38.8419 14.3311Z" fill="#663366"/>
<path d="M19.5537 33.728L17.7285 32.5293C16.3936 34.5997 15.1405 36.7246 14.0508 38.9312L15.985 39.9119C17.0474 37.7871 18.2461 35.7166 19.5537 33.728Z" fill="#663366"/>
<path d="M135.66 42.0641L137.648 41.1379C133.862 32.9379 128.468 25.5553 121.821 19.4258L120.35 21.0331C126.779 26.9719 131.982 34.1094 135.66 42.0641Z" fill="#663366"/>
<path d="M117.381 15.694C115.256 14.0322 113.05 12.5339 110.734 11.1445L109.617 12.997C111.851 14.3319 114.003 15.8302 116.046 17.4102L117.381 15.694Z" fill="#663366"/>
</svg>
