<svg width="150" height="150" viewBox="0 0 150 150" fill="none" xmlns="http://www.w3.org/2000/svg">
<path fill-rule="evenodd" clip-rule="evenodd" d="M120.904 25.265L120.4 22.0222H116.775L116.255 25.3666C116.153 25.9873 115.691 26.4636 115.128 26.6081C114.447 26.7793 113.782 26.9987 113.134 27.2716C112.469 27.5445 111.847 27.8603 111.257 28.2081C110.721 28.5238 110.056 28.481 109.578 28.1385L106.833 26.1319L104.275 28.6844L106.286 31.4242C106.677 31.9593 106.661 32.6496 106.329 33.1526C105.98 33.7305 105.68 34.3352 105.417 34.972C105.154 35.6087 104.94 36.2723 104.768 36.9626C104.607 37.61 104.044 38.0595 103.412 38.1023L100.173 38.6054V42.2227L103.524 42.7418C104.146 42.8434 104.623 43.3036 104.768 43.8655C104.94 44.5451 105.16 45.2086 105.417 45.8401C105.691 46.5036 106.007 47.1243 106.355 47.713C106.672 48.2481 106.629 48.9117 106.286 49.388L104.275 52.1278L106.833 54.6803L109.578 52.6737C110.115 52.283 110.806 52.283 111.31 52.6308C111.889 52.9626 112.495 53.2676 113.134 53.5405C113.772 53.8028 114.437 54.0329 115.128 54.188C115.777 54.3486 116.228 54.9104 116.27 55.5419L116.775 58.7847H120.399L120.92 55.4402C121.021 54.8195 121.483 54.3432 122.046 54.1988C122.727 54.0275 123.392 53.8081 124.04 53.5352C124.705 53.2623 125.327 52.9466 125.917 52.5988C126.454 52.283 127.119 52.3259 127.596 52.6683L130.341 54.6749L132.899 52.1224L130.888 49.3826C130.497 48.8475 130.497 48.1572 130.846 47.6542C131.178 47.0763 131.484 46.4716 131.757 45.8349C132.02 45.1981 132.25 44.5346 132.406 43.8443C132.567 43.1968 133.13 42.7473 133.763 42.7045L137.012 42.2015V38.5841L133.661 38.0651C133.039 37.9634 132.561 37.5032 132.417 36.9413C132.245 36.2617 132.025 35.5982 131.768 34.9668C131.494 34.3032 131.178 33.6825 130.829 33.0938C130.513 32.5587 130.556 31.8952 130.899 31.4189L132.91 28.6791L130.352 26.1266L127.607 28.1332C127.07 28.5238 126.379 28.5238 125.875 28.176C125.295 27.8282 124.689 27.5285 124.051 27.2663C123.413 27.0041 122.748 26.774 122.057 26.6188C121.408 26.4583 120.957 25.8964 120.914 25.265L120.904 25.265ZM98.4191 97.1365C97.5826 97.1365 96.9015 96.4569 96.9015 95.6221C96.9015 94.7872 97.5826 94.1077 98.4191 94.1077H114.865C115.701 94.1077 116.382 94.7872 116.382 95.6221C116.382 96.4569 115.701 97.1365 114.865 97.1365H98.4191ZM98.4191 90.2174C97.5826 90.2174 96.9015 89.5378 96.9015 88.703C96.9015 87.8682 97.5826 87.1886 98.4191 87.1886H114.865C115.701 87.1886 116.382 87.8682 116.382 88.703C116.382 89.5378 115.701 90.2174 114.865 90.2174H98.4191ZM98.4191 83.2984C97.5826 83.2984 96.9015 82.6188 96.9015 81.7839C96.9015 80.9491 97.5826 80.2695 98.4191 80.2695H114.865C115.701 80.2695 116.382 80.9491 116.382 81.7839C116.382 82.6188 115.701 83.2984 114.865 83.2984H98.4191ZM98.4191 76.3793C97.5826 76.3793 96.9015 75.6997 96.9015 74.8649C96.9015 74.0301 97.5826 73.3505 98.4191 73.3505H114.865C115.701 73.3505 116.382 74.0301 116.382 74.8649C116.382 75.6997 115.701 76.3793 114.865 76.3793H98.4191ZM118.577 29.4015C121.628 29.4015 124.4 30.643 126.395 32.6336C128.39 34.6403 129.634 37.3909 129.634 40.4356C129.634 43.4803 128.39 46.247 126.395 48.2376C124.4 50.2442 121.628 51.4697 118.577 51.4697C115.526 51.4697 112.753 50.2282 110.759 48.2376C108.764 46.247 107.52 43.4803 107.52 40.4356C107.52 37.3909 108.764 34.6242 110.759 32.6336C112.753 30.643 115.526 29.4015 118.577 29.4015ZM124.24 34.7794C125.682 36.2189 126.583 38.2255 126.583 40.4303C126.583 42.635 125.687 44.6416 124.24 46.0811C122.797 47.5206 120.786 48.4195 118.577 48.4195C116.368 48.4195 114.357 47.5258 112.914 46.0811C111.472 44.6416 110.571 42.635 110.571 40.4303C110.571 38.2255 111.466 36.2189 112.914 34.7794C114.357 33.34 116.368 32.441 118.577 32.441C120.786 32.441 122.797 33.3347 124.24 34.7794ZM128.315 57.0032V108.048C128.315 109.156 127.854 110.183 127.13 110.917C126.395 111.65 125.382 112.099 124.256 112.099H81.9894L82.7724 118.371H84.2739C86.1507 118.371 87.856 119.136 89.1 120.377C90.344 121.619 91.1108 123.32 91.1108 125.193V130.486C91.1108 131.32 90.4298 132 89.5932 132H48.7588C47.9223 132 47.2413 131.32 47.2413 130.486V125.193C47.2413 123.32 48.0081 121.619 49.2521 120.377C50.4961 119.136 52.2013 118.371 54.0782 118.371H55.5797L56.3626 112.099L14.0594 112.088C12.9333 112.088 11.9198 111.628 11.1851 110.906C10.4504 110.173 10 109.161 10 108.038V33.2714C10 32.1477 10.4612 31.1363 11.1851 30.4032C11.909 29.67 12.9332 29.2205 14.0594 29.2205H101.064C100.994 28.9583 100.962 28.7015 100.978 28.4393C101.021 27.9202 101.241 27.4172 101.627 27.0267L105.166 23.4949C105.558 23.1043 106.062 22.8902 106.566 22.8474C107.07 22.8046 107.606 22.9491 108.057 23.2809L110.571 25.1271C111.022 24.897 111.483 24.6776 111.944 24.4796C112.405 24.2923 112.899 24.105 113.376 23.9605L113.853 20.8889C113.939 20.3431 114.213 19.8776 114.604 19.5351C114.995 19.2033 115.5 19 116.047 19H121.06C121.607 19 122.117 19.2033 122.503 19.5351C122.894 19.8669 123.168 20.3431 123.253 20.8889L123.731 23.9605C124.224 24.1211 124.701 24.2923 125.163 24.4796C125.624 24.6669 126.085 24.8809 126.535 25.1271L129.05 23.2809C129.501 22.9491 130.021 22.8207 130.541 22.8474C131.061 22.8902 131.565 23.1096 131.957 23.4949L135.496 27.0267C135.887 27.4173 136.102 27.9203 136.145 28.4393C136.187 28.9423 136.043 29.4774 135.71 29.9269L133.86 32.4365C134.091 32.886 134.31 33.3462 134.509 33.8064C134.697 34.2666 134.884 34.7589 135.029 35.2352L138.107 35.7115C138.654 35.7971 139.121 36.07 139.464 36.4606C139.796 36.8513 140 37.3543 140 37.9001V42.9034C140 43.4492 139.796 43.9575 139.464 44.3429C139.131 44.7335 138.654 45.0064 138.107 45.092L135.029 45.5683C134.868 46.0606 134.697 46.5368 134.509 46.9971C134.321 47.4573 134.107 47.9175 133.86 48.367L135.694 50.8766C136.026 51.3261 136.155 51.8452 136.128 52.3642C136.085 52.8832 135.866 53.3862 135.479 53.7768L131.94 57.3085C131.549 57.6992 131.045 57.9132 130.525 57.956C130.021 57.9988 129.484 57.8544 129.034 57.5226L128.251 56.9607L128.315 57.0032ZM103.112 32.2753L103.241 32.4465C103.01 32.896 102.791 33.3562 102.592 33.8164C102.464 34.1321 102.346 34.4532 102.233 34.7689L17.0787 34.7529C16.2422 34.7529 15.5611 35.4324 15.5611 36.2673V105.009C15.5611 105.843 16.2421 106.523 17.0787 106.523H121.249C122.085 106.523 122.766 105.843 122.766 105.009V61.0541C123.04 60.7491 123.217 60.3638 123.286 59.9304L123.764 56.8588C124.257 56.6983 124.734 56.527 125.195 56.3398L125.265 56.313V108.01C125.265 108.283 125.147 108.545 124.959 108.732C124.772 108.92 124.525 109.038 124.235 109.038L14.0598 109.032C13.7863 109.032 13.5235 108.914 13.3359 108.727C13.1482 108.54 13.0302 108.294 13.0302 108.005L13.0356 33.2701C13.0356 32.9972 13.1535 32.735 13.3412 32.5477C13.5289 32.3604 13.7756 32.2427 14.0651 32.2427H103.124L103.112 32.2753ZM119.715 61.8513V103.51L18.5965 103.494V37.7813H97.1175V37.899V42.9023C97.1175 43.4481 97.3212 43.9564 97.6537 44.3417C97.9862 44.7324 98.4634 45.0053 99.0104 45.0909L102.088 45.5671C102.249 46.0595 102.421 46.5357 102.609 46.9959C102.796 47.4562 103.011 47.9163 103.257 48.3658L101.407 50.8755C101.075 51.325 100.946 51.844 100.973 52.3631C101.016 52.8821 101.236 53.3851 101.622 53.7757L105.161 57.3074C105.161 57.3074 105.263 57.393 105.306 57.4358C105.665 57.7409 106.115 57.9282 106.577 57.9549C107.081 57.9977 107.617 57.8532 108.067 57.5215L110.582 55.6753C111.033 55.9054 111.494 56.1247 111.955 56.3228C112.416 56.51 112.91 56.6973 113.387 56.8418L113.864 59.9134C113.95 60.4592 114.223 60.9248 114.615 61.2672C115.006 61.599 115.51 61.8023 116.057 61.8023H119.698L119.715 61.8513ZM61.7687 63.2908L58.2724 66.7798L56.8996 65.4099C56.3097 64.8212 55.3392 64.8212 54.7439 65.4099C54.1541 65.9985 54.1541 66.967 54.7439 67.561L56.8996 69.7122C57.275 70.0867 57.779 70.2901 58.2724 70.2901C58.7657 70.2901 59.2698 70.1028 59.6612 69.7122L63.9404 65.4419C64.5303 64.8533 64.5303 63.8848 63.9404 63.2908C63.3505 62.7022 62.38 62.7022 61.7847 63.2908H61.7687ZM40.7859 92.101C41.0755 92.7646 41.3221 93.4976 41.5206 94.2362C41.853 95.4883 42.0675 96.8047 42.2016 97.7839C45.7837 98.014 49.3389 98.1424 52.8673 98.1585C55.8273 98.1585 58.7927 98.0996 61.7849 97.9551C61.12 96.9438 60.5409 95.7773 60.0636 94.4501C59.152 91.9832 58.53 88.9278 58.1868 85.3103C58.1707 85.123 58.1868 84.9357 58.2297 84.7645H56.9749C56.4547 84.7645 55.9775 84.5772 55.6021 84.2615C55.2267 83.9458 54.964 83.4963 54.8782 82.9772L54.5296 80.6976C54.5296 80.6815 54.5296 80.6708 54.5136 80.6548C54.5136 80.6548 54.4975 80.6548 54.4707 80.6387C54.1382 80.521 53.8647 80.4247 53.6341 80.323C53.3177 80.1946 53.0443 80.0608 52.8083 79.9645C52.7815 79.9645 52.7654 79.9484 52.7654 79.9484L52.7386 79.9752L50.8725 81.3451C50.4542 81.6501 49.9501 81.7946 49.4729 81.7464C48.9796 81.7036 48.5023 81.5002 48.127 81.1417L44.7916 77.8133C44.4162 77.4387 44.2124 76.9785 44.1856 76.4701C44.1427 75.9778 44.2875 75.4909 44.5878 75.0735L45.9605 73.2113L45.9874 73.1845C45.9874 73.1845 45.9874 73.1685 45.9713 73.1417C45.8426 72.8956 45.7246 72.6227 45.612 72.3177C45.4833 72.0019 45.3814 71.729 45.2956 71.4829C45.2956 71.4668 45.2956 71.4561 45.2795 71.4401C45.2795 71.4401 45.2527 71.4401 45.2366 71.424L43.081 71.0923H42.9523C42.4321 71.0227 41.9978 70.7444 41.6653 70.3699C41.3489 69.9953 41.1612 69.519 41.1612 69V64.2856C41.1612 63.7665 41.3489 63.2903 41.6653 62.9157C41.9817 62.5411 42.4321 62.2789 42.9523 62.2094L45.2367 61.8615C45.2367 61.8615 45.2635 61.8615 45.2796 61.8455C45.2796 61.8455 45.2796 61.8294 45.2957 61.8027C45.3815 61.5298 45.4994 61.2568 45.6121 60.9679C45.73 60.6789 45.8587 60.406 45.9713 60.1438C45.9713 60.1171 45.9874 60.101 45.9874 60.101L45.9606 60.0742L44.5878 58.212C44.2822 57.7946 44.1374 57.2916 44.1857 56.8154C44.2286 56.3231 44.4323 55.8468 44.7916 55.4723L48.127 52.1438C48.5024 51.7692 48.9636 51.5659 49.473 51.5391C49.9663 51.4963 50.4543 51.6408 50.8725 51.9405L52.7387 53.3104L52.7655 53.3371C52.7655 53.3371 52.7816 53.3371 52.8084 53.3211C53.0551 53.2033 53.3285 53.0749 53.6342 52.9625C53.9238 52.8448 54.2133 52.7324 54.4707 52.6468C54.4868 52.6468 54.4975 52.6468 54.5136 52.6308C54.5136 52.6308 54.5136 52.604 54.5297 52.588L54.8622 50.4368C51.4249 48.5318 47.3763 47.7987 43.3867 48.0716C40.1049 48.3017 36.8714 49.2114 34.0668 50.7257C31.3052 52.2133 28.9672 54.2897 27.4174 56.842C25.9749 59.2233 25.2187 62.0487 25.4387 65.2487C25.4977 66.1156 25.7979 67.068 26.1036 68.0045C26.6667 69.7918 27.2458 71.5951 26.7256 73.7463C26.6827 73.9068 26.6238 74.062 26.538 74.2065L22.9988 80.6385C23.6369 80.6813 24.4413 80.6385 24.9347 80.6385H25.0956C25.9321 80.6118 26.6399 81.2593 26.656 82.094V82.1957V83.7368C27.3638 83.3195 28.2915 83.5335 28.7205 84.2559C28.9833 84.6733 29.0101 85.1763 28.8385 85.5991C28.6079 86.2198 28.3773 86.7228 28.1467 87.1562L28.2647 87.183C28.4685 87.2258 28.624 87.2525 28.8009 87.3007C29.6106 87.5147 30.0879 88.3549 29.868 89.1629C29.868 89.2218 29.8412 89.2646 29.809 89.3235C29.4176 90.3188 29.1173 91.1428 28.9296 91.7154C28.8438 92.0044 28.7688 92.1756 28.7419 92.2773C28.758 92.3201 28.7848 92.3469 28.8009 92.395C29.0744 92.8552 29.6267 93.0425 30.3025 93.0746C31.2731 93.1174 32.4421 92.8445 33.5842 92.4539C35.3323 91.8492 37.0108 90.9824 37.9331 90.4204C37.9599 90.4044 37.9921 90.3937 38.0189 90.3776C39.145 89.7301 40.1425 89.0345 41.0112 88.3014C41.8638 87.579 42.5876 86.8299 43.1775 86.054C43.6816 85.3904 44.6361 85.2459 45.3011 85.7489C45.966 86.2519 46.1108 87.2045 45.6067 87.868C44.8721 88.8366 43.9873 89.741 42.963 90.6078C42.2981 91.1697 41.5635 91.7048 40.7537 92.2399L40.7859 92.101ZM61.5806 84.7592H61.6986C62.2187 84.7592 62.696 84.5719 63.0714 84.2562C63.4467 83.9405 63.7095 83.491 63.7953 82.9719V82.8435L64.1277 80.6924V80.6495C64.1277 80.6495 64.1438 80.6495 64.1706 80.6335C64.2135 80.6174 64.2564 80.6067 64.2993 80.5746C64.546 80.489 64.7927 80.4034 65.0072 80.3017C65.2967 80.184 65.5702 80.0556 65.833 79.9432C65.8598 79.9432 65.8759 79.9271 65.8759 79.9271L65.9027 79.9539L67.7688 81.3238C68.1871 81.6288 68.6912 81.7733 69.1684 81.7251C69.3989 81.7091 69.6295 81.6556 69.8494 81.5539H77.9412L80.6439 84.8716C80.0647 85.7225 79.7323 86.7339 79.7323 87.8416C79.7323 89.2971 80.3221 90.6081 81.2766 91.5767C82.2311 92.5453 83.561 93.1179 85.0196 93.1179C86.4782 93.1179 87.7919 92.5292 88.7626 91.5767C89.7332 90.6242 90.307 89.2971 90.307 87.8416C90.307 86.3861 89.7171 85.0751 88.7626 84.1064C87.8081 83.1379 86.4782 82.5653 85.0196 82.5653C84.3118 82.5653 83.6308 82.7098 83.0088 82.9559L79.861 79.0764C79.5554 78.7018 79.1264 78.5145 78.6759 78.5145H73.1258L73.8605 77.7814C74.2359 77.4068 74.4396 76.9466 74.4664 76.4383C74.4933 76.1493 74.4504 75.8603 74.3485 75.5874H79.5231C80.3597 75.5874 81.0407 74.9078 81.0407 74.073C81.0407 73.2382 80.3597 72.5586 79.5231 72.5586H72.9327C72.9756 72.473 73.0024 72.3713 73.0507 72.2857C73.1687 71.9967 73.2813 71.7077 73.3671 71.4509C73.3671 71.4348 73.3671 71.4241 73.3832 71.4081C73.3832 71.4081 73.41 71.4081 73.4261 71.392L75.7105 71.0442C76.2146 70.9746 76.665 70.7124 76.9975 70.3379C77.3139 69.9633 77.5015 69.487 77.5015 68.968V68.1332H82.8478C83.1105 69.0536 83.5985 69.8776 84.2634 70.5251C85.2769 71.5365 86.6604 72.1572 88.194 72.1572C89.7277 72.1572 91.1112 71.5365 92.1247 70.5251C93.1382 69.5138 93.7602 68.1332 93.7602 66.6027C93.7602 65.0723 93.1382 63.6917 92.1247 62.6803C91.1112 61.6689 89.7277 61.0482 88.194 61.0482C86.6604 61.0482 85.2769 61.6689 84.2634 62.6803C83.5984 63.3439 83.1051 64.1679 82.8478 65.0723H77.5015V64.2375C77.5015 63.7184 77.3139 63.2422 76.9975 62.8676C76.6811 62.493 76.2307 62.2308 75.7105 62.1452C75.6676 62.1452 75.6247 62.1452 75.5818 62.1291L73.4261 61.7974C73.4261 61.7974 73.3993 61.7974 73.3832 61.7813C73.3832 61.7813 73.3672 61.7653 73.3564 61.7385C73.2706 61.4924 73.1687 61.2194 73.04 60.9037C72.9971 60.802 72.9542 60.7164 72.9221 60.6148H79.5392C80.3758 60.6148 81.0568 59.9352 81.0568 59.1003C81.0568 58.2655 80.3758 57.5859 79.5392 57.5859H74.3377C74.4396 57.313 74.4664 57.024 74.4556 56.7351C74.4127 56.2428 74.209 55.7665 73.8336 55.408L73.099 54.6749H78.6491C79.0995 54.6749 79.5285 54.4715 79.8341 54.113L82.9819 50.2335C83.6039 50.4957 84.285 50.6241 84.9927 50.6241C86.4513 50.6241 87.765 50.0355 88.7357 49.083C89.6902 48.1305 90.2801 46.8033 90.2801 45.3478C90.2801 43.8923 89.6902 42.5813 88.7357 41.6127C87.7812 40.6602 86.4513 40.0715 84.9927 40.0715C83.5342 40.0715 82.2204 40.6602 81.2497 41.6127C80.2952 42.5652 79.7054 43.8923 79.7054 45.3478C79.7054 46.4448 80.0378 47.4669 80.617 48.3178L77.9143 51.6355H69.8225C69.608 51.5499 69.372 51.491 69.1415 51.4643C68.6481 51.4215 68.1602 51.5659 67.7419 51.8656L65.8758 53.2355L65.849 53.2623C65.849 53.2623 65.8329 53.2623 65.8061 53.2462C65.5755 53.1285 65.302 53.0161 64.9803 52.8877C64.7497 52.786 64.4601 52.6843 64.1437 52.572C64.1276 52.572 64.1169 52.572 64.1008 52.5559V52.5131C64.1008 52.4703 64.0847 52.4275 64.074 52.3847L63.7416 50.2335C63.6718 49.7145 63.393 49.265 63.0176 48.9492C62.6423 48.6335 62.165 48.4462 61.6449 48.4462H57.5105L57.4247 48.3874C57.1941 48.2429 57.0225 48.1412 56.9314 48.0823C52.8131 45.6048 47.9119 44.6362 43.1337 44.968C39.4176 45.2302 35.7657 46.2684 32.5698 47.9807C29.3469 49.7251 26.6014 52.16 24.7675 55.2047C23.0194 58.105 22.0917 61.5191 22.3705 65.3826C22.4563 66.6348 22.8049 67.7479 23.1642 68.8556C23.5824 70.1827 24.0007 71.5097 23.754 72.8047L19.5069 80.5317C19.2174 81.0668 19.2764 81.6983 19.6088 82.1478L19.6356 82.1745C20.4722 83.2822 22.1775 83.5444 23.5824 83.5872V85.2889C23.5824 85.9364 23.9845 86.4875 24.5529 86.7015C24.0328 87.1189 23.829 87.868 24.1347 88.5048C24.3063 88.8955 24.628 89.1684 25.0034 89.2968C25.5074 89.5001 25.9579 89.6446 26.3493 89.7463C26.2314 90.0781 26.1188 90.3938 26.033 90.6667C25.7595 91.5015 25.6308 92.1543 25.6844 92.5717C25.6844 92.6894 25.7273 92.7857 25.7541 92.9034C25.8721 93.2513 26.0169 93.567 26.1885 93.8399C27.084 95.3114 28.5157 95.9161 30.1888 95.991C31.5777 96.0499 33.122 95.7021 34.5699 95.2098C35.873 94.7603 37.1117 94.1984 38.109 93.6793C38.2806 94.0967 38.4254 94.573 38.5595 95.0492C39.0528 96.8793 39.2405 98.7575 39.2673 99.3034C39.2941 100.085 39.9162 100.7 40.6829 100.743C44.6833 101.032 48.7479 101.192 52.8502 101.203C56.9256 101.203 60.9849 101.085 65.0014 100.829C65.8379 100.77 66.476 100.047 66.417 99.2125C66.3901 98.763 66.1703 98.3777 65.8378 98.1155C64.6366 97.0613 63.6554 95.4934 62.8778 93.4171C62.0842 91.266 61.5319 88.6172 61.2156 85.4707L61.5641 84.775L61.5806 84.7592ZM68.8037 66.5766C68.8037 63.9653 67.7473 61.6001 66.0314 59.8984C64.3101 58.1807 61.9559 57.1319 59.3392 57.1319C56.7224 57.1319 54.3522 58.186 52.6469 59.8984C50.9256 61.6161 49.8746 63.9653 49.8746 66.5766C49.8746 69.1879 50.931 71.5532 52.6469 73.2548C54.3682 74.9565 56.7224 76.0213 59.3392 76.0213C61.9559 76.0213 64.3261 74.9672 66.0314 73.2548C67.7527 71.5371 68.8037 69.1879 68.8037 66.5766ZM63.8757 71.1037C65.034 69.9479 65.7526 68.3479 65.7526 66.5766C65.7526 64.8053 65.0287 63.2001 63.8757 62.0495C62.7175 60.8937 61.1141 60.1766 59.3392 60.1766C57.5642 60.1766 55.9556 60.899 54.8026 62.0495C53.6443 63.2054 52.9257 64.8053 52.9257 66.5766C52.9257 68.3479 53.6496 69.9531 54.8026 71.1037C55.9608 72.2596 57.5642 72.9766 59.3392 72.9766C61.1141 72.9766 62.7227 72.2542 63.8757 71.1037ZM73.0078 68.3799L74.5093 68.1498V65.0194L73.0078 64.7893C72.4287 64.7036 71.9085 64.4575 71.4741 64.1097C71.0559 63.7511 70.7234 63.2856 70.5357 62.7237C70.4499 62.4615 70.3641 62.2314 70.2891 62.0602C70.2194 61.889 70.1175 61.6695 69.9995 61.4127C69.7367 60.8936 69.6402 60.3318 69.6938 59.7699C69.7367 59.2348 69.9244 58.7318 70.2301 58.2823C70.2569 58.2395 70.2998 58.1807 70.332 58.1379L71.1846 56.9713L68.9752 54.7666L67.7472 55.6602C67.27 56.0081 66.7338 56.2061 66.1708 56.2489C65.6077 56.2917 65.0447 56.2061 64.5245 55.9439C64.2779 55.8154 64.0634 55.7298 63.8757 55.6549C63.6129 55.5532 63.3984 55.4676 63.2107 55.3927C62.6638 55.2054 62.1865 54.8736 61.8219 54.4562C61.4626 54.0228 61.232 53.5037 61.1302 52.9258C61.1302 52.883 61.1302 52.8402 61.1141 52.7974L60.8996 51.4275H57.7625L57.5319 52.9259C57.4461 53.5038 57.1995 54.0228 56.8509 54.4563C56.4916 54.8898 56.0251 55.2055 55.4621 55.4088C55.2154 55.4944 55.0009 55.58 54.7972 55.655C54.5934 55.7406 54.3789 55.8422 54.1483 55.9439C53.6281 56.2061 53.0651 56.3025 52.5021 56.2489C51.939 56.2061 51.4028 56.0028 50.9256 55.6603L49.6976 54.7667L47.4883 56.9714L48.3838 58.1968C48.7323 58.6731 48.9307 59.2082 48.9736 59.77C49.0165 60.3318 48.9307 60.8937 48.668 61.4128C48.55 61.6429 48.4535 61.8623 48.3784 62.0603C48.2926 62.2636 48.2068 62.4777 48.1317 62.7238C47.9441 63.2696 47.6116 63.7459 47.1772 64.1097C46.759 64.4683 46.2388 64.6984 45.6436 64.7893L44.1421 65.0194V68.1499L45.6436 68.38C46.2227 68.4656 46.7429 68.7118 47.1772 69.0596C47.6116 69.4181 47.928 69.8837 48.1317 70.4455C48.2175 70.7077 48.3033 70.9378 48.3784 71.1091C48.4642 71.3124 48.5661 71.5265 48.668 71.7566C48.9307 72.2756 49.0273 72.8375 48.9736 73.3993C48.9307 73.9612 48.727 74.4963 48.3838 74.9725L47.4883 76.1979L49.6976 78.4027L50.9256 77.509C51.4028 77.1612 51.9391 76.9632 52.5021 76.9204C53.0651 76.8776 53.6282 76.9632 54.1483 77.2254C54.395 77.3538 54.6095 77.4395 54.7972 77.5144C55.0599 77.616 55.2744 77.7017 55.4621 77.7766C56.0091 77.9639 56.4863 78.2956 56.8509 78.713C57.2102 79.1304 57.4408 79.6655 57.5319 80.2435L57.7625 81.7419H60.8996L61.1302 80.2435C61.216 79.6655 61.4626 79.1465 61.8219 78.713C62.1812 78.2796 62.6477 77.9639 63.2107 77.7605C63.2536 77.7605 63.2805 77.7338 63.3287 77.7338C63.5003 77.6749 63.688 77.6053 63.8757 77.5197C64.0795 77.4341 64.2939 77.3324 64.5245 77.2147C65.0447 76.9525 65.6077 76.8562 66.1708 76.9097C66.7338 76.9525 67.27 77.1558 67.7472 77.4983L68.9752 78.3919L71.1846 76.1872L70.332 75.0314C70.332 75.0314 70.2622 74.9297 70.214 74.8709C69.9083 74.4214 69.7367 73.9184 69.6777 73.3993C69.6348 72.8374 69.7206 72.2756 69.9834 71.7565C70.1121 71.5104 70.1979 71.2963 70.273 71.109C70.3588 70.9057 70.4446 70.6916 70.5197 70.4455C70.7073 69.8997 71.0398 69.4234 71.4742 69.0596C71.8924 68.701 72.4287 68.4709 73.0078 68.3799ZM86.6176 46.9109C87.0198 46.5096 87.2664 45.9424 87.2664 45.3271C87.2664 44.7063 87.0198 44.1605 86.6176 43.7539C86.2154 43.3526 85.647 43.1064 85.0304 43.1064C84.4084 43.1064 83.8614 43.3526 83.4539 43.7539C83.0517 44.1552 82.805 44.7224 82.805 45.3271C82.805 45.9318 83.0517 46.4936 83.4539 46.9109C83.8561 47.3123 84.4245 47.5584 85.0304 47.5584C85.6363 47.5584 86.1994 47.3123 86.6176 46.9109ZM86.6176 89.4051C87.0198 89.0037 87.2664 88.4365 87.2664 87.8212C87.2664 87.2005 87.0198 86.6547 86.6176 86.2373C86.2154 85.836 85.647 85.5898 85.0304 85.5898C84.4084 85.5898 83.8614 85.836 83.4539 86.2373C83.0517 86.6387 82.805 87.2059 82.805 87.8212C82.805 88.4419 83.0517 88.9878 83.4539 89.4051C83.8561 89.8064 84.4245 90.0526 85.0304 90.0526C85.6363 90.0526 86.1994 89.8064 86.6176 89.4051ZM90.0012 68.3375C90.4516 67.888 90.7358 67.2565 90.7358 66.5662C90.7358 65.8759 90.4623 65.2552 90.0012 64.7949C89.54 64.3347 88.918 64.0618 88.2262 64.0618C87.5344 64.0618 86.9124 64.3347 86.4512 64.7949C86.0008 65.2444 85.7165 65.8759 85.7165 66.5662C85.7165 67.2565 85.99 67.8772 86.4512 68.3375C86.9124 68.7977 87.5344 69.0706 88.2262 69.0706C88.9179 69.0706 89.54 68.7977 90.0012 68.3375ZM78.8903 112.104H59.3818L58.5989 118.376H79.6833L78.9004 112.104H78.8903ZM84.2526 121.421H54.0242C52.9839 121.421 52.0455 121.838 51.3484 122.528C50.6566 123.219 50.2384 124.16 50.2384 125.199V128.96H88.0266V125.199C88.0266 124.16 87.6083 123.224 86.9166 122.528C86.2356 121.849 85.2811 121.421 84.2408 121.421H84.2526Z" fill="#663366"/>
</svg>
