<svg width="150" height="150" viewBox="0 0 150 150" fill="none" xmlns="http://www.w3.org/2000/svg">
<path d="M96.3703 144.999H108.316C109.893 144.999 111.171 143.721 111.171 142.144V104.797C111.171 103.22 109.893 101.941 108.316 101.941H41.6843C40.1074 101.941 38.8291 103.22 38.8291 104.797V142.144C38.8291 143.721 40.1074 144.999 41.6843 144.999H87.9639" stroke="#663366" stroke-width="4.22534" stroke-miterlimit="10" stroke-linecap="round" stroke-linejoin="round"/>
<path d="M104.744 22.9414H45.2549V101.942H104.744V22.9414Z" stroke="#663366" stroke-width="4.22534" stroke-miterlimit="10" stroke-linecap="round" stroke-linejoin="round"/>
<path d="M56.3945 36.2383H62.4954" stroke="#663366" stroke-width="4.22534" stroke-miterlimit="10" stroke-linecap="round" stroke-linejoin="round"/>
<path d="M71.9492 36.2383H78.05" stroke="#663366" stroke-width="4.22534" stroke-miterlimit="10" stroke-linecap="round" stroke-linejoin="round"/>
<path d="M87.5039 36.2383H93.6047" stroke="#663366" stroke-width="4.22534" stroke-miterlimit="10" stroke-linecap="round" stroke-linejoin="round"/>
<path d="M56.3945 46.8203H62.4954" stroke="#663366" stroke-width="4.22534" stroke-miterlimit="10" stroke-linecap="round" stroke-linejoin="round"/>
<path d="M71.9492 46.8203H78.05" stroke="#663366" stroke-width="4.22534" stroke-miterlimit="10" stroke-linecap="round" stroke-linejoin="round"/>
<path d="M87.5039 46.8203H93.6047" stroke="#663366" stroke-width="4.22534" stroke-miterlimit="10" stroke-linecap="round" stroke-linejoin="round"/>
<path d="M56.3945 57.3984H62.4954" stroke="#663366" stroke-width="4.22534" stroke-miterlimit="10" stroke-linecap="round" stroke-linejoin="round"/>
<path d="M71.9492 57.3984H78.05" stroke="#663366" stroke-width="4.22534" stroke-miterlimit="10" stroke-linecap="round" stroke-linejoin="round"/>
<path d="M87.5039 57.3984H93.6047" stroke="#663366" stroke-width="4.22534" stroke-miterlimit="10" stroke-linecap="round" stroke-linejoin="round"/>
<path d="M56.3945 67.9805H62.4954" stroke="#663366" stroke-width="4.22534" stroke-miterlimit="10" stroke-linecap="round" stroke-linejoin="round"/>
<path d="M71.9492 67.9805H78.05" stroke="#663366" stroke-width="4.22534" stroke-miterlimit="10" stroke-linecap="round" stroke-linejoin="round"/>
<path d="M87.5039 67.9805H93.6047" stroke="#663366" stroke-width="4.22534" stroke-miterlimit="10" stroke-linecap="round" stroke-linejoin="round"/>
<path d="M56.3945 78.5625H62.4954" stroke="#663366" stroke-width="4.22534" stroke-miterlimit="10" stroke-linecap="round" stroke-linejoin="round"/>
<path d="M71.9492 78.5625H78.05" stroke="#663366" stroke-width="4.22534" stroke-miterlimit="10" stroke-linecap="round" stroke-linejoin="round"/>
<path d="M87.5039 78.5625H93.6047" stroke="#663366" stroke-width="4.22534" stroke-miterlimit="10" stroke-linecap="round" stroke-linejoin="round"/>
<path d="M56.3945 89.1445H62.4954" stroke="#663366" stroke-width="4.22534" stroke-miterlimit="10" stroke-linecap="round" stroke-linejoin="round"/>
<path d="M71.9492 89.1445H78.05" stroke="#663366" stroke-width="4.22534" stroke-miterlimit="10" stroke-linecap="round" stroke-linejoin="round"/>
<path d="M87.5039 89.1445H93.6047" stroke="#663366" stroke-width="4.22534" stroke-miterlimit="10" stroke-linecap="round" stroke-linejoin="round"/>
<path d="M55.8965 13.8477H62.4953" stroke="#663366" stroke-width="4.22534" stroke-miterlimit="10" stroke-linecap="round" stroke-linejoin="round"/>
<path d="M87.0625 13.8477H108.315C109.892 13.8477 111.171 15.126 111.171 16.7029V20.0851C111.171 21.662 109.892 22.9403 108.315 22.9403H41.6843C40.1074 22.9403 38.8291 21.662 38.8291 20.0851V16.7029C38.8291 15.126 40.1074 13.8477 41.6843 13.8477H46.8736" stroke="#663366" stroke-width="4.22534" stroke-miterlimit="10" stroke-linecap="round" stroke-linejoin="round"/>
<path d="M90.7493 119.527H59.2497C57.6728 119.527 56.3945 118.248 56.3945 116.672V113.711C56.3945 112.134 57.6728 110.855 59.2497 110.855H90.7496C92.3265 110.855 93.6048 112.134 93.6048 113.711V116.672C93.6046 118.248 92.3262 119.527 90.7493 119.527Z" stroke="#663366" stroke-width="4.22534" stroke-miterlimit="10" stroke-linecap="round" stroke-linejoin="round"/>
<path d="M60.1074 136.842V119.527H89.8915V136.842" stroke="#663366" stroke-width="4.22534" stroke-miterlimit="10" stroke-linecap="round" stroke-linejoin="round"/>
<path d="M87.0628 22.9408H62.9375V7.81689C62.9375 6.26112 64.1986 5 65.7544 5H84.2459C85.8016 5 87.0628 6.26112 87.0628 7.81689V22.9408Z" stroke="#663366" stroke-width="4.22534" stroke-miterlimit="10" stroke-linecap="round" stroke-linejoin="round"/>
<path d="M21.4609 34.6523V110.804C21.4609 112.359 22.7221 113.621 24.2778 113.621H31.0268" stroke="#663366" stroke-width="4.22534" stroke-miterlimit="10" stroke-linecap="round" stroke-linejoin="round"/>
<path d="M21.4609 25.1602C19.7654 25.1602 18.1986 26.0647 17.3508 27.5331C16.5029 29.0016 16.5029 30.8106 17.3508 32.279C18.1986 33.7475 19.7654 34.652 21.4609 34.652C23.1564 34.652 24.7231 33.7475 25.571 32.279C26.4189 30.8106 26.4189 29.0016 25.571 27.5331C24.7231 26.0647 23.1564 25.1602 21.4609 25.1602Z" stroke="#663366" stroke-width="4.22534" stroke-miterlimit="10" stroke-linecap="round" stroke-linejoin="round"/>
<path d="M9.74604 69.6367C8.05055 69.6367 6.4838 70.5412 5.63591 72.0097C4.78803 73.4781 4.78803 75.2871 5.63591 76.7556C6.4838 78.224 8.05055 79.1285 9.74604 79.1285C11.4415 79.1285 13.0083 78.224 13.8562 76.7556C14.7041 75.2871 14.7041 73.4781 13.8562 72.0097C13.0083 70.5412 11.4415 69.6367 9.74604 69.6367Z" stroke="#663366" stroke-width="4.22534" stroke-miterlimit="10" stroke-linecap="round" stroke-linejoin="round"/>
<path d="M32.956 48.6094C31.2605 48.6094 29.6938 49.5139 28.8459 50.9823C27.998 52.4508 27.998 54.2598 28.8459 55.7282C29.6938 57.1967 31.2605 58.1012 32.956 58.1012C34.6515 58.1012 36.2182 57.1967 37.0661 55.7282C37.914 54.2598 37.914 52.4508 37.0661 50.9823C36.2185 49.5139 34.6518 48.6094 32.956 48.6094Z" stroke="#663366" stroke-width="4.22534" stroke-miterlimit="10" stroke-linecap="round" stroke-linejoin="round"/>
<path d="M21.4607 94.2041H12.563C11.0072 94.2041 9.74609 92.9429 9.74609 91.3872V79.1289" stroke="#663366" stroke-width="4.22534" stroke-miterlimit="10" stroke-linecap="round" stroke-linejoin="round"/>
<path d="M21.4609 75.0021H30.1398C31.6956 75.0021 32.9567 73.7409 32.9567 72.1852V58.1016" stroke="#663366" stroke-width="4.22534" stroke-miterlimit="10" stroke-linecap="round" stroke-linejoin="round"/>
<path d="M128.539 34.6523V110.804C128.539 112.359 127.277 113.621 125.722 113.621H118.973" stroke="#663366" stroke-width="4.22534" stroke-miterlimit="10" stroke-linecap="round" stroke-linejoin="round"/>
<path d="M128.539 25.1602C130.234 25.1602 131.801 26.0647 132.649 27.5331C133.497 29.0016 133.497 30.8106 132.649 32.279C131.801 33.7475 130.234 34.652 128.539 34.652C126.844 34.652 125.277 33.7475 124.429 32.279C123.581 30.8106 123.581 29.0016 124.429 27.5331C125.277 26.0647 126.844 25.1602 128.539 25.1602Z" stroke="#663366" stroke-width="4.22534" stroke-miterlimit="10" stroke-linecap="round" stroke-linejoin="round"/>
<path d="M140.254 69.6367C141.949 69.6367 143.516 70.5412 144.364 72.0097C145.212 73.4781 145.212 75.2871 144.364 76.7556C143.516 78.224 141.949 79.1285 140.254 79.1285C138.558 79.1285 136.992 78.224 136.144 76.7556C135.296 75.2871 135.296 73.4781 136.144 72.0097C136.992 70.5412 138.558 69.6367 140.254 69.6367Z" stroke="#663366" stroke-width="4.22534" stroke-miterlimit="10" stroke-linecap="round" stroke-linejoin="round"/>
<path d="M117.043 48.6094C118.738 48.6094 120.305 49.5139 121.153 50.9823C122.001 52.4508 122.001 54.2598 121.153 55.7282C120.305 57.1967 118.738 58.1012 117.043 58.1012C115.347 58.1012 113.781 57.1967 112.933 55.7282C112.085 54.2598 112.085 52.4508 112.933 50.9823C113.78 49.5139 115.347 48.6094 117.043 48.6094Z" stroke="#663366" stroke-width="4.22534" stroke-miterlimit="10" stroke-linecap="round" stroke-linejoin="round"/>
<path d="M128.539 94.2041H137.437C138.993 94.2041 140.254 92.9429 140.254 91.3872V79.1289" stroke="#663366" stroke-width="4.22534" stroke-miterlimit="10" stroke-linecap="round" stroke-linejoin="round"/>
<path d="M128.539 75.0021H119.86C118.304 75.0021 117.043 73.7409 117.043 72.1852V58.1016" stroke="#663366" stroke-width="4.22534" stroke-miterlimit="10" stroke-linecap="round" stroke-linejoin="round"/>
<path d="M71.918 13.6875H78.0825" stroke="#663366" stroke-width="4.22534" stroke-miterlimit="10" stroke-linecap="round" stroke-linejoin="round"/>
<path d="M102.72 144.999V139.774C102.72 138.218 101.459 136.957 99.9028 136.957H50.0962C48.5404 136.957 47.2793 138.218 47.2793 139.774V144.999" stroke="#663366" stroke-width="4.22534" stroke-miterlimit="10" stroke-linecap="round" stroke-linejoin="round"/>
</svg>
