<svg width="150" height="150" viewBox="0 0 150 150" fill="none" xmlns="http://www.w3.org/2000/svg">
<mask id="path-1-outside-1_663_4075" maskUnits="userSpaceOnUse" x="4" y="8" width="142" height="134" fill="black">
<rect fill="white" x="4" y="8" width="142" height="134"/>
<path d="M49.1596 90.2564H23.8452C23.3522 90.2564 22.9525 90.6494 22.9525 91.1424V100.415C22.9525 100.648 23.0458 100.875 23.2123 101.041C23.3789 101.208 23.6054 101.301 23.8452 101.301H49.1596C49.3927 101.301 49.6192 101.208 49.7857 101.041C49.9523 100.875 50.0455 100.648 50.0455 100.415V91.1424C50.0455 90.9092 49.9523 90.6827 49.7857 90.5162C49.6192 90.3497 49.3927 90.2564 49.1596 90.2564ZM48.2736 99.5293H24.7311V92.0284H48.2668L48.2736 99.5293ZM49.1596 105.372H23.8452C23.3522 105.372 22.9525 105.771 22.9525 106.258V115.55C22.9525 115.784 23.0458 116.01 23.2123 116.177C23.3789 116.343 23.6054 116.436 23.8452 116.436H49.1596C49.3927 116.436 49.6192 116.343 49.7857 116.177C49.9523 116.01 50.0455 115.784 50.0455 115.55V106.258C50.0455 106.024 49.9523 105.798 49.7857 105.631C49.6192 105.465 49.3927 105.372 49.1596 105.372ZM48.2736 114.664H24.7311V107.15H48.2668L48.2736 114.664ZM49.1596 120.507H23.8452C23.3522 120.507 22.9525 120.906 22.9525 121.393V130.666C22.9525 130.905 23.0458 131.132 23.2123 131.298C23.3789 131.465 23.6054 131.558 23.8452 131.558H49.1596C49.3927 131.558 49.6192 131.465 49.7857 131.298C49.9523 131.132 50.0455 130.905 50.0455 130.666V121.393C50.0455 121.159 49.9523 120.933 49.7857 120.766C49.6192 120.6 49.3927 120.507 49.1596 120.507ZM48.2736 129.78H24.7311V122.285H48.2668L48.2736 129.78ZM145 139.779V70.4982H144.993C144.987 66.6678 141.882 63.5636 138.052 63.5569H133.822V59.7865C133.815 57.6282 132.056 55.8828 129.898 55.8828H127.873V52.6852C127.873 50.5269 126.121 48.7748 123.963 48.7748H110.48C108.321 48.7748 106.569 50.5268 106.569 52.6852V55.8828H104.531C102.373 55.8828 100.621 57.628 100.621 59.7865V63.6236H96.7834V54.4772C96.7834 52.6719 96.084 50.94 94.8317 49.6476L76.2858 30.5288C74.9735 29.1965 73.1816 28.437 71.3096 28.437H57.8998C54.0694 28.437 50.9585 31.5347 50.9518 35.3651V62.3985C50.9518 62.6383 51.0451 62.8648 51.2116 63.0313C51.3782 63.1978 51.6047 63.2911 51.8378 63.2911C52.0776 63.2911 52.3041 63.1978 52.4707 63.0313C52.6372 62.8648 52.7305 62.6383 52.7305 62.3985V35.3651C52.7371 32.5139 55.0487 30.2091 57.8998 30.2091H71.3095C72.7018 30.2291 74.0342 30.7886 75.0201 31.7745L93.5522 50.8865C94.4782 51.8391 94.9978 53.1115 95.0044 54.4437V63.7366V63.7299C91.7469 64.3828 89.4088 67.2472 89.4088 70.5713V138.892H57.2406V88.0837C57.2406 84.2666 54.1496 81.1623 50.3325 81.1424H50.2459L50.2392 77.6784C50.2392 75.8199 49.4931 74.0479 48.1742 72.7423C46.8619 71.4433 45.0766 70.7171 43.2247 70.7305H37.3958V51.2791C37.3958 51.0459 37.3026 50.8194 37.136 50.6529C36.9695 50.4864 36.743 50.3931 36.5098 50.3931C36.0169 50.3931 35.6238 50.7861 35.6238 51.2791V70.7305H29.7218C25.8913 70.7371 22.7871 73.8414 22.7804 77.6784V81.1424C18.95 81.149 15.8524 84.2599 15.8524 88.0837V139.777C15.8524 140.016 15.9456 140.243 16.1122 140.409C16.2787 140.576 16.5052 140.669 16.7384 140.669H144.108C144.595 140.656 144.988 140.263 144.994 139.777L145 139.779ZM108.355 52.7318L108.349 52.7384C108.349 51.5593 109.301 50.6067 110.48 50.6067H123.963C125.142 50.6067 126.095 51.5593 126.095 52.7384V55.936H108.328L108.355 52.7318ZM102.406 59.8397H102.4C102.4 58.6673 103.352 57.708 104.531 57.708H129.912C131.065 57.7214 132.011 58.634 132.044 59.7865V63.6236H102.4L102.406 59.8397ZM24.5532 77.6795C24.5665 74.8283 26.8715 72.5169 29.7225 72.5102H43.2255C44.5978 72.5102 45.9101 73.0498 46.8827 74.0224C47.8486 74.9883 48.3949 76.3073 48.3949 77.6796V81.1435H24.5539L24.5532 77.6795ZM52.2517 138.893H17.539V88.0856C17.5324 86.72 18.072 85.4011 19.0446 84.4351C20.0105 83.4626 21.3227 82.9163 22.6884 82.9163H50.334C51.6996 82.9163 53.012 83.4626 53.9779 84.4351C54.9505 85.4011 55.49 86.72 55.4834 88.0856V138.893H52.2517ZM143.223 138.893H91.1885V70.5733C91.1952 67.7221 93.5068 65.4106 96.3578 65.404H138.052C140.903 65.4106 143.208 67.7223 143.221 70.5733L143.223 138.893ZM60.1526 43.7667C60.146 43.2871 60.5124 42.8874 60.992 42.8607H78.2059C78.6922 42.8607 79.0919 43.2604 79.0919 43.7467C79.0919 44.2397 78.6922 44.6394 78.2059 44.6394H60.992C60.5257 44.6127 60.1659 44.233 60.1526 43.7667ZM60.1526 49.8221C60.1526 49.3358 60.5523 48.9361 61.0453 48.9361H70.4048C70.638 48.9361 70.8645 49.0294 71.031 49.1959C71.1975 49.3624 71.2908 49.5889 71.2908 49.8221C71.2908 50.0619 71.1975 50.2884 71.031 50.4549C70.8645 50.6215 70.638 50.7147 70.4048 50.7147H60.9921C60.5191 50.6814 60.1526 50.2951 60.1526 49.8221ZM60.1526 55.8642C60.1526 55.3712 60.5523 54.9782 61.0453 54.9782H78.2592C78.4924 54.9782 78.7188 55.0715 78.8854 55.238C79.0519 55.4045 79.1452 55.631 79.1452 55.8642C79.1452 56.0974 79.0519 56.3238 78.8854 56.4904C78.7189 56.6569 78.4924 56.7502 78.2592 56.7502H60.9924C60.5194 56.7235 60.1526 56.3372 60.1526 55.8642ZM60.1526 61.9196C60.1526 61.4333 60.5523 61.0336 61.0453 61.0336H70.0516C70.2848 61.0336 70.5113 61.1269 70.6778 61.2934C70.8444 61.4599 70.9376 61.6864 70.9376 61.9196C70.9376 62.1594 70.8444 62.3859 70.6778 62.5524C70.5113 62.719 70.2848 62.8122 70.0516 62.8122H60.9919C60.5189 62.7789 60.1526 62.3926 60.1526 61.9196ZM60.1526 67.9617C60.1526 67.4687 60.5523 67.0757 61.0453 67.0757H85.3996C85.6327 67.0757 85.8592 67.169 86.0257 67.3355C86.1923 67.502 86.2855 67.7285 86.2855 67.9617C86.2855 68.1948 86.1923 68.4213 86.0257 68.5879C85.8592 68.7544 85.6327 68.8477 85.3996 68.8477H60.9924C60.5194 68.821 60.1526 68.4347 60.1526 67.9617ZM60.1526 74.0171C60.1326 73.7839 60.2126 73.5441 60.3725 73.3643C60.5257 73.1844 60.7522 73.0711 60.992 73.0578H70.0517C70.538 73.0578 70.9377 73.4575 70.9377 73.9505C70.9377 74.4368 70.538 74.8365 70.0517 74.8365H60.992C60.5457 74.8098 60.1926 74.4634 60.1526 74.0171ZM60.1526 80.0592C60.1526 79.5662 60.5523 79.1732 61.0453 79.1732H85.3996C85.6327 79.1732 85.8592 79.2665 86.0257 79.433C86.1923 79.5995 86.2855 79.826 86.2855 80.0592C86.2855 80.2923 86.1923 80.5188 86.0257 80.6854C85.8592 80.8519 85.6327 80.9452 85.3996 80.9452H60.9924C60.5194 80.9185 60.1526 80.5322 60.1526 80.0592ZM60.1526 86.1146C60.1526 85.6283 60.5523 85.2286 61.0453 85.2286H70.0516C70.5379 85.2286 70.9376 85.6283 70.9376 86.1146C70.9376 86.6075 70.5379 87.0072 70.0516 87.0072H60.9919C60.5189 86.9739 60.1526 86.5876 60.1526 86.1146ZM113.145 70.7331H97.1573C96.6643 70.7331 96.2713 71.1328 96.2713 71.6191V82.1577C96.2713 82.3908 96.3645 82.6173 96.5311 82.7839C96.6976 82.9504 96.9241 83.0437 97.1573 83.0437H113.145C113.378 83.0437 113.605 82.9504 113.771 82.7839C113.938 82.6173 114.031 82.3908 114.031 82.1577V71.6191C114.031 71.3859 113.938 71.1594 113.771 70.9929C113.605 70.8263 113.378 70.7331 113.145 70.7331ZM112.259 81.265H98.05L98.0433 72.5118H112.252L112.259 81.265ZM137.374 70.7331H121.386C120.9 70.7397 120.507 71.1328 120.5 71.6191V82.1577C120.5 82.3908 120.593 82.6173 120.76 82.7839C120.926 82.9504 121.153 83.0437 121.386 83.0437H137.374C137.614 83.0437 137.84 82.9504 138.007 82.7839C138.173 82.6173 138.267 82.3908 138.267 82.1577V71.6191C138.267 71.3859 138.173 71.1594 138.007 70.9929C137.84 70.8263 137.614 70.7331 137.374 70.7331ZM136.488 81.265H122.279V72.5118H136.488V81.265ZM113.145 87.5735H97.1572C96.6642 87.5735 96.2712 87.9732 96.2712 88.4595V98.9981C96.2712 99.2313 96.3644 99.4578 96.531 99.6243C96.6975 99.7909 96.924 99.8841 97.1572 99.8841H113.145C113.378 99.8841 113.605 99.7909 113.771 99.6243C113.938 99.4578 114.031 99.2313 114.031 98.9981V88.4595C114.031 88.2264 113.938 87.9999 113.771 87.8333C113.605 87.6668 113.378 87.5735 113.145 87.5735ZM112.259 98.1055H98.0499L98.0432 89.3522H112.252L112.259 98.1055ZM137.374 87.5735H121.386C120.9 87.5735 120.5 87.9732 120.5 88.4595V98.9981C120.5 99.2313 120.593 99.4578 120.76 99.6243C120.926 99.7909 121.153 99.8841 121.386 99.8841H137.374C137.614 99.8841 137.84 99.7909 138.007 99.6243C138.173 99.4578 138.266 99.2313 138.266 98.9981V88.4595C138.266 88.2264 138.173 87.9999 138.007 87.8333C137.84 87.6668 137.614 87.5735 137.374 87.5735ZM136.488 98.1055H122.279V89.3522H136.488V98.1055ZM113.145 104.414H97.1571C96.6641 104.414 96.2711 104.814 96.2711 105.3V115.839C96.2711 116.072 96.3643 116.298 96.5309 116.465C96.6974 116.631 96.9239 116.725 97.1571 116.725H113.145C113.378 116.725 113.604 116.631 113.771 116.465C113.938 116.298 114.031 116.072 114.031 115.839V105.3C114.031 105.067 113.938 104.84 113.771 104.674C113.604 104.507 113.378 104.414 113.145 104.414ZM112.259 114.946H98.0498L98.0431 106.193H112.252L112.259 114.946ZM137.374 104.414H121.386C120.9 104.414 120.5 104.814 120.5 105.3V115.839C120.507 116.325 120.9 116.718 121.386 116.725H137.374C137.614 116.725 137.84 116.631 138.007 116.465C138.173 116.298 138.266 116.072 138.266 115.839V105.3C138.266 105.067 138.173 104.84 138.007 104.674C137.84 104.507 137.614 104.414 137.374 104.414ZM136.488 114.946H122.279V106.193H136.488V114.946ZM113.145 121.234H97.157C96.664 121.234 96.271 121.634 96.271 122.127V132.659C96.271 132.892 96.3642 133.119 96.5308 133.285C96.6973 133.452 96.9238 133.545 97.157 133.545H113.145C113.378 133.545 113.604 133.452 113.771 133.285C113.937 133.119 114.031 132.892 114.031 132.659V122.127C114.031 121.887 113.937 121.661 113.771 121.494C113.604 121.328 113.378 121.234 113.145 121.234ZM112.259 131.766H98.0497L98.043 123.013H112.252L112.259 131.766ZM137.374 121.234H121.386C120.9 121.248 120.507 121.641 120.5 122.127V132.659C120.5 132.892 120.593 133.119 120.76 133.285C120.926 133.452 121.153 133.545 121.386 133.545H137.374C137.613 133.545 137.84 133.452 138.006 133.285C138.173 133.119 138.266 132.892 138.266 132.659V122.127C138.266 121.887 138.173 121.661 138.006 121.494C137.84 121.328 137.613 121.234 137.374 121.234ZM136.488 131.766H122.279V123.013H136.488V131.766ZM11.6756 34.8337H35.7297C38.8473 34.4207 41.1855 31.7627 41.1855 28.6118C41.1855 25.4675 38.8473 22.803 35.7297 22.3966H35.0702C35.1635 21.8104 35.2101 21.2175 35.2101 20.6179C35.2101 14.2428 30.0408 9.0735 23.6657 9.0735C17.2905 9.0735 12.1212 14.2428 12.1212 20.6179C12.1212 21.2175 12.1679 21.8104 12.2611 22.3966H11.6016C9.88296 22.3034 8.2042 22.9229 6.95844 24.1087C5.70605 25.2944 5 26.9399 5 28.6586C5 30.3772 5.70612 32.0227 6.95844 33.2085C8.20415 34.3942 9.88279 35.0138 11.6016 34.9205L11.6756 34.8337ZM11.6756 24.0885H18.9766V24.0819C19.2098 24.0819 19.4362 23.9886 19.6028 23.8221C19.7693 23.6555 19.8626 23.429 19.8626 23.1959C19.8559 22.7096 19.4629 22.3166 18.9766 22.3099H14.147C14.0338 21.7237 13.9738 21.1308 13.9671 20.5312C13.9405 17.3004 15.5193 14.2626 18.184 12.4307C20.842 10.5988 24.246 10.2057 27.2504 11.3849C30.2614 12.564 32.493 15.1619 33.1992 18.3129C33.9053 21.4706 33.006 24.768 30.7876 27.1196C30.6211 27.2861 30.5278 27.5126 30.5278 27.7524C30.5278 27.9922 30.6211 28.2187 30.7876 28.3852C30.9542 28.5385 31.1674 28.6184 31.3938 28.6117C31.6337 28.6051 31.8668 28.5051 32.0334 28.332C33.1592 27.1062 34.0119 25.6474 34.5181 24.0685H35.6039C37.9687 24.2151 39.8141 26.1803 39.8141 28.5518C39.8141 30.9232 37.9689 32.8885 35.6039 33.035H11.676C10.4369 33.1149 9.22452 32.6753 8.31846 31.8293C7.41249 30.9766 6.89955 29.7908 6.89955 28.5517C6.89955 27.3126 7.41249 26.1269 8.31846 25.2742C9.22443 24.4282 10.4369 23.9885 11.676 24.0684L11.6756 24.0885ZM120.498 9C117.44 9 114.509 10.2057 112.338 12.3642C110.173 14.5225 108.954 17.4536 108.954 20.5112C108.954 21.1107 109 21.7036 109.093 22.2899H108.434C105.11 22.4697 102.498 25.2211 102.498 28.5518C102.498 31.8825 105.11 34.6338 108.434 34.8137H132.522C135.646 34.4074 137.978 31.7427 137.978 28.5985C137.978 25.4475 135.646 22.7897 132.522 22.3767H131.869C131.956 21.7905 132.003 21.1976 132.009 20.6046C132.029 17.5336 130.823 14.5893 128.665 12.4109C126.507 10.2326 123.563 9.00665 120.498 9ZM131.55 24.0819H132.529H132.522C134.894 24.2351 136.739 26.2003 136.739 28.5718C136.739 30.9432 134.894 32.9085 132.522 33.055H108.473C106.102 32.9084 104.256 30.9432 104.256 28.5718C104.256 26.2003 106.102 24.235 108.473 24.0819H115.774C116.007 24.0819 116.234 23.9886 116.401 23.8221C116.567 23.6555 116.66 23.429 116.66 23.1959C116.654 22.7096 116.261 22.3166 115.774 22.3099H110.938C110.831 21.7237 110.772 21.1308 110.765 20.5312C110.765 17.3137 112.357 14.3094 115.015 12.4974C117.673 10.6855 121.05 10.3057 124.041 11.4782C127.039 12.6506 129.257 15.222 129.984 18.3529C130.703 21.4904 129.837 24.7746 127.659 27.1394C127.486 27.3059 127.392 27.5324 127.392 27.7722C127.392 28.0054 127.486 28.2319 127.659 28.3984C127.819 28.5583 128.038 28.6382 128.258 28.6316C128.505 28.6316 128.738 28.525 128.898 28.3451C130.03 27.1261 130.876 25.6672 131.389 24.0817L131.55 24.0819Z"/>
</mask>
<path d="M49.1596 90.2564H23.8452C23.3522 90.2564 22.9525 90.6494 22.9525 91.1424V100.415C22.9525 100.648 23.0458 100.875 23.2123 101.041C23.3789 101.208 23.6054 101.301 23.8452 101.301H49.1596C49.3927 101.301 49.6192 101.208 49.7857 101.041C49.9523 100.875 50.0455 100.648 50.0455 100.415V91.1424C50.0455 90.9092 49.9523 90.6827 49.7857 90.5162C49.6192 90.3497 49.3927 90.2564 49.1596 90.2564ZM48.2736 99.5293H24.7311V92.0284H48.2668L48.2736 99.5293ZM49.1596 105.372H23.8452C23.3522 105.372 22.9525 105.771 22.9525 106.258V115.55C22.9525 115.784 23.0458 116.01 23.2123 116.177C23.3789 116.343 23.6054 116.436 23.8452 116.436H49.1596C49.3927 116.436 49.6192 116.343 49.7857 116.177C49.9523 116.01 50.0455 115.784 50.0455 115.55V106.258C50.0455 106.024 49.9523 105.798 49.7857 105.631C49.6192 105.465 49.3927 105.372 49.1596 105.372ZM48.2736 114.664H24.7311V107.15H48.2668L48.2736 114.664ZM49.1596 120.507H23.8452C23.3522 120.507 22.9525 120.906 22.9525 121.393V130.666C22.9525 130.905 23.0458 131.132 23.2123 131.298C23.3789 131.465 23.6054 131.558 23.8452 131.558H49.1596C49.3927 131.558 49.6192 131.465 49.7857 131.298C49.9523 131.132 50.0455 130.905 50.0455 130.666V121.393C50.0455 121.159 49.9523 120.933 49.7857 120.766C49.6192 120.6 49.3927 120.507 49.1596 120.507ZM48.2736 129.78H24.7311V122.285H48.2668L48.2736 129.78ZM145 139.779V70.4982H144.993C144.987 66.6678 141.882 63.5636 138.052 63.5569H133.822V59.7865C133.815 57.6282 132.056 55.8828 129.898 55.8828H127.873V52.6852C127.873 50.5269 126.121 48.7748 123.963 48.7748H110.48C108.321 48.7748 106.569 50.5268 106.569 52.6852V55.8828H104.531C102.373 55.8828 100.621 57.628 100.621 59.7865V63.6236H96.7834V54.4772C96.7834 52.6719 96.084 50.94 94.8317 49.6476L76.2858 30.5288C74.9735 29.1965 73.1816 28.437 71.3096 28.437H57.8998C54.0694 28.437 50.9585 31.5347 50.9518 35.3651V62.3985C50.9518 62.6383 51.0451 62.8648 51.2116 63.0313C51.3782 63.1978 51.6047 63.2911 51.8378 63.2911C52.0776 63.2911 52.3041 63.1978 52.4707 63.0313C52.6372 62.8648 52.7305 62.6383 52.7305 62.3985V35.3651C52.7371 32.5139 55.0487 30.2091 57.8998 30.2091H71.3095C72.7018 30.2291 74.0342 30.7886 75.0201 31.7745L93.5522 50.8865C94.4782 51.8391 94.9978 53.1115 95.0044 54.4437V63.7366V63.7299C91.7469 64.3828 89.4088 67.2472 89.4088 70.5713V138.892H57.2406V88.0837C57.2406 84.2666 54.1496 81.1623 50.3325 81.1424H50.2459L50.2392 77.6784C50.2392 75.8199 49.4931 74.0479 48.1742 72.7423C46.8619 71.4433 45.0766 70.7171 43.2247 70.7305H37.3958V51.2791C37.3958 51.0459 37.3026 50.8194 37.136 50.6529C36.9695 50.4864 36.743 50.3931 36.5098 50.3931C36.0169 50.3931 35.6238 50.7861 35.6238 51.2791V70.7305H29.7218C25.8913 70.7371 22.7871 73.8414 22.7804 77.6784V81.1424C18.95 81.149 15.8524 84.2599 15.8524 88.0837V139.777C15.8524 140.016 15.9456 140.243 16.1122 140.409C16.2787 140.576 16.5052 140.669 16.7384 140.669H144.108C144.595 140.656 144.988 140.263 144.994 139.777L145 139.779ZM108.355 52.7318L108.349 52.7384C108.349 51.5593 109.301 50.6067 110.48 50.6067H123.963C125.142 50.6067 126.095 51.5593 126.095 52.7384V55.936H108.328L108.355 52.7318ZM102.406 59.8397H102.4C102.4 58.6673 103.352 57.708 104.531 57.708H129.912C131.065 57.7214 132.011 58.634 132.044 59.7865V63.6236H102.4L102.406 59.8397ZM24.5532 77.6795C24.5665 74.8283 26.8715 72.5169 29.7225 72.5102H43.2255C44.5978 72.5102 45.9101 73.0498 46.8827 74.0224C47.8486 74.9883 48.3949 76.3073 48.3949 77.6796V81.1435H24.5539L24.5532 77.6795ZM52.2517 138.893H17.539V88.0856C17.5324 86.72 18.072 85.4011 19.0446 84.4351C20.0105 83.4626 21.3227 82.9163 22.6884 82.9163H50.334C51.6996 82.9163 53.012 83.4626 53.9779 84.4351C54.9505 85.4011 55.49 86.72 55.4834 88.0856V138.893H52.2517ZM143.223 138.893H91.1885V70.5733C91.1952 67.7221 93.5068 65.4106 96.3578 65.404H138.052C140.903 65.4106 143.208 67.7223 143.221 70.5733L143.223 138.893ZM60.1526 43.7667C60.146 43.2871 60.5124 42.8874 60.992 42.8607H78.2059C78.6922 42.8607 79.0919 43.2604 79.0919 43.7467C79.0919 44.2397 78.6922 44.6394 78.2059 44.6394H60.992C60.5257 44.6127 60.1659 44.233 60.1526 43.7667ZM60.1526 49.8221C60.1526 49.3358 60.5523 48.9361 61.0453 48.9361H70.4048C70.638 48.9361 70.8645 49.0294 71.031 49.1959C71.1975 49.3624 71.2908 49.5889 71.2908 49.8221C71.2908 50.0619 71.1975 50.2884 71.031 50.4549C70.8645 50.6215 70.638 50.7147 70.4048 50.7147H60.9921C60.5191 50.6814 60.1526 50.2951 60.1526 49.8221ZM60.1526 55.8642C60.1526 55.3712 60.5523 54.9782 61.0453 54.9782H78.2592C78.4924 54.9782 78.7188 55.0715 78.8854 55.238C79.0519 55.4045 79.1452 55.631 79.1452 55.8642C79.1452 56.0974 79.0519 56.3238 78.8854 56.4904C78.7189 56.6569 78.4924 56.7502 78.2592 56.7502H60.9924C60.5194 56.7235 60.1526 56.3372 60.1526 55.8642ZM60.1526 61.9196C60.1526 61.4333 60.5523 61.0336 61.0453 61.0336H70.0516C70.2848 61.0336 70.5113 61.1269 70.6778 61.2934C70.8444 61.4599 70.9376 61.6864 70.9376 61.9196C70.9376 62.1594 70.8444 62.3859 70.6778 62.5524C70.5113 62.719 70.2848 62.8122 70.0516 62.8122H60.9919C60.5189 62.7789 60.1526 62.3926 60.1526 61.9196ZM60.1526 67.9617C60.1526 67.4687 60.5523 67.0757 61.0453 67.0757H85.3996C85.6327 67.0757 85.8592 67.169 86.0257 67.3355C86.1923 67.502 86.2855 67.7285 86.2855 67.9617C86.2855 68.1948 86.1923 68.4213 86.0257 68.5879C85.8592 68.7544 85.6327 68.8477 85.3996 68.8477H60.9924C60.5194 68.821 60.1526 68.4347 60.1526 67.9617ZM60.1526 74.0171C60.1326 73.7839 60.2126 73.5441 60.3725 73.3643C60.5257 73.1844 60.7522 73.0711 60.992 73.0578H70.0517C70.538 73.0578 70.9377 73.4575 70.9377 73.9505C70.9377 74.4368 70.538 74.8365 70.0517 74.8365H60.992C60.5457 74.8098 60.1926 74.4634 60.1526 74.0171ZM60.1526 80.0592C60.1526 79.5662 60.5523 79.1732 61.0453 79.1732H85.3996C85.6327 79.1732 85.8592 79.2665 86.0257 79.433C86.1923 79.5995 86.2855 79.826 86.2855 80.0592C86.2855 80.2923 86.1923 80.5188 86.0257 80.6854C85.8592 80.8519 85.6327 80.9452 85.3996 80.9452H60.9924C60.5194 80.9185 60.1526 80.5322 60.1526 80.0592ZM60.1526 86.1146C60.1526 85.6283 60.5523 85.2286 61.0453 85.2286H70.0516C70.5379 85.2286 70.9376 85.6283 70.9376 86.1146C70.9376 86.6075 70.5379 87.0072 70.0516 87.0072H60.9919C60.5189 86.9739 60.1526 86.5876 60.1526 86.1146ZM113.145 70.7331H97.1573C96.6643 70.7331 96.2713 71.1328 96.2713 71.6191V82.1577C96.2713 82.3908 96.3645 82.6173 96.5311 82.7839C96.6976 82.9504 96.9241 83.0437 97.1573 83.0437H113.145C113.378 83.0437 113.605 82.9504 113.771 82.7839C113.938 82.6173 114.031 82.3908 114.031 82.1577V71.6191C114.031 71.3859 113.938 71.1594 113.771 70.9929C113.605 70.8263 113.378 70.7331 113.145 70.7331ZM112.259 81.265H98.05L98.0433 72.5118H112.252L112.259 81.265ZM137.374 70.7331H121.386C120.9 70.7397 120.507 71.1328 120.5 71.6191V82.1577C120.5 82.3908 120.593 82.6173 120.76 82.7839C120.926 82.9504 121.153 83.0437 121.386 83.0437H137.374C137.614 83.0437 137.84 82.9504 138.007 82.7839C138.173 82.6173 138.267 82.3908 138.267 82.1577V71.6191C138.267 71.3859 138.173 71.1594 138.007 70.9929C137.84 70.8263 137.614 70.7331 137.374 70.7331ZM136.488 81.265H122.279V72.5118H136.488V81.265ZM113.145 87.5735H97.1572C96.6642 87.5735 96.2712 87.9732 96.2712 88.4595V98.9981C96.2712 99.2313 96.3644 99.4578 96.531 99.6243C96.6975 99.7909 96.924 99.8841 97.1572 99.8841H113.145C113.378 99.8841 113.605 99.7909 113.771 99.6243C113.938 99.4578 114.031 99.2313 114.031 98.9981V88.4595C114.031 88.2264 113.938 87.9999 113.771 87.8333C113.605 87.6668 113.378 87.5735 113.145 87.5735ZM112.259 98.1055H98.0499L98.0432 89.3522H112.252L112.259 98.1055ZM137.374 87.5735H121.386C120.9 87.5735 120.5 87.9732 120.5 88.4595V98.9981C120.5 99.2313 120.593 99.4578 120.76 99.6243C120.926 99.7909 121.153 99.8841 121.386 99.8841H137.374C137.614 99.8841 137.84 99.7909 138.007 99.6243C138.173 99.4578 138.266 99.2313 138.266 98.9981V88.4595C138.266 88.2264 138.173 87.9999 138.007 87.8333C137.84 87.6668 137.614 87.5735 137.374 87.5735ZM136.488 98.1055H122.279V89.3522H136.488V98.1055ZM113.145 104.414H97.1571C96.6641 104.414 96.2711 104.814 96.2711 105.3V115.839C96.2711 116.072 96.3643 116.298 96.5309 116.465C96.6974 116.631 96.9239 116.725 97.1571 116.725H113.145C113.378 116.725 113.604 116.631 113.771 116.465C113.938 116.298 114.031 116.072 114.031 115.839V105.3C114.031 105.067 113.938 104.84 113.771 104.674C113.604 104.507 113.378 104.414 113.145 104.414ZM112.259 114.946H98.0498L98.0431 106.193H112.252L112.259 114.946ZM137.374 104.414H121.386C120.9 104.414 120.5 104.814 120.5 105.3V115.839C120.507 116.325 120.9 116.718 121.386 116.725H137.374C137.614 116.725 137.84 116.631 138.007 116.465C138.173 116.298 138.266 116.072 138.266 115.839V105.3C138.266 105.067 138.173 104.84 138.007 104.674C137.84 104.507 137.614 104.414 137.374 104.414ZM136.488 114.946H122.279V106.193H136.488V114.946ZM113.145 121.234H97.157C96.664 121.234 96.271 121.634 96.271 122.127V132.659C96.271 132.892 96.3642 133.119 96.5308 133.285C96.6973 133.452 96.9238 133.545 97.157 133.545H113.145C113.378 133.545 113.604 133.452 113.771 133.285C113.937 133.119 114.031 132.892 114.031 132.659V122.127C114.031 121.887 113.937 121.661 113.771 121.494C113.604 121.328 113.378 121.234 113.145 121.234ZM112.259 131.766H98.0497L98.043 123.013H112.252L112.259 131.766ZM137.374 121.234H121.386C120.9 121.248 120.507 121.641 120.5 122.127V132.659C120.5 132.892 120.593 133.119 120.76 133.285C120.926 133.452 121.153 133.545 121.386 133.545H137.374C137.613 133.545 137.84 133.452 138.006 133.285C138.173 133.119 138.266 132.892 138.266 132.659V122.127C138.266 121.887 138.173 121.661 138.006 121.494C137.84 121.328 137.613 121.234 137.374 121.234ZM136.488 131.766H122.279V123.013H136.488V131.766ZM11.6756 34.8337H35.7297C38.8473 34.4207 41.1855 31.7627 41.1855 28.6118C41.1855 25.4675 38.8473 22.803 35.7297 22.3966H35.0702C35.1635 21.8104 35.2101 21.2175 35.2101 20.6179C35.2101 14.2428 30.0408 9.0735 23.6657 9.0735C17.2905 9.0735 12.1212 14.2428 12.1212 20.6179C12.1212 21.2175 12.1679 21.8104 12.2611 22.3966H11.6016C9.88296 22.3034 8.2042 22.9229 6.95844 24.1087C5.70605 25.2944 5 26.9399 5 28.6586C5 30.3772 5.70612 32.0227 6.95844 33.2085C8.20415 34.3942 9.88279 35.0138 11.6016 34.9205L11.6756 34.8337ZM11.6756 24.0885H18.9766V24.0819C19.2098 24.0819 19.4362 23.9886 19.6028 23.8221C19.7693 23.6555 19.8626 23.429 19.8626 23.1959C19.8559 22.7096 19.4629 22.3166 18.9766 22.3099H14.147C14.0338 21.7237 13.9738 21.1308 13.9671 20.5312C13.9405 17.3004 15.5193 14.2626 18.184 12.4307C20.842 10.5988 24.246 10.2057 27.2504 11.3849C30.2614 12.564 32.493 15.1619 33.1992 18.3129C33.9053 21.4706 33.006 24.768 30.7876 27.1196C30.6211 27.2861 30.5278 27.5126 30.5278 27.7524C30.5278 27.9922 30.6211 28.2187 30.7876 28.3852C30.9542 28.5385 31.1674 28.6184 31.3938 28.6117C31.6337 28.6051 31.8668 28.5051 32.0334 28.332C33.1592 27.1062 34.0119 25.6474 34.5181 24.0685H35.6039C37.9687 24.2151 39.8141 26.1803 39.8141 28.5518C39.8141 30.9232 37.9689 32.8885 35.6039 33.035H11.676C10.4369 33.1149 9.22452 32.6753 8.31846 31.8293C7.41249 30.9766 6.89955 29.7908 6.89955 28.5517C6.89955 27.3126 7.41249 26.1269 8.31846 25.2742C9.22443 24.4282 10.4369 23.9885 11.676 24.0684L11.6756 24.0885ZM120.498 9C117.44 9 114.509 10.2057 112.338 12.3642C110.173 14.5225 108.954 17.4536 108.954 20.5112C108.954 21.1107 109 21.7036 109.093 22.2899H108.434C105.11 22.4697 102.498 25.2211 102.498 28.5518C102.498 31.8825 105.11 34.6338 108.434 34.8137H132.522C135.646 34.4074 137.978 31.7427 137.978 28.5985C137.978 25.4475 135.646 22.7897 132.522 22.3767H131.869C131.956 21.7905 132.003 21.1976 132.009 20.6046C132.029 17.5336 130.823 14.5893 128.665 12.4109C126.507 10.2326 123.563 9.00665 120.498 9ZM131.55 24.0819H132.529H132.522C134.894 24.2351 136.739 26.2003 136.739 28.5718C136.739 30.9432 134.894 32.9085 132.522 33.055H108.473C106.102 32.9084 104.256 30.9432 104.256 28.5718C104.256 26.2003 106.102 24.235 108.473 24.0819H115.774C116.007 24.0819 116.234 23.9886 116.401 23.8221C116.567 23.6555 116.66 23.429 116.66 23.1959C116.654 22.7096 116.261 22.3166 115.774 22.3099H110.938C110.831 21.7237 110.772 21.1308 110.765 20.5312C110.765 17.3137 112.357 14.3094 115.015 12.4974C117.673 10.6855 121.05 10.3057 124.041 11.4782C127.039 12.6506 129.257 15.222 129.984 18.3529C130.703 21.4904 129.837 24.7746 127.659 27.1394C127.486 27.3059 127.392 27.5324 127.392 27.7722C127.392 28.0054 127.486 28.2319 127.659 28.3984C127.819 28.5583 128.038 28.6382 128.258 28.6316C128.505 28.6316 128.738 28.525 128.898 28.3451C130.03 27.1261 130.876 25.6672 131.389 24.0817L131.55 24.0819Z" fill="#663366"/>
<path d="M49.1596 90.2564H23.8452C23.3522 90.2564 22.9525 90.6494 22.9525 91.1424V100.415C22.9525 100.648 23.0458 100.875 23.2123 101.041C23.3789 101.208 23.6054 101.301 23.8452 101.301H49.1596C49.3927 101.301 49.6192 101.208 49.7857 101.041C49.9523 100.875 50.0455 100.648 50.0455 100.415V91.1424C50.0455 90.9092 49.9523 90.6827 49.7857 90.5162C49.6192 90.3497 49.3927 90.2564 49.1596 90.2564ZM48.2736 99.5293H24.7311V92.0284H48.2668L48.2736 99.5293ZM49.1596 105.372H23.8452C23.3522 105.372 22.9525 105.771 22.9525 106.258V115.55C22.9525 115.784 23.0458 116.01 23.2123 116.177C23.3789 116.343 23.6054 116.436 23.8452 116.436H49.1596C49.3927 116.436 49.6192 116.343 49.7857 116.177C49.9523 116.01 50.0455 115.784 50.0455 115.55V106.258C50.0455 106.024 49.9523 105.798 49.7857 105.631C49.6192 105.465 49.3927 105.372 49.1596 105.372ZM48.2736 114.664H24.7311V107.15H48.2668L48.2736 114.664ZM49.1596 120.507H23.8452C23.3522 120.507 22.9525 120.906 22.9525 121.393V130.666C22.9525 130.905 23.0458 131.132 23.2123 131.298C23.3789 131.465 23.6054 131.558 23.8452 131.558H49.1596C49.3927 131.558 49.6192 131.465 49.7857 131.298C49.9523 131.132 50.0455 130.905 50.0455 130.666V121.393C50.0455 121.159 49.9523 120.933 49.7857 120.766C49.6192 120.6 49.3927 120.507 49.1596 120.507ZM48.2736 129.78H24.7311V122.285H48.2668L48.2736 129.78ZM145 139.779V70.4982H144.993C144.987 66.6678 141.882 63.5636 138.052 63.5569H133.822V59.7865C133.815 57.6282 132.056 55.8828 129.898 55.8828H127.873V52.6852C127.873 50.5269 126.121 48.7748 123.963 48.7748H110.48C108.321 48.7748 106.569 50.5268 106.569 52.6852V55.8828H104.531C102.373 55.8828 100.621 57.628 100.621 59.7865V63.6236H96.7834V54.4772C96.7834 52.6719 96.084 50.94 94.8317 49.6476L76.2858 30.5288C74.9735 29.1965 73.1816 28.437 71.3096 28.437H57.8998C54.0694 28.437 50.9585 31.5347 50.9518 35.3651V62.3985C50.9518 62.6383 51.0451 62.8648 51.2116 63.0313C51.3782 63.1978 51.6047 63.2911 51.8378 63.2911C52.0776 63.2911 52.3041 63.1978 52.4707 63.0313C52.6372 62.8648 52.7305 62.6383 52.7305 62.3985V35.3651C52.7371 32.5139 55.0487 30.2091 57.8998 30.2091H71.3095C72.7018 30.2291 74.0342 30.7886 75.0201 31.7745L93.5522 50.8865C94.4782 51.8391 94.9978 53.1115 95.0044 54.4437V63.7366V63.7299C91.7469 64.3828 89.4088 67.2472 89.4088 70.5713V138.892H57.2406V88.0837C57.2406 84.2666 54.1496 81.1623 50.3325 81.1424H50.2459L50.2392 77.6784C50.2392 75.8199 49.4931 74.0479 48.1742 72.7423C46.8619 71.4433 45.0766 70.7171 43.2247 70.7305H37.3958V51.2791C37.3958 51.0459 37.3026 50.8194 37.136 50.6529C36.9695 50.4864 36.743 50.3931 36.5098 50.3931C36.0169 50.3931 35.6238 50.7861 35.6238 51.2791V70.7305H29.7218C25.8913 70.7371 22.7871 73.8414 22.7804 77.6784V81.1424C18.95 81.149 15.8524 84.2599 15.8524 88.0837V139.777C15.8524 140.016 15.9456 140.243 16.1122 140.409C16.2787 140.576 16.5052 140.669 16.7384 140.669H144.108C144.595 140.656 144.988 140.263 144.994 139.777L145 139.779ZM108.355 52.7318L108.349 52.7384C108.349 51.5593 109.301 50.6067 110.48 50.6067H123.963C125.142 50.6067 126.095 51.5593 126.095 52.7384V55.936H108.328L108.355 52.7318ZM102.406 59.8397H102.4C102.4 58.6673 103.352 57.708 104.531 57.708H129.912C131.065 57.7214 132.011 58.634 132.044 59.7865V63.6236H102.4L102.406 59.8397ZM24.5532 77.6795C24.5665 74.8283 26.8715 72.5169 29.7225 72.5102H43.2255C44.5978 72.5102 45.9101 73.0498 46.8827 74.0224C47.8486 74.9883 48.3949 76.3073 48.3949 77.6796V81.1435H24.5539L24.5532 77.6795ZM52.2517 138.893H17.539V88.0856C17.5324 86.72 18.072 85.4011 19.0446 84.4351C20.0105 83.4626 21.3227 82.9163 22.6884 82.9163H50.334C51.6996 82.9163 53.012 83.4626 53.9779 84.4351C54.9505 85.4011 55.49 86.72 55.4834 88.0856V138.893H52.2517ZM143.223 138.893H91.1885V70.5733C91.1952 67.7221 93.5068 65.4106 96.3578 65.404H138.052C140.903 65.4106 143.208 67.7223 143.221 70.5733L143.223 138.893ZM60.1526 43.7667C60.146 43.2871 60.5124 42.8874 60.992 42.8607H78.2059C78.6922 42.8607 79.0919 43.2604 79.0919 43.7467C79.0919 44.2397 78.6922 44.6394 78.2059 44.6394H60.992C60.5257 44.6127 60.1659 44.233 60.1526 43.7667ZM60.1526 49.8221C60.1526 49.3358 60.5523 48.9361 61.0453 48.9361H70.4048C70.638 48.9361 70.8645 49.0294 71.031 49.1959C71.1975 49.3624 71.2908 49.5889 71.2908 49.8221C71.2908 50.0619 71.1975 50.2884 71.031 50.4549C70.8645 50.6215 70.638 50.7147 70.4048 50.7147H60.9921C60.5191 50.6814 60.1526 50.2951 60.1526 49.8221ZM60.1526 55.8642C60.1526 55.3712 60.5523 54.9782 61.0453 54.9782H78.2592C78.4924 54.9782 78.7188 55.0715 78.8854 55.238C79.0519 55.4045 79.1452 55.631 79.1452 55.8642C79.1452 56.0974 79.0519 56.3238 78.8854 56.4904C78.7189 56.6569 78.4924 56.7502 78.2592 56.7502H60.9924C60.5194 56.7235 60.1526 56.3372 60.1526 55.8642ZM60.1526 61.9196C60.1526 61.4333 60.5523 61.0336 61.0453 61.0336H70.0516C70.2848 61.0336 70.5113 61.1269 70.6778 61.2934C70.8444 61.4599 70.9376 61.6864 70.9376 61.9196C70.9376 62.1594 70.8444 62.3859 70.6778 62.5524C70.5113 62.719 70.2848 62.8122 70.0516 62.8122H60.9919C60.5189 62.7789 60.1526 62.3926 60.1526 61.9196ZM60.1526 67.9617C60.1526 67.4687 60.5523 67.0757 61.0453 67.0757H85.3996C85.6327 67.0757 85.8592 67.169 86.0257 67.3355C86.1923 67.502 86.2855 67.7285 86.2855 67.9617C86.2855 68.1948 86.1923 68.4213 86.0257 68.5879C85.8592 68.7544 85.6327 68.8477 85.3996 68.8477H60.9924C60.5194 68.821 60.1526 68.4347 60.1526 67.9617ZM60.1526 74.0171C60.1326 73.7839 60.2126 73.5441 60.3725 73.3643C60.5257 73.1844 60.7522 73.0711 60.992 73.0578H70.0517C70.538 73.0578 70.9377 73.4575 70.9377 73.9505C70.9377 74.4368 70.538 74.8365 70.0517 74.8365H60.992C60.5457 74.8098 60.1926 74.4634 60.1526 74.0171ZM60.1526 80.0592C60.1526 79.5662 60.5523 79.1732 61.0453 79.1732H85.3996C85.6327 79.1732 85.8592 79.2665 86.0257 79.433C86.1923 79.5995 86.2855 79.826 86.2855 80.0592C86.2855 80.2923 86.1923 80.5188 86.0257 80.6854C85.8592 80.8519 85.6327 80.9452 85.3996 80.9452H60.9924C60.5194 80.9185 60.1526 80.5322 60.1526 80.0592ZM60.1526 86.1146C60.1526 85.6283 60.5523 85.2286 61.0453 85.2286H70.0516C70.5379 85.2286 70.9376 85.6283 70.9376 86.1146C70.9376 86.6075 70.5379 87.0072 70.0516 87.0072H60.9919C60.5189 86.9739 60.1526 86.5876 60.1526 86.1146ZM113.145 70.7331H97.1573C96.6643 70.7331 96.2713 71.1328 96.2713 71.6191V82.1577C96.2713 82.3908 96.3645 82.6173 96.5311 82.7839C96.6976 82.9504 96.9241 83.0437 97.1573 83.0437H113.145C113.378 83.0437 113.605 82.9504 113.771 82.7839C113.938 82.6173 114.031 82.3908 114.031 82.1577V71.6191C114.031 71.3859 113.938 71.1594 113.771 70.9929C113.605 70.8263 113.378 70.7331 113.145 70.7331ZM112.259 81.265H98.05L98.0433 72.5118H112.252L112.259 81.265ZM137.374 70.7331H121.386C120.9 70.7397 120.507 71.1328 120.5 71.6191V82.1577C120.5 82.3908 120.593 82.6173 120.76 82.7839C120.926 82.9504 121.153 83.0437 121.386 83.0437H137.374C137.614 83.0437 137.84 82.9504 138.007 82.7839C138.173 82.6173 138.267 82.3908 138.267 82.1577V71.6191C138.267 71.3859 138.173 71.1594 138.007 70.9929C137.84 70.8263 137.614 70.7331 137.374 70.7331ZM136.488 81.265H122.279V72.5118H136.488V81.265ZM113.145 87.5735H97.1572C96.6642 87.5735 96.2712 87.9732 96.2712 88.4595V98.9981C96.2712 99.2313 96.3644 99.4578 96.531 99.6243C96.6975 99.7909 96.924 99.8841 97.1572 99.8841H113.145C113.378 99.8841 113.605 99.7909 113.771 99.6243C113.938 99.4578 114.031 99.2313 114.031 98.9981V88.4595C114.031 88.2264 113.938 87.9999 113.771 87.8333C113.605 87.6668 113.378 87.5735 113.145 87.5735ZM112.259 98.1055H98.0499L98.0432 89.3522H112.252L112.259 98.1055ZM137.374 87.5735H121.386C120.9 87.5735 120.5 87.9732 120.5 88.4595V98.9981C120.5 99.2313 120.593 99.4578 120.76 99.6243C120.926 99.7909 121.153 99.8841 121.386 99.8841H137.374C137.614 99.8841 137.84 99.7909 138.007 99.6243C138.173 99.4578 138.266 99.2313 138.266 98.9981V88.4595C138.266 88.2264 138.173 87.9999 138.007 87.8333C137.84 87.6668 137.614 87.5735 137.374 87.5735ZM136.488 98.1055H122.279V89.3522H136.488V98.1055ZM113.145 104.414H97.1571C96.6641 104.414 96.2711 104.814 96.2711 105.3V115.839C96.2711 116.072 96.3643 116.298 96.5309 116.465C96.6974 116.631 96.9239 116.725 97.1571 116.725H113.145C113.378 116.725 113.604 116.631 113.771 116.465C113.938 116.298 114.031 116.072 114.031 115.839V105.3C114.031 105.067 113.938 104.84 113.771 104.674C113.604 104.507 113.378 104.414 113.145 104.414ZM112.259 114.946H98.0498L98.0431 106.193H112.252L112.259 114.946ZM137.374 104.414H121.386C120.9 104.414 120.5 104.814 120.5 105.3V115.839C120.507 116.325 120.9 116.718 121.386 116.725H137.374C137.614 116.725 137.84 116.631 138.007 116.465C138.173 116.298 138.266 116.072 138.266 115.839V105.3C138.266 105.067 138.173 104.84 138.007 104.674C137.84 104.507 137.614 104.414 137.374 104.414ZM136.488 114.946H122.279V106.193H136.488V114.946ZM113.145 121.234H97.157C96.664 121.234 96.271 121.634 96.271 122.127V132.659C96.271 132.892 96.3642 133.119 96.5308 133.285C96.6973 133.452 96.9238 133.545 97.157 133.545H113.145C113.378 133.545 113.604 133.452 113.771 133.285C113.937 133.119 114.031 132.892 114.031 132.659V122.127C114.031 121.887 113.937 121.661 113.771 121.494C113.604 121.328 113.378 121.234 113.145 121.234ZM112.259 131.766H98.0497L98.043 123.013H112.252L112.259 131.766ZM137.374 121.234H121.386C120.9 121.248 120.507 121.641 120.5 122.127V132.659C120.5 132.892 120.593 133.119 120.76 133.285C120.926 133.452 121.153 133.545 121.386 133.545H137.374C137.613 133.545 137.84 133.452 138.006 133.285C138.173 133.119 138.266 132.892 138.266 132.659V122.127C138.266 121.887 138.173 121.661 138.006 121.494C137.84 121.328 137.613 121.234 137.374 121.234ZM136.488 131.766H122.279V123.013H136.488V131.766ZM11.6756 34.8337H35.7297C38.8473 34.4207 41.1855 31.7627 41.1855 28.6118C41.1855 25.4675 38.8473 22.803 35.7297 22.3966H35.0702C35.1635 21.8104 35.2101 21.2175 35.2101 20.6179C35.2101 14.2428 30.0408 9.0735 23.6657 9.0735C17.2905 9.0735 12.1212 14.2428 12.1212 20.6179C12.1212 21.2175 12.1679 21.8104 12.2611 22.3966H11.6016C9.88296 22.3034 8.2042 22.9229 6.95844 24.1087C5.70605 25.2944 5 26.9399 5 28.6586C5 30.3772 5.70612 32.0227 6.95844 33.2085C8.20415 34.3942 9.88279 35.0138 11.6016 34.9205L11.6756 34.8337ZM11.6756 24.0885H18.9766V24.0819C19.2098 24.0819 19.4362 23.9886 19.6028 23.8221C19.7693 23.6555 19.8626 23.429 19.8626 23.1959C19.8559 22.7096 19.4629 22.3166 18.9766 22.3099H14.147C14.0338 21.7237 13.9738 21.1308 13.9671 20.5312C13.9405 17.3004 15.5193 14.2626 18.184 12.4307C20.842 10.5988 24.246 10.2057 27.2504 11.3849C30.2614 12.564 32.493 15.1619 33.1992 18.3129C33.9053 21.4706 33.006 24.768 30.7876 27.1196C30.6211 27.2861 30.5278 27.5126 30.5278 27.7524C30.5278 27.9922 30.6211 28.2187 30.7876 28.3852C30.9542 28.5385 31.1674 28.6184 31.3938 28.6117C31.6337 28.6051 31.8668 28.5051 32.0334 28.332C33.1592 27.1062 34.0119 25.6474 34.5181 24.0685H35.6039C37.9687 24.2151 39.8141 26.1803 39.8141 28.5518C39.8141 30.9232 37.9689 32.8885 35.6039 33.035H11.676C10.4369 33.1149 9.22452 32.6753 8.31846 31.8293C7.41249 30.9766 6.89955 29.7908 6.89955 28.5517C6.89955 27.3126 7.41249 26.1269 8.31846 25.2742C9.22443 24.4282 10.4369 23.9885 11.676 24.0684L11.6756 24.0885ZM120.498 9C117.44 9 114.509 10.2057 112.338 12.3642C110.173 14.5225 108.954 17.4536 108.954 20.5112C108.954 21.1107 109 21.7036 109.093 22.2899H108.434C105.11 22.4697 102.498 25.2211 102.498 28.5518C102.498 31.8825 105.11 34.6338 108.434 34.8137H132.522C135.646 34.4074 137.978 31.7427 137.978 28.5985C137.978 25.4475 135.646 22.7897 132.522 22.3767H131.869C131.956 21.7905 132.003 21.1976 132.009 20.6046C132.029 17.5336 130.823 14.5893 128.665 12.4109C126.507 10.2326 123.563 9.00665 120.498 9ZM131.55 24.0819H132.529H132.522C134.894 24.2351 136.739 26.2003 136.739 28.5718C136.739 30.9432 134.894 32.9085 132.522 33.055H108.473C106.102 32.9084 104.256 30.9432 104.256 28.5718C104.256 26.2003 106.102 24.235 108.473 24.0819H115.774C116.007 24.0819 116.234 23.9886 116.401 23.8221C116.567 23.6555 116.66 23.429 116.66 23.1959C116.654 22.7096 116.261 22.3166 115.774 22.3099H110.938C110.831 21.7237 110.772 21.1308 110.765 20.5312C110.765 17.3137 112.357 14.3094 115.015 12.4974C117.673 10.6855 121.05 10.3057 124.041 11.4782C127.039 12.6506 129.257 15.222 129.984 18.3529C130.703 21.4904 129.837 24.7746 127.659 27.1394C127.486 27.3059 127.392 27.5324 127.392 27.7722C127.392 28.0054 127.486 28.2319 127.659 28.3984C127.819 28.5583 128.038 28.6382 128.258 28.6316C128.505 28.6316 128.738 28.525 128.898 28.3451C130.03 27.1261 130.876 25.6672 131.389 24.0817L131.55 24.0819Z" stroke="#663366" mask="url(#path-1-outside-1_663_4075)"/>
</svg>
