<svg width="150" height="150" viewBox="0 0 150 150" fill="none" xmlns="http://www.w3.org/2000/svg">
<path d="M40.418 66.3213L50.8518 65.9844" stroke="#663366" stroke-width="4.22535" stroke-miterlimit="10" stroke-linecap="round" stroke-linejoin="round"/>
<path d="M33.1543 51.375L34.6535 61.5398" stroke="#663366" stroke-width="4.22535" stroke-miterlimit="10" stroke-linecap="round" stroke-linejoin="round"/>
<path d="M38.3404 43.548C38.3688 43.7973 38.3835 44.0509 38.3835 44.308C38.3835 47.9621 35.4212 50.9241 31.7674 50.9241C28.1136 50.9241 25.1514 47.9618 25.1514 44.308C25.1514 44.0492 25.1663 43.794 25.195 43.543" stroke="#663366" stroke-width="4.22535" stroke-miterlimit="10" stroke-linecap="round" stroke-linejoin="round"/>
<path d="M35.424 71.2758C37.9132 71.2758 39.9311 69.2579 39.9311 66.7688C39.9311 64.2796 37.9132 62.2617 35.424 62.2617C32.9349 62.2617 30.917 64.2796 30.917 66.7688C30.917 69.2579 32.9349 71.2758 35.424 71.2758Z" stroke="#663366" stroke-width="4.22535" stroke-miterlimit="10" stroke-linecap="round" stroke-linejoin="round"/>
<path d="M59.4187 69.1661C58.5981 70.0233 57.4426 70.5571 56.1623 70.5571C53.673 70.5571 51.6553 68.5393 51.6553 66.05C51.6553 63.5607 53.673 61.543 56.1623 61.543C57.5651 61.543 58.8184 62.1838 59.6449 63.1889" stroke="#663366" stroke-width="4.22535" stroke-miterlimit="10" stroke-linecap="round" stroke-linejoin="round"/>
<path d="M47.2551 42.8326H17.2853C15.623 42.8326 14.2754 41.485 14.2754 39.8227V20.4903C14.2754 18.8281 15.623 17.4805 17.2853 17.4805H47.2551C50.8213 17.4805 53.712 20.3715 53.712 23.9374V36.3757C53.712 39.9419 50.8213 42.8326 47.2551 42.8326Z" stroke="#663366" stroke-width="4.22535" stroke-miterlimit="10" stroke-linecap="round" stroke-linejoin="round"/>
<path d="M32.4228 34.3804H26.6687C24.3352 34.3804 22.4434 32.4886 22.4434 30.155C22.4434 27.8215 24.3352 25.9297 26.6687 25.9297H32.4228C34.7563 25.9297 36.6482 27.8215 36.6482 30.155C36.6482 32.4886 34.7563 34.3804 32.4228 34.3804Z" stroke="#663366" stroke-width="4.22535" stroke-miterlimit="10" stroke-linecap="round" stroke-linejoin="round"/>
<path d="M5.86535 42.689H5.67747C5.30338 42.689 5 42.3856 5 42.0115V18.3025C5 17.9284 5.30338 17.625 5.67747 17.625H5.86507C10.5099 17.625 14.2755 21.3904 14.2755 26.0354V34.2788C14.2755 38.9236 10.5101 42.689 5.86535 42.689Z" stroke="#663366" stroke-width="4.22535" stroke-miterlimit="10" stroke-linecap="round" stroke-linejoin="round"/>
<path d="M101.692 42.2749H93.8045C91.4709 42.2749 89.5791 40.3831 89.5791 38.0496C89.5791 35.7161 91.4709 33.8242 93.8045 33.8242H101.692C104.025 33.8242 105.917 35.7161 105.917 38.0496C105.917 40.3831 104.026 42.2749 101.692 42.2749Z" stroke="#663366" stroke-width="4.22535" stroke-miterlimit="10" stroke-linecap="round" stroke-linejoin="round"/>
<path d="M97.749 42.2773V55.314" stroke="#663366" stroke-width="4.22535" stroke-miterlimit="10" stroke-linecap="round" stroke-linejoin="round"/>
<path d="M123.084 19.9693C125.365 24.1042 126.662 28.8575 126.662 33.9135V55.3121H68.835V33.9135C68.835 17.9451 81.78 5 97.7485 5C105.108 5 111.825 7.74958 116.929 12.2775" stroke="#663366" stroke-width="4.22535" stroke-miterlimit="10" stroke-linecap="round" stroke-linejoin="round"/>
<path d="M64.3875 99.8005C67.0001 98.7915 69.8396 98.2383 72.8083 98.2383H121.619C134.532 98.2383 145 108.706 145 121.619C145 134.531 134.532 144.999 121.619 144.999H72.808C59.8953 144.999 49.4277 134.531 49.4277 121.619C49.4277 115.217 52.0004 109.416 56.1686 105.194" stroke="#663366" stroke-width="4.22535" stroke-miterlimit="10" stroke-linecap="round" stroke-linejoin="round"/>
<path d="M58.8271 139.995L63.6094 133.723" stroke="#663366" stroke-width="4.22535" stroke-miterlimit="10" stroke-linecap="round" stroke-linejoin="round"/>
<path d="M50.0127 125.336L57.7978 124.07" stroke="#663366" stroke-width="4.22535" stroke-miterlimit="10" stroke-linecap="round" stroke-linejoin="round"/>
<path d="M53.7139 108.637L60.2308 113.08" stroke="#663366" stroke-width="4.22535" stroke-miterlimit="10" stroke-linecap="round" stroke-linejoin="round"/>
<path d="M67.8789 99.0547L69.5612 106.761" stroke="#663366" stroke-width="4.22535" stroke-miterlimit="10" stroke-linecap="round" stroke-linejoin="round"/>
<path d="M83.2188 98.5195V106.407" stroke="#663366" stroke-width="4.22535" stroke-miterlimit="10" stroke-linecap="round" stroke-linejoin="round"/>
<path d="M97.749 98.5195V106.407" stroke="#663366" stroke-width="4.22535" stroke-miterlimit="10" stroke-linecap="round" stroke-linejoin="round"/>
<path d="M112.278 98.5195V106.407" stroke="#663366" stroke-width="4.22535" stroke-miterlimit="10" stroke-linecap="round" stroke-linejoin="round"/>
<path d="M127.802 99.3672L125.688 106.966" stroke="#663366" stroke-width="4.22535" stroke-miterlimit="10" stroke-linecap="round" stroke-linejoin="round"/>
<path d="M141.41 109.719L134.656 113.792" stroke="#663366" stroke-width="4.22535" stroke-miterlimit="10" stroke-linecap="round" stroke-linejoin="round"/>
<path d="M144.171 126.603L136.47 124.902" stroke="#663366" stroke-width="4.22535" stroke-miterlimit="10" stroke-linecap="round" stroke-linejoin="round"/>
<path d="M134.557 140.747L130.13 134.219" stroke="#663366" stroke-width="4.22535" stroke-miterlimit="10" stroke-linecap="round" stroke-linejoin="round"/>
<path d="M118.475 144.719V136.832" stroke="#663366" stroke-width="4.22535" stroke-miterlimit="10" stroke-linecap="round" stroke-linejoin="round"/>
<path d="M103.944 144.719V136.832" stroke="#663366" stroke-width="4.22535" stroke-miterlimit="10" stroke-linecap="round" stroke-linejoin="round"/>
<path d="M89.4141 144.719V136.832" stroke="#663366" stroke-width="4.22535" stroke-miterlimit="10" stroke-linecap="round" stroke-linejoin="round"/>
<path d="M74.8838 144.719V136.832" stroke="#663366" stroke-width="4.22535" stroke-miterlimit="10" stroke-linecap="round" stroke-linejoin="round"/>
<path d="M72.8085 136.551C64.5764 136.551 57.8789 129.853 57.8789 121.621C57.8789 113.389 64.5764 106.691 72.8085 106.691H121.62C129.852 106.691 136.549 113.389 136.549 121.621C136.549 129.853 129.852 136.551 121.62 136.551H72.8085Z" stroke="#663366" stroke-width="4.22535" stroke-miterlimit="10" stroke-linecap="round" stroke-linejoin="round"/>
<path d="M72.8085 136.551C81.0539 136.551 87.7381 129.866 87.7381 121.621C87.7381 113.376 81.0539 106.691 72.8085 106.691C64.5631 106.691 57.8789 113.376 57.8789 121.621C57.8789 129.866 64.5631 136.551 72.8085 136.551Z" stroke="#663366" stroke-width="4.22535" stroke-miterlimit="10" stroke-linecap="round" stroke-linejoin="round"/>
<path d="M72.8085 127.1C75.8348 127.1 78.288 124.646 78.288 121.62C78.288 118.594 75.8348 116.141 72.8085 116.141C69.7823 116.141 67.3291 118.594 67.3291 121.62C67.3291 124.646 69.7823 127.1 72.8085 127.1Z" stroke="#663366" stroke-width="4.22535" stroke-miterlimit="10" stroke-linecap="round" stroke-linejoin="round"/>
<path d="M121.62 136.551C129.865 136.551 136.55 129.866 136.55 121.621C136.55 113.376 129.865 106.691 121.62 106.691C113.375 106.691 106.69 113.376 106.69 121.621C106.69 129.866 113.375 136.551 121.62 136.551Z" stroke="#663366" stroke-width="4.22535" stroke-miterlimit="10" stroke-linecap="round" stroke-linejoin="round"/>
<path d="M121.62 127.1C124.646 127.1 127.1 124.646 127.1 121.62C127.1 118.594 124.646 116.141 121.62 116.141C118.594 116.141 116.141 118.594 116.141 121.62C116.141 124.646 118.594 127.1 121.62 127.1Z" stroke="#663366" stroke-width="4.22535" stroke-miterlimit="10" stroke-linecap="round" stroke-linejoin="round"/>
<path d="M121.554 89.7891H73.1035V98.2398H121.554V89.7891Z" stroke="#663366" stroke-width="4.22535" stroke-miterlimit="10" stroke-linecap="round" stroke-linejoin="round"/>
<path d="M129.328 89.7891H65.0998C62.2122 89.7891 59.8711 87.4483 59.8711 84.5604V60.5412C59.8711 57.6536 62.2119 55.3125 65.0998 55.3125H129.328C132.216 55.3125 134.557 57.6533 134.557 60.5412V84.5604C134.557 87.4483 132.216 89.7891 129.328 89.7891Z" stroke="#663366" stroke-width="4.22535" stroke-miterlimit="10" stroke-linecap="round" stroke-linejoin="round"/>
<path d="M95.0869 118.469H99.074" stroke="#663366" stroke-width="4.22535" stroke-miterlimit="10" stroke-linecap="round" stroke-linejoin="round"/>
<path d="M95.0869 125.195H99.074" stroke="#663366" stroke-width="4.22535" stroke-miterlimit="10" stroke-linecap="round" stroke-linejoin="round"/>
<path d="M118.537 79.5771H100.93C99.6377 79.5771 98.5898 78.5292 98.5898 77.2365V66.7038C98.5898 65.4112 99.6377 64.3633 100.93 64.3633H118.537C119.83 64.3633 120.878 65.4112 120.878 66.7038V77.2365C120.878 78.5292 119.83 79.5771 118.537 79.5771Z" stroke="#663366" stroke-width="4.22535" stroke-miterlimit="10" stroke-linecap="round" stroke-linejoin="round"/>
<path d="M69.583 63.6914H72.241" stroke="#663366" stroke-width="4.22535" stroke-miterlimit="10" stroke-linecap="round" stroke-linejoin="round"/>
<path d="M69.583 70.5547H72.241" stroke="#663366" stroke-width="4.22535" stroke-miterlimit="10" stroke-linecap="round" stroke-linejoin="round"/>
<path d="M106.058 72.551V71.0586" stroke="#663366" stroke-width="4.22535" stroke-miterlimit="10" stroke-linecap="round" stroke-linejoin="round"/>
<path d="M113.584 72.551V71.0586" stroke="#663366" stroke-width="4.22535" stroke-miterlimit="10" stroke-linecap="round" stroke-linejoin="round"/>
</svg>
