<svg width="150" height="150" viewBox="0 0 150 150" fill="none" xmlns="http://www.w3.org/2000/svg">
<mask id="mask0_665_4127" style="mask-type:luminance" maskUnits="userSpaceOnUse" x="5" y="5" width="140" height="140">
<path d="M5 5H145V145H5V5Z" fill="white"/>
</mask>
<g mask="url(#mask0_665_4127)">
<path d="M11.1244 137.879C8.86227 137.879 7.02832 136.042 7.02832 133.777C7.02832 131.511 8.86227 129.674 11.1244 129.674C13.3866 129.674 15.2205 131.511 15.2205 133.777C15.2205 136.042 13.3866 137.879 11.1244 137.879Z" stroke="#663366" stroke-width="4.10156" stroke-miterlimit="10" stroke-linecap="round" stroke-linejoin="round"/>
<path d="M66.8088 110.006L56.3115 112.57" stroke="#663366" stroke-width="4.10156" stroke-miterlimit="10" stroke-linecap="round" stroke-linejoin="round"/>
<path d="M66.8086 110.008C67.8397 107.331 67.4886 102.606 66.8086 100.764" stroke="#663366" stroke-width="4.10156" stroke-miterlimit="10" stroke-linejoin="round"/>
<path d="M83.0663 110.008C82.0351 107.331 82.3862 102.606 83.0663 100.764" stroke="#663366" stroke-width="4.10156" stroke-miterlimit="10" stroke-linejoin="round"/>
<path d="M83.0666 110.009C83.0666 114.496 79.4272 118.133 74.9376 118.133C70.4483 118.133 66.8086 114.496 66.8086 110.009" stroke="#663366" stroke-width="4.10156" stroke-miterlimit="10" stroke-linejoin="round"/>
<path d="M103.553 63.6905C104.053 63.8062 104.575 63.8672 105.111 63.8672C108.913 63.8672 111.996 60.7872 111.996 56.9878C111.996 53.1884 108.913 50.1081 105.111 50.1081C104.635 50.1081 104.171 50.1562 103.723 50.2481" stroke="#663366" stroke-width="4.10156" stroke-miterlimit="10" stroke-linejoin="round"/>
<path d="M100.049 77.1318H83.0664V92.1055H89.0191" stroke="#663366" stroke-width="4.10156" stroke-miterlimit="10" stroke-linejoin="round"/>
<path d="M84.2773 8.58727V36.4883H94.0637V27.9119H102.498" stroke="#663366" stroke-width="4.10156" stroke-miterlimit="10" stroke-linejoin="round"/>
<path d="M46.4705 63.6905C45.9699 63.8062 45.4484 63.8672 44.9125 63.8672C41.1101 63.8672 38.0273 60.7872 38.0273 56.9878C38.0273 53.1884 41.1101 50.1081 44.9125 50.1081C45.388 50.1081 45.852 50.1562 46.3002 50.2481" stroke="#663366" stroke-width="4.10156" stroke-miterlimit="10" stroke-linejoin="round"/>
<path d="M49.9736 77.1318H66.9566V92.1055H61.0036" stroke="#663366" stroke-width="4.10156" stroke-miterlimit="10" stroke-linejoin="round"/>
<path d="M75.0279 102.875C70.8514 102.883 66.8026 101.451 63.5656 98.8213L59.1868 87.3363H52.6183L46.4922 63.6884V35.5363C46.4922 19.7995 59.262 7.04332 75.012 7.04742C90.762 7.04332 103.532 19.7995 103.532 35.5363V63.6884L97.4057 87.3363H90.8375L86.4586 98.8213C83.2217 101.451 79.1729 102.883 74.9964 102.875H75.0279Z" stroke="#663366" stroke-width="4.10156" stroke-miterlimit="10" stroke-linejoin="round"/>
<path d="M65.7466 30.5517V36.4883H55.9603V27.9119H47.5264" stroke="#663366" stroke-width="4.10156" stroke-miterlimit="10" stroke-linecap="round" stroke-linejoin="round"/>
<path d="M65.7461 8.58465V21.168" stroke="#663366" stroke-width="4.10156" stroke-miterlimit="10" stroke-linecap="round" stroke-linejoin="round"/>
<path d="M32.2141 87.372C32.2141 85.1118 30.3758 83.2792 28.1079 83.2792C25.8403 83.2792 24.002 85.1118 24.002 87.372C24.002 89.6325 25.8403 91.4648 28.1079 91.4648C30.3758 91.4648 32.2141 89.6325 32.2141 87.372Z" stroke="#663366" stroke-width="4.10156" stroke-miterlimit="10" stroke-linecap="round" stroke-linejoin="round"/>
<path d="M30.7451 90.5077L37.2849 98.2854V117.219" stroke="#663366" stroke-width="4.10156" stroke-miterlimit="10" stroke-linejoin="round"/>
<path d="M138.83 137.883C141.093 137.883 142.927 136.046 142.927 133.78C142.927 131.514 141.093 129.678 138.83 129.678C136.568 129.678 134.734 131.514 134.734 133.78C134.734 136.046 136.568 137.883 138.83 137.883Z" stroke="#663366" stroke-width="4.10156" stroke-miterlimit="10" stroke-linecap="round" stroke-linejoin="round"/>
<path d="M117.858 87.372C117.858 85.1118 119.697 83.2792 121.965 83.2792C124.232 83.2792 126.071 85.1118 126.071 87.372C126.071 89.6325 124.232 91.4648 121.965 91.4648C119.697 91.4648 117.858 89.6325 117.858 87.372Z" stroke="#663366" stroke-width="4.10156" stroke-miterlimit="10" stroke-linecap="round" stroke-linejoin="round"/>
<path d="M119.327 90.5077L112.787 98.2854V117.219" stroke="#663366" stroke-width="4.10156" stroke-miterlimit="10" stroke-linejoin="round"/>
<path d="M74.9336 134.762V126.568" stroke="#663366" stroke-width="4.10156" stroke-miterlimit="10" stroke-linecap="round" stroke-linejoin="round"/>
<path d="M79.0403 138.856C79.0403 136.596 77.202 134.764 74.9341 134.764C72.6664 134.764 70.8281 136.596 70.8281 138.856C70.8281 141.117 72.6664 142.949 74.9341 142.949C77.202 142.949 79.0403 141.117 79.0403 138.856Z" stroke="#663366" stroke-width="4.10156" stroke-miterlimit="10" stroke-linecap="round" stroke-linejoin="round"/>
<path d="M55.6409 136.415L47.8567 142.949H22.0469L14.2627 136.415" stroke="#663366" stroke-width="4.10156" stroke-miterlimit="10" stroke-linecap="round" stroke-linejoin="round"/>
<path d="M135.692 136.415L127.907 142.949H102.098L94.3135 136.415" stroke="#663366" stroke-width="4.10156" stroke-miterlimit="10" stroke-linecap="round" stroke-linejoin="round"/>
<path d="M46.4795 114.973L37.2848 117.219C31.2487 118.962 27.0088 124.5 27.0088 130.876V134.762" stroke="#663366" stroke-width="4.10156" stroke-miterlimit="10" stroke-linecap="round" stroke-linejoin="round"/>
<path d="M123.088 134.762V130.876C123.088 124.491 118.837 118.947 112.788 117.212L83.0664 110.006" stroke="#663366" stroke-width="4.10156" stroke-miterlimit="10" stroke-linecap="round" stroke-linejoin="round"/>
<path d="M80.0863 50.0584C79.6018 47.6975 77.5062 45.9218 74.9944 45.9218C72.1238 45.9218 69.7969 48.2411 69.7969 51.1023C69.7969 53.9636 72.1238 56.2832 74.9944 56.2832H75.0143C77.8849 56.2832 80.2118 58.6027 80.2118 61.464C80.2118 64.3252 77.8849 66.6445 75.0143 66.6445C72.5028 66.6445 70.4072 64.8688 69.9224 62.508" stroke="#663366" stroke-width="4.10156" stroke-miterlimit="10" stroke-linecap="round" stroke-linejoin="round"/>
<path d="M74.9941 45.9219V41.7596" stroke="#663366" stroke-width="4.10156" stroke-miterlimit="10" stroke-linecap="round" stroke-linejoin="round"/>
<path d="M75.0137 70.8047V66.6424" stroke="#663366" stroke-width="4.10156" stroke-miterlimit="10" stroke-linecap="round" stroke-linejoin="round"/>
</g>
</svg>
