<svg width="150" height="150" viewBox="0 0 150 150" fill="none" xmlns="http://www.w3.org/2000/svg">
<path fill-rule="evenodd" clip-rule="evenodd" d="M73.6973 49.4725L75.3246 39.7057L64.8125 39.7114L60.1801 49.4781L73.6973 49.4725ZM79.3276 39.7113L77.7003 49.4781H90.1685V39.7113H79.3276ZM94.1315 53.4165V56.8301C94.296 60.2324 97.114 62.9067 100.539 62.9067C103.963 62.9067 106.787 60.2323 106.951 56.8301V53.4165H94.1315ZM110.91 53.4165H110.915C111.074 56.8244 113.898 59.4988 117.322 59.4988C120.747 59.4988 123.565 56.8243 123.729 53.4165H110.91ZM77.3492 53.4165V56.8244L77.3549 56.8301C77.5193 60.2324 80.3373 62.9068 83.762 62.9068C87.1867 62.9068 90.0103 60.2323 90.1691 56.8301V53.4165L77.3492 53.4165ZM60.5712 53.4165C60.7356 56.8244 63.5593 59.4988 66.9839 59.4988C70.4086 59.4988 73.2266 56.8243 73.3911 53.4165H60.5712ZM106.6 49.4725L104.973 39.7057L94.1317 39.7114V49.4781L106.6 49.4725ZM108.981 39.7057L110.609 49.4725H124.092L119.477 39.7057H108.981ZM90.1117 98.29L66.2634 98.2957C65.5603 98.29 64.9933 97.7258 64.9877 97.0262V63.5445C68.316 64.182 71.7462 63.1551 74.173 60.8024C75.6188 64.2441 78.8223 66.6478 82.5531 67.0766C86.2783 67.5055 89.9468 65.8918 92.1411 62.8675C94.341 65.886 98.0039 67.4885 101.729 67.0652C105.454 66.6364 108.652 64.2385 110.098 60.8024C112.525 63.1552 115.955 64.182 119.289 63.5445V97.0262C119.277 97.7258 118.71 98.29 118.007 98.2957H113.857V73.9889C113.857 73.4642 113.647 72.962 113.273 72.5953C112.904 72.2229 112.394 72.0198 111.872 72.0254H92.1406C91.052 72.0254 90.1675 72.9056 90.1675 73.989V98.2957L90.1117 98.29ZM109.838 98.29V75.9694H94.1324V98.2958L109.838 98.29ZM57.5544 16.816C58.8301 16.8103 59.9811 17.572 60.4744 18.7399C60.9676 19.9135 60.7012 21.262 59.7996 22.1648C58.9038 23.0619 57.543 23.3327 56.3693 22.8475C55.1899 22.3623 54.4187 21.2225 54.4187 19.953C54.4131 19.1236 54.7419 18.3224 55.3316 17.7356C55.9213 17.1487 56.7209 16.816 57.5544 16.816ZM135.936 25.9451V16.3871C135.936 15.0386 134.836 13.944 133.481 13.944H50.6315C49.2764 13.944 48.1764 15.0386 48.1764 16.3871V25.8887L135.936 25.9451ZM123.252 88.4612V61.8694C126.053 59.9227 127.714 56.7349 127.692 53.3325C128.298 53.1858 128.797 52.7683 129.041 52.1984C129.285 51.6286 129.251 50.9797 128.939 50.4437L122.509 36.8685C122.186 36.1801 121.489 35.74 120.723 35.74H63.4903C62.6738 35.74 61.9424 36.2366 61.6476 36.9983L55.2008 50.5623V50.5566C54.9457 51.1152 54.9627 51.7584 55.2462 52.3C55.5297 52.8417 56.0513 53.2254 56.6524 53.3326C56.6467 56.718 58.3079 59.8889 61.0976 61.8242V88.4608H50.6309C49.2815 88.4551 48.1872 87.3662 48.1758 86.0177V29.8889H136.037V86.0177C136.032 87.3662 134.937 88.4551 133.582 88.4608L123.252 88.4612ZM69.7335 16.8149C71.0093 16.8149 72.1547 17.5823 72.6422 18.7502C73.1298 19.9238 72.8633 21.2723 71.9618 22.1694C71.0603 23.0665 69.7052 23.3317 68.5258 22.8465C67.3521 22.3612 66.5811 21.2215 66.5811 19.952C66.5811 18.2199 67.9928 16.8149 69.7335 16.8149ZM81.8843 16.8149C83.1544 16.8149 84.3054 17.5823 84.793 18.7502C85.2806 19.9238 85.0084 21.2723 84.1069 22.1694C83.2054 23.0665 81.8559 23.3317 80.6765 22.8465C79.4972 22.3612 78.7318 21.2215 78.7318 19.952C78.7318 18.2199 80.1436 16.8149 81.8843 16.8149ZM126.881 112.655H13.8955V120.007H126.864V112.655H126.881ZM13.8955 108.711V32.908H44.2132V86.0194C44.2529 89.5176 47.1163 92.3331 50.6317 92.3331H61.0531V96.971C61.0361 98.359 61.5804 99.6962 62.5557 100.684C63.5366 101.671 64.8691 102.235 66.2639 102.241H118.007C119.402 102.241 120.735 101.694 121.715 100.712C122.696 99.7356 123.252 98.4096 123.252 97.0273V92.3329H126.864V108.656L13.8955 108.711ZM59.4701 123.951C59.7989 128.223 58.7046 132.482 56.3516 136.071H84.4238C82.0651 132.482 80.9708 128.223 81.3167 123.951H59.4701ZM85.2634 123.951C85.0876 128.99 86.2386 133.684 90.4174 136.387C91.1658 136.867 91.4947 137.792 91.2226 138.633C90.9504 139.479 90.1453 140.038 89.255 139.998H51.4417C50.5686 139.998 49.8031 139.423 49.5536 138.593C49.3041 137.758 49.6387 136.861 50.3701 136.387C54.5488 133.684 55.6999 128.99 55.5241 123.951H11.9788C11.4515 123.957 10.9526 123.748 10.584 123.387C10.2098 123.02 10 122.518 10 121.999V31.0006C10 29.9116 10.8902 29.0258 11.9902 29.0258H44.2122V16.3871C44.2236 12.8607 47.0926 10.0056 50.6307 10H133.582C137.125 10.0056 139.989 12.8607 140 16.3871V86.0183C139.949 89.5166 137.097 92.3264 133.582 92.3321H130.826V121.987C130.826 122.507 130.616 123.009 130.248 123.376C129.879 123.742 129.375 123.951 128.853 123.951L85.2634 123.951ZM70.1416 118.332C69.3364 118.32 68.622 117.83 68.3215 117.09C68.0211 116.351 68.2024 115.505 68.7694 114.946C69.3421 114.382 70.1983 114.218 70.9354 114.529C71.6725 114.833 72.1544 115.556 72.1544 116.351C72.1601 116.882 71.9503 117.395 71.5704 117.767C71.1905 118.14 70.6745 118.343 70.1416 118.332ZM106.209 21.9165C105.182 21.8262 104.389 20.9742 104.389 19.9473C104.389 18.9148 105.182 18.0628 106.209 17.9725H127.404C128.43 18.0628 129.224 18.9148 129.224 19.9473C129.224 20.9742 128.43 21.8262 127.404 21.9165H106.209Z" fill="#663366"/>
</svg>
