<svg width="150" height="150" viewBox="0 0 150 150" fill="none" xmlns="http://www.w3.org/2000/svg">
<g clip-path="url(#clip0_618_139)">
<path d="M110.186 73.4443L102.885 80.7967L110.288 88.1484L117.589 80.8469L110.186 73.4443Z" fill="#663366"/>
<path d="M22.8733 69.5253C21.8091 69.477 20.024 69.4287 19.0562 69.3321C18.0995 69.2368 16.9115 69.3997 15.7688 69.5265C13.5745 69.7907 11.7691 70.4572 10.3425 71.5257C8.91472 72.5953 8.15024 73.847 8.05007 75.2874C7.99785 76.0558 8.20657 76.9753 8.57607 77.7366C8.9997 78.6103 9.7882 79.409 11.1678 80.3426C12.5675 81.2901 13.6311 81.7901 14.2262 82.3229C14.594 82.8414 15.2474 83.6343 15.194 84.1586C15.1655 84.9657 14.5825 85.6748 13.9367 86.1878C13.2903 86.7009 11.8505 87.0053 10.7498 87.1046C9.88338 87.1761 8.9717 87.1023 8.17816 86.9558C7.41532 86.815 6.64352 86.767 5.91962 86.5737L5 90.0514C5.67819 90.2445 6.2545 90.2978 7.4149 90.3409C8.72031 90.3893 9.53304 90.3581 10.8348 90.2587C13.487 90.0162 16.063 89.6807 17.7534 88.4564C19.4421 87.2335 20.865 85.7199 20.8439 84.0127C20.8276 82.7077 20.3936 81.9332 19.927 81.2596C19.362 80.4433 17.8018 79.2789 16.3032 78.362C14.9573 77.5388 14.2407 76.9098 13.8881 76.478C13.5369 76.0476 13.3093 75.2237 13.4539 74.6419C13.4817 74.0281 13.9846 73.5804 14.3225 73.3391C14.8676 72.9498 15.695 72.5644 16.5444 72.468C17.1078 72.4102 18.0952 72.2429 18.67 72.3715C19.2461 72.5007 21.3407 72.6378 21.9535 72.9532L22.873 69.5224" fill="#663366"/>
<path d="M41.9561 74.447C41.9136 75.5291 41.2416 76.4406 39.9409 77.1816C38.6397 77.9227 36.9664 78.3552 34.9205 78.4801C34.6568 78.5938 34.1824 78.6515 33.4972 78.6532C32.8124 78.655 32.179 78.6515 31.5981 78.643C31.9063 77.6764 32.279 76.8396 32.7156 76.1325C33.1523 75.4256 33.708 74.7823 34.3829 74.2028C35.1208 73.5475 35.9046 73.045 36.7341 72.6954C37.5639 72.3457 38.4088 72.1691 39.2689 72.1657C40.0863 72.1769 40.7358 72.3889 41.2171 72.8024C41.6988 73.2159 41.9451 73.764 41.9561 74.4472V74.447ZM47.2239 74.121C47.2006 72.6371 46.5765 71.4636 45.3518 70.6011C44.1271 69.7384 42.4416 69.2979 40.2949 69.2792C38.2741 69.2912 36.3425 69.6536 34.4993 70.3672C32.6556 71.0792 31.0052 72.0729 29.548 73.3461C28.1165 74.6104 27.1779 76.0845 26.3556 77.7259C25.5353 79.3674 25.1212 80.8942 25.1055 82.6476C25.1096 83.8607 25.1414 85.1285 25.5844 86.1525C26.0277 87.1766 26.666 88.0396 27.4993 88.7423C28.2281 89.3713 29.1247 89.841 30.1892 90.1502C31.2536 90.4592 32.602 90.7585 34.0402 90.7577C35.7187 90.7646 36.9877 90.4878 38.9623 90.1684C40.7502 89.8787 42.1082 89.6452 43.3145 89.3075L43.2662 85.8796C41.8406 86.5192 40.0234 86.689 39.0674 86.9319C38.1117 87.1745 37.1528 87.2903 36.1909 87.278C34.5022 87.2713 32.6341 87.0311 31.7701 86.1689C30.9056 85.3068 30.7934 84.2838 30.7903 82.6476C30.7948 82.2713 31.0606 81.3712 31.0606 81.3712C31.2061 81.3761 31.4893 81.3865 31.9095 81.4018C32.3299 81.4169 32.6008 81.4069 32.7219 81.3712C37.1739 81.3339 40.6902 80.6548 43.2712 79.3343C45.8519 78.0139 47.1697 76.2758 47.2241 74.12" fill="#663366"/>
<path d="M66.4933 74.3909C66.4507 75.4731 65.7787 76.3847 64.478 77.1255C63.177 77.8664 61.5035 78.2993 59.4578 78.424C59.1941 78.538 58.7195 78.5956 58.0343 78.597C57.3495 78.599 56.7161 78.5956 56.135 78.5869C56.4432 77.6202 56.8161 76.7835 57.2529 76.0766C57.6894 75.3696 58.2453 74.7261 58.9202 74.1467C59.6581 73.4913 60.4419 72.9888 61.2715 72.6391C62.1012 72.2894 62.9461 72.1129 63.806 72.1095C64.6234 72.1206 65.2729 72.3327 65.7544 72.7461C66.2359 73.1596 66.4822 73.7077 66.4933 74.3909V74.3909ZM71.7612 74.0651C71.7379 72.581 71.1138 71.4078 69.8891 70.5449C68.6644 69.6823 66.9787 69.242 64.832 69.2232C62.8115 69.2352 60.8796 69.5977 59.0364 70.3111C57.1931 71.0245 55.5429 72.0178 54.0853 73.2911C52.6544 74.5557 51.7152 76.0296 50.8939 77.6713C50.0728 79.3127 49.6587 80.8393 49.6426 82.5928C49.6465 83.8055 49.6785 85.0736 50.1215 86.0976C50.5646 87.1215 51.2031 87.9848 52.0362 88.6874C52.7648 89.3169 53.6614 89.7859 54.726 90.0951C55.7907 90.4046 57.1389 90.7035 58.5771 90.703C60.2554 90.7097 61.5246 90.4328 63.4994 90.1132C65.2873 89.8235 66.6453 89.5905 67.8513 89.2527L67.8031 85.8245C66.3777 86.4645 64.5603 86.6345 63.6043 86.877C62.6488 87.12 61.6899 87.2353 60.7278 87.2235C59.0391 87.2166 57.171 86.9762 56.3068 86.1139C55.4427 85.2518 55.3303 84.2292 55.3274 82.5928C55.3317 82.2166 55.5975 81.3165 55.5975 81.3165C55.7432 81.3216 56.026 81.3319 56.4466 81.3472C56.867 81.3624 57.1377 81.3523 57.2588 81.3165C61.7108 81.279 65.2273 80.6001 67.8081 79.2796C70.389 77.959 71.7066 76.2207 71.7612 74.0651Z" fill="#663366"/>
<path d="M97.7422 73.4677C97.7252 72.1502 97.2378 71.115 96.2801 70.3613C95.3225 69.6077 93.9951 69.2234 92.2976 69.209C90.4705 69.1958 88.8512 69.5736 87.1978 70.4648C85.3983 71.4346 82.0632 74.853 80.4965 76.7221C80.4965 76.7221 82.7667 72.6157 85.5689 60.0193C85.5677 59.9617 79.977 60.0193 79.977 60.0193L72.7285 90.2908H78.2731L79.9616 83.335C80.2923 81.8289 81.4961 80.0142 82.0872 78.8909C82.5697 77.9742 83.673 76.6438 84.454 75.8002C85.2201 74.9456 86.0327 74.2863 86.917 73.8195C87.802 73.3527 88.3555 72.9303 89.2639 72.9241C90.0562 72.931 90.6866 73.1347 91.1535 73.535C91.6202 73.9351 91.8592 74.4908 91.8705 75.2017C91.8772 75.4698 91.8515 75.7718 91.7932 76.1073C91.735 76.4429 91.6027 77.0656 91.3962 77.9758L88.7422 90.4336H94.3319L97.2194 76.8993C97.4275 75.897 97.5677 75.1584 97.6398 74.684C97.712 74.2095 97.7453 73.8023 97.7404 73.4625" fill="#663366"/>
<path d="M123.865 69.6976L126.576 69.8658L126.047 72.1212L123.865 69.6976ZM117.421 69.2973L119.759 69.4426L125.246 75.5364L124.79 77.4809L117.421 69.2975V69.2973ZM112.612 69.8899C113.23 69.7394 113.828 69.6266 114.378 69.5416L124.115 80.3563L123.686 82.1879L112.612 69.8898V69.8899ZM121.794 90.251H116.286L118.894 82.7647C118.894 82.7647 117.785 84.5015 116.723 85.855C115.658 87.2071 112.807 90.3939 107.254 90.587C101.7 90.7801 101.359 86.8182 101.649 82.0365C101.938 77.2544 104.549 74.5022 108.025 71.8938C108.891 71.2442 109.898 70.7562 110.923 70.3898C110.948 70.4263 110.974 70.4618 111.005 70.4955L123.239 84.0822L121.792 90.2493L121.794 90.251ZM110.2 73.7781L103.245 80.7822L110.297 87.7862L117.253 80.8302L110.201 73.7781" fill="#663366"/>
<path d="M145.087 69.5273C144.023 69.4792 142.238 69.4309 141.27 69.3347C140.313 69.239 139.125 69.4019 137.982 69.5285C135.788 69.7947 133.983 70.461 132.557 71.5293C131.128 72.599 130.364 73.8504 130.264 75.291C130.212 76.0591 130.42 76.9787 130.79 77.74C131.214 78.6134 132.002 79.4121 133.382 80.346C134.782 81.2934 135.845 81.7933 136.44 82.3263C136.808 82.845 137.461 83.6378 137.408 84.1621C137.379 84.9689 136.796 85.6785 136.15 86.1911C135.504 86.7045 134.064 87.0086 132.964 87.108C132.097 87.1798 131.185 87.106 130.392 86.9593C129.629 86.8185 128.857 86.7702 128.134 86.5771L127.215 90.0592C127.893 90.2522 128.469 90.3058 129.63 90.3488C130.935 90.397 131.748 90.366 133.05 90.2663C135.702 90.0239 138.278 89.6885 139.968 88.4644C141.657 87.241 143.08 85.7276 143.059 84.02C143.043 82.7156 142.608 81.9407 142.142 81.2674C141.577 80.4512 140.017 79.2867 138.518 78.3702C137.172 77.5467 136.456 76.9176 136.103 76.4857C135.752 76.0552 135.524 75.2312 135.668 74.6495C135.696 74.0357 136.2 73.5881 136.537 73.347C137.082 72.9574 137.91 72.5723 138.76 72.4758C139.323 72.4178 140.31 72.2506 140.885 72.3792C141.461 72.5083 143.556 72.6454 144.168 72.961L145.088 69.5298" fill="#663366"/>
</g>
<defs>
<clipPath id="clip0_618_139">
<rect width="140" height="30.7606" fill="white" transform="translate(5 60)"/>
</clipPath>
</defs>
</svg>
