<svg width="150" height="150" viewBox="0 0 150 150" fill="none" xmlns="http://www.w3.org/2000/svg">
<path d="M141.1 124.029H133.123V52.7475C133.123 48.8085 129.913 45.5989 125.968 45.5989H101.401L97.9982 42.1959C96.8105 41.0081 95.0039 40.7153 93.4958 41.4777L89.7447 43.3947C87.5847 42.1572 85.2699 41.196 82.8392 40.5276L82.6292 39.8812C82.6292 39.8757 82.6237 39.8757 82.6237 39.8702L82.7287 39.6823H93.2252C96.5951 39.6823 99.3407 36.9367 99.3407 33.5668L99.3463 12.1266C99.3463 8.75117 96.6006 6.00552 93.2307 6.00552L56.7583 6C53.3884 6 50.6428 8.74565 50.6428 12.1211V33.5669C50.6428 36.9368 53.3884 39.6825 56.7583 39.6825H67.2548L67.3598 39.8648L67.1443 40.5222C64.7247 41.1851 62.3988 42.1518 60.2388 43.3893L56.4822 41.4723C54.9851 40.7154 53.1787 41.0082 51.9908 42.196L48.5878 45.599H24.0207C20.0762 45.599 16.8665 48.8031 16.8665 52.7477V124.029H8.88922C6.74576 124.029 5 125.775 5 127.918V134.227C5 139.851 9.57429 144.431 15.2036 144.431H134.796C140.42 144.431 145 139.857 145 134.227V127.918C144.994 125.775 143.249 124.029 141.1 124.029ZM46.2722 61.3986L42.2946 62.6968C40.6815 63.2051 39.5987 64.6855 39.5987 66.3872V72.1161C39.5987 73.8121 40.6815 75.2982 42.278 75.8009L46.2777 77.1047C46.9406 79.5244 47.9073 81.8503 49.1448 84.0103L47.2278 87.7668C46.4709 89.264 46.7637 91.0704 47.9515 92.2582L51.9954 96.3022C53.1942 97.501 55.0063 97.7828 56.4924 97.0148L60.2434 95.1033C62.4034 96.3408 64.7183 97.3021 67.149 97.9705L68.4472 101.948C68.9555 103.561 70.4359 104.65 72.1376 104.65H77.8665C79.5625 104.65 81.0486 103.567 81.5513 101.97L82.8551 97.9706C85.2748 97.3077 87.6007 96.3409 89.7607 95.1035L93.5007 97.0039C95.0033 97.7829 96.8154 97.4956 98.0142 96.2968L102.058 92.2529C103.257 91.0541 103.539 89.2421 102.771 87.7559L100.859 84.0049C102.097 81.8449 103.058 79.53 103.726 77.0993L107.704 75.8011C109.317 75.2929 110.4 73.8124 110.4 72.1107V66.3818C110.4 64.6859 109.317 63.1997 107.721 62.697L103.721 61.3932C103.599 60.9568 103.467 60.5259 103.329 60.0949H118.83C119.438 60.0949 119.957 60.6087 119.957 61.2219V111.704C119.957 112.312 119.444 112.831 118.83 112.831L31.1631 112.825C30.5554 112.825 30.0361 112.312 30.0361 111.698L30.0416 61.2221C30.0416 60.6144 30.5554 60.0951 31.1686 60.0951H46.6704C46.5267 60.526 46.3937 60.9621 46.2722 61.3986ZM56.7576 35.3182C55.7964 35.3182 55.0119 34.5337 55.0119 33.5724V12.1265C55.0119 11.1763 55.8129 10.3753 56.7576 10.3753H93.2244C94.1691 10.3753 94.9701 11.1763 94.9701 12.1265V33.5724C94.9701 34.5337 94.1857 35.3182 93.2244 35.3182H82.7058C81.1423 35.3182 79.7391 36.1303 78.9548 37.4893L74.9937 44.3452L71.0271 37.4838C70.2426 36.1248 68.8394 35.3183 67.2761 35.3183L56.7575 35.3128L56.7576 35.3182ZM54.8296 45.5385L58.5089 47.4167C59.7022 48.0134 61.0447 47.9747 62.2103 47.3007C64.1825 46.1516 66.3039 45.2677 68.5027 44.6876C68.9778 44.5661 69.4142 44.3617 69.7954 44.0854L71.2483 46.5935C72.0327 47.947 73.4305 48.7535 74.9938 48.7535C76.5571 48.7535 77.9605 47.9469 78.7448 46.5935L80.1922 44.0854C80.5734 44.3561 80.9988 44.5605 81.4683 44.6821C83.6836 45.2677 85.8105 46.1516 87.7884 47.3062C88.943 47.9692 90.2854 48.0078 91.4953 47.4057L95.158 45.5329L98.6991 49.0741L96.8374 52.7367C96.2242 53.9245 96.2629 55.278 96.9424 56.4602C98.0914 58.4269 98.9754 60.5538 99.5555 62.7525C99.887 64.0453 100.843 65.0617 102.102 65.4651L106.019 66.7412V71.7409L102.119 73.0116C100.843 73.4149 99.887 74.4313 99.5555 75.7131C98.9699 77.9284 98.0859 80.0553 96.9313 82.0331C96.2573 83.1988 96.2242 84.5522 96.8319 85.7345L98.6991 89.4084L95.1635 92.944L91.5008 91.0823C90.3131 90.4691 88.9595 90.5078 87.7774 91.1873C85.8052 92.3364 83.6838 93.2203 81.485 93.8004C80.1812 94.1319 79.1648 95.0931 78.7725 96.3472L77.4963 100.264H72.4966L71.226 96.3637C70.8227 95.0876 69.8062 94.1319 68.5245 93.8004C66.3092 93.2148 64.1823 92.3308 62.2044 91.1762C61.0332 90.5022 59.6853 90.4691 58.503 91.0768L54.8292 92.944L51.288 89.4029L53.1553 85.7457C53.7685 84.558 53.7298 83.2044 53.0558 82.0223C51.9068 80.0501 51.0228 77.9287 50.4427 75.7299C50.1112 74.4262 49.15 73.4097 47.8959 73.0174L43.9791 71.7412V66.7415L47.8849 65.4709C49.1555 65.0676 50.1112 64.0511 50.4427 62.7694C51.0283 60.5541 51.9123 58.4272 53.0669 56.4493C53.7409 55.2782 53.774 53.9303 53.1663 52.7424L51.2935 49.0798L54.8296 45.5385ZM21.2352 52.7479C21.2352 51.2177 22.4837 49.9747 24.0196 49.9747H46.9349C47.0067 50.2344 47.1006 50.494 47.2222 50.7426L49.1392 54.4937C48.9072 54.897 48.6917 55.3113 48.4763 55.7256H31.1629C28.13 55.7256 25.6661 58.1895 25.6661 61.2224V111.704C25.6661 114.737 28.13 117.201 31.1629 117.201H118.824C121.857 117.201 124.321 114.737 124.321 111.704V61.2224C124.321 58.1895 121.857 55.7256 118.824 55.7256H101.511C101.301 55.3113 101.08 54.8969 100.848 54.4937L102.749 50.7537C102.881 50.4995 102.975 50.2399 103.047 49.9747H125.968C127.504 49.9747 128.752 51.2177 128.752 52.7479V124.03H103.478C103.362 124.013 103.246 123.996 103.124 123.996C103.003 123.996 102.887 124.007 102.771 124.03H47.2116C47.0956 124.013 46.9796 123.996 46.858 123.996C46.7365 123.996 46.6205 124.007 46.5045 124.03H21.2302L21.2352 52.7479ZM49.0453 128.4H100.942V129.25C100.942 129.714 100.549 130.112 100.091 130.112H49.9015C49.4375 130.112 49.0507 129.72 49.0507 129.25L49.0453 128.4ZM140.619 134.228C140.619 137.443 138.006 140.056 134.79 140.056L15.1976 140.062C11.9824 140.062 9.36928 137.449 9.36928 134.233V128.405H44.6763V129.256C44.6763 132.14 47.0186 134.488 49.9024 134.488H100.092C102.97 134.488 105.318 132.14 105.318 129.256V128.405H140.625L140.619 134.228ZM74.9885 87.5898C85.1037 87.5898 93.3357 79.3584 93.3357 69.2426C93.3357 59.1329 85.1043 50.9011 74.9885 50.9011C64.8788 50.9011 56.6469 59.127 56.6469 69.2426C56.6524 79.3578 64.8783 87.5898 74.9885 87.5898ZM74.9885 55.2768C82.6951 55.2768 88.9653 61.5415 88.9653 69.2426C88.9653 76.9492 82.6951 83.2195 74.9885 83.2195C67.2874 83.2195 61.0226 76.9492 61.0226 69.2426C61.0226 61.5415 67.2874 55.2768 74.9885 55.2768ZM70.7843 30.0959L74.9773 14.4555C75.2922 13.2899 76.491 12.5993 77.6566 12.9086C78.8223 13.2235 79.5128 14.4223 79.2035 15.5879L75.0105 31.2283C74.7509 32.2061 73.867 32.8469 72.9002 32.8469C72.7123 32.8469 72.5245 32.8248 72.3312 32.7695C71.1655 32.4602 70.475 31.2615 70.7843 30.0959ZM68.7623 19.9917L65.9117 22.8423L68.7623 25.6928C69.6186 26.5491 69.6186 27.9302 68.7623 28.7865C68.3369 29.2119 67.779 29.4274 67.2154 29.4274C66.6574 29.4274 66.0995 29.2119 65.6685 28.7865L61.271 24.389C60.4147 23.5327 60.4147 22.1517 61.271 21.2953L65.6685 16.8978C66.5192 16.0415 67.9058 16.0415 68.7622 16.8978C69.6129 17.7541 69.6131 19.1408 68.7623 19.9917ZM81.2255 25.6928L84.0761 22.8423L81.2255 19.9917C80.3692 19.1354 80.3692 17.7543 81.2255 16.898C82.0763 16.0417 83.4629 16.0417 84.3192 16.898L88.7167 21.2955C89.573 22.1518 89.573 23.5328 88.7167 24.3892L84.3192 28.7867C83.8938 29.2121 83.3358 29.4275 82.7723 29.4275C82.2143 29.4275 81.6563 29.2121 81.2254 28.7867C80.3746 27.9304 80.3747 26.5437 81.2255 25.6928Z" fill="#663366"/>
</svg>
