<svg width="150" height="150" viewBox="0 0 150 150" fill="none" xmlns="http://www.w3.org/2000/svg">
<g clip-path="url(#clip0_618_134)">
<path d="M16.8462 64.5395L5 72.2493L6.90909 77.8297L13.5664 76.6304L7.79021 80.3996L9.72378 86.029L15.4021 85.2947L27.028 77.6584L25.0944 72.029L19.049 73.2038L24.2378 69.5325L22.3287 63.9766L16.8462 64.5395Z" fill="#663366"/>
<path d="M41.4688 86.0292C46.3639 86.0292 49.3009 84.9523 49.3009 81.6236C49.3009 78.197 46.3639 77.7075 41.8604 77.3648L41.1016 77.3159C38.1156 77.1201 37.6261 76.8509 37.6261 76.1655C37.6261 75.6026 38.1891 75.2355 40.5387 75.2355C43.0352 75.2355 44.2345 75.6026 44.2345 76.6306H48.738C48.5912 73.669 45.7765 72.0781 40.5632 72.0781C36.0107 72.0781 33.0981 73.4488 33.0981 76.1655C33.0981 79.0047 35.3499 80.2529 40.4408 80.5711L41.0772 80.6201C44.2835 80.8159 44.7974 80.9872 44.7974 81.7949C44.7974 82.5047 44.2345 82.8963 41.2974 82.8963C38.4093 82.8963 37.4058 82.2599 37.4058 81.2809H32.9023C33.0737 84.7564 36.1331 86.0292 41.4688 86.0292Z" fill="#663366"/>
<path d="M51.0137 85.541H55.3458V82.7753L58.3563 80.3032L62.3703 85.541H67.657L61.4158 77.6354L67.657 72.3242H61.2689L55.3458 77.562V72.3242H51.0137V85.541Z" fill="#663366"/>
<path d="M76.2722 86.0292C81.2163 86.0292 84.6918 83.7529 85.0345 80.3264H80.3841C80.1639 81.4767 78.5729 82.3823 76.2722 82.3823C73.6534 82.3823 71.9646 81.0362 71.9646 79.0292C71.9646 77.0711 73.6534 75.725 76.2722 75.725C78.5729 75.725 80.1639 76.6061 80.3841 77.7564H85.0345C84.6918 74.3543 81.2163 72.0781 76.2722 72.0781C70.9121 72.0781 67.4121 74.8194 67.4121 79.0292C67.4121 83.239 70.9121 86.0292 76.2722 86.0292Z" fill="#663366"/>
<path d="M86.748 85.541H91.0557V81.7962H97.0522C98.2271 81.7962 98.5697 82.1389 98.5697 83.3382V85.541H102.877V82.6284C102.877 81.013 101.825 80.034 100.136 79.9361C101.923 79.3976 102.902 78.1983 102.902 76.3872C102.902 73.6948 101.115 72.3242 97.4928 72.3242H86.748V85.541ZM91.0557 78.3452V75.7753H96.4404C97.5907 75.7753 98.3984 75.9711 98.3984 77.048C98.3984 78.1249 97.6152 78.3452 96.4404 78.3452H91.0557Z" fill="#663366"/>
<path d="M105.105 85.541H109.511V72.3242H105.105V85.541Z" fill="#663366"/>
<path d="M111.959 85.541H116.291V82.2613H122.312C125.665 82.2613 127.623 80.4011 127.623 77.2928C127.623 74.1599 125.665 72.3242 122.312 72.3242H111.959V85.541ZM116.291 78.6389V75.9711H121.284C122.508 75.9711 123.12 76.2158 123.12 77.2928C123.12 78.3697 122.532 78.6389 121.284 78.6389H116.291Z" fill="#663366"/>
<path d="M129.336 75.9711H135.014V85.541H139.322V75.9711H145V72.3242H129.336V75.9711Z" fill="#663366"/>
</g>
<defs>
<clipPath id="clip0_618_134">
<rect width="140" height="22.028" fill="white" transform="translate(5 64)"/>
</clipPath>
</defs>
</svg>
