<svg width="150" height="150" viewBox="0 0 150 150" fill="none" xmlns="http://www.w3.org/2000/svg">
<path d="M61.772 11.1284C61.772 9.62388 64.0429 9.62388 64.0429 11.1284V17.5721C64.0429 19.0766 61.772 19.0766 61.772 17.5721V11.1284ZM33.0732 64.7505C31.7958 65.4885 30.6604 63.5299 31.9378 62.7918L37.5299 59.5558C38.8073 58.8177 39.9428 60.7764 38.6654 61.5144L33.0732 64.7505ZM27.8217 47.3496C26.3172 47.3496 26.3172 45.0786 27.8217 45.0786H34.2939C35.7983 45.0786 35.7983 47.3496 34.2939 47.3496H27.8217ZM98.0216 45.0786C99.4977 45.0786 99.4977 47.3496 98.0216 47.3496H91.5494C90.045 47.3496 90.045 45.0786 91.5494 45.0786H98.0216ZM93.8771 62.7918C95.1829 63.5299 94.0475 65.4885 92.7417 64.7505L87.1495 61.5144C85.8438 60.7764 86.9792 58.8177 88.285 59.5558L93.8771 62.7918ZM31.9662 29.6364C30.6604 28.8983 31.7958 26.9397 33.1016 27.6777L38.6938 30.9138C39.9712 31.6518 38.8641 33.6105 37.5583 32.8724L31.9662 29.6364ZM44.3995 16.3799C43.6614 15.0741 45.6201 13.9386 46.3581 15.2444L49.5942 20.8366C50.3322 22.1423 48.3736 23.2778 47.6355 21.972L44.3995 16.3799ZM92.7417 27.6777C94.0475 26.9397 95.1545 28.8983 93.8771 29.6364L88.285 32.8724C86.9792 33.6105 85.8721 31.6518 87.1495 30.9138L92.7417 27.6777ZM79.4852 15.2444C80.2232 13.967 82.1819 15.0741 81.4439 16.3799L78.2078 21.972C77.4697 23.2778 75.5111 22.1423 76.2491 20.8366L79.4852 15.2444ZM25.0966 87.9706H29.6952C32.4203 87.9706 34.8332 89.5319 36.0254 91.8596C36.139 91.8596 36.2525 91.8312 36.3661 91.8312H46.8975C47.0394 91.8312 47.1813 91.8596 47.2949 91.9164C50.02 92.6544 51.4109 94.1873 52.8586 95.7486C55.4702 98.6156 57.2018 99.7511 62.7939 99.524C65.4906 99.4104 68.6415 99.524 71.1396 101.312C72.9279 102.59 74.3472 104.747 74.3756 108.494L109.206 101.199C112.414 100.517 115.678 102.05 116.87 105.173C117.58 107.018 118.148 108.324 117.637 110.368C117.324 111.588 116.643 112.752 115.65 113.66C115.593 113.717 115.508 113.774 115.451 113.802L71.0828 138.385C67.1087 140.571 62.5952 140.542 58.6495 138.272L34.8616 124.532C33.5558 125.923 31.7107 126.775 29.6952 126.775H25.0966C21.1793 126.775 18 123.567 18 119.678V95.0673C18 91.1499 21.1793 87.9706 25.0966 87.9706ZM36.7351 94.1021C36.7635 94.4144 36.7919 94.7266 36.7919 95.0389V119.622C36.7919 120.672 36.5648 121.694 36.139 122.602L59.7849 136.256C63.0494 138.13 66.7113 138.158 69.9757 136.341L114.23 111.815C114.855 111.248 115.252 110.538 115.451 109.771C115.82 108.295 115.281 107.273 114.77 105.911C114.003 103.839 111.817 102.902 109.688 103.356L74.2337 110.793C72.786 117.805 66.2571 117.351 59.5295 116.84C57.9114 116.726 56.265 116.584 54.7038 116.584C53.1993 116.584 53.1993 114.313 54.7038 114.313C56.3218 114.313 57.9966 114.455 59.6714 114.569C65.5474 114.995 71.2531 115.42 72.1047 109.743V108.522C72.1047 103.526 69.2944 102.136 65.519 101.738C64.2416 101.596 62.5384 101.766 61.2327 101.766C55.3567 101.766 53.2561 99.4672 51.1838 97.2247C49.9916 95.9189 48.8278 94.6415 46.7839 94.0737H36.7351V94.1021ZM29.6669 90.2416H25.0966C22.4283 90.2416 20.2709 92.4273 20.2709 95.0673V119.65C20.2709 122.318 22.4567 124.476 25.0966 124.476H29.6952C32.3636 124.476 34.521 122.29 34.521 119.65V95.0673C34.521 92.3989 32.3352 90.2416 29.6669 90.2416ZM107.957 69.122C108.95 68.0149 110.654 69.491 109.66 70.6265L104.976 75.9632L113.01 78.8018C113.748 79.0573 114.032 80.0224 113.464 80.6469L105.374 89.9861C104.409 91.1216 102.677 89.6455 103.67 88.51L110.682 80.3915L102.677 77.5528C101.854 77.2689 101.627 76.3038 102.166 75.7077L107.957 69.122ZM113.776 57.8526L131.149 87.9139C133.817 92.5409 130.467 98.2466 125.187 98.2466H90.4424C89.2218 98.2466 88.0011 97.9343 87.0076 97.3382C85.9857 96.7421 85.1341 95.8905 84.5096 94.7834C83.2322 92.5977 83.2322 90.0713 84.5096 87.8855L101.882 57.8242C103.841 54.4178 108.184 53.4527 111.278 55.2978C112.3 55.9223 113.152 56.7739 113.776 57.8526ZM129.19 89.0493L111.846 58.988C111.392 58.25 110.881 57.6822 110.171 57.2848C108.07 56.0642 105.147 56.6887 103.841 58.988L86.4967 89.0493C85.6451 90.5254 85.6451 92.2002 86.4967 93.648C86.9508 94.386 87.4902 94.9537 88.1998 95.3511C88.8811 95.7486 89.6759 95.9473 90.5275 95.9473H125.244C128.963 95.9756 130.893 91.8596 129.19 89.0493ZM64.3836 39.5433C65.2068 38.3226 67.1087 39.5716 66.2571 40.8207L61.034 48.485L66.9667 48.0876C67.8751 48.0308 68.5564 49.0244 67.9603 49.876L61.8572 59.2435C61.034 60.4925 59.1604 59.2435 59.9553 57.9945L64.8661 50.5005L58.8766 50.9263C57.9398 50.983 57.3437 49.9327 57.883 49.1663L64.3836 39.5433ZM69.6351 88.9074L68.159 94.6983C68.017 95.2092 67.5629 95.5499 67.0519 95.5499H58.763C58.2237 95.5499 57.7695 95.1524 57.656 94.6699L56.1799 88.9074H52.1206C49.9348 88.9074 48.1749 87.1474 48.1749 84.9617C48.1749 83.4288 48.0613 82.265 49.2536 81.016C48.0613 79.767 48.1749 78.5747 48.1749 77.0702C48.1749 75.4238 49.1968 73.9761 50.7013 73.38L47.9762 66.6524C45.1375 64.4098 42.8098 61.5712 41.1918 58.3067C36.5648 48.9676 38.4667 37.7833 45.7904 30.488C55.2431 21.0353 70.5718 21.0353 80.0245 30.488C87.3199 37.7833 89.2218 48.9676 84.6231 58.3067C83.0051 61.5712 80.6774 64.4098 77.8388 66.6524L75.1137 73.38C76.6181 73.9477 77.6401 75.3954 77.6401 77.0702C77.6401 78.5747 77.7536 79.767 76.5614 81.016C77.7536 82.265 77.6401 83.4288 77.6401 84.9617C77.6401 87.1474 75.8517 88.9074 73.6943 88.9074H69.6351ZM58.5359 88.9074L59.643 93.2789H66.1719L67.279 88.9074H58.5359ZM52.1206 79.767H73.7227C73.9498 79.767 74.1769 79.7953 74.3756 79.8237C74.6595 79.7953 75.3975 79.1424 75.3975 78.2909C75.3975 77.3257 75.5395 76.5025 74.8866 75.878C74.4892 75.4806 74.0917 75.3954 73.5524 75.3954H52.1206C51.2122 75.3954 50.4458 76.1619 50.4458 77.0702C50.4458 78.0354 50.3039 78.8302 50.9284 79.4831C51.0703 79.625 51.2406 79.7386 51.4393 79.8237C51.6664 79.7953 51.8935 79.767 52.1206 79.767ZM51.4677 82.1798C50.2755 82.6908 50.4742 83.883 50.4742 84.9617C50.4742 85.87 51.2406 86.6365 52.149 86.6365H73.7511C74.6595 86.6365 75.4259 85.87 75.4259 84.9617C75.4259 83.9965 75.5679 83.1733 74.915 82.5488C74.773 82.4069 74.6027 82.265 74.404 82.2082C74.1769 82.2366 73.9782 82.265 73.7511 82.265H52.149C51.8935 82.2366 51.6664 82.2366 51.4677 82.1798ZM78.4065 32.106C69.8622 23.5333 55.9812 23.5333 47.4084 32.106C38.0125 41.5019 39.0912 57.001 49.6226 65.0627C49.7645 65.1763 49.9064 65.3466 49.9916 65.5453L53.0573 73.1245H72.8144L75.8517 65.5737C75.9369 65.375 76.0504 65.2047 76.2207 65.0627C86.7521 57.001 87.8308 41.5019 78.4065 32.106Z" fill="#663366"/>
</svg>
