<svg width="150" height="150" viewBox="0 0 150 150" fill="none" xmlns="http://www.w3.org/2000/svg">
<path d="M66.665 28.7012C72.0026 27.5507 77.5308 27.6119 82.8418 28.8789C88.1524 30.1459 93.1114 32.5868 97.3545 36.0225C101.195 39.1169 104.36 42.9657 106.655 47.3311C108.95 51.6963 110.326 56.4857 110.697 61.4033C111.069 66.3211 110.429 71.2631 108.816 75.9238C107.204 80.5845 104.653 84.8655 101.321 88.502L101.318 88.5049C96.1525 94.0287 93.4483 100.463 93.4482 107.144V109.195C93.4482 109.621 93.2789 110.031 92.9775 110.332C92.6763 110.633 92.2678 110.803 91.8418 110.803H57.1787C56.7528 110.803 56.3442 110.633 56.043 110.332C55.7416 110.031 55.5723 109.621 55.5723 109.195C55.5723 108.769 55.7417 108.361 56.043 108.06C56.3443 107.758 56.7526 107.589 57.1787 107.589H90.2344V107.144C90.2344 99.6676 93.2631 92.4535 98.9443 86.2236L98.9453 86.2227C101.978 82.914 104.3 79.0189 105.77 74.7783C107.239 70.5377 107.823 66.0409 107.488 61.5654C107.153 57.0899 105.905 52.7304 103.82 48.7559C101.736 44.7813 98.8595 41.2753 95.3682 38.4551C91.4931 35.3357 86.9695 33.1218 82.1289 31.9746C77.2883 30.8274 72.2526 30.7766 67.3896 31.8252V31.8242C61.7248 33.0575 56.4855 35.7641 52.2012 39.6699C47.9169 43.5758 44.7397 48.5434 42.9893 54.0703C41.2389 59.5973 40.9777 65.4883 42.2324 71.1484C43.4869 76.807 46.2115 82.0349 50.1318 86.3037C53.34 89.716 55.7851 93.7726 57.3037 98.2031L57.3057 98.207C57.3721 98.4075 57.3981 98.6195 57.3828 98.8301C57.3675 99.0406 57.3105 99.2459 57.2158 99.4346C57.1211 99.6233 56.9898 99.7916 56.8301 99.9297C56.6705 100.068 56.4854 100.173 56.2852 100.239C56.0847 100.306 55.8727 100.333 55.6621 100.317C55.4516 100.302 55.2462 100.245 55.0576 100.15C54.8689 100.056 54.7006 99.9244 54.5625 99.7646C54.4252 99.6058 54.3204 99.4218 54.2539 99.2227V99.2236C52.8787 95.2321 50.6704 91.5788 47.7754 88.5059L47.7725 88.502C43.467 83.8192 40.4731 78.0836 39.0928 71.874C37.7125 65.6642 37.9938 59.1996 39.9102 53.1338C41.8265 47.068 45.3096 41.6149 50.0068 37.3252C54.704 33.0356 60.4499 30.0616 66.6641 28.7021L66.665 28.7012Z" fill="#663366" stroke="#663366" stroke-width="0.8"/>
<path d="M91.8428 107.584C92.2689 107.584 92.6781 107.753 92.9795 108.055C93.2808 108.356 93.4502 108.765 93.4502 109.191V126.524C93.4274 131.528 91.428 136.32 87.8877 139.855C84.3473 143.391 79.5524 145.384 74.5488 145.4H74.5479C69.5274 145.394 64.7141 143.397 61.1641 139.847C57.614 136.297 55.6159 131.483 55.6094 126.463V109.191C55.6094 108.765 55.7787 108.356 56.0801 108.055C56.3814 107.753 56.7906 107.584 57.2168 107.584H91.8428ZM58.7871 126.522C58.7871 130.693 60.4437 134.693 63.3926 137.642C66.3415 140.59 70.3414 142.247 74.5117 142.247C78.6821 142.247 82.682 140.59 85.6309 137.642C88.5797 134.693 90.2363 130.693 90.2363 126.522V110.798H58.7871V126.522Z" fill="#663366" stroke="#663366" stroke-width="0.8"/>
<path d="M90.1289 129.369C90.5548 129.369 90.9634 129.539 91.2646 129.84C91.566 130.141 91.7354 130.55 91.7354 130.977C91.7353 131.403 91.5659 131.811 91.2646 132.112C90.9634 132.414 90.5549 132.583 90.1289 132.583H58.8574C58.4312 132.583 58.0221 132.414 57.7207 132.112C57.4196 131.811 57.25 131.403 57.25 130.977C57.25 130.55 57.4193 130.141 57.7207 129.84C58.0221 129.538 58.4312 129.369 58.8574 129.369H90.1289Z" fill="#663366" stroke="#663366" stroke-width="0.8"/>
<path d="M91.8418 118.158C92.2679 118.158 92.6772 118.328 92.9785 118.629C93.2799 118.93 93.4492 119.339 93.4492 119.766C93.4492 120.192 93.2797 120.6 92.9785 120.901C92.6772 121.203 92.268 121.372 91.8418 121.372H57.1797C56.7535 121.372 56.3443 121.203 56.043 120.901C55.7419 120.6 55.5723 120.192 55.5723 119.766C55.5723 119.339 55.7416 118.93 56.043 118.629C56.3443 118.328 56.7535 118.158 57.1797 118.158H91.8418Z" fill="#663366" stroke="#663366" stroke-width="0.8"/>
<path d="M74.5469 4.59961C74.9728 4.59964 75.3813 4.76922 75.6826 5.07031C75.984 5.37167 76.1533 5.78085 76.1533 6.20703V20.0137C76.1533 20.4399 75.984 20.849 75.6826 21.1504C75.3813 21.4516 74.9729 21.6211 74.5469 21.6211C74.1207 21.6211 73.7115 21.4517 73.4102 21.1504C73.1089 20.849 72.9395 20.4398 72.9395 20.0137V6.20703C72.9395 5.78085 73.1088 5.37167 73.4102 5.07031C73.7115 4.76896 74.1207 4.59961 74.5469 4.59961Z" fill="#663366" stroke="#663366" stroke-width="0.8"/>
<path d="M131.863 61.8809C132.289 61.8809 132.699 62.0502 133 62.3516C133.301 62.6529 133.471 63.0621 133.471 63.4883C133.471 63.9143 133.301 64.3227 133 64.624C132.704 64.9197 132.305 65.0865 131.888 65.0928V65.0947H117.996C117.57 65.0947 117.161 64.9254 116.859 64.624C116.558 64.3227 116.389 63.9142 116.389 63.4883C116.389 63.0621 116.558 62.6529 116.859 62.3516C117.161 62.0502 117.57 61.8809 117.996 61.8809H131.863Z" fill="#663366" stroke="#663366" stroke-width="0.8"/>
<path d="M31.0986 61.8809C31.5246 61.8809 31.9331 62.0505 32.2344 62.3516C32.5357 62.6529 32.7051 63.0621 32.7051 63.4883C32.705 63.9144 32.5357 64.3227 32.2344 64.624C31.933 64.9254 31.5248 65.0947 31.0986 65.0947H17.207C16.7809 65.0947 16.3717 64.9254 16.0703 64.624C15.7692 64.3227 15.5996 63.9142 15.5996 63.4883C15.5996 63.0621 15.769 62.6529 16.0703 62.3516C16.3717 62.0502 16.7809 61.8809 17.207 61.8809H31.0986Z" fill="#663366" stroke="#663366" stroke-width="0.8"/>
<path d="M115.078 21.4141C115.482 21.4297 115.866 21.5968 116.152 21.8828C116.438 22.1689 116.606 22.5527 116.622 22.957C116.638 23.3613 116.5 23.7571 116.237 24.0645L116.227 24.0762L116.216 24.0869L106.43 33.8838L106.431 33.8848C106.282 34.0366 106.104 34.1575 105.908 34.2402C105.761 34.3023 105.606 34.3421 105.448 34.3584L105.29 34.3662C104.971 34.368 104.658 34.275 104.393 34.0986C104.127 33.9222 103.919 33.6707 103.797 33.376C103.675 33.0812 103.643 32.7563 103.706 32.4434C103.769 32.1307 103.923 31.8438 104.149 31.6191L113.96 21.8086L113.972 21.7988C114.279 21.5358 114.674 21.3985 115.078 21.4141Z" fill="#663366" stroke="#663366" stroke-width="0.8"/>
<path d="M34.0039 21.3984C34.3577 21.3848 34.7051 21.488 34.9922 21.6904L35.1113 21.7832L35.123 21.793L35.1338 21.8047L44.9346 31.6045H44.9336C45.1622 31.8267 45.3197 32.1119 45.3857 32.4238C45.4522 32.7379 45.4238 33.0649 45.3027 33.3623C45.1817 33.6596 44.9738 33.9134 44.707 34.0918C44.4409 34.2696 44.1276 34.3636 43.8076 34.3623L43.8086 34.3633L43.8066 34.3623L43.8047 34.3633V34.3623C43.5948 34.363 43.3867 34.3235 43.1924 34.2441C42.9967 34.1642 42.8181 34.0463 42.668 33.8975L42.667 33.8955L32.8662 24.0713L32.8555 24.0605L32.8457 24.0488C32.5825 23.7414 32.4453 23.3458 32.4609 22.9414C32.4766 22.5371 32.6436 22.1533 32.9297 21.8672C33.2158 21.5811 33.5996 21.4141 34.0039 21.3984Z" fill="#663366" stroke="#663366" stroke-width="0.8"/>
<path d="M52.6064 8.95898C52.8177 8.95862 53.0273 9.00055 53.2227 9.08105C53.4179 9.16154 53.5955 9.27966 53.7451 9.42871C53.8574 9.54062 53.9526 9.66844 54.0273 9.80762L54.0957 9.9502V9.95117L59.4062 22.7559V22.7578C59.5062 23.0012 59.5456 23.2656 59.5195 23.5273C59.4934 23.7891 59.4028 24.0409 59.2568 24.2598C59.1109 24.4786 58.9132 24.6585 58.6816 24.7832C58.45 24.9079 58.1908 24.9733 57.9277 24.9746L57.6143 24.9766L57.5928 24.8916C57.3899 24.8494 57.196 24.7692 57.0225 24.6523C56.7595 24.4751 56.5542 24.224 56.4336 23.9307V23.9297L51.124 11.1875V11.1865C51.0429 10.9915 51.0004 10.7825 51 10.5713C50.9996 10.36 51.0415 10.1504 51.1221 9.95508C51.2026 9.75981 51.3206 9.58222 51.4697 9.43262C51.6189 9.28295 51.7961 9.16421 51.9912 9.08301C52.1862 9.00186 52.3953 8.9594 52.6064 8.95898Z" fill="#663366" stroke="#663366" stroke-width="0.8"/>
<path d="M126.905 40.0635C127.299 39.8995 127.742 39.8989 128.137 40.0615C128.531 40.2242 128.846 40.5366 129.01 40.9307C129.174 41.3246 129.174 41.7676 129.012 42.1621C128.869 42.5074 128.612 42.7915 128.286 42.9668L128.142 43.0352L115.327 48.3311C115.134 48.4133 114.927 48.4574 114.717 48.46L114.708 48.4609V48.46C114.339 48.4556 113.983 48.3246 113.699 48.0889C113.416 47.8532 113.222 47.5275 113.15 47.166C113.079 46.8043 113.133 46.4285 113.306 46.1025C113.478 45.7766 113.757 45.5195 114.097 45.375L114.101 45.374L126.905 40.0645V40.0635Z" fill="#663366" stroke="#663366" stroke-width="0.8"/>
<path d="M95.9053 9.04199C96.304 8.88703 96.7481 8.8961 97.1396 9.06836C97.5312 9.24074 97.8382 9.56216 97.9932 9.96094C98.1481 10.3597 98.1391 10.8038 97.9668 11.1953L92.6592 23.9922L92.6514 24.0117C92.5188 24.2901 92.308 24.5241 92.0459 24.6865C91.7853 24.8479 91.4842 24.931 91.1777 24.9268V24.9277L91.1758 24.9268L91.1729 24.9277V24.9268C90.9113 24.9247 90.6542 24.8593 90.4238 24.7354C90.1922 24.6106 89.9946 24.4308 89.8486 24.2119C89.7026 23.9929 89.612 23.7414 89.5859 23.4795C89.5599 23.2176 89.5992 22.9534 89.6992 22.71V22.709L95.0098 9.90332L95.085 9.75293C95.2673 9.42966 95.5564 9.17768 95.9053 9.04199Z" fill="#663366" stroke="#663366" stroke-width="0.8"/>
<path d="M21.585 39.9277C21.7962 39.9281 22.0052 39.9706 22.2002 40.0518L35.0059 45.3623L35.0088 45.3633C35.3481 45.5078 35.6274 45.7648 35.7998 46.0908C35.9722 46.4168 36.0277 46.7925 35.9561 47.1543C35.8844 47.5157 35.6905 47.8415 35.4072 48.0771C35.1683 48.2758 34.8773 48.3987 34.5713 48.4355L34.5449 48.4629L34.377 48.4609C34.1681 48.4584 33.9618 48.4145 33.7695 48.333L20.9648 43.0234H20.9639C20.7688 42.9422 20.5916 42.8225 20.4424 42.6729C20.2933 42.5232 20.1752 42.3457 20.0947 42.1504C20.0142 41.955 19.9723 41.7455 19.9727 41.5342C19.9731 41.323 20.0155 41.1139 20.0967 40.9189C20.1779 40.7239 20.2966 40.5466 20.4463 40.3975C20.5959 40.2484 20.7735 40.1303 20.9688 40.0498C21.1641 39.9693 21.3737 39.9274 21.585 39.9277Z" fill="#663366" stroke="#663366" stroke-width="0.8"/>
<path d="M79.374 42.6035C79.8002 42.6035 80.2094 42.7729 80.5107 43.0742C80.8121 43.3756 80.9814 43.7848 80.9814 44.2109V57.0869H94.2559C94.6819 57.087 95.0903 57.2564 95.3916 57.5576C95.6929 57.8589 95.8622 58.2673 95.8623 58.6934V68.5547C95.8622 68.9807 95.6929 69.3892 95.3916 69.6904C95.0903 69.9917 94.6819 70.1611 94.2559 70.1611H80.9814V83.0254L80.9775 83.1865C80.9662 83.3468 80.9314 83.505 80.873 83.6553C80.7952 83.8558 80.6772 84.0381 80.5273 84.1924C80.3775 84.3467 80.1982 84.47 80 84.5537C79.8019 84.6374 79.589 84.6808 79.374 84.6807H69.1641C68.7379 84.6807 68.3287 84.5113 68.0273 84.21C67.726 83.9086 67.5566 83.4994 67.5566 83.0732V70.1973H54.2344C53.8082 70.1973 53.399 70.0279 53.0977 69.7266C52.7966 69.4253 52.627 69.0168 52.627 68.5908V58.6934C52.6271 58.2674 52.7965 57.8588 53.0977 57.5576C53.399 57.2563 53.8082 57.0869 54.2344 57.0869H67.5566V44.2109C67.5566 43.7848 67.726 43.3756 68.0273 43.0742C68.3287 42.7729 68.7379 42.6035 69.1641 42.6035H79.374ZM70.7705 58.6934C70.7705 59.1195 70.6012 59.5287 70.2998 59.8301C69.9985 60.1313 69.5901 60.3007 69.1641 60.3008H55.8408V66.9473H69.1641C69.5901 66.9473 69.9985 67.1168 70.2998 67.418C70.6008 67.719 70.7701 68.1271 70.7705 68.5527L70.8291 81.4668H77.7676V68.5908C77.7676 68.1646 77.9369 67.7555 78.2383 67.4541C78.5395 67.1529 78.948 66.9835 79.374 66.9834H92.6484V60.3008H79.374C78.948 60.3007 78.5396 60.1313 78.2383 59.8301C77.9369 59.5287 77.7676 59.1195 77.7676 58.6934V45.8174H70.7705V58.6934Z" fill="#663366" stroke="#663366" stroke-width="0.8"/>
</svg>
