<svg width="150" height="150" viewBox="0 0 150 150" fill="none" xmlns="http://www.w3.org/2000/svg">
<path d="M18.0753 70.2344C17.9825 69.366 17.5914 68.6899 16.902 68.206C16.2192 67.7221 15.331 67.4801 14.2372 67.4801C13.4683 67.4801 12.8087 67.5961 12.2585 67.8281C11.7083 68.0601 11.2874 68.375 10.9957 68.7727C10.7041 69.1705 10.5549 69.6245 10.5483 70.1349C10.5483 70.5592 10.6444 70.9271 10.8366 71.2386C11.0355 71.5502 11.304 71.8153 11.642 72.0341C11.9801 72.2462 12.3546 72.4252 12.7656 72.571C13.1766 72.7169 13.5909 72.8395 14.0085 72.9389L15.9176 73.4162C16.6866 73.5952 17.4257 73.8371 18.1349 74.142C18.8509 74.447 19.4905 74.8314 20.054 75.2955C20.6241 75.7595 21.0748 76.3196 21.4062 76.9759C21.7377 77.6321 21.9034 78.401 21.9034 79.2827C21.9034 80.4759 21.5985 81.5265 20.9886 82.4347C20.3788 83.3362 19.4972 84.0421 18.3438 84.5526C17.197 85.0563 15.8082 85.3082 14.1776 85.3082C12.5933 85.3082 11.2178 85.063 10.0511 84.5724C8.8911 84.0819 7.98295 83.366 7.3267 82.4247C6.67708 81.4834 6.32576 80.3366 6.27273 78.9844H9.90199C9.95502 79.6937 10.1738 80.2836 10.5582 80.7543C10.9427 81.2249 11.4432 81.5762 12.0597 81.8082C12.6828 82.0402 13.3788 82.1562 14.1477 82.1562C14.9498 82.1562 15.6525 82.0369 16.2557 81.7983C16.8655 81.553 17.3428 81.215 17.6875 80.7841C18.0322 80.3466 18.2079 79.8362 18.2145 79.2528C18.2079 78.7225 18.0521 78.285 17.7472 77.9403C17.4422 77.589 17.0147 77.2973 16.4645 77.0653C15.9209 76.8267 15.2846 76.6146 14.5554 76.429L12.2386 75.8324C10.5616 75.4015 9.2358 74.7486 8.26136 73.8736C7.29356 72.992 6.80966 71.822 6.80966 70.3636C6.80966 69.1638 7.13447 68.1132 7.78409 67.2116C8.44034 66.3101 9.33191 65.6108 10.4588 65.1136C11.5857 64.6098 12.8617 64.358 14.2869 64.358C15.732 64.358 16.9981 64.6098 18.0852 65.1136C19.179 65.6108 20.0374 66.3035 20.6605 67.1918C21.2836 68.0734 21.6051 69.0876 21.625 70.2344H18.0753ZM29.4776 85L23.7305 64.6364H27.6978L31.3668 79.6009H31.5558L35.4734 64.6364H39.0827L43.0103 79.6108H43.1893L46.8583 64.6364H50.8256L45.0785 85H41.4393L37.3626 70.7116H37.2035L33.1168 85H29.4776ZM53.3835 85V64.6364H66.6278V67.7287H57.0724V73.2571H65.9418V76.3494H57.0724V81.9077H66.7074V85H53.3835ZM73.1158 64.6364L78.4155 80.6648H78.6243L83.9141 64.6364H87.9709L80.7919 85H76.2379L69.0689 64.6364H73.1158ZM90.6531 85V64.6364H103.897V67.7287H94.342V73.2571H103.211V76.3494H94.342V81.9077H103.977V85H90.6531ZM124.395 64.6364V85H121.114L111.519 71.1293H111.35V85H107.661V64.6364H110.962L120.547 78.517H120.726V64.6364H124.395ZM139.482 70.2344C139.389 69.366 138.998 68.6899 138.308 68.206C137.625 67.7221 136.737 67.4801 135.643 67.4801C134.875 67.4801 134.215 67.5961 133.665 67.8281C133.115 68.0601 132.694 68.375 132.402 68.7727C132.11 69.1705 131.961 69.6245 131.955 70.1349C131.955 70.5592 132.051 70.9271 132.243 71.2386C132.442 71.5502 132.71 71.8153 133.048 72.0341C133.386 72.2462 133.761 72.4252 134.172 72.571C134.583 72.7169 134.997 72.8395 135.415 72.9389L137.324 73.4162C138.093 73.5952 138.832 73.8371 139.541 74.142C140.257 74.447 140.897 74.8314 141.46 75.2955C142.03 75.7595 142.481 76.3196 142.812 76.9759C143.144 77.6321 143.31 78.401 143.31 79.2827C143.31 80.4759 143.005 81.5265 142.395 82.4347C141.785 83.3362 140.903 84.0421 139.75 84.5526C138.603 85.0563 137.214 85.3082 135.584 85.3082C134 85.3082 132.624 85.063 131.457 84.5724C130.297 84.0819 129.389 83.366 128.733 82.4247C128.083 81.4834 127.732 80.3366 127.679 78.9844H131.308C131.361 79.6937 131.58 80.2836 131.964 80.7543C132.349 81.2249 132.849 81.5762 133.466 81.8082C134.089 82.0402 134.785 82.1562 135.554 82.1562C136.356 82.1562 137.059 82.0369 137.662 81.7983C138.272 81.553 138.749 81.215 139.094 80.7841C139.438 80.3466 139.614 79.8362 139.621 79.2528C139.614 78.7225 139.458 78.285 139.153 77.9403C138.848 77.589 138.421 77.2973 137.871 77.0653C137.327 76.8267 136.691 76.6146 135.962 76.429L133.645 75.8324C131.968 75.4015 130.642 74.7486 129.668 73.8736C128.7 72.992 128.216 71.822 128.216 70.3636C128.216 69.1638 128.541 68.1132 129.19 67.2116C129.847 66.3101 130.738 65.6108 131.865 65.1136C132.992 64.6098 134.268 64.358 135.693 64.358C137.138 64.358 138.404 64.6098 139.491 65.1136C140.585 65.6108 141.444 66.3035 142.067 67.1918C142.69 68.0734 143.011 69.0876 143.031 70.2344H139.482Z" fill="#663366"/>
</svg>
