<svg width="150" height="150" viewBox="0 0 150 150" fill="none" xmlns="http://www.w3.org/2000/svg">
<path fill-rule="evenodd" clip-rule="evenodd" d="M140.634 62.646L132.477 61.1584C131.515 60.9891 130.82 60.3542 130.56 59.4109C129.32 54.9965 127.555 50.7394 125.311 46.7484C124.833 45.8958 124.876 44.9524 125.432 44.1482L130.155 37.3211C131.612 35.2167 131.364 32.3686 129.55 30.5424L119.458 20.45C117.644 18.6358 114.796 18.3759 112.679 19.8453L105.852 24.568C105.048 25.1244 104.104 25.1727 103.252 24.689C99.2607 22.4274 94.9855 20.6616 90.5712 19.4402C89.6278 19.1741 88.9929 18.4787 88.8236 17.5233L87.3542 9.36592C86.8885 6.84433 84.6934 5 82.1356 5H67.8646C65.2945 5 63.0996 6.82621 62.646 9.36592L61.1584 17.5233C60.9891 18.4847 60.3542 19.1801 59.4109 19.4402C54.9965 20.6798 50.7394 22.4456 46.7484 24.689C45.8958 25.1667 44.9524 25.1243 44.1482 24.568L37.3211 19.8453C35.2167 18.388 32.3686 18.6359 30.5424 20.45L20.45 30.5424C18.6358 32.3565 18.3759 35.2046 19.8453 37.3211L24.568 44.1299C25.1244 44.9342 25.1727 45.8775 24.689 46.7302C22.4456 50.7211 20.6616 54.9963 19.4402 59.4107C19.1741 60.354 18.4787 60.9889 17.5233 61.1583L9.36592 62.6459C6.84433 63.1115 5 65.3066 5 67.8644V82.1354C5 84.7055 6.82621 86.9004 9.36592 87.354L17.5233 88.8416C18.4847 89.0109 19.1801 89.6458 19.4402 90.5891C20.6798 95.0035 22.4456 99.2606 24.689 103.252C25.1667 104.104 25.1243 105.048 24.568 105.852L19.8453 112.679C18.388 114.783 18.6359 117.631 20.45 119.458L30.5424 129.55C32.3565 131.364 35.2046 131.624 37.3211 130.155L44.1299 125.432C44.9342 124.876 45.8775 124.827 46.7302 125.311C50.7211 127.554 54.9963 129.338 59.4107 130.56C60.354 130.826 60.9889 131.521 61.1583 132.477L62.6459 140.634C63.1115 143.156 65.3066 145 67.8644 145H82.1354C84.7055 145 86.9004 143.174 87.354 140.634L88.8416 132.477C89.0109 131.515 89.6458 130.82 90.5891 130.56C95.0035 129.32 99.2606 127.554 103.252 125.311C104.104 124.833 105.048 124.876 105.852 125.432L112.679 130.155C114.783 131.612 117.631 131.364 119.458 129.55L129.55 119.458C131.364 117.643 131.624 114.795 130.155 112.679L125.432 105.87C124.876 105.066 124.827 104.123 125.311 103.27C127.554 99.2789 129.338 95.0037 130.56 90.5893C130.826 89.646 131.521 89.0111 132.477 88.8417L140.634 87.3542C143.156 86.8885 145 84.6934 145 82.1356V67.8646C145 65.2945 143.162 63.0935 140.634 62.646ZM142.14 82.1357C142.14 83.3451 141.318 84.3369 140.126 84.5485L131.969 86.0361C129.925 86.4049 128.365 87.8321 127.803 89.8275C126.623 94.0241 124.954 98.0635 122.802 101.873C121.78 103.687 121.87 105.791 123.068 107.509L127.79 114.318C128.474 115.309 128.365 116.591 127.512 117.444L117.42 127.536C116.567 128.389 115.285 128.51 114.294 127.815L107.466 123.092C105.749 121.901 103.657 121.81 101.831 122.826C98.0211 124.96 93.9817 126.647 89.7851 127.827C87.7896 128.383 86.3626 129.949 85.9937 131.993L84.5061 140.15C84.2884 141.342 83.2967 142.164 82.0934 142.164H67.8224C66.613 142.164 65.6212 141.342 65.4096 140.15L63.922 131.993C63.5532 129.949 62.126 128.389 60.1306 127.827C55.934 126.647 51.8946 124.979 48.085 122.826C47.2505 122.36 46.3495 122.13 45.4667 122.13C44.4145 122.13 43.3744 122.457 42.4493 123.092L35.6404 127.815C34.6487 128.498 33.3666 128.389 32.5141 127.536L22.4217 117.444C21.5691 116.591 21.4482 115.309 22.1436 114.318L26.8663 107.491C28.0576 105.785 28.1483 103.681 27.1324 101.855C24.9978 98.0452 23.3106 94.0058 22.1315 89.8092C21.5751 87.8137 20.009 86.3867 17.9651 86.0178L9.80774 84.5302C8.61648 84.3125 7.79406 83.3208 7.79406 82.1175V67.8464C7.79406 66.637 8.61645 65.6453 9.80774 65.4337L17.9651 63.9461C20.009 63.5773 21.5691 62.1501 22.1315 60.1547C23.3106 55.9581 24.9795 51.9187 27.1324 48.1091C28.1543 46.295 28.0636 44.1907 26.8663 42.4734L22.1436 35.6645C21.4603 34.6728 21.5691 33.3907 22.4217 32.5382L32.5141 22.4458C33.3668 21.5932 34.6487 21.4723 35.6404 22.1677L42.4675 26.8904C44.1728 28.0817 46.2771 28.1724 48.1033 27.1565C51.9129 25.0219 55.9523 23.3347 60.1489 22.1556C62.1444 21.5992 63.5714 20.0331 63.9403 17.9892L65.4279 9.83184C65.6455 8.64058 66.6373 7.81815 67.8406 7.81815H82.1116C83.321 7.81815 84.3128 8.64055 84.5244 9.83184L86.012 17.9892C86.3808 20.0331 87.808 21.5932 89.8034 22.1556C94 23.3347 98.0394 25.0036 101.849 27.1565C103.663 28.1784 105.767 28.0877 107.485 26.8904L114.312 22.1677C115.304 21.4844 116.586 21.5932 117.438 22.4458L127.53 32.5382C128.383 33.3909 128.504 34.6728 127.809 35.6645L123.086 42.4916C121.895 44.1969 121.804 46.3012 122.82 48.1274C124.954 51.9369 126.642 55.9764 127.803 60.1729C128.359 62.1685 129.925 63.5955 131.969 63.9644L140.126 65.4519C141.318 65.6696 142.14 66.6614 142.14 67.8647L142.14 82.1357ZM75.0002 32.8773C51.7611 32.8773 32.8767 51.7804 32.8767 75.0009C32.8767 98.2399 51.7797 117.124 75.0002 117.124C98.2393 117.124 117.124 98.2213 117.124 75.0009C117.124 51.7618 98.2393 32.8773 75.0002 32.8773ZM75.0002 114.276C53.3463 114.276 35.7251 96.6609 35.7251 75.0009C35.7251 53.347 53.3401 35.7257 75.0002 35.7257C96.6541 35.7257 114.275 53.3408 114.275 75.0009C114.275 96.6547 96.6541 114.276 75.0002 114.276ZM99.8291 54.9244C99.6416 52.3726 97.6461 50.371 95.0762 50.1715C82.0388 49.1979 70.2163 53.3159 61.7625 61.7636C53.3089 70.2173 49.1908 82.0459 50.1704 95.0773C50.3578 97.6291 52.3534 99.6307 54.9233 99.8302C56.175 99.9209 57.4147 99.9693 58.6544 99.9693C70.2041 99.9693 80.6055 95.8695 88.2357 88.2381C96.6894 79.7845 100.809 67.9558 99.8291 54.9244ZM63.7955 63.7954C70.8826 56.7084 80.5762 52.8987 91.3644 52.8987C92.5255 52.8987 93.6865 52.947 94.8777 53.0377C94.9079 53.0377 94.9261 53.0559 94.9563 53.0559L81.8101 66.1779L81.5138 62.574C82.1488 62.0963 82.566 61.3343 82.566 60.4696C82.566 59.0001 81.3747 57.8088 79.9052 57.8088C78.4357 57.8088 77.2445 59.0001 77.2445 60.4696C77.2445 61.4915 77.831 62.3744 78.6716 62.8097L79.1674 68.8325L73.1748 74.8251L72.4915 66.716C72.431 65.9239 71.7356 65.3373 70.9435 65.4159C70.1513 65.4764 69.5829 66.1718 69.6434 66.964L70.5262 77.4918L64.5337 83.4844L64.0559 77.6491C64.0559 77.631 64.0378 77.6189 64.0378 77.6007C64.6727 77.123 65.09 76.3611 65.09 75.4963C65.09 74.0269 63.8987 72.8356 62.4292 72.8356C60.9598 72.8356 59.7685 74.0268 59.7685 75.4963C59.7685 76.5183 60.355 77.4012 61.2077 77.8486V77.8788L61.891 86.1269L53.0381 94.9798C53.0381 94.9495 53.0199 94.9314 53.0199 94.9012C52.1069 82.6802 55.9284 71.6393 63.7955 63.7954ZM86.2064 86.2063C78.3574 94.0553 67.322 97.8771 55.125 96.9639C55.0948 96.9639 55.0766 96.9457 55.0464 96.9457L61.3172 90.675L69.6137 91.3704C70.0612 92.223 70.9319 92.7975 71.9539 92.7975C73.4233 92.7975 74.6146 91.6062 74.6146 90.1367C74.6146 88.6673 73.4234 87.476 71.9539 87.476C71.0891 87.476 70.3272 87.8932 69.8495 88.5281L63.9657 88.0323L69.9583 82.0397L80.4861 82.9226H80.6071C81.3327 82.9226 81.9677 82.3662 82.0342 81.6043C82.0947 80.8122 81.5262 80.1349 80.7341 80.0563L72.625 79.373L78.6176 73.3804L86.9141 74.0758C87.3616 74.9284 88.2324 75.5029 89.2543 75.5029C90.7237 75.5029 91.9151 74.3116 91.9151 72.8421C91.9151 71.3726 90.7238 70.1814 89.2543 70.1814C88.3896 70.1814 87.6276 70.5986 87.1499 71.2335L81.2661 70.7377L87.2708 64.733L91.546 64.981H91.6246C92.3805 64.981 93.0033 64.3944 93.0517 63.6325C93.1001 62.8403 92.4954 62.1631 91.7032 62.1328L89.9677 62.024L96.9641 55.0277C96.9641 55.0579 96.9822 55.076 96.9822 55.1063C97.8953 67.3212 94.0735 78.3624 86.2064 86.2063Z" fill="#663366"/>
</svg>
