<svg width="150" height="150" viewBox="0 0 150 150" fill="none" xmlns="http://www.w3.org/2000/svg">
<path fill-rule="evenodd" clip-rule="evenodd" d="M57.8909 99.2348C67.3082 108.666 82.6585 108.666 92.0951 99.2348C92.9157 98.4075 94.2543 98.4075 95.0952 99.2348C95.9158 100.062 95.9158 101.407 95.0952 102.235C84.0568 113.307 65.9347 113.32 54.8829 102.235C54.0623 101.408 54.0623 100.062 54.8829 99.2348C55.7103 98.4075 57.05 98.4075 57.8909 99.2348ZM74.9899 99.1407C79.3486 99.1407 83.6941 97.4792 87.0171 94.1697C87.8377 93.3424 87.8377 91.9971 87.0171 91.1697C86.1964 90.3423 84.8377 90.3423 84.017 91.1697C79.0461 96.1473 70.9337 96.1473 65.9704 91.1697C65.1296 90.3423 63.791 90.3423 62.9703 91.1697C62.1295 91.997 62.1295 93.3423 62.9703 94.1697C66.2731 97.4793 70.631 99.1407 74.9899 99.1407ZM103.873 108.013C103.032 107.186 101.694 107.186 100.873 108.013C86.5924 122.28 63.3798 122.28 49.1181 108.013C48.2773 107.186 46.9388 107.186 46.1181 108.013C45.2974 108.84 45.2974 110.186 46.1181 111.013C61.9726 126.928 88.0041 126.928 103.872 111.013C104.693 110.186 104.694 108.84 103.873 108.013ZM74.9899 71.2998C72.9719 71.2998 71.3239 69.6585 71.3239 67.6405C71.3239 65.6225 72.9652 63.9812 74.9899 63.9812C77.0079 63.9812 78.6559 65.6225 78.6559 67.6405C78.6559 69.6585 77.0146 71.2998 74.9899 71.2998ZM74.9899 59.7368C70.6312 59.7368 67.093 63.2818 67.093 67.6405C67.093 71.9993 70.6312 75.5442 74.9899 75.5442C79.3486 75.5442 82.8868 71.9993 82.8868 67.6405C82.8936 63.2818 79.3554 59.7368 74.9899 59.7368ZM82.3758 80.4285L89.7549 67.6412L82.3758 54.8539H67.6176L60.2385 67.6412L67.6176 80.4285H82.3758ZM129.266 89.987C129.266 91.6081 127.941 92.9265 126.32 92.9265C124.692 92.9265 123.387 91.6081 123.387 89.987C123.387 88.3659 124.692 87.0475 126.32 87.0475C127.941 87.0475 129.266 88.3659 129.266 89.987ZM23.6519 92.9265C22.0442 92.9265 20.7191 91.6081 20.7191 89.987C20.7191 88.3659 22.0443 87.0475 23.6519 87.0475C25.2797 87.0475 26.5981 88.3659 26.5981 89.987C26.5981 91.6014 25.2729 92.9265 23.6519 92.9265ZM28.8112 31.2373C39.5536 31.2373 46.1449 32.9929 48.003 34.1768C46.1465 35.3539 39.5476 37.1162 28.8112 37.1162C18.0554 37.1162 11.4775 35.3539 9.60049 34.1768C11.4771 32.9996 18.0559 31.2373 28.8112 31.2373ZM121.168 31.2373C131.923 31.2373 138.501 32.9929 140.359 34.1768C138.503 35.3539 131.924 37.1162 121.168 37.1162C110.412 37.1162 103.834 35.3539 101.976 34.1768C103.832 32.9996 110.411 31.2373 121.168 31.2373ZM119.17 55.7294L90.3261 60.1689L93.4204 65.5166L113.311 65.4628C114.065 65.4628 114.757 65.8664 115.154 66.5188L124.713 82.999C129.2 81.9631 133.505 85.3802 133.505 89.9946C133.505 93.9566 130.289 97.1787 126.32 97.1787C120.112 97.1787 116.796 89.7458 121.047 85.1313L112.094 69.714L93.4341 69.7678L85.4296 83.6247C85.0529 84.2771 84.36 84.6875 83.5865 84.6875H66.3799C65.6265 84.6875 64.9337 84.2839 64.5368 83.6247L56.5457 69.7678L37.886 69.714L28.9329 85.1313C33.1236 89.6785 29.9218 97.1787 23.6459 97.1787C19.6973 97.1787 16.482 93.9566 16.482 89.9946C16.482 85.3802 20.7803 81.963 25.2737 82.999L34.8322 66.5188C35.2089 65.8664 35.9017 65.4628 36.6753 65.4628L56.5662 65.5166L59.6403 60.1689L30.8173 55.7294C30.0101 55.6083 29.3509 55.0366 29.1021 54.2563L25.1199 41.2806C18.0637 40.9981 5 39.7268 5 34.1773C5 27.343 24.8375 27 28.8188 27C32.7875 27 52.6238 27.3431 52.6238 34.1773C52.6238 40.6483 34.8458 41.3007 29.5713 41.3546L32.7732 51.7404L61.9406 56.2271L64.5504 51.68C64.9406 51.0275 65.6401 50.6172 66.3935 50.6172H83.6001C84.367 50.6172 85.0665 51.0208 85.4432 51.68L88.0732 56.2271L117.22 51.7404L120.422 41.3546C115.168 41.3008 97.39 40.6484 97.39 34.1773C97.39 27.343 117.207 27 121.195 27C125.164 27 145 27.3431 145 34.1773C145 39.7268 131.937 40.998 124.894 41.2806L120.892 54.2563C120.636 55.0298 119.97 55.6083 119.17 55.7294Z" fill="#663366"/>
</svg>
