<svg width="150" height="150" viewBox="0 0 150 150" fill="none" xmlns="http://www.w3.org/2000/svg">
<path d="M60.2227 22.4294V5H89.2683V22.4294" stroke="#663366" stroke-width="4.5" stroke-miterlimit="10" stroke-linecap="round" stroke-linejoin="round"/>
<path d="M120.494 44.3371V31.1443C120.494 26.3314 116.593 22.4297 111.78 22.4297H37.7137C32.9014 22.4297 29 26.3314 29 31.1443V44.3371L34.7606 47.2419V63.2191L29 66.1236V145H120.494V66.1236L114.685 63.2188V47.2416L120.494 44.3371Z" stroke="#663366" stroke-width="4.5" stroke-miterlimit="10" stroke-linecap="round" stroke-linejoin="round"/>
<path d="M56.6289 81.403C65.5413 72.4907 79.9912 72.4907 88.9038 81.403C93.3368 85.8363 95.5649 91.6393 95.5881 97.4496V103.521" stroke="#663366" stroke-width="4.5" stroke-miterlimit="10" stroke-linecap="round" stroke-linejoin="round"/>
<path d="M103.176 96.207L95.5879 103.795L88 96.207" stroke="#663366" stroke-width="4.5" stroke-miterlimit="10" stroke-linecap="round" stroke-linejoin="round"/>
<path d="M92.8632 120.954C83.9509 129.866 69.5009 129.866 60.5886 120.954C56.1553 116.521 53.9275 110.718 53.9043 104.907V98.8359" stroke="#663366" stroke-width="4.5" stroke-miterlimit="10" stroke-linecap="round" stroke-linejoin="round"/>
<path d="M46.3164 106.15L53.9043 98.5625L61.4925 106.15" stroke="#663366" stroke-width="4.5" stroke-miterlimit="10" stroke-linecap="round" stroke-linejoin="round"/>
</svg>
