<svg width="150" height="150" viewBox="0 0 150 150" fill="none" xmlns="http://www.w3.org/2000/svg">
<path d="M124.217 48.1639C136.051 56.2991 144.045 69.6174 144.921 84.8455H136.451C135.547 71.9779 128.44 60.792 118.105 54.2737C113.665 51.4737 108.631 49.5357 103.24 48.6935C101.248 48.3808 99.2089 48.2202 97.1328 48.2202V39.7695C101.707 39.7695 106.136 40.4118 110.324 41.609" stroke="#663366" stroke-width="4.22534" stroke-miterlimit="10"/>
<path d="M124.217 48.1639C136.051 56.2991 144.045 69.6174 144.921 84.8455H136.451C135.547 71.9779 128.44 60.792 118.105 54.2737C113.665 51.4737 108.631 49.5357 103.24 48.6935C101.248 48.3808 99.2089 48.2202 97.1328 48.2202V39.7695C101.707 39.7695 106.136 40.4118 110.324 41.609" stroke="#663366" stroke-width="4.22534" stroke-miterlimit="10"/>
<path d="M118.105 54.2722L124.218 48.1624L134.508 37.8722L134.522 37.8581L124.299 27.6328L124.285 27.6469L110.325 41.6074L103.24 48.6919" stroke="#663366" stroke-width="4.22534" stroke-miterlimit="10"/>
<path d="M144.34 34.8516L127.301 17.8125L120.875 24.2383L137.914 41.2774L144.34 34.8516Z" stroke="#663366" stroke-width="4.22534" stroke-miterlimit="10"/>
<path d="M5 77.8342V39.7695H24.2619H49.2647V57.992" stroke="#663366" stroke-width="4.22534" stroke-miterlimit="10"/>
<path d="M5 82.6523V144.109H49.2647V130.847V120.804V110.765V96.1115V87.6354" stroke="#663366" stroke-width="4.22534" stroke-miterlimit="10"/>
<path d="M24.2617 39.7683V31.3711" stroke="#663366" stroke-width="4.22534" stroke-miterlimit="10"/>
<path d="M97.1327 31.3164V39.7671C70.6961 39.7671 49.2651 61.198 49.2651 87.6346V96.1107H40.8145V87.6346C40.8145 56.5812 66.0792 31.3164 97.1327 31.3164Z" stroke="#663366" stroke-width="4.22534" stroke-miterlimit="10"/>
<path d="M97.1327 31.3164V39.7671C70.6961 39.7671 49.2651 61.198 49.2651 87.6346V96.1107H40.8145V87.6346C40.8145 56.5812 66.0792 31.3164 97.1327 31.3164Z" stroke="#663366" stroke-width="4.22534" stroke-miterlimit="10"/>
<path d="M132.3 144.107H145V96.1094H49.2656V144.107H128.283" stroke="#663366" stroke-width="4.22534" stroke-miterlimit="10"/>
<path d="M145.001 87.637V96.1131H49.2656V87.637C49.2656 61.2005 70.6966 39.7695 97.1331 39.7695V48.2202C117.93 48.2202 135.018 64.4089 136.451 84.8455H144.922C144.972 85.7694 145.001 86.699 145.001 87.637Z" stroke="#663366" stroke-width="4.22534" stroke-miterlimit="10"/>
<path d="M49.2656 87.6353V96.1113H144.922V84.8438H136.451H49.3445" stroke="#663366" stroke-width="4.22534" stroke-miterlimit="10"/>
<path d="M113.065 110.766H81.2012V144.1H113.065V110.766Z" stroke="#663366" stroke-width="4.22534" stroke-miterlimit="10"/>
<path d="M32.1976 54.9414H22.0684V96.1126H32.1976V54.9414Z" stroke="#663366" stroke-width="4.22534" stroke-miterlimit="10"/>
<path d="M36.6612 110.766H17.6035V144.1H36.6612V110.766Z" stroke="#663366" stroke-width="4.22534" stroke-miterlimit="10"/>
<path d="M17.8024 27.7188C12.3914 22.3079 12.3914 13.5349 17.8024 8.12394L20.9263 5L40.5215 24.5952L37.3975 27.7191C31.9866 33.1298 23.2136 33.1298 17.8024 27.7188Z" stroke="#663366" stroke-width="4.22534" stroke-miterlimit="10"/>
<path d="M144.999 110.766H113.064V130.846H144.999V110.766Z" stroke="#663366" stroke-width="4.22534" stroke-miterlimit="10"/>
<path d="M113.064 120.805H144.999" stroke="#663366" stroke-width="4.22534" stroke-miterlimit="10"/>
<path d="M134.355 110.766V130.846" stroke="#663366" stroke-width="4.22534" stroke-miterlimit="10"/>
<path d="M123.711 110.766V130.846" stroke="#663366" stroke-width="4.22534" stroke-miterlimit="10"/>
<path d="M81.2005 110.766H49.2656V130.846H81.2005V110.766Z" stroke="#663366" stroke-width="4.22534" stroke-miterlimit="10"/>
<path d="M49.2656 120.805H81.2005" stroke="#663366" stroke-width="4.22534" stroke-miterlimit="10"/>
<path d="M70.5547 110.766V130.846" stroke="#663366" stroke-width="4.22534" stroke-miterlimit="10"/>
<path d="M59.9102 110.766V130.846" stroke="#663366" stroke-width="4.22534" stroke-miterlimit="10"/>
<path d="M103.461 67.9414H99.3027" stroke="#663366" stroke-width="4.22534" stroke-miterlimit="10"/>
<path d="M95.1701 67.9414H90.9434" stroke="#663366" stroke-width="4.22534" stroke-miterlimit="10"/>
</svg>
