<svg width="150" height="150" viewBox="0 0 150 150" fill="none" xmlns="http://www.w3.org/2000/svg">
<path d="M108.337 105.517H41.0824C33.298 105.511 27 99.2066 27 91.4223C27.0062 83.6442 33.3105 77.3398 41.0824 77.3398H108.337C116.121 77.346 122.419 83.6504 122.419 91.4347C122.419 99.2066 116.115 105.511 108.337 105.517ZM41.0824 80.5112C35.0506 80.5174 30.1645 85.4035 30.1707 91.4353C30.1769 97.4609 35.0568 102.347 41.0824 102.347L108.337 102.341C114.368 102.335 119.255 97.4486 119.248 91.4167C119.242 85.3911 114.362 80.505 108.337 80.505L41.0824 80.5112Z" fill="#663366"/>
<path d="M90.8977 115.149H58.5215V103.934H61.6922V111.978H87.727V103.934H90.8977V115.149Z" fill="#663366"/>
<path d="M84.5236 140H64.8857V113.562H68.0626V136.829H81.3524V113.562H84.5231L84.5236 140Z" fill="#663366"/>
<path d="M41.9807 98.947C37.8253 98.9532 34.4502 95.5843 34.4502 91.4289C34.444 87.2735 37.8129 83.8984 41.9683 83.8984C46.1237 83.8923 49.4988 87.2612 49.4988 91.4165V91.4227C49.4988 95.5781 46.1361 98.9408 41.9807 98.947ZM41.9807 87.0753C39.5779 87.0692 37.6271 89.02 37.6209 91.4227C37.6147 93.8255 39.5655 95.7763 41.9683 95.7825C44.3711 95.7887 46.3219 93.8379 46.328 91.4351V91.4289C46.328 89.0261 44.3834 87.0815 41.9807 87.0753Z" fill="#663366"/>
<path d="M74.7098 98.947C70.5544 98.947 67.1855 95.5781 67.1855 91.4227C67.1855 87.2673 70.5544 83.8984 74.7098 83.8984C78.8652 83.8984 82.2341 87.2673 82.2341 91.4227C82.2279 95.5781 78.8652 98.947 74.7098 98.947ZM74.7098 87.0753C72.3071 87.0753 70.3563 89.0261 70.3563 91.4289C70.3563 93.8317 72.3071 95.7825 74.7098 95.7825C77.1188 95.7825 79.0634 93.8317 79.0634 91.4289C79.0634 89.0261 77.1126 87.0753 74.7098 87.0753Z" fill="#663366"/>
<path d="M107.432 98.947C103.277 98.947 99.9082 95.5781 99.9082 91.4227C99.9082 87.2673 103.277 83.8984 107.432 83.8984C111.588 83.8984 114.957 87.2673 114.957 91.4227C114.951 95.5781 111.588 98.947 107.432 98.947ZM107.432 87.0753C105.03 87.0753 103.079 89.0261 103.079 91.4289C103.079 93.8317 105.03 95.7825 107.432 95.7825C109.835 95.7825 111.786 93.8317 111.786 91.4289C111.786 89.0261 109.835 87.0753 107.432 87.0753Z" fill="#663366"/>
<path d="M80.6484 89.8438H101.493V93.0145H80.6484V89.8438Z" fill="#663366"/>
<path d="M47.9258 89.8438H68.7701V93.0145H47.9258V89.8438Z" fill="#663366"/>
<path d="M122.432 24.8504H40.4023V21.8593C40.4085 15.3135 45.7158 10.0062 52.2616 10H110.573C117.119 10.0062 122.426 15.3135 122.432 21.8593L122.426 24.8504H122.432ZM43.5731 21.6735H119.261C119.156 16.9483 115.298 13.1707 110.573 13.1645L52.2553 13.1707C47.5363 13.1769 43.6783 16.9545 43.5731 21.6735Z" fill="#663366"/>
<path d="M82.9966 37.5589H50.7139V23.2598H53.8846V34.3882H79.8322V23.2598H82.9967L82.9966 37.5589Z" fill="#663366"/>
<path d="M76.2943 68.6961H56.7627V35.9727H59.9334V65.5254H73.1241V35.9727H76.2948L76.2943 68.6961Z" fill="#663366"/>
<path d="M64.8877 67.1094H68.0584V78.9252H64.8877V67.1094Z" fill="#663366"/>
<path d="M119.261 23.2598H122.431V91.424H119.261V23.2598Z" fill="#663366"/>
<path d="M81.8125 65.9949L85.937 61.8457L88.185 64.0814L84.0605 68.2306L81.8125 65.9949Z" fill="#663366"/>
<path d="M89.9502 68.0769L94.0747 63.9277L96.3227 66.1634L92.1982 70.3126L89.9502 68.0769Z" fill="#663366"/>
<path d="M47.0459 64.0697L49.2939 61.834L53.4184 65.9832L51.1704 68.2189L47.0459 64.0697Z" fill="#663366"/>
<path d="M38.9209 66.1439L41.1689 63.9082L45.2934 68.0574L43.0454 70.2931L38.9209 66.1439Z" fill="#663366"/>
</svg>
