<svg width="150" height="150" viewBox="0 0 150 150" fill="none" xmlns="http://www.w3.org/2000/svg">
<path d="M135.981 31.6758L128.057 40.3913" stroke="#663366" stroke-width="4.22535" stroke-miterlimit="10" stroke-linecap="round" stroke-linejoin="round"/>
<path d="M121.418 47.6953L103.303 67.6249" stroke="#663366" stroke-width="4.22535" stroke-miterlimit="10" stroke-linecap="round" stroke-linejoin="round"/>
<path d="M145.001 21.7539L142.621 24.3736" stroke="#663366" stroke-width="4.22535" stroke-miterlimit="10" stroke-linecap="round" stroke-linejoin="round"/>
<path d="M21.9435 40.3913L14.0195 31.6758" stroke="#663366" stroke-width="4.22535" stroke-miterlimit="10" stroke-linecap="round" stroke-linejoin="round"/>
<path d="M46.6994 67.6249L28.584 47.6953" stroke="#663366" stroke-width="4.22535" stroke-miterlimit="10" stroke-linecap="round" stroke-linejoin="round"/>
<path d="M7.38028 24.3736L5 21.7539" stroke="#663366" stroke-width="4.22535" stroke-miterlimit="10" stroke-linecap="round" stroke-linejoin="round"/>
<path d="M145 5L111.873 41.4422" stroke="#663366" stroke-width="4.22535" stroke-miterlimit="10" stroke-linecap="round" stroke-linejoin="round"/>
<path d="M105.237 48.7461L88.8906 66.7263" stroke="#663366" stroke-width="4.22535" stroke-miterlimit="10" stroke-linecap="round" stroke-linejoin="round"/>
<path d="M61.1058 66.7278L5 5" stroke="#663366" stroke-width="4.22535" stroke-miterlimit="10" stroke-linecap="round" stroke-linejoin="round"/>
<path d="M76.4961 61.582C87.1102 62.3482 95.4848 71.2046 95.4848 82.013C95.4848 90.9538 89.758 98.5594 81.7693 101.354" stroke="#663366" stroke-width="4.22535" stroke-miterlimit="10" stroke-linecap="round" stroke-linejoin="round"/>
<path d="M68.1973 101.342C60.2255 98.5367 54.5156 90.9424 54.5156 82.0128C54.5156 73.6804 59.4931 66.5058 66.6367 63.3086" stroke="#663366" stroke-width="4.22535" stroke-miterlimit="10" stroke-linecap="round" stroke-linejoin="round"/>
<path d="M117.498 145.001V131.57" stroke="#663366" stroke-width="4.22535" stroke-miterlimit="10" stroke-linecap="round" stroke-linejoin="round"/>
<path d="M105.355 113.245C105.355 109.89 108.071 107.172 111.429 107.172C113.102 107.172 114.62 107.848 115.719 108.947C116.817 110.045 117.496 111.563 117.499 113.239V121.71" stroke="#663366" stroke-width="4.22535" stroke-miterlimit="10" stroke-linecap="round" stroke-linejoin="round"/>
<path d="M68.7827 119.848L63.3441 123.659C60.1866 125.871 58.3066 129.485 58.3066 133.34V145.001" stroke="#663366" stroke-width="4.22535" stroke-miterlimit="10" stroke-linecap="round" stroke-linejoin="round"/>
<path d="M93.2109 108.645C93.2109 105.292 95.929 102.574 99.2819 102.574H99.2825C102.635 102.574 105.353 105.292 105.353 108.645V119.411" stroke="#663366" stroke-width="4.22535" stroke-miterlimit="10" stroke-linecap="round" stroke-linejoin="round"/>
<path d="M81.0684 105.704C81.0684 102.351 83.7864 99.6328 87.1393 99.6328C90.4923 99.6328 93.2103 102.351 93.2103 105.704V117.755" stroke="#663366" stroke-width="4.22535" stroke-miterlimit="10" stroke-linecap="round" stroke-linejoin="round"/>
<path d="M81.0684 94.7148V105.706V117.76" stroke="#663366" stroke-width="4.22535" stroke-miterlimit="10" stroke-linecap="round" stroke-linejoin="round"/>
<path d="M68.9277 134.46V81.1759C68.9277 77.8238 71.646 75.1055 74.9981 75.1055C76.6742 75.1055 78.1953 75.7843 79.2911 76.8829C80.3925 77.9815 81.0686 79.4998 81.0686 81.1759V84.8548" stroke="#663366" stroke-width="4.22535" stroke-miterlimit="10" stroke-linecap="round" stroke-linejoin="round"/>
<path d="M43.6602 13.3127V5" stroke="#663366" stroke-width="4.22535" stroke-miterlimit="10" stroke-linecap="round" stroke-linejoin="round"/>
<path d="M66.5277 36.2956L52.1306 27.9829L56.2094 20.9181C54.3193 18.6871 52.8151 16.1181 51.8066 13.3125" stroke="#663366" stroke-width="4.22535" stroke-miterlimit="10" stroke-linecap="round" stroke-linejoin="round"/>
<path d="M97.8652 27.9844L83.4681 36.297L79.3976 29.2492C77.9723 29.5055 76.5019 29.6435 75.0005 29.6435C73.4991 29.6435 72.0258 29.5055 70.5977 29.2463" stroke="#663366" stroke-width="4.22535" stroke-miterlimit="10" stroke-linecap="round" stroke-linejoin="round"/>
<path d="M106.336 5V13.3127H98.1947C97.1862 16.1183 95.682 18.6901 93.7891 20.9211" stroke="#663366" stroke-width="4.22535" stroke-miterlimit="10" stroke-linecap="round" stroke-linejoin="round"/>
<path d="M61.6309 5C61.6309 12.3718 67.628 18.3746 74.9999 18.3746C82.3717 18.3746 88.3688 12.3718 88.3688 5" stroke="#663366" stroke-width="4.22535" stroke-miterlimit="10" stroke-linecap="round" stroke-linejoin="round"/>
<path d="M109.18 29.3916C111.726 29.3916 113.79 27.3277 113.79 24.7817C113.79 22.2358 111.726 20.1719 109.18 20.1719C106.634 20.1719 104.57 22.2358 104.57 24.7817C104.57 27.3277 106.634 29.3916 109.18 29.3916Z" stroke="#663366" stroke-width="4.22535" stroke-miterlimit="10" stroke-linecap="round" stroke-linejoin="round"/>
<path d="M119.982 5C119.982 7.54591 122.046 9.60985 124.592 9.60985C127.138 9.60985 129.202 7.54591 129.202 5" stroke="#663366" stroke-width="4.22535" stroke-miterlimit="10" stroke-linecap="round" stroke-linejoin="round"/>
<path d="M30.0185 5C30.0185 7.54591 27.9546 9.60985 25.4087 9.60985C22.8628 9.60985 20.7988 7.54591 20.7988 5" stroke="#663366" stroke-width="4.22535" stroke-miterlimit="10" stroke-linecap="round" stroke-linejoin="round"/>
<path d="M40.7778 29.3213C43.3238 29.3213 45.3877 27.2574 45.3877 24.7114C45.3877 22.1655 43.3238 20.1016 40.7778 20.1016C38.2319 20.1016 36.168 22.1655 36.168 24.7114C36.168 27.2574 38.2319 29.3213 40.7778 29.3213Z" stroke="#663366" stroke-width="4.22535" stroke-miterlimit="10" stroke-linecap="round" stroke-linejoin="round"/>
<path d="M74.9595 49.1025C77.5054 49.1025 79.5693 47.0386 79.5693 44.4927C79.5693 41.9467 77.5054 39.8828 74.9595 39.8828C72.4135 39.8828 70.3496 41.9467 70.3496 44.4927C70.3496 47.0386 72.4135 49.1025 74.9595 49.1025Z" stroke="#663366" stroke-width="4.22535" stroke-miterlimit="10" stroke-linecap="round" stroke-linejoin="round"/>
<circle cx="83.0502" cy="54.3588" r="2.11267" fill="#663366"/>
<circle cx="89.6927" cy="45.9056" r="2.11267" fill="#663366"/>
<circle cx="114.857" cy="11.4564" r="2.11267" fill="#663366"/>
<circle cx="124.208" cy="17.0385" r="2.11267" fill="#663366"/>
<circle cx="101.189" cy="41.4291" r="2.11267" fill="#663366"/>
<circle cx="66.9486" cy="54.3588" r="2.11267" fill="#663366"/>
<circle cx="60.308" cy="45.9056" r="2.11267" fill="#663366"/>
<circle cx="35.1439" cy="11.4564" r="2.11267" fill="#663366"/>
<circle cx="25.7924" cy="17.0385" r="2.11267" fill="#663366"/>
<circle cx="48.8119" cy="41.4291" r="2.11267" fill="#663366"/>
</svg>
