<svg width="150" height="150" viewBox="0 0 150 150" fill="none" xmlns="http://www.w3.org/2000/svg">
<g clip-path="url(#clip0_618_114)">
<path d="M43.3562 75.1827C43.3562 85.7306 34.726 94.3608 24.1781 94.3608C13.6301 94.3608 5 85.8265 5 75.1827C9.69863 70.0046 16.411 66.7443 23.8904 66.6484C19.2877 66.7443 15.5479 70.5799 15.5479 75.1827C15.5479 79.7854 19.2877 83.621 23.8904 83.7169C23.9863 83.7169 24.0822 83.7169 24.1781 83.7169C24.274 83.7169 24.3699 83.7169 24.4658 83.7169C31.9452 83.621 38.6575 80.3608 43.3562 75.1827Z" fill="#663366"/>
<path d="M43.3562 75.1781C38.6575 80.3562 31.9452 83.7123 24.3699 83.7123C28.9726 83.6164 32.7123 79.7808 32.7123 75.1781C32.7123 70.5753 28.9726 66.7397 24.3699 66.6438C24.274 66.6438 24.1781 66.6438 24.0822 66.6438C23.9863 66.6438 23.8904 66.6438 23.7945 66.6438C16.411 66.7397 9.69863 70 5 75.1781C5 64.5342 13.6301 56 24.1781 56C34.8219 56 43.3562 64.5342 43.3562 75.1781Z" fill="#663366"/>
<path d="M57.9312 76.8095L53.1367 64.3438H56.2052L59.6573 73.9328L63.1093 64.3438H66.1778L61.3833 76.8095H57.9312Z" fill="#663366"/>
<path d="M66.9453 65.3993C66.9453 64.6322 67.6165 63.9609 68.3837 63.9609C69.1508 63.9609 69.822 64.5363 69.822 65.3993C69.822 66.2623 69.1508 66.8376 68.3837 66.8376C67.6165 66.8376 66.9453 66.1664 66.9453 65.3993ZM67.1371 76.8103V67.7966H69.5344V76.8103H67.1371Z" fill="#663366"/>
<path d="M71.0664 75.6603L72.1212 74.0301C72.7924 74.6055 74.1349 75.2767 75.2856 75.2767C76.3404 75.2767 76.8198 74.8931 76.8198 74.3178C76.8198 72.7836 71.45 74.0301 71.45 70.4822C71.45 68.9479 72.7924 67.6055 75.1897 67.6055C76.7239 67.6055 77.9705 68.0849 78.8335 68.852L77.8746 70.4822C77.2993 69.9068 76.3404 69.4274 75.1897 69.4274C74.3267 69.4274 73.7513 69.8109 73.7513 70.2904C73.7513 71.6329 79.1212 70.4822 79.1212 74.126C79.1212 75.7562 77.6828 77.0027 75.1897 77.0027C73.5596 77.0027 72.0253 76.5233 71.0664 75.6603Z" fill="#663366"/>
<path d="M80.5605 65.3993C80.5605 64.6322 81.2318 63.9609 81.9989 63.9609C82.766 63.9609 83.4373 64.5363 83.4373 65.3993C83.4373 66.2623 82.766 66.8376 81.9989 66.8376C81.2318 66.8376 80.5605 66.1664 80.5605 65.3993ZM80.8482 76.8103V67.7966H83.2455V76.8103H80.8482Z" fill="#663366"/>
<path d="M84.9707 72.3041C84.9707 69.7151 86.7926 67.6055 89.7652 67.6055C92.7378 67.6055 94.5597 69.8109 94.5597 72.3041C94.5597 74.8931 92.7378 77.0027 89.7652 77.0027C86.7926 77.0027 84.9707 74.8931 84.9707 72.3041ZM92.0666 72.3041C92.0666 70.8657 91.2036 69.7151 89.7652 69.7151C88.3269 69.7151 87.4639 70.9616 87.4639 72.3041C87.4639 73.7425 88.3269 74.8931 89.7652 74.8931C91.2036 74.8931 92.0666 73.7425 92.0666 72.3041Z" fill="#663366"/>
<path d="M102.328 76.8113V71.3456C102.328 70.099 101.657 69.6195 100.698 69.6195C99.7392 69.6195 99.0679 70.099 98.6844 70.6743V76.7154H96.2871V67.7017H98.6844V68.8524C99.2597 68.1812 100.41 67.4141 101.849 67.4141C103.862 67.4141 104.821 68.5647 104.821 70.2908V76.6195H102.328V76.8113Z" fill="#663366"/>
<path d="M107.123 76.8095V64.3438H109.808V74.5081H115.082V76.8095H107.123Z" fill="#663366"/>
<path d="M122.176 76.8113V75.8524C121.601 76.6195 120.45 77.0031 119.299 77.0031C117.861 77.0031 116.135 76.0442 116.135 74.0305C116.135 71.9209 117.861 71.1538 119.299 71.1538C120.45 71.1538 121.601 71.5374 122.176 72.2086V70.962C122.176 70.0031 121.409 69.4278 120.162 69.4278C119.203 69.4278 118.34 69.8113 117.573 70.4826L116.71 68.8524C117.861 67.8935 119.203 67.4141 120.642 67.4141C122.655 67.4141 124.573 68.2771 124.573 70.8661V76.7154H122.176V76.8113ZM122.176 74.7017V73.551C121.792 73.0716 121.025 72.7839 120.258 72.7839C119.299 72.7839 118.532 73.2634 118.532 74.1264C118.532 74.9894 119.299 75.4689 120.258 75.4689C121.025 75.4689 121.792 75.1812 122.176 74.7017Z" fill="#663366"/>
<path d="M126.877 76.8095V64.3438H129.274V68.9465C129.945 67.9876 131 67.604 132.055 67.604C134.356 67.604 136.082 69.4259 136.082 72.3027C136.082 75.2753 134.356 77.0013 132.055 77.0013C131 77.0013 129.945 76.5218 129.274 75.6588V76.8095H126.877ZM131.288 74.8917C132.63 74.8917 133.589 73.8369 133.589 72.3027C133.589 70.7684 132.63 69.7136 131.288 69.7136C130.521 69.7136 129.658 70.1931 129.274 70.7684V73.9328C129.658 74.5081 130.521 74.8917 131.288 74.8917Z" fill="#663366"/>
<path d="M137.041 75.6603L138.096 74.0301C138.767 74.6055 140.11 75.2767 141.26 75.2767C142.315 75.2767 142.794 74.8931 142.794 74.3178C142.794 72.7836 137.425 74.0301 137.425 70.4822C137.425 68.9479 138.767 67.6055 141.164 67.6055C142.699 67.6055 143.945 68.0849 144.808 68.852L143.849 70.4822C143.274 69.9068 142.315 69.4274 141.164 69.4274C140.301 69.4274 139.726 69.8109 139.726 70.2904C139.726 71.6329 145.096 70.4822 145.096 74.126C145.096 75.7562 143.657 77.0027 141.164 77.0027C139.534 77.0027 138 76.5233 137.041 75.6603Z" fill="#663366"/>
<path d="M60.521 87.2643V84.0999L59.1785 87.2643H58.8908L57.5484 84.0999V87.2643H56.7812V82.9492H57.836L58.9867 85.8259L60.1374 82.9492H61.1922V87.2643H60.521Z" fill="#663366"/>
<path d="M67.0399 87.2643L66.7523 86.4013H64.7386L64.4509 87.2643H63.5879L65.3139 82.9492H66.2728L67.9988 87.2643H67.0399ZM65.7934 83.7163L65.0262 85.73H66.5605L65.7934 83.7163Z" fill="#663366"/>
<path d="M69.8223 85.1547C69.8223 83.8122 70.7812 82.9492 72.1236 82.9492C72.9867 82.9492 73.562 83.4287 73.8497 83.9081L73.0825 84.1958C72.8908 83.8122 72.5072 83.5246 72.0277 83.5246C71.1647 83.5246 70.4935 84.1958 70.4935 85.0588C70.4935 85.9218 71.1647 86.6889 72.0277 86.6889C72.5072 86.6889 72.8908 86.4013 73.0825 86.0177L73.7538 86.3054C73.4661 86.7848 72.8908 87.2643 72.0277 87.2643C70.7812 87.3602 69.8223 86.4972 69.8223 85.1547Z" fill="#663366"/>
<path d="M79.2189 87.2643V85.3465H76.9175V87.2643H76.1504V82.9492H76.9175V84.7711H79.123V83.0451H79.8901V87.3602H79.2189V87.2643Z" fill="#663366"/>
<path d="M82.6719 87.2643V82.9492H83.439V87.2643H82.6719Z" fill="#663366"/>
<path d="M89.1914 87.2643L86.9859 84.1958V87.2643H86.2188V82.9492H86.9859L89.1914 85.9218V82.9492H89.9585V87.2643H89.1914Z" fill="#663366"/>
<path d="M92.6445 87.2643V82.9492H95.6171V83.6205H93.4117V84.7711H95.5212V85.4424H93.4117V86.5931H95.6171V87.2643H92.6445Z" fill="#663366"/>
<path d="M97.918 86.6889L98.3015 86.1136C98.5892 86.4013 99.0686 86.6889 99.644 86.6889C100.219 86.6889 100.507 86.4013 100.507 86.1136C100.507 85.2506 98.0139 85.73 98.0139 84.1958C98.0139 83.5246 98.6851 82.9492 99.5481 82.9492C100.219 82.9492 100.795 83.141 101.178 83.5246L100.699 84.0999C100.315 83.7163 99.9317 83.6205 99.4522 83.6205C98.9728 83.6205 98.6851 83.8122 98.6851 84.1958C98.6851 84.9629 101.178 84.4835 101.178 86.1136C101.178 86.7848 100.699 87.4561 99.5481 87.4561C98.8769 87.3602 98.3015 87.0725 97.918 86.6889Z" fill="#663366"/>
<path d="M107.123 85.1547C107.123 83.8122 108.082 82.9492 109.424 82.9492C110.287 82.9492 110.863 83.4287 111.15 83.9081L110.479 84.1958C110.287 83.8122 109.904 83.5246 109.424 83.5246C108.561 83.5246 107.89 84.1958 107.89 85.0588C107.89 85.9218 108.561 86.5931 109.424 86.5931C109.904 86.5931 110.287 86.3054 110.479 85.9218L111.15 86.2095C110.863 86.6889 110.287 87.1684 109.424 87.1684C108.082 87.3602 107.123 86.4972 107.123 85.1547Z" fill="#663366"/>
<path d="M116.52 87.2643L116.233 86.4013H114.219L113.931 87.2643H113.068L114.794 82.9492H115.753L117.479 87.2643H116.52ZM115.178 83.7163L114.411 85.73H115.945L115.178 83.7163Z" fill="#663366"/>
<path d="M122.656 87.2643L120.451 84.1958V87.2643H119.684V82.9492H120.451L122.656 85.9218V82.9492H123.423V87.2643H122.656Z" fill="#663366"/>
<path d="M129.273 86.6889L129.657 86.1136C129.945 86.4013 130.424 86.6889 130.999 86.6889C131.575 86.6889 131.862 86.4013 131.862 86.1136C131.862 85.2506 129.369 85.73 129.369 84.1958C129.369 83.5246 130.041 82.9492 130.904 82.9492C131.575 82.9492 132.15 83.141 132.534 83.5246L132.054 84.0999C131.671 83.7163 131.287 83.6205 130.808 83.6205C130.328 83.6205 130.041 83.8122 130.041 84.1958C130.041 84.9629 132.534 84.4835 132.534 86.1136C132.534 86.7848 132.054 87.4561 130.904 87.4561C130.232 87.3602 129.657 87.0725 129.273 86.6889Z" fill="#663366"/>
<path d="M135.221 87.2643V82.9492H138.193V83.6205H135.988V84.7711H138.097V85.4424H135.988V86.5931H138.193V87.2643H135.221Z" fill="#663366"/>
<path d="M140.781 87.2643V82.9492H143.754V83.6205H141.548V84.7711H143.658V85.4424H141.548V86.5931H143.754V87.2643H140.781Z" fill="#663366"/>
</g>
<defs>
<clipPath id="clip0_618_114">
<rect width="140" height="38.3562" fill="white" transform="translate(5 56)"/>
</clipPath>
</defs>
</svg>
