<svg width="150" height="150" viewBox="0 0 150 150" fill="none" xmlns="http://www.w3.org/2000/svg">
<path d="M145 90.043V105.306C145 112.739 138.973 118.766 131.54 118.766H18.46C11.0263 118.766 5 112.739 5 105.306V90.043" stroke="#663366" stroke-width="6.2857" stroke-miterlimit="10" stroke-linecap="round" stroke-linejoin="round"/>
<path d="M131.544 105.62H18.456C11.0246 105.62 5 99.5961 5 92.1644V45.456C5 38.0246 11.0243 32 18.456 32H131.544C138.975 32 145 38.0243 145 45.456V92.1647C145 99.5962 138.975 105.62 131.544 105.62Z" stroke="#663366" stroke-width="6.2857" stroke-miterlimit="10" stroke-linecap="round" stroke-linejoin="round"/>
<path d="M109.955 62.582L116.432 69.0586L109.955 75.5354" stroke="#663366" stroke-width="6.2857" stroke-miterlimit="10" stroke-linecap="round" stroke-linejoin="round"/>
<path d="M124.01 62.582L130.487 69.0586L124.01 75.5354" stroke="#663366" stroke-width="6.2857" stroke-miterlimit="10" stroke-linecap="round" stroke-linejoin="round"/>
<path d="M19.5137 79.7778V58.3801L33.9848 79.3289C34.2531 79.7164 34.5405 79.5267 34.5405 79.0552L34.3402 58.3398" stroke="#663366" stroke-width="6.2857" stroke-miterlimit="10" stroke-linecap="round" stroke-linejoin="round"/>
<path d="M52.5918 58.5352H43.6387V79.7774H52.5918" stroke="#663366" stroke-width="6.2857" stroke-miterlimit="10" stroke-linecap="round" stroke-linejoin="round"/>
<path d="M51.9315 69.1562H43.6387" stroke="#663366" stroke-width="6.2857" stroke-miterlimit="10" stroke-linecap="round" stroke-linejoin="round"/>
<path d="M61.5352 58.3398L76.6203 79.7778" stroke="#663366" stroke-width="6.2857" stroke-miterlimit="10" stroke-linecap="round" stroke-linejoin="round"/>
<path d="M75.5577 58.3398L60.4512 79.7778" stroke="#663366" stroke-width="6.2857" stroke-miterlimit="10" stroke-linecap="round" stroke-linejoin="round"/>
<path d="M83.9844 58.3398H95.8269" stroke="#663366" stroke-width="6.2857" stroke-miterlimit="10" stroke-linecap="round" stroke-linejoin="round"/>
<path d="M89.8809 59.0234V79.7768" stroke="#663366" stroke-width="6.2857" stroke-miterlimit="10" stroke-linecap="round" stroke-linejoin="round"/>
</svg>
