<svg width="150" height="150" viewBox="0 0 150 150" fill="none" xmlns="http://www.w3.org/2000/svg">
<path d="M57.5098 121.25H66.2493V122.825C66.2493 124.381 67.5104 125.642 69.0662 125.642H80.9347C82.4905 125.642 83.7516 124.381 83.7516 122.825V121.25H143.028C144.117 121.25 144.999 120.367 144.999 119.278V44.4718C144.999 43.3828 144.117 42.5 143.028 42.5H136.249" stroke="#663366" stroke-width="4.22538" stroke-miterlimit="10" stroke-linecap="round" stroke-linejoin="round"/>
<path d="M13.7477 42.5H6.97184C5.88282 42.5 5 43.3828 5 44.4718V119.278C5 120.367 5.88282 121.25 6.97184 121.25H48.3031" stroke="#663366" stroke-width="4.22538" stroke-miterlimit="10" stroke-linecap="round" stroke-linejoin="round"/>
<path d="M13.748 49.8973V35.7218C13.748 34.6328 14.6309 33.75 15.7199 33.75H22.499" stroke="#663366" stroke-width="4.22538" stroke-miterlimit="10" stroke-linecap="round" stroke-linejoin="round"/>
<path d="M128.345 33.75H134.278C135.367 33.75 136.25 34.6328 136.25 35.7218V110.528C136.25 111.617 135.367 112.5 134.278 112.5H15.7199C14.6309 112.5 13.748 111.617 13.748 110.528V59.1048" stroke="#663366" stroke-width="4.22538" stroke-miterlimit="10" stroke-linecap="round" stroke-linejoin="round"/>
<path d="M114.605 25H125.529C126.618 25 127.501 25.8828 127.501 26.9718V101.778C127.501 102.867 126.618 103.75 125.529 103.75H96.0608C88.1759 103.75 80.6091 106.859 75.0026 112.403C69.3961 106.859 61.8293 103.75 53.9444 103.75H24.4718C23.3828 103.75 22.5 102.867 22.5 101.778V26.9718C22.5 25.8828 23.3828 25 24.4718 25H56.4616C62.8989 25 69.2471 26.504 74.9998 29.3921L75.0077 29.3882C80.7584 26.5025 87.1038 25 93.5382 25H105.397" stroke="#663366" stroke-width="4.22538" stroke-miterlimit="10" stroke-linecap="round" stroke-linejoin="round"/>
<path d="M75 90.6406V112.402" stroke="#663366" stroke-width="4.22538" stroke-miterlimit="10" stroke-linecap="round" stroke-linejoin="round"/>
<path d="M75 29.3906V39.6196" stroke="#663366" stroke-width="4.22538" stroke-miterlimit="10" stroke-linecap="round" stroke-linejoin="round"/>
<path d="M66.25 121.25V112.5" stroke="#663366" stroke-width="4.22538" stroke-miterlimit="10" stroke-linecap="round" stroke-linejoin="round"/>
<path d="M83.752 121.25V112.5" stroke="#663366" stroke-width="4.22538" stroke-miterlimit="10" stroke-linecap="round" stroke-linejoin="round"/>
<path d="M97.0933 77.8867V52.3761L75.0008 39.6211L52.9082 52.3761V77.8867L75.0008 90.6417L97.0933 77.8867Z" stroke="#663366" stroke-width="4.22538" stroke-miterlimit="10" stroke-linecap="round" stroke-linejoin="round"/>
<path d="M63.5273 72.8052L69.2085 57.8889C69.3245 57.605 69.7262 57.6047 69.8431 57.8884L75.4724 72.8052" stroke="#663366" stroke-width="4.22538" stroke-miterlimit="10" stroke-linecap="round" stroke-linejoin="round"/>
<path d="M65.2988 69.0898H73.729" stroke="#663366" stroke-width="4.22538" stroke-miterlimit="10" stroke-linecap="round" stroke-linejoin="round"/>
<path d="M84.7832 57.4531V72.5824" stroke="#663366" stroke-width="4.22538" stroke-miterlimit="10" stroke-linecap="round" stroke-linejoin="round"/>
<path d="M93.1133 80.1836L97.0919 86.2498H105.625" stroke="#663366" stroke-width="4.22538" stroke-miterlimit="10" stroke-linecap="round" stroke-linejoin="round"/>
<path d="M110.001 90.5953C112.401 90.5953 114.347 88.6493 114.347 86.2488C114.347 83.8483 112.401 81.9023 110.001 81.9023C107.6 81.9023 105.654 83.8483 105.654 86.2488C105.654 88.6493 107.6 90.5953 110.001 90.5953Z" stroke="#663366" stroke-width="4.22538" stroke-miterlimit="10" stroke-linecap="round" stroke-linejoin="round"/>
<path d="M93.1133 50.0308L97.0919 43.9648H105.625" stroke="#663366" stroke-width="4.22538" stroke-miterlimit="10" stroke-linecap="round" stroke-linejoin="round"/>
<path d="M110.001 48.314C112.401 48.314 114.347 46.3681 114.347 43.9676C114.347 41.5671 112.401 39.6211 110.001 39.6211C107.6 39.6211 105.654 41.5671 105.654 43.9676C105.654 46.3681 107.6 48.314 110.001 48.314Z" stroke="#663366" stroke-width="4.22538" stroke-miterlimit="10" stroke-linecap="round" stroke-linejoin="round"/>
<path d="M114.346 69.4781C116.747 69.4781 118.693 67.5321 118.693 65.1316C118.693 62.7311 116.747 60.7852 114.346 60.7852C111.946 60.7852 110 62.7311 110 65.1316C110 67.5321 111.946 69.4781 114.346 69.4781Z" stroke="#663366" stroke-width="4.22538" stroke-miterlimit="10" stroke-linecap="round" stroke-linejoin="round"/>
<path d="M97.0918 65.1289H110" stroke="#663366" stroke-width="4.22538" stroke-miterlimit="10" stroke-linecap="round" stroke-linejoin="round"/>
<path d="M56.9471 80.1836L52.9682 86.2498H44.4355" stroke="#663366" stroke-width="4.22538" stroke-miterlimit="10" stroke-linecap="round" stroke-linejoin="round"/>
<path d="M40.0594 90.5953C42.4599 90.5953 44.4058 88.6493 44.4058 86.2488C44.4058 83.8483 42.4599 81.9023 40.0594 81.9023C37.6589 81.9023 35.7129 83.8483 35.7129 86.2488C35.7129 88.6493 37.6589 90.5953 40.0594 90.5953Z" stroke="#663366" stroke-width="4.22538" stroke-miterlimit="10" stroke-linecap="round" stroke-linejoin="round"/>
<path d="M56.9471 50.0308L52.9682 43.9648H44.4355" stroke="#663366" stroke-width="4.22538" stroke-miterlimit="10" stroke-linecap="round" stroke-linejoin="round"/>
<path d="M40.0594 48.314C42.4599 48.314 44.4058 46.3681 44.4058 43.9676C44.4058 41.5671 42.4599 39.6211 40.0594 39.6211C37.6589 39.6211 35.7129 41.5671 35.7129 43.9676C35.7129 46.3681 37.6589 48.314 40.0594 48.314Z" stroke="#663366" stroke-width="4.22538" stroke-miterlimit="10" stroke-linecap="round" stroke-linejoin="round"/>
<path d="M35.7137 69.4781C38.1142 69.4781 40.0601 67.5321 40.0601 65.1316C40.0601 62.7311 38.1142 60.7852 35.7137 60.7852C33.3132 60.7852 31.3672 62.7311 31.3672 65.1316C31.3672 67.5321 33.3132 69.4781 35.7137 69.4781Z" stroke="#663366" stroke-width="4.22538" stroke-miterlimit="10" stroke-linecap="round" stroke-linejoin="round"/>
<path d="M52.9681 65.1289H40.0605" stroke="#663366" stroke-width="4.22538" stroke-miterlimit="10" stroke-linecap="round" stroke-linejoin="round"/>
</svg>
