<svg width="150" height="150" viewBox="0 0 150 150" fill="none" xmlns="http://www.w3.org/2000/svg">
<path d="M38.7924 103.133V46.8904C46.4004 42.9464 51.2778 35.1051 51.2778 26.4C51.2778 17.1818 45.817 8.85044 37.3688 5.1867C37.2522 5.14002 37.0888 5.14002 36.9721 5.09335C36.8087 5.04667 36.6454 5 36.4587 5C36.3887 5 36.342 5.02334 36.272 5.04667C36.0386 5.04667 35.7819 5.09335 35.5719 5.1867C35.4319 5.23337 35.3385 5.32672 35.2218 5.42007C35.0818 5.51342 34.9418 5.58344 34.8251 5.70011C34.6617 5.84014 34.5684 6.05018 34.4517 6.23688C34.405 6.30689 34.335 6.3769 34.3117 6.4469C34.265 6.58693 34.2417 6.72695 34.2183 6.89032C34.195 7.05368 34.125 7.21704 34.125 7.35706V20.8226L29.6909 25.2332H26.5636L22.1295 20.8226V7.33376C22.1295 7.17039 22.0595 7.00704 22.0361 6.84369C22.0128 6.70366 22.0128 6.54031 21.9428 6.42362C21.9194 6.35361 21.8494 6.30693 21.8027 6.23692C21.6861 6.05022 21.5694 5.8402 21.4294 5.70016C21.336 5.60681 21.2193 5.56014 21.1026 5.46679C20.9626 5.37344 20.8459 5.25676 20.6826 5.21007C20.4959 5.14006 20.2858 5.11672 20.0991 5.09339C20.0058 5.09339 19.9124 5.04671 19.8191 5.04671C19.6557 5.04671 19.5157 5.11672 19.3524 5.14006C19.2123 5.1634 19.049 5.18673 18.9089 5.23341C10.461 8.8973 5 17.2286 5 26.4467C5 35.1281 9.87743 42.9686 17.4854 46.9371V103.179C9.87743 107.123 5 114.964 5 123.67C5 132.888 10.4608 141.219 18.9089 144.883C19.119 144.976 19.3757 145 19.6324 145.023C19.7024 145.023 19.7724 145.07 19.8424 145.07C20.1225 145.07 20.4025 145 20.6592 144.906C20.7292 144.883 20.7993 144.836 20.8693 144.813C21.056 144.72 21.2193 144.603 21.3827 144.463C21.4294 144.416 21.4994 144.369 21.546 144.323C21.7327 144.136 21.8961 143.926 21.9895 143.669C22.0361 143.529 22.0595 143.389 22.0828 143.249C22.1061 143.086 22.1762 142.923 22.1762 142.759V129.294L26.6103 124.883H29.7375L34.1717 129.294V142.759C34.1717 142.923 34.2417 143.086 34.265 143.226C34.2884 143.366 34.3117 143.529 34.3584 143.669C34.4751 143.926 34.6384 144.136 34.8018 144.323C34.8485 144.369 34.9185 144.416 34.9652 144.463C35.1285 144.603 35.2919 144.72 35.4786 144.813C35.5486 144.86 35.6186 144.883 35.6886 144.906C35.9453 145 36.2254 145.07 36.5054 145.07C36.5754 145.07 36.6454 145.023 36.7154 145.023C36.9721 145.023 37.2055 144.976 37.4389 144.883C45.8869 141.219 51.3478 132.888 51.3478 123.67C51.3478 114.988 46.4704 107.148 38.8624 103.179L38.7924 103.133ZM38.7924 138.651V128.243C38.7924 127.613 38.5357 127.029 38.1156 126.586L32.3047 120.798C31.8613 120.355 31.2779 120.121 30.6477 120.121H25.5836C24.9768 120.121 24.3701 120.355 23.9266 120.798L18.1157 126.586C17.6723 127.029 17.4389 127.613 17.4389 128.243V138.651C12.6081 135.244 9.62095 129.69 9.62095 123.599C9.62095 116.224 13.985 109.597 20.7061 106.656C20.7761 106.633 20.8228 106.563 20.9162 106.516C21.1029 106.399 21.2896 106.306 21.4529 106.142C21.5696 106.026 21.6163 105.909 21.7096 105.769C21.803 105.652 21.8963 105.536 21.943 105.396C22.0364 105.186 22.0597 104.952 22.083 104.742C22.083 104.672 22.1297 104.602 22.1297 104.509V45.4886C22.1297 45.4886 22.083 45.3253 22.083 45.2319C22.083 44.9986 22.0364 44.7885 21.943 44.5785C21.8963 44.4385 21.7796 44.3218 21.7096 44.2051C21.6163 44.0884 21.5696 43.9484 21.4529 43.8317C21.2896 43.6683 21.1029 43.575 20.9162 43.4583C20.8461 43.4116 20.7995 43.3416 20.7061 43.3183C13.9617 40.4012 9.62095 33.7501 9.62095 26.3751C9.62095 20.2842 12.6314 14.7299 17.4389 11.3229V21.7313C17.4389 22.3614 17.6956 22.9448 18.1157 23.3883L23.9266 29.1759C24.37 29.6193 24.9534 29.8527 25.5836 29.8527H30.6477C31.2545 29.8527 31.8612 29.6193 32.3047 29.1759L38.1156 23.3883C38.559 22.9449 38.7924 22.3615 38.7924 21.7313V11.3229C43.6232 14.73 46.6104 20.2843 46.6104 26.3751C46.6104 33.7497 42.2463 40.3774 35.5252 43.3183C35.4552 43.3416 35.4085 43.4116 35.3151 43.4583C35.1284 43.575 34.9417 43.6683 34.7784 43.8317C34.6617 43.9484 34.615 44.0651 34.5217 44.2051C34.4283 44.3218 34.335 44.4385 34.2883 44.5785C34.1949 44.7885 34.1716 44.9986 34.1483 45.2319C34.1483 45.3019 34.1016 45.372 34.1016 45.4653V104.486C34.1016 104.486 34.1483 104.672 34.1483 104.742C34.1483 104.976 34.1949 105.186 34.2883 105.396C34.335 105.536 34.4517 105.652 34.5217 105.769C34.615 105.886 34.6617 106.026 34.7784 106.142C34.9417 106.306 35.1284 106.399 35.3151 106.516C35.3852 106.563 35.4318 106.633 35.5252 106.656C42.2696 109.573 46.6104 116.224 46.6104 123.599C46.6104 129.69 43.5999 135.244 38.7924 138.651Z" fill="#663366"/>
<path d="M135.151 66.8463H131.977V58.1882C131.977 48.5966 124.182 40.8015 114.614 40.8015H91.4176C90.3441 32.7034 83.3896 26.4258 74.9882 26.4258C66.5869 26.4258 59.6552 32.7034 58.5589 40.8015H53.238C51.9545 40.8015 50.9043 41.8516 50.9043 43.1352C50.9043 44.4187 51.9545 45.4689 53.238 45.4689H114.615C121.616 45.4689 127.31 51.1632 127.31 58.1876V106.193C127.31 113.194 121.616 118.888 114.615 118.888H58.2086C56.9251 118.888 55.8749 119.938 55.8749 121.222C55.8749 122.505 56.9251 123.556 58.2086 123.556H114.615C124.183 123.556 131.978 115.761 131.978 106.193V97.5346H135.152C140.589 97.5346 145 93.1239 145 87.6862V76.6944C145 71.2569 140.589 66.8463 135.151 66.8463ZM74.9882 31.117C80.7991 31.117 85.6533 35.3176 86.6801 40.8252H63.2967C64.3235 35.2943 69.1773 31.117 74.9882 31.117ZM140.332 87.7101C140.332 90.5806 137.999 92.891 135.151 92.891H132.001V71.5373H135.151C138.022 71.5373 140.332 73.8711 140.332 76.7183V87.7101Z" fill="#663366"/>
<path d="M48.9674 59.0508C47.6139 59.0508 46.3071 59.2608 45.0701 59.6575C43.8565 60.0543 43.1798 61.3844 43.5765 62.5981C43.9732 63.8118 45.3034 64.4884 46.5171 64.0917C47.2872 63.835 48.104 63.7183 48.9674 63.7183C53.4248 63.7183 57.042 67.3356 57.042 71.7929C57.042 76.2501 53.4247 79.8674 48.9674 79.8674C48.1039 79.8674 47.2871 79.7508 46.5171 79.4941C45.2802 79.0973 43.9733 79.7741 43.5765 80.9876C43.1798 82.2245 43.8565 83.5313 45.0701 83.9282C46.3069 84.3249 47.6138 84.5349 48.9674 84.5349C55.9919 84.5349 61.7094 78.8174 61.7094 71.7929C61.7094 64.7685 55.9919 59.0508 48.9674 59.0508Z" fill="#663366"/>
<path d="M101.01 84.5348C108.034 84.5348 113.752 78.8172 113.752 71.7928C113.752 64.7683 108.034 59.0508 101.01 59.0508C93.9851 59.0508 88.2676 64.7683 88.2676 71.7928C88.2676 78.8172 93.9851 84.5348 101.01 84.5348ZM101.01 63.7173C105.467 63.7173 109.084 67.3346 109.084 71.7919C109.084 76.2492 105.467 79.8665 101.01 79.8665C96.5523 79.8665 92.935 76.2492 92.935 71.7919C92.935 67.3346 96.5523 63.7173 101.01 63.7173Z" fill="#663366"/>
<path d="M86.4009 90.9266C82.0835 95.0339 76.9726 95.5007 74.989 95.5007C69.0147 95.5007 65.024 92.3035 63.5772 90.9266C62.6437 90.0398 61.1734 90.0631 60.2867 90.9966C59.4 91.9301 59.4232 93.4004 60.3567 94.2871C62.2004 96.0374 67.3346 100.145 74.9891 100.145C77.5329 100.145 84.0673 99.5847 89.6216 94.2871C90.5551 93.4003 90.6017 91.9301 89.6916 90.9966C88.8048 90.0631 87.3343 90.0164 86.4009 90.9266Z" fill="#663366"/>
</svg>
