<svg width="150" height="150" viewBox="0 0 150 150" fill="none" xmlns="http://www.w3.org/2000/svg">
<path d="M34.5607 5H76.6448C81.7739 5 85.831 8.63664 86.6928 13.3243H90.1193C95.4586 13.3243 99.5157 18.2432 98.885 23.3724C110.215 37.6877 107.861 57.5526 93.9661 69.3033C91.822 71.2162 89.4886 72.7297 86.9241 74.2222V83.8288C93.3355 81.2643 100.167 79.1201 107.209 80.4024C117.468 82.5465 124.51 90.4504 126.002 100.477C127.915 99.6156 129.849 99.1952 131.762 99.4054C140.086 99.8258 145.215 107.309 144.795 115.213C144.375 123.538 137.963 134.447 120.453 144.685C119.822 145.105 119.17 145.105 118.54 144.685C101.029 134.426 94.6178 123.538 94.1973 115.213C93.7769 107.309 98.906 99.8258 107.23 99.4054C109.585 99.1952 111.939 99.8258 114.272 101.108C113.2 96.3994 110.215 92.994 105.086 91.9219C99.5367 90.8498 92.0532 94.0661 86.9241 96.1892V107.94C86.9241 113.489 82.4466 118.198 76.6658 118.198H34.5607C28.8009 118.198 24.3024 113.489 24.3024 107.94V74.2012C21.5277 72.7087 19.1733 71.2162 17.2604 69.2823C3.15528 57.5315 0.821948 37.6667 12.3415 23.3514C11.4796 18.2432 15.7679 13.3243 21.1072 13.3243H24.3024C25.3745 8.61562 29.4316 5 34.5607 5ZM86.882 87.6547V92.3634C93.5036 89.5886 99.915 87.2342 105.675 88.3063C113.789 89.7988 118.056 96.4204 118.287 104.324C118.708 104.745 119.149 105.186 119.57 105.817C120.432 104.535 121.483 103.462 122.555 102.622C121.924 93.2252 115.933 85.7417 106.537 84.039C99.915 82.7357 93.2934 85.0901 86.882 87.6547ZM61.4676 83.5976C60.6057 95.3483 77.6958 87.6547 83.2454 85.3003V75.9039C77.906 78.2583 71.4946 79.961 64.2424 80.6126C63.4015 81.8949 62.5397 82.7357 61.4676 83.5976ZM83.2664 89.1471C75.7829 92.1321 58.2724 98.7537 57.852 85.0901C56.3595 85.5105 54.867 85.5105 53.3745 85.0901C53.3745 92.3423 57.2214 97.2613 64.915 97.7027C71.1162 98.1231 78.1583 95.7898 83.2874 93.8559V89.1471H83.2664ZM83.2664 97.7027C77.7168 99.6156 71.0952 101.55 65.1042 101.339C54.6358 100.919 49.0862 93.6456 49.7168 83.6186C48.6448 82.7567 47.5727 81.9159 46.9421 80.6336C39.6898 80.003 33.2784 78.2793 27.9391 75.9249V102.832H83.2664V97.7027ZM55.4976 65.015C58.6928 65.015 61.6988 66.5075 63.4015 68.8619C71.7259 67.7898 78.3475 65.6667 83.2664 62.4504V20.3664H27.9391V62.4504C32.858 65.6456 39.4796 67.7898 47.5937 68.8619C49.5066 66.5075 52.4916 65.015 55.4976 65.015ZM65.3144 72.2673C65.7349 73.7598 65.9451 75.2523 65.7349 76.7447C77.0652 75.2523 85.5997 71.6156 91.5907 66.4865C103.341 56.4384 105.906 40 97.1403 27.3874C96.2784 28.2492 95.4376 29.0901 94.3655 29.7417C101.849 41.9129 98.0021 56.2282 86.6718 64.5526C81.3325 68.4414 74.2904 71.2162 65.3144 72.2673ZM45.4496 76.7658C45.2394 75.2733 45.4496 73.7808 45.87 72.2883C36.894 71.2162 29.852 68.4414 24.7229 64.8048C13.1823 56.4805 9.33546 41.955 16.8189 29.7628C15.7469 29.1321 14.906 28.2703 14.0442 27.4084C5.27841 40.021 7.84297 56.4595 19.5937 66.5075C25.5847 71.6366 34.1403 75.2733 45.4496 76.7658ZM55.4976 68.8619C52.0712 68.8619 49.0862 71.6366 49.0862 75.2733C49.0862 78.6997 52.0712 81.6847 55.4976 81.6847C59.1343 81.6847 61.909 78.6997 61.909 75.2733C61.909 71.6366 59.1132 68.8619 55.4976 68.8619ZM90.5187 30.8348H86.882V59.4655C95.2274 51.7718 96.9301 40.2312 90.5187 30.8348ZM24.3024 59.4655V30.8348H20.4556C14.2754 40.2312 15.9781 51.7718 24.3024 59.4655ZM51.4406 24.6336H59.7649C61.909 24.6336 63.822 26.5465 63.822 28.6907V35.7327H70.6538C73.0081 35.7327 74.7108 37.4354 74.7108 39.5796V47.9039C74.7108 50.2583 73.0081 51.961 70.6538 51.961H63.822V59.003C63.822 61.1471 61.909 62.8498 59.7649 62.8498H51.4406C49.2964 62.8498 47.3835 61.1471 47.3835 59.003V51.961H40.3415C38.1973 51.961 36.4946 50.2583 36.4946 47.9039V39.5796C36.4946 37.4354 38.1973 35.7327 40.3415 35.7327H47.3835V28.6907C47.3835 26.5676 49.2964 24.6336 51.4406 24.6336ZM59.7649 28.4805H51.4406C51.2304 28.4805 51.2304 28.4805 51.2304 28.6907V37.4565C51.2304 38.5285 50.3685 39.3694 49.3174 39.3694H40.3415L40.1313 39.5796V47.9039C40.1313 48.1141 40.3415 48.1141 40.3415 48.1141H49.3174C50.3895 48.1141 51.2304 48.976 51.2304 50.027V59.003C51.2304 59.003 51.2304 59.2132 51.4406 59.2132H59.7649C59.9751 59.2132 59.9751 59.003 59.9751 59.003V50.027C59.9751 48.955 60.837 48.1141 61.888 48.1141H70.6538C70.864 48.1141 70.864 48.1141 70.864 47.9039V39.5796C70.864 39.5796 70.864 39.3694 70.6538 39.3694H61.888C60.8159 39.3694 59.9751 38.5075 59.9751 37.4565V28.6907C59.9751 28.4805 59.9751 28.4805 59.7649 28.4805ZM24.3024 26.988V17.1712H21.1072C18.3325 17.1712 15.9781 19.3153 15.9781 22.0901C15.9781 24.8649 18.3325 27.009 21.1072 27.009H24.3024V26.988ZM86.882 17.1712V26.988H90.0772C92.852 26.988 94.9961 24.8438 94.9961 22.0691C94.9961 19.2943 92.852 17.1501 90.0772 17.1501H86.882V17.1712ZM106.537 125.682C104.182 125.682 104.182 122.045 106.537 122.045H109.732L112.738 110.946C113.158 109.033 115.933 109.033 116.375 110.946L119.801 125.892L122.366 116.706C122.786 114.793 125.35 114.793 126.002 116.495L128.987 123.327H131.762C134.116 123.327 134.116 126.964 131.762 126.964H127.705C127.074 126.964 126.423 126.544 126.002 125.892L124.72 122.697L121.525 134.027C121.104 135.73 118.329 135.73 117.888 133.817L114.462 119.081L112.948 124.189C112.738 125.051 112.086 125.682 111.245 125.682H106.537ZM119.57 140.838C134.957 131.652 140.717 122.255 140.927 114.982C141.347 109.222 137.732 103.441 131.741 103.021C128.104 103.021 124.047 104.934 121.062 110.273C120.432 111.556 118.498 111.556 117.867 110.273C115.092 104.934 111.035 103.021 107.399 103.021C101.197 103.441 97.7919 109.222 98.0021 114.982C98.4226 122.255 103.972 131.652 119.57 140.838ZM54.2153 112.228C51.6508 112.228 51.6508 108.381 54.2153 108.381H56.9901C59.3445 108.381 59.3445 112.228 56.9901 112.228H54.2153ZM83.2664 106.447H27.9391V107.94C27.9391 111.366 30.9241 114.351 34.5607 114.351H76.6448C80.2814 114.351 83.2664 111.366 83.2664 107.94V106.447ZM83.2664 16.5195V15.2372C83.2664 11.6006 80.2814 8.61562 76.6448 8.61562H34.5607C30.9241 8.61562 27.9391 11.6006 27.9391 15.2372V16.5195H83.2664Z" fill="#663366"/>
</svg>
