<svg width="150" height="150" viewBox="0 0 150 150" fill="none" xmlns="http://www.w3.org/2000/svg">
<path d="M74.4209 52.6387C77.9017 52.6387 81.2404 54.0196 83.7031 56.4795C86.1658 58.9394 87.5507 62.277 87.5547 65.7578C87.5576 68.356 86.7899 70.8968 85.3486 73.0586C83.9073 75.2203 81.8574 76.9059 79.458 77.9023C77.0584 78.8987 74.4168 79.1612 71.8682 78.6562C69.3194 78.1512 66.977 76.9017 65.1387 75.0654C63.3004 73.2293 62.0481 70.8889 61.54 68.3408C61.032 65.7927 61.2916 63.1508 62.2852 60.75C63.2788 58.3492 64.9619 56.2964 67.1221 54.8525C69.2823 53.4087 71.8226 52.6387 74.4209 52.6387ZM78.2217 56.582C76.407 55.8304 74.4098 55.6344 72.4834 56.0176C70.557 56.4008 68.7873 57.3465 67.3984 58.7354C66.0097 60.1242 65.0638 61.894 64.6807 63.8203C64.2976 65.7466 64.4945 67.7431 65.2461 69.5576C65.9977 71.3722 67.2703 72.9234 68.9033 74.0146C70.5364 75.1059 72.4568 75.6885 74.4209 75.6885L74.9131 75.6758C77.3663 75.5506 79.6933 74.5205 81.4385 72.7754C83.2999 70.9139 84.3475 68.3903 84.3516 65.7578L84.3447 65.3896C84.2767 63.5544 83.7007 61.7713 82.6777 60.2402C81.5865 58.6072 80.0362 57.3337 78.2217 56.582Z" fill="#663366" stroke="#663366" stroke-width="0.2"/>
<mask id="path-2-outside-1_661_3378" maskUnits="userSpaceOnUse" x="4" y="4" width="142" height="141" fill="black">
<rect fill="white" x="4" y="4" width="142" height="141"/>
<path d="M144.892 73.4746L137.564 54.0584C137.457 53.771 137.264 53.5234 137.012 53.3489C136.759 53.1744 136.46 53.0814 136.153 53.0824H126.452C126.145 53.0814 125.846 53.1744 125.593 53.3489C125.341 53.5234 125.148 53.771 125.041 54.0584L118.073 72.5736H94.7678V36.5343C94.7611 36.3707 94.7307 36.2088 94.6777 36.0538L83.3403 6.02112C83.2404 5.72529 83.0508 5.46796 82.7978 5.28494C82.5448 5.10192 82.241 5.00233 81.9288 5.00001H66.9124C66.6056 4.99901 66.3059 5.09202 66.0535 5.26653C65.8011 5.44104 65.6083 5.68866 65.5009 5.97607L54.1635 36.0088C54.1105 36.1638 54.0801 36.3256 54.0734 36.4893V72.5736H31.9093L24.9417 54.0584C24.8343 53.771 24.6415 53.5234 24.3891 53.3489C24.1368 53.1744 23.837 53.0814 23.5302 53.0824H13.8296C13.5228 53.0814 13.223 53.1744 12.9707 53.3489C12.7183 53.5234 12.5255 53.771 12.4181 54.0584L5.0901 73.4746C5.0301 73.6277 4.99953 73.7907 5.00001 73.9551V142.805C5.00001 143.203 5.15821 143.585 5.43982 143.867C5.72144 144.149 6.10338 144.307 6.50164 144.307H143.496C143.894 144.307 144.276 144.149 144.558 143.867C144.839 143.585 144.997 143.203 144.997 142.805V74.0752C145.01 73.8695 144.974 73.6637 144.892 73.4746ZM14.8658 56.0556H22.4941L28.6958 72.5736H25.0769L19.9863 63.5638C19.8565 63.3291 19.6661 63.1334 19.435 62.9972C19.204 62.861 18.9406 62.7891 18.6724 62.7891C18.4042 62.7891 18.1408 62.861 17.9097 62.9972C17.6787 63.1334 17.4883 63.3291 17.3585 63.5638L12.2829 72.5736H8.664L14.8658 56.0556ZM23.0196 141.273H14.3552V127.759C14.3552 126.608 14.8124 125.504 15.6263 124.69C16.4401 123.876 17.544 123.419 18.6949 123.419C19.8459 123.419 20.9497 123.876 21.7636 124.69C22.5774 125.504 23.0346 126.608 23.0346 127.759L23.0196 141.273ZM29.3715 89.452V141.303H26.0229V127.789C26.0229 125.841 25.2493 123.974 23.8722 122.596C22.4951 121.219 20.6274 120.446 18.6799 120.446C16.7324 120.446 14.8647 121.219 13.4876 122.596C12.1105 123.974 11.3369 125.841 11.3369 127.789V141.303H7.98826V75.5769H13.1539C13.4185 75.5779 13.6787 75.509 13.9081 75.3772C14.1375 75.2453 14.328 75.0552 14.4603 74.826L18.6799 67.3179L22.8995 74.826C23.0318 75.0552 23.2223 75.2453 23.4517 75.3772C23.6811 75.509 23.9413 75.5779 24.2059 75.5769H29.3715V89.452ZM47.5564 141.303H38.8769V127.789C38.8769 126.638 39.3341 125.534 40.148 124.72C40.9618 123.906 42.0657 123.449 43.2166 123.449C44.3676 123.449 45.4714 123.906 46.2853 124.72C47.0991 125.534 47.5564 126.638 47.5564 127.789V141.303ZM54.0734 141.303H50.5596V127.789C50.5596 125.841 49.786 123.974 48.4089 122.596C47.0318 121.219 45.1641 120.446 43.2166 120.446C41.2691 120.446 39.4014 121.219 38.0243 122.596C36.6473 123.974 35.8736 125.841 35.8736 127.789V141.303H32.3748V90.9536H54.0734V141.303ZM54.0734 87.9503H32.3748V75.5769H54.0734V87.9503ZM67.9486 8.00328H80.8927L91.1038 35.0327H79.9316L75.9222 17.4486C75.8409 17.1239 75.6533 16.8357 75.3894 16.6298C75.1255 16.4238 74.8004 16.312 74.4657 16.312C74.1309 16.312 73.8058 16.4238 73.5419 16.6298C73.278 16.8357 73.0904 17.1239 73.0091 17.4486L68.9096 35.0327H57.7374L67.9486 8.00328ZM57.0767 38.036H68.2188L67.453 41.3696H63.0983C62.7 41.3696 62.3181 41.5278 62.0365 41.8094C61.7548 42.091 61.5966 42.473 61.5966 42.8713V50.0491H57.0917L57.0767 38.036ZM82.6045 141.303H66.2968V118.013C66.2968 115.851 67.1558 113.777 68.685 112.247C70.2141 110.718 72.2881 109.859 74.4506 109.859C76.6132 109.859 78.6871 110.718 80.2163 112.247C81.7455 113.777 82.6045 115.851 82.6045 118.013V141.303ZM91.7645 141.303H85.6078V118.013C85.6078 115.054 84.4323 112.216 82.3399 110.124C80.2476 108.031 77.4097 106.856 74.4506 106.856C71.4916 106.856 68.6537 108.031 66.5613 110.124C64.469 112.216 63.2935 115.054 63.2935 118.013V141.303H57.0767V53.0523H63.0833C63.4815 53.0523 63.8635 52.8941 64.1451 52.6125C64.4267 52.3309 64.5849 51.949 64.5849 51.5507V44.3729H68.6393C68.9864 44.3814 69.3258 44.2693 69.5995 44.0557C69.8733 43.8422 70.0647 43.5404 70.1409 43.2016L74.4206 24.5213L78.7153 43.2316C78.7916 43.5704 78.9829 43.8722 79.2567 44.0858C79.5305 44.2993 79.8698 44.4114 80.2169 44.4029H84.2713V51.5507C84.2713 51.949 84.4295 52.3309 84.7112 52.6125C84.9928 52.8941 85.3747 53.0523 85.773 53.0523H91.7795L91.7645 141.303ZM91.7645 50.0491H87.2596V42.8713C87.2596 42.473 87.1014 42.091 86.8198 41.8094C86.5382 41.5278 86.1562 41.3696 85.7579 41.3696H81.4032L80.6224 38.036H91.7645V50.0491ZM110.535 141.303H101.855V127.789C101.855 126.638 102.313 125.534 103.127 124.72C103.94 123.906 105.044 123.449 106.195 123.449C107.346 123.449 108.45 123.906 109.264 124.72C110.078 125.534 110.535 126.638 110.535 127.789V141.303ZM117.608 141.303H113.538V127.789C113.538 125.841 112.765 123.974 111.387 122.596C110.01 121.219 108.143 120.446 106.195 120.446C104.248 120.446 102.38 121.219 101.003 122.596C99.6258 123.974 98.8522 125.841 98.8522 127.789V141.303H94.7678V90.9536H117.608V141.303ZM117.608 87.9503H94.7678V75.5769H117.608V87.9503ZM127.488 56.0556H135.117L141.318 72.5736H137.7L132.609 63.5638C132.479 63.3291 132.289 63.1334 132.058 62.9972C131.827 62.861 131.563 62.7891 131.295 62.7891C131.027 62.7891 130.763 62.861 130.532 62.9972C130.301 63.1334 130.111 63.3291 129.981 63.5638L124.891 72.5736H121.287L127.488 56.0556ZM135.642 141.273H126.978V127.759C126.978 126.608 127.435 125.504 128.249 124.69C129.063 123.876 130.167 123.419 131.318 123.419C132.469 123.419 133.572 123.876 134.386 124.69C135.2 125.504 135.657 126.608 135.657 127.759L135.642 141.273ZM141.994 141.213V141.303H138.646V127.789C138.646 125.841 137.872 123.974 136.495 122.596C135.118 121.219 133.25 120.446 131.303 120.446C129.355 120.446 127.487 121.219 126.11 122.596C124.733 123.974 123.96 125.841 123.96 127.789V141.303H120.611V75.5769H125.777C126.041 75.5779 126.301 75.509 126.531 75.3772C126.76 75.2453 126.951 75.0552 127.083 74.826L131.303 67.3179L135.522 74.826C135.654 75.0552 135.845 75.2453 136.074 75.3772C136.304 75.509 136.564 75.5779 136.829 75.5769H141.994V141.213Z"/>
</mask>
<path d="M144.892 73.4746L137.564 54.0584C137.457 53.771 137.264 53.5234 137.012 53.3489C136.759 53.1744 136.46 53.0814 136.153 53.0824H126.452C126.145 53.0814 125.846 53.1744 125.593 53.3489C125.341 53.5234 125.148 53.771 125.041 54.0584L118.073 72.5736H94.7678V36.5343C94.7611 36.3707 94.7307 36.2088 94.6777 36.0538L83.3403 6.02112C83.2404 5.72529 83.0508 5.46796 82.7978 5.28494C82.5448 5.10192 82.241 5.00233 81.9288 5.00001H66.9124C66.6056 4.99901 66.3059 5.09202 66.0535 5.26653C65.8011 5.44104 65.6083 5.68866 65.5009 5.97607L54.1635 36.0088C54.1105 36.1638 54.0801 36.3256 54.0734 36.4893V72.5736H31.9093L24.9417 54.0584C24.8343 53.771 24.6415 53.5234 24.3891 53.3489C24.1368 53.1744 23.837 53.0814 23.5302 53.0824H13.8296C13.5228 53.0814 13.223 53.1744 12.9707 53.3489C12.7183 53.5234 12.5255 53.771 12.4181 54.0584L5.0901 73.4746C5.0301 73.6277 4.99953 73.7907 5.00001 73.9551V142.805C5.00001 143.203 5.15821 143.585 5.43982 143.867C5.72144 144.149 6.10338 144.307 6.50164 144.307H143.496C143.894 144.307 144.276 144.149 144.558 143.867C144.839 143.585 144.997 143.203 144.997 142.805V74.0752C145.01 73.8695 144.974 73.6637 144.892 73.4746ZM14.8658 56.0556H22.4941L28.6958 72.5736H25.0769L19.9863 63.5638C19.8565 63.3291 19.6661 63.1334 19.435 62.9972C19.204 62.861 18.9406 62.7891 18.6724 62.7891C18.4042 62.7891 18.1408 62.861 17.9097 62.9972C17.6787 63.1334 17.4883 63.3291 17.3585 63.5638L12.2829 72.5736H8.664L14.8658 56.0556ZM23.0196 141.273H14.3552V127.759C14.3552 126.608 14.8124 125.504 15.6263 124.69C16.4401 123.876 17.544 123.419 18.6949 123.419C19.8459 123.419 20.9497 123.876 21.7636 124.69C22.5774 125.504 23.0346 126.608 23.0346 127.759L23.0196 141.273ZM29.3715 89.452V141.303H26.0229V127.789C26.0229 125.841 25.2493 123.974 23.8722 122.596C22.4951 121.219 20.6274 120.446 18.6799 120.446C16.7324 120.446 14.8647 121.219 13.4876 122.596C12.1105 123.974 11.3369 125.841 11.3369 127.789V141.303H7.98826V75.5769H13.1539C13.4185 75.5779 13.6787 75.509 13.9081 75.3772C14.1375 75.2453 14.328 75.0552 14.4603 74.826L18.6799 67.3179L22.8995 74.826C23.0318 75.0552 23.2223 75.2453 23.4517 75.3772C23.6811 75.509 23.9413 75.5779 24.2059 75.5769H29.3715V89.452ZM47.5564 141.303H38.8769V127.789C38.8769 126.638 39.3341 125.534 40.148 124.72C40.9618 123.906 42.0657 123.449 43.2166 123.449C44.3676 123.449 45.4714 123.906 46.2853 124.72C47.0991 125.534 47.5564 126.638 47.5564 127.789V141.303ZM54.0734 141.303H50.5596V127.789C50.5596 125.841 49.786 123.974 48.4089 122.596C47.0318 121.219 45.1641 120.446 43.2166 120.446C41.2691 120.446 39.4014 121.219 38.0243 122.596C36.6473 123.974 35.8736 125.841 35.8736 127.789V141.303H32.3748V90.9536H54.0734V141.303ZM54.0734 87.9503H32.3748V75.5769H54.0734V87.9503ZM67.9486 8.00328H80.8927L91.1038 35.0327H79.9316L75.9222 17.4486C75.8409 17.1239 75.6533 16.8357 75.3894 16.6298C75.1255 16.4238 74.8004 16.312 74.4657 16.312C74.1309 16.312 73.8058 16.4238 73.5419 16.6298C73.278 16.8357 73.0904 17.1239 73.0091 17.4486L68.9096 35.0327H57.7374L67.9486 8.00328ZM57.0767 38.036H68.2188L67.453 41.3696H63.0983C62.7 41.3696 62.3181 41.5278 62.0365 41.8094C61.7548 42.091 61.5966 42.473 61.5966 42.8713V50.0491H57.0917L57.0767 38.036ZM82.6045 141.303H66.2968V118.013C66.2968 115.851 67.1558 113.777 68.685 112.247C70.2141 110.718 72.2881 109.859 74.4506 109.859C76.6132 109.859 78.6871 110.718 80.2163 112.247C81.7455 113.777 82.6045 115.851 82.6045 118.013V141.303ZM91.7645 141.303H85.6078V118.013C85.6078 115.054 84.4323 112.216 82.3399 110.124C80.2476 108.031 77.4097 106.856 74.4506 106.856C71.4916 106.856 68.6537 108.031 66.5613 110.124C64.469 112.216 63.2935 115.054 63.2935 118.013V141.303H57.0767V53.0523H63.0833C63.4815 53.0523 63.8635 52.8941 64.1451 52.6125C64.4267 52.3309 64.5849 51.949 64.5849 51.5507V44.3729H68.6393C68.9864 44.3814 69.3258 44.2693 69.5995 44.0557C69.8733 43.8422 70.0647 43.5404 70.1409 43.2016L74.4206 24.5213L78.7153 43.2316C78.7916 43.5704 78.9829 43.8722 79.2567 44.0858C79.5305 44.2993 79.8698 44.4114 80.2169 44.4029H84.2713V51.5507C84.2713 51.949 84.4295 52.3309 84.7112 52.6125C84.9928 52.8941 85.3747 53.0523 85.773 53.0523H91.7795L91.7645 141.303ZM91.7645 50.0491H87.2596V42.8713C87.2596 42.473 87.1014 42.091 86.8198 41.8094C86.5382 41.5278 86.1562 41.3696 85.7579 41.3696H81.4032L80.6224 38.036H91.7645V50.0491ZM110.535 141.303H101.855V127.789C101.855 126.638 102.313 125.534 103.127 124.72C103.94 123.906 105.044 123.449 106.195 123.449C107.346 123.449 108.45 123.906 109.264 124.72C110.078 125.534 110.535 126.638 110.535 127.789V141.303ZM117.608 141.303H113.538V127.789C113.538 125.841 112.765 123.974 111.387 122.596C110.01 121.219 108.143 120.446 106.195 120.446C104.248 120.446 102.38 121.219 101.003 122.596C99.6258 123.974 98.8522 125.841 98.8522 127.789V141.303H94.7678V90.9536H117.608V141.303ZM117.608 87.9503H94.7678V75.5769H117.608V87.9503ZM127.488 56.0556H135.117L141.318 72.5736H137.7L132.609 63.5638C132.479 63.3291 132.289 63.1334 132.058 62.9972C131.827 62.861 131.563 62.7891 131.295 62.7891C131.027 62.7891 130.763 62.861 130.532 62.9972C130.301 63.1334 130.111 63.3291 129.981 63.5638L124.891 72.5736H121.287L127.488 56.0556ZM135.642 141.273H126.978V127.759C126.978 126.608 127.435 125.504 128.249 124.69C129.063 123.876 130.167 123.419 131.318 123.419C132.469 123.419 133.572 123.876 134.386 124.69C135.2 125.504 135.657 126.608 135.657 127.759L135.642 141.273ZM141.994 141.213V141.303H138.646V127.789C138.646 125.841 137.872 123.974 136.495 122.596C135.118 121.219 133.25 120.446 131.303 120.446C129.355 120.446 127.487 121.219 126.11 122.596C124.733 123.974 123.96 125.841 123.96 127.789V141.303H120.611V75.5769H125.777C126.041 75.5779 126.301 75.509 126.531 75.3772C126.76 75.2453 126.951 75.0552 127.083 74.826L131.303 67.3179L135.522 74.826C135.654 75.0552 135.845 75.2453 136.074 75.3772C136.304 75.509 136.564 75.5779 136.829 75.5769H141.994V141.213Z" fill="#663366"/>
<path d="M144.892 73.4746L137.564 54.0584C137.457 53.771 137.264 53.5234 137.012 53.3489C136.759 53.1744 136.46 53.0814 136.153 53.0824H126.452C126.145 53.0814 125.846 53.1744 125.593 53.3489C125.341 53.5234 125.148 53.771 125.041 54.0584L118.073 72.5736H94.7678V36.5343C94.7611 36.3707 94.7307 36.2088 94.6777 36.0538L83.3403 6.02112C83.2404 5.72529 83.0508 5.46796 82.7978 5.28494C82.5448 5.10192 82.241 5.00233 81.9288 5.00001H66.9124C66.6056 4.99901 66.3059 5.09202 66.0535 5.26653C65.8011 5.44104 65.6083 5.68866 65.5009 5.97607L54.1635 36.0088C54.1105 36.1638 54.0801 36.3256 54.0734 36.4893V72.5736H31.9093L24.9417 54.0584C24.8343 53.771 24.6415 53.5234 24.3891 53.3489C24.1368 53.1744 23.837 53.0814 23.5302 53.0824H13.8296C13.5228 53.0814 13.223 53.1744 12.9707 53.3489C12.7183 53.5234 12.5255 53.771 12.4181 54.0584L5.0901 73.4746C5.0301 73.6277 4.99953 73.7907 5.00001 73.9551V142.805C5.00001 143.203 5.15821 143.585 5.43982 143.867C5.72144 144.149 6.10338 144.307 6.50164 144.307H143.496C143.894 144.307 144.276 144.149 144.558 143.867C144.839 143.585 144.997 143.203 144.997 142.805V74.0752C145.01 73.8695 144.974 73.6637 144.892 73.4746ZM14.8658 56.0556H22.4941L28.6958 72.5736H25.0769L19.9863 63.5638C19.8565 63.3291 19.6661 63.1334 19.435 62.9972C19.204 62.861 18.9406 62.7891 18.6724 62.7891C18.4042 62.7891 18.1408 62.861 17.9097 62.9972C17.6787 63.1334 17.4883 63.3291 17.3585 63.5638L12.2829 72.5736H8.664L14.8658 56.0556ZM23.0196 141.273H14.3552V127.759C14.3552 126.608 14.8124 125.504 15.6263 124.69C16.4401 123.876 17.544 123.419 18.6949 123.419C19.8459 123.419 20.9497 123.876 21.7636 124.69C22.5774 125.504 23.0346 126.608 23.0346 127.759L23.0196 141.273ZM29.3715 89.452V141.303H26.0229V127.789C26.0229 125.841 25.2493 123.974 23.8722 122.596C22.4951 121.219 20.6274 120.446 18.6799 120.446C16.7324 120.446 14.8647 121.219 13.4876 122.596C12.1105 123.974 11.3369 125.841 11.3369 127.789V141.303H7.98826V75.5769H13.1539C13.4185 75.5779 13.6787 75.509 13.9081 75.3772C14.1375 75.2453 14.328 75.0552 14.4603 74.826L18.6799 67.3179L22.8995 74.826C23.0318 75.0552 23.2223 75.2453 23.4517 75.3772C23.6811 75.509 23.9413 75.5779 24.2059 75.5769H29.3715V89.452ZM47.5564 141.303H38.8769V127.789C38.8769 126.638 39.3341 125.534 40.148 124.72C40.9618 123.906 42.0657 123.449 43.2166 123.449C44.3676 123.449 45.4714 123.906 46.2853 124.72C47.0991 125.534 47.5564 126.638 47.5564 127.789V141.303ZM54.0734 141.303H50.5596V127.789C50.5596 125.841 49.786 123.974 48.4089 122.596C47.0318 121.219 45.1641 120.446 43.2166 120.446C41.2691 120.446 39.4014 121.219 38.0243 122.596C36.6473 123.974 35.8736 125.841 35.8736 127.789V141.303H32.3748V90.9536H54.0734V141.303ZM54.0734 87.9503H32.3748V75.5769H54.0734V87.9503ZM67.9486 8.00328H80.8927L91.1038 35.0327H79.9316L75.9222 17.4486C75.8409 17.1239 75.6533 16.8357 75.3894 16.6298C75.1255 16.4238 74.8004 16.312 74.4657 16.312C74.1309 16.312 73.8058 16.4238 73.5419 16.6298C73.278 16.8357 73.0904 17.1239 73.0091 17.4486L68.9096 35.0327H57.7374L67.9486 8.00328ZM57.0767 38.036H68.2188L67.453 41.3696H63.0983C62.7 41.3696 62.3181 41.5278 62.0365 41.8094C61.7548 42.091 61.5966 42.473 61.5966 42.8713V50.0491H57.0917L57.0767 38.036ZM82.6045 141.303H66.2968V118.013C66.2968 115.851 67.1558 113.777 68.685 112.247C70.2141 110.718 72.2881 109.859 74.4506 109.859C76.6132 109.859 78.6871 110.718 80.2163 112.247C81.7455 113.777 82.6045 115.851 82.6045 118.013V141.303ZM91.7645 141.303H85.6078V118.013C85.6078 115.054 84.4323 112.216 82.3399 110.124C80.2476 108.031 77.4097 106.856 74.4506 106.856C71.4916 106.856 68.6537 108.031 66.5613 110.124C64.469 112.216 63.2935 115.054 63.2935 118.013V141.303H57.0767V53.0523H63.0833C63.4815 53.0523 63.8635 52.8941 64.1451 52.6125C64.4267 52.3309 64.5849 51.949 64.5849 51.5507V44.3729H68.6393C68.9864 44.3814 69.3258 44.2693 69.5995 44.0557C69.8733 43.8422 70.0647 43.5404 70.1409 43.2016L74.4206 24.5213L78.7153 43.2316C78.7916 43.5704 78.9829 43.8722 79.2567 44.0858C79.5305 44.2993 79.8698 44.4114 80.2169 44.4029H84.2713V51.5507C84.2713 51.949 84.4295 52.3309 84.7112 52.6125C84.9928 52.8941 85.3747 53.0523 85.773 53.0523H91.7795L91.7645 141.303ZM91.7645 50.0491H87.2596V42.8713C87.2596 42.473 87.1014 42.091 86.8198 41.8094C86.5382 41.5278 86.1562 41.3696 85.7579 41.3696H81.4032L80.6224 38.036H91.7645V50.0491ZM110.535 141.303H101.855V127.789C101.855 126.638 102.313 125.534 103.127 124.72C103.94 123.906 105.044 123.449 106.195 123.449C107.346 123.449 108.45 123.906 109.264 124.72C110.078 125.534 110.535 126.638 110.535 127.789V141.303ZM117.608 141.303H113.538V127.789C113.538 125.841 112.765 123.974 111.387 122.596C110.01 121.219 108.143 120.446 106.195 120.446C104.248 120.446 102.38 121.219 101.003 122.596C99.6258 123.974 98.8522 125.841 98.8522 127.789V141.303H94.7678V90.9536H117.608V141.303ZM117.608 87.9503H94.7678V75.5769H117.608V87.9503ZM127.488 56.0556H135.117L141.318 72.5736H137.7L132.609 63.5638C132.479 63.3291 132.289 63.1334 132.058 62.9972C131.827 62.861 131.563 62.7891 131.295 62.7891C131.027 62.7891 130.763 62.861 130.532 62.9972C130.301 63.1334 130.111 63.3291 129.981 63.5638L124.891 72.5736H121.287L127.488 56.0556ZM135.642 141.273H126.978V127.759C126.978 126.608 127.435 125.504 128.249 124.69C129.063 123.876 130.167 123.419 131.318 123.419C132.469 123.419 133.572 123.876 134.386 124.69C135.2 125.504 135.657 126.608 135.657 127.759L135.642 141.273ZM141.994 141.213V141.303H138.646V127.789C138.646 125.841 137.872 123.974 136.495 122.596C135.118 121.219 133.25 120.446 131.303 120.446C129.355 120.446 127.487 121.219 126.11 122.596C124.733 123.974 123.96 125.841 123.96 127.789V141.303H120.611V75.5769H125.777C126.041 75.5779 126.301 75.509 126.531 75.3772C126.76 75.2453 126.951 75.0552 127.083 74.826L131.303 67.3179L135.522 74.826C135.654 75.0552 135.845 75.2453 136.074 75.3772C136.304 75.509 136.564 75.5779 136.829 75.5769H141.994V141.213Z" stroke="#663366" stroke-width="0.4" mask="url(#path-2-outside-1_661_3378)"/>
<path d="M24.5205 100.826V100.827C24.732 100.825 24.9417 100.864 25.1377 100.943C25.3339 101.023 25.5127 101.14 25.6631 101.289C25.8134 101.438 25.9322 101.615 26.0137 101.811C26.0952 102.006 26.1377 102.216 26.1377 102.428V114.11C26.1377 114.535 25.9683 114.943 25.668 115.243C25.3677 115.543 24.9606 115.712 24.5361 115.712H12.8535C12.4288 115.712 12.021 115.543 11.7207 115.243C11.4204 114.943 11.252 114.535 11.252 114.11V102.428C11.252 102.003 11.4203 101.595 11.7207 101.295C12.0211 100.995 12.4288 100.826 12.8535 100.826H24.5205ZM14.4551 112.509H22.9189L22.9346 104.029H14.4551V112.509Z" fill="#663366" stroke="#663366" stroke-width="0.2"/>
<path d="M24.5361 80.166C24.9607 80.1661 25.3677 80.3346 25.668 80.6348C25.9683 80.9351 26.1377 81.3428 26.1377 81.7676V93.4502C26.1376 93.8749 25.9683 94.2817 25.668 94.582C25.3677 94.8823 24.9608 95.0517 24.5361 95.0518H12.8535C12.4287 95.0518 12.0211 94.8824 11.7207 94.582C11.4205 94.2817 11.252 93.8748 11.252 93.4502V81.7676C11.252 81.3428 11.4203 80.9351 11.7207 80.6348C12.0211 80.3344 12.4287 80.166 12.8535 80.166H24.5361ZM14.4551 91.8486H22.9346V83.3691H14.4551V91.8486Z" fill="#663366" stroke="#663366" stroke-width="0.2"/>
<path d="M137.655 99.5059C138.08 99.5059 138.487 99.6744 138.787 99.9746C139.087 100.275 139.257 100.683 139.257 101.107V112.79C139.257 113.215 139.087 113.622 138.787 113.922C138.487 114.222 138.08 114.392 137.655 114.392H125.973C125.548 114.392 125.14 114.222 124.84 113.922C124.54 113.622 124.371 113.215 124.371 112.79V101.107C124.371 100.683 124.539 100.275 124.84 99.9746C125.14 99.6742 125.548 99.5059 125.973 99.5059H137.655ZM127.574 111.188H136.054V102.709H127.574V111.188Z" fill="#663366" stroke="#663366" stroke-width="0.2"/>
<path d="M137.655 78.8262C138.08 78.8262 138.487 78.9947 138.787 79.2949C139.087 79.5953 139.257 80.003 139.257 80.4277V92.0947C139.257 92.5195 139.087 92.9272 138.787 93.2275C138.487 93.5277 138.08 93.6962 137.655 93.6963H125.973C125.548 93.6963 125.14 93.5279 124.84 93.2275C124.54 92.9272 124.371 92.5195 124.371 92.0947V80.4277C124.371 80.003 124.539 79.5953 124.84 79.2949C125.14 78.9946 125.548 78.8262 125.973 78.8262H137.655ZM127.574 90.4932H136.054V82.0293H127.574V90.4932Z" fill="#663366" stroke="#663366" stroke-width="0.2"/>
</svg>
