<svg width="150" height="150" viewBox="0 0 150 150" fill="none" xmlns="http://www.w3.org/2000/svg">
<path d="M54.2247 100.886C58.929 100.575 62.4903 96.5093 62.1791 91.805C61.8679 87.1008 57.8021 83.5395 53.0979 83.8506C48.3936 84.1618 44.8323 88.2276 45.1435 92.9319C45.4547 97.6361 49.5205 101.197 54.2247 100.886Z" stroke="#663366" stroke-width="4.3" stroke-miterlimit="22.9256" stroke-linecap="round" stroke-linejoin="round"/>
<path d="M104.854 93.0797C105.245 88.3811 101.752 84.2553 97.0538 83.8644C92.3552 83.4736 88.2294 86.9657 87.8385 91.6643C87.4477 96.3629 90.9398 100.489 95.6384 100.88C100.337 101.27 104.463 97.7783 104.854 93.0797Z" stroke="#663366" stroke-width="4.3" stroke-miterlimit="22.9256" stroke-linecap="round" stroke-linejoin="round"/>
<path d="M67.0435 59.0469V72.0928H35.1631" stroke="#663366" stroke-width="4.3" stroke-miterlimit="22.9256" stroke-linecap="round" stroke-linejoin="round"/>
<path d="M101.195 71.8575L89.6509 57.625H41.879L33.7402 72.0937V93.7968H43.8182M63.4996 93.7968H86.5012M106.183 93.7968H116.261V72.0937H78.4256V58.5293" stroke="#663366" stroke-width="4.3" stroke-miterlimit="22.9256" stroke-linecap="round" stroke-linejoin="round"/>
<path d="M105.886 134.055L109.91 130.031" stroke="#663366" stroke-width="4.3" stroke-miterlimit="22.9256" stroke-linecap="round" stroke-linejoin="round"/>
<path d="M114.939 143.11L118.964 139.086" stroke="#663366" stroke-width="4.3" stroke-miterlimit="22.9256" stroke-linecap="round" stroke-linejoin="round"/>
<path fill-rule="evenodd" clip-rule="evenodd" d="M108.903 127.012L121.982 140.091L126.509 135.563C128.999 133.073 128.999 128.999 126.509 126.509L122.485 122.485C119.995 119.995 115.921 119.995 113.431 122.485L108.903 127.012Z" stroke="#663366" stroke-width="4.3" stroke-miterlimit="22.9256" stroke-linecap="round" stroke-linejoin="round"/>
<path d="M58.9033 28.7299C63.1725 24.4607 68.9628 22.0625 75.0002 22.0625C81.0375 22.0625 86.8279 24.461 91.0971 28.7299" stroke="#663366" stroke-width="4.3" stroke-miterlimit="22.9256" stroke-linecap="round" stroke-linejoin="round"/>
<path d="M66.9512 36.7791C69.0859 34.6447 71.9809 33.4453 74.9995 33.4453C78.0183 33.4453 80.9133 34.6444 83.0478 36.7791" stroke="#663366" stroke-width="4.3" stroke-miterlimit="22.9256" stroke-linecap="round" stroke-linejoin="round"/>
<path d="M75.001 44.8281H74.999" stroke="#663366" stroke-width="4.3" stroke-miterlimit="22.9256" stroke-linecap="round" stroke-linejoin="round"/>
<path d="M75 95.22V145C36.3401 145 5 113.66 5 75C5 36.3401 36.3401 5 75 5C113.66 5 145 36.3401 145 75C145 93.4393 137.725 111.129 124.763 124.23" stroke="#663366" stroke-width="4.3" stroke-miterlimit="22.9256" stroke-linecap="round" stroke-linejoin="round"/>
</svg>
