<svg width="150" height="150" viewBox="0 0 150 150" fill="none" xmlns="http://www.w3.org/2000/svg">
<path d="M94.4045 96.5703H88.002V111.765H94.4045" stroke="#663366" stroke-width="4.22535" stroke-miterlimit="10" stroke-linecap="round" stroke-linejoin="round"/>
<path d="M93.9324 104.168H88.002" stroke="#663366" stroke-width="4.22535" stroke-miterlimit="10" stroke-linecap="round" stroke-linejoin="round"/>
<path d="M130.649 96.5703H124.246V111.765H130.649" stroke="#663366" stroke-width="4.22535" stroke-miterlimit="10" stroke-linecap="round" stroke-linejoin="round"/>
<path d="M130.177 104.168H124.246" stroke="#663366" stroke-width="4.22535" stroke-miterlimit="10" stroke-linecap="round" stroke-linejoin="round"/>
<path d="M131.809 84.8581V63.3164" stroke="#663366" stroke-width="4.22535" stroke-miterlimit="10" stroke-linecap="round" stroke-linejoin="round"/>
<path d="M18.1914 63.3164V84.4874" stroke="#663366" stroke-width="4.22535" stroke-miterlimit="10" stroke-linecap="round" stroke-linejoin="round"/>
<path d="M107.864 37.4931V24.8599L77.9852 5.86831C76.1638 4.71056 73.8373 4.71056 72.0159 5.86831L42.1367 24.8599V37.4931" stroke="#663366" stroke-width="4.22535" stroke-miterlimit="10" stroke-linecap="round" stroke-linejoin="round"/>
<path d="M59.6002 37.4922H20.8509C19.0155 37.4922 17.4262 38.7666 17.027 40.5581L13.1383 58.0133C12.5932 60.4606 14.4552 62.7829 16.9622 62.7829H42.1357" stroke="#663366" stroke-width="4.22535" stroke-miterlimit="10" stroke-linecap="round" stroke-linejoin="round"/>
<path d="M107.864 62.7829H133.037C135.544 62.7829 137.406 60.4604 136.861 58.0133L132.972 40.5581C132.573 38.7666 130.984 37.4922 129.148 37.4922H90.3281" stroke="#663366" stroke-width="4.22535" stroke-miterlimit="10" stroke-linecap="round" stroke-linejoin="round"/>
<path d="M36.625 28.3619L42.1354 24.8594" stroke="#663366" stroke-width="4.22535" stroke-miterlimit="10" stroke-linecap="round" stroke-linejoin="round"/>
<path d="M113.374 28.3619L107.863 24.8594" stroke="#663366" stroke-width="4.22535" stroke-miterlimit="10" stroke-linecap="round" stroke-linejoin="round"/>
<path d="M42.1367 84.8592V76.5586" stroke="#663366" stroke-width="4.22535" stroke-miterlimit="10" stroke-linecap="round" stroke-linejoin="round"/>
<path d="M42.1367 66.6985V52.332C42.1367 50.15 43.2519 48.1196 45.0933 46.9492L72.0159 29.8371C73.8373 28.6793 76.1638 28.6793 77.9852 29.8371L104.908 46.9492C106.749 48.1196 107.864 50.15 107.864 52.332V84.8593" stroke="#663366" stroke-width="4.22535" stroke-miterlimit="10" stroke-linecap="round" stroke-linejoin="round"/>
<path d="M93.403 85.1419V64.4453H56.5957V85.1419" stroke="#663366" stroke-width="4.22535" stroke-miterlimit="10" stroke-linecap="round" stroke-linejoin="round"/>
<path d="M75 64.4453V85.0529" stroke="#663366" stroke-width="4.22535" stroke-miterlimit="10" stroke-linecap="round" stroke-linejoin="round"/>
<path d="M108.899 145H135.392C137.591 145 139.374 143.217 139.374 141.018V135.164H10.627V141.018C10.627 143.217 12.4098 145 14.6092 145H99.0385" stroke="#663366" stroke-width="4.22535" stroke-miterlimit="10" stroke-linecap="round" stroke-linejoin="round"/>
<path d="M128.141 123.074H21.8602C15.6562 123.074 10.627 128.104 10.627 134.307V135.164H139.374V134.307C139.374 128.103 134.345 123.074 128.141 123.074Z" stroke="#663366" stroke-width="4.22535" stroke-miterlimit="10" stroke-linecap="round" stroke-linejoin="round"/>
<path d="M61.4395 96.5703V111.752C61.6073 111.781 66.7603 111.752 66.7603 111.752" stroke="#663366" stroke-width="4.22535" stroke-miterlimit="10" stroke-linecap="round" stroke-linejoin="round"/>
<path d="M74.8711 96.5703V111.752C75.039 111.781 80.1919 111.752 80.1919 111.752" stroke="#663366" stroke-width="4.22535" stroke-miterlimit="10" stroke-linecap="round" stroke-linejoin="round"/>
<path d="M30.6325 97.8678C29.4198 97.0486 27.9581 96.5703 26.3846 96.5703C22.1885 96.5703 18.7871 99.9717 18.7871 104.168C18.7871 108.364 22.1885 111.765 26.3846 111.765C28.0888 111.765 29.4905 111.204 30.5542 110.257C30.7742 110.061 30.9798 109.848 31.1708 109.62" stroke="#663366" stroke-width="4.22535" stroke-miterlimit="10" stroke-linecap="round" stroke-linejoin="round"/>
<path d="M45.865 111.765C50.061 111.765 53.4625 108.364 53.4625 104.168C53.4625 99.9718 50.061 96.5703 45.865 96.5703C41.6691 96.5703 38.2676 99.9718 38.2676 104.168C38.2676 108.364 41.6691 111.765 45.865 111.765Z" stroke="#663366" stroke-width="4.22535" stroke-miterlimit="10" stroke-linecap="round" stroke-linejoin="round"/>
<path d="M113.887 97.874C112.668 97.0509 111.2 96.5703 109.618 96.5703C105.402 96.5703 101.984 99.9881 101.984 104.204C101.984 108.421 105.402 111.838 109.618 111.838C113.835 111.838 116.209 108.421 116.209 104.204H111.641" stroke="#663366" stroke-width="4.22535" stroke-miterlimit="10" stroke-linecap="round" stroke-linejoin="round"/>
<path d="M5 117.44V90.9658C5 87.8543 7.52225 85.332 10.6338 85.332H139.366C142.478 85.332 145 87.8543 145 90.9658V117.44C145 120.551 142.478 123.073 139.366 123.073H10.6338C7.52225 123.073 5 120.551 5 117.44Z" stroke="#663366" stroke-width="4.22535" stroke-miterlimit="10" stroke-linecap="round" stroke-linejoin="round"/>
</svg>
