<svg width="150" height="150" viewBox="0 0 150 150" fill="none" xmlns="http://www.w3.org/2000/svg">
<path d="M75 10C65.718 10 56.8125 13.6859 50.2493 20.2493C47.8514 22.4499 51.3528 25.9513 53.5534 23.5535C59.2427 17.8639 66.954 14.6667 75 14.6667C83.0456 14.6667 90.771 17.8508 96.4603 23.5397C98.6468 26.092 102.303 22.4359 99.7506 20.2493C93.1876 13.6866 84.2813 10 75 10ZM75 19.3378C68.1933 19.3378 61.6749 22.0303 56.862 26.8436C54.5666 29.0365 57.9468 32.4355 60.1523 30.1523C64.0913 26.2131 69.4293 24.0044 75 24.0045C80.5702 24.0045 85.9088 26.2138 89.8476 30.1523C92.0534 32.358 95.362 29.0493 93.1562 26.8436C88.3435 22.0312 81.806 19.3378 75 19.3378ZM75 28.653C70.6684 28.653 66.5235 30.3794 63.4609 33.4427C61.1656 35.6355 64.5458 39.0343 66.7513 36.7511C68.9399 34.5619 71.9045 33.3194 75 33.3194C78.0946 33.3194 81.0602 34.5631 83.2487 36.7511C85.4544 38.9568 88.763 35.6484 86.5573 33.4427C83.4949 30.3809 79.3303 28.653 75 28.653ZM75 37.9907C71.1617 37.9907 68.0046 41.1616 68.0046 45C68.0046 48.8383 71.1617 51.991 75 51.991C78.8384 51.991 82.0091 48.8383 82.0091 45C82.0091 41.1616 78.8384 37.9907 75 37.9907ZM75 42.6575C76.3163 42.6575 77.3424 43.6837 77.3424 45C77.3424 46.3163 76.3163 47.3242 75 47.3242C73.6837 47.3242 72.6758 46.3163 72.6758 45C72.6758 43.6837 73.6837 42.6575 75 42.6575ZM58.6712 61.3287C57.789 61.3303 56.9832 61.8297 56.5885 62.6184L52.5644 70.6665H30.6621C21.6538 70.6665 14.3379 77.9826 14.3379 86.991C14.2693 90.1699 19.0732 90.1699 19.0046 86.991C19.0046 80.4872 24.1583 75.3333 30.6621 75.3333H119.338C125.842 75.3333 130.995 80.4872 130.995 86.991V115C130.997 116.36 132.156 117.43 133.511 117.324H142.676C143.957 117.32 144.995 116.281 145 115V96.3287C144.995 95.0472 143.957 94.0096 142.676 94.0045H135.662V86.991C135.662 77.9826 128.346 70.6665 119.338 70.6665H97.4538L93.4297 62.6184C93.035 61.8291 92.2292 61.3304 91.347 61.3287H58.6712ZM60.1159 65.9952H89.8978L92.2311 70.6665H57.778L60.1159 65.9952ZM63.3379 84.6667H86.6803C89.7234 84.5962 89.7234 80.0673 86.6803 80H63.2171C60.0568 80.2249 60.2913 84.7569 63.3379 84.6667ZM7.22166 94.0045C5.90732 94.1245 4.99883 95.1291 5 96.3287V115C5.00467 116.289 6.05383 117.329 7.34243 117.324H14.3379V124.338C14.3379 133.346 21.6538 140.667 30.6621 140.667H54.0046C57.883 140.667 60.2269 138.529 62.2976 135.85C64.0811 133.543 65.3309 131.329 68.0046 131.329H82.0091C84.1949 131.329 85.3614 132.64 87.1423 135.038C88.9232 137.436 91.2739 140.667 95.9954 140.667H119.338C128.346 140.667 135.662 133.346 135.662 124.338C135.734 121.156 130.924 121.156 130.995 124.338C130.995 130.841 125.842 135.995 119.338 135.995H95.9954C93.4351 135.995 92.1448 133.921 90.7816 132.111C88.2804 128.789 86.0991 126.662 82.0091 126.662H68.0046C63.6016 126.662 61.2293 129.412 58.9927 132.473C57.5406 134.46 56.2932 135.995 54.0046 135.995H30.6621C24.1583 135.995 19.0046 130.841 19.0046 124.338V96.3287C19.0279 95.0133 17.9613 93.9795 16.4228 93.9795L7.22166 94.0045ZM123.968 96.2921C122.687 96.3186 121.665 97.3713 121.68 98.653V100.995C121.749 104.037 126.279 104.037 126.347 100.995V98.653C126.364 97.3356 125.285 96.2665 123.968 96.2921ZM9.66667 98.653H14.3379V112.657H9.66667V98.653ZM135.662 98.653H140.333V112.657H135.662V98.653ZM123.968 107.954C122.679 107.981 121.655 109.045 121.68 110.333V124.338C121.68 125.997 121.011 126.68 119.352 126.68C115.962 126.376 115.962 131.633 119.352 131.329C123.186 131.329 126.347 128.172 126.347 124.338V110.333C126.373 109.009 125.293 107.928 123.968 107.954Z" fill="#663366"/>
</svg>
