<svg width="150" height="150" viewBox="0 0 150 150" fill="none" xmlns="http://www.w3.org/2000/svg">
<path d="M75.0006 90.2284L62.6777 75.0009L75.0006 59.7734L87.3235 75.0009L75.0006 90.2284Z" stroke="#663366" stroke-width="4.5" stroke-miterlimit="10" stroke-linecap="round" stroke-linejoin="round"/>
<path d="M75.0006 107.677C93.0472 107.677 107.677 93.0472 107.677 75.0006C107.677 56.9539 93.0472 42.3242 75.0006 42.3242C56.9539 42.3242 42.3242 56.9539 42.3242 75.0006C42.3242 93.0472 56.9539 107.677 75.0006 107.677Z" stroke="#663366" stroke-width="4.5" stroke-miterlimit="10" stroke-linecap="round" stroke-linejoin="round"/>
<path d="M83.7145 5H66.2871V22.4274H83.7145V5Z" stroke="#663366" stroke-width="4.5" stroke-miterlimit="10" stroke-linecap="round" stroke-linejoin="round"/>
<path d="M75 22.7188V41.0175" stroke="#663366" stroke-width="4.5" stroke-miterlimit="10" stroke-linecap="round" stroke-linejoin="round"/>
<path d="M83.7145 127.574H66.2871V145.002H83.7145V127.574Z" stroke="#663366" stroke-width="4.5" stroke-miterlimit="10" stroke-linecap="round" stroke-linejoin="round"/>
<path d="M75 127.283V108.984" stroke="#663366" stroke-width="4.5" stroke-miterlimit="10" stroke-linecap="round" stroke-linejoin="round"/>
<path d="M5 66.2875L5 83.7148L22.4274 83.7148L22.4274 66.2875L5 66.2875Z" stroke="#663366" stroke-width="4.5" stroke-miterlimit="10" stroke-linecap="round" stroke-linejoin="round"/>
<path d="M22.7188 75H41.0175" stroke="#663366" stroke-width="4.5" stroke-miterlimit="10" stroke-linecap="round" stroke-linejoin="round"/>
<path d="M127.572 66.2875L127.572 83.7148L145 83.7148L145 66.2875L127.572 66.2875Z" stroke="#663366" stroke-width="4.5" stroke-miterlimit="10" stroke-linecap="round" stroke-linejoin="round"/>
<path d="M127.283 75H108.984" stroke="#663366" stroke-width="4.5" stroke-miterlimit="10" stroke-linecap="round" stroke-linejoin="round"/>
<path d="M22.4266 31.1422C27.239 31.1422 31.1403 27.241 31.1403 22.4285C31.1403 17.6161 27.239 13.7148 22.4266 13.7148C17.6141 13.7148 13.7129 17.6161 13.7129 22.4285C13.7129 27.241 17.6141 31.1422 22.4266 31.1422Z" stroke="#663366" stroke-width="4.5" stroke-miterlimit="10" stroke-linecap="round" stroke-linejoin="round"/>
<path d="M50.8926 50.8926L28.8789 28.8789" stroke="#663366" stroke-width="4.5" stroke-miterlimit="10" stroke-linecap="round" stroke-linejoin="round"/>
<path d="M127.573 31.1422C132.386 31.1422 136.287 27.241 136.287 22.4285C136.287 17.6161 132.386 13.7148 127.573 13.7148C122.761 13.7148 118.859 17.6161 118.859 22.4285C118.859 27.241 122.761 31.1422 127.573 31.1422Z" stroke="#663366" stroke-width="4.5" stroke-miterlimit="10" stroke-linecap="round" stroke-linejoin="round"/>
<path d="M121.121 28.8789L99.1074 50.8926" stroke="#663366" stroke-width="4.5" stroke-miterlimit="10" stroke-linecap="round" stroke-linejoin="round"/>
<path d="M22.4266 136.287C27.239 136.287 31.1403 132.386 31.1403 127.573C31.1403 122.761 27.239 118.859 22.4266 118.859C17.6141 118.859 13.7129 122.761 13.7129 127.573C13.7129 132.386 17.6141 136.287 22.4266 136.287Z" stroke="#663366" stroke-width="4.5" stroke-miterlimit="10" stroke-linecap="round" stroke-linejoin="round"/>
<path d="M28.8789 121.123L50.8926 99.1094" stroke="#663366" stroke-width="4.5" stroke-miterlimit="10" stroke-linecap="round" stroke-linejoin="round"/>
<path d="M127.573 136.287C132.386 136.287 136.287 132.386 136.287 127.573C136.287 122.761 132.386 118.859 127.573 118.859C122.761 118.859 118.859 122.761 118.859 127.573C118.859 132.386 122.761 136.287 127.573 136.287Z" stroke="#663366" stroke-width="4.5" stroke-miterlimit="10" stroke-linecap="round" stroke-linejoin="round"/>
<path d="M99.1074 99.1094L121.121 121.123" stroke="#663366" stroke-width="4.5" stroke-miterlimit="10" stroke-linecap="round" stroke-linejoin="round"/>
</svg>
