<svg width="150" height="150" viewBox="0 0 150 150" fill="none" xmlns="http://www.w3.org/2000/svg">
<mask id="mask0_618_154" style="mask-type:luminance" maskUnits="userSpaceOnUse" x="5" y="32" width="140" height="87">
<path d="M145 32H5V118.707H145V32Z" fill="white"/>
</mask>
<g mask="url(#mask0_618_154)">
<path d="M121.847 55.3628L115.689 53.9015L117.143 47.7437C117.216 47.4333 117.191 47.1078 117.07 46.8124V46.7081L114.71 42.8945L112.133 44.5002L105.276 48.7634L102.691 50.3691L104.947 54.014C105.16 54.3533 105.497 54.5955 105.887 54.6884L107.492 55.0576L112.069 56.1495L110.615 62.3072C110.568 62.4982 110.558 62.6967 110.589 62.8913C110.619 63.0857 110.688 63.2721 110.792 63.4393L113.048 67.0922L122.482 61.2876L125.067 59.6819L122.819 56.0372C122.71 55.8653 122.568 55.7172 122.401 55.6014C122.234 55.4856 122.046 55.4043 121.847 55.3628ZM113.634 46.9409L114.052 47.6153L112.735 53.171L107.195 51.8784L106.77 51.18L113.634 46.9409ZM120.274 58.0925L120.522 58.1486L120.94 58.823L114.1 63.054L113.674 62.3555L114.991 56.832L120.274 58.0925Z" fill="#663366"/>
<path d="M34.0693 50.3942L30.1112 54.3522L26.1532 50.4184V46.8055H23.1426V51.0365C23.1499 51.4259 23.3082 51.7974 23.5842 52.0722L27.9758 56.4718L23.5842 60.9034C23.3031 61.1847 23.1445 61.5656 23.1426 61.9633V66.1942H26.1532V62.5494L30.1112 58.6154L34.0452 62.5734V66.1942H37.0559V61.9633C37.0568 61.766 37.0182 61.5707 36.9423 61.3887C36.8664 61.2067 36.755 61.0417 36.6144 60.9034L32.2229 56.5039L36.6144 52.1043C36.8374 51.8884 36.9864 51.6073 37.0398 51.3015L37.0801 51.2132V46.7734H34.0693V50.3942Z" fill="#663366"/>
<path d="M62.8952 46.7734H53.2129V66.1461H56.2235V57.9811H60.4545L64.1154 61.6341V66.1461H67.1262V60.9999C67.1243 60.6023 66.9657 60.2214 66.6845 59.9402L64.4126 57.692C65.2072 57.3753 65.8886 56.8271 66.3681 56.1185C66.8476 55.4099 67.1033 54.5737 67.102 53.7181V51.0124C67.0917 49.8928 66.6427 48.8219 65.8517 48.0293C65.0607 47.2369 63.9907 46.786 62.871 46.7734H62.8952ZM56.2235 49.7921H62.8952C63.2188 49.7921 63.5291 49.9208 63.7581 50.1495C63.9868 50.3785 64.1154 50.6889 64.1154 51.0124V53.7181C64.1176 53.8789 64.0875 54.0385 64.0269 54.1876C63.9663 54.3367 63.8766 54.472 63.7628 54.5858C63.6491 54.6995 63.5137 54.7893 63.3646 54.8499C63.2156 54.9105 63.056 54.9406 62.8952 54.9383H56.2235V49.7921Z" fill="#663366"/>
<path d="M26.3057 88.4219H23.2949V107.794H37.2082V104.776H26.3057V88.4219Z" fill="#663366"/>
<path d="M63.014 89.2604C62.884 89.0127 62.6872 88.8062 62.446 88.6644C62.2049 88.5225 61.929 88.4509 61.6492 88.4574H58.9355C58.6571 88.4514 58.3824 88.5235 58.1426 88.6652C57.9029 88.8071 57.7075 89.0133 57.5788 89.2604L53.5004 97.4413C53.3973 97.6484 53.3424 97.8763 53.3398 98.1077V107.798H56.3826V102.347H64.2745V107.798H67.2853V98.1077C67.2834 97.8788 67.2285 97.6534 67.1246 97.4494L63.014 89.2604ZM60.718 91.4119L64.2423 98.4208V99.296H56.3826V98.453L59.8669 91.4119H60.718Z" fill="#663366"/>
<path d="M93.0651 88.457H83.3828V107.822H93.0651C93.6233 107.826 94.177 107.72 94.694 107.509C95.2111 107.298 95.6813 106.987 96.0776 106.594C96.4739 106.201 96.7884 105.733 97.0031 105.217C97.2177 104.702 97.3282 104.149 97.3281 103.591V100.877C97.3446 99.8759 96.9965 98.9029 96.3487 98.1395C96.9962 97.3852 97.3446 96.4197 97.3281 95.4259V92.6881C97.3157 91.5698 96.8659 90.5009 96.0751 89.7102C95.2842 88.9194 94.2155 88.4696 93.0972 88.457H93.0651ZM94.2853 95.4259C94.2832 95.7488 94.1541 96.0579 93.9256 96.2864C93.6972 96.5148 93.388 96.644 93.0651 96.6461H86.3934V91.4919H93.0651C93.388 91.4939 93.6972 91.6233 93.9256 91.8516C94.1541 92.08 94.2832 92.3891 94.2853 92.7122V95.4259ZM86.3934 99.6327H93.0651C93.388 99.6348 93.6972 99.7641 93.9256 99.9924C94.1541 100.221 94.2832 100.53 94.2853 100.853V103.567C94.2832 103.889 94.1537 104.197 93.9251 104.424C93.6965 104.651 93.3872 104.779 93.0651 104.779H86.3934V99.6327Z" fill="#663366"/>
<path d="M122.472 88.4221H117.02C116.46 88.4167 115.904 88.525 115.387 88.7403C114.87 88.9555 114.401 89.2732 114.01 89.6744C113.614 90.0631 113.302 90.5284 113.092 91.042C112.882 91.5555 112.779 92.1065 112.79 92.661V94.0259C112.816 94.748 113.034 95.4504 113.42 96.061C113.807 96.6717 114.348 97.169 114.989 97.5022L123.018 101.348C123.182 101.439 123.326 101.563 123.44 101.713C123.555 101.862 123.638 102.033 123.684 102.215V103.556C123.682 103.879 123.553 104.188 123.324 104.416C123.096 104.645 122.787 104.774 122.464 104.776H117.013C116.852 104.776 116.694 104.744 116.545 104.683C116.397 104.622 116.263 104.532 116.15 104.419C116.036 104.305 115.946 104.171 115.885 104.023C115.824 103.875 115.792 103.716 115.792 103.556V102.392H112.782V103.556C112.775 104.113 112.88 104.667 113.09 105.184C113.301 105.7 113.612 106.17 114.006 106.564C114.4 106.959 114.869 107.271 115.385 107.483C115.901 107.694 116.455 107.8 117.013 107.795H122.464C123.015 107.801 123.562 107.695 124.071 107.484C124.58 107.273 125.041 106.961 125.426 106.566C125.829 106.176 126.147 105.707 126.362 105.19C126.578 104.672 126.685 104.116 126.679 103.556V102.191C126.641 101.471 126.416 100.772 126.028 100.165C125.64 99.5568 125.1 99.06 124.463 98.7226L116.434 94.8608C116.155 94.6801 115.932 94.4239 115.792 94.1221V92.661C115.788 92.4973 115.816 92.3346 115.876 92.1823C115.936 92.0299 116.026 91.8912 116.141 91.7744C116.255 91.6575 116.392 91.5649 116.544 91.5021C116.695 91.4392 116.857 91.4074 117.02 91.4085H122.472C122.795 91.4108 123.104 91.5399 123.332 91.7684C123.561 91.9967 123.69 92.306 123.692 92.6289V93.8172H126.703V92.661C126.69 91.542 126.241 90.4723 125.45 89.6802C124.66 88.8882 123.591 88.4365 122.472 88.4221Z" fill="#663366"/>
<path d="M5 32V118.707H145V32H5ZM7.67348 76.2849V34.6735H82.1133V76.2849H7.67348ZM84.7866 76.2849V34.6735H142.286V76.2849H84.7866ZM7.71361 116.034V78.9584H142.286V116.034H7.71361Z" fill="#663366"/>
</g>
</svg>
