<svg width="200" height="200" viewBox="0 0 200 200" fill="none" xmlns="http://www.w3.org/2000/svg">
<mask id="mask0_471_210" style="mask-type:luminance" maskUnits="userSpaceOnUse" x="10" y="10" width="180" height="180">
<path d="M190 10H10V190H190V10Z" fill="white"/>
</mask>
<g mask="url(#mask0_471_210)">
<path fill-rule="evenodd" clip-rule="evenodd" d="M124.417 52.0476C125.197 52.9078 125.117 54.248 124.258 55.0281C123.397 55.8083 122.056 55.7283 121.277 54.8681C120.497 54.0079 120.577 52.6676 121.436 51.8875C122.297 51.1074 123.638 51.1874 124.417 52.0476ZM162.048 66.7702C162.868 67.5904 162.868 68.9307 162.048 69.7507C161.227 70.5709 159.887 70.5709 159.067 69.7507C158.246 68.9307 158.246 67.5904 159.067 66.7702C159.887 65.9501 161.227 65.9501 162.048 66.7702ZM117.635 92.1948C118.455 93.0149 118.455 94.3552 117.635 95.1754C116.816 95.9955 115.475 95.9955 114.655 95.1754C113.835 94.3552 113.835 93.0149 114.655 92.1948C115.475 91.3747 116.816 91.3747 117.635 92.1948ZM100.31 37.445C101.131 38.2651 101.131 39.6053 100.31 40.4255C99.4907 41.2457 98.1503 41.2457 97.3301 40.4255C96.5099 39.6053 96.5099 38.2651 97.3301 37.445C98.1503 36.6248 99.4907 36.6248 100.31 37.445ZM163.448 100.016C164.268 100.836 164.268 102.176 163.448 102.997C162.627 103.817 161.287 103.817 160.467 102.997C159.647 102.176 159.647 100.836 160.467 100.016C161.287 99.196 162.627 99.196 163.448 100.016ZM55.2989 49.5071C54.4787 48.6869 54.4787 47.3468 55.2989 46.5266C56.1191 45.7064 57.4595 45.7064 58.2797 46.5266L60.0202 48.2669C60.8404 49.087 60.8404 50.4273 60.0202 51.2475C59.1999 52.0676 57.8596 52.0676 57.0394 51.2475L55.2989 49.5071ZM58.2797 59.6489C57.4595 60.4691 56.1191 60.4691 55.2989 59.6489C54.4787 58.8288 54.4787 57.4886 55.2989 56.6684L57.0394 54.9281C57.8596 54.1079 59.1999 54.1079 60.0202 54.9281C60.8404 55.7483 60.8404 57.0884 60.0202 57.9086L58.2797 59.6489ZM68.4224 56.6684C69.2426 57.4886 69.2426 58.8288 68.4224 59.6489C67.6022 60.4691 66.2618 60.4691 65.4416 59.6489L63.7011 57.9086C62.8809 57.0884 62.8809 55.7483 63.7011 54.9281C64.5214 54.1079 65.8617 54.1079 66.6819 54.9281L68.4224 56.6684ZM65.4416 46.5266C66.2618 45.7064 67.6022 45.7064 68.4224 46.5266C69.2426 47.3468 69.2426 48.6869 68.4224 49.5071L66.6819 51.2475C65.8617 52.0676 64.5214 52.0676 63.7011 51.2475C62.8809 50.4273 62.8809 49.087 63.7011 48.2669L65.4416 46.5266ZM140.361 134.563C139.541 133.742 139.541 132.402 140.361 131.582C141.182 130.762 142.522 130.762 143.342 131.582L145.083 133.322C145.903 134.142 145.903 135.482 145.083 136.302C144.263 137.123 142.922 137.123 142.102 136.302L140.361 134.563ZM143.342 144.704C142.522 145.525 141.182 145.525 140.361 144.704C139.541 143.884 139.541 142.544 140.361 141.724L142.102 139.983C142.922 139.163 144.263 139.163 145.083 139.983C145.903 140.803 145.903 142.143 145.083 142.964L143.342 144.704ZM153.485 141.724C154.305 142.544 154.305 143.884 153.485 144.704C152.665 145.525 151.324 145.525 150.504 144.704L148.764 142.964C147.944 142.143 147.944 140.803 148.764 139.983C149.584 139.163 150.925 139.163 151.745 139.983L153.485 141.724ZM150.504 131.582C151.324 130.762 152.665 130.762 153.485 131.582C154.305 132.402 154.305 133.742 153.485 134.563L151.745 136.302C150.925 137.123 149.584 137.123 148.764 136.302C147.944 135.482 147.944 134.142 148.764 133.322L150.504 131.582ZM81.0058 18.6616L77.7649 24.9827L82.7862 29.9836C83.2263 30.4237 83.5064 30.9638 83.5864 31.5639C83.6865 32.144 83.5864 32.7641 83.3063 33.3042C83.0263 33.8643 82.5862 34.2843 82.0661 34.5644C81.546 34.8244 80.9457 34.9245 80.3256 34.8244L73.3237 33.7043L70.1229 40.0254C69.8428 40.5855 69.4027 41.0256 68.8825 41.2856C68.7825 41.3456 68.6825 41.3856 68.5625 41.4057C68.1224 41.5657 67.6222 41.6257 67.1421 41.5457C66.5219 41.4456 65.9818 41.1657 65.5617 40.7455C65.1416 40.3255 64.8615 39.7854 64.7614 39.1652L63.6611 32.164L56.6592 31.0638C56.0391 30.9638 55.499 30.6837 55.0788 30.2637C54.6587 29.8436 54.3786 29.3035 54.2787 28.6834C54.1786 28.0633 54.2786 27.4631 54.5387 26.943C54.5987 26.843 54.6587 26.7431 54.7187 26.643C54.9788 26.2429 55.3589 25.9229 55.799 25.6829L62.1207 22.4823L61.0004 15.481C60.9004 14.8609 61.0004 14.2608 61.2605 13.7407C61.5406 13.2006 61.9607 12.7605 62.5208 12.4804C63.0609 12.2004 63.6811 12.1204 64.2613 12.2004C64.8414 12.3004 65.4016 12.5605 65.8418 13.0005L70.8431 18.0214L77.1648 14.7809C77.7249 14.5008 78.325 14.4008 78.9052 14.5008C79.5054 14.6008 80.0456 14.8609 80.4857 15.301C80.9258 15.741 81.1859 16.2811 81.2858 16.8812C81.3858 17.4613 81.2858 18.0615 81.0058 18.6215V18.6616ZM73.5838 23.9425L75.3643 20.4818L71.9033 22.2622C71.3432 22.5422 70.7431 22.6423 70.1628 22.5422C69.5827 22.4422 69.0225 22.1822 68.5824 21.7421L65.8418 18.9816L66.4619 22.8223C66.5619 23.4424 66.4619 24.0425 66.2018 24.5626C65.9417 25.0827 65.5016 25.5228 64.9415 25.8028L61.4805 27.5631L65.3216 28.1633C65.9417 28.2632 66.4819 28.5433 66.902 28.9634C67.3221 29.3835 67.6022 29.9435 67.7022 30.5437L68.3024 34.3844L70.0629 30.9237C70.3429 30.3637 70.783 29.9236 71.3031 29.6636C71.8233 29.4035 72.4235 29.3035 73.0436 29.4035L76.8847 30.0237L74.1239 27.2832C73.6838 26.8431 73.4037 26.303 73.3237 25.7028C73.2237 25.1227 73.3237 24.5226 73.6038 23.9625L73.5838 23.9425ZM185.194 122.84L181.953 129.162L186.974 134.162C187.414 134.602 187.694 135.142 187.774 135.743C187.874 136.323 187.774 136.943 187.494 137.483C187.214 138.043 186.774 138.463 186.254 138.743C186.174 138.783 186.114 138.803 186.034 138.843C185.554 139.043 185.034 139.103 184.514 139.023L177.512 137.903L174.31 144.224C174.03 144.784 173.59 145.204 173.07 145.484C172.55 145.744 171.951 145.844 171.33 145.744C170.709 145.644 170.169 145.364 169.749 144.944C169.33 144.524 169.049 143.984 168.949 143.364L167.849 136.363L160.847 135.263C160.227 135.162 159.687 134.882 159.267 134.463C158.847 134.043 158.567 133.502 158.467 132.882C158.367 132.262 158.467 131.662 158.747 131.142C159.007 130.622 159.447 130.181 160.007 129.902L166.328 126.701L165.209 119.7C165.108 119.08 165.209 118.48 165.469 117.959C165.508 117.879 165.549 117.819 165.588 117.739C165.868 117.299 166.248 116.96 166.709 116.719C167.249 116.439 167.869 116.359 168.449 116.439C169.029 116.539 169.59 116.799 170.03 117.239L175.031 122.261L181.353 119.02C181.913 118.74 182.513 118.64 183.093 118.74C183.693 118.84 184.234 119.1 184.674 119.54C184.754 119.62 184.813 119.679 184.874 119.759C185.194 120.16 185.394 120.62 185.474 121.12C185.574 121.7 185.474 122.3 185.194 122.86V122.84ZM177.772 128.121L179.552 124.661L176.091 126.441C175.531 126.721 174.931 126.821 174.351 126.721C173.77 126.621 173.21 126.361 172.77 125.921L170.03 123.161L170.65 127.001C170.75 127.621 170.65 128.221 170.39 128.741C170.13 129.262 169.69 129.702 169.129 129.982L165.668 131.742L169.51 132.342C170.13 132.442 170.67 132.722 171.09 133.142C171.51 133.562 171.79 134.123 171.89 134.723L172.49 138.563L174.251 135.103C174.531 134.542 174.971 134.103 175.491 133.843C176.011 133.583 176.612 133.483 177.232 133.583L181.073 134.203L178.312 131.462C177.872 131.022 177.592 130.482 177.512 129.882C177.412 129.301 177.512 128.701 177.791 128.141L177.772 128.121ZM95.8697 10.7001C96.5499 11.3802 97.3701 11.9003 98.2303 12.2804C99.1306 12.6605 100.13 12.8605 101.151 12.8605C102.172 12.8605 103.152 12.6605 104.072 12.2804C104.952 11.9203 105.753 11.3802 106.432 10.7001L106.532 10.6001C107.353 9.79996 108.653 9.79996 109.473 10.6001C110.293 11.4203 110.314 12.7405 109.493 13.5806L109.393 13.7007C108.713 14.3808 108.193 15.2009 107.813 16.0611C107.433 16.9613 107.232 17.9614 107.232 18.9816C107.232 20.0018 107.433 20.982 107.813 21.9021C108.173 22.7823 108.713 23.5824 109.393 24.2626L109.493 24.3626C110.293 25.1827 110.293 26.483 109.493 27.3031C108.673 28.1233 107.353 28.1433 106.512 27.3231L106.412 27.2231C105.732 26.543 104.912 26.0229 104.052 25.6428C103.152 25.2627 102.151 25.0627 101.131 25.0627C100.111 25.0627 99.1306 25.2627 98.2103 25.6428C97.3301 26.0029 96.5299 26.543 95.8497 27.2231L95.7497 27.3431C94.9295 28.1433 93.6292 28.1433 92.8089 27.3431C91.9887 26.523 91.9687 25.2027 92.7889 24.3626L92.8889 24.2626C93.5691 23.5824 94.0892 22.7623 94.4694 21.9021C94.8495 21.002 95.0495 20.0018 95.0495 18.9816C95.0495 17.9614 94.8495 16.9813 94.4694 16.0611C94.1092 15.1809 93.5691 14.3808 92.8889 13.7007L92.7889 13.5806C91.9887 12.7605 91.9887 11.4603 92.7889 10.6401C93.6091 9.81997 94.9295 9.79996 95.7697 10.6201L95.8697 10.7201V10.7001ZM101.151 17.0813C100.451 17.0813 99.7708 17.0213 99.0906 16.9012C99.2106 17.5814 99.2706 18.2615 99.2706 18.9616C99.2706 19.6618 99.2106 20.3419 99.0906 21.022C99.7708 20.902 100.451 20.8419 101.151 20.8419C101.851 20.8419 102.532 20.902 103.212 21.022C103.091 20.3419 103.032 19.6618 103.032 18.9616C103.032 18.2615 103.091 17.5814 103.212 16.9012C102.532 17.0213 101.851 17.0813 101.151 17.0813ZM175.771 90.5945C176.451 91.2747 177.271 91.7947 178.132 92.1748C179.032 92.5548 180.032 92.7549 181.052 92.7549C182.073 92.7549 183.053 92.5548 183.974 92.1748C184.854 91.8148 185.654 91.2747 186.334 90.5945L186.434 90.4745C187.254 89.6744 188.555 89.6744 189.374 90.4745C190.195 91.2947 190.215 92.6149 189.394 93.455L189.294 93.555C188.615 94.2351 188.095 95.0553 187.714 95.9154C187.334 96.8156 187.134 97.8158 187.134 98.836C187.134 99.8562 187.334 100.836 187.714 101.757C188.074 102.637 188.615 103.437 189.294 104.117L189.394 104.237C190.195 105.057 190.195 106.358 189.394 107.177C188.574 107.997 187.254 108.018 186.413 107.197L186.314 107.097C185.634 106.417 184.813 105.898 183.953 105.517C183.053 105.137 182.053 104.937 181.032 104.937C180.012 104.937 179.032 105.137 178.112 105.517C177.232 105.877 176.432 106.417 175.751 107.097L175.651 107.197C174.831 107.997 173.531 107.997 172.71 107.197C171.89 106.377 171.87 105.057 172.69 104.217L172.79 104.097C173.471 103.416 173.991 102.596 174.371 101.736C174.75 100.836 174.951 99.8362 174.951 98.816C174.951 97.7958 174.75 96.8156 174.371 95.8955C174.011 95.0153 173.471 94.2152 172.79 93.535L172.69 93.435C171.89 92.6149 171.89 91.3146 172.69 90.4945C173.51 89.6744 174.83 89.6543 175.671 90.4745L175.771 90.5945ZM181.052 96.9756C180.352 96.9756 179.672 96.9157 178.992 96.7956C179.112 97.4758 179.172 98.1559 179.172 98.856C179.172 99.5561 179.112 100.237 178.992 100.916C179.672 100.796 180.352 100.736 181.052 100.736C181.752 100.736 182.433 100.796 183.113 100.916C182.993 100.237 182.933 99.5561 182.933 98.856C182.933 98.1559 182.993 97.4758 183.113 96.7956C182.433 96.9157 181.752 96.9756 181.052 96.9756ZM162.647 41.2256L159.287 47.8068L164.528 53.0277C164.968 53.4678 165.248 54.0279 165.348 54.608C165.448 55.2082 165.348 55.8083 165.068 56.3684C164.788 56.9284 164.348 57.3685 163.808 57.6285C163.288 57.8886 162.668 57.9886 162.048 57.8886L154.745 56.7084L151.404 63.2896C151.124 63.8497 150.684 64.2898 150.144 64.5698C150.044 64.6298 149.945 64.6699 149.824 64.6898C149.364 64.8499 148.883 64.9099 148.384 64.8299C147.764 64.7299 147.224 64.4498 146.783 64.0297C146.363 63.6097 146.084 63.0696 145.983 62.4294L144.842 55.1282L137.541 53.9879C136.921 53.8879 136.361 53.6079 135.941 53.1878C135.52 52.7677 135.221 52.2076 135.14 51.6074C135.14 51.5675 135.14 51.5274 135.14 51.4875C135.06 50.9073 135.18 50.3473 135.42 49.8471C135.481 49.7471 135.54 49.6472 135.6 49.5671C135.86 49.1671 136.24 48.827 136.7 48.587L143.283 45.2463L142.102 37.945C142.002 37.3249 142.102 36.7048 142.362 36.1847C142.622 35.6446 143.062 35.2045 143.622 34.9245C144.183 34.6444 144.783 34.5644 145.383 34.6444C145.983 34.7444 146.524 35.0045 146.964 35.4646L152.185 40.7056L158.766 37.345C159.327 37.0649 159.926 36.9649 160.507 37.0649C161.107 37.1649 161.647 37.425 162.087 37.865C162.527 38.3051 162.807 38.8652 162.887 39.4653C162.987 40.0454 162.887 40.6655 162.608 41.2256H162.647ZM155.105 46.7466L157.046 42.9659L153.265 44.9063C152.705 45.1863 152.085 45.2864 151.504 45.1863C150.925 45.0863 150.364 44.8263 149.924 44.3662L146.923 41.3656L147.604 45.5464C147.704 46.1665 147.604 46.7866 147.324 47.3067C147.064 47.8468 146.624 48.2869 146.043 48.567L142.262 50.4873L146.444 51.1474C147.064 51.2474 147.623 51.5274 148.044 51.9476C148.464 52.3676 148.744 52.9278 148.844 53.5479L149.505 57.7286L151.424 53.9479C151.705 53.3878 152.165 52.9477 152.685 52.6676C153.205 52.4076 153.825 52.2876 154.445 52.3877L158.627 53.0678L155.625 50.0672C155.185 49.6272 154.905 49.067 154.806 48.487C154.706 47.9068 154.805 47.2867 155.085 46.7267L155.105 46.7466ZM120.196 106.438C126.778 100.456 134.48 96.0555 142.742 93.4151C151.005 90.7746 159.846 89.9144 168.669 90.9946C169.829 91.1346 170.87 90.3145 171.01 89.1543C171.149 87.9941 170.33 86.9539 169.169 86.8138C159.767 85.6736 150.324 86.6138 141.482 89.4143C132.639 92.2348 124.397 96.9357 117.375 103.316C116.515 104.097 116.456 105.437 117.236 106.297C118.015 107.158 119.356 107.217 120.216 106.438H120.196ZM129.218 116.059C134 113.198 139.381 111.778 144.762 111.778C150.144 111.778 155.525 113.198 160.307 116.059C161.307 116.659 162.588 116.339 163.188 115.339C163.787 114.339 163.468 113.059 162.467 112.459C157.006 109.198 150.884 107.557 144.762 107.557C138.641 107.557 132.52 109.198 127.058 112.459C126.058 113.059 125.737 114.339 126.338 115.339C126.938 116.339 128.219 116.659 129.218 116.059ZM96.67 82.6531C103.052 75.6319 107.753 67.3903 110.574 58.5488C113.395 49.7072 114.334 40.2655 113.174 30.8638C113.035 29.7035 111.994 28.8834 110.833 29.0234C109.673 29.1634 108.853 30.2036 108.994 31.3638C110.074 40.1855 109.193 49.0271 106.573 57.2885C103.932 65.55 99.5507 73.2514 93.5492 79.8326C92.7689 80.6927 92.8289 82.0329 93.6892 82.8132C94.5494 83.5933 95.8898 83.5332 96.67 82.6731V82.6531ZM87.5475 72.9513C90.8084 67.4904 92.4488 61.3692 92.4488 55.2481C92.4488 49.127 90.8084 43.006 87.5475 37.5449C86.9474 36.5448 85.667 36.2247 84.6668 36.8249C83.6664 37.425 83.3464 38.7051 83.9465 39.7053C86.8074 44.4862 88.2277 49.8672 88.2277 55.2481C88.2277 60.6291 86.8074 66.0101 83.9465 70.7909C83.3464 71.7911 83.6664 73.0714 84.6668 73.6715C85.667 74.2716 86.9474 73.9515 87.5475 72.9513ZM138.501 58.5087L117.536 79.4725C116.716 80.2927 116.716 81.6329 117.536 82.4531C118.355 83.2732 119.696 83.2732 120.516 82.4531L141.482 61.4893C142.302 60.6691 142.302 59.3289 141.482 58.5087C140.662 57.6886 139.321 57.6886 138.501 58.5087ZM76.8446 94.0952L91.5886 149.125L119.216 136.463L76.8446 94.0952ZM87.7075 150.906L70.8231 158.647L54.9588 99.4761L63.5411 80.7728L70.9031 88.134L87.7276 150.906H87.7075ZM66.922 160.427L52.198 105.477L40.2149 131.582L50.0175 168.188L66.902 160.447L66.922 160.427ZM46.1364 169.949L29.2519 177.69L25.491 163.668L37.4741 137.563L46.1564 169.949H46.1364ZM25.3509 179.471L22.7302 169.669L16.3285 183.611L25.3509 179.471ZM71.8834 68.1105C70.4429 66.6702 68.5224 65.93 66.622 65.93C64.7214 65.93 62.8209 66.6502 61.3605 68.1105C59.9001 69.5707 59.18 71.4711 59.18 73.3714C59.18 74.7916 59.58 76.2119 60.3803 77.4521L10.1868 187.032C9.70672 188.092 10.1868 189.332 11.2271 189.813C11.8073 190.072 12.4475 190.052 12.9676 189.813L122.557 139.543C123.797 140.343 125.218 140.744 126.638 140.744C128.538 140.744 130.439 140.023 131.9 138.563C133.359 137.103 134.08 135.203 134.08 133.302C134.08 131.402 133.359 129.501 131.9 128.041L71.9433 68.0905L71.8834 68.1105ZM128.858 131.042L68.9026 71.091C68.2824 70.4709 67.4621 70.1509 66.622 70.1509C65.7817 70.1509 64.9814 70.4709 64.3413 71.091C63.7011 71.7111 63.401 72.5313 63.401 73.3714C63.401 74.2116 63.7212 75.0117 64.3413 75.6519L124.297 135.602C124.917 136.222 125.737 136.543 126.578 136.543C127.419 136.543 128.219 136.222 128.858 135.602C129.479 134.982 129.799 134.162 129.799 133.322C129.799 132.482 129.479 131.682 128.858 131.042Z" fill="black"/>
</g>
</svg>
