<svg width="200" height="200" viewBox="0 0 200 200" fill="none" xmlns="http://www.w3.org/2000/svg">
<mask id="mask0_471_191" style="mask-type:luminance" maskUnits="userSpaceOnUse" x="10" y="10" width="180" height="180">
<path d="M190 10V190H10V10H190Z" fill="white"/>
<path d="M190 10V190H10V10H190Z" stroke="white"/>
</mask>
<g mask="url(#mask0_471_191)">
<path d="M147.737 11.7754L147.922 11.7842C148.832 11.8766 149.542 12.6458 149.542 13.5801V109.135C149.542 110.132 148.734 110.94 147.737 110.94H52.2617C51.2651 110.94 50.458 110.132 50.458 109.135V13.5801C50.4581 12.5837 51.2652 11.7754 52.2617 11.7754H147.737ZM54.0654 107.331H145.934V15.3857H54.0654V107.331Z" fill="black" stroke="black" stroke-width="0.45"/>
<path d="M137.246 22.2754C138.242 22.2754 139.049 23.0837 139.049 24.0801L139.05 98.6318L139.04 98.8164C138.948 99.7263 138.18 100.437 137.246 100.438H62.7529C61.7568 100.438 60.9492 99.628 60.9492 98.6318V24.0801L60.958 23.8955C61.0504 22.9855 61.8191 22.2754 62.7529 22.2754H137.246ZM64.5566 96.8271H135.441V25.8857H64.5566V96.8271Z" fill="black" stroke="black" stroke-width="0.45"/>
<path d="M80.2861 58.7959H80.2881L80.502 58.8369C80.99 58.9608 81.4089 59.2832 81.6514 59.7314L95.8154 85.9814L95.8945 86.1484C96.2455 86.9945 95.9073 87.9844 95.0859 88.4297L95.085 88.4307C94.8136 88.5758 94.5195 88.6465 94.2295 88.6465C93.5885 88.6464 92.9667 88.3029 92.6406 87.6963V87.6953L79.6797 63.6758L64.0801 80.6592L64.0811 80.6602C63.4071 81.3985 62.2645 81.4449 61.5312 80.7676V80.7666C60.7991 80.0939 60.7509 78.9535 61.4238 78.2207L78.7363 59.3652V59.3643L78.8926 59.2148C79.2754 58.8889 79.7813 58.7346 80.2861 58.7959Z" fill="black" stroke="black" stroke-width="0.45"/>
<path d="M98.4248 49.334C98.8558 49.3333 99.2741 49.4862 99.6025 49.7656L99.7588 49.915L99.7598 49.916L116.884 68.5615L117.001 68.7041C117.547 69.439 117.464 70.4821 116.776 71.1133V71.1143C116.088 71.7443 115.042 71.7424 114.358 71.1348L114.228 71.0049L98.8145 54.2227L88.2881 73.7324L88.2891 73.7334C87.9832 74.3024 87.4169 74.639 86.8193 74.6787L86.7002 74.6826C86.4103 74.6826 86.1165 74.6122 85.8447 74.4668H85.8438C84.9679 73.9922 84.6409 72.897 85.1133 72.0186L85.1143 72.0176L96.8438 50.2783L96.958 50.0938C97.2486 49.6828 97.7013 49.4086 98.208 49.3467L98.4248 49.334Z" fill="black" stroke="black" stroke-width="0.45"/>
<path d="M120.687 58.0576C121.192 57.9957 121.698 58.1505 122.081 58.4766L122.237 58.626L122.238 58.627L138.573 76.416L138.691 76.5586C139.239 77.2907 139.151 78.3324 138.465 78.9629L138.466 78.9639C137.778 79.5986 136.732 79.597 136.048 78.9863L135.916 78.8564L121.293 62.9336L110.768 82.4443C110.441 83.0506 109.819 83.3936 109.178 83.3936C108.888 83.3935 108.595 83.3236 108.323 83.1787L108.322 83.1777C107.446 82.7029 107.119 81.6081 107.592 80.7295V80.7285L119.323 58.9893L119.438 58.8047C119.728 58.3941 120.18 58.1204 120.687 58.0586V58.0576Z" fill="black" stroke="black" stroke-width="0.45"/>
<path d="M112.945 29.3809C114.653 29.3809 116.262 30.0499 117.469 31.1719C118.676 30.0495 120.286 29.3848 121.993 29.3848C125.654 29.3849 128.633 32.3664 128.633 36.0293C128.633 36.2582 128.618 36.4871 128.595 36.7139C130.199 37.9568 131.181 39.8937 131.181 41.9717C131.18 45.6343 128.203 48.6151 124.542 48.6152H107.765C104.103 48.6151 101.125 45.6344 101.125 41.9717C101.125 38.8022 103.355 36.1436 106.328 35.4824C106.606 32.071 109.467 29.3809 112.945 29.3809ZM112.789 32.9951C111.19 33.0769 109.913 34.4072 109.913 36.0293C109.913 36.2077 109.929 36.3858 109.96 36.5605L109.996 36.7334V36.7344L110.034 36.9482C110.092 37.4494 109.937 37.9547 109.603 38.3408L109.602 38.3418C109.219 38.7781 108.648 39.0086 108.067 38.9521H108.063C107.969 38.9412 107.868 38.9375 107.765 38.9375C106.093 38.9376 104.732 40.2975 104.732 41.9717C104.733 43.6453 106.093 45.0048 107.765 45.0049H124.542L124.697 45.001C126.296 44.9197 127.574 43.5932 127.574 41.9717C127.574 40.7956 126.883 39.7106 125.816 39.2168L125.815 39.2158C124.982 38.826 124.572 37.8731 124.866 37.0029L124.936 36.7646C124.995 36.5248 125.025 36.2792 125.025 36.0293C125.025 34.3551 123.665 32.9953 121.993 32.9951C120.818 32.9951 119.743 33.6856 119.247 34.7373L119.156 34.9521C118.89 35.6521 118.22 36.1181 117.469 36.1182C116.766 36.1182 116.132 35.7091 115.837 35.0811L115.782 34.9521C115.338 33.7803 114.198 32.9913 112.945 32.9912L112.789 32.9951Z" fill="black" stroke="black" stroke-width="0.45"/>
<path d="M82.1123 34.1191C86.9391 34.3647 90.79 38.3698 90.79 43.2617C90.79 48.3115 86.6859 52.416 81.6416 52.416C76.5974 52.4158 72.4942 48.3115 72.4941 43.2617C72.4941 38.212 76.5974 34.1076 81.6416 34.1074L82.1123 34.1191ZM81.6416 37.7178C78.587 37.718 76.1016 40.2051 76.1016 43.2617L76.1084 43.5469C76.2573 46.4715 78.6826 48.8055 81.6416 48.8057C84.6959 48.8057 87.1826 46.3184 87.1826 43.2617L87.1748 42.9766C87.026 40.0517 84.6004 37.7178 81.6416 37.7178Z" fill="black" stroke="black" stroke-width="0.45"/>
<path d="M17.8799 91.1006C18.7898 91.1928 19.4999 91.9621 19.5 92.8965V172.444C19.5 173.44 18.6926 174.25 17.6963 174.25C16.6998 174.25 15.8926 173.44 15.8926 172.444V92.8965C15.8927 91.9 16.6999 91.0918 17.6963 91.0918L17.8799 91.1006ZM29.168 91.1006C30.0778 91.1929 30.788 91.9622 30.7881 92.8965V172.444C30.7881 173.44 29.9799 174.25 28.9834 174.25C27.9871 174.25 27.1797 173.44 27.1797 172.444V92.8965C27.1798 91.9001 27.9873 91.092 28.9834 91.0918L29.168 91.1006Z" fill="black" stroke="black" stroke-width="0.45"/>
<path d="M35.0957 170.639L35.2793 170.647C36.1891 170.74 36.8993 171.509 36.8994 172.443V185.624C36.8994 186.62 36.092 187.429 35.0957 187.43H11.5791C10.5827 187.43 9.77539 186.62 9.77539 185.624V172.443C9.77556 171.446 10.5828 170.639 11.5791 170.639H35.0957ZM13.3828 183.818H33.291V174.249H13.3828V183.818Z" fill="black" stroke="black" stroke-width="0.45"/>
<path d="M23.334 74.1465C29.5156 74.1465 34.5439 79.1768 34.5439 85.3623C34.5439 91.552 29.5157 96.583 23.334 96.583C17.1522 96.583 12.124 91.552 12.124 85.3623C12.124 79.1767 17.1523 74.1465 23.334 74.1465ZM23.334 77.7568C19.1422 77.7568 15.7315 81.1698 15.7314 85.3623C15.7314 89.5591 19.1422 92.9727 23.334 92.9727C27.5257 92.9726 30.9365 89.5591 30.9365 85.3623C30.9365 81.1698 27.5257 77.7568 23.334 77.7568Z" fill="black" stroke="black" stroke-width="0.45"/>
<path d="M171.203 91.1006C172.113 91.1928 172.823 91.9621 172.823 92.8965V172.444C172.823 173.44 172.015 174.25 171.02 174.25C170.023 174.25 169.216 173.44 169.216 172.444V92.8965C169.216 91.9001 170.023 91.0921 171.019 91.0918L171.203 91.1006ZM182.492 91.1006C183.401 91.1931 184.111 91.9623 184.111 92.8965V172.444C184.111 173.44 183.303 174.25 182.308 174.25C181.31 174.25 180.503 173.44 180.503 172.444V92.8965C180.503 91.9 181.31 91.0919 182.308 91.0918L182.492 91.1006Z" fill="black" stroke="black" stroke-width="0.45"/>
<path d="M188.419 170.639L188.604 170.647C189.513 170.74 190.222 171.509 190.223 172.443V185.624C190.223 186.62 189.416 187.43 188.419 187.43H164.902C163.906 187.429 163.099 186.62 163.099 185.624V172.443C163.099 171.446 163.906 170.639 164.902 170.639H188.419ZM166.706 183.818H186.615V174.249H166.706V183.818Z" fill="black" stroke="black" stroke-width="0.45"/>
<path d="M176.663 74.1465C182.845 74.1465 187.874 79.1768 187.874 85.3623C187.874 91.552 182.845 96.583 176.663 96.583C170.482 96.5829 165.454 91.5519 165.454 85.3623C165.454 79.1767 170.482 74.1465 176.663 74.1465ZM176.663 77.7568C172.472 77.7569 169.061 81.1698 169.061 85.3623C169.061 89.5591 172.472 92.9726 176.663 92.9727C180.855 92.9727 184.267 89.5591 184.267 85.3623C184.267 81.1698 180.855 77.7568 176.663 77.7568Z" fill="black" stroke="black" stroke-width="0.45"/>
<path d="M170.366 131.915C171.294 131.553 172.34 132.015 172.701 132.944L172.76 133.119C172.988 133.941 172.604 134.817 171.844 135.206L171.675 135.281C147.004 144.899 123.558 149.576 100.001 149.576C77.1799 149.576 54.4632 145.187 30.6357 136.169L28.3271 135.281C27.3988 134.919 26.9392 133.871 27.3008 132.944L27.376 132.775C27.792 131.96 28.7659 131.576 29.6357 131.915H29.6367C53.8905 141.371 76.9059 145.965 100.001 145.965C122.374 145.965 144.674 141.654 168.096 132.788L170.366 131.915ZM170.672 120.127C171.649 119.929 172.598 120.57 172.79 121.547C172.97 122.463 172.422 123.356 171.547 123.622L171.367 123.667C161.538 125.598 153.964 127.997 146.629 130.318L146.63 130.319C133.717 134.412 121.501 138.28 100.001 138.28C79.8456 138.28 67.8487 134.88 55.7881 131.083L53.373 130.319C46.4968 128.143 39.4096 125.899 30.4512 124.035L28.6338 123.667C27.6563 123.475 27.0198 122.524 27.2119 121.547L27.2559 121.368C27.5217 120.493 28.4131 119.942 29.3301 120.127L29.3291 120.128C39.3607 122.098 47.0424 124.528 54.4609 126.878L56.9189 127.654C69.1311 131.497 80.3674 134.67 100.001 134.67C120.943 134.67 132.331 131.061 145.54 126.878L148.339 125.994C154.916 123.928 161.894 121.852 170.672 120.128V120.127Z" fill="black" stroke="black" stroke-width="0.45"/>
</g>
</svg>
