<svg width="200" height="200" viewBox="0 0 200 200" fill="none" xmlns="http://www.w3.org/2000/svg">
<path d="M181.006 14H92.304C87.3438 14 83.3109 18.0433 83.3109 23.0164V28.9841H77.3585C72.3983 28.9841 68.3654 33.0274 68.3654 38.0005V61.0216C67.9197 61.7496 67.3375 62.6721 66.7192 63.6379C65.3749 65.7496 63.9803 67.9335 63.326 69.2813C62.0752 71.8833 62.5353 74.5572 64.5769 76.6257C64.6488 76.6978 64.7135 76.7987 64.7422 76.8563C64.7782 77.5626 64.7854 78.2834 64.7854 79.0546C61.2628 78.1969 57.6541 78.4131 53.8154 79.7176C52.4855 80.1717 51.2202 80.7411 49.991 81.2961C48.618 81.9159 47.324 82.4997 45.9797 82.9105C38.7406 85.1231 36.4832 85.4691 27.6699 79.8907C27.6052 79.8474 27.5405 79.8186 27.4686 79.7897C27.4471 79.7825 27.4327 79.7681 27.4111 79.7609C27.4039 79.7609 27.3968 79.7537 27.3896 79.7537C27.368 79.7465 27.3464 79.7393 27.3321 79.7321C27.253 79.7033 27.1739 79.6744 27.0948 79.66C27.0876 79.66 27.0804 79.6528 27.0661 79.6528H27.0517C27.0229 79.6456 26.9942 79.6456 26.9654 79.6456C26.8935 79.6312 26.8216 79.624 26.7498 79.624C26.7282 79.624 26.7066 79.6168 26.6779 79.6168C26.6563 79.6168 26.6419 79.624 26.6204 79.624C26.5485 79.624 26.4766 79.6312 26.4047 79.6456C26.3759 79.6528 26.34 79.6528 26.3112 79.66H26.3041C26.2969 79.66 26.2969 79.6672 26.2897 79.6672C26.189 79.6888 26.0884 79.7177 25.9877 79.7609C25.9806 79.7609 25.9806 79.7681 25.9734 79.7681C25.9446 79.7825 25.9159 79.797 25.8799 79.8114C25.8152 79.8402 25.7577 79.869 25.7002 79.9051C25.6858 79.9123 25.6714 79.9195 25.6571 79.9339C25.6283 79.9555 25.5996 79.9771 25.5708 79.9988C25.542 80.0204 25.5133 80.0348 25.4845 80.0564C25.4702 80.0708 25.4558 80.0925 25.4342 80.1069C25.4126 80.1213 25.3983 80.1429 25.3767 80.1573C25.3551 80.1789 25.3408 80.2006 25.3192 80.215C25.2761 80.2582 25.2401 80.3015 25.2114 80.3519C25.1898 80.3807 25.1682 80.4024 25.1539 80.4312C25.1467 80.4456 25.1323 80.46 25.1251 80.4744C25.0892 80.5321 25.0532 80.597 25.0245 80.6618C25.0101 80.6907 24.9957 80.7123 24.9813 80.7411C24.9813 80.7483 24.9741 80.7483 24.9741 80.7555C24.9741 80.7627 24.9669 80.7699 24.9669 80.7844C24.931 80.8709 24.9022 80.9645 24.8807 81.0582C24.8807 81.0655 24.8735 81.0727 24.8735 81.0799L24.8663 81.1015V81.1087L12.5304 140.188H11.8403C10.8267 140.188 10 141.01 10 142.033C10 149.738 16.2542 156.001 23.9318 156.001H29.4025C37.0873 156.001 43.3343 149.731 43.3343 142.033C43.3343 141.017 42.5148 140.188 41.494 140.188H40.8039L30.2005 89.4116C32.6807 91.7901 35.6136 93.6134 38.3093 93.6855C38.8628 93.772 39.4523 93.8153 40.0562 93.8153C45.6419 93.8153 53.0391 90.4639 54.0456 89.9954C54.4697 89.8512 54.8794 89.6999 55.2964 89.5557C57.5177 88.7557 59.2645 88.1215 61.2846 88.7341C62.7583 89.181 63.0746 89.5918 63.0387 91.062C62.974 93.8153 62.8949 96.6549 62.7871 99.7613C62.5211 107.408 62.2479 120.806 61.9891 133.759C61.7591 145.255 61.5362 156.16 61.3206 163.382H54.2828C51.853 163.382 49.8762 165.364 49.8762 167.8V172.448H39.0069C36.5771 172.448 34.6002 174.43 34.6002 176.866V185.155C34.6002 186.171 35.4197 187 36.4405 187H103.951C104.965 187 105.791 186.178 105.791 185.155V176.866C105.791 176.614 105.762 176.369 105.727 176.131H166.061C171.022 176.131 175.055 172.088 175.055 167.115V161.147H181.007C185.967 161.147 190 157.104 190 152.131V23.0173C190 18.0442 185.966 14 181.006 14ZM29.4312 152.295H23.9605C18.9283 152.295 14.7374 148.648 13.8674 143.848H14.0472H14.0544H39.3367H39.3439H39.3511H39.5308C38.6609 148.641 34.4627 152.295 29.4377 152.295H29.4312ZM16.3046 140.165L26.6923 90.4267L37.08 140.165H16.3046ZM62.3697 85.1793C59.185 84.2135 56.59 85.1577 54.0739 86.0658C53.6569 86.2172 53.2328 86.3685 52.8015 86.5127C52.7296 86.5343 52.6649 86.5631 52.6002 86.592C49.128 88.2424 42.3131 90.6209 38.8193 90.0083C38.7115 89.9867 38.6108 89.9795 38.503 89.9795C36.9646 89.9795 34.9086 88.7038 33.0107 86.9381C37.7265 88.8047 41.098 88.2498 47.0575 86.4263C48.6175 85.9507 50.0839 85.2876 51.5002 84.6533C52.7008 84.1128 53.8294 83.6011 54.9939 83.2046C58.9405 81.8641 62.4126 81.8857 65.9352 83.2767C66.5031 83.5001 67.1429 83.4281 67.6389 83.0821C68.1421 82.7362 68.4441 82.1668 68.4441 81.5614C68.4441 81.0352 68.4512 80.5307 68.4512 80.055C68.4584 78.8442 68.4728 77.6983 68.4081 76.5523C68.3362 75.2838 67.452 74.3035 67.186 74.0297C66.2371 73.0711 66.0646 72.0693 66.6325 70.8801C67.186 69.727 68.5807 67.5431 69.81 65.6187C69.9394 65.4097 70.076 65.2079 70.1982 65.0061C70.3276 65.2079 70.457 65.4097 70.5864 65.6187C71.8157 67.5431 73.2103 69.727 73.7639 70.8801C74.339 72.0694 74.1593 73.0712 73.2104 74.0297C72.9444 74.3036 72.0602 75.2838 71.9883 76.5523C71.9236 77.6983 71.9308 78.8371 71.9451 80.0478C71.9523 80.5307 71.9523 81.028 71.9523 81.5614C71.9523 82.174 72.2542 82.7434 72.7575 83.0821C73.2607 83.4281 73.9005 83.5001 74.4612 83.2767C77.9838 81.8929 81.4559 81.8641 85.4025 83.2046C86.567 83.601 87.6957 84.1128 88.8961 84.6533C90.3123 85.2948 91.7788 85.9506 93.3389 86.4263C99.2984 88.2426 102.67 88.8048 107.386 86.9381C105.488 88.7039 103.425 89.9867 101.893 89.9867C101.786 89.9867 101.678 89.9939 101.577 90.0155C98.0762 90.6281 91.2683 88.2425 87.7962 86.5992C87.7315 86.5703 87.6668 86.5415 87.5949 86.5199C87.1636 86.3757 86.7395 86.2244 86.3225 86.073C83.8064 85.1649 81.2114 84.2279 78.0267 85.1865C74.9788 86.1091 73.5911 87.9973 73.6631 91.1255C73.7278 93.8931 73.8069 96.7545 73.9147 99.868C74.1807 107.493 74.4539 120.878 74.7127 133.821C74.9427 145.267 75.1655 156.121 75.3812 163.365H65.0079C65.2235 156.121 65.4464 145.26 65.6764 133.814C65.9424 120.877 66.2084 107.492 66.4744 99.8736C66.5822 96.7528 66.6685 93.8914 66.726 91.131C66.7979 88.003 65.4104 86.1146 62.3624 85.192L62.3697 85.1793ZM53.5634 167.776C53.5634 167.373 53.8941 167.041 54.2966 167.041H86.0992C86.5018 167.041 86.8325 167.373 86.8325 167.776V172.425H53.5558V167.776H53.5634ZM102.117 183.294H38.2869V176.851C38.2869 176.447 38.6175 176.115 39.0201 176.115H101.383C101.786 176.115 102.116 176.447 102.116 176.851L102.117 183.294ZM166.06 172.425H101.469H101.44H101.383H90.5132V167.777C90.5132 165.341 88.5363 163.359 86.1066 163.359H79.0688C78.8531 156.137 78.6303 145.239 78.4003 133.743C78.1343 120.784 77.8683 107.386 77.6023 99.7381C77.4945 96.6318 77.4154 93.792 77.3507 91.0389C77.3148 89.5686 77.6311 89.1579 79.1047 88.711C81.1249 88.0984 82.8717 88.7326 85.093 89.5326C85.5027 89.684 85.9197 89.8281 86.3438 89.9723C87.4509 90.4912 96.4369 94.5562 102.08 93.6696C104.769 93.5976 107.702 91.7814 110.189 89.3957L99.5855 140.172H98.8954C97.8818 140.172 97.055 140.994 97.055 142.017C97.055 149.722 103.309 155.985 110.987 155.985H116.458C124.142 155.985 130.389 149.715 130.389 142.017C130.389 141.001 129.57 140.172 128.549 140.172H127.852L115.516 81.0928V81.0856L115.509 81.064C115.509 81.0568 115.501 81.0496 115.501 81.0424C115.48 80.9487 115.451 80.855 115.415 80.7613C115.415 80.7541 115.408 80.7469 115.408 80.7396C115.408 80.7324 115.401 80.7252 115.401 80.7252L115.358 80.6387C115.329 80.5739 115.3 80.5162 115.257 80.4586C115.25 80.4441 115.243 80.4297 115.228 80.4153C115.207 80.3865 115.185 80.3577 115.164 80.3288C115.128 80.2856 115.092 80.2423 115.056 80.1991C115.041 80.1775 115.02 80.1631 115.005 80.1414C114.984 80.1198 114.962 80.0982 114.941 80.0838L114.898 80.0405C114.869 80.0189 114.84 80.0045 114.811 79.9829C114.783 79.9613 114.761 79.9396 114.732 79.918C114.718 79.9036 114.696 79.8964 114.682 79.8892C114.624 79.8531 114.567 79.8243 114.502 79.7955C114.473 79.7811 114.445 79.7667 114.416 79.7522C114.402 79.745 114.394 79.745 114.387 79.7378C114.294 79.7018 114.193 79.673 114.1 79.6513C114.092 79.6513 114.092 79.6441 114.085 79.6441H114.078C114.042 79.6369 114.013 79.6369 113.977 79.6297C113.906 79.6225 113.834 79.6081 113.769 79.6081C113.747 79.6081 113.733 79.6009 113.711 79.6009C113.69 79.6009 113.661 79.6081 113.64 79.6081C113.568 79.6081 113.496 79.6153 113.424 79.6297C113.395 79.6369 113.366 79.6369 113.338 79.6369H113.323C113.316 79.6369 113.309 79.6441 113.295 79.6441C113.215 79.6658 113.136 79.6874 113.057 79.7162C113.036 79.7234 113.014 79.7306 112.993 79.7378C112.985 79.7378 112.978 79.745 112.971 79.745C112.949 79.7522 112.935 79.7667 112.914 79.7739C112.849 79.8027 112.777 79.8387 112.712 79.8748C103.899 85.4532 101.642 85.1072 94.4025 82.8946C93.0654 82.4838 91.7642 81.9 90.3911 81.2802C89.1619 80.7252 87.8966 80.1558 86.5668 79.7018C82.728 78.3972 79.1192 78.181 75.5968 79.0387C75.5968 78.2603 75.5968 77.5467 75.6399 76.8404C75.6687 76.7828 75.7334 76.6891 75.8053 76.6098C77.8469 74.5413 78.307 71.8674 77.0561 69.2654C76.4019 67.9104 75.0145 65.7266 73.6629 63.6221C73.0447 62.6491 72.4552 61.7338 72.0095 61.0057V37.9846C72.0095 35.0439 74.3962 32.6512 77.3291 32.6512H85.1074H85.1218H85.1362H93.3889L80.9094 44.2767C79.7376 45.3722 79.2416 47.0659 79.6513 48.6084C80.0539 50.1148 81.2472 51.2247 82.8504 51.5923C83.181 51.6644 83.5189 51.7004 83.8496 51.7004C84.3312 51.7004 84.8057 51.6211 85.2658 51.477V73.6032C85.2658 75.6718 86.9479 77.351 89.0184 77.351H93.0297H93.0585H104.539H104.568H125.373C127.443 77.351 129.125 75.6716 129.125 73.6032V51.3404C130.009 51.7008 130.98 51.7945 131.914 51.5855C133.51 51.2179 134.704 50.108 135.106 48.6016C135.516 47.0665 135.027 45.3655 133.848 44.2771L121.369 32.6516H142.31V59.8592C142.31 60.8755 143.129 61.7043 144.15 61.7043H171.352V158.809C171.316 158.961 171.287 159.112 171.287 159.271C171.287 159.429 171.316 159.58 171.352 159.732V167.083C171.352 170.024 168.965 172.417 166.032 172.417L166.06 172.425ZM126.543 143.849C125.673 148.642 121.475 152.296 116.45 152.296H110.979C105.947 152.296 101.756 148.649 100.886 143.849H101.066H101.073H126.356H126.363H126.37H126.55H126.543ZM103.324 140.166L113.712 90.4277L124.099 140.166H103.324ZM131.367 46.9888C131.582 47.1834 131.625 47.4717 131.575 47.6591C131.554 47.7384 131.503 47.9186 131.122 48.0051C130.799 48.0771 130.418 47.9546 130.13 47.6879L109.966 28.905C108.528 27.5644 106.278 27.5572 104.833 28.905L86.1058 46.3467C85.9549 46.4476 85.8255 46.5774 85.7105 46.7215L84.6753 47.6873C84.3877 47.9612 84.0067 48.0837 83.6832 48.0116C83.295 47.9251 83.2447 47.745 83.2304 47.6657C83.18 47.4783 83.2232 47.19 83.4388 46.9954L107.341 24.7252C107.362 24.7108 107.384 24.6964 107.406 24.6964C107.427 24.6964 107.449 24.7036 107.47 24.7252L131.38 46.9954L131.367 46.9888ZM94.9117 73.678V57.31H102.712V73.678H94.9117ZM104.552 53.6274H93.0714C92.0578 53.6274 91.2311 54.4491 91.2311 55.4725V73.6783H89.0313C88.9882 73.6783 88.9523 73.6423 88.9523 73.6135V48.7122L107.327 31.5948C107.363 31.5588 107.413 31.5588 107.449 31.5948L125.457 48.3663V73.6144C125.457 73.6432 125.428 73.6793 125.378 73.6793H106.386V55.4734C106.386 54.4572 105.566 53.6284 104.545 53.6284L104.552 53.6274ZM146.001 58.0311V35.2701L168.704 58.0311H146.001ZM186.308 152.108C186.308 155.049 183.921 157.442 180.989 157.442H175.036L175.051 59.8754C175.051 59.2268 174.713 58.6574 174.202 58.3259L145.469 29.5186C145.397 29.4465 145.311 29.3816 145.225 29.3168C145.196 29.2951 145.167 29.2807 145.132 29.2591C145.074 29.2231 145.009 29.187 144.945 29.1582C144.909 29.1438 144.873 29.1222 144.837 29.1077C144.765 29.0789 144.686 29.0573 144.607 29.0357C144.578 29.0285 144.542 29.0212 144.513 29.014C144.413 28.9924 144.319 28.9852 144.219 28.9852C144.204 28.9852 144.19 28.978 144.168 28.978H117.434L109.965 22.0158C108.527 20.6752 106.277 20.668 104.832 22.0158L97.3627 28.978H86.9822V23.0103C86.9822 20.0696 89.3689 17.6769 92.3019 17.6769H181.004C183.937 17.6769 186.323 20.0698 186.323 23.0103V152.109L186.308 152.108ZM110.618 53.8003C110.129 53.8003 109.661 53.9949 109.316 54.3409C108.971 54.6868 108.777 55.1553 108.777 55.6454L108.77 66.8456C108.77 67.8619 109.59 68.6907 110.603 68.6907L121.739 68.6979C122.227 68.6979 122.695 68.5033 123.04 68.1574C123.385 67.8114 123.579 67.3429 123.579 66.8528L123.586 55.6526C123.586 54.6364 122.767 53.8075 121.753 53.8075L110.618 53.8003ZM112.451 57.4833L119.913 57.4905L119.905 65.0077L112.444 65.0005L112.451 57.4833ZM113.752 43.638C113.752 40.1281 110.905 37.2667 107.411 37.2667C103.918 37.2667 101.071 40.1209 101.071 43.638C101.071 47.1479 103.918 50.0092 107.411 50.0092C110.905 50.0092 113.752 47.1551 113.752 43.638ZM104.752 43.638C104.752 42.1605 105.945 40.9497 107.419 40.9497C108.885 40.9497 110.086 42.1533 110.086 43.638C110.086 45.1155 108.892 46.3263 107.419 46.3263C105.952 46.3263 104.752 45.1226 104.752 43.638ZM157.999 98.723C157.999 99.7392 157.18 100.568 156.159 100.568H123.644C122.631 100.568 121.804 99.7464 121.804 98.723C121.804 97.7067 122.624 96.8779 123.644 96.8779H156.159C157.173 96.8779 157.999 97.6995 157.999 98.723ZM85.2847 98.723C85.2847 97.7067 86.1042 96.8779 87.125 96.8779H103.774C104.788 96.8779 105.615 97.6995 105.615 98.723C105.615 99.7392 104.795 100.568 103.774 100.568H87.125C86.1114 100.568 85.2847 99.7464 85.2847 98.723ZM157.999 86.3046C157.999 87.3209 157.18 88.1497 156.159 88.1497H121.049C120.036 88.1497 119.209 87.3281 119.209 86.3046C119.209 85.2884 120.029 84.4595 121.049 84.4595H156.159C157.173 84.4595 157.999 85.2812 157.999 86.3046ZM157.999 111.149C157.999 112.165 157.18 112.994 156.159 112.994H126.232C125.218 112.994 124.392 112.172 124.392 111.149C124.392 110.132 125.211 109.304 126.232 109.304H156.159C157.173 109.304 157.999 110.125 157.999 111.149ZM85.2847 111.149C85.2847 110.132 86.1042 109.304 87.125 109.304H101.179C102.193 109.304 103.019 110.125 103.019 111.149C103.019 112.165 102.2 112.994 101.179 112.994H87.125C86.1114 112.994 85.2847 112.172 85.2847 111.149ZM157.999 123.567C157.999 124.583 157.18 125.412 156.159 125.412H128.827C127.813 125.412 126.986 124.59 126.986 123.567C126.986 122.551 127.806 121.722 128.827 121.722H156.159C157.173 121.722 157.999 122.544 157.999 123.567ZM85.2847 123.567C85.2847 122.551 86.1042 121.722 87.125 121.722H98.5911C99.6047 121.722 100.431 122.544 100.431 123.567C100.431 124.583 99.6119 125.412 98.5911 125.412H87.125C86.1114 125.412 85.2847 124.59 85.2847 123.567ZM157.999 135.985C157.999 137.002 157.18 137.83 156.159 137.83H131.423C130.41 137.83 129.583 137.009 129.583 135.985C129.583 134.969 130.403 134.14 131.423 134.14H156.159C157.173 134.14 157.999 134.962 157.999 135.985ZM95.9972 137.83H87.1263C86.1127 137.83 85.286 137.009 85.286 135.985C85.286 134.969 86.1055 134.14 87.1263 134.14H95.9972C97.0108 134.14 97.8375 134.962 97.8375 135.985C97.8375 137.002 97.018 137.83 95.9972 137.83ZM157.999 148.411C157.999 149.427 157.18 150.256 156.159 150.256H134.018C133.005 150.256 132.178 149.434 132.178 148.411C132.178 147.395 132.997 146.566 134.018 146.566H156.159C157.173 146.566 157.999 147.387 157.999 148.411ZM95.2353 148.411C95.2353 149.427 94.4158 150.256 93.395 150.256H87.1191C86.1055 150.256 85.2788 149.434 85.2788 148.411C85.2788 147.395 86.0983 146.566 87.1191 146.566H93.395C94.4086 146.566 95.2353 147.387 95.2353 148.411Z" fill="black"/>
</svg>
