<svg width="200" height="200" viewBox="0 0 200 200" fill="none" xmlns="http://www.w3.org/2000/svg">
<mask id="mask0_471_296" style="mask-type:luminance" maskUnits="userSpaceOnUse" x="9" y="9" width="182" height="182">
<path d="M190.225 9.77539V190.225H9.77539V9.77539H190.225Z" fill="white" stroke="white" stroke-width="0.45"/>
</mask>
<g mask="url(#mask0_471_296)">
<mask id="path-2-outside-1_471_296" maskUnits="userSpaceOnUse" x="9" y="9" width="182" height="182" fill="black">
<rect fill="white" x="9" y="9" width="182" height="182"/>
<path fill-rule="evenodd" clip-rule="evenodd" d="M16.4979 176.996H18.7529V174.275C18.7529 172.487 19.4857 170.861 20.6614 169.685C20.7017 169.645 20.7419 169.612 20.7822 169.573C21.9499 168.461 23.5283 167.777 25.2517 167.777H26.9831V165.111C26.9831 163.34 27.7079 161.73 28.8755 160.562C30.0433 159.395 31.6539 158.67 33.4255 158.67H34.585V103.563H33.4255C31.6537 103.563 30.0433 102.839 28.8755 101.671C27.7079 100.503 26.9831 98.8931 26.9831 97.1218V94.4565H25.2517C23.4639 94.4565 21.8373 93.7238 20.6614 92.5482C19.4856 91.3726 18.7529 89.7461 18.7529 87.9585V83.1435L18.7609 83.1113V83.1033L18.769 83.0711V83.063L18.7851 83.0148V83.0066L18.8092 82.9101L18.8173 82.8859V82.8779L18.8253 82.8456V82.8375L18.8334 82.8134L18.8495 82.7812L18.8656 82.7168L18.8736 82.7087L18.8898 82.6604L18.8978 82.6524L18.9139 82.6202L18.93 82.596L18.9461 82.5639L18.9542 82.5396V82.5316L18.9703 82.4994V82.4913L18.9864 82.4672L19.0025 82.435L19.0347 82.3866L19.0831 82.3383L19.1152 82.2901L19.1313 82.2578L19.1474 82.2336V82.2256L19.1635 82.2015L19.3326 82.0324H19.3407L19.3649 82.0163L19.373 82.0082L19.3891 82.0002L19.4132 81.9841L19.5098 81.8874L19.534 81.8713L19.5582 81.8472L19.5823 81.8311L19.5904 81.8231L19.6145 81.8069H19.6226L19.6467 81.7908L19.679 81.7747L19.7031 81.7586H19.7112L19.7353 81.7425L19.7434 81.7345L19.7675 81.7264L19.7836 81.7184L19.7917 81.7103L19.8239 81.6942L19.8481 81.6781L19.8803 81.662L59.3882 59.2701L98.1065 37.3605V23.4147L98.1146 17.6494V11.8841C98.1146 10.8454 98.9601 10 99.999 10H123.402C124.44 10 125.286 10.8455 125.286 11.8841C125.286 12.2948 125.158 12.6652 124.94 12.9792L122.243 17.6493L125.029 22.4723C125.544 23.3742 125.238 24.5175 124.336 25.0409C124.038 25.21 123.716 25.2905 123.402 25.2905V25.2986L101.884 25.3066V37.3604L140.61 59.27L180.159 81.6454C180.803 81.9433 181.247 82.5955 181.247 83.3524V87.9662C181.247 89.7538 180.513 91.3721 179.338 92.5478H179.33L179.338 92.5559C178.162 93.7315 176.535 94.4642 174.748 94.4642H173.016V97.1294C173.016 98.9009 172.292 100.511 171.123 101.678C169.956 102.847 168.345 103.571 166.574 103.571H165.414V158.677H166.574C168.345 158.677 169.956 159.403 171.123 160.57C172.292 161.737 173.016 163.348 173.016 165.119V167.784H174.748C176.535 167.784 178.153 168.517 179.33 169.692L179.338 169.701C180.513 170.877 181.247 172.503 181.247 174.282V177.004H183.501C185.289 177.004 186.908 177.737 188.083 178.912L188.091 178.92C189.267 180.096 190 181.723 190 183.502V188.115C190 189.155 189.154 190 188.115 190L11.8844 189.992C10.8456 189.992 10 189.147 10 188.108V183.494C10 181.706 10.7328 180.08 11.9086 178.904C11.9488 178.864 11.9891 178.832 12.0294 178.791C13.1971 177.681 14.7664 176.996 16.4979 176.996ZM161.636 103.562H147.415V158.669H161.636V103.562ZM143.646 103.562H142.486C140.715 103.562 139.104 102.838 137.937 101.67C136.769 100.503 136.044 98.8924 136.044 97.1211V94.4558H118.472V97.1211C118.472 98.8925 117.748 100.503 116.58 101.67C115.412 102.838 113.801 103.562 112.03 103.562H110.87V158.669H112.03C113.801 158.669 115.412 159.394 116.58 160.562C117.748 161.729 118.472 163.339 118.472 165.11V167.776H136.044V165.11C136.044 163.339 136.769 161.729 137.937 160.562C139.104 159.394 140.715 158.669 142.486 158.669H143.646V103.562ZM169.239 94.4638H139.828V97.129C139.828 97.8618 140.126 98.522 140.609 99.0051C141.092 99.4883 141.761 99.7862 142.485 99.7862H166.565C167.297 99.7862 167.958 99.4883 168.441 99.0051C168.924 98.522 169.223 97.8538 169.223 97.129L169.239 94.4638ZM139.828 167.767H169.239V165.102C169.239 164.37 168.94 163.709 168.458 163.226C167.974 162.744 167.306 162.446 166.581 162.446H142.502C141.769 162.446 141.108 162.744 140.625 163.226C140.142 163.709 139.844 164.378 139.844 165.102L139.828 167.767ZM38.3596 158.669H52.5812L52.5731 103.562H38.3516L38.3596 158.669ZM56.3501 158.669H57.5097C59.2814 158.669 60.8919 159.394 62.0596 160.561C63.2274 161.728 63.9521 163.339 63.9521 165.11V167.775H81.5237V165.11C81.5237 163.339 82.2484 161.728 83.4161 160.561C84.5838 159.394 86.1945 158.669 87.966 158.669H89.1257L89.1176 103.562H87.958C86.1863 103.562 84.5758 102.838 83.408 101.67C82.2404 100.502 81.5156 98.8919 81.5156 97.1206V94.4554H63.944V97.1206C63.944 98.8921 63.2192 100.502 62.0516 101.67C60.8839 102.838 59.2732 103.562 57.5017 103.562H56.3421L56.3501 158.669ZM60.1673 94.4636H30.757V97.1288C30.757 97.8616 31.055 98.5218 31.5382 99.005C32.0213 99.4881 32.6897 99.786 33.4145 99.786H57.4936C58.2264 99.786 58.8867 99.4881 59.3699 99.005C59.8532 98.5218 60.1511 97.8535 60.1511 97.1288L60.1673 94.4636ZM30.757 167.767H60.1673V165.102C60.1673 164.37 59.8694 163.709 59.3861 163.226C58.9029 162.743 58.2346 162.445 57.5098 162.445H33.4307C32.6978 162.445 32.0375 162.743 31.5544 163.226C31.0712 163.709 30.7732 164.378 30.7732 165.102L30.757 167.767ZM92.8865 158.668H107.108V103.562H92.8865V158.668ZM87.9581 99.7856H112.037C112.77 99.7856 113.431 99.4877 113.914 99.0046C114.396 98.5215 114.694 97.8531 114.694 97.1285V94.4632H85.2844V97.1285C85.2844 97.8612 85.5824 98.5215 86.0656 99.0046C86.5568 99.4877 87.2253 99.7856 87.9581 99.7856ZM85.2925 167.767H114.702V165.102C114.702 164.369 114.404 163.709 113.922 163.226C113.439 162.743 112.77 162.445 112.046 162.445H87.9662C87.2334 162.445 86.5731 162.743 86.0899 163.226C85.6067 163.709 85.3087 164.377 85.3087 165.102L85.2925 167.767ZM99.9973 51.5203C96.7359 51.5203 93.7724 52.8489 91.6222 54.9907L91.598 55.0149C89.4478 57.1649 88.1191 60.1279 88.1191 63.397C88.1191 66.658 89.4479 69.621 91.5899 71.771L91.6141 71.7952C93.7643 73.9451 96.7278 75.2736 99.9973 75.2736C103.259 75.2736 106.223 73.945 108.373 71.8032L108.396 71.7791C110.547 69.6291 111.875 66.666 111.875 63.397C111.875 60.1279 110.547 57.1729 108.404 55.0229L108.381 54.9987C106.23 52.8488 103.267 51.5203 99.9973 51.5203ZM105.723 57.664C104.265 56.2066 102.236 55.3049 99.9973 55.3049C97.7586 55.3049 95.7372 56.2067 94.2717 57.664L94.2636 57.6721C92.806 59.1295 91.9041 61.1586 91.9041 63.3969C91.9041 65.6353 92.8061 67.6564 94.2636 69.1218L94.2717 69.1298C95.7292 70.5873 97.7586 71.489 99.9973 71.489C102.236 71.489 104.265 70.5872 105.723 69.1298L105.731 69.1218C107.188 67.6644 108.09 65.6353 108.09 63.3969C108.09 61.1586 107.188 59.1295 105.731 57.6721L105.723 57.664ZM138.749 62.5355L99.9978 40.6095L61.2465 62.5355L27.7934 81.4576H172.2L138.749 62.5355ZM177.467 85.2345H22.5282V87.956C22.5282 88.7049 22.8343 89.3813 23.3255 89.8805C23.8167 90.3716 24.5012 90.6776 25.2501 90.6776H174.731C175.479 90.6776 176.156 90.3716 176.655 89.8805V89.8885C177.146 89.3974 177.452 88.7129 177.452 87.9641L177.477 85.2345H177.467ZM22.5282 176.995H177.476V174.273C177.476 173.525 177.17 172.849 176.678 172.349L176.67 172.341C176.18 171.85 175.495 171.545 174.746 171.545H25.2491C24.5323 171.545 23.8881 171.818 23.3969 172.269L23.3244 172.341C22.8331 172.841 22.5271 173.516 22.5271 174.265L22.5282 176.995ZM101.882 13.7734V21.5194H120.138L118.455 18.5965C118.125 18.0328 118.093 17.3081 118.439 16.7042L120.138 13.7652H101.882V13.7734ZM183.499 180.763H16.4961C15.7793 180.763 15.1351 181.037 14.6439 181.488L14.5714 181.569C14.0802 182.059 13.7741 182.744 13.7741 183.493V186.215H186.228V183.493C186.228 182.744 185.922 182.067 185.432 181.569L185.423 181.561C184.932 181.069 184.249 180.763 183.499 180.763Z"/>
</mask>
<path fill-rule="evenodd" clip-rule="evenodd" d="M16.4979 176.996H18.7529V174.275C18.7529 172.487 19.4857 170.861 20.6614 169.685C20.7017 169.645 20.7419 169.612 20.7822 169.573C21.9499 168.461 23.5283 167.777 25.2517 167.777H26.9831V165.111C26.9831 163.34 27.7079 161.73 28.8755 160.562C30.0433 159.395 31.6539 158.67 33.4255 158.67H34.585V103.563H33.4255C31.6537 103.563 30.0433 102.839 28.8755 101.671C27.7079 100.503 26.9831 98.8931 26.9831 97.1218V94.4565H25.2517C23.4639 94.4565 21.8373 93.7238 20.6614 92.5482C19.4856 91.3726 18.7529 89.7461 18.7529 87.9585V83.1435L18.7609 83.1113V83.1033L18.769 83.0711V83.063L18.7851 83.0148V83.0066L18.8092 82.9101L18.8173 82.8859V82.8779L18.8253 82.8456V82.8375L18.8334 82.8134L18.8495 82.7812L18.8656 82.7168L18.8736 82.7087L18.8898 82.6604L18.8978 82.6524L18.9139 82.6202L18.93 82.596L18.9461 82.5639L18.9542 82.5396V82.5316L18.9703 82.4994V82.4913L18.9864 82.4672L19.0025 82.435L19.0347 82.3866L19.0831 82.3383L19.1152 82.2901L19.1313 82.2578L19.1474 82.2336V82.2256L19.1635 82.2015L19.3326 82.0324H19.3407L19.3649 82.0163L19.373 82.0082L19.3891 82.0002L19.4132 81.9841L19.5098 81.8874L19.534 81.8713L19.5582 81.8472L19.5823 81.8311L19.5904 81.8231L19.6145 81.8069H19.6226L19.6467 81.7908L19.679 81.7747L19.7031 81.7586H19.7112L19.7353 81.7425L19.7434 81.7345L19.7675 81.7264L19.7836 81.7184L19.7917 81.7103L19.8239 81.6942L19.8481 81.6781L19.8803 81.662L59.3882 59.2701L98.1065 37.3605V23.4147L98.1146 17.6494V11.8841C98.1146 10.8454 98.9601 10 99.999 10H123.402C124.44 10 125.286 10.8455 125.286 11.8841C125.286 12.2948 125.158 12.6652 124.94 12.9792L122.243 17.6493L125.029 22.4723C125.544 23.3742 125.238 24.5175 124.336 25.0409C124.038 25.21 123.716 25.2905 123.402 25.2905V25.2986L101.884 25.3066V37.3604L140.61 59.27L180.159 81.6454C180.803 81.9433 181.247 82.5955 181.247 83.3524V87.9662C181.247 89.7538 180.513 91.3721 179.338 92.5478H179.33L179.338 92.5559C178.162 93.7315 176.535 94.4642 174.748 94.4642H173.016V97.1294C173.016 98.9009 172.292 100.511 171.123 101.678C169.956 102.847 168.345 103.571 166.574 103.571H165.414V158.677H166.574C168.345 158.677 169.956 159.403 171.123 160.57C172.292 161.737 173.016 163.348 173.016 165.119V167.784H174.748C176.535 167.784 178.153 168.517 179.33 169.692L179.338 169.701C180.513 170.877 181.247 172.503 181.247 174.282V177.004H183.501C185.289 177.004 186.908 177.737 188.083 178.912L188.091 178.92C189.267 180.096 190 181.723 190 183.502V188.115C190 189.155 189.154 190 188.115 190L11.8844 189.992C10.8456 189.992 10 189.147 10 188.108V183.494C10 181.706 10.7328 180.08 11.9086 178.904C11.9488 178.864 11.9891 178.832 12.0294 178.791C13.1971 177.681 14.7664 176.996 16.4979 176.996ZM161.636 103.562H147.415V158.669H161.636V103.562ZM143.646 103.562H142.486C140.715 103.562 139.104 102.838 137.937 101.67C136.769 100.503 136.044 98.8924 136.044 97.1211V94.4558H118.472V97.1211C118.472 98.8925 117.748 100.503 116.58 101.67C115.412 102.838 113.801 103.562 112.03 103.562H110.87V158.669H112.03C113.801 158.669 115.412 159.394 116.58 160.562C117.748 161.729 118.472 163.339 118.472 165.11V167.776H136.044V165.11C136.044 163.339 136.769 161.729 137.937 160.562C139.104 159.394 140.715 158.669 142.486 158.669H143.646V103.562ZM169.239 94.4638H139.828V97.129C139.828 97.8618 140.126 98.522 140.609 99.0051C141.092 99.4883 141.761 99.7862 142.485 99.7862H166.565C167.297 99.7862 167.958 99.4883 168.441 99.0051C168.924 98.522 169.223 97.8538 169.223 97.129L169.239 94.4638ZM139.828 167.767H169.239V165.102C169.239 164.37 168.94 163.709 168.458 163.226C167.974 162.744 167.306 162.446 166.581 162.446H142.502C141.769 162.446 141.108 162.744 140.625 163.226C140.142 163.709 139.844 164.378 139.844 165.102L139.828 167.767ZM38.3596 158.669H52.5812L52.5731 103.562H38.3516L38.3596 158.669ZM56.3501 158.669H57.5097C59.2814 158.669 60.8919 159.394 62.0596 160.561C63.2274 161.728 63.9521 163.339 63.9521 165.11V167.775H81.5237V165.11C81.5237 163.339 82.2484 161.728 83.4161 160.561C84.5838 159.394 86.1945 158.669 87.966 158.669H89.1257L89.1176 103.562H87.958C86.1863 103.562 84.5758 102.838 83.408 101.67C82.2404 100.502 81.5156 98.8919 81.5156 97.1206V94.4554H63.944V97.1206C63.944 98.8921 63.2192 100.502 62.0516 101.67C60.8839 102.838 59.2732 103.562 57.5017 103.562H56.3421L56.3501 158.669ZM60.1673 94.4636H30.757V97.1288C30.757 97.8616 31.055 98.5218 31.5382 99.005C32.0213 99.4881 32.6897 99.786 33.4145 99.786H57.4936C58.2264 99.786 58.8867 99.4881 59.3699 99.005C59.8532 98.5218 60.1511 97.8535 60.1511 97.1288L60.1673 94.4636ZM30.757 167.767H60.1673V165.102C60.1673 164.37 59.8694 163.709 59.3861 163.226C58.9029 162.743 58.2346 162.445 57.5098 162.445H33.4307C32.6978 162.445 32.0375 162.743 31.5544 163.226C31.0712 163.709 30.7732 164.378 30.7732 165.102L30.757 167.767ZM92.8865 158.668H107.108V103.562H92.8865V158.668ZM87.9581 99.7856H112.037C112.77 99.7856 113.431 99.4877 113.914 99.0046C114.396 98.5215 114.694 97.8531 114.694 97.1285V94.4632H85.2844V97.1285C85.2844 97.8612 85.5824 98.5215 86.0656 99.0046C86.5568 99.4877 87.2253 99.7856 87.9581 99.7856ZM85.2925 167.767H114.702V165.102C114.702 164.369 114.404 163.709 113.922 163.226C113.439 162.743 112.77 162.445 112.046 162.445H87.9662C87.2334 162.445 86.5731 162.743 86.0899 163.226C85.6067 163.709 85.3087 164.377 85.3087 165.102L85.2925 167.767ZM99.9973 51.5203C96.7359 51.5203 93.7724 52.8489 91.6222 54.9907L91.598 55.0149C89.4478 57.1649 88.1191 60.1279 88.1191 63.397C88.1191 66.658 89.4479 69.621 91.5899 71.771L91.6141 71.7952C93.7643 73.9451 96.7278 75.2736 99.9973 75.2736C103.259 75.2736 106.223 73.945 108.373 71.8032L108.396 71.7791C110.547 69.6291 111.875 66.666 111.875 63.397C111.875 60.1279 110.547 57.1729 108.404 55.0229L108.381 54.9987C106.23 52.8488 103.267 51.5203 99.9973 51.5203ZM105.723 57.664C104.265 56.2066 102.236 55.3049 99.9973 55.3049C97.7586 55.3049 95.7372 56.2067 94.2717 57.664L94.2636 57.6721C92.806 59.1295 91.9041 61.1586 91.9041 63.3969C91.9041 65.6353 92.8061 67.6564 94.2636 69.1218L94.2717 69.1298C95.7292 70.5873 97.7586 71.489 99.9973 71.489C102.236 71.489 104.265 70.5872 105.723 69.1298L105.731 69.1218C107.188 67.6644 108.09 65.6353 108.09 63.3969C108.09 61.1586 107.188 59.1295 105.731 57.6721L105.723 57.664ZM138.749 62.5355L99.9978 40.6095L61.2465 62.5355L27.7934 81.4576H172.2L138.749 62.5355ZM177.467 85.2345H22.5282V87.956C22.5282 88.7049 22.8343 89.3813 23.3255 89.8805C23.8167 90.3716 24.5012 90.6776 25.2501 90.6776H174.731C175.479 90.6776 176.156 90.3716 176.655 89.8805V89.8885C177.146 89.3974 177.452 88.7129 177.452 87.9641L177.477 85.2345H177.467ZM22.5282 176.995H177.476V174.273C177.476 173.525 177.17 172.849 176.678 172.349L176.67 172.341C176.18 171.85 175.495 171.545 174.746 171.545H25.2491C24.5323 171.545 23.8881 171.818 23.3969 172.269L23.3244 172.341C22.8331 172.841 22.5271 173.516 22.5271 174.265L22.5282 176.995ZM101.882 13.7734V21.5194H120.138L118.455 18.5965C118.125 18.0328 118.093 17.3081 118.439 16.7042L120.138 13.7652H101.882V13.7734ZM183.499 180.763H16.4961C15.7793 180.763 15.1351 181.037 14.6439 181.488L14.5714 181.569C14.0802 182.059 13.7741 182.744 13.7741 183.493V186.215H186.228V183.493C186.228 182.744 185.922 182.067 185.432 181.569L185.423 181.561C184.932 181.069 184.249 180.763 183.499 180.763Z" fill="black"/>
<path fill-rule="evenodd" clip-rule="evenodd" d="M16.4979 176.996H18.7529V174.275C18.7529 172.487 19.4857 170.861 20.6614 169.685C20.7017 169.645 20.7419 169.612 20.7822 169.573C21.9499 168.461 23.5283 167.777 25.2517 167.777H26.9831V165.111C26.9831 163.34 27.7079 161.73 28.8755 160.562C30.0433 159.395 31.6539 158.67 33.4255 158.67H34.585V103.563H33.4255C31.6537 103.563 30.0433 102.839 28.8755 101.671C27.7079 100.503 26.9831 98.8931 26.9831 97.1218V94.4565H25.2517C23.4639 94.4565 21.8373 93.7238 20.6614 92.5482C19.4856 91.3726 18.7529 89.7461 18.7529 87.9585V83.1435L18.7609 83.1113V83.1033L18.769 83.0711V83.063L18.7851 83.0148V83.0066L18.8092 82.9101L18.8173 82.8859V82.8779L18.8253 82.8456V82.8375L18.8334 82.8134L18.8495 82.7812L18.8656 82.7168L18.8736 82.7087L18.8898 82.6604L18.8978 82.6524L18.9139 82.6202L18.93 82.596L18.9461 82.5639L18.9542 82.5396V82.5316L18.9703 82.4994V82.4913L18.9864 82.4672L19.0025 82.435L19.0347 82.3866L19.0831 82.3383L19.1152 82.2901L19.1313 82.2578L19.1474 82.2336V82.2256L19.1635 82.2015L19.3326 82.0324H19.3407L19.3649 82.0163L19.373 82.0082L19.3891 82.0002L19.4132 81.9841L19.5098 81.8874L19.534 81.8713L19.5582 81.8472L19.5823 81.8311L19.5904 81.8231L19.6145 81.8069H19.6226L19.6467 81.7908L19.679 81.7747L19.7031 81.7586H19.7112L19.7353 81.7425L19.7434 81.7345L19.7675 81.7264L19.7836 81.7184L19.7917 81.7103L19.8239 81.6942L19.8481 81.6781L19.8803 81.662L59.3882 59.2701L98.1065 37.3605V23.4147L98.1146 17.6494V11.8841C98.1146 10.8454 98.9601 10 99.999 10H123.402C124.44 10 125.286 10.8455 125.286 11.8841C125.286 12.2948 125.158 12.6652 124.94 12.9792L122.243 17.6493L125.029 22.4723C125.544 23.3742 125.238 24.5175 124.336 25.0409C124.038 25.21 123.716 25.2905 123.402 25.2905V25.2986L101.884 25.3066V37.3604L140.61 59.27L180.159 81.6454C180.803 81.9433 181.247 82.5955 181.247 83.3524V87.9662C181.247 89.7538 180.513 91.3721 179.338 92.5478H179.33L179.338 92.5559C178.162 93.7315 176.535 94.4642 174.748 94.4642H173.016V97.1294C173.016 98.9009 172.292 100.511 171.123 101.678C169.956 102.847 168.345 103.571 166.574 103.571H165.414V158.677H166.574C168.345 158.677 169.956 159.403 171.123 160.57C172.292 161.737 173.016 163.348 173.016 165.119V167.784H174.748C176.535 167.784 178.153 168.517 179.33 169.692L179.338 169.701C180.513 170.877 181.247 172.503 181.247 174.282V177.004H183.501C185.289 177.004 186.908 177.737 188.083 178.912L188.091 178.92C189.267 180.096 190 181.723 190 183.502V188.115C190 189.155 189.154 190 188.115 190L11.8844 189.992C10.8456 189.992 10 189.147 10 188.108V183.494C10 181.706 10.7328 180.08 11.9086 178.904C11.9488 178.864 11.9891 178.832 12.0294 178.791C13.1971 177.681 14.7664 176.996 16.4979 176.996ZM161.636 103.562H147.415V158.669H161.636V103.562ZM143.646 103.562H142.486C140.715 103.562 139.104 102.838 137.937 101.67C136.769 100.503 136.044 98.8924 136.044 97.1211V94.4558H118.472V97.1211C118.472 98.8925 117.748 100.503 116.58 101.67C115.412 102.838 113.801 103.562 112.03 103.562H110.87V158.669H112.03C113.801 158.669 115.412 159.394 116.58 160.562C117.748 161.729 118.472 163.339 118.472 165.11V167.776H136.044V165.11C136.044 163.339 136.769 161.729 137.937 160.562C139.104 159.394 140.715 158.669 142.486 158.669H143.646V103.562ZM169.239 94.4638H139.828V97.129C139.828 97.8618 140.126 98.522 140.609 99.0051C141.092 99.4883 141.761 99.7862 142.485 99.7862H166.565C167.297 99.7862 167.958 99.4883 168.441 99.0051C168.924 98.522 169.223 97.8538 169.223 97.129L169.239 94.4638ZM139.828 167.767H169.239V165.102C169.239 164.37 168.94 163.709 168.458 163.226C167.974 162.744 167.306 162.446 166.581 162.446H142.502C141.769 162.446 141.108 162.744 140.625 163.226C140.142 163.709 139.844 164.378 139.844 165.102L139.828 167.767ZM38.3596 158.669H52.5812L52.5731 103.562H38.3516L38.3596 158.669ZM56.3501 158.669H57.5097C59.2814 158.669 60.8919 159.394 62.0596 160.561C63.2274 161.728 63.9521 163.339 63.9521 165.11V167.775H81.5237V165.11C81.5237 163.339 82.2484 161.728 83.4161 160.561C84.5838 159.394 86.1945 158.669 87.966 158.669H89.1257L89.1176 103.562H87.958C86.1863 103.562 84.5758 102.838 83.408 101.67C82.2404 100.502 81.5156 98.8919 81.5156 97.1206V94.4554H63.944V97.1206C63.944 98.8921 63.2192 100.502 62.0516 101.67C60.8839 102.838 59.2732 103.562 57.5017 103.562H56.3421L56.3501 158.669ZM60.1673 94.4636H30.757V97.1288C30.757 97.8616 31.055 98.5218 31.5382 99.005C32.0213 99.4881 32.6897 99.786 33.4145 99.786H57.4936C58.2264 99.786 58.8867 99.4881 59.3699 99.005C59.8532 98.5218 60.1511 97.8535 60.1511 97.1288L60.1673 94.4636ZM30.757 167.767H60.1673V165.102C60.1673 164.37 59.8694 163.709 59.3861 163.226C58.9029 162.743 58.2346 162.445 57.5098 162.445H33.4307C32.6978 162.445 32.0375 162.743 31.5544 163.226C31.0712 163.709 30.7732 164.378 30.7732 165.102L30.757 167.767ZM92.8865 158.668H107.108V103.562H92.8865V158.668ZM87.9581 99.7856H112.037C112.77 99.7856 113.431 99.4877 113.914 99.0046C114.396 98.5215 114.694 97.8531 114.694 97.1285V94.4632H85.2844V97.1285C85.2844 97.8612 85.5824 98.5215 86.0656 99.0046C86.5568 99.4877 87.2253 99.7856 87.9581 99.7856ZM85.2925 167.767H114.702V165.102C114.702 164.369 114.404 163.709 113.922 163.226C113.439 162.743 112.77 162.445 112.046 162.445H87.9662C87.2334 162.445 86.5731 162.743 86.0899 163.226C85.6067 163.709 85.3087 164.377 85.3087 165.102L85.2925 167.767ZM99.9973 51.5203C96.7359 51.5203 93.7724 52.8489 91.6222 54.9907L91.598 55.0149C89.4478 57.1649 88.1191 60.1279 88.1191 63.397C88.1191 66.658 89.4479 69.621 91.5899 71.771L91.6141 71.7952C93.7643 73.9451 96.7278 75.2736 99.9973 75.2736C103.259 75.2736 106.223 73.945 108.373 71.8032L108.396 71.7791C110.547 69.6291 111.875 66.666 111.875 63.397C111.875 60.1279 110.547 57.1729 108.404 55.0229L108.381 54.9987C106.23 52.8488 103.267 51.5203 99.9973 51.5203ZM105.723 57.664C104.265 56.2066 102.236 55.3049 99.9973 55.3049C97.7586 55.3049 95.7372 56.2067 94.2717 57.664L94.2636 57.6721C92.806 59.1295 91.9041 61.1586 91.9041 63.3969C91.9041 65.6353 92.8061 67.6564 94.2636 69.1218L94.2717 69.1298C95.7292 70.5873 97.7586 71.489 99.9973 71.489C102.236 71.489 104.265 70.5872 105.723 69.1298L105.731 69.1218C107.188 67.6644 108.09 65.6353 108.09 63.3969C108.09 61.1586 107.188 59.1295 105.731 57.6721L105.723 57.664ZM138.749 62.5355L99.9978 40.6095L61.2465 62.5355L27.7934 81.4576H172.2L138.749 62.5355ZM177.467 85.2345H22.5282V87.956C22.5282 88.7049 22.8343 89.3813 23.3255 89.8805C23.8167 90.3716 24.5012 90.6776 25.2501 90.6776H174.731C175.479 90.6776 176.156 90.3716 176.655 89.8805V89.8885C177.146 89.3974 177.452 88.7129 177.452 87.9641L177.477 85.2345H177.467ZM22.5282 176.995H177.476V174.273C177.476 173.525 177.17 172.849 176.678 172.349L176.67 172.341C176.18 171.85 175.495 171.545 174.746 171.545H25.2491C24.5323 171.545 23.8881 171.818 23.3969 172.269L23.3244 172.341C22.8331 172.841 22.5271 173.516 22.5271 174.265L22.5282 176.995ZM101.882 13.7734V21.5194H120.138L118.455 18.5965C118.125 18.0328 118.093 17.3081 118.439 16.7042L120.138 13.7652H101.882V13.7734ZM183.499 180.763H16.4961C15.7793 180.763 15.1351 181.037 14.6439 181.488L14.5714 181.569C14.0802 182.059 13.7741 182.744 13.7741 183.493V186.215H186.228V183.493C186.228 182.744 185.922 182.067 185.432 181.569L185.423 181.561C184.932 181.069 184.249 180.763 183.499 180.763Z" stroke="black" stroke-width="0.9" mask="url(#path-2-outside-1_471_296)"/>
</g>
</svg>
