<svg width="200" height="200" viewBox="0 0 200 200" fill="none" xmlns="http://www.w3.org/2000/svg">
<mask id="mask0_471_216" style="mask-type:luminance" maskUnits="userSpaceOnUse" x="10" y="10" width="180" height="180">
<path d="M190 10H10V190H190V10Z" fill="white"/>
</mask>
<g mask="url(#mask0_471_216)">
<path d="M61.2432 12.0083C55.0556 12.0083 49.965 17.0919 49.965 23.2794V80.4783H20.751C14.8375 80.4783 10 85.3369 10 91.2502V164.874C10 177.713 20.1742 188.211 32.7953 188.211C33.4492 188.211 34.0961 188.169 34.7359 188.113C34.9258 188.169 35.1156 188.198 35.3055 188.211H167.205C179.825 188.211 190 177.713 190 164.874V23.2712C190 17.0836 184.917 12 178.729 12L61.2432 12.0083ZM61.2432 17.6333H178.73C181.88 17.6333 184.376 20.1293 184.376 23.2794V164.882C184.376 174.782 176.726 182.594 167.206 182.594L47.6236 182.587C52.5032 178.298 55.5971 171.949 55.5971 164.876V23.2723C55.5971 20.1223 58.0932 17.6263 61.2432 17.6263V17.6333ZM77.9777 36.8214H77.9707C76.4168 36.8284 75.1651 38.087 75.1721 39.6409V76.1398C75.1793 77.6866 76.4308 78.9382 77.9707 78.9382H161.973C163.527 78.9452 164.793 77.6936 164.8 76.1398V39.6409C164.8 38.8956 164.505 38.1714 163.97 37.644C163.443 37.1167 162.725 36.8144 161.973 36.8214H77.9777ZM80.8043 42.4465H159.182V73.3418H80.7971L80.8043 42.4465ZM20.7578 86.1038H49.9719V164.876C49.9719 174.776 42.3289 182.588 32.8084 182.588C23.288 182.588 15.638 174.776 15.638 164.876L15.6239 91.2518C15.6239 88.376 17.8739 86.1049 20.7498 86.1049L20.7578 86.1038ZM77.9783 100.617H77.9712C77.2259 100.623 76.5158 100.919 75.9883 101.453C75.461 101.98 75.1657 102.698 75.1727 103.443C75.1797 104.99 76.4242 106.235 77.9711 106.242H161.974C162.719 106.249 163.436 105.953 163.964 105.426C164.498 104.899 164.794 104.189 164.801 103.443C164.801 102.69 164.506 101.974 163.971 101.439C163.444 100.912 162.726 100.617 161.974 100.617H77.9783ZM77.9783 127.919H77.9712C76.4243 127.926 75.1797 129.177 75.1727 130.724C75.1727 132.272 76.4243 133.523 77.9712 133.53H161.974C162.719 133.53 163.436 133.235 163.971 132.707C164.498 132.187 164.794 131.47 164.801 130.724C164.794 129.972 164.498 129.262 163.964 128.735C163.436 128.207 162.719 127.919 161.974 127.919H77.9783ZM77.9783 155.2H77.9712C76.4243 155.207 75.1727 156.458 75.1727 158.005C75.1657 158.75 75.461 159.468 75.9884 159.995C76.5157 160.53 77.2259 160.825 77.9712 160.832H161.974C162.726 160.832 163.444 160.537 163.971 160.002C164.506 159.475 164.801 158.758 164.801 158.005C164.794 157.26 164.498 156.543 163.971 156.015C163.436 155.488 162.719 155.193 161.974 155.2H77.9783Z" fill="black"/>
</g>
</svg>
