<svg width="200" height="200" viewBox="0 0 200 200" fill="none" xmlns="http://www.w3.org/2000/svg">
<path d="M44.0117 55.6953C45.1483 55.6954 46.0693 56.6173 46.0693 57.7539C46.0692 58.8903 45.1482 59.8115 44.0117 59.8115H32.2178C31.0813 59.8115 30.1593 58.8903 30.1592 57.7539C30.1592 56.6173 31.0812 55.6953 32.2178 55.6953H44.0117Z" fill="black" stroke="black" stroke-width="0.781042"/>
<path d="M71.3623 55.6953C72.4988 55.6954 73.4199 56.6173 73.4199 57.7539C73.4198 58.8903 72.4987 59.8115 71.3623 59.8115H59.5684C58.4319 59.8115 57.5099 58.8903 57.5098 57.7539C57.5098 56.6173 58.4318 55.6953 59.5684 55.6953H71.3623Z" fill="black" stroke="black" stroke-width="0.781042"/>
<path d="M98.9697 55.6953L99.1807 55.7061C100.219 55.8116 101.028 56.6885 101.028 57.7539C101.028 58.8902 100.107 59.8115 98.9697 59.8115H87.1738C86.0373 59.8115 85.1154 58.8904 85.1152 57.7539C85.1152 56.6173 86.0372 55.6953 87.1738 55.6953H98.9697Z" fill="black" stroke="black" stroke-width="0.781042"/>
<path d="M44.0117 72.2539C45.1482 72.2539 46.0693 73.176 46.0693 74.3125C46.0691 75.4489 45.1481 76.3701 44.0117 76.3701H32.2178C31.0813 76.3701 30.1594 75.4489 30.1592 74.3125C30.1592 73.1759 31.0812 72.2539 32.2178 72.2539H44.0117Z" fill="black" stroke="black" stroke-width="0.781042"/>
<path d="M71.3623 72.2539C72.4988 72.2539 73.4199 73.176 73.4199 74.3125C73.4197 75.4489 72.4987 76.3701 71.3623 76.3701H59.5684C58.4319 76.3701 57.51 75.4489 57.5098 74.3125C57.5098 73.1759 58.4318 72.2539 59.5684 72.2539H71.3623Z" fill="black" stroke="black" stroke-width="0.781042"/>
<path d="M98.9697 72.2539L99.1807 72.2646C100.219 72.3702 101.028 73.2472 101.028 74.3125C101.028 75.4488 100.107 76.3701 98.9697 76.3701H87.1738C86.0373 76.3701 85.1154 75.4489 85.1152 74.3125C85.1152 73.1759 86.0372 72.2539 87.1738 72.2539H98.9697Z" fill="black" stroke="black" stroke-width="0.781042"/>
<path d="M44.0117 88.582C45.1482 88.5821 46.0693 89.5041 46.0693 90.6406C46.0691 91.7771 45.1481 92.6982 44.0117 92.6982H32.2178C31.0813 92.6982 30.1594 91.7771 30.1592 90.6406C30.1592 89.5041 31.0812 88.582 32.2178 88.582H44.0117Z" fill="black" stroke="black" stroke-width="0.781042"/>
<path d="M71.3623 88.582C72.4988 88.5821 73.4199 89.5041 73.4199 90.6406C73.4197 91.7771 72.4987 92.6982 71.3623 92.6982H59.5684C58.4319 92.6982 57.51 91.7771 57.5098 90.6406C57.5098 89.5041 58.4318 88.582 59.5684 88.582H71.3623Z" fill="black" stroke="black" stroke-width="0.781042"/>
<path d="M98.9697 88.582L99.1807 88.5928C100.219 88.6983 101.028 89.5753 101.028 90.6406C101.028 91.777 100.107 92.6982 98.9697 92.6982H87.1738C86.0373 92.6982 85.1154 91.7771 85.1152 90.6406C85.1152 89.5041 86.0372 88.582 87.1738 88.582H98.9697Z" fill="black" stroke="black" stroke-width="0.781042"/>
<path d="M44.0117 105.145C45.1482 105.145 46.0693 106.066 46.0693 107.203C46.0692 108.339 45.1482 109.261 44.0117 109.261H32.2178C31.0812 109.261 30.1593 108.339 30.1592 107.203C30.1592 106.066 31.0813 105.145 32.2178 105.145H44.0117Z" fill="black" stroke="black" stroke-width="0.781042"/>
<path d="M71.3623 105.145C72.4987 105.145 73.4199 106.066 73.4199 107.203C73.4198 108.339 72.4988 109.261 71.3623 109.261H59.5684C58.4318 109.261 57.5099 108.339 57.5098 107.203C57.5098 106.066 58.4319 105.145 59.5684 105.145H71.3623Z" fill="black" stroke="black" stroke-width="0.781042"/>
<path d="M98.9697 105.145L99.1807 105.155C100.219 105.261 101.028 106.137 101.028 107.203C101.028 108.339 100.107 109.261 98.9697 109.261H87.1738C86.0372 109.261 85.1154 108.339 85.1152 107.203C85.1152 106.066 86.0373 105.145 87.1738 105.145H98.9697Z" fill="black" stroke="black" stroke-width="0.781042"/>
<path d="M44.0117 121.703C45.1483 121.703 46.0693 122.625 46.0693 123.762C46.0692 124.898 45.1482 125.819 44.0117 125.819H32.2178C31.0812 125.819 30.1593 124.898 30.1592 123.762C30.1592 122.625 31.0812 121.703 32.2178 121.703H44.0117Z" fill="black" stroke="black" stroke-width="0.781042"/>
<path d="M71.3623 121.703C72.4989 121.703 73.4199 122.625 73.4199 123.762C73.4198 124.898 72.4988 125.819 71.3623 125.819H59.5684C58.4318 125.819 57.5099 124.898 57.5098 123.762C57.5098 122.625 58.4317 121.703 59.5684 121.703H71.3623Z" fill="black" stroke="black" stroke-width="0.781042"/>
<path d="M98.9697 121.703L99.1807 121.714C100.219 121.819 101.028 122.697 101.028 123.762C101.028 124.898 100.107 125.819 98.9697 125.819H87.1738C86.0372 125.819 85.1154 124.898 85.1152 123.762C85.1152 122.625 86.0371 121.703 87.1738 121.703H98.9697Z" fill="black" stroke="black" stroke-width="0.781042"/>
<path d="M44.0117 138.27C45.1483 138.27 46.0693 139.192 46.0693 140.328C46.0692 141.464 45.1482 142.386 44.0117 142.386H32.2178C31.0813 142.386 30.1593 141.464 30.1592 140.328C30.1592 139.192 31.0812 138.27 32.2178 138.27H44.0117Z" fill="black" stroke="black" stroke-width="0.781042"/>
<path d="M71.3623 138.27C72.4989 138.27 73.4199 139.192 73.4199 140.328C73.4198 141.464 72.4988 142.386 71.3623 142.386H59.5684C58.4318 142.386 57.5099 141.464 57.5098 140.328C57.5098 139.192 58.4317 138.27 59.5684 138.27H71.3623Z" fill="black" stroke="black" stroke-width="0.781042"/>
<path d="M98.9697 138.27L99.1807 138.28C100.219 138.386 101.028 139.263 101.028 140.328C101.028 141.464 100.107 142.386 98.9697 142.386H87.1738C86.0372 142.386 85.1154 141.464 85.1152 140.328C85.1152 139.192 86.0371 138.27 87.1738 138.27H98.9697Z" fill="black" stroke="black" stroke-width="0.781042"/>
<path d="M44.0117 154.824C45.1483 154.824 46.0693 155.747 46.0693 156.883C46.0692 158.019 45.1482 158.94 44.0117 158.94H32.2178C31.0812 158.94 30.1593 158.019 30.1592 156.883C30.1592 155.746 31.0812 154.824 32.2178 154.824H44.0117Z" fill="black" stroke="black" stroke-width="0.781042"/>
<path d="M71.3623 154.824C72.4989 154.824 73.4199 155.747 73.4199 156.883C73.4198 158.019 72.4988 158.94 71.3623 158.94H59.5684C58.4318 158.94 57.5099 158.019 57.5098 156.883C57.5098 155.746 58.4317 154.824 59.5684 154.824H71.3623Z" fill="black" stroke="black" stroke-width="0.781042"/>
<path d="M98.9697 154.824L99.1807 154.835C100.219 154.941 101.028 155.818 101.028 156.883C101.028 158.019 100.107 158.94 98.9697 158.94H87.1738C86.0372 158.94 85.1154 158.019 85.1152 156.883C85.1152 155.746 86.0371 154.824 87.1738 154.824H98.9697Z" fill="black" stroke="black" stroke-width="0.781042"/>
<path d="M44.0117 171.152C45.148 171.152 46.0693 172.073 46.0693 173.21C46.0692 174.347 45.1481 175.268 44.0117 175.268H32.2178C31.0814 175.268 30.1593 174.347 30.1592 173.21C30.1592 172.073 31.0814 171.152 32.2178 171.152H44.0117Z" fill="black" stroke="black" stroke-width="0.781042"/>
<path d="M71.3623 171.152C72.4986 171.152 73.4199 172.073 73.4199 173.21C73.4198 174.347 72.4987 175.268 71.3623 175.268H59.5684C58.4319 175.268 57.5099 174.347 57.5098 173.21C57.5098 172.073 58.432 171.152 59.5684 171.152H71.3623Z" fill="black" stroke="black" stroke-width="0.781042"/>
<path d="M98.9697 171.152L99.1807 171.163C100.219 171.269 101.028 172.145 101.028 173.21C101.028 174.347 100.107 175.268 98.9697 175.268H87.1738C86.0373 175.268 85.1153 174.347 85.1152 173.21C85.1152 172.073 86.0374 171.152 87.1738 171.152H98.9697Z" fill="black" stroke="black" stroke-width="0.781042"/>
<path d="M51.0361 9.60938C52.1727 9.60938 53.0947 10.5314 53.0947 11.668V27.3721H104.238C106.713 27.3722 109.111 28.3026 111.048 29.9922L111.429 30.3398L111.431 30.3418L111.539 30.4541L111.871 30.8428C113.483 32.8234 114.327 35.3159 114.327 38.0723V88.1006H135.551V72.877C135.551 71.7405 136.472 70.8184 137.609 70.8184C138.746 70.8186 139.667 71.7405 139.667 72.877V88.1006H175.251C177.115 88.1007 178.951 88.6824 180.467 89.7461L180.766 89.9648L180.767 89.9658L180.939 90.1143L181.211 90.3887C182.534 91.7901 183.323 93.6461 183.322 95.4404V182.81C183.322 184.722 182.425 186.706 180.939 188.135L180.938 188.136C180.885 188.187 180.828 188.236 180.77 188.281L180.768 188.283C179.538 189.228 177.562 190.39 175.251 190.391H26.9551C24.336 190.391 21.8894 189.35 20.0117 187.456L19.6436 187.065C17.6926 184.884 16.6094 182.182 16.6094 179.451V38.0723C16.6094 35.3382 17.6917 32.6353 19.6416 30.4561V30.4551L19.7539 30.3398L19.7559 30.3379L20.1377 29.9902C22.0779 28.3016 24.4797 27.3721 26.9561 27.3721H48.9785V11.668C48.9785 10.5314 49.8996 9.60946 51.0361 9.60938ZM26.9551 31.4883C25.4146 31.4884 23.8901 32.1107 22.6562 33.2598C21.753 34.2881 20.7256 35.9294 20.7256 38.0723V179.45C20.7256 181.632 21.7929 183.295 22.708 184.317H22.709C23.8629 185.604 25.3285 186.274 26.9551 186.274H104.237C105.859 186.274 107.32 185.604 108.473 184.317H108.474L108.679 184.076C109.677 182.847 110.21 181.261 110.21 179.45V38.0723C110.21 36.1667 109.621 34.5101 108.523 33.2578C107.293 32.1098 105.774 31.4884 104.238 31.4883H26.9551ZM114.327 179.45C114.327 182.022 113.587 184.362 112.176 186.273H175.251C176.082 186.273 177.114 185.873 178.165 185.088C178.812 184.428 179.207 183.532 179.207 182.809V95.4404C179.207 94.717 178.814 93.8216 178.168 93.1621C177.33 92.5528 176.299 92.2169 175.251 92.2168H114.327V179.45Z" fill="black" stroke="black" stroke-width="0.781042"/>
<path d="M139.114 104.184L139.325 104.194C140.363 104.3 141.173 105.177 141.173 106.242C141.173 107.378 140.251 108.3 139.114 108.3H127.321C126.184 108.3 125.263 107.378 125.263 106.242C125.263 105.106 126.184 104.184 127.321 104.184H139.114Z" fill="black" stroke="black" stroke-width="0.781042"/>
<path d="M166.465 104.184C167.601 104.184 168.521 105.106 168.521 106.242C168.521 107.378 167.601 108.3 166.465 108.3H154.674C153.538 108.3 152.615 107.378 152.615 106.242C152.615 105.106 153.537 104.184 154.674 104.184H166.465Z" fill="black" stroke="black" stroke-width="0.781042"/>
<path d="M139.114 120.504L139.325 120.515C140.363 120.62 141.173 121.496 141.173 122.562C141.173 123.699 140.25 124.619 139.114 124.619H127.321C126.184 124.619 125.263 123.699 125.263 122.562C125.263 121.425 126.184 120.504 127.321 120.504H139.114Z" fill="black" stroke="black" stroke-width="0.781042"/>
<path d="M166.465 120.504C167.601 120.504 168.521 121.425 168.521 122.562C168.521 123.698 167.601 124.619 166.465 124.619H154.674C153.538 124.619 152.615 123.699 152.615 122.562C152.615 121.425 153.538 120.504 154.674 120.504H166.465Z" fill="black" stroke="black" stroke-width="0.781042"/>
<path d="M139.114 137.062L139.325 137.073C140.363 137.179 141.173 138.056 141.173 139.121C141.173 140.257 140.251 141.179 139.114 141.179H127.321C126.184 141.179 125.263 140.257 125.263 139.121C125.263 137.985 126.184 137.062 127.321 137.062H139.114Z" fill="black" stroke="black" stroke-width="0.781042"/>
<path d="M166.465 137.062C167.601 137.063 168.521 137.985 168.521 139.121C168.521 140.257 167.601 141.179 166.465 141.179H154.674C153.538 141.179 152.615 140.257 152.615 139.121C152.615 137.985 153.537 137.062 154.674 137.062H166.465Z" fill="black" stroke="black" stroke-width="0.781042"/>
<path d="M139.114 153.625L139.325 153.636C140.363 153.741 141.173 154.618 141.173 155.684C141.173 156.82 140.251 157.741 139.114 157.741H127.321C126.184 157.741 125.263 156.82 125.263 155.684C125.263 154.547 126.184 153.625 127.321 153.625H139.114Z" fill="black" stroke="black" stroke-width="0.781042"/>
<path d="M166.465 153.625C167.601 153.625 168.521 154.548 168.521 155.684C168.521 156.819 167.601 157.741 166.465 157.741H154.674C153.538 157.741 152.615 156.82 152.615 155.684C152.615 154.547 153.537 153.625 154.674 153.625H166.465Z" fill="black" stroke="black" stroke-width="0.781042"/>
<path d="M139.114 170.191L139.325 170.202C140.363 170.308 141.173 171.185 141.173 172.25C141.173 173.386 140.251 174.308 139.114 174.308H127.321C126.184 174.308 125.263 173.386 125.263 172.25C125.263 171.114 126.184 170.191 127.321 170.191H139.114Z" fill="black" stroke="black" stroke-width="0.781042"/>
<path d="M166.465 170.191C167.601 170.192 168.521 171.114 168.521 172.25C168.521 173.386 167.601 174.307 166.465 174.308H154.674C153.538 174.308 152.615 173.386 152.615 172.25C152.615 171.114 153.537 170.191 154.674 170.191H166.465Z" fill="black" stroke="black" stroke-width="0.781042"/>
</svg>
