<svg width="200" height="200" viewBox="0 0 200 200" fill="none" xmlns="http://www.w3.org/2000/svg">
<g clip-path="url(#clip0_471_311)">
<mask id="mask0_471_311" style="mask-type:luminance" maskUnits="userSpaceOnUse" x="0" y="0" width="200" height="200">
<path d="M200 0H0V200H200V0Z" fill="white"/>
</mask>
<g mask="url(#mask0_471_311)">
<path d="M84.2326 32.7712C82.6397 32.7712 81.3472 31.4788 81.3472 29.8858C81.3472 28.2928 82.6397 27.0004 84.2326 27.0004H161.168C164.918 27.0004 168.389 28.3079 171.086 30.5472C173.784 32.7712 175.723 35.9347 176.421 39.6165L178.638 51.1579C178.676 51.2932 178.698 51.4435 178.721 51.5938L183.485 76.435C183.522 76.5627 183.545 76.6979 183.559 76.8256L188.331 101.705L188.346 101.773L188.384 101.983L188.399 102.051L189.706 108.881C190.15 111.21 190.09 113.48 189.534 115.659C189 117.815 187.956 119.852 186.43 121.692L186.355 121.782C185.701 122.564 185.01 123.263 184.296 123.849L184.229 123.902C183.492 124.502 182.695 125.036 181.854 125.502C180.464 126.261 178.713 125.742 177.954 124.352C177.195 122.962 177.714 121.212 179.104 120.452C179.592 120.189 180.088 119.852 180.554 119.469L180.622 119.408C181.11 119.002 181.553 118.567 181.952 118.093L181.99 118.048C182.951 116.884 183.612 115.599 183.958 114.246C184.311 112.916 184.341 111.473 184.056 109.963L183.162 105.312H149.791L151.49 121.572H170.086C171.679 121.572 172.972 122.864 172.972 124.457C172.972 126.05 171.679 127.343 170.086 127.343H115.918V150.426H117.444C120.54 150.426 123.365 151.696 125.416 153.74L125.431 153.755C127.482 155.806 128.752 158.631 128.752 161.727V170.646C128.752 172.239 127.46 173.532 125.867 173.532H95.8034C94.2105 173.532 92.9181 172.239 92.9181 170.646C92.9181 169.053 94.2105 167.761 95.8034 167.761H122.981V161.727C122.981 160.202 122.358 158.819 121.366 157.819C120.36 156.813 118.969 156.189 117.452 156.189H82.5787C81.0458 156.189 79.6708 156.813 78.6715 157.805C77.6646 158.811 77.041 160.202 77.041 161.72V167.754H85.1787C86.7716 167.754 88.0641 169.046 88.0641 170.639C88.0641 172.232 86.7716 173.524 85.1787 173.524H74.1556C72.5626 173.524 71.2702 172.232 71.2702 170.639V161.72C71.2702 158.624 72.5401 155.799 74.584 153.747L74.599 153.732C76.6503 151.681 79.4757 150.411 82.5713 150.411H84.0966V127.328H25.5543C23.1873 127.328 20.9632 126.84 18.927 125.877C16.8982 124.923 15.0873 123.519 13.5771 121.685L13.4418 121.504C12.0067 119.716 11.0074 117.74 10.4663 115.644C9.91023 113.465 9.85011 111.188 10.2934 108.866L11.6234 101.968L11.6384 101.893L11.6685 101.758L16.455 76.7955C16.47 76.6753 16.4925 76.5626 16.5226 76.4423L21.294 51.5782C21.309 51.4353 21.3316 51.2926 21.3767 51.1573L23.5932 39.6009C24.2995 35.9114 26.2307 32.7631 28.9281 30.5315L29.116 30.3962C31.7909 28.2472 35.1872 27 38.8541 27H73.6287C75.2217 27 76.5141 28.2924 76.5141 29.8854C76.5141 31.4784 75.2217 32.7708 73.6287 32.7708H63.605L61.9069 49.0385H97.1392V32.7708L84.2326 32.7712ZM110.149 127.335H89.8764V150.418H110.156V127.335H110.149ZM102.898 49.039H138.13L136.433 32.7712H102.897L102.898 49.039ZM102.898 54.8097V74.286H123.757C125.35 74.286 126.643 75.5784 126.643 77.1713C126.643 78.7643 125.35 80.0567 123.757 80.0567H102.898V99.5331H143.407L141.37 80.0567H134.367C132.774 80.0567 131.482 78.7643 131.482 77.1713C131.482 75.5784 132.774 74.286 134.367 74.286H140.77L138.733 54.8097H102.898ZM102.898 105.303V121.564H145.705L144.007 105.303H102.898ZM97.1273 121.564V105.303H56.0185L54.3203 121.564H97.1273ZM97.1273 99.5332V80.0569H58.6557L56.6194 99.5332H97.1273ZM97.1273 74.2862V54.8099H61.2929L59.2567 74.2862H97.1273ZM50.2323 105.304H16.8543L15.9602 109.956C15.6746 111.458 15.7047 112.9 16.0503 114.239C16.3809 115.516 17.0046 116.755 17.9213 117.897L18.034 118.025C19.0033 119.198 20.138 120.091 21.3928 120.677C22.6251 121.264 24.0377 121.565 25.5706 121.565H48.5401L50.2383 105.304H50.2323ZM57.8064 32.7714H38.8411C36.5193 32.7714 34.3928 33.5529 32.7246 34.8677L32.5969 34.9805C30.9063 36.3781 29.689 38.3692 29.2457 40.6911L27.6376 49.0392H56.1009L57.799 32.7714H57.8064ZM143.91 49.0392H172.365L170.758 40.6912C170.314 38.3619 169.097 36.3782 167.406 34.9805C165.723 33.5903 163.536 32.7714 161.162 32.7714H142.204L143.903 49.0392H143.91ZM144.511 54.8099L146.547 74.2862H177.205L173.463 54.8099H144.496H144.511ZM147.148 80.0569L149.185 99.5332H182.059L178.317 80.0569H147.148ZM50.8269 99.5332L52.8633 80.0569H21.6877L17.9457 99.5332H50.8269ZM53.4644 74.2862L55.5006 54.8099H26.5334L22.7914 74.2862H53.4644Z" fill="black"/>
</g>
</g>
<defs>
<clipPath id="clip0_471_311">
<rect width="200" height="200" fill="white"/>
</clipPath>
</defs>
</svg>
