<svg width="200" height="200" viewBox="0 0 200 200" fill="none" xmlns="http://www.w3.org/2000/svg">
<mask id="mask0_471_302" style="mask-type:luminance" maskUnits="userSpaceOnUse" x="10" y="10" width="180" height="180">
<path d="M190 10H10V190H190V10Z" fill="white"/>
</mask>
<g mask="url(#mask0_471_302)">
<path d="M183.444 75.2225C187.682 70.3191 190.009 64.053 190 57.5731C190.006 56.4389 189.664 55.3301 189.021 54.3963C188.376 53.4625 187.462 52.7486 186.4 52.3508C185.359 51.9519 184.22 51.8817 183.138 52.1499C182.057 52.4181 181.083 53.0117 180.348 53.8507C176.775 57.7914 172.166 60.6487 167.046 62.0964C159.421 35.1965 130.54 15.9993 96.9998 15.9993C88.735 15.9775 80.5118 17.1721 72.5949 19.5448C71.7994 18.3269 70.8794 17.195 69.8499 16.1673C67.9099 14.2027 65.597 12.6452 63.0471 11.5862C60.497 10.5271 57.7611 9.98795 54.9999 10.0002C53.4086 10.0002 51.8825 10.6323 50.7573 11.7573C49.632 12.8823 49 14.4082 49 15.9993V31.2971C40.7128 37.3003 34.0874 45.3109 29.746 54.5765L17.236 57.0872C15.1991 57.5023 13.3675 58.6065 12.0495 60.2138C10.7316 61.8211 10.0078 63.8334 10 65.9119V86.0689C10.0093 88.1467 10.7341 90.1579 12.0526 91.7641C13.371 93.3702 15.2026 94.4733 17.239 94.8876L29.746 97.3982C34.208 106.924 41.0783 115.12 49.6779 121.179L51.4179 136.962C51.6597 139.167 52.7072 141.205 54.3593 142.684C56.0114 144.164 58.1519 144.981 60.3699 144.98H73.6299C75.8472 144.986 77.9883 144.171 79.641 142.693C81.2937 141.215 82.3412 139.178 82.5818 136.975L82.8219 134.812C86.6634 135.428 90.5423 135.784 94.4319 135.877C93.3029 144.611 94.6004 153.487 98.1823 161.533C101.764 169.579 107.492 176.485 114.738 181.491C121.984 186.499 130.469 189.415 139.262 189.921C148.056 190.427 156.82 188.502 164.592 184.359C172.365 180.215 178.847 174.012 183.327 166.43C187.808 158.847 190.115 150.179 189.995 141.372C189.876 132.566 187.333 123.962 182.648 116.505C177.962 109.048 171.314 103.023 163.432 99.0929C165.857 94.3345 167.531 89.2285 168.391 83.9571C174.255 82.8393 179.564 79.7588 183.444 75.2225ZM184 141.981C184 150.286 181.536 158.405 176.921 165.311C172.306 172.217 165.747 177.599 158.072 180.778C150.398 183.957 141.953 184.788 133.806 183.167C125.659 181.547 118.175 177.548 112.301 171.674C106.428 165.802 102.427 158.319 100.807 150.173C99.1863 142.027 100.018 133.583 103.197 125.91C106.376 118.237 111.759 111.678 118.666 107.064C125.573 102.45 133.693 99.9868 141.999 99.9868C153.135 99.9987 163.811 104.427 171.685 112.299C179.559 120.173 183.988 130.847 184 141.981ZM165.1 78.39C164.479 78.5174 163.913 78.8382 163.486 79.3065C163.058 79.7748 162.791 80.3665 162.721 80.9966C162.077 86.4952 160.434 91.83 157.873 96.7383C151.614 94.5159 144.96 93.6229 138.336 94.1159C131.713 94.609 125.266 96.4775 119.405 99.602C113.544 102.727 108.399 107.039 104.298 112.262C100.198 117.487 97.2321 123.509 95.5899 129.943C90.6206 129.865 85.6694 129.326 80.7998 128.333C80.3904 128.246 79.9674 128.246 79.5582 128.334C79.1489 128.42 78.7623 128.592 78.4232 128.837C78.0842 129.083 77.8002 129.396 77.5896 129.758C77.3789 130.118 77.2461 130.521 77.1998 130.937L76.5999 136.314C76.5176 137.051 76.1656 137.731 75.6116 138.223C75.0578 138.715 74.3411 138.985 73.5999 138.981H60.3699C59.6282 138.985 58.9112 138.715 58.3573 138.222C57.8032 137.729 57.4515 137.048 57.3699 136.311L55.48 119.183C55.4325 118.758 55.2942 118.346 55.0742 117.977C54.8543 117.609 54.5578 117.293 54.2049 117.048C45.5761 111.263 38.7828 103.13 34.627 93.6097C34.4377 93.1568 34.1402 92.7572 33.7604 92.4459C33.3806 92.1348 32.9304 91.9216 32.449 91.825L18.427 89.0084C17.7462 88.8719 17.1332 88.5051 16.6912 87.9698C16.2491 87.4344 16.0051 86.7631 16 86.0689V65.9119C16.0049 65.2181 16.2486 64.5471 16.69 64.0118C17.1314 63.4765 17.7437 63.1094 18.424 62.9723L32.4609 60.1557C32.9439 60.0576 33.3953 59.8422 33.7751 59.5283C34.155 59.2144 34.4516 58.8118 34.6389 58.356C38.7164 49.0219 45.3323 41.0196 53.734 35.2594C54.1231 34.9838 54.4411 34.6193 54.6612 34.1962C54.8814 33.7731 54.9975 33.3037 54.9999 32.8268V15.9993C56.9699 15.99 58.922 16.3743 60.7415 17.1294C62.5611 17.8845 64.2115 18.9953 65.5959 20.3966C66.7806 21.5838 67.7618 22.958 68.4999 24.4641C68.8209 25.1159 69.3678 25.629 70.0387 25.9082C70.7097 26.1874 71.4591 26.2135 72.1479 25.9818C80.1608 23.3142 88.5545 21.9687 96.9998 21.9984C128.985 21.9984 156.295 40.6736 161.932 66.3918C162.103 67.1679 162.574 67.8445 163.244 68.273C163.913 68.7016 164.725 68.847 165.502 68.6775C172.511 67.2952 178.944 63.8393 183.966 58.7579C183.711 63.3853 181.93 67.7976 178.899 71.305C175.658 75.1005 171.13 77.5675 166.182 78.234C165.84 78.273 165.469 78.315 165.1 78.39Z" fill="black"/>
<path d="M56.5 45.9961C54.4233 45.9961 52.3932 46.6119 50.6665 47.7654C48.9398 48.919 47.594 50.5586 46.7993 52.477C46.0046 54.3953 45.7966 56.5062 46.2018 58.5427C46.6069 60.5792 47.6069 62.4499 49.0754 63.9181C50.5438 65.3863 52.4147 66.3862 54.4515 66.7913C56.4883 67.1964 58.5995 66.9884 60.5182 66.1939C62.4368 65.3993 64.0767 64.0536 65.2304 62.3272C66.3842 60.6008 67 58.571 67 56.4946C67 53.7102 65.8937 51.0399 63.9246 49.071C61.9555 47.1022 59.2847 45.9961 56.5 45.9961ZM56.5 60.9939C55.61 60.9939 54.74 60.73 53.9999 60.2356C53.2599 59.7413 52.6831 59.0385 52.3426 58.2164C52.0019 57.3942 51.9128 56.4896 52.0864 55.6168C52.2601 54.744 52.6887 53.9423 53.318 53.3131C53.9473 52.6838 54.7492 52.2553 55.6221 52.0817C56.495 51.9081 57.3998 51.9972 58.2221 52.3378C59.0443 52.6782 59.7471 53.255 60.2416 53.9948C60.7361 54.7348 60.9999 55.6047 60.9999 56.4946C60.9999 57.6879 60.5259 58.8323 59.682 59.6761C58.838 60.5198 57.6934 60.9939 56.5 60.9939Z" fill="black"/>
<path d="M123.737 113.769C123.401 113.063 122.802 112.516 122.068 112.245C121.335 111.974 120.525 111.999 119.81 112.317C119.096 112.635 118.533 113.219 118.242 113.945C117.953 114.671 117.957 115.482 118.256 116.204C124.919 132.773 128.823 150.32 129.812 168.15C127.229 167.817 124.694 167.182 122.258 166.257C121.541 165.945 120.73 165.925 119.998 166.203C119.267 166.48 118.672 167.031 118.341 167.741C118.011 168.449 117.971 169.259 118.228 169.998C118.486 170.736 119.023 171.344 119.723 171.693C120.008 171.828 126.887 174.978 141.26 174.978C160.592 174.978 170.477 167.139 170.888 166.804C171.476 166.295 171.845 165.577 171.914 164.802C171.984 164.027 171.749 163.255 171.26 162.649C170.771 162.045 170.065 161.652 169.293 161.558C168.521 161.462 167.741 161.671 167.12 162.14C166.303 162.737 165.443 163.27 164.546 163.738C161.432 155.897 159.254 147.716 158.057 139.364C159.626 138.686 160.457 138.224 160.565 138.164C161.255 137.768 161.76 137.115 161.968 136.347C162.176 135.579 162.071 134.76 161.675 134.07C161.279 133.38 160.625 132.875 159.857 132.667C159.09 132.459 158.27 132.564 157.58 132.96C157.499 133.005 149.663 137.327 131.912 139.733C129.971 130.851 127.235 122.161 123.737 113.769ZM141.26 168.978C139.277 168.978 137.513 168.901 135.86 168.793C135.713 165.43 135.473 162.145 135.131 158.969L155.876 157.097C156.782 160.163 157.844 163.18 159.056 166.138C153.327 168.084 147.31 169.045 141.26 168.978ZM152.303 141.476C152.825 144.754 153.488 148.026 154.268 151.218L134.366 153.018C133.996 150.468 133.583 148.005 133.127 145.63C139.625 144.79 146.04 143.4 152.303 141.476Z" fill="black"/>
<path d="M112.624 29.6342C102.316 27.4525 91.6638 27.4606 81.3586 29.6582C80.6387 29.8187 80.0032 30.2389 79.5735 30.8382C79.1438 31.4375 78.95 32.1741 79.029 32.9073C79.108 33.6405 79.4544 34.3188 80.002 34.8128C80.5496 35.3068 81.26 35.5819 81.9976 35.5853C82.2135 35.5859 82.4287 35.5628 82.6395 35.5164C92.1101 33.5046 101.897 33.4975 111.371 35.4953C111.76 35.5903 112.165 35.6063 112.561 35.5421C112.957 35.4779 113.336 35.335 113.676 35.1217C114.016 34.9085 114.309 34.6293 114.539 34.3006C114.769 33.972 114.931 33.6005 115.015 33.2083C115.098 32.8161 115.103 32.411 115.027 32.0171C114.953 31.6231 114.799 31.2483 114.575 30.9148C114.352 30.5813 114.065 30.2958 113.73 30.0753C113.395 29.8549 113.019 29.7069 112.624 29.6342Z" fill="black"/>
</g>
</svg>
