<svg width="150" height="150" viewBox="0 0 150 150" fill="none" xmlns="http://www.w3.org/2000/svg">
<path d="M29.3384 105.781H13.3984V110.244C13.3984 112.645 15.3449 114.592 17.7463 114.592V118.207H24.9906V114.592C27.3917 114.592 29.3384 112.645 29.3384 110.244V105.781Z" stroke="#663366" stroke-width="4.22535" stroke-miterlimit="10" stroke-linecap="round" stroke-linejoin="round"/>
<path d="M37.7383 132.089H5V125.045C5 121.266 8.0631 118.203 11.8414 118.203H30.8972C34.6755 118.203 37.7386 121.266 37.7386 125.045L37.7383 132.089Z" stroke="#663366" stroke-width="4.22535" stroke-miterlimit="10" stroke-linecap="round" stroke-linejoin="round"/>
<path d="M24.7903 97.5938H17.9466C15.4348 97.5938 13.3984 99.6301 13.3984 102.142V105.777H29.3382V102.142C29.3384 99.6301 27.3021 97.5938 24.7903 97.5938Z" stroke="#663366" stroke-width="4.22535" stroke-miterlimit="10" stroke-linecap="round" stroke-linejoin="round"/>
<path d="M62.0764 91.4141H46.1367V98.9769C46.1367 101.378 48.0832 103.325 50.4846 103.325V108.913H57.7288V103.325C60.13 103.325 62.0767 101.378 62.0767 98.9769V91.4141H62.0764Z" stroke="#663366" stroke-width="4.22535" stroke-miterlimit="10" stroke-linecap="round" stroke-linejoin="round"/>
<path d="M57.5283 83.2266H50.6849C48.1731 83.2266 46.1367 85.2629 46.1367 87.7747V91.4102H62.0764V87.7747C62.0764 85.2629 60.0401 83.2266 57.5283 83.2266Z" stroke="#663366" stroke-width="4.22535" stroke-miterlimit="10" stroke-linecap="round" stroke-linejoin="round"/>
<path d="M94.8147 77.4766H78.875V85.0394C78.875 87.4405 80.8215 89.3873 83.2229 89.3873V94.9752H90.4671V89.3873C92.8682 89.3873 94.815 87.4408 94.815 85.0394L94.8147 77.4766Z" stroke="#663366" stroke-width="4.22535" stroke-miterlimit="10" stroke-linecap="round" stroke-linejoin="round"/>
<path d="M91.3942 67.6016H82.2962C79.7844 67.6016 77.748 69.6379 77.748 72.1497L78.8754 77.4793H94.8151L95.9424 72.1497C95.9424 69.6379 93.9061 67.6016 91.3942 67.6016Z" stroke="#663366" stroke-width="4.22535" stroke-miterlimit="10" stroke-linecap="round" stroke-linejoin="round"/>
<path d="M65.1146 51.7496H53.9951C51.8577 51.7496 50.125 50.0169 50.125 47.8794V20.8701C50.125 18.7327 51.8577 17 53.9951 17H63.6737C69.9473 17 75.0332 22.0856 75.0332 28.3594V51.7496" stroke="#663366" stroke-width="4.22535" stroke-miterlimit="10" stroke-linecap="round" stroke-linejoin="round"/>
<path d="M67.4242 38.7188H57.7344" stroke="#663366" stroke-width="4.22535" stroke-miterlimit="10" stroke-linecap="round" stroke-linejoin="round"/>
<path d="M62.0783 31.5234H57.7344" stroke="#663366" stroke-width="4.22535" stroke-miterlimit="10" stroke-linecap="round" stroke-linejoin="round"/>
<path d="M92.3305 38.7188H82.6406" stroke="#663366" stroke-width="4.22535" stroke-miterlimit="10" stroke-linecap="round" stroke-linejoin="round"/>
<path d="M92.3305 31.5234H82.6406" stroke="#663366" stroke-width="4.22535" stroke-miterlimit="10" stroke-linecap="round" stroke-linejoin="round"/>
<path d="M75.0335 51.7496H96.0712C98.2087 51.7496 99.9414 50.0169 99.9414 47.8794V20.8701C99.9414 18.7327 98.2087 17 96.0712 17H86.3926C80.1191 17 75.0332 22.0856 75.0332 28.3594V51.7496H75.0335Z" stroke="#663366" stroke-width="4.22535" stroke-miterlimit="10" stroke-linecap="round" stroke-linejoin="round"/>
<path d="M127.553 88.8125V93.9246C127.553 96.3257 125.608 98.2731 123.207 98.2731H115.962C113.561 98.2731 111.613 96.3257 111.613 93.9246V88.8125" stroke="#663366" stroke-width="4.22535" stroke-miterlimit="10" stroke-linecap="round" stroke-linejoin="round"/>
<path d="M70.4766 132.089H37.7383V115.748C37.7383 111.969 40.8011 108.906 44.5797 108.906H63.6355C67.4138 108.906 70.4769 111.969 70.4769 115.748L70.4766 132.089Z" stroke="#663366" stroke-width="4.22535" stroke-miterlimit="10" stroke-linecap="round" stroke-linejoin="round"/>
<path d="M103.215 132.095H70.4766V101.818C70.4766 98.0397 73.5397 94.9766 77.318 94.9766H96.3738C100.152 94.9766 103.215 98.0397 103.215 101.818V132.095H103.215Z" stroke="#663366" stroke-width="4.22535" stroke-miterlimit="10" stroke-linecap="round" stroke-linejoin="round"/>
<path d="M103.215 132.091V105.115C103.215 101.337 106.278 98.2734 110.056 98.2734H129.112C132.89 98.2734 135.953 101.337 135.953 105.115V132.091H113.149" stroke="#663366" stroke-width="4.22535" stroke-miterlimit="10" stroke-linecap="round" stroke-linejoin="round"/>
<path d="M135.953 132.094H145" stroke="#663366" stroke-width="4.22535" stroke-miterlimit="10" stroke-linecap="round" stroke-linejoin="round"/>
<path d="M116.163 85.5017C116.163 87.0784 114.428 88.8136 112.288 88.8136H111.615L110.201 81.5925C109.909 80.2739 110.913 79.0234 112.263 79.0234H126.959C128.31 79.0234 129.314 80.2739 129.021 81.5925L127.608 88.8136H126.935C124.795 88.8136 123.06 87.0784 123.06 85.5017H116.163Z" stroke="#663366" stroke-width="4.22535" stroke-miterlimit="10" stroke-linecap="round" stroke-linejoin="round"/>
<path d="M21.3691 118.203V123.611" stroke="#663366" stroke-width="4.22535" stroke-miterlimit="10" stroke-linecap="round" stroke-linejoin="round"/>
<path d="M54.1074 108.914V114.321" stroke="#663366" stroke-width="4.22535" stroke-miterlimit="10" stroke-linecap="round" stroke-linejoin="round"/>
<path d="M86.8457 94.9766V100.384" stroke="#663366" stroke-width="4.22535" stroke-miterlimit="10" stroke-linecap="round" stroke-linejoin="round"/>
<path d="M119.584 98.5859V103.994" stroke="#663366" stroke-width="4.22535" stroke-miterlimit="10" stroke-linecap="round" stroke-linejoin="round"/>
</svg>
