<svg width="150" height="150" viewBox="0 0 150 150" fill="none" xmlns="http://www.w3.org/2000/svg">
<path d="M19.3334 72.1549C19.3334 71.1699 20.133 70.3704 21.118 70.3704H77.7959C78.7809 70.3704 79.5804 71.1699 79.5804 72.1549C79.5804 73.1399 78.7809 73.9394 77.7959 73.9394H21.118C20.133 73.9394 19.3334 73.1399 19.3334 72.1549ZM21.118 88.0385H65.616C66.601 88.0385 67.4005 87.2389 67.4005 86.2539C67.4005 85.2689 66.601 84.4694 65.616 84.4694H21.118C20.133 84.4694 19.3334 85.2689 19.3334 86.2539C19.3334 87.2389 20.133 88.0385 21.118 88.0385ZM47.3145 98.5712H21.118C20.133 98.5712 19.3334 99.3707 19.3334 100.356C19.3334 101.341 20.133 102.14 21.118 102.14H47.3145C48.2995 102.14 49.099 101.341 49.099 100.356C49.099 99.3707 48.2995 98.5712 47.3145 98.5712ZM38.7902 36.588C38.6061 36.2171 38.5553 35.7926 38.6487 35.3887L41.2465 24.1842C41.4334 23.3764 42.1546 22.8035 42.9844 22.8035H77.8645C78.6916 22.8035 79.41 23.3723 79.601 24.1773L82.1988 35.1606C82.295 35.5659 82.2455 35.9931 82.0587 36.3668C81.4515 37.584 80.5049 38.6321 79.3812 39.455L79.3276 60.6935C79.3249 61.6772 78.5267 62.4726 77.5431 62.4726H43.2426C42.2576 62.4726 41.4581 61.673 41.4581 60.688V39.6707C40.3371 38.8492 39.3947 37.8024 38.7902 36.588ZM63.2352 51.7736C63.2352 50.9769 62.9673 50.3504 62.4398 49.9108C61.9329 49.4891 61.1979 49.2473 60.4217 49.2473C60.1346 49.2473 57.6082 49.3187 57.6082 51.775V58.9049H63.2352V51.7736ZM68.8883 35.3612C69.8087 36.9053 72.1208 37.7103 74.0454 37.7103C75.7888 37.7103 77.5953 36.7199 78.5638 35.2911L76.4537 26.3712H68.8883V35.3612ZM55.5297 35.5837C56.4487 37.1279 58.7608 37.9315 60.6869 37.9315C62.5016 37.9315 64.3864 36.8586 65.3192 35.3351V26.3726H55.5297V35.5837ZM53.7452 38.9838C51.8782 40.7079 49.154 41.502 46.8035 41.502C46.2072 41.502 45.6138 41.414 45.0272 41.2876V58.9063H54.0391V51.7764C54.0391 49.9245 54.7782 48.2898 56.1177 47.1715C57.2716 46.2099 58.8007 45.6796 60.4217 45.6796C63.5938 45.6796 66.8043 47.7732 66.8043 51.7764V58.9063H75.7654L75.8094 41.0692C75.2269 41.1942 74.6376 41.2808 74.0454 41.2808C71.699 41.2808 68.9803 40.4895 67.1147 38.7709C65.4346 40.4469 63.0566 41.502 60.6882 41.502C58.3363 41.502 55.6107 40.7079 53.7452 38.9838ZM42.2837 35.5109C43.2509 36.9424 45.0601 37.9329 46.8048 37.9329C48.7309 37.9329 51.0416 37.1279 51.962 35.5851V26.374H44.4035L42.2837 35.5109ZM139.937 87.0521L131.997 116.724C131.875 117.182 131.575 117.572 131.166 117.808C130.892 117.966 130.585 118.047 130.274 118.047C130.119 118.047 129.964 118.027 129.813 117.987L118.35 114.911C117.398 114.655 116.833 113.679 117.089 112.727L117.48 111.263L115.402 110.706C113.713 111.148 112.213 111.49 110.852 111.743V138.215C110.852 139.2 110.052 140 109.067 140H11.7845C10.7995 140 10 139.2 10 138.215V28.4662C10 28.3316 10.0179 28.1997 10.0467 28.0706C10.0522 28.0486 10.0618 28.0294 10.0673 28.0074C10.103 27.8741 10.1539 27.7478 10.2198 27.6269C10.239 27.5898 10.2596 27.5554 10.2816 27.5197C10.3668 27.3837 10.4643 27.2559 10.5852 27.146L28.9471 10.463C29.0982 10.3256 29.2727 10.2267 29.4554 10.1497C29.5104 10.1264 29.5653 10.1154 29.623 10.0975C29.7618 10.055 29.9005 10.0275 30.0448 10.0192C30.0805 10.0165 30.1135 10 30.1492 10H109.067C110.052 10 110.852 10.7995 110.852 11.7845V76.2048C111.08 76.3751 111.301 76.5386 111.534 76.7117C114.466 78.8974 117.781 81.3688 121.961 84.0216L124.584 84.7249L125.03 83.0558C125.153 82.5983 125.452 82.2082 125.862 81.9719C126.272 81.7356 126.759 81.671 127.216 81.7947L138.678 84.8678C139.628 85.1233 140.194 86.1001 139.939 87.0521H139.937ZM16.4018 26.6817H28.3633V15.8152L16.4018 26.6817ZM107.28 112.204C106.919 112.225 106.568 112.239 106.233 112.239C103.332 112.239 101.364 111.443 99.6966 109.822C98.5619 108.719 97.6456 107.301 96.585 105.66C95.2744 103.631 93.6273 101.11 90.9498 98.2332L88.83 101.905C88.5937 102.315 88.2036 102.614 87.7461 102.736C87.5936 102.778 87.4384 102.797 87.2845 102.797C86.9741 102.797 86.6663 102.716 86.393 102.558L84.5397 101.488L80.8992 107.795L88.4358 112.145C91.8139 114.098 92.9761 118.435 91.0267 121.814L88.3808 126.397C88.0497 126.97 87.4508 127.288 86.8339 127.288C86.5303 127.288 86.224 127.212 85.9437 127.049L84.4216 126.17L81.7757 130.75C81.446 131.323 80.8456 131.642 80.2302 131.642C79.9266 131.642 79.6202 131.565 79.34 131.403L49.9535 114.438C49.5441 114.202 49.2447 113.812 49.1224 113.354C49.0001 112.897 49.0647 112.411 49.2996 112.001L51.9455 107.42L50.4247 106.542C50.0154 106.306 49.7159 105.915 49.5936 105.458C49.4713 105 49.5359 104.513 49.7722 104.103L52.4195 99.5204C53.3605 97.8898 54.8854 96.7207 56.7153 96.2303C58.5438 95.7398 60.4519 95.9898 62.0826 96.9309L69.6205 101.283L73.261 94.976L71.4092 93.9072C70.5561 93.414 70.2634 92.3233 70.7553 91.4701L71.9793 89.349C69.1946 87.5439 68.3731 84.1864 69.1589 81.2548C70.1165 77.683 73.463 74.7033 77.9868 75.919L79.498 76.3243L82.4475 71.2153C85.3242 66.234 91.7205 64.5195 96.7004 67.3962C97.5453 67.8839 98.2885 68.4801 98.9383 69.1464C101.869 70.1176 104.49 71.6631 107.277 73.6111V13.5677H31.931V28.4662C31.931 29.4512 31.1314 30.2508 30.1464 30.2508H13.5691V136.43H107.281L107.28 112.204ZM94.92 70.4885C91.638 68.5982 87.4329 69.722 85.5412 73.0025L83.0698 77.2846L96.7993 80.9663L97.4326 79.8686C99.3257 76.5908 98.1978 72.383 94.92 70.4885ZM53.2822 112.243L79.5777 127.424L81.3306 124.388L79.5474 123.36L55.0351 109.207L53.2822 112.243ZM86.1828 123.068L87.9357 120.031C88.9028 118.356 88.3259 116.205 86.6498 115.236L77.5747 109.997C77.5747 109.997 77.5706 109.997 77.5692 109.994L69.3829 105.267L60.2994 100.023C59.493 99.5575 58.5493 99.4353 57.6398 99.6798C56.7304 99.923 55.9748 100.501 55.5091 101.308L53.7534 104.347L55.2742 105.224L63.9015 110.206L86.1828 123.068ZM77.8082 106.012L81.4487 99.7045L76.352 96.7619L72.7115 103.069L77.8082 106.012ZM86.632 98.5767L88.33 95.6368C87.5607 94.9307 86.7474 94.2136 85.8366 93.4745L75.3464 90.661L74.7392 91.7119L76.5911 92.7807L86.6306 98.578L86.632 98.5767ZM118.399 107.815L123.658 88.1717L120.772 87.3969C120.599 87.3502 120.432 87.2788 120.281 87.1826C115.877 84.4021 112.436 81.8359 109.4 79.5719C106.472 77.389 104.057 75.5921 101.673 74.254C102.197 76.6939 101.867 79.326 100.524 81.6518L100.367 81.9224L100.928 82.0722C101.88 82.3277 102.444 83.3058 102.189 84.2578C101.934 85.2099 100.958 85.7772 100.003 85.519L97.2197 84.773C97.2087 84.7703 97.1991 84.7675 97.1881 84.7648L77.0636 79.3672C74.5153 78.6831 73.0687 80.4552 72.6057 82.1807C72.2293 83.5833 72.3214 86.1523 75.0524 86.8859L87.1224 90.1238C87.3601 90.187 87.5826 90.2997 87.7763 90.4549C94.468 95.8126 97.423 100.386 99.5812 103.724C100.563 105.244 101.338 106.443 102.185 107.264C103.9 108.935 106.443 109.406 114.94 107.134C115.242 107.053 115.562 107.053 115.863 107.134L118.399 107.815ZM136.028 87.853L128.013 85.7044L120.994 111.927L129.01 114.078L136.028 87.8544V87.853Z" fill="#663366"/>
</svg>
