<svg width="150" height="150" viewBox="0 0 150 150" fill="none" xmlns="http://www.w3.org/2000/svg">
<mask id="mask0_1050_270" style="mask-type:luminance" maskUnits="userSpaceOnUse" x="5" y="5" width="140" height="140">
<path d="M5 5H145V145H5V5Z" fill="white"/>
</mask>
<g mask="url(#mask0_1050_270)">
<path d="M32.4262 110.843L32.1249 108.58C31.3196 102.432 28.2807 96.7944 23.5871 92.7418L12.1973 89.5932C8.82366 91.289 7.81467 96.066 7.81467 97.9377L7.05151 137.879C7.00967 140.068 8.77417 141.863 10.963 141.859L26.4339 141.824" stroke="#663366" stroke-width="4.10156" stroke-miterlimit="10" stroke-linecap="round" stroke-linejoin="round"/>
<path d="M142.429 120.508L141.754 97.9386C141.754 96.0671 140.749 91.3301 137.376 89.634L125.982 92.7427C121.288 96.7953 118.249 102.433 117.444 108.581L117.141 110.844" stroke="#663366" stroke-width="4.10156" stroke-miterlimit="10" stroke-linecap="round" stroke-linejoin="round"/>
<path d="M123.609 141.828L139.037 141.867C141.242 141.871 143.013 140.049 142.947 137.845L142.716 130.133" stroke="#663366" stroke-width="4.10156" stroke-miterlimit="10" stroke-linecap="round" stroke-linejoin="round"/>
<path d="M123.609 141.828H26.4336V124.728C26.4336 122.817 27.9826 121.268 29.8939 121.268H120.149C122.06 121.268 123.609 122.817 123.609 124.728V141.828Z" stroke="#663366" stroke-width="4.10156" stroke-miterlimit="10" stroke-linecap="round" stroke-linejoin="round"/>
<path d="M141.837 100.682C141.967 105.034 140.333 109.251 137.187 112.261L129.242 119.86C128.505 120.566 127.595 121.229 126.575 121.229C126.532 121.229 120.15 121.263 120.15 121.263L95.5176 121.266V119.088C95.5176 114.913 98.8377 111.496 103.01 111.374L121.36 110.685C121.66 110.676 121.943 110.547 122.146 110.327L129.109 102.797" stroke="#663366" stroke-width="4.10156" stroke-miterlimit="10" stroke-linecap="round" stroke-linejoin="round"/>
<path d="M7.76297 100.685C7.67929 105.057 9.23679 109.252 12.383 112.261L20.3277 119.86C21.0649 120.566 21.9746 121.229 22.9951 121.229L29.8947 121.263L54.0521 121.266V119.088C54.0521 114.913 50.7323 111.496 46.5594 111.375L28.2095 110.685C27.9101 110.676 27.6268 110.547 27.4234 110.327L20.4606 102.797" stroke="#663366" stroke-width="4.10156" stroke-miterlimit="10" stroke-linecap="round" stroke-linejoin="round"/>
<path d="M107.064 121.266V111.225" stroke="#663366" stroke-width="4.10156" stroke-miterlimit="10" stroke-linecap="round" stroke-linejoin="round"/>
<path d="M42.5059 111.225V121.266" stroke="#663366" stroke-width="4.10156" stroke-miterlimit="10" stroke-linecap="round" stroke-linejoin="round"/>
<path d="M63.063 121.266V116.008C63.063 113.519 61.0456 111.502 58.5568 111.502C56.0679 111.502 54.0508 113.519 54.0508 116.008V121.266" stroke="#663366" stroke-width="4.10156" stroke-miterlimit="10" stroke-linecap="round" stroke-linejoin="round"/>
<path d="M95.5161 121.266V116.008C95.5161 113.519 93.4987 111.502 91.0102 111.502C88.5213 111.502 86.5039 113.519 86.5039 116.008V121.266" stroke="#663366" stroke-width="4.10156" stroke-miterlimit="10" stroke-linecap="round" stroke-linejoin="round"/>
<path d="M123.609 129.008H26.4336" stroke="#663366" stroke-width="4.10156" stroke-miterlimit="10" stroke-linecap="round" stroke-linejoin="round"/>
<path d="M7.80835 72.5805L8.31175 67.3371C8.87011 61.5191 14.0394 57.2557 19.8571 57.8143L29.9119 58.7167C32.7508 58.9712 34.8207 61.517 34.4912 64.3481C34.1748 67.0669 31.7563 69.0428 29.029 68.8103L25.0983 68.4757C23.5102 68.3231 22.0968 69.4811 21.9339 71.0681L21.9035 71.3653C21.7575 72.788 20.4901 73.826 19.0666 73.689C18.048 73.5911 17.1266 74.3434 17.0617 75.3646C16.7216 80.7232 12.7587 83.7578 12.7587 83.7578C12.7496 83.7614 7.05831 80.3904 7.80835 72.5805Z" stroke="#663366" stroke-width="4.10156" stroke-miterlimit="10" stroke-linecap="round" stroke-linejoin="round"/>
<path d="M23.5879 92.7422L23.8515 90.0879C23.9658 88.8998 25.0221 88.0295 26.2099 88.1449L28.9598 88.4112C30.3008 88.5422 31.4935 87.56 31.6223 86.2191L32.0349 81.9266C32.1011 81.2387 32.6608 80.7025 33.3513 80.6661L35.0148 80.5783C36.1764 80.5171 36.8299 79.2152 36.1849 78.2473L34.3042 75.4243C33.6247 74.388 34.0059 73.4717 34.0119 72.7419C34.2011 70.7701 33.9132 68.8563 33.2465 67.117" stroke="#663366" stroke-width="4.10156" stroke-miterlimit="10" stroke-linecap="round" stroke-linejoin="round"/>
<path d="M12.7581 83.7545L12.1973 89.5938" stroke="#663366" stroke-width="4.10156" stroke-miterlimit="10" stroke-linecap="round" stroke-linejoin="round"/>
<path d="M141.055 71.7971L140.122 66.4087C139.085 60.43 133.398 56.4234 127.42 57.4597L116.136 59.4159C115.348 59.5526 114.829 60.313 114.988 61.0967C115.719 64.6932 119.178 67.0557 122.794 66.429C124.226 66.1807 125.589 67.1386 125.84 68.5703L126.389 71.6987C126.64 73.1307 128.004 74.0885 129.436 73.84C129.458 73.8364 129.48 73.8323 129.503 73.8285C130.563 73.6445 131.548 74.3833 131.701 75.4486C132.491 80.9422 136.811 83.7578 136.811 83.7578C136.82 83.7605 142.447 79.823 141.055 71.7971Z" stroke="#663366" stroke-width="4.10156" stroke-miterlimit="10" stroke-linecap="round" stroke-linejoin="round"/>
<path d="M117.368 65.0121C115.982 67.245 115.288 69.9353 115.558 72.7419C115.564 73.4717 115.945 74.388 115.265 75.4243L113.385 78.2473C112.74 79.2152 113.393 80.5171 114.555 80.5783L116.219 80.6661C116.909 80.7025 117.469 81.2387 117.535 81.9266L117.947 86.2191C118.076 87.56 119.269 88.5422 120.61 88.4112L123.36 88.1449C124.548 88.0295 125.604 88.8998 125.718 90.0882L125.982 92.7422" stroke="#663366" stroke-width="4.10156" stroke-miterlimit="10" stroke-linecap="round" stroke-linejoin="round"/>
<path d="M137.375 89.6328L136.811 83.7531" stroke="#663366" stroke-width="4.10156" stroke-miterlimit="10" stroke-linecap="round" stroke-linejoin="round"/>
<path d="M58.9923 42.1055C58.6199 44.6102 58.4102 47.157 58.4102 49.7172C58.4102 66.7663 62.5629 76.8389 64.5901 80.7406C65.1898 81.8948 66.3817 82.6172 67.6821 82.6172H82.3625C83.6629 82.6172 84.8551 81.8948 85.4545 80.7406C87.4818 76.8389 91.6347 66.7663 91.6347 49.7172C91.6347 41.8356 89.6463 34.079 87.047 27.3C87.0467 27.2994 87.0459 27.2989 87.0456 27.2983C84.2525 20.0145 80.7541 13.8597 78.2516 9.90414C76.7515 7.53371 73.2931 7.53371 71.7933 9.90414C69.2908 13.8597 65.7921 20.0145 62.999 27.2983C62.9987 27.2989 62.9979 27.2994 62.9979 27.3C62.3479 28.9947 61.7363 30.7505 61.1845 32.5541" stroke="#663366" stroke-width="4.10156" stroke-miterlimit="10" stroke-linecap="round" stroke-linejoin="round"/>
<path d="M59.2451 62.392L54.554 65.6016C52.1426 67.2516 50.7281 70.0078 50.7932 72.9287L51.068 85.2172C51.1084 87.0265 53.4477 87.6984 54.455 86.1948C56.4197 83.2613 59.355 80.0514 63.4506 78.3255" stroke="#663366" stroke-width="4.10156" stroke-miterlimit="10" stroke-linecap="round" stroke-linejoin="round"/>
<path d="M86.5918 78.3256C90.6876 80.0512 93.623 83.2611 95.5876 86.1945C96.5947 87.6985 98.9342 87.0266 98.9747 85.2173L99.2492 72.9287C99.3146 70.0079 97.8998 67.2513 95.4886 65.6017L90.7975 62.3921" stroke="#663366" stroke-width="4.10156" stroke-miterlimit="10" stroke-linecap="round" stroke-linejoin="round"/>
<path d="M67.7955 82.6185L67.1111 84.3852C65.3576 88.9108 66.1631 94.029 69.2221 97.7973L73.6302 103.228C74.3471 104.111 75.6957 104.111 76.4129 103.228L80.8207 97.7973C83.8794 94.029 84.6852 88.9108 82.9317 84.3852L82.2475 82.6185" stroke="#663366" stroke-width="4.10156" stroke-miterlimit="10" stroke-linecap="round" stroke-linejoin="round"/>
<path d="M62.998 27.2969H87.0461" stroke="#663366" stroke-width="4.10156" stroke-miterlimit="10" stroke-linecap="round" stroke-linejoin="round"/>
<path d="M83.137 49.8308C83.137 54.3124 79.5041 57.9453 75.0225 57.9453C70.5411 57.9453 66.9082 54.3124 66.9082 49.8308C66.9082 45.3494 70.5411 41.7165 75.0225 41.7165C79.5041 41.7165 83.137 45.3494 83.137 49.8308Z" stroke="#663366" stroke-width="4.10156" stroke-miterlimit="10" stroke-linecap="round" stroke-linejoin="round"/>
</g>
</svg>
