<svg width="150" height="150" viewBox="0 0 150 150" fill="none" xmlns="http://www.w3.org/2000/svg">
<path d="M134.433 93.4398H63.7843C60.7134 93.4398 58.2162 95.93 58.2162 98.9922V134.448C58.2162 137.51 60.7134 140 63.7843 140H134.432C137.503 140 140 137.51 140 134.448V98.9922C140 95.93 137.503 93.4398 134.433 93.4398ZM136.615 134.448C136.615 135.648 135.636 136.623 134.433 136.623H63.7843C62.5806 136.623 61.6028 135.646 61.6028 134.448V98.9922C61.6028 97.7919 62.582 96.8169 63.7843 96.8169H134.432C135.636 96.8169 136.613 97.7933 136.613 98.9922L136.615 134.448ZM130.07 109.23H126.579V106.131C126.579 103.903 124.761 102.091 122.528 102.091H109.275C107.042 102.091 105.224 103.903 105.224 106.131V109.23H101.733C100.355 109.23 99.2356 110.348 99.2356 111.721V128.858C99.2356 130.231 100.355 131.348 101.733 131.348H130.07C131.448 131.348 132.568 130.23 132.568 128.858V111.721C132.568 110.348 131.448 109.23 130.07 109.23ZM108.61 106.132C108.61 105.772 108.915 105.469 109.275 105.469H122.528C122.889 105.469 123.193 105.772 123.193 106.132V109.232H108.61V106.132ZM129.182 112.608V115.899C126.833 117.023 123.866 117.834 120.632 118.232C119.96 117.134 118.752 116.396 117.37 116.396H114.436C113.054 116.396 111.845 117.134 111.174 118.232C107.938 117.832 104.973 117.023 102.624 115.899V112.608H129.182ZM117.804 120.208C117.804 120.444 117.604 120.643 117.368 120.643H114.435C114.199 120.643 113.999 120.444 113.999 120.208C113.999 119.973 114.199 119.773 114.435 119.773H117.368C117.604 119.773 117.804 119.973 117.804 120.208ZM102.622 127.972V119.583C105.044 120.543 107.873 121.235 110.88 121.598C111.439 123.013 112.82 124.019 114.435 124.019H117.368C118.983 124.019 120.365 123.013 120.923 121.598C123.931 121.235 126.76 120.543 129.181 119.583V127.972H102.622ZM79.805 117.666C84.3389 117.666 88.0269 113.988 88.0269 109.467C88.0269 104.946 84.3389 101.269 79.805 101.269C75.2711 101.269 71.5832 104.946 71.5832 109.467C71.5832 113.988 75.2726 117.666 79.805 117.666ZM79.805 104.647C82.4718 104.647 84.6402 106.81 84.6402 109.469C84.6402 112.128 82.4718 114.29 79.805 114.29C77.1383 114.29 74.9698 112.128 74.9698 109.469C74.9698 106.81 77.1397 104.647 79.805 104.647ZM93.9209 130.111C94.1252 131.021 93.5515 131.924 92.639 132.128C92.5144 132.155 92.3898 132.17 92.2667 132.17C91.4917 132.17 90.7921 131.637 90.6168 130.851C89.4942 125.856 84.9473 122.23 79.805 122.23C74.6628 122.23 70.1158 125.856 68.9932 130.851C68.789 131.761 67.8836 132.333 66.9711 132.129C66.0585 131.926 65.4849 131.023 65.6891 130.113C67.155 123.59 73.0925 118.855 79.805 118.855C86.5189 118.853 92.455 123.588 93.9209 130.111ZM53.0319 118.094C53.7084 118.738 54.7803 118.713 55.4263 118.039C56.0724 117.364 56.0477 116.297 55.3713 115.652C53.016 113.409 50.8736 110.649 48.9775 107.471C50.7403 107.029 52.5785 106.645 54.4848 106.323C55.406 106.167 56.0275 105.296 55.871 104.376C55.7146 103.456 54.8411 102.839 53.9184 102.993C51.6181 103.383 49.4048 103.86 47.2957 104.419C42.4794 94.9492 39.6156 82.5169 39.3911 69.1904H66.9696V89.4372C66.9696 90.3689 67.7272 91.1258 68.663 91.1258C69.5987 91.1258 70.3563 90.3703 70.3563 89.4372V69.1904H97.9348C97.8203 76.0747 97.0063 82.748 95.5099 89.0487C95.2941 89.9558 95.8576 90.8658 96.7673 91.081C97.6769 91.2933 98.5895 90.7343 98.8053 89.8272C100.361 83.2723 101.207 76.339 101.321 69.1919H122.915C122.709 75.9793 121.256 82.5588 118.589 88.7742C118.221 89.6322 118.62 90.6245 119.48 90.99C120.339 91.3569 121.334 90.9597 121.702 90.1017C124.772 82.9488 126.327 75.3452 126.327 67.5019C126.327 49.1574 117.667 32.7919 104.211 22.2561C104.075 22.1044 103.914 21.9831 103.74 21.8921C94.0151 14.4359 81.8503 10 68.663 10C55.4756 10 43.3108 14.4359 33.5854 21.8907C33.4116 21.9817 33.2523 22.103 33.1147 22.2547C19.6593 32.7904 11 49.1574 11 67.5019C11 93.5207 28.5866 116.369 53.7663 123.065C53.9126 123.104 54.0589 123.123 54.2038 123.123C54.9526 123.123 55.6363 122.625 55.8391 121.869C56.0796 120.968 55.5436 120.044 54.6398 119.804C48.3401 118.128 42.5446 115.378 37.4313 111.784C39.8358 110.49 42.5909 109.358 45.627 108.411C47.7897 112.193 50.2739 115.466 53.0319 118.094ZM122.915 65.8133H101.321C101.104 52.3569 98.294 39.679 93.3169 29.6343C96.8469 28.4903 100.044 27.0907 102.808 25.4584C114.674 35.0582 122.413 49.5446 122.915 65.8133ZM99.8642 23.2354C97.4597 24.5224 94.7046 25.6462 91.6916 26.5822C88.9105 21.7246 85.7121 17.8592 82.2284 15.0873C88.641 16.7383 94.5959 19.5319 99.8642 23.2354ZM70.3563 13.4667C77.0195 14.1802 83.3134 19.0971 88.3238 27.5254C82.8469 28.8977 76.7052 29.6993 70.3563 29.8207V13.4667ZM70.3563 33.1992C77.3874 33.075 84.0825 32.1751 90.0171 30.6036C94.932 40.2683 97.716 52.6313 97.9348 65.8133H70.3563V33.1992ZM66.9696 65.8133H39.3911C39.6099 52.6299 42.3925 40.2669 47.3088 30.6036C53.2434 32.1766 59.9385 33.075 66.9696 33.1992V65.8133ZM66.9696 13.4667V29.8207C60.6207 29.6993 54.4775 28.8977 49.0021 27.5254C54.014 19.0971 60.3078 14.1817 66.9696 13.4667ZM55.0975 15.0873C51.6138 17.8592 48.4154 21.7246 45.6343 26.5822C42.6213 25.6448 39.8662 24.5224 37.4617 23.2354C42.73 19.5319 48.6863 16.7383 55.0975 15.0873ZM34.5183 25.457C37.2821 27.0892 40.4804 28.4903 44.009 29.6329C39.0319 39.6776 36.2217 52.3554 36.0045 65.8119H14.4113C14.9139 49.5446 22.6534 35.0582 34.5183 25.457ZM34.4908 109.563C22.5013 99.8517 14.911 85.2281 14.4113 69.1904H36.0045C36.2261 82.7552 39.1231 95.4894 44.0134 105.381C40.4428 106.535 37.2357 107.941 34.4908 109.563Z" fill="#663366"/>
</svg>
