<svg width="150" height="150" viewBox="0 0 150 150" fill="none" xmlns="http://www.w3.org/2000/svg">
<path d="M38.9135 45.283H48.825C52.6656 52.7271 59.81 58.5578 67.2614 63.6983L69.4918 76.0342C69.6429 76.8642 70.362 77.4762 71.2063 77.4919H71.2428C72.0765 77.4919 72.7957 76.9161 72.9781 76.1068L74.6508 68.6006C79.4397 71.7183 83.9369 74.6751 86.8813 77.5283C87.2252 77.8603 87.6734 78.0315 88.1215 78.0315C88.5697 78.0315 89.0178 77.8655 89.3617 77.5283C92.3841 74.5974 97.0429 71.5627 101.973 68.3516C104.026 67.0132 106.141 65.6333 108.252 64.1912C108.752 64.3624 109.289 64.461 109.846 64.461H118.309C121.014 64.461 123.213 62.2719 123.213 59.5795V54.8123H128.002C130.706 54.8123 132.905 52.6232 132.905 49.9309V41.5063C132.905 39.5766 131.769 37.9063 130.133 37.1177C131.113 31.4944 130.17 26.0529 127.371 21.296C124.552 16.5079 120.107 12.8975 114.865 11.1338C106.782 8.41549 95.3131 10.0651 88.1214 22.8315C85.1875 17.6648 81.2844 13.8883 76.6987 11.8185C71.8002 9.60338 66.2296 9.4063 61.0184 11.2582C55.7239 13.1413 51.3102 16.8867 48.5796 21.8147C45.5936 27.2097 44.937 33.3984 46.6931 39.7214C46.8703 40.4113 47.0788 41.0856 47.308 41.7496L38.913 41.7445C37.9281 41.7445 37.136 42.5381 37.136 43.5133C37.1308 44.4938 37.9287 45.283 38.9135 45.283ZM52.9049 45.283H55.7397C56.4901 45.283 57.1571 44.8161 57.4125 44.1106L61.6126 32.4751L66.3547 58.7083C60.9664 54.7658 56.0315 50.3974 52.9049 45.283ZM71.3733 66.4632C71.4046 66.4839 71.4358 66.5047 71.4671 66.5254L71.4202 66.7329L71.3733 66.4632ZM100.024 65.3894C95.5532 68.2995 91.3062 71.0696 88.1171 73.8502C84.9331 71.0696 80.6809 68.2995 76.2149 65.3894C75.97 65.2286 75.7199 65.0677 75.4697 64.9017L79.4041 47.2328L83.4636 57.1876C83.7241 57.8256 84.339 58.2562 85.0321 58.2925C85.7252 58.3236 86.3766 57.9501 86.6945 57.338L91.2332 48.5868H95.2406V49.9251C95.2406 52.6174 97.4396 54.8066 100.144 54.8066H104.938V59.5738C104.938 60.3675 105.136 61.1197 105.475 61.7837C103.646 63.0287 101.812 64.2222 100.024 65.3894ZM129.347 49.9302C129.347 50.672 128.742 51.2685 128.002 51.2685H119.654V59.5789C119.654 60.3207 119.049 60.9172 118.309 60.9172H109.847C109.101 60.9172 108.502 60.3155 108.502 59.5789V51.2685H100.154C99.4089 51.2685 98.8096 50.6668 98.8096 49.9302V41.5056C98.8096 40.7638 99.4141 40.1673 100.154 40.1673H108.502V31.857C108.502 31.1152 109.107 30.5186 109.847 30.5186H118.309C119.055 30.5186 119.654 31.1204 119.654 31.857V40.1673H128.002C128.747 40.1673 129.347 40.769 129.347 41.5056V49.9302ZM50.1274 38.8238C50.1222 38.8134 50.1222 38.7978 50.117 38.7875C46.8131 26.8978 53.697 17.6126 62.2067 14.5874C69.5961 11.9573 80.3883 13.7626 86.4902 27.4991C86.7768 28.1424 87.4126 28.5522 88.1161 28.5522C88.8196 28.5522 89.4605 28.1372 89.742 27.4991C95.7504 13.9748 106.068 11.9111 113.719 14.4837C121.785 17.1968 128.586 25.5953 126.606 36.624H123.208V31.8515C123.208 29.1592 121.009 26.97 118.304 26.97H109.842C107.137 26.97 104.938 29.1591 104.938 31.8515V36.624H100.144C97.4392 36.624 95.24 38.8131 95.24 41.5055V45.0485H90.1488C89.4818 45.0485 88.8721 45.4169 88.5698 46.0082L85.3025 52.3007L80.55 40.6445C80.2582 39.9234 79.5286 39.4825 78.7521 39.5447C77.9757 39.607 77.3347 40.1672 77.1627 40.9246L72.2904 62.8153C71.6912 62.4159 71.0919 62.0164 70.4926 61.6118L63.937 25.3363C63.7963 24.5478 63.1345 23.9512 62.3372 23.8838C61.5347 23.8163 60.7894 24.2936 60.5133 25.0509L54.4893 41.7385H51.0969C50.7113 40.7944 50.3828 39.8249 50.1274 38.8238ZM138.945 87.9596C137.257 85.2361 133.03 83.1352 126.673 86.1803C126.642 86.1959 126.605 86.2114 126.574 86.2322C114.39 93.0382 107.257 98.3139 102.045 102.163C96.9589 105.919 93.603 108.403 88.8297 109.996C87.9803 110.281 85.333 110.053 82.9985 109.856C81.2371 109.705 79.3455 109.545 77.4852 109.493L97.0888 103.065C103.462 100.975 105.442 96.192 104.582 92.374C103.733 88.608 99.7829 84.93 93.1233 85.7599C87.636 86.4447 84.7647 87.2229 82.6699 87.7934C78.9649 88.7997 77.4327 89.2147 65.2487 87.3784C53.4977 85.6095 44.1336 87.7934 34.9821 94.4592C34.5809 93.8731 34.0493 93.3802 33.4083 93.0275C32.3401 92.4362 31.1102 92.2961 29.9429 92.6333L28.2962 93.1105C28.1034 92.9445 27.9001 92.7837 27.6761 92.6437C26.4775 91.8915 24.9454 91.6736 23.5802 92.0575L13.6061 94.8587C12.3346 95.2167 11.282 96.0467 10.6358 97.1983C9.98956 98.3499 9.82804 99.6779 10.1876 100.944L20.2398 136.405C20.5994 137.676 21.4436 138.734 22.6108 139.378C23.356 139.787 24.1742 140 24.9975 140C25.4561 140 25.9147 139.938 26.3628 139.808L32.6683 137.982C34.5182 137.448 35.8002 135.917 36.1231 134.05L41.2821 132.603C43.5593 131.965 44.9507 129.698 44.539 127.426C44.909 127.472 45.2738 127.519 45.6386 127.576C45.6542 127.581 45.6698 127.581 45.6855 127.581C47.1759 127.778 48.8016 129.003 50.8549 130.549C54.0754 132.976 58.4892 136.301 65.4932 137.702C67.7914 138.164 70.2197 138.392 72.7992 138.392C79.3339 138.392 86.8119 136.908 95.4418 133.92C95.5408 133.884 95.6398 133.843 95.7336 133.791C100.142 131.316 110.455 121.969 120.429 112.927C126.818 107.137 132.853 101.665 136.052 99.2111C139.862 96.2854 141.102 91.4507 138.945 87.9596ZM31.6751 134.579L25.3696 136.405C25.0257 136.503 24.6557 136.462 24.3378 136.286C24.0043 136.104 23.7698 135.803 23.6656 135.445L13.6081 99.9784C13.5091 99.6256 13.5508 99.2521 13.7384 98.9253C13.9208 98.5985 14.2178 98.3651 14.5722 98.2665L24.5462 95.4652C24.9527 95.3511 25.4217 95.4186 25.7813 95.6416C25.9532 95.7506 26.1721 95.9425 26.2294 96.2486L32.6131 132.686C32.7381 133.428 32.5036 134.34 31.6751 134.579ZM40.3151 129.189L35.8283 130.45L29.8512 96.3467L30.9299 96.0354C31.2634 95.9369 31.5395 96.051 31.675 96.1236C31.9147 96.2585 32.0919 96.4764 32.1649 96.7357L41.0081 127.944C41.1644 128.468 40.8414 129.039 40.3151 129.189ZM133.875 96.4088C130.561 98.9507 124.474 104.47 118.028 110.312C108.758 118.715 98.2683 128.229 94.1141 130.637C68.5486 139.445 59.1944 132.395 52.9991 127.726C50.6281 125.942 48.5853 124.396 46.1726 124.074C45.3023 123.94 44.4112 123.836 43.5201 123.763L36.2037 97.9496C36.3392 97.8562 36.4695 97.768 36.5893 97.6746C45.198 91.2421 53.6036 89.2138 64.7028 90.8842C77.6315 92.8348 79.3772 92.3575 83.5928 91.2162C85.698 90.6456 88.314 89.9349 93.5564 89.2813C98.038 88.7211 100.576 90.822 101.102 93.1564C101.576 95.2469 100.513 98.2194 95.969 99.7082L70.6904 107.993C70.065 108.2 69.2886 108.683 67.8555 110.82C66.3651 113.04 66.3651 113.502 66.3651 113.839C66.3651 114.601 66.855 115.286 67.5845 115.53C67.8764 115.628 68.8821 115.857 69.6794 114.793C71.4563 112.423 78.2151 113.004 82.6862 113.387C85.8806 113.662 88.4028 113.88 89.9557 113.362C95.2606 111.587 98.9916 108.828 104.156 105.015C109.284 101.223 116.304 96.0353 128.257 89.3591C131.764 87.6939 134.698 87.8703 135.907 89.8312C136.939 91.4704 136.574 94.339 133.875 96.4088ZM24.2653 121.241C23.4784 121.241 22.7593 120.717 22.5456 119.929L22.4101 119.431C22.1547 118.486 22.7176 117.516 23.666 117.262C24.6144 117.008 25.5889 117.568 25.8442 118.512L25.9797 119.01C26.235 119.955 25.6722 120.925 24.7238 121.179C24.5727 121.22 24.4216 121.241 24.2653 121.241ZM28.8614 129.697C29.1168 130.641 28.554 131.611 27.6056 131.865C27.4492 131.906 27.2981 131.927 27.1418 131.927C26.3549 131.927 25.6358 131.403 25.4221 130.615L24.0933 125.666C23.8379 124.722 24.4007 123.752 25.3491 123.497C26.2975 123.243 27.272 123.804 27.5273 124.748L28.8614 129.697Z" fill="#663366"/>
</svg>
