<svg width="150" height="150" viewBox="0 0 150 150" fill="none" xmlns="http://www.w3.org/2000/svg">
<mask id="mask0_1050_683" style="mask-type:luminance" maskUnits="userSpaceOnUse" x="5" y="5" width="140" height="140">
<path d="M5 5H145V145H5V5Z" fill="white"/>
</mask>
<g mask="url(#mask0_1050_683)">
<path d="M84.061 52.3464C84.061 57.3501 80.0048 61.4062 75.0012 61.4062C69.9976 61.4062 65.9414 57.3501 65.9414 52.3464C65.9414 47.3428 69.9976 43.2866 75.0012 43.2866C80.0048 43.2866 84.061 47.3428 84.061 52.3464Z" stroke="#663366" stroke-width="4.10156" stroke-miterlimit="10" stroke-linecap="round" stroke-linejoin="round"/>
<path d="M75 61.4023V74.9922" stroke="#663366" stroke-width="4.10156" stroke-miterlimit="10" stroke-linecap="round" stroke-linejoin="round"/>
<path d="M70.4707 68.2031H79.5305" stroke="#663366" stroke-width="4.10156" stroke-miterlimit="10" stroke-linecap="round" stroke-linejoin="round"/>
<path d="M99.9155 59.1399C99.9155 72.8998 88.7607 84.0547 75.0007 84.0547C61.2408 84.0547 50.0859 72.8998 50.0859 59.1399C50.0859 45.38 61.2408 34.2251 75.0007 34.2251C88.7607 34.2251 99.9155 45.38 99.9155 59.1399Z" stroke="#663366" stroke-width="4.10156" stroke-miterlimit="10" stroke-linecap="round" stroke-linejoin="round"/>
<path d="M106.711 127.659C98.4718 134.564 88.4022 139.776 77.2131 142.665C75.7634 143.039 74.2387 143.039 72.7889 142.665C61.5998 139.776 51.5302 134.564 43.291 127.659" stroke="#663366" stroke-width="4.10156" stroke-miterlimit="10" stroke-linecap="round" stroke-linejoin="round"/>
<path d="M20.6406 41.2317V29.0457C20.6406 25.0004 23.3222 21.4455 27.2113 20.3342L72.5109 7.3916C74.1376 6.92676 75.8621 6.92676 77.4888 7.3916L122.788 20.3342C126.678 21.4455 129.359 25.0004 129.359 29.0457V81.0732C129.359 88.4645 127.947 95.5643 125.348 102.172" stroke="#663366" stroke-width="4.10156" stroke-miterlimit="10" stroke-linecap="round" stroke-linejoin="round"/>
<path d="M24.653 102.18C22.0535 95.5715 20.6406 88.4717 20.6406 81.0796V49.4413" stroke="#663366" stroke-width="4.10156" stroke-miterlimit="10" stroke-linecap="round" stroke-linejoin="round"/>
<path d="M95.3801 124.816C89.6226 128.644 83.1375 131.613 76.2411 133.541C75.4285 133.768 74.5704 133.768 73.7578 133.541C66.86 131.613 60.3738 128.643 54.6152 124.814" stroke="#663366" stroke-width="4.10156" stroke-miterlimit="10" stroke-linecap="round" stroke-linejoin="round"/>
<path d="M31.4728 94.0541C30.2956 89.8284 29.7012 85.4827 29.7012 81.0784V32.4681C29.7012 30.4455 31.0418 28.6681 32.9865 28.1122L73.7563 16.4638C74.5695 16.2314 75.4317 16.2314 76.2449 16.4638L117.015 28.1122C118.959 28.6681 120.3 30.4455 120.3 32.4681V81.0784C120.3 85.483 119.706 89.829 118.528 94.0547" stroke="#663366" stroke-width="4.10156" stroke-miterlimit="10" stroke-linecap="round" stroke-linejoin="round"/>
<path d="M47.6679 93.1184H115.925C118.341 93.1184 120.3 95.0773 120.3 97.4934V120.453C120.3 122.869 118.341 124.828 115.925 124.828H34.0762C31.6601 124.828 29.7012 122.869 29.7012 120.453V97.4934C29.7012 95.0773 31.6601 93.1184 34.0762 93.1184H39.4648" stroke="#663366" stroke-width="4.10156" stroke-miterlimit="10" stroke-linecap="round" stroke-linejoin="round"/>
<path d="M43.2904 124.823V129.353C43.2904 131.855 41.2623 133.883 38.7606 133.883H9.32015C7.38503 133.883 6.34105 131.613 7.6005 130.144L15.4585 120.976C16.9127 119.28 16.9127 116.776 15.4585 115.08L7.6005 105.912C6.34105 104.443 7.38503 102.173 9.32015 102.173H29.7008" stroke="#663366" stroke-width="4.10156" stroke-miterlimit="10" stroke-linecap="round" stroke-linejoin="round"/>
<path d="M106.711 124.823V129.353C106.711 131.855 108.739 133.883 111.241 133.883H140.681C142.616 133.883 143.66 131.613 142.401 130.144L134.543 120.976C133.089 119.28 133.089 116.776 134.543 115.08L142.401 105.912C143.66 104.443 142.616 102.173 140.681 102.173H120.301" stroke="#663366" stroke-width="4.10156" stroke-miterlimit="10" stroke-linecap="round" stroke-linejoin="round"/>
<path d="M98.0352 114.914V105.871L104.149 114.725C104.262 114.888 104.384 114.808 104.384 114.609L104.299 105.854" stroke="#663366" stroke-width="4.10156" stroke-miterlimit="10" stroke-linecap="round" stroke-linejoin="round"/>
<path d="M73.5039 114.843L75.0964 106.02C75.1363 105.814 75.4243 105.795 75.4915 105.994L78.0818 114.775C78.1447 114.962 78.4094 114.96 78.4706 114.772L80.9723 105.996C81.0377 105.795 81.3256 105.812 81.3677 106.018L83.0545 114.843" stroke="#663366" stroke-width="4.10156" stroke-miterlimit="10" stroke-linecap="round" stroke-linejoin="round"/>
<path d="M92.2922 105.937H88.5098V114.914H92.2922" stroke="#663366" stroke-width="4.10156" stroke-miterlimit="10" stroke-linecap="round" stroke-linejoin="round"/>
<path d="M92.0133 110.43H88.5098" stroke="#663366" stroke-width="4.10156" stroke-miterlimit="10" stroke-linecap="round" stroke-linejoin="round"/>
<path d="M45.6172 105.854L47.3825 114.778C47.4473 114.961 47.7063 114.959 47.7686 114.775L50.5248 105.871" stroke="#663366" stroke-width="4.10156" stroke-miterlimit="10" stroke-linecap="round" stroke-linejoin="round"/>
<path d="M50.5254 105.854L53.2745 114.778C53.3393 114.961 53.5983 114.959 53.6609 114.775L55.433 105.871" stroke="#663366" stroke-width="4.10156" stroke-miterlimit="10" stroke-linecap="round" stroke-linejoin="round"/>
<path d="M68.9739 110.384C68.9739 112.886 66.9458 114.914 64.4441 114.914C61.9421 114.914 59.9141 112.886 59.9141 110.384C59.9141 107.883 61.9421 105.854 64.4441 105.854C66.9458 105.854 68.9739 107.883 68.9739 110.384Z" stroke="#663366" stroke-width="4.10156" stroke-miterlimit="10" stroke-linecap="round" stroke-linejoin="round"/>
</g>
</svg>
