<svg width="150" height="150" viewBox="0 0 150 150" fill="none" xmlns="http://www.w3.org/2000/svg">
<mask id="path-1-outside-1_105_1214" maskUnits="userSpaceOnUse" x="10" y="9" width="129" height="132" fill="black">
<rect fill="white" x="10" y="9" width="129" height="132"/>
<path d="M59.0331 76.9837C59.0587 77.0158 59.0651 77.0479 59.0907 77.0801C59.1547 77.1507 59.2379 77.1957 59.3147 77.2471C63.3344 80.915 68.6536 83.1761 74.4976 83.1761C80.3543 83.1761 85.6799 80.9086 89.6996 77.2342C89.77 77.1893 89.8468 77.1507 89.9108 77.0865C89.9364 77.0608 89.9492 77.0223 89.9684 76.9902C94.3467 72.8534 97.1055 66.9951 97.1055 60.4948C97.1055 53.9684 94.3275 48.0908 89.9173 43.9485C89.8917 43.9164 89.8853 43.8843 89.8597 43.8522C89.7893 43.7751 89.7061 43.7301 89.6229 43.6787C85.6159 40.043 80.3224 37.8076 74.5103 37.8076H74.5039H74.4975C68.6855 37.8076 63.3921 40.043 59.385 43.6787C59.3018 43.7301 59.2186 43.7751 59.1481 43.8522C59.1225 43.8778 59.1097 43.9164 59.0905 43.9485C54.6803 48.0917 51.9024 53.9694 51.9024 60.4948C51.9024 66.9954 54.6548 72.8473 59.0394 76.9902L59.0331 76.9837ZM85.161 60.4884C85.161 64.4839 84.5273 68.2416 83.4647 71.4406C80.9748 70.3615 78.3056 69.7383 75.5468 69.6163V59.8204C78.856 59.8589 82.1205 59.981 85.1546 60.1866C85.1546 60.2893 85.161 60.3857 85.161 60.482V60.4884ZM65.3254 76.2712C66.1191 77.7486 67.0217 78.9754 67.9818 79.9968C65.5815 79.1874 63.3731 77.9605 61.4592 76.3739C62.3874 75.6031 63.3668 74.9286 64.4037 74.3376C64.6917 75.0057 64.9925 75.6545 65.3254 76.2712ZM66.2791 73.3998C68.5386 72.4106 70.9646 71.8325 73.4673 71.7041V80.9797C70.6061 80.4144 68.0457 77.556 66.2791 73.3998ZM84.6055 74.3441C85.6361 74.9286 86.6218 75.6095 87.55 76.3804C85.636 77.967 83.4278 79.1939 81.0274 80.0033C81.9875 78.9819 82.89 77.755 83.6838 76.2776C84.0166 75.661 84.3175 75.0122 84.6055 74.3441ZM75.5483 80.9797V71.7041C78.051 71.8326 80.477 72.4107 82.7365 73.3999C80.9763 77.5558 78.4095 80.4144 75.5483 80.9797ZM75.5483 57.7142V51.2585C78.288 51.1301 80.9507 50.5134 83.4342 49.447C84.2983 52.0164 84.8808 54.9521 85.0792 58.0867C82.0579 57.8812 78.8256 57.7591 75.5483 57.7206V57.7142ZM75.5483 49.1645V39.9917C78.3904 40.5505 80.9379 43.3705 82.6982 47.4816C80.4514 48.4644 78.0382 49.0361 75.5483 49.1645ZM83.6838 44.7002C82.8901 43.2292 81.9875 41.9959 81.0274 40.9746C83.4021 41.7775 85.5848 42.9916 87.4859 44.5461C86.5706 45.2977 85.5977 45.9657 84.5736 46.5438C84.2983 45.9078 84.0039 45.2847 83.6838 44.6938L83.6838 44.7002ZM64.4365 46.5438C63.4188 45.9656 62.4459 45.2976 61.5242 44.5461C63.4253 42.9852 65.608 41.7711 67.9827 40.9746C67.0225 41.9959 66.12 43.2228 65.3263 44.7002C65.0062 45.2912 64.7118 45.9078 64.4366 46.5502L64.4365 46.5438ZM73.4617 39.9981V49.1709C70.9718 49.0424 68.5586 48.4707 66.3119 47.488C68.0721 43.3769 70.6261 40.557 73.4617 39.9981ZM73.4617 51.2523V57.7016C70.2036 57.708 66.9713 57.7979 63.9372 57.9971C64.142 54.8945 64.7181 51.9847 65.5758 49.4409C68.0593 50.5136 70.7221 51.1301 73.4617 51.2523ZM73.4617 59.8084V69.6108C70.7093 69.7392 68.0338 70.3559 65.5439 71.4351C64.4749 68.2362 63.8476 64.4719 63.8476 60.4828C63.8476 60.3543 63.854 60.2259 63.8604 60.1038C66.9072 59.9111 70.1653 59.8149 73.4617 59.8084ZM63.6491 72.3729C62.3306 73.0988 61.0824 73.9595 59.9175 74.9488C56.4354 71.4158 54.24 66.6174 54.0222 61.3179C56.1665 60.8489 58.8165 60.4956 61.7737 60.2515C61.7737 60.3286 61.7673 60.4057 61.7673 60.4828C61.7673 64.7481 62.4266 68.827 63.6491 72.3729ZM89.0921 74.9552C87.9271 73.9659 86.6789 73.1052 85.3604 72.3793C86.5766 68.84 87.2422 64.7546 87.2422 60.4892C87.2422 60.4443 87.2358 60.3929 87.2358 60.3479C90.225 60.5984 92.875 60.9389 94.9809 61.3436C94.7633 66.6367 92.5677 71.4221 89.0857 74.9551L89.0921 74.9552ZM94.9616 59.211C92.779 58.8127 90.129 58.4787 87.1782 58.2346C86.9861 54.753 86.3524 51.4449 85.3347 48.5093C86.6469 47.7898 87.8823 46.9355 89.0408 45.9591C92.4588 49.4022 94.648 54.0528 94.968 59.2109L94.9616 59.211ZM59.9688 45.9592C61.1274 46.9355 62.3627 47.7899 63.6749 48.5094C62.6635 51.4192 62.0299 54.6952 61.8378 58.1448C58.9125 58.3824 56.2627 58.7293 54.048 59.179C54.368 54.0337 56.557 49.3959 59.9688 45.9592ZM134.328 34.1334C132.664 34.1334 131.262 35.2575 130.814 36.7863H112.687C112.111 36.7863 111.644 37.2553 111.644 37.8334V51.7468H108.668C107.829 48.4387 106.523 45.2911 104.776 42.3492L107.599 39.5163C108.393 38.7198 108.828 37.6599 108.828 36.5293C108.828 35.3988 108.393 34.339 107.599 33.5424L101.358 27.2794C99.7193 25.635 97.0502 25.635 95.4052 27.2794L92.5823 30.1123C91.3085 29.3479 89.9964 28.667 88.6522 28.076V14.7342H105.737C106.191 16.263 107.586 17.3871 109.251 17.3871C111.28 17.3871 112.931 15.7299 112.931 13.6936C112.931 11.6573 111.28 10 109.251 10C107.586 10 106.185 11.1241 105.737 12.653H87.6101C87.034 12.653 86.5667 13.1219 86.5667 13.7V27.2538C85.4402 26.8427 84.2944 26.4829 83.123 26.1875V22.1856C83.123 19.8602 81.2348 17.9653 78.9176 17.9653H70.0908C67.7737 17.9653 65.8855 19.8602 65.8855 22.1856V26.1875C64.7141 26.4829 63.5683 26.8427 62.4417 27.2538V13.7C62.4417 13.1219 61.9745 12.653 61.3984 12.653H43.2719C42.8175 11.1242 41.4221 10 39.7579 10C37.7288 10 36.0774 11.6573 36.0774 13.6936C36.0774 15.7299 37.7288 17.3871 39.7579 17.3871C41.4221 17.3871 42.8175 16.263 43.2719 14.7342H60.3562V28.0695C59.0056 28.6605 57.6935 29.3478 56.4262 30.1059L53.6033 27.273C51.9647 25.6285 49.2955 25.6285 47.6505 27.273L41.4096 33.536C40.6159 34.3325 40.1807 35.3924 40.1807 36.5229C40.1807 37.6535 40.6159 38.7133 41.4096 39.5099L44.2325 42.3428C42.4787 45.2784 41.1792 48.4323 40.3408 51.7404H37.3644V37.827C37.3644 37.2489 36.8971 36.7799 36.321 36.7799H18.1945C17.7401 35.2511 16.3447 34.127 14.6805 34.127C12.6514 34.127 11 35.7842 11 37.8205C11 39.8568 12.6514 41.5141 14.6805 41.5141C16.3447 41.5141 17.7402 40.39 18.1945 38.8611H35.2788V51.7275H32.7057C28.6347 51.7275 25.3255 55.0485 25.3255 59.1339V122.02L18.8798 132.157C18.7582 132.343 18.7262 132.555 18.739 132.774C18.739 132.799 18.7198 132.825 18.7198 132.857V134.463V134.829C18.707 135.985 18.6942 137.296 19.7183 138.33C20.8769 139.499 23.0403 140 26.9578 140H121.837C125.416 140 127.56 139.512 128.789 138.413C130.082 137.264 130.082 135.709 130.082 134.457V133.3C130.107 133.268 130.139 133.255 130.159 133.217C130.344 132.883 130.325 132.472 130.12 132.15L123.674 122.008V59.1211C123.674 55.0357 120.365 51.7147 116.294 51.7147H113.721V38.8483H130.805C131.26 40.3771 132.655 41.5013 134.319 41.5013C136.349 41.5013 138 39.844 138 37.8077C138 35.7714 136.349 34.1142 134.319 34.1142L134.328 34.1334ZM109.249 12.0815C110.132 12.0815 110.849 12.8009 110.849 13.6874C110.849 14.5738 110.132 15.2933 109.249 15.2933C108.365 15.2933 107.649 14.5738 107.649 13.6874C107.649 12.8009 108.365 12.0815 109.249 12.0815ZM39.7613 15.2932C38.878 15.2932 38.1611 14.5738 38.1611 13.6873C38.1611 12.8009 38.878 12.0815 39.7613 12.0815C40.6446 12.0815 41.3615 12.8009 41.3615 13.6873C41.3615 14.5738 40.6446 15.2932 39.7613 15.2932ZM14.6821 39.4401C13.7988 39.4401 13.0819 38.7207 13.0819 37.8342C13.0819 36.9478 13.7988 36.2284 14.6821 36.2284C15.5654 36.2284 16.2823 36.9478 16.2823 37.8342C16.2823 38.7207 15.5654 39.4401 14.6821 39.4401ZM33.7115 68.198C34.4348 68.7761 35.3309 69.1423 36.3295 69.1423H40.3173C41.1558 72.4825 42.4679 75.6687 44.2346 78.6299L41.4117 81.4627C40.618 82.2593 40.1827 83.3191 40.1827 84.4497C40.1827 85.5802 40.618 86.6401 41.4117 87.4366L47.6526 93.6996C48.4719 94.5218 49.5471 94.933 50.629 94.933C51.7043 94.933 52.786 94.5218 53.6054 93.6996L56.4282 90.8668C57.702 91.6311 59.0141 92.3121 60.3583 92.9031V106.238H43.274C42.8195 104.71 41.4241 103.585 39.76 103.585C37.7309 103.585 36.0794 105.243 36.0794 107.279C36.0794 109.315 37.7309 110.973 39.76 110.973C41.4241 110.973 42.8196 109.848 43.274 108.32H61.4005C61.9765 108.32 62.4438 107.851 62.4438 107.273V93.7188C63.5704 94.1299 64.7161 94.4897 65.8875 94.7851V98.787C65.8875 101.112 67.7757 103.007 70.0929 103.007H78.9197C81.2369 103.007 83.1251 101.112 83.1251 98.787V94.7851C84.2964 94.4897 85.4422 94.1299 86.5688 93.7188V107.273C86.5688 107.851 87.0361 108.32 87.6121 108.32H105.739C106.193 109.848 107.588 110.973 109.253 110.973C111.282 110.973 112.933 109.315 112.933 107.279C112.933 105.243 111.282 103.585 109.253 103.585C107.588 103.585 106.187 104.71 105.739 106.238H88.6543V92.9031C90.0049 92.3121 91.3107 91.6248 92.5844 90.8603L95.4072 93.6932C96.2009 94.4897 97.2571 94.9265 98.3836 94.9265C99.5102 94.9265 100.566 94.4897 101.36 93.6932L107.601 87.4302C108.395 86.6337 108.83 85.5738 108.83 84.4433C108.83 83.3127 108.395 82.2529 107.601 81.4563L104.778 78.6234C106.545 75.6621 107.863 72.476 108.695 69.1359H112.683C113.675 69.1359 114.578 68.7761 115.301 68.1916V114.968L33.7091 114.974L33.7115 68.198ZM41.3606 107.286C41.3606 108.173 40.6437 108.892 39.7604 108.892C38.877 108.892 38.1601 108.173 38.1601 107.286C38.1601 106.4 38.877 105.68 39.7604 105.68C40.6437 105.68 41.3606 106.4 41.3606 107.286ZM107.648 107.286C107.648 106.4 108.365 105.68 109.248 105.68C110.131 105.68 110.848 106.4 110.848 107.286C110.848 108.173 110.131 108.892 109.248 108.892C108.365 108.892 107.648 108.173 107.648 107.286ZM42.8845 35.0215L49.1254 28.7585C49.9511 27.9299 51.3016 27.9299 52.1337 28.7585L55.5198 32.1566C55.571 32.208 55.635 32.2337 55.6862 32.2722C55.7246 32.2979 55.763 32.33 55.8078 32.3493C55.9486 32.42 56.1022 32.4649 56.2559 32.4649C56.4287 32.4649 56.5887 32.4071 56.7423 32.3236C56.7615 32.3108 56.7871 32.3172 56.8064 32.3043C58.4002 31.2958 60.0708 30.4287 61.7991 29.7093C61.7991 29.7093 61.8055 29.7093 61.8055 29.7028C63.5337 28.9834 65.3195 28.4181 67.1502 28.0005C67.1822 27.9941 67.2014 27.9748 67.2334 27.962C67.3038 27.9427 67.3614 27.9106 67.4254 27.8785C67.483 27.8463 67.5342 27.8142 67.5854 27.7693C67.6366 27.7243 67.6815 27.6793 67.7199 27.6279C67.7583 27.5766 67.7967 27.5252 67.8287 27.4674C67.8607 27.4095 67.8799 27.3517 67.8991 27.2875C67.9183 27.2168 67.9311 27.1526 67.9375 27.0819C67.9375 27.0498 67.9567 27.0241 67.9567 26.992V22.1871C67.9567 21.0116 68.9104 20.0545 70.0818 20.0545H78.9086C80.08 20.0545 81.0337 21.0116 81.0337 22.1871V26.992C81.0337 27.0241 81.0465 27.0498 81.0529 27.0819C81.0593 27.1526 81.0721 27.2233 81.0913 27.2875C81.1105 27.3517 81.1297 27.4095 81.1618 27.4674C81.1938 27.5252 81.2322 27.5766 81.2706 27.6279C81.3154 27.6793 81.3538 27.7307 81.405 27.7693C81.4562 27.8142 81.5074 27.8463 81.565 27.8785C81.629 27.9106 81.6866 27.9427 81.757 27.962C81.789 27.9748 81.8082 27.9941 81.8402 28.0005C83.6709 28.4181 85.4567 28.9833 87.185 29.7028H87.1914C88.9196 30.4223 90.5838 31.2894 92.1841 32.2979C92.2033 32.3108 92.2289 32.3043 92.2481 32.3172C92.4017 32.4007 92.5681 32.4585 92.7346 32.4585C92.8882 32.4585 93.0418 32.4135 93.1826 32.3429C93.2274 32.3236 93.2594 32.2915 93.3042 32.2658C93.3618 32.2273 93.4259 32.2016 93.4707 32.1502L96.8567 28.7521C97.6888 27.9235 99.033 27.9235 99.8651 28.7521L106.106 35.0151C106.503 35.4134 106.727 35.9529 106.727 36.5247C106.727 37.0964 106.509 37.6295 106.106 38.0342L102.72 41.4323C102.694 41.4579 102.688 41.4836 102.669 41.5093C102.624 41.5671 102.585 41.625 102.553 41.6828C102.521 41.7406 102.496 41.7984 102.477 41.8626C102.457 41.9269 102.445 41.9911 102.438 42.0554C102.432 42.1196 102.425 42.1838 102.432 42.2545C102.438 42.3187 102.451 42.3829 102.47 42.4472C102.489 42.5178 102.515 42.5821 102.547 42.6463C102.56 42.672 102.56 42.7041 102.579 42.7298C104.595 45.9352 106.036 49.4232 106.868 53.1103C106.874 53.1489 106.9 53.1746 106.906 53.2067C106.925 53.2581 106.944 53.303 106.964 53.3544C107.002 53.4251 107.04 53.4829 107.092 53.5471C107.124 53.5857 107.149 53.6178 107.188 53.6563C107.252 53.7141 107.322 53.7527 107.393 53.7976C107.431 53.8169 107.463 53.8426 107.501 53.8555C107.623 53.9004 107.745 53.9325 107.879 53.9325H112.661C113.832 53.9325 114.786 54.8897 114.786 56.0652V64.9233C114.786 66.0988 113.832 67.056 112.661 67.056H107.873C107.841 67.056 107.815 67.0688 107.783 67.0752C107.713 67.0817 107.649 67.0945 107.578 67.1138C107.514 67.133 107.45 67.1523 107.393 67.1844C107.335 67.2166 107.284 67.2487 107.233 67.2936C107.181 67.3386 107.13 67.3771 107.085 67.4285C107.041 67.4799 107.008 67.5313 106.976 67.5891C106.938 67.6534 106.912 67.7112 106.887 67.7818C106.874 67.8139 106.855 67.8332 106.848 67.8653C106.016 71.5525 104.576 75.0405 102.56 78.2458C102.541 78.2715 102.541 78.3036 102.528 78.3293C102.496 78.3936 102.47 78.4578 102.451 78.5285C102.432 78.5927 102.419 78.6569 102.413 78.7212C102.406 78.7854 102.413 78.8496 102.419 78.9203C102.425 78.9845 102.438 79.0488 102.457 79.113C102.477 79.1772 102.502 79.2286 102.534 79.2865C102.566 79.3507 102.605 79.4085 102.649 79.4663C102.669 79.492 102.675 79.5177 102.701 79.5434L106.087 82.9415C106.919 83.7701 106.919 85.1254 106.087 85.9605L99.8459 92.2235C99.449 92.6217 98.9114 92.8466 98.3417 92.8466C97.772 92.8466 97.2407 92.6282 96.8375 92.2235L93.4514 88.8254C93.4258 88.7997 93.4002 88.7933 93.3746 88.774C93.317 88.7291 93.2594 88.6905 93.2018 88.6584C93.1442 88.6263 93.0866 88.6006 93.0225 88.5813C92.9585 88.562 92.8945 88.5492 92.8305 88.5428C92.7665 88.5364 92.7025 88.5299 92.6321 88.5364C92.5681 88.5428 92.5041 88.5556 92.4401 88.5749C92.3697 88.5942 92.3056 88.6199 92.2416 88.652C92.216 88.6648 92.184 88.6648 92.1584 88.6841C90.5646 89.6926 88.894 90.5597 87.1721 91.2792C87.1657 91.2792 87.1657 91.2792 87.1593 91.2856C85.431 92.005 83.6453 92.5703 81.8146 92.9879C81.7826 92.9943 81.7634 93.0136 81.7314 93.0265C81.661 93.0457 81.6034 93.0779 81.5393 93.11C81.4817 93.1421 81.4305 93.1742 81.3793 93.2192C81.3281 93.2641 81.2833 93.3091 81.2449 93.3605C81.2001 93.4119 81.1681 93.4633 81.1361 93.5275C81.1041 93.5853 81.0849 93.6431 81.0657 93.7074C81.0465 93.778 81.0273 93.8423 81.0273 93.9129C81.0273 93.945 81.0081 93.9707 81.0081 94.0029V98.8077C81.0081 99.9832 80.0543 100.94 78.8829 100.94H70.0562C68.8848 100.94 67.931 99.9833 67.931 98.8077V94.0029C67.931 93.9707 67.9182 93.945 67.9118 93.9129C67.9054 93.8423 67.8926 93.7716 67.8734 93.7074C67.8542 93.6431 67.835 93.5853 67.803 93.5275C67.771 93.4697 67.7326 93.4183 67.6942 93.3605C67.6494 93.3091 67.611 93.2577 67.5598 93.2192C67.5086 93.1742 67.4574 93.1421 67.3997 93.11C67.3357 93.0779 67.2781 93.0457 67.2077 93.0265C67.1757 93.0136 67.1565 92.9943 67.1245 92.9879C65.2938 92.5704 63.5081 92.0051 61.7798 91.2856C61.7798 91.2856 61.7734 91.2856 61.7734 91.2792C60.0452 90.5597 58.381 89.6926 56.7807 88.6841C56.7551 88.6648 56.7231 88.6648 56.6911 88.652C56.6271 88.6199 56.5631 88.5942 56.4926 88.5749C56.4286 88.5556 56.371 88.5428 56.3006 88.5364C56.2366 88.5299 56.1726 88.5364 56.1022 88.5428C56.0382 88.5492 55.9742 88.562 55.9102 88.5813C55.8462 88.6006 55.7885 88.6263 55.7309 88.6584C55.6669 88.6905 55.6093 88.7291 55.5581 88.774C55.5325 88.7933 55.5069 88.7997 55.4813 88.8254L52.0952 92.2235C51.2631 93.0585 49.919 93.0585 49.0869 92.2235L42.846 85.9605C42.4492 85.5622 42.2251 85.0226 42.2251 84.4509C42.2251 83.8792 42.4428 83.3461 42.846 82.9414L46.2321 79.5433C46.2577 79.5176 46.2641 79.492 46.2833 79.4663C46.3281 79.4084 46.3665 79.3506 46.3985 79.2864C46.4305 79.2286 46.4561 79.1708 46.4753 79.1065C46.4945 79.0423 46.5073 78.9781 46.5137 78.9138C46.5201 78.8496 46.5265 78.7853 46.5201 78.7147C46.5137 78.6505 46.5009 78.5862 46.4817 78.522C46.4625 78.4513 46.4369 78.3871 46.4049 78.3229C46.3921 78.2972 46.3921 78.265 46.3729 78.2393C44.3566 75.034 42.9164 71.546 42.0843 67.8589C42.0779 67.8267 42.0587 67.8075 42.0459 67.7753C42.0267 67.7047 41.9947 67.6469 41.9563 67.5826C41.9243 67.5248 41.8923 67.4734 41.8475 67.4221C41.8027 67.3707 41.7578 67.3257 41.7066 67.2872C41.6554 67.2422 41.6042 67.2101 41.5402 67.1779C41.4826 67.1458 41.425 67.1266 41.361 67.1073C41.2906 67.088 41.2266 67.0688 41.1498 67.0623C41.1178 67.0623 41.0922 67.0431 41.0602 67.0431H36.2723C35.1009 67.0431 34.1471 66.0859 34.1471 64.9104V56.0523C34.1471 54.8768 35.1009 53.9196 36.2723 53.9196H41.0538C41.1882 53.9196 41.3098 53.8875 41.4314 53.8426C41.4698 53.8297 41.5018 53.804 41.5402 53.7847C41.6106 53.7462 41.6811 53.7012 41.7451 53.6434C41.7835 53.6113 41.8091 53.5728 41.8411 53.5406C41.8923 53.4828 41.9307 53.4186 41.9691 53.3479C41.9947 53.303 42.0139 53.2516 42.0267 53.2066C42.0395 53.1745 42.0587 53.1424 42.0651 53.1103C42.8972 49.4231 44.3374 45.9351 46.3537 42.7298C46.3729 42.7041 46.3729 42.672 46.3857 42.6463C46.4177 42.582 46.4433 42.5178 46.4625 42.4471C46.4817 42.3829 46.4945 42.3187 46.5009 42.2544C46.5073 42.1902 46.5009 42.1259 46.4945 42.0553C46.4881 41.9911 46.4753 41.9268 46.4561 41.8626C46.4369 41.7984 46.4113 41.7405 46.3793 41.6827C46.3473 41.6185 46.3089 41.5607 46.2641 41.5093C46.2449 41.4836 46.2385 41.4579 46.2129 41.4322L42.8268 38.0341C41.9947 37.2055 41.9947 35.8502 42.8268 35.0151L42.8845 35.0215ZM127.408 136.875C126.621 137.575 124.752 137.934 121.846 137.934H26.9661C23.8296 137.934 21.8965 137.581 21.2053 136.881C20.8149 136.483 20.7957 135.885 20.8085 134.87V134.485V133.785H128.004V134.485C128.004 135.648 127.966 136.386 127.415 136.881L127.408 136.875ZM66.7281 131.697L68.4179 129.481H80.4003L82.1861 131.697H66.7281ZM84.8611 131.697L81.7055 127.779C81.5071 127.535 81.2126 127.393 80.899 127.393H67.9052C67.5787 127.393 67.2779 127.548 67.0794 127.805L64.1158 131.704H21.6656L26.9464 123.398H122.07L127.351 131.704H84.8615L84.8611 131.697ZM121.596 59.1497V121.298H27.4126V59.1497C27.4126 56.214 29.7873 53.8309 32.7126 53.8309H32.7638C32.3605 54.4797 32.1173 55.2377 32.1173 56.0599V59.6251C31.8292 59.8114 31.6308 60.1197 31.6308 60.4858V116.018C31.6308 116.597 32.0981 117.065 32.6742 117.065H116.341C116.917 117.065 117.384 116.597 117.384 116.018V60.4858C117.384 60.1197 117.179 59.8114 116.898 59.6251V56.0599C116.898 55.2377 116.654 54.4797 116.251 53.8309H116.302C119.228 53.8309 121.602 56.214 121.602 59.1497H121.596ZM134.327 39.4428C133.444 39.4428 132.727 38.7233 132.727 37.8369C132.727 36.9504 133.444 36.231 134.327 36.231C135.21 36.231 135.927 36.9504 135.927 37.8369C135.927 38.7233 135.21 39.4428 134.327 39.4428Z"/>
</mask>
<path d="M59.0331 76.9837C59.0587 77.0158 59.0651 77.0479 59.0907 77.0801C59.1547 77.1507 59.2379 77.1957 59.3147 77.2471C63.3344 80.915 68.6536 83.1761 74.4976 83.1761C80.3543 83.1761 85.6799 80.9086 89.6996 77.2342C89.77 77.1893 89.8468 77.1507 89.9108 77.0865C89.9364 77.0608 89.9492 77.0223 89.9684 76.9902C94.3467 72.8534 97.1055 66.9951 97.1055 60.4948C97.1055 53.9684 94.3275 48.0908 89.9173 43.9485C89.8917 43.9164 89.8853 43.8843 89.8597 43.8522C89.7893 43.7751 89.7061 43.7301 89.6229 43.6787C85.6159 40.043 80.3224 37.8076 74.5103 37.8076H74.5039H74.4975C68.6855 37.8076 63.3921 40.043 59.385 43.6787C59.3018 43.7301 59.2186 43.7751 59.1481 43.8522C59.1225 43.8778 59.1097 43.9164 59.0905 43.9485C54.6803 48.0917 51.9024 53.9694 51.9024 60.4948C51.9024 66.9954 54.6548 72.8473 59.0394 76.9902L59.0331 76.9837ZM85.161 60.4884C85.161 64.4839 84.5273 68.2416 83.4647 71.4406C80.9748 70.3615 78.3056 69.7383 75.5468 69.6163V59.8204C78.856 59.8589 82.1205 59.981 85.1546 60.1866C85.1546 60.2893 85.161 60.3857 85.161 60.482V60.4884ZM65.3254 76.2712C66.1191 77.7486 67.0217 78.9754 67.9818 79.9968C65.5815 79.1874 63.3731 77.9605 61.4592 76.3739C62.3874 75.6031 63.3668 74.9286 64.4037 74.3376C64.6917 75.0057 64.9925 75.6545 65.3254 76.2712ZM66.2791 73.3998C68.5386 72.4106 70.9646 71.8325 73.4673 71.7041V80.9797C70.6061 80.4144 68.0457 77.556 66.2791 73.3998ZM84.6055 74.3441C85.6361 74.9286 86.6218 75.6095 87.55 76.3804C85.636 77.967 83.4278 79.1939 81.0274 80.0033C81.9875 78.9819 82.89 77.755 83.6838 76.2776C84.0166 75.661 84.3175 75.0122 84.6055 74.3441ZM75.5483 80.9797V71.7041C78.051 71.8326 80.477 72.4107 82.7365 73.3999C80.9763 77.5558 78.4095 80.4144 75.5483 80.9797ZM75.5483 57.7142V51.2585C78.288 51.1301 80.9507 50.5134 83.4342 49.447C84.2983 52.0164 84.8808 54.9521 85.0792 58.0867C82.0579 57.8812 78.8256 57.7591 75.5483 57.7206V57.7142ZM75.5483 49.1645V39.9917C78.3904 40.5505 80.9379 43.3705 82.6982 47.4816C80.4514 48.4644 78.0382 49.0361 75.5483 49.1645ZM83.6838 44.7002C82.8901 43.2292 81.9875 41.9959 81.0274 40.9746C83.4021 41.7775 85.5848 42.9916 87.4859 44.5461C86.5706 45.2977 85.5977 45.9657 84.5736 46.5438C84.2983 45.9078 84.0039 45.2847 83.6838 44.6938L83.6838 44.7002ZM64.4365 46.5438C63.4188 45.9656 62.4459 45.2976 61.5242 44.5461C63.4253 42.9852 65.608 41.7711 67.9827 40.9746C67.0225 41.9959 66.12 43.2228 65.3263 44.7002C65.0062 45.2912 64.7118 45.9078 64.4366 46.5502L64.4365 46.5438ZM73.4617 39.9981V49.1709C70.9718 49.0424 68.5586 48.4707 66.3119 47.488C68.0721 43.3769 70.6261 40.557 73.4617 39.9981ZM73.4617 51.2523V57.7016C70.2036 57.708 66.9713 57.7979 63.9372 57.9971C64.142 54.8945 64.7181 51.9847 65.5758 49.4409C68.0593 50.5136 70.7221 51.1301 73.4617 51.2523ZM73.4617 59.8084V69.6108C70.7093 69.7392 68.0338 70.3559 65.5439 71.4351C64.4749 68.2362 63.8476 64.4719 63.8476 60.4828C63.8476 60.3543 63.854 60.2259 63.8604 60.1038C66.9072 59.9111 70.1653 59.8149 73.4617 59.8084ZM63.6491 72.3729C62.3306 73.0988 61.0824 73.9595 59.9175 74.9488C56.4354 71.4158 54.24 66.6174 54.0222 61.3179C56.1665 60.8489 58.8165 60.4956 61.7737 60.2515C61.7737 60.3286 61.7673 60.4057 61.7673 60.4828C61.7673 64.7481 62.4266 68.827 63.6491 72.3729ZM89.0921 74.9552C87.9271 73.9659 86.6789 73.1052 85.3604 72.3793C86.5766 68.84 87.2422 64.7546 87.2422 60.4892C87.2422 60.4443 87.2358 60.3929 87.2358 60.3479C90.225 60.5984 92.875 60.9389 94.9809 61.3436C94.7633 66.6367 92.5677 71.4221 89.0857 74.9551L89.0921 74.9552ZM94.9616 59.211C92.779 58.8127 90.129 58.4787 87.1782 58.2346C86.9861 54.753 86.3524 51.4449 85.3347 48.5093C86.6469 47.7898 87.8823 46.9355 89.0408 45.9591C92.4588 49.4022 94.648 54.0528 94.968 59.2109L94.9616 59.211ZM59.9688 45.9592C61.1274 46.9355 62.3627 47.7899 63.6749 48.5094C62.6635 51.4192 62.0299 54.6952 61.8378 58.1448C58.9125 58.3824 56.2627 58.7293 54.048 59.179C54.368 54.0337 56.557 49.3959 59.9688 45.9592ZM134.328 34.1334C132.664 34.1334 131.262 35.2575 130.814 36.7863H112.687C112.111 36.7863 111.644 37.2553 111.644 37.8334V51.7468H108.668C107.829 48.4387 106.523 45.2911 104.776 42.3492L107.599 39.5163C108.393 38.7198 108.828 37.6599 108.828 36.5293C108.828 35.3988 108.393 34.339 107.599 33.5424L101.358 27.2794C99.7193 25.635 97.0502 25.635 95.4052 27.2794L92.5823 30.1123C91.3085 29.3479 89.9964 28.667 88.6522 28.076V14.7342H105.737C106.191 16.263 107.586 17.3871 109.251 17.3871C111.28 17.3871 112.931 15.7299 112.931 13.6936C112.931 11.6573 111.28 10 109.251 10C107.586 10 106.185 11.1241 105.737 12.653H87.6101C87.034 12.653 86.5667 13.1219 86.5667 13.7V27.2538C85.4402 26.8427 84.2944 26.4829 83.123 26.1875V22.1856C83.123 19.8602 81.2348 17.9653 78.9176 17.9653H70.0908C67.7737 17.9653 65.8855 19.8602 65.8855 22.1856V26.1875C64.7141 26.4829 63.5683 26.8427 62.4417 27.2538V13.7C62.4417 13.1219 61.9745 12.653 61.3984 12.653H43.2719C42.8175 11.1242 41.4221 10 39.7579 10C37.7288 10 36.0774 11.6573 36.0774 13.6936C36.0774 15.7299 37.7288 17.3871 39.7579 17.3871C41.4221 17.3871 42.8175 16.263 43.2719 14.7342H60.3562V28.0695C59.0056 28.6605 57.6935 29.3478 56.4262 30.1059L53.6033 27.273C51.9647 25.6285 49.2955 25.6285 47.6505 27.273L41.4096 33.536C40.6159 34.3325 40.1807 35.3924 40.1807 36.5229C40.1807 37.6535 40.6159 38.7133 41.4096 39.5099L44.2325 42.3428C42.4787 45.2784 41.1792 48.4323 40.3408 51.7404H37.3644V37.827C37.3644 37.2489 36.8971 36.7799 36.321 36.7799H18.1945C17.7401 35.2511 16.3447 34.127 14.6805 34.127C12.6514 34.127 11 35.7842 11 37.8205C11 39.8568 12.6514 41.5141 14.6805 41.5141C16.3447 41.5141 17.7402 40.39 18.1945 38.8611H35.2788V51.7275H32.7057C28.6347 51.7275 25.3255 55.0485 25.3255 59.1339V122.02L18.8798 132.157C18.7582 132.343 18.7262 132.555 18.739 132.774C18.739 132.799 18.7198 132.825 18.7198 132.857V134.463V134.829C18.707 135.985 18.6942 137.296 19.7183 138.33C20.8769 139.499 23.0403 140 26.9578 140H121.837C125.416 140 127.56 139.512 128.789 138.413C130.082 137.264 130.082 135.709 130.082 134.457V133.3C130.107 133.268 130.139 133.255 130.159 133.217C130.344 132.883 130.325 132.472 130.12 132.15L123.674 122.008V59.1211C123.674 55.0357 120.365 51.7147 116.294 51.7147H113.721V38.8483H130.805C131.26 40.3771 132.655 41.5013 134.319 41.5013C136.349 41.5013 138 39.844 138 37.8077C138 35.7714 136.349 34.1142 134.319 34.1142L134.328 34.1334ZM109.249 12.0815C110.132 12.0815 110.849 12.8009 110.849 13.6874C110.849 14.5738 110.132 15.2933 109.249 15.2933C108.365 15.2933 107.649 14.5738 107.649 13.6874C107.649 12.8009 108.365 12.0815 109.249 12.0815ZM39.7613 15.2932C38.878 15.2932 38.1611 14.5738 38.1611 13.6873C38.1611 12.8009 38.878 12.0815 39.7613 12.0815C40.6446 12.0815 41.3615 12.8009 41.3615 13.6873C41.3615 14.5738 40.6446 15.2932 39.7613 15.2932ZM14.6821 39.4401C13.7988 39.4401 13.0819 38.7207 13.0819 37.8342C13.0819 36.9478 13.7988 36.2284 14.6821 36.2284C15.5654 36.2284 16.2823 36.9478 16.2823 37.8342C16.2823 38.7207 15.5654 39.4401 14.6821 39.4401ZM33.7115 68.198C34.4348 68.7761 35.3309 69.1423 36.3295 69.1423H40.3173C41.1558 72.4825 42.4679 75.6687 44.2346 78.6299L41.4117 81.4627C40.618 82.2593 40.1827 83.3191 40.1827 84.4497C40.1827 85.5802 40.618 86.6401 41.4117 87.4366L47.6526 93.6996C48.4719 94.5218 49.5471 94.933 50.629 94.933C51.7043 94.933 52.786 94.5218 53.6054 93.6996L56.4282 90.8668C57.702 91.6311 59.0141 92.3121 60.3583 92.9031V106.238H43.274C42.8195 104.71 41.4241 103.585 39.76 103.585C37.7309 103.585 36.0794 105.243 36.0794 107.279C36.0794 109.315 37.7309 110.973 39.76 110.973C41.4241 110.973 42.8196 109.848 43.274 108.32H61.4005C61.9765 108.32 62.4438 107.851 62.4438 107.273V93.7188C63.5704 94.1299 64.7161 94.4897 65.8875 94.7851V98.787C65.8875 101.112 67.7757 103.007 70.0929 103.007H78.9197C81.2369 103.007 83.1251 101.112 83.1251 98.787V94.7851C84.2964 94.4897 85.4422 94.1299 86.5688 93.7188V107.273C86.5688 107.851 87.0361 108.32 87.6121 108.32H105.739C106.193 109.848 107.588 110.973 109.253 110.973C111.282 110.973 112.933 109.315 112.933 107.279C112.933 105.243 111.282 103.585 109.253 103.585C107.588 103.585 106.187 104.71 105.739 106.238H88.6543V92.9031C90.0049 92.3121 91.3107 91.6248 92.5844 90.8603L95.4072 93.6932C96.2009 94.4897 97.2571 94.9265 98.3836 94.9265C99.5102 94.9265 100.566 94.4897 101.36 93.6932L107.601 87.4302C108.395 86.6337 108.83 85.5738 108.83 84.4433C108.83 83.3127 108.395 82.2529 107.601 81.4563L104.778 78.6234C106.545 75.6621 107.863 72.476 108.695 69.1359H112.683C113.675 69.1359 114.578 68.7761 115.301 68.1916V114.968L33.7091 114.974L33.7115 68.198ZM41.3606 107.286C41.3606 108.173 40.6437 108.892 39.7604 108.892C38.877 108.892 38.1601 108.173 38.1601 107.286C38.1601 106.4 38.877 105.68 39.7604 105.68C40.6437 105.68 41.3606 106.4 41.3606 107.286ZM107.648 107.286C107.648 106.4 108.365 105.68 109.248 105.68C110.131 105.68 110.848 106.4 110.848 107.286C110.848 108.173 110.131 108.892 109.248 108.892C108.365 108.892 107.648 108.173 107.648 107.286ZM42.8845 35.0215L49.1254 28.7585C49.9511 27.9299 51.3016 27.9299 52.1337 28.7585L55.5198 32.1566C55.571 32.208 55.635 32.2337 55.6862 32.2722C55.7246 32.2979 55.763 32.33 55.8078 32.3493C55.9486 32.42 56.1022 32.4649 56.2559 32.4649C56.4287 32.4649 56.5887 32.4071 56.7423 32.3236C56.7615 32.3108 56.7871 32.3172 56.8064 32.3043C58.4002 31.2958 60.0708 30.4287 61.7991 29.7093C61.7991 29.7093 61.8055 29.7093 61.8055 29.7028C63.5337 28.9834 65.3195 28.4181 67.1502 28.0005C67.1822 27.9941 67.2014 27.9748 67.2334 27.962C67.3038 27.9427 67.3614 27.9106 67.4254 27.8785C67.483 27.8463 67.5342 27.8142 67.5854 27.7693C67.6366 27.7243 67.6815 27.6793 67.7199 27.6279C67.7583 27.5766 67.7967 27.5252 67.8287 27.4674C67.8607 27.4095 67.8799 27.3517 67.8991 27.2875C67.9183 27.2168 67.9311 27.1526 67.9375 27.0819C67.9375 27.0498 67.9567 27.0241 67.9567 26.992V22.1871C67.9567 21.0116 68.9104 20.0545 70.0818 20.0545H78.9086C80.08 20.0545 81.0337 21.0116 81.0337 22.1871V26.992C81.0337 27.0241 81.0465 27.0498 81.0529 27.0819C81.0593 27.1526 81.0721 27.2233 81.0913 27.2875C81.1105 27.3517 81.1297 27.4095 81.1618 27.4674C81.1938 27.5252 81.2322 27.5766 81.2706 27.6279C81.3154 27.6793 81.3538 27.7307 81.405 27.7693C81.4562 27.8142 81.5074 27.8463 81.565 27.8785C81.629 27.9106 81.6866 27.9427 81.757 27.962C81.789 27.9748 81.8082 27.9941 81.8402 28.0005C83.6709 28.4181 85.4567 28.9833 87.185 29.7028H87.1914C88.9196 30.4223 90.5838 31.2894 92.1841 32.2979C92.2033 32.3108 92.2289 32.3043 92.2481 32.3172C92.4017 32.4007 92.5681 32.4585 92.7346 32.4585C92.8882 32.4585 93.0418 32.4135 93.1826 32.3429C93.2274 32.3236 93.2594 32.2915 93.3042 32.2658C93.3618 32.2273 93.4259 32.2016 93.4707 32.1502L96.8567 28.7521C97.6888 27.9235 99.033 27.9235 99.8651 28.7521L106.106 35.0151C106.503 35.4134 106.727 35.9529 106.727 36.5247C106.727 37.0964 106.509 37.6295 106.106 38.0342L102.72 41.4323C102.694 41.4579 102.688 41.4836 102.669 41.5093C102.624 41.5671 102.585 41.625 102.553 41.6828C102.521 41.7406 102.496 41.7984 102.477 41.8626C102.457 41.9269 102.445 41.9911 102.438 42.0554C102.432 42.1196 102.425 42.1838 102.432 42.2545C102.438 42.3187 102.451 42.3829 102.47 42.4472C102.489 42.5178 102.515 42.5821 102.547 42.6463C102.56 42.672 102.56 42.7041 102.579 42.7298C104.595 45.9352 106.036 49.4232 106.868 53.1103C106.874 53.1489 106.9 53.1746 106.906 53.2067C106.925 53.2581 106.944 53.303 106.964 53.3544C107.002 53.4251 107.04 53.4829 107.092 53.5471C107.124 53.5857 107.149 53.6178 107.188 53.6563C107.252 53.7141 107.322 53.7527 107.393 53.7976C107.431 53.8169 107.463 53.8426 107.501 53.8555C107.623 53.9004 107.745 53.9325 107.879 53.9325H112.661C113.832 53.9325 114.786 54.8897 114.786 56.0652V64.9233C114.786 66.0988 113.832 67.056 112.661 67.056H107.873C107.841 67.056 107.815 67.0688 107.783 67.0752C107.713 67.0817 107.649 67.0945 107.578 67.1138C107.514 67.133 107.45 67.1523 107.393 67.1844C107.335 67.2166 107.284 67.2487 107.233 67.2936C107.181 67.3386 107.13 67.3771 107.085 67.4285C107.041 67.4799 107.008 67.5313 106.976 67.5891C106.938 67.6534 106.912 67.7112 106.887 67.7818C106.874 67.8139 106.855 67.8332 106.848 67.8653C106.016 71.5525 104.576 75.0405 102.56 78.2458C102.541 78.2715 102.541 78.3036 102.528 78.3293C102.496 78.3936 102.47 78.4578 102.451 78.5285C102.432 78.5927 102.419 78.6569 102.413 78.7212C102.406 78.7854 102.413 78.8496 102.419 78.9203C102.425 78.9845 102.438 79.0488 102.457 79.113C102.477 79.1772 102.502 79.2286 102.534 79.2865C102.566 79.3507 102.605 79.4085 102.649 79.4663C102.669 79.492 102.675 79.5177 102.701 79.5434L106.087 82.9415C106.919 83.7701 106.919 85.1254 106.087 85.9605L99.8459 92.2235C99.449 92.6217 98.9114 92.8466 98.3417 92.8466C97.772 92.8466 97.2407 92.6282 96.8375 92.2235L93.4514 88.8254C93.4258 88.7997 93.4002 88.7933 93.3746 88.774C93.317 88.7291 93.2594 88.6905 93.2018 88.6584C93.1442 88.6263 93.0866 88.6006 93.0225 88.5813C92.9585 88.562 92.8945 88.5492 92.8305 88.5428C92.7665 88.5364 92.7025 88.5299 92.6321 88.5364C92.5681 88.5428 92.5041 88.5556 92.4401 88.5749C92.3697 88.5942 92.3056 88.6199 92.2416 88.652C92.216 88.6648 92.184 88.6648 92.1584 88.6841C90.5646 89.6926 88.894 90.5597 87.1721 91.2792C87.1657 91.2792 87.1657 91.2792 87.1593 91.2856C85.431 92.005 83.6453 92.5703 81.8146 92.9879C81.7826 92.9943 81.7634 93.0136 81.7314 93.0265C81.661 93.0457 81.6034 93.0779 81.5393 93.11C81.4817 93.1421 81.4305 93.1742 81.3793 93.2192C81.3281 93.2641 81.2833 93.3091 81.2449 93.3605C81.2001 93.4119 81.1681 93.4633 81.1361 93.5275C81.1041 93.5853 81.0849 93.6431 81.0657 93.7074C81.0465 93.778 81.0273 93.8423 81.0273 93.9129C81.0273 93.945 81.0081 93.9707 81.0081 94.0029V98.8077C81.0081 99.9832 80.0543 100.94 78.8829 100.94H70.0562C68.8848 100.94 67.931 99.9833 67.931 98.8077V94.0029C67.931 93.9707 67.9182 93.945 67.9118 93.9129C67.9054 93.8423 67.8926 93.7716 67.8734 93.7074C67.8542 93.6431 67.835 93.5853 67.803 93.5275C67.771 93.4697 67.7326 93.4183 67.6942 93.3605C67.6494 93.3091 67.611 93.2577 67.5598 93.2192C67.5086 93.1742 67.4574 93.1421 67.3997 93.11C67.3357 93.0779 67.2781 93.0457 67.2077 93.0265C67.1757 93.0136 67.1565 92.9943 67.1245 92.9879C65.2938 92.5704 63.5081 92.0051 61.7798 91.2856C61.7798 91.2856 61.7734 91.2856 61.7734 91.2792C60.0452 90.5597 58.381 89.6926 56.7807 88.6841C56.7551 88.6648 56.7231 88.6648 56.6911 88.652C56.6271 88.6199 56.5631 88.5942 56.4926 88.5749C56.4286 88.5556 56.371 88.5428 56.3006 88.5364C56.2366 88.5299 56.1726 88.5364 56.1022 88.5428C56.0382 88.5492 55.9742 88.562 55.9102 88.5813C55.8462 88.6006 55.7885 88.6263 55.7309 88.6584C55.6669 88.6905 55.6093 88.7291 55.5581 88.774C55.5325 88.7933 55.5069 88.7997 55.4813 88.8254L52.0952 92.2235C51.2631 93.0585 49.919 93.0585 49.0869 92.2235L42.846 85.9605C42.4492 85.5622 42.2251 85.0226 42.2251 84.4509C42.2251 83.8792 42.4428 83.3461 42.846 82.9414L46.2321 79.5433C46.2577 79.5176 46.2641 79.492 46.2833 79.4663C46.3281 79.4084 46.3665 79.3506 46.3985 79.2864C46.4305 79.2286 46.4561 79.1708 46.4753 79.1065C46.4945 79.0423 46.5073 78.9781 46.5137 78.9138C46.5201 78.8496 46.5265 78.7853 46.5201 78.7147C46.5137 78.6505 46.5009 78.5862 46.4817 78.522C46.4625 78.4513 46.4369 78.3871 46.4049 78.3229C46.3921 78.2972 46.3921 78.265 46.3729 78.2393C44.3566 75.034 42.9164 71.546 42.0843 67.8589C42.0779 67.8267 42.0587 67.8075 42.0459 67.7753C42.0267 67.7047 41.9947 67.6469 41.9563 67.5826C41.9243 67.5248 41.8923 67.4734 41.8475 67.4221C41.8027 67.3707 41.7578 67.3257 41.7066 67.2872C41.6554 67.2422 41.6042 67.2101 41.5402 67.1779C41.4826 67.1458 41.425 67.1266 41.361 67.1073C41.2906 67.088 41.2266 67.0688 41.1498 67.0623C41.1178 67.0623 41.0922 67.0431 41.0602 67.0431H36.2723C35.1009 67.0431 34.1471 66.0859 34.1471 64.9104V56.0523C34.1471 54.8768 35.1009 53.9196 36.2723 53.9196H41.0538C41.1882 53.9196 41.3098 53.8875 41.4314 53.8426C41.4698 53.8297 41.5018 53.804 41.5402 53.7847C41.6106 53.7462 41.6811 53.7012 41.7451 53.6434C41.7835 53.6113 41.8091 53.5728 41.8411 53.5406C41.8923 53.4828 41.9307 53.4186 41.9691 53.3479C41.9947 53.303 42.0139 53.2516 42.0267 53.2066C42.0395 53.1745 42.0587 53.1424 42.0651 53.1103C42.8972 49.4231 44.3374 45.9351 46.3537 42.7298C46.3729 42.7041 46.3729 42.672 46.3857 42.6463C46.4177 42.582 46.4433 42.5178 46.4625 42.4471C46.4817 42.3829 46.4945 42.3187 46.5009 42.2544C46.5073 42.1902 46.5009 42.1259 46.4945 42.0553C46.4881 41.9911 46.4753 41.9268 46.4561 41.8626C46.4369 41.7984 46.4113 41.7405 46.3793 41.6827C46.3473 41.6185 46.3089 41.5607 46.2641 41.5093C46.2449 41.4836 46.2385 41.4579 46.2129 41.4322L42.8268 38.0341C41.9947 37.2055 41.9947 35.8502 42.8268 35.0151L42.8845 35.0215ZM127.408 136.875C126.621 137.575 124.752 137.934 121.846 137.934H26.9661C23.8296 137.934 21.8965 137.581 21.2053 136.881C20.8149 136.483 20.7957 135.885 20.8085 134.87V134.485V133.785H128.004V134.485C128.004 135.648 127.966 136.386 127.415 136.881L127.408 136.875ZM66.7281 131.697L68.4179 129.481H80.4003L82.1861 131.697H66.7281ZM84.8611 131.697L81.7055 127.779C81.5071 127.535 81.2126 127.393 80.899 127.393H67.9052C67.5787 127.393 67.2779 127.548 67.0794 127.805L64.1158 131.704H21.6656L26.9464 123.398H122.07L127.351 131.704H84.8615L84.8611 131.697ZM121.596 59.1497V121.298H27.4126V59.1497C27.4126 56.214 29.7873 53.8309 32.7126 53.8309H32.7638C32.3605 54.4797 32.1173 55.2377 32.1173 56.0599V59.6251C31.8292 59.8114 31.6308 60.1197 31.6308 60.4858V116.018C31.6308 116.597 32.0981 117.065 32.6742 117.065H116.341C116.917 117.065 117.384 116.597 117.384 116.018V60.4858C117.384 60.1197 117.179 59.8114 116.898 59.6251V56.0599C116.898 55.2377 116.654 54.4797 116.251 53.8309H116.302C119.228 53.8309 121.602 56.214 121.602 59.1497H121.596ZM134.327 39.4428C133.444 39.4428 132.727 38.7233 132.727 37.8369C132.727 36.9504 133.444 36.231 134.327 36.231C135.21 36.231 135.927 36.9504 135.927 37.8369C135.927 38.7233 135.21 39.4428 134.327 39.4428Z" fill="#663366"/>
<path d="M59.0331 76.9837C59.0587 77.0158 59.0651 77.0479 59.0907 77.0801C59.1547 77.1507 59.2379 77.1957 59.3147 77.2471C63.3344 80.915 68.6536 83.1761 74.4976 83.1761C80.3543 83.1761 85.6799 80.9086 89.6996 77.2342C89.77 77.1893 89.8468 77.1507 89.9108 77.0865C89.9364 77.0608 89.9492 77.0223 89.9684 76.9902C94.3467 72.8534 97.1055 66.9951 97.1055 60.4948C97.1055 53.9684 94.3275 48.0908 89.9173 43.9485C89.8917 43.9164 89.8853 43.8843 89.8597 43.8522C89.7893 43.7751 89.7061 43.7301 89.6229 43.6787C85.6159 40.043 80.3224 37.8076 74.5103 37.8076H74.5039H74.4975C68.6855 37.8076 63.3921 40.043 59.385 43.6787C59.3018 43.7301 59.2186 43.7751 59.1481 43.8522C59.1225 43.8778 59.1097 43.9164 59.0905 43.9485C54.6803 48.0917 51.9024 53.9694 51.9024 60.4948C51.9024 66.9954 54.6548 72.8473 59.0394 76.9902L59.0331 76.9837ZM85.161 60.4884C85.161 64.4839 84.5273 68.2416 83.4647 71.4406C80.9748 70.3615 78.3056 69.7383 75.5468 69.6163V59.8204C78.856 59.8589 82.1205 59.981 85.1546 60.1866C85.1546 60.2893 85.161 60.3857 85.161 60.482V60.4884ZM65.3254 76.2712C66.1191 77.7486 67.0217 78.9754 67.9818 79.9968C65.5815 79.1874 63.3731 77.9605 61.4592 76.3739C62.3874 75.6031 63.3668 74.9286 64.4037 74.3376C64.6917 75.0057 64.9925 75.6545 65.3254 76.2712ZM66.2791 73.3998C68.5386 72.4106 70.9646 71.8325 73.4673 71.7041V80.9797C70.6061 80.4144 68.0457 77.556 66.2791 73.3998ZM84.6055 74.3441C85.6361 74.9286 86.6218 75.6095 87.55 76.3804C85.636 77.967 83.4278 79.1939 81.0274 80.0033C81.9875 78.9819 82.89 77.755 83.6838 76.2776C84.0166 75.661 84.3175 75.0122 84.6055 74.3441ZM75.5483 80.9797V71.7041C78.051 71.8326 80.477 72.4107 82.7365 73.3999C80.9763 77.5558 78.4095 80.4144 75.5483 80.9797ZM75.5483 57.7142V51.2585C78.288 51.1301 80.9507 50.5134 83.4342 49.447C84.2983 52.0164 84.8808 54.9521 85.0792 58.0867C82.0579 57.8812 78.8256 57.7591 75.5483 57.7206V57.7142ZM75.5483 49.1645V39.9917C78.3904 40.5505 80.9379 43.3705 82.6982 47.4816C80.4514 48.4644 78.0382 49.0361 75.5483 49.1645ZM83.6838 44.7002C82.8901 43.2292 81.9875 41.9959 81.0274 40.9746C83.4021 41.7775 85.5848 42.9916 87.4859 44.5461C86.5706 45.2977 85.5977 45.9657 84.5736 46.5438C84.2983 45.9078 84.0039 45.2847 83.6838 44.6938L83.6838 44.7002ZM64.4365 46.5438C63.4188 45.9656 62.4459 45.2976 61.5242 44.5461C63.4253 42.9852 65.608 41.7711 67.9827 40.9746C67.0225 41.9959 66.12 43.2228 65.3263 44.7002C65.0062 45.2912 64.7118 45.9078 64.4366 46.5502L64.4365 46.5438ZM73.4617 39.9981V49.1709C70.9718 49.0424 68.5586 48.4707 66.3119 47.488C68.0721 43.3769 70.6261 40.557 73.4617 39.9981ZM73.4617 51.2523V57.7016C70.2036 57.708 66.9713 57.7979 63.9372 57.9971C64.142 54.8945 64.7181 51.9847 65.5758 49.4409C68.0593 50.5136 70.7221 51.1301 73.4617 51.2523ZM73.4617 59.8084V69.6108C70.7093 69.7392 68.0338 70.3559 65.5439 71.4351C64.4749 68.2362 63.8476 64.4719 63.8476 60.4828C63.8476 60.3543 63.854 60.2259 63.8604 60.1038C66.9072 59.9111 70.1653 59.8149 73.4617 59.8084ZM63.6491 72.3729C62.3306 73.0988 61.0824 73.9595 59.9175 74.9488C56.4354 71.4158 54.24 66.6174 54.0222 61.3179C56.1665 60.8489 58.8165 60.4956 61.7737 60.2515C61.7737 60.3286 61.7673 60.4057 61.7673 60.4828C61.7673 64.7481 62.4266 68.827 63.6491 72.3729ZM89.0921 74.9552C87.9271 73.9659 86.6789 73.1052 85.3604 72.3793C86.5766 68.84 87.2422 64.7546 87.2422 60.4892C87.2422 60.4443 87.2358 60.3929 87.2358 60.3479C90.225 60.5984 92.875 60.9389 94.9809 61.3436C94.7633 66.6367 92.5677 71.4221 89.0857 74.9551L89.0921 74.9552ZM94.9616 59.211C92.779 58.8127 90.129 58.4787 87.1782 58.2346C86.9861 54.753 86.3524 51.4449 85.3347 48.5093C86.6469 47.7898 87.8823 46.9355 89.0408 45.9591C92.4588 49.4022 94.648 54.0528 94.968 59.2109L94.9616 59.211ZM59.9688 45.9592C61.1274 46.9355 62.3627 47.7899 63.6749 48.5094C62.6635 51.4192 62.0299 54.6952 61.8378 58.1448C58.9125 58.3824 56.2627 58.7293 54.048 59.179C54.368 54.0337 56.557 49.3959 59.9688 45.9592ZM134.328 34.1334C132.664 34.1334 131.262 35.2575 130.814 36.7863H112.687C112.111 36.7863 111.644 37.2553 111.644 37.8334V51.7468H108.668C107.829 48.4387 106.523 45.2911 104.776 42.3492L107.599 39.5163C108.393 38.7198 108.828 37.6599 108.828 36.5293C108.828 35.3988 108.393 34.339 107.599 33.5424L101.358 27.2794C99.7193 25.635 97.0502 25.635 95.4052 27.2794L92.5823 30.1123C91.3085 29.3479 89.9964 28.667 88.6522 28.076V14.7342H105.737C106.191 16.263 107.586 17.3871 109.251 17.3871C111.28 17.3871 112.931 15.7299 112.931 13.6936C112.931 11.6573 111.28 10 109.251 10C107.586 10 106.185 11.1241 105.737 12.653H87.6101C87.034 12.653 86.5667 13.1219 86.5667 13.7V27.2538C85.4402 26.8427 84.2944 26.4829 83.123 26.1875V22.1856C83.123 19.8602 81.2348 17.9653 78.9176 17.9653H70.0908C67.7737 17.9653 65.8855 19.8602 65.8855 22.1856V26.1875C64.7141 26.4829 63.5683 26.8427 62.4417 27.2538V13.7C62.4417 13.1219 61.9745 12.653 61.3984 12.653H43.2719C42.8175 11.1242 41.4221 10 39.7579 10C37.7288 10 36.0774 11.6573 36.0774 13.6936C36.0774 15.7299 37.7288 17.3871 39.7579 17.3871C41.4221 17.3871 42.8175 16.263 43.2719 14.7342H60.3562V28.0695C59.0056 28.6605 57.6935 29.3478 56.4262 30.1059L53.6033 27.273C51.9647 25.6285 49.2955 25.6285 47.6505 27.273L41.4096 33.536C40.6159 34.3325 40.1807 35.3924 40.1807 36.5229C40.1807 37.6535 40.6159 38.7133 41.4096 39.5099L44.2325 42.3428C42.4787 45.2784 41.1792 48.4323 40.3408 51.7404H37.3644V37.827C37.3644 37.2489 36.8971 36.7799 36.321 36.7799H18.1945C17.7401 35.2511 16.3447 34.127 14.6805 34.127C12.6514 34.127 11 35.7842 11 37.8205C11 39.8568 12.6514 41.5141 14.6805 41.5141C16.3447 41.5141 17.7402 40.39 18.1945 38.8611H35.2788V51.7275H32.7057C28.6347 51.7275 25.3255 55.0485 25.3255 59.1339V122.02L18.8798 132.157C18.7582 132.343 18.7262 132.555 18.739 132.774C18.739 132.799 18.7198 132.825 18.7198 132.857V134.463V134.829C18.707 135.985 18.6942 137.296 19.7183 138.33C20.8769 139.499 23.0403 140 26.9578 140H121.837C125.416 140 127.56 139.512 128.789 138.413C130.082 137.264 130.082 135.709 130.082 134.457V133.3C130.107 133.268 130.139 133.255 130.159 133.217C130.344 132.883 130.325 132.472 130.12 132.15L123.674 122.008V59.1211C123.674 55.0357 120.365 51.7147 116.294 51.7147H113.721V38.8483H130.805C131.26 40.3771 132.655 41.5013 134.319 41.5013C136.349 41.5013 138 39.844 138 37.8077C138 35.7714 136.349 34.1142 134.319 34.1142L134.328 34.1334ZM109.249 12.0815C110.132 12.0815 110.849 12.8009 110.849 13.6874C110.849 14.5738 110.132 15.2933 109.249 15.2933C108.365 15.2933 107.649 14.5738 107.649 13.6874C107.649 12.8009 108.365 12.0815 109.249 12.0815ZM39.7613 15.2932C38.878 15.2932 38.1611 14.5738 38.1611 13.6873C38.1611 12.8009 38.878 12.0815 39.7613 12.0815C40.6446 12.0815 41.3615 12.8009 41.3615 13.6873C41.3615 14.5738 40.6446 15.2932 39.7613 15.2932ZM14.6821 39.4401C13.7988 39.4401 13.0819 38.7207 13.0819 37.8342C13.0819 36.9478 13.7988 36.2284 14.6821 36.2284C15.5654 36.2284 16.2823 36.9478 16.2823 37.8342C16.2823 38.7207 15.5654 39.4401 14.6821 39.4401ZM33.7115 68.198C34.4348 68.7761 35.3309 69.1423 36.3295 69.1423H40.3173C41.1558 72.4825 42.4679 75.6687 44.2346 78.6299L41.4117 81.4627C40.618 82.2593 40.1827 83.3191 40.1827 84.4497C40.1827 85.5802 40.618 86.6401 41.4117 87.4366L47.6526 93.6996C48.4719 94.5218 49.5471 94.933 50.629 94.933C51.7043 94.933 52.786 94.5218 53.6054 93.6996L56.4282 90.8668C57.702 91.6311 59.0141 92.3121 60.3583 92.9031V106.238H43.274C42.8195 104.71 41.4241 103.585 39.76 103.585C37.7309 103.585 36.0794 105.243 36.0794 107.279C36.0794 109.315 37.7309 110.973 39.76 110.973C41.4241 110.973 42.8196 109.848 43.274 108.32H61.4005C61.9765 108.32 62.4438 107.851 62.4438 107.273V93.7188C63.5704 94.1299 64.7161 94.4897 65.8875 94.7851V98.787C65.8875 101.112 67.7757 103.007 70.0929 103.007H78.9197C81.2369 103.007 83.1251 101.112 83.1251 98.787V94.7851C84.2964 94.4897 85.4422 94.1299 86.5688 93.7188V107.273C86.5688 107.851 87.0361 108.32 87.6121 108.32H105.739C106.193 109.848 107.588 110.973 109.253 110.973C111.282 110.973 112.933 109.315 112.933 107.279C112.933 105.243 111.282 103.585 109.253 103.585C107.588 103.585 106.187 104.71 105.739 106.238H88.6543V92.9031C90.0049 92.3121 91.3107 91.6248 92.5844 90.8603L95.4072 93.6932C96.2009 94.4897 97.2571 94.9265 98.3836 94.9265C99.5102 94.9265 100.566 94.4897 101.36 93.6932L107.601 87.4302C108.395 86.6337 108.83 85.5738 108.83 84.4433C108.83 83.3127 108.395 82.2529 107.601 81.4563L104.778 78.6234C106.545 75.6621 107.863 72.476 108.695 69.1359H112.683C113.675 69.1359 114.578 68.7761 115.301 68.1916V114.968L33.7091 114.974L33.7115 68.198ZM41.3606 107.286C41.3606 108.173 40.6437 108.892 39.7604 108.892C38.877 108.892 38.1601 108.173 38.1601 107.286C38.1601 106.4 38.877 105.68 39.7604 105.68C40.6437 105.68 41.3606 106.4 41.3606 107.286ZM107.648 107.286C107.648 106.4 108.365 105.68 109.248 105.68C110.131 105.68 110.848 106.4 110.848 107.286C110.848 108.173 110.131 108.892 109.248 108.892C108.365 108.892 107.648 108.173 107.648 107.286ZM42.8845 35.0215L49.1254 28.7585C49.9511 27.9299 51.3016 27.9299 52.1337 28.7585L55.5198 32.1566C55.571 32.208 55.635 32.2337 55.6862 32.2722C55.7246 32.2979 55.763 32.33 55.8078 32.3493C55.9486 32.42 56.1022 32.4649 56.2559 32.4649C56.4287 32.4649 56.5887 32.4071 56.7423 32.3236C56.7615 32.3108 56.7871 32.3172 56.8064 32.3043C58.4002 31.2958 60.0708 30.4287 61.7991 29.7093C61.7991 29.7093 61.8055 29.7093 61.8055 29.7028C63.5337 28.9834 65.3195 28.4181 67.1502 28.0005C67.1822 27.9941 67.2014 27.9748 67.2334 27.962C67.3038 27.9427 67.3614 27.9106 67.4254 27.8785C67.483 27.8463 67.5342 27.8142 67.5854 27.7693C67.6366 27.7243 67.6815 27.6793 67.7199 27.6279C67.7583 27.5766 67.7967 27.5252 67.8287 27.4674C67.8607 27.4095 67.8799 27.3517 67.8991 27.2875C67.9183 27.2168 67.9311 27.1526 67.9375 27.0819C67.9375 27.0498 67.9567 27.0241 67.9567 26.992V22.1871C67.9567 21.0116 68.9104 20.0545 70.0818 20.0545H78.9086C80.08 20.0545 81.0337 21.0116 81.0337 22.1871V26.992C81.0337 27.0241 81.0465 27.0498 81.0529 27.0819C81.0593 27.1526 81.0721 27.2233 81.0913 27.2875C81.1105 27.3517 81.1297 27.4095 81.1618 27.4674C81.1938 27.5252 81.2322 27.5766 81.2706 27.6279C81.3154 27.6793 81.3538 27.7307 81.405 27.7693C81.4562 27.8142 81.5074 27.8463 81.565 27.8785C81.629 27.9106 81.6866 27.9427 81.757 27.962C81.789 27.9748 81.8082 27.9941 81.8402 28.0005C83.6709 28.4181 85.4567 28.9833 87.185 29.7028H87.1914C88.9196 30.4223 90.5838 31.2894 92.1841 32.2979C92.2033 32.3108 92.2289 32.3043 92.2481 32.3172C92.4017 32.4007 92.5681 32.4585 92.7346 32.4585C92.8882 32.4585 93.0418 32.4135 93.1826 32.3429C93.2274 32.3236 93.2594 32.2915 93.3042 32.2658C93.3618 32.2273 93.4259 32.2016 93.4707 32.1502L96.8567 28.7521C97.6888 27.9235 99.033 27.9235 99.8651 28.7521L106.106 35.0151C106.503 35.4134 106.727 35.9529 106.727 36.5247C106.727 37.0964 106.509 37.6295 106.106 38.0342L102.72 41.4323C102.694 41.4579 102.688 41.4836 102.669 41.5093C102.624 41.5671 102.585 41.625 102.553 41.6828C102.521 41.7406 102.496 41.7984 102.477 41.8626C102.457 41.9269 102.445 41.9911 102.438 42.0554C102.432 42.1196 102.425 42.1838 102.432 42.2545C102.438 42.3187 102.451 42.3829 102.47 42.4472C102.489 42.5178 102.515 42.5821 102.547 42.6463C102.56 42.672 102.56 42.7041 102.579 42.7298C104.595 45.9352 106.036 49.4232 106.868 53.1103C106.874 53.1489 106.9 53.1746 106.906 53.2067C106.925 53.2581 106.944 53.303 106.964 53.3544C107.002 53.4251 107.04 53.4829 107.092 53.5471C107.124 53.5857 107.149 53.6178 107.188 53.6563C107.252 53.7141 107.322 53.7527 107.393 53.7976C107.431 53.8169 107.463 53.8426 107.501 53.8555C107.623 53.9004 107.745 53.9325 107.879 53.9325H112.661C113.832 53.9325 114.786 54.8897 114.786 56.0652V64.9233C114.786 66.0988 113.832 67.056 112.661 67.056H107.873C107.841 67.056 107.815 67.0688 107.783 67.0752C107.713 67.0817 107.649 67.0945 107.578 67.1138C107.514 67.133 107.45 67.1523 107.393 67.1844C107.335 67.2166 107.284 67.2487 107.233 67.2936C107.181 67.3386 107.13 67.3771 107.085 67.4285C107.041 67.4799 107.008 67.5313 106.976 67.5891C106.938 67.6534 106.912 67.7112 106.887 67.7818C106.874 67.8139 106.855 67.8332 106.848 67.8653C106.016 71.5525 104.576 75.0405 102.56 78.2458C102.541 78.2715 102.541 78.3036 102.528 78.3293C102.496 78.3936 102.47 78.4578 102.451 78.5285C102.432 78.5927 102.419 78.6569 102.413 78.7212C102.406 78.7854 102.413 78.8496 102.419 78.9203C102.425 78.9845 102.438 79.0488 102.457 79.113C102.477 79.1772 102.502 79.2286 102.534 79.2865C102.566 79.3507 102.605 79.4085 102.649 79.4663C102.669 79.492 102.675 79.5177 102.701 79.5434L106.087 82.9415C106.919 83.7701 106.919 85.1254 106.087 85.9605L99.8459 92.2235C99.449 92.6217 98.9114 92.8466 98.3417 92.8466C97.772 92.8466 97.2407 92.6282 96.8375 92.2235L93.4514 88.8254C93.4258 88.7997 93.4002 88.7933 93.3746 88.774C93.317 88.7291 93.2594 88.6905 93.2018 88.6584C93.1442 88.6263 93.0866 88.6006 93.0225 88.5813C92.9585 88.562 92.8945 88.5492 92.8305 88.5428C92.7665 88.5364 92.7025 88.5299 92.6321 88.5364C92.5681 88.5428 92.5041 88.5556 92.4401 88.5749C92.3697 88.5942 92.3056 88.6199 92.2416 88.652C92.216 88.6648 92.184 88.6648 92.1584 88.6841C90.5646 89.6926 88.894 90.5597 87.1721 91.2792C87.1657 91.2792 87.1657 91.2792 87.1593 91.2856C85.431 92.005 83.6453 92.5703 81.8146 92.9879C81.7826 92.9943 81.7634 93.0136 81.7314 93.0265C81.661 93.0457 81.6034 93.0779 81.5393 93.11C81.4817 93.1421 81.4305 93.1742 81.3793 93.2192C81.3281 93.2641 81.2833 93.3091 81.2449 93.3605C81.2001 93.4119 81.1681 93.4633 81.1361 93.5275C81.1041 93.5853 81.0849 93.6431 81.0657 93.7074C81.0465 93.778 81.0273 93.8423 81.0273 93.9129C81.0273 93.945 81.0081 93.9707 81.0081 94.0029V98.8077C81.0081 99.9832 80.0543 100.94 78.8829 100.94H70.0562C68.8848 100.94 67.931 99.9833 67.931 98.8077V94.0029C67.931 93.9707 67.9182 93.945 67.9118 93.9129C67.9054 93.8423 67.8926 93.7716 67.8734 93.7074C67.8542 93.6431 67.835 93.5853 67.803 93.5275C67.771 93.4697 67.7326 93.4183 67.6942 93.3605C67.6494 93.3091 67.611 93.2577 67.5598 93.2192C67.5086 93.1742 67.4574 93.1421 67.3997 93.11C67.3357 93.0779 67.2781 93.0457 67.2077 93.0265C67.1757 93.0136 67.1565 92.9943 67.1245 92.9879C65.2938 92.5704 63.5081 92.0051 61.7798 91.2856C61.7798 91.2856 61.7734 91.2856 61.7734 91.2792C60.0452 90.5597 58.381 89.6926 56.7807 88.6841C56.7551 88.6648 56.7231 88.6648 56.6911 88.652C56.6271 88.6199 56.5631 88.5942 56.4926 88.5749C56.4286 88.5556 56.371 88.5428 56.3006 88.5364C56.2366 88.5299 56.1726 88.5364 56.1022 88.5428C56.0382 88.5492 55.9742 88.562 55.9102 88.5813C55.8462 88.6006 55.7885 88.6263 55.7309 88.6584C55.6669 88.6905 55.6093 88.7291 55.5581 88.774C55.5325 88.7933 55.5069 88.7997 55.4813 88.8254L52.0952 92.2235C51.2631 93.0585 49.919 93.0585 49.0869 92.2235L42.846 85.9605C42.4492 85.5622 42.2251 85.0226 42.2251 84.4509C42.2251 83.8792 42.4428 83.3461 42.846 82.9414L46.2321 79.5433C46.2577 79.5176 46.2641 79.492 46.2833 79.4663C46.3281 79.4084 46.3665 79.3506 46.3985 79.2864C46.4305 79.2286 46.4561 79.1708 46.4753 79.1065C46.4945 79.0423 46.5073 78.9781 46.5137 78.9138C46.5201 78.8496 46.5265 78.7853 46.5201 78.7147C46.5137 78.6505 46.5009 78.5862 46.4817 78.522C46.4625 78.4513 46.4369 78.3871 46.4049 78.3229C46.3921 78.2972 46.3921 78.265 46.3729 78.2393C44.3566 75.034 42.9164 71.546 42.0843 67.8589C42.0779 67.8267 42.0587 67.8075 42.0459 67.7753C42.0267 67.7047 41.9947 67.6469 41.9563 67.5826C41.9243 67.5248 41.8923 67.4734 41.8475 67.4221C41.8027 67.3707 41.7578 67.3257 41.7066 67.2872C41.6554 67.2422 41.6042 67.2101 41.5402 67.1779C41.4826 67.1458 41.425 67.1266 41.361 67.1073C41.2906 67.088 41.2266 67.0688 41.1498 67.0623C41.1178 67.0623 41.0922 67.0431 41.0602 67.0431H36.2723C35.1009 67.0431 34.1471 66.0859 34.1471 64.9104V56.0523C34.1471 54.8768 35.1009 53.9196 36.2723 53.9196H41.0538C41.1882 53.9196 41.3098 53.8875 41.4314 53.8426C41.4698 53.8297 41.5018 53.804 41.5402 53.7847C41.6106 53.7462 41.6811 53.7012 41.7451 53.6434C41.7835 53.6113 41.8091 53.5728 41.8411 53.5406C41.8923 53.4828 41.9307 53.4186 41.9691 53.3479C41.9947 53.303 42.0139 53.2516 42.0267 53.2066C42.0395 53.1745 42.0587 53.1424 42.0651 53.1103C42.8972 49.4231 44.3374 45.9351 46.3537 42.7298C46.3729 42.7041 46.3729 42.672 46.3857 42.6463C46.4177 42.582 46.4433 42.5178 46.4625 42.4471C46.4817 42.3829 46.4945 42.3187 46.5009 42.2544C46.5073 42.1902 46.5009 42.1259 46.4945 42.0553C46.4881 41.9911 46.4753 41.9268 46.4561 41.8626C46.4369 41.7984 46.4113 41.7405 46.3793 41.6827C46.3473 41.6185 46.3089 41.5607 46.2641 41.5093C46.2449 41.4836 46.2385 41.4579 46.2129 41.4322L42.8268 38.0341C41.9947 37.2055 41.9947 35.8502 42.8268 35.0151L42.8845 35.0215ZM127.408 136.875C126.621 137.575 124.752 137.934 121.846 137.934H26.9661C23.8296 137.934 21.8965 137.581 21.2053 136.881C20.8149 136.483 20.7957 135.885 20.8085 134.87V134.485V133.785H128.004V134.485C128.004 135.648 127.966 136.386 127.415 136.881L127.408 136.875ZM66.7281 131.697L68.4179 129.481H80.4003L82.1861 131.697H66.7281ZM84.8611 131.697L81.7055 127.779C81.5071 127.535 81.2126 127.393 80.899 127.393H67.9052C67.5787 127.393 67.2779 127.548 67.0794 127.805L64.1158 131.704H21.6656L26.9464 123.398H122.07L127.351 131.704H84.8615L84.8611 131.697ZM121.596 59.1497V121.298H27.4126V59.1497C27.4126 56.214 29.7873 53.8309 32.7126 53.8309H32.7638C32.3605 54.4797 32.1173 55.2377 32.1173 56.0599V59.6251C31.8292 59.8114 31.6308 60.1197 31.6308 60.4858V116.018C31.6308 116.597 32.0981 117.065 32.6742 117.065H116.341C116.917 117.065 117.384 116.597 117.384 116.018V60.4858C117.384 60.1197 117.179 59.8114 116.898 59.6251V56.0599C116.898 55.2377 116.654 54.4797 116.251 53.8309H116.302C119.228 53.8309 121.602 56.214 121.602 59.1497H121.596ZM134.327 39.4428C133.444 39.4428 132.727 38.7233 132.727 37.8369C132.727 36.9504 133.444 36.231 134.327 36.231C135.21 36.231 135.927 36.9504 135.927 37.8369C135.927 38.7233 135.21 39.4428 134.327 39.4428Z" stroke="#663366" stroke-width="0.5" mask="url(#path-1-outside-1_105_1214)"/>
</svg>
