<svg width="150" height="150" viewBox="0 0 150 150" fill="none" xmlns="http://www.w3.org/2000/svg">
<path d="M37.666 56.3359V58.6692" stroke="#663366" stroke-width="4.22534" stroke-miterlimit="10" stroke-linecap="round" stroke-linejoin="round"/>
<path d="M56.334 56.3359V58.6692" stroke="#663366" stroke-width="4.22534" stroke-miterlimit="10" stroke-linecap="round" stroke-linejoin="round"/>
<path d="M51.0395 68.0003C50.2316 69.3941 48.7229 70.3335 46.9993 70.3335C45.2756 70.3335 43.7672 69.3941 42.959 68" stroke="#663366" stroke-width="4.22534" stroke-miterlimit="10" stroke-linecap="round" stroke-linejoin="round"/>
<path d="M23.6672 67.9975H21.334C17.4681 67.9975 14.334 64.8635 14.334 60.9976V56.3308C14.334 53.7534 16.4233 51.6641 19.0007 51.6641H23.6675L23.6672 67.9975Z" stroke="#663366" stroke-width="4.22534" stroke-miterlimit="10" stroke-linecap="round" stroke-linejoin="round"/>
<path d="M70.3323 67.9975H72.6655C76.5314 67.9975 79.6655 64.8635 79.6655 60.9976V56.3308C79.6655 53.7534 77.5762 51.6641 74.9988 51.6641H70.332V67.9975H70.3323Z" stroke="#663366" stroke-width="4.22534" stroke-miterlimit="10" stroke-linecap="round" stroke-linejoin="round"/>
<path d="M31.2325 33.1708C26.9229 33.997 23.666 37.7846 23.666 42.3347V68.0014C23.666 80.8878 34.1127 91.3346 46.9992 91.3346C59.8859 91.3346 70.3323 80.8878 70.3323 68.0014V42.3347C70.3323 37.7711 67.056 33.975 62.7278 33.1641" stroke="#663366" stroke-width="4.22534" stroke-miterlimit="10" stroke-linecap="round" stroke-linejoin="round"/>
<path d="M60.9816 28.3359C62.5159 31.4049 63.3148 34.7889 63.3148 38.2201V40.0027C63.3148 41.2914 62.2703 42.3359 60.9816 42.3359H32.9817C31.6929 42.3359 30.6484 41.2914 30.6484 40.0027V38.2201C30.6484 34.7889 31.4473 31.4049 32.9817 28.3359" stroke="#663366" stroke-width="4.22534" stroke-miterlimit="10" stroke-linecap="round" stroke-linejoin="round"/>
<path d="M39.9805 37.6719V42.3383" stroke="#663366" stroke-width="4.22534" stroke-miterlimit="10" stroke-linecap="round" stroke-linejoin="round"/>
<path d="M53.9805 37.6719V42.3383" stroke="#663366" stroke-width="4.22534" stroke-miterlimit="10" stroke-linecap="round" stroke-linejoin="round"/>
<path d="M63.0199 16.3557C61.577 9.88871 54.9469 5 46.9816 5C39.016 5 32.3859 9.88871 30.9434 16.356" stroke="#663366" stroke-width="4.22534" stroke-miterlimit="10" stroke-linecap="round" stroke-linejoin="round"/>
<path d="M75.3581 51.6828C75.9967 49.6792 77.8395 43.0708 77.1714 35.3359C75.9731 21.4627 68.3044 14.3359 46.9819 14.3359H46.9816C25.6592 14.3359 17.9902 21.4627 16.7922 35.3359C16.1237 43.0741 17.9685 49.6851 18.6062 51.6854" stroke="#663366" stroke-width="4.22534" stroke-miterlimit="10" stroke-linecap="round" stroke-linejoin="round"/>
<path d="M5.24805 135.664H18.566" stroke="#663366" stroke-width="4.22534" stroke-miterlimit="10" stroke-linecap="round" stroke-linejoin="round"/>
<path d="M75.4199 135.664H88.7514" stroke="#663366" stroke-width="4.22534" stroke-miterlimit="10" stroke-linecap="round" stroke-linejoin="round"/>
<path d="M21.3324 124C18.3775 128.415 17.6347 133.95 19.3206 138.988L21.3324 145" stroke="#663366" stroke-width="4.22534" stroke-miterlimit="10" stroke-linecap="round" stroke-linejoin="round"/>
<path d="M72.666 124L72.69 124.036C75.6091 128.432 76.3429 133.926 74.6804 138.934L72.6663 145" stroke="#663366" stroke-width="4.22534" stroke-miterlimit="10" stroke-linecap="round" stroke-linejoin="round"/>
<path d="M56.3327 89.3909V95.9993L50.2992 102.033C48.4767 103.855 45.522 103.855 43.6995 102.033L37.666 95.9993V89.3906" stroke="#663366" stroke-width="4.22534" stroke-miterlimit="10" stroke-linecap="round" stroke-linejoin="round"/>
<path d="M27.5488 99.0859L40.3995 111.937C44.0443 115.581 49.9538 115.581 53.5989 111.937L66.4495 99.0859" stroke="#663366" stroke-width="4.22534" stroke-miterlimit="10" stroke-linecap="round" stroke-linejoin="round"/>
<path d="M30.6244 145H9.66674C7.08929 145 5 142.911 5 140.333V119.785C5 111.571 10.369 104.322 18.2261 101.928L37.6847 96" stroke="#663366" stroke-width="4.22534" stroke-miterlimit="10" stroke-linecap="round" stroke-linejoin="round"/>
<path d="M56.3503 96L75.7724 101.917C83.6296 104.311 88.9986 111.56 88.9986 119.774V140.333C88.9986 142.911 86.9093 145 84.3318 145H40.4824" stroke="#663366" stroke-width="4.22534" stroke-miterlimit="10" stroke-linecap="round" stroke-linejoin="round"/>
<path d="M111.146 79.6641H122.813" stroke="#663366" stroke-width="4.22534" stroke-miterlimit="10" stroke-linecap="round" stroke-linejoin="round"/>
<path d="M122.813 14.3332V7.33323C122.813 6.0445 121.768 5 120.48 5H113.48C112.191 5 111.146 6.04478 111.146 7.33323V14.3332H122.813Z" stroke="#663366" stroke-width="4.22534" stroke-miterlimit="10" stroke-linecap="round" stroke-linejoin="round"/>
<path d="M111.147 97.4322V142.669C111.147 143.958 112.191 145.002 113.48 145.002H120.48C121.769 145.002 122.813 143.958 122.813 142.669V70.3359H111.146V87.5731" stroke="#663366" stroke-width="4.22534" stroke-miterlimit="10" stroke-linecap="round" stroke-linejoin="round"/>
<path d="M140.314 70.3357H93.6472C91.0698 70.3357 88.9805 68.2464 88.9805 65.669V19.0027C88.9805 16.4255 91.0698 14.3359 93.6472 14.3359H140.314C142.891 14.3359 144.981 16.4252 144.981 19.0027V65.6693C144.981 68.2464 142.891 70.3357 140.314 70.3357Z" stroke="#663366" stroke-width="4.22534" stroke-miterlimit="10" stroke-linecap="round" stroke-linejoin="round"/>
<path d="M133.313 51.6715H100.646V30.2713C100.646 29.0335 101.138 27.8465 102.013 26.9716L103.946 25.0386C104.821 24.1634 106.008 23.6719 107.246 23.6719H126.713C127.951 23.6719 129.138 24.1634 130.013 25.0386L131.946 26.9716C132.821 27.8468 133.313 29.0338 133.313 30.2713V51.6715H133.313Z" stroke="#663366" stroke-width="4.22534" stroke-miterlimit="10" stroke-linecap="round" stroke-linejoin="round"/>
<path d="M109.98 51.6719H100.646V58.6718C100.646 59.9606 101.691 61.0051 102.98 61.0051H107.646C108.935 61.0051 109.98 59.9603 109.98 58.6718V51.6719Z" stroke="#663366" stroke-width="4.22534" stroke-miterlimit="10" stroke-linecap="round" stroke-linejoin="round"/>
<path d="M133.314 51.6719H123.98V58.6718C123.98 59.9606 125.025 61.0051 126.314 61.0051H130.98C132.269 61.0051 133.314 59.9603 133.314 58.6718V51.6719Z" stroke="#663366" stroke-width="4.22534" stroke-miterlimit="10" stroke-linecap="round" stroke-linejoin="round"/>
<path d="M100.646 40H133.313" stroke="#663366" stroke-width="4.22534" stroke-miterlimit="10" stroke-linecap="round" stroke-linejoin="round"/>
</svg>
