<svg width="150" height="150" viewBox="0 0 150 150" fill="none" xmlns="http://www.w3.org/2000/svg">
<path d="M128.383 58.1915C128.383 91.1606 75.1915 145 75.1915 145C75.1915 145 22 91.1606 22 58.1915C22 28.8147 45.8147 5 75.1915 5C104.568 5 128.383 28.8147 128.383 58.1915Z" stroke="#663366" stroke-width="4.3" stroke-miterlimit="10"/>
<path d="M58.806 75.0064C63.6791 75.0064 67.6295 71.056 67.6295 66.1829C67.6295 61.3098 63.6791 57.3594 58.806 57.3594C53.9329 57.3594 49.9824 61.3098 49.9824 66.1829C49.9824 71.056 53.9329 75.0064 58.806 75.0064Z" stroke="#663366" stroke-width="4.3" stroke-miterlimit="10"/>
<path d="M65.0459 59.9439L91.4585 33.5312L100.401 42.4742" stroke="#663366" stroke-width="4.3" stroke-miterlimit="10"/>
<path d="M78.9795 46.0078L87.9224 54.9508" stroke="#663366" stroke-width="4.3" stroke-miterlimit="10"/>
</svg>
