<svg width="150" height="150" viewBox="0 0 150 150" fill="none" xmlns="http://www.w3.org/2000/svg">
<path d="M79.8698 126.339V140.625C79.8698 143.039 77.9123 145 75.4955 145C73.0786 145 71.1211 143.039 71.1211 140.625V101.254" stroke="#663366" stroke-width="4.22534" stroke-miterlimit="10" stroke-linecap="round" stroke-linejoin="round"/>
<path d="M79.8701 117.132V101.254" stroke="#663366" stroke-width="4.22534" stroke-miterlimit="10" stroke-linecap="round" stroke-linejoin="round"/>
<path d="M71.1211 92.5031V65.9336" stroke="#663366" stroke-width="4.22534" stroke-miterlimit="10" stroke-linecap="round" stroke-linejoin="round"/>
<path d="M79.8701 92.5031V65.9336" stroke="#663366" stroke-width="4.22534" stroke-miterlimit="10" stroke-linecap="round" stroke-linejoin="round"/>
<path d="M62.8909 53.5017C66.454 56.0198 70.803 57.4986 75.4954 57.4986C87.5762 57.4986 97.3697 47.7051 97.3697 35.6243C97.3697 23.5435 87.5762 13.75 75.4954 13.75C63.4146 13.75 53.6211 23.5435 53.6211 35.6243C53.6211 39.6522 54.7112 43.4266 56.6124 46.6685" stroke="#663366" stroke-width="4.22534" stroke-miterlimit="10" stroke-linecap="round" stroke-linejoin="round"/>
<path d="M77.2637 21.7086L79.9375 27.1263C80.2248 27.7083 80.7797 28.1117 81.422 28.2049L87.4009 29.0737C89.018 29.3086 89.6637 31.2959 88.4935 32.4367L84.1671 36.6539C83.7023 37.1069 83.4904 37.7595 83.6 38.399L84.6214 44.3539C84.8978 45.9646 83.2071 47.1928 81.7606 46.4325L76.4127 43.6209C75.8383 43.319 75.1521 43.319 74.5778 43.6209L69.2299 46.4325C67.7834 47.193 66.0927 45.9646 66.3691 44.3539L67.3905 38.399C67.5001 37.7593 67.2882 37.1069 66.8234 36.6539L62.497 32.4367C61.3268 31.2962 61.9725 29.3086 63.5896 29.0737L69.5685 28.2049C70.2107 28.1117 70.766 27.7083 71.053 27.1263L73.7268 21.7086C74.4507 20.243 76.5403 20.243 77.2637 21.7086Z" stroke="#663366" stroke-width="4.22534" stroke-miterlimit="10" stroke-linecap="round" stroke-linejoin="round"/>
<path d="M77.2637 21.7086L79.9375 27.1263C80.2248 27.7083 80.7797 28.1117 81.422 28.2049L87.4009 29.0737C89.018 29.3086 89.6637 31.2959 88.4935 32.4367L84.1671 36.6539C83.7023 37.1069 83.4904 37.7595 83.6 38.399L84.6214 44.3539C84.8978 45.9646 83.2071 47.1928 81.7606 46.4325L76.4127 43.6209C75.8383 43.319 75.1521 43.319 74.5778 43.6209L69.2299 46.4325C67.7834 47.193 66.0927 45.9646 66.3691 44.3539L67.3905 38.399C67.5001 37.7593 67.2882 37.1069 66.8234 36.6539L62.497 32.4367C61.3268 31.2962 61.9725 29.3086 63.5896 29.0737L69.5685 28.2049C70.2107 28.1117 70.766 27.7083 71.053 27.1263L73.7268 21.7086C74.4507 20.243 76.5403 20.243 77.2637 21.7086Z" stroke="#663366" stroke-width="4.22534" stroke-miterlimit="10" stroke-linecap="round" stroke-linejoin="round"/>
<path d="M53.623 110.004V118.753H62.372V127.502H53.623V136.251H71.1213V110.004H53.623Z" stroke="#663366" stroke-width="4.22534" stroke-miterlimit="10" stroke-linecap="round" stroke-linejoin="round"/>
<path d="M79.87 101.253H71.1207C68.7047 101.253 66.7461 99.2946 66.7461 96.8785C66.7461 94.4625 68.7047 92.5039 71.1207 92.5039H79.87C82.2861 92.5039 84.2446 94.4625 84.2446 96.8785C84.2446 99.2946 82.2861 101.253 79.87 101.253Z" stroke="#663366" stroke-width="4.22534" stroke-miterlimit="10" stroke-linecap="round" stroke-linejoin="round"/>
<path d="M104.471 25.6912C105.538 28.8064 106.119 32.147 106.119 35.6227C106.119 52.534 92.407 66.2455 75.4958 66.2455C58.5846 66.2455 44.873 52.534 44.873 35.6227C44.873 18.7115 58.5843 5 75.4955 5C85.613 5 94.5842 9.90675 100.158 17.4693" stroke="#663366" stroke-width="4.22534" stroke-miterlimit="10" stroke-linecap="round" stroke-linejoin="round"/>
<path d="M119.242 35.625H127.991" stroke="#663366" stroke-width="4.22534" stroke-miterlimit="10" stroke-linecap="round" stroke-linejoin="round"/>
<path d="M31.7493 35.6328H23" stroke="#663366" stroke-width="4.22534" stroke-miterlimit="10" stroke-linecap="round" stroke-linejoin="round"/>
<path d="M113.378 13.7494L120.955 9.375" stroke="#663366" stroke-width="4.22534" stroke-miterlimit="10" stroke-linecap="round" stroke-linejoin="round"/>
<path d="M37.613 57.5078L30.0361 61.8825" stroke="#663366" stroke-width="4.22534" stroke-miterlimit="10" stroke-linecap="round" stroke-linejoin="round"/>
<path d="M113.384 57.4961L120.961 61.8707" stroke="#663366" stroke-width="4.22534" stroke-miterlimit="10" stroke-linecap="round" stroke-linejoin="round"/>
<path d="M37.6081 13.7614L30.0312 9.38672" stroke="#663366" stroke-width="4.22534" stroke-miterlimit="10" stroke-linecap="round" stroke-linejoin="round"/>
</svg>
