<svg width="150" height="150" viewBox="0 0 150 150" fill="none" xmlns="http://www.w3.org/2000/svg">
<mask id="path-1-outside-1_105_1185" maskUnits="userSpaceOnUse" x="9" y="9" width="132" height="132" fill="black">
<rect fill="white" x="9" y="9" width="132" height="132"/>
<path fill-rule="evenodd" clip-rule="evenodd" d="M44.3315 113.877H128.103C133.189 113.877 137.354 109.711 137.354 104.624C137.354 99.5375 133.189 95.3771 128.103 95.3771H21.907C16.8209 95.3771 12.6557 99.5429 12.6557 104.624C12.6557 109.711 16.8209 113.877 21.907 113.877H44.3315ZM69.0299 57.8472H71.5486V41.72C69.7232 41.72 68.2608 41.9475 66.9066 40.5986C64.4908 38.1826 66.235 34.071 69.6094 34.071C70.9635 34.071 71.9872 34.098 73.0814 35.1923C74.3001 36.4112 74.2026 37.5814 74.2026 39.0657H76.7592C76.7592 37.5814 76.6617 36.4112 77.8804 35.1923C78.9746 34.098 79.9982 34.071 81.3524 34.071C84.7269 34.071 86.4709 38.1826 84.0552 40.5986C82.7065 41.9475 81.2603 41.72 79.4512 41.72V57.8472H81.932C82.9449 55.2415 84.4615 52.3324 86.6443 50.2686C93.3444 43.9358 93.5015 33.3773 86.9964 26.8717C80.632 20.5066 70.3139 20.5066 63.9549 26.8717C57.4335 33.394 57.623 43.8546 64.3178 50.2741C66.5656 52.4302 67.99 55.1548 69.0299 57.8472ZM74.1973 57.8472V41.72H76.7918V57.8472H74.1973ZM84.7649 57.9068C87.7547 58.4539 88.9735 62.1647 86.7798 64.3586C86.1677 64.9708 85.3444 65.377 84.4344 65.4637C85.1278 67.5764 83.8549 69.8245 81.7208 70.35C82.6037 72.8202 80.7567 75.4422 78.1242 75.4422H72.8377C70.2054 75.4422 68.3583 72.8203 69.2411 70.35C67.107 69.8191 65.8342 67.5764 66.5275 65.4637C63.348 65.1712 61.8801 61.2654 64.1822 58.9631C64.7184 58.4268 65.4226 58.0421 66.2025 57.9013C65.3413 55.8535 64.1822 53.8005 62.4922 52.1807C54.7466 44.7537 54.4975 32.5865 62.0859 24.9924C69.4848 17.5925 81.482 17.5925 88.881 24.9924C96.4369 32.5494 96.2636 44.7766 88.4639 52.1918C86.8173 53.7736 85.6099 55.9186 84.7649 57.9068ZM84.0824 60.5016H83.5895C83.362 60.6912 83.0641 60.805 82.7445 60.805H68.2169C67.9082 60.805 67.6103 60.6966 67.3773 60.5016H66.879C65.8661 60.5016 65.3137 61.7422 66.0557 62.4897C66.267 62.701 66.5594 62.831 66.879 62.831H84.0814C85.0943 62.831 85.6468 61.5905 84.9047 60.8429C84.6881 60.6316 84.402 60.5016 84.0824 60.5016ZM87.576 18.9141L89.3039 15.6366C89.6451 14.992 89.3959 14.1902 88.7514 13.8489C88.1068 13.5076 87.3051 13.7568 86.9639 14.4015L85.236 17.6789C84.8948 18.3235 85.1439 19.1253 85.7885 19.4666C86.4331 19.8079 87.2347 19.5587 87.576 18.9141ZM65.7256 17.679L63.9978 14.4015C63.6565 13.7569 62.8549 13.5077 62.2103 13.849C61.5657 14.1902 61.3166 14.992 61.6578 15.6367L63.3857 18.9141C63.7269 19.5588 64.5285 19.808 65.1731 19.4667C65.8177 19.1254 66.0669 18.3291 65.7256 17.679ZM76.8078 15.0949C76.8078 16.8392 74.1536 16.8392 74.1536 15.0949V11.3082C74.1536 9.56392 76.8078 9.56392 76.8078 11.3082V15.0949ZM70.373 36.7208C70.6926 36.7208 70.9851 36.8562 71.2018 37.0675C71.673 37.5388 71.5484 38.2538 71.5484 39.0664H69.6094C68.5911 39.0664 68.0332 37.815 68.7806 37.0675C69.214 36.6341 69.7339 36.7208 70.373 36.7208ZM81.3469 36.7208C81.6665 36.7208 81.9589 36.8562 82.1756 37.0675C82.9231 37.815 82.3706 39.0664 81.3469 39.0664H79.4078C79.4078 38.2593 79.2778 37.5441 79.7545 37.0675C80.1932 36.6341 80.7078 36.7208 81.3469 36.7208ZM72.8376 70.4645C71.8247 70.4645 71.2723 71.7051 72.0143 72.4527C72.2255 72.6639 72.518 72.7939 72.8376 72.7939H78.1241C79.137 72.7939 79.6895 71.5534 78.9474 70.8058C78.7362 70.5946 78.4437 70.4645 78.1241 70.4645H72.8376ZM80.8053 65.4806H70.1564C69.1436 65.4806 68.5911 66.7212 69.3331 67.4688C69.5444 67.68 69.8369 67.81 70.1564 67.81H80.8053C81.8181 67.81 82.3706 66.5695 81.6286 65.8219C81.4119 65.6161 81.1248 65.4806 80.8053 65.4806ZM95.1041 28.1728C94.4866 28.5628 93.6687 28.3786 93.2787 27.7557C92.8888 27.1381 93.0729 26.32 93.6958 25.9301L96.6912 24.0394C97.3087 23.6494 98.1266 23.8336 98.5165 24.4566C98.9065 25.0741 98.7224 25.8922 98.0995 26.2821L95.1041 28.1728ZM56.3106 25.9354L53.3152 24.0448C52.6978 23.6548 51.8798 23.839 51.4899 24.4619C51.0999 25.0795 51.2841 25.8976 51.907 26.2875L54.9023 28.1782C55.5198 28.5682 56.3378 28.384 56.7277 27.761C57.1176 27.1381 56.9281 26.32 56.3106 25.9354ZM103.081 67.9515H110.789C110.919 67.9515 111.038 67.9678 111.157 68.0057H123.588C124.319 68.0057 124.915 68.6016 124.915 69.3329V92.7242H128.1C134.649 92.7242 140 98.0764 140 104.626C140 111.175 134.648 116.533 128.1 116.533L107.496 116.527L110.123 124.675H119.716C123.93 124.675 127.375 128.12 127.375 132.335V138.667C127.375 139.399 126.779 139.995 126.048 139.995L23.9522 140C23.221 140 22.6252 139.404 22.6252 138.673V132.34C22.6252 128.125 26.0701 124.68 30.284 124.68H39.8767L42.5036 116.533L21.9054 116.527C15.3568 116.527 10 111.175 10 104.62C10 98.0708 15.3515 92.7187 21.9054 92.7187H25.0903V69.333C25.0903 68.6017 25.6861 68.0058 26.4173 68.0058H38.8481C38.9673 67.9733 39.0919 67.9516 39.2164 67.9516H46.9241C47.0541 67.9516 47.1733 67.9679 47.2924 68.0058H59.7232C60.4544 68.0058 61.0502 68.6017 61.0502 69.333V92.7243H88.9559V69.333C88.9559 68.6017 89.5518 68.0058 90.283 68.0058H102.714C102.827 67.9679 102.951 67.9515 103.081 67.9515ZM112.116 70.6547V80.1781C112.116 80.9095 111.52 81.5054 110.789 81.5054L103.081 81.5108C102.35 81.5108 101.754 80.9149 101.754 80.1836V70.6601H91.6092V92.7242H122.26V70.6545L112.116 70.6547ZM104.408 70.6547V78.8564H109.462V70.6547H104.408ZM48.2502 70.6547V80.1781C48.2502 80.9095 47.6544 81.5054 46.9232 81.5054H39.2155C38.4843 81.5054 37.8885 80.9095 37.8885 80.1781V70.6547H27.7434V92.7188H58.3946V70.6547H48.2502ZM40.5425 70.6547V78.8564H45.5961V70.6547H40.5425ZM119.716 127.335H30.2899C27.5383 127.335 25.285 129.594 25.285 132.34V137.346H124.726V132.34C124.726 129.588 122.467 127.335 119.716 127.335ZM28.1711 98.266C33.7988 95.9854 39.4428 101.668 37.0596 107.291C34.6763 112.925 26.6708 112.822 24.3905 107.199C22.9714 103.699 24.6666 99.6907 28.1711 98.266ZM32.3906 100.747C34.5247 101.652 35.5267 104.133 34.6276 106.267C33.1868 109.675 28.2687 109.707 26.8495 106.208C25.4359 102.724 28.9619 99.2953 32.3906 100.747ZM58.8015 100.704C59.8686 100.287 60.9952 100.335 61.9702 100.747C65.3772 102.188 65.4098 107.107 61.9107 108.526C58.4279 109.94 54.9992 106.408 56.4509 102.984C56.9275 101.852 57.6641 101.229 58.8015 100.704ZM57.7508 98.2661C63.3785 95.9854 69.0224 101.668 66.6393 107.297C64.2505 112.936 56.245 112.822 53.9701 107.204C52.5347 103.656 54.3383 99.5824 57.7508 98.2661ZM87.3301 98.2661C92.9579 95.9854 98.6018 101.663 96.2186 107.291C93.8299 112.93 85.8244 112.817 83.5495 107.199C82.1304 103.7 83.8256 99.6907 87.3301 98.2661ZM91.5496 100.747C93.6838 101.652 94.6911 104.133 93.7866 106.267C92.3404 109.686 87.4223 109.697 86.0085 106.208C84.5949 102.725 88.1209 99.2953 91.5496 100.747ZM116.91 98.2661C122.532 95.9854 128.181 101.663 125.798 107.291C123.409 112.93 115.404 112.817 113.129 107.199C111.71 103.7 113.405 99.6907 116.91 98.2661ZM121.129 100.747C123.263 101.652 124.271 104.133 123.366 106.267C121.92 109.686 117.002 109.697 115.588 106.208C114.174 102.725 117.7 99.2953 121.129 100.747ZM104.717 116.533H45.2878L42.6609 124.681H107.344L104.717 116.533Z"/>
</mask>
<path fill-rule="evenodd" clip-rule="evenodd" d="M44.3315 113.877H128.103C133.189 113.877 137.354 109.711 137.354 104.624C137.354 99.5375 133.189 95.3771 128.103 95.3771H21.907C16.8209 95.3771 12.6557 99.5429 12.6557 104.624C12.6557 109.711 16.8209 113.877 21.907 113.877H44.3315ZM69.0299 57.8472H71.5486V41.72C69.7232 41.72 68.2608 41.9475 66.9066 40.5986C64.4908 38.1826 66.235 34.071 69.6094 34.071C70.9635 34.071 71.9872 34.098 73.0814 35.1923C74.3001 36.4112 74.2026 37.5814 74.2026 39.0657H76.7592C76.7592 37.5814 76.6617 36.4112 77.8804 35.1923C78.9746 34.098 79.9982 34.071 81.3524 34.071C84.7269 34.071 86.4709 38.1826 84.0552 40.5986C82.7065 41.9475 81.2603 41.72 79.4512 41.72V57.8472H81.932C82.9449 55.2415 84.4615 52.3324 86.6443 50.2686C93.3444 43.9358 93.5015 33.3773 86.9964 26.8717C80.632 20.5066 70.3139 20.5066 63.9549 26.8717C57.4335 33.394 57.623 43.8546 64.3178 50.2741C66.5656 52.4302 67.99 55.1548 69.0299 57.8472ZM74.1973 57.8472V41.72H76.7918V57.8472H74.1973ZM84.7649 57.9068C87.7547 58.4539 88.9735 62.1647 86.7798 64.3586C86.1677 64.9708 85.3444 65.377 84.4344 65.4637C85.1278 67.5764 83.8549 69.8245 81.7208 70.35C82.6037 72.8202 80.7567 75.4422 78.1242 75.4422H72.8377C70.2054 75.4422 68.3583 72.8203 69.2411 70.35C67.107 69.8191 65.8342 67.5764 66.5275 65.4637C63.348 65.1712 61.8801 61.2654 64.1822 58.9631C64.7184 58.4268 65.4226 58.0421 66.2025 57.9013C65.3413 55.8535 64.1822 53.8005 62.4922 52.1807C54.7466 44.7537 54.4975 32.5865 62.0859 24.9924C69.4848 17.5925 81.482 17.5925 88.881 24.9924C96.4369 32.5494 96.2636 44.7766 88.4639 52.1918C86.8173 53.7736 85.6099 55.9186 84.7649 57.9068ZM84.0824 60.5016H83.5895C83.362 60.6912 83.0641 60.805 82.7445 60.805H68.2169C67.9082 60.805 67.6103 60.6966 67.3773 60.5016H66.879C65.8661 60.5016 65.3137 61.7422 66.0557 62.4897C66.267 62.701 66.5594 62.831 66.879 62.831H84.0814C85.0943 62.831 85.6468 61.5905 84.9047 60.8429C84.6881 60.6316 84.402 60.5016 84.0824 60.5016ZM87.576 18.9141L89.3039 15.6366C89.6451 14.992 89.3959 14.1902 88.7514 13.8489C88.1068 13.5076 87.3051 13.7568 86.9639 14.4015L85.236 17.6789C84.8948 18.3235 85.1439 19.1253 85.7885 19.4666C86.4331 19.8079 87.2347 19.5587 87.576 18.9141ZM65.7256 17.679L63.9978 14.4015C63.6565 13.7569 62.8549 13.5077 62.2103 13.849C61.5657 14.1902 61.3166 14.992 61.6578 15.6367L63.3857 18.9141C63.7269 19.5588 64.5285 19.808 65.1731 19.4667C65.8177 19.1254 66.0669 18.3291 65.7256 17.679ZM76.8078 15.0949C76.8078 16.8392 74.1536 16.8392 74.1536 15.0949V11.3082C74.1536 9.56392 76.8078 9.56392 76.8078 11.3082V15.0949ZM70.373 36.7208C70.6926 36.7208 70.9851 36.8562 71.2018 37.0675C71.673 37.5388 71.5484 38.2538 71.5484 39.0664H69.6094C68.5911 39.0664 68.0332 37.815 68.7806 37.0675C69.214 36.6341 69.7339 36.7208 70.373 36.7208ZM81.3469 36.7208C81.6665 36.7208 81.9589 36.8562 82.1756 37.0675C82.9231 37.815 82.3706 39.0664 81.3469 39.0664H79.4078C79.4078 38.2593 79.2778 37.5441 79.7545 37.0675C80.1932 36.6341 80.7078 36.7208 81.3469 36.7208ZM72.8376 70.4645C71.8247 70.4645 71.2723 71.7051 72.0143 72.4527C72.2255 72.6639 72.518 72.7939 72.8376 72.7939H78.1241C79.137 72.7939 79.6895 71.5534 78.9474 70.8058C78.7362 70.5946 78.4437 70.4645 78.1241 70.4645H72.8376ZM80.8053 65.4806H70.1564C69.1436 65.4806 68.5911 66.7212 69.3331 67.4688C69.5444 67.68 69.8369 67.81 70.1564 67.81H80.8053C81.8181 67.81 82.3706 66.5695 81.6286 65.8219C81.4119 65.6161 81.1248 65.4806 80.8053 65.4806ZM95.1041 28.1728C94.4866 28.5628 93.6687 28.3786 93.2787 27.7557C92.8888 27.1381 93.0729 26.32 93.6958 25.9301L96.6912 24.0394C97.3087 23.6494 98.1266 23.8336 98.5165 24.4566C98.9065 25.0741 98.7224 25.8922 98.0995 26.2821L95.1041 28.1728ZM56.3106 25.9354L53.3152 24.0448C52.6978 23.6548 51.8798 23.839 51.4899 24.4619C51.0999 25.0795 51.2841 25.8976 51.907 26.2875L54.9023 28.1782C55.5198 28.5682 56.3378 28.384 56.7277 27.761C57.1176 27.1381 56.9281 26.32 56.3106 25.9354ZM103.081 67.9515H110.789C110.919 67.9515 111.038 67.9678 111.157 68.0057H123.588C124.319 68.0057 124.915 68.6016 124.915 69.3329V92.7242H128.1C134.649 92.7242 140 98.0764 140 104.626C140 111.175 134.648 116.533 128.1 116.533L107.496 116.527L110.123 124.675H119.716C123.93 124.675 127.375 128.12 127.375 132.335V138.667C127.375 139.399 126.779 139.995 126.048 139.995L23.9522 140C23.221 140 22.6252 139.404 22.6252 138.673V132.34C22.6252 128.125 26.0701 124.68 30.284 124.68H39.8767L42.5036 116.533L21.9054 116.527C15.3568 116.527 10 111.175 10 104.62C10 98.0708 15.3515 92.7187 21.9054 92.7187H25.0903V69.333C25.0903 68.6017 25.6861 68.0058 26.4173 68.0058H38.8481C38.9673 67.9733 39.0919 67.9516 39.2164 67.9516H46.9241C47.0541 67.9516 47.1733 67.9679 47.2924 68.0058H59.7232C60.4544 68.0058 61.0502 68.6017 61.0502 69.333V92.7243H88.9559V69.333C88.9559 68.6017 89.5518 68.0058 90.283 68.0058H102.714C102.827 67.9679 102.951 67.9515 103.081 67.9515ZM112.116 70.6547V80.1781C112.116 80.9095 111.52 81.5054 110.789 81.5054L103.081 81.5108C102.35 81.5108 101.754 80.9149 101.754 80.1836V70.6601H91.6092V92.7242H122.26V70.6545L112.116 70.6547ZM104.408 70.6547V78.8564H109.462V70.6547H104.408ZM48.2502 70.6547V80.1781C48.2502 80.9095 47.6544 81.5054 46.9232 81.5054H39.2155C38.4843 81.5054 37.8885 80.9095 37.8885 80.1781V70.6547H27.7434V92.7188H58.3946V70.6547H48.2502ZM40.5425 70.6547V78.8564H45.5961V70.6547H40.5425ZM119.716 127.335H30.2899C27.5383 127.335 25.285 129.594 25.285 132.34V137.346H124.726V132.34C124.726 129.588 122.467 127.335 119.716 127.335ZM28.1711 98.266C33.7988 95.9854 39.4428 101.668 37.0596 107.291C34.6763 112.925 26.6708 112.822 24.3905 107.199C22.9714 103.699 24.6666 99.6907 28.1711 98.266ZM32.3906 100.747C34.5247 101.652 35.5267 104.133 34.6276 106.267C33.1868 109.675 28.2687 109.707 26.8495 106.208C25.4359 102.724 28.9619 99.2953 32.3906 100.747ZM58.8015 100.704C59.8686 100.287 60.9952 100.335 61.9702 100.747C65.3772 102.188 65.4098 107.107 61.9107 108.526C58.4279 109.94 54.9992 106.408 56.4509 102.984C56.9275 101.852 57.6641 101.229 58.8015 100.704ZM57.7508 98.2661C63.3785 95.9854 69.0224 101.668 66.6393 107.297C64.2505 112.936 56.245 112.822 53.9701 107.204C52.5347 103.656 54.3383 99.5824 57.7508 98.2661ZM87.3301 98.2661C92.9579 95.9854 98.6018 101.663 96.2186 107.291C93.8299 112.93 85.8244 112.817 83.5495 107.199C82.1304 103.7 83.8256 99.6907 87.3301 98.2661ZM91.5496 100.747C93.6838 101.652 94.6911 104.133 93.7866 106.267C92.3404 109.686 87.4223 109.697 86.0085 106.208C84.5949 102.725 88.1209 99.2953 91.5496 100.747ZM116.91 98.2661C122.532 95.9854 128.181 101.663 125.798 107.291C123.409 112.93 115.404 112.817 113.129 107.199C111.71 103.7 113.405 99.6907 116.91 98.2661ZM121.129 100.747C123.263 101.652 124.271 104.133 123.366 106.267C121.92 109.686 117.002 109.697 115.588 106.208C114.174 102.725 117.7 99.2953 121.129 100.747ZM104.717 116.533H45.2878L42.6609 124.681H107.344L104.717 116.533Z" fill="#663366"/>
<path fill-rule="evenodd" clip-rule="evenodd" d="M44.3315 113.877H128.103C133.189 113.877 137.354 109.711 137.354 104.624C137.354 99.5375 133.189 95.3771 128.103 95.3771H21.907C16.8209 95.3771 12.6557 99.5429 12.6557 104.624C12.6557 109.711 16.8209 113.877 21.907 113.877H44.3315ZM69.0299 57.8472H71.5486V41.72C69.7232 41.72 68.2608 41.9475 66.9066 40.5986C64.4908 38.1826 66.235 34.071 69.6094 34.071C70.9635 34.071 71.9872 34.098 73.0814 35.1923C74.3001 36.4112 74.2026 37.5814 74.2026 39.0657H76.7592C76.7592 37.5814 76.6617 36.4112 77.8804 35.1923C78.9746 34.098 79.9982 34.071 81.3524 34.071C84.7269 34.071 86.4709 38.1826 84.0552 40.5986C82.7065 41.9475 81.2603 41.72 79.4512 41.72V57.8472H81.932C82.9449 55.2415 84.4615 52.3324 86.6443 50.2686C93.3444 43.9358 93.5015 33.3773 86.9964 26.8717C80.632 20.5066 70.3139 20.5066 63.9549 26.8717C57.4335 33.394 57.623 43.8546 64.3178 50.2741C66.5656 52.4302 67.99 55.1548 69.0299 57.8472ZM74.1973 57.8472V41.72H76.7918V57.8472H74.1973ZM84.7649 57.9068C87.7547 58.4539 88.9735 62.1647 86.7798 64.3586C86.1677 64.9708 85.3444 65.377 84.4344 65.4637C85.1278 67.5764 83.8549 69.8245 81.7208 70.35C82.6037 72.8202 80.7567 75.4422 78.1242 75.4422H72.8377C70.2054 75.4422 68.3583 72.8203 69.2411 70.35C67.107 69.8191 65.8342 67.5764 66.5275 65.4637C63.348 65.1712 61.8801 61.2654 64.1822 58.9631C64.7184 58.4268 65.4226 58.0421 66.2025 57.9013C65.3413 55.8535 64.1822 53.8005 62.4922 52.1807C54.7466 44.7537 54.4975 32.5865 62.0859 24.9924C69.4848 17.5925 81.482 17.5925 88.881 24.9924C96.4369 32.5494 96.2636 44.7766 88.4639 52.1918C86.8173 53.7736 85.6099 55.9186 84.7649 57.9068ZM84.0824 60.5016H83.5895C83.362 60.6912 83.0641 60.805 82.7445 60.805H68.2169C67.9082 60.805 67.6103 60.6966 67.3773 60.5016H66.879C65.8661 60.5016 65.3137 61.7422 66.0557 62.4897C66.267 62.701 66.5594 62.831 66.879 62.831H84.0814C85.0943 62.831 85.6468 61.5905 84.9047 60.8429C84.6881 60.6316 84.402 60.5016 84.0824 60.5016ZM87.576 18.9141L89.3039 15.6366C89.6451 14.992 89.3959 14.1902 88.7514 13.8489C88.1068 13.5076 87.3051 13.7568 86.9639 14.4015L85.236 17.6789C84.8948 18.3235 85.1439 19.1253 85.7885 19.4666C86.4331 19.8079 87.2347 19.5587 87.576 18.9141ZM65.7256 17.679L63.9978 14.4015C63.6565 13.7569 62.8549 13.5077 62.2103 13.849C61.5657 14.1902 61.3166 14.992 61.6578 15.6367L63.3857 18.9141C63.7269 19.5588 64.5285 19.808 65.1731 19.4667C65.8177 19.1254 66.0669 18.3291 65.7256 17.679ZM76.8078 15.0949C76.8078 16.8392 74.1536 16.8392 74.1536 15.0949V11.3082C74.1536 9.56392 76.8078 9.56392 76.8078 11.3082V15.0949ZM70.373 36.7208C70.6926 36.7208 70.9851 36.8562 71.2018 37.0675C71.673 37.5388 71.5484 38.2538 71.5484 39.0664H69.6094C68.5911 39.0664 68.0332 37.815 68.7806 37.0675C69.214 36.6341 69.7339 36.7208 70.373 36.7208ZM81.3469 36.7208C81.6665 36.7208 81.9589 36.8562 82.1756 37.0675C82.9231 37.815 82.3706 39.0664 81.3469 39.0664H79.4078C79.4078 38.2593 79.2778 37.5441 79.7545 37.0675C80.1932 36.6341 80.7078 36.7208 81.3469 36.7208ZM72.8376 70.4645C71.8247 70.4645 71.2723 71.7051 72.0143 72.4527C72.2255 72.6639 72.518 72.7939 72.8376 72.7939H78.1241C79.137 72.7939 79.6895 71.5534 78.9474 70.8058C78.7362 70.5946 78.4437 70.4645 78.1241 70.4645H72.8376ZM80.8053 65.4806H70.1564C69.1436 65.4806 68.5911 66.7212 69.3331 67.4688C69.5444 67.68 69.8369 67.81 70.1564 67.81H80.8053C81.8181 67.81 82.3706 66.5695 81.6286 65.8219C81.4119 65.6161 81.1248 65.4806 80.8053 65.4806ZM95.1041 28.1728C94.4866 28.5628 93.6687 28.3786 93.2787 27.7557C92.8888 27.1381 93.0729 26.32 93.6958 25.9301L96.6912 24.0394C97.3087 23.6494 98.1266 23.8336 98.5165 24.4566C98.9065 25.0741 98.7224 25.8922 98.0995 26.2821L95.1041 28.1728ZM56.3106 25.9354L53.3152 24.0448C52.6978 23.6548 51.8798 23.839 51.4899 24.4619C51.0999 25.0795 51.2841 25.8976 51.907 26.2875L54.9023 28.1782C55.5198 28.5682 56.3378 28.384 56.7277 27.761C57.1176 27.1381 56.9281 26.32 56.3106 25.9354ZM103.081 67.9515H110.789C110.919 67.9515 111.038 67.9678 111.157 68.0057H123.588C124.319 68.0057 124.915 68.6016 124.915 69.3329V92.7242H128.1C134.649 92.7242 140 98.0764 140 104.626C140 111.175 134.648 116.533 128.1 116.533L107.496 116.527L110.123 124.675H119.716C123.93 124.675 127.375 128.12 127.375 132.335V138.667C127.375 139.399 126.779 139.995 126.048 139.995L23.9522 140C23.221 140 22.6252 139.404 22.6252 138.673V132.34C22.6252 128.125 26.0701 124.68 30.284 124.68H39.8767L42.5036 116.533L21.9054 116.527C15.3568 116.527 10 111.175 10 104.62C10 98.0708 15.3515 92.7187 21.9054 92.7187H25.0903V69.333C25.0903 68.6017 25.6861 68.0058 26.4173 68.0058H38.8481C38.9673 67.9733 39.0919 67.9516 39.2164 67.9516H46.9241C47.0541 67.9516 47.1733 67.9679 47.2924 68.0058H59.7232C60.4544 68.0058 61.0502 68.6017 61.0502 69.333V92.7243H88.9559V69.333C88.9559 68.6017 89.5518 68.0058 90.283 68.0058H102.714C102.827 67.9679 102.951 67.9515 103.081 67.9515ZM112.116 70.6547V80.1781C112.116 80.9095 111.52 81.5054 110.789 81.5054L103.081 81.5108C102.35 81.5108 101.754 80.9149 101.754 80.1836V70.6601H91.6092V92.7242H122.26V70.6545L112.116 70.6547ZM104.408 70.6547V78.8564H109.462V70.6547H104.408ZM48.2502 70.6547V80.1781C48.2502 80.9095 47.6544 81.5054 46.9232 81.5054H39.2155C38.4843 81.5054 37.8885 80.9095 37.8885 80.1781V70.6547H27.7434V92.7188H58.3946V70.6547H48.2502ZM40.5425 70.6547V78.8564H45.5961V70.6547H40.5425ZM119.716 127.335H30.2899C27.5383 127.335 25.285 129.594 25.285 132.34V137.346H124.726V132.34C124.726 129.588 122.467 127.335 119.716 127.335ZM28.1711 98.266C33.7988 95.9854 39.4428 101.668 37.0596 107.291C34.6763 112.925 26.6708 112.822 24.3905 107.199C22.9714 103.699 24.6666 99.6907 28.1711 98.266ZM32.3906 100.747C34.5247 101.652 35.5267 104.133 34.6276 106.267C33.1868 109.675 28.2687 109.707 26.8495 106.208C25.4359 102.724 28.9619 99.2953 32.3906 100.747ZM58.8015 100.704C59.8686 100.287 60.9952 100.335 61.9702 100.747C65.3772 102.188 65.4098 107.107 61.9107 108.526C58.4279 109.94 54.9992 106.408 56.4509 102.984C56.9275 101.852 57.6641 101.229 58.8015 100.704ZM57.7508 98.2661C63.3785 95.9854 69.0224 101.668 66.6393 107.297C64.2505 112.936 56.245 112.822 53.9701 107.204C52.5347 103.656 54.3383 99.5824 57.7508 98.2661ZM87.3301 98.2661C92.9579 95.9854 98.6018 101.663 96.2186 107.291C93.8299 112.93 85.8244 112.817 83.5495 107.199C82.1304 103.7 83.8256 99.6907 87.3301 98.2661ZM91.5496 100.747C93.6838 101.652 94.6911 104.133 93.7866 106.267C92.3404 109.686 87.4223 109.697 86.0085 106.208C84.5949 102.725 88.1209 99.2953 91.5496 100.747ZM116.91 98.2661C122.532 95.9854 128.181 101.663 125.798 107.291C123.409 112.93 115.404 112.817 113.129 107.199C111.71 103.7 113.405 99.6907 116.91 98.2661ZM121.129 100.747C123.263 101.652 124.271 104.133 123.366 106.267C121.92 109.686 117.002 109.697 115.588 106.208C114.174 102.725 117.7 99.2953 121.129 100.747ZM104.717 116.533H45.2878L42.6609 124.681H107.344L104.717 116.533Z" stroke="#663366" stroke-width="0.5" mask="url(#path-1-outside-1_105_1185)"/>
</svg>
