<svg width="150" height="150" viewBox="0 0 150 150" fill="none" xmlns="http://www.w3.org/2000/svg">
<mask id="path-1-outside-1_105_1222" maskUnits="userSpaceOnUse" x="8" y="10" width="133" height="132" fill="black">
<rect fill="white" x="8" y="10" width="133" height="132"/>
<path fill-rule="evenodd" clip-rule="evenodd" d="M17.4473 90.975L53.107 78.6207V75.225L17.4473 87.5793V90.975ZM53.107 81.7832V136.433C53.107 136.928 52.7147 137.332 52.2201 137.332H18.3346C17.8343 137.332 17.4476 136.934 17.4476 136.433V94.137L53.107 81.7832ZM56.109 93.1023L89.6815 83.7512C89.6815 83.336 89.7383 81.7547 89.6133 81.5273C89.42 81.1689 88.9367 81.0096 88.5046 81.1291L56.1081 90.1502L56.109 93.1023ZM88.7661 137.952L55.9781 137.401C56.0577 137.093 56.1032 136.769 56.1032 136.434V96.2082L89.6757 86.8572V137.236C89.6757 137.691 89.2096 137.952 88.7661 137.952ZM30.9216 52.6045H38.2161L36.9653 42.332H31.4674L30.9216 52.6045ZM30.5804 58.9978H38.995L38.5799 55.6021H30.7623L30.5804 58.9978ZM39.3588 62.0011L41.0929 76.2267L29.4489 80.2594L30.4155 62.0011H39.3588ZM68.543 58.4062H75.8148L74.5925 49.1518H69.0718L68.543 58.4062ZM68.2019 64.3103H76.5937L76.2071 61.4094H68.3611L68.1962 64.3103H68.2019ZM76.9918 67.3136L78.7657 80.743L67.0705 84.0022L68.0314 67.3194H76.9917L76.9918 67.3136ZM121.942 137.987V122.077H107.728V137.975L121.942 137.987ZM136.992 70.2535V137.28H136.997C136.997 137.684 136.56 137.991 136.105 137.991V137.997L124.944 137.986V120.569C124.944 119.739 124.273 119.067 123.443 119.067H106.228C105.397 119.067 104.727 119.739 104.727 120.569V137.962L92.6051 137.951C92.6506 137.718 92.679 137.479 92.679 137.229L92.6733 70.2411H136.992L136.992 70.2535ZM92.6733 67.2502H136.992V65.1115C136.992 64.6792 136.554 64.4005 136.105 64.4005H93.565C93.1101 64.4005 92.6724 64.6906 92.6724 65.1115L92.6733 67.2502ZM134.605 61.3974V53.3204H127.14L123.296 61.3974H134.605ZM119.976 61.3974L124.842 51.1761C125.098 50.6357 125.638 50.3229 126.196 50.3229H136.111C136.941 50.3229 137.612 50.9941 137.612 51.8244V61.693C138.999 62.2561 140 63.5758 140 65.1173V137.286H139.994C139.994 139.385 138.198 141 136.111 141V140.994L88.8758 140.949H88.7279L52.374 140.334C52.3228 140.334 52.2716 140.34 52.2261 140.34L18.3349 140.334C16.197 140.334 14.4459 138.577 14.4459 136.438V86.5208C14.4459 85.8155 14.9349 85.2239 15.5887 85.059L26.397 81.3163L27.5113 60.3102L27.8411 54.1047C27.8411 54.0421 27.8468 53.9739 27.8524 53.917L28.5518 40.7549C28.5916 39.9529 29.2511 39.3329 30.047 39.3329V39.3272H38.2854C39.07 39.3272 39.7125 39.9245 39.7806 40.6923L42.1685 60.2641C42.1742 60.2982 42.1799 60.3267 42.1799 60.3608L43.9936 75.2177L54.1195 71.7081C55.0974 71.3725 56.0981 72.1119 56.0981 73.1187H56.1038V87.0429L64.0237 84.836L65.1267 65.6108L65.4565 59.9C65.4565 59.8318 65.4622 59.7692 65.4679 59.7066L66.1672 47.5629C66.2127 46.7665 66.8722 46.1465 67.6624 46.1465V46.1408H75.9008C76.7025 46.1408 77.362 46.7722 77.3961 47.5685L78.9823 59.5759C78.9993 59.6555 79.0107 59.7408 79.0164 59.8262L79.7669 65.4857C79.7839 65.5653 79.7953 65.6506 79.801 65.736L81.6773 79.9275L87.7096 78.2496C88.3691 78.0676 89.04 78.0448 89.6825 78.1927L89.6882 65.1103C89.6882 63.0171 91.4905 61.396 93.5715 61.396L119.976 61.3974ZM18.8126 15.5629C18.8979 15.5914 19.0343 15.6312 18.8126 15.5572V15.5629ZM19.6996 12.7076C19.7223 12.7133 19.728 12.719 19.6996 12.7076V12.7076ZM14.736 14.6871C14.8952 14.8122 15.0317 14.9601 15.134 15.1307C15.5604 15.8247 16.4644 16.0465 17.1637 15.6313V15.637C17.8403 15.2388 17.9142 15.2786 18.8068 15.563V15.5687C18.7215 15.5403 18.7556 15.5516 18.8068 15.5687C19.4379 15.7678 20.2339 16.018 20.1884 16.1546C19.961 16.8655 20.052 17.4457 20.3135 17.8667C21.1265 19.1976 23.0823 18.7881 23.6281 17.0817C23.8726 16.3139 24.1341 16.2115 25.1177 16.5243C26.414 16.9338 26.721 18.6004 25.6976 19.4479C24.4923 20.449 25.436 22.4796 27.0905 22.0359C28.5631 21.6434 29.8708 23.5204 28.745 24.8059C28.2049 25.4259 28.2674 26.37 28.8871 26.9161C29.251 27.2346 30.3653 27.428 30.4166 28.6965C30.445 29.5213 31.1386 30.1697 31.963 30.1355C33.0376 30.09 33.9814 31.1878 33.6118 32.3538C33.0376 34.1456 30.371 33.7815 30.3029 31.9045C30.2745 31.0797 29.5808 30.4313 28.7564 30.4654C28.222 30.4882 27.6819 30.2094 27.3578 29.7772C26.8973 29.1458 26.0387 28.9808 25.3792 29.379C24.4809 29.8852 23.213 29.3904 22.9457 28.2812C22.7581 27.5076 22.0076 27.0242 21.2344 27.1607V27.155L20.4213 27.1038C19.6879 26.8706 19.1705 25.4543 19.324 24.965C19.8812 23.2188 18.5849 22.7354 17.6752 22.4452C17.0214 22.2348 16.3789 22.3826 15.9582 22.9287C15.799 22.8718 15.6114 22.8036 15.3783 22.7296C14.5482 22.4623 13.8944 21.2905 14.389 20.335L14.3946 20.3407C14.4401 20.2497 14.4913 20.1701 14.5368 20.1075C15.2247 19.1746 14.6107 17.8607 13.4963 17.7356C12.905 17.6673 12.4388 17.3318 12.1773 16.8255C11.3415 15.2101 13.3144 13.6062 14.7301 14.7096L14.736 14.6871ZM15.2818 11.6155C15.8504 11.8203 16.3564 12.1217 16.7886 12.5085C17.7494 12.2127 18.5397 12.3379 19.6939 12.7076C19.6313 12.6848 19.4494 12.628 19.6939 12.7019C20.6149 12.992 21.6555 13.3162 22.366 13.9191C23.4065 13.2537 24.6858 13.2309 26.0332 13.6746C28.4267 14.4595 29.7629 16.9111 29.1431 19.3057C30.2575 19.7323 31.1161 20.54 31.6277 21.5296C32.219 22.6729 32.3213 24.0095 31.8608 25.2893C32.4578 25.8354 32.9069 26.5236 33.1571 27.2915C37.37 28.4177 37.8874 34.0602 34.1293 35.9999C31.5595 37.3252 28.4323 36.0169 27.5341 33.3037C26.8689 33.1274 26.2776 32.8316 25.7602 32.4107C23.6963 32.951 21.5187 32.0125 20.484 30.1525C18.2951 29.9364 16.8793 28.2527 16.4473 26.2392C15.9299 26.1596 15.1283 25.7785 14.4744 25.568C12.2571 24.857 10.8129 22.4111 11.3246 20.0848C10.54 19.6298 9.92023 18.9643 9.52221 18.185C8.33393 15.8814 9.24361 13.0545 11.5405 11.8657C12.5583 11.3424 13.7692 11.1889 14.9519 11.5188C15.0657 11.5415 15.1737 11.5756 15.276 11.6211L15.2818 11.6155ZM52.2544 15.5629C50.5487 14.0271 47.8993 15.8985 48.8203 18.0372C49.0818 18.6401 49.6788 19.1805 50.3611 19.2999C51.6119 19.516 52.0042 20.904 51.2878 21.7514C50.2985 22.9175 50.8728 24.675 52.2373 25.2154C53.8691 25.8638 53.1243 25.2325 54.159 24.8116C54.8299 24.5385 55.5747 24.7888 55.9613 25.3633C56.8199 25.8126 57.0075 26.0857 56.3423 27.7636C55.7169 29.3448 57.0757 30.8862 58.5255 30.7271C59.3272 30.6133 60.0777 31.1594 60.2142 31.9614C60.4587 33.3834 61.9767 34.1683 63.2731 33.5541C63.9496 33.2356 64.7683 33.4631 65.1777 34.1115C65.5473 34.6974 66.2125 35.0842 66.9061 35.1126C67.7249 35.1467 68.3673 35.8293 68.3389 36.6484C68.2707 39.0829 71.6422 39.7426 72.5235 37.5186C73.075 36.1365 72.0743 34.6121 70.6074 34.5495C69.7887 34.5153 69.1463 33.8328 69.1747 33.0137C69.1974 32.1946 68.7085 31.3415 67.9807 31.0058C66.9289 30.5224 66.7981 29.271 67.5088 28.5657C69.0156 27.0698 67.6623 24.493 65.5701 24.8969V24.8913C64.0123 25.187 63.1196 23.1394 64.4159 22.2065C65.8032 21.2054 65.5246 19.0553 63.9497 18.4296C63.2106 18.1338 62.6022 17.929 62.244 17.9632C61.9541 17.9916 61.8233 19.1804 60.8113 19.9141L60.8056 19.9084C59.9641 20.5227 58.6507 20.4658 58.2698 19.1234C57.8832 17.7583 59.2818 17.7981 57.4056 17.07C56.9337 16.888 55.9388 16.45 55.5009 16.5012L54.7505 16.7856C54.017 17.1724 53.113 16.888 52.7264 16.1599C52.607 15.9381 52.4535 15.7333 52.2545 15.557L52.2544 15.5629ZM52.8628 12.4459C52.7661 12.3947 52.6638 12.3549 52.5614 12.3265C51.2765 11.8601 49.929 11.934 48.7691 12.4346C46.1537 13.5608 44.9428 16.6039 46.0684 19.2204C46.4721 20.1532 47.1487 20.9666 48.0414 21.5353C47.2056 24.0779 48.5872 26.9788 51.032 27.9513C51.9132 28.2983 52.624 28.5884 53.1982 28.6907C53.2551 31.182 55.1142 33.3208 57.6273 33.6791C58.6109 35.9031 61.0158 37.1431 63.4039 36.6483C63.9781 37.2114 64.6888 37.6323 65.4848 37.8826C66.2125 41.0166 69.6011 42.7401 72.552 41.466C76.8844 39.6004 76.6626 33.2526 72.0289 31.7908C71.8072 30.8295 71.3239 29.9593 70.6189 29.2653C71.9038 26.592 70.6928 23.4124 67.9638 22.269C68.9587 19.6298 67.6624 16.7005 65.0414 15.6595C63.5176 15.0566 61.9258 14.5959 60.5726 15.4377C60.0097 14.9542 59.2592 14.6073 58.4917 14.3001C57.0703 13.737 55.9616 13.2649 54.563 13.646C54.0911 13.1398 53.5168 12.7359 52.8516 12.4458L52.8628 12.4459ZM129.134 79.6839H100.524V84.7178H129.134V79.6839ZM99.0224 76.6807C98.1923 76.6807 97.5215 77.3519 97.5215 78.1822V86.2193C97.5215 87.0498 98.1924 87.7209 99.0224 87.7209H130.634C131.464 87.7209 132.135 87.0497 132.135 86.2193V78.1822C132.135 77.3518 131.464 76.6807 130.634 76.6807H99.0224ZM108.711 95.4108H102.127V101.997H108.711V95.4108ZM100.626 92.4076C99.7956 92.4076 99.1247 93.0788 99.1247 93.9091V103.499C99.1247 104.329 99.7956 105.001 100.626 105.001H110.211C111.042 105.001 111.712 104.329 111.712 103.499V93.9091C111.712 93.0787 111.041 92.4076 110.211 92.4076H100.626ZM127.523 95.4108H120.939V101.997H127.523V95.4108ZM119.438 92.4076C118.608 92.4076 117.938 93.0788 117.938 93.9091V103.499C117.938 104.329 118.608 105.001 119.438 105.001H129.024C129.854 105.001 130.525 104.329 130.525 103.499V93.9091C130.525 93.0787 129.854 92.4076 129.024 92.4076H119.438ZM102.495 113.128H108.334C109.164 113.128 109.835 112.457 109.835 111.627C109.835 110.796 109.164 110.125 108.334 110.125H102.495C101.665 110.125 100.994 110.796 100.994 111.627C100.994 112.457 101.665 113.128 102.495 113.128ZM121.315 113.128H127.154C127.984 113.128 128.654 112.457 128.654 111.627C128.654 110.796 127.984 110.125 127.154 110.125H121.315C120.484 110.125 119.814 110.796 119.814 111.627C119.814 112.457 120.485 113.128 121.315 113.128ZM109.039 11C98.1686 11 89.3568 19.8164 89.3568 30.6912C89.3568 41.566 98.1694 50.3823 109.039 50.3823C119.91 50.3823 128.722 41.566 128.722 30.6912C128.722 19.8164 119.91 11 109.039 11ZM116.76 21.9835C116.249 19.4694 115.447 16.8814 114.253 14.8337C117.221 15.812 119.831 17.598 121.809 19.9528C120.257 20.789 118.563 21.4773 116.76 21.9891L116.76 21.9835ZM104.235 22.6377C104.554 21.0508 104.963 19.6117 105.44 18.366C107.692 12.5585 110.375 12.5585 112.627 18.366C113.11 19.6117 113.52 21.0508 113.832 22.6377C110.694 23.161 107.374 23.161 104.229 22.6377H104.235ZM96.264 19.9472C98.2426 17.5923 100.852 15.8063 103.82 14.828C102.626 16.8815 101.824 19.4694 101.313 21.9779C99.5103 21.466 97.8161 20.7834 96.2638 19.9417L96.264 19.9472ZM101.313 39.3937C99.5105 39.9056 97.8162 40.5882 96.264 41.43C98.2426 43.7848 100.852 45.5709 103.82 46.5491C102.626 44.4957 101.824 41.9077 101.313 39.3993L101.313 39.3937ZM113.838 38.7396C110.7 38.2163 107.379 38.2163 104.235 38.7396C104.554 40.3265 104.963 41.7656 105.44 43.0113C107.692 48.8188 110.375 48.8188 112.627 43.0113C113.11 41.7656 113.52 40.3265 113.832 38.7396H113.838ZM121.809 41.4301C120.257 40.594 118.563 39.9057 116.76 39.3939C116.249 41.908 115.447 44.496 114.253 46.5437C117.221 45.5654 119.825 43.7794 121.809 41.4246L121.809 41.4301ZM117.244 36.4247C117.71 32.699 117.71 28.6776 117.244 24.952C119.524 24.3263 121.599 23.4959 123.538 22.4208C126.454 27.5343 126.454 33.8481 123.538 38.9551C121.605 37.8801 119.529 37.0447 117.244 36.4247ZM103.775 35.7819C103.388 32.4829 103.388 28.8937 103.775 25.5947C107.237 26.1749 110.842 26.1749 114.304 25.5947C114.691 28.8937 114.691 32.4829 114.304 35.7819C110.836 35.2017 107.237 35.2017 103.775 35.7819ZM94.5414 38.9558C91.6247 33.8424 91.6247 27.5286 94.5414 22.4215C96.4744 23.4966 98.5497 24.3327 100.835 24.9527C100.369 28.6784 100.369 32.6997 100.835 36.4254C98.5497 37.0511 96.4801 37.8808 94.5414 38.9558ZM24.5581 99.0152V106.097H31.6366V99.0152H24.5581ZM38.9198 99.0152V106.097H45.9983V99.0152H38.9198ZM24.5581 111.381V118.462H31.6366V111.381H24.5581ZM38.9198 111.381V118.462H45.9983V111.381H38.9198ZM24.5581 123.747V130.828H31.6366V123.747H24.5581ZM38.9198 123.747V130.828H45.9983V123.747H38.9198ZM62.1743 99.0099V106.091H69.2528V99.0099H62.1743ZM76.536 99.0099V106.091H83.6145V99.0099H76.536ZM62.1743 111.376V118.457H69.2528V111.376H62.1743ZM76.536 111.376V118.457H83.6145V111.376H76.536ZM62.1743 123.741V130.823H69.2528V123.741H62.1743ZM76.536 123.741V130.823H83.6145V123.741H76.536Z"/>
</mask>
<path fill-rule="evenodd" clip-rule="evenodd" d="M17.4473 90.975L53.107 78.6207V75.225L17.4473 87.5793V90.975ZM53.107 81.7832V136.433C53.107 136.928 52.7147 137.332 52.2201 137.332H18.3346C17.8343 137.332 17.4476 136.934 17.4476 136.433V94.137L53.107 81.7832ZM56.109 93.1023L89.6815 83.7512C89.6815 83.336 89.7383 81.7547 89.6133 81.5273C89.42 81.1689 88.9367 81.0096 88.5046 81.1291L56.1081 90.1502L56.109 93.1023ZM88.7661 137.952L55.9781 137.401C56.0577 137.093 56.1032 136.769 56.1032 136.434V96.2082L89.6757 86.8572V137.236C89.6757 137.691 89.2096 137.952 88.7661 137.952ZM30.9216 52.6045H38.2161L36.9653 42.332H31.4674L30.9216 52.6045ZM30.5804 58.9978H38.995L38.5799 55.6021H30.7623L30.5804 58.9978ZM39.3588 62.0011L41.0929 76.2267L29.4489 80.2594L30.4155 62.0011H39.3588ZM68.543 58.4062H75.8148L74.5925 49.1518H69.0718L68.543 58.4062ZM68.2019 64.3103H76.5937L76.2071 61.4094H68.3611L68.1962 64.3103H68.2019ZM76.9918 67.3136L78.7657 80.743L67.0705 84.0022L68.0314 67.3194H76.9917L76.9918 67.3136ZM121.942 137.987V122.077H107.728V137.975L121.942 137.987ZM136.992 70.2535V137.28H136.997C136.997 137.684 136.56 137.991 136.105 137.991V137.997L124.944 137.986V120.569C124.944 119.739 124.273 119.067 123.443 119.067H106.228C105.397 119.067 104.727 119.739 104.727 120.569V137.962L92.6051 137.951C92.6506 137.718 92.679 137.479 92.679 137.229L92.6733 70.2411H136.992L136.992 70.2535ZM92.6733 67.2502H136.992V65.1115C136.992 64.6792 136.554 64.4005 136.105 64.4005H93.565C93.1101 64.4005 92.6724 64.6906 92.6724 65.1115L92.6733 67.2502ZM134.605 61.3974V53.3204H127.14L123.296 61.3974H134.605ZM119.976 61.3974L124.842 51.1761C125.098 50.6357 125.638 50.3229 126.196 50.3229H136.111C136.941 50.3229 137.612 50.9941 137.612 51.8244V61.693C138.999 62.2561 140 63.5758 140 65.1173V137.286H139.994C139.994 139.385 138.198 141 136.111 141V140.994L88.8758 140.949H88.7279L52.374 140.334C52.3228 140.334 52.2716 140.34 52.2261 140.34L18.3349 140.334C16.197 140.334 14.4459 138.577 14.4459 136.438V86.5208C14.4459 85.8155 14.9349 85.2239 15.5887 85.059L26.397 81.3163L27.5113 60.3102L27.8411 54.1047C27.8411 54.0421 27.8468 53.9739 27.8524 53.917L28.5518 40.7549C28.5916 39.9529 29.2511 39.3329 30.047 39.3329V39.3272H38.2854C39.07 39.3272 39.7125 39.9245 39.7806 40.6923L42.1685 60.2641C42.1742 60.2982 42.1799 60.3267 42.1799 60.3608L43.9936 75.2177L54.1195 71.7081C55.0974 71.3725 56.0981 72.1119 56.0981 73.1187H56.1038V87.0429L64.0237 84.836L65.1267 65.6108L65.4565 59.9C65.4565 59.8318 65.4622 59.7692 65.4679 59.7066L66.1672 47.5629C66.2127 46.7665 66.8722 46.1465 67.6624 46.1465V46.1408H75.9008C76.7025 46.1408 77.362 46.7722 77.3961 47.5685L78.9823 59.5759C78.9993 59.6555 79.0107 59.7408 79.0164 59.8262L79.7669 65.4857C79.7839 65.5653 79.7953 65.6506 79.801 65.736L81.6773 79.9275L87.7096 78.2496C88.3691 78.0676 89.04 78.0448 89.6825 78.1927L89.6882 65.1103C89.6882 63.0171 91.4905 61.396 93.5715 61.396L119.976 61.3974ZM18.8126 15.5629C18.8979 15.5914 19.0343 15.6312 18.8126 15.5572V15.5629ZM19.6996 12.7076C19.7223 12.7133 19.728 12.719 19.6996 12.7076V12.7076ZM14.736 14.6871C14.8952 14.8122 15.0317 14.9601 15.134 15.1307C15.5604 15.8247 16.4644 16.0465 17.1637 15.6313V15.637C17.8403 15.2388 17.9142 15.2786 18.8068 15.563V15.5687C18.7215 15.5403 18.7556 15.5516 18.8068 15.5687C19.4379 15.7678 20.2339 16.018 20.1884 16.1546C19.961 16.8655 20.052 17.4457 20.3135 17.8667C21.1265 19.1976 23.0823 18.7881 23.6281 17.0817C23.8726 16.3139 24.1341 16.2115 25.1177 16.5243C26.414 16.9338 26.721 18.6004 25.6976 19.4479C24.4923 20.449 25.436 22.4796 27.0905 22.0359C28.5631 21.6434 29.8708 23.5204 28.745 24.8059C28.2049 25.4259 28.2674 26.37 28.8871 26.9161C29.251 27.2346 30.3653 27.428 30.4166 28.6965C30.445 29.5213 31.1386 30.1697 31.963 30.1355C33.0376 30.09 33.9814 31.1878 33.6118 32.3538C33.0376 34.1456 30.371 33.7815 30.3029 31.9045C30.2745 31.0797 29.5808 30.4313 28.7564 30.4654C28.222 30.4882 27.6819 30.2094 27.3578 29.7772C26.8973 29.1458 26.0387 28.9808 25.3792 29.379C24.4809 29.8852 23.213 29.3904 22.9457 28.2812C22.7581 27.5076 22.0076 27.0242 21.2344 27.1607V27.155L20.4213 27.1038C19.6879 26.8706 19.1705 25.4543 19.324 24.965C19.8812 23.2188 18.5849 22.7354 17.6752 22.4452C17.0214 22.2348 16.3789 22.3826 15.9582 22.9287C15.799 22.8718 15.6114 22.8036 15.3783 22.7296C14.5482 22.4623 13.8944 21.2905 14.389 20.335L14.3946 20.3407C14.4401 20.2497 14.4913 20.1701 14.5368 20.1075C15.2247 19.1746 14.6107 17.8607 13.4963 17.7356C12.905 17.6673 12.4388 17.3318 12.1773 16.8255C11.3415 15.2101 13.3144 13.6062 14.7301 14.7096L14.736 14.6871ZM15.2818 11.6155C15.8504 11.8203 16.3564 12.1217 16.7886 12.5085C17.7494 12.2127 18.5397 12.3379 19.6939 12.7076C19.6313 12.6848 19.4494 12.628 19.6939 12.7019C20.6149 12.992 21.6555 13.3162 22.366 13.9191C23.4065 13.2537 24.6858 13.2309 26.0332 13.6746C28.4267 14.4595 29.7629 16.9111 29.1431 19.3057C30.2575 19.7323 31.1161 20.54 31.6277 21.5296C32.219 22.6729 32.3213 24.0095 31.8608 25.2893C32.4578 25.8354 32.9069 26.5236 33.1571 27.2915C37.37 28.4177 37.8874 34.0602 34.1293 35.9999C31.5595 37.3252 28.4323 36.0169 27.5341 33.3037C26.8689 33.1274 26.2776 32.8316 25.7602 32.4107C23.6963 32.951 21.5187 32.0125 20.484 30.1525C18.2951 29.9364 16.8793 28.2527 16.4473 26.2392C15.9299 26.1596 15.1283 25.7785 14.4744 25.568C12.2571 24.857 10.8129 22.4111 11.3246 20.0848C10.54 19.6298 9.92023 18.9643 9.52221 18.185C8.33393 15.8814 9.24361 13.0545 11.5405 11.8657C12.5583 11.3424 13.7692 11.1889 14.9519 11.5188C15.0657 11.5415 15.1737 11.5756 15.276 11.6211L15.2818 11.6155ZM52.2544 15.5629C50.5487 14.0271 47.8993 15.8985 48.8203 18.0372C49.0818 18.6401 49.6788 19.1805 50.3611 19.2999C51.6119 19.516 52.0042 20.904 51.2878 21.7514C50.2985 22.9175 50.8728 24.675 52.2373 25.2154C53.8691 25.8638 53.1243 25.2325 54.159 24.8116C54.8299 24.5385 55.5747 24.7888 55.9613 25.3633C56.8199 25.8126 57.0075 26.0857 56.3423 27.7636C55.7169 29.3448 57.0757 30.8862 58.5255 30.7271C59.3272 30.6133 60.0777 31.1594 60.2142 31.9614C60.4587 33.3834 61.9767 34.1683 63.2731 33.5541C63.9496 33.2356 64.7683 33.4631 65.1777 34.1115C65.5473 34.6974 66.2125 35.0842 66.9061 35.1126C67.7249 35.1467 68.3673 35.8293 68.3389 36.6484C68.2707 39.0829 71.6422 39.7426 72.5235 37.5186C73.075 36.1365 72.0743 34.6121 70.6074 34.5495C69.7887 34.5153 69.1463 33.8328 69.1747 33.0137C69.1974 32.1946 68.7085 31.3415 67.9807 31.0058C66.9289 30.5224 66.7981 29.271 67.5088 28.5657C69.0156 27.0698 67.6623 24.493 65.5701 24.8969V24.8913C64.0123 25.187 63.1196 23.1394 64.4159 22.2065C65.8032 21.2054 65.5246 19.0553 63.9497 18.4296C63.2106 18.1338 62.6022 17.929 62.244 17.9632C61.9541 17.9916 61.8233 19.1804 60.8113 19.9141L60.8056 19.9084C59.9641 20.5227 58.6507 20.4658 58.2698 19.1234C57.8832 17.7583 59.2818 17.7981 57.4056 17.07C56.9337 16.888 55.9388 16.45 55.5009 16.5012L54.7505 16.7856C54.017 17.1724 53.113 16.888 52.7264 16.1599C52.607 15.9381 52.4535 15.7333 52.2545 15.557L52.2544 15.5629ZM52.8628 12.4459C52.7661 12.3947 52.6638 12.3549 52.5614 12.3265C51.2765 11.8601 49.929 11.934 48.7691 12.4346C46.1537 13.5608 44.9428 16.6039 46.0684 19.2204C46.4721 20.1532 47.1487 20.9666 48.0414 21.5353C47.2056 24.0779 48.5872 26.9788 51.032 27.9513C51.9132 28.2983 52.624 28.5884 53.1982 28.6907C53.2551 31.182 55.1142 33.3208 57.6273 33.6791C58.6109 35.9031 61.0158 37.1431 63.4039 36.6483C63.9781 37.2114 64.6888 37.6323 65.4848 37.8826C66.2125 41.0166 69.6011 42.7401 72.552 41.466C76.8844 39.6004 76.6626 33.2526 72.0289 31.7908C71.8072 30.8295 71.3239 29.9593 70.6189 29.2653C71.9038 26.592 70.6928 23.4124 67.9638 22.269C68.9587 19.6298 67.6624 16.7005 65.0414 15.6595C63.5176 15.0566 61.9258 14.5959 60.5726 15.4377C60.0097 14.9542 59.2592 14.6073 58.4917 14.3001C57.0703 13.737 55.9616 13.2649 54.563 13.646C54.0911 13.1398 53.5168 12.7359 52.8516 12.4458L52.8628 12.4459ZM129.134 79.6839H100.524V84.7178H129.134V79.6839ZM99.0224 76.6807C98.1923 76.6807 97.5215 77.3519 97.5215 78.1822V86.2193C97.5215 87.0498 98.1924 87.7209 99.0224 87.7209H130.634C131.464 87.7209 132.135 87.0497 132.135 86.2193V78.1822C132.135 77.3518 131.464 76.6807 130.634 76.6807H99.0224ZM108.711 95.4108H102.127V101.997H108.711V95.4108ZM100.626 92.4076C99.7956 92.4076 99.1247 93.0788 99.1247 93.9091V103.499C99.1247 104.329 99.7956 105.001 100.626 105.001H110.211C111.042 105.001 111.712 104.329 111.712 103.499V93.9091C111.712 93.0787 111.041 92.4076 110.211 92.4076H100.626ZM127.523 95.4108H120.939V101.997H127.523V95.4108ZM119.438 92.4076C118.608 92.4076 117.938 93.0788 117.938 93.9091V103.499C117.938 104.329 118.608 105.001 119.438 105.001H129.024C129.854 105.001 130.525 104.329 130.525 103.499V93.9091C130.525 93.0787 129.854 92.4076 129.024 92.4076H119.438ZM102.495 113.128H108.334C109.164 113.128 109.835 112.457 109.835 111.627C109.835 110.796 109.164 110.125 108.334 110.125H102.495C101.665 110.125 100.994 110.796 100.994 111.627C100.994 112.457 101.665 113.128 102.495 113.128ZM121.315 113.128H127.154C127.984 113.128 128.654 112.457 128.654 111.627C128.654 110.796 127.984 110.125 127.154 110.125H121.315C120.484 110.125 119.814 110.796 119.814 111.627C119.814 112.457 120.485 113.128 121.315 113.128ZM109.039 11C98.1686 11 89.3568 19.8164 89.3568 30.6912C89.3568 41.566 98.1694 50.3823 109.039 50.3823C119.91 50.3823 128.722 41.566 128.722 30.6912C128.722 19.8164 119.91 11 109.039 11ZM116.76 21.9835C116.249 19.4694 115.447 16.8814 114.253 14.8337C117.221 15.812 119.831 17.598 121.809 19.9528C120.257 20.789 118.563 21.4773 116.76 21.9891L116.76 21.9835ZM104.235 22.6377C104.554 21.0508 104.963 19.6117 105.44 18.366C107.692 12.5585 110.375 12.5585 112.627 18.366C113.11 19.6117 113.52 21.0508 113.832 22.6377C110.694 23.161 107.374 23.161 104.229 22.6377H104.235ZM96.264 19.9472C98.2426 17.5923 100.852 15.8063 103.82 14.828C102.626 16.8815 101.824 19.4694 101.313 21.9779C99.5103 21.466 97.8161 20.7834 96.2638 19.9417L96.264 19.9472ZM101.313 39.3937C99.5105 39.9056 97.8162 40.5882 96.264 41.43C98.2426 43.7848 100.852 45.5709 103.82 46.5491C102.626 44.4957 101.824 41.9077 101.313 39.3993L101.313 39.3937ZM113.838 38.7396C110.7 38.2163 107.379 38.2163 104.235 38.7396C104.554 40.3265 104.963 41.7656 105.44 43.0113C107.692 48.8188 110.375 48.8188 112.627 43.0113C113.11 41.7656 113.52 40.3265 113.832 38.7396H113.838ZM121.809 41.4301C120.257 40.594 118.563 39.9057 116.76 39.3939C116.249 41.908 115.447 44.496 114.253 46.5437C117.221 45.5654 119.825 43.7794 121.809 41.4246L121.809 41.4301ZM117.244 36.4247C117.71 32.699 117.71 28.6776 117.244 24.952C119.524 24.3263 121.599 23.4959 123.538 22.4208C126.454 27.5343 126.454 33.8481 123.538 38.9551C121.605 37.8801 119.529 37.0447 117.244 36.4247ZM103.775 35.7819C103.388 32.4829 103.388 28.8937 103.775 25.5947C107.237 26.1749 110.842 26.1749 114.304 25.5947C114.691 28.8937 114.691 32.4829 114.304 35.7819C110.836 35.2017 107.237 35.2017 103.775 35.7819ZM94.5414 38.9558C91.6247 33.8424 91.6247 27.5286 94.5414 22.4215C96.4744 23.4966 98.5497 24.3327 100.835 24.9527C100.369 28.6784 100.369 32.6997 100.835 36.4254C98.5497 37.0511 96.4801 37.8808 94.5414 38.9558ZM24.5581 99.0152V106.097H31.6366V99.0152H24.5581ZM38.9198 99.0152V106.097H45.9983V99.0152H38.9198ZM24.5581 111.381V118.462H31.6366V111.381H24.5581ZM38.9198 111.381V118.462H45.9983V111.381H38.9198ZM24.5581 123.747V130.828H31.6366V123.747H24.5581ZM38.9198 123.747V130.828H45.9983V123.747H38.9198ZM62.1743 99.0099V106.091H69.2528V99.0099H62.1743ZM76.536 99.0099V106.091H83.6145V99.0099H76.536ZM62.1743 111.376V118.457H69.2528V111.376H62.1743ZM76.536 111.376V118.457H83.6145V111.376H76.536ZM62.1743 123.741V130.823H69.2528V123.741H62.1743ZM76.536 123.741V130.823H83.6145V123.741H76.536Z" fill="#663366"/>
<path d="M88.7718 137.952V137.802H88.7661V137.952V138.102H88.7718V137.952ZM17.4473 90.975H17.1473V91.3965L17.5455 91.2585L17.4473 90.975ZM53.107 78.6207L53.2052 78.9042L53.407 78.8342V78.6207H53.107ZM53.107 75.225H53.407V74.8036L53.0088 74.9415L53.107 75.225ZM17.4473 87.5793L17.3491 87.2959L17.1473 87.3658V87.5793H17.4473ZM53.107 81.7832H53.407V81.3618L53.0088 81.4998L53.107 81.7832ZM17.4476 94.137L17.3494 93.8535L17.1476 93.9234V94.137H17.4476ZM56.109 93.1023L55.809 93.1024L55.8091 93.4972L56.1895 93.3913L56.109 93.1023ZM89.6815 83.7512L89.762 84.0402L89.9815 83.9791V83.7512H89.6815ZM89.6133 81.5273L89.3492 81.6697L89.3504 81.6718L89.6133 81.5273ZM88.5046 81.1291L88.4246 80.8399L88.4241 80.8401L88.5046 81.1291ZM56.1081 90.1502L56.0276 89.8612L55.808 89.9224L55.8081 90.1503L56.1081 90.1502ZM88.7661 137.952L88.7611 138.252H88.7661V137.952ZM55.9781 137.401L55.6877 137.325L55.5921 137.694L55.9731 137.701L55.9781 137.401ZM56.1032 96.2082L56.0227 95.9192L55.8032 95.9804V96.2082H56.1032ZM89.6757 86.8572H89.9757V86.4622L89.5952 86.5682L89.6757 86.8572ZM30.9216 52.6045L30.622 52.5886L30.6052 52.9045H30.9216V52.6045ZM38.2161 52.6045V52.9045H38.5548L38.5139 52.5683L38.2161 52.6045ZM36.9653 42.332L37.2631 42.2958L37.231 42.032H36.9653V42.332ZM31.4674 42.332V42.032H31.1829L31.1679 42.3161L31.4674 42.332ZM30.5804 58.9978L30.2809 58.9818L30.2639 59.2978H30.5804V58.9978ZM38.995 58.9978V59.2978H39.3339L39.2927 58.9614L38.995 58.9978ZM38.5799 55.6021L38.8777 55.5657L38.8455 55.3021H38.5799V55.6021ZM30.7623 55.6021V55.3021H30.4779L30.4627 55.5861L30.7623 55.6021ZM39.3588 62.0011L39.6566 61.9648L39.6245 61.7011H39.3588V62.0011ZM41.0929 76.2267L41.1911 76.5102L41.42 76.4309L41.3907 76.1904L41.0929 76.2267ZM29.4489 80.2594L29.1493 80.2435L29.1258 80.6888L29.5471 80.5429L29.4489 80.2594ZM30.4155 62.0011V61.7011H30.1309L30.1159 61.9852L30.4155 62.0011ZM68.543 58.4062L68.2435 58.3891L68.2254 58.7062H68.543V58.4062ZM75.8148 58.4062V58.7062H76.1571L76.1123 58.3669L75.8148 58.4062ZM74.5925 49.1518L74.8899 49.1125L74.8554 48.8518H74.5925V49.1518ZM69.0718 49.1518V48.8518H68.7884L68.7722 49.1347L69.0718 49.1518ZM76.5937 64.3103V64.6103H76.9363L76.8911 64.2707L76.5937 64.3103ZM76.2071 61.4094L76.5045 61.3698L76.4698 61.1094H76.2071V61.4094ZM68.3611 61.4094V61.1094H68.0777L68.0616 61.3924L68.3611 61.4094ZM68.1962 64.3103L67.8967 64.2933L67.8787 64.6103H68.1962V64.3103ZM76.9918 67.3136L77.2892 67.2743L76.6918 67.3104L76.9918 67.3136ZM78.7657 80.743L78.8463 81.032L79.0973 80.962L79.0632 80.7037L78.7657 80.743ZM67.0705 84.0022L66.771 83.985L66.7469 84.4039L67.1511 84.2912L67.0705 84.0022ZM68.0314 67.3194V67.0194H67.7482L67.7319 67.3022L68.0314 67.3194ZM76.9917 67.3194V67.6194H77.2886L77.2917 67.3226L76.9917 67.3194ZM121.942 137.987L121.942 138.287L122.242 138.287V137.987H121.942ZM121.942 122.077H122.242V121.777H121.942V122.077ZM107.728 122.077V121.777H107.428V122.077H107.728ZM107.728 137.975H107.428V138.275L107.728 138.275L107.728 137.975ZM136.992 70.2535L136.692 70.2532V70.2535H136.992ZM136.992 137.28H136.692V137.58H136.992V137.28ZM136.997 137.28H137.297V136.98H136.997V137.28ZM136.105 137.991V137.691H135.805V137.991H136.105ZM136.105 137.997L136.105 138.297L136.405 138.297V137.997H136.105ZM124.944 137.986H124.644V138.285L124.944 138.286L124.944 137.986ZM104.727 137.962L104.726 138.262L105.027 138.263V137.962H104.727ZM92.6051 137.951L92.3106 137.894L92.241 138.251L92.6048 138.251L92.6051 137.951ZM92.679 137.229H92.979V137.229L92.679 137.229ZM92.6733 70.2411V69.9411H92.3733L92.3733 70.2411L92.6733 70.2411ZM136.992 70.2411L137.292 70.2414L137.292 69.9411H136.992V70.2411ZM92.6733 67.2502L92.3733 67.2504L92.3735 67.5502H92.6733V67.2502ZM136.992 67.2502V67.5502H137.292V67.2502H136.992ZM92.6724 65.1115H92.3724V65.1116L92.6724 65.1115ZM134.605 61.3974V61.6974H134.905V61.3974H134.605ZM134.605 53.3204H134.905V53.0204H134.605V53.3204ZM127.14 53.3204V53.0204H126.95L126.869 53.1915L127.14 53.3204ZM123.296 61.3974L123.025 61.2684L122.821 61.6974H123.296V61.3974ZM119.976 61.3974L119.976 61.6974L120.165 61.6974L120.246 61.5263L119.976 61.3974ZM124.842 51.1761L125.113 51.3051L125.114 51.3045L124.842 51.1761ZM137.612 61.693H137.312V61.895L137.499 61.971L137.612 61.693ZM140 137.286V137.586H140.3V137.286H140ZM139.994 137.286V136.986H139.694V137.286H139.994ZM136.111 141H135.811V141.3H136.111V141ZM136.111 140.994H136.411V140.695L136.111 140.694L136.111 140.994ZM88.8758 140.949L88.876 140.649H88.8758V140.949ZM88.7279 140.949L88.7229 141.249H88.7279V140.949ZM52.374 140.334L52.379 140.034H52.374V140.334ZM52.2261 140.34L52.2261 140.64H52.2261V140.34ZM18.3349 140.334L18.3349 140.034H18.3349V140.334ZM15.5887 85.059L15.6621 85.3499L15.6747 85.3467L15.6869 85.3425L15.5887 85.059ZM26.397 81.3163L26.4951 81.5998L26.6858 81.5337L26.6965 81.3322L26.397 81.3163ZM27.5113 60.3102L27.2117 60.2943L27.2117 60.2943L27.5113 60.3102ZM27.8411 54.1047L28.1406 54.1206L28.1411 54.1126V54.1047H27.8411ZM27.8524 53.917L28.1513 53.9468L28.152 53.9329L27.8524 53.917ZM28.5518 40.7549L28.8513 40.7708L28.8514 40.7698L28.5518 40.7549ZM30.047 39.3329V39.6329H30.347V39.3329H30.047ZM30.047 39.3272V39.0272H29.747V39.3272H30.047ZM39.7806 40.6923L39.4817 40.7189L39.4829 40.7287L39.7806 40.6923ZM42.1685 60.2641L41.8705 60.3005L41.8726 60.3134L42.1685 60.2641ZM42.1799 60.3608H41.8799V60.3791L41.8821 60.3972L42.1799 60.3608ZM43.9936 75.2177L43.6958 75.254L43.7408 75.6228L44.0918 75.5011L43.9936 75.2177ZM54.1195 71.7081L54.0221 71.4243L54.0213 71.4246L54.1195 71.7081ZM56.0981 73.1187H55.7981V73.4187H56.0981V73.1187ZM56.1038 73.1187H56.4038V72.8187H56.1038V73.1187ZM56.1038 87.0429H55.8038V87.4379L56.1843 87.3319L56.1038 87.0429ZM64.0237 84.836L64.1043 85.125L64.311 85.0674L64.3232 84.8532L64.0237 84.836ZM65.1267 65.6108L64.8272 65.5935L64.8272 65.5936L65.1267 65.6108ZM65.4565 59.9L65.756 59.9173L65.7565 59.9087V59.9H65.4565ZM65.4679 59.7066L65.7668 59.7338L65.7674 59.7239L65.4679 59.7066ZM66.1672 47.5629L66.4667 47.5801L66.4667 47.58L66.1672 47.5629ZM67.6624 46.1465V46.4465H67.9624V46.1465H67.6624ZM67.6624 46.1408V45.8408H67.3624V46.1408H67.6624ZM77.3961 47.5685L77.0963 47.5814L77.0969 47.5946L77.0986 47.6078L77.3961 47.5685ZM78.9823 59.5759L78.6848 59.6152L78.6864 59.627L78.6889 59.6387L78.9823 59.5759ZM79.0164 59.8262L78.717 59.8461L78.7177 59.8559L78.719 59.8656L79.0164 59.8262ZM79.7669 65.4857L79.4695 65.5251L79.471 65.5369L79.4735 65.5485L79.7669 65.4857ZM79.801 65.736L79.5016 65.7559L79.5023 65.7656L79.5036 65.7753L79.801 65.736ZM81.6773 79.9275L81.3799 79.9668L81.4251 80.309L81.7577 80.2165L81.6773 79.9275ZM87.7096 78.2496L87.6298 77.9604L87.6292 77.9606L87.7096 78.2496ZM89.6825 78.1927L89.6152 78.4851L89.9823 78.5696L89.9825 78.1929L89.6825 78.1927ZM89.6882 65.1103L89.9882 65.1105V65.1103H89.6882ZM93.5715 61.396L93.5715 61.096H93.5715V61.396ZM18.8126 15.5629H18.5126V15.7791L18.7177 15.8475L18.8126 15.5629ZM18.8126 15.5572L18.9075 15.2726L18.5126 15.1409V15.5572H18.8126ZM19.6996 12.7076L19.7723 12.4166L19.5881 12.9861L19.6996 12.7076ZM14.736 14.6871L14.9214 14.4512L14.562 14.1687L14.4459 14.6108L14.736 14.6871ZM15.134 15.1307L14.8767 15.285L14.8784 15.2878L15.134 15.1307ZM17.1637 15.6313H17.4637V15.1042L17.0105 15.3733L17.1637 15.6313ZM17.1637 15.637H16.8637V16.1616L17.3159 15.8955L17.1637 15.637ZM18.8068 15.563H19.1068V15.3437L18.8979 15.2772L18.8068 15.563ZM18.8068 15.5687L18.7119 15.8533L18.7166 15.8548L18.8068 15.5687ZM20.1884 16.1546L19.9038 16.0597L19.9027 16.0632L20.1884 16.1546ZM20.3135 17.8667L20.5695 17.7103L20.5683 17.7083L20.3135 17.8667ZM23.6281 17.0817L23.9138 17.1731L23.914 17.1727L23.6281 17.0817ZM25.1177 16.5243L25.0267 16.8102L25.0273 16.8104L25.1177 16.5243ZM25.6976 19.4479L25.5062 19.2168L25.5059 19.2171L25.6976 19.4479ZM27.0905 22.0359L27.0133 21.746L27.0128 21.7461L27.0905 22.0359ZM28.745 24.8059L28.5193 24.6082L28.5188 24.6088L28.745 24.8059ZM28.8871 26.9161L28.6888 27.1412L28.6895 27.1418L28.8871 26.9161ZM30.4166 28.6965L30.7164 28.6862L30.7163 28.6844L30.4166 28.6965ZM31.963 30.1355L31.9754 30.4353L31.9757 30.4353L31.963 30.1355ZM33.6118 32.3538L33.8975 32.4454L33.8978 32.4444L33.6118 32.3538ZM30.3029 31.9045L30.0031 31.9148L30.0031 31.9153L30.3029 31.9045ZM28.7564 30.4654L28.744 30.1657L28.7437 30.1657L28.7564 30.4654ZM27.3578 29.7772L27.1154 29.954L27.1178 29.9571L27.3578 29.7772ZM25.3792 29.379L25.5265 29.6405L25.5342 29.6358L25.3792 29.379ZM22.9457 28.2812L23.2374 28.2109L23.2373 28.2105L22.9457 28.2812ZM21.2344 27.1607H20.9344V27.5183L21.2865 27.4561L21.2344 27.1607ZM21.2344 27.155H21.5344V26.8733L21.2532 26.8556L21.2344 27.155ZM20.4213 27.1038L20.3304 27.3897L20.3656 27.4009L20.4025 27.4032L20.4213 27.1038ZM19.324 24.965L19.0382 24.8738L19.0378 24.8752L19.324 24.965ZM17.6752 22.4452L17.5833 22.7308L17.5841 22.731L17.6752 22.4452ZM15.9582 22.9287L15.8572 23.2112L16.0627 23.2846L16.1958 23.1118L15.9582 22.9287ZM15.3783 22.7296L15.2863 23.0152L15.2875 23.0156L15.3783 22.7296ZM14.389 20.335L14.6011 20.1229L14.3111 19.8328L14.1225 20.1971L14.389 20.335ZM14.3946 20.3407L14.1825 20.5528L14.4769 20.8472L14.663 20.4748L14.3946 20.3407ZM14.5368 20.1075L14.2953 19.9294L14.2941 19.9311L14.5368 20.1075ZM13.4963 17.7356L13.4619 18.0336L13.4629 18.0337L13.4963 17.7356ZM12.1773 16.8255L12.4438 16.6878L12.4437 16.6877L12.1773 16.8255ZM14.7301 14.7096L14.5457 14.9462L14.9046 15.226L15.0202 14.7859L14.7301 14.7096ZM15.2818 11.6155L15.3835 11.3333L15.2072 11.2697L15.0728 11.4004L15.2818 11.6155ZM16.7886 12.5085L16.5885 12.7321L16.7148 12.8451L16.8768 12.7952L16.7886 12.5085ZM19.6939 12.7076L19.6024 12.9933L19.7964 12.4257L19.6939 12.7076ZM19.6939 12.7019L19.784 12.4157L19.7807 12.4148L19.6939 12.7019ZM22.366 13.9191L22.1719 14.1479L22.341 14.2913L22.5277 14.1719L22.366 13.9191ZM26.0332 13.6746L25.9393 13.9595L25.9397 13.9596L26.0332 13.6746ZM29.1431 19.3057L28.8527 19.2305L28.7855 19.49L29.0359 19.5859L29.1431 19.3057ZM31.6277 21.5296L31.3612 21.6674L31.3612 21.6674L31.6277 21.5296ZM31.8608 25.2893L31.5785 25.1878L31.5108 25.3758L31.6583 25.5107L31.8608 25.2893ZM33.1571 27.2915L32.8718 27.3844L32.9223 27.5393L33.0796 27.5813L33.1571 27.2915ZM34.1293 35.9999L34.2668 36.2665L34.2669 36.2664L34.1293 35.9999ZM27.5341 33.3037L27.8189 33.2094L27.7679 33.0553L27.611 33.0137L27.5341 33.3037ZM25.7602 32.4107L25.9495 32.178L25.8314 32.0819L25.6842 32.1205L25.7602 32.4107ZM20.484 30.1525L20.7462 30.0067L20.6698 29.8694L20.5135 29.854L20.484 30.1525ZM16.4473 26.2392L16.7406 26.1763L16.6973 25.9741L16.493 25.9427L16.4473 26.2392ZM14.4744 25.568L14.5663 25.2824L14.566 25.2823L14.4744 25.568ZM11.3246 20.0848L11.6176 20.1493L11.6646 19.9352L11.4751 19.8253L11.3246 20.0848ZM9.52221 18.185L9.78938 18.0486L9.78883 18.0475L9.52221 18.185ZM11.5405 11.8657L11.4034 11.5989L11.4027 11.5993L11.5405 11.8657ZM14.9519 11.5188L14.8713 11.8077L14.8821 11.8107L14.8931 11.8129L14.9519 11.5188ZM15.276 11.6211L15.1542 11.8953L15.3396 11.9777L15.4851 11.8363L15.276 11.6211ZM52.2544 15.5629L52.0537 15.7859L52.5396 16.2234L52.5543 15.5697L52.2544 15.5629ZM48.8203 18.0372L48.5448 18.1558L48.5451 18.1565L48.8203 18.0372ZM50.3611 19.2999L50.3094 19.5954L50.31 19.5955L50.3611 19.2999ZM51.2878 21.7514L51.5166 21.9455L51.5169 21.9451L51.2878 21.7514ZM52.2373 25.2154L52.3481 24.9366L52.3478 24.9365L52.2373 25.2154ZM54.159 24.8116L54.272 25.0894L54.2721 25.0894L54.159 24.8116ZM55.9613 25.3633L55.7125 25.5308L55.7549 25.5939L55.8222 25.6291L55.9613 25.3633ZM56.3423 27.7636L56.0634 27.653L56.0633 27.6532L56.3423 27.7636ZM58.5255 30.7271L58.5583 31.0254L58.5677 31.0241L58.5255 30.7271ZM60.2142 31.9614L59.9184 32.0117L59.9185 32.0122L60.2142 31.9614ZM63.2731 33.5541L63.1453 33.2827L63.1446 33.283L63.2731 33.5541ZM65.1777 34.1115L65.4315 33.9515L65.4314 33.9513L65.1777 34.1115ZM66.9061 35.1126L66.9186 34.8129L66.9184 34.8128L66.9061 35.1126ZM68.3389 36.6484L68.0391 36.638L68.039 36.64L68.3389 36.6484ZM72.5235 37.5186L72.2448 37.4075L72.2446 37.4081L72.5235 37.5186ZM70.6074 34.5495L70.6202 34.2497L70.6199 34.2497L70.6074 34.5495ZM69.1747 33.0137L69.4745 33.0241L69.4746 33.022L69.1747 33.0137ZM67.9807 31.0058L68.1064 30.7334L68.106 30.7332L67.9807 31.0058ZM67.5088 28.5657L67.7201 28.7786L67.7202 28.7786L67.5088 28.5657ZM65.5701 24.8969H65.2701V25.2604L65.627 25.1915L65.5701 24.8969ZM65.5701 24.8913H65.8701V24.5289L65.5141 24.5965L65.5701 24.8913ZM64.4159 22.2065L64.5912 22.45L64.5915 22.4497L64.4159 22.2065ZM63.9497 18.4296L63.8383 18.7081L63.839 18.7084L63.9497 18.4296ZM62.244 17.9632L62.2156 17.6645L62.2147 17.6646L62.244 17.9632ZM60.8113 19.9141L60.5991 20.1262L60.7801 20.3072L60.9873 20.157L60.8113 19.9141ZM60.8056 19.9084L61.0177 19.6963L60.8362 19.5146L60.6287 19.6661L60.8056 19.9084ZM58.2698 19.1234L57.9812 19.2052L57.9812 19.2053L58.2698 19.1234ZM57.4056 17.07L57.5141 16.7903L57.5136 16.7901L57.4056 17.07ZM55.5009 16.5012L55.4661 16.2033L55.4293 16.2076L55.3946 16.2207L55.5009 16.5012ZM54.7505 16.7856L54.6441 16.5051L54.6269 16.5116L54.6105 16.5203L54.7505 16.7856ZM52.7264 16.1599L52.9914 16.0192L52.9906 16.0178L52.7264 16.1599ZM52.2545 15.557L52.4535 15.3325L51.9692 14.9034L51.9546 15.5502L52.2545 15.557ZM52.8628 12.4459L52.8599 12.7459L53.0032 12.1808L52.8628 12.4459ZM52.5614 12.3265L52.4591 12.6085L52.4699 12.6124L52.4811 12.6155L52.5614 12.3265ZM48.7691 12.4346L48.8878 12.7101L48.888 12.71L48.7691 12.4346ZM46.0684 19.2204L45.7929 19.3389L45.7931 19.3395L46.0684 19.2204ZM48.0414 21.5353L48.3264 21.629L48.3992 21.4076L48.2026 21.2823L48.0414 21.5353ZM51.032 27.9513L50.9211 28.2301L50.9221 28.2305L51.032 27.9513ZM53.1982 28.6907L53.4981 28.6839L53.4925 28.4385L53.2509 28.3954L53.1982 28.6907ZM57.6273 33.6791L57.9016 33.5578L57.8343 33.4056L57.6696 33.3821L57.6273 33.6791ZM63.4039 36.6483L63.6139 36.4341L63.4997 36.3221L63.343 36.3546L63.4039 36.6483ZM65.4848 37.8826L65.777 37.8148L65.7383 37.6478L65.5748 37.5964L65.4848 37.8826ZM72.552 41.466L72.4333 41.1905L72.433 41.1906L72.552 41.466ZM72.0289 31.7908L71.7366 31.8582L71.7751 32.0253L71.9386 32.0769L72.0289 31.7908ZM70.6189 29.2653L70.3485 29.1353L70.2556 29.3286L70.4084 29.4791L70.6189 29.2653ZM67.9638 22.269L67.683 22.1632L67.581 22.4339L67.8478 22.5457L67.9638 22.269ZM65.0414 15.6595L65.1521 15.3807L65.1518 15.3806L65.0414 15.6595ZM60.5726 15.4377L60.3771 15.6653L60.5441 15.8087L60.7311 15.6924L60.5726 15.4377ZM58.4917 14.3001L58.6031 14.0216L58.6022 14.0212L58.4917 14.3001ZM54.563 13.646L54.3435 13.8506L54.4671 13.9831L54.6419 13.9354L54.563 13.646ZM52.8516 12.4458L52.8545 12.1458L52.7317 12.7208L52.8516 12.4458ZM129.134 79.6839H129.434V79.3839H129.134V79.6839ZM100.524 79.6839V79.3839H100.224V79.6839H100.524ZM100.524 84.7178H100.224V85.0178H100.524V84.7178ZM129.134 84.7178V85.0178H129.434V84.7178H129.134ZM108.711 95.4108H109.011V95.1108H108.711V95.4108ZM102.127 95.4108V95.1108H101.827V95.4108H102.127ZM102.127 101.997H101.827V102.297H102.127V101.997ZM108.711 101.997V102.297H109.011V101.997H108.711ZM127.523 95.4108H127.823V95.1108H127.523V95.4108ZM120.939 95.4108V95.1108H120.639V95.4108H120.939ZM120.939 101.997H120.639V102.297H120.939V101.997ZM127.523 101.997V102.297H127.823V101.997H127.523ZM116.76 21.9835L117.06 21.9914L117.061 21.9572L117.054 21.9237L116.76 21.9835ZM114.253 14.8337L114.347 14.5488L113.595 14.3009L113.994 14.9848L114.253 14.8337ZM121.809 19.9528L121.951 20.217L122.276 20.0421L122.039 19.7598L121.809 19.9528ZM116.76 21.9891L116.46 21.9813L116.45 22.3891L116.842 22.2777L116.76 21.9891ZM104.235 22.6377V22.9377H104.481L104.529 22.6967L104.235 22.6377ZM105.44 18.366L105.161 18.2575L105.16 18.2586L105.44 18.366ZM112.627 18.366L112.347 18.4744L112.347 18.4745L112.627 18.366ZM113.832 22.6377L113.882 22.9336L114.186 22.8828L114.127 22.5797L113.832 22.6377ZM104.229 22.6377V22.3377L104.18 22.9336L104.229 22.6377ZM96.264 19.9472L95.9641 19.955L95.9847 20.7459L96.4936 20.1402L96.264 19.9472ZM103.82 14.828L104.079 14.9788L104.477 14.2958L103.726 14.5431L103.82 14.828ZM101.313 21.9779L101.231 22.2665L101.542 22.3549L101.607 22.0379L101.313 21.9779ZM96.2638 19.9417L96.4068 19.6779L95.9504 19.4304L95.9639 19.9495L96.2638 19.9417ZM101.313 39.3937L101.613 39.4016L101.623 38.9937L101.231 39.1051L101.313 39.3937ZM96.264 41.43L96.1209 41.1663L95.7978 41.3415L96.0343 41.623L96.264 41.43ZM103.82 46.5491L103.726 46.8341L104.477 47.0814L104.079 46.3983L103.82 46.5491ZM101.313 39.3993L101.013 39.3914L101.012 39.4257L101.019 39.4592L101.313 39.3993ZM113.838 38.7396V39.0396L113.887 38.4437L113.838 38.7396ZM104.235 38.7396L104.186 38.4437L103.88 38.4946L103.941 38.7986L104.235 38.7396ZM105.44 43.0113L105.16 43.1187L105.161 43.1197L105.44 43.0113ZM112.627 43.0113L112.347 42.9028L112.347 42.9029L112.627 43.0113ZM113.832 38.7396V38.4396H113.586L113.538 38.6816L113.832 38.7396ZM121.809 41.4301L121.667 41.6942L122.123 41.9397L122.109 41.4223L121.809 41.4301ZM116.76 39.3939L116.842 39.1053L116.531 39.0168L116.466 39.334L116.76 39.3939ZM114.253 46.5437L113.994 46.3926L113.595 47.0765L114.347 46.8286L114.253 46.5437ZM121.809 41.4246L122.109 41.4167L122.088 40.6275L121.58 41.2312L121.809 41.4246ZM117.244 36.4247L116.946 36.3874L116.914 36.646L117.165 36.7142L117.244 36.4247ZM117.244 24.952L117.164 24.6627L116.914 24.7315L116.946 24.9893L117.244 24.952ZM123.538 22.4208L123.798 22.2722L123.651 22.0147L123.392 22.1585L123.538 22.4208ZM123.538 38.9551L123.392 39.2173L123.651 39.3615L123.798 39.1039L123.538 38.9551ZM103.775 35.7819L103.477 35.8168L103.513 36.1299L103.824 36.0778L103.775 35.7819ZM103.775 25.5947L103.824 25.2988L103.513 25.2468L103.477 25.5598L103.775 25.5947ZM114.304 25.5947L114.602 25.5598L114.566 25.2468L114.255 25.2988L114.304 25.5947ZM114.304 35.7819L114.255 36.0778L114.566 36.1298L114.602 35.8168L114.304 35.7819ZM94.5414 38.9558L94.2808 39.1045L94.4276 39.3619L94.6869 39.2182L94.5414 38.9558ZM94.5414 22.4215L94.6872 22.1594L94.428 22.0152L94.2809 22.2728L94.5414 22.4215ZM100.835 24.9527L101.133 24.99L101.165 24.7314L100.914 24.6632L100.835 24.9527ZM100.835 36.4254L100.914 36.7147L101.165 36.6461L101.133 36.3881L100.835 36.4254ZM24.5581 99.0152V98.7151H24.2581V99.0152H24.5581ZM24.5581 106.097H24.2581V106.397H24.5581V106.097ZM31.6366 106.097V106.397H31.9366V106.097H31.6366ZM31.6366 99.0152H31.9366V98.7151H31.6366V99.0152ZM38.9198 99.0152V98.7151H38.6198V99.0152H38.9198ZM38.9198 106.097H38.6198V106.397H38.9198V106.097ZM45.9983 106.097V106.397H46.2983V106.097H45.9983ZM45.9983 99.0152H46.2983V98.7151H45.9983V99.0152ZM24.5581 111.381V111.081H24.2581V111.381H24.5581ZM24.5581 118.462H24.2581V118.762H24.5581V118.462ZM31.6366 118.462V118.762H31.9366V118.462H31.6366ZM31.6366 111.381H31.9366V111.081H31.6366V111.381ZM38.9198 111.381V111.081H38.6198V111.381H38.9198ZM38.9198 118.462H38.6198V118.762H38.9198V118.462ZM45.9983 118.462V118.762H46.2983V118.462H45.9983ZM45.9983 111.381H46.2983V111.081H45.9983V111.381ZM24.5581 123.747V123.447H24.2581V123.747H24.5581ZM24.5581 130.828H24.2581V131.128H24.5581V130.828ZM31.6366 130.828V131.128H31.9366V130.828H31.6366ZM31.6366 123.747H31.9366V123.447H31.6366V123.747ZM38.9198 123.747V123.447H38.6198V123.747H38.9198ZM38.9198 130.828H38.6198V131.128H38.9198V130.828ZM45.9983 130.828V131.128H46.2983V130.828H45.9983ZM45.9983 123.747H46.2983V123.447H45.9983V123.747ZM62.1743 99.0099V98.7099H61.8743V99.0099H62.1743ZM62.1743 106.091H61.8743V106.391H62.1743V106.091ZM69.2528 106.091V106.391H69.5528V106.091H69.2528ZM69.2528 99.0099H69.5528V98.7099H69.2528V99.0099ZM76.536 99.0099V98.7099H76.236V99.0099H76.536ZM76.536 106.091H76.236V106.391H76.536V106.091ZM83.6145 106.091V106.391H83.9145V106.091H83.6145ZM83.6145 99.0099H83.9145V98.7099H83.6145V99.0099ZM62.1743 111.376V111.076H61.8743V111.376H62.1743ZM62.1743 118.457H61.8743V118.757H62.1743V118.457ZM69.2528 118.457V118.757H69.5528V118.457H69.2528ZM69.2528 111.376H69.5528V111.076H69.2528V111.376ZM76.536 111.376V111.076H76.236V111.376H76.536ZM76.536 118.457H76.236V118.757H76.536V118.457ZM83.6145 118.457V118.757H83.9145V118.457H83.6145ZM83.6145 111.376H83.9145V111.076H83.6145V111.376ZM62.1743 123.741V123.441H61.8743V123.741H62.1743ZM62.1743 130.823H61.8743V131.123H62.1743V130.823ZM69.2528 130.823V131.123H69.5528V130.823H69.2528ZM69.2528 123.741H69.5528V123.441H69.2528V123.741ZM76.536 123.741V123.441H76.236V123.741H76.536ZM76.536 130.823H76.236V131.123H76.536V130.823ZM83.6145 130.823V131.123H83.9145V130.823H83.6145ZM83.6145 123.741H83.9145V123.441H83.6145V123.741ZM17.4473 90.975L17.5455 91.2585L53.2052 78.9042L53.107 78.6207L53.0088 78.3372L17.3491 90.6916L17.4473 90.975ZM53.107 78.6207H53.407V75.225H53.107H52.807V78.6207H53.107ZM53.107 75.225L53.0088 74.9415L17.3491 87.2959L17.4473 87.5793L17.5455 87.8628L53.2052 75.5085L53.107 75.225ZM17.4473 87.5793H17.1473V90.975H17.4473H17.7473V87.5793H17.4473ZM53.107 81.7832H52.807V136.433H53.107H53.407V81.7832H53.107ZM53.107 136.433H52.807C52.807 136.767 52.5439 137.032 52.2201 137.032V137.332V137.632C52.8855 137.632 53.407 137.088 53.407 136.433H53.107ZM52.2201 137.332V137.032H18.3346V137.332V137.632H52.2201V137.332ZM18.3346 137.332V137.032C18.0051 137.032 17.7476 136.773 17.7476 136.433H17.4476H17.1476C17.1476 137.094 17.6635 137.632 18.3346 137.632V137.332ZM17.4476 136.433H17.7476V94.137H17.4476H17.1476V136.433H17.4476ZM17.4476 94.137L17.5458 94.4205L53.2052 82.0667L53.107 81.7832L53.0088 81.4998L17.3494 93.8535L17.4476 94.137ZM56.109 93.1023L56.1895 93.3913L89.762 84.0402L89.6815 83.7512L89.601 83.4622L56.0285 92.8133L56.109 93.1023ZM89.6815 83.7512H89.9815C89.9815 83.6506 89.985 83.4785 89.9884 83.2653C89.9918 83.0547 89.995 82.8087 89.9943 82.5679C89.9936 82.3281 89.9889 82.0888 89.976 81.8927C89.9696 81.7949 89.9609 81.7028 89.9484 81.6242C89.9378 81.5572 89.9193 81.4612 89.8761 81.3827L89.6133 81.5273L89.3504 81.6718C89.3385 81.6502 89.3456 81.6533 89.3558 81.718C89.3642 81.771 89.3715 81.843 89.3773 81.932C89.389 82.1093 89.3936 82.3339 89.3943 82.5697C89.395 82.8046 89.3918 83.0459 89.3885 83.2557C89.3851 83.463 89.3815 83.6442 89.3815 83.7512H89.6815ZM89.6133 81.5273L89.8773 81.3848C89.6021 80.8747 88.9575 80.6926 88.4246 80.8399L88.5046 81.1291L88.5845 81.4182C88.9158 81.3267 89.2378 81.4631 89.3492 81.6697L89.6133 81.5273ZM88.5046 81.1291L88.4241 80.8401L56.0276 89.8612L56.1081 90.1502L56.1886 90.4392L88.5851 81.4181L88.5046 81.1291ZM56.1081 90.1502L55.8081 90.1503L55.809 93.1024L56.109 93.1023L56.409 93.1022L56.4081 90.1501L56.1081 90.1502ZM88.7661 137.952L88.7712 137.652L55.9832 137.101L55.9781 137.401L55.9731 137.701L88.7611 138.252L88.7661 137.952ZM55.9781 137.401L56.2685 137.476C56.354 137.146 56.4032 136.796 56.4032 136.434H56.1032H55.8032C55.8032 136.742 55.7614 137.041 55.6877 137.325L55.9781 137.401ZM56.1032 136.434H56.4032V96.2082H56.1032H55.8032V136.434H56.1032ZM56.1032 96.2082L56.1837 96.4972L89.7562 87.1462L89.6757 86.8572L89.5952 86.5682L56.0227 95.9192L56.1032 96.2082ZM89.6757 86.8572H89.3757V137.236H89.6757H89.9757V86.8572H89.6757ZM89.6757 137.236H89.3757C89.3757 137.348 89.3227 137.443 89.2135 137.52C89.0987 137.602 88.9339 137.652 88.7661 137.652V137.952V138.252C89.0418 138.252 89.3318 138.172 89.561 138.009C89.7956 137.843 89.9757 137.579 89.9757 137.236H89.6757ZM30.9216 52.6045V52.9045H38.2161V52.6045V52.3045H30.9216V52.6045ZM38.2161 52.6045L38.5139 52.5683L37.2631 42.2958L36.9653 42.332L36.6675 42.3683L37.9183 52.6408L38.2161 52.6045ZM36.9653 42.332V42.032H31.4674V42.332V42.632H36.9653V42.332ZM31.4674 42.332L31.1679 42.3161L30.622 52.5886L30.9216 52.6045L31.2211 52.6205L31.767 42.3479L31.4674 42.332ZM30.5804 58.9978V59.2978H38.995V58.9978V58.6978H30.5804V58.9978ZM38.995 58.9978L39.2927 58.9614L38.8777 55.5657L38.5799 55.6021L38.2821 55.6385L38.6972 59.0342L38.995 58.9978ZM38.5799 55.6021V55.3021H30.7623V55.6021V55.9021H38.5799V55.6021ZM30.7623 55.6021L30.4627 55.5861L30.2809 58.9818L30.5804 58.9978L30.88 59.0138L31.0619 55.6182L30.7623 55.6021ZM39.3588 62.0011L39.061 62.0374L40.7951 76.263L41.0929 76.2267L41.3907 76.1904L39.6566 61.9648L39.3588 62.0011ZM41.0929 76.2267L40.9947 75.9432L29.3507 79.9759L29.4489 80.2594L29.5471 80.5429L41.1911 76.5102L41.0929 76.2267ZM29.4489 80.2594L29.7485 80.2753L30.715 62.0169L30.4155 62.0011L30.1159 61.9852L29.1493 80.2435L29.4489 80.2594ZM30.4155 62.0011V62.3011H39.3588V62.0011V61.7011H30.4155V62.0011ZM68.543 58.4062V58.7062H75.8148V58.4062V58.1062H68.543V58.4062ZM75.8148 58.4062L76.1123 58.3669L74.8899 49.1125L74.5925 49.1518L74.295 49.1911L75.5174 58.4455L75.8148 58.4062ZM74.5925 49.1518V48.8518H69.0718V49.1518V49.4518H74.5925V49.1518ZM69.0718 49.1518L68.7722 49.1347L68.2435 58.3891L68.543 58.4062L68.8425 58.4233L69.3713 49.1689L69.0718 49.1518ZM68.2019 64.3103V64.6103H76.5937V64.3103V64.0103H68.2019V64.3103ZM76.5937 64.3103L76.8911 64.2707L76.5045 61.3698L76.2071 61.4094L75.9097 61.4491L76.2963 64.35L76.5937 64.3103ZM76.2071 61.4094V61.1094H68.3611V61.4094V61.7094H76.2071V61.4094ZM68.3611 61.4094L68.0616 61.3924L67.8967 64.2933L68.1962 64.3103L68.4957 64.3274L68.6606 61.4265L68.3611 61.4094ZM68.1962 64.3103V64.6103H68.2019V64.3103V64.0103H68.1962V64.3103ZM76.9918 67.3136L76.6944 67.3529L78.4683 80.7823L78.7657 80.743L79.0632 80.7037L77.2892 67.2743L76.9918 67.3136ZM78.7657 80.743L78.6852 80.454L66.99 83.7132L67.0705 84.0022L67.1511 84.2912L78.8463 81.032L78.7657 80.743ZM67.0705 84.0022L67.37 84.0195L68.3309 67.3367L68.0314 67.3194L67.7319 67.3022L66.771 83.985L67.0705 84.0022ZM68.0314 67.3194V67.6194H76.9917V67.3194V67.0194H68.0314V67.3194ZM76.9917 67.3194L77.2917 67.3226L77.2918 67.3167L76.9918 67.3136L76.6918 67.3104L76.6917 67.3163L76.9917 67.3194ZM121.942 137.987H122.242V122.077H121.942H121.642V137.987H121.942ZM121.942 122.077V121.777H107.728V122.077V122.377H121.942V122.077ZM107.728 122.077H107.428V137.975H107.728H108.028V122.077H107.728ZM107.728 137.975L107.728 138.275L121.942 138.287L121.942 137.987L121.942 137.687L107.728 137.675L107.728 137.975ZM136.992 70.2535H136.692V137.28H136.992H137.292V70.2535H136.992ZM136.992 137.28V137.58H136.997V137.28V136.98H136.992V137.28ZM136.997 137.28H136.697C136.697 137.366 136.652 137.463 136.539 137.549C136.427 137.635 136.268 137.691 136.105 137.691V137.991V138.291C136.396 138.291 136.684 138.194 136.904 138.026C137.124 137.857 137.297 137.598 137.297 137.28H136.997ZM136.105 137.991H135.805V137.997H136.105H136.405V137.991H136.105ZM136.105 137.997L136.105 137.697L124.944 137.686L124.944 137.986L124.944 138.286L136.105 138.297L136.105 137.997ZM124.944 137.986H125.244V120.569H124.944H124.644V137.986H124.944ZM124.944 120.569H125.244C125.244 119.573 124.439 118.767 123.443 118.767V119.067V119.367C124.107 119.367 124.644 119.904 124.644 120.569H124.944ZM123.443 119.067V118.767H106.228V119.067V119.367H123.443V119.067ZM106.228 119.067V118.767C105.232 118.767 104.427 119.573 104.427 120.569H104.727H105.027C105.027 119.904 105.563 119.367 106.228 119.367V119.067ZM104.727 120.569H104.427V137.962H104.727H105.027V120.569H104.727ZM104.727 137.962L104.727 137.662L92.6054 137.651L92.6051 137.951L92.6048 138.251L104.726 138.262L104.727 137.962ZM92.6051 137.951L92.8996 138.008C92.9479 137.76 92.979 137.502 92.979 137.229H92.679H92.379C92.379 137.456 92.3532 137.675 92.3106 137.894L92.6051 137.951ZM92.679 137.229L92.979 137.229L92.9733 70.2411L92.6733 70.2411L92.3733 70.2411L92.379 137.229L92.679 137.229ZM92.6733 70.2411V70.5411H136.992V70.2411V69.9411H92.6733V70.2411ZM136.992 70.2411L136.692 70.2408L136.692 70.2532L136.992 70.2535L137.292 70.2538V70.2414L136.992 70.2411ZM92.6733 67.2502V67.5502H136.992V67.2502V66.9502H92.6733V67.2502ZM136.992 67.2502H137.292V65.1115H136.992H136.692V67.2502H136.992ZM136.992 65.1115H137.292C137.292 64.7833 137.123 64.5226 136.896 64.3535C136.674 64.1874 136.388 64.1005 136.105 64.1005V64.4005V64.7005C136.271 64.7005 136.428 64.753 136.537 64.8342C136.642 64.9126 136.692 65.0074 136.692 65.1115H136.992ZM136.105 64.4005V64.1005H93.565V64.4005V64.7005H136.105V64.4005ZM93.565 64.4005V64.1005C93.2774 64.1005 92.9898 64.1913 92.7677 64.3584C92.5431 64.5274 92.3724 64.7873 92.3724 65.1115H92.6724H92.9724C92.9724 65.0148 93.0205 64.9191 93.1285 64.8379C93.239 64.7547 93.3978 64.7005 93.565 64.7005V64.4005ZM92.6724 65.1115L92.3724 65.1116L92.3733 67.2504L92.6733 67.2502L92.9733 67.2501L92.9724 65.1114L92.6724 65.1115ZM134.605 61.3974H134.905V53.3204H134.605H134.305V61.3974H134.605ZM134.605 53.3204V53.0204H127.14V53.3204V53.6204H134.605V53.3204ZM127.14 53.3204L126.869 53.1915L123.025 61.2684L123.296 61.3974L123.567 61.5263L127.411 53.4493L127.14 53.3204ZM123.296 61.3974V61.6974H134.605V61.3974V61.0974H123.296V61.3974ZM119.976 61.3974L120.246 61.5263L125.113 51.3051L124.842 51.1761L124.572 51.0471L119.705 61.2684L119.976 61.3974ZM124.842 51.1761L125.114 51.3045C125.317 50.8741 125.749 50.6229 126.196 50.6229V50.3229V50.0229C125.528 50.0229 124.879 50.3974 124.571 51.0477L124.842 51.1761ZM126.196 50.3229V50.6229H136.111V50.3229V50.0229H126.196V50.3229ZM136.111 50.3229V50.6229C136.775 50.6229 137.312 51.1596 137.312 51.8244H137.612H137.912C137.912 50.8285 137.107 50.0229 136.111 50.0229V50.3229ZM137.612 51.8244H137.312V61.693H137.612H137.912V51.8244H137.612ZM137.612 61.693L137.499 61.971C138.786 62.4933 139.7 63.711 139.7 65.1173H140H140.3C140.3 63.4406 139.213 62.019 137.725 61.4151L137.612 61.693ZM140 65.1173H139.7V137.286H140H140.3V65.1173H140ZM140 137.286V136.986H139.994V137.286V137.586H140V137.286ZM139.994 137.286H139.694C139.694 139.201 138.05 140.7 136.111 140.7V141V141.3C138.345 141.3 140.294 139.568 140.294 137.286H139.994ZM136.111 141H136.411V140.994H136.111H135.811V141H136.111ZM136.111 140.994L136.111 140.694L88.876 140.649L88.8758 140.949L88.8755 141.249L136.111 141.294L136.111 140.994ZM88.8758 140.949V140.649H88.7279V140.949V141.249H88.8758V140.949ZM88.7279 140.949L88.733 140.649L52.379 140.035L52.374 140.334L52.3689 140.634L88.7229 141.249L88.7279 140.949ZM52.374 140.334V140.034C52.3386 140.034 52.3048 140.036 52.2808 140.038C52.2535 140.039 52.2386 140.04 52.2261 140.04V140.34V140.64C52.2592 140.64 52.2926 140.638 52.315 140.637C52.3408 140.635 52.3582 140.634 52.374 140.634V140.334ZM52.2261 140.34L52.2262 140.04L18.3349 140.034L18.3349 140.334L18.3348 140.634L52.2261 140.64L52.2261 140.34ZM18.3349 140.334V140.034C16.3634 140.034 14.7459 138.412 14.7459 136.438H14.4459H14.1459C14.1459 138.742 16.0307 140.634 18.3349 140.634V140.334ZM14.4459 136.438H14.7459V86.5208H14.4459H14.1459V136.438H14.4459ZM14.4459 86.5208H14.7459C14.7459 85.9578 15.1367 85.4824 15.6621 85.3499L15.5887 85.059L15.5153 84.7681C14.733 84.9654 14.1459 85.6732 14.1459 86.5208H14.4459ZM15.5887 85.059L15.6869 85.3425L26.4951 81.5998L26.397 81.3163L26.2988 81.0328L15.4906 84.7755L15.5887 85.059ZM26.397 81.3163L26.6965 81.3322L27.8109 60.3261L27.5113 60.3102L27.2117 60.2943L26.0974 81.3004L26.397 81.3163ZM27.5113 60.3102L27.8109 60.3262L28.1406 54.1206L27.8411 54.1047L27.5415 54.0888L27.2117 60.2943L27.5113 60.3102ZM27.8411 54.1047H28.1411C28.1411 54.0576 28.1455 54.0016 28.151 53.9468L27.8524 53.917L27.5539 53.8871C27.548 53.9461 27.5411 54.0266 27.5411 54.1047H27.8411ZM27.8524 53.917L28.152 53.9329L28.8513 40.7708L28.5518 40.7549L28.2522 40.739L27.5529 53.901L27.8524 53.917ZM28.5518 40.7549L28.8514 40.7698C28.8832 40.1286 29.4098 39.6329 30.047 39.6329V39.3329V39.0329C29.0923 39.0329 28.2999 39.7772 28.2521 40.74L28.5518 40.7549ZM30.047 39.3329H30.347V39.3272H30.047H29.747V39.3329H30.047ZM30.047 39.3272V39.6272H38.2854V39.3272V39.0272H30.047V39.3272ZM38.2854 39.3272V39.6272C38.9138 39.6272 39.4273 40.105 39.4818 40.7189L39.7806 40.6923L40.0795 40.6658C39.9976 39.744 39.2262 39.0272 38.2854 39.0272V39.3272ZM39.7806 40.6923L39.4829 40.7287L41.8707 60.3005L42.1685 60.2641L42.4663 60.2278L40.0784 40.656L39.7806 40.6923ZM42.1685 60.2641L41.8726 60.3134C41.8734 60.3183 41.8742 60.323 41.8749 60.327C41.8756 60.3312 41.8762 60.3347 41.8768 60.3381C41.8779 60.3449 41.8786 60.3494 41.8791 60.353C41.8796 60.3564 41.8797 60.3583 41.8798 60.3594C41.8799 60.3603 41.8799 60.3607 41.8799 60.3608H42.1799H42.4799C42.4799 60.2957 42.4683 60.2376 42.4645 60.2148L42.1685 60.2641ZM42.1799 60.3608L41.8821 60.3972L43.6958 75.254L43.9936 75.2177L44.2914 75.1813L42.4777 60.3245L42.1799 60.3608ZM43.9936 75.2177L44.0918 75.5011L54.2177 71.9916L54.1195 71.7081L54.0213 71.4246L43.8954 74.9342L43.9936 75.2177ZM54.1195 71.7081L54.2169 71.9919C54.9968 71.7242 55.7981 72.3144 55.7981 73.1187H56.0981H56.3981C56.3981 71.9095 55.198 71.0208 54.0221 71.4244L54.1195 71.7081ZM56.0981 73.1187V73.4187H56.1038V73.1187V72.8187H56.0981V73.1187ZM56.1038 73.1187H55.8038V87.0429H56.1038H56.4038V73.1187H56.1038ZM56.1038 87.0429L56.1843 87.3319L64.1043 85.125L64.0237 84.836L63.9432 84.547L56.0233 86.7539L56.1038 87.0429ZM64.0237 84.836L64.3232 84.8532L65.4262 65.628L65.1267 65.6108L64.8272 65.5936L63.7242 84.8188L64.0237 84.836ZM65.1267 65.6108L65.4262 65.6281L65.756 59.9173L65.4565 59.9L65.157 59.8827L64.8272 65.5935L65.1267 65.6108ZM65.4565 59.9H65.7565C65.7565 59.8473 65.7608 59.7978 65.7666 59.7338L65.4679 59.7066L65.1691 59.6795C65.1635 59.7406 65.1565 59.8162 65.1565 59.9H65.4565ZM65.4679 59.7066L65.7674 59.7239L66.4667 47.5801L66.1672 47.5629L65.8677 47.5456L65.1684 59.6894L65.4679 59.7066ZM66.1672 47.5629L66.4667 47.58C66.5031 46.9423 67.0314 46.4465 67.6624 46.4465V46.1465V45.8465C66.713 45.8465 65.9222 46.5908 65.8677 47.5457L66.1672 47.5629ZM67.6624 46.1465H67.9624V46.1408H67.6624H67.3624V46.1465H67.6624ZM67.6624 46.1408V46.4408H75.9008V46.1408V45.8408H67.6624V46.1408ZM75.9008 46.1408V46.4408C76.5425 46.4408 77.0692 46.9463 77.0963 47.5814L77.3961 47.5685L77.6958 47.5557C77.6548 46.5981 76.8624 45.8408 75.9008 45.8408V46.1408ZM77.3961 47.5685L77.0986 47.6078L78.6848 59.6152L78.9823 59.5759L79.2797 59.5366L77.6935 47.5292L77.3961 47.5685ZM78.9823 59.5759L78.6889 59.6387C78.7026 59.7027 78.7122 59.7735 78.717 59.8461L79.0164 59.8262L79.3157 59.8062C79.3092 59.7081 79.296 59.6084 79.2756 59.5131L78.9823 59.5759ZM79.0164 59.8262L78.719 59.8656L79.4695 65.5251L79.7669 65.4857L80.0643 65.4462L79.3138 59.7867L79.0164 59.8262ZM79.7669 65.4857L79.4735 65.5485C79.4872 65.6125 79.4968 65.6833 79.5016 65.7559L79.801 65.736L80.1003 65.716C80.0938 65.6179 80.0806 65.5182 80.0602 65.4229L79.7669 65.4857ZM79.801 65.736L79.5036 65.7753L81.3799 79.9668L81.6773 79.9275L81.9747 79.8882L80.0984 65.6966L79.801 65.736ZM81.6773 79.9275L81.7577 80.2165L87.79 78.5386L87.7096 78.2496L87.6292 77.9606L81.5969 79.6385L81.6773 79.9275ZM87.7096 78.2496L87.7894 78.5388C88.4044 78.3691 89.0246 78.3492 89.6152 78.4851L89.6825 78.1927L89.7498 77.9004C89.0554 77.7405 88.3338 77.7661 87.6298 77.9604L87.7096 78.2496ZM89.6825 78.1927L89.9825 78.1929L89.9882 65.1105L89.6882 65.1103L89.3882 65.1102L89.3825 78.1926L89.6825 78.1927ZM89.6882 65.1103H89.9882C89.9882 63.2005 91.638 61.696 93.5715 61.696V61.396V61.096C91.3431 61.096 89.3882 62.8338 89.3882 65.1103H89.6882ZM93.5715 61.396L93.5714 61.696L119.976 61.6974L119.976 61.3974L119.976 61.0974L93.5715 61.096L93.5715 61.396ZM18.8126 15.5629L18.7177 15.8475C18.7604 15.8618 18.8256 15.8822 18.8549 15.8895C18.8551 15.8895 18.8738 15.8945 18.8955 15.8972C18.9011 15.8979 18.9189 15.9 18.9418 15.8993C18.9526 15.899 18.9768 15.8978 19.0065 15.8903C19.0269 15.8851 19.1054 15.8641 19.1673 15.7867C19.2513 15.6817 19.2411 15.5603 19.2106 15.4857C19.1868 15.4276 19.1509 15.3926 19.1399 15.3822C19.1134 15.3569 19.0881 15.3425 19.0837 15.3399C19.0681 15.3308 19.0548 15.325 19.052 15.3237C19.0467 15.3214 19.0421 15.3195 19.039 15.3183C19.0327 15.3158 19.0264 15.3135 19.0209 15.3115C18.9995 15.3037 18.9629 15.2911 18.9075 15.2726L18.8126 15.5572L18.7177 15.8418C18.7732 15.8603 18.8027 15.8705 18.8153 15.8751C18.8184 15.8763 18.8186 15.8764 18.8171 15.8758C18.8164 15.8755 18.8137 15.8744 18.8099 15.8727C18.8086 15.8722 18.7963 15.8669 18.7813 15.8581C18.7773 15.8558 18.7522 15.8415 18.7258 15.8163C18.7149 15.806 18.6791 15.7711 18.6553 15.7129C18.6248 15.6384 18.6147 15.5171 18.6986 15.4121C18.7605 15.3347 18.839 15.3138 18.8593 15.3086C18.8889 15.3011 18.913 15.2999 18.9237 15.2996C18.9463 15.2989 18.9638 15.3011 18.969 15.3017C18.9822 15.3033 18.9921 15.3055 18.9938 15.3059C18.9973 15.3066 18.9998 15.3072 19.0005 15.3074C19.0011 15.3076 18.9905 15.3046 18.9682 15.2977C18.9487 15.2917 18.9263 15.2846 18.9075 15.2783L18.8126 15.5629ZM18.8126 15.5572H18.5126V15.5629H18.8126H19.1126V15.5572H18.8126ZM19.6996 12.7076L19.6268 12.9986C19.6243 12.998 19.62 12.9968 19.6137 12.9946C19.6109 12.9936 19.605 12.9915 19.5973 12.9881C19.5937 12.9866 19.5864 12.9833 19.5773 12.9785C19.5728 12.9761 19.5651 12.9719 19.5559 12.9659C19.5495 12.9618 19.5288 12.9483 19.5066 12.9261C19.4958 12.9153 19.4737 12.8917 19.4545 12.8559C19.436 12.8215 19.4045 12.7457 19.426 12.6489C19.4493 12.544 19.5193 12.4829 19.5689 12.4542C19.6139 12.4283 19.6545 12.4206 19.6722 12.4178C19.7093 12.412 19.7387 12.4147 19.7462 12.4154C19.7583 12.4166 19.7678 12.4182 19.7731 12.4192C19.7908 12.4225 19.8038 12.4267 19.8047 12.427C19.8116 12.4292 19.8144 12.4304 19.811 12.4291L19.6996 12.7076L19.5881 12.9861C19.599 12.9905 19.6117 12.9953 19.6248 12.9994C19.6288 13.0007 19.644 13.0055 19.6631 13.009C19.6686 13.01 19.6784 13.0117 19.6907 13.0129C19.6985 13.0136 19.728 13.0164 19.7652 13.0105C19.783 13.0077 19.8237 13 19.8686 12.974C19.9183 12.9454 19.9883 12.8843 20.0116 12.7793C20.0332 12.6825 20.0016 12.6066 19.9831 12.5722C19.9639 12.5364 19.9418 12.5127 19.9309 12.5019C19.9086 12.4796 19.8878 12.466 19.8812 12.4618C19.8718 12.4557 19.8639 12.4513 19.8591 12.4488C19.8494 12.4436 19.8413 12.44 19.8368 12.438C19.8272 12.4339 19.8187 12.4307 19.8126 12.4286C19.7998 12.424 19.7862 12.42 19.7723 12.4166L19.6996 12.7076ZM14.736 14.6871L14.5506 14.9229C14.6852 15.0287 14.7957 15.1499 14.8767 15.285L15.134 15.1307L15.3913 14.9764C15.2677 14.7703 15.1053 14.5957 14.9214 14.4512L14.736 14.6871ZM15.134 15.1307L14.8784 15.2878C15.3908 16.1216 16.4769 16.388 17.3169 15.8892L17.1637 15.6313L17.0105 15.3733C16.4519 15.705 15.7301 15.5277 15.3896 14.9737L15.134 15.1307ZM17.1637 15.6313H16.8637V15.637H17.1637H17.4637V15.6313H17.1637ZM17.1637 15.637L17.3159 15.8955C17.6597 15.6932 17.7841 15.6465 17.9102 15.644C17.9776 15.6426 18.0611 15.6543 18.1926 15.6888C18.326 15.7238 18.4881 15.7763 18.7157 15.8489L18.8068 15.563L18.8979 15.2772C18.6792 15.2075 18.4974 15.1484 18.3447 15.1084C18.1902 15.0679 18.0455 15.0412 17.8983 15.0441C17.5952 15.0501 17.3443 15.1826 17.0115 15.3784L17.1637 15.637ZM18.8068 15.563H18.5068V15.5687H18.8068H19.1068V15.563H18.8068ZM18.8068 15.5687L18.9017 15.2841C18.8804 15.277 18.8665 15.2724 18.8585 15.2697C18.8546 15.2684 18.852 15.2675 18.8508 15.2671C18.85 15.2669 18.8499 15.2668 18.8499 15.2668C18.85 15.2668 18.8502 15.2669 18.8503 15.267C19.0396 15.6457 18.6609 15.8363 18.6603 15.8361C18.6602 15.836 18.6601 15.836 18.6601 15.836C18.6601 15.836 18.6601 15.836 18.6601 15.836C18.66 15.836 18.66 15.836 18.66 15.836C18.6601 15.836 18.6601 15.836 18.6602 15.836C18.6603 15.8361 18.6605 15.8361 18.6608 15.8362C18.665 15.8376 18.6863 15.8448 18.7119 15.8533L18.8068 15.5687L18.9017 15.2841C18.8761 15.2756 18.8548 15.2685 18.8505 15.267C18.8503 15.2669 18.8501 15.2669 18.8499 15.2668C18.8499 15.2668 18.8498 15.2668 18.8498 15.2668C18.8498 15.2668 18.8497 15.2668 18.8497 15.2668C18.8497 15.2668 18.8497 15.2667 18.8497 15.2667C18.8496 15.2667 18.8495 15.2667 18.8495 15.2667C18.8488 15.2665 18.4701 15.457 18.6594 15.8358C18.6596 15.8358 18.6598 15.8359 18.6598 15.8359C18.6599 15.836 18.6604 15.8361 18.6609 15.8363C18.6622 15.8367 18.6647 15.8376 18.6687 15.8389C18.6767 15.8416 18.6906 15.8462 18.7119 15.8533L18.8068 15.5687ZM18.8068 15.5687L18.7166 15.8548C19.0351 15.9553 19.382 16.0646 19.6438 16.1652C19.7768 16.2162 19.8728 16.2594 19.9288 16.2922C19.9591 16.31 19.9586 16.3139 19.9471 16.3013C19.9429 16.2968 19.8564 16.2019 19.9038 16.0597L20.1884 16.1546L20.473 16.2494C20.5318 16.073 20.4303 15.9405 20.3889 15.8954C20.3401 15.8422 20.2799 15.8026 20.2322 15.7746C20.132 15.7159 19.9981 15.6585 19.8589 15.605C19.5763 15.4965 19.2096 15.3812 18.8971 15.2826L18.8068 15.5687ZM20.1884 16.1546L19.9027 16.0632C19.6525 16.8453 19.7442 17.5188 20.0587 18.025L20.3135 17.8667L20.5683 17.7083C20.3598 17.3727 20.2695 16.8858 20.4741 16.2459L20.1884 16.1546ZM20.3135 17.8667L20.0575 18.023C20.5362 18.8068 21.3629 19.0813 22.1373 18.9058C22.9062 18.7315 23.6106 18.121 23.9138 17.1731L23.6281 17.0817L23.3424 16.9903C23.0997 17.7488 22.5534 18.1963 22.0047 18.3206C21.4615 18.4437 20.9038 18.2575 20.5695 17.7103L20.3135 17.8667ZM23.6281 17.0817L23.914 17.1727C24.0364 16.7882 24.1282 16.7061 24.2015 16.6785C24.2468 16.6614 24.324 16.6499 24.4644 16.6688C24.6049 16.6877 24.786 16.7336 25.0267 16.8102L25.1177 16.5243L25.2086 16.2384C24.9575 16.1586 24.7371 16.1 24.5443 16.0741C24.3514 16.0482 24.1635 16.0516 23.9899 16.117C23.6254 16.2544 23.4643 16.6074 23.3422 16.9907L23.6281 17.0817ZM25.1177 16.5243L25.0273 16.8104C26.0955 17.1478 26.3479 18.5199 25.5062 19.2168L25.6976 19.4479L25.8889 19.679C27.0941 18.681 26.7324 16.7198 25.208 16.2382L25.1177 16.5243ZM25.6976 19.4479L25.5059 19.2171C24.0661 20.4129 25.1863 22.8571 27.1682 22.3256L27.0905 22.0359L27.0128 21.7461C25.6858 22.102 24.9184 20.4851 25.8893 19.6787L25.6976 19.4479ZM27.0905 22.0359L27.1678 22.3258C27.7534 22.1697 28.3247 22.4595 28.6392 22.9529C28.9487 23.4385 28.9817 24.0803 28.5193 24.6082L28.745 24.8059L28.9707 25.0035C29.6341 24.246 29.5761 23.3065 29.1451 22.6304C28.7191 21.962 27.9002 21.5096 27.0133 21.746L27.0905 22.0359ZM28.745 24.8059L28.5188 24.6088C27.8699 25.3536 27.9457 26.4864 28.6888 27.1412L28.8871 26.9161L29.0855 26.691C28.5892 26.2537 28.5398 25.4981 28.9712 25.0029L28.745 24.8059ZM28.8871 26.9161L28.6895 27.1418C28.8133 27.2501 28.9895 27.34 29.1322 27.4155C29.2896 27.4987 29.4453 27.5827 29.5896 27.6904C29.8634 27.8948 30.0956 28.1827 30.1168 28.7086L30.4166 28.6965L30.7163 28.6844C30.6863 27.9418 30.3357 27.4987 29.9486 27.2097C29.7624 27.0707 29.5681 26.9673 29.4127 26.8851C29.2424 26.795 29.1429 26.7413 29.0847 26.6904L28.8871 26.9161ZM30.4166 28.6965L30.1168 28.7068C30.1509 29.6965 30.9832 30.4763 31.9754 30.4353L31.963 30.1355L31.9506 29.8358C31.2941 29.863 30.7391 29.346 30.7164 28.6862L30.4166 28.6965ZM31.963 30.1355L31.9757 30.4353C32.8496 30.3983 33.6303 31.3026 33.3259 32.2632L33.6118 32.3538L33.8978 32.4444C34.3325 31.073 33.2257 29.7818 31.9503 29.8358L31.963 30.1355ZM33.6118 32.3538L33.3261 32.2622C32.8533 33.7376 30.6585 33.4309 30.6027 31.8936L30.3029 31.9045L30.0031 31.9153C30.0835 34.1321 33.2219 34.5536 33.8975 32.4454L33.6118 32.3538ZM30.3029 31.9045L30.6027 31.8941C30.5686 30.9045 29.7363 30.1246 28.744 30.1657L28.7564 30.4654L28.7688 30.7651C29.4254 30.738 29.9803 31.2549 30.0031 31.9148L30.3029 31.9045ZM28.7564 30.4654L28.7437 30.1657C28.317 30.1838 27.8681 29.9578 27.5978 29.5972L27.3578 29.7772L27.1178 29.9571C27.4956 30.4611 28.127 30.7925 28.7692 30.7651L28.7564 30.4654ZM27.3578 29.7772L27.6002 29.6004C27.047 28.8421 26.0156 28.6444 25.2241 29.1222L25.3792 29.379L25.5342 29.6358C26.0619 29.3173 26.7475 29.4495 27.1154 29.9539L27.3578 29.7772ZM25.3792 29.379L25.2319 29.1176C24.5046 29.5275 23.4573 29.1238 23.2374 28.2109L22.9457 28.2812L22.6541 28.3515C22.9686 29.657 24.4571 30.243 25.5265 29.6403L25.3792 29.379ZM22.9457 28.2812L23.2373 28.2105C23.0121 27.2822 22.1105 26.7014 21.1822 26.8652L21.2344 27.1607L21.2865 27.4561C21.9047 27.347 22.5041 27.7331 22.6542 28.3519L22.9457 28.2812ZM21.2344 27.1607H21.5344V27.155H21.2344H20.9344V27.1607H21.2344ZM21.2344 27.155L21.2532 26.8556L20.4402 26.8044L20.4213 27.1038L20.4025 27.4032L21.2155 27.4544L21.2344 27.155ZM20.4213 27.1038L20.5122 26.8179C20.4005 26.7824 20.2745 26.6932 20.1461 26.5442C20.0197 26.3974 19.9053 26.2091 19.8132 26.0064C19.7213 25.804 19.656 25.5969 19.6225 25.4177C19.5871 25.2285 19.594 25.1067 19.6103 25.0548L19.324 24.965L19.0378 24.8752C18.9773 25.068 18.9913 25.3067 19.0327 25.528C19.0759 25.7592 19.157 26.0124 19.2669 26.2545C19.3767 26.4962 19.5196 26.7362 19.6916 26.9358C19.8617 27.1333 20.0755 27.3086 20.3304 27.3897L20.4213 27.1038ZM19.324 24.965L19.6098 25.0562C19.7604 24.5843 19.7931 24.1746 19.7239 23.8182C19.6541 23.4589 19.4844 23.174 19.2639 22.9491C18.8366 22.5134 18.2142 22.3022 17.7664 22.1594L17.6752 22.4452L17.5841 22.731C18.046 22.8784 18.5265 23.0541 18.8355 23.3692C18.9831 23.5197 19.0899 23.7012 19.1349 23.9327C19.1804 24.1671 19.1662 24.4726 19.0382 24.8738L19.324 24.965ZM17.6752 22.4452L17.7671 22.1596C17.012 21.9166 16.2301 22.0842 15.7205 22.7456L15.9582 22.9287L16.1958 23.1118C16.5277 22.681 17.0308 22.5529 17.5833 22.7308L17.6752 22.4452ZM15.9582 22.9287L16.0591 22.6462C15.9013 22.5898 15.7083 22.5196 15.469 22.4436L15.3783 22.7296L15.2875 23.0156C15.5145 23.0875 15.6966 23.1538 15.8572 23.2112L15.9582 22.9287ZM15.3783 22.7296L15.4702 22.444C15.1495 22.3408 14.8365 22.0494 14.6593 21.6649C14.4845 21.2854 14.4588 20.8526 14.6554 20.4729L14.389 20.335L14.1225 20.1971C13.8245 20.7729 13.8784 21.4038 14.1144 21.9159C14.348 22.423 14.7769 22.8511 15.2863 23.0152L15.3783 22.7296ZM14.389 20.335L14.1768 20.5471L14.1825 20.5528L14.3946 20.3407L14.6068 20.1286L14.6011 20.1229L14.389 20.335ZM14.3946 20.3407L14.663 20.4748C14.6998 20.4011 14.7418 20.3356 14.7794 20.2839L14.5368 20.1075L14.2941 19.9311C14.2408 20.0045 14.1804 20.0982 14.1263 20.2066L14.3946 20.3407ZM14.5368 20.1075L14.7782 20.2855C15.6081 19.1603 14.8656 17.5874 13.5298 17.4375L13.4963 17.7356L13.4629 18.0337C14.3558 18.134 14.8414 19.189 14.2953 19.9294L14.5368 20.1075ZM13.4963 17.7356L13.5307 17.4376C13.0408 17.381 12.6605 17.1072 12.4438 16.6878L12.1773 16.8255L11.9108 16.9632C12.2172 17.5563 12.7693 17.9537 13.4619 18.0336L13.4963 17.7356ZM12.1773 16.8255L12.4437 16.6877C11.7603 15.3666 13.3763 14.0348 14.5457 14.9462L14.7301 14.7096L14.9145 14.473C13.2525 13.1776 10.9228 15.0536 11.9108 16.9634L12.1773 16.8255ZM14.7301 14.7096L15.0202 14.7859L15.0262 14.7633L14.736 14.6871L14.4459 14.6108L14.4399 14.6334L14.7301 14.7096ZM15.2818 11.6155L15.1802 11.8978C15.7133 12.0898 16.1857 12.3716 16.5885 12.7321L16.7886 12.5085L16.9886 12.285C16.5271 11.8719 15.9874 11.5508 15.3835 11.3333L15.2818 11.6155ZM16.7886 12.5085L16.8768 12.7952C17.7506 12.5263 18.4697 12.6305 19.6024 12.9933L19.6939 12.7076L19.7854 12.4219C18.6097 12.0453 17.7483 11.8992 16.7003 12.2218L16.7886 12.5085ZM19.6939 12.7076L19.7964 12.4257C19.7633 12.4136 19.6881 12.3889 19.6763 12.3848C19.6738 12.3839 19.6744 12.3841 19.6764 12.3849C19.6765 12.3849 19.682 12.3869 19.6891 12.39C19.6904 12.3905 19.7038 12.3961 19.7197 12.4053C19.7221 12.4067 19.7531 12.4236 19.7839 12.455C19.7946 12.4658 19.8465 12.518 19.8641 12.6064C19.8695 12.6493 19.8602 12.7411 19.8438 12.7877C19.822 12.828 19.7685 12.8901 19.74 12.9124C19.6812 12.9528 19.6246 12.9605 19.611 12.9624C19.5892 12.9654 19.5718 12.9653 19.5633 12.9651C19.5458 12.9647 19.5322 12.9628 19.5276 12.9622C19.5165 12.9606 19.508 12.9587 19.506 12.9583C19.5003 12.957 19.4962 12.9559 19.4961 12.9559C19.4948 12.9555 19.4952 12.9556 19.4989 12.9567C19.5129 12.9607 19.5454 12.9704 19.607 12.9891L19.6939 12.7019L19.7807 12.4148C19.7201 12.3964 19.6836 12.3855 19.665 12.3801C19.6605 12.3788 19.655 12.3773 19.6498 12.3759C19.6478 12.3754 19.6422 12.3739 19.6355 12.3724C19.633 12.3718 19.6241 12.3699 19.6128 12.3683C19.6081 12.3676 19.5944 12.3657 19.5767 12.3653C19.5682 12.3651 19.5508 12.365 19.529 12.368C19.5154 12.3699 19.4587 12.3776 19.4 12.418C19.3714 12.4404 19.3179 12.5025 19.2961 12.5428C19.2797 12.5893 19.2704 12.6811 19.2758 12.724C19.2934 12.8125 19.3453 12.8647 19.356 12.8755C19.3868 12.9069 19.4179 12.9239 19.4204 12.9253C19.4365 12.9346 19.4501 12.9403 19.4518 12.941C19.4597 12.9444 19.4663 12.9469 19.4679 12.9475C19.473 12.9493 19.478 12.9511 19.4812 12.9522C19.5149 12.9638 19.562 12.9788 19.5913 12.9895L19.6939 12.7076ZM19.6939 12.7019L19.6038 12.9881C20.5416 13.2834 21.5168 13.592 22.1719 14.1479L22.366 13.9191L22.5601 13.6904C21.7941 13.0404 20.6883 12.7006 19.784 12.4158L19.6939 12.7019ZM22.366 13.9191L22.5277 14.1719C23.4675 13.5707 24.6454 13.5334 25.9393 13.9595L26.0332 13.6746L26.127 13.3896C24.7263 12.9284 23.3455 12.9366 22.2044 13.6664L22.366 13.9191ZM26.0332 13.6746L25.9397 13.9596C28.1842 14.6957 29.4324 16.9905 28.8527 19.2305L29.1431 19.3057L29.4336 19.3809C30.0933 16.8317 28.6693 14.2233 26.1266 13.3895L26.0332 13.6746ZM29.1431 19.3057L29.0359 19.5859C30.0787 19.9851 30.882 20.7405 31.3612 21.6674L31.6277 21.5296L31.8942 21.3919C31.3501 20.3395 30.4362 19.4795 29.2504 19.0255L29.1431 19.3057ZM31.6277 21.5296L31.3612 21.6674C31.9141 22.7365 32.0108 23.9864 31.5785 25.1878L31.8608 25.2893L32.1431 25.3909C32.6318 24.0327 32.5238 22.6093 31.8941 21.3918L31.6277 21.5296ZM31.8608 25.2893L31.6583 25.5107C32.218 26.0227 32.6381 26.667 32.8718 27.3844L33.1571 27.2915L33.4423 27.1986C33.1757 26.3803 32.6975 25.6481 32.0632 25.068L31.8608 25.2893ZM33.1571 27.2915L33.0796 27.5813C37.0231 28.6355 37.5103 33.9172 33.9917 35.7333L34.1293 35.9999L34.2669 36.2664C38.2646 34.2031 37.7169 28.1999 33.2345 27.0017L33.1571 27.2915ZM34.1293 35.9999L33.9918 35.7332C31.5875 36.9731 28.6598 35.7495 27.8189 33.2094L27.5341 33.3037L27.2493 33.398C28.2048 36.2843 31.5314 37.6772 34.2668 36.2665L34.1293 35.9999ZM27.5341 33.3037L27.611 33.0137C26.9848 32.8477 26.4323 32.5707 25.9495 32.178L25.7602 32.4107L25.5709 32.6434C26.123 33.0925 26.7531 33.407 27.4573 33.5937L27.5341 33.3037ZM25.7602 32.4107L25.6842 32.1205C23.7535 32.6259 21.7147 31.7477 20.7462 30.0067L20.484 30.1525L20.2218 30.2984C21.3227 32.2773 23.639 33.2761 25.8362 32.7009L25.7602 32.4107ZM20.484 30.1525L20.5135 29.854C18.487 29.6539 17.1528 28.0975 16.7406 26.1763L16.4473 26.2392L16.154 26.3021C16.6058 28.408 18.1032 30.2189 20.4545 30.4511L20.484 30.1525ZM16.4473 26.2392L16.493 25.9427C16.2701 25.9084 15.9688 25.805 15.6184 25.6722C15.2816 25.5444 14.903 25.3908 14.5663 25.2824L14.4744 25.568L14.3825 25.8536C14.6997 25.9557 15.0488 26.0978 15.4057 26.2332C15.7489 26.3634 16.1071 26.4904 16.4017 26.5357L16.4473 26.2392ZM14.4744 25.568L14.566 25.2823C12.4945 24.6181 11.1396 22.3227 11.6176 20.1493L11.3246 20.0848L11.0316 20.0204C10.4863 22.4995 12.0197 25.0959 14.3828 25.8537L14.4744 25.568ZM11.3246 20.0848L11.4751 19.8253C10.7411 19.3996 10.1615 18.7772 9.78938 18.0486L9.52221 18.185L9.25504 18.3215C9.67892 19.1514 10.3388 19.8599 11.174 20.3443L11.3246 20.0848ZM9.52221 18.185L9.78883 18.0475C8.67678 15.8917 9.52784 13.2452 11.6784 12.1322L11.5405 11.8657L11.4027 11.5993C8.95939 12.8638 7.99108 15.8712 9.25559 18.3226L9.52221 18.185ZM11.5405 11.8657L11.6777 12.1325C12.6307 11.6425 13.764 11.4989 14.8713 11.8077L14.9519 11.5188L15.0325 11.2298C13.7744 10.8789 12.4858 11.0423 11.4034 11.5989L11.5405 11.8657ZM14.9519 11.5188L14.8931 11.8129C14.9859 11.8315 15.0727 11.8591 15.1542 11.8953L15.276 11.6211L15.3979 11.347C15.2747 11.2922 15.1454 11.2515 15.0108 11.2246L14.9519 11.5188ZM15.276 11.6211L15.4851 11.8363L15.4909 11.8307L15.2818 11.6155L15.0728 11.4004L15.067 11.406L15.276 11.6211ZM52.2544 15.5629L52.4551 15.34C50.5129 13.5912 47.495 15.7182 48.5448 18.1558L48.8203 18.0372L49.0958 17.9185C48.3036 16.0788 50.5845 14.463 52.0537 15.7859L52.2544 15.5629ZM48.8203 18.0372L48.5451 18.1565C48.8406 18.8377 49.5133 19.456 50.3094 19.5954L50.3611 19.2999L50.4128 19.0044C49.8443 18.9049 49.3231 18.4424 49.0955 17.9178L48.8203 18.0372ZM50.3611 19.2999L50.31 19.5955C51.3181 19.7697 51.6348 20.8762 51.0587 21.5578L51.2878 21.7514L51.5169 21.9451C52.3736 20.9317 51.9057 19.2624 50.4122 19.0043L50.3611 19.2999ZM51.2878 21.7514L51.0591 21.5573C49.9199 22.9 50.5965 24.8883 52.1269 25.4943L52.2373 25.2154L52.3478 24.9365C51.1491 24.4618 50.6772 22.9349 51.5166 21.9455L51.2878 21.7514ZM52.2373 25.2154L52.1265 25.4942C52.5347 25.6564 52.8233 25.751 53.0375 25.782C53.1482 25.798 53.2555 25.7997 53.3582 25.7756C53.4664 25.7502 53.5513 25.7003 53.6202 25.6397C53.8849 25.4069 53.8066 25.2788 54.272 25.0894L54.159 24.8116L54.046 24.5337C53.4767 24.7652 53.2534 25.1633 53.2239 25.1892C53.2192 25.1933 53.2212 25.1915 53.221 25.1915C53.2152 25.1929 53.1885 25.1976 53.1234 25.1881C52.986 25.1683 52.7558 25.0986 52.3481 24.9366L52.2373 25.2154ZM54.159 24.8116L54.2721 25.0894C54.8071 24.8717 55.4025 25.0703 55.7125 25.5308L55.9613 25.3633L56.2102 25.1958C55.7469 24.5074 54.8527 24.2054 54.0459 24.5337L54.159 24.8116ZM55.9613 25.3633L55.8222 25.6291C56.261 25.8587 56.3911 25.9833 56.4298 26.1651C56.4523 26.2712 56.4497 26.4276 56.3919 26.6758C56.3344 26.9227 56.2279 27.2382 56.0634 27.653L56.3423 27.7636L56.6212 27.8741C56.7893 27.45 56.9087 27.1022 56.9763 26.8119C57.0436 26.523 57.0652 26.2685 57.0166 26.0403C56.9132 25.5538 56.5202 25.3172 56.1005 25.0975L55.9613 25.3633ZM56.3423 27.7636L56.0633 27.6532C55.3507 29.455 56.8951 31.2079 58.5583 31.0253L58.5255 30.7271L58.4928 30.4289C57.2563 30.5646 56.0831 29.2346 56.6213 27.8739L56.3423 27.7636ZM58.5255 30.7271L58.5677 31.0241C59.2085 30.9332 59.8092 31.3699 59.9184 32.0117L60.2142 31.9614L60.5099 31.911C60.3461 30.9488 59.4458 30.2935 58.4834 30.4301L58.5255 30.7271ZM60.2142 31.9614L59.9185 32.0122C60.1966 33.6298 61.9256 34.5244 63.4015 33.8252L63.2731 33.5541L63.1446 33.283C62.0277 33.8121 60.7207 33.1369 60.5099 31.9105L60.2142 31.9614ZM63.2731 33.5541L63.4009 33.8255C63.942 33.5708 64.5964 33.7527 64.9241 34.2717L65.1777 34.1115L65.4314 33.9513C64.9402 33.1734 63.9573 32.9004 63.1453 33.2827L63.2731 33.5541ZM65.1777 34.1115L64.924 34.2716C65.346 34.9405 66.1012 35.3798 66.8939 35.4123L66.9061 35.1126L66.9184 34.8128C66.3238 34.7885 65.7486 34.4542 65.4315 33.9515L65.1777 34.1115ZM66.9061 35.1126L66.8936 35.4123C67.5504 35.4397 68.0617 35.9864 68.0391 36.638L68.3389 36.6484L68.6387 36.6588C68.6729 35.6722 67.8993 34.8537 66.9186 34.8129L66.9061 35.1126ZM68.3389 36.6484L68.039 36.64C67.9612 39.4165 71.7998 40.159 72.8024 37.6292L72.5235 37.5186L72.2446 37.4081C71.4845 39.3262 68.5801 38.7492 68.6388 36.6568L68.3389 36.6484ZM72.5235 37.5186L72.8021 37.6298C73.4306 36.0547 72.2926 34.3211 70.6202 34.2497L70.6074 34.5495L70.5947 34.8492C71.856 34.903 72.7193 36.2182 72.2448 37.4075L72.5235 37.5186ZM70.6074 34.5495L70.6199 34.2497C69.9632 34.2223 69.4519 33.6757 69.4745 33.0241L69.1747 33.0137L68.8749 33.0033C68.8406 33.9899 69.6142 34.8083 70.595 34.8492L70.6074 34.5495ZM69.1747 33.0137L69.4746 33.022C69.5003 32.0945 68.9533 31.124 68.1064 30.7334L67.9807 31.0058L67.8551 31.2783C68.4637 31.5589 68.8945 32.2947 68.8748 33.0054L69.1747 33.0137ZM67.9807 31.0058L68.106 30.7332C67.2531 30.3412 67.1513 29.3432 67.7201 28.7786L67.5088 28.5657L67.2975 28.3527C66.445 29.1988 66.6047 30.7035 67.8554 31.2784L67.9807 31.0058ZM67.5088 28.5657L67.7202 28.7786C69.4361 27.075 67.898 24.142 65.5132 24.6024L65.5701 24.8969L65.627 25.1915C67.4267 24.8441 68.595 27.0645 67.2975 28.3528L67.5088 28.5657ZM65.5701 24.8969H65.8701V24.8913H65.5701H65.2701V24.8969H65.5701ZM65.5701 24.8913L65.5141 24.5965C64.2672 24.8333 63.5592 23.1927 64.5912 22.45L64.4159 22.2065L64.2407 21.963C62.6801 23.0861 63.7573 25.5408 65.6261 25.186L65.5701 24.8913ZM64.4159 22.2065L64.5915 22.4497C66.1719 21.3093 65.8543 18.8634 64.0605 18.1508L63.9497 18.4296L63.839 18.7084C65.1949 19.2471 65.4346 21.1014 64.2404 21.9632L64.4159 22.2065ZM63.9497 18.4296L64.0612 18.151C63.6892 18.0022 63.3414 17.8726 63.0376 17.7845C62.7417 17.6987 62.4542 17.6418 62.2156 17.6645L62.244 17.9632L62.2725 18.2618C62.3921 18.2504 62.5879 18.2788 62.8705 18.3608C63.1452 18.4405 63.4711 18.5612 63.8383 18.7081L63.9497 18.4296ZM62.244 17.9632L62.2147 17.6646C62.0732 17.6785 61.9758 17.7604 61.9187 17.8233C61.8607 17.8871 61.8142 17.9641 61.7764 18.0338C61.7067 18.1623 61.6147 18.3702 61.5299 18.5404C61.3423 18.9171 61.083 19.3465 60.6352 19.6712L60.8113 19.9141L60.9873 20.157C61.5515 19.7479 61.8637 19.2161 62.067 18.8079C62.1776 18.5857 62.2359 18.4451 62.3038 18.3199C62.3349 18.2626 62.3541 18.2363 62.3628 18.2268C62.3722 18.2164 62.3423 18.2549 62.2733 18.2617L62.244 17.9632ZM60.8113 19.9141L61.0234 19.702L61.0177 19.6963L60.8056 19.9084L60.5934 20.1205L60.5991 20.1262L60.8113 19.9141ZM60.8056 19.9084L60.6287 19.6661C60.2661 19.9308 59.8137 20.0407 59.4291 19.9566C59.0633 19.8766 58.7208 19.6138 58.5584 19.0415L58.2698 19.1234L57.9812 19.2053C58.1997 19.9755 58.7044 20.4123 59.3009 20.5427C59.8786 20.6691 60.5036 20.5003 60.9825 20.1507L60.8056 19.9084ZM58.2698 19.1234L58.5584 19.0417C58.3949 18.4642 58.5966 18.2728 58.6863 17.9348C58.7106 17.8433 58.727 17.7257 58.6899 17.5968C58.6527 17.4675 58.5726 17.3644 58.474 17.2791C58.291 17.1208 57.9798 16.9711 57.5141 16.7903L57.4056 17.07L57.2971 17.3497C57.7695 17.533 57.9871 17.6513 58.0816 17.733C58.1218 17.7677 58.1176 17.7776 58.1133 17.7627C58.1091 17.7482 58.1155 17.7466 58.1063 17.7809C58.0624 17.9463 57.7581 18.4176 57.9812 19.2052L58.2698 19.1234ZM57.4056 17.07L57.5136 16.7901C57.2911 16.7043 56.9069 16.5425 56.5389 16.4148C56.3525 16.35 56.1606 16.2905 55.9831 16.2503C55.8118 16.2115 55.6272 16.1844 55.4661 16.2033L55.5009 16.5012L55.5358 16.7992C55.5935 16.7924 55.6976 16.8009 55.8507 16.8355C55.9976 16.8687 56.166 16.9204 56.3421 16.9816C56.6989 17.1055 57.0481 17.2537 57.2976 17.3499L57.4056 17.07ZM55.5009 16.5012L55.3946 16.2207L54.6441 16.5051L54.7505 16.7856L54.8568 17.0662L55.6072 16.7818L55.5009 16.5012ZM54.7505 16.7856L54.6105 16.5203C54.0247 16.8292 53.3011 16.6026 52.9914 16.0192L52.7264 16.1599L52.4615 16.3006C52.9249 17.1734 54.0094 17.5156 54.8904 17.051L54.7505 16.7856ZM52.7264 16.1599L52.9906 16.0178C52.8566 15.7689 52.6821 15.535 52.4535 15.3325L52.2545 15.557L52.0556 15.7816C52.225 15.9316 52.3574 16.1074 52.4623 16.3021L52.7264 16.1599ZM52.2545 15.557L51.9546 15.5502L51.9545 15.5561L52.2544 15.5629L52.5543 15.5697L52.5545 15.5638L52.2545 15.557ZM52.8628 12.4459L53.0032 12.1808C52.8863 12.1189 52.7636 12.0713 52.6417 12.0374L52.5614 12.3265L52.4811 12.6155C52.5639 12.6385 52.6459 12.6706 52.7223 12.711L52.8628 12.4459ZM52.5614 12.3265L52.6638 12.0445C51.3046 11.5511 49.878 11.6293 48.6503 12.1591L48.7691 12.4346L48.888 12.71C49.98 12.2388 51.2483 12.169 52.4591 12.6085L52.5614 12.3265ZM48.7691 12.4346L48.6505 12.159C45.8828 13.3508 44.6018 16.5704 45.7929 19.3389L46.0684 19.2204L46.344 19.1018C45.2838 16.6374 46.4246 13.7708 48.8878 12.7101L48.7691 12.4346ZM46.0684 19.2204L45.7931 19.3395C46.2201 20.3261 46.9358 21.1866 47.8802 21.7883L48.0414 21.5353L48.2026 21.2823C47.3616 20.7465 46.7242 19.9803 46.3438 19.1012L46.0684 19.2204ZM48.0414 21.5353L47.7564 21.4417C46.8708 24.1356 48.3297 27.1992 50.9211 28.2301L51.032 27.9513L51.1429 27.6726C48.8447 26.7583 47.5404 24.0201 48.3264 21.629L48.0414 21.5353ZM51.032 27.9513L50.9221 28.2305C51.7878 28.5713 52.5341 28.8771 53.1455 28.9861L53.1982 28.6907L53.2509 28.3954C52.7139 28.2997 52.0387 28.0252 51.1419 27.6722L51.032 27.9513ZM53.1982 28.6907L52.8983 28.6976C52.9584 31.334 54.925 33.5968 57.5849 33.9761L57.6273 33.6791L57.6696 33.3821C55.3034 33.0447 53.5517 31.0301 53.4981 28.6839L53.1982 28.6907ZM57.6273 33.6791L57.3529 33.8005C58.3937 36.1536 60.9382 37.4656 63.4647 36.9421L63.4039 36.6483L63.343 36.3546C61.0934 36.8207 58.8281 35.6525 57.9016 33.5578L57.6273 33.6791ZM63.4039 36.6483L63.1938 36.8625C63.8033 37.4602 64.5556 37.905 65.3948 38.1688L65.4848 37.8826L65.5748 37.5964C64.822 37.3597 64.1529 36.9627 63.6139 36.4341L63.4039 36.6483ZM65.4848 37.8826L65.1926 37.9505C65.9623 41.2655 69.547 43.0902 72.6709 41.7414L72.552 41.466L72.433 41.1906C69.6552 42.39 66.4627 40.7678 65.777 37.8148L65.4848 37.8826ZM72.552 41.466L72.6706 41.7415C77.2541 39.7678 77.0224 33.0515 72.1191 31.5047L72.0289 31.7908L71.9386 32.0769C76.3028 33.4536 76.5147 39.433 72.4333 41.1905L72.552 41.466ZM72.0289 31.7908L72.3212 31.7234C72.0868 30.707 71.5754 29.7859 70.8293 29.0515L70.6189 29.2653L70.4084 29.4791C71.0724 30.1326 71.5275 30.952 71.7366 31.8582L72.0289 31.7908ZM70.6189 29.2653L70.8893 29.3952C72.2486 26.5671 70.9671 23.202 68.0797 21.9923L67.9638 22.269L67.8478 22.5457C70.4185 23.6227 71.559 26.6168 70.3485 29.1353L70.6189 29.2653ZM67.9638 22.269L68.2445 22.3749C69.2972 19.5824 67.9251 16.482 65.1521 15.3807L65.0414 15.6595L64.9307 15.9384C67.3998 16.919 68.6202 19.6772 67.683 22.1632L67.9638 22.269ZM65.0414 15.6595L65.1518 15.3806C63.64 14.7824 61.909 14.253 60.4141 15.183L60.5726 15.4377L60.7311 15.6924C61.9426 14.9387 63.3953 15.3308 64.931 15.9385L65.0414 15.6595ZM60.5726 15.4377L60.7681 15.2101C60.1646 14.6918 59.3735 14.3299 58.6031 14.0216L58.4917 14.3001L58.3802 14.5786C59.145 14.8847 59.8548 15.2166 60.3771 15.6653L60.5726 15.4377ZM58.4917 14.3001L58.6022 14.0212C57.2004 13.4659 55.9954 12.9447 54.4841 13.3565L54.563 13.646L54.6419 13.9354C55.9277 13.5851 56.9401 14.0081 58.3812 14.579L58.4917 14.3001ZM54.563 13.646L54.7824 13.4414C54.2814 12.904 53.6729 12.4767 52.9715 12.1708L52.8516 12.4458L52.7317 12.7208C53.3608 12.9951 53.9007 13.3755 54.3435 13.8506L54.563 13.646ZM52.8516 12.4458L52.8487 12.7458L52.8599 12.7459L52.8628 12.4459L52.8656 12.1459L52.8545 12.1458L52.8516 12.4458ZM129.134 79.6839V79.3839H100.524V79.6839V79.9839H129.134V79.6839ZM100.524 79.6839H100.224V84.7178H100.524H100.824V79.6839H100.524ZM100.524 84.7178V85.0178H129.134V84.7178V84.4178H100.524V84.7178ZM129.134 84.7178H129.434V79.6839H129.134H128.834V84.7178H129.134ZM99.0224 76.6807V76.3807C98.0265 76.3807 97.2215 77.1863 97.2215 78.1822H97.5215H97.8215C97.8215 77.5174 98.3582 76.9807 99.0224 76.9807V76.6807ZM97.5215 78.1822H97.2215V86.2193H97.5215H97.8215V78.1822H97.5215ZM97.5215 86.2193H97.2215C97.2215 87.2153 98.0266 88.0209 99.0224 88.0209V87.7209V87.4209C98.3582 87.4209 97.8215 86.8842 97.8215 86.2193H97.5215ZM99.0224 87.7209V88.0209H130.634V87.7209V87.4209H99.0224V87.7209ZM130.634 87.7209V88.0209C131.63 88.0209 132.435 87.2152 132.435 86.2193H132.135H131.835C131.835 86.8841 131.299 87.4209 130.634 87.4209V87.7209ZM132.135 86.2193H132.435V78.1822H132.135H131.835V86.2193H132.135ZM132.135 78.1822H132.435C132.435 77.1862 131.63 76.3807 130.634 76.3807V76.6807V76.9807C131.299 76.9807 131.835 77.5174 131.835 78.1822H132.135ZM130.634 76.6807V76.3807H99.0224V76.6807V76.9807H130.634V76.6807ZM108.711 95.4108V95.1108H102.127V95.4108V95.7108H108.711V95.4108ZM102.127 95.4108H101.827V101.997H102.127H102.427V95.4108H102.127ZM102.127 101.997V102.297H108.711V101.997V101.697H102.127V101.997ZM108.711 101.997H109.011V95.4108H108.711H108.411V101.997H108.711ZM100.626 92.4076V92.1076C99.6298 92.1076 98.8247 92.9132 98.8247 93.9091H99.1247H99.4247C99.4247 93.2443 99.9614 92.7076 100.626 92.7076V92.4076ZM99.1247 93.9091H98.8247V103.499H99.1247H99.4247V93.9091H99.1247ZM99.1247 103.499H98.8247C98.8247 104.495 99.6299 105.301 100.626 105.301V105.001V104.701C99.9614 104.701 99.4247 104.164 99.4247 103.499H99.1247ZM100.626 105.001V105.301H110.211V105.001V104.701H100.626V105.001ZM110.211 105.001V105.301C111.207 105.301 112.012 104.495 112.012 103.499H111.712H111.412C111.412 104.164 110.876 104.701 110.211 104.701V105.001ZM111.712 103.499H112.012V93.9091H111.712H111.412V103.499H111.712ZM111.712 93.9091H112.012C112.012 92.9131 111.207 92.1076 110.211 92.1076V92.4076V92.7076C110.876 92.7076 111.412 93.2442 111.412 93.9091H111.712ZM110.211 92.4076V92.1076H100.626V92.4076V92.7076H110.211V92.4076ZM127.523 95.4108V95.1108H120.939V95.4108V95.7108H127.523V95.4108ZM120.939 95.4108H120.639V101.997H120.939H121.239V95.4108H120.939ZM120.939 101.997V102.297H127.523V101.997V101.697H120.939V101.997ZM127.523 101.997H127.823V95.4108H127.523H127.223V101.997H127.523ZM119.438 92.4076V92.1076C118.443 92.1076 117.637 92.9132 117.637 93.9091H117.938H118.237C118.237 93.2443 118.774 92.7076 119.438 92.7076V92.4076ZM117.938 93.9091H117.637V103.499H117.938H118.237V93.9091H117.938ZM117.938 103.499H117.637C117.637 104.495 118.443 105.301 119.438 105.301V105.001V104.701C118.774 104.701 118.237 104.164 118.237 103.499H117.938ZM119.438 105.001V105.301H129.024V105.001V104.701H119.438V105.001ZM129.024 105.001V105.301C130.02 105.301 130.825 104.495 130.825 103.499H130.525H130.225C130.225 104.164 129.688 104.701 129.024 104.701V105.001ZM130.525 103.499H130.825V93.9091H130.525H130.225V103.499H130.525ZM130.525 93.9091H130.825C130.825 92.9131 130.02 92.1076 129.024 92.1076V92.4076V92.7076C129.688 92.7076 130.225 93.2442 130.225 93.9091H130.525ZM129.024 92.4076V92.1076H119.438V92.4076V92.7076H129.024V92.4076ZM102.495 113.128V113.428H108.334V113.128V112.828H102.495V113.128ZM108.334 113.128V113.428C109.33 113.428 110.135 112.623 110.135 111.627H109.835H109.535C109.535 112.291 108.998 112.828 108.334 112.828V113.128ZM109.835 111.627H110.135C110.135 110.631 109.33 109.825 108.334 109.825V110.125V110.425C108.998 110.425 109.535 110.962 109.535 111.627H109.835ZM108.334 110.125V109.825H102.495V110.125V110.425H108.334V110.125ZM102.495 110.125V109.825C101.499 109.825 100.694 110.631 100.694 111.627H100.994H101.294C101.294 110.962 101.831 110.425 102.495 110.425V110.125ZM100.994 111.627H100.694C100.694 112.623 101.499 113.428 102.495 113.428V113.128V112.828C101.831 112.828 101.294 112.291 101.294 111.627H100.994ZM121.315 113.128V113.428H127.154V113.128V112.828H121.315V113.128ZM127.154 113.128V113.428C128.149 113.428 128.954 112.623 128.954 111.627H128.654H128.354C128.354 112.291 127.818 112.828 127.154 112.828V113.128ZM128.654 111.627H128.954C128.954 110.631 128.149 109.825 127.154 109.825V110.125V110.425C127.818 110.425 128.354 110.962 128.354 111.627H128.654ZM127.154 110.125V109.825H121.315V110.125V110.425H127.154V110.125ZM121.315 110.125V109.825C120.319 109.825 119.514 110.631 119.514 111.627H119.814H120.114C120.114 110.962 120.65 110.425 121.315 110.425V110.125ZM119.814 111.627H119.514C119.514 112.623 120.319 113.428 121.315 113.428V113.128V112.828C120.65 112.828 120.114 112.291 120.114 111.627H119.814ZM109.039 11V10.7C98.0028 10.7 89.0567 19.6508 89.0567 30.6912H89.3568H89.6568C89.6568 19.982 98.3344 11.3 109.039 11.3V11ZM89.3568 30.6912H89.0567C89.0567 41.7315 98.0036 50.6823 109.039 50.6823V50.3823V50.0823C98.3352 50.0823 89.6568 41.4004 89.6568 30.6912H89.3568ZM109.039 50.3823V50.6823C120.075 50.6823 129.022 41.7315 129.022 30.6912H128.722H128.422C128.422 41.4004 119.744 50.0823 109.039 50.0823V50.3823ZM128.722 30.6912H129.022C129.022 19.6508 120.075 10.7 109.039 10.7V11V11.3C119.744 11.3 128.422 19.982 128.422 30.6912H128.722ZM116.76 21.9835L117.054 21.9237C116.539 19.3937 115.729 16.7701 114.512 14.6826L114.253 14.8337L113.994 14.9848C115.165 16.9928 115.958 19.5451 116.466 22.0434L116.76 21.9835ZM114.253 14.8337L114.159 15.1186C117.074 16.0793 119.636 17.8332 121.579 20.1458L121.809 19.9528L122.039 19.7598C120.025 17.3628 117.368 15.5447 114.347 14.5488L114.253 14.8337ZM121.809 19.9528L121.667 19.6887C120.134 20.5143 118.46 21.1945 116.678 21.7005L116.76 21.9891L116.842 22.2777C118.665 21.7601 120.38 21.0637 121.951 20.217L121.809 19.9528ZM116.76 21.9891L117.06 21.9969L117.06 21.9914L116.76 21.9835L116.461 21.9757L116.46 21.9813L116.76 21.9891ZM104.235 22.6377L104.529 22.6967C104.845 21.1236 105.25 19.701 105.721 18.4734L105.44 18.366L105.16 18.2586C104.676 19.5224 104.262 20.9779 103.941 22.5787L104.235 22.6377ZM105.44 18.366L105.72 18.4744C106.277 17.037 106.853 15.9817 107.427 15.291C108.003 14.598 108.544 14.3104 109.034 14.3104C109.524 14.3104 110.064 14.598 110.64 15.291C111.214 15.9817 111.79 17.037 112.347 18.4744L112.627 18.366L112.907 18.2575C112.338 16.7913 111.734 15.6688 111.102 14.9075C110.471 14.1487 109.778 13.7104 109.034 13.7104C108.29 13.7104 107.597 14.1487 106.966 14.9075C106.333 15.6688 105.729 16.7913 105.161 18.2575L105.44 18.366ZM112.627 18.366L112.347 18.4745C112.823 19.7013 113.228 21.1232 113.538 22.6957L113.832 22.6377L114.127 22.5797C113.811 20.9783 113.397 19.522 112.907 18.2575L112.627 18.366ZM113.832 22.6377L113.783 22.3418C110.677 22.8596 107.39 22.8596 104.279 22.3417L104.229 22.6377L104.18 22.9336C107.357 23.4623 110.711 23.4623 113.882 22.9336L113.832 22.6377ZM104.229 22.6377V22.9377H104.235V22.6377V22.3377H104.229V22.6377ZM96.264 19.9472L96.4936 20.1402C98.4368 17.8275 101 16.0735 103.914 15.113L103.82 14.828L103.726 14.5431C100.705 15.539 98.0483 17.3572 96.0343 19.7542L96.264 19.9472ZM103.82 14.828L103.561 14.6772C102.344 16.7702 101.534 19.3936 101.019 21.9179L101.313 21.9779L101.607 22.0379C102.115 19.5453 102.908 16.9927 104.079 14.9788L103.82 14.828ZM101.313 21.9779L101.395 21.6893C99.6121 21.183 97.9385 20.5085 96.4068 19.6779L96.2638 19.9417L96.1208 20.2054C97.6937 21.0583 99.4085 21.7489 101.231 22.2665L101.313 21.9779ZM96.2638 19.9417L95.9639 19.9495L95.9641 19.955L96.264 19.9472L96.5639 19.9394L96.5637 19.9338L96.2638 19.9417ZM101.313 39.3937L101.231 39.1051C99.4087 39.6227 97.6938 40.3133 96.1209 41.1663L96.264 41.43L96.407 41.6937C97.9386 40.8631 99.6122 40.1886 101.395 39.6823L101.313 39.3937ZM96.264 41.43L96.0343 41.623C98.0483 44.02 100.705 45.8382 103.726 46.8341L103.82 46.5491L103.914 46.2642C101 45.3036 98.4368 43.5496 96.4936 41.237L96.264 41.43ZM103.82 46.5491L104.079 46.3983C102.908 44.3844 102.115 41.8319 101.607 39.3393L101.313 39.3993L101.019 39.4592C101.534 41.9836 102.344 44.607 103.561 46.6999L103.82 46.5491ZM101.313 39.3993L101.613 39.4071L101.613 39.4016L101.313 39.3937L101.013 39.3859L101.013 39.3914L101.313 39.3993ZM113.838 38.7396L113.887 38.4437C110.716 37.915 107.363 37.915 104.186 38.4437L104.235 38.7396L104.284 39.0355C107.396 38.5177 110.683 38.5177 113.789 39.0355L113.838 38.7396ZM104.235 38.7396L103.941 38.7986C104.262 40.3993 104.676 41.8549 105.16 43.1187L105.44 43.0113L105.721 42.9039C105.25 41.6762 104.845 40.2537 104.529 38.6806L104.235 38.7396ZM105.44 43.0113L105.161 43.1197C105.729 44.586 106.333 45.7085 106.966 46.4698C107.597 47.2285 108.29 47.6669 109.034 47.6669C109.778 47.6669 110.471 47.2285 111.102 46.4698C111.734 45.7085 112.338 44.586 112.907 43.1197L112.627 43.0113L112.347 42.9029C111.79 44.3403 111.214 45.3956 110.64 46.0862C110.064 46.7793 109.524 47.0669 109.034 47.0669C108.544 47.0669 108.003 46.7793 107.427 46.0862C106.853 45.3956 106.277 44.3403 105.72 42.9029L105.44 43.0113ZM112.627 43.0113L112.907 43.1198C113.397 41.8553 113.811 40.399 114.127 38.7976L113.832 38.7396L113.538 38.6816C113.228 40.254 112.823 41.6759 112.347 42.9028L112.627 43.0113ZM113.832 38.7396V39.0396H113.838V38.7396V38.4396H113.832V38.7396ZM121.809 41.4301L121.952 41.166C120.38 40.3193 118.665 39.6229 116.842 39.1053L116.76 39.3939L116.678 39.6824C118.46 40.1885 120.135 40.8687 121.667 41.6942L121.809 41.4301ZM116.76 39.3939L116.466 39.334C115.958 41.8323 115.165 44.3846 113.994 46.3926L114.253 46.5437L114.512 46.6948C115.729 44.6073 116.539 41.9837 117.054 39.4537L116.76 39.3939ZM114.253 46.5437L114.347 46.8286C117.369 45.8326 120.019 44.0144 122.039 41.6179L121.809 41.4246L121.58 41.2312C119.631 43.5444 117.073 45.2982 114.159 46.2588L114.253 46.5437ZM121.809 41.4246L121.509 41.4324L121.509 41.4379L121.809 41.4301L122.109 41.4223L122.109 41.4167L121.809 41.4246ZM117.244 36.4247L117.541 36.4619C118.011 32.7115 118.011 28.6651 117.541 24.9148L117.244 24.952L116.946 24.9893C117.409 28.6902 117.409 32.6865 116.946 36.3874L117.244 36.4247ZM117.244 24.952L117.323 25.2413C119.624 24.6099 121.722 23.7708 123.683 22.6832L123.538 22.4208L123.392 22.1585C121.476 23.221 119.423 24.0428 117.164 24.6627L117.244 24.952ZM123.538 22.4208L123.277 22.5695C126.141 27.5909 126.141 33.7915 123.277 38.8063L123.538 38.9551L123.798 39.1039C126.768 33.9046 126.767 27.4777 123.798 22.2722L123.538 22.4208ZM123.538 38.9551L123.683 38.6929C121.728 37.6054 119.63 36.7611 117.322 36.1351L117.244 36.4247L117.165 36.7142C119.429 37.3283 121.481 38.1548 123.392 39.2173L123.538 38.9551ZM103.775 35.7819L104.073 35.747C103.689 32.4712 103.689 28.9054 104.073 25.6296L103.775 25.5947L103.477 25.5598C103.087 28.882 103.087 32.4946 103.477 35.8168L103.775 35.7819ZM103.775 25.5947L103.725 25.8906C107.221 26.4763 110.859 26.4763 114.354 25.8906L114.304 25.5947L114.255 25.2988C110.825 25.8735 107.254 25.8735 103.824 25.2988L103.775 25.5947ZM114.304 25.5947L114.006 25.6296C114.39 28.9054 114.39 32.4712 114.006 35.747L114.304 35.7819L114.602 35.8168C114.992 32.4946 114.992 28.882 114.602 25.5598L114.304 25.5947ZM114.304 35.7819L114.354 35.486C110.853 34.9004 107.221 34.9004 103.725 35.486L103.775 35.7819L103.824 36.0778C107.254 35.5031 110.82 35.5031 114.255 36.0778L114.304 35.7819ZM94.5414 38.9558L94.802 38.8072C91.9378 33.7858 91.9379 27.5851 94.8019 22.5703L94.5414 22.4215L94.2809 22.2728C91.3115 27.4721 91.3116 33.8989 94.2808 39.1045L94.5414 38.9558ZM94.5414 22.4215L94.3956 22.6837C96.3511 23.7713 98.4491 24.6163 100.757 25.2423L100.835 24.9527L100.914 24.6632C98.6502 24.0491 96.5977 23.2219 94.6872 22.1594L94.5414 22.4215ZM100.835 24.9527L100.538 24.9155C100.068 28.6658 100.068 32.7123 100.538 36.4626L100.835 36.4254L101.133 36.3881C100.67 32.6872 100.67 28.6909 101.133 24.99L100.835 24.9527ZM100.835 36.4254L100.756 36.136C98.4492 36.7675 96.3572 37.6059 94.3959 38.6935L94.5414 38.9558L94.6869 39.2182C96.603 38.1557 98.6501 37.3346 100.914 36.7147L100.835 36.4254ZM24.5581 99.0152H24.2581V106.097H24.5581H24.8581V99.0152H24.5581ZM24.5581 106.097V106.397H31.6366V106.097V105.797H24.5581V106.097ZM31.6366 106.097H31.9366V99.0152H31.6366H31.3366V106.097H31.6366ZM31.6366 99.0152V98.7151H24.5581V99.0152V99.3151H31.6366V99.0152ZM38.9198 99.0152H38.6198V106.097H38.9198H39.2198V99.0152H38.9198ZM38.9198 106.097V106.397H45.9983V106.097V105.797H38.9198V106.097ZM45.9983 106.097H46.2983V99.0152H45.9983H45.6983V106.097H45.9983ZM45.9983 99.0152V98.7151H38.9198V99.0152V99.3151H45.9983V99.0152ZM24.5581 111.381H24.2581V118.462H24.5581H24.8581V111.381H24.5581ZM24.5581 118.462V118.762H31.6366V118.462V118.162H24.5581V118.462ZM31.6366 118.462H31.9366V111.381H31.6366H31.3366V118.462H31.6366ZM31.6366 111.381V111.081H24.5581V111.381V111.681H31.6366V111.381ZM38.9198 111.381H38.6198V118.462H38.9198H39.2198V111.381H38.9198ZM38.9198 118.462V118.762H45.9983V118.462V118.162H38.9198V118.462ZM45.9983 118.462H46.2983V111.381H45.9983H45.6983V118.462H45.9983ZM45.9983 111.381V111.081H38.9198V111.381V111.681H45.9983V111.381ZM24.5581 123.747H24.2581V130.828H24.5581H24.8581V123.747H24.5581ZM24.5581 130.828V131.128H31.6366V130.828V130.528H24.5581V130.828ZM31.6366 130.828H31.9366V123.747H31.6366H31.3366V130.828H31.6366ZM31.6366 123.747V123.447H24.5581V123.747V124.047H31.6366V123.747ZM38.9198 123.747H38.6198V130.828H38.9198H39.2198V123.747H38.9198ZM38.9198 130.828V131.128H45.9983V130.828V130.528H38.9198V130.828ZM45.9983 130.828H46.2983V123.747H45.9983H45.6983V130.828H45.9983ZM45.9983 123.747V123.447H38.9198V123.747V124.047H45.9983V123.747ZM62.1743 99.0099H61.8743V106.091H62.1743H62.4743V99.0099H62.1743ZM62.1743 106.091V106.391H69.2528V106.091V105.791H62.1743V106.091ZM69.2528 106.091H69.5528V99.0099H69.2528H68.9528V106.091H69.2528ZM69.2528 99.0099V98.7099H62.1743V99.0099V99.3099H69.2528V99.0099ZM76.536 99.0099H76.236V106.091H76.536H76.836V99.0099H76.536ZM76.536 106.091V106.391H83.6145V106.091V105.791H76.536V106.091ZM83.6145 106.091H83.9145V99.0099H83.6145H83.3145V106.091H83.6145ZM83.6145 99.0099V98.7099H76.536V99.0099V99.3099H83.6145V99.0099ZM62.1743 111.376H61.8743V118.457H62.1743H62.4743V111.376H62.1743ZM62.1743 118.457V118.757H69.2528V118.457V118.157H62.1743V118.457ZM69.2528 118.457H69.5528V111.376H69.2528H68.9528V118.457H69.2528ZM69.2528 111.376V111.076H62.1743V111.376V111.676H69.2528V111.376ZM76.536 111.376H76.236V118.457H76.536H76.836V111.376H76.536ZM76.536 118.457V118.757H83.6145V118.457V118.157H76.536V118.457ZM83.6145 118.457H83.9145V111.376H83.6145H83.3145V118.457H83.6145ZM83.6145 111.376V111.076H76.536V111.376V111.676H83.6145V111.376ZM62.1743 123.741H61.8743V130.823H62.1743H62.4743V123.741H62.1743ZM62.1743 130.823V131.123H69.2528V130.823V130.523H62.1743V130.823ZM69.2528 130.823H69.5528V123.741H69.2528H68.9528V130.823H69.2528ZM69.2528 123.741V123.441H62.1743V123.741V124.041H69.2528V123.741ZM76.536 123.741H76.236V130.823H76.536H76.836V123.741H76.536ZM76.536 130.823V131.123H83.6145V130.823V130.523H76.536V130.823ZM83.6145 130.823H83.9145V123.741H83.6145H83.3145V130.823H83.6145ZM83.6145 123.741V123.441H76.536V123.741V124.041H83.6145V123.741Z" fill="#663366" mask="url(#path-1-outside-1_105_1222)"/>
</svg>
