<svg width="150" height="150" viewBox="0 0 150 150" fill="none" xmlns="http://www.w3.org/2000/svg">
<path d="M68.6699 6V8.05504" stroke="#663366" stroke-width="4.3" stroke-miterlimit="10" stroke-linecap="round" stroke-linejoin="round"/>
<path d="M68.6699 22.6211V24.6761" stroke="#663366" stroke-width="4.3" stroke-miterlimit="10" stroke-linecap="round" stroke-linejoin="round"/>
<path d="M77.9855 15.3359H75.9355" stroke="#663366" stroke-width="4.3" stroke-miterlimit="10" stroke-linecap="round" stroke-linejoin="round"/>
<path d="M61.4037 15.3359H59.3535" stroke="#663366" stroke-width="4.3" stroke-miterlimit="10" stroke-linecap="round" stroke-linejoin="round"/>
<path d="M118.518 6L120.632 11.8333C122.258 16.3193 125.738 19.862 130.159 21.532L135.831 23.6747L130.159 25.8174C125.738 27.4874 122.259 31.0301 120.632 35.5161L118.518 41.3494L116.404 35.5161C114.778 31.0301 111.298 27.4874 106.877 25.8174L101.205 23.6747L106.877 21.532C111.298 19.862 114.778 16.3193 116.404 11.8333L118.518 6Z" stroke="#663366" stroke-width="4.3" stroke-miterlimit="10" stroke-linecap="round" stroke-linejoin="round"/>
<path d="M21.087 17.5195L22.5619 21.5886C23.6961 24.7179 26.1236 27.1892 29.2079 28.3544L33.1643 29.8492L29.2079 31.3437C26.1239 32.5086 23.6964 34.98 22.5619 38.1095L21.087 42.1786L19.6122 38.1095C18.478 34.9803 16.0505 32.5089 12.9662 31.3437L9.00977 29.8492L12.9662 28.3544C16.0502 27.1895 18.4777 24.7181 19.6122 21.5886L21.087 17.5195Z" stroke="#663366" stroke-width="4.3" stroke-miterlimit="10" stroke-linecap="round" stroke-linejoin="round"/>
<path d="M83.8197 114.797H53.4961V144.417H83.8197V114.797Z" stroke="#663366" stroke-width="4.3" stroke-miterlimit="10" stroke-linecap="round" stroke-linejoin="round"/>
<path d="M83.8197 57.9844H53.4961V73.8917H83.8197V57.9844Z" stroke="#663366" stroke-width="4.3" stroke-miterlimit="10" stroke-linecap="round" stroke-linejoin="round"/>
<path d="M83.8197 86.25H53.4961V102.157H83.8197V86.25Z" stroke="#663366" stroke-width="4.3" stroke-miterlimit="10" stroke-linecap="round" stroke-linejoin="round"/>
<path d="M33.1814 80.9102H12.8672V144.417H33.1814V80.9102Z" stroke="#663366" stroke-width="4.3" stroke-miterlimit="10" stroke-linecap="round" stroke-linejoin="round"/>
<path d="M137.134 57.9844H99.4102V144.42H137.134V57.9844Z" stroke="#663366" stroke-width="4.3" stroke-miterlimit="10" stroke-linecap="round" stroke-linejoin="round"/>
<path d="M53.4959 57.9844H12.8672V144.42H53.4959V57.9844Z" stroke="#663366" stroke-width="4.3" stroke-miterlimit="10" stroke-linecap="round" stroke-linejoin="round"/>
<path d="M37.9297 37.457V57.9813H53.4953V144.417H99.4102V37.457H37.9297Z" stroke="#663366" stroke-width="4.3" stroke-miterlimit="10" stroke-linecap="round" stroke-linejoin="round"/>
<path d="M5 144.418H145" stroke="#663366" stroke-width="4.3" stroke-miterlimit="10" stroke-linecap="round" stroke-linejoin="round"/>
<path d="M111.801 78.125H124.742" stroke="#663366" stroke-width="4.3" stroke-miterlimit="10" stroke-linecap="round" stroke-linejoin="round"/>
<path d="M111.801 93.5078H124.742" stroke="#663366" stroke-width="4.3" stroke-miterlimit="10" stroke-linecap="round" stroke-linejoin="round"/>
<path d="M111.801 108.891H124.742" stroke="#663366" stroke-width="4.3" stroke-miterlimit="10" stroke-linecap="round" stroke-linejoin="round"/>
<path d="M111.801 124.277H124.742" stroke="#663366" stroke-width="4.3" stroke-miterlimit="10" stroke-linecap="round" stroke-linejoin="round"/>
</svg>
