<svg width="150" height="150" viewBox="0 0 150 150" fill="none" xmlns="http://www.w3.org/2000/svg">
<path d="M106.614 22.1746C110.256 27.9014 112.366 34.7013 112.366 41.9915C112.366 55.7773 104.825 67.797 93.6446 74.1604L89.6024 90.335H61.1461L57.1039 74.1604C45.9236 67.797 38.3828 55.7773 38.3828 41.9915C38.3828 21.5605 54.9433 5 75.3743 5C84.9658 5 93.7094 8.6507 100.281 14.6394" stroke="#663366" stroke-width="4.22534" stroke-miterlimit="10" stroke-linecap="round" stroke-linejoin="round"/>
<path d="M61.1465 90.3359H89.6016L87.7954 97.9404C87.1861 100.505 84.8949 102.316 82.2585 102.316H68.4896C65.8532 102.316 63.5617 100.506 62.9527 97.9404L61.1465 90.3359Z" stroke="#663366" stroke-width="4.22534" stroke-miterlimit="10" stroke-linecap="round" stroke-linejoin="round"/>
<path d="M58.3008 90.3359H92.4472" stroke="#663366" stroke-width="4.22534" stroke-miterlimit="10" stroke-linecap="round" stroke-linejoin="round"/>
<path d="M88.7468 52.2344H62.1113" stroke="#663366" stroke-width="4.22534" stroke-miterlimit="10" stroke-linecap="round" stroke-linejoin="round"/>
<path d="M93.8714 42.0125L93.9568 39.6564C93.9596 39.5911 93.9596 39.5254 93.9596 39.4629C93.9596 36.6288 91.6633 34.3125 88.8092 34.3125C86.0661 34.3125 83.8039 36.4638 83.6644 39.204L81.0664 90.3408" stroke="#663366" stroke-width="4.22534" stroke-miterlimit="10" stroke-linecap="round" stroke-linejoin="round"/>
<path d="M56.8792 42.0125L56.7938 39.6564C56.791 39.5911 56.791 39.5254 56.791 39.4629C56.791 36.6288 59.0873 34.3125 61.9414 34.3125C64.6845 34.3125 66.9468 36.4638 67.0862 39.204L69.6842 90.3408" stroke="#663366" stroke-width="4.22534" stroke-miterlimit="10" stroke-linecap="round" stroke-linejoin="round"/>
<path d="M47.1035 118.82H57.1607" stroke="#663366" stroke-width="4.22534" stroke-miterlimit="10" stroke-linecap="round" stroke-linejoin="round"/>
<path d="M52.1113 119.398V137.028" stroke="#663366" stroke-width="4.22534" stroke-miterlimit="10" stroke-linecap="round" stroke-linejoin="round"/>
<path d="M74.2324 129.125V137.035" stroke="#663366" stroke-width="4.22534" stroke-miterlimit="10" stroke-linecap="round" stroke-linejoin="round"/>
<path d="M84.2473 123.959C84.2473 126.798 81.9147 129.099 79.1578 129.099C77.7904 129.099 74.2324 129.121 74.2324 129.121V118.82C74.2324 118.82 77.5423 118.82 79.1578 118.82C81.9147 118.82 84.2473 121.121 84.2473 123.959Z" stroke="#663366" stroke-width="4.22534" stroke-miterlimit="10" stroke-linecap="round" stroke-linejoin="round"/>
<path d="M65.6973 118.82V137.032" stroke="#663366" stroke-width="4.22534" stroke-miterlimit="10" stroke-linecap="round" stroke-linejoin="round"/>
<path d="M103.045 120.692C103.045 120.692 99.7766 117.946 95.9231 119.106C92.3848 120.172 91.8899 124.252 94.4499 125.921C94.4499 125.921 96.9617 127.042 99.7479 128.07C106.455 130.544 103.566 137.032 98.1665 137.032C95.4628 137.032 93.1935 135.848 91.8203 134.333" stroke="#663366" stroke-width="4.22534" stroke-miterlimit="10" stroke-linecap="round" stroke-linejoin="round"/>
<path d="M42.1718 144.998H32.6929C29.5493 144.998 27 142.449 27 139.308V116.542C27 113.401 29.5493 110.852 32.6929 110.852H97.7322" stroke="#663366" stroke-width="4.22534" stroke-miterlimit="10" stroke-linecap="round" stroke-linejoin="round"/>
<path d="M107.592 110.852H118.056C121.2 110.852 123.749 113.401 123.749 116.542V139.308C123.749 142.449 121.2 144.998 118.056 144.998H52.0312" stroke="#663366" stroke-width="4.22534" stroke-miterlimit="10" stroke-linecap="round" stroke-linejoin="round"/>
</svg>
