<svg width="150" height="150" viewBox="0 0 150 150" fill="none" xmlns="http://www.w3.org/2000/svg">
<mask id="mask0_1050_501" style="mask-type:luminance" maskUnits="userSpaceOnUse" x="5" y="5" width="140" height="140">
<path d="M5 5H145V145H5V5Z" fill="white"/>
</mask>
<g mask="url(#mask0_1050_501)">
<path d="M119.197 119.53H131.448C132.401 119.53 133.173 120.302 133.173 121.255V125.062" stroke="#663366" stroke-width="4.10156" stroke-miterlimit="10" stroke-linecap="round" stroke-linejoin="round"/>
<path d="M133.173 134.56V135.663C133.173 139.715 129.888 143 125.836 143" stroke="#663366" stroke-width="4.10156" stroke-miterlimit="10" stroke-linecap="round" stroke-linejoin="round"/>
<path d="M32.7891 27.6206V128.325C32.7891 136.43 39.3589 143 47.4636 143L126.613 142.958" stroke="#663366" stroke-width="4.10156" stroke-miterlimit="10" stroke-linecap="round" stroke-linejoin="round"/>
<path d="M126.614 142.958V143C122.562 143.045 119.24 139.756 119.194 135.704L119.221 21.6698C119.221 13.5652 112.651 6.99527 104.546 6.99527H103.303" stroke="#663366" stroke-width="4.10156" stroke-miterlimit="10" stroke-linecap="round" stroke-linejoin="round"/>
<path d="M46.0137 103.805H70.1675" stroke="#663366" stroke-width="4.10156" stroke-miterlimit="10" stroke-linecap="round" stroke-linejoin="round"/>
<path d="M81.834 103.805H105.988" stroke="#663366" stroke-width="4.10156" stroke-miterlimit="10" stroke-linecap="round" stroke-linejoin="round"/>
<path d="M46.0137 112.383H70.1675" stroke="#663366" stroke-width="4.10156" stroke-miterlimit="10" stroke-linecap="round" stroke-linejoin="round"/>
<path d="M81.834 112.383H105.988" stroke="#663366" stroke-width="4.10156" stroke-miterlimit="10" stroke-linecap="round" stroke-linejoin="round"/>
<path d="M46.0137 120.961H70.1675" stroke="#663366" stroke-width="4.10156" stroke-miterlimit="10" stroke-linecap="round" stroke-linejoin="round"/>
<path d="M81.834 120.961H105.988" stroke="#663366" stroke-width="4.10156" stroke-miterlimit="10" stroke-linecap="round" stroke-linejoin="round"/>
<path d="M46.0137 129.539H70.1675" stroke="#663366" stroke-width="4.10156" stroke-miterlimit="10" stroke-linecap="round" stroke-linejoin="round"/>
<path d="M81.834 129.539H105.988" stroke="#663366" stroke-width="4.10156" stroke-miterlimit="10" stroke-linecap="round" stroke-linejoin="round"/>
<path d="M104.063 7.00016H27.1655C21.0071 7.00016 16.1815 12.3601 16.899 18.4766C16.9091 18.5638 16.92 18.6508 16.9312 18.7377C17.6017 23.8417 22.0125 27.625 27.1603 27.625H100.203C101.896 27.625 103.046 25.9062 102.4 24.3399C100.72 20.266 99.0235 13.1109 104.063 7.00016Z" stroke="#663366" stroke-width="4.10156" stroke-miterlimit="10" stroke-linecap="round" stroke-linejoin="round"/>
<path d="M61.5656 49.1615C57.7727 56.3275 58.1826 65.1341 62.793 71.9473L58.1785 76.5621L55.7763 74.1602C54.1275 72.5114 51.4536 72.5114 49.8045 74.1602C48.1556 75.8091 48.1556 78.4833 49.8045 80.1324L52.2063 82.5343L47.8792 86.8614C46.2304 88.5102 46.2304 91.1847 47.8792 92.8336C48.7031 93.6574 49.7842 94.0703 50.8651 94.0703C51.9463 94.0703 53.0264 93.6582 53.8513 92.8336L58.1785 88.5064L60.5804 90.9083C62.2295 92.5571 64.9037 92.5571 66.5525 90.9083C68.2016 89.2594 68.2016 86.585 66.5525 84.9361L64.1506 82.5343L68.7652 77.9194C77.3943 83.759 89.221 82.8599 96.8622 75.219C105.525 66.5562 105.525 52.513 96.8622 43.8502C88.8688 35.8571 76.2935 35.2394 67.5924 41.9982" stroke="#663366" stroke-width="4.10156" stroke-miterlimit="10" stroke-linecap="round" stroke-linejoin="round"/>
<path d="M72.2658 68.4497C67.3426 63.5265 67.3448 55.5462 72.2658 50.6249C77.1893 45.7019 85.1693 45.6995 90.0929 50.623C95.0139 55.544 95.0139 63.5265 90.0907 68.4497C85.1693 73.3708 77.1872 73.3711 72.2658 68.4497Z" stroke="#663366" stroke-width="4.10156" stroke-miterlimit="10" stroke-linecap="round" stroke-linejoin="round"/>
</g>
</svg>
