<svg width="150" height="150" viewBox="0 0 150 150" fill="none" xmlns="http://www.w3.org/2000/svg">
<path d="M42.7852 72.5329V58.2656" stroke="#663366" stroke-width="4.22534" stroke-miterlimit="10" stroke-linecap="round" stroke-linejoin="round"/>
<path d="M42.7852 96.1275V82.3906" stroke="#663366" stroke-width="4.22534" stroke-miterlimit="10" stroke-linecap="round" stroke-linejoin="round"/>
<path d="M107.473 58.2734V96.1277" stroke="#663366" stroke-width="4.22534" stroke-miterlimit="10" stroke-linecap="round" stroke-linejoin="round"/>
<path d="M92.6953 8.53125C101.505 13.3901 107.474 22.7689 107.474 33.5416C107.474 37.1069 107.474 40.6726 107.474 44.2382" stroke="#663366" stroke-width="4.22534" stroke-miterlimit="10" stroke-linecap="round" stroke-linejoin="round"/>
<path d="M42.7852 44.2416V31.4844C42.7852 26.9985 43.7449 23.1904 45.3908 19.8887C46.0899 18.4862 48.3618 14.2929 53.4434 11.6603C56.862 9.889 60.84 9.18534 64.8518 9.83632C68.8755 6.70197 73.8301 5 78.9301 5C80.4369 5 81.9166 5.1169 83.3602 5.34169" stroke="#663366" stroke-width="4.22534" stroke-miterlimit="10" stroke-linecap="round" stroke-linejoin="round"/>
<path d="M62.5769 78.4922V87.9583C62.5769 90.4665 60.9189 92.6727 58.5096 93.3699L45.3789 97.1854" stroke="#663366" stroke-width="4.22534" stroke-miterlimit="10" stroke-linecap="round" stroke-linejoin="round"/>
<path d="M104.973 97.1629L91.7594 93.3657C89.345 92.6719 87.6816 90.4632 87.6816 87.9511V78.4844" stroke="#663366" stroke-width="4.22534" stroke-miterlimit="10" stroke-linecap="round" stroke-linejoin="round"/>
<path d="M49.6185 60.3284H48.7692C43.4915 60.3284 39.2129 56.0498 39.2129 50.7721V49.5853C39.2129 46.4186 41.7799 43.8516 44.9467 43.8516H49.1391" stroke="#663366" stroke-width="4.22534" stroke-miterlimit="10" stroke-linecap="round" stroke-linejoin="round"/>
<path d="M100.539 43.8516H105.311C108.477 43.8516 111.044 46.4186 111.044 49.5853V50.7721C111.044 56.0498 106.766 60.3284 101.488 60.3284H100.635" stroke="#663366" stroke-width="4.22534" stroke-miterlimit="10" stroke-linecap="round" stroke-linejoin="round"/>
<path d="M64.8512 9.83594C60.38 13.543 62.8509 19.1725 65.047 21.7677L65.434 22.1767C69.403 27.0739 75.3698 29.9184 81.6734 29.9184H82.1751C89.1801 29.9184 95.5398 33.6973 98.8466 39.7668L98.9517 39.9598C100.35 42.526 101.082 45.4017 101.081 48.3243C101.081 49.3651 101.081 52.7896 101.08 54.0324C101.078 64.8183 94.9838 74.6788 85.3365 79.5025L80.5866 81.8774C77.1506 83.5954 73.1061 83.5954 69.6701 81.8774L64.9202 79.5025C55.2721 74.6785 49.1777 64.8172 49.1777 54.0304V43.8527H51.1715C61.0467 43.8527 68.8261 35.9632 68.8261 26.1979V25.5035" stroke="#663366" stroke-width="4.22534" stroke-miterlimit="10" stroke-linecap="round" stroke-linejoin="round"/>
<path d="M88.5068 48.9893C86.7795 47.9307 84.6043 47.9307 82.877 48.9893" stroke="#663366" stroke-width="4.22534" stroke-miterlimit="10" stroke-linecap="round" stroke-linejoin="round"/>
<path d="M61.75 48.9893C63.4773 47.9307 65.6525 47.9307 67.3798 48.9893" stroke="#663366" stroke-width="4.22534" stroke-miterlimit="10" stroke-linecap="round" stroke-linejoin="round"/>
<path d="M72.3145 59.5547C74.0829 60.4558 76.1761 60.4558 77.9446 59.5547" stroke="#663366" stroke-width="4.22534" stroke-miterlimit="10" stroke-linecap="round" stroke-linejoin="round"/>
<path d="M70.3398 69.3594C73.3483 70.8923 76.9088 70.8923 79.9173 69.3594" stroke="#663366" stroke-width="4.22534" stroke-miterlimit="10" stroke-linecap="round" stroke-linejoin="round"/>
<path d="M61.0469 40.9586C63.2762 39.9096 65.8567 39.9096 68.0857 40.9586" stroke="#663366" stroke-width="4.22534" stroke-miterlimit="10" stroke-linecap="round" stroke-linejoin="round"/>
<path d="M82.1719 40.9586C84.4012 39.9096 86.9817 39.9096 89.2107 40.9586" stroke="#663366" stroke-width="4.22534" stroke-miterlimit="10" stroke-linecap="round" stroke-linejoin="round"/>
<path d="M96.2676 132.891L115.09 144.997" stroke="#663366" stroke-width="4.22534" stroke-miterlimit="10" stroke-linecap="round" stroke-linejoin="round"/>
<path d="M54.1386 132.889L44.2727 124.246C43.1437 123.257 42.9406 121.576 43.8014 120.347L52.4161 108.044C53.322 106.75 55.0882 106.402 56.4166 107.257L75.127 119.291" stroke="#663366" stroke-width="4.22534" stroke-miterlimit="10" stroke-linecap="round" stroke-linejoin="round"/>
<path d="M52.3715 108.016L46.8723 98.877C45.8228 97.133 43.9188 96.0854 41.8842 96.1325L40.1952 96.1716L35.3566 92.7835C32.7921 90.9877 29.2575 91.6111 27.4617 94.1756L21.0257 103.367C19.2299 105.932 19.8533 109.466 22.4178 111.262L28.9808 115.857C33.4228 118.968 38.8642 120.311 44.2431 119.624" stroke="#663366" stroke-width="4.22534" stroke-miterlimit="10" stroke-linecap="round" stroke-linejoin="round"/>
<path d="M60.4682 128.82L35.3164 144.998" stroke="#663366" stroke-width="4.22534" stroke-miterlimit="10" stroke-linecap="round" stroke-linejoin="round"/>
<path d="M82.4488 144.996L106.134 124.246C107.263 123.257 107.466 121.576 106.606 120.347L97.991 108.044C97.0851 106.75 95.3189 106.402 93.9905 107.257L68.7793 123.473" stroke="#663366" stroke-width="4.22534" stroke-miterlimit="10" stroke-linecap="round" stroke-linejoin="round"/>
<path d="M128.742 102.453L129.381 103.367C131.177 105.931 130.554 109.466 127.989 111.262L121.426 115.857C116.984 118.967 111.543 120.31 106.164 119.624" stroke="#663366" stroke-width="4.22534" stroke-miterlimit="10" stroke-linecap="round" stroke-linejoin="round"/>
<path d="M98.0371 108.016L103.536 98.877C104.586 97.133 106.49 96.0854 108.524 96.1325L110.213 96.1716L115.052 92.7835C117.616 90.9877 121.151 91.6111 122.947 94.1756L123.138 94.4491" stroke="#663366" stroke-width="4.22534" stroke-miterlimit="10" stroke-linecap="round" stroke-linejoin="round"/>
<path d="M25.2051 113.453V145.002" stroke="#663366" stroke-width="4.22534" stroke-miterlimit="10" stroke-linecap="round" stroke-linejoin="round"/>
<path d="M125.203 113.453V145.002" stroke="#663366" stroke-width="4.22534" stroke-miterlimit="10" stroke-linecap="round" stroke-linejoin="round"/>
<path d="M58.5078 93.3672V108.519" stroke="#663366" stroke-width="4.22534" stroke-miterlimit="10" stroke-linecap="round" stroke-linejoin="round"/>
<path d="M91.7578 93.3672V108.525" stroke="#663366" stroke-width="4.22534" stroke-miterlimit="10" stroke-linecap="round" stroke-linejoin="round"/>
<path d="M75.2039 109.083C77.5374 109.083 79.4292 107.192 79.4292 104.858C79.4292 102.525 77.5374 100.633 75.2039 100.633C72.8703 100.633 70.9785 102.525 70.9785 104.858C70.9785 107.192 72.8703 109.083 75.2039 109.083Z" stroke="#663366" stroke-width="4.22534" stroke-miterlimit="10" stroke-linecap="round" stroke-linejoin="round"/>
<path d="M58.5078 93.3672L71.3948 102.236" stroke="#663366" stroke-width="4.22534" stroke-miterlimit="10" stroke-linecap="round" stroke-linejoin="round"/>
<path d="M91.7584 93.3672L78.6387 102.396" stroke="#663366" stroke-width="4.22534" stroke-miterlimit="10" stroke-linecap="round" stroke-linejoin="round"/>
</svg>
