<svg width="150" height="150" viewBox="0 0 150 150" fill="none" xmlns="http://www.w3.org/2000/svg">
<path d="M37.7662 119.403L24.022 100.905C21.5742 97.0986 22.8603 91.9931 26.8632 89.6267C30.6985 87.3596 35.612 88.4567 37.9573 92.104L52.6127 112.019C56.3545 117.838 57.1035 125.086 54.6418 131.648L48.1468 144.439H21.7957L26.4402 134.207L5 105.329V43.1875H10.4738C17.2111 43.1875 22.673 48.6491 22.673 55.3867V97.1826" stroke="#663366" stroke-width="4" stroke-miterlimit="10"/>
<path d="M112.233 119.403L125.978 100.905C128.425 97.0986 127.139 91.9931 123.136 89.6267C119.301 87.3596 114.388 88.4567 112.042 92.104L97.3869 112.019C93.6451 117.838 92.8961 125.086 95.3578 131.648L101.853 144.439H128.204L123.559 134.207L145 105.329V43.1875H139.526C132.789 43.1875 127.327 48.6491 127.327 55.3867V97.1826" stroke="#663366" stroke-width="4" stroke-miterlimit="10"/>
<path d="M87.9612 84.3079L74.7804 91.8397L61.5996 84.3079C48.8673 77.0323 41.0098 63.4922 41.0098 48.8278V13.0605L74.7804 5L108.551 13.0602V48.8278C108.551 63.4922 100.693 77.0323 87.9612 84.3079Z" stroke="#663366" stroke-width="4" stroke-miterlimit="10"/>
<path d="M59.7051 43.9773L69.8072 54.0796L91.5899 32.2969" stroke="#663366" stroke-width="4" stroke-miterlimit="10"/>
</svg>
