<svg width="150" height="150" viewBox="0 0 150 150" fill="none" xmlns="http://www.w3.org/2000/svg">
<g clip-path="url(#clip0_102_811)">
<path d="M15.3612 116.765C28.5293 135.534 50.3317 147.803 75 147.803C115.208 147.803 147.803 115.208 147.803 75C147.803 34.7921 115.208 2.19727 75 2.19727C34.7921 2.19727 2.19727 34.7921 2.19727 75C2.19727 86.8878 5.04668 98.1103 10.0995 108.022" stroke="#663366" stroke-width="4" stroke-miterlimit="10" stroke-linecap="round" stroke-linejoin="round"/>
<path d="M124.358 53.9421C127.129 60.4108 128.663 67.5297 128.663 75.0001C128.663 94.5704 118.134 111.727 102.439 121.102M47.5605 121.102C31.8662 111.727 21.3369 94.5704 21.3369 75.0001C21.3369 45.4103 45.4102 21.337 75 21.337C93.4562 21.337 109.766 30.7023 119.427 44.9304M111.401 11.9512L101.831 28.5271M147.803 75.0001H128.662M2.19727 75.0001H21.3375" stroke="#663366" stroke-width="4" stroke-miterlimit="10" stroke-linecap="round" stroke-linejoin="round"/>
<path d="M63.7332 79.1749L39.4343 67.8575C37.0408 66.7413 38.031 63.1349 40.6589 63.3985L66.9734 66.0646M38.5994 11.9512L48.1695 28.5271" stroke="#663366" stroke-width="4" stroke-miterlimit="10" stroke-linecap="round" stroke-linejoin="round"/>
<path d="M75 87.0117C81.6339 87.0117 87.0117 81.6339 87.0117 75C87.0117 68.3661 81.6339 62.9883 75 62.9883C68.3661 62.9883 62.9883 68.3661 62.9883 75C62.9883 81.6339 68.3661 87.0117 75 87.0117Z" stroke="#663366" stroke-width="4" stroke-miterlimit="10" stroke-linecap="round" stroke-linejoin="round"/>
<path d="M41.4336 139.616L49.6376 114.827C50.2182 113.073 51.337 111.546 52.8349 110.464C54.3329 109.382 56.1338 108.799 57.9816 108.799H92.0164C93.8643 108.799 95.6651 109.382 97.163 110.464C98.661 111.546 99.7798 113.073 100.36 114.827L108.564 139.616M87.984 123.926H62.0141M83.5895 132.715H66.4086" stroke="#663366" stroke-width="4" stroke-miterlimit="10" stroke-linecap="round" stroke-linejoin="round"/>
</g>
<defs>
<clipPath id="clip0_102_811">
<rect width="150" height="150" fill="white"/>
</clipPath>
</defs>
</svg>
