<svg width="150" height="150" viewBox="0 0 150 150" fill="none" xmlns="http://www.w3.org/2000/svg">
<path d="M32.2481 99.0283C23.7776 89.172 18.6621 76.3522 18.6621 62.3381C18.6621 31.2226 43.8847 6 75.0002 6C93.7862 6 110.426 15.1944 120.659 29.3296" stroke="#663366" stroke-width="4.22536" stroke-miterlimit="10" stroke-linecap="round" stroke-linejoin="round"/>
<path d="M125.724 37.7891C129.321 45.2088 131.338 53.5356 131.338 62.3356C131.338 76.3497 126.222 89.1694 117.752 99.0258" stroke="#663366" stroke-width="4.22536" stroke-miterlimit="10" stroke-linecap="round" stroke-linejoin="round"/>
<path d="M37.7559 20.0859C47.6857 28.8457 60.7176 34.1705 75.0002 34.1705C89.2827 34.1705 102.315 28.8457 112.244 20.0859" stroke="#663366" stroke-width="4.22536" stroke-miterlimit="10" stroke-linecap="round" stroke-linejoin="round"/>
<path d="M48.9512 40.8536C49.7962 36.7494 50.8808 32.8902 52.1653 29.3409C57.2836 15.2 65.6047 6 74.9991 6C84.3935 6 92.7146 15.2 97.833 29.3409C99.1175 32.8902 100.202 36.7494 101.047 40.8536" stroke="#663366" stroke-width="4.22536" stroke-miterlimit="10" stroke-linecap="round" stroke-linejoin="round"/>
<path d="M75 46.248V34.1691V6" stroke="#663366" stroke-width="4.22536" stroke-miterlimit="10" stroke-linecap="round" stroke-linejoin="round"/>
<path d="M34.1551 62.3359H18.6621" stroke="#663366" stroke-width="4.22536" stroke-miterlimit="10" stroke-linecap="round" stroke-linejoin="round"/>
<path d="M131.339 62.3359H115.846" stroke="#663366" stroke-width="4.22536" stroke-miterlimit="10" stroke-linecap="round" stroke-linejoin="round"/>
<path d="M129.203 113.016L140.654 116.083C145.054 117.261 146.485 122.79 143.209 125.956L140.896 128.196C139.339 129.7 138.739 131.94 139.336 134.021L140.22 137.117C141.474 141.497 137.468 145.568 133.068 144.39L109.099 137.968C105.972 137.128 104.116 133.914 104.953 130.787L106.108 126.475" stroke="#663366" stroke-width="4.22536" stroke-miterlimit="10" stroke-linecap="round" stroke-linejoin="round"/>
<path d="M123.355 131.008L107.02 136.935" stroke="#663366" stroke-width="4.22536" stroke-miterlimit="10" stroke-linecap="round" stroke-linejoin="round"/>
<path d="M43.8929 126.475L45.0479 130.787C45.8845 133.914 44.0281 137.128 40.9014 137.968L16.9323 144.39C12.5323 145.568 8.52667 141.497 9.78019 137.117L10.6647 134.021C11.2619 131.94 10.6619 129.7 9.10414 128.196L6.79145 125.956C3.51539 122.79 4.94638 117.261 9.34639 116.083L20.7971 113.016" stroke="#663366" stroke-width="4.22536" stroke-miterlimit="10" stroke-linecap="round" stroke-linejoin="round"/>
<path d="M26.6445 131.008L42.9798 136.935" stroke="#663366" stroke-width="4.22536" stroke-miterlimit="10" stroke-linecap="round" stroke-linejoin="round"/>
<path d="M34.1551 98.5859C31.4425 99.1972 28.7382 99.8705 26.0481 100.606C21.403 101.873 18.7748 106.783 20.2622 111.363C22.3917 117.91 24.5185 124.456 26.6453 131.006C40.7749 126.414 55.3974 123.887 70.0707 123.425" stroke="#663366" stroke-width="4.22536" stroke-miterlimit="10" stroke-linecap="round" stroke-linejoin="round"/>
<path d="M115.845 98.5859C118.558 99.1972 121.262 99.8705 123.952 100.606C128.597 101.873 131.226 106.783 129.738 111.363C127.609 117.91 125.482 124.456 123.355 131.006C109.226 126.414 94.603 123.887 79.9297 123.425" stroke="#663366" stroke-width="4.22536" stroke-miterlimit="10" stroke-linecap="round" stroke-linejoin="round"/>
<path d="M106.042 46.2031C107.752 46.375 109.47 46.6088 111.191 46.9017C113.887 47.3609 115.845 49.7186 115.845 52.451V98.5779C115.845 102.076 112.69 104.702 109.236 104.124C98.3939 102.316 87.7854 103.586 79.0333 108.31C76.5149 109.671 73.4839 109.671 70.9656 108.31C62.2135 103.586 51.605 102.316 40.7628 104.124C37.3092 104.702 34.1543 102.076 34.1543 98.5779V52.451C34.1543 49.7186 36.112 47.3609 38.8078 46.9017C40.529 46.6088 42.2473 46.375 43.9571 46.2031" stroke="#663366" stroke-width="4.22536" stroke-miterlimit="10" stroke-linecap="round" stroke-linejoin="round"/>
<path d="M43.957 73.6957V90.814C43.957 92.4647 45.3035 93.7182 46.9514 93.6225C56.0669 93.0985 64.7852 94.8591 72.1036 99.1492C73.8979 100.2 76.1008 100.2 77.8951 99.1492C85.2134 94.8591 93.9318 93.0985 103.047 93.6225C104.695 93.7182 106.042 92.4647 106.042 90.814V43.7717C106.042 42.2787 104.875 41.0505 103.388 40.9576C93.7712 40.3576 84.4529 41.8139 76.2754 45.9435C75.4726 46.3491 74.5261 46.3491 73.7233 45.9435C65.5458 41.8139 56.2275 40.3576 46.6106 40.9576C45.1232 41.0505 43.957 42.2787 43.957 43.7717V63.8365" stroke="#663366" stroke-width="4.22536" stroke-miterlimit="10" stroke-linecap="round" stroke-linejoin="round"/>
<path d="M61.5479 69.1197C61.5479 66.9783 59.8119 65.2422 57.6704 65.2422C55.529 65.2422 53.793 66.9783 53.793 69.1197" stroke="#663366" stroke-width="4.22536" stroke-miterlimit="10" stroke-linecap="round" stroke-linejoin="round"/>
<path d="M88.4531 69.1197C88.4531 66.9783 90.1892 65.2422 92.3306 65.2422C94.472 65.2422 96.2081 66.9783 96.2081 69.1197" stroke="#663366" stroke-width="4.22536" stroke-miterlimit="10" stroke-linecap="round" stroke-linejoin="round"/>
<path d="M70.8867 73.6484C71.8867 74.796 73.358 75.5222 74.9997 75.5222C76.6414 75.5222 78.1127 74.796 79.1127 73.6484" stroke="#663366" stroke-width="4.22536" stroke-miterlimit="10" stroke-linecap="round" stroke-linejoin="round"/>
</svg>
