<svg width="150" height="150" viewBox="0 0 150 150" fill="none" xmlns="http://www.w3.org/2000/svg">
<path fill-rule="evenodd" clip-rule="evenodd" d="M53.2185 91.1883H60.4092V74.5323L60.1884 74.5774C59.1635 74.7862 58.1274 74.8991 57.08 74.8991C52.8391 74.8991 48.9947 73.1838 46.2146 70.4133C43.4345 67.6428 41.7132 63.8174 41.7132 59.5855C41.7132 55.3594 43.4345 51.5282 46.2146 48.7578C48.9947 45.9873 52.8334 44.272 57.08 44.272C58.1218 44.272 59.1636 44.3792 60.1884 44.5936L60.4092 44.6388V27.9828H53.2185L51.5483 33.1739C51.3501 33.7832 50.8575 34.2854 50.1894 34.466C49.1306 34.7537 48.0945 35.1092 47.081 35.5267C46.0901 35.933 45.1106 36.4183 44.1425 36.9656V36.9599C43.5819 37.2815 42.8742 37.3154 42.257 36.9994L37.3933 34.5054L31.9295 39.9503L34.3811 44.6956C34.7265 45.2824 34.7605 46.0385 34.3925 46.6705C33.8376 47.6353 33.3563 48.6115 32.9487 49.5988C32.541 50.5862 32.19 51.5906 31.9069 52.6118C31.7596 53.2663 31.2727 53.8305 30.5876 54.0506L25.3785 55.715V63.4225L30.5876 65.0869C31.1991 65.2844 31.703 65.7753 31.8842 66.4411C32.173 67.4962 32.5297 68.5288 32.9487 69.5387C33.3563 70.5262 33.8433 71.5023 34.3925 72.4671H34.3868C34.7095 73.0257 34.7435 73.731 34.4264 74.346L31.9238 79.1929L37.3876 84.6378L42.1494 82.1946C42.7382 81.8504 43.4969 81.8166 44.1311 82.1833C45.0993 82.7363 46.0789 83.2159 47.0696 83.6221C48.0605 84.0284 49.0683 84.3782 50.0987 84.6603C50.7555 84.807 51.3217 85.2923 51.5425 85.975L53.2127 91.1661L53.2185 91.1883ZM64.3613 93.1575C64.3613 94.2465 63.478 95.1267 62.3852 95.1267H51.7803C50.8461 95.1267 50.0591 94.4779 49.8553 93.6033L48.1114 88.1866C47.2451 87.9157 46.4015 87.611 45.5805 87.2725C44.7312 86.9227 43.9159 86.539 43.1289 86.1328L37.9141 88.8073C37.1327 89.2079 36.2041 89.0386 35.6154 88.4518L35.6097 88.4575L28.1132 80.9869C27.4564 80.3324 27.3601 79.3281 27.8188 78.5719L30.4403 73.4994C30.0326 72.7151 29.6476 71.9026 29.2966 71.0563C28.9568 70.2381 28.6511 69.3975 28.3793 68.5341L22.7909 66.7455C21.9529 66.4803 21.4207 65.7073 21.4207 64.8778H21.415V54.3096C21.415 53.3786 22.0661 52.5943 22.9438 52.3912L28.3793 50.6534C28.6511 49.7901 28.9568 48.9494 29.2965 48.1312C29.6476 47.2849 30.0326 46.4724 30.4403 45.6881L27.7564 40.4914C27.3544 39.7127 27.5243 38.7873 28.1131 38.2006L28.1075 38.195L35.604 30.7244C36.2608 30.0699 37.2686 29.9739 38.0274 30.431L43.1175 33.0434C43.9045 32.6372 44.7199 32.2535 45.5691 31.9037C46.3901 31.5651 47.2337 31.2604 48.1 30.9896L49.8949 25.4205C50.161 24.5854 50.9367 24.0551 51.7691 24.0551V24.0494H62.374C63.4668 24.0494 64.3501 24.9296 64.3501 26.0186V47.3359C64.3501 48.4249 63.4668 49.3051 62.374 49.3051C62.0682 49.3051 61.7738 49.2318 61.5134 49.1076C60.8226 48.8142 60.1092 48.5942 59.3902 48.4418C58.6598 48.2951 57.8897 48.2161 57.0744 48.2161C53.9206 48.2161 51.0727 49.4913 49.006 51.5451C46.9394 53.6046 45.6654 56.4483 45.6654 59.5856C45.6654 62.7284 46.945 65.5665 49.006 67.626C51.0727 69.6855 53.9263 70.955 57.0744 70.955C57.8897 70.955 58.6654 70.876 59.3958 70.7293C60.1149 70.5826 60.8283 70.3569 61.519 70.0635C61.7795 69.9394 62.0682 69.866 62.3797 69.866C63.4724 69.866 64.3557 70.7462 64.3557 71.8352V93.1525L64.3613 93.1575ZM118.853 78.6451H110.632V86.8379H118.853V78.6451ZM108.655 74.7066H120.829C121.921 74.7066 122.805 75.5869 122.805 76.6759V88.807C122.805 89.896 121.921 90.7762 120.829 90.7762H108.655C107.563 90.7762 106.679 89.896 106.679 88.807V84.7106H73.2734C72.1806 84.7106 71.2973 83.8304 71.2973 82.7414C71.2973 81.6524 72.1806 80.7722 73.2734 80.7722H106.679V76.6759C106.679 75.5869 107.563 74.7066 108.655 74.7066ZM91.7039 53.999H83.4826V62.1918H91.7039V53.999ZM81.5065 50.0605H93.6798C94.7726 50.0605 95.6559 50.9407 95.6559 52.0297V64.1608C95.6559 65.2498 94.7726 66.1301 93.6798 66.1301H81.5065C80.4138 66.1301 79.5305 65.2498 79.5305 64.1608V60.0589C79.4739 60.0645 79.4172 60.0645 79.355 60.0645H73.274C72.1812 60.0645 71.2979 59.1843 71.2979 58.0953C71.2979 57.0063 72.1812 56.1261 73.274 56.1261H79.355C79.4116 56.1261 79.4739 56.1317 79.5305 56.1317V52.0297C79.5305 50.9408 80.4138 50.0605 81.5065 50.0605ZM112.84 32.4223H104.619V40.6151H112.84V32.4223ZM102.642 28.4838H114.816C115.908 28.4838 116.792 29.3641 116.792 30.4531V42.5842C116.792 43.6731 115.908 44.5534 114.816 44.5534H102.642C101.55 44.5534 100.666 43.6732 100.666 42.5842V38.4878H73.2786C72.1858 38.4878 71.3025 37.6076 71.3025 36.5186C71.3025 35.4296 72.1858 34.5494 73.2786 34.5494H100.666V30.4531C100.666 29.3641 101.55 28.4838 102.642 28.4838ZM113.746 128.693H34.2233C33.9345 128.693 33.6628 128.811 33.4703 129.009C33.2777 129.206 33.1532 129.471 33.1532 129.759V134.995C33.1532 135.283 33.2721 135.554 33.4703 135.746C33.6628 135.938 33.9345 136.062 34.2233 136.062H113.746C114.034 136.062 114.306 135.943 114.499 135.746C114.691 135.554 114.816 135.283 114.816 134.995V129.759C114.816 129.471 114.697 129.201 114.499 129.009C114.306 128.817 114.034 128.693 113.746 128.693ZM90.0555 124.754V109.176H57.9062V124.754H90.0555ZM94.0077 109.176V124.754H113.739C115.121 124.754 116.378 125.319 117.289 126.221C118.201 127.13 118.761 128.377 118.761 129.759V134.995C118.761 136.372 118.195 137.625 117.289 138.533C116.378 139.441 115.126 140 113.739 140H34.2227C32.8412 140 31.5842 139.436 30.6727 138.533C29.7611 137.625 29.2006 136.378 29.2006 134.995V129.759C29.2006 128.382 29.7668 127.13 30.6727 126.221C31.5843 125.313 32.8356 124.754 34.2227 124.754H53.9544V109.176H14.9259C13.5953 109.176 12.3724 108.651 11.4834 107.81C10.5661 106.942 10 105.74 10 104.414V14.7622C10 13.4363 10.5662 12.2344 11.4834 11.3655C12.3723 10.5191 13.5896 10 14.9259 10H135.074C136.405 10 137.628 10.5247 138.517 11.3655C139.434 12.2344 140 13.4362 140 14.7622V104.414C140 105.74 139.434 106.941 138.517 107.81C137.628 108.657 136.41 109.176 135.074 109.176H94.0077ZM92.0259 105.237H55.9312H55.9255H14.9272C14.6384 105.237 14.3836 105.13 14.2024 104.961C14.0496 104.814 13.9533 104.622 13.9533 104.414L13.959 14.7622C13.959 14.5535 14.0552 14.3616 14.2081 14.2149C14.3836 14.0456 14.6441 13.9441 14.9328 13.9441H135.081C135.37 13.9441 135.625 14.0513 135.806 14.2149C135.959 14.3616 136.055 14.5535 136.055 14.7622V104.414C136.055 104.622 135.959 104.814 135.806 104.961C135.63 105.13 135.37 105.232 135.081 105.232H92.039H92.0333L92.0259 105.237Z" fill="#663366"/>
</svg>
