<svg width="150" height="150" viewBox="0 0 150 150" fill="none" xmlns="http://www.w3.org/2000/svg">
<mask id="mask0_1050_406" style="mask-type:luminance" maskUnits="userSpaceOnUse" x="5" y="5" width="140" height="140">
<path d="M5 5H145V145H5V5Z" fill="white"/>
</mask>
<g mask="url(#mask0_1050_406)">
<path d="M56.24 142.266H58.6366C60.9633 142.266 62.8637 140.359 62.8637 138.034V130.422C62.8637 128.097 60.9633 126.198 58.6366 126.198H29.2954C26.9687 126.198 25.0684 128.097 25.0684 130.422V138.034C25.0684 140.359 26.9687 142.266 29.2954 142.266H31.63" stroke="#663366" stroke-width="5.46875" stroke-miterlimit="10" stroke-linecap="round" stroke-linejoin="round"/>
<path d="M69.2317 37.842L57.5199 47.1815C55.2864 48.9564 53.867 51.2741 53.138 54.2272C51.9899 58.8546 53.1145 64.0086 56.5196 67.6207C60.3354 71.6741 65.7413 71.3255 70.2399 68.9537C73.7456 67.1091 76.2585 67.1091 79.7566 68.9537C84.2629 71.3255 89.669 71.6741 93.4848 67.6207C96.882 64.0086 98.0143 58.8546 96.8664 54.2272C96.1298 51.2741 94.718 48.9564 92.4843 47.1815L80.7651 37.842C76.7704 34.1216 73.2338 34.1216 69.2317 37.842Z" stroke="#663366" stroke-width="5.46875" stroke-miterlimit="10" stroke-linecap="round" stroke-linejoin="round"/>
<path d="M62.5142 27.9297C66.4465 27.9297 69.6578 23.3955 69.6578 17.8303C69.6578 12.2653 66.4465 7.73113 62.5142 7.73113C58.5743 7.73113 55.3633 12.2653 55.3633 17.8303C55.3633 23.3955 58.5743 27.9297 62.5142 27.9297Z" stroke="#663366" stroke-width="5.46875" stroke-miterlimit="10" stroke-linecap="round" stroke-linejoin="round"/>
<path d="M87.4888 27.9297C91.4288 27.9297 94.6398 23.3955 94.6398 17.8303C94.6398 12.2653 91.4288 7.73113 87.4888 7.73113C83.5486 7.73113 80.3379 12.2653 80.3379 17.8303C80.3379 23.3955 83.5486 27.9297 87.4888 27.9297Z" stroke="#663366" stroke-width="5.46875" stroke-miterlimit="10" stroke-linecap="round" stroke-linejoin="round"/>
<path d="M38.2611 26.6591C41.2706 24.9228 45.6992 26.9613 48.1503 31.2089C50.6087 35.4564 50.1589 40.3083 47.1495 42.0447C44.148 43.7807 39.7194 41.7422 37.2606 37.4949C34.8098 33.2473 35.252 28.3955 38.2611 26.6591Z" stroke="#663366" stroke-width="5.46875" stroke-miterlimit="10" stroke-linecap="round" stroke-linejoin="round"/>
<path d="M111.741 26.6591C108.731 24.9228 104.303 26.9613 101.844 31.2089C99.3933 35.4564 99.8431 40.3083 102.845 42.0447C105.854 43.7807 110.283 41.7422 112.741 37.4949C115.193 33.2473 114.742 28.3955 111.741 26.6591Z" stroke="#663366" stroke-width="5.46875" stroke-miterlimit="10" stroke-linecap="round" stroke-linejoin="round"/>
<path d="M93.7488 142.266H91.3677C89.0407 142.266 87.1406 140.359 87.1406 138.034V130.422C87.1406 128.097 89.0407 126.198 91.3677 126.198H120.709C123.028 126.198 124.936 128.097 124.936 130.422V138.034C124.936 140.359 123.036 142.266 120.709 142.266H117.8" stroke="#663366" stroke-width="5.46875" stroke-miterlimit="10" stroke-linecap="round" stroke-linejoin="round"/>
<path d="M92.7324 126.195V104.571C92.7324 96.905 97.5799 91.0375 103.133 85.542L109.99 78.7523C112.689 76.086 117.071 76.0936 119.747 78.7832C122.423 81.4727 122.399 85.8521 119.716 88.5339L109.199 99.0208" stroke="#663366" stroke-width="5.46875" stroke-miterlimit="10" stroke-linecap="round" stroke-linejoin="round"/>
<path d="M119.336 126.195V119.886C119.336 114.608 122.26 110.856 129.652 104.222C135.5 98.9743 139.641 95.161 138.532 86.8209L134.29 50.0356C133.871 46.4005 130.962 43.5324 127.309 43.711C123.648 43.889 121.143 47.0283 120.98 50.6866L119.747 78.7832" stroke="#663366" stroke-width="5.46875" stroke-miterlimit="10" stroke-linecap="round" stroke-linejoin="round"/>
<path d="M30.6597 126.195V119.886C30.6597 114.608 27.7356 110.856 20.3519 104.222C14.5039 98.9743 10.3542 95.161 11.4712 86.8209L15.7136 50.0356C16.1325 46.4005 19.0332 43.5324 22.6942 43.711C26.355 43.889 28.8602 47.0283 29.0232 50.6866L30.2564 78.7832" stroke="#663366" stroke-width="5.46875" stroke-miterlimit="10" stroke-linecap="round" stroke-linejoin="round"/>
<path d="M57.2626 126.195V104.571C57.2626 96.905 52.4227 91.0375 46.8695 85.542L40.0054 78.7523C37.3139 76.086 32.9318 76.0936 30.256 78.7832C27.5801 81.4727 27.6036 85.8521 30.2871 88.5339L40.8043 99.0208" stroke="#663366" stroke-width="5.46875" stroke-miterlimit="10" stroke-linecap="round" stroke-linejoin="round"/>
<path d="M43.9608 142.266H43.9531" stroke="#663366" stroke-width="5.46875" stroke-miterlimit="10" stroke-linecap="round" stroke-linejoin="round"/>
<path d="M106.049 142.266H106.033" stroke="#663366" stroke-width="5.46875" stroke-miterlimit="10" stroke-linecap="round" stroke-linejoin="round"/>
</g>
</svg>
