<svg width="150" height="150" viewBox="0 0 150 150" fill="none" xmlns="http://www.w3.org/2000/svg">
<mask id="mask0_1050_475" style="mask-type:luminance" maskUnits="userSpaceOnUse" x="5" y="5" width="140" height="140">
<path d="M5 5H145V145H5V5Z" fill="white"/>
</mask>
<g mask="url(#mask0_1050_475)">
<path d="M75 122.811V140.945" stroke="#663366" stroke-width="4.3" stroke-miterlimit="22.926" stroke-linecap="round" stroke-linejoin="round"/>
<path d="M42.1875 142.266H107.813V127.593H42.1875V142.266Z" stroke="#663366" stroke-width="4.3" stroke-miterlimit="22.926" stroke-linecap="round" stroke-linejoin="round"/>
<path d="M39.9588 102.926C37.2843 98.6099 34.5639 92.9965 32.3917 87.5075C31.5635 85.4144 31.2392 83.155 33.0124 81.6645C34.7854 80.1742 37.4074 80.3651 38.8391 82.088C40.2112 83.7396 48.3342 93.95 49.7058 95.601C57.2764 104.713 73.5129 107.278 74.9998 122.81C76.4871 107.278 92.7235 104.713 100.294 95.601C101.666 93.95 109.789 83.7396 111.161 82.088C112.593 80.3651 115.215 80.1742 116.988 81.6645C118.761 83.155 118.437 85.4144 117.609 87.5075C115.436 92.9965 112.716 98.6099 110.041 102.926M118.016 83.0699L129.474 64.3184C133.057 58.6848 139.775 63.0084 137.39 68.0937C135.72 71.5596 129.101 88.0448 124.13 98.9799C120.554 106.846 119.111 108.862 112.799 114.6L103.203 123.322V126.227M31.984 83.0699L20.5264 64.3184C16.9428 58.6848 10.2247 63.0084 12.6102 68.0937C14.2803 71.5596 20.8994 88.0448 25.8705 98.9799C29.4463 106.846 30.8895 108.862 37.2015 114.6L46.797 123.322V126.227" stroke="#663366" stroke-width="4.3" stroke-miterlimit="22.926" stroke-linecap="round" stroke-linejoin="round"/>
<path d="M77.8587 8.51895L84.7403 12.4433L92.7291 12.4857C94.7823 12.4936 96.5892 13.5975 97.5558 15.2502L101.593 22.1572L108.5 26.1942C110.426 27.3183 111.434 29.4126 111.267 31.4962L111.307 39.01L115.285 45.9856C116.313 47.7963 116.221 49.9373 115.231 51.6089L111.307 58.4905L111.264 66.4789C111.256 68.5325 110.152 70.3391 108.5 71.3059L101.593 75.343L97.5558 82.25C96.4317 84.1758 94.3377 85.184 92.2541 85.0169L84.74 85.0568L77.7641 89.0348C75.9537 90.0627 73.8127 89.9711 72.1411 88.9812L65.2595 85.0568L57.2711 85.0142C55.2175 85.0063 53.4109 83.9024 52.4441 82.25L48.407 75.3427L41.5 71.3059C39.5739 70.1816 38.566 68.0876 38.7331 66.0037L38.6934 58.4899L34.7152 51.5145C33.6873 49.7038 33.7789 47.5631 34.7688 45.8913L38.6934 39.0094L38.7358 31.0209C38.7432 29.0385 39.7864 27.1966 41.5 26.1942L48.4073 22.1569L52.4441 15.2502C53.5682 13.3241 55.6624 12.3159 57.746 12.4832L65.2601 12.4433L72.2357 8.46508C74.0464 7.43723 76.1872 7.52883 77.8587 8.51895Z" stroke="#663366" stroke-width="4.3" stroke-miterlimit="22.926" stroke-linecap="round" stroke-linejoin="round"/>
<path d="M50.3906 35.0781C62.2821 35.0781 63.1085 29.6094 75 29.6094C86.8915 29.6094 87.7179 35.0781 99.6094 35.0781" stroke="#663366" stroke-width="4.3" stroke-miterlimit="22.926" stroke-linecap="round" stroke-linejoin="round"/>
<path d="M57.2266 35.8984L64.0625 52.3047H50.3906L57.2266 35.8984Z" stroke="#663366" stroke-width="4.3" stroke-miterlimit="22.926" stroke-linecap="round" stroke-linejoin="round"/>
<path d="M92.7732 35.8984L99.6091 52.3047H85.9375L92.7732 35.8984Z" stroke="#663366" stroke-width="4.3" stroke-miterlimit="22.926" stroke-linecap="round" stroke-linejoin="round"/>
<path d="M75 24.1406V71.9922" stroke="#663366" stroke-width="4.3" stroke-miterlimit="22.926" stroke-linecap="round" stroke-linejoin="round"/>
<path d="M61.3281 73.3594H88.6719" stroke="#663366" stroke-width="4.3" stroke-miterlimit="22.926" stroke-linecap="round" stroke-linejoin="round"/>
<path d="M68.1641 62.4219H81.8359" stroke="#663366" stroke-width="4.3" stroke-miterlimit="22.926" stroke-linecap="round" stroke-linejoin="round"/>
</g>
</svg>
