<svg width="150" height="150" viewBox="0 0 150 150" fill="none" xmlns="http://www.w3.org/2000/svg">
<mask id="mask0_716_845" style="mask-type:luminance" maskUnits="userSpaceOnUse" x="5" y="5" width="140" height="140">
<path d="M5 5H145V145H5V5Z" fill="white"/>
</mask>
<g mask="url(#mask0_716_845)">
<path d="M84.8068 26.2812H78.9648V15.5677C78.9648 15.1917 79.2695 14.8871 79.6454 14.8871H132.451C132.827 14.8871 133.131 15.1917 133.131 15.5677V26.2812H94.3771" stroke="#663366" stroke-width="4.10156" stroke-miterlimit="10" stroke-linecap="round" stroke-linejoin="round"/>
<path d="M101.658 14.8867L104.072 8.77812C104.484 7.73523 105.491 7.05 106.612 7.05H122.314C123.436 7.05 124.443 7.73523 124.855 8.77812L127.269 14.8867" stroke="#663366" stroke-width="4.10156" stroke-miterlimit="10" stroke-linecap="round" stroke-linejoin="round"/>
<path d="M90.6082 63.2812C90.5745 63.2648 90.5412 63.2484 90.5078 63.232" stroke="#663366" stroke-width="4.10156" stroke-miterlimit="10" stroke-linecap="round" stroke-linejoin="round"/>
<path d="M133.133 123.512V26.2784" stroke="#663366" stroke-width="4.10156" stroke-miterlimit="10" stroke-linecap="round" stroke-linejoin="round"/>
<path d="M78.9654 26.2816V36.1918C78.9654 36.3873 79.0497 36.5735 79.1965 36.7026L95.5645 51.1106C95.7113 51.2396 95.7955 51.4259 95.7955 51.6214V135.67C95.7955 135.915 95.597 136.113 95.3525 136.113H61.5543C61.3098 136.113 61.1113 136.312 61.1113 136.556V142.506C61.1113 142.751 61.3098 142.949 61.5543 142.949H132.689C132.934 142.949 133.132 142.751 133.132 142.506V133.085" stroke="#663366" stroke-width="4.10156" stroke-miterlimit="10" stroke-linecap="round" stroke-linejoin="round"/>
<path d="M87.5337 44.0402C85.2995 46.2009 83.9102 49.2301 83.9102 52.5838C83.9102 59.1477 89.2312 64.4688 95.7954 64.4688" stroke="#663366" stroke-width="4.10156" stroke-miterlimit="10" stroke-linecap="round" stroke-linejoin="round"/>
<path d="M114.215 136.113H124.929" stroke="#663366" stroke-width="4.10156" stroke-miterlimit="10" stroke-linecap="round" stroke-linejoin="round"/>
<path d="M114.215 129.277H124.929" stroke="#663366" stroke-width="4.10156" stroke-miterlimit="10" stroke-linecap="round" stroke-linejoin="round"/>
<path d="M114.215 122.441H124.929" stroke="#663366" stroke-width="4.10156" stroke-miterlimit="10" stroke-linecap="round" stroke-linejoin="round"/>
<path d="M114.464 42.293C109.993 42.293 106.187 45.1449 104.768 49.1289H124.161C122.741 45.1449 118.936 42.293 114.464 42.293Z" stroke="#663366" stroke-width="4.10156" stroke-miterlimit="10" stroke-linecap="round" stroke-linejoin="round"/>
<path d="M114.464 62.875C118.936 62.875 122.741 60.023 124.161 56.0391H104.768C106.187 60.023 109.993 62.875 114.464 62.875Z" stroke="#663366" stroke-width="4.10156" stroke-miterlimit="10" stroke-linecap="round" stroke-linejoin="round"/>
<path d="M124.16 56.0391C124.545 54.959 124.755 53.7958 124.755 52.5836C124.755 51.3715 124.545 50.2083 124.16 49.1285" stroke="#663366" stroke-width="4.10156" stroke-miterlimit="10" stroke-linecap="round" stroke-linejoin="round"/>
<path d="M104.767 49.1285C104.382 50.2086 104.172 51.3718 104.172 52.5839C104.172 53.7961 104.382 54.9593 104.767 56.0391" stroke="#663366" stroke-width="4.10156" stroke-miterlimit="10" stroke-linecap="round" stroke-linejoin="round"/>
<path d="M26.1205 47.2319H21.0239C18.7273 47.2319 16.8652 49.0937 16.8652 51.3903V53.7788C16.8652 56.0754 18.7273 57.9375 21.0239 57.9375H85.1809" stroke="#663366" stroke-width="4.10156" stroke-miterlimit="10" stroke-linecap="round" stroke-linejoin="round"/>
<path d="M85.1814 47.2305H35.6914" stroke="#663366" stroke-width="4.10156" stroke-miterlimit="10" stroke-linecap="round" stroke-linejoin="round"/>
<path d="M80.0267 57.9359L33.2172 93.8541C31.3948 95.2522 31.0513 97.8629 32.4494 99.6851L33.9033 101.58C35.3016 103.402 37.9119 103.746 39.7343 102.347L90.6331 63.2911" stroke="#663366" stroke-width="4.10156" stroke-miterlimit="10" stroke-linecap="round" stroke-linejoin="round"/>
<path d="M86.5444 66.4316L71.2735 123.423C70.6793 125.642 71.9956 127.922 74.214 128.517L76.521 129.135C78.7394 129.729 81.0199 128.412 81.6144 126.194L95.7962 73.267" stroke="#663366" stroke-width="4.10156" stroke-miterlimit="10" stroke-linecap="round" stroke-linejoin="round"/>
</g>
</svg>
