<svg width="150" height="150" viewBox="0 0 150 150" fill="none" xmlns="http://www.w3.org/2000/svg">
<path d="M88.0342 144.999H31V13.75H71.1352" stroke="#663366" stroke-width="4.22475" stroke-miterlimit="10"/>
<path d="M79.584 13.75H119.719V144.999H92.2582" stroke="#663366" stroke-width="4.22475" stroke-miterlimit="10"/>
<path d="M79.5847 22.1797H85.9218C89.4216 22.1797 92.259 25.017 92.259 28.5168C92.259 32.0166 89.4216 34.8539 85.9218 34.8539H64.7981C61.2983 34.8539 58.4609 32.0166 58.4609 28.5168C58.4609 25.017 61.2983 22.1797 64.7981 22.1797H71.1352" stroke="#663366" stroke-width="4.22475" stroke-miterlimit="10"/>
<path d="M75.3595 26.4054C73.0263 26.4054 71.1348 24.5139 71.1348 22.1807V5H79.5843V22.1807C79.5843 24.5139 77.6927 26.4054 75.3595 26.4054Z" stroke="#663366" stroke-width="4.22475" stroke-miterlimit="10"/>
<path d="M47.8984 144.999V138.152C47.8984 134.771 50.6386 132.031 54.019 132.031H96.6994C100.08 132.031 102.82 134.771 102.82 138.152V144.999" stroke="#663366" stroke-width="4.22475" stroke-miterlimit="10"/>
<path d="M59.1246 49.917C54.8049 54.1364 52.123 60.0254 52.123 66.5408C52.123 79.3739 62.5264 89.777 75.3592 89.777C88.192 89.777 98.5953 79.3739 98.5953 66.5408C98.5953 53.7077 88.192 43.3047 75.3592 43.3047C70.683 43.3047 66.3292 44.6862 62.6841 47.063" stroke="#663366" stroke-width="4.22475" stroke-miterlimit="10"/>
<path d="M90.1455 98.2891H60.5723V106.739H90.1455V98.2891Z" stroke="#663366" stroke-width="4.22475" stroke-miterlimit="10"/>
<path d="M54.2363 115.164H96.4839" stroke="#663366" stroke-width="4.22475" stroke-miterlimit="10"/>
<path d="M62.6855 123.598H88.0341" stroke="#663366" stroke-width="4.22475" stroke-miterlimit="10"/>
<path d="M75.3586 66.5405C71.8588 66.5405 69.0215 63.7032 69.0215 60.2034V58.091C69.0215 54.5913 71.8588 51.7539 75.3586 51.7539C78.8584 51.7539 81.6957 54.5913 81.6957 58.091V60.2034C81.6957 63.7032 78.8584 66.5405 75.3586 66.5405Z" stroke="#663366" stroke-width="4.22475" stroke-miterlimit="10"/>
<path d="M89.3818 85.0677C87.4156 79.2091 81.8806 74.9883 75.3599 74.9883C68.8391 74.9883 63.3038 79.2091 61.3379 85.068" stroke="#663366" stroke-width="4.22475" stroke-miterlimit="10"/>
<path d="M39.4766 20.0664V24.2912" stroke="#663366" stroke-width="4.22475" stroke-miterlimit="10"/>
<path d="M47.9609 20.0664V24.2912" stroke="#663366" stroke-width="4.22475" stroke-miterlimit="10"/>
</svg>
