<svg width="150" height="150" viewBox="0 0 150 150" fill="none" xmlns="http://www.w3.org/2000/svg">
<path d="M33.4648 100.633H116.459" stroke="#663366" stroke-width="4.22535" stroke-miterlimit="10" stroke-linecap="round" stroke-linejoin="round"/>
<path d="M5 145.001V105.984H26.0442L16.1972 145.001" stroke="#663366" stroke-width="4.22535" stroke-miterlimit="10" stroke-linecap="round" stroke-linejoin="round"/>
<path d="M144.999 145.001V105.984H123.955L133.802 145.001" stroke="#663366" stroke-width="4.22535" stroke-miterlimit="10" stroke-linecap="round" stroke-linejoin="round"/>
<path d="M73.0645 70.2705L78.2123 73.4212L83.3692 89.5578C84.0723 91.7581 86.4952 92.9947 88.6802 92.2964C90.903 91.5862 92.129 89.2082 91.4188 86.9854L85.7836 69.3516C85.4749 68.3857 84.8292 67.5631 83.9645 67.0338L80.2968 64.7891" stroke="#663366" stroke-width="4.22535" stroke-miterlimit="10" stroke-linecap="round" stroke-linejoin="round"/>
<path d="M59.5078 73.0694V96.1663C59.5078 98.4415 61.2563 100.399 63.5289 100.506C65.9554 100.621 67.9585 98.6871 67.9585 96.2857V72.2266" stroke="#663366" stroke-width="4.22535" stroke-miterlimit="10" stroke-linecap="round" stroke-linejoin="round"/>
<path d="M50.3088 36.5859L34.9655 39.6637C32.6776 40.1226 31.1948 42.3496 31.6536 44.6375C32.1086 46.9045 34.381 48.3997 36.6274 47.9493L50.3086 45.2051" stroke="#663366" stroke-width="4.22535" stroke-miterlimit="10" stroke-linecap="round" stroke-linejoin="round"/>
<path d="M76.9675 39.8565L92.501 36.7408C94.7889 36.2819 96.2717 34.0548 95.8128 31.767C95.3579 29.4999 93.0855 28.0047 90.839 28.4551L76.5742 31.3165" stroke="#663366" stroke-width="4.22535" stroke-miterlimit="10" stroke-linecap="round" stroke-linejoin="round"/>
<path d="M57.3089 35.1806L50.3086 36.5849V45.204L56.1393 44.0344V59.7896V69.9333C56.1393 71.3133 57.137 72.4964 58.4999 72.7133C62.6117 73.368 71.4576 73.5032 79.8942 65.2843C81.2748 63.9392 80.9145 61.6305 79.1954 60.7589L71.1711 56.6911V41.0192L76.5734 39.9356V31.3164L69.7627 32.6826" stroke="#663366" stroke-width="4.22535" stroke-miterlimit="10" stroke-linecap="round" stroke-linejoin="round"/>
<path d="M71.1705 56.6909L56.1387 60.7754V53.3106L71.1705 49.5078V56.6909Z" stroke="#663366" stroke-width="4.22535" stroke-miterlimit="10" stroke-linecap="round" stroke-linejoin="round"/>
<path d="M57.4808 13.9614C56.883 13.0504 56.5352 11.9606 56.5352 10.7893C56.5352 7.59183 59.1273 5 62.3245 5C65.5216 5 68.1137 7.59183 68.1137 10.7893C68.1137 11.9614 67.7656 13.0521 67.1667 13.9634" stroke="#663366" stroke-width="4.22535" stroke-miterlimit="10" stroke-linecap="round" stroke-linejoin="round"/>
<path d="M62.3241 36.4331C57.4388 36.4331 53.4785 32.4728 53.4785 27.5874V21.3652C53.4785 16.4798 57.4388 12.5195 62.3241 12.5195C67.2095 12.5195 71.1698 16.4798 71.1698 21.3652V27.5871C71.1698 32.4728 67.2095 36.4331 62.3241 36.4331Z" stroke="#663366" stroke-width="4.22535" stroke-miterlimit="10" stroke-linecap="round" stroke-linejoin="round"/>
<path d="M53.4785 24.4733C53.4785 24.4733 65.9242 25.2793 69.7625 16.5781" stroke="#663366" stroke-width="4.22535" stroke-miterlimit="10" stroke-linecap="round" stroke-linejoin="round"/>
<path d="M10.1859 95.8477H5V105.986H30.8017C31.4479 105.986 32.0113 105.546 32.1682 104.919L33.9989 97.5978C34.2211 96.7088 33.5487 95.8477 32.6324 95.8477H18.4575" stroke="#663366" stroke-width="4.22535" stroke-miterlimit="10" stroke-linecap="round" stroke-linejoin="round"/>
<path d="M131.644 95.8477H117.366C116.45 95.8477 115.778 96.7088 116 97.5978L117.83 104.919C117.987 105.546 118.55 105.986 119.197 105.986H144.999V95.8477H140.006" stroke="#663366" stroke-width="4.22535" stroke-miterlimit="10" stroke-linecap="round" stroke-linejoin="round"/>
<path d="M5 141.154L21.2752 124.879" stroke="#663366" stroke-width="4.22535" stroke-miterlimit="10" stroke-linecap="round" stroke-linejoin="round"/>
<path d="M26.0442 105.984L5 127.029" stroke="#663366" stroke-width="4.22535" stroke-miterlimit="10" stroke-linecap="round" stroke-linejoin="round"/>
<path d="M123.955 105.984L144.999 127.029" stroke="#663366" stroke-width="4.22535" stroke-miterlimit="10" stroke-linecap="round" stroke-linejoin="round"/>
<path d="M145 141.154L128.725 124.879" stroke="#663366" stroke-width="4.22535" stroke-miterlimit="10" stroke-linecap="round" stroke-linejoin="round"/>
<path d="M19.6875 57.125V62.9442" stroke="#663366" stroke-width="4.22535" stroke-miterlimit="10" stroke-linecap="round" stroke-linejoin="round"/>
<path d="M19.6875 73.0703V78.8895" stroke="#663366" stroke-width="4.22535" stroke-miterlimit="10" stroke-linecap="round" stroke-linejoin="round"/>
<path d="M12.3438 68.0078H14.6246" stroke="#663366" stroke-width="4.22535" stroke-miterlimit="10" stroke-linecap="round" stroke-linejoin="round"/>
<path d="M24.75 68.0078H27.0308" stroke="#663366" stroke-width="4.22535" stroke-miterlimit="10" stroke-linecap="round" stroke-linejoin="round"/>
<path d="M113.141 7.625V13.4442" stroke="#663366" stroke-width="4.22535" stroke-miterlimit="10" stroke-linecap="round" stroke-linejoin="round"/>
<path d="M113.141 23.5664V29.3856" stroke="#663366" stroke-width="4.22535" stroke-miterlimit="10" stroke-linecap="round" stroke-linejoin="round"/>
<path d="M105.797 18.5078H108.078" stroke="#663366" stroke-width="4.22535" stroke-miterlimit="10" stroke-linecap="round" stroke-linejoin="round"/>
<path d="M118.205 18.5078H120.486" stroke="#663366" stroke-width="4.22535" stroke-miterlimit="10" stroke-linecap="round" stroke-linejoin="round"/>
<path d="M129.109 47.707V53.5262" stroke="#663366" stroke-width="4.22535" stroke-miterlimit="10" stroke-linecap="round" stroke-linejoin="round"/>
<path d="M129.109 63.6523V69.4715" stroke="#663366" stroke-width="4.22535" stroke-miterlimit="10" stroke-linecap="round" stroke-linejoin="round"/>
<path d="M121.766 58.5898H124.046" stroke="#663366" stroke-width="4.22535" stroke-miterlimit="10" stroke-linecap="round" stroke-linejoin="round"/>
<path d="M134.172 58.5898H136.453" stroke="#663366" stroke-width="4.22535" stroke-miterlimit="10" stroke-linecap="round" stroke-linejoin="round"/>
</svg>
