<svg width="150" height="150" viewBox="0 0 150 150" fill="none" xmlns="http://www.w3.org/2000/svg">
<mask id="path-1-outside-1_259_3025" maskUnits="userSpaceOnUse" x="33" y="9" width="84" height="132" fill="black">
<rect fill="white" x="33" y="9" width="84" height="132"/>
<path d="M75.1628 10.0001C74.4153 10.0102 73.8187 10.6261 73.8296 11.3735V17.7617C73.7945 18.5287 74.4154 19.166 75.1826 19.166C75.9496 19.166 76.5642 18.5286 76.5357 17.7617V11.3735C76.5457 10.6111 75.9257 9.98936 75.1628 10.0001ZM67.0891 14.2199C66.1789 14.2099 65.5179 15.0809 65.7738 15.9545L66.6337 19.041C66.8297 19.7679 67.5807 20.1956 68.3051 19.9937C69.0297 19.7907 69.4516 19.0364 69.2417 18.3136L68.3808 15.2293C68.2259 14.6412 67.6973 14.2279 67.0891 14.2199ZM83.2179 14.2199C82.6252 14.245 82.1196 14.6556 81.9687 15.2288L81.1089 18.3132C80.9003 19.0366 81.321 19.791 82.0456 19.9933C82.7701 20.1948 83.5214 19.7672 83.717 19.0406L84.5768 15.9541C84.8395 15.0633 84.146 14.1786 83.2179 14.2199ZM58.7579 14.245C57.6699 14.1999 56.9724 15.3869 57.5468 16.3118L60.8687 21.8447C61.7973 23.3933 64.12 22.0007 63.1914 20.4518L59.8697 14.9188C59.638 14.5197 59.22 14.2656 58.7579 14.245ZM91.685 14.245C91.1897 14.235 90.7277 14.4901 90.4797 14.9191L87.158 20.4521C86.2293 22.0006 88.552 23.3937 89.4807 21.8451L92.8026 16.3121C93.354 15.4224 92.7341 14.2708 91.685 14.245ZM53.0255 22.0045C51.808 22.0295 51.2367 23.5199 52.1278 24.3495L54.4766 26.6078C55.7789 27.8925 57.6887 25.9062 56.3534 24.6551L54.0048 22.3964C53.7446 22.1387 53.3912 21.9975 53.0255 22.0045ZM97.2841 22.0045C96.9321 22.0078 96.5962 22.1489 96.3463 22.3965L93.9959 24.6554C92.7258 25.9073 94.5714 27.8277 95.8729 26.608L98.2231 24.3497C99.1288 23.5059 98.5213 21.9892 97.2841 22.0045ZM75.165 23.6678C60.4352 23.6678 53.6232 34.2586 53.6232 42.6307V66.3773C53.6232 72.9527 58.5017 77.3218 63.4315 79.9136C66.8349 81.667 71.8585 83.6845 75.165 83.5438C78.4713 83.4029 83.448 81.7728 86.8977 79.9136C91.8275 77.3218 96.7045 72.9527 96.7045 66.3773C96.7295 58.4543 96.7045 50.5037 96.7045 42.6307C96.7045 34.2586 89.8947 23.6678 75.165 23.6678ZM46.0033 28.3847L51.7562 31.579C52.4121 31.9585 53.251 31.727 53.6189 31.0655C53.9869 30.4039 53.7402 29.5683 53.072 29.2123L47.3169 26.0186C45.5339 25.1702 44.4977 27.5155 46.0033 28.3847ZM103.033 26.0192L97.2784 29.213C95.6562 30.0775 97.0031 32.5009 98.5936 31.5796L104.346 28.3852C106.008 27.4256 104.529 25.1554 103.033 26.0192ZM75.165 26.3746C88.6192 26.3746 93.9962 35.6968 93.9962 42.6313V45.5592C84.0459 48.222 73.8014 44.6443 67.3213 36.4131C67.0701 36.0852 66.6827 35.8891 66.27 35.8811C65.1196 35.856 64.4698 37.1937 65.1946 38.0874C66.1267 39.2722 67.135 40.3694 68.2054 41.3764C65.1419 44.3961 60.6298 45.7232 56.3318 44.8078V42.6309C56.3318 35.6964 61.7107 26.3746 75.165 26.3746ZM44.6382 38.1582L47.8464 38.9859C48.5767 39.1875 49.3303 38.7523 49.5191 38.0183C49.7081 37.2846 49.2589 36.539 48.5216 36.3634L45.3135 35.538C43.6401 35.0898 42.768 37.6572 44.6382 38.1582ZM105.036 35.5377L101.828 36.3632C100.04 36.7898 100.732 39.4757 102.503 38.9852L105.711 38.1575C107.331 37.7243 106.966 35.1981 105.036 35.5377ZM70.2697 43.1423C76.9529 48.3523 85.5684 50.3707 93.9962 48.3464V66.378C93.9962 71.6169 90.1272 75.1566 85.637 77.5175C82.2016 78.9347 76.992 80.8376 75.165 80.8376C73.3377 80.8376 67.7775 79.12 64.6908 77.5175C60.2005 75.1566 56.3314 71.6169 56.3314 66.378V47.5661C61.425 48.4604 66.6798 46.7958 70.2697 43.1423ZM87.4986 56.1703C86.7293 56.167 86.1119 56.802 86.1383 57.5708C86.1383 58.8814 85.0159 59.9878 83.5098 59.9878C82.0037 59.9878 80.8814 58.8814 80.8814 57.5708C80.8914 56.8083 80.2715 56.1871 79.5084 56.1979C78.7609 56.2079 78.1626 56.8227 78.173 57.5708C78.173 60.4264 80.6176 62.696 83.5098 62.696C86.4021 62.696 88.845 60.4264 88.845 57.5708C88.87 56.8083 88.2614 56.1741 87.4986 56.1703ZM62.8376 56.1954C62.0901 56.2055 61.4939 56.8214 61.5043 57.5683C61.5043 60.4239 63.9473 62.6935 66.8395 62.6935C69.7318 62.6935 72.1762 60.4239 72.1762 57.5683C72.1662 56.6752 71.4941 56.2288 70.8222 56.2288C70.1504 56.2288 69.4776 56.6745 69.468 57.5683C69.468 58.8791 68.3456 59.9853 66.8395 59.9853C65.3334 59.9853 64.2131 58.8789 64.2131 57.5683C64.2231 56.8048 63.6009 56.1831 62.8376 56.1954ZM70.8393 71.7906C71.948 72.897 73.4903 73.5813 75.1749 73.5813C76.8595 73.5813 78.4015 72.897 79.51 71.7906C80.7881 70.5153 78.8749 68.5982 77.5972 69.8735C76.9758 70.4926 76.1295 70.8755 75.1749 70.8755C74.2199 70.8755 73.3732 70.494 72.7522 69.8735C71.3852 68.6401 69.5972 70.4754 70.8393 71.7906ZM61.6942 82.8623C61.6942 82.8623 55.0228 84.5354 48.2679 87.4757C44.8904 88.9458 41.4807 90.7262 38.8112 92.8526C36.1418 94.9792 34.0994 97.5307 34.0002 100.588C33.9999 100.598 33.9999 100.623 34.0002 100.633V138.647C34.0002 139.395 34.6067 140 35.3535 140H114.996C115.743 140 116.351 139.395 116.351 138.647V100.633C116.351 97.1105 114.393 94.1911 111.718 91.9378C109.043 89.6846 105.606 87.9829 102.201 86.6666C95.3926 84.0341 88.6409 82.9688 88.6409 82.9688C88.3807 82.9237 88.1136 82.9638 87.874 83.0721C87.874 83.0721 80.3765 86.3379 75.1754 86.3379C69.9947 86.3379 62.6043 82.9542 62.6043 82.9542C62.2914 82.8088 62.014 82.7776 61.6942 82.8623ZM61.9518 85.6045C62.7177 85.97 69.2414 89.0449 75.1745 89.0449C81.1387 89.0449 87.8709 86.017 88.5447 85.7103C89.039 85.7905 95.0087 86.7879 101.223 89.1902C104.461 90.4419 107.666 92.0645 109.972 94.0077C112.279 95.9508 113.643 98.0994 113.643 100.632V137.293H36.7064V100.676C36.7636 98.8167 38.1369 96.8522 40.4979 94.9713C42.859 93.0904 46.0987 91.373 49.349 89.9581C55.5283 87.2684 61.3559 85.7575 61.9518 85.6045ZM75.1983 92.4205C74.7682 92.4155 74.3602 92.6095 74.0988 92.9501C74.0988 92.9501 72.274 95.3341 70.4428 98.261C68.8865 100.916 66.6933 104.413 66.6529 107.32C66.6529 112.194 70.5469 115.789 75.1745 115.789C79.802 115.789 83.6955 112.194 83.6955 107.32C83.6955 104.615 81.5876 100.958 79.9058 98.261C78.0744 95.3341 76.2497 92.9501 76.2497 92.9501C75.9985 92.6222 75.611 92.4274 75.1983 92.4205ZM75.1732 96.1565C75.8061 97.0163 76.3935 97.7528 77.6097 99.6966C78.8283 102.16 80.9439 105.15 80.9876 107.32C80.9876 110.809 78.4631 113.081 75.1732 113.081C71.8834 113.081 69.3584 110.809 69.3584 107.32C69.3584 105.574 71.3109 101.983 72.7362 99.6966C73.9525 97.7528 74.541 97.0163 75.1732 96.1565ZM86.9564 110.333C88.0741 110.935 89.7286 111.816 89.7488 113.155C89.3477 114.909 87.3147 115.834 85.9352 116.393C83.2729 117.456 79.4258 118.158 75.1732 118.158C70.9207 118.158 67.0737 117.456 64.4114 116.393C63.0205 115.744 60.6647 114.719 60.5994 113.155C60.7864 111.714 62.1693 110.917 63.2717 110.378C64.6995 109.686 63.9756 107.524 62.4176 107.832C59.8626 108.34 57.6072 109.295 55.9173 110.714C54.2274 112.133 53.1111 114.1 53.1111 116.333C53.2475 120.376 57.4124 122.903 60.6167 124.319C64.7823 126.136 70.0935 127.225 75.1727 127.225C80.2519 127.225 85.5626 126.136 89.7281 124.319C93.3435 122.84 97.1372 120.1 97.2338 116.333C97.2338 114.07 96.0476 112.086 94.3176 110.648C92.5876 109.211 90.3013 108.237 87.7835 107.778C86.18 107.545 85.5606 109.6 86.9564 110.333ZM99.0833 110.449C97.8018 110.423 97.2131 112.036 98.2039 112.849C99.946 114.318 100.899 116.044 100.899 117.978C100.765 121.704 96.2269 124.129 92.9529 125.691C87.99 127.889 81.3572 129.284 75.1735 129.284C68.9898 129.284 62.3565 127.889 57.3936 125.691C54.2967 124.116 49.5214 121.708 49.4479 117.978C49.4479 116.014 50.333 114.355 52.0103 112.925C53.4682 111.761 51.6317 109.61 50.2534 110.866C48.1155 112.689 46.7416 115.161 46.7416 117.978C46.7988 123.095 52.1844 126.323 56.2978 128.168C61.6823 130.552 68.5892 131.992 75.1735 131.992C81.7579 131.992 88.6642 130.552 94.0487 128.168C98.1659 126.367 103.548 123.017 103.605 117.978C103.605 115.132 102.143 112.629 99.9514 110.78C99.7107 110.572 99.402 110.453 99.0833 110.449ZM58.0169 112.571C57.2476 115.634 60.9921 118.02 63.4076 118.908C66.5104 120.146 70.6287 120.867 75.1732 120.867C79.7178 120.867 83.8357 120.145 86.9384 118.908C90.1372 117.828 92.9853 115.199 92.3254 112.573C93.5534 113.418 94.5031 115.126 94.526 116.333C94.0652 119.245 90.7439 120.845 88.6472 121.836C84.9001 123.471 79.8578 124.516 75.1732 124.516C70.4887 124.516 65.446 123.471 61.6989 121.836C59.5172 120.708 56.2129 119.333 55.82 116.333C56.0928 114.671 56.7647 113.269 58.0169 112.571Z"/>
</mask>
<path d="M75.1628 10.0001C74.4153 10.0102 73.8187 10.6261 73.8296 11.3735V17.7617C73.7945 18.5287 74.4154 19.166 75.1826 19.166C75.9496 19.166 76.5642 18.5286 76.5357 17.7617V11.3735C76.5457 10.6111 75.9257 9.98936 75.1628 10.0001ZM67.0891 14.2199C66.1789 14.2099 65.5179 15.0809 65.7738 15.9545L66.6337 19.041C66.8297 19.7679 67.5807 20.1956 68.3051 19.9937C69.0297 19.7907 69.4516 19.0364 69.2417 18.3136L68.3808 15.2293C68.2259 14.6412 67.6973 14.2279 67.0891 14.2199ZM83.2179 14.2199C82.6252 14.245 82.1196 14.6556 81.9687 15.2288L81.1089 18.3132C80.9003 19.0366 81.321 19.791 82.0456 19.9933C82.7701 20.1948 83.5214 19.7672 83.717 19.0406L84.5768 15.9541C84.8395 15.0633 84.146 14.1786 83.2179 14.2199ZM58.7579 14.245C57.6699 14.1999 56.9724 15.3869 57.5468 16.3118L60.8687 21.8447C61.7973 23.3933 64.12 22.0007 63.1914 20.4518L59.8697 14.9188C59.638 14.5197 59.22 14.2656 58.7579 14.245ZM91.685 14.245C91.1897 14.235 90.7277 14.4901 90.4797 14.9191L87.158 20.4521C86.2293 22.0006 88.552 23.3937 89.4807 21.8451L92.8026 16.3121C93.354 15.4224 92.7341 14.2708 91.685 14.245ZM53.0255 22.0045C51.808 22.0295 51.2367 23.5199 52.1278 24.3495L54.4766 26.6078C55.7789 27.8925 57.6887 25.9062 56.3534 24.6551L54.0048 22.3964C53.7446 22.1387 53.3912 21.9975 53.0255 22.0045ZM97.2841 22.0045C96.9321 22.0078 96.5962 22.1489 96.3463 22.3965L93.9959 24.6554C92.7258 25.9073 94.5714 27.8277 95.8729 26.608L98.2231 24.3497C99.1288 23.5059 98.5213 21.9892 97.2841 22.0045ZM75.165 23.6678C60.4352 23.6678 53.6232 34.2586 53.6232 42.6307V66.3773C53.6232 72.9527 58.5017 77.3218 63.4315 79.9136C66.8349 81.667 71.8585 83.6845 75.165 83.5438C78.4713 83.4029 83.448 81.7728 86.8977 79.9136C91.8275 77.3218 96.7045 72.9527 96.7045 66.3773C96.7295 58.4543 96.7045 50.5037 96.7045 42.6307C96.7045 34.2586 89.8947 23.6678 75.165 23.6678ZM46.0033 28.3847L51.7562 31.579C52.4121 31.9585 53.251 31.727 53.6189 31.0655C53.9869 30.4039 53.7402 29.5683 53.072 29.2123L47.3169 26.0186C45.5339 25.1702 44.4977 27.5155 46.0033 28.3847ZM103.033 26.0192L97.2784 29.213C95.6562 30.0775 97.0031 32.5009 98.5936 31.5796L104.346 28.3852C106.008 27.4256 104.529 25.1554 103.033 26.0192ZM75.165 26.3746C88.6192 26.3746 93.9962 35.6968 93.9962 42.6313V45.5592C84.0459 48.222 73.8014 44.6443 67.3213 36.4131C67.0701 36.0852 66.6827 35.8891 66.27 35.8811C65.1196 35.856 64.4698 37.1937 65.1946 38.0874C66.1267 39.2722 67.135 40.3694 68.2054 41.3764C65.1419 44.3961 60.6298 45.7232 56.3318 44.8078V42.6309C56.3318 35.6964 61.7107 26.3746 75.165 26.3746ZM44.6382 38.1582L47.8464 38.9859C48.5767 39.1875 49.3303 38.7523 49.5191 38.0183C49.7081 37.2846 49.2589 36.539 48.5216 36.3634L45.3135 35.538C43.6401 35.0898 42.768 37.6572 44.6382 38.1582ZM105.036 35.5377L101.828 36.3632C100.04 36.7898 100.732 39.4757 102.503 38.9852L105.711 38.1575C107.331 37.7243 106.966 35.1981 105.036 35.5377ZM70.2697 43.1423C76.9529 48.3523 85.5684 50.3707 93.9962 48.3464V66.378C93.9962 71.6169 90.1272 75.1566 85.637 77.5175C82.2016 78.9347 76.992 80.8376 75.165 80.8376C73.3377 80.8376 67.7775 79.12 64.6908 77.5175C60.2005 75.1566 56.3314 71.6169 56.3314 66.378V47.5661C61.425 48.4604 66.6798 46.7958 70.2697 43.1423ZM87.4986 56.1703C86.7293 56.167 86.1119 56.802 86.1383 57.5708C86.1383 58.8814 85.0159 59.9878 83.5098 59.9878C82.0037 59.9878 80.8814 58.8814 80.8814 57.5708C80.8914 56.8083 80.2715 56.1871 79.5084 56.1979C78.7609 56.2079 78.1626 56.8227 78.173 57.5708C78.173 60.4264 80.6176 62.696 83.5098 62.696C86.4021 62.696 88.845 60.4264 88.845 57.5708C88.87 56.8083 88.2614 56.1741 87.4986 56.1703ZM62.8376 56.1954C62.0901 56.2055 61.4939 56.8214 61.5043 57.5683C61.5043 60.4239 63.9473 62.6935 66.8395 62.6935C69.7318 62.6935 72.1762 60.4239 72.1762 57.5683C72.1662 56.6752 71.4941 56.2288 70.8222 56.2288C70.1504 56.2288 69.4776 56.6745 69.468 57.5683C69.468 58.8791 68.3456 59.9853 66.8395 59.9853C65.3334 59.9853 64.2131 58.8789 64.2131 57.5683C64.2231 56.8048 63.6009 56.1831 62.8376 56.1954ZM70.8393 71.7906C71.948 72.897 73.4903 73.5813 75.1749 73.5813C76.8595 73.5813 78.4015 72.897 79.51 71.7906C80.7881 70.5153 78.8749 68.5982 77.5972 69.8735C76.9758 70.4926 76.1295 70.8755 75.1749 70.8755C74.2199 70.8755 73.3732 70.494 72.7522 69.8735C71.3852 68.6401 69.5972 70.4754 70.8393 71.7906ZM61.6942 82.8623C61.6942 82.8623 55.0228 84.5354 48.2679 87.4757C44.8904 88.9458 41.4807 90.7262 38.8112 92.8526C36.1418 94.9792 34.0994 97.5307 34.0002 100.588C33.9999 100.598 33.9999 100.623 34.0002 100.633V138.647C34.0002 139.395 34.6067 140 35.3535 140H114.996C115.743 140 116.351 139.395 116.351 138.647V100.633C116.351 97.1105 114.393 94.1911 111.718 91.9378C109.043 89.6846 105.606 87.9829 102.201 86.6666C95.3926 84.0341 88.6409 82.9688 88.6409 82.9688C88.3807 82.9237 88.1136 82.9638 87.874 83.0721C87.874 83.0721 80.3765 86.3379 75.1754 86.3379C69.9947 86.3379 62.6043 82.9542 62.6043 82.9542C62.2914 82.8088 62.014 82.7776 61.6942 82.8623ZM61.9518 85.6045C62.7177 85.97 69.2414 89.0449 75.1745 89.0449C81.1387 89.0449 87.8709 86.017 88.5447 85.7103C89.039 85.7905 95.0087 86.7879 101.223 89.1902C104.461 90.4419 107.666 92.0645 109.972 94.0077C112.279 95.9508 113.643 98.0994 113.643 100.632V137.293H36.7064V100.676C36.7636 98.8167 38.1369 96.8522 40.4979 94.9713C42.859 93.0904 46.0987 91.373 49.349 89.9581C55.5283 87.2684 61.3559 85.7575 61.9518 85.6045ZM75.1983 92.4205C74.7682 92.4155 74.3602 92.6095 74.0988 92.9501C74.0988 92.9501 72.274 95.3341 70.4428 98.261C68.8865 100.916 66.6933 104.413 66.6529 107.32C66.6529 112.194 70.5469 115.789 75.1745 115.789C79.802 115.789 83.6955 112.194 83.6955 107.32C83.6955 104.615 81.5876 100.958 79.9058 98.261C78.0744 95.3341 76.2497 92.9501 76.2497 92.9501C75.9985 92.6222 75.611 92.4274 75.1983 92.4205ZM75.1732 96.1565C75.8061 97.0163 76.3935 97.7528 77.6097 99.6966C78.8283 102.16 80.9439 105.15 80.9876 107.32C80.9876 110.809 78.4631 113.081 75.1732 113.081C71.8834 113.081 69.3584 110.809 69.3584 107.32C69.3584 105.574 71.3109 101.983 72.7362 99.6966C73.9525 97.7528 74.541 97.0163 75.1732 96.1565ZM86.9564 110.333C88.0741 110.935 89.7286 111.816 89.7488 113.155C89.3477 114.909 87.3147 115.834 85.9352 116.393C83.2729 117.456 79.4258 118.158 75.1732 118.158C70.9207 118.158 67.0737 117.456 64.4114 116.393C63.0205 115.744 60.6647 114.719 60.5994 113.155C60.7864 111.714 62.1693 110.917 63.2717 110.378C64.6995 109.686 63.9756 107.524 62.4176 107.832C59.8626 108.34 57.6072 109.295 55.9173 110.714C54.2274 112.133 53.1111 114.1 53.1111 116.333C53.2475 120.376 57.4124 122.903 60.6167 124.319C64.7823 126.136 70.0935 127.225 75.1727 127.225C80.2519 127.225 85.5626 126.136 89.7281 124.319C93.3435 122.84 97.1372 120.1 97.2338 116.333C97.2338 114.07 96.0476 112.086 94.3176 110.648C92.5876 109.211 90.3013 108.237 87.7835 107.778C86.18 107.545 85.5606 109.6 86.9564 110.333ZM99.0833 110.449C97.8018 110.423 97.2131 112.036 98.2039 112.849C99.946 114.318 100.899 116.044 100.899 117.978C100.765 121.704 96.2269 124.129 92.9529 125.691C87.99 127.889 81.3572 129.284 75.1735 129.284C68.9898 129.284 62.3565 127.889 57.3936 125.691C54.2967 124.116 49.5214 121.708 49.4479 117.978C49.4479 116.014 50.333 114.355 52.0103 112.925C53.4682 111.761 51.6317 109.61 50.2534 110.866C48.1155 112.689 46.7416 115.161 46.7416 117.978C46.7988 123.095 52.1844 126.323 56.2978 128.168C61.6823 130.552 68.5892 131.992 75.1735 131.992C81.7579 131.992 88.6642 130.552 94.0487 128.168C98.1659 126.367 103.548 123.017 103.605 117.978C103.605 115.132 102.143 112.629 99.9514 110.78C99.7107 110.572 99.402 110.453 99.0833 110.449ZM58.0169 112.571C57.2476 115.634 60.9921 118.02 63.4076 118.908C66.5104 120.146 70.6287 120.867 75.1732 120.867C79.7178 120.867 83.8357 120.145 86.9384 118.908C90.1372 117.828 92.9853 115.199 92.3254 112.573C93.5534 113.418 94.5031 115.126 94.526 116.333C94.0652 119.245 90.7439 120.845 88.6472 121.836C84.9001 123.471 79.8578 124.516 75.1732 124.516C70.4887 124.516 65.446 123.471 61.6989 121.836C59.5172 120.708 56.2129 119.333 55.82 116.333C56.0928 114.671 56.7647 113.269 58.0169 112.571Z" fill="#663366"/>
<path d="M75.1628 10.0001C74.4153 10.0102 73.8187 10.6261 73.8296 11.3735V17.7617C73.7945 18.5287 74.4154 19.166 75.1826 19.166C75.9496 19.166 76.5642 18.5286 76.5357 17.7617V11.3735C76.5457 10.6111 75.9257 9.98936 75.1628 10.0001ZM67.0891 14.2199C66.1789 14.2099 65.5179 15.0809 65.7738 15.9545L66.6337 19.041C66.8297 19.7679 67.5807 20.1956 68.3051 19.9937C69.0297 19.7907 69.4516 19.0364 69.2417 18.3136L68.3808 15.2293C68.2259 14.6412 67.6973 14.2279 67.0891 14.2199ZM83.2179 14.2199C82.6252 14.245 82.1196 14.6556 81.9687 15.2288L81.1089 18.3132C80.9003 19.0366 81.321 19.791 82.0456 19.9933C82.7701 20.1948 83.5214 19.7672 83.717 19.0406L84.5768 15.9541C84.8395 15.0633 84.146 14.1786 83.2179 14.2199ZM58.7579 14.245C57.6699 14.1999 56.9724 15.3869 57.5468 16.3118L60.8687 21.8447C61.7973 23.3933 64.12 22.0007 63.1914 20.4518L59.8697 14.9188C59.638 14.5197 59.22 14.2656 58.7579 14.245ZM91.685 14.245C91.1897 14.235 90.7277 14.4901 90.4797 14.9191L87.158 20.4521C86.2293 22.0006 88.552 23.3937 89.4807 21.8451L92.8026 16.3121C93.354 15.4224 92.7341 14.2708 91.685 14.245ZM53.0255 22.0045C51.808 22.0295 51.2367 23.5199 52.1278 24.3495L54.4766 26.6078C55.7789 27.8925 57.6887 25.9062 56.3534 24.6551L54.0048 22.3964C53.7446 22.1387 53.3912 21.9975 53.0255 22.0045ZM97.2841 22.0045C96.9321 22.0078 96.5962 22.1489 96.3463 22.3965L93.9959 24.6554C92.7258 25.9073 94.5714 27.8277 95.8729 26.608L98.2231 24.3497C99.1288 23.5059 98.5213 21.9892 97.2841 22.0045ZM75.165 23.6678C60.4352 23.6678 53.6232 34.2586 53.6232 42.6307V66.3773C53.6232 72.9527 58.5017 77.3218 63.4315 79.9136C66.8349 81.667 71.8585 83.6845 75.165 83.5438C78.4713 83.4029 83.448 81.7728 86.8977 79.9136C91.8275 77.3218 96.7045 72.9527 96.7045 66.3773C96.7295 58.4543 96.7045 50.5037 96.7045 42.6307C96.7045 34.2586 89.8947 23.6678 75.165 23.6678ZM46.0033 28.3847L51.7562 31.579C52.4121 31.9585 53.251 31.727 53.6189 31.0655C53.9869 30.4039 53.7402 29.5683 53.072 29.2123L47.3169 26.0186C45.5339 25.1702 44.4977 27.5155 46.0033 28.3847ZM103.033 26.0192L97.2784 29.213C95.6562 30.0775 97.0031 32.5009 98.5936 31.5796L104.346 28.3852C106.008 27.4256 104.529 25.1554 103.033 26.0192ZM75.165 26.3746C88.6192 26.3746 93.9962 35.6968 93.9962 42.6313V45.5592C84.0459 48.222 73.8014 44.6443 67.3213 36.4131C67.0701 36.0852 66.6827 35.8891 66.27 35.8811C65.1196 35.856 64.4698 37.1937 65.1946 38.0874C66.1267 39.2722 67.135 40.3694 68.2054 41.3764C65.1419 44.3961 60.6298 45.7232 56.3318 44.8078V42.6309C56.3318 35.6964 61.7107 26.3746 75.165 26.3746ZM44.6382 38.1582L47.8464 38.9859C48.5767 39.1875 49.3303 38.7523 49.5191 38.0183C49.7081 37.2846 49.2589 36.539 48.5216 36.3634L45.3135 35.538C43.6401 35.0898 42.768 37.6572 44.6382 38.1582ZM105.036 35.5377L101.828 36.3632C100.04 36.7898 100.732 39.4757 102.503 38.9852L105.711 38.1575C107.331 37.7243 106.966 35.1981 105.036 35.5377ZM70.2697 43.1423C76.9529 48.3523 85.5684 50.3707 93.9962 48.3464V66.378C93.9962 71.6169 90.1272 75.1566 85.637 77.5175C82.2016 78.9347 76.992 80.8376 75.165 80.8376C73.3377 80.8376 67.7775 79.12 64.6908 77.5175C60.2005 75.1566 56.3314 71.6169 56.3314 66.378V47.5661C61.425 48.4604 66.6798 46.7958 70.2697 43.1423ZM87.4986 56.1703C86.7293 56.167 86.1119 56.802 86.1383 57.5708C86.1383 58.8814 85.0159 59.9878 83.5098 59.9878C82.0037 59.9878 80.8814 58.8814 80.8814 57.5708C80.8914 56.8083 80.2715 56.1871 79.5084 56.1979C78.7609 56.2079 78.1626 56.8227 78.173 57.5708C78.173 60.4264 80.6176 62.696 83.5098 62.696C86.4021 62.696 88.845 60.4264 88.845 57.5708C88.87 56.8083 88.2614 56.1741 87.4986 56.1703ZM62.8376 56.1954C62.0901 56.2055 61.4939 56.8214 61.5043 57.5683C61.5043 60.4239 63.9473 62.6935 66.8395 62.6935C69.7318 62.6935 72.1762 60.4239 72.1762 57.5683C72.1662 56.6752 71.4941 56.2288 70.8222 56.2288C70.1504 56.2288 69.4776 56.6745 69.468 57.5683C69.468 58.8791 68.3456 59.9853 66.8395 59.9853C65.3334 59.9853 64.2131 58.8789 64.2131 57.5683C64.2231 56.8048 63.6009 56.1831 62.8376 56.1954ZM70.8393 71.7906C71.948 72.897 73.4903 73.5813 75.1749 73.5813C76.8595 73.5813 78.4015 72.897 79.51 71.7906C80.7881 70.5153 78.8749 68.5982 77.5972 69.8735C76.9758 70.4926 76.1295 70.8755 75.1749 70.8755C74.2199 70.8755 73.3732 70.494 72.7522 69.8735C71.3852 68.6401 69.5972 70.4754 70.8393 71.7906ZM61.6942 82.8623C61.6942 82.8623 55.0228 84.5354 48.2679 87.4757C44.8904 88.9458 41.4807 90.7262 38.8112 92.8526C36.1418 94.9792 34.0994 97.5307 34.0002 100.588C33.9999 100.598 33.9999 100.623 34.0002 100.633V138.647C34.0002 139.395 34.6067 140 35.3535 140H114.996C115.743 140 116.351 139.395 116.351 138.647V100.633C116.351 97.1105 114.393 94.1911 111.718 91.9378C109.043 89.6846 105.606 87.9829 102.201 86.6666C95.3926 84.0341 88.6409 82.9688 88.6409 82.9688C88.3807 82.9237 88.1136 82.9638 87.874 83.0721C87.874 83.0721 80.3765 86.3379 75.1754 86.3379C69.9947 86.3379 62.6043 82.9542 62.6043 82.9542C62.2914 82.8088 62.014 82.7776 61.6942 82.8623ZM61.9518 85.6045C62.7177 85.97 69.2414 89.0449 75.1745 89.0449C81.1387 89.0449 87.8709 86.017 88.5447 85.7103C89.039 85.7905 95.0087 86.7879 101.223 89.1902C104.461 90.4419 107.666 92.0645 109.972 94.0077C112.279 95.9508 113.643 98.0994 113.643 100.632V137.293H36.7064V100.676C36.7636 98.8167 38.1369 96.8522 40.4979 94.9713C42.859 93.0904 46.0987 91.373 49.349 89.9581C55.5283 87.2684 61.3559 85.7575 61.9518 85.6045ZM75.1983 92.4205C74.7682 92.4155 74.3602 92.6095 74.0988 92.9501C74.0988 92.9501 72.274 95.3341 70.4428 98.261C68.8865 100.916 66.6933 104.413 66.6529 107.32C66.6529 112.194 70.5469 115.789 75.1745 115.789C79.802 115.789 83.6955 112.194 83.6955 107.32C83.6955 104.615 81.5876 100.958 79.9058 98.261C78.0744 95.3341 76.2497 92.9501 76.2497 92.9501C75.9985 92.6222 75.611 92.4274 75.1983 92.4205ZM75.1732 96.1565C75.8061 97.0163 76.3935 97.7528 77.6097 99.6966C78.8283 102.16 80.9439 105.15 80.9876 107.32C80.9876 110.809 78.4631 113.081 75.1732 113.081C71.8834 113.081 69.3584 110.809 69.3584 107.32C69.3584 105.574 71.3109 101.983 72.7362 99.6966C73.9525 97.7528 74.541 97.0163 75.1732 96.1565ZM86.9564 110.333C88.0741 110.935 89.7286 111.816 89.7488 113.155C89.3477 114.909 87.3147 115.834 85.9352 116.393C83.2729 117.456 79.4258 118.158 75.1732 118.158C70.9207 118.158 67.0737 117.456 64.4114 116.393C63.0205 115.744 60.6647 114.719 60.5994 113.155C60.7864 111.714 62.1693 110.917 63.2717 110.378C64.6995 109.686 63.9756 107.524 62.4176 107.832C59.8626 108.34 57.6072 109.295 55.9173 110.714C54.2274 112.133 53.1111 114.1 53.1111 116.333C53.2475 120.376 57.4124 122.903 60.6167 124.319C64.7823 126.136 70.0935 127.225 75.1727 127.225C80.2519 127.225 85.5626 126.136 89.7281 124.319C93.3435 122.84 97.1372 120.1 97.2338 116.333C97.2338 114.07 96.0476 112.086 94.3176 110.648C92.5876 109.211 90.3013 108.237 87.7835 107.778C86.18 107.545 85.5606 109.6 86.9564 110.333ZM99.0833 110.449C97.8018 110.423 97.2131 112.036 98.2039 112.849C99.946 114.318 100.899 116.044 100.899 117.978C100.765 121.704 96.2269 124.129 92.9529 125.691C87.99 127.889 81.3572 129.284 75.1735 129.284C68.9898 129.284 62.3565 127.889 57.3936 125.691C54.2967 124.116 49.5214 121.708 49.4479 117.978C49.4479 116.014 50.333 114.355 52.0103 112.925C53.4682 111.761 51.6317 109.61 50.2534 110.866C48.1155 112.689 46.7416 115.161 46.7416 117.978C46.7988 123.095 52.1844 126.323 56.2978 128.168C61.6823 130.552 68.5892 131.992 75.1735 131.992C81.7579 131.992 88.6642 130.552 94.0487 128.168C98.1659 126.367 103.548 123.017 103.605 117.978C103.605 115.132 102.143 112.629 99.9514 110.78C99.7107 110.572 99.402 110.453 99.0833 110.449ZM58.0169 112.571C57.2476 115.634 60.9921 118.02 63.4076 118.908C66.5104 120.146 70.6287 120.867 75.1732 120.867C79.7178 120.867 83.8357 120.145 86.9384 118.908C90.1372 117.828 92.9853 115.199 92.3254 112.573C93.5534 113.418 94.5031 115.126 94.526 116.333C94.0652 119.245 90.7439 120.845 88.6472 121.836C84.9001 123.471 79.8578 124.516 75.1732 124.516C70.4887 124.516 65.446 123.471 61.6989 121.836C59.5172 120.708 56.2129 119.333 55.82 116.333C56.0928 114.671 56.7647 113.269 58.0169 112.571Z" stroke="#663366" mask="url(#path-1-outside-1_259_3025)"/>
</svg>
