<svg width="150" height="150" viewBox="0 0 150 150" fill="none" xmlns="http://www.w3.org/2000/svg">
<path d="M16.9604 34.5695C13.1993 36.6284 11.1478 39.8883 12.1736 42.2904C12.8574 43.8346 14.396 44.6924 16.6184 44.864C16.7894 44.864 16.9604 44.864 17.1313 44.864C18.328 44.864 19.6957 44.6924 20.8924 44.1777C20.2085 46.2366 19.8666 48.1239 20.0376 50.0113C20.2085 52.4133 21.2343 54.1291 22.9438 54.6438C23.4567 54.8154 23.7986 54.9869 24.3115 54.9869C25.5082 54.9869 26.8758 54.4722 28.2435 53.2712C28.7563 52.7565 29.2692 52.2417 29.6111 51.727V69.7424H14.396C13.3703 69.7424 12.6865 70.4287 12.6865 71.4582V86.0421C12.6865 87.0716 13.3703 87.7579 14.396 87.7579H17.8151V118.985H14.396C13.3703 118.985 12.6865 119.671 12.6865 120.7V135.284C12.6865 136.314 13.3703 137 14.396 137H136.801C137.826 137 138.51 136.314 138.51 135.284V120.7C138.51 119.671 137.826 118.985 136.801 118.985H133.552V87.5863H136.801C137.826 87.5863 138.51 86.9 138.51 85.8705V71.2866C138.51 70.2572 137.826 69.5709 136.801 69.5709H121.415V50.6976C121.757 51.2123 122.269 51.5554 122.611 51.8986C123.808 52.928 125.005 53.4428 126.03 53.4428C126.543 53.4428 127.056 53.2712 127.398 53.0996C128.937 52.4133 129.791 50.8691 129.962 48.6387C129.962 47.2661 129.791 45.7219 129.279 44.1777C130.988 44.6924 132.698 45.0356 134.236 45.0356C134.578 45.0356 134.92 45.0356 135.091 45.0356C137.484 44.864 139.194 43.8346 139.707 42.1188C140.391 40.403 139.878 38.6873 138.168 36.8C136.972 35.4274 135.262 34.3979 133.382 33.54C134.749 32.6821 136.117 31.8243 136.972 30.7948C138.339 29.0791 138.852 27.3633 138.168 25.8191C137.485 24.275 135.946 23.4171 133.723 23.2455C132.356 23.2455 130.817 23.4171 129.45 23.9318C130.133 21.8729 130.475 19.814 130.304 18.0982C130.133 15.6962 129.108 13.9804 127.398 13.4657C125.689 12.7794 123.808 13.2941 122.098 15.0099C120.731 16.2109 119.534 17.9267 118.679 19.814C117.825 18.2698 116.97 17.0688 115.944 16.2109C114.234 14.8383 112.525 14.3236 110.986 15.0099C109.448 15.6962 108.593 17.2404 108.422 19.4708C108.422 20.8434 108.593 22.3876 109.106 23.9318C107.054 23.2455 105.174 22.9024 103.464 23.0739C101.071 23.2455 99.3613 24.275 98.8484 25.8191C98.1646 27.3633 98.6774 29.2506 100.387 31.138C101.584 32.5106 103.293 33.54 105.174 34.3979C101.413 36.4568 99.3613 39.7167 100.387 42.1188C101.071 43.8346 102.951 44.6924 105.345 44.6924C106.541 44.6924 107.738 44.5209 109.106 44.0061C108.422 46.065 108.08 47.9524 108.251 49.8397C108.422 52.2417 109.448 53.9575 111.157 54.4722C111.67 54.6438 112.012 54.8154 112.525 54.8154C113.722 54.8154 115.089 54.3006 116.457 53.0996C116.97 52.5849 117.483 52.0702 117.825 51.5554V69.5709H77.1369V62.8794C77.4789 63.3941 77.9917 63.7373 78.3336 64.0804C79.5303 65.1099 80.727 65.6246 81.7528 65.6246C82.2656 65.6246 82.7785 65.453 83.1204 65.2815C84.659 64.5952 85.5138 63.051 85.6848 60.8205C85.6848 59.4479 85.5138 57.9037 85.0009 56.3596C86.7105 56.8743 88.4201 57.2174 89.9587 57.2174C90.3006 57.2174 90.6425 57.2174 90.8134 57.2174C93.2068 57.0459 94.9164 56.0164 95.4293 54.3007C96.1131 52.5849 95.6002 50.8691 93.8907 48.9818C92.694 47.6092 90.9844 46.5798 89.1039 45.5503C92.8649 43.4914 94.9164 40.403 93.8907 37.8294C92.8649 35.4274 89.2748 34.7411 85.1719 35.9421C85.8557 33.8832 86.1976 31.8243 86.0267 30.1085C85.8557 27.7065 84.83 25.9907 83.1204 25.476C81.4109 24.7897 79.5303 25.3044 77.8208 27.0202C76.4531 28.2212 75.4274 29.9369 74.4017 31.8243C73.5469 30.2801 72.6921 29.0791 71.6664 28.2212C69.9568 26.8486 68.2472 26.3339 66.7086 27.0202C65.17 27.7065 64.3152 29.2506 64.1443 31.4811C64.1443 32.8537 64.3152 34.3979 64.8281 35.9421C59.8704 34.2263 55.5965 35.0842 54.3998 37.8294C53.716 39.3736 54.2288 41.2609 55.9384 43.1482C57.1351 44.3493 58.8446 45.5503 60.7252 46.4082C59.3575 47.2661 58.1608 48.1239 57.1351 49.1534C55.7674 50.8691 55.2546 52.5849 55.9384 54.1291C56.6222 55.8448 58.5027 56.7027 60.8961 56.7027C62.0928 56.7027 63.2895 56.5311 64.6571 56.0164C63.9733 58.0753 63.6314 59.9626 63.8024 61.85C63.9733 64.252 64.9991 65.9678 66.7086 66.4825C67.2215 66.6541 67.5634 66.8257 68.0763 66.8257C69.273 66.8257 70.6406 66.3109 72.0083 65.1099C72.5211 64.5952 73.034 64.0804 73.3759 63.5657V69.5709H33.0302V50.6976C33.3722 51.2123 33.885 51.5554 34.2269 51.8986C35.4236 52.928 36.6203 53.4428 37.6461 53.4428C38.1589 53.4428 38.6718 53.2712 39.0137 53.0996C40.5523 52.4133 41.4071 50.8691 41.5781 48.6387C41.5781 47.2661 41.4071 45.7219 40.8942 44.1777C42.6038 44.6924 44.3134 45.0356 45.852 45.0356C46.1939 45.0356 46.5358 45.0356 46.7067 45.0356C49.1001 44.864 50.8097 43.8346 51.3226 42.1188C52.0064 40.403 51.4935 38.6873 49.784 36.8C48.5873 35.4274 46.8777 34.3979 44.9972 33.3685C48.7582 31.3095 50.8097 28.2212 49.784 25.6476C48.7582 23.2455 45.1681 22.5592 41.0652 23.7602C41.749 21.7013 42.0909 19.6424 41.92 17.9267C41.749 15.5246 40.7233 13.8089 39.0137 13.2941C37.3042 12.6078 35.5946 13.1226 33.7141 14.8383C32.3464 16.0393 31.3207 17.7551 30.2949 19.6424C29.4402 18.0982 28.5854 16.8972 27.5596 16.0393C25.8501 14.6667 24.1405 14.152 22.6019 14.8383C21.0633 15.5246 20.2085 17.0688 20.0376 19.2993C20.0376 20.6719 20.2085 22.216 20.7214 23.7602C15.7637 22.0445 11.4898 22.9024 10.2931 25.6476C9.60924 27.1917 10.1221 29.0791 11.8317 30.9664C13.3703 32.5106 15.0798 33.54 16.9604 34.5695ZM21.0633 40.403C19.5247 41.0893 17.9861 41.4325 16.7894 41.2609C15.7637 41.2609 15.4218 40.9178 15.2508 40.7462C15.0798 40.2315 16.2765 38.3441 19.5247 36.8C21.0633 36.1137 22.431 35.9421 23.4567 35.9421C23.7986 35.9421 24.1405 35.9421 24.3115 35.9421C24.4824 36.4568 24.6534 36.8 24.8243 37.3147C24.4824 38.3441 23.1148 39.5452 21.0633 40.403ZM28.5854 46.4082C27.9016 48.1239 26.8758 49.6681 25.8501 50.6976C24.9953 51.3839 24.3115 51.5554 24.1405 51.5554C23.7986 51.3839 23.4567 50.8691 23.4567 49.8397C23.2857 48.4671 23.6277 46.5798 24.3115 44.864C25.1663 42.6335 26.363 41.0893 27.3887 40.403C27.7306 40.5746 28.0725 40.7462 28.4144 40.9178C28.7563 41.0893 29.0983 41.0893 29.2692 41.2609C29.7821 42.1188 29.6111 44.1777 28.5854 46.4082ZM135.091 122.245V133.397H16.1056V122.245H135.091ZM30.2949 113.151L39.3556 105.259L48.9292 113.666L42.9457 118.813H37.1332L30.2949 113.151ZM31.8336 118.813H23.7986L27.7306 115.382L31.8336 118.813ZM41.92 103.028L51.4935 94.6209L61.0671 103.028L51.4935 111.435L41.92 103.028ZM51.4935 115.896L54.9126 118.813H48.0744L51.4935 115.896ZM54.2288 113.666L63.8024 105.259L73.3759 113.666L67.3925 118.813H60.3832L54.2288 113.666ZM66.3667 103.028L75.9403 94.6209L85.5138 103.028L75.9403 111.435L66.3667 103.028ZM75.9403 115.896L79.3594 118.985H72.5211L75.9403 115.896ZM78.5046 113.666L88.0782 105.259L97.6517 113.666L91.6682 118.813H84.659L78.5046 113.666ZM90.6425 103.028L100.216 94.6209L109.79 103.028L100.216 111.435L90.6425 103.028ZM100.216 115.896L103.635 118.813H96.7969L100.216 115.896ZM102.951 113.666L112.525 105.259L121.415 112.979L114.576 118.813H108.935L102.951 113.666ZM123.979 115.21L128.082 118.813H119.705L123.979 115.21ZM126.543 112.979L130.133 109.891V116.239L126.543 112.979ZM123.979 110.749L115.089 103.028L124.321 95.1356L130.304 100.283V105.43L123.979 110.749ZM126.885 92.7335L130.133 89.8168V95.4788L126.885 92.7335ZM124.15 90.5031L120.731 87.5863H127.569L124.15 90.5031ZM121.586 92.7335L112.525 100.626L102.951 92.2188L108.422 87.4147H115.602L121.586 92.7335ZM100.216 90.1599L97.3098 87.5863H103.122L100.216 90.1599ZM97.6517 92.3904L88.0782 100.798L78.5046 92.3904L83.9752 87.5863H92.1811L97.6517 92.3904ZM75.9403 90.1599L73.034 87.5863H78.8465L75.9403 90.1599ZM73.3759 92.3904L63.8024 100.798L54.2288 92.3904L59.6994 87.5863H67.9053L73.3759 92.3904ZM51.4935 90.1599L48.5873 87.5863H54.3998L51.4935 90.1599ZM48.9292 92.3904L39.3556 100.798L31.1497 93.5914L37.817 87.5863H43.4586L48.9292 92.3904ZM28.4144 91.3609L24.1405 87.7579H32.5174L28.4144 91.3609ZM25.8501 93.5914L21.0633 97.8808V89.4736L25.8501 93.5914ZM21.4052 102.342L28.5854 95.8219L36.7913 103.028L27.7306 110.921L21.2343 105.43L21.4052 102.342C21.2343 102.342 21.2343 102.342 21.4052 102.342ZM25.1663 113.151L21.2343 116.583V109.891L25.1663 113.151ZM126.201 50.0113C126.03 50.0113 125.518 50.0113 124.834 49.325C123.808 48.4671 122.953 47.2661 122.269 45.7219C121.415 43.663 121.244 41.9472 121.415 40.7462C121.757 40.7462 121.927 40.5746 122.098 40.5746C122.269 40.5746 122.44 40.403 122.611 40.403C123.466 40.9178 124.663 42.2904 125.689 44.3493C126.372 45.8935 126.714 47.4376 126.543 48.6387C126.543 49.4965 126.201 50.0113 126.201 50.0113ZM135.775 39.3736C136.459 40.2315 136.63 40.9178 136.63 41.0893C136.459 41.4325 135.946 41.7756 134.92 41.7756C133.382 41.7756 131.672 41.6041 129.962 40.9178C127.74 40.0599 126.201 38.8589 125.518 37.8294C125.689 37.4863 125.859 37.1431 126.03 36.8C126.201 36.4568 126.201 36.1137 126.372 35.7705C127.569 35.5989 129.621 35.7705 131.843 36.6284C133.382 37.3147 134.92 38.1726 135.775 39.3736ZM129.45 27.878C130.988 27.1917 132.527 26.8486 133.723 27.0202C134.749 27.0202 135.091 27.3633 135.091 27.3633C135.091 27.3633 135.091 27.878 134.407 28.7359C133.552 29.5938 132.356 30.6232 130.817 31.3095C128.766 32.1674 127.056 32.339 126.03 32.1674C125.859 31.6527 125.689 31.3095 125.518 30.9664C126.201 29.7654 127.398 28.7359 129.45 27.878ZM121.927 21.8729C122.611 20.1571 123.637 18.613 124.663 17.5835C125.347 16.8972 125.859 16.7256 126.201 16.7256H126.372C126.714 16.8972 127.056 17.4119 127.056 18.4414C127.227 19.814 126.885 21.7013 126.201 23.4171C125.347 25.6476 123.979 27.1917 122.953 28.0496C122.611 27.878 122.269 27.7065 121.927 27.5349C121.586 27.3633 121.244 27.3633 120.902 27.1917C120.902 26.1623 120.902 24.1034 121.927 21.8729ZM112.525 18.2698C112.867 18.2698 113.209 18.4414 113.893 18.9561C114.918 19.814 115.773 21.015 116.457 22.5592C117.312 24.6181 117.483 26.5054 117.312 27.5349C116.799 27.7065 116.457 27.878 116.115 28.0496C115.26 27.5349 114.063 26.1623 113.038 24.1034C112.354 22.5592 112.012 21.015 112.183 19.814C112.183 18.7845 112.525 18.2698 112.525 18.2698ZM102.951 28.9075C102.097 28.0496 102.097 27.3633 102.097 27.1917C102.097 27.0202 102.78 26.677 103.806 26.5054C103.977 26.5054 104.148 26.5054 104.319 26.5054C105.687 26.5054 107.225 26.8486 108.764 27.3633C110.986 28.2212 112.525 29.5938 113.38 30.6232C113.209 30.9664 113.038 31.138 112.867 31.4811C112.696 31.8243 112.696 32.1674 112.525 32.339C111.328 32.5106 109.277 32.339 107.054 31.4811C105.516 30.9664 103.977 29.9369 102.951 28.9075ZM109.448 40.403C106.2 41.7756 103.806 41.2609 103.635 40.9178C103.464 40.403 104.661 38.5157 107.909 36.9715C109.448 36.2852 110.815 36.1137 111.841 36.1137C112.183 36.1137 112.525 36.1137 112.696 36.1137C112.696 36.4568 112.867 36.6284 112.867 36.9715C112.867 37.1431 113.038 37.3147 113.209 37.4863C112.696 38.3441 111.499 39.5452 109.448 40.403ZM116.97 46.4082C116.286 48.1239 115.26 49.6681 114.234 50.6976C113.38 51.3839 112.696 51.5554 112.525 51.5554C112.183 51.3839 111.841 50.8691 111.841 49.8397C111.67 48.4671 112.012 46.5798 112.696 44.864C113.551 42.6335 114.747 41.0893 115.773 40.403C116.115 40.5746 116.457 40.7462 116.799 40.9178C117.141 41.0893 117.483 41.0893 117.654 41.2609C117.995 42.1188 117.825 44.1777 116.97 46.4082ZM116.457 35.4274C116.115 34.5695 116.115 33.7116 116.457 33.0253C116.97 31.8243 118.166 30.9664 119.363 30.9664C119.705 30.9664 120.218 30.9664 120.56 31.138C122.269 31.8243 122.953 33.7116 122.44 35.2558C122.098 36.1137 121.586 36.6284 120.731 36.9715C119.876 37.3147 119.021 37.3147 118.337 36.9715C117.483 36.8 116.799 36.2852 116.457 35.4274ZM81.9237 62.0215C81.7528 62.0215 81.2399 62.0215 80.5561 61.3352C79.5303 60.4774 78.6756 59.2763 77.9917 57.7322C77.1369 55.6733 76.966 53.7859 77.1369 52.7565C77.6498 52.5849 77.9917 52.4133 78.3336 52.2417C79.1884 52.7565 80.3851 54.1291 81.4109 56.188C82.0947 57.7322 82.4366 59.2763 82.2656 60.4774C82.4366 61.5068 82.0947 62.0215 81.9237 62.0215ZM91.6682 51.3839C92.3521 52.2417 92.523 52.928 92.523 53.0996C92.3521 53.4428 91.8392 53.7859 90.8134 53.7859C89.4458 53.9575 87.5653 53.6143 85.8557 52.928C83.6333 52.0702 82.0947 50.8691 81.4109 49.8397C81.5818 49.4965 81.7528 49.1534 81.9237 48.8102C82.0947 48.4671 82.0947 48.1239 82.2656 47.7808C83.4623 47.6092 85.5138 47.7808 87.7362 48.6387C89.2748 49.325 90.8134 50.1828 91.6682 51.3839ZM85.3429 39.8883C88.591 38.5157 90.8135 39.0304 91.1554 39.3736C91.3263 39.7167 90.1296 41.7756 86.8815 43.1482C84.83 44.0061 83.1204 44.1777 82.0947 44.0061C82.0947 43.8346 81.9237 43.4914 81.9237 43.3198C81.7528 43.1482 81.7528 42.9767 81.5818 42.6335C81.9237 41.7756 83.2914 40.7462 85.3429 39.8883ZM77.6498 33.8832C78.3336 32.1674 79.3594 30.6232 80.3851 29.5938C81.0689 28.9075 81.5818 28.7359 81.9237 28.7359H82.0947C82.4366 28.9075 82.7785 29.4222 82.7785 30.4517C82.9495 31.8243 82.6076 33.7116 81.9237 35.4274C81.0689 37.6578 79.7013 39.202 78.6756 40.0599C78.3336 39.8883 77.9917 39.7167 77.6498 39.5452C77.3079 39.3736 76.966 39.3736 76.6241 39.202C76.6241 38.1726 76.795 36.1137 77.6498 33.8832ZM68.4182 30.2801C68.7601 30.2801 69.102 30.4517 69.7858 30.9664C70.8116 31.8243 71.6664 33.0253 72.3502 34.5695C73.205 36.6284 73.3759 38.5157 73.205 39.5452C72.6921 39.7167 72.3502 39.8883 72.0083 40.0599C71.1535 39.5452 69.9568 38.1726 68.9311 36.1137C68.2472 34.5695 67.9053 33.0253 68.0763 31.8243C68.0763 30.7948 68.2472 30.2801 68.4182 30.2801ZM58.8446 40.9178C57.9899 40.0599 57.9899 39.3736 57.9899 39.202C58.1608 38.8589 59.0156 38.5157 60.3832 38.5157C61.5799 38.5157 62.9476 38.6873 64.8281 39.3736C67.0505 40.2315 68.5891 41.6041 69.4439 42.6335C69.273 42.9767 69.102 43.1482 68.9311 43.4914C68.7601 43.8345 68.7601 44.1777 68.5891 44.3493C67.3924 44.5209 65.341 44.3493 63.1185 43.4914C61.409 42.9767 59.8704 41.9472 58.8446 40.9178ZM65.341 52.4133C62.0928 53.7859 59.6994 53.2712 59.5285 52.928C59.5285 52.7565 59.5285 52.2417 60.2123 51.5554C61.0671 50.526 62.2638 49.6681 63.8024 48.9818C65.341 48.2955 66.7086 48.1239 67.7344 48.1239C68.0763 48.1239 68.4182 48.1239 68.5891 48.1239C68.7601 48.6387 68.9311 48.9818 69.102 49.4965C68.5891 50.3544 67.2215 51.5554 65.341 52.4133ZM72.863 58.4185C72.1792 60.1342 71.1535 61.6784 70.1278 62.7078C69.273 63.3941 68.5891 63.5657 68.4182 63.5657C68.0763 63.3941 67.7344 62.8794 67.7344 61.85C67.5634 60.4774 67.9053 58.59 68.5891 56.8743C69.4439 54.6438 70.6406 53.0996 71.6664 52.4133C72.0083 52.5849 72.3502 52.7565 72.6921 52.928C73.034 53.0996 73.3759 53.0996 73.5469 53.2712C73.8888 54.1291 73.7178 56.188 72.863 58.4185ZM72.3502 45.0356C72.863 43.8345 74.0597 42.9767 75.2564 42.9767C75.5984 42.9767 76.1112 42.9767 76.4531 43.1482C77.3079 43.4914 77.8208 44.0061 78.1627 44.864C78.5046 45.7219 78.5046 46.5798 78.1627 47.2661C77.4789 48.9818 75.5983 49.6681 74.0597 49.1534C72.5211 48.4671 71.6664 46.5798 72.3502 45.0356ZM135.091 73.0024V84.1548H16.1056V73.0024H135.091ZM37.817 50.0113C37.6461 50.0113 37.1332 50.0113 36.4494 49.325C35.4236 48.4671 34.5689 47.2661 33.885 45.7219C33.0302 43.663 32.8593 41.7756 33.0302 40.7462C33.5431 40.5746 33.885 40.403 34.2269 40.2315C35.0817 40.7462 36.2784 42.1188 37.3042 44.1777C37.988 45.7219 38.3299 47.2661 38.1589 48.4671C38.1589 49.4965 37.988 50.0113 37.817 50.0113ZM47.5615 39.3736C48.2453 40.2315 48.4163 40.9178 48.4163 41.0893C48.2453 41.4325 47.7325 41.7756 46.7067 41.7756C45.3391 41.9472 43.4586 41.6041 41.749 40.9178C39.5266 40.0599 37.988 38.8589 37.3042 37.8294C37.4751 37.4863 37.6461 37.1431 37.817 36.8C37.988 36.4568 37.988 36.1137 38.1589 35.7705C39.3556 35.5989 41.4071 35.7705 43.6295 36.6284C44.9972 37.3147 46.5358 38.1726 47.5615 39.3736ZM41.0652 27.878C44.3134 26.5054 46.7067 27.0202 46.8777 27.3633C47.0487 27.7065 45.852 29.7654 42.6038 31.138C40.5523 31.9958 38.8428 32.1674 37.817 31.9958C37.6461 31.4811 37.4751 31.138 37.3042 30.7948C37.817 29.7654 39.1847 28.7359 41.0652 27.878ZM33.5431 21.8729C34.2269 20.1571 35.2527 18.613 36.2784 17.5835C36.9622 16.8972 37.4751 16.7256 37.817 16.7256H37.988C38.3299 16.8972 38.6718 17.4119 38.6718 18.4414C38.8428 19.814 38.5008 21.7013 37.817 23.4171C36.9622 25.6476 35.5946 27.1917 34.5689 28.0496C34.2269 27.878 33.885 27.7065 33.5431 27.5349C33.2012 27.3633 32.8593 27.3633 32.5174 27.1917C32.5174 26.1623 32.6883 24.1034 33.5431 21.8729ZM31.1497 30.9664C31.4916 30.9664 32.0045 30.9664 32.3464 31.138C33.2012 31.4811 33.7141 31.9958 34.056 32.8537C34.3979 33.7116 34.3979 34.5695 34.056 35.2558C33.3722 36.9715 31.4916 37.6578 29.953 37.1431C28.2435 36.4568 27.5596 34.5695 28.0725 33.0253C28.5854 31.6527 29.7821 30.9664 31.1497 30.9664ZM24.3115 18.2698C24.6534 18.2698 24.9953 18.4414 25.6791 18.9561C26.7049 19.814 27.5596 21.015 28.2435 22.5592C29.0983 24.6181 29.2692 26.5054 29.0983 27.5349C28.9273 27.5349 28.7563 27.7065 28.4144 27.7065C28.2435 27.878 28.0725 27.878 27.7306 28.0496C26.8758 27.5349 25.6791 26.1623 24.6534 24.1034C23.9696 22.5592 23.6277 21.015 23.7986 19.814C23.7986 18.7845 24.1405 18.2698 24.3115 18.2698ZM13.8831 27.1917C14.0541 26.8486 14.9089 26.5054 16.2765 26.5054C17.4732 26.5054 18.8409 26.677 20.7214 27.3633C22.9438 28.2212 24.4824 29.5938 25.3372 30.4517C25.1663 30.7948 24.9953 30.9664 24.8243 31.3095C24.6534 31.6527 24.6534 31.9958 24.4824 32.1674C23.2857 32.339 21.2343 32.1674 19.0118 31.3095C17.3023 30.6232 15.7637 29.5938 14.7379 28.5643C13.8831 28.0496 13.7122 27.3633 13.8831 27.1917Z" fill="#663366"/>
</svg>
