<svg width="150" height="150" viewBox="0 0 150 150" fill="none" xmlns="http://www.w3.org/2000/svg">
<mask id="path-1-outside-1_259_3564" maskUnits="userSpaceOnUse" x="9" y="8" width="132" height="134" fill="black">
<rect fill="white" x="9" y="8" width="132" height="134"/>
<path d="M54.159 82.5597C53.6874 82.1637 53.6233 81.4591 54.0192 80.9815C54.4151 80.5098 55.1196 80.4457 55.597 80.8417C56.0686 81.2378 56.1326 81.9424 55.7367 82.42C55.3408 82.8917 54.6364 82.9558 54.159 82.5597ZM58.6535 79.7237C58.8689 79.7237 59.0785 79.6654 59.2706 79.5373C60.074 79.0073 60.9124 78.5123 61.7682 78.0639C62.8511 77.4932 63.9456 77.004 65.1159 76.573C65.6922 76.3576 65.9892 75.7169 65.7738 75.1346C65.5583 74.558 64.9179 74.261 64.3357 74.4765C63.0782 74.9424 61.8964 75.4665 60.7261 76.0838C59.8062 76.5672 58.8979 77.1029 58.0363 77.6737C57.524 78.0173 57.3784 78.7103 57.7219 79.2228C57.9374 79.549 58.2925 79.7237 58.6535 79.7237ZM45.0999 96.2976C44.4711 98.994 44.215 101.76 44.3372 104.521C44.4245 106.53 44.6924 108.504 45.1348 110.379C45.2571 110.892 45.717 111.241 46.2235 111.241C46.3109 111.241 46.3924 111.23 46.4797 111.212C47.0794 111.067 47.452 110.467 47.3122 109.867C46.8989 108.126 46.6485 106.297 46.5729 104.428C46.4622 101.865 46.6951 99.3027 47.2773 96.8101C47.6849 95.0514 48.2671 93.3218 49.0065 91.6737C49.9613 89.5305 51.1839 87.5097 52.6336 85.6695C53.0178 85.1861 52.9305 84.4814 52.4473 84.0971C51.9641 83.7127 51.2596 83.8 50.8753 84.2834C49.3092 86.2693 47.9935 88.4474 46.963 90.7594C46.1654 92.5357 45.5366 94.4051 45.0942 96.3037L45.0999 96.2976ZM73.0751 105.19C71.5847 103.7 70.6648 101.801 70.4843 99.8443C70.298 97.8118 70.9268 95.9598 72.26 94.632C73.5874 93.3043 75.4329 92.6695 77.4706 92.8558C79.4268 93.0305 81.3247 93.9507 82.8151 95.4474C84.3055 96.9383 85.2254 98.8367 85.4059 100.794C85.5922 102.826 84.9576 104.678 83.6302 106.006C82.4542 107.182 80.8648 107.811 79.1125 107.811C78.8854 107.811 78.6525 107.799 78.4255 107.782C76.4693 107.607 74.5714 106.687 73.081 105.19L73.0751 105.19ZM72.7141 99.6403C72.8422 101.079 73.535 102.482 74.6587 103.606C75.7823 104.73 77.1912 105.423 78.6235 105.551C79.9858 105.674 81.2026 105.272 82.0526 104.422C82.9026 103.571 83.3043 102.354 83.1821 100.991C83.054 99.553 82.3612 98.1496 81.2375 97.0255C80.1139 95.9015 78.705 95.2084 77.2727 95.0803C77.1097 95.0629 76.9525 95.057 76.7953 95.057C75.6309 95.057 74.5946 95.4589 73.8494 96.2043C72.9994 97.0546 72.5976 98.2717 72.7199 99.6345L72.7141 99.6403ZM94.3952 96.053C91.9443 93.6013 91.6764 89.8915 93.7898 87.7775C95.9032 85.6634 99.6116 85.9372 102.063 88.3831C104.514 90.8349 104.782 94.5446 102.668 96.6587C101.713 97.6137 100.433 98.0796 99.0878 98.0796C97.4576 98.0796 95.7344 97.3924 94.3954 96.0471L94.3952 96.053ZM95.9788 94.4689C97.5566 96.0472 99.8505 96.3209 101.091 95.0746C102.331 93.8342 102.057 91.5396 100.485 89.9614C99.5768 89.0529 98.4241 88.5753 97.3762 88.5753C96.6077 88.5753 95.8974 88.8316 95.3733 89.3557C94.1333 90.5962 94.4069 92.8907 95.9788 94.4689ZM82.2157 83.8639C81.0571 82.705 80.341 81.2259 80.2012 79.7C80.0557 78.0985 80.5564 76.6367 81.6043 75.5884C83.7177 73.4744 87.4322 73.7481 89.8774 76.1941C92.3284 78.6458 92.5962 82.3556 90.4828 84.4696C89.528 85.4247 88.2472 85.8906 86.9024 85.8906C85.2722 85.8906 83.549 85.2034 82.21 83.8581L82.2157 83.8639ZM82.4311 79.4962C82.5242 80.5037 83.0075 81.4878 83.7993 82.2799C85.377 83.8581 87.6709 84.1319 88.911 82.8856C90.1569 81.6393 89.8774 79.3506 88.3055 77.7723C87.3972 76.8638 86.2445 76.3863 85.1966 76.3863C84.4281 76.3863 83.7178 76.6425 83.1938 77.1667C82.6174 77.7432 82.3496 78.5702 82.4369 79.4962H82.4311ZM10.6003 46.2602C8.79556 41.3684 11.328 37.2976 14.6349 35.4282C17.9417 33.5588 22.7332 33.4772 25.9877 37.5306C25.9935 37.5422 26.0692 37.6412 26.0809 37.6471C28.8812 41.2636 30.0689 44.8102 31.3264 48.5665L31.9086 50.2844C31.9086 50.2844 31.9144 50.2961 31.9202 50.3019C31.9726 50.4475 32.025 50.6047 32.0774 50.7503C32.2754 51.3035 32.4733 51.8568 32.6829 52.4101C32.7819 52.6722 32.8808 52.9342 32.9856 53.2021C33.2884 53.9825 33.6144 54.7687 33.987 55.5723C34.5226 56.7487 35.1048 57.8843 35.7627 59.0548C36.0247 59.5324 36.2983 59.9691 36.6011 60.3943C36.6069 60.4001 36.6127 60.4001 36.6127 60.4059C36.7524 60.6039 36.9096 60.8077 37.061 61.0057C37.6898 61.8269 38.4059 62.6713 39.2267 63.5332C39.5702 63.8943 39.937 64.2612 40.3213 64.6281C40.3271 64.6339 40.3271 64.6397 40.3329 64.6455C42.2542 66.5266 44.484 68.4192 46.8419 70.4227C48.2333 71.6049 49.6597 72.8279 51.0861 74.0915C53.0714 72.4608 55.1906 71.0282 57.4553 69.8402C58.2645 69.415 59.0796 69.0365 59.9063 68.6754C61.0183 64.063 62.6077 59.6777 64.1622 55.4382C65.2451 52.4855 66.264 49.7017 67.0208 47.0869C67.0208 47.0811 67.0208 47.0811 67.0266 47.0753C67.0266 47.0694 67.0266 47.0694 67.0324 47.0636C67.6263 45.0544 68.0047 43.2316 68.1735 41.6185C68.1735 41.601 68.1794 41.5836 68.1794 41.5719V41.5661C68.2318 41.0245 68.2609 40.4829 68.2609 39.9704C68.2609 38.6018 68.2027 37.2915 68.0862 36.0801C68.0804 36.051 68.0804 36.0219 68.0746 35.9928C67.8999 33.9603 67.5913 32.1376 67.2886 30.4545C67.2886 30.4429 67.2944 30.437 67.2886 30.4254L66.9509 28.6608C66.1941 24.7822 65.4838 21.1191 66.1184 16.7164C66.1242 16.5825 66.1475 16.466 66.1708 16.367C66.9917 11.2946 71.201 9 75.0027 9C78.8045 9 83.0079 11.2888 83.8405 16.4136C83.8521 16.4777 83.8754 16.5825 83.8812 16.7165C84.5158 21.1192 83.7997 24.7824 83.0487 28.6609L82.711 30.4255C82.711 30.4371 82.7169 30.4429 82.711 30.4546C82.4083 32.1492 82.0997 33.9721 81.9192 36.0163C81.9192 36.0337 81.9134 36.0512 81.9134 36.0687C81.797 37.2916 81.7388 38.5961 81.7388 39.9706C81.7388 40.4831 81.7679 41.0247 81.8203 41.5662V41.5721C81.8203 41.5837 81.8261 41.5954 81.8261 41.607C81.9891 43.2201 82.3734 45.0488 82.9672 47.0463C82.973 47.0579 82.973 47.0638 82.973 47.0754V47.0812V47.0871C83.724 49.6961 84.7487 52.4798 85.8258 55.4207C87.3861 59.6779 88.9871 64.0748 90.0992 68.6929C92.5794 69.7819 94.9314 71.1039 97.0971 72.6822C97.493 72.9617 97.9064 73.2762 98.3197 73.5965C98.5235 73.7537 98.7098 73.9284 98.9136 74.0915C100.328 72.8394 101.749 71.6223 103.129 70.4459C105.498 68.4308 107.74 66.5265 109.661 64.6513C109.667 64.6455 109.667 64.6397 109.672 64.6338C110.057 64.2611 110.424 63.8942 110.767 63.539C111.588 62.6771 112.304 61.8327 112.933 61.0115C113.084 60.8135 113.241 60.6097 113.381 60.4117C113.387 60.4058 113.393 60.4058 113.393 60.4C113.701 59.9691 113.975 59.5381 114.225 59.078C114.895 57.8958 115.477 56.7544 116.007 55.5897C116.385 54.7744 116.705 53.9882 117.014 53.2019C117.113 52.9399 117.218 52.6894 117.311 52.4332C117.526 51.8683 117.73 51.2976 117.928 50.7327C117.98 50.5929 118.033 50.4415 118.079 50.3018C118.079 50.2959 118.085 50.2901 118.091 50.2843L118.673 48.5664C119.931 44.8101 121.124 41.2635 123.866 37.7227C123.872 37.7169 124.012 37.5305 124.012 37.5305C127.266 33.4831 132.058 33.5587 135.365 35.4281C138.672 37.2975 141.198 41.3683 139.405 46.2369C139.353 46.3708 139.312 46.4756 139.265 46.563C137.693 50.628 135.266 53.4699 132.698 56.4749C132.308 56.9291 131.912 57.395 131.511 57.8726C131.505 57.8784 131.505 57.89 131.499 57.8959C130.439 59.1713 129.217 60.6738 128.047 62.3859C128.041 62.3917 128.041 62.3917 128.035 62.3917C127.354 63.3701 126.678 64.4533 125.968 65.7055C125.7 66.1539 125.467 66.6198 125.27 67.1032C124.868 68.0059 124.513 69.0017 124.181 70.1024C123.954 70.8478 123.744 71.6339 123.546 72.4901C123.546 72.496 123.54 72.5018 123.54 72.5076C122.912 75.1457 122.428 78.0635 121.922 81.1559C120.676 88.715 119.261 97.2811 115.157 104.549C114.295 106.081 113.317 107.607 112.257 109.092C111.425 114.479 109.446 119.644 106.401 124.205C105.877 124.997 105.3 125.783 104.654 126.61C101.615 130.453 97.9761 133.598 93.8426 135.974C93.8077 135.997 93.7727 136.015 93.732 136.027C88.0031 139.311 81.4825 141 74.9393 141C71.5334 141 68.1218 140.54 64.8032 139.614C60.0177 138.269 55.5987 136.021 51.6689 132.922C51.0052 132.393 50.3648 131.868 49.7302 131.309C49.6894 131.274 49.6487 131.234 49.6137 131.193C44.0072 126.091 40.1181 119.528 38.3483 112.178C38.325 112.126 38.3133 112.074 38.2959 112.015C38.0688 111.066 37.9058 110.082 37.7544 109.098C36.7472 107.7 35.7692 106.174 34.8435 104.544C30.739 97.2755 29.3243 88.709 28.0783 81.1503C27.566 78.0579 27.0886 75.1403 26.4599 72.5079C26.4599 72.502 26.454 72.4962 26.4482 72.4904C26.2328 71.5644 25.9999 70.7142 25.7554 69.9163C25.7205 69.8056 25.6914 69.6833 25.6564 69.5785C25.6506 69.5552 25.639 69.5377 25.6331 69.5202C25.3537 68.6525 25.051 67.8605 24.7307 67.1325C24.5153 66.62 24.2883 66.1599 24.0321 65.729C23.3102 64.4536 22.6348 63.3704 21.9595 62.3978C21.9537 62.3919 21.9537 62.3919 21.9479 62.3861C21.0688 61.1049 20.1606 59.9344 19.3164 58.8978L19.3106 58.8919C19.0311 58.5483 18.7575 58.2164 18.4897 57.8961C18.4839 57.8903 18.4839 57.8786 18.478 57.8728C18.0822 57.4011 17.6863 56.9352 17.2904 56.4751C14.7228 53.4643 12.2951 50.6223 10.6766 46.4583C10.6766 46.4583 10.63 46.3593 10.5893 46.2544L10.6003 46.2602ZM21.0797 57.5175C21.7726 58.3736 22.477 59.2762 23.1874 60.2546C23.1932 60.2662 23.199 60.272 23.2048 60.2837L31.5302 55.5722C31.5185 55.5373 31.5069 55.5082 31.4894 55.479C31.0236 54.4017 30.6219 53.3534 30.2435 52.311L21.0622 57.5115C21.0622 57.5115 21.0739 57.5232 21.0739 57.529L21.0797 57.5175ZM32.4791 57.6048L24.4681 62.1415C24.9571 62.8986 25.4578 63.7023 25.9701 64.6049C26.0691 64.768 26.1564 64.9485 26.2496 65.1232L34.1267 60.6622C34.0219 60.4875 33.8997 60.3303 33.8007 60.1498C33.3175 59.2995 32.8867 58.4551 32.4733 57.6048L32.4791 57.6048ZM35.5182 62.6772C35.4774 62.6248 35.4309 62.5724 35.3901 62.52L27.1754 67.1673C27.1987 67.2255 27.2219 67.2954 27.2452 67.3595C27.385 67.7147 27.513 68.0933 27.6469 68.4776C27.6877 68.5941 27.7284 68.6989 27.7634 68.8154C27.938 69.357 28.1069 69.9277 28.2641 70.5217C28.2641 70.5275 28.2699 70.5334 28.2699 70.5392L37.7189 65.1873C37.7072 65.1756 37.6956 65.1581 37.6839 65.1465C37.2939 64.7388 36.9212 64.3312 36.5661 63.9293C36.3973 63.7313 36.2401 63.5391 36.0771 63.347C35.8849 63.1199 35.6928 62.8927 35.5182 62.6656L35.5182 62.6772ZM112.281 65.193L121.73 70.545C121.73 70.5391 121.736 70.5275 121.736 70.5217C121.893 69.9335 122.062 69.3628 122.236 68.827C122.283 68.6814 122.335 68.5533 122.382 68.4135C122.504 68.0583 122.626 67.703 122.754 67.3711C122.778 67.307 122.801 67.2371 122.824 67.1731L114.61 62.5257C114.569 62.5782 114.522 62.6306 114.481 62.683C114.307 62.9101 114.115 63.1372 113.923 63.3644C113.76 63.5565 113.608 63.7487 113.439 63.9467C113.084 64.3486 112.712 64.7562 112.321 65.1639C112.31 65.1755 112.298 65.193 112.287 65.2046L112.281 65.193ZM115.867 60.6621L123.767 65.1348C123.861 64.9542 123.936 64.762 124.041 64.5873C124.548 63.6963 125.042 62.8985 125.531 62.1414L117.52 57.6047C117.107 58.4549 116.67 59.3052 116.181 60.1672C116.088 60.3361 115.966 60.4992 115.867 60.668L115.867 60.6621ZM118.504 55.4732C118.487 55.5081 118.481 55.5372 118.464 55.5722L126.789 60.2836C126.795 60.272 126.801 60.2662 126.806 60.2603C127.511 59.2819 128.215 58.3793 128.914 57.5232L128.931 57.5058L119.75 52.3052C119.372 53.3476 118.97 54.3957 118.504 55.4732ZM120.792 49.2826L120.495 50.1562L130.381 55.7528C130.585 55.514 130.795 55.2636 130.998 55.0248C133.548 52.0373 135.743 49.4631 137.228 45.6544L138.357 45.8524L137.309 45.468C138.648 41.8282 136.745 38.7824 134.264 37.3789C131.778 35.9754 128.186 35.9113 125.753 38.9339C125.753 38.9397 125.636 39.0911 125.63 39.0969C123.121 42.3349 122.044 45.5555 120.792 49.2826ZM100.614 75.5771C102.063 76.9166 103.402 78.3434 104.596 79.8692C108.176 84.3825 110.703 89.7694 111.902 95.4532C112.519 98.3708 112.77 101.347 112.683 104.323C112.857 104.031 113.043 103.74 113.206 103.449C117.113 96.5248 118.493 88.1677 119.71 80.7954C120.175 77.9709 120.624 75.2978 121.183 72.811L110.616 66.8301C108.782 68.5714 106.738 70.3184 104.573 72.1588C103.274 73.2653 101.941 74.4067 100.608 75.5832L100.614 75.5771ZM80.411 46.2204C80.2654 45.6555 80.1374 45.1022 80.0267 44.5664C79.9918 44.3917 79.9627 44.2228 79.9336 44.0481C79.8637 43.687 79.7997 43.326 79.7473 42.9824C79.7356 42.9241 79.724 42.8601 79.7182 42.8019H70.2808C70.275 42.8601 70.2575 42.9183 70.2517 42.9766C70.1993 43.326 70.1353 43.6871 70.0654 44.0481C70.0305 44.2228 70.0072 44.3859 69.9723 44.5606C69.8617 45.0964 69.7336 45.6438 69.588 46.2088C69.5822 46.2321 69.5764 46.2495 69.5706 46.267H80.4286C80.4227 46.2495 80.4169 46.2321 80.4169 46.2088L80.411 46.2204ZM69.8733 32.3833C69.9024 32.5697 69.9315 32.7444 69.9606 32.9308C70.0537 33.5539 70.1353 34.1945 70.2109 34.8585H79.7823C79.858 34.1946 79.9395 33.5598 80.0326 32.9366C80.0617 32.7328 80.0908 32.5464 80.1258 32.3484C80.1782 32.0223 80.2247 31.6903 80.2771 31.3817H69.722C69.7744 31.702 69.8268 32.0456 69.8792 32.3833H69.8733ZM70.3914 37.0948C70.4496 38.0208 70.4904 38.9758 70.4904 39.9775C70.4904 40.1697 70.4671 40.3735 70.4613 40.5657H79.526C79.5202 40.3677 79.4969 40.1639 79.4969 39.9775C79.4969 38.9759 79.5377 38.0208 79.5959 37.0948H70.3914ZM69.1397 28.2428L69.3144 29.1454H80.6672L80.8419 28.2428C81.5929 24.3817 82.245 21.0447 81.6511 16.9855C81.6453 16.9331 81.6395 16.8807 81.6395 16.8224C81.0049 12.9554 77.8435 11.2433 74.9909 11.2433C72.138 11.2433 68.9827 12.9554 68.3597 16.7758C68.3597 16.8282 68.3422 16.9272 68.3306 16.9796C67.7367 21.0388 68.3888 24.3698 69.1398 28.2369L69.1397 28.2428ZM62.4735 67.6747C67.7132 65.8344 73.4013 65.1589 78.9665 65.7354C81.4409 65.9858 83.9734 66.51 86.4827 67.302C86.832 67.4127 87.1697 67.5583 87.5132 67.6806C86.4594 63.7322 85.0796 59.906 83.7172 56.1963C82.7333 53.5057 81.8077 50.9608 81.0625 48.5207H68.9179C68.1786 50.9666 67.247 53.5175 66.2573 56.2197C64.9007 59.9236 63.5268 63.7381 62.4729 67.6807L62.4735 67.6747ZM49.5255 78.5184C48.6114 79.4852 47.8139 80.4053 47.1036 81.308C45.293 83.6084 43.7675 86.1301 42.5798 88.7972C40.3558 93.7706 39.3021 99.274 39.5465 104.714C39.6455 106.997 39.9424 109.233 40.4373 111.359C40.4548 111.411 40.4722 111.463 40.4839 111.516C42.1432 118.522 45.8518 124.782 51.2137 129.627C51.2486 129.656 51.2836 129.691 51.3127 129.726C51.8832 130.227 52.4596 130.698 53.0535 131.17C56.7447 134.076 60.9014 136.196 65.4019 137.46C74.5424 140.022 84.4972 138.776 92.7004 134.035C92.7354 134.012 92.7703 133.995 92.8111 133.983C96.6593 131.758 100.048 128.812 102.889 125.224C103.5 124.45 104.036 123.71 104.531 122.965C108.018 117.747 110.05 111.678 110.411 105.423C110.615 102.238 110.376 99.0403 109.712 95.9188C108.583 90.5727 106.207 85.5059 102.836 81.2547C101.142 79.0942 99.1629 77.1141 96.9447 75.367C96.5662 75.0758 96.1762 74.773 95.7919 74.5051C92.7704 72.3037 89.4111 70.5974 85.8073 69.4327C83.4553 68.6931 81.074 68.1981 78.7394 67.9651C73.3018 67.3944 67.7418 68.0932 62.6652 69.9744C61.2156 70.5101 59.8475 71.1216 58.4909 71.8321C55.1839 73.5618 52.1686 75.8104 49.5255 78.5184ZM45.392 72.1357C43.2379 70.3012 41.2001 68.56 39.372 66.8245L28.8052 72.8054C29.3583 75.2922 29.8124 77.9652 30.2782 80.7898C31.495 88.1626 32.8748 96.5259 36.7813 103.444C36.9502 103.741 37.1248 104.014 37.2995 104.3C37.1306 98.6856 38.2368 93.0191 40.5365 87.8822C41.7999 85.0461 43.4184 82.3671 45.3455 79.9212C46.0966 78.9661 46.9349 77.9935 47.9131 76.9627C48.3846 76.4794 48.8853 76.0251 49.3802 75.5709C48.0411 74.3887 46.7021 73.2414 45.3921 72.1291L45.392 72.1357ZM12.6907 45.4626C12.7081 45.4975 12.7605 45.6198 12.7722 45.6548C14.2509 49.4635 16.4517 52.0434 19.0017 55.0252C19.2054 55.264 19.415 55.5086 19.6188 55.7531L29.5044 50.1566L29.2075 49.283C27.9558 45.5558 26.8787 42.3353 24.3695 39.0974L25.1205 38.2355L24.2472 38.9343C21.8137 35.9061 18.2214 35.97 15.7356 37.3794C13.2554 38.7829 11.3517 41.8287 12.6906 45.4685L12.6907 45.4626Z"/>
</mask>
<path d="M54.159 82.5597C53.6874 82.1637 53.6233 81.4591 54.0192 80.9815C54.4151 80.5098 55.1196 80.4457 55.597 80.8417C56.0686 81.2378 56.1326 81.9424 55.7367 82.42C55.3408 82.8917 54.6364 82.9558 54.159 82.5597ZM58.6535 79.7237C58.8689 79.7237 59.0785 79.6654 59.2706 79.5373C60.074 79.0073 60.9124 78.5123 61.7682 78.0639C62.8511 77.4932 63.9456 77.004 65.1159 76.573C65.6922 76.3576 65.9892 75.7169 65.7738 75.1346C65.5583 74.558 64.9179 74.261 64.3357 74.4765C63.0782 74.9424 61.8964 75.4665 60.7261 76.0838C59.8062 76.5672 58.8979 77.1029 58.0363 77.6737C57.524 78.0173 57.3784 78.7103 57.7219 79.2228C57.9374 79.549 58.2925 79.7237 58.6535 79.7237ZM45.0999 96.2976C44.4711 98.994 44.215 101.76 44.3372 104.521C44.4245 106.53 44.6924 108.504 45.1348 110.379C45.2571 110.892 45.717 111.241 46.2235 111.241C46.3109 111.241 46.3924 111.23 46.4797 111.212C47.0794 111.067 47.452 110.467 47.3122 109.867C46.8989 108.126 46.6485 106.297 46.5729 104.428C46.4622 101.865 46.6951 99.3027 47.2773 96.8101C47.6849 95.0514 48.2671 93.3218 49.0065 91.6737C49.9613 89.5305 51.1839 87.5097 52.6336 85.6695C53.0178 85.1861 52.9305 84.4814 52.4473 84.0971C51.9641 83.7127 51.2596 83.8 50.8753 84.2834C49.3092 86.2693 47.9935 88.4474 46.963 90.7594C46.1654 92.5357 45.5366 94.4051 45.0942 96.3037L45.0999 96.2976ZM73.0751 105.19C71.5847 103.7 70.6648 101.801 70.4843 99.8443C70.298 97.8118 70.9268 95.9598 72.26 94.632C73.5874 93.3043 75.4329 92.6695 77.4706 92.8558C79.4268 93.0305 81.3247 93.9507 82.8151 95.4474C84.3055 96.9383 85.2254 98.8367 85.4059 100.794C85.5922 102.826 84.9576 104.678 83.6302 106.006C82.4542 107.182 80.8648 107.811 79.1125 107.811C78.8854 107.811 78.6525 107.799 78.4255 107.782C76.4693 107.607 74.5714 106.687 73.081 105.19L73.0751 105.19ZM72.7141 99.6403C72.8422 101.079 73.535 102.482 74.6587 103.606C75.7823 104.73 77.1912 105.423 78.6235 105.551C79.9858 105.674 81.2026 105.272 82.0526 104.422C82.9026 103.571 83.3043 102.354 83.1821 100.991C83.054 99.553 82.3612 98.1496 81.2375 97.0255C80.1139 95.9015 78.705 95.2084 77.2727 95.0803C77.1097 95.0629 76.9525 95.057 76.7953 95.057C75.6309 95.057 74.5946 95.4589 73.8494 96.2043C72.9994 97.0546 72.5976 98.2717 72.7199 99.6345L72.7141 99.6403ZM94.3952 96.053C91.9443 93.6013 91.6764 89.8915 93.7898 87.7775C95.9032 85.6634 99.6116 85.9372 102.063 88.3831C104.514 90.8349 104.782 94.5446 102.668 96.6587C101.713 97.6137 100.433 98.0796 99.0878 98.0796C97.4576 98.0796 95.7344 97.3924 94.3954 96.0471L94.3952 96.053ZM95.9788 94.4689C97.5566 96.0472 99.8505 96.3209 101.091 95.0746C102.331 93.8342 102.057 91.5396 100.485 89.9614C99.5768 89.0529 98.4241 88.5753 97.3762 88.5753C96.6077 88.5753 95.8974 88.8316 95.3733 89.3557C94.1333 90.5962 94.4069 92.8907 95.9788 94.4689ZM82.2157 83.8639C81.0571 82.705 80.341 81.2259 80.2012 79.7C80.0557 78.0985 80.5564 76.6367 81.6043 75.5884C83.7177 73.4744 87.4322 73.7481 89.8774 76.1941C92.3284 78.6458 92.5962 82.3556 90.4828 84.4696C89.528 85.4247 88.2472 85.8906 86.9024 85.8906C85.2722 85.8906 83.549 85.2034 82.21 83.8581L82.2157 83.8639ZM82.4311 79.4962C82.5242 80.5037 83.0075 81.4878 83.7993 82.2799C85.377 83.8581 87.6709 84.1319 88.911 82.8856C90.1569 81.6393 89.8774 79.3506 88.3055 77.7723C87.3972 76.8638 86.2445 76.3863 85.1966 76.3863C84.4281 76.3863 83.7178 76.6425 83.1938 77.1667C82.6174 77.7432 82.3496 78.5702 82.4369 79.4962H82.4311ZM10.6003 46.2602C8.79556 41.3684 11.328 37.2976 14.6349 35.4282C17.9417 33.5588 22.7332 33.4772 25.9877 37.5306C25.9935 37.5422 26.0692 37.6412 26.0809 37.6471C28.8812 41.2636 30.0689 44.8102 31.3264 48.5665L31.9086 50.2844C31.9086 50.2844 31.9144 50.2961 31.9202 50.3019C31.9726 50.4475 32.025 50.6047 32.0774 50.7503C32.2754 51.3035 32.4733 51.8568 32.6829 52.4101C32.7819 52.6722 32.8808 52.9342 32.9856 53.2021C33.2884 53.9825 33.6144 54.7687 33.987 55.5723C34.5226 56.7487 35.1048 57.8843 35.7627 59.0548C36.0247 59.5324 36.2983 59.9691 36.6011 60.3943C36.6069 60.4001 36.6127 60.4001 36.6127 60.4059C36.7524 60.6039 36.9096 60.8077 37.061 61.0057C37.6898 61.8269 38.4059 62.6713 39.2267 63.5332C39.5702 63.8943 39.937 64.2612 40.3213 64.6281C40.3271 64.6339 40.3271 64.6397 40.3329 64.6455C42.2542 66.5266 44.484 68.4192 46.8419 70.4227C48.2333 71.6049 49.6597 72.8279 51.0861 74.0915C53.0714 72.4608 55.1906 71.0282 57.4553 69.8402C58.2645 69.415 59.0796 69.0365 59.9063 68.6754C61.0183 64.063 62.6077 59.6777 64.1622 55.4382C65.2451 52.4855 66.264 49.7017 67.0208 47.0869C67.0208 47.0811 67.0208 47.0811 67.0266 47.0753C67.0266 47.0694 67.0266 47.0694 67.0324 47.0636C67.6263 45.0544 68.0047 43.2316 68.1735 41.6185C68.1735 41.601 68.1794 41.5836 68.1794 41.5719V41.5661C68.2318 41.0245 68.2609 40.4829 68.2609 39.9704C68.2609 38.6018 68.2027 37.2915 68.0862 36.0801C68.0804 36.051 68.0804 36.0219 68.0746 35.9928C67.8999 33.9603 67.5913 32.1376 67.2886 30.4545C67.2886 30.4429 67.2944 30.437 67.2886 30.4254L66.9509 28.6608C66.1941 24.7822 65.4838 21.1191 66.1184 16.7164C66.1242 16.5825 66.1475 16.466 66.1708 16.367C66.9917 11.2946 71.201 9 75.0027 9C78.8045 9 83.0079 11.2888 83.8405 16.4136C83.8521 16.4777 83.8754 16.5825 83.8812 16.7165C84.5158 21.1192 83.7997 24.7824 83.0487 28.6609L82.711 30.4255C82.711 30.4371 82.7169 30.4429 82.711 30.4546C82.4083 32.1492 82.0997 33.9721 81.9192 36.0163C81.9192 36.0337 81.9134 36.0512 81.9134 36.0687C81.797 37.2916 81.7388 38.5961 81.7388 39.9706C81.7388 40.4831 81.7679 41.0247 81.8203 41.5662V41.5721C81.8203 41.5837 81.8261 41.5954 81.8261 41.607C81.9891 43.2201 82.3734 45.0488 82.9672 47.0463C82.973 47.0579 82.973 47.0638 82.973 47.0754V47.0812V47.0871C83.724 49.6961 84.7487 52.4798 85.8258 55.4207C87.3861 59.6779 88.9871 64.0748 90.0992 68.6929C92.5794 69.7819 94.9314 71.1039 97.0971 72.6822C97.493 72.9617 97.9064 73.2762 98.3197 73.5965C98.5235 73.7537 98.7098 73.9284 98.9136 74.0915C100.328 72.8394 101.749 71.6223 103.129 70.4459C105.498 68.4308 107.74 66.5265 109.661 64.6513C109.667 64.6455 109.667 64.6397 109.672 64.6338C110.057 64.2611 110.424 63.8942 110.767 63.539C111.588 62.6771 112.304 61.8327 112.933 61.0115C113.084 60.8135 113.241 60.6097 113.381 60.4117C113.387 60.4058 113.393 60.4058 113.393 60.4C113.701 59.9691 113.975 59.5381 114.225 59.078C114.895 57.8958 115.477 56.7544 116.007 55.5897C116.385 54.7744 116.705 53.9882 117.014 53.2019C117.113 52.9399 117.218 52.6894 117.311 52.4332C117.526 51.8683 117.73 51.2976 117.928 50.7327C117.98 50.5929 118.033 50.4415 118.079 50.3018C118.079 50.2959 118.085 50.2901 118.091 50.2843L118.673 48.5664C119.931 44.8101 121.124 41.2635 123.866 37.7227C123.872 37.7169 124.012 37.5305 124.012 37.5305C127.266 33.4831 132.058 33.5587 135.365 35.4281C138.672 37.2975 141.198 41.3683 139.405 46.2369C139.353 46.3708 139.312 46.4756 139.265 46.563C137.693 50.628 135.266 53.4699 132.698 56.4749C132.308 56.9291 131.912 57.395 131.511 57.8726C131.505 57.8784 131.505 57.89 131.499 57.8959C130.439 59.1713 129.217 60.6738 128.047 62.3859C128.041 62.3917 128.041 62.3917 128.035 62.3917C127.354 63.3701 126.678 64.4533 125.968 65.7055C125.7 66.1539 125.467 66.6198 125.27 67.1032C124.868 68.0059 124.513 69.0017 124.181 70.1024C123.954 70.8478 123.744 71.6339 123.546 72.4901C123.546 72.496 123.54 72.5018 123.54 72.5076C122.912 75.1457 122.428 78.0635 121.922 81.1559C120.676 88.715 119.261 97.2811 115.157 104.549C114.295 106.081 113.317 107.607 112.257 109.092C111.425 114.479 109.446 119.644 106.401 124.205C105.877 124.997 105.3 125.783 104.654 126.61C101.615 130.453 97.9761 133.598 93.8426 135.974C93.8077 135.997 93.7727 136.015 93.732 136.027C88.0031 139.311 81.4825 141 74.9393 141C71.5334 141 68.1218 140.54 64.8032 139.614C60.0177 138.269 55.5987 136.021 51.6689 132.922C51.0052 132.393 50.3648 131.868 49.7302 131.309C49.6894 131.274 49.6487 131.234 49.6137 131.193C44.0072 126.091 40.1181 119.528 38.3483 112.178C38.325 112.126 38.3133 112.074 38.2959 112.015C38.0688 111.066 37.9058 110.082 37.7544 109.098C36.7472 107.7 35.7692 106.174 34.8435 104.544C30.739 97.2755 29.3243 88.709 28.0783 81.1503C27.566 78.0579 27.0886 75.1403 26.4599 72.5079C26.4599 72.502 26.454 72.4962 26.4482 72.4904C26.2328 71.5644 25.9999 70.7142 25.7554 69.9163C25.7205 69.8056 25.6914 69.6833 25.6564 69.5785C25.6506 69.5552 25.639 69.5377 25.6331 69.5202C25.3537 68.6525 25.051 67.8605 24.7307 67.1325C24.5153 66.62 24.2883 66.1599 24.0321 65.729C23.3102 64.4536 22.6348 63.3704 21.9595 62.3978C21.9537 62.3919 21.9537 62.3919 21.9479 62.3861C21.0688 61.1049 20.1606 59.9344 19.3164 58.8978L19.3106 58.8919C19.0311 58.5483 18.7575 58.2164 18.4897 57.8961C18.4839 57.8903 18.4839 57.8786 18.478 57.8728C18.0822 57.4011 17.6863 56.9352 17.2904 56.4751C14.7228 53.4643 12.2951 50.6223 10.6766 46.4583C10.6766 46.4583 10.63 46.3593 10.5893 46.2544L10.6003 46.2602ZM21.0797 57.5175C21.7726 58.3736 22.477 59.2762 23.1874 60.2546C23.1932 60.2662 23.199 60.272 23.2048 60.2837L31.5302 55.5722C31.5185 55.5373 31.5069 55.5082 31.4894 55.479C31.0236 54.4017 30.6219 53.3534 30.2435 52.311L21.0622 57.5115C21.0622 57.5115 21.0739 57.5232 21.0739 57.529L21.0797 57.5175ZM32.4791 57.6048L24.4681 62.1415C24.9571 62.8986 25.4578 63.7023 25.9701 64.6049C26.0691 64.768 26.1564 64.9485 26.2496 65.1232L34.1267 60.6622C34.0219 60.4875 33.8997 60.3303 33.8007 60.1498C33.3175 59.2995 32.8867 58.4551 32.4733 57.6048L32.4791 57.6048ZM35.5182 62.6772C35.4774 62.6248 35.4309 62.5724 35.3901 62.52L27.1754 67.1673C27.1987 67.2255 27.2219 67.2954 27.2452 67.3595C27.385 67.7147 27.513 68.0933 27.6469 68.4776C27.6877 68.5941 27.7284 68.6989 27.7634 68.8154C27.938 69.357 28.1069 69.9277 28.2641 70.5217C28.2641 70.5275 28.2699 70.5334 28.2699 70.5392L37.7189 65.1873C37.7072 65.1756 37.6956 65.1581 37.6839 65.1465C37.2939 64.7388 36.9212 64.3312 36.5661 63.9293C36.3973 63.7313 36.2401 63.5391 36.0771 63.347C35.8849 63.1199 35.6928 62.8927 35.5182 62.6656L35.5182 62.6772ZM112.281 65.193L121.73 70.545C121.73 70.5391 121.736 70.5275 121.736 70.5217C121.893 69.9335 122.062 69.3628 122.236 68.827C122.283 68.6814 122.335 68.5533 122.382 68.4135C122.504 68.0583 122.626 67.703 122.754 67.3711C122.778 67.307 122.801 67.2371 122.824 67.1731L114.61 62.5257C114.569 62.5782 114.522 62.6306 114.481 62.683C114.307 62.9101 114.115 63.1372 113.923 63.3644C113.76 63.5565 113.608 63.7487 113.439 63.9467C113.084 64.3486 112.712 64.7562 112.321 65.1639C112.31 65.1755 112.298 65.193 112.287 65.2046L112.281 65.193ZM115.867 60.6621L123.767 65.1348C123.861 64.9542 123.936 64.762 124.041 64.5873C124.548 63.6963 125.042 62.8985 125.531 62.1414L117.52 57.6047C117.107 58.4549 116.67 59.3052 116.181 60.1672C116.088 60.3361 115.966 60.4992 115.867 60.668L115.867 60.6621ZM118.504 55.4732C118.487 55.5081 118.481 55.5372 118.464 55.5722L126.789 60.2836C126.795 60.272 126.801 60.2662 126.806 60.2603C127.511 59.2819 128.215 58.3793 128.914 57.5232L128.931 57.5058L119.75 52.3052C119.372 53.3476 118.97 54.3957 118.504 55.4732ZM120.792 49.2826L120.495 50.1562L130.381 55.7528C130.585 55.514 130.795 55.2636 130.998 55.0248C133.548 52.0373 135.743 49.4631 137.228 45.6544L138.357 45.8524L137.309 45.468C138.648 41.8282 136.745 38.7824 134.264 37.3789C131.778 35.9754 128.186 35.9113 125.753 38.9339C125.753 38.9397 125.636 39.0911 125.63 39.0969C123.121 42.3349 122.044 45.5555 120.792 49.2826ZM100.614 75.5771C102.063 76.9166 103.402 78.3434 104.596 79.8692C108.176 84.3825 110.703 89.7694 111.902 95.4532C112.519 98.3708 112.77 101.347 112.683 104.323C112.857 104.031 113.043 103.74 113.206 103.449C117.113 96.5248 118.493 88.1677 119.71 80.7954C120.175 77.9709 120.624 75.2978 121.183 72.811L110.616 66.8301C108.782 68.5714 106.738 70.3184 104.573 72.1588C103.274 73.2653 101.941 74.4067 100.608 75.5832L100.614 75.5771ZM80.411 46.2204C80.2654 45.6555 80.1374 45.1022 80.0267 44.5664C79.9918 44.3917 79.9627 44.2228 79.9336 44.0481C79.8637 43.687 79.7997 43.326 79.7473 42.9824C79.7356 42.9241 79.724 42.8601 79.7182 42.8019H70.2808C70.275 42.8601 70.2575 42.9183 70.2517 42.9766C70.1993 43.326 70.1353 43.6871 70.0654 44.0481C70.0305 44.2228 70.0072 44.3859 69.9723 44.5606C69.8617 45.0964 69.7336 45.6438 69.588 46.2088C69.5822 46.2321 69.5764 46.2495 69.5706 46.267H80.4286C80.4227 46.2495 80.4169 46.2321 80.4169 46.2088L80.411 46.2204ZM69.8733 32.3833C69.9024 32.5697 69.9315 32.7444 69.9606 32.9308C70.0537 33.5539 70.1353 34.1945 70.2109 34.8585H79.7823C79.858 34.1946 79.9395 33.5598 80.0326 32.9366C80.0617 32.7328 80.0908 32.5464 80.1258 32.3484C80.1782 32.0223 80.2247 31.6903 80.2771 31.3817H69.722C69.7744 31.702 69.8268 32.0456 69.8792 32.3833H69.8733ZM70.3914 37.0948C70.4496 38.0208 70.4904 38.9758 70.4904 39.9775C70.4904 40.1697 70.4671 40.3735 70.4613 40.5657H79.526C79.5202 40.3677 79.4969 40.1639 79.4969 39.9775C79.4969 38.9759 79.5377 38.0208 79.5959 37.0948H70.3914ZM69.1397 28.2428L69.3144 29.1454H80.6672L80.8419 28.2428C81.5929 24.3817 82.245 21.0447 81.6511 16.9855C81.6453 16.9331 81.6395 16.8807 81.6395 16.8224C81.0049 12.9554 77.8435 11.2433 74.9909 11.2433C72.138 11.2433 68.9827 12.9554 68.3597 16.7758C68.3597 16.8282 68.3422 16.9272 68.3306 16.9796C67.7367 21.0388 68.3888 24.3698 69.1398 28.2369L69.1397 28.2428ZM62.4735 67.6747C67.7132 65.8344 73.4013 65.1589 78.9665 65.7354C81.4409 65.9858 83.9734 66.51 86.4827 67.302C86.832 67.4127 87.1697 67.5583 87.5132 67.6806C86.4594 63.7322 85.0796 59.906 83.7172 56.1963C82.7333 53.5057 81.8077 50.9608 81.0625 48.5207H68.9179C68.1786 50.9666 67.247 53.5175 66.2573 56.2197C64.9007 59.9236 63.5268 63.7381 62.4729 67.6807L62.4735 67.6747ZM49.5255 78.5184C48.6114 79.4852 47.8139 80.4053 47.1036 81.308C45.293 83.6084 43.7675 86.1301 42.5798 88.7972C40.3558 93.7706 39.3021 99.274 39.5465 104.714C39.6455 106.997 39.9424 109.233 40.4373 111.359C40.4548 111.411 40.4722 111.463 40.4839 111.516C42.1432 118.522 45.8518 124.782 51.2137 129.627C51.2486 129.656 51.2836 129.691 51.3127 129.726C51.8832 130.227 52.4596 130.698 53.0535 131.17C56.7447 134.076 60.9014 136.196 65.4019 137.46C74.5424 140.022 84.4972 138.776 92.7004 134.035C92.7354 134.012 92.7703 133.995 92.8111 133.983C96.6593 131.758 100.048 128.812 102.889 125.224C103.5 124.45 104.036 123.71 104.531 122.965C108.018 117.747 110.05 111.678 110.411 105.423C110.615 102.238 110.376 99.0403 109.712 95.9188C108.583 90.5727 106.207 85.5059 102.836 81.2547C101.142 79.0942 99.1629 77.1141 96.9447 75.367C96.5662 75.0758 96.1762 74.773 95.7919 74.5051C92.7704 72.3037 89.4111 70.5974 85.8073 69.4327C83.4553 68.6931 81.074 68.1981 78.7394 67.9651C73.3018 67.3944 67.7418 68.0932 62.6652 69.9744C61.2156 70.5101 59.8475 71.1216 58.4909 71.8321C55.1839 73.5618 52.1686 75.8104 49.5255 78.5184ZM45.392 72.1357C43.2379 70.3012 41.2001 68.56 39.372 66.8245L28.8052 72.8054C29.3583 75.2922 29.8124 77.9652 30.2782 80.7898C31.495 88.1626 32.8748 96.5259 36.7813 103.444C36.9502 103.741 37.1248 104.014 37.2995 104.3C37.1306 98.6856 38.2368 93.0191 40.5365 87.8822C41.7999 85.0461 43.4184 82.3671 45.3455 79.9212C46.0966 78.9661 46.9349 77.9935 47.9131 76.9627C48.3846 76.4794 48.8853 76.0251 49.3802 75.5709C48.0411 74.3887 46.7021 73.2414 45.3921 72.1291L45.392 72.1357ZM12.6907 45.4626C12.7081 45.4975 12.7605 45.6198 12.7722 45.6548C14.2509 49.4635 16.4517 52.0434 19.0017 55.0252C19.2054 55.264 19.415 55.5086 19.6188 55.7531L29.5044 50.1566L29.2075 49.283C27.9558 45.5558 26.8787 42.3353 24.3695 39.0974L25.1205 38.2355L24.2472 38.9343C21.8137 35.9061 18.2214 35.97 15.7356 37.3794C13.2554 38.7829 11.3517 41.8287 12.6906 45.4685L12.6907 45.4626Z" fill="#663366"/>
<path d="M54.159 82.5597C53.6874 82.1637 53.6233 81.4591 54.0192 80.9815C54.4151 80.5098 55.1196 80.4457 55.597 80.8417C56.0686 81.2378 56.1326 81.9424 55.7367 82.42C55.3408 82.8917 54.6364 82.9558 54.159 82.5597ZM58.6535 79.7237C58.8689 79.7237 59.0785 79.6654 59.2706 79.5373C60.074 79.0073 60.9124 78.5123 61.7682 78.0639C62.8511 77.4932 63.9456 77.004 65.1159 76.573C65.6922 76.3576 65.9892 75.7169 65.7738 75.1346C65.5583 74.558 64.9179 74.261 64.3357 74.4765C63.0782 74.9424 61.8964 75.4665 60.7261 76.0838C59.8062 76.5672 58.8979 77.1029 58.0363 77.6737C57.524 78.0173 57.3784 78.7103 57.7219 79.2228C57.9374 79.549 58.2925 79.7237 58.6535 79.7237ZM45.0999 96.2976C44.4711 98.994 44.215 101.76 44.3372 104.521C44.4245 106.53 44.6924 108.504 45.1348 110.379C45.2571 110.892 45.717 111.241 46.2235 111.241C46.3109 111.241 46.3924 111.23 46.4797 111.212C47.0794 111.067 47.452 110.467 47.3122 109.867C46.8989 108.126 46.6485 106.297 46.5729 104.428C46.4622 101.865 46.6951 99.3027 47.2773 96.8101C47.6849 95.0514 48.2671 93.3218 49.0065 91.6737C49.9613 89.5305 51.1839 87.5097 52.6336 85.6695C53.0178 85.1861 52.9305 84.4814 52.4473 84.0971C51.9641 83.7127 51.2596 83.8 50.8753 84.2834C49.3092 86.2693 47.9935 88.4474 46.963 90.7594C46.1654 92.5357 45.5366 94.4051 45.0942 96.3037L45.0999 96.2976ZM73.0751 105.19C71.5847 103.7 70.6648 101.801 70.4843 99.8443C70.298 97.8118 70.9268 95.9598 72.26 94.632C73.5874 93.3043 75.4329 92.6695 77.4706 92.8558C79.4268 93.0305 81.3247 93.9507 82.8151 95.4474C84.3055 96.9383 85.2254 98.8367 85.4059 100.794C85.5922 102.826 84.9576 104.678 83.6302 106.006C82.4542 107.182 80.8648 107.811 79.1125 107.811C78.8854 107.811 78.6525 107.799 78.4255 107.782C76.4693 107.607 74.5714 106.687 73.081 105.19L73.0751 105.19ZM72.7141 99.6403C72.8422 101.079 73.535 102.482 74.6587 103.606C75.7823 104.73 77.1912 105.423 78.6235 105.551C79.9858 105.674 81.2026 105.272 82.0526 104.422C82.9026 103.571 83.3043 102.354 83.1821 100.991C83.054 99.553 82.3612 98.1496 81.2375 97.0255C80.1139 95.9015 78.705 95.2084 77.2727 95.0803C77.1097 95.0629 76.9525 95.057 76.7953 95.057C75.6309 95.057 74.5946 95.4589 73.8494 96.2043C72.9994 97.0546 72.5976 98.2717 72.7199 99.6345L72.7141 99.6403ZM94.3952 96.053C91.9443 93.6013 91.6764 89.8915 93.7898 87.7775C95.9032 85.6634 99.6116 85.9372 102.063 88.3831C104.514 90.8349 104.782 94.5446 102.668 96.6587C101.713 97.6137 100.433 98.0796 99.0878 98.0796C97.4576 98.0796 95.7344 97.3924 94.3954 96.0471L94.3952 96.053ZM95.9788 94.4689C97.5566 96.0472 99.8505 96.3209 101.091 95.0746C102.331 93.8342 102.057 91.5396 100.485 89.9614C99.5768 89.0529 98.4241 88.5753 97.3762 88.5753C96.6077 88.5753 95.8974 88.8316 95.3733 89.3557C94.1333 90.5962 94.4069 92.8907 95.9788 94.4689ZM82.2157 83.8639C81.0571 82.705 80.341 81.2259 80.2012 79.7C80.0557 78.0985 80.5564 76.6367 81.6043 75.5884C83.7177 73.4744 87.4322 73.7481 89.8774 76.1941C92.3284 78.6458 92.5962 82.3556 90.4828 84.4696C89.528 85.4247 88.2472 85.8906 86.9024 85.8906C85.2722 85.8906 83.549 85.2034 82.21 83.8581L82.2157 83.8639ZM82.4311 79.4962C82.5242 80.5037 83.0075 81.4878 83.7993 82.2799C85.377 83.8581 87.6709 84.1319 88.911 82.8856C90.1569 81.6393 89.8774 79.3506 88.3055 77.7723C87.3972 76.8638 86.2445 76.3863 85.1966 76.3863C84.4281 76.3863 83.7178 76.6425 83.1938 77.1667C82.6174 77.7432 82.3496 78.5702 82.4369 79.4962H82.4311ZM10.6003 46.2602C8.79556 41.3684 11.328 37.2976 14.6349 35.4282C17.9417 33.5588 22.7332 33.4772 25.9877 37.5306C25.9935 37.5422 26.0692 37.6412 26.0809 37.6471C28.8812 41.2636 30.0689 44.8102 31.3264 48.5665L31.9086 50.2844C31.9086 50.2844 31.9144 50.2961 31.9202 50.3019C31.9726 50.4475 32.025 50.6047 32.0774 50.7503C32.2754 51.3035 32.4733 51.8568 32.6829 52.4101C32.7819 52.6722 32.8808 52.9342 32.9856 53.2021C33.2884 53.9825 33.6144 54.7687 33.987 55.5723C34.5226 56.7487 35.1048 57.8843 35.7627 59.0548C36.0247 59.5324 36.2983 59.9691 36.6011 60.3943C36.6069 60.4001 36.6127 60.4001 36.6127 60.4059C36.7524 60.6039 36.9096 60.8077 37.061 61.0057C37.6898 61.8269 38.4059 62.6713 39.2267 63.5332C39.5702 63.8943 39.937 64.2612 40.3213 64.6281C40.3271 64.6339 40.3271 64.6397 40.3329 64.6455C42.2542 66.5266 44.484 68.4192 46.8419 70.4227C48.2333 71.6049 49.6597 72.8279 51.0861 74.0915C53.0714 72.4608 55.1906 71.0282 57.4553 69.8402C58.2645 69.415 59.0796 69.0365 59.9063 68.6754C61.0183 64.063 62.6077 59.6777 64.1622 55.4382C65.2451 52.4855 66.264 49.7017 67.0208 47.0869C67.0208 47.0811 67.0208 47.0811 67.0266 47.0753C67.0266 47.0694 67.0266 47.0694 67.0324 47.0636C67.6263 45.0544 68.0047 43.2316 68.1735 41.6185C68.1735 41.601 68.1794 41.5836 68.1794 41.5719V41.5661C68.2318 41.0245 68.2609 40.4829 68.2609 39.9704C68.2609 38.6018 68.2027 37.2915 68.0862 36.0801C68.0804 36.051 68.0804 36.0219 68.0746 35.9928C67.8999 33.9603 67.5913 32.1376 67.2886 30.4545C67.2886 30.4429 67.2944 30.437 67.2886 30.4254L66.9509 28.6608C66.1941 24.7822 65.4838 21.1191 66.1184 16.7164C66.1242 16.5825 66.1475 16.466 66.1708 16.367C66.9917 11.2946 71.201 9 75.0027 9C78.8045 9 83.0079 11.2888 83.8405 16.4136C83.8521 16.4777 83.8754 16.5825 83.8812 16.7165C84.5158 21.1192 83.7997 24.7824 83.0487 28.6609L82.711 30.4255C82.711 30.4371 82.7169 30.4429 82.711 30.4546C82.4083 32.1492 82.0997 33.9721 81.9192 36.0163C81.9192 36.0337 81.9134 36.0512 81.9134 36.0687C81.797 37.2916 81.7388 38.5961 81.7388 39.9706C81.7388 40.4831 81.7679 41.0247 81.8203 41.5662V41.5721C81.8203 41.5837 81.8261 41.5954 81.8261 41.607C81.9891 43.2201 82.3734 45.0488 82.9672 47.0463C82.973 47.0579 82.973 47.0638 82.973 47.0754V47.0812V47.0871C83.724 49.6961 84.7487 52.4798 85.8258 55.4207C87.3861 59.6779 88.9871 64.0748 90.0992 68.6929C92.5794 69.7819 94.9314 71.1039 97.0971 72.6822C97.493 72.9617 97.9064 73.2762 98.3197 73.5965C98.5235 73.7537 98.7098 73.9284 98.9136 74.0915C100.328 72.8394 101.749 71.6223 103.129 70.4459C105.498 68.4308 107.74 66.5265 109.661 64.6513C109.667 64.6455 109.667 64.6397 109.672 64.6338C110.057 64.2611 110.424 63.8942 110.767 63.539C111.588 62.6771 112.304 61.8327 112.933 61.0115C113.084 60.8135 113.241 60.6097 113.381 60.4117C113.387 60.4058 113.393 60.4058 113.393 60.4C113.701 59.9691 113.975 59.5381 114.225 59.078C114.895 57.8958 115.477 56.7544 116.007 55.5897C116.385 54.7744 116.705 53.9882 117.014 53.2019C117.113 52.9399 117.218 52.6894 117.311 52.4332C117.526 51.8683 117.73 51.2976 117.928 50.7327C117.98 50.5929 118.033 50.4415 118.079 50.3018C118.079 50.2959 118.085 50.2901 118.091 50.2843L118.673 48.5664C119.931 44.8101 121.124 41.2635 123.866 37.7227C123.872 37.7169 124.012 37.5305 124.012 37.5305C127.266 33.4831 132.058 33.5587 135.365 35.4281C138.672 37.2975 141.198 41.3683 139.405 46.2369C139.353 46.3708 139.312 46.4756 139.265 46.563C137.693 50.628 135.266 53.4699 132.698 56.4749C132.308 56.9291 131.912 57.395 131.511 57.8726C131.505 57.8784 131.505 57.89 131.499 57.8959C130.439 59.1713 129.217 60.6738 128.047 62.3859C128.041 62.3917 128.041 62.3917 128.035 62.3917C127.354 63.3701 126.678 64.4533 125.968 65.7055C125.7 66.1539 125.467 66.6198 125.27 67.1032C124.868 68.0059 124.513 69.0017 124.181 70.1024C123.954 70.8478 123.744 71.6339 123.546 72.4901C123.546 72.496 123.54 72.5018 123.54 72.5076C122.912 75.1457 122.428 78.0635 121.922 81.1559C120.676 88.715 119.261 97.2811 115.157 104.549C114.295 106.081 113.317 107.607 112.257 109.092C111.425 114.479 109.446 119.644 106.401 124.205C105.877 124.997 105.3 125.783 104.654 126.61C101.615 130.453 97.9761 133.598 93.8426 135.974C93.8077 135.997 93.7727 136.015 93.732 136.027C88.0031 139.311 81.4825 141 74.9393 141C71.5334 141 68.1218 140.54 64.8032 139.614C60.0177 138.269 55.5987 136.021 51.6689 132.922C51.0052 132.393 50.3648 131.868 49.7302 131.309C49.6894 131.274 49.6487 131.234 49.6137 131.193C44.0072 126.091 40.1181 119.528 38.3483 112.178C38.325 112.126 38.3133 112.074 38.2959 112.015C38.0688 111.066 37.9058 110.082 37.7544 109.098C36.7472 107.7 35.7692 106.174 34.8435 104.544C30.739 97.2755 29.3243 88.709 28.0783 81.1503C27.566 78.0579 27.0886 75.1403 26.4599 72.5079C26.4599 72.502 26.454 72.4962 26.4482 72.4904C26.2328 71.5644 25.9999 70.7142 25.7554 69.9163C25.7205 69.8056 25.6914 69.6833 25.6564 69.5785C25.6506 69.5552 25.639 69.5377 25.6331 69.5202C25.3537 68.6525 25.051 67.8605 24.7307 67.1325C24.5153 66.62 24.2883 66.1599 24.0321 65.729C23.3102 64.4536 22.6348 63.3704 21.9595 62.3978C21.9537 62.3919 21.9537 62.3919 21.9479 62.3861C21.0688 61.1049 20.1606 59.9344 19.3164 58.8978L19.3106 58.8919C19.0311 58.5483 18.7575 58.2164 18.4897 57.8961C18.4839 57.8903 18.4839 57.8786 18.478 57.8728C18.0822 57.4011 17.6863 56.9352 17.2904 56.4751C14.7228 53.4643 12.2951 50.6223 10.6766 46.4583C10.6766 46.4583 10.63 46.3593 10.5893 46.2544L10.6003 46.2602ZM21.0797 57.5175C21.7726 58.3736 22.477 59.2762 23.1874 60.2546C23.1932 60.2662 23.199 60.272 23.2048 60.2837L31.5302 55.5722C31.5185 55.5373 31.5069 55.5082 31.4894 55.479C31.0236 54.4017 30.6219 53.3534 30.2435 52.311L21.0622 57.5115C21.0622 57.5115 21.0739 57.5232 21.0739 57.529L21.0797 57.5175ZM32.4791 57.6048L24.4681 62.1415C24.9571 62.8986 25.4578 63.7023 25.9701 64.6049C26.0691 64.768 26.1564 64.9485 26.2496 65.1232L34.1267 60.6622C34.0219 60.4875 33.8997 60.3303 33.8007 60.1498C33.3175 59.2995 32.8867 58.4551 32.4733 57.6048L32.4791 57.6048ZM35.5182 62.6772C35.4774 62.6248 35.4309 62.5724 35.3901 62.52L27.1754 67.1673C27.1987 67.2255 27.2219 67.2954 27.2452 67.3595C27.385 67.7147 27.513 68.0933 27.6469 68.4776C27.6877 68.5941 27.7284 68.6989 27.7634 68.8154C27.938 69.357 28.1069 69.9277 28.2641 70.5217C28.2641 70.5275 28.2699 70.5334 28.2699 70.5392L37.7189 65.1873C37.7072 65.1756 37.6956 65.1581 37.6839 65.1465C37.2939 64.7388 36.9212 64.3312 36.5661 63.9293C36.3973 63.7313 36.2401 63.5391 36.0771 63.347C35.8849 63.1199 35.6928 62.8927 35.5182 62.6656L35.5182 62.6772ZM112.281 65.193L121.73 70.545C121.73 70.5391 121.736 70.5275 121.736 70.5217C121.893 69.9335 122.062 69.3628 122.236 68.827C122.283 68.6814 122.335 68.5533 122.382 68.4135C122.504 68.0583 122.626 67.703 122.754 67.3711C122.778 67.307 122.801 67.2371 122.824 67.1731L114.61 62.5257C114.569 62.5782 114.522 62.6306 114.481 62.683C114.307 62.9101 114.115 63.1372 113.923 63.3644C113.76 63.5565 113.608 63.7487 113.439 63.9467C113.084 64.3486 112.712 64.7562 112.321 65.1639C112.31 65.1755 112.298 65.193 112.287 65.2046L112.281 65.193ZM115.867 60.6621L123.767 65.1348C123.861 64.9542 123.936 64.762 124.041 64.5873C124.548 63.6963 125.042 62.8985 125.531 62.1414L117.52 57.6047C117.107 58.4549 116.67 59.3052 116.181 60.1672C116.088 60.3361 115.966 60.4992 115.867 60.668L115.867 60.6621ZM118.504 55.4732C118.487 55.5081 118.481 55.5372 118.464 55.5722L126.789 60.2836C126.795 60.272 126.801 60.2662 126.806 60.2603C127.511 59.2819 128.215 58.3793 128.914 57.5232L128.931 57.5058L119.75 52.3052C119.372 53.3476 118.97 54.3957 118.504 55.4732ZM120.792 49.2826L120.495 50.1562L130.381 55.7528C130.585 55.514 130.795 55.2636 130.998 55.0248C133.548 52.0373 135.743 49.4631 137.228 45.6544L138.357 45.8524L137.309 45.468C138.648 41.8282 136.745 38.7824 134.264 37.3789C131.778 35.9754 128.186 35.9113 125.753 38.9339C125.753 38.9397 125.636 39.0911 125.63 39.0969C123.121 42.3349 122.044 45.5555 120.792 49.2826ZM100.614 75.5771C102.063 76.9166 103.402 78.3434 104.596 79.8692C108.176 84.3825 110.703 89.7694 111.902 95.4532C112.519 98.3708 112.77 101.347 112.683 104.323C112.857 104.031 113.043 103.74 113.206 103.449C117.113 96.5248 118.493 88.1677 119.71 80.7954C120.175 77.9709 120.624 75.2978 121.183 72.811L110.616 66.8301C108.782 68.5714 106.738 70.3184 104.573 72.1588C103.274 73.2653 101.941 74.4067 100.608 75.5832L100.614 75.5771ZM80.411 46.2204C80.2654 45.6555 80.1374 45.1022 80.0267 44.5664C79.9918 44.3917 79.9627 44.2228 79.9336 44.0481C79.8637 43.687 79.7997 43.326 79.7473 42.9824C79.7356 42.9241 79.724 42.8601 79.7182 42.8019H70.2808C70.275 42.8601 70.2575 42.9183 70.2517 42.9766C70.1993 43.326 70.1353 43.6871 70.0654 44.0481C70.0305 44.2228 70.0072 44.3859 69.9723 44.5606C69.8617 45.0964 69.7336 45.6438 69.588 46.2088C69.5822 46.2321 69.5764 46.2495 69.5706 46.267H80.4286C80.4227 46.2495 80.4169 46.2321 80.4169 46.2088L80.411 46.2204ZM69.8733 32.3833C69.9024 32.5697 69.9315 32.7444 69.9606 32.9308C70.0537 33.5539 70.1353 34.1945 70.2109 34.8585H79.7823C79.858 34.1946 79.9395 33.5598 80.0326 32.9366C80.0617 32.7328 80.0908 32.5464 80.1258 32.3484C80.1782 32.0223 80.2247 31.6903 80.2771 31.3817H69.722C69.7744 31.702 69.8268 32.0456 69.8792 32.3833H69.8733ZM70.3914 37.0948C70.4496 38.0208 70.4904 38.9758 70.4904 39.9775C70.4904 40.1697 70.4671 40.3735 70.4613 40.5657H79.526C79.5202 40.3677 79.4969 40.1639 79.4969 39.9775C79.4969 38.9759 79.5377 38.0208 79.5959 37.0948H70.3914ZM69.1397 28.2428L69.3144 29.1454H80.6672L80.8419 28.2428C81.5929 24.3817 82.245 21.0447 81.6511 16.9855C81.6453 16.9331 81.6395 16.8807 81.6395 16.8224C81.0049 12.9554 77.8435 11.2433 74.9909 11.2433C72.138 11.2433 68.9827 12.9554 68.3597 16.7758C68.3597 16.8282 68.3422 16.9272 68.3306 16.9796C67.7367 21.0388 68.3888 24.3698 69.1398 28.2369L69.1397 28.2428ZM62.4735 67.6747C67.7132 65.8344 73.4013 65.1589 78.9665 65.7354C81.4409 65.9858 83.9734 66.51 86.4827 67.302C86.832 67.4127 87.1697 67.5583 87.5132 67.6806C86.4594 63.7322 85.0796 59.906 83.7172 56.1963C82.7333 53.5057 81.8077 50.9608 81.0625 48.5207H68.9179C68.1786 50.9666 67.247 53.5175 66.2573 56.2197C64.9007 59.9236 63.5268 63.7381 62.4729 67.6807L62.4735 67.6747ZM49.5255 78.5184C48.6114 79.4852 47.8139 80.4053 47.1036 81.308C45.293 83.6084 43.7675 86.1301 42.5798 88.7972C40.3558 93.7706 39.3021 99.274 39.5465 104.714C39.6455 106.997 39.9424 109.233 40.4373 111.359C40.4548 111.411 40.4722 111.463 40.4839 111.516C42.1432 118.522 45.8518 124.782 51.2137 129.627C51.2486 129.656 51.2836 129.691 51.3127 129.726C51.8832 130.227 52.4596 130.698 53.0535 131.17C56.7447 134.076 60.9014 136.196 65.4019 137.46C74.5424 140.022 84.4972 138.776 92.7004 134.035C92.7354 134.012 92.7703 133.995 92.8111 133.983C96.6593 131.758 100.048 128.812 102.889 125.224C103.5 124.45 104.036 123.71 104.531 122.965C108.018 117.747 110.05 111.678 110.411 105.423C110.615 102.238 110.376 99.0403 109.712 95.9188C108.583 90.5727 106.207 85.5059 102.836 81.2547C101.142 79.0942 99.1629 77.1141 96.9447 75.367C96.5662 75.0758 96.1762 74.773 95.7919 74.5051C92.7704 72.3037 89.4111 70.5974 85.8073 69.4327C83.4553 68.6931 81.074 68.1981 78.7394 67.9651C73.3018 67.3944 67.7418 68.0932 62.6652 69.9744C61.2156 70.5101 59.8475 71.1216 58.4909 71.8321C55.1839 73.5618 52.1686 75.8104 49.5255 78.5184ZM45.392 72.1357C43.2379 70.3012 41.2001 68.56 39.372 66.8245L28.8052 72.8054C29.3583 75.2922 29.8124 77.9652 30.2782 80.7898C31.495 88.1626 32.8748 96.5259 36.7813 103.444C36.9502 103.741 37.1248 104.014 37.2995 104.3C37.1306 98.6856 38.2368 93.0191 40.5365 87.8822C41.7999 85.0461 43.4184 82.3671 45.3455 79.9212C46.0966 78.9661 46.9349 77.9935 47.9131 76.9627C48.3846 76.4794 48.8853 76.0251 49.3802 75.5709C48.0411 74.3887 46.7021 73.2414 45.3921 72.1291L45.392 72.1357ZM12.6907 45.4626C12.7081 45.4975 12.7605 45.6198 12.7722 45.6548C14.2509 49.4635 16.4517 52.0434 19.0017 55.0252C19.2054 55.264 19.415 55.5086 19.6188 55.7531L29.5044 50.1566L29.2075 49.283C27.9558 45.5558 26.8787 42.3353 24.3695 39.0974L25.1205 38.2355L24.2472 38.9343C21.8137 35.9061 18.2214 35.97 15.7356 37.3794C13.2554 38.7829 11.3517 41.8287 12.6906 45.4685L12.6907 45.4626Z" stroke="#663366" stroke-width="0.5" mask="url(#path-1-outside-1_259_3564)"/>
</svg>
