<svg width="150" height="150" viewBox="0 0 150 150" fill="none" xmlns="http://www.w3.org/2000/svg">
<path d="M74.5557 109.337C53.0964 109.337 30 94.9917 30 63.4931C30 62.2106 31.0388 61.1719 32.3212 61.1719H116.796C118.079 61.1719 119.117 62.2106 119.117 63.4931C119.117 94.992 96.0209 109.337 74.5616 109.337H74.5557ZM34.6885 65.8136C35.7911 92.5081 55.87 104.694 74.5557 104.694C93.2473 104.694 113.327 92.5079 114.423 65.8136H34.6885Z" fill="#663366"/>
<path d="M105.352 75.7655H43.7578C42.4753 75.7655 41.4365 74.7268 41.4365 73.4443C41.4365 72.1618 42.4753 71.123 43.7578 71.123H105.352C106.634 71.123 107.673 72.1618 107.673 73.4443C107.673 74.7268 106.634 75.7655 105.352 75.7655Z" fill="#663366"/>
<path d="M53.311 139.988C50.1541 139.988 47.2874 138.514 45.4478 135.949C43.6082 133.379 43.1381 130.193 44.1595 127.204L49.8117 110.625C50.2295 109.412 51.5468 108.768 52.7597 109.174C53.9725 109.586 54.6225 110.909 54.2104 112.122L48.5582 128.701C48.0243 130.257 48.2739 131.916 49.2314 133.251C50.1889 134.586 51.6802 135.352 53.3167 135.352C55.4697 135.352 57.3789 133.982 58.0752 131.945L60.2688 125.504C60.6809 124.291 61.9982 123.647 63.2168 124.053C64.4297 124.465 65.0796 125.783 64.6676 127.001L62.474 133.443C61.1393 137.365 57.4601 140 53.3167 140L53.311 139.988Z" fill="#663366"/>
<path d="M95.8077 139.988C91.6643 139.988 87.9794 137.354 86.6446 133.425L84.4568 126.995C84.0448 125.782 84.6947 124.465 85.9076 124.047C87.1204 123.641 88.4377 124.285 88.8556 125.498L91.0434 131.928C91.7398 133.97 93.6548 135.34 95.8135 135.34C97.4616 135.34 98.953 134.574 99.9104 133.233C100.868 131.899 101.112 130.233 100.584 128.678L94.9371 112.111C94.5251 110.898 95.1751 109.58 96.3879 109.163C97.595 108.756 98.918 109.401 99.3359 110.613L104.977 127.181C105.998 130.175 105.528 133.367 103.688 135.937C101.849 138.508 98.9761 139.988 95.8135 139.988L95.8077 139.988Z" fill="#663366"/>
<path d="M86.65 128.567H62.4632C61.7146 128.567 61.0124 128.208 60.5772 127.598C60.142 126.989 60.0259 126.205 60.2639 125.497L63.8734 114.889C64.2564 113.775 65.4113 113.114 66.566 113.369C71.4986 114.443 76.8954 114.437 82.6059 113.358C83.7433 113.143 84.8632 113.793 85.2346 114.889L88.8442 125.497C89.0879 126.205 88.9718 126.989 88.5308 127.598C88.0956 128.208 87.3934 128.567 86.6448 128.567L86.65 128.567ZM65.7003 123.925H83.4055L81.473 118.261C76.6333 118.992 71.9908 119.004 67.6153 118.296L65.7003 123.925Z" fill="#663366"/>
<path d="M43.9799 56.1469H38.2929C34.5673 56.1469 31.5381 53.1176 31.5381 49.3979V46.2294C31.5381 42.5039 34.5673 39.4746 38.2929 39.4746H43.9799C47.7054 39.4746 50.7347 42.5039 50.7347 46.2294V49.3979C50.7347 53.1234 47.7054 56.1469 43.9799 56.1469ZM38.2929 44.1171C37.1323 44.1171 36.1805 45.063 36.1805 46.2294V49.3979C36.1805 50.5585 37.1264 51.5044 38.2929 51.5044H43.9799C45.1405 51.5044 46.0922 50.5585 46.0922 49.3979V46.2294C46.0922 45.0688 45.1463 44.1171 43.9799 44.1171H38.2929Z" fill="#663366"/>
<path d="M67.9525 56.1469H62.2655C58.54 56.1469 55.5107 53.1176 55.5107 49.3979V46.2294C55.5107 42.5039 58.54 39.4746 62.2655 39.4746H67.9525C71.6781 39.4746 74.7073 42.5039 74.7073 46.2294V49.3979C74.7073 53.1234 71.6781 56.1469 67.9525 56.1469ZM62.2598 44.1171C61.0991 44.1171 60.1474 45.063 60.1474 46.2294V49.3979C60.1474 50.5585 61.0933 51.5044 62.2598 51.5044H67.9467C69.1073 51.5044 70.0591 50.5585 70.0591 49.3979V46.2294C70.0591 45.0688 69.1132 44.1171 67.9467 44.1171H62.2598Z" fill="#663366"/>
<path d="M91.9204 56.1469H86.2334C82.5078 56.1469 79.4844 53.1176 79.4844 49.3979V46.2294C79.4844 42.5039 82.5136 39.4746 86.2334 39.4746H91.9204C95.6459 39.4746 98.6694 42.5039 98.6694 46.2294V49.3979C98.6694 53.1234 95.6401 56.1469 91.9204 56.1469ZM86.2334 44.1171C85.0728 44.1171 84.1268 45.063 84.1268 46.2294V49.3979C84.1268 50.5585 85.0727 51.5044 86.2334 51.5044H91.9204C93.081 51.5044 94.0269 50.5585 94.0269 49.3979V46.2294C94.0269 45.0688 93.081 44.1171 91.9204 44.1171H86.2334Z" fill="#663366"/>
<path d="M57.8313 50.1346H48.413C47.1305 50.1346 46.0918 49.0959 46.0918 47.8134C46.0918 46.5309 47.1305 45.4922 48.413 45.4922H57.8313C59.1138 45.4922 60.1526 46.5309 60.1526 47.8134C60.1526 49.0959 59.1138 50.1346 57.8313 50.1346Z" fill="#663366"/>
<path d="M81.7981 50.1346H72.3798C71.0973 50.1346 70.0586 49.0959 70.0586 47.8134C70.0586 46.5309 71.0973 45.4922 72.3798 45.4922H81.7981C83.0806 45.4922 84.1194 46.5309 84.1194 47.8134C84.1194 49.0959 83.0806 50.1346 81.7981 50.1346Z" fill="#663366"/>
<path d="M115.248 50.1346H96.3466C95.0641 50.1346 94.0254 49.0959 94.0254 47.8134C94.0254 46.5309 95.0641 45.4922 96.3466 45.4922H115.248C116.53 45.4922 117.569 46.5309 117.569 47.8134C117.569 49.0959 116.53 50.1346 115.248 50.1346Z" fill="#663366"/>
<path d="M92.593 36.4455C92.0707 36.4455 91.5485 36.2714 91.119 35.9174C90.1325 35.105 89.9874 33.6485 90.7941 32.6561C91.1597 32.2034 94.2295 28.1877 91.0088 25.1876C85.8847 20.4058 88.5889 13.7672 90.7418 10.9236C91.5078 9.90226 92.9702 9.69335 93.9916 10.471C95.0129 11.2428 95.216 12.6993 94.4442 13.7207C94.2991 13.9122 90.8347 18.6764 94.1773 21.7985C99.3536 26.6267 96.5797 32.9404 94.3862 35.6041C93.9277 36.1612 93.2604 36.4513 92.5931 36.4513L92.593 36.4455Z" fill="#663366"/>
<path d="M74.5559 36.4455C74.0336 36.4455 73.5114 36.2714 73.0819 35.9175C72.0954 35.105 71.9503 33.6427 72.757 32.6562C73.1284 32.1919 76.1866 28.1878 72.9717 25.1935C67.8476 20.4117 70.5518 13.773 72.7047 10.9295C73.4765 9.90812 74.9273 9.69921 75.9544 10.4768C76.9758 11.2486 77.1789 12.7052 76.4071 13.7265C76.262 13.918 72.7976 18.6823 76.1401 21.8044C81.3165 26.6326 78.5426 32.9463 76.349 35.61C75.8906 36.1671 75.2233 36.4572 74.5559 36.4572L74.5559 36.4455Z" fill="#663366"/>
<path d="M56.5131 36.4455C55.9908 36.4455 55.4686 36.2714 55.0391 35.9174C54.0526 35.105 53.9075 33.6485 54.7141 32.6561C55.0797 32.2034 58.1496 28.1877 54.9289 25.1876C49.8048 20.4058 52.5148 13.7672 54.6619 10.9236C55.4337 9.90226 56.8845 9.69335 57.9116 10.471C58.933 11.2428 59.1361 12.6993 58.3643 13.7207C58.2192 13.9122 54.7547 18.6764 58.0973 21.7985C63.2737 26.6267 60.4998 32.9404 58.3062 35.6041C57.8478 36.1612 57.1804 36.4513 56.5131 36.4513L56.5131 36.4455Z" fill="#663366"/>
</svg>
