<svg width="150" height="150" viewBox="0 0 150 150" fill="none" xmlns="http://www.w3.org/2000/svg">
<path d="M120.443 51.8548H109.153V32.6613M126.653 32.6613V51.8548H137.943M80.9274 54.1129V34.9193H80.6451L74.1532 44.5161H73.5887L67.0967 34.9193H66.8145V54.1129M100.685 54.1129V40.5645C100.685 37.4467 98.1581 34.9193 95.0403 34.9193C91.9225 34.9193 89.3951 37.4467 89.3951 40.5645V54.1129M89.3951 47.9032H100.685M57.5 145V71.6129H145V145H57.5ZM57.5 145H5V15.1613C5 15.1613 13.4677 5 31.25 5C49.0322 5 57.5 15.1613 57.5 15.1613V145ZM65.9677 97.0161H136.532M122.419 80.0806V113.952M108.306 80.0806V113.952M94.1935 80.0806V113.952M80.0806 113.952V80.0806M101.25 145V122.419M139.355 63.1451V71.6129M102.661 63.1451V71.6129M65.9677 63.1451V71.6129M42.5403 6.69355V145M19.9597 145V6.69355M57.5 33.7903C57.5 33.7903 49.0322 23.629 31.25 23.629C13.4677 23.629 5 33.7903 5 33.7903M57.5 53.5484C57.5 53.5484 49.0322 43.3871 31.25 43.3871C13.4677 43.3871 5 53.5484 5 53.5484M57.5 73.3064C57.5 73.3064 49.0322 63.1451 31.25 63.1451C13.4677 63.1451 5 73.3064 5 73.3064M57.5 93.0645C57.5 93.0645 49.0322 82.9032 31.25 82.9032C13.4677 82.9032 5 93.0645 5 93.0645M57.5 112.823C57.5 112.823 49.0322 102.661 31.25 102.661C13.4677 102.661 5 112.823 5 112.823M57.5 132.581C57.5 132.581 49.0322 122.419 31.25 122.419C13.4677 122.419 5 132.581 5 132.581M136.532 113.952V80.0806H65.9677V113.952H136.532ZM82.9032 122.419V145H119.597V122.419H82.9032ZM145 23.629H57.5V63.1451H145V23.629Z" stroke="#663366" stroke-width="4.23387" stroke-miterlimit="10"/>
</svg>
