<svg width="150" height="150" viewBox="0 0 150 150" fill="none" xmlns="http://www.w3.org/2000/svg">
<path fill-rule="evenodd" clip-rule="evenodd" d="M65.2769 30.3772H65.2932C65.9757 30.3772 66.5607 30.8112 66.7827 31.4187L66.8477 31.6466C66.8532 31.6574 66.8532 31.6737 66.8532 31.6845L66.8802 31.8744V42.2465H67.7361C68.6136 42.2465 69.3232 42.9571 69.3232 43.8359C69.3232 44.7147 68.6136 45.4253 67.7361 45.4253H62.8503C61.9728 45.4253 61.2632 44.7146 61.2632 43.8359C61.2632 42.9571 61.9728 42.2465 62.8503 42.2465H63.7061V33.5345H62.5848C61.7073 33.5345 60.9978 32.8238 60.9978 31.9451C60.9978 31.0663 61.7074 30.3557 62.5848 30.3557L65.2769 30.3772ZM65.1632 28.4894C66.539 28.4894 67.6603 27.3719 67.6603 25.9886C67.6603 24.6052 66.5445 23.4878 65.1632 23.4878C63.7819 23.4878 62.666 24.6052 62.666 25.9886C62.666 27.3719 63.7873 28.4894 65.1632 28.4894ZM76.9716 42.3332C76.0941 42.3332 75.3845 41.6226 75.3845 40.7438C75.3845 39.8651 76.0941 39.1545 76.9716 39.1545H94.8085C95.686 39.1545 96.3955 39.8651 96.3955 40.7438C96.3955 41.6226 95.6859 42.3332 94.8085 42.3332H76.9716ZM76.9716 35.7477C76.0941 35.7477 75.3845 35.037 75.3845 34.1583C75.3845 33.2795 76.0941 32.5689 76.9716 32.5689H94.8085C95.686 32.5689 96.3955 33.2795 96.3955 34.1583C96.3955 35.0371 95.6859 35.7477 94.8085 35.7477H76.9716ZM76.9716 29.1621C76.0941 29.1621 75.3845 28.4514 75.3845 27.5727C75.3845 26.6939 76.0941 25.9833 76.9716 25.9833H94.8085C95.686 25.9833 96.3955 26.6939 96.3955 27.5727C96.3955 28.4515 95.6859 29.1621 94.8085 29.1621H76.9716ZM101.168 122.792V130.821H136.826L136.832 104.864C136.832 100.454 134.849 96.4397 131.648 93.5212C128.409 90.5647 123.934 88.7312 119 88.7312C114.038 88.7312 110.366 89.7999 107.766 91.948C105.176 94.0854 103.568 97.3672 102.728 101.805L101.358 109.047C101.217 109.812 100.55 110.338 99.8029 110.338V110.343L84.5716 110.332C83.0983 110.332 81.7658 110.875 80.8125 111.748C79.897 112.583 79.3283 113.734 79.3283 114.981L79.3175 114.987C79.3175 116.234 79.8916 117.379 80.8124 118.22C81.7766 119.098 83.1037 119.641 84.5716 119.641C89.945 119.641 92.8592 119.635 95.9521 119.635C98.5846 119.635 101.353 119.63 105.886 119.63C106.786 119.44 107.609 119.055 108.286 118.513C108.947 117.981 109.462 117.297 109.743 116.511L114.824 102.418C115.117 101.599 116.021 101.17 116.845 101.463C117.662 101.756 118.09 102.662 117.798 103.487L112.717 117.579C112.224 118.947 111.363 120.102 110.269 120.986C109.158 121.881 107.804 122.5 106.347 122.776C106.255 122.793 106.157 122.803 106.054 122.803L101.168 122.792ZM97.999 132.41V122.798H95.9514C92.8584 122.798 89.9443 122.803 84.5709 122.803C82.2797 122.803 80.1997 121.946 78.6829 120.563C77.1283 119.142 76.1641 117.167 76.1587 114.986H76.1533C76.1533 112.806 77.1229 110.831 78.6829 109.41C80.2051 108.021 82.2905 107.164 84.5763 107.164H98.5027L99.624 101.218C100.604 96.0432 102.565 92.1429 105.761 89.5011C108.952 86.8648 113.285 85.5574 119 85.5574C124.747 85.5574 129.979 87.7111 133.776 91.1829C137.617 94.6763 140 99.526 140 104.864V132.411C140 133.289 139.29 134 138.413 134H99.5859C98.7083 134 97.999 133.289 97.999 132.41ZM119 84.0273C115.149 84.0273 111.666 82.465 109.136 79.9371C106.612 77.4092 105.052 73.9158 105.052 70.0587C105.052 66.2019 106.612 62.7137 109.136 60.1804C111.661 57.6525 115.149 56.0902 119 56.0902C122.851 56.0902 126.335 57.6525 128.864 60.1804C131.388 62.7083 132.948 66.2017 132.948 70.0587C132.948 73.9156 131.388 77.4038 128.864 79.9371C126.335 82.4596 122.852 84.0273 119 84.0273ZM111.379 77.6913C113.329 79.6441 116.021 80.8538 119 80.8538C121.974 80.8538 124.672 79.6441 126.622 77.6913C128.572 75.7385 129.779 73.0423 129.779 70.0587C129.779 67.0806 128.572 64.3792 126.622 62.4262C124.672 60.4733 121.979 59.2637 119 59.2637C116.027 59.2637 113.329 60.4734 111.379 62.4262C109.429 64.379 108.221 67.0752 108.221 70.0587C108.226 73.0369 109.434 75.7383 111.379 77.6913ZM52.0012 122.797V132.409C52.0012 133.288 51.2916 133.999 50.4141 133.999H11.5871C10.7096 133.999 10 133.288 10 132.409V104.863C10 99.5249 12.3834 94.6808 16.2238 91.1709C20.0264 87.7045 25.2535 85.5455 31.0003 85.5455C36.715 85.5455 41.0484 86.8582 44.2388 89.4892C47.4401 92.1309 49.401 96.0313 50.376 101.206L51.4973 107.152H65.4237C67.7095 107.152 69.7949 108.014 71.3171 109.398C72.8771 110.819 73.8413 112.794 73.8413 114.974H73.8359C73.8359 117.155 72.8717 119.13 71.3117 120.551C69.7949 121.934 67.7095 122.791 65.4237 122.791C60.0503 122.791 57.1361 122.786 54.0432 122.786L52.0012 122.797ZM48.8324 130.825V122.797H43.9465C43.849 122.797 43.7515 122.786 43.654 122.77C42.1969 122.493 40.8428 121.875 39.7323 120.98C38.6382 120.095 37.7768 118.94 37.284 117.573L32.2031 103.48C31.9106 102.661 32.3385 101.755 33.1564 101.457C33.9743 101.164 34.879 101.592 35.1768 102.412L40.2578 116.504C40.5448 117.296 41.054 117.974 41.7149 118.506C42.392 119.048 43.2153 119.434 44.1145 119.623C48.6429 119.623 51.4108 119.629 54.0489 119.629C57.1419 119.634 60.056 119.634 65.4293 119.634V119.64C66.8973 119.64 68.2244 119.092 69.1885 118.219C70.1094 117.378 70.6835 116.233 70.6835 114.985H70.6781C70.6781 113.732 70.1093 112.588 69.1939 111.752C68.2351 110.879 66.9081 110.337 65.4348 110.337L50.1923 110.331V110.326C49.4448 110.326 48.7786 109.794 48.6377 109.035L47.2673 101.793C46.4277 97.3608 44.819 94.0734 42.2298 91.9361C39.6297 89.7878 35.9573 88.7192 30.9954 88.7192C26.0608 88.7192 21.5865 90.5527 18.3474 93.5092C15.1515 96.4277 13.1635 100.447 13.1635 104.852V130.814L48.8324 130.825ZM31.001 80.8481C33.9748 80.8481 36.6723 79.6384 38.6224 77.6856C40.5724 75.7328 41.7802 73.0366 41.7802 70.0531C41.7802 67.0749 40.5723 64.3735 38.6224 62.4205C36.6724 60.4676 33.9802 59.258 31.001 59.258C28.0273 59.258 25.3298 60.4677 23.3797 62.4205C21.4296 64.3733 20.2218 67.0695 20.2218 70.0531C20.2218 73.0312 21.4297 75.7326 23.3797 77.6856C25.3296 79.644 28.0273 80.8481 31.001 80.8481ZM40.8649 79.9368C38.3407 82.4647 34.8524 84.027 31.001 84.027C27.1498 84.027 23.6667 82.4647 21.1371 79.9368C18.613 77.4089 17.0529 73.9154 17.0529 70.0584C17.0529 66.2015 18.613 62.7133 21.1371 60.18C23.6613 57.6521 27.1496 56.0898 31.001 56.0898C34.8522 56.0898 38.3353 57.6521 40.8649 60.18C43.3891 62.7079 44.9491 66.2014 44.9491 70.0584C44.9491 73.9153 43.3837 77.4089 40.8649 79.9368ZM69.6982 53.3997H96.2614C99.4085 53.3997 102.269 52.1141 104.338 50.0364C106.407 47.9641 107.696 45.0999 107.696 41.9482V28.4515C107.696 25.2998 106.412 22.4356 104.338 20.3633C102.269 18.2911 99.4085 17 96.2614 17H57.4663C54.3192 17 51.4591 18.2856 49.3899 20.3633C47.3153 22.4356 46.0315 25.2998 46.0315 28.4515V41.9482C46.0315 44.2049 46.6924 46.3205 47.8353 48.0998C48.7237 49.4885 49.9045 50.6766 51.2912 51.5716L47.4074 59.9528C47.207 60.3868 47.1528 60.8533 47.2395 61.309C47.3207 61.7592 47.5374 62.1824 47.8841 62.5187C48.2253 62.855 48.6478 63.0612 49.1028 63.1317C49.5579 63.2022 50.0237 63.1371 50.4516 62.9255L69.6982 53.3997ZM51.3732 58.933L68.5278 50.4433C68.7607 50.3023 69.037 50.2263 69.3295 50.2263H96.2561C98.5257 50.2263 100.595 49.2933 102.09 47.796C103.59 46.2934 104.517 44.2266 104.517 41.9537V28.457C104.517 26.1841 103.585 24.1118 102.09 22.6147C100.589 21.1121 98.5257 20.179 96.2561 20.179L57.4664 20.1736C55.1968 20.1736 53.1276 21.1066 51.6327 22.6092C50.1323 24.1118 49.2005 26.1787 49.2005 28.4516V41.9483C49.2005 43.5811 49.6772 45.1054 50.4951 46.3911C51.3456 47.7255 52.5698 48.7997 54.0107 49.4668C54.8015 49.8303 55.1482 50.7742 54.7852 51.5661L51.3732 58.933Z" fill="#663366"/>
</svg>
