<svg width="150" height="150" viewBox="0 0 150 150" fill="none" xmlns="http://www.w3.org/2000/svg">
<path fill-rule="evenodd" clip-rule="evenodd" d="M79.6573 59.8815C75.106 61.8402 68.9827 60.5724 64.9321 58.6835C63.8736 58.1827 62.6058 58.6454 62.1176 59.704C61.6232 60.7753 62.086 62.0304 63.1445 62.5312C65.7688 63.7482 69.0776 64.7498 72.488 65.0351V68.6102C72.488 69.7702 73.4325 70.74 74.6052 70.74C75.7779 70.74 76.7287 69.7765 76.7287 68.6102V64.9843C82.4845 64.3377 86.9786 61.0668 87.2892 56.1922C87.2956 56.1035 87.2956 55.9957 87.2892 55.907C86.9406 50.0625 80.6525 46.9502 74.6876 46.9502C72.9127 46.9502 71.2393 46.627 69.7306 45.9677C66.5422 44.4464 66.3394 42.8047 66.3139 42.1453C66.352 38.8237 71.4548 37.2518 74.6622 37.2834C78.3007 37.3912 81.4194 38.1075 84.1895 39.4449C85.2417 39.9647 86.5158 39.5337 87.023 38.4814C87.5364 37.4292 87.099 36.155 86.0404 35.6416C83.2323 34.2851 80.1643 33.461 76.716 33.1569V29.6008C76.716 28.4217 75.7651 27.4709 74.5924 27.4709C73.4197 27.4709 72.4752 28.4154 72.4752 29.6008V33.1948C70.8715 33.3913 69.3691 33.7843 68.0063 34.3929C63.3156 36.396 62.181 39.6478 62.0668 42.0248C62.0604 42.0755 62.0604 42.1326 62.0668 42.1833C62.1365 44.4335 63.2141 47.5966 67.9429 49.8342C67.9682 49.8532 67.9873 49.8532 68.0126 49.8722C70.0664 50.747 72.2976 51.1971 74.6875 51.2097C76.4306 51.1907 78.047 51.514 79.6445 52.1923C82.44 53.4791 82.9471 54.9815 83.0422 56.0336C82.9471 57.1112 82.4273 58.6455 79.6573 59.8815ZM110.343 82.6698C106.293 82.6698 102.591 84.7045 100.448 88.1402C100.417 88.1909 100.385 88.248 100.353 88.2987C97.7227 93.4839 98.5975 98.7198 99.3645 103.328C100.208 108.368 100.937 112.71 97.7101 116.805C97.0635 117.629 97.1079 118.789 97.8242 119.556C98.5405 120.323 99.7069 120.449 100.575 119.86C105.703 116.354 110.692 116.354 115.826 119.86C116.796 120.519 118.108 120.291 118.774 119.308C119.433 118.345 119.186 117.02 118.223 116.361C113.468 113.109 108.664 112.177 103.884 113.591C104.48 111.036 104.379 108.463 104.068 105.997H112.632C113.804 105.997 114.755 105.052 114.755 103.886C114.755 102.707 113.804 101.756 112.632 101.756H103.409C102.756 97.7498 102.28 93.9656 104.1 90.3144C105.475 88.1719 107.801 86.8977 110.35 86.8977C112.923 86.8977 115.275 88.2035 116.644 90.384C117.265 91.3856 118.578 91.6898 119.573 91.0623C120.562 90.4347 120.866 89.1289 120.245 88.1337C118.09 84.7107 114.388 82.6698 110.343 82.6698ZM140.757 101.205C140.757 118.756 126.469 133.058 108.911 133.058C92.0048 133.058 78.1351 119.816 77.1209 103.157C77.159 102.51 77.1716 101.851 77.1716 101.211C77.1716 100.583 77.1526 99.9622 77.1209 99.3347C77.4315 94.0418 79.0353 88.9517 81.818 84.4637C91.0473 82.5875 99.0029 77.174 104.22 69.7004C123.446 66.8796 140.757 81.7192 140.757 101.205ZM72.8742 103.157C71.8663 119.816 57.9968 133.058 41.0846 133.058C23.5264 133.058 9.23813 118.757 9.23813 101.205C9.23813 82.0874 25.9784 67.3041 44.9191 69.5873C50.2945 77.346 58.63 82.9052 68.2786 84.6167C70.998 89.0666 72.5636 94.1061 72.8742 99.3292C72.8425 99.9568 72.8235 100.578 72.8235 101.205C72.8235 101.852 72.8362 102.511 72.8742 103.157ZM74.611 85.1738C74.2117 85.1738 73.8123 85.1738 73.4193 85.1548C74.0152 86.3529 74.5413 87.5826 75.004 88.8376C75.4668 87.5889 75.9992 86.3337 76.6014 85.1167C75.9358 85.1547 75.2767 85.1738 74.611 85.1738ZM42.7581 49.0872C42.7581 31.5355 57.0459 17.2537 74.611 17.2537C92.1692 17.2537 106.457 31.5352 106.457 49.0872C106.457 66.6583 92.1696 80.9401 74.611 80.9401C57.0464 80.9401 42.7581 66.6586 42.7581 49.0872ZM144.998 101.205C144.998 121.097 128.808 137.292 108.911 137.292C93.3492 137.292 80.057 127.39 74.9989 113.552C69.9468 127.384 56.6537 137.292 41.0867 137.292C21.1885 137.292 5 121.096 5 101.205C5 90.6951 9.56398 80.7372 17.5128 73.8779C24.4222 67.9256 33.2712 64.8324 42.2922 65.1366C39.8834 60.2937 38.5206 54.8614 38.5206 49.0867C38.5206 29.195 54.7101 13 74.6138 13C94.5119 13 110.7 29.1958 110.7 49.0867C110.7 54.8614 109.338 60.3318 106.91 65.1748C116.038 64.674 125.039 67.6215 132.126 73.5928C140.309 80.4515 145 90.518 145 101.205L144.998 101.205ZM54.9417 87.139C54.2951 86.1565 52.983 85.8902 52.0005 86.5495L41.0849 93.7694L30.1693 86.5495C29.1931 85.8902 27.8746 86.1565 27.2281 87.139C26.5816 88.1215 26.8477 89.4274 27.8239 90.0865L38.9613 97.4524V102.188H32.7746C31.6019 102.188 30.6511 103.132 30.6511 104.298C30.6511 105.477 31.6019 106.428 32.7746 106.428H38.9613V110.84H32.7746C31.6019 110.84 30.6511 111.785 30.6511 112.97C30.6511 114.13 31.6019 115.081 32.7746 115.081H38.9613V119.765C38.9613 120.925 39.9122 121.876 41.0785 121.876C42.2512 121.876 43.2021 120.932 43.2021 119.765V115.081H49.3888C50.5615 115.081 51.506 114.136 51.506 112.97C51.506 111.791 50.5552 110.84 49.3888 110.84H43.2021V106.428H49.3888C50.5615 106.428 51.506 105.484 51.506 104.298C51.506 103.138 50.5552 102.188 49.3888 102.188H43.2021V97.4524L54.3395 90.0865C55.3157 89.4273 55.5883 88.1216 54.9417 87.139Z" fill="#663366"/>
</svg>
