<svg width="150" height="150" viewBox="0 0 150 150" fill="none" xmlns="http://www.w3.org/2000/svg">
<mask id="mask0_629_2316" style="mask-type:luminance" maskUnits="userSpaceOnUse" x="5" y="5" width="140" height="140">
<path d="M5 5H145V145H5V5Z" fill="white"/>
</mask>
<g mask="url(#mask0_629_2316)">
<path d="M124.219 21.9531H136.797C139.805 21.9531 142.266 24.4141 142.266 27.4219V136.797C142.266 139.805 139.805 142.266 136.797 142.266H13.2031C10.1953 142.266 7.73438 139.805 7.73438 136.797V27.4219C7.73438 24.4141 10.1953 21.9531 13.2031 21.9531H25.7813M96.875 21.9531H107.813M69.5313 21.9531H80.4688M42.1875 21.9531H53.125" stroke="#663366" stroke-width="5.46875" stroke-miterlimit="2.613" stroke-linecap="round" stroke-linejoin="round"/>
<path d="M33.9844 7.73438C36.9922 7.73438 39.4531 10.1953 39.4531 13.2031V29.6094C39.4531 32.6172 36.9922 35.0781 33.9844 35.0781C30.9766 35.0781 28.5156 32.6172 28.5156 29.6094V13.2031C28.5156 10.1953 30.9766 7.73438 33.9844 7.73438Z" stroke="#663366" stroke-width="5.46875" stroke-miterlimit="2.613" stroke-linecap="round" stroke-linejoin="round"/>
<path d="M61.3281 7.73438C64.3359 7.73438 66.7969 10.1953 66.7969 13.2031V29.6094C66.7969 32.6172 64.3359 35.0781 61.3281 35.0781C58.3203 35.0781 55.8594 32.6172 55.8594 29.6094V13.2031C55.8594 10.1953 58.3203 7.73438 61.3281 7.73438Z" stroke="#663366" stroke-width="5.46875" stroke-miterlimit="2.613" stroke-linecap="round" stroke-linejoin="round"/>
<path d="M88.6719 7.73438C91.6797 7.73438 94.1406 10.1953 94.1406 13.2031V29.6094C94.1406 32.6172 91.6797 35.0781 88.6719 35.0781C85.6641 35.0781 83.2031 32.6172 83.2031 29.6094V13.2031C83.2031 10.1953 85.6641 7.73438 88.6719 7.73438Z" stroke="#663366" stroke-width="5.46875" stroke-miterlimit="2.613" stroke-linecap="round" stroke-linejoin="round"/>
<path d="M116.016 7.73438C119.023 7.73438 121.484 10.1953 121.484 13.2031V29.6094C121.484 32.6172 119.023 35.0781 116.016 35.0781C113.008 35.0781 110.547 32.6172 110.547 29.6094V13.2031C110.547 10.1953 113.008 7.73438 116.016 7.73438Z" stroke="#663366" stroke-width="5.46875" stroke-miterlimit="2.613" stroke-linecap="round" stroke-linejoin="round"/>
<path d="M87.3039 46.0156H139.531M10.4688 46.0156H62.6945" stroke="#663366" stroke-width="5.46875" stroke-miterlimit="2.613" stroke-linecap="round" stroke-linejoin="round"/>
<path d="M64.4155 77.7145C61.8914 77.7145 59.8453 75.6682 59.8453 73.1444C59.8453 70.6203 61.8914 68.5742 64.4155 68.5742H81.7572C84.2813 68.5742 86.3273 70.6203 86.3273 73.1444C86.3273 74.2677 85.9217 75.2962 85.2494 76.0919L79.9268 83.6955C86.998 85.8681 91.7523 91.8772 92.4024 99.2461C94.0001 117.355 71.1514 126.849 58.807 113.754C57.0815 111.92 57.1697 109.035 59.0033 107.309C60.8373 105.584 63.7226 105.672 65.4481 107.506C71.8507 114.298 84.1396 109.572 83.2978 100.032C82.7685 94.0311 77.7989 91.4979 72.1395 91.9972C71.0746 92.0895 70.0144 91.7865 69.1403 91.1759C67.0799 89.7363 66.5762 86.8989 68.0158 84.8383L73.0026 77.7145H64.4155Z" stroke="#663366" stroke-width="5.12695" stroke-miterlimit="22.926" stroke-linecap="round" stroke-linejoin="round"/>
<path d="M74.998 46.0156H75" stroke="#663366" stroke-width="5.46875" stroke-miterlimit="2.613" stroke-linecap="round" stroke-linejoin="round"/>
</g>
</svg>
