<svg width="150" height="150" viewBox="0 0 150 150" fill="none" xmlns="http://www.w3.org/2000/svg">
<mask id="mask0_629_2320" style="mask-type:luminance" maskUnits="userSpaceOnUse" x="5" y="5" width="140" height="140">
<path d="M5 5H145V145H5V5Z" fill="white"/>
</mask>
<g mask="url(#mask0_629_2320)">
<path d="M124.219 21.9531H136.797C139.805 21.9531 142.266 24.4141 142.266 27.4219V136.797C142.266 139.805 139.805 142.266 136.797 142.266H13.2031C10.1953 142.266 7.73438 139.805 7.73438 136.797V27.4219C7.73438 24.4141 10.1953 21.9531 13.2031 21.9531H25.7813M96.875 21.9531H107.813M69.5313 21.9531H80.4688M42.1875 21.9531H53.125" stroke="#663366" stroke-width="5.46875" stroke-miterlimit="2.613" stroke-linecap="round" stroke-linejoin="round"/>
<path d="M33.9844 7.73438C36.9922 7.73438 39.4531 10.1953 39.4531 13.2031V29.6094C39.4531 32.6172 36.9922 35.0781 33.9844 35.0781C30.9766 35.0781 28.5156 32.6172 28.5156 29.6094V13.2031C28.5156 10.1953 30.9766 7.73438 33.9844 7.73438Z" stroke="#663366" stroke-width="5.46875" stroke-miterlimit="2.613" stroke-linecap="round" stroke-linejoin="round"/>
<path d="M61.3281 7.73438C64.3359 7.73438 66.7969 10.1953 66.7969 13.2031V29.6094C66.7969 32.6172 64.3359 35.0781 61.3281 35.0781C58.3203 35.0781 55.8594 32.6172 55.8594 29.6094V13.2031C55.8594 10.1953 58.3203 7.73438 61.3281 7.73438Z" stroke="#663366" stroke-width="5.46875" stroke-miterlimit="2.613" stroke-linecap="round" stroke-linejoin="round"/>
<path d="M88.6719 7.73438C91.6797 7.73438 94.1406 10.1953 94.1406 13.2031V29.6094C94.1406 32.6172 91.6797 35.0781 88.6719 35.0781C85.6641 35.0781 83.2031 32.6172 83.2031 29.6094V13.2031C83.2031 10.1953 85.6641 7.73438 88.6719 7.73438Z" stroke="#663366" stroke-width="5.46875" stroke-miterlimit="2.613" stroke-linecap="round" stroke-linejoin="round"/>
<path d="M116.016 7.73438C119.023 7.73438 121.484 10.1953 121.484 13.2031V29.6094C121.484 32.6172 119.023 35.0781 116.016 35.0781C113.008 35.0781 110.547 32.6172 110.547 29.6094V13.2031C110.547 10.1953 113.008 7.73438 116.016 7.73438Z" stroke="#663366" stroke-width="5.46875" stroke-miterlimit="2.613" stroke-linecap="round" stroke-linejoin="round"/>
<path d="M87.3039 46.0156H139.531M10.4688 46.0156H62.6945" stroke="#663366" stroke-width="5.46875" stroke-miterlimit="2.613" stroke-linecap="round" stroke-linejoin="round"/>
<path d="M63.0308 101.364L76.2028 83.4848V101.364H63.0308ZM76.2028 124H86.613V111.616H93.27V101.364H86.613V66.1796H75.3856L49 101.272L51.9832 111.616H76.2028V124Z" stroke="#663366" stroke-width="5.12695" stroke-miterlimit="22.926" stroke-linecap="round" stroke-linejoin="round"/>
<path d="M74.998 46.0156H75" stroke="#663366" stroke-width="5.46875" stroke-miterlimit="2.613" stroke-linecap="round" stroke-linejoin="round"/>
</g>
</svg>
