<svg width="150" height="150" viewBox="0 0 150 150" fill="none" xmlns="http://www.w3.org/2000/svg">
<mask id="mask0_629_2309" style="mask-type:luminance" maskUnits="userSpaceOnUse" x="5" y="5" width="140" height="140">
<path d="M5 5H145V145H5V5Z" fill="white"/>
</mask>
<g mask="url(#mask0_629_2309)">
<path d="M124.219 21.9531H136.797C139.805 21.9531 142.266 24.4141 142.266 27.4219V136.797C142.266 139.805 139.805 142.266 136.797 142.266H13.2031C10.1953 142.266 7.73438 139.805 7.73438 136.797V27.4219C7.73438 24.4141 10.1953 21.9531 13.2031 21.9531H25.7813M96.875 21.9531H107.813M69.5313 21.9531H80.4688M42.1875 21.9531H53.125" stroke="#663366" stroke-width="5.46875" stroke-miterlimit="2.613" stroke-linecap="round" stroke-linejoin="round"/>
<path d="M33.9844 7.73438C36.9922 7.73438 39.4531 10.1953 39.4531 13.2031V29.6094C39.4531 32.6172 36.9922 35.0781 33.9844 35.0781C30.9766 35.0781 28.5156 32.6172 28.5156 29.6094V13.2031C28.5156 10.1953 30.9766 7.73438 33.9844 7.73438Z" stroke="#663366" stroke-width="5.46875" stroke-miterlimit="2.613" stroke-linecap="round" stroke-linejoin="round"/>
<path d="M61.3281 7.73438C64.3359 7.73438 66.7969 10.1953 66.7969 13.2031V29.6094C66.7969 32.6172 64.3359 35.0781 61.3281 35.0781C58.3203 35.0781 55.8594 32.6172 55.8594 29.6094V13.2031C55.8594 10.1953 58.3203 7.73438 61.3281 7.73438Z" stroke="#663366" stroke-width="5.46875" stroke-miterlimit="2.613" stroke-linecap="round" stroke-linejoin="round"/>
<path d="M88.6719 7.73438C91.6797 7.73438 94.1406 10.1953 94.1406 13.2031V29.6094C94.1406 32.6172 91.6797 35.0781 88.6719 35.0781C85.6641 35.0781 83.2031 32.6172 83.2031 29.6094V13.2031C83.2031 10.1953 85.6641 7.73438 88.6719 7.73438Z" stroke="#663366" stroke-width="5.46875" stroke-miterlimit="2.613" stroke-linecap="round" stroke-linejoin="round"/>
<path d="M116.016 7.73438C119.023 7.73438 121.484 10.1953 121.484 13.2031V29.6094C121.484 32.6172 119.023 35.0781 116.016 35.0781C113.008 35.0781 110.547 32.6172 110.547 29.6094V13.2031C110.547 10.1953 113.008 7.73438 116.016 7.73438Z" stroke="#663366" stroke-width="5.46875" stroke-miterlimit="2.613" stroke-linecap="round" stroke-linejoin="round"/>
<path d="M87.3039 46.0156H139.531M10.4688 46.0156H62.6945" stroke="#663366" stroke-width="5.46875" stroke-miterlimit="2.613" stroke-linecap="round" stroke-linejoin="round"/>
<path d="M64.1357 115.737C67.0252 118.292 70.8202 119.844 74.971 119.844C84.0016 119.844 91.3484 112.497 91.3484 103.467C91.3484 94.4361 84.0016 87.0891 74.971 87.0891C73.0783 87.0891 71.2611 87.4156 69.5684 88.0091C70.6688 85.822 71.9701 83.7083 73.4718 81.6761C76.8771 77.0669 80.0862 74.6278 80.1184 74.6035C81.5955 73.4983 81.9006 71.4056 80.7991 69.9243C79.6957 68.4408 77.5983 68.1324 76.1142 69.2362C75.5057 69.6887 61.2417 80.5155 58.789 100.941C58.661 101.764 58.5938 102.608 58.5938 103.467C58.5938 106.175 59.2547 108.732 60.4236 110.985M74.971 113.147C69.633 113.147 65.29 108.805 65.29 103.466C65.29 98.1883 69.579 93.7854 74.971 93.7854C80.309 93.7854 84.6519 98.1282 84.6519 103.466C84.6519 108.805 80.309 113.147 74.971 113.147Z" stroke="#663366" stroke-width="4.30664" stroke-miterlimit="10" stroke-linecap="round" stroke-linejoin="round"/>
<path d="M74.998 46.0156H75" stroke="#663366" stroke-width="5.46875" stroke-miterlimit="2.613" stroke-linecap="round" stroke-linejoin="round"/>
</g>
</svg>
