<svg width="150" height="150" viewBox="0 0 150 150" fill="none" xmlns="http://www.w3.org/2000/svg">
<path d="M74.6829 132.301C60.7266 132.301 49.4134 120.982 49.4134 107.026C49.4134 103.598 49.8192 102.82 51.7769 102.82C52.9395 102.82 54.1514 103.181 55.4621 103.181C62.602 103.181 68.563 99.8637 72.6759 94.3854C60.9733 91.8025 59.6572 81.4271 67.0769 73.5852C69.4349 71.0955 71.9684 68.4194 71.9465 62.4639C71.9465 61.7291 72.6923 61.0217 73.312 61.093C76.4049 61.093 81.1703 64.2791 84.7677 68.9458C89.1384 74.6271 92.9387 84.9641 86.7145 90.8867C84.5319 92.9596 81.5158 94.1441 78.0171 94.5335C79.92 96.9025 82.3713 98.8931 85.1516 100.363C88.8477 102.315 93.01 103.313 97.2599 103.171C99.7167 103.088 99.9799 103.982 99.958 106.23C99.958 120.637 89.3193 132.301 74.6829 132.301ZM95.6915 115.191C91.0961 115.339 85.8371 114.626 81.6858 112.575C78.7958 111.139 76.5475 109.186 74.5897 106.817C72.632 109.186 70.3836 111.139 67.4936 112.575C63.3643 114.615 58.2479 115.306 53.6853 115.197C56.9537 123.603 65.1246 129.559 74.6829 129.559C84.1206 129.559 92.3738 123.724 95.6915 115.191ZM52.8079 112.416C57.0579 112.701 62.4485 112.016 66.2817 110.119C69.2759 108.638 71.5023 106.477 73.471 103.801C74.0084 103.055 75.1326 103.017 75.692 103.779C77.6662 106.461 79.8926 108.632 82.8977 110.119C86.7529 112.027 92.2861 112.734 96.569 112.405C97.1119 110.947 97.5012 105.534 97.2051 105.88C88.7984 106.165 80.2929 102.282 75.2807 95.4657C70.6359 101.975 63.6769 105.923 55.4621 105.923C54.294 105.923 53.104 105.594 52.1608 105.594C51.9908 107.662 52.3143 110.42 52.8079 112.416ZM68.903 89.7625C68.8152 89.439 68.7439 89.0167 68.7385 88.6712C68.6507 85.8635 69.8901 84.5529 71.2172 83.1545C72.281 82.0303 73.4217 80.8184 73.4162 78.1697C73.4162 77.4348 74.0468 76.6506 74.7817 76.7987C79.5526 76.7987 84.7568 85.2274 83.4352 89.9819C83.9397 89.6638 84.4058 89.3073 84.8281 88.9015C89.9664 84.0209 85.9742 74.9945 82.6071 70.6184C80.0297 67.2733 76.9368 64.811 74.6281 64.0652C74.2388 69.9878 71.5626 72.8119 69.0565 75.4606C66.9672 77.6706 65.0204 79.7326 65.1575 83.7851C65.2562 86.1706 66.8904 88.3257 68.903 89.7625ZM75.6262 91.9396C84.4387 91.819 80.6823 82.7706 76.0155 79.9793C75.2368 84.8161 71.3433 85.1396 71.4749 88.5945C71.5572 90.4699 73.9152 91.8793 75.6262 91.9396ZM127.635 54.814H21.7419V119.298C21.7419 129.175 29.8306 137.258 39.7015 137.258H109.675C119.552 137.258 127.635 129.175 127.635 119.298V54.814ZM21.7419 52.0721H127.635V42.245C127.635 33.5696 121.367 26.1993 113.042 24.6035V30.707C113.042 33.926 110.416 36.5528 107.197 36.5528H105.343C102.124 36.5528 99.4973 33.926 99.4973 30.707V24.2854H49.885V30.707C49.885 33.926 47.2582 36.5528 44.0392 36.5528H42.1802C38.9667 36.5528 36.3344 33.926 36.3344 30.707V24.6035C28.0209 26.1883 21.7419 33.5696 21.7419 42.245V52.0721ZM42.1802 10H44.0392C47.2582 10 49.885 12.6268 49.885 15.8458V21.5435H99.4973V15.8458C99.4973 12.6268 102.124 10 105.343 10H107.197C110.416 10 113.042 12.6268 113.042 15.8458V21.8232C122.897 23.4464 130.377 32.067 130.377 42.245V119.298C130.377 130.688 121.065 140 109.675 140H39.7015C28.317 140 19 130.688 19 119.298V42.245C19 32.067 26.4854 23.4464 36.3344 21.8232V15.8458C36.3344 12.6268 38.9667 10 42.1802 10ZM44.0392 12.7419H42.1802C40.4802 12.7419 39.0764 14.1403 39.0764 15.8458V30.707C39.0764 32.4125 40.4802 33.8109 42.1802 33.8109H44.0392C45.7447 33.8109 47.1431 32.4125 47.1431 30.707V15.8458C47.1431 14.1403 45.7447 12.7419 44.0392 12.7419ZM107.197 12.7419H105.343C103.638 12.7419 102.239 14.1403 102.239 15.8458V30.707C102.239 32.4125 103.638 33.8109 105.343 33.8109H107.197C108.902 33.8109 110.301 32.4125 110.301 30.707V15.8458C110.301 14.1403 108.902 12.7419 107.197 12.7419Z" fill="#663366"/>
</svg>
