<svg width="150" height="150" viewBox="0 0 150 150" fill="none" xmlns="http://www.w3.org/2000/svg">
<path d="M106.396 19.0156V15.5364" stroke="#663366" stroke-width="4.10156" stroke-miterlimit="10" stroke-linecap="round" stroke-linejoin="round"/>
<path d="M96.1691 23.2539L93.709 20.7938" stroke="#663366" stroke-width="4.10156" stroke-miterlimit="10" stroke-linecap="round" stroke-linejoin="round"/>
<path d="M91.9323 33.4805H88.4531" stroke="#663366" stroke-width="4.10156" stroke-miterlimit="10" stroke-linecap="round" stroke-linejoin="round"/>
<path d="M124.339 33.4805H120.859" stroke="#663366" stroke-width="4.10156" stroke-miterlimit="10" stroke-linecap="round" stroke-linejoin="round"/>
<path d="M119.083 20.7938L116.623 23.2539" stroke="#663366" stroke-width="4.10156" stroke-miterlimit="10" stroke-linecap="round" stroke-linejoin="round"/>
<mask id="mask0_629_2370" style="mask-type:luminance" maskUnits="userSpaceOnUse" x="5" y="5" width="140" height="140">
<path d="M5 5H145V145H5V5Z" fill="white"/>
</mask>
<g mask="url(#mask0_629_2370)">
<path d="M106.973 40.8648C107.476 41.4382 108.341 41.533 108.973 41.1059C110.203 40.2747 111.607 39.9113 112.984 39.9564C114.623 38.2893 115.634 36.0041 115.634 33.4819C115.634 28.3791 111.498 24.2428 106.395 24.2428C101.293 24.2428 97.1562 28.3791 97.1562 33.4819C97.1562 35.1625 97.6071 36.7367 98.3911 38.0943C101.388 37.4441 104.704 38.2756 106.973 40.8648Z" stroke="#663366" stroke-width="4.10156" stroke-miterlimit="10" stroke-linecap="round" stroke-linejoin="round"/>
<path d="M62.9536 22.7754C62.3048 22.9184 61.6305 22.9941 60.9384 22.9941C57.9224 22.9941 55.2411 21.5635 53.534 19.3446C52.6368 18.1781 51.0312 17.7931 49.7573 18.53C48.9832 18.9776 48.2569 19.499 47.5884 20.0847C47.0185 20.5838 46.6953 21.3078 46.6953 22.0653V29.879C46.6953 35.2701 51.0082 39.921 56.7116 39.8707C62.1484 39.825 66.4938 35.316 66.4938 29.879C66.4938 28.1216 66.496 26.7454 66.4977 25.6631C66.5004 23.7937 64.7794 22.3726 62.9536 22.7754Z" stroke="#663366" stroke-width="4.10156" stroke-miterlimit="10" stroke-linecap="round" stroke-linejoin="round"/>
<path d="M46.6953 22.0667C46.6953 21.3093 47.0185 20.5855 47.5884 20.0862C48.2569 19.5005 48.9832 18.9791 49.7573 18.5314C51.0312 17.7945 52.6368 18.1795 53.534 19.346C55.2408 21.5652 57.9224 22.9956 60.9384 22.9956C61.6305 22.9956 62.3048 22.9201 62.9536 22.7768C64.7794 22.3741 66.5004 23.7951 66.4977 25.6646C66.4963 26.4975 66.4949 27.5065 66.4941 28.7266C68.4875 26.4283 69.6969 23.4312 69.6969 20.1499C69.6969 12.915 63.8316 7.0498 56.5965 7.0498C49.3613 7.0498 43.4961 12.915 43.4961 20.1499C43.4961 23.4295 44.7041 26.425 46.6953 28.723V22.0667Z" stroke="#663366" stroke-width="4.10156" stroke-miterlimit="10" stroke-linecap="round" stroke-linejoin="round"/>
<path d="M69.9071 110.469C69.9011 110.398 69.8929 110.326 69.8836 110.254L67.2692 89.6675C66.9135 87.0242 66.7322 84.3607 66.7237 81.6936H46.4702C46.462 84.3607 46.2807 87.0242 45.925 89.6675L43.3104 110.254C43.3011 110.326 43.2931 110.398 43.2868 110.469L43.2598 110.797H51.9488L54.287 92.2955C54.4272 91.2543 55.2169 90.3839 56.2573 90.2349C57.5625 90.0479 58.7273 90.9595 58.8971 92.222L61.2451 110.797H69.9344L69.9071 110.469Z" stroke="#663366" stroke-width="4.10156" stroke-miterlimit="10" stroke-linecap="round" stroke-linejoin="round"/>
<path d="M102.591 116.755C92.4178 112.601 81.7458 106.292 68.8909 102.45L69.8824 110.255C69.8917 110.327 69.8996 110.399 69.9059 110.47L69.933 110.798H61.244L59.9162 100.294C57.8009 99.9126 55.6265 99.6124 53.387 99.4092L51.9477 110.798H43.2586L43.2857 110.47C43.292 110.399 43.2999 110.327 43.3092 110.255L44.7215 99.1352C34.7845 99.3977 23.6187 101.65 10.8041 107.038C9.48336 107.594 8.62695 108.893 8.62695 110.326V140.73C8.62695 141.956 9.62062 142.949 10.8467 142.949H139.152C140.377 142.949 141.371 141.956 141.371 140.73V111.873C141.371 111.873 126.309 126.439 102.591 116.755Z" stroke="#663366" stroke-width="4.10156" stroke-miterlimit="10" stroke-linecap="round" stroke-linejoin="round"/>
<path d="M139.221 101.295H68.7461L68.8924 102.449C81.7467 106.291 92.4195 112.598 102.592 116.752C126.31 126.435 141.372 111.87 141.372 111.87V103.446C141.372 102.258 140.409 101.295 139.221 101.295Z" stroke="#663366" stroke-width="4.10156" stroke-miterlimit="10" stroke-linecap="round" stroke-linejoin="round"/>
<path d="M103.945 109.184H120.225" stroke="#663366" stroke-width="4.10156" stroke-miterlimit="10" stroke-linecap="round" stroke-linejoin="round"/>
<path d="M127.516 109.184H131.505" stroke="#663366" stroke-width="4.10156" stroke-miterlimit="10" stroke-linecap="round" stroke-linejoin="round"/>
<path d="M111.181 58.0078H121.276C124.863 58.0078 127.894 55.1572 127.905 51.5705C127.919 47.6104 124.445 44.693 120.712 45.1281C120.025 45.2082 119.391 44.7893 119.126 44.1497C117.484 40.1852 112.51 38.7162 108.973 41.1064C108.342 41.5332 107.476 41.4386 106.974 40.8652C102.462 35.7153 93.8009 37.5131 91.7622 44.1139C91.5899 44.6725 91.0936 45.0739 90.5137 45.1475C87.1939 45.5686 84.7163 48.4897 84.8959 51.8962C85.0783 55.3574 88.07 58.0078 91.5358 58.0078H101.611" stroke="#663366" stroke-width="4.10156" stroke-miterlimit="10" stroke-linecap="round" stroke-linejoin="round"/>
<path d="M66.7224 64.7193V54.4189C66.7224 54.2305 66.8749 54.0777 67.0633 54.0777C67.193 54.0777 67.3111 54.1512 67.3688 54.2671L75.605 70.5681L80.2906 89.5078C80.7749 91.8407 83.0578 93.3436 85.3968 92.859C87.7322 92.3742 89.2326 90.088 88.748 87.7526L83.9492 68.2677C83.8743 67.9057 83.7529 67.5551 83.5888 67.2243L73.8197 47.8378C73.0902 46.3689 71.5917 45.4403 69.9519 45.4403H63.9235H63.8857C62.2457 45.4403 60.9159 44.1106 60.9159 42.4705V38.8789C59.6447 39.5032 58.2207 39.8606 56.7124 39.8734C55.1013 39.8876 53.6017 39.5264 52.2786 38.8797V42.4705C52.2786 44.1106 50.9486 45.4403 49.3085 45.4403H49.271H43.2426C41.6028 45.4403 40.1041 46.3689 39.3745 47.8378L29.606 67.224C29.4414 67.5551 29.3202 67.9059 29.245 68.268L24.4465 87.7526C23.9617 90.088 25.462 92.3742 27.7975 92.859C30.1378 93.3436 32.4199 91.8394 32.9036 89.5078L37.5893 70.5681L45.8255 54.2671C45.8832 54.1512 46.0016 54.0777 46.1309 54.0777C46.3196 54.0777 46.4719 54.2305 46.4719 54.4189V81.5015C46.4719 84.2329 46.2892 86.9615 45.925 89.6686L43.3107 110.255C43.3011 110.327 43.2932 110.398 43.2871 110.47L41.3742 133.28L35.3071 135.725C33.8289 136.32 32.861 137.754 32.861 139.348V140.782C32.861 141.97 33.8243 142.934 35.0126 142.934H44.9997C45.088 142.939 45.1769 142.949 45.2641 142.949C47.4858 142.949 49.3741 141.245 49.5628 138.991L51.8854 111.3L54.287 92.2966C54.4273 91.255 55.2172 90.385 56.2576 90.2359C57.5628 90.0489 58.7276 90.9605 58.8974 92.223L61.3089 111.3L63.6314 138.991C63.8204 141.245 65.7082 142.949 67.9301 142.949C68.051 142.949 68.1732 142.944 68.296 142.934H78.5474C79.7361 142.934 80.6994 141.97 80.6994 140.782V139.348C80.6994 137.754 79.7312 136.32 78.2532 135.725L71.8075 133.127L69.9071 110.47C69.9011 110.398 69.8934 110.327 69.8839 110.255L67.2692 89.6686C66.905 86.9615 66.7224 84.2329 66.7224 81.5015V74.2896" stroke="#663366" stroke-width="4.10156" stroke-miterlimit="10" stroke-linecap="round" stroke-linejoin="round"/>
</g>
</svg>
