<svg width="150" height="150" viewBox="0 0 150 150" fill="none" xmlns="http://www.w3.org/2000/svg">
<path d="M95.4551 54.5703H108.425" stroke="#663366" stroke-width="4.3" stroke-miterlimit="10" stroke-linejoin="round"/>
<path d="M95.4551 69.3633H108.425" stroke="#663366" stroke-width="4.3" stroke-miterlimit="10" stroke-linejoin="round"/>
<path d="M95.4551 84.1602H108.425" stroke="#663366" stroke-width="4.3" stroke-miterlimit="10" stroke-linejoin="round"/>
<path d="M95.4551 98.9531H108.425" stroke="#663366" stroke-width="4.3" stroke-miterlimit="10" stroke-linejoin="round"/>
<path d="M95.4551 113.75H108.425" stroke="#663366" stroke-width="4.3" stroke-miterlimit="10" stroke-linejoin="round"/>
<path d="M95.4551 128.543H108.425" stroke="#663366" stroke-width="4.3" stroke-miterlimit="10" stroke-linejoin="round"/>
<path d="M95.2624 44.6406L92.5195 144.903H111.362L108.62 44.6806" stroke="#663366" stroke-width="4.3" stroke-miterlimit="10" stroke-linejoin="round"/>
<path d="M121.216 37.5631H145C141.781 28.7926 133.356 22.5352 123.47 22.5352C120.694 22.5352 118.033 23.0289 115.57 23.9326" stroke="#663366" stroke-width="4.3" stroke-miterlimit="10" stroke-linejoin="round"/>
<path d="M101.942 37.5654L132.389 7.11746C123.912 3.19204 113.53 4.72432 106.539 11.7152C99.5487 18.7057 98.0161 29.0877 101.942 37.5654Z" stroke="#663366" stroke-width="4.3" stroke-miterlimit="10" stroke-linejoin="round"/>
<path d="M101.94 37.5631C98.7216 28.7926 90.2971 22.5352 80.4108 22.5352C70.5243 22.5352 62.0997 28.7926 58.8809 37.5631H82.6642" stroke="#663366" stroke-width="4.3" stroke-miterlimit="10" stroke-linejoin="round"/>
<path d="M101.941 37.5629L132.389 68.0108C136.315 59.5331 134.782 49.1514 127.792 42.1606C120.801 35.1698 110.419 33.6372 101.941 37.5629Z" stroke="#663366" stroke-width="4.3" stroke-miterlimit="10" stroke-linejoin="round"/>
<path d="M101.94 37.5629L71.4925 68.0106C67.567 59.5329 69.0993 49.1512 76.0902 42.1603C83.0807 35.1698 93.4627 33.6372 101.94 37.5629Z" stroke="#663366" stroke-width="4.3" stroke-miterlimit="10" stroke-linejoin="round"/>
<path d="M42.1127 94.1355C47.8185 94.1355 52.4441 89.5099 52.4441 83.8041C52.4441 78.0982 47.8185 73.4727 42.1127 73.4727C36.4068 73.4727 31.7812 78.0982 31.7812 83.8041C31.7812 89.5099 36.4068 94.1355 42.1127 94.1355Z" stroke="#663366" stroke-width="4.3" stroke-miterlimit="10" stroke-linejoin="round"/>
<path d="M42.1112 131.529L20.4844 128.832" stroke="#663366" stroke-width="4.3" stroke-miterlimit="10" stroke-linejoin="round"/>
<path d="M11.3871 135.004C11.2536 135.587 11.1816 136.194 11.1816 136.82C11.1816 141.283 14.7996 144.901 19.2625 144.901H35.7602" stroke="#663366" stroke-width="4.3" stroke-miterlimit="10" stroke-linejoin="round"/>
<path d="M63.7387 128.832L34.9842 132.417C31.8468 132.808 29.4922 135.475 29.4922 138.637C29.4922 142.098 32.2982 144.904 35.7596 144.904H64.9621C69.425 144.904 73.0429 141.286 73.0429 136.823C73.0429 136.197 72.9712 135.589 72.8375 135.007" stroke="#663366" stroke-width="4.3" stroke-miterlimit="10" stroke-linejoin="round"/>
<path d="M31.3515 108.303L26.7233 121.785C26.3927 122.749 25.8398 123.621 25.1093 124.331L16.0221 133.171C14.7601 134.399 13.1264 135.01 11.4947 135.01C9.80272 135.01 8.11244 134.353 6.8393 133.044C4.33816 130.473 4.39502 126.362 6.96616 123.861L14.9421 116.102L19.067 104.086C21.1101 98.135 26.7101 94.1367 33.0015 94.1367H42.1109" stroke="#663366" stroke-width="4.3" stroke-miterlimit="10" stroke-linecap="round" stroke-linejoin="round"/>
<path d="M52.8707 108.303L57.499 121.785C57.8296 122.749 58.3824 123.621 59.113 124.331L68.2001 133.171C69.4621 134.399 71.0958 135.01 72.7275 135.01C74.4195 135.01 76.1098 134.353 77.383 133.044C79.8841 130.473 79.8272 126.362 77.2561 123.861L69.2801 116.102L65.1553 104.086C63.1121 98.135 57.5122 94.1367 51.2207 94.1367H42.1113" stroke="#663366" stroke-width="4.3" stroke-miterlimit="10" stroke-linecap="round" stroke-linejoin="round"/>
<path d="M29.1992 114.574V129.918" stroke="#663366" stroke-width="4.3" stroke-miterlimit="10" stroke-linejoin="round"/>
<path d="M55.0234 114.574V129.918" stroke="#663366" stroke-width="4.3" stroke-miterlimit="10" stroke-linejoin="round"/>
<path d="M5 144.902H92.519" stroke="#663366" stroke-width="4.3" stroke-miterlimit="10" stroke-linecap="round" stroke-linejoin="round"/>
</svg>
