<svg width="150" height="150" viewBox="0 0 150 150" fill="none" xmlns="http://www.w3.org/2000/svg">
<path d="M75 10C39.1255 10 10 39.1255 10 75C10 110.874 39.1255 140 75 140C110.874 140 140 110.874 140 75C140 39.1255 110.874 10 75 10ZM75 14.3387C108.53 14.3387 135.661 41.4703 135.661 74.9999C135.661 108.529 108.53 135.667 75 135.667C41.4704 135.667 14.3333 108.529 14.3333 74.9999C14.3333 41.4703 41.4704 14.3387 75 14.3387ZM75 18.6667C74.9946 18.6667 74.9892 18.6721 74.9837 18.6721C64.7679 18.6775 55.1919 21.4184 46.9259 26.185H46.9205C46.8934 26.1959 46.8609 26.2067 46.8339 26.2175C46.8176 26.2338 46.8014 26.2446 46.7851 26.2609C38.2918 31.1901 31.2128 38.2697 26.2777 46.7572V46.7626C26.256 46.7843 26.2344 46.8059 26.2181 46.833C26.2073 46.8547 26.2019 46.8764 26.1964 46.9034C21.419 55.1802 18.6673 64.7734 18.6618 75.0056C18.6618 85.2431 21.4136 94.8364 26.1964 103.113C26.2019 103.13 26.2127 103.151 26.2181 103.168C26.2289 103.184 26.2452 103.195 26.256 103.211C31.196 111.72 38.2865 118.816 46.7953 123.75H46.8007C46.8116 123.761 46.8224 123.772 46.8332 123.783C46.8495 123.788 46.8657 123.794 46.8766 123.799C55.1587 128.587 64.7576 131.339 74.994 131.339C85.2369 131.339 94.8358 128.582 103.111 123.799H103.117C103.133 123.794 103.149 123.788 103.166 123.783C103.193 123.766 103.225 123.745 103.252 123.723C111.735 118.788 118.809 111.703 123.738 103.21C123.754 103.194 123.77 103.183 123.781 103.167C123.803 103.123 123.819 103.08 123.835 103.042C128.591 94.7818 131.332 85.2166 131.332 75.0052V74.9998C131.332 64.8002 128.602 55.2398 123.851 46.985C123.83 46.9362 123.808 46.882 123.781 46.8333C123.765 46.817 123.748 46.8008 123.732 46.7845C118.814 38.3128 111.75 31.2442 103.29 26.309C103.246 26.2765 103.209 26.244 103.165 26.2169C103.144 26.2115 103.122 26.2061 103.095 26.2007C94.8291 21.4232 85.2415 18.6715 75.0148 18.6715C75.0094 18.6715 75.004 18.6661 74.9986 18.6661L75 18.6667ZM72.8225 23.0433V25.1611V25.1557C72.8225 25.7353 73.05 26.2878 73.4617 26.6995C73.8679 27.1057 74.4204 27.3332 75.0001 27.3332C76.1971 27.3278 77.1613 26.3528 77.1559 25.1557V23.0379C85.0588 23.3575 92.4952 25.4429 99.1041 28.9042L98.0316 30.7512V30.7566C97.4357 31.7966 97.7932 33.1183 98.8278 33.7141C99.3262 34.0012 99.922 34.077 100.474 33.9308C101.032 33.7791 101.504 33.4162 101.791 32.9125L102.858 31.0762C109.32 35.182 114.807 40.6746 118.913 47.1422L117.082 48.2092C116.042 48.8051 115.684 50.1267 116.28 51.1667C116.881 52.1959 118.203 52.548 119.238 51.9521L121.079 50.8959C124.535 57.4988 126.621 64.9359 126.946 72.8274H124.839V72.822C124.259 72.822 123.706 73.0495 123.295 73.4612C122.889 73.8674 122.661 74.4199 122.661 74.9995C122.666 76.1966 123.641 77.1608 124.838 77.1554H126.946C126.626 85.0529 124.546 92.4905 121.09 99.098L119.243 98.0255L119.238 98.0309C118.203 97.4351 116.876 97.7926 116.28 98.8272C115.993 99.3255 115.917 99.9213 116.063 100.474C116.215 101.032 116.583 101.503 117.082 101.79L118.913 102.857C114.807 109.319 109.32 114.812 102.858 118.918L101.791 117.081C101.504 116.583 101.032 116.215 100.474 116.063C99.9219 115.917 99.3261 115.993 98.8278 116.28C97.7932 116.875 97.4357 118.203 98.0315 119.237L99.104 121.084C92.5011 124.54 85.064 126.62 77.1614 126.94V124.833L77.156 124.838C77.1614 123.641 76.1972 122.666 75.0001 122.661C74.4206 122.661 73.8681 122.888 73.4618 123.294C73.0501 123.706 72.8226 124.258 72.8226 124.838V126.945C64.9251 126.62 57.493 124.54 50.8911 121.084L51.9473 119.237H51.9528C52.5486 118.203 52.1965 116.881 51.1673 116.28C50.1273 115.684 48.8057 116.041 48.2099 117.081L47.1428 118.918C40.6806 114.812 35.1936 109.319 31.0879 102.852L32.9134 101.79C33.4171 101.503 33.78 101.032 33.9317 100.474C34.0779 99.9212 34.0021 99.3254 33.715 98.8271C33.4279 98.3341 32.9567 97.9712 32.4042 97.8196C31.8517 97.6679 31.2559 97.7437 30.7575 98.0308L28.9105 99.1033C25.4546 92.495 23.3746 85.0578 23.055 77.1552H25.1566C26.3537 77.1606 27.3287 76.1964 27.3341 74.9993C27.3341 74.4197 27.1066 73.8672 26.7004 73.4609C26.2887 73.0493 25.7362 72.8218 25.1566 72.8218H23.055C23.38 64.9243 25.46 57.4922 28.9158 50.8902L30.7575 51.9465V51.9519C31.7921 52.5477 33.1137 52.1957 33.715 51.1665C34.3108 50.1265 33.9533 48.8049 32.9133 48.209L31.0879 47.1473C35.1937 40.6798 40.6809 35.1927 47.1427 31.0814L48.2098 32.9122C48.8056 33.9522 50.1273 34.3097 51.1673 33.7139C52.1965 33.1126 52.5485 31.791 51.9527 30.7564L50.8965 28.9094C57.4993 25.4481 64.9309 23.3627 72.828 23.0377L72.8225 23.0433ZM74.9946 31.6557C74.4204 31.6557 73.8625 31.8832 73.4562 32.2949C73.0445 32.7011 72.8171 33.2536 72.8225 33.8332V68.8743C70.3091 69.7789 68.4891 72.2001 68.4891 75.0006C68.4891 78.5648 71.4358 81.4898 75 81.4898C75.4062 81.4898 75.807 81.4465 76.197 81.376L89.365 104.219V104.224C89.6466 104.722 90.1233 105.085 90.6758 105.232C91.2283 105.383 91.8241 105.307 92.3225 105.02C92.8208 104.733 93.1837 104.262 93.3354 103.709C93.4816 103.152 93.4058 102.561 93.1187 102.063L79.9237 79.2105C80.8933 78.073 81.4837 76.6051 81.4837 75.0017C81.4837 72.1959 79.6637 69.7692 77.1504 68.87V33.8345H77.1558C77.1558 33.2603 76.9283 32.7078 76.5275 32.3015C76.1212 31.8898 75.5688 31.6611 74.9946 31.6557ZM74.9946 72.8285C76.2188 72.8285 77.1504 73.7818 77.1504 75.006C77.1504 76.2301 76.2134 77.1618 74.9946 77.1618C73.7704 77.1618 72.8171 76.2247 72.8171 75.006C72.8171 73.7818 73.7704 72.8285 74.9946 72.8285Z" fill="#663366"/>
</svg>
