<svg width="150" height="150" viewBox="0 0 150 150" fill="none" xmlns="http://www.w3.org/2000/svg">
<path d="M133.829 38.3259H72.7701L93.5005 13.4875C94.2518 12.5837 94.1344 11.2454 93.2305 10.4942C92.3267 9.7429 90.9885 9.86028 90.2372 10.7642L69.1897 35.9842L59.7401 24.2457C59.0006 23.33 57.6624 23.1833 56.7467 23.9229C55.8311 24.6565 55.6903 26.0006 56.4239 26.9162L65.6152 38.332L16.1247 38.3261C14.9509 38.3261 14 39.277 14 40.4509V119.34C14 120.514 14.9508 121.465 16.1247 121.465H34.9305V129.564C34.9305 130.738 35.8813 131.689 37.0552 131.689H56.2306V137.875C56.2306 139.049 57.1814 140 58.3553 140H91.5869C92.7607 140 93.7116 139.049 93.7116 137.875V131.759H112.887C114.061 131.759 115.012 130.809 115.012 129.635V121.459H133.817C134.991 121.459 135.942 120.508 135.942 119.334L135.954 40.451C135.954 39.2772 135.002 38.3259 133.829 38.3259ZM89.4692 135.756H60.4868V121.095C60.4868 115.501 65.0355 110.959 70.6231 110.959H79.3214C84.9149 110.959 89.4635 115.507 89.4635 121.095V135.756H89.4692ZM110.769 127.516H93.7184V121.089C93.7184 113.154 87.2622 106.698 79.327 106.698H70.6286C62.6935 106.698 56.2372 113.154 56.2372 121.089V127.44H39.1804V120.796C39.1804 115.331 43.6293 110.882 49.0937 110.882H53.0613C54.2352 110.882 55.186 109.931 55.186 108.758C55.186 107.584 54.2352 106.633 53.0613 106.633H49.0937C45.6661 106.633 42.5553 107.906 40.1019 109.943C40.0198 109.931 39.9493 109.896 39.8672 109.896H26.1331V49.8939H123.828V109.902H109.748C107.235 107.848 104.148 106.686 100.861 106.686H100.797L96.6356 106.698C95.4617 106.703 94.5108 107.66 94.5227 108.834C94.5286 110.008 95.4735 110.947 96.6474 110.947H96.6592L100.82 110.929H100.867C103.509 110.929 105.985 111.951 107.858 113.817C109.742 115.695 110.775 118.184 110.775 120.843V127.516L110.769 127.516ZM131.705 117.215H114.497C114.215 116.147 113.799 115.126 113.276 114.151H125.954C127.128 114.151 128.079 113.201 128.079 112.027V47.7692C128.079 46.5954 127.128 45.6445 125.954 45.6445H24.0098C22.8359 45.6445 21.885 46.5953 21.885 47.7692V112.027C21.885 113.2 22.8359 114.151 24.0098 114.151H36.6698C36.1533 115.114 35.7366 116.135 35.449 117.215H18.2525V42.5813H131.706L131.705 117.215Z" fill="#663366"/>
<path d="M74.9771 78.4531C68.0867 78.4531 62.4873 84.0525 62.4873 90.9429C62.4873 97.8276 68.0867 103.433 74.9771 103.433C81.8617 103.433 87.467 97.8334 87.467 90.9429C87.467 84.0583 81.8676 78.4531 74.9771 78.4531ZM74.9771 99.1836C70.4344 99.1836 66.7366 95.486 66.7366 90.9431C66.7366 86.4002 70.4342 82.7026 74.9771 82.7026C79.52 82.7026 83.2176 86.4002 83.2176 90.9431C83.2176 95.486 79.52 99.1836 74.9771 99.1836Z" fill="#663366"/>
<path d="M50.7495 83.3535C44.8684 83.3535 40.0791 88.137 40.0791 94.0239C40.0791 99.905 44.8626 104.694 50.7495 104.694C56.6306 104.694 61.4199 99.9109 61.4199 94.0239C61.4199 88.137 56.6306 83.3535 50.7495 83.3535ZM50.7495 100.439C47.2161 100.439 44.3344 97.5628 44.3344 94.0238C44.3344 90.4845 47.2104 87.6087 50.7495 87.6087C54.2886 87.6087 57.1646 90.4847 57.1646 94.0238C57.1646 97.563 54.2827 100.439 50.7495 100.439Z" fill="#663366"/>
<path d="M109.876 94.0181C109.876 88.137 105.092 83.3477 99.2056 83.3477C93.3245 83.3477 88.5352 88.1311 88.5352 94.0181C88.5352 99.8991 93.3186 104.688 99.2056 104.688C105.087 104.688 109.876 99.905 109.876 94.0181ZM92.7846 94.0181C92.7846 90.4847 95.6606 87.603 99.1997 87.603C102.733 87.603 105.615 90.479 105.615 94.0181C105.615 97.5571 102.739 100.433 99.1997 100.433C95.6722 100.439 92.7846 97.5571 92.7846 94.0181Z" fill="#663366"/>
</svg>
