<svg width="150" height="150" viewBox="0 0 150 150" fill="none" xmlns="http://www.w3.org/2000/svg">
<path d="M62.4277 103.984H87.5706" stroke="#663366" stroke-width="4.3" stroke-miterlimit="10" stroke-linejoin="round"/>
<path d="M18.1406 69.625H42.3192" stroke="#663366" stroke-width="4.3" stroke-miterlimit="10" stroke-linejoin="round"/>
<path d="M94.5352 63.875H107.679" stroke="#663366" stroke-width="4.3" stroke-miterlimit="10" stroke-linejoin="round"/>
<path d="M127.854 63.875H140.998" stroke="#663366" stroke-width="4.3" stroke-miterlimit="10" stroke-linejoin="round"/>
<path d="M42.3203 63.875H55.4643" stroke="#663366" stroke-width="4.3" stroke-miterlimit="10" stroke-linejoin="round"/>
<path d="M5 63.875H18.144" stroke="#663366" stroke-width="4.3" stroke-miterlimit="10" stroke-linejoin="round"/>
<path d="M30.2308 86.4519V135.75C30.2308 139.833 26.9205 143.143 22.8371 143.143C18.7537 143.143 15.4434 139.833 15.4434 135.75V76.0508" stroke="#663366" stroke-width="4.3" stroke-miterlimit="10" stroke-linejoin="round"/>
<path d="M30.2305 86.4506V135.748C30.2305 139.832 33.5408 143.142 37.6242 143.142C41.7076 143.142 45.0179 139.832 45.0179 135.748V81.3789" stroke="#663366" stroke-width="4.3" stroke-miterlimit="10" stroke-linecap="round" stroke-linejoin="round"/>
<path d="M117.768 108.172V136.57C117.768 140.199 114.826 143.141 111.196 143.141C107.567 143.141 104.625 140.199 104.625 136.57V108.172" stroke="#663366" stroke-width="4.3" stroke-miterlimit="10" stroke-linejoin="round"/>
<path d="M117.768 108.172V136.57C117.768 140.199 120.71 143.141 124.339 143.141C127.968 143.141 130.91 140.199 130.91 136.57V108.172" stroke="#663366" stroke-width="4.3" stroke-miterlimit="10" stroke-linejoin="round"/>
<path d="M74.9992 119.41V136.856C74.9992 140.327 72.1849 143.142 68.7135 143.142C65.242 143.142 62.4277 140.327 62.4277 136.856V103.984" stroke="#663366" stroke-width="4.3" stroke-miterlimit="10" stroke-linejoin="round"/>
<path d="M75 117.641V136.856C75 140.327 77.8143 143.142 81.2857 143.142C84.7572 143.142 87.5715 140.327 87.5715 136.856V103.984" stroke="#663366" stroke-width="4.3" stroke-miterlimit="10" stroke-linecap="round" stroke-linejoin="round"/>
<path d="M42.3203 70.4531C42.3203 82.2611 51.072 92.06 62.4292 93.7129V103.986" stroke="#663366" stroke-width="4.3" stroke-miterlimit="10" stroke-linejoin="round"/>
<path d="M94.5375 70.4531C94.5375 76.1689 89.8875 80.8189 84.1718 80.8189H65.8286C60.1129 80.8189 55.4629 76.1689 55.4629 70.4531" stroke="#663366" stroke-width="4.3" stroke-miterlimit="10" stroke-linejoin="round"/>
<path d="M87.5703 103.986V93.7129C98.9272 92.06 107.679 82.2611 107.679 70.4531" stroke="#663366" stroke-width="4.3" stroke-miterlimit="10" stroke-linejoin="round"/>
<path d="M18.1417 49.3737V70.4506C18.1417 74.0798 15.1997 77.0215 11.5709 77.0215C7.94201 77.0215 5 74.0795 5 70.4503V50.2077C5 39.4097 13.7534 30.6562 24.5515 30.6562H30.2312" stroke="#663366" stroke-width="4.3" stroke-miterlimit="10" stroke-linecap="round" stroke-linejoin="round"/>
<path d="M42.3196 49.3734V70.4503C42.3196 74.0795 45.2616 77.0212 48.8905 77.0212C52.5197 77.0212 55.4614 74.0792 55.4614 70.4503V50.2077C55.4614 39.4097 46.7079 30.6562 35.9099 30.6562H30.2305" stroke="#663366" stroke-width="4.3" stroke-miterlimit="10" stroke-linecap="round" stroke-linejoin="round"/>
<path d="M107.679 49.3734V70.4503C107.679 74.0795 104.737 77.0212 101.108 77.0212C97.4788 77.0212 94.5371 74.0792 94.5371 70.4503V50.2077C94.5371 39.4097 103.291 30.6562 114.089 30.6562H117.768" stroke="#663366" stroke-width="4.3" stroke-miterlimit="10" stroke-linecap="round" stroke-linejoin="round"/>
<path d="M127.857 49.3734V70.4503C127.857 74.0795 130.799 77.0212 134.428 77.0212C138.057 77.0212 140.999 74.0792 140.999 70.4503V50.2077C140.999 39.4097 132.245 30.6562 121.447 30.6562H117.768" stroke="#663366" stroke-width="4.3" stroke-miterlimit="10" stroke-linecap="round" stroke-linejoin="round"/>
<path d="M138.857 75.3047C143.23 85.9236 145 96.9899 145 108.172H90.5352C90.5352 102.978 90.9172 97.8082 91.7646 92.697" stroke="#663366" stroke-width="4.3" stroke-miterlimit="10" stroke-linejoin="round"/>
<path d="M30.2299 6C24.1561 6 19.2324 10.9237 19.2324 16.9974V19.6595C19.2324 25.7332 24.1561 30.6569 30.2299 30.6569C36.3036 30.6569 41.2273 25.7332 41.2273 19.6595V16.9974C41.2273 10.9237 36.3036 6 30.2299 6Z" stroke="#663366" stroke-width="4.3" stroke-miterlimit="10" stroke-linejoin="round"/>
<path d="M74.9995 59.0391C69.6343 59.0391 65.2852 63.3882 65.2852 68.7534V71.1048C65.2852 76.47 69.6343 80.8191 74.9995 80.8191C80.3646 80.8191 84.7138 76.47 84.7138 71.1048V68.7534C84.7138 63.3882 80.3646 59.0391 74.9995 59.0391Z" stroke="#663366" stroke-width="4.3" stroke-miterlimit="10" stroke-linejoin="round"/>
<path d="M117.767 6C111.693 6 106.77 10.9237 106.77 16.9974V19.6595C106.77 25.7332 111.693 30.6569 117.767 30.6569C123.841 30.6569 128.764 25.7332 128.764 19.6595V16.9974C128.764 10.9237 123.841 6 117.767 6Z" stroke="#663366" stroke-width="4.3" stroke-miterlimit="10" stroke-linejoin="round"/>
</svg>
