<svg width="150" height="150" viewBox="0 0 150 150" fill="none" xmlns="http://www.w3.org/2000/svg">
<path d="M130.464 137.237C130.464 137.186 130.462 137.136 130.458 137.085C130.272 127.232 129.566 119.278 128.298 112.772C126.867 105.426 124.677 99.6178 121.604 95.0167C115.355 85.6592 105.357 81.0896 90.243 80.7188V73.5313C91.7761 72.0751 93.2237 70.4015 94.5722 68.5174C99.7089 61.3411 102.911 51.8306 103.62 41.685C103.649 41.6105 103.675 41.5339 103.696 41.4547C105.548 34.5462 107.775 22.0786 101.896 16.199C99.1365 13.4397 95.1294 12.5874 89.9678 13.6585C88.4663 11.5301 86.4991 9.74137 84.1025 8.32838C81.4007 6.73552 78.2923 5.69892 74.8638 5.24753C70.4222 4.6627 65.7204 5.11882 61.2664 6.56661C56.5498 8.09961 52.2466 10.72 48.8221 14.1446C46.0358 16.931 43.9979 21.5544 43.371 26.5121C42.8452 30.6706 43.0407 37.047 46.9393 43.8489C47.9646 53.5363 51.2907 62.5399 56.3329 69.2472C57.5458 70.8608 58.8323 72.3078 60.177 73.5809V80.7159C45.1057 81.1022 35.1274 85.6688 28.8801 95.0002C25.8 99.6009 23.6048 105.408 22.1692 112.753C20.8911 119.291 20.1818 127.287 20.0004 137.198H20.0009C20.0008 137.211 20 137.224 20 137.237C20 141.515 23.4804 144.995 27.7584 144.995H102.971C103.015 144.998 103.059 145 103.104 145C103.148 145 103.192 144.998 103.236 144.995H122.752V144.994C127.009 144.969 130.464 141.5 130.464 137.237ZM83.9848 99.1221L78.4127 94.0449L88.9003 84.9522C89.3439 84.956 89.7827 84.9636 90.2168 84.9747L83.9848 99.1221ZM66.435 99.1221L60.2022 84.9726C60.6352 84.9609 61.0731 84.9531 61.5157 84.9487L72.0072 94.0449L66.435 99.1221ZM88.2057 82.921L88.1152 82.8166H88.2057V82.921ZM51.8313 17.154C57.6341 11.3512 66.2473 8.40555 74.3083 9.46692C80.0924 10.2284 84.7725 13.0257 87.1489 17.1418C87.6305 17.9759 88.6128 18.3824 89.5424 18.1332C93.8698 16.9736 97.0139 17.3353 98.8867 19.2082C101.987 22.3084 102.283 30.04 99.6955 39.9381C99.533 40.2165 99.4309 40.536 99.4099 40.8798C99.3627 41.6558 99.2982 42.427 99.2202 43.1938H96.4672V43.0119C96.4672 40.8584 95.1482 39.0077 93.2757 38.2243C90.382 36.8831 87.6152 33.7387 86.1304 31.1673C85.5429 30.1496 84.2417 29.8008 83.2238 30.3884C82.3331 30.9026 81.4294 31.4761 80.4727 32.0833C76.8868 34.3591 72.8257 36.9349 67.2452 37.8245H59.1398C56.2794 37.8245 53.9525 40.1516 53.9525 43.012V43.1939H51.1494C51.1412 43.1129 51.1317 43.0324 51.1239 42.9514C51.0858 42.5616 50.9443 42.2071 50.7298 41.9114C50.7117 41.8755 50.6927 41.8398 50.6724 41.8046C44.8066 31.6447 47.8963 21.0889 51.8313 17.154ZM76.952 43.0119V43.1938H73.4681V43.0119C73.4681 42.2049 73.2827 41.4403 72.9524 40.7584C76.9085 39.3847 80.0651 37.3823 82.753 35.6764C83.0481 35.4891 83.3382 35.305 83.6227 35.126C84.2601 36.0251 85.0006 36.944 85.8261 37.8245H82.1387C79.2787 37.8244 76.952 40.1515 76.952 43.0119ZM67.4066 42.0801C67.4128 42.0801 67.4188 42.0801 67.425 42.0801H68.2807C68.7856 42.0801 69.2123 42.5068 69.2123 43.0119V47.6314C69.2123 48.1364 68.7856 48.5631 68.2807 48.5631H59.1396C58.6346 48.5631 58.208 48.1364 58.208 47.6314V43.0119C58.208 42.5069 58.6346 42.0801 59.1396 42.0801H67.4066ZM81.2077 43.0119C81.2077 42.5069 81.6341 42.0801 82.1388 42.0801H91.2801C91.405 42.0801 91.5252 42.1064 91.6353 42.1534C91.6385 42.1548 91.6416 42.1563 91.645 42.1577C91.9745 42.3028 92.2115 42.6354 92.2115 43.0118V47.6313C92.2115 48.1363 91.785 48.563 91.2801 48.563H82.1388C81.6341 48.563 81.2077 48.1363 81.2077 47.6313V43.0119ZM51.7498 47.4495H53.9524V47.6314C53.9524 50.4918 56.2793 52.8188 59.1397 52.8188H68.2808C71.1411 52.8188 73.4681 50.4918 73.4681 47.6314V47.4495H76.952V47.6314C76.952 50.4918 79.2788 52.8188 82.1388 52.8188H91.2801C94.1403 52.8188 96.4672 50.4918 96.4672 47.6314V47.4495H98.6215C97.3518 54.4874 94.7681 60.9322 91.1118 66.0404C86.5517 72.4111 80.8955 75.9196 75.1849 75.9196C69.6958 75.9196 64.2088 72.6419 59.7347 66.6902C55.8503 61.5229 53.081 54.8098 51.7498 47.4495ZM75.1848 80.1753C78.8224 80.1753 82.4011 79.0984 85.8212 76.9743C85.8769 76.9398 85.9318 76.9029 85.9873 76.8679V81.8453L75.2101 91.1892L64.4328 81.8453V76.906C67.8405 79.0479 71.4887 80.1753 75.1848 80.1753ZM24.256 137.246C24.6187 117.555 27.1357 105.256 32.4165 97.3678C37.1882 90.2404 44.6638 86.3155 55.6728 85.2469L63.7334 103.546L63.7345 103.545C63.825 103.751 63.9481 103.946 64.1078 104.121C64.5277 104.582 65.1034 104.816 65.6812 104.816C66.1928 104.816 66.7058 104.633 67.1137 104.261L73.0821 98.8229V140.74H49.5343V121.528C49.5343 120.352 48.5816 119.4 47.4065 119.4C46.2313 119.4 45.2786 120.352 45.2786 121.528V140.74H27.7585C25.8301 140.74 24.2609 139.173 24.256 137.246ZM122.705 140.74H105.231V121.532C105.231 120.357 104.279 119.404 103.104 119.404C101.928 119.404 100.976 120.357 100.976 121.532V140.74H77.3378V98.823L83.3058 104.261C83.7137 104.633 84.2268 104.816 84.7383 104.816C85.3161 104.816 85.892 104.582 86.3118 104.121C86.4714 103.946 86.5946 103.751 86.6852 103.546L86.6863 103.546L94.7487 85.2434C105.796 86.3006 113.29 90.2301 118.065 97.3802C123.333 105.268 125.843 117.577 126.205 137.291H126.207C126.178 139.198 124.619 140.74 122.705 140.74Z" fill="#663366"/>
</svg>
