<svg width="150" height="150" viewBox="0 0 150 150" fill="none" xmlns="http://www.w3.org/2000/svg">
<mask id="path-1-outside-1_259_1855" maskUnits="userSpaceOnUse" x="9" y="14" width="132" height="123" fill="black">
<rect fill="white" x="9" y="14" width="132" height="123"/>
<path d="M140 82.7401C140 82.6767 139.993 82.6133 139.987 82.5562V82.5372C139.98 82.4865 139.968 82.4294 139.955 82.3787L139.942 82.3343C139.93 82.2899 139.917 82.2455 139.898 82.2011L139.879 82.1567V82.1503C139.854 82.0933 139.828 82.0425 139.796 81.9855C139.765 81.9347 139.733 81.884 139.695 81.8332L139.663 81.7952C139.631 81.7571 139.606 81.7254 139.574 81.6874L139.536 81.6493V81.6557C139.498 81.6176 139.46 81.5796 139.416 81.5479L139.403 81.5352C139.346 81.4971 139.295 81.4591 139.238 81.4274H139.225L109.353 64.1772C108.87 63.9044 108.28 63.9044 107.798 64.1772L104.44 66.1178C97.6415 61.0948 89.7642 57.7209 81.4364 56.256C90.5071 51.7786 95.2869 41.6441 92.9828 31.807C90.6786 21.9642 81.8935 15 71.7815 15C61.6633 15 52.8779 21.9636 50.5737 31.807C48.2758 41.6434 53.0556 51.7783 62.1201 56.256C54.814 57.5434 47.8379 60.3022 41.6306 64.3674H11.5552C11.1426 64.3674 10.7427 64.5323 10.4507 64.8241C10.1587 65.1158 10 65.509 10 65.9276V134.446C10 135.302 10.6982 136 11.5552 136H61.3141C62.171 136 62.8629 135.302 62.8629 134.446V112.09H77.1451V117.214H77.1515C77.1515 117.772 77.4435 118.286 77.9259 118.559L107.798 135.789H107.811C107.868 135.821 107.925 135.853 107.982 135.872H107.995C108.046 135.891 108.103 135.91 108.16 135.929L108.204 135.942C108.249 135.954 108.293 135.961 108.344 135.967H108.395H108.388C108.515 135.986 108.636 135.986 108.757 135.967H108.807C108.852 135.961 108.903 135.954 108.947 135.942L108.992 135.929C109.049 135.91 109.099 135.897 109.157 135.872H109.169C109.226 135.853 109.284 135.821 109.341 135.789H109.353L139.226 118.559C139.702 118.286 140 117.772 140 117.214L140 82.7401ZM108.572 67.3164L135.341 82.7528L126.187 88.0357L99.4189 72.5993L108.572 67.3164ZM122.385 92.8938V92.6845L122.372 92.6338V92.5894L122.334 92.4372L122.321 92.3928L122.302 92.3421L122.277 92.2913L122.264 92.2596L122.239 92.2089L122.207 92.1581V92.1455L122.194 92.1328L122.131 92.0313L122.112 91.9996L122.074 91.9552L122.042 91.9171L122.016 91.8854L121.902 91.7713L121.839 91.7396L121.801 91.7079L121.756 91.6762L121.724 91.6508L121.674 91.6191L121.629 91.5874L121.61 91.5747L94.0682 75.6816L96.3089 74.3815L124.633 90.7241V104.08L122.392 105.381V92.8995L122.385 92.8938ZM108.572 98.1894L81.8101 82.7593L90.9634 77.4764L117.725 92.9128L108.572 98.1894ZM53.0997 36.7672C53.0997 29.2203 57.651 22.4217 64.6271 19.53C71.6032 16.6445 79.6393 18.2426 84.9769 23.5762C90.3145 28.9099 91.9148 36.9325 89.0204 43.9031C86.1323 50.8793 79.3276 55.4202 71.7743 55.4202C61.4657 55.4139 53.1129 47.0678 53.0999 36.7689L53.0997 36.7672ZM59.7648 132.899H13.1031V67.475H59.7583L59.7648 132.899ZM62.8689 108.989V65.9278C62.8689 65.0653 62.177 64.374 61.3201 64.374H47.7679C56.1913 60.0107 65.6429 58.0256 75.1068 58.6344C84.5711 59.2369 93.6935 62.4142 101.487 67.8241L77.9246 81.415H77.9119C77.8548 81.4403 77.7976 81.4784 77.7469 81.5164L77.7342 81.5291C77.6897 81.5608 77.6516 81.5989 77.6072 81.6369L77.5691 81.675C77.5374 81.7067 77.5056 81.7447 77.4739 81.7828L77.4422 81.8208H77.4485C77.4168 81.8652 77.3787 81.916 77.3469 81.9667C77.3216 82.0238 77.2898 82.0745 77.2708 82.1316L77.2517 82.176C77.2327 82.2204 77.22 82.2648 77.2073 82.3092L77.1946 82.3536C77.1819 82.4106 77.1692 82.4677 77.1629 82.5185V82.5311H77.1565C77.1502 82.5946 77.1438 82.658 77.1438 82.7214V108.99L62.8689 108.989ZM80.2547 85.4477L107.017 100.884L107.023 131.758L80.261 116.321L80.2547 85.4477ZM110.127 131.756V100.883L119.28 95.6V108.049C119.28 108.607 119.579 109.121 120.061 109.394C120.537 109.673 121.134 109.673 121.61 109.394L126.961 106.312C127.443 106.033 127.735 105.519 127.735 104.967V90.7231L136.889 85.4403L136.895 116.32L110.127 131.756ZM19.8959 79.3399C19.8959 78.4838 20.5878 77.7862 21.4511 77.7862H51.4176C52.2555 77.8179 52.922 78.5028 52.922 79.3399C52.922 80.1834 52.2555 80.8684 51.4176 80.8937H21.4511C21.0385 80.8937 20.6386 80.7288 20.3466 80.4371C20.0546 80.1454 19.8959 79.7522 19.8959 79.3399ZM42.6198 99.3551L33.7966 108.17L30.2419 104.619C28.7058 103.084 26.2238 103.084 24.6877 104.619C23.1579 106.154 23.1579 108.633 24.6877 110.168L31.0226 116.497C32.5587 118.032 35.0407 118.032 36.5768 116.497L48.1802 104.904V104.911C48.942 104.175 49.3736 103.173 49.3799 102.12C49.3926 101.067 48.9737 100.053 48.231 99.3043C47.4883 98.5622 46.4728 98.15 45.419 98.1564C44.3653 98.169 43.356 98.6003 42.6259 99.355L42.6198 99.3551ZM45.9777 102.71L34.3743 114.303C34.0506 114.62 33.5364 114.62 33.2127 114.303L26.8841 107.974C26.5668 107.65 26.5668 107.137 26.8841 106.813C27.2079 106.502 27.722 106.502 28.0458 106.813L32.0639 110.828C33.0224 111.785 34.5776 111.785 35.536 110.828L44.8225 101.55C44.9685 101.385 45.1843 101.29 45.4065 101.29C45.6287 101.283 45.8445 101.372 46.0032 101.524C46.1619 101.683 46.2507 101.898 46.2444 102.127C46.2444 102.349 46.1492 102.558 45.9841 102.71L45.9777 102.71ZM36.4309 89.2904C28.8899 89.2904 22.0853 93.8313 19.2027 100.795C16.3146 107.758 17.9078 115.775 23.2462 121.102C28.5781 126.429 36.6017 128.027 43.5651 125.142C50.5349 122.256 55.0796 115.464 55.0796 107.924C55.0669 97.6375 46.7275 89.3033 36.4309 89.2904ZM36.4309 123.455C30.1467 123.455 24.4782 119.669 22.0726 113.866C19.6668 108.063 20.9935 101.385 25.4432 96.9451C29.8866 92.5056 36.5706 91.1738 42.3789 93.5775C48.1869 95.9812 51.9764 101.645 51.9764 107.923C51.9637 116.497 45.0128 123.442 36.4309 123.455Z"/>
</mask>
<path d="M140 82.7401C140 82.6767 139.993 82.6133 139.987 82.5562V82.5372C139.98 82.4865 139.968 82.4294 139.955 82.3787L139.942 82.3343C139.93 82.2899 139.917 82.2455 139.898 82.2011L139.879 82.1567V82.1503C139.854 82.0933 139.828 82.0425 139.796 81.9855C139.765 81.9347 139.733 81.884 139.695 81.8332L139.663 81.7952C139.631 81.7571 139.606 81.7254 139.574 81.6874L139.536 81.6493V81.6557C139.498 81.6176 139.46 81.5796 139.416 81.5479L139.403 81.5352C139.346 81.4971 139.295 81.4591 139.238 81.4274H139.225L109.353 64.1772C108.87 63.9044 108.28 63.9044 107.798 64.1772L104.44 66.1178C97.6415 61.0948 89.7642 57.7209 81.4364 56.256C90.5071 51.7786 95.2869 41.6441 92.9828 31.807C90.6786 21.9642 81.8935 15 71.7815 15C61.6633 15 52.8779 21.9636 50.5737 31.807C48.2758 41.6434 53.0556 51.7783 62.1201 56.256C54.814 57.5434 47.8379 60.3022 41.6306 64.3674H11.5552C11.1426 64.3674 10.7427 64.5323 10.4507 64.8241C10.1587 65.1158 10 65.509 10 65.9276V134.446C10 135.302 10.6982 136 11.5552 136H61.3141C62.171 136 62.8629 135.302 62.8629 134.446V112.09H77.1451V117.214H77.1515C77.1515 117.772 77.4435 118.286 77.9259 118.559L107.798 135.789H107.811C107.868 135.821 107.925 135.853 107.982 135.872H107.995C108.046 135.891 108.103 135.91 108.16 135.929L108.204 135.942C108.249 135.954 108.293 135.961 108.344 135.967H108.395H108.388C108.515 135.986 108.636 135.986 108.757 135.967H108.807C108.852 135.961 108.903 135.954 108.947 135.942L108.992 135.929C109.049 135.91 109.099 135.897 109.157 135.872H109.169C109.226 135.853 109.284 135.821 109.341 135.789H109.353L139.226 118.559C139.702 118.286 140 117.772 140 117.214L140 82.7401ZM108.572 67.3164L135.341 82.7528L126.187 88.0357L99.4189 72.5993L108.572 67.3164ZM122.385 92.8938V92.6845L122.372 92.6338V92.5894L122.334 92.4372L122.321 92.3928L122.302 92.3421L122.277 92.2913L122.264 92.2596L122.239 92.2089L122.207 92.1581V92.1455L122.194 92.1328L122.131 92.0313L122.112 91.9996L122.074 91.9552L122.042 91.9171L122.016 91.8854L121.902 91.7713L121.839 91.7396L121.801 91.7079L121.756 91.6762L121.724 91.6508L121.674 91.6191L121.629 91.5874L121.61 91.5747L94.0682 75.6816L96.3089 74.3815L124.633 90.7241V104.08L122.392 105.381V92.8995L122.385 92.8938ZM108.572 98.1894L81.8101 82.7593L90.9634 77.4764L117.725 92.9128L108.572 98.1894ZM53.0997 36.7672C53.0997 29.2203 57.651 22.4217 64.6271 19.53C71.6032 16.6445 79.6393 18.2426 84.9769 23.5762C90.3145 28.9099 91.9148 36.9325 89.0204 43.9031C86.1323 50.8793 79.3276 55.4202 71.7743 55.4202C61.4657 55.4139 53.1129 47.0678 53.0999 36.7689L53.0997 36.7672ZM59.7648 132.899H13.1031V67.475H59.7583L59.7648 132.899ZM62.8689 108.989V65.9278C62.8689 65.0653 62.177 64.374 61.3201 64.374H47.7679C56.1913 60.0107 65.6429 58.0256 75.1068 58.6344C84.5711 59.2369 93.6935 62.4142 101.487 67.8241L77.9246 81.415H77.9119C77.8548 81.4403 77.7976 81.4784 77.7469 81.5164L77.7342 81.5291C77.6897 81.5608 77.6516 81.5989 77.6072 81.6369L77.5691 81.675C77.5374 81.7067 77.5056 81.7447 77.4739 81.7828L77.4422 81.8208H77.4485C77.4168 81.8652 77.3787 81.916 77.3469 81.9667C77.3216 82.0238 77.2898 82.0745 77.2708 82.1316L77.2517 82.176C77.2327 82.2204 77.22 82.2648 77.2073 82.3092L77.1946 82.3536C77.1819 82.4106 77.1692 82.4677 77.1629 82.5185V82.5311H77.1565C77.1502 82.5946 77.1438 82.658 77.1438 82.7214V108.99L62.8689 108.989ZM80.2547 85.4477L107.017 100.884L107.023 131.758L80.261 116.321L80.2547 85.4477ZM110.127 131.756V100.883L119.28 95.6V108.049C119.28 108.607 119.579 109.121 120.061 109.394C120.537 109.673 121.134 109.673 121.61 109.394L126.961 106.312C127.443 106.033 127.735 105.519 127.735 104.967V90.7231L136.889 85.4403L136.895 116.32L110.127 131.756ZM19.8959 79.3399C19.8959 78.4838 20.5878 77.7862 21.4511 77.7862H51.4176C52.2555 77.8179 52.922 78.5028 52.922 79.3399C52.922 80.1834 52.2555 80.8684 51.4176 80.8937H21.4511C21.0385 80.8937 20.6386 80.7288 20.3466 80.4371C20.0546 80.1454 19.8959 79.7522 19.8959 79.3399ZM42.6198 99.3551L33.7966 108.17L30.2419 104.619C28.7058 103.084 26.2238 103.084 24.6877 104.619C23.1579 106.154 23.1579 108.633 24.6877 110.168L31.0226 116.497C32.5587 118.032 35.0407 118.032 36.5768 116.497L48.1802 104.904V104.911C48.942 104.175 49.3736 103.173 49.3799 102.12C49.3926 101.067 48.9737 100.053 48.231 99.3043C47.4883 98.5622 46.4728 98.15 45.419 98.1564C44.3653 98.169 43.356 98.6003 42.6259 99.355L42.6198 99.3551ZM45.9777 102.71L34.3743 114.303C34.0506 114.62 33.5364 114.62 33.2127 114.303L26.8841 107.974C26.5668 107.65 26.5668 107.137 26.8841 106.813C27.2079 106.502 27.722 106.502 28.0458 106.813L32.0639 110.828C33.0224 111.785 34.5776 111.785 35.536 110.828L44.8225 101.55C44.9685 101.385 45.1843 101.29 45.4065 101.29C45.6287 101.283 45.8445 101.372 46.0032 101.524C46.1619 101.683 46.2507 101.898 46.2444 102.127C46.2444 102.349 46.1492 102.558 45.9841 102.71L45.9777 102.71ZM36.4309 89.2904C28.8899 89.2904 22.0853 93.8313 19.2027 100.795C16.3146 107.758 17.9078 115.775 23.2462 121.102C28.5781 126.429 36.6017 128.027 43.5651 125.142C50.5349 122.256 55.0796 115.464 55.0796 107.924C55.0669 97.6375 46.7275 89.3033 36.4309 89.2904ZM36.4309 123.455C30.1467 123.455 24.4782 119.669 22.0726 113.866C19.6668 108.063 20.9935 101.385 25.4432 96.9451C29.8866 92.5056 36.5706 91.1738 42.3789 93.5775C48.1869 95.9812 51.9764 101.645 51.9764 107.923C51.9637 116.497 45.0128 123.442 36.4309 123.455Z" fill="#663366"/>
<path d="M36.4245 89.2904V89.4154H36.4309V89.2904V89.1654H36.4245V89.2904ZM36.4245 123.455V123.58H36.4309V123.455V123.33H36.4245V123.455ZM140 82.7401L139.75 82.7401L139.75 82.7402L140 82.7401ZM139.987 82.5562H139.737V82.5701L139.738 82.5839L139.987 82.5562ZM139.987 82.5372H140.237V82.5216L140.235 82.5062L139.987 82.5372ZM139.955 82.3787L140.198 82.3179L140.195 82.3099L139.955 82.3787ZM139.942 82.3343L140.183 82.2655L140.183 82.2655L139.942 82.3343ZM139.898 82.2011L139.668 82.2996L139.668 82.2996L139.898 82.2011ZM139.879 82.1567H139.629V82.208L139.649 82.2552L139.879 82.1567ZM139.879 82.1503H140.129V82.0972L140.107 82.0487L139.879 82.1503ZM139.796 81.9855L140.015 81.8638L140.008 81.8529L139.796 81.9855ZM139.695 81.8332L139.895 81.683L139.887 81.6731L139.695 81.8332ZM139.663 81.7952L139.471 81.9553L139.471 81.9553L139.663 81.7952ZM139.574 81.6874L139.766 81.5273L139.759 81.5185L139.751 81.5105L139.574 81.6874ZM139.536 81.6493L139.713 81.4725L139.286 81.0462V81.6493H139.536ZM139.536 81.6557L139.359 81.8325L139.786 82.2588V81.6557H139.536ZM139.416 81.5479L139.239 81.7247L139.253 81.7393L139.27 81.7514L139.416 81.5479ZM139.403 81.5352L139.58 81.3583L139.562 81.3408L139.541 81.3271L139.403 81.5352ZM139.238 81.4274L139.359 81.2088L139.303 81.1774H139.238V81.4274ZM139.225 81.4274L139.1 81.6439L139.158 81.6774H139.225V81.4274ZM109.353 64.1772L109.478 63.9606L109.476 63.9595L109.353 64.1772ZM107.798 64.1772L107.675 63.9595L107.673 63.9607L107.798 64.1772ZM104.44 66.1178L104.291 66.3189L104.423 66.4162L104.565 66.3342L104.44 66.1178ZM81.4364 56.256L81.3257 56.0318L80.6409 56.3699L81.3931 56.5022L81.4364 56.256ZM92.9828 31.807L92.7394 31.864L92.7394 31.864L92.9828 31.807ZM50.5737 31.807L50.3303 31.75L50.3303 31.7501L50.5737 31.807ZM62.1201 56.256L62.1635 56.5022L62.9149 56.3698L62.2308 56.0319L62.1201 56.256ZM41.6306 64.3674V64.6174H41.7051L41.7675 64.5766L41.6306 64.3674ZM62.8629 112.09V111.84H62.6129V112.09H62.8629ZM77.1451 112.09H77.3951V111.84H77.1451V112.09ZM77.1451 117.214H76.8951V117.464H77.1451V117.214ZM77.1515 117.214H77.4015V116.964H77.1515V117.214ZM77.9259 118.559L78.0508 118.342L78.0489 118.341L77.9259 118.559ZM107.798 135.789L107.673 136.006L107.731 136.039H107.798V135.789ZM107.811 135.789L107.932 135.571L107.876 135.539H107.811V135.789ZM107.982 135.872L107.903 136.109L107.942 136.122H107.982V135.872ZM107.995 135.872L108.083 135.638L108.04 135.622H107.995V135.872ZM108.16 135.929L108.081 136.166L108.091 136.169L108.16 135.929ZM108.204 135.942L108.273 135.701L108.273 135.701L108.204 135.942ZM108.344 135.967L108.313 136.215L108.329 136.217H108.344V135.967ZM108.388 135.967V135.717L108.351 136.214L108.388 135.967ZM108.757 135.967V135.717H108.737L108.718 135.72L108.757 135.967ZM108.807 135.967V136.217H108.825L108.843 136.214L108.807 135.967ZM108.947 135.942L108.879 135.701L108.878 135.701L108.947 135.942ZM108.992 135.929L109.06 136.17L109.071 136.166L108.992 135.929ZM109.157 135.872V135.622H109.104L109.055 135.643L109.157 135.872ZM109.169 135.872V136.122H109.21L109.248 136.109L109.169 135.872ZM109.341 135.789V135.539H109.276L109.219 135.571L109.341 135.789ZM109.353 135.789V136.039H109.42L109.478 136.006L109.353 135.789ZM139.226 118.559L139.101 118.342L139.101 118.342L139.226 118.559ZM140 117.214L140.25 117.214L140.25 117.214L140 117.214ZM108.572 67.3164L108.697 67.0999L108.572 67.0278L108.447 67.0999L108.572 67.3164ZM135.341 82.7528L135.466 82.9693L135.841 82.7527L135.466 82.5362L135.341 82.7528ZM126.187 88.0357L126.063 88.2522L126.187 88.3243L126.312 88.2522L126.187 88.0357ZM99.4189 72.5993L99.2939 72.3828L98.9186 72.5994L99.294 72.8159L99.4189 72.5993ZM122.385 92.8938H122.135V93.0151L122.23 93.0901L122.385 92.8938ZM122.385 92.6845H122.635V92.6537L122.627 92.6238L122.385 92.6845ZM122.372 92.6338H122.122V92.6646L122.129 92.6945L122.372 92.6338ZM122.372 92.5894H122.622V92.5586L122.614 92.5287L122.372 92.5894ZM122.334 92.4372L122.576 92.3765L122.574 92.3685L122.334 92.4372ZM122.321 92.3928L122.562 92.3241L122.559 92.3144L122.555 92.305L122.321 92.3928ZM122.302 92.3421L122.536 92.2542L122.532 92.2419L122.526 92.2302L122.302 92.3421ZM122.277 92.2913L122.045 92.3842L122.048 92.3939L122.053 92.4032L122.277 92.2913ZM122.264 92.2596L122.496 92.1667L122.492 92.157L122.488 92.1477L122.264 92.2596ZM122.239 92.2089L122.462 92.097L122.457 92.0864L122.451 92.0763L122.239 92.2089ZM122.207 92.1581H121.957V92.2299L121.995 92.2907L122.207 92.1581ZM122.207 92.1455H122.457V92.0418L122.384 91.9686L122.207 92.1455ZM122.194 92.1328L121.982 92.2654L121.997 92.2895L122.018 92.3097L122.194 92.1328ZM122.131 92.0313L121.916 92.16L121.919 92.1639L122.131 92.0313ZM122.112 91.9996L122.326 91.8709L122.315 91.8528L122.301 91.8368L122.112 91.9996ZM122.074 91.9552L121.882 92.1153L121.884 92.118L122.074 91.9552ZM122.042 91.9171L121.847 92.0735L121.85 92.0773L122.042 91.9171ZM122.016 91.8854L122.212 91.7292L122.203 91.7184L122.193 91.7086L122.016 91.8854ZM121.902 91.7713L122.079 91.5944L122.05 91.5658L122.014 91.5476L121.902 91.7713ZM121.839 91.7396L121.679 91.9317L121.701 91.9503L121.727 91.9632L121.839 91.7396ZM121.801 91.7079L121.961 91.5157L121.953 91.5098L121.946 91.5044L121.801 91.7079ZM121.756 91.6762L121.6 91.8717L121.611 91.8797L121.756 91.6762ZM121.724 91.6508L121.881 91.4555L121.869 91.4464L121.857 91.4387L121.724 91.6508ZM121.674 91.6191L121.528 91.8226L121.535 91.8271L121.541 91.8311L121.674 91.6191ZM121.629 91.5874L121.775 91.3837L121.768 91.3793L121.629 91.5874ZM121.61 91.5747L121.749 91.3666L121.742 91.3622L121.735 91.3582L121.61 91.5747ZM94.0682 75.6816L93.9427 75.4654L93.569 75.6822L93.9432 75.8981L94.0682 75.6816ZM96.3089 74.3815L96.4338 74.165L96.3085 74.0927L96.1834 74.1653L96.3089 74.3815ZM124.633 90.7241H124.883V90.5798L124.757 90.5076L124.633 90.7241ZM124.633 104.08L124.758 104.297L124.883 104.224V104.08H124.633ZM122.392 105.381H122.142V105.815L122.517 105.597L122.392 105.381ZM122.392 92.8995H122.642V92.7783L122.547 92.7032L122.392 92.8995ZM108.572 98.1894L108.447 98.4059L108.572 98.4779L108.697 98.4059L108.572 98.1894ZM81.8101 82.7593L81.6852 82.5428L81.3098 82.7594L81.6853 82.9759L81.8101 82.7593ZM90.9634 77.4764L91.0883 77.2599L90.9634 77.1878L90.8384 77.2599L90.9634 77.4764ZM117.725 92.9128L117.85 93.1294L118.226 92.9129L117.85 92.6963L117.725 92.9128ZM53.0997 36.7672H52.8497V36.7801L52.8511 36.7928L53.0997 36.7672ZM64.6271 19.53L64.5316 19.299L64.5314 19.2991L64.6271 19.53ZM89.0204 43.9031L88.7895 43.8072L88.7894 43.8074L89.0204 43.9031ZM71.7743 55.4202L71.7742 55.6702H71.7743V55.4202ZM53.0999 36.7689L53.3499 36.7685L53.3499 36.7559L53.3486 36.7433L53.0999 36.7689ZM59.7648 132.899V133.149H60.0148L60.0148 132.899L59.7648 132.899ZM13.1031 132.899H12.8531V133.149H13.1031V132.899ZM13.1031 67.475V67.225H12.8531V67.475H13.1031ZM59.7583 67.475L60.0083 67.475L60.0083 67.225H59.7583V67.475ZM62.8689 108.989H62.6189V109.239L62.8689 109.239L62.8689 108.989ZM47.7679 64.374L47.653 64.152L47.7679 64.624V64.374ZM75.1068 58.6344L75.0908 58.8839L75.091 58.8839L75.1068 58.6344ZM101.487 67.8241L101.612 68.0406L101.954 67.8436L101.63 67.6187L101.487 67.8241ZM77.9246 81.415V81.665H77.9915L78.0495 81.6315L77.9246 81.415ZM77.9119 81.415V81.165H77.8589L77.8104 81.1865L77.9119 81.415ZM77.7469 81.5164L77.5969 81.3164L77.5827 81.327L77.5702 81.3396L77.7469 81.5164ZM77.7342 81.5291L77.8794 81.7326L77.8962 81.7206L77.9109 81.706L77.7342 81.5291ZM77.6072 81.6369L77.4446 81.447L77.4373 81.4533L77.4305 81.4601L77.6072 81.6369ZM77.5691 81.675L77.3924 81.4981L77.5691 81.675ZM77.4739 81.7828L77.6659 81.9429L77.6659 81.9429L77.4739 81.7828ZM77.4422 81.8208L77.2502 81.6607L76.9081 82.0708H77.4422V81.8208ZM77.4485 81.8208L77.6519 81.9662L77.9345 81.5708H77.4485V81.8208ZM77.3469 81.9667L77.135 81.8341L77.1257 81.849L77.1185 81.8651L77.3469 81.9667ZM77.2708 82.1316L77.5005 82.2301L77.5046 82.2206L77.5079 82.2107L77.2708 82.1316ZM77.2517 82.176L77.4815 82.2745L77.4815 82.2745L77.2517 82.176ZM77.2073 82.3092L77.4477 82.3779L77.4477 82.3779L77.2073 82.3092ZM77.1946 82.3536L76.9542 82.2848L76.9522 82.292L76.9506 82.2993L77.1946 82.3536ZM77.1629 82.5185L76.9148 82.4874L76.9129 82.5029V82.5185H77.1629ZM77.1629 82.5311V82.7811H77.4129V82.5311H77.1629ZM77.1565 82.5311V82.2811H76.9303L76.9078 82.5062L77.1565 82.5311ZM77.1438 108.99L77.1438 109.24L77.3938 109.24V108.99H77.1438ZM80.2547 85.4477L80.3796 85.2312L80.0046 85.0149L80.0047 85.4478L80.2547 85.4477ZM107.017 100.884L107.267 100.884L107.267 100.74L107.142 100.668L107.017 100.884ZM107.023 131.758L106.898 131.974L107.273 132.19L107.273 131.757L107.023 131.758ZM80.261 116.321L80.011 116.321L80.0111 116.466L80.1361 116.538L80.261 116.321ZM110.127 131.756H109.877V132.189L110.252 131.973L110.127 131.756ZM110.127 100.883L110.002 100.666L109.877 100.738V100.883H110.127ZM119.28 95.6H119.53V95.167L119.155 95.3834L119.28 95.6ZM120.061 109.394L120.187 109.178L120.184 109.176L120.061 109.394ZM121.61 109.394L121.485 109.177L121.483 109.178L121.61 109.394ZM126.961 106.312L127.086 106.528L127.086 106.528L126.961 106.312ZM127.735 90.7231L127.61 90.5066L127.485 90.5788V90.7231H127.735ZM136.889 85.4403L137.139 85.4402L137.138 85.0074L136.764 85.2237L136.889 85.4403ZM136.895 116.32L137.02 116.537L137.145 116.465L137.145 116.32L136.895 116.32ZM51.4176 77.7862L51.4271 77.5362H51.4176V77.7862ZM51.4176 80.8937L51.4176 81.1438L51.4252 81.1436L51.4176 80.8937ZM42.6198 99.3551L42.6173 99.1051L42.5153 99.1061L42.4431 99.1782L42.6198 99.3551ZM33.7966 108.17L33.6199 108.347L33.7966 108.524L33.9733 108.347L33.7966 108.17ZM24.6877 104.619L24.511 104.442L24.5106 104.442L24.6877 104.619ZM24.6877 110.168L24.5106 110.345L24.511 110.345L24.6877 110.168ZM36.5768 116.497L36.4001 116.321L36.4001 116.321L36.5768 116.497ZM48.1802 104.904H48.4302V104.301L48.0035 104.728L48.1802 104.904ZM48.1802 104.911H47.9302V105.5L48.3539 105.091L48.1802 104.911ZM49.3799 102.12L49.1299 102.117L49.1299 102.119L49.3799 102.12ZM48.231 99.3043L48.4085 99.1282L48.4077 99.1274L48.231 99.3043ZM45.419 98.1564L45.4175 97.9064L45.416 97.9064L45.419 98.1564ZM42.6259 99.355L42.6285 99.605L42.733 99.6039L42.8056 99.5288L42.6259 99.355ZM45.9777 102.71L45.983 102.46L45.8764 102.458L45.801 102.533L45.9777 102.71ZM34.3743 114.303L34.5492 114.482L34.551 114.48L34.3743 114.303ZM33.2127 114.303L33.0359 114.48L33.0377 114.482L33.2127 114.303ZM26.8841 107.974L26.7057 108.149L26.7074 108.151L26.8841 107.974ZM26.8841 106.813L26.7109 106.633L26.7057 106.638L26.8841 106.813ZM28.0458 106.813L28.2225 106.636L28.2189 106.633L28.0458 106.813ZM32.0639 110.828L32.2406 110.651L32.2406 110.651L32.0639 110.828ZM35.536 110.828L35.3593 110.651L35.3593 110.651L35.536 110.828ZM44.8225 101.55L44.9992 101.726L45.0046 101.721L45.0097 101.715L44.8225 101.55ZM45.4065 101.29V101.54L45.4136 101.539L45.4065 101.29ZM46.0032 101.524L46.1799 101.347L46.1762 101.344L46.0032 101.524ZM46.2444 102.127L45.9944 102.12V102.127H46.2444ZM45.9841 102.71L45.9788 102.96L46.0795 102.962L46.1536 102.894L45.9841 102.71ZM36.4309 89.2904L36.4312 89.0404H36.4309V89.2904ZM19.2027 100.795L19.4336 100.89L19.4337 100.89L19.2027 100.795ZM23.2462 121.102L23.4229 120.925L23.4228 120.925L23.2462 121.102ZM43.5651 125.142L43.4695 124.911L43.4694 124.911L43.5651 125.142ZM55.0796 107.924L55.3296 107.924L55.3296 107.924L55.0796 107.924ZM36.4309 123.455L36.4309 123.705L36.4313 123.705L36.4309 123.455ZM22.0726 113.866L22.3036 113.77L22.3035 113.77L22.0726 113.866ZM25.4432 96.9451L25.6197 97.122L25.6199 97.1219L25.4432 96.9451ZM42.3789 93.5775L42.4745 93.3465L42.4745 93.3465L42.3789 93.5775ZM51.9764 107.923L52.2264 107.923V107.923H51.9764ZM140 82.7401H140.25C140.25 82.6617 140.242 82.5863 140.235 82.5286L139.987 82.5562L139.738 82.5839C139.745 82.6403 139.75 82.6917 139.75 82.7401H140ZM139.987 82.5562H140.237V82.5372H139.987H139.737V82.5562H139.987ZM139.987 82.5372L140.235 82.5062C140.227 82.4403 140.211 82.3716 140.198 82.318L139.955 82.3787L139.713 82.4393C139.725 82.4872 139.734 82.5327 139.739 82.5682L139.987 82.5372ZM139.955 82.3787L140.195 82.3099L140.183 82.2655L139.942 82.3343L139.702 82.403L139.715 82.4474L139.955 82.3787ZM139.942 82.3343L140.183 82.2655C140.171 82.2232 140.154 82.1638 140.128 82.1025L139.898 82.2011L139.668 82.2996C139.68 82.3272 139.689 82.3565 139.702 82.403L139.942 82.3343ZM139.898 82.2011L140.128 82.1025L140.109 82.0581L139.879 82.1567L139.649 82.2552L139.668 82.2996L139.898 82.2011ZM139.879 82.1567H140.129V82.1503H139.879H139.629V82.1567H139.879ZM139.879 82.1503L140.107 82.0487C140.079 81.9846 140.05 81.9272 140.015 81.864L139.796 81.9855L139.578 82.107C139.606 82.1578 139.628 82.2019 139.651 82.252L139.879 82.1503ZM139.796 81.9855L140.008 81.8529C139.977 81.8032 139.94 81.7437 139.895 81.6832L139.695 81.8332L139.495 81.9833C139.526 82.0243 139.552 82.0662 139.584 82.118L139.796 81.9855ZM139.695 81.8332L139.887 81.6731L139.855 81.6351L139.663 81.7952L139.471 81.9553L139.503 81.9934L139.695 81.8332ZM139.663 81.7952L139.855 81.6351C139.84 81.617 139.826 81.6004 139.812 81.5829C139.798 81.5655 139.783 81.5473 139.766 81.5273L139.574 81.6874L139.382 81.8475C139.397 81.8656 139.411 81.8822 139.425 81.8997C139.439 81.917 139.454 81.9353 139.471 81.9553L139.663 81.7952ZM139.574 81.6874L139.751 81.5105L139.713 81.4725L139.536 81.6493L139.359 81.8262L139.398 81.8642L139.574 81.6874ZM139.536 81.6493H139.286V81.6557H139.536H139.786V81.6493H139.536ZM139.536 81.6557L139.713 81.4788C139.677 81.4431 139.625 81.3901 139.561 81.3444L139.416 81.5479L139.27 81.7514C139.295 81.7691 139.319 81.7921 139.359 81.8325L139.536 81.6557ZM139.416 81.5479L139.592 81.371L139.58 81.3583L139.403 81.5352L139.226 81.712L139.239 81.7247L139.416 81.5479ZM139.403 81.5352L139.541 81.3271C139.499 81.2991 139.428 81.2469 139.359 81.2088L139.238 81.4274L139.116 81.6459C139.162 81.6712 139.192 81.6951 139.264 81.7432L139.403 81.5352ZM139.238 81.4274V81.1774H139.225V81.4274V81.6774H139.238V81.4274ZM139.225 81.4274L139.35 81.2109L109.478 63.9607L109.353 64.1772L109.228 64.3936L139.1 81.6439L139.225 81.4274ZM109.353 64.1772L109.476 63.9595C108.917 63.6437 108.233 63.6437 107.675 63.9595L107.798 64.1772L107.921 64.3948C108.327 64.1652 108.824 64.1652 109.23 64.3948L109.353 64.1772ZM107.798 64.1772L107.673 63.9607L104.315 65.9013L104.44 66.1178L104.565 66.3342L107.923 64.3936L107.798 64.1772ZM104.44 66.1178L104.588 65.9167C97.7589 60.8707 89.8455 57.4814 81.4797 56.0098L81.4364 56.256L81.3931 56.5022C89.6829 57.9605 97.5241 61.319 104.291 66.3189L104.44 66.1178ZM81.4364 56.256L81.5471 56.4802C90.722 51.9513 95.5568 41.7002 93.2262 31.75L92.9828 31.807L92.7394 31.864C95.0169 41.5879 90.2922 51.6059 81.3257 56.0318L81.4364 56.256ZM92.9828 31.807L93.2262 31.75C90.8955 21.7941 82.0096 14.75 71.7815 14.75V15V15.25C81.7774 15.25 90.4616 22.1343 92.7394 31.864L92.9828 31.807ZM71.7815 15V14.75C61.5473 14.75 52.661 21.7934 50.3303 31.75L50.5737 31.807L50.8171 31.864C53.0949 22.1337 61.7793 15.25 71.7815 15.25V15ZM50.5737 31.807L50.3303 31.7501C48.0059 41.6996 52.8406 51.9509 62.0094 56.4802L62.1201 56.256L62.2308 56.0319C53.2705 51.6056 48.5457 41.5872 50.8171 31.8639L50.5737 31.807ZM62.1201 56.256L62.0767 56.0098C54.7373 57.3031 47.7293 60.0745 41.4936 64.1583L41.6306 64.3674L41.7675 64.5766C47.9464 60.53 54.8906 57.7838 62.1635 56.5022L62.1201 56.256ZM41.6306 64.3674V64.1174H11.5552V64.3674V64.6174H41.6306V64.3674ZM11.5552 64.3674V64.1174C11.0766 64.1174 10.613 64.3084 10.274 64.6472L10.4507 64.8241L10.6274 65.0009C10.8723 64.7562 11.2086 64.6174 11.5552 64.6174V64.3674ZM10.4507 64.8241L10.274 64.6472C9.93346 64.9874 9.75 65.4449 9.75 65.9276H10H10.25C10.25 65.5731 10.3839 65.2442 10.6274 65.0009L10.4507 64.8241ZM10 65.9276H9.75V134.446H10H10.25V65.9276H10ZM10 134.446H9.75C9.75 135.441 10.5604 136.25 11.5552 136.25V136V135.75C10.8361 135.75 10.25 135.164 10.25 134.446H10ZM11.5552 136V136.25H61.3141V136V135.75H11.5552V136ZM61.3141 136V136.25C62.3102 136.25 63.1129 135.439 63.1129 134.446H62.8629H62.6129C62.6129 135.165 62.0318 135.75 61.3141 135.75V136ZM62.8629 134.446H63.1129V112.09H62.8629H62.6129V134.446H62.8629ZM62.8629 112.09V112.34H77.1451V112.09V111.84H62.8629V112.09ZM77.1451 112.09H76.8951V117.214H77.1451H77.3951V112.09H77.1451ZM77.1451 117.214V117.464H77.1515V117.214V116.964H77.1451V117.214ZM77.1515 117.214H76.9015C76.9015 117.86 77.2396 118.458 77.8029 118.776L77.9259 118.559L78.0489 118.341C77.6474 118.114 77.4015 117.685 77.4015 117.214H77.1515ZM77.9259 118.559L77.801 118.775L107.673 136.006L107.798 135.789L107.923 135.573L78.0508 118.342L77.9259 118.559ZM107.798 135.789V136.039H107.811V135.789V135.539H107.798V135.789ZM107.811 135.789L107.69 136.008C107.742 136.037 107.82 136.081 107.903 136.109L107.982 135.872L108.061 135.635C108.03 135.624 107.994 135.605 107.932 135.571L107.811 135.789ZM107.982 135.872V136.122H107.995V135.872V135.622H107.982V135.872ZM107.995 135.872L107.907 136.106C107.963 136.127 108.025 136.147 108.081 136.166L108.16 135.929L108.239 135.692C108.181 135.672 108.128 135.655 108.083 135.638L107.995 135.872ZM108.16 135.929L108.091 136.169L108.136 136.182L108.204 135.942L108.273 135.701L108.229 135.689L108.16 135.929ZM108.204 135.942L108.136 136.182C108.2 136.2 108.262 136.209 108.313 136.215L108.344 135.967L108.375 135.719C108.325 135.713 108.297 135.708 108.273 135.701L108.204 135.942ZM108.344 135.967V136.217H108.395V135.967V135.717H108.344V135.967ZM108.395 135.967V135.717H108.388V135.967V136.217H108.395V135.967ZM108.388 135.967L108.351 136.214C108.502 136.237 108.649 136.237 108.796 136.214L108.757 135.967L108.718 135.72C108.624 135.735 108.529 135.735 108.426 135.72L108.388 135.967ZM108.757 135.967V136.217H108.807V135.967V135.717H108.757V135.967ZM108.807 135.967L108.843 136.214C108.879 136.209 108.951 136.201 109.016 136.182L108.947 135.942L108.878 135.701C108.855 135.708 108.825 135.712 108.772 135.719L108.807 135.967ZM108.947 135.942L109.016 136.182L109.06 136.169L108.992 135.929L108.923 135.689L108.879 135.701L108.947 135.942ZM108.992 135.929L109.071 136.166C109.107 136.154 109.186 136.132 109.258 136.1L109.157 135.872L109.055 135.643C109.012 135.662 108.991 135.666 108.913 135.692L108.992 135.929ZM109.157 135.872V136.122H109.169V135.872V135.622H109.157V135.872ZM109.169 135.872L109.248 136.109C109.332 136.081 109.41 136.037 109.462 136.008L109.341 135.789L109.219 135.571C109.157 135.605 109.121 135.624 109.09 135.635L109.169 135.872ZM109.341 135.789V136.039H109.353V135.789V135.539H109.341V135.789ZM109.353 135.789L109.478 136.006L139.351 118.775L139.226 118.559L139.101 118.342L109.228 135.573L109.353 135.789ZM139.226 118.559L139.35 118.776C139.904 118.458 140.25 117.861 140.25 117.214H140H139.75C139.75 117.683 139.499 118.114 139.101 118.342L139.226 118.559ZM140 117.214L140.25 117.214L140.25 82.7401L140 82.7401L139.75 82.7402L139.75 117.214L140 117.214ZM108.572 67.3164L108.447 67.533L135.216 82.9694L135.341 82.7528L135.466 82.5362L108.697 67.0999L108.572 67.3164ZM135.341 82.7528L135.216 82.5363L126.062 87.8192L126.187 88.0357L126.312 88.2522L135.466 82.9693L135.341 82.7528ZM126.187 88.0357L126.312 87.8191L99.5438 72.3827L99.4189 72.5993L99.294 72.8159L126.063 88.2522L126.187 88.0357ZM99.4189 72.5993L99.5439 72.8158L108.697 67.533L108.572 67.3164L108.447 67.0999L99.2939 72.3828L99.4189 72.5993ZM122.385 92.8938H122.635V92.6845H122.385H122.135V92.8938H122.385ZM122.385 92.6845L122.627 92.6238L122.614 92.5731L122.372 92.6338L122.129 92.6945L122.142 92.7452L122.385 92.6845ZM122.372 92.6338H122.622V92.5894H122.372H122.122V92.6338H122.372ZM122.372 92.5894L122.614 92.5287L122.576 92.3765L122.334 92.4372L122.091 92.4979L122.129 92.6501L122.372 92.5894ZM122.334 92.4372L122.574 92.3685L122.562 92.3241L122.321 92.3928L122.081 92.4615L122.093 92.5059L122.334 92.4372ZM122.321 92.3928L122.555 92.305L122.536 92.2542L122.302 92.3421L122.068 92.4299L122.087 92.4807L122.321 92.3928ZM122.302 92.3421L122.526 92.2302L122.5 92.1794L122.277 92.2913L122.053 92.4032L122.079 92.454L122.302 92.3421ZM122.277 92.2913L122.509 92.1984L122.496 92.1667L122.264 92.2596L122.032 92.3525L122.045 92.3842L122.277 92.2913ZM122.264 92.2596L122.488 92.1477L122.462 92.097L122.239 92.2089L122.015 92.3208L122.04 92.3715L122.264 92.2596ZM122.239 92.2089L122.451 92.0763L122.419 92.0256L122.207 92.1581L121.995 92.2907L122.027 92.3414L122.239 92.2089ZM122.207 92.1581H122.457V92.1455H122.207H121.957V92.1581H122.207ZM122.207 92.1455L122.384 91.9686L122.371 91.9559L122.194 92.1328L122.018 92.3097L122.03 92.3224L122.207 92.1455ZM122.194 92.1328L122.406 92.0002L122.343 91.8987L122.131 92.0313L121.919 92.1639L121.982 92.2654L122.194 92.1328ZM122.131 92.0313L122.345 91.9026L122.326 91.8709L122.112 91.9996L121.897 92.1283L121.916 92.16L122.131 92.0313ZM122.112 91.9996L122.301 91.8368L122.263 91.7924L122.074 91.9552L121.884 92.118L121.922 92.1624L122.112 91.9996ZM122.074 91.9552L122.266 91.7951L122.234 91.757L122.042 91.9171L121.85 92.0773L121.882 92.1153L122.074 91.9552ZM122.042 91.9171L122.237 91.7609L122.212 91.7292L122.016 91.8854L121.821 92.0417L121.847 92.0734L122.042 91.9171ZM122.016 91.8854L122.193 91.7086L122.079 91.5944L121.902 91.7713L121.725 91.9481L121.84 92.0623L122.016 91.8854ZM121.902 91.7713L122.014 91.5476L121.95 91.5159L121.839 91.7396L121.727 91.9632L121.79 91.9949L121.902 91.7713ZM121.839 91.7396L121.999 91.5474L121.961 91.5157L121.801 91.7079L121.641 91.9L121.679 91.9317L121.839 91.7396ZM121.801 91.7079L121.946 91.5044L121.901 91.4727L121.756 91.6762L121.611 91.8797L121.655 91.9114L121.801 91.7079ZM121.756 91.6762L121.912 91.4809L121.881 91.4555L121.724 91.6508L121.568 91.8461L121.6 91.8714L121.756 91.6762ZM121.724 91.6508L121.857 91.4387L121.806 91.407L121.674 91.6191L121.541 91.8311L121.592 91.8628L121.724 91.6508ZM121.674 91.6191L121.819 91.4156L121.774 91.3839L121.629 91.5874L121.484 91.7909L121.528 91.8226L121.674 91.6191ZM121.629 91.5874L121.768 91.3793L121.749 91.3666L121.61 91.5747L121.472 91.7827L121.491 91.7954L121.629 91.5874ZM121.61 91.5747L121.735 91.3582L94.1931 75.4651L94.0682 75.6816L93.9432 75.8981L121.485 91.7912L121.61 91.5747ZM94.0682 75.6816L94.1936 75.8978L96.4343 74.5977L96.3089 74.3815L96.1834 74.1653L93.9427 75.4654L94.0682 75.6816ZM96.3089 74.3815L96.1839 74.598L124.508 90.9407L124.633 90.7241L124.757 90.5076L96.4338 74.165L96.3089 74.3815ZM124.633 90.7241H124.383V104.08H124.633H124.883V90.7241H124.633ZM124.633 104.08L124.507 103.864L122.266 105.164L122.392 105.381L122.517 105.597L124.758 104.297L124.633 104.08ZM122.392 105.381H122.642V92.8995H122.392H122.142V105.381H122.392ZM122.392 92.8995L122.547 92.7032L122.539 92.6975L122.385 92.8938L122.23 93.0901L122.237 93.0958L122.392 92.8995ZM108.572 98.1894L108.697 97.9728L81.935 82.5427L81.8101 82.7593L81.6853 82.9759L108.447 98.4059L108.572 98.1894ZM81.8101 82.7593L81.9351 82.9758L91.0884 77.693L90.9634 77.4764L90.8384 77.2599L81.6852 82.5428L81.8101 82.7593ZM90.9634 77.4764L90.8385 77.693L117.601 93.1294L117.725 92.9128L117.85 92.6963L91.0883 77.2599L90.9634 77.4764ZM117.725 92.9128L117.601 92.6962L108.447 97.9728L108.572 98.1894L108.697 98.4059L117.85 93.1294L117.725 92.9128ZM53.0997 36.7672H53.3497C53.3497 29.3217 57.8399 22.6141 64.7229 19.761L64.6271 19.53L64.5314 19.2991C57.4621 22.2294 52.8497 29.119 52.8497 36.7672H53.0997ZM64.6271 19.53L64.7227 19.761C71.6055 16.9141 79.5341 18.4909 84.8002 23.7531L84.9769 23.5762L85.1536 23.3994C79.7445 17.9943 71.601 16.3749 64.5316 19.299L64.6271 19.53ZM84.9769 23.5762L84.8002 23.7531C90.0663 29.0153 91.6451 36.9303 88.7895 43.8072L89.0204 43.9031L89.2513 43.9989C92.1846 36.9347 90.5627 28.8045 85.1536 23.3994L84.9769 23.5762ZM89.0204 43.9031L88.7894 43.8074C85.9401 50.6901 79.2267 55.1702 71.7743 55.1702V55.4202V55.6702C79.4286 55.6702 86.3245 51.0685 89.2514 43.9987L89.0204 43.9031ZM71.7743 55.4202L71.7745 55.1702C61.6036 55.1639 53.3627 46.9295 53.3499 36.7685L53.0999 36.7689L52.8499 36.7692C52.8631 47.2062 61.3278 55.6638 71.7742 55.6702L71.7743 55.4202ZM53.0999 36.7689L53.3486 36.7433L53.3484 36.7416L53.0997 36.7672L52.8511 36.7928L52.8512 36.7945L53.0999 36.7689ZM59.7648 132.899V132.649H13.1031V132.899V133.149H59.7648V132.899ZM13.1031 132.899H13.3531V67.475H13.1031H12.8531V132.899H13.1031ZM13.1031 67.475V67.725H59.7583V67.475V67.225H13.1031V67.475ZM59.7583 67.475L59.5083 67.4751L59.5148 132.899L59.7648 132.899L60.0148 132.899L60.0083 67.475L59.7583 67.475ZM62.8689 108.989H63.1189V65.9278H62.8689H62.6189V108.989H62.8689ZM62.8689 65.9278H63.1189C63.1189 64.9277 62.3155 64.124 61.3201 64.124V64.374V64.624C62.0385 64.624 62.6189 65.2029 62.6189 65.9278H62.8689ZM61.3201 64.374V64.124H47.7679V64.374V64.624H61.3201V64.374ZM47.7679 64.374L47.8829 64.596C56.2659 60.2536 65.6722 58.278 75.0908 58.8839L75.1068 58.6344L75.1229 58.385C65.6135 57.7732 56.1166 59.7679 47.653 64.152L47.7679 64.374ZM75.1068 58.6344L75.091 58.8839C84.5098 59.4835 93.5884 62.6456 101.344 68.0294L101.487 67.8241L101.63 67.6187C93.7987 62.1829 84.6325 58.9903 75.1227 58.385L75.1068 58.6344ZM101.487 67.8241L101.362 67.6075L77.7997 81.1984L77.9246 81.415L78.0495 81.6315L101.612 68.0406L101.487 67.8241ZM77.9246 81.415V81.165H77.9119V81.415V81.665H77.9246V81.415ZM77.9119 81.415L77.8104 81.1865C77.7281 81.223 77.6535 81.274 77.5969 81.3164L77.7469 81.5164L77.8968 81.7165C77.9417 81.6828 77.9814 81.6576 78.0133 81.6434L77.9119 81.415ZM77.7469 81.5164L77.5702 81.3396L77.5575 81.3523L77.7342 81.5291L77.9109 81.706L77.9235 81.6933L77.7469 81.5164ZM77.7342 81.5291L77.5889 81.3256C77.5332 81.3654 77.4692 81.4259 77.4446 81.447L77.6072 81.6369L77.7698 81.8268C77.834 81.7718 77.8462 81.7563 77.8794 81.7326L77.7342 81.5291ZM77.6072 81.6369L77.4305 81.4601L77.3924 81.4981L77.5691 81.675L77.7458 81.8518L77.7839 81.8138L77.6072 81.6369ZM77.5691 81.675L77.3924 81.4981C77.3511 81.5394 77.3119 81.5867 77.2819 81.6227L77.4739 81.7828L77.6659 81.9429C77.6994 81.9028 77.7236 81.874 77.7458 81.8518L77.5691 81.675ZM77.4739 81.7828L77.2819 81.6227L77.2502 81.6607L77.4422 81.8208L77.6341 81.981L77.6659 81.9429L77.4739 81.7828ZM77.4422 81.8208V82.0708H77.4485V81.8208V81.5708H77.4422V81.8208ZM77.4485 81.8208L77.2451 81.6755C77.2182 81.7131 77.1722 81.7747 77.135 81.8341L77.3469 81.9667L77.5589 82.0993C77.5852 82.0572 77.6153 82.0174 77.6519 81.9662L77.4485 81.8208ZM77.3469 81.9667L77.1185 81.8651C77.1089 81.8867 77.0998 81.9035 77.0829 81.9373C77.0682 81.9666 77.049 82.0065 77.0336 82.0525L77.2708 82.1316L77.5079 82.2107C77.5116 82.1996 77.5178 82.1856 77.5301 82.161C77.5401 82.1409 77.5596 82.1038 77.5754 82.0683L77.3469 81.9667ZM77.2708 82.1316L77.041 82.033L77.022 82.0774L77.2517 82.176L77.4815 82.2745L77.5005 82.2301L77.2708 82.1316ZM77.2517 82.176L77.022 82.0774C76.9957 82.1387 76.979 82.1981 76.9669 82.2404L77.2073 82.3092L77.4477 82.3779C77.461 82.3315 77.4697 82.3021 77.4815 82.2745L77.2517 82.176ZM77.2073 82.3092L76.9669 82.2404L76.9542 82.2848L77.1946 82.3536L77.435 82.4223L77.4477 82.3779L77.2073 82.3092ZM77.1946 82.3536L76.9506 82.2993C76.9385 82.3533 76.9229 82.4227 76.9148 82.4874L77.1629 82.5185L77.4109 82.5495C77.4155 82.5128 77.4253 82.468 77.4386 82.4078L77.1946 82.3536ZM77.1629 82.5185H76.9129V82.5311H77.1629H77.4129V82.5185H77.1629ZM77.1629 82.5311V82.2811H77.1565V82.5311V82.7811H77.1629V82.5311ZM77.1565 82.5311L76.9078 82.5062C76.9016 82.5675 76.8938 82.6434 76.8938 82.7214H77.1438H77.3938C77.3938 82.6726 77.3987 82.6216 77.4053 82.556L77.1565 82.5311ZM77.1438 82.7214H76.8938V108.99H77.1438H77.3938V82.7214H77.1438ZM77.1438 108.99L77.1438 108.74L62.8689 108.739L62.8689 108.989L62.8689 109.239L77.1438 109.24L77.1438 108.99ZM80.2547 85.4477L80.1298 85.6643L106.892 101.101L107.017 100.884L107.142 100.668L80.3796 85.2312L80.2547 85.4477ZM107.017 100.884L106.767 100.884L106.773 131.758L107.023 131.758L107.273 131.757L107.267 100.884L107.017 100.884ZM107.023 131.758L107.148 131.541L80.3859 116.105L80.261 116.321L80.1361 116.538L106.898 131.974L107.023 131.758ZM80.261 116.321L80.511 116.321L80.5047 85.4477L80.2547 85.4477L80.0047 85.4478L80.011 116.321L80.261 116.321ZM110.127 131.756H110.377V100.883H110.127H109.877V131.756H110.127ZM110.127 100.883L110.252 101.099L119.405 95.8165L119.28 95.6L119.155 95.3834L110.002 100.666L110.127 100.883ZM119.28 95.6H119.03V108.049H119.28H119.53V95.6H119.28ZM119.28 108.049H119.03C119.03 108.697 119.376 109.294 119.938 109.611L120.061 109.394L120.184 109.176C119.781 108.948 119.53 108.518 119.53 108.049H119.28ZM120.061 109.394L119.935 109.609C120.489 109.934 121.182 109.934 121.736 109.609L121.61 109.394L121.483 109.178C121.085 109.411 120.585 109.411 120.187 109.178L120.061 109.394ZM121.61 109.394L121.735 109.61L127.086 106.528L126.961 106.312L126.836 106.095L121.485 109.177L121.61 109.394ZM126.961 106.312L127.086 106.528C127.646 106.204 127.985 105.607 127.985 104.967H127.735H127.485C127.485 105.431 127.24 105.861 126.836 106.095L126.961 106.312ZM127.735 104.967H127.985V90.7231H127.735H127.485V104.967H127.735ZM127.735 90.7231L127.86 90.9397L137.014 85.6568L136.889 85.4403L136.764 85.2237L127.61 90.5066L127.735 90.7231ZM136.889 85.4403L136.639 85.4403L136.645 116.32L136.895 116.32L137.145 116.32L137.139 85.4402L136.889 85.4403ZM136.895 116.32L136.77 116.104L110.002 131.54L110.127 131.756L110.252 131.973L137.02 116.537L136.895 116.32ZM19.8959 79.3399H20.1459C20.1459 78.6214 20.7263 78.0362 21.4511 78.0362V77.7862V77.5362C20.4493 77.5362 19.6459 78.3462 19.6459 79.3399H19.8959ZM21.4511 77.7862V78.0362H51.4176V77.7862V77.5362H21.4511V77.7862ZM51.4176 77.7862L51.4081 78.036C52.1134 78.0627 52.672 78.6388 52.672 79.3399H52.922H53.172C53.172 78.3668 52.3976 77.5731 51.4271 77.5363L51.4176 77.7862ZM52.922 79.3399H52.672C52.672 80.0484 52.1127 80.6226 51.41 80.6438L51.4176 80.8937L51.4252 81.1436C52.3982 81.1142 53.172 80.3184 53.172 79.3399H52.922ZM51.4176 80.8937V80.6437H21.4511V80.8937V81.1437H51.4176V80.8937ZM21.4511 80.8937V80.6437C21.1045 80.6437 20.7682 80.505 20.5233 80.2603L20.3466 80.4371L20.1699 80.614C20.5089 80.9527 20.9725 81.1437 21.4511 81.1437V80.8937ZM20.3466 80.4371L20.5233 80.2603C20.2794 80.0166 20.1459 79.6876 20.1459 79.3399H19.8959H19.6459C19.6459 79.8168 19.8298 80.2741 20.1699 80.614L20.3466 80.4371ZM42.6198 99.3551L42.4431 99.1782L33.6199 107.994L33.7966 108.17L33.9733 108.347L42.7965 99.5319L42.6198 99.3551ZM33.7966 108.17L33.9733 107.994L30.4186 104.442L30.2419 104.619L30.0652 104.796L33.6199 108.347L33.7966 108.17ZM30.2419 104.619L30.4186 104.442C28.7849 102.81 26.1447 102.81 24.511 104.442L24.6877 104.619L24.8644 104.796C26.3029 103.359 28.6267 103.359 30.0652 104.796L30.2419 104.619ZM24.6877 104.619L24.5106 104.442C22.8836 106.075 22.8836 108.712 24.5106 110.345L24.6877 110.168L24.8648 109.992C23.4322 108.555 23.4322 106.233 24.8648 104.795L24.6877 104.619ZM24.6877 110.168L24.511 110.345L30.8459 116.674L31.0226 116.497L31.1993 116.321L24.8644 109.991L24.6877 110.168ZM31.0226 116.497L30.8459 116.674C32.4796 118.307 35.1198 118.307 36.7535 116.674L36.5768 116.497L36.4001 116.321C34.9616 117.758 32.6378 117.758 31.1993 116.321L31.0226 116.497ZM36.5768 116.497L36.7535 116.674L48.3569 105.081L48.1802 104.904L48.0035 104.728L36.4001 116.321L36.5768 116.497ZM48.1802 104.904H47.9302V104.911H48.1802H48.4302V104.904H48.1802ZM48.1802 104.911L48.3539 105.091C49.1636 104.309 49.6232 103.242 49.6299 102.122L49.3799 102.12L49.1299 102.119C49.124 103.104 48.7203 104.041 48.0066 104.731L48.1802 104.911ZM49.3799 102.12L49.6299 102.123C49.6434 101.002 49.1974 99.9232 48.4085 99.1282L48.231 99.3043L48.0536 99.4803C48.75 100.182 49.1418 101.133 49.13 102.117L49.3799 102.12ZM48.231 99.3043L48.4077 99.1274C47.6172 98.3376 46.5372 97.8996 45.4175 97.9064L45.419 98.1564L45.4205 98.4064C46.4084 98.4004 47.3595 98.7869 48.0543 99.4811L48.231 99.3043ZM45.419 98.1564L45.416 97.9064C44.2963 97.9199 43.2232 98.378 42.4463 99.1812L42.6259 99.355L42.8056 99.5288C43.4888 98.8226 44.4342 98.4182 45.422 98.4063L45.419 98.1564ZM42.6259 99.355L42.6234 99.105L42.6173 99.1051L42.6198 99.3551L42.6224 99.605L42.6285 99.605L42.6259 99.355ZM45.9777 102.71L45.801 102.533L34.1976 114.126L34.3743 114.303L34.551 114.48L46.1544 102.887L45.9777 102.71ZM34.3743 114.303L34.1994 114.124C33.9728 114.346 33.6142 114.346 33.3876 114.124L33.2127 114.303L33.0377 114.482C33.4587 114.894 34.1283 114.894 34.5492 114.482L34.3743 114.303ZM33.2127 114.303L33.3895 114.126L27.0609 107.797L26.8841 107.974L26.7074 108.151L33.0359 114.48L33.2127 114.303ZM26.8841 107.974L27.0626 107.799C26.8406 107.573 26.8406 107.215 27.0626 106.988L26.8841 106.813L26.7057 106.638C26.2929 107.059 26.2929 107.728 26.7057 108.149L26.8841 107.974ZM26.8841 106.813L27.0573 106.994C27.2843 106.776 27.6456 106.776 27.8726 106.994L28.0458 106.813L28.2189 106.633C27.7984 106.229 27.1315 106.229 26.711 106.633L26.8841 106.813ZM28.0458 106.813L27.8691 106.99L31.8872 111.005L32.0639 110.828L32.2406 110.651L28.2225 106.636L28.0458 106.813ZM32.0639 110.828L31.8872 111.005C32.9433 112.06 34.6567 112.06 35.7127 111.005L35.536 110.828L35.3593 110.651C34.4985 111.511 33.1014 111.511 32.2406 110.651L32.0639 110.828ZM35.536 110.828L35.7127 111.005L44.9992 101.726L44.8225 101.55L44.6458 101.373L35.3593 110.651L35.536 110.828ZM44.8225 101.55L45.0097 101.715C45.107 101.605 45.254 101.54 45.4065 101.54V101.29V101.04C45.1146 101.04 44.83 101.164 44.6353 101.384L44.8225 101.55ZM45.4065 101.29L45.4136 101.539C45.565 101.535 45.7169 101.596 45.8301 101.705L46.0032 101.524L46.1762 101.344C45.9721 101.148 45.6923 101.031 45.3994 101.04L45.4065 101.29ZM46.0032 101.524L45.8265 101.701C45.9377 101.812 45.9989 101.962 45.9945 102.12L46.2444 102.127L46.4943 102.134C46.5026 101.835 46.386 101.553 46.1799 101.347L46.0032 101.524ZM46.2444 102.127H45.9944C45.9944 102.276 45.9307 102.419 45.8146 102.526L45.9841 102.71L46.1536 102.894C46.3676 102.696 46.4944 102.422 46.4944 102.127H46.2444ZM45.9841 102.71L45.9894 102.46L45.983 102.46L45.9777 102.71L45.9724 102.96L45.9788 102.96L45.9841 102.71ZM36.4309 89.2904V89.0404C28.789 89.0404 21.893 93.642 18.9717 100.699L19.2027 100.795L19.4337 100.89C22.2775 94.0205 28.9909 89.5404 36.4309 89.5404V89.2904ZM19.2027 100.795L18.9718 100.699C16.0449 107.756 17.6595 115.88 23.0696 121.279L23.2462 121.102L23.4228 120.925C18.1561 115.669 16.5843 107.761 19.4336 100.89L19.2027 100.795ZM23.2462 121.102L23.0695 121.279C28.4728 126.677 36.6039 128.297 43.6608 125.373L43.5651 125.142L43.4694 124.911C36.5995 127.758 28.6834 126.181 23.4229 120.925L23.2462 121.102ZM43.5651 125.142L43.6607 125.373C50.7238 122.449 55.3296 115.565 55.3296 107.924H55.0796H54.8296C54.8296 115.363 50.3459 122.064 43.4695 124.911L43.5651 125.142ZM55.0796 107.924L55.3296 107.924C55.3168 97.4992 46.8655 89.0535 36.4312 89.0404L36.4309 89.2904L36.4306 89.5404C46.5895 89.5532 54.8171 97.7758 54.8296 107.924L55.0796 107.924ZM36.4309 123.455V123.205C30.2478 123.205 24.6705 119.479 22.3036 113.77L22.0726 113.866L21.8417 113.961C24.286 119.858 30.0457 123.705 36.4309 123.705V123.455ZM22.0726 113.866L22.3035 113.77C19.9365 108.06 21.2418 101.49 25.6197 97.122L25.4432 96.9451L25.2666 96.7681C20.7452 101.279 19.3971 108.065 21.8417 113.961L22.0726 113.866ZM25.4432 96.9451L25.6199 97.1219C29.9918 92.7539 36.5684 91.4435 42.2833 93.8085L42.3789 93.5775L42.4745 93.3465C36.5728 90.9042 29.7813 92.2574 25.2665 96.7682L25.4432 96.9451ZM42.3789 93.5775L42.2833 93.8085C47.998 96.1736 51.7264 101.746 51.7264 107.923H51.9764H52.2264C52.2264 101.543 48.3758 95.7888 42.4745 93.3465L42.3789 93.5775ZM51.9764 107.923L51.7264 107.923C51.7139 116.359 44.8749 123.192 36.4305 123.205L36.4309 123.455L36.4313 123.705C45.1507 123.692 52.2135 116.636 52.2264 107.923L51.9764 107.923Z" fill="#663366" mask="url(#path-1-outside-1_259_1855)"/>
</svg>
