<svg width="150" height="150" viewBox="0 0 150 150" fill="none" xmlns="http://www.w3.org/2000/svg">
<path fill-rule="evenodd" clip-rule="evenodd" d="M74.9875 120.257C73.5726 120.257 72.1633 120.492 70.7312 120.964C65.5375 122.678 62.2819 128.815 62.9433 132.956C63.3862 135.7 65.428 137.155 68.8561 137.155H81.1188C84.5468 137.155 86.5946 135.706 87.0316 132.956C87.6988 128.815 84.4433 122.678 79.2494 120.964C77.8172 120.492 76.4022 120.257 74.9931 120.257H74.9875ZM81.119 139.99H68.8562C64.0593 139.99 60.8037 137.529 60.1422 133.405C59.2852 128.05 63.2482 120.44 69.8454 118.266C73.308 117.127 76.6727 117.127 80.1354 118.266C86.7269 120.44 90.6956 128.05 89.8328 133.405C89.1771 137.529 85.9159 139.99 81.119 139.99Z" fill="#663366"/>
<path fill-rule="evenodd" clip-rule="evenodd" d="M108.652 139.99H93.3576C90.2344 139.99 87.6346 139.386 85.6272 138.201C84.9543 137.805 84.73 136.93 85.1326 136.257C85.5295 135.584 86.398 135.36 87.0767 135.757C88.6411 136.683 90.7521 137.155 93.3576 137.155H108.658C113.127 137.155 115.796 135.245 116.382 131.621C117.234 126.318 113.069 118.461 106.432 116.27C97.4131 113.296 89.7284 117.932 86.1165 123.845C85.7081 124.512 84.8338 124.725 84.1667 124.316C83.4995 123.908 83.2866 123.034 83.695 122.366C85.8922 118.766 89.2397 115.85 93.0991 114.159C97.5855 112.192 102.498 111.996 107.317 113.578C115.381 116.229 120.23 125.53 119.183 132.07C118.378 137.103 114.542 139.99 108.658 139.99L108.652 139.99Z" fill="#663366"/>
<path fill-rule="evenodd" clip-rule="evenodd" d="M56.6157 139.99H41.3213C35.4373 139.99 31.6008 137.103 30.7956 132.07C29.7488 125.531 34.5975 116.23 42.6616 113.578C47.4757 111.996 52.3936 112.192 56.8741 114.159C60.7393 115.85 64.081 118.766 66.284 122.366C66.6923 123.034 66.4795 123.908 65.8123 124.316C65.1451 124.725 64.2708 124.512 63.8625 123.845C60.2504 117.938 52.566 113.302 43.5471 116.27C36.9095 118.455 32.7453 126.318 33.5965 131.621C34.1775 135.245 36.8462 137.155 41.3212 137.155H56.6214C59.2269 137.155 61.3378 136.683 62.9023 135.757C63.5753 135.36 64.4438 135.584 64.8464 136.257C65.2433 136.93 65.0247 137.805 64.346 138.201C62.3443 139.386 59.7388 139.99 56.6214 139.99L56.6157 139.99Z" fill="#663366"/>
<path fill-rule="evenodd" clip-rule="evenodd" d="M67.7588 122.238C67.3906 122.238 67.0168 122.095 66.7407 121.813C63.5082 118.5 63.7325 113.611 67.4136 107.295C67.6955 106.812 68.2304 106.536 68.7826 106.599C69.3347 106.657 69.8064 107.031 69.9847 107.56C71.0775 110.804 72.038 112.058 72.6305 112.535C75.3971 109.596 76.1736 104.994 75.2533 102.142C75.052 101.503 75.3108 100.813 75.8917 100.479C76.4669 100.14 77.2031 100.255 77.6517 100.75C84.41 108.135 85.7732 115.428 81.3905 120.749C80.8901 121.352 79.9985 121.439 79.3945 120.938C78.7906 120.444 78.7043 119.546 79.2047 118.942C81.9828 115.572 81.6723 111.149 78.3995 106.243C78.0716 109.423 76.6509 112.851 73.8671 115.29C73.545 115.578 73.1021 115.698 72.6765 115.624C71.0602 115.33 69.6914 113.979 68.4777 111.436C66.8269 115.186 66.9304 117.953 68.7767 119.845C69.3232 120.409 69.3117 121.306 68.7537 121.853C68.4776 122.123 68.121 122.255 67.7644 122.255L67.7588 122.238Z" fill="#663366"/>
<path fill-rule="evenodd" clip-rule="evenodd" d="M93.2431 117.061C93.0188 117.061 92.7887 117.009 92.5759 116.894C91.8857 116.526 91.6268 115.669 91.9949 114.973C94.4969 110.286 93.8814 104.189 90.2694 97.8045C86.9391 91.9204 81.4289 86.3872 74.5848 82.0153C75.0507 88.3366 74.7574 93.7431 73.7163 97.7809C72.5717 102.233 70.5355 104.89 67.9703 105.264C64.594 105.753 61.6376 102.365 59.9237 96.2681C55.6961 102.75 54.3272 109.112 56.07 114.403C56.3173 115.151 55.9147 115.95 55.1669 116.192C54.425 116.439 53.6197 116.036 53.3782 115.289C51.1005 108.392 53.2574 100.121 59.4636 92.0002C59.8029 91.5573 60.3723 91.3503 60.9188 91.4826C61.4652 91.6149 61.885 92.052 61.9886 92.6042C63.2425 99.3452 65.7905 102.71 67.5621 102.451C69.604 102.158 73.2449 96.1531 71.5078 79.4957C71.4561 78.9607 71.6977 78.4488 72.1463 78.1555C72.5949 77.8679 73.1644 77.8506 73.6245 78.1152C91.3278 88.2843 100.491 105.057 94.4921 116.308C94.2333 116.785 93.7444 117.061 93.2382 117.061L93.2431 117.061Z" fill="#663366"/>
<path fill-rule="evenodd" clip-rule="evenodd" d="M20.6681 55.1683C20.6106 55.1683 20.5473 55.1625 20.484 55.1568C19.7076 55.059 19.1611 54.3458 19.2589 53.5693C20.5761 43.3829 22.4338 33.8458 24.8036 25.2364C24.9704 24.6209 25.5283 24.1953 26.1668 24.1953H32.9539C33.4313 24.1953 33.8799 24.4426 34.1388 24.8453C34.4033 25.2479 34.4379 25.7598 34.2423 26.1969C31.9129 31.4138 30.0953 40.7259 28.8587 53.8923C28.7839 54.6746 28.088 55.244 27.3114 55.1692C26.5292 55.1002 25.9598 54.4042 26.0288 53.622C27.1561 41.6583 28.7782 32.7367 30.8487 27.0368H27.2481C25.0567 35.2446 23.3082 44.2925 22.0658 53.9385C21.9738 54.6518 21.3641 55.1752 20.6624 55.1752L20.6681 55.1683ZM25.9885 139.989H19.6041C18.8564 139.989 18.2352 139.408 18.1892 138.66C16.8145 116.936 15.6009 88.4364 18.4365 60.6895C18.517 59.9072 19.213 59.3436 19.9895 59.4241C20.7717 59.5046 21.3354 60.2006 21.2549 60.9828C18.4998 87.9582 19.6041 115.711 20.9328 137.159H24.5219C24.2055 126.967 23.291 90.3789 25.4422 60.7355C25.4997 59.9532 26.1784 59.3665 26.9606 59.4241C27.7428 59.4816 28.3295 60.1603 28.272 60.9425C26.0115 92.1231 27.1504 131.044 27.4035 138.527C27.4207 138.913 27.2712 139.287 27.0066 139.563C26.7363 139.839 26.3739 140 25.9828 140L25.9885 139.989Z" fill="#663366"/>
<path fill-rule="evenodd" clip-rule="evenodd" d="M42.5816 62.2498H11.4878C10.7861 62.2498 10.1879 61.7379 10.0844 61.0419C9.67601 58.3155 10.7516 55.5374 13.2767 52.7881C13.547 52.4947 13.9266 52.3279 14.3235 52.3279H41.2414C42.0236 52.3279 42.6563 52.9606 42.6563 53.7486C42.6563 54.5309 42.0236 55.1693 41.2357 55.1693H14.9553C13.7072 56.6418 13.0055 58.0624 12.8616 59.4141H42.5757C43.358 59.4141 43.9907 60.0525 43.9907 60.8348C43.9907 61.617 43.358 62.2555 42.5757 62.2555L42.5816 62.2498ZM138.481 62.2498H98.7704C97.9882 62.2498 97.3497 61.6171 97.3497 60.8291C97.3497 60.0469 97.9824 59.4084 98.7704 59.4084H137.1C136.956 58.0568 136.254 56.6361 135.006 55.1636H99.707C98.9248 55.1636 98.2921 54.5309 98.2921 53.7429C98.2921 52.955 98.9248 52.3223 99.707 52.3223H135.644C136.041 52.3223 136.42 52.4891 136.685 52.7824C139.216 55.526 140.285 58.3041 139.883 61.0362C139.779 61.7322 139.181 62.2441 138.479 62.2441L138.481 62.2498Z" fill="#663366"/>
<path fill-rule="evenodd" clip-rule="evenodd" d="M129.297 55.1693C128.595 55.1693 127.985 54.6459 127.893 53.9327C126.645 44.2869 124.902 35.2399 122.711 27.0309H119.11C121.181 32.731 122.797 41.652 123.93 53.6161C124.005 54.3983 123.43 55.0885 122.647 55.1633C121.865 55.2381 121.175 54.6687 121.1 53.8865C119.858 40.7264 118.046 31.408 115.717 26.1911C115.521 25.7539 115.561 25.2478 115.82 24.8394C116.085 24.4368 116.528 24.1895 117.011 24.1895H123.798C124.436 24.1895 125 24.6208 125.167 25.2305C127.531 33.841 129.394 43.3711 130.712 53.5635C130.815 54.34 130.263 55.0531 129.486 55.1509C129.423 55.1567 129.366 55.1624 129.302 55.1624L129.297 55.1693ZM130.355 139.99H123.97C123.585 139.99 123.217 139.835 122.952 139.553C122.682 139.277 122.544 138.903 122.555 138.518C122.809 131.035 123.947 92.1117 121.687 60.9325C121.629 60.1502 122.216 59.4715 122.998 59.4141C123.781 59.3566 124.459 59.9433 124.517 60.7255C126.668 90.3763 125.753 126.956 125.437 137.149H129.02C130.355 115.707 131.453 87.9482 128.698 60.9729C128.618 60.1906 129.187 59.4947 129.964 59.4141C130.74 59.3393 131.436 59.903 131.517 60.6795C134.352 88.4264 133.139 116.926 131.764 138.65C131.718 139.398 131.097 139.979 130.349 139.979L130.355 139.99Z" fill="#663366"/>
<path fill-rule="evenodd" clip-rule="evenodd" d="M100.922 28.0147C100.56 28.0147 100.198 27.8767 99.9217 27.6006C99.3695 27.0427 99.3695 26.1454 99.9217 25.5932L103.971 21.544C104.253 21.2621 104.638 21.1068 105.035 21.1298C105.438 21.1471 105.806 21.3312 106.059 21.636C106.571 22.2457 107.284 22.6023 108.078 22.6368C108.86 22.6713 109.608 22.3837 110.166 21.8258C111.253 20.7387 111.253 18.9787 110.166 17.8916C109.642 17.3682 108.946 17.0806 108.204 17.0806H108.147C107.773 17.0806 107.411 16.931 107.14 16.6664C106.87 16.3961 106.72 16.028 106.726 15.6484C106.738 14.8891 106.45 14.1817 105.915 13.6467C105.392 13.1233 104.69 12.8357 103.948 12.8357C103.206 12.8357 102.51 13.1233 101.981 13.6467C101.423 14.2046 101.136 14.9466 101.17 15.7347C101.205 16.5284 101.561 17.2416 102.171 17.7478C102.476 18.0009 102.66 18.3747 102.677 18.7716C102.694 19.1685 102.545 19.5539 102.263 19.8414L98.2194 23.8907C97.6614 24.4429 96.7642 24.4429 96.212 23.8907C95.6598 23.3328 95.6598 22.4355 96.212 21.8833L99.3122 18.783C98.7255 17.926 98.3804 16.9195 98.3344 15.8668C98.2654 14.2966 98.8578 12.7551 99.9737 11.645C101.038 10.5809 102.447 10 103.948 10C105.449 10 106.859 10.5867 107.923 11.645C108.688 12.41 109.205 13.3591 109.435 14.3829C110.465 14.613 111.408 15.1249 112.173 15.8956C114.365 18.087 114.365 21.6531 112.173 23.8387C111.063 24.9545 109.527 25.5528 107.951 25.478C106.899 25.432 105.886 25.0869 105.029 24.5002L101.929 27.6004C101.653 27.8765 101.285 28.0147 100.922 28.0147Z" fill="#663366"/>
<path fill-rule="evenodd" clip-rule="evenodd" d="M84.8762 32.0406C80.0907 32.0406 74.7129 35.4571 72.4754 40.0815C71.4918 42.1176 70.3874 46.0805 74.0571 49.7559C77.7325 53.4313 81.6954 52.327 83.7315 51.3376C88.7183 48.9277 92.2959 42.871 91.7093 37.8325C91.5367 36.3313 92.0256 34.922 93.0897 33.858L98.8588 28.0889C99.7273 27.2204 99.7273 25.8169 98.8588 24.9485C97.9903 24.08 96.5868 24.08 95.7183 24.9485L89.955 30.7176C88.8909 31.7816 87.4817 32.2706 85.9806 32.0922C85.6182 32.052 85.2501 32.029 84.8762 32.029V32.0406ZM79.7859 55.1507C76.9675 55.1507 74.293 54.0061 72.0498 51.7686C68.4607 48.1795 67.6843 43.4689 69.9159 38.8502C72.8609 32.7591 80.062 28.5603 86.3029 29.2908C86.9471 29.3655 87.482 29.1757 87.9422 28.7213L93.7112 22.9523C95.684 20.9795 98.8935 20.9795 100.866 22.9523C102.839 24.925 102.839 28.1346 100.866 30.1075L95.1031 35.8766C94.643 36.3367 94.4589 36.8716 94.5337 37.5158C95.2584 43.7565 91.0596 50.9577 84.9685 53.9028C83.2372 54.7425 81.4887 55.1567 79.7862 55.1567L79.7859 55.1507Z" fill="#663366"/>
<path fill-rule="evenodd" clip-rule="evenodd" d="M73.0844 68.2547C63.1625 68.2547 53.0561 67.3632 48.381 65.954C42.6695 64.2342 39.322 60.4842 39.4313 55.9172C39.5348 51.6896 42.6121 47.9798 46.9258 46.9099C51.1534 45.8573 52.2059 44.0513 53.6668 41.5493C54.104 40.8016 54.5526 40.0309 55.1105 39.2371C58.3258 34.6701 62.6224 31.3284 67.5401 29.5741C72.5383 27.7911 77.7034 27.8141 82.4826 29.6432C83.213 29.9192 83.5811 30.7417 83.2993 31.478C83.0232 32.2084 82.2007 32.5766 81.4702 32.2947C72.9864 29.045 63.3296 32.4903 57.4339 40.8706C56.9392 41.5723 56.5251 42.2913 56.1168 42.9815C54.581 45.6042 52.9993 48.3249 47.6157 49.6594C44.5902 50.4129 42.3414 53.0759 42.2723 55.9864C42.1975 59.2418 44.7226 61.8877 49.2031 63.2336C57.7099 65.7989 86.3487 66.5926 94.7682 62.9863C98.4666 61.4046 98.4895 56.2912 98.3286 54.1688C97.8857 48.2962 94.9063 43.0678 92.6458 42.4869C91.8866 42.2914 91.4322 41.5149 91.6277 40.7556C91.8233 39.9964 92.5998 39.542 93.3591 39.7376C97.5924 40.8304 100.704 47.9683 101.158 53.9559C101.601 59.7307 99.6803 63.9755 95.8899 65.5974C91.5185 67.4667 82.379 68.249 73.0904 68.249L73.0844 68.2547Z" fill="#663366"/>
</svg>
