<svg width="150" height="150" viewBox="0 0 150 150" fill="none" xmlns="http://www.w3.org/2000/svg">
<path d="M112.399 36.6605C103.88 29.32 92.7633 24.9112 80.6142 25.0014C54.0807 25.1983 32.8161 46.6293 32.8164 73.1634C32.8164 99.7632 54.3798 121.327 80.9799 121.327C104.83 121.327 124.627 103.99 128.466 81.2327C128.583 80.5403 129.183 80.0339 129.885 80.0339H138.13C141.924 80.0339 145 76.9578 145 73.1634C145 69.369 141.924 66.293 138.13 66.293H129.885C129.184 66.293 128.583 65.7876 128.467 65.0958C127.129 57.1654 123.854 49.8932 119.144 43.7836" stroke="#663366" stroke-width="4.22536" stroke-miterlimit="10" stroke-linecap="round" stroke-linejoin="round"/>
<path d="M80.9805 58.8281V103.06" stroke="#663366" stroke-width="4.22536" stroke-miterlimit="10" stroke-linecap="round" stroke-linejoin="round"/>
<path d="M89.0395 46.7407C88.3762 42.0677 83.0111 41.6244 81.295 48.4063C81.2114 48.7376 80.7466 48.7376 80.6629 48.4063C78.9469 41.6244 73.5818 42.0677 72.9184 46.7407C71.9116 53.8331 79.6294 55.1089 80.979 58.83C82.3286 55.1089 90.0463 53.8331 89.0395 46.7407Z" stroke="#663366" stroke-width="4.22536" stroke-miterlimit="10" stroke-linecap="round" stroke-linejoin="round"/>
<path d="M93.2754 59.9224C89.538 58.9055 85.1489 62.6658 80.9805 69.4261V74.6187C85.9055 68.4463 89.4934 72.1987 93.2977 69.3894C98.0233 65.8996 96.3416 60.7567 93.2754 59.9224Z" stroke="#663366" stroke-width="4.22536" stroke-miterlimit="10" stroke-linecap="round" stroke-linejoin="round"/>
<path d="M68.684 59.9224C72.4215 58.9055 76.8105 62.6658 80.979 69.4261V74.6187C76.0539 68.4463 72.466 72.1987 68.6618 69.3894C63.9361 65.8996 65.6178 60.7567 68.684 59.9224Z" stroke="#663366" stroke-width="4.22536" stroke-miterlimit="10" stroke-linecap="round" stroke-linejoin="round"/>
<path d="M107.904 64.63C107.159 59.303 101.892 59.8492 102.195 64.7596C103.215 81.2965 87.6371 75.9759 80.9805 92.5357V100.486C89.9774 82.9869 112.085 94.4808 107.904 64.63Z" stroke="#663366" stroke-width="4.22536" stroke-miterlimit="10" stroke-linecap="round" stroke-linejoin="round"/>
<path d="M54.0556 64.63C54.8015 59.303 60.0677 59.8492 59.7649 64.7596C58.7449 81.2965 74.323 75.9759 80.9796 92.5357V100.486C71.9827 82.9869 49.875 94.4808 54.0556 64.63Z" stroke="#663366" stroke-width="4.22536" stroke-miterlimit="10" stroke-linecap="round" stroke-linejoin="round"/>
<path d="M80.9798 112.17C102.523 112.17 119.987 94.7064 119.987 73.1634C119.987 51.6203 102.523 34.1562 80.9798 34.1562C59.4367 34.1562 41.9727 51.6203 41.9727 73.1634C41.9727 94.7064 59.4367 112.17 80.9798 112.17Z" stroke="#663366" stroke-width="4.22536" stroke-miterlimit="10" stroke-linecap="round" stroke-linejoin="round"/>
<path d="M32.1477 110.176C32.0629 106.881 30.8091 103.781 28.7862 101.364C25.0975 96.9568 23.195 92.0855 23.195 86.3379V36.9702C23.195 34.4195 21.1271 32.3516 18.5764 32.3516C16.0257 32.3516 13.9578 34.4195 13.9578 36.9702V86.3379C13.9578 92.0855 12.0552 96.9568 8.36649 101.364C6.27043 103.868 5 107.105 5 110.532C5 118.03 11.0783 124.869 18.5761 124.869C22.7936 124.869 26.562 122.705 29.0522 119.477" stroke="#663366" stroke-width="4.22536" stroke-miterlimit="10" stroke-linecap="round" stroke-linejoin="round"/>
</svg>
