<svg width="150" height="150" viewBox="0 0 150 150" fill="none" xmlns="http://www.w3.org/2000/svg">
<mask id="mask0_629_2362" style="mask-type:luminance" maskUnits="userSpaceOnUse" x="5" y="5" width="140" height="140">
<path d="M5 5H145V145H5V5Z" fill="white"/>
</mask>
<g mask="url(#mask0_629_2362)">
<path d="M130.346 113.425V142.949H19.6543V74.6164M130.346 74.6164V104.14" stroke="#663366" stroke-width="4.1002" stroke-miterlimit="10" stroke-linecap="round" stroke-linejoin="round"/>
<path d="M68.965 74.6172H49.6805M100.318 74.6172H81.0334M8.67773 36.1875V18.0268C8.67773 11.9888 13.6152 7.05133 19.6532 7.05133H130.345C136.383 7.05133 141.321 11.9888 141.321 18.0268V63.6417C141.321 69.6797 136.383 74.6172 130.345 74.6172H119.253M30.745 74.6172H19.6532C13.6152 74.6172 8.67773 69.6797 8.67773 63.6417V45.4811" stroke="#663366" stroke-width="4.1002" stroke-miterlimit="10" stroke-linecap="round" stroke-linejoin="round"/>
<path d="M49.4877 116.712C50.8984 124.494 51.658 132.888 52.5959 142.949H97.3962C100.404 110.922 101.543 95.7225 127.556 63.8506C134.066 55.8744 131.276 48.2091 121.618 48.8137C108.829 49.6195 100.156 49.8673 93.0789 49.9217M56.9209 49.9217C49.8443 49.8673 41.1785 49.6195 28.3816 48.8137C18.7241 48.2091 15.9337 55.8744 22.4445 63.8506C37.0318 81.7238 43.7983 94.358 47.4569 107.651M68.7025 71.8262C69.307 75.9885 69.4774 83.2586 63.2457 83.0109C54.5337 82.6696 37.0398 61.0755 37.0398 61.0755L58.6339 59.6881M91.3581 59.6881L112.96 61.0755C112.96 61.0755 95.4668 82.6696 86.7548 83.0109C80.5229 83.2586 80.6932 75.9885 81.2975 71.8262" stroke="#663366" stroke-width="4.1002" stroke-miterlimit="10" stroke-linecap="round" stroke-linejoin="round"/>
<path d="M92.6133 44.7506C92.9311 46.7191 93.0935 48.7967 93.0935 50.9434C93.0935 63.5932 82.3198 73.8477 74.9952 73.8477C67.6783 73.8477 56.9043 63.5932 56.9043 50.9434C56.9043 42.6342 59.2529 35.3561 64.4616 31.341M85.5365 31.341C87.1643 32.5971 88.5129 34.1705 89.5981 35.9995" stroke="#663366" stroke-width="4.1002" stroke-miterlimit="10" stroke-linecap="round" stroke-linejoin="round"/>
<path d="M56.9121 50.4996C61.7022 55.0652 68.0427 57.8477 74.9951 57.8477C81.9557 57.8477 88.2959 55.0652 93.086 50.4996" stroke="#663366" stroke-width="4.1002" stroke-miterlimit="10" stroke-linecap="round" stroke-linejoin="round"/>
<path d="M74.9962 37.2227C81.2202 37.2227 86.2895 33.0992 86.2895 28.0453C86.2895 22.9916 81.2202 18.8761 74.9962 18.8761C68.7799 18.8761 63.7109 22.9916 63.7109 28.0453C63.7109 33.0992 68.7799 37.2227 74.9962 37.2227Z" stroke="#663366" stroke-width="4.1002" stroke-miterlimit="10" stroke-linecap="round" stroke-linejoin="round"/>
<path d="M81.0189 120.004C87.452 120.004 92.6993 116.787 92.6993 112.834C92.6993 108.889 87.452 105.673 81.0189 105.673C74.5854 105.673 69.3379 108.889 69.3379 112.834C69.3379 116.787 74.5854 120.004 81.0189 120.004Z" stroke="#663366" stroke-width="4.1002" stroke-miterlimit="10" stroke-linecap="round" stroke-linejoin="round"/>
<path d="M70.4691 100.496C74.7864 100.496 78.3132 97.9843 78.3132 94.9152C78.3132 91.8459 74.7864 89.3423 70.4691 89.3423C66.1441 89.3423 62.625 91.8459 62.625 94.9152C62.625 97.9843 66.1441 100.496 70.4691 100.496Z" stroke="#663366" stroke-width="4.1002" stroke-miterlimit="10" stroke-linecap="round" stroke-linejoin="round"/>
<path d="M74.0421 135.738C77.7781 135.738 80.8242 133.723 80.8242 131.258C80.8242 128.794 77.7781 126.778 74.0421 126.778C70.3061 126.778 67.2598 128.794 67.2598 131.258C67.2598 133.723 70.3061 135.738 74.0421 135.738Z" stroke="#663366" stroke-width="4.1002" stroke-miterlimit="10" stroke-linecap="round" stroke-linejoin="round"/>
</g>
</svg>
