<svg width="150" height="150" viewBox="0 0 150 150" fill="none" xmlns="http://www.w3.org/2000/svg">
<path d="M78.8398 80.4453L111.281 53.6293" stroke="#663366" stroke-width="4.10156" stroke-miterlimit="10" stroke-linecap="round" stroke-linejoin="round"/>
<mask id="mask0_680_122" style="mask-type:luminance" maskUnits="userSpaceOnUse" x="5" y="5" width="140" height="140">
<path d="M5 5H145V145H5V5Z" fill="white"/>
</mask>
<g mask="url(#mask0_680_122)">
<path d="M94.3495 103.324L94.102 102.198C93.1491 97.8629 92.8639 93.4078 93.2557 88.9869L94.1373 79.0444L99.5866 95.4247C100.01 96.6973 100.71 97.8607 101.636 98.8312L126.82 125.227L102.523 119.905C99.6225 119.27 97.3565 117.006 96.7191 114.106L96.1419 111.48M41.8746 74.624L39.2838 85.7827C39.0757 87.2355 38.519 88.6164 37.6612 89.8072L13.3414 127.351C10.0039 128.08 8.59839 132.065 10.7408 134.726C15.3922 140.504 22.637 143.556 30.0206 142.849L75.0002 136.474L119.98 142.849C127.364 143.556 134.608 140.504 139.26 134.726C141.402 132.065 139.997 128.08 136.659 127.351L136.76 127.373L112.339 89.8072C111.482 88.6164 110.925 87.2355 110.717 85.7827L105.901 65.0428C105.125 59.6254 101.56 55.0139 96.5132 52.898L89.5709 49.9878C86.5778 48.733 84.4434 46.0238 83.9241 42.8205L83.3379 39.2051C87.2836 35.0229 89.8769 28.9687 89.8769 23.419C89.8769 16.7206 88.2699 7.05103 75.0002 7.05103C61.2731 7.05103 60.1241 16.7206 60.1241 23.419C60.1241 28.9687 62.7169 35.0231 66.6629 39.2051L66.0766 42.8205C65.5571 46.0238 63.4226 48.733 60.4298 49.9878L53.4875 52.898C48.4404 55.0139 44.8756 59.6254 44.0996 65.0428L43.7447 66.5707M55.8987 102.198L53.2816 114.106C52.6443 117.006 50.3783 119.27 47.4777 119.905L23.1811 125.227L48.365 98.8312C49.2908 97.8607 49.9905 96.6973 50.4138 95.4247L55.8634 79.0444L56.7447 88.9869C57.1368 93.4078 56.8514 97.8629 55.8987 102.198Z" stroke="#663366" stroke-width="4.10156" stroke-miterlimit="10" stroke-linecap="round" stroke-linejoin="round"/>
<path d="M79.5752 54.9985C79.5752 57.5256 77.5266 59.5742 74.9995 59.5742C72.4724 59.5742 70.4238 57.5256 70.4238 54.9985C70.4238 52.4714 72.4724 50.4228 74.9995 50.4228C77.5266 50.4228 79.5752 52.4714 79.5752 54.9985Z" stroke="#663366" stroke-width="4.10156" stroke-miterlimit="10" stroke-linecap="round" stroke-linejoin="round"/>
<path d="M79.5752 27.061C79.5752 29.5881 77.5266 31.6367 74.9995 31.6367C72.4724 31.6367 70.4238 29.5881 70.4238 27.061C70.4238 24.5339 72.4724 22.4853 74.9995 22.4853C77.5266 22.4853 79.5752 24.5339 79.5752 27.061Z" stroke="#663366" stroke-width="4.10156" stroke-miterlimit="10" stroke-linecap="round" stroke-linejoin="round"/>
<path d="M79.5752 82.936C79.5752 85.4631 77.5266 87.5117 74.9995 87.5117C72.4724 87.5117 70.4238 85.4631 70.4238 82.936C70.4238 80.4089 72.4724 78.3603 74.9995 78.3603C77.5266 78.3603 79.5752 80.4089 79.5752 82.936Z" stroke="#663366" stroke-width="4.10156" stroke-miterlimit="10" stroke-linecap="round" stroke-linejoin="round"/>
<path d="M79.5752 110.874C79.5752 113.401 77.5266 115.449 74.9995 115.449C72.4724 115.449 70.4238 113.401 70.4238 110.874C70.4238 108.346 72.4724 106.298 74.9995 106.298C77.5266 106.298 79.5752 108.346 79.5752 110.874Z" stroke="#663366" stroke-width="4.10156" stroke-miterlimit="10" stroke-linecap="round" stroke-linejoin="round"/>
<path d="M119.965 50.5058C119.965 53.2145 117.77 55.4102 115.061 55.4102C112.352 55.4102 110.156 53.2145 110.156 50.5058C110.156 47.7971 112.352 45.6014 115.061 45.6014C117.77 45.6014 119.965 47.7971 119.965 50.5058Z" stroke="#663366" stroke-width="4.10156" stroke-miterlimit="10" stroke-linecap="round" stroke-linejoin="round"/>
</g>
</svg>
