<svg width="150" height="150" viewBox="0 0 150 150" fill="none" xmlns="http://www.w3.org/2000/svg">
<path d="M75 10C39.1255 10 10 39.1255 10 75C10 110.874 39.1255 140 75 140C110.874 140 140 110.874 140 75C140 39.1255 110.874 10 75 10ZM75 14.3333C108.53 14.3333 135.661 41.4704 135.661 75C135.661 108.53 108.53 135.667 75 135.667C41.4704 135.667 14.3333 108.53 14.3333 75C14.3333 41.4704 41.4704 14.3333 75 14.3333ZM75 18.6667C64.7679 18.6667 55.1748 21.4184 46.8978 26.2013C46.8761 26.2067 46.8545 26.2121 46.8328 26.2229C46.822 26.2338 46.8111 26.2446 46.8003 26.2554C38.2962 31.19 31.2059 38.2805 26.2652 46.7795C26.2489 46.7957 26.2327 46.8174 26.2164 46.8391C26.211 46.8553 26.2056 46.8716 26.2002 46.8932C21.4173 55.17 18.6656 64.7632 18.6656 75.001C18.6656 85.233 21.4173 94.8261 26.1948 103.098C26.2002 103.125 26.2056 103.146 26.2164 103.173C26.2327 103.19 26.2489 103.206 26.2652 103.222C31.1998 111.716 38.2848 118.8 46.7781 123.735C46.7944 123.751 46.816 123.773 46.8323 123.789C46.8594 123.795 46.8811 123.806 46.9081 123.811C55.1739 128.583 64.7504 131.324 74.9659 131.329C74.9768 131.335 74.9876 131.335 74.9984 131.34C75.0093 131.335 75.0201 131.335 75.0309 131.329C85.2468 131.324 94.8187 128.578 103.083 123.811C103.11 123.806 103.137 123.795 103.164 123.789C103.219 123.751 103.267 123.713 103.322 123.676C111.766 118.746 118.813 111.683 123.726 103.228L123.781 103.174C123.808 103.114 123.835 103.054 123.856 102.995C128.596 94.7507 131.32 85.2067 131.326 75.023C131.326 75.0176 131.331 75.0122 131.331 75.0068C131.331 74.9905 131.326 74.9743 131.326 74.958C131.32 64.7746 128.59 55.2257 123.846 46.9751C123.824 46.9317 123.802 46.883 123.781 46.8397C123.764 46.8234 123.748 46.8072 123.732 46.7909C118.808 38.3084 111.739 31.2284 103.262 26.2946H103.267C103.229 26.2729 103.197 26.2458 103.164 26.2188C103.143 26.2188 103.126 26.2133 103.11 26.2079C94.828 21.425 85.2346 18.6679 74.9982 18.6679L75 18.6667ZM72.8225 23.0596V25.1613C72.8225 25.7408 73.05 26.2933 73.4617 26.705C73.8679 27.1113 74.4204 27.3388 75.0001 27.3388C76.1971 27.3334 77.1613 26.3584 77.1559 25.1613V23.0597C85.0534 23.3847 92.4952 25.4593 99.0985 28.9151L98.026 30.7622H98.0314C97.4356 31.7968 97.7931 33.1238 98.8277 33.7197C99.326 34.0067 99.9218 34.0826 100.474 33.9363C101.032 33.7847 101.504 33.4163 101.791 32.918L102.852 31.0926C109.314 35.1984 114.807 40.6855 118.913 47.153L117.082 48.2146C116.042 48.8105 115.684 50.1321 116.28 51.1721C116.881 52.2013 118.203 52.5533 119.238 51.9521L121.079 50.8958C124.535 57.4987 126.615 64.9303 126.94 72.8274H124.839C124.259 72.8274 123.706 73.0549 123.295 73.4611C122.889 73.8728 122.661 74.4253 122.661 75.0049C122.666 76.202 123.641 77.1662 124.838 77.1607H126.94C126.615 85.0582 124.535 92.4959 121.079 99.0978L119.238 98.0307C118.203 97.4349 116.876 97.7924 116.28 98.8324C115.993 99.3307 115.917 99.9211 116.063 100.479C116.215 101.037 116.583 101.508 117.082 101.795L118.907 102.857C114.801 109.319 109.314 114.806 102.852 118.906L101.791 117.081V117.086C101.504 116.583 101.032 116.22 100.474 116.068C99.922 115.922 99.3261 115.998 98.8278 116.285C97.7932 116.88 97.4357 118.202 98.0315 119.242L99.0986 121.084C92.4957 124.54 85.0586 126.62 77.1616 126.939V124.843H77.1561C77.1616 123.646 76.1974 122.671 75.0003 122.665C74.4207 122.665 73.8682 122.893 73.4619 123.299C73.0502 123.711 72.8228 124.263 72.8228 124.843V126.939C64.9307 126.614 57.4932 124.54 50.8968 121.084L51.953 119.242C52.5489 118.208 52.1968 116.886 51.1676 116.285C50.1276 115.689 48.806 116.046 48.2101 117.086L47.1485 118.912C40.6863 114.806 35.1993 109.319 31.0936 102.857L32.919 101.795H32.9136C33.4174 101.508 33.7803 101.037 33.9319 100.479C34.0782 99.9211 34.0024 99.3306 33.7153 98.8323C33.4282 98.334 32.957 97.9765 32.4044 97.8248C31.8519 97.6731 31.2561 97.749 30.7578 98.0306L28.9162 99.0977C25.4603 92.4948 23.3803 85.0577 23.0553 77.1607H25.1569C26.354 77.1661 27.329 76.2019 27.3344 75.0048C27.3344 74.4252 27.1069 73.8727 26.7006 73.461C26.289 73.0548 25.7365 72.8273 25.1569 72.8273H23.0552C23.3802 64.9298 25.4603 57.4977 28.9161 50.8958L30.7577 51.952C31.7923 52.5533 33.114 52.2012 33.7152 51.172C34.3111 50.132 33.9536 48.8104 32.9136 48.2145L31.0882 47.1529C35.1939 40.6907 40.6811 35.1929 47.143 31.087L48.2101 32.9178C48.8059 33.9578 50.1275 34.3153 51.1675 33.7194C52.1967 33.1182 52.5488 31.7965 51.953 30.7619L50.8967 28.9203C57.4996 25.4645 64.9312 23.3845 72.8282 23.0594L72.8225 23.0596ZM74.9946 31.6721C74.4204 31.6667 73.8679 31.8942 73.4616 32.3004C73.0553 32.7066 72.8225 33.2537 72.8225 33.828V68.8843C70.3091 69.7888 68.4891 72.1992 68.4891 75.0052C68.4891 77.8109 70.3091 80.2214 72.8225 81.126V107.5C72.8225 108.075 73.0554 108.627 73.4616 109.028C73.8679 109.434 74.4204 109.662 74.9946 109.656C76.1863 109.656 77.1504 108.692 77.1558 107.5V81.1316C79.6692 80.2325 81.4892 77.8221 81.4892 75.0107C81.4892 72.1996 79.6692 69.7837 77.1558 68.8845V33.8281C77.1504 32.6365 76.1863 31.6775 74.9946 31.6721ZM74.9946 72.8491C76.2188 72.8491 77.1504 73.7862 77.1504 75.0104C77.1504 76.2075 76.2567 77.1228 75.0704 77.1662L75.0759 77.1608C75.0488 77.1608 75.0217 77.1608 74.9946 77.1554C74.9838 77.1608 74.9675 77.1608 74.9513 77.1662C73.7488 77.1446 72.8171 76.2183 72.8171 75.0104C72.8171 73.7862 73.7704 72.8491 74.9946 72.8491Z" fill="#663366"/>
</svg>
