<svg width="150" height="150" viewBox="0 0 150 150" fill="none" xmlns="http://www.w3.org/2000/svg">
<path d="M70.4218 118C70.4218 118.857 69.7192 119.555 68.8569 119.555C67.9946 119.555 67.292 118.857 67.292 118C67.292 117.143 67.9882 116.445 68.8505 116.445H68.8569C69.7192 116.445 70.4218 117.143 70.4218 118ZM80.1499 116.445H80.1435C79.2812 116.445 78.585 117.143 78.585 118C78.585 118.857 79.2876 119.555 80.1499 119.555C81.0122 119.555 81.7148 118.857 81.7148 118C81.7148 117.143 81.0122 116.445 80.1499 116.445ZM54.1145 68.1992V59.954C54.1145 59.0971 54.8171 58.3989 55.6794 58.3989H93.3213C94.1836 58.3989 94.8863 59.0971 94.8863 59.954V68.1992C94.8863 69.0561 94.1836 69.7544 93.3213 69.7544H55.6794C54.8171 69.7544 54.1145 69.0561 54.1145 68.1992ZM57.238 66.6441H91.7551V61.509H57.238V66.6441ZM54.1145 83.2038V74.9586C54.1145 74.1017 54.8171 73.4035 55.6794 73.4035H93.3213C94.1836 73.4035 94.8863 74.1017 94.8863 74.9586V83.2038C94.8863 84.0607 94.1836 84.7589 93.3213 84.7589H55.6794C54.8171 84.7589 54.1145 84.0607 54.1145 83.2038ZM57.238 81.6487H91.7551V76.5136H57.238V81.6487ZM131 54.514V138.445C131 139.302 130.297 140 129.435 140H19.5649C18.7026 140 18 139.302 18 138.445V54.514C18 53.6571 18.7026 52.9589 19.5649 52.9589H48.1169V24.3958V24.3831C48.1169 24.3451 48.1233 24.307 48.1233 24.2752C48.1233 24.2562 48.1233 24.2435 48.1297 24.2308C48.136 24.1991 48.136 24.1737 48.1424 24.142C48.1488 24.1166 48.1488 24.0975 48.1552 24.0721C48.1616 24.0531 48.168 24.034 48.168 24.015C48.1744 23.9833 48.1871 23.9515 48.1935 23.9198C48.1999 23.9071 48.1999 23.8944 48.2063 23.8881C48.2191 23.85 48.2319 23.8119 48.251 23.7738C48.251 23.7738 48.251 23.7675 48.2574 23.7675C48.2638 23.7548 48.2702 23.7484 48.2702 23.7357C48.2893 23.704 48.3021 23.6659 48.3213 23.6342C48.3341 23.6151 48.3404 23.6024 48.3532 23.5834C48.3724 23.558 48.3852 23.5326 48.4043 23.5072C48.4171 23.4882 48.4363 23.4691 48.449 23.4501C48.4618 23.431 48.481 23.412 48.4937 23.393C48.5129 23.3739 48.5321 23.3549 48.5448 23.3358L48.5959 23.2851C48.6151 23.266 48.6343 23.2533 48.6534 23.2343C48.6726 23.2152 48.6918 23.2025 48.7109 23.1835C48.7301 23.1708 48.7492 23.1581 48.762 23.1454C48.7876 23.1264 48.8067 23.1137 48.8323 23.0946C48.8514 23.0819 48.8642 23.0756 48.877 23.0629C48.9025 23.0439 48.9345 23.0312 48.9664 23.0185C48.9792 23.0121 48.992 23.0058 49.0047 22.9994C49.0367 22.9867 49.0686 22.9677 49.1006 22.955C49.1133 22.9486 49.1261 22.9423 49.1389 22.9423C49.1708 22.9296 49.2091 22.9169 49.2411 22.9106C49.2539 22.9042 49.273 22.9042 49.2858 22.8979C49.3177 22.8915 49.3497 22.8788 49.388 22.8725C49.4071 22.8661 49.4263 22.8661 49.4519 22.8598C49.4774 22.8534 49.5093 22.8534 49.5349 22.8471C49.5668 22.8407 49.5924 22.8407 49.6243 22.8407C49.6435 22.8407 49.6563 22.8344 49.6754 22.8344H49.6882C49.7201 22.8344 49.7521 22.8407 49.784 22.8407C49.8032 22.8407 49.8223 22.8407 49.8415 22.8471C49.867 22.8534 49.8926 22.8534 49.9245 22.8598C49.9501 22.8661 49.9756 22.8661 50.0012 22.8725C50.0203 22.8788 50.0331 22.8852 50.0523 22.8852C50.0842 22.8915 50.1225 22.9042 50.1545 22.9106C50.1673 22.9169 50.18 22.9169 50.1864 22.9233C50.2247 22.9359 50.2631 22.9486 50.3014 22.9677C50.3014 22.9677 50.3078 22.9677 50.3078 22.974L53.4056 24.3387C56.7015 15.9537 64.9095 10 74.4963 10C86.9773 10 97.1338 20.0923 97.1338 32.4955C97.1338 36.1199 96.2651 39.5411 94.732 42.5751L99.9314 44.8666C99.9314 44.8666 99.9378 44.873 99.9442 44.873L99.9633 44.8793C99.9761 44.8857 99.9825 44.892 99.9953 44.892C100.027 44.9111 100.059 44.9237 100.097 44.9428C100.117 44.9555 100.136 44.9682 100.149 44.9745C100.174 44.9872 100.2 45.0063 100.219 45.019C100.244 45.038 100.264 45.0507 100.283 45.0697C100.302 45.0824 100.321 45.0951 100.334 45.1142C100.359 45.1332 100.379 45.1523 100.398 45.1713C100.41 45.184 100.43 45.1967 100.442 45.2157C100.462 45.2348 100.481 45.2602 100.5 45.2792C100.513 45.2982 100.525 45.3109 100.538 45.33C100.557 45.349 100.57 45.3744 100.589 45.3935C100.602 45.4125 100.615 45.4315 100.628 45.4506C100.64 45.4696 100.653 45.4887 100.666 45.5077C100.679 45.5331 100.691 45.5585 100.704 45.5839C100.717 45.6029 100.723 45.622 100.73 45.6347C100.743 45.66 100.755 45.6918 100.768 45.7172C100.775 45.7362 100.781 45.7489 100.787 45.7679C100.8 45.7997 100.806 45.8251 100.819 45.8568C100.826 45.8759 100.832 45.8949 100.832 45.9139C100.838 45.9393 100.845 45.9711 100.851 45.9965C100.858 46.0218 100.858 46.0472 100.864 46.0726C100.87 46.098 100.87 46.1171 100.877 46.1424C100.883 46.1742 100.883 46.2059 100.883 46.244V46.2884V52.9406H129.435C130.297 52.9406 131 53.6388 131 54.4957L131 54.514ZM54.9896 32.4945C54.9896 43.1328 63.6638 51.7971 74.3502 51.8735C74.4077 51.8671 74.4588 51.8608 74.5163 51.8608H75.0081C85.5282 51.5878 94.0041 43.0062 94.0041 32.4884C94.0041 21.7994 85.2532 13.1029 74.4963 13.1029C63.7394 13.1029 54.9885 21.7989 54.9885 32.4884L54.9896 32.4945ZM51.8661 32.4945C51.8661 30.7172 52.0769 28.9909 52.4665 27.3278L51.2337 26.7819V136.89H56.6758V113.703C56.6758 103.94 64.6664 95.9942 74.496 95.9942C84.3199 95.9942 92.3163 103.935 92.3163 113.703V136.89H97.7583V47.3096L93.1211 45.2595C89.1736 50.9277 82.6713 54.717 75.2813 54.971H75.2429H75.2302C74.9874 54.9774 74.7447 54.9837 74.502 54.9837C62.021 54.9837 51.8645 44.8914 51.8645 32.4882L51.8661 32.4945ZM48.1102 56.0625H21.1231V136.89H48.1102V56.0625ZM59.8056 136.89H72.9317V99.1866C65.5606 99.9673 59.8056 106.175 59.8056 113.703V136.89ZM89.1882 136.89V113.702C89.1882 106.174 83.4268 99.9664 76.0621 99.1856V136.889L89.1882 136.89ZM127.87 56.0625H100.883V136.89H127.87V56.0625ZM103.49 75.2189V62.924C103.49 62.0671 104.192 61.3689 105.054 61.3689H123.705C124.568 61.3689 125.27 62.0671 125.27 62.924V75.2189C125.27 76.0757 124.568 76.774 123.705 76.774H105.054C104.192 76.774 103.49 76.0757 103.49 75.2189ZM106.613 73.6637H122.135V64.4728H106.613V73.6637ZM103.49 93.4863V81.1914C103.49 80.3345 104.192 79.6363 105.054 79.6363H123.705C124.568 79.6363 125.27 80.3345 125.27 81.1914V93.4863C125.27 94.3432 124.568 95.0414 123.705 95.0414H105.054C104.192 95.0414 103.49 94.3432 103.49 93.4863ZM106.613 91.9312H122.135V82.7402H106.613V91.9312ZM103.49 111.754V99.4588C103.49 98.6019 104.192 97.9037 105.054 97.9037H123.705C124.568 97.9037 125.27 98.6019 125.27 99.4588V111.754C125.27 112.611 124.568 113.309 123.705 113.309H105.054C104.192 113.309 103.49 112.611 103.49 111.754ZM106.613 110.199H122.135V101.008H106.613V110.199ZM103.49 130.021V117.726C103.49 116.869 104.192 116.171 105.054 116.171H123.705C124.568 116.171 125.27 116.869 125.27 117.726V130.021C125.27 130.878 124.568 131.576 123.705 131.576H105.054C104.192 131.576 103.49 130.878 103.49 130.021ZM106.613 128.466H122.135V119.275H106.613V128.466ZM23.7288 75.2235V62.9287C23.7288 62.0718 24.4314 61.3735 25.2937 61.3735H43.9446C44.8069 61.3735 45.5096 62.0718 45.5096 62.9287V75.2235C45.5096 76.0804 44.8069 76.7786 43.9446 76.7786H25.2937C24.4314 76.7786 23.7288 76.0804 23.7288 75.2235ZM26.8523 73.6684H42.3738V64.4775H26.8523V73.6684ZM23.7288 93.491V81.1961C23.7288 80.3392 24.4314 79.641 25.2937 79.641H43.9446C44.8069 79.641 45.5096 80.3392 45.5096 81.1961V93.491C45.5096 94.3478 44.8069 95.0461 43.9446 95.0461H25.2937C24.4314 95.0461 23.7288 94.3478 23.7288 93.491ZM26.8523 91.9358H42.3738V82.7449H26.8523V91.9358ZM23.7288 111.758V99.4635C23.7288 98.6066 24.4314 97.9084 25.2937 97.9084H43.9446C44.8069 97.9084 45.5096 98.6066 45.5096 99.4635V111.758C45.5096 112.615 44.8069 113.313 43.9446 113.313H25.2937C24.4314 113.313 23.7288 112.615 23.7288 111.758ZM26.8523 110.203H42.3738V101.012H26.8523V110.203ZM23.7288 130.026V117.731C23.7288 116.874 24.4314 116.176 25.2937 116.176H43.9446C44.8069 116.176 45.5096 116.874 45.5096 117.731V130.026C45.5096 130.883 44.8069 131.581 43.9446 131.581H25.2937C24.4314 131.581 23.7288 130.883 23.7288 130.026ZM26.8523 128.471H42.3738V119.28H26.8523V128.471ZM69.3541 23.3328C69.3541 20.5145 71.6664 18.2169 74.5023 18.2169C77.3382 18.2169 79.6505 20.5147 79.6505 23.3328C79.6505 26.1509 77.3382 28.4487 74.5023 28.4487C71.6664 28.4487 69.3541 26.1509 69.3541 23.3328ZM72.4776 23.3328C72.4776 24.4436 73.3846 25.345 74.5024 25.345C75.6203 25.345 76.5273 24.4436 76.5273 23.3328C76.5273 22.222 75.6203 21.3206 74.5024 21.3206C73.3846 21.3206 72.4776 22.222 72.4776 23.3328ZM79.6507 41.6571C79.6507 44.4754 77.3383 46.7731 74.5024 46.7731C71.6665 46.7731 69.3542 44.4753 69.3542 41.6571C69.3542 38.839 71.6665 36.5412 74.5024 36.5412C77.3383 36.5412 79.6507 38.839 79.6507 41.6571ZM76.5271 41.6571C76.5271 40.5464 75.6201 39.645 74.5023 39.645C73.3845 39.645 72.4774 40.5463 72.4774 41.6571C72.4774 42.7679 73.3845 43.6693 74.5023 43.6693C75.6201 43.6693 76.5271 42.768 76.5271 41.6571ZM79.1779 32.4916C79.1779 29.6733 81.4902 27.3756 84.3261 27.3756C87.1622 27.3756 89.4744 29.6734 89.4744 32.4916C89.4744 35.3097 87.162 37.6075 84.3261 37.6075C81.4901 37.6075 79.1779 35.3097 79.1779 32.4916ZM82.3015 32.4916C82.3015 33.6023 83.2085 34.5037 84.3263 34.5037C85.4441 34.5037 86.3512 33.6024 86.3512 32.4916C86.3512 31.3807 85.4441 30.4794 84.3263 30.4794C83.2085 30.4794 82.3015 31.3807 82.3015 32.4916ZM59.5299 32.4916C59.5299 29.6733 61.8422 27.3756 64.6781 27.3756C67.5142 27.3756 69.8263 29.6734 69.8263 32.4916C69.8263 35.3097 67.514 37.6075 64.6781 37.6075C61.842 37.6075 59.5299 35.3097 59.5299 32.4916ZM62.6534 32.4916C62.6534 33.6023 63.5604 34.5037 64.6783 34.5037C65.7961 34.5037 66.7031 33.6024 66.7031 32.4916C66.7031 31.3807 65.7961 30.4794 64.6783 30.4794C63.5605 30.4794 62.6534 31.3807 62.6534 32.4916ZM74.6043 34.0467C75.4666 34.0467 76.1692 33.3484 76.1692 32.4916C76.1692 31.6347 75.4666 30.9365 74.6043 30.9365H74.3871C73.5248 30.9365 72.8222 31.6347 72.8222 32.4916C72.8222 33.3484 73.5248 34.0467 74.3871 34.0467H74.6043ZM55.9076 32.4916C55.9076 22.3041 64.2497 14.021 74.4948 14.021C84.7466 14.021 93.0819 22.3107 93.0819 32.4916C93.0819 42.6791 84.7398 50.9621 74.4948 50.9621C64.243 50.9621 55.9076 42.6724 55.9076 32.4916ZM59.0311 32.4916C59.0311 40.9652 65.9679 47.8585 74.4951 47.8585C83.0222 47.8585 89.959 40.9652 89.959 32.4916C89.959 24.0179 83.0222 17.1246 74.4951 17.1246C65.9679 17.1246 59.0311 24.0179 59.0311 32.4916Z" fill="#663366"/>
</svg>
