<svg width="150" height="150" viewBox="0 0 150 150" fill="none" xmlns="http://www.w3.org/2000/svg">
<path d="M66.9075 83.0918H10V139.999H66.9075V83.0918Z" stroke="#663366" stroke-width="4" stroke-miterlimit="10" stroke-linejoin="round"/>
<path d="M66.9075 10H10V66.9075H66.9075V10Z" stroke="#663366" stroke-width="4" stroke-miterlimit="10" stroke-linejoin="round"/>
<path d="M139.998 10H83.0908V66.9075H139.998V10Z" stroke="#663366" stroke-width="4" stroke-miterlimit="10" stroke-linejoin="round"/>
<path d="M139.998 83.0918H83.0908V139.999H139.998V83.0918Z" stroke="#663366" stroke-width="4" stroke-miterlimit="10" stroke-linejoin="round"/>
<path d="M24.0244 46.5469H52.8834" stroke="#663366" stroke-width="4" stroke-miterlimit="10" stroke-linejoin="round"/>
<path d="M24.0244 30.3633H52.8834" stroke="#663366" stroke-width="4" stroke-miterlimit="10" stroke-linejoin="round"/>
<path d="M107.889 52.655C112.143 52.655 115.591 49.2069 115.591 44.9534C115.591 40.7 112.143 37.252 107.889 37.252C103.636 37.252 100.188 40.7 100.188 44.9534C100.188 49.2069 103.636 52.655 107.889 52.655Z" stroke="#663366" stroke-width="4" stroke-miterlimit="10" stroke-linejoin="round"/>
<path d="M115.591 44.9554V24.6211H125.571" stroke="#663366" stroke-width="4" stroke-miterlimit="10" stroke-linejoin="round"/>
<path d="M83.0908 122.868L98.1041 112.49L111.545 122.868L126.558 112.49L139.998 122.868" stroke="#663366" stroke-width="4" stroke-miterlimit="10" stroke-linejoin="round"/>
<path d="M111.545 103.32V95.2285" stroke="#663366" stroke-width="4" stroke-miterlimit="10" stroke-linejoin="round"/>
<path d="M10 98.7363H66.9075" stroke="#663366" stroke-width="4" stroke-miterlimit="10" stroke-linejoin="round"/>
<path d="M28.9692 83.0918V98.7359" stroke="#663366" stroke-width="4" stroke-miterlimit="10" stroke-linejoin="round"/>
<path d="M47.9385 83.0918V98.7359" stroke="#663366" stroke-width="4" stroke-miterlimit="10" stroke-linejoin="round"/>
<path d="M10 124.355H66.9075" stroke="#663366" stroke-width="4" stroke-miterlimit="10" stroke-linejoin="round"/>
<path d="M28.9692 140V124.355" stroke="#663366" stroke-width="4" stroke-miterlimit="10" stroke-linejoin="round"/>
<path d="M47.9385 140V124.355" stroke="#663366" stroke-width="4" stroke-miterlimit="10" stroke-linejoin="round"/>
</svg>
