<svg width="150" height="150" viewBox="0 0 150 150" fill="none" xmlns="http://www.w3.org/2000/svg">
<path d="M137.823 113.994H126.535C125.48 107.387 122.118 101.367 117.045 97.0042C111.972 92.6413 105.517 90.2173 98.8261 90.1627H98.3278C91.9266 84.426 83.5887 81.3293 74.9947 81.4967C66.539 81.4877 58.3716 84.5697 52.0299 90.1627C51.7482 90.1627 51.4666 90.1627 51.1633 90.1627C44.4575 90.1968 37.9819 92.6116 32.891 96.9763C27.8001 101.341 24.4249 107.372 23.3672 113.994H12.1665C11.5919 113.994 11.0408 114.222 10.6345 114.629C10.2283 115.035 10 115.586 10 116.161C10 122.481 12.5108 128.543 16.9801 133.012C21.4493 137.481 27.5109 139.992 33.8314 139.992H116.158C122.478 139.992 128.54 137.481 133.009 133.012C137.479 128.543 139.989 122.481 139.989 116.161C139.989 115.586 139.761 115.035 139.355 114.629C138.949 114.222 138.397 113.994 137.823 113.994ZM122.159 113.994H117.826C117.086 110.757 115.532 107.762 113.31 105.294C111.088 102.825 108.273 100.965 105.131 99.8902C104.376 98.095 103.439 96.3818 102.336 94.7773C107.216 95.5507 111.739 97.8113 115.287 101.251C118.834 104.69 121.234 109.14 122.159 113.994ZM61.0858 113.994C60.2412 112.066 58.8529 110.425 57.0906 109.273C55.3284 108.121 53.2687 107.507 51.1633 107.507C49.0579 107.507 46.9982 108.121 45.236 109.273C43.4737 110.425 42.0854 112.066 41.2408 113.994H36.6478C37.5906 110.878 39.511 108.149 42.125 106.208C44.739 104.268 47.908 103.221 51.1633 103.221C54.4186 103.221 57.5876 104.268 60.2016 106.208C62.8156 108.149 64.736 110.878 65.6788 113.994H61.0858ZM55.9946 113.994H46.332C46.9415 113.317 47.6866 112.775 48.5189 112.405C49.3512 112.034 50.2522 111.842 51.1633 111.842C52.0744 111.842 52.9754 112.034 53.8077 112.405C54.64 112.775 55.3851 113.317 55.9946 113.994ZM74.9947 94.4956C80.6844 94.5311 86.1318 96.8034 90.1601 100.822C88.8479 101.46 87.6123 102.245 86.4771 103.162C83.3062 100.365 79.2225 98.8241 74.9947 98.8286C70.7479 98.791 66.6392 100.336 63.469 103.162C62.3522 102.241 61.1305 101.455 59.8293 100.822C63.8576 96.8034 69.305 94.5311 74.9947 94.4956ZM83.3573 113.994C82.9693 112.516 82.1973 111.167 81.1195 110.083C80.0418 109 78.6967 108.22 77.2207 107.825C75.7447 107.429 74.1902 107.43 72.7149 107.829C71.2396 108.227 69.8959 109.009 68.8202 110.094C68.1951 108.758 67.425 107.493 66.5237 106.325C68.8697 104.277 71.8807 103.153 74.9947 103.162C78.0643 103.165 81.0338 104.254 83.3773 106.237C85.7208 108.219 87.287 110.967 87.7986 113.994H83.3573ZM78.721 113.994H71.2683C71.652 113.348 72.1973 112.812 72.8506 112.44C73.5039 112.068 74.2428 111.872 74.9947 111.872C75.7465 111.872 76.4854 112.068 77.1387 112.44C77.7921 112.812 78.3374 113.348 78.721 113.994ZM108.662 113.994C107.964 112.408 106.896 111.013 105.547 109.925C104.198 108.837 102.608 108.089 100.91 107.743C99.2119 107.397 97.4558 107.464 95.7889 107.937C94.122 108.41 92.5929 109.276 91.33 110.463C90.8388 109.043 90.1613 107.696 89.3152 106.455C91.2554 104.942 93.5346 103.924 95.956 103.489C98.3774 103.053 100.868 103.214 103.214 103.956C105.56 104.698 107.69 105.999 109.42 107.748C111.15 109.497 112.429 111.641 113.147 113.994H108.662ZM103.571 113.994H93.9081C94.5176 113.317 95.2627 112.775 96.095 112.405C96.9273 112.034 97.8283 111.842 98.7394 111.842C99.6505 111.842 100.551 112.034 101.384 112.405C102.216 112.775 102.961 113.317 103.571 113.994ZM74.9947 85.8297C85.8271 85.8297 95.078 90.8559 99.7143 98.8286H98.8261C97.4642 98.8312 96.1063 98.9764 94.7747 99.2619C92.3315 96.4055 89.2979 94.1128 85.8831 92.5419C82.4683 90.971 78.7535 90.1593 74.9947 90.1627C70.9272 90.1639 66.918 91.1291 63.2956 92.9791C61.6222 92.1677 59.8735 91.522 58.0744 91.0509C63.0638 87.6541 68.9588 85.8351 74.9947 85.8297ZM51.1633 94.4956C53.7753 94.5082 56.3671 94.9548 58.8327 95.8172C57.5418 96.8657 56.3457 98.0256 55.258 99.2836C50.2453 98.1795 44.9994 99.108 40.6702 101.866C36.341 104.623 33.2818 108.985 32.1632 113.994H27.7219C28.7658 108.532 31.6738 103.601 35.9492 100.045C40.2247 96.4888 45.6022 94.5273 51.1633 94.4956ZM116.158 135.659H33.8314C29.0368 135.657 24.4112 133.888 20.8383 130.691C17.2653 127.494 14.9957 123.092 14.463 118.327H135.526C134.994 123.092 132.724 127.494 129.151 130.691C125.578 133.888 120.953 135.657 116.158 135.659Z" fill="#663366"/>
<path d="M24.7765 35.9979H18.667V40.3309H23.6716C23.4983 40.6992 23.3249 41.0675 23.13 41.4142C21.6276 44.0553 20.8377 47.0416 20.8377 50.0801C20.8377 53.1187 21.6276 56.105 23.13 58.7461C24.2583 60.7264 24.8516 62.9664 24.8516 65.2456C24.8516 67.5248 24.2583 69.7648 23.13 71.7451C21.6088 74.3799 20.8079 77.3687 20.8079 80.4111C20.8079 83.4535 21.6088 86.4422 23.13 89.077C23.5954 90.0324 23.9795 91.0253 24.2782 92.0451C24.4299 92.5434 24.6032 93.0417 24.7982 93.5833L28.8712 92.1101C28.6978 91.6118 28.5462 91.1569 28.4162 90.7236C28.0138 89.4139 27.5066 88.1388 26.8997 86.9105C25.7713 84.9302 25.178 82.6903 25.178 80.4111C25.178 78.1319 25.7713 75.8919 26.8997 73.9116C28.402 71.2705 29.1919 68.2841 29.1919 65.2456C29.1919 62.2071 28.402 59.2208 26.8997 56.5796C25.7713 54.5993 25.178 52.3594 25.178 50.0801C25.178 47.8009 25.7713 45.561 26.8997 43.5807C28.402 40.9395 29.1919 37.9532 29.1919 34.9147C29.1919 31.8762 28.402 28.8898 26.8997 26.2487C25.7713 24.2684 25.178 22.0284 25.178 19.7492C25.178 17.47 25.7713 15.2301 26.8997 13.2498C27.0898 12.9204 27.1899 12.5468 27.1899 12.1665C27.1899 11.7862 27.0898 11.4126 26.8997 11.0833C26.7088 10.7526 26.4339 10.4783 26.1029 10.2881C25.7719 10.0979 25.3966 9.9985 25.0148 10H18.667V14.333H21.7001C21.2275 15.7344 20.9363 17.1906 20.8335 18.666H18.667V22.999H21.1585C21.4421 24.5 21.9228 25.957 22.5883 27.332H18.667V31.665H24.4515C24.7978 33.0815 24.9076 34.5456 24.7765 35.9979Z" fill="#663366"/>
<path d="M128.16 14.6147L65.0288 16.4996L61.7357 13.1632C60.7279 12.1579 59.5318 11.3611 58.2158 10.8184C56.8999 10.2756 55.4898 9.99756 54.0663 10.0001H33.8313C33.3056 9.99493 32.796 10.1811 32.3974 10.5239C31.9988 10.8667 31.7384 11.3427 31.6648 11.8633C30.3679 14.4436 29.727 17.3038 29.7988 20.1908C29.8706 23.0778 30.6529 25.9027 32.0765 28.4153C33.2048 30.3956 33.7981 32.6356 33.7981 34.9148C33.7981 37.194 33.2048 39.4339 32.0765 41.4143C30.5741 44.0554 29.7842 47.0417 29.7842 50.0802C29.7842 53.1188 30.5741 56.1051 32.0765 58.7462C33.2048 60.7265 33.7981 62.9665 33.7981 65.2457C33.7981 67.5249 33.2048 69.7648 32.0765 71.7452C30.5741 74.3863 29.7842 77.3726 29.7842 80.4112C29.7842 83.4497 30.5741 86.436 32.0765 89.0771C32.3754 89.5917 32.6361 90.1275 32.8564 90.6803L36.8861 89.0555C36.5843 88.3126 36.237 87.5891 35.8462 86.889C34.7178 84.9086 34.1245 82.6687 34.1245 80.3895C34.1245 78.1103 34.7178 75.8703 35.8462 73.89C37.3485 71.2489 38.1384 68.2625 38.1384 65.224C38.1384 62.1855 37.3485 59.1992 35.8462 56.5581C34.7178 54.5777 34.1245 52.3378 34.1245 50.0586C34.1245 47.7794 34.7178 45.5394 35.8462 43.5591C36.4345 42.5332 36.9207 41.452 37.2977 40.331H41.284C41.1327 40.7022 40.9591 41.064 40.7641 41.4143C39.2617 44.0554 38.4718 47.0417 38.4718 50.0802C38.4718 53.1188 39.2617 56.1051 40.7641 58.7462C41.8924 60.7265 42.4858 62.9665 42.4858 65.2457C42.4858 67.5249 41.8924 69.7648 40.7641 71.7452C39.356 74.203 38.567 76.9665 38.4651 79.7973C38.3632 82.6281 38.9514 85.4412 40.1791 87.9939L44.0788 86.1307C43.1669 84.2188 42.732 82.1144 42.8112 79.9977C42.8905 77.881 43.4815 75.815 44.5338 73.9767C46.0361 71.3355 46.8261 68.3492 46.8261 65.3107C46.8261 62.2722 46.0361 59.2858 44.5338 56.6447C43.4055 54.6644 42.8121 52.4244 42.8121 50.1452C42.8121 47.866 43.4055 45.6261 44.5338 43.6458C45.1022 42.611 45.5666 41.5224 45.9203 40.396H54.0663C55.4898 40.3986 56.8999 40.1205 58.2158 39.5778C59.5318 39.035 60.7279 38.2382 61.7357 37.2329L65.0071 33.8315L127.835 37.5362C130.177 37.6757 132.504 37.0948 134.506 35.8716C136.507 34.6485 138.086 32.8419 139.03 30.6947C139.973 28.5475 140.237 26.1628 139.785 23.8613C139.333 21.5598 138.187 19.4519 136.501 17.8211C135.394 16.7584 134.086 15.9273 132.654 15.3767C131.222 14.8261 129.694 14.567 128.16 14.6147ZM133.49 31.3184C132.784 31.9915 131.945 32.5105 131.028 32.8424C130.11 33.1743 129.134 33.312 128.16 33.2466L64.2922 29.4985C63.9863 29.4868 63.6811 29.5363 63.3946 29.6442C63.1081 29.7521 62.8461 29.9162 62.624 30.1268L58.6593 34.0915C57.4416 35.3108 55.7895 35.9965 54.0663 35.998H38.1643C38.2368 34.5468 38.1349 33.0921 37.861 31.665H48.9967V27.3321H36.3878C36.2145 26.9638 36.0628 26.5954 35.8678 26.2488C35.2871 25.2305 34.8496 24.137 34.5679 22.9991H48.9967V18.6661H34.1996C34.3078 17.1676 34.6819 15.7004 35.3045 14.3331H54.0663C55.7895 14.3346 57.4416 15.0204 58.6593 16.2396L62.624 20.2043C62.8264 20.4051 63.0665 20.5639 63.3304 20.6718C63.5944 20.7796 63.8771 20.8342 64.1622 20.8326L128.29 18.9477C129.248 18.9131 130.203 19.0739 131.097 19.4203C131.991 19.7667 132.805 20.2914 133.49 20.9626C134.188 21.6319 134.744 22.4357 135.124 23.3256C135.504 24.2155 135.7 25.173 135.7 26.1405C135.7 27.108 135.504 28.0655 135.124 28.9554C134.744 29.8452 134.188 30.649 133.49 31.3184Z" fill="#663366"/>
</svg>
