<svg width="150" height="150" viewBox="0 0 150 150" fill="none" xmlns="http://www.w3.org/2000/svg">
<path d="M99.2539 29.244C107.127 25.0743 116.025 23.1475 124.905 23.6752C129.223 32.3269 130.881 42.1343 129.604 51.7614" stroke="#663366" stroke-width="6.28571" stroke-miterlimit="10" stroke-linecap="round" stroke-linejoin="round"/>
<path d="M50.7957 29.2703C42.9102 25.0824 33.994 23.1464 25.0951 23.6752C20.7654 32.3501 19.1106 42.1863 20.4063 51.8383" stroke="#663366" stroke-width="6.28571" stroke-miterlimit="10" stroke-linecap="round" stroke-linejoin="round"/>
<path d="M106.373 53.381C119.545 49.5124 133.568 51.5078 145 58.3753C144.686 75.1124 135.699 91.2252 119.994 99.9143C116.125 102.055 112.091 103.611 107.994 104.611" stroke="#663366" stroke-width="6.28571" stroke-miterlimit="10" stroke-linecap="round" stroke-linejoin="round"/>
<path d="M43.6274 53.381C30.4554 49.5124 16.4323 51.5078 5 58.3753C5.314 75.1124 14.3011 91.2252 30.0063 99.9143C33.7925 102.009 37.7371 103.544 41.7448 104.546" stroke="#663366" stroke-width="6.28571" stroke-miterlimit="10" stroke-linecap="round" stroke-linejoin="round"/>
<path d="M49.6172 86.1273C45.7755 78.0042 43.627 68.9231 43.627 59.3391C43.627 36.1142 56.2444 15.8431 74.9958 5C93.7546 15.8431 106.372 36.114 106.372 59.3391C106.372 69.0745 104.155 78.2908 100.198 86.5113" stroke="#663366" stroke-width="6.28571" stroke-miterlimit="10" stroke-linecap="round" stroke-linejoin="round"/>
<path d="M39.043 114.36L44.057 98.1175C47.2618 87.7364 54.4172 79.0296 63.9818 73.873L64.3987 73.6484" stroke="#663366" stroke-width="6.28571" stroke-miterlimit="10" stroke-linecap="round" stroke-linejoin="round"/>
<path d="M85.3105 73.6445L85.892 73.9665C95.1182 79.0762 102.048 87.5114 105.269 97.5528L110.545 114.002" stroke="#663366" stroke-width="6.28571" stroke-miterlimit="10" stroke-linecap="round" stroke-linejoin="round"/>
<path d="M82.6166 144.998H112.441C117.811 144.998 122.165 140.643 122.165 135.271C122.165 129.545 117.246 125.058 111.547 125.585L75.4609 128.92" stroke="#663366" stroke-width="6.28571" stroke-miterlimit="10" stroke-linecap="round" stroke-linejoin="round"/>
<path d="M80.7811 144.998H37.354C31.984 144.998 27.6309 140.643 27.6309 135.271C27.6309 129.545 32.5494 125.058 38.2486 125.585L83.7134 129.787C87.0305 130.094 89.5682 132.876 89.5682 136.207C89.5685 141.062 85.6342 144.998 80.7811 144.998Z" stroke="#663366" stroke-width="6.28571" stroke-miterlimit="10" stroke-linecap="round" stroke-linejoin="round"/>
<path d="M74.8969 77.2783C66.4264 77.2783 59.4961 70.348 59.4961 61.8774V58.018C59.4961 49.5475 66.4264 42.6172 74.8969 42.6172C83.3675 42.6172 90.2978 49.5475 90.2978 58.018V61.8774C90.2978 70.348 83.3675 77.2783 74.8969 77.2783Z" stroke="#663366" stroke-width="6.28571" stroke-miterlimit="10" stroke-linecap="round" stroke-linejoin="round"/>
<path d="M65.832 130.129V144.609" stroke="#663366" stroke-width="6.28571" stroke-miterlimit="10" stroke-linecap="round" stroke-linejoin="round"/>
<path d="M74.8971 89.6211H71.3054C66.2588 89.6211 62.1679 93.7114 62.1679 98.7568V102.325L42.3454 111.632C38.4243 113.473 36.7983 118.188 38.7514 122.054C40.7703 126.051 45.7645 127.483 49.5948 125.164L74.8822 109.856L74.8971 89.6211Z" stroke="#663366" stroke-width="6.28571" stroke-miterlimit="10" stroke-linecap="round" stroke-linejoin="round"/>
<path d="M74.8984 89.6211H78.4901C83.5367 89.6211 87.6276 93.7114 87.6276 98.7568V102.325L107.45 111.632C111.371 113.473 112.997 118.188 111.044 122.054C109.025 126.051 104.031 127.483 100.201 125.164L74.9133 109.856" stroke="#663366" stroke-width="6.28571" stroke-miterlimit="10" stroke-linecap="round" stroke-linejoin="round"/>
</svg>
