<svg width="150" height="150" viewBox="0 0 150 150" fill="none" xmlns="http://www.w3.org/2000/svg">
<path d="M138.715 97.6461V59.0879H11.2852V125.589H138.715V101.888" stroke="#663366" stroke-width="4.22535" stroke-miterlimit="10"/>
<path d="M145 49.4746H5V59.0873H145V49.4746Z" stroke="#663366" stroke-width="4.22535" stroke-miterlimit="10"/>
<path d="M138.715 31.7734H11.2852V49.4748H138.715V31.7734Z" stroke="#663366" stroke-width="4.22535" stroke-miterlimit="10"/>
<path d="M43.2188 13.6698L61.8895 5H88.1103L145 31.4169V31.7718H5V31.4169L39.3602 15.4614" stroke="#663366" stroke-width="4.22535" stroke-miterlimit="10"/>
<path d="M39.5154 135.292V125.588H11.2845H5V144.999H32.369H39.5154" stroke="#663366" stroke-width="4.22535" stroke-miterlimit="10"/>
<path d="M110.484 144.999H117.631H145V125.588H138.715H110.484V135.292" stroke="#663366" stroke-width="4.22535" stroke-miterlimit="10"/>
<path d="M110.485 125.588H39.5156V135.294H110.485V125.588Z" stroke="#663366" stroke-width="4.22535" stroke-miterlimit="10"/>
<path d="M117.629 135.295H32.3691V145.001H117.629V135.295Z" stroke="#663366" stroke-width="4.22535" stroke-miterlimit="10"/>
<path d="M39.5155 115.883H11.2852V125.588H39.5155V115.883Z" stroke="#663366" stroke-width="4.22535" stroke-miterlimit="10"/>
<path d="M80.2949 125.589V105.164H69.7048V125.589H80.2949Z" stroke="#663366" stroke-width="4.22535" stroke-miterlimit="10"/>
<path d="M39.5155 59.0879H11.2852V68.7935H39.5155V59.0879Z" stroke="#663366" stroke-width="4.22535" stroke-miterlimit="10"/>
<path d="M138.715 115.883H110.484V125.588H138.715V115.883Z" stroke="#663366" stroke-width="4.22535" stroke-miterlimit="10"/>
<path d="M30.579 68.793H20.2207V115.883H30.579V68.793Z" stroke="#663366" stroke-width="4.22535" stroke-miterlimit="10"/>
<path d="M138.715 59.0879H110.484V68.7935H138.715V59.0879Z" stroke="#663366" stroke-width="4.22535" stroke-miterlimit="10"/>
<path d="M129.778 68.793H119.42V115.883H129.778V68.793Z" stroke="#663366" stroke-width="4.22535" stroke-miterlimit="10"/>
<path d="M79.871 79.573V79.2899C79.871 77.8949 80.1023 76.5096 80.5553 75.1904L82.7519 68.793H67.2488L69.4454 75.1904C69.8984 76.5099 70.1296 77.8949 70.1296 79.2899V79.5713C70.1296 82.6439 68.9592 85.5679 66.9778 87.9163C65.3446 89.8518 64.3995 92.3865 64.5201 95.1442C64.7651 100.753 69.4975 105.222 75.111 105.164C80.8538 105.104 85.491 100.43 85.491 94.6735C85.491 92.0391 84.5195 89.6324 82.9152 87.7907C80.9347 85.5172 79.871 82.5882 79.871 79.573Z" stroke="#663366" stroke-width="4.22535" stroke-miterlimit="10"/>
<path d="M54.2949 105.164H95.7067" stroke="#663366" stroke-width="4.22535" stroke-miterlimit="10"/>
<path d="M27.583 40.623H23.2168" stroke="#663366" stroke-width="4.22535" stroke-miterlimit="10" stroke-dasharray="21.13 4.23 4.23 4.23"/>
<path d="M41.7549 40.623H37.3887" stroke="#663366" stroke-width="4.22535" stroke-miterlimit="10" stroke-dasharray="21.13 4.23 4.23 4.23"/>
<path d="M55.9267 40.623H51.5605" stroke="#663366" stroke-width="4.22535" stroke-miterlimit="10" stroke-dasharray="21.13 4.23 4.23 4.23"/>
<path d="M70.0986 40.623H65.7324" stroke="#663366" stroke-width="4.22535" stroke-miterlimit="10" stroke-dasharray="21.13 4.23 4.23 4.23"/>
<path d="M84.2685 40.623H79.9023" stroke="#663366" stroke-width="4.22535" stroke-miterlimit="10" stroke-dasharray="21.13 4.23 4.23 4.23"/>
<path d="M98.4404 40.623H94.0742" stroke="#663366" stroke-width="4.22535" stroke-miterlimit="10" stroke-dasharray="21.13 4.23 4.23 4.23"/>
<path d="M112.612 40.623H108.246" stroke="#663366" stroke-width="4.22535" stroke-miterlimit="10" stroke-dasharray="21.13 4.23 4.23 4.23"/>
<path d="M126.782 40.623H122.416" stroke="#663366" stroke-width="4.22535" stroke-miterlimit="10" stroke-dasharray="21.13 4.23 4.23 4.23"/>
<path d="M75.0007 24.0736C78.1421 24.0736 80.6888 21.5269 80.6888 18.3854C80.6888 15.2439 78.1421 12.6973 75.0007 12.6973C71.8592 12.6973 69.3125 15.2439 69.3125 18.3854C69.3125 21.5269 71.8592 24.0736 75.0007 24.0736Z" stroke="#663366" stroke-width="4.22535" stroke-miterlimit="10"/>
</svg>
