<svg width="150" height="150" viewBox="0 0 150 150" fill="none" xmlns="http://www.w3.org/2000/svg">
<path d="M13 64.5824C13 73.3156 14.8131 82.2995 18.2432 90.5625C21.6938 98.8755 26.7997 106.497 33.0087 112.603C35.9353 115.482 39.0647 118.007 42.367 120.173V126.816C42.367 129.57 43.8699 132.08 46.2888 133.366C50.9508 135.844 60.8159 140 74.5 140C88.1841 140 98.0492 135.844 102.711 133.366C105.13 132.08 106.633 129.57 106.633 126.815V120.173C109.935 118.006 113.064 115.481 115.991 112.603C122.2 106.496 127.306 98.875 130.757 90.5622C134.187 82.2993 136 73.3154 136 64.5822C136 47.0098 114.82 32.0526 85.587 28.9329C83.6562 27.0623 81.5583 25.3223 79.3119 23.8673C72.9402 19.7411 64.4622 17.6613 56.9821 15.8264C50.4874 14.2331 44.3526 12.7283 40.9215 10.2005C40.5971 9.96142 40.1638 9.93408 39.8113 10.1296C39.4594 10.3254 39.2536 10.7087 39.2843 11.1108C39.5909 15.1155 41.2781 18.6895 43.936 21.152C42.2066 21.4393 40.447 22.0991 38.6764 23.1265C38.3587 23.3109 38.163 23.6508 38.1627 24.0187C38.1625 24.3865 38.3579 24.7267 38.6754 24.9114C41.4416 26.5204 43.5928 28.7242 45.209 31.61C43.8127 31.2525 42.4301 30.9128 41.0804 30.5816C34.5857 28.9883 28.4511 27.4835 25.0201 24.9557C24.6764 24.7025 24.2119 24.6878 23.8537 24.9186C23.4946 25.1495 23.3148 25.5779 23.4014 25.9963C24.1609 29.6685 26.2418 32.6358 29.6013 34.8499C28.0456 35.1527 26.6249 35.6392 25.31 36.3168C24.993 36.4801 24.7827 36.796 24.7544 37.152C24.726 37.5079 24.8834 37.8533 25.1702 38.0651C25.2034 38.0896 26.585 39.1136 28.3646 40.5802C18.4448 47.1934 13 55.6746 13 64.5824ZM104.573 126.816C104.573 128.805 103.49 130.616 101.746 131.543C97.2528 133.931 87.7382 137.937 74.5 137.937C61.2618 137.937 51.7472 133.931 47.2541 131.543C45.5102 130.616 44.4268 128.805 44.4268 126.816V121.468C53.42 126.847 63.6131 129.641 74.5003 129.641C85.3875 129.641 95.5805 126.847 104.574 121.468V126.816H104.573ZM114.548 111.131C103.608 121.89 89.7598 127.578 74.5 127.578C59.2402 127.578 45.3918 121.89 34.4515 111.131C25.0216 101.856 18.5454 89.2893 16.1213 76.0791C19.1263 81.4233 24.2435 86.3037 31.2236 90.3675C42.7998 97.1068 58.1688 100.818 74.5 100.818C90.8312 100.818 106.2 97.1068 117.776 90.3675C124.756 86.304 129.874 81.4233 132.879 76.0791C130.455 89.2893 123.978 101.856 114.548 111.131ZM38.2101 54.4174C38.2443 54.5283 38.2794 54.6408 38.3141 54.7527C36.9171 55.6999 35.5623 56.7621 34.2793 57.9186C33.4682 58.6494 32.9953 59.6969 32.9811 60.7923C32.9669 61.8932 33.4162 62.9585 34.2139 63.7155C34.9696 64.432 35.9482 64.7916 36.9266 64.7916C37.8684 64.7916 38.8098 64.4584 39.5502 63.7887C40.0724 63.3167 40.6095 62.8674 41.154 62.4395C41.5531 63.2976 41.996 64.178 42.4991 65.0841C45.3138 70.1533 50.1421 74.9164 54.7877 76.8096C54.2179 77.4681 53.91 78.2246 53.91 79.0201C53.91 81.5244 56.9693 83.486 60.8746 83.486C62.7065 83.486 64.4357 83.0398 65.7107 82.2652C66.6445 83.3973 67.5323 84.5729 68.3616 85.7987C64.7135 86.3434 62.138 88.2614 62.138 90.6213C62.138 93.4132 65.807 95.6005 70.4906 95.6005C71.4801 95.6005 72.4642 95.4991 73.3833 95.3049C73.8383 96.4272 74.2626 97.5776 74.6563 98.7535C74.604 98.7535 74.552 98.7545 74.4997 98.7545C68.1888 98.7545 62.1063 98.1842 56.3951 97.1318C56.1348 92.634 53.9239 86.7417 50.37 81.1483C47.4261 76.5148 43.911 72.6163 40.4725 70.1714C36.7757 67.543 33.5192 66.8734 31.3037 68.2864C29.0879 69.6993 28.3147 72.938 29.1262 77.4062C29.8006 81.1179 31.4999 85.3754 33.952 89.5441C27.6888 86.1794 22.6892 82.0472 19.4105 77.4109C19.6088 67.5038 26.0592 58.0664 37.2075 51.3348C37.5502 52.2959 37.871 53.3222 38.2101 54.4174ZM40.3041 60.4879C39.577 61.0394 38.8618 61.6316 38.1705 62.2566C37.4534 62.9048 36.3373 62.8875 35.63 62.2166C35.243 61.8496 35.0339 61.3531 35.0406 60.8186C35.0473 60.2896 35.2662 59.8044 35.6568 59.4523C36.7152 58.4985 37.8244 57.6133 38.9663 56.809C39.3499 57.9808 39.7827 59.2068 40.3041 60.4879ZM81.6474 62.4655C82.1652 61.4681 82.1382 60.2917 81.5761 59.3185C81.451 59.1021 81.3184 58.8758 81.1822 58.6453C81.4386 58.2235 81.6886 57.7943 81.9451 57.3429C83.0514 55.3953 84.1954 53.381 86.424 51.9763C88.9743 50.3689 92.1827 49.7429 94.5499 49.5043C95.0481 49.8631 96.1472 50.6887 97.5074 51.9178C93.5586 53.4783 89.9161 55.7479 86.6607 58.6819C85.8496 59.4126 85.3766 60.4601 85.3625 61.5555C85.3483 62.6564 85.7976 63.7217 86.5955 64.4785C87.3509 65.1953 88.3296 65.5551 89.3082 65.5551C90.2498 65.5551 91.1911 65.2216 91.9316 64.552C95.2849 61.5202 98.9673 59.4792 103.168 58.3228C104.253 59.9086 105.238 61.6677 105.979 63.5739C106.16 64.0413 106.327 64.5283 106.48 65.0274C99.4454 65.4486 93.2754 69.0818 90.4792 74.3507C87.5162 68.9802 83.1642 65.1398 80.9296 63.3908C81.2174 63.1318 81.4626 62.8218 81.6474 62.4655ZM97.5486 47.7101C97.9655 46.9071 98.0231 45.9896 97.7389 45.1542C116.937 51.0116 129.314 63.4723 129.591 77.4085C128.768 78.5734 127.838 79.7072 126.805 80.8045C126.805 80.7426 126.81 80.681 126.81 80.6191C126.81 76.7038 125.052 73.1232 122.158 70.3775C122.62 69.5438 122.868 68.5698 122.868 67.5513C122.868 64.6879 120.881 62.3588 118.438 62.3588C116.505 62.3588 114.836 63.8385 114.243 65.9007C112.475 65.3771 110.586 65.0655 108.621 65.0005C108.41 64.2486 108.168 63.52 107.899 62.8259C107.864 62.7359 107.826 62.6482 107.79 62.5589C111.199 62.3484 113.783 60.5212 113.783 58.2264C113.783 55.7853 110.86 53.8732 107.129 53.8732C105.648 53.8732 104.227 54.1902 103.081 54.7527C100.748 51.8953 98.3205 49.8017 96.8316 48.6363C97.1184 48.3763 97.3638 48.0663 97.5486 47.7101ZM99.1591 53.4992C100.042 54.3937 100.967 55.4151 101.865 56.5531C97.6622 57.8268 93.9474 59.9502 90.5521 63.0201C89.8345 63.6686 88.7189 63.651 88.0119 62.9801C87.6249 62.6128 87.4156 62.1163 87.4223 61.5819C87.4289 61.0528 87.6478 60.5677 88.0384 60.2158C91.3551 57.2271 95.0942 54.971 99.1591 53.4992ZM106.862 60.5094C106.121 59.0414 105.269 57.6788 104.37 56.4314C105.164 56.1139 106.12 55.9362 107.129 55.9362C109.758 55.9362 111.723 57.1451 111.723 58.2258C111.723 59.3066 109.758 60.5155 107.129 60.5155C107.04 60.5158 106.951 60.5122 106.862 60.5094ZM112.791 79.5871C112.628 79.1065 112.354 78.6654 111.989 78.2788L119.302 70.6491C122.354 72.9114 124.365 76.0634 124.697 79.5871H112.791ZM107.852 82.4999C106.224 82.4999 104.796 81.6209 104.796 80.6188C104.796 79.6167 106.224 78.7377 107.852 78.7377C109.479 78.7377 110.907 79.6167 110.907 80.6188C110.907 81.6209 109.48 82.4999 107.852 82.4999ZM93.8256 88.173C93.8107 86.1038 93.6335 83.8768 93.1788 81.6505H102.913C103.06 82.0828 103.292 82.486 103.604 82.8437L96.391 90.5826C95.4289 89.8686 94.5684 89.06 93.8256 88.173ZM120.529 69.0052C119.231 68.0408 117.772 67.2229 116.189 66.5809C116.502 65.3266 117.401 64.422 118.438 64.422C119.745 64.422 120.809 65.8257 120.809 67.551C120.809 68.0615 120.709 68.5593 120.529 69.0052ZM117.539 69.5087L110.245 77.1199C109.823 76.9512 109.366 76.8251 108.882 76.7516V67.0751C112.09 67.2309 115.058 68.1089 117.539 69.5087ZM106.822 76.7516C106.338 76.8251 105.881 76.9512 105.459 77.1199L98.1624 69.5062C100.665 68.0983 103.647 67.2312 106.822 67.0756V76.7516ZM96.3998 70.6467L103.715 78.2788C103.35 78.6654 103.076 79.1068 102.913 79.5871H92.6721C92.4772 78.912 92.254 78.2419 91.9973 77.5811C91.8881 77.3002 91.774 77.0229 91.6561 76.7485C92.5439 74.3528 94.2113 72.2653 96.3998 70.6467ZM90.4862 79.4831C90.8752 80.6905 91.1569 81.9283 91.3544 83.1631C88.1692 84.3759 85.1864 86.1647 82.4783 88.4913C81.7445 89.1209 80.6299 89.0755 79.9401 88.3868C79.5624 88.0099 79.3657 87.5083 79.386 86.9741C79.4061 86.4453 79.6373 85.9661 80.0364 85.6243C83.1959 82.9186 86.7075 80.8571 90.4862 79.4831ZM93.7455 91.0685C95.7265 92.8844 98.1964 94.294 100.941 95.1811C98.3839 95.9144 95.7229 96.5448 92.9736 97.0627C93.228 95.7968 93.5867 93.6585 93.7455 91.0685ZM104.81 93.967C102.396 93.6133 100.128 92.8377 98.1493 91.7198L105.298 84.0496C105.764 84.2529 106.275 84.4035 106.822 84.4865V93.2476C106.161 93.4947 105.489 93.7343 104.81 93.967ZM108.882 84.4863C109.527 84.3883 110.123 84.1979 110.651 83.9359L115.457 89.3257C113.399 90.4518 111.202 91.4944 108.882 92.4436V84.4863ZM117.285 88.2787L112.259 82.6415C112.492 82.3364 112.671 82.0042 112.791 81.6505H124.697C124.652 82.1275 124.577 82.601 124.47 83.0687C122.37 84.9384 119.961 86.6826 117.285 88.2787ZM83.2579 68.2549C84.141 69.1494 85.0654 70.1709 85.9639 71.3089C81.7612 72.5826 78.0464 74.7056 74.6511 77.7756C73.9333 78.4243 72.8177 78.406 72.1107 77.7358C71.7237 77.3685 71.5144 76.872 71.5213 76.3378C71.528 75.8088 71.7469 75.3236 72.1374 74.9716C75.4539 71.9826 79.1929 69.7262 83.2579 68.2549ZM78.6486 64.2597C79.1469 64.6185 80.246 65.4442 81.6065 66.6735C77.6579 68.2338 74.0154 70.5036 70.7597 73.4374C69.9487 74.1681 69.4754 75.2158 69.4613 76.3113C69.4471 77.4121 69.8967 78.4774 70.6943 79.2339C71.4497 79.9505 72.4284 80.3103 73.407 80.3103C74.3489 80.3103 75.2902 79.9771 76.0307 79.3075C79.384 76.2757 83.0666 74.2344 87.267 73.0783C88.2029 74.4464 89.0644 75.9435 89.7588 77.5527C85.7567 79.0111 82.0398 81.194 78.6978 84.0553C77.8685 84.7654 77.369 85.8005 77.3273 86.8951C77.2853 87.9955 77.7078 89.0716 78.4859 89.8485C79.2483 90.6094 80.2599 90.9945 81.2718 90.9945C82.1796 90.9945 83.0887 90.6845 83.8187 90.0572C86.2111 88.0022 88.8286 86.3971 91.6147 85.2748C92.1165 90.9365 91.0817 96.1138 90.782 97.4512C86.3169 98.1832 81.6379 98.6194 76.8144 98.7261C75.3378 94.1599 73.4155 89.9481 71.0841 86.2054C68.7836 82.5118 66.0284 79.1818 62.8893 76.2814C64.284 75.1929 65.1746 73.628 66.0436 72.0981C67.1502 70.1505 68.2942 68.1363 70.5228 66.7313C73.0731 65.1241 76.2817 64.4983 78.6486 64.2597ZM69.6006 87.7386C70.6778 89.5098 71.6676 91.3832 72.5556 93.3562C71.8921 93.471 71.1969 93.537 70.4912 93.537C66.8894 93.537 64.1983 91.9976 64.1983 90.6213C64.198 89.3855 66.3886 87.9658 69.6006 87.7386ZM60.7121 77.3998C60.7976 77.3747 60.8772 77.344 60.9598 77.3162C62.1421 78.374 63.2709 79.4927 64.3394 80.673C63.4169 81.1458 62.1764 81.4225 60.8748 81.4225C58.0676 81.4225 55.97 80.154 55.97 79.0201C55.97 78.5058 56.4015 77.9587 57.1397 77.5176C57.6861 77.619 58.2244 77.6719 58.7507 77.6719C59.4268 77.6719 60.0836 77.5844 60.7121 77.3998ZM37.516 91.3141C37.206 90.8612 36.8983 90.3977 36.6001 89.929C30.5853 80.4615 29.5642 71.8418 32.4098 70.0274C35.2546 68.2136 42.6175 72.7889 48.6331 82.2564C51.8698 87.3509 53.9244 92.6391 54.2957 96.721C48.1735 95.4449 42.5179 93.6061 37.516 91.3141ZM133.94 64.5824C133.94 68.0019 133.058 71.3045 131.425 74.4219C130.542 67.8306 127.145 61.5532 121.469 56.1023C115.171 50.0532 106.474 45.3892 96.3014 42.5921C94.3107 39.355 91.445 35.1837 87.8723 31.2847C100.39 32.951 111.744 36.9603 120.088 42.6981C129.021 48.8406 133.94 56.6125 133.94 64.5824ZM41.2496 24.1216C43.1695 23.2652 45.0408 22.9196 46.8323 23.094C47.3192 23.1419 47.7695 22.8412 47.915 22.3746C48.0602 21.9082 47.8594 21.4037 47.4338 21.1659C44.5277 19.5417 42.4584 16.6069 41.6589 13.0858C45.4641 15.1256 50.8463 16.4457 56.4924 17.8308C63.8144 19.6268 72.1135 21.6627 78.1934 25.6003C86.4601 30.954 92.7069 40.4265 95.6948 45.5965C95.9054 45.961 95.915 46.3845 95.7213 46.758C95.5246 47.1369 95.1675 47.3758 94.7409 47.4129C92.1209 47.6425 88.361 48.3175 85.3275 50.2293C82.6611 51.91 81.3297 54.2542 80.1549 56.322C80.0915 56.4335 80.0295 56.5423 79.9674 56.6514C76.5119 51.1517 70.7479 43.3744 63.4107 38.6227C58.9165 35.7122 53.3749 33.8218 47.8743 32.3154C46.3037 28.8955 44.0825 26.1461 41.2496 24.1216ZM33.0141 36.5489C33.4935 36.5329 33.8985 36.1878 33.9907 35.7163C34.0831 35.2448 33.8382 34.772 33.4005 34.576C29.8644 32.9915 27.4988 30.8558 26.2325 28.0884C30.0037 29.9894 35.1758 31.2581 40.5912 32.5865C47.9132 34.3825 56.2125 36.4184 62.2925 40.3563C70.5599 45.7103 76.8062 55.1827 79.7936 60.3525C80.0042 60.717 80.0138 61.1403 79.8204 61.5138C79.6237 61.8927 79.2663 62.1315 78.8397 62.1687C76.2197 62.3982 72.4601 63.073 69.4265 64.9851C66.7601 66.6658 65.4288 69.0099 64.2536 71.078C63.061 73.1776 62.1192 74.8359 60.1323 75.4198C55.8408 76.6793 48.294 71.2764 44.2991 64.081C42.1754 60.2563 41.1141 56.8294 40.1774 53.8059C39.351 51.1373 38.6373 48.8323 37.3893 46.829C35.3903 43.62 30.2939 39.4267 27.7995 37.4783C29.3448 36.9191 31.066 36.6134 33.0141 36.5489ZM30.0071 41.9694C32.1824 43.8601 34.5115 46.1075 35.6416 47.9213C35.931 48.3859 36.19 48.8801 36.4302 49.3993C25.5863 55.8598 18.8804 64.8112 17.5781 74.4273C15.9429 71.3086 15.0598 68.0039 15.0598 64.5824C15.0598 56.2439 20.3627 48.2365 30.0071 41.9694ZM46.1634 49.0573C48.6519 49.0573 50.6764 47.2249 50.6764 44.9723C50.6764 42.7198 48.6519 40.8874 46.1634 40.8874C43.6749 40.8874 41.6504 42.7198 41.6504 44.9723C41.6504 47.2249 43.6749 49.0573 46.1634 49.0573ZM46.1634 42.9506C47.5162 42.9506 48.6166 43.8575 48.6166 44.9721C48.6166 46.0866 47.5162 46.9935 46.1634 46.9935C44.8107 46.9935 43.7102 46.0866 43.7102 44.9721C43.7102 43.8575 44.8107 42.9506 46.1634 42.9506ZM66.5778 30.2169C66.5778 27.9643 64.5533 26.1319 62.0646 26.1319C59.5762 26.1319 57.5517 27.9643 57.5517 30.2169C57.5517 32.4694 59.5762 34.3018 62.0646 34.3018C64.5533 34.3018 66.5778 32.4692 66.5778 30.2169ZM62.0646 32.2383C60.7119 32.2383 59.6114 31.3314 59.6114 30.2169C59.6114 29.1023 60.7119 28.1954 62.0646 28.1954C63.4176 28.1954 64.5181 29.1023 64.5181 30.2169C64.5181 31.3314 63.4174 32.2383 62.0646 32.2383ZM42.9054 79.7274C40.9949 76.7204 37.1117 72.0455 34.6778 73.5978C32.2437 75.1503 34.8272 80.6534 36.7379 83.6601C38.3875 86.2568 41.5081 90.0974 43.8966 90.0974C44.2741 90.0974 44.633 90.0015 44.9651 89.7897C45.6768 89.336 46.3691 88.2289 45.6268 85.5302C45.1518 83.8022 44.1853 81.7416 42.9054 79.7274ZM43.8451 88.0265C43.2148 87.9751 40.9339 86.4218 38.4756 82.5523C36.0167 78.682 35.578 75.9548 35.7989 75.361C36.4289 75.4124 38.7096 76.9654 41.1682 80.8352C43.6268 84.7053 44.0655 87.4324 43.8451 88.0265Z" fill="#663366"/>
</svg>
