<svg width="150" height="150" viewBox="0 0 150 150" fill="none" xmlns="http://www.w3.org/2000/svg">
<mask id="path-1-outside-1_629_2343" maskUnits="userSpaceOnUse" x="4" y="4" width="142" height="142" fill="black">
<rect fill="white" x="4" y="4" width="142" height="142"/>
<path fill-rule="evenodd" clip-rule="evenodd" d="M52.4098 66.9673V26.4909C52.4098 23.0543 55.062 19.6481 58.4166 18.9189L121.798 5.14036C125.35 4.36835 128.29 6.86827 128.29 10.4942V20.777H138.751C142.19 20.777 145 23.5868 145 27.026V113.75C145 117.189 142.19 119.999 138.751 119.999H120.3V134.655C120.3 140.344 115.645 144.999 109.956 144.999H15.3442C9.65471 145 5 140.345 5 134.656V77.3112C5 71.622 9.655 66.967 15.3442 66.967H52.4098V66.9673ZM34.7127 91.7748C40.0786 91.7748 44.4286 96.1249 44.4286 101.491C44.4286 104.807 42.7613 107.782 40.1406 109.551C44.758 110.657 48.9072 113.163 52.0495 116.682V88.6283C52.0495 87.4939 51.1168 86.5613 49.9825 86.5613H19.443C18.3083 86.5613 17.3759 87.4939 17.3759 88.6283V116.682C20.5179 113.163 24.6677 110.658 29.2848 109.551C24.2259 106.136 23.5136 98.9495 27.8424 94.6207C29.6007 92.8624 32.0298 91.7748 34.7127 91.7748ZM39.9601 96.2434C35.2977 91.5809 27.2916 94.8993 27.2916 101.491C27.2916 108.083 35.2982 111.4 39.9601 106.738C42.8579 103.84 42.8582 99.1412 39.9601 96.2434ZM52.0495 120.401C46.0077 111.5 34.2115 108.606 24.7667 113.713C21.8 115.317 19.2634 117.62 17.3759 120.401V123.149C17.3759 124.283 18.3083 125.216 19.443 125.216H49.9822C51.1168 125.216 52.0492 124.284 52.0492 123.149V120.401H52.0495ZM19.443 84.2662C17.0414 84.2662 15.0809 86.2268 15.0809 88.6283V123.149C15.0809 125.55 17.0414 127.511 19.443 127.511H49.9822C52.3837 127.511 54.3443 125.55 54.3443 123.149V88.6283C54.3443 86.2268 52.3834 84.2662 49.9822 84.2662H19.443ZM76.7784 130.078H100.898C102.409 130.078 102.409 127.783 100.898 127.783H76.7784C75.2677 127.783 75.2677 130.078 76.7784 130.078ZM67.0329 121.016H110.643C112.154 121.016 112.154 118.721 110.643 118.721H67.0329C65.5222 118.721 65.5222 121.016 67.0329 121.016ZM88.8382 112.212C90.132 112.212 91.3516 110.756 92.354 108.4L92.3522 108.4C92.6234 107.753 92.8692 107.045 93.0861 106.285H84.59C85.2364 108.548 86.7554 112.212 88.8382 112.212ZM93.622 103.99C94.3352 100.164 94.3352 95.7166 93.622 91.891H84.0544C83.3412 95.7166 83.3412 100.164 84.0544 103.99H93.622ZM93.0864 89.5962C92.4403 87.333 90.9213 83.6695 88.8385 83.6695C87.5446 83.6695 86.3251 85.1254 85.3227 87.481L85.3244 87.4816C85.0533 88.1279 84.8075 88.836 84.5906 89.5962H93.0864ZM94.4666 109.286C94.0988 110.163 93.6845 110.948 93.2301 111.627C96.1951 110.677 98.7521 108.787 100.539 106.285H95.4618C95.1809 107.376 94.847 108.384 94.468 109.287L94.4666 109.286ZM84.4463 111.627C83.4109 110.079 82.6966 108.157 82.2146 106.285H77.137C78.9243 108.787 81.4813 110.677 84.4463 111.627ZM81.7252 103.99C81.0579 100.119 81.0579 95.7625 81.7252 91.891H75.7993C74.0229 95.7138 74.0229 100.167 75.7993 103.99H81.7252ZM82.2146 89.5962C82.4954 88.5049 82.8294 87.4974 83.2084 86.5943L83.2101 86.5948C83.5779 85.7184 83.9921 84.9329 84.4466 84.2536C81.4825 85.204 78.924 87.0946 77.1373 89.5962H82.2146ZM93.2301 84.2536C94.2661 85.8027 94.9795 87.7226 95.4618 89.5962H100.539C98.7527 87.0946 96.1942 85.2037 93.2301 84.2536ZM95.9515 91.891C96.6188 95.7622 96.6188 100.118 95.9515 103.99H101.877C103.654 100.167 103.654 95.7138 101.877 91.891H95.9515ZM100.623 109.725C107.131 103.216 107.131 92.6647 100.623 86.1562C94.114 79.6476 83.5624 79.6476 77.0538 86.1562C70.5452 92.6645 70.5452 103.216 77.0538 109.725C83.5624 116.234 94.1143 116.233 100.623 109.725ZM120.3 117.704H138.751C140.923 117.704 142.705 115.923 142.705 113.75V27.0263C142.705 24.854 140.923 23.0724 138.751 23.0724H58.6587C56.4927 23.0724 54.7201 24.8276 54.7049 27.0323V66.9673H109.956C115.645 66.9673 120.3 71.622 120.3 77.3115V117.704ZM109.956 69.2624C78.4185 69.2624 46.8812 69.2624 15.3439 69.2624C10.9173 69.2624 7.29508 72.8843 7.29508 77.3112V134.656C7.29508 139.082 10.9173 142.705 15.3442 142.705H109.956C114.383 142.705 118.005 139.082 118.005 134.656V77.3112C118.005 72.8843 114.383 69.2624 109.956 69.2624ZM86.645 57.1435H110.765C112.276 57.1435 112.276 54.8484 110.765 54.8484H86.645C85.1342 54.8484 85.1342 57.1435 86.645 57.1435ZM78.5433 33.4605C76.2568 33.4605 74.3904 35.327 74.3904 37.6135V43.1234C74.3904 45.4099 76.2568 47.2763 78.5433 47.2763H118.866C121.153 47.2763 123.019 45.4099 123.019 43.1234V37.6135C123.019 35.327 121.153 33.4605 118.866 33.4605H78.5433ZM118.866 35.7556H78.5433C77.5237 35.7556 76.6854 36.5942 76.6854 37.6135V43.1234C76.6854 44.143 77.524 44.9813 78.5433 44.9813H118.866C119.886 44.9813 120.724 44.143 120.724 43.1234V37.6135C120.724 36.5942 119.886 35.7556 118.866 35.7556ZM125.994 20.777V10.4942C125.994 8.31876 124.413 6.91819 122.283 7.38151L60.662 20.777H125.994Z"/>
</mask>
<path fill-rule="evenodd" clip-rule="evenodd" d="M52.4098 66.9673V26.4909C52.4098 23.0543 55.062 19.6481 58.4166 18.9189L121.798 5.14036C125.35 4.36835 128.29 6.86827 128.29 10.4942V20.777H138.751C142.19 20.777 145 23.5868 145 27.026V113.75C145 117.189 142.19 119.999 138.751 119.999H120.3V134.655C120.3 140.344 115.645 144.999 109.956 144.999H15.3442C9.65471 145 5 140.345 5 134.656V77.3112C5 71.622 9.655 66.967 15.3442 66.967H52.4098V66.9673ZM34.7127 91.7748C40.0786 91.7748 44.4286 96.1249 44.4286 101.491C44.4286 104.807 42.7613 107.782 40.1406 109.551C44.758 110.657 48.9072 113.163 52.0495 116.682V88.6283C52.0495 87.4939 51.1168 86.5613 49.9825 86.5613H19.443C18.3083 86.5613 17.3759 87.4939 17.3759 88.6283V116.682C20.5179 113.163 24.6677 110.658 29.2848 109.551C24.2259 106.136 23.5136 98.9495 27.8424 94.6207C29.6007 92.8624 32.0298 91.7748 34.7127 91.7748ZM39.9601 96.2434C35.2977 91.5809 27.2916 94.8993 27.2916 101.491C27.2916 108.083 35.2982 111.4 39.9601 106.738C42.8579 103.84 42.8582 99.1412 39.9601 96.2434ZM52.0495 120.401C46.0077 111.5 34.2115 108.606 24.7667 113.713C21.8 115.317 19.2634 117.62 17.3759 120.401V123.149C17.3759 124.283 18.3083 125.216 19.443 125.216H49.9822C51.1168 125.216 52.0492 124.284 52.0492 123.149V120.401H52.0495ZM19.443 84.2662C17.0414 84.2662 15.0809 86.2268 15.0809 88.6283V123.149C15.0809 125.55 17.0414 127.511 19.443 127.511H49.9822C52.3837 127.511 54.3443 125.55 54.3443 123.149V88.6283C54.3443 86.2268 52.3834 84.2662 49.9822 84.2662H19.443ZM76.7784 130.078H100.898C102.409 130.078 102.409 127.783 100.898 127.783H76.7784C75.2677 127.783 75.2677 130.078 76.7784 130.078ZM67.0329 121.016H110.643C112.154 121.016 112.154 118.721 110.643 118.721H67.0329C65.5222 118.721 65.5222 121.016 67.0329 121.016ZM88.8382 112.212C90.132 112.212 91.3516 110.756 92.354 108.4L92.3522 108.4C92.6234 107.753 92.8692 107.045 93.0861 106.285H84.59C85.2364 108.548 86.7554 112.212 88.8382 112.212ZM93.622 103.99C94.3352 100.164 94.3352 95.7166 93.622 91.891H84.0544C83.3412 95.7166 83.3412 100.164 84.0544 103.99H93.622ZM93.0864 89.5962C92.4403 87.333 90.9213 83.6695 88.8385 83.6695C87.5446 83.6695 86.3251 85.1254 85.3227 87.481L85.3244 87.4816C85.0533 88.1279 84.8075 88.836 84.5906 89.5962H93.0864ZM94.4666 109.286C94.0988 110.163 93.6845 110.948 93.2301 111.627C96.1951 110.677 98.7521 108.787 100.539 106.285H95.4618C95.1809 107.376 94.847 108.384 94.468 109.287L94.4666 109.286ZM84.4463 111.627C83.4109 110.079 82.6966 108.157 82.2146 106.285H77.137C78.9243 108.787 81.4813 110.677 84.4463 111.627ZM81.7252 103.99C81.0579 100.119 81.0579 95.7625 81.7252 91.891H75.7993C74.0229 95.7138 74.0229 100.167 75.7993 103.99H81.7252ZM82.2146 89.5962C82.4954 88.5049 82.8294 87.4974 83.2084 86.5943L83.2101 86.5948C83.5779 85.7184 83.9921 84.9329 84.4466 84.2536C81.4825 85.204 78.924 87.0946 77.1373 89.5962H82.2146ZM93.2301 84.2536C94.2661 85.8027 94.9795 87.7226 95.4618 89.5962H100.539C98.7527 87.0946 96.1942 85.2037 93.2301 84.2536ZM95.9515 91.891C96.6188 95.7622 96.6188 100.118 95.9515 103.99H101.877C103.654 100.167 103.654 95.7138 101.877 91.891H95.9515ZM100.623 109.725C107.131 103.216 107.131 92.6647 100.623 86.1562C94.114 79.6476 83.5624 79.6476 77.0538 86.1562C70.5452 92.6645 70.5452 103.216 77.0538 109.725C83.5624 116.234 94.1143 116.233 100.623 109.725ZM120.3 117.704H138.751C140.923 117.704 142.705 115.923 142.705 113.75V27.0263C142.705 24.854 140.923 23.0724 138.751 23.0724H58.6587C56.4927 23.0724 54.7201 24.8276 54.7049 27.0323V66.9673H109.956C115.645 66.9673 120.3 71.622 120.3 77.3115V117.704ZM109.956 69.2624C78.4185 69.2624 46.8812 69.2624 15.3439 69.2624C10.9173 69.2624 7.29508 72.8843 7.29508 77.3112V134.656C7.29508 139.082 10.9173 142.705 15.3442 142.705H109.956C114.383 142.705 118.005 139.082 118.005 134.656V77.3112C118.005 72.8843 114.383 69.2624 109.956 69.2624ZM86.645 57.1435H110.765C112.276 57.1435 112.276 54.8484 110.765 54.8484H86.645C85.1342 54.8484 85.1342 57.1435 86.645 57.1435ZM78.5433 33.4605C76.2568 33.4605 74.3904 35.327 74.3904 37.6135V43.1234C74.3904 45.4099 76.2568 47.2763 78.5433 47.2763H118.866C121.153 47.2763 123.019 45.4099 123.019 43.1234V37.6135C123.019 35.327 121.153 33.4605 118.866 33.4605H78.5433ZM118.866 35.7556H78.5433C77.5237 35.7556 76.6854 36.5942 76.6854 37.6135V43.1234C76.6854 44.143 77.524 44.9813 78.5433 44.9813H118.866C119.886 44.9813 120.724 44.143 120.724 43.1234V37.6135C120.724 36.5942 119.886 35.7556 118.866 35.7556ZM125.994 20.777V10.4942C125.994 8.31876 124.413 6.91819 122.283 7.38151L60.662 20.777H125.994Z" fill="#663366"/>
<path fill-rule="evenodd" clip-rule="evenodd" d="M52.4098 66.9673V26.4909C52.4098 23.0543 55.062 19.6481 58.4166 18.9189L121.798 5.14036C125.35 4.36835 128.29 6.86827 128.29 10.4942V20.777H138.751C142.19 20.777 145 23.5868 145 27.026V113.75C145 117.189 142.19 119.999 138.751 119.999H120.3V134.655C120.3 140.344 115.645 144.999 109.956 144.999H15.3442C9.65471 145 5 140.345 5 134.656V77.3112C5 71.622 9.655 66.967 15.3442 66.967H52.4098V66.9673ZM34.7127 91.7748C40.0786 91.7748 44.4286 96.1249 44.4286 101.491C44.4286 104.807 42.7613 107.782 40.1406 109.551C44.758 110.657 48.9072 113.163 52.0495 116.682V88.6283C52.0495 87.4939 51.1168 86.5613 49.9825 86.5613H19.443C18.3083 86.5613 17.3759 87.4939 17.3759 88.6283V116.682C20.5179 113.163 24.6677 110.658 29.2848 109.551C24.2259 106.136 23.5136 98.9495 27.8424 94.6207C29.6007 92.8624 32.0298 91.7748 34.7127 91.7748ZM39.9601 96.2434C35.2977 91.5809 27.2916 94.8993 27.2916 101.491C27.2916 108.083 35.2982 111.4 39.9601 106.738C42.8579 103.84 42.8582 99.1412 39.9601 96.2434ZM52.0495 120.401C46.0077 111.5 34.2115 108.606 24.7667 113.713C21.8 115.317 19.2634 117.62 17.3759 120.401V123.149C17.3759 124.283 18.3083 125.216 19.443 125.216H49.9822C51.1168 125.216 52.0492 124.284 52.0492 123.149V120.401H52.0495ZM19.443 84.2662C17.0414 84.2662 15.0809 86.2268 15.0809 88.6283V123.149C15.0809 125.55 17.0414 127.511 19.443 127.511H49.9822C52.3837 127.511 54.3443 125.55 54.3443 123.149V88.6283C54.3443 86.2268 52.3834 84.2662 49.9822 84.2662H19.443ZM76.7784 130.078H100.898C102.409 130.078 102.409 127.783 100.898 127.783H76.7784C75.2677 127.783 75.2677 130.078 76.7784 130.078ZM67.0329 121.016H110.643C112.154 121.016 112.154 118.721 110.643 118.721H67.0329C65.5222 118.721 65.5222 121.016 67.0329 121.016ZM88.8382 112.212C90.132 112.212 91.3516 110.756 92.354 108.4L92.3522 108.4C92.6234 107.753 92.8692 107.045 93.0861 106.285H84.59C85.2364 108.548 86.7554 112.212 88.8382 112.212ZM93.622 103.99C94.3352 100.164 94.3352 95.7166 93.622 91.891H84.0544C83.3412 95.7166 83.3412 100.164 84.0544 103.99H93.622ZM93.0864 89.5962C92.4403 87.333 90.9213 83.6695 88.8385 83.6695C87.5446 83.6695 86.3251 85.1254 85.3227 87.481L85.3244 87.4816C85.0533 88.1279 84.8075 88.836 84.5906 89.5962H93.0864ZM94.4666 109.286C94.0988 110.163 93.6845 110.948 93.2301 111.627C96.1951 110.677 98.7521 108.787 100.539 106.285H95.4618C95.1809 107.376 94.847 108.384 94.468 109.287L94.4666 109.286ZM84.4463 111.627C83.4109 110.079 82.6966 108.157 82.2146 106.285H77.137C78.9243 108.787 81.4813 110.677 84.4463 111.627ZM81.7252 103.99C81.0579 100.119 81.0579 95.7625 81.7252 91.891H75.7993C74.0229 95.7138 74.0229 100.167 75.7993 103.99H81.7252ZM82.2146 89.5962C82.4954 88.5049 82.8294 87.4974 83.2084 86.5943L83.2101 86.5948C83.5779 85.7184 83.9921 84.9329 84.4466 84.2536C81.4825 85.204 78.924 87.0946 77.1373 89.5962H82.2146ZM93.2301 84.2536C94.2661 85.8027 94.9795 87.7226 95.4618 89.5962H100.539C98.7527 87.0946 96.1942 85.2037 93.2301 84.2536ZM95.9515 91.891C96.6188 95.7622 96.6188 100.118 95.9515 103.99H101.877C103.654 100.167 103.654 95.7138 101.877 91.891H95.9515ZM100.623 109.725C107.131 103.216 107.131 92.6647 100.623 86.1562C94.114 79.6476 83.5624 79.6476 77.0538 86.1562C70.5452 92.6645 70.5452 103.216 77.0538 109.725C83.5624 116.234 94.1143 116.233 100.623 109.725ZM120.3 117.704H138.751C140.923 117.704 142.705 115.923 142.705 113.75V27.0263C142.705 24.854 140.923 23.0724 138.751 23.0724H58.6587C56.4927 23.0724 54.7201 24.8276 54.7049 27.0323V66.9673H109.956C115.645 66.9673 120.3 71.622 120.3 77.3115V117.704ZM109.956 69.2624C78.4185 69.2624 46.8812 69.2624 15.3439 69.2624C10.9173 69.2624 7.29508 72.8843 7.29508 77.3112V134.656C7.29508 139.082 10.9173 142.705 15.3442 142.705H109.956C114.383 142.705 118.005 139.082 118.005 134.656V77.3112C118.005 72.8843 114.383 69.2624 109.956 69.2624ZM86.645 57.1435H110.765C112.276 57.1435 112.276 54.8484 110.765 54.8484H86.645C85.1342 54.8484 85.1342 57.1435 86.645 57.1435ZM78.5433 33.4605C76.2568 33.4605 74.3904 35.327 74.3904 37.6135V43.1234C74.3904 45.4099 76.2568 47.2763 78.5433 47.2763H118.866C121.153 47.2763 123.019 45.4099 123.019 43.1234V37.6135C123.019 35.327 121.153 33.4605 118.866 33.4605H78.5433ZM118.866 35.7556H78.5433C77.5237 35.7556 76.6854 36.5942 76.6854 37.6135V43.1234C76.6854 44.143 77.524 44.9813 78.5433 44.9813H118.866C119.886 44.9813 120.724 44.143 120.724 43.1234V37.6135C120.724 36.5942 119.886 35.7556 118.866 35.7556ZM125.994 20.777V10.4942C125.994 8.31876 124.413 6.91819 122.283 7.38151L60.662 20.777H125.994Z" stroke="#663366" stroke-width="1.6" mask="url(#path-1-outside-1_629_2343)"/>
</svg>
