<svg width="150" height="150" viewBox="0 0 150 150" fill="none" xmlns="http://www.w3.org/2000/svg">
<path d="M38.7036 121.137L40.1576 119.131L31.2983 110.751L24.5757 114.361L23.7669 114.487L17.7846 113.374L17.2053 113.266L16.9222 112.754L13.3046 106.215L13.0145 105.689L13.2515 105.135L15.3389 100.265L15.8429 99.689L23.0135 95.4141L20.0603 83.7795L12.5352 83.871L11.7942 83.6342L7.23423 80.3175L6.75168 79.9663L6.72004 79.3777L6.30537 71.6045L6.27148 70.9673L6.77515 70.5684L11.7508 66.6299L12.5052 66.3628L19.5893 66.2725L22.0289 54.254L16.4628 50.2643L16.0607 49.7754L13.3659 43.9711L13.0796 43.3547L13.4436 42.7854L17.4856 36.4631L17.8173 35.944L18.4298 35.8921L24.4413 35.3737L25.1531 35.5383L31.2917 39.0202L40.1401 30.4394L36.2702 24.7693L36.0521 23.9893L36.4664 17.7707L36.5093 17.1354L37.0578 16.7979L43.7945 12.6523L44.3062 12.3369L44.8691 12.5453L50.4663 14.6183L51.0763 15.1022L54.9564 21.014L66.6511 18.316L66.835 10.6721L67.1257 9.90751L70.857 5.45101L71.2428 4.9899L71.8349 5.00574L79.7118 5.21291L80.3256 5.22875L80.6851 5.72089L84.3127 10.6955L84.5497 11.3642L84.915 18.2098L96.3487 20.9106L100.634 14.6683L101.254 14.1944L106.955 12.2248L107.552 12.019L108.068 12.3795L114.287 16.7329L114.77 17.0718L114.814 17.6625L115.229 23.2596L115.045 23.9907L111.099 30.4155L119.506 38.8227L126.675 35.0055L127.368 34.8656L133.068 35.3837L133.724 35.4435L134.041 36.0181L137.876 42.9623L138.165 43.4868L137.929 44.0419L135.857 48.9135L135.44 49.4361L129.159 53.9362L131.785 65.8912L139.544 66.261L140.261 66.537L144.51 69.9565L145.001 70.3522L144.976 70.969L144.665 78.4319L144.64 79.0323L144.152 79.3852L139.28 82.9089L138.583 83.1465L131.181 83.3293L128.748 95.6769L135.118 99.2766L135.636 99.8424L137.915 104.818L138.164 105.36L137.896 105.888L134.579 112.417L134.303 112.961L133.708 113.076L127.8 114.216L127.001 114.099L119.631 110.275L111.281 118.98L113.175 121.348L114.794 123.371L112.206 123.36L39.7054 123.101L37.2847 123.09L38.7035 121.133L38.7036 121.137Z" fill="#663366" stroke="#663366" stroke-width="0.261615" stroke-miterlimit="2.61313"/>
<path d="M42.8002 119.699L42.1259 120.63L109.62 120.871L108.668 119.681L107.991 118.835L108.746 118.049L118.488 107.891L119.127 107.225L119.946 107.65L127.754 111.702L132.647 110.757L135.42 105.299L133.557 101.235L126.754 97.3911L125.972 96.948L126.145 96.0738L128.943 81.8745L129.136 80.8967L130.129 80.8718L138.142 80.6737L142.211 77.7313L142.471 71.4868L139.032 68.718L130.722 68.3222L129.775 68.277L129.57 67.344L126.564 53.6622L126.39 52.8697L127.053 52.3941L133.719 47.6189L135.417 43.6255L132.189 37.7805L127.511 37.3555L119.856 41.4311L119.045 41.8633L118.399 41.2182L108.656 31.4747L107.967 30.7857L108.477 29.9547L112.721 23.0455L112.379 18.4246L107.161 14.7718L102.443 16.4019L97.9091 23.0048L97.4271 23.7067L96.6068 23.5133L83.4437 20.4038L82.5343 20.1886L82.4858 19.2608L82.0906 11.8574L79.0393 7.673L72.3693 7.49743L69.304 11.1587L69.107 19.3306L69.0833 20.2905L68.1429 20.5076L54.6692 23.6161L53.8302 23.8097L53.3571 23.0891L49.2273 16.7964L44.58 15.075L38.9032 18.5684L38.5586 23.732L42.7699 29.9017L43.3558 30.7611L42.6098 31.4854L32.3489 41.4353L31.6832 42.0808L30.8769 41.6235L24.2793 37.8814L19.2457 38.3152L15.8992 43.5499L18.1672 48.4355L24.1243 52.7051L24.7765 53.1725L24.6181 53.9542L21.8195 67.7391L21.62 68.7234L20.6187 68.737L12.9601 68.8353L8.81836 72.1145L9.1674 78.6617L12.9127 81.3856L21.0039 81.2862L21.9779 81.2737L22.2197 82.2244L25.6398 95.6991L25.8652 96.5877L25.0734 97.059L17.4548 101.601L15.7645 105.546L18.8076 111.048L23.7855 111.974L30.9163 108.144L31.7066 107.72L32.3541 108.333L42.6498 118.072L43.4381 118.818L42.8003 119.698L42.8002 119.699Z" fill="white" stroke="#663366" stroke-width="0.261615" stroke-miterlimit="2.61313"/>
<path fill-rule="evenodd" clip-rule="evenodd" d="M38.3925 66.9035L53.7924 56.3668L54.0632 65.5525L68.9229 55.6912V65.0122L84.3235 56.6368L84.4583 64.7421L99.5888 56.3668L99.8589 64.7421L114.179 56.6368L115.53 80.413L112.423 80.5476L39.0679 80.6831L35.1504 80.9531L35.555 66.7687L38.3925 66.9035Z" fill="#663366" stroke="#663366" stroke-width="0.493514" stroke-miterlimit="2.61313"/>
<path d="M75.771 32.9975H75.7722C86.9669 32.9975 97.132 37.6205 104.499 45.0776C111.858 52.5276 116.422 62.8064 116.422 74.1268V74.1292V74.1303C116.422 85.4521 111.858 95.7323 104.498 103.182C97.132 110.638 86.9676 115.261 75.7735 115.262H75.7712H75.77C64.5746 115.262 54.4096 110.639 47.0432 103.182C39.6832 95.7316 35.1198 85.4526 35.1191 74.1324V74.1301C35.1197 62.8083 39.6832 52.5276 47.0439 45.0777C54.4102 37.6217 64.5746 32.9989 75.7686 32.9982H75.771V32.9975ZM75.7722 35.476H75.771H75.7686C65.2579 35.4766 55.7174 39.8142 48.8061 46.81C41.8879 53.8126 37.5984 63.4788 37.5984 74.1289V74.1317C37.599 84.7797 41.8879 94.4453 48.8055 101.448C55.7174 108.444 65.2587 112.782 75.7701 112.782H75.7712H75.7736C86.2835 112.782 95.8244 108.444 102.735 101.448C109.654 94.4459 113.943 84.7797 113.943 74.1296V74.1285V74.1261C113.943 63.4781 109.654 53.8119 102.737 46.8099C95.8243 39.8135 86.2835 35.476 75.7722 35.4753" fill="#663366"/>
<path fill-rule="evenodd" clip-rule="evenodd" d="M39.8789 68.3873H43.9321V71.3594H39.8789V68.3873Z" fill="white"/>
<path fill-rule="evenodd" clip-rule="evenodd" d="M46.498 68.3873H50.5505V71.3594H46.498V68.3873Z" fill="white"/>
<path fill-rule="evenodd" clip-rule="evenodd" d="M55.4141 68.3873H59.4664V71.3594H55.4141V68.3873Z" fill="white"/>
<path fill-rule="evenodd" clip-rule="evenodd" d="M62.3027 68.3873H66.3557V71.3594H62.3027V68.3873Z" fill="white"/>
<path fill-rule="evenodd" clip-rule="evenodd" d="M69.8691 68.3873H73.9221V71.3594H69.8691V68.3873Z" fill="white"/>
<path fill-rule="evenodd" clip-rule="evenodd" d="M77.0293 68.3873H81.0823V71.3594H77.0293V68.3873Z" fill="white"/>
<path fill-rule="evenodd" clip-rule="evenodd" d="M84.459 68.3873H88.512V71.3594H84.459V68.3873Z" fill="white"/>
<path fill-rule="evenodd" clip-rule="evenodd" d="M92.0234 68.3873H96.0763V71.3594H92.0234V68.3873Z" fill="white"/>
<path fill-rule="evenodd" clip-rule="evenodd" d="M99.4531 68.3873H103.506V71.3594H99.4531V68.3873Z" fill="white"/>
<path fill-rule="evenodd" clip-rule="evenodd" d="M106.885 68.3873H110.937V71.3594H106.885V68.3873Z" fill="white"/>
<path d="M89.4231 36.9102C89.4231 36.9102 74.9953 50.0705 99.4702 42.4748" stroke="#663366" stroke-width="4.84829" stroke-miterlimit="2.61313"/>
<path d="M86.5449 45.4346V65.0898" stroke="#663366" stroke-width="7.18555" stroke-miterlimit="2.61313"/>
<path fill-rule="evenodd" clip-rule="evenodd" d="M39.4678 50.4093L38.6622 51.9241L36.775 51.6929L35.31 54.4493L36.5741 55.851L35.7891 57.3281L30.3223 50.976L31.1046 49.5039L39.4678 50.4093ZM35.3767 51.522L32.3133 51.1119L34.3766 53.4033L35.3767 51.522ZM40.0313 49.8265L33.9622 44.9119L34.9277 43.7197L40.9925 44.5169L36.9395 41.2352L37.8616 40.0967L43.9309 45.0111L42.934 46.2417L36.995 45.4827L40.9536 48.6873L40.0313 49.8265ZM45.0747 43.7172L40.0552 37.7347L41.2301 36.7484L47.0311 38.6879L43.6789 34.6932L44.8012 33.7516L49.8213 39.7334L48.6081 40.7515L42.9238 38.8732L46.197 42.7747L45.0747 43.7172ZM57.3321 35.3106L55.8314 36.1427L54.3742 34.9212L51.6444 36.4342L51.9416 38.2988L50.4787 39.1097L49.3529 30.8047L50.8109 29.9966L57.3321 35.3106ZM53.2947 34.0158L50.9489 32.0035L51.4314 35.0494L53.2947 34.0158ZM58.8147 26.3451L60.3373 25.9377L61.4317 30.0224C61.6053 30.6701 61.7374 31.0864 61.8256 31.2685C61.9739 31.5598 62.1966 31.7659 62.49 31.8863C62.7868 32.0088 63.1469 32.012 63.5716 31.8977C64.0044 31.7819 64.3066 31.6069 64.4796 31.3706C64.6512 31.1362 64.7252 30.8828 64.6999 30.6148C64.6765 30.3441 64.584 29.912 64.4234 29.3148L63.3054 25.1421L64.8273 24.734L65.8895 28.6959C66.1324 29.6025 66.2633 30.2527 66.2807 30.6484C66.299 31.0448 66.2322 31.399 66.0801 31.717C65.9279 32.0325 65.685 32.3181 65.3572 32.5695C65.0275 32.8212 64.5632 33.0267 63.966 33.1866C63.2458 33.3797 62.6785 33.4436 62.2608 33.3764C61.8436 33.3097 61.4927 33.1717 61.2057 32.9652C60.9187 32.7573 60.7012 32.5162 60.5548 32.243C60.3391 31.8381 60.1191 31.2132 59.8929 30.3685L58.8147 26.3451ZM68.5463 31.8532L68.0016 24.0628L69.5319 23.9558L73.0843 28.9351L72.721 23.7331L74.1828 23.6307L74.7275 31.4214L73.1478 31.5315L69.6526 26.6702L70.0081 31.7504L68.5463 31.8532ZM76.3628 31.486L76.4989 23.678L78.0752 23.7052L77.9386 31.5132L76.3628 31.486ZM81.3918 31.957L79.9988 23.7815L81.684 24.0788L82.6244 30.1138L85.5117 24.7537L87.1593 25.0445L83.0492 32.2489L81.3918 31.957ZM86.5666 32.9316L89.1093 25.5477L94.5827 27.4324L94.1525 28.6824L90.169 27.3106L89.6054 28.9472L93.312 30.2239L92.8845 31.4666L89.1774 30.1901L88.4856 32.2005L92.6098 33.62L92.1812 34.865L86.5666 32.9316ZM93.463 35.3512L97.2485 28.5204L100.153 30.1305C100.882 30.5347 101.378 30.8909 101.64 31.1966C101.903 31.5023 102.048 31.8676 102.073 32.2912C102.098 32.7159 101.998 33.1279 101.774 33.5321C101.49 34.0443 101.104 34.385 100.618 34.5527C100.133 34.7179 99.5645 34.679 98.9174 34.433C99.1194 34.7736 99.26 35.1013 99.3383 35.4168C99.4166 35.7328 99.4731 36.2464 99.5074 36.9602L99.604 38.7553L97.9551 37.8416L97.7822 35.8013C97.7226 35.0741 97.6656 34.6059 97.6117 34.3953C97.558 34.1848 97.4719 34.0146 97.3547 33.8805C97.2361 33.7489 97.0197 33.5956 96.7018 33.4194L96.4234 33.2652L94.843 36.1162L93.463 35.3512ZM97.0282 32.174L98.0469 32.7386C98.7095 33.106 99.137 33.3079 99.334 33.3443C99.5282 33.3792 99.7107 33.3534 99.8812 33.2691C100.048 33.183 100.191 33.0392 100.305 32.8338C100.432 32.6033 100.472 32.3851 100.428 32.1751C100.384 31.9661 100.261 31.7808 100.057 31.6181C99.9536 31.5425 99.6228 31.3481 99.0632 31.038L97.9887 30.4421L97.0282 32.174ZM101.595 37.0897L102.868 37.9607C102.606 38.4146 102.507 38.8248 102.568 39.1926C102.63 39.5573 102.843 39.8952 103.211 40.2036C103.599 40.5299 103.962 40.6944 104.297 40.6933C104.633 40.6944 104.893 40.5856 105.079 40.3654C105.197 40.2235 105.256 40.0689 105.255 39.8998C105.255 39.73 105.185 39.5223 105.038 39.276C104.939 39.1076 104.689 38.7503 104.291 38.2029C103.778 37.4989 103.49 36.9206 103.426 36.4678C103.334 35.8306 103.487 35.2756 103.884 34.8015C104.14 34.4969 104.465 34.2854 104.861 34.164C105.255 34.0443 105.674 34.0514 106.116 34.1846C106.557 34.3208 107.007 34.5792 107.467 34.9651C108.218 35.5966 108.645 36.2331 108.75 36.8816C108.851 37.5291 108.683 38.1355 108.24 38.7021L106.988 37.7416C107.195 37.3906 107.269 37.0758 107.211 36.7993C107.155 36.5215 106.956 36.2404 106.616 35.9553C106.266 35.6608 105.93 35.5007 105.611 35.4801C105.406 35.4641 105.237 35.5345 105.108 35.6885C104.988 35.8303 104.947 36.0026 104.982 36.2028C105.027 36.4586 105.284 36.9028 105.757 37.5343C106.228 38.1665 106.542 38.6749 106.7 39.059C106.855 39.4437 106.906 39.8303 106.85 40.2229C106.793 40.6133 106.606 40.9974 106.289 41.375C106.001 41.7175 105.637 41.9597 105.196 42.0984C104.753 42.2371 104.298 42.2344 103.829 42.087C103.358 41.9413 102.862 41.6493 102.342 41.2133C101.586 40.5793 101.151 39.9174 101.04 39.2276C100.928 38.5378 101.113 37.8248 101.595 37.0904V37.0897ZM105.719 44.1095L111.241 38.5876L112.356 39.7024L106.834 45.2242L105.719 44.1095ZM108.881 47.7183L113.85 43.5481L112.361 41.7742L113.374 40.9245L117.363 45.6775L116.35 46.5272L114.865 44.7572L109.895 48.9274L108.881 47.7183ZM112.84 53.5109L115.742 51.9682L118.393 47.3194L119.26 48.9521L117.396 52.0258L120.968 52.1652L121.822 53.7686L116.471 53.3613L113.578 54.9001L112.84 53.5109Z" fill="#663366"/>
<path d="M61.9047 87.038C62.4926 86.5257 62.9097 86.1843 63.4985 85.6721C69.0604 85.209 75.2844 80.8154 75.8492 85.5581C78.1826 80.3407 82.8503 85.9946 88.4848 85.7861C88.9018 86.1462 89.3196 86.3929 89.7368 86.7538C91.8046 92.8054 93.8733 98.9716 95.9413 105.024C85.5464 105.361 78.0298 98.4049 77.4431 106.447C76.4371 106.465 75.4321 106.485 74.4262 106.504C73.9347 99.0346 63.5464 105.905 55.8711 105.024C57.8827 99.0288 59.8936 93.0334 61.9047 87.038Z" stroke="#663366" stroke-width="0.727247" stroke-miterlimit="2.61313"/>
<path d="M61.9047 87.038C62.4926 86.5257 62.9097 86.1843 63.4985 85.6721C69.0604 85.209 75.2844 80.8154 75.8492 85.5581C78.1826 80.3407 82.8503 85.9946 88.4848 85.7861C88.9018 86.1462 89.3196 86.3929 89.7368 86.7538C91.8046 92.8054 93.8733 98.9716 95.9413 105.024C85.5464 105.361 78.0298 98.4049 77.4431 106.447C76.4371 106.465 75.4321 106.485 74.4262 106.504C73.9347 99.0346 63.5464 105.905 55.8711 105.024C57.8827 99.0288 59.8936 93.0334 61.9047 87.038Z" stroke="#663366" stroke-width="0.727247" stroke-miterlimit="2.61313"/>
<path d="M63.5321 85.5971C69.0941 85.1781 75.3183 81.035 75.883 85.3233C78.2631 80.9703 81.8491 85.1755 88.4048 85.7565L93.9831 103.094C83.4178 101.92 79.6569 96.5971 75.997 104.324C70.9749 96.0777 68.6007 102.192 57.8398 103.208L63.5321 85.5971Z" stroke="#663366" stroke-width="0.725648" stroke-miterlimit="2.61313"/>
<path d="M75.9062 85.3879V104" stroke="#663366" stroke-width="0.727247" stroke-miterlimit="2.61313"/>
<path d="M64.5801 88.4062C64.5801 88.4062 70.0443 86.4711 71.8086 87.3246C73.5734 88.1789 74.0287 87.78 74.0287 87.78" stroke="#663366" stroke-width="0.727247" stroke-miterlimit="2.61313" stroke-dasharray="1.46 0.73"/>
<path d="M64.5938 89.6875C64.5938 89.6875 69.9594 87.7523 71.692 88.6065C73.4244 89.4601 73.8713 89.0619 73.8713 89.0619" stroke="#663366" stroke-width="0.726543" stroke-miterlimit="2.61313" stroke-dasharray="1.45 0.73"/>
<path d="M64.5625 91.2539C64.5625 91.2539 69.7961 89.3187 71.4865 90.1729C73.1763 91.0266 73.6128 90.6282 73.6128 90.6282" stroke="#663366" stroke-width="0.806531" stroke-miterlimit="2.61313" stroke-dasharray="1.61 0.81"/>
<path d="M64.5605 92.75C64.5605 92.75 69.6295 90.8148 71.2669 91.6684C72.9034 92.5226 73.3257 92.1236 73.3257 92.1236" stroke="#663366" stroke-width="0.811134" stroke-miterlimit="2.61313" stroke-dasharray="1.62 0.81"/>
<path d="M63.8398 94.2656C63.8398 94.2656 69.3041 92.3304 71.0681 93.184C72.8324 94.0383 73.2877 93.6393 73.2877 93.6393" stroke="#663366" stroke-width="0.727247" stroke-miterlimit="2.61313" stroke-dasharray="1.46 0.73"/>
<path d="M63.6113 95.6328C63.6113 95.6328 69.0755 93.6977 70.8398 94.5514C72.6045 95.4055 73.0599 95.0073 73.0599 95.0073" stroke="#663366" stroke-width="0.727247" stroke-miterlimit="2.61313" stroke-dasharray="1.46 0.73"/>
<path d="M63.2129 97.1133C63.2129 97.1133 68.6771 95.1781 70.4412 96.0317C72.2062 96.886 72.6613 96.487 72.6613 96.487" stroke="#663366" stroke-width="0.727247" stroke-miterlimit="2.61313" stroke-dasharray="1.46 0.73"/>
<path d="M62.8145 98.3086C62.8145 98.3086 68.2786 96.3735 70.0429 97.2272C71.8071 98.0808 72.2623 97.6823 72.2623 97.6823" stroke="#663366" stroke-width="0.727247" stroke-miterlimit="2.61313" stroke-dasharray="1.46 0.73"/>
<path d="M87.5163 88.4062C87.5163 88.4062 82.052 86.4711 80.288 87.3246C78.5237 88.1789 78.0684 87.78 78.0684 87.78" stroke="#663366" stroke-width="0.727247" stroke-miterlimit="2.61313" stroke-dasharray="1.46 0.73"/>
<path d="M87.5315 89.6875C87.5315 89.6875 82.1663 87.7523 80.4337 88.6065C78.7013 89.4601 78.2539 89.0619 78.2539 89.0619" stroke="#663366" stroke-width="0.726543" stroke-miterlimit="2.61313" stroke-dasharray="1.45 0.73"/>
<path d="M87.4988 91.2539C87.4988 91.2539 82.2652 89.3187 80.5756 90.1729C78.8852 91.0266 78.4492 90.6282 78.4492 90.6282" stroke="#663366" stroke-width="0.806531" stroke-miterlimit="2.61313" stroke-dasharray="1.61 0.81"/>
<path d="M87.4977 92.75C87.4977 92.75 82.4286 90.8148 80.792 91.6684C79.1547 92.5226 78.7324 92.1236 78.7324 92.1236" stroke="#663366" stroke-width="0.811134" stroke-miterlimit="2.61313" stroke-dasharray="1.62 0.81"/>
<path d="M88.2565 94.2656C88.2565 94.2656 82.793 92.3304 81.0282 93.184C79.2639 94.0383 78.8086 93.6393 78.8086 93.6393" stroke="#663366" stroke-width="0.727247" stroke-miterlimit="2.61313" stroke-dasharray="1.46 0.73"/>
<path d="M88.485 95.6328C88.485 95.6328 83.0208 93.6977 81.2565 94.5514C79.4924 95.4055 79.0371 95.0073 79.0371 95.0073" stroke="#663366" stroke-width="0.727247" stroke-miterlimit="2.61313" stroke-dasharray="1.46 0.73"/>
<path d="M88.8836 97.1133C88.8836 97.1133 83.4194 95.1781 81.6551 96.0317C79.8908 96.886 79.4355 96.487 79.4355 96.487" stroke="#663366" stroke-width="0.727247" stroke-miterlimit="2.61313" stroke-dasharray="1.46 0.73"/>
<path d="M89.2819 98.3086C89.2819 98.3086 83.8184 96.3735 82.0534 97.2272C80.2894 98.0808 79.834 97.6823 79.834 97.6823" stroke="#663366" stroke-width="0.727247" stroke-miterlimit="2.61313" stroke-dasharray="1.46 0.73"/>
<path d="M6.23987 121.115H142.741H143.981V122.355V142.761V144H142.741H6.23987H5V142.761V122.355V121.115H6.23987Z" fill="#663366" stroke="#663366" stroke-width="0.261615" stroke-miterlimit="2.61313"/>
<path d="M141.5 123.592H7.47852V141.52H141.5V123.592Z" fill="white" stroke="#663366" stroke-width="0.261615" stroke-miterlimit="2.61313"/>
<path fill-rule="evenodd" clip-rule="evenodd" d="M10.873 137.678V128.719H12.5435C13.1658 128.719 13.5725 128.763 13.7635 128.848C14.0692 128.986 14.3206 129.282 14.5193 129.733C14.7181 130.185 14.818 130.767 14.818 131.48C14.818 132.129 14.7311 132.671 14.5602 133.109C14.3891 133.548 14.1741 133.854 13.9171 134.032C13.6612 134.209 13.2188 134.298 12.59 134.298H11.9092V137.678H10.873ZM11.9092 130.235V132.776H12.4838C12.869 132.776 13.1309 132.738 13.27 132.661C13.4073 132.584 13.5213 132.444 13.6088 132.242C13.6982 132.039 13.7421 131.793 13.7421 131.499C13.7421 131.203 13.6968 130.951 13.6061 130.749C13.5136 130.544 13.4014 130.409 13.2668 130.337C13.132 130.269 12.8489 130.235 12.4144 130.235H11.9092ZM15.6729 137.678V128.719H17.8606C18.4201 128.719 18.8204 128.8 19.0608 128.961C19.3002 129.121 19.4972 129.401 19.6507 129.797C19.8054 130.195 19.882 130.671 19.882 131.224C19.882 131.925 19.7647 132.49 19.5296 132.918C19.2925 133.345 18.9578 133.614 18.5257 133.723C18.7478 133.953 18.9317 134.201 19.0763 134.472C19.2226 134.743 19.4214 135.229 19.6727 135.93L20.2971 137.678H19.0608L18.3061 135.728C18.0361 135.025 17.8515 134.582 17.7537 134.405C17.6573 134.228 17.5535 134.107 17.4455 134.038C17.3374 133.971 17.163 133.938 16.9234 133.938H16.7084V137.678H15.6729ZM16.7084 132.507H17.4804C17.9513 132.507 18.2504 132.478 18.3795 132.419C18.5083 132.361 18.6119 132.242 18.6923 132.063C18.7711 131.883 18.812 131.643 18.812 131.347C18.812 131.061 18.7711 130.832 18.6923 130.659C18.6119 130.486 18.5038 130.367 18.3665 130.302C18.2698 130.256 17.9876 130.235 17.5231 130.235H16.7084V132.507ZM20.6533 133.254C20.6533 132.186 20.7627 131.307 20.9855 130.617C21.2058 129.927 21.4952 129.411 21.8521 129.073C22.2083 128.736 22.6411 128.567 23.1501 128.567C23.8865 128.567 24.4856 128.967 24.9505 129.77C25.4137 130.573 25.646 131.716 25.646 133.199C25.646 134.697 25.4006 135.869 24.9096 136.712C24.4783 137.459 23.8936 137.83 23.154 137.83C22.4085 137.83 21.821 137.461 21.3904 136.724C20.8987 135.882 20.6533 134.724 20.6533 133.254ZM21.7233 133.193C21.7233 134.223 21.8606 134.995 22.1338 135.511C22.4085 136.026 22.7478 136.284 23.154 136.284C23.5618 136.284 23.8993 136.028 24.1687 135.517C24.4376 135.006 24.5703 134.221 24.5703 133.162C24.5703 132.123 24.4401 131.355 24.1785 130.857C23.9187 130.361 23.5769 130.112 23.154 130.112C22.7315 130.112 22.387 130.363 22.1222 130.863C21.8567 131.366 21.7233 132.142 21.7233 133.193ZM28.8527 134.384V132.874H31.0916V136.443C30.8667 136.822 30.5462 137.148 30.1331 137.421C29.7191 137.695 29.3046 137.83 28.8863 137.83C28.3791 137.83 27.9303 137.653 27.5431 137.296C27.1544 136.94 26.8462 136.405 26.6196 135.694C26.3929 134.983 26.2789 134.148 26.2789 133.187C26.2789 132.2 26.394 131.357 26.6241 130.657C26.8533 129.956 27.1512 129.432 27.5184 129.086C27.8851 128.74 28.3254 128.567 28.8351 128.567C29.449 128.567 29.9414 128.789 30.3111 129.236C30.681 129.682 30.9179 130.335 31.0228 131.201L29.9958 131.537C29.9192 131.076 29.7781 130.723 29.5715 130.479C29.3675 130.235 29.1214 130.112 28.8351 130.112C28.3942 130.112 28.0341 130.358 27.7606 130.848C27.486 131.339 27.35 132.087 27.35 133.095C27.35 134.173 27.4978 134.995 27.7944 135.556C28.0489 136.043 28.3942 136.284 28.8267 136.284C29.0293 136.284 29.24 136.215 29.4595 136.08C29.677 135.942 29.8712 135.757 30.0437 135.521V134.384H28.8527ZM32.0553 137.678V128.719H34.243C34.8025 128.719 35.2028 128.8 35.4432 128.961C35.6828 129.121 35.8795 129.401 36.0331 129.797C36.188 130.195 36.2643 130.671 36.2643 131.224C36.2643 131.925 36.1471 132.49 35.912 132.918C35.6751 133.345 35.3401 133.614 34.9083 133.723C35.1297 133.953 35.3143 134.201 35.4587 134.472C35.6052 134.743 35.8039 135.229 36.0553 135.93L36.6795 137.678H35.4432L34.6887 135.728C34.4187 135.025 34.2341 134.582 34.1363 134.405C34.0396 134.228 33.9361 134.107 33.8278 134.038C33.7198 133.971 33.5454 133.938 33.306 133.938H33.091V137.678H32.0553ZM33.091 132.507H33.8628C34.3337 132.507 34.633 132.478 34.7619 132.419C34.89 132.361 34.9944 132.242 35.0746 132.063C35.1537 131.883 35.1944 131.643 35.1944 131.347C35.1944 131.061 35.1537 130.832 35.0746 130.659C34.9944 130.486 34.8861 130.367 34.7481 130.302C34.6524 130.256 34.37 130.235 33.905 130.235H33.091V132.507ZM37.245 137.678V128.719H41.0656V130.235H38.2811V132.221H40.8679V133.729H38.2811V136.168H41.1588V137.678H37.245ZM41.7759 134.763L42.7901 134.59C42.9041 135.736 43.2779 136.309 43.9126 136.309C44.2254 136.309 44.4722 136.193 44.6522 135.957C44.8334 135.723 44.9223 135.433 44.9223 135.087C44.9223 134.883 44.8919 134.71 44.8291 134.568C44.7662 134.424 44.6696 134.307 44.5407 134.215C44.4125 134.124 44.1023 133.971 43.6081 133.754C43.1657 133.562 42.8413 133.355 42.6366 133.131C42.43 132.907 42.2669 132.613 42.1458 132.248C42.024 131.883 41.9644 131.491 41.9644 131.072C41.9644 130.583 42.0414 130.144 42.1963 129.751C42.353 129.361 42.568 129.065 42.8413 128.865C43.1159 128.666 43.4534 128.567 43.8569 128.567C44.4617 128.567 44.9339 128.8 45.2732 129.269C45.6139 129.737 45.7932 130.409 45.8122 131.28L44.7733 131.359C44.7267 130.877 44.6289 130.542 44.4768 130.35C44.3257 130.16 44.1094 130.064 43.8304 130.064C43.5512 130.064 43.3348 130.148 43.1845 130.315C43.0323 130.481 42.9567 130.688 42.9567 130.938C42.9567 131.182 43.0252 131.386 43.1626 131.554C43.2999 131.723 43.6158 131.904 44.1082 132.104C44.6314 132.321 45.0084 132.549 45.2408 132.786C45.4734 133.024 45.6516 133.333 45.7745 133.708C45.897 134.086 45.9584 134.543 45.9584 135.081C45.9584 135.859 45.7907 136.511 45.456 137.041C45.1197 137.571 44.5944 137.836 43.8816 137.836C42.6204 137.836 41.9171 136.812 41.7759 134.763ZM46.5712 134.763L47.5854 134.59C47.6994 135.736 48.0737 136.309 48.7077 136.309C49.0205 136.309 49.2673 136.193 49.4473 135.957C49.6287 135.723 49.7176 135.433 49.7176 135.087C49.7176 134.883 49.687 134.71 49.6241 134.568C49.5613 134.424 49.4649 134.307 49.336 134.215C49.2078 134.124 48.8976 133.971 48.4041 133.754C47.961 133.562 47.6366 133.355 47.4319 133.131C47.226 132.907 47.062 132.613 46.9409 132.248C46.8191 131.883 46.7597 131.491 46.7597 131.072C46.7597 130.583 46.8374 130.144 46.9921 129.751C47.1481 129.361 47.3633 129.065 47.6366 128.865C47.9112 128.666 48.2487 128.567 48.6522 128.567C49.257 128.567 49.7293 128.8 50.0685 129.269C50.4092 129.737 50.5885 130.409 50.608 131.28L49.5686 131.359C49.5218 130.877 49.424 130.542 49.2718 130.35C49.1217 130.16 48.9047 130.064 48.6255 130.064C48.3465 130.064 48.1301 130.148 47.9798 130.315C47.8276 130.481 47.7517 130.688 47.7517 130.938C47.7517 131.182 47.8205 131.386 47.9579 131.554C48.0952 131.723 48.4112 131.904 48.9033 132.104C49.4267 132.321 49.8037 132.549 50.0361 132.786C50.2687 133.024 50.4467 133.333 50.5698 133.708C50.6923 134.086 50.7537 134.543 50.7537 135.081C50.7537 135.859 50.586 136.511 50.2511 137.041C49.915 137.571 49.3904 137.836 48.6773 137.836C47.4157 137.836 46.7131 136.812 46.5712 134.763ZM54.7859 137.678V130.235H53.2576V128.719H57.3469V130.235H55.8223V137.678H54.7859ZM58.0237 137.678V128.719H59.0598V132.244H61.0988V128.719H62.1388V137.678H61.0988V133.76H59.0598V137.678H58.0237ZM63.2134 137.678V128.719H65.401C65.9613 128.719 66.3616 128.8 66.6012 128.961C66.8409 129.121 67.0383 129.401 67.1919 129.797C67.3468 130.195 67.4224 130.671 67.4224 131.224C67.4224 131.925 67.3059 132.49 67.0701 132.918C66.8338 133.345 66.4989 133.614 66.0661 133.723C66.2885 133.953 66.4724 134.201 66.6175 134.472C66.7637 134.743 66.962 135.229 67.2138 135.93L67.8375 137.678H66.6012L65.8473 135.728C65.5767 135.025 65.3926 134.582 65.2943 134.405C65.1984 134.228 65.0942 134.107 64.9859 134.038C64.8778 133.971 64.7042 133.938 64.4645 133.938H64.2495V137.678H63.2134ZM64.2495 132.507H65.0215C65.4917 132.507 65.7918 132.478 65.9199 132.419C66.0488 132.361 66.1525 132.242 66.2327 132.063C66.3117 131.883 66.3524 131.643 66.3524 131.347C66.3524 131.061 66.3117 130.832 66.2327 130.659C66.1525 130.486 66.0442 130.367 65.9069 130.302C65.8105 130.256 65.5288 130.235 65.0636 130.235H64.2495V132.507ZM68.1944 133.254C68.1944 132.186 68.3039 131.307 68.5259 130.617C68.7469 129.927 69.0364 129.411 69.3926 129.073C69.7494 128.736 70.1822 128.567 70.6905 128.567C71.4276 128.567 72.0267 128.967 72.4909 129.77C72.9548 130.573 73.1871 131.716 73.1871 133.199C73.1871 134.697 72.941 135.869 72.4503 136.712C72.0189 137.459 71.4347 137.83 70.6951 137.83C69.9496 137.83 69.3622 137.461 68.9308 136.724C68.4398 135.882 68.1944 134.724 68.1944 133.254ZM69.2644 133.193C69.2644 134.223 69.4017 134.995 69.675 135.511C69.9496 136.026 70.2889 136.284 70.6951 136.284C71.1032 136.284 71.4404 136.028 71.7093 135.517C71.978 135.006 72.1108 134.221 72.1108 133.162C72.1108 132.123 71.9812 131.355 71.7196 130.857C71.4594 130.361 71.1173 130.112 70.6951 130.112C70.2729 130.112 69.9277 130.363 69.6633 130.863C69.3971 131.366 69.2644 132.142 69.2644 133.193ZM73.9877 128.719H75.0239V133.57C75.0239 134.326 75.0353 134.816 75.0623 135.043C75.1075 135.44 75.2169 135.744 75.3892 135.961C75.5615 136.176 75.7902 136.284 76.0719 136.284C76.3116 136.284 76.5078 136.207 76.6593 136.055C76.8101 135.903 76.9138 135.69 76.9696 135.419C77.0246 135.149 77.0526 134.568 77.0526 133.675V128.719H78.0932V133.425C78.0932 134.626 78.0478 135.496 77.9585 136.03C77.8684 136.566 77.6665 137 77.3509 137.331C77.035 137.666 76.6184 137.83 76.1023 137.83C75.5667 137.83 75.147 137.692 74.8459 137.417C74.5448 137.143 74.327 136.756 74.1911 136.258C74.0551 135.759 73.9877 134.839 73.9877 133.498L73.9877 128.719ZM81.5835 134.384V132.874H83.8223V136.443C83.5977 136.822 83.2769 137.148 82.8639 137.421C82.4501 137.695 82.035 137.83 81.6171 137.83C81.1101 137.83 80.6611 137.653 80.2738 137.296C79.8852 136.94 79.577 136.405 79.3503 135.694C79.1237 134.983 79.0097 134.148 79.0097 133.187C79.0097 132.2 79.1248 131.357 79.3549 130.657C79.5841 129.956 79.882 129.432 80.2491 129.086C80.6159 128.74 81.0557 128.567 81.5659 128.567C82.1798 128.567 82.6722 128.789 83.0418 129.236C83.4118 129.682 83.6487 130.335 83.7538 131.201L82.7265 131.537C82.65 131.076 82.5084 130.723 82.3023 130.479C82.0976 130.235 81.8522 130.112 81.5659 130.112C81.1242 130.112 80.7649 130.358 80.4916 130.848C80.217 131.339 80.0808 132.087 80.0808 133.095C80.0808 134.173 80.2286 134.995 80.5252 135.556C80.7797 136.043 81.1242 136.284 81.557 136.284C81.7603 136.284 81.9708 136.215 82.1896 136.08C82.4078 135.942 82.6023 135.757 82.7745 135.521V134.384H81.5835ZM84.7854 137.678V128.719H85.8218V132.244H87.8605V128.719H88.9012V137.678H87.8605V133.76H85.8218V137.678H84.7854ZM91.9836 137.678V128.719H93.0204V132.697L95.1233 128.719H96.5235L94.5839 132.208L96.6258 137.678H95.2807L93.8636 133.473L93.0204 134.97V137.678H91.9836ZM97.1737 137.678V128.719H98.1854L100.291 134.701V128.719H101.258V137.678H100.214L98.1413 131.835V137.678H97.1737ZM102.146 133.254C102.146 132.186 102.255 131.307 102.477 130.617C102.698 129.927 102.988 129.411 103.344 129.073C103.701 128.736 104.133 128.567 104.642 128.567C105.379 128.567 105.978 128.967 106.442 129.77C106.906 130.573 107.139 131.716 107.139 133.199C107.139 134.697 106.893 135.869 106.402 136.712C105.971 137.459 105.386 137.83 104.647 137.83C103.901 137.83 103.314 137.461 102.882 136.724C102.391 135.882 102.146 134.724 102.146 133.254ZM103.216 133.193C103.216 134.223 103.353 134.995 103.626 135.511C103.901 136.026 104.24 136.284 104.647 136.284C105.054 136.284 105.392 136.028 105.661 135.517C105.93 135.006 106.063 134.221 106.063 133.162C106.063 132.123 105.933 131.355 105.671 130.857C105.411 130.361 105.069 130.112 104.647 130.112C104.224 130.112 103.879 130.363 103.615 130.863C103.349 131.366 103.216 132.142 103.216 133.193ZM108.674 137.678L107.447 128.719H108.512L109.282 134.872L110.225 128.719H111.463L112.366 134.977L113.159 128.719H114.203L112.953 137.678H111.848L110.82 130.98L109.801 137.678H108.674ZM114.765 137.678V128.792H115.801V136.168H118.387V137.678H114.765ZM119.132 137.678V128.719H122.952V130.235H120.168V132.221H122.755V133.729H120.168V136.168H123.046V137.678H119.132ZM123.919 128.719H125.815C126.295 128.719 126.657 128.796 126.901 128.948C127.145 129.1 127.37 129.359 127.575 129.722C127.781 130.083 127.942 130.554 128.06 131.132C128.177 131.712 128.235 132.429 128.235 133.289C128.235 134.065 128.174 134.737 128.051 135.31C127.928 135.882 127.772 136.335 127.584 136.67C127.395 137.004 127.169 137.254 126.901 137.423C126.634 137.592 126.292 137.678 125.871 137.678H123.919V128.719ZM124.954 130.235V136.168H125.735C126.068 136.168 126.31 136.123 126.459 136.034C126.61 135.944 126.733 135.809 126.828 135.627C126.925 135.446 127.003 135.16 127.066 134.768C127.129 134.378 127.16 133.862 127.16 133.222C127.16 132.559 127.128 132.036 127.064 131.651C126.999 131.27 126.9 130.967 126.764 130.749C126.628 130.527 126.464 130.383 126.27 130.315C126.123 130.26 125.843 130.235 125.426 130.235H124.954ZM131.511 134.384V132.874H133.75V136.443C133.525 136.822 133.205 137.148 132.791 137.421C132.378 137.695 131.963 137.83 131.544 137.83C131.037 137.83 130.589 137.653 130.202 137.296C129.812 136.94 129.504 136.405 129.277 135.694C129.051 134.983 128.937 134.148 128.937 133.187C128.937 132.2 129.053 131.357 129.282 130.657C129.512 129.956 129.81 129.432 130.176 129.086C130.544 128.74 130.983 128.567 131.493 128.567C132.107 128.567 132.6 128.789 132.97 129.236C133.34 129.682 133.576 130.335 133.682 131.201L132.654 131.537C132.578 131.076 132.436 130.723 132.23 130.479C132.025 130.235 131.78 130.112 131.493 130.112C131.052 130.112 130.693 130.358 130.419 130.848C130.145 131.339 130.009 132.087 130.009 133.095C130.009 134.173 130.156 134.995 130.453 135.556C130.707 136.043 131.052 136.284 131.485 136.284C131.687 136.284 131.898 136.215 132.117 136.08C132.335 135.942 132.529 135.757 132.702 135.521V134.384H131.511ZM134.713 137.678V128.719H138.534V130.235H135.75V132.221H138.336V133.729H135.75V136.168H138.627V137.678H134.713Z" fill="#663366"/>
</svg>
