<svg width="150" height="150" viewBox="0 0 150 150" fill="none" xmlns="http://www.w3.org/2000/svg">
<path d="M145 142.625H5" stroke="#663366" stroke-width="4" stroke-miterlimit="10"/>
<path d="M145 42.5469H111.846" stroke="#663366" stroke-width="4" stroke-miterlimit="10"/>
<path d="M38.1543 42.5469H5" stroke="#663366" stroke-width="4" stroke-miterlimit="10"/>
<path d="M128.32 42.5469V61.1406" stroke="#663366" stroke-width="4" stroke-miterlimit="10"/>
<path d="M21.6797 61.1406V42.5469" stroke="#663366" stroke-width="4" stroke-miterlimit="10"/>
<path d="M128.32 124.031V142.625" stroke="#663366" stroke-width="4" stroke-miterlimit="10"/>
<path d="M21.6797 142.625V124.031" stroke="#663366" stroke-width="4" stroke-miterlimit="10"/>
<path d="M39.4531 142.625V124.031" stroke="#663366" stroke-width="4" stroke-miterlimit="10"/>
<path d="M57.2266 142.625V124.031" stroke="#663366" stroke-width="4" stroke-miterlimit="10"/>
<path d="M75 142.625V124.031" stroke="#663366" stroke-width="4" stroke-miterlimit="10"/>
<path d="M92.7734 142.625V124.031" stroke="#663366" stroke-width="4" stroke-miterlimit="10"/>
<path d="M110.547 142.625V124.031" stroke="#663366" stroke-width="4" stroke-miterlimit="10"/>
<path d="M37.8508 61.1406H5" stroke="#663366" stroke-width="4" stroke-miterlimit="10"/>
<path d="M112.148 61.1406H144.999" stroke="#663366" stroke-width="4" stroke-miterlimit="10"/>
<path d="M5 124.031H145" stroke="#663366" stroke-width="4" stroke-miterlimit="10"/>
<path d="M14.8438 61.1406V124.031" stroke="#663366" stroke-width="4" stroke-miterlimit="10"/>
<path d="M135.156 124.031V61.1406" stroke="#663366" stroke-width="4" stroke-miterlimit="10"/>
<path d="M96.875 71.5312H53.125C50.1046 71.5312 47.6562 69.0829 47.6562 66.0625V22.3125C47.6562 19.2921 50.1046 16.8438 53.125 16.8438H96.875C99.8954 16.8438 102.344 19.2921 102.344 22.3125V66.0625C102.344 69.0829 99.8954 71.5312 96.875 71.5312Z" stroke="#663366" stroke-width="4" stroke-miterlimit="10"/>
<path d="M88.6719 29.1484V59.2266" stroke="#663366" stroke-width="4" stroke-miterlimit="10"/>
<path d="M77.7344 59.2266V39.5391C77.7344 35.0085 74.0618 31.3359 69.5312 31.3359C65.0007 31.3359 61.3281 35.0085 61.3281 39.5391V59.2266" stroke="#663366" stroke-width="4" stroke-miterlimit="10"/>
<path d="M61.3281 50.2031H77.7344" stroke="#663366" stroke-width="4" stroke-miterlimit="10"/>
<path d="M79.1016 16.8438H70.8984V11.1016C70.8984 8.83641 72.7348 7 75 7C77.2652 7 79.1016 8.83641 79.1016 11.1016V16.8438Z" stroke="#663366" stroke-width="4" stroke-miterlimit="10"/>
<path d="M95.5078 16.8438H87.3047V11.1016C87.3047 8.83641 89.1411 7 91.4062 7C93.6714 7 95.5078 8.83641 95.5078 11.1016V16.8438Z" stroke="#663366" stroke-width="4" stroke-miterlimit="10"/>
<path d="M62.6953 16.8438H54.4922V11.1016C54.4922 8.83641 56.3286 7 58.5938 7C60.8589 7 62.6953 8.83641 62.6953 11.1016V16.8438Z" stroke="#663366" stroke-width="4" stroke-miterlimit="10"/>
<path d="M79.1016 71.5312H70.8984V77.2734C70.8984 79.5386 72.7348 81.375 75 81.375C77.2652 81.375 79.1016 79.5386 79.1016 77.2734V71.5312Z" stroke="#663366" stroke-width="4" stroke-miterlimit="10"/>
<path d="M95.5078 71.5312H87.3047V77.2734C87.3047 79.5386 89.1411 81.375 91.4062 81.375C93.6714 81.375 95.5078 79.5386 95.5078 77.2734V71.5312Z" stroke="#663366" stroke-width="4" stroke-miterlimit="10"/>
<path d="M62.6953 71.5312H54.4922V77.2734C54.4922 79.5386 56.3286 81.375 58.5938 81.375C60.8589 81.375 62.6953 79.5386 62.6953 77.2734V71.5312Z" stroke="#663366" stroke-width="4" stroke-miterlimit="10"/>
<path d="M47.6562 40.0859V48.2891H41.9141C39.6489 48.2891 37.8125 46.4527 37.8125 44.1875C37.8125 41.9223 39.6489 40.0859 41.9141 40.0859H47.6562Z" stroke="#663366" stroke-width="4" stroke-miterlimit="10"/>
<path d="M47.6562 23.6797V31.8828H41.9141C39.6489 31.8828 37.8125 30.0464 37.8125 27.7812C37.8125 25.5161 39.6489 23.6797 41.9141 23.6797H47.6562Z" stroke="#663366" stroke-width="4" stroke-miterlimit="10"/>
<path d="M47.6562 56.4922V64.6953H41.9141C39.6489 64.6953 37.8125 62.8589 37.8125 60.5938C37.8125 58.3286 39.6489 56.4922 41.9141 56.4922H47.6562Z" stroke="#663366" stroke-width="4" stroke-miterlimit="10"/>
<path d="M102.344 40.0859V48.2891H108.086C110.351 48.2891 112.188 46.4527 112.188 44.1875C112.188 41.9223 110.351 40.0859 108.086 40.0859H102.344Z" stroke="#663366" stroke-width="4" stroke-miterlimit="10"/>
<path d="M102.344 23.6797V31.8828H108.086C110.351 31.8828 112.188 30.0464 112.188 27.7812C112.188 25.5161 110.351 23.6797 108.086 23.6797H102.344Z" stroke="#663366" stroke-width="4" stroke-miterlimit="10"/>
<path d="M102.344 56.4922V64.6953H108.086C110.351 64.6953 112.188 62.8589 112.188 60.5938C112.188 58.3286 110.351 56.4922 108.086 56.4922H102.344Z" stroke="#663366" stroke-width="4" stroke-miterlimit="10"/>
<path d="M75 115.828C78.0203 115.828 80.4688 113.38 80.4688 110.359C80.4688 107.339 78.0203 104.891 75 104.891C71.9797 104.891 69.5312 107.339 69.5312 110.359C69.5312 113.38 71.9797 115.828 75 115.828Z" stroke="#663366" stroke-width="4" stroke-miterlimit="10"/>
<path d="M42.1875 110.359C45.2078 110.359 47.6562 107.911 47.6562 104.891C47.6562 101.87 45.2078 99.4219 42.1875 99.4219C39.1672 99.4219 36.7188 101.87 36.7188 104.891C36.7188 107.911 39.1672 110.359 42.1875 110.359Z" stroke="#663366" stroke-width="4" stroke-miterlimit="10"/>
<path d="M75 104.891V95.5938" stroke="#663366" stroke-width="4" stroke-miterlimit="10"/>
<path d="M75 91.4922V87.3906" stroke="#663366" stroke-width="4" stroke-miterlimit="10"/>
<path d="M58.5938 95.5938V99.4219C58.5938 102.442 56.1454 104.891 53.125 104.891H47.6562" stroke="#663366" stroke-width="4" stroke-miterlimit="10"/>
<path d="M58.5938 91.4922V87.3906" stroke="#663366" stroke-width="4" stroke-miterlimit="10"/>
<path d="M107.812 110.359C110.833 110.359 113.281 107.911 113.281 104.891C113.281 101.87 110.833 99.4219 107.812 99.4219C104.792 99.4219 102.344 101.87 102.344 104.891C102.344 107.911 104.792 110.359 107.812 110.359Z" stroke="#663366" stroke-width="4" stroke-miterlimit="10"/>
<path d="M91.4062 95.5938V99.4219C91.4062 102.442 93.8546 104.891 96.875 104.891H102.344" stroke="#663366" stroke-width="4" stroke-miterlimit="10"/>
<path d="M91.4062 91.4922V87.3906" stroke="#663366" stroke-width="4" stroke-miterlimit="10"/>
</svg>
