<svg width="150" height="150" viewBox="0 0 150 150" fill="none" xmlns="http://www.w3.org/2000/svg">
<path d="M38.5762 106.506V103.092C38.5762 101.52 39.8503 100.246 41.4218 100.246H108.576C110.148 100.246 111.422 101.52 111.422 103.092V106.506C111.422 108.078 110.148 109.352 108.576 109.352H41.4218C39.8503 109.352 38.5762 108.078 38.5762 106.506Z" stroke="#663366" stroke-width="4.22535" stroke-miterlimit="10" stroke-linecap="round" stroke-linejoin="round"/>
<path d="M41.4219 57.8724V53.6572C41.4219 52.9414 41.8684 52.3017 42.5402 52.0547L72.2909 41.1172C73.1413 40.8045 74.0399 40.6445 74.9461 40.6445C75.8492 40.6445 76.7453 40.8034 77.5932 41.1141L107.457 52.0552C108.129 52.3017 108.577 52.942 108.577 53.6583V57.8721C108.577 58.815 107.812 59.5795 106.869 59.5795H43.1292C42.1861 59.5797 41.4219 58.8152 41.4219 57.8724Z" stroke="#663366" stroke-width="4.22535" stroke-miterlimit="10" stroke-linecap="round" stroke-linejoin="round"/>
<path d="M78.4754 72.211C78.4754 72.211 76.061 69.9695 73.065 71.0467C69.6903 72.26 69.9551 75.9783 71.8571 77.4701C72.9492 78.3267 74.5926 79.031 76.8075 79.8141C81.7647 81.5662 79.932 88.5572 74.8898 88.5907C72.9219 88.6039 72.0022 88.4788 70.2734 87.3481" stroke="#663366" stroke-width="4.22535" stroke-miterlimit="10" stroke-linecap="round" stroke-linejoin="round"/>
<path d="M74.8887 88.5898V91.1414" stroke="#663366" stroke-width="4.22535" stroke-miterlimit="10" stroke-linecap="round" stroke-linejoin="round"/>
<path d="M74.8887 68.6875V70.7545" stroke="#663366" stroke-width="4.22535" stroke-miterlimit="10" stroke-linecap="round" stroke-linejoin="round"/>
<path d="M102.886 59.582H93.5117V100.249H102.886V59.582Z" stroke="#663366" stroke-width="4.22535" stroke-miterlimit="10" stroke-linecap="round" stroke-linejoin="round"/>
<path d="M47.1133 79.9454V100.25H56.4879V59.582H47.1133V70.0581" stroke="#663366" stroke-width="4.22535" stroke-miterlimit="10" stroke-linecap="round" stroke-linejoin="round"/>
<path d="M56.4876 120.528H38.5777C33.5496 120.528 29.4707 116.449 29.4707 111.421V38.5758C29.4707 33.5476 33.5496 29.4688 38.5777 29.4688H84.9214" stroke="#663366" stroke-width="4.22535" stroke-miterlimit="10" stroke-linecap="round" stroke-linejoin="round"/>
<path d="M94.8088 29.4688H111.423C116.451 29.4688 120.53 33.5476 120.53 38.5758V111.421C120.53 116.449 116.451 120.528 111.423 120.528H66.375" stroke="#663366" stroke-width="4.22535" stroke-miterlimit="10" stroke-linecap="round" stroke-linejoin="round"/>
<path d="M74.9996 16.382C78.1426 16.382 80.6906 13.834 80.6906 10.691C80.6906 7.54794 78.1426 5 74.9996 5C71.8565 5 69.3086 7.54794 69.3086 10.691C69.3086 13.834 71.8565 16.382 74.9996 16.382Z" stroke="#663366" stroke-width="4.22535" stroke-miterlimit="10" stroke-linecap="round" stroke-linejoin="round"/>
<path d="M102.886 16.382C106.029 16.382 108.577 13.834 108.577 10.691C108.577 7.54794 106.029 5 102.886 5C99.7433 5 97.1953 7.54794 97.1953 10.691C97.1953 13.834 99.7433 16.382 102.886 16.382Z" stroke="#663366" stroke-width="4.22535" stroke-miterlimit="10" stroke-linecap="round" stroke-linejoin="round"/>
<path d="M47.1129 16.382C50.2559 16.382 52.8039 13.834 52.8039 10.691C52.8039 7.54794 50.2559 5 47.1129 5C43.9698 5 41.4219 7.54794 41.4219 10.691C41.4219 13.834 43.9698 16.382 47.1129 16.382Z" stroke="#663366" stroke-width="4.22535" stroke-miterlimit="10" stroke-linecap="round" stroke-linejoin="round"/>
<path d="M75 16.3828V29.4721" stroke="#663366" stroke-width="4.22535" stroke-miterlimit="10" stroke-linecap="round" stroke-linejoin="round"/>
<path d="M102.887 16.3828V29.4721" stroke="#663366" stroke-width="4.22535" stroke-miterlimit="10" stroke-linecap="round" stroke-linejoin="round"/>
<path d="M47.1133 16.3828V29.4721" stroke="#663366" stroke-width="4.22535" stroke-miterlimit="10" stroke-linecap="round" stroke-linejoin="round"/>
<path d="M139.308 80.6906C142.451 80.6906 144.999 78.1426 144.999 74.9996C144.999 71.8565 142.451 69.3086 139.308 69.3086C136.165 69.3086 133.617 71.8565 133.617 74.9996C133.617 78.1426 136.165 80.6906 139.308 80.6906Z" stroke="#663366" stroke-width="4.22535" stroke-miterlimit="10" stroke-linecap="round" stroke-linejoin="round"/>
<path d="M139.308 108.577C142.451 108.577 144.999 106.029 144.999 102.886C144.999 99.7433 142.451 97.1953 139.308 97.1953C136.165 97.1953 133.617 99.7433 133.617 102.886C133.617 106.029 136.165 108.577 139.308 108.577Z" stroke="#663366" stroke-width="4.22535" stroke-miterlimit="10" stroke-linecap="round" stroke-linejoin="round"/>
<path d="M139.308 52.8039C142.451 52.8039 144.999 50.2559 144.999 47.1129C144.999 43.9698 142.451 41.4219 139.308 41.4219C136.165 41.4219 133.617 43.9698 133.617 47.1129C133.617 50.2559 136.165 52.8039 139.308 52.8039Z" stroke="#663366" stroke-width="4.22535" stroke-miterlimit="10" stroke-linecap="round" stroke-linejoin="round"/>
<path d="M133.619 75H120.529" stroke="#663366" stroke-width="4.22535" stroke-miterlimit="10" stroke-linecap="round" stroke-linejoin="round"/>
<path d="M133.619 102.887H120.529" stroke="#663366" stroke-width="4.22535" stroke-miterlimit="10" stroke-linecap="round" stroke-linejoin="round"/>
<path d="M133.619 47.1133H120.529" stroke="#663366" stroke-width="4.22535" stroke-miterlimit="10" stroke-linecap="round" stroke-linejoin="round"/>
<path d="M74.9996 144.999C78.1426 144.999 80.6906 142.451 80.6906 139.308C80.6906 136.165 78.1426 133.617 74.9996 133.617C71.8565 133.617 69.3086 136.165 69.3086 139.308C69.3086 142.451 71.8565 144.999 74.9996 144.999Z" stroke="#663366" stroke-width="4.22535" stroke-miterlimit="10" stroke-linecap="round" stroke-linejoin="round"/>
<path d="M47.1129 144.999C50.2559 144.999 52.8039 142.451 52.8039 139.308C52.8039 136.165 50.2559 133.617 47.1129 133.617C43.9698 133.617 41.4219 136.165 41.4219 139.308C41.4219 142.451 43.9698 144.999 47.1129 144.999Z" stroke="#663366" stroke-width="4.22535" stroke-miterlimit="10" stroke-linecap="round" stroke-linejoin="round"/>
<path d="M102.886 144.999C106.029 144.999 108.577 142.451 108.577 139.308C108.577 136.165 106.029 133.617 102.886 133.617C99.7433 133.617 97.1953 136.165 97.1953 139.308C97.1953 142.451 99.7433 144.999 102.886 144.999Z" stroke="#663366" stroke-width="4.22535" stroke-miterlimit="10" stroke-linecap="round" stroke-linejoin="round"/>
<path d="M75 133.617V120.527" stroke="#663366" stroke-width="4.22535" stroke-miterlimit="10" stroke-linecap="round" stroke-linejoin="round"/>
<path d="M47.1133 133.617V120.527" stroke="#663366" stroke-width="4.22535" stroke-miterlimit="10" stroke-linecap="round" stroke-linejoin="round"/>
<path d="M102.887 133.617V120.527" stroke="#663366" stroke-width="4.22535" stroke-miterlimit="10" stroke-linecap="round" stroke-linejoin="round"/>
<path d="M10.691 80.6906C13.834 80.6906 16.382 78.1426 16.382 74.9996C16.382 71.8565 13.834 69.3086 10.691 69.3086C7.54794 69.3086 5 71.8565 5 74.9996C5 78.1426 7.54794 80.6906 10.691 80.6906Z" stroke="#663366" stroke-width="4.22535" stroke-miterlimit="10" stroke-linecap="round" stroke-linejoin="round"/>
<path d="M10.691 52.8039C13.834 52.8039 16.382 50.2559 16.382 47.1129C16.382 43.9698 13.834 41.4219 10.691 41.4219C7.54794 41.4219 5 43.9698 5 47.1129C5 50.2559 7.54794 52.8039 10.691 52.8039Z" stroke="#663366" stroke-width="4.22535" stroke-miterlimit="10" stroke-linecap="round" stroke-linejoin="round"/>
<path d="M10.691 108.577C13.834 108.577 16.382 106.029 16.382 102.886C16.382 99.7433 13.834 97.1953 10.691 97.1953C7.54794 97.1953 5 99.7433 5 102.886C5 106.029 7.54794 108.577 10.691 108.577Z" stroke="#663366" stroke-width="4.22535" stroke-miterlimit="10" stroke-linecap="round" stroke-linejoin="round"/>
<path d="M16.3828 75H29.4721" stroke="#663366" stroke-width="4.22535" stroke-miterlimit="10" stroke-linecap="round" stroke-linejoin="round"/>
<path d="M16.3828 47.1133H29.4721" stroke="#663366" stroke-width="4.22535" stroke-miterlimit="10" stroke-linecap="round" stroke-linejoin="round"/>
<path d="M16.3828 102.887H29.4721" stroke="#663366" stroke-width="4.22535" stroke-miterlimit="10" stroke-linecap="round" stroke-linejoin="round"/>
</svg>
