<svg width="150" height="150" viewBox="0 0 150 150" fill="none" xmlns="http://www.w3.org/2000/svg">
<path fill-rule="evenodd" clip-rule="evenodd" d="M73.9837 62.142H42.7594V89.9757H73.9837V62.142ZM52.153 79.8924C52.153 78.8634 52.9874 78.029 54.0164 78.029C55.0455 78.029 55.8799 78.8634 55.8799 79.8924V80.456C55.8799 80.9853 56.1337 81.4772 56.54 81.8446C57.0008 82.2587 57.6484 82.5171 58.3707 82.5171C59.0931 82.5171 59.7407 82.2603 60.2015 81.8446C60.6094 81.4772 60.8616 80.9853 60.8616 80.456V79.5312C60.8616 79.3616 60.8118 79.2074 60.7199 79.086C60.6047 78.9319 60.4179 78.8011 60.1735 78.7093L55.2868 76.9003C54.3511 76.5547 53.5821 75.9756 53.0372 75.2423C52.4674 74.4779 52.153 73.5641 52.153 72.5849V71.6602C52.153 70.0302 52.88 68.5606 54.0507 67.5067C54.7372 66.8871 55.5794 66.4138 56.5151 66.1383V65.2805C56.5151 64.2561 57.3464 63.4248 58.3707 63.4248C59.3951 63.4248 60.2264 64.2561 60.2264 65.2805V66.1383C61.1621 66.4123 62.0043 66.8871 62.6908 67.5051C63.8615 68.5606 64.5885 70.0302 64.5885 71.6586V72.2222C64.5885 73.2512 63.7541 74.0856 62.7251 74.0856C61.696 74.0856 60.8616 73.2512 60.8616 72.2222V71.6586C60.8616 71.1293 60.6078 70.6374 60.2015 70.27C59.7407 69.8559 59.0931 69.5974 58.3707 69.5974C57.6484 69.5974 56.9992 69.8543 56.54 70.27C56.1321 70.6374 55.8799 71.1293 55.8799 71.6586V72.5833C55.8799 72.753 55.9297 72.9072 56.0216 73.0286C56.1368 73.1827 56.3236 73.3135 56.568 73.4053L61.4547 75.2143C62.3903 75.5599 63.1594 76.139 63.7043 76.8723C64.274 77.6366 64.5885 78.5505 64.5885 79.5297V80.4544C64.5885 82.0828 63.8615 83.5524 62.6908 84.6079C62.0043 85.2275 61.1621 85.7008 60.2264 85.9748V86.8325C60.2264 87.8569 59.3951 88.6882 58.3707 88.6882C57.3464 88.6882 56.5151 87.8569 56.5151 86.8325V85.9748C55.5794 85.7008 54.7372 85.2259 54.0507 84.6063C52.88 83.5508 52.153 82.0813 52.153 80.4529V79.8893V79.8924ZM97.0115 51.5886L90.5135 45.0906L88.222 47.3604L94.7418 53.8802L97.0115 51.5886ZM116.255 46.087C114.588 47.4523 112.819 48.8207 110.951 50.1922C111.614 52.3234 111.974 54.4998 112.028 56.7198C112.045 57.4343 112.031 58.152 111.986 58.8728L113.789 57.07C114.189 56.67 114.505 56.2792 114.746 55.8807C114.994 55.4728 115.195 55.0151 115.361 54.4858C115.995 52.4698 116.334 50.5238 116.379 48.6448C116.4 47.7823 116.358 46.9308 116.255 46.087ZM91.91 31.1512C93.2815 29.2831 94.6499 27.5146 96.0152 25.8473C95.1714 25.743 94.3183 25.7025 93.4559 25.7228C91.5784 25.7679 89.6309 26.1073 87.6164 26.7409C87.0871 26.9075 86.6294 27.1083 86.2215 27.3558C85.823 27.5971 85.4322 27.9131 85.0321 28.3132L83.2294 30.116C83.9502 30.0708 84.6679 30.0568 85.3824 30.074C87.6039 30.1284 89.7787 30.4881 91.91 31.1512ZM86.9081 51.3178L91.046 55.4557L89.8161 56.6855L85.6782 52.5476L86.9081 51.3178ZM124.889 9.21157C125.852 10.9162 127.006 12.4388 128.348 13.7807C129.676 15.1086 131.189 16.2575 132.888 17.2274C133.331 15.0853 133.476 12.9618 133.319 10.8571C133.277 10.3013 133.039 9.80315 132.668 9.43419C132.297 9.06523 131.801 8.82549 131.245 8.78346C129.145 8.62778 127.026 8.771 124.889 9.21157ZM122.605 23.3985C122.605 22.399 122.224 21.4011 121.462 20.6383C120.701 19.8771 119.702 19.4956 118.702 19.4956C117.703 19.4956 116.705 19.8771 115.942 20.6383C115.181 21.3996 114.799 22.399 114.799 23.3985C114.799 24.3979 115.181 25.3958 115.942 26.1587C116.703 26.9199 117.703 27.3013 118.702 27.3013C119.702 27.3013 120.699 26.9199 121.462 26.1587C122.224 25.3974 122.605 24.3979 122.605 23.3985ZM124.096 18.0043C125.586 19.4941 126.33 21.4463 126.33 23.3985C126.33 25.3507 125.586 27.3029 124.096 28.7927C122.607 30.2826 120.654 31.0267 118.702 31.0267C116.75 31.0267 114.798 30.2826 113.308 28.7927C111.818 27.3029 111.074 25.3507 111.074 23.3985C111.074 21.4463 111.82 19.4941 113.308 18.0043C114.798 16.5144 116.75 15.7703 118.702 15.7703C120.654 15.7703 122.607 16.516 124.096 18.0043ZM103.268 23.193C105.949 20.3441 108.606 17.9108 111.242 15.8979C114.612 13.323 117.941 11.4424 121.226 10.2531C122.44 12.5851 123.936 14.6385 125.712 16.4148C127.478 18.1802 129.52 19.6731 131.838 20.8952C130.649 24.1738 128.77 27.4944 126.201 30.857C123.598 34.2648 120.298 37.7084 116.298 41.1894C116.239 41.2345 116.183 41.2843 116.129 41.3357C112.199 44.7388 107.605 48.1777 102.342 51.6509L90.4482 39.7571C93.9213 34.4937 97.3603 29.898 100.763 25.9703C100.815 25.9174 100.865 25.8613 100.91 25.8006C101.638 24.9631 102.365 24.1566 103.092 23.3798C103.155 23.3222 103.214 23.2584 103.268 23.193ZM103.74 55.177V128.89C103.74 133.323 101.928 137.35 99.0089 140.269C96.0899 143.188 92.0625 145 87.6304 145H29.1095C24.6774 145 20.65 143.188 17.7311 140.269C14.8121 137.35 13 133.323 13 128.89V23.2257C13 18.7935 14.8121 14.7662 17.7311 11.8472C20.65 8.92824 24.6774 7.11615 29.1095 7.11615H87.632C91.8119 7.11615 95.6369 8.73208 98.5092 11.3724C100.522 13.2203 102.066 15.5726 102.938 18.2222C104.962 16.2389 106.978 14.4797 108.986 12.9447C116.58 7.14417 124.087 4.51944 131.507 5.0721C132.996 5.18263 134.323 5.81935 135.302 6.79856C136.283 7.77933 136.918 9.10415 137.029 10.594C137.26 13.7107 136.932 16.8445 136.042 19.9923C136.038 20.2413 135.985 20.4935 135.877 20.7348C135.838 20.8205 135.792 20.903 135.743 20.9793C134.458 24.9989 132.263 29.0434 129.154 33.1128C126.578 36.4848 123.368 39.8801 119.524 43.2972C119.944 45.0626 120.133 46.8747 120.089 48.7319C120.036 50.9784 119.642 53.2637 118.911 55.5911C118.662 56.3851 118.336 57.1105 117.918 57.8017C117.493 58.5007 117.001 59.125 116.421 59.7041L110.431 65.6946C109.704 66.4216 108.524 66.4216 107.797 65.6946C107.264 65.1622 107.123 64.39 107.367 63.7268C108.054 61.3559 108.37 59.0487 108.314 56.8054C108.278 55.3451 108.085 53.9036 107.735 52.4838C106.446 53.3805 105.115 54.2772 103.74 55.177ZM100.013 127.404H16.7269V128.89C16.7269 132.294 18.1202 135.39 20.3667 137.635C22.6115 139.88 25.708 141.275 29.1111 141.275H87.6335C91.0366 141.275 94.1331 139.881 96.3779 137.635C98.6228 135.388 100.018 132.294 100.018 128.89V127.404H100.013ZM16.7238 123.677V23.2257C16.7238 19.8226 18.1171 16.7261 20.3636 14.4813C22.6084 12.2364 25.7049 10.8415 29.108 10.8415H87.6304C90.8467 10.8415 93.7859 12.0823 95.9903 14.1076C98.0328 15.9836 99.4479 18.5304 99.8776 21.3856C99.5195 21.7748 99.1614 22.1717 98.8018 22.575C97.0364 22.1546 95.2244 21.9663 93.3671 22.0098C91.1207 22.0628 88.8353 22.4566 86.508 23.1883C85.714 23.4374 84.9885 23.7628 84.2973 24.1816C83.5983 24.605 82.9741 25.0985 82.395 25.6776L76.4045 31.6681C75.6775 32.3951 75.6775 33.5752 76.4045 34.3022C76.9369 34.8346 77.709 34.9763 78.3707 34.7318C80.7417 34.0453 83.0488 33.7293 85.2921 33.7853C86.7539 33.8211 88.194 34.0142 89.6137 34.3644C88.6065 35.8138 87.5977 37.3161 86.5874 38.8713C86.0222 39.6014 86.0752 40.6569 86.7461 41.3264L87.8826 42.4628L84.2709 46.0403C83.5439 46.7642 83.5407 47.9395 84.2631 48.6681L84.2662 48.6712L84.2631 48.6743L84.2771 48.6884L81.8283 51.1341C81.7925 51.1636 81.7582 51.1963 81.7255 51.229C80.9985 51.956 80.9985 53.1361 81.7255 53.8631L88.496 60.6335C89.223 61.3605 90.403 61.3605 91.13 60.6335L93.7018 58.0617C94.4257 58.549 95.4174 58.4727 96.0588 57.8329C96.0946 57.7971 96.1273 57.7613 96.16 57.7239L99.6363 54.2134L100.013 54.5901V123.675H16.7269L16.7238 123.677ZM25.7858 135.645H33.0996C34.1286 135.645 34.963 134.811 34.963 133.782C34.963 132.753 34.1286 131.918 33.0996 131.918H25.7858C24.7568 131.918 23.9224 132.753 23.9224 133.782C23.9224 134.811 24.7568 135.645 25.7858 135.645ZM83.6357 135.645H90.9495C91.9785 135.645 92.8129 134.811 92.8129 133.782C92.8129 132.753 91.9785 131.918 90.9495 131.918H83.6357C82.6067 131.918 81.7722 132.753 81.7722 133.782C81.7722 134.811 82.6067 135.645 83.6357 135.645ZM64.587 132.895H52.1467V135.541H64.587V132.895ZM50.2833 129.168C49.2543 129.168 48.4198 130.002 48.4198 131.031V137.403C48.4198 138.432 49.2543 139.266 50.2833 139.266H66.4489C67.4779 139.266 68.3123 138.432 68.3123 137.403V131.031C68.3123 130.002 67.4779 129.168 66.4489 129.168H50.2833ZM20.8944 19.8428V21.1069C20.8944 22.1359 21.7289 22.9704 22.7579 22.9704C23.7869 22.9704 24.6214 22.1359 24.6214 21.1069V19.8428C24.6214 18.8138 23.7869 17.9793 22.7579 17.9793C21.7289 17.9793 20.8944 18.8138 20.8944 19.8428ZM26.5128 17.8221V21.1069C26.5128 22.1359 27.3473 22.9704 28.3763 22.9704C29.4053 22.9704 30.2398 22.1359 30.2398 21.1069V17.8221C30.2398 16.7931 29.4053 15.9586 28.3763 15.9586C27.3473 15.9586 26.5128 16.7931 26.5128 17.8221ZM32.1312 16.9456V21.1069C32.1312 22.1359 32.9657 22.9704 33.9947 22.9704C35.0237 22.9704 35.8582 22.1359 35.8582 21.1069V16.9456C35.8582 15.9166 35.0237 15.0822 33.9947 15.0822C32.9657 15.0822 32.1312 15.9166 32.1312 16.9456ZM37.7497 16.0489V21.1085C37.7497 22.1375 38.5841 22.9719 39.6131 22.9719C40.6422 22.9719 41.4766 22.1375 41.4766 21.1085V16.0489C41.4766 15.0199 40.6422 14.1855 39.6131 14.1855C38.5841 14.1855 37.7497 15.0199 37.7497 16.0489ZM84.0638 20.3192H90.5338C91.5628 20.3192 92.3972 19.4848 92.3972 18.4557C92.3972 17.4267 91.5628 16.5923 90.5338 16.5923H84.0638C83.0348 16.5923 82.2004 17.4267 82.2004 18.4557C82.2004 19.4848 83.0348 20.3192 84.0638 20.3192ZM40.8975 58.4167H42.6333V54.615C42.6333 53.586 43.4677 52.7515 44.4967 52.7515C45.5258 52.7515 46.3602 53.586 46.3602 54.615V58.4167H49.5718V54.615C49.5718 53.586 50.4063 52.7515 51.4353 52.7515C52.4643 52.7515 53.2988 53.586 53.2988 54.615V58.4167H56.5104V54.615C56.5104 53.586 57.3448 52.7515 58.3739 52.7515C59.4029 52.7515 60.2373 53.586 60.2373 54.615V58.4167H63.449V54.615C63.449 53.586 64.2834 52.7515 65.3124 52.7515C66.3415 52.7515 67.1759 53.586 67.1759 54.615V58.4167H70.3875V54.615C70.3875 53.586 71.222 52.7515 72.251 52.7515C73.28 52.7515 74.1144 53.586 74.1144 54.615V58.4167H75.8503C76.8793 58.4167 77.7137 59.2511 77.7137 60.2801V60.3206H81.5154C82.5444 60.3206 83.3788 61.155 83.3788 62.1841C83.3788 63.2131 82.5444 64.0475 81.5154 64.0475H77.7137V67.2592H81.5154C82.5444 67.2592 83.3788 68.0936 83.3788 69.1226C83.3788 70.1517 82.5444 70.9861 81.5154 70.9861H77.7137V74.1977H81.5154C82.5444 74.1977 83.3788 75.0322 83.3788 76.0612C83.3788 77.0902 82.5444 77.9247 81.5154 77.9247H77.7137V81.1363H81.5154C82.5444 81.1363 83.3788 81.9707 83.3788 82.9998C83.3788 84.0288 82.5444 84.8632 81.5154 84.8632H77.7137V88.0748H81.5154C82.5444 88.0748 83.3788 88.9093 83.3788 89.9383C83.3788 90.9673 82.5444 91.8018 81.5154 91.8018H77.7137V91.8423C77.7137 92.8713 76.8793 93.7057 75.8503 93.7057H74.1144V97.5074C74.1144 98.5364 73.28 99.3708 72.251 99.3708C71.222 99.3708 70.3875 98.5364 70.3875 97.5074V93.7057H67.1759V97.5074C67.1759 98.5364 66.3415 99.3708 65.3124 99.3708C64.2834 99.3708 63.449 98.5364 63.449 97.5074V93.7057H60.2373V97.5074C60.2373 98.5364 59.4029 99.3708 58.3739 99.3708C57.3448 99.3708 56.5104 98.5364 56.5104 97.5074V93.7057H53.2988V97.5074C53.2988 98.5364 52.4643 99.3708 51.4353 99.3708C50.4063 99.3708 49.5718 98.5364 49.5718 97.5074V93.7057H46.3602V97.5074C46.3602 98.5364 45.5258 99.3708 44.4967 99.3708C43.4677 99.3708 42.6333 98.5364 42.6333 97.5074V93.7057H40.8975C39.8684 93.7057 39.034 92.8713 39.034 91.8423V91.8018H35.2324C34.2033 91.8018 33.3689 90.9673 33.3689 89.9383C33.3689 88.9093 34.2033 88.0748 35.2324 88.0748H39.034V84.8632H35.2324C34.2033 84.8632 33.3689 84.0288 33.3689 82.9998C33.3689 81.9707 34.2033 81.1363 35.2324 81.1363H39.034V77.9247H35.2324C34.2033 77.9247 33.3689 77.0902 33.3689 76.0612C33.3689 75.0322 34.2033 74.1977 35.2324 74.1977H39.034V70.9861H35.2324C34.2033 70.9861 33.3689 70.1517 33.3689 69.1226C33.3689 68.0936 34.2033 67.2592 35.2324 67.2592H39.034V64.0475H35.2324C34.2033 64.0475 33.3689 63.2131 33.3689 62.1841C33.3689 61.155 34.2033 60.3206 35.2324 60.3206H39.034V60.2801C39.034 59.2511 39.8684 58.4167 40.8975 58.4167Z" fill="#663366"/>
</svg>
