<svg width="150" height="150" viewBox="0 0 150 150" fill="none" xmlns="http://www.w3.org/2000/svg">
<path d="M139.455 123.599L138.077 120.269C137.383 118.586 136.005 117.389 134.401 116.85C134.622 114.389 134.73 110.299 133.586 106.801C133.568 106.748 133.55 106.694 133.526 106.64L124.424 84.7164C123.005 81.297 119.07 79.6682 115.651 81.0815C114.603 81.5186 113.723 82.1893 113.046 83.0097C112.549 82.6205 112.004 82.3091 111.406 82.0875C109.855 81.5066 108.082 81.5725 106.399 82.2672C105.196 82.7642 104.184 83.5906 103.459 84.6386C102.363 83.9918 101.094 83.6565 99.8002 83.6984L99.8122 12.6531C99.8122 8.4373 96.3809 5.00599 92.1651 5.00599L18.6471 5C14.4313 5 11 8.43131 11 12.6471V134.838C11 139.054 14.4313 142.485 18.6471 142.485H92.1651C93.8238 142.485 95.3929 141.94 96.6743 141.006L96.7821 141.269C97.3989 142.76 98.5607 143.922 100.052 144.539C100.794 144.85 101.579 145 102.363 145C103.148 145 103.932 144.844 104.675 144.539L136.192 131.484C137.683 130.868 138.844 129.706 139.461 128.215C140.078 126.724 140.078 125.083 139.461 123.592L139.455 123.599ZM15.4257 12.654C15.4257 10.8754 16.8689 9.43225 18.6474 9.43225H92.1655C93.9441 9.43225 95.3873 10.8754 95.3873 12.654V12.9354H15.426L15.4257 12.654ZM15.4257 17.3668H95.3808V85.1299L90.6201 73.6324C89.656 71.3031 87.7577 69.788 85.4223 69.4826C83.0389 69.1712 80.5538 70.1952 79.0927 72.0935C77.6495 73.9738 77.386 76.417 78.3741 78.7944L88.0691 102.364C84.4701 99.5797 81.7813 98.9509 78.4279 100.047C76.3081 100.735 74.7331 102.448 74.2062 104.628C73.6732 106.832 74.314 109.107 75.9069 110.712C76.9908 111.802 77.8351 113.191 79.1167 115.293C80.1826 117.042 81.506 119.221 83.4701 122.036C84.8654 124.042 86.3146 125.755 87.7277 127.21H15.4253L15.4257 17.3668ZM95.3992 133.324C94.992 134.306 94.8603 135.354 94.986 136.378C94.4291 137.402 93.3453 138.067 92.1595 138.067L18.6475 138.061C16.869 138.061 15.4258 136.618 15.4258 134.839V131.636H92.8837C93.8298 132.306 94.6921 132.845 95.4226 133.265C95.4166 133.283 95.4047 133.301 95.3987 133.318L95.3992 133.324ZM87.1115 119.509C85.2252 116.797 83.9377 114.689 82.9017 112.988C81.5065 110.701 80.5004 109.048 79.0453 107.587C78.3207 106.862 78.4285 106 78.5124 105.665C78.5902 105.341 78.8717 104.557 79.7998 104.257C82.0754 103.515 83.7821 103.539 92.459 112.647C93.1956 113.42 94.3753 113.557 95.2675 112.976C96.1598 112.396 96.5131 111.264 96.1118 110.276L82.4706 77.1062C82.0873 76.184 82.1353 75.4055 82.6083 74.7887C83.1054 74.142 84.0276 73.7587 84.8419 73.8725C85.6024 73.9743 86.1653 74.4594 86.5247 75.3277L97.7168 102.353C98.0701 103.203 98.8965 103.718 99.7647 103.718C100.046 103.718 100.334 103.664 100.609 103.551C101.741 103.083 102.274 101.79 101.807 100.658L97.9264 91.2806C97.4474 90.1189 97.9983 88.7775 99.16 88.2985C100.322 87.8134 101.663 88.3703 102.142 89.532L106.651 100.413C107.005 101.263 107.831 101.778 108.699 101.778C108.981 101.778 109.268 101.724 109.544 101.61C110.675 101.143 111.208 99.85 110.741 98.7181L106.855 89.3405C106.621 88.7776 106.621 88.1548 106.855 87.5919C107.088 87.029 107.525 86.5919 108.088 86.3583C108.723 86.0949 109.352 86.0529 109.843 86.2386C110.364 86.4362 110.777 86.8913 111.07 87.5979L115.891 99.2331C116.358 100.365 117.657 100.898 118.783 100.431C119.915 99.9637 120.448 98.6702 119.981 97.5384L116.095 88.1608C115.615 86.999 116.166 85.6577 117.328 85.1786C118.49 84.6936 119.831 85.2505 120.31 86.4182L129.377 108.263C130.359 111.335 130.113 115.204 129.898 117.108L98.7102 130.025C96.8119 129.079 91.6679 126.085 87.087 119.503L87.1115 119.509ZM135.366 126.528C135.198 126.923 134.893 127.234 134.491 127.402L102.975 140.456C102.579 140.624 102.136 140.624 101.741 140.456C101.346 140.295 101.034 139.983 100.867 139.582L99.4893 136.253C99.3217 135.857 99.3217 135.414 99.4893 135.019C99.651 134.624 99.9624 134.312 100.364 134.145L131.881 121.09C132.084 121.006 132.288 120.971 132.497 120.971C133.132 120.971 133.731 121.348 133.988 121.965L135.366 125.294C135.533 125.689 135.527 126.132 135.366 126.528ZM79.0096 93.0056V84.9872C79.0096 83.7656 78.0155 82.7716 76.794 82.7716H76.1352V64.7052H76.794C78.0156 64.7052 79.0096 63.7111 79.0096 62.4895V56.6868H79.1653C80.2132 56.6868 81.1174 55.9503 81.3331 54.9203C81.5487 53.8903 81.0097 52.8543 80.0456 52.4412L55.4579 41.752C54.895 41.5065 54.2542 41.5065 53.6914 41.752L29.1036 52.4412C28.1395 52.8604 27.6065 53.8963 27.8161 54.9203C28.0317 55.9503 28.9359 56.6868 29.9839 56.6868H30.1396V62.4895C30.1396 63.7111 31.1337 64.7052 32.3553 64.7052H33.1817V82.7716H32.3553C31.1337 82.7716 30.1396 83.7656 30.1396 84.9872V93.0056C30.1396 94.2272 31.1337 95.2212 32.3553 95.2212H76.7939C78.0155 95.2212 79.0096 94.2272 79.0096 93.0056ZM54.5767 46.2077L68.5113 52.2678H40.6414L54.5767 46.2077ZM74.5838 90.7965H34.5756V87.2096H74.5838V90.7965ZM37.6186 82.7722V64.7058H52.3618V82.7722H37.6186ZM56.7934 82.7722V64.7058H71.7102V82.7722H56.7934ZM74.5838 60.28H34.5756V56.6931H74.5838V60.28Z" fill="#663366"/>
</svg>
