<svg width="150" height="150" viewBox="0 0 150 150" fill="none" xmlns="http://www.w3.org/2000/svg">
<path fill-rule="evenodd" clip-rule="evenodd" d="M58.6134 100.386H91.3888C91.9782 100.38 92.4522 99.9002 92.4643 99.3169V92.9367C92.4582 92.3473 91.9782 91.8733 91.3888 91.8672H58.6134C58.024 91.8733 57.5439 92.3473 57.5379 92.9367V99.3169C57.55 99.9002 58.024 100.38 58.6134 100.386ZM58.6134 113.159H91.3888C91.9782 113.153 92.4582 112.673 92.4643 112.083V105.703C92.4582 105.108 91.9782 104.634 91.3888 104.628H58.6134C58.024 104.634 57.5439 105.108 57.5379 105.703V112.089V112.083C57.5439 112.673 58.024 113.153 58.6134 113.159ZM91.3888 130.167H58.6134C58.024 130.179 57.55 130.653 57.5379 131.243V137.629C57.5439 138.218 58.024 138.692 58.6134 138.698H91.3888C91.9782 138.692 92.4582 138.218 92.4643 137.629V131.243C92.4522 130.653 91.9782 130.179 91.3888 130.167ZM95.6302 128.047H95.6362C96.3289 128.97 96.7057 130.088 96.7057 131.243V137.629C96.7057 140.564 94.3238 142.94 91.3888 142.946H58.6134C55.6785 142.94 53.3026 140.564 53.2965 137.635V131.243C53.2965 130.088 53.6733 128.97 54.366 128.047C53.6733 127.129 53.2965 126.011 53.2965 124.856V118.476C53.2965 117.328 53.6733 116.204 54.366 115.286C53.6733 114.369 53.2965 113.244 53.2965 112.096V105.704C53.2965 104.549 53.6733 103.425 54.366 102.507C53.6733 101.59 53.2965 100.466 53.2965 99.3172V92.937C53.3026 90.0021 55.6784 87.6262 58.6134 87.6262H91.3888C94.3237 87.6262 96.6996 90.002 96.7057 92.937V99.3172C96.7057 100.466 96.3289 101.59 95.6362 102.507C96.3289 103.425 96.7057 104.549 96.7057 105.704V112.09V112.084C96.7057 113.238 96.3289 114.356 95.6362 115.28C96.3289 116.197 96.7057 117.316 96.7057 118.47V124.85C96.7057 125.999 96.3289 127.123 95.6362 128.04L95.6302 128.047ZM58.6065 125.926H91.3882C91.9776 125.92 92.4576 125.446 92.4637 124.856V118.476C92.4576 117.887 91.9776 117.413 91.3882 117.407H58.6128C58.0233 117.413 57.5433 117.887 57.5372 118.476V124.856C57.5433 125.446 58.0233 125.92 58.6128 125.926H58.6065ZM77.1145 77.3756V78.8886L77.1205 78.8947C77.1388 79.4659 76.92 80.0188 76.519 80.432C76.124 80.8391 75.5711 81.0761 74.9999 81.0761C74.4287 81.0761 73.8818 80.8391 73.4808 80.432C73.0798 80.0188 72.8671 79.4659 72.8792 78.8947V77.3817C72.0346 77.0718 71.2689 76.5857 70.6249 75.9476C69.4644 74.7992 68.8081 73.2315 68.802 71.5909C68.802 70.4242 69.756 69.4702 70.9287 69.4702C72.0954 69.4702 73.0494 70.4242 73.0494 71.5909C73.0433 72.1013 73.2499 72.5935 73.6084 72.952C74.3862 73.7054 75.6198 73.7054 76.3915 72.952C76.7561 72.5935 76.9566 72.1013 76.9566 71.5909C76.9566 70.1629 75.7109 69.8773 74.4773 69.5979C71.6276 68.9416 68.8021 68.2975 68.8021 63.6492C68.8021 63.6188 68.8021 63.5155 68.8142 63.3453H68.8203C68.9722 60.8966 70.5703 58.7759 72.8794 57.9495V56.2116C72.8672 55.6404 73.0799 55.0875 73.4809 54.6743C73.882 54.2672 74.4288 54.0363 75 54.0363C75.5712 54.0363 76.1241 54.2672 76.5191 54.6743C76.9201 55.0875 77.1389 55.6404 77.1207 56.2116V58.0588C77.9349 58.3748 78.6823 58.8427 79.3143 59.4442C80.4627 60.5258 81.1372 62.0205 81.1918 63.5944C81.2161 64.7611 80.2925 65.7272 79.1259 65.7576C77.9593 65.7819 76.9931 64.8643 76.9628 63.6977C76.9324 63.2359 76.7258 62.8045 76.3794 62.4946C76.0027 62.1361 75.5166 61.9173 75.0001 61.8626H74.8421H74.7996H74.8057C74.356 61.8687 73.9246 62.051 73.6025 62.3731C73.2744 62.683 73.0678 63.1083 73.0374 63.564V63.6491C73.0374 64.9251 74.2223 65.2046 75.4132 65.472C78.2874 66.1344 81.1918 66.7967 81.1918 71.597C81.1857 73.2316 80.5295 74.7993 79.3628 75.9538C78.7247 76.5857 77.9591 77.0718 77.1145 77.3817L77.1145 77.3756ZM85.2081 57.6761C79.5329 52.1345 70.4668 52.1345 64.7853 57.6761C62.0935 60.3132 60.5805 63.9226 60.5805 67.69C60.5805 71.4513 62.0936 75.0606 64.7853 77.6977C70.4667 83.2394 79.5327 83.2394 85.2081 77.6977C87.9 75.0606 89.419 71.4513 89.419 67.69C89.419 63.9226 87.8999 60.3132 85.2081 57.6761ZM74.9998 49.2787C70.0719 49.2665 65.3324 51.1988 61.8201 54.6623C58.3141 58.0893 56.3393 62.7864 56.3393 67.69C56.3393 72.5935 58.3141 77.2846 61.8201 80.7116C69.1421 87.8939 80.857 87.8939 88.1789 80.7116C91.685 77.2846 93.6597 72.5935 93.6597 67.69C93.6597 62.7864 91.685 58.0893 88.1789 54.6623C84.6668 51.2047 79.9278 49.2664 74.9998 49.2787ZM10.3108 111.743H43.0924C43.6818 111.737 44.1558 111.263 44.1619 110.674V104.288C44.1558 103.698 43.6818 103.224 43.0924 103.212H10.3108C9.72747 103.224 9.25351 103.698 9.24136 104.288V110.674C9.24744 111.263 9.72139 111.737 10.3108 111.743ZM10.3108 124.516H43.0924C43.6818 124.504 44.1558 124.03 44.1619 123.44V117.06C44.1558 116.471 43.6818 115.997 43.0924 115.984H10.3108C9.72747 115.997 9.25351 116.471 9.24136 117.06V123.446V123.44C9.25351 124.03 9.72747 124.504 10.3108 124.516ZM43.0924 141.53H10.3108C7.38201 141.524 5.00607 139.148 5 136.213V129.827C5 128.679 5.37674 127.555 6.06944 126.637C5.37674 125.72 5 124.595 5 123.441V117.061C5 115.906 5.37674 114.788 6.06944 113.864C5.37674 112.947 5 111.823 5 110.674V104.288C5.00608 101.353 7.38186 98.9772 10.3108 98.9711H43.0924C46.0212 98.9833 48.3909 101.359 48.3972 104.288V110.674C48.4032 111.823 48.0265 112.947 47.3277 113.864C48.0265 114.788 48.3972 115.906 48.3972 117.061V123.447V123.441C48.3972 124.595 48.0265 125.719 47.3277 126.637C48.0265 127.555 48.4032 128.679 48.3972 129.827V136.213C48.3972 139.148 46.0214 141.524 43.0864 141.53L43.0924 141.53ZM10.3108 137.289H43.0924C43.6818 137.277 44.1558 136.803 44.1619 136.213V129.827C44.1558 129.244 43.6818 128.764 43.0924 128.758H10.3108C9.72747 128.764 9.25351 129.244 9.24136 129.827V136.213C9.25351 136.803 9.72747 137.277 10.3108 137.289ZM28.8187 88.7387V90.2517H28.8248C28.7944 91.4002 27.8526 92.3177 26.7041 92.3177C25.5557 92.3177 24.6138 91.4001 24.5834 90.2517V88.7387C23.7388 88.4288 22.9671 87.9427 22.3291 87.3047C21.1625 86.1563 20.5062 84.5886 20.5062 82.954C20.5062 81.7813 21.4541 80.8273 22.6269 80.8273C23.7996 80.8273 24.7475 81.7812 24.7475 82.954C24.7475 83.4644 24.9541 83.9505 25.3126 84.309C26.0904 85.0625 27.3179 85.0625 28.0957 84.309C28.4542 83.9505 28.6608 83.4644 28.6608 82.954C28.6608 81.526 27.4151 81.2404 26.1815 80.961C23.3318 80.3048 20.5063 79.6607 20.5063 75.0123C20.5063 74.9819 20.5063 74.8786 20.5184 74.7085V74.7024C20.6764 72.2537 22.2684 70.133 24.5835 69.3065V67.5687C24.6139 66.4202 25.5558 65.5027 26.7042 65.5027C27.8527 65.5027 28.7946 66.4203 28.8249 67.5687V69.4159C29.6391 69.7318 30.3805 70.2058 31.0123 70.8074C32.1668 71.8829 32.8413 73.3776 32.8899 74.9515C32.9202 76.1182 31.9966 77.0904 30.83 77.1146C29.6633 77.145 28.6911 76.2214 28.6669 75.0548C28.6365 74.593 28.4238 74.1616 28.0774 73.8517C27.7007 73.4932 27.2207 73.2744 26.7042 73.2197H26.5462H26.5037C26.054 73.2258 25.6226 73.4081 25.3066 73.7301C24.9724 74.04 24.7719 74.4654 24.7415 74.9211V75.0062C24.7415 76.2822 25.9264 76.5617 27.1173 76.8291C29.9915 77.4914 32.8959 78.1537 32.8959 82.9541C32.8898 84.5887 32.2336 86.1563 31.0669 87.3109C30.4288 87.9428 29.6633 88.4349 28.8187 88.7387ZM36.9124 69.033C31.2311 63.4914 22.1711 63.4914 16.4896 69.033C13.7977 71.6702 12.2848 75.2795 12.2848 79.0469C12.2848 82.8143 13.7978 86.4236 16.4896 89.0547C22.1709 94.6024 31.2309 94.6024 36.9124 89.0547C39.6043 86.4236 41.1172 82.8143 41.1172 79.0469C41.1172 75.2795 39.6042 71.6702 36.9124 69.033ZM26.692 60.6356H26.698C21.7701 60.6234 17.0367 62.5618 13.5244 66.0192C10.0123 69.4462 8.03753 74.1433 8.03753 79.0529C8.03753 83.9565 10.0184 88.6536 13.5244 92.0807C20.8403 99.2569 32.5612 99.2569 39.8832 92.0807C43.3832 88.6536 45.364 83.9565 45.364 79.0529C45.364 74.1494 43.3832 69.4523 39.8832 66.0252C36.365 62.5677 31.6315 60.6356 26.7035 60.6416L26.692 60.6356ZM106.895 85.361H139.689C140.272 85.3489 140.746 84.8749 140.758 84.2855V77.9052V77.9113C140.746 77.3219 140.272 76.848 139.689 76.8358H106.907C106.318 76.848 105.844 77.3219 105.838 77.9113V84.2916V84.2855C105.844 84.8749 106.318 85.3488 106.907 85.361L106.895 85.361ZM106.895 98.1335L139.689 98.1274C140.272 98.1213 140.752 97.6474 140.758 97.0579V90.6777C140.752 90.0883 140.278 89.6143 139.689 89.6083H106.907C106.318 89.6143 105.844 90.0883 105.838 90.6777V97.0579C105.844 97.6474 106.318 98.1213 106.907 98.1274L106.895 98.1335ZM139.689 115.142H106.907C106.318 115.148 105.844 115.622 105.838 116.211V122.592C105.844 123.181 106.318 123.655 106.907 123.661H139.689C140.278 123.655 140.752 123.181 140.758 122.592V116.211C140.752 115.622 140.272 115.148 139.689 115.142ZM106.907 110.907H139.689C140.278 110.9 140.752 110.42 140.758 109.831V103.439C140.752 102.849 140.278 102.369 139.689 102.363H106.907C106.318 102.369 105.844 102.849 105.838 103.439V109.819V109.813C105.844 110.402 106.318 110.882 106.907 110.888V110.907ZM106.907 127.921V127.915C106.318 127.927 105.844 128.401 105.838 128.991V135.377C105.844 135.966 106.318 136.44 106.907 136.446H139.689C140.278 136.44 140.752 135.966 140.758 135.377V128.985C140.746 128.395 140.272 127.921 139.689 127.915L106.907 127.921ZM143.931 125.8C144.623 126.718 145 127.836 145 128.985V135.371C144.994 138.306 142.618 140.682 139.689 140.682H106.908C103.979 140.676 101.603 138.3 101.603 135.371V128.985C101.603 127.83 101.973 126.712 102.672 125.794C101.973 124.871 101.597 123.753 101.603 122.598V116.218V116.224C101.603 115.07 101.973 113.952 102.672 113.028C101.973 112.11 101.597 110.986 101.603 109.838V103.439C101.597 102.285 101.973 101.167 102.672 100.243C101.98 99.3256 101.603 98.2075 101.603 97.059V90.6788V90.6849C101.597 89.5304 101.973 88.4063 102.672 87.4887C101.973 86.5712 101.603 85.447 101.603 84.2986V77.9183C101.603 74.9835 103.979 72.6075 106.914 72.6075H139.689C142.612 72.6075 144.988 74.9773 145 77.9V84.2802C145 85.4347 144.623 86.5527 143.93 87.4703C144.629 88.394 145 89.5181 145 90.6726V97.0528C145 98.2013 144.623 99.3253 143.93 100.243C144.623 101.16 145 102.285 145 103.439V109.819V109.813C145 110.968 144.623 112.092 143.93 113.009C144.629 113.933 145.006 115.057 145 116.212V122.592C145 123.746 144.623 124.864 143.93 125.782L143.931 125.8ZM125.423 62.3636V63.8766L125.417 63.8706C125.435 64.4417 125.216 65.0008 124.821 65.4079C124.42 65.8211 123.873 66.052 123.296 66.052C122.725 66.052 122.178 65.8211 121.777 65.4079C121.376 65.0008 121.163 64.4417 121.175 63.8706V62.3575C120.331 62.0476 119.565 61.5615 118.927 60.9296C117.76 59.7751 117.104 58.2074 117.104 56.5728C117.104 55.4001 118.052 54.4521 119.225 54.4521C120.398 54.4521 121.345 55.4001 121.345 56.5728C121.345 57.0832 121.546 57.5693 121.911 57.9339C122.682 58.6813 123.916 58.6813 124.688 57.9339C125.052 57.5693 125.253 57.0832 125.253 56.5728C125.253 55.1449 124.007 54.8592 122.773 54.5798C119.924 53.9236 117.098 53.2795 117.098 48.6311C117.098 48.6007 117.098 48.4974 117.11 48.3273L117.116 48.3212C117.268 45.8725 118.866 43.7518 121.175 42.9253V41.1875C121.163 40.6102 121.376 40.0573 121.777 39.6502C122.178 39.237 122.725 39.0061 123.296 39.0061C123.867 39.0061 124.42 39.237 124.815 39.6502C125.216 40.0573 125.435 40.6102 125.417 41.1875V43.0347C126.231 43.3446 126.978 43.8185 127.61 44.4201C128.759 45.5017 129.433 46.9903 129.488 48.5703C129.512 49.737 128.589 50.7031 127.422 50.7274C126.255 50.7578 125.289 49.8341 125.259 48.6675C125.228 48.2057 125.022 47.7743 124.675 47.4705C124.299 47.112 123.813 46.8871 123.296 46.8385H123.138H123.096H123.102C122.652 46.8446 122.221 47.0269 121.905 47.3429C121.57 47.6528 121.37 48.0781 121.34 48.5278V48.6128C121.34 49.8889 122.524 50.1684 123.715 50.4358C126.59 51.0981 129.494 51.7604 129.494 56.5608C129.494 58.1953 128.832 59.763 127.665 60.9175C127.027 61.5495 126.261 62.0356 125.417 62.3455L125.423 62.3636ZM133.51 42.6581C127.829 37.1104 118.763 37.1104 113.081 42.6581C110.395 45.2891 108.876 48.8985 108.876 52.6658C108.876 56.4332 110.396 60.0426 113.081 62.6736C118.763 68.2153 127.829 68.2153 133.51 62.6736C136.196 60.0426 137.715 56.4332 137.715 52.6658C137.715 48.8985 136.196 45.2891 133.51 42.6581ZM123.296 34.2545C118.368 34.2484 113.628 36.1808 110.116 39.6381C106.61 43.0712 104.635 47.7623 104.635 52.6658C104.635 57.5694 106.61 62.2665 110.116 65.6936C117.438 72.8698 129.153 72.8698 136.475 65.6936C139.981 62.2665 141.956 57.5694 141.956 52.6658C141.956 47.7623 139.981 43.0712 136.475 39.6381C132.963 36.1806 128.224 34.2485 123.296 34.2545ZM101.871 14.7616L108.969 12.6897C105.037 18.5108 100.206 23.6757 94.6708 27.9959C87.525 33.5497 79.3828 37.6939 70.6874 40.2034C63.9912 42.1661 57.0581 43.1748 50.0764 43.1991C43.1067 43.2234 36.1615 42.2633 29.4591 40.3493C28.3472 40.0638 27.2048 40.72 26.8889 41.8259C26.579 42.9318 27.1988 44.0863 28.2986 44.4266C35.3776 46.444 42.7117 47.4526 50.0763 47.4284C57.453 47.398 64.7871 46.3346 71.8602 44.2625C81.072 41.6011 89.6946 37.214 97.2654 31.3259C103.451 26.5073 108.798 20.6984 113.095 14.1356L115.507 21.3785L115.501 21.3846C115.671 21.9254 116.048 22.375 116.552 22.6363C117.057 22.8976 117.646 22.9401 118.187 22.7639C118.728 22.5877 119.171 22.1988 119.42 21.6884C119.669 21.178 119.706 20.5886 119.511 20.0538L115.708 8.60593C115.562 8.0226 115.179 7.53041 114.644 7.24482C114.116 6.96531 113.49 6.92278 112.925 7.12937L100.693 10.7084H100.699C100.146 10.8542 99.6842 11.2188 99.4047 11.711C99.1251 12.2092 99.0583 12.7926 99.2163 13.3395C99.3743 13.8803 99.7449 14.3421 100.249 14.6094C100.748 14.8768 101.331 14.9376 101.872 14.7674L101.871 14.7616Z" fill="#663366"/>
</svg>
