<svg width="150" height="150" viewBox="0 0 150 150" fill="none" xmlns="http://www.w3.org/2000/svg">
<path d="M6.98783 144.999H143.015C144.112 144.999 145 144.11 145 143.013V132.46C145 131.363 144.112 130.475 143.015 130.475H135.207V124.808C135.207 123.711 134.319 122.822 133.222 122.822H131.183V71.9276H133.222C134.319 71.9276 135.207 71.0392 135.207 69.9422V64.2752H143.015C144.112 64.2752 145 63.3868 145 62.2898V52.5106C145 52.4702 144.993 52.4365 144.987 52.3962C144.987 52.3558 144.98 52.3154 144.973 52.275C144.953 52.0798 144.906 51.8914 144.832 51.7231C144.832 51.7164 144.825 51.7097 144.818 51.7029C144.738 51.528 144.63 51.3664 144.509 51.2251C144.488 51.2049 144.475 51.178 144.455 51.1578C144.32 51.0164 144.165 50.8953 143.997 50.8011C143.984 50.7943 143.97 50.7809 143.957 50.7742L96.3391 24.902C95.5516 13.797 86.2907 5 74.9966 5C63.6964 5 54.4347 13.7966 53.6542 24.902L6.03647 50.781C6.02301 50.7878 6.01628 50.8012 5.99609 50.808C5.82783 50.9089 5.67303 51.0233 5.53843 51.1714C5.51824 51.1916 5.50478 51.2118 5.48459 51.232C5.35671 51.38 5.24903 51.5348 5.17499 51.7166C5.17499 51.7233 5.16826 51.73 5.16826 51.7368C5.09423 51.9117 5.04711 52.1002 5.02692 52.2886C5.02019 52.329 5.02019 52.3694 5.01346 52.4098C5.01346 52.4502 5 52.4838 5 52.5242V62.3034C5 63.4005 5.8884 64.2888 6.98538 64.2888H14.7925V69.9558C14.7925 71.0529 15.6809 71.9412 16.7779 71.9412H18.8172V122.836H16.7779C15.6808 122.836 14.7925 123.724 14.7925 124.821V130.488H6.98538C5.88833 130.488 5 131.377 5 132.474V143.027C5 144.124 5.8884 145.012 6.98538 145.012L6.98783 144.999ZM131.236 130.481H109.598V126.8H131.236V130.481ZM94.7852 130.481V98.6202C94.7852 87.7103 85.908 78.8336 74.9986 78.8336C64.0893 78.8336 55.212 87.7109 55.212 98.6202V130.481H44.3627V124.814C44.3627 123.717 43.4743 122.829 42.3773 122.829H40.338V71.9341H42.3773C43.4743 71.9341 44.3627 71.0457 44.3627 69.9488V64.2817H105.63V69.9488C105.63 71.0458 106.518 71.9341 107.615 71.9341H109.654V122.829H107.615C106.518 122.829 105.63 123.717 105.63 124.814V130.481H94.7804H94.7852ZM59.1818 130.481V98.6202C59.1818 90.5706 65.2323 83.9212 73.0193 82.9384V130.482L59.1818 130.481ZM76.9835 82.9377C84.7705 83.9203 90.821 90.57 90.821 98.6195V130.481H76.9835V82.9377ZM127.212 122.828H113.623V71.9331H127.212V122.828ZM131.236 67.9685H109.597V64.2871H131.236V67.9685ZM53.9386 30.2441C53.979 30.4797 54.0194 30.7152 54.0665 30.9508C54.1674 31.4085 54.2886 31.8594 54.4165 32.3036C54.477 32.5122 54.5241 32.7209 54.5914 32.9228C54.7462 33.4141 54.928 33.8852 55.1164 34.3631C55.177 34.5112 55.2241 34.666 55.2914 34.8208C55.8231 36.0592 56.4625 37.2369 57.2029 38.3408C57.3106 38.5023 57.4317 38.6504 57.5394 38.8052C57.8086 39.1821 58.0845 39.559 58.3739 39.9224C58.5422 40.1244 58.7172 40.3195 58.8922 40.5147C59.1546 40.8109 59.4104 41.107 59.6864 41.3897C59.8883 41.5983 60.1036 41.7935 60.319 41.9954C60.5815 42.2444 60.8507 42.4934 61.1267 42.729C61.3622 42.9309 61.6045 43.1194 61.8468 43.3078C62.116 43.5232 62.392 43.7318 62.6746 43.927C62.9371 44.1155 63.2063 44.2905 63.4755 44.4654C63.7582 44.6472 64.0409 44.8221 64.3303 44.9837C64.6197 45.1519 64.9091 45.3067 65.2052 45.4615C65.4946 45.6096 65.7908 45.7509 66.0869 45.8855C66.3965 46.0269 66.7061 46.1682 67.0224 46.2961C67.3186 46.4172 67.6214 46.5249 67.931 46.6259C68.2608 46.7403 68.5906 46.8614 68.9271 46.9557C69.23 47.0432 69.5396 47.1172 69.8492 47.1912C70.1991 47.2787 70.5424 47.3729 70.8991 47.4402C71.202 47.5008 71.5183 47.5345 71.8279 47.5816C72.1981 47.6354 72.5615 47.7027 72.9384 47.7364C73.2278 47.7633 73.5239 47.7633 73.8134 47.7835C74.2037 47.8037 74.5873 47.8441 74.9844 47.8441C75.3815 47.8441 75.7651 47.8037 76.1555 47.7835C76.4449 47.77 76.7411 47.7633 77.0305 47.7364C77.4074 47.7027 77.7708 47.6354 78.141 47.5816C78.4506 47.5345 78.7669 47.5008 79.0698 47.4402C79.4265 47.3729 79.7697 47.2787 80.1197 47.1912C80.4293 47.1172 80.7456 47.0432 81.0485 46.9489C81.385 46.848 81.708 46.7336 82.0378 46.6192C82.3474 46.5115 82.6503 46.4038 82.9532 46.2826C83.2695 46.1548 83.5791 46.0202 83.882 45.8788C84.1848 45.7375 84.481 45.6029 84.7771 45.4481C85.0665 45.3 85.3559 45.1385 85.6386 44.9769C85.9347 44.8087 86.2241 44.6337 86.5068 44.4452C86.776 44.277 87.0385 44.102 87.2942 43.9203C87.5837 43.7184 87.8596 43.503 88.1423 43.2876C88.3778 43.0992 88.6201 42.9175 88.849 42.7223C89.1316 42.48 89.4076 42.2242 89.6768 41.9685C89.8787 41.7733 90.0874 41.5848 90.2825 41.3829C90.5652 41.0935 90.8344 40.7839 91.1036 40.4811C91.2652 40.2926 91.4334 40.1176 91.595 39.9224C91.9046 39.5455 92.194 39.1485 92.4766 38.7446C92.5709 38.61 92.6785 38.4822 92.7728 38.3408C93.5198 37.2303 94.166 36.0458 94.6977 34.8006C94.7515 34.6727 94.7919 34.5381 94.8458 34.4103C95.0477 33.9189 95.2361 33.4142 95.3976 32.9027C95.4582 32.7142 95.5053 32.519 95.5592 32.3239C95.6938 31.8662 95.8149 31.4018 95.9226 30.9239C95.9697 30.7018 96.0034 30.473 96.0438 30.2509C96.0976 29.9481 96.1716 29.6519 96.212 29.3423L135.194 50.5228L14.7948 50.5363L53.777 29.3558C53.8174 29.6586 53.8848 29.948 53.9386 30.2441ZM74.9985 8.96887C84.6228 8.96887 92.4504 16.7963 92.4504 26.4208C92.4504 31.2331 90.4919 35.5943 87.3353 38.7576C84.1721 41.9141 79.8107 43.8728 74.9985 43.8728C65.401 43.8728 57.5878 36.0858 57.5465 26.4139C57.5532 16.7963 65.3807 8.97576 74.9985 8.97576V8.96887ZM8.96735 54.507H141.024V60.3153H8.96735V54.507ZM18.76 64.2795H40.3988V67.961H18.76V64.2795ZM22.7847 71.9319H36.3733V122.827H22.7847V71.9319ZM18.76 126.791H40.3988V130.473H18.76V126.791ZM8.96735 134.444H141.024V141.026L8.96735 141.033V134.444ZM79.5282 30.8225C79.5282 29.5101 78.6667 28.4064 77.6436 28.4064H72.3603C69.1297 28.4064 66.5049 25.5459 66.5049 22.0261C66.5049 18.506 69.1297 15.6457 72.3603 15.6457H73.0198V12.5228C73.0198 11.4258 73.9082 10.5375 75.0052 10.5375C76.1023 10.5375 76.9906 11.4259 76.9906 12.5228V15.6457H77.6502C80.874 15.6457 83.4988 18.5062 83.4988 22.0261C83.4988 23.1231 82.6104 24.0114 81.5134 24.0114C80.4164 24.0114 79.528 23.123 79.528 22.0261C79.528 20.7136 78.6665 19.6099 77.6434 19.6099H72.3601C71.3371 19.6099 70.4755 20.7137 70.4755 22.0261C70.4755 23.3385 71.337 24.4422 72.3601 24.4422H77.6434C80.8673 24.4422 83.4921 27.3027 83.4921 30.8225C83.4921 34.3424 80.8673 37.2028 77.6434 37.2028H76.9839V40.3257C76.9839 41.4228 76.0955 42.3111 74.9985 42.3111C73.9015 42.3111 73.0131 41.4227 73.0131 40.3257V37.2028H72.3535C69.123 37.2028 66.4982 34.3424 66.4982 30.8225C66.4982 29.7255 67.3866 28.8371 68.4836 28.8371C69.5806 28.8371 70.4689 29.7255 70.4689 30.8225C70.4689 32.1349 71.3304 33.2386 72.3535 33.2386H77.6368C78.6599 33.2386 79.5214 32.1349 79.5214 30.8225H79.5282Z" fill="#663366"/>
</svg>
