<svg width="150" height="150" viewBox="0 0 150 150" fill="none" xmlns="http://www.w3.org/2000/svg">
<path d="M36.0874 83.9282H28.1777C27.6696 83.9282 27.184 84.1314 26.8284 84.4871C26.4671 84.8484 26.2695 85.334 26.2695 85.8421V101.198C26.2695 102.248 27.1219 103.101 28.1777 103.101H36.0873C36.5898 103.101 37.0753 102.903 37.431 102.542C37.7923 102.186 37.99 101.701 37.99 101.198V85.8421C37.9956 85.334 37.7923 84.8484 37.4367 84.4871C37.0754 84.1314 36.5898 83.9282 36.0874 83.9282ZM34.1791 99.2845H30.0804V87.7446H34.1791V99.2845ZM52.0589 73.0205H43.8275C43.3194 73.0205 42.8339 73.2238 42.4782 73.5795C42.1169 73.9351 41.9193 74.4207 41.9193 74.9288V101.187C41.9193 101.695 42.1169 102.181 42.4782 102.536C42.8339 102.892 43.3194 103.095 43.8275 103.095H52.0589C52.5614 103.095 53.0469 102.892 53.4082 102.536C53.7639 102.181 53.9671 101.695 53.9671 101.187V74.9288C53.9671 74.4207 53.7639 73.9351 53.4082 73.5795C53.0469 73.2238 52.5613 73.0205 52.0589 73.0205ZM50.1507 99.2787H45.7301V76.8376H50.1507V99.2787ZM67.8266 78.9145H59.6743C59.1662 78.9145 58.6807 79.1121 58.325 79.4734C57.9693 79.829 57.7661 80.3146 57.7661 80.8227V101.226C57.7661 101.728 57.9693 102.214 58.325 102.575C58.6807 102.931 59.1662 103.129 59.6743 103.129H67.8266C68.3347 103.134 68.8203 102.931 69.1816 102.575C69.5373 102.214 69.7405 101.728 69.7405 101.226V80.8227C69.7405 80.3146 69.5373 79.829 69.1816 79.4734C68.8203 79.1121 68.3347 78.9145 67.8266 78.9145ZM65.924 99.3177H61.5825V82.73H65.924V99.3177ZM40.5461 41.1272H84.2042C84.7236 41.1103 85.2204 41.3079 85.5873 41.6635C85.96 42.0248 86.1688 42.516 86.1688 43.0298C86.1688 43.5492 85.96 44.0404 85.5873 44.4017C85.2204 44.7574 84.7235 44.955 84.2042 44.938H40.5461C40.0323 44.955 39.5299 44.7574 39.1629 44.4017C38.7959 44.0404 38.587 43.5492 38.587 43.0298C38.587 42.516 38.7959 42.0248 39.1629 41.6635C39.5299 41.3079 40.0323 41.1103 40.5461 41.1272ZM90.1487 43.0354C90.1487 42.5273 90.3463 42.0418 90.7019 41.6861C91.0633 41.3248 91.5488 41.1272 92.0512 41.1272H92.8868C93.9199 41.1554 94.7385 41.9966 94.7385 43.0298C94.7385 44.0629 93.9199 44.9098 92.8868 44.938H92.0512C91.5431 44.938 91.0576 44.7347 90.7019 44.3791C90.3463 44.0177 90.143 43.5322 90.1487 43.0241V43.0354ZM40.5461 36.4582H72.9467C73.9799 36.4864 74.8042 37.3332 74.8042 38.3664C74.8042 39.3995 73.98 40.2408 72.9467 40.269H40.5461C40.0323 40.2859 39.5299 40.094 39.1629 39.7326C38.7959 39.3713 38.587 38.8801 38.587 38.3664C38.587 37.847 38.7959 37.3558 39.1629 36.9945C39.5299 36.6388 40.0323 36.4412 40.5461 36.4582ZM90.1487 55.3655C90.1487 54.3154 91.0011 53.4573 92.0512 53.4573H92.8868C93.9199 53.4912 94.7385 54.3324 94.7385 55.3655C94.7385 56.3987 93.9199 57.2456 92.8868 57.2737H92.0512C91.5488 57.2737 91.0633 57.0705 90.7019 56.7148C90.3463 56.3591 90.1487 55.8736 90.1487 55.3655ZM86.1119 55.3655C86.1119 56.4213 85.2538 57.2737 84.2037 57.2737H40.5399C40.0261 57.285 39.5293 57.0931 39.1567 56.7318C38.7897 56.3761 38.5808 55.8793 38.5808 55.3655C38.5808 54.8517 38.7897 54.3606 39.1567 53.9993C39.5293 53.6379 40.0261 53.446 40.5399 53.4573H84.2037C84.7062 53.4573 85.1917 53.6605 85.553 54.0162C85.9087 54.3775 86.1119 54.8574 86.1119 55.3655ZM38.6369 50.7134C38.6369 50.2053 38.8401 49.7198 39.1958 49.3641C39.5515 49.0028 40.037 48.8052 40.5451 48.8052H72.9457C73.9789 48.8334 74.8032 49.6746 74.8032 50.7078C74.8032 51.7409 73.979 52.5878 72.9457 52.616H40.5451C39.495 52.616 38.6369 51.7635 38.6369 50.7134ZM86.1119 67.7072C86.1119 68.7629 85.2538 69.6154 84.2037 69.6154H40.5399C40.0261 69.6324 39.5293 69.4348 39.1567 69.0791C38.7897 68.7178 38.5808 68.2266 38.5808 67.7072C38.5808 67.1934 38.7897 66.7023 39.1567 66.3409C39.5293 65.9796 40.0261 65.7877 40.5399 65.8046H84.2037C84.7062 65.8046 85.1917 66.0022 85.553 66.3579C85.9087 66.7192 86.1119 67.2047 86.1119 67.7072ZM38.6369 63.0551C38.6369 62.547 38.8401 62.0614 39.1958 61.7058C39.5515 61.3501 40.037 61.1468 40.5451 61.1468H72.9457C73.9789 61.1751 74.8032 62.0219 74.8032 63.0551C74.8032 64.0882 73.979 64.9351 72.9457 64.9633H40.5451C40.037 64.9633 39.5515 64.76 39.1958 64.4044C38.8401 64.043 38.6369 63.5632 38.6369 63.0551ZM22.688 64.4383C23.0211 64.06 23.4954 63.8342 24.0035 63.8059C24.5059 63.7777 25.0028 63.9527 25.381 64.2915L26.0416 64.8786L29.1806 62.0615H29.175C29.5532 61.7227 30.05 61.5534 30.5581 61.5816C31.0663 61.6098 31.5348 61.8356 31.8736 62.2139C32.5793 63.0043 32.5116 64.2068 31.7212 64.9126L27.3062 68.8702C26.5836 69.5195 25.4883 69.5195 24.7657 68.8702L22.8349 67.1426V67.137C22.4566 66.8039 22.2252 66.3297 22.1969 65.8216C22.1743 65.3134 22.3493 64.8165 22.688 64.4383ZM22.688 52.5315C23.3881 51.7467 24.5962 51.679 25.381 52.3791L26.0416 52.9662L29.1806 50.149L29.175 50.1547C29.5532 49.799 30.0501 49.6127 30.5638 49.6296C31.0832 49.6522 31.5631 49.8837 31.9075 50.262C32.2519 50.6459 32.4269 51.154 32.393 51.6677C32.3592 52.1815 32.1164 52.6614 31.7212 52.9945L27.3063 56.9521V56.9465C26.5836 57.5957 25.4884 57.5957 24.7657 56.9465L22.8349 55.2189C22.0558 54.5132 21.9879 53.3163 22.688 52.5315ZM27.278 45.2543C29.1241 45.2543 30.784 44.1477 31.4897 42.4427C32.1955 40.7378 31.8059 38.7786 30.5017 37.4745C29.1976 36.1704 27.2386 35.7808 25.5335 36.4865C23.8285 37.1923 22.722 38.8521 22.722 40.6983C22.722 43.2163 24.7658 45.2543 27.2836 45.2543L27.278 45.2543ZM27.278 39.9529C27.5829 39.9529 27.8539 40.1336 27.9668 40.4102C28.0853 40.6925 28.0176 41.0143 27.803 41.2232C27.5942 41.4378 27.2723 41.4999 26.9957 41.3869C26.7134 41.2684 26.5328 40.9974 26.5328 40.6982C26.5384 40.286 26.8715 39.9529 27.2836 39.9529L27.278 39.9529ZM22.722 21.5644C22.722 20.5087 23.5745 19.6562 24.6246 19.6562H52.0794C52.5932 19.6449 53.0956 19.8369 53.4626 20.1982C53.8352 20.5539 54.0441 21.0507 54.0441 21.5644C54.0441 22.0782 53.8352 22.575 53.4626 22.9307C53.0956 23.292 52.5932 23.484 52.0794 23.4727H24.6246C24.1221 23.4727 23.6366 23.2694 23.2753 22.9138C22.9196 22.5524 22.722 22.0669 22.722 21.5644ZM22.722 30.1684C22.722 29.1127 23.5745 28.2602 24.6246 28.2602H41.3972C42.4304 28.2884 43.2489 29.1353 43.2489 30.1684C43.2489 31.2016 42.4303 32.0485 41.3972 32.0766H24.6246C24.1221 32.0766 23.6366 31.8734 23.2753 31.5177C22.9196 31.1564 22.722 30.6709 22.722 30.1684ZM47.1446 32.0766C46.1114 32.0484 45.2929 31.2016 45.2929 30.1684C45.2929 29.1353 46.1115 28.2884 47.1446 28.2602H52.079C52.5927 28.2489 53.0952 28.4409 53.4622 28.8022C53.8348 29.1579 54.0437 29.6547 54.0437 30.1684C54.0437 30.6822 53.8348 31.179 53.4622 31.5347C53.0952 31.896 52.5927 32.088 52.079 32.0767L47.1446 32.0766ZM140.829 97.7191V97.7135C137.34 91.5371 131.999 86.6084 125.558 83.6274C125.789 83.0459 125.908 82.4249 125.908 81.7927C125.947 79.8336 124.75 78.0665 122.916 77.3721C123.045 75.9889 122.735 74.6 122.035 73.4031C121.719 72.8555 121.312 72.3587 120.832 71.9353C122.966 67.2268 124.976 62.7837 123.119 59.2664C122.108 57.3525 120.115 56.0427 117.055 55.2749C116.886 54.1006 116.378 52.9998 115.593 52.1134C114.554 50.9108 113.115 50.1261 111.539 49.9229H109.818V30.8522C109.818 30.3441 109.62 29.8585 109.259 29.4972L86.3087 6.55892C85.9531 6.20325 85.4619 6 84.9538 6H20.7234C17.1948 6.00565 14.3381 8.86241 14.3324 12.391V15.4453H12.283C8.26333 15.4509 5.00564 18.7085 5 22.7283V122.652C5.00565 126.671 8.26319 129.929 12.283 129.935H63.2629V131.007V131.069V131.064C61.1515 131.103 59.4634 132.825 59.4577 134.931V140.729C59.4634 142.869 61.1909 144.597 63.3307 144.602H95.4596H95.454C96.8146 144.597 98.0736 143.88 98.768 142.717C98.9769 142.733 99.1802 142.756 99.3891 142.773C101.619 142.931 104.758 143.01 107.903 143.01C111.047 143.01 114.192 142.931 116.422 142.773C134.686 141.469 142.979 129.297 144.656 118.333C145.7 111.225 144.351 103.97 140.828 97.7087L140.829 97.7191ZM121.599 80.9566C121.797 80.9566 122.096 81.2896 122.096 81.7865C122.096 82.2889 121.797 82.622 121.599 82.622H94.2179C94.0203 82.622 93.7211 82.2889 93.7211 81.7865C93.7211 81.284 94.0203 80.9566 94.2179 80.9566H95.3809C96.0527 80.9509 96.6794 80.5896 97.0181 80.0081C97.3569 79.4209 97.3625 78.7039 97.0351 78.1111C96.5608 77.236 96.5721 76.1804 97.0689 75.3165C97.3512 74.7632 97.9101 74.3963 98.5368 74.3624H117.275C117.902 74.3963 118.461 74.7632 118.743 75.3165C119.24 76.1803 119.251 77.236 118.777 78.1111C118.449 78.7039 118.455 79.4209 118.794 80.0081C119.132 80.5896 119.759 80.9509 120.437 80.9566H121.599ZM98.4685 70.3935C96.724 66.5487 95.0754 62.9129 96.0577 61.0385H96.0634C96.7578 60.0561 97.8022 59.3787 98.9878 59.1528L100.461 70.5458H98.5418L98.4685 70.3935ZM119.748 61.0385C120.736 62.9129 119.087 66.543 117.337 70.3935L117.269 70.5459H115.355L116.829 59.1529L116.823 59.1473C118.009 59.3788 119.059 60.0562 119.753 61.0386L119.748 61.0385ZM113.283 56.7535L111.505 70.5459H104.306L102.528 56.7535C102.291 55.4042 103.121 54.0944 104.442 53.7331H111.369C112.696 54.0888 113.526 55.4042 113.289 56.7535H113.283ZM86.8675 12.5086L103.308 28.9489H89.4477C88.025 28.9489 86.8733 27.7915 86.8675 26.3687V12.5086ZM18.1481 12.3901C18.1481 10.9674 19.2998 9.80994 20.7224 9.80994H83.0508V26.3687C83.0564 29.8972 85.9132 32.7596 89.4418 32.7596H106.001V49.9225H104.273C102.698 50.1314 101.253 50.9105 100.219 52.113C99.4346 53.005 98.9265 54.1003 98.7571 55.2746C95.6971 56.0424 93.7042 57.3579 92.6937 59.2661C90.8362 62.7834 92.8461 67.2265 94.9801 71.935V71.9406C94.5003 72.3584 94.0938 72.8552 93.772 73.4085C93.0775 74.6053 92.767 75.9942 92.8969 77.3718C91.0677 78.0662 89.8765 79.8332 89.9103 81.7867C89.9103 82.4134 90.0289 83.0344 90.2603 83.6159C88.2956 84.5474 86.4214 85.654 84.6598 86.9187V74.9272C84.6598 73.8714 83.8073 73.0189 82.7572 73.0189H74.5258C74.0177 73.0189 73.5322 73.2222 73.1765 73.5779C72.8152 73.9336 72.6176 74.4191 72.6176 74.9272V101.185C72.6176 101.541 72.7192 101.885 72.9055 102.19C72.5724 103.077 72.2732 103.974 72.0192 104.889H25.352C24.8382 104.872 24.3414 105.064 23.9688 105.425C23.6018 105.787 23.393 106.278 23.393 106.791C23.393 107.311 23.6018 107.802 23.9688 108.163C24.3414 108.519 24.8382 108.717 25.352 108.7H71.1838C71.0313 109.665 70.9354 110.636 70.8733 111.613H57.8431C55.7089 111.613 53.9757 113.346 53.9701 115.48V116.784H20.7225C19.2998 116.784 18.1482 115.633 18.1482 114.21L18.1481 12.3901ZM99.2537 121.335H95.1776C94.6469 120.522 94.2009 119.653 93.8339 118.749V115.48C93.8339 114.481 93.45 113.521 92.7499 112.804C92.8798 106.261 97.1987 100.536 103.46 98.6167C109.721 96.6972 116.507 99.0119 120.285 104.358C124.062 109.711 123.977 116.881 120.076 122.137C116.175 127.393 109.338 129.555 103.127 127.489V125.208C103.121 123.074 101.388 121.341 99.2537 121.335ZM99.3102 131.006C99.3045 131.034 99.282 131.057 99.2537 131.063H67.1291C67.0953 131.057 67.0727 131.034 67.067 131.006V125.208C67.0727 125.18 67.0953 125.152 67.1291 125.152H99.2537C99.282 125.152 99.3102 125.18 99.3102 125.208V131.006ZM89.9666 115.424C89.9949 115.43 90.0175 115.453 90.0231 115.481V119.303L89.9779 119.32C89.9949 119.359 90.0118 119.405 90.0231 119.45V121.284V121.279C90.0175 121.313 89.9949 121.335 89.9666 121.335H57.842C57.8138 121.335 57.7856 121.313 57.7856 121.279V115.481C57.7856 115.453 57.8138 115.43 57.842 115.424L89.9666 115.424ZM80.8488 90.1086C79.2003 91.712 77.7154 93.4733 76.4339 95.3816V76.8355H80.8545L80.8488 90.1086ZM12.2826 126.122C10.3743 126.117 8.82744 124.57 8.8218 122.656V22.7268C8.82745 20.8186 10.3743 19.2717 12.2826 19.2661H14.332V114.209C14.3376 117.738 17.1944 120.594 20.7229 120.6H53.9705V121.283V121.277C53.9705 123.417 55.7037 125.15 57.8435 125.15H63.2633V125.207V126.121L12.2826 126.122ZM95.5114 140.727V140.722C95.5057 140.755 95.4831 140.778 95.4549 140.778H63.326C63.2978 140.778 63.2752 140.755 63.2695 140.722V134.923V134.929C63.2752 134.895 63.2978 134.873 63.326 134.867H95.4549C95.4831 134.873 95.5057 134.895 95.5114 134.929V140.727ZM140.891 117.754C139.44 127.256 132.18 137.819 116.157 138.965H116.152C110.658 139.265 105.16 139.265 99.6667 138.965C99.5538 138.96 99.4409 138.948 99.328 138.937L99.3223 134.929V134.867V134.872C101.259 134.833 102.868 133.376 103.094 131.457C110.817 133.483 118.986 130.463 123.526 123.891C128.071 117.325 128.014 108.62 123.39 102.111C118.767 95.6013 110.563 92.6825 102.869 94.8052C95.1679 96.9337 89.6294 103.646 88.9971 111.607H74.7079C75.1708 106.068 77.1806 100.767 80.4947 96.3069C83.8144 91.8468 88.3082 88.4028 93.4798 86.3592C93.7282 86.41 93.971 86.4326 94.2194 86.4326H121.601C121.849 86.4326 122.092 86.41 122.334 86.3592C128.505 88.7472 133.694 93.1453 137.059 98.8418C140.424 104.533 141.773 111.2 140.892 117.755L140.891 117.754ZM102.59 117.094C102.59 116.038 103.443 115.185 104.493 115.185C105.549 115.185 106.401 116.038 106.401 117.094C106.401 117.924 107.079 118.595 107.909 118.595C108.739 118.595 109.416 117.924 109.416 117.094V116.512C109.416 115.547 109.343 115.406 107.457 114.954C105.752 114.542 102.585 113.78 102.585 109.687V109.105C102.585 106.903 103.94 104.927 105.995 104.137V103.002C105.984 102.488 106.175 101.986 106.537 101.619C106.892 101.246 107.389 101.043 107.903 101.043C108.417 101.043 108.914 101.246 109.269 101.619C109.631 101.986 109.823 102.488 109.811 103.002V104.137C111.866 104.927 113.221 106.903 113.221 109.105C113.238 109.619 113.041 110.116 112.685 110.488C112.324 110.855 111.833 111.064 111.319 111.064C110.799 111.064 110.308 110.855 109.947 110.488C109.591 110.116 109.394 109.619 109.411 109.105C109.411 108.27 108.733 107.598 107.903 107.598C107.073 107.598 106.401 108.269 106.401 109.105V109.687C106.401 110.652 106.475 110.793 108.36 111.245C110.065 111.657 113.233 112.419 113.233 116.512V117.094H113.227C113.227 119.295 111.872 121.271 109.817 122.062V123.197V123.191C109.828 123.71 109.636 124.207 109.275 124.574C108.919 124.947 108.422 125.156 107.909 125.156C107.395 125.156 106.904 124.947 106.542 124.574C106.181 124.207 105.989 123.71 106 123.191V122.056V122.062C103.945 121.271 102.59 119.295 102.59 117.094Z" fill="#663366"/>
</svg>
