<svg width="150" height="150" viewBox="0 0 150 150" fill="none" xmlns="http://www.w3.org/2000/svg">
<path d="M137.91 78.7393C137.842 78.7325 137.773 78.7325 137.705 78.7325H131.245L131.252 33.5264C131.252 33.0068 131.047 32.5147 130.684 32.1523C130.315 31.7832 129.823 31.5781 129.304 31.5781H112.268V17.2295H115.112C115.625 17.2295 116.124 17.0244 116.486 16.6621C116.855 16.2998 117.06 15.8008 117.06 15.2881V6.94145C117.053 5.86821 116.185 5 115.112 5H78.054C76.9807 5 76.1125 5.86816 76.1057 6.94145V15.2881C76.1057 16.3613 76.9807 17.2295 78.054 17.2295H80.8977V29.3429L56.3907 15.1925C55.7891 14.8439 55.044 14.8439 54.4424 15.1925C53.8408 15.5412 53.4717 16.1769 53.4717 16.8742V46.4737H38.5214V38.0519C38.5282 37.2589 38.0497 36.5479 37.3251 36.2473C36.5937 35.9465 35.7528 36.1105 35.1992 36.6711L20.748 51.1291C20.3857 51.4914 20.1807 51.9904 20.1807 52.5031V78.7322H12.9482C12.4287 78.7322 11.9365 78.9372 11.5674 79.2995C11.2051 79.6618 11 80.1609 11 80.6736V89.2664C11 90.2372 11.7178 91.0574 12.6816 91.1942L26.7433 93.1289C27.9122 97.7295 29.7442 102.139 32.1643 106.22L23.592 117.533C23.0041 118.312 23.0793 119.399 23.7629 120.083L35.9104 132.237H35.9172C36.6008 132.921 37.6945 132.996 38.467 132.408L49.7804 123.836C53.8614 126.263 58.2707 128.088 62.8713 129.264L64.8059 143.318C64.9427 144.282 65.763 145 66.7338 145H83.9193C84.89 145 85.7103 144.282 85.8471 143.318L87.7817 129.257V129.264C92.3823 128.088 96.7915 126.263 100.873 123.836L112.186 132.408C112.959 132.996 114.045 132.921 114.736 132.237L126.89 120.083C127.574 119.399 127.649 118.312 127.061 117.533L118.489 106.22C120.909 102.139 122.741 97.7293 123.91 93.1287L137.978 91.1941C138.942 91.0574 139.653 90.237 139.66 89.2663V80.6734C139.66 79.6754 138.901 78.8418 137.91 78.7393ZM112.269 78.7256V67.7608H127.363V78.7324L112.269 78.7256ZM112.269 57.0081H127.363V63.8646L112.269 63.8714V57.0081ZM127.363 53.1252H112.269V46.2687H127.363V53.1252ZM127.363 35.4606V42.3786H112.269V35.4675L127.363 35.4606ZM79.9971 8.8886H113.165V13.3457L79.9971 13.3388V8.8886ZM108.38 17.2284V78.7323H84.7904V17.2284H108.38ZM80.9071 60.1927L57.3713 46.6029L57.3645 36.014L80.9003 49.6038L80.9071 60.1927ZM57.3713 51.0941L80.9071 64.684V78.7317H57.3643L57.3713 51.0941ZM98.9619 82.6222C97.957 94.9268 87.6758 104.401 75.3299 104.401C62.984 104.401 52.7023 94.9263 51.6978 82.6222H98.9619ZM80.9019 33.8338V45.1131L57.3661 31.5233V20.244L80.9019 33.8338ZM53.4758 50.3632V78.7324H38.5256V50.3632H53.4758ZM24.074 53.3163L34.6425 42.7478V78.7314H24.074V53.3163ZM122.074 89.4643V89.4575C121.274 89.5669 120.625 90.1616 120.447 90.9546C119.292 96.0404 117.282 100.894 114.5 105.303C114.063 105.987 114.104 106.869 114.596 107.518L122.949 118.544L113.194 128.299L102.168 119.946V119.939C101.519 119.454 100.644 119.413 99.9531 119.85C95.544 122.632 90.6903 124.642 85.6045 125.797C84.8184 125.975 84.2236 126.624 84.1074 127.431L82.2207 141.123H68.4326L66.546 127.431C66.4366 126.624 65.8419 125.975 65.0489 125.797C59.963 124.642 55.1094 122.632 50.7003 119.85C50.0167 119.419 49.1348 119.454 48.4855 119.946L37.459 128.299L27.7042 118.544L36.0576 107.518H36.0645C36.5498 106.875 36.5908 105.994 36.1602 105.31C33.371 100.894 31.3613 96.0473 30.2061 90.9546C30.0284 90.1684 29.379 89.5737 28.5792 89.4643L14.8868 87.5777V82.6285H47.7886L47.7818 82.6216C48.4449 92.0006 53.8315 100.402 62.0826 104.906C70.3335 109.418 80.3142 109.418 88.5654 104.906C96.8163 100.401 102.203 91.9999 102.866 82.6216H135.768V87.5708L122.074 89.4643ZM91.2094 37.4158H101.962C103.036 37.4158 103.904 36.5407 103.904 35.4675V24.7146C103.904 23.6413 103.036 22.7731 101.962 22.7731H91.2094C90.6899 22.7731 90.1977 22.9782 89.8354 23.3405C89.4662 23.7028 89.2612 24.2018 89.268 24.7145V35.4674C89.2612 35.987 89.4662 36.4791 89.8354 36.8415C90.1977 37.2106 90.6899 37.4158 91.2094 37.4158ZM93.1508 26.6629H100.014L100.021 33.5262H93.1509L93.1508 26.6629ZM91.2094 61.0889H101.962C103.036 61.0889 103.904 60.2139 103.904 59.1406V48.3877C103.904 47.3145 103.036 46.4463 101.962 46.4463H91.2094C90.6899 46.4463 90.1977 46.6445 89.8354 47.0137C89.4662 47.376 89.2612 47.875 89.268 48.3877V59.1406C89.2612 59.6601 89.4662 60.1523 89.8354 60.5146C90.1977 60.8838 90.6899 61.0889 91.2094 61.0889ZM93.1508 50.3224H100.014V57.1857L93.1508 57.1925V50.3224Z" fill="#663366"/>
</svg>
