<svg width="150" height="150" viewBox="0 0 150 150" fill="none" xmlns="http://www.w3.org/2000/svg">
<path fill-rule="evenodd" clip-rule="evenodd" d="M82.7341 52.6618L82.722 50.4015C82.8131 47.4544 80.9902 44.7807 78.2133 43.7903C77.1621 43.3893 76.0441 43.1887 74.9138 43.1887C73.7958 43.1887 72.6838 43.3893 71.6386 43.7903C68.886 44.799 67.1116 47.4666 67.2332 50.3954V52.6497C72.064 50.0126 77.9096 50.0125 82.7341 52.6618ZM72.8538 71.201H60.4641C60.4094 71.8634 60.379 72.5318 60.379 73.2063V73.2124C60.3061 77.946 61.8677 82.564 64.7965 86.2888C66.8018 88.8651 69.6576 90.6334 72.8538 91.2958L72.8538 71.201ZM89.4843 71.201H77.0946V91.2958C80.2908 90.6335 83.1467 88.8652 85.152 86.2888C88.0808 82.564 89.6363 77.9397 89.5694 73.2001C89.5694 72.5195 89.5391 71.8511 89.4844 71.1948L89.4843 71.201ZM61.254 66.9536H88.6894C87.9785 64.4561 86.7753 62.1349 85.153 60.1116C82.7894 56.8485 79.0037 54.9163 74.9689 54.9163C70.9403 54.9163 67.1547 56.8486 64.7909 60.1116C64.2197 60.8165 63.6971 61.5638 63.2353 62.3477C63.1563 62.5725 63.0348 62.7791 62.8889 62.9675C62.2023 64.2375 61.6551 65.5743 61.254 66.9536ZM79.4961 39.7437L85.1289 33.7767C85.9371 32.9868 87.2254 32.9746 88.0517 33.7463C88.8781 34.5241 88.9449 35.8123 88.2097 36.6691L83.2574 41.913C85.6879 44.0458 87.0369 47.1509 86.9518 50.3775L86.9761 55.8219C87.4926 56.3323 87.9787 56.8671 88.4345 57.426C89.1272 58.2767 89.7591 59.176 90.3181 60.1179L95.3979 63.3687L100.302 57.2801H100.295C100.636 56.8122 101.152 56.5084 101.73 56.4355C102.301 56.3565 102.878 56.5205 103.328 56.8791C103.777 57.2436 104.063 57.7723 104.111 58.3435C104.16 58.9207 103.978 59.4919 103.595 59.9233L97.5428 67.4398C96.8805 68.3269 95.6408 68.5457 94.7112 67.9502L93.0645 66.899C93.2043 67.4702 93.3258 68.0474 93.423 68.6308C93.4352 68.6794 93.4413 68.728 93.4473 68.7766C93.5506 69.4329 93.6357 70.0952 93.7025 70.7635L95.7078 69.4814C96.6436 68.8859 97.8771 69.1047 98.5455 69.9918L104.598 77.5083H104.591C105.266 78.4198 105.096 79.6957 104.209 80.4068C103.328 81.1177 102.046 81.0023 101.298 80.1516L96.4005 74.063L93.6904 75.8008L93.6843 75.7948C93.5385 77.3078 93.2651 78.8026 92.864 80.267L94.3467 79.3555H94.3406C95.246 78.7904 96.431 78.9909 97.0992 79.8174L103.188 87.3886C103.862 88.3 103.692 89.5822 102.805 90.2931C101.924 90.998 100.642 90.8886 99.8944 90.0318L94.9725 83.9189L89.7772 87.1576C89.364 87.7896 88.9144 88.3911 88.4404 88.9745C85.2745 93.2281 80.2798 95.7316 74.9812 95.7316C69.6764 95.7316 64.6877 93.2281 61.522 88.9745C61.0602 88.4155 60.6288 87.8261 60.2156 87.2063L55.0507 83.9555L50.141 90.0563V90.0623C49.7946 90.5242 49.2781 90.834 48.7069 90.907C48.1358 90.9799 47.5585 90.8219 47.1089 90.4634C46.6593 90.0988 46.3737 89.5701 46.3251 88.9929C46.2764 88.4217 46.4587 87.8505 46.8415 87.4131L52.9362 79.8418V79.8479C53.6046 79.0094 54.8017 78.8088 55.707 79.38L57.0681 80.2368H57.0742C56.6732 78.7785 56.3997 77.2837 56.26 75.7767L53.6046 74.0752L48.7131 80.1699C47.9657 81.0206 46.6775 81.13 45.7965 80.4251C44.9093 79.7142 44.7452 78.4382 45.4137 77.5206L51.4657 70.0041H51.4597C52.1281 69.123 53.3616 68.8982 54.2973 69.4997L56.2539 70.7515C56.3147 70.0892 56.3997 69.439 56.503 68.801C56.503 68.7524 56.5213 68.6977 56.5273 68.643C56.6246 68.0657 56.7461 67.5006 56.8798 66.9415L55.2878 67.9624C54.352 68.5639 53.1186 68.3391 52.4501 67.4519L46.3981 59.9354L46.4042 59.9415C45.7357 59.024 45.8998 57.7479 46.787 57.037C47.6681 56.326 48.9562 56.4415 49.6976 57.2922L54.6012 63.3808L59.602 60.1603C60.1671 59.2002 60.8051 58.2888 61.5101 57.426C61.9719 56.8609 62.464 56.32 62.9866 55.8035V50.3954C62.8772 47.1507 64.2262 44.0335 66.6629 41.8946L61.7409 36.6688C60.9389 35.8181 60.9814 34.4752 61.8321 33.6792C62.6828 32.8771 64.0195 32.9197 64.8217 33.7704L70.4364 39.7191C73.3712 38.6983 76.5675 38.7044 79.4963 39.7374L79.4961 39.7437ZM132.427 16.6591C127.353 11.5793 119.393 10.7954 113.426 14.7816C107.453 18.7738 105.132 26.4179 107.878 33.0532C110.625 39.6885 117.68 43.456 124.716 42.0585C131.758 40.6549 136.832 34.4751 136.832 27.2989C136.838 23.3067 135.253 19.4786 132.427 16.6591ZM112.673 30.3979C111.786 29.6748 111.634 28.3744 112.339 27.469C113.038 26.5576 114.332 26.3753 115.262 27.0498L118.926 29.8692L128.101 20.4204C128.915 19.5819 130.258 19.5637 131.097 20.384C131.935 21.1982 131.954 22.5411 131.133 23.3736L120.651 34.1714V34.1775C119.904 34.9431 118.695 35.0342 117.844 34.3719L112.673 30.3979ZM140.759 126.581H99.4695C98.8375 128.04 97.8592 129.322 96.6136 130.312C94.9122 131.673 92.8038 132.415 90.6283 132.415H59.3708C57.1955 132.415 55.087 131.673 53.3855 130.312C52.1398 129.322 51.1615 128.04 50.5296 126.581H9.24034V137.312H140.758L140.759 126.581ZM103.072 31.9534C104.585 38.0116 108.93 42.9638 114.739 45.2547V63.1312C113.068 74.7494 108.553 85.7787 101.602 95.2334C94.9358 103.959 86.0825 110.765 75.9349 114.958C65.3377 110.583 56.0222 103.601 48.8464 94.6687C41.6761 85.4995 36.9913 74.6346 35.2595 63.1266V35.2353L74.9994 24.0669L103.072 31.9534ZM118.981 53.75H132.507C133.777 53.756 134.81 54.789 134.816 56.059V122.329H97.9508C96.9603 122.329 96.1036 123.01 95.8849 123.97C95.6114 125.167 94.9369 126.236 93.9768 127.002C93.0289 127.761 91.844 128.175 90.6288 128.175H59.3713C58.156 128.175 56.9711 127.761 56.0233 127.002C55.0936 126.267 54.4313 125.246 54.1396 124.097C53.9695 123.083 53.0823 122.335 52.0493 122.335H15.184V56.0651C15.1901 54.7951 16.217 53.7621 17.4931 53.756H31.0131V63.2656H31.0192C31.0192 63.375 31.0252 63.4844 31.0435 63.5938C32.8664 75.8986 37.8551 87.5168 45.5236 97.3122C53.3499 107.034 63.5525 114.576 75.1461 119.199C75.6566 119.412 76.2277 119.412 76.7381 119.199C87.9187 114.751 97.6838 107.35 104.987 97.785C112.364 87.7711 117.146 76.0865 118.92 63.7758C118.963 63.6056 118.981 63.4294 118.981 63.2593L118.981 53.75ZM118.981 46.3853V49.5086H132.507C136.122 49.5146 139.051 52.4434 139.057 56.0589V122.329H142.879C143.444 122.329 143.985 122.554 144.38 122.955C144.781 123.35 145 123.891 145 124.456V139.428C145 140.601 144.052 141.549 142.879 141.549H7.1207C5.94794 141.549 5 140.601 5 139.428V124.456C5 123.891 5.22483 123.356 5.6198 122.955C6.02084 122.56 6.56165 122.335 7.12067 122.335H10.9427V56.0649C10.9488 52.4495 13.8776 49.5207 17.493 49.5146H31.013L31.0191 33.6308C31.0191 32.6282 31.7179 31.7653 32.6961 31.5527L74.4226 19.8312H74.4286C74.8054 19.7219 75.2125 19.7219 75.5953 19.8312L102.508 27.3903V27.287L102.502 27.2931C102.502 19.491 107.205 12.4544 114.412 9.47102C121.618 6.48139 129.919 8.1342 135.43 13.6516C140.948 19.169 142.601 27.4633 139.611 34.6704C136.627 41.883 129.597 46.5801 121.795 46.5801C120.853 46.5801 119.912 46.5132 118.982 46.3795L118.981 46.3853Z" fill="#663366"/>
</svg>
