<svg width="150" height="150" viewBox="0 0 150 150" fill="none" xmlns="http://www.w3.org/2000/svg">
<path d="M128.331 72.4825C128.331 72.4825 121.517 72.5681 121.194 72.4606C120.871 72.353 121.711 71.7845 126.179 65.4008C127.014 64.2086 127.473 63.2029 127.668 62.3601L127.737 61.8183C127.737 59.839 126.133 58.2344 124.154 58.2344C122.412 58.2344 120.96 59.4767 120.637 61.1237" stroke="#663366" stroke-width="4" stroke-miterlimit="10" stroke-linecap="round" stroke-linejoin="round"/>
<path d="M21.5723 61.7643C21.8958 60.1174 23.3473 58.875 25.0891 58.875C27.0684 58.875 28.673 60.4796 28.673 62.4589C28.673 64.4383 27.0684 66.0429 25.0891 66.0429" stroke="#663366" stroke-width="4" stroke-miterlimit="10" stroke-linecap="round" stroke-linejoin="round"/>
<path d="M25.0881 66.0469C27.0675 66.0469 28.6721 67.6515 28.6721 69.6308C28.6721 71.6102 27.0675 73.2148 25.0881 73.2148C23.2784 73.2148 21.7819 71.8734 21.5386 70.1308C21.5159 69.9674 21.5039 69.8004 21.5039 69.6308" stroke="#663366" stroke-width="4" stroke-miterlimit="10" stroke-linecap="round" stroke-linejoin="round"/>
<path d="M75 67.8828V102.932" stroke="#663366" stroke-width="4" stroke-miterlimit="10" stroke-linecap="round" stroke-linejoin="round"/>
<path d="M74.9995 67.0302C86.3296 67.0302 95.5146 57.8453 95.5146 46.5151C95.5146 35.1849 86.3296 26 74.9995 26C63.6693 26 54.4844 35.1849 54.4844 46.5151C54.4844 57.8453 63.6693 67.0302 74.9995 67.0302Z" stroke="#663366" stroke-width="4" stroke-miterlimit="10" stroke-linecap="round" stroke-linejoin="round"/>
<path d="M74.9995 103.5C63.6694 103.5 54.4844 112.685 54.4844 124.015H95.5146C95.5146 112.685 86.3295 103.5 74.9995 103.5Z" stroke="#663366" stroke-width="4" stroke-miterlimit="10" stroke-linecap="round" stroke-linejoin="round"/>
<path d="M124.484 87.168V102.933" stroke="#663366" stroke-width="4" stroke-miterlimit="10" stroke-linecap="round" stroke-linejoin="round"/>
<path d="M124.486 86.5614C135.816 86.5614 145.001 77.3765 145.001 66.0464C145.001 54.7162 135.816 45.5312 124.486 45.5312C113.156 45.5312 103.971 54.7162 103.971 66.0464C103.971 77.3765 113.156 86.5614 124.486 86.5614Z" stroke="#663366" stroke-width="4" stroke-miterlimit="10" stroke-linecap="round" stroke-linejoin="round"/>
<path d="M124.486 103.504C113.156 103.504 103.971 112.689 103.971 124.019H145.001C145.001 112.689 135.816 103.504 124.486 103.504Z" stroke="#663366" stroke-width="4" stroke-miterlimit="10" stroke-linecap="round" stroke-linejoin="round"/>
<path d="M25.5156 87.168V102.933" stroke="#663366" stroke-width="4" stroke-miterlimit="10" stroke-linecap="round" stroke-linejoin="round"/>
<path d="M25.5151 86.5614C36.8453 86.5614 46.0302 77.3765 46.0302 66.0464C46.0302 54.7162 36.8453 45.5312 25.5151 45.5312C14.1849 45.5312 5 54.7162 5 66.0464C5 77.3765 14.1849 86.5614 25.5151 86.5614Z" stroke="#663366" stroke-width="4" stroke-miterlimit="10" stroke-linecap="round" stroke-linejoin="round"/>
<path d="M25.5151 103.504C14.1848 103.504 5 112.689 5 124.019H46.0302C46.0302 112.689 36.8451 103.504 25.5151 103.504Z" stroke="#663366" stroke-width="4" stroke-miterlimit="10" stroke-linecap="round" stroke-linejoin="round"/>
<path d="M7.3457 124.016H142.653" stroke="#663366" stroke-width="4" stroke-miterlimit="10" stroke-linecap="round" stroke-linejoin="round"/>
<path d="M72.1582 40.5586H75.152V54.5651" stroke="#663366" stroke-width="4" stroke-miterlimit="10" stroke-linecap="round" stroke-linejoin="round"/>
</svg>
