<svg width="150" height="150" viewBox="0 0 150 150" fill="none" xmlns="http://www.w3.org/2000/svg">
<path d="M141.902 133.733C141.902 138.149 138.369 141.682 133.953 141.682H16.2613C11.8451 141.682 8.31215 138.149 8.31215 133.733V121.367H5V133.733C5 139.915 10.0786 144.994 16.2613 144.994H133.732C139.915 144.994 144.993 139.915 144.993 133.733V36.3555H141.681V133.733H141.902Z" fill="#663366"/>
<path d="M133.732 5H16.2613C10.0786 5 5 10.0786 5 16.2613V113.638H8.31215V16.2613C8.31215 11.8451 11.8451 8.31215 16.2613 8.31215H133.732C138.148 8.31215 141.681 11.8451 141.681 16.2613V28.6266H144.993V16.2613C145.214 10.0786 139.915 5 133.732 5Z" fill="#663366"/>
<path d="M48.5011 73.2283C46.9555 72.3451 45.4098 71.2411 44.0849 70.137L43.4225 69.6954H42.7601C42.7601 69.6954 42.7601 69.6954 42.5393 69.6954C42.5393 69.6954 42.5393 69.6954 42.3185 69.6954H41.656L41.2144 70.137C34.8109 75.8781 27.3034 76.7613 23.3288 76.7613C21.3415 76.7613 20.0167 76.5405 19.7959 76.5405L17.8086 76.0989V99.0631V102.375V108.116C17.8086 121.586 37.6815 129.976 41.4352 131.522L41.8768 131.743H42.0977H42.3185H42.7601H42.9809C44.0849 131.301 46.293 130.418 48.9428 128.872C50.0468 130.639 52.0341 131.743 54.2422 131.743H110.769V128.431H54.9046C54.0214 128.431 53.1381 127.989 52.4757 127.106C57.5543 124.235 63.2954 119.598 65.9451 114.078H123.356V29.0664H57.1127V76.0989C55.3462 75.8781 53.5798 75.2156 51.8133 74.5532V37.678H48.5011V73.2283ZM61.9705 79.8526H63.9578V99.0631H44.3058V74.5532C45.8514 75.6572 47.6179 76.5405 49.3844 77.4237C52.2549 78.7486 55.3462 79.411 58.4376 79.8526H61.9705ZM21.3415 79.8526H23.3288C27.0826 79.8526 34.1485 79.1902 40.7728 74.3324V98.8423H21.3415V79.8526ZM21.3415 108.116V102.154H40.9936V127.548C33.0445 124.235 21.3415 116.728 21.3415 108.116ZM63.9578 108.116C63.9578 109.441 63.737 110.545 63.2954 111.87C61.0873 117.611 54.6838 122.248 49.6052 125.119C47.6179 126.223 45.8514 127.106 44.5266 127.768V102.375H63.9578V108.116ZM120.043 32.3786V110.766H67.0491C67.27 109.883 67.27 109 67.27 108.116V98.8423V75.8781L65.2827 76.3197C65.2827 76.3197 63.9578 76.5405 61.9705 76.5405C61.5289 76.5405 60.8665 76.5405 60.4249 76.5405V32.3786H120.043Z" fill="#663366"/>
<path d="M125.561 128.428H119.82V131.74H125.561C129.094 131.74 131.964 128.87 131.964 125.337V24.4269C131.964 20.894 129.094 18.0234 125.561 18.0234H54.9015C51.3686 18.0234 48.498 20.894 48.498 24.4269V29.5055H51.8102V24.4269C51.8102 22.6604 53.135 21.3356 54.9015 21.3356H125.561C127.327 21.3356 128.652 22.6604 128.652 24.4269V125.337C128.652 127.103 127.106 128.428 125.561 128.428Z" fill="#663366"/>
<path d="M81.6191 23.5469H98.6215V26.859H81.6191V23.5469Z" fill="#663366"/>
<path d="M84.0527 121.362C84.0527 124.675 86.7025 127.545 90.2354 127.545C93.7684 127.545 96.4181 124.895 96.4181 121.362C96.4181 117.829 93.7684 115.18 90.2354 115.18C86.7025 115.18 84.0527 118.05 84.0527 121.362ZM92.8851 121.362C92.8851 122.908 91.5603 124.233 90.0146 124.233C88.4689 124.233 87.1441 122.908 87.1441 121.362C87.1441 119.817 88.4689 118.492 90.0146 118.492C91.5603 118.492 92.8851 119.817 92.8851 121.362Z" fill="#663366"/>
<path d="M84.7101 73.2342H95.5298C97.0755 73.2342 98.6211 74.559 98.6211 76.3255V81.4041C98.6211 83.1706 97.2963 84.4955 95.5298 84.4955H84.7101C83.1645 84.4955 81.6188 83.1706 81.6188 81.4041V78.7544H78.3066V81.4041C78.3066 84.9371 81.1772 87.8076 84.7101 87.8076H88.4639V93.7695H91.776V87.8076H95.5298C99.0627 87.8076 101.933 84.9371 101.933 81.4041V76.3255C101.933 72.7925 99.0627 69.922 95.5298 69.922H84.7101C83.1645 69.922 81.6188 68.5972 81.6188 66.8307V61.7521C81.6188 59.9856 82.9436 58.6607 84.7101 58.6607H95.5298C97.0755 58.6607 98.6211 59.9856 98.6211 61.7521V64.4018H101.933V61.7521C101.933 58.2191 99.0627 55.3486 95.5298 55.3486H91.776V49.3867H88.4639V55.3486H84.7101C81.1772 55.3486 78.3066 58.2191 78.3066 61.7521V66.8307C78.5275 70.5844 81.398 73.2342 84.7101 73.2342Z" fill="#663366"/>
</svg>
