<svg width="150" height="150" viewBox="0 0 150 150" fill="none" xmlns="http://www.w3.org/2000/svg">
<path d="M137.569 49.059L120.939 17.9795C120.156 16.5171 118.902 15.4666 117.407 14.9646V9.025C117.407 6.80581 115.601 5 113.382 5H36.4313C34.2121 5 32.4063 6.80581 32.4063 9.025V14.9646C30.9128 15.4666 29.6572 16.5171 28.8739 17.9795L12.244 49.059C12.0839 49.3573 12 49.6915 12 50.0302V61.8131C12 67.6081 16.0638 72.4692 21.489 73.7062V138.13C21.489 141.917 24.5707 145 28.358 145H121.45C125.238 145 128.319 141.918 128.319 138.13V73.7062C133.746 72.4692 137.808 67.6097 137.808 61.8131V50.0302C137.811 49.6915 137.729 49.3573 137.569 49.059ZM132.316 47.9711H116.922L106.497 18.7472H115.348C116.207 18.7472 116.903 19.1636 117.307 19.9205L132.316 47.9711ZM113.413 61.8131C113.413 66.2701 109.787 69.8957 105.33 69.8957C100.873 69.8957 97.2476 66.2701 97.2476 61.8131V52.0894H113.413V61.8131ZM58.1134 18.7487L52.9011 47.9727H37.2627L47.6873 18.7487H58.1134ZM102.126 18.7487L112.55 47.9727H96.9135L91.7012 18.7487H102.126ZM87.5177 18.7487L92.73 47.9727H76.9656V18.7487H87.5177ZM72.8474 47.9711H57.0831L62.2954 18.7472H72.8474V47.9711ZM36.4017 52.0894H52.567V61.8131C52.567 66.2701 48.9414 69.8957 44.4844 69.8957C40.0274 69.8957 36.4017 66.2701 36.4017 61.8131V52.0894ZM56.6837 52.0894H72.849V61.8131C72.849 66.2701 69.2233 69.8957 64.7663 69.8957C60.3093 69.8957 56.6837 66.2701 56.6837 61.8131V52.0894ZM76.9656 52.0894H93.1309V61.8131C93.1309 66.2701 89.5053 69.8957 85.0483 69.8957C80.5913 69.8957 76.9656 66.2701 76.9656 61.8131V52.0894ZM113.289 9.11669V14.6305H36.5245V9.11669H113.289ZM32.5057 19.922C32.9113 19.1652 33.6076 18.7472 34.4654 18.7472H43.3157L32.8911 47.9711H17.4967L32.5057 19.922ZM16.1182 61.8131V52.0894H32.2835V61.8131C32.2835 66.2701 28.6579 69.8957 24.2009 69.8957C19.7438 69.8957 16.1182 66.2701 16.1182 61.8131ZM121.454 140.882H28.3595C26.8428 140.882 25.6073 139.648 25.6073 138.13V73.9285C29.2422 73.5089 32.3969 71.4886 34.3411 68.5888C36.5323 71.8569 40.2605 74.014 44.4828 74.014C48.7052 74.014 52.4334 71.8585 54.6246 68.5888C56.8158 71.8569 60.544 74.014 64.7663 74.014C68.9887 74.014 72.7169 71.8585 74.9081 68.5888C77.0993 71.8569 80.8275 74.014 85.0498 74.014C89.2722 74.014 93.0004 71.8585 95.1916 68.5888C97.3828 71.8569 101.111 74.014 105.333 74.014C109.556 74.014 113.284 71.8585 115.475 68.5888C117.419 71.4886 120.574 73.5089 124.209 73.9285V138.13C124.204 139.646 122.97 140.882 121.454 140.882ZM125.612 69.8957C121.155 69.8957 117.53 66.2701 117.53 61.8131V52.0894H133.695V61.8131C133.695 66.2701 130.069 69.8957 125.612 69.8957ZM107.636 77.5044H42.1766C40.4361 77.5044 39.0203 78.9201 39.0203 80.6606V116.576C39.0203 118.317 40.4361 119.733 42.1766 119.733H107.636C109.377 119.733 110.793 118.317 110.793 116.576V80.6606C110.793 78.9201 109.377 77.5044 107.636 77.5044ZM74.9065 104.982C70.7401 104.982 67.3507 101.645 67.3507 97.5439C67.3507 93.4427 70.7401 90.1062 74.9065 90.1062C79.0729 90.1062 82.4623 93.4427 82.4623 97.5439C82.4623 101.645 79.0729 104.982 74.9065 104.982ZM69.918 107.989C71.4317 108.7 73.1225 109.1 74.9065 109.1C76.6906 109.1 78.3814 108.7 79.895 107.989C83.8252 108.907 86.9846 111.85 88.2341 115.616H61.579C62.8284 111.85 65.9878 108.907 69.918 107.989ZM106.676 115.616H92.5108C91.3935 110.924 88.1331 107.008 83.8112 105.005C85.5378 102.989 86.5821 100.385 86.5821 97.5423C86.5821 91.1707 81.345 85.9864 74.9081 85.9864C68.4712 85.9864 63.234 91.1707 63.234 97.5423C63.234 100.385 64.2784 102.989 66.0049 105.005C61.6831 107.007 58.4227 110.924 57.3053 115.616H43.1386V81.6226H106.676V115.616ZM107.636 123.497H42.1766C40.4361 123.497 39.0203 124.912 39.0203 126.653V132.126C39.0203 133.867 40.4361 135.283 42.1766 135.283H107.636C109.377 135.283 110.793 133.867 110.793 132.126V126.653C110.793 124.912 109.377 123.497 107.636 123.497ZM106.676 131.167H43.137V127.615H106.674L106.676 131.167Z" fill="#663366"/>
</svg>
