<svg width="150" height="150" viewBox="0 0 150 150" fill="none" xmlns="http://www.w3.org/2000/svg">
<path d="M24.4008 58C26.3942 61.4126 28.3876 64.7868 30.3071 68.1994C27.1625 73.7585 24.0179 79.3586 20.7585 84.8794C19.4925 86.9877 18.303 89.1369 17.0397 91.2452C13.0146 91.2835 8.9868 91.2835 5 91.2452C5.11485 90.9772 5.22969 90.7092 5.38282 90.4413C11.7458 79.6266 18.1116 68.8529 24.4008 58ZM111.831 66.3591C114.054 70.5018 116.28 74.6417 118.503 78.7844C117.738 78.7844 116.931 78.7461 116.165 78.7844C115.63 77.8629 115.167 76.9058 114.67 75.9843C112.715 75.9078 110.721 75.9843 108.763 75.9461C108.304 76.9058 107.765 77.8246 107.268 78.7461H104.968C107.191 74.6034 109.452 70.4635 111.831 66.3591ZM109.72 74.2206C111.063 74.2206 112.406 74.2206 113.745 74.2589C113.056 72.9929 112.479 71.7268 111.752 70.5018C111.045 71.7246 110.367 72.9646 109.72 74.2206ZM119.767 66.3209C123.103 69.2358 126.477 72.1507 129.775 75.1011C129.851 72.4159 129.775 69.7717 129.851 67.0865C130.579 67.0865 131.27 67.1248 131.998 67.1248C131.96 71.2292 131.998 75.3691 131.998 79.4735C129.813 77.6332 127.664 75.7164 125.517 73.8378C124.289 72.8015 123.103 71.7678 121.952 70.6549C121.913 73.3784 121.951 76.0609 121.913 78.7844H119.767C119.767 74.6034 119.728 70.4635 119.767 66.3209ZM48.904 78.7461C51.2036 74.6034 53.4677 70.4252 55.844 66.3209C58.067 70.4635 60.2546 74.6034 62.516 78.7461H60.1397C59.6438 77.8245 59.1706 76.8909 58.7206 75.9461C56.7272 75.9078 54.7721 75.9461 52.7759 75.9461C52.2783 76.8676 51.7779 77.8246 51.2419 78.7461C50.438 78.7844 49.6696 78.7844 48.904 78.7461ZM53.7357 74.2206H57.7991C57.11 72.9546 56.533 71.6885 55.8057 70.4635C55.0783 71.7268 54.4248 72.9546 53.7357 74.2206ZM81.8812 67.4338C83.0324 66.8595 84.3367 66.8213 85.5617 67.051C86.6364 67.2806 87.4786 68.049 88.1321 68.8529C87.5579 69.1592 86.9809 69.4272 86.4067 69.7362C85.641 68.5467 83.8363 68.1639 82.7261 69.0854C82.1519 69.5065 82.1902 70.5428 82.841 70.8491C84.3367 71.653 86.1387 71.8471 87.443 72.9573C88.7856 74.1085 88.7473 76.3699 87.4813 77.5594C86.1387 78.902 84.0305 79.2082 82.2667 78.7106C80.771 78.3277 79.6581 76.9851 79.4667 75.4894C80.194 75.3363 80.9241 75.2214 81.6515 75.1066C81.7281 75.7957 81.996 76.6023 82.6878 76.9469C83.7242 77.5211 85.2582 77.368 85.9856 76.3343C86.4832 75.6453 86.3301 74.5706 85.641 74.073C84.1836 73.1132 82.2667 73.0366 80.9241 71.8116C80.2351 71.2374 79.9644 70.2393 80.1968 69.3561C80.3855 68.4674 81.1155 67.8166 81.8812 67.4338ZM63.2078 67.1658C64.0117 67.051 64.8566 67.0892 65.6633 67.0892C66.5465 68.3936 67.427 69.6979 68.2719 70.9995C69.1934 69.6951 70.0739 68.3908 70.9954 67.1275C71.8404 67.0892 72.6826 67.0892 73.5275 67.1275C72.1849 68.9678 70.8423 70.8081 69.5407 72.6866C70.8833 74.7566 72.379 76.7117 73.7217 78.8227H71.3072C70.2708 77.3652 69.2755 75.8695 68.2774 74.412C67.2411 75.8695 66.1692 77.3269 65.1328 78.8227H62.7183C64.1375 76.7527 65.5949 74.7593 67.0907 72.7249C65.7754 70.8463 64.4738 69.0061 63.2078 67.1658ZM75.5154 67.1248C76.2304 67.0865 76.947 67.0865 77.662 67.1248V78.7817H75.4772C75.5154 74.8714 75.4772 70.9995 75.5154 67.1248ZM96.5678 67.0865C98.4081 67.1631 100.401 66.8185 102.127 67.7373C103.776 68.6205 104.159 71.2647 102.625 72.4542C103.584 72.837 104.541 73.5671 104.771 74.6007C105.192 75.905 104.465 77.3242 103.314 78.0133C101.244 79.1645 98.8264 78.6258 96.5651 78.7789C96.5295 74.9097 96.5678 70.9995 96.5678 67.0865ZM98.7171 68.7764V72.1124C99.521 72.0741 100.404 72.1124 101.093 71.6147C101.782 71.0022 101.782 69.6979 100.978 69.1592C100.328 68.7354 99.4827 68.7764 98.7171 68.7764ZM98.7171 73.6437V77.0562C99.7917 77.0179 100.94 77.2094 101.938 76.6734C102.821 76.2523 102.975 74.8331 102.168 74.2589C101.208 73.4523 99.9038 73.6437 98.7171 73.6437ZM134.533 67.0865H136.679V71.6885C138.443 70.1163 140.245 68.6205 142.047 67.0482H145C142.892 68.7736 140.781 70.5374 138.673 72.3393C140.742 74.5241 142.853 76.5968 144.962 78.7051C144.002 78.7051 143.007 78.7816 142.047 78.6668C140.36 76.9797 138.711 75.2542 137.062 73.5288L136.717 73.9882C136.679 75.5605 136.717 77.1328 136.679 78.7051H134.494C134.494 74.8714 134.494 70.9995 134.533 67.0865ZM24.4008 78.7078C28.4258 78.7078 32.4537 78.6695 36.4787 78.7461C38.8932 82.927 41.3488 87.067 43.725 91.2862C39.6999 91.3245 35.6721 91.2862 31.647 91.2862C29.2708 87.067 26.777 82.9243 24.4008 78.7078Z" fill="#663366"/>
</svg>
