<svg width="150" height="150" viewBox="0 0 150 150" fill="none" xmlns="http://www.w3.org/2000/svg">
<path d="M142.545 87.1239H142.358C141.646 87.1239 141.141 87.2551 140.803 87.5173C140.485 87.7795 140.316 88.1729 140.316 88.7349C140.316 89.0158 140.373 89.2406 140.504 89.3905C140.616 89.559 140.785 89.634 141.009 89.634C141.403 89.634 141.721 89.4279 141.984 89.0158C142.227 88.5663 142.414 87.9481 142.545 87.1239ZM142.021 90.1023C141.759 90.402 141.478 90.608 141.178 90.7579C140.878 90.9077 140.541 90.9639 140.167 90.9639C139.586 90.9639 139.099 90.7766 138.724 90.4207C138.35 90.0648 138.181 89.5965 138.181 89.0346C138.181 87.9294 138.481 87.1239 139.08 86.6369C139.68 86.1499 140.672 85.9064 142.04 85.9064H142.508C142.62 85.9064 142.714 85.9064 142.808 85.9251C142.845 85.6816 142.883 85.4943 142.901 85.3444C142.92 85.1946 142.92 85.0822 142.92 85.0073C142.92 84.745 142.864 84.539 142.733 84.4079C142.602 84.2767 142.414 84.2205 142.171 84.2205C141.909 84.2205 141.703 84.2955 141.534 84.4641C141.384 84.6326 141.272 84.8761 141.216 85.1946H139.099C139.192 84.4266 139.473 83.8646 139.96 83.5087C140.448 83.1528 141.159 82.9843 142.115 82.9843C143.107 82.9843 143.838 83.1528 144.306 83.4713C144.774 83.8084 144.999 84.3329 144.999 85.0447C144.999 85.232 144.981 85.4194 144.962 85.6441C144.924 85.8689 144.887 86.0937 144.831 86.3372L144.194 89.2968C144.138 89.559 144.1 89.8213 144.063 90.0835C144.025 90.3458 144.007 90.5893 143.969 90.8703H141.909L142.021 90.1023ZM134.847 90.1585C134.641 90.4582 134.397 90.7017 134.116 90.8328C133.835 90.9826 133.498 91.0388 133.086 91.0388C132.43 91.0388 131.943 90.8703 131.625 90.5518C131.306 90.2334 131.138 89.7276 131.138 89.0533C131.138 88.7911 131.175 88.4539 131.232 88.0418C131.288 87.6297 131.363 87.1801 131.475 86.6931C131.587 86.1686 131.719 85.7191 131.85 85.3257C131.981 84.9323 132.112 84.6139 132.262 84.3704C132.524 83.9208 132.824 83.5837 133.161 83.3776C133.498 83.1716 133.91 83.0592 134.378 83.0592C134.772 83.0592 135.109 83.1341 135.39 83.284C135.671 83.4338 135.933 83.6961 136.158 84.052L137.076 79.8186H139.249L137.151 89.634C137.113 89.7838 137.095 89.9711 137.057 90.1772C137.02 90.3832 137.001 90.608 136.963 90.8515H134.734L134.847 90.1585ZM135.015 84.5015C134.772 84.5015 134.585 84.5764 134.435 84.7076C134.285 84.8387 134.154 85.1009 134.041 85.4568C133.854 86.075 133.685 86.6744 133.573 87.2925C133.461 87.8919 133.404 88.379 133.404 88.7536C133.404 89.0346 133.461 89.2406 133.592 89.3905C133.704 89.5403 133.891 89.5965 134.135 89.5965C134.341 89.5965 134.51 89.5216 134.659 89.3905C134.809 89.2593 134.959 89.0346 135.09 88.7536C135.165 88.585 135.221 88.3602 135.296 88.0793C135.371 87.7983 135.446 87.4611 135.521 87.0677C135.596 86.6744 135.652 86.3372 135.69 86.0562C135.727 85.7753 135.746 85.5505 135.746 85.3819C135.746 85.0822 135.671 84.8761 135.559 84.7263C135.427 84.5764 135.24 84.5015 135.015 84.5015ZM127.879 84.3329C127.635 84.3329 127.448 84.4079 127.298 84.539C127.148 84.6701 127.017 84.8949 126.905 85.1946C126.867 85.2882 126.83 85.4194 126.773 85.6254C126.717 85.8315 126.68 86.0375 126.624 86.2998C126.586 86.4496 126.549 86.6557 126.492 86.9366C126.268 87.9669 126.155 88.6037 126.155 88.8285C126.155 89.1282 126.211 89.3717 126.343 89.5216C126.474 89.6714 126.661 89.7651 126.923 89.7651C127.167 89.7651 127.354 89.6902 127.523 89.559C127.691 89.4279 127.822 89.2031 127.935 88.9034C127.991 88.7349 128.066 88.4913 128.141 88.1542C128.216 87.817 128.309 87.4424 128.403 87.0303C128.478 86.6369 128.553 86.2998 128.59 86C128.628 85.7003 128.647 85.4568 128.647 85.2695C128.647 84.9698 128.59 84.745 128.459 84.5952C128.328 84.4079 128.141 84.3329 127.879 84.3329ZM124.039 88.5101C124.039 88.2666 124.057 87.9856 124.114 87.6672C124.151 87.3487 124.226 86.9741 124.32 86.5807C124.432 86.0937 124.544 85.6629 124.676 85.2882C124.807 84.9136 124.956 84.6139 125.088 84.4079C125.406 83.9208 125.781 83.5649 126.23 83.3402C126.68 83.1154 127.242 83.003 127.935 83.003C128.871 83.003 129.583 83.2278 130.07 83.6586C130.557 84.0894 130.801 84.745 130.801 85.5692C130.801 85.8315 130.782 86.1124 130.745 86.4121C130.707 86.7306 130.651 87.0677 130.557 87.4424C130.445 87.9294 130.332 88.3415 130.201 88.7161C130.07 89.0908 129.92 89.4092 129.771 89.634C129.471 90.121 129.077 90.4769 128.647 90.7017C128.197 90.9265 127.635 91.0388 126.942 91.0388C126.005 91.0388 125.294 90.8141 124.807 90.3832C124.282 89.9711 124.039 89.3343 124.039 88.5101ZM118.925 90.889L120.199 84.8761C120.255 84.5952 120.311 84.2955 120.367 84.0145C120.423 83.7335 120.461 83.4525 120.48 83.1716H122.596L122.409 84.2955C122.671 83.9021 122.952 83.6024 123.289 83.4151C123.627 83.2278 124.001 83.1341 124.451 83.1341H124.657C124.694 83.1341 124.75 83.1341 124.769 83.1528L124.376 85.0635H124.338C124.076 85.026 123.908 85.0073 123.795 85.0073C123.289 85.0073 122.877 85.1571 122.615 85.4568C122.334 85.7565 122.109 86.2623 121.959 86.9741L121.135 90.889H118.925ZM116.583 87.1239H116.396C115.684 87.1239 115.179 87.2551 114.841 87.5173C114.523 87.7795 114.354 88.1729 114.354 88.7349C114.354 89.0158 114.411 89.2406 114.542 89.3905C114.654 89.559 114.823 89.634 115.047 89.634C115.441 89.634 115.759 89.4279 116.022 89.0158C116.246 88.5663 116.452 87.9481 116.583 87.1239ZM116.04 90.1023C115.778 90.402 115.497 90.608 115.197 90.7579C114.898 90.9077 114.56 90.9639 114.186 90.9639C113.605 90.9639 113.118 90.7766 112.743 90.4207C112.369 90.0648 112.2 89.5965 112.2 89.0346C112.2 87.9294 112.5 87.1239 113.099 86.6369C113.699 86.1499 114.692 85.9064 116.059 85.9064H116.527C116.64 85.9064 116.733 85.9064 116.827 85.9251C116.864 85.6816 116.902 85.4943 116.921 85.3444C116.939 85.1946 116.939 85.0822 116.939 85.0073C116.939 84.745 116.883 84.539 116.752 84.4079C116.621 84.2767 116.434 84.2205 116.19 84.2205C115.928 84.2205 115.722 84.2955 115.553 84.4641C115.403 84.6326 115.291 84.8761 115.235 85.1946H113.118C113.212 84.4266 113.493 83.8646 113.98 83.5087C114.467 83.1528 115.179 82.9843 116.134 82.9843C117.127 82.9843 117.857 83.1528 118.325 83.4713C118.794 83.8084 119.019 84.3329 119.019 85.0447C119.019 85.232 119 85.4194 118.981 85.6441C118.944 85.8689 118.906 86.0937 118.85 86.3372L118.213 89.2968C118.157 89.559 118.119 89.8213 118.082 90.0835C118.045 90.3458 118.026 90.5893 117.988 90.8703H115.947L116.04 90.1023ZM103.734 90.889L106.094 79.8374H109.203C110.44 79.8374 111.32 80.0247 111.863 80.3993C112.406 80.7739 112.669 81.3733 112.669 82.2163C112.669 83.0779 112.444 83.771 112.013 84.2955C111.582 84.82 110.964 85.1384 110.14 85.232C110.702 85.3444 111.114 85.5879 111.376 85.9438C111.638 86.2998 111.788 86.7868 111.788 87.3862C111.788 87.9856 111.676 88.5475 111.451 89.0533C111.226 89.559 110.927 89.9337 110.533 90.2147C110.177 90.4582 109.746 90.6267 109.222 90.7391C108.716 90.8328 107.873 90.889 106.712 90.889H103.734ZM106.412 89.1657H107.424C108.154 89.1657 108.679 89.0158 109.016 88.6974C109.353 88.3977 109.522 87.9107 109.522 87.2363C109.522 86.7868 109.391 86.4683 109.147 86.281C108.904 86.0937 108.473 86 107.873 86H107.124L106.412 89.1657ZM107.442 84.3142H108.248C109.016 84.3142 109.578 84.1831 109.915 83.9021C110.252 83.6211 110.421 83.1903 110.421 82.5722C110.421 82.1788 110.29 81.9166 110.046 81.748C109.803 81.5794 109.372 81.4857 108.791 81.4857H108.079L107.442 84.3142ZM97.3836 90.889L98.7135 84.539H97.5147L97.8144 83.1903H99.032L99.2567 82.0477C99.4253 81.2235 99.7063 80.6241 100.118 80.2494C100.53 79.8748 101.092 79.6875 101.804 79.6875C102.029 79.6875 102.254 79.6875 102.479 79.7062C102.703 79.725 102.928 79.7437 103.153 79.7812L102.853 81.261C102.741 81.2422 102.628 81.2235 102.554 81.2048C102.479 81.186 102.404 81.186 102.347 81.186C102.085 81.186 101.879 81.261 101.748 81.3921C101.598 81.5232 101.505 81.748 101.43 82.0477L101.205 83.1903H102.46L102.179 84.539H100.886L99.5377 90.889H97.3836ZM94.4427 84.3329C94.2179 84.3329 94.0119 84.4079 93.862 84.539C93.7122 84.6701 93.5811 84.8949 93.4874 85.1946C93.45 85.2882 93.4125 85.4194 93.3563 85.6254C93.3001 85.8315 93.2626 86.0375 93.2064 86.2998C93.169 86.4496 93.1315 86.6557 93.0753 86.9366C92.8505 87.9669 92.7381 88.6037 92.7381 88.8285C92.7381 89.1282 92.7943 89.3717 92.9255 89.5216C93.0566 89.6714 93.2439 89.7651 93.4874 89.7651C93.7122 89.7651 93.9182 89.6902 94.0681 89.559C94.2179 89.4279 94.3678 89.2031 94.4615 88.9034C94.5176 88.7349 94.5926 88.4913 94.6675 88.1542C94.7424 87.817 94.8361 87.4424 94.911 87.0303C94.9859 86.6369 95.0421 86.2998 95.0983 86C95.1545 85.7003 95.1545 85.4568 95.1545 85.2695C95.1545 84.9698 95.0983 84.745 94.9672 84.5952C94.8923 84.4079 94.705 84.3329 94.4427 84.3329ZM90.6777 88.5101C90.6777 88.2666 90.6964 87.9856 90.7526 87.6672C90.7901 87.3487 90.865 86.9741 90.9399 86.5807C91.0523 86.0937 91.1647 85.6629 91.2958 85.2882C91.4269 84.9136 91.5581 84.6139 91.7079 84.4079C92.0076 83.9208 92.3822 83.5649 92.8318 83.3402C93.2626 83.1154 93.8246 83.003 94.4989 83.003C95.4168 83.003 96.1098 83.2278 96.5968 83.6586C97.0839 84.0894 97.3087 84.745 97.3087 85.5692C97.3087 85.8315 97.2899 86.1124 97.2525 86.4121C97.215 86.7306 97.1588 87.0677 97.0651 87.4424C96.9527 87.9294 96.8404 88.3415 96.7092 88.7161C96.5781 89.0908 96.447 89.4092 96.2971 89.634C95.9974 90.121 95.6228 90.4769 95.1733 90.7017C94.7424 90.9265 94.1805 91.0388 93.5061 91.0388C92.5883 91.0388 91.8765 90.8141 91.4082 90.3832C90.9212 89.9711 90.6777 89.3343 90.6777 88.5101ZM80.9747 90.889L83.3724 79.8374H85.6014L84.2527 86.0188L86.7066 83.1716H89.0855L86.2008 86.5807L87.7555 90.8703H85.4703L84.1216 86.5058L83.185 90.8703H80.9747V90.889ZM73.8005 90.889L75.1679 84.5952C75.2428 84.2767 75.299 83.9958 75.3365 83.7897C75.374 83.5649 75.4114 83.3776 75.4302 83.1903H77.5468L77.4157 84.0707C77.6592 83.6961 77.9402 83.4338 78.2586 83.2652C78.5771 83.0966 78.9704 83.0217 79.42 83.0217C80.0007 83.0217 80.4315 83.1528 80.7312 83.4338C81.0309 83.6961 81.1808 84.1082 81.1808 84.6326C81.1808 84.82 81.162 85.0073 81.1433 85.1759C81.1246 85.3444 81.1058 85.513 81.0684 85.6629L79.9445 90.9077H77.7154L78.858 85.6441C78.8955 85.4943 78.9142 85.3632 78.933 85.2882C78.9517 85.2133 78.9517 85.1384 78.9517 85.1009C78.9517 84.8949 78.8955 84.745 78.8018 84.6514C78.7082 84.5577 78.5583 84.5015 78.371 84.5015C78.09 84.5015 77.8278 84.6514 77.603 84.9323C77.3782 85.2133 77.2097 85.6067 77.116 86.1124L76.067 90.9077H73.8005V90.889ZM71.4216 87.1239H71.2156C70.5038 87.1239 69.9793 87.2551 69.6421 87.5173C69.3049 87.7795 69.1551 88.1729 69.1551 88.7349C69.1551 89.0158 69.2113 89.2406 69.3424 89.3905C69.4548 89.559 69.6421 89.634 69.8481 89.634C70.2415 89.634 70.5787 89.4279 70.8409 89.0158C71.1032 88.5663 71.2905 87.9481 71.4216 87.1239ZM70.8971 90.1023C70.6349 90.402 70.3539 90.608 70.0355 90.7579C69.7358 90.9077 69.3799 90.9639 69.024 90.9639C68.4245 90.9639 67.9375 90.7766 67.5629 90.4207C67.1883 90.0648 67.0009 89.5965 67.0009 89.0346C67.0009 87.9294 67.3006 87.1239 67.9001 86.6369C68.4995 86.1499 69.511 85.9064 70.8971 85.9064H71.3654C71.4778 85.9064 71.5715 85.9064 71.6838 85.9251C71.74 85.6816 71.7588 85.4943 71.7775 85.3444C71.7962 85.1946 71.7962 85.0822 71.7962 85.0073C71.7962 84.745 71.74 84.539 71.6089 84.4079C71.4778 84.2767 71.2905 84.2205 71.0282 84.2205C70.766 84.2205 70.5599 84.2955 70.3914 84.4641C70.2228 84.6326 70.1291 84.8761 70.0729 85.1946H67.9188C68.0124 84.4266 68.3122 83.8646 68.7992 83.5087C69.2862 83.1528 70.0167 82.9843 70.9908 82.9843C72.0023 82.9843 72.7328 83.1528 73.2011 83.4713C73.6694 83.8084 73.8942 84.3329 73.8942 85.0447C73.8942 85.232 73.8754 85.4194 73.8567 85.6441C73.8192 85.8689 73.7818 86.0937 73.7256 86.3372L73.0887 89.2968C73.0325 89.559 72.9951 89.8213 72.9576 90.0835C72.9201 90.3458 72.8827 90.5893 72.8639 90.8703H70.7847L70.8971 90.1023ZM58.4219 90.889L60.8195 79.8374H63.9664C65.2214 79.8374 66.1206 80.0247 66.6638 80.3993C67.207 80.7739 67.488 81.3733 67.488 82.2163C67.488 83.0779 67.2632 83.771 66.8324 84.2955C66.4015 84.82 65.7647 85.1384 64.9405 85.232C65.5024 85.3444 65.9332 85.5879 66.1955 85.9438C66.4765 86.2998 66.6076 86.7868 66.6076 87.3862C66.6076 87.9856 66.4952 88.5475 66.2704 89.0533C66.0456 89.559 65.7272 89.9337 65.3338 90.2147C64.9779 90.4582 64.5471 90.6267 64.0226 90.7391C63.4981 90.8328 62.6552 90.889 61.4751 90.889H58.4219ZM61.138 89.1657H62.1495C62.88 89.1657 63.4232 89.0158 63.7604 88.6974C64.0975 88.3977 64.2661 87.9107 64.2661 87.2363C64.2661 86.7868 64.135 86.4683 63.8915 86.281C63.6293 86.0937 63.2172 86 62.599 86H61.831L61.138 89.1657ZM62.1869 84.3142H62.9924C63.7604 84.3142 64.3223 84.1831 64.6782 83.9021C65.0154 83.6211 65.184 83.1903 65.184 82.5722C65.184 82.1788 65.0529 81.9166 64.8093 81.748C64.5471 81.5794 64.135 81.4857 63.5356 81.4857H62.8238L62.1869 84.3142Z" fill="#663366"/>
<path fill-rule="evenodd" clip-rule="evenodd" d="M118.532 74.0083H120.312L119.993 75.6005H118.214L118.532 74.0083ZM113.55 70.2994C113.25 70.7303 112.819 71.03 112.426 71.03H112.313C111.733 71.03 111.433 70.4118 111.639 69.6626L111.995 68.3888L113.531 70.3369L113.55 70.2994ZM113.418 66.9465H113.512C114.093 66.9465 114.392 67.5646 114.205 68.3139L113.924 69.3441L112.369 67.5646C112.669 67.19 113.044 66.9465 113.418 66.9465ZM110.59 63.8745H124.582L123.009 61.7953L124.339 60.7089L126.193 63.8745H126.68L125.276 60.0907L127.036 59.2853L128.048 63.8932H141.104L140.898 64.7923H139.736L137.489 73.259H135.597L137.844 64.7923H136.196L135.447 66.9465C134.641 66.9465 133.499 66.7592 132.731 66.909C132.075 67.0401 131.944 67.3586 131.738 67.9018C131.307 69.0631 131.082 70.2245 130.783 71.4421C130.858 72.2288 131.288 72.3786 132.094 72.3599C132.019 71.5732 132.206 70.4867 133.143 70.0372C133.761 69.7375 134.847 69.7188 135.072 70.4493C135.391 71.4983 134.304 72.5285 133.536 72.6034C133.742 73.2403 134.211 73.2965 134.904 73.5775L132.918 74.6639C132.468 74.1207 132.131 73.5587 132.113 72.978C131.401 73.3152 130.183 73.3527 129.434 72.978C129.265 72.9031 129.097 72.772 128.947 72.5472C128.628 72.0977 128.516 71.517 128.572 70.8239C128.647 70.1308 128.741 69.4378 128.966 68.7634C129.209 67.958 129.49 67.3586 130.127 66.7966C131.12 65.8975 132.169 65.9724 133.742 66.0474L134.117 64.7923H128.554L126.306 73.259H124.414L126.662 64.7923H125.126L124.264 67.6957L122.41 67.7519L122.278 67.0589C121.923 66.909 121.323 66.8341 120.93 66.909C120.405 67.0027 120.293 67.3211 120.143 67.7894C119.993 68.2577 119.956 68.7634 120.312 68.8946C120.892 69.1193 121.904 69.0069 122.503 68.9695C123.29 68.9508 123.758 69.2505 123.721 69.9997C123.646 70.7677 123.402 71.4608 123.065 72.0977C122.859 72.5285 122.616 72.8469 122.278 72.978C121.473 73.3152 120.012 73.2028 119.15 73.2028C118.682 73.2028 118.232 73.1841 117.802 73.1466C117.614 73.1279 117.446 73.0717 117.277 72.9593C117.127 72.8657 116.996 72.7158 116.884 72.5285C116.659 72.1164 116.696 71.8729 116.79 71.4421L116.959 70.6928L119.225 70.7303C118.982 71.2922 118.907 71.7043 119.057 71.9291C119.375 72.3974 120.518 72.1726 120.892 71.9291L121.342 70.468C121.436 70.1308 121.23 69.981 120.93 69.9061C120.518 69.8124 120.049 69.8499 119.637 69.8499C119.188 69.8499 118.57 69.9248 118.176 69.6626C117.521 69.2317 117.689 68.1078 117.933 67.3773C118.139 66.7592 118.401 66.4033 119 66.141C120.274 65.5603 122.278 65.7102 122.691 66.4595L123.084 64.7174H117.127L114.954 73.2403H113.063L113.568 71.2547C113.044 71.798 112.295 72.1351 111.545 72.1351H111.339C110.122 72.1351 109.335 71.1798 109.616 70.0185L110.103 67.958C110.384 66.7966 111.601 65.8413 112.819 65.8413H113.025C113.812 65.8413 114.43 66.2347 114.673 66.8341L115.217 64.7174H110.403L110.59 63.8745ZM89.8541 60.8212L91.746 60.8025C91.6523 61.0273 91.5587 61.5518 91.7085 61.7578C91.9895 62.1325 92.9823 62.1137 93.3382 61.7016C93.488 61.533 93.6379 61.0648 93.6941 60.84L95.7733 60.8212C95.586 61.7391 95.2488 62.5071 94.3871 62.7131C93.3756 62.9566 91.4276 62.863 90.3973 62.6757C89.3858 62.4884 89.6855 61.6642 89.8541 60.8212ZM94.818 72.5098H96.5975L96.279 74.1207H94.4995L94.818 72.5098ZM100.025 64.7736H98.3957L97.3467 68.932C96.9159 70.468 97.815 70.5242 98.7141 69.7L100.025 64.7736ZM88.2619 63.8745H105.982L105.776 64.7736H102.067L101.543 66.7966C103.228 65.8038 104.427 66.0661 104.821 66.8341C105.102 67.3586 104.896 67.8456 104.764 68.3701L103.697 72.3412H101.674L102.648 68.5199C103.079 67.0027 102.198 66.9277 101.299 67.7332L99.913 73.2028L97.7588 73.2778L98.4519 70.6553C96.7661 71.6668 95.5672 71.3859 95.1551 70.6366C94.8742 70.1121 95.0802 69.6251 95.2113 69.1006L96.354 64.7923H94.743L92.4953 73.259H90.6034L92.8512 64.7923H91.184L88.9362 73.259H87.0444L88.2057 68.8758H86.5199L86.8196 67.6957H88.5054L89.2734 64.7736H87.9997L88.2619 63.8745ZM85.0214 68.2951C86.1265 68.3888 86.7259 69.3816 86.3326 70.5804L86.2202 70.8988C85.8268 72.1539 84.4969 73.2028 83.2606 73.2028H79.3457L79.6454 72.0602H82.3802C83.1295 72.0602 83.8975 71.4046 84.0848 70.5804L84.1222 70.3744C84.3095 69.5689 83.8413 68.8946 83.092 68.8946H80.8817L81.0315 68.2764L85.0214 68.2951ZM85.0214 68.2951H84.909H85.0026H85.0214ZM85.0588 68.2951C86.164 68.164 87.138 67.2462 87.2504 66.141L87.2879 65.8413C87.419 64.6425 86.5199 63.6684 85.3023 63.6684H81.8182L81.5373 64.7923H83.9349C84.6842 64.7923 85.1712 65.4105 85.0214 66.1597L84.9839 66.3471C84.834 67.0963 84.1035 67.7145 83.3542 67.7145H81.2001L81.069 68.2764L85.0588 68.2951ZM69.4929 67.0776C69.8862 67.1713 70.1297 67.5084 70.0361 67.8269L69.2306 70.5991C69.137 70.9176 68.7436 71.0862 68.3502 70.9925C67.9569 70.8988 67.7134 70.5617 67.807 70.2432L68.6125 67.471C68.7061 67.1525 69.0995 66.9839 69.4929 67.0776ZM66.4396 61.4956H68.2191L67.9007 63.1065H66.1212L66.4396 61.4956ZM61.9066 70.2994C61.6069 70.7303 61.176 71.03 60.7827 71.03H60.689C60.1083 71.03 59.8086 70.4118 60.0147 69.6626L60.3706 68.3888L61.9066 70.3369V70.2994ZM61.7754 66.9465H61.8691C62.4498 66.9465 62.7495 67.5646 62.5622 68.3139L62.2812 69.3441L60.7265 67.5646C61.0262 67.19 61.4008 66.9465 61.7754 66.9465ZM58.947 63.8745H62.1688L60.5954 61.7953L61.9253 60.7089L63.7797 63.8745H64.2667L62.8619 60.0907L64.6226 59.2853L65.6342 63.8932H76.9855L76.7795 64.7923H72.8084L72.3588 66.628C74.1383 65.4667 76.1051 65.7664 75.9178 67.9018C75.8429 68.7072 75.5619 69.7188 75.2247 70.4493C74.9438 71.0674 74.5691 71.517 74.1008 71.8167C73.3516 72.285 72.7522 72.1539 72.0029 72.004C71.7594 71.9665 71.7407 72.004 71.8343 71.7605L71.9467 71.4421C71.9842 71.3109 71.9842 71.3297 72.1153 71.3297C72.3026 71.3297 72.4899 71.3109 72.6585 71.236C72.9395 71.1049 73.1455 70.5991 73.2954 70.0372C73.4452 69.494 73.951 67.7332 73.6513 67.2087C73.5202 66.9839 73.1268 66.9465 72.7896 67.1525C72.4899 67.3398 72.2651 67.5833 72.0966 67.8269L70.7666 73.2965H68.856L69.343 71.3109C68.8373 71.8542 68.2191 72.1913 67.526 72.1913H67.32C66.1586 72.1913 65.4094 71.236 65.6716 70.0747L66.1399 68.0142C66.4021 66.8528 67.5822 65.8975 68.7436 65.8975H68.9496C69.7176 65.8975 70.1672 66.2721 70.4107 66.8715L70.9727 64.7736H65.503L63.3302 73.2965H61.3634L61.8691 71.3109C61.3446 71.8542 60.5954 72.1913 59.8461 72.1913H59.64C58.4225 72.1913 57.6358 71.236 57.9167 70.0747L58.4038 68.0142C58.6847 66.8528 59.9023 65.8975 61.1198 65.8975H61.3259C62.1126 65.8975 62.7308 66.2909 62.9743 66.8903L63.5175 64.7736H58.7222L58.947 63.8745ZM37.6866 63.144C37.4806 64.2866 37.4806 64.2866 37.3307 65.0171C36.9561 66.0474 36.4691 66.8715 35.8509 67.7707C35.8135 67.7894 35.7947 67.8081 35.7573 67.8269C34.034 69.7937 31.9735 71.0112 29.5009 71.8729C29.0139 71.9853 29.0139 71.9853 28.9577 72.0227V72.1351C29.1263 72.3037 29.4447 72.2662 29.6508 72.2662C29.8381 72.3224 29.8381 72.3224 30.1378 72.3412C31.0369 72.6221 31.8986 72.9593 32.7228 73.4463C32.7789 73.5213 33.1723 73.8022 33.8092 74.3642L34.3711 75.0385C34.7645 75.6005 35.0455 76.2561 35.289 76.9117L35.5138 77.9232C35.5512 78.2978 35.5512 78.2978 35.5512 79.2719C35.4763 79.7402 35.3826 80.2084 35.3077 80.6767C35.1766 80.9577 35.1391 81.1638 34.9143 81.7257C34.4273 82.6997 33.8841 83.5989 33.1723 84.4231C32.3107 85.3222 31.3741 86.1089 30.3813 86.8582C30.2127 86.9331 29.9505 87.0267 29.8381 87.1766C28.3021 88.0382 26.7848 88.6189 25.1177 89.1996C24.0875 89.4057 23.076 89.6117 22.027 89.7428C20.1164 89.8552 20.1164 89.8552 19.5732 89.9114C17.8873 89.9676 11.3875 90.286 11.2751 90.2673C11.1814 90.1736 11.2002 89.9301 11.2751 89.8365C13.0171 89.3307 14.7966 88.75 16.5574 88.3192C16.7072 88.263 19.6668 87.4014 19.9665 87.289C21.2965 87.008 22.6077 86.5023 23.9189 86.1464C24.2186 86.034 25.7921 85.6031 27.2531 85.1723C28.5456 84.8726 29.913 84.4605 31.168 84.0297C31.2242 83.9548 31.2242 83.8798 31.2242 83.7862C31.1868 83.7674 31.1493 83.73 31.1306 83.7113C31.0182 83.7113 29.3323 84.1421 21.4651 86.0527C21.4276 86.0714 21.3901 86.0902 21.3714 86.1089C19.9291 86.3899 18.4867 86.802 17.0444 87.1391C16.932 87.1766 16.8196 87.2141 16.726 87.2515C11.2751 88.544 11.2751 88.544 11.144 88.6002H10.9941C10.8817 88.4503 10.8068 88.4316 10.8443 88.2256C11.2564 87.9633 11.2563 87.9633 12.2679 87.3826C12.5301 87.2703 15.0214 85.8467 15.2649 85.7343C17.2505 84.5542 19.3109 83.449 21.2965 82.2876C22.9636 81.3698 24.6494 80.4145 26.3165 79.4966C26.3727 79.4592 26.4289 79.4217 26.4851 79.3655C27.7589 78.7099 28.9952 77.9794 30.2502 77.2863C30.8309 77.0428 31.449 76.6682 31.9735 76.3123C32.0671 76.1812 31.9922 76.0126 31.8424 75.9938C30.6248 76.612 29.426 77.2489 28.2272 77.867C28.0399 77.9232 28.0399 77.9232 27.8525 78.0543C24.4059 79.8151 24.4059 79.8151 24.125 79.9275C23.7316 80.171 22.7014 80.6767 22.6077 80.7517C21.1092 81.5009 19.6106 82.2876 18.1308 83.0931C18.0746 83.1118 18.0372 83.1118 17.9997 83.1306C17.1943 83.6738 16.2202 84.0297 15.396 84.5354C13.9537 85.2472 12.4926 85.9965 11.069 86.7458C10.9004 86.7832 9.81402 87.5512 9.92641 86.802C10.4322 86.3337 10.9379 85.8467 11.4437 85.3784C11.5935 85.2098 11.9869 84.8539 12.0431 84.8351C12.5863 84.2357 13.2044 83.5427 13.8788 83.0931C13.9162 83.0369 13.9724 82.9807 14.0099 82.9058C15.3211 81.6882 16.651 80.452 17.9061 79.1595C21.6711 75.563 25.4549 71.9665 29.2387 68.4263C29.3511 68.2764 29.4635 68.1266 29.632 68.0329C31.936 65.8226 32.0859 65.654 34.8207 63.0503C35.008 62.9192 35.008 62.9192 35.0642 62.8068C35.0642 62.3572 34.802 62.5633 34.5584 62.7506C33.8841 63.4249 33.1536 64.0243 32.4605 64.68C32.1983 65.0546 31.73 65.3168 31.4303 65.6727C30.7747 66.2721 30.0067 67.0776 29.2574 67.6021C28.7142 68.1453 28.096 68.7072 27.4966 69.1755C25.3425 71.2547 22.9636 73.1279 20.8282 75.2258C19.7792 76.05 18.8614 77.1177 17.7937 77.9232C17.5127 78.2416 17.5127 78.2416 15.6021 80.0024C15.5272 80.0586 15.471 80.0961 15.396 80.1335C13.2606 82.1003 11.0878 84.0297 8.9149 85.959C8.67139 85.959 8.6152 85.9028 8.63393 85.6593C11.2376 81.8756 13.8413 78.073 16.4075 74.2705C17.4565 72.6971 18.4867 71.0862 19.5919 69.5502C20.3786 68.3888 20.4348 68.2764 20.7158 67.9018C22.7201 64.9235 24.818 61.9264 26.7848 58.9106C27.0283 58.6671 26.9534 58.5173 26.635 58.5547C24.9679 60.8962 23.2446 63.2002 21.5962 65.5791C21.3152 65.935 20.7907 66.7217 15.2087 74.5328C15.0776 74.7388 13.0733 77.4736 12.9422 77.6422C11.144 80.1522 9.34573 82.6997 7.51003 85.1723C7.41637 85.2472 7.32272 85.3222 7.1916 85.2472V85.0225C8.50281 81.6133 9.88894 78.1854 11.3125 74.8325C13.3918 69.6064 15.471 64.3428 17.5876 59.1167C17.5876 59.0043 17.5876 59.0043 17.5127 58.9106C17.4378 58.9106 17.3628 58.9294 17.3067 58.9855C15.6957 62.6007 14.0286 66.2159 12.399 69.8311C12.3241 69.9248 10.6195 73.7273 10.1325 74.7014C9.92641 75.2071 9.75782 75.5255 9.53304 76.05C8.14691 78.9722 6.81696 81.9505 5.48702 84.9101C5.31844 84.985 5.16858 85.0037 5 84.9288C5.01873 84.7228 5.01873 84.7228 5.67434 82.3064C5.73053 82.1753 5.91785 81.4447 5.97404 81.2949C6.03024 81.0326 6.08643 80.9015 6.72331 78.3915C7.06047 77.1365 7.39764 75.8814 7.75354 74.6452C7.80974 74.3829 10.9941 62.863 11.0316 62.6944C11.144 62.3198 11.2376 61.9639 11.35 61.5892C11.7621 59.9783 12.1929 58.4798 12.5114 57.1873C12.5488 57.0937 12.5863 57.0749 12.6612 57.0187C18.3556 57.0187 24.0688 57.0375 29.7819 57C31.5239 57.0937 33.3034 57.3934 34.9143 58.1426C35.0829 58.2737 35.0829 58.2737 35.495 58.4985C35.8509 58.7608 36.2256 59.0605 36.5627 59.3976C36.75 59.6599 36.9186 59.9221 37.1059 60.1844C37.2183 60.4466 37.312 60.7276 37.4244 60.9898C37.4993 61.3832 37.593 61.7766 37.6679 62.1512C37.6679 62.4509 37.6679 62.7881 37.6866 63.144ZM46.8089 64.6238C46.6965 65.4292 46.5654 66.1785 46.3406 66.9465C45.8723 67.9205 45.8723 67.9205 45.5726 68.4637C45.0294 69.2879 44.3363 69.981 43.6058 70.6366C42.894 71.1798 42.894 71.1798 42.126 71.723C41.2082 72.2662 40.1967 72.6971 39.2226 73.1466C38.848 73.259 38.3984 73.3527 38.0613 73.5587C38.0613 73.6524 38.0613 73.6524 38.08 73.6898C39.335 73.821 40.4402 74.2518 41.4891 74.9449C41.9949 75.3757 42.4819 75.8065 42.9127 76.331C43.4185 77.0615 43.8119 77.7733 44.1116 78.5975C44.1865 78.9347 44.2614 79.2531 44.3363 79.5903C44.3925 80.1148 44.3925 80.6393 44.3925 81.1825C44.2239 82.7185 43.662 84.0859 42.8378 85.3971C42.3133 86.1276 42.3133 86.1276 41.7888 86.802C40.8897 87.7385 39.7846 88.8062 38.5857 89.3495C37.7054 90.0051 36.5253 90.4172 35.5138 90.8293C34.8769 91.0166 34.2213 91.2226 33.5844 91.4287C32.1421 91.6909 32.1421 91.6909 31.9922 91.7471C30.8871 91.8595 30.8871 91.8595 30.5873 91.9157C24.1811 92.1779 17.7 92.0655 11.2938 92.0655C11.2189 91.9344 11.1814 91.7471 11.35 91.6722C14.422 91.5411 17.5127 91.3912 20.5847 91.2975C21.1841 91.2975 21.8397 91.3163 22.4204 91.2226C24.4809 91.1477 26.4851 91.054 28.5269 90.7356C28.658 90.6794 29.2012 90.567 30.0067 90.361C33.9965 89.0685 37.6304 86.5397 39.3163 82.5686C39.4287 82.2127 39.4287 82.2127 39.5411 82.0067L39.822 80.658C39.8408 79.5528 39.8408 79.5528 39.822 79.122C39.6722 78.0543 39.2788 76.9866 38.6607 76.1062C38.3797 75.8065 38.1174 75.4881 37.8365 75.1884C36.5253 74.1581 35.2328 73.4651 33.5469 73.3339C33.5469 73.2028 33.5844 73.1841 33.6968 73.1279C34.1089 73.0155 34.1089 73.0155 34.6896 72.8095C37.3495 71.6481 39.7284 70.0934 41.2269 67.5459C41.3767 67.2087 41.5266 66.8528 41.6765 66.4969C41.9387 65.6353 42.0885 64.7736 42.1635 63.8745C42.126 63.4811 42.1073 63.0878 42.0885 62.6944C42.0136 62.4509 41.9387 62.1887 41.8638 61.9264C41.5453 61.1584 41.2082 60.6901 40.6275 60.1094C39.7096 59.3789 38.6794 58.8357 37.518 58.5735C37.518 58.5547 37.518 58.5173 37.5368 58.4985C38.1362 58.3861 38.8667 58.4985 39.4661 58.536C39.7471 58.5922 39.7471 58.5922 40.7586 58.7046C41.0958 58.7795 41.4329 58.8544 41.7888 58.9294C42.8753 59.2291 43.9617 59.6037 44.8796 60.2593C45.1418 60.5028 45.4228 60.7463 45.685 60.9898C45.9098 61.3457 46.1346 61.6829 46.3593 62.0201C46.4717 62.3572 46.5841 62.6757 46.6965 63.0128C46.7152 63.4999 46.7902 64.0618 46.8089 64.6238Z" fill="#663366"/>
</svg>
