<svg width="150" height="150" viewBox="0 0 150 150" fill="none" xmlns="http://www.w3.org/2000/svg">
<path d="M144.718 70.3516H5V78.8023H144.718V70.3516Z" stroke="#663366" stroke-width="4.22535" stroke-miterlimit="10"/>
<path d="M25.5635 78.8047H8.66211V87.2554H25.5635V78.8047Z" stroke="#663366" stroke-width="4.22535" stroke-miterlimit="10"/>
<path d="M21.3374 87.2539H12.8867V128.099H21.3374V87.2539Z" stroke="#663366" stroke-width="4.22535" stroke-miterlimit="10"/>
<path d="M25.5635 128.098H8.66211V136.548H25.5635V128.098Z" stroke="#663366" stroke-width="4.22535" stroke-miterlimit="10"/>
<path d="M141.056 70.3517H8.66211V44.9996L74.8593 25.2812L141.056 44.9996V70.3517Z" stroke="#663366" stroke-width="4.22535" stroke-miterlimit="10"/>
<path d="M144.718 136.551H5V145.001H144.718V136.551Z" stroke="#663366" stroke-width="4.22535" stroke-miterlimit="10"/>
<path d="M88.9444 128.098H60.7754V136.548H88.9444V128.098Z" stroke="#663366" stroke-width="4.22535" stroke-miterlimit="10"/>
<path d="M84.7183 94.8594H65V128.099H84.7183V94.8594Z" stroke="#663366" stroke-width="4.22535" stroke-miterlimit="10"/>
<path d="M56.5494 94.8594H31.1973V114.578H56.5494V94.8594Z" stroke="#663366" stroke-width="4.22535" stroke-miterlimit="10"/>
<path d="M31.1973 104.719H56.5494" stroke="#663366" stroke-width="4.22535" stroke-miterlimit="10"/>
<path d="M43.873 114.578V94.8594" stroke="#663366" stroke-width="4.22535" stroke-miterlimit="10"/>
<path d="M93.1694 114.578L118.521 114.578L118.521 94.8598L93.1694 94.8598L93.1694 114.578Z" stroke="#663366" stroke-width="4.22535" stroke-miterlimit="10"/>
<path d="M118.522 104.719H93.1699" stroke="#663366" stroke-width="4.22535" stroke-miterlimit="10"/>
<path d="M105.846 114.578V94.8594" stroke="#663366" stroke-width="4.22535" stroke-miterlimit="10"/>
<path d="M124.155 87.2539L141.057 87.2539L141.057 78.8032L124.155 78.8032L124.155 87.2539Z" stroke="#663366" stroke-width="4.22535" stroke-miterlimit="10"/>
<path d="M128.381 128.098L136.832 128.098L136.832 87.2526L128.381 87.2526L128.381 128.098Z" stroke="#663366" stroke-width="4.22535" stroke-miterlimit="10"/>
<path d="M124.155 136.551L141.057 136.551L141.057 128.1L124.155 128.1L124.155 136.551Z" stroke="#663366" stroke-width="4.22535" stroke-miterlimit="10"/>
<path d="M46.6907 53.4492H39.6484V61.8999H46.6907C49.0242 61.8999 50.916 60.0081 50.916 57.6746C50.916 55.341 49.0242 53.4492 46.6907 53.4492Z" stroke="#663366" stroke-width="4.22535" stroke-miterlimit="10"/>
<path d="M46.6907 53.4507H39.6484V45H46.6907C49.0242 45 50.916 46.8918 50.916 49.2254C50.916 51.5589 49.0242 53.4507 46.6907 53.4507Z" stroke="#663366" stroke-width="4.22535" stroke-miterlimit="10"/>
<path d="M70.6348 64.1549V50.6338C70.6348 47.5223 68.1125 45 65.001 45C61.8894 45 59.3672 47.5223 59.3672 50.6338V64.1549" stroke="#663366" stroke-width="4.22535" stroke-miterlimit="10"/>
<path d="M59.3672 57.957H70.6348" stroke="#663366" stroke-width="4.22535" stroke-miterlimit="10"/>
<path d="M79.084 64.1545V44.9996H79.3657L90.0699 61.901H90.3516V42.7461" stroke="#663366" stroke-width="4.22535" stroke-miterlimit="10"/>
<path d="M110.071 64.1552C110.071 55.7045 103.592 52.3242 103.592 52.3242" stroke="#663366" stroke-width="4.22535" stroke-miterlimit="10"/>
<path d="M98.8027 54.5771C98.8027 54.5771 110.07 51.7602 110.07 42.7461" stroke="#663366" stroke-width="4.22535" stroke-miterlimit="10"/>
<path d="M98.8027 64.1545V42.7461" stroke="#663366" stroke-width="4.22535" stroke-miterlimit="10"/>
<path d="M87.8171 5H74.8594V16.2676H87.8171V5Z" stroke="#663366" stroke-width="4.22535" stroke-miterlimit="10"/>
<path d="M100.774 8.94531H87.8164V20.2129H100.774V8.94531Z" stroke="#663366" stroke-width="4.22535" stroke-miterlimit="10"/>
<path d="M74.8594 16.2695V25.2836" stroke="#663366" stroke-width="4.22535" stroke-miterlimit="10"/>
</svg>
