<svg width="150" height="150" viewBox="0 0 150 150" fill="none" xmlns="http://www.w3.org/2000/svg">
<path fill-rule="evenodd" clip-rule="evenodd" d="M131.112 57.9627L144.388 82.4149C145.974 85.0515 144.318 87.758 141.285 87.268C140.328 87.128 134.168 86.2881 126.399 85.2381L128.615 82.2516L139.161 83.4182C140.025 83.5115 140.445 83.2782 139.931 82.3216C139.931 82.3216 130.015 62.3258 129.899 62.1158C129.572 61.4859 129.199 61.6959 128.895 62.2558C128.895 62.2558 119.142 79.965 119.026 80.175C118.652 80.875 118.816 81.2016 119.842 81.3183L123.669 81.7383L121.452 84.4682L116.459 83.6749C115.199 83.5115 114.803 82.7182 115.479 81.435C115.992 80.455 127.635 59.2226 127.635 59.2226C127.869 58.826 128.055 58.4993 128.289 58.0793C129.012 56.8194 130.272 56.5161 131.112 57.9627Z" fill="#00AEEF"/>
<path fill-rule="evenodd" clip-rule="evenodd" d="M102.319 76.7212L119.725 73.6413L118.232 76.3478L106.215 78.3777C105.609 78.5177 105.655 78.7744 106.052 79.031C106.052 79.031 116.528 86.2874 117.555 86.9407C118.372 87.5007 118.815 87.7107 119.491 86.8474C119.491 86.8474 128.008 76.3945 128.451 75.6945C129.104 74.8312 129.384 74.4812 128.358 74.6679L122.455 75.6479L123.971 72.918L131.904 71.4714C133.701 71.1681 134.424 72.428 133.537 73.758C132.768 74.8546 120.215 91.7471 120.215 91.7471C119.398 92.9371 118.791 92.8904 117.835 92.0505C116.668 91.0705 101.806 78.7511 101.806 78.7511C100.802 77.9578 101.106 76.9311 102.319 76.7212Z" fill="#FFD400"/>
<path fill-rule="evenodd" clip-rule="evenodd" d="M12.7463 87.6415C12.583 88.2015 12.373 88.6448 12.163 88.9715C11.9297 89.2981 11.673 89.5081 11.393 89.6481C11.1131 89.7648 10.7631 89.8348 10.3664 89.8348C9.26981 89.8348 8.47651 89.3448 7.93987 88.3648C7.68321 87.8748 7.51989 87.3149 7.40323 86.6382C7.28656 85.9616 7.2399 85.075 7.2399 84.0017C7.2399 81.8551 7.49655 80.3152 8.00987 79.3119C8.52318 78.3319 9.33981 77.842 10.4364 77.842C10.8097 77.842 11.1131 77.8886 11.3697 77.982C11.6264 78.0753 11.8364 78.2386 12.023 78.4953C12.233 78.7519 12.3963 79.0786 12.583 79.5219C12.7697 79.9652 12.9563 80.5485 13.1663 81.2718C13.1896 81.3185 13.213 81.3651 13.213 81.4351C13.2363 81.5051 13.2596 81.5751 13.283 81.6685H13.7263V78.1919C12.6997 77.6786 11.673 77.4453 10.6464 77.4453C9.78312 77.4453 9.01315 77.6086 8.31318 77.912C7.61322 78.2153 7.02991 78.6353 6.53993 79.2186C6.04995 79.8019 5.6533 80.4785 5.39665 81.2718C5.13999 82.0651 5 82.9751 5 83.955C5 84.9117 5.13999 85.7983 5.39665 86.5682C5.67664 87.3382 6.04995 88.0148 6.5166 88.5748C7.00658 89.1115 7.58988 89.5548 8.26652 89.8581C8.96649 90.1614 9.73645 90.3014 10.5764 90.3014C11.6264 90.3014 12.6997 90.0681 13.7496 89.5781V85.5416H13.2596C13.0963 86.3582 12.9096 87.0582 12.7463 87.6415ZM21.7759 83.6517C21.7759 82.6951 21.5193 81.9718 21.0059 81.4818C20.4926 80.9918 19.746 80.7352 18.766 80.7352C17.7161 80.7352 16.7361 80.9918 15.8262 81.4818V84.305H16.3162C16.4562 83.8617 16.5728 83.4884 16.6895 83.1851C16.8061 82.8584 16.9461 82.5551 17.0628 82.2984C17.2728 81.8318 17.4828 81.5518 17.6928 81.3885C17.9261 81.2485 18.2527 81.1552 18.6727 81.1552C19.7227 81.1552 20.2593 81.8085 20.2593 83.1384V84.445C20.026 84.5383 19.816 84.6317 19.6293 84.7017C19.466 84.7717 19.2794 84.8416 19.116 84.9116C18.9527 84.9583 18.766 85.005 18.5561 85.0516C18.3694 85.0983 18.1594 85.1216 17.8794 85.1916C17.3194 85.3083 16.8761 85.425 16.5728 85.5416C16.2928 85.6583 16.0362 85.7983 15.8028 85.9616C15.5229 86.1716 15.3129 86.4516 15.1729 86.7782C15.0329 87.1049 14.9396 87.4549 14.9396 87.8049C14.9396 88.5282 15.1729 89.1115 15.6162 89.5548C16.0828 89.9981 16.6895 90.2314 17.4594 90.2314C18.8127 90.2314 19.746 89.6014 20.2126 88.3648V89.9981H22.6159V89.5781H21.7526V83.6517H21.7759ZM20.236 86.1249C20.236 87.1982 20.026 88.0615 19.6293 88.6915C19.2327 89.3214 18.6727 89.6248 17.9728 89.6248C17.1095 89.6248 16.6661 88.9948 16.6661 87.7349C16.6661 87.0815 16.7828 86.6149 17.0161 86.3116C17.2495 86.0083 17.6694 85.7749 18.2761 85.6116C18.5327 85.5416 18.7427 85.4716 18.9294 85.425C19.0927 85.3783 19.256 85.3316 19.396 85.285C19.536 85.2383 19.676 85.1916 19.7927 85.145C19.9327 85.0983 20.0727 85.0283 20.2126 84.9583V86.1249H20.236ZM30.8522 82.8117C30.8522 82.1351 30.6422 81.6451 30.2689 81.2951C29.8722 80.9452 29.2889 80.7585 28.5189 80.7585C27.9356 80.7585 27.469 80.8985 27.0957 81.1552C26.7224 81.4351 26.419 81.8784 26.1624 82.4851V80.9918H23.7125V81.4118H24.5758V89.5781H23.7125V89.9981H27.2357V89.5781H26.1157V84.3283C26.1157 83.4417 26.3024 82.7184 26.6524 82.1818C27.0023 81.6451 27.4923 81.3651 28.0756 81.3651C28.4723 81.3651 28.7756 81.5051 28.9856 81.7618C29.1956 82.0184 29.2889 82.4151 29.2889 82.9051V89.5781H28.169V89.9981H31.6921V89.5781H30.8522V82.8117ZM39.4385 83.6517C39.4385 82.6951 39.1818 81.9718 38.6685 81.4818C38.1552 80.9918 37.4085 80.7352 36.4286 80.7352C35.3786 80.7352 34.3987 80.9918 33.4887 81.4818V84.305H33.9787C34.1187 83.8617 34.2354 83.4884 34.352 83.1851C34.4687 82.8584 34.6087 82.5551 34.7253 82.2984C34.9353 81.8318 35.1453 81.5518 35.3553 81.3885C35.5886 81.2485 35.9153 81.1552 36.3353 81.1552C37.3852 81.1552 37.9219 81.8085 37.9219 83.1384V84.445C37.6885 84.5383 37.4785 84.6317 37.2919 84.7017C37.1286 84.7717 36.9419 84.8416 36.7786 84.9116C36.6152 84.9583 36.4286 85.005 36.2186 85.0516C36.0319 85.0983 35.8219 85.1216 35.542 85.1916C34.982 85.3083 34.5387 85.425 34.2354 85.5416C33.9554 85.6583 33.6987 85.7983 33.4887 85.9616C33.2087 86.1716 32.9987 86.4516 32.8587 86.7782C32.7188 87.1049 32.6254 87.4549 32.6254 87.8049C32.6254 88.5282 32.8588 89.1115 33.3021 89.5548C33.7687 89.9981 34.3753 90.2314 35.1453 90.2314C36.4986 90.2314 37.4319 89.6014 37.8985 88.3648V89.9981H40.3017V89.5781H39.4385V83.6517ZM37.8985 86.1249C37.8985 87.1982 37.6885 88.0615 37.2919 88.6915C36.8952 89.3214 36.3353 89.6248 35.6353 89.6248C34.772 89.6248 34.3287 88.9948 34.3287 87.7349C34.3287 87.0815 34.4453 86.6149 34.6787 86.3116C34.912 86.0083 35.332 85.7749 35.9386 85.6116C36.1953 85.5416 36.4053 85.4716 36.5919 85.425C36.7552 85.3783 36.9186 85.3316 37.0586 85.285C37.1986 85.2383 37.3385 85.1916 37.4552 85.145C37.5952 85.0983 37.7352 85.0283 37.8752 84.9583V86.1249H37.8985ZM46.0415 80.7585C45.5282 80.7585 45.1082 80.8985 44.7582 81.1552C44.4316 81.4118 44.1049 81.8551 43.8016 82.4851V80.9918H41.3984V81.4118H42.2617V89.5781H41.3984V89.9981H45.1315V89.5781H43.9183V85.2616C43.9183 84.8883 43.9183 84.5383 43.9416 84.2583C43.9649 83.9784 43.9883 83.7217 44.0349 83.5117C44.0816 83.2784 44.1282 83.0684 44.1749 82.8817C44.2449 82.6951 44.3149 82.5084 44.4082 82.3218C44.5249 82.0651 44.6882 81.8551 44.8982 81.6918C45.1082 81.5051 45.2715 81.4118 45.4115 81.4118C45.4815 81.4118 45.5515 81.4118 45.5982 81.4585C45.6448 81.4585 45.6915 81.5051 45.7382 81.5985C45.7848 81.6685 45.8315 81.7618 45.8782 81.8784C45.9482 81.9951 46.0182 82.1584 46.0882 82.3684C46.2281 82.6951 46.3448 83.0217 46.4148 83.3484C46.5081 83.675 46.6015 84.0484 46.7181 84.4683H47.2314V81.0852C47.0214 80.9685 46.8348 80.8752 46.6481 80.8285C46.4381 80.7818 46.2515 80.7585 46.0415 80.7585ZM54.7211 83.6517C54.7211 82.6951 54.4644 81.9718 53.9511 81.4818C53.4378 80.9918 52.6912 80.7352 51.7112 80.7352C50.6613 80.7352 49.6813 80.9918 48.7714 81.4818V84.305H49.2613C49.4013 83.8617 49.518 83.4884 49.6347 83.1851C49.7513 82.8584 49.8913 82.5551 50.008 82.2984C50.218 81.8318 50.428 81.5518 50.6379 81.3885C50.8713 81.2485 51.1979 81.1552 51.6179 81.1552C52.6679 81.1552 53.2045 81.8085 53.2045 83.1384V84.445C52.9712 84.5383 52.7612 84.6317 52.5745 84.7017C52.4112 84.7717 52.2245 84.8416 52.0612 84.9116C51.8979 84.9583 51.7112 85.005 51.5012 85.0516C51.3146 85.0983 51.1046 85.1216 50.8246 85.1916C50.2646 85.3083 49.8213 85.425 49.518 85.5416C49.238 85.6583 48.9814 85.7983 48.748 85.9616C48.468 86.1716 48.2581 86.4516 48.1181 86.7782C47.9781 87.1049 47.8847 87.4549 47.8847 87.8049C47.8847 88.5282 48.1181 89.1115 48.5614 89.5548C49.028 89.9981 49.6347 90.2314 50.4046 90.2314C51.7579 90.2314 52.6912 89.6014 53.1578 88.3648V89.9981H55.5611V89.5781H54.6978V83.6517H54.7211ZM53.1812 86.1249C53.1812 87.1982 52.9712 88.0615 52.5745 88.6915C52.1779 89.3214 51.6179 89.6248 50.9179 89.6248C50.0546 89.6248 49.6113 88.9948 49.6113 87.7349C49.6113 87.0815 49.728 86.6149 49.9613 86.3116C50.1946 86.0083 50.6146 85.7749 51.2213 85.6116C51.4779 85.5416 51.6879 85.4716 51.8746 85.425C52.0379 85.3783 52.2012 85.3316 52.3412 85.285C52.4812 85.2383 52.6212 85.1916 52.7379 85.145C52.8778 85.0983 53.0178 85.0283 53.1578 84.9583V86.1249H53.1812ZM68.8138 84.0484C68.5105 83.885 68.1605 83.745 67.8105 83.6517C67.4605 83.5584 66.9706 83.5117 66.3639 83.465C67.3205 83.3251 68.0672 82.9751 68.6038 82.4618C69.1405 81.9484 69.3971 81.2951 69.3971 80.5252C69.3971 80.0819 69.3038 79.6619 69.0938 79.2886C68.8838 78.9153 68.5805 78.5886 68.1838 78.3086C67.8572 78.0753 67.4605 77.912 67.0172 77.8186C66.5739 77.7253 65.9906 77.6786 65.2673 77.6786H60.9275V78.0986H62.0241V89.6014H60.9275V90.0214H64.894C65.5939 90.0214 66.2239 89.9748 66.8072 89.8814C67.3672 89.7881 67.8572 89.6481 68.2538 89.4614C68.8605 89.1815 69.3505 88.7848 69.7238 88.2482C70.0738 87.7115 70.2604 87.1282 70.2604 86.4982C70.2604 85.9849 70.1204 85.495 69.8638 85.075C69.6071 84.655 69.2571 84.305 68.8138 84.0484ZM63.8907 78.0753H65.2206C65.9906 78.0753 66.5506 78.2853 66.9006 78.7053C67.2505 79.1019 67.4372 79.7552 67.4372 80.6418C67.4372 81.5985 67.2039 82.2751 66.7606 82.6951C66.3173 83.0917 65.5939 83.3017 64.5673 83.3017H63.8674V78.0753H63.8907ZM67.4372 88.9015C66.9239 89.3681 66.0839 89.5781 64.8706 89.5781H63.8907V83.745H65.2673C65.8039 83.745 66.2706 83.7917 66.6439 83.9084C67.0172 84.0017 67.3205 84.165 67.5539 84.3983C67.8105 84.6083 67.9738 84.9116 68.0672 85.2616C68.1838 85.6116 68.2305 86.0549 68.2305 86.5682C68.2072 87.6415 67.9505 88.4348 67.4372 88.9015ZM78.0767 83.6517C78.0767 82.6951 77.8201 81.9718 77.3068 81.4818C76.7934 80.9918 76.0468 80.7352 75.0669 80.7352C74.0169 80.7352 73.0369 80.9918 72.127 81.4818V84.305H72.617C72.757 83.8617 72.8736 83.4884 72.9903 83.1851C73.1069 82.8584 73.2469 82.5551 73.3636 82.2984C73.5736 81.8318 73.7836 81.5518 73.9936 81.3885C74.2036 81.2485 74.5535 81.1552 74.9735 81.1552C76.0235 81.1552 76.5601 81.8085 76.5601 83.1384V84.445C76.3268 84.5383 76.1168 84.6317 75.9301 84.7017C75.7668 84.7717 75.5802 84.8416 75.4168 84.9116C75.2535 84.9583 75.0669 85.005 74.8569 85.0516C74.6702 85.0983 74.4602 85.1216 74.1802 85.1916C73.6203 85.3083 73.1769 85.425 72.897 85.5416C72.617 85.6583 72.3603 85.7983 72.127 85.9616C71.847 86.1716 71.637 86.4516 71.497 86.7782C71.357 87.1049 71.2637 87.4549 71.2637 87.8049C71.2637 88.5282 71.497 89.1115 71.9403 89.5548C72.407 89.9981 73.0136 90.2314 73.7836 90.2314C75.1369 90.2314 76.0468 89.6014 76.5368 88.3648V89.9981H78.94V89.5781H78.0767V83.6517ZM76.5368 86.1249C76.5368 87.1982 76.3268 88.0615 75.9301 88.6915C75.5335 89.3214 74.9735 89.6248 74.2736 89.6248C73.4103 89.6248 72.967 88.9948 72.967 87.7349C72.967 87.0815 73.0836 86.6149 73.3169 86.3116C73.5503 86.0083 73.9702 85.7749 74.5769 85.6116C74.8335 85.5416 75.0435 85.4716 75.2302 85.425C75.3935 85.3783 75.5568 85.3316 75.6968 85.285C75.8368 85.2383 75.9768 85.1916 76.0935 85.145C76.2335 85.0983 76.3735 85.0283 76.5135 84.9583V86.1249H76.5368ZM87.153 82.8117C87.153 82.1351 86.9663 81.6451 86.5697 81.2951C86.173 80.9452 85.5897 80.7585 84.8198 80.7585C84.2364 80.7585 83.7698 80.8985 83.3965 81.1552C83.0232 81.4351 82.7198 81.8784 82.4399 82.4851V80.9918H80.0366V81.4118H80.8999V89.5781H80.0366V89.9981H83.5598V89.5781H82.4399V84.3283C82.4399 83.4417 82.6265 82.7184 82.9765 82.1818C83.3265 81.6451 83.8165 81.3651 84.3998 81.3651C84.7964 81.3651 85.0997 81.5051 85.3097 81.7618C85.5197 82.0184 85.613 82.4151 85.613 82.9051V89.5781H84.4931V89.9981H88.0163V89.5781H87.153V82.8117ZM91.4228 77.6553H89.0196V78.0753H89.8829V89.5781H89.0196V89.9981H92.5427V89.5781H91.4228V77.6553ZM96.3459 89.5781L92.7294 84.4683L95.3193 81.4118H96.1592V80.9918H93.616V81.4118H94.736L91.4928 85.2383L94.736 89.9981H97.0459V89.5781H96.3459Z" fill="#663366"/>
</svg>
