<svg width="150" height="150" viewBox="0 0 150 150" fill="none" xmlns="http://www.w3.org/2000/svg">
<path d="M5 142.625H145" stroke="#663366" stroke-width="4.10156" stroke-miterlimit="10"/>
<path d="M54.4922 142.625V63.3281H87.3047V142.625" stroke="#663366" stroke-width="4.10156" stroke-miterlimit="10"/>
<path d="M64.0625 142.625V128.953H77.7344V142.625" stroke="#663366" stroke-width="4.10156" stroke-miterlimit="10"/>
<path d="M10.7422 142.625V82.4688H43.5547V115.281" stroke="#663366" stroke-width="4.10156" stroke-miterlimit="10"/>
<path d="M29.1992 90.6719H25.0977" stroke="#663366" stroke-width="4.10156" stroke-miterlimit="10"/>
<path d="M20.8594 90.6719H16.7578" stroke="#663366" stroke-width="4.10156" stroke-miterlimit="10"/>
<path d="M37.5391 90.6719H33.4375" stroke="#663366" stroke-width="4.10156" stroke-miterlimit="10"/>
<path d="M29.1992 98.875H25.0977" stroke="#663366" stroke-width="4.10156" stroke-miterlimit="10"/>
<path d="M20.8594 98.875H16.7578" stroke="#663366" stroke-width="4.10156" stroke-miterlimit="10"/>
<path d="M37.5391 98.875H33.4375" stroke="#663366" stroke-width="4.10156" stroke-miterlimit="10"/>
<path d="M29.1992 107.078H25.0977" stroke="#663366" stroke-width="4.10156" stroke-miterlimit="10"/>
<path d="M20.8594 107.078H16.7578" stroke="#663366" stroke-width="4.10156" stroke-miterlimit="10"/>
<path d="M37.5391 107.078H33.4375" stroke="#663366" stroke-width="4.10156" stroke-miterlimit="10"/>
<path d="M54.4922 142.625V115.281H21.6797V142.625" stroke="#663366" stroke-width="4.10156" stroke-miterlimit="10"/>
<path d="M40.1367 123.484H36.0352" stroke="#663366" stroke-width="4.10156" stroke-miterlimit="10"/>
<path d="M31.7969 123.484H27.6953" stroke="#663366" stroke-width="4.10156" stroke-miterlimit="10"/>
<path d="M48.4766 123.484H44.375" stroke="#663366" stroke-width="4.10156" stroke-miterlimit="10"/>
<path d="M46.2891 142.625V131.688H29.8828V142.625" stroke="#663366" stroke-width="4.10156" stroke-miterlimit="10"/>
<path d="M38.0859 142.625V131.688" stroke="#663366" stroke-width="4.10156" stroke-miterlimit="10"/>
<path d="M145 142.625H5" stroke="#663366" stroke-width="4.10156" stroke-miterlimit="10"/>
<path d="M111.914 87.9375H87.3047" stroke="#663366" stroke-width="4.10156" stroke-miterlimit="10"/>
<path d="M111.914 115.281V71.5312H139.258V142.625" stroke="#663366" stroke-width="4.10156" stroke-miterlimit="10"/>
<path d="M123.535 82.4688H119.434" stroke="#663366" stroke-width="4.10156" stroke-miterlimit="10"/>
<path d="M131.738 82.4688H127.637" stroke="#663366" stroke-width="4.10156" stroke-miterlimit="10"/>
<path d="M123.535 90.6719H119.434" stroke="#663366" stroke-width="4.10156" stroke-miterlimit="10"/>
<path d="M131.738 90.6719H127.637" stroke="#663366" stroke-width="4.10156" stroke-miterlimit="10"/>
<path d="M123.535 98.875H119.434" stroke="#663366" stroke-width="4.10156" stroke-miterlimit="10"/>
<path d="M131.738 98.875H127.637" stroke="#663366" stroke-width="4.10156" stroke-miterlimit="10"/>
<path d="M123.535 107.078H119.434" stroke="#663366" stroke-width="4.10156" stroke-miterlimit="10"/>
<path d="M131.738 107.078H127.637" stroke="#663366" stroke-width="4.10156" stroke-miterlimit="10"/>
<path d="M105.762 98.875H101.66" stroke="#663366" stroke-width="4.10156" stroke-miterlimit="10"/>
<path d="M97.4219 98.875H93.3203" stroke="#663366" stroke-width="4.10156" stroke-miterlimit="10"/>
<path d="M105.762 107.078H101.66" stroke="#663366" stroke-width="4.10156" stroke-miterlimit="10"/>
<path d="M97.4219 107.078H93.3203" stroke="#663366" stroke-width="4.10156" stroke-miterlimit="10"/>
<path d="M129.961 142.625V115.281H97.1484V142.625" stroke="#663366" stroke-width="4.10156" stroke-miterlimit="10"/>
<path d="M115.605 123.484H111.504" stroke="#663366" stroke-width="4.10156" stroke-miterlimit="10"/>
<path d="M107.266 123.484H103.164" stroke="#663366" stroke-width="4.10156" stroke-miterlimit="10"/>
<path d="M123.945 123.484H119.844" stroke="#663366" stroke-width="4.10156" stroke-miterlimit="10"/>
<path d="M121.758 142.625V131.688H105.352V142.625" stroke="#663366" stroke-width="4.10156" stroke-miterlimit="10"/>
<path d="M113.555 142.625V131.688" stroke="#663366" stroke-width="4.10156" stroke-miterlimit="10"/>
<path d="M60.6445 77H64.7461" stroke="#663366" stroke-width="4.10156" stroke-miterlimit="10"/>
<path d="M68.8477 77H72.9492" stroke="#663366" stroke-width="4.10156" stroke-miterlimit="10"/>
<path d="M77.0508 77H81.1523" stroke="#663366" stroke-width="4.10156" stroke-miterlimit="10"/>
<path d="M60.6445 85.2031H64.7461" stroke="#663366" stroke-width="4.10156" stroke-miterlimit="10"/>
<path d="M68.8477 85.2031H72.9492" stroke="#663366" stroke-width="4.10156" stroke-miterlimit="10"/>
<path d="M77.0508 85.2031H81.1523" stroke="#663366" stroke-width="4.10156" stroke-miterlimit="10"/>
<path d="M60.6445 93.4062H64.7461" stroke="#663366" stroke-width="4.10156" stroke-miterlimit="10"/>
<path d="M68.8477 93.4062H72.9492" stroke="#663366" stroke-width="4.10156" stroke-miterlimit="10"/>
<path d="M77.0508 93.4062H81.1523" stroke="#663366" stroke-width="4.10156" stroke-miterlimit="10"/>
<path d="M60.6445 101.609H64.7461" stroke="#663366" stroke-width="4.10156" stroke-miterlimit="10"/>
<path d="M68.8477 101.609H72.9492" stroke="#663366" stroke-width="4.10156" stroke-miterlimit="10"/>
<path d="M77.0508 101.609H81.1523" stroke="#663366" stroke-width="4.10156" stroke-miterlimit="10"/>
<path d="M60.6445 109.812H64.7461" stroke="#663366" stroke-width="4.10156" stroke-miterlimit="10"/>
<path d="M68.8477 109.812H72.9492" stroke="#663366" stroke-width="4.10156" stroke-miterlimit="10"/>
<path d="M77.0508 109.812H81.1523" stroke="#663366" stroke-width="4.10156" stroke-miterlimit="10"/>
<path d="M60.6445 118.016H64.7461" stroke="#663366" stroke-width="4.10156" stroke-miterlimit="10"/>
<path d="M68.8477 118.016H72.9492" stroke="#663366" stroke-width="4.10156" stroke-miterlimit="10"/>
<path d="M77.0508 118.016H81.1523" stroke="#663366" stroke-width="4.10156" stroke-miterlimit="10"/>
<path d="M125.586 71.5312V55.9453H136.523V43.3672" stroke="#663366" stroke-width="4.10156" stroke-miterlimit="10"/>
<path d="M71.4453 63.3281V54.3047H65.9766V46.1016" stroke="#663366" stroke-width="4.10156" stroke-miterlimit="10"/>
<path d="M29.8828 82.4688V69.6172H24.4141V57.0391" stroke="#663366" stroke-width="4.10156" stroke-miterlimit="10"/>
<path d="M98.5156 87.9375V60.0469H109.453V43.9141" stroke="#663366" stroke-width="4.10156" stroke-miterlimit="10"/>
<path d="M137.891 18.2109L133.789 28.0547H139.805L135.156 38.4453" stroke="#663366" stroke-width="4.10156" stroke-miterlimit="10"/>
<path d="M109.453 23.4062C111.718 23.4062 113.555 21.5699 113.555 19.3047C113.555 17.0395 111.718 15.2031 109.453 15.2031C107.188 15.2031 105.352 17.0395 105.352 19.3047C105.352 21.5699 107.188 23.4062 109.453 23.4062Z" stroke="#663366" stroke-width="4.10156" stroke-miterlimit="10"/>
<path d="M109.453 36.7052L100.752 28.0057C98.3507 25.603 97.1484 22.4547 97.1484 19.3047C97.1484 12.5089 102.657 7 109.453 7C116.249 7 121.758 12.5089 121.758 19.3047C121.758 22.4547 120.556 25.603 118.154 28.0057L109.453 36.7052Z" stroke="#663366" stroke-width="4.10156" stroke-miterlimit="10"/>
<path d="M24.2293 49.9296L9.86341 35.508C6.28575 31.9164 6.29697 26.1048 9.88857 22.5274C13.4796 18.9497 19.2915 18.9612 22.8692 22.5525L24.2293 23.9181L25.5893 22.5525C29.1667 18.9612 34.9786 18.9497 38.57 22.5274C42.1616 26.105 42.1728 31.9164 38.5951 35.508L24.2293 49.9296Z" stroke="#663366" stroke-width="4.10156" stroke-miterlimit="10"/>
<path d="M8.82812 34.3438H16.2109L19.2188 30.2422L25.2344 37.625L30.7031 32.7031H40.5469" stroke="#663366" stroke-width="4.10156" stroke-miterlimit="10"/>
<path d="M82.4029 13.8152C78.1944 9.60668 72.3839 7 65.9759 7C59.5679 7 53.7573 9.60668 49.5488 13.8152" stroke="#663366" stroke-width="4.10156" stroke-miterlimit="10"/>
<path d="M76.6063 19.6129C73.8832 16.8897 70.1234 15.2031 65.977 15.2031C61.8306 15.2031 58.0708 16.8897 55.3477 19.6129" stroke="#663366" stroke-width="4.10156" stroke-miterlimit="10"/>
<path d="M70.8102 25.4084C69.5732 24.1713 67.8642 23.4062 65.9764 23.4062C64.0886 23.4062 62.3796 24.1713 61.1426 25.4084" stroke="#663366" stroke-width="4.10156" stroke-miterlimit="10"/>
<path d="M65.9766 39.8125C68.2418 39.8125 70.0781 37.9762 70.0781 35.7109C70.0781 33.4457 68.2418 31.6094 65.9766 31.6094C63.7113 31.6094 61.875 33.4457 61.875 35.7109C61.875 37.9762 63.7113 39.8125 65.9766 39.8125Z" stroke="#663366" stroke-width="4.10156" stroke-miterlimit="10"/>
</svg>
