<svg width="150" height="150" viewBox="0 0 150 150" fill="none" xmlns="http://www.w3.org/2000/svg">
<g clip-path="url(#clip0_687_980)">
<path d="M144.837 53H5.05469V87.9456H144.837V53Z" fill="#663366"/>
<path d="M144.837 84.4531H5.05469V87.9368H144.837V84.4531Z" fill="#FAA61A"/>
<path d="M21.8742 60.9453L21.6564 63.5036H17.1386L16.7031 67.0417H21.221L20.9488 69.6001H16.4309L15.56 76.5674H12.9473L14.798 60.9453H21.8742Z" fill="white"/>
<mask id="mask0_687_980" style="mask-type:luminance" maskUnits="userSpaceOnUse" x="5" y="53" width="140" height="44">
<path d="M145 53H5V96.2193H145V53Z" fill="white"/>
</mask>
<g mask="url(#mask0_687_980)">
<path d="M23.181 60.9451L21.3848 76.5127C21.3848 76.5127 29.0597 76.676 29.0597 76.5127C29.0597 76.3494 29.3319 74.0633 29.3319 74.0633H24.2152L24.7596 69.5998H29.9306L30.2572 66.987H25.1406L25.5761 63.4489H30.6927L30.9649 60.8906L23.181 60.9451Z" fill="white"/>
</g>
<mask id="mask1_687_980" style="mask-type:luminance" maskUnits="userSpaceOnUse" x="5" y="53" width="140" height="44">
<path d="M145 53H5V96.2193H145V53Z" fill="white"/>
</mask>
<g mask="url(#mask1_687_980)">
<path d="M44.1908 60.9451L42.3945 76.5127C42.3945 76.5127 50.0695 76.676 50.0695 76.5127C50.0695 76.3494 50.3417 74.0633 50.3417 74.0633H45.225L45.7693 69.5998H50.9404L51.267 66.987H46.1504L46.5858 63.4489H51.7025L52.0291 60.8906L44.1908 60.9451Z" fill="white"/>
</g>
<mask id="mask2_687_980" style="mask-type:luminance" maskUnits="userSpaceOnUse" x="5" y="53" width="140" height="44">
<path d="M145 53H5V96.2193H145V53Z" fill="white"/>
</mask>
<g mask="url(#mask2_687_980)">
<path d="M35.9736 61H32.4899L30.748 76.5676H33.3064C33.8507 76.6221 36.8989 76.8398 38.804 75.7512C38.804 75.7512 42.7232 74.1182 42.7232 67.6952C42.6687 67.6407 42.451 61.7076 35.9736 61ZM36.6267 74.0093C36.6267 74.0093 34.2317 74.1726 33.5785 74.0638L34.776 63.4495L36.6812 63.395C36.6812 63.395 39.4028 63.395 40.1648 66.8787V66.9331C40.9269 70.5801 38.6952 73.7372 36.6267 74.0093Z" fill="white"/>
</g>
<mask id="mask3_687_980" style="mask-type:luminance" maskUnits="userSpaceOnUse" x="5" y="53" width="140" height="44">
<path d="M145 53H5V96.2193H145V53Z" fill="white"/>
</mask>
<g mask="url(#mask3_687_980)">
<path d="M61.447 76.5676L58.1811 69.8725C58.1811 69.8725 61.066 69.3281 61.3382 65.3002C61.3382 65.3002 61.3926 61.2177 57.3646 61H53.6088L51.8125 76.5676H54.4253L55.1329 70.1446H55.4595L58.7254 76.5676H61.447ZM55.8949 63.5039C55.8949 63.5039 58.4532 63.014 58.7798 64.5925C58.7798 64.5925 59.3786 67.4774 56.7114 67.8585H55.405L55.8949 63.5039Z" fill="white"/>
</g>
<mask id="mask4_687_980" style="mask-type:luminance" maskUnits="userSpaceOnUse" x="5" y="53" width="140" height="44">
<path d="M145 53H5V96.2193H145V53Z" fill="white"/>
</mask>
<g mask="url(#mask4_687_980)">
<path d="M72.2789 76.5671H75.0005L70.4826 60.8906L61.7734 76.5671H64.7128L66.4546 73.2468H71.4624L72.2789 76.5671ZM67.761 70.7429L69.8294 66.7693L70.8092 70.7429H67.761Z" fill="white"/>
</g>
<mask id="mask5_687_980" style="mask-type:luminance" maskUnits="userSpaceOnUse" x="5" y="53" width="140" height="44">
<path d="M145 53H5V96.2193H145V53Z" fill="white"/>
</mask>
<g mask="url(#mask5_687_980)">
<path d="M107.279 76.5671H110L105.483 60.8906L96.7734 76.5671H99.7128L101.455 73.2468H106.462L107.279 76.5671ZM102.707 70.7429L104.775 66.7693L105.755 70.7429H102.707Z" fill="white"/>
</g>
<mask id="mask6_687_980" style="mask-type:luminance" maskUnits="userSpaceOnUse" x="5" y="53" width="140" height="44">
<path d="M145 53H5V96.2193H145V53Z" fill="white"/>
</mask>
<g mask="url(#mask6_687_980)">
<path d="M77.3412 61.0547L75.5449 76.5679H82.5667L82.8389 74.1185H78.4843L79.8451 61.0547H77.3412Z" fill="white"/>
</g>
<mask id="mask7_687_980" style="mask-type:luminance" maskUnits="userSpaceOnUse" x="5" y="53" width="140" height="44">
<path d="M145 53H5V96.2193H145V53Z" fill="white"/>
</mask>
<g mask="url(#mask7_687_980)">
<path d="M95.3032 68.4572C95.3032 68.4572 97.3716 66.661 96.8817 64.3204C96.8817 64.3204 96.6096 61.3266 93.0715 61H89.6422L87.9004 76.5676H90.1865H90.5676C90.5676 76.5676 91.003 76.5676 91.874 76.5676C91.874 76.5676 95.3032 76.6221 96.5007 74.6625C96.4463 74.6081 98.7324 71.2333 95.3032 68.4572ZM92.1461 63.2317C92.1461 63.2317 93.7246 63.1229 94.269 64.0482C94.269 64.0482 95.3576 66.2255 93.017 67.2597L91.6562 67.3142L92.0917 63.4495L92.1461 63.2317ZM94.1601 73.465C94.1601 73.465 93.5069 74.4448 90.8942 74.1182H90.8397L91.3841 69.6003C91.8195 69.5459 92.8537 69.4914 93.1803 69.7092C93.1803 69.7636 95.6842 70.4168 94.1601 73.465Z" fill="white"/>
</g>
<mask id="mask8_687_980" style="mask-type:luminance" maskUnits="userSpaceOnUse" x="5" y="53" width="140" height="44">
<path d="M145 53H5V96.2193H145V53Z" fill="white"/>
</mask>
<g mask="url(#mask8_687_980)">
<path d="M113.158 60.8359L110.926 76.5669H113.43L114.736 66.4425L123.227 76.5125L125.35 60.9448H122.683L121.595 70.3072L113.158 60.8359Z" fill="white"/>
</g>
<mask id="mask9_687_980" style="mask-type:luminance" maskUnits="userSpaceOnUse" x="5" y="53" width="140" height="44">
<path d="M145 53H5V96.2193H145V53Z" fill="white"/>
</mask>
<g mask="url(#mask9_687_980)">
<path d="M136.999 60.9451H134.006L129.052 66.3883L129.651 60.9451L126.984 60.8906L125.188 76.5671H127.855L128.562 70.3619L128.998 69.872L133.625 76.5127H136.673L130.957 67.7491L136.999 60.9451Z" fill="white"/>
</g>
<mask id="mask10_687_980" style="mask-type:luminance" maskUnits="userSpaceOnUse" x="5" y="53" width="140" height="44">
<path d="M145 53H5V96.2193H145V53Z" fill="white"/>
</mask>
<g mask="url(#mask10_687_980)">
<path d="M7.06843 93.8756C6.79627 93.4401 6.52411 93.0047 6.14308 92.4059L5.59876 91.6438C5.38103 91.2628 5.1633 91.0451 5.10886 90.8818C5.10886 90.7729 5 90.6641 5 90.6641C5.1633 90.6641 5.32659 90.6641 5.48989 90.6641C5.65319 90.6641 5.87092 90.6641 5.97978 90.6641C6.08865 90.8274 6.14308 90.9362 6.19751 91.0995C6.25194 91.2084 6.36081 91.4261 6.52411 91.6438L6.8507 92.1882C7.12286 92.6236 7.39502 93.0591 7.55832 93.3857C7.77605 93.0591 7.99378 92.6781 8.21151 92.297L8.59254 91.6438C8.7014 91.4261 8.81026 91.2628 8.8647 91.0995C8.91913 90.9907 8.97356 90.8274 9.02799 90.6641C9.13686 90.6641 9.24572 90.6641 9.40902 90.6641C9.57232 90.6641 9.68118 90.6641 9.79005 90.6641C9.73561 90.7185 9.68118 90.7729 9.62675 90.8818C9.51789 91.0451 9.35459 91.2628 9.13686 91.6438L8.64697 92.3515C8.32037 92.8414 8.04821 93.3313 7.83048 93.7123V94.1477C7.83048 94.7465 7.83048 95.1819 7.83048 95.4541C7.83048 95.7263 7.83048 95.944 7.88491 96.1073C7.77605 96.1073 7.61275 96.1073 7.44946 96.1073C7.28616 96.1073 7.17729 96.1073 7.014 96.1073C7.014 95.944 7.06843 95.7263 7.06843 95.4541C7.06843 95.1819 7.06843 94.7465 7.06843 94.1477V93.8756Z" fill="#663366"/>
</g>
<mask id="mask11_687_980" style="mask-type:luminance" maskUnits="userSpaceOnUse" x="5" y="53" width="140" height="44">
<path d="M145 53H5V96.2193H145V53Z" fill="white"/>
</mask>
<g mask="url(#mask11_687_980)">
<path d="M13.5463 96.2157C14.4716 96.2157 15.2337 95.9435 15.8324 95.3992C16.4312 94.8548 16.7033 94.1472 16.7033 93.2763C16.7033 92.4598 16.4312 91.8066 15.8868 91.3167C15.3425 90.8269 14.5805 90.5547 13.6551 90.5547C12.7298 90.5547 11.9677 90.8268 11.369 91.3712C10.7702 91.9155 10.498 92.6231 10.498 93.494C10.498 94.3105 10.7702 94.9637 11.369 95.4536C11.9133 95.9435 12.6209 96.2157 13.5463 96.2157ZM13.6007 95.8346C12.9475 95.8346 12.4032 95.6169 11.9677 95.1814C11.5867 94.746 11.369 94.1472 11.369 93.4396C11.369 92.6776 11.5867 92.0788 11.9677 91.5889C12.3487 91.1534 12.8931 90.8813 13.6007 90.8813C14.2539 90.8813 14.7982 91.099 15.2337 91.5345C15.6147 91.9699 15.8324 92.5687 15.8324 93.2763C15.8324 94.0384 15.6147 94.6371 15.2337 95.127C14.7982 95.6169 14.2539 95.8346 13.6007 95.8346Z" fill="#663366"/>
</g>
<mask id="mask12_687_980" style="mask-type:luminance" maskUnits="userSpaceOnUse" x="5" y="53" width="140" height="44">
<path d="M145 53H5V96.2193H145V53Z" fill="white"/>
</mask>
<g mask="url(#mask12_687_980)">
<path d="M22.8545 93.7123C22.8545 94.5288 22.6368 95.1275 22.2557 95.563C21.8747 95.9984 21.276 96.2162 20.4595 96.2162C19.643 96.2162 19.0987 96.0529 18.7176 95.6718C18.3366 95.2908 18.1733 94.7465 18.1189 93.9844V93.4401V91.6438C18.1189 91.3173 18.1189 91.0995 18.1189 90.9907C18.1189 90.8818 18.1189 90.7729 18.0645 90.7185C18.1733 90.7185 18.3366 90.7185 18.4999 90.7185C18.6632 90.7185 18.8265 90.7185 18.9354 90.7185C18.9354 90.7729 18.8809 90.8818 18.8809 91.0451C18.8809 91.154 18.8809 91.3717 18.8265 91.6983C18.8265 92.2426 18.8265 92.8414 18.8265 93.4945V93.8211C18.8265 94.5288 18.9898 95.0187 19.262 95.3452C19.5341 95.6718 19.9696 95.8351 20.5683 95.8351C21.1671 95.8351 21.657 95.6718 21.9291 95.2908C22.2013 94.9642 22.3646 94.3655 22.3646 93.6034V93.4401V91.6438C22.3646 91.3173 22.3646 91.0995 22.3646 90.9362C22.3646 90.8274 22.3646 90.7185 22.3646 90.6641C22.4735 90.6641 22.5279 90.6641 22.6368 90.6641C22.7456 90.6641 22.8545 90.6641 22.9089 90.6641C22.9089 90.7729 22.8545 90.8818 22.8545 90.9907C22.8545 91.0995 22.8545 91.3173 22.8001 91.6438C22.8001 92.1882 22.8001 92.7869 22.8001 93.4401V93.7123H22.8545Z" fill="#663366"/>
</g>
<mask id="mask13_687_980" style="mask-type:luminance" maskUnits="userSpaceOnUse" x="5" y="53" width="140" height="44">
<path d="M145 53H5V96.2193H145V53Z" fill="white"/>
</mask>
<g mask="url(#mask13_687_980)">
<path d="M24.5954 95.8349C24.5954 95.9437 24.5954 96.0526 24.541 96.107C24.6499 96.107 24.8132 96.107 24.9765 96.107C25.1398 96.107 25.2486 96.107 25.4119 96.107C25.4119 96.0526 25.4119 95.9437 25.4119 95.8349C25.4119 95.726 25.4119 95.4539 25.4119 95.1273C25.4119 94.6374 25.4119 94.0386 25.4119 93.4399H25.6841C25.9563 93.7665 26.2828 94.1475 26.6639 94.5829L27.1538 95.1273C27.3715 95.3994 27.5348 95.5627 27.6437 95.726C27.7525 95.8349 27.807 95.9982 27.9158 96.107C28.0791 96.107 28.2424 96.107 28.4601 96.107C28.6779 96.107 28.8412 96.107 29.0045 96.107C28.95 96.107 28.8956 95.9982 28.7867 95.8893C28.6779 95.7805 28.4601 95.5083 28.1335 95.1273L27.6981 94.5829C27.3171 94.1475 26.9905 93.712 26.6639 93.3854C27.0449 93.331 27.4259 93.2221 27.6981 93.0044C28.1336 92.7322 28.3513 92.3512 28.3513 91.9158C28.3513 91.4803 28.188 91.1537 27.9158 90.936C27.6437 90.7182 27.1538 90.6094 26.555 90.6094C26.4461 90.6094 26.3373 90.6094 26.2284 90.6094C26.1196 90.6094 25.9563 90.6094 25.793 90.6094C25.6841 90.6094 25.5752 90.6094 25.4119 90.6094C25.2486 90.6094 25.0309 90.6094 24.7587 90.6094C24.7587 90.6638 24.7587 90.7727 24.7587 90.8815C24.7587 90.9904 24.7587 91.2626 24.7587 91.5892C24.7587 92.1335 24.7587 92.6778 24.7587 93.331C24.7587 93.9842 24.7587 94.5829 24.7587 95.0728C24.5954 95.5083 24.5954 95.726 24.5954 95.8349ZM25.3575 91.0448C25.5752 91.0448 25.793 91.0448 26.0651 90.9904C26.5006 90.9904 26.8272 91.0993 27.0449 91.2626C27.2626 91.4259 27.3715 91.6436 27.3715 91.9702C27.3715 92.2968 27.2082 92.5689 26.936 92.7867C26.6094 93.0044 26.2284 93.1133 25.7385 93.1133C25.6297 93.1133 25.4664 93.1133 25.3575 93.1133V91.0448Z" fill="#663366"/>
</g>
<mask id="mask14_687_980" style="mask-type:luminance" maskUnits="userSpaceOnUse" x="5" y="53" width="140" height="44">
<path d="M145 53H5V96.2193H145V53Z" fill="white"/>
</mask>
<g mask="url(#mask14_687_980)">
<path d="M32.2715 95.8349C32.2715 95.9437 32.2715 96.0526 32.2715 96.107C32.3803 96.107 32.5436 96.107 32.7069 96.107C32.8702 96.107 32.9791 96.107 33.1424 96.107C33.1424 96.0526 33.1424 95.9437 33.1424 95.8349C33.1424 95.726 33.1424 95.4539 33.1424 95.1273C33.1424 94.6374 33.1424 94.1475 33.1424 93.5487C33.3601 93.6032 33.5779 93.6032 33.85 93.6032C34.5576 93.6032 35.102 93.4399 35.483 93.1677C35.864 92.8955 36.0817 92.5145 36.0817 91.9702C36.0817 91.4803 35.9185 91.1537 35.5919 90.936C35.2653 90.7182 34.7754 90.6094 34.1222 90.6094C34.0133 90.6094 33.9045 90.6094 33.7956 90.6094C33.6867 90.6094 33.5234 90.6094 33.4146 90.6094C33.3057 90.6094 33.1424 90.6094 32.9791 90.6094C32.8158 90.6094 32.6525 90.6094 32.4348 90.6094C32.4348 90.6638 32.4348 90.7727 32.4348 90.8815C32.4348 90.9904 32.4348 91.2626 32.4348 91.5892C32.4348 92.1335 32.4348 92.6778 32.4348 93.331C32.4348 93.9842 32.4348 94.5829 32.4348 95.0728C32.3259 95.5083 32.3259 95.726 32.2715 95.8349ZM33.0335 91.0993C33.2513 91.0993 33.469 91.0448 33.7412 91.0448C34.1766 91.0448 34.5576 91.1537 34.7754 91.317C34.9931 91.4803 35.102 91.7525 35.102 92.0791C35.102 92.4601 34.9387 92.7322 34.6665 92.95C34.3943 93.1677 34.0133 93.2766 33.5234 93.2766C33.3057 93.2766 33.1424 93.2766 32.9791 93.2766V91.0993H33.0335Z" fill="#663366"/>
</g>
<mask id="mask15_687_980" style="mask-type:luminance" maskUnits="userSpaceOnUse" x="5" y="53" width="140" height="44">
<path d="M145 53H5V96.2193H145V53Z" fill="white"/>
</mask>
<g mask="url(#mask15_687_980)">
<path d="M36.9512 96.1615C36.9512 96.107 36.9512 95.9982 36.9512 95.8893C36.9512 95.7805 36.9512 95.5083 36.9512 95.1817C36.9512 94.6374 36.9512 94.0386 36.9512 93.3854C36.9512 92.7322 36.9512 92.1335 36.9512 91.5892C36.9512 91.2626 36.9512 91.0448 36.9512 90.8815C36.9512 90.7727 36.9512 90.6638 36.9512 90.6094C37.06 90.6094 37.2233 90.6638 37.4411 90.6638C37.6588 90.6638 37.8765 90.6638 38.1487 90.6638H38.7474C39.0196 90.6638 39.2373 90.6638 39.4006 90.6638C39.6184 90.6638 39.7817 90.6094 39.9449 90.6094C39.9449 90.6638 39.9449 90.7727 39.9449 90.8815C39.9449 90.9904 39.9449 91.0993 39.9449 91.1537C39.8361 91.1537 39.6728 91.0993 39.4551 91.0993C39.2373 91.0993 38.9652 91.0993 38.7474 91.0993H38.4753C38.2031 91.0993 37.9854 91.0993 37.7677 91.0993V93.0588H38.5297C38.7474 93.0588 39.0196 93.0588 39.2918 93.0588C39.5639 93.0588 39.7272 93.0044 39.8361 93.0044C39.8361 93.0588 39.8361 93.1677 39.8361 93.2766C39.8361 93.3854 39.8361 93.4943 39.8361 93.5487C39.7272 93.5487 39.5639 93.4943 39.2918 93.4943C39.0196 93.4943 38.8019 93.4943 38.5297 93.4943H37.8221C37.8221 94.3652 37.8221 95.0728 37.8221 95.726H38.3664H38.6386C38.9107 95.726 39.1285 95.726 39.4006 95.726C39.6728 95.726 39.8905 95.6716 39.9994 95.6716C39.9994 95.7804 39.9994 95.8349 39.9994 95.9437C39.9994 96.0526 39.9994 96.1615 39.9994 96.2159C39.8905 96.2159 39.7272 96.1615 39.4551 96.1615C39.2373 96.1615 39.0196 96.1615 38.8019 96.1615H38.1487C37.931 96.1615 37.7132 96.1615 37.4955 96.1615C37.2233 96.107 37.06 96.1615 36.9512 96.1615Z" fill="#663366"/>
</g>
<mask id="mask16_687_980" style="mask-type:luminance" maskUnits="userSpaceOnUse" x="5" y="53" width="140" height="44">
<path d="M145 53H5V96.2193H145V53Z" fill="white"/>
</mask>
<g mask="url(#mask16_687_980)">
<path d="M41.416 95.8349C41.416 95.9437 41.416 96.0526 41.416 96.107C41.5249 96.107 41.6882 96.107 41.8515 96.107C42.0148 96.107 42.1236 96.107 42.2869 96.107C42.2869 96.0526 42.2869 95.9437 42.2869 95.8349C42.2869 95.726 42.2869 95.4539 42.2869 95.1273C42.2869 94.6374 42.2869 94.0386 42.2869 93.4399H42.5591C42.8313 93.7665 43.1579 94.1475 43.5389 94.5829L44.0288 95.1273C44.2465 95.3994 44.4098 95.5627 44.5187 95.726C44.6275 95.8349 44.682 95.9982 44.7908 96.107C44.9541 96.107 45.1174 96.107 45.3351 96.107C45.5529 96.107 45.7162 96.107 45.8795 96.107C45.825 96.107 45.7706 95.9982 45.6617 95.8893C45.5529 95.7805 45.3351 95.5083 45.0085 95.1273L44.5731 94.5829C44.1921 94.1475 43.8655 93.712 43.5389 93.3854C43.9199 93.331 44.3009 93.2221 44.5731 93.0044C45.0085 92.7322 45.2263 92.3512 45.2263 91.9158C45.2263 91.4803 45.063 91.1537 44.7908 90.936C44.4642 90.7182 44.0288 90.6094 43.43 90.6094C43.3211 90.6094 43.2123 90.6094 43.1034 90.6094C42.9946 90.6094 42.8313 90.6094 42.668 90.6094C42.5591 90.6094 42.4502 90.6094 42.2869 90.6094C42.1236 90.6094 41.9059 90.6094 41.6337 90.6094C41.6337 90.6638 41.6337 90.7727 41.6337 90.8815C41.6337 90.9904 41.6337 91.2626 41.6337 91.5892C41.6337 92.1335 41.6337 92.6778 41.6337 93.331C41.6337 93.9842 41.6337 94.5829 41.6337 95.0728C41.416 95.5083 41.416 95.726 41.416 95.8349ZM42.1781 91.0448C42.3958 91.0448 42.6135 91.0448 42.8857 90.9904C43.3211 90.9904 43.6477 91.0993 43.8655 91.2626C44.0832 91.4259 44.1921 91.6436 44.1921 91.9702C44.1921 92.2968 44.0288 92.5689 43.7566 92.7867C43.43 93.0044 43.049 93.1133 42.5591 93.1133C42.4502 93.1133 42.2869 93.1133 42.1781 93.1133V91.0448Z" fill="#663366"/>
</g>
<mask id="mask17_687_980" style="mask-type:luminance" maskUnits="userSpaceOnUse" x="5" y="53" width="140" height="44">
<path d="M145 53H5V96.2193H145V53Z" fill="white"/>
</mask>
<g mask="url(#mask17_687_980)">
<path d="M46.5854 95.127C46.5854 94.5827 46.5854 94.0384 46.5854 93.3307C46.5854 92.6775 46.5854 92.0788 46.5854 91.5345C46.5854 91.2079 46.5854 90.9357 46.5854 90.8268C46.5854 90.718 46.5854 90.6091 46.5854 90.5547C46.6943 90.5547 46.8576 90.6091 47.1298 90.6091C47.4019 90.6091 47.6741 90.6091 47.9462 90.6091H48.4361C48.7083 90.6091 48.926 90.6091 49.0893 90.6091C49.307 90.6091 49.4703 90.5547 49.6336 90.5547C49.6336 90.6636 49.6336 90.718 49.6336 90.8268C49.6336 90.9357 49.6336 91.0446 49.6336 91.099C49.5248 91.099 49.3615 91.0446 49.1437 91.0446C48.926 91.0446 48.6539 91.0446 48.4361 91.0446H48.1095C47.8374 91.0446 47.5652 91.0446 47.3475 91.0446C47.3475 91.5889 47.3475 92.2421 47.3475 93.0041H48.164C48.4361 93.0041 48.6539 93.0041 48.926 93.0041C49.1982 93.0041 49.3615 92.9497 49.4703 92.9497C49.4703 93.0041 49.4703 93.113 49.4703 93.2219C49.4703 93.3307 49.4703 93.4396 49.4703 93.494C49.4159 93.494 49.2526 93.494 48.9805 93.4396C48.7083 93.4396 48.4361 93.4396 48.164 93.3852H47.3475C47.3475 94.0384 47.3475 94.5827 47.3475 95.127C47.3475 95.4536 47.3475 95.7258 47.3475 95.8346C47.3475 95.9435 47.3475 96.0524 47.3475 96.1068C47.2386 96.1068 47.0753 96.1068 46.912 96.1068C46.7487 96.1068 46.6399 96.1068 46.4766 96.1068C46.4766 96.0524 46.4766 95.9435 46.531 95.8346C46.531 95.7258 46.531 95.508 46.5854 95.127Z" fill="#663366"/>
</g>
<mask id="mask18_687_980" style="mask-type:luminance" maskUnits="userSpaceOnUse" x="5" y="53" width="140" height="44">
<path d="M145 53H5V96.2193H145V53Z" fill="white"/>
</mask>
<g mask="url(#mask18_687_980)">
<path d="M50.832 96.1615C50.832 96.107 50.832 95.9982 50.832 95.8893C50.832 95.7805 50.832 95.5083 50.832 95.1817C50.832 94.6374 50.832 94.0386 50.832 93.3854C50.832 92.7322 50.832 92.1335 50.832 91.5892C50.832 91.2626 50.832 91.0448 50.832 90.8815C50.832 90.7727 50.832 90.6638 50.832 90.6094C50.9409 90.6094 51.1042 90.6638 51.3219 90.6638C51.5397 90.6638 51.7574 90.6638 52.0295 90.6638H52.6827C52.9549 90.6638 53.1726 90.6638 53.3359 90.6638C53.5537 90.6638 53.7169 90.6094 53.8802 90.6094C53.8802 90.6638 53.8802 90.7727 53.8802 90.8815C53.8802 90.9904 53.8802 91.0993 53.8802 91.1537C53.7714 91.1537 53.6081 91.0993 53.3904 91.0993C53.1726 91.0993 52.9005 91.0993 52.6827 91.0993H52.3561C52.084 91.0993 51.8662 91.0993 51.6485 91.0993V93.0588H52.4106C52.6827 93.0588 52.9005 93.0588 53.1726 93.0588C53.4448 93.0588 53.6081 93.0044 53.7169 93.0044C53.7169 93.0588 53.7169 93.1677 53.7169 93.2766C53.7169 93.3854 53.7169 93.4943 53.7169 93.5487C53.6081 93.5487 53.4448 93.4943 53.1726 93.4943C52.9005 93.4943 52.6827 93.4943 52.4106 93.4943H51.703C51.703 94.3652 51.703 95.0728 51.703 95.726H52.2473H52.5194C52.7916 95.726 53.0093 95.726 53.2815 95.726C53.5536 95.726 53.7714 95.6716 53.8802 95.6716C53.8802 95.7804 53.8802 95.8349 53.8802 95.9437C53.8802 96.0526 53.8802 96.1615 53.8802 96.2159C53.7714 96.2159 53.6081 96.1615 53.3359 96.1615C53.1182 96.1615 52.9005 96.1615 52.6827 96.1615H52.0295C51.8118 96.1615 51.5941 96.1615 51.3764 96.1615C51.1042 96.107 50.9409 96.1615 50.832 96.1615Z" fill="#663366"/>
</g>
<mask id="mask19_687_980" style="mask-type:luminance" maskUnits="userSpaceOnUse" x="5" y="53" width="140" height="44">
<path d="M145 53H5V96.2193H145V53Z" fill="white"/>
</mask>
<g mask="url(#mask19_687_980)">
<path d="M59.7585 95.29C59.7585 95.3989 59.7041 95.4533 59.7041 95.5078C59.7041 95.5622 59.7041 95.6711 59.7041 95.7255C59.4319 95.8888 59.1054 95.9977 58.8332 96.0521C58.5066 96.1065 58.18 96.161 57.8534 96.161C56.9825 96.161 56.2749 95.8888 55.7305 95.3989C55.1862 94.909 54.9141 94.2558 54.9141 93.4393C54.9141 92.5684 55.1862 91.8608 55.785 91.3165C56.3293 90.7722 57.0914 90.5 58.0167 90.5C58.3433 90.5 58.6699 90.5 58.9965 90.6089C59.3231 90.6633 59.5952 90.7722 59.8674 90.881C59.813 90.9899 59.813 91.0988 59.7585 91.2076C59.7585 91.3165 59.7041 91.4254 59.6497 91.5342H59.5408C59.3775 91.3165 59.1054 91.1532 58.8332 91.0443C58.561 90.9355 58.2889 90.881 58.0167 90.881C57.3635 90.881 56.8192 91.0988 56.3837 91.5886C56.0027 92.0241 55.785 92.6773 55.785 93.4393C55.785 94.147 56.0027 94.6913 56.3837 95.1812C56.8192 95.6166 57.3091 95.8344 57.9623 95.8344C58.2889 95.8344 58.6155 95.7799 58.9421 95.6711C59.2687 95.5622 59.4864 95.3989 59.7041 95.1812L59.7585 95.29Z" fill="#663366"/>
</g>
<mask id="mask20_687_980" style="mask-type:luminance" maskUnits="userSpaceOnUse" x="5" y="53" width="140" height="44">
<path d="M145 53H5V96.2193H145V53Z" fill="white"/>
</mask>
<g mask="url(#mask20_687_980)">
<path d="M62.2631 95.127C62.2631 94.5827 62.2631 94.0384 62.2631 93.3852C62.2631 92.4598 62.2631 91.6978 62.2631 91.0446H61.8276C61.5554 91.0446 61.2833 91.0446 61.0111 91.0446C60.739 91.0446 60.5757 91.099 60.4668 91.099C60.4668 91.0446 60.4668 90.9357 60.4668 90.8268C60.4668 90.718 60.4668 90.6091 60.4668 90.5547C60.7934 90.5547 61.12 90.6091 61.501 90.6091C61.882 90.6091 62.1542 90.6091 62.3719 90.6091H62.5897H62.8074C63.0251 90.6091 63.3517 90.6091 63.7327 90.6091C64.1138 90.6091 64.4404 90.5547 64.7125 90.5547C64.7125 90.6091 64.7125 90.718 64.7125 90.8268C64.7125 90.9357 64.7125 91.0446 64.7125 91.099C64.6037 91.099 64.4404 91.0446 64.1682 91.0446C63.896 91.0446 63.6239 91.0446 63.3517 91.0446H63.0251C63.0251 91.6978 62.9707 92.4598 62.9707 93.3307C62.9707 93.9839 62.9707 94.5827 62.9707 95.0726C62.9707 95.3992 62.9707 95.6169 62.9707 95.7802C62.9707 95.8891 62.9707 95.9979 62.9707 96.0524C62.8618 96.0524 62.6985 96.0524 62.5352 96.0524C62.3719 96.0524 62.2631 96.0524 62.0998 96.0524C62.0998 95.9979 62.0998 95.8891 62.0998 95.7802C62.2086 95.7258 62.2086 95.508 62.2631 95.127Z" fill="#663366"/>
</g>
<mask id="mask21_687_980" style="mask-type:luminance" maskUnits="userSpaceOnUse" x="5" y="53" width="140" height="44">
<path d="M145 53H5V96.2193H145V53Z" fill="white"/>
</mask>
<g mask="url(#mask21_687_980)">
<path d="M69.0118 93.4401H69.5561C70.1004 93.4401 70.4815 93.549 70.7536 93.7123C71.0258 93.8756 71.1891 94.1477 71.1891 94.5288C71.1891 94.9098 71.0258 95.2364 70.7536 95.4541C70.4815 95.6718 70.046 95.7807 69.5017 95.7807C69.3384 95.7807 69.1207 95.7807 69.0118 95.7263V93.4401ZM68.2497 95.8351C68.2497 95.944 68.2497 96.0529 68.1953 96.1073H68.5763H69.6106C70.3182 96.1073 70.8625 95.944 71.2435 95.6718C71.679 95.3997 71.8967 95.0187 71.8967 94.5288C71.8967 94.0389 71.7334 93.6578 71.3524 93.4401C71.0802 93.2768 70.7536 93.168 70.3726 93.1135C70.6448 93.0591 70.9169 92.9502 71.1347 92.7869C71.5157 92.5148 71.7334 92.1882 71.7334 91.8071C71.7334 91.4261 71.5701 91.0995 71.2435 90.9362C70.9169 90.7185 70.427 90.6641 69.7739 90.6641H68.5763H68.1953C68.1953 90.7185 68.1953 90.8274 68.1953 90.9362C68.1953 91.0451 68.1953 91.3173 68.1953 91.6438C68.1953 92.1337 68.1953 92.7325 68.1953 93.3857C68.1953 94.0389 68.1953 94.6376 68.1953 95.1275C68.3042 95.5085 68.3042 95.7263 68.2497 95.8351ZM69.0118 91.0995C69.2295 91.0451 69.3928 91.0451 69.665 91.0451C70.1004 91.0451 70.427 91.0995 70.6448 91.3173C70.9169 91.4806 71.0258 91.6983 71.0258 91.9704C71.0258 92.297 70.9169 92.5148 70.6448 92.7325C70.3726 92.8958 70.046 93.0047 69.5561 93.0047H69.0662V91.0995H69.0118Z" fill="#663366"/>
</g>
<mask id="mask22_687_980" style="mask-type:luminance" maskUnits="userSpaceOnUse" x="5" y="53" width="140" height="44">
<path d="M145 53H5V96.2193H145V53Z" fill="white"/>
</mask>
<g mask="url(#mask22_687_980)">
<path d="M72.9856 95.8898C72.9311 95.9987 72.8767 96.1076 72.8223 96.162C72.9311 96.162 73.04 96.162 73.1489 96.162C73.2577 96.162 73.3666 96.162 73.4755 96.162C73.5299 95.9987 73.5299 95.8898 73.5843 95.7265C73.6388 95.6177 73.6932 95.3999 73.802 95.1822C73.9109 94.8556 74.0742 94.4746 74.2375 94.148C74.5641 94.0936 74.8907 94.0936 75.2717 94.0936C75.6528 94.0936 75.9793 94.148 76.3059 94.148L76.7958 95.1822C76.9047 95.4544 76.9591 95.6177 77.0136 95.781C77.068 95.8898 77.1224 96.0531 77.1224 96.162C77.2313 96.162 77.3946 96.162 77.5579 96.162C77.7212 96.162 77.8845 96.162 77.9933 96.162L77.5034 95.1822C77.2313 94.6923 76.9591 94.0936 76.687 93.4404C76.1971 92.3517 75.7616 91.4264 75.4895 90.7188H75.3806H75.2717C74.9451 91.4808 74.5641 92.3517 74.0198 93.4404C73.6932 94.0936 73.421 94.6379 73.1489 95.1822C73.1489 95.5088 73.04 95.7265 72.9856 95.8898ZM75.3806 91.8074L76.0882 93.3859L76.1426 93.5492C75.8705 93.6037 75.5983 93.6037 75.3262 93.6037C75.054 93.6037 74.7818 93.6037 74.5097 93.5492L74.6185 93.3315C74.8907 92.7327 74.9996 92.4606 74.9996 92.4606C74.9996 92.4606 75.1084 92.2973 75.3806 91.8074Z" fill="#663366"/>
</g>
<mask id="mask23_687_980" style="mask-type:luminance" maskUnits="userSpaceOnUse" x="5" y="53" width="140" height="44">
<path d="M145 53H5V96.2193H145V53Z" fill="white"/>
</mask>
<g mask="url(#mask23_687_980)">
<path d="M79.7907 95.1273C79.7907 95.4539 79.7907 95.6716 79.8451 95.8349C79.8451 95.9437 79.8451 96.0526 79.8995 96.107C79.7907 96.107 79.7362 96.107 79.6274 96.107C79.5185 96.107 79.4096 96.107 79.3008 96.107C79.3008 96.0526 79.3008 95.9437 79.3008 95.8349C79.3008 95.726 79.3008 95.4539 79.3008 95.1273C79.3008 94.5829 79.3008 94.0386 79.3008 93.3854C79.3008 92.7322 79.3008 92.1879 79.3008 91.6436C79.3008 91.317 79.3008 91.0993 79.3008 90.936C79.3008 90.8271 79.3008 90.7182 79.3008 90.6638H79.4096H79.5185C80.2261 91.4259 81.097 92.3512 82.2401 93.4399L83.6009 94.8007V93.3854C83.6009 92.7322 83.6009 92.1335 83.6009 91.5892C83.6009 91.2626 83.6009 90.9904 83.6009 90.8815C83.6009 90.7727 83.6009 90.6638 83.6009 90.6094C83.7098 90.6094 83.7642 90.6094 83.8731 90.6094C83.982 90.6094 84.0908 90.6094 84.1453 90.6094C84.1453 90.6638 84.1453 90.7727 84.1453 90.8815C84.1453 90.9904 84.1453 91.2626 84.1453 91.5892C84.1453 92.1335 84.1453 92.7322 84.1453 93.3854C84.1453 94.4741 84.1453 95.3994 84.1997 96.1615H84.0908H83.982C83.2743 95.3994 82.4034 94.4741 81.2603 93.3854L79.8995 92.0246V93.3854C79.7907 94.0386 79.7907 94.6374 79.7907 95.1273Z" fill="#663366"/>
</g>
<mask id="mask24_687_980" style="mask-type:luminance" maskUnits="userSpaceOnUse" x="5" y="53" width="140" height="44">
<path d="M145 53H5V96.2193H145V53Z" fill="white"/>
</mask>
<g mask="url(#mask24_687_980)">
<path d="M86.6485 95.1275C86.6485 95.4541 86.6485 95.7263 86.703 95.8351C86.703 95.944 86.703 96.0529 86.703 96.1073C86.5941 96.1073 86.4308 96.1073 86.2675 96.1073C86.1042 96.1073 85.9953 96.1073 85.832 96.1073C85.832 96.0529 85.832 95.944 85.832 95.8351C85.832 95.7263 85.832 95.4541 85.832 95.1275C85.832 94.5832 85.832 94.0389 85.832 93.3857C85.832 92.7325 85.832 92.1337 85.832 91.6438C85.832 91.3173 85.832 91.0451 85.832 90.9362C85.832 90.8274 85.832 90.7185 85.832 90.6641C85.9409 90.6641 86.1042 90.6641 86.2675 90.6641C86.4308 90.6641 86.5941 90.6641 86.703 90.6641C86.703 90.7185 86.703 90.8274 86.703 90.9362C86.703 91.0451 86.7029 91.3173 86.6485 91.6438C86.6485 92.1337 86.6485 92.6236 86.6485 93.168C87.0295 92.8958 87.465 92.4603 87.9549 92.0249C88.4992 91.535 88.9347 91.0451 89.2068 90.7185H89.6423C89.8056 90.7185 89.9689 90.7185 90.0778 90.7185C90.0233 90.7729 89.9145 90.8274 89.7512 90.9362C89.5879 91.0451 89.3157 91.3173 88.9347 91.6438L88.2815 92.2426L87.4106 93.0591L88.3359 94.0933L89.2613 95.1275C89.5879 95.5085 89.8056 95.7263 89.9145 95.8896C90.0233 95.9984 90.1322 96.1073 90.1322 96.1073C89.9689 96.1073 89.8056 96.1073 89.5879 96.1073C89.3701 96.1073 89.2068 96.1073 89.0435 96.1073C88.9891 95.9984 88.8802 95.8351 88.7714 95.7263C88.6625 95.6174 88.4992 95.3997 88.2815 95.1275L87.846 94.6376C87.3561 94.0933 86.9751 93.6578 86.6485 93.3312V93.3857C86.5941 94.0389 86.6485 94.6376 86.6485 95.1275Z" fill="#663366"/>
</g>
<mask id="mask25_687_980" style="mask-type:luminance" maskUnits="userSpaceOnUse" x="5" y="53" width="140" height="44">
<path d="M145 53H5V96.2193H145V53Z" fill="white"/>
</mask>
<g mask="url(#mask25_687_980)">
<path d="M91.113 95.1275C91.113 94.5832 91.113 94.0389 91.113 93.3857C91.113 92.7325 91.113 92.1337 91.113 91.6438C91.113 91.3173 91.113 91.0995 91.113 90.9362C91.113 90.8274 91.113 90.7185 91.0586 90.6641C91.1675 90.6641 91.3307 90.6641 91.494 90.6641C91.6573 90.6641 91.7662 90.6641 91.9295 90.6641C91.9295 90.7185 91.9295 90.8274 91.9295 90.9362C91.9295 91.0451 91.9295 91.3173 91.9295 91.6438C91.9295 92.1882 91.9295 92.7325 91.9295 93.3857C91.9295 94.0389 91.9295 94.6376 91.9295 95.1275C91.9295 95.4541 91.9295 95.7263 91.9295 95.8351C91.9295 95.944 91.9295 96.0529 91.9295 96.1073C91.8206 96.1073 91.6573 96.1073 91.494 96.1073C91.3307 96.1073 91.2219 96.1073 91.0586 96.1073C91.0586 96.0529 91.0586 95.944 91.113 95.8351C91.113 95.7263 91.113 95.4541 91.113 95.1275Z" fill="#663366"/>
</g>
<mask id="mask26_687_980" style="mask-type:luminance" maskUnits="userSpaceOnUse" x="5" y="53" width="140" height="44">
<path d="M145 53H5V96.2193H145V53Z" fill="white"/>
</mask>
<g mask="url(#mask26_687_980)">
<path d="M94.1601 95.1273C94.1601 95.4539 94.1601 95.6716 94.2145 95.8349C94.2145 95.9437 94.2145 96.0526 94.2689 96.107C94.1601 96.107 94.1056 96.107 93.9968 96.107C93.8879 96.107 93.779 96.107 93.7246 96.107C93.7246 96.0526 93.7246 95.9437 93.7246 95.8349C93.7246 95.726 93.7246 95.4539 93.7246 95.1273C93.7246 94.5829 93.7246 94.0386 93.7246 93.3854C93.7246 92.7322 93.7246 92.1879 93.7246 91.6436C93.7246 91.317 93.7246 91.0993 93.7246 90.936C93.7246 90.8271 93.7246 90.7182 93.7246 90.6638H93.8335H93.9423C94.65 91.4259 95.5209 92.3512 96.664 93.4399L98.0248 94.8007V93.3854C98.0248 92.7322 98.0248 92.1335 98.0248 91.5892C98.0248 91.2626 98.0248 90.9904 98.0248 90.8815C98.0248 90.7727 98.0248 90.6638 98.0248 90.6094C98.1336 90.6094 98.1881 90.6094 98.2969 90.6094C98.4058 90.6094 98.5147 90.6094 98.5691 90.6094C98.5691 90.6638 98.5691 90.7727 98.5691 90.8815C98.5691 90.9904 98.5691 91.2626 98.5691 91.5892C98.5691 92.1335 98.5691 92.7322 98.5691 93.3854C98.5691 94.4741 98.5691 95.3994 98.6235 96.1615H98.5147H98.4058C97.6982 95.3994 96.8273 94.4741 95.6842 93.3854L94.3234 92.0246V93.3854C94.1056 94.0386 94.1601 94.6374 94.1601 95.1273Z" fill="#663366"/>
</g>
<mask id="mask27_687_980" style="mask-type:luminance" maskUnits="userSpaceOnUse" x="5" y="53" width="140" height="44">
<path d="M145 53H5V96.2193H145V53Z" fill="white"/>
</mask>
<g mask="url(#mask27_687_980)">
<path d="M102.814 96.2157C101.889 96.2157 101.181 95.9435 100.637 95.4536C100.092 94.9637 99.8203 94.3105 99.8203 93.494C99.8203 92.6231 100.092 91.9155 100.691 91.3712C101.29 90.8268 101.998 90.5547 102.923 90.5547C103.358 90.5547 103.739 90.6091 104.12 90.6636C104.501 90.718 104.828 90.8813 105.155 91.0446C105.1 91.1534 105.1 91.2623 105.046 91.3712C104.991 91.48 104.991 91.5889 104.937 91.6978H104.828C104.61 91.48 104.338 91.2623 104.012 91.099C103.685 90.9357 103.358 90.8813 103.032 90.8813C102.324 90.8813 101.725 91.099 101.344 91.5889C100.909 92.0244 100.691 92.6776 100.691 93.4396C100.691 94.1472 100.909 94.746 101.344 95.1814C101.78 95.6169 102.324 95.8346 103.032 95.8346C103.467 95.8346 103.957 95.7258 104.393 95.5625V95.0181C104.393 94.6915 104.393 94.365 104.393 94.2017C104.393 93.9839 104.338 93.8206 104.338 93.5485C104.447 93.5485 104.61 93.5485 104.774 93.5485C104.937 93.5485 105.1 93.5485 105.209 93.5485C105.209 93.6573 105.155 93.7662 105.155 93.8751C105.155 93.9839 105.155 94.2017 105.155 94.5283V94.6915C105.155 95.0726 105.155 95.2903 105.155 95.4536C105.155 95.6169 105.155 95.7258 105.209 95.8346C104.501 96.1068 103.685 96.2157 102.814 96.2157Z" fill="#663366"/>
</g>
<mask id="mask28_687_980" style="mask-type:luminance" maskUnits="userSpaceOnUse" x="5" y="53" width="140" height="44">
<path d="M145 53H5V96.2193H145V53Z" fill="white"/>
</mask>
<g mask="url(#mask28_687_980)">
<path d="M109.293 95.8349C109.293 95.9437 109.293 96.0526 109.238 96.107C109.347 96.107 109.51 96.107 109.674 96.107C109.837 96.107 109.946 96.107 110.109 96.107C110.109 96.0526 110.109 95.9437 110.109 95.8349C110.109 95.726 110.109 95.4539 110.109 95.1273C110.109 94.6374 110.109 94.1475 110.109 93.5487C110.327 93.6032 110.545 93.6032 110.817 93.6032C111.524 93.6032 112.069 93.4399 112.45 93.1677C112.831 92.8955 113.049 92.5145 113.049 91.9702C113.049 91.4803 112.885 91.1537 112.559 90.936C112.232 90.7182 111.742 90.6094 111.089 90.6094C110.98 90.6094 110.871 90.6094 110.762 90.6094C110.654 90.6094 110.49 90.6094 110.381 90.6094C110.272 90.6094 110.109 90.6094 109.946 90.6094C109.783 90.6094 109.619 90.6094 109.402 90.6094C109.402 90.6638 109.402 90.7727 109.402 90.8815C109.402 90.9904 109.402 91.2626 109.402 91.5892C109.402 92.1335 109.402 92.6778 109.402 93.331C109.402 93.9842 109.402 94.5829 109.402 95.0728C109.293 95.5083 109.293 95.726 109.293 95.8349ZM110 91.0993C110.218 91.0993 110.436 91.0448 110.708 91.0448C111.143 91.0448 111.524 91.1537 111.742 91.317C111.96 91.4803 112.069 91.7525 112.069 92.0791C112.069 92.4601 111.905 92.7322 111.633 92.95C111.361 93.1677 110.98 93.2766 110.49 93.2766C110.272 93.2766 110.109 93.2766 109.946 93.2766V91.0993H110Z" fill="#663366"/>
</g>
<mask id="mask29_687_980" style="mask-type:luminance" maskUnits="userSpaceOnUse" x="5" y="53" width="140" height="44">
<path d="M145 53H5V96.2193H145V53Z" fill="white"/>
</mask>
<g mask="url(#mask29_687_980)">
<path d="M113.538 95.8898C113.484 95.9987 113.429 96.1076 113.375 96.162C113.484 96.162 113.593 96.162 113.702 96.162C113.81 96.162 113.919 96.162 114.028 96.162C114.083 95.9987 114.083 95.8898 114.137 95.7265C114.191 95.6177 114.246 95.3999 114.355 95.1822C114.464 94.8556 114.627 94.4746 114.845 94.148C115.171 94.0936 115.498 94.0936 115.879 94.0936C116.26 94.0936 116.587 94.148 116.913 94.148L117.403 95.1822C117.512 95.4544 117.621 95.6177 117.621 95.781C117.675 95.8898 117.73 96.0531 117.73 96.162C117.838 96.162 118.002 96.162 118.165 96.162C118.328 96.162 118.492 96.162 118.601 96.162L118.111 95.1822C117.838 94.6923 117.621 94.0936 117.294 93.4404C116.804 92.3517 116.369 91.4264 116.097 90.7188H115.988H115.879C115.552 91.4808 115.171 92.3517 114.627 93.4404C114.3 94.0936 114.028 94.6379 113.756 95.1822C113.756 95.5088 113.593 95.7265 113.538 95.8898ZM115.933 91.8074L116.641 93.3859L116.695 93.5492C116.423 93.6037 116.151 93.6037 115.879 93.6037C115.607 93.6037 115.335 93.6037 115.062 93.5492L115.171 93.3315C115.443 92.7327 115.552 92.4606 115.552 92.4606C115.552 92.4606 115.716 92.2973 115.933 91.8074Z" fill="#663366"/>
</g>
<mask id="mask30_687_980" style="mask-type:luminance" maskUnits="userSpaceOnUse" x="5" y="53" width="140" height="44">
<path d="M145 53H5V96.2193H145V53Z" fill="white"/>
</mask>
<g mask="url(#mask30_687_980)">
<path d="M119.799 95.8349C119.799 95.9437 119.799 96.0526 119.744 96.107C119.853 96.107 120.016 96.107 120.18 96.107C120.343 96.107 120.452 96.107 120.615 96.107C120.615 96.0526 120.615 95.9437 120.615 95.8349C120.615 95.726 120.615 95.4539 120.615 95.1273C120.615 94.6374 120.615 94.0386 120.615 93.4399H120.887C121.159 93.7665 121.486 94.1475 121.867 94.5829L122.357 95.1273C122.575 95.3994 122.738 95.5627 122.847 95.726C122.956 95.8349 123.01 95.9982 123.119 96.107C123.282 96.107 123.446 96.107 123.663 96.107C123.881 96.107 124.044 96.107 124.208 96.107C124.153 96.107 124.099 95.9982 123.99 95.8893C123.881 95.7805 123.663 95.5083 123.337 95.1273L122.901 94.5829C122.52 94.1475 122.194 93.712 121.921 93.3854C122.302 93.331 122.683 93.2221 122.956 93.0044C123.391 92.7322 123.609 92.3512 123.609 91.9158C123.609 91.4803 123.446 91.1537 123.173 90.936C122.847 90.7182 122.411 90.6094 121.813 90.6094C121.704 90.6094 121.595 90.6094 121.486 90.6094C121.377 90.6094 121.214 90.6094 121.051 90.6094C120.942 90.6094 120.833 90.6094 120.669 90.6094C120.506 90.6094 120.288 90.6094 120.016 90.6094C120.016 90.6638 120.016 90.7727 120.016 90.8815C120.016 90.9904 120.016 91.2626 120.016 91.5892C120.016 92.1335 120.016 92.6778 120.016 93.331C120.016 93.9842 120.016 94.5829 120.016 95.0728C119.799 95.5083 119.799 95.726 119.799 95.8349ZM120.506 91.0448C120.724 91.0448 120.942 91.0448 121.214 90.9904C121.649 90.9904 121.976 91.0993 122.194 91.2626C122.411 91.4259 122.52 91.6436 122.52 91.9702C122.52 92.2968 122.357 92.5689 122.085 92.7867C121.758 93.0044 121.377 93.1133 120.887 93.1133C120.778 93.1133 120.615 93.1133 120.506 93.1133V91.0448Z" fill="#663366"/>
</g>
<mask id="mask31_687_980" style="mask-type:luminance" maskUnits="userSpaceOnUse" x="5" y="53" width="140" height="44">
<path d="M145 53H5V96.2193H145V53Z" fill="white"/>
</mask>
<g mask="url(#mask31_687_980)">
<path d="M126.275 95.127C126.275 94.5827 126.275 94.0384 126.275 93.3852C126.275 92.4598 126.275 91.6978 126.275 91.0446H125.839C125.567 91.0446 125.295 91.0446 125.023 91.0446C124.751 91.0446 124.587 91.099 124.479 91.099C124.479 91.0446 124.479 90.9357 124.479 90.8268C124.479 90.718 124.479 90.6091 124.479 90.5547C124.805 90.5547 125.132 90.6091 125.513 90.6091C125.894 90.6091 126.166 90.6091 126.384 90.6091H126.601H126.819C127.037 90.6091 127.363 90.6091 127.744 90.6091C128.125 90.6091 128.452 90.5547 128.779 90.5547C128.779 90.6091 128.724 90.718 128.724 90.8268C128.724 90.9357 128.724 91.0446 128.779 91.099C128.67 91.099 128.507 91.0446 128.234 91.0446C127.962 91.0446 127.69 91.0446 127.418 91.0446H127.091C127.091 91.6978 127.091 92.4598 127.091 93.3307C127.091 93.9839 127.091 94.5827 127.091 95.0726C127.091 95.3992 127.091 95.6169 127.091 95.7802C127.091 95.8891 127.091 95.9979 127.091 96.0524C126.982 96.0524 126.819 96.0524 126.656 96.0524C126.493 96.0524 126.384 96.0524 126.22 96.0524C126.22 95.9979 126.22 95.8891 126.22 95.7802C126.22 95.7258 126.22 95.508 126.275 95.127Z" fill="#663366"/>
</g>
<mask id="mask32_687_980" style="mask-type:luminance" maskUnits="userSpaceOnUse" x="5" y="53" width="140" height="44">
<path d="M145 53H5V96.2193H145V53Z" fill="white"/>
</mask>
<g mask="url(#mask32_687_980)">
<path d="M130.412 95.1273C130.412 95.4539 130.412 95.6716 130.466 95.8349C130.466 95.9437 130.466 96.0526 130.521 96.107C130.412 96.107 130.357 96.107 130.248 96.107C130.14 96.107 130.031 96.107 129.922 96.107C129.922 96.0526 129.922 95.9437 129.922 95.8349C129.922 95.726 129.922 95.4539 129.922 95.1273C129.922 94.5829 129.922 94.0386 129.922 93.3854C129.922 92.7322 129.922 92.1879 129.922 91.6436C129.922 91.317 129.922 91.0993 129.922 90.936C129.922 90.8271 129.922 90.7182 129.922 90.6638H130.031H130.14C130.847 91.4259 131.718 92.3512 132.861 93.4399L134.222 94.8007V93.3854C134.222 92.7322 134.222 92.1335 134.222 91.5892C134.222 91.2626 134.222 90.9904 134.222 90.8815C134.222 90.7727 134.222 90.6638 134.222 90.6094C134.331 90.6094 134.385 90.6094 134.494 90.6094C134.603 90.6094 134.712 90.6094 134.766 90.6094C134.766 90.6638 134.766 90.7727 134.766 90.8815C134.766 90.9904 134.766 91.2626 134.766 91.5892C134.766 92.1335 134.766 92.7322 134.766 93.3854C134.766 94.4741 134.766 95.3994 134.821 96.1615H134.549H134.44C133.732 95.3994 132.861 94.4741 131.718 93.3854L130.357 92.0246V93.3854C130.357 94.0386 130.357 94.6374 130.412 95.1273Z" fill="#663366"/>
</g>
<mask id="mask33_687_980" style="mask-type:luminance" maskUnits="userSpaceOnUse" x="5" y="53" width="140" height="44">
<path d="M145 53H5V96.2193H145V53Z" fill="white"/>
</mask>
<g mask="url(#mask33_687_980)">
<path d="M136.236 96.1615C136.236 96.107 136.236 95.9982 136.236 95.8893C136.236 95.7805 136.236 95.5083 136.236 95.1817C136.236 94.6374 136.236 94.0386 136.236 93.3854C136.236 92.7322 136.236 92.1335 136.236 91.5892C136.236 91.2626 136.236 91.0448 136.236 90.8815C136.236 90.7727 136.236 90.6638 136.236 90.6094C136.345 90.6094 136.508 90.6638 136.726 90.6638C136.944 90.6638 137.162 90.6638 137.434 90.6638H138.087C138.359 90.6638 138.577 90.6638 138.74 90.6638C138.958 90.6638 139.121 90.6094 139.285 90.6094C139.285 90.6638 139.285 90.7727 139.285 90.8815C139.285 90.9904 139.285 91.0993 139.285 91.1537C139.176 91.1537 139.012 91.0993 138.795 91.0993C138.577 91.0993 138.305 91.0993 138.087 91.0993H137.815C137.543 91.0993 137.325 91.0993 137.107 91.0993V93.0588H137.869C138.087 93.0588 138.359 93.0588 138.631 93.0588C138.904 93.0588 139.067 93.0044 139.176 93.0044C139.176 93.0588 139.176 93.1677 139.176 93.2766C139.176 93.3854 139.176 93.4943 139.176 93.5487C139.067 93.5487 138.904 93.4943 138.631 93.4943C138.359 93.4943 138.141 93.4943 137.869 93.4943H137.107C137.107 94.3652 137.107 95.0728 137.107 95.726H137.652H137.924C138.196 95.726 138.414 95.726 138.686 95.726C138.958 95.726 139.176 95.6716 139.285 95.6716C139.285 95.7804 139.285 95.8349 139.285 95.9437C139.285 96.0526 139.285 96.1615 139.285 96.2159C139.176 96.2159 139.012 96.1615 138.74 96.1615C138.522 96.1615 138.305 96.1615 138.087 96.1615H137.434C137.216 96.1615 136.998 96.1615 136.781 96.1615C136.563 96.107 136.4 96.1615 136.236 96.1615Z" fill="#663366"/>
</g>
<mask id="mask34_687_980" style="mask-type:luminance" maskUnits="userSpaceOnUse" x="5" y="53" width="140" height="44">
<path d="M145 53H5V96.2193H145V53Z" fill="white"/>
</mask>
<g mask="url(#mask34_687_980)">
<path d="M140.754 95.8349C140.754 95.9437 140.754 96.0526 140.754 96.107C140.863 96.107 141.026 96.107 141.189 96.107C141.353 96.107 141.462 96.107 141.625 96.107C141.625 96.0526 141.625 95.9437 141.57 95.8349C141.57 95.726 141.57 95.4539 141.57 95.1273C141.57 94.6374 141.57 94.0386 141.57 93.4399H141.843C142.115 93.7665 142.441 94.1475 142.822 94.5829L143.312 95.1273C143.53 95.3994 143.693 95.5627 143.802 95.726C143.911 95.8349 143.965 95.9982 144.074 96.107C144.238 96.107 144.401 96.107 144.619 96.107C144.836 96.107 145 96.107 145.163 96.107C145.108 96.107 145.054 95.9982 144.945 95.8893C144.836 95.7805 144.619 95.5083 144.292 95.1273L143.857 94.5829C143.476 94.1475 143.149 93.712 142.822 93.3854C143.203 93.331 143.584 93.2221 143.857 93.0044C144.292 92.7322 144.51 92.3512 144.51 91.9158C144.51 91.4803 144.346 91.1537 144.074 90.936C143.748 90.7182 143.312 90.6094 142.713 90.6094C142.605 90.6094 142.496 90.6094 142.387 90.6094C142.278 90.6094 142.115 90.6094 141.951 90.6094C141.843 90.6094 141.734 90.6094 141.57 90.6094C141.407 90.6094 141.189 90.6094 140.917 90.6094C140.917 90.6638 140.917 90.7727 140.917 90.8815C140.917 90.9904 140.917 91.2626 140.917 91.5892C140.917 92.1335 140.917 92.6778 140.917 93.331C140.917 93.9842 140.917 94.5829 140.917 95.0728C140.754 95.5083 140.754 95.726 140.754 95.8349ZM141.516 91.0448C141.734 91.0448 141.951 91.0448 142.224 90.9904C142.659 90.9904 142.986 91.0993 143.203 91.2626C143.421 91.4259 143.53 91.6436 143.53 91.9702C143.53 92.2968 143.367 92.5689 143.094 92.7867C142.768 93.0044 142.387 93.1133 141.897 93.1133C141.788 93.1133 141.625 93.1133 141.516 93.1133V91.0448Z" fill="#663366"/>
</g>
</g>
<defs>
<clipPath id="clip0_687_980">
<rect width="140" height="43.2193" fill="white" transform="translate(5 53)"/>
</clipPath>
</defs>
</svg>
