<svg width="150" height="150" viewBox="0 0 150 150" fill="none" xmlns="http://www.w3.org/2000/svg">
<mask id="mask0_692_2004" style="mask-type:luminance" maskUnits="userSpaceOnUse" x="5" y="5" width="140" height="140">
<path d="M5 5H145V145H5V5Z" fill="white"/>
</mask>
<g mask="url(#mask0_692_2004)">
<path d="M26.1756 52.9879C24.6829 58.8939 24.0797 65.5023 25.3941 72.3393C27.0101 80.7418 28.3445 86.3035 29.3753 89.9648" stroke="#663366" stroke-width="4.10156" stroke-miterlimit="10" stroke-linecap="round" stroke-linejoin="round"/>
<path d="M32.5264 37.4387C31.3575 39.505 30.1404 41.8984 29.0234 44.5508" stroke="#663366" stroke-width="4.10156" stroke-miterlimit="10" stroke-linecap="round" stroke-linejoin="round"/>
<path d="M40.1724 40.657C36.2021 47.4602 31.1708 58.95 33.4513 70.7871C35.3107 80.4559 36.7052 86.0285 37.5474 89.0117" stroke="#663366" stroke-width="4.10156" stroke-miterlimit="10" stroke-linecap="round" stroke-linejoin="round"/>
<path d="M98.2422 65.8398V35.759" stroke="#663366" stroke-width="4.10156" stroke-miterlimit="10" stroke-linecap="round" stroke-linejoin="round"/>
<path d="M106.445 48.6133V38.3102" stroke="#663366" stroke-width="4.10156" stroke-miterlimit="10" stroke-linecap="round" stroke-linejoin="round"/>
<path d="M106.445 66.0156V58.4551" stroke="#663366" stroke-width="4.10156" stroke-miterlimit="10" stroke-linecap="round" stroke-linejoin="round"/>
<path d="M111.367 53.5352C111.367 56.2534 109.164 58.457 106.445 58.457C103.727 58.457 101.523 56.2534 101.523 53.5352C101.523 50.8169 103.727 48.6133 106.445 48.6133C109.164 48.6133 111.367 50.8169 111.367 53.5352Z" stroke="#663366" stroke-width="4.10156" stroke-miterlimit="10" stroke-linecap="round" stroke-linejoin="round"/>
<path d="M138.574 134.746H11.4258C9.00941 134.746 7.05078 132.787 7.05078 130.371C7.05078 127.955 9.00941 125.996 11.4258 125.996H138.574C140.991 125.996 142.949 127.955 142.949 130.371C142.949 132.787 140.991 134.746 138.574 134.746Z" stroke="#663366" stroke-width="4.10156" stroke-miterlimit="10" stroke-linecap="round" stroke-linejoin="round"/>
<path d="M113.828 95.918C113.828 102.261 108.686 107.402 102.344 107.402C96.0011 107.402 90.8594 102.261 90.8594 95.918C90.8594 89.5753 96.0011 84.4336 102.344 84.4336C108.686 84.4336 113.828 89.5753 113.828 95.918Z" stroke="#663366" stroke-width="4.10156" stroke-miterlimit="10" stroke-linecap="round" stroke-linejoin="round"/>
<path d="M127.338 78.0179C131.048 83.0196 133.242 89.2125 133.242 95.918C133.242 112.53 119.776 125.996 103.164 125.996H35.249C25.0364 125.996 16.7578 117.717 16.7578 107.505C16.7578 97.2925 25.0364 89.0137 35.249 89.0137H46.4282C56.0511 89.0137 65.185 84.7751 71.398 77.4268C77.6111 70.0784 86.745 65.8398 96.3678 65.8398H103.164C109.926 65.8398 116.167 68.0714 121.19 71.838" stroke="#663366" stroke-width="4.10156" stroke-miterlimit="10" stroke-linecap="round" stroke-linejoin="round"/>
<path d="M48.7131 117.793H35.249C29.5763 117.793 24.9609 113.178 24.9609 107.505C24.9609 101.832 29.5763 97.2168 35.249 97.2168H46.4282C58.4901 97.2168 69.8744 91.934 77.6622 82.7232C82.3262 77.2066 89.1441 74.043 96.3678 74.043H103.164C115.226 74.043 125.039 83.8561 125.039 95.918C125.039 107.98 115.226 117.793 103.164 117.793H57.5648" stroke="#663366" stroke-width="4.10156" stroke-miterlimit="10" stroke-linecap="round" stroke-linejoin="round"/>
<path d="M118.774 34.391C118.774 38.1663 115.741 41.2305 111.997 41.2305C108.717 41.2305 105.984 38.8805 105.355 35.759H89.8342C87.5904 35.759 85.7715 33.9234 85.7715 31.6588C85.7715 29.3917 87.5931 27.5548 89.84 27.5586C94.6188 27.5668 109.029 27.5788 112.031 27.5788C116.394 27.5788 118.774 30.8128 118.774 34.391Z" stroke="#663366" stroke-width="4.10156" stroke-miterlimit="10" stroke-linecap="round" stroke-linejoin="round"/>
<path d="M43.357 35.7366L48.3007 37.9594C48.8476 38.2055 49.4191 38.3203 49.9796 38.3203C51.5434 38.3203 53.0394 37.4207 53.723 35.9004C54.6527 33.8359 53.7309 31.4078 51.6668 30.4781L34.2105 22.625C33.6636 22.3789 33.0921 22.2641 32.5286 22.2641C30.9648 22.2641 29.4691 23.1637 28.7882 24.684C27.8583 26.7484 28.7798 29.1766 30.8442 30.1062L34.0246 31.5374" stroke="#663366" stroke-width="4.10156" stroke-miterlimit="10" stroke-linecap="round" stroke-linejoin="round"/>
<path d="M32.8808 32.832L23.6238 30.863C21.6772 30.3807 20.3125 28.6512 20.3125 26.6674V15.2533" stroke="#663366" stroke-width="4.10156" stroke-miterlimit="10" stroke-linecap="round" stroke-linejoin="round"/>
<path d="M102.343 95.915L94.5898 101.02" stroke="#663366" stroke-width="4.10156" stroke-miterlimit="10" stroke-linecap="round" stroke-linejoin="round"/>
<path d="M91.6426 107.973H85.627C83.3618 107.973 81.5254 106.136 81.5254 103.871C81.5254 101.606 83.3618 99.7695 85.627 99.7695H91.6426C93.9077 99.7695 95.7441 101.606 95.7441 103.871C95.7441 106.136 93.9077 107.973 91.6426 107.973Z" stroke="#663366" stroke-width="4.10156" stroke-miterlimit="10" stroke-linecap="round" stroke-linejoin="round"/>
<path d="M43.2012 35.7617C43.2012 38.7821 40.7528 41.2305 37.7324 41.2305C34.712 41.2305 32.2637 38.7821 32.2637 35.7617C32.2637 32.7413 34.712 30.293 37.7324 30.293C40.7528 30.293 43.2012 32.7413 43.2012 35.7617Z" stroke="#663366" stroke-width="4.10156" stroke-miterlimit="10" stroke-linecap="round" stroke-linejoin="round"/>
</g>
</svg>
