<svg width="150" height="150" viewBox="0 0 150 150" fill="none" xmlns="http://www.w3.org/2000/svg">
<path d="M5 142.625H145" stroke="#663366" stroke-width="4.10156" stroke-miterlimit="10"/>
<path d="M66.25 15.2031H11.5625V142.625H66.25V15.2031Z" stroke="#663366" stroke-width="4.10156" stroke-miterlimit="10"/>
<path d="M66.25 94.7734L66.25 45.5547L11.5625 45.5547L11.5625 94.7734H66.25Z" stroke="#663366" stroke-width="4.10156" stroke-miterlimit="10"/>
<path d="M32.0703 94.7734V82.4688C32.0703 78.6934 35.1309 75.6328 38.9062 75.6328C42.6816 75.6328 45.7422 78.6934 45.7422 82.4688V94.7734H32.0703Z" stroke="#663366" stroke-width="4.10156" stroke-miterlimit="10"/>
<path d="M108.086 15.2031H91.6797V66.0625H108.086V15.2031Z" stroke="#663366" stroke-width="4.10156" stroke-miterlimit="10"/>
<path d="M120.391 66.0625H79.375V134.422H120.391V66.0625Z" stroke="#663366" stroke-width="4.10156" stroke-miterlimit="10"/>
<path d="M124.492 134.422H75.2734V142.625H124.492V134.422Z" stroke="#663366" stroke-width="4.10156" stroke-miterlimit="10"/>
<path d="M112.188 90.6719V74.2656H87.5781V90.6719H112.188Z" stroke="#663366" stroke-width="4.10156" stroke-miterlimit="10"/>
<path d="M90.3125 98.875H86.2109" stroke="#663366" stroke-width="4.10156" stroke-miterlimit="10"/>
<path d="M90.3125 107.078H86.2109" stroke="#663366" stroke-width="4.10156" stroke-miterlimit="10"/>
<path d="M106.719 98.875H94.4141" stroke="#663366" stroke-width="4.10156" stroke-miterlimit="10"/>
<path d="M114.922 98.875H110.82" stroke="#663366" stroke-width="4.10156" stroke-miterlimit="10"/>
<path d="M114.922 107.078H110.82" stroke="#663366" stroke-width="4.10156" stroke-miterlimit="10"/>
<path d="M142.812 93.4062L134.609 90.6719V81.9219H142.812V93.4062Z" stroke="#663366" stroke-width="4.10156" stroke-miterlimit="10"/>
<path d="M135.977 67.7031L142.812 70.9844V81.9219" stroke="#663366" stroke-width="4.10156" stroke-miterlimit="10"/>
<path d="M138.711 15.2031H11.2891C9.02391 15.2031 7.1875 13.3667 7.1875 11.1016C7.1875 8.83641 9.02391 7 11.2891 7H138.711C140.976 7 142.812 8.83641 142.812 11.1016C142.812 13.3667 140.976 15.2031 138.711 15.2031Z" stroke="#663366" stroke-width="4.10156" stroke-miterlimit="10"/>
<path d="M142.812 93.4062V129.5C142.812 132.218 140.609 134.422 137.891 134.422C135.172 134.422 132.969 132.218 132.969 129.5V122.938C132.969 120.219 130.765 118.016 128.047 118.016H120.391" stroke="#663366" stroke-width="4.10156" stroke-miterlimit="10"/>
</svg>
