<svg width="150" height="150" viewBox="0 0 150 150" fill="none" xmlns="http://www.w3.org/2000/svg">
<path d="M35.7539 80.6479V69.6085H39.3858V73.3344H42.789V69.6085H46.4262V80.6479H42.789V76.3646H39.3858V80.6479H35.7539ZM52.1736 72.3515H53.1151C53.7928 72.3515 54.2886 72.4217 54.6055 72.5626C54.8401 72.665 55.0307 72.8181 55.1979 73.0467C55.3505 73.2725 55.4739 73.5572 55.5646 73.9151C55.647 74.27 55.6909 74.6455 55.6909 75.0414C55.6909 75.6869 55.6031 76.2266 55.412 76.664C55.2272 77.1008 54.9605 77.4148 54.6173 77.6084C54.274 77.8054 53.7635 77.899 53.0887 77.899L52.1736 77.9048V72.3515ZM53.5758 80.6479C54.4325 80.6479 55.1424 80.5777 55.723 80.4221C56.3071 80.2724 56.782 80.073 57.1458 79.8351C57.5158 79.5913 57.8498 79.2632 58.1579 78.8551C58.4632 78.4329 58.7303 77.9019 58.938 77.251C59.1526 76.6026 59.255 75.8717 59.255 75.0448C59.255 73.8303 59.0234 72.8035 58.5543 71.9468C58.079 71.1077 57.4334 70.5002 56.6089 70.1428C55.7879 69.7845 54.8079 69.6085 53.6694 69.6085H48.6207V80.6479H53.5758ZM60.919 80.6479V69.6085H69.5318V72.331H64.5036V74.0999H68.526V76.7488H64.5036V80.6479H60.919ZM81.6946 73.8303H78.2655C78.2007 73.2813 78.0013 72.8473 77.6697 72.5363C77.3353 72.2311 76.916 72.0814 76.3996 72.0814C75.757 72.0814 75.2349 72.331 74.8331 72.8239C74.4284 73.3227 74.2256 74.1291 74.2256 75.2383C74.2256 76.0126 74.3168 76.5938 74.484 76.9897C74.6571 77.3973 74.9004 77.6908 75.2027 77.8873C75.5137 78.0838 75.8921 78.1749 76.3582 78.1749C76.916 78.1749 77.3616 78.0336 77.6873 77.7113C78.0218 77.409 78.2153 76.9575 78.2802 76.3529H81.7711C81.6946 77.0394 81.5566 77.6142 81.3572 78.0838C81.167 78.5504 80.8262 79.014 80.366 79.4802C79.8934 79.9565 79.3255 80.3275 78.6995 80.5689C78.0569 80.8239 77.3148 80.9443 76.464 80.9443C75.6254 80.9443 74.8419 80.8239 74.1349 80.5777C73.4192 80.3251 72.8146 79.9672 72.3334 79.5182C71.8434 79.0521 71.4621 78.5299 71.1895 77.9399C70.7961 77.1101 70.6113 76.1974 70.6113 75.1794C70.6113 74.3286 70.7493 73.5216 71.0282 72.783C71.3066 72.0492 71.6912 71.4246 72.1808 70.92C72.6737 70.4178 73.2105 70.0424 73.8092 69.7903C74.5659 69.4675 75.3992 69.3125 76.3231 69.3125C77.1271 69.3125 77.8721 69.4295 78.5761 69.667C79.2772 69.9049 79.8526 70.2511 80.3011 70.7118C80.7527 71.1665 81.1087 71.7069 81.3484 72.3013C81.5244 72.7211 81.6361 73.2286 81.6946 73.8303ZM93.3269 72.0936C93.8403 72.0936 94.1718 72.117 94.3361 72.1638C94.5382 72.2213 94.7175 72.3403 94.8491 72.5041C94.9783 72.6684 95.046 72.859 95.046 73.0794C95.046 73.3607 94.9344 73.5923 94.7203 73.7683C94.4912 73.9536 94.1011 74.0385 93.5404 74.0385H92.1738V72.0931L93.3269 72.0936ZM94.2386 80.6479C95.0987 80.6479 95.7028 80.6069 96.0577 80.5309C96.4287 80.4403 96.7896 80.3124 97.1348 80.1491C97.4926 79.9614 97.7686 79.7854 97.95 79.5918C98.2318 79.3305 98.44 79.014 98.5926 78.6323C98.7452 78.2481 98.8217 77.8141 98.8217 77.3475C98.8217 76.6815 98.6569 76.133 98.3229 75.6869C97.9885 75.2383 97.5394 74.9419 96.9734 74.7805C97.9324 74.1759 98.4107 73.3958 98.4107 72.4451C98.4107 71.4627 97.9885 70.7118 97.1523 70.2013C96.5068 69.8079 95.5004 69.6085 94.1362 69.6085H88.6594V80.6479H94.2386ZM93.6555 76.0243C94.3742 76.0243 94.8403 76.1121 95.0753 76.2973C95.2922 76.4763 95.4098 76.7225 95.4098 77.054C95.4098 77.3885 95.2922 77.6528 95.0548 77.8376C94.8286 78.034 94.3566 78.1159 93.6555 78.1159H92.1738V76.0243H93.6555ZM106.798 76.937H104.489L105.628 72.9205L106.798 76.937ZM103.404 80.6479L103.823 79.1988H107.437L107.86 80.6479H111.472L107.511 69.6085H103.823L99.8597 80.6479H103.404ZM112.997 80.6479V69.6085H116.379L120.196 75.5197V69.6085H123.675V80.6479H120.219L116.485 74.8834V80.6479H112.997ZM126.096 80.6479V69.6085H129.613V73.2491L132.896 69.6085H137.161L133.116 73.7654L137.581 80.6479H133.233L130.578 76.25L129.613 77.2037V80.6479H126.096Z" fill="#663366"/>
<path d="M9.08301 82.7031H15.499V86.7842H5V76.2881H9.08301V82.7031ZM28.3311 86.7842H17.832V82.7031H24.25V76.2881H28.3311V86.7842ZM28.3311 73.9561H24.25V67.5361H17.832V63.4541H15.499V67.5361H9.08301V73.9561H5V63.4531H28.3311V73.9561Z" fill="#ED232A"/>
<path d="M13.168 71.625H20.1674V78.625H13.168V71.625Z" fill="#004C8F"/>
</svg>
