<svg width="150" height="150" viewBox="0 0 150 150" fill="none" xmlns="http://www.w3.org/2000/svg">
<path d="M21.8164 7H81.2891V14.1094H7.46094V7H17.7148" stroke="#663366" stroke-width="4.10156" stroke-miterlimit="10"/>
<path d="M11.5625 142.898V14.1094" stroke="#663366" stroke-width="4.10156" stroke-miterlimit="10"/>
<path d="M77.1875 14.1094V142.898" stroke="#663366" stroke-width="4.10156" stroke-miterlimit="10"/>
<path d="M30.7031 91.7656L30.7031 80.8281H19.7656V91.7656H30.7031Z" stroke="#663366" stroke-width="4.10156" stroke-miterlimit="10"/>
<path d="M49.8438 91.7656V80.8281H38.9062V91.7656H49.8438Z" stroke="#663366" stroke-width="4.10156" stroke-miterlimit="10"/>
<path d="M30.7031 112L30.7031 101.062H19.7656V112H30.7031Z" stroke="#663366" stroke-width="4.10156" stroke-miterlimit="10"/>
<path d="M49.8438 112V101.062H38.9062V112H49.8438Z" stroke="#663366" stroke-width="4.10156" stroke-miterlimit="10"/>
<path d="M68.9844 91.7656V80.8281H58.0469V91.7656H68.9844Z" stroke="#663366" stroke-width="4.10156" stroke-miterlimit="10"/>
<path d="M68.9844 112V101.062H58.0469V112H68.9844Z" stroke="#663366" stroke-width="4.10156" stroke-miterlimit="10"/>
<path d="M96.1914 96.2773V85.3398H85.2539V96.2773H96.1914Z" stroke="#663366" stroke-width="4.10156" stroke-miterlimit="10"/>
<path d="M130.918 115.418L130.918 104.48L119.98 104.48L119.98 115.418L130.918 115.418Z" stroke="#663366" stroke-width="4.10156" stroke-miterlimit="10"/>
<path d="M130.918 96.2773V85.3398H104.395V96.2773H130.918Z" stroke="#663366" stroke-width="4.10156" stroke-miterlimit="10"/>
<path d="M111.777 115.418L111.777 104.48L85.2539 104.48L85.2539 115.418L111.777 115.418Z" stroke="#663366" stroke-width="4.10156" stroke-miterlimit="10"/>
<path d="M130.918 134.559L130.918 123.621L119.98 123.621L119.98 134.559L130.918 134.559Z" stroke="#663366" stroke-width="4.10156" stroke-miterlimit="10"/>
<path d="M111.777 134.559L111.777 123.621L85.2539 123.621L85.2539 134.559L111.777 134.559Z" stroke="#663366" stroke-width="4.10156" stroke-miterlimit="10"/>
<path d="M27.9688 142.898V121.297H55.3125V142.898" stroke="#663366" stroke-width="4.10156" stroke-miterlimit="10"/>
<path d="M145 142.898H126.816" stroke="#663366" stroke-width="4.10156" stroke-miterlimit="10"/>
<path d="M122.715 142.898H5" stroke="#663366" stroke-width="4.10156" stroke-miterlimit="10"/>
<path d="M102.29 41.6027C102.29 45.0393 105.076 47.8253 108.512 47.8253C112.808 47.8253 116.29 44.3428 116.29 40.0471C116.29 34.6773 111.937 30.3242 106.568 30.3242C99.8552 30.3242 94.4141 35.7656 94.4141 42.4777C94.4141 50.8679 101.216 57.6696 109.606 57.6696C120.451 57.6997 127.231 48.6536 127.227 38.6796" stroke="#663366" stroke-width="4.10156" stroke-miterlimit="10"/>
<path d="M110.82 69.9727C125.167 69.9727 136.797 58.3426 136.797 43.9961C136.797 29.6496 125.167 18.0195 110.82 18.0195C96.4739 18.0195 84.8438 29.6496 84.8438 43.9961C84.8438 58.3426 96.4739 69.9727 110.82 69.9727Z" stroke="#663366" stroke-width="4.10156" stroke-miterlimit="10"/>
<path d="M77.1875 76.7852H138.984V142.899" stroke="#663366" stroke-width="4.10156" stroke-miterlimit="10"/>
<path d="M97.1484 65.8398V76.7864" stroke="#663366" stroke-width="4.10156" stroke-miterlimit="10"/>
<path d="M124.766 65.8398V76.7864" stroke="#663366" stroke-width="4.10156" stroke-miterlimit="10"/>
<path d="M66.25 39.2656H53.125V26.1406H35.625V39.2656H22.5V56.7656H35.625V69.8906H53.125V56.7656H66.25V39.2656Z" stroke="#663366" stroke-width="4.10156" stroke-miterlimit="10"/>
<path d="M46.9688 130.047V134.148" stroke="#663366" stroke-width="4.10156" stroke-miterlimit="10"/>
<path d="M36.3047 130.047V134.148" stroke="#663366" stroke-width="4.10156" stroke-miterlimit="10"/>
</svg>
