<svg width="150" height="150" viewBox="0 0 150 150" fill="none" xmlns="http://www.w3.org/2000/svg">
<path fill-rule="evenodd" clip-rule="evenodd" d="M54.8533 97.2677H48.8535L57.4876 72.9761H63.4874L54.8533 97.2677ZM84.9997 80.8774C84.9997 79.4148 85.1463 76.7806 80.0243 76.7806C77.0977 76.7806 72.2681 78.3896 69.7804 85.1215C68.3171 89.5122 68.9025 93.464 74.1711 93.464C77.5366 93.464 80.4632 91.8542 82.2197 88.9275H88.3669C85.1463 94.1953 79.732 97.8548 72.4146 97.8548C64.6592 97.8548 60.5616 93.464 63.6348 85.1223C66.5622 76.6356 74.0253 72.3906 81.635 72.3906C90.4157 72.3906 92.1713 77.3668 91.1469 80.8781L84.9997 80.8774ZM95.5369 97.2677H89.5362L98.1711 72.9761H104.317L95.5369 97.2677ZM125.829 80.8774C125.829 79.4148 125.829 76.7806 120.854 76.7806C117.927 76.7806 112.952 78.3896 110.464 85.1215C109 89.5122 109.584 93.464 114.855 93.464C118.22 93.464 121.146 91.8542 122.903 88.9275H129.05C125.976 94.1953 120.416 97.8548 113.099 97.8548C105.344 97.8548 101.392 93.464 104.318 85.1223C107.392 76.6356 114.856 72.3906 122.319 72.3906C131.098 72.3906 132.856 77.3668 131.831 80.8781L125.829 80.8774ZM136.366 97.2677H130.219L138.854 72.9761H144.999L136.366 97.2677Z" fill="#663366"/>
<path fill-rule="evenodd" clip-rule="evenodd" d="M47.0977 55.7031C51.1953 61.5564 48.2678 72.8255 39.9269 81.8985C35.9759 85.9969 31.5852 89.0693 27.3418 90.8258C27.3418 92.2883 27.6341 93.6058 27.7807 94.4836C31.4386 92.4348 35.0981 89.5082 38.4636 85.8503C48.4136 75.0201 52.0731 61.9961 47.0977 55.7031Z" fill="#663366"/>
<path fill-rule="evenodd" clip-rule="evenodd" d="M46.2194 54.8275L47.0981 55.7054C46.7842 55.2454 46.3871 54.8482 45.9271 54.5344C42.1218 50.8757 35.39 51.3146 28.8047 54.9733C35.6831 51.6078 42.4142 51.1689 46.2194 54.8275Z" fill="#663366"/>
<path fill-rule="evenodd" clip-rule="evenodd" d="M13.0002 89.9518C7.29275 84.6841 10.0736 72.3913 19.1466 62.5863C22.2198 59.3665 25.4388 56.8788 28.8051 54.9766C24.4152 57.1711 19.8779 60.5375 15.9268 64.9274C5.39053 76.1966 1.87763 90.0976 8.02481 95.9524C10.3659 98.0012 13.4391 98.7325 17.0978 98.2936C18.7077 96.3906 19.8787 94.3418 20.9031 92.4387C17.8299 92.5853 15.049 91.8541 13.0002 89.9518Z" fill="#663366"/>
<path fill-rule="evenodd" clip-rule="evenodd" d="M28.8041 54.97C35.6826 51.6037 42.4136 51.1648 46.2189 54.8235L47.0975 55.7013C51.1951 61.5545 48.2677 72.8237 39.9267 81.8967C35.9757 85.9951 31.585 89.0675 27.3416 90.8239C27.3416 88.3362 27.9271 85.1157 29.3904 81.1654C29.3904 81.1654 30.2682 79.2624 32.756 70.7749C32.756 70.7749 34.9505 66.3842 28.6584 67.8483C28.6584 67.8483 24.7073 68.1406 17.9755 74.8725C17.9755 74.8725 14.7557 79.2632 20.6098 76.6289C20.6098 76.6289 23.8295 73.9939 23.8295 77.9449C23.8295 77.9449 24.5608 84.531 20.9029 92.433C17.8297 92.5796 15.0489 91.8483 13.0009 89.9453C7.2934 84.6775 10.0742 72.3848 19.1472 62.5797C22.2188 59.36 25.4386 56.8723 28.8041 54.97ZM31.585 57.6043C29.5362 59.7997 29.0973 62.4332 30.2674 63.6041C31.585 64.6285 34.0727 63.8973 36.1215 61.8477C38.0237 59.6531 38.6092 57.0188 37.2925 55.8479C35.9757 54.6769 33.4872 55.5547 31.585 57.6043Z" fill="#663366"/>
</svg>
