<svg width="150" height="150" viewBox="0 0 150 150" fill="none" xmlns="http://www.w3.org/2000/svg">
<path fill-rule="evenodd" clip-rule="evenodd" d="M143.098 145C143.098 145 134.449 134.409 132.211 131.719C139.238 123.333 143.389 112.913 144.054 101.992C144.944 87.4245 139.675 72.5728 128.342 61.7216C126.759 60.2155 125.083 58.8115 123.322 57.5179L136.919 52.4747L109.148 5L106.368 12.5087L103.235 20.9677C76.8839 16.3435 50.9882 32.9103 44.5071 59.2545C43.9782 61.4061 43.6396 63.5904 43.3919 65.7858L32.101 56.6488L5 104.459L21.7604 101.563C30.9849 126.678 58.3273 140.755 84.3664 133.138C86.4691 132.517 88.5301 131.762 90.5368 130.879C89.7075 135.72 88.0912 145 88.0912 145H143.098ZM83.4981 78.2151C82.1024 75.9448 81.4596 73.363 81.6189 70.7661C81.6675 69.999 81.7822 69.2311 81.9702 68.4687C82.8058 65.0688 85.006 62.2593 87.9287 60.5426C88.1263 67.3487 88.6664 86.1539 88.6664 86.1539L92.4534 86.0464C94.147 85.9916 95.8344 86.2765 97.4162 86.8844C98.9979 87.4922 100.442 88.4107 101.663 89.5857C104.185 92.0001 105.49 95.3036 105.523 98.6875C99.5049 95.4502 82.993 86.561 82.993 86.561L81.1975 89.8979C80.4001 91.3928 79.3112 92.7128 77.9951 93.7798C76.679 94.8469 75.1625 95.6394 73.5351 96.1106C70.1416 97.1031 66.5895 96.5821 63.6254 94.8798C69.4318 91.3111 82.2554 83.4256 82.2554 83.4256L85.484 81.4421L83.4981 78.2151Z" fill="#E8AE30"/>
<path fill-rule="evenodd" clip-rule="evenodd" d="M125.722 64.4613C122.476 61.3509 118.807 58.7147 114.823 56.6308L131.369 50.4938L109.919 13.8281L105.668 25.3094C80.2208 19.0968 54.4462 34.7164 48.1857 60.1629C47.116 64.5085 46.6623 68.9829 46.8379 73.4549L33.1922 62.4101L12.2441 99.3657L24.3078 97.281C31.7074 122.41 58.1527 136.863 83.3028 129.507C87.6328 128.242 91.7617 126.369 95.5664 123.945L92.5887 141.228H135.066L127.241 131.668C145.321 112.715 144.649 82.5854 125.722 64.4613ZM84.5328 91.6985C82.4138 95.6376 78.8849 98.499 74.5984 99.7529C68.06 101.666 61.2786 99.3378 57.1825 94.3989L80.2718 80.202C77.9274 76.3919 77.224 71.9039 78.2914 67.5672C79.9109 60.985 85.28 56.3026 91.5675 55.2081L92.3458 82.2612C96.8186 82.1338 101.057 83.7628 104.284 86.8528C109.179 91.5408 110.555 98.5309 108.368 104.524L84.5328 91.6985Z" fill="#FFF22D"/>
</svg>
