<svg width="150" height="150" viewBox="0 0 150 150" fill="none" xmlns="http://www.w3.org/2000/svg">
<g clip-path="url(#clip0_713_839)">
<path fill-rule="evenodd" clip-rule="evenodd" d="M23.3031 77.8108L22.475 81.7812H18.8557C19.1308 80.467 19.4066 79.0576 19.7192 77.713C19.783 77.4212 19.8539 77.1226 19.9213 76.7971C19.9213 76.5666 19.9546 76.3374 19.9922 76.1076C20.129 74.5015 18.9231 74.2049 17.7547 74.6976C17.0592 74.9598 16.7494 75.4174 16.4098 76.0098C16.0957 76.5349 15.9971 77.0249 15.8546 77.6807L14.9578 81.7812H11.3711L13.4732 72.0083C14.5778 71.9753 15.6788 71.9423 16.7855 71.912C16.6494 72.5334 16.4764 73.1245 16.3729 73.7473C17.7199 72.2058 19.4371 71.42 21.442 71.9753C23.4413 72.5004 23.8582 74.4051 23.5427 76.2377C23.5037 76.7971 23.4413 77.2871 23.3031 77.8108Z" fill="#663366"/>
<path fill-rule="evenodd" clip-rule="evenodd" d="M88.7172 67.585H92.2358L89.0979 81.8123H85.8593C85.9947 81.2873 86.1309 80.7649 86.3067 80.2358C85.6487 80.8289 85.1 81.3189 84.3747 81.6492V79.5167C84.6505 79.4533 84.9299 79.3522 85.1681 79.2235C86.2067 78.5994 86.6137 77.4846 86.6137 76.3691L86.547 75.8124C86.4797 75.2901 86.24 74.8277 85.6154 74.5682C85.2751 74.3694 84.7888 74.3694 84.3747 74.4368V71.9107C84.5796 71.9107 84.7526 71.9754 84.9299 71.9754C85.9281 72.2052 86.7866 72.8307 87.2758 73.7797L88.7172 67.585ZM84.3747 81.6492C84.1351 81.7806 83.8621 81.8453 83.5452 81.9087C82.586 82.1378 82.0273 82.2046 81.0291 81.8453C79.8593 81.4504 79.2751 80.6975 78.8263 79.6811C77.7919 77.1907 78.9256 73.6496 81.4779 72.4357C82.3045 72.0407 83.3722 71.8143 84.3747 71.9107V74.4368C84.1004 74.4698 83.7934 74.5682 83.5828 74.6976C82.9958 75.0596 82.6151 75.5833 82.4102 76.2047C82.172 76.8261 82.0273 77.7131 82.2379 78.3675C82.3045 78.6964 82.4456 78.9296 82.6491 79.1231C83.1312 79.5167 83.7934 79.6144 84.3747 79.5167" fill="#663366"/>
<path fill-rule="evenodd" clip-rule="evenodd" d="M59.4746 72.1429L58.7514 74.2396C57.7532 73.9795 57.0251 73.8447 55.9935 73.7807C55.6801 73.7807 55.4448 73.7476 55.2044 73.811C54.4756 73.9795 54.1644 74.5996 54.7181 75.0599C55.4051 75.7143 56.6139 75.8761 57.4753 76.4025C57.6858 76.5359 57.9247 76.7321 58.1644 76.9282C58.8485 77.9439 58.7514 79.0263 58.029 80.0778C56.8882 81.6812 54.7181 81.8457 52.7521 81.7142C51.6829 81.6462 50.7854 81.4514 49.7148 81.2552L50.3742 78.8936C51.6829 79.2238 52.5124 79.5197 53.7461 79.3842C54.3026 79.3526 55.1002 79.3842 55.1002 78.6658C54.9591 78.14 54.4437 77.8111 53.8886 77.5833C53.0647 77.2227 52.1672 76.9936 51.5128 76.3695C51.1278 75.8458 51.0222 75.4522 51.0222 74.797C51.0222 74.1412 51.2342 73.6843 51.544 73.2563C53.3058 70.8656 56.9279 71.5531 59.4746 72.1429Z" fill="#663366"/>
<path fill-rule="evenodd" clip-rule="evenodd" d="M39.0288 71.9097L42.6828 71.845C42.4077 73.0589 42.1291 74.2714 41.8533 75.5479C41.686 76.3682 41.34 77.4203 41.5825 78.2378C41.7221 78.6955 41.8866 78.8606 42.3397 78.9907C42.8572 79.1565 43.5165 79.0567 43.9292 78.7615C45.167 77.9109 45.5123 76.4989 45.8221 75.1219L46.5807 71.845H50.1341L47.9242 81.7803C46.8913 81.8113 45.8554 81.7473 44.7863 81.7803C44.8891 81.2202 45.0302 80.4007 45.167 79.8433C44.7863 80.1728 44.4786 80.5348 44.0639 80.828C43.5485 81.2202 42.9253 81.4838 42.2716 81.6482C41.5116 81.8113 40.4772 81.8113 39.7526 81.5154C38.9579 81.2202 38.3737 80.5348 38.0624 79.7779C37.6498 78.7615 37.82 78.0754 37.9944 77.024C38.2687 75.3208 38.6509 73.5825 39.0288 71.9097Z" fill="#663366"/>
<path fill-rule="evenodd" clip-rule="evenodd" d="M34.9577 67.585H38.4763L35.3051 81.8123H32.0623C32.2005 81.2873 32.3728 80.7649 32.5082 80.2358C31.8921 80.8289 31.3065 81.3189 30.6153 81.6492V79.5167C30.8925 79.4533 31.1647 79.3522 31.41 79.2235C32.4054 78.5994 32.8237 77.4846 32.8237 76.3691L32.784 75.8124C32.7174 75.2901 32.4416 74.8277 31.8269 74.5682C31.4738 74.3694 30.9931 74.3694 30.6153 74.4368V71.9107C30.7882 71.9107 30.9556 71.9754 31.1647 71.9754C32.1317 72.2052 32.9931 72.8307 33.5107 73.7797L34.9577 67.585ZM30.6153 81.6492C30.3409 81.7806 30.063 81.8453 29.7829 81.9087C28.8237 82.1378 28.2402 82.2046 27.2391 81.8453C26.0956 81.4504 25.4752 80.6975 25.025 79.6811C24.0225 77.1907 25.1718 73.6496 27.6851 72.4357C28.5117 72.0407 29.6142 71.8143 30.6153 71.9107V74.4368C30.3054 74.4698 30.0311 74.5682 29.7829 74.6976C29.2363 75.0596 28.8237 75.5833 28.6131 76.2047C28.3749 76.8261 28.2402 77.7131 28.4401 78.3675C28.5117 78.6964 28.6493 78.9296 28.8861 79.1231C29.3746 79.5167 29.9906 79.6144 30.6153 79.5167" fill="#663366"/>
<path fill-rule="evenodd" clip-rule="evenodd" d="M8.71699 67.5856H12.4058L9.33876 81.7812H5.61523" fill="#663366"/>
<path fill-rule="evenodd" clip-rule="evenodd" d="M77.1345 77.8108L76.2688 81.7812H72.6148C72.9239 80.467 73.2337 79.0576 73.5123 77.713C73.5811 77.4212 73.6534 77.1226 73.7555 76.8314C73.7555 76.5666 73.7555 76.3374 73.786 76.1076C73.9632 74.5015 72.6786 74.2049 71.5442 74.6976C70.8891 74.9921 70.5793 75.4174 70.2362 76.0098C69.8937 76.5349 69.7874 77.0593 69.6846 77.6807L68.7502 81.7812H65.2344L67.2698 72.0083C68.3695 71.9753 69.4811 71.9753 70.5793 71.912C70.4432 72.5334 70.3021 73.1245 70.1624 73.7473C71.5081 72.2058 73.2337 71.42 75.233 71.9753C77.2359 72.5004 77.6513 74.4051 77.3755 76.272C77.3046 76.7971 77.2359 77.2871 77.1345 77.8108Z" fill="#663366"/>
<path fill-rule="evenodd" clip-rule="evenodd" d="M62.3037 67.5856H66.0286L62.9616 81.7812H59.2324" fill="#663366"/>
<path fill-rule="evenodd" clip-rule="evenodd" d="M131.338 77.9134L130.478 81.9102H126.823C127.098 80.5676 127.444 79.1245 127.724 77.8123C127.785 77.4854 127.857 77.1922 127.929 76.8626C127.929 76.6328 127.958 76.4036 127.995 76.1704C128.136 74.5643 126.893 74.2738 125.717 74.7618C125.062 75.028 124.755 75.4857 124.38 76.0767C124.065 76.6011 123.963 77.0945 123.826 77.7476L122.923 81.8798H119.338L121.411 72.0422C122.508 72.0092 123.65 71.9762 124.755 71.9438C124.615 72.5659 124.475 73.1914 124.34 73.7811C125.652 72.2397 127.444 71.4525 129.412 71.9762C131.478 72.5349 131.857 74.4713 131.582 76.3073C131.544 76.8626 131.441 77.354 131.338 77.9134Z" fill="#663366"/>
<path fill-rule="evenodd" clip-rule="evenodd" d="M135.479 67.5834H139.098L137.235 76.0413L140.893 71.9738H144.96L140.689 76.4666L143.373 81.8438H139.51L137.135 76.6297L135.996 81.8438H132.445" fill="#663366"/>
<path fill-rule="evenodd" clip-rule="evenodd" d="M118.687 76.6324C118.376 78.0424 118.066 79.4193 117.786 80.7976L117.651 81.9097H114.651L114.862 80.4027C114.344 80.8933 113.789 81.32 113.205 81.6165V79.9113C113.236 79.8783 113.304 79.8783 113.371 79.8433C113.756 79.6485 114.033 79.5177 114.237 79.3189C114.721 78.8296 114.965 78.0781 115.165 77.4526H114.651C114.208 77.4526 113.685 77.4223 113.205 77.4526V75.8135C113.926 75.7488 114.755 75.7791 115.579 75.7791C115.579 74.9251 115.236 74.2734 114.305 74.0786C113.893 74.0112 113.516 74.0112 113.205 74.0112V71.9764C115.447 71.7169 117.826 72.0762 118.653 74.0112C119.064 74.9932 118.828 75.616 118.687 76.6324ZM113.205 81.6165C112.652 81.8794 112.029 82.0452 111.445 82.1072C110.098 82.2373 108.686 81.6502 108.1 80.4681C107.684 79.8116 107.792 79.0924 107.959 78.3396C108.136 77.6184 108.483 77.2235 109.372 76.6324C110.65 76.044 111.898 75.8451 113.205 75.8135V77.4526C112.686 77.4856 112.169 77.6184 111.825 77.8489C111.136 78.3396 110.863 79.2576 111.616 79.8116C112.065 80.1061 112.686 80.0785 113.205 79.9113V81.6165ZM113.205 74.0112C112.719 74.0112 112.303 74.0429 111.757 74.1757C111.136 74.3051 110.687 74.5025 110.098 74.762L110.512 72.4698C111.344 72.275 112.232 72.0762 113.205 71.9764" fill="#663366"/>
<path fill-rule="evenodd" clip-rule="evenodd" d="M100.996 68.7333H102.892C104.551 68.7333 107.101 68.9625 107.578 70.7985C107.683 71.0937 107.717 71.3862 107.717 71.6807V71.7164C107.717 72.7942 107.169 73.7472 106.135 74.4057C105.408 74.7305 104.792 74.8957 104.068 75.0918C105.926 75.3863 107.138 76.6002 106.755 78.5352C106.199 81.2218 103.547 81.6457 100.996 81.8129V79.4539C101.133 79.4539 101.275 79.4188 101.377 79.3845C103.513 79.0576 103.993 76.6972 101.964 76.2726C101.649 76.2052 101.344 76.1695 100.996 76.2052V74.1057C101.41 74.1057 101.859 74.0727 102.236 74.0107C103.376 73.7472 104.89 72.6337 103.648 71.3862C103.13 70.8659 101.893 70.9292 100.996 70.9939V68.7333ZM97.5487 68.7333H100.996V70.9939H100.685L99.9592 74.0727C100.271 74.0727 100.655 74.1057 100.996 74.1057V76.2052C100.513 76.2052 99.9953 76.2726 99.5132 76.3063L98.7894 79.5819C99.4069 79.5489 100.239 79.5489 100.996 79.4539V81.8129C100.787 81.8459 100.553 81.8459 100.337 81.8789H94.7539" fill="#663366"/>
</g>
<defs>
<clipPath id="clip0_713_839">
<rect width="140" height="15.1529" fill="white" transform="translate(5 67)"/>
</clipPath>
</defs>
</svg>
