<svg width="150" height="150" viewBox="0 0 150 150" fill="none" xmlns="http://www.w3.org/2000/svg">
<g clip-path="url(#clip0_713_835)">
<path fill-rule="evenodd" clip-rule="evenodd" d="M5.31055 74.9516C5.31055 63.3812 16.2165 54 29.6713 54C43.1261 54 54.0312 63.3812 54.0312 74.9516C54.0312 86.5219 43.1252 95.9031 29.6713 95.9031C16.2175 95.9031 5.31055 86.5233 5.31055 74.9516Z" fill="#003874"/>
<path fill-rule="evenodd" clip-rule="evenodd" d="M26.7133 60.7294L32.3731 58.8594L32.401 89.4546L26.6934 91.3669L26.7133 60.7294ZM85.5859 87.0638C91.025 87.0638 95.1674 83.9008 95.1674 78.4576C95.1674 72.9846 91.025 69.816 85.5859 69.816C80.1501 69.816 76.0073 72.9753 76.0073 78.4576C76.0073 83.9013 80.1497 87.0638 85.5859 87.0638ZM85.5859 83.0785C82.9628 83.0785 81.8891 80.8948 81.8891 78.4576C81.8891 75.9882 82.9577 73.8116 85.5859 73.8116C88.2142 73.8116 89.2855 75.9924 89.2855 78.4576C89.2855 80.8948 88.2169 83.0785 85.5859 83.0785ZM94.6447 74.186H97.8969V80.8948C97.8969 84.8161 99.1299 87.0638 104.218 87.0638C105.641 87.0638 106.718 86.8779 107.796 86.7479L107.61 83.0469C107.041 83.1412 106.44 83.2675 105.872 83.2675C104.07 83.2675 103.594 82.2547 103.594 80.2616V74.186H107.578V70.1998H103.594L103.593 64.4991L98 66.4969V70.1998H94.6484V74.186M127.496 86.6851H133.187V78.5221H133.249L137.803 86.6851H144.69L138.493 77.7625L144.215 70.2007H137.988L133.245 77.1297H133.183V64.5205L127.491 66.4983V86.6898" fill="#663366"/>
<path fill-rule="evenodd" clip-rule="evenodd" d="M60.8535 86.6876H66.5467V78.5246H66.609L71.163 86.6876H78.0544L71.8566 77.765L77.5791 70.2036H71.3521L66.6099 77.1327H66.5476V64.5234L60.8544 66.4004V86.6876M125.471 86.7643C125.214 85.4527 125.146 84.1393 125.146 82.8254V76.6137C125.146 71.5217 121.465 69.6912 117.209 69.6912C114.746 69.6912 112.601 70.0424 110.554 70.8759L110.647 74.7818C112.245 73.8865 114.102 73.5274 115.958 73.5274C118.038 73.5274 119.733 74.1369 119.765 76.4102C118.876 76.2642 117.978 76.1895 117.078 76.1867C114.012 76.1867 108.472 76.7963 108.472 81.8874C108.472 85.5057 111.415 87.1373 114.71 87.1373C117.078 87.1373 118.677 86.2081 119.99 84.1281H120.067C120.067 84.9923 120.162 85.8574 120.194 86.7531H125.476L125.471 86.7643ZM113.854 81.4818C113.854 79.8798 115.39 79.2721 117.342 79.2721C118.206 79.2721 119.039 79.3358 119.773 79.3678C119.773 81.3219 118.398 83.3053 116.224 83.3053C114.879 83.3053 113.854 82.6335 113.854 81.4818Z" fill="#663366"/>
<path fill-rule="evenodd" clip-rule="evenodd" d="M26.7133 60.7294L32.3731 58.8594L32.401 89.4546L26.6934 91.3669L26.7133 60.7294Z" fill="#ED1C24"/>
<path fill-rule="evenodd" clip-rule="evenodd" d="M60.8535 86.6876H66.5467V78.5246H66.609L71.163 86.6876H78.0544L71.8566 77.765L77.5791 70.2036H71.3521L66.6099 77.1327H66.5476V64.5234L60.8544 66.4004V86.6876M125.471 86.7643C125.214 85.4527 125.146 84.1393 125.146 82.8254V76.6137C125.146 71.5217 121.465 69.6912 117.209 69.6912C114.746 69.6912 112.601 70.0424 110.554 70.8759L110.647 74.7818C112.245 73.8865 114.102 73.5274 115.958 73.5274C118.038 73.5274 119.733 74.1369 119.765 76.4102C118.876 76.2642 117.978 76.1895 117.078 76.1867C114.012 76.1867 108.472 76.7963 108.472 81.8874C108.472 85.5057 111.415 87.1373 114.71 87.1373C117.078 87.1373 118.677 86.2081 119.99 84.1281H120.067C120.067 84.9923 120.162 85.8574 120.194 86.7531H125.476L125.471 86.7643ZM113.854 81.4818C113.854 79.8798 115.39 79.2721 117.342 79.2721C118.206 79.2721 119.039 79.3358 119.773 79.3678C119.773 81.3219 118.398 83.3053 116.224 83.3053C114.879 83.3053 113.854 82.6335 113.854 81.4818Z" fill="#663366"/>
<path fill-rule="evenodd" clip-rule="evenodd" d="M47.992 77.0641C47.461 81.4407 45.0061 85.8622 39.6455 85.8706C36.516 85.8762 34.0713 83.7334 32.3783 81.1117V78.0751C34.4968 79.1269 36.4769 80.2559 38.8794 80.2903C41.8389 80.334 44.515 79.1962 45.6216 77.0637H47.9925L47.992 77.0641ZM30.0724 79.8122C27.6133 82.7764 25.2369 85.8042 20.7842 85.8042C14.4949 85.8042 11.5117 79.7235 11.5117 74.6398C11.5117 69.7551 13.8431 63.9727 19.9702 63.9727C22.6277 63.9727 25.1858 65.5978 26.7106 67.3168L26.706 71.4634C25.432 70.6057 22.5785 69.7643 20.7154 69.7341C16.83 69.6691 13.4045 71.3533 13.464 75.1885C13.5044 77.8289 16.1205 79.6236 18.7232 79.6236C22.7095 79.6236 25.1245 75.9821 27.1427 73.2182C27.9519 72.1631 28.7518 71.101 29.5423 70.032C31.784 66.8996 34.3779 64.04 38.8306 64.04C44.0759 64.04 47.0206 68.2679 47.8531 72.6202H45.4837C44.5312 71.2088 42.6993 70.3451 40.8948 70.3451C36.7738 70.3451 34.3115 74.1362 32.2505 76.9275L30.0669 79.8118" fill="white"/>
</g>
<defs>
<clipPath id="clip0_713_835">
<rect width="140" height="41.9031" fill="white" transform="translate(5 54)"/>
</clipPath>
</defs>
</svg>
