<svg width="150" height="150" viewBox="0 0 150 150" fill="none" xmlns="http://www.w3.org/2000/svg">
<path d="M123.163 144.994H137.8C141.776 144.994 145 141.771 145 137.794C145 133.817 141.776 130.594 137.8 130.594H12.2003C8.22366 130.594 5 133.817 5 137.794C5 141.771 8.22366 144.994 12.2003 144.994H114.756" stroke="#663366" stroke-width="4.22534" stroke-miterlimit="10" stroke-linecap="round" stroke-linejoin="round"/>
<path d="M42.6356 64.5285H21.1686C18.177 64.5285 15.752 62.1035 15.752 59.1119C15.752 56.1204 18.177 53.6953 21.1686 53.6953H42.6356C45.6271 53.6953 48.0522 56.1204 48.0522 59.1119C48.0522 62.1035 45.6271 64.5285 42.6356 64.5285Z" stroke="#663366" stroke-width="4.22534" stroke-miterlimit="10" stroke-linecap="round" stroke-linejoin="round"/>
<path d="M42.6356 130.599H21.1686C18.177 130.599 15.752 128.174 15.752 125.182C15.752 122.191 18.177 119.766 21.1686 119.766H42.6356C45.6271 119.766 48.0522 122.191 48.0522 125.182C48.0522 128.174 45.6271 130.599 42.6356 130.599Z" stroke="#663366" stroke-width="4.22534" stroke-miterlimit="10" stroke-linecap="round" stroke-linejoin="round"/>
<path d="M128.833 64.5285H107.366C104.374 64.5285 101.949 62.1035 101.949 59.1119C101.949 56.1204 104.374 53.6953 107.366 53.6953H128.833C131.824 53.6953 134.249 56.1204 134.249 59.1119C134.249 62.1035 131.824 64.5285 128.833 64.5285Z" stroke="#663366" stroke-width="4.22534" stroke-miterlimit="10" stroke-linecap="round" stroke-linejoin="round"/>
<path d="M128.833 130.599H107.366C104.374 130.599 101.949 128.174 101.949 125.182C101.949 122.191 104.374 119.766 107.366 119.766H128.833C131.824 119.766 134.249 122.191 134.249 125.182C134.249 128.174 131.824 130.599 128.833 130.599Z" stroke="#663366" stroke-width="4.22534" stroke-miterlimit="10" stroke-linecap="round" stroke-linejoin="round"/>
<path d="M41.0109 64.5312H22.7949V119.767H41.0109V64.5312Z" stroke="#663366" stroke-width="4.22534" stroke-miterlimit="10" stroke-linecap="round" stroke-linejoin="round"/>
<path d="M127.208 64.5312H108.992V119.767H127.208V64.5312Z" stroke="#663366" stroke-width="4.22534" stroke-miterlimit="10" stroke-linecap="round" stroke-linejoin="round"/>
<path d="M31.9023 76.9453V107.649" stroke="#663366" stroke-width="4.22534" stroke-miterlimit="10" stroke-linecap="round" stroke-linejoin="round"/>
<path d="M118.1 76.9453V107.649" stroke="#663366" stroke-width="4.22534" stroke-miterlimit="10" stroke-linecap="round" stroke-linejoin="round"/>
<path d="M85.7332 64.5285H64.2662C61.2747 64.5285 58.8496 62.1035 58.8496 59.1119C58.8496 56.1204 61.2747 53.6953 64.2662 53.6953H85.7332C88.7248 53.6953 91.1498 56.1204 91.1498 59.1119C91.1498 62.1035 88.7248 64.5285 85.7332 64.5285Z" stroke="#663366" stroke-width="4.22534" stroke-miterlimit="10" stroke-linecap="round" stroke-linejoin="round"/>
<path d="M85.7332 130.599H64.2662C61.2747 130.599 58.8496 128.174 58.8496 125.182C58.8496 122.191 61.2747 119.766 64.2662 119.766H85.7332C88.7248 119.766 91.1498 122.191 91.1498 125.182C91.1498 128.174 88.7248 130.599 85.7332 130.599Z" stroke="#663366" stroke-width="4.22534" stroke-miterlimit="10" stroke-linecap="round" stroke-linejoin="round"/>
<path d="M84.1086 64.5312H65.8926V119.767H84.1086V64.5312Z" stroke="#663366" stroke-width="4.22534" stroke-miterlimit="10" stroke-linecap="round" stroke-linejoin="round"/>
<path d="M75 76.9453V107.649" stroke="#663366" stroke-width="4.22534" stroke-miterlimit="10" stroke-linecap="round" stroke-linejoin="round"/>
<path d="M37.758 25.2695L7.80393 43.0697C2.81408 46.0348 4.91436 53.6965 10.7172 53.6965H139.283C145.085 53.6965 147.186 46.0348 142.196 43.0697L80.826 6.60077C77.2345 4.46641 72.7652 4.46641 69.1737 6.60077L44.9298 21.0078" stroke="#663366" stroke-width="4.22534" stroke-miterlimit="10" stroke-linecap="round" stroke-linejoin="round"/>
<path d="M63.2246 21.7588L73.5437 15.6267C74.4418 15.0932 75.5589 15.0932 76.457 15.6267L86.6637 21.692" stroke="#663366" stroke-width="4.22534" stroke-miterlimit="10" stroke-linecap="round" stroke-linejoin="round"/>
<path d="M46.3301 36.5565H50.5075C52.3382 36.5565 53.8881 38.2236 53.9357 40.3492C53.985 42.5486 52.4647 44.3495 50.5825 44.3495C50.5825 44.3495 46.3304 44.3638 46.3304 44.3607V29.8906H49.8858C51.4512 29.8906 52.7768 31.316 52.8171 33.1337C52.8588 35.0134 51.5594 36.5526 49.9504 36.5526" stroke="#663366" stroke-width="4.22534" stroke-miterlimit="10" stroke-linecap="round" stroke-linejoin="round"/>
<path d="M60.1934 44.2597L65.5567 30.2009C65.6663 29.9333 66.0457 29.933 66.1559 30.2003L71.4705 44.2597" stroke="#663366" stroke-width="4.22534" stroke-miterlimit="10" stroke-linecap="round" stroke-linejoin="round"/>
<path d="M61.8652 40.7578H69.8238" stroke="#663366" stroke-width="4.22534" stroke-miterlimit="10" stroke-linecap="round" stroke-linejoin="round"/>
<path d="M78.0254 44.2597V30.0268L87.6642 43.9614C87.8428 44.2191 88.0344 44.0929 88.0344 43.7794L87.9009 30" stroke="#663366" stroke-width="4.22534" stroke-miterlimit="10" stroke-linecap="round" stroke-linejoin="round"/>
<path d="M95.4805 30V44.2597" stroke="#663366" stroke-width="4.22534" stroke-miterlimit="10" stroke-linecap="round" stroke-linejoin="round"/>
<path d="M103.164 30.1797L95.9375 36.8109L103.671 44.2594" stroke="#663366" stroke-width="4.22534" stroke-miterlimit="10" stroke-linecap="round" stroke-linejoin="round"/>
</svg>
