<svg width="150" height="150" viewBox="0 0 150 150" fill="none" xmlns="http://www.w3.org/2000/svg">
<g clip-path="url(#clip0_687_962)">
<path fill-rule="evenodd" clip-rule="evenodd" d="M125.826 6.87734H24.174C19.5545 6.92386 15.141 8.7961 11.897 12.0853C8.65299 15.3745 6.84205 19.8136 6.8595 24.4333V125.636C6.84174 130.256 8.65262 134.695 11.8967 137.984C15.1409 141.274 19.5547 143.146 24.1744 143.192H125.826C130.451 143.16 134.875 141.293 138.124 138.001C141.373 134.709 143.181 130.261 143.152 125.636V24.4009C143.182 19.7753 141.373 15.3273 138.124 12.0348C134.875 8.74242 130.451 6.87519 125.826 6.84375" fill="#663366"/>
<path d="M125.826 144.933H24.1747C19.0778 144.901 14.2017 142.848 10.6162 139.226C7.03067 135.603 5.02852 130.706 5.04903 125.609V24.3968C5.02559 19.298 7.02643 14.3982 10.6123 10.7732C14.1981 7.14827 19.0759 5.09438 24.1747 5.0625H125.826C130.925 5.09448 135.802 7.1484 139.388 10.7733C142.974 14.3983 144.975 19.298 144.952 24.3968V125.598C144.972 130.695 142.97 135.592 139.384 139.215C135.799 142.837 130.923 144.89 125.826 144.922M24.1747 8.67289C20.0334 8.70475 16.0739 10.3782 13.1651 13.3261C10.2562 16.274 8.63567 20.2555 8.65903 24.3968V125.598C8.63588 129.74 10.2565 133.721 13.1653 136.669C16.074 139.617 20.0334 141.291 24.1747 141.323H125.826C129.967 141.291 133.927 139.617 136.835 136.669C139.744 133.721 141.365 129.74 141.342 125.598V24.3968C141.362 20.2564 139.74 16.2768 136.832 13.3295C133.924 10.3823 129.966 8.70768 125.826 8.67249L24.1747 8.67289Z" fill="#663366"/>
<path fill-rule="evenodd" clip-rule="evenodd" d="M75.8465 35.0665C79.9921 35.1313 84.0261 36.4199 87.4417 38.7703C90.8572 41.1207 93.502 44.4281 95.0438 48.277C96.5855 52.1258 96.9554 56.3444 96.107 60.4029C95.2586 64.4613 93.2297 68.1785 90.2753 71.0874C87.3209 73.9963 83.5727 75.9673 79.5016 76.7526C75.4306 77.538 71.2182 77.1027 67.3937 75.5015C63.5692 73.9003 60.3033 71.2045 58.0061 67.7529C55.709 64.3013 54.4831 60.2478 54.4825 56.1016C54.5014 53.3168 55.0693 50.5631 56.1536 47.998C57.2378 45.4329 58.8173 43.1067 60.8015 41.1527C62.786 39.1989 65.1363 37.6557 67.7179 36.6115C70.2995 35.5672 73.0617 35.0419 75.8465 35.0665ZM100.568 24.6755H125.389V125.372H100.557V96.843C78.6997 104.831 58.2683 105.533 39.4719 87.1428C31.703 79.0562 27.3251 68.0286 29.1576 48.8042C29.4757 45.8636 28.0602 32.2243 24.6367 24.6641H46.6373C56.9627 41.0574 43.4221 61.9713 59.2448 75.3364C80.7953 89.2938 99.6029 72.6041 100.513 57.5385L100.568 24.6755Z" fill="#FEBD30"/>
</g>
<defs>
<clipPath id="clip0_687_962">
<rect width="140" height="140" fill="white" transform="translate(5 5)"/>
</clipPath>
</defs>
</svg>
