<svg width="150" height="150" viewBox="0 0 150 150" fill="none" xmlns="http://www.w3.org/2000/svg">
<g clip-path="url(#clip0_687_968)">
<path d="M144.944 74.9968C144.953 113.641 113.633 144.976 74.9887 144.986C36.3444 144.995 5.00896 113.674 5 75.0298V74.9968C4.99077 36.3523 36.3109 5.01733 74.9556 5.00781C113.6 4.99886 144.935 36.3189 144.944 74.9634L144.944 74.9968Z" fill="#663366"/>
<path d="M87.5669 75.0012C87.5669 81.9573 81.928 87.5962 74.9719 87.5962C68.0156 87.5962 62.377 81.9573 62.377 75.0012C62.377 68.0452 68.0156 62.4062 74.9719 62.4062C81.928 62.4062 87.5669 68.0452 87.5669 75.0012Z" fill="white"/>
<path d="M70.6289 84.1719H79.3152V144.976H70.6289V84.1719Z" fill="white"/>
</g>
<defs>
<clipPath id="clip0_687_968">
<rect width="139.944" height="140" fill="white" transform="translate(5 5)"/>
</clipPath>
</defs>
</svg>
