<svg width="150" height="150" viewBox="0 0 150 150" fill="none" xmlns="http://www.w3.org/2000/svg">
<path d="M79.4652 57.9479L102.407 33.4372L118.201 29.2101C122.839 27.976 125.236 24.9234 124.336 21.4416C123.692 18.9852 122.064 16.9402 119.602 15.5034C114.832 12.7251 107.946 12.7251 103.564 13.8996L94.2688 16.3857L68.1066 5.14123C67.7549 4.98622 67.3614 4.95641 66.9917 5.06372L56.3077 7.93147C55.6817 8.09842 55.2107 8.60519 55.0855 9.2312C54.9483 9.85723 55.1749 10.513 55.6817 10.9126L70.3006 22.8189L52.4262 27.6123L44.5683 22.5922C42.6306 21.3581 40.4306 19.951 37.6105 20.7141L32.5309 22.0735C32.03 22.2106 31.6127 22.5623 31.404 23.0334C31.1894 23.5044 31.2192 24.0588 31.4636 24.512L37.8728 36.6747C42.6663 45.7549 52.8139 46.7148 60.7077 44.6102L74.6589 40.872L63.1342 59.5385C62.7705 60.1347 62.8003 60.8979 63.2117 61.4643C63.5337 61.9055 64.0524 62.1499 64.583 62.1499C64.738 62.1499 64.8752 62.132 65.0242 62.0903L78.6535 58.4415C78.9636 58.3461 79.2505 58.1804 79.4652 57.9479ZM60.417 10.3581L67.3032 8.50991L88.9338 17.8047L74.3565 21.7099L60.417 10.3581ZM68.3109 57.6732L79.8356 39.0066C80.1993 38.4104 80.1695 37.6473 79.7581 37.0809C79.4361 36.6397 78.9174 36.3952 78.3868 36.3952C78.2318 36.3952 78.0947 36.4131 77.9456 36.4549L59.8453 41.308C56.6257 42.1606 45.7569 44.2712 40.9223 35.0836L35.5028 24.8109L38.5077 24.0001C39.8075 23.6483 40.9642 24.334 42.7527 25.4668L51.2546 30.8863C51.654 31.1487 52.1548 31.2202 52.6139 31.101L104.461 17.2092C107.913 16.2792 112.974 16.2911 116.701 17.883L109.254 19.8803C108.336 20.1247 107.805 21.0548 108.05 21.973C108.246 22.7361 108.95 23.2369 109.695 23.2369C109.85 23.2369 109.987 23.2191 110.136 23.1773L120.165 20.4884C120.564 21.0548 120.88 21.6511 121.047 22.3069C121.655 24.6261 118.054 25.7232 117.321 25.9259L101.05 30.2901C100.746 30.3677 100.472 30.5346 100.24 30.779L77.304 55.2653L68.3109 57.6732ZM48.3439 69.8418H47.5509V68.4825C47.5509 65.3107 44.9694 62.7291 41.7976 62.7291H21.1453C17.9735 62.7291 15.392 65.3107 15.392 68.4825V69.8418H14.599C9.3046 69.8418 5 74.1464 5 79.4408V120.788C5 124.341 7.88561 127.227 11.4391 127.227H13.8955L8.63105 142.734C8.32698 143.617 8.798 144.595 9.69826 144.905C10.5806 145.209 11.5585 144.738 11.8685 143.837L14.4919 136.116H48.4519L51.0753 143.837C51.3197 144.553 51.9756 145 52.691 145C52.8758 145 53.0547 144.97 53.2395 144.911C54.1219 144.606 54.6108 143.647 54.3068 142.74L49.0482 127.227H51.5046C55.058 127.227 57.9438 124.341 57.9438 120.788V79.4407C57.9438 74.1463 53.6264 69.8418 48.3439 69.8418ZM18.8132 68.4944C18.8132 67.2126 19.8685 66.1574 21.1503 66.1574H41.8025C43.0844 66.1574 44.1396 67.2126 44.1396 68.4944V69.8538H18.8123L18.8132 68.4944ZM15.6533 132.693L17.5136 127.232H45.4462L47.3065 132.693H15.6533ZM25.8782 123.81V120.775C25.8782 120.286 26.2777 119.905 26.7487 119.905H36.1986C36.6875 119.905 37.0691 120.304 37.0691 120.775V123.81H25.8782ZM54.5268 120.787C54.5268 122.45 53.1674 123.81 51.5039 123.81H40.498V120.775C40.498 118.408 38.5723 116.488 36.2112 116.488H26.7614C24.3944 116.488 22.4746 118.414 22.4746 120.775V123.81H11.4388C9.7754 123.81 8.41593 122.451 8.41593 120.787V79.4398C8.41593 76.0354 11.1942 73.2571 14.5986 73.2571H48.3328C51.7372 73.2571 54.5155 76.0354 54.5155 79.4398L54.5095 120.787H54.5268ZM50.8005 95.681V79.4398C50.8005 78.0804 49.6856 76.9655 48.3262 76.9655H14.5921C13.2327 76.9655 12.1178 78.0804 12.1178 79.4398V95.681C12.1178 97.0404 13.2327 98.1553 14.5921 98.1553H48.3262C49.7034 98.1553 50.8005 97.0404 50.8005 95.681ZM47.402 94.7331H15.5468V80.3884H47.402V94.7331ZM15.3026 106.103C12.2321 106.103 9.74595 108.589 9.74595 111.659C9.74595 114.73 12.2321 117.216 15.3026 117.216C18.373 117.216 20.8592 114.73 20.8592 111.659C20.8592 108.595 18.3671 106.103 15.3026 106.103ZM15.3026 113.812C14.128 113.812 13.1502 112.852 13.1502 111.659C13.1502 110.485 14.1101 109.507 15.3026 109.507C16.4771 109.507 17.4549 110.467 17.4549 111.659C17.4371 112.852 16.4772 113.812 15.3026 113.812ZM47.6417 106.103C44.5712 106.103 42.085 108.589 42.085 111.659C42.085 114.73 44.5712 117.216 47.6417 117.216C50.7121 117.216 53.1983 114.73 53.1983 111.659C53.1983 108.595 50.7121 106.103 47.6417 106.103ZM47.6417 113.812C46.4671 113.812 45.4893 112.852 45.4893 111.659C45.4893 110.485 46.4492 109.507 47.6417 109.507C48.8162 109.507 49.794 110.467 49.794 111.659C49.794 112.852 48.8341 113.812 47.6417 113.812ZM139.529 87.0238H136.643V75.6063C136.643 70.3119 132.339 66.0073 127.044 66.0073H88.2735C82.9791 66.0073 78.6745 70.3119 78.6745 75.6063V87.0238H75.7889C72.784 87.0238 70.3396 89.4683 70.3396 92.4731V102.501C70.3396 105.554 72.796 107.951 75.944 107.951C76.9337 107.951 77.8697 107.688 78.6926 107.277V127.715C78.6926 130.905 81.0296 133.546 84.0822 134.047V137.923C84.0822 140.015 85.7755 141.709 87.8682 141.709H91.4096C93.5023 141.709 95.1956 140.015 95.1956 137.923V134.154H120.154V137.923C120.154 140.015 121.847 141.709 123.939 141.709H127.481C129.574 141.709 131.267 140.015 131.267 137.923V134.047C134.32 133.546 136.657 130.905 136.657 127.715V107.266C137.527 107.695 138.487 107.952 139.542 107.952C142.547 107.952 144.991 105.507 144.991 102.503V92.4743C144.991 89.4694 142.535 87.025 139.53 87.025L139.529 87.0238ZM78.6742 101.798C78.6742 103.306 77.4401 104.546 75.9257 104.546C74.6617 104.546 73.7435 103.694 73.7435 102.501V92.4732C73.7435 91.3464 74.6617 90.4283 75.7885 90.4283H78.6741L78.6742 101.798ZM91.7669 137.928C91.7669 138.125 91.6 138.292 91.4032 138.292H87.8618C87.665 138.292 87.4981 138.125 87.4981 137.928V134.16H91.7848V137.928H91.7669ZM127.838 137.928C127.838 138.125 127.671 138.292 127.474 138.292H123.933C123.736 138.292 123.569 138.125 123.569 137.928V134.16H127.856L127.85 137.928H127.838ZM133.221 127.715C133.221 129.379 131.862 130.738 130.199 130.738H85.1135C83.4502 130.738 82.0907 129.379 82.0907 127.715V75.606C82.0907 72.2016 84.869 69.4233 88.2734 69.4233L127.044 69.4293C130.449 69.4293 133.227 72.2076 133.227 75.612L133.221 127.715ZM141.574 102.501C141.574 103.628 140.656 104.546 139.529 104.546C137.884 104.546 136.644 103.371 136.644 101.797V90.4395H139.529C140.656 90.4395 141.574 91.3576 141.574 92.4844V102.501ZM91.0999 110.895C88.0295 110.895 85.5433 113.382 85.5433 116.452C85.5433 119.523 88.0295 122.009 91.0999 122.009C94.1704 122.009 96.6566 119.523 96.6566 116.452C96.6566 113.382 94.1644 110.895 91.0999 110.895ZM91.0999 118.604C89.9254 118.604 88.9656 117.645 88.9656 116.452C88.9656 115.278 89.9255 114.3 91.0999 114.3C92.2744 114.3 93.2523 115.26 93.2523 116.452C93.2523 117.645 92.2865 118.604 91.0999 118.604ZM124.202 110.895C121.132 110.895 118.646 113.382 118.646 116.452C118.646 119.523 121.132 122.009 124.202 122.009C127.273 122.009 129.759 119.523 129.759 116.452C129.759 113.382 127.273 110.895 124.202 110.895ZM124.202 118.604C123.028 118.604 122.05 117.645 122.05 116.452C122.05 115.278 123.01 114.3 124.202 114.3C125.377 114.3 126.337 115.26 126.337 116.452C126.354 117.644 125.395 118.604 124.202 118.604ZM113.214 119.582H102.119C100.366 119.582 98.9291 121.019 98.9291 122.772V125.854C98.9291 127.607 100.366 129.044 102.119 129.044H113.214C114.967 129.044 116.404 127.607 116.404 125.854V122.772C116.404 121.013 114.973 119.582 113.214 119.582ZM112.988 125.628H102.333V122.986H112.988V125.628ZM90.6121 106.073C94.9167 107.522 101.278 108.255 107.645 108.255C114.013 108.255 120.392 107.522 124.679 106.073C127.612 105.083 129.502 102.442 129.502 99.3596V75.6242C129.502 74.2649 128.387 73.15 127.028 73.15H88.2739C86.9146 73.15 85.7997 74.2649 85.7997 75.6242V99.3596C85.7997 102.442 87.6967 105.083 90.6121 106.073ZM89.205 76.5544H126.099V99.3419C126.099 100.976 125.139 102.305 123.595 102.824C115.701 105.495 99.6027 105.495 91.7087 102.824C90.1646 102.305 89.2047 100.963 89.2047 99.3419L89.205 76.5544Z" fill="#663366"/>
</svg>
