<svg width="150" height="150" viewBox="0 0 150 150" fill="none" xmlns="http://www.w3.org/2000/svg">
<g clip-path="url(#clip0_687_970)">
<path d="M28.3723 60.0156H29.9254C30.0553 60.0557 30.1934 60.038 30.3258 60.0613C32.0926 60.2332 33.844 60.7635 35.3397 61.7329C35.9426 62.1223 36.4919 62.5913 36.9895 63.1077C37.3709 63.5391 37.7357 63.9891 38.0322 64.4844C38.224 64.7778 38.3721 65.0959 38.5292 65.4084C38.9842 66.3839 39.2561 67.4401 39.3636 68.5094C39.393 68.6821 39.3796 68.8585 39.4104 69.0313C39.4269 69.2413 39.4126 69.4521 39.4168 69.663C39.4112 69.9063 39.4345 70.1516 39.3936 70.3927C39.3692 71.0157 39.2737 71.6339 39.1575 72.2463C39.0934 72.6114 38.9806 72.9653 38.9081 73.3285C38.1728 76.2718 37.4364 79.2154 36.7005 82.1588C36.5801 82.7042 36.4329 83.2432 36.3015 83.7861C36.2111 84.1344 36.1232 84.4928 35.9207 84.7964C35.7729 85.0344 35.5783 85.2399 35.3647 85.4199C34.8537 85.8279 34.1954 86.0191 33.5475 86.0253C33.2722 86.0006 32.9945 85.9651 32.7321 85.8732C32.4583 85.7654 32.1825 85.6352 31.9831 85.4121C31.6942 85.1573 31.5376 84.7742 31.5138 84.3946C31.4819 84.156 31.5486 83.9183 31.6074 83.689C31.9562 82.2937 32.3046 80.8985 32.654 79.5035C32.806 78.9144 32.9374 78.3203 33.0888 77.7312C33.5965 75.6992 34.1055 73.6673 34.6129 71.6347C34.7361 71.1372 34.8122 70.6287 34.8481 70.1177C34.8394 69.724 34.8705 69.3284 34.8195 68.9372C34.7674 68.4478 34.6571 67.9617 34.4653 67.507C34.2973 67.0654 34.0386 66.6625 33.7275 66.3086C33.6393 66.175 33.4965 66.0969 33.3898 65.9816C33.3405 65.93 33.2871 65.8825 33.2302 65.8393C32.9021 65.5896 32.5518 65.3614 32.1682 65.2065C31.8347 65.0422 31.4788 64.9268 31.1193 64.8341C30.6218 64.6916 30.1085 64.5995 29.5911 64.5754C29.3601 64.5337 29.1249 64.5597 28.8922 64.551C28.7088 64.5424 28.5299 64.5908 28.3471 64.5855C27.49 64.6657 26.6473 64.8591 25.8411 65.1606C25.3085 65.346 24.8042 65.5996 24.3084 65.8654C23.7181 66.2165 23.145 66.6032 22.639 67.0694C22.4643 67.2474 22.2854 67.4216 22.1104 67.5994C21.7693 67.9973 21.4487 68.4234 21.2463 68.9106C21.0279 69.6218 20.8436 70.3434 20.6432 71.0602C20.3996 71.9873 20.1495 72.9124 19.9166 73.8422C19.6355 74.8939 19.3804 75.9529 19.083 77.0006C18.9486 77.44 18.8131 77.8793 18.677 78.3183C18.6149 78.5585 18.5645 78.8061 18.4494 79.0281C18.0876 79.8205 17.3022 80.3875 16.4502 80.5359C15.8697 80.649 15.2395 80.5709 14.7341 80.2525C14.5871 80.1391 14.4275 80.0341 14.3208 79.879C14.0968 79.6175 13.9705 79.2843 13.9249 78.9455C13.9184 78.7859 13.8557 78.6207 13.9246 78.4659C14.6184 76.1914 15.1698 73.877 15.7765 71.5785C16.1139 70.2821 16.4502 68.9854 16.8279 67.6999C16.9113 67.3852 17.0485 67.0878 17.1981 66.7997C17.6057 65.9452 18.168 65.1715 18.7985 64.4682C19.0458 64.2218 19.2919 63.974 19.5397 63.7279C19.9328 63.3933 20.3209 63.0508 20.7479 62.7591C20.9618 62.5829 21.2071 62.453 21.4339 62.2954C22.3402 61.7205 23.3127 61.2538 24.3215 60.8887C24.5707 60.8058 24.8132 60.7016 25.0683 60.6367C25.6045 60.4779 26.1463 60.3354 26.697 60.2385C27.1235 60.1492 27.5575 60.1097 27.9887 60.0509C28.1163 60.0363 28.2482 60.0568 28.3723 60.0156Z" fill="#663366"/>
<path d="M10.3261 64.4372C10.4773 64.4319 10.6257 64.3963 10.7769 64.3985C11.1712 64.4344 11.5721 64.4926 11.9331 64.6651C12.1797 64.7981 12.4264 64.9555 12.5784 65.1985C12.7968 65.4749 12.8117 65.8531 12.7428 66.1849C12.5482 66.9395 12.3715 67.6997 12.1669 68.4521C11.9403 69.3635 11.7119 70.2746 11.4842 71.1857C11.3148 71.879 11.1244 72.5667 10.9578 73.2605C10.7607 74.0512 10.5611 74.8408 10.3653 75.6321C10.1954 76.2559 10.0453 76.8854 9.88738 77.5128C9.70874 78.1874 9.56818 78.8773 9.55838 79.5773C9.52478 79.7593 9.53318 79.9441 9.56034 80.1261C9.57126 80.8583 9.7359 81.5868 10.0405 82.2527C10.1884 82.5215 10.334 82.7945 10.5305 83.0319C10.6826 83.2024 10.8203 83.3872 11.0009 83.5295C11.2009 83.6835 11.3873 83.8571 11.6099 83.9797C11.8429 84.1281 12.0907 84.2496 12.3405 84.3672C12.9024 84.5884 13.4848 84.7609 14.0804 84.8642C14.635 84.944 15.1976 84.9983 15.7581 84.9535C17.1623 84.869 18.5424 84.4658 19.7881 83.8148C20.5273 83.4407 21.2047 82.9515 21.8226 82.4022C22.1726 82.0639 22.5078 81.7067 22.7768 81.2993C22.9406 81.0501 23.1168 80.7989 23.1926 80.5063C23.9307 77.9566 24.5557 75.3767 25.2394 72.8131C25.3797 72.3071 25.5491 71.8098 25.6972 71.3061C25.8384 70.841 26.0576 70.3922 26.3832 70.0276C26.556 69.7958 26.7943 69.6242 27.0342 69.4679C27.5503 69.137 28.1817 69.0115 28.7879 69.0695C29.0785 69.1045 29.3694 69.1756 29.6279 69.3178C29.9493 69.4682 30.2304 69.7171 30.3951 70.0338C30.5569 70.3323 30.5603 70.6921 30.4886 71.0166C30.0283 72.5501 29.6192 74.0985 29.2241 75.65C28.6792 77.7374 28.1551 79.831 27.5542 81.9035C27.5024 82.0911 27.4243 82.2703 27.3414 82.4461C27.1983 82.7911 27.0107 83.1159 26.8178 83.4354C26.4751 83.9948 26.0842 84.526 25.6362 85.0056C25.4534 85.2349 25.2282 85.4253 25.0275 85.6384C24.6265 86.0049 24.2118 86.3591 23.7714 86.6794C23.0795 87.1913 22.3322 87.625 21.5628 88.0086C21.2061 88.1682 20.8544 88.339 20.4879 88.4768C20.1698 88.6148 19.8349 88.7083 19.5095 88.827C19.0061 88.9903 18.4926 89.1154 17.9768 89.2305C17.7808 89.2692 17.582 89.2941 17.3869 89.3361C17.0862 89.3898 16.7812 89.4122 16.48 89.4587C16.3254 89.4864 16.1647 89.4517 16.0138 89.5007H14.4606C14.4033 89.4839 14.3442 89.4743 14.2845 89.4722C14.0622 89.468 13.8446 89.4153 13.6228 89.4033C12.952 89.3123 12.2861 89.177 11.6419 88.9682C10.9161 88.7582 10.2242 88.4437 9.56062 88.0853C9.08182 87.8115 8.63103 87.4923 8.20291 87.1448C8.07103 87.025 7.92571 86.9188 7.80447 86.7864C7.61323 86.5851 7.39987 86.4039 7.22711 86.185C6.07072 84.8718 5.3444 83.2024 5.10416 81.4731C5.056 81.1993 5.04816 80.9199 5 80.6463V79.061C5.02828 78.9554 5.02576 78.8459 5.03696 78.7387C5.11816 77.9611 5.23408 77.1833 5.44688 76.4295C5.77616 75.134 6.08724 73.8334 6.42799 72.5409C6.68727 71.5002 6.94767 70.46 7.20807 69.4195C7.45307 68.5058 7.66951 67.5844 7.90359 66.6679C7.96519 66.4411 8.00047 66.2048 8.10435 65.9923C8.22279 65.7495 8.34907 65.5026 8.54619 65.3136C8.64335 65.2198 8.73434 65.1195 8.83654 65.0311C9.2571 64.6869 9.78938 64.4949 10.3261 64.4372Z" fill="#663366"/>
<path d="M63.0527 70.9375C63.0695 70.9549 63.0695 70.9549 63.0527 70.9375Z" fill="#663366"/>
<path d="M48.5961 66.4316C49.6623 66.4293 50.7283 66.4316 51.7942 66.4304C51.2802 68.879 50.7633 71.3265 50.2503 73.7751C50.1501 74.2642 50.0165 74.7556 50.0381 75.2591C50.0241 75.5335 50.0779 75.8146 50.2128 76.056C50.3349 76.2755 50.5544 76.4267 50.7879 76.5093C51.0032 76.5955 51.237 76.6129 51.4647 76.6454C51.7595 76.6689 52.0555 76.6493 52.3467 76.5989C52.7124 76.553 53.0579 76.3981 53.3552 76.1842C53.7786 75.8426 54.009 75.3296 54.1717 74.8242C54.2683 74.5106 54.3246 74.1875 54.3957 73.8683C54.9179 71.3948 55.4368 68.9202 55.957 66.4472C55.9945 66.4206 56.0443 66.4341 56.0883 66.4299C57.1181 66.4335 58.1477 66.4271 59.1773 66.4327C59.0571 67.0873 58.9034 67.7352 58.7741 68.3873C58.4921 69.7196 58.2127 71.0521 57.9313 72.3841C57.7935 73.0233 57.6717 73.6664 57.523 74.3034C57.3645 74.9774 57.1517 75.6407 56.8569 76.2679C56.5954 76.7783 56.2518 77.2423 55.8399 77.6413C54.9235 78.4919 53.7425 79.0438 52.5091 79.2381C52.2924 79.274 52.0748 79.3109 51.8544 79.3112C51.545 79.3622 51.2303 79.3294 50.9181 79.3398C50.7451 79.351 50.5765 79.2978 50.4035 79.3076C49.7615 79.2376 49.1189 79.0864 48.5457 78.7812C48.0764 78.5377 47.6678 78.1919 47.3501 77.7693C46.9648 77.23 46.7781 76.5549 46.8077 75.8944C46.7999 75.5783 46.8105 75.2633 46.8562 74.95C46.9486 74.2038 47.1306 73.4735 47.2784 72.7374C47.6752 70.8642 48.0633 68.9896 48.4614 67.117C48.4995 66.8871 48.5701 66.6634 48.5961 66.4316ZM71.9127 66.4307C72.9283 66.4307 73.9436 66.4304 74.9591 66.431C74.7875 67.2567 74.6119 68.081 74.4383 68.9062H71.393C71.5704 68.082 71.7436 67.2566 71.9127 66.4307ZM102.742 66.4489C102.777 66.4192 102.828 66.4355 102.873 66.4299C104.92 66.4321 106.966 66.4299 109.013 66.4307C109.146 66.4327 109.281 66.4201 109.414 66.4498C110.048 66.4766 110.688 66.5794 111.278 66.8252C111.778 67.042 112.228 67.4334 112.412 67.9587C112.546 68.3514 112.584 68.7703 112.525 69.1809C112.499 69.5068 112.42 69.8249 112.329 70.1379C112.21 70.4613 112.06 70.7771 111.857 71.0566C111.718 71.2755 111.508 71.4346 111.334 71.6227C110.949 71.9405 110.51 72.1848 110.037 72.3437C110.382 72.4409 110.721 72.5879 110.999 72.8195C111.128 72.9427 111.27 73.0563 111.367 73.2084C111.612 73.5575 111.754 73.984 111.732 74.4126C111.745 74.7061 111.703 74.9981 111.639 75.2834C111.485 75.8908 111.221 76.4715 110.852 76.9774C110.655 77.2597 110.397 77.4904 110.155 77.7315C109.698 78.124 109.169 78.4379 108.593 78.6196C108.144 78.7798 107.672 78.8641 107.199 78.9133C107.006 78.9198 106.816 78.9615 106.623 78.9467C106.223 79.0066 105.816 78.9573 105.414 78.9828C105.124 79.0295 104.829 78.9985 104.537 79.0074C103.058 79.0088 101.578 79.0046 100.099 79.0094C100.979 74.8226 101.857 70.6343 102.742 66.4489ZM105.3 69.0022C105.286 69.1316 105.257 69.2593 105.227 69.3864C105.09 70.0332 104.958 70.6814 104.817 71.3273C105.661 71.3335 106.505 71.3285 107.35 71.3301C107.727 71.3413 108.112 71.2904 108.459 71.1369C108.706 71.0314 108.921 70.8471 109.053 70.6119C109.168 70.3955 109.267 70.1564 109.253 69.9063C109.253 69.756 109.267 69.5961 109.185 69.4623C109.111 69.2901 108.947 69.1823 108.78 69.1106C108.545 69.023 108.295 68.9842 108.045 68.9966C107.13 68.9997 106.215 68.9893 105.3 69.0022ZM104.302 73.751C104.283 73.9403 104.227 74.1234 104.191 74.3096C104.113 74.6932 104.032 75.0762 103.95 75.4593C103.888 75.7953 103.798 76.1257 103.748 76.4645C104.646 76.4796 105.544 76.4659 106.442 76.4718C106.899 76.4432 107.369 76.3878 107.783 76.1766C108.166 75.9591 108.4 75.545 108.481 75.121C108.588 74.7478 108.541 74.2827 108.219 74.0271C107.851 73.7782 107.39 73.7233 106.956 73.7448C106.071 73.7485 105.187 73.7376 104.302 73.751ZM136.354 66.4313C137.353 66.4313 138.351 66.4285 139.35 66.4327C139.337 66.5097 139.323 66.5867 139.309 66.6631C139.162 67.3362 139.027 68.0116 138.881 68.6847C138.598 70.0718 138.292 71.4542 138.013 72.8421C138.19 72.7413 138.308 72.5691 138.469 72.4465C138.622 72.3289 138.738 72.1699 138.895 72.0567C139.034 71.9335 139.157 71.7933 139.307 71.6818C139.401 71.5956 139.484 71.4962 139.587 71.4189C139.729 71.3103 139.837 71.1635 139.98 71.0555C140.111 70.9555 140.213 70.8231 140.343 70.7231C140.451 70.6402 140.54 70.5372 140.638 70.4439C140.815 70.3095 140.958 70.1368 141.133 70.0007C141.235 69.9212 141.311 69.8131 141.415 69.735C141.742 69.7168 142.071 69.7339 142.4 69.728C143.267 69.7241 144.134 69.7364 145.001 69.7213V69.7445C143.817 70.8015 142.633 71.8591 141.449 72.9169C141.312 73.0183 141.21 73.1585 141.065 73.2478C141.203 73.6516 141.377 74.0419 141.523 74.4429C142.026 75.716 142.518 76.9931 143.022 78.2657C143.11 78.5261 143.232 78.7725 143.314 79.0346C142.185 79.0402 141.055 79.036 139.926 79.0365C139.48 77.8074 139.031 76.5787 138.582 75.3506C138.47 75.4254 138.374 75.5206 138.271 75.6057C137.994 75.8432 137.717 76.0806 137.44 76.3175C137.361 76.3878 137.254 76.4491 137.228 76.558C137.053 77.3736 136.887 78.1915 136.71 79.0063C135.711 79.0074 134.713 79.0085 133.715 79.0063C133.729 78.8663 133.761 78.7302 133.789 78.5933C134.505 75.2045 135.214 71.814 135.928 68.4246C136.072 67.761 136.2 67.0932 136.354 66.4313ZM80.2346 69.4049C80.4409 69.3819 80.6498 69.4001 80.8576 69.3945C81.0701 69.4009 81.2851 69.3771 81.496 69.4147C82.0229 69.4757 82.56 69.5687 83.036 69.8139C83.3216 69.9293 83.5727 70.1163 83.8046 70.3163C83.911 70.3893 83.9952 70.4893 84.0731 70.5921C84.2626 70.7858 84.4007 71.0238 84.5174 71.2671C84.7619 71.721 84.8406 72.2413 84.8778 72.7483C84.8697 72.9709 84.8946 73.196 84.8554 73.4167C84.8414 73.73 84.7776 74.0377 84.7213 74.3454C84.6342 74.7106 84.5474 75.0771 84.4133 75.4282C84.3181 75.655 84.2408 75.8896 84.124 76.1064C83.9023 76.5415 83.638 76.9564 83.3146 77.323C83.1732 77.4546 83.0738 77.6254 82.9178 77.743C82.8234 77.8088 82.747 77.895 82.663 77.9717C82.5392 78.0708 82.4065 78.1582 82.2864 78.2609C81.3773 78.9002 80.2752 79.2507 79.1672 79.2891C78.7948 79.3401 78.4196 79.2955 78.0475 79.2771C77.7398 79.2393 77.4323 79.1891 77.1336 79.1035C76.8135 78.999 76.4857 78.8932 76.2068 78.7005C75.6222 78.3531 75.1806 77.7866 74.9412 77.1538C74.7239 76.5712 74.697 75.9414 74.7284 75.3268C74.757 75.1566 74.7455 74.9822 74.788 74.8136C74.9765 73.5592 75.439 72.3138 76.2841 71.3511C76.4218 71.2254 76.5137 71.0571 76.6674 70.9479C76.7676 70.8788 76.8438 70.7822 76.9353 70.7018C77.3769 70.3585 77.8462 70.0374 78.3737 69.8414C78.9625 69.5883 79.5995 69.4684 80.2346 69.4049ZM80.0526 71.7625C79.8158 71.801 79.5873 71.8793 79.3767 71.994C79.1644 72.1063 79.0057 72.2869 78.8391 72.4546C78.3967 72.9656 78.1721 73.6194 78.0217 74.2682C77.9489 74.6344 77.8745 75.0051 77.8915 75.38C77.8759 75.6556 77.9254 75.9311 78.0229 76.1887C78.1298 76.4757 78.3451 76.7375 78.6394 76.8433C79.0085 77.0015 79.4304 76.98 79.8115 76.8736C80.0767 76.782 80.3393 76.6552 80.5333 76.4471C80.6571 76.3186 80.7937 76.2007 80.8931 76.0504C81.3571 75.4055 81.5623 74.6142 81.6707 73.8375C81.7286 73.4536 81.7239 73.0583 81.6208 72.682C81.536 72.386 81.3778 72.0867 81.0989 71.9333C80.7853 71.7485 80.4065 71.7202 80.0523 71.7625H80.0526ZM65.2292 69.5807C65.7136 69.4838 66.2133 69.4547 66.7045 69.5135C67.1732 69.5569 67.6531 69.6762 68.0289 69.9735C68.4472 70.2745 68.6275 70.8007 68.6673 71.2968C68.6611 71.6012 68.702 71.9086 68.6496 72.2113C68.5911 72.7545 68.4536 73.2848 68.3489 73.8202C68.0863 75.0426 67.8373 76.2682 67.5755 77.491C67.4756 77.9838 67.3655 78.4743 67.2689 78.9668C67.2586 79.0195 67.195 79.0032 67.1589 79.0083C66.1711 79.0063 65.183 79.008 64.1954 79.0074C64.4558 77.7934 64.7033 76.5765 64.9632 75.3621C65.078 74.7923 65.2104 74.2262 65.3095 73.653C65.3692 73.2652 65.4322 72.8727 65.4 72.4793C65.3708 72.3015 65.3199 72.099 65.1569 71.9977C65.0433 71.9131 64.9098 71.8591 64.7694 71.8409C64.4121 71.7667 64.0372 71.8227 63.7006 71.954C63.5013 72.0548 63.307 72.1813 63.1653 72.3555C62.7615 72.8287 62.6014 73.4464 62.4591 74.0374C62.1763 75.4055 61.8848 76.7714 61.5995 78.1386C61.5326 78.427 61.485 78.7199 61.4091 79.006C60.4011 79.0083 59.3934 79.0085 58.386 79.0057C58.3935 78.8839 58.4187 78.7644 58.4481 78.6465C59.0426 75.823 59.6337 72.9989 60.2309 70.1765C60.2617 70.0262 60.2841 69.8741 60.3269 69.7266C61.3232 69.7283 62.32 69.7291 63.3165 69.7271C63.2356 70.1214 63.1412 70.5139 63.0729 70.9101C63.2689 70.7514 63.4201 70.5445 63.6228 70.3933C64.0784 69.9923 64.6389 69.7159 65.2292 69.5807ZM63.0524 70.9415C63.0692 70.9589 63.0692 70.9589 63.0524 70.9415ZM91.1495 69.7957C91.7803 69.532 92.4753 69.4471 93.1537 69.4961C93.453 69.5247 93.7543 69.567 94.0394 69.6672C94.3672 69.777 94.6806 69.9584 94.8914 70.2384C95.1809 70.6159 95.2627 71.1056 95.2806 71.5698C95.2946 71.763 95.2436 71.9517 95.249 72.1447C95.184 72.7635 95.0269 73.3671 94.9076 73.9764C94.589 75.4834 94.2723 76.9906 93.9554 78.4975C93.9276 78.6689 93.8719 78.8347 93.8546 79.0071C92.8384 79.0066 91.8226 79.0088 90.8068 79.0063C90.8057 78.8221 90.874 78.6479 90.9009 78.4673C91.1809 77.1348 91.4614 75.8023 91.7423 74.4703C91.8204 74.0876 91.8962 73.7045 91.9466 73.317C91.9615 73.158 91.999 73.0006 91.9895 72.8396C91.9816 72.682 92.0035 72.5221 91.9758 72.3664C91.9259 72.2292 91.8767 72.0727 91.7459 71.9912C91.6093 71.8896 91.4385 71.8532 91.2741 71.8283C91.0711 71.7885 90.8633 71.8089 90.6634 71.8507C90.4657 71.8725 90.2854 71.9624 90.1124 72.0539C89.9771 72.1251 89.878 72.2429 89.7708 72.3479C89.5837 72.5291 89.4801 72.7727 89.3656 73.0015C89.0968 73.6278 89.0086 74.3093 88.8546 74.9687C88.6155 76.1285 88.3643 77.2863 88.1269 78.4469C88.0846 78.6322 88.0415 78.8179 88.0185 79.0069C87.001 79.0066 85.9838 79.0094 84.9666 79.0055C85.6106 75.9109 86.2671 72.8186 86.9139 69.7249C87.9099 69.7322 88.9061 69.7249 89.9018 69.7294C89.8299 70.1348 89.7243 70.5338 89.6585 70.9401C90.0656 70.4585 90.5741 70.0578 91.1495 69.7957ZM116.909 69.6983C117.402 69.5673 117.912 69.5261 118.417 69.4855C118.669 69.4883 118.922 69.483 119.174 69.4877C119.295 69.5034 119.415 69.5211 119.538 69.5163C119.908 69.5443 120.273 69.6199 120.63 69.7207C120.958 69.8271 121.27 69.9861 121.54 70.2017C121.754 70.3977 121.949 70.6265 122.048 70.9043C122.208 71.2834 122.21 71.7031 122.189 72.1071C122.119 72.7651 121.991 73.4164 121.847 74.0624C121.685 74.8455 121.519 75.6281 121.354 76.4107C121.271 76.833 121.163 77.2507 121.112 77.6786C121.102 77.8398 121.106 78.002 121.107 78.1638C121.12 78.3388 121.172 78.5451 121.348 78.6235C121.317 78.7439 121.306 78.8699 121.271 78.9895C121.234 79.0183 121.182 79.0024 121.141 79.0083C120.143 79.006 119.145 79.0083 118.148 79.0069C118.155 78.8344 118.132 78.6591 118.168 78.4883C118.189 78.35 118.175 78.2094 118.174 78.07C117.679 78.4846 117.118 78.8125 116.514 79.0396C116.046 79.1956 115.556 79.302 115.061 79.2785C114.555 79.2981 114.027 79.2295 113.579 78.9797C113.458 78.9262 113.352 78.8475 113.254 78.7602C113.101 78.609 112.939 78.4595 112.842 78.2637C112.693 78.0174 112.622 77.7329 112.599 77.4484C112.554 77.2538 112.615 77.0589 112.618 76.8638C112.702 76.2195 112.933 75.5884 113.328 75.069C113.433 74.9144 113.581 74.7974 113.708 74.6618C113.862 74.4894 114.061 74.3656 114.254 74.2402C114.759 73.9285 115.328 73.7412 115.908 73.6258C116.365 73.5296 116.825 73.445 117.287 73.3722C117.873 73.2674 118.487 73.1949 119.011 72.8886C119.138 72.8248 119.216 72.6932 119.258 72.5621C119.278 72.4322 119.318 72.3059 119.328 72.1749C119.313 72.0272 119.246 71.8898 119.138 71.7871C119.059 71.702 118.94 71.6765 118.836 71.6359C118.532 71.5631 118.213 71.5396 117.905 71.6009C117.53 71.646 117.163 71.8031 116.899 72.0763C116.762 72.2317 116.661 72.4118 116.57 72.596C115.632 72.5949 114.694 72.598 113.756 72.5943C113.973 72.0189 114.259 71.4603 114.676 71.0025C114.884 70.7973 115.08 70.5761 115.327 70.4145C115.798 70.071 116.345 69.838 116.909 69.6983M117.686 75.0099C117.16 75.1353 116.596 75.1824 116.132 75.4839C115.83 75.6595 115.653 76.005 115.631 76.348C115.604 76.5608 115.627 76.7991 115.768 76.9713C115.899 77.1522 116.117 77.2513 116.333 77.2815C116.749 77.3193 117.175 77.2336 117.551 77.0528C117.802 76.9018 118.062 76.7392 118.229 76.4911C118.42 76.259 118.538 75.9753 118.6 75.6827C118.672 75.3406 118.748 74.9995 118.814 74.6562C118.457 74.8251 118.07 74.9253 117.686 75.0099ZM129.601 69.5981C130.357 69.4284 131.159 69.4393 131.9 69.6717C132.155 69.7666 132.41 69.8904 132.595 70.0951C132.862 70.3398 133.011 70.6898 133.068 71.0429C133.177 71.6804 133.083 72.3297 132.962 72.9586C132.536 74.974 132.115 76.9912 131.69 79.0066C130.672 79.0066 129.654 79.0091 128.637 79.0055C128.767 78.292 128.933 77.5856 129.076 76.8744C129.232 76.1509 129.379 75.426 129.535 74.703C129.658 74.0806 129.805 73.4576 129.833 72.8225C129.862 72.7069 129.848 72.5887 129.825 72.4737C129.815 72.3236 129.77 72.169 129.662 72.0595C129.553 71.9391 129.394 71.8787 129.238 71.8476C128.89 71.7633 128.522 71.8168 128.19 71.9366C127.884 72.0596 127.624 72.276 127.448 72.5551C127.134 73.0255 126.99 73.5824 126.873 74.1287C126.535 75.7555 126.184 77.3795 125.851 79.0074C124.836 79.0069 123.82 79.0083 122.805 79.0066C123.396 76.1926 123.986 73.378 124.58 70.5646C124.63 70.2846 124.71 70.0105 124.746 69.728C125.743 69.728 126.739 69.728 127.735 69.7274C127.725 69.9262 127.658 70.1166 127.624 70.3118C127.587 70.5226 127.532 70.7293 127.493 70.9395C127.615 70.8485 127.681 70.7035 127.803 70.6119C127.883 70.5523 127.959 70.4861 128.029 70.414C128.477 70.0209 129.017 69.7277 129.601 69.5981ZM71.2155 69.7285C72.233 69.7277 73.2508 69.7274 74.2684 69.728C73.6602 72.5915 73.0644 75.457 72.4579 78.3209C72.4215 78.5513 72.3462 78.7745 72.3226 79.0069C71.306 79.0066 70.2887 79.0094 69.2721 79.0057C69.8136 76.406 70.3655 73.8087 70.9103 71.2095C71.0108 70.7158 71.1259 70.225 71.2155 69.7285ZM120.412 81.967C120.513 81.9435 120.617 81.9429 120.719 81.9679C120.87 81.9721 121.021 81.9917 121.172 82.0118C121.139 82.3083 121.058 82.5976 121.003 82.8907C120.818 82.8832 120.633 82.865 120.449 82.8851C120.347 82.9081 120.238 82.9487 120.183 83.0431C120.046 83.2693 120.04 83.5409 119.968 83.7892C120.248 83.792 120.529 83.7876 120.809 83.7912C120.759 84.0516 120.704 84.3114 120.649 84.5713C120.37 84.5741 120.091 84.5671 119.812 84.576C119.644 85.2956 119.508 86.0228 119.35 86.7446C119.22 87.3713 119.087 87.9971 118.954 88.6232C118.607 88.6265 118.26 88.6204 117.912 88.6265C118.164 87.4472 118.407 86.2656 118.658 85.0856C118.681 84.9148 118.744 84.751 118.753 84.5783C118.51 84.5651 118.268 84.5738 118.027 84.5718C118.074 84.3098 118.15 84.0538 118.183 83.7892C118.43 83.7876 118.678 83.796 118.925 83.7828C119.022 83.425 119.06 83.0492 119.214 82.7079C119.317 82.5186 119.453 82.3439 119.627 82.2143C119.855 82.0527 120.134 81.9768 120.412 81.967ZM124.413 82.0365C124.784 82.0359 125.156 82.0337 125.527 82.037C125.502 82.3209 125.414 82.5937 125.366 82.8737C124.963 84.79 124.556 86.7063 124.157 88.6237C123.786 88.6232 123.415 88.6265 123.044 88.6217C123.05 88.4837 123.084 88.349 123.117 88.2158C123.545 86.155 123.989 84.0978 124.413 82.0365ZM135.422 82.0359C135.763 82.0365 136.104 82.0331 136.445 82.0376C136.006 84.1544 135.555 86.2684 135.112 88.3843C135.082 88.4599 135.099 88.5607 135.042 88.6195C134.713 88.6299 134.383 88.6209 134.054 88.624C134.105 88.435 134.139 88.2424 134.176 88.0508C133.95 88.2328 133.731 88.4277 133.469 88.5562C133.178 88.7161 132.842 88.7867 132.511 88.7752C132.075 88.7875 131.63 88.6142 131.34 88.2846C131.216 88.1278 131.122 87.9498 131.041 87.768C130.96 87.5488 130.938 87.3144 130.912 87.0843C130.895 86.9121 130.942 86.7435 130.945 86.5719C131.022 86.0024 131.201 85.4429 131.496 84.9493C131.604 84.7705 131.733 84.6051 131.88 84.4565C131.944 84.3501 132.053 84.2885 132.141 84.2031C132.662 83.7187 133.428 83.5244 134.119 83.6929C134.343 83.7654 134.567 83.8718 134.727 84.0513C134.809 84.1398 134.875 84.2417 134.95 84.3369C135.092 83.6058 135.255 82.8779 135.406 82.1476C135.411 82.1104 135.415 82.0731 135.422 82.0359ZM133.369 84.585C133.032 84.6636 132.734 84.8582 132.527 85.1346C132.366 85.3529 132.242 85.5967 132.161 85.8559C132.056 86.2037 131.974 86.5671 131.998 86.9331C132.03 87.1926 132.108 87.4687 132.307 87.6516C132.465 87.7574 132.648 87.8448 132.842 87.8425C133.004 87.8389 133.17 87.8593 133.328 87.8117C133.608 87.7361 133.869 87.5818 134.058 87.3606C134.453 86.8653 134.613 86.2233 134.656 85.6028C134.644 85.3637 134.624 85.105 134.478 84.9056C134.318 84.6746 134.025 84.562 133.751 84.5713C133.623 84.5755 133.494 84.5609 133.369 84.585ZM137.628 82.0365C137.98 82.0365 138.332 82.0331 138.684 82.0376C138.623 82.3904 138.55 82.7412 138.466 83.0893C138.116 83.0909 137.767 83.0856 137.418 83.0921C137.482 82.7387 137.578 82.3921 137.628 82.0365ZM114.922 83.5277C115.318 83.5059 115.724 83.5003 116.109 83.6145C116.697 83.7783 117.195 84.228 117.402 84.804C117.608 85.4068 117.557 86.0637 117.401 86.6716C117.301 87.0608 117.108 87.4203 116.866 87.7392C116.724 87.9089 116.583 88.083 116.403 88.213C115.866 88.6649 115.15 88.8592 114.457 88.8357C114.123 88.8239 113.784 88.7746 113.476 88.6399C113.341 88.5942 113.217 88.5239 113.108 88.4328C112.612 88.0968 112.34 87.492 112.336 86.902C112.308 86.7826 112.309 86.6583 112.339 86.5394C112.335 85.9032 112.525 85.2808 112.883 84.755C113.234 84.2334 113.75 83.8441 114.348 83.649C114.537 83.5994 114.726 83.5459 114.922 83.5277ZM115.013 84.2837C114.798 84.3182 114.577 84.3602 114.39 84.4761C114.217 84.5797 114.047 84.6984 113.932 84.8653C113.665 85.1912 113.5 85.5894 113.398 85.9945C113.34 86.2423 113.29 86.4954 113.304 86.7511C113.287 87.1159 113.386 87.5054 113.649 87.7703C113.759 87.8571 113.877 87.9377 114.011 87.9836C114.662 88.2272 115.442 88.0175 115.899 87.4978C116.061 87.2898 116.223 87.075 116.315 86.8244C116.458 86.496 116.506 86.1376 116.544 85.7842C116.56 85.4516 116.541 85.101 116.372 84.8054C116.191 84.5102 115.856 84.3322 115.516 84.3C115.35 84.27 115.179 84.2532 115.013 84.2837ZM141.081 83.6492C141.518 83.6221 141.969 83.6254 142.388 83.7696C142.612 83.852 142.842 83.9768 142.963 84.1924C143.043 84.3246 143.101 84.4761 143.095 84.6334C143.119 85.0352 142.979 85.4202 142.912 85.8117C142.796 86.3521 142.686 86.8933 142.569 87.4337C142.542 87.5659 142.521 87.7025 142.557 87.8355C142.689 87.8887 142.834 87.8599 142.973 87.8728C142.915 88.1284 142.864 88.3852 142.807 88.6408C142.488 88.7203 142.147 88.7508 141.828 88.6542C141.705 88.6083 141.582 88.5366 141.523 88.4148C141.438 88.2984 141.464 88.1505 141.458 88.017C140.982 88.5028 140.305 88.8183 139.617 88.7749C139.281 88.7587 138.916 88.6708 138.686 88.4087C138.563 88.2855 138.487 88.1183 138.449 87.9503C138.423 87.6474 138.431 87.3324 138.553 87.0493C138.654 86.7311 138.853 86.4529 139.121 86.2546C139.377 86.0687 139.677 85.957 139.98 85.8744C140.277 85.805 140.577 85.7428 140.882 85.7148C141.215 85.6557 141.574 85.6272 141.857 85.4222C142.027 85.3161 142.073 85.0896 142.043 84.9042C142.024 84.7424 141.893 84.6105 141.739 84.5693C141.495 84.4797 141.232 84.5167 140.978 84.5133C140.741 84.5478 140.499 84.6264 140.323 84.7958C140.198 84.936 140.118 85.1107 140.093 85.297C139.762 85.297 139.431 85.2993 139.1 85.2959C139.116 85.1481 139.159 85.0044 139.216 84.8672C139.296 84.6942 139.376 84.5158 139.518 84.3831C139.908 83.9337 140.496 83.6943 141.081 83.6492ZM141.178 86.4061C140.795 86.4966 140.392 86.4985 140.022 86.6419C139.835 86.7203 139.659 86.8572 139.587 87.0535C139.503 87.2537 139.441 87.5088 139.574 87.7028C139.627 87.8044 139.742 87.8456 139.842 87.8882C140.156 87.9738 140.491 87.91 140.794 87.8058C141.158 87.6574 141.477 87.373 141.622 87.0028C141.698 86.7519 141.75 86.494 141.797 86.2364C141.59 86.2955 141.391 86.3748 141.178 86.4061H141.178ZM128.005 83.908C128.334 83.7246 128.72 83.6537 129.095 83.6688C129.397 83.698 129.717 83.7276 129.976 83.9035C130.086 84.0048 130.212 84.1048 130.261 84.2526C130.317 84.377 130.335 84.5125 130.351 84.6466C130.385 84.8238 130.326 84.9988 130.327 85.1766C130.278 85.5331 130.188 85.8822 130.119 86.235C129.955 87.0176 129.786 87.8002 129.627 88.584C129.618 88.6358 129.552 88.6184 129.518 88.624C129.204 88.6184 128.889 88.6329 128.576 88.6217C128.634 88.2499 128.73 87.8851 128.799 87.5149C128.871 87.1907 128.932 86.8648 129.006 86.5416C129.086 86.1118 129.198 85.6882 129.263 85.2559C129.299 84.9955 129.169 84.6931 128.9 84.6166C128.592 84.5284 128.253 84.5615 127.956 84.6763C127.672 84.7949 127.435 85.0055 127.284 85.2744C127.12 85.5594 127.066 85.887 127.004 86.2051C126.828 87.0098 126.67 87.819 126.489 88.6229C126.14 88.6271 125.791 88.6198 125.442 88.6271C125.729 87.2895 126.002 85.9489 126.289 84.611C126.343 84.3364 126.4 84.0617 126.466 83.7898C126.798 83.7915 127.13 83.7878 127.463 83.7909C127.451 83.9964 127.382 84.1924 127.347 84.394C127.543 84.2045 127.758 84.0281 128.005 83.908ZM137.266 83.7904C137.617 83.7904 137.969 83.7887 138.321 83.7904C137.993 85.4032 137.639 87.0098 137.312 88.6223C136.96 88.6251 136.609 88.6248 136.257 88.6223C136.582 87.0095 136.938 85.4029 137.266 83.7904Z" fill="#663366"/>
</g>
<defs>
<clipPath id="clip0_687_970">
<rect width="140" height="29.512" fill="white" transform="translate(5 60)"/>
</clipPath>
</defs>
</svg>
