<svg width="150" height="150" viewBox="0 0 150 150" fill="none" xmlns="http://www.w3.org/2000/svg">
<path d="M43.2891 79.5273H106.709V34.2283H43.2891V79.5273Z" stroke="#663366" stroke-width="4.10156" stroke-miterlimit="10" stroke-linecap="round" stroke-linejoin="round"/>
<mask id="mask0_685_418" style="mask-type:luminance" maskUnits="userSpaceOnUse" x="5" y="5" width="140" height="140">
<path d="M5 5H145V145H5V5Z" fill="white"/>
</mask>
<g mask="url(#mask0_685_418)">
<path d="M129.359 133.887H20.6406V7.04808H129.359V133.887Z" stroke="#663366" stroke-width="4.10156" stroke-miterlimit="10" stroke-linecap="round" stroke-linejoin="round"/>
<path d="M36.4937 38.759C36.4937 41.2607 34.4656 43.2891 31.9636 43.2891C29.4617 43.2891 27.4336 41.2607 27.4336 38.759C27.4336 36.2571 29.4617 34.229 31.9636 34.229C34.4656 34.229 36.4937 36.2571 36.4937 38.759Z" stroke="#663366" stroke-width="4.10156" stroke-miterlimit="10" stroke-linecap="round" stroke-linejoin="round"/>
<path d="M36.4937 56.8801C36.4937 59.3818 34.4656 61.4102 31.9636 61.4102C29.4617 61.4102 27.4336 59.3818 27.4336 56.8801C27.4336 54.3782 29.4617 52.3501 31.9636 52.3501C34.4656 52.3501 36.4937 54.3782 36.4937 56.8801Z" stroke="#663366" stroke-width="4.10156" stroke-miterlimit="10" stroke-linecap="round" stroke-linejoin="round"/>
<path d="M36.4937 74.9973C36.4937 77.4993 34.4656 79.5273 31.9636 79.5273C29.4617 79.5273 27.4336 77.4993 27.4336 74.9973C27.4336 72.4954 29.4617 70.4673 31.9636 70.4673C34.4656 70.4673 36.4937 72.4954 36.4937 74.9973Z" stroke="#663366" stroke-width="4.10156" stroke-miterlimit="10" stroke-linecap="round" stroke-linejoin="round"/>
<path d="M122.564 38.759C122.564 41.2607 120.536 43.2891 118.034 43.2891C115.532 43.2891 113.504 41.2607 113.504 38.759C113.504 36.2571 115.532 34.229 118.034 34.229C120.536 34.229 122.564 36.2571 122.564 38.759Z" stroke="#663366" stroke-width="4.10156" stroke-miterlimit="10" stroke-linecap="round" stroke-linejoin="round"/>
<path d="M122.564 56.8801C122.564 59.3818 120.536 61.4102 118.034 61.4102C115.532 61.4102 113.504 59.3818 113.504 56.8801C113.504 54.3782 115.532 52.3501 118.034 52.3501C120.536 52.3501 122.564 54.3782 122.564 56.8801Z" stroke="#663366" stroke-width="4.10156" stroke-miterlimit="10" stroke-linecap="round" stroke-linejoin="round"/>
<path d="M122.564 74.9973C122.564 77.4993 120.536 79.5273 118.034 79.5273C115.532 79.5273 113.504 77.4993 113.504 74.9973C113.504 72.4954 115.532 70.4673 118.034 70.4673C120.536 70.4673 122.564 72.4954 122.564 74.9973Z" stroke="#663366" stroke-width="4.10156" stroke-miterlimit="10" stroke-linecap="round" stroke-linejoin="round"/>
<path d="M93.1184 25.168H56.8789V16.1079H93.1184V25.168Z" stroke="#663366" stroke-width="4.10156" stroke-miterlimit="10" stroke-linecap="round" stroke-linejoin="round"/>
<path d="M61.4091 106.707H38.7598V88.5871H111.239V106.707H88.5888" stroke="#663366" stroke-width="4.10156" stroke-miterlimit="10" stroke-linecap="round" stroke-linejoin="round"/>
<path d="M61.4102 97.6482V124.828H88.5896V97.6482" stroke="#663366" stroke-width="4.10156" stroke-miterlimit="10" stroke-linecap="round" stroke-linejoin="round"/>
<path d="M52.3496 97.6484H97.6495" stroke="#663366" stroke-width="4.10156" stroke-miterlimit="10" stroke-linecap="round" stroke-linejoin="round"/>
<path d="M20.6406 88.5898H129.36" stroke="#663366" stroke-width="4.10156" stroke-miterlimit="10" stroke-linecap="round" stroke-linejoin="round"/>
<path d="M83.918 61.4102V47.8206L90.7129 56.8807L97.5078 47.8203V61.4102" stroke="#663366" stroke-width="4.10156" stroke-miterlimit="10" stroke-linecap="round" stroke-linejoin="round"/>
<path d="M68.9121 47.8203H77.9719" stroke="#663366" stroke-width="4.10156" stroke-miterlimit="10" stroke-linecap="round" stroke-linejoin="round"/>
<path d="M73.4414 61.4102V47.8203" stroke="#663366" stroke-width="4.10156" stroke-miterlimit="10" stroke-linecap="round" stroke-linejoin="round"/>
<path d="M66.0801 61.4102L59.2852 47.8203L52.4902 61.4102" stroke="#663366" stroke-width="4.10156" stroke-miterlimit="10" stroke-linecap="round" stroke-linejoin="round"/>
<path d="M54.7559 56.8789H63.8157" stroke="#663366" stroke-width="4.10156" stroke-miterlimit="10" stroke-linecap="round" stroke-linejoin="round"/>
<path d="M133.889 142.945V133.886H16.1113V142.945" stroke="#663366" stroke-width="4.10156" stroke-miterlimit="10" stroke-linecap="round" stroke-linejoin="round"/>
<path d="M36.0664 142.949H138.418" stroke="#663366" stroke-width="4.10156" stroke-miterlimit="10" stroke-linecap="round" stroke-linejoin="round"/>
<path d="M11.5801 142.949H27.8625" stroke="#663366" stroke-width="4.10156" stroke-miterlimit="10" stroke-linecap="round" stroke-linejoin="round"/>
</g>
</svg>
