<svg width="150" height="150" viewBox="0 0 150 150" fill="none" xmlns="http://www.w3.org/2000/svg">
<g clip-path="url(#clip0_713_836)">
<path d="M5.01562 93.6724H145.016V62.3047H5.01562V93.6724Z" fill="white"/>
<path d="M5.97656 92.7143H144.052V63.3672H5.97656V92.7143Z" fill="#663366"/>
<path fill-rule="evenodd" clip-rule="evenodd" d="M18.3892 85.3037H21.8532V78.1834L27.4339 70.582H23.7776L20.4099 75.2006L17.3308 70.582H13.1934L18.3892 78.2796V85.3037Z" fill="white"/>
<path fill-rule="evenodd" clip-rule="evenodd" d="M28.9746 85.3051H38.0193V82.2261H32.3423V79.3395H37.1533V76.3567H32.3423V73.6625H37.9231V70.6797H28.9746V85.3051Z" fill="white"/>
<path fill-rule="evenodd" clip-rule="evenodd" d="M41.1944 81.1683L41.4831 85.1133C42.2528 85.3057 42.9264 85.4982 43.5037 85.5944C44.1772 85.6906 44.7545 85.7869 45.3319 85.7869C46.9676 85.7869 48.3147 85.3057 49.1806 84.4398C50.1428 83.5738 50.5277 82.4192 50.6239 80.9759C50.6239 79.8212 50.2391 78.9553 49.5655 78.2817C48.892 77.6082 48.026 76.9346 46.9676 76.4535L45.2356 75.4913C44.8507 75.2989 44.6583 75.1065 44.4659 74.914C44.2734 74.7216 44.1772 74.4329 44.1772 74.2405C44.1772 73.8556 44.3696 73.5669 44.5621 73.3745C44.8507 73.182 45.2356 73.0858 45.7167 73.0858C46.1016 73.0858 46.5827 73.182 47.2562 73.3745C47.8336 73.5669 48.6033 73.9518 49.3731 74.4329V70.969C48.6995 70.6803 48.026 70.5841 47.4487 70.3917C46.8714 70.2955 46.294 70.1992 45.7167 70.1992C44.2734 70.1992 43.1188 70.5841 42.2528 71.3539C41.3868 72.1236 41.002 73.0858 41.002 74.2405C41.002 75.1064 41.1944 75.8762 41.6755 76.5498C42.1566 77.2233 42.8301 77.8968 43.7923 78.3779L44.7545 78.9553C45.5243 79.3401 46.1016 79.725 46.4865 80.0137C46.8714 80.3023 47.16 80.6872 47.16 81.2645C47.16 81.6494 46.9676 82.0343 46.6789 82.323C46.294 82.6116 45.8129 82.7078 45.2356 82.7078C44.5621 82.7078 43.8885 82.6116 43.215 82.323C42.6377 82.0343 41.9641 81.6494 41.1944 81.1683Z" fill="white"/>
<path fill-rule="evenodd" clip-rule="evenodd" d="M107.104 85.3043H109.605V75.971L118.939 85.7854H119.227V70.5827H116.726V79.916L107.392 70.1016H107.104V85.3043Z" fill="white"/>
<path fill-rule="evenodd" clip-rule="evenodd" d="M123.846 85.3051H126.347V78.4735L132.89 85.3051H136.162L128.849 77.7037L135.488 70.6797H132.505L126.347 77.2226V70.6797H123.846V85.3051Z" fill="white"/>
<path fill-rule="evenodd" clip-rule="evenodd" d="M85.9351 46.0469L54.0863 103.779L43.1172 92.7135H50.6224L85.9351 46.0469Z" fill="white"/>
<path fill-rule="evenodd" clip-rule="evenodd" d="M81.9903 52.2031L53.8941 102.045L45.6191 93.674H51.1999L81.9903 52.2031Z" fill="#D71C23"/>
<path fill-rule="evenodd" clip-rule="evenodd" d="M95.0761 80.6858L97.4816 75.2012L99.8871 80.6858H95.0761ZM92.9593 85.3043L94.1139 82.7064H100.753L101.908 85.3043H104.602L97.674 70.1016H97.4816L90.3613 85.3043H92.9593Z" fill="white"/>
<path fill-rule="evenodd" clip-rule="evenodd" d="M81.7029 76.7401V72.6026H83.1462C84.1084 72.6026 84.7819 72.7951 85.263 73.0837C85.7441 73.3724 85.9366 73.9497 85.9366 74.6233C85.9366 75.2968 85.6479 75.7779 85.263 76.1628C84.7819 76.5477 84.1084 76.7401 83.2424 76.7401H81.7029ZM81.7029 83.2831V78.6645H83.5311C84.397 78.6645 85.0706 78.8569 85.5517 79.2418C86.0328 79.6267 86.2252 80.204 86.2252 80.8776C86.2252 81.6473 85.9366 82.2246 85.5517 82.6095C85.0706 82.9944 84.397 83.1868 83.5311 83.1868L81.7029 83.2831ZM79.2012 85.3037V70.582H83.5311C84.6857 70.582 86.2252 70.7745 87.1874 71.5442C87.9572 72.2178 88.4383 73.0837 88.4383 74.3346C88.4383 75.1043 88.2458 75.6817 87.861 76.259C87.4761 76.7401 86.8988 77.2212 86.129 77.5099C86.995 77.7023 87.5723 78.1834 88.0534 78.7607C88.5345 79.338 88.727 80.1078 88.727 81.07C88.727 82.5133 88.2458 83.5717 87.3799 84.3415C86.4177 85.015 85.0706 85.3999 83.2424 85.3999L79.2012 85.3037Z" fill="white"/>
</g>
<defs>
<clipPath id="clip0_713_836">
<rect width="140" height="57.732" fill="white" transform="translate(5 46)"/>
</clipPath>
</defs>
</svg>
