<svg width="150" height="150" viewBox="0 0 150 150" fill="none" xmlns="http://www.w3.org/2000/svg">
<path d="M139.471 133.293L133.696 127.514V122.111C133.696 120.036 132.075 118.35 130.036 118.201V72.1815C132.075 72.0398 133.696 70.3473 133.696 68.2723V63.9381H134.637C136.491 63.9381 137.999 62.4296 137.999 60.574V55.0641C137.999 53.2086 136.491 51.7 134.637 51.7H130.036V35.7087H138.19C138.869 35.7087 139.499 35.3262 139.803 34.7172C140.115 34.1081 140.051 33.3786 139.648 32.8262L123.532 10.7436C123.192 10.2762 122.647 10 122.067 10L27.9347 10.0071C27.3544 10.0071 26.8165 10.2833 26.4697 10.7507L10.354 32.8333C9.95053 33.3857 9.89391 34.1151 10.1983 34.7242C10.5097 35.3333 11.1325 35.7157 11.8119 35.7157H19.9654V51.7071H15.3648C13.5176 51.7071 12.0029 53.2156 12.0029 55.0711V60.5811C12.0029 62.4365 13.5104 63.9451 15.3648 63.9451H16.3062V68.2793C16.3062 70.3543 17.9269 72.047 19.9652 72.1886V118.208C17.9269 118.35 16.3062 120.043 16.3062 122.118V127.521L10.5308 133.3C10.1911 133.64 10 134.101 10 134.582V138.187C10 139.186 10.8139 140 11.8119 140H138.176C139.174 140 139.987 139.186 139.987 138.187V134.582C139.987 134.101 139.796 133.64 139.457 133.3L139.471 133.293ZM130.072 126.452H112.031V122.111C112.031 121.941 112.173 121.799 112.342 121.799H129.753C129.923 121.799 130.065 121.941 130.065 122.111V126.452H130.072ZM37.9344 118.201V72.1815C39.9728 72.0398 41.5935 70.3473 41.5935 68.2723V63.9381H62.3594V68.2723C62.3594 70.3473 63.9802 72.0399 66.0185 72.1815V118.201C63.9801 118.343 62.3594 120.036 62.3594 122.111V126.452H41.5935V122.111C41.5935 120.036 39.9727 118.343 37.9344 118.201ZM34.3107 72.2105V118.174H23.5951V72.2105H34.3107ZM69.6422 72.2105H80.3578V118.174H69.6422V72.2105ZM83.7125 68.5845H66.2944C66.1246 68.5845 65.983 68.4428 65.983 68.2728V63.9386H84.0238V68.2728C84.0238 68.4428 83.8824 68.5845 83.7125 68.5845ZM65.983 122.11C65.983 121.94 66.1245 121.799 66.2944 121.799H83.7125C83.8823 121.799 84.0239 121.94 84.0239 122.11V126.451H65.983L65.983 122.11ZM83.9885 118.201V72.1811C86.0268 72.0395 87.6475 70.3469 87.6475 68.2719V63.9377H108.413V68.2719C108.413 70.3469 110.034 72.0395 112.072 72.1811V118.201C110.034 118.343 108.413 120.035 108.413 122.11V126.451H87.6475V122.11C87.6475 120.035 86.0268 118.343 83.9885 118.201ZM115.696 118.173V72.209H126.412V118.173H115.696ZM130.078 68.2729C130.078 68.4429 129.929 68.5846 129.767 68.5846H112.356C112.186 68.5846 112.044 68.4429 112.044 68.2729V63.9387H130.085V68.2729H130.078ZM23.6014 35.7166H48.7267C49.7246 35.7166 50.5385 34.9021 50.5385 33.9036C50.5385 32.905 49.7246 32.0906 48.7267 32.0906H15.3918L28.8606 13.634H121.159L134.628 32.0906H110.818C109.82 32.0906 109.006 32.905 109.006 33.9036C109.006 34.9021 109.82 35.7166 110.818 35.7166H126.417V51.7079H23.6007L23.6014 35.7166ZM15.6391 55.3334H134.38V60.3192H15.6391V55.3334ZM19.9423 63.9453H37.9832V68.2795C37.9832 68.4494 37.8416 68.5911 37.6717 68.5911H20.2537C20.0838 68.5911 19.9422 68.4494 19.9422 68.2795L19.9423 63.9453ZM20.2538 121.813H37.6718C37.8417 121.813 37.9833 121.955 37.9833 122.125V126.466H19.9424V122.125C19.9424 121.955 20.0839 121.813 20.2538 121.813ZM136.384 136.374L13.6368 136.367V135.326L18.8813 130.078H131.14L136.384 135.326V136.374ZM105.908 34.3064V27.5218C106.467 26.9623 106.835 26.2186 106.835 25.3829C106.835 24.0019 105.901 22.7838 104.571 22.4297L77.0175 15.0431C75.6515 14.6748 74.3776 14.6748 73.0116 15.0431L45.4584 22.4297C44.1278 22.7909 43.1936 24.0019 43.1936 25.3829C43.1936 26.7639 44.1278 27.9821 45.4584 28.3362L54.7867 30.8361V43.5343C54.7867 44.1717 55.1193 44.7595 55.6643 45.0853C61.3335 48.4918 68.0218 50.2907 75.0151 50.2907C82.0008 50.2907 88.6891 48.4918 94.3659 45.0853C94.9109 44.7595 95.2436 44.1646 95.2436 43.5343V30.8361L102.293 28.9451V34.2992L99.5397 37.0541C99.2 37.394 99.0089 37.8543 99.0089 38.3359V48.2437C99.0089 49.1219 99.5326 49.9009 100.339 50.2409C100.608 50.3542 100.892 50.4038 101.168 50.4038C101.734 50.4038 102.279 50.1843 102.689 49.7664L104.098 48.3571L105.506 49.7664C106.122 50.3896 107.042 50.5738 107.856 50.2409C108.663 49.9081 109.187 49.1219 109.187 48.2437V38.3359C109.187 37.8543 108.995 37.394 108.656 37.0541L105.903 34.2992L105.908 34.3064ZM91.6115 42.4933C86.6926 45.234 80.9809 46.6788 75.0073 46.6788C69.0338 46.6788 63.3222 45.2341 58.4031 42.4933V31.8065L73.0043 35.7229C73.6908 35.9071 74.349 35.9991 75.0073 35.9991C75.6656 35.9991 76.3308 35.9071 77.0103 35.7229L91.6115 31.8065V42.4933ZM76.0761 32.2242C75.333 32.4225 74.696 32.4225 73.9457 32.2242L48.4309 25.3829L73.9457 18.5417C74.6889 18.3434 75.3259 18.3434 76.0761 18.5417L101.591 25.3829L76.0761 32.2242ZM105.568 44.7099L105.377 44.5187C105.037 44.1787 104.577 43.9875 104.096 43.9875C103.615 43.9875 103.155 44.1787 102.815 44.5187L102.624 44.7099V39.0937L104.096 37.6206L105.568 39.0937V44.7099Z" fill="#663366"/>
</svg>
