<svg width="150" height="150" viewBox="0 0 150 150" fill="none" xmlns="http://www.w3.org/2000/svg">
<path d="M21.9268 103.625C24.1898 103.625 26.0194 105.455 26.0195 107.718C26.0195 108.376 25.8599 109.034 25.5547 109.613L25.5537 109.612C24.8472 110.976 23.451 111.811 21.9268 111.811C20.4972 111.811 19.1802 111.064 18.4395 109.86L18.2998 109.613C17.9945 109.034 17.834 108.376 17.834 107.718C17.8341 105.455 19.6638 103.625 21.9268 103.625ZM21.9268 106.209C21.0934 106.209 20.4181 106.885 20.418 107.718C20.418 107.903 20.4509 108.086 20.5146 108.248L20.5879 108.404L20.5908 108.407L20.7002 108.587C20.9802 108.985 21.437 109.227 21.9268 109.227C22.4865 109.227 23.0039 108.911 23.2627 108.407L23.2637 108.406L23.3389 108.24C23.4034 108.07 23.4355 107.89 23.4355 107.718C23.4354 106.885 22.7454 106.209 21.9268 106.209Z" fill="#663366" stroke="#663366" stroke-width="0.25"/>
<path d="M21.9102 96.7629C24.8374 96.7629 27.5924 97.8964 29.6699 99.9739C31.7475 102.051 32.8808 104.806 32.8809 107.734C32.8809 109.449 32.5029 111.086 31.7471 112.598L31.7441 112.605L31.7393 112.612C31.7313 112.624 31.7244 112.64 31.7119 112.669C31.7024 112.691 31.687 112.723 31.668 112.754L31.6689 112.755C29.7802 116.422 26.0494 118.704 21.9102 118.704C17.9304 118.704 14.3055 116.577 12.3516 113.124L12.167 112.786C11.3643 111.228 10.9395 109.481 10.9395 107.734C10.9395 101.689 15.8659 96.763 21.9102 96.7629ZM21.9258 99.3313C17.2956 99.3313 13.5391 103.088 13.5391 107.718C13.5391 108.983 13.8222 110.234 14.375 111.358L14.4893 111.58V111.581L14.6299 111.84C16.1245 114.479 18.8963 116.105 21.9414 116.105C25.0996 116.105 27.9512 114.357 29.4082 111.551C29.4136 111.54 29.4192 111.531 29.4229 111.525C29.4242 111.522 29.425 111.52 29.4258 111.519V111.501L29.4385 111.475L29.4541 111.444C30.0366 110.279 30.3281 109.022 30.3281 107.718C30.3281 105.48 29.4546 103.364 27.876 101.785L27.5684 101.497C26.0019 100.099 24.0243 99.3313 21.9258 99.3313Z" fill="#663366" stroke="#663366" stroke-width="0.25"/>
<path d="M121.202 103.625C123.465 103.625 125.295 105.455 125.295 107.718C125.295 108.375 125.135 109.032 124.83 109.61L124.831 109.611C124.14 110.977 122.742 111.811 121.202 111.811C119.773 111.811 118.456 111.064 117.715 109.86L117.575 109.613C117.27 109.034 117.109 108.376 117.109 107.718C117.109 105.455 118.939 103.625 121.202 103.625ZM121.202 106.209C120.369 106.209 119.693 106.885 119.693 107.718C119.693 107.903 119.726 108.086 119.79 108.248L119.863 108.404L119.866 108.407L119.976 108.587C120.256 108.985 120.712 109.227 121.202 109.227C121.762 109.227 122.279 108.911 122.538 108.407L122.539 108.406L122.614 108.24C122.679 108.07 122.711 107.89 122.711 107.718C122.711 106.885 122.036 106.209 121.202 106.209Z" fill="#663366" stroke="#663366" stroke-width="0.25"/>
<path d="M126.416 99.5483L126.675 99.5581C127.957 99.6553 129.066 100.47 129.536 101.682H129.535L130.329 103.703H131.474L131.5 103.792L131.749 104.632V104.634L131.85 105.007C132.069 105.884 132.189 106.793 132.189 107.703C132.189 109.418 131.812 111.039 131.057 112.566L131.056 112.565C131.039 112.611 131.022 112.647 130.994 112.691L130.978 112.724C129.073 116.407 125.343 118.689 121.203 118.689C117.223 118.689 113.599 116.561 111.645 113.109L111.46 112.771C110.657 111.228 110.232 109.465 110.232 107.703C110.232 106.664 110.373 105.625 110.673 104.632L110.922 103.792L110.949 103.703H112.093L112.886 101.682L112.988 101.445C113.541 100.287 114.703 99.5484 116.006 99.5483H126.416ZM116.006 102.148C115.701 102.148 115.403 102.348 115.281 102.644L115.282 102.645L113.866 106.224L113.835 106.302H112.938C112.858 106.775 112.816 107.246 112.816 107.718C112.816 109.083 113.139 110.385 113.752 111.582L113.893 111.84C115.387 114.479 118.158 116.105 121.203 116.105C124.362 116.105 127.213 114.357 128.67 111.55L128.713 111.451L128.716 111.444L128.921 111.002C129.367 109.964 129.59 108.859 129.59 107.718C129.59 107.232 129.548 106.761 129.469 106.302H128.556L128.524 106.223L127.124 102.644V102.643C127.001 102.347 126.719 102.148 126.4 102.148H116.006Z" fill="#663366" stroke="#663366" stroke-width="0.25"/>
<path d="M127.102 94.1332C130.422 94.1332 133.425 96.2198 134.579 99.3344L137.115 106.134L137.179 106.303H128.572L128.541 106.223L127.141 102.644V102.643C127.018 102.346 126.736 102.148 126.417 102.148H116.022C115.7 102.148 115.42 102.334 115.299 102.644V102.645L113.883 106.224L113.852 106.303H105.246L105.309 106.134L107.845 99.3344L107.959 99.0453C109.188 96.0914 112.106 94.1332 115.322 94.1332H127.102ZM115.338 96.7328C113.172 96.7328 111.192 98.0606 110.365 100.051L110.289 100.245L108.998 103.718H112.125L112.918 101.698L113.021 101.46C113.574 100.303 114.735 99.5639 116.038 99.5638H126.417C127.807 99.5638 129.036 100.405 129.537 101.698L130.33 103.718H133.458L132.166 100.245C131.391 98.1475 129.352 96.7328 127.117 96.7328H115.338Z" fill="#663366" stroke="#663366" stroke-width="0.25"/>
<path d="M41.2676 42.1149L43.5859 42.3795L43.71 42.3932L43.6963 42.5172L42.1396 56.1647C41.2383 64.6813 41.1135 73.3377 41.7812 81.8854L47.3037 106.15L47.3389 106.302H42.5293C38.4748 106.302 34.7595 104.147 32.7432 100.636L32.5537 100.292L26.7803 89.3678V89.3688C24.0164 84.1533 22.5645 78.266 22.5645 72.3483C22.5645 71.156 22.7058 69.9792 22.9883 68.8336C23.2707 67.6883 23.6939 66.558 24.2432 65.5065L34.2959 46.1334L34.3535 46.0231L34.4639 46.0807L36.5342 47.1539L36.6445 47.2115L36.5869 47.3229L26.5195 66.6959C26.0727 67.5589 25.7182 68.4829 25.4873 69.4371C25.2561 70.3927 25.1329 71.3631 25.1328 72.3483C25.1328 77.665 26.3988 82.9677 28.8174 87.691L29.0557 88.1461V88.1471L34.8281 99.0699L34.9736 99.3346C36.5162 102.033 39.3779 103.703 42.5137 103.703H44.0996L39.2178 82.2731L39.2139 82.2594V82.1676C38.5295 73.4336 38.6547 64.591 39.5732 55.8883V55.8873L41.1289 42.2252L41.1436 42.1002L41.2676 42.1149Z" fill="#663366" stroke="#663366" stroke-width="0.25"/>
<path d="M39.5879 67.7579V70.3419H24.1348V67.7579H39.5879Z" fill="#663366" stroke="#663366" stroke-width="0.25"/>
<path d="M95.7451 103.719V106.302H45.5918V103.719H95.7451Z" fill="#663366" stroke="#663366" stroke-width="0.25"/>
<path d="M44.4258 36.8102L44.1768 38.5495L44.1777 38.5505L43.6797 42.5349L42.5908 52.1804L42.5898 52.1823L42.3105 54.4225L42.2803 54.6608L42.1025 54.4997L34.5713 47.6843L34.5703 47.6833L29.6836 43.1862C29.2313 42.7673 29.0293 42.1299 29.1807 41.5241C29.3313 40.9214 29.8 40.434 30.4062 40.2819L44.2705 36.6716L44.4521 36.6247L44.4258 36.8102ZM32.6201 42.3786L36.3105 45.7722L40.2998 49.3737L41.1123 42.2243L41.1133 42.2233L41.3848 40.0886L32.6201 42.3786Z" fill="#663366" stroke="#663366" stroke-width="0.25"/>
<path d="M122.071 31.875L122.097 31.8867L131.184 36.1035L131.225 36.1221L131.244 36.1631L135.196 44.4414L135.205 44.458L135.207 44.4766L140.125 77.0449L140.146 77.1885H105.169L105.16 77.0723L103.044 47.2588L103.025 47.0703C102.787 45.1421 101.142 43.671 99.1855 43.6709H40.9248L40.9424 43.5303L41.627 38.0068L41.6299 37.9854L41.6396 37.9658L41.7324 37.7793L41.7334 37.7773L41.916 37.4404C43.855 34.0022 47.4657 31.875 51.4453 31.875H122.071ZM51.4609 34.4746C48.4013 34.4746 45.6172 36.1228 44.1582 38.7793L43.8691 41.0869H99.1855C102.55 41.087 105.374 43.7209 105.612 47.085L107.58 74.6045H137.164L132.722 45.2314L129.31 38.085L121.519 34.4746H51.4609Z" fill="#663366" stroke="#663366" stroke-width="0.25"/>
<path d="M79.9688 42.254V85.545H77.3848V42.254H79.9688Z" fill="#663366" stroke="#663366" stroke-width="0.25"/>
<path d="M139.939 74.6046V103.205C139.939 104.908 138.546 106.303 136.843 106.303H128.572L128.541 106.223L127.141 102.645V102.644C127.018 102.347 126.736 102.148 126.417 102.148H116.022C115.7 102.148 115.42 102.335 115.299 102.645H115.298L113.882 106.224L113.851 106.303H77.3848V97.9298H94.0508C94.9714 97.9298 95.7596 97.2718 95.9199 96.3829L99.0166 79.9503L99.0771 79.6632C99.7726 76.7188 102.414 74.6046 105.457 74.6046H139.939ZM105.473 77.1886C103.617 77.1886 102.029 78.4626 101.603 80.2433L101.564 80.4171L98.4688 96.8488C98.0686 98.9775 96.2115 100.514 94.0508 100.514H79.9688V103.719H112.094L112.887 101.697L112.989 101.461C113.542 100.303 114.704 99.5636 116.007 99.5636H126.417C127.791 99.5636 129.035 100.421 129.536 101.697L130.33 103.719H136.843C137.13 103.719 137.355 103.48 137.355 103.205V77.1886H105.473Z" fill="#663366" stroke="#663366" stroke-width="0.25"/>
<path d="M93.0059 80.9076C92.7481 80.9076 92.5391 81.1167 92.5391 81.3744V85.3578C92.5392 85.6197 92.7524 85.8392 93.0059 85.8392H97.9131L98.8447 80.9076H93.0059ZM101.688 80.9076H101.465L100.068 88.3217L100.049 88.4232H93.0059C91.3177 88.4232 89.9552 87.0442 89.9551 85.3578V81.3744C89.9551 79.6866 91.3345 78.3236 93.0059 78.3236H100.521V79.392L101.575 79.4916L101.688 79.5013V80.9076Z" fill="#663366" stroke="#663366" stroke-width="0.25"/>
<path d="M21.3457 86.8978C24.3305 86.5551 27.5528 87.4956 29.5566 89.2943L29.6494 89.3783L29.5654 89.4711L28.0098 91.1986L27.9258 91.2914L27.833 91.2074C26.3858 89.8973 23.9024 89.1885 21.6445 89.4496L21.6377 89.4506H21.5684C21.5557 89.4506 21.5376 89.4531 21.5078 89.4574C21.4831 89.4609 21.4461 89.4662 21.4121 89.4662H21.4092C19.392 89.7578 17.9513 90.6725 16.2637 92.0814L16.2646 92.0824C15.9706 92.33 15.6927 92.5762 15.4316 92.8373L15.4297 92.8392C14.8072 93.4346 14.2083 94.0887 13.6543 94.8021C17.6173 93.5791 21.031 93.264 24.3486 93.9388C27.7682 94.6345 31.0732 96.3777 34.7617 99.2318L34.8613 99.309L34.7842 99.4076L33.3369 101.275L33.2607 101.373L33.1621 101.297C29.5452 98.4953 26.4252 96.898 23.1611 96.3871C19.8973 95.8762 16.4737 96.4493 12.2441 98.017L12.2432 98.016C11.5384 98.2837 10.7665 98.0655 10.2979 97.4799V97.4789C9.79914 96.8629 9.7319 95.9973 10.1484 95.3138L10.1494 95.3129L10.543 94.7006C11.4763 93.2948 12.5132 92.0466 13.623 90.9779H13.624L14.1035 90.5355C14.2661 90.3906 14.4307 90.2492 14.5957 90.1156C16.5619 88.4772 18.418 87.2957 21.0303 86.932V86.931C21.076 86.9219 21.1213 86.9172 21.1592 86.9135C21.1988 86.9095 21.2319 86.9061 21.2637 86.8998L21.2754 86.8978H21.3457Z" fill="#663366" stroke="#663366" stroke-width="0.25"/>
<path d="M13.1797 90.6008H14.0186C14.2112 90.4247 14.4043 90.2615 14.6113 90.0988C15.8005 89.1154 16.9419 88.3088 18.2393 87.7316C16.6604 86.9593 14.9284 86.4959 13.1797 86.3781V90.6008ZM22.5469 89.3566L22.4395 89.3713L21.4277 89.5119C19.4083 89.7873 17.9668 90.702 16.2617 92.1125L16.2627 92.1135C15.9688 92.3609 15.6904 92.6085 15.4277 92.8557L15.4219 92.8605L15.0635 93.1564L15.0293 93.1848H12.2607C11.3353 93.1845 10.5958 92.428 10.5957 91.5197V85.4357C10.5957 84.9805 10.7819 84.5601 11.0996 84.2424C11.4192 83.9228 11.8553 83.7553 12.3076 83.7707V83.7697H12.5127L12.9775 83.7853C15.1445 83.8897 17.2982 84.4348 19.2607 85.3674L19.6787 85.5734L22.4795 87.0041L22.5469 87.0392V89.3566Z" fill="#663366" stroke="#663366" stroke-width="0.25"/>
<path d="M79.9678 59.0128V72.878H74.9873C74.1607 72.8779 73.3822 72.554 72.7988 71.9708C72.2153 71.3873 71.8906 70.6082 71.8906 69.7813V62.1094L71.8945 61.9512C71.9779 60.3213 73.3378 59.013 74.9873 59.0128H79.9678ZM74.9873 61.5967C74.6988 61.597 74.4748 61.8209 74.4746 62.1094V69.7813C74.4746 69.9199 74.5244 70.044 74.625 70.1446C74.7255 70.2449 74.849 70.2939 74.9873 70.294H77.3838V61.5967H74.9873Z" fill="#663366" stroke="#663366" stroke-width="0.25"/>
<path d="M79.9521 84.1277V106.177H79.8428V106.302H67.5801V88.0964C67.5801 85.9112 69.3635 84.1277 71.5488 84.1277H79.9521ZM71.5801 86.7117C70.8097 86.7117 70.1953 87.3399 70.1953 88.0964V103.719H77.3984V86.7117H71.5801Z" fill="#663366" stroke="#663366" stroke-width="0.25"/>
<path d="M78.8018 79.1171V80.2841H79.9688V86.7118H71.5498C70.7796 86.712 70.166 87.3402 70.166 88.0966V89.3866L70.042 89.3885L68.875 89.4032L68.874 89.4042V89.4032H57.6699C56.0604 89.4031 54.7441 88.0869 54.7441 86.4774V82.0428C54.7442 80.4334 56.0605 79.1171 57.6699 79.1171H78.8018ZM57.6699 81.701C57.4745 81.7011 57.3282 81.8475 57.3281 82.0428V86.4774C57.3281 86.6729 57.4745 86.8191 57.6699 86.8192H67.8057C68.3451 85.259 69.8144 84.1279 71.5654 84.1278H77.4004V81.701H57.6699Z" fill="#663366" stroke="#663366" stroke-width="0.25"/>
<path d="M60.6875 87.9867V105.135H58.1035V87.9867H60.6875Z" fill="#663366" stroke="#663366" stroke-width="0.25"/>
<path d="M37.2227 73.9666V76.5505H30.748V73.9666H37.2227Z" fill="#663366" stroke="#663366" stroke-width="0.25"/>
</svg>
