<svg width="150" height="150" viewBox="0 0 150 150" fill="none" xmlns="http://www.w3.org/2000/svg">
<path d="M70.1543 17.9805C72.5522 16.4807 75.5873 16.5047 77.9639 18.0664L136.851 56.7217L137.148 56.9277C138.604 57.9881 139.599 59.5259 139.968 61.3047L140.032 61.6602C140.294 63.3196 139.976 64.9953 139.123 66.4443L138.932 66.751C137.589 68.7944 135.325 70.0185 132.877 70.0186C131.553 70.0186 130.261 69.6581 129.132 68.9688L128.908 68.8271L74.0596 32.8232L21.1826 68.7627C19.9698 69.5874 18.5671 70.0186 17.127 70.0186H17.0234L17.0215 70.0107C16.7128 70.0063 16.4043 69.984 16.0977 69.9404L15.7568 69.8838C13.9776 69.5451 12.421 68.5758 11.3359 67.1367L11.125 66.8428C8.95203 63.6459 9.6889 59.3111 12.7422 57.0039L13.0449 56.7861L69.9238 18.1309L70.1543 17.9805ZM73.8623 19.9541C73.1899 19.9747 72.5244 20.1565 71.9199 20.5049L71.6484 20.6748L14.7695 59.3301C12.8716 60.6211 12.3766 63.2142 13.667 65.1123H13.668C14.2567 65.9761 15.1207 66.5771 16.1289 66.8184L16.333 66.8623L16.5381 66.8955C17.5625 67.0379 18.5922 66.8019 19.4502 66.2139L73.1816 29.6982C73.6958 29.3461 74.3705 29.3469 74.8887 29.6865L130.597 66.2549L130.857 66.4131C131.478 66.7584 132.169 66.9394 132.875 66.9395C134.197 66.9395 135.423 66.3197 136.212 65.2754L136.363 65.0605C136.975 64.1294 137.186 63.0194 136.96 61.9287C136.733 60.8375 136.101 59.9017 135.17 59.2949V59.2939L76.2715 20.6387C75.5771 20.1809 74.7797 19.9541 73.9873 19.9541H73.8623Z" fill="#663366" stroke="#663366" stroke-width="0.25"/>
<path d="M69.2061 72.4495C72.7407 72.4495 75.6104 75.3245 75.6104 78.8538V113.61C75.6103 114.455 74.9272 115.146 74.0762 115.149V115.15H74.0703V115.149C73.2253 115.146 72.5362 114.461 72.5361 113.61V78.8538C72.5361 77.0205 71.0394 75.5237 69.2061 75.5237H46.4316C44.6097 75.5237 43.123 77.0196 43.123 78.8538V113.61C43.123 114.457 42.4365 115.15 41.583 115.15C40.7354 115.15 40.043 114.463 40.043 113.61V78.8538L40.0518 78.5247C40.223 75.143 43.0174 72.4495 46.4316 72.4495H69.2061Z" fill="#663366" stroke="#663366" stroke-width="0.25"/>
<path d="M49.2393 91.5369C50.0869 91.537 50.7793 92.2234 50.7793 93.077V96.0604C50.7791 96.9079 50.0927 97.6003 49.2393 97.6004C48.3917 97.6004 47.6994 96.9139 47.6992 96.0604V93.077C47.6992 92.2293 48.3856 91.5369 49.2393 91.5369Z" fill="#663366" stroke="#663366" stroke-width="0.25"/>
<path d="M74.1338 45.8588C78.9454 45.8588 82.8534 49.7725 82.8535 54.5786C82.8535 59.3902 78.9399 63.2983 74.1338 63.2983C69.3275 63.2982 65.4141 59.3847 65.4141 54.5786C65.4141 49.767 69.3278 45.8589 74.1338 45.8588ZM74.1338 48.933C71.0182 48.9331 68.4883 51.4682 68.4883 54.5786C68.4883 57.6941 71.0235 60.224 74.1338 60.2241C77.2494 60.2241 79.7792 57.6888 79.7793 54.5786C79.7793 51.4629 77.2441 48.933 74.1338 48.933Z" fill="#663366" stroke="#663366" stroke-width="0.25"/>
<path d="M25.2881 63.1707C26.1357 63.1707 26.8281 63.8571 26.8281 64.7107V123.625C26.8281 124.472 26.1416 125.165 25.2881 125.165C24.4404 125.165 23.748 124.478 23.748 123.625V64.7107L23.7559 64.5535C23.8344 63.779 24.4878 63.1707 25.2881 63.1707Z" fill="#663366" stroke="#663366" stroke-width="0.25"/>
<path d="M124.019 63.1768C124.866 63.1769 125.559 63.8632 125.559 64.7168V70.9639C125.559 71.8115 124.872 72.5038 124.019 72.5039C123.171 72.5039 122.479 71.8175 122.479 70.9639V64.7168C122.479 63.8691 123.165 63.1768 124.019 63.1768Z" fill="#663366" stroke="#663366" stroke-width="0.25"/>
<path d="M91.166 122.085C92.0135 122.085 92.7051 122.772 92.7051 123.625C92.705 124.472 92.0194 125.165 91.166 125.165H20.2705C19.4229 125.165 18.7306 124.479 18.7305 123.625C18.7305 122.777 19.4169 122.085 20.2705 122.085H91.166Z" fill="#663366" stroke="#663366" stroke-width="0.25"/>
<path d="M132.741 76.4874L133.12 76.4972C137.015 76.6949 140.126 79.9242 140.126 83.8722V125.877C140.126 129.947 136.816 133.262 132.741 133.262H104.068C99.9987 133.262 96.6836 129.952 96.6836 125.877V83.8722C96.6836 79.8025 99.9931 76.4874 104.068 76.4874H132.741ZM104.068 79.5675C101.695 79.5675 99.7637 81.4984 99.7637 83.8722V125.877C99.7637 128.251 101.695 130.183 104.068 130.183H132.741C135.115 130.183 137.046 128.251 137.046 125.877V83.8722C137.046 81.4984 135.115 79.5675 132.741 79.5675H104.068Z" fill="#663366" stroke="#663366" stroke-width="0.25"/>
<path d="M132.343 82.7305L132.499 82.7383C133.274 82.8167 133.882 83.4702 133.882 84.2706V99.4571C133.882 100.304 133.196 100.997 132.343 100.997H104.47C103.622 100.997 102.93 100.311 102.93 99.4571V84.2706C102.93 83.4229 103.616 82.7305 104.47 82.7305H132.343ZM106.01 97.9219H130.808V85.8155H106.01V97.9219Z" fill="#663366" stroke="#663366" stroke-width="0.25"/>
<path d="M107.845 105.557C108.692 105.557 109.385 106.243 109.385 107.097C109.385 107.945 108.698 108.637 107.845 108.637H105.19C104.343 108.637 103.65 107.95 103.65 107.097C103.65 106.249 104.337 105.557 105.19 105.557H107.845Z" fill="#663366" stroke="#663366" stroke-width="0.25"/>
<path d="M119.73 105.557C120.578 105.557 121.271 106.243 121.271 107.097C121.27 107.944 120.584 108.637 119.73 108.637H117.081C116.233 108.637 115.541 107.95 115.541 107.097C115.541 106.249 116.227 105.557 117.081 105.557H119.73Z" fill="#663366" stroke="#663366" stroke-width="0.25"/>
<path d="M131.617 105.557C132.465 105.557 133.157 106.243 133.157 107.097C133.157 107.944 132.471 108.637 131.617 108.637H128.968C128.12 108.637 127.428 107.95 127.428 107.097C127.428 106.249 128.114 105.557 128.968 105.557H131.617Z" fill="#663366" stroke="#663366" stroke-width="0.25"/>
<path d="M107.845 114.269C108.692 114.269 109.385 114.955 109.385 115.809C109.385 116.656 108.698 117.349 107.845 117.349H105.19C104.343 117.349 103.65 116.662 103.65 115.809C103.65 114.961 104.337 114.269 105.19 114.269H107.845Z" fill="#663366" stroke="#663366" stroke-width="0.25"/>
<path d="M119.73 114.269C120.578 114.269 121.271 114.955 121.271 115.809C121.27 116.656 120.584 117.349 119.73 117.349H117.081C116.233 117.349 115.541 116.662 115.541 115.809C115.541 114.961 116.227 114.269 117.081 114.269H119.73Z" fill="#663366" stroke="#663366" stroke-width="0.25"/>
<path d="M131.617 114.269C132.465 114.269 133.157 114.955 133.157 115.809C133.157 116.656 132.471 117.349 131.617 117.349H128.968C128.12 117.349 127.428 116.662 127.428 115.809C127.428 114.961 128.114 114.269 128.968 114.269H131.617Z" fill="#663366" stroke="#663366" stroke-width="0.25"/>
<path d="M107.845 122.986C108.692 122.986 109.385 123.672 109.385 124.526C109.385 125.373 108.698 126.066 107.845 126.066H105.19C104.343 126.066 103.65 125.379 103.65 124.526C103.65 123.678 104.337 122.986 105.19 122.986H107.845Z" fill="#663366" stroke="#663366" stroke-width="0.25"/>
<path d="M119.73 122.986C120.578 122.986 121.271 123.672 121.271 124.526C121.27 125.373 120.584 126.066 119.73 126.066H117.081C116.233 126.066 115.541 125.379 115.541 124.526C115.541 123.678 116.227 122.986 117.081 122.986H119.73Z" fill="#663366" stroke="#663366" stroke-width="0.25"/>
<path d="M131.617 122.986C132.465 122.986 133.157 123.672 133.157 124.526C133.157 125.373 132.471 126.066 131.617 126.066H128.968C128.12 126.066 127.428 125.379 127.428 124.526C127.428 123.678 128.114 122.986 128.968 122.986H131.617Z" fill="#663366" stroke="#663366" stroke-width="0.25"/>
</svg>
