<svg width="150" height="150" viewBox="0 0 150 150" fill="none" xmlns="http://www.w3.org/2000/svg">
<path d="M36.3789 87.9015C39.0199 87.9015 42.2506 88.9328 45.0254 90.6534H45.0264C45.7279 91.0877 46.8988 91.8855 47.8945 92.9122C48.887 93.9356 49.7256 95.2075 49.7236 96.59L49.7158 96.8536C49.6789 97.4817 49.5026 98.1875 49.0391 98.8556C48.5419 99.572 47.7217 100.235 46.4141 100.714L46.1465 100.807C44.5023 101.348 42.2731 101.598 39.1357 101.598C36.3341 101.598 33.8926 101.147 32.083 100.284V100.283C29.5473 99.0798 28.7613 97.3587 28.5801 96.0304L28.5508 95.7706C28.3344 93.1889 28.8031 91.2774 30.0088 89.9669L30.2715 89.7023C30.908 89.1079 31.7193 88.6622 32.6807 88.3673H32.6816L33.0752 88.257C34.0143 88.0177 35.1018 87.9015 36.3789 87.9015ZM36.3789 90.3195C34.2037 90.3195 32.7645 90.7015 31.9502 91.4484L31.7959 91.6027C31.0969 92.3662 30.8104 93.6479 30.9717 95.5646L30.9971 95.7628C31.1647 96.7425 31.9622 97.5711 33.2969 98.17C34.7185 98.808 36.7256 99.172 39.1396 99.172C41.9908 99.172 44.0294 98.9527 45.3896 98.5031L45.6982 98.3927C46.3772 98.1309 46.769 97.8376 46.9941 97.5499C47.249 97.2242 47.3017 96.892 47.3018 96.5861C47.3018 96.1979 47.047 95.6177 46.4619 94.9308C45.9536 94.3342 45.2066 93.6694 44.1973 92.9982L43.749 92.7101C41.3689 91.2333 38.5406 90.3195 36.3789 90.3195Z" fill="#663366" stroke="#663366" stroke-width="0.25"/>
<path d="M113.047 49.3842C114.595 47.2443 117.579 46.669 119.823 48.1185H119.824L120.036 48.265C122.11 49.7667 122.716 52.6062 121.436 54.8217L121.301 55.0414L108.424 74.8939C107.496 76.3203 105.93 77.1751 104.225 77.1752C102.626 77.1752 101.149 76.424 100.206 75.1547L100.024 74.8939L91.5859 61.8812C90.0854 59.5647 90.7508 56.4589 93.0635 54.9584L93.2832 54.8246C95.5726 53.5052 98.5317 54.1956 99.9854 56.4359L104.224 62.974L112.901 49.5961L113.047 49.3842ZM118.496 50.1576C117.38 49.4328 115.901 49.6878 115.083 50.7064L114.929 50.9203L105.234 65.8666C105.011 66.2118 104.628 66.4174 104.217 66.4174C103.857 66.4173 103.518 66.2603 103.29 65.9896L103.199 65.8666L97.9434 57.7601V57.7592C97.4509 56.9973 96.6201 56.5834 95.7744 56.5834C95.3558 56.5834 94.9291 56.6855 94.54 56.8988L94.376 56.9974C93.1858 57.7705 92.844 59.3708 93.6172 60.5648L102.056 73.5775L102.149 73.7123C102.636 74.3679 103.398 74.7533 104.221 74.7533C105.098 74.7533 105.907 74.3148 106.386 73.5775L119.263 53.725L119.395 53.4965C119.95 52.4116 119.664 51.0746 118.711 50.3119L118.496 50.1576Z" fill="#663366" stroke="#663366" stroke-width="0.25"/>
<mask id="path-3-outside-1_142_2161" maskUnits="userSpaceOnUse" x="9" y="15" width="132" height="120" fill="black">
<rect fill="white" x="9" y="15" width="132" height="120"/>
<path d="M138.529 98.7087C137.579 97.7585 136.312 97.2344 134.97 97.2344C133.816 97.2344 132.753 97.6228 131.904 98.2789C131.29 96.1899 129.355 94.6591 127.07 94.6591C125.472 94.6591 124.043 95.4094 123.123 96.5745C122.199 95.4094 120.773 94.6591 119.175 94.6591C118.111 94.6591 117.127 94.9909 116.313 95.5527V84.3464C116.313 83.3924 116.045 82.4988 115.585 81.7371C118.413 79.9611 120.804 77.5442 122.542 74.6747C124.563 71.3415 125.63 67.5105 125.63 63.5929C125.63 61.8885 125.43 60.1955 125.034 58.5553C124.895 57.9709 124.307 57.6126 123.722 57.7522C123.138 57.8917 122.779 58.4799 122.919 59.0643C123.273 60.5387 123.454 62.062 123.454 63.5929C123.454 70.3988 119.865 76.6694 114.039 80.1308C113.247 79.6105 112.297 79.3051 111.279 79.3051C109.085 79.3051 107.211 80.719 106.524 82.6835C105.766 82.774 104.997 82.8193 104.232 82.8193C93.6287 82.8193 85.0053 74.1959 85.0053 63.5929C85.0053 52.9899 93.6287 44.3664 104.232 44.3664C106.732 44.3664 109.167 44.8378 111.464 45.7729C112.018 45.9991 112.655 45.7314 112.882 45.1733C113.108 44.6191 112.84 43.9818 112.282 43.7556C109.726 42.7187 107.018 42.1908 104.232 42.1908C101.343 42.1908 98.5419 42.7564 95.9024 43.8725C93.3535 44.9509 91.0647 46.4931 89.1002 48.4576C87.1357 50.4221 85.5935 52.7108 84.5151 55.2598C83.399 57.8992 82.8334 60.7008 82.8334 63.5891C82.8334 66.4774 83.399 69.279 84.5151 71.9184C85.5935 74.4673 87.1357 76.7561 89.1002 78.7206C91.0647 80.6851 93.3535 82.2273 95.9024 83.3057C98.5419 84.4218 101.343 84.9874 104.232 84.9874C104.903 84.9874 105.578 84.9572 106.245 84.8931V119.866C106.245 120.831 106.343 121.777 106.532 122.705H73.7689V26.045C73.7689 26.0374 73.7689 26.0336 73.7689 26.0261H130.984C130.984 26.0336 130.984 26.0374 130.984 26.045V92.4231C130.984 93.0226 131.471 93.509 132.07 93.509C132.67 93.509 133.156 93.0226 133.156 92.4231V26.045C133.156 23.3603 132.112 20.8377 130.215 18.9411C128.319 17.0445 125.796 16 123.111 16H81.6344C78.9497 16 76.4271 17.0445 74.5305 18.9411C72.6339 20.8377 71.5894 23.3603 71.5894 26.045V40.8183H63.8823C62.7511 40.8183 61.6614 41.1576 60.73 41.7986C59.7987 42.4396 59.0936 43.337 58.6901 44.3928L56.4918 50.1393C56.1789 50.9575 56.2015 51.8511 56.5371 52.643C54.1616 52.922 51.8389 53.6233 49.7085 54.713C46.9031 56.1534 44.4447 58.265 42.6008 60.8252C42.6008 60.8252 42.6008 60.829 42.5971 60.829C42.5933 60.8328 42.5895 60.8365 42.5858 60.8441L28.1933 80.8736H26.1119V75.0254C26.1119 72.5066 24.0644 70.4592 21.5457 70.4592H16.2932C12.8242 70.4592 10 73.2834 10 76.7523C10 80.2213 12.8242 83.0455 16.2932 83.0455H26.7076C25.6783 84.7121 24.8563 86.4957 24.253 88.3697C23.4762 90.7829 23.0803 93.2941 23.0803 95.8317V115.692C23.0803 118.768 25.3163 121.332 28.2461 121.849V130.182C28.2461 132.207 29.8938 133.851 31.9149 133.851H42.0993C44.1242 133.851 45.7682 132.203 45.7682 130.182V121.943H53.2265C54.4519 121.943 55.6359 121.498 56.5559 120.691L58.6147 118.893C59.1426 118.433 59.8175 118.18 60.5151 118.18H71.5857V123.802C71.5857 126.487 72.6301 129.009 74.5267 130.906C76.4234 132.803 78.9459 133.847 81.6306 133.847H106.275C106.875 133.847 107.361 133.361 107.361 132.761C107.361 132.162 106.875 131.675 106.275 131.675H81.6306C77.6564 131.675 74.3646 128.719 73.833 124.888H107.158C107.214 125.031 107.271 125.171 107.327 125.314C108.033 126.977 109.039 128.474 110.321 129.756C111.603 131.038 113.1 132.045 114.763 132.75C116.486 133.478 118.315 133.847 120.204 133.847H126.026C127.911 133.847 129.744 133.478 131.467 132.75C133.13 132.045 134.627 131.038 135.909 129.756C137.191 128.474 138.198 126.977 138.903 125.314C139.63 123.591 140 121.762 140 119.873V102.268C140.007 100.926 139.483 99.6627 138.529 98.7087ZM23.94 80.8736H16.2932C14.0195 80.8736 12.1719 79.026 12.1719 76.7523C12.1719 74.4787 14.0195 72.6311 16.2932 72.6311H21.5457C22.8654 72.6311 23.94 73.7057 23.94 75.0254V80.8736ZM44.0261 62.5635H71.5857V81.8993C65.6846 81.9294 59.7233 82.2009 53.8524 82.7099L48.4906 83.1737C42.8045 83.6677 37.1447 81.8465 32.8198 78.1588L44.0261 62.5635ZM71.5894 107.883H64.2028C63.426 107.883 62.7247 107.423 62.4117 106.714L59.3877 99.8738C59.1162 99.2555 59.169 98.5767 59.5385 98.0111C59.908 97.4456 60.5076 97.1213 61.1825 97.1213H71.5932L71.5894 107.883ZM81.6344 18.1719H123.108C126.69 18.1719 129.717 20.5738 130.671 23.8542H74.0743C75.0245 20.5738 78.0523 18.1719 81.6344 18.1719ZM58.5204 50.916L60.7187 45.1696C61.2164 43.8687 62.4871 42.9939 63.8823 42.9939H71.5894V52.5072H59.6177C59.2255 52.5072 58.8749 52.3225 58.6524 51.9982C58.4262 51.6739 58.3809 51.278 58.5204 50.916ZM58.8409 54.6791H59.6139H71.5857V60.3878H45.7606C49.1127 56.7793 53.8599 54.6791 58.8409 54.6791ZM43.5963 130.182C43.5963 131.008 42.9251 131.679 42.0993 131.679H31.9149C31.0891 131.679 30.4179 131.008 30.4179 130.182V121.943H43.5963V130.182ZM60.5189 116.008C59.2934 116.008 58.1094 116.453 57.1894 117.26L55.1306 119.059C54.6028 119.519 53.9278 119.771 53.2302 119.771H44.6822H29.332C27.0809 119.771 25.2522 117.943 25.2522 115.692V110.058H54.0598C54.6593 110.058 55.1457 109.572 55.1457 108.972C55.1457 108.373 54.6593 107.886 54.0598 107.886H25.2522V95.8355C25.2522 91.1637 26.6926 86.688 29.4187 82.8947L31.5491 79.931C35.7836 83.4829 41.1492 85.4286 46.658 85.4286C47.3292 85.4286 48.0042 85.3984 48.6791 85.3418L54.0409 84.878C59.8515 84.3728 65.7487 84.1051 71.5857 84.0749V94.9532H61.175C59.7723 94.9532 58.4752 95.6545 57.7097 96.8309C56.9443 98.0074 56.8274 99.4741 57.393 100.76L60.4171 107.6C61.0769 109.097 62.5625 110.062 64.199 110.062H71.5857V116.012L60.5189 116.008ZM137.832 119.877C137.832 126.385 132.538 131.679 126.03 131.679H120.208C113.7 131.679 108.406 126.385 108.406 119.877V84.3464C108.406 84.2069 108.417 84.0674 108.436 83.9316C108.451 83.8788 108.459 83.826 108.462 83.7695C108.73 82.4649 109.884 81.4845 111.268 81.4845C111.992 81.4845 112.652 81.756 113.157 82.1971C113.183 82.2273 113.213 82.2537 113.244 82.2763C113.79 82.7967 114.13 83.5319 114.13 84.3464V99.6929V106.11C114.13 106.71 114.616 107.196 115.216 107.196C115.815 107.196 116.302 106.71 116.302 106.11V99.6929C116.302 98.113 117.587 96.8309 119.163 96.8309C120.743 96.8309 122.025 98.1167 122.025 99.6929V106.11C122.025 106.71 122.512 107.196 123.111 107.196C123.711 107.196 124.197 106.71 124.197 106.11V99.6929C124.197 98.113 125.483 96.8309 127.059 96.8309C128.635 96.8309 129.921 98.1167 129.921 99.6929V102.272V106.11C129.921 106.71 130.407 107.196 131.007 107.196C131.607 107.196 132.093 106.71 132.093 106.11V102.272C132.093 100.692 133.379 99.4101 134.955 99.4101C135.72 99.4101 136.437 99.7079 136.98 100.247C137.523 100.786 137.817 101.507 137.817 102.272L137.832 119.877Z"/>
</mask>
<path d="M138.529 98.7087C137.579 97.7585 136.312 97.2344 134.97 97.2344C133.816 97.2344 132.753 97.6228 131.904 98.2789C131.29 96.1899 129.355 94.6591 127.07 94.6591C125.472 94.6591 124.043 95.4094 123.123 96.5745C122.199 95.4094 120.773 94.6591 119.175 94.6591C118.111 94.6591 117.127 94.9909 116.313 95.5527V84.3464C116.313 83.3924 116.045 82.4988 115.585 81.7371C118.413 79.9611 120.804 77.5442 122.542 74.6747C124.563 71.3415 125.63 67.5105 125.63 63.5929C125.63 61.8885 125.43 60.1955 125.034 58.5553C124.895 57.9709 124.307 57.6126 123.722 57.7522C123.138 57.8917 122.779 58.4799 122.919 59.0643C123.273 60.5387 123.454 62.062 123.454 63.5929C123.454 70.3988 119.865 76.6694 114.039 80.1308C113.247 79.6105 112.297 79.3051 111.279 79.3051C109.085 79.3051 107.211 80.719 106.524 82.6835C105.766 82.774 104.997 82.8193 104.232 82.8193C93.6287 82.8193 85.0053 74.1959 85.0053 63.5929C85.0053 52.9899 93.6287 44.3664 104.232 44.3664C106.732 44.3664 109.167 44.8378 111.464 45.7729C112.018 45.9991 112.655 45.7314 112.882 45.1733C113.108 44.6191 112.84 43.9818 112.282 43.7556C109.726 42.7187 107.018 42.1908 104.232 42.1908C101.343 42.1908 98.5419 42.7564 95.9024 43.8725C93.3535 44.9509 91.0647 46.4931 89.1002 48.4576C87.1357 50.4221 85.5935 52.7108 84.5151 55.2598C83.399 57.8992 82.8334 60.7008 82.8334 63.5891C82.8334 66.4774 83.399 69.279 84.5151 71.9184C85.5935 74.4673 87.1357 76.7561 89.1002 78.7206C91.0647 80.6851 93.3535 82.2273 95.9024 83.3057C98.5419 84.4218 101.343 84.9874 104.232 84.9874C104.903 84.9874 105.578 84.9572 106.245 84.8931V119.866C106.245 120.831 106.343 121.777 106.532 122.705H73.7689V26.045C73.7689 26.0374 73.7689 26.0336 73.7689 26.0261H130.984C130.984 26.0336 130.984 26.0374 130.984 26.045V92.4231C130.984 93.0226 131.471 93.509 132.07 93.509C132.67 93.509 133.156 93.0226 133.156 92.4231V26.045C133.156 23.3603 132.112 20.8377 130.215 18.9411C128.319 17.0445 125.796 16 123.111 16H81.6344C78.9497 16 76.4271 17.0445 74.5305 18.9411C72.6339 20.8377 71.5894 23.3603 71.5894 26.045V40.8183H63.8823C62.7511 40.8183 61.6614 41.1576 60.73 41.7986C59.7987 42.4396 59.0936 43.337 58.6901 44.3928L56.4918 50.1393C56.1789 50.9575 56.2015 51.8511 56.5371 52.643C54.1616 52.922 51.8389 53.6233 49.7085 54.713C46.9031 56.1534 44.4447 58.265 42.6008 60.8252C42.6008 60.8252 42.6008 60.829 42.5971 60.829C42.5933 60.8328 42.5895 60.8365 42.5858 60.8441L28.1933 80.8736H26.1119V75.0254C26.1119 72.5066 24.0644 70.4592 21.5457 70.4592H16.2932C12.8242 70.4592 10 73.2834 10 76.7523C10 80.2213 12.8242 83.0455 16.2932 83.0455H26.7076C25.6783 84.7121 24.8563 86.4957 24.253 88.3697C23.4762 90.7829 23.0803 93.2941 23.0803 95.8317V115.692C23.0803 118.768 25.3163 121.332 28.2461 121.849V130.182C28.2461 132.207 29.8938 133.851 31.9149 133.851H42.0993C44.1242 133.851 45.7682 132.203 45.7682 130.182V121.943H53.2265C54.4519 121.943 55.6359 121.498 56.5559 120.691L58.6147 118.893C59.1426 118.433 59.8175 118.18 60.5151 118.18H71.5857V123.802C71.5857 126.487 72.6301 129.009 74.5267 130.906C76.4234 132.803 78.9459 133.847 81.6306 133.847H106.275C106.875 133.847 107.361 133.361 107.361 132.761C107.361 132.162 106.875 131.675 106.275 131.675H81.6306C77.6564 131.675 74.3646 128.719 73.833 124.888H107.158C107.214 125.031 107.271 125.171 107.327 125.314C108.033 126.977 109.039 128.474 110.321 129.756C111.603 131.038 113.1 132.045 114.763 132.75C116.486 133.478 118.315 133.847 120.204 133.847H126.026C127.911 133.847 129.744 133.478 131.467 132.75C133.13 132.045 134.627 131.038 135.909 129.756C137.191 128.474 138.198 126.977 138.903 125.314C139.63 123.591 140 121.762 140 119.873V102.268C140.007 100.926 139.483 99.6627 138.529 98.7087ZM23.94 80.8736H16.2932C14.0195 80.8736 12.1719 79.026 12.1719 76.7523C12.1719 74.4787 14.0195 72.6311 16.2932 72.6311H21.5457C22.8654 72.6311 23.94 73.7057 23.94 75.0254V80.8736ZM44.0261 62.5635H71.5857V81.8993C65.6846 81.9294 59.7233 82.2009 53.8524 82.7099L48.4906 83.1737C42.8045 83.6677 37.1447 81.8465 32.8198 78.1588L44.0261 62.5635ZM71.5894 107.883H64.2028C63.426 107.883 62.7247 107.423 62.4117 106.714L59.3877 99.8738C59.1162 99.2555 59.169 98.5767 59.5385 98.0111C59.908 97.4456 60.5076 97.1213 61.1825 97.1213H71.5932L71.5894 107.883ZM81.6344 18.1719H123.108C126.69 18.1719 129.717 20.5738 130.671 23.8542H74.0743C75.0245 20.5738 78.0523 18.1719 81.6344 18.1719ZM58.5204 50.916L60.7187 45.1696C61.2164 43.8687 62.4871 42.9939 63.8823 42.9939H71.5894V52.5072H59.6177C59.2255 52.5072 58.8749 52.3225 58.6524 51.9982C58.4262 51.6739 58.3809 51.278 58.5204 50.916ZM58.8409 54.6791H59.6139H71.5857V60.3878H45.7606C49.1127 56.7793 53.8599 54.6791 58.8409 54.6791ZM43.5963 130.182C43.5963 131.008 42.9251 131.679 42.0993 131.679H31.9149C31.0891 131.679 30.4179 131.008 30.4179 130.182V121.943H43.5963V130.182ZM60.5189 116.008C59.2934 116.008 58.1094 116.453 57.1894 117.26L55.1306 119.059C54.6028 119.519 53.9278 119.771 53.2302 119.771H44.6822H29.332C27.0809 119.771 25.2522 117.943 25.2522 115.692V110.058H54.0598C54.6593 110.058 55.1457 109.572 55.1457 108.972C55.1457 108.373 54.6593 107.886 54.0598 107.886H25.2522V95.8355C25.2522 91.1637 26.6926 86.688 29.4187 82.8947L31.5491 79.931C35.7836 83.4829 41.1492 85.4286 46.658 85.4286C47.3292 85.4286 48.0042 85.3984 48.6791 85.3418L54.0409 84.878C59.8515 84.3728 65.7487 84.1051 71.5857 84.0749V94.9532H61.175C59.7723 94.9532 58.4752 95.6545 57.7097 96.8309C56.9443 98.0074 56.8274 99.4741 57.393 100.76L60.4171 107.6C61.0769 109.097 62.5625 110.062 64.199 110.062H71.5857V116.012L60.5189 116.008ZM137.832 119.877C137.832 126.385 132.538 131.679 126.03 131.679H120.208C113.7 131.679 108.406 126.385 108.406 119.877V84.3464C108.406 84.2069 108.417 84.0674 108.436 83.9316C108.451 83.8788 108.459 83.826 108.462 83.7695C108.73 82.4649 109.884 81.4845 111.268 81.4845C111.992 81.4845 112.652 81.756 113.157 82.1971C113.183 82.2273 113.213 82.2537 113.244 82.2763C113.79 82.7967 114.13 83.5319 114.13 84.3464V99.6929V106.11C114.13 106.71 114.616 107.196 115.216 107.196C115.815 107.196 116.302 106.71 116.302 106.11V99.6929C116.302 98.113 117.587 96.8309 119.163 96.8309C120.743 96.8309 122.025 98.1167 122.025 99.6929V106.11C122.025 106.71 122.512 107.196 123.111 107.196C123.711 107.196 124.197 106.71 124.197 106.11V99.6929C124.197 98.113 125.483 96.8309 127.059 96.8309C128.635 96.8309 129.921 98.1167 129.921 99.6929V102.272V106.11C129.921 106.71 130.407 107.196 131.007 107.196C131.607 107.196 132.093 106.71 132.093 106.11V102.272C132.093 100.692 133.379 99.4101 134.955 99.4101C135.72 99.4101 136.437 99.7079 136.98 100.247C137.523 100.786 137.817 101.507 137.817 102.272L137.832 119.877Z" fill="#663366"/>
<path d="M138.529 98.7087C137.579 97.7585 136.312 97.2344 134.97 97.2344C133.816 97.2344 132.753 97.6228 131.904 98.2789C131.29 96.1899 129.355 94.6591 127.07 94.6591C125.472 94.6591 124.043 95.4094 123.123 96.5745C122.199 95.4094 120.773 94.6591 119.175 94.6591C118.111 94.6591 117.127 94.9909 116.313 95.5527V84.3464C116.313 83.3924 116.045 82.4988 115.585 81.7371C118.413 79.9611 120.804 77.5442 122.542 74.6747C124.563 71.3415 125.63 67.5105 125.63 63.5929C125.63 61.8885 125.43 60.1955 125.034 58.5553C124.895 57.9709 124.307 57.6126 123.722 57.7522C123.138 57.8917 122.779 58.4799 122.919 59.0643C123.273 60.5387 123.454 62.062 123.454 63.5929C123.454 70.3988 119.865 76.6694 114.039 80.1308C113.247 79.6105 112.297 79.3051 111.279 79.3051C109.085 79.3051 107.211 80.719 106.524 82.6835C105.766 82.774 104.997 82.8193 104.232 82.8193C93.6287 82.8193 85.0053 74.1959 85.0053 63.5929C85.0053 52.9899 93.6287 44.3664 104.232 44.3664C106.732 44.3664 109.167 44.8378 111.464 45.7729C112.018 45.9991 112.655 45.7314 112.882 45.1733C113.108 44.6191 112.84 43.9818 112.282 43.7556C109.726 42.7187 107.018 42.1908 104.232 42.1908C101.343 42.1908 98.5419 42.7564 95.9024 43.8725C93.3535 44.9509 91.0647 46.4931 89.1002 48.4576C87.1357 50.4221 85.5935 52.7108 84.5151 55.2598C83.399 57.8992 82.8334 60.7008 82.8334 63.5891C82.8334 66.4774 83.399 69.279 84.5151 71.9184C85.5935 74.4673 87.1357 76.7561 89.1002 78.7206C91.0647 80.6851 93.3535 82.2273 95.9024 83.3057C98.5419 84.4218 101.343 84.9874 104.232 84.9874C104.903 84.9874 105.578 84.9572 106.245 84.8931V119.866C106.245 120.831 106.343 121.777 106.532 122.705H73.7689V26.045C73.7689 26.0374 73.7689 26.0336 73.7689 26.0261H130.984C130.984 26.0336 130.984 26.0374 130.984 26.045V92.4231C130.984 93.0226 131.471 93.509 132.07 93.509C132.67 93.509 133.156 93.0226 133.156 92.4231V26.045C133.156 23.3603 132.112 20.8377 130.215 18.9411C128.319 17.0445 125.796 16 123.111 16H81.6344C78.9497 16 76.4271 17.0445 74.5305 18.9411C72.6339 20.8377 71.5894 23.3603 71.5894 26.045V40.8183H63.8823C62.7511 40.8183 61.6614 41.1576 60.73 41.7986C59.7987 42.4396 59.0936 43.337 58.6901 44.3928L56.4918 50.1393C56.1789 50.9575 56.2015 51.8511 56.5371 52.643C54.1616 52.922 51.8389 53.6233 49.7085 54.713C46.9031 56.1534 44.4447 58.265 42.6008 60.8252C42.6008 60.8252 42.6008 60.829 42.5971 60.829C42.5933 60.8328 42.5895 60.8365 42.5858 60.8441L28.1933 80.8736H26.1119V75.0254C26.1119 72.5066 24.0644 70.4592 21.5457 70.4592H16.2932C12.8242 70.4592 10 73.2834 10 76.7523C10 80.2213 12.8242 83.0455 16.2932 83.0455H26.7076C25.6783 84.7121 24.8563 86.4957 24.253 88.3697C23.4762 90.7829 23.0803 93.2941 23.0803 95.8317V115.692C23.0803 118.768 25.3163 121.332 28.2461 121.849V130.182C28.2461 132.207 29.8938 133.851 31.9149 133.851H42.0993C44.1242 133.851 45.7682 132.203 45.7682 130.182V121.943H53.2265C54.4519 121.943 55.6359 121.498 56.5559 120.691L58.6147 118.893C59.1426 118.433 59.8175 118.18 60.5151 118.18H71.5857V123.802C71.5857 126.487 72.6301 129.009 74.5267 130.906C76.4234 132.803 78.9459 133.847 81.6306 133.847H106.275C106.875 133.847 107.361 133.361 107.361 132.761C107.361 132.162 106.875 131.675 106.275 131.675H81.6306C77.6564 131.675 74.3646 128.719 73.833 124.888H107.158C107.214 125.031 107.271 125.171 107.327 125.314C108.033 126.977 109.039 128.474 110.321 129.756C111.603 131.038 113.1 132.045 114.763 132.75C116.486 133.478 118.315 133.847 120.204 133.847H126.026C127.911 133.847 129.744 133.478 131.467 132.75C133.13 132.045 134.627 131.038 135.909 129.756C137.191 128.474 138.198 126.977 138.903 125.314C139.63 123.591 140 121.762 140 119.873V102.268C140.007 100.926 139.483 99.6627 138.529 98.7087ZM23.94 80.8736H16.2932C14.0195 80.8736 12.1719 79.026 12.1719 76.7523C12.1719 74.4787 14.0195 72.6311 16.2932 72.6311H21.5457C22.8654 72.6311 23.94 73.7057 23.94 75.0254V80.8736ZM44.0261 62.5635H71.5857V81.8993C65.6846 81.9294 59.7233 82.2009 53.8524 82.7099L48.4906 83.1737C42.8045 83.6677 37.1447 81.8465 32.8198 78.1588L44.0261 62.5635ZM71.5894 107.883H64.2028C63.426 107.883 62.7247 107.423 62.4117 106.714L59.3877 99.8738C59.1162 99.2555 59.169 98.5767 59.5385 98.0111C59.908 97.4456 60.5076 97.1213 61.1825 97.1213H71.5932L71.5894 107.883ZM81.6344 18.1719H123.108C126.69 18.1719 129.717 20.5738 130.671 23.8542H74.0743C75.0245 20.5738 78.0523 18.1719 81.6344 18.1719ZM58.5204 50.916L60.7187 45.1696C61.2164 43.8687 62.4871 42.9939 63.8823 42.9939H71.5894V52.5072H59.6177C59.2255 52.5072 58.8749 52.3225 58.6524 51.9982C58.4262 51.6739 58.3809 51.278 58.5204 50.916ZM58.8409 54.6791H59.6139H71.5857V60.3878H45.7606C49.1127 56.7793 53.8599 54.6791 58.8409 54.6791ZM43.5963 130.182C43.5963 131.008 42.9251 131.679 42.0993 131.679H31.9149C31.0891 131.679 30.4179 131.008 30.4179 130.182V121.943H43.5963V130.182ZM60.5189 116.008C59.2934 116.008 58.1094 116.453 57.1894 117.26L55.1306 119.059C54.6028 119.519 53.9278 119.771 53.2302 119.771H44.6822H29.332C27.0809 119.771 25.2522 117.943 25.2522 115.692V110.058H54.0598C54.6593 110.058 55.1457 109.572 55.1457 108.972C55.1457 108.373 54.6593 107.886 54.0598 107.886H25.2522V95.8355C25.2522 91.1637 26.6926 86.688 29.4187 82.8947L31.5491 79.931C35.7836 83.4829 41.1492 85.4286 46.658 85.4286C47.3292 85.4286 48.0042 85.3984 48.6791 85.3418L54.0409 84.878C59.8515 84.3728 65.7487 84.1051 71.5857 84.0749V94.9532H61.175C59.7723 94.9532 58.4752 95.6545 57.7097 96.8309C56.9443 98.0074 56.8274 99.4741 57.393 100.76L60.4171 107.6C61.0769 109.097 62.5625 110.062 64.199 110.062H71.5857V116.012L60.5189 116.008ZM137.832 119.877C137.832 126.385 132.538 131.679 126.03 131.679H120.208C113.7 131.679 108.406 126.385 108.406 119.877V84.3464C108.406 84.2069 108.417 84.0674 108.436 83.9316C108.451 83.8788 108.459 83.826 108.462 83.7695C108.73 82.4649 109.884 81.4845 111.268 81.4845C111.992 81.4845 112.652 81.756 113.157 82.1971C113.183 82.2273 113.213 82.2537 113.244 82.2763C113.79 82.7967 114.13 83.5319 114.13 84.3464V99.6929V106.11C114.13 106.71 114.616 107.196 115.216 107.196C115.815 107.196 116.302 106.71 116.302 106.11V99.6929C116.302 98.113 117.587 96.8309 119.163 96.8309C120.743 96.8309 122.025 98.1167 122.025 99.6929V106.11C122.025 106.71 122.512 107.196 123.111 107.196C123.711 107.196 124.197 106.71 124.197 106.11V99.6929C124.197 98.113 125.483 96.8309 127.059 96.8309C128.635 96.8309 129.921 98.1167 129.921 99.6929V102.272V106.11C129.921 106.71 130.407 107.196 131.007 107.196C131.607 107.196 132.093 106.71 132.093 106.11V102.272C132.093 100.692 133.379 99.4101 134.955 99.4101C135.72 99.4101 136.437 99.7079 136.98 100.247C137.523 100.786 137.817 101.507 137.817 102.272L137.832 119.877Z" stroke="#663366" stroke-width="0.5" mask="url(#path-3-outside-1_142_2161)"/>
</svg>
