<svg width="150" height="150" viewBox="0 0 150 150" fill="none" xmlns="http://www.w3.org/2000/svg">
<path d="M84.8486 130.117C86.0054 130.117 86.9433 131.055 86.9434 132.212C86.9434 133.369 86.0054 134.307 84.8486 134.307H65.1514C63.9946 134.307 63.0566 133.369 63.0566 132.212C63.0567 131.055 63.9946 130.117 65.1514 130.117H84.8486ZM94.6973 41.4814C102.381 41.4816 108.609 47.71 108.609 55.3936V104.637C108.609 111.218 104.039 116.729 97.8994 118.176L104.449 131.275L104.535 131.472C104.887 132.398 104.536 133.45 103.699 133.98L103.513 134.086C102.543 134.571 101.376 134.233 100.808 133.336L100.702 133.148L93.4023 118.549H56.5977L49.2979 133.148C48.8128 134.119 47.6764 134.548 46.6836 134.172L46.4873 134.086C45.4526 133.569 45.0334 132.31 45.5508 131.275L52.0996 118.176C45.9604 116.729 41.3908 111.218 41.3906 104.637V55.3936C41.3908 47.71 47.6191 41.4816 55.3027 41.4814H94.6973ZM75 15.875C110.968 15.875 140.125 45.0325 140.125 81C140.125 96.8324 134.452 111.789 124.328 123.521L123.843 124.078C123.125 124.891 121.917 125.014 121.055 124.396L120.887 124.263C120.019 123.497 119.937 122.173 120.702 121.306L121.156 120.785C130.63 109.806 135.936 95.8177 135.936 81C135.936 47.3462 108.654 20.0645 75 20.0645C41.3462 20.0645 14.0645 47.3462 14.0645 81C14.0645 96.0528 19.5399 110.25 29.2979 121.306L29.4316 121.474C30.0087 122.279 29.9394 123.385 29.2666 124.112L29.1133 124.263C28.3002 124.98 27.0859 124.952 26.3066 124.231L26.1572 124.078C15.73 112.264 9.875 97.0836 9.875 81C9.875 45.0325 39.0325 15.875 75 15.875ZM45.5791 104.637C45.5793 110.007 49.9329 114.359 55.3027 114.359H94.6973C100.067 114.359 104.421 110.007 104.421 104.637V87.0342H45.5791V104.637ZM61.2119 92.6934C65.6323 92.6934 69.2158 96.2769 69.2158 100.697C69.2157 105.117 65.6322 108.701 61.2119 108.701C56.7917 108.701 53.2082 105.117 53.208 100.697C53.208 96.277 56.7916 92.6935 61.2119 92.6934ZM88.7881 92.6934C93.2084 92.6935 96.792 96.277 96.792 100.697C96.7918 105.117 93.2083 108.701 88.7881 108.701C84.3678 108.701 80.7843 105.117 80.7842 100.697C80.7842 96.2769 84.3677 92.6934 88.7881 92.6934ZM61.2119 96.8828C59.1054 96.8829 57.3975 98.5907 57.3975 100.697C57.3976 102.804 59.1055 104.512 61.2119 104.512C63.3184 104.512 65.0262 102.804 65.0264 100.697C65.0264 98.5906 63.3185 96.8828 61.2119 96.8828ZM88.7881 96.8828C86.6815 96.8828 84.9736 98.5906 84.9736 100.697C84.9738 102.804 86.6816 104.512 88.7881 104.512C90.8945 104.512 92.6024 102.804 92.6025 100.697C92.6025 98.5907 90.8946 96.8829 88.7881 96.8828ZM55.3027 45.6709C49.9329 45.6711 45.5793 50.0237 45.5791 55.3936V82.8447H104.421V55.3936C104.421 50.0237 100.067 45.6711 94.6973 45.6709H55.3027Z" fill="#663366" stroke="#663366" stroke-width="0.25"/>
</svg>
