<svg width="150" height="150" viewBox="0 0 150 150" fill="none" xmlns="http://www.w3.org/2000/svg">
<path d="M137.759 79.4831H133.277V27.931C133.277 27.3371 133.041 26.7655 132.621 26.3452C132.201 25.9249 131.629 25.6896 131.035 25.6896H97.414V12.2414C97.414 11.6475 97.1787 11.0759 96.7584 10.6556C96.3382 10.2353 95.7666 10 95.1726 10H54.828C53.5897 10 52.5867 11.003 52.5867 12.2414V25.6896H18.9655C17.7271 25.6896 16.7241 26.6926 16.7241 27.9309V79.4831H12.2414C11.003 79.4831 10 80.4861 10 81.7244V90.6899C10 91.2838 10.2353 91.8554 10.6556 92.2757C11.0759 92.696 11.6474 92.9313 12.2414 92.9313H14.4828V137.759C14.4828 138.353 14.7181 138.924 15.1384 139.344C15.5586 139.765 16.1302 140 16.7242 140H133.275C133.869 140 134.441 139.765 134.861 139.344C135.281 138.924 135.517 138.353 135.517 137.759V92.9313H137.758C138.352 92.9313 138.923 92.6959 139.344 92.2757C139.764 91.8554 139.999 91.2839 139.999 90.6899V81.7244C139.999 81.1305 139.764 80.5589 139.344 80.1386C138.924 79.7183 138.353 79.4831 137.759 79.4831ZM57.0702 14.4843H92.932V41.3806H57.0702V14.4843ZM21.2083 30.1745H52.5875V43.6227C52.5875 44.2167 52.8228 44.7882 53.2431 45.2085C53.6633 45.6288 54.2349 45.8641 54.8289 45.8641H95.1735C95.7674 45.8641 96.339 45.6288 96.7593 45.2085C97.1796 44.7883 97.4149 44.2167 97.4149 43.6227V30.1745H128.794V79.4846H21.2084L21.2083 30.1745ZM43.622 110.864H72.759V135.519H43.622V110.864ZM77.2432 135.519V110.864H106.38V135.519H77.2432ZM131.036 135.519H110.864V110.864H114.227C115.465 110.864 116.468 109.861 116.468 108.622C116.468 107.384 115.465 106.381 114.227 106.381H35.778C34.5397 106.381 33.5366 107.384 33.5366 108.622C33.5366 109.861 34.5397 110.864 35.778 110.864H39.1401V135.519H18.9686V92.9328H131.037L131.036 135.519ZM135.519 88.4515H14.485V83.9687H135.519V88.4515Z" fill="#663366"/>
<path d="M71.6391 38.0182H78.3632V31.2941H85.0873V24.57H78.3632V17.8459H71.6391V24.57H64.915V31.2941H71.6391V38.0182Z" fill="#663366"/>
<path d="M33.5353 104.137H116.465C117.703 104.137 118.706 103.134 118.706 101.896C118.706 100.658 117.703 99.6547 116.465 99.6547H33.5353C32.297 99.6547 31.2939 100.658 31.2939 101.896C31.2939 103.134 32.297 104.137 33.5353 104.137Z" fill="#663366"/>
<path d="M36.8989 64.9146H32.4162C31.1778 64.9146 30.1748 65.9176 30.1748 67.1559V71.6387C30.1748 72.877 31.1778 73.88 32.4162 73.88C33.6545 73.88 34.6575 72.877 34.6575 71.6387V69.3973H36.8989C38.1373 69.3973 39.1403 68.3943 39.1403 67.1559C39.1403 65.9176 38.1373 64.9146 36.8989 64.9146Z" fill="#663366"/>
<path d="M36.8989 49.2243H32.4162C31.1778 49.2243 30.1748 50.2273 30.1748 51.4657V55.9484C30.1748 57.1868 31.1778 58.1898 32.4162 58.1898C33.6545 58.1898 34.6575 57.1868 34.6575 55.9484V53.7071H36.8989C38.1373 53.7071 39.1403 52.7041 39.1403 51.4657C39.1403 50.2273 38.1373 49.2243 36.8989 49.2243Z" fill="#663366"/>
<path d="M59.31 64.9146H54.8273C53.589 64.9146 52.5859 65.9176 52.5859 67.1559V71.6387C52.5859 72.877 53.589 73.88 54.8273 73.88C56.0657 73.88 57.0687 72.877 57.0687 71.6387V69.3973H59.31C60.5484 69.3973 61.5514 68.3943 61.5514 67.1559C61.5514 65.9176 60.5484 64.9146 59.31 64.9146Z" fill="#663366"/>
<path d="M59.31 49.2243H54.8273C53.589 49.2243 52.5859 50.2273 52.5859 51.4657V55.9484C52.5859 57.1868 53.589 58.1898 54.8273 58.1898C56.0657 58.1898 57.0687 57.1868 57.0687 55.9484V53.7071H59.31C60.5484 53.7071 61.5514 52.7041 61.5514 51.4657C61.5514 50.2273 60.5484 49.2243 59.31 49.2243Z" fill="#663366"/>
<path d="M79.4839 64.9146H75.0011C73.7628 64.9146 72.7598 65.9176 72.7598 67.1559V71.6387C72.7598 72.877 73.7628 73.88 75.0011 73.88C76.2395 73.88 77.2425 72.877 77.2425 71.6387V69.3973H79.4839C80.7222 69.3973 81.7252 68.3943 81.7252 67.1559C81.7252 65.9176 80.7222 64.9146 79.4839 64.9146Z" fill="#663366"/>
<path d="M79.4839 49.2243H75.0011C73.7628 49.2243 72.7598 50.2273 72.7598 51.4657V55.9484C72.7598 57.1868 73.7628 58.1898 75.0011 58.1898C76.2395 58.1898 77.2425 57.1868 77.2425 55.9484V53.7071H79.4839C80.7222 53.7071 81.7252 52.7041 81.7252 51.4657C81.7252 50.2273 80.7222 49.2243 79.4839 49.2243Z" fill="#663366"/>
<path d="M99.6577 64.9146H95.175C93.9366 64.9146 92.9336 65.9176 92.9336 67.1559V71.6387C92.9336 72.877 93.9366 73.88 95.175 73.88C96.4133 73.88 97.4163 72.877 97.4163 71.6387V69.3973H99.6577C100.896 69.3973 101.899 68.3943 101.899 67.1559C101.899 65.9176 100.896 64.9146 99.6577 64.9146Z" fill="#663366"/>
<path d="M99.6577 49.2243H95.175C93.9366 49.2243 92.9336 50.2273 92.9336 51.4657V55.9484C92.9336 57.1868 93.9366 58.1898 95.175 58.1898C96.4133 58.1898 97.4163 57.1868 97.4163 55.9484V53.7071H99.6577C100.896 53.7071 101.899 52.7041 101.899 51.4657C101.899 50.2273 100.896 49.2243 99.6577 49.2243Z" fill="#663366"/>
<path d="M122.068 64.9146H117.585C116.347 64.9146 115.344 65.9176 115.344 67.1559V71.6387C115.344 72.877 116.347 73.88 117.585 73.88C118.823 73.88 119.826 72.877 119.826 71.6387V69.3973H122.068C123.306 69.3973 124.309 68.3943 124.309 67.1559C124.309 65.9176 123.306 64.9146 122.068 64.9146Z" fill="#663366"/>
<path d="M122.068 49.2243H117.585C116.347 49.2243 115.344 50.2273 115.344 51.4657V55.9484C115.344 57.1868 116.347 58.1898 117.585 58.1898C118.823 58.1898 119.826 57.1868 119.826 55.9484V53.7071H122.068C123.306 53.7071 124.309 52.7041 124.309 51.4657C124.309 50.2273 123.306 49.2243 122.068 49.2243Z" fill="#663366"/>
</svg>
