<svg width="150" height="150" viewBox="0 0 150 150" fill="none" xmlns="http://www.w3.org/2000/svg">
<path fill-rule="evenodd" clip-rule="evenodd" d="M14.4502 107.312H20.1271V72.3286L10.2414 53.4826C9.6997 52.448 10.1005 51.1695 11.1352 50.6279C11.4493 50.4654 11.7852 50.3841 12.1156 50.3895V50.3841H23.5614L20.2301 35.4335C20.1651 35.2277 20.1272 35.011 20.1272 34.7889C20.1272 33.6134 21.0751 32.6655 22.2505 32.6655H30.3758V26.4305C30.3758 25.255 31.3237 24.3071 32.4991 24.3071C33.6746 24.3071 34.6224 25.2551 34.6224 26.4305V32.6655H42.7477C43.9232 32.6655 44.8711 33.6135 44.8711 34.7889C44.8711 35.0164 44.8331 35.2331 44.7681 35.4335L41.4314 50.3841H52.8772C54.0527 50.3841 55.0005 51.3321 55.0005 52.5075C55.0005 52.93 54.8759 53.3255 54.6593 53.6613L44.8656 72.3284V107.312H56.046V106.554H48.8036C47.6282 106.554 46.6803 105.606 46.6803 104.43C46.6803 104.084 46.7615 103.753 46.9132 103.466L54.0039 85.6712C54.3343 84.8424 55.1252 84.3386 55.9702 84.3386V84.3278H129.39V84.3386C130.229 84.3386 131.026 84.8424 131.356 85.6712L138.447 103.466C138.593 103.753 138.68 104.084 138.68 104.43C138.68 105.6 137.732 106.554 136.556 106.554H129.314V125.877C129.314 127.052 128.366 128 127.191 128H14.4496C13.2741 128 12.3263 127.052 12.3263 125.877V109.437C12.3263 108.261 13.2802 107.312 14.4502 107.312ZM78.6674 48.776H80.0107C80.6228 51.2679 81.9066 53.4942 83.6617 55.2494C86.1588 57.7466 89.6094 59.2905 93.4229 59.2905C97.2309 59.2905 100.687 57.7466 103.184 55.2494C104.939 53.4943 106.223 51.2679 106.835 48.776H108.178V48.9439C108.178 50.8832 108.969 52.6438 110.248 53.9167C111.521 55.1897 113.286 55.986 115.22 55.986C117.159 55.986 118.92 55.1951 120.193 53.9167C121.466 52.6437 122.262 50.8778 122.262 48.9439V48.776H134.428C135.116 48.776 135.799 48.4402 136.199 47.8172L139.655 42.5356C140.295 41.5551 140.018 40.2443 139.043 39.5996C138.063 38.9604 136.752 39.2312 136.107 40.2117L133.28 44.5291H107.193C107.085 42.9311 106.7 41.4035 106.093 40.0005H112.095C113.271 40.0005 114.218 39.0525 114.218 37.8771C114.218 36.707 113.271 35.7537 112.095 35.7537H103.212L103.185 35.7266C101.159 33.7007 98.5098 32.303 95.5468 31.848V24.1234C95.5468 22.9479 94.5989 22 93.4235 22C92.2481 22 91.3001 22.948 91.3001 24.1234V31.848C88.3371 32.3031 85.6883 33.706 83.6624 35.7266L83.6353 35.7537H74.7518C73.5763 35.7537 72.6284 36.7017 72.6284 37.8771C72.6284 39.0526 73.5764 40.0005 74.7518 40.0005H80.7536C80.1415 41.4035 79.7623 42.9311 79.654 44.5291H53.5672L50.7395 40.2117C50.1004 39.2312 48.784 38.955 47.8036 39.5996C46.8232 40.2388 46.5523 41.5552 47.1915 42.5356L50.5932 47.7305C50.9616 48.3535 51.6441 48.776 52.4241 48.776H64.5903V48.9439C64.5903 50.8832 65.3811 52.6438 66.6595 53.9167C67.9325 55.1897 69.6984 55.986 71.6321 55.986C73.5713 55.986 75.3319 55.1951 76.6047 53.9167C77.8777 52.6437 78.674 50.8778 78.674 48.9439L78.6674 48.776ZM68.8303 48.776V48.9439C68.8303 49.7132 69.1445 50.4065 69.6537 50.9158C70.1629 51.425 70.8616 51.7391 71.6254 51.7391C72.3946 51.7391 73.088 51.425 73.5972 50.9158C74.1064 50.4066 74.4206 49.7078 74.4206 48.9439V48.776H68.8303ZM112.42 48.776V48.9439C112.42 49.7132 112.734 50.4065 113.244 50.9158C113.753 51.425 114.451 51.7391 115.215 51.7391C115.984 51.7391 116.678 51.425 117.187 50.9158C117.696 50.4066 118.01 49.7078 118.01 48.9439V48.776H112.42ZM86.3764 44.6482C88.5973 45.5528 90.8886 45.9916 93.2286 45.9808C95.5471 45.9754 97.898 45.5312 100.271 44.6699C101.37 44.269 101.939 43.0556 101.538 41.956C101.137 40.8564 99.9238 40.2876 98.8242 40.6884C96.9013 41.3872 95.0324 41.7447 93.2232 41.7502C91.441 41.7556 89.686 41.4143 87.9634 40.7155C86.88 40.2767 85.6395 40.7968 85.2008 41.8856C84.7674 42.9744 85.293 44.2094 86.3764 44.6482ZM93.4236 55.0488C96.0616 55.0488 98.4559 53.9763 100.184 52.2483C101.912 50.5203 102.984 48.1259 102.984 45.4879C102.984 43.1153 102.118 40.9431 100.688 39.2745L100.671 39.2583C100.514 39.0795 100.352 38.9008 100.184 38.7328C98.4559 37.0048 96.0616 35.9323 93.4236 35.9323C90.7857 35.9323 88.3968 37.0049 86.6688 38.7328C86.4955 38.9062 86.333 39.0849 86.1759 39.2637L86.1705 39.2691C84.735 40.9429 83.8683 43.1151 83.8683 45.4879C83.8683 48.1259 84.9408 50.5203 86.6687 52.2483C88.3913 53.9763 90.7801 55.0488 93.4236 55.0488ZM117.881 123.758V115.254C117.881 114.815 117.702 114.414 117.41 114.121C117.117 113.829 116.716 113.65 116.278 113.65H110.482C110.043 113.65 109.642 113.829 109.349 114.121C109.057 114.414 108.878 114.815 108.878 115.254V123.758H117.881ZM104.637 123.758V115.254C104.637 113.645 105.292 112.182 106.354 111.12C107.41 110.064 108.873 109.403 110.487 109.403H116.283C117.892 109.403 119.354 110.059 120.416 111.12C121.472 112.177 122.133 113.645 122.133 115.254V123.758H125.086L125.08 106.554H60.2944V123.758H63.4958V115.254C63.4958 113.645 64.1512 112.182 65.2129 111.12C66.2692 110.064 67.7317 109.403 69.346 109.403H75.1366C76.7455 109.403 78.2079 110.059 79.2697 111.12C80.326 112.177 80.9869 113.645 80.9869 115.254V123.758H84.0691V115.254C84.0691 113.645 84.7246 112.182 85.7863 111.12C86.8426 110.064 88.3105 109.403 89.9194 109.403H95.7154C97.3243 109.403 98.7867 110.059 99.8485 111.12C100.905 112.177 101.566 113.645 101.566 115.254V123.758L104.637 123.753L104.637 123.758ZM97.3133 123.758V115.254C97.3133 114.815 97.1346 114.414 96.8421 114.121C96.5496 113.829 96.1487 113.65 95.71 113.65H89.9139C89.4752 113.65 89.0743 113.829 88.7818 114.121C88.4893 114.414 88.3105 114.815 88.3105 115.254V123.758H97.3133ZM76.7401 123.758V115.254C76.7401 114.815 76.5613 114.414 76.2688 114.121C75.9763 113.829 75.5755 113.65 75.1367 113.65H69.3461C68.9073 113.65 68.5065 113.829 68.214 114.121C67.9215 114.414 67.7427 114.815 67.7427 115.254V123.758H76.7401ZM58.1707 102.307H133.437L127.961 88.5746H57.4063L51.9299 102.307H58.1707ZM27.896 50.3852H37.0992L40.1056 36.9076H24.8892L27.896 50.3852ZM23.5247 69.7027H41.4756L49.3842 54.6328H15.6206L23.5247 69.7027ZM24.3751 107.313H40.626V73.9489H24.3751V107.313ZM56.0476 111.56H16.5749V123.759H56.0476V111.56Z" fill="#663366"/>
</svg>
