<svg width="150" height="150" viewBox="0 0 150 150" fill="none" xmlns="http://www.w3.org/2000/svg">
<mask id="path-1-outside-1_164_20" maskUnits="userSpaceOnUse" x="9" y="12" width="132" height="127" fill="black">
<rect fill="white" x="9" y="12" width="132" height="127"/>
<path fill-rule="evenodd" clip-rule="evenodd" d="M88.9606 99.8448L129.029 82.6859C130.892 81.8869 132.902 81.8815 134.679 82.5229C136.455 83.1696 137.999 84.4632 138.925 86.2731L139.142 86.6971C140.106 88.5777 140.231 90.6703 139.651 92.5453C139.072 94.426 137.788 96.0837 135.93 97.0837L90.0332 121.901C86.8428 123.847 83.7065 125.081 80.6189 125.657C77.488 126.238 74.4276 126.146 71.4321 125.439C71.3779 125.428 71.3238 125.412 71.2696 125.39L56.5305 121.048C56.0701 120.912 55.6313 120.857 55.198 120.879C54.7701 120.901 54.3367 120.999 53.8925 121.184L52.7821 121.635C52.8146 122.401 52.6629 123.157 52.3542 123.841C52.3379 123.874 52.3217 123.912 52.3054 123.939C51.7908 125.004 50.8863 125.885 49.7 126.347L49.5971 126.385L46.9754 127.336C47.3871 128.668 47.2679 130.043 46.7316 131.228C46.1575 132.489 45.112 133.538 43.7199 134.081L43.6061 134.125L33.8777 137.663C32.4422 138.185 30.9202 138.082 29.6202 137.484C28.3147 136.891 27.2313 135.804 26.6789 134.375C26.3647 133.56 26.7709 132.641 27.5834 132.326C28.396 132.01 29.3114 132.418 29.6256 133.233C29.864 133.853 30.3406 134.326 30.9148 134.587C31.4944 134.853 32.1661 134.902 32.7945 134.679L42.5771 131.124C43.1621 130.896 43.6009 130.456 43.8446 129.923C44.0884 129.385 44.1317 128.76 43.9151 128.168V128.162C43.9096 128.146 43.9151 128.168 43.8988 128.113L43.4709 127.01C43.4601 126.983 43.4492 126.956 43.4384 126.934L43.433 126.923L27.5942 85.8875C27.5672 85.8223 27.5455 85.7625 27.513 85.7027C27.5022 85.681 27.4859 85.6538 27.4805 85.632C27.2205 85.1374 26.798 84.757 26.305 84.5341C25.7255 84.2678 25.0538 84.2189 24.4254 84.4417L14.6427 87.9964C14.0577 88.2247 13.619 88.6649 13.3752 89.1921C13.1315 89.7302 13.0881 90.3553 13.3048 90.9477L13.321 91.002L28.0601 129.169C28.3743 129.984 27.9681 130.902 27.1556 131.218C26.343 131.533 25.4276 131.125 25.1134 130.31L10.3313 92.0294C9.82212 90.6217 9.91962 89.1488 10.4884 87.8877C11.0626 86.6268 12.108 85.5777 13.5001 85.0342L13.6139 84.9907L23.3423 81.4524C24.7778 80.9306 26.2998 81.0393 27.5999 81.6317C28.3203 81.9578 28.9703 82.4361 29.5011 83.0394L32.5075 81.9469C33.775 81.4849 35.1129 81.5828 36.2558 82.1046C36.8354 82.3709 37.3663 82.7405 37.8105 83.2079L44.2347 80.6044C45.2043 80.2131 46.1684 79.9902 47.149 79.9413C48.1348 79.8924 49.1153 80.012 50.1119 80.3001L83.2676 89.8769C85.4397 90.5074 87.1622 91.9694 88.1806 93.8174C89.1719 95.6001 89.5023 97.7414 88.9606 99.8448ZM49.5163 121.243L49.5109 121.238C49.5 121.216 49.4946 121.189 49.4838 121.167L35.8985 85.9854C35.8877 85.9528 35.8715 85.9202 35.8552 85.8876C35.8444 85.8604 35.8281 85.8387 35.8173 85.8115C35.6277 85.4473 35.319 85.1701 34.956 85.0016C34.5281 84.806 34.0406 84.7679 33.5856 84.9364L30.9748 85.8821L45.8387 124.374L48.5145 123.401V123.407L48.52 123.401C48.5525 123.39 48.5037 123.407 48.5525 123.39C48.9533 123.233 49.2621 122.939 49.4354 122.581L49.4625 122.521C49.6358 122.135 49.6683 121.684 49.5166 121.26L49.5163 121.243ZM51.878 118.575L52.7175 118.232C53.4867 117.922 54.2613 117.743 55.0522 117.705C55.8376 117.667 56.623 117.765 57.4247 117.999L72.1638 122.336C74.7422 122.945 77.3692 123.026 80.0505 122.526C82.7535 122.021 85.5377 120.923 88.3977 119.173C88.4302 119.151 88.4681 119.129 88.506 119.107L134.434 94.2789C135.529 93.6865 136.287 92.7081 136.628 91.5993C136.969 90.4851 136.899 89.2459 136.33 88.137L136.114 87.7131C135.561 86.6424 134.651 85.8706 133.6 85.49C132.555 85.1096 131.369 85.115 130.264 85.5879L84.9148 105.03C83.0894 106.025 80.8902 106.329 78.7452 105.71L52.7281 98.1927C51.8885 97.9535 51.401 97.073 51.6394 96.2305C51.8777 95.388 52.7552 94.8989 53.5949 95.138L79.6119 102.655C80.9444 103.041 82.3202 102.845 83.4523 102.215C84.579 101.59 85.4727 100.53 85.8574 99.198C86.242 97.8609 86.047 96.4804 85.4186 95.3445C84.7957 94.214 83.7395 93.3172 82.4123 92.9312L49.2566 83.3544C48.5849 83.1587 47.9403 83.0772 47.3175 83.1098C46.6891 83.1424 46.0608 83.2892 45.4162 83.5501L39.3062 86.023L51.878 118.575ZM23.2775 89.1323C22.1238 88.8008 20.9429 88.9693 19.9625 89.5074C18.9821 90.0509 18.2075 90.9749 17.8717 92.138C17.5413 93.2957 17.7092 94.4806 18.2454 95.4643C18.7871 96.4481 19.708 97.2253 20.8671 97.5623C22.0209 97.8938 23.2071 97.7253 24.1821 97.1872C25.1625 96.6437 25.9371 95.7251 26.273 94.5566C26.6034 93.3989 26.4355 92.2086 25.8992 91.2303C25.3575 90.2465 24.4421 89.4693 23.2775 89.1323ZM23.1259 92.7631C22.9796 92.4968 22.7304 92.2848 22.4109 92.1924C22.0858 92.1 21.7554 92.1435 21.4846 92.2957C21.2192 92.4424 21.0079 92.6924 20.9158 93.0131C20.8237 93.3392 20.8671 93.6708 21.0187 93.9425C21.165 94.2089 21.4142 94.4208 21.7338 94.5132C22.0588 94.6056 22.3892 94.5622 22.66 94.41C22.9254 94.2632 23.1367 94.0132 23.2288 93.6925C23.3209 93.361 23.2775 93.0349 23.1259 92.7631ZM90.5258 70.712C90.5258 71.5925 89.8162 72.3044 88.9387 72.3044C88.0612 72.3044 87.3516 71.5924 87.3516 70.712V65.8366C85.6995 65.6627 84.1558 65.217 82.7799 64.5593C80.8732 63.6516 79.2915 62.32 78.2243 60.7166C77.7368 59.9883 77.9318 59.0045 78.6577 58.5154C79.3835 58.0263 80.364 58.2219 80.8514 58.9502C81.5989 60.0699 82.7419 61.0157 84.1394 61.6841C85.5315 62.3472 87.1728 62.7331 88.9332 62.7331C91.5062 62.7331 93.819 61.9233 95.4711 60.6134C97.0203 59.3851 97.9791 57.7111 97.9791 55.8903C97.9791 54.0695 97.0203 52.3954 95.4711 51.1671C93.819 49.8572 91.5114 49.0474 88.9332 49.0474C85.6398 49.0474 82.6334 47.9712 80.4397 46.2266C78.1431 44.4058 76.7184 41.8567 76.7184 39.0195C76.7184 36.1823 78.1375 33.6386 80.4397 31.8124C82.276 30.3557 84.681 29.3611 87.3461 29.0785V24.2032C87.3461 23.3227 88.0557 22.6107 88.9332 22.6107C89.8106 22.6107 90.5202 23.3227 90.5202 24.2032V29.0785C91.9882 29.2362 93.3749 29.6058 94.6315 30.1438C96.4191 30.9156 97.9519 32.0462 99.0786 33.4267C99.6311 34.1007 99.5336 35.1008 98.8619 35.6552C98.1848 36.2096 97.1936 36.1172 96.641 35.4378C95.8393 34.4595 94.7181 33.6387 93.3801 33.0627C92.0692 32.4974 90.5525 32.1767 88.9384 32.1767C86.3654 32.1767 84.0525 32.9866 82.4004 34.2964C80.8512 35.5248 79.8925 37.1933 79.8925 39.0196C79.8925 40.8404 80.8512 42.509 82.4004 43.7427C84.0525 45.0526 86.3601 45.8624 88.9384 45.8624C92.2317 45.8624 95.2381 46.9386 97.4318 48.6778C99.7285 50.4986 101.153 53.0477 101.153 55.8849C101.153 58.7221 99.734 61.2658 97.4318 63.092C95.5956 64.5487 93.1905 65.5433 90.5254 65.8259L90.5308 70.7121L90.5258 70.712ZM88.9441 78.7397C97.5513 78.7397 105.346 75.2395 110.986 69.576C116.624 63.918 120.118 56.0967 120.118 47.4595C120.118 38.823 116.63 31.0018 110.986 25.343C105.347 19.6849 97.552 16.1792 88.9441 16.1792C80.337 16.1792 72.5424 19.6795 66.9027 25.343C61.2639 31.001 57.7701 38.8223 57.7701 47.4595C57.7701 56.096 61.2585 63.9171 66.9027 69.576C72.5416 75.2395 80.3363 78.7397 88.9441 78.7397ZM113.228 71.8261C119.441 65.5918 123.287 56.9713 123.287 47.4596C123.287 37.9426 119.441 29.3281 113.228 23.0932C107.015 16.8589 98.4235 13 88.9441 13C79.4595 13 70.8742 16.8589 64.6605 23.0932C58.4474 29.3274 54.6016 37.9479 54.6016 47.4596C54.6016 56.9766 58.4474 65.5911 64.6605 71.8261C70.8735 78.061 79.4647 81.9193 88.9441 81.9193C98.4288 81.9193 107.014 78.0657 113.228 71.8261Z"/>
</mask>
<path fill-rule="evenodd" clip-rule="evenodd" d="M88.9606 99.8448L129.029 82.6859C130.892 81.8869 132.902 81.8815 134.679 82.5229C136.455 83.1696 137.999 84.4632 138.925 86.2731L139.142 86.6971C140.106 88.5777 140.231 90.6703 139.651 92.5453C139.072 94.426 137.788 96.0837 135.93 97.0837L90.0332 121.901C86.8428 123.847 83.7065 125.081 80.6189 125.657C77.488 126.238 74.4276 126.146 71.4321 125.439C71.3779 125.428 71.3238 125.412 71.2696 125.39L56.5305 121.048C56.0701 120.912 55.6313 120.857 55.198 120.879C54.7701 120.901 54.3367 120.999 53.8925 121.184L52.7821 121.635C52.8146 122.401 52.6629 123.157 52.3542 123.841C52.3379 123.874 52.3217 123.912 52.3054 123.939C51.7908 125.004 50.8863 125.885 49.7 126.347L49.5971 126.385L46.9754 127.336C47.3871 128.668 47.2679 130.043 46.7316 131.228C46.1575 132.489 45.112 133.538 43.7199 134.081L43.6061 134.125L33.8777 137.663C32.4422 138.185 30.9202 138.082 29.6202 137.484C28.3147 136.891 27.2313 135.804 26.6789 134.375C26.3647 133.56 26.7709 132.641 27.5834 132.326C28.396 132.01 29.3114 132.418 29.6256 133.233C29.864 133.853 30.3406 134.326 30.9148 134.587C31.4944 134.853 32.1661 134.902 32.7945 134.679L42.5771 131.124C43.1621 130.896 43.6009 130.456 43.8446 129.923C44.0884 129.385 44.1317 128.76 43.9151 128.168V128.162C43.9096 128.146 43.9151 128.168 43.8988 128.113L43.4709 127.01C43.4601 126.983 43.4492 126.956 43.4384 126.934L43.433 126.923L27.5942 85.8875C27.5672 85.8223 27.5455 85.7625 27.513 85.7027C27.5022 85.681 27.4859 85.6538 27.4805 85.632C27.2205 85.1374 26.798 84.757 26.305 84.5341C25.7255 84.2678 25.0538 84.2189 24.4254 84.4417L14.6427 87.9964C14.0577 88.2247 13.619 88.6649 13.3752 89.1921C13.1315 89.7302 13.0881 90.3553 13.3048 90.9477L13.321 91.002L28.0601 129.169C28.3743 129.984 27.9681 130.902 27.1556 131.218C26.343 131.533 25.4276 131.125 25.1134 130.31L10.3313 92.0294C9.82212 90.6217 9.91962 89.1488 10.4884 87.8877C11.0626 86.6268 12.108 85.5777 13.5001 85.0342L13.6139 84.9907L23.3423 81.4524C24.7778 80.9306 26.2998 81.0393 27.5999 81.6317C28.3203 81.9578 28.9703 82.4361 29.5011 83.0394L32.5075 81.9469C33.775 81.4849 35.1129 81.5828 36.2558 82.1046C36.8354 82.3709 37.3663 82.7405 37.8105 83.2079L44.2347 80.6044C45.2043 80.2131 46.1684 79.9902 47.149 79.9413C48.1348 79.8924 49.1153 80.012 50.1119 80.3001L83.2676 89.8769C85.4397 90.5074 87.1622 91.9694 88.1806 93.8174C89.1719 95.6001 89.5023 97.7414 88.9606 99.8448ZM49.5163 121.243L49.5109 121.238C49.5 121.216 49.4946 121.189 49.4838 121.167L35.8985 85.9854C35.8877 85.9528 35.8715 85.9202 35.8552 85.8876C35.8444 85.8604 35.8281 85.8387 35.8173 85.8115C35.6277 85.4473 35.319 85.1701 34.956 85.0016C34.5281 84.806 34.0406 84.7679 33.5856 84.9364L30.9748 85.8821L45.8387 124.374L48.5145 123.401V123.407L48.52 123.401C48.5525 123.39 48.5037 123.407 48.5525 123.39C48.9533 123.233 49.2621 122.939 49.4354 122.581L49.4625 122.521C49.6358 122.135 49.6683 121.684 49.5166 121.26L49.5163 121.243ZM51.878 118.575L52.7175 118.232C53.4867 117.922 54.2613 117.743 55.0522 117.705C55.8376 117.667 56.623 117.765 57.4247 117.999L72.1638 122.336C74.7422 122.945 77.3692 123.026 80.0505 122.526C82.7535 122.021 85.5377 120.923 88.3977 119.173C88.4302 119.151 88.4681 119.129 88.506 119.107L134.434 94.2789C135.529 93.6865 136.287 92.7081 136.628 91.5993C136.969 90.4851 136.899 89.2459 136.33 88.137L136.114 87.7131C135.561 86.6424 134.651 85.8706 133.6 85.49C132.555 85.1096 131.369 85.115 130.264 85.5879L84.9148 105.03C83.0894 106.025 80.8902 106.329 78.7452 105.71L52.7281 98.1927C51.8885 97.9535 51.401 97.073 51.6394 96.2305C51.8777 95.388 52.7552 94.8989 53.5949 95.138L79.6119 102.655C80.9444 103.041 82.3202 102.845 83.4523 102.215C84.579 101.59 85.4727 100.53 85.8574 99.198C86.242 97.8609 86.047 96.4804 85.4186 95.3445C84.7957 94.214 83.7395 93.3172 82.4123 92.9312L49.2566 83.3544C48.5849 83.1587 47.9403 83.0772 47.3175 83.1098C46.6891 83.1424 46.0608 83.2892 45.4162 83.5501L39.3062 86.023L51.878 118.575ZM23.2775 89.1323C22.1238 88.8008 20.9429 88.9693 19.9625 89.5074C18.9821 90.0509 18.2075 90.9749 17.8717 92.138C17.5413 93.2957 17.7092 94.4806 18.2454 95.4643C18.7871 96.4481 19.708 97.2253 20.8671 97.5623C22.0209 97.8938 23.2071 97.7253 24.1821 97.1872C25.1625 96.6437 25.9371 95.7251 26.273 94.5566C26.6034 93.3989 26.4355 92.2086 25.8992 91.2303C25.3575 90.2465 24.4421 89.4693 23.2775 89.1323ZM23.1259 92.7631C22.9796 92.4968 22.7304 92.2848 22.4109 92.1924C22.0858 92.1 21.7554 92.1435 21.4846 92.2957C21.2192 92.4424 21.0079 92.6924 20.9158 93.0131C20.8237 93.3392 20.8671 93.6708 21.0187 93.9425C21.165 94.2089 21.4142 94.4208 21.7338 94.5132C22.0588 94.6056 22.3892 94.5622 22.66 94.41C22.9254 94.2632 23.1367 94.0132 23.2288 93.6925C23.3209 93.361 23.2775 93.0349 23.1259 92.7631ZM90.5258 70.712C90.5258 71.5925 89.8162 72.3044 88.9387 72.3044C88.0612 72.3044 87.3516 71.5924 87.3516 70.712V65.8366C85.6995 65.6627 84.1558 65.217 82.7799 64.5593C80.8732 63.6516 79.2915 62.32 78.2243 60.7166C77.7368 59.9883 77.9318 59.0045 78.6577 58.5154C79.3835 58.0263 80.364 58.2219 80.8514 58.9502C81.5989 60.0699 82.7419 61.0157 84.1394 61.6841C85.5315 62.3472 87.1728 62.7331 88.9332 62.7331C91.5062 62.7331 93.819 61.9233 95.4711 60.6134C97.0203 59.3851 97.9791 57.7111 97.9791 55.8903C97.9791 54.0695 97.0203 52.3954 95.4711 51.1671C93.819 49.8572 91.5114 49.0474 88.9332 49.0474C85.6398 49.0474 82.6334 47.9712 80.4397 46.2266C78.1431 44.4058 76.7184 41.8567 76.7184 39.0195C76.7184 36.1823 78.1375 33.6386 80.4397 31.8124C82.276 30.3557 84.681 29.3611 87.3461 29.0785V24.2032C87.3461 23.3227 88.0557 22.6107 88.9332 22.6107C89.8106 22.6107 90.5202 23.3227 90.5202 24.2032V29.0785C91.9882 29.2362 93.3749 29.6058 94.6315 30.1438C96.4191 30.9156 97.9519 32.0462 99.0786 33.4267C99.6311 34.1007 99.5336 35.1008 98.8619 35.6552C98.1848 36.2096 97.1936 36.1172 96.641 35.4378C95.8393 34.4595 94.7181 33.6387 93.3801 33.0627C92.0692 32.4974 90.5525 32.1767 88.9384 32.1767C86.3654 32.1767 84.0525 32.9866 82.4004 34.2964C80.8512 35.5248 79.8925 37.1933 79.8925 39.0196C79.8925 40.8404 80.8512 42.509 82.4004 43.7427C84.0525 45.0526 86.3601 45.8624 88.9384 45.8624C92.2317 45.8624 95.2381 46.9386 97.4318 48.6778C99.7285 50.4986 101.153 53.0477 101.153 55.8849C101.153 58.7221 99.734 61.2658 97.4318 63.092C95.5956 64.5487 93.1905 65.5433 90.5254 65.8259L90.5308 70.7121L90.5258 70.712ZM88.9441 78.7397C97.5513 78.7397 105.346 75.2395 110.986 69.576C116.624 63.918 120.118 56.0967 120.118 47.4595C120.118 38.823 116.63 31.0018 110.986 25.343C105.347 19.6849 97.552 16.1792 88.9441 16.1792C80.337 16.1792 72.5424 19.6795 66.9027 25.343C61.2639 31.001 57.7701 38.8223 57.7701 47.4595C57.7701 56.096 61.2585 63.9171 66.9027 69.576C72.5416 75.2395 80.3363 78.7397 88.9441 78.7397ZM113.228 71.8261C119.441 65.5918 123.287 56.9713 123.287 47.4596C123.287 37.9426 119.441 29.3281 113.228 23.0932C107.015 16.8589 98.4235 13 88.9441 13C79.4595 13 70.8742 16.8589 64.6605 23.0932C58.4474 29.3274 54.6016 37.9479 54.6016 47.4596C54.6016 56.9766 58.4474 65.5911 64.6605 71.8261C70.8735 78.061 79.4647 81.9193 88.9441 81.9193C98.4288 81.9193 107.014 78.0657 113.228 71.8261Z" fill="#663366"/>
<path fill-rule="evenodd" clip-rule="evenodd" d="M88.9606 99.8448L129.029 82.6859C130.892 81.8869 132.902 81.8815 134.679 82.5229C136.455 83.1696 137.999 84.4632 138.925 86.2731L139.142 86.6971C140.106 88.5777 140.231 90.6703 139.651 92.5453C139.072 94.426 137.788 96.0837 135.93 97.0837L90.0332 121.901C86.8428 123.847 83.7065 125.081 80.6189 125.657C77.488 126.238 74.4276 126.146 71.4321 125.439C71.3779 125.428 71.3238 125.412 71.2696 125.39L56.5305 121.048C56.0701 120.912 55.6313 120.857 55.198 120.879C54.7701 120.901 54.3367 120.999 53.8925 121.184L52.7821 121.635C52.8146 122.401 52.6629 123.157 52.3542 123.841C52.3379 123.874 52.3217 123.912 52.3054 123.939C51.7908 125.004 50.8863 125.885 49.7 126.347L49.5971 126.385L46.9754 127.336C47.3871 128.668 47.2679 130.043 46.7316 131.228C46.1575 132.489 45.112 133.538 43.7199 134.081L43.6061 134.125L33.8777 137.663C32.4422 138.185 30.9202 138.082 29.6202 137.484C28.3147 136.891 27.2313 135.804 26.6789 134.375C26.3647 133.56 26.7709 132.641 27.5834 132.326C28.396 132.01 29.3114 132.418 29.6256 133.233C29.864 133.853 30.3406 134.326 30.9148 134.587C31.4944 134.853 32.1661 134.902 32.7945 134.679L42.5771 131.124C43.1621 130.896 43.6009 130.456 43.8446 129.923C44.0884 129.385 44.1317 128.76 43.9151 128.168V128.162C43.9096 128.146 43.9151 128.168 43.8988 128.113L43.4709 127.01C43.4601 126.983 43.4492 126.956 43.4384 126.934L43.433 126.923L27.5942 85.8875C27.5672 85.8223 27.5455 85.7625 27.513 85.7027C27.5022 85.681 27.4859 85.6538 27.4805 85.632C27.2205 85.1374 26.798 84.757 26.305 84.5341C25.7255 84.2678 25.0538 84.2189 24.4254 84.4417L14.6427 87.9964C14.0577 88.2247 13.619 88.6649 13.3752 89.1921C13.1315 89.7302 13.0881 90.3553 13.3048 90.9477L13.321 91.002L28.0601 129.169C28.3743 129.984 27.9681 130.902 27.1556 131.218C26.343 131.533 25.4276 131.125 25.1134 130.31L10.3313 92.0294C9.82212 90.6217 9.91962 89.1488 10.4884 87.8877C11.0626 86.6268 12.108 85.5777 13.5001 85.0342L13.6139 84.9907L23.3423 81.4524C24.7778 80.9306 26.2998 81.0393 27.5999 81.6317C28.3203 81.9578 28.9703 82.4361 29.5011 83.0394L32.5075 81.9469C33.775 81.4849 35.1129 81.5828 36.2558 82.1046C36.8354 82.3709 37.3663 82.7405 37.8105 83.2079L44.2347 80.6044C45.2043 80.2131 46.1684 79.9902 47.149 79.9413C48.1348 79.8924 49.1153 80.012 50.1119 80.3001L83.2676 89.8769C85.4397 90.5074 87.1622 91.9694 88.1806 93.8174C89.1719 95.6001 89.5023 97.7414 88.9606 99.8448ZM49.5163 121.243L49.5109 121.238C49.5 121.216 49.4946 121.189 49.4838 121.167L35.8985 85.9854C35.8877 85.9528 35.8715 85.9202 35.8552 85.8876C35.8444 85.8604 35.8281 85.8387 35.8173 85.8115C35.6277 85.4473 35.319 85.1701 34.956 85.0016C34.5281 84.806 34.0406 84.7679 33.5856 84.9364L30.9748 85.8821L45.8387 124.374L48.5145 123.401V123.407L48.52 123.401C48.5525 123.39 48.5037 123.407 48.5525 123.39C48.9533 123.233 49.2621 122.939 49.4354 122.581L49.4625 122.521C49.6358 122.135 49.6683 121.684 49.5166 121.26L49.5163 121.243ZM51.878 118.575L52.7175 118.232C53.4867 117.922 54.2613 117.743 55.0522 117.705C55.8376 117.667 56.623 117.765 57.4247 117.999L72.1638 122.336C74.7422 122.945 77.3692 123.026 80.0505 122.526C82.7535 122.021 85.5377 120.923 88.3977 119.173C88.4302 119.151 88.4681 119.129 88.506 119.107L134.434 94.2789C135.529 93.6865 136.287 92.7081 136.628 91.5993C136.969 90.4851 136.899 89.2459 136.33 88.137L136.114 87.7131C135.561 86.6424 134.651 85.8706 133.6 85.49C132.555 85.1096 131.369 85.115 130.264 85.5879L84.9148 105.03C83.0894 106.025 80.8902 106.329 78.7452 105.71L52.7281 98.1927C51.8885 97.9535 51.401 97.073 51.6394 96.2305C51.8777 95.388 52.7552 94.8989 53.5949 95.138L79.6119 102.655C80.9444 103.041 82.3202 102.845 83.4523 102.215C84.579 101.59 85.4727 100.53 85.8574 99.198C86.242 97.8609 86.047 96.4804 85.4186 95.3445C84.7957 94.214 83.7395 93.3172 82.4123 92.9312L49.2566 83.3544C48.5849 83.1587 47.9403 83.0772 47.3175 83.1098C46.6891 83.1424 46.0608 83.2892 45.4162 83.5501L39.3062 86.023L51.878 118.575ZM23.2775 89.1323C22.1238 88.8008 20.9429 88.9693 19.9625 89.5074C18.9821 90.0509 18.2075 90.9749 17.8717 92.138C17.5413 93.2957 17.7092 94.4806 18.2454 95.4643C18.7871 96.4481 19.708 97.2253 20.8671 97.5623C22.0209 97.8938 23.2071 97.7253 24.1821 97.1872C25.1625 96.6437 25.9371 95.7251 26.273 94.5566C26.6034 93.3989 26.4355 92.2086 25.8992 91.2303C25.3575 90.2465 24.4421 89.4693 23.2775 89.1323ZM23.1259 92.7631C22.9796 92.4968 22.7304 92.2848 22.4109 92.1924C22.0858 92.1 21.7554 92.1435 21.4846 92.2957C21.2192 92.4424 21.0079 92.6924 20.9158 93.0131C20.8237 93.3392 20.8671 93.6708 21.0187 93.9425C21.165 94.2089 21.4142 94.4208 21.7338 94.5132C22.0588 94.6056 22.3892 94.5622 22.66 94.41C22.9254 94.2632 23.1367 94.0132 23.2288 93.6925C23.3209 93.361 23.2775 93.0349 23.1259 92.7631ZM90.5258 70.712C90.5258 71.5925 89.8162 72.3044 88.9387 72.3044C88.0612 72.3044 87.3516 71.5924 87.3516 70.712V65.8366C85.6995 65.6627 84.1558 65.217 82.7799 64.5593C80.8732 63.6516 79.2915 62.32 78.2243 60.7166C77.7368 59.9883 77.9318 59.0045 78.6577 58.5154C79.3835 58.0263 80.364 58.2219 80.8514 58.9502C81.5989 60.0699 82.7419 61.0157 84.1394 61.6841C85.5315 62.3472 87.1728 62.7331 88.9332 62.7331C91.5062 62.7331 93.819 61.9233 95.4711 60.6134C97.0203 59.3851 97.9791 57.7111 97.9791 55.8903C97.9791 54.0695 97.0203 52.3954 95.4711 51.1671C93.819 49.8572 91.5114 49.0474 88.9332 49.0474C85.6398 49.0474 82.6334 47.9712 80.4397 46.2266C78.1431 44.4058 76.7184 41.8567 76.7184 39.0195C76.7184 36.1823 78.1375 33.6386 80.4397 31.8124C82.276 30.3557 84.681 29.3611 87.3461 29.0785V24.2032C87.3461 23.3227 88.0557 22.6107 88.9332 22.6107C89.8106 22.6107 90.5202 23.3227 90.5202 24.2032V29.0785C91.9882 29.2362 93.3749 29.6058 94.6315 30.1438C96.4191 30.9156 97.9519 32.0462 99.0786 33.4267C99.6311 34.1007 99.5336 35.1008 98.8619 35.6552C98.1848 36.2096 97.1936 36.1172 96.641 35.4378C95.8393 34.4595 94.7181 33.6387 93.3801 33.0627C92.0692 32.4974 90.5525 32.1767 88.9384 32.1767C86.3654 32.1767 84.0525 32.9866 82.4004 34.2964C80.8512 35.5248 79.8925 37.1933 79.8925 39.0196C79.8925 40.8404 80.8512 42.509 82.4004 43.7427C84.0525 45.0526 86.3601 45.8624 88.9384 45.8624C92.2317 45.8624 95.2381 46.9386 97.4318 48.6778C99.7285 50.4986 101.153 53.0477 101.153 55.8849C101.153 58.7221 99.734 61.2658 97.4318 63.092C95.5956 64.5487 93.1905 65.5433 90.5254 65.8259L90.5308 70.7121L90.5258 70.712ZM88.9441 78.7397C97.5513 78.7397 105.346 75.2395 110.986 69.576C116.624 63.918 120.118 56.0967 120.118 47.4595C120.118 38.823 116.63 31.0018 110.986 25.343C105.347 19.6849 97.552 16.1792 88.9441 16.1792C80.337 16.1792 72.5424 19.6795 66.9027 25.343C61.2639 31.001 57.7701 38.8223 57.7701 47.4595C57.7701 56.096 61.2585 63.9171 66.9027 69.576C72.5416 75.2395 80.3363 78.7397 88.9441 78.7397ZM113.228 71.8261C119.441 65.5918 123.287 56.9713 123.287 47.4596C123.287 37.9426 119.441 29.3281 113.228 23.0932C107.015 16.8589 98.4235 13 88.9441 13C79.4595 13 70.8742 16.8589 64.6605 23.0932C58.4474 29.3274 54.6016 37.9479 54.6016 47.4596C54.6016 56.9766 58.4474 65.5911 64.6605 71.8261C70.8735 78.061 79.4647 81.9193 88.9441 81.9193C98.4288 81.9193 107.014 78.0657 113.228 71.8261Z" stroke="#663366" stroke-width="0.5" mask="url(#path-1-outside-1_164_20)"/>
</svg>
