<svg width="150" height="150" viewBox="0 0 150 150" fill="none" xmlns="http://www.w3.org/2000/svg">
<path d="M133.224 81.3669H124.577C123.236 81.3686 121.929 81.7851 120.835 82.5592C119.74 83.3333 118.912 84.4271 118.463 85.6906H112.368C112.116 85.6907 111.866 85.6467 111.629 85.5603L97.0329 80.2525C94.7786 79.435 92.3823 79.0817 89.988 79.214V79.2051H64.7478C64.0507 79.2049 63.3581 79.3173 62.6968 79.538L44.5753 85.5785C44.3542 85.6549 44.1216 85.6924 43.8878 85.6892L31.2389 85.6671C30.7871 84.4092 29.9583 83.3214 28.8656 82.5518C27.7729 81.7822 26.4693 81.3685 25.1328 81.3669H16.4855C14.766 81.3689 13.1175 82.0528 11.9017 83.2686C10.6858 84.4845 10.0019 86.133 10 87.8524V118.118C10.0019 119.838 10.6858 121.486 11.9017 122.702C13.1175 123.918 14.766 124.602 16.4855 124.604H25.1328C26.8523 124.602 28.5008 123.918 29.7166 122.702C30.9325 121.486 31.6164 119.838 31.6183 118.118V118.098L37.2464 118.115C37.3755 118.27 37.5112 118.421 37.656 118.566C38.858 119.769 40.4717 120.472 42.1716 120.533C42.2345 122.233 42.938 123.847 44.1408 125.05C45.3436 126.253 46.9568 126.958 48.6571 127.021C48.6978 128.076 48.9851 129.106 49.4958 130.029C50.0065 130.952 50.7264 131.743 51.5978 132.338C52.4692 132.932 53.4678 133.315 54.5136 133.454C55.5595 133.593 56.6234 133.485 57.62 133.139C57.9156 134.064 58.4074 134.915 59.0617 135.632C59.716 136.35 60.5175 136.918 61.4114 137.297C62.3052 137.676 63.2705 137.859 64.2411 137.831C65.2118 137.803 66.1651 137.566 67.0359 137.137L67.9217 138.022C68.6961 138.797 69.6478 139.372 70.6945 139.697C71.7411 140.022 72.8511 140.087 73.9284 139.886C75.0057 139.685 76.0178 139.225 76.8773 138.545C77.7367 137.865 78.4175 136.986 78.8608 135.984C79.69 136.77 80.7051 137.332 81.8111 137.619C82.917 137.906 84.0776 137.907 85.1841 137.622C86.2906 137.338 87.3068 136.777 88.1374 135.993C88.9681 135.208 89.5861 134.226 89.9335 133.138C91.1312 133.552 92.4213 133.622 93.6568 133.339C94.8923 133.056 96.0233 132.431 96.921 131.537C97.6838 130.775 98.2517 129.841 98.5765 128.813C99.7703 129.229 101.057 129.302 102.29 129.022C103.523 128.742 104.653 128.122 105.55 127.231C106.447 126.34 107.076 125.215 107.365 123.984C107.654 122.754 107.591 121.466 107.184 120.269L111.167 120.26C113.292 120.256 115.369 119.625 117.136 118.445L118.092 117.807V118.118C118.094 119.838 118.777 121.486 119.993 122.702C121.209 123.918 122.858 124.602 124.577 124.604H133.224C134.944 124.602 136.592 123.918 137.808 122.702C139.024 121.486 139.708 119.838 139.71 118.118V87.8524C139.708 86.133 139.024 84.4845 137.808 83.2686C136.592 82.0528 134.944 81.3689 133.224 81.3669ZM27.2947 118.118C27.2939 118.691 27.0659 119.241 26.6607 119.646C26.2554 120.051 25.706 120.279 25.1328 120.28H16.4855C15.9124 120.279 15.3629 120.051 14.9576 119.646C14.5524 119.241 14.3244 118.691 14.3237 118.118V87.8524C14.3244 87.2793 14.5524 86.7298 14.9576 86.3246C15.3629 85.9193 15.9124 85.6913 16.4855 85.6906H25.1328C25.706 85.6913 26.2554 85.9193 26.6607 86.3246C27.0659 86.7298 27.2939 87.2793 27.2947 87.8524V118.118ZM42.4275 116.218C41.948 116.218 41.4792 116.076 41.0805 115.81C40.6818 115.544 40.3711 115.165 40.1876 114.722C40.0041 114.279 39.9561 113.792 40.0497 113.321C40.1433 112.851 40.3743 112.419 40.7134 112.08L45.0371 107.756C45.4917 107.302 46.1083 107.046 46.7512 107.046C47.3942 107.046 48.0107 107.302 48.4653 107.757C48.9199 108.211 49.1753 108.828 49.1753 109.471C49.1753 110.114 48.9198 110.73 48.4652 111.185L44.1415 115.508C43.917 115.734 43.6498 115.913 43.3556 116.035C43.0614 116.157 42.7459 116.219 42.4275 116.218ZM48.913 122.704C48.4335 122.704 47.9647 122.562 47.566 122.295C47.1673 122.029 46.8566 121.65 46.6731 121.207C46.4896 120.764 46.4416 120.277 46.5352 119.807C46.6288 119.337 46.8598 118.905 47.1989 118.566L51.5226 114.242L53.6844 112.08C54.139 111.625 54.7556 111.37 55.3986 111.37C56.0415 111.37 56.6581 111.626 57.1127 112.08C57.5673 112.535 57.8226 113.151 57.8226 113.794C57.8226 114.437 57.5672 115.054 57.1125 115.508L50.627 121.994C50.4025 122.22 50.1353 122.399 49.8411 122.521C49.5469 122.642 49.2314 122.705 48.913 122.704ZM57.1125 128.479C56.6579 128.934 56.0413 129.189 55.3984 129.189C54.7554 129.189 54.1389 128.934 53.6843 128.479C53.2297 128.025 52.9743 127.408 52.9743 126.765C52.9743 126.122 53.2298 125.506 53.6844 125.051L60.1699 118.566C60.6245 118.111 61.2411 117.856 61.8841 117.856C62.527 117.856 63.1436 118.111 63.5982 118.566C64.0528 119.02 64.3081 119.637 64.3081 120.28C64.3081 120.923 64.0527 121.539 63.598 121.994L59.2744 126.318L57.1125 128.479ZM65.7599 132.803C65.3052 133.258 64.6886 133.513 64.0457 133.513C63.4028 133.513 62.7862 133.258 62.3316 132.803C61.877 132.348 61.6216 131.732 61.6216 131.089C61.6217 130.446 61.8771 129.829 62.3317 129.375L66.6554 125.051C67.11 124.596 67.7266 124.341 68.3695 124.341C69.0125 124.341 69.6291 124.597 70.0837 125.051C70.5382 125.506 70.7936 126.122 70.7936 126.765C70.7936 127.408 70.5382 128.025 70.0835 128.479L65.7599 132.803ZM74.4072 134.965C73.9522 135.419 73.3358 135.674 72.6931 135.674C72.0505 135.674 71.4341 135.419 70.9791 134.965L70.3456 134.332L73.1409 131.537C73.3523 131.324 73.5493 131.098 73.7308 130.86L74.4072 131.537C74.8612 131.992 75.1161 132.608 75.1161 133.251C75.1161 133.893 74.8612 134.51 74.4072 134.965ZM102.511 124.156C102.056 124.61 101.44 124.864 100.797 124.864C100.154 124.864 99.5379 124.61 99.0829 124.156L96.921 121.994L82.8691 107.942L79.8118 110.999L93.8637 125.051C94.0888 125.276 94.2673 125.543 94.3892 125.838C94.511 126.132 94.5737 126.447 94.5737 126.765C94.5738 127.084 94.5111 127.399 94.3893 127.693C94.2674 127.987 94.0889 128.254 93.8638 128.479C93.6387 128.704 93.3715 128.883 93.0774 129.005C92.7833 129.127 92.468 129.189 92.1497 129.189C91.8314 129.189 91.5161 129.127 91.222 129.005C90.9279 128.883 90.6607 128.705 90.4355 128.479L88.2737 126.318L78.5455 116.589L75.4881 119.646L85.2163 129.375C85.671 129.829 85.9264 130.446 85.9264 131.089C85.9264 131.732 85.6711 132.348 85.2165 132.803C84.7619 133.258 84.1453 133.513 83.5024 133.513C82.8595 133.513 82.2429 133.258 81.7882 132.803L77.4646 128.479L75.0806 126.096C74.9211 124.474 74.179 122.966 72.9921 121.85C71.8051 120.734 70.2537 120.086 68.6256 120.027C68.5627 118.326 67.8592 116.713 66.6564 115.509C65.4536 114.306 63.8404 113.602 62.1401 113.538C62.0994 112.484 61.8121 111.454 61.3014 110.531C60.7907 109.607 60.0708 108.817 59.1993 108.222C58.3279 107.627 57.3292 107.245 56.2834 107.105C55.2375 106.966 54.1736 107.074 53.1769 107.42C52.8261 106.317 52.1971 105.323 51.3505 104.533C50.5039 103.743 49.4683 103.185 48.3434 102.912C47.2184 102.638 46.042 102.659 44.9275 102.972C43.8129 103.285 42.7978 103.88 41.9797 104.699L37.656 109.023C37.03 109.648 36.5334 110.391 36.1949 111.208C35.8563 112.026 35.6824 112.902 35.6831 113.787L31.6183 113.774V89.9916L43.88 90.0132H43.891C44.5882 90.0133 45.2808 89.9008 45.9421 89.68L64.0636 83.6396C64.2841 83.5661 64.5149 83.5287 64.7473 83.5288H79.2605L65.6226 94.8938C64.7831 95.5852 64.0885 96.4358 63.5789 97.3966C63.0693 98.3574 62.7546 99.4095 62.653 100.492C62.5515 101.575 62.665 102.667 62.987 103.706C63.309 104.745 63.8333 105.71 64.5296 106.546C65.2258 107.381 66.0804 108.071 67.0442 108.575C68.0079 109.079 69.0618 109.387 70.1452 109.483C71.2286 109.578 72.3202 109.458 73.3571 109.13C74.3941 108.802 75.356 108.272 76.1874 107.571L83.3696 101.586L102.511 120.727C102.965 121.182 103.22 121.799 103.22 122.442C103.22 123.084 102.965 123.701 102.511 124.156ZM118.092 112.611L114.738 114.847C113.677 115.555 112.431 115.934 111.156 115.936L103.852 115.954L92.7206 104.823C96.4657 104.93 100.127 103.702 103.05 101.357L104.309 100.349L101.608 96.9735L100.348 97.9811C98.1392 99.7518 95.3541 100.644 92.5273 100.488C89.7005 100.331 87.031 99.1364 85.031 97.1326L83.635 95.7369L73.4195 104.25C73.0233 104.58 72.5659 104.829 72.0735 104.982C71.5811 105.136 71.0633 105.191 70.5496 105.144C70.0359 105.097 69.5365 104.95 69.0798 104.71C68.6231 104.471 68.2181 104.143 67.8879 103.747C67.5577 103.351 67.3088 102.893 67.1553 102.401C67.0019 101.909 66.9469 101.391 66.9936 100.877C67.0403 100.363 67.1877 99.8641 67.4273 99.4074C67.667 98.9507 67.9943 98.5456 68.3905 98.2154L82.2879 86.6342C84.1056 85.1252 86.2861 84.1175 88.6133 83.7108C90.9405 83.3042 93.3336 83.5128 95.5553 84.3159L110.151 89.6232C110.861 89.8823 111.612 90.0146 112.368 90.0143H118.092V112.611ZM135.386 118.118C135.386 118.691 135.158 119.241 134.752 119.646C134.347 120.051 133.798 120.279 133.224 120.28H124.577C124.004 120.279 123.454 120.051 123.049 119.646C122.644 119.241 122.416 118.691 122.415 118.118V87.8524C122.416 87.2793 122.644 86.7298 123.049 86.3246C123.454 85.9193 124.004 85.6913 124.577 85.6906H133.224C133.798 85.6913 134.347 85.9193 134.752 86.3246C135.158 86.7298 135.386 87.2793 135.386 87.8524V118.118ZM42.4275 70.5313H40.2656V74.855H109.444V70.5313H107.282V47.2616L110.267 41.2928L85.6641 31.4519V25.1328C85.6609 22.6421 84.799 20.2287 83.2238 18.2994C81.6486 16.37 79.4565 15.0427 77.0168 14.5412V10H72.6931V14.5412C70.2534 15.0427 68.0613 16.37 66.4861 18.2994C64.9109 20.2287 64.049 22.6421 64.0458 25.1328V31.4519L39.4433 41.2925L42.4275 47.2619V70.5313ZM51.0748 70.5313H46.7511V48.913H51.0748V70.5313ZM59.7221 70.5313H55.3985V48.913H59.7221V70.5313ZM68.3695 70.5313H64.0458V48.913H68.3695V70.5313ZM77.0168 70.5313H72.6931V48.913H77.0168V70.5313ZM85.6641 70.5313H81.3404V48.913H85.6641V70.5313ZM94.3114 70.5313H89.9878V48.913H94.3114V70.5313ZM102.959 70.5313H98.6351V48.913H102.959V70.5313ZM68.3695 25.1328C68.3695 23.4128 69.0527 21.7632 70.269 20.5469C71.4853 19.3306 73.1349 18.6473 74.8549 18.6473C76.575 18.6473 78.2246 19.3306 79.4409 20.5469C80.6572 21.7632 81.3404 23.4128 81.3404 25.1328V29.7224L74.8549 27.1282L68.3695 29.7224V25.1328ZM74.8549 31.7848L104.298 43.5624L103.785 44.5893H45.9253L45.4119 43.5622L74.8549 31.7848Z" fill="#663366"/>
</svg>
