<svg width="150" height="150" viewBox="0 0 150 150" fill="none" xmlns="http://www.w3.org/2000/svg">
<path d="M19.8662 133.666H129.589C130.74 133.666 131.674 132.602 131.674 131.451V114.51C131.674 113.359 130.74 112.555 129.589 112.555H117.34V103.825C117.34 102.673 116.406 101.87 115.255 101.87H103.266V80.412C103.266 79.2603 102.234 78.4138 101.083 78.4138H48.4369C48.1728 78.4059 47.91 78.4523 47.6646 78.5501C47.4193 78.6478 47.1966 78.7949 47.0103 78.9822C46.8241 79.1695 46.6782 79.3931 46.5818 79.639C46.4854 79.8849 46.4405 80.148 46.4499 80.412V101.87H34.2005C33.0491 101.87 32.1156 102.673 32.1156 103.825V112.555H19.8662C18.7148 112.555 17.7812 113.359 17.7812 114.51V131.451C17.7812 132.602 18.7148 133.666 19.8662 133.666ZM127.504 116.725V129.496H117.34V116.725H127.504ZM113.17 106.04V129.496H103.266V106.04H113.17ZM50.6198 82.5837H99.0959V129.496H50.6198V82.5837ZM36.2855 106.04H46.4499V129.496H36.2855V106.04ZM21.9512 116.725H32.1156V129.496H21.9512V116.725Z" fill="#663366"/>
<path d="M88.4105 86.4931C88.4105 85.9401 88.1909 85.4098 87.7999 85.0188C87.4088 84.6277 86.8785 84.4081 86.3255 84.4081H63.3907C62.8377 84.4081 62.3074 84.6277 61.9163 85.0188C61.5253 85.4098 61.3057 85.9401 61.3057 86.4931V125.065C61.3057 125.618 61.5253 126.149 61.9163 126.54C62.3074 126.931 62.8377 127.15 63.3907 127.15H86.3255C86.8785 127.15 87.4088 126.931 87.7999 126.54C88.1909 126.149 88.4105 125.618 88.4105 125.065V86.4931ZM84.2406 123.241H65.4756V88.5781H84.2406V123.241Z" fill="#663366"/>
<path d="M80.8528 95.3543C80.8528 94.8013 80.6332 94.271 80.2422 93.88C79.8511 93.489 79.3208 93.2693 78.7678 93.2693H70.6885C70.1355 93.2693 69.6052 93.489 69.2142 93.88C68.8232 94.271 68.6035 94.8013 68.6035 95.3543V116.725C68.6035 117.278 68.8232 117.809 69.2142 118.2C69.6052 118.591 70.1355 118.81 70.6885 118.81H78.7678C79.3208 118.81 79.8511 118.591 80.2422 118.2C80.6332 117.809 80.8528 117.278 80.8528 116.725V95.3543ZM72.7735 97.4393H76.6829V114.64H72.7735V97.4393Z" fill="#663366"/>
<path d="M47.6551 77.1106H101.865C102.205 77.0959 102.537 77.0016 102.833 76.8355C103.13 76.6693 103.384 76.4358 103.574 76.1538C103.765 75.8718 103.886 75.5491 103.929 75.2116C103.973 74.8741 103.936 74.5312 103.822 74.2104L97.802 57.765C97.7612 57.4742 97.66 57.1951 97.5049 56.9456L85.5787 24.468C85.4285 24.0739 85.1593 23.7364 84.8085 23.5023C84.4577 23.2681 84.0427 23.149 83.6212 23.1615H82.4765C82.1705 21.5761 81.4108 20.1137 80.2898 18.9517C79.1687 17.7897 77.7345 16.9781 76.1611 16.6154V12.085C76.1611 11.532 75.9414 11.0017 75.5504 10.6107C75.1594 10.2197 74.6291 10 74.0761 10C73.5231 10 72.9928 10.2197 72.6018 10.6107C72.2108 11.0017 71.9911 11.532 71.9911 12.085V16.6811C70.4879 17.1084 69.1297 17.9376 68.0628 19.0795C66.9959 20.2214 66.2606 21.6328 65.9363 23.1615H65.8988C65.4775 23.1483 65.0626 23.2667 64.7118 23.5002C64.3609 23.7338 64.0916 24.0709 63.9412 24.4646L52.0153 56.9712C51.8604 57.2118 51.7591 57.4829 51.7182 57.7661L45.6978 74.1854C45.5822 74.5107 45.5445 74.8586 45.5876 75.2012C45.6308 75.5438 45.7536 75.8715 45.9462 76.158C46.1351 76.4409 46.3886 76.6749 46.6857 76.8405C46.9829 77.0061 47.3151 77.0987 47.6551 77.1106ZM61.361 43.4902H88.1589L92.7052 56.0001H56.815L61.361 43.4902ZM74.2064 20.6856C75.0272 20.6655 75.8353 20.8903 76.5278 21.3312C77.2203 21.7722 77.7659 22.4093 78.0949 23.1615H70.3179C70.6469 22.4093 71.1925 21.7722 71.885 21.3312C72.5775 20.8903 73.3857 20.6655 74.2064 20.6856ZM67.3551 27.3315H82.1648L86.6306 39.3202H62.8893L67.3551 27.3315ZM55.2867 60.1701H94.2333L98.8802 72.9406H50.6387L55.2867 60.1701Z" fill="#663366"/>
<path d="M80.0705 63.5582C80.0705 63.0052 79.8508 62.4749 79.4598 62.0839C79.0688 61.6929 78.5384 61.4732 77.9855 61.4732H71.7305C71.1775 61.4732 70.6472 61.6929 70.2562 62.0839C69.8652 62.4749 69.6455 63.0052 69.6455 63.5582V69.5525C69.6455 70.1055 69.8652 70.6358 70.2562 71.0269C70.6472 71.4179 71.1775 71.6375 71.7305 71.6375H77.9855C78.5384 71.6375 79.0688 71.4179 79.4598 71.0269C79.8508 70.6358 80.0705 70.1055 80.0705 69.5525V63.5582ZM75.9005 67.4676H73.8155V65.6432H75.9005V67.4676Z" fill="#663366"/>
<path d="M80.0705 46.8783C80.0705 46.3253 79.8508 45.795 79.4598 45.404C79.0688 45.0129 78.5384 44.7933 77.9855 44.7933H71.7305C71.1775 44.7933 70.6472 45.0129 70.2562 45.404C69.8652 45.795 69.6455 46.3253 69.6455 46.8783V52.8726C69.6455 53.4256 69.8652 53.9559 70.2562 54.3469C70.6472 54.7379 71.1775 54.9576 71.7305 54.9576H77.9855C78.5384 54.9576 79.0688 54.7379 79.4598 54.3469C79.8508 53.9559 80.0705 53.4256 80.0705 52.8726V46.8783ZM73.8155 48.9633H75.9005V50.7876H73.8155V48.9633Z" fill="#663366"/>
<path d="M80.0705 30.459C80.0705 29.906 79.8508 29.3757 79.4598 28.9846C79.0688 28.5936 78.5384 28.374 77.9855 28.374H71.7305C71.1775 28.374 70.6472 28.5936 70.2562 28.9846C69.8652 29.3757 69.6455 29.906 69.6455 30.459V36.4533C69.6455 37.0063 69.8652 37.5366 70.2562 37.9276C70.6472 38.3186 71.1775 38.5383 71.7305 38.5383H77.9855C78.5384 38.5383 79.0688 38.3186 79.4598 37.9276C79.8508 37.5366 80.0705 37.0063 80.0705 36.4533V30.459ZM73.8155 32.5439H75.9005V34.1077H73.8155V32.5439Z" fill="#663366"/>
<path d="M19.085 139.139H131.153C131.706 139.139 132.237 138.919 132.628 138.528C133.019 138.137 133.238 137.607 133.238 137.054C133.238 136.501 133.019 135.971 132.628 135.58C132.237 135.189 131.706 134.969 131.153 134.969H19.085C18.532 134.969 18.0017 135.189 17.6107 135.58C17.2197 135.971 17 136.501 17 137.054C17 137.607 17.2197 138.137 17.6107 138.528C18.0017 138.919 18.532 139.139 19.085 139.139Z" fill="#663366"/>
</svg>
