<svg width="150" height="150" viewBox="0 0 150 150" fill="none" xmlns="http://www.w3.org/2000/svg">
<path d="M16.4767 135.215C17.2965 135.215 17.9652 134.546 17.9652 133.726V122.644C17.9652 121.481 18.4768 120.382 19.3723 119.632L22.6807 116.859C23.4482 116.219 24.5355 116.196 25.332 116.801L32.9023 122.586C33.9664 123.394 35.2805 123.755 36.6003 123.598C53.6941 121.749 53.4098 121.196 54.5783 121.981L60.2764 125.83C61.5614 126.697 63.1487 126.929 64.6314 126.476L71.0447 124.499C72.9053 123.929 74.2602 122.377 74.5741 120.452L77.4871 102.502C77.5975 101.834 78.022 101.246 78.6325 100.944L86.5749 96.9552C88.3077 96.0888 89.3891 94.3387 89.3891 92.3967V88.3092L92.808 90.9954C93.2499 91.3443 92.994 91.1292 100.454 93.0421C101.262 93.2456 102.064 92.7456 102.262 91.9606C102.46 91.164 101.977 90.3559 101.181 90.1524L94.401 88.4604L89.5286 84.6288L95.2267 68.8657C95.5872 67.8772 96.6279 67.2958 97.6629 67.5109L116.757 71.581C117.56 71.7555 118.199 72.3834 118.385 73.1858L123.455 95.4551C122.979 95.7225 124.316 94.7399 115.972 101.525C115.182 102.176 114.728 103.136 114.728 104.159C114.618 110.503 114.996 110.921 114.432 111.102L105.157 113.997C104.373 114.241 103.936 115.079 104.181 115.864C104.431 116.666 105.28 117.085 106.047 116.84L115.321 113.945C116.751 113.497 117.711 112.195 117.711 110.695C117.769 104.02 117.571 104.072 117.868 103.834L124.711 98.2285C125.427 99.0658 129.933 103.956 131.915 106.13C132.927 107.235 132.27 106.59 132.596 132.139C132.602 132.958 133.264 133.621 134.084 133.621H134.09C134.91 133.616 135.573 132.947 135.573 132.127L135.451 107.521C135.439 106.259 134.962 105.056 134.113 104.125C126.811 96.0142 126.717 96.3631 126.502 95.4036L121.293 72.5419C120.851 70.6115 119.321 69.0998 117.385 68.687L98.2909 64.6169C95.8139 64.0878 93.2963 65.4891 92.43 67.873L86.7203 83.6643C86.2086 85.0889 86.4993 85.7342 86.4179 92.415C86.4179 93.2232 85.9702 93.95 85.2492 94.3105L77.3068 98.2992C75.8474 99.0318 74.8182 100.433 74.5623 102.044L71.6493 119.987C71.5156 120.79 70.9574 121.435 70.1783 121.674L63.765 123.65C63.1487 123.842 62.4858 123.743 61.9508 123.383L56.2527 119.534C55.241 118.854 54.0142 118.551 52.799 118.697C35.7111 120.522 35.9314 121.168 34.7168 120.243L27.1465 114.458C25.2395 113.004 22.6229 113.062 20.7798 114.597L17.4713 117.371C15.9014 118.685 15.0002 120.615 15.0002 122.662V133.744C14.9885 134.553 15.651 135.215 16.4767 135.215Z" fill="#663366"/>
<path d="M60.6431 119.167C61.1547 119.167 61.649 118.906 61.9281 118.435C76.0977 94.3286 74.6732 97.0436 74.9814 96.1595C75.7489 95.4268 75.5744 94.229 74.5685 93.7755C73.9813 93.0371 75.6326 94.6477 64.277 84.9318C63.7013 84.4376 62.9339 84.2341 62.1024 84.3678L31.4425 90.7403C30.6343 90.9205 29.9947 91.438 29.704 92.0951C23.122 105.631 24.0291 103.422 23.7965 104.311C23.029 105.154 23.4243 106.369 24.407 106.701C24.9942 107.306 24.0581 106.48 40.1582 118.225C40.821 118.708 41.7571 118.556 42.2397 117.894C42.7223 117.231 42.5769 116.3 41.9083 115.812L28.4712 106.067L40.5884 103.549L46.8621 116.562C47.1179 117.091 47.6529 117.405 48.2052 117.405C49.2983 117.405 50.0252 116.26 49.5483 115.271L43.6002 102.927L55.8686 100.381L55.3279 114.074C55.293 114.893 55.9326 115.585 56.7582 115.62C57.5548 115.661 58.2699 115.033 58.3049 114.19L58.8747 99.7528L70.9861 97.2351L59.3689 116.911C58.77 117.917 59.4976 119.167 60.6431 119.167ZM62.4979 87.333L70.6788 94.2697L58.4277 96.8163L55.8229 88.7227L62.4979 87.333ZM52.8983 89.3273L55.4974 97.4209L42.7406 100.072L41.9033 91.6123L52.8983 89.3273ZM32.2753 93.6125L38.9677 92.2228L39.805 100.683L27.5481 103.229L32.2753 93.6125Z" fill="#663366"/>
<path d="M40.9607 128.441C40.1408 128.441 39.4722 129.109 39.4722 129.929V132.464C39.4722 133.819 40.2746 135.052 41.513 135.604L51.1358 139.872C51.8801 140.203 52.7639 139.872 53.1011 139.116C53.4325 138.366 53.0953 137.488 52.3452 137.151C42.606 132.714 42.4491 133.034 42.4491 132.464V129.929C42.4491 129.109 41.7805 128.441 40.9607 128.441Z" fill="#663366"/>
<path d="M60.1609 36.5844C60.8528 36.5844 61.4749 36.096 61.6145 35.3924L66.4172 11.7865C66.644 10.6759 65.5858 9.72821 64.5102 10.0713L63.0973 10.519C57.341 12.3506 53.0151 17.159 51.8173 23.0665L49.7997 32.9918C49.6369 33.7942 50.1544 34.5849 50.9626 34.7477C51.7592 34.9047 52.5499 34.3931 52.7186 33.5849L54.7362 23.6596C55.6491 19.1593 58.7714 15.4381 62.9869 13.7228L58.7017 34.7998C58.5098 35.7185 59.2131 36.5844 60.1609 36.5844Z" fill="#663366"/>
<path d="M48.2232 55.6445C48.386 54.8422 47.8685 54.0514 47.0603 53.8886C46.2637 53.7258 45.4672 54.2432 45.3043 55.0515L43.2867 64.9767C42.0831 70.8842 44.1879 77.0009 48.7697 80.9378L49.8919 81.8971C50.7524 82.6298 52.0898 82.1762 52.3165 81.0599L57.1192 57.4539C57.2821 56.6515 56.7646 55.8608 55.9564 55.6979C55.154 55.5293 54.3632 56.0526 54.2004 56.8608L49.9152 77.9378C46.7057 74.7108 45.2869 70.0651 46.1998 65.5648L48.2232 55.6445Z" fill="#663366"/>
<path d="M122.2 59.2036C122.752 56.4941 121.002 53.8542 118.292 53.302L64.2185 42.3012L64.3813 41.4988C64.6546 40.1673 63.7999 38.8475 62.4451 38.5742L48.8394 35.8065C47.4963 35.539 46.1881 36.3938 45.9148 37.7427L45.8567 38.0334L44.2868 37.7137C41.2924 37.1031 38.3676 39.0335 37.763 42.0337C37.4665 43.4815 37.7572 44.9583 38.5712 46.1911C40.2516 48.7319 42.8448 48.604 43.6531 48.8773L43.5949 49.1622C43.3217 50.5112 44.1938 51.8195 45.5311 52.0868C59.8637 54.9882 59.1834 54.9068 59.6312 54.9068C60.7882 54.9068 61.8233 54.0927 62.0616 52.9183L62.2244 52.1159L116.298 63.1167C118.95 63.6633 121.636 61.977 122.2 59.2036ZM42.6696 45.6385C41.2858 45.3594 40.3905 44.0046 40.6754 42.6209C40.9603 41.2371 42.3093 40.3417 43.693 40.6266L45.2629 40.9464L44.2454 45.9642L42.6696 45.6385ZM59.241 51.8425L46.6062 49.2725L48.7343 38.8182L61.3691 41.3883L59.241 51.8425ZM63.625 45.2141L117.699 56.215C118.798 56.4359 119.507 57.5116 119.28 58.6222C119.059 59.7153 118.001 60.4304 116.891 60.2037L62.8168 49.2028L63.625 45.2141Z" fill="#663366"/>
<path d="M38.1937 77.1175C38.8158 76.5826 38.8914 75.6465 38.3623 75.0184L35.0306 71.1111C34.5015 70.489 33.5595 70.4134 32.9315 70.9425C32.3094 71.4775 32.2338 72.4136 32.7629 73.0416L36.0946 76.9489C36.6295 77.5827 37.5715 77.6524 38.1937 77.1175Z" fill="#663366"/>
<path d="M64.5206 79.7507L69.0907 75.5585C69.6954 75.0003 69.7361 74.0642 69.1837 73.4536C68.6255 72.8489 67.6894 72.8082 67.0788 73.3606L62.5087 77.5528C61.904 78.1109 61.8633 79.0471 62.4157 79.6576C62.9739 80.2681 63.9158 80.3088 64.5206 79.7507Z" fill="#663366"/>
</svg>
