<svg width="150" height="150" viewBox="0 0 150 150" fill="none" xmlns="http://www.w3.org/2000/svg">
<mask id="path-1-outside-1_173_375" maskUnits="userSpaceOnUse" x="9" y="27" width="132" height="96" fill="black">
<rect fill="white" x="9" y="27" width="132" height="96"/>
<path fill-rule="evenodd" clip-rule="evenodd" d="M49.2891 51.7418H16.2158L21.1728 114.077C21.1786 114.135 21.1786 114.192 21.1728 114.244C21.2188 115.632 21.6496 116.727 22.4537 117.53C23.3096 118.385 24.625 118.97 26.3884 119.285H72.1796C73.943 118.97 75.2584 118.385 76.1142 117.53C76.9356 116.71 77.3664 115.58 77.4009 114.152L77.4066 114.072H77.4009L82.3579 51.7361L49.2891 51.7418ZM67.1757 66.3966C67.1929 66.1442 67.3193 65.9205 67.5031 65.7656C67.6811 65.6108 67.9224 65.5247 68.1809 65.5477C68.4336 65.5649 68.6576 65.6911 68.8127 65.8746C68.9678 66.0524 69.0539 66.2933 69.031 66.5514L65.9695 104.999C65.9523 105.251 65.8259 105.475 65.6421 105.635C65.464 105.79 65.2228 105.876 64.9643 105.853C64.7116 105.836 64.4876 105.71 64.3267 105.526C64.1716 105.348 64.0855 105.107 64.1085 104.849L67.1757 66.3966ZM61.4433 104.631L64.5047 66.1837C64.5852 65.1914 65.0619 64.3253 65.7627 63.723C66.4692 63.1208 67.4055 62.7881 68.3934 62.8627C69.3871 62.943 70.2544 63.419 70.8576 64.1188C71.4607 64.8243 71.7939 65.7592 71.7192 66.7458L68.6577 105.193C68.5773 106.185 68.1006 107.051 67.3998 107.654C66.6933 108.256 65.757 108.588 64.769 108.508C63.7753 108.428 62.908 107.952 62.3049 107.252C61.696 106.552 61.3629 105.623 61.4433 104.631ZM49.3121 105.657C49.0536 105.657 48.8238 105.554 48.6515 105.382C48.4792 105.21 48.3758 104.981 48.3758 104.722L48.3701 66.3048C48.3701 66.0467 48.4735 65.8115 48.64 65.6452L48.6458 65.6395C48.8123 65.4731 49.0479 65.3699 49.3063 65.3699C49.5648 65.3699 49.7946 65.4731 49.9669 65.6452C50.1392 65.8173 50.2426 66.0467 50.2426 66.3048V104.723C50.2426 104.981 50.1392 105.216 49.9726 105.382L49.9669 105.388C49.8003 105.554 49.5648 105.657 49.3121 105.657ZM49.3121 108.342C48.3126 108.342 47.4051 107.934 46.7503 107.281C46.0955 106.627 45.6876 105.72 45.6876 104.722L45.6819 66.3047C45.6819 65.3125 46.0897 64.4119 46.7445 63.7523L46.7503 63.7466V63.7409C47.4108 63.087 48.3126 62.6797 49.3063 62.6797C50.3058 62.6797 51.2134 63.087 51.8682 63.7409C52.523 64.3947 52.9308 65.301 52.9308 66.299V104.717C52.9308 105.709 52.523 106.615 51.8682 107.269L51.8624 107.275C51.2076 107.934 50.3058 108.342 49.3121 108.342ZM29.5125 66.1841C29.4953 65.926 29.5757 65.6851 29.7308 65.5073C29.8859 65.3238 30.1099 65.2033 30.3626 65.1804C30.6211 65.1632 30.8566 65.2435 31.0404 65.3983C31.2242 65.5532 31.3448 65.7769 31.3678 66.035L34.4293 104.482C34.4465 104.74 34.3661 104.981 34.211 105.159C34.0559 105.342 33.8319 105.463 33.5792 105.486C33.3207 105.503 33.0852 105.423 32.9014 105.268C32.7176 105.113 32.5969 104.889 32.574 104.631L29.5125 66.1841ZM29.8916 104.843L26.8359 66.3956C26.7554 65.409 27.0943 64.4741 27.6917 63.7686C28.2948 63.0631 29.1621 62.587 30.1559 62.5124C31.1438 62.4321 32.0801 62.7705 32.7867 63.3671C33.4874 63.9693 33.9699 64.8354 34.0446 65.8277L37.1061 104.275C37.1865 105.267 36.8476 106.196 36.2445 106.902C35.6413 107.607 34.774 108.083 33.7803 108.158C32.7923 108.238 31.8561 107.9 31.1495 107.303C30.4487 106.701 29.972 105.835 29.8916 104.843ZM103.333 67.0206C103.282 66.9461 103.236 66.8658 103.207 66.7798C102.472 64.996 102.064 63.4989 101.984 62.2887C101.903 61.1186 102.121 60.1608 102.633 59.4151C103.184 58.6064 104.011 58.1131 105.12 57.9353C105.671 57.8493 106.292 57.8378 106.987 57.9124C107.578 57.1438 108.457 56.576 109.485 56.1859C110.582 55.7787 111.863 55.5722 113.127 55.5722C114.391 55.5722 115.671 55.7787 116.769 56.1859C117.797 56.5702 118.676 57.1438 119.267 57.9124C119.956 57.8378 120.582 57.8493 121.134 57.9353C122.242 58.1131 123.07 58.6122 123.621 59.4151C124.132 60.1608 124.345 61.1187 124.27 62.2887C124.19 63.4989 123.782 65.0017 123.047 66.7798C123.012 66.8658 122.966 66.9461 122.92 67.0206C123.07 67.4623 123.156 67.9384 123.156 68.4316C123.156 69.3207 122.891 70.1467 122.432 70.8406C129.928 75.1022 135.861 83.1838 138.498 91.6441C139.894 96.1237 140.376 100.729 139.693 104.957C138.998 109.27 137.097 113.182 133.731 116.187C129.434 120.019 122.783 122.319 113.247 121.963H113.023C110.433 122.06 108.072 121.963 105.93 121.699C103.827 121.441 101.914 121.017 100.186 120.454C96.6704 121.596 92.4199 122.152 87.3594 121.963H87.1354C84.901 122.043 82.8331 121.986 80.9146 121.791C79.111 121.613 77.4395 121.315 75.906 120.913C74.964 121.372 73.8727 121.711 72.6204 121.928C72.517 121.951 72.4136 121.969 72.3045 121.969H26.2898C26.2151 121.969 26.1462 121.963 26.0715 121.951C23.6706 121.544 21.8325 120.707 20.5573 119.434C19.2535 118.132 18.5699 116.428 18.5011 114.323L18.4953 114.289L13.5211 51.7401H11.3441C10.6031 51.7401 10 51.1379 10 50.398V45.1555C10 43.343 10.741 41.6969 11.9357 40.5038C13.1304 39.3108 14.779 38.5709 16.5941 38.5709H20.9997V37.3492C20.9997 36.2881 21.4305 35.3188 22.1312 34.6132L22.1427 34.596L22.1542 34.5846C22.8665 33.8791 23.8429 33.4374 24.9113 33.4374H36.0717V33.3399C36.0717 31.8658 36.6748 30.5294 37.6455 29.5658L37.6513 29.5716C38.622 28.6022 39.9603 28 41.4308 28H57.141C58.5713 28 59.8752 28.5678 60.8401 29.4912C60.8688 29.5142 60.8975 29.5429 60.9263 29.5658C61.897 30.5352 62.5001 31.8715 62.5001 33.3399V33.4374H73.6605C74.7231 33.4374 75.6938 33.8676 76.4004 34.5673L76.4291 34.596C77.1356 35.3072 77.5779 36.2823 77.5779 37.3491V38.5709H81.9835C83.7986 38.5709 85.4471 39.3108 86.6419 40.5038L86.6361 40.5095L86.6419 40.5153C87.8366 41.7083 88.5776 43.3544 88.5776 45.1612V50.4037C88.5776 51.1436 87.9744 51.7458 87.2335 51.7458L85.0565 51.7401L84.7291 55.8469C86.1766 55.5199 87.8136 55.4855 89.2784 55.7551C90.9727 56.0648 92.4892 56.7761 93.368 57.9059C94.0572 57.8314 94.6833 57.8428 95.2347 57.9289C96.3433 58.1067 97.1704 58.6057 97.7218 59.4087C98.233 60.1543 98.4455 61.1122 98.3709 62.2822C98.2905 63.4925 97.8826 64.9953 97.1474 66.7733C97.113 66.8593 97.067 66.9396 97.021 67.0142C97.1704 67.4558 97.2566 67.9319 97.2566 68.4252C97.2566 69.3142 96.9866 70.1402 96.5328 70.8341C97.7965 71.5511 99.0142 72.3771 100.18 73.2948C100.778 72.8245 101.398 72.3713 102.03 71.9469C102.616 71.5511 103.219 71.1783 103.833 70.8284C103.374 70.1344 103.11 69.3084 103.11 68.4195C103.098 67.9377 103.184 67.4623 103.333 67.0206ZM120.979 64.6575C121.335 63.648 121.536 62.7934 121.582 62.1051C121.616 61.5487 121.559 61.1529 121.398 60.9178C121.277 60.7457 121.042 60.6253 120.697 60.5679C120.221 60.4934 119.595 60.5278 118.819 60.6769V60.6712C118.187 60.7916 117.544 60.4475 117.314 59.8223C117.136 59.3405 116.573 58.9562 115.832 58.6809C115.051 58.3883 114.098 58.2449 113.127 58.2449C112.156 58.2449 111.203 58.3941 110.422 58.6809C109.704 58.9504 109.164 59.3175 108.963 59.7764C108.756 60.4073 108.107 60.8031 107.435 60.6769C106.659 60.5278 106.028 60.4876 105.557 60.5679C105.206 60.6253 104.971 60.74 104.856 60.9178C104.695 61.153 104.632 61.5487 104.672 62.1051C104.718 62.7991 104.919 63.648 105.275 64.6575C105.93 64.2732 106.694 64.0495 107.509 64.0495H118.762C119.56 64.0438 120.324 64.2732 120.979 64.6575ZM99.6396 117.81C96.3655 118.923 92.3276 119.473 87.4338 119.29H87.0259C84.9179 119.37 82.965 119.307 81.1614 119.129C80.271 119.043 79.4152 118.923 78.5995 118.774C79.5358 117.563 80.0298 116.066 80.0815 114.288L83.3785 72.8193H85.7162C87.5485 74.8957 88.9443 77.2072 89.892 79.7539C90.9202 82.5127 91.4371 85.5527 91.4371 88.8852C91.4371 89.6251 92.0345 90.2216 92.7755 90.2216C93.5164 90.2216 94.1138 89.6194 94.1138 88.8852C94.1081 85.2315 93.5394 81.8762 92.4021 78.819C91.5979 76.6681 90.5181 74.6664 89.1625 72.8195H92.8616C92.9994 72.8195 93.1315 72.8137 93.2637 72.8023L94.5561 72.8137C96.1988 73.6798 97.7612 74.7524 99.2316 75.9857C99.2833 76.0373 99.3408 76.0832 99.3982 76.1291C104.292 80.2931 108.1 86.2583 110.03 92.4467C111.311 96.5478 111.759 100.741 111.145 104.543C110.541 108.266 108.916 111.638 106.044 114.197C104.407 115.659 102.351 116.869 99.8463 117.747C99.7716 117.758 99.7028 117.781 99.6396 117.81ZM104.218 118.722C104.867 118.848 105.539 118.951 106.234 119.037C108.273 119.29 110.496 119.382 112.908 119.296H113.322C122.093 119.622 128.123 117.592 131.926 114.196C134.798 111.633 136.423 108.266 137.027 104.543C137.641 100.735 137.193 96.5477 135.912 92.4466C133.385 84.3364 127.641 76.6223 120.439 72.8134L119.146 72.8019C119.014 72.8134 118.876 72.8192 118.744 72.8192H116.533C118.227 74.6202 119.514 76.4843 120.399 78.4229C121.708 81.3022 122.116 84.3135 121.639 87.4566C121.53 88.1908 120.847 88.6955 120.111 88.5865C119.376 88.4776 118.871 87.795 118.98 87.0608C119.382 84.4338 119.037 81.9216 117.952 79.5241C116.895 77.1954 115.137 74.9641 112.679 72.819H107.498C107.36 72.819 107.228 72.8133 107.09 72.8018L105.798 72.8133C105.028 73.2205 104.264 73.6794 103.517 74.1841C103.092 74.4709 102.667 74.7749 102.248 75.0904C106.998 79.5241 110.668 85.4835 112.593 91.6489C113.988 96.1285 114.471 100.734 113.787 104.961C113.092 109.275 111.191 113.187 107.825 116.192C106.768 117.133 105.567 117.982 104.218 118.722ZM107.365 70.1287L113.121 70.1L118.876 70.1287C119.296 70.1 119.669 69.9165 119.95 69.6354L119.956 69.6297L119.95 69.6239C120.26 69.3142 120.45 68.8898 120.45 68.4252C120.45 67.9606 120.255 67.5361 119.95 67.2264L119.899 67.169C119.594 66.8937 119.192 66.7216 118.75 66.7216H107.498C107.032 66.7216 106.607 66.9167 106.297 67.2206C105.987 67.5304 105.797 67.9548 105.797 68.4194C105.797 68.884 105.993 69.3084 106.297 69.6182C106.573 69.9107 106.946 70.0943 107.365 70.1287ZM95.0904 64.6567C95.4465 63.6473 95.6475 62.7984 95.6935 62.1043C95.728 61.548 95.6705 61.1522 95.5097 60.917C95.3891 60.745 95.1536 60.6245 94.8089 60.5672C94.3322 60.4926 93.7061 60.527 92.9307 60.6761V60.6704C92.2989 60.7909 91.6556 60.4467 91.4259 59.8215L91.4029 59.7642C91.0927 59.0701 90.0588 58.5998 88.8181 58.3761C87.4109 58.118 85.8255 58.2155 84.5963 58.6572L84.5446 58.6801L84.5159 58.6916L84.0909 64.0372H92.8734C93.6718 64.043 94.4356 64.2667 95.0904 64.6567ZM83.5968 70.1172L85.2969 70.1115L86.2217 70.1058H86.3366C86.9224 70.1 86.9914 70.1 87.2441 70.1L92.9996 70.1287C93.4189 70.0943 93.7922 69.9107 94.0737 69.6354C94.3839 69.3257 94.5734 68.9012 94.5734 68.4366C94.5734 67.972 94.3839 67.5476 94.0737 67.2379C93.7635 66.9281 93.3385 66.7389 92.8732 66.7389H83.8782L83.5968 70.1172ZM22.3497 41.2496H16.5999C15.5258 41.2496 14.5494 41.6913 13.8371 42.3968C13.1306 43.1023 12.6883 44.083 12.6883 45.1499V49.056H85.8828V45.1499C85.8828 44.0773 85.4405 43.1023 84.734 42.391V42.3968C84.0275 41.6913 83.0453 41.2496 81.9712 41.2496H70.2823C69.5413 41.2496 68.9382 40.6474 68.9382 39.9075C68.9382 39.1676 69.5413 38.5653 70.2823 38.5653H74.8717V37.3436C74.8717 37.0052 74.7339 36.7012 74.5156 36.4833L74.5098 36.4775C74.2916 36.2596 73.9871 36.1219 73.6482 36.1219H24.9161C24.5772 36.1219 24.2728 36.2596 24.0545 36.4775L24.0488 36.4833C23.8305 36.7012 23.6927 37.0052 23.6927 37.3436V38.5653H28.2821C29.0231 38.5653 29.6262 39.1676 29.6262 39.9075C29.6262 40.6474 29.023 41.2496 28.2821 41.2496L22.3497 41.2496ZM38.7657 33.4433H59.8064V33.3458C59.8064 32.6174 59.5077 31.952 59.0195 31.4703L58.962 31.4072C58.4853 30.9598 57.8419 30.6845 57.1354 30.6845L41.431 30.6788C40.6958 30.6788 40.0295 30.977 39.5528 31.4531L39.5471 31.4588L39.5528 31.4646C39.0703 31.9464 38.7659 32.6117 38.7659 33.3401L38.7657 33.4433ZM33.3263 41.2496H65.2512C65.9921 41.2496 66.5952 40.6474 66.5952 39.9075C66.5952 39.1676 65.9921 38.5653 65.2512 38.5653H33.3263C32.5853 38.5653 31.9822 39.1676 31.9822 39.9075C31.9822 40.6474 32.5853 41.2496 33.3263 41.2496Z"/>
</mask>
<path fill-rule="evenodd" clip-rule="evenodd" d="M49.2891 51.7418H16.2158L21.1728 114.077C21.1786 114.135 21.1786 114.192 21.1728 114.244C21.2188 115.632 21.6496 116.727 22.4537 117.53C23.3096 118.385 24.625 118.97 26.3884 119.285H72.1796C73.943 118.97 75.2584 118.385 76.1142 117.53C76.9356 116.71 77.3664 115.58 77.4009 114.152L77.4066 114.072H77.4009L82.3579 51.7361L49.2891 51.7418ZM67.1757 66.3966C67.1929 66.1442 67.3193 65.9205 67.5031 65.7656C67.6811 65.6108 67.9224 65.5247 68.1809 65.5477C68.4336 65.5649 68.6576 65.6911 68.8127 65.8746C68.9678 66.0524 69.0539 66.2933 69.031 66.5514L65.9695 104.999C65.9523 105.251 65.8259 105.475 65.6421 105.635C65.464 105.79 65.2228 105.876 64.9643 105.853C64.7116 105.836 64.4876 105.71 64.3267 105.526C64.1716 105.348 64.0855 105.107 64.1085 104.849L67.1757 66.3966ZM61.4433 104.631L64.5047 66.1837C64.5852 65.1914 65.0619 64.3253 65.7627 63.723C66.4692 63.1208 67.4055 62.7881 68.3934 62.8627C69.3871 62.943 70.2544 63.419 70.8576 64.1188C71.4607 64.8243 71.7939 65.7592 71.7192 66.7458L68.6577 105.193C68.5773 106.185 68.1006 107.051 67.3998 107.654C66.6933 108.256 65.757 108.588 64.769 108.508C63.7753 108.428 62.908 107.952 62.3049 107.252C61.696 106.552 61.3629 105.623 61.4433 104.631ZM49.3121 105.657C49.0536 105.657 48.8238 105.554 48.6515 105.382C48.4792 105.21 48.3758 104.981 48.3758 104.722L48.3701 66.3048C48.3701 66.0467 48.4735 65.8115 48.64 65.6452L48.6458 65.6395C48.8123 65.4731 49.0479 65.3699 49.3063 65.3699C49.5648 65.3699 49.7946 65.4731 49.9669 65.6452C50.1392 65.8173 50.2426 66.0467 50.2426 66.3048V104.723C50.2426 104.981 50.1392 105.216 49.9726 105.382L49.9669 105.388C49.8003 105.554 49.5648 105.657 49.3121 105.657ZM49.3121 108.342C48.3126 108.342 47.4051 107.934 46.7503 107.281C46.0955 106.627 45.6876 105.72 45.6876 104.722L45.6819 66.3047C45.6819 65.3125 46.0897 64.4119 46.7445 63.7523L46.7503 63.7466V63.7409C47.4108 63.087 48.3126 62.6797 49.3063 62.6797C50.3058 62.6797 51.2134 63.087 51.8682 63.7409C52.523 64.3947 52.9308 65.301 52.9308 66.299V104.717C52.9308 105.709 52.523 106.615 51.8682 107.269L51.8624 107.275C51.2076 107.934 50.3058 108.342 49.3121 108.342ZM29.5125 66.1841C29.4953 65.926 29.5757 65.6851 29.7308 65.5073C29.8859 65.3238 30.1099 65.2033 30.3626 65.1804C30.6211 65.1632 30.8566 65.2435 31.0404 65.3983C31.2242 65.5532 31.3448 65.7769 31.3678 66.035L34.4293 104.482C34.4465 104.74 34.3661 104.981 34.211 105.159C34.0559 105.342 33.8319 105.463 33.5792 105.486C33.3207 105.503 33.0852 105.423 32.9014 105.268C32.7176 105.113 32.5969 104.889 32.574 104.631L29.5125 66.1841ZM29.8916 104.843L26.8359 66.3956C26.7554 65.409 27.0943 64.4741 27.6917 63.7686C28.2948 63.0631 29.1621 62.587 30.1559 62.5124C31.1438 62.4321 32.0801 62.7705 32.7867 63.3671C33.4874 63.9693 33.9699 64.8354 34.0446 65.8277L37.1061 104.275C37.1865 105.267 36.8476 106.196 36.2445 106.902C35.6413 107.607 34.774 108.083 33.7803 108.158C32.7923 108.238 31.8561 107.9 31.1495 107.303C30.4487 106.701 29.972 105.835 29.8916 104.843ZM103.333 67.0206C103.282 66.9461 103.236 66.8658 103.207 66.7798C102.472 64.996 102.064 63.4989 101.984 62.2887C101.903 61.1186 102.121 60.1608 102.633 59.4151C103.184 58.6064 104.011 58.1131 105.12 57.9353C105.671 57.8493 106.292 57.8378 106.987 57.9124C107.578 57.1438 108.457 56.576 109.485 56.1859C110.582 55.7787 111.863 55.5722 113.127 55.5722C114.391 55.5722 115.671 55.7787 116.769 56.1859C117.797 56.5702 118.676 57.1438 119.267 57.9124C119.956 57.8378 120.582 57.8493 121.134 57.9353C122.242 58.1131 123.07 58.6122 123.621 59.4151C124.132 60.1608 124.345 61.1187 124.27 62.2887C124.19 63.4989 123.782 65.0017 123.047 66.7798C123.012 66.8658 122.966 66.9461 122.92 67.0206C123.07 67.4623 123.156 67.9384 123.156 68.4316C123.156 69.3207 122.891 70.1467 122.432 70.8406C129.928 75.1022 135.861 83.1838 138.498 91.6441C139.894 96.1237 140.376 100.729 139.693 104.957C138.998 109.27 137.097 113.182 133.731 116.187C129.434 120.019 122.783 122.319 113.247 121.963H113.023C110.433 122.06 108.072 121.963 105.93 121.699C103.827 121.441 101.914 121.017 100.186 120.454C96.6704 121.596 92.4199 122.152 87.3594 121.963H87.1354C84.901 122.043 82.8331 121.986 80.9146 121.791C79.111 121.613 77.4395 121.315 75.906 120.913C74.964 121.372 73.8727 121.711 72.6204 121.928C72.517 121.951 72.4136 121.969 72.3045 121.969H26.2898C26.2151 121.969 26.1462 121.963 26.0715 121.951C23.6706 121.544 21.8325 120.707 20.5573 119.434C19.2535 118.132 18.5699 116.428 18.5011 114.323L18.4953 114.289L13.5211 51.7401H11.3441C10.6031 51.7401 10 51.1379 10 50.398V45.1555C10 43.343 10.741 41.6969 11.9357 40.5038C13.1304 39.3108 14.779 38.5709 16.5941 38.5709H20.9997V37.3492C20.9997 36.2881 21.4305 35.3188 22.1312 34.6132L22.1427 34.596L22.1542 34.5846C22.8665 33.8791 23.8429 33.4374 24.9113 33.4374H36.0717V33.3399C36.0717 31.8658 36.6748 30.5294 37.6455 29.5658L37.6513 29.5716C38.622 28.6022 39.9603 28 41.4308 28H57.141C58.5713 28 59.8752 28.5678 60.8401 29.4912C60.8688 29.5142 60.8975 29.5429 60.9263 29.5658C61.897 30.5352 62.5001 31.8715 62.5001 33.3399V33.4374H73.6605C74.7231 33.4374 75.6938 33.8676 76.4004 34.5673L76.4291 34.596C77.1356 35.3072 77.5779 36.2823 77.5779 37.3491V38.5709H81.9835C83.7986 38.5709 85.4471 39.3108 86.6419 40.5038L86.6361 40.5095L86.6419 40.5153C87.8366 41.7083 88.5776 43.3544 88.5776 45.1612V50.4037C88.5776 51.1436 87.9744 51.7458 87.2335 51.7458L85.0565 51.7401L84.7291 55.8469C86.1766 55.5199 87.8136 55.4855 89.2784 55.7551C90.9727 56.0648 92.4892 56.7761 93.368 57.9059C94.0572 57.8314 94.6833 57.8428 95.2347 57.9289C96.3433 58.1067 97.1704 58.6057 97.7218 59.4087C98.233 60.1543 98.4455 61.1122 98.3709 62.2822C98.2905 63.4925 97.8826 64.9953 97.1474 66.7733C97.113 66.8593 97.067 66.9396 97.021 67.0142C97.1704 67.4558 97.2566 67.9319 97.2566 68.4252C97.2566 69.3142 96.9866 70.1402 96.5328 70.8341C97.7965 71.5511 99.0142 72.3771 100.18 73.2948C100.778 72.8245 101.398 72.3713 102.03 71.9469C102.616 71.5511 103.219 71.1783 103.833 70.8284C103.374 70.1344 103.11 69.3084 103.11 68.4195C103.098 67.9377 103.184 67.4623 103.333 67.0206ZM120.979 64.6575C121.335 63.648 121.536 62.7934 121.582 62.1051C121.616 61.5487 121.559 61.1529 121.398 60.9178C121.277 60.7457 121.042 60.6253 120.697 60.5679C120.221 60.4934 119.595 60.5278 118.819 60.6769V60.6712C118.187 60.7916 117.544 60.4475 117.314 59.8223C117.136 59.3405 116.573 58.9562 115.832 58.6809C115.051 58.3883 114.098 58.2449 113.127 58.2449C112.156 58.2449 111.203 58.3941 110.422 58.6809C109.704 58.9504 109.164 59.3175 108.963 59.7764C108.756 60.4073 108.107 60.8031 107.435 60.6769C106.659 60.5278 106.028 60.4876 105.557 60.5679C105.206 60.6253 104.971 60.74 104.856 60.9178C104.695 61.153 104.632 61.5487 104.672 62.1051C104.718 62.7991 104.919 63.648 105.275 64.6575C105.93 64.2732 106.694 64.0495 107.509 64.0495H118.762C119.56 64.0438 120.324 64.2732 120.979 64.6575ZM99.6396 117.81C96.3655 118.923 92.3276 119.473 87.4338 119.29H87.0259C84.9179 119.37 82.965 119.307 81.1614 119.129C80.271 119.043 79.4152 118.923 78.5995 118.774C79.5358 117.563 80.0298 116.066 80.0815 114.288L83.3785 72.8193H85.7162C87.5485 74.8957 88.9443 77.2072 89.892 79.7539C90.9202 82.5127 91.4371 85.5527 91.4371 88.8852C91.4371 89.6251 92.0345 90.2216 92.7755 90.2216C93.5164 90.2216 94.1138 89.6194 94.1138 88.8852C94.1081 85.2315 93.5394 81.8762 92.4021 78.819C91.5979 76.6681 90.5181 74.6664 89.1625 72.8195H92.8616C92.9994 72.8195 93.1315 72.8137 93.2637 72.8023L94.5561 72.8137C96.1988 73.6798 97.7612 74.7524 99.2316 75.9857C99.2833 76.0373 99.3408 76.0832 99.3982 76.1291C104.292 80.2931 108.1 86.2583 110.03 92.4467C111.311 96.5478 111.759 100.741 111.145 104.543C110.541 108.266 108.916 111.638 106.044 114.197C104.407 115.659 102.351 116.869 99.8463 117.747C99.7716 117.758 99.7028 117.781 99.6396 117.81ZM104.218 118.722C104.867 118.848 105.539 118.951 106.234 119.037C108.273 119.29 110.496 119.382 112.908 119.296H113.322C122.093 119.622 128.123 117.592 131.926 114.196C134.798 111.633 136.423 108.266 137.027 104.543C137.641 100.735 137.193 96.5477 135.912 92.4466C133.385 84.3364 127.641 76.6223 120.439 72.8134L119.146 72.8019C119.014 72.8134 118.876 72.8192 118.744 72.8192H116.533C118.227 74.6202 119.514 76.4843 120.399 78.4229C121.708 81.3022 122.116 84.3135 121.639 87.4566C121.53 88.1908 120.847 88.6955 120.111 88.5865C119.376 88.4776 118.871 87.795 118.98 87.0608C119.382 84.4338 119.037 81.9216 117.952 79.5241C116.895 77.1954 115.137 74.9641 112.679 72.819H107.498C107.36 72.819 107.228 72.8133 107.09 72.8018L105.798 72.8133C105.028 73.2205 104.264 73.6794 103.517 74.1841C103.092 74.4709 102.667 74.7749 102.248 75.0904C106.998 79.5241 110.668 85.4835 112.593 91.6489C113.988 96.1285 114.471 100.734 113.787 104.961C113.092 109.275 111.191 113.187 107.825 116.192C106.768 117.133 105.567 117.982 104.218 118.722ZM107.365 70.1287L113.121 70.1L118.876 70.1287C119.296 70.1 119.669 69.9165 119.95 69.6354L119.956 69.6297L119.95 69.6239C120.26 69.3142 120.45 68.8898 120.45 68.4252C120.45 67.9606 120.255 67.5361 119.95 67.2264L119.899 67.169C119.594 66.8937 119.192 66.7216 118.75 66.7216H107.498C107.032 66.7216 106.607 66.9167 106.297 67.2206C105.987 67.5304 105.797 67.9548 105.797 68.4194C105.797 68.884 105.993 69.3084 106.297 69.6182C106.573 69.9107 106.946 70.0943 107.365 70.1287ZM95.0904 64.6567C95.4465 63.6473 95.6475 62.7984 95.6935 62.1043C95.728 61.548 95.6705 61.1522 95.5097 60.917C95.3891 60.745 95.1536 60.6245 94.8089 60.5672C94.3322 60.4926 93.7061 60.527 92.9307 60.6761V60.6704C92.2989 60.7909 91.6556 60.4467 91.4259 59.8215L91.4029 59.7642C91.0927 59.0701 90.0588 58.5998 88.8181 58.3761C87.4109 58.118 85.8255 58.2155 84.5963 58.6572L84.5446 58.6801L84.5159 58.6916L84.0909 64.0372H92.8734C93.6718 64.043 94.4356 64.2667 95.0904 64.6567ZM83.5968 70.1172L85.2969 70.1115L86.2217 70.1058H86.3366C86.9224 70.1 86.9914 70.1 87.2441 70.1L92.9996 70.1287C93.4189 70.0943 93.7922 69.9107 94.0737 69.6354C94.3839 69.3257 94.5734 68.9012 94.5734 68.4366C94.5734 67.972 94.3839 67.5476 94.0737 67.2379C93.7635 66.9281 93.3385 66.7389 92.8732 66.7389H83.8782L83.5968 70.1172ZM22.3497 41.2496H16.5999C15.5258 41.2496 14.5494 41.6913 13.8371 42.3968C13.1306 43.1023 12.6883 44.083 12.6883 45.1499V49.056H85.8828V45.1499C85.8828 44.0773 85.4405 43.1023 84.734 42.391V42.3968C84.0275 41.6913 83.0453 41.2496 81.9712 41.2496H70.2823C69.5413 41.2496 68.9382 40.6474 68.9382 39.9075C68.9382 39.1676 69.5413 38.5653 70.2823 38.5653H74.8717V37.3436C74.8717 37.0052 74.7339 36.7012 74.5156 36.4833L74.5098 36.4775C74.2916 36.2596 73.9871 36.1219 73.6482 36.1219H24.9161C24.5772 36.1219 24.2728 36.2596 24.0545 36.4775L24.0488 36.4833C23.8305 36.7012 23.6927 37.0052 23.6927 37.3436V38.5653H28.2821C29.0231 38.5653 29.6262 39.1676 29.6262 39.9075C29.6262 40.6474 29.023 41.2496 28.2821 41.2496L22.3497 41.2496ZM38.7657 33.4433H59.8064V33.3458C59.8064 32.6174 59.5077 31.952 59.0195 31.4703L58.962 31.4072C58.4853 30.9598 57.8419 30.6845 57.1354 30.6845L41.431 30.6788C40.6958 30.6788 40.0295 30.977 39.5528 31.4531L39.5471 31.4588L39.5528 31.4646C39.0703 31.9464 38.7659 32.6117 38.7659 33.3401L38.7657 33.4433ZM33.3263 41.2496H65.2512C65.9921 41.2496 66.5952 40.6474 66.5952 39.9075C66.5952 39.1676 65.9921 38.5653 65.2512 38.5653H33.3263C32.5853 38.5653 31.9822 39.1676 31.9822 39.9075C31.9822 40.6474 32.5853 41.2496 33.3263 41.2496Z" fill="#663366"/>
<path fill-rule="evenodd" clip-rule="evenodd" d="M49.2891 51.7418H16.2158L21.1728 114.077C21.1786 114.135 21.1786 114.192 21.1728 114.244C21.2188 115.632 21.6496 116.727 22.4537 117.53C23.3096 118.385 24.625 118.97 26.3884 119.285H72.1796C73.943 118.97 75.2584 118.385 76.1142 117.53C76.9356 116.71 77.3664 115.58 77.4009 114.152L77.4066 114.072H77.4009L82.3579 51.7361L49.2891 51.7418ZM67.1757 66.3966C67.1929 66.1442 67.3193 65.9205 67.5031 65.7656C67.6811 65.6108 67.9224 65.5247 68.1809 65.5477C68.4336 65.5649 68.6576 65.6911 68.8127 65.8746C68.9678 66.0524 69.0539 66.2933 69.031 66.5514L65.9695 104.999C65.9523 105.251 65.8259 105.475 65.6421 105.635C65.464 105.79 65.2228 105.876 64.9643 105.853C64.7116 105.836 64.4876 105.71 64.3267 105.526C64.1716 105.348 64.0855 105.107 64.1085 104.849L67.1757 66.3966ZM61.4433 104.631L64.5047 66.1837C64.5852 65.1914 65.0619 64.3253 65.7627 63.723C66.4692 63.1208 67.4055 62.7881 68.3934 62.8627C69.3871 62.943 70.2544 63.419 70.8576 64.1188C71.4607 64.8243 71.7939 65.7592 71.7192 66.7458L68.6577 105.193C68.5773 106.185 68.1006 107.051 67.3998 107.654C66.6933 108.256 65.757 108.588 64.769 108.508C63.7753 108.428 62.908 107.952 62.3049 107.252C61.696 106.552 61.3629 105.623 61.4433 104.631ZM49.3121 105.657C49.0536 105.657 48.8238 105.554 48.6515 105.382C48.4792 105.21 48.3758 104.981 48.3758 104.722L48.3701 66.3048C48.3701 66.0467 48.4735 65.8115 48.64 65.6452L48.6458 65.6395C48.8123 65.4731 49.0479 65.3699 49.3063 65.3699C49.5648 65.3699 49.7946 65.4731 49.9669 65.6452C50.1392 65.8173 50.2426 66.0467 50.2426 66.3048V104.723C50.2426 104.981 50.1392 105.216 49.9726 105.382L49.9669 105.388C49.8003 105.554 49.5648 105.657 49.3121 105.657ZM49.3121 108.342C48.3126 108.342 47.4051 107.934 46.7503 107.281C46.0955 106.627 45.6876 105.72 45.6876 104.722L45.6819 66.3047C45.6819 65.3125 46.0897 64.4119 46.7445 63.7523L46.7503 63.7466V63.7409C47.4108 63.087 48.3126 62.6797 49.3063 62.6797C50.3058 62.6797 51.2134 63.087 51.8682 63.7409C52.523 64.3947 52.9308 65.301 52.9308 66.299V104.717C52.9308 105.709 52.523 106.615 51.8682 107.269L51.8624 107.275C51.2076 107.934 50.3058 108.342 49.3121 108.342ZM29.5125 66.1841C29.4953 65.926 29.5757 65.6851 29.7308 65.5073C29.8859 65.3238 30.1099 65.2033 30.3626 65.1804C30.6211 65.1632 30.8566 65.2435 31.0404 65.3983C31.2242 65.5532 31.3448 65.7769 31.3678 66.035L34.4293 104.482C34.4465 104.74 34.3661 104.981 34.211 105.159C34.0559 105.342 33.8319 105.463 33.5792 105.486C33.3207 105.503 33.0852 105.423 32.9014 105.268C32.7176 105.113 32.5969 104.889 32.574 104.631L29.5125 66.1841ZM29.8916 104.843L26.8359 66.3956C26.7554 65.409 27.0943 64.4741 27.6917 63.7686C28.2948 63.0631 29.1621 62.587 30.1559 62.5124C31.1438 62.4321 32.0801 62.7705 32.7867 63.3671C33.4874 63.9693 33.9699 64.8354 34.0446 65.8277L37.1061 104.275C37.1865 105.267 36.8476 106.196 36.2445 106.902C35.6413 107.607 34.774 108.083 33.7803 108.158C32.7923 108.238 31.8561 107.9 31.1495 107.303C30.4487 106.701 29.972 105.835 29.8916 104.843ZM103.333 67.0206C103.282 66.9461 103.236 66.8658 103.207 66.7798C102.472 64.996 102.064 63.4989 101.984 62.2887C101.903 61.1186 102.121 60.1608 102.633 59.4151C103.184 58.6064 104.011 58.1131 105.12 57.9353C105.671 57.8493 106.292 57.8378 106.987 57.9124C107.578 57.1438 108.457 56.576 109.485 56.1859C110.582 55.7787 111.863 55.5722 113.127 55.5722C114.391 55.5722 115.671 55.7787 116.769 56.1859C117.797 56.5702 118.676 57.1438 119.267 57.9124C119.956 57.8378 120.582 57.8493 121.134 57.9353C122.242 58.1131 123.07 58.6122 123.621 59.4151C124.132 60.1608 124.345 61.1187 124.27 62.2887C124.19 63.4989 123.782 65.0017 123.047 66.7798C123.012 66.8658 122.966 66.9461 122.92 67.0206C123.07 67.4623 123.156 67.9384 123.156 68.4316C123.156 69.3207 122.891 70.1467 122.432 70.8406C129.928 75.1022 135.861 83.1838 138.498 91.6441C139.894 96.1237 140.376 100.729 139.693 104.957C138.998 109.27 137.097 113.182 133.731 116.187C129.434 120.019 122.783 122.319 113.247 121.963H113.023C110.433 122.06 108.072 121.963 105.93 121.699C103.827 121.441 101.914 121.017 100.186 120.454C96.6704 121.596 92.4199 122.152 87.3594 121.963H87.1354C84.901 122.043 82.8331 121.986 80.9146 121.791C79.111 121.613 77.4395 121.315 75.906 120.913C74.964 121.372 73.8727 121.711 72.6204 121.928C72.517 121.951 72.4136 121.969 72.3045 121.969H26.2898C26.2151 121.969 26.1462 121.963 26.0715 121.951C23.6706 121.544 21.8325 120.707 20.5573 119.434C19.2535 118.132 18.5699 116.428 18.5011 114.323L18.4953 114.289L13.5211 51.7401H11.3441C10.6031 51.7401 10 51.1379 10 50.398V45.1555C10 43.343 10.741 41.6969 11.9357 40.5038C13.1304 39.3108 14.779 38.5709 16.5941 38.5709H20.9997V37.3492C20.9997 36.2881 21.4305 35.3188 22.1312 34.6132L22.1427 34.596L22.1542 34.5846C22.8665 33.8791 23.8429 33.4374 24.9113 33.4374H36.0717V33.3399C36.0717 31.8658 36.6748 30.5294 37.6455 29.5658L37.6513 29.5716C38.622 28.6022 39.9603 28 41.4308 28H57.141C58.5713 28 59.8752 28.5678 60.8401 29.4912C60.8688 29.5142 60.8975 29.5429 60.9263 29.5658C61.897 30.5352 62.5001 31.8715 62.5001 33.3399V33.4374H73.6605C74.7231 33.4374 75.6938 33.8676 76.4004 34.5673L76.4291 34.596C77.1356 35.3072 77.5779 36.2823 77.5779 37.3491V38.5709H81.9835C83.7986 38.5709 85.4471 39.3108 86.6419 40.5038L86.6361 40.5095L86.6419 40.5153C87.8366 41.7083 88.5776 43.3544 88.5776 45.1612V50.4037C88.5776 51.1436 87.9744 51.7458 87.2335 51.7458L85.0565 51.7401L84.7291 55.8469C86.1766 55.5199 87.8136 55.4855 89.2784 55.7551C90.9727 56.0648 92.4892 56.7761 93.368 57.9059C94.0572 57.8314 94.6833 57.8428 95.2347 57.9289C96.3433 58.1067 97.1704 58.6057 97.7218 59.4087C98.233 60.1543 98.4455 61.1122 98.3709 62.2822C98.2905 63.4925 97.8826 64.9953 97.1474 66.7733C97.113 66.8593 97.067 66.9396 97.021 67.0142C97.1704 67.4558 97.2566 67.9319 97.2566 68.4252C97.2566 69.3142 96.9866 70.1402 96.5328 70.8341C97.7965 71.5511 99.0142 72.3771 100.18 73.2948C100.778 72.8245 101.398 72.3713 102.03 71.9469C102.616 71.5511 103.219 71.1783 103.833 70.8284C103.374 70.1344 103.11 69.3084 103.11 68.4195C103.098 67.9377 103.184 67.4623 103.333 67.0206ZM120.979 64.6575C121.335 63.648 121.536 62.7934 121.582 62.1051C121.616 61.5487 121.559 61.1529 121.398 60.9178C121.277 60.7457 121.042 60.6253 120.697 60.5679C120.221 60.4934 119.595 60.5278 118.819 60.6769V60.6712C118.187 60.7916 117.544 60.4475 117.314 59.8223C117.136 59.3405 116.573 58.9562 115.832 58.6809C115.051 58.3883 114.098 58.2449 113.127 58.2449C112.156 58.2449 111.203 58.3941 110.422 58.6809C109.704 58.9504 109.164 59.3175 108.963 59.7764C108.756 60.4073 108.107 60.8031 107.435 60.6769C106.659 60.5278 106.028 60.4876 105.557 60.5679C105.206 60.6253 104.971 60.74 104.856 60.9178C104.695 61.153 104.632 61.5487 104.672 62.1051C104.718 62.7991 104.919 63.648 105.275 64.6575C105.93 64.2732 106.694 64.0495 107.509 64.0495H118.762C119.56 64.0438 120.324 64.2732 120.979 64.6575ZM99.6396 117.81C96.3655 118.923 92.3276 119.473 87.4338 119.29H87.0259C84.9179 119.37 82.965 119.307 81.1614 119.129C80.271 119.043 79.4152 118.923 78.5995 118.774C79.5358 117.563 80.0298 116.066 80.0815 114.288L83.3785 72.8193H85.7162C87.5485 74.8957 88.9443 77.2072 89.892 79.7539C90.9202 82.5127 91.4371 85.5527 91.4371 88.8852C91.4371 89.6251 92.0345 90.2216 92.7755 90.2216C93.5164 90.2216 94.1138 89.6194 94.1138 88.8852C94.1081 85.2315 93.5394 81.8762 92.4021 78.819C91.5979 76.6681 90.5181 74.6664 89.1625 72.8195H92.8616C92.9994 72.8195 93.1315 72.8137 93.2637 72.8023L94.5561 72.8137C96.1988 73.6798 97.7612 74.7524 99.2316 75.9857C99.2833 76.0373 99.3408 76.0832 99.3982 76.1291C104.292 80.2931 108.1 86.2583 110.03 92.4467C111.311 96.5478 111.759 100.741 111.145 104.543C110.541 108.266 108.916 111.638 106.044 114.197C104.407 115.659 102.351 116.869 99.8463 117.747C99.7716 117.758 99.7028 117.781 99.6396 117.81ZM104.218 118.722C104.867 118.848 105.539 118.951 106.234 119.037C108.273 119.29 110.496 119.382 112.908 119.296H113.322C122.093 119.622 128.123 117.592 131.926 114.196C134.798 111.633 136.423 108.266 137.027 104.543C137.641 100.735 137.193 96.5477 135.912 92.4466C133.385 84.3364 127.641 76.6223 120.439 72.8134L119.146 72.8019C119.014 72.8134 118.876 72.8192 118.744 72.8192H116.533C118.227 74.6202 119.514 76.4843 120.399 78.4229C121.708 81.3022 122.116 84.3135 121.639 87.4566C121.53 88.1908 120.847 88.6955 120.111 88.5865C119.376 88.4776 118.871 87.795 118.98 87.0608C119.382 84.4338 119.037 81.9216 117.952 79.5241C116.895 77.1954 115.137 74.9641 112.679 72.819H107.498C107.36 72.819 107.228 72.8133 107.09 72.8018L105.798 72.8133C105.028 73.2205 104.264 73.6794 103.517 74.1841C103.092 74.4709 102.667 74.7749 102.248 75.0904C106.998 79.5241 110.668 85.4835 112.593 91.6489C113.988 96.1285 114.471 100.734 113.787 104.961C113.092 109.275 111.191 113.187 107.825 116.192C106.768 117.133 105.567 117.982 104.218 118.722ZM107.365 70.1287L113.121 70.1L118.876 70.1287C119.296 70.1 119.669 69.9165 119.95 69.6354L119.956 69.6297L119.95 69.6239C120.26 69.3142 120.45 68.8898 120.45 68.4252C120.45 67.9606 120.255 67.5361 119.95 67.2264L119.899 67.169C119.594 66.8937 119.192 66.7216 118.75 66.7216H107.498C107.032 66.7216 106.607 66.9167 106.297 67.2206C105.987 67.5304 105.797 67.9548 105.797 68.4194C105.797 68.884 105.993 69.3084 106.297 69.6182C106.573 69.9107 106.946 70.0943 107.365 70.1287ZM95.0904 64.6567C95.4465 63.6473 95.6475 62.7984 95.6935 62.1043C95.728 61.548 95.6705 61.1522 95.5097 60.917C95.3891 60.745 95.1536 60.6245 94.8089 60.5672C94.3322 60.4926 93.7061 60.527 92.9307 60.6761V60.6704C92.2989 60.7909 91.6556 60.4467 91.4259 59.8215L91.4029 59.7642C91.0927 59.0701 90.0588 58.5998 88.8181 58.3761C87.4109 58.118 85.8255 58.2155 84.5963 58.6572L84.5446 58.6801L84.5159 58.6916L84.0909 64.0372H92.8734C93.6718 64.043 94.4356 64.2667 95.0904 64.6567ZM83.5968 70.1172L85.2969 70.1115L86.2217 70.1058H86.3366C86.9224 70.1 86.9914 70.1 87.2441 70.1L92.9996 70.1287C93.4189 70.0943 93.7922 69.9107 94.0737 69.6354C94.3839 69.3257 94.5734 68.9012 94.5734 68.4366C94.5734 67.972 94.3839 67.5476 94.0737 67.2379C93.7635 66.9281 93.3385 66.7389 92.8732 66.7389H83.8782L83.5968 70.1172ZM22.3497 41.2496H16.5999C15.5258 41.2496 14.5494 41.6913 13.8371 42.3968C13.1306 43.1023 12.6883 44.083 12.6883 45.1499V49.056H85.8828V45.1499C85.8828 44.0773 85.4405 43.1023 84.734 42.391V42.3968C84.0275 41.6913 83.0453 41.2496 81.9712 41.2496H70.2823C69.5413 41.2496 68.9382 40.6474 68.9382 39.9075C68.9382 39.1676 69.5413 38.5653 70.2823 38.5653H74.8717V37.3436C74.8717 37.0052 74.7339 36.7012 74.5156 36.4833L74.5098 36.4775C74.2916 36.2596 73.9871 36.1219 73.6482 36.1219H24.9161C24.5772 36.1219 24.2728 36.2596 24.0545 36.4775L24.0488 36.4833C23.8305 36.7012 23.6927 37.0052 23.6927 37.3436V38.5653H28.2821C29.0231 38.5653 29.6262 39.1676 29.6262 39.9075C29.6262 40.6474 29.023 41.2496 28.2821 41.2496L22.3497 41.2496ZM38.7657 33.4433H59.8064V33.3458C59.8064 32.6174 59.5077 31.952 59.0195 31.4703L58.962 31.4072C58.4853 30.9598 57.8419 30.6845 57.1354 30.6845L41.431 30.6788C40.6958 30.6788 40.0295 30.977 39.5528 31.4531L39.5471 31.4588L39.5528 31.4646C39.0703 31.9464 38.7659 32.6117 38.7659 33.3401L38.7657 33.4433ZM33.3263 41.2496H65.2512C65.9921 41.2496 66.5952 40.6474 66.5952 39.9075C66.5952 39.1676 65.9921 38.5653 65.2512 38.5653H33.3263C32.5853 38.5653 31.9822 39.1676 31.9822 39.9075C31.9822 40.6474 32.5853 41.2496 33.3263 41.2496Z" stroke="#663366" stroke-width="0.5" mask="url(#path-1-outside-1_173_375)"/>
</svg>
