<svg width="150" height="150" viewBox="0 0 150 150" fill="none" xmlns="http://www.w3.org/2000/svg">
<path d="M139.376 57.7498C137.649 51.3047 132.715 46.6539 126.512 45.2578C128.404 39.187 126.842 32.5878 122.127 27.871C117.409 23.1529 110.812 21.597 104.737 23.4865C103.344 17.2826 98.6933 12.3486 92.2483 10.6217C85.7977 8.89618 79.3106 10.8431 74.9989 15.5178C70.6901 10.8459 64.1946 8.89338 57.7496 10.6217C51.3045 12.3486 46.6537 17.2826 45.2604 23.4865C39.191 21.5956 32.589 23.1529 27.8709 27.871C23.1555 32.5878 21.594 39.187 23.4863 45.2578C17.2824 46.6539 12.3484 51.3047 10.6215 57.7498C8.89459 64.1934 10.843 70.6875 15.5162 74.9991C10.843 79.3108 8.89459 85.8049 10.6215 92.2485C12.3484 98.6935 17.2824 103.344 23.4863 104.74C21.594 110.811 23.1555 117.41 27.8709 122.127C32.589 126.844 39.1882 128.401 45.2604 126.512C46.6537 132.716 51.3045 137.65 57.7496 139.377C64.2002 141.108 70.6873 139.157 74.9989 134.48C78.2649 138.021 82.7812 139.999 87.5834 139.998C89.1197 139.998 90.6868 139.796 92.2483 139.377C98.6933 137.65 103.344 132.716 104.737 126.512C110.801 128.396 117.409 126.844 122.127 122.127C126.842 117.41 128.404 110.811 126.512 104.74C132.715 103.344 137.649 98.6935 139.376 92.2485C141.103 85.8049 139.155 79.3108 134.482 74.9991C139.155 70.6875 141.103 64.1934 139.376 57.7498ZM128.213 77.5082C134.103 80.7812 134.922 86.6936 133.831 90.7627C132.738 94.8318 129.18 99.571 122.337 99.4322C121.387 99.4995 120.324 99.9649 119.803 100.868C119.282 101.77 119.293 102.885 119.828 103.779C123.293 109.56 121.045 115.089 118.065 118.066C115.088 121.048 109.551 123.292 103.779 119.828C102.884 119.287 101.766 119.285 100.866 119.803C99.9633 120.325 99.4138 121.295 99.4306 122.337C99.5428 129.077 94.8302 132.741 90.7625 133.831C86.6891 134.918 80.7796 134.103 77.508 128.212C77.0034 127.3 76.0418 126.735 74.9989 126.735C73.9561 126.735 72.9945 127.3 72.4899 128.212C69.2183 134.103 63.3059 134.923 59.2354 133.831C55.1676 132.741 50.4551 129.077 50.5672 122.337C50.5841 121.295 50.0346 120.325 49.1319 119.803C48.2348 119.285 47.1162 119.287 46.2192 119.828C40.4469 123.288 34.9102 121.047 31.933 118.066C28.953 115.089 26.7046 109.56 30.1696 103.779C30.7051 102.885 30.7163 101.77 30.1949 100.868C29.6734 99.9649 28.81 99.4897 27.6606 99.4322C20.7782 99.5626 17.2572 94.8304 16.1666 90.7627C15.0761 86.6936 15.8947 80.7812 21.7847 77.5082C22.6958 77.0022 23.2621 76.042 23.2621 74.9991C23.2621 73.9563 22.6958 72.9961 21.7847 72.4901C15.8947 69.2171 15.0761 63.3047 16.1666 59.2356C17.26 55.1664 20.7866 50.4371 27.6606 50.566C28.8212 50.6165 29.6734 50.0348 30.1949 49.1307C30.7163 48.228 30.7051 47.1136 30.1696 46.2193C26.7046 40.4387 28.953 34.909 31.933 31.9318C34.913 28.9518 40.4497 26.709 46.2192 30.1698C47.1162 30.7095 48.2348 30.7151 49.1319 30.1951C50.0346 29.6736 50.5841 28.7037 50.5672 27.6608C50.4551 20.9214 55.1676 17.2573 59.2354 16.1668C63.3003 15.0791 69.2155 15.8935 72.4899 21.7862C73.4991 23.6113 76.4988 23.6113 77.508 21.7862C80.7824 15.8963 86.6919 15.0833 90.7625 16.1668C94.8302 17.2573 99.5428 20.9214 99.4306 27.6608C99.4138 28.7037 99.9633 29.6736 100.866 30.1951C101.766 30.7151 102.884 30.7095 103.779 30.1698C109.548 26.7062 115.085 28.9504 118.065 31.9318C121.045 34.909 123.293 40.4387 119.828 46.2193C119.293 47.1136 119.282 48.228 119.803 49.1307C120.324 50.0348 121.376 50.6067 122.337 50.566C129.169 50.4273 132.744 55.1678 133.831 59.2356C134.922 63.3047 134.103 69.2171 128.213 72.4901C127.302 72.9961 126.736 73.9563 126.736 74.9991C126.736 76.042 127.302 77.0022 128.213 77.5082Z" fill="#663366"/>
<path d="M90.5125 60.3381L70.9475 79.9008L63.9446 72.8979C61.7027 70.6561 58.0678 70.6561 55.8259 72.8979C53.5841 75.1398 53.5841 78.7747 55.8259 81.0166L66.8882 92.0788C68.0095 93.2002 69.4785 93.7609 70.9475 93.7609C72.4165 93.7609 73.8855 93.2002 75.0068 92.0788L98.6308 68.4573C100.873 66.2155 100.873 62.5805 98.631 60.3385C96.3891 58.0966 92.7545 58.0965 90.5125 60.3381Z" fill="#663366"/>
</svg>
