<svg width="150" height="150" viewBox="0 0 150 150" fill="none" xmlns="http://www.w3.org/2000/svg">
<path d="M126.844 64.2157C122.097 64.6832 109.028 59.5804 104.391 57.5742C104.226 57.5026 104.048 57.4656 103.868 57.4656H90.6338L90.5637 54.5874C92.6399 53.3927 94.6353 51.2524 96.5049 48.2107C98.2971 45.2967 99.9451 41.5748 101.274 37.4468C103.859 29.4148 104.872 20.9888 103.792 16.4821C102.959 13.0053 101.502 10.8998 99.462 10.2238C96.8222 9.34878 94.4255 11.3165 94.3248 11.3992C94.1661 11.5317 94.0407 11.6998 93.959 11.8898C93.8772 12.0797 93.8413 12.2863 93.8541 12.4927C94.2563 18.9592 92.9694 28.8147 85.2289 40.5346C85.7283 35.0076 86.1002 26.0985 84.327 19.1479C83.2412 14.891 81.4622 12.299 79.0399 11.4437C76.232 10.4517 73.7749 12.2536 73.6719 12.3311C73.4896 12.4675 73.3457 12.6487 73.2543 12.8572C73.1629 13.0657 73.1271 13.2943 73.1503 13.5208C74.4325 26.0192 74.3226 35.248 73.635 41.9664C69.7621 34.1089 66.0466 30.1577 62.3331 29.9205C59.0266 29.7173 57.2785 32.6059 57.2055 32.7292C57.0695 32.9603 57.0071 33.2273 57.0266 33.4948C57.0462 33.7622 57.1467 34.0173 57.3148 34.2262C57.3939 34.324 65.18 44.122 68.6562 59.2717C66.4255 73.3106 55.957 87.6523 52.3269 92.2816C52.0135 91.6994 51.6897 91.1229 51.3557 90.5524C50.945 89.8339 50.2989 89.2792 49.5265 88.982C48.7541 88.6847 47.9029 88.6632 47.1165 88.921C46.3376 89.1983 45.6818 89.7419 45.2647 90.4557C45.1303 90.4331 44.9947 90.418 44.8586 90.4106C44.2907 90.3846 43.7254 90.5014 43.2143 90.7504C42.7033 90.9993 42.2628 91.3725 41.9332 91.8356C41.5284 91.7215 41.1085 91.6703 40.6882 91.6838C40.0734 91.7006 39.4712 91.8615 38.93 92.1536C38.3889 92.4457 37.9238 92.8608 37.5725 93.3655C37.0236 93.2705 36.4613 93.2854 35.9182 93.4093C34.5588 93.7058 32.9569 94.716 32.653 96.2338C32.5316 96.9211 32.5784 97.6276 32.7895 98.2929L23.0015 100.708C22.7156 100.779 22.4617 100.943 22.2801 101.175C22.0986 101.407 22 101.693 22 101.988V137.821C22 138.053 22.0613 138.281 22.1778 138.482C22.2943 138.683 22.4617 138.85 22.6633 138.965C22.8648 139.08 23.0933 139.14 23.3255 139.139C23.5577 139.138 23.7854 139.075 23.9856 138.957L40.3959 129.311C40.8192 130.494 41.5874 131.985 42.9436 132.953C43.8651 133.615 44.9738 133.965 46.1081 133.952C46.5609 133.95 47.0125 133.904 47.4564 133.814C48.19 133.664 48.8623 133.299 49.388 132.766C49.8274 133.006 50.3155 133.144 50.8157 133.168C50.8494 133.168 50.8842 133.17 50.9198 133.17C51.34 133.165 51.7548 133.074 52.1385 132.903C52.5221 132.731 52.8665 132.482 53.1502 132.172C53.1982 132.123 53.2411 132.07 53.2867 132.018C53.7651 132.244 54.2864 132.364 54.8153 132.37C55.6253 132.365 56.4032 132.053 56.9917 131.496C57.2197 131.291 57.4231 131.06 57.5979 130.808C57.9446 130.892 58.3 130.936 58.6568 130.939C59.0244 130.942 59.39 130.885 59.739 130.769C60.1418 130.631 60.5109 130.409 60.8223 130.119C61.1336 129.828 61.3801 129.475 61.5456 129.083C61.7971 128.509 61.9112 127.884 61.8788 127.259C61.7739 124.608 61.5326 121.965 61.1556 119.34L75.0911 111.778C76.7251 111.284 90.0624 106.942 94.8269 95.2826C99.5363 83.7599 120.82 79.0692 121.034 79.0233C121.188 78.9904 121.334 78.9303 121.466 78.846C123.162 77.7654 123.607 76.4292 123.683 75.4989C123.731 74.4467 123.465 73.4041 122.919 72.5036C124.212 72.3658 125.426 71.9915 126.387 71.2436C127.986 69.9988 128.623 68.0201 128.281 65.3619C128.238 65.0214 128.064 64.7111 127.795 64.497C127.527 64.283 127.186 64.182 126.844 64.2157ZM96.5242 13.0912C97.0399 12.8045 97.8683 12.4713 98.6326 12.7251C99.7176 13.0846 100.64 14.6369 101.229 17.0959C101.733 19.2003 101.711 22.2351 101.268 25.6639C99.3906 24.3501 97.1749 24.1285 95.3696 24.3351C96.2759 20.6591 96.6645 16.8746 96.5242 13.0912ZM78.1628 13.929C79.6822 14.4656 80.9301 16.4955 81.7735 19.7996C82.3402 22.1469 82.6971 24.5399 82.8398 26.9503C80.5116 26.2532 78.2437 26.6454 76.7146 27.1172C76.6015 23.2237 76.3322 18.9041 75.8583 14.1069C76.5761 13.7576 77.3999 13.6941 78.1628 13.929ZM76.7699 29.8858C77.9849 29.4085 80.5841 28.6674 82.9718 29.8217C83.0546 34.8786 82.7534 39.9344 82.0707 44.9456C79.5981 48.1276 76.9005 51.1281 73.9987 53.9243C75.4701 49.3635 76.8941 41.8307 76.7697 29.8858H76.7699ZM60.0149 33.4247C60.2919 33.1362 60.6265 32.9093 60.997 32.7588C61.3675 32.6082 61.7656 32.5374 62.1652 32.5511C63.5336 32.6386 66.0726 33.8569 69.571 39.9384C67.4276 40.2201 66.0025 41.0045 65.0798 41.7875C63.6136 38.8713 61.9201 36.0751 60.0149 33.4247ZM66.2922 44.2807C66.7995 43.6481 68.0843 42.5547 70.9368 42.4703C71.5888 43.7551 72.2682 45.197 72.9761 46.8266C72.2382 51.1051 71.2754 53.9525 70.4877 55.7433C69.4082 51.8131 68.0049 47.9791 66.2922 44.2807ZM38.8191 95.2167H38.8217L38.5563 95.4062L38.8191 95.2167ZM24.6355 103.02L35.3494 100.376C39.5549 107.888 42.1313 116.202 42.911 124.775L24.6355 135.518V103.02ZM42.7863 128.162C42.7633 128.092 42.7343 128.023 42.6996 127.957L43.1065 127.718C43.1252 128.17 43.14 128.625 43.1484 129.085C43.0083 128.785 42.8873 128.477 42.7863 128.162V128.162ZM46.947 131.229C46.4888 131.329 46.0159 131.341 45.5533 131.264C45.7093 131.044 45.7938 130.782 45.7953 130.513C45.8959 110.467 36.5222 97.1918 36.1229 96.6365C36.0212 96.4948 35.8923 96.3749 35.7437 96.2836C35.9997 96.1258 36.2836 96.0185 36.5799 95.9673C36.8319 95.9252 37.2823 95.8972 37.4889 96.1826C37.7261 96.5179 47.8402 111.027 47.8038 130.362C47.8035 130.7 47.3631 131.147 46.947 131.229V131.229ZM51.2692 130.328C51.0629 130.539 50.9498 130.536 50.915 130.535C50.7415 130.509 50.5779 130.438 50.4406 130.329C50.4649 111.01 41.0413 96.6858 39.7591 94.8283C39.8799 94.6732 40.0337 94.5471 40.2095 94.4591C40.3852 94.3712 40.5784 94.3237 40.7749 94.3201C41.096 94.3195 41.411 94.4086 41.6842 94.5773C41.9575 94.746 42.1783 94.9876 42.3217 95.275C44.5389 99.4654 51.7671 114.298 51.6822 129.259C51.6866 129.655 51.5385 130.038 51.2684 130.328L51.2692 130.328ZM55.232 129.534C55.1057 129.647 54.9455 129.714 54.7767 129.725C54.6079 129.736 54.4402 129.691 54.3001 129.596C54.3088 129.489 54.3167 129.381 54.3172 129.273C54.4055 113.697 46.9404 98.3683 44.6504 94.041C44.5079 93.7722 44.3384 93.5186 44.1446 93.2841C44.2184 93.2038 44.3089 93.1407 44.4097 93.0993C44.5105 93.0578 44.6193 93.039 44.7281 93.0443C44.912 93.062 45.0885 93.1256 45.2414 93.2291C45.3944 93.3327 45.5189 93.4729 45.6037 93.637C47.7121 97.4013 54.6746 111.021 55.7111 128.228C55.7331 128.468 55.7014 128.709 55.6184 128.935C55.5354 129.161 55.4031 129.365 55.2312 129.533L55.232 129.534ZM59.1444 127.997C59.0432 128.22 58.9496 128.253 58.8993 128.27C58.7166 128.314 58.5261 128.314 58.3435 128.27C58.3435 128.203 58.3461 128.136 58.3435 128.068C57.2729 110.302 50.0825 96.2359 47.9042 92.348C47.7954 92.1541 47.6704 91.9696 47.5308 91.7966C47.6323 91.6209 47.7908 91.4852 47.9801 91.4121C48.1908 91.3547 48.4147 91.3703 48.6154 91.4565C48.8161 91.5426 48.9817 91.6942 49.0852 91.8865C51.2914 95.6432 58.5446 109.303 59.2477 127.357C59.2619 127.575 59.2263 127.793 59.1436 127.996L59.1444 127.997ZM108.264 80.5369C101.953 83.3664 95.0359 87.8033 92.388 94.2822C87.9076 105.246 74.3595 109.243 74.2243 109.282L60.7133 116.583C59.3567 109.055 56.9795 101.747 53.6475 94.8612C56.4509 91.4327 68.594 75.8394 71.2201 59.9391C76.05 55.9435 80.417 51.4193 84.2395 46.4513C89.1276 40.1102 92.6028 33.6063 94.59 27.1659C95.8321 26.8478 98.8571 26.3937 100.768 28.7844C98.9172 38.5761 94.196 50.0857 88.6801 52.5976C88.445 52.7047 88.2465 52.8785 88.1094 53.0975C87.9723 53.3164 87.9026 53.5709 87.9089 53.8291L87.9975 57.4661H80.8916C80.1392 57.4668 79.3979 57.6473 78.7295 57.9928C78.0611 58.3383 77.485 58.8386 77.0493 59.452L75.0663 62.2488C74.965 62.3899 74.8925 62.5497 74.8531 62.7189C74.8137 62.8881 74.8082 63.0635 74.8368 63.2349C74.8655 63.4062 74.9277 63.5702 75.02 63.7175C75.1123 63.8647 75.2328 63.9922 75.3745 64.0927C75.5163 64.1932 75.6765 64.2646 75.8459 64.3029C76.0154 64.3413 76.1908 64.3457 76.362 64.316C76.5331 64.2862 76.6968 64.223 76.8434 64.1298C76.99 64.0366 77.1168 63.9153 77.2164 63.7729L79.1994 60.9761C79.3913 60.706 79.645 60.4857 79.9394 60.3335C80.2338 60.1814 80.5603 60.1019 80.8916 60.1017H103.598C104.593 60.5233 108.381 62.112 112.685 63.6253C113.195 63.8043 113.69 63.9735 114.178 64.138C114.355 64.7968 114.52 66.307 113.35 68.4834C109.091 69.2002 106.149 67.7702 104.747 66.8196C104.227 66.4602 103.626 66.2334 102.998 66.159C102.37 66.0846 101.733 66.1648 101.143 66.3926C98.4919 67.4736 95.5271 67.4942 92.8616 66.4501C91.9613 66.102 90.9851 65.998 90.0318 66.1485C89.0784 66.299 88.1817 66.6987 87.4324 67.3072C84.8557 69.4 83.4665 71.689 83.4149 73.9268C83.3703 75.8507 84.2783 77.6547 86.1136 79.2922C87.3715 80.416 89.0066 81.0246 90.6931 80.9968C91.6844 80.986 92.6685 80.8256 93.6119 80.5211C98.1553 79.1127 102.311 75.0189 102.489 74.8426C103.361 74.0386 104.33 73.3454 105.372 72.779C106.068 73.0267 107.701 73.7542 108.485 75.3276C109.162 76.6877 109.087 78.4388 108.264 80.5369ZM105.017 69.9949C103.411 70.7598 101.931 71.7655 100.628 72.9772C100.59 73.0152 96.7635 76.7863 92.8316 78.005C90.7324 78.6559 89.1086 78.4338 87.8678 77.3266C86.6355 76.2273 86.023 75.1043 86.0493 73.9892C86.0939 72.0719 87.9756 70.2621 89.0936 69.3542C89.6011 68.9424 90.2348 68.7176 90.8884 68.7174C91.2365 68.7172 91.5817 68.7818 91.9062 68.908C95.1901 70.1963 98.8435 70.1737 102.111 68.8447C102.302 68.775 102.508 68.7529 102.709 68.7805C102.911 68.808 103.103 68.8844 103.268 69.0028C103.824 69.3779 104.409 69.7091 105.017 69.9935V69.9949ZM121.056 75.2888C121.042 75.457 121.001 75.9477 120.23 76.5012C117.224 77.211 114.271 78.1259 111.391 79.2394C111.765 77.344 111.584 75.6412 110.844 74.1553C110.293 73.0741 109.483 72.1467 108.485 71.4562C108.771 71.3697 109.059 71.2918 109.349 71.2227C110.924 71.3995 112.517 71.3377 114.074 71.0396C115.856 71.6955 117.704 72.1599 119.584 72.4251C120.18 73.0507 121.139 74.2873 121.056 75.2875V75.2888ZM124.768 69.1615C122.916 70.6055 118.614 69.7094 116.068 68.9264C116.644 67.7073 116.939 66.3742 116.93 65.0259C120.669 66.1668 123.616 66.7851 125.731 66.8707C125.683 68.4468 125.017 68.9662 124.768 69.1602V69.1615Z" fill="#663366"/>
</svg>
