<svg width="150" height="150" viewBox="0 0 150 150" fill="none" xmlns="http://www.w3.org/2000/svg">
<path fill-rule="evenodd" clip-rule="evenodd" d="M12.9753 125.744H75.7639V23.9805H12.9753V125.744ZM77.2513 128.72H11.4879C10.6675 128.72 10 128.052 10 127.232V22.4879C10 21.6675 10.6676 21 11.4879 21H77.2513C78.0717 21 78.7392 21.6676 78.7392 22.4879V127.232C78.7392 128.052 78.0716 128.72 77.2513 128.72Z" fill="#663366"/>
<path fill-rule="evenodd" clip-rule="evenodd" d="M24.4486 48.1273H35.9391V35.7089H24.4486V48.1273ZM37.427 51.1032H22.9605C22.1402 51.1032 21.4727 50.4356 21.4727 49.6154V34.2209C21.4727 33.4006 22.1403 32.733 22.9605 32.733H37.427C38.2474 32.733 38.9149 33.4006 38.9149 34.2209V49.6154C38.9149 50.4357 38.2473 51.1032 37.427 51.1032Z" fill="#663366"/>
<path fill-rule="evenodd" clip-rule="evenodd" d="M52.8001 48.1273H64.2907V35.7089H52.8001V48.1273ZM65.7786 51.1032H51.3121C50.4917 51.1032 49.8242 50.4356 49.8242 49.6154V34.2209C49.8242 33.4006 50.4918 32.733 51.3121 32.733H65.7786C66.5989 32.733 67.2665 33.4006 67.2665 34.2209V49.6154C67.2665 50.4357 66.5989 51.1032 65.7786 51.1032Z" fill="#663366"/>
<path fill-rule="evenodd" clip-rule="evenodd" d="M52.8001 106.774H64.2907V94.3552H52.8001V106.774ZM65.7786 109.75H51.3121C50.4917 109.75 49.8242 109.082 49.8242 108.262V92.8672C49.8242 92.0469 50.4918 91.3793 51.3121 91.3793H65.7786C66.5989 91.3793 67.2665 92.0469 67.2665 92.8672V108.262C67.2665 109.082 66.5989 109.75 65.7786 109.75Z" fill="#663366"/>
<path fill-rule="evenodd" clip-rule="evenodd" d="M25.054 106.774H36.5446V94.3552H25.054V106.774ZM38.0325 109.75H23.566C22.7457 109.75 22.0781 109.082 22.0781 108.262V92.8672C22.0781 92.0469 22.7457 91.3793 23.566 91.3793H38.0325C38.8528 91.3793 39.5204 92.0469 39.5204 92.8672V108.262C39.5204 109.082 38.8528 109.75 38.0325 109.75Z" fill="#663366"/>
<path fill-rule="evenodd" clip-rule="evenodd" d="M52.8001 77.4504H64.2907V65.0321H52.8001V77.4504ZM65.7786 80.4264H51.3121C50.4917 80.4264 49.8242 79.7588 49.8242 78.9385V63.544C49.8242 62.7237 50.4918 62.0562 51.3121 62.0562H65.7786C66.5989 62.0562 67.2665 62.7238 67.2665 63.544V78.9385C67.2665 79.7588 66.5989 80.4264 65.7786 80.4264Z" fill="#663366"/>
<path fill-rule="evenodd" clip-rule="evenodd" d="M25.054 77.4504H36.5446V65.0321H25.054V77.4504ZM38.0325 80.4264H23.566C22.7457 80.4264 22.0781 79.7588 22.0781 78.9385V63.544C22.0781 62.7237 22.7457 62.0562 23.566 62.0562H38.0325C38.8528 62.0562 39.5204 62.7238 39.5204 63.544V78.9385C39.5204 79.7588 38.8528 80.4264 38.0325 80.4264Z" fill="#663366"/>
<path fill-rule="evenodd" clip-rule="evenodd" d="M138.512 128.72H77.2574C76.4371 128.72 75.7695 128.053 75.7695 127.232C75.7695 126.412 76.4371 125.745 77.2574 125.745H137.025V78.2375H77.2574C76.4371 78.2375 75.7695 77.5699 75.7695 76.7496C75.7695 75.9293 76.4371 75.2617 77.2574 75.2617H138.512C139.333 75.2617 140 75.9293 140 76.7496V127.237C140 128.058 139.332 128.725 138.512 128.725V128.72Z" fill="#663366"/>
<path fill-rule="evenodd" clip-rule="evenodd" d="M117.393 128.72C116.573 128.72 115.906 128.053 115.906 127.232V105.615H98.8137V127.232C98.8137 128.053 98.1461 128.72 97.3258 128.72C96.5054 128.72 95.8379 128.053 95.8379 127.232V104.127C95.8379 103.307 96.5055 102.639 97.3258 102.639H117.393C118.213 102.639 118.88 103.307 118.88 104.127V127.232C118.88 128.053 118.214 128.72 117.393 128.72Z" fill="#663366"/>
<path fill-rule="evenodd" clip-rule="evenodd" d="M86.7064 90.6782H97.4558V85.8296H86.7064V90.6782ZM98.9494 93.6541H85.2183C84.398 93.6541 83.7305 92.9865 83.7305 92.1662V84.3419C83.7305 83.5215 84.3981 82.854 85.2183 82.854H98.9494C99.7697 82.854 100.437 83.5216 100.437 84.3419V92.1662C100.437 92.9866 99.7696 93.6541 98.9494 93.6541Z" fill="#663366"/>
<path fill-rule="evenodd" clip-rule="evenodd" d="M118.308 90.6782H129.063V85.8296H118.308V90.6782ZM130.551 93.6541H116.82C116 93.6541 115.332 92.9865 115.332 92.1662V84.3419C115.332 83.5215 116 82.854 116.82 82.854H130.551C131.371 82.854 132.039 83.5216 132.039 84.3419V92.1662C132.039 92.9866 131.371 93.6541 130.551 93.6541Z" fill="#663366"/>
<path fill-rule="evenodd" clip-rule="evenodd" d="M97.4434 54.2538C97.6924 54.2538 97.9356 54.316 98.1619 54.4405L101.002 56.002L100.391 52.8168C100.295 52.3132 100.465 51.7984 100.832 51.4533L103.197 49.2356L99.9779 48.8282C99.4744 48.766 99.0331 48.4492 98.8181 47.9852L97.4376 45.049L96.0572 47.9852C95.8422 48.4492 95.4009 48.766 94.8974 48.8282L91.6781 49.2299L94.043 51.4476C94.4164 51.7984 94.5805 52.3132 94.4843 52.8111L93.8733 55.9963L96.7133 54.4348C96.934 54.3104 97.1829 54.2538 97.4318 54.2538H97.4434ZM103.061 60.3244C102.812 60.3244 102.569 60.2621 102.343 60.1377L97.4434 57.439L92.544 60.1377C92.0405 60.4149 91.4181 60.3753 90.9485 60.0358C90.4789 59.6964 90.2526 59.1193 90.3601 58.5536L91.4124 53.06L87.3333 49.2355C86.9146 48.8395 86.7562 48.2398 86.9373 47.691C87.1183 47.1422 87.5935 46.7462 88.165 46.6727L93.715 45.9768L96.0912 40.9189C96.3345 40.3984 96.8606 40.0646 97.4377 40.0646C98.0148 40.0646 98.5409 40.3984 98.7842 40.9189L101.16 45.9768L106.71 46.6727C107.282 46.7462 107.763 47.1422 107.938 47.691C108.119 48.2398 107.961 48.8395 107.542 49.2355L103.463 53.06L104.515 58.5536C104.623 59.1193 104.396 59.6964 103.927 60.0358C103.667 60.2225 103.361 60.3187 103.05 60.3187L103.061 60.3244Z" fill="#663366"/>
<path fill-rule="evenodd" clip-rule="evenodd" d="M120.483 54.2538C120.726 54.2538 120.975 54.316 121.201 54.4405L124.041 56.002L123.43 52.8168C123.334 52.3132 123.504 51.7984 123.877 51.4533L126.242 49.2356L123.023 48.8282C122.514 48.766 122.078 48.4492 121.857 47.9852L120.483 45.049L119.102 47.9852C118.887 48.4492 118.446 48.766 117.942 48.8282L114.723 49.2299L117.088 51.4476C117.461 51.7984 117.625 52.3132 117.535 52.8111L116.924 55.9963L119.764 54.4348C119.99 54.3104 120.234 54.2538 120.483 54.2538ZM126.101 60.3244C125.857 60.3244 125.608 60.2621 125.382 60.1377L120.483 57.439L115.583 60.1377C115.08 60.4149 114.457 60.3753 113.993 60.0358C113.529 59.6964 113.298 59.1193 113.405 58.5536L114.457 53.06L110.378 49.2355C109.96 48.8395 109.801 48.2398 109.982 47.691C110.163 47.1422 110.638 46.7462 111.21 46.6727L116.76 45.9768L119.136 40.9189C119.379 40.3984 119.906 40.0646 120.483 40.0646C121.06 40.0646 121.586 40.3984 121.829 40.9189L124.205 45.9768L129.755 46.6727C130.327 46.7462 130.808 47.1422 130.983 47.691C131.164 48.2398 131.006 48.8395 130.587 49.2355L126.508 53.06L127.56 58.5536C127.668 59.1193 127.441 59.6964 126.972 60.0358C126.712 60.2225 126.406 60.3187 126.095 60.3187L126.101 60.3244Z" fill="#663366"/>
</svg>
