<svg width="150" height="150" viewBox="0 0 150 150" fill="none" xmlns="http://www.w3.org/2000/svg">
<mask id="path-1-outside-1_164_14" maskUnits="userSpaceOnUse" x="9" y="9" width="132" height="132" fill="black">
<rect fill="white" x="9" y="9" width="132" height="132"/>
<path d="M48.778 137.687H133.737C135.902 137.687 137.676 135.91 137.676 133.747V31.8917C137.676 29.7294 135.905 27.9573 133.737 27.9573H114.312C116.248 35.7913 114.173 44.4433 108.087 50.5312C98.8401 59.7585 83.6722 59.7585 74.4342 50.5312C68.3392 44.4433 66.2728 35.7884 68.2061 27.9573H48.778C46.6132 27.9573 44.8334 29.7265 44.8334 31.8917V55.5814H55.3245C61.1648 55.5814 65.94 60.3511 65.94 66.1847V67.5289H80.15C83.3075 67.5289 85.8919 70.1016 85.8919 73.2554V121.349C85.8919 124.511 83.3075 127.084 80.15 127.084H44.8334V133.747C44.8334 135.91 46.6132 137.687 48.778 137.687ZM37.41 79.5486H58.4848C59.1244 79.5486 59.6425 80.066 59.6425 80.7049V87.9491C59.6425 88.588 59.1244 89.1054 58.4848 89.1054H37.41C36.7791 89.1054 36.2524 88.588 36.2524 87.9491V80.7049C36.2524 80.066 36.7762 79.5486 37.41 79.5486ZM57.3272 81.8583H38.5734V86.7899H57.3272V81.8583ZM25.1535 98.0928H36.892C37.5316 98.0928 38.0496 98.6102 38.0496 99.2491V104.403H57.8452V99.2491C57.8452 98.6102 58.3633 98.0928 59.0029 98.0928H70.75C71.3896 98.0928 71.9077 98.6102 71.9077 99.2491V104.403H80.8417C82.3438 104.403 83.5824 103.175 83.5824 101.674V73.2554C83.5824 71.3793 82.0399 69.8386 80.1529 69.8386C58.6845 69.8386 37.2132 69.8386 15.7448 69.8386C13.8665 69.8386 12.324 71.3793 12.324 73.2554V101.674C12.324 103.175 13.554 104.403 15.056 104.403H23.9988V99.2491C23.9959 98.6073 24.5139 98.0928 25.1535 98.0928ZM38.0496 106.713V111.497C38.0496 112.127 37.5316 112.653 36.892 112.653H25.1535C24.5139 112.653 23.9959 112.13 23.9959 111.497V106.713H15.0531C14.0517 106.713 13.1083 106.418 12.3211 105.909V121.346C12.3211 123.231 13.8636 124.772 15.7419 124.772H80.15C82.037 124.772 83.5795 123.231 83.5795 121.346V105.909C82.7837 106.418 81.8489 106.713 80.8388 106.713H71.9048V111.497C71.9048 112.127 71.3867 112.653 70.7471 112.653H59C58.3604 112.653 57.8423 112.13 57.8423 111.497V106.713H38.0496ZM35.7343 100.402H26.3082V104.4H35.7343V100.402ZM26.3082 106.713V110.335H35.7343V106.713H26.3082ZM69.5837 100.402H60.1576V104.4H69.5837V100.402ZM60.1576 106.713V110.335H69.5837V106.713H60.1576ZM42.521 55.5814V31.8917C42.521 28.4488 45.334 25.639 48.7809 25.639H68.9036C70.0439 22.4505 71.8903 19.4614 74.4342 16.9205C83.6722 7.69318 98.8401 7.69318 108.087 16.9205C110.631 19.4614 112.468 22.4505 113.617 25.639H133.74C137.187 25.639 140 28.4488 140 31.8917V133.747C140 137.19 137.187 140 133.74 140H48.778C45.3311 140 42.5181 137.19 42.5181 133.747V127.084H15.7419C12.5844 127.084 10 124.511 10 121.349V73.2554C10 70.1016 12.5844 67.5289 15.7419 67.5289H29.9519V66.1847C29.9519 60.3511 34.7272 55.5814 40.5675 55.5814H42.521ZM32.273 67.5289H37.0482C37.0482 65.1122 37.5663 62.6695 40.5675 62.6695H55.3274C57.2635 62.6695 58.8466 64.2507 58.8466 66.1847V67.5289H63.6305V66.1847C63.6305 61.6288 59.8885 57.8998 55.3274 57.8998H40.5675C36.0064 57.8998 32.273 61.6288 32.273 66.1847V67.5289ZM39.3606 67.5289H42.5181V64.9792H40.5646C39.9076 64.9792 39.3577 65.5285 39.3577 66.1847V67.5289H39.3606ZM44.8334 64.9792V67.5289H56.5313V66.1847C56.5313 65.5285 55.9901 64.9792 55.3245 64.9792H44.8334ZM92.6381 69.7143C91.1129 69.7143 91.1129 67.4046 92.6381 67.4046H124.936C126.453 67.4046 126.453 69.7143 124.936 69.7143H92.6381ZM92.6381 84.1044C91.1129 84.1044 91.1129 81.7947 92.6381 81.7947H124.936C126.453 81.7947 126.453 84.1044 124.936 84.1044H92.6381ZM92.6381 98.4946C91.1129 98.4946 91.1129 96.1849 92.6381 96.1849H124.936C126.453 96.1849 126.453 98.4946 124.936 98.4946H92.6381ZM92.6381 112.882C91.1129 112.882 91.1129 110.572 92.6381 110.572H124.936C126.453 110.572 126.453 112.882 124.936 112.882H92.6381ZM92.6381 127.272C91.1129 127.272 91.1129 124.962 92.6381 124.962H124.936C126.453 124.962 126.453 127.272 124.936 127.272H92.6381ZM86.7139 21.8376C84.2191 24.3295 84.2105 28.4257 86.7139 30.9175C89.2086 33.4093 93.3095 33.4093 95.8042 30.9175C98.2989 28.4257 98.2989 24.3295 95.8042 21.8376C93.3095 19.3458 89.2086 19.3458 86.7139 21.8376ZM85.0729 20.1986C88.4706 16.8048 94.0475 16.8048 97.4365 20.1986C100.594 23.3466 100.817 28.3678 98.1166 31.7847C100.119 32.9555 101.645 34.6032 102.605 36.4215C103.951 38.9942 104.206 42.044 102.785 44.6486C98.9704 51.6384 83.539 51.6384 79.7333 44.6486C78.3152 42.0498 78.5612 38.9942 79.9127 36.4215C80.8649 34.6032 82.3988 32.9555 84.3928 31.7847C81.7013 28.3678 81.9212 23.3437 85.0729 20.1986ZM96.3686 33.4642C93.3327 35.6352 89.1825 35.6352 86.1466 33.4642C84.2423 34.4153 82.8068 35.8664 81.956 37.4882C80.972 39.3729 80.7086 41.6335 81.7592 43.553C84.6793 48.9037 97.8388 48.9037 100.759 43.553C101.801 41.6364 101.546 39.3729 100.562 37.4882C99.7084 35.8636 98.2729 34.4153 96.3686 33.4642ZM106.443 18.5595C98.0992 10.2255 84.4073 10.2255 76.0723 18.5595C67.7286 26.8936 67.7286 40.5697 76.0723 48.8951C84.4073 57.2291 98.0992 57.2291 106.443 48.8951C114.787 40.5697 114.787 26.8907 106.443 18.5595Z"/>
</mask>
<path d="M48.778 137.687H133.737C135.902 137.687 137.676 135.91 137.676 133.747V31.8917C137.676 29.7294 135.905 27.9573 133.737 27.9573H114.312C116.248 35.7913 114.173 44.4433 108.087 50.5312C98.8401 59.7585 83.6722 59.7585 74.4342 50.5312C68.3392 44.4433 66.2728 35.7884 68.2061 27.9573H48.778C46.6132 27.9573 44.8334 29.7265 44.8334 31.8917V55.5814H55.3245C61.1648 55.5814 65.94 60.3511 65.94 66.1847V67.5289H80.15C83.3075 67.5289 85.8919 70.1016 85.8919 73.2554V121.349C85.8919 124.511 83.3075 127.084 80.15 127.084H44.8334V133.747C44.8334 135.91 46.6132 137.687 48.778 137.687ZM37.41 79.5486H58.4848C59.1244 79.5486 59.6425 80.066 59.6425 80.7049V87.9491C59.6425 88.588 59.1244 89.1054 58.4848 89.1054H37.41C36.7791 89.1054 36.2524 88.588 36.2524 87.9491V80.7049C36.2524 80.066 36.7762 79.5486 37.41 79.5486ZM57.3272 81.8583H38.5734V86.7899H57.3272V81.8583ZM25.1535 98.0928H36.892C37.5316 98.0928 38.0496 98.6102 38.0496 99.2491V104.403H57.8452V99.2491C57.8452 98.6102 58.3633 98.0928 59.0029 98.0928H70.75C71.3896 98.0928 71.9077 98.6102 71.9077 99.2491V104.403H80.8417C82.3438 104.403 83.5824 103.175 83.5824 101.674V73.2554C83.5824 71.3793 82.0399 69.8386 80.1529 69.8386C58.6845 69.8386 37.2132 69.8386 15.7448 69.8386C13.8665 69.8386 12.324 71.3793 12.324 73.2554V101.674C12.324 103.175 13.554 104.403 15.056 104.403H23.9988V99.2491C23.9959 98.6073 24.5139 98.0928 25.1535 98.0928ZM38.0496 106.713V111.497C38.0496 112.127 37.5316 112.653 36.892 112.653H25.1535C24.5139 112.653 23.9959 112.13 23.9959 111.497V106.713H15.0531C14.0517 106.713 13.1083 106.418 12.3211 105.909V121.346C12.3211 123.231 13.8636 124.772 15.7419 124.772H80.15C82.037 124.772 83.5795 123.231 83.5795 121.346V105.909C82.7837 106.418 81.8489 106.713 80.8388 106.713H71.9048V111.497C71.9048 112.127 71.3867 112.653 70.7471 112.653H59C58.3604 112.653 57.8423 112.13 57.8423 111.497V106.713H38.0496ZM35.7343 100.402H26.3082V104.4H35.7343V100.402ZM26.3082 106.713V110.335H35.7343V106.713H26.3082ZM69.5837 100.402H60.1576V104.4H69.5837V100.402ZM60.1576 106.713V110.335H69.5837V106.713H60.1576ZM42.521 55.5814V31.8917C42.521 28.4488 45.334 25.639 48.7809 25.639H68.9036C70.0439 22.4505 71.8903 19.4614 74.4342 16.9205C83.6722 7.69318 98.8401 7.69318 108.087 16.9205C110.631 19.4614 112.468 22.4505 113.617 25.639H133.74C137.187 25.639 140 28.4488 140 31.8917V133.747C140 137.19 137.187 140 133.74 140H48.778C45.3311 140 42.5181 137.19 42.5181 133.747V127.084H15.7419C12.5844 127.084 10 124.511 10 121.349V73.2554C10 70.1016 12.5844 67.5289 15.7419 67.5289H29.9519V66.1847C29.9519 60.3511 34.7272 55.5814 40.5675 55.5814H42.521ZM32.273 67.5289H37.0482C37.0482 65.1122 37.5663 62.6695 40.5675 62.6695H55.3274C57.2635 62.6695 58.8466 64.2507 58.8466 66.1847V67.5289H63.6305V66.1847C63.6305 61.6288 59.8885 57.8998 55.3274 57.8998H40.5675C36.0064 57.8998 32.273 61.6288 32.273 66.1847V67.5289ZM39.3606 67.5289H42.5181V64.9792H40.5646C39.9076 64.9792 39.3577 65.5285 39.3577 66.1847V67.5289H39.3606ZM44.8334 64.9792V67.5289H56.5313V66.1847C56.5313 65.5285 55.9901 64.9792 55.3245 64.9792H44.8334ZM92.6381 69.7143C91.1129 69.7143 91.1129 67.4046 92.6381 67.4046H124.936C126.453 67.4046 126.453 69.7143 124.936 69.7143H92.6381ZM92.6381 84.1044C91.1129 84.1044 91.1129 81.7947 92.6381 81.7947H124.936C126.453 81.7947 126.453 84.1044 124.936 84.1044H92.6381ZM92.6381 98.4946C91.1129 98.4946 91.1129 96.1849 92.6381 96.1849H124.936C126.453 96.1849 126.453 98.4946 124.936 98.4946H92.6381ZM92.6381 112.882C91.1129 112.882 91.1129 110.572 92.6381 110.572H124.936C126.453 110.572 126.453 112.882 124.936 112.882H92.6381ZM92.6381 127.272C91.1129 127.272 91.1129 124.962 92.6381 124.962H124.936C126.453 124.962 126.453 127.272 124.936 127.272H92.6381ZM86.7139 21.8376C84.2191 24.3295 84.2105 28.4257 86.7139 30.9175C89.2086 33.4093 93.3095 33.4093 95.8042 30.9175C98.2989 28.4257 98.2989 24.3295 95.8042 21.8376C93.3095 19.3458 89.2086 19.3458 86.7139 21.8376ZM85.0729 20.1986C88.4706 16.8048 94.0475 16.8048 97.4365 20.1986C100.594 23.3466 100.817 28.3678 98.1166 31.7847C100.119 32.9555 101.645 34.6032 102.605 36.4215C103.951 38.9942 104.206 42.044 102.785 44.6486C98.9704 51.6384 83.539 51.6384 79.7333 44.6486C78.3152 42.0498 78.5612 38.9942 79.9127 36.4215C80.8649 34.6032 82.3988 32.9555 84.3928 31.7847C81.7013 28.3678 81.9212 23.3437 85.0729 20.1986ZM96.3686 33.4642C93.3327 35.6352 89.1825 35.6352 86.1466 33.4642C84.2423 34.4153 82.8068 35.8664 81.956 37.4882C80.972 39.3729 80.7086 41.6335 81.7592 43.553C84.6793 48.9037 97.8388 48.9037 100.759 43.553C101.801 41.6364 101.546 39.3729 100.562 37.4882C99.7084 35.8636 98.2729 34.4153 96.3686 33.4642ZM106.443 18.5595C98.0992 10.2255 84.4073 10.2255 76.0723 18.5595C67.7286 26.8936 67.7286 40.5697 76.0723 48.8951C84.4073 57.2291 98.0992 57.2291 106.443 48.8951C114.787 40.5697 114.787 26.8907 106.443 18.5595Z" fill="#663366"/>
<path d="M48.778 137.687H133.737C135.902 137.687 137.676 135.91 137.676 133.747V31.8917C137.676 29.7294 135.905 27.9573 133.737 27.9573H114.312C116.248 35.7913 114.173 44.4433 108.087 50.5312C98.8401 59.7585 83.6722 59.7585 74.4342 50.5312C68.3392 44.4433 66.2728 35.7884 68.2061 27.9573H48.778C46.6132 27.9573 44.8334 29.7265 44.8334 31.8917V55.5814H55.3245C61.1648 55.5814 65.94 60.3511 65.94 66.1847V67.5289H80.15C83.3075 67.5289 85.8919 70.1016 85.8919 73.2554V121.349C85.8919 124.511 83.3075 127.084 80.15 127.084H44.8334V133.747C44.8334 135.91 46.6132 137.687 48.778 137.687ZM37.41 79.5486H58.4848C59.1244 79.5486 59.6425 80.066 59.6425 80.7049V87.9491C59.6425 88.588 59.1244 89.1054 58.4848 89.1054H37.41C36.7791 89.1054 36.2524 88.588 36.2524 87.9491V80.7049C36.2524 80.066 36.7762 79.5486 37.41 79.5486ZM57.3272 81.8583H38.5734V86.7899H57.3272V81.8583ZM25.1535 98.0928H36.892C37.5316 98.0928 38.0496 98.6102 38.0496 99.2491V104.403H57.8452V99.2491C57.8452 98.6102 58.3633 98.0928 59.0029 98.0928H70.75C71.3896 98.0928 71.9077 98.6102 71.9077 99.2491V104.403H80.8417C82.3438 104.403 83.5824 103.175 83.5824 101.674V73.2554C83.5824 71.3793 82.0399 69.8386 80.1529 69.8386C58.6845 69.8386 37.2132 69.8386 15.7448 69.8386C13.8665 69.8386 12.324 71.3793 12.324 73.2554V101.674C12.324 103.175 13.554 104.403 15.056 104.403H23.9988V99.2491C23.9959 98.6073 24.5139 98.0928 25.1535 98.0928ZM38.0496 106.713V111.497C38.0496 112.127 37.5316 112.653 36.892 112.653H25.1535C24.5139 112.653 23.9959 112.13 23.9959 111.497V106.713H15.0531C14.0517 106.713 13.1083 106.418 12.3211 105.909V121.346C12.3211 123.231 13.8636 124.772 15.7419 124.772H80.15C82.037 124.772 83.5795 123.231 83.5795 121.346V105.909C82.7837 106.418 81.8489 106.713 80.8388 106.713H71.9048V111.497C71.9048 112.127 71.3867 112.653 70.7471 112.653H59C58.3604 112.653 57.8423 112.13 57.8423 111.497V106.713H38.0496ZM35.7343 100.402H26.3082V104.4H35.7343V100.402ZM26.3082 106.713V110.335H35.7343V106.713H26.3082ZM69.5837 100.402H60.1576V104.4H69.5837V100.402ZM60.1576 106.713V110.335H69.5837V106.713H60.1576ZM42.521 55.5814V31.8917C42.521 28.4488 45.334 25.639 48.7809 25.639H68.9036C70.0439 22.4505 71.8903 19.4614 74.4342 16.9205C83.6722 7.69318 98.8401 7.69318 108.087 16.9205C110.631 19.4614 112.468 22.4505 113.617 25.639H133.74C137.187 25.639 140 28.4488 140 31.8917V133.747C140 137.19 137.187 140 133.74 140H48.778C45.3311 140 42.5181 137.19 42.5181 133.747V127.084H15.7419C12.5844 127.084 10 124.511 10 121.349V73.2554C10 70.1016 12.5844 67.5289 15.7419 67.5289H29.9519V66.1847C29.9519 60.3511 34.7272 55.5814 40.5675 55.5814H42.521ZM32.273 67.5289H37.0482C37.0482 65.1122 37.5663 62.6695 40.5675 62.6695H55.3274C57.2635 62.6695 58.8466 64.2507 58.8466 66.1847V67.5289H63.6305V66.1847C63.6305 61.6288 59.8885 57.8998 55.3274 57.8998H40.5675C36.0064 57.8998 32.273 61.6288 32.273 66.1847V67.5289ZM39.3606 67.5289H42.5181V64.9792H40.5646C39.9076 64.9792 39.3577 65.5285 39.3577 66.1847V67.5289H39.3606ZM44.8334 64.9792V67.5289H56.5313V66.1847C56.5313 65.5285 55.9901 64.9792 55.3245 64.9792H44.8334ZM92.6381 69.7143C91.1129 69.7143 91.1129 67.4046 92.6381 67.4046H124.936C126.453 67.4046 126.453 69.7143 124.936 69.7143H92.6381ZM92.6381 84.1044C91.1129 84.1044 91.1129 81.7947 92.6381 81.7947H124.936C126.453 81.7947 126.453 84.1044 124.936 84.1044H92.6381ZM92.6381 98.4946C91.1129 98.4946 91.1129 96.1849 92.6381 96.1849H124.936C126.453 96.1849 126.453 98.4946 124.936 98.4946H92.6381ZM92.6381 112.882C91.1129 112.882 91.1129 110.572 92.6381 110.572H124.936C126.453 110.572 126.453 112.882 124.936 112.882H92.6381ZM92.6381 127.272C91.1129 127.272 91.1129 124.962 92.6381 124.962H124.936C126.453 124.962 126.453 127.272 124.936 127.272H92.6381ZM86.7139 21.8376C84.2191 24.3295 84.2105 28.4257 86.7139 30.9175C89.2086 33.4093 93.3095 33.4093 95.8042 30.9175C98.2989 28.4257 98.2989 24.3295 95.8042 21.8376C93.3095 19.3458 89.2086 19.3458 86.7139 21.8376ZM85.0729 20.1986C88.4706 16.8048 94.0475 16.8048 97.4365 20.1986C100.594 23.3466 100.817 28.3678 98.1166 31.7847C100.119 32.9555 101.645 34.6032 102.605 36.4215C103.951 38.9942 104.206 42.044 102.785 44.6486C98.9704 51.6384 83.539 51.6384 79.7333 44.6486C78.3152 42.0498 78.5612 38.9942 79.9127 36.4215C80.8649 34.6032 82.3988 32.9555 84.3928 31.7847C81.7013 28.3678 81.9212 23.3437 85.0729 20.1986ZM96.3686 33.4642C93.3327 35.6352 89.1825 35.6352 86.1466 33.4642C84.2423 34.4153 82.8068 35.8664 81.956 37.4882C80.972 39.3729 80.7086 41.6335 81.7592 43.553C84.6793 48.9037 97.8388 48.9037 100.759 43.553C101.801 41.6364 101.546 39.3729 100.562 37.4882C99.7084 35.8636 98.2729 34.4153 96.3686 33.4642ZM106.443 18.5595C98.0992 10.2255 84.4073 10.2255 76.0723 18.5595C67.7286 26.8936 67.7286 40.5697 76.0723 48.8951C84.4073 57.2291 98.0992 57.2291 106.443 48.8951C114.787 40.5697 114.787 26.8907 106.443 18.5595Z" stroke="#663366" stroke-width="0.5" mask="url(#path-1-outside-1_164_14)"/>
</svg>
