<svg width="150" height="150" viewBox="0 0 150 150" fill="none" xmlns="http://www.w3.org/2000/svg">
<mask id="path-1-outside-1_146_2707" maskUnits="userSpaceOnUse" x="8.93359" y="14.894" width="131" height="121" fill="black">
<rect fill="white" x="8.93359" y="14.894" width="131" height="121"/>
<path d="M137.535 131.581H132.739V108.842H135.614C136.021 108.842 136.412 108.68 136.701 108.391C136.989 108.103 137.151 107.712 137.151 107.304C137.151 106.896 136.989 106.505 136.701 106.217C136.412 105.929 136.021 105.767 135.614 105.767H132.739V100.065C132.739 99.6573 132.577 99.2663 132.288 98.978C132 98.6896 131.609 98.5277 131.201 98.5277H127.004V95.4529C127.004 95.0452 126.842 94.6542 126.554 94.3659C126.266 94.0775 125.875 93.9156 125.467 93.9156C125.059 93.9156 124.668 94.0775 124.38 94.3659C124.092 94.6542 123.93 95.0452 123.93 95.4529V98.5277H102.219L101.317 89.6878H103.137C103.544 89.6878 103.935 89.5258 104.224 89.2375C104.512 88.9492 104.674 88.5582 104.674 88.1504C104.674 87.7427 104.512 87.3517 104.224 87.0633C103.935 86.775 103.544 86.6131 103.137 86.6131H101.003L99.6307 73.1611H101.215C101.623 73.1611 102.014 72.9991 102.302 72.7108C102.59 72.4225 102.752 72.0314 102.752 71.6237C102.752 71.216 102.59 70.8249 102.302 70.5366C102.014 70.2483 101.623 70.0863 101.215 70.0863H99.317L97.9838 57.0187H99.6776C100.085 57.0187 100.476 56.8567 100.765 56.5684C101.053 56.2801 101.215 55.8891 101.215 55.4813C101.215 55.0736 101.053 54.6825 100.765 54.3942C100.476 54.1059 100.085 53.9439 99.6776 53.9439H97.6698L96.3753 41.2606H98.1402C98.5479 41.2606 98.939 41.0987 99.2273 40.8104C99.5156 40.5221 99.6776 40.131 99.6776 39.7233C99.6776 39.3155 99.5156 38.9245 99.2273 38.6362C98.939 38.3479 98.5479 38.1859 98.1402 38.1859H96.062L94.846 26.2713H96.6028C97.0106 26.2713 97.4016 26.1093 97.6899 25.821C97.9782 25.5327 98.1402 25.1417 98.1402 24.7339C98.1402 24.3262 97.9782 23.9351 97.6899 23.6468C97.4016 23.3585 97.0106 23.1966 96.6028 23.1966H94.4889V17.4314C94.4889 17.0237 94.327 16.6326 94.0387 16.3443C93.7503 16.056 93.3593 15.894 92.9516 15.894C92.5438 15.894 92.1528 16.056 91.8645 16.3443C91.5762 16.6326 91.4142 17.0237 91.4142 17.4314V23.1966H85.553V17.4314C85.553 17.0237 85.391 16.6326 85.1027 16.3443C84.8144 16.056 84.4233 15.894 84.0156 15.894C83.6079 15.894 83.2168 16.056 82.9285 16.3443C82.6402 16.6326 82.4782 17.0237 82.4782 17.4314V23.1966H76.2327V17.4314C76.2327 17.0237 76.0707 16.6326 75.7824 16.3443C75.4941 16.056 75.103 15.894 74.6953 15.894C74.2876 15.894 73.8965 16.056 73.6082 16.3443C73.3199 16.6326 73.1579 17.0237 73.1579 17.4314V23.1966H66.9124V17.4314C66.9124 17.0237 66.7504 16.6326 66.4621 16.3443C66.1738 16.056 65.7827 15.894 65.375 15.894C64.9673 15.894 64.5762 16.056 64.2879 16.3443C63.9996 16.6326 63.8376 17.0237 63.8376 17.4314V23.1966H57.5921V17.4314C57.5921 17.0237 57.4301 16.6326 57.1418 16.3443C56.8535 16.056 56.4624 15.894 56.0547 15.894C55.647 15.894 55.2559 16.056 54.9676 16.3443C54.6793 16.6326 54.5173 17.0237 54.5173 17.4314V23.1966H52.4034C51.9957 23.1966 51.6047 23.3585 51.3163 23.6468C51.028 23.9351 50.8661 24.3262 50.8661 24.7339C50.8661 25.1417 51.028 25.5327 51.3163 25.821C51.6047 26.1093 51.9957 26.2713 52.4034 26.2713H54.1603L52.9442 38.1859H50.8661C50.4583 38.1859 50.0673 38.3479 49.779 38.6362C49.4907 38.9245 49.3287 39.3155 49.3287 39.7233C49.3287 40.131 49.4907 40.5221 49.779 40.8104C50.0673 41.0987 50.4583 41.2606 50.8661 41.2606H52.631L51.3365 53.9439H49.3287C48.921 53.9439 48.5299 54.1059 48.2416 54.3942C47.9533 54.6825 47.7913 55.0736 47.7913 55.4813C47.7913 55.8891 47.9533 56.2801 48.2416 56.5684C48.5299 56.8567 48.921 57.0187 49.3287 57.0187H51.0225L49.6892 70.0863H47.7913C47.3836 70.0863 46.9926 70.2483 46.7042 70.5366C46.4159 70.8249 46.254 71.216 46.254 71.6237C46.254 72.0314 46.4159 72.4225 46.7042 72.7108C46.9926 72.9991 47.3836 73.1611 47.7913 73.1611H49.3756L48.0031 86.6131H45.8696C45.4619 86.6131 45.0708 86.775 44.7825 87.0633C44.4942 87.3517 44.3322 87.7427 44.3322 88.1504C44.3322 88.5582 44.4942 88.9492 44.7825 89.2375C45.0708 89.5258 45.4619 89.6878 45.8696 89.6878H47.6891L46.787 98.5277H25.0767V95.4529C25.0767 95.0452 24.9147 94.6542 24.6264 94.3659C24.3381 94.0775 23.9471 93.9156 23.5393 93.9156C23.1316 93.9156 22.7405 94.0775 22.4522 94.3659C22.1639 94.6542 22.0019 95.0452 22.0019 95.4529V98.5277H17.8049C17.3972 98.5277 17.0062 98.6896 16.7178 98.978C16.4295 99.2663 16.2676 99.6573 16.2676 100.065V105.767H13.3927C12.9849 105.767 12.5939 105.929 12.3056 106.217C12.0173 106.505 11.8553 106.896 11.8553 107.304C11.8553 107.712 12.0173 108.103 12.3056 108.391C12.5939 108.68 12.9849 108.842 13.3927 108.842H16.2676V131.581H11.471C11.0632 131.581 10.6722 131.743 10.3839 132.031C10.0956 132.32 9.93359 132.711 9.93359 133.119C9.93359 133.526 10.0956 133.917 10.3839 134.206C10.6722 134.494 11.0632 134.656 11.471 134.656H137.535C137.943 134.656 138.334 134.494 138.622 134.206C138.911 133.917 139.073 133.526 139.073 133.119C139.073 132.711 138.911 132.32 138.622 132.031C138.334 131.743 137.943 131.581 137.535 131.581ZM129.664 105.767H94.7929V101.602H129.664V105.767ZM78.3466 119.667H70.6597V109.289C70.6597 108.27 71.0646 107.292 71.7854 106.572C72.5062 105.851 73.4838 105.446 74.5031 105.446C75.5225 105.446 76.5001 105.851 77.2208 106.572C77.9416 107.292 78.3466 108.27 78.3466 109.289V119.667ZM69.1223 122.741H91.7182V125.816H57.288V122.741H69.1223ZM57.288 128.891H91.7182V131.581H57.288V128.891ZM57.2496 26.2713H91.7543L92.97 38.1859H83.343V33.5738C83.343 33.1661 83.181 32.775 82.8927 32.4867C82.6044 32.1984 82.2134 32.0364 81.8056 32.0364C81.3979 32.0364 81.0069 32.1984 80.7185 32.4867C80.4302 32.775 80.2683 33.1661 80.2683 33.5738V38.1859H67.585V33.5738C67.585 33.1661 67.423 32.775 67.1347 32.4867C66.8464 32.1984 66.4553 32.0364 66.0476 32.0364C65.6399 32.0364 65.2488 32.1984 64.9605 32.4867C64.6722 32.775 64.5102 33.1661 64.5102 33.5738V38.1859H56.0351L57.2496 26.2713ZM55.7203 41.2606H93.2836L94.5777 53.9439H83.343V49.3318C83.343 48.9241 83.181 48.5331 82.8927 48.2448C82.6044 47.9564 82.2134 47.7945 81.8056 47.7945C81.3979 47.7945 81.0069 47.9564 80.7185 48.2448C80.4302 48.5331 80.2683 48.9241 80.2683 49.3318V53.9439H67.585V49.3318C67.585 48.9241 67.423 48.5331 67.1347 48.2448C66.8464 47.9564 66.4553 47.7945 66.0476 47.7945C65.6399 47.7945 65.2488 47.9564 64.9605 48.2448C64.6722 48.5331 64.5102 48.9241 64.5102 49.3318V53.9439H54.4274L55.7203 41.2606ZM54.1122 57.0187H94.891L96.2246 70.0863H83.343V65.4742C83.343 65.0665 83.181 64.6755 82.8927 64.3871C82.6044 64.0988 82.2134 63.9369 81.8056 63.9369C81.3979 63.9369 81.0069 64.0988 80.7185 64.3871C80.4302 64.6755 80.2683 65.0665 80.2683 65.4742V70.0863H67.585V65.4742C67.585 65.0665 67.423 64.6755 67.1347 64.3871C66.8464 64.0988 66.4553 63.9369 66.0476 63.9369C65.6399 63.9369 65.2488 64.0988 64.9605 64.3871C64.6722 64.6755 64.5102 65.0665 64.5102 65.4742V70.0863H52.7797L54.1122 57.0187ZM52.4653 73.1611H96.5398L97.9127 86.6131H83.343V82.001C83.343 81.5932 83.181 81.2022 82.8927 80.9139C82.6044 80.6256 82.2134 80.4636 81.8056 80.4636C81.3979 80.4636 81.0069 80.6256 80.7185 80.9139C80.4302 81.2022 80.2683 81.5932 80.2683 82.001V86.6131H67.585V82.001C67.585 81.5932 67.423 81.2022 67.1347 80.9139C66.8464 80.6256 66.4553 80.4636 66.0476 80.4636C65.6399 80.4636 65.2488 80.6256 64.9605 80.9139C64.6722 81.2022 64.5102 81.5932 64.5102 82.001V86.6131H51.0936L52.4653 73.1611ZM50.7788 89.6878H98.2263L99.1283 98.5277H94.7929V95.4529C94.7929 95.0452 94.631 94.6542 94.3427 94.3659C94.0543 94.0775 93.6633 93.9156 93.2556 93.9156C92.8478 93.9156 92.4568 94.0775 92.1685 94.3659C91.8802 94.6542 91.7182 95.0452 91.7182 95.4529V119.667H81.4213V109.289C81.4213 107.454 80.6924 105.695 79.395 104.397C78.0976 103.1 76.3379 102.371 74.5031 102.371C72.6683 102.371 70.9087 103.1 69.6112 104.397C68.3138 105.695 67.585 107.454 67.585 109.289V119.667H57.288V95.4529C57.288 95.0452 57.1261 94.6542 56.8378 94.3659C56.5494 94.0775 56.1584 93.9156 55.7507 93.9156C55.3429 93.9156 54.9519 94.0775 54.6636 94.3659C54.3753 94.6542 54.2133 95.0452 54.2133 95.4529V98.5277H49.8779L50.7788 89.6878ZM19.3396 101.602H54.2106V105.767H19.3423L19.3396 101.602ZM47.5784 131.581V114.286C47.5784 113.878 47.4164 113.487 47.1281 113.199C46.8398 112.91 46.4488 112.748 46.041 112.748C45.6333 112.748 45.2423 112.91 44.9539 113.199C44.6656 113.487 44.5037 113.878 44.5037 114.286V131.581H29.4909V114.286C29.4909 113.878 29.3289 113.487 29.0406 113.199C28.7523 112.91 28.3612 112.748 27.9535 112.748C27.5458 112.748 27.1547 112.91 26.8664 113.199C26.5781 113.487 26.4161 113.878 26.4161 114.286V131.581H19.3442V108.842H54.2152V131.581H47.5784ZM122.587 131.581V114.286C122.587 113.878 122.425 113.487 122.137 113.199C121.849 112.91 121.458 112.748 121.05 112.748C120.642 112.748 120.251 112.91 119.963 113.199C119.675 113.487 119.513 113.878 119.513 114.286V131.581H104.5V114.286C104.5 113.878 104.338 113.487 104.05 113.199C103.761 112.91 103.37 112.748 102.963 112.748C102.555 112.748 102.164 112.91 101.875 113.199C101.587 113.487 101.425 113.878 101.425 114.286V131.581H94.7929V108.842H129.664V131.581H122.587Z"/>
</mask>
<path d="M137.535 131.581H132.739V108.842H135.614C136.021 108.842 136.412 108.68 136.701 108.391C136.989 108.103 137.151 107.712 137.151 107.304C137.151 106.896 136.989 106.505 136.701 106.217C136.412 105.929 136.021 105.767 135.614 105.767H132.739V100.065C132.739 99.6573 132.577 99.2663 132.288 98.978C132 98.6896 131.609 98.5277 131.201 98.5277H127.004V95.4529C127.004 95.0452 126.842 94.6542 126.554 94.3659C126.266 94.0775 125.875 93.9156 125.467 93.9156C125.059 93.9156 124.668 94.0775 124.38 94.3659C124.092 94.6542 123.93 95.0452 123.93 95.4529V98.5277H102.219L101.317 89.6878H103.137C103.544 89.6878 103.935 89.5258 104.224 89.2375C104.512 88.9492 104.674 88.5582 104.674 88.1504C104.674 87.7427 104.512 87.3517 104.224 87.0633C103.935 86.775 103.544 86.6131 103.137 86.6131H101.003L99.6307 73.1611H101.215C101.623 73.1611 102.014 72.9991 102.302 72.7108C102.59 72.4225 102.752 72.0314 102.752 71.6237C102.752 71.216 102.59 70.8249 102.302 70.5366C102.014 70.2483 101.623 70.0863 101.215 70.0863H99.317L97.9838 57.0187H99.6776C100.085 57.0187 100.476 56.8567 100.765 56.5684C101.053 56.2801 101.215 55.8891 101.215 55.4813C101.215 55.0736 101.053 54.6825 100.765 54.3942C100.476 54.1059 100.085 53.9439 99.6776 53.9439H97.6698L96.3753 41.2606H98.1402C98.5479 41.2606 98.939 41.0987 99.2273 40.8104C99.5156 40.5221 99.6776 40.131 99.6776 39.7233C99.6776 39.3155 99.5156 38.9245 99.2273 38.6362C98.939 38.3479 98.5479 38.1859 98.1402 38.1859H96.062L94.846 26.2713H96.6028C97.0106 26.2713 97.4016 26.1093 97.6899 25.821C97.9782 25.5327 98.1402 25.1417 98.1402 24.7339C98.1402 24.3262 97.9782 23.9351 97.6899 23.6468C97.4016 23.3585 97.0106 23.1966 96.6028 23.1966H94.4889V17.4314C94.4889 17.0237 94.327 16.6326 94.0387 16.3443C93.7503 16.056 93.3593 15.894 92.9516 15.894C92.5438 15.894 92.1528 16.056 91.8645 16.3443C91.5762 16.6326 91.4142 17.0237 91.4142 17.4314V23.1966H85.553V17.4314C85.553 17.0237 85.391 16.6326 85.1027 16.3443C84.8144 16.056 84.4233 15.894 84.0156 15.894C83.6079 15.894 83.2168 16.056 82.9285 16.3443C82.6402 16.6326 82.4782 17.0237 82.4782 17.4314V23.1966H76.2327V17.4314C76.2327 17.0237 76.0707 16.6326 75.7824 16.3443C75.4941 16.056 75.103 15.894 74.6953 15.894C74.2876 15.894 73.8965 16.056 73.6082 16.3443C73.3199 16.6326 73.1579 17.0237 73.1579 17.4314V23.1966H66.9124V17.4314C66.9124 17.0237 66.7504 16.6326 66.4621 16.3443C66.1738 16.056 65.7827 15.894 65.375 15.894C64.9673 15.894 64.5762 16.056 64.2879 16.3443C63.9996 16.6326 63.8376 17.0237 63.8376 17.4314V23.1966H57.5921V17.4314C57.5921 17.0237 57.4301 16.6326 57.1418 16.3443C56.8535 16.056 56.4624 15.894 56.0547 15.894C55.647 15.894 55.2559 16.056 54.9676 16.3443C54.6793 16.6326 54.5173 17.0237 54.5173 17.4314V23.1966H52.4034C51.9957 23.1966 51.6047 23.3585 51.3163 23.6468C51.028 23.9351 50.8661 24.3262 50.8661 24.7339C50.8661 25.1417 51.028 25.5327 51.3163 25.821C51.6047 26.1093 51.9957 26.2713 52.4034 26.2713H54.1603L52.9442 38.1859H50.8661C50.4583 38.1859 50.0673 38.3479 49.779 38.6362C49.4907 38.9245 49.3287 39.3155 49.3287 39.7233C49.3287 40.131 49.4907 40.5221 49.779 40.8104C50.0673 41.0987 50.4583 41.2606 50.8661 41.2606H52.631L51.3365 53.9439H49.3287C48.921 53.9439 48.5299 54.1059 48.2416 54.3942C47.9533 54.6825 47.7913 55.0736 47.7913 55.4813C47.7913 55.8891 47.9533 56.2801 48.2416 56.5684C48.5299 56.8567 48.921 57.0187 49.3287 57.0187H51.0225L49.6892 70.0863H47.7913C47.3836 70.0863 46.9926 70.2483 46.7042 70.5366C46.4159 70.8249 46.254 71.216 46.254 71.6237C46.254 72.0314 46.4159 72.4225 46.7042 72.7108C46.9926 72.9991 47.3836 73.1611 47.7913 73.1611H49.3756L48.0031 86.6131H45.8696C45.4619 86.6131 45.0708 86.775 44.7825 87.0633C44.4942 87.3517 44.3322 87.7427 44.3322 88.1504C44.3322 88.5582 44.4942 88.9492 44.7825 89.2375C45.0708 89.5258 45.4619 89.6878 45.8696 89.6878H47.6891L46.787 98.5277H25.0767V95.4529C25.0767 95.0452 24.9147 94.6542 24.6264 94.3659C24.3381 94.0775 23.9471 93.9156 23.5393 93.9156C23.1316 93.9156 22.7405 94.0775 22.4522 94.3659C22.1639 94.6542 22.0019 95.0452 22.0019 95.4529V98.5277H17.8049C17.3972 98.5277 17.0062 98.6896 16.7178 98.978C16.4295 99.2663 16.2676 99.6573 16.2676 100.065V105.767H13.3927C12.9849 105.767 12.5939 105.929 12.3056 106.217C12.0173 106.505 11.8553 106.896 11.8553 107.304C11.8553 107.712 12.0173 108.103 12.3056 108.391C12.5939 108.68 12.9849 108.842 13.3927 108.842H16.2676V131.581H11.471C11.0632 131.581 10.6722 131.743 10.3839 132.031C10.0956 132.32 9.93359 132.711 9.93359 133.119C9.93359 133.526 10.0956 133.917 10.3839 134.206C10.6722 134.494 11.0632 134.656 11.471 134.656H137.535C137.943 134.656 138.334 134.494 138.622 134.206C138.911 133.917 139.073 133.526 139.073 133.119C139.073 132.711 138.911 132.32 138.622 132.031C138.334 131.743 137.943 131.581 137.535 131.581ZM129.664 105.767H94.7929V101.602H129.664V105.767ZM78.3466 119.667H70.6597V109.289C70.6597 108.27 71.0646 107.292 71.7854 106.572C72.5062 105.851 73.4838 105.446 74.5031 105.446C75.5225 105.446 76.5001 105.851 77.2208 106.572C77.9416 107.292 78.3466 108.27 78.3466 109.289V119.667ZM69.1223 122.741H91.7182V125.816H57.288V122.741H69.1223ZM57.288 128.891H91.7182V131.581H57.288V128.891ZM57.2496 26.2713H91.7543L92.97 38.1859H83.343V33.5738C83.343 33.1661 83.181 32.775 82.8927 32.4867C82.6044 32.1984 82.2134 32.0364 81.8056 32.0364C81.3979 32.0364 81.0069 32.1984 80.7185 32.4867C80.4302 32.775 80.2683 33.1661 80.2683 33.5738V38.1859H67.585V33.5738C67.585 33.1661 67.423 32.775 67.1347 32.4867C66.8464 32.1984 66.4553 32.0364 66.0476 32.0364C65.6399 32.0364 65.2488 32.1984 64.9605 32.4867C64.6722 32.775 64.5102 33.1661 64.5102 33.5738V38.1859H56.0351L57.2496 26.2713ZM55.7203 41.2606H93.2836L94.5777 53.9439H83.343V49.3318C83.343 48.9241 83.181 48.5331 82.8927 48.2448C82.6044 47.9564 82.2134 47.7945 81.8056 47.7945C81.3979 47.7945 81.0069 47.9564 80.7185 48.2448C80.4302 48.5331 80.2683 48.9241 80.2683 49.3318V53.9439H67.585V49.3318C67.585 48.9241 67.423 48.5331 67.1347 48.2448C66.8464 47.9564 66.4553 47.7945 66.0476 47.7945C65.6399 47.7945 65.2488 47.9564 64.9605 48.2448C64.6722 48.5331 64.5102 48.9241 64.5102 49.3318V53.9439H54.4274L55.7203 41.2606ZM54.1122 57.0187H94.891L96.2246 70.0863H83.343V65.4742C83.343 65.0665 83.181 64.6755 82.8927 64.3871C82.6044 64.0988 82.2134 63.9369 81.8056 63.9369C81.3979 63.9369 81.0069 64.0988 80.7185 64.3871C80.4302 64.6755 80.2683 65.0665 80.2683 65.4742V70.0863H67.585V65.4742C67.585 65.0665 67.423 64.6755 67.1347 64.3871C66.8464 64.0988 66.4553 63.9369 66.0476 63.9369C65.6399 63.9369 65.2488 64.0988 64.9605 64.3871C64.6722 64.6755 64.5102 65.0665 64.5102 65.4742V70.0863H52.7797L54.1122 57.0187ZM52.4653 73.1611H96.5398L97.9127 86.6131H83.343V82.001C83.343 81.5932 83.181 81.2022 82.8927 80.9139C82.6044 80.6256 82.2134 80.4636 81.8056 80.4636C81.3979 80.4636 81.0069 80.6256 80.7185 80.9139C80.4302 81.2022 80.2683 81.5932 80.2683 82.001V86.6131H67.585V82.001C67.585 81.5932 67.423 81.2022 67.1347 80.9139C66.8464 80.6256 66.4553 80.4636 66.0476 80.4636C65.6399 80.4636 65.2488 80.6256 64.9605 80.9139C64.6722 81.2022 64.5102 81.5932 64.5102 82.001V86.6131H51.0936L52.4653 73.1611ZM50.7788 89.6878H98.2263L99.1283 98.5277H94.7929V95.4529C94.7929 95.0452 94.631 94.6542 94.3427 94.3659C94.0543 94.0775 93.6633 93.9156 93.2556 93.9156C92.8478 93.9156 92.4568 94.0775 92.1685 94.3659C91.8802 94.6542 91.7182 95.0452 91.7182 95.4529V119.667H81.4213V109.289C81.4213 107.454 80.6924 105.695 79.395 104.397C78.0976 103.1 76.3379 102.371 74.5031 102.371C72.6683 102.371 70.9087 103.1 69.6112 104.397C68.3138 105.695 67.585 107.454 67.585 109.289V119.667H57.288V95.4529C57.288 95.0452 57.1261 94.6542 56.8378 94.3659C56.5494 94.0775 56.1584 93.9156 55.7507 93.9156C55.3429 93.9156 54.9519 94.0775 54.6636 94.3659C54.3753 94.6542 54.2133 95.0452 54.2133 95.4529V98.5277H49.8779L50.7788 89.6878ZM19.3396 101.602H54.2106V105.767H19.3423L19.3396 101.602ZM47.5784 131.581V114.286C47.5784 113.878 47.4164 113.487 47.1281 113.199C46.8398 112.91 46.4488 112.748 46.041 112.748C45.6333 112.748 45.2423 112.91 44.9539 113.199C44.6656 113.487 44.5037 113.878 44.5037 114.286V131.581H29.4909V114.286C29.4909 113.878 29.3289 113.487 29.0406 113.199C28.7523 112.91 28.3612 112.748 27.9535 112.748C27.5458 112.748 27.1547 112.91 26.8664 113.199C26.5781 113.487 26.4161 113.878 26.4161 114.286V131.581H19.3442V108.842H54.2152V131.581H47.5784ZM122.587 131.581V114.286C122.587 113.878 122.425 113.487 122.137 113.199C121.849 112.91 121.458 112.748 121.05 112.748C120.642 112.748 120.251 112.91 119.963 113.199C119.675 113.487 119.513 113.878 119.513 114.286V131.581H104.5V114.286C104.5 113.878 104.338 113.487 104.05 113.199C103.761 112.91 103.37 112.748 102.963 112.748C102.555 112.748 102.164 112.91 101.875 113.199C101.587 113.487 101.425 113.878 101.425 114.286V131.581H94.7929V108.842H129.664V131.581H122.587Z" fill="#663366"/>
<path d="M137.535 131.581H132.739V108.842H135.614C136.021 108.842 136.412 108.68 136.701 108.391C136.989 108.103 137.151 107.712 137.151 107.304C137.151 106.896 136.989 106.505 136.701 106.217C136.412 105.929 136.021 105.767 135.614 105.767H132.739V100.065C132.739 99.6573 132.577 99.2663 132.288 98.978C132 98.6896 131.609 98.5277 131.201 98.5277H127.004V95.4529C127.004 95.0452 126.842 94.6542 126.554 94.3659C126.266 94.0775 125.875 93.9156 125.467 93.9156C125.059 93.9156 124.668 94.0775 124.38 94.3659C124.092 94.6542 123.93 95.0452 123.93 95.4529V98.5277H102.219L101.317 89.6878H103.137C103.544 89.6878 103.935 89.5258 104.224 89.2375C104.512 88.9492 104.674 88.5582 104.674 88.1504C104.674 87.7427 104.512 87.3517 104.224 87.0633C103.935 86.775 103.544 86.6131 103.137 86.6131H101.003L99.6307 73.1611H101.215C101.623 73.1611 102.014 72.9991 102.302 72.7108C102.59 72.4225 102.752 72.0314 102.752 71.6237C102.752 71.216 102.59 70.8249 102.302 70.5366C102.014 70.2483 101.623 70.0863 101.215 70.0863H99.317L97.9838 57.0187H99.6776C100.085 57.0187 100.476 56.8567 100.765 56.5684C101.053 56.2801 101.215 55.8891 101.215 55.4813C101.215 55.0736 101.053 54.6825 100.765 54.3942C100.476 54.1059 100.085 53.9439 99.6776 53.9439H97.6698L96.3753 41.2606H98.1402C98.5479 41.2606 98.939 41.0987 99.2273 40.8104C99.5156 40.5221 99.6776 40.131 99.6776 39.7233C99.6776 39.3155 99.5156 38.9245 99.2273 38.6362C98.939 38.3479 98.5479 38.1859 98.1402 38.1859H96.062L94.846 26.2713H96.6028C97.0106 26.2713 97.4016 26.1093 97.6899 25.821C97.9782 25.5327 98.1402 25.1417 98.1402 24.7339C98.1402 24.3262 97.9782 23.9351 97.6899 23.6468C97.4016 23.3585 97.0106 23.1966 96.6028 23.1966H94.4889V17.4314C94.4889 17.0237 94.327 16.6326 94.0387 16.3443C93.7503 16.056 93.3593 15.894 92.9516 15.894C92.5438 15.894 92.1528 16.056 91.8645 16.3443C91.5762 16.6326 91.4142 17.0237 91.4142 17.4314V23.1966H85.553V17.4314C85.553 17.0237 85.391 16.6326 85.1027 16.3443C84.8144 16.056 84.4233 15.894 84.0156 15.894C83.6079 15.894 83.2168 16.056 82.9285 16.3443C82.6402 16.6326 82.4782 17.0237 82.4782 17.4314V23.1966H76.2327V17.4314C76.2327 17.0237 76.0707 16.6326 75.7824 16.3443C75.4941 16.056 75.103 15.894 74.6953 15.894C74.2876 15.894 73.8965 16.056 73.6082 16.3443C73.3199 16.6326 73.1579 17.0237 73.1579 17.4314V23.1966H66.9124V17.4314C66.9124 17.0237 66.7504 16.6326 66.4621 16.3443C66.1738 16.056 65.7827 15.894 65.375 15.894C64.9673 15.894 64.5762 16.056 64.2879 16.3443C63.9996 16.6326 63.8376 17.0237 63.8376 17.4314V23.1966H57.5921V17.4314C57.5921 17.0237 57.4301 16.6326 57.1418 16.3443C56.8535 16.056 56.4624 15.894 56.0547 15.894C55.647 15.894 55.2559 16.056 54.9676 16.3443C54.6793 16.6326 54.5173 17.0237 54.5173 17.4314V23.1966H52.4034C51.9957 23.1966 51.6047 23.3585 51.3163 23.6468C51.028 23.9351 50.8661 24.3262 50.8661 24.7339C50.8661 25.1417 51.028 25.5327 51.3163 25.821C51.6047 26.1093 51.9957 26.2713 52.4034 26.2713H54.1603L52.9442 38.1859H50.8661C50.4583 38.1859 50.0673 38.3479 49.779 38.6362C49.4907 38.9245 49.3287 39.3155 49.3287 39.7233C49.3287 40.131 49.4907 40.5221 49.779 40.8104C50.0673 41.0987 50.4583 41.2606 50.8661 41.2606H52.631L51.3365 53.9439H49.3287C48.921 53.9439 48.5299 54.1059 48.2416 54.3942C47.9533 54.6825 47.7913 55.0736 47.7913 55.4813C47.7913 55.8891 47.9533 56.2801 48.2416 56.5684C48.5299 56.8567 48.921 57.0187 49.3287 57.0187H51.0225L49.6892 70.0863H47.7913C47.3836 70.0863 46.9926 70.2483 46.7042 70.5366C46.4159 70.8249 46.254 71.216 46.254 71.6237C46.254 72.0314 46.4159 72.4225 46.7042 72.7108C46.9926 72.9991 47.3836 73.1611 47.7913 73.1611H49.3756L48.0031 86.6131H45.8696C45.4619 86.6131 45.0708 86.775 44.7825 87.0633C44.4942 87.3517 44.3322 87.7427 44.3322 88.1504C44.3322 88.5582 44.4942 88.9492 44.7825 89.2375C45.0708 89.5258 45.4619 89.6878 45.8696 89.6878H47.6891L46.787 98.5277H25.0767V95.4529C25.0767 95.0452 24.9147 94.6542 24.6264 94.3659C24.3381 94.0775 23.9471 93.9156 23.5393 93.9156C23.1316 93.9156 22.7405 94.0775 22.4522 94.3659C22.1639 94.6542 22.0019 95.0452 22.0019 95.4529V98.5277H17.8049C17.3972 98.5277 17.0062 98.6896 16.7178 98.978C16.4295 99.2663 16.2676 99.6573 16.2676 100.065V105.767H13.3927C12.9849 105.767 12.5939 105.929 12.3056 106.217C12.0173 106.505 11.8553 106.896 11.8553 107.304C11.8553 107.712 12.0173 108.103 12.3056 108.391C12.5939 108.68 12.9849 108.842 13.3927 108.842H16.2676V131.581H11.471C11.0632 131.581 10.6722 131.743 10.3839 132.031C10.0956 132.32 9.93359 132.711 9.93359 133.119C9.93359 133.526 10.0956 133.917 10.3839 134.206C10.6722 134.494 11.0632 134.656 11.471 134.656H137.535C137.943 134.656 138.334 134.494 138.622 134.206C138.911 133.917 139.073 133.526 139.073 133.119C139.073 132.711 138.911 132.32 138.622 132.031C138.334 131.743 137.943 131.581 137.535 131.581ZM129.664 105.767H94.7929V101.602H129.664V105.767ZM78.3466 119.667H70.6597V109.289C70.6597 108.27 71.0646 107.292 71.7854 106.572C72.5062 105.851 73.4838 105.446 74.5031 105.446C75.5225 105.446 76.5001 105.851 77.2208 106.572C77.9416 107.292 78.3466 108.27 78.3466 109.289V119.667ZM69.1223 122.741H91.7182V125.816H57.288V122.741H69.1223ZM57.288 128.891H91.7182V131.581H57.288V128.891ZM57.2496 26.2713H91.7543L92.97 38.1859H83.343V33.5738C83.343 33.1661 83.181 32.775 82.8927 32.4867C82.6044 32.1984 82.2134 32.0364 81.8056 32.0364C81.3979 32.0364 81.0069 32.1984 80.7185 32.4867C80.4302 32.775 80.2683 33.1661 80.2683 33.5738V38.1859H67.585V33.5738C67.585 33.1661 67.423 32.775 67.1347 32.4867C66.8464 32.1984 66.4553 32.0364 66.0476 32.0364C65.6399 32.0364 65.2488 32.1984 64.9605 32.4867C64.6722 32.775 64.5102 33.1661 64.5102 33.5738V38.1859H56.0351L57.2496 26.2713ZM55.7203 41.2606H93.2836L94.5777 53.9439H83.343V49.3318C83.343 48.9241 83.181 48.5331 82.8927 48.2448C82.6044 47.9564 82.2134 47.7945 81.8056 47.7945C81.3979 47.7945 81.0069 47.9564 80.7185 48.2448C80.4302 48.5331 80.2683 48.9241 80.2683 49.3318V53.9439H67.585V49.3318C67.585 48.9241 67.423 48.5331 67.1347 48.2448C66.8464 47.9564 66.4553 47.7945 66.0476 47.7945C65.6399 47.7945 65.2488 47.9564 64.9605 48.2448C64.6722 48.5331 64.5102 48.9241 64.5102 49.3318V53.9439H54.4274L55.7203 41.2606ZM54.1122 57.0187H94.891L96.2246 70.0863H83.343V65.4742C83.343 65.0665 83.181 64.6755 82.8927 64.3871C82.6044 64.0988 82.2134 63.9369 81.8056 63.9369C81.3979 63.9369 81.0069 64.0988 80.7185 64.3871C80.4302 64.6755 80.2683 65.0665 80.2683 65.4742V70.0863H67.585V65.4742C67.585 65.0665 67.423 64.6755 67.1347 64.3871C66.8464 64.0988 66.4553 63.9369 66.0476 63.9369C65.6399 63.9369 65.2488 64.0988 64.9605 64.3871C64.6722 64.6755 64.5102 65.0665 64.5102 65.4742V70.0863H52.7797L54.1122 57.0187ZM52.4653 73.1611H96.5398L97.9127 86.6131H83.343V82.001C83.343 81.5932 83.181 81.2022 82.8927 80.9139C82.6044 80.6256 82.2134 80.4636 81.8056 80.4636C81.3979 80.4636 81.0069 80.6256 80.7185 80.9139C80.4302 81.2022 80.2683 81.5932 80.2683 82.001V86.6131H67.585V82.001C67.585 81.5932 67.423 81.2022 67.1347 80.9139C66.8464 80.6256 66.4553 80.4636 66.0476 80.4636C65.6399 80.4636 65.2488 80.6256 64.9605 80.9139C64.6722 81.2022 64.5102 81.5932 64.5102 82.001V86.6131H51.0936L52.4653 73.1611ZM50.7788 89.6878H98.2263L99.1283 98.5277H94.7929V95.4529C94.7929 95.0452 94.631 94.6542 94.3427 94.3659C94.0543 94.0775 93.6633 93.9156 93.2556 93.9156C92.8478 93.9156 92.4568 94.0775 92.1685 94.3659C91.8802 94.6542 91.7182 95.0452 91.7182 95.4529V119.667H81.4213V109.289C81.4213 107.454 80.6924 105.695 79.395 104.397C78.0976 103.1 76.3379 102.371 74.5031 102.371C72.6683 102.371 70.9087 103.1 69.6112 104.397C68.3138 105.695 67.585 107.454 67.585 109.289V119.667H57.288V95.4529C57.288 95.0452 57.1261 94.6542 56.8378 94.3659C56.5494 94.0775 56.1584 93.9156 55.7507 93.9156C55.3429 93.9156 54.9519 94.0775 54.6636 94.3659C54.3753 94.6542 54.2133 95.0452 54.2133 95.4529V98.5277H49.8779L50.7788 89.6878ZM19.3396 101.602H54.2106V105.767H19.3423L19.3396 101.602ZM47.5784 131.581V114.286C47.5784 113.878 47.4164 113.487 47.1281 113.199C46.8398 112.91 46.4488 112.748 46.041 112.748C45.6333 112.748 45.2423 112.91 44.9539 113.199C44.6656 113.487 44.5037 113.878 44.5037 114.286V131.581H29.4909V114.286C29.4909 113.878 29.3289 113.487 29.0406 113.199C28.7523 112.91 28.3612 112.748 27.9535 112.748C27.5458 112.748 27.1547 112.91 26.8664 113.199C26.5781 113.487 26.4161 113.878 26.4161 114.286V131.581H19.3442V108.842H54.2152V131.581H47.5784ZM122.587 131.581V114.286C122.587 113.878 122.425 113.487 122.137 113.199C121.849 112.91 121.458 112.748 121.05 112.748C120.642 112.748 120.251 112.91 119.963 113.199C119.675 113.487 119.513 113.878 119.513 114.286V131.581H104.5V114.286C104.5 113.878 104.338 113.487 104.05 113.199C103.761 112.91 103.37 112.748 102.963 112.748C102.555 112.748 102.164 112.91 101.875 113.199C101.587 113.487 101.425 113.878 101.425 114.286V131.581H94.7929V108.842H129.664V131.581H122.587Z" stroke="#663366" stroke-width="0.6" mask="url(#path-1-outside-1_146_2707)"/>
<path d="M82.5742 94.5339C83.0217 94.5339 83.4512 94.7117 83.7676 95.028C84.084 95.3444 84.2616 95.774 84.2617 96.2214C84.2617 96.6688 84.084 97.0983 83.7676 97.4147C83.4511 97.7312 83.0217 97.9089 82.5742 97.9089H66.4316C65.9842 97.9088 65.5547 97.7311 65.2383 97.4147C64.922 97.0983 64.7441 96.6688 64.7441 96.2214C64.7442 95.774 64.9219 95.3444 65.2383 95.028C65.5547 94.7116 65.9842 94.5339 66.4316 94.5339H82.5742Z" fill="#663366" stroke="#663366" stroke-width="0.3"/>
</svg>
