<svg width="150" height="150" viewBox="0 0 150 150" fill="none" xmlns="http://www.w3.org/2000/svg">
<mask id="mask0_144_2533" style="mask-type:luminance" maskUnits="userSpaceOnUse" x="10" y="10" width="130" height="131">
<path d="M10 10.0001H140V140H10V10.0001Z" fill="white"/>
</mask>
<g mask="url(#mask0_144_2533)">
<path d="M78.7443 34.8347V27.771H80.0823C82.8014 27.771 84.5029 24.8257 83.1419 22.472L78.0587 13.6716C76.7003 11.3153 73.3005 11.3153 71.9396 13.6716L66.8589 22.472C65.498 24.8257 67.1991 27.771 69.9185 27.771H71.2566V34.8321" stroke="#663366" stroke-width="4" stroke-miterlimit="10" stroke-linecap="round" stroke-linejoin="round"/>
<path d="M78.7443 117.171V122.229H80.0823C82.8014 122.229 84.5029 125.174 83.1419 127.528L78.0612 136.329C76.7003 138.685 73.3005 138.685 71.9396 136.329L66.8589 127.528C65.498 125.174 67.1991 122.229 69.9185 122.229H71.2566V117.174" stroke="#663366" stroke-width="4" stroke-miterlimit="10" stroke-linecap="round" stroke-linejoin="round"/>
<path d="M107.214 50.102L124.813 32.5063L126.12 33.8114C128.779 36.4698 133.319 35.2536 134.291 31.6227L137.924 18.0565C138.897 14.4256 135.573 11.102 131.942 12.077L118.376 15.7104C114.745 16.6828 113.529 21.2227 116.188 23.8811L117.495 25.1862L99.7725 42.9088" stroke="#663366" stroke-width="4" stroke-miterlimit="10" stroke-linecap="round" stroke-linejoin="round"/>
<path d="M49.098 108.221L32.505 124.814L33.8128 126.119C36.4712 128.777 35.2548 133.317 31.6242 134.29L18.058 137.923C14.4271 138.898 11.1032 135.574 12.0757 131.944L15.7093 118.377C16.6818 114.747 21.2216 113.53 23.88 116.189L25.1876 117.494L41.9048 100.777" stroke="#663366" stroke-width="4" stroke-miterlimit="10" stroke-linecap="round" stroke-linejoin="round"/>
<path d="M39.435 32.1153L32.5059 25.1862L33.8136 23.8811C36.472 21.2227 35.2558 16.6829 31.6249 15.7104L18.0589 12.077C14.4281 11.102 11.1042 14.4257 12.0767 18.0565L15.7103 31.6227C16.6828 35.2536 21.2226 36.4698 23.8808 33.8114L25.1886 32.5063L42.7841 50.0995" stroke="#663366" stroke-width="4" stroke-miterlimit="10" stroke-linecap="round" stroke-linejoin="round"/>
<path d="M50.2297 42.9088L44.8164 37.4955" stroke="#663366" stroke-width="4" stroke-miterlimit="10" stroke-linecap="round" stroke-linejoin="round"/>
<path d="M108.094 100.777L124.814 117.494L126.121 116.189C128.779 113.53 133.319 114.746 134.292 118.377L137.925 131.944C138.897 135.574 135.574 138.898 131.943 137.923L118.377 134.29C114.746 133.317 113.53 128.777 116.188 126.119L117.496 124.814L100.9 108.219" stroke="#663366" stroke-width="4" stroke-miterlimit="10" stroke-linecap="round" stroke-linejoin="round"/>
<path d="M116.247 78.7452H122.229V80.0808C122.229 82.8026 125.174 84.5013 127.53 83.1429L136.331 78.0597C138.684 76.6987 138.684 73.2989 136.331 71.9405L127.53 66.8573C125.174 65.4989 122.229 67.1976 122.229 69.9194V71.255H116.066" stroke="#663366" stroke-width="4" stroke-miterlimit="10" stroke-linecap="round" stroke-linejoin="round"/>
<path d="M33.9321 71.2549H27.7723V69.9194C27.7723 67.1975 24.8273 65.4989 22.4708 66.8573L13.6704 71.9405C11.3169 73.3014 11.3169 76.7012 13.6704 78.0596L22.4708 83.1428C24.8273 84.5012 27.7723 82.8026 27.7723 80.0807V78.7451H33.7518" stroke="#663366" stroke-width="4" stroke-miterlimit="10" stroke-linecap="round" stroke-linejoin="round"/>
<path d="M79.2088 87.0732V89.6097C79.2088 91.9152 77.3401 93.7839 75.0346 93.7839H72.7822" stroke="#663366" stroke-width="4" stroke-miterlimit="10" stroke-linecap="round" stroke-linejoin="round"/>
<path d="M52.4424 75.0131H50.4871C49.0916 75.0131 47.8279 74.4484 46.9131 73.5333C45.9983 72.6185 45.4336 71.355 45.4336 69.9596C45.4336 67.1684 47.6962 64.9061 50.4871 64.9061H52.4406" stroke="#663366" stroke-width="4" stroke-miterlimit="10" stroke-linecap="round" stroke-linejoin="round"/>
<path d="M71.4479 85.7981L73.9902 101.028H62.9379L60.0576 83.7801" stroke="#663366" stroke-width="4" stroke-miterlimit="10" stroke-linecap="round" stroke-linejoin="round"/>
<path d="M74.8201 107.835H62.1258C60.2463 107.835 58.7227 106.311 58.7227 104.432C58.7227 102.552 60.2463 101.028 62.1258 101.028H74.8201C76.6995 101.028 78.2232 102.552 78.2232 104.432C78.2232 106.311 76.6995 107.835 74.8201 107.835Z" stroke="#663366" stroke-width="4" stroke-miterlimit="10" stroke-linecap="round" stroke-linejoin="round"/>
<path d="M97.6982 59.9009C101.483 61.6656 104.108 65.5054 104.108 69.9592C104.108 74.413 101.483 78.2502 97.6982 80.0149" stroke="#663366" stroke-width="4" stroke-miterlimit="10" stroke-linecap="round" stroke-linejoin="round"/>
<path d="M93.0146 93.2545C95.6014 93.2545 97.6984 91.1575 97.6984 88.5707V51.347C97.6984 48.7602 95.6014 46.6632 93.0146 46.6632C90.4278 46.6632 88.3311 48.7602 88.3311 51.347V88.5707C88.3311 91.1575 90.4278 93.2545 93.0146 93.2545Z" stroke="#663366" stroke-width="4" stroke-miterlimit="10" stroke-linecap="round" stroke-linejoin="round"/>
<path d="M61.8159 84.2157L88.3309 88.5707V51.347L61.8159 55.7023C56.3021 56.6079 52.2559 61.3733 52.2559 66.9607V72.957C52.2559 78.5447 56.3021 83.31 61.8159 84.2157Z" stroke="#663366" stroke-width="4" stroke-miterlimit="10" stroke-linecap="round" stroke-linejoin="round"/>
<path d="M94.9342 112.223C107.693 105.187 116.336 91.6056 116.336 76.0031C116.336 53.1743 97.8287 34.6671 75 34.6671C52.1713 34.6671 33.6641 53.1743 33.6641 76.0031C33.6641 98.8343 52.1713 117.339 75 117.339C79.5272 117.339 83.8819 116.613 87.9571 115.267" stroke="#663366" stroke-width="4" stroke-miterlimit="10" stroke-linecap="round" stroke-linejoin="round"/>
</g>
</svg>
