<svg width="150" height="150" viewBox="0 0 150 150" fill="none" xmlns="http://www.w3.org/2000/svg">
<path fill-rule="evenodd" clip-rule="evenodd" d="M10.9271 13.3186C10.9271 11.9973 11.9973 10.9272 13.3186 10.9272H137.674C138.995 10.9272 140.065 11.9973 140.065 13.3186V20.493C140.065 21.8142 138.995 22.8844 137.674 22.8844V99.4108C138.995 99.4108 140.065 100.481 140.065 101.802V108.977C140.065 110.298 138.995 111.368 137.674 111.368H13.3186C11.9973 111.368 10.9271 110.298 10.9271 108.977V101.802C10.9271 100.481 11.9973 99.4108 13.3186 99.4108V22.8844C11.9973 22.8844 10.9271 21.8142 10.9271 20.493V13.3186ZM15.71 18.1015H49.1368H49.2384H101.754H101.856H135.282V15.7101H15.7097L15.71 18.1015ZM18.1015 22.8844V51.5818C23.5838 51.5818 28.1336 47.343 28.5282 41.8786L29.8794 22.8847L18.1015 22.8844ZM34.674 22.8844L33.293 42.2196C33.0538 45.5974 31.7266 48.6525 29.6639 51.05C36.3421 49.4059 41.693 44.0789 43.1875 37.1018L46.2307 22.8846L34.674 22.8844ZM51.1211 22.8844L47.8628 38.106C46.5056 44.4373 42.6254 49.6985 37.4122 52.921C38.7633 54.0151 39.6242 55.6891 39.6242 57.5604C39.6242 58.9952 39.122 60.3106 38.279 61.3389C41.9858 63.9336 44.4071 68.2382 44.4071 73.1049V99.4116H106.585V73.1049C106.585 68.2382 109.006 63.9336 112.713 61.3389C111.87 60.3106 111.368 58.9954 111.368 57.5604C111.368 55.689 112.229 54.015 113.58 52.921C108.367 49.6985 104.486 44.4373 103.129 38.106L99.8708 22.8844H51.1211ZM104.762 22.8844L107.805 37.1016C109.299 44.0787 114.65 49.4057 121.328 51.0498C119.266 48.6524 117.938 45.5973 117.699 42.2194L116.318 22.8843L104.762 22.8844ZM121.114 22.8844L122.465 41.8783C122.859 47.3427 127.409 51.5815 132.892 51.5815V22.8841L121.114 22.8844ZM132.892 57.5601C132.892 56.9024 132.353 56.3643 131.696 56.3643H117.347C116.689 56.3643 116.151 56.9024 116.151 57.5601C116.151 58.2177 116.689 58.7558 117.347 58.7558H131.696C132.353 58.7558 132.892 58.2177 132.892 57.5601ZM18.1019 63.5386V99.4111H27.6677V73.1044C27.6677 67.8193 23.387 63.5386 18.1019 63.5386ZM18.1019 57.5601C18.1019 58.2177 18.64 58.7558 19.2977 58.7558H33.6464C34.304 58.7558 34.8421 58.2177 34.8421 57.5601C34.8421 56.9024 34.304 56.3643 33.6464 56.3643H19.2977C18.64 56.3643 18.1019 56.9024 18.1019 57.5601ZM15.7105 104.194V106.585H135.283V104.194H15.7105ZM132.891 99.4108V63.5383C127.606 63.5383 123.325 67.819 123.325 73.1041V99.4108H132.891ZM111.369 73.1041V99.4108H118.543V73.1041C118.543 69.4273 119.924 66.0793 122.196 63.5383H120.934C115.649 63.5383 111.369 67.819 111.369 73.1041ZM30.0592 63.5383H28.7977C31.0696 66.0793 32.4506 69.4273 32.4506 73.1041V99.4108H39.625V73.1041C39.625 67.819 35.3443 63.5383 30.0592 63.5383Z" fill="#663366"/>
<path fill-rule="evenodd" clip-rule="evenodd" d="M63.5398 123.325C63.5398 119.362 66.7504 116.151 70.7141 116.151H80.2799C84.2437 116.151 87.4543 119.362 87.4543 123.325V135.283H89.8457V123.325C89.8457 119.362 93.0563 116.151 97.0201 116.151H106.586C110.55 116.151 113.76 119.362 113.76 123.325V135.283H116.152V123.325C116.152 119.362 119.362 116.151 123.326 116.151H132.892C136.856 116.151 140.066 119.362 140.066 123.325V137.674C140.066 138.995 138.996 140.065 137.675 140.065H13.3193C11.998 140.065 10.9279 138.995 10.9279 137.674V123.325C10.9279 119.362 14.1384 116.151 18.1022 116.151H27.668C31.6318 116.151 34.8424 119.362 34.8424 123.325V135.283H37.2338V123.325C37.2338 119.362 40.4444 116.151 44.4082 116.151H53.974C57.9377 116.151 61.1483 119.362 61.1483 123.325V135.283H63.5398V123.325ZM30.0595 123.325V135.283H15.7108V123.325C15.7108 122.004 16.7809 120.934 18.1022 120.934H27.668C28.9893 120.934 30.0595 122.004 30.0595 123.325ZM56.3662 135.283V123.325C56.3662 122.004 55.296 120.934 53.9747 120.934H44.4089C43.0877 120.934 42.0175 122.004 42.0175 123.325V135.283H56.3662ZM120.936 135.283V123.325C120.936 122.004 122.006 120.934 123.328 120.934H132.893C134.215 120.934 135.285 122.004 135.285 123.325V135.283H120.936ZM108.979 135.283V123.325C108.979 122.004 107.909 120.934 106.587 120.934H97.0216C95.7003 120.934 94.6302 122.004 94.6302 123.325V135.283H108.979ZM82.6721 123.325V135.283H68.3234V123.325C68.3234 122.004 69.3936 120.934 70.7149 120.934H80.2807C81.602 120.934 82.6721 122.004 82.6721 123.325Z" fill="#663366"/>
</svg>
