<svg width="150" height="150" viewBox="0 0 150 150" fill="none" xmlns="http://www.w3.org/2000/svg">
<path d="M60.9221 100.585C60.9221 104.611 58.2295 108.031 54.5348 109.111V113.022C54.5348 114.153 53.6224 115.048 52.5121 115.048C51.4018 115.048 50.4893 114.134 50.4893 113.022V109.322C47.484 108.766 44.8997 106.669 43.7894 103.742C43.4002 102.694 43.917 101.518 44.9635 101.109C46.0099 100.719 47.184 101.237 47.5924 102.285C48.2943 104.132 50.0936 105.378 52.0654 105.378C54.7135 105.378 56.851 103.218 56.851 100.585C56.851 97.9327 54.6943 95.7917 52.0654 95.7917C47.2607 95.7917 43.6555 91.9827 43.6555 86.921C43.6555 82.735 46.578 79.2136 50.483 78.2806V74.4716C50.483 73.3404 51.3955 72.4457 52.5058 72.4457C53.6161 72.4457 54.5285 73.3596 54.5285 74.4716V78.2806C57.3362 78.9516 59.7225 80.9968 60.7817 83.7641C61.1709 84.8122 60.6541 85.9881 59.6076 86.3972C58.5612 86.787 57.3871 86.2693 56.9787 85.2212C56.2577 83.3424 54.5093 82.1281 52.4866 82.1281C49.8385 82.1281 47.701 84.2882 47.701 86.9213C47.701 89.7013 49.5323 91.7145 52.0464 91.7145C56.9341 91.7209 60.9221 95.6961 60.9221 100.585ZM139.999 108.05C139.999 121.81 128.827 133 115.089 133H74.0031C72.6312 133 71.3869 132.527 70.3916 131.722C65.1976 132.687 59.1231 133.115 52.2958 132.968C51.4472 132.987 50.6113 133 49.7946 133C40.1915 133 32.2542 131.837 26.1596 129.53C19.7405 127.107 15.1654 123.375 12.5685 118.435C5.88784 105.755 12.2558 85.3045 31.481 57.6384C28.3608 56.6734 26.0892 53.7463 26.0892 50.3079C26.0892 46.0708 29.5222 42.6324 33.7526 42.6324H34.2886L28.7501 30.1956C27.7674 28.0036 28.5076 25.3832 30.5814 23.6704C32.4573 22.1302 34.9586 21.8681 37.0962 22.9674L39.9739 24.4565C40.6439 24.8016 41.365 24.7377 41.9648 24.2776L48.7094 19.2031C50.8469 17.599 53.7247 17.599 55.8623 19.2031L62.6068 24.2776C63.2129 24.7377 63.9276 24.8016 64.6168 24.4437L67.4945 22.9546C69.6321 21.8426 72.1333 22.1174 74.0094 23.6576C76.0831 25.3577 76.817 27.9779 75.8534 30.1828L70.3021 42.6196H70.8573C75.0686 42.6196 78.5206 46.058 78.5206 50.2951C78.5206 53.7335 76.2491 56.6605 73.1288 57.6256C76.7403 62.8278 79.9436 67.832 82.6681 72.5484H112.971C116.174 72.5484 118.771 75.1495 118.771 78.3578V83.3492C130.735 85.1451 139.999 95.5294 139.999 108.05ZM112.913 76.6387H74.0031C73.0587 76.6387 72.2739 77.4375 72.2739 78.3706V84.8958C72.2739 85.8417 73.0715 86.6278 74.0031 86.6278H102.295C105.92 84.4549 110.15 83.1575 114.661 83.0935V78.3643C114.661 77.4056 113.876 76.6387 112.913 76.6387ZM74.0031 114.838H91.1221C90.5159 112.678 90.1905 110.403 90.1905 108.064C90.1905 106.964 90.2543 105.891 90.4011 104.823L74.0024 104.83C73.0389 104.83 72.2732 105.616 72.2732 106.562V113.087C72.2541 114.039 73.0587 114.838 74.0031 114.838ZM97.184 90.7253H74.0031C73.0587 90.7253 72.2739 91.5242 72.2739 92.4573V98.9825C72.2739 99.9475 73.0587 100.734 74.0031 100.734H91.2691C92.4304 96.9437 94.4913 93.5247 97.184 90.7253ZM38.723 42.6393H65.8226L72.1141 28.5536C72.3566 28.0168 71.9355 27.2754 71.4122 26.8344C70.7933 26.3296 70.0404 26.2465 69.3385 26.6044L66.4608 28.0935C64.3871 29.1544 62.0326 28.9626 60.1692 27.5566L53.4247 22.4822C52.7356 21.9581 51.8423 21.9581 51.1532 22.4822L44.4087 27.5566C42.5455 28.9499 40.1974 29.1608 38.1171 28.0935L35.2267 26.6044C34.5248 26.2465 33.7718 26.3232 33.1529 26.8344C32.6297 27.2754 32.2086 28.0104 32.451 28.5536L38.723 42.6393ZM33.7204 53.9129H70.8186C72.7966 53.9129 74.411 52.296 74.411 50.3148C74.411 48.3337 72.7966 46.7167 70.8186 46.7167H67.0923L37.415 46.7103H37.3959H33.7205C31.7425 46.7103 30.1282 48.3273 30.1282 50.3084C30.1282 52.2896 31.7488 53.9129 33.7204 53.9129ZM68.241 127.959C68.2091 127.697 68.1899 127.435 68.1899 127.172V120.647C68.1899 119.209 68.7131 117.88 69.5937 116.87C68.7259 115.854 68.1899 114.531 68.1899 113.093V106.568C68.1899 105.13 68.7131 103.801 69.5937 102.791C68.7259 101.775 68.1899 100.452 68.1899 99.0139V92.4887C68.1899 91.0508 68.7131 89.7215 69.5937 88.7117C68.7259 87.6955 68.1899 86.3726 68.1899 84.9346V78.4095C68.1899 75.2013 70.7868 72.6001 73.9901 72.6001H77.8951C75.1514 67.9858 71.9482 63.0967 68.3559 58.0223H36.1777C27.3914 70.4206 21.1318 81.4329 17.5706 90.7946C13.3912 101.774 12.8998 110.447 16.135 116.582C20.6589 125.191 32.7949 129.345 52.2384 128.936H52.3213C58.2746 129.026 63.6149 128.713 68.241 127.959ZM101.466 128.924C97.7078 126.45 94.6514 122.986 92.6798 118.909L74.0024 118.915C73.0581 118.915 72.2732 119.714 72.2732 120.647V127.173C72.2732 128.118 73.0708 128.904 74.0024 128.904L101.465 128.911L101.466 128.924ZM135.93 108.05C135.93 96.534 126.588 87.1708 115.083 87.1708C103.598 87.1708 94.2363 96.5273 94.2363 108.05C94.2363 119.554 103.578 128.93 115.083 128.93C126.568 128.924 135.93 119.555 135.93 108.05ZM132.075 108.05C132.075 117.439 124.444 125.062 115.09 125.062C105.717 125.062 98.1054 117.419 98.1054 108.05C98.1054 98.6749 105.737 91.0385 115.09 91.0385C124.451 91.0321 132.075 98.6565 132.075 108.05ZM128.011 108.05C128.011 100.918 122.211 95.1088 115.09 95.1088C107.969 95.1088 102.168 100.918 102.168 108.05C102.168 115.183 107.969 120.992 115.09 120.992C122.211 120.992 128.011 115.183 128.011 108.05ZM114.975 106.018C114.158 106.018 113.947 105.232 113.947 104.772C113.947 104.082 114.503 103.526 115.192 103.526C115.696 103.526 116.174 103.852 116.366 104.344C116.774 105.392 117.948 105.916 118.995 105.52C120.041 105.111 120.564 103.935 120.169 102.887C119.646 101.493 118.554 100.432 117.246 99.8765V98.8156C117.246 97.6844 116.334 96.7896 115.224 96.7896C114.113 96.7896 113.201 97.7035 113.201 98.8156V99.8765C111.274 100.675 109.915 102.573 109.915 104.785C109.915 107.763 112.154 110.102 115.013 110.102C115.702 110.102 116.257 110.658 116.257 111.348C116.257 112.038 115.702 112.594 115.013 112.594C114.509 112.594 114.03 112.269 113.852 111.796C113.462 110.747 112.282 110.211 111.223 110.62C110.176 111.01 109.64 112.192 110.049 113.253C110.604 114.71 111.778 115.822 113.188 116.346V117.33C113.188 118.461 114.101 119.356 115.211 119.356C116.321 119.356 117.234 118.442 117.234 117.33V116.167C119.046 115.317 120.303 113.483 120.303 111.355C120.284 108.396 117.897 106.018 114.975 106.018Z" fill="#663366"/>
</svg>
