<svg width="150" height="150" viewBox="0 0 150 150" fill="none" xmlns="http://www.w3.org/2000/svg">
<mask id="path-1-outside-1_470_163" maskUnits="userSpaceOnUse" x="9" y="9" width="132" height="132" fill="black">
<rect fill="white" x="9" y="9" width="132" height="132"/>
<path d="M131.341 119.879C128.065 118.346 124.207 117.44 120.116 117.229L120.122 102.623C120.122 101.839 119.49 101.206 118.708 101.206H107.051C112.883 94.056 116.386 84.9343 116.386 75C116.386 65.0657 112.882 55.945 107.051 48.794H118.708C119.49 48.794 120.122 48.1607 120.122 47.3774V32.7668C124.213 32.5557 128.065 31.6502 131.347 30.1168C135.443 28.2001 138.392 25.3835 139.884 21.9723C140.039 21.6112 140.039 21.2001 139.884 20.8389C138.398 17.4279 135.443 14.6111 131.347 12.6944C127.7 10.9889 123.337 10.0555 118.725 10H118.692C114.085 10.0556 109.723 10.9889 106.07 12.6944C101.974 14.6111 99.0246 17.4277 97.5334 20.8389C97.3782 21.2001 97.3782 21.6112 97.5334 21.9723C99.0191 25.3833 101.974 28.2001 106.07 30.1168C109.346 31.6501 113.204 32.5556 117.295 32.7668V45.9613H104.518C97.0013 38.2946 86.5469 33.5279 74.9999 33.5279C63.453 33.5279 52.9987 38.2946 45.4876 45.9613H32.7049V32.7668C36.7958 32.5557 40.6484 31.6502 43.93 30.1168C48.0264 28.2001 50.9754 25.3835 52.4666 21.9723C52.6218 21.6112 52.6218 21.2001 52.4666 20.8389C50.9809 17.4279 48.0264 14.6111 43.93 12.6944C40.2826 10.9889 35.9201 10.0555 31.3081 10H31.2749C26.6684 10.0556 22.3059 10.9889 18.653 12.6944C14.5565 14.6111 11.6076 17.4277 10.1164 20.8389C9.9612 21.2001 9.9612 21.6112 10.1164 21.9723C11.602 25.3833 14.5565 28.2001 18.653 30.1168C21.929 31.6501 25.787 32.5556 29.8781 32.7668V47.3774C29.8781 48.1607 30.51 48.794 31.2916 48.794H42.9489C37.1174 55.944 33.6142 65.0657 33.6142 75C33.6142 84.9343 37.1176 94.055 42.9489 101.206H31.2916C30.51 101.206 29.8781 101.839 29.8781 102.623V117.233C25.7872 117.444 21.9345 118.35 18.653 119.883C14.5565 121.8 11.6076 124.617 10.1164 128.028C9.9612 128.389 9.9612 128.8 10.1164 129.161C11.602 132.572 14.5565 135.389 18.653 137.306C22.3004 139.011 26.6629 139.945 31.2749 140H31.2915H31.3081C35.9145 139.944 40.277 139.011 43.93 137.306C48.0264 135.389 50.9754 132.572 52.4666 129.161C52.6218 128.8 52.6218 128.389 52.4666 128.028C50.9809 124.617 48.0264 121.8 43.93 119.883C40.6539 118.35 36.7959 117.444 32.7049 117.233V104.039H45.482C52.9932 111.711 63.4531 116.472 74.9944 116.472H74.9999C86.5465 116.472 97.0011 111.705 104.518 104.039H117.295V117.233C113.204 117.444 109.352 118.35 106.07 119.883C101.974 121.8 99.0246 124.617 97.5334 128.028C97.3782 128.389 97.3782 128.8 97.5334 129.161C99.0191 132.572 101.974 135.389 106.07 137.306C109.717 139.011 114.08 139.945 118.692 140H118.709H118.725C123.332 139.944 127.694 139.011 131.347 137.306C135.443 135.389 138.392 132.572 139.884 129.161C140.039 128.8 140.039 128.389 139.884 128.028C138.392 124.611 135.438 121.796 131.341 119.879ZM100.393 21.4125C103.01 16.2957 110.099 12.9513 118.708 12.8403C127.311 12.9514 134.405 16.2959 137.022 21.4125C134.406 26.5292 127.316 29.8736 118.708 29.9847C110.099 29.8735 103.01 26.5291 100.393 21.4125ZM12.9813 21.4125C15.5978 16.2957 22.6875 12.9513 31.2958 12.8403C39.8989 12.9514 46.9935 16.2959 49.6103 21.4125C46.9938 26.5292 39.9042 29.8736 31.2958 29.9847C22.6872 29.8735 15.5981 26.5291 12.9813 21.4125ZM49.606 128.59C46.9896 133.707 39.8999 137.051 31.2916 137.162C22.6885 137.051 15.5938 133.707 12.9771 128.59C15.5935 123.473 22.6832 120.129 31.2916 120.018C39.9002 120.129 46.9893 123.473 49.606 128.59ZM111.297 88.0338H91.0144C91.5521 83.8838 91.8404 79.5005 91.8404 75.0004C91.8404 70.5003 91.5577 66.117 91.0144 61.967H111.297C112.755 66.0392 113.553 70.4281 113.553 75.0004C113.553 79.5727 112.755 83.956 111.297 88.0338ZM75.0003 113.645C69.9338 113.645 64.6012 104.94 62.2397 90.8669H87.7602C85.3988 104.939 80.0667 113.64 75.0003 113.645ZM61.8129 88.0338C61.2863 84.0449 60.9869 79.6783 60.9869 75.0004C60.9869 70.3226 61.2863 65.9559 61.8129 61.967H88.1876C88.7142 65.9559 89.0136 70.3226 89.0136 75.0004C89.0136 79.6783 88.7142 84.0449 88.1876 88.0338H61.8129ZM75.0003 36.3558C80.0667 36.3558 85.3993 45.0614 87.7608 59.1342L62.2403 59.1397C64.6018 45.062 69.9338 36.3615 75.0003 36.3558ZM110.155 59.1399H90.5986C89.817 54.362 88.6806 49.9621 87.2228 46.1676C85.6985 42.2064 83.8913 39.1176 81.8903 36.9787C94.5121 39.2677 105.016 47.7399 110.155 59.1399ZM68.1093 36.9787C66.1081 39.1176 64.3011 42.2066 62.7767 46.1676C61.3189 49.9566 60.1825 54.3565 59.4009 59.1399H39.8447C44.9833 47.7399 55.4867 39.2671 68.1093 36.9787ZM38.7019 61.9673H58.9847C58.447 66.1173 58.1587 70.5006 58.1587 75.0007C58.1587 79.5008 58.4414 83.8841 58.9847 88.0341H38.7019C37.2441 83.9619 36.4459 79.573 36.4459 75.0007C36.4403 70.4285 37.2386 66.0451 38.7019 61.9673ZM39.8438 90.8612H59.3943C60.1759 95.6391 61.3123 100.039 62.7701 103.834C64.2945 107.795 66.1017 110.883 68.1027 113.022C55.4864 110.733 44.9823 102.261 39.8438 90.8612ZM81.8894 113.022C83.8906 110.883 85.6976 107.795 87.222 103.834C88.6798 100.045 89.8162 95.6446 90.5978 90.8612H110.154C105.015 102.261 94.512 110.734 81.8894 113.022ZM118.707 137.162C110.104 137.051 103.009 133.706 100.393 128.59C103.009 123.473 110.099 120.129 118.707 120.017C127.31 120.129 134.405 123.473 137.022 128.59C134.4 133.712 127.31 137.051 118.707 137.162ZM118.707 121.173C114.627 121.173 111.307 124.501 111.307 128.59C111.307 132.679 114.627 136.006 118.707 136.006C122.787 136.006 126.107 132.679 126.107 128.59C126.102 124.501 122.787 121.173 118.707 121.173ZM118.707 133.173C116.185 133.173 114.134 131.118 114.134 128.59C114.134 126.062 116.185 124.006 118.707 124.006C121.229 124.006 123.28 126.062 123.28 128.59C123.28 131.118 121.229 133.173 118.707 133.173ZM23.8964 128.59C23.8964 132.679 27.2167 136.006 31.2965 136.006C35.3763 136.006 38.6967 132.679 38.6967 128.59C38.6967 124.501 35.3763 121.173 31.2965 121.173C27.2112 121.173 23.8964 124.501 23.8964 128.59ZM35.8642 128.59C35.8642 131.118 33.8132 133.173 31.291 133.173C28.7689 133.173 26.7177 131.118 26.7177 128.59C26.7177 126.062 28.7687 124.006 31.291 124.006C33.8131 124.006 35.8642 126.062 35.8642 128.59ZM126.103 21.4122C126.103 17.3233 122.782 13.9955 118.703 13.9955C114.623 13.9955 111.302 17.3233 111.302 21.4122C111.302 25.5011 114.623 28.8288 118.703 28.8288C122.788 28.8288 126.103 25.5011 126.103 21.4122ZM114.135 21.4122C114.135 18.8845 116.186 16.8288 118.708 16.8288C121.23 16.8288 123.281 18.8843 123.281 21.4122C123.281 23.9399 121.23 25.9956 118.708 25.9956C116.186 25.9956 114.135 23.94 114.135 21.4122ZM38.6916 21.4122C38.6916 17.3233 35.3712 13.9955 31.2914 13.9955C27.2116 13.9955 23.8912 17.3233 23.8912 21.4122C23.8912 25.5011 27.2116 28.8288 31.2914 28.8288C35.3712 28.8288 38.6916 25.5011 38.6916 21.4122ZM26.7182 21.4122C26.7182 18.8845 28.7691 16.8288 31.2914 16.8288C33.8135 16.8288 35.8646 18.8843 35.8646 21.4122C35.8646 23.9399 33.8136 25.9956 31.2914 25.9956C28.7693 25.9956 26.7182 23.94 26.7182 21.4122Z"/>
</mask>
<path d="M131.341 119.879C128.065 118.346 124.207 117.44 120.116 117.229L120.122 102.623C120.122 101.839 119.49 101.206 118.708 101.206H107.051C112.883 94.056 116.386 84.9343 116.386 75C116.386 65.0657 112.882 55.945 107.051 48.794H118.708C119.49 48.794 120.122 48.1607 120.122 47.3774V32.7668C124.213 32.5557 128.065 31.6502 131.347 30.1168C135.443 28.2001 138.392 25.3835 139.884 21.9723C140.039 21.6112 140.039 21.2001 139.884 20.8389C138.398 17.4279 135.443 14.6111 131.347 12.6944C127.7 10.9889 123.337 10.0555 118.725 10H118.692C114.085 10.0556 109.723 10.9889 106.07 12.6944C101.974 14.6111 99.0246 17.4277 97.5334 20.8389C97.3782 21.2001 97.3782 21.6112 97.5334 21.9723C99.0191 25.3833 101.974 28.2001 106.07 30.1168C109.346 31.6501 113.204 32.5556 117.295 32.7668V45.9613H104.518C97.0013 38.2946 86.5469 33.5279 74.9999 33.5279C63.453 33.5279 52.9987 38.2946 45.4876 45.9613H32.7049V32.7668C36.7958 32.5557 40.6484 31.6502 43.93 30.1168C48.0264 28.2001 50.9754 25.3835 52.4666 21.9723C52.6218 21.6112 52.6218 21.2001 52.4666 20.8389C50.9809 17.4279 48.0264 14.6111 43.93 12.6944C40.2826 10.9889 35.9201 10.0555 31.3081 10H31.2749C26.6684 10.0556 22.3059 10.9889 18.653 12.6944C14.5565 14.6111 11.6076 17.4277 10.1164 20.8389C9.9612 21.2001 9.9612 21.6112 10.1164 21.9723C11.602 25.3833 14.5565 28.2001 18.653 30.1168C21.929 31.6501 25.787 32.5556 29.8781 32.7668V47.3774C29.8781 48.1607 30.51 48.794 31.2916 48.794H42.9489C37.1174 55.944 33.6142 65.0657 33.6142 75C33.6142 84.9343 37.1176 94.055 42.9489 101.206H31.2916C30.51 101.206 29.8781 101.839 29.8781 102.623V117.233C25.7872 117.444 21.9345 118.35 18.653 119.883C14.5565 121.8 11.6076 124.617 10.1164 128.028C9.9612 128.389 9.9612 128.8 10.1164 129.161C11.602 132.572 14.5565 135.389 18.653 137.306C22.3004 139.011 26.6629 139.945 31.2749 140H31.2915H31.3081C35.9145 139.944 40.277 139.011 43.93 137.306C48.0264 135.389 50.9754 132.572 52.4666 129.161C52.6218 128.8 52.6218 128.389 52.4666 128.028C50.9809 124.617 48.0264 121.8 43.93 119.883C40.6539 118.35 36.7959 117.444 32.7049 117.233V104.039H45.482C52.9932 111.711 63.4531 116.472 74.9944 116.472H74.9999C86.5465 116.472 97.0011 111.705 104.518 104.039H117.295V117.233C113.204 117.444 109.352 118.35 106.07 119.883C101.974 121.8 99.0246 124.617 97.5334 128.028C97.3782 128.389 97.3782 128.8 97.5334 129.161C99.0191 132.572 101.974 135.389 106.07 137.306C109.717 139.011 114.08 139.945 118.692 140H118.709H118.725C123.332 139.944 127.694 139.011 131.347 137.306C135.443 135.389 138.392 132.572 139.884 129.161C140.039 128.8 140.039 128.389 139.884 128.028C138.392 124.611 135.438 121.796 131.341 119.879ZM100.393 21.4125C103.01 16.2957 110.099 12.9513 118.708 12.8403C127.311 12.9514 134.405 16.2959 137.022 21.4125C134.406 26.5292 127.316 29.8736 118.708 29.9847C110.099 29.8735 103.01 26.5291 100.393 21.4125ZM12.9813 21.4125C15.5978 16.2957 22.6875 12.9513 31.2958 12.8403C39.8989 12.9514 46.9935 16.2959 49.6103 21.4125C46.9938 26.5292 39.9042 29.8736 31.2958 29.9847C22.6872 29.8735 15.5981 26.5291 12.9813 21.4125ZM49.606 128.59C46.9896 133.707 39.8999 137.051 31.2916 137.162C22.6885 137.051 15.5938 133.707 12.9771 128.59C15.5935 123.473 22.6832 120.129 31.2916 120.018C39.9002 120.129 46.9893 123.473 49.606 128.59ZM111.297 88.0338H91.0144C91.5521 83.8838 91.8404 79.5005 91.8404 75.0004C91.8404 70.5003 91.5577 66.117 91.0144 61.967H111.297C112.755 66.0392 113.553 70.4281 113.553 75.0004C113.553 79.5727 112.755 83.956 111.297 88.0338ZM75.0003 113.645C69.9338 113.645 64.6012 104.94 62.2397 90.8669H87.7602C85.3988 104.939 80.0667 113.64 75.0003 113.645ZM61.8129 88.0338C61.2863 84.0449 60.9869 79.6783 60.9869 75.0004C60.9869 70.3226 61.2863 65.9559 61.8129 61.967H88.1876C88.7142 65.9559 89.0136 70.3226 89.0136 75.0004C89.0136 79.6783 88.7142 84.0449 88.1876 88.0338H61.8129ZM75.0003 36.3558C80.0667 36.3558 85.3993 45.0614 87.7608 59.1342L62.2403 59.1397C64.6018 45.062 69.9338 36.3615 75.0003 36.3558ZM110.155 59.1399H90.5986C89.817 54.362 88.6806 49.9621 87.2228 46.1676C85.6985 42.2064 83.8913 39.1176 81.8903 36.9787C94.5121 39.2677 105.016 47.7399 110.155 59.1399ZM68.1093 36.9787C66.1081 39.1176 64.3011 42.2066 62.7767 46.1676C61.3189 49.9566 60.1825 54.3565 59.4009 59.1399H39.8447C44.9833 47.7399 55.4867 39.2671 68.1093 36.9787ZM38.7019 61.9673H58.9847C58.447 66.1173 58.1587 70.5006 58.1587 75.0007C58.1587 79.5008 58.4414 83.8841 58.9847 88.0341H38.7019C37.2441 83.9619 36.4459 79.573 36.4459 75.0007C36.4403 70.4285 37.2386 66.0451 38.7019 61.9673ZM39.8438 90.8612H59.3943C60.1759 95.6391 61.3123 100.039 62.7701 103.834C64.2945 107.795 66.1017 110.883 68.1027 113.022C55.4864 110.733 44.9823 102.261 39.8438 90.8612ZM81.8894 113.022C83.8906 110.883 85.6976 107.795 87.222 103.834C88.6798 100.045 89.8162 95.6446 90.5978 90.8612H110.154C105.015 102.261 94.512 110.734 81.8894 113.022ZM118.707 137.162C110.104 137.051 103.009 133.706 100.393 128.59C103.009 123.473 110.099 120.129 118.707 120.017C127.31 120.129 134.405 123.473 137.022 128.59C134.4 133.712 127.31 137.051 118.707 137.162ZM118.707 121.173C114.627 121.173 111.307 124.501 111.307 128.59C111.307 132.679 114.627 136.006 118.707 136.006C122.787 136.006 126.107 132.679 126.107 128.59C126.102 124.501 122.787 121.173 118.707 121.173ZM118.707 133.173C116.185 133.173 114.134 131.118 114.134 128.59C114.134 126.062 116.185 124.006 118.707 124.006C121.229 124.006 123.28 126.062 123.28 128.59C123.28 131.118 121.229 133.173 118.707 133.173ZM23.8964 128.59C23.8964 132.679 27.2167 136.006 31.2965 136.006C35.3763 136.006 38.6967 132.679 38.6967 128.59C38.6967 124.501 35.3763 121.173 31.2965 121.173C27.2112 121.173 23.8964 124.501 23.8964 128.59ZM35.8642 128.59C35.8642 131.118 33.8132 133.173 31.291 133.173C28.7689 133.173 26.7177 131.118 26.7177 128.59C26.7177 126.062 28.7687 124.006 31.291 124.006C33.8131 124.006 35.8642 126.062 35.8642 128.59ZM126.103 21.4122C126.103 17.3233 122.782 13.9955 118.703 13.9955C114.623 13.9955 111.302 17.3233 111.302 21.4122C111.302 25.5011 114.623 28.8288 118.703 28.8288C122.788 28.8288 126.103 25.5011 126.103 21.4122ZM114.135 21.4122C114.135 18.8845 116.186 16.8288 118.708 16.8288C121.23 16.8288 123.281 18.8843 123.281 21.4122C123.281 23.9399 121.23 25.9956 118.708 25.9956C116.186 25.9956 114.135 23.94 114.135 21.4122ZM38.6916 21.4122C38.6916 17.3233 35.3712 13.9955 31.2914 13.9955C27.2116 13.9955 23.8912 17.3233 23.8912 21.4122C23.8912 25.5011 27.2116 28.8288 31.2914 28.8288C35.3712 28.8288 38.6916 25.5011 38.6916 21.4122ZM26.7182 21.4122C26.7182 18.8845 28.7691 16.8288 31.2914 16.8288C33.8135 16.8288 35.8646 18.8843 35.8646 21.4122C35.8646 23.9399 33.8136 25.9956 31.2914 25.9956C28.7693 25.9956 26.7182 23.94 26.7182 21.4122Z" fill="#663366"/>
<path d="M131.341 119.879C128.065 118.346 124.207 117.44 120.116 117.229L120.122 102.623C120.122 101.839 119.49 101.206 118.708 101.206H107.051C112.883 94.056 116.386 84.9343 116.386 75C116.386 65.0657 112.882 55.945 107.051 48.794H118.708C119.49 48.794 120.122 48.1607 120.122 47.3774V32.7668C124.213 32.5557 128.065 31.6502 131.347 30.1168C135.443 28.2001 138.392 25.3835 139.884 21.9723C140.039 21.6112 140.039 21.2001 139.884 20.8389C138.398 17.4279 135.443 14.6111 131.347 12.6944C127.7 10.9889 123.337 10.0555 118.725 10H118.692C114.085 10.0556 109.723 10.9889 106.07 12.6944C101.974 14.6111 99.0246 17.4277 97.5334 20.8389C97.3782 21.2001 97.3782 21.6112 97.5334 21.9723C99.0191 25.3833 101.974 28.2001 106.07 30.1168C109.346 31.6501 113.204 32.5556 117.295 32.7668V45.9613H104.518C97.0013 38.2946 86.5469 33.5279 74.9999 33.5279C63.453 33.5279 52.9987 38.2946 45.4876 45.9613H32.7049V32.7668C36.7958 32.5557 40.6484 31.6502 43.93 30.1168C48.0264 28.2001 50.9754 25.3835 52.4666 21.9723C52.6218 21.6112 52.6218 21.2001 52.4666 20.8389C50.9809 17.4279 48.0264 14.6111 43.93 12.6944C40.2826 10.9889 35.9201 10.0555 31.3081 10H31.2749C26.6684 10.0556 22.3059 10.9889 18.653 12.6944C14.5565 14.6111 11.6076 17.4277 10.1164 20.8389C9.9612 21.2001 9.9612 21.6112 10.1164 21.9723C11.602 25.3833 14.5565 28.2001 18.653 30.1168C21.929 31.6501 25.787 32.5556 29.8781 32.7668V47.3774C29.8781 48.1607 30.51 48.794 31.2916 48.794H42.9489C37.1174 55.944 33.6142 65.0657 33.6142 75C33.6142 84.9343 37.1176 94.055 42.9489 101.206H31.2916C30.51 101.206 29.8781 101.839 29.8781 102.623V117.233C25.7872 117.444 21.9345 118.35 18.653 119.883C14.5565 121.8 11.6076 124.617 10.1164 128.028C9.9612 128.389 9.9612 128.8 10.1164 129.161C11.602 132.572 14.5565 135.389 18.653 137.306C22.3004 139.011 26.6629 139.945 31.2749 140H31.2915H31.3081C35.9145 139.944 40.277 139.011 43.93 137.306C48.0264 135.389 50.9754 132.572 52.4666 129.161C52.6218 128.8 52.6218 128.389 52.4666 128.028C50.9809 124.617 48.0264 121.8 43.93 119.883C40.6539 118.35 36.7959 117.444 32.7049 117.233V104.039H45.482C52.9932 111.711 63.4531 116.472 74.9944 116.472H74.9999C86.5465 116.472 97.0011 111.705 104.518 104.039H117.295V117.233C113.204 117.444 109.352 118.35 106.07 119.883C101.974 121.8 99.0246 124.617 97.5334 128.028C97.3782 128.389 97.3782 128.8 97.5334 129.161C99.0191 132.572 101.974 135.389 106.07 137.306C109.717 139.011 114.08 139.945 118.692 140H118.709H118.725C123.332 139.944 127.694 139.011 131.347 137.306C135.443 135.389 138.392 132.572 139.884 129.161C140.039 128.8 140.039 128.389 139.884 128.028C138.392 124.611 135.438 121.796 131.341 119.879ZM100.393 21.4125C103.01 16.2957 110.099 12.9513 118.708 12.8403C127.311 12.9514 134.405 16.2959 137.022 21.4125C134.406 26.5292 127.316 29.8736 118.708 29.9847C110.099 29.8735 103.01 26.5291 100.393 21.4125ZM12.9813 21.4125C15.5978 16.2957 22.6875 12.9513 31.2958 12.8403C39.8989 12.9514 46.9935 16.2959 49.6103 21.4125C46.9938 26.5292 39.9042 29.8736 31.2958 29.9847C22.6872 29.8735 15.5981 26.5291 12.9813 21.4125ZM49.606 128.59C46.9896 133.707 39.8999 137.051 31.2916 137.162C22.6885 137.051 15.5938 133.707 12.9771 128.59C15.5935 123.473 22.6832 120.129 31.2916 120.018C39.9002 120.129 46.9893 123.473 49.606 128.59ZM111.297 88.0338H91.0144C91.5521 83.8838 91.8404 79.5005 91.8404 75.0004C91.8404 70.5003 91.5577 66.117 91.0144 61.967H111.297C112.755 66.0392 113.553 70.4281 113.553 75.0004C113.553 79.5727 112.755 83.956 111.297 88.0338ZM75.0003 113.645C69.9338 113.645 64.6012 104.94 62.2397 90.8669H87.7602C85.3988 104.939 80.0667 113.64 75.0003 113.645ZM61.8129 88.0338C61.2863 84.0449 60.9869 79.6783 60.9869 75.0004C60.9869 70.3226 61.2863 65.9559 61.8129 61.967H88.1876C88.7142 65.9559 89.0136 70.3226 89.0136 75.0004C89.0136 79.6783 88.7142 84.0449 88.1876 88.0338H61.8129ZM75.0003 36.3558C80.0667 36.3558 85.3993 45.0614 87.7608 59.1342L62.2403 59.1397C64.6018 45.062 69.9338 36.3615 75.0003 36.3558ZM110.155 59.1399H90.5986C89.817 54.362 88.6806 49.9621 87.2228 46.1676C85.6985 42.2064 83.8913 39.1176 81.8903 36.9787C94.5121 39.2677 105.016 47.7399 110.155 59.1399ZM68.1093 36.9787C66.1081 39.1176 64.3011 42.2066 62.7767 46.1676C61.3189 49.9566 60.1825 54.3565 59.4009 59.1399H39.8447C44.9833 47.7399 55.4867 39.2671 68.1093 36.9787ZM38.7019 61.9673H58.9847C58.447 66.1173 58.1587 70.5006 58.1587 75.0007C58.1587 79.5008 58.4414 83.8841 58.9847 88.0341H38.7019C37.2441 83.9619 36.4459 79.573 36.4459 75.0007C36.4403 70.4285 37.2386 66.0451 38.7019 61.9673ZM39.8438 90.8612H59.3943C60.1759 95.6391 61.3123 100.039 62.7701 103.834C64.2945 107.795 66.1017 110.883 68.1027 113.022C55.4864 110.733 44.9823 102.261 39.8438 90.8612ZM81.8894 113.022C83.8906 110.883 85.6976 107.795 87.222 103.834C88.6798 100.045 89.8162 95.6446 90.5978 90.8612H110.154C105.015 102.261 94.512 110.734 81.8894 113.022ZM118.707 137.162C110.104 137.051 103.009 133.706 100.393 128.59C103.009 123.473 110.099 120.129 118.707 120.017C127.31 120.129 134.405 123.473 137.022 128.59C134.4 133.712 127.31 137.051 118.707 137.162ZM118.707 121.173C114.627 121.173 111.307 124.501 111.307 128.59C111.307 132.679 114.627 136.006 118.707 136.006C122.787 136.006 126.107 132.679 126.107 128.59C126.102 124.501 122.787 121.173 118.707 121.173ZM118.707 133.173C116.185 133.173 114.134 131.118 114.134 128.59C114.134 126.062 116.185 124.006 118.707 124.006C121.229 124.006 123.28 126.062 123.28 128.59C123.28 131.118 121.229 133.173 118.707 133.173ZM23.8964 128.59C23.8964 132.679 27.2167 136.006 31.2965 136.006C35.3763 136.006 38.6967 132.679 38.6967 128.59C38.6967 124.501 35.3763 121.173 31.2965 121.173C27.2112 121.173 23.8964 124.501 23.8964 128.59ZM35.8642 128.59C35.8642 131.118 33.8132 133.173 31.291 133.173C28.7689 133.173 26.7177 131.118 26.7177 128.59C26.7177 126.062 28.7687 124.006 31.291 124.006C33.8131 124.006 35.8642 126.062 35.8642 128.59ZM126.103 21.4122C126.103 17.3233 122.782 13.9955 118.703 13.9955C114.623 13.9955 111.302 17.3233 111.302 21.4122C111.302 25.5011 114.623 28.8288 118.703 28.8288C122.788 28.8288 126.103 25.5011 126.103 21.4122ZM114.135 21.4122C114.135 18.8845 116.186 16.8288 118.708 16.8288C121.23 16.8288 123.281 18.8843 123.281 21.4122C123.281 23.9399 121.23 25.9956 118.708 25.9956C116.186 25.9956 114.135 23.94 114.135 21.4122ZM38.6916 21.4122C38.6916 17.3233 35.3712 13.9955 31.2914 13.9955C27.2116 13.9955 23.8912 17.3233 23.8912 21.4122C23.8912 25.5011 27.2116 28.8288 31.2914 28.8288C35.3712 28.8288 38.6916 25.5011 38.6916 21.4122ZM26.7182 21.4122C26.7182 18.8845 28.7691 16.8288 31.2914 16.8288C33.8135 16.8288 35.8646 18.8843 35.8646 21.4122C35.8646 23.9399 33.8136 25.9956 31.2914 25.9956C28.7693 25.9956 26.7182 23.94 26.7182 21.4122Z" stroke="#663366" stroke-width="0.6" mask="url(#path-1-outside-1_470_163)"/>
</svg>
