<svg width="150" height="150" viewBox="0 0 150 150" fill="none" xmlns="http://www.w3.org/2000/svg">
<mask id="path-1-outside-1_164_22" maskUnits="userSpaceOnUse" x="14" y="9" width="123" height="132" fill="black">
<rect fill="white" x="14" y="9" width="123" height="132"/>
<path d="M74.2673 18.7882C68.8518 27.1722 63.0519 32.0157 55.3902 38.4163C53.1087 40.3201 50.6637 42.3631 48.0995 44.6026L131.581 39.6929C121.651 36.8305 112.22 32.8174 102.924 28.0269C96.0885 24.5042 89.3213 20.5551 82.479 16.3322C81.7501 17.0876 80.7408 17.7148 79.5525 18.1499C78.3488 18.5917 76.953 18.8434 75.4688 18.8434C75.0624 18.8434 74.6604 18.8236 74.2673 18.7882ZM49.195 53.3289L49.078 138.33C49.078 138.507 49.0249 138.672 48.9366 138.809C48.793 139.03 48.6141 139.22 48.4109 139.379C47.8544 139.814 47.1079 140.009 46.3702 140C45.659 139.991 44.9279 139.79 44.378 139.432C44.1373 139.277 43.9274 139.09 43.7574 138.871C43.6293 138.705 43.5674 138.509 43.5719 138.317L43.4548 52.6531C43.4548 52.6155 43.457 52.578 43.4614 52.5426L20.5381 42.3476V106.694H20.5359C20.5359 106.884 20.4741 107.074 20.3504 107.235C20.1803 107.453 19.9683 107.641 19.7298 107.796C19.1798 108.154 18.451 108.352 17.7376 108.363C16.9999 108.374 16.2534 108.18 15.6968 107.743C15.5157 107.601 15.3545 107.436 15.2197 107.246C15.0983 107.093 15.0254 106.901 15.0254 106.694V35.6997C15.0254 35.6246 15.0342 35.5517 15.0519 35.481L15.0055 34.1647C14.9591 32.813 15.2021 31.9737 15.8669 31.32C16.472 30.7236 17.3378 30.4078 18.6232 30.039C23.2591 28.7116 27.8045 27.5609 32.2747 26.4301C46.8605 22.7395 60.6688 19.2454 74.963 10.1459C75.2435 9.96037 75.619 9.9449 75.9216 10.1393C85.2994 16.1114 94.4453 21.6771 103.737 26.4654C112.993 31.236 122.382 35.2248 132.272 38.0585C133.558 38.4273 134.424 38.7432 135.029 39.3439C135.687 39.9954 135.928 40.8325 135.881 42.1798L135.906 45.3999C135.906 45.4198 135.906 45.4397 135.906 45.4618C135.899 45.623 135.886 45.7798 135.861 45.9278C135.868 45.972 135.872 46.0161 135.872 46.0625V124.522C135.872 124.732 135.8 124.924 135.678 125.074C135.543 125.264 135.382 125.429 135.201 125.571C134.644 126.006 133.898 126.2 133.16 126.191C132.449 126.183 131.718 125.982 131.168 125.624C130.927 125.469 130.718 125.281 130.547 125.063C130.422 124.902 130.36 124.712 130.362 124.522H130.36V48.5605L97.1818 50.5107V107.071C97.1818 107.281 97.1089 107.473 96.9874 107.624C96.8527 107.813 96.6915 107.979 96.5104 108.12C95.9538 108.556 95.2073 108.75 94.4696 108.741C93.7584 108.732 93.0274 108.531 92.4774 108.173C92.2367 108.019 92.0269 107.831 91.8568 107.612C91.7309 107.451 91.6691 107.261 91.6713 107.071H91.6691V50.8354L49.2061 53.3333L49.195 53.3289ZM45.2129 53.2472L45.3277 137.95L45.3365 137.955C45.6126 138.133 45.9969 138.233 46.3901 138.239C46.7523 138.244 47.0946 138.169 47.3199 137.999L47.4369 53.4305C46.8163 53.4614 46.3503 53.4636 45.8754 53.393C45.6546 53.3598 45.4403 53.3134 45.2151 53.2472H45.2129ZM16.7879 40.6227V106.362C17.0109 106.53 17.3533 106.605 17.7133 106.601C18.1064 106.596 18.4907 106.495 18.7668 106.316L18.7712 106.314V41.5591L17.3268 40.9164C17.1324 40.8303 16.9535 40.7309 16.7901 40.6227H16.7879ZM92.177 49.0353C92.2897 48.9845 92.4134 48.9558 92.5437 48.9558C92.6386 48.9558 92.7292 48.9713 92.8131 48.9978L132.615 46.6567C133.14 46.6257 133.545 46.4976 133.799 46.2723C134.006 46.0868 134.13 45.7975 134.143 45.4044L134.119 42.1555V42.1246C134.13 41.7999 134.121 41.5326 134.09 41.3118L46.9069 46.4402C46.8517 46.7317 46.8252 47.0652 46.8185 47.4584L46.7501 51.6901C46.9952 51.6901 47.2735 51.6791 47.6048 51.6592L92.177 49.0375V49.0353ZM93.4271 50.7271V106.689L93.4315 106.691C93.7076 106.87 94.0919 106.97 94.485 106.976C94.8451 106.981 95.1852 106.908 95.4105 106.738V50.6101L93.4293 50.7271H93.4271ZM132.12 48.4523V124.14L132.124 124.142C132.4 124.321 132.785 124.42 133.178 124.427C133.538 124.431 133.878 124.358 134.103 124.188V48.121C133.695 48.2888 133.231 48.386 132.719 48.4169L132.12 48.4523ZM18.0622 32.0599L45.8666 44.4304C46.1316 44.0505 46.4718 43.6883 46.9069 43.3084C49.6014 40.954 52.011 38.9419 54.2594 37.0646C61.6097 30.9246 67.2196 26.2401 72.3767 18.4591C71.9063 18.3377 71.4579 18.1875 71.0339 18.013C69.8545 17.5293 68.8761 16.8535 68.2002 16.0495C56.3797 22.1431 44.8043 25.074 32.6988 28.1373C28.2573 29.2615 23.7428 30.4034 19.1025 31.733C18.7005 31.8478 18.3538 31.9538 18.06 32.0576L18.0622 32.0599ZM45.1864 46.0559L16.779 33.416C16.7592 33.6125 16.7547 33.84 16.7658 34.1072L16.8696 37.0889C16.8895 37.6477 16.9955 38.1601 17.2274 38.5665C17.4085 38.8845 17.6757 39.1451 18.049 39.3108L44.8021 51.2108C44.8705 51.2418 44.9368 51.2705 45.0008 51.297L45.0649 47.4297C45.0737 46.9129 45.1113 46.4645 45.193 46.0559H45.1864ZM69.8169 15.2014C70.294 15.6674 70.9389 16.0716 71.7075 16.3853C72.7765 16.8226 74.0685 17.0788 75.471 17.0788C76.7476 17.0788 77.9358 16.8667 78.9474 16.4957C79.7403 16.2041 80.4183 15.8221 80.9351 15.3759C79.1108 14.2407 77.2821 13.0878 75.4445 11.9194C73.5583 13.1054 71.6854 14.1943 69.8169 15.2014Z"/>
</mask>
<path d="M74.2673 18.7882C68.8518 27.1722 63.0519 32.0157 55.3902 38.4163C53.1087 40.3201 50.6637 42.3631 48.0995 44.6026L131.581 39.6929C121.651 36.8305 112.22 32.8174 102.924 28.0269C96.0885 24.5042 89.3213 20.5551 82.479 16.3322C81.7501 17.0876 80.7408 17.7148 79.5525 18.1499C78.3488 18.5917 76.953 18.8434 75.4688 18.8434C75.0624 18.8434 74.6604 18.8236 74.2673 18.7882ZM49.195 53.3289L49.078 138.33C49.078 138.507 49.0249 138.672 48.9366 138.809C48.793 139.03 48.6141 139.22 48.4109 139.379C47.8544 139.814 47.1079 140.009 46.3702 140C45.659 139.991 44.9279 139.79 44.378 139.432C44.1373 139.277 43.9274 139.09 43.7574 138.871C43.6293 138.705 43.5674 138.509 43.5719 138.317L43.4548 52.6531C43.4548 52.6155 43.457 52.578 43.4614 52.5426L20.5381 42.3476V106.694H20.5359C20.5359 106.884 20.4741 107.074 20.3504 107.235C20.1803 107.453 19.9683 107.641 19.7298 107.796C19.1798 108.154 18.451 108.352 17.7376 108.363C16.9999 108.374 16.2534 108.18 15.6968 107.743C15.5157 107.601 15.3545 107.436 15.2197 107.246C15.0983 107.093 15.0254 106.901 15.0254 106.694V35.6997C15.0254 35.6246 15.0342 35.5517 15.0519 35.481L15.0055 34.1647C14.9591 32.813 15.2021 31.9737 15.8669 31.32C16.472 30.7236 17.3378 30.4078 18.6232 30.039C23.2591 28.7116 27.8045 27.5609 32.2747 26.4301C46.8605 22.7395 60.6688 19.2454 74.963 10.1459C75.2435 9.96037 75.619 9.9449 75.9216 10.1393C85.2994 16.1114 94.4453 21.6771 103.737 26.4654C112.993 31.236 122.382 35.2248 132.272 38.0585C133.558 38.4273 134.424 38.7432 135.029 39.3439C135.687 39.9954 135.928 40.8325 135.881 42.1798L135.906 45.3999C135.906 45.4198 135.906 45.4397 135.906 45.4618C135.899 45.623 135.886 45.7798 135.861 45.9278C135.868 45.972 135.872 46.0161 135.872 46.0625V124.522C135.872 124.732 135.8 124.924 135.678 125.074C135.543 125.264 135.382 125.429 135.201 125.571C134.644 126.006 133.898 126.2 133.16 126.191C132.449 126.183 131.718 125.982 131.168 125.624C130.927 125.469 130.718 125.281 130.547 125.063C130.422 124.902 130.36 124.712 130.362 124.522H130.36V48.5605L97.1818 50.5107V107.071C97.1818 107.281 97.1089 107.473 96.9874 107.624C96.8527 107.813 96.6915 107.979 96.5104 108.12C95.9538 108.556 95.2073 108.75 94.4696 108.741C93.7584 108.732 93.0274 108.531 92.4774 108.173C92.2367 108.019 92.0269 107.831 91.8568 107.612C91.7309 107.451 91.6691 107.261 91.6713 107.071H91.6691V50.8354L49.2061 53.3333L49.195 53.3289ZM45.2129 53.2472L45.3277 137.95L45.3365 137.955C45.6126 138.133 45.9969 138.233 46.3901 138.239C46.7523 138.244 47.0946 138.169 47.3199 137.999L47.4369 53.4305C46.8163 53.4614 46.3503 53.4636 45.8754 53.393C45.6546 53.3598 45.4403 53.3134 45.2151 53.2472H45.2129ZM16.7879 40.6227V106.362C17.0109 106.53 17.3533 106.605 17.7133 106.601C18.1064 106.596 18.4907 106.495 18.7668 106.316L18.7712 106.314V41.5591L17.3268 40.9164C17.1324 40.8303 16.9535 40.7309 16.7901 40.6227H16.7879ZM92.177 49.0353C92.2897 48.9845 92.4134 48.9558 92.5437 48.9558C92.6386 48.9558 92.7292 48.9713 92.8131 48.9978L132.615 46.6567C133.14 46.6257 133.545 46.4976 133.799 46.2723C134.006 46.0868 134.13 45.7975 134.143 45.4044L134.119 42.1555V42.1246C134.13 41.7999 134.121 41.5326 134.09 41.3118L46.9069 46.4402C46.8517 46.7317 46.8252 47.0652 46.8185 47.4584L46.7501 51.6901C46.9952 51.6901 47.2735 51.6791 47.6048 51.6592L92.177 49.0375V49.0353ZM93.4271 50.7271V106.689L93.4315 106.691C93.7076 106.87 94.0919 106.97 94.485 106.976C94.8451 106.981 95.1852 106.908 95.4105 106.738V50.6101L93.4293 50.7271H93.4271ZM132.12 48.4523V124.14L132.124 124.142C132.4 124.321 132.785 124.42 133.178 124.427C133.538 124.431 133.878 124.358 134.103 124.188V48.121C133.695 48.2888 133.231 48.386 132.719 48.4169L132.12 48.4523ZM18.0622 32.0599L45.8666 44.4304C46.1316 44.0505 46.4718 43.6883 46.9069 43.3084C49.6014 40.954 52.011 38.9419 54.2594 37.0646C61.6097 30.9246 67.2196 26.2401 72.3767 18.4591C71.9063 18.3377 71.4579 18.1875 71.0339 18.013C69.8545 17.5293 68.8761 16.8535 68.2002 16.0495C56.3797 22.1431 44.8043 25.074 32.6988 28.1373C28.2573 29.2615 23.7428 30.4034 19.1025 31.733C18.7005 31.8478 18.3538 31.9538 18.06 32.0576L18.0622 32.0599ZM45.1864 46.0559L16.779 33.416C16.7592 33.6125 16.7547 33.84 16.7658 34.1072L16.8696 37.0889C16.8895 37.6477 16.9955 38.1601 17.2274 38.5665C17.4085 38.8845 17.6757 39.1451 18.049 39.3108L44.8021 51.2108C44.8705 51.2418 44.9368 51.2705 45.0008 51.297L45.0649 47.4297C45.0737 46.9129 45.1113 46.4645 45.193 46.0559H45.1864ZM69.8169 15.2014C70.294 15.6674 70.9389 16.0716 71.7075 16.3853C72.7765 16.8226 74.0685 17.0788 75.471 17.0788C76.7476 17.0788 77.9358 16.8667 78.9474 16.4957C79.7403 16.2041 80.4183 15.8221 80.9351 15.3759C79.1108 14.2407 77.2821 13.0878 75.4445 11.9194C73.5583 13.1054 71.6854 14.1943 69.8169 15.2014Z" fill="#663366"/>
<path d="M74.2673 18.7882C68.8518 27.1722 63.0519 32.0157 55.3902 38.4163C53.1087 40.3201 50.6637 42.3631 48.0995 44.6026L131.581 39.6929C121.651 36.8305 112.22 32.8174 102.924 28.0269C96.0885 24.5042 89.3213 20.5551 82.479 16.3322C81.7501 17.0876 80.7408 17.7148 79.5525 18.1499C78.3488 18.5917 76.953 18.8434 75.4688 18.8434C75.0624 18.8434 74.6604 18.8236 74.2673 18.7882ZM49.195 53.3289L49.078 138.33C49.078 138.507 49.0249 138.672 48.9366 138.809C48.793 139.03 48.6141 139.22 48.4109 139.379C47.8544 139.814 47.1079 140.009 46.3702 140C45.659 139.991 44.9279 139.79 44.378 139.432C44.1373 139.277 43.9274 139.09 43.7574 138.871C43.6293 138.705 43.5674 138.509 43.5719 138.317L43.4548 52.6531C43.4548 52.6155 43.457 52.578 43.4614 52.5426L20.5381 42.3476V106.694H20.5359C20.5359 106.884 20.4741 107.074 20.3504 107.235C20.1803 107.453 19.9683 107.641 19.7298 107.796C19.1798 108.154 18.451 108.352 17.7376 108.363C16.9999 108.374 16.2534 108.18 15.6968 107.743C15.5157 107.601 15.3545 107.436 15.2197 107.246C15.0983 107.093 15.0254 106.901 15.0254 106.694V35.6997C15.0254 35.6246 15.0342 35.5517 15.0519 35.481L15.0055 34.1647C14.9591 32.813 15.2021 31.9737 15.8669 31.32C16.472 30.7236 17.3378 30.4078 18.6232 30.039C23.2591 28.7116 27.8045 27.5609 32.2747 26.4301C46.8605 22.7395 60.6688 19.2454 74.963 10.1459C75.2435 9.96037 75.619 9.9449 75.9216 10.1393C85.2994 16.1114 94.4453 21.6771 103.737 26.4654C112.993 31.236 122.382 35.2248 132.272 38.0585C133.558 38.4273 134.424 38.7432 135.029 39.3439C135.687 39.9954 135.928 40.8325 135.881 42.1798L135.906 45.3999C135.906 45.4198 135.906 45.4397 135.906 45.4618C135.899 45.623 135.886 45.7798 135.861 45.9278C135.868 45.972 135.872 46.0161 135.872 46.0625V124.522C135.872 124.732 135.8 124.924 135.678 125.074C135.543 125.264 135.382 125.429 135.201 125.571C134.644 126.006 133.898 126.2 133.16 126.191C132.449 126.183 131.718 125.982 131.168 125.624C130.927 125.469 130.718 125.281 130.547 125.063C130.422 124.902 130.36 124.712 130.362 124.522H130.36V48.5605L97.1818 50.5107V107.071C97.1818 107.281 97.1089 107.473 96.9874 107.624C96.8527 107.813 96.6915 107.979 96.5104 108.12C95.9538 108.556 95.2073 108.75 94.4696 108.741C93.7584 108.732 93.0274 108.531 92.4774 108.173C92.2367 108.019 92.0269 107.831 91.8568 107.612C91.7309 107.451 91.6691 107.261 91.6713 107.071H91.6691V50.8354L49.2061 53.3333L49.195 53.3289ZM45.2129 53.2472L45.3277 137.95L45.3365 137.955C45.6126 138.133 45.9969 138.233 46.3901 138.239C46.7523 138.244 47.0946 138.169 47.3199 137.999L47.4369 53.4305C46.8163 53.4614 46.3503 53.4636 45.8754 53.393C45.6546 53.3598 45.4403 53.3134 45.2151 53.2472H45.2129ZM16.7879 40.6227V106.362C17.0109 106.53 17.3533 106.605 17.7133 106.601C18.1064 106.596 18.4907 106.495 18.7668 106.316L18.7712 106.314V41.5591L17.3268 40.9164C17.1324 40.8303 16.9535 40.7309 16.7901 40.6227H16.7879ZM92.177 49.0353C92.2897 48.9845 92.4134 48.9558 92.5437 48.9558C92.6386 48.9558 92.7292 48.9713 92.8131 48.9978L132.615 46.6567C133.14 46.6257 133.545 46.4976 133.799 46.2723C134.006 46.0868 134.13 45.7975 134.143 45.4044L134.119 42.1555V42.1246C134.13 41.7999 134.121 41.5326 134.09 41.3118L46.9069 46.4402C46.8517 46.7317 46.8252 47.0652 46.8185 47.4584L46.7501 51.6901C46.9952 51.6901 47.2735 51.6791 47.6048 51.6592L92.177 49.0375V49.0353ZM93.4271 50.7271V106.689L93.4315 106.691C93.7076 106.87 94.0919 106.97 94.485 106.976C94.8451 106.981 95.1852 106.908 95.4105 106.738V50.6101L93.4293 50.7271H93.4271ZM132.12 48.4523V124.14L132.124 124.142C132.4 124.321 132.785 124.42 133.178 124.427C133.538 124.431 133.878 124.358 134.103 124.188V48.121C133.695 48.2888 133.231 48.386 132.719 48.4169L132.12 48.4523ZM18.0622 32.0599L45.8666 44.4304C46.1316 44.0505 46.4718 43.6883 46.9069 43.3084C49.6014 40.954 52.011 38.9419 54.2594 37.0646C61.6097 30.9246 67.2196 26.2401 72.3767 18.4591C71.9063 18.3377 71.4579 18.1875 71.0339 18.013C69.8545 17.5293 68.8761 16.8535 68.2002 16.0495C56.3797 22.1431 44.8043 25.074 32.6988 28.1373C28.2573 29.2615 23.7428 30.4034 19.1025 31.733C18.7005 31.8478 18.3538 31.9538 18.06 32.0576L18.0622 32.0599ZM45.1864 46.0559L16.779 33.416C16.7592 33.6125 16.7547 33.84 16.7658 34.1072L16.8696 37.0889C16.8895 37.6477 16.9955 38.1601 17.2274 38.5665C17.4085 38.8845 17.6757 39.1451 18.049 39.3108L44.8021 51.2108C44.8705 51.2418 44.9368 51.2705 45.0008 51.297L45.0649 47.4297C45.0737 46.9129 45.1113 46.4645 45.193 46.0559H45.1864ZM69.8169 15.2014C70.294 15.6674 70.9389 16.0716 71.7075 16.3853C72.7765 16.8226 74.0685 17.0788 75.471 17.0788C76.7476 17.0788 77.9358 16.8667 78.9474 16.4957C79.7403 16.2041 80.4183 15.8221 80.9351 15.3759C79.1108 14.2407 77.2821 13.0878 75.4445 11.9194C73.5583 13.1054 71.6854 14.1943 69.8169 15.2014Z" stroke="#663366" stroke-width="0.5" mask="url(#path-1-outside-1_164_22)"/>
</svg>
