<svg width="150" height="150" viewBox="0 0 150 150" fill="none" xmlns="http://www.w3.org/2000/svg">
<path d="M131.053 41.5407C131.072 41.2135 131.082 40.8878 131.082 40.5621C131.082 31.2177 123.463 23.6156 114.097 23.6156C112.167 23.6156 110.291 23.9326 108.498 24.5581C105.585 18.9967 99.8478 15.486 93.4533 15.486C87.0588 15.486 81.3215 18.9967 78.4081 24.5581C76.6156 23.9326 74.7393 23.6156 72.8095 23.6156C72.2549 23.6156 71.706 23.6444 71.1643 23.6963C68.6626 20.8298 64.9981 19.1422 61.1674 19.1422C59.7822 19.1422 58.4331 19.3512 57.1375 19.7648C54.8177 15.6071 50.4397 13 45.5734 13C40.7071 13 36.329 15.6071 34.0093 19.7648C32.7136 19.3512 31.3631 19.1422 29.9793 19.1422C22.6763 19.1422 16.7354 25.0697 16.7354 32.3562C16.7354 32.5089 16.7383 32.6617 16.744 32.8145C12.7097 34.394 10 38.2779 10 42.7109C10 48.5764 14.7825 53.3481 20.6613 53.3481H46.9398C46.9196 53.6536 46.9066 53.9606 46.9066 54.2718C46.9066 61.5799 52.6366 67.5218 59.9527 67.7985C60.8872 67.8317 61.6686 67.1082 61.7033 66.1787C61.738 65.2491 61.0114 64.4666 60.0798 64.432C54.5866 64.2245 50.2822 59.7626 50.2822 54.2718C50.2822 49.5607 53.4831 45.4966 58.0662 44.3898C58.9127 44.1852 59.4645 43.3724 59.3402 42.5134C59.2463 41.8664 59.2001 41.2106 59.2001 40.5621C59.2001 33.0753 65.3057 26.9835 72.8095 26.9835C74.8144 26.9835 76.7456 27.4087 78.5511 28.2474C78.9715 28.442 79.4525 28.4564 79.8829 28.2878C80.3133 28.1177 80.6557 27.7791 80.829 27.351C82.9176 22.1888 87.8735 18.8525 93.4533 18.8525C99.0331 18.8525 103.988 22.1888 106.078 27.351C106.251 27.7791 106.593 28.1177 107.024 28.2878C107.454 28.4564 107.937 28.442 108.355 28.2474C110.16 27.4087 112.092 26.9835 114.096 26.9835C121.599 26.9835 127.705 33.0753 127.705 40.5621C127.705 41.2092 127.657 41.8664 127.565 42.5134C127.441 43.3738 127.992 44.1852 128.839 44.3898C133.422 45.4966 136.623 49.5607 136.623 54.2718C136.623 59.8779 132.051 64.4392 126.432 64.4392H72.4715C71.5399 64.4392 70.783 65.1929 70.783 66.1239C70.783 67.0549 71.5384 67.8086 72.4715 67.8086H126.432C133.913 67.8086 140 61.737 140 54.2718C139.999 48.4986 136.387 43.456 131.053 41.5407ZM55.823 40.5621C55.823 40.8878 55.8332 41.2135 55.8519 41.5407C51.8985 42.9602 48.8927 46.099 47.6014 49.9801H20.6613C16.6444 49.9801 13.3771 46.7202 13.3771 42.7123C13.3771 39.3443 15.665 36.439 18.941 35.6478C19.7874 35.4431 20.3392 34.6303 20.215 33.7714C20.1471 33.3016 20.1124 32.826 20.1124 32.3562C20.1124 26.9273 24.5382 22.5116 29.9793 22.5116C31.4324 22.5116 32.8335 22.82 34.1422 23.4282C34.5611 23.6228 35.0435 23.6372 35.4739 23.4686C35.9044 23.2985 36.2467 22.9598 36.42 22.5318C37.9352 18.7891 41.5275 16.3694 45.5734 16.3694C49.6192 16.3694 53.2115 18.7877 54.7267 22.5318C54.9001 22.9598 55.2424 23.2985 55.6728 23.4686C56.1033 23.6372 56.5857 23.6228 57.0046 23.4282C58.3132 22.82 59.7129 22.5116 61.1674 22.5116C63.402 22.5116 65.5022 23.2437 67.2066 24.5682C60.5868 26.8812 55.823 33.1762 55.823 40.5621ZM108.308 44.4576C108.308 36.2848 101.643 29.6367 93.4533 29.6367C85.2634 29.6367 78.5988 36.2848 78.5988 44.4576C78.5988 52.6304 85.2634 59.2784 93.4533 59.2784C101.643 59.2784 108.308 52.6304 108.308 44.4576ZM81.9744 44.4576C81.9744 38.1424 87.1238 33.0047 93.4533 33.0047C99.7828 33.0047 104.932 38.1424 104.932 44.4576C104.932 50.7727 99.7828 55.9104 93.4533 55.9104C87.1238 55.9104 81.9744 50.7727 81.9744 44.4576ZM100.3 40.8186L93.4143 50.1026C93.111 50.5119 92.6386 50.7626 92.1288 50.7842C92.1042 50.7857 92.0811 50.7857 92.0565 50.7857C91.5726 50.7857 91.1104 50.5782 90.7898 50.2135L86.6963 45.5716C86.0809 44.8726 86.1488 43.809 86.8479 43.1937C87.5485 42.5783 88.6145 42.6475 89.2312 43.345L91.9439 46.4204L97.5858 38.814C98.1405 38.066 99.1978 37.9089 99.9475 38.4624C100.696 39.0158 100.855 40.0707 100.3 40.8186ZM40.3908 103.074H117.208C121.76 103.074 125.462 99.38 125.462 94.839C125.462 90.2979 121.76 86.6042 117.208 86.6042C112.657 86.6042 108.955 90.2979 108.955 94.839C108.955 95.7685 108.199 96.5237 107.266 96.5237C106.335 96.5237 105.578 95.7699 105.578 94.839C105.578 88.4402 110.795 83.2348 117.208 83.2348C123.622 83.2348 128.839 88.4402 128.839 94.839C128.839 101.238 123.622 106.443 117.208 106.443H40.3908C39.4591 106.443 38.7022 105.689 38.7022 104.758C38.7022 103.829 39.4577 103.074 40.3908 103.074ZM68.6279 83.2276C68.6279 79.1793 65.3274 75.8849 61.2685 75.8849C57.2111 75.8849 53.9106 79.1779 53.9106 83.2276C53.9106 84.1571 53.1552 84.9123 52.2221 84.9123C51.2904 84.9123 50.5336 84.1585 50.5336 83.2276C50.5336 77.3217 55.3493 72.5169 61.2685 72.5169C67.1878 72.5169 72.0035 77.3217 72.0035 83.2276C72.0035 89.1334 67.1878 93.9382 61.2685 93.9382H23.4187C22.4871 93.9382 21.7302 93.1845 21.7302 92.2535C21.7302 91.324 22.4856 90.5688 23.4187 90.5688H61.27C65.3274 90.5703 68.6279 87.2758 68.6279 83.2276ZM97.0138 126.289C97.0138 132.195 92.1981 137 86.2788 137C80.3596 137 75.5438 132.195 75.5438 126.289C75.5438 125.36 76.2993 124.605 77.2324 124.605C78.164 124.605 78.9209 125.358 78.9209 126.289C78.9209 130.338 82.2214 133.631 86.2788 133.631C90.3362 133.631 93.6382 130.338 93.6382 126.289C93.6382 122.241 90.3377 118.947 86.2788 118.947H26.257C25.3254 118.947 24.5685 118.193 24.5685 117.262C24.5685 116.331 25.3239 115.577 26.257 115.577H86.2788C92.1981 115.579 97.0138 120.383 97.0138 126.289ZM104.721 80.2386C104.721 75.8056 101.107 72.1998 96.6643 72.1998C92.2212 72.1998 88.6072 75.8056 88.6072 80.2386C88.6072 84.6716 92.2212 88.2774 96.6643 88.2774C101.107 88.2774 104.721 84.6716 104.721 80.2386ZM91.9843 80.2386C91.9843 77.6632 94.0845 75.5693 96.6643 75.5693C99.2455 75.5693 101.344 77.6647 101.344 80.2386C101.344 82.8139 99.244 84.9079 96.6643 84.9079C94.0845 84.9079 91.9843 82.8139 91.9843 80.2386ZM121.857 115.125C117.413 115.125 113.8 118.73 113.8 123.163C113.8 127.596 117.413 131.202 121.857 131.202C126.3 131.202 129.914 127.596 129.914 123.163C129.912 118.732 126.298 115.125 121.857 115.125ZM121.857 127.833C119.275 127.833 117.177 125.737 117.177 123.163C117.177 120.588 119.277 118.494 121.857 118.494C124.438 118.494 126.536 120.59 126.536 123.163C126.536 125.739 124.436 127.833 121.857 127.833ZM65.7001 100.191H14.277C13.3453 100.191 12.5884 99.4377 12.5884 98.5067C12.5884 97.5771 13.3439 96.822 14.277 96.822H65.7001C66.6317 96.822 67.3886 97.5757 67.3886 98.5067C67.3871 99.4362 66.6317 100.191 65.7001 100.191ZM74.1052 100.191C73.1735 100.191 72.4166 99.4377 72.4166 98.5067C72.4166 97.5771 73.1721 96.822 74.1052 96.822H86.1864C87.118 96.822 87.8749 97.5757 87.8749 98.5067C87.8749 99.4362 87.1195 100.191 86.1864 100.191H74.1052ZM29.0405 109.327C29.9721 109.327 30.729 110.081 30.729 111.012C30.729 111.941 29.9736 112.696 29.0405 112.696H19.2111C18.2795 112.696 17.5226 111.943 17.5226 111.012C17.5226 110.082 18.278 109.327 19.2111 109.327H29.0405ZM69.3978 109.327C70.3294 109.327 71.0863 110.081 71.0863 111.012C71.0863 111.941 70.3309 112.696 69.3978 112.696H37.447C36.5154 112.696 35.7585 111.943 35.7585 111.012C35.7585 110.082 36.5139 109.327 37.447 109.327H69.3978ZM52.0488 129.398C52.0488 130.327 51.2933 131.083 50.3602 131.083H16.757C15.8254 131.083 15.0685 130.329 15.0685 129.398C15.0685 128.468 15.8239 127.713 16.757 127.713H50.3602C51.2933 127.713 52.0488 128.467 52.0488 129.398ZM37.915 80.5038C37.915 81.4333 37.1596 82.1885 36.2265 82.1885H19.4249C18.4932 82.1885 17.7364 81.4348 17.7364 80.5038C17.7364 79.5742 18.4918 78.8191 19.4249 78.8191H36.2265C37.1596 78.8191 37.915 79.5742 37.915 80.5038Z" fill="#663366"/>
</svg>
