<svg width="150" height="150" viewBox="0 0 150 150" fill="none" xmlns="http://www.w3.org/2000/svg">
<path d="M76.9127 70.7774H67.9204C65.6521 67.8733 62.5121 65.6908 58.8978 64.6308V55.3608H62.0827C63.8464 58.1473 66.9504 59.8927 70.2798 59.8927C75.6303 59.8927 79.9819 55.5205 79.9819 50.1479C79.9819 44.7752 75.6289 40.403 70.2798 40.403C66.9489 40.403 63.8464 42.1499 62.0812 44.9349H45.7622C43.9985 42.1484 40.896 40.403 37.5651 40.403C32.2146 40.403 27.863 44.7752 27.863 50.1479C27.863 55.5205 32.216 59.8927 37.5651 59.8927C40.896 59.8927 43.9985 58.1459 45.7622 55.3608H48.9471V64.6308C45.9328 65.5151 43.2496 67.1777 41.1259 69.3907H20.2861V68.6066C20.2861 67.6046 19.478 66.7929 18.4805 66.7929H11.8057C10.8081 66.7929 10 67.6046 10 68.6066V94.9514C10 95.9534 10.8081 96.7651 11.8057 96.7651H18.4805C19.478 96.7651 20.2861 95.9534 20.2861 94.9514V94.1673H41.1244C44.3613 97.5405 48.9008 99.6445 53.9217 99.6445C59.6004 99.6445 64.6618 96.9553 67.9204 92.7806H71.7544C74.8178 92.7806 77.3088 95.2839 77.3088 98.3594V103.751C77.3088 104.753 78.1169 105.565 79.1145 105.565H93.4225C94.4201 105.565 95.2282 104.753 95.2282 103.751V89.1722C95.2282 79.0295 87.0123 70.7774 76.9127 70.7774ZM16.6748 93.1392H13.6114V70.4202H16.6748V93.1392ZM44.7011 51.7335C44.0042 51.7335 43.3696 52.1372 43.0703 52.7688C42.0656 54.8932 39.9043 56.2654 37.5651 56.2654C34.2068 56.2654 31.4729 53.521 31.4729 50.1479C31.4729 46.7747 34.2053 44.0288 37.5651 44.0288C39.9043 44.0288 42.0656 45.4011 43.0703 47.5254C43.3696 48.1571 44.0042 48.5608 44.7011 48.5608H63.1438C63.8407 48.5608 64.4753 48.1571 64.7746 47.5254C65.7793 45.4011 67.9407 44.0288 70.2798 44.0288C73.6382 44.0288 76.372 46.7733 76.372 50.1479C76.372 53.521 73.6396 56.2654 70.2798 56.2654C67.9407 56.2654 65.7793 54.8932 64.7746 52.7688C64.4753 52.1372 63.8407 51.7335 63.1438 51.7335H44.7011ZM55.2865 55.3608V63.9715C54.8354 63.9367 54.3815 63.9135 53.9217 63.9135C53.462 63.9135 53.0081 63.9367 52.557 63.9715V55.3608H55.2865ZM38.4296 90.5415H20.2861V73.0179H38.4296C36.9709 75.6084 36.1339 78.5968 36.1339 81.7797C36.1339 84.9626 36.9709 87.951 38.4296 90.5415ZM53.9217 96.0187C46.1048 96.0187 39.7452 89.631 39.7452 81.7797C39.7452 73.9284 46.1048 67.5407 53.9217 67.5407C61.7386 67.5407 68.0982 73.9284 68.0982 81.7797C68.0982 89.631 61.7386 96.0187 53.9217 96.0187ZM91.6168 101.937H80.9201V100.673H91.6168V101.937ZM91.6168 97.0453H80.8247C80.1872 92.5904 76.3633 89.1548 71.7544 89.1548H70.1164C71.1371 86.9041 71.7096 84.408 71.7096 81.7783C71.7096 79.1486 71.1371 76.6525 70.1164 74.4032H76.9127C85.0201 74.4032 91.6168 81.029 91.6168 89.1722V97.0453ZM87.5935 108.489C87.2523 108.119 86.7709 107.907 86.2692 107.907C85.7676 107.907 85.2861 108.117 84.945 108.489L80.7568 113.034C77.835 116.204 77.8408 121.369 80.7698 124.546C82.2285 126.129 84.1845 127 86.2764 127C88.3611 127 90.3085 126.133 91.76 124.559L91.7845 124.533C94.7063 121.363 94.7005 116.198 91.7715 113.021L87.5935 108.489ZM89.1317 122.069L89.1071 122.095C88.3481 122.918 87.3419 123.373 86.2735 123.373C85.1994 123.373 84.1845 122.914 83.4168 122.082C81.7688 120.294 81.763 117.278 83.4038 115.497L86.2678 112.389L89.1187 115.482C90.7668 117.273 90.7726 120.287 89.1317 122.069ZM112.059 52.3419C111.262 53.1406 110.824 54.2035 110.824 55.3347C110.824 56.4644 111.262 57.5273 112.059 58.3274C112.88 59.1521 113.959 59.5645 115.039 59.5645C116.117 59.5645 117.197 59.1521 118.018 58.3274C118.815 57.5287 119.253 56.4658 119.253 55.3347C119.253 54.2035 118.815 53.1406 118.018 52.3419C116.376 50.6909 113.703 50.6909 112.059 52.3419ZM115.465 55.763C115.229 55.9982 114.848 55.9982 114.612 55.763C114.459 55.6091 114.436 55.429 114.436 55.3347C114.436 55.2403 114.459 55.0602 114.612 54.9063C114.729 54.7887 114.884 54.7291 115.039 54.7291C115.193 54.7291 115.347 54.7887 115.465 54.9063C115.618 55.0602 115.641 55.2403 115.641 55.3347C115.641 55.429 115.618 55.6091 115.465 55.763ZM122.854 49.6701C123.56 50.3787 123.56 51.5259 122.854 52.2345C122.501 52.5888 122.04 52.7659 121.577 52.7659C121.115 52.7659 120.654 52.5888 120.301 52.2345C118.896 50.8231 117.026 50.0462 115.039 50.0462C113.051 50.0462 111.181 50.8231 109.776 52.2345C109.071 52.9431 107.927 52.9431 107.223 52.2345C106.518 51.5259 106.518 50.3787 107.223 49.6701C111.533 45.3415 118.544 45.3415 122.854 49.6701ZM126.04 46.1314C126.746 46.8401 126.746 47.9886 126.04 48.6958C125.688 49.0501 125.225 49.2273 124.764 49.2273C124.303 49.2273 123.84 49.0501 123.487 48.6958C118.829 44.0172 111.249 44.0172 106.591 48.6958C105.886 49.4044 104.744 49.4044 104.038 48.6958C103.333 47.9872 103.333 46.8401 104.038 46.1314C110.103 40.04 119.974 40.04 126.04 46.1314ZM129.783 45.2747C129.431 45.629 128.969 45.8062 128.507 45.8062C128.044 45.8062 127.583 45.629 127.23 45.2747C120.508 38.5226 109.57 38.5226 102.847 45.2747C102.142 45.9833 100.998 45.9833 100.294 45.2747C99.5884 44.5661 99.5884 43.419 100.294 42.7104C108.425 34.5439 121.654 34.5439 129.785 42.7104C130.489 43.419 130.489 44.5661 129.783 45.2747ZM115.039 23C101.274 23 90.0772 34.2463 90.0772 48.0714C90.0772 61.8965 101.274 73.1428 115.039 73.1428C128.802 73.1428 140 61.8965 140 48.0714C140 34.2463 128.803 23 115.039 23ZM115.039 69.5155C103.266 69.5155 93.6885 59.8956 93.6885 48.0714C93.6885 36.2472 103.266 26.6273 115.039 26.6273C126.811 26.6273 136.389 36.2472 136.389 48.0714C136.389 59.8956 126.811 69.5155 115.039 69.5155Z" fill="#663366"/>
</svg>
