<svg width="150" height="150" viewBox="0 0 150 150" fill="none" xmlns="http://www.w3.org/2000/svg">
<path fill-rule="evenodd" clip-rule="evenodd" d="M108.223 69.1977H105.093V58.9627H108.223V69.1977ZM93.5983 96.408C93.5983 97.8236 92.4488 98.9699 91.0432 98.9699H50.6C49.1881 98.9699 48.0386 97.8174 48.0386 96.408L48.0449 54.1518C48.0449 50.5501 50.9684 47.6187 54.5605 47.6187H87.089C90.6811 47.6187 93.6047 50.5501 93.6047 54.1518L93.5983 96.408ZM89.1816 106.06H80.9168C80.7793 106.06 80.6544 105.941 80.6544 105.797V102.916H89.444V105.797C89.444 105.941 89.3191 106.06 89.1816 106.06ZM60.9886 105.797C60.9886 105.935 60.8699 106.06 60.7263 106.06H52.4614C52.324 106.06 52.199 105.941 52.199 105.797V102.916H60.9886L60.9886 105.797ZM36.557 69.1984H33.4273V58.9634H36.557V69.1984ZM112.158 58.5375C112.158 56.5958 110.596 55.0173 108.622 55.0173V53.0254C108.622 49.4362 105.705 46.511 102.125 46.511H94.2228C92.3486 44.7508 89.8373 43.6736 87.0825 43.6736H54.5603C51.8053 43.6736 49.294 44.7509 47.42 46.511H39.5176C35.938 46.511 33.0206 49.4299 33.0206 53.0254V55.0173C31.0528 55.0173 29.4849 56.5957 29.4849 58.5375V69.6307C29.4849 71.5724 31.0591 73.1509 32.9957 73.1509H36.9876C38.9241 73.1509 40.4984 71.5724 40.4984 69.6307L40.4921 58.5375C40.4921 56.5958 38.9304 55.0173 36.9564 55.0173V53.0254C36.9564 51.6097 38.1058 50.4634 39.5115 50.4634H44.7715C44.3342 51.6097 44.0969 52.8562 44.0969 54.159V96.4153C44.0969 99.1776 45.8272 101.545 48.2512 102.491V105.811C48.2512 108.135 50.1378 110.02 52.4554 110.02H60.7203C63.0379 110.02 64.9183 108.135 64.9183 105.811V102.93H76.7127V105.811C76.7127 108.135 78.5931 110.02 80.9107 110.02H89.1756C91.4932 110.02 93.3798 108.135 93.3798 105.811V102.491C95.8099 101.552 97.5342 99.1839 97.5342 96.4153L97.5404 54.1542C97.5404 52.8514 97.303 51.605 96.8657 50.4586H102.126C103.538 50.4586 104.681 51.6049 104.681 53.0205V55.0125C102.713 55.0125 101.145 56.5909 101.145 58.5327V69.6259C101.145 71.5676 102.719 73.1461 104.656 73.1461H108.648C110.584 73.1461 112.159 71.5676 112.159 69.6259L112.158 58.5375ZM110.103 85.3469C110.103 86.443 109.222 87.32 108.135 87.32H104.774C103.687 87.32 102.806 86.4368 102.806 85.3469C102.806 84.257 103.687 83.3737 104.774 83.3737H108.135C109.222 83.3737 110.103 84.2569 110.103 85.3469ZM93.8287 133.026C93.8287 134.122 92.9479 134.999 91.8609 134.999H88.4999C87.4129 134.999 86.532 134.116 86.532 133.026C86.532 131.936 87.4129 131.053 88.4999 131.053H91.8609C92.9478 131.047 93.8287 131.936 93.8287 133.026ZM106.292 116.547C106.292 117.637 105.411 118.52 104.324 118.52H100.957C99.8695 118.52 98.9887 117.637 98.9887 116.547C98.9887 115.451 99.8695 114.574 100.957 114.574H104.317C105.404 114.574 106.292 115.451 106.292 116.547ZM93.8287 116.547C93.8287 117.637 92.9479 118.52 91.8609 118.52H88.4999C87.4129 118.52 86.532 117.637 86.532 116.547C86.532 115.451 87.4129 114.574 88.4999 114.574H91.8609C92.9478 114.574 93.8287 115.451 93.8287 116.547ZM106.292 133.026C106.292 134.122 105.411 134.999 104.324 134.999H100.957C99.8695 134.999 98.9887 134.116 98.9887 133.026C98.9887 131.936 99.8695 131.053 100.957 131.053H104.317C105.404 131.047 106.292 131.936 106.292 133.026ZM123.965 123.098V126.468C123.965 127.558 123.084 128.441 121.997 128.441C120.91 128.441 120.029 127.558 120.029 126.468V123.098C120.029 122.008 120.91 121.125 121.997 121.125C123.084 121.125 123.965 122.008 123.965 123.098ZM118.749 133.026C118.749 134.122 117.868 134.999 116.781 134.999H113.42C112.333 134.999 111.452 134.116 111.452 133.026C111.452 131.936 112.333 131.053 113.42 131.053H116.781C117.868 131.047 118.749 131.936 118.749 133.026ZM128.594 64.9019V68.2719C128.594 69.3618 127.713 70.245 126.626 70.245C125.539 70.245 124.658 69.3618 124.658 68.2719V64.9019C124.658 63.812 125.539 62.9288 126.626 62.9288C127.713 62.9288 128.594 63.8119 128.594 64.9019ZM118.749 116.547C118.749 117.637 117.868 118.52 116.781 118.52H113.42C112.333 118.52 111.452 117.637 111.452 116.547C111.452 115.451 112.333 114.574 113.42 114.574H116.781C117.868 114.574 118.749 115.451 118.749 116.547ZM128.594 77.3982V80.7682C128.594 81.8581 127.713 82.7413 126.626 82.7413C125.539 82.7413 124.658 81.8581 124.658 80.7682V77.3982C124.658 76.3083 125.539 75.4251 126.626 75.4251C127.713 75.4251 128.594 76.3082 128.594 77.3982ZM117.237 87.3263C116.15 87.3263 115.269 86.4431 115.269 85.3531C115.269 84.2632 116.15 83.38 117.237 83.38H120.598C121.685 83.38 122.565 84.2632 122.565 85.3531C122.565 86.4493 121.685 87.3263 120.598 87.3263H117.237ZM81.3657 116.547C81.3657 117.637 80.4848 118.521 79.3978 118.521H76.0369C74.9499 118.521 74.069 117.637 74.069 116.547C74.069 115.451 74.9498 114.574 76.0369 114.574H79.3978C80.4848 114.574 81.3657 115.451 81.3657 116.547ZM31.527 133.027C31.527 134.123 30.6461 135 29.5591 135H26.1981C25.1049 135 24.2303 134.117 24.2303 133.027C24.2303 131.937 25.1111 131.054 26.1981 131.054H29.5591C30.6461 131.047 31.527 131.937 31.527 133.027ZM43.9898 133.027C43.9898 134.123 43.109 135 42.022 135H38.6548C37.5615 135 36.6869 134.117 36.6869 133.027C36.6869 131.937 37.5677 131.054 38.6548 131.054H42.0157C43.1027 131.047 43.9898 131.937 43.9898 133.027ZM81.3657 133.027C81.3657 134.123 80.4848 135 79.3978 135H76.0369C74.9499 135 74.069 134.117 74.069 133.027C74.069 131.937 74.9498 131.054 76.0369 131.054H79.3978C80.4848 131.047 81.3657 131.937 81.3657 133.027ZM56.4463 133.027C56.4463 134.123 55.5655 135 54.4785 135H51.1175C50.0305 135 49.1496 134.117 49.1496 133.027C49.1496 131.937 50.0305 131.054 51.1175 131.054H54.4847C55.5654 131.047 56.4463 131.937 56.4463 133.027ZM68.9092 133.027C68.9092 134.123 68.0284 135 66.9413 135H63.5741C62.4871 135 61.6063 134.117 61.6063 133.027C61.6063 131.937 62.4871 131.054 63.5741 131.054H66.9413C68.0283 131.047 68.9092 131.937 68.9092 133.027ZM127.868 52.6869C127.412 53.4009 127 54.0649 126.619 54.6663C123.496 49.6677 117.192 40.1593 117.192 36.3572C117.192 31.1457 121.421 26.9052 126.619 26.9052C131.817 26.9052 136.046 31.1457 136.046 36.3572C136.052 39.7459 130.929 47.8444 127.868 52.6869ZM126.625 22.959C119.254 22.959 113.263 28.9723 113.263 36.3636C113.263 40.5666 117.417 47.4818 122.052 54.7977C122.858 56.0755 123.564 57.1843 124.083 58.0612C125.238 59.9967 128.024 59.9904 129.174 58.0612C129.699 57.1843 130.398 56.0818 131.204 54.8042C135.839 47.4755 140 40.5478 140 36.3636C139.988 28.9723 133.997 22.959 126.625 22.959ZM126.625 39.3134C127.987 39.3134 129.093 38.2047 129.093 36.8392C129.093 35.4737 127.987 34.3649 126.625 34.3649C125.263 34.3649 124.158 35.4736 124.158 36.8392C124.158 38.2047 125.263 39.3134 126.625 39.3134ZM126.625 30.4188C123.096 30.4188 120.222 33.3002 120.222 36.8454C120.222 40.3907 123.096 43.2658 126.625 43.2658C130.155 43.2658 133.035 40.3844 133.035 36.8454C133.028 33.3002 130.155 30.4188 126.625 30.4188ZM23.3623 108.24C22.0004 108.24 20.8947 107.131 20.8947 105.765C20.8947 104.4 22.0004 103.291 23.3623 103.291C24.7241 103.291 25.8299 104.4 25.8299 105.765C25.8299 107.131 24.7242 108.24 23.3623 108.24ZM23.3623 99.3388C26.8918 99.3388 29.7655 102.22 29.7655 105.765C29.7655 109.311 26.8918 112.186 23.3623 112.186C19.8328 112.186 16.9529 109.304 16.9529 105.765C16.9591 102.22 19.8328 99.3388 23.3623 99.3388ZM23.3623 123.592C20.2388 118.594 13.9356 109.098 13.9356 105.283C13.9356 100.072 18.1648 95.8311 23.3623 95.8311C28.5598 95.8311 32.789 100.072 32.789 105.283C32.789 109.091 26.4795 118.575 23.3623 123.592ZM25.9112 126.987C24.7617 128.916 21.9756 128.916 20.8198 126.987C20.2951 126.11 19.5954 125.002 18.7833 123.717C14.1543 116.401 10 109.48 10 105.283C10 97.8919 15.9972 91.8787 23.3687 91.8787C30.7402 91.8787 36.7311 97.8919 36.7311 105.283C36.7311 109.467 32.5768 116.395 27.9416 123.724C27.1294 125.008 26.4296 126.11 25.9112 126.987ZM83.3527 32.4736C76.4185 25.5271 65.1981 25.5396 58.2958 32.4736C57.5274 33.244 56.278 33.244 55.5096 32.4736C54.7412 31.7031 54.7412 30.4504 55.5096 29.6799C63.9806 21.1924 77.6623 21.1924 86.1318 29.6799C86.9002 30.4503 86.9002 31.6968 86.1318 32.4736C85.3634 33.244 84.1211 33.244 83.3527 32.4736ZM48.937 25.8903C49.7054 26.6607 50.9548 26.6607 51.7232 25.8903C62.2932 15.3044 79.3357 15.3107 89.9115 25.8903C90.2988 26.2724 90.7986 26.4666 91.3046 26.4666C93.0412 26.4666 93.9407 24.3432 92.6976 23.0903C80.6159 10.9699 61.0135 10.9699 48.9376 23.0903C48.1692 23.8733 48.1686 25.1198 48.937 25.8903ZM70.821 31.891C67.3164 31.891 64.0243 33.2565 61.5442 35.7432C60.7758 36.5136 60.7758 37.7663 61.5442 38.5368C62.3125 39.3073 63.5619 39.3073 64.3303 38.5368C67.9162 34.9414 73.7009 34.9351 77.3055 38.5368C77.6928 38.9189 78.1988 39.1131 78.6985 39.1131C80.4478 39.1131 81.3285 36.9835 80.0916 35.7431C77.6178 33.2564 74.3256 31.891 70.821 31.891ZM84.5895 90.7325C85.8452 90.7325 86.8572 89.7052 86.8572 88.4524C86.8572 87.1996 85.839 86.1786 84.5895 86.1786C83.3339 86.1786 82.3156 87.1996 82.3156 88.4524C82.3156 89.7052 83.3338 90.7325 84.5895 90.7325ZM84.5895 82.2263C81.1599 82.2263 78.3738 85.0199 78.3738 88.4524C78.3738 91.8912 81.1599 94.6849 84.5895 94.6849C88.0129 94.6849 90.7991 91.8912 90.7991 88.4524C90.7991 85.0199 88.0129 82.2263 84.5895 82.2263ZM57.0522 90.7325C58.3079 90.7325 59.3262 89.7052 59.3262 88.4524C59.3262 87.1996 58.3079 86.1786 57.0522 86.1786C55.7965 86.1786 54.7845 87.1996 54.7845 88.4524C54.7782 89.7052 55.7965 90.7325 57.0522 90.7325ZM57.0522 82.2263C53.6289 82.2263 50.8427 85.0199 50.8427 88.4524C50.8427 91.8912 53.6289 94.6849 57.0522 94.6849C60.4818 94.6849 63.268 91.8912 63.268 88.4524C63.268 85.0199 60.4755 82.2263 57.0522 82.2263ZM55.1157 54.7097V69.1979H68.8528V54.7097H55.1157ZM86.5264 69.1979V54.7097H72.7892V69.1979H86.5264ZM53.1422 73.144H88.4934C89.5804 73.144 90.4613 72.2608 90.4613 71.1709L90.4675 54.1526C90.4675 52.2797 88.9495 50.7576 87.0879 50.7576H54.5593C52.6976 50.7576 51.1796 52.2797 51.1796 54.1526V71.1645C51.1734 72.2606 52.0552 73.144 53.1422 73.144Z" fill="#663366"/>
</svg>
