<svg width="150" height="150" viewBox="0 0 150 150" fill="none" xmlns="http://www.w3.org/2000/svg">
<path d="M118.985 94.2661C118.985 94.2661 106.421 112.973 106.421 119.953C106.421 126.934 112.005 132.518 118.985 132.518C125.966 132.518 131.55 126.934 131.55 119.953C131.55 112.973 118.985 94.2661 118.985 94.2661Z" stroke="#663366" stroke-width="4.18815" stroke-miterlimit="10" stroke-linecap="round" stroke-linejoin="round"/>
<path d="M121.778 114.09C123.174 116.882 124.012 118.836 124.012 119.953C124.012 121.908 122.895 123.583 121.22 124.421" stroke="#663366" stroke-width="4.18815" stroke-miterlimit="10" stroke-linecap="round" stroke-linejoin="round"/>
<path d="M96.6491 136.426L92.4609 67.1821" stroke="#663366" stroke-width="4.18815" stroke-miterlimit="10" stroke-linecap="round" stroke-linejoin="round"/>
<path d="M82.4089 68.2988L78.5 136.426" stroke="#663366" stroke-width="4.18815" stroke-miterlimit="10" stroke-linecap="round" stroke-linejoin="round"/>
<path d="M84.6423 66.6234C78.4997 71.0907 65.9353 80.0254 54.7669 86.168C52.254 87.5641 49.1827 86.7265 47.5075 84.4928C45.8322 81.9799 46.6698 78.9086 48.9035 77.2333C58.9551 69.9739 72.6363 61.8768 79.0582 58.2471" stroke="#663366" stroke-width="4.18815" stroke-miterlimit="10" stroke-linecap="round" stroke-linejoin="round"/>
<path d="M82.1295 52.6626C81.2918 45.1239 79.8958 29.4882 80.175 17.2029C80.175 14.4108 82.4087 12.1772 85.2008 11.8979C87.9929 11.8979 90.5057 13.8524 90.785 16.6445C92.181 29.209 92.181 44.8447 92.181 52.3834" stroke="#663366" stroke-width="4.18815" stroke-miterlimit="10" stroke-linecap="round" stroke-linejoin="round"/>
<path d="M95.5318 57.4092C102.512 60.4805 116.752 67.1815 127.362 73.6033C129.875 74.9994 130.712 78.0707 129.595 80.8628C128.199 83.3757 125.128 84.4925 122.615 83.0965C111.168 78.0707 97.4863 70.2528 91.0645 66.3439" stroke="#663366" stroke-width="4.18815" stroke-miterlimit="10" stroke-linecap="round" stroke-linejoin="round"/>
<path d="M94.4146 54.3385C91.9017 50.4296 86.8759 49.3128 82.967 51.8257C79.058 54.3386 77.9412 59.3643 80.4541 63.2733C82.967 67.1822 87.9927 68.299 91.9017 65.7861C95.8106 63.2733 96.9275 58.2475 94.4146 54.3385Z" stroke="#663366" stroke-width="4.18815" stroke-miterlimit="10" stroke-linecap="round" stroke-linejoin="round"/>
<path d="M33.2677 119.395C32.43 120.791 31.5924 121.908 30.4756 123.304L26.2874 128.33L26.0082 128.05L21.5409 124.421C8.1388 113.252 6.46354 93.4283 17.3527 80.0263L21.5409 75.0005L26.5666 79.1886C36.0598 87.0065 39.6895 99.0125 37.1766 110.181" stroke="#663366" stroke-width="4.18815" stroke-miterlimit="10" stroke-linecap="round" stroke-linejoin="round"/>
<path d="M24.8917 106.272C24.8917 106.272 29.6383 130.005 22.0996 139.219" stroke="#663366" stroke-width="4.18815" stroke-miterlimit="10" stroke-linecap="round" stroke-linejoin="round"/>
<path d="M68.4482 100.688L67.8897 94.2661L61.4679 94.8245C44.4361 95.9414 31.3133 111.019 32.7093 128.33L33.2677 134.752L39.6896 134.193C57.0006 133.076 69.8442 117.999 68.4482 100.688Z" stroke="#663366" stroke-width="4.18815" stroke-miterlimit="10" stroke-linecap="round" stroke-linejoin="round"/>
<path d="M47.7869 118.278C47.7869 118.278 34.1056 138.102 22.0996 139.219" stroke="#663366" stroke-width="4.18815" stroke-miterlimit="10" stroke-linecap="round" stroke-linejoin="round"/>
<path d="M35.7811 49.3131C43.0286 49.3131 48.9039 43.4378 48.9039 36.1902C48.9039 28.9427 43.0286 23.0674 35.7811 23.0674C28.5335 23.0674 22.6582 28.9427 22.6582 36.1902C22.6582 43.4378 28.5335 49.3131 35.7811 49.3131Z" stroke="#663366" stroke-width="4.18815" stroke-miterlimit="10" stroke-linecap="round" stroke-linejoin="round"/>
<path d="M35.7812 14.412V10.7822" stroke="#663366" stroke-width="4.18815" stroke-miterlimit="10" stroke-linecap="round" stroke-linejoin="round"/>
<path d="M35.7812 61.8778V58.248" stroke="#663366" stroke-width="4.18815" stroke-miterlimit="10" stroke-linecap="round" stroke-linejoin="round"/>
<path d="M57.8389 36.1904H61.4686" stroke="#663366" stroke-width="4.18815" stroke-miterlimit="10" stroke-linecap="round" stroke-linejoin="round"/>
<path d="M10.373 36.1904H14.0028" stroke="#663366" stroke-width="4.18815" stroke-miterlimit="10" stroke-linecap="round" stroke-linejoin="round"/>
<path d="M24.892 17.4833L22.9375 14.1328" stroke="#663366" stroke-width="4.18815" stroke-miterlimit="10" stroke-linecap="round" stroke-linejoin="round"/>
<path d="M48.6244 58.5273L46.6699 55.1768" stroke="#663366" stroke-width="4.18815" stroke-miterlimit="10" stroke-linecap="round" stroke-linejoin="round"/>
<path d="M54.7676 25.3011L58.1181 23.3467" stroke="#663366" stroke-width="4.18815" stroke-miterlimit="10" stroke-linecap="round" stroke-linejoin="round"/>
<path d="M13.7236 49.0341L17.0741 47.0796" stroke="#663366" stroke-width="4.18815" stroke-miterlimit="10" stroke-linecap="round" stroke-linejoin="round"/>
<path d="M17.0741 25.3011L13.7236 23.3467" stroke="#663366" stroke-width="4.18815" stroke-miterlimit="10" stroke-linecap="round" stroke-linejoin="round"/>
<path d="M58.1181 49.0341L54.7676 47.0796" stroke="#663366" stroke-width="4.18815" stroke-miterlimit="10" stroke-linecap="round" stroke-linejoin="round"/>
<path d="M46.6699 17.4833L48.6244 14.1328" stroke="#663366" stroke-width="4.18815" stroke-miterlimit="10" stroke-linecap="round" stroke-linejoin="round"/>
<path d="M22.9375 58.5273L24.892 55.1768" stroke="#663366" stroke-width="4.18815" stroke-miterlimit="10" stroke-linecap="round" stroke-linejoin="round"/>
<path d="M10.373 139.219H140.206" stroke="#663366" stroke-width="4.18815" stroke-miterlimit="10" stroke-linecap="round" stroke-linejoin="round"/>
<path d="M115.914 20.5525C117.59 17.4812 120.94 15.2476 124.849 15.2476C130.433 15.2476 134.901 19.7149 134.901 25.2991C134.901 30.8833 130.433 35.3507 124.849 35.3507H112.285C108.097 35.3507 104.467 32.0001 104.467 27.5328C104.467 23.3446 107.817 19.7149 112.285 19.7149C115.914 19.7149 118.986 22.2278 119.823 25.5783" stroke="#663366" stroke-width="4.18815" stroke-miterlimit="10" stroke-linecap="round" stroke-linejoin="round"/>
</svg>
