<svg width="150" height="150" viewBox="0 0 150 150" fill="none" xmlns="http://www.w3.org/2000/svg">
<path d="M136.589 129.284H132.397V55.6633H136.588C137.348 55.6633 137.962 55.0486 137.962 54.2891V34.4868C137.962 33.7273 137.348 33.1126 136.588 33.1126H110.97L106.749 18.2583C105.36 13.3708 101.332 10.0708 96.7299 10.0453L90.8319 10.0011C87.6286 9.95408 84.7151 11.4799 82.6995 14.1424H65.3007C63.2985 11.4987 60.3985 10.0011 57.2287 10.0011C57.1582 9.99703 51.3463 10.0475 51.273 10.0453C46.6687 10.0708 42.6414 13.3708 41.2524 18.2583L37.0319 33.1126H11.4135C10.6539 33.1126 10.0393 33.7273 10.0393 34.4868V54.2891C10.0393 55.0486 10.6539 55.6633 11.4135 55.6633H15.5911V129.284H11.4108C10.6512 129.284 10.0366 129.899 10.0366 130.658V138.626C10.0366 139.385 10.6512 140 11.4108 140H136.589C137.349 140 137.964 139.385 137.964 138.626V130.658C137.964 129.899 137.349 129.284 136.589 129.284ZM135.214 35.861V52.9149C132.521 52.8794 117.213 52.8386 114.173 52.8599C115.773 48.8637 114.178 44.1905 113.01 40.2942C113.01 40.2942 111.75 35.861 111.75 35.861H135.214ZM90.7688 87.2562H57.2381C56.4785 87.2562 55.8639 87.8708 55.8639 88.6303V129.279H18.3395V55.6633H35.2058C39.173 61.8857 48.2904 61.9609 52.2218 55.6633C52.2218 55.6633 95.7794 55.6633 95.7831 55.6633C99.7604 61.8344 108.774 61.9373 112.782 55.6633H129.649V129.279H92.143V88.6303C92.143 87.8708 91.5284 87.2562 90.7688 87.2562ZM89.3946 90.0045V129.279H75.3642V90.0045H89.3946ZM72.6158 90.0045V129.279H58.6123V90.0045H72.6158ZM58.0819 44.6167C60.8 46.2878 64.4553 46.0015 66.8158 43.7908H81.1696C83.5396 45.9639 87.1958 46.2421 89.9374 44.6302C90.286 44.6228 93.9969 52.4522 94.2625 52.8599H53.7325C54.0415 52.3884 57.6622 44.667 58.0819 44.6167ZM57.4112 38.4697C57.4112 35.9912 59.4269 33.9755 61.9055 33.9755C65.3396 33.8856 67.5948 37.9618 65.7342 40.8265C63.491 44.5595 57.3035 42.9026 57.4112 38.4697ZM81.6017 38.4697C81.9122 31.8938 91.5874 32.9425 90.4779 39.4351C89.3684 44.5511 81.5816 43.7317 81.6017 38.4697ZM37.1814 42.555C39.373 34.7009 41.4812 26.7988 43.9193 19.0177C45.3834 14.0209 49.2604 12.3972 54.2014 12.663C57.2357 12.644 60.7158 12.8273 62.5996 15.2065C63.3325 16.3775 64.1312 17.026 65.5738 16.8944C71.2046 16.8948 76.8354 16.8952 82.466 16.8956C83.0407 16.8956 83.6452 16.888 84.1436 16.6023C84.7026 16.2819 85.0204 15.6765 85.417 15.1688C87.2817 12.7824 90.7716 12.626 93.7997 12.6776C99.9835 12.5768 103.2 14.3304 104.482 20.5371C106.638 27.9328 108.754 35.339 110.879 42.7436C111.56 45.1151 112.247 47.556 112.007 50.0114C111.72 54.661 107.104 58.785 102.423 57.3736C96.122 55.3399 95.8354 47.1777 91.9073 42.7788C96.4216 36.2607 89.1517 28.3609 82.2831 32.3137C79.449 34.0665 78.1399 37.9347 79.3271 41.0486C75.7786 41.0494 72.2304 41.0504 68.6818 41.0512C69.8505 37.9597 68.5723 34.1314 65.7805 32.3623C59.0427 28.3697 51.6903 35.9824 55.9115 42.5764C54.4974 45.3612 53.0835 48.1459 51.6695 50.9307C50.5419 53.1512 49.3045 55.4915 47.1524 56.745C42.643 59.4058 36.8356 55.8306 36.1334 50.8735C35.6248 48.0986 36.4065 45.2677 37.1814 42.555ZM12.7877 52.9149V35.861H36.2512C35.7501 37.6267 34.1463 43.2625 33.6179 45.1193C32.9321 47.652 32.988 50.3784 33.8249 52.8599C30.7014 52.8388 15.5515 52.8789 12.7877 52.9149ZM135.215 137.252H12.785V132.033H135.215V137.252ZM48.9393 28.4667H49.986C49.3429 34.5173 57.6321 34.5118 56.9871 28.4667C63.0351 29.1097 63.0311 20.8223 56.9871 21.4669C57.6313 15.4175 49.3405 15.4206 49.986 21.4669H48.9393C44.3239 21.5879 44.3259 28.3466 48.9393 28.4667ZM48.9393 24.2153H51.3602C52.1198 24.2153 52.7344 23.6007 52.7344 22.8411V20.4188C52.7384 19.4385 54.2336 19.4347 54.2388 20.4188V22.8411C54.2388 23.6007 54.8534 24.2153 55.613 24.2153H58.0339C59.0135 24.2194 59.0186 25.7136 58.0339 25.7183H55.613C54.8534 25.7183 54.2388 26.3329 54.2388 27.0925V29.5134C54.2337 30.4941 52.7394 30.5003 52.7344 29.5134C52.7344 29.5134 52.7344 27.0925 52.7344 27.0925C52.7344 26.3329 52.1198 25.7183 51.3602 25.7183H48.9393C47.9596 25.7141 47.9546 24.2199 48.9393 24.2153ZM90.4521 28.4868C90.8926 28.4868 91.3103 28.3961 91.6991 28.2475C90.7829 30.4722 92.5704 33.064 94.9799 33.0146C97.3888 33.0642 99.176 30.4715 98.2594 28.2475C100.484 29.1639 103.076 27.3761 103.026 24.9667C103.076 22.558 100.484 20.769 98.2594 21.6861C99.1753 19.4618 97.3891 16.8695 94.9799 16.919C92.5711 16.8695 90.7822 19.4617 91.6991 21.6861C86.4426 20.0031 84.9389 28.1687 90.4521 28.4868ZM99.5064 24.1952C100.515 24.2005 100.515 25.7333 99.5064 25.7385C98.4993 25.7334 98.4993 24.2 99.5064 24.1952ZM94.9799 30.2663C93.9711 30.261 93.9713 28.7281 94.9799 28.723C95.9871 28.728 95.9871 30.2614 94.9799 30.2663ZM94.9799 19.6673C95.9871 19.6723 95.9871 21.2057 94.9799 21.2106C93.9711 21.2053 93.9713 19.6725 94.9799 19.6673ZM93.7329 23.7197C94.5014 24.0338 95.4584 24.0337 96.227 23.7197C95.9129 24.4883 95.9129 25.4452 96.227 26.2139C95.4584 25.8998 94.5014 25.8998 93.7329 26.2139C94.0469 25.4452 94.0469 24.4884 93.7329 23.7197ZM90.4521 24.1952C91.4609 24.2005 91.4608 25.7333 90.4521 25.7385C89.4433 25.7332 89.4434 24.2003 90.4521 24.1952ZM66.3005 23.5926H68.8408C70.1909 23.5926 71.2886 24.6904 71.2886 26.0391C71.2886 27.3891 70.1909 28.4868 68.8408 28.4868H66.3005C63.0841 28.43 63.0838 23.6498 66.3005 23.5926ZM79.3392 23.5926H81.8809C83.2296 23.5926 84.3273 24.6904 84.3273 26.0391C84.3273 27.3891 83.2296 28.4868 81.8809 28.4868H79.3392C76.1248 28.4298 76.1243 23.6501 79.3392 23.5926ZM90.7661 66.2475H57.2341C56.4745 66.2475 55.8599 66.8621 55.8599 67.6216V81.432C55.8599 82.1915 56.4745 82.8062 57.2341 82.8062H90.7661C91.5257 82.8062 92.1403 82.1915 92.1403 81.432V67.6216C92.1403 66.8621 91.5257 66.2475 90.7661 66.2475ZM89.3919 80.0578H58.6083V68.9958H89.3919V80.0578ZM50.6235 66.1159H22.4473C21.6877 66.1159 21.0731 66.7306 21.0731 67.4901V113.779C21.0731 114.539 21.6877 115.153 22.4473 115.153H50.6235C51.383 115.153 51.9977 114.539 51.9977 113.779V67.4901C51.9977 66.7306 51.383 66.1159 50.6235 66.1159ZM49.2493 112.405H23.8214V68.8643H49.2493L49.2493 112.405ZM97.3767 115.153H125.554C126.314 115.153 126.928 114.539 126.928 113.779V67.4901C126.928 66.7306 126.314 66.1159 125.554 66.1159H97.3767C96.6172 66.1159 96.0025 66.7306 96.0025 67.4901V113.779C96.0025 114.539 96.6172 115.153 97.3767 115.153ZM98.7509 68.8643H124.18V112.405H98.7509V68.8643ZM64.8525 108.268H66.7876C67.5472 108.268 68.1618 108.882 68.1618 109.642C68.0971 111.436 66.0398 110.96 64.8525 111.016C63.0549 111.009 63.0559 108.275 64.8525 108.268ZM80.0383 109.642C80.1031 107.847 82.1592 108.324 83.3463 108.268C85.1439 108.274 85.1429 111.009 83.3463 111.016H81.4125C80.653 111.016 80.0383 110.401 80.0383 109.642ZM29.8094 88.735L39.3119 79.2338C40.5905 77.9658 42.5176 79.9052 41.2551 81.177C41.2551 81.177 31.7525 90.6782 31.7525 90.6781C30.4748 91.9454 28.546 90.0081 29.8094 88.735ZM29.8094 100.092L39.3119 90.5896C40.5905 89.3216 42.5176 91.261 41.2551 92.5328C41.2551 92.5328 31.7525 102.035 31.7525 102.035C30.4748 103.303 28.546 101.365 29.8094 100.092ZM117.188 81.177C117.188 81.177 107.686 90.6782 107.686 90.6781C106.408 91.9454 104.479 90.0081 105.743 88.735L115.245 79.2338C116.524 77.9658 118.451 79.9052 117.188 81.177ZM117.188 92.5328C117.188 92.5328 107.686 102.035 107.686 102.035C106.408 103.303 104.479 101.365 105.743 100.092L115.245 90.5896C116.524 89.3216 118.451 91.261 117.188 92.5328Z" fill="#663366"/>
</svg>
