<svg width="150" height="150" viewBox="0 0 150 150" fill="none" xmlns="http://www.w3.org/2000/svg">
<path d="M75 10C62.1442 10 49.5771 13.8122 38.888 20.9545C28.1988 28.0968 19.8676 38.2484 14.9479 50.1256C10.0282 62.0028 8.74095 75.0721 11.249 87.6809C13.757 100.29 19.9477 111.872 29.0381 120.962C38.1285 130.052 49.7104 136.243 62.3191 138.751C74.9279 141.259 87.9972 139.972 99.8744 135.052C111.752 130.132 121.903 121.801 129.046 111.112C136.188 100.423 140 87.8558 140 75C139.981 57.7669 133.126 41.2451 120.941 29.0594C108.755 16.8738 92.2331 10.0194 75 10ZM75 135.937C62.9477 135.937 51.1661 132.364 41.145 125.668C31.1238 118.972 23.3133 109.455 18.7011 98.3198C14.0889 87.1849 12.8821 74.9324 15.2334 63.1117C17.5847 51.291 23.3884 40.4329 31.9107 31.9107C40.433 23.3884 51.291 17.5847 63.1117 15.2334C74.9324 12.8821 87.1849 14.0889 98.3198 18.7011C109.455 23.3133 118.972 31.1238 125.668 41.1449C132.364 51.1661 135.938 62.9477 135.938 75C135.919 91.156 129.493 106.645 118.069 118.069C106.645 129.493 91.156 135.919 75 135.937Z" fill="#663366"/>
<path d="M108.035 108.034C99.2666 116.783 87.3862 121.695 75 121.695C62.6138 121.695 50.7333 116.783 41.9648 108.034C41.5817 107.664 41.0686 107.46 40.536 107.464C40.0034 107.469 39.4939 107.683 39.1173 108.059C38.7407 108.436 38.5271 108.945 38.5225 109.478C38.5178 110.01 38.7226 110.524 39.0926 110.907C48.6234 120.416 61.5368 125.756 75 125.756C88.4631 125.756 101.377 120.416 110.907 110.907C111.277 110.524 111.482 110.01 111.478 109.478C111.473 108.945 111.259 108.436 110.883 108.059C110.506 107.683 109.997 107.469 109.464 107.464C108.931 107.46 108.418 107.664 108.035 108.034ZM40.5287 42.5602C40.7955 42.5603 41.0598 42.5077 41.3062 42.4054C41.5527 42.3031 41.7765 42.1531 41.9648 41.964C50.7333 33.2159 62.6138 28.303 75 28.303C87.3862 28.303 99.2666 33.2159 108.035 41.964C108.418 42.334 108.931 42.5387 109.464 42.5341C109.997 42.5295 110.506 42.3159 110.883 41.9393C111.259 41.5626 111.473 41.0532 111.478 40.5206C111.482 39.988 111.277 39.4749 110.907 39.0918C101.377 29.5826 88.4632 24.2422 75 24.2422C61.5367 24.2422 48.6233 29.5826 39.0926 39.0918C38.8086 39.3759 38.6152 39.7378 38.5369 40.1317C38.4585 40.5257 38.4987 40.9341 38.6524 41.3052C38.8062 41.6763 39.0664 41.9935 39.4004 42.2167C39.7344 42.4399 40.127 42.5591 40.5287 42.5592V42.5602ZM90.0109 87.5381C90.5496 87.5381 91.0663 87.3241 91.4472 86.9432C91.8282 86.5623 92.0422 86.0456 92.0422 85.5069V59.6206C92.0199 57.7679 91.2683 55.9987 89.9503 54.6964C88.6323 53.3942 86.8542 52.6639 85.0014 52.6639C83.1485 52.6639 81.3704 53.3942 80.0524 54.6964C78.7344 55.9987 77.9828 57.7679 77.9605 59.6206V63.0494C77.3861 62.934 76.8016 62.8758 76.2157 62.8757C73.9063 62.8649 71.6869 63.7706 70.0445 65.3942C68.4021 67.0178 67.4708 69.2266 67.4549 71.5359V83.0288H61.7908V64.4672C61.7908 63.9285 61.5768 63.4118 61.1958 63.0309C60.8149 62.65 60.2982 62.4359 59.7595 62.4359C59.2208 62.4359 58.7041 62.65 58.3232 63.0309C57.9423 63.4118 57.7283 63.9285 57.7283 64.4672V85.06C57.7283 85.5987 57.9423 86.1154 58.3232 86.4963C58.7041 86.8772 59.2208 87.0912 59.7595 87.0912H82.9462C83.485 87.0912 84.0016 86.8772 84.3825 86.4963C84.7635 86.1154 84.9775 85.5987 84.9775 85.06V71.5359C84.9751 70.3097 84.7102 69.0981 84.2006 67.9827C83.691 66.8673 82.9485 65.874 82.023 65.0695V59.6206C82.0433 58.8443 82.3659 58.1066 82.9222 57.5647C83.4784 57.0228 84.2243 56.7196 85.0008 56.7196C85.7774 56.7196 86.5233 57.0228 87.0795 57.5647C87.6358 58.1066 87.9584 58.8443 87.9787 59.6206V85.5069C87.9787 86.0456 88.1927 86.5623 88.5736 86.9432C88.9545 87.3241 89.4722 87.5381 90.0109 87.5381ZM80.914 83.0288H71.5174V71.5359C71.543 70.3068 72.0492 69.1366 72.9275 68.2764C73.8058 67.4161 74.9863 66.9343 76.2157 66.9343C77.4451 66.9343 78.6256 67.4161 79.5039 68.2764C80.3822 69.1366 80.8884 70.3068 80.914 71.5359V83.0288ZM54.266 82.9465C54.2491 80.3716 53.2602 77.8981 51.4973 76.0212C49.7344 74.1444 47.3276 73.0027 44.7587 72.8248V67.6999H51.0201C51.5588 67.6999 52.0755 67.4859 52.4564 67.105C52.8373 66.7241 53.0513 66.2074 53.0513 65.6687C53.0513 65.13 52.8373 64.6133 52.4564 64.2324C52.0755 63.8514 51.5588 63.6374 51.0201 63.6374H34.4349C33.8962 63.6374 33.3795 63.8514 32.9986 64.2324C32.6177 64.6133 32.4037 65.13 32.4037 65.6687V73.3905C30.9538 74.0189 29.7663 75.1299 29.0428 76.5347C28.3193 77.9395 28.1045 79.5514 28.4349 81.0966C28.7652 82.6419 29.6204 84.0251 30.8551 85.0112C32.0898 85.9974 33.6278 86.5256 35.2078 86.5063H37.8291C39.6565 86.5141 41.4122 85.7967 42.7112 84.5114C44.0102 83.2262 44.7462 81.4781 44.7577 79.6508V76.9045C46.317 77.0711 47.7518 77.8331 48.763 79.0317C49.7741 80.2303 50.2836 81.7729 50.1851 83.338C50.0866 84.903 49.3877 86.3696 48.2343 87.432C47.0809 88.4944 45.5618 89.0705 43.994 89.0402H30.3125C29.7738 89.0402 29.2571 89.2542 28.8762 89.6352C28.4953 90.0161 28.2812 90.5328 28.2812 91.0715V95.3117C28.2812 95.8504 28.4953 96.3671 28.8762 96.748C29.2571 97.129 29.7738 97.343 30.3125 97.343C30.8512 97.343 31.3679 97.129 31.7488 96.748C32.1297 96.3671 32.3437 95.8504 32.3437 95.3117V93.1038H43.995C46.7032 93.1162 49.3056 92.0537 51.2312 90.1494C53.1568 88.2451 54.2483 85.6546 54.266 82.9465ZM40.6962 79.6508C40.6855 80.4009 40.3778 81.1162 39.8405 81.6397C39.3033 82.1633 38.5803 82.4524 37.8302 82.4438H35.2098C34.8387 82.4508 34.4698 82.3838 34.1248 82.2467C33.7798 82.1095 33.4656 81.905 33.2006 81.645C32.9356 81.385 32.7251 81.0747 32.5813 80.7324C32.4376 80.3901 32.3636 80.0225 32.3636 79.6513C32.3636 79.28 32.4376 78.9125 32.5813 78.5702C32.7251 78.2279 32.9356 77.9176 33.2006 77.6576C33.4656 77.3976 33.7798 77.1931 34.1248 77.0559C34.4698 76.9187 34.8387 76.8518 35.2098 76.8588H40.6962V79.6508ZM40.6962 72.7963H36.4662V67.6989H40.6962V72.7963ZM107.87 71.1906V79.2923H102.163C101.896 79.298 101.639 79.1978 101.446 79.0137C101.253 78.8296 101.141 78.5766 101.135 78.3102V64.4672C101.135 63.9285 100.921 63.4118 100.54 63.0309C100.159 62.65 99.6425 62.4359 99.1038 62.4359C98.5651 62.4359 98.0484 62.65 97.6675 63.0309C97.2866 63.4118 97.0726 63.9285 97.0726 64.4672V78.3102C97.0801 79.6537 97.6203 80.9393 98.5746 81.8851C99.5289 82.8308 100.819 83.3594 102.163 83.3548H107.871V88.4695C107.682 88.5733 107.511 88.7067 107.364 88.8645L107.29 88.9458C105.701 90.6842 103.502 91.7407 101.152 91.8941C100.348 91.9742 99.5379 91.964 98.7362 91.8637C98.337 91.7946 98.0892 91.5417 98.0892 91.3467V88.766C98.0892 88.5192 98.4569 88.2338 98.9718 88.2338C99.444 88.2338 99.8117 88.5192 99.8117 88.766C99.8117 89.3047 100.026 89.8214 100.407 90.2023C100.788 90.5833 101.304 90.7973 101.843 90.7973C102.382 90.7973 102.898 90.5833 103.279 90.2023C103.66 89.8214 103.874 89.3047 103.874 88.766C103.786 87.52 103.23 86.3536 102.316 85.5019C101.402 84.6503 100.2 84.1767 98.9505 84.1767C97.7014 84.1767 96.4987 84.6503 95.585 85.5019C94.6713 86.3536 94.1144 87.52 94.0267 88.766V91.3467C94.0557 92.4526 94.4746 93.5127 95.2094 94.3397C95.9442 95.1667 96.9477 95.7074 98.0425 95.8663C98.6594 95.9646 99.2835 96.0105 99.9082 96.0034C100.37 96.0034 100.873 95.9851 101.426 95.9475C104.53 95.7442 107.461 94.4474 109.7 92.2872C109.766 92.2974 109.834 92.3041 109.901 92.3075C110.055 92.3063 110.208 92.2876 110.358 92.2516H116.45C116.988 92.2516 117.505 92.0376 117.886 91.6567C118.267 91.2758 118.481 90.7591 118.481 90.2204C118.481 89.6817 118.267 89.165 117.886 88.7841C117.505 88.4031 116.988 88.1891 116.45 88.1891H111.932V83.3548H118.66C120.003 83.3594 121.294 82.8308 122.248 81.8851C123.202 80.9393 123.742 79.6537 123.75 78.3102V71.1906C123.75 69.0848 122.913 67.0652 121.424 65.5761C119.935 64.087 117.916 63.2505 115.81 63.2505C113.704 63.2505 111.684 64.087 110.195 65.5761C108.706 67.0652 107.87 69.0848 107.87 71.1906ZM119.687 71.1906V78.3102C119.681 78.5766 119.569 78.8296 119.377 79.0137C119.184 79.1978 118.926 79.298 118.66 79.2923H111.932V71.1906C111.955 70.1776 112.374 69.2138 113.099 68.5055C113.823 67.7973 114.797 67.4007 115.81 67.4007C116.823 67.4007 117.796 67.7973 118.521 68.5055C119.246 69.2138 119.664 70.1776 119.687 71.1906Z" fill="#663366"/>
<path d="M115.152 61.1027C116.441 61.1027 117.486 60.0732 117.486 58.8033C117.486 57.5334 116.441 56.5039 115.152 56.5039C113.863 56.5039 112.818 57.5334 112.818 58.8033C112.818 60.0732 113.863 61.1027 115.152 61.1027Z" fill="#663366"/>
</svg>
