<svg width="150" height="150" viewBox="0 0 150 150" fill="none" xmlns="http://www.w3.org/2000/svg">
<path fill-rule="evenodd" clip-rule="evenodd" d="M111.339 105.546H118.625C120.642 105.546 122.295 103.894 122.295 101.876V94.6031C122.295 92.5851 120.642 90.9328 118.625 90.9328H111.339C109.321 90.9328 107.669 92.5851 107.669 94.6031V101.876C107.669 103.907 109.321 105.546 111.339 105.546ZM111.867 95.1312H118.096V101.361H111.867V95.1312ZM111.339 125.387H118.625C120.642 125.387 122.295 123.735 122.295 121.717V114.444C122.295 112.426 120.642 110.774 118.625 110.774H111.339C109.321 110.774 107.669 112.426 107.669 114.444V121.717C107.669 123.735 109.321 125.387 111.339 125.387ZM111.867 114.959H118.096V121.188H111.867V114.959ZM38.669 90.9328H31.3966C29.3788 90.9328 27.7266 92.5851 27.7266 94.6031V101.876C27.7266 103.894 29.3788 105.546 31.3966 105.546H38.669C40.6869 105.546 42.3391 103.894 42.3391 101.876V94.6031C42.3391 92.5716 40.6869 90.9328 38.669 90.9328ZM38.1408 101.361H31.9112V95.1312H38.1408V101.361ZM38.669 110.76H31.3966C29.3788 110.76 27.7266 112.412 27.7266 114.43V121.703C27.7266 123.721 29.3788 125.373 31.3966 125.373H38.669C40.6869 125.373 42.3391 123.721 42.3391 121.703V114.43C42.3391 112.412 40.6869 110.76 38.669 110.76ZM38.1408 121.188H31.9112V114.959H38.1408V121.188ZM139.521 78.7439L134.023 68.9521C132.939 67.029 130.975 65.8778 128.768 65.8778H101.277V53.7295L106.003 56.6007C106.341 56.8038 106.721 56.9122 107.086 56.9122C107.791 56.9122 108.481 56.5601 108.874 55.91C109.47 54.9213 109.158 53.6347 108.17 53.0253L77.103 34.1054V26.9952C78.0374 25.5189 79.0937 25.3835 79.8386 25.4241C81.0303 25.4783 81.9648 26.0471 83.1565 26.7649C84.0368 27.2931 85.0389 27.9026 86.2442 28.3224C88.0589 28.9589 89.7653 28.9725 91.4581 28.3359C92.2842 28.038 92.8259 27.2525 92.8259 26.3722V15.2125C92.8259 14.576 92.5415 13.9801 92.054 13.5873C91.5665 13.1946 90.9164 13.0321 90.307 13.1675C88.9257 13.4519 88.5871 13.2623 88.384 13.154C88.0589 12.9779 87.7475 12.7883 87.436 12.6122C84.9306 11.1631 82.5606 9.79524 79.7709 10.0255C77.5363 10.2151 75.4372 11.2308 73.5683 13.0321C73.1621 13.4248 72.9318 13.9666 72.9318 14.5489V34.1189L41.8244 53.0117C40.8358 53.6076 40.5243 54.9078 41.1202 55.8965C41.7161 56.8851 43.0162 57.1966 44.0048 56.6007L48.7312 53.7295V65.8778H21.2397C19.0322 65.8778 17.0685 67.029 15.9851 68.9521L10.4868 78.7439C9.80969 79.9628 9.83678 81.5067 10.5816 82.7798C11.3535 84.107 12.7349 84.8925 14.2517 84.8925H17.1092V133.973C17.1092 137.291 19.8177 140 23.1356 140H126.845C130.163 140 132.871 137.291 132.871 133.973V84.8925H135.729C137.246 84.8925 138.627 84.107 139.399 82.7798C140.157 81.5067 140.198 79.9628 139.521 78.7439ZM77.103 15.4699C78.078 14.6979 79.0666 14.2781 80.1094 14.1833C81.5856 14.0478 83.319 15.0636 85.3233 16.2147C85.6484 16.4043 85.9734 16.594 86.2984 16.77C87.0162 17.1763 87.761 17.4065 88.6142 17.4607V24.5709C88.3027 24.5438 87.9641 24.4626 87.612 24.3407C86.813 24.0563 86.0817 23.6229 85.3098 23.1489C83.8878 22.2957 82.2898 21.3205 80.0282 21.2122C79.9063 21.2122 79.7709 21.1987 79.649 21.1987C78.7416 21.1987 77.8884 21.3612 77.0894 21.6727V15.4699H77.103ZM75.0039 37.735L97.0783 51.1699V135.802H92.7989V114.43C92.7989 112.412 91.1467 110.76 89.1288 110.76H60.8789C58.8611 110.76 57.2089 112.412 57.2089 114.43V135.802H52.9294V51.1699L75.0039 37.735ZM77.103 114.959H88.6142V135.802H77.103V114.959ZM72.9048 135.802H61.3935V114.959H72.9048V135.802ZM14.2381 80.6941C14.2246 80.6941 14.2246 80.6806 14.211 80.667L19.6416 70.9972C19.9802 70.3877 20.5354 70.0627 21.2397 70.0627H48.7312V80.6941H14.2381ZM21.3209 133.973V84.8925H48.7312V135.802H23.1492C22.1335 135.802 21.3209 134.989 21.3209 133.973ZM128.687 133.973C128.687 134.989 127.861 135.802 126.859 135.802H101.277V84.8925H128.7V133.973H128.687ZM135.743 80.6941H101.277V70.0627H128.768C129.472 70.0627 130.028 70.3877 130.366 70.9972L135.783 80.667C135.77 80.6806 135.756 80.6941 135.743 80.6941ZM60.8789 105.546H68.1513C70.1691 105.546 71.8213 103.894 71.8213 101.876V94.6031C71.8213 92.5851 70.1691 90.9328 68.1513 90.9328H60.8789C58.8611 90.9328 57.2089 92.5851 57.2089 94.6031V101.876C57.2089 103.907 58.8475 105.546 60.8789 105.546ZM61.3935 95.1312H67.6231V101.361H61.3935V95.1312ZM89.1288 90.9328H81.8564C79.8386 90.9328 78.1864 92.5851 78.1864 94.6031V101.876C78.1864 103.894 79.8386 105.546 81.8564 105.546H89.1288C91.1467 105.546 92.7989 103.894 92.7989 101.876V94.6031C92.7989 92.5716 91.1602 90.9328 89.1288 90.9328ZM88.6142 101.361H82.3846V95.1312H88.6142V101.361ZM75.0039 81.3442C84.4837 81.3442 92.1894 73.6381 92.1894 64.1578C92.1894 54.6776 84.4837 46.9714 75.0039 46.9714C65.524 46.9714 57.8183 54.6776 57.8183 64.1578C57.8183 73.6381 65.524 81.3442 75.0039 81.3442ZM75.0039 51.1563C82.1679 51.1563 87.9912 56.9799 87.9912 64.1443C87.9912 71.3087 82.1679 77.1323 75.0039 77.1323C67.8398 77.1323 62.0165 71.3087 62.0165 64.1443C62.0165 56.9935 67.8398 51.1563 75.0039 51.1563ZM72.3766 64.1578C72.3766 63.5755 72.5797 63.0337 72.9048 62.6004V55.3818C72.9048 54.2171 73.8392 53.2826 75.0039 53.2826C76.1685 53.2826 77.103 54.2171 77.103 55.3818V62.6004C77.2926 62.8577 77.4415 63.1692 77.5363 63.4942L81.2199 66.4331C82.1273 67.1509 82.2762 68.4781 81.5585 69.3855C81.1387 69.9002 80.5292 70.171 79.9198 70.171C79.4594 70.171 78.9989 70.0221 78.6197 69.7106L74.9361 66.7717C73.5142 66.7175 72.3766 65.5799 72.3766 64.1578Z" fill="#663366"/>
</svg>
