<svg width="150" height="150" viewBox="0 0 150 150" fill="none" xmlns="http://www.w3.org/2000/svg">
<path d="M138.555 129.161H132.903V64.4041C132.903 63.6258 132.268 62.991 131.49 62.991H124.805V52.8568C124.805 52.0785 124.17 51.4438 123.392 51.4438H105.773C104.995 51.4438 104.36 52.0785 104.36 52.8568V62.991H97.5926V45.7915C97.5926 45.0132 96.9578 44.3784 96.1795 44.3784H53.7882C53.01 44.3784 52.3752 45.0132 52.3752 45.7915V62.991H47.1038V52.8568C47.1038 52.0785 46.4691 51.4438 45.6908 51.4438H28.0716C27.2933 51.4438 26.6585 52.0785 26.6585 52.8568V62.991H18.4783C17.7 62.991 17.0652 63.6258 17.0652 64.4041V129.161H11.413C10.6348 129.161 10 129.796 10 130.574V138.544C10 139.323 10.6348 139.958 11.413 139.958H138.587C139.365 139.958 140 139.323 140 138.544V130.574C140 129.796 139.365 129.161 138.587 129.161H138.555ZM137.142 137.131H12.7939V131.987H137.142V137.131ZM29.4522 54.2692H44.2454V62.9903H29.4522V54.2692ZM19.8589 65.8164H52.3589V129.16H43.98V114.097C43.98 113.319 43.3453 112.684 42.567 112.684H29.6509C28.8726 112.684 28.2379 113.319 28.2379 114.097V129.16H19.8589V65.8164ZM107.17 54.2692H121.963V62.9903H107.17V54.2692ZM105.756 65.8164H130.076V129.16H121.697V114.097C121.697 113.319 121.063 112.684 120.284 112.684H107.368C106.59 112.684 105.955 113.319 105.955 114.097V129.16H97.5763V65.8164H105.756ZM41.1535 129.16H31.0635V115.51H41.1535V129.16ZM81.7898 129.16H68.1562V110.99H81.7898V129.16ZM118.871 129.16H108.781V115.51H118.871V129.16ZM55.185 64.4034V47.2038H94.7503V129.16H84.616V109.577C84.616 108.799 83.9813 108.164 83.203 108.164H66.7439C65.9656 108.164 65.3308 108.799 65.3308 109.577V129.16H55.1966V64.4034H55.185Z" fill="#663366"/>
<path d="M62.4033 64.5425H71.0527C71.8309 64.5425 72.4657 63.9078 72.4657 63.1295V54.4801C72.4657 53.7018 71.8309 53.0671 71.0527 53.0671H62.4033C61.625 53.0671 60.9902 53.7018 60.9902 54.4801V63.1295C60.9902 63.9078 61.625 64.5425 62.4033 64.5425ZM63.8163 55.9097H69.6396V61.733H63.8163V55.9097Z" fill="#663366"/>
<path d="M78.8798 64.5425H87.5292C88.3075 64.5425 88.9423 63.9078 88.9423 63.1295V54.4801C88.9423 53.7018 88.3075 53.0671 87.5292 53.0671H78.8798C78.1016 53.0671 77.4668 53.7018 77.4668 54.4801V63.1295C77.4668 63.9078 78.1016 64.5425 78.8798 64.5425ZM80.2929 55.9097H86.1162V61.733H80.2929V55.9097Z" fill="#663366"/>
<path d="M62.4033 81.5711H71.0527C71.8309 81.5711 72.4657 80.9364 72.4657 80.1581V71.5087C72.4657 70.7304 71.8309 70.0957 71.0527 70.0957H62.4033C61.625 70.0957 60.9902 70.7304 60.9902 71.5087V80.1581C60.9902 80.9364 61.625 81.5711 62.4033 81.5711ZM63.8163 72.9383H69.6396V78.7616H63.8163V72.9383Z" fill="#663366"/>
<path d="M78.8798 81.5711H87.5292C88.3075 81.5711 88.9423 80.9364 88.9423 80.1581V71.5087C88.9423 70.7304 88.3075 70.0957 87.5292 70.0957H78.8798C78.1016 70.0957 77.4668 70.7304 77.4668 71.5087V80.1581C77.4668 80.9364 78.1016 81.5711 78.8798 81.5711ZM80.2929 72.9383H86.1162V78.7616H80.2929V72.9383Z" fill="#663366"/>
<path d="M71.0527 98.5983C71.8309 98.5983 72.4657 97.9635 72.4657 97.1852V88.5358C72.4657 87.7576 71.8309 87.1228 71.0527 87.1228H62.4033C61.625 87.1228 60.9902 87.7576 60.9902 88.5358V97.1852C60.9902 97.9635 61.625 98.5983 62.4033 98.5983H71.0527ZM63.8163 89.9654H69.6396V95.7887H63.8163V89.9654Z" fill="#663366"/>
<path d="M78.8798 98.5983H87.5292C88.3075 98.5983 88.9423 97.9635 88.9423 97.1852V88.5358C88.9423 87.7576 88.3075 87.1228 87.5292 87.1228H78.8798C78.1016 87.1228 77.4668 87.7576 77.4668 88.5358V97.1852C77.4668 97.9635 78.1016 98.5983 78.8798 98.5983ZM80.2929 89.9654H86.1162V95.7887H80.2929V89.9654Z" fill="#663366"/>
<path d="M102.919 79.5505H110.255C111.033 79.5505 111.668 78.9157 111.668 78.1374V70.8017C111.668 70.0235 111.033 69.3887 110.255 69.3887H102.919C102.141 69.3887 101.506 70.0235 101.506 70.8017V78.1374C101.506 78.9157 102.141 79.5505 102.919 79.5505ZM104.332 72.2148H108.842V76.7244H104.332V72.2148Z" fill="#663366"/>
<path d="M102.919 94.0059H110.255C111.033 94.0059 111.668 93.3711 111.668 92.5929V85.2572C111.668 84.4789 111.033 83.8441 110.255 83.8441H102.919C102.141 83.8441 101.506 84.4789 101.506 85.2572V92.5929C101.506 93.3711 102.141 94.0059 102.919 94.0059ZM104.332 86.6592H108.842V91.1688H104.332V86.6592Z" fill="#663366"/>
<path d="M102.919 108.446H110.255C111.033 108.446 111.668 107.811 111.668 107.033V99.6971C111.668 98.9188 111.033 98.2841 110.255 98.2841H102.919C102.141 98.2841 101.506 98.9188 101.506 99.6971V107.033C101.506 107.811 102.141 108.446 102.919 108.446ZM104.332 101.116H108.842V105.625H104.332V101.116Z" fill="#663366"/>
<path d="M117.403 79.5505H124.739C125.517 79.5505 126.152 78.9157 126.152 78.1374V70.8017C126.152 70.0235 125.517 69.3887 124.739 69.3887H117.403C116.625 69.3887 115.99 70.0235 115.99 70.8017V78.1374C115.99 78.9157 116.625 79.5505 117.403 79.5505ZM118.816 72.2148H123.326V76.7244H118.816V72.2148Z" fill="#663366"/>
<path d="M117.403 94.0059H124.739C125.517 94.0059 126.152 93.3711 126.152 92.5929V85.2572C126.152 84.4789 125.517 83.8441 124.739 83.8441H117.403C116.625 83.8441 115.99 84.4789 115.99 85.2572V92.5929C115.99 93.3711 116.625 94.0059 117.403 94.0059ZM118.816 86.6592H123.326V91.1688H118.816V86.6592Z" fill="#663366"/>
<path d="M117.403 108.446H124.739C125.517 108.446 126.152 107.811 126.152 107.033V99.6971C126.152 98.9188 125.517 98.2841 124.739 98.2841H117.403C116.625 98.2841 115.99 98.9188 115.99 99.6971V107.033C115.99 107.811 116.625 108.446 117.403 108.446ZM118.816 101.116H123.326V105.625H118.816V101.116Z" fill="#663366"/>
<path d="M25.2021 79.5505H32.5378C33.3161 79.5505 33.9508 78.9157 33.9508 78.1374V70.8017C33.9508 70.0235 33.3161 69.3887 32.5378 69.3887H25.2021C24.4238 69.3887 23.7891 70.0235 23.7891 70.8017V78.1374C23.7891 78.9157 24.4238 79.5505 25.2021 79.5505ZM26.6151 72.2148H31.1247V76.7244H26.6151V72.2148Z" fill="#663366"/>
<path d="M25.2021 94.0059H32.5378C33.3161 94.0059 33.9508 93.3711 33.9508 92.5929V85.2572C33.9508 84.4789 33.3161 83.8441 32.5378 83.8441H25.2021C24.4238 83.8441 23.7891 84.4789 23.7891 85.2572V92.5929C23.7891 93.3711 24.4238 94.0059 25.2021 94.0059ZM26.6151 86.6592H31.1247V91.1688H26.6151V86.6592Z" fill="#663366"/>
<path d="M32.5319 108.446C33.3102 108.446 33.945 107.811 33.945 107.033V99.6971C33.945 98.9188 33.3102 98.2841 32.5319 98.2841H25.1962C24.418 98.2841 23.7832 98.9188 23.7832 99.6971V107.033C23.7832 107.811 24.418 108.446 25.1962 108.446H32.5319ZM26.6148 101.116H31.1244V105.625H26.6148V101.116Z" fill="#663366"/>
<path d="M39.6845 79.5505H47.0202C47.7985 79.5505 48.4332 78.9157 48.4332 78.1374V70.8017C48.4332 70.0235 47.7985 69.3887 47.0202 69.3887H39.6845C38.9063 69.3887 38.2715 70.0235 38.2715 70.8017V78.1374C38.2715 78.9157 38.9063 79.5505 39.6845 79.5505ZM41.0976 72.2148H45.6072V76.7244H41.0976V72.2148Z" fill="#663366"/>
<path d="M39.6845 94.0059H47.0202C47.7985 94.0059 48.4332 93.3711 48.4332 92.5929V85.2572C48.4332 84.4789 47.7985 83.8441 47.0202 83.8441H39.6845C38.9063 83.8441 38.2715 84.4789 38.2715 85.2572V92.5929C38.2715 93.3711 38.9063 94.0059 39.6845 94.0059ZM41.0976 86.6592H45.6072V91.1688H41.0976V86.6592Z" fill="#663366"/>
<path d="M39.6845 108.446H47.0202C47.7985 108.446 48.4332 107.811 48.4332 107.033V99.6971C48.4332 98.9188 47.7985 98.2841 47.0202 98.2841H39.6845C38.9063 98.2841 38.2715 98.9188 38.2715 99.6971V107.033C38.2715 107.811 38.9063 108.446 39.6845 108.446ZM41.0976 101.116H45.6072V105.625H41.0976V101.116Z" fill="#663366"/>
<path d="M86.905 18.6356C86.7615 18.1995 86.4082 17.8573 85.9722 17.7193L79.7956 15.8537L76.1194 10.5713C75.584 9.80957 74.3256 9.80957 73.8012 10.5713L70.125 15.8537L63.9485 17.7193C63.5124 17.8463 63.1592 18.1995 63.0156 18.6356C62.8721 19.0716 62.9604 19.5519 63.2254 19.9217L67.1278 25.0495L67.0008 31.491C67.0008 31.9546 67.2106 32.3962 67.5804 32.6611C67.9502 32.9316 68.4415 32.9978 68.883 32.8598L74.9713 30.7403L81.0595 32.8598C81.2141 32.915 81.3686 32.9426 81.5232 32.9426C81.8212 32.9426 82.1193 32.8433 82.3566 32.6722C82.7265 32.4017 82.9528 31.9656 82.9362 31.502L82.8093 25.0605L86.7117 19.9327C86.9932 19.5629 87.0649 19.0827 86.9214 18.6466L86.905 18.6356ZM80.2483 23.7524C80.0496 24.0063 79.9502 24.3154 79.9668 24.63L80.0661 29.5315L75.4297 27.9198C75.2751 27.8646 75.1206 27.837 74.966 27.837C74.8115 27.837 74.6569 27.8646 74.5024 27.9198L69.8659 29.5315L69.9652 24.63C69.9652 24.3043 69.8659 23.9952 69.6837 23.7524L66.7141 19.8389L71.4058 18.4259C71.7149 18.3431 71.9688 18.1444 72.1565 17.8739L74.955 13.8445L77.7536 17.8739C77.9357 18.1444 78.2062 18.3265 78.5042 18.4259L83.196 19.8389L80.2263 23.7524H80.2483Z" fill="#663366"/>
<path d="M58.6714 21.7867C58.4451 21.3782 58.0366 21.1077 57.584 21.0636L51.1701 20.3847L46.5612 15.8751C46.2355 15.5494 45.7719 15.4114 45.3027 15.4942C44.8501 15.577 44.4692 15.8916 44.2705 16.3111L41.6541 22.2062L35.9467 25.2034C35.5382 25.4132 35.2567 25.8271 35.196 26.2797C35.1408 26.7324 35.3064 27.196 35.6486 27.5106L40.4397 31.8215L41.516 38.1802C41.5988 38.6329 41.8858 39.0303 42.3053 39.2235C42.504 39.3063 42.7027 39.3504 42.9125 39.3504C43.1554 39.3504 43.4093 39.2952 43.619 39.1683L49.1994 35.9448L55.5746 36.8777C56.0383 36.9494 56.4909 36.7783 56.8166 36.4416C57.1257 36.1049 57.2692 35.6357 57.1698 35.1831L55.8285 28.8797L58.6822 23.1006C58.8809 22.6921 58.8809 22.1954 58.6546 21.7869L58.6714 21.7867ZM53.091 28.057C52.9475 28.3385 52.9089 28.6642 52.9806 28.9733L53.9963 33.7754L49.1499 33.0689C48.8243 33.0247 48.5152 33.0854 48.2337 33.24L43.978 35.6963L43.1611 30.861C43.1059 30.5519 42.9513 30.2538 42.7085 30.0441L39.0655 26.7654L43.415 24.4912C43.6965 24.3477 43.9228 24.1104 44.0498 23.8123L46.0424 19.3303L49.5475 22.7636C49.7738 22.9899 50.0719 23.1334 50.381 23.161L55.2548 23.6688L53.08 28.0625L53.091 28.057Z" fill="#663366"/>
<path d="M34.2149 34.124C33.9334 33.7541 33.4918 33.5444 33.0116 33.5996L26.5811 34.0246L21.2657 30.3651C20.8848 30.0946 20.4046 30.0394 19.963 30.2105C19.527 30.3817 19.2013 30.7349 19.0854 31.1875L17.5012 37.4359L12.3845 41.3493C12.0147 41.6308 11.8049 42.0724 11.8325 42.536C11.8601 42.9997 12.103 43.4247 12.4949 43.6676L17.9484 47.1008L20.0955 53.1781C20.25 53.6141 20.6033 53.9398 21.0559 54.0667C21.1829 54.0943 21.3098 54.1219 21.4368 54.1219C21.7624 54.1219 22.0881 54.0115 22.342 53.7963L27.2876 49.6675L33.7292 49.4964C34.1928 49.4964 34.6178 49.2425 34.8717 48.8616C35.1256 48.4808 35.1698 47.984 34.9987 47.559L32.6087 41.5811L34.4467 35.4045C34.5737 34.9685 34.4909 34.4883 34.1928 34.1184L34.2149 34.124ZM29.7771 41.2554C29.6943 41.5645 29.7054 41.8902 29.8213 42.1883L31.6428 46.7366L26.7413 46.8635C26.4321 46.8635 26.1175 46.9905 25.8636 47.1892L22.0881 50.3245L20.4487 45.7045C20.3383 45.4065 20.1396 45.1526 19.8691 44.9814L15.7128 42.365L19.6152 39.3844C19.8691 39.1857 20.0513 38.9207 20.123 38.6061L21.3263 33.8426L25.3668 36.6246C25.6372 36.8067 25.9463 36.8951 26.2554 36.8675L31.1459 36.5418L29.7494 41.2445L29.7771 41.2554Z" fill="#663366"/>
<path d="M93.0932 36.4357C93.4023 36.7724 93.8549 36.9324 94.3352 36.8717L100.71 35.9389L106.291 39.1623C106.501 39.2893 106.754 39.3445 106.997 39.3445C107.207 39.3445 107.406 39.3003 107.604 39.2175C108.03 39.0188 108.311 38.6214 108.394 38.1743L109.47 31.8156L114.261 27.5047C114.598 27.1956 114.769 26.743 114.714 26.2738C114.659 25.8102 114.377 25.4127 113.963 25.1975L108.256 22.2003L105.639 16.3052C105.457 15.8802 105.076 15.5821 104.607 15.4883C104.143 15.4055 103.691 15.5435 103.349 15.8691L98.7397 20.3787L92.3258 21.0576C91.8621 21.1018 91.4647 21.3833 91.2384 21.7807C91.0121 22.1892 90.9955 22.6694 91.2108 23.0944L94.0644 28.8735L92.7232 35.1769C92.6238 35.6295 92.7673 36.0932 93.0764 36.4354L93.0932 36.4357ZM100.385 22.7578L103.89 19.3246L105.883 23.8066C106.01 24.1047 106.236 24.342 106.517 24.4855L110.867 26.7597L107.224 30.0384C106.981 30.2481 106.826 30.5351 106.771 30.8553L105.954 35.6906L101.699 33.2343C101.489 33.1073 101.235 33.0521 100.992 33.0521C100.92 33.0521 100.849 33.0521 100.782 33.0687L95.9361 33.7752L96.9517 28.9731C97.0234 28.664 96.9793 28.3383 96.8413 28.0568L94.6665 23.6631L99.5403 23.1553C99.8494 23.1277 100.148 22.9842 100.374 22.7579L100.385 22.7578Z" fill="#663366"/>
<path d="M115.056 48.8719C115.31 49.2527 115.735 49.4956 116.199 49.5066L122.64 49.6777L127.586 53.8065C127.84 54.0163 128.165 54.1322 128.491 54.1322C128.618 54.1322 128.745 54.1156 128.872 54.077C129.324 53.95 129.678 53.6244 129.832 53.1883L131.979 47.1111L137.433 43.6778C137.83 43.4349 138.068 43.0155 138.095 42.5463C138.123 42.0826 137.913 41.6411 137.543 41.3595L132.427 37.4461L130.842 31.1978C130.732 30.7452 130.406 30.3809 129.965 30.2208C129.529 30.0497 129.048 30.1214 128.662 30.3754L123.347 34.0349L116.916 33.6098C116.464 33.5822 116.011 33.7809 115.713 34.1342C115.431 34.504 115.332 34.9842 115.459 35.4203L117.297 41.5969L114.907 47.5747C114.736 47.9998 114.78 48.491 115.034 48.8774L115.056 48.8719ZM120.112 42.1875C120.222 41.8894 120.239 41.5637 120.156 41.2546L118.76 36.5519L123.65 36.8775C123.976 36.9051 124.285 36.8058 124.539 36.6347L128.579 33.8527L129.783 38.6162C129.865 38.9253 130.036 39.1958 130.29 39.3945L134.193 42.3751L130.036 44.9915C129.766 45.1626 129.573 45.4165 129.457 45.7146L127.817 50.3346L124.042 47.1993C123.799 47.0006 123.49 46.8736 123.164 46.8736L118.263 46.7467L120.084 42.1984L120.112 42.1875Z" fill="#663366"/>
</svg>
