<svg width="150" height="150" viewBox="0 0 150 150" fill="none" xmlns="http://www.w3.org/2000/svg">
<path fill-rule="evenodd" clip-rule="evenodd" d="M12.9753 125.75H75.7639V23.9867H12.9753V125.75ZM77.2513 128.726H11.4879C10.6675 128.726 10 128.059 10 127.238V22.4941C10 21.6737 10.6676 21.0062 11.4879 21.0062H77.2513C78.0773 21.0062 78.7392 21.6738 78.7392 22.4941V127.238C78.7392 128.059 78.0773 128.726 77.2513 128.726Z" fill="#663366"/>
<path fill-rule="evenodd" clip-rule="evenodd" d="M24.4486 48.1335H35.9391V35.7151H24.4486V48.1335ZM37.427 51.1094H22.9605C22.1402 51.1094 21.4727 50.4418 21.4727 49.6215V34.2271C21.4727 33.4067 22.1403 32.7392 22.9605 32.7392H37.427C38.253 32.7392 38.9149 33.4068 38.9149 34.2271V49.6215C38.9149 50.4419 38.253 51.1094 37.427 51.1094Z" fill="#663366"/>
<path fill-rule="evenodd" clip-rule="evenodd" d="M52.806 48.1335H64.2966V35.7151H52.806V48.1335ZM65.7844 51.1094H51.318C50.4976 51.1094 49.8301 50.4418 49.8301 49.6215V34.2271C49.8301 33.4067 50.4977 32.7392 51.318 32.7392H65.7844C66.6048 32.7392 67.2723 33.4068 67.2723 34.2271V49.6215C67.2723 50.4419 66.6047 51.1094 65.7844 51.1094Z" fill="#663366"/>
<path fill-rule="evenodd" clip-rule="evenodd" d="M52.806 106.78H64.2966V94.3614H52.806V106.78ZM65.7844 109.756H51.318C50.4976 109.756 49.8301 109.088 49.8301 108.268V92.8734C49.8301 92.053 50.4977 91.3855 51.318 91.3855H65.7844C66.6048 91.3855 67.2723 92.0531 67.2723 92.8734V108.268C67.2723 109.088 66.6047 109.756 65.7844 109.756Z" fill="#663366"/>
<path fill-rule="evenodd" clip-rule="evenodd" d="M25.054 106.78H36.5446V94.3614H25.054V106.78ZM38.0325 109.756H23.566C22.7457 109.756 22.0781 109.088 22.0781 108.268V92.8734C22.0781 92.053 22.7457 91.3855 23.566 91.3855H38.0325C38.8528 91.3855 39.5204 92.0531 39.5204 92.8734V108.268C39.5204 109.088 38.8528 109.756 38.0325 109.756Z" fill="#663366"/>
<path fill-rule="evenodd" clip-rule="evenodd" d="M52.806 77.4566H64.2966V65.0383H52.806V77.4566ZM65.7844 80.4326H51.318C50.4976 80.4326 49.8301 79.7649 49.8301 78.9447V63.5502C49.8301 62.7299 50.4977 62.0623 51.318 62.0623H65.7844C66.6048 62.0623 67.2723 62.7299 67.2723 63.5502V78.9447C67.2723 79.765 66.6047 80.4326 65.7844 80.4326Z" fill="#663366"/>
<path fill-rule="evenodd" clip-rule="evenodd" d="M25.054 77.4566H36.5446V65.0383H25.054V77.4566ZM38.0325 80.4326H23.566C22.7457 80.4326 22.0781 79.7649 22.0781 78.9447V63.5502C22.0781 62.7299 22.7457 62.0623 23.566 62.0623H38.0325C38.8528 62.0623 39.5204 62.7299 39.5204 63.5502V78.9447C39.5204 79.765 38.8528 80.4326 38.0325 80.4326Z" fill="#663366"/>
<path fill-rule="evenodd" clip-rule="evenodd" d="M138.512 128.727H77.2574C76.4371 128.727 75.7695 128.059 75.7695 127.239C75.7695 126.418 76.4371 125.751 77.2574 125.751H137.025V78.2437H77.2574C76.4371 78.2437 75.7695 77.5761 75.7695 76.7558C75.7695 75.9354 76.4371 75.2679 77.2574 75.2679H138.512C139.333 75.2679 140 75.9355 140 76.7558V127.244C140 128.064 139.332 128.731 138.512 128.731V128.727Z" fill="#663366"/>
<path fill-rule="evenodd" clip-rule="evenodd" d="M117.397 128.727C116.577 128.727 115.909 128.059 115.909 127.239V105.621H98.8176V127.239C98.8176 128.059 98.15 128.727 97.3297 128.727C96.5093 128.727 95.8418 128.059 95.8418 127.239V104.133C95.8418 103.313 96.5094 102.645 97.3297 102.645H117.402C118.223 102.645 118.89 103.313 118.89 104.133V127.239C118.89 128.059 118.223 128.727 117.402 128.727H117.397Z" fill="#663366"/>
<path fill-rule="evenodd" clip-rule="evenodd" d="M86.7122 90.6843H97.4673V85.8357H86.7122V90.6843ZM98.9552 93.6603H85.2242C84.4039 93.6603 83.7363 92.9927 83.7363 92.1724V84.348C83.7363 83.5276 84.4039 82.8601 85.2242 82.8601H98.9552C99.7756 82.8601 100.443 83.5277 100.443 84.348V92.1724C100.443 92.9927 99.7755 93.6603 98.9552 93.6603Z" fill="#663366"/>
<path fill-rule="evenodd" clip-rule="evenodd" d="M118.304 90.6843H129.059V85.8357H118.304V90.6843ZM130.547 93.6603H116.816C115.996 93.6603 115.328 92.9927 115.328 92.1724V84.348C115.328 83.5276 115.996 82.8601 116.816 82.8601H130.547C131.367 82.8601 132.035 83.5277 132.035 84.348V92.1724C132.035 92.9927 131.367 93.6603 130.547 93.6603Z" fill="#663366"/>
<path fill-rule="evenodd" clip-rule="evenodd" d="M86.4966 57.0901L89.829 60.213C90.2024 60.5637 90.3664 61.0786 90.2759 61.5765L89.416 66.063L93.4215 63.8622C93.8684 63.6133 94.4116 63.6133 94.8585 63.8622L98.8641 66.063L98.0041 61.5765C97.9079 61.0729 98.0777 60.5581 98.4511 60.213L101.783 57.0843L97.246 56.5128C96.7369 56.4506 96.3012 56.1338 96.0862 55.6699L94.1458 51.5341L92.1995 55.6699C91.9845 56.1338 91.5432 56.4506 91.0397 56.5128L86.5023 57.0843L86.4966 57.0901ZM100.912 70.3911C100.669 70.3911 100.42 70.3288 100.194 70.2043L94.1343 66.8664L88.075 70.2043C87.5659 70.4816 86.9492 70.442 86.4796 70.1025C86.0156 69.763 85.7837 69.186 85.8912 68.6203L87.1924 61.8255L82.1458 57.0902C81.7271 56.6941 81.5687 56.0944 81.7498 55.5457C81.9308 54.9969 82.406 54.6008 82.9775 54.5273L89.8402 53.6617L92.782 47.3988C93.0253 46.8782 93.5515 46.5445 94.1285 46.5445C94.7056 46.5445 95.2318 46.8783 95.4751 47.3988L98.4169 53.6617L105.28 54.5273C105.851 54.6008 106.332 54.9969 106.507 55.5457C106.688 56.0944 106.53 56.6941 106.111 57.0902L101.065 61.8199L102.366 68.6146C102.473 69.1804 102.241 69.7575 101.778 70.0969C101.517 70.2836 101.212 70.3797 100.901 70.3797L100.912 70.3911Z" fill="#663366"/>
<path fill-rule="evenodd" clip-rule="evenodd" d="M121.636 63.68C121.88 63.68 122.128 63.7422 122.355 63.8667L126.36 66.0675L125.5 61.5809C125.404 61.0774 125.574 60.5626 125.947 60.2175L129.28 57.0887L124.742 56.5173C124.233 56.4551 123.797 56.1383 123.582 55.6744L121.642 51.5386L119.702 55.6744C119.487 56.1383 119.045 56.4551 118.536 56.5173L114.004 57.0887L117.337 60.2117C117.71 60.5624 117.874 61.0773 117.778 61.5751L116.918 66.0617L120.924 63.8609C121.144 63.7365 121.393 63.6742 121.642 63.6742L121.636 63.68ZM128.414 70.3899C128.165 70.3899 127.922 70.3277 127.696 70.2032L121.636 66.8652L115.577 70.2032C115.068 70.4804 114.451 70.4408 113.982 70.1014C113.518 69.7619 113.286 69.1848 113.393 68.6191L114.694 61.8244L109.648 57.089C109.229 56.693 109.071 56.0933 109.252 55.5445C109.433 54.9957 109.908 54.5997 110.479 54.5261L117.342 53.6605L120.284 47.3976C120.527 46.8771 121.053 46.5433 121.63 46.5433C122.208 46.5433 122.734 46.8771 122.977 47.3976L125.919 53.6605L132.787 54.5261C133.359 54.5997 133.84 54.9957 134.015 55.5445C134.196 56.0933 134.038 56.693 133.619 57.089L128.572 61.8187L129.874 68.6135C129.981 69.1792 129.755 69.7563 129.285 70.0957C129.025 70.2824 128.719 70.3786 128.414 70.3786L128.414 70.3899Z" fill="#663366"/>
<path fill-rule="evenodd" clip-rule="evenodd" d="M100.245 31.5456L103.577 34.6685C103.95 35.0193 104.114 35.5341 104.018 36.032L103.158 40.5185L107.158 38.3121C107.605 38.0689 108.148 38.0689 108.595 38.3121L112.601 40.5185L111.741 36.032C111.645 35.5285 111.814 35.0136 112.188 34.6685L115.52 31.5398L110.983 30.9684C110.474 30.9062 110.038 30.5893 109.823 30.1254L107.883 25.9897L105.942 30.1254C105.727 30.5893 105.286 30.9062 104.777 30.9684L100.245 31.5398L100.245 31.5456ZM114.66 44.8466C114.411 44.8466 114.168 44.7844 113.942 44.6599L107.882 41.3219L101.823 44.6599C101.314 44.9371 100.697 44.8975 100.228 44.5581C99.7637 44.2186 99.5317 43.6415 99.6392 43.0758L100.94 36.2811L95.8939 31.5457C95.4752 31.1497 95.3168 30.55 95.4978 30.0012C95.6789 29.4524 96.1541 29.0564 96.7255 28.9828L103.588 28.1172L106.53 21.8543C106.773 21.3338 107.3 21 107.877 21C108.454 21 108.98 21.3338 109.223 21.8543L112.165 28.1172L119.028 28.9828C119.599 29.0564 120.08 29.4524 120.255 30.0012C120.436 30.55 120.278 31.1497 119.859 31.5457L114.813 36.2754L116.114 43.0702C116.221 43.6359 115.995 44.213 115.526 44.5524C115.265 44.7391 114.96 44.8353 114.654 44.8353L114.66 44.8466Z" fill="#663366"/>
</svg>
