<svg width="150" height="150" viewBox="0 0 150 150" fill="none" xmlns="http://www.w3.org/2000/svg">
<path d="M102.277 140H49.0101C48.1701 140 47.4883 139.318 47.4883 138.478V42.1516C47.4883 41.3115 48.1701 40.6297 49.0101 40.6297L102.277 40.6243C103.117 40.6243 103.799 41.3061 103.799 42.1461V138.473C103.799 139.318 103.117 140 102.277 140ZM50.5322 136.951H100.755V43.6726H50.5322V136.951Z" fill="#663366"/>
<path d="M73.3392 80.8202H59.9203C59.0802 80.8202 58.3984 80.1383 58.3984 79.2983V65.8794C58.3984 65.0393 59.0803 64.3575 59.9203 64.3575H73.3392C74.1793 64.3575 74.8611 65.0394 74.8611 65.8794V79.2983C74.8611 80.1384 74.1792 80.8202 73.3392 80.8202ZM61.4368 77.7709H71.8119V67.3958H61.4368V77.7709Z" fill="#663366"/>
<path d="M91.5795 80.8202H78.1605C77.3205 80.8202 76.6387 80.1383 76.6387 79.2983V65.8794C76.6387 65.0393 77.3205 64.3575 78.1605 64.3575H91.5795C92.4195 64.3575 93.1013 65.0394 93.1013 65.8794V79.2983C93.1068 80.1384 92.4195 80.8202 91.5795 80.8202ZM79.6825 77.7709H90.0576V67.3958H79.6825V77.7709Z" fill="#663366"/>
<path d="M73.4427 100.954H60.0238C59.1837 100.954 58.502 100.272 58.502 99.4321V86.0132C58.502 85.1731 59.1838 84.4913 60.0238 84.4913H73.4427C74.2828 84.4913 74.9646 85.1732 74.9646 86.0132V99.4321C74.9646 100.267 74.2827 100.954 73.4427 100.954ZM61.5458 97.9047H71.9209V87.5296H61.5458V97.9047Z" fill="#663366"/>
<path d="M91.683 100.954H78.264C77.424 100.954 76.7422 100.272 76.7422 99.4321V86.0132C76.7422 85.1731 77.424 84.4913 78.264 84.4913H91.683C92.523 84.4913 93.2048 85.1732 93.2048 86.0132V99.4321C93.2103 100.267 92.5284 100.954 91.683 100.954ZM79.786 97.9047H90.1611V87.5296H79.786V97.9047Z" fill="#663366"/>
<path d="M86.5508 139.962H64.7425C63.9025 139.962 63.2207 139.28 63.2207 138.44V114.324C63.2207 113.484 63.9026 112.802 64.7425 112.802H86.5508C87.3908 112.802 88.0726 113.484 88.0726 114.324V138.44C88.0726 139.28 87.3907 139.962 86.5508 139.962ZM66.2647 136.918H85.03V115.846H66.2647V136.918Z" fill="#663366"/>
<path d="M75.641 139.962C74.8009 139.962 74.1191 139.28 74.1191 138.44V114.324C74.1191 113.484 74.801 112.802 75.641 112.802C76.481 112.802 77.1628 113.484 77.1628 114.324V138.44C77.1683 139.28 76.4864 139.962 75.641 139.962Z" fill="#663366"/>
<path d="M124.55 139.962H102.528C101.688 139.962 101.006 139.28 101.006 138.44V57.4901C101.006 56.6501 101.688 55.9683 102.528 55.9683H124.55C125.39 55.9683 126.071 56.6501 126.071 57.4901V138.435C126.071 139.28 125.39 139.962 124.55 139.962ZM104.05 136.918H123.022V59.018H104.05V136.918Z" fill="#663366"/>
<path d="M41.6732 76.8431H32.8636C32.0236 76.8431 31.3418 76.1612 31.3418 75.3212V66.5117C31.3418 65.6716 32.0237 64.9898 32.8636 64.9898H41.6732C42.5133 64.9898 43.1951 65.6717 43.1951 66.5117V75.3212C43.1951 76.1558 42.5132 76.8431 41.6732 76.8431ZM34.3855 73.7938H40.1458V68.0335H34.3855V73.7938Z" fill="#663366"/>
<path d="M41.6732 90.2628H32.8636C32.0236 90.2628 31.3418 89.581 31.3418 88.741V79.9314C31.3418 79.0913 32.0237 78.4095 32.8636 78.4095H41.6732C42.5133 78.4095 43.1951 79.0914 43.1951 79.9314V88.741C43.1951 89.581 42.5132 90.2628 41.6732 90.2628ZM34.3855 87.2135H40.1458V81.4532H34.3855V87.2135Z" fill="#663366"/>
<path d="M41.6732 103.681H32.8636C32.0236 103.681 31.3418 102.999 31.3418 102.159V93.3498C31.3418 92.5097 32.0237 91.8279 32.8636 91.8279H41.6732C42.5133 91.8279 43.1951 92.5098 43.1951 93.3498V102.159C43.1951 102.999 42.5132 103.681 41.6732 103.681ZM34.3855 100.637H40.1458V94.8771H34.3855V100.637Z" fill="#663366"/>
<path d="M41.6732 117.105H32.8636C32.0236 117.105 31.3418 116.423 31.3418 115.583V106.774C31.3418 105.934 32.0237 105.252 32.8636 105.252H41.6732C42.5133 105.252 43.1951 105.934 43.1951 106.774V115.583C43.1951 116.423 42.5132 117.105 41.6732 117.105ZM34.3855 114.056H40.1458V108.296H34.3855V114.056Z" fill="#663366"/>
<path d="M117.796 76.8431H108.987C108.147 76.8431 107.465 76.1612 107.465 75.3212V66.5117C107.465 65.6716 108.147 64.9898 108.987 64.9898H117.796C118.636 64.9898 119.318 65.6717 119.318 66.5117V75.3212C119.318 76.1558 118.636 76.8431 117.796 76.8431ZM110.509 73.7938H116.269V68.0335H110.509V73.7938Z" fill="#663366"/>
<path d="M117.796 90.2628H108.987C108.147 90.2628 107.465 89.581 107.465 88.741V79.9314C107.465 79.0913 108.147 78.4095 108.987 78.4095H117.796C118.636 78.4095 119.318 79.0914 119.318 79.9314V88.741C119.318 89.581 118.636 90.2628 117.796 90.2628ZM110.509 87.2135H116.269V81.4532H110.509V87.2135Z" fill="#663366"/>
<path d="M117.796 103.681H108.987C108.147 103.681 107.465 102.999 107.465 102.159V93.3498C107.465 92.5097 108.147 91.8279 108.987 91.8279H117.796C118.636 91.8279 119.318 92.5098 119.318 93.3498V102.159C119.318 102.999 118.636 103.681 117.796 103.681ZM110.509 100.637H116.269V94.8771H110.509V100.637Z" fill="#663366"/>
<path d="M117.796 117.105H108.987C108.147 117.105 107.465 116.423 107.465 115.583V106.774C107.465 105.934 108.147 105.252 108.987 105.252H117.796C118.636 105.252 119.318 105.934 119.318 106.774V115.583C119.318 116.423 118.636 117.105 117.796 117.105ZM110.509 114.056H116.269V108.296H110.509V114.056Z" fill="#663366"/>
<path d="M49.01 139.962H25.5218C24.6818 139.962 24 139.28 24 138.44V57.4901C24 56.6501 24.6819 55.9683 25.5218 55.9683H49.01C49.85 55.9683 50.5318 56.6501 50.5318 57.4901V138.435C50.5318 139.28 49.85 139.962 49.01 139.962ZM27.0481 136.918H47.4879V59.018H27.0481V136.918Z" fill="#663366"/>
<path d="M93.4564 57.4409H57.8304C56.9904 57.4409 56.3086 56.759 56.3086 55.9191V48.9695C56.3086 48.1295 56.9905 47.4477 57.8304 47.4477H93.4564C94.2965 47.4477 94.9783 48.1295 94.9783 48.9695V55.9191C94.9783 56.7591 94.2964 57.4409 93.4564 57.4409ZM59.3526 54.3971H91.9287V50.4968H59.3526V54.3971Z" fill="#663366"/>
<path d="M83.0341 35.7905C82.7941 35.7905 82.5486 35.7305 82.3249 35.6159L75.6427 32.1031L68.9604 35.6159C68.4477 35.8832 67.8258 35.8396 67.3568 35.5014C66.8876 35.1632 66.6531 34.585 66.7513 34.0122L68.0277 26.5719L62.622 21.3025C62.2074 20.8989 62.0547 20.2934 62.2347 19.7424C62.4147 19.1915 62.8892 18.7878 63.462 18.706L70.9298 17.6205L74.2681 10.851C74.5245 10.3328 75.0536 10 75.6318 10C76.21 10 76.7391 10.3273 76.9955 10.851L80.3338 17.6205L87.8016 18.706C88.3743 18.7878 88.8544 19.1915 89.0289 19.7424C89.2089 20.2934 89.0562 20.8988 88.6416 21.3025L83.2359 26.5719L84.5123 34.0122C84.6105 34.585 84.3759 35.1632 83.9068 35.5014C83.6668 35.6923 83.3504 35.7905 83.0341 35.7905ZM75.6427 28.8574C75.8882 28.8574 76.1282 28.9175 76.3518 29.032L81.0102 31.4812L80.1211 26.2937C80.0392 25.7973 80.2029 25.2955 80.5575 24.9464L84.3267 21.2753L79.1173 20.5171C78.6209 20.4461 78.19 20.1352 77.9718 19.6825L75.6425 14.964L73.3133 19.6825C73.0896 20.1298 72.6642 20.4461 72.1678 20.5171L66.9583 21.2753L70.7276 24.9464C71.0876 25.2955 71.2513 25.8028 71.164 26.2937L70.2749 31.4812L74.9332 29.032C75.1569 28.9175 75.4027 28.8574 75.6427 28.8574Z" fill="#663366"/>
<path d="M56.8928 37.8418C56.6528 37.8418 56.4074 37.7818 56.1837 37.6673L51.5798 35.2507L46.9759 37.6727C46.4631 37.94 45.8413 37.8964 45.3722 37.5582C44.9031 37.22 44.6685 36.6418 44.7667 36.069L45.6449 30.9469L41.9247 27.3193C41.5101 26.9157 41.3574 26.3102 41.5374 25.7592C41.7174 25.2083 42.192 24.8046 42.7647 24.7228L47.9087 23.9755L50.2106 19.3117C50.4669 18.7935 50.9961 18.4607 51.5743 18.4607C52.1525 18.4607 52.6816 18.788 52.938 19.3117L55.2399 23.9755L60.3838 24.7228C60.9566 24.8046 61.4366 25.2083 61.6111 25.7592C61.7912 26.3102 61.6384 26.9157 61.2239 27.3193L57.5036 30.9469L58.3818 36.069C58.48 36.6418 58.2455 37.22 57.7764 37.5582C57.5254 37.7436 57.2092 37.8418 56.8928 37.8418ZM46.2668 27.2813L48.3505 29.3159C48.7105 29.665 48.8742 30.1723 48.7869 30.6632L48.296 33.5325L50.8762 32.1742C51.318 31.9397 51.8526 31.9397 52.2944 32.1742L54.8746 33.5325L54.3837 30.6632C54.2964 30.1668 54.4655 29.665 54.8201 29.3159L56.9038 27.2813L54.0182 26.8612C53.5218 26.7903 53.0909 26.4794 52.8727 26.0266L51.5854 23.4138L50.298 26.0266C50.0744 26.4739 49.6489 26.7903 49.1525 26.8612L46.2668 27.2813Z" fill="#663366"/>
<path d="M105.016 37.8419C104.776 37.8419 104.53 37.7818 104.307 37.6673L99.7028 35.2453L95.0989 37.6673C94.5862 37.94 93.9643 37.8909 93.4952 37.5527C93.0261 37.2145 92.7916 36.6363 92.8898 36.0636L93.768 30.9414L90.0477 27.3139C89.6332 26.9102 89.4804 26.3048 89.6604 25.7538C89.8405 25.2028 90.315 24.7992 90.8878 24.7174L96.0317 23.9701L98.3336 19.3062C98.59 18.788 99.1191 18.4553 99.6973 18.4553C100.276 18.4553 100.805 18.7826 101.061 19.3062L103.363 23.9701L108.507 24.7174C109.08 24.7992 109.56 25.2029 109.734 25.7538C109.914 26.3047 109.761 26.9102 109.347 27.3139L105.627 30.9414L106.505 36.0636C106.603 36.6363 106.369 37.2146 105.899 37.5527C105.643 37.7437 105.332 37.8419 105.016 37.8419ZM99.7028 32.0051C99.9483 32.0051 100.188 32.0651 100.412 32.1797L102.992 33.538L102.501 30.6687C102.419 30.1723 102.583 29.6705 102.938 29.3214L105.021 27.2867L102.136 26.8667C101.639 26.7958 101.208 26.4849 100.99 26.0321L99.7029 23.4192L98.4156 26.0321C98.1919 26.4794 97.7665 26.7958 97.2701 26.8667L94.3845 27.2867L96.4682 29.3214C96.8283 29.6705 96.9919 30.1778 96.9046 30.6687L96.4137 33.538L98.9939 32.1797C99.2176 32.0651 99.4574 32.0051 99.7028 32.0051Z" fill="#663366"/>
</svg>
