<svg width="150" height="150" viewBox="0 0 150 150" fill="none" xmlns="http://www.w3.org/2000/svg">
<path d="M133.782 34.875L134.108 34.8838C137.458 35.0552 140.125 37.8543 140.125 41.2744V100.599C140.125 102.868 138.295 104.717 136.043 104.717H128.679C127.787 111.153 122.313 116.125 115.695 116.125C109.078 116.125 103.604 111.153 102.713 104.717H49.5479C48.6563 111.153 43.1829 116.125 36.5654 116.125C29.9478 116.125 24.4736 111.153 23.582 104.717H13.832V104.712C11.6377 104.645 9.875 102.824 9.875 100.597V80.0625C9.875 79.68 9.87652 79.303 9.87793 78.9287C9.87933 78.5565 9.88084 78.1866 9.88086 77.8154L9.875 77.7812L9.88184 77.7451C9.93864 61.3448 10.7975 50.2115 20.1016 37.4307L20.3281 37.1377C21.5052 35.7132 23.2958 34.875 25.1816 34.875H133.782ZM36.5654 93.3086C31.334 93.3086 27.0811 97.604 27.0811 102.881C27.0813 108.158 31.334 112.452 36.5654 112.452C41.7966 112.452 46.0486 108.157 46.0488 102.881C46.0488 97.6041 41.7968 93.3087 36.5654 93.3086ZM115.694 93.3086C110.463 93.3087 106.211 97.6041 106.211 102.881C106.211 108.157 110.463 112.452 115.694 112.452C120.926 112.452 125.177 108.158 125.178 102.881C125.178 97.604 120.926 93.3086 115.694 93.3086ZM36.5645 98.1904C39.1329 98.1904 41.2109 100.29 41.2109 102.879C41.2109 105.468 39.1328 107.567 36.5645 107.567C33.9961 107.567 31.918 105.468 31.918 102.879C31.918 100.29 33.9961 98.1905 36.5645 98.1904ZM115.695 98.1904C118.264 98.1904 120.342 100.29 120.342 102.879C120.342 105.468 118.264 107.567 115.695 107.567C113.127 107.567 111.049 105.468 111.049 102.879C111.049 100.29 113.127 98.1905 115.695 98.1904ZM25.1816 38.5469C24.3416 38.5469 23.557 38.9276 23.0752 39.5605L23.041 39.6074C21.9546 41.0967 20.9984 42.5549 20.1465 44.001H129.262C130.27 44.001 131.083 44.8223 131.083 45.8369V68.6543C131.083 69.6692 130.27 70.4902 129.262 70.4902H49.6914V70.9355C49.6914 75.7208 45.8332 79.617 41.0889 79.6172H13.5176V85.0713H20.7402C21.7486 85.0713 22.5605 85.8933 22.5605 86.9082C22.5603 87.9229 21.7485 88.7441 20.7402 88.7441H13.5176V100.598C13.5176 100.838 13.7229 101.043 13.958 101.043H23.583C24.4746 94.6071 29.9488 89.6348 36.5664 89.6348C43.1839 89.6348 48.6571 94.6072 49.5488 101.043H59.6152V89.1895C59.6153 88.1747 60.4273 87.3536 61.4355 87.3535H90.8262C91.8345 87.3535 92.6464 88.1746 92.6465 89.1895V101.043H102.713C103.605 94.6072 109.078 89.635 115.695 89.6348C122.313 89.6348 127.787 94.6071 128.679 101.043H136.043C136.278 101.043 136.483 100.838 136.483 100.598V41.2744C136.483 39.768 135.272 38.5469 133.782 38.5469H25.1816ZM63.2549 101.044H89.0049V91.0264H63.2549V101.044ZM18.2188 47.6738C14.2685 56.0684 13.6224 64.4759 13.5342 75.9453H41.0869C43.82 75.9452 46.0486 73.6976 46.0488 70.9365V48.1191C46.0488 47.9621 46.0778 47.8138 46.1172 47.6738H18.2188ZM103.951 66.8174H127.439V47.6738H103.951V66.8174ZM76.8203 66.8174H100.31V47.6738H76.8203V66.8174ZM49.6221 47.6729C49.6614 47.8128 49.6904 47.9612 49.6904 48.1182V66.8174H73.1787V47.6729H49.6221Z" fill="#663366" stroke="#663366" stroke-width="0.25"/>
</svg>
