<svg width="150" height="150" viewBox="0 0 150 150" fill="none" xmlns="http://www.w3.org/2000/svg">
<path d="M108.961 70.4043C126.148 70.4045 140.124 84.3867 140.124 101.568C140.124 118.756 126.142 132.737 108.961 132.737C91.7734 132.737 77.797 118.756 77.7969 101.568C77.7969 84.3807 91.7792 70.4043 108.961 70.4043ZM108.961 73.4902C93.4767 73.4902 80.8828 86.0897 80.8828 101.568C80.883 117.052 93.4765 129.646 108.961 129.646C124.445 129.645 137.038 117.053 137.038 101.568C137.038 86.084 124.445 73.4904 108.961 73.4902Z" fill="#663366" stroke="#663366" stroke-width="0.25"/>
<path d="M108.962 70.3984C109.813 70.3985 110.508 71.093 110.508 71.9443V77.3916C110.508 78.2425 109.819 78.9374 108.962 78.9375C108.111 78.9375 107.416 78.249 107.416 77.3916V71.9443L107.424 71.7871C107.502 71.0093 108.158 70.3984 108.962 70.3984Z" fill="#663366" stroke="#663366" stroke-width="0.25"/>
<path d="M122.52 75.0103C122.977 74.3756 123.851 74.181 124.543 74.5796L124.676 74.6655C125.268 75.0925 125.478 75.8823 125.179 76.5483L125.106 76.689L122.386 81.4058C122.098 81.9001 121.578 82.1762 121.047 82.1763C120.783 82.1763 120.52 82.107 120.277 81.9702L120.276 81.9692C119.537 81.5433 119.288 80.5979 119.713 79.8599L122.434 75.1431L122.52 75.0103Z" fill="#663366" stroke="#663366" stroke-width="0.25"/>
<path d="M133.981 85.3511C134.695 85.0305 135.551 85.293 135.95 85.9858C136.349 86.6777 136.154 87.5518 135.52 88.0093L135.387 88.0952L130.67 90.8159L130.669 90.8169C130.427 90.9536 130.164 91.0229 129.9 91.0229C129.435 91.0229 128.979 90.812 128.68 90.4282L128.561 90.2534V90.2524C128.135 89.5144 128.385 88.5689 129.124 88.1431L133.841 85.4224L133.981 85.3511Z" fill="#663366" stroke="#663366" stroke-width="0.25"/>
<path d="M138.579 100.022C139.43 100.022 140.125 100.717 140.125 101.568C140.125 102.419 139.436 103.114 138.579 103.114H133.132C132.281 103.114 131.586 102.426 131.586 101.568C131.586 100.717 132.274 100.022 133.132 100.022H138.579Z" fill="#663366" stroke="#663366" stroke-width="0.25"/>
<path d="M128.646 112.755C129.104 112.121 129.978 111.926 130.67 112.325L135.387 115.045L135.52 115.131C136.154 115.589 136.349 116.463 135.95 117.155V117.156C135.662 117.65 135.143 117.925 134.611 117.925C134.348 117.925 134.084 117.856 133.842 117.719L133.841 117.718L129.124 114.998C128.385 114.572 128.135 113.626 128.561 112.888L128.646 112.755Z" fill="#663366" stroke="#663366" stroke-width="0.25"/>
<path d="M120.417 121.102C121.131 120.782 121.986 121.044 122.386 121.737L125.106 126.454L125.179 126.594C125.499 127.308 125.236 128.164 124.543 128.563L124.542 128.564C124.3 128.701 124.037 128.77 123.773 128.77C123.242 128.77 122.722 128.494 122.435 128H122.434L119.713 123.283C119.288 122.545 119.537 121.599 120.276 121.173L120.417 121.102Z" fill="#663366" stroke="#663366" stroke-width="0.25"/>
<path d="M108.962 124.193C109.813 124.193 110.508 124.888 110.508 125.739V131.187C110.508 132.044 109.819 132.732 108.962 132.732C108.111 132.732 107.416 132.044 107.416 131.187V125.739C107.416 124.888 108.105 124.193 108.962 124.193Z" fill="#663366" stroke="#663366" stroke-width="0.25"/>
<path d="M95.623 121.604C96.0805 120.969 96.9546 120.775 97.6465 121.173L97.7793 121.259C98.3719 121.686 98.5812 122.476 98.2822 123.142L98.21 123.283L95.4893 128C95.2014 128.494 94.6819 128.77 94.1504 128.77C93.8866 128.77 93.6234 128.701 93.3809 128.564L93.3799 128.563C92.641 128.137 92.3911 127.192 92.8164 126.454L95.5371 121.737L95.623 121.604Z" fill="#663366" stroke="#663366" stroke-width="0.25"/>
<path d="M87.3877 112.253C88.1013 111.933 88.9571 112.195 89.3564 112.888L89.4287 113.029C89.7277 113.695 89.5182 114.485 88.9258 114.912L88.793 114.998L84.0762 117.718L84.0752 117.719C83.8328 117.856 83.5702 117.925 83.3066 117.925C82.8416 117.925 82.3855 117.714 82.0859 117.331L81.9668 117.156V117.155C81.5416 116.417 81.7913 115.471 82.5303 115.045L87.2471 112.325L87.3877 112.253Z" fill="#663366" stroke="#663366" stroke-width="0.25"/>
<path d="M84.7842 100.022L84.9414 100.03C85.7194 100.11 86.3301 100.77 86.3301 101.568C86.33 102.42 85.6355 103.114 84.7842 103.114H79.3369C78.4859 103.114 77.7911 102.426 77.791 101.568C77.791 100.717 78.4795 100.022 79.3369 100.022H84.7842Z" fill="#663366" stroke="#663366" stroke-width="0.25"/>
<path d="M81.9727 85.9858C82.3986 85.2469 83.344 84.9971 84.082 85.4224L88.7988 88.1431L88.9316 88.229C89.5665 88.6864 89.761 89.5605 89.3623 90.2524V90.2534C89.0744 90.7476 88.5548 91.0228 88.0234 91.0229C87.7597 91.0229 87.4964 90.9537 87.2539 90.8169L87.2529 90.8159L82.5361 88.0952C81.7973 87.6693 81.5473 86.7239 81.9727 85.9858Z" fill="#663366" stroke="#663366" stroke-width="0.25"/>
<path d="M93.5146 74.5083C94.2282 74.1877 95.084 74.4502 95.4834 75.1431L98.2041 79.8599L98.2764 80.0005C98.5968 80.7141 98.3335 81.57 97.6406 81.9692L97.6396 81.9702C97.3973 82.1069 97.1347 82.1762 96.8711 82.1763C96.3395 82.1763 95.8201 81.9002 95.5322 81.4058H95.5312L92.8105 76.689C92.3853 75.9509 92.6351 75.0055 93.374 74.5796L93.5146 74.5083Z" fill="#663366" stroke="#663366" stroke-width="0.25"/>
<path d="M108.961 96.2959C111.866 96.296 114.234 98.6587 114.234 101.569C114.234 104.474 111.872 106.843 108.961 106.843C106.056 106.843 103.688 104.48 103.688 101.569C103.688 98.6645 106.05 96.2959 108.961 96.2959ZM108.961 99.3877C107.759 99.3877 106.779 100.367 106.779 101.569C106.779 102.771 107.759 103.751 108.961 103.751C110.163 103.751 111.142 102.771 111.143 101.569C111.143 100.367 110.163 99.3878 108.961 99.3877Z" fill="#663366" stroke="#663366" stroke-width="0.25"/>
<path d="M108.962 81.1724C109.813 81.1724 110.508 81.8609 110.508 82.7183V97.8413C110.508 98.6923 109.819 99.3871 108.962 99.3872C108.111 99.3872 107.416 98.6987 107.416 97.8413V82.7183L107.424 82.561C107.502 81.7833 108.158 81.1724 108.962 81.1724Z" fill="#663366" stroke="#663366" stroke-width="0.25"/>
<path d="M105.093 102.027C105.806 101.707 106.662 101.969 107.062 102.662L107.134 102.803C107.433 103.469 107.223 104.259 106.631 104.686L106.498 104.771L98.0078 109.673H98.0068C97.7645 109.81 97.5019 109.879 97.2383 109.879C96.7732 109.879 96.3172 109.668 96.0176 109.284L95.8984 109.109V109.108C95.4735 108.37 95.7233 107.426 96.4619 107L104.952 102.099L105.093 102.027Z" fill="#663366" stroke="#663366" stroke-width="0.25"/>
<path d="M22.9658 27.7007L23.123 27.7085C23.9006 27.7872 24.5117 28.4427 24.5117 29.2466C24.5116 30.0974 23.823 30.7923 22.9658 30.7925H15.8672C14.2624 30.7925 12.9609 32.0939 12.9609 33.6987V115.432C12.9611 117.037 14.2625 118.338 15.8672 118.338H85.6641C86.515 118.338 87.21 119.027 87.21 119.884C87.2099 120.735 86.5214 121.43 85.6641 121.43H85.5391V121.418H15.8672C12.5597 121.418 9.87504 118.728 9.875 115.426V33.6929C9.875 30.3853 12.5656 27.7007 15.8672 27.7007H22.9658ZM116.635 27.6958C119.942 27.696 122.627 30.3864 122.627 33.688V74.5337C122.627 75.2912 122.076 75.9229 121.355 76.0532L121.388 76.0854H121.087C120.236 76.0854 119.541 75.397 119.541 74.5396V33.6938C119.541 32.0891 118.239 30.7878 116.635 30.7876H109.536C108.685 30.7876 107.99 30.099 107.99 29.2417C107.99 28.3904 108.685 27.6958 109.536 27.6958H116.635ZM42.6611 27.6948C43.5119 27.6951 44.2061 28.3835 44.2061 29.2407C44.206 30.0915 43.5183 30.7864 42.6611 30.7866H30.7764C29.9255 30.7865 29.2305 30.098 29.2305 29.2407C29.2305 28.3898 29.9191 27.6949 30.7764 27.6948H42.6611ZM62.3506 27.6948C63.2015 27.695 63.8965 28.3834 63.8965 29.2407C63.8964 30.0916 63.2078 30.7865 62.3506 30.7866H50.4658C49.6151 30.7864 48.921 30.0979 48.9209 29.2407C48.9209 28.3899 49.6086 27.6951 50.4658 27.6948H62.3506ZM82.04 27.6948C82.891 27.6948 83.5859 28.3833 83.5859 29.2407C83.5859 30.0917 82.8974 30.7866 82.04 30.7866H70.1562C69.3053 30.7866 68.6104 30.0981 68.6104 29.2407C68.6104 28.3897 69.2988 27.6948 70.1562 27.6948H82.04ZM101.729 27.6948C102.581 27.6948 103.275 28.3833 103.275 29.2407C103.275 30.0917 102.587 30.7866 101.729 30.7866H89.8457C88.9947 30.7866 88.2999 30.0981 88.2998 29.2407C88.2998 28.3897 88.9883 27.6948 89.8457 27.6948H101.729Z" fill="#663366" stroke="#663366" stroke-width="0.25"/>
<path d="M121.093 46.2329C121.944 46.2329 122.639 46.9275 122.639 47.7788C122.639 48.6301 121.944 49.3247 121.093 49.3247H11.4209C10.5699 49.3247 9.87506 48.6362 9.875 47.7788C9.875 46.9278 10.5635 46.2329 11.4209 46.2329H121.093Z" fill="#663366" stroke="#663366" stroke-width="0.25"/>
<path d="M26.8721 17.875C29.8745 17.8753 32.3174 20.3188 32.3174 23.3213V34.1006C32.3173 37.1031 29.8745 39.5456 26.8721 39.5459C23.8694 39.5459 21.4259 37.1032 21.4258 34.1006V23.3213C21.4258 20.3186 23.8694 17.875 26.8721 17.875ZM26.8721 20.9609C25.5721 20.9609 24.5117 22.0213 24.5117 23.3213V34.1006C24.5117 35.4006 25.5721 36.4609 26.8721 36.4609C28.1719 36.4607 29.2314 35.4004 29.2314 34.1006V23.3213C29.2314 22.0214 28.1719 20.9612 26.8721 20.9609Z" fill="#663366" stroke="#663366" stroke-width="0.25"/>
<path d="M46.5615 17.875C49.564 17.8753 52.0068 20.3188 52.0068 23.3213V34.1006C52.0068 37.1031 49.564 39.5456 46.5615 39.5459C43.5589 39.5459 41.1153 37.1032 41.1152 34.1006V23.3213C41.1152 20.3186 43.5588 17.875 46.5615 17.875ZM46.5615 20.9609C45.2615 20.9609 44.2012 22.0213 44.2012 23.3213V34.1006C44.2012 35.4006 45.2615 36.4609 46.5615 36.4609C47.8613 36.4607 48.9209 35.4004 48.9209 34.1006V23.3213C48.9209 22.0214 47.8613 20.9612 46.5615 20.9609Z" fill="#663366" stroke="#663366" stroke-width="0.25"/>
<path d="M66.2568 17.875C69.2593 17.8753 71.7021 20.3188 71.7021 23.3213V34.1006C71.7021 37.1031 69.2593 39.5456 66.2568 39.5459C63.2542 39.5459 60.8106 37.1032 60.8105 34.1006V23.3213C60.8105 20.3186 63.2542 17.875 66.2568 17.875ZM66.2568 20.9609C64.9568 20.9609 63.8965 22.0213 63.8965 23.3213V34.1006C63.8965 35.4006 64.9568 36.4609 66.2568 36.4609C67.5566 36.4607 68.6162 35.4004 68.6162 34.1006V23.3213C68.6162 22.0214 67.5566 20.9612 66.2568 20.9609Z" fill="#663366" stroke="#663366" stroke-width="0.25"/>
<path d="M85.9463 17.875C88.9488 17.8753 91.3916 20.3188 91.3916 23.3213V34.1006C91.3915 37.1031 88.9487 39.5456 85.9463 39.5459C82.9436 39.5459 80.5001 37.1032 80.5 34.1006V23.3213C80.5 20.3186 82.9436 17.875 85.9463 17.875ZM85.9463 20.9609C84.6463 20.9609 83.5859 22.0213 83.5859 23.3213V34.1006C83.5859 35.4006 84.6463 36.4609 85.9463 36.4609C87.2461 36.4607 88.3057 35.4004 88.3057 34.1006V23.3213C88.3057 22.0214 87.2461 20.9612 85.9463 20.9609Z" fill="#663366" stroke="#663366" stroke-width="0.25"/>
<path d="M105.638 17.875C108.64 17.8753 111.083 20.3188 111.083 23.3213V34.1006C111.083 37.1031 108.64 39.5456 105.638 39.5459C102.635 39.5459 100.191 37.1032 100.191 34.1006V23.3213C100.191 20.3186 102.635 17.875 105.638 17.875ZM105.638 20.9609C104.338 20.9609 103.277 22.0213 103.277 23.3213V34.1006C103.277 35.4006 104.338 36.4609 105.638 36.4609C106.937 36.4607 107.997 35.4004 107.997 34.1006V23.3213C107.997 22.0215 106.937 20.9612 105.638 20.9609Z" fill="#663366" stroke="#663366" stroke-width="0.25"/>
<path d="M107.608 56.1733C110.415 56.1733 112.704 58.4552 112.704 61.2681V72.0366C112.704 72.8874 112.015 73.5823 111.158 73.5825C110.307 73.5825 109.612 72.8939 109.612 72.0366V61.2681C109.612 60.1637 108.713 59.2651 107.608 59.2651H24.9033C23.7991 59.2653 22.9005 60.1638 22.9004 61.2681V106.4C22.9006 107.504 23.7992 108.403 24.9033 108.403H80.5391C81.3902 108.403 82.084 109.098 82.084 109.949C82.0839 110.8 81.3962 111.494 80.5391 111.495H80.4141V111.483H24.9033C22.0966 111.483 19.8088 109.201 19.8086 106.394V61.2622C19.8088 58.4552 22.0907 56.1734 24.9033 56.1733H107.608Z" fill="#663366" stroke="#663366" stroke-width="0.25"/>
<path d="M64.3174 64.9395C65.1683 64.9395 65.8633 65.628 65.8633 66.4854V70.8105C65.8633 71.6618 65.1687 72.3564 64.3174 72.3564C63.4664 72.3564 62.7715 71.668 62.7715 70.8105V66.4854C62.7715 65.634 63.466 64.9395 64.3174 64.9395Z" fill="#663366" stroke="#663366" stroke-width="0.25"/>
<path d="M64.3252 69.2651C68.7657 69.2653 72.376 72.8764 72.376 77.3169C72.3759 78.1678 71.6874 78.8628 70.8301 78.8628C69.9794 78.8625 69.2853 78.174 69.2852 77.3169C69.2852 74.5792 67.0574 72.3571 64.3193 72.3569C61.5813 72.3569 59.3535 74.5848 59.3535 77.3169C59.3536 80.0548 61.5814 82.2827 64.3193 82.2827C68.7599 82.2828 72.3709 85.8931 72.3711 90.3335C72.3711 94.7741 68.7599 98.3851 64.3193 98.3853C59.8785 98.3853 56.2676 94.7741 56.2676 90.3335C56.2678 89.4827 56.9562 88.7876 57.8135 88.7876C58.6643 88.7877 59.3592 89.4763 59.3594 90.3335C59.3594 93.0713 61.587 95.2935 64.3252 95.2935C67.0631 95.2933 69.29 93.0655 69.29 90.3335C69.2898 87.5958 67.0629 85.3689 64.3252 85.3687C59.8845 85.3687 56.2736 81.7574 56.2734 77.3169C56.2734 72.8762 59.8846 69.2651 64.3252 69.2651Z" fill="#663366" stroke="#663366" stroke-width="0.25"/>
<path d="M64.3174 95.2876C65.1683 95.2877 65.8633 95.9761 65.8633 96.8335V101.165C65.8633 102.016 65.1687 102.71 64.3174 102.71C63.4664 102.71 62.7715 102.022 62.7715 101.165V96.8335C62.7715 95.9822 63.466 95.2876 64.3174 95.2876Z" fill="#663366" stroke="#663366" stroke-width="0.25"/>
<path d="M37.5293 65.3818C38.3803 65.3818 39.0752 66.0703 39.0752 66.9277C39.0751 67.7787 38.3867 68.4736 37.5293 68.4736H31.4092C30.5582 68.4736 29.8633 67.7851 29.8633 66.9277C29.8633 66.0767 30.5518 65.3818 31.4092 65.3818H37.5293Z" fill="#663366" stroke="#663366" stroke-width="0.25"/>
<path d="M50.4844 65.3818C51.3354 65.3818 52.0303 66.0703 52.0303 66.9277C52.0302 67.7787 51.3417 68.4736 50.4844 68.4736H44.3643C43.5133 68.4736 42.8184 67.7851 42.8184 66.9277C42.8184 66.0767 43.5068 65.3818 44.3643 65.3818H50.4844Z" fill="#663366" stroke="#663366" stroke-width="0.25"/>
<path d="M37.5293 76.6455C38.3803 76.6455 39.0752 77.334 39.0752 78.1914C39.0751 79.0424 38.3867 79.7373 37.5293 79.7373H31.4092C30.5582 79.7373 29.8633 79.0488 29.8633 78.1914C29.8633 77.3404 30.5518 76.6455 31.4092 76.6455H37.5293Z" fill="#663366" stroke="#663366" stroke-width="0.25"/>
<path d="M50.4844 76.6455C51.3354 76.6455 52.0303 77.334 52.0303 78.1914C52.0302 79.0424 51.3417 79.7373 50.4844 79.7373H44.3643C43.5133 79.7373 42.8184 79.0488 42.8184 78.1914C42.8184 77.3404 43.5068 76.6455 44.3643 76.6455H50.4844Z" fill="#663366" stroke="#663366" stroke-width="0.25"/>
<path d="M37.5293 87.9082C38.3806 87.9082 39.0752 88.6028 39.0752 89.4541C39.0751 90.3051 38.3867 91 37.5293 91H31.4092C30.5579 91 29.8633 90.3054 29.8633 89.4541C29.8633 88.6031 30.5518 87.9082 31.4092 87.9082H37.5293Z" fill="#663366" stroke="#663366" stroke-width="0.25"/>
<path d="M50.4844 87.9082C51.3357 87.9082 52.0303 88.6028 52.0303 89.4541C52.0302 90.3051 51.3417 91 50.4844 91H44.3643C43.513 91 42.8184 90.3054 42.8184 89.4541C42.8184 88.6031 43.5068 87.9082 44.3643 87.9082H50.4844Z" fill="#663366" stroke="#663366" stroke-width="0.25"/>
<path d="M37.5293 99.1777C38.3803 99.1777 39.0752 99.8662 39.0752 100.724C39.0751 101.575 38.3867 102.27 37.5293 102.27H31.4092C30.5582 102.27 29.8633 101.581 29.8633 100.724C29.8633 99.8726 30.5518 99.1777 31.4092 99.1777H37.5293Z" fill="#663366" stroke="#663366" stroke-width="0.25"/>
<path d="M50.4844 99.1777C51.3354 99.1777 52.0303 99.8662 52.0303 100.724C52.0302 101.575 51.3417 102.27 50.4844 102.27H44.3643C43.5133 102.27 42.8184 101.581 42.8184 100.724C42.8184 99.8726 43.5068 99.1777 44.3643 99.1777H50.4844Z" fill="#663366" stroke="#663366" stroke-width="0.25"/>
<path d="M87.0859 65.3818C87.9369 65.3818 88.6318 66.0703 88.6318 66.9277C88.6318 67.7787 87.9433 68.4736 87.0859 68.4736H80.9658C80.1148 68.4736 79.42 67.7851 79.4199 66.9277C79.4199 66.0767 80.1084 65.3818 80.9658 65.3818H87.0859Z" fill="#663366" stroke="#663366" stroke-width="0.25"/>
<path d="M100.033 65.3818C100.884 65.3818 101.579 66.0703 101.579 66.9277C101.579 67.7787 100.891 68.4736 100.033 68.4736H93.9131C93.0621 68.4736 92.3672 67.7851 92.3672 66.9277C92.3672 66.0767 93.0557 65.3818 93.9131 65.3818H100.033Z" fill="#663366" stroke="#663366" stroke-width="0.25"/>
</svg>
