<svg width="150" height="150" viewBox="0 0 150 150" fill="none" xmlns="http://www.w3.org/2000/svg">
<path d="M132.211 49.875C134.137 49.875 135.971 51.4138 136.305 53.3076L139.629 72.0762L139.73 72.7041C139.958 74.2591 140.125 76.3845 140.125 77.7676L140.114 92.0713L140.11 92.2568C140.014 94.1674 138.433 95.6875 136.498 95.6875H111.466C109.854 98.1535 107.074 99.7928 103.917 99.793C100.755 99.793 97.9731 98.154 96.3613 95.6875H57C55.3883 98.1537 52.607 99.7929 49.4502 99.793C46.2883 99.793 43.5073 98.1537 41.8955 95.6875H30.8848C29.4908 95.6875 27.3623 95.4706 25.8125 95.1777L25.1875 95.0479L13.2393 92.333C11.3797 91.9083 9.8751 90.019 9.875 88.1162V53.4912C9.875 51.4942 11.4942 49.875 13.4912 49.875H132.211ZM49.46 83.3848C45.3868 83.385 42.0773 86.6995 42.0771 90.7676C42.0771 94.8409 45.3867 98.1512 49.46 98.1514C53.5282 98.1514 56.8389 94.8411 56.8389 90.7676C56.8387 86.6942 53.5281 83.3848 49.46 83.3848ZM103.928 83.3848C99.8544 83.3848 96.5441 86.6994 96.5439 90.7676C96.5439 94.8411 99.8543 98.1514 103.928 98.1514C107.996 98.1512 111.306 94.841 111.306 90.7676C111.306 86.6943 107.996 83.3849 103.928 83.3848ZM13.4961 51.5264C12.4084 51.5264 11.5264 52.4084 11.5264 53.4961V88.1211C11.5265 88.692 11.7634 89.28 12.1465 89.7598C12.5296 90.2396 13.0511 90.6015 13.6074 90.7295L25.5605 93.4492H25.5596C26.9836 93.7703 29.4292 94.0459 30.8945 94.0459H41.0498C40.6501 93.0303 40.4297 91.9275 40.4297 90.7676C40.4298 85.785 44.4826 81.7383 49.46 81.7383C54.4374 81.7383 58.4842 85.7903 58.4844 90.7676C58.4844 91.9229 58.265 93.0259 57.8652 94.0459H95.5117C95.112 93.0303 94.8916 91.9275 94.8916 90.7676C94.8918 85.785 98.9445 81.7383 103.922 81.7383C108.904 81.7384 112.952 85.7903 112.952 90.7676C112.952 91.923 112.732 93.0259 112.332 94.0459H136.51C137.597 94.0458 138.479 93.1637 138.479 92.0762V91.9482H138.484V77.7666C138.484 76.4553 138.321 74.4339 138.106 72.959L138.012 72.3643L134.688 53.5957C134.589 53.0406 134.259 52.5219 133.805 52.1416C133.351 51.7612 132.781 51.5264 132.216 51.5264H13.4961Z" fill="#663366" stroke="#663366" stroke-width="0.25"/>
<path d="M126.163 91.2577H130.279V62.2928H126.163V91.2577ZM120.399 91.2577H124.517V62.2928H120.399V91.2577ZM131.926 81.451C132.757 81.3927 133.302 81.152 133.655 80.8934C134.007 80.6359 134.173 80.3588 134.239 80.2225V73.9325L131.926 60.954V81.451ZM106.32 75.7782H118.753V66.5448H106.32V75.7782ZM79.042 75.7782H104.674V60.3856H79.042V75.7782ZM55.4336 75.7782H77.3955L77.4014 60.3856H55.4336V75.7782ZM28.5469 75.7782H53.7861V60.3856H28.5469V75.7782ZM15.0713 68.6825L26.8994 75.6923V55.0809H15.0713V68.6825ZM106.32 64.8983H118.753V55.0809H106.32V64.8983ZM120.404 60.6464H130.279V55.0809H120.404V60.6464ZM79.042 58.7391H104.674V55.076H79.042V58.7391ZM55.4336 58.7391H77.3955L77.4014 55.076H55.4336V58.7391ZM28.5469 58.7391H53.7861V55.076H28.5469V58.7391ZM135.871 74.0966C135.871 74.2803 135.87 74.5431 135.87 74.8583C135.87 75.489 135.869 76.3309 135.868 77.1747C135.867 78.0185 135.865 78.8654 135.862 79.5048C135.861 79.8242 135.858 80.0927 135.856 80.2831C135.855 80.3781 135.855 80.4541 135.854 80.5077C135.853 80.5344 135.852 80.5562 135.852 80.5721C135.851 80.58 135.851 80.5874 135.851 80.5936C135.85 80.5966 135.85 80.6004 135.85 80.6044C135.849 80.6055 135.848 80.6165 135.845 80.6288L135.844 80.6317C135.825 80.6887 135.623 81.281 135.021 81.8739C134.43 82.4543 133.461 83.027 131.921 83.1073V92.0819C131.921 92.5365 131.552 92.9052 131.098 92.9052H119.577C119.123 92.9052 118.754 92.5365 118.754 92.0819V77.4247H26.8164C26.6678 77.4247 26.5203 77.3812 26.3975 77.3075V77.3065L13.8301 69.8622C13.5787 69.7149 13.4248 69.4498 13.4248 69.1552V54.2577C13.4248 53.8031 13.7934 53.4344 14.248 53.4344H131.566C131.964 53.4347 132.309 53.7164 132.377 54.1112L135.869 73.786L135.871 73.7968V74.0966Z" fill="#663366" stroke="#663366" stroke-width="0.25"/>
<path d="M49.4619 86.1927C51.9797 86.1929 54.0361 88.2447 54.0361 90.7679C54.036 93.2908 51.9849 95.3419 49.4619 95.3421C46.9388 95.3421 44.8869 93.2909 44.8867 90.7679C44.8867 88.2447 46.9387 86.1927 49.4619 86.1927ZM49.4619 87.8441C47.8478 87.8441 46.5332 89.1588 46.5332 90.7728C46.5332 92.387 47.8429 93.7015 49.4619 93.7015C51.0707 93.7013 52.3896 92.3814 52.3896 90.7728C52.3896 89.1588 51.0757 87.8442 49.4619 87.8441Z" fill="#663366" stroke="#663366" stroke-width="0.25"/>
<path d="M103.929 86.1927C106.452 86.1929 108.503 88.2448 108.503 90.7679C108.503 93.2908 106.452 95.3419 103.929 95.3421C101.406 95.3421 99.3537 93.2909 99.3535 90.7679C99.3535 88.2447 101.406 86.1927 103.929 86.1927ZM103.929 87.8441C102.315 87.8441 101 89.1588 101 90.7728C101 92.387 102.31 93.7015 103.929 93.7015C105.543 93.7013 106.856 92.3816 106.856 90.7728C106.856 89.1588 105.543 87.8442 103.929 87.8441Z" fill="#663366" stroke="#663366" stroke-width="0.25"/>
</svg>
