<svg width="150" height="150" viewBox="0 0 150 150" fill="none" xmlns="http://www.w3.org/2000/svg">
<path fill-rule="evenodd" clip-rule="evenodd" d="M59.3013 82.828C58.7679 82.828 58.1583 82.4469 57.9297 81.8373L48.8617 59.8151L39.8699 81.8373C39.1079 83.7424 36.2122 82.5994 36.9742 80.6943C38.1173 78.0273 47.2615 55.3192 47.7949 54.7858C48.4807 54.0999 49.8523 54.1761 50.3095 55.243L60.7492 80.6943C61.1302 81.6849 60.3681 82.828 59.3013 82.828Z" fill="#663366"/>
<path fill-rule="evenodd" clip-rule="evenodd" d="M55.7198 74.0656H42.0035C40.0223 74.0656 40.0223 71.0176 42.0035 71.0176H55.7198C57.701 71.0176 57.701 74.0656 55.7198 74.0656Z" fill="#663366"/>
<path fill-rule="evenodd" clip-rule="evenodd" d="M115.005 58.9016H87.3439C85.2864 58.9016 85.2864 55.8535 87.3439 55.8535H115.005C116.986 55.8535 117.063 58.9016 115.005 58.9016Z" fill="#663366"/>
<path fill-rule="evenodd" clip-rule="evenodd" d="M114.321 84.8105C114.169 84.8105 114.016 84.7343 113.864 84.7343C88.6411 75.3615 88.7173 58.0637 88.7935 57.3779C88.7935 55.3205 91.8416 55.3967 91.8416 57.3779C91.8416 58.0637 91.8416 73.2279 114.931 81.8387C116.455 82.4483 115.998 84.8105 114.321 84.8105Z" fill="#663366"/>
<path fill-rule="evenodd" clip-rule="evenodd" d="M87.9547 84.8087C86.3545 84.8087 85.8211 82.4465 87.4213 81.8369C110.51 73.3023 110.51 58.062 110.51 57.3761C110.51 55.3949 113.558 55.3187 113.558 57.2999C113.635 58.062 113.711 75.2835 88.5643 84.6563C88.3357 84.7325 88.1833 84.8087 87.9547 84.8087Z" fill="#663366"/>
<path fill-rule="evenodd" clip-rule="evenodd" d="M101.136 58.9005C99.1548 58.9005 99.612 56.1573 99.612 53.8712C99.612 51.8138 102.66 51.8138 102.66 53.8712C102.66 56.1573 103.193 58.9005 101.136 58.9005Z" fill="#663366"/>
<path fill-rule="evenodd" clip-rule="evenodd" d="M75 126.948C72.4853 126.948 65.7034 115.137 56.6354 114.985H11.524C10.6858 114.985 10 114.299 10 113.461V25.524C10 24.6858 10.6858 24 11.524 24H57.7022C63.5698 24 69.6659 25.524 75 28.3435C80.3341 25.524 86.4302 24 92.2978 24H138.476C139.314 24 140 24.6858 140 25.524V113.461C140 114.299 139.314 114.985 138.476 114.985H93.4408C84.3728 115.137 77.5909 126.948 75 126.948ZM13.0481 111.937H56.6354C60.2931 111.937 65.4748 114.223 68.3705 116.966L75 123.291C80.2579 118.338 85.592 112.089 93.3646 111.937H136.952V27.0481H92.2978C86.6588 27.0481 80.7913 28.5721 75.762 31.3916C75.3048 31.6202 74.7714 31.6202 74.3142 31.3916C69.2849 28.5721 63.3411 27.0481 57.7022 27.0481H13.0481V111.937Z" fill="#663366"/>
<path fill-rule="evenodd" clip-rule="evenodd" d="M74.9995 111.479C74.6185 111.479 74.2375 111.403 74.0089 111.098C66.3887 103.859 56.8635 103.783 56.7873 103.783H22.7252C21.887 103.783 21.2012 103.097 21.2012 102.259V36.7252C21.2012 35.887 21.887 35.2012 22.7252 35.2012H57.7018C66.9222 35.7346 72.7135 40.0781 74.9995 42.2117C77.3618 40.0781 83.0769 35.7346 92.2211 35.2012H127.35C128.188 35.2012 128.874 35.887 128.874 36.7252V102.259C128.874 103.097 128.188 103.783 127.35 103.783H93.2879C93.2117 103.783 83.6865 103.859 76.0664 111.098C75.7615 111.403 75.3805 111.479 74.9995 111.479ZM56.7873 100.735C57.2445 100.735 66.7698 100.811 74.9995 107.898C83.3055 100.811 92.8307 100.735 93.2879 100.735H125.75V38.2492H92.2973C81.8577 38.8589 76.2188 45.2598 76.1426 45.336C75.6091 46.098 74.4661 46.098 73.8565 45.336C73.7803 45.2598 68.2176 38.8589 57.6256 38.2492H24.2492V100.735H56.7873Z" fill="#663366"/>
<path fill-rule="evenodd" clip-rule="evenodd" d="M75.0006 111.479C74.1624 111.479 73.4766 110.793 73.4766 109.955V44.3453C73.4766 42.3641 76.5246 42.3641 76.5246 44.3453V109.955C76.5246 110.793 75.8388 111.479 75.0006 111.479Z" fill="#663366"/>
</svg>
