<svg width="150" height="150" viewBox="0 0 150 150" fill="none" xmlns="http://www.w3.org/2000/svg">
<path d="M136.645 62.5401H104.131V50.101C105.77 49.8987 107.057 48.5041 107.057 46.8168V43.1121C107.057 41.2704 105.567 39.7854 103.72 39.7854H76.5769V30.8751C77.1802 30.9816 77.7515 31.0401 78.312 31.0401C80.1272 31.0401 81.713 30.5238 83.1759 30.0448C85.6372 29.241 87.5753 28.6023 90.4316 30.1406C90.9228 30.4014 91.51 30.3854 91.9905 30.098C92.471 29.8106 92.754 29.2943 92.754 28.7354L92.7593 16.9348C92.7593 16.3493 92.4443 15.8171 91.9264 15.5457C87.8687 13.3633 84.8469 14.3587 82.1828 15.2316C80.2981 15.8437 78.6269 16.392 76.5929 15.8331C77.2496 15.3434 77.6874 14.5663 77.6874 13.6827C77.6874 12.1978 76.4701 11 74.9965 11C73.5176 10.9947 72.3002 12.1923 72.3002 13.6773C72.3002 14.5609 72.738 15.354 73.4054 15.8436V39.7956L46.2624 39.801C44.4151 39.801 42.9256 41.302 42.9256 43.1277V46.8216C42.9256 48.5089 44.2123 49.9034 45.8513 50.1058V62.545L13.3369 62.5396C11.4895 62.5396 10 64.0407 10 65.8663V69.5602C10 71.4019 11.4895 72.8869 13.3369 72.8869H13.3796V137.419C13.3796 138.292 14.0897 139 14.9653 139H135.04C135.916 139 136.626 138.292 136.626 137.419L136.62 72.8815H136.663C138.51 72.8815 140 71.3804 140 69.5548L139.995 65.8662C139.995 64.0245 138.494 62.5395 136.647 62.5395L136.645 62.5401ZM76.5766 19.0481C79.1447 19.5272 81.2643 18.8565 83.1756 18.2285C85.3913 17.5046 87.1798 16.9191 89.5984 17.9304V26.4042C86.6726 25.5845 84.3074 26.351 82.1771 27.0429C80.2765 27.671 78.6107 28.214 76.5605 27.6284V19.0482L76.5766 19.0481ZM45.8513 135.85H16.5352V72.8824H45.8404V135.85H45.8513ZM45.8513 69.7211H13.3369C13.2568 69.7211 13.1714 69.6413 13.1714 69.5561V65.8675C13.1714 65.7877 13.2515 65.7025 13.3369 65.7025H45.8513V69.7211ZM94.7138 135.85H55.2698V132.689H94.7302V135.85H94.7138ZM59.038 129.516V105.927H73.4057V129.527H59.038V129.516ZM76.5766 129.516V105.927H90.9442V129.527H76.5766V129.516ZM100.96 135.85H97.8848V132.417C97.8848 130.82 96.5874 129.516 94.975 129.516H94.0994V105.586C94.0994 104.032 92.8287 102.754 91.2698 102.754H58.713C57.154 102.754 55.8833 104.021 55.8833 105.586V129.512H55.0077C53.406 129.512 52.098 130.806 52.098 132.413V135.846L49.0227 135.852V50.1457H100.961L100.96 135.85ZM103.886 46.8006C103.886 46.8804 103.806 46.9656 103.72 46.9656H46.262C46.182 46.9656 46.0965 46.8857 46.0965 46.8006V43.112C46.0965 43.0321 46.1766 42.947 46.262 42.947H103.72C103.8 42.947 103.886 43.0268 103.886 43.112V46.8006ZM133.448 135.85H104.132V72.8824H133.437V135.85H133.448ZM136.822 69.5617C136.822 69.6415 136.742 69.7267 136.657 69.7267L104.131 69.7214V65.7028H136.646C136.726 65.7028 136.811 65.7826 136.811 65.8678V69.5617L136.822 69.5617ZM74.9917 93.2154C84.2601 93.2154 91.8045 85.6944 91.8045 76.4538C91.8045 67.2132 84.2605 59.6923 74.9917 59.6923C65.7228 59.6923 58.1789 67.2132 58.1789 76.4538C58.1789 85.6944 65.7228 93.2154 74.9917 93.2154ZM62.0339 74.8732H61.4466C61.7456 72.313 62.7707 69.955 64.3029 68.0335L64.714 68.4434C65.029 68.7574 65.4241 68.9065 65.8352 68.9065C66.2463 68.9065 66.6414 68.7574 66.9564 68.4434C67.5704 67.8313 67.5704 66.82 66.9564 66.2079L66.5453 65.798C68.4887 64.2704 70.8378 63.2484 73.4058 62.9504V63.5359C73.4058 64.4088 74.1159 65.1168 74.9916 65.1168C75.8673 65.1168 76.5773 64.4089 76.5773 63.5359V62.9504C79.1454 63.2485 81.5106 64.2705 83.4379 65.798L83.0268 66.2079C82.4128 66.82 82.4128 67.8313 83.0268 68.4434C83.3418 68.7574 83.7369 68.9065 84.148 68.9065C84.5591 68.9065 84.9542 68.7574 85.2692 68.4434L85.6803 68.0335C87.2126 69.971 88.2377 72.313 88.5366 74.8732H87.9493C87.0737 74.8732 86.3635 75.5811 86.3635 76.4541C86.3635 77.327 87.0736 78.035 87.9493 78.035H88.5366C88.2376 80.5952 87.2125 82.9532 85.6803 84.8747L85.2692 84.4648C84.6552 83.8527 83.6408 83.8527 83.0268 84.4648C82.4128 85.0769 82.4128 86.0882 83.0268 86.7003L83.4379 87.1102C81.4945 88.6378 79.1454 89.6598 76.5774 89.9578V89.3723C76.5774 88.4993 75.8673 87.7914 74.9916 87.7914C74.116 87.7914 73.4059 88.4993 73.4059 89.3723V89.9578C70.8378 89.6597 68.4726 88.6377 66.5453 87.1102L66.9564 86.7003C67.5704 86.0882 67.5704 85.0769 66.9564 84.4648C66.3424 83.8527 65.328 83.8527 64.7141 84.4648L64.303 84.8747C62.7707 82.9372 61.7456 80.5952 61.4467 78.035H62.0339C62.9095 78.035 63.6197 77.3271 63.6197 76.4541C63.6197 75.5812 62.9256 74.8732 62.0339 74.8732ZM69.2095 82.2185C68.5955 81.6064 68.5955 80.5951 69.2095 79.983L72.6425 76.5765C72.6425 76.5339 72.6264 76.4966 72.6264 76.4381C72.6264 75.7568 72.9254 75.1446 73.4059 74.7082V67.9111C73.4059 67.0382 74.116 66.3302 74.9917 66.3302C75.8673 66.3302 76.5774 67.0381 76.5774 67.9111V74.7082C77.0579 75.1447 77.3569 75.7568 77.3569 76.4381C77.3569 77.7315 76.2891 78.7961 74.9917 78.7961C74.965 78.7961 74.9383 78.7801 74.9116 78.7801L71.452 82.2132C71.137 82.5273 70.7419 82.6763 70.3308 82.6763C69.9357 82.6816 69.5245 82.5325 69.2095 82.2185ZM26.8925 128.505H35.4776C37.3249 128.505 38.8144 127.004 38.8144 125.179V111.351C38.8144 109.509 37.3249 108.024 35.4776 108.024H26.8925C25.0452 108.024 23.5556 109.525 23.5556 111.351V125.179C23.561 127.02 25.0613 128.505 26.8925 128.505ZM26.7323 111.35C26.7323 111.27 26.8124 111.185 26.8978 111.185H35.4829C35.563 111.185 35.6484 111.265 35.6484 111.35V125.178C35.6484 125.258 35.5683 125.343 35.4829 125.343H26.8978C26.8178 125.343 26.7323 125.263 26.7323 125.178V111.35ZM26.8925 100.694H35.4776C37.3249 100.694 38.8144 99.1928 38.8144 97.3671V83.5393C38.8144 81.6976 37.3249 80.2126 35.4776 80.2126H26.8925C25.0452 80.2126 23.5556 81.7137 23.5556 83.5393V97.3671C23.561 99.2088 25.0613 100.694 26.8925 100.694ZM26.7323 83.5385C26.7323 83.4586 26.8124 83.3735 26.8978 83.3735H35.4829C35.563 83.3735 35.6484 83.4533 35.6484 83.5385V97.3663C35.6484 97.4461 35.5683 97.5313 35.4829 97.5313H26.8978C26.8178 97.5313 26.7323 97.4515 26.7323 97.3663V83.5385ZM114.489 128.505H123.074C124.922 128.505 126.411 127.004 126.411 125.178V111.35C126.411 109.509 124.922 108.024 123.074 108.024H114.489C112.642 108.024 111.153 109.525 111.153 111.35V125.178C111.158 127.02 112.658 128.505 114.489 128.505ZM114.329 111.349C114.329 111.27 114.409 111.184 114.495 111.184H123.08C123.16 111.184 123.245 111.264 123.245 111.349V125.177C123.245 125.257 123.165 125.342 123.08 125.342H114.489C114.409 125.342 114.324 125.262 114.324 125.177L114.329 111.349ZM114.489 100.693H123.074C124.922 100.693 126.411 99.1924 126.411 97.3667V83.5389C126.411 81.6972 124.922 80.2122 123.074 80.2122H114.489C112.642 80.2122 111.153 81.7132 111.153 83.5389V97.3667C111.158 99.2084 112.658 100.693 114.489 100.693ZM114.329 83.5381C114.329 83.4582 114.409 83.3731 114.495 83.3731H123.08C123.16 83.3731 123.245 83.4529 123.245 83.5381V97.3659C123.245 97.4457 123.165 97.5309 123.08 97.5309H114.489C114.409 97.5309 114.324 97.4511 114.324 97.3659L114.329 83.5381Z" fill="#663366"/>
</svg>
