<svg width="150" height="150" viewBox="0 0 150 150" fill="none" xmlns="http://www.w3.org/2000/svg">
<path d="M10.0008 57.6661C10.0008 44.9317 14.957 32.9616 23.9589 23.958C32.9614 14.9556 44.9321 10 57.6671 10C70.4022 10 82.3718 14.9562 91.3753 23.958C100.378 32.9604 105.333 44.9311 105.333 57.6661C105.333 58.8632 104.364 59.8328 103.167 59.8328C101.97 59.8328 101 58.8632 101 57.6661C101 46.0908 96.4935 35.2093 88.309 27.0239C80.1246 18.8385 69.2425 14.3329 57.6667 14.3329C46.0909 14.3329 35.2098 18.8395 27.0244 27.0239C18.839 35.2083 14.3333 46.0904 14.3333 57.6661C14.3333 81.5581 33.7742 100.999 57.6663 100.999C58.8634 100.999 59.8329 101.969 59.8329 103.166C59.8329 104.363 58.8634 105.332 57.6663 105.332C31.385 105.332 10.0008 83.9473 10.0008 57.6661ZM49.0005 83.6658V66.3327H31.6673C30.4703 66.3327 29.5007 65.3631 29.5007 64.1661V51.1662C29.5007 49.9691 30.4703 48.9996 31.6673 48.9996H49.0005V31.6664C49.0005 30.4694 49.9701 29.4998 51.1672 29.4998H64.1671C65.3642 29.4998 66.3337 30.4694 66.3337 31.6664V48.9996H83.6669C84.864 48.9996 85.8336 49.9691 85.8336 51.1662V64.1661C85.8336 65.3631 84.864 66.3327 83.6669 66.3327H66.3337V83.6658C66.3337 84.8629 65.3642 85.8325 64.1671 85.8325H51.1672C49.9701 85.8325 49.0005 84.8629 49.0005 83.6658ZM51.1672 61.9994C52.3643 61.9994 53.3338 62.969 53.3338 64.1661V81.4992H62.0004V64.1661C62.0004 62.969 62.97 61.9994 64.1671 61.9994H81.5003V53.3329H64.1671C62.97 53.3329 62.0004 52.3633 62.0004 51.1662V33.8331H53.3338V51.1662C53.3338 52.3633 52.3643 53.3329 51.1672 53.3329H33.834V61.9994H51.1672ZM139.999 96.6657V109.666C139.999 110.722 139.235 111.626 138.19 111.805L129.469 113.262C129.29 113.733 129.106 114.188 128.906 114.633L134.052 121.821C134.669 122.682 134.572 123.863 133.824 124.615L124.616 133.824C123.868 134.571 122.682 134.669 121.821 134.057L114.633 128.911C114.189 129.111 113.734 129.295 113.263 129.474L111.806 138.2C111.627 139.235 110.728 139.999 109.666 139.999H96.666C95.6044 139.999 94.7051 139.235 94.5264 138.19L93.0693 129.463C92.6035 129.285 92.1431 129.095 91.6989 128.9L84.511 134.046C83.6498 134.658 82.4635 134.56 81.7161 133.813L72.5079 124.605C71.7604 123.857 71.6629 122.671 72.2804 121.81L77.4261 114.616C77.334 114.405 77.2419 114.199 77.1553 113.988L68.4995 113.999C67.3024 113.999 66.3328 113.029 66.3328 111.832V96.6651C66.3328 95.6089 67.0966 94.7042 68.142 94.5255L76.8519 93.0738C76.9331 92.8517 77.0198 92.6351 77.1119 92.4184L70.9964 86.303C70.1514 85.458 70.1514 84.0875 70.9964 83.2373L81.7214 72.5123C82.4689 71.7648 83.6497 71.6619 84.5163 72.2794L91.7042 77.4251C92.1484 77.2247 92.6034 77.0406 93.0746 76.8618L94.5317 68.1356C94.705 67.0956 95.6042 66.3319 96.6659 66.3319H109.666C110.727 66.3319 111.627 67.0956 111.805 68.141L113.263 76.8672C113.728 77.046 114.189 77.2355 114.633 77.4305L121.821 72.2848C122.677 71.6673 123.863 71.7648 124.616 72.5177L133.824 81.7259C134.571 82.4734 134.669 83.6596 134.051 84.5209L128.906 91.7087C129.106 92.1529 129.29 92.6079 129.469 93.0791L138.19 94.5362C139.235 94.7041 139.999 95.6094 139.999 96.6657ZM135.666 98.5019L127.487 97.1369C126.685 97.0015 126.03 96.4328 125.781 95.6636C125.412 94.5153 124.984 93.4753 124.47 92.4894C124.091 91.7636 124.156 90.8916 124.632 90.2253L129.458 83.4816L122.85 76.8734L116.106 81.705C115.446 82.1763 114.568 82.2467 113.848 81.8621C112.862 81.3475 111.822 80.9196 110.674 80.5513C109.899 80.3021 109.33 79.6467 109.2 78.845L107.83 70.666H98.4969L97.132 78.845C96.9965 79.6467 96.4278 80.3021 95.6586 80.5513C94.5103 80.9196 93.4758 81.3475 92.4844 81.8621C91.764 82.2413 90.8866 82.1763 90.2257 81.705L83.4874 76.8788L75.5954 84.7708L81.2341 90.4094C81.8895 91.0649 82.0574 92.0615 81.6512 92.8957C81.207 93.8057 80.8387 94.7265 80.5624 95.6312C80.3241 96.4166 79.6578 97.0016 78.8453 97.1369L70.6663 98.5019V109.666H78.6612C79.5928 109.666 80.4215 110.261 80.7141 111.144C81.012 112.033 81.3858 112.921 81.8624 113.853C82.2308 114.573 82.1712 115.44 81.6945 116.1L76.8683 122.844L83.4765 129.452L90.2256 124.626C90.8865 124.155 91.764 124.09 92.4844 124.469C93.4702 124.984 94.5101 125.412 95.6586 125.78C96.4331 126.029 97.0019 126.684 97.1319 127.486L98.5023 135.665H107.835L109.2 127.486C109.336 126.685 109.904 126.029 110.673 125.78C111.822 125.412 112.856 124.984 113.848 124.469C114.568 124.09 115.446 124.155 116.106 124.626L122.845 129.452L129.453 122.844L124.627 116.1C124.15 115.434 124.09 114.562 124.464 113.836C124.979 112.851 125.407 111.816 125.775 110.662C126.024 109.888 126.68 109.319 127.481 109.189L135.666 107.829L135.666 98.5019ZM113.891 92.4515C116.751 95.2845 118.333 99.0923 118.333 103.166C118.333 107.239 116.751 111.047 113.88 113.891C111.047 116.751 107.234 118.332 103.166 118.332C94.803 118.332 87.999 111.529 87.999 103.165C87.999 99.0916 89.5806 95.2838 92.4514 92.44C95.2843 89.5801 99.0976 87.9984 103.166 87.9984C107.233 87.9984 111.047 89.5807 113.891 92.4515ZM114 103.166C114 100.262 112.873 97.5432 110.825 95.5174C108.789 93.4591 106.07 92.3324 103.166 92.3324C100.263 92.3324 97.5438 93.4591 95.518 95.5066C93.4597 97.5433 92.333 100.262 92.333 103.166C92.333 109.14 97.1917 113.999 103.166 113.999C106.07 113.999 108.789 112.872 110.815 110.825C112.873 108.788 114 106.069 114 103.166ZM114 57.6668V25.1665C114 24.8848 114.059 24.6032 114.167 24.3378C114.276 24.0723 114.438 23.834 114.639 23.6336L118.436 19.8365C118.918 16.7274 121.588 14.3332 124.833 14.3332C128.419 14.3332 131.333 17.2474 131.333 20.8331C131.333 24.4189 128.419 27.333 124.833 27.333C122.715 27.333 120.852 26.3039 119.665 24.7331L118.333 26.0656V57.666C118.333 58.863 117.363 59.8326 116.166 59.8326C114.969 59.8326 114 58.8639 114 57.6668ZM122.666 20.8346C122.666 22.0317 123.636 23.0012 124.833 23.0012C126.03 23.0012 126.999 22.0317 126.999 20.8346C126.999 19.6375 126.03 18.668 124.833 18.668C123.636 18.668 122.666 19.6375 122.666 20.8346ZM27.3335 124.833C27.3335 128.419 24.4193 131.333 20.8336 131.333C17.2478 131.333 14.3336 128.419 14.3336 124.833C14.3336 121.589 16.7278 118.919 19.837 118.436L23.6341 114.639C23.8345 114.439 24.0728 114.282 24.3382 114.168C24.6036 114.06 24.8853 114 25.167 114H57.6674C58.8645 114 59.834 114.97 59.834 116.167C59.834 117.364 58.8645 118.333 57.6674 118.333H26.0669L24.7344 119.666C26.3052 120.852 27.3335 122.715 27.3335 124.833ZM23.0002 124.833C23.0002 123.636 22.0306 122.667 20.8336 122.667C19.6365 122.667 18.6669 123.636 18.6669 124.833C18.6669 126.031 19.6365 127 20.8336 127C22.0306 127 23.0002 126.031 23.0002 124.833ZM66.3332 124.833C66.3332 126.031 65.3636 127 64.1666 127H41.2327L39.9002 128.333C41.471 129.519 42.5001 131.382 42.5001 133.5C42.5001 137.086 39.5859 140 36.0002 140C32.4144 140 29.5002 137.086 29.5002 133.5C29.5002 130.256 31.8944 127.585 35.0036 127.103L38.8007 123.306C39.0011 123.106 39.2394 122.948 39.5048 122.835C39.7703 122.726 40.0519 122.667 40.3336 122.667H64.1674C65.3645 122.667 66.3332 123.636 66.3332 124.833ZM38.1675 133.5C38.1675 132.303 37.1979 131.333 36.0008 131.333C34.8037 131.333 33.8342 132.303 33.8342 133.5C33.8342 134.697 34.8037 135.667 36.0008 135.667C37.1979 135.667 38.1675 134.697 38.1675 133.5ZM133.5 29.5012C137.086 29.5012 140 32.4154 140 36.0011C140 39.5868 137.086 42.501 133.5 42.501C131.382 42.501 129.519 41.4719 128.333 39.9011L127 41.2335V64.1674C127 65.3644 126.03 66.334 124.833 66.334C123.636 66.334 122.667 65.3644 122.667 64.1674V40.3336C122.667 40.052 122.726 39.7703 122.835 39.5049C122.943 39.2394 123.105 39.0011 123.306 38.8007L127.103 35.0036C127.585 31.8945 130.255 29.5012 133.5 29.5012ZM131.333 36.0011C131.333 37.1982 132.303 38.1677 133.5 38.1677C134.697 38.1677 135.667 37.1982 135.667 36.0011C135.667 34.804 134.697 33.8345 133.5 33.8345C132.303 33.8345 131.333 34.804 131.333 36.0011Z" fill="#663366"/>
</svg>
