<svg width="150" height="150" viewBox="0 0 150 150" fill="none" xmlns="http://www.w3.org/2000/svg">
<path fill-rule="evenodd" clip-rule="evenodd" d="M99.6215 62.4304C99.5911 62.4609 99.5546 62.4853 99.5181 62.5097L93.3939 67.4631L96.1151 67.0483L113.379 56.4156L105.593 57.593L99.6215 62.4304ZM21.755 116.924H23.7762V67.2559H22.2238C21.5177 67.2559 20.9272 66.7984 20.7141 66.1639L16.6415 55.5252C16.331 54.7078 16.7389 53.7866 17.5607 53.4756C17.7494 53.4024 17.9381 53.3719 18.1269 53.3719H19.8558L15.0892 44.2459L11.5827 44.2398C10.7061 44.2398 10 43.5261 10 42.6538V35.547C10 34.6686 10.7122 33.961 11.5827 33.961H35.7445V28.172H23.545C22.6684 28.172 21.9623 27.4583 21.9623 26.586C21.9623 25.7076 22.6745 25 23.545 25H51.115C51.9917 25 52.7039 25.7137 52.7039 26.586C52.7039 27.4644 51.9916 28.172 51.115 28.172L38.9156 28.1659V33.9549H63.0773C63.9539 33.9549 64.6601 34.6687 64.6601 35.5409V42.6477C64.6601 43.5261 63.9478 44.2337 63.0773 44.2337H59.577L54.8104 53.3597H56.5393C57.4159 53.3597 58.122 54.0734 58.122 54.9457C58.122 55.1714 58.0733 55.391 57.9881 55.5862L53.9155 66.2188C53.672 66.8532 53.0754 67.2436 52.4362 67.2436L50.8839 67.2558V81.9146H125.707C126.583 81.9146 127.289 82.6283 127.289 83.5006V89.5824C127.289 90.4608 126.577 91.1684 125.707 91.1684H123.686V116.923H125.707C126.583 116.923 127.289 117.637 127.289 118.509V124.414C127.289 125.292 126.577 126 125.707 126H21.7554C20.8788 126 20.1727 125.286 20.1727 124.414V118.509C20.1666 117.637 20.8785 116.924 21.755 116.924ZM124.118 120.102H23.3384V122.829H124.118V120.102ZM111.554 91.1759V102.461H120.515V91.1759H111.554ZM111.554 105.639V116.925H120.515V105.639H111.554ZM108.382 116.925V105.639H99.421V116.925H108.382ZM108.382 102.461V91.1759H99.421V102.461H108.382ZM96.2493 116.925V105.639H87.2884V116.925H96.2493ZM96.2493 102.461V91.1759H87.2884V102.461H96.2493ZM84.1167 116.925V105.639H75.1557V116.925H84.1167ZM84.1167 102.461V91.1759H75.1557V102.461H84.1167ZM71.984 116.925V105.639H63.0231V116.925H71.984ZM71.984 102.461V91.1759H63.0231V102.461H71.984ZM59.8514 116.925V105.639H50.8844V116.925H59.8514ZM59.8514 102.461V91.1759H50.8844V102.461H59.8514ZM124.118 85.0943H50.8843V88.0041H124.118V85.0943ZM37.3322 37.1345H13.1642V41.063H61.4878V37.1345H37.3322ZM47.2489 44.2413V53.3672H51.2485L56.0151 44.2413H47.2489ZM44.0772 53.3672V44.2413H38.915V53.3672H44.0772ZM35.7433 53.3672V44.2413H30.5749V53.3672H35.7433ZM27.4093 53.3672V44.2413H18.6493L23.4159 53.3672H27.4093ZM25.3578 64.0792H51.3523L54.2378 56.5455H20.4279L23.3135 64.0792H25.3578ZM26.9405 67.2574V116.932H47.7112V67.2574H26.9405ZM102.493 47.4995L92.7952 45.0105L90.0558 45.4253L97.2209 48.2863C98.9499 48.024 100.715 47.7618 102.493 47.4995ZM91.042 49.2259L83.5908 46.2552C83.0247 46.0843 82.5803 45.5963 82.4829 44.9741C82.3551 44.1079 82.9516 43.2966 83.8161 43.1685L92.6371 41.8326V41.8387C92.838 41.8082 93.051 41.8143 93.2641 41.8692L110.608 46.3285C114.199 45.81 117.578 45.322 120.409 44.9194C123.824 44.4313 126.405 44.0592 127.781 43.8518C129.09 43.6505 130.472 43.9433 131.701 44.5289C132.724 45.017 133.668 45.7185 134.386 46.5115C136.389 46.6213 137.941 47.396 138.891 48.4757C139.463 49.1223 139.822 49.8848 139.95 50.6901C140.078 51.5075 139.962 52.3554 139.585 53.1606C138.903 54.6003 137.338 55.9118 134.751 56.595C132.56 57.1745 129.406 57.7052 126.655 58.1627C125.863 58.2969 125.114 58.4189 124.14 58.5959L121.943 58.9863C119.289 59.456 116.251 59.9989 112.83 60.5845C107.728 63.7199 102.584 66.8189 97.5072 69.9422C97.3063 70.0642 97.0872 70.1374 96.868 70.1679L88.0897 71.4977C87.2253 71.6258 86.4157 71.028 86.2879 70.1618C86.1966 69.5456 86.4644 68.9661 86.9393 68.6306L93.2033 63.5613C90.3969 63.8968 87.7975 64.147 85.5574 64.269C81.5943 64.4825 78.6298 64.2446 77.3818 63.3051C77.0165 63.0306 76.3286 62.4572 75.5555 61.7923C74.5084 60.8955 73.1874 59.7304 72.4447 59.0655L72.4203 59.0472C70.8741 57.6136 69.2853 56.0826 67.946 54.7344C66.4849 53.2703 65.3222 52.032 64.817 51.4037C64.6161 51.1536 64.4943 50.8669 64.4456 50.568C64.3908 50.2142 64.4395 49.8665 64.5735 49.5553V49.5492C64.6891 49.2808 64.8778 49.0368 65.1153 48.8477C65.3527 48.6525 65.651 48.5122 65.9858 48.4634L72.1403 47.4874C72.5299 47.4264 72.9134 47.5118 73.2239 47.707L79.2688 51.2511C80.9856 50.8302 85.4536 50.0861 91.042 49.2259ZM133.796 49.6529C135.098 49.6285 136.036 50.0067 136.517 50.5557C136.687 50.7448 136.791 50.9522 136.821 51.1596C136.852 51.3487 136.815 51.5622 136.712 51.7819C136.395 52.4529 135.512 53.0995 133.936 53.5204C131.896 54.0634 128.81 54.5758 126.125 55.0272C125.109 55.198 124.141 55.3566 123.587 55.4603L121.389 55.8507L120.032 56.0947C120.58 55.747 121.127 55.3993 121.675 55.0516C122.199 54.7283 122.509 54.1121 122.412 53.4656C122.284 52.5993 121.475 52.0015 120.61 52.1296L104.697 54.5392C104.429 54.5819 104.167 54.6917 103.942 54.8687L97.9277 59.7366C93.2281 60.4015 88.839 60.914 85.3994 61.097C82.1426 61.2739 79.8779 61.2007 79.2813 60.7553C78.9222 60.4869 78.3012 59.9684 77.6133 59.3767C76.4689 58.3946 75.2392 57.3149 74.5635 56.711C73.0173 55.2835 71.471 53.7829 70.1926 52.5019C69.73 52.0382 69.2977 51.599 68.9142 51.2025L72.0797 50.6962L77.6986 53.9904V53.9965C77.9786 54.1612 78.283 54.2954 78.63 54.3747C79.0257 54.4662 79.4396 54.4723 79.8719 54.3625H79.8779C83.841 53.3681 108.026 49.8971 120.854 48.0548C124.537 47.5241 127.318 47.1276 128.25 46.9873C128.664 46.9263 129.108 46.969 129.559 47.0971L129.492 47.1093C128.627 47.2374 128.031 48.0487 128.159 48.9149C128.286 49.7811 129.096 50.3789 129.96 50.2508L133.796 49.6529Z" fill="#663366"/>
</svg>
