<svg width="150" height="150" viewBox="0 0 150 150" fill="none" xmlns="http://www.w3.org/2000/svg">
<path d="M40.356 124.863H36.0215V129.198H40.356V124.863Z" fill="#663366"/>
<path d="M114.042 124.863H109.707V129.198H114.042V124.863Z" fill="#663366"/>
<path d="M111.847 91.759C108.027 89.3208 103.584 88.0205 99.06 88.0205H76.5479C72.3218 88.0205 68.1769 89.1312 64.5468 91.2714L43.6059 103.489C42.5765 104.085 42.2243 105.413 42.8203 106.442C43.1995 107.119 43.931 107.526 44.6895 107.526H107.268C111.982 107.526 115.829 103.706 115.829 98.965C115.829 96.0393 114.339 93.3302 111.847 91.759ZM85.867 103.191H52.7083L66.7411 95.0098C69.7211 93.276 73.1074 92.355 76.575 92.355H85.867V103.191ZM111.332 100.157C110.844 101.999 109.165 103.245 107.268 103.191H90.2014V92.355H99.06C102.771 92.355 106.402 93.4115 109.544 95.4162C111.142 96.3914 111.901 98.342 111.332 100.157Z" fill="#663366"/>
<path d="M85.8672 111.86H77.1982V116.194H85.8672V111.86Z" fill="#663366"/>
<path d="M134.82 93.872L127.83 92.4633L113.689 83.984C108.623 80.9499 102.853 79.3516 96.9745 79.3516H76.2232C70.8051 79.3516 65.4954 80.7061 60.7275 83.2797L23.8845 103.245C18.0058 106.442 13.7526 111.941 12.1001 118.416L10.0683 126.489C9.77035 127.654 10.4747 128.819 11.6396 129.117C11.8021 129.171 11.9918 129.171 12.1543 129.171H25.3473C26.5393 136.241 33.2578 141.009 40.3284 139.817C45.7735 138.896 50.0538 134.616 50.9749 129.171H99.0333C100.225 136.241 106.944 141.009 114.014 139.817C119.46 138.896 123.74 134.616 124.661 129.171H124.851C133.221 129.171 140.021 122.371 140.021 114V100.211C140.048 97.15 137.854 94.468 134.82 93.872ZM24.6159 107.851C24.9952 108.257 25.1848 108.772 25.1848 109.314V109.693C25.1848 110.885 24.2095 111.86 23.0176 111.86H20.146C21.4192 110.289 22.9092 108.961 24.6159 107.851ZM38.1882 135.7C33.3932 135.7 29.5193 131.826 29.5193 127.031C29.5193 122.236 33.3932 118.362 38.1882 118.362C42.9832 118.362 46.8572 122.236 46.8572 127.031C46.8572 131.826 42.9832 135.7 38.1882 135.7ZM111.874 135.7C107.079 135.7 103.205 131.826 103.205 127.031C103.205 122.236 107.079 118.362 111.874 118.362C116.669 118.362 120.543 122.236 120.543 127.031C120.543 131.826 116.669 135.7 111.874 135.7ZM135.714 114.027C135.714 120.014 130.865 124.863 124.878 124.863H124.688C123.496 117.793 116.778 113.025 109.707 114.217C104.262 115.138 99.9815 119.418 99.0604 124.863H51.002C49.81 117.793 43.0916 113.025 36.021 114.217C30.5758 115.138 26.2955 119.418 25.3744 124.863H14.9446L16.2991 119.472C16.57 118.335 16.9764 117.251 17.4369 116.195H23.0176C26.5935 116.195 29.5193 113.269 29.5193 109.693V109.314C29.5193 108.013 29.14 106.767 28.4357 105.711L62.8134 87.0994C66.9312 84.878 71.5365 83.7131 76.2232 83.686H96.9745C102.067 83.686 107.079 85.0676 111.468 87.6954L125.934 96.3644C126.151 96.4998 126.368 96.5811 126.611 96.6353L131.677 97.6376L128.941 100.401C127.722 101.62 127.045 103.272 127.045 105.006V105.385C127.045 108.961 129.971 111.887 133.547 111.887H135.714V114.027ZM135.714 107.526H133.547C132.355 107.526 131.379 106.55 131.379 105.358V104.979C131.379 104.41 131.596 103.841 132.002 103.435L135.66 99.7777C135.687 99.9132 135.714 100.076 135.714 100.211V107.526Z" fill="#663366"/>
<path d="M37.186 91.0275C30.7927 82.7107 27.3251 72.5247 27.3522 62.0136C27.3522 35.7359 48.7536 14.3345 75.0314 14.3345C101.309 14.3345 122.711 35.7359 122.711 62.0136C122.738 68.7321 121.302 75.3692 118.566 81.4917L122.521 83.2525C125.528 76.5612 127.072 69.328 127.045 62.0136C127.045 33.3249 103.72 10 75.0314 10C46.3426 10 23.0177 33.3249 23.0177 62.0136C22.9906 73.4729 26.7562 84.6071 33.7726 93.6823L37.186 91.0275Z" fill="#663366"/>
<path d="M44.6904 31.6724V72.8498C44.6904 74.0418 45.6657 75.0171 46.8577 75.0171H103.206V70.6826H49.0249V31.6724H44.6904Z" fill="#663366"/>
<path d="M103.205 38.1741C103.205 36.9821 102.23 36.0068 101.038 36.0068H88.0346V40.3413H95.8096L83.7001 52.4507L74.4081 43.1587C73.5683 42.3189 72.1867 42.3189 71.3469 43.1587L51.8418 62.6638L54.903 65.725L72.864 47.7641L82.156 57.0561C82.9958 57.8959 84.3774 57.8959 85.2172 57.0561L98.8437 43.4296V51.1775H103.178V38.1741H103.205Z" fill="#663366"/>
</svg>
