<svg width="150" height="150" viewBox="0 0 150 150" fill="none" xmlns="http://www.w3.org/2000/svg">
<path d="M138.281 127.61L130.405 119.727C128.183 117.505 124.627 117.453 122.312 119.511L118.078 115.277C121.92 110.798 124.259 104.991 124.259 98.6412C124.259 84.5192 112.774 73.0352 98.6529 73.0352C84.5367 73.0352 73.0469 84.5199 73.0469 98.6412C73.0469 112.763 84.5316 124.247 98.6529 124.247C105.003 124.247 110.81 121.908 115.289 118.066L119.523 122.3C118.558 123.382 118.008 124.75 118.008 126.218C118.008 127.797 118.622 129.282 119.739 130.393L127.616 138.27C128.733 139.387 130.218 140.001 131.791 140.001H134.101C137.358 140.001 140.013 137.352 140.013 134.089V131.779C140.013 130.2 139.399 128.715 138.282 127.598L138.281 127.61ZM76.9811 98.6401C76.9811 86.6933 86.6999 76.9741 98.6471 76.9741C110.594 76.9741 120.313 86.6929 120.313 98.6401C120.313 110.587 110.594 120.306 98.6471 120.306C86.7003 120.306 76.9811 110.587 76.9811 98.6401ZM136.072 134.095C136.072 135.182 135.189 136.065 134.101 136.065H131.791C131.277 136.065 130.768 135.855 130.4 135.487L122.523 127.604C122.149 127.236 121.944 126.739 121.944 126.212C121.944 125.686 122.149 125.189 122.523 124.82L124.833 122.511C125.605 121.739 126.85 121.745 127.616 122.511L135.493 130.387C135.861 130.762 136.072 131.253 136.072 131.779L136.072 134.095Z" fill="#663366"/>
<path d="M75.0077 73.0312C73.9201 73.0312 73.0371 73.9142 73.0371 75.0019V78.9432C73.0371 80.0308 73.9201 80.9138 75.0077 80.9138C76.0954 80.9138 76.9784 80.0308 76.9784 78.9432V75.0019C76.9784 73.9142 76.0954 73.0312 75.0077 73.0312Z" fill="#663366"/>
<path d="M78.2481 119.339C77.2949 119.97 76.1781 120.309 75.0085 120.309C72.5291 120.309 70.2895 118.73 69.4414 116.403C68.5877 113.988 66.465 112.433 64.0382 112.433L27.7361 112.427C26.6485 112.427 25.7655 111.544 25.7655 110.456V47.4253C25.7655 46.3376 26.6485 45.4546 27.7361 45.4546H29.7068V102.574C29.7068 105.831 32.3557 108.486 35.6187 108.486H64.9268C66.6051 108.486 68.2365 108.983 69.6399 109.924C69.9791 110.152 70.3592 110.258 70.7334 110.258C71.3708 110.258 71.9907 109.954 72.3709 109.386C72.979 108.486 72.7334 107.258 71.8329 106.655C69.7803 105.275 67.3886 104.55 64.9268 104.55H35.6187C34.531 104.55 33.648 103.667 33.648 102.58L33.6422 39.5489C33.6422 38.4613 34.5252 37.5783 35.6128 37.5783H64.9209C68.7278 37.5783 72.0317 40.1278 73.0375 43.7943V69.0964C73.0375 70.1841 73.9205 71.0671 75.0081 71.0671C76.0958 71.0671 76.9788 70.1841 76.9788 69.0964V43.7943C77.9846 40.1278 81.2885 37.5783 85.0953 37.5783H114.403C115.491 37.5783 116.374 38.4613 116.374 39.5489V76.6399C116.374 77.7276 117.257 78.6105 118.345 78.6105C119.432 78.6105 120.315 77.7276 120.315 76.6399V45.4606H122.286C123.374 45.4606 124.257 46.3435 124.257 47.4312V88.0491C124.257 89.1367 125.14 90.0197 126.227 90.0197C127.315 90.0197 128.198 89.1367 128.198 88.0491V47.4312C128.198 44.174 125.549 41.5193 122.286 41.5193H120.315V39.5486C120.315 36.2915 117.666 33.6367 114.403 33.6367H85.0953C80.9903 33.6367 77.277 35.6484 75.0081 38.847C72.7393 35.6484 69.026 33.6367 64.9209 33.6367H35.6128C32.3557 33.6367 29.7009 36.2856 29.7009 39.5486V41.5193H27.7303C24.4731 41.5193 21.8184 44.1682 21.8184 47.4312V110.462C21.8184 113.719 24.4673 116.374 27.7303 116.374H64.0323C64.7691 116.374 65.4299 116.9 65.7281 117.736C67.1432 121.631 70.874 124.251 75.0083 124.251C76.9556 124.251 78.8326 123.689 80.4349 122.619C81.3413 122.017 81.5868 120.795 80.9787 119.889C80.3764 118.982 79.1542 118.737 78.2479 119.345L78.2481 119.339Z" fill="#663366"/>
<path d="M13.9477 33.6353C13.9477 22.7762 22.7834 13.9408 33.6421 13.9408C43.1563 13.9408 51.3022 20.7182 53.0147 30.0574C53.2135 31.1276 54.231 31.8351 55.3069 31.6363C56.377 31.4375 57.0846 30.4142 56.8858 29.3441C54.8274 18.14 45.0503 10 33.636 10C20.6017 10 10 20.6017 10 33.636C10 39.6942 12.2864 45.454 16.4441 49.8574C16.83 50.2667 17.3563 50.4773 17.8768 50.4773C18.3621 50.4773 18.8475 50.3018 19.2276 49.9393C20.017 49.1908 20.0521 47.9453 19.3094 47.1558C15.8476 43.4893 13.9355 38.6885 13.9355 33.6361L13.9477 33.6353Z" fill="#663366"/>
<path d="M61.2187 25.7598C60.131 25.7598 59.248 26.6428 59.248 27.7304C59.248 28.8181 60.131 29.701 61.2187 29.701H63.1893C64.277 29.701 65.16 28.8181 65.16 27.7304C65.16 26.6428 64.277 25.7598 63.1893 25.7598H61.2187Z" fill="#663366"/>
<path d="M59.248 19.8475C59.7509 19.8475 60.2538 19.6545 60.6398 19.2686L62.6104 17.298C63.3823 16.5261 63.3823 15.2805 62.6104 14.5145C61.8385 13.7426 60.5929 13.7426 59.8269 14.5145L57.8563 16.4851C57.0844 17.257 57.0844 18.5026 57.8563 19.2686C58.2422 19.6545 58.7451 19.8475 59.248 19.8475Z" fill="#663366"/>
<path d="M59.2494 70.2272C59.2494 69.9231 59.4073 69.6483 59.6704 69.5138C64.2724 67.1339 67.132 62.444 67.132 57.2747C67.132 53.1053 65.2724 49.1992 62.033 46.5678C58.7933 43.9363 54.548 42.9247 50.3904 43.7959C45.1276 44.8953 40.8879 49.1817 39.8354 54.462C38.6132 60.5962 41.4845 66.6367 46.9811 69.4963C47.2618 69.6425 47.4373 69.9232 47.4373 70.2272C47.4373 72.8587 49.5775 75.0047 52.2148 75.0047H54.4778C57.1092 75.0047 59.2553 72.8587 59.2553 70.2272L59.2494 70.2272ZM55.3139 70.2272C55.3139 70.6892 54.9397 71.0634 54.4777 71.0634H52.2147C51.7528 71.0634 51.3785 70.6892 51.3785 70.2272C51.3785 68.4495 50.3903 66.8298 48.8055 66.0052C44.8759 63.9586 42.8292 59.6313 43.7004 55.2339C44.4489 51.4798 47.4604 48.4389 51.1971 47.6554C51.9046 47.5092 52.6181 47.4332 53.3198 47.4332C55.5887 47.4332 57.7816 48.1934 59.5534 49.626C61.8691 51.5089 63.1965 54.2924 63.1965 57.2747C63.1965 60.9645 61.1557 64.3152 57.8635 66.011C56.2904 66.8238 55.314 68.4378 55.314 70.2213L55.3139 70.2272Z" fill="#663366"/>
<path d="M51.371 76.9727C50.2834 76.9727 49.4004 77.8556 49.4004 78.9433C49.4004 80.0309 50.2834 80.9139 51.371 80.9139H55.3123C56.4 80.9139 57.2829 80.0309 57.2829 78.9433C57.2829 77.8556 56.4 76.9727 55.3123 76.9727H51.371Z" fill="#663366"/>
<path d="M108.492 43.4902H90.7617C89.674 43.4902 88.791 44.3732 88.791 45.4609C88.791 46.5485 89.674 47.4315 90.7617 47.4315H108.492C109.58 47.4315 110.463 46.5485 110.463 45.4609C110.463 44.3732 109.58 43.4902 108.492 43.4902Z" fill="#663366"/>
<path d="M108.492 49.3945H98.6445C97.5568 49.3945 96.6738 50.2775 96.6738 51.3652C96.6738 52.4528 97.5568 53.3358 98.6445 53.3358H108.492C109.579 53.3358 110.462 52.4528 110.462 51.3652C110.462 50.2775 109.579 49.3945 108.492 49.3945Z" fill="#663366"/>
<path d="M108.492 55.3066H102.58C101.492 55.3066 100.609 56.1896 100.609 57.2773C100.609 58.3649 101.492 59.2479 102.58 59.2479H108.492C109.58 59.2479 110.463 58.3649 110.463 57.2773C110.463 56.1896 109.58 55.3066 108.492 55.3066Z" fill="#663366"/>
<path d="M108.492 61.2129H102.58C101.492 61.2129 100.609 62.0959 100.609 63.1835C100.609 64.2712 101.492 65.1542 102.58 65.1542H108.492C109.58 65.1542 110.463 64.2712 110.463 63.1835C110.463 62.0959 109.58 61.2129 108.492 61.2129Z" fill="#663366"/>
</svg>
