<svg width="150" height="150" viewBox="0 0 150 150" fill="none" xmlns="http://www.w3.org/2000/svg">
<path d="M37.8571 30.8833H28.5714C27.2946 30.8833 26.25 31.9275 26.25 33.2037V47.1261C26.25 48.4023 27.2946 49.4465 28.5714 49.4465H37.8571C39.1339 49.4465 40.1786 48.4023 40.1786 47.1261V33.2037C40.1786 31.9275 39.1339 30.8833 37.8571 30.8833ZM35.5357 44.8057H30.8929V35.5241H35.5357V44.8057Z" fill="#663366"/>
<path d="M58.7497 30.8833H49.464C48.1872 30.8833 47.1426 31.9275 47.1426 33.2037V47.1261C47.1426 48.4023 48.1872 49.4465 49.464 49.4465H58.7497C60.0265 49.4465 61.0711 48.4023 61.0711 47.1261V33.2037C61.0711 31.9275 60.0265 30.8833 58.7497 30.8833ZM56.4283 44.8057H51.7854V35.5241H56.4283V44.8057Z" fill="#663366"/>
<path d="M79.6433 30.8833H70.3576C69.0808 30.8833 68.0361 31.9275 68.0361 33.2037V47.1261C68.0361 48.4023 69.0808 49.4465 70.3576 49.4465H79.6433C80.9201 49.4465 81.9647 48.4023 81.9647 47.1261V33.2037C81.9647 31.9275 80.9201 30.8833 79.6433 30.8833ZM77.3218 44.8057H72.679V35.5241H77.3218V44.8057Z" fill="#663366"/>
<path d="M37.8571 56.4077H28.5714C27.2946 56.4077 26.25 57.4519 26.25 58.7281V72.6505C26.25 73.9267 27.2946 74.9709 28.5714 74.9709H37.8571C39.1339 74.9709 40.1786 73.9267 40.1786 72.6505V58.7281C40.1786 57.4519 39.1339 56.4077 37.8571 56.4077ZM35.5357 70.3301H30.8929V61.0485H35.5357V70.3301Z" fill="#663366"/>
<path d="M58.7497 56.4077H49.464C48.1872 56.4077 47.1426 57.4519 47.1426 58.7281V72.6505C47.1426 73.9267 48.1872 74.9709 49.464 74.9709H58.7497C60.0265 74.9709 61.0711 73.9267 61.0711 72.6505V58.7281C61.0711 57.4519 60.0265 56.4077 58.7497 56.4077ZM56.4283 70.3301H51.7854V61.0485H56.4283V70.3301Z" fill="#663366"/>
<path d="M79.6433 56.4077H70.3576C69.0808 56.4077 68.0361 57.4519 68.0361 58.7281V72.6505C68.0361 73.9267 69.0808 74.9709 70.3576 74.9709H79.6433C80.9201 74.9709 81.9647 73.9267 81.9647 72.6505V58.7281C81.9647 57.4519 80.9201 56.4077 79.6433 56.4077ZM77.3218 70.3301H72.679V61.0485H77.3218V70.3301Z" fill="#663366"/>
<path d="M112.143 51.7671C105.225 51.7671 98.6321 54.3659 93.5714 58.8907V23.5279C96.3339 22.5997 98.3304 20.0241 98.3304 16.9612V12.3204C98.3304 11.0442 97.2857 10 96.0089 10H12.3214C11.0446 10 10 11.0442 10 12.3204V16.9612C10 19.9777 11.95 22.5301 14.6429 23.5047V126.437C11.95 127.389 10 129.941 10 132.981V137.622C10 138.898 11.0446 139.942 12.3214 139.942H98.2143C99.4911 139.942 100.536 138.898 100.536 137.622V132.981C100.536 129.152 97.4018 126.02 93.5714 126.02V114.186C100.907 128.711 109.961 138.689 110.425 139.176C110.866 139.664 111.493 139.919 112.143 139.919C112.793 139.919 113.42 139.64 113.861 139.176C114.929 138.016 140 110.311 140 79.5886C140 64.2276 127.511 51.7439 112.143 51.7439V51.7671ZM14.6429 14.6408H93.6875V16.9612C93.6875 18.2374 92.6429 19.2816 91.3661 19.2816H16.9643C15.6875 19.2816 14.6429 18.2374 14.6429 16.9612V14.6408ZM95.8929 132.981V135.301H14.6429V132.981C14.6429 131.705 15.6875 130.661 16.9643 130.661H93.5714C94.8482 130.661 95.8929 131.705 95.8929 132.981ZM70.3571 126.02H58.75V102.816H70.3571V126.02ZM72.6786 98.175H37.8571V95.8546C37.8571 94.5784 38.9018 93.5342 40.1786 93.5342H72.6786C73.9554 93.5342 75 94.5784 75 95.8546V98.175H72.6786ZM42.5 102.816H54.1071V126.02H42.5V102.816ZM75 126.02V102.816H77.3214C78.5982 102.816 79.6429 101.772 79.6429 100.495V95.8546C79.6429 92.0259 76.5089 88.8934 72.6786 88.8934H40.1786C36.3482 88.8934 33.2143 92.0259 33.2143 95.8546V100.495C33.2143 101.772 34.2589 102.816 35.5357 102.816H37.8571V126.02H19.2857V23.9224H88.9286V64.2276C88.7893 64.4365 88.6732 64.6685 88.5339 64.8773C88.3714 65.1558 88.1857 65.411 88.0464 65.6895C87.8607 66.0143 87.675 66.3624 87.5125 66.6872C87.3732 66.9657 87.2107 67.2441 87.0714 67.5226C86.9089 67.8706 86.7464 68.2187 86.6071 68.5668C86.4911 68.8452 86.3518 69.1469 86.2357 69.4253C86.0964 69.7734 85.9804 70.1446 85.8411 70.4927C85.7482 70.7943 85.6321 71.0728 85.5393 71.3744C85.4232 71.7457 85.3304 72.117 85.2375 72.5114C85.1679 72.8131 85.075 73.0915 85.0054 73.3932C84.9125 73.7876 84.8429 74.2053 84.7732 74.5998C84.7268 74.8782 84.6571 75.1567 84.6107 75.4351C84.5411 75.876 84.4946 76.3401 84.4482 76.8042C84.425 77.0362 84.3786 77.2682 84.3786 77.5235C84.3321 78.2196 84.3089 78.9157 84.3089 79.635C84.3089 80.5864 84.3321 81.561 84.3786 82.5355C84.3786 82.8372 84.425 83.1388 84.4482 83.4405C84.4946 84.1134 84.5411 84.7863 84.6107 85.4592C84.6571 85.8537 84.7036 86.2482 84.75 86.6426C84.8196 87.2459 84.8893 87.826 84.9821 88.4293C85.0518 88.8702 85.1214 89.3111 85.2143 89.752C85.3071 90.3089 85.4 90.8889 85.5161 91.4458C85.6089 91.8867 85.7018 92.3508 85.8179 92.8149C85.9339 93.3718 86.05 93.9287 86.1893 94.5088C86.3054 94.9728 86.4446 95.4369 86.5607 95.9242C86.7 96.4811 86.8393 97.038 87.0018 97.5949C87.1411 98.059 87.2804 98.5463 87.4429 99.0103C87.6054 99.5672 87.7911 100.147 87.9768 100.704C88.1393 101.168 88.3018 101.632 88.4643 102.12C88.65 102.63 88.8125 103.141 88.9982 103.651V126.066H75.0696L75 126.02ZM112.143 134.048C108.312 129.431 99.0036 117.272 93.4321 102.375C90.4375 94.4392 88.9286 86.7819 88.9286 79.6118C88.9286 78.4052 89.0214 77.2218 89.2071 76.0384C89.7411 72.5346 91.0875 69.1933 93.1536 66.2696C97.4946 60.0973 104.598 56.4079 112.143 56.4079C124.934 56.4079 135.357 66.8265 135.357 79.6118C135.357 103.999 117.761 127.25 112.143 134.048Z" fill="#663366"/>
<path d="M112.143 63.3691C103.182 63.3691 95.8926 70.6552 95.8926 79.6119C95.8926 88.5686 103.182 95.8547 112.143 95.8547C121.103 95.8547 128.393 88.5686 128.393 79.6119C128.393 70.6552 121.103 63.3691 112.143 63.3691ZM112.143 91.2139C105.735 91.2139 100.535 86.0162 100.535 79.6119C100.535 73.2076 105.735 68.0099 112.143 68.0099C118.55 68.0099 123.75 73.2076 123.75 79.6119C123.75 86.0162 118.55 91.2139 112.143 91.2139Z" fill="#663366"/>
</svg>
