<svg width="150" height="150" viewBox="0 0 150 150" fill="none" xmlns="http://www.w3.org/2000/svg">
<path d="M52.739 21.5586C52.4218 20.7468 52.8358 19.822 53.6476 19.5102C60.4646 16.8919 67.6474 15.5532 74.9969 15.5532C78.2871 15.5532 81.5612 15.8435 84.7977 16.3811L83.9321 14.8381C83.5074 14.08 83.7655 13.1016 84.5397 12.6768C85.2977 12.2521 86.2761 12.5102 86.7009 13.2844L89.4374 18.1445C89.6417 18.5155 89.7008 18.9402 89.5879 19.3542C89.4804 19.752 89.2008 20.0961 88.846 20.3058L83.986 23.0424C83.7387 23.1822 83.4752 23.2467 83.2172 23.2467C82.6688 23.2467 82.1312 22.9564 81.8409 22.4349C81.4162 21.6768 81.6742 20.6983 82.4484 20.2736L83.9322 19.4349C80.9537 18.9672 77.9861 18.736 74.9969 18.736C68.0347 18.736 61.2339 19.9887 54.7927 22.478C54.5992 22.5479 54.4056 22.5855 54.2282 22.5855C53.5831 22.5747 52.9917 22.1876 52.739 21.5586ZM94.0874 127.946C87.9747 130.15 81.5501 131.279 74.9967 131.279C67.2227 131.279 59.7169 129.709 52.6743 126.656L54.3141 126.215C55.1528 125.978 55.6635 125.113 55.4269 124.274C55.1904 123.435 54.3248 122.924 53.4861 123.161L48.1044 124.618C47.2657 124.855 46.755 125.72 46.9916 126.559L48.4485 131.941C48.6421 132.645 49.2764 133.113 49.9754 133.113C50.1152 133.113 50.2496 133.097 50.3894 133.059C51.2281 132.822 51.7388 131.957 51.5022 131.118L51.0345 129.414C58.6042 132.758 66.6583 134.467 74.996 134.467C81.9205 134.467 88.7053 133.285 95.1562 130.957C95.9841 130.656 96.4088 129.747 96.1078 128.935C95.8175 128.07 94.9101 127.645 94.0874 127.946ZM94.4584 20.4671C94.4584 19.9994 94.6627 19.5424 95.039 19.2413C95.41 18.9403 95.8938 18.8166 96.3454 18.9134C98.3024 19.2843 100.023 19.365 101.7 19.451C104.727 19.5908 107.592 19.7252 110.329 21.779C111.872 22.9349 113.055 24.3381 113.936 25.9886C114.501 24.6929 115.259 23.5101 116.178 22.4242C116.178 22.3005 116.178 22.1769 116.205 22.0532C117.264 17.9671 118.807 13.4081 123.845 11.2467C128.318 9.32203 134.925 9.70369 139.204 12.1553C139.618 12.3919 139.909 12.8005 139.973 13.2682C140.054 13.736 139.919 14.2198 139.602 14.5747C138.306 16.0531 137.371 17.5101 136.462 18.9133C134.823 21.4618 133.285 23.8704 130.129 25.2305C128.506 25.9348 126.855 26.2789 125.162 26.2789C123.016 26.2789 120.785 25.6875 118.457 24.5745C116.56 26.8756 115.678 29.7197 115.678 33.3003V33.8917L115.662 44.0208C115.662 44.9025 114.947 45.6014 114.081 45.6014C113.2 45.6014 112.501 44.8863 112.501 44.0208L112.517 35.9401C111.141 36.2573 109.721 36.4885 108.28 36.4885C105.979 36.4885 103.63 35.924 101.356 34.2305C97.4313 31.3165 94.4691 25.3972 94.4584 20.4671ZM120.689 18.6929C122.34 17.7144 124.238 16.8489 126.399 16.1176C127.227 15.8434 128.135 16.2843 128.41 17.1069C128.684 17.9348 128.243 18.8434 127.42 19.1176C124.818 19.9993 122.684 21.0315 120.99 22.2412C123.867 23.381 126.372 23.3971 128.888 22.3111C131.146 21.3326 132.259 19.6013 133.802 17.1927C134.42 16.2303 135.098 15.182 135.909 14.0798C132.538 12.8433 128.135 12.811 125.103 14.1228C122.974 15.0583 121.652 16.5854 120.689 18.6929ZM97.8028 22.338C98.4211 25.8756 100.582 29.7036 103.238 31.6821C105.539 33.4026 108.039 33.58 111.082 32.9886C108.77 30.8811 105.534 28.9671 103.636 28.0047C102.851 27.6069 102.55 26.6553 102.932 25.8703C103.329 25.0853 104.281 24.7843 105.066 25.166C105.587 25.4294 108.974 27.1876 111.974 29.5853C111.367 27.3434 110.211 25.6337 108.426 24.2842C106.458 22.8272 104.394 22.7143 101.528 22.5906C100.405 22.5583 99.1521 22.4939 97.8028 22.338ZM24.213 129.93C21.3529 128.634 19.4927 125.758 19.4927 122.607C19.4927 121.725 18.7777 121.026 17.9121 121.026C17.0304 121.026 16.3316 121.742 16.3316 122.607C16.3316 127 18.9175 131.005 22.912 132.822C23.1163 132.919 23.3528 132.962 23.5733 132.962C24.1808 132.962 24.756 132.618 25.0195 132.026C25.3528 131.236 25.0087 130.301 24.213 129.93ZM40.5883 101.962C43.1904 106.215 46.4215 111.527 46.4215 115.71C46.4215 119.398 44.1528 122.575 40.9324 123.898C40.9485 124.102 40.9754 124.323 40.9754 124.516C40.9754 133.048 34.024 140 25.492 140C16.9599 140 10.0085 133.048 10.0085 124.516C10.0085 116.919 16.062 106.984 20.9383 99.0111C21.6963 97.7745 22.4114 96.5863 23.0727 95.4895C23.5834 94.6239 24.4919 94.1132 25.4973 94.1132C26.5027 94.1132 27.4112 94.6239 27.922 95.4895C28.5832 96.5917 29.2983 97.7746 30.0563 99.0111C31.0456 100.635 32.1208 102.398 33.1799 104.215C33.6315 103.446 34.1046 102.672 34.54 101.947C34.9379 101.301 35.3088 100.678 35.6529 100.103C36.0508 99.4143 36.7819 99.0165 37.5668 99.0165C38.3517 99.0165 39.083 99.4305 39.4807 100.103C39.8194 100.699 40.1905 101.317 40.5883 101.962ZM37.7819 124.565C37.7013 124.565 37.6314 124.581 37.5453 124.581C32.6583 124.581 28.68 120.602 28.68 115.715C28.68 113.21 29.852 110.29 31.3359 107.457C30.0026 105.129 28.6371 102.86 27.3037 100.683C26.6585 99.6238 26.0349 98.6023 25.4597 97.6399C24.8791 98.6023 24.2608 99.6238 23.6157 100.683C18.9492 108.323 13.1536 117.834 13.1536 124.549C13.1536 131.334 18.6749 136.855 25.4597 136.855C32.2499 136.828 37.7658 131.334 37.7819 124.565ZM43.2442 115.71C43.2442 112.409 40.1475 107.328 37.8788 103.613C37.7713 103.436 37.6584 103.253 37.5616 103.091C37.4541 103.269 37.3573 103.436 37.2444 103.613C34.9757 107.328 31.879 112.409 31.879 115.71C31.879 118.85 34.4274 121.393 37.5616 121.393C40.6852 121.398 43.2442 118.85 43.2442 115.71ZM140 119.538C140 130.823 130.817 139.989 119.549 139.989C108.276 139.989 99.0824 130.822 99.0824 119.538C99.0824 108.253 108.265 99.0866 119.533 99.0866C130.807 99.0866 140 108.269 140 119.538ZM102.248 119.538C102.248 123.296 103.458 126.747 105.495 129.586C107.436 125.21 111.371 121.962 115.995 120.844C113.323 119.538 111.479 116.796 111.479 113.634C111.479 109.204 115.086 105.597 119.516 105.597C123.946 105.597 127.554 109.204 127.554 113.634C127.554 116.801 125.71 119.538 123.038 120.844C127.677 121.957 131.597 125.22 133.537 129.586C135.575 126.753 136.785 123.285 136.785 119.538C136.785 110 129.038 102.252 119.5 102.252C109.968 102.252 102.248 110.016 102.248 119.538ZM124.404 113.645C124.404 110.963 122.216 108.774 119.533 108.774C116.85 108.774 114.662 110.962 114.662 113.645C114.662 116.328 116.85 118.516 119.533 118.516C122.215 118.506 124.404 116.317 124.404 113.645ZM119.533 123.586C114.178 123.586 109.404 127.178 107.861 132.258C110.942 135.081 115.033 136.828 119.533 136.828C124.033 136.828 128.119 135.092 131.205 132.258C129.662 127.194 124.904 123.586 119.533 123.586ZM128.468 88.7798C128.14 87.968 127.199 87.597 126.387 87.925C125.576 88.2691 125.205 89.1938 125.533 90.0056L127.678 95.1508C127.925 95.7583 128.516 96.1293 129.135 96.1293C129.339 96.1293 129.549 96.0863 129.742 96.0057L134.887 93.8605C135.699 93.5164 136.07 92.5917 135.742 91.7799C135.414 90.9681 134.473 90.5971 133.662 90.925L132.049 91.5971C133.602 86.2315 134.403 80.6562 134.403 74.9997C134.403 62.4728 130.549 50.4884 123.269 40.3433C122.759 39.6283 121.769 39.4777 121.054 39.9831C120.339 40.4939 120.189 41.4831 120.694 42.1982C127.592 51.7897 131.237 63.1338 131.237 74.9938C131.237 80.225 130.522 85.3863 129.103 90.3703L128.468 88.7798ZM21.8317 60.1078C22.079 60.7261 22.6704 61.1132 23.3048 61.1132C23.4983 61.1132 23.6919 61.0702 23.8854 61.0057C24.6972 60.6884 25.0951 59.7691 24.7779 58.9572L22.7403 53.7691C22.4231 52.9573 21.5037 52.5594 20.6919 52.8766L15.5039 54.9143C14.6921 55.2315 14.2943 56.1509 14.6115 56.9627C14.9287 57.7746 15.848 58.1724 16.6598 57.8552L18.2996 57.21C16.477 62.9413 15.5523 68.9304 15.5523 75.0007C15.5523 80.3125 16.2566 85.5867 17.6436 90.6883C17.8371 91.3926 18.4715 91.8603 19.1705 91.8603C19.3103 91.8603 19.4447 91.8442 19.5844 91.8065C20.4231 91.57 20.9339 90.7044 20.6973 89.8656C19.3963 85.0216 18.735 80.0216 18.735 74.9997C18.735 69.3707 19.5737 63.8384 21.1973 58.5111L21.8317 60.1078ZM16.6007 34.9083L13.176 36.8922C12.418 37.333 12.1599 38.2953 12.5954 39.0534C12.8857 39.5642 13.4233 39.8491 13.9717 39.8491C14.2459 39.8491 14.5093 39.7793 14.7566 39.6448L18.1813 37.661C18.9393 37.2201 19.1974 36.2578 18.7619 35.4997C18.3318 34.7416 17.3587 34.4782 16.6007 34.9083ZM19.6813 46.1503C19.9286 46.2901 20.2027 46.3546 20.4662 46.3546C21.0146 46.3546 21.5522 46.0643 21.8425 45.5589L23.8263 42.1341C24.2671 41.3761 24.0037 40.3976 23.2457 39.9729C22.4876 39.532 21.5092 39.7954 21.0845 40.5535L19.1006 43.9783C18.6652 44.7471 18.9286 45.7094 19.6813 46.1503ZM27.7885 43.1933V47.1557C27.7885 48.0374 28.5036 48.7363 29.3691 48.7363C30.2508 48.7363 30.9496 48.0212 30.9496 47.1557V43.1933C30.9496 42.3116 30.2346 41.6128 29.3691 41.6128C28.4928 41.6074 27.7885 42.3278 27.7885 43.1933ZM41.6053 29.3762C41.6053 30.2579 42.3203 30.9568 43.1858 30.9568H47.1481C48.0298 30.9568 48.7286 30.2418 48.7286 29.3762C48.7286 28.4945 48.0136 27.7956 47.1481 27.7956H43.1858C42.3256 27.7902 41.6053 28.4945 41.6053 29.3762ZM21.0845 18.1827C21.3749 18.6934 21.9125 18.9784 22.4608 18.9784C22.735 18.9784 22.9985 18.9085 23.2458 18.7741C24.0038 18.3332 24.2619 17.3709 23.8264 16.6128L21.8426 13.188C21.4017 12.43 20.4394 12.1719 19.6814 12.6074C18.9287 13.0375 18.6653 13.9998 19.1061 14.7579L21.0845 18.1827ZM35.4986 18.7633C35.7459 18.9031 36.0201 18.9676 36.2835 18.9676C36.8319 18.9676 37.3695 18.6773 37.6598 18.1719L39.6436 14.7472C40.0845 13.9891 39.8211 13.0106 39.063 12.5859C38.305 12.145 37.3265 12.4085 36.9018 13.1666L34.918 16.5913C34.4771 17.3601 34.7405 18.3332 35.4986 18.7633ZM29.3751 17.1236C30.2407 17.1236 30.9557 16.4246 30.9557 15.543V11.5806C30.9557 10.6989 30.2407 10 29.3751 10C28.4934 10 27.7946 10.7151 27.7946 11.5806L27.7892 15.543C27.7892 16.4247 28.4935 17.1236 29.3751 17.1236ZM13.1719 21.844L16.5965 23.8279C16.8438 23.9676 17.118 24.0322 17.3815 24.0322C17.9298 24.0322 18.4674 23.7418 18.7578 23.2365C19.1986 22.4784 18.9352 21.4999 18.1771 21.0752L14.7578 19.1074C13.9998 18.6666 13.0374 18.93 12.5966 19.6827C12.1558 20.4408 12.4192 21.4193 13.1719 21.844ZM11.5806 30.9569H15.5428C16.4245 30.9569 17.1234 30.2419 17.1234 29.3763C17.1234 28.4946 16.4084 27.7957 15.5428 27.7957L11.5806 27.7904C10.6989 27.7904 10 28.5054 10 29.3709C9.99465 30.2419 10.7097 30.9569 11.5806 30.9569ZM39.9724 23.2472C40.2628 23.7579 40.8004 24.0429 41.3487 24.0429C41.6229 24.0429 41.8864 23.973 42.1337 23.8386L45.5583 21.8547C46.3164 21.4139 46.5744 20.4515 46.139 19.6934C45.6981 18.9354 44.7358 18.6773 43.9777 19.1128L40.5531 21.0966C39.795 21.516 39.5316 22.4945 39.9724 23.2472ZM36.8865 45.5756C37.1768 46.0864 37.7144 46.3713 38.2628 46.3713C38.537 46.3713 38.8004 46.3014 39.0477 46.167C39.8057 45.7262 40.0638 44.7638 39.6283 44.0057L37.6445 40.581C37.2037 39.8229 36.2414 39.5649 35.4833 40.0003C34.7253 40.4412 34.4672 41.4035 34.9027 42.1616L36.8865 45.5756ZM40.5477 37.6616L43.9724 39.6455C44.2197 39.7853 44.4939 39.8498 44.7573 39.8498C45.3057 39.8498 45.8433 39.5595 46.1336 39.0541C46.5745 38.2961 46.311 37.3176 45.553 36.8928L42.1283 34.909C41.3703 34.4681 40.3918 34.7315 39.9671 35.4896C39.5316 36.2584 39.7951 37.2208 40.5477 37.6616ZM29.376 38.6509C24.2578 38.6509 20.102 34.4789 20.102 29.3767C20.102 24.2583 24.2739 20.1024 29.376 20.1024C34.4942 20.1024 38.6499 24.2744 38.6499 29.3767C38.6499 34.495 34.4942 38.6509 29.376 38.6509ZM35.4833 29.3767C35.4833 26.0057 32.7468 23.2638 29.3706 23.2638C25.9997 23.2638 23.2579 26.0004 23.2579 29.3767C23.2579 32.7476 25.9944 35.4896 29.3706 35.4896C32.7468 35.4842 35.4833 32.7476 35.4833 29.3767ZM37.2467 74.9998C37.2467 54.188 54.1766 37.2466 74.9988 37.2466C95.8099 37.2466 112.751 54.177 112.751 74.9998C112.751 95.8115 95.8209 112.753 74.9988 112.753C54.1876 112.753 37.2467 95.8115 37.2467 74.9998ZM74.9988 109.575C78.7137 109.575 82.2943 108.984 85.6491 107.881C84.4125 107.113 83.5578 106.301 82.9233 105.596C82.4986 105.129 82.1384 104.661 81.7943 104.22C80.6814 102.801 79.8804 101.785 77.7083 101.177C76.004 100.709 74.8158 99.5533 74.2944 97.8329C73.2353 94.3114 75.3803 89.6287 75.6277 89.1233C76.8965 86.4673 77.1276 85.1178 77.1007 84.4566C77.0846 83.9889 76.9932 83.8383 76.4395 83.6448C76.0416 83.505 75.5147 83.4082 74.9664 83.3169C73.2728 83.0158 70.4504 82.5212 70.0794 79.3813C70.0794 79.3383 70.0633 79.2846 70.0633 79.2415C69.9665 75.9781 72.7729 73.6394 74.4663 72.5372C75.4825 71.8759 78.1437 70.376 80.6436 70.8436C82.2834 71.1447 83.3156 72.1662 84.235 73.1823C86.5736 75.7683 87.3478 75.9511 87.5521 75.9189C87.579 75.9189 88.2403 75.7684 89.2886 73.1501C89.7994 71.8544 90.8048 71.0856 92.0951 70.962C93.2348 70.8545 94.4068 71.333 95.3853 72.3115C95.6057 72.5319 95.7992 72.7953 96.0035 73.0534C96.3046 73.4513 96.7992 74.1125 97.1433 74.1824C97.4175 74.1663 98.2454 73.5642 98.7238 73.2039C98.8475 73.1233 98.9604 73.0265 99.084 72.9405C100.38 72.005 101.45 71.5373 102.471 71.4567C103.53 71.3868 104.299 71.7577 104.863 72.0373C105.347 72.2739 105.595 72.3814 105.966 72.3653C106.584 72.3491 107.67 71.0696 108.761 67.6448C108.18 64.9459 107.288 62.376 106.116 59.9513C106.089 59.9943 106.073 60.032 106.046 60.0588C105.374 60.9836 104.396 61.2309 103.611 61.4352C103.073 61.575 102.562 61.7094 102.03 62.0266C101.907 62.1072 101.605 62.4513 101.396 62.6879C100.874 63.2793 100.24 64.0105 99.4012 64.4513C98.8905 64.7147 98.369 64.8491 97.8314 64.8491C97.5572 64.8491 97.283 64.8061 97.0035 64.7416C95.9712 64.4674 95.0089 63.7362 94.2508 63.1447C94.0465 62.9781 93.8369 62.8275 93.6863 62.72C93.4928 62.5802 93.2616 62.5157 92.9713 62.4028C91.7348 61.9781 90.4821 61.3544 89.9982 58.9458C89.8746 58.3544 89.7939 57.7093 89.6971 57.0049C89.5036 55.5748 89.2832 53.962 88.7617 52.8329C88.6649 52.6286 88.5843 52.5695 88.2671 52.3652C87.966 52.1716 87.552 51.9136 87.208 51.4566C86.466 50.4405 86.6166 49.1878 86.8209 48.1931C86.9714 47.505 86.9983 47.2146 86.9875 47.091C86.7832 46.8974 86.0628 46.5265 85.7779 46.3759C83.7672 45.3168 82.7779 43.6071 82.7887 41.2953C80.9715 40.8706 79.1006 40.591 77.1867 40.4673C77.5576 41.0319 77.9017 41.6501 78.0523 42.3276C78.3802 43.6878 77.8587 44.9136 76.633 45.6986C75.6545 46.333 75.09 47.0319 74.9126 47.8706C74.461 49.919 75.8051 51.6287 77.348 53.5964C78.106 54.5481 78.8749 55.5374 79.4393 56.5965C80.1006 57.8653 80.235 58.9244 79.864 59.8599C79.3533 61.1395 78.0898 61.5803 77.6597 61.7202C77.0415 61.9245 76.3533 62.0481 75.692 62.1718C75.0576 62.2793 74.3963 62.4084 73.9017 62.5858C73.2566 62.8223 72.977 62.9137 73.4179 64.1395C74.5039 67.1825 73.0577 70.4837 69.9233 72.1771C67.3642 73.5535 63.687 73.6234 61.2514 70.6502C61.2353 70.6341 61.2246 70.6072 61.2084 70.5964C60.1493 69.1771 58.816 68.0803 57.3537 67.419C56.4451 67.005 55.7139 66.9244 55.3053 67.1824C54.9182 67.419 54.6602 68.0373 54.6172 68.763C54.5365 70.5534 55.1279 70.9511 57.1763 72.0533C57.5902 72.2738 58.0311 72.5049 58.4827 72.7845C58.7461 72.9351 59.0203 73.1017 59.3106 73.2684C60.1923 73.7899 61.1977 74.3705 62.4234 75.1394C63.6761 75.9243 67.461 78.3061 66.6598 82.4351C66.2996 84.2523 65.7781 85.2846 65.4341 85.9566C65.3803 86.0641 65.3104 86.1932 65.2674 86.2846C65.391 86.4889 65.719 86.919 66.5201 87.7577C69.3802 90.6179 69.6867 94.1717 67.305 96.8438C65.6007 98.7577 62.7513 99.8599 59.6117 99.8599C59.445 99.8599 59.2945 99.8599 59.1278 99.8438C57.644 99.79 56.5795 99.3922 55.8913 98.618C54.9397 97.5427 55.0634 96.1394 55.1333 95.3007L55.1602 94.9566C55.2408 94.1179 55.3107 93.3168 55.0526 92.6878C54.6655 91.7523 53.3752 91.0481 51.214 90.5965C48.8484 90.0857 47.8807 88.3546 48.3378 85.4352C48.3808 85.1449 48.4345 84.8545 48.4883 84.5804C48.5689 84.1126 48.655 83.6717 48.6818 83.3115C48.7356 82.5535 48.6012 82.333 48.6012 82.333C48.5474 82.29 48.327 82.2255 47.6496 82.1556C47.3862 82.1287 46.9614 82.1287 46.4937 82.1287C44.9507 82.1287 42.8487 82.1126 40.9724 81.3008C40.9563 81.3008 40.9563 81.2846 40.9455 81.2846C43.9776 97.3659 58.0853 109.575 74.9988 109.575ZM109.573 74.9998C109.573 74.5051 109.557 74.0105 109.53 73.5267C108.648 74.6987 107.519 75.5213 106.089 75.5643C104.917 75.6074 104.095 75.2041 103.503 74.9192C103.079 74.7149 102.896 74.645 102.708 74.6557C102.487 74.6719 101.976 74.8063 100.96 75.5375C100.853 75.6181 100.74 75.7041 100.632 75.7848C99.4604 76.6504 98.1271 77.6288 96.5573 77.3278C95.0036 77.0267 94.052 75.7472 93.4767 74.973C93.3692 74.8224 93.2133 74.6289 93.1595 74.5751C92.8154 74.2311 92.552 74.1343 92.4015 74.1504C92.3585 74.1504 92.3477 74.1666 92.3316 74.1666C92.3316 74.1666 92.2886 74.2203 92.2348 74.3601C91.4391 76.3547 90.251 78.6826 88.122 79.0698C85.8533 79.4838 83.7996 77.4569 81.8857 75.3387C81.1545 74.543 80.676 74.1021 80.0685 73.9892C79.1331 73.8118 77.6171 74.3064 76.203 75.2258C75.4987 75.6774 73.2462 77.3064 73.2462 79.1075C73.3268 79.6989 73.6601 79.8924 75.5149 80.2204C76.16 80.3279 76.8374 80.4569 77.4826 80.672C79.6869 81.4408 80.2191 83.0967 80.2781 84.3333C80.348 85.8603 79.7835 87.828 78.504 90.5108C77.7352 92.1076 76.7997 95.1506 77.3481 96.9409C77.5524 97.6022 77.9126 97.9571 78.5738 98.1399C81.7404 99.0216 83.1006 100.742 84.2996 102.285C84.6275 102.71 84.9447 103.097 85.2888 103.495C86.1167 104.419 87.3103 105.462 89.6811 106.301C101.423 100.764 109.573 88.8169 109.573 74.9998ZM86.0629 42.2414C86.2672 42.9833 86.7511 43.3166 87.2726 43.5908C89.8478 44.9403 90.5897 45.8919 89.9284 48.892C89.8478 49.2791 89.8316 49.4995 89.8316 49.6232C89.8747 49.65 89.9123 49.6769 89.9553 49.7038C90.4069 49.9941 91.165 50.4619 91.6596 51.5478C92.3639 53.0908 92.6112 54.9618 92.8424 56.6016C92.923 57.2468 93.009 57.8543 93.1165 58.3382C93.2832 59.1769 93.3531 59.193 94.009 59.4242C94.4337 59.5747 94.9606 59.7521 95.5089 60.1392C95.7293 60.2898 95.9605 60.4672 96.197 60.65C96.7078 61.0478 97.4067 61.5855 97.8368 61.6984C97.8529 61.6984 97.8798 61.6822 97.9336 61.6554C98.2508 61.4887 98.6647 61.021 99.0357 60.607C99.4873 60.0962 99.9174 59.6016 100.466 59.2844C101.391 58.7468 102.229 58.5425 102.831 58.3758C103.079 58.3059 103.412 58.2252 103.52 58.1715C103.756 57.8274 103.891 57.1392 103.934 56.107C99.7454 49.6875 93.4546 44.7465 86.0629 42.2414ZM40.4245 74.9998C40.4245 77.3009 41.4299 78.0266 42.2955 78.3977C43.5643 78.9461 45.2954 78.9622 46.5643 78.9622C47.1449 78.9622 47.6234 78.9622 48.0481 79.016C49.1771 79.1396 52.1931 79.4676 51.8867 83.559C51.8437 84.0966 51.7469 84.645 51.6502 85.1827C51.6071 85.4461 51.5534 85.6934 51.5104 85.9515C51.2899 87.3978 51.4835 87.4353 51.9082 87.5321C55.1984 88.2364 57.193 89.5267 58.0048 91.5106C58.5693 92.8708 58.4457 94.2094 58.3489 95.2955L58.322 95.6127C58.2683 96.1934 58.279 96.4407 58.3059 96.5482C58.3866 96.5912 58.65 96.688 59.2575 96.6987C61.6231 96.7794 63.8004 96.0375 64.9562 94.7417C66.1928 93.3493 65.9616 91.6718 64.2842 90.0052L64.2573 89.9783C62.7412 88.3814 61.8488 87.3063 62.123 85.8331C62.2197 85.3493 62.4133 84.9514 62.6337 84.5374C62.9348 83.946 63.3057 83.2149 63.5692 81.8386C63.7466 80.9138 63.596 79.6235 60.7627 77.8494C59.58 77.1074 58.6015 76.5429 57.736 76.0322C57.4456 75.8655 57.1714 75.7042 56.8973 75.5375C56.4994 75.301 56.0854 75.0859 55.6984 74.8763C53.6339 73.7634 51.2953 72.5106 51.4727 68.6398C51.5533 66.8387 52.3813 65.2957 53.677 64.5107C54.6286 63.9301 56.2629 63.4623 58.6876 64.5645C60.6284 65.4462 62.3918 66.8763 63.7681 68.7096C65.1444 70.3601 67.1014 70.1666 68.4616 69.4247C69.8808 68.6559 71.1067 67.0322 70.4722 65.2418C69.5206 62.5698 70.3916 60.5214 72.8807 59.6397C73.6227 59.3762 74.4076 59.2257 75.1494 59.0913C75.7301 58.9838 76.2785 58.887 76.6763 58.7472C76.7731 58.7203 76.843 58.6935 76.8968 58.6666C76.8699 58.559 76.8 58.3762 76.6602 58.1182C76.2355 57.3225 75.5849 56.4784 74.886 55.6021C73.1817 53.4408 71.0743 50.758 71.8322 47.2365C72.2032 45.559 73.2515 44.1666 74.945 43.0806C74.9612 43.0806 74.9612 43.0645 74.9719 43.0645C74.8644 42.7043 74.4773 42.1559 74.1762 41.7043C73.9021 41.2903 73.6279 40.8925 73.4182 40.4946C55.0858 41.2957 40.4245 56.4632 40.4245 74.9998Z" fill="#663366"/>
</svg>
