<svg width="150" height="150" viewBox="0 0 150 150" fill="none" xmlns="http://www.w3.org/2000/svg">
<path fill-rule="evenodd" clip-rule="evenodd" d="M117.62 25.0839V44.1397C117.978 44.1183 118.342 44.1075 118.701 44.1075H118.706C129.36 44.1075 138 52.7589 138 63.4309C138 74.0977 129.359 82.7489 118.706 82.7489C118.342 82.7489 117.984 82.7381 117.625 82.7167V86.308L130.805 91.0464V91.0518C131.951 91.4484 132.711 92.5365 132.7 93.7479C132.7 94.3375 132.518 94.9164 132.181 95.4041C132.004 95.6507 131.79 95.8758 131.539 96.0527V109.876C133 110.493 133.953 111.924 133.953 113.51V117.032C133.953 119.208 132.192 120.972 130.018 120.972C127.845 120.972 126.083 119.208 126.083 117.032V113.51C126.083 111.924 127.036 110.493 128.498 109.876V97.2745L125.034 98.5181V123.48C125.045 125.104 124.028 126.557 122.496 127.093L117.614 128.845V137.127C117.609 137.888 117.309 138.617 116.774 139.153L116.763 139.164V139.158C116.228 139.694 115.499 140 114.745 140H19.8109C19.0186 140 18.2584 139.684 17.7016 139.121C17.6641 139.083 17.6266 139.041 17.5945 139.003C17.0966 138.456 16.8236 137.743 16.8236 137.009V49.804H14.9819C14.1896 49.804 13.4348 49.4877 12.8726 48.9303C12.3159 48.3675 12 47.6117 12 46.8183V38.0168C12.0054 36.3713 13.3384 35.0366 14.9819 35.0312H25.1535V17.102C25.1535 16.8018 25.2231 16.507 25.3516 16.2336C25.6139 15.6762 26.1118 15.2688 26.706 15.1133C26.781 15.0865 26.8613 15.0651 26.9416 15.0544C27.1611 15.0222 27.3806 15.0276 27.6001 15.0704L71.3323 23.4752C72.3013 23.6628 73.0027 24.5097 73.008 25.4961V35.0318H83.1797C83.972 35.0318 84.7322 35.348 85.289 35.9109C85.3265 35.9484 85.3586 35.9859 85.3961 36.0288C85.8939 36.5755 86.167 37.2831 86.167 38.0227V46.8134C86.167 47.6013 85.8511 48.3624 85.289 48.92H85.2836C84.7269 49.4828 83.9667 49.799 83.1797 49.799H81.3327V86.227L90.6209 82.8876V25.0834H89.8821C89.3253 25.078 88.79 24.8583 88.3939 24.4616C87.9977 24.065 87.7782 23.529 87.7782 22.9662V18.2867C87.7782 17.7292 88.0031 17.1932 88.3939 16.802L88.4046 16.7913C88.7954 16.3946 89.3307 16.1748 89.8874 16.1748H90.6262L90.6209 12.1065C90.6262 11.5491 90.8457 11.013 91.2419 10.6218C91.638 10.2251 92.1734 10 92.7301 10H115.509C116.676 10 117.618 10.9434 117.618 12.1066V16.1749H118.357C118.919 16.1749 119.455 16.3947 119.845 16.7967C119.899 16.845 119.947 16.8986 119.99 16.9575C120.3 17.3327 120.466 17.7991 120.466 18.2868V22.9717C120.466 24.1349 119.524 25.0837 118.362 25.0837L117.62 25.0839ZM50.5999 101.081V136.952H64.7283V101.081H50.5999ZM47.5591 136.952V101.081H33.4307V136.952H47.5591ZM76.575 38.0828V46.7609H83.1276L83.1223 38.0828H76.575ZM73.5289 46.7609V38.0828H63.5875V46.7609H73.5289ZM60.5466 46.7609V38.0828H50.5999V46.7609H60.5466ZM47.5644 46.7609V38.0828H37.6124V46.7609H47.5644ZM34.5822 46.7609V38.0828H24.6301V46.7609H34.5822ZM21.6 46.7609L21.5946 38.0828H15.0366V46.7609H21.6ZM28.2061 35.0328H69.9635V26.3224L28.1952 18.2875V35.0325L28.2061 35.0328ZM19.8655 81.4627H33.3884C34.2235 81.4627 34.9088 82.1489 34.9088 82.9851V88.6937C34.9088 89.1011 34.7482 89.487 34.4645 89.7711C34.1754 90.0606 33.7899 90.2214 33.3884 90.2214H19.8655V136.952H30.3851L30.3905 100.374C30.3905 99.7525 30.6367 99.1629 31.0757 98.7234C31.5093 98.2839 32.0982 98.0373 32.7192 98.0373H65.4341C66.0498 98.0427 66.644 98.2892 67.0776 98.7234L67.0883 98.7341C67.5219 99.1683 67.7682 99.7633 67.7682 100.38V136.952H78.2878L78.2931 127.834L76.2214 127.089C74.6903 126.553 73.6677 125.1 73.6784 123.476V98.5186L67.9181 96.4496C66.7725 96.0422 66.007 94.9649 66.007 93.748C66.007 92.5366 66.7725 91.4538 67.9181 91.0519L78.2931 87.3211V49.805H19.8651V58.0757H33.388C33.7895 58.0757 34.175 58.2365 34.4641 58.5206C34.7478 58.8047 34.9084 59.196 34.9084 59.598V65.3067C34.9084 65.7087 34.7478 66.1 34.4641 66.3841C34.175 66.6682 33.7895 66.829 33.388 66.829H19.8651V69.7717H33.388C33.7895 69.7717 34.175 69.9271 34.4641 70.2166C34.7478 70.5006 34.9084 70.8866 34.9084 71.294V77.0026C34.9084 77.4046 34.7478 77.7906 34.4641 78.08C34.175 78.3641 33.7895 78.5249 33.388 78.5249H19.8651L19.8655 81.4627ZM19.8655 87.1714H31.8626V84.5127H19.8655V87.1768V87.1714ZM19.8655 75.4702L31.8626 75.4755V72.8169H19.8655V75.4809V75.4702ZM19.8655 63.769L31.8626 63.7743V61.121H19.8655V63.785V63.769ZM118.706 61.6893C120.227 61.6893 121.538 60.6119 121.838 59.1164C122.133 57.6209 121.335 56.1254 119.927 55.5411C118.525 54.9568 116.902 55.45 116.057 56.7203C115.211 57.9853 115.377 59.6737 116.453 60.7512C117.047 61.3515 117.861 61.6893 118.706 61.6893ZM114.076 62.6755C109.975 64.5087 107.33 68.5825 107.33 73.0796C107.314 73.4923 107.469 73.8943 107.759 74.1892C108.042 74.484 108.438 74.6501 108.851 74.6501C109.263 74.6501 109.654 74.484 109.943 74.1892C110.232 73.8943 110.382 73.4923 110.371 73.0796C110.371 68.4698 114.103 64.7338 118.706 64.7338C123.31 64.7338 127.042 68.4699 127.042 73.0796C127.031 73.4923 127.186 73.8943 127.47 74.1892C127.759 74.484 128.15 74.6501 128.562 74.6501C128.974 74.6501 129.37 74.484 129.654 74.1892C129.943 73.8943 130.099 73.4923 130.082 73.0796C130.082 68.5825 127.438 64.5087 123.337 62.6755C124.986 60.8424 125.403 58.2105 124.402 55.9539C123.401 53.7027 121.169 52.2501 118.706 52.2501C116.244 52.2501 114.011 53.7027 113.01 55.9539C112.009 58.2105 112.427 60.8424 114.076 62.6755ZM114.584 44.5528V25.0839H93.6679L93.6625 46.8307H108.823C110.606 45.764 112.549 44.9975 114.578 44.5525L114.584 44.5528ZM104.953 49.8808H93.663V53.1719H102.352V53.1665C103.096 51.9819 103.968 50.8777 104.948 49.8808L104.953 49.8808ZM100.799 56.2219H93.6631V81.7957L98.3955 80.0965C99.0165 79.8607 99.7071 79.8607 100.328 80.0965L114.579 85.2209V82.3049C109.032 81.0882 104.305 77.4862 101.65 72.4636C98.9946 67.4357 98.6845 61.4964 100.799 56.2219ZM130.195 51.9284C124.713 46.4342 116.12 45.5873 109.669 49.9022C103.223 54.2171 100.718 62.4879 103.684 69.6647C106.655 76.8367 114.268 80.9104 121.874 79.3934C129.476 77.8818 134.958 71.1976 134.953 63.4305C134.958 59.1156 133.245 54.9721 130.194 51.9276L130.195 51.9284ZM123.369 95.898L106.378 93.9791C105.971 93.9416 105.596 93.7433 105.339 93.427C105.082 93.1108 104.964 92.7034 105.007 92.3014C105.05 91.894 105.259 91.5242 105.575 91.2722C105.896 91.0203 106.303 90.9078 106.71 90.956L128.376 93.4002L99.3598 82.9692L69.3804 93.7486L99.3598 104.528L123.369 95.898ZM130.024 112.617C129.531 112.622 129.135 113.019 129.135 113.512V117.034C129.151 117.511 129.547 117.891 130.024 117.891C130.505 117.891 130.901 117.511 130.918 117.034V113.512C130.918 113.019 130.516 112.622 130.024 112.617ZM121.999 99.624L100.328 107.402C99.7075 107.643 99.0169 107.643 98.3958 107.402L76.7257 99.6133V123.483C76.7149 123.82 76.9291 124.126 77.2449 124.233L99.0878 132.086C99.2645 132.15 99.4518 132.15 99.6285 132.086L121.475 124.233C121.797 124.126 122.011 123.82 122 123.483V99.6133L121.999 99.624ZM81.3335 128.927V136.952H90.6217V132.267L81.3335 128.927ZM93.6626 133.355V136.946H114.579L114.584 129.935L100.655 134.942C99.8195 135.258 98.9041 135.258 98.069 134.942L93.6626 133.355ZM50.9417 58.5698C50.1012 58.5698 49.4213 59.2505 49.4213 60.0921V66.5726H42.9489C42.1084 66.5726 41.4231 67.2533 41.4231 68.0949V79.0082C41.4231 79.8498 42.1084 80.5305 42.9489 80.5305H49.4213V87.0111C49.4213 87.8526 50.1012 88.5334 50.9417 88.5334H61.836C62.6765 88.5334 63.3564 87.8526 63.3564 87.0111V80.5305H69.8288C70.6693 80.5305 71.3492 79.8498 71.3492 79.0082V68.0949C71.3492 67.2534 70.6693 66.5726 69.8288 66.5726H63.3564V60.0921C63.3564 59.2505 62.6765 58.5698 61.836 58.5698H50.9417ZM60.321 61.6198H52.4621V68.1003V68.0949C52.4621 68.9365 51.7822 69.6226 50.9417 69.6226H44.4693V77.4807H50.9417C51.7822 77.4807 52.4621 78.1668 52.4621 79.0083V85.4835H60.3157V79.0083C60.3157 78.1668 60.9956 77.4807 61.8361 77.4807H68.3085V69.6226H61.8361C61.4293 69.6226 61.0438 69.4618 60.7601 69.1723C60.471 68.8883 60.3104 68.5023 60.3157 68.0949V61.6198L60.321 61.6198ZM93.6623 16.1764H114.579L114.584 13.0461H93.6676L93.6623 16.1764ZM117.421 19.2264H90.8199V22.0405L117.421 22.0352V19.2264Z" fill="#663366"/>
</svg>
