<svg width="150" height="150" viewBox="0 0 150 150" fill="none" xmlns="http://www.w3.org/2000/svg">
<path d="M138.884 68.6969C140.21 66.7985 140.363 64.4429 139.296 62.3985C138.236 60.3477 136.212 59.1223 133.895 59.1223L64.14 59.116C62.4897 59.116 60.9979 59.7319 59.8364 60.8938L42.8113 77.9232C37.1365 83.5994 31.468 89.2757 25.7992 94.946C24.3012 96.4317 23.6981 98.4699 24.1425 100.559C24.5996 102.616 25.9897 104.222 27.9639 104.952C31.6455 106.324 35.3271 107.695 39.0088 109.067C39.0596 109.092 39.1167 109.111 39.1675 109.124C56.5403 115.606 73.9213 122.083 91.2941 128.559C92.0114 128.825 92.7414 128.959 93.4586 128.959C93.9791 128.959 94.4933 128.882 94.9947 128.749V134.908H91.5733C90.1641 134.908 89.0279 136.051 89.0279 137.454C89.0279 138.864 90.1705 140 91.5733 140H119.738C121.147 140 122.283 138.857 122.283 137.454C122.283 136.044 121.141 134.908 119.738 134.908H116.316V100.864C123.864 90.1146 131.405 79.3598 138.883 68.6988L138.884 68.6969ZM133.895 64.2144C134.301 64.2144 134.586 64.3858 134.771 64.7477C134.961 65.1096 134.936 65.4461 134.707 65.7699C129.527 73.1542 124.316 80.5827 119.098 88.0185C108.834 86.482 99.6307 85.1168 91.366 83.9042C97.1867 76.9264 102.805 70.2535 107.895 64.2092L133.895 64.2144ZM101.229 64.2144C96.2904 70.0811 90.9458 76.4429 85.4487 83.0463C81.3672 82.4495 77.5206 81.8971 73.9087 81.3829C71.7759 81.0781 69.7066 80.7797 67.6753 80.494C72.9186 74.8558 77.9648 69.4589 82.859 64.2204L101.229 64.2144ZM63.4413 64.5001C63.6507 64.2906 63.8412 64.2144 64.1395 64.2144H75.8827C71.2489 69.1668 66.4818 74.2779 61.5244 79.6177C57.4302 79.0399 53.5772 78.5002 49.9526 77.9923C54.4467 73.4971 58.9407 69.0018 63.4413 64.5001ZM29.7486 100.183C29.3931 100.049 29.2027 99.827 29.1265 99.4778C29.0503 99.1096 29.1265 98.8302 29.3995 98.5572L45.4463 82.5063L48.1631 82.8873C51.0576 83.2936 54.111 83.719 57.3101 84.1698C52.0605 89.8397 46.2208 96.1825 39.2824 103.738C36.1023 102.551 32.9287 101.37 29.7486 100.183ZM44.4371 105.662C51.8131 97.6302 57.9385 90.989 63.4544 85.0389C66.5712 85.477 69.8085 85.9405 73.1854 86.4293C75.8704 86.8166 78.6888 87.2167 81.6277 87.6484C75.9402 94.4928 69.5545 102.233 61.5119 112.029C55.8181 109.902 50.1249 107.783 44.4371 105.662ZM94.24 123.434C93.967 123.821 93.529 123.961 93.0847 123.796C84.2424 120.501 75.3999 117.206 66.5583 113.91C75.0133 103.618 81.6085 95.6311 87.537 88.5069C95.9223 89.7323 105.298 91.1165 115.822 92.691C114.438 94.6656 113.054 96.6339 111.664 98.6085C111.658 98.6212 111.651 98.6275 111.639 98.6402C105.837 106.92 100.023 115.2 94.24 123.434ZM100.105 134.926V123.955C103.806 118.691 107.513 113.409 111.226 108.12V134.926L100.105 134.926ZM31.4426 66.0758C32.6614 66.7805 33.0803 68.3361 32.3757 69.5551L29.8811 73.879C29.4113 74.6981 28.5544 75.1552 27.672 75.1552C27.2404 75.1552 26.8024 75.0473 26.4025 74.8123C25.1838 74.1076 24.7648 72.5521 25.4694 71.333L27.9641 67.0091C28.6623 65.7901 30.2239 65.371 31.4426 66.0758ZM74.479 47.0537C74.479 48.4632 73.3365 49.5997 71.9337 49.5997H66.9381C65.5289 49.5997 64.3927 48.4568 64.3927 47.0537C64.3927 45.6441 65.5353 44.5076 66.9381 44.5076H71.9337C73.3365 44.5013 74.479 45.6442 74.479 47.0537ZM61.4474 36.0632C60.7428 34.8441 61.1617 33.2823 62.3805 32.5838L71.026 27.5934C72.2447 26.8886 73.8062 27.3077 74.5044 28.5267C75.209 29.7458 74.7901 31.3076 73.5713 32.006L64.9259 36.9965C64.526 37.2251 64.088 37.3394 63.6563 37.3394C62.774 37.3394 61.9172 36.8822 61.4474 36.0632ZM52.4719 24.5394L54.9666 20.2155C55.6712 18.9964 57.2263 18.5774 58.445 19.2822C59.6638 19.9869 60.0827 21.5424 59.3781 22.7615L56.8835 27.0854C56.4137 27.9045 55.5568 28.3616 54.6744 28.3616C54.2428 28.3616 53.8048 28.2537 53.4049 28.0187C52.1925 27.3203 51.7737 25.7584 52.4719 24.5394ZM61.841 47.0545C61.841 36.3434 53.132 27.626 42.4239 27.626C31.7158 27.626 23.0003 36.3436 23.0003 47.0545C23.0003 57.7656 31.7156 66.4764 42.4239 66.4764C53.1323 66.4701 61.841 57.7589 61.841 47.0545ZM28.1028 47.0545C28.1028 39.156 34.5266 32.7243 42.4294 32.7243C50.3259 32.7243 56.7497 39.1497 56.7497 47.0545C56.7497 54.953 50.3259 61.3783 42.4294 61.3783C34.5266 61.3783 28.1028 54.953 28.1028 47.0545ZM23.3992 58.0386C24.1038 59.2577 23.6849 60.8195 22.4661 61.518L13.8207 66.5084C13.4208 66.737 12.9828 66.8513 12.5511 66.8513C11.6688 66.8513 10.8119 66.3942 10.3421 65.5751C9.63754 64.3561 10.0565 62.7942 11.2752 62.0958L19.9207 57.1053C21.1394 56.4005 22.701 56.8196 23.3992 58.0386ZM39.8783 22.5333V12.546C39.8783 11.1365 41.0209 10 42.4237 10C43.8329 10 44.9691 11.1429 44.9691 12.546V22.5333C44.9691 23.9429 43.8265 25.0794 42.4237 25.0794C41.0209 25.0794 39.8783 23.9428 39.8783 22.5333ZM20.4612 47.0542C20.4612 48.4637 19.3187 49.6002 17.9158 49.6002H12.9203C11.5111 49.6002 10.3749 48.4573 10.3749 47.0542C10.3749 45.6446 11.5175 44.5081 12.9203 44.5081H17.9158C19.3187 44.5018 20.4612 45.6446 20.4612 47.0542ZM25.4631 22.7625C24.7586 21.5435 25.1775 19.9816 26.3962 19.2832C27.615 18.5784 29.1765 18.9975 29.8747 20.2165L32.3694 24.5404C33.074 25.7595 32.6551 27.3213 31.4363 28.0197C31.0364 28.2483 30.5984 28.3626 30.1668 28.3626C29.2845 28.3626 28.4275 27.9055 27.9578 27.0864L25.4631 22.7625ZM10.343 28.5276C11.0476 27.3086 12.6028 26.8896 13.8215 27.5943L22.467 32.5848C23.6857 33.2895 24.1046 34.8451 23.4001 36.0641C22.9304 36.8832 22.0734 37.3403 21.1911 37.3403C20.7594 37.3403 20.3214 37.2324 19.9215 36.9975L11.2761 32.007C10.0573 31.3022 9.63848 29.7467 10.343 28.5276Z" fill="#663366"/>
</svg>
