<svg width="150" height="150" viewBox="0 0 150 150" fill="none" xmlns="http://www.w3.org/2000/svg">
<path fill-rule="evenodd" clip-rule="evenodd" d="M129.844 132.358V127.359H134.307C135.034 127.359 135.633 126.767 135.633 126.038V119.962C135.633 119.232 135.034 118.641 134.307 118.641H129.844V107.047H134.307C135.034 107.047 135.633 106.455 135.633 105.726V99.6496C135.633 98.9204 135.034 98.3286 134.307 98.3286H129.844V86.73H134.307C135.034 86.73 135.633 86.1382 135.633 85.409V79.3323C135.633 78.6031 135.034 78.0113 134.307 78.0113H129.844V56.0512C129.844 55.322 129.25 54.7302 128.518 54.7302H126.735V49.1238C126.735 48.3946 126.141 47.8028 125.408 47.8028H116.176C115.921 47.8081 115.677 47.8821 115.475 48.0089L104.513 54.7303H99.6525V38.8886C99.6525 38.1594 99.0583 37.5675 98.326 37.5675H51.6743C50.942 37.5675 50.3477 38.1594 50.3477 38.8886V54.7303H45.4874L34.5249 48.0089C34.3233 47.8821 34.0792 47.8081 33.8245 47.8028H24.5918C23.8596 47.8028 23.2653 48.3946 23.2653 49.1238V54.7302H21.4824C20.7502 54.7302 20.1559 55.322 20.1559 56.0512V78.0113H15.6988C14.9666 78.0113 14.3723 78.6031 14.3723 79.3323V85.409C14.3723 86.1382 14.9666 86.73 15.6988 86.73H20.1559V98.3286H15.6988C14.9666 98.3286 14.3723 98.9204 14.3723 99.6496V105.726C14.3723 106.455 14.9666 107.047 15.6988 107.047H20.1559V118.641H15.6988C14.9666 118.641 14.3723 119.232 14.3723 119.962V126.038C14.3723 126.767 14.9666 127.359 15.6988 127.359H20.1559V132.358H11.3265C10.5943 132.358 10 132.95 10 133.679C10 134.408 10.5943 135 11.3265 135H138.673C139.406 135 140 134.408 140 133.679C140 132.95 139.406 132.358 138.673 132.358H129.844ZM96.999 132.358V50.4547H53.0002V132.358H56.7994V100.643C56.7994 99.9142 57.3937 99.3224 58.1259 99.3224H91.8732C92.6054 99.3224 93.1997 99.9142 93.1997 100.643V132.358H96.999ZM127.191 70.1435V66.1857H99.6533V132.358H127.191V127.36H111.751H111.724L111.708 127.354H111.698H111.687H111.682C111.677 127.354 111.671 127.354 111.666 127.349H111.645L111.634 127.344H111.629H111.618H111.613H111.597L111.592 127.338C111.581 127.338 111.57 127.333 111.56 127.333H111.549C111.528 127.328 111.502 127.317 111.47 127.312H111.459L111.454 127.307H111.448C111.427 127.301 111.411 127.291 111.39 127.286H111.385C111.364 127.275 111.337 127.264 111.316 127.254H111.305L111.295 127.249C111.279 127.243 111.263 127.233 111.247 127.227L111.242 127.222H111.236L111.226 127.212H111.22C111.215 127.212 111.21 127.206 111.21 127.206C111.188 127.196 111.173 127.185 111.157 127.175C111.151 127.175 111.146 127.175 111.146 127.169C111.114 127.153 111.093 127.138 111.061 127.116C111.061 127.111 111.056 127.111 111.05 127.111C111.008 127.074 110.96 127.037 110.918 126.995C110.902 126.979 110.881 126.963 110.87 126.947C110.865 126.942 110.859 126.937 110.859 126.932C110.844 126.921 110.833 126.905 110.822 126.895L110.817 126.889C110.801 126.873 110.796 126.858 110.78 126.842L110.775 126.836V126.831L110.764 126.826V126.821L110.753 126.81C110.743 126.794 110.732 126.778 110.722 126.768L110.716 126.752C110.711 126.747 110.711 126.741 110.706 126.731L110.7 126.725C110.695 126.72 110.69 126.71 110.69 126.704C110.674 126.683 110.658 126.657 110.647 126.636C110.637 126.604 110.621 126.577 110.605 126.546C110.605 126.541 110.605 126.53 110.599 126.525C110.594 126.519 110.594 126.514 110.594 126.509C110.589 126.498 110.584 126.482 110.584 126.472C110.578 126.467 110.573 126.456 110.573 126.451L110.568 126.44C110.562 126.414 110.552 126.382 110.541 126.356C110.541 126.34 110.536 126.329 110.536 126.313C110.53 126.303 110.53 126.292 110.53 126.282V126.276C110.53 126.271 110.53 126.266 110.525 126.26C110.525 126.255 110.525 126.25 110.52 126.25V126.192C110.515 126.181 110.515 126.165 110.509 126.155V126.039V119.962C110.509 119.233 111.104 118.641 111.836 118.641H114.813V112.094C114.813 111.365 115.401 110.773 116.139 110.773H127.192V107.048H111.767L111.757 107.042H111.698L111.688 107.037H111.656L111.645 107.032H111.614L111.603 107.026H111.592L111.582 107.021H111.566L111.56 107.016H111.539L111.534 107.011H111.518L111.507 107.005H111.497L111.486 107H111.476L111.47 106.995H111.46L111.454 106.99H111.438L111.433 106.984H111.423L111.412 106.979H111.407L111.401 106.974H111.391L111.38 106.968H111.375L111.369 106.963L111.359 106.958L111.343 106.952L111.332 106.947H111.327L111.306 106.937H111.3L111.295 106.931H111.285L111.274 106.921L111.258 106.916H111.253L111.242 106.91L111.231 106.9H111.221L111.21 106.894L111.205 106.889L111.194 106.884L111.189 106.879H111.178L111.168 106.868L111.136 106.852V106.847L111.125 106.842H111.12L111.115 106.836L111.104 106.831L111.094 106.82L111.083 106.815L111.078 106.81L111.067 106.805L111.062 106.799L111.051 106.794V106.789L111.04 106.783L111.03 106.773L111.019 106.768L111.009 106.757H110.998V106.746L110.977 106.736L110.956 106.715L110.945 106.709L110.897 106.662L110.892 106.651H110.887L110.881 106.641L110.871 106.635V106.63L110.86 106.625V106.62L110.849 106.614C110.849 106.609 110.839 106.598 110.834 106.593L110.828 106.583L110.823 106.577L110.812 106.572L110.807 106.567L110.802 106.556L110.796 106.551V106.546L110.786 106.54V106.535L110.78 106.53L110.775 106.519L110.765 106.509C110.765 106.509 110.765 106.503 110.759 106.498L110.754 106.493C110.754 106.487 110.749 106.482 110.743 106.477C110.738 106.472 110.733 106.466 110.733 106.456L110.722 106.451V106.445L110.711 106.435V106.429C110.711 106.424 110.706 106.419 110.701 106.414V106.408C110.685 106.387 110.669 106.361 110.658 106.334C110.648 106.324 110.648 106.313 110.643 106.308L110.637 106.297C110.627 106.276 110.616 106.25 110.605 106.223C110.584 106.181 110.574 106.133 110.558 106.086C110.558 106.081 110.558 106.07 110.552 106.065L110.547 106.054C110.547 106.049 110.547 106.044 110.542 106.038V106.023C110.536 106.001 110.531 105.986 110.531 105.964V105.954C110.526 105.949 110.526 105.943 110.52 105.938V105.922V105.912C110.52 105.896 110.52 105.88 110.515 105.864C110.515 105.853 110.51 105.843 110.51 105.832V105.795V105.779V105.774V105.727V99.6499V99.5918V99.5812V99.5653V99.5389V99.5284C110.52 99.4755 110.526 99.4174 110.536 99.3646C110.536 99.3593 110.542 99.354 110.542 99.3487V99.3329L110.547 99.3223V99.317C110.552 99.3064 110.558 99.2959 110.558 99.2853C110.563 99.28 110.563 99.2747 110.563 99.2694L110.568 99.2642V99.2536C110.574 99.2483 110.574 99.243 110.574 99.2325C110.6 99.1585 110.632 99.0845 110.669 99.0105L110.674 99.0052C110.674 99 110.68 98.9947 110.68 98.9947L110.696 98.9788V98.9683C110.701 98.9683 110.701 98.963 110.706 98.9577C110.706 98.9524 110.711 98.9471 110.711 98.9418L110.722 98.9313V98.926L110.733 98.9154V98.9101C110.738 98.9049 110.743 98.9048 110.743 98.8996L110.749 98.889L110.754 98.8837V98.8784L110.765 98.8731V98.8626L110.775 98.8573V98.852L110.786 98.8414L110.791 98.8309L110.802 98.8203V98.815L110.812 98.8045L110.823 98.7992L110.828 98.7886L110.839 98.778V98.7728L110.849 98.7622L110.86 98.7569L110.865 98.7463L110.913 98.6988L110.924 98.6935V98.6882L110.95 98.6618L110.961 98.6565L110.977 98.6406L110.987 98.6354V98.6301L110.998 98.6248L111.009 98.6142L111.019 98.6089V98.6037L111.03 98.5984L111.04 98.5878L111.062 98.5772L111.078 98.5614L111.088 98.5561H111.094L111.104 98.5455L111.115 98.5402L111.125 98.5297H111.136V98.5244L111.157 98.5138V98.5085H111.168L111.178 98.498L111.189 98.4927H111.194L111.2 98.4874L111.21 98.4821H111.216L111.226 98.4768L111.237 98.4663H111.242L111.253 98.461L111.258 98.4557H111.263L111.274 98.4504H111.285L111.295 98.4398H111.306L111.316 98.4293H111.327L111.332 98.424H111.338L111.348 98.4187H111.359L111.369 98.4081H111.38L111.385 98.4029H111.391L111.401 98.3976H111.412L111.417 98.3923H111.423L111.433 98.387H111.449L111.454 98.3817H111.46L111.47 98.3764H111.476L111.486 98.3712H111.502L111.507 98.3659H111.529L111.534 98.3606H111.55L111.56 98.3553H111.576L111.582 98.35H111.598L111.608 98.3447H111.635L111.64 98.3395H111.677L111.683 98.3342H111.73L111.741 98.3289H114.813V91.7766C114.813 91.0474 115.402 90.4556 116.14 90.4556H127.192V86.7303H111.719L111.714 86.725H111.671L111.666 86.7197H111.634L111.624 86.7144H111.602L111.597 86.7092H111.571L111.565 86.7039H111.549L111.539 86.6986H111.528L111.517 86.6933H111.507L111.502 86.688H111.486L111.475 86.6827H111.47L111.459 86.6774H111.443L111.438 86.6722H111.433L111.422 86.6669H111.411L111.406 86.6616H111.401L111.39 86.6563H111.38V86.651H111.369L111.364 86.6457L111.353 86.6405H111.342L111.337 86.6352H111.326V86.6299L111.311 86.6246H111.305L111.295 86.6193L111.289 86.614H111.284L111.263 86.6035H111.257L111.252 86.5982L111.242 86.5929H111.236L111.231 86.5876L111.199 86.5718H111.194L111.188 86.5665L111.178 86.5612L111.173 86.5559C111.167 86.5506 111.157 86.5506 111.157 86.5453L111.125 86.5295L111.114 86.5189L111.104 86.5136L111.098 86.5084H111.093L111.088 86.5031L111.077 86.4978L111.061 86.4819H111.051V86.4767L111.04 86.4714L111.029 86.4608L111.019 86.4555L111.008 86.4449L110.997 86.4397V86.4344L110.987 86.4291V86.4238L110.976 86.4185L110.955 86.3974C110.95 86.3974 110.944 86.3921 110.939 86.3921L110.934 86.3815L110.891 86.3393C110.881 86.3287 110.875 86.3234 110.87 86.3181L110.86 86.3128C110.844 86.2917 110.828 86.2706 110.806 86.2441L110.785 86.223L110.78 86.2124C110.775 86.2124 110.775 86.2072 110.775 86.2072L110.764 86.1966C110.764 86.1913 110.764 86.1913 110.759 86.186L110.753 86.1807C110.753 86.1807 110.753 86.1755 110.748 86.1702L110.737 86.1543L110.732 86.149V86.1438C110.727 86.1385 110.722 86.1385 110.722 86.1332C110.722 86.1279 110.722 86.1279 110.716 86.1226L110.711 86.1173C110.711 86.1121 110.706 86.1068 110.7 86.0962L110.695 86.0909V86.0856C110.679 86.0645 110.663 86.0381 110.653 86.0117C110.647 85.9958 110.637 85.9852 110.631 85.9694L110.626 85.9641V85.9588C110.626 85.9535 110.621 85.9482 110.615 85.943V85.9377V85.9271C110.61 85.9218 110.605 85.9113 110.605 85.906V85.9007C110.589 85.8743 110.584 85.8426 110.573 85.8161C110.573 85.8109 110.568 85.8056 110.568 85.8056C110.568 85.8003 110.562 85.7897 110.562 85.7844C110.562 85.7792 110.557 85.7739 110.557 85.7633C110.552 85.7527 110.546 85.7369 110.541 85.721C110.541 85.7105 110.536 85.6999 110.536 85.684C110.531 85.6418 110.52 85.5995 110.515 85.5572V85.5467C110.509 85.5361 110.509 85.5255 110.509 85.5149V85.4621V85.4198V79.3326C110.509 79.211 110.525 79.0948 110.557 78.9785C110.711 78.4237 111.226 78.0116 111.836 78.0116H114.813V71.4647C114.813 70.7355 115.402 70.1436 116.139 70.1436L127.191 70.1435ZM76.3274 108.422V132.358H90.5481V108.422H76.3274ZM50.3486 66.1855H22.8104V70.1433H33.8684C34.6006 70.1433 35.1949 70.7351 35.1949 71.4643V78.0112H38.2088L38.2194 78.0165H38.2884L38.299 78.0218H38.3362L38.3468 78.0271H38.368L38.3786 78.0323H38.4052L38.4105 78.0376H38.4317L38.437 78.0429H38.4635L38.4688 78.0482H38.4741L38.4848 78.0535H38.5007L38.506 78.0588H38.5272L38.5325 78.064H38.5431L38.5484 78.0693H38.559L38.5643 78.0746H38.5697L38.5803 78.0799H38.5909L38.5962 78.0852H38.6015L38.6121 78.0905H38.6227L38.6439 78.101H38.6492L38.6546 78.1063H38.6652L38.6758 78.1116V78.1169H38.6864L38.7182 78.1327H38.7235L38.7288 78.138L38.7394 78.1433H38.7448L38.7501 78.1486H38.7607L38.7713 78.1592H38.7819L38.7925 78.1697H38.8031L38.8137 78.1803L38.8243 78.1856H38.8297L38.835 78.1909L38.8456 78.1961V78.2014H38.8562L38.8668 78.212L38.8774 78.2173L38.888 78.2278H38.8986L38.9092 78.2384L38.9199 78.2437V78.249L38.9305 78.2543H38.9358L38.9411 78.2648H38.9517L38.9623 78.2754L38.9729 78.2807L39.0048 78.3124L39.0154 78.3177L39.0313 78.3335H39.0366L39.0472 78.3388V78.3494H39.0578C39.0578 78.3547 39.0631 78.36 39.0684 78.36L39.0737 78.3705C39.079 78.3705 39.079 78.3758 39.0843 78.3758L39.095 78.3864L39.1003 78.3969L39.1109 78.4075L39.1215 78.4128V78.4181L39.1321 78.4234V78.4286L39.1427 78.4339V78.4392L39.1533 78.4445V78.4498L39.1639 78.4604V78.4656C39.1745 78.4709 39.1746 78.4762 39.1852 78.4815V78.4868L39.1958 78.4973V78.5026L39.2064 78.5079V78.5132L39.2223 78.529L39.2276 78.5343V78.5449L39.2382 78.5502V78.5555L39.2488 78.566C39.2541 78.5713 39.2594 78.5819 39.2701 78.5977V78.603C39.2807 78.6136 39.286 78.6189 39.2913 78.6294V78.6347L39.3019 78.6453V78.6506C39.3125 78.6717 39.3284 78.6928 39.339 78.7087V78.714C39.3443 78.7193 39.3443 78.7193 39.3443 78.7246C39.3656 78.7563 39.3762 78.788 39.3868 78.8197C39.3921 78.825 39.3974 78.8302 39.3974 78.8355V78.8461C39.4027 78.8514 39.408 78.8567 39.408 78.8672C39.408 78.8672 39.4133 78.8725 39.4133 78.8778C39.4186 78.8831 39.4186 78.8884 39.4186 78.8936C39.4186 78.8989 39.4239 78.9042 39.4239 78.9095C39.4292 78.9148 39.4292 78.9201 39.4292 78.9253V78.9306C39.4345 78.9412 39.4399 78.9465 39.4399 78.9571C39.4399 78.9623 39.4399 78.9676 39.4452 78.9729C39.4505 78.9782 39.4505 78.9888 39.4505 78.994V79.0046C39.4611 79.031 39.4664 79.0574 39.4717 79.0839C39.4717 79.0944 39.4717 79.105 39.477 79.1156L39.4823 79.1261C39.4823 79.1684 39.4929 79.2054 39.4929 79.2477V79.2582V79.2635V79.2741V79.2899V79.3322V85.4089C39.4929 86.1381 38.8986 86.7299 38.1664 86.7299H22.81V90.4552H33.868C34.6002 90.4552 35.1945 91.047 35.1945 91.7762V98.3285H38.2614L38.272 98.3338H38.3198L38.3304 98.3391H38.3463H38.3622C38.3675 98.3444 38.3782 98.3444 38.3888 98.3444H38.3941L38.4047 98.3497H38.41C38.4206 98.3497 38.4206 98.3497 38.4259 98.355H38.4312H38.4418L38.4524 98.3602H38.4684L38.4737 98.3655H38.4949C38.4949 98.3708 38.5055 98.3708 38.5055 98.3708H38.5161L38.5267 98.3761H38.532L38.5373 98.3814H38.548L38.5586 98.3867C38.5692 98.3919 38.5904 98.3972 38.6116 98.4025C38.6275 98.4078 38.6435 98.4131 38.6647 98.4236C38.7231 98.4448 38.7814 98.4765 38.8345 98.5082C38.8451 98.5135 38.8504 98.5135 38.8557 98.5188C38.861 98.524 38.8663 98.524 38.8663 98.5293H38.8716C38.8769 98.5293 38.8822 98.5346 38.8875 98.5399C38.8929 98.5399 38.8982 98.5452 38.8982 98.5452C38.9035 98.5505 38.9088 98.5505 38.9088 98.5557C38.9194 98.5557 38.9194 98.561 38.9194 98.561C38.93 98.5663 38.93 98.5663 38.9353 98.5716C38.9406 98.5769 38.9459 98.5769 38.9512 98.5822C38.9512 98.5875 38.9618 98.5875 38.9618 98.5875L38.9724 98.598C38.9831 98.6086 38.9937 98.6139 38.999 98.6192L39.0043 98.6244L39.0149 98.6297L39.0255 98.6403C39.0361 98.6509 39.052 98.6614 39.068 98.6773C39.0733 98.6826 39.0786 98.6931 39.0892 98.6984L39.1104 98.7196C39.1157 98.7248 39.121 98.7248 39.121 98.7301C39.1316 98.7407 39.1422 98.7513 39.1528 98.7618C39.1582 98.7671 39.1635 98.7777 39.1741 98.783L39.1847 98.7988V98.8041C39.2006 98.82 39.2165 98.8411 39.2271 98.8569C39.2377 98.8622 39.2377 98.8675 39.2431 98.8728C39.2484 98.8781 39.2484 98.8834 39.2484 98.8834L39.2537 98.8886L39.259 98.8992L39.2696 98.9098V98.9151L39.2802 98.9256V98.9309L39.2855 98.9362C39.2908 98.9415 39.2908 98.9468 39.2908 98.9468L39.3014 98.9573V98.9626L39.3067 98.9679L39.312 98.9785V98.9838L39.3226 98.989V98.9996C39.3226 99.0049 39.328 99.0049 39.3333 99.0102C39.3333 99.0207 39.3439 99.0313 39.3439 99.0419L39.3545 99.0525C39.3651 99.0736 39.3704 99.0947 39.381 99.1106C39.3863 99.1211 39.3863 99.1264 39.3863 99.137C39.3916 99.137 39.3969 99.1423 39.3969 99.1476C39.3969 99.1581 39.4075 99.1687 39.4075 99.1793C39.4128 99.1898 39.4182 99.2004 39.4182 99.211C39.4235 99.2215 39.4288 99.2268 39.4288 99.2374C39.4341 99.2533 39.4394 99.2691 39.4447 99.285L39.45 99.2955V99.3114V99.3167L39.4553 99.3272L39.4606 99.3325V99.3431V99.3484V99.3589C39.4712 99.4118 39.4818 99.4646 39.4871 99.5174V99.5227C39.4924 99.565 39.4924 99.6073 39.4924 99.6496V105.726C39.4924 106.45 38.9088 107.042 38.1765 107.047H22.8107V110.773H33.8686C34.6008 110.773 35.1951 111.364 35.1951 112.094V118.64H38.2197L38.2303 118.646H38.294L38.3046 118.651H38.3205H38.3364C38.347 118.651 38.347 118.656 38.3576 118.656H38.3788L38.3895 118.662H38.4107L38.4213 118.667H38.4372L38.4425 118.672H38.4637L38.4691 118.677H38.4744C38.5062 118.683 38.538 118.693 38.5593 118.699L38.5805 118.709H38.5911C38.5964 118.709 38.6017 118.714 38.6123 118.714L38.6442 118.73C38.6442 118.73 38.6495 118.73 38.6548 118.736H38.6654L38.6866 118.746C38.6919 118.751 38.6972 118.751 38.7078 118.757L38.7184 118.762H38.7237L38.7397 118.767L38.7503 118.778H38.7609L38.7715 118.788L38.7821 118.794H38.7927V118.799H38.8033L38.814 118.81L38.8246 118.815H38.8299L38.8352 118.82C38.8405 118.825 38.8458 118.825 38.8458 118.831L38.8564 118.836C38.8617 118.836 38.867 118.841 38.867 118.841H38.8723C38.8882 118.852 38.9095 118.868 38.9201 118.878C38.9307 118.878 38.936 118.884 38.9413 118.889C38.9413 118.889 38.9466 118.894 38.9519 118.894V118.899L38.9625 118.905C38.9625 118.905 38.9625 118.91 38.9678 118.91L38.9731 118.915L38.9837 118.921V118.926L38.9997 118.931C39.005 118.936 39.005 118.936 39.0103 118.942L39.0156 118.947C39.0262 118.952 39.0368 118.963 39.0421 118.968L39.0474 118.973C39.058 118.979 39.058 118.984 39.0686 118.994L39.074 119C39.0793 119.005 39.0846 119.005 39.0899 119.01C39.0899 119.016 39.0952 119.016 39.1005 119.021C39.1005 119.026 39.1058 119.026 39.1111 119.031V119.037L39.1217 119.042C39.1217 119.042 39.1217 119.047 39.1323 119.053L39.1429 119.063C39.1535 119.079 39.1642 119.09 39.1748 119.105C39.1854 119.111 39.1854 119.116 39.1907 119.121C39.196 119.127 39.196 119.132 39.2013 119.137L39.2119 119.148C39.2172 119.153 39.2172 119.158 39.2225 119.158C39.2491 119.195 39.2756 119.232 39.3021 119.269V119.275C39.3127 119.301 39.334 119.327 39.3446 119.354C39.3499 119.359 39.3552 119.364 39.3552 119.37V119.375C39.3552 119.38 39.3605 119.38 39.3605 119.386L39.3658 119.391V119.396C39.3658 119.401 39.3711 119.401 39.3711 119.407C39.3764 119.412 39.3764 119.417 39.3764 119.417C39.3817 119.428 39.387 119.433 39.387 119.438C39.387 119.449 39.3923 119.454 39.3976 119.46V119.465C39.3976 119.475 39.4082 119.486 39.4082 119.491C39.4082 119.496 39.4135 119.502 39.4135 119.507C39.4188 119.523 39.4242 119.539 39.4295 119.555C39.4348 119.565 39.4401 119.576 39.4401 119.592C39.4507 119.607 39.4507 119.629 39.4613 119.65C39.4613 119.66 39.4613 119.671 39.4666 119.681C39.4666 119.692 39.4719 119.697 39.4719 119.708C39.4719 119.718 39.4719 119.734 39.4772 119.745L39.4825 119.755V119.777V119.814C39.4878 119.835 39.4931 119.861 39.4931 119.882V119.961V126.038V126.07V126.08V126.133V126.144C39.4931 126.154 39.4878 126.165 39.4878 126.176C39.4825 126.191 39.4825 126.207 39.4825 126.223V126.234V126.239L39.4772 126.25V126.265C39.4719 126.276 39.4719 126.287 39.4719 126.297V126.308C39.4507 126.387 39.4295 126.461 39.3976 126.53C39.3923 126.556 39.3817 126.577 39.3711 126.598L39.3658 126.604C39.3605 126.625 39.3552 126.641 39.3446 126.656C39.3393 126.662 39.334 126.667 39.334 126.678L39.3286 126.683L39.3233 126.693C39.3233 126.699 39.3127 126.704 39.3127 126.709L39.3074 126.72L39.3021 126.725V126.73L39.2915 126.741V126.746L39.2862 126.752C39.2809 126.757 39.2809 126.767 39.2703 126.773V126.778L39.265 126.783L39.2597 126.794L39.2491 126.804V126.81L39.2384 126.82V126.826L39.2278 126.831V126.836L39.2225 126.841L39.2172 126.852L39.196 126.873V126.878L39.1854 126.889V126.894L39.1748 126.899V126.905L39.1642 126.91V126.915L39.1535 126.921V126.931L39.1429 126.936V126.942L39.1323 126.947V126.952L39.1217 126.958V126.963L39.1111 126.968L39.0899 126.989V126.995L39.0793 127V127.005L39.0686 127.01L39.058 127.021L39.0474 127.026L39.0262 127.047L39.0156 127.053L39.0103 127.063L39.005 127.069H38.9997L38.9944 127.074L38.9837 127.079L38.9625 127.1L38.9519 127.106L38.9413 127.116L38.9201 127.127L38.9095 127.137L38.8988 127.143L38.8935 127.148L38.8829 127.153L38.8776 127.158L38.8458 127.174L38.8352 127.185L38.814 127.195H38.8086L38.8033 127.201L38.7927 127.206L38.7874 127.211H38.7821L38.7715 127.217L38.7662 127.222H38.7609L38.7503 127.227L38.745 127.232H38.7397L38.6972 127.254H38.6919L38.6866 127.259H38.676L38.6654 127.269H38.6548L38.6442 127.275H38.6388L38.6335 127.28H38.6229L38.6176 127.285H38.6123L38.6017 127.29H38.5911L38.5858 127.296H38.5805L38.5699 127.301H38.5593L38.554 127.306H38.5486L38.538 127.312H38.5274L38.5168 127.317H38.5062L38.5009 127.322H38.485L38.4744 127.327H38.4637L38.4531 127.333H38.4319L38.4266 127.338H38.4107L38.4001 127.343H38.3682L38.3629 127.349H38.3364L38.3258 127.354H38.2886L38.278 127.359H38.1666H22.8103V132.358H50.3484L50.3486 66.1855ZM73.6745 108.422V132.358H59.4538V108.422H73.6745ZM36.8397 121.283V124.718H17.0265V121.283H36.8397ZM128.519 121.283H132.981V124.718H113.163V121.283H128.519ZM127.192 118.641H117.466V113.415H127.192V118.641ZM22.8097 113.415V118.641H32.5412V113.415H22.8097ZM59.4544 105.78H90.5487V101.964H59.4544V105.78ZM36.8403 100.971V104.406H17.0271V100.971H36.8403ZM128.519 100.971H132.982V104.406H113.163V100.971H128.519ZM127.193 98.329H117.466V93.0978H127.193V98.329ZM22.8103 93.0978V98.329H32.5418V93.0978H22.8103ZM58.8016 94.4505H91.2014C91.9336 94.4505 92.5279 93.8587 92.5279 93.1295C92.5279 92.4003 91.9336 91.8085 91.2014 91.8085H58.8016C58.0693 91.8085 57.4751 92.4003 57.4751 93.1295C57.4751 93.8587 58.0693 94.4505 58.8016 94.4505ZM58.8016 89.3883H91.2014C91.9336 89.3883 92.5279 88.7965 92.5279 88.0673C92.5279 87.3381 91.9336 86.7463 91.2014 86.7463H58.8016C58.0693 86.7463 57.4751 87.3381 57.4751 88.0673C57.4751 88.7965 58.0693 89.3883 58.8016 89.3883ZM84.9923 84.3262H91.2004C91.9327 84.3262 92.5269 83.7344 92.5269 83.0051C92.5269 82.276 91.9327 81.6841 91.2004 81.6841H84.9923C84.26 81.6841 83.6657 82.276 83.6657 83.0051C83.6657 83.7344 84.26 84.3262 84.9923 84.3262ZM58.8016 84.3262H79.9568C80.689 84.3262 81.2833 83.7344 81.2833 83.0051C81.2833 82.276 80.689 81.6841 79.9568 81.6841H58.8016C58.0693 81.6841 57.4751 82.276 57.4751 83.0051C57.4751 83.7344 58.0693 84.3262 58.8016 84.3262ZM36.8395 80.6538V84.0885H17.0263V80.6538H36.8395ZM128.518 80.6538H132.981V84.0885H113.162V80.6538H128.518ZM22.8103 72.7858V78.0118H32.5418V72.7858H22.8103ZM127.193 77.066V78.0118H117.466V72.7858H127.193V77.066ZM80.223 60.3368V55.5019C80.223 54.7727 79.6287 54.1809 78.8965 54.1809H71.1071C70.3748 54.1809 69.7806 54.7727 69.7806 55.5019V60.3368H64.9202C64.1879 60.3368 63.5937 60.9287 63.5937 61.6579V69.4202C63.5937 70.1494 64.1879 70.7412 64.9202 70.7412H69.7806V75.5761C69.7806 76.3053 70.3748 76.8971 71.1071 76.8971H78.8965C79.6287 76.8971 80.223 76.3053 80.223 75.5761V70.7412H85.0834C85.8157 70.7412 86.4099 70.1494 86.4099 69.4202V61.6579C86.4099 60.9287 85.8157 60.3368 85.0834 60.3368H80.223ZM77.57 61.6579C77.57 62.3871 78.1643 62.9789 78.8965 62.9789H83.7569V68.0992H78.8965C78.1643 68.0992 77.57 68.6857 77.57 69.4202V74.2551H72.4337V69.4202C72.4337 68.6857 71.8395 68.0992 71.1072 68.0992H66.2468V62.9789H71.1072C71.8395 62.9789 72.4337 62.3871 72.4337 61.6579V56.823H77.57V61.6579ZM127.193 63.5442H99.6543V57.3724H127.193V63.5442ZM50.3497 63.5442H22.8115V57.3724H50.3497V63.5442ZM109.577 54.7304H114.862V51.4913L109.577 54.7304ZM117.515 54.7304V50.445H124.084V54.7304H117.515ZM25.9205 54.7304V50.445H32.4895V54.7304H25.9205ZM35.1426 54.7304H40.4275L35.1426 51.4913V54.7304ZM53.0024 47.8136V40.2098H97.0013V47.8136H53.0024ZM29.2419 25.9644C29.1039 25.9538 28.966 25.9485 28.828 25.9485C25.6974 25.9485 23.161 28.4796 23.161 31.5972C23.161 34.7096 25.6974 37.2406 28.828 37.2406H42.6086C45.7393 37.2406 48.2809 34.7096 48.2809 31.5972C48.2809 28.4796 45.7393 25.9485 42.6086 25.9485C42.476 25.9485 42.3486 25.9538 42.2213 25.9644C41.0858 23.5284 38.6025 21.8322 35.7319 21.8322C32.856 21.8322 30.3773 23.5284 29.2419 25.9644ZM29.7141 28.7227C30.059 28.8284 30.4304 28.7914 30.7488 28.617C31.0619 28.4426 31.29 28.1467 31.3856 27.8033C31.8949 25.8851 33.646 24.4744 35.7312 24.4744C37.8112 24.4744 39.5622 25.8853 40.0769 27.798C40.1671 28.1415 40.3953 28.4374 40.7137 28.6065C41.0214 28.7809 41.3929 28.8231 41.7431 28.7174C42.0137 28.6382 42.3055 28.5906 42.6079 28.5906C44.2741 28.5906 45.6272 29.9381 45.6272 31.5973C45.6272 33.2513 44.2741 34.5987 42.6079 34.5987H28.8273C27.1611 34.5987 25.8134 33.2513 25.8134 31.5973C25.8134 29.9381 27.1611 28.5906 28.8273 28.5906C29.1351 28.5906 29.4329 28.6382 29.7141 28.7227ZM107.804 19.1322C107.666 19.1216 107.533 19.1163 107.395 19.1163C104.265 19.1163 101.723 21.6421 101.723 24.7597C101.723 27.8721 104.265 30.4032 107.395 30.4032H121.176C124.307 30.4032 126.843 27.8721 126.843 24.7597C126.843 21.6421 124.307 19.1163 121.176 19.1163C121.043 19.1163 120.916 19.1216 120.789 19.1269C119.648 16.6909 117.17 15 114.299 15C111.423 15 108.939 16.6909 107.804 19.1322ZM108.276 21.8905C108.621 21.9962 108.993 21.9539 109.311 21.7795C109.629 21.6052 109.857 21.3145 109.948 20.9658C110.457 19.0529 112.213 17.6422 114.299 17.6422C116.373 17.6422 118.13 19.0478 118.639 20.9605C118.735 21.304 118.963 21.5999 119.276 21.7743C119.589 21.9486 119.96 21.9856 120.305 21.8852C120.581 21.8007 120.873 21.7584 121.175 21.7584C122.842 21.7584 124.189 23.1006 124.189 24.7598C124.189 26.4138 122.842 27.7613 121.175 27.7613H107.395C105.729 27.7613 104.375 26.4138 104.375 24.7598C104.375 23.1006 105.729 21.7584 107.395 21.7584C107.697 21.7584 107.995 21.8007 108.276 21.8905Z" fill="#663366"/>
</svg>
