<svg width="150" height="150" viewBox="0 0 150 150" fill="none" xmlns="http://www.w3.org/2000/svg">
<path d="M97.8536 93.8714C102.027 93.8714 105.412 97.2571 105.412 101.43C105.412 105.603 102.027 108.984 97.8536 108.984C93.6806 108.984 90.3 105.603 90.3 101.43C90.3 97.2571 93.6806 93.8714 97.8536 93.8714ZM52.1413 93.8714C56.3143 93.8714 59.7 97.2571 59.7 101.43C59.7 105.603 56.3143 108.984 52.1413 108.984C47.9683 108.984 44.5878 105.603 44.5878 101.43C44.5878 97.2571 47.9683 93.8714 52.1413 93.8714ZM55.6659 97.9054C53.721 95.9604 50.5668 95.9604 48.6218 97.9054C46.6717 99.8504 46.6717 103.005 48.6218 104.955C50.5668 106.9 53.721 106.9 55.6659 104.955C57.6161 103.005 57.6161 99.8504 55.6659 97.9054ZM62.1544 41.8919H87.8405C89.8884 41.8919 91.5555 43.5591 91.5555 45.6018V49.4455C91.5555 51.4934 89.8884 53.1605 87.8405 53.1605H62.1544C60.1116 53.1605 58.4445 51.4934 58.4445 49.4455V45.6018C58.4445 43.5591 60.1116 41.8919 62.1544 41.8919ZM87.8405 44.4647H62.1544C61.5318 44.4647 61.0172 44.9792 61.0172 45.6018V49.4455C61.0172 50.0732 61.5318 50.5878 62.1544 50.5878H87.8405C88.4682 50.5878 88.9828 50.0732 88.9828 49.4455V45.6018C88.9828 44.9792 88.4682 44.4647 87.8405 44.4647ZM55.5476 88.2062H94.4473C95.9034 88.2062 97.2876 87.8769 98.2858 87.2646C98.9187 86.8735 99.3252 86.4053 99.2994 85.9679L97.7712 59.3865C97.7404 58.8411 97.2773 58.3008 96.5312 57.8634C95.6307 57.3335 94.3649 57.0042 92.9242 57.0042H57.0758C55.6351 57.0042 54.3693 57.3335 53.4637 57.8634C52.7227 58.3008 52.2545 58.8411 52.2236 59.3865L50.7006 85.9679C50.6748 86.4053 51.0813 86.8735 51.7142 87.2646C52.7073 87.8769 54.0966 88.2062 55.5476 88.2062ZM94.4473 90.7789H55.5476C53.6541 90.7789 51.7451 90.2953 50.3661 89.4463C48.9254 88.5561 48.0507 87.3006 48.1381 85.8239L49.6612 59.2476C49.7435 57.7966 50.6851 56.5256 52.167 55.6509C53.4534 54.8997 55.1771 54.4314 57.0758 54.4314H92.9242C94.8229 54.4314 96.5466 54.8997 97.8278 55.6509C99.3149 56.5256 100.251 57.7966 100.334 59.2476L101.862 85.8239C101.949 87.3006 101.069 88.5561 99.6287 89.4463C98.2549 90.2953 96.3408 90.7789 94.4473 90.7789ZM47.8963 111.875H102.104C105.68 111.875 108.957 108.968 108.71 105.356L104.666 47.1043C104.414 43.5076 101.759 40.4152 98.0594 40.4152H51.9406C48.241 40.4152 45.586 43.5076 45.3339 47.1043L41.2895 105.356C41.0374 108.963 44.3202 111.875 47.8963 111.875ZM102.104 114.448H96.7061C96.7781 114.536 96.845 114.633 96.8913 114.736L106.961 132.447C107.45 133.311 106.817 134.366 105.844 134.366V134.371H97.7558C97.2412 134.371 96.7987 134.068 96.5929 133.63L96.0938 132.75H53.9062L53.4071 133.63C53.2013 134.068 52.7588 134.371 52.2442 134.371H44.1504V134.366C43.1831 134.366 42.545 133.311 43.039 132.447L53.1035 114.736C53.155 114.633 53.2167 114.536 53.2939 114.448H47.8963C42.9001 114.448 38.3669 110.327 38.7271 105.186L42.7714 46.9345C43.1162 41.9846 46.8672 37.8425 51.9406 37.8425H98.0594C103.133 37.8425 106.884 41.9846 107.229 46.9345L111.273 105.186C111.628 110.327 107.1 114.448 102.104 114.448ZM86.6673 114.448H63.3275C63.5951 114.757 63.7134 115.194 63.6002 115.616H86.3998C86.2814 115.194 86.3998 114.757 86.6673 114.448ZM94.6273 130.178L93.3307 127.898H56.6642L55.3675 130.178H94.6273ZM91.8694 125.326L90.5727 123.041H59.4273L58.1306 125.326H91.8694ZM89.1114 120.468L87.8148 118.189H62.1852L60.8886 120.468H89.1114ZM98.5019 131.799H103.642L94.9824 116.568H89.8472L98.5019 131.799ZM46.3578 131.799H51.4981L60.1528 116.568H55.0125L46.3578 131.799ZM74.9974 16C110.897 16 140 45.1027 140 80.9974C140 99.3255 132.369 116.414 119.171 128.675C118.662 129.149 117.875 129.128 117.391 128.644H117.386L110.506 121.765C110.002 121.261 110.002 120.448 110.506 119.943C110.547 119.902 110.589 119.861 110.635 119.825C115.966 114.937 120.283 108.958 123.246 102.238C126.107 95.7443 127.697 88.5612 127.697 80.9974C127.697 51.8947 104.105 28.3028 74.9974 28.3028C45.8947 28.3028 22.3028 51.8947 22.3028 80.9974C22.3028 95.981 28.5905 109.977 39.4475 119.907C39.9877 120.401 40.0032 121.245 39.4886 121.76L39.4938 121.765L32.6143 128.644C32.11 129.149 31.2971 129.149 30.7928 128.644C30.7825 128.634 30.7774 128.629 30.7671 128.619C24.2735 122.583 19.0097 115.23 15.4079 106.987C11.9295 99.022 10 90.2335 10 80.9974C10 45.1027 39.1027 16 74.9974 16ZM119.14 36.8597C107.846 25.5603 92.2399 18.5727 74.9974 18.5727C40.5229 18.5727 12.5727 46.5229 12.5727 80.9974C12.5727 98.173 19.5345 114.237 31.6778 125.943L36.7409 120.88C25.9355 110.512 19.7301 96.2383 19.7301 80.9974C19.7301 50.4746 44.4746 25.7301 74.9974 25.7301C105.525 25.7301 130.27 50.4746 130.27 80.9974C130.27 96.2383 124.065 110.512 113.259 120.88L118.322 125.943C130.465 114.237 137.427 98.173 137.427 80.9974C137.427 63.7601 130.44 48.154 119.14 36.8597ZM101.378 97.9054C99.4332 95.9604 96.279 95.9604 94.3289 97.9054C92.3839 99.8504 92.3839 103.005 94.3289 104.955C96.279 106.9 99.4332 106.9 101.378 104.955C103.323 103.005 103.323 99.8504 101.378 97.9054Z" fill="#663366"/>
</svg>
