<svg width="150" height="150" viewBox="0 0 150 150" fill="none" xmlns="http://www.w3.org/2000/svg">
<path d="M106.404 9.875C117.437 9.875 126.413 18.8507 126.413 29.8838V110.653C126.413 111.783 125.497 112.698 124.368 112.698H25.6348C24.5054 112.698 23.5898 111.783 23.5898 110.653V29.8838C23.5899 18.8507 32.5656 9.87507 43.5986 9.875H106.404ZM43.5986 13.9648C34.8209 13.9649 27.6798 21.1061 27.6797 29.8838V108.609H122.324V29.8838C122.324 21.106 115.182 13.9648 106.404 13.9648H43.5986Z" fill="#663366" stroke="#663366" stroke-width="0.25"/>
<path d="M124.368 40.0437C125.497 40.0437 126.413 40.9593 126.413 42.0886V80.4851C126.413 81.6144 125.497 82.53 124.368 82.53H25.6348C24.5054 82.53 23.5899 81.6144 23.5898 80.4851V42.0886C23.5898 40.9593 24.5054 40.0437 25.6348 40.0437H124.368ZM27.6797 78.4402H122.324V44.1335H27.6797V78.4402Z" fill="#663366" stroke="#663366" stroke-width="0.25"/>
<path d="M75.002 40.0437C76.1311 40.0439 77.0469 40.9594 77.0469 42.0886V80.4851C77.0469 81.6143 76.1311 82.5299 75.002 82.53H25.6348C24.5054 82.53 23.5899 81.6144 23.5898 80.4851V42.0886C23.5898 40.9593 24.5054 40.0437 25.6348 40.0437H75.002ZM27.6797 78.4402H72.957V44.1335H27.6797V78.4402Z" fill="#663366" stroke="#663366" stroke-width="0.25"/>
<path d="M43.46 86.6681C48.3683 86.6681 52.3613 90.6611 52.3613 95.5695C52.3613 100.478 48.3683 104.471 43.46 104.471C38.5516 104.471 34.5586 100.478 34.5586 95.5695C34.5586 90.6611 38.5516 86.6681 43.46 86.6681ZM43.46 90.7579C40.807 90.7579 38.6484 92.9165 38.6484 95.5695C38.6484 98.2225 40.807 100.381 43.46 100.381C46.113 100.381 48.2715 98.2225 48.2715 95.5695C48.2715 92.9165 46.113 90.7579 43.46 90.7579Z" fill="#663366" stroke="#663366" stroke-width="0.25"/>
<path d="M106.54 86.6681C111.448 86.6681 115.441 90.6611 115.441 95.5695C115.441 100.478 111.448 104.471 106.54 104.471C101.632 104.471 97.6387 100.478 97.6387 95.5695C97.6387 90.6611 101.632 86.6681 106.54 86.6681ZM106.54 90.7579C103.887 90.7579 101.729 92.9165 101.729 95.5695C101.729 98.2225 103.887 100.381 106.54 100.381C109.193 100.381 111.352 98.2225 111.352 95.5695C111.352 92.9165 109.193 90.7579 106.54 90.7579Z" fill="#663366" stroke="#663366" stroke-width="0.25"/>
<path d="M57.6934 108.794C58.6356 108.361 59.7702 108.705 60.3066 109.617L60.4043 109.803C60.8077 110.682 60.5358 111.729 59.7559 112.301L59.5811 112.416L12.957 139.842C12.6317 140.034 12.274 140.125 11.9219 140.125C11.2653 140.125 10.6241 139.808 10.2324 139.235L10.1572 139.116C9.58503 138.143 9.90984 136.89 10.8828 136.318L57.5078 108.892L57.6934 108.794Z" fill="#663366" stroke="#663366" stroke-width="0.25"/>
<path d="M89.8096 109.442C90.4223 108.606 91.5815 108.354 92.4941 108.892L139.118 136.317L139.293 136.433C140.073 137.005 140.345 138.052 139.941 138.931L139.844 139.116C139.463 139.764 138.781 140.125 138.08 140.125C137.772 140.125 137.459 140.055 137.168 139.909L137.045 139.842L90.4209 112.416C89.4473 111.844 89.1225 110.591 89.6953 109.617L89.8096 109.442Z" fill="#663366" stroke="#663366" stroke-width="0.25"/>
<path d="M116.14 125.065C117.269 125.065 118.185 125.98 118.185 127.11C118.185 128.239 117.269 129.154 116.14 129.154H31.1191C29.9898 129.154 29.0743 128.239 29.0742 127.11C29.0742 125.98 29.9898 125.065 31.1191 125.065H116.14Z" fill="#663366" stroke="#663366" stroke-width="0.25"/>
</svg>
