<svg width="150" height="150" viewBox="0 0 150 150" fill="none" xmlns="http://www.w3.org/2000/svg">
<path d="M59.3657 91.1883C59.0248 91.1883 58.7002 91.3237 58.4621 91.562C58.2241 91.8004 58.0888 92.1254 58.0888 92.4666L58.0834 105.277C58.0834 105.619 58.2186 105.944 58.4567 106.182C58.6948 106.42 59.0194 106.556 59.3603 106.556L72.1459 106.561C72.8493 106.561 73.4228 105.987 73.4228 105.283L73.4336 92.4774C73.4336 91.7732 72.8601 91.1991 72.1567 91.1991H71.4912L59.3657 91.1883ZM60.6426 93.7505L70.8743 93.7559L70.8689 103.999L60.6372 103.994L60.6426 93.745V93.7505ZM55.6919 85.2081C59.2467 85.2081 62.1414 82.3102 62.1414 78.7514C62.1414 75.1926 59.2467 72.2946 55.6919 72.2946C52.137 72.2946 49.2424 75.1926 49.2424 78.7514C49.2424 82.3102 52.137 85.2081 55.6919 85.2081ZM55.6919 74.8567C57.84 74.8567 59.5822 76.6063 59.5822 78.7514C59.5822 80.9019 57.8345 82.6461 55.6919 82.6461C53.5438 82.6461 51.8016 80.8965 51.8016 78.7514C51.8016 76.6009 53.5492 74.8567 55.6919 74.8567ZM61.9034 48.7424H69.5649C70.2737 48.7424 70.8418 48.1682 70.8418 47.464V39.7939C70.8418 39.0898 70.2683 38.5156 69.5649 38.5156H61.9034C61.1946 38.5156 60.6265 39.0898 60.6265 39.7939V47.464C60.6265 48.1682 61.2 48.7424 61.9034 48.7424ZM63.1803 41.0723H68.2827V46.1804H63.1803V41.0723ZM75.7928 61.8076H83.4543C84.1631 61.8076 84.7312 61.2334 84.7312 60.5292V52.8591C84.7312 52.155 84.1577 51.5808 83.4543 51.5808H75.7928C75.084 51.5808 74.5158 52.1549 74.5158 52.8591V60.5292C74.5158 61.2334 75.0894 61.8076 75.7928 61.8076ZM77.0697 54.1375H82.172V59.2455H77.0697V54.1375ZM75.7928 48.7424H83.4543C84.1631 48.7424 84.7312 48.1682 84.7312 47.464V39.7939C84.7312 39.0898 84.1577 38.5156 83.4543 38.5156H75.7928C75.084 38.5156 74.5158 39.0898 74.5158 39.7939V47.464C74.5158 48.1682 75.0894 48.7424 75.7928 48.7424ZM77.0697 41.0723H82.172V46.1804H77.0697V41.0723ZM110.043 59.0827H118.018C118.727 59.0827 119.295 58.5086 119.295 57.8044V53.2814C119.295 50.6651 117.169 48.5416 114.561 48.5416H113.5C110.887 48.5416 108.766 50.6705 108.766 53.2814V57.8044C108.766 58.5085 109.34 59.0827 110.043 59.0827ZM111.32 53.2759C111.32 52.0734 112.299 51.093 113.5 51.093H114.561C115.762 51.093 116.741 52.0734 116.741 53.2759V56.5205H111.32L111.32 53.2759ZM95.8728 59.0827H103.848C104.557 59.0827 105.125 58.5086 105.125 57.8044V53.2814C105.125 50.6651 102.999 48.5416 100.391 48.5416H99.3302C96.7169 48.5416 94.5958 50.6705 94.5958 53.2814V57.8044C94.5958 58.5085 95.1694 59.0827 95.8728 59.0827ZM97.1498 53.2759C97.1498 52.0734 98.1291 51.093 99.3303 51.093H100.391C101.592 51.093 102.571 52.0734 102.571 53.2759V56.5205H97.1497L97.1498 53.2759ZM110.038 73.8601H118.013C118.722 73.8601 119.29 73.2859 119.29 72.5817V68.0587C119.29 65.4424 117.164 63.319 114.556 63.319H113.496C110.882 63.319 108.761 65.4478 108.761 68.0587V72.5817C108.761 73.2859 109.335 73.8601 110.038 73.8601ZM111.315 68.0533C111.315 66.8508 112.294 65.8703 113.496 65.8703H114.556C115.757 65.8703 116.737 66.8508 116.737 68.0533V71.2979H111.315L111.315 68.0533ZM95.8679 73.8601H103.843C104.552 73.8601 105.12 73.2859 105.12 72.5817V68.0587C105.12 65.4424 102.994 63.319 100.386 63.319H99.3253C96.712 63.319 94.5909 65.4478 94.5909 68.0587V72.5817C94.5909 73.2859 95.1645 73.8601 95.8679 73.8601ZM97.1449 68.0533C97.1449 66.8508 98.1242 65.8703 99.3254 65.8703H100.386C101.587 65.8703 102.566 66.8508 102.566 68.0533V71.2979H97.1448L97.1449 68.0533ZM110.033 88.6374H118.009C118.717 88.6374 119.286 88.0632 119.286 87.3591V82.8361C119.286 80.2198 117.159 78.0963 114.551 78.0963H113.491C110.877 78.0963 108.756 80.2252 108.756 82.8361V87.3591C108.756 88.0632 109.33 88.6374 110.033 88.6374ZM111.31 82.8306C111.31 81.6281 112.289 80.6477 113.491 80.6477H114.551C115.752 80.6477 116.732 81.6281 116.732 82.8306V86.0752H111.31L111.31 82.8306ZM95.863 88.6374H103.838C104.547 88.6374 105.115 88.0632 105.115 87.3591V82.8361C105.115 80.2198 102.989 78.0963 100.381 78.0963H99.3204C96.7071 78.0963 94.586 80.2252 94.586 82.8361V87.3591C94.586 88.0632 95.1596 88.6374 95.863 88.6374ZM97.14 82.8306C97.14 81.6281 98.1193 80.6477 99.3205 80.6477H100.381C101.582 80.6477 102.561 81.6281 102.561 82.8306V86.0752H97.1399L97.14 82.8306ZM110.028 103.415H118.004C118.712 103.415 119.281 102.841 119.281 102.136V97.6134C119.281 94.9971 117.154 92.8737 114.546 92.8737H113.486C110.872 92.8737 108.751 95.0025 108.751 97.6134V102.136C108.751 102.841 109.325 103.415 110.028 103.415ZM111.305 97.608C111.305 96.4054 112.285 95.425 113.486 95.425H114.546C115.747 95.425 116.727 96.4055 116.727 97.608V100.853H111.305L111.305 97.608ZM95.8581 103.415H103.833C104.542 103.415 105.11 102.841 105.11 102.136V97.6134C105.11 94.9971 102.984 92.8737 100.376 92.8737H99.3155C96.7022 92.8737 94.5811 95.0025 94.5811 97.6134V102.136C94.5811 102.841 95.1547 103.415 95.8581 103.415ZM97.1351 97.608C97.1351 96.4054 98.1144 95.425 99.3156 95.425H100.376C101.577 95.425 102.557 96.4055 102.557 97.608V100.853H97.135L97.1351 97.608ZM136.731 62.6854C136.59 61.992 135.919 61.5424 135.227 61.6833C134.534 61.8241 134.085 62.4958 134.226 63.1891C135.016 67.1162 135.421 71.1626 135.421 75.2144C135.421 87.4725 131.758 98.8853 125.476 108.424L125.493 51.2509C129.789 53.4988 133.538 55.5464 133.998 55.8119C134.199 55.931 134.426 55.9906 134.653 55.9906C134.842 55.9906 135.032 55.9473 135.205 55.866C135.611 55.671 135.881 55.281 135.925 54.8368C135.941 54.6581 135.697 34.3456 126.283 20.6409C125.082 18.8913 118.491 10.1702 106.718 10.0023C104.472 9.96976 97.0216 10.2298 92.5573 14.6553C86.573 12.922 80.3615 12.0823 74.0739 12.1744C57.2472 12.4181 41.523 19.2108 29.8033 31.2956C18.0784 43.3804 11.7591 59.311 12.007 76.158C12.0665 80.3777 12.5481 84.5865 13.4354 88.6707C13.5652 89.272 14.0955 89.6782 14.6853 89.6782C14.7772 89.6782 14.8638 89.6674 14.9558 89.6512C15.6484 89.4995 16.0812 88.817 15.9351 88.129C15.0856 84.2127 14.6257 80.1771 14.5662 76.1255C14.0738 42.7532 40.787 15.2189 74.1108 14.7322C79.7921 14.6509 85.4083 15.3551 90.8405 16.8285C89.0225 19.8673 88.6708 24.0382 89.8936 28.3446C90.5375 30.6088 91.5709 32.7322 92.8641 34.5359L90.083 33.615C90.0451 33.6042 90.0072 33.5934 89.9694 33.5825C89.9531 33.5771 89.9369 33.5717 89.9153 33.5717C89.8503 33.5609 89.78 33.5555 89.7151 33.55C89.7042 33.55 89.6934 33.5446 89.6772 33.5446H55.665C54.9562 33.5446 54.3881 34.1188 54.3881 34.823V53.9442C53.9931 54.1013 53.6197 54.3288 53.2897 54.6321L25.8361 80.0905C24.7107 81.1359 24.24 82.7556 24.6296 84.2181C25.0137 85.659 26.1283 86.6881 27.6812 87.0403C28.8445 87.3003 30.0674 87.0782 31.1062 86.4336V102.126C24.8515 98.9676 16.4112 94.1953 15.7187 93.7837C15.3561 93.5562 14.9016 93.5291 14.5121 93.7133C14.1063 93.9029 13.8249 94.2875 13.7762 94.737C13.7546 94.9158 13.7059 115.234 22.9204 129.069C24.0945 130.835 30.5603 139.653 42.329 139.989C42.5184 139.995 42.751 140 43.0108 140C45.8243 140 52.4146 139.534 56.5591 135.547C62.5163 137.373 68.7169 138.299 75.0037 138.299C91.8304 138.299 107.652 131.739 119.55 119.828C131.448 107.917 138 92.0778 138 75.2322C138 71.0125 137.583 66.7929 136.756 62.7031L136.731 62.6854ZM98.0977 36.2022C92.9738 32.7679 89.6679 23.267 93.1686 17.8826C93.2389 17.7742 93.3147 17.6713 93.3904 17.5684C95.6845 18.2997 97.9191 19.1663 100.089 20.1576C99.7912 22.3189 99.7912 24.4965 100.094 26.6578C100.424 29.0087 101.101 31.2891 102.118 33.4342C102.334 33.8946 102.794 34.1708 103.276 34.1708C103.46 34.1708 103.644 34.1329 103.822 34.0463C104.461 33.7429 104.737 32.9792 104.434 32.3399C103.53 30.4278 102.924 28.391 102.632 26.3002C102.399 24.648 102.372 22.9851 102.534 21.333C105.18 22.6872 107.712 24.2309 110.12 25.9535C109.585 28.2611 109.622 30.314 110.239 32.0691C110.299 32.2479 110.353 32.3833 110.618 33.0441C110.775 33.4395 111.002 34.0246 111.359 34.9238C111.825 36.1046 111.949 36.4188 112.203 37.0743C112.398 37.578 112.885 37.8868 113.394 37.8868C113.551 37.8868 113.708 37.8597 113.859 37.8001C114.519 37.5401 114.844 36.798 114.584 36.1426C114.33 35.4872 114.205 35.1676 113.74 33.9867C113.383 33.0821 113.156 32.4971 112.999 32.1016C112.755 31.4841 112.701 31.3541 112.658 31.2241C112.306 30.2058 112.22 29.0195 112.404 27.6707C114.99 29.7129 117.414 31.9717 119.643 34.42C119.308 35.8121 119.037 38.0277 119.692 40.606C119.941 41.5918 120.466 42.6318 121.201 43.6123C121.45 43.9482 121.834 44.1269 122.224 44.1269C122.489 44.1269 122.76 44.0457 122.992 43.8723C123.555 43.4498 123.674 42.6481 123.247 42.0793C122.711 41.3643 122.338 40.6384 122.17 39.9722C121.894 38.878 121.824 37.8597 121.862 36.9876C123.636 39.1706 125.27 41.489 126.747 43.932C126.985 44.3274 127.407 44.5495 127.84 44.5495C128.068 44.5495 128.295 44.4899 128.5 44.3653C129.106 43.997 129.296 43.2115 128.933 42.6049C127.321 39.9344 125.525 37.4102 123.566 35.0377C123.945 35.0593 124.356 35.1243 124.783 35.2489C126.066 35.6227 126.731 36.576 127.131 37.1394C127.223 37.264 127.299 37.3723 127.364 37.4536C127.802 38.0061 128.609 38.1036 129.161 37.6648C129.712 37.2261 129.81 36.419 129.372 35.8664C129.334 35.8177 129.285 35.7473 129.225 35.666C128.711 34.9347 127.646 33.418 125.503 32.7897C123.912 32.3239 122.484 32.4322 121.494 32.6435C119.205 30.1355 116.721 27.8225 114.07 25.7208C115.109 25.3849 116.424 25.1629 117.917 25.347C119.811 25.5854 121.234 26.3925 122.099 27.0262C122.668 27.4433 123.468 27.3241 123.885 26.7499C124.302 26.1812 124.183 25.3795 123.609 24.9623C122.5 24.1498 120.666 23.1153 118.231 22.8064C115.428 22.4543 113.123 23.2235 111.689 23.9223C109.487 22.3406 107.182 20.9051 104.785 19.6159C106.132 19.2801 107.512 19.1121 108.908 19.123C110.694 19.1392 112.458 19.4426 114.157 20.0276C114.822 20.2605 115.553 19.903 115.78 19.2313C116.007 18.565 115.655 17.8338 114.984 17.6062C113.02 16.9291 110.986 16.577 108.924 16.5608C106.392 16.5391 103.909 17.0266 101.544 17.9908C99.5532 17.0645 97.5079 16.2412 95.4139 15.5262C99.1799 12.7474 104.753 12.5252 106.43 12.5252H106.674C117.408 12.6769 123.506 21.0946 124.167 22.0534C131.249 32.3615 132.889 46.9487 133.257 52.447C128.674 49.9552 117.875 44.2297 113.913 42.8376C111.814 42.0955 110.142 41.5538 108.665 41.0772C104.974 39.8801 102.891 39.2029 99.618 37.1663C99.4719 36.8575 99.2121 36.6084 98.8659 36.4892L98.2707 36.2942C98.2166 36.2563 98.1625 36.2238 98.1084 36.1859L98.0977 36.2022ZM97.14 38.6344C101.355 41.4078 103.714 42.177 107.869 43.5257C109.33 44.0023 110.986 44.5386 113.058 45.2698C115.071 45.9794 118.999 47.8969 122.917 49.9067V112.015C122.435 112.644 121.943 113.261 121.44 113.868H90.9443L90.9605 36.6026L97.1505 38.6502L97.14 38.6344ZM88.3909 36.0939V113.863H79.7933V86.1177C80.6428 86.7731 81.6547 87.1252 82.6772 87.1252C83.0019 87.1252 83.3265 87.0873 83.6457 87.0168C85.1986 86.6647 86.3078 85.6356 86.6973 84.1946C87.0923 82.7321 86.6162 81.1124 85.4907 80.067L79.8582 74.8398H83.44C84.1488 74.8398 84.717 74.2657 84.717 73.5615V65.8914C84.717 65.1872 84.1434 64.613 83.44 64.613H75.7785C75.0697 64.613 74.5016 65.1872 74.5016 65.8914V69.8727L65.7687 61.7747H69.5508C70.2596 61.7747 70.8278 61.2005 70.8278 60.4963V52.8262C70.8278 52.122 70.2542 51.5478 69.5508 51.5478H61.8893C61.1805 51.5478 60.6124 52.122 60.6124 52.8262V56.9917L58.0369 54.6028C57.7068 54.2995 57.3335 54.072 56.9385 53.9149V36.0723H88.3909L88.3909 36.0939ZM77.0555 72.2618V67.1862H82.1578V72.2942H77.0934L77.0555 72.2618ZM63.1666 59.2344V54.1264H68.2689V59.2344H63.1666ZM28.2347 84.5361C27.6233 84.3953 27.2283 84.054 27.093 83.5503C26.9469 83.0032 27.1363 82.364 27.5638 81.9686L55.0173 56.5102C55.3744 56.1798 55.9371 56.1798 56.2942 56.5102L74.0795 72.9994L75.7135 74.5162L77.9266 76.5746L83.7539 81.9697C84.1867 82.3705 84.3761 83.0043 84.23 83.5514C84.0947 84.0606 83.6998 84.4018 83.0884 84.5372C82.4553 84.6835 81.7303 84.4614 81.1946 83.9685L58.0419 62.4968C57.3764 61.8793 56.5214 61.5706 55.6667 61.5706C54.8119 61.5706 53.9569 61.8793 53.2914 62.4968L31.7248 82.4958C31.5732 82.5879 31.4434 82.707 31.3406 82.8533L30.1394 83.9692C29.6037 84.4621 28.8841 84.6842 28.2456 84.5379L28.2347 84.5361ZM33.6509 84.184L55.0181 64.3695C55.3752 64.0391 55.9379 64.0391 56.295 64.3695L77.2343 83.7833V113.868H55.1038C54.6439 113.364 54.1678 112.903 53.6645 112.486V92.2545C53.6645 91.5503 53.091 90.9761 52.3876 90.9761H39.2071C38.4983 90.9761 37.9302 91.5503 37.9302 92.2545V105.13C37.4649 104.962 36.9779 104.789 36.4639 104.599C35.7443 104.334 34.7757 103.906 33.6448 103.37V84.1779L33.6509 84.184ZM51.1106 110.694C47.637 108.473 45.3591 107.693 41.6256 106.42C41.2577 106.295 40.8789 106.165 40.4839 106.03V93.5386H51.1106L51.1106 110.694ZM42.3777 137.419C31.6428 137.111 25.6701 128.606 25.026 127.637C18.0895 117.22 16.6664 102.59 16.3797 97.0974C20.8868 99.6324 31.5248 105.51 35.5819 107.005C37.6704 107.774 39.3369 108.343 40.8032 108.846C45.0074 110.282 47.1175 111.002 51.2946 113.889C56.3645 117.399 59.5351 126.944 55.9586 132.28C55.8883 132.388 55.8071 132.486 55.7314 132.588C53.4481 131.825 51.2297 130.926 49.0708 129.902C49.4008 127.746 49.4333 125.563 49.1628 123.402C48.8706 121.045 48.2213 118.759 47.242 116.593C46.9498 115.948 46.1923 115.666 45.5484 115.959C44.9045 116.251 44.6231 117.01 44.9153 117.654C45.7918 119.583 46.3654 121.625 46.6305 123.721C46.8361 125.373 46.8415 127.036 46.6576 128.688C44.0334 127.296 41.5229 125.715 39.1421 123.954C39.7102 121.657 39.6994 119.604 39.115 117.838C39.0555 117.66 39.0014 117.524 38.7525 116.863C38.601 116.468 38.3792 115.878 38.0383 114.967C37.5946 113.781 37.4702 113.462 37.2267 112.806C36.9778 112.145 36.2419 111.809 35.5818 112.053C34.9217 112.302 34.5862 113.039 34.8297 113.7C35.0732 114.361 35.1976 114.68 35.6413 115.867C35.9822 116.777 36.2095 117.372 36.3555 117.768C36.5882 118.385 36.6369 118.515 36.6802 118.645C37.0211 119.664 37.086 120.861 36.8804 122.204C34.3211 120.124 31.935 117.833 29.7437 115.352C30.1008 113.965 30.4038 111.755 29.787 109.166C29.5489 108.175 29.0457 107.129 28.3261 106.138C27.9095 105.564 27.1141 105.439 26.5405 105.857C25.967 106.274 25.8425 107.075 26.2591 107.644C26.784 108.365 27.1465 109.101 27.3034 109.762C27.5686 110.862 27.6172 111.88 27.5686 112.747C25.8263 110.536 24.2247 108.197 22.7855 105.732C22.4284 105.12 21.6439 104.914 21.0379 105.271C20.4265 105.629 20.2209 106.414 20.578 107.021C22.1525 109.713 23.9109 112.264 25.8318 114.664C25.4531 114.637 25.0419 114.567 24.6198 114.437C23.3429 114.041 22.6882 113.082 22.2986 112.514C22.212 112.384 22.1363 112.275 22.0713 112.194C21.6439 111.631 20.8377 111.528 20.2804 111.956C19.7176 112.384 19.6148 113.191 20.0423 113.749C20.0802 113.803 20.1289 113.868 20.183 113.949C20.6861 114.686 21.7304 116.219 23.8622 116.88C24.7225 117.145 25.5394 117.243 26.2646 117.243C26.8706 117.243 27.4116 117.178 27.8661 117.085C30.1169 119.626 32.5679 121.977 35.1868 124.116C34.1426 124.436 32.8224 124.642 31.3345 124.431C29.4461 124.165 28.0339 123.336 27.179 122.692C26.6163 122.264 25.8155 122.378 25.388 122.941C24.9606 123.504 25.0742 124.306 25.6369 124.734C26.7353 125.563 28.5534 126.624 30.9828 126.966C31.5238 127.042 32.0487 127.074 32.5519 127.074C34.6458 127.074 36.3772 126.489 37.5406 125.942C39.7211 127.556 42.0045 129.024 44.3797 130.346C43.0271 130.66 41.6473 130.806 40.2459 130.779C38.4657 130.736 36.7019 130.411 35.0084 129.799C34.3429 129.56 33.6125 129.902 33.3744 130.568C33.1362 131.234 33.4772 131.965 34.1427 132.204C36.096 132.908 38.1304 133.287 40.1865 133.336C40.3326 133.341 40.4787 133.341 40.6301 133.341C43.0163 133.341 45.3538 132.892 47.5937 132.014C49.5686 132.968 51.603 133.818 53.6861 134.565C49.6714 137.436 43.6816 137.436 42.383 137.399L42.3777 137.419ZM74.9771 135.724C69.2957 135.724 63.6849 134.933 58.2791 133.384C60.1405 130.372 60.5516 126.207 59.3938 121.884C58.8689 119.928 58.0573 118.076 57.0347 116.435H78.5044H78.5153H78.5261H119.187C108.144 128.297 92.4149 135.729 74.9815 135.729L74.9771 135.724Z" fill="#663366"/>
</svg>
