<svg width="151" height="151" viewBox="0 0 151 151" fill="none" xmlns="http://www.w3.org/2000/svg">
<mask id="path-1-outside-1_146_2718" maskUnits="userSpaceOnUse" x="13" y="9" width="125" height="134" fill="black">
<rect fill="white" x="13" y="9" width="125" height="134"/>
<path fill-rule="evenodd" clip-rule="evenodd" d="M124.056 108.566C125.223 103 124.259 97.2001 121.346 92.3254C121.22 92.1213 121.214 91.8691 121.334 91.659C121.513 91.3408 121.914 91.2327 122.237 91.4068C126.401 93.6944 129.883 97.0626 132.324 101.151C135.321 106.195 136.536 112.103 135.782 117.927C135.022 123.75 132.336 129.148 128.154 133.249C123.452 137.854 117.247 140.598 110.691 140.958C104.128 141.324 97.6603 139.283 92.4847 135.224C87.7584 131.514 84.4319 126.29 83.0679 120.418C82.9961 120.178 83.0738 119.914 83.2593 119.752C83.5345 119.506 83.9533 119.53 84.1986 119.8C88.0037 123.961 93.2385 126.524 98.8504 126.975C104.624 127.455 110.373 125.846 115.064 122.442C119.683 119.109 122.889 114.162 124.05 108.572L124.056 108.566ZM131.169 101.823C129.273 98.629 126.694 95.8972 123.625 93.8077L123.625 93.8134C125.809 98.4965 126.419 103.774 125.36 108.835C124.128 114.744 120.735 119.973 115.847 123.491C110.899 127.088 104.827 128.787 98.7364 128.277C93.657 127.868 88.8469 125.821 85.0179 122.453C86.5855 127.094 89.4692 131.171 93.3161 134.191C98.234 138.051 104.378 139.99 110.612 139.642C116.847 139.3 122.74 136.694 127.209 132.317C131.181 128.421 133.736 123.293 134.454 117.758C135.172 112.228 134.017 106.614 131.169 101.823Z"/>
<path fill-rule="evenodd" clip-rule="evenodd" d="M117.283 104.015L113.149 107.071L114.537 111.928L114.561 112.018H114.567C114.699 112.817 114.603 113.639 114.28 114.378C113.957 115.122 113.425 115.759 112.748 116.209C112.06 116.671 111.259 116.929 110.427 116.959C109.626 116.989 108.83 116.791 108.13 116.389C108.094 116.371 108.058 116.347 108.028 116.323L104.253 113.471L100.436 116.293L100.382 116.329C98.9642 117.175 97.1934 117.139 95.8112 116.239L95.7694 116.209C94.3933 115.284 93.6873 113.639 93.9625 112L95.3206 107.083L91.2343 104.027L91.1925 103.991C90.5882 103.45 90.1455 102.748 89.9301 101.967C89.7207 101.187 89.7327 100.358 89.9839 99.5896C90.2292 98.8211 90.6959 98.1366 91.3241 97.6203C91.9583 97.104 92.724 96.7738 93.5317 96.6777L98.6889 96.5997L100.328 91.7964L100.352 91.7364C100.699 90.9979 101.256 90.3735 101.95 89.9411C102.65 89.5028 103.463 89.2687 104.289 89.2687C105.108 89.2687 105.904 89.4968 106.598 89.9351C107.268 90.3614 107.807 90.9738 108.148 91.6943C108.172 91.7303 108.184 91.7663 108.195 91.8023L109.787 96.5936L114.866 96.6656H114.992C115.806 96.7677 116.571 97.0919 117.2 97.6143C117.828 98.1246 118.294 98.8091 118.546 99.5835C118.791 100.352 118.809 101.175 118.594 101.955C118.378 102.736 117.942 103.444 117.331 103.978L117.283 104.015ZM116.452 102.994L112.025 106.266L112.024 106.26C111.785 106.416 111.671 106.71 111.749 106.987L113.257 112.264C113.346 112.805 113.275 113.357 113.059 113.855C112.838 114.372 112.473 114.81 112.012 115.122C111.528 115.44 110.971 115.62 110.391 115.638C109.841 115.662 109.296 115.53 108.817 115.26H108.823L104.671 112.12C104.432 111.946 104.103 111.946 103.864 112.12L99.6578 115.224C98.6886 115.788 97.4862 115.758 96.5469 115.152L96.5169 115.128C95.5717 114.492 95.0871 113.363 95.2725 112.24V112.234L96.7084 107.035C96.8041 106.764 96.7144 106.464 96.481 106.296L92.0598 102.976C91.6589 102.61 91.3718 102.135 91.2282 101.613C91.0786 101.073 91.0906 100.508 91.2641 99.9798C91.4316 99.4455 91.7487 98.9771 92.1794 98.6229C92.6162 98.2687 93.1367 98.0465 93.6931 97.9805V97.9745L99.1554 97.8964C99.4485 97.9084 99.7118 97.7283 99.8075 97.4521L101.584 92.2406C101.824 91.7483 102.201 91.334 102.667 91.0458C103.158 90.7396 103.72 90.5775 104.295 90.5715C104.857 90.5715 105.408 90.7336 105.886 91.0338C106.341 91.328 106.712 91.7423 106.951 92.2286L108.674 97.4461C108.764 97.7163 109.015 97.8964 109.296 97.8964V97.9024L114.848 97.9805C115.399 98.0465 115.925 98.2687 116.356 98.6229C116.787 98.9771 117.104 99.4454 117.271 99.9798C117.445 100.508 117.457 101.079 117.307 101.613C117.158 102.147 116.865 102.628 116.452 103V102.994Z"/>
<path fill-rule="evenodd" clip-rule="evenodd" d="M128.142 18.7513C133.162 23.6745 135.992 30.417 135.992 37.4662C135.992 44.5089 133.162 51.2516 128.142 56.175C123.081 61.1464 116.278 63.9262 109.195 63.9262C102.111 63.9262 95.3147 61.1464 90.2475 56.175C85.228 51.2517 82.398 44.5092 82.398 37.4662C82.398 30.4175 85.228 23.6748 90.2475 18.7513C95.3149 13.7859 102.111 11 109.195 11C116.278 11 123.081 13.7859 128.142 18.7513ZM117.523 58.8102C115.309 61.0678 112.342 62.4187 109.195 62.6109L109.195 62.6093C102.458 62.6273 95.9907 59.9795 91.1865 55.2423C86.4182 50.5657 83.726 44.1535 83.726 37.465C83.726 30.7709 86.4182 24.3587 91.1865 19.6815C94.4173 16.4934 98.4437 14.2179 102.841 13.1071C101.866 13.7196 100.968 14.4581 100.173 15.2926C95.195 20.5044 95.195 28.73 100.173 33.9415C102.584 36.4753 105.862 38.0063 109.35 38.2224C115.842 38.6247 120.897 44.0283 120.879 50.5607C120.885 53.6467 119.683 56.6127 117.523 58.8102ZM127.209 19.6816C122.453 14.9925 116.057 12.3446 109.386 12.3206L109.375 12.3197C106.245 12.5238 103.302 13.9047 101.136 16.1863C96.6431 20.8997 96.6431 28.3267 101.136 33.0399C103.32 35.3334 106.275 36.7143 109.428 36.9064C116.614 37.3506 122.214 43.3308 122.214 50.5596C122.22 53.9878 120.88 57.278 118.486 59.7277C117.768 60.4661 116.973 61.1206 116.105 61.679C120.293 60.5142 124.11 58.3047 127.209 55.2486C131.978 50.5719 134.67 44.1597 134.67 37.4651C134.67 30.771 131.978 24.3588 127.209 19.6816Z"/>
<path fill-rule="evenodd" clip-rule="evenodd" d="M108.74 48.1889C109.374 48.8133 109.733 49.6659 109.733 50.5605C109.733 51.4491 109.374 52.3077 108.74 52.9322C107.406 54.241 105.27 54.241 103.936 52.9322C103.296 52.3077 102.937 51.4492 102.937 50.5605C102.937 49.6659 103.296 48.8134 103.936 48.1889C105.27 46.88 107.406 46.88 108.74 48.1889ZM107.795 52.0015C108.184 51.6232 108.399 51.1009 108.399 50.5605V50.5545C108.399 50.0141 108.184 49.4978 107.795 49.1195C106.987 48.321 105.689 48.321 104.875 49.1195C104.492 49.4978 104.277 50.0141 104.277 50.5605C104.277 51.1009 104.492 51.6232 104.875 52.0015C105.689 52.794 106.987 52.794 107.795 52.0015Z"/>
<path fill-rule="evenodd" clip-rule="evenodd" d="M116.021 22.2516C116.655 22.876 117.014 23.7345 117.014 24.6232C117.014 25.5178 116.655 26.3703 116.021 26.9948C114.699 28.2917 112.593 28.3097 111.259 27.0309L111.217 26.9948C110.577 26.3704 110.224 25.5178 110.224 24.6232C110.224 23.7346 110.577 22.8761 111.217 22.2516C112.551 20.9427 114.687 20.9427 116.021 22.2516ZM115.076 26.0642C115.465 25.6859 115.68 25.1696 115.68 24.6232C115.68 24.0828 115.465 23.5665 115.076 23.1822C114.262 22.3897 112.97 22.3897 112.156 23.1822C111.773 23.5605 111.552 24.0828 111.552 24.6232C111.552 25.1696 111.773 25.6859 112.156 26.0642L112.186 26.0942C113.006 26.8627 114.274 26.8507 115.076 26.0642Z"/>
<path fill-rule="evenodd" clip-rule="evenodd" d="M15.666 23.8372H30.0605L37.1859 11.3368H37.1919C37.2518 11.2347 37.3415 11.1446 37.4492 11.0846C37.7663 10.9105 38.1731 11.0246 38.3526 11.3428L45.4004 23.8432H59.6216V23.8372C59.9865 23.8372 60.2797 24.1314 60.2856 24.4976C60.2856 24.6297 60.2438 24.7558 60.172 24.8639L53.0764 37.4663L60.172 50.0688V50.0748C60.2438 50.1829 60.2856 50.3089 60.2856 50.441C60.2797 50.8073 59.9865 51.1015 59.6216 51.0955H45.3944L38.3466 63.5959C38.1671 63.9141 37.7603 64.0281 37.4432 63.848C37.3355 63.794 37.2458 63.7039 37.186 63.5959L30.0605 51.0955H15.666C15.5523 51.0955 15.4386 51.0654 15.3369 51.0114C15.1873 50.9274 15.0737 50.7893 15.0258 50.6211C14.978 50.453 14.9959 50.2729 15.0856 50.1168L22.2949 37.4722L15.0856 24.8157C15.0019 24.6656 14.978 24.4855 15.0318 24.3173C15.0797 24.1492 15.1874 24.0051 15.3429 23.9211C15.4446 23.867 15.5523 23.8372 15.666 23.8372ZM29.311 49.7728H16.8069L23.059 38.8034L29.311 49.7728ZM23.8265 37.4664L30.8382 49.7746H44.6166L51.5506 37.4664L44.6166 25.1581H30.8442L23.8265 37.4664ZM58.4788 49.7746H46.1303L52.3046 38.8173L58.4788 49.7746ZM37.7663 12.9998L43.8688 23.8372H31.5921L37.7663 12.9998ZM46.1302 25.1581L58.4787 25.1521L58.4785 25.1581L52.3043 36.1154L46.1302 25.1581ZM16.8084 25.1581L29.3125 25.1521L29.3123 25.1581L23.0603 36.1274L16.8084 25.1581ZM37.7661 61.9207L31.5919 51.0834H43.8686L37.7661 61.9207Z"/>
<path fill-rule="evenodd" clip-rule="evenodd" d="M45.7179 115.572V140.339C45.7179 140.519 45.6461 140.687 45.5204 140.807C45.3948 140.933 45.2273 140.999 45.0478 140.999H28.6735C28.494 140.999 28.3265 140.933 28.2009 140.807C28.0752 140.687 28.0034 140.519 28.0034 140.339V115.579H15.6669C15.4934 115.579 15.3258 115.513 15.2002 115.386C15.0746 115.266 15.0028 115.098 15.0028 114.918V99.0022C15.0088 98.6359 15.3019 98.3417 15.6669 98.3417H28.0034V88.477C28.0034 88.2969 28.0752 88.1288 28.2008 88.0087C28.3265 87.8826 28.494 87.8166 28.6735 87.8166H45.06C45.2335 87.8166 45.401 87.8826 45.5267 88.0087C45.6523 88.1288 45.7241 88.2969 45.7241 88.477V98.3477H58.318V98.3417C58.6829 98.3417 58.9821 98.6359 58.988 99.0022V114.918C58.988 115.098 58.9163 115.266 58.7906 115.386C58.665 115.513 58.4974 115.579 58.318 115.579L45.7179 115.572ZM44.3837 114.919V139.673L29.337 139.679V114.919C29.331 114.553 29.0378 114.259 28.6729 114.265H16.3363V99.663H28.6729C28.8464 99.663 29.0139 99.5909 29.1395 99.4708C29.2652 99.3447 29.337 99.1766 29.337 99.0025V89.1318H44.3837V99.0025C44.3837 99.1826 44.4555 99.3507 44.5811 99.4708C44.7068 99.5969 44.8743 99.663 45.0478 99.663H57.6416V114.265H45.0478C44.6828 114.259 44.3897 114.553 44.3837 114.919Z"/>
</mask>
<path fill-rule="evenodd" clip-rule="evenodd" d="M124.056 108.566C125.223 103 124.259 97.2001 121.346 92.3254C121.22 92.1213 121.214 91.8691 121.334 91.659C121.513 91.3408 121.914 91.2327 122.237 91.4068C126.401 93.6944 129.883 97.0626 132.324 101.151C135.321 106.195 136.536 112.103 135.782 117.927C135.022 123.75 132.336 129.148 128.154 133.249C123.452 137.854 117.247 140.598 110.691 140.958C104.128 141.324 97.6603 139.283 92.4847 135.224C87.7584 131.514 84.4319 126.29 83.0679 120.418C82.9961 120.178 83.0738 119.914 83.2593 119.752C83.5345 119.506 83.9533 119.53 84.1986 119.8C88.0037 123.961 93.2385 126.524 98.8504 126.975C104.624 127.455 110.373 125.846 115.064 122.442C119.683 119.109 122.889 114.162 124.05 108.572L124.056 108.566ZM131.169 101.823C129.273 98.629 126.694 95.8972 123.625 93.8077L123.625 93.8134C125.809 98.4965 126.419 103.774 125.36 108.835C124.128 114.744 120.735 119.973 115.847 123.491C110.899 127.088 104.827 128.787 98.7364 128.277C93.657 127.868 88.8469 125.821 85.0179 122.453C86.5855 127.094 89.4692 131.171 93.3161 134.191C98.234 138.051 104.378 139.99 110.612 139.642C116.847 139.3 122.74 136.694 127.209 132.317C131.181 128.421 133.736 123.293 134.454 117.758C135.172 112.228 134.017 106.614 131.169 101.823Z" fill="#663366"/>
<path fill-rule="evenodd" clip-rule="evenodd" d="M117.283 104.015L113.149 107.071L114.537 111.928L114.561 112.018H114.567C114.699 112.817 114.603 113.639 114.28 114.378C113.957 115.122 113.425 115.759 112.748 116.209C112.06 116.671 111.259 116.929 110.427 116.959C109.626 116.989 108.83 116.791 108.13 116.389C108.094 116.371 108.058 116.347 108.028 116.323L104.253 113.471L100.436 116.293L100.382 116.329C98.9642 117.175 97.1934 117.139 95.8112 116.239L95.7694 116.209C94.3933 115.284 93.6873 113.639 93.9625 112L95.3206 107.083L91.2343 104.027L91.1925 103.991C90.5882 103.45 90.1455 102.748 89.9301 101.967C89.7207 101.187 89.7327 100.358 89.9839 99.5896C90.2292 98.8211 90.6959 98.1366 91.3241 97.6203C91.9583 97.104 92.724 96.7738 93.5317 96.6777L98.6889 96.5997L100.328 91.7964L100.352 91.7364C100.699 90.9979 101.256 90.3735 101.95 89.9411C102.65 89.5028 103.463 89.2687 104.289 89.2687C105.108 89.2687 105.904 89.4968 106.598 89.9351C107.268 90.3614 107.807 90.9738 108.148 91.6943C108.172 91.7303 108.184 91.7663 108.195 91.8023L109.787 96.5936L114.866 96.6656H114.992C115.806 96.7677 116.571 97.0919 117.2 97.6143C117.828 98.1246 118.294 98.8091 118.546 99.5835C118.791 100.352 118.809 101.175 118.594 101.955C118.378 102.736 117.942 103.444 117.331 103.978L117.283 104.015ZM116.452 102.994L112.025 106.266L112.024 106.26C111.785 106.416 111.671 106.71 111.749 106.987L113.257 112.264C113.346 112.805 113.275 113.357 113.059 113.855C112.838 114.372 112.473 114.81 112.012 115.122C111.528 115.44 110.971 115.62 110.391 115.638C109.841 115.662 109.296 115.53 108.817 115.26H108.823L104.671 112.12C104.432 111.946 104.103 111.946 103.864 112.12L99.6578 115.224C98.6886 115.788 97.4862 115.758 96.5469 115.152L96.5169 115.128C95.5717 114.492 95.0871 113.363 95.2725 112.24V112.234L96.7084 107.035C96.8041 106.764 96.7144 106.464 96.481 106.296L92.0598 102.976C91.6589 102.61 91.3718 102.135 91.2282 101.613C91.0786 101.073 91.0906 100.508 91.2641 99.9798C91.4316 99.4455 91.7487 98.9771 92.1794 98.6229C92.6162 98.2687 93.1367 98.0465 93.6931 97.9805V97.9745L99.1554 97.8964C99.4485 97.9084 99.7118 97.7283 99.8075 97.4521L101.584 92.2406C101.824 91.7483 102.201 91.334 102.667 91.0458C103.158 90.7396 103.72 90.5775 104.295 90.5715C104.857 90.5715 105.408 90.7336 105.886 91.0338C106.341 91.328 106.712 91.7423 106.951 92.2286L108.674 97.4461C108.764 97.7163 109.015 97.8964 109.296 97.8964V97.9024L114.848 97.9805C115.399 98.0465 115.925 98.2687 116.356 98.6229C116.787 98.9771 117.104 99.4454 117.271 99.9798C117.445 100.508 117.457 101.079 117.307 101.613C117.158 102.147 116.865 102.628 116.452 103V102.994Z" fill="#663366"/>
<path fill-rule="evenodd" clip-rule="evenodd" d="M128.142 18.7513C133.162 23.6745 135.992 30.417 135.992 37.4662C135.992 44.5089 133.162 51.2516 128.142 56.175C123.081 61.1464 116.278 63.9262 109.195 63.9262C102.111 63.9262 95.3147 61.1464 90.2475 56.175C85.228 51.2517 82.398 44.5092 82.398 37.4662C82.398 30.4175 85.228 23.6748 90.2475 18.7513C95.3149 13.7859 102.111 11 109.195 11C116.278 11 123.081 13.7859 128.142 18.7513ZM117.523 58.8102C115.309 61.0678 112.342 62.4187 109.195 62.6109L109.195 62.6093C102.458 62.6273 95.9907 59.9795 91.1865 55.2423C86.4182 50.5657 83.726 44.1535 83.726 37.465C83.726 30.7709 86.4182 24.3587 91.1865 19.6815C94.4173 16.4934 98.4437 14.2179 102.841 13.1071C101.866 13.7196 100.968 14.4581 100.173 15.2926C95.195 20.5044 95.195 28.73 100.173 33.9415C102.584 36.4753 105.862 38.0063 109.35 38.2224C115.842 38.6247 120.897 44.0283 120.879 50.5607C120.885 53.6467 119.683 56.6127 117.523 58.8102ZM127.209 19.6816C122.453 14.9925 116.057 12.3446 109.386 12.3206L109.375 12.3197C106.245 12.5238 103.302 13.9047 101.136 16.1863C96.6431 20.8997 96.6431 28.3267 101.136 33.0399C103.32 35.3334 106.275 36.7143 109.428 36.9064C116.614 37.3506 122.214 43.3308 122.214 50.5596C122.22 53.9878 120.88 57.278 118.486 59.7277C117.768 60.4661 116.973 61.1206 116.105 61.679C120.293 60.5142 124.11 58.3047 127.209 55.2486C131.978 50.5719 134.67 44.1597 134.67 37.4651C134.67 30.771 131.978 24.3588 127.209 19.6816Z" fill="#663366"/>
<path fill-rule="evenodd" clip-rule="evenodd" d="M108.74 48.1889C109.374 48.8133 109.733 49.6659 109.733 50.5605C109.733 51.4491 109.374 52.3077 108.74 52.9322C107.406 54.241 105.27 54.241 103.936 52.9322C103.296 52.3077 102.937 51.4492 102.937 50.5605C102.937 49.6659 103.296 48.8134 103.936 48.1889C105.27 46.88 107.406 46.88 108.74 48.1889ZM107.795 52.0015C108.184 51.6232 108.399 51.1009 108.399 50.5605V50.5545C108.399 50.0141 108.184 49.4978 107.795 49.1195C106.987 48.321 105.689 48.321 104.875 49.1195C104.492 49.4978 104.277 50.0141 104.277 50.5605C104.277 51.1009 104.492 51.6232 104.875 52.0015C105.689 52.794 106.987 52.794 107.795 52.0015Z" fill="#663366"/>
<path fill-rule="evenodd" clip-rule="evenodd" d="M116.021 22.2516C116.655 22.876 117.014 23.7345 117.014 24.6232C117.014 25.5178 116.655 26.3703 116.021 26.9948C114.699 28.2917 112.593 28.3097 111.259 27.0309L111.217 26.9948C110.577 26.3704 110.224 25.5178 110.224 24.6232C110.224 23.7346 110.577 22.8761 111.217 22.2516C112.551 20.9427 114.687 20.9427 116.021 22.2516ZM115.076 26.0642C115.465 25.6859 115.68 25.1696 115.68 24.6232C115.68 24.0828 115.465 23.5665 115.076 23.1822C114.262 22.3897 112.97 22.3897 112.156 23.1822C111.773 23.5605 111.552 24.0828 111.552 24.6232C111.552 25.1696 111.773 25.6859 112.156 26.0642L112.186 26.0942C113.006 26.8627 114.274 26.8507 115.076 26.0642Z" fill="#663366"/>
<path fill-rule="evenodd" clip-rule="evenodd" d="M15.666 23.8372H30.0605L37.1859 11.3368H37.1919C37.2518 11.2347 37.3415 11.1446 37.4492 11.0846C37.7663 10.9105 38.1731 11.0246 38.3526 11.3428L45.4004 23.8432H59.6216V23.8372C59.9865 23.8372 60.2797 24.1314 60.2856 24.4976C60.2856 24.6297 60.2438 24.7558 60.172 24.8639L53.0764 37.4663L60.172 50.0688V50.0748C60.2438 50.1829 60.2856 50.3089 60.2856 50.441C60.2797 50.8073 59.9865 51.1015 59.6216 51.0955H45.3944L38.3466 63.5959C38.1671 63.9141 37.7603 64.0281 37.4432 63.848C37.3355 63.794 37.2458 63.7039 37.186 63.5959L30.0605 51.0955H15.666C15.5523 51.0955 15.4386 51.0654 15.3369 51.0114C15.1873 50.9274 15.0737 50.7893 15.0258 50.6211C14.978 50.453 14.9959 50.2729 15.0856 50.1168L22.2949 37.4722L15.0856 24.8157C15.0019 24.6656 14.978 24.4855 15.0318 24.3173C15.0797 24.1492 15.1874 24.0051 15.3429 23.9211C15.4446 23.867 15.5523 23.8372 15.666 23.8372ZM29.311 49.7728H16.8069L23.059 38.8034L29.311 49.7728ZM23.8265 37.4664L30.8382 49.7746H44.6166L51.5506 37.4664L44.6166 25.1581H30.8442L23.8265 37.4664ZM58.4788 49.7746H46.1303L52.3046 38.8173L58.4788 49.7746ZM37.7663 12.9998L43.8688 23.8372H31.5921L37.7663 12.9998ZM46.1302 25.1581L58.4787 25.1521L58.4785 25.1581L52.3043 36.1154L46.1302 25.1581ZM16.8084 25.1581L29.3125 25.1521L29.3123 25.1581L23.0603 36.1274L16.8084 25.1581ZM37.7661 61.9207L31.5919 51.0834H43.8686L37.7661 61.9207Z" fill="#663366"/>
<path fill-rule="evenodd" clip-rule="evenodd" d="M45.7179 115.572V140.339C45.7179 140.519 45.6461 140.687 45.5204 140.807C45.3948 140.933 45.2273 140.999 45.0478 140.999H28.6735C28.494 140.999 28.3265 140.933 28.2009 140.807C28.0752 140.687 28.0034 140.519 28.0034 140.339V115.579H15.6669C15.4934 115.579 15.3258 115.513 15.2002 115.386C15.0746 115.266 15.0028 115.098 15.0028 114.918V99.0022C15.0088 98.6359 15.3019 98.3417 15.6669 98.3417H28.0034V88.477C28.0034 88.2969 28.0752 88.1288 28.2008 88.0087C28.3265 87.8826 28.494 87.8166 28.6735 87.8166H45.06C45.2335 87.8166 45.401 87.8826 45.5267 88.0087C45.6523 88.1288 45.7241 88.2969 45.7241 88.477V98.3477H58.318V98.3417C58.6829 98.3417 58.9821 98.6359 58.988 99.0022V114.918C58.988 115.098 58.9163 115.266 58.7906 115.386C58.665 115.513 58.4974 115.579 58.318 115.579L45.7179 115.572ZM44.3837 114.919V139.673L29.337 139.679V114.919C29.331 114.553 29.0378 114.259 28.6729 114.265H16.3363V99.663H28.6729C28.8464 99.663 29.0139 99.5909 29.1395 99.4708C29.2652 99.3447 29.337 99.1766 29.337 99.0025V89.1318H44.3837V99.0025C44.3837 99.1826 44.4555 99.3507 44.5811 99.4708C44.7068 99.5969 44.8743 99.663 45.0478 99.663H57.6416V114.265H45.0478C44.6828 114.259 44.3897 114.553 44.3837 114.919Z" fill="#663366"/>
<path d="M115.68 24.6292H116.43V24.6232H115.68H114.93V24.6292H115.68ZM116.021 22.2576H116.771V22.2516H116.021H115.271V22.2576H116.021ZM128.148 18.7573L128.679 18.2279L128.673 18.2219L128.142 18.7513L127.611 19.2807L127.617 19.2867L128.148 18.7573ZM16.8069 49.7728L15.5037 49.03L14.2254 51.2728H16.8069V49.7728ZM29.311 49.7728V51.2728H31.8925L30.6142 49.03L29.311 49.7728ZM23.059 38.8034L24.3622 38.0607L23.0591 35.7742L21.7559 38.0607L23.059 38.8034ZM112.025 106.266L110.528 106.363L110.706 109.106L112.916 107.472L112.025 106.266ZM116.452 102.994H117.952V100.02L115.56 101.788L116.452 102.994ZM116.452 103H114.952V106.372L117.456 104.114L116.452 103ZM117.307 101.613L115.863 101.209L115.863 101.209L117.307 101.613ZM117.271 99.9798L115.84 100.429L115.843 100.438L115.846 100.448L117.271 99.9798ZM114.848 97.9805L115.027 96.4911L114.949 96.4817L114.869 96.4806L114.848 97.9805ZM109.296 97.9024H107.796V99.3815L109.275 99.4023L109.296 97.9024ZM109.296 97.8964H110.796V96.3964H109.296V97.8964ZM108.674 97.4461L107.25 97.9165L107.251 97.9189L108.674 97.4461ZM106.951 92.2286L108.375 91.7583L108.343 91.6596L108.297 91.5664L106.951 92.2286ZM105.886 91.0338L106.701 89.7745L106.692 89.7687L106.683 89.7631L105.886 91.0338ZM104.295 90.5715V89.0715H104.287L104.279 89.0716L104.295 90.5715ZM102.667 91.0458L103.456 92.3221L103.462 92.3183L102.667 91.0458ZM101.584 92.2406L100.235 91.5849L100.195 91.6685L100.165 91.7565L101.584 92.2406ZM99.8075 97.4521L101.225 97.9433L101.227 97.9362L99.8075 97.4521ZM99.1554 97.8964L99.2168 96.3977L99.1754 96.396L99.1339 96.3966L99.1554 97.8964ZM93.6931 97.9745L93.6717 96.4746L92.1931 96.4957V97.9745H93.6931ZM93.6931 97.9805L93.8699 99.47L95.1931 99.3129V97.9805H93.6931ZM92.1794 98.6229L91.2345 97.4579L91.2267 97.4643L92.1794 98.6229ZM91.2641 99.9798L92.6892 100.448L92.6923 100.438L92.6954 100.429L91.2641 99.9798ZM91.2282 101.613L92.6745 101.215L92.6738 101.213L91.2282 101.613ZM92.0598 102.976L91.048 104.083L91.1013 104.132L91.159 104.175L92.0598 102.976ZM96.481 106.296L95.5803 107.496L95.5922 107.504L95.6042 107.513L96.481 106.296ZM96.7084 107.035L95.2945 106.534L95.2767 106.584L95.2625 106.635L96.7084 107.035ZM95.2725 112.234L93.8266 111.835L93.7725 112.031V112.234H95.2725ZM95.2725 112.24L96.7525 112.485L96.7725 112.363V112.24H95.2725ZM96.5169 115.128L97.4558 113.958L97.4068 113.919L97.3547 113.884L96.5169 115.128ZM96.5469 115.152L95.608 116.322L95.6683 116.37L95.7333 116.412L96.5469 115.152ZM99.6578 115.224L100.413 116.52L100.483 116.479L100.549 116.431L99.6578 115.224ZM103.864 112.12L102.981 110.907L102.973 110.913L103.864 112.12ZM104.671 112.12L105.576 110.924L105.565 110.915L105.554 110.907L104.671 112.12ZM108.823 115.26V116.76H113.293L109.728 114.064L108.823 115.26ZM108.817 115.26V113.76H103.109L108.08 116.566L108.817 115.26ZM110.391 115.638L110.344 114.139L110.335 114.139L110.325 114.14L110.391 115.638ZM112.012 115.122L112.836 116.376L112.845 116.37L112.854 116.364L112.012 115.122ZM113.059 113.855L111.682 113.26L111.681 113.264L113.059 113.855ZM113.257 112.264L114.736 112.018L114.722 111.934L114.699 111.852L113.257 112.264ZM111.749 106.987L110.305 107.393L110.307 107.399L111.749 106.987ZM112.024 106.26L113.521 106.163L113.355 103.601L111.205 105.004L112.024 106.26ZM117.283 104.015L118.175 105.221L118.181 105.216L118.187 105.212L117.283 104.015ZM113.149 107.071L112.258 105.864L111.421 106.483L111.707 107.483L113.149 107.071ZM114.537 111.928L115.987 111.543L115.983 111.529L115.98 111.516L114.537 111.928ZM114.561 112.018L113.112 112.403L113.408 113.518H114.561V112.018ZM114.567 112.018L116.047 111.774L115.84 110.518H114.567V112.018ZM114.28 114.378L112.906 113.777L112.904 113.781L114.28 114.378ZM112.748 116.209L111.917 114.96L111.912 114.964L112.748 116.209ZM110.427 116.959L110.373 115.46L110.371 115.46L110.427 116.959ZM108.13 116.389L108.877 115.089L108.84 115.067L108.803 115.048L108.13 116.389ZM108.028 116.323L108.967 115.153L108.95 115.139L108.932 115.126L108.028 116.323ZM104.253 113.471L105.157 112.274L104.263 111.598L103.361 112.265L104.253 113.471ZM100.436 116.293L101.27 117.54L101.299 117.52L101.328 117.499L100.436 116.293ZM100.382 116.329L101.151 117.617L101.184 117.597L101.216 117.576L100.382 116.329ZM95.8112 116.239L94.9373 117.458L94.9644 117.477L94.9923 117.496L95.8112 116.239ZM95.7694 116.209L96.6433 114.99L96.6248 114.976L96.606 114.964L95.7694 116.209ZM93.9625 112L92.5167 111.601L92.4961 111.675L92.4832 111.752L93.9625 112ZM95.3206 107.083L96.7665 107.482L97.0392 106.495L96.219 105.881L95.3206 107.083ZM91.2343 104.027L90.2563 105.164L90.2951 105.197L90.336 105.228L91.2343 104.027ZM91.1925 103.991L90.1926 105.109L90.2034 105.118L90.2144 105.128L91.1925 103.991ZM89.9301 101.967L88.4813 102.356L88.4841 102.366L89.9301 101.967ZM89.9839 99.5896L91.4097 100.056L91.4129 100.046L89.9839 99.5896ZM91.3241 97.6203L90.377 96.4571L90.3717 96.4615L91.3241 97.6203ZM93.5317 96.6777L93.509 95.1779L93.4315 95.1791L93.3546 95.1882L93.5317 96.6777ZM98.6889 96.5997L98.7116 98.0995L99.7675 98.0835L100.109 97.0841L98.6889 96.5997ZM100.328 91.7964L98.9348 91.241L98.9208 91.2762L98.9086 91.3119L100.328 91.7964ZM100.352 91.7364L98.9945 91.0985L98.9754 91.1392L98.9587 91.181L100.352 91.7364ZM101.95 89.9411L102.743 91.2143L102.746 91.2125L101.95 89.9411ZM106.598 89.9351L107.403 88.6695L107.399 88.6669L106.598 89.9351ZM108.148 91.6943L106.792 92.336L106.838 92.434L106.898 92.5243L108.148 91.6943ZM108.195 91.8023L106.772 92.2751L106.772 92.2752L108.195 91.8023ZM109.787 96.5936L108.363 97.0664L108.7 98.0783L109.766 98.0934L109.787 96.5936ZM114.866 96.6656L114.845 98.1655L114.856 98.1656H114.866V96.6656ZM114.992 96.6656L115.179 95.1773L115.086 95.1656H114.992V96.6656ZM117.2 97.6143L116.241 98.7677L116.247 98.7731L116.254 98.7785L117.2 97.6143ZM118.546 99.5835L119.975 99.1274L119.973 99.1206L118.546 99.5835ZM118.594 101.955L117.148 101.556L117.148 101.556L118.594 101.955ZM117.331 103.978L118.234 105.176L118.278 105.143L118.319 105.107L117.331 103.978ZM123.625 93.8077L124.469 92.5678L122.199 91.0222L122.126 93.7677L123.625 93.8077ZM131.169 101.823L129.88 102.589L129.88 102.589L131.169 101.823ZM134.454 117.758L132.966 117.564L132.966 117.565L134.454 117.758ZM127.209 132.317L128.258 133.389L128.259 133.388L127.209 132.317ZM110.612 139.642L110.53 138.145L110.529 138.145L110.612 139.642ZM93.3161 134.191L92.3899 135.37L92.3899 135.37L93.3161 134.191ZM85.0179 122.453L86.0086 121.326L81.8054 117.629L83.5968 122.933L85.0179 122.453ZM98.7364 128.277L98.8617 126.782L98.8566 126.781L98.7364 128.277ZM115.847 123.491L114.971 122.274L114.965 122.278L115.847 123.491ZM125.36 108.835L123.892 108.528L123.892 108.529L125.36 108.835ZM123.625 93.8134L122.126 93.7734L122.116 94.1269L122.266 94.4473L123.625 93.8134ZM124.056 108.566L125.183 109.555L125.443 109.259L125.524 108.873L124.056 108.566ZM121.346 92.3254L122.633 91.5559L122.628 91.5475L122.623 91.5392L121.346 92.3254ZM121.334 91.659L122.637 92.4012L122.64 92.3959L121.334 91.659ZM122.237 91.4068L122.959 90.0921L122.949 90.0864L122.237 91.4068ZM132.324 101.151L133.614 100.385L133.612 100.382L132.324 101.151ZM135.782 117.927L137.27 118.121L137.27 118.119L135.782 117.927ZM128.154 133.249L129.204 134.321L129.204 134.32L128.154 133.249ZM110.691 140.958L110.608 139.46L110.607 139.46L110.691 140.958ZM92.4847 135.224L91.5584 136.404L91.5591 136.404L92.4847 135.224ZM83.0679 120.418L84.5289 120.079L84.5184 120.033L84.505 119.989L83.0679 120.418ZM83.2593 119.752L84.2464 120.881L84.2529 120.876L84.2593 120.87L83.2593 119.752ZM84.1986 119.8L83.088 120.808L83.0917 120.812L84.1986 119.8ZM98.8504 126.975L98.9748 125.48L98.9704 125.479L98.8504 126.975ZM115.064 122.442L114.186 121.225L114.183 121.228L115.064 122.442ZM124.05 108.572L122.923 107.583L122.662 107.88L122.581 108.267L124.05 108.572ZM45.7179 115.572L45.7186 114.072L44.2179 114.072V115.572H45.7179ZM45.5204 140.807L44.484 139.723L44.4708 139.735L44.4579 139.748L45.5204 140.807ZM28.2009 140.807L29.2634 139.748L29.2505 139.735L29.2372 139.723L28.2009 140.807ZM28.0034 115.579H29.5034V114.079H28.0034V115.579ZM15.2002 115.386L16.2628 114.328L16.2498 114.315L16.2366 114.302L15.2002 115.386ZM15.0028 99.0022L13.503 98.9777L13.5028 98.9899V99.0022H15.0028ZM28.0034 98.3417V99.8417H29.5034V98.3417H28.0034ZM28.2008 88.0087L29.2373 89.0931L29.2505 89.0804L29.2634 89.0675L28.2008 88.0087ZM45.5267 88.0087L44.4641 89.0675L44.477 89.0804L44.4903 89.0931L45.5267 88.0087ZM45.7241 98.3477H44.2241V99.8477H45.7241V98.3477ZM58.318 98.3477V99.8477H59.818V98.3477H58.318ZM58.318 98.3417V96.8417H56.818V98.3417H58.318ZM58.988 99.0022H60.488V98.9899L60.4878 98.9776L58.988 99.0022ZM58.7906 115.386L57.7542 114.302L57.741 114.315L57.7281 114.328L58.7906 115.386ZM58.318 115.579L58.3172 117.079H58.318V115.579ZM44.3837 139.673L44.3843 141.173L45.8837 141.173V139.673H44.3837ZM44.3837 114.919L42.8839 114.895L42.8837 114.907V114.919H44.3837ZM45.0478 114.265L45.0231 115.765L45.0354 115.765H45.0478V114.265ZM57.6416 114.265V115.765H59.1416V114.265H57.6416ZM57.6416 99.663H59.1416V98.163H57.6416V99.663ZM44.5811 99.4708L45.6437 98.4121L45.6308 98.3991L45.6175 98.3865L44.5811 99.4708ZM44.3837 89.1318H45.8837V87.6318H44.3837V89.1318ZM29.337 89.1318V87.6318H27.837V89.1318H29.337ZM29.1395 99.4708L30.1759 100.555L30.1892 100.543L30.202 100.53L29.1395 99.4708ZM16.3363 99.663V98.163H14.8363V99.663H16.3363ZM16.3363 114.265H14.8363V115.765H16.3363V114.265ZM28.6729 114.265V115.765H28.6852L28.6976 115.765L28.6729 114.265ZM29.337 114.919H30.837V114.907L30.8368 114.895L29.337 114.919ZM29.337 139.679H27.837V141.18L29.3376 141.179L29.337 139.679ZM109.195 62.6109L107.723 62.3198L107.346 64.2265L109.286 64.1081L109.195 62.6109ZM117.523 58.8102L116.453 57.7588L116.452 57.7601L117.523 58.8102ZM120.879 50.5607L119.379 50.5565L119.379 50.5636L120.879 50.5607ZM109.35 38.2224L109.258 39.7196L109.258 39.7196L109.35 38.2224ZM100.173 33.9415L101.259 32.9075L101.257 32.9054L100.173 33.9415ZM100.173 15.2926L101.257 16.3287L101.258 16.3277L100.173 15.2926ZM102.841 13.1071L103.639 14.3774L102.474 11.6528L102.841 13.1071ZM91.1865 19.6815L92.2369 20.7523L92.2401 20.7492L91.1865 19.6815ZM91.1865 55.2423L92.2397 54.1742L92.2368 54.1714L91.1865 55.2423ZM109.195 62.6093L110.667 62.9003L111.022 61.1044L109.191 61.1093L109.195 62.6093ZM109.386 12.3206L109.268 13.8159L109.324 13.8204L109.381 13.8206L109.386 12.3206ZM127.209 19.6816L126.156 20.7499L126.159 20.7525L127.209 19.6816ZM127.209 55.2486L126.159 54.1777L126.156 54.1806L127.209 55.2486ZM116.105 61.679L115.293 60.4176L116.507 63.1241L116.105 61.679ZM118.486 59.7277L117.413 58.6795L117.411 58.682L118.486 59.7277ZM122.214 50.5596L120.714 50.5596L120.714 50.5622L122.214 50.5596ZM109.428 36.9064L109.521 35.4093L109.52 35.4092L109.428 36.9064ZM101.136 33.0399L102.223 32.0055L102.222 32.0048L101.136 33.0399ZM101.136 16.1863L102.222 17.2212L102.224 17.219L101.136 16.1863ZM109.375 12.3197L109.493 10.8244L109.385 10.8158L109.277 10.8229L109.375 12.3197ZM107.795 52.0015L106.749 50.9262L106.744 50.9308L107.795 52.0015ZM104.875 52.0015L103.821 53.0686L103.829 53.076L104.875 52.0015ZM104.875 49.1195L103.825 48.049L103.821 48.0524L104.875 49.1195ZM107.795 49.1195L106.74 50.1862L106.749 50.1948L107.795 49.1195ZM108.74 48.1889L109.792 47.12L109.79 47.1181L108.74 48.1889ZM108.74 52.9322L109.79 54.0029L109.792 54.0009L108.74 52.9322ZM103.936 52.9322L104.986 51.8614L104.983 51.8584L103.936 52.9322ZM103.936 48.1889L104.983 49.2626L104.986 49.2596L103.936 48.1889ZM115.076 26.0642L114.03 24.9889L114.025 24.9934L115.076 26.0642ZM112.186 26.0942L111.124 27.153L111.141 27.171L111.16 27.1884L112.186 26.0942ZM112.156 26.0642L113.219 25.0054L113.21 24.997L112.156 26.0642ZM112.156 23.1822L111.11 22.1077L111.102 22.1151L112.156 23.1822ZM115.076 23.1822L116.13 22.1152L116.122 22.1078L115.076 23.1822ZM116.021 22.2516L117.073 21.1827L117.071 21.1808L116.021 22.2516ZM116.021 26.9948L117.071 28.0657L117.073 28.0636L116.021 26.9948ZM111.259 27.0309L112.297 25.948L112.267 25.92L112.237 25.8937L111.259 27.0309ZM111.217 26.9948L110.169 28.0686L110.203 28.1014L110.239 28.132L111.217 26.9948ZM111.217 22.2516L112.264 23.3253L112.267 23.3223L111.217 22.2516ZM128.142 18.7513L127.092 19.822L127.092 19.8221L128.142 18.7513ZM128.142 56.175L127.092 55.1041L127.091 55.1048L128.142 56.175ZM90.2475 56.175L91.2979 55.1042L91.2978 55.1041L90.2475 56.175ZM90.2475 18.7513L89.1976 17.6799L89.1971 17.6804L90.2475 18.7513ZM30.8382 49.7746L29.5349 50.5171L29.9664 51.2746H30.8382V49.7746ZM23.8265 37.4664L22.5234 36.7234L22.0999 37.466L22.5231 38.2089L23.8265 37.4664ZM30.8442 25.1581V23.6581H29.9728L29.5412 24.4151L30.8442 25.1581ZM44.6166 25.1581L45.9235 24.4218L45.4933 23.6581H44.6166V25.1581ZM51.5506 37.4664L52.8575 38.2026L53.2723 37.4664L52.8575 36.7301L51.5506 37.4664ZM44.6166 49.7746V51.2746H45.4933L45.9235 50.5109L44.6166 49.7746ZM46.1303 49.7746L44.8235 49.0383L43.5633 51.2746H46.1303V49.7746ZM58.4788 49.7746V51.2746H61.0457L59.7856 49.0383L58.4788 49.7746ZM52.3046 38.8173L53.6115 38.0809L52.3047 35.7617L50.9978 38.0809L52.3046 38.8173ZM43.8688 23.8372V25.3372H46.4349L45.1758 23.1012L43.8688 23.8372ZM37.7663 12.9998L39.0733 12.2639L37.7739 9.95626L36.4629 12.2573L37.7663 12.9998ZM31.5921 23.8372L30.2888 23.0946L29.0112 25.3372H31.5921V23.8372ZM30.0605 23.8372V25.3372H30.9321L31.3637 24.58L30.0605 23.8372ZM37.1859 11.3368V9.83677H36.3144L35.8828 10.594L37.1859 11.3368ZM37.1919 11.3368V12.8368H38.0514L38.486 12.0953L37.1919 11.3368ZM37.4492 11.0846L36.7272 9.76976L36.7188 9.77445L37.4492 11.0846ZM38.3526 11.3428L39.6592 10.6061L39.6591 10.6059L38.3526 11.3428ZM45.4004 23.8432L44.0937 24.5799L44.5241 25.3432H45.4004V23.8432ZM59.6216 23.8432V25.3432H61.1216V23.8432H59.6216ZM59.6216 23.8372V22.3372H58.1216V23.8372H59.6216ZM60.2856 24.4976H61.7856V24.4854L61.7854 24.4732L60.2856 24.4976ZM60.172 24.8639L58.9225 24.0339L58.892 24.0798L58.8649 24.1279L60.172 24.8639ZM53.0764 37.4663L51.7693 36.7304L51.355 37.4663L51.7693 38.2022L53.0764 37.4663ZM60.172 50.0688H61.672V49.6755L61.479 49.3329L60.172 50.0688ZM60.172 50.0748H58.672V50.5276L58.9225 50.9048L60.172 50.0748ZM60.2856 50.441L61.7854 50.4655L61.7856 50.4533V50.441H60.2856ZM59.6216 51.0955L59.6463 49.5957L59.6339 49.5955H59.6216V51.0955ZM45.3944 51.0955V49.5955H44.5181L44.0878 50.3588L45.3944 51.0955ZM38.3466 63.5959L39.6531 64.3328L39.6532 64.3325L38.3466 63.5959ZM37.4432 63.848L38.1841 62.5438L38.1505 62.5247L38.1159 62.5073L37.4432 63.848ZM37.186 63.5959L38.4983 62.8694L38.4938 62.8612L38.4891 62.853L37.186 63.5959ZM30.0605 51.0955L31.3637 50.3526L30.9321 49.5955H30.0605V51.0955ZM15.3369 51.0114L14.602 52.3191L14.6175 52.3277L14.6331 52.336L15.3369 51.0114ZM15.0856 50.1168L16.3861 50.8644L16.3887 50.8598L15.0856 50.1168ZM22.2949 37.4722L23.598 38.2152L24.0213 37.4726L23.5983 36.7298L22.2949 37.4722ZM15.0856 24.8157L13.7757 25.5466L13.7823 25.5581L15.0856 24.8157ZM15.0318 24.3173L16.4603 24.7749L16.4678 24.7516L16.4745 24.7281L15.0318 24.3173ZM15.3429 23.9211L14.6391 22.5964L14.6298 22.6014L15.3429 23.9211ZM58.4787 25.1521L59.9781 25.1915L60.0186 23.6513L58.4779 23.6521L58.4787 25.1521ZM46.1302 25.1581L46.1294 23.6581L43.5639 23.6593L44.8233 25.8944L46.1302 25.1581ZM52.3043 36.1154L50.9975 36.8518L52.3043 39.171L53.6111 36.8518L52.3043 36.1154ZM58.4785 25.1581L59.7853 25.8944L59.9682 25.5699L59.978 25.1975L58.4785 25.1581ZM29.3125 25.1521L30.812 25.1904L30.8513 23.6513L29.3118 23.6521L29.3125 25.1521ZM16.8084 25.1581L16.8077 23.6581L14.2276 23.6593L15.5052 25.9008L16.8084 25.1581ZM23.0603 36.1274L21.7572 36.8702L23.0603 39.1567L24.3635 36.8702L23.0603 36.1274ZM29.3123 25.1581L30.6155 25.9008L30.8022 25.5733L30.8118 25.1964L29.3123 25.1581ZM31.5919 51.0834V49.5834H29.011L30.2886 51.8259L31.5919 51.0834ZM37.7661 61.9207L36.4628 62.6632L37.7737 64.9643L39.0731 62.6567L37.7661 61.9207ZM43.8686 51.0834L45.1756 51.8193L46.4347 49.5834H43.8686V51.0834ZM16.8069 49.7728V51.2728H29.311V49.7728V48.2728H16.8069V49.7728ZM29.311 49.7728L30.6142 49.03L24.3622 38.0607L23.059 38.8034L21.7558 39.5462L28.0078 50.5155L29.311 49.7728ZM23.059 38.8034L21.7559 38.0607L15.5037 49.03L16.8069 49.7728L18.1101 50.5155L24.3622 39.5462L23.059 38.8034ZM112.025 106.266L112.916 107.472L117.343 104.2L116.452 102.994L115.56 101.788L111.133 105.06L112.025 106.266ZM116.452 102.994H114.952V103H116.452H117.952V102.994H116.452ZM116.452 103L117.456 104.114C118.085 103.547 118.528 102.818 118.752 102.017L117.307 101.613L115.863 101.209C115.788 101.476 115.644 101.709 115.447 101.886L116.452 103ZM117.307 101.613L118.752 102.017C118.981 101.198 118.963 100.324 118.697 99.5118L117.271 99.9798L115.846 100.448C115.927 100.693 115.933 100.96 115.863 101.209L117.307 101.613ZM117.271 99.9798L118.703 99.5311C118.448 98.7172 117.963 98.0027 117.309 97.4643L116.356 98.6229L115.403 99.7815C115.61 99.9516 115.76 100.174 115.84 100.429L117.271 99.9798ZM116.356 98.6229L117.309 97.4643C116.654 96.9257 115.858 96.5908 115.027 96.4911L114.848 97.9805L114.67 99.4698C114.94 99.5022 115.197 99.6116 115.403 99.7815L116.356 98.6229ZM114.848 97.9805L114.869 96.4806L109.317 96.4026L109.296 97.9024L109.275 99.4023L114.827 99.4803L114.848 97.9805ZM109.296 97.9024H110.796V97.8964H109.296H107.796V97.9024H109.296ZM109.296 97.8964V96.3964C109.662 96.3964 109.984 96.6304 110.098 96.9733L108.674 97.4461L107.251 97.9189C107.544 98.8022 108.369 99.3964 109.296 99.3964V97.8964ZM108.674 97.4461L110.098 96.9757L108.375 91.7583L106.951 92.2286L105.527 92.699L107.25 97.9165L108.674 97.4461ZM106.951 92.2286L108.297 91.5664C107.936 90.8335 107.38 90.2141 106.701 89.7745L105.886 91.0338L105.071 92.2932C105.301 92.4419 105.487 92.6511 105.605 92.8909L106.951 92.2286ZM105.886 91.0338L106.683 89.7631C105.972 89.3171 105.146 89.0715 104.295 89.0715V90.5715V92.0715C104.568 92.0715 104.843 92.1502 105.089 92.3046L105.886 91.0338ZM104.295 90.5715L104.279 89.0716C103.432 89.0805 102.6 89.3198 101.873 89.7733L102.667 91.0458L103.462 92.3183C103.716 92.1595 104.009 92.0746 104.31 92.0714L104.295 90.5715ZM102.667 91.0458L101.879 89.7696C101.174 90.2053 100.601 90.8334 100.235 91.5849L101.584 92.2406L102.934 92.8964C103.047 92.6632 103.228 92.4628 103.455 92.3221L102.667 91.0458ZM101.584 92.2406L100.165 91.7565L98.3878 96.968L99.8075 97.4521L101.227 97.9362L103.004 92.7247L101.584 92.2406ZM99.8075 97.4521L98.3902 96.9609C98.5107 96.6131 98.8474 96.3825 99.2168 96.3977L99.1554 97.8964L99.0939 99.3951C100.05 99.4343 100.913 98.8435 101.225 97.9433L99.8075 97.4521ZM99.1554 97.8964L99.1339 96.3966L93.6717 96.4746L93.6931 97.9745L93.7145 99.4743L99.1768 99.3963L99.1554 97.8964ZM93.6931 97.9745H92.1931V97.9805H93.6931H95.1931V97.9745H93.6931ZM93.6931 97.9805L93.5163 96.4909C92.674 96.5909 91.8881 96.9278 91.2345 97.4579L92.1794 98.6229L93.1243 99.7879C93.3443 99.6095 93.5994 99.5021 93.8699 99.47L93.6931 97.9805ZM92.1794 98.6229L91.2267 97.4643C90.572 98.0027 90.0879 98.7172 89.8328 99.5311L91.2641 99.9798L92.6954 100.429C92.7753 100.174 92.9253 99.9516 93.1322 99.7815L92.1794 98.6229ZM91.2641 99.9798L89.8389 99.5118C89.572 100.325 89.5551 101.191 89.7825 102.013L91.2282 101.613L92.6738 101.213C92.6021 100.954 92.6092 100.691 92.6892 100.448L91.2641 99.9798ZM91.2282 101.613L89.7818 102.01C89.9991 102.801 90.4346 103.523 91.048 104.083L92.0598 102.976L93.0716 101.868C92.8833 101.696 92.7444 101.47 92.6745 101.215L91.2282 101.613ZM92.0598 102.976L91.159 104.175L95.5803 107.496L96.481 106.296L97.3818 105.097L92.9605 101.776L92.0598 102.976ZM96.481 106.296L95.6042 107.513C95.2831 107.282 95.1732 106.876 95.2945 106.534L96.7084 107.035L98.1223 107.536C98.435 106.653 98.1456 105.647 97.3579 105.079L96.481 106.296ZM96.7084 107.035L95.2625 106.635L93.8266 111.835L95.2725 112.234L96.7184 112.633L98.1543 107.434L96.7084 107.035ZM95.2725 112.234H93.7725V112.24H95.2725H96.7725V112.234H95.2725ZM95.2725 112.24L93.7926 111.996C93.5117 113.696 94.2455 115.407 95.6792 116.372L96.5169 115.128L97.3547 113.884C96.8978 113.576 96.6624 113.03 96.7525 112.485L95.2725 112.24ZM96.5169 115.128L95.5781 116.298L95.608 116.322L96.5469 115.152L97.4857 113.982L97.4558 113.958L96.5169 115.128ZM96.5469 115.152L95.7333 116.412C97.1456 117.324 98.9542 117.37 100.413 116.52L99.6578 115.224L98.903 113.928C98.4231 114.207 97.8267 114.193 97.3604 113.892L96.5469 115.152ZM99.6578 115.224L100.549 116.431L104.754 113.327L103.864 112.12L102.973 110.913L98.7671 114.017L99.6578 115.224ZM103.864 112.12L104.746 113.333C104.459 113.542 104.076 113.542 103.789 113.333L104.671 112.12L105.554 110.907C104.789 110.35 103.747 110.35 102.981 110.907L103.864 112.12ZM104.671 112.12L103.767 113.316L107.919 116.457L108.823 115.26L109.728 114.064L105.576 110.924L104.671 112.12ZM108.823 115.26V113.76H108.817V115.26V116.76H108.823V115.26ZM108.817 115.26L108.08 116.566C108.801 116.973 109.623 117.173 110.456 117.137L110.391 115.638L110.325 114.14C110.058 114.152 109.791 114.088 109.555 113.954L108.817 115.26ZM110.391 115.638L110.437 117.138C111.302 117.111 112.126 116.842 112.836 116.376L112.012 115.122L111.189 113.868C110.929 114.039 110.641 114.13 110.344 114.139L110.391 115.638ZM112.012 115.122L112.854 116.364C113.549 115.892 114.102 115.229 114.438 114.446L113.059 113.855L111.681 113.264C111.573 113.514 111.396 113.727 111.171 113.88L112.012 115.122ZM113.059 113.855L114.436 114.45C114.763 113.694 114.874 112.85 114.736 112.018L113.257 112.264L111.777 112.51C111.818 112.759 111.786 113.02 111.682 113.26L113.059 113.855ZM113.257 112.264L114.699 111.852L113.191 106.575L111.749 106.987L110.307 107.399L111.814 112.676L113.257 112.264ZM111.749 106.987L113.193 106.58C113.296 106.947 113.143 107.321 112.844 107.516L112.024 106.26L111.205 105.004C110.426 105.512 110.046 106.474 110.305 107.393L111.749 106.987ZM112.024 106.26L110.527 106.357L110.528 106.363L112.025 106.266L113.521 106.169L113.521 106.163L112.024 106.26ZM117.283 104.015L116.392 102.808L112.258 105.864L113.149 107.071L114.041 108.277L118.175 105.221L117.283 104.015ZM113.149 107.071L111.707 107.483L113.095 112.34L114.537 111.928L115.98 111.516L114.592 106.659L113.149 107.071ZM114.537 111.928L113.088 112.313L113.112 112.403L114.561 112.018L116.011 111.633L115.987 111.543L114.537 111.928ZM114.561 112.018V113.518H114.567V112.018V110.518H114.561V112.018ZM114.567 112.018L113.087 112.262C113.173 112.784 113.109 113.313 112.906 113.777L114.28 114.378L115.654 114.979C116.098 113.966 116.224 112.849 116.047 111.774L114.567 112.018ZM114.28 114.378L112.904 113.781C112.696 114.26 112.353 114.67 111.917 114.96L112.748 116.209L113.58 117.457C114.496 116.847 115.218 115.985 115.656 114.975L114.28 114.378ZM112.748 116.209L111.912 114.964C111.458 115.269 110.928 115.44 110.373 115.46L110.427 116.959L110.481 118.458C111.589 118.418 112.662 118.074 113.585 117.454L112.748 116.209ZM110.427 116.959L110.371 115.46C109.854 115.48 109.336 115.352 108.877 115.089L108.13 116.389L107.382 117.69C108.324 118.231 109.398 118.499 110.483 118.458L110.427 116.959ZM108.13 116.389L108.803 115.048C108.843 115.069 108.874 115.088 108.898 115.103C108.922 115.119 108.945 115.136 108.967 115.153L108.028 116.323L107.089 117.493C107.187 117.571 107.312 117.657 107.457 117.73L108.13 116.389ZM108.028 116.323L108.932 115.126L105.157 112.274L104.253 113.471L103.349 114.668L107.124 117.52L108.028 116.323ZM104.253 113.471L103.361 112.265L99.5443 115.087L100.436 116.293L101.328 117.499L105.145 114.677L104.253 113.471ZM100.436 116.293L99.6019 115.046L99.548 115.082L100.382 116.329L101.216 117.576L101.27 117.54L100.436 116.293ZM100.382 116.329L99.6132 115.041C98.6876 115.594 97.5328 115.57 96.6302 114.982L95.8112 116.239L94.9923 117.496C96.8539 118.709 99.2408 118.757 101.151 117.617L100.382 116.329ZM95.8112 116.239L96.6851 115.02L96.6433 114.99L95.7694 116.209L94.8955 117.428L94.9373 117.458L95.8112 116.239ZM95.7694 116.209L96.606 114.964C95.7206 114.369 95.2638 113.309 95.4418 112.248L93.9625 112L92.4832 111.752C92.1109 113.969 93.0661 116.2 94.9328 117.454L95.7694 116.209ZM93.9625 112L95.4084 112.399L96.7665 107.482L95.3206 107.083L93.8748 106.683L92.5167 111.601L93.9625 112ZM95.3206 107.083L96.219 105.881L92.1327 102.825L91.2343 104.027L90.336 105.228L94.4223 108.284L95.3206 107.083ZM91.2343 104.027L92.2124 102.889L92.1705 102.853L91.1925 103.991L90.2144 105.128L90.2563 105.164L91.2343 104.027ZM91.1925 103.991L92.1923 102.872C91.7968 102.519 91.5128 102.064 91.376 101.568L89.9301 101.967L88.4841 102.366C88.7782 103.432 89.3796 104.382 90.1926 105.109L91.1925 103.991ZM89.9301 101.967L91.3789 101.579C91.2414 101.066 91.253 100.535 91.4097 100.056L89.9839 99.5896L88.5582 99.1234C88.2123 100.181 88.2 101.307 88.4813 102.356L89.9301 101.967ZM89.9839 99.5896L91.4129 100.046C91.5692 99.5561 91.8685 99.1144 92.2765 98.7792L91.3241 97.6203L90.3717 96.4615C89.5232 97.1588 88.8893 98.0861 88.555 99.1335L89.9839 99.5896ZM91.3241 97.6203L92.2712 98.7835C92.6907 98.442 93.191 98.2288 93.7089 98.1672L93.5317 96.6777L93.3546 95.1882C92.2571 95.3187 91.2258 95.766 90.377 96.4571L91.3241 97.6203ZM93.5317 96.6777L93.5544 98.1775L98.7116 98.0995L98.6889 96.5997L98.6662 95.0998L93.509 95.1779L93.5317 96.6777ZM98.6889 96.5997L100.109 97.0841L101.748 92.2809L100.328 91.7964L98.9086 91.3119L97.2693 96.1152L98.6889 96.5997ZM100.328 91.7964L101.722 92.3518L101.746 92.2918L100.352 91.7364L98.9587 91.181L98.9348 91.241L100.328 91.7964ZM100.352 91.7364L101.71 92.3743C101.933 91.8992 102.293 91.4947 102.743 91.2143L101.95 89.9411L101.156 88.6679C100.218 89.2522 99.4653 90.0966 98.9945 91.0985L100.352 91.7364ZM101.95 89.9411L102.746 91.2125C103.207 90.9233 103.745 90.7687 104.289 90.7687V89.2687V87.7687C103.181 87.7687 102.092 88.0824 101.154 88.6698L101.95 89.9411ZM104.289 89.2687V90.7687C104.827 90.7687 105.345 90.9177 105.797 91.2034L106.598 89.9351L107.399 88.6669C106.463 88.0759 105.39 87.7687 104.289 87.7687V89.2687ZM106.598 89.9351L105.793 91.2007C106.222 91.4737 106.571 91.8689 106.792 92.336L108.148 91.6943L109.503 91.0525C109.043 90.0787 108.314 89.249 107.403 88.6695L106.598 89.9351ZM108.148 91.6943L106.898 92.5243C106.797 92.3713 106.755 92.2248 106.772 92.2751L108.195 91.8023L109.619 91.3295C109.612 91.3078 109.547 91.0892 109.397 90.8642L108.148 91.6943ZM108.195 91.8023L106.772 92.2752L108.363 97.0664L109.787 96.5936L111.21 96.1207L109.619 91.3295L108.195 91.8023ZM109.787 96.5936L109.766 98.0934L114.845 98.1655L114.866 96.6656L114.888 95.1658L109.808 95.0937L109.787 96.5936ZM114.866 96.6656V98.1656H114.992V96.6656V95.1656H114.866V96.6656ZM114.992 96.6656L114.805 98.154C115.345 98.2216 115.84 98.4346 116.241 98.7677L117.2 97.6143L118.159 96.4609C117.303 95.7492 116.267 95.3138 115.179 95.1773L114.992 96.6656ZM117.2 97.6143L116.254 98.7785C116.654 99.1039 116.956 99.5436 117.119 100.046L118.546 99.5835L119.973 99.1206C119.633 98.0745 119.001 97.1453 118.145 96.45L117.2 97.6143ZM118.546 99.5835L117.117 100.04C117.274 100.532 117.285 101.058 117.148 101.556L118.594 101.955L120.04 102.354C120.333 101.292 120.308 100.172 119.975 99.1274L118.546 99.5835ZM118.594 101.955L117.148 101.556C117.008 102.062 116.726 102.514 116.343 102.85L117.331 103.978L118.319 105.107C119.157 104.374 119.748 103.409 120.04 102.354L118.594 101.955ZM117.331 103.978L116.428 102.781L116.38 102.817L117.283 104.015L118.187 105.212L118.234 105.176L117.331 103.978ZM123.625 93.8077L122.781 95.0477C125.671 97.0148 128.096 99.5854 129.88 102.589L131.169 101.823L132.459 101.057C130.45 97.6726 127.718 94.7796 124.469 92.5678L123.625 93.8077ZM131.169 101.823L129.88 102.589C132.556 107.091 133.641 112.367 132.966 117.564L134.454 117.758L135.942 117.951C136.703 112.089 135.479 106.137 132.459 101.057L131.169 101.823ZM134.454 117.758L132.966 117.565C132.292 122.767 129.891 127.585 126.158 131.247L127.209 132.317L128.259 133.388C132.472 129.256 135.18 123.819 135.942 117.95L134.454 117.758ZM127.209 132.317L126.159 131.246C121.949 135.369 116.399 137.822 110.53 138.145L110.612 139.642L110.695 141.14C117.294 140.778 123.53 138.019 128.258 133.389L127.209 132.317ZM110.612 139.642L110.529 138.145C104.66 138.472 98.8744 136.647 94.2423 133.011L93.3161 134.191L92.3899 135.37C97.5937 139.455 104.097 141.509 110.696 141.14L110.612 139.642ZM93.3161 134.191L94.2423 133.011C90.625 130.171 87.9133 126.337 86.439 121.973L85.0179 122.453L83.5968 122.933C85.2577 127.85 88.3133 132.17 92.3899 135.37L93.3161 134.191ZM85.0179 122.453L84.0272 123.579C88.0976 127.16 93.2126 129.337 98.6162 129.772L98.7364 128.277L98.8566 126.781C94.1014 126.399 89.5962 124.482 86.0086 121.326L85.0179 122.453ZM98.7364 128.277L98.6112 129.771C105.061 130.312 111.491 128.512 116.729 124.705L115.847 123.491L114.965 122.278C110.308 125.663 104.593 127.262 98.8617 126.782L98.7364 128.277ZM115.847 123.491L116.724 124.709C121.917 120.971 125.52 115.416 126.828 109.142L125.36 108.835L123.892 108.529C122.735 114.072 119.554 118.975 114.971 122.274L115.847 123.491ZM125.36 108.835L126.828 109.143C127.954 103.764 127.305 98.1563 124.984 93.1795L123.625 93.8134L122.266 94.4473C124.312 98.8366 124.884 103.784 123.892 108.528L125.36 108.835ZM123.625 93.8134L125.124 93.8535L125.125 93.8478L123.625 93.8077L122.126 93.7677L122.126 93.7734L123.625 93.8134ZM124.056 108.566L125.524 108.873C126.768 102.941 125.741 96.7559 122.633 91.5559L121.346 92.3254L120.058 93.095C122.777 97.6444 123.678 103.059 122.588 108.258L124.056 108.566ZM121.346 92.3254L122.623 91.5392C122.782 91.7966 122.792 92.1303 122.637 92.4012L121.334 91.659L120.03 90.9167C119.637 91.6079 119.659 92.446 120.068 93.1117L121.346 92.3254ZM121.334 91.659L122.64 92.3959C122.402 92.8185 121.892 92.9248 121.526 92.7272L122.237 91.4068L122.949 90.0864C121.936 89.5406 120.625 89.863 120.027 90.922L121.334 91.659ZM122.237 91.4068L121.515 92.7215C125.444 94.8798 128.731 98.059 131.036 101.92L132.324 101.151L133.612 100.382C131.035 96.0663 127.359 92.5089 122.959 90.0921L122.237 91.4068ZM132.324 101.151L131.035 101.918C133.86 106.671 135.005 112.242 134.295 117.734L135.782 117.927L137.27 118.119C138.067 111.964 136.783 105.718 133.614 100.385L132.324 101.151ZM135.782 117.927L134.295 117.732C133.578 123.225 131.045 128.313 127.104 132.178L128.154 133.249L129.204 134.32C133.627 129.983 136.466 124.276 137.27 118.121L135.782 117.927ZM128.154 133.249L127.105 132.177C122.661 136.529 116.8 139.12 110.608 139.46L110.691 140.958L110.773 142.456C117.695 142.075 124.243 139.179 129.204 134.321L128.154 133.249ZM110.691 140.958L110.607 139.46C104.409 139.806 98.3003 137.879 93.4104 134.044L92.4847 135.224L91.5591 136.404C97.0203 140.687 103.846 142.842 110.774 142.456L110.691 140.958ZM92.4847 135.224L93.411 134.044C88.9536 130.545 85.8157 125.618 84.5289 120.079L83.0679 120.418L81.6068 120.758C83.0481 126.962 86.5631 132.482 91.5584 136.404L92.4847 135.224ZM83.0679 120.418L84.505 119.989C84.6019 120.313 84.5023 120.658 84.2464 120.881L83.2593 119.752L82.2722 118.622C81.6453 119.17 81.3902 120.043 81.6307 120.848L83.0679 120.418ZM83.2593 119.752L84.2593 120.87C83.9181 121.175 83.3946 121.146 83.088 120.808L84.1986 119.8L85.3092 118.791C84.5119 117.913 83.151 117.836 82.2593 118.634L83.2593 119.752ZM84.1986 119.8L83.0917 120.812C87.1524 125.252 92.7396 127.989 98.7305 128.47L98.8504 126.975L98.9704 125.479C93.7374 125.06 88.855 122.669 85.3055 118.787L84.1986 119.8ZM98.8504 126.975L98.7261 128.469C104.858 128.98 110.964 127.271 115.945 123.656L115.064 122.442L114.183 121.228C109.782 124.421 104.39 125.93 98.9748 125.48L98.8504 126.975ZM115.064 122.442L115.942 123.658C120.865 120.106 124.282 114.833 125.519 108.877L124.05 108.572L122.581 108.267C121.497 113.491 118.5 118.113 114.186 121.225L115.064 122.442ZM124.05 108.572L125.177 109.562L125.183 109.555L124.056 108.566L122.929 107.576L122.923 107.583L124.05 108.572ZM45.7179 115.572H44.2179V140.339H45.7179H47.2179V115.572H45.7179ZM45.7179 140.339H44.2179C44.2179 140.118 44.3076 139.891 44.484 139.723L45.5204 140.807L46.5568 141.891C46.9845 141.483 47.2179 140.92 47.2179 140.339H45.7179ZM45.5204 140.807L44.4579 139.748C44.6292 139.576 44.851 139.499 45.0478 139.499V140.999V142.499C45.6035 142.499 46.1604 142.29 46.583 141.866L45.5204 140.807ZM45.0478 140.999V139.499H28.6735V140.999V142.499H45.0478V140.999ZM28.6735 140.999V139.499C28.8703 139.499 29.0921 139.576 29.2634 139.748L28.2009 140.807L27.1383 141.866C27.5609 142.29 28.1177 142.499 28.6735 142.499V140.999ZM28.2009 140.807L29.2372 139.723C29.4137 139.891 29.5034 140.118 29.5034 140.339H28.0034H26.5034C26.5034 140.92 26.7367 141.483 27.1645 141.891L28.2009 140.807ZM28.0034 140.339H29.5034V115.579H28.0034H26.5034V140.339H28.0034ZM28.0034 115.579V114.079H15.6669V115.579V117.079H28.0034V115.579ZM15.6669 115.579V114.079C15.8769 114.079 16.0964 114.161 16.2628 114.328L15.2002 115.386L14.1377 116.445C14.5553 116.864 15.1099 117.079 15.6669 117.079V115.579ZM15.2002 115.386L16.2366 114.302C16.413 114.471 16.5028 114.697 16.5028 114.918H15.0028H13.5028C13.5028 115.5 13.7361 116.062 14.1638 116.471L15.2002 115.386ZM15.0028 114.918H16.5028V99.0022H15.0028H13.5028V114.918H15.0028ZM15.0028 99.0022L16.5026 99.0267C16.4955 99.46 16.1399 99.8417 15.6669 99.8417V98.3417V96.8417C14.464 96.8417 13.522 97.8119 13.503 98.9777L15.0028 99.0022ZM15.6669 98.3417V99.8417H28.0034V98.3417V96.8417H15.6669V98.3417ZM28.0034 98.3417H29.5034V88.477H28.0034H26.5034V98.3417H28.0034ZM28.0034 88.477H29.5034C29.5034 88.6982 29.4136 88.9245 29.2373 89.0931L28.2008 88.0087L27.1644 86.9243C26.7367 87.3331 26.5034 87.8956 26.5034 88.477H28.0034ZM28.2008 88.0087L29.2634 89.0675C29.0921 89.2394 28.8703 89.3166 28.6735 89.3166V87.8166V86.3166C28.1177 86.3166 27.5609 86.5259 27.1383 86.9499L28.2008 88.0087ZM28.6735 87.8166V89.3166H45.06V87.8166V86.3166H28.6735V87.8166ZM45.06 87.8166V89.3166C44.85 89.3166 44.6305 89.2345 44.4641 89.0675L45.5267 88.0087L46.5892 86.9499C46.1716 86.5308 45.617 86.3166 45.06 86.3166V87.8166ZM45.5267 88.0087L44.4903 89.0931C44.3139 88.9245 44.2241 88.6982 44.2241 88.477H45.7241H47.2241C47.2241 87.8956 46.9908 87.3331 46.5631 86.9243L45.5267 88.0087ZM45.7241 88.477H44.2241V98.3477H45.7241H47.2241V88.477H45.7241ZM45.7241 98.3477V99.8477H58.318V98.3477V96.8477H45.7241V98.3477ZM58.318 98.3477H59.818V98.3417H58.318H56.818V98.3477H58.318ZM58.318 98.3417V99.8417C57.8624 99.8417 57.4956 99.4775 57.4882 99.0267L58.988 99.0022L60.4878 98.9776C60.4685 97.7943 59.5035 96.8417 58.318 96.8417V98.3417ZM58.988 99.0022H57.488V114.918H58.988H60.488V99.0022H58.988ZM58.988 114.918H57.488C57.488 114.697 57.5778 114.471 57.7542 114.302L58.7906 115.386L59.827 116.471C60.2547 116.062 60.488 115.5 60.488 114.918H58.988ZM58.7906 115.386L57.7281 114.328C57.8993 114.156 58.1211 114.079 58.318 114.079V115.579V117.079C58.8737 117.079 59.4306 116.869 59.8531 116.445L58.7906 115.386ZM58.318 115.579L58.3187 114.079L45.7186 114.072L45.7179 115.572L45.7171 117.072L58.3172 117.079L58.318 115.579ZM44.3837 139.673H45.8837V114.919H44.3837H42.8837V139.673H44.3837ZM44.3837 114.919L45.8835 114.944C45.8765 115.372 45.52 115.773 45.0231 115.765L45.0478 114.265L45.0725 112.765C43.8457 112.745 42.9029 113.734 42.8839 114.895L44.3837 114.919ZM45.0478 114.265V115.765H57.6416V114.265V112.765H45.0478V114.265ZM57.6416 114.265H59.1416V99.663H57.6416H56.1416V114.265H57.6416ZM57.6416 99.663V98.163H45.0478V99.663V101.163H57.6416V99.663ZM45.0478 99.663V98.163C45.2578 98.163 45.4773 98.2451 45.6437 98.4121L44.5811 99.4708L43.5186 100.53C43.9362 100.949 44.4908 101.163 45.0478 101.163V99.663ZM44.5811 99.4708L45.6175 98.3865C45.7939 98.555 45.8837 98.7813 45.8837 99.0025H44.3837H42.8837C42.8837 99.5839 43.117 100.146 43.5447 100.555L44.5811 99.4708ZM44.3837 99.0025H45.8837V89.1318H44.3837H42.8837V99.0025H44.3837ZM44.3837 89.1318V87.6318H29.337V89.1318V90.6318H44.3837V89.1318ZM29.337 89.1318H27.837V99.0025H29.337H30.837V89.1318H29.337ZM29.337 99.0025H27.837C27.837 98.7618 27.9354 98.5541 28.077 98.412L29.1395 99.4708L30.202 100.53C30.5949 100.135 30.837 99.5915 30.837 99.0025H29.337ZM29.1395 99.4708L28.1031 98.3865C28.2355 98.2599 28.4321 98.163 28.6729 98.163V99.663V101.163C29.2607 101.163 29.7923 100.922 30.1759 100.555L29.1395 99.4708ZM28.6729 99.663V98.163H16.3363V99.663V101.163H28.6729V99.663ZM16.3363 99.663H14.8363V114.265H16.3363H17.8363V99.663H16.3363ZM16.3363 114.265V115.765H28.6729V114.265V112.765H16.3363V114.265ZM28.6729 114.265L28.6976 115.765C28.2008 115.773 27.8442 115.372 27.8372 114.944L29.337 114.919L30.8368 114.895C30.8178 113.734 29.8749 112.745 28.6482 112.765L28.6729 114.265ZM29.337 114.919H27.837V139.679H29.337H30.837V114.919H29.337ZM29.337 139.679L29.3376 141.179L44.3843 141.173L44.3837 139.673L44.3831 138.173L29.3363 138.179L29.337 139.679ZM109.195 62.6109L109.286 64.1081C112.803 63.8933 116.12 62.3835 118.594 59.8604L117.523 58.8102L116.452 57.7601C114.498 59.7522 111.88 60.9441 109.103 61.1136L109.195 62.6109ZM117.523 58.8102L118.593 59.8617C121.031 57.3809 122.386 54.0353 122.379 50.5578L120.879 50.5607L119.379 50.5636C119.384 53.2582 118.334 55.8446 116.453 57.7588L117.523 58.8102ZM120.879 50.5607L122.379 50.5648C122.399 43.2422 116.731 37.1769 109.443 36.7253L109.35 38.2224L109.258 39.7196C114.952 40.0725 119.395 44.8143 119.379 50.5565L120.879 50.5607ZM109.35 38.2224L109.443 36.7253C106.334 36.5326 103.41 35.1678 101.259 32.9075L100.173 33.9415L99.086 34.9755C101.757 37.7828 105.391 39.4799 109.258 39.7196L109.35 38.2224ZM100.173 33.9415L101.257 32.9054C96.8334 28.2737 96.8334 20.9607 101.257 16.3287L100.173 15.2926L99.0879 14.2566C93.5566 20.0481 93.5565 29.1863 99.088 34.9775L100.173 33.9415ZM100.173 15.2926L101.258 16.3277C101.971 15.5805 102.772 14.9218 103.639 14.3774L102.841 13.1071L102.043 11.8369C100.96 12.5175 99.9661 13.3356 99.0871 14.2576L100.173 15.2926ZM102.841 13.1071L102.474 11.6528C97.8158 12.8294 93.5528 15.239 90.1329 18.6138L91.1865 19.6815L92.2401 20.7492C95.2817 17.7477 99.0716 15.6064 103.208 14.5615L102.841 13.1071ZM91.1865 19.6815L90.1361 18.6106C85.0799 23.5703 82.226 30.3685 82.226 37.465H83.726H85.226C85.226 31.1732 87.7565 25.1471 92.2369 20.7523L91.1865 19.6815ZM83.726 37.465H82.226C82.226 44.5561 85.08 51.3543 90.1362 56.3132L91.1865 55.2423L92.2368 54.1714C87.7564 49.7772 85.226 43.751 85.226 37.465H83.726ZM91.1865 55.2423L90.1333 56.3104C95.2183 61.3245 102.065 64.1284 109.199 64.1093L109.195 62.6093L109.191 61.1093C102.851 61.1263 96.763 58.6345 92.2397 54.1742L91.1865 55.2423ZM109.195 62.6093L107.724 62.3183L107.723 62.3198L109.195 62.6109L110.666 62.9019L110.667 62.9003L109.195 62.6093ZM109.386 12.3206L109.381 13.8206C115.657 13.8432 121.677 16.3346 126.156 20.7499L127.209 19.6816L128.262 18.6134C123.228 13.6503 116.457 10.8461 109.392 10.8206L109.386 12.3206ZM127.209 19.6816L126.159 20.7525C130.639 25.1472 133.17 31.1734 133.17 37.4651H134.67H136.17C136.17 30.3687 133.316 23.5704 128.26 18.6108L127.209 19.6816ZM134.67 37.4651H133.17C133.17 43.7574 130.639 49.7835 126.159 54.1777L127.209 55.2486L128.26 56.3195C133.316 51.3603 136.17 44.562 136.17 37.4651H134.67ZM127.209 55.2486L126.156 54.1806C123.239 57.0577 119.646 59.1374 115.703 60.2338L116.105 61.679L116.507 63.1241C120.941 61.891 124.982 59.5517 128.263 56.3167L127.209 55.2486ZM116.105 61.679L116.917 62.9403C117.883 62.3189 118.766 61.5916 119.562 60.7734L118.486 59.7277L117.411 58.682C116.771 59.3407 116.063 59.9223 115.293 60.4176L116.105 61.679ZM118.486 59.7277L119.559 60.7759C122.226 58.0458 123.72 54.3786 123.714 50.557L122.214 50.5596L120.714 50.5622C120.719 53.597 119.533 56.5101 117.413 58.6795L118.486 59.7277ZM122.214 50.5596H123.714C123.714 42.5436 117.503 35.9027 109.521 35.4093L109.428 36.9064L109.336 38.4036C115.725 38.7985 120.714 44.1179 120.714 50.5596H122.214ZM109.428 36.9064L109.52 35.4092C106.747 35.2403 104.147 34.0264 102.223 32.0055L101.136 33.0399L100.05 34.0742C102.493 36.6405 105.804 38.1883 109.337 38.4036L109.428 36.9064ZM101.136 33.0399L102.222 32.0048C98.2812 27.8712 98.2812 21.3553 102.222 17.2212L101.136 16.1863L100.05 15.1513C95.0051 20.4442 95.005 28.7822 100.051 34.0749L101.136 33.0399ZM101.136 16.1863L102.224 17.219C104.131 15.2104 106.721 13.996 109.472 13.8165L109.375 12.3197L109.277 10.8229C105.77 11.0517 102.473 12.599 100.048 15.1536L101.136 16.1863ZM109.375 12.3197L109.256 13.815L109.268 13.8159L109.386 12.3206L109.505 10.8253L109.493 10.8244L109.375 12.3197ZM108.399 50.5605H106.899C106.899 50.7049 106.841 50.8366 106.749 50.9262L107.795 52.0015L108.841 53.0767C109.526 52.4098 109.899 51.4968 109.899 50.5605H108.399ZM107.795 52.0015L106.744 50.9308C106.522 51.1488 106.155 51.1542 105.922 50.927L104.875 52.0015L103.829 53.076C105.222 54.4338 107.452 54.4392 108.845 53.0721L107.795 52.0015ZM104.875 52.0015L105.929 50.9344C105.836 50.8423 105.777 50.7061 105.777 50.5605H104.277H102.777C102.777 51.4957 103.148 52.4042 103.821 53.0686L104.875 52.0015ZM104.277 50.5605H105.777C105.777 50.4113 105.834 50.2804 105.929 50.1867L104.875 49.1195L103.821 48.0524C103.15 48.7152 102.777 49.617 102.777 50.5605H104.277ZM104.875 49.1195L105.926 50.1901C106.158 49.962 106.519 49.9676 106.74 50.1862L107.795 49.1195L108.849 48.0529C107.455 46.6744 105.219 46.68 103.825 48.049L104.875 49.1195ZM107.795 49.1195L106.749 50.1948C106.844 50.2877 106.899 50.4149 106.899 50.5545H108.399H109.899C109.899 49.6134 109.523 48.7079 108.841 48.0443L107.795 49.1195ZM108.399 50.5545H106.899V50.5605H108.399H109.899V50.5545H108.399ZM108.74 48.1889L107.688 49.2577C108.036 49.601 108.233 50.0688 108.233 50.5605H109.733H111.233C111.233 49.2629 110.712 48.0256 109.792 47.12L108.74 48.1889ZM109.733 50.5605H108.233C108.233 51.0476 108.035 51.521 107.688 51.8634L108.74 52.9322L109.792 54.0009C110.713 53.0943 111.233 51.8507 111.233 50.5605H109.733ZM108.74 52.9322L107.69 51.8614C106.939 52.5979 105.737 52.598 104.986 51.8614L103.936 52.9322L102.885 54.0029C104.803 55.8841 107.873 55.8841 109.79 54.0029L108.74 52.9322ZM103.936 52.9322L104.983 51.8584C104.634 51.5177 104.437 51.0469 104.437 50.5605H102.937H101.437C101.437 51.8514 101.957 53.0978 102.888 54.0059L103.936 52.9322ZM102.937 50.5605H104.437C104.437 50.0697 104.633 49.6044 104.983 49.2626L103.936 48.1889L102.888 47.1152C101.959 48.0223 101.437 49.2621 101.437 50.5605H102.937ZM103.936 48.1889L104.986 49.2596C105.737 48.5231 106.939 48.5231 107.69 49.2596L108.74 48.1889L109.79 47.1181C107.873 45.2369 104.803 45.2369 102.885 47.1181L103.936 48.1889ZM115.68 24.6232H114.18C114.18 24.7712 114.124 24.8977 114.03 24.9889L115.076 26.0642L116.122 27.1394C116.806 26.4742 117.18 25.5679 117.18 24.6232H115.68ZM115.076 26.0642L114.025 24.9934C113.8 25.2145 113.447 25.2207 113.212 25L112.186 26.0942L111.16 27.1884C112.564 28.5047 114.748 28.4869 116.126 27.1349L115.076 26.0642ZM112.186 26.0942L113.249 25.0354L113.219 25.0054L112.156 26.0642L111.094 27.1229L111.124 27.153L112.186 26.0942ZM112.156 26.0642L113.21 24.997C113.107 24.8954 113.052 24.7612 113.052 24.6232H111.552H110.052C110.052 25.5779 110.439 26.4765 111.102 27.1313L112.156 26.0642ZM111.552 24.6232H113.052C113.052 24.4889 113.109 24.3493 113.21 24.2493L112.156 23.1822L111.102 22.1151C110.437 22.7716 110.052 23.6768 110.052 24.6232H111.552ZM112.156 23.1822L113.203 24.2568C113.434 24.0315 113.798 24.0316 114.029 24.2567L115.076 23.1822L116.122 22.1078C114.726 20.7478 112.506 20.7479 111.11 22.1077L112.156 23.1822ZM115.076 23.1822L114.021 24.2492C114.126 24.3531 114.18 24.4858 114.18 24.6232H115.68H117.18C117.18 23.6799 116.803 22.7799 116.13 22.1152L115.076 23.1822ZM116.021 22.2516L114.969 23.3204C115.316 23.6626 115.514 24.1361 115.514 24.6232H117.014H118.514C118.514 23.333 117.994 22.0893 117.073 21.1827L116.021 22.2516ZM117.014 24.6232H115.514C115.514 25.1148 115.317 25.5827 114.969 25.9261L116.021 26.9948L117.073 28.0636C117.993 27.158 118.514 25.9208 118.514 24.6232H117.014ZM116.021 26.9948L114.971 25.924C114.223 26.6575 113.041 26.662 112.297 25.948L111.259 27.0309L110.221 28.1137C112.144 29.9575 115.175 29.9259 117.071 28.0657L116.021 26.9948ZM111.259 27.0309L112.237 25.8937L112.195 25.8577L111.217 26.9948L110.239 28.132L110.28 28.168L111.259 27.0309ZM111.217 26.9948L112.264 25.9211C111.919 25.5841 111.724 25.121 111.724 24.6232H110.224H108.724C108.724 25.9147 109.235 27.1567 110.169 28.0686L111.217 26.9948ZM110.224 24.6232H111.724C111.724 24.1301 111.92 23.6614 112.264 23.3253L111.217 22.2516L110.169 21.1778C109.234 22.0907 108.724 23.3392 108.724 24.6232H110.224ZM111.217 22.2516L112.267 23.3223C113.018 22.5858 114.22 22.5858 114.971 23.3223L116.021 22.2516L117.071 21.1808C115.154 19.2996 112.084 19.2996 110.166 21.1808L111.217 22.2516ZM128.142 18.7513L127.092 19.8221C131.823 24.4628 134.492 30.8192 134.492 37.4662H135.992H137.492C137.492 30.0149 134.5 22.8863 129.193 17.6804L128.142 18.7513ZM135.992 37.4662H134.492C134.492 44.1066 131.823 50.4632 127.092 55.1041L128.142 56.175L129.193 57.2458C134.5 52.0399 137.492 44.9112 137.492 37.4662H135.992ZM128.142 56.175L127.091 55.1048C122.31 59.8007 115.885 62.4262 109.195 62.4262V63.9262V65.4262C116.671 65.4262 123.851 62.492 129.193 57.2451L128.142 56.175ZM109.195 63.9262V62.4262C102.505 62.4262 96.0854 59.8011 91.2979 55.1042L90.2475 56.175L89.197 57.2457C94.5441 62.4917 101.718 65.4262 109.195 65.4262V63.9262ZM90.2475 56.175L91.2978 55.1041C86.5663 50.4633 83.898 44.1069 83.898 37.4662H82.398H80.898C80.898 44.9115 83.8896 52.0401 89.1971 57.2459L90.2475 56.175ZM82.398 37.4662H83.898C83.898 30.8197 86.5664 24.4631 91.2978 19.8221L90.2475 18.7513L89.1971 17.6804C83.8895 22.8866 80.898 30.0154 80.898 37.4662H82.398ZM90.2475 18.7513L91.2973 19.8227C96.0857 15.1307 102.506 12.5 109.195 12.5V11V9.5C101.717 9.5 94.5441 12.4411 89.1976 17.6799L90.2475 18.7513ZM109.195 11V12.5C115.884 12.5 122.31 15.131 127.092 19.822L128.142 18.7513L129.193 17.6805C123.852 12.4408 116.672 9.5 109.195 9.5V11ZM30.8382 49.7746L32.1416 49.0321L25.1298 36.7239L23.8265 37.4664L22.5231 38.2089L29.5349 50.5171L30.8382 49.7746ZM23.8265 37.4664L25.1295 38.2093L32.1473 25.9011L30.8442 25.1581L29.5412 24.4151L22.5234 36.7234L23.8265 37.4664ZM30.8442 25.1581V26.6581H44.6166V25.1581V23.6581H30.8442V25.1581ZM44.6166 25.1581L43.3098 25.8943L50.2437 38.2026L51.5506 37.4664L52.8575 36.7301L45.9235 24.4218L44.6166 25.1581ZM51.5506 37.4664L50.2437 36.7301L43.3098 49.0384L44.6166 49.7746L45.9235 50.5109L52.8575 38.2026L51.5506 37.4664ZM44.6166 49.7746V48.2746H30.8382V49.7746V51.2746H44.6166V49.7746ZM46.1303 49.7746V51.2746H58.4788V49.7746V48.2746H46.1303V49.7746ZM58.4788 49.7746L59.7856 49.0383L53.6115 38.0809L52.3046 38.8173L50.9978 39.5536L57.172 50.511L58.4788 49.7746ZM52.3046 38.8173L50.9978 38.0809L44.8235 49.0383L46.1303 49.7746L47.4371 50.511L53.6114 39.5536L52.3046 38.8173ZM43.8688 23.8372L45.1758 23.1012L39.0733 12.2639L37.7663 12.9998L36.4592 13.7358L42.5617 24.5732L43.8688 23.8372ZM37.7663 12.9998L36.4629 12.2573L30.2888 23.0946L31.5921 23.8372L32.8954 24.5797L39.0696 13.7424L37.7663 12.9998ZM31.5921 23.8372V25.3372H43.8688V23.8372V22.3372H31.5921V23.8372ZM15.666 23.8372V25.3372H30.0605V23.8372V22.3372H15.666V23.8372ZM30.0605 23.8372L31.3637 24.58L38.4891 12.0796L37.1859 11.3368L35.8828 10.594L28.7573 23.0943L30.0605 23.8372ZM37.1859 11.3368V12.8368H37.1919V11.3368V9.83677H37.1859V11.3368ZM37.1919 11.3368L38.486 12.0953C38.4146 12.2171 38.3126 12.3206 38.1796 12.3948L37.4492 11.0846L36.7188 9.77445C36.3704 9.96866 36.0889 10.2523 35.8979 10.5782L37.1919 11.3368ZM37.4492 11.0846L38.1712 12.3994C37.7698 12.6198 37.2713 12.479 37.0461 12.0797L38.3526 11.3428L39.6591 10.6059C39.0749 9.57009 37.7628 9.20114 36.7272 9.76979L37.4492 11.0846ZM38.3526 11.3428L37.046 12.0795L44.0937 24.5799L45.4004 23.8432L46.707 23.1065L39.6592 10.6061L38.3526 11.3428ZM45.4004 23.8432V25.3432H59.6216V23.8432V22.3432H45.4004V23.8432ZM59.6216 23.8432H61.1216V23.8372H59.6216H58.1216V23.8432H59.6216ZM59.6216 23.8372V25.3372C59.1486 25.3372 58.7929 24.9555 58.7858 24.5221L60.2856 24.4976L61.7854 24.4732C61.7664 23.3073 60.8244 22.3372 59.6216 22.3372V23.8372ZM60.2856 24.4976H58.7856C58.7856 24.3082 58.8461 24.1489 58.9225 24.0339L60.172 24.8639L61.4214 25.6939C61.6414 25.3627 61.7856 24.9513 61.7856 24.4976H60.2856ZM60.172 24.8639L58.8649 24.1279L51.7693 36.7304L53.0764 37.4663L54.3835 38.2022L61.479 25.5998L60.172 24.8639ZM53.0764 37.4663L51.7693 38.2022L58.8649 50.8047L60.172 50.0688L61.479 49.3329L54.3835 36.7304L53.0764 37.4663ZM60.172 50.0688H58.672V50.0748H60.172H61.672V50.0688H60.172ZM60.172 50.0748L58.9225 50.9048C58.8461 50.7897 58.7856 50.6305 58.7856 50.441H60.2856H61.7856C61.7856 49.9874 61.6414 49.576 61.4214 49.2448L60.172 50.0748ZM60.2856 50.441L58.7858 50.4165C58.7928 49.9882 59.1494 49.5875 59.6463 49.5957L59.6216 51.0955L59.5969 52.5953C60.8236 52.6155 61.7665 51.6263 61.7854 50.4655L60.2856 50.441ZM59.6216 51.0955V49.5955H45.3944V51.0955V52.5955H59.6216V51.0955ZM45.3944 51.0955L44.0878 50.3588L37.04 62.8592L38.3466 63.5959L39.6532 64.3325L46.701 51.8321L45.3944 51.0955ZM38.3466 63.5959L37.0401 62.8589C37.2653 62.4596 37.7738 62.3107 38.1841 62.5438L37.4432 63.848L36.7023 65.1523C37.7468 65.7456 39.0689 65.3685 39.6531 64.3328L38.3466 63.5959ZM37.4432 63.848L38.1159 62.5073C38.3029 62.6011 38.4255 62.7379 38.4983 62.8694L37.186 63.5959L35.8736 64.3223C36.0661 64.67 36.3682 64.9868 36.7705 65.1887L37.4432 63.848ZM37.186 63.5959L38.4891 62.853L31.3637 50.3526L30.0605 51.0955L28.7574 51.8383L35.8828 64.3387L37.186 63.5959ZM30.0605 51.0955V49.5955H15.666V51.0955V52.5955H30.0605V51.0955ZM15.666 51.0955V49.5955C15.8139 49.5955 15.9404 49.6335 16.0407 49.6868L15.3369 51.0114L14.6331 52.336C14.9368 52.4974 15.2907 52.5955 15.666 52.5955V51.0955ZM15.3369 51.0114L16.0718 49.7038C16.2499 49.8039 16.4027 49.9792 16.4685 50.2105L15.0258 50.6211L13.5831 51.0317C13.7446 51.5993 14.1248 52.0508 14.602 52.3191L15.3369 51.0114ZM15.0258 50.6211L16.4685 50.2105C16.526 50.4126 16.5079 50.6525 16.3861 50.8644L15.0856 50.1168L13.7852 49.3692C13.4839 49.8933 13.4299 50.4934 13.5831 51.0317L15.0258 50.6211ZM15.0856 50.1168L16.3887 50.8598L23.598 38.2152L22.2949 37.4722L20.9918 36.7293L13.7826 49.3739L15.0856 50.1168ZM22.2949 37.4722L23.5983 36.7298L16.389 24.0733L15.0856 24.8157L13.7823 25.5581L20.9915 38.2147L22.2949 37.4722ZM15.0856 24.8157L16.3955 24.0848C16.4983 24.269 16.5427 24.5176 16.4603 24.7749L15.0318 24.3173L13.6033 23.8598C13.4132 24.4533 13.5055 25.0622 13.7758 25.5466L15.0856 24.8157ZM15.0318 24.3173L16.4745 24.7281C16.4219 24.9126 16.2881 25.1153 16.056 25.2407L15.3429 23.9211L14.6298 22.6014C14.0866 22.895 13.7374 23.3858 13.5891 23.9066L15.0318 24.3173ZM15.3429 23.9211L16.0467 25.2457C15.958 25.2928 15.8259 25.3372 15.666 25.3372V23.8372V22.3372C15.2787 22.3372 14.9312 22.4412 14.6391 22.5964L15.3429 23.9211ZM58.4787 25.1521L58.4779 23.6521L46.1294 23.6581L46.1302 25.1581L46.1309 26.6581L58.4794 26.6521L58.4787 25.1521ZM46.1302 25.1581L44.8233 25.8944L50.9975 36.8518L52.3043 36.1154L53.6111 35.3791L47.437 24.4217L46.1302 25.1581ZM52.3043 36.1154L53.6111 36.8518L59.7853 25.8944L58.4785 25.1581L57.1717 24.4217L50.9975 35.3791L52.3043 36.1154ZM58.4785 25.1581L59.978 25.1975L59.9781 25.1915L58.4787 25.1521L56.9792 25.1127L56.979 25.1187L58.4785 25.1581ZM29.3125 25.1521L29.3118 23.6521L16.8077 23.6581L16.8084 25.1581L16.8091 26.6581L29.3132 26.6521L29.3125 25.1521ZM16.8084 25.1581L15.5052 25.9008L21.7572 36.8702L23.0603 36.1274L24.3635 35.3847L18.1116 24.4153L16.8084 25.1581ZM23.0603 36.1274L24.3635 36.8702L30.6155 25.9008L29.3123 25.1581L28.0091 24.4153L21.7572 35.3847L23.0603 36.1274ZM29.3123 25.1581L30.8118 25.1964L30.812 25.1904L29.3125 25.1521L27.813 25.1138L27.8128 25.1198L29.3123 25.1581ZM31.5919 51.0834L30.2886 51.8259L36.4628 62.6632L37.7661 61.9207L39.0694 61.1782L32.8953 50.3408L31.5919 51.0834ZM37.7661 61.9207L39.0731 62.6567L45.1756 51.8193L43.8686 51.0834L42.5616 50.3474L36.4591 61.1847L37.7661 61.9207ZM43.8686 51.0834V49.5834H31.5919V51.0834V52.5834H43.8686V51.0834Z" fill="#663366" mask="url(#path-1-outside-1_146_2718)"/>
</svg>
