<svg width="150" height="150" viewBox="0 0 150 150" fill="none" xmlns="http://www.w3.org/2000/svg">
<path d="M88.791 116.362H30.1101V85.823C30.1116 85.3474 29.9674 84.8828 29.6969 84.4916C29.4264 84.1004 29.0426 83.8015 28.5971 83.635L16.6328 79.1193L64.5365 33.4269L82.2735 49.7207C82.6088 50.0235 83.0251 50.2222 83.4715 50.2925C83.9179 50.3628 84.3751 50.3016 84.7873 50.1164C85.2001 49.9363 85.5517 49.6403 85.7996 49.2643C86.0475 48.8883 86.181 48.4485 86.184 47.9982V41.8764H93.167V58.7055C93.167 59.3229 93.4122 59.9149 93.8488 60.3515C94.2853 60.788 94.8774 61.0332 95.4947 61.0332C96.112 61.0332 96.7041 60.788 97.1406 60.3515C97.5771 59.9149 97.8224 59.3229 97.8224 58.7055V39.5487C97.8224 38.9314 97.5771 38.3393 97.1406 37.9028C96.7041 37.4663 96.112 37.221 95.4947 37.221H83.8563C83.2389 37.221 82.6469 37.4663 82.2104 37.9028C81.7738 38.3393 81.5286 38.9314 81.5286 39.5487V42.7842L66.0961 28.6319C65.6644 28.226 65.0941 28 64.5016 28C63.9091 28 63.3388 28.226 62.9071 28.6319L10.7205 78.3512C10.4365 78.6222 10.2257 78.9607 10.1077 79.3351C9.98966 79.7096 9.96825 80.1077 10.0454 80.4926C10.1233 80.8808 10.2988 81.2426 10.5553 81.544C10.8119 81.8454 11.1412 82.0764 11.5119 82.2151L25.478 87.4291V118.69C25.478 119.307 25.7232 119.899 26.1597 120.336C26.5963 120.772 27.1883 121.018 27.8057 121.018H88.791C89.4083 121.018 90.0004 120.772 90.4369 120.336C90.8734 119.899 91.1186 119.307 91.1186 118.69C91.1186 118.073 90.8734 117.481 90.4369 117.044C90.0004 116.607 89.4083 116.362 88.791 116.362Z" fill="#663366"/>
<path d="M137.672 65.1533H70.1695C69.5521 65.1533 68.9601 65.3986 68.5236 65.8351C68.087 66.2716 67.8418 66.8637 67.8418 67.481V100.069C67.8418 100.686 68.087 101.278 68.5236 101.714C68.9601 102.151 69.5521 102.396 70.1695 102.396H95.774V118.69C95.774 119.307 96.0192 119.899 96.4558 120.336C96.8923 120.772 97.4843 121.018 98.1017 121.018H109.74C110.357 121.018 110.949 120.772 111.386 120.336C111.823 119.899 112.068 119.307 112.068 118.69V102.396H137.672C138.29 102.396 138.882 102.151 139.318 101.714C139.755 101.278 140 100.686 140 100.069V67.481C140 66.8637 139.755 66.2716 139.318 65.8351C138.882 65.3986 138.29 65.1533 137.672 65.1533ZM107.412 116.362H100.429V102.396H107.412V116.362ZM135.345 97.7409H72.4972V69.8087H135.345V97.7409Z" fill="#663366"/>
<path d="M79.48 93.0853C80.0974 93.0853 80.6894 92.8401 81.1259 92.4036C81.5625 91.967 81.8077 91.375 81.8077 90.7576V83.7746C81.776 84.0141 81.776 84.2567 81.8077 84.4962L84.1354 91.4792C84.2932 91.9654 84.6067 92.386 85.0274 92.6763C85.4481 92.9666 85.9526 93.1103 86.4631 93.0853C86.7103 93.1172 86.9607 93.1172 87.2079 93.0853C87.5229 93.0021 87.8169 92.8536 88.0709 92.6496C88.3248 92.4456 88.5332 92.1905 88.6824 91.9009C88.8315 91.6113 88.9183 91.2936 88.937 90.9684C88.9556 90.6431 88.9058 90.3176 88.7908 90.0128L86.9053 84.4031L88.2321 83.0996C88.6255 82.6419 88.8258 82.0494 88.7908 81.4469V76.7916C88.7908 76.1742 88.5455 75.5822 88.109 75.1456C87.6725 74.7091 87.0804 74.4639 86.4631 74.4639H79.48C78.8627 74.4639 78.2706 74.7091 77.8341 75.1456C77.3976 75.5822 77.1523 76.1742 77.1523 76.7916V90.7576C77.1523 91.375 77.3976 91.967 77.8341 92.4036C78.2706 92.8401 78.8627 93.0853 79.48 93.0853ZM81.8077 79.1192H84.1354V80.4926L82.4827 82.1219C82.267 82.3394 82.0963 82.5974 81.9805 82.881C81.8647 83.1646 81.8059 83.4683 81.8077 83.7746V79.1192Z" fill="#663366"/>
<path d="M93.4468 93.0853H100.43C101.047 93.0853 101.639 92.8401 102.076 92.4036C102.512 91.967 102.758 91.375 102.758 90.7576C102.758 90.1403 102.512 89.5483 102.076 89.1117C101.639 88.6752 101.047 88.43 100.43 88.43H95.7745V86.1023H98.1022C98.7195 86.1023 99.3116 85.857 99.7481 85.4205C100.185 84.984 100.43 84.3919 100.43 83.7746C100.43 83.1573 100.185 82.5652 99.7481 82.1287C99.3116 81.6922 98.7195 81.4469 98.1022 81.4469H95.7745V79.1192H100.43C101.047 79.1192 101.639 78.874 102.076 78.4375C102.512 78.0009 102.758 77.4089 102.758 76.7916C102.758 76.1742 102.512 75.5822 102.076 75.1456C101.639 74.7091 101.047 74.4639 100.43 74.4639H93.4468C92.8295 74.4639 92.2374 74.7091 91.8009 75.1456C91.3644 75.5822 91.1191 76.1742 91.1191 76.7916V90.7576C91.1191 91.375 91.3644 91.967 91.8009 92.4036C92.2374 92.8401 92.8295 93.0853 93.4468 93.0853Z" fill="#663366"/>
<path d="M107.412 93.0853C108.03 93.0853 108.622 92.8401 109.058 92.4036C109.495 91.9671 109.74 91.375 109.74 90.7577V86.6609L112.324 91.8051C112.517 92.189 112.813 92.5118 113.179 92.7378C113.545 92.9637 113.966 93.084 114.396 93.0853C114.573 93.108 114.753 93.108 114.931 93.0853C115.452 92.9625 115.914 92.6639 116.241 92.24C116.567 91.816 116.738 91.2925 116.723 90.7577V76.7916C116.723 76.1742 116.478 75.5822 116.041 75.1456C115.605 74.7091 115.013 74.4639 114.396 74.4639C113.778 74.4639 113.186 74.7091 112.75 75.1456C112.313 75.5822 112.068 76.1742 112.068 76.7916V80.8883L109.484 75.7441C109.259 75.2668 108.878 74.8801 108.405 74.6475C107.931 74.4149 107.392 74.3502 106.877 74.4639C106.356 74.5868 105.894 74.8853 105.567 75.3093C105.241 75.7332 105.071 76.2567 105.085 76.7916V90.7577C105.085 91.375 105.33 91.9671 105.767 92.4036C106.203 92.8401 106.795 93.0853 107.412 93.0853Z" fill="#663366"/>
<path d="M121.378 79.1192H122.542V90.7576C122.542 91.375 122.788 91.967 123.224 92.4036C123.661 92.8401 124.253 93.0853 124.87 93.0853C125.487 93.0853 126.079 92.8401 126.516 92.4036C126.952 91.967 127.198 91.375 127.198 90.7576V79.1192H128.362C128.979 79.1192 129.571 78.874 130.007 78.4375C130.444 78.0009 130.689 77.4089 130.689 76.7916C130.689 76.1742 130.444 75.5822 130.007 75.1456C129.571 74.7091 128.979 74.4639 128.362 74.4639H121.378C120.761 74.4639 120.169 74.7091 119.733 75.1456C119.296 75.5822 119.051 76.1742 119.051 76.7916C119.051 77.4089 119.296 78.0009 119.733 78.4375C120.169 78.874 120.761 79.1192 121.378 79.1192Z" fill="#663366"/>
</svg>
