<svg width="150" height="150" viewBox="0 0 150 150" fill="none" xmlns="http://www.w3.org/2000/svg">
<path d="M83.2974 72.2094C82.851 73.4 83.4463 74.5906 84.4881 75.0371C104.133 83.0737 140 78.0136 140 63.8751C140 61.345 138.81 57.7732 133.005 54.3502C131.964 53.7549 130.624 54.0526 130.029 54.9455C129.434 55.9873 129.731 57.3267 130.624 57.922L130.773 58.0709C133.898 59.8568 135.535 61.7915 135.535 63.7263C135.535 72.3582 105.175 78.6089 86.1251 70.8699C84.9345 70.4234 83.7439 71.0187 83.2974 72.2094C83.2974 72.0605 83.2974 72.0605 83.2974 72.2094Z" fill="#663366"/>
<path d="M76.004 75.0371C77.1946 75.0371 78.2364 73.9953 78.2364 72.8047V63.8751C78.2364 56.7314 96.2444 53.3084 106.365 53.3084C107.555 53.3084 108.597 52.2667 108.597 51.0761C108.597 49.8854 107.555 48.8437 106.365 48.8437C88.3566 48.9925 73.9205 55.0944 73.9205 63.8751V72.8047C73.7716 73.9953 74.8134 75.0371 76.004 75.0371Z" fill="#663366"/>
<path d="M137.47 78.1624C136.28 78.0136 135.089 78.7577 134.94 79.9483C132.857 94.2357 121.993 101.23 102.794 101.23C101.603 101.23 100.562 102.272 100.562 103.463C100.562 104.653 101.603 105.695 102.794 105.695C129.88 105.695 137.619 92.0033 139.405 80.5436C139.554 79.5019 138.81 78.4601 137.47 78.1624Z" fill="#663366"/>
<path d="M105.026 63.8751C104.282 64.9169 104.579 66.2563 105.621 67.0004C106.663 67.7446 108.002 67.4469 108.746 66.4051C108.746 66.4051 108.746 66.4051 108.746 66.2563L123.182 44.3789C123.778 43.3371 123.629 41.9976 122.587 41.4023C122.587 41.4023 122.587 41.4023 122.438 41.4023C122.29 41.2535 122.141 40.9558 122.29 40.807L124.82 35.5981C125.117 35.0028 125.713 34.7051 126.457 34.854C126.457 34.854 126.457 34.854 126.605 34.854L133.749 39.0211C134.344 39.4676 134.493 40.2117 134.047 40.6582L130.624 45.123C129.731 44.3789 128.391 44.3789 127.498 45.2718C127.35 45.4206 127.35 45.5695 127.201 45.7183L116.634 66.4051C116.039 67.4469 116.485 68.7864 117.527 69.3817C118.569 69.977 119.908 69.5305 120.504 68.4887L130.028 50.0342C131.666 50.0342 133.154 49.2901 134.196 47.9507L137.47 43.1882C139.256 40.6582 138.66 37.0864 136.13 35.3005C135.982 35.1516 135.833 35.1516 135.833 35.0028L128.689 30.8357C126.01 29.3474 122.587 30.2404 121.099 33.0681C121.099 33.2169 120.95 33.3657 120.95 33.5145L118.42 38.7235C117.676 40.2117 117.825 41.9976 118.569 43.3371L105.026 63.8751Z" fill="#663366"/>
<path d="M49.6626 36.3423V34.1099C49.6626 32.9193 48.6208 31.8775 47.4302 31.8775C46.2396 31.8775 45.1978 32.9193 45.1978 34.1099V36.3423C45.3466 39.7653 47.7278 42.7418 51.1508 43.6347C55.9133 45.123 59.4851 48.546 59.4851 54.2014C58.5921 55.2432 53.0856 57.1779 40.8818 57.3268C39.6912 57.3268 38.6494 58.3685 38.6494 59.5592V79.353C38.6494 80.5437 39.6912 81.5854 40.8818 81.5854C42.0724 81.5854 43.1142 80.5437 43.1142 79.353V61.6427C48.4719 61.4939 55.1691 60.8986 59.4851 59.1127V77.1206C59.4851 78.3113 60.5269 79.353 61.7175 79.353C62.9081 79.353 63.9499 78.3113 63.9499 77.1206V53.3085C63.9499 47.0577 59.3363 41.4024 52.4903 39.3188C51.002 39.0211 49.8114 37.8305 49.6626 36.3423Z" fill="#663366"/>
<path d="M18.8546 93.6403C20.0452 93.6403 21.087 92.5985 21.087 91.4079V53.3084C21.087 49.1413 24.0635 45.4206 28.6772 43.7835C31.8025 42.8906 34.0349 40.0629 34.1837 36.6399V35.1516C34.1837 33.961 33.1419 32.9192 31.9513 32.9192C30.7607 32.9192 29.7189 33.961 29.7189 35.1516V36.6399C29.5701 38.1281 28.5283 39.3187 27.1889 39.6164C20.7894 41.8488 16.7711 47.2065 16.7711 53.3084V91.4079C16.6222 92.5985 17.5152 93.6403 18.8546 93.6403Z" fill="#663366"/>
<path d="M51.8956 24.2873C51.8956 23.0967 50.8538 22.0549 49.6632 22.0549C48.6214 22.0549 47.7285 22.7991 47.4308 23.8408C45.1984 25.7756 35.5247 25.7756 33.1435 23.8408V15.6554C35.3759 14.4648 37.7571 14.0183 40.2872 14.1671C44.3055 14.1671 46.8355 15.0601 47.4308 15.6554C47.4308 15.8042 47.4308 15.953 47.4308 16.1019C46.0914 17.2925 42.3707 17.5901 40.2872 17.5901C39.0965 17.5901 38.0548 18.6319 38.0548 19.8225C38.0548 21.0131 39.0965 22.0549 40.2872 22.0549C44.7519 22.0549 51.8956 20.8643 51.8956 16.5484V15.5066C51.8956 11.6371 46.0914 10 40.2872 10C34.4829 10 28.6787 11.7859 28.6787 15.5066V24.2873C28.6787 31.7286 51.8956 31.7286 51.8956 24.2873Z" fill="#663366"/>
<path d="M19.7486 109.714L43.2632 92.8962C44.305 92.1521 44.4538 90.8127 43.7097 89.7709C42.9655 88.7291 41.6261 88.5803 40.5843 89.3244L17.0698 106.142C16.028 106.886 15.8792 108.225 16.6233 109.267C17.3674 110.16 18.7069 110.458 19.7486 109.714Z" fill="#663366"/>
<path d="M90.7382 106.588C89.8453 105.546 87.4641 105.249 88.2082 100.635C88.357 99.4446 87.6129 98.254 86.4223 98.1051C85.2317 97.9563 84.0411 98.7005 83.8922 99.8911C82.8504 105.844 85.9758 108.672 87.4641 109.714L60.08 135.461H22.1293C18.2599 135.461 15.1345 132.633 14.5392 128.912C14.2415 126.977 14.2415 125.043 14.5392 123.257C15.1345 119.536 18.4087 116.708 22.1293 116.857H53.0852C52.3411 118.494 52.0434 120.429 52.1922 122.215C52.3411 125.34 53.6805 128.466 55.9129 130.698C56.8059 131.591 58.1453 131.591 59.0382 130.698C59.9312 129.805 59.9312 128.466 59.0382 127.573C57.6988 126.084 56.8059 124.001 56.657 121.917C56.657 120.131 57.1035 118.346 57.9965 116.708C59.1871 116.708 59.9312 116.857 60.6753 116.113L91.6312 88.5803C92.5242 87.8361 92.673 86.3479 91.78 85.4549C91.3335 85.0084 90.7382 84.7108 90.1429 84.7108H52.1922C51.0016 84.7108 49.9598 85.7526 49.9598 86.9432C49.9598 88.1338 51.0016 89.1756 52.1922 89.1756H84.3387L58.4429 112.392H22.1293C16.1763 112.392 11.1162 116.708 10.2232 122.513C9.92559 124.894 9.92559 127.126 10.2232 129.507C11.1162 135.461 16.1763 139.776 22.1293 139.776H60.973C61.5683 139.776 62.0148 139.628 62.4613 139.181L94.0124 109.565C94.9054 108.672 94.7565 107.332 94.0124 106.439C93.2683 105.546 91.6312 105.695 90.7382 106.588Z" fill="#663366"/>
</svg>
