<svg width="150" height="150" viewBox="0 0 150 150" fill="none" xmlns="http://www.w3.org/2000/svg">
<path d="M137.963 107.979H117.566V21.5664C117.566 19.0489 115.519 17 113.011 17H43.0379C40.5247 17 38.4834 19.049 38.4834 21.5664V44.471C29.7643 46.5612 22.4149 53.2643 19.9321 62.5467C18.1934 69.0798 19.0909 75.9015 22.4555 81.7597C23.789 84.0816 25.4507 86.1306 27.3741 87.8809L24.3378 93.1579C23.6762 92.9159 22.9581 92.8747 22.2658 93.0652C21.3734 93.3072 20.6348 93.8786 20.1784 94.6767L11.09 110.471C8.84356 114.373 10.1821 119.388 14.0698 121.643C15.3212 122.369 16.7112 122.739 18.1216 122.739C18.8294 122.739 19.5474 122.647 20.2552 122.456C22.3632 121.89 24.1224 120.541 25.2097 118.652L34.293 102.852C35.1341 101.38 34.7751 99.5366 33.5185 98.4812L36.5599 93.1991C36.96 93.3278 37.3652 93.4462 37.7755 93.5595C38.0114 93.6212 38.2524 93.683 38.4884 93.7397V119.707C38.4884 127.038 44.4276 133 51.7313 133H126.757C134.061 133 140 127.038 140 119.707V110.028C139.995 108.891 139.081 107.979 137.963 107.979ZM21.691 116.607C21.1473 117.55 20.2652 118.229 19.2035 118.512C18.1418 118.795 17.0391 118.651 16.1005 118.111C14.1464 116.978 13.4796 114.466 14.6029 112.504L23.3835 97.2398L24.0811 97.6414C24.0862 97.6465 24.0913 97.6465 24.0965 97.6517C24.1016 97.6568 24.1067 97.6568 24.1067 97.6568L29.7074 100.9C29.7228 100.91 29.7382 100.921 29.7536 100.931C29.7638 100.936 29.7792 100.941 29.7895 100.952L30.4665 101.343L21.691 116.607ZM30.0255 96.3901L27.8816 95.1494L30.6255 90.3821C31.3179 90.83 32.0359 91.2419 32.7745 91.6228L30.0255 96.3901ZM25.9686 79.7207C23.1426 74.8093 22.3886 69.0845 23.8503 63.6022C26.384 54.1243 34.9594 47.8541 44.3041 47.8541C46.1095 47.8541 47.9456 48.0909 49.7716 48.58C55.2287 50.0472 59.7934 53.5634 62.6195 58.48C65.4455 63.3915 66.1944 69.1162 64.7327 74.5985C63.2709 80.0814 59.768 84.6581 54.8749 87.4949C49.9819 90.3315 44.2787 91.0833 38.8209 89.616C33.3586 88.1487 28.7998 84.6322 25.9686 79.7207ZM93.0955 37.8548H91.3978V33.5045C91.3978 32.7014 91.0695 31.9138 90.4951 31.332C89.9206 30.7554 89.1307 30.4259 88.3358 30.4259L67.7231 30.4311C66.9282 30.4311 66.1691 30.7451 65.5793 31.3114C65.569 31.3217 65.5588 31.332 65.5485 31.3423C64.9689 31.9241 64.651 32.6911 64.651 33.5097V37.86H62.943V33.5097C62.943 32.2381 63.4405 31.0385 64.3432 30.1324C65.2459 29.2264 66.441 28.727 67.7129 28.727H88.3256C89.5924 28.727 90.7874 29.2264 91.6901 30.1324C92.5928 31.0385 93.0903 32.2381 93.0903 33.5097L93.0955 37.8548ZM68.7184 37.8548V34.5033H87.3419V37.8548H68.7184ZM100.04 41.9323C100.466 41.9323 100.809 42.2772 100.809 42.7045V52.9392C100.809 53.3304 100.527 53.6496 100.132 53.696L82.5197 55.8892V54.7565C82.5197 52.9135 81.0272 51.4101 79.1859 51.4101H76.8523C75.0111 51.4101 73.5133 52.9082 73.5133 54.7565V55.8892L65.1225 54.8441C62.6144 51.1322 59.2191 48.2028 55.2341 46.2825V42.6993C55.2341 42.272 55.5777 41.9271 56.0034 41.9271L100.04 41.9323ZM67.5327 59.2514L73.5233 59.9979V62.2992C73.5233 64.1422 75.0209 65.6456 76.8622 65.6456H79.1958C81.0319 65.6456 82.5296 64.1475 82.5296 62.2992V59.9979L99.1889 57.9232V75.0921C99.1889 75.5194 98.794 75.8644 98.3017 75.8644L68.5899 75.8695C68.6104 75.7974 68.636 75.7254 68.6514 75.6533C70.1234 70.1395 69.7176 64.425 67.5327 59.2514ZM77.5802 61.5732V55.4932H78.4675V61.5732H77.5802ZM60.9065 119.697C60.9065 124.779 56.788 128.913 51.7257 128.913C46.6635 128.913 42.545 124.779 42.545 119.697L42.5399 94.3572C43.1399 94.3984 43.74 94.4241 44.3401 94.4241C48.7099 94.4241 53.0182 93.2761 56.9008 91.0263C61.3988 88.4161 64.907 84.5705 67.0765 79.9474L98.3008 79.9422C101.024 79.9422 103.245 77.7697 103.245 75.0926V56.5543C104.245 55.6637 104.871 54.3663 104.871 52.9403V42.7056C104.871 40.0337 102.707 37.856 100.039 37.856H97.152V33.5057C97.152 31.1477 96.2339 28.9237 94.5618 27.2454C92.895 25.5723 90.6793 24.6455 88.3251 24.6455L67.7229 24.6507C65.3635 24.6507 63.1479 25.5722 61.481 27.2506C59.8142 28.9237 58.8909 31.1477 58.8909 33.5108V37.8611H56.0136C53.3517 37.8611 51.1821 40.0336 51.1821 42.7108V44.7598C51.059 44.7237 50.9411 44.6877 50.8231 44.6517C48.0484 43.9052 45.2582 43.658 42.54 43.8537V21.5672C42.54 21.2995 42.7656 21.0781 43.0375 21.0781H113.011C113.283 21.0781 113.508 21.2995 113.508 21.5672V107.98H62.9371C61.8139 107.98 60.906 108.891 60.906 110.018L60.9065 119.697ZM135.932 119.697C135.932 124.779 131.814 128.913 126.752 128.913H61.2554C63.5532 126.519 64.9636 123.27 64.9636 119.697V112.052H135.932V119.697ZM44.3246 87.4024C47.484 87.4024 50.6023 86.5684 53.4079 84.9415C57.6238 82.4961 60.6397 78.5525 61.9014 73.8265C63.158 69.1056 62.5118 64.1787 60.0756 59.9472C57.6393 55.7154 53.7106 52.6882 49.0074 51.4269C44.3043 50.1604 39.3908 50.8091 35.175 53.2545C30.9591 55.7 27.9433 59.6435 26.6868 64.3593C25.4251 69.0802 26.0713 74.0122 28.5024 78.2438C30.9335 82.4756 34.8674 85.5028 39.5705 86.7694C41.1451 87.1967 42.7398 87.4024 44.3246 87.4024ZM32.0255 76.2101C30.133 72.9204 29.6355 69.085 30.6151 65.4143C31.5896 61.7488 33.9335 58.6804 37.2108 56.7807C39.3907 55.5142 41.8166 54.8707 44.2733 54.8707C45.5042 54.8707 46.7454 55.0303 47.9661 55.3598C51.6231 56.3379 54.6747 58.6906 56.5673 61.9855C58.4598 65.2752 58.9624 69.1054 57.9828 72.7762C57.0032 76.4469 54.6594 79.5153 51.382 81.4149C48.1046 83.3146 44.2837 83.8191 40.6318 82.8358C36.9698 81.8525 33.913 79.4998 32.0255 76.2101ZM67.5683 87.9636C67.5683 86.8361 68.4761 85.9248 69.5994 85.9248H102.521C103.645 85.9248 104.553 86.8361 104.553 87.9636C104.553 89.091 103.645 90.0023 102.521 90.0023H69.5994C68.4762 89.9972 67.5683 89.0859 67.5683 87.9636ZM102.527 101.591H53.5206C52.3974 101.591 51.4895 100.68 51.4895 99.5524C51.4895 98.4249 52.3973 97.5137 53.5206 97.5137H102.522C103.645 97.5137 104.553 98.4249 104.553 99.5524C104.553 100.68 103.645 101.591 102.527 101.591Z" fill="#663366"/>
</svg>
