<svg width="150" height="150" viewBox="0 0 150 150" fill="none" xmlns="http://www.w3.org/2000/svg">
<path d="M110.823 144.999H38.4914C35.4447 144.995 32.5236 143.784 30.3693 141.629C28.2149 139.475 27.0032 136.554 27 133.507V24.2531C27.0032 21.2064 28.2149 18.2854 30.3693 16.131C32.5236 13.9766 35.4447 12.7649 38.4914 12.7617H53.8133C54.4507 12.7617 55.0621 13.0149 55.5128 13.4657C55.9635 13.9164 56.2167 14.5277 56.2167 15.1652V30.3699H93.0824V15.1652C93.0824 14.5277 93.3356 13.9164 93.7864 13.4657C94.2371 13.0149 94.8484 12.7617 95.4858 12.7617H110.823C113.869 12.7649 116.791 13.9766 118.945 16.131C121.099 18.2854 122.311 21.2064 122.314 24.2531V133.507C122.311 136.554 121.099 139.475 118.945 141.629C116.791 143.784 113.869 144.995 110.823 144.999ZM38.4914 17.5686C36.719 17.5702 35.0197 18.275 33.7665 19.5282C32.5132 20.7815 31.8085 22.4808 31.8069 24.2531V133.507C31.8085 135.28 32.5132 136.979 33.7665 138.232C35.0197 139.485 36.719 140.19 38.4914 140.192H110.823C112.595 140.19 114.294 139.485 115.548 138.232C116.801 136.979 117.506 135.28 117.507 133.507V24.2531C117.506 22.4808 116.801 20.7815 115.548 19.5282C114.294 18.275 112.595 17.5702 110.823 17.5686H97.8893V32.7733C97.8893 33.4107 97.636 34.0221 97.1853 34.4728C96.7346 34.9235 96.1233 35.1767 95.4858 35.1767H53.8283C53.1909 35.1767 52.5796 34.9235 52.1288 34.4728C51.6781 34.0221 51.4249 33.4107 51.4249 32.7733V17.5686H38.4914Z" fill="#663366"/>
<path d="M110.066 135.156H39.2491C38.6117 135.156 38.0004 134.903 37.5497 134.452C37.0989 134.001 36.8457 133.39 36.8457 132.753V25.0128C36.8457 24.3754 37.0989 23.7641 37.5497 23.3133C38.0004 22.8626 38.6117 22.6094 39.2491 22.6094H53.829C54.4664 22.6094 55.0777 22.8626 55.5285 23.3133C55.9792 23.7641 56.2324 24.3754 56.2324 25.0128V30.3725H93.083V25.0128C93.083 24.3754 93.3363 23.7641 93.787 23.3133C94.2377 22.8626 94.849 22.6094 95.4865 22.6094H110.066C110.704 22.6094 111.315 22.8626 111.766 23.3133C112.217 23.7641 112.47 24.3754 112.47 25.0128V132.753C112.47 133.39 112.217 134.001 111.766 134.452C111.315 134.903 110.704 135.156 110.066 135.156ZM41.6526 130.349H107.663V27.4162H97.8899V32.7759C97.8899 33.4133 97.6367 34.0247 97.186 34.4754C96.7352 34.9261 96.1239 35.1793 95.4865 35.1793H53.829C53.1915 35.1793 52.5802 34.9261 52.1295 34.4754C51.6788 34.0247 51.4255 33.4133 51.4255 32.7759V27.4162H41.6526V130.349Z" fill="#663366"/>
<path d="M95.4867 35.1781H53.8292C53.1918 35.1781 52.5805 34.9249 52.1297 34.4742C51.679 34.0234 51.4258 33.4121 51.4258 32.7747V7.40343C51.4258 6.766 51.679 6.15468 52.1297 5.70395C52.5805 5.25322 53.1918 5 53.8292 5H95.4867C96.1242 5 96.7355 5.25322 97.1862 5.70395C97.6369 6.15468 97.8902 6.766 97.8902 7.40343V32.7747C97.8902 33.4121 97.6369 34.0234 97.1862 34.4742C96.7355 34.9249 96.1242 35.1781 95.4867 35.1781ZM56.2326 30.3712H93.0833V9.80687H56.2326V30.3712Z" fill="#663366"/>
<path d="M83.7454 26.8474H65.5694C64.932 26.8474 64.3207 26.5942 63.87 26.1435C63.4192 25.6928 63.166 25.0814 63.166 24.444V15.7316C63.166 15.0941 63.4192 14.4828 63.87 14.0321C64.3207 13.5813 64.932 13.3281 65.5694 13.3281H83.7454C84.3828 13.3281 84.9942 13.5813 85.4449 14.0321C85.8956 14.4828 86.1488 15.0941 86.1488 15.7316V24.444C86.1488 25.0814 85.8956 25.6928 85.4449 26.1435C84.9942 26.5942 84.3828 26.8474 83.7454 26.8474ZM67.9729 22.0406H81.342V18.135H67.9729V22.0406Z" fill="#663366"/>
<path d="M74.6573 35.1781C74.0199 35.1781 73.4086 34.9249 72.9579 34.4742C72.5071 34.0234 72.2539 33.4121 72.2539 32.7747V24.4438C72.2539 23.8063 72.5071 23.195 72.9579 22.7443C73.4086 22.2936 74.0199 22.0403 74.6573 22.0403C75.2948 22.0403 75.9061 22.2936 76.3568 22.7443C76.8076 23.195 77.0608 23.8063 77.0608 24.4438V32.7747C77.0608 33.4121 76.8076 34.0234 76.3568 34.4742C75.9061 34.9249 75.2948 35.1781 74.6573 35.1781ZM74.6573 18.1378C74.0199 18.1378 73.4086 17.8845 72.9579 17.4338C72.5071 16.9831 72.2539 16.3718 72.2539 15.7343V7.40343C72.2539 6.766 72.5071 6.15468 72.9579 5.70395C73.4086 5.25322 74.0199 5 74.6573 5C75.2948 5 75.9061 5.25322 76.3568 5.70395C76.8076 6.15468 77.0608 6.766 77.0608 7.40343V15.7343C77.0608 16.3718 76.8076 16.9831 76.3568 17.4338C75.9061 17.8845 75.2948 18.1378 74.6573 18.1378Z" fill="#663366"/>
<path d="M74.657 87.7437C69.8213 87.7437 65.0941 86.3099 61.0732 83.6234C57.0523 80.937 53.9182 77.1187 52.0672 72.6512C50.2163 68.1837 49.7315 63.2677 50.6743 58.5248C51.617 53.7818 53.9449 49.4249 57.3637 46.0048C60.7825 42.5848 65.1385 40.2553 69.8812 39.3108C74.6238 38.3663 79.54 38.8492 84.0081 40.6986C88.4763 42.5479 92.2958 45.6805 94.9837 49.7005C97.6716 53.7204 99.1072 58.447 99.109 63.2828C99.1042 69.7672 96.5268 75.9848 91.9424 80.5708C87.3581 85.1568 81.1414 87.7366 74.657 87.7437ZM74.657 43.6497C70.7711 43.6497 66.9724 44.8022 63.7416 46.9614C60.5107 49.1205 57.9927 52.1894 56.5062 55.7797C55.0197 59.3701 54.6313 63.3207 55.3903 67.1318C56.1493 70.9429 58.0215 74.4433 60.7701 77.1902C63.5187 79.9371 67.0203 81.8072 70.8318 82.5638C74.6434 83.3205 78.5937 82.9297 82.1832 81.441C85.7726 79.9523 88.84 77.4325 90.9971 74.2003C93.1543 70.9681 94.3045 67.1687 94.3021 63.2828C94.2933 58.0764 92.2204 53.0859 88.5378 49.4055C84.8552 45.7252 79.8634 43.6553 74.657 43.6497Z" fill="#663366"/>
<path d="M70.4808 78.7182C70.1717 78.7186 69.8654 78.6584 69.5795 78.5409C69.1114 78.3526 68.7144 78.0218 68.4447 77.5953C68.1751 77.1687 68.0466 76.6682 68.0774 76.1645L68.7203 65.8748H65.7641C65.3773 65.8744 64.9963 65.7806 64.6535 65.6015C64.3107 65.4223 64.0162 65.163 63.795 64.8457C63.5738 64.5284 63.4325 64.1624 63.383 63.7788C63.3336 63.3951 63.3774 63.0052 63.5108 62.6422L68.3688 49.4233C68.5418 48.9543 68.8567 48.5509 69.2697 48.2693C69.6827 47.9876 70.1733 47.8418 70.6731 47.8521L81.5546 48.0684C81.9365 48.0765 82.311 48.1754 82.6469 48.3571C82.9829 48.5388 83.2708 48.7979 83.4867 49.113C83.7025 49.4282 83.8402 49.7902 83.8882 50.1691C83.9362 50.5481 83.8932 50.933 83.7628 51.292L81.089 58.6585H83.5375C83.9972 58.6586 84.4473 58.7905 84.8343 59.0386C85.2214 59.2867 85.5291 59.6407 85.7211 60.0584C85.9131 60.4762 85.9812 60.9402 85.9174 61.3955C85.8535 61.8508 85.6605 62.2783 85.3611 62.6272L72.3014 77.8619C72.0778 78.1277 71.7993 78.3419 71.485 78.4897C71.1707 78.6375 70.8281 78.7155 70.4808 78.7182ZM69.216 61.068H71.283C71.6116 61.0673 71.9369 61.1341 72.2388 61.2641C72.5406 61.3942 72.8126 61.5848 73.0378 61.8241C73.2631 62.0635 73.4369 62.3465 73.5484 62.6556C73.66 62.9648 73.7069 63.2936 73.6864 63.6216L73.3289 69.2907L78.316 63.4714H77.6611C77.2748 63.4714 76.8943 63.3783 76.5517 63.2001C76.2091 63.0218 75.9145 62.7636 75.6928 62.4473C75.4711 62.1311 75.329 61.766 75.2783 61.3831C75.2277 61.0003 75.27 60.6108 75.4018 60.2478L78.1057 52.8152L72.2954 52.698L69.216 61.068Z" fill="#663366"/>
<path d="M63.7194 126.676C63.383 126.676 63.0503 126.605 62.743 126.468C48.3975 120.09 47.2528 105.7 47.2108 105.09C47.1715 104.52 47.3362 103.956 47.6752 103.497C48.0143 103.038 48.5057 102.714 49.0614 102.584C53.1833 101.623 52.7507 93.7457 52.7447 93.6675C52.7207 93.3376 52.7651 93.0062 52.8751 92.6942C52.9851 92.3822 53.1583 92.0962 53.3839 91.8542C53.6095 91.6123 53.8827 91.4195 54.1862 91.288C54.4898 91.1564 54.8173 91.089 55.1481 91.0899H72.2996C72.6307 91.089 72.9584 91.1565 73.2622 91.2882C73.566 91.4199 73.8393 91.613 74.065 91.8553C74.2906 92.0976 74.4638 92.3839 74.5736 92.6963C74.6834 93.0086 74.7275 93.3403 74.703 93.6705C74.703 93.7457 74.2674 101.623 78.3863 102.584C78.942 102.714 79.4334 103.038 79.7725 103.497C80.1115 103.956 80.2762 104.52 80.237 105.09C80.1949 105.691 79.0533 120.09 64.7078 126.468C64.3967 126.607 64.0598 126.677 63.7194 126.676ZM52.264 106.466C52.949 109.858 55.3794 117.437 63.7194 121.616C72.0533 117.437 74.4837 109.861 75.1717 106.466C71.4103 104.402 70.1005 99.7032 69.8812 95.8967H57.5636C57.3352 99.7122 56.0314 104.411 52.264 106.475V106.466Z" fill="#663366"/>
<path d="M61.1116 114.673C60.475 114.672 59.8645 114.42 59.4141 113.97L56.6922 111.248C56.2605 110.793 56.0234 110.188 56.0314 109.562C56.0395 108.935 56.292 108.336 56.7352 107.893C57.1784 107.45 57.7772 107.197 58.4039 107.189C59.0306 107.181 59.6357 107.418 60.0901 107.85L61.1116 108.871L67.3455 102.641C67.5686 102.417 67.8336 102.239 68.1253 102.118C68.417 101.997 68.7298 101.934 69.0457 101.934C69.3617 101.933 69.6746 101.995 69.9666 102.116C70.2587 102.236 70.5241 102.413 70.7478 102.636C70.9715 102.859 71.1491 103.124 71.2704 103.416C71.3917 103.708 71.4543 104.02 71.4547 104.336C71.4551 104.652 71.3933 104.965 71.2728 105.257C71.1523 105.549 70.9754 105.815 70.7523 106.038L62.821 113.97C62.5966 114.194 62.33 114.371 62.0366 114.492C61.7432 114.613 61.4288 114.674 61.1116 114.673Z" fill="#663366"/>
<path d="M99.7079 98.1076H80.8019C80.1644 98.1076 79.5531 97.8544 79.1024 97.4037C78.6517 96.953 78.3984 96.3416 78.3984 95.7042C78.3984 95.0668 78.6517 94.4555 79.1024 94.0047C79.5531 93.554 80.1644 93.3008 80.8019 93.3008H99.7079C100.345 93.3008 100.957 93.554 101.407 94.0047C101.858 94.4555 102.111 95.0668 102.111 95.7042C102.111 96.3416 101.858 96.953 101.407 97.4037C100.957 97.8544 100.345 98.1076 99.7079 98.1076Z" fill="#663366"/>
<path d="M99.7065 106.901H85.7726C85.1351 106.901 84.5238 106.647 84.0731 106.197C83.6224 105.746 83.3691 105.135 83.3691 104.497C83.3691 103.86 83.6224 103.248 84.0731 102.798C84.5238 102.347 85.1351 102.094 85.7726 102.094H99.6975C100.335 102.094 100.946 102.347 101.397 102.798C101.848 103.248 102.101 103.86 102.101 104.497C102.101 105.135 101.848 105.746 101.397 106.197C100.946 106.647 100.335 106.901 99.6975 106.901H99.7065Z" fill="#663366"/>
<path d="M99.7065 115.69H82.4679C81.8305 115.69 81.2191 115.436 80.7684 114.986C80.3177 114.535 80.0645 113.924 80.0645 113.286C80.0645 112.649 80.3177 112.037 80.7684 111.587C81.2191 111.136 81.8305 110.883 82.4679 110.883H99.7125C100.35 110.883 100.961 111.136 101.412 111.587C101.863 112.037 102.116 112.649 102.116 113.286C102.116 113.924 101.863 114.535 101.412 114.986C100.961 115.436 100.35 115.69 99.7125 115.69H99.7065Z" fill="#663366"/>
<path d="M99.7079 124.479H80.8019C80.1644 124.479 79.5531 124.226 79.1024 123.775C78.6517 123.324 78.3984 122.713 78.3984 122.075C78.3984 121.438 78.6517 120.827 79.1024 120.376C79.5531 119.925 80.1644 119.672 80.8019 119.672H99.7079C100.345 119.672 100.957 119.925 101.407 120.376C101.858 120.827 102.111 121.438 102.111 122.075C102.111 122.713 101.858 123.324 101.407 123.775C100.957 124.226 100.345 124.479 99.7079 124.479Z" fill="#663366"/>
</svg>
