<svg width="150" height="150" viewBox="0 0 150 150" fill="none" xmlns="http://www.w3.org/2000/svg">
<path d="M74.515 36.5613C79.4987 36.5613 83.5516 32.5084 83.5516 27.5248C83.5516 22.5412 79.4987 18.4883 74.515 18.4883C69.5314 18.4883 65.4785 22.5412 65.4785 27.5248C65.4785 32.5084 69.5314 36.5613 74.515 36.5613ZM74.515 23.0065C77.0069 23.0065 79.0333 25.033 79.0333 27.5248C79.0333 30.0166 77.0069 32.0431 74.515 32.0431C72.0232 32.0431 69.9968 30.0166 69.9968 27.5248C69.9968 25.033 72.0232 23.0065 74.515 23.0065Z" fill="#663366"/>
<path d="M140.03 95.2991V63.6713H128.747C127.604 59.7495 126.023 55.9473 124.035 52.3282L132.023 44.3399L109.66 21.9768L101.672 29.9651C98.9676 28.4786 96.1347 27.2654 93.2475 26.2466C91.4786 18.8728 87.5884 12.1428 80.4631 6.94681C76.9072 4.35106 71.7473 4.35106 68.1937 6.94681C61.0255 12.1767 57.1263 18.9563 55.3732 26.3844C52.6306 27.3784 49.9377 28.5486 47.36 29.9673L39.3717 21.9791L17.0086 44.3422L24.9969 52.3305C23.0043 55.9473 21.4252 59.7495 20.2821 63.6713H9V95.2991H20.2821C21.4252 99.221 23.0066 103.023 24.9946 106.64L17.0064 114.631L39.3695 136.994L47.3578 129.005C50.9724 130.993 54.7722 132.573 58.7009 133.72V145H90.3287V133.72C94.2551 132.573 98.0572 130.993 101.672 129.005L109.66 136.994L132.023 114.631L124.035 106.64C126.025 103.023 127.604 99.2232 128.747 95.2991H140.03ZM70.855 10.5953C72.8769 9.12009 75.7731 9.11783 77.7973 10.5953C97.7522 25.1531 88.6456 54.7252 81.2922 72.8999V56.8939C81.2922 53.1573 78.2514 50.1165 74.5148 50.1165C70.7782 50.1165 67.7374 53.1573 67.7374 56.8939V61.4122H72.2556V56.8939C72.2556 55.6491 73.27 54.6348 74.5148 54.6348C75.7596 54.6348 76.7739 55.6491 76.7739 56.8939V81.7443H72.2556V65.9304H67.7374V73.8329C60.3274 55.7508 50.559 25.4039 70.855 10.5953ZM87.925 68.2551L94.5487 73.555C94.7385 73.7064 94.8469 73.9323 94.8469 74.174C94.8469 74.6123 94.4923 74.967 94.054 74.967H85.3315C86.1854 72.8705 87.0642 70.6227 87.925 68.2551ZM83.5513 90.7809H65.4783V86.2626H83.5513V90.7809ZM84.4662 95.2991L85.3609 95.4799C89.5493 96.3316 92.5878 100.055 92.5878 104.336C92.5878 109.319 88.5349 113.372 83.5513 113.372C80.698 113.372 78.0639 112.035 76.3266 109.701L74.5148 107.27L72.703 109.701C70.9657 112.035 68.3315 113.372 65.4783 113.372C60.4946 113.372 56.4417 109.319 56.4417 104.336C56.4417 100.055 59.4803 96.3316 63.6687 95.4799L64.5633 95.2991H84.4662ZM63.3208 74.967H52.7164C52.2782 74.967 51.9235 74.6123 51.9235 74.174C51.9235 73.9323 52.0319 73.7041 52.2194 73.555L60.3071 67.0849C61.3011 69.8817 62.3268 72.5294 63.3208 74.967ZM55.7888 51.2574C56.5841 55.125 57.6255 58.9136 58.7754 62.5282L49.3978 70.0262C48.1304 71.0406 47.4052 72.5519 47.4052 74.174C47.4052 77.1018 49.7886 79.4852 52.7164 79.4852H65.2094C65.5483 80.2759 65.8713 81.0237 66.1831 81.7443H60.96V91.5558C55.6284 93.4421 51.9235 98.5523 51.9235 104.336C51.9235 104.476 51.9393 104.611 51.9438 104.751C44.8479 98.3783 40.6278 89.1724 40.6278 79.4852C40.6278 68.0608 46.3728 57.5084 55.7888 51.2574ZM36.1096 79.4852C36.1096 92.7983 43.1468 105.3 54.4966 112.252C56.9613 115.661 60.96 117.89 65.4783 117.89C68.8692 117.89 72.0478 116.643 74.5148 114.4C76.9817 116.643 80.1603 117.89 83.5513 117.89C88.0763 117.89 92.0795 115.654 94.542 112.236C98.5881 109.76 102.117 106.606 105.015 102.827L101.428 100.077C100.12 101.785 98.6671 103.346 97.0835 104.763C97.088 104.62 97.1061 104.48 97.1061 104.336C97.1061 98.55 93.4011 93.4421 88.0696 91.5558V81.7443H82.4692C82.7809 81.0237 83.104 80.2759 83.4429 79.4852H94.054C96.9818 79.4852 99.3652 77.1018 99.3652 74.174C99.3652 72.5519 98.64 71.0406 97.3727 70.0262L89.4951 63.7255C90.8212 59.6885 92.023 55.4097 92.9131 51.0383C102.53 57.2576 108.402 67.8891 108.402 79.4852C108.402 85.4742 106.818 91.3637 103.82 96.51L107.726 98.7827C111.124 92.9474 112.92 86.2739 112.92 79.4852C112.92 65.7 105.603 53.1234 93.7377 46.2557C93.9727 44.6291 94.1489 42.998 94.2686 41.3714C108.447 48.7113 117.438 63.3257 117.438 79.4852C117.438 103.154 98.1837 122.409 74.5148 122.409C50.8459 122.409 31.5913 103.154 31.5913 79.4852C31.5913 63.5132 40.4448 48.9666 54.3995 41.5589C54.5237 43.1923 54.709 44.8256 54.9462 46.4567C43.2981 53.3674 36.1096 65.8785 36.1096 79.4852ZM124.839 92.4775C123.635 97.1471 121.764 101.654 119.275 105.87L118.383 107.379L125.632 114.631L109.658 130.605L102.408 123.351L100.901 124.245C96.6949 126.733 92.188 128.605 87.507 129.81L85.8104 130.246V140.482H63.2191V130.246L61.5248 129.81C56.8461 128.605 52.3392 126.733 48.1304 124.245L46.6236 123.351L39.374 130.605L23.3997 114.631L30.6492 107.379L29.7569 105.87C27.2673 101.656 25.3945 97.1494 24.1927 92.4775L23.7544 90.7809H13.5183V68.1896H23.7544L24.1904 66.4952C25.3945 61.8233 27.2651 57.3164 29.7546 53.1008L30.647 51.5917L23.3974 44.3422L39.3717 28.3679L46.6213 35.6174L48.1281 34.7251C50.1772 33.5142 52.312 32.4614 54.4944 31.5465C54.3136 33.2227 54.2255 34.9171 54.2165 36.6273C37.6887 44.4619 27.073 61.1117 27.073 79.4852C27.073 105.644 48.354 126.927 74.5148 126.927C100.676 126.927 121.957 105.644 121.957 79.4852C121.957 60.9129 111.194 44.2112 94.4313 36.451C94.4155 34.7454 94.3206 33.0556 94.1353 31.3838C96.4555 32.3349 98.7236 33.4419 100.899 34.7251L102.406 35.6174L109.656 28.3679L125.63 44.3422L118.38 51.5917L119.273 53.1008C121.762 57.3164 123.635 61.8211 124.837 66.4952L125.275 68.1896H135.511V90.7809H125.275L124.839 92.4775Z" fill="#663366"/>
<path d="M39.3726 41.1441L36.1777 37.9492L32.9829 41.1441L36.1777 44.3389L39.3726 41.1441Z" fill="#663366"/>
<path d="M22.5554 77.2266H18.0371V81.7448H22.5554V77.2266Z" fill="#663366"/>
<path d="M32.9809 117.825L36.1758 121.02L39.3706 117.825L36.1758 114.63L32.9809 117.825Z" fill="#663366"/>
<path d="M76.7741 131.445H72.2559V135.964H76.7741V131.445Z" fill="#663366"/>
<path d="M109.661 117.825L112.855 121.02L116.05 117.825L112.855 114.63L109.661 117.825Z" fill="#663366"/>
<path d="M130.995 77.2266H126.477V81.7448H130.995V77.2266Z" fill="#663366"/>
<path d="M109.661 41.1489L112.855 44.3438L116.05 41.1489L112.855 37.954L109.661 41.1489Z" fill="#663366"/>
</svg>
