<svg width="150" height="150" viewBox="0 0 150 150" fill="none" xmlns="http://www.w3.org/2000/svg">
<path d="M142.734 123.753C142.26 123.231 141.588 122.934 140.884 122.934H136.079V60.5585C136.079 54.0456 130.781 48.7461 124.268 48.7461H104.847C103.463 48.7461 102.344 49.8666 102.344 51.2486C102.344 52.6306 103.463 53.7511 104.847 53.7511H124.268C128.022 53.7511 131.074 56.8047 131.074 60.5585V122.934H125.368V61.9343C125.368 60.5523 124.248 59.4318 122.865 59.4318H103.847C100.539 59.5015 100.571 64.3785 103.847 64.4369C103.847 64.4369 120.363 64.4369 120.363 64.4369V122.934H30.023V64.4369H47.2644C50.5646 64.3862 50.5421 59.4797 47.2643 59.4318H27.5205C26.1373 59.4318 25.018 60.5523 25.018 61.9343V122.934H19.3116V60.5585C19.3116 56.8047 22.364 53.7511 26.1178 53.7511H46.2894C49.5882 53.7046 49.5669 48.7915 46.2893 48.7461H26.1178C19.6049 48.7461 14.3066 54.0456 14.3066 60.5585V122.934H9.50198C8.79815 122.934 8.1261 123.231 7.65197 123.753C7.17787 124.273 6.94326 124.971 7.01168 125.673L7.9819 135.933C8.47312 141.103 12.7572 145.001 17.9504 145.001H132.435C137.629 145.001 141.913 141.103 142.404 135.932L143.374 125.673C143.442 124.971 143.208 124.273 142.734 123.753ZM137.423 135.459C137.176 138.046 135.033 139.996 132.435 139.996H17.9504C15.3525 139.996 13.2093 138.046 12.9625 135.46L12.2513 127.939C12.9182 127.944 138.134 127.939 138.134 127.939L137.423 135.459Z" fill="#663366"/>
<path d="M83.682 131.602H66.707C63.4212 131.656 63.4147 136.551 66.7071 136.607H83.682C86.9665 136.553 86.9753 131.657 83.682 131.602Z" fill="#663366"/>
<path d="M42.185 21.6115L46.667 23.0761V40.2605C46.8253 43.5748 51.3859 42.916 53.5736 43.5853C49.4124 51.7738 50.7368 62.1746 56.6528 69.1579C59.9703 73.1695 61.7336 77.7333 61.7704 82.3612C59.1884 84.3498 59.6621 88.4191 59.6612 91.3213C59.661 94.3978 61.848 96.9722 64.7491 97.5757V101.132C64.9892 114.809 86.1268 114.846 86.3773 101.132V97.5749C89.277 96.9705 91.4629 94.3969 91.4629 91.3213C91.4591 88.4224 91.9323 84.3865 89.3995 82.3994C89.5706 77.5665 91.3068 72.943 94.3662 69.3119C100.51 62.1574 101.75 51.3687 97.2595 43.0358C98.9511 42.8611 101.11 42.372 101.072 40.2604C101.072 40.2605 101.072 23.0729 101.072 23.0729L101.895 22.8039L105.659 26.0214V38.5352C105.705 41.8274 110.617 41.8186 110.664 38.5351V24.8679C110.664 24.136 110.344 23.4407 109.787 22.9654L106.898 20.4962C107.112 20.1348 107.26 19.7308 107.27 19.2911C107.294 18.2304 106.647 17.2688 105.654 16.8924L74.7518 5.16312C74.18 4.94563 73.5494 4.94563 72.9776 5.16312L42.075 16.8924C39.9163 17.6448 39.9725 20.9642 42.185 21.6115ZM81.3722 101.132C81.3898 108.178 69.7295 108.196 69.7542 101.132C69.7541 101.132 69.7541 97.7108 69.7541 97.7108H81.3722V101.132ZM86.4579 91.3213C86.3963 92.8041 84.9893 92.7539 83.8747 92.7056C83.8748 92.7057 67.2516 92.7057 67.2516 92.7057C66.1548 92.755 64.7165 92.8028 64.6661 91.3212C64.666 91.3213 64.666 87.0714 64.666 87.0714C64.666 86.3077 65.2868 85.687 66.0517 85.687H85.0723C85.8372 85.687 86.4579 86.3077 86.4579 87.0714V91.3213ZM96.0671 38.1918C93.5942 38.6606 91.1422 38.9921 88.6549 39.3038C85.5788 39.6817 85.8982 44.2995 88.9581 44.2904C89.9733 44.2182 90.9825 44.0311 91.994 43.9057C93.4721 46.2396 94.4609 48.8507 94.8135 51.5597C95.4629 56.7677 93.9276 62.0861 90.5416 66.0835C87.0884 70.1831 84.9794 75.2883 84.4784 80.6734H81.2794L82.3009 68.8048C83.4942 67.5732 86.2999 66.0255 86.1524 64.3167C86.1524 64.3166 86.1524 56.7688 86.1524 56.7688C86.0939 53.4768 81.2036 53.481 81.1474 56.7689C81.1474 56.7688 81.1474 63.1753 81.1474 63.1753C80.2446 64.1334 77.36 65.8634 77.401 67.3665C77.401 67.3665 76.2568 80.6734 76.2568 80.6734H74.1365L72.9923 67.3666C72.9361 66.7189 72.6306 66.1178 72.1418 65.6913L69.2459 63.1754V56.7688C69.1948 53.4799 64.2928 53.4805 64.2408 56.7689C64.2408 56.7688 64.2408 64.3166 64.2408 64.3166C64.0915 66.0262 66.9002 67.5729 68.0923 68.8049C68.0923 68.8048 69.1139 80.6734 69.1139 80.6734H66.7116C66.3059 75.4606 64.1846 70.4116 60.509 65.9687C59.2505 64.4461 58.2485 62.7721 57.5227 60.9808C55.282 55.662 55.8113 49.1834 58.8847 44.2796C65.9479 45.1264 72.9423 45.4285 79.9792 45.0615C81.36 44.9918 82.4207 43.8163 82.3522 42.4355C82.2814 41.0548 81.1107 40.0027 79.7251 40.0638C70.4457 40.5242 61.0394 39.8846 51.6721 38.1881V24.7115L73.0876 31.7095C73.5923 31.8739 74.1372 31.8738 74.6419 31.7095L96.0671 24.7083V38.1918ZM73.8647 10.1803L97.25 19.0564L73.8647 26.6971L50.4794 19.0564L73.8647 10.1803Z" fill="#663366"/>
</svg>
