<svg width="150" height="150" viewBox="0 0 150 150" fill="none" xmlns="http://www.w3.org/2000/svg">
<path d="M142.522 99.0766C139.293 91.5376 131.905 86.668 123.706 86.668C121.622 86.668 119.662 85.7486 118.328 84.148L112.259 76.8656C110.035 74.1986 106.768 72.668 103.294 72.668H96C94.712 72.668 93.6667 73.7133 93.6667 75.0013C93.6667 76.2893 94.712 77.3346 96 77.3346H103.294C105.378 77.3346 107.338 78.254 108.672 79.8546L114.741 87.137C116.965 89.804 120.232 91.3346 123.706 91.3346C129.035 91.3346 133.893 94.0203 136.794 98.3346H135.667C134.379 98.3346 133.333 99.38 133.333 100.668C133.333 101.956 134.379 103.001 135.667 103.001H139.008C139.876 105.626 140.333 108.352 140.333 111.142V117.001H120.582L116.608 111.04C116.174 110.391 115.446 110.001 114.667 110.001H103V105.335H107.667C108.955 105.335 110 104.289 110 103.001C110 101.713 108.955 100.668 107.667 100.668H103V96.0013H111.367L117.684 102.318C118.12 102.756 118.715 103.001 119.333 103.001H126.333C127.621 103.001 128.667 101.956 128.667 100.668C128.667 99.38 127.621 98.3346 126.333 98.3346H120.299L113.983 92.0183C113.547 91.5796 112.952 91.3346 112.333 91.3346H102.571C101.866 89.3583 100.31 87.802 98.3333 87.0973V84.3346C98.3333 83.0466 97.288 82.0013 96 82.0013C94.712 82.0013 93.6667 83.0466 93.6667 84.3346V86.668H89V75.0013C89 73.7133 87.9547 72.668 86.6667 72.668H73.3713C69.3323 72.668 65.4497 74.1566 62.4443 76.861L45.768 91.8713C44.48 93.031 42.8163 93.668 41.085 93.668H34.3533C26.9567 93.668 19.651 95.6093 13.2297 99.2773C8.15467 102.178 5 107.614 5 113.459V131.001C5 132.289 6.04533 133.335 7.33333 133.335H19.1937C20.309 139.947 26.0747 145.001 33 145.001C39.9253 145.001 45.691 139.947 46.8063 133.335H96.196C97.3113 139.947 103.077 145.001 110.002 145.001C117.723 145.001 124.002 138.722 124.002 131.001C124.002 129.713 122.957 128.668 121.669 128.668C120.381 128.668 119.336 129.713 119.336 131.001C119.336 136.149 115.15 140.335 110.002 140.335C104.855 140.335 100.669 136.149 100.669 131.001C100.669 129.713 99.6237 128.668 98.3357 128.668V118.905C100.312 118.201 101.868 116.644 102.573 114.668H113.421L117.394 120.63C117.826 121.278 118.554 121.668 119.333 121.668H140.333V128.668H131C129.712 128.668 128.667 129.713 128.667 131.001C128.667 132.289 129.712 133.335 131 133.335H142.667C143.955 133.335 145 132.289 145 131.001V111.142C145 106.97 144.167 102.91 142.522 99.0766ZM61.966 128.668L66.6327 124.001H77.3333C78.6213 124.001 79.6667 122.956 79.6667 121.668V119.335H84.3333V121.668C84.3333 122.956 85.3787 124.001 86.6667 124.001C87.9547 124.001 89 122.956 89 121.668V119.335H93.6667V128.668H61.966ZM96 114.668H77.3333C76.0477 114.668 75 113.62 75 112.335C75 111.047 73.9547 110.001 72.6667 110.001H51.6667C51.0483 110.001 50.4533 110.246 50.017 110.685L43.7007 117.001H28.3333C27.0453 117.001 26 118.047 26 119.335C26 120.623 27.0453 121.668 28.3333 121.668H44.6667C45.285 121.668 45.88 121.423 46.3163 120.984L52.6327 114.668H70.7323C71.4347 116.651 73.0143 118.219 75 118.924V119.335H65.6667C65.0483 119.335 64.4533 119.58 64.017 120.018L55.3673 128.668H44.6667C43.3787 128.668 42.3333 129.713 42.3333 131.001C42.3333 136.149 38.1473 140.335 33 140.335C27.8527 140.335 23.6667 136.149 23.6667 131.001C23.6667 129.713 22.6213 128.668 21.3333 128.668H9.66667V121.668H16.6667C17.9547 121.668 19 120.623 19 119.335C19 118.047 17.9547 117.001 16.6667 117.001H9.66667V113.459C9.66667 109.283 11.9183 105.402 15.5467 103.33C21.2633 100.061 27.7663 98.3346 34.3533 98.3346H41.085C43.9713 98.3346 46.7433 97.2706 48.89 95.3386L65.5663 80.3283C67.713 78.3986 70.485 77.3346 73.3713 77.3346H84.3333V86.668H79.6667V84.3346C79.6667 83.0466 78.6213 82.0013 77.3333 82.0013C76.0453 82.0013 75 83.0466 75 84.3346V87.0973C73.0237 87.802 71.4673 89.3583 70.7627 91.3346H65.6667C64.3787 91.3346 63.3333 92.38 63.3333 93.668C63.3333 94.956 64.3787 96.0013 65.6667 96.0013H70.3333V100.668H58.6667C57.3787 100.668 56.3333 101.713 56.3333 103.001C56.3333 104.289 57.3787 105.335 58.6667 105.335H72.6667C73.9547 105.335 75 104.289 75 103.001V93.668C75 92.3823 76.0477 91.3346 77.3333 91.3346H96C97.2857 91.3346 98.3333 92.3823 98.3333 93.668V112.335C98.3333 113.62 97.2857 114.668 96 114.668Z" fill="#663366"/>
<path d="M91.3327 96H81.9993C80.7113 96 79.666 97.0453 79.666 98.3333V107.667C79.666 108.955 80.7113 110 81.9993 110H91.3327C92.6207 110 93.666 108.955 93.666 107.667V98.3333C93.666 97.0453 92.6207 96 91.3327 96ZM88.9993 105.333H84.3327V100.667H88.9993V105.333Z" fill="#663366"/>
<path d="M42.3327 103H32.9993C31.7113 103 30.666 104.045 30.666 105.333C30.666 106.621 31.7113 107.667 32.9993 107.667H42.3327C43.6207 107.667 44.666 106.621 44.666 105.333C44.666 104.045 43.6207 103 42.3327 103Z" fill="#663366"/>
<path d="M11.9993 61H49.587C50.2497 61 50.8797 60.72 51.3207 60.2277L70.93 38.439C71.3733 37.949 72.0057 37.6667 72.666 37.6667H91.3327C92.6207 37.6667 93.666 36.6213 93.666 35.3333C93.666 34.0453 92.6207 33 91.3327 33H72.666C70.685 33 68.788 33.8447 67.4627 35.317L48.5487 56.3333H11.9993C10.7113 56.3333 9.66602 57.3787 9.66602 58.6667C9.66602 59.9547 10.7113 61 11.9993 61Z" fill="#663366"/>
<path d="M11.9993 70.3333H51.666C53.647 70.3333 55.544 69.4887 56.8693 68.0163L75.7833 47H102.999C104.868 47 106.628 46.272 107.948 44.949L123.999 28.898V35.3333C123.999 36.6213 125.045 37.6667 126.333 37.6667H135.666C136.954 37.6667 137.999 36.6213 137.999 35.3333V12C137.999 8.14067 134.859 5 130.999 5H107.666C106.378 5 105.333 6.04533 105.333 7.33333V16.6667C105.333 17.9547 106.378 19 107.666 19H114.099L99.4153 33.6837C98.503 34.596 98.503 36.0707 99.4153 36.983C100.328 37.8953 101.802 37.8953 102.715 36.983L121.381 18.3163C122.049 17.649 122.249 16.6457 121.888 15.773C121.528 14.9027 120.677 14.3333 119.734 14.3333H109.999V9.66667H130.999C132.285 9.66667 133.333 10.7143 133.333 12V33H128.666V23.2653C128.666 22.3227 128.097 21.471 127.226 21.1093C126.351 20.7477 125.35 20.946 124.683 21.6157L104.649 41.6497C104.215 42.0837 103.613 42.3333 102.999 42.3333H74.745C74.0823 42.3333 73.4523 42.6133 73.0113 43.1057L53.402 64.8943C52.9587 65.3843 52.3263 65.6667 51.666 65.6667H11.9993C10.7113 65.6667 9.66602 66.712 9.66602 68C9.66602 69.288 10.7113 70.3333 11.9993 70.3333Z" fill="#663366"/>
<path d="M11.9993 49.3346H30.666C31.954 49.3346 32.9994 48.2893 32.9994 47.0013V28.3346H37.666V47.0013C37.666 48.2893 38.7114 49.3346 39.9994 49.3346C41.2874 49.3346 42.3327 48.2893 42.3327 47.0013V26.0013C42.3327 24.7133 41.2874 23.668 39.9994 23.668H30.666C29.378 23.668 28.3327 24.7133 28.3327 26.0013V30.668H21.3327C20.0447 30.668 18.9993 31.7133 18.9993 33.0013V35.3346H11.9993C10.7113 35.3346 9.66602 36.38 9.66602 37.668V47.0013C9.66602 48.2893 10.7113 49.3346 11.9993 49.3346ZM23.666 35.3346H28.3327V44.668H23.666V35.3346ZM14.3327 40.0013H18.9993V44.668H14.3327V40.0013Z" fill="#663366"/>
<path d="M79.6673 54C78.3793 54 77.334 55.0453 77.334 56.3333V65.6667C77.334 66.9547 78.3793 68 79.6673 68H89.0007C90.2887 68 91.334 66.9547 91.334 65.6667V56.3333C91.334 55.0453 90.2887 54 89.0007 54H79.6673ZM86.6673 63.3333H82.0007V58.6667H86.6673V63.3333Z" fill="#663366"/>
<path d="M98.3333 54C97.0453 54 96 55.0453 96 56.3333V65.6667C96 66.9547 97.0453 68 98.3333 68H107.667C108.955 68 110 66.9547 110 65.6667V56.3333C110 55.0453 108.955 54 107.667 54H98.3333ZM105.333 63.3333H100.667V58.6667H105.333V63.3333Z" fill="#663366"/>
<path d="M116.999 54C115.711 54 114.666 55.0453 114.666 56.3333V65.6667C114.666 66.9547 115.711 68 116.999 68H126.333C127.621 68 128.666 66.9547 128.666 65.6667V56.3333C128.666 55.0453 127.621 54 126.333 54H116.999ZM123.999 63.3333H119.333V58.6667H123.999V63.3333Z" fill="#663366"/>
</svg>
