<svg width="150" height="150" viewBox="0 0 150 150" fill="none" xmlns="http://www.w3.org/2000/svg">
<path fill-rule="evenodd" clip-rule="evenodd" d="M23.0094 65.7968C22.4664 56.7144 19.8633 53.2988 17.8819 49.7934C16.3117 47.0154 15.0655 44.1919 15.0655 39.2938C15.0655 27.1552 24.9062 17.3144 37.0449 17.3144C49.1835 17.3144 59.0243 27.1552 59.0243 39.2938C59.0243 40.9849 58.8758 42.4284 58.6167 43.7084H81.3001C82.5465 43.7084 83.5581 44.72 83.5581 45.9665C83.5581 47.2127 82.5465 48.2246 81.3001 48.2246H57.0448C56.7811 48.7578 56.5 49.2763 56.2079 49.7934C55.1793 51.6129 53.9834 53.4083 52.9949 55.9845H85.9599C88.1615 53.3911 90.3635 50.7977 92.5651 48.206C93.1691 47.491 93.9629 47.1368 94.8754 47.1368C95.8142 47.1368 96.6079 47.5054 97.1967 48.2187C99.8505 51.3427 102.504 54.4696 105.154 57.59C105.154 51.7179 105.154 46.1384 105.154 43.674H96.0129C94.7659 43.674 93.7548 42.6629 93.7548 41.4159V32.2749H70.2783C69.0321 32.2749 68.0202 31.2629 68.0202 30.0168C68.0202 28.7703 69.0321 27.7587 70.2783 27.7587H96.0129C96.6119 27.7587 97.1863 27.9966 97.6097 28.42L109.009 39.8191C109.432 40.2428 109.67 40.8169 109.67 41.4159V48.7564C112.786 45.0861 118.088 38.84 118.088 38.84C118.674 38.1436 119.468 37.7677 120.401 37.7677C121.308 37.7677 122.102 38.1292 122.701 38.8242C122.704 38.8284 122.708 38.8323 122.711 38.8363L133.35 51.3695C134.128 52.2841 134.293 53.508 133.79 54.598C133.282 55.7056 132.248 56.3625 131.042 56.3625H128.343V89.2961C128.343 91.3897 126.63 93.0976 124.537 93.0976H123.302C123.718 94.9846 123.938 96.9454 123.938 98.9577C123.938 104.037 122.539 108.789 120.105 112.849L125.215 117.812C126.814 117.187 128.71 117.5 130.014 118.763L130.016 118.765L143.634 131.981C145.413 133.703 145.465 136.569 143.728 138.362L143.726 138.364L138.812 143.427L138.81 143.428C137.089 145.204 134.228 145.253 132.437 143.533C132.435 143.531 132.431 143.528 132.429 143.525L118.818 130.31C117.505 129.043 117.132 127.156 117.711 125.539L112.839 120.811C108.365 124.083 102.848 126.015 96.8803 126.015C92.7856 126.015 88.9033 125.106 85.4245 123.478H37.0415C35.7945 123.478 34.7834 122.467 34.7834 121.22V87.2173C31.8688 87.121 29.4995 84.693 29.4995 81.7567V80.3544C27.5699 79.5096 26.2148 77.58 26.2148 75.3459V73.9084C24.3276 73.0458 23.0094 71.1386 23.0094 68.9352V65.7968ZM51.7216 60.5007C51.4218 62.043 51.1966 63.808 51.0764 65.862L51.0741 68.2753C51.1816 68.2595 51.2917 68.2513 51.4038 68.2513H57.9743L64.556 60.5007H51.7216ZM46.5582 67.988H27.5256V68.9352C27.5256 69.4568 27.9515 69.8825 28.4729 69.8825H45.6166C46.1351 69.8825 46.5574 69.4554 46.5574 68.9341L46.5582 67.988ZM82.1245 60.5007H74.1535L82.3052 70.1001C82.3097 70.1055 82.3142 70.1108 82.3187 70.1162C83.0871 71.0381 83.2516 72.2301 82.7523 73.325C82.75 73.3295 82.7481 73.334 82.7458 73.3388C82.2428 74.4224 81.1953 75.0961 79.9954 75.0961H77.2967V80.2861C79.9779 77.4745 83.2584 75.2398 86.9334 73.7867C86.9334 71.0488 86.9334 65.7268 86.9334 65.7268H84.2347C83.0303 65.7268 82.0003 65.068 81.4928 63.9821C80.9709 62.8728 81.1485 61.6481 81.9253 60.7353C81.9916 60.6571 82.0582 60.5789 82.1245 60.5007ZM105.154 65.7268H102.817V72.5535C103.61 72.7308 104.39 72.9431 105.154 73.1883C105.154 71.2582 105.154 68.6343 105.154 65.7268ZM98.3012 71.9368V63.4687C98.3012 62.2216 99.3123 61.2106 100.559 61.2106H102.304C99.828 58.2948 97.3517 55.3774 94.8754 52.4619C92.3994 55.3774 89.9231 58.2948 87.4469 61.2106H89.1915C90.4385 61.2106 91.4496 62.2216 91.4496 63.4687V72.4451C93.2041 72.0878 95.0202 71.9001 96.8803 71.9001C97.3568 71.9001 97.8307 71.9125 98.3012 71.9368ZM101.961 39.1578L98.271 35.4681V39.1578H101.961ZM109.67 56.3613V75.1074C110.635 75.6257 111.564 76.2006 112.454 76.8281V56.3625H109.76C109.73 56.3625 109.7 56.3619 109.67 56.3613ZM121.877 88.5815H123.827V54.1044C123.827 52.8573 124.838 51.8463 126.085 51.8463H127.831C125.607 49.2269 122.163 45.1697 120.401 43.0936L112.971 51.8463H114.712C115.959 51.8463 116.97 52.8573 116.97 54.1044V80.832C119.018 83.0997 120.687 85.7162 121.877 88.5815ZM117.437 116.553C117.059 116.994 116.667 117.423 116.262 117.839L120.57 122.02L121.781 120.772L117.437 116.553ZM78.6598 118.962C75.8171 116.371 73.5291 113.183 71.9939 109.596H51.4038C50.1573 109.596 49.1457 108.584 49.1457 107.338C49.1457 106.091 50.1573 105.08 51.4038 105.08H70.5182C70.0632 103.112 69.8227 101.063 69.8227 98.9577C69.8227 98.4075 69.8391 97.8614 69.8716 97.3197H51.4038C50.1573 97.3197 49.1457 96.3078 49.1457 95.0616C49.1457 93.8151 50.1573 92.8035 51.4038 92.8035H63.7485C62.3781 92.2283 61.4128 90.8726 61.4128 89.2961V85.0436H51.4038C50.1573 85.0436 49.1457 84.0317 49.1457 82.7855C49.1457 81.539 50.1573 80.5274 51.4038 80.5274H61.4128V75.0961H58.7141C57.5142 75.0961 56.4667 74.4224 55.9634 73.3388C55.9615 73.334 55.9592 73.3295 55.9572 73.325C55.8734 73.1412 55.8082 72.9549 55.7616 72.7675H51.4038C50.8522 72.7675 50.3467 72.5693 49.9544 72.2405C49.4107 72.9529 48.6966 73.529 47.8747 73.9058V75.3459C47.8747 77.5809 46.5128 79.511 44.5835 80.3552V81.7567C44.5835 84.6964 42.2184 87.1247 39.2996 87.2173V118.962H78.6598ZM71.8835 88.5815C72.1576 87.9218 72.4571 87.2752 72.7806 86.6432V72.8381C72.7806 71.5907 73.7916 70.58 75.0387 70.58H76.7878C74.5645 67.9617 71.118 63.9031 69.3548 61.8268C67.5855 63.9101 64.1394 67.9682 61.9214 70.58H63.6709C64.9179 70.58 65.929 71.5907 65.929 72.8381V88.5815H71.8835ZM34.0156 80.8094V81.7567C34.0156 82.2763 34.4436 82.7039 34.9629 82.7039H39.1268C39.6451 82.7039 40.0673 82.2749 40.0673 81.7567V80.8094H34.0156ZM30.731 74.3987V75.3459C30.731 75.8676 31.1569 76.2932 31.6782 76.2932H42.4112C42.9309 76.2932 43.3585 75.8676 43.3585 75.3459V74.3987H30.731ZM42.7065 63.4718H46.7332C47.4377 56.2885 49.3749 52.5742 51.1949 49.4341C52.878 46.5302 54.5081 44.2278 54.5081 39.2938C54.5081 29.6493 46.6895 21.8306 37.0449 21.8306C27.4003 21.8306 19.5816 29.6493 19.5816 39.2938C19.5816 44.2278 21.2117 46.5302 22.8948 49.4341C24.7149 52.5742 26.6517 56.2885 27.3565 63.4718H31.3833V46.2776H29.0546C25.2952 46.2776 22.2166 43.1986 22.2166 39.4392C22.2166 35.6707 25.296 32.5947 29.0546 32.5947C32.8222 32.5947 35.8995 35.6719 35.8995 39.4392V41.7614H38.1903V39.4392C38.1903 35.6719 41.2675 32.5947 45.0351 32.5947C48.7937 32.5947 51.8732 35.6707 51.8732 39.4392C51.8732 43.1986 48.7946 46.2776 45.0351 46.2776H42.7065V63.4718ZM35.8995 63.4718H38.1903V46.2776H35.8995V63.4718ZM31.3833 41.7614V39.4392C31.3833 38.1575 30.3364 37.1108 29.0546 37.1108C27.7771 37.1108 26.7327 38.1586 26.7327 39.4392C26.7327 40.7159 27.778 41.7614 29.0546 41.7614H31.3833ZM42.7065 41.7614H45.0351C46.3118 41.7614 47.357 40.7159 47.357 39.4392C47.357 38.1586 46.3126 37.1108 45.0351 37.1108C43.7534 37.1108 42.7065 38.1575 42.7065 39.4392V41.7614ZM135.566 140.276C135.569 140.279 122.114 127.215 121.963 127.068L126.874 122.009L140.491 135.224C140.489 135.221 140.485 135.219 140.484 135.22L135.57 140.283L135.568 140.285C135.565 140.287 135.568 140.279 135.566 140.276ZM96.8803 76.4163C84.4301 76.4163 74.3389 86.5074 74.3389 98.9577C74.3389 111.408 84.4301 121.499 96.8803 121.499C109.331 121.499 119.421 111.408 119.421 98.9577C119.421 86.5074 109.331 76.4163 96.8803 76.4163ZM96.8803 78.8259C107.999 78.8259 117.012 87.8388 117.012 98.9577C117.012 110.076 107.999 119.089 96.8803 119.089C85.7615 119.089 76.7486 110.076 76.7486 98.9577C76.7486 87.8388 85.7615 78.8259 96.8803 78.8259ZM96.8803 83.3421C88.2558 83.3421 81.2648 90.3332 81.2648 98.9577C81.2648 107.582 88.2558 114.573 96.8803 114.573C105.505 114.573 112.496 107.582 112.496 98.9577C112.496 90.3332 105.505 83.3421 96.8803 83.3421ZM39.303 12.9041C39.303 14.1506 38.2911 15.1622 37.0449 15.1622C35.7987 15.1622 34.7868 14.1506 34.7868 12.9041V8.25809C34.7868 7.01191 35.7987 6 37.0449 6C38.2911 6 39.303 7.01191 39.303 8.25809V12.9041ZM24.1244 15.7617C24.7467 16.8417 24.3753 18.2236 23.2956 18.8457C22.2157 19.4681 20.834 19.0966 20.2117 18.017L17.8917 13.9922C17.2696 12.9123 17.6408 11.5303 18.7208 10.9082C19.8004 10.2859 21.1824 10.6573 21.8047 11.737L24.1244 15.7617ZM12.4131 25.826C13.4919 26.4495 13.8616 27.8321 13.2381 28.9111C12.6143 29.9899 11.2321 30.3597 10.153 29.7359L6.12823 27.4098C5.04914 26.786 4.67938 25.4038 5.30318 24.3247C5.92669 23.2456 7.30921 22.8761 8.38801 23.4996L12.4131 25.826ZM53.8702 18.0195C53.2464 19.0983 51.8642 19.4681 50.7851 18.8443C49.706 18.2208 49.3365 16.8385 49.96 15.7595L52.2864 11.7344C52.9102 10.6556 54.2924 10.2859 55.3715 10.9097C56.4503 11.5332 56.8201 12.9154 56.1966 13.9945L53.8702 18.0195ZM63.9382 29.7353C62.8596 30.3597 61.4768 29.9911 60.8525 28.9126C60.2281 27.8338 60.5968 26.4512 61.6753 25.8269L65.6935 23.5005C66.7721 22.8761 68.1549 23.2448 68.7792 24.3233C69.4036 25.4018 69.035 26.7846 67.9564 27.409L63.9382 29.7353Z" fill="#663366"/>
</svg>
