<svg width="150" height="150" viewBox="0 0 150 150" fill="none" xmlns="http://www.w3.org/2000/svg">
<path fill-rule="evenodd" clip-rule="evenodd" d="M10.8814 33.7237C7.48613 32.7437 5 29.6109 5 25.902C5 21.4099 8.64706 17.7625 13.1395 17.7625C17.6316 17.7625 21.2787 21.4099 21.2787 25.902C21.2787 29.6109 18.7925 32.7437 15.3975 33.7237V48.3023L35.9739 48.4118V45.246C35.9739 40.5396 39.7948 36.7184 44.5012 36.7184H49.6385L49.4994 16.3975H38.0434C37.0637 19.7928 33.9309 22.2787 30.222 22.2787C25.7296 22.2787 22.0825 18.6316 22.0825 14.1395C22.0825 9.64706 25.7296 6 30.222 6C33.9309 6 37.0637 8.48613 38.0434 11.8814H51.7422C52.9833 11.8814 53.9915 12.8829 54 14.124L54.155 36.7184H65.7188L65.6855 14.1429C65.6838 12.8964 66.694 11.8831 67.9402 11.8814C69.1866 11.8794 70.1999 12.8899 70.2016 14.1361L70.2349 36.7184H79.8317L79.7984 14.1429C79.7967 12.8964 80.8069 11.8831 82.0531 11.8814C83.2995 11.8794 84.3128 12.8899 84.3145 14.1361L84.3478 36.7184H95.9114L95.9997 14.1307C96.0048 12.8868 97.0141 11.8814 98.2578 11.8814H111.957C112.936 8.48613 116.069 6 119.778 6C124.27 6 127.917 9.64706 127.917 14.1395C127.917 18.6316 124.27 22.2787 119.778 22.2787C116.069 22.2787 112.936 19.7928 111.957 16.3975C108.245 16.3975 100.507 16.3975 100.507 16.3975L100.427 36.7184H105.499C110.205 36.7184 114.026 40.5396 114.026 45.246V48.4118L134.602 48.3023V33.7237C131.207 32.7437 128.721 29.6109 128.721 25.902C128.721 21.4099 132.368 17.7625 136.861 17.7625C141.353 17.7625 145 21.4099 145 25.902C145 29.6109 142.514 32.7437 139.119 33.7237V50.5482C139.119 51.7907 138.115 52.7998 136.873 52.8063L114.026 52.9279V64.4918H136.861C138.107 64.4918 139.119 65.5034 139.119 66.7498C139.119 67.996 138.107 69.0079 136.861 69.0079H114.026V78.6047H136.861C138.107 78.6047 139.119 79.6163 139.119 80.8628C139.119 82.1089 138.107 83.1208 136.861 83.1208H114.026V94.6844L136.873 94.806C138.115 94.8128 139.119 95.8219 139.119 97.0641V113.889C142.514 114.869 145 118.001 145 121.711C145 126.203 141.353 129.85 136.861 129.85C132.368 129.85 128.721 126.203 128.721 121.711C128.721 118.001 131.207 114.869 134.602 113.889C134.602 109.507 134.602 99.3103 134.602 99.3103L114.026 99.2005V102.367C114.026 107.073 110.205 110.894 105.499 110.894H100.393C100.424 117.016 100.505 133.409 100.505 133.409H111.779C112.488 129.637 115.802 126.78 119.778 126.78C124.27 126.78 127.917 130.427 127.917 134.919C127.917 139.412 124.27 143.059 119.778 143.059C116.347 143.059 113.409 140.932 112.213 137.925H98.2578C97.0153 137.925 96.0059 136.921 95.9997 135.678L95.8772 110.894H84.3145V135.667C84.3145 136.913 83.3026 137.925 82.0565 137.925C80.8103 137.925 79.7984 136.913 79.7984 135.667V110.894H70.2016V135.667C70.2016 136.913 69.1897 137.925 67.9435 137.925C66.6974 137.925 65.6855 136.913 65.6855 135.667V110.894H54.1228L54.0003 135.678C53.9941 136.921 52.9847 137.925 51.7422 137.925H38.0434C37.0637 141.32 33.9309 143.806 30.222 143.806C25.7296 143.806 22.0825 140.159 22.0825 135.667C22.0825 131.175 25.7296 127.528 30.222 127.528C33.9309 127.528 37.0637 130.013 38.0434 133.409H49.4952L49.6067 110.894H44.5012C39.7948 110.894 35.9739 107.073 35.9739 102.367V99.2005L15.3975 99.3103V113.889C18.7925 114.869 21.2787 118.001 21.2787 121.711C21.2787 126.203 17.6316 129.85 13.1395 129.85C8.64706 129.85 5 126.203 5 121.711C5 118.001 7.48613 114.869 10.8814 113.889V97.0641C10.8814 95.8219 11.8848 94.8128 13.1273 94.806L35.9739 94.6844V83.1208H13.1395C11.893 83.1208 10.8814 82.1089 10.8814 80.8628C10.8814 79.6163 11.893 78.6047 13.1395 78.6047H35.9739V69.0079H13.1395C11.893 69.0079 10.8814 67.996 10.8814 66.7498C10.8814 65.5034 11.893 64.4918 13.1395 64.4918H35.9739V52.9279L13.1273 52.8063C11.8848 52.7998 10.8814 51.7907 10.8814 50.5482V33.7237ZM13.1395 118.087C11.1397 118.087 9.51613 119.711 9.51613 121.711C9.51613 123.71 11.1397 125.334 13.1395 125.334C15.139 125.334 16.7625 123.71 16.7625 121.711C16.7625 119.711 15.139 118.087 13.1395 118.087ZM30.222 132.044C28.2222 132.044 26.5987 133.667 26.5987 135.667C26.5987 137.667 28.2222 139.29 30.222 139.29C32.2215 139.29 33.8451 137.667 33.8451 135.667C33.8451 133.667 32.2215 132.044 30.222 132.044ZM13.1395 22.2787C11.1397 22.2787 9.51613 23.9022 9.51613 25.902C9.51613 27.9018 11.1397 29.5254 13.1395 29.5254C15.139 29.5254 16.7625 27.9018 16.7625 25.902C16.7625 23.9022 15.139 22.2787 13.1395 22.2787ZM109.51 45.246C109.51 43.032 107.713 41.2346 105.499 41.2346H44.5012C42.2874 41.2346 40.49 43.032 40.49 45.246V102.367C40.49 104.58 42.2874 106.378 44.5012 106.378H105.499C107.713 106.378 109.51 104.58 109.51 102.367V45.246ZM51.2663 66.5875L43.384 64.4923C42.3947 64.2293 41.706 63.3334 41.706 62.3096C41.7063 61.2859 42.395 60.3903 43.3846 60.1275L73.6008 52.1026C73.9808 52.0016 74.3802 52.0016 74.7601 52.1026L104.976 60.1275C105.966 60.3903 106.655 61.2859 106.655 62.3096C106.655 63.3334 105.966 64.2293 104.977 64.4923L104.823 64.5333V81.3965L107.167 82.7542C107.865 83.1578 108.294 83.9024 108.294 84.7082V95.2994C108.294 96.1552 107.81 96.9376 107.044 97.3198C106.278 97.702 105.363 97.6184 104.679 97.1042L102.565 95.5142L100.451 97.1042C99.767 97.6184 98.8511 97.702 98.0853 97.3198C97.3196 96.9376 96.8355 96.1552 96.8355 95.2994V84.7082C96.8355 83.9024 97.2648 83.1578 97.9623 82.7542L100.307 81.3965V65.7337L97.0943 66.5875V81.3564C97.0943 82.4468 96.3153 83.3813 95.2427 83.5778C70.1042 88.1758 78.2567 88.1758 53.1182 83.5778C52.0456 83.3813 51.2663 82.4468 51.2663 81.3564V66.5875ZM92.5782 67.7883L74.7606 72.5246C74.3804 72.6256 73.9805 72.6256 73.6003 72.5246L55.7825 67.7883V79.4769C77.1116 83.442 71.2494 83.442 92.5782 79.4769V67.7883ZM74.1803 56.6213L52.7572 62.3111L74.1803 68.0059L95.6037 62.3111L74.1803 56.6213ZM101.352 90.7841C102.091 90.3128 103.039 90.3128 103.778 90.7841V86.01L102.565 85.3075L101.352 86.01V90.7841ZM119.778 10.5161C117.778 10.5161 116.155 12.1397 116.155 14.1395C116.155 16.1393 117.778 17.7625 119.778 17.7625C121.778 17.7625 123.401 16.1393 123.401 14.1395C123.401 12.1397 121.778 10.5161 119.778 10.5161ZM30.222 10.5161C28.2222 10.5161 26.5987 12.1397 26.5987 14.1395C26.5987 16.1393 28.2222 17.7625 30.222 17.7625C32.2215 17.7625 33.8451 16.1393 33.8451 14.1395C33.8451 12.1397 32.2215 10.5161 30.222 10.5161ZM119.778 131.296C117.778 131.296 116.155 132.92 116.155 134.919C116.155 136.919 117.778 138.543 119.778 138.543C121.778 138.543 123.401 136.919 123.401 134.919C123.401 132.92 121.778 131.296 119.778 131.296ZM136.861 22.2787C134.861 22.2787 133.237 23.9022 133.237 25.902C133.237 27.9018 134.861 29.5254 136.861 29.5254C138.86 29.5254 140.484 27.9018 140.484 25.902C140.484 23.9022 138.86 22.2787 136.861 22.2787ZM136.861 118.087C134.861 118.087 133.237 119.711 133.237 121.711C133.237 123.71 134.861 125.334 136.861 125.334C138.86 125.334 140.484 123.71 140.484 121.711C140.484 119.711 138.86 118.087 136.861 118.087Z" fill="#663366"/>
</svg>
