<svg width="150" height="150" viewBox="0 0 150 150" fill="none" xmlns="http://www.w3.org/2000/svg">
<path d="M141.694 122.445V111.421C141.694 107.937 140.327 104.652 137.88 102.205C137.152 101.478 136.38 100.882 135.521 100.353L125.313 78.4824C123.24 74.0288 118.743 71.1627 113.826 71.1627L72.7301 71.1406C67.8135 71.1406 63.3159 74.0288 61.2434 78.4824L51.0576 100.375C47.3316 102.668 44.8403 106.769 44.8403 111.465V122.467C42.9222 123.15 41.5332 124.98 41.5332 127.119V132.211C41.5332 134.372 42.9222 136.18 44.8403 136.863V138.936C44.8403 142.287 47.5521 144.999 50.9033 144.999H62.0812C65.4324 144.999 68.1442 142.287 68.1442 138.936V137.15H118.368V138.936C118.368 142.287 121.08 144.999 124.431 144.999H135.609C138.96 144.999 141.672 142.287 141.672 138.936V136.863C143.59 136.18 144.979 134.35 144.979 132.211V127.119C145.001 124.958 143.612 123.128 141.694 122.445ZM64.1537 98.391L71.2749 83.1123C71.5395 82.5391 72.1348 82.1642 72.7741 82.1642L113.848 82.1863C114.488 82.1863 115.083 82.5611 115.347 83.1343L122.469 98.391H64.1537ZM55.5332 98.6115L64.2419 79.8713C65.7631 76.5863 69.1143 74.4477 72.7301 74.4477L113.826 74.4698C117.442 74.4698 120.793 76.5863 122.314 79.8713L131.045 98.6115C130.251 98.4572 129.458 98.391 128.642 98.391H126.084L118.302 81.7233C117.508 79.9816 115.722 78.8572 113.804 78.8572L72.7301 78.8351C70.7899 78.8351 69.0261 79.9595 68.2324 81.7013L60.4718 98.369H57.8923C57.6938 98.369 57.5175 98.4131 57.319 98.4131C56.8781 98.4351 56.4592 98.4792 56.0182 98.5233C55.886 98.5894 55.7096 98.5674 55.5332 98.6115ZM57.8923 101.72L96.8056 101.698H128.642C128.818 101.698 128.995 101.72 129.171 101.742C129.502 101.764 129.832 101.786 130.163 101.83C130.406 101.874 130.648 101.919 130.891 101.963C131.265 102.051 131.64 102.161 132.015 102.315C132.258 102.404 132.5 102.514 132.743 102.624C133.757 103.087 134.705 103.726 135.521 104.542C137.351 106.372 138.365 108.819 138.365 111.421V122.114L87.8324 122.136H48.1474V111.443C48.1694 106.086 52.5348 101.72 57.8923 101.72ZM64.8592 138.936C64.8592 140.457 63.6245 141.692 62.1033 141.692H50.9253C49.4041 141.692 48.1694 140.457 48.1694 138.936V137.15H64.8592V138.936ZM138.387 138.936C138.387 140.457 137.152 141.692 135.631 141.692H124.453C122.932 141.692 121.697 140.457 121.697 138.936V137.15H138.387V138.936ZM141.694 132.189C141.694 133.093 140.944 133.843 140.04 133.843H120.043H66.5127H46.5159C45.6119 133.843 44.8623 133.093 44.8623 132.189V127.097C44.8623 126.193 45.5899 125.465 46.4938 125.443H46.5159L87.656 125.421H140.04C140.944 125.421 141.694 126.171 141.694 127.074V132.189Z" fill="#663366"/>
<path d="M59.9419 118.833C63.7561 118.833 66.8427 115.746 66.8427 111.932C66.8427 108.118 63.7561 105.031 59.9419 105.031C56.1277 105.031 53.0411 108.118 53.0411 111.932C53.0191 115.746 56.1277 118.833 59.9419 118.833ZM59.9419 108.338C61.9262 108.338 63.5356 109.948 63.5356 111.932C63.5356 113.916 61.9262 115.526 59.9419 115.526C57.9577 115.526 56.3482 113.916 56.3482 111.932C56.3262 109.948 57.9577 108.338 59.9419 108.338Z" fill="#663366"/>
<path d="M126.634 118.833C130.448 118.833 133.535 115.746 133.535 111.932C133.535 108.118 130.448 105.031 126.634 105.031C122.82 105.031 119.734 108.118 119.734 111.932C119.711 115.746 122.82 118.833 126.634 118.833ZM126.634 108.338C128.619 108.338 130.228 109.948 130.228 111.932C130.228 113.916 128.619 115.526 126.634 115.526C124.65 115.526 123.041 113.916 123.041 111.932C123.019 109.948 124.65 108.338 126.634 108.338Z" fill="#663366"/>
<path d="M80.3567 110.389H106.196C107.1 110.389 107.85 109.64 107.85 108.736C107.85 107.832 107.1 107.082 106.196 107.082H80.3567C79.4527 107.082 78.7031 107.832 78.7031 108.736C78.7031 109.64 79.4527 110.389 80.3567 110.389Z" fill="#663366"/>
<path d="M74.1174 116.78H112.458C113.362 116.78 114.111 116.03 114.111 115.126C114.111 114.222 113.362 113.473 112.458 113.473H74.1174C73.2135 113.473 72.4639 114.222 72.4639 115.126C72.4639 116.03 73.1914 116.78 74.1174 116.78Z" fill="#663366"/>
<path d="M59.148 62.4772C63.4693 62.4772 66.9969 58.9496 66.9969 54.6284V50.6598L91.4472 31.3465L111.29 43.8913L105.205 50.9465C104.323 51.9827 103.882 53.2835 103.992 54.6504C104.102 55.9953 104.72 57.2299 105.756 58.1118L105.8 58.1559L99.6929 65.2331C99.0976 65.9165 99.1638 66.9748 99.8693 67.5701C100.178 67.8346 100.575 67.9669 100.95 67.9669C101.413 67.9669 101.876 67.7685 102.206 67.3937L108.313 60.2945L108.357 60.3386C109.283 61.1543 110.452 61.5953 111.687 61.5953C111.819 61.5953 111.929 61.5953 112.061 61.5732C113.406 61.485 114.641 60.8457 115.523 59.8315L123.504 50.6378C128.112 50.0646 131.683 46.1622 131.683 41.4C131.683 36.8362 128.376 33.022 124.033 32.2283L103.463 13.7528C101.743 8.68189 96.937 5 91.2929 5C85.6709 5 80.8866 8.6378 79.1449 13.6866L66.4016 24.0047C65.2331 21.1606 62.4331 19.1323 59.148 19.1323H37.9606C33.6394 19.1323 30.1118 22.6598 30.1118 26.9811C30.1118 29.4724 28.0835 31.5228 25.5701 31.5228H18.6913V16.9055C18.6913 12.3417 14.9874 8.6378 10.4236 8.6378H8.30709V6.65354C8.30709 5.74961 7.55748 5 6.65354 5C5.74961 5 5 5.74961 5 6.65354V10.2913V71.3181V74.9559C5 75.8598 5.74961 76.6095 6.65354 76.6095C7.55748 76.6095 8.30709 75.8598 8.30709 74.9559V72.9717H10.4236C14.9874 72.9717 18.6913 69.2677 18.6913 64.7039V62.4772H59.148ZM66.9969 46.4488V27.7748L78.4835 18.4929C78.4835 18.537 78.5055 18.5811 78.5055 18.6252C78.5937 19.9039 78.8583 21.1165 79.2772 22.285C79.2992 22.3732 79.3433 22.4394 79.3654 22.5276C79.5858 23.0787 79.8284 23.6299 80.137 24.137C80.1811 24.2032 80.2252 24.2693 80.2693 24.3575C80.5339 24.8205 80.8425 25.2614 81.1732 25.6803C81.2394 25.7465 81.2835 25.8346 81.3276 25.9008C81.6803 26.3417 82.0551 26.7386 82.452 27.1354C82.5622 27.2457 82.6724 27.3339 82.7827 27.4441C83.1575 27.7748 83.5323 28.0835 83.9291 28.3701C84.0173 28.4362 84.1055 28.5024 84.1937 28.5685C84.6126 28.8551 85.0756 29.0976 85.5386 29.3402C85.715 29.4283 85.8693 29.5165 86.0457 29.5827C86.5307 29.8032 87.0158 30.0016 87.5228 30.1559C87.5669 30.178 87.611 30.2 87.6331 30.2L66.9969 46.4488ZM113.054 57.6929C112.745 58.0457 112.326 58.2661 111.863 58.2882C111.378 58.3102 110.915 58.178 110.562 57.8472L107.939 55.5984C107.586 55.2898 107.365 54.8488 107.321 54.3858C107.277 53.9228 107.431 53.4598 107.74 53.085L114.068 45.7433C114.134 45.8756 114.244 46.0079 114.332 46.1402C114.487 46.4268 114.663 46.6913 114.861 46.9339C115.038 47.1543 115.214 47.3748 115.413 47.5953C115.611 47.8158 115.832 48.0362 116.052 48.2567C116.272 48.4551 116.493 48.6315 116.713 48.8079C116.956 49.0063 117.22 49.1827 117.485 49.337C117.728 49.4913 117.97 49.6016 118.213 49.7339C118.499 49.8882 118.786 49.9984 119.094 50.1307C119.205 50.1748 119.315 50.2409 119.425 50.263L113.054 57.6929ZM128.376 41.4C128.376 44.685 125.731 47.3748 122.446 47.4409C122.402 47.4409 122.357 47.4409 122.313 47.4409C122.247 47.4409 122.181 47.4189 122.115 47.4189C121.828 47.4189 121.542 47.3748 121.277 47.3307C121.145 47.3087 120.991 47.2646 120.858 47.2425C120.638 47.1984 120.439 47.1323 120.219 47.0441C120.087 47 119.976 46.9559 119.844 46.9118C119.535 46.7795 119.249 46.6252 118.984 46.4488C118.918 46.4047 118.852 46.3386 118.764 46.2724C118.565 46.1181 118.367 45.9638 118.169 45.7874C118.08 45.6992 117.992 45.611 117.904 45.5008C117.75 45.3244 117.595 45.148 117.463 44.9717C117.397 44.8835 117.309 44.7732 117.243 44.663C117.044 44.3764 116.89 44.0677 116.757 43.7591C116.449 42.9874 116.272 42.1937 116.272 41.4C116.272 40.9591 116.317 40.5402 116.405 40.1213C116.427 40.0331 116.449 39.9669 116.471 39.8787C116.559 39.548 116.647 39.2394 116.802 38.9307C116.846 38.8425 116.89 38.7764 116.934 38.6882C117.088 38.4016 117.243 38.115 117.419 37.8724C117.485 37.7843 117.551 37.6961 117.617 37.6299C117.794 37.4094 117.992 37.189 118.191 36.9906C118.301 36.8803 118.433 36.7921 118.543 36.7039C118.72 36.5496 118.918 36.4173 119.117 36.285C119.293 36.1748 119.469 36.0866 119.646 35.9984C119.8 35.9102 119.976 35.8441 120.153 35.778C120.373 35.6898 120.594 35.6236 120.814 35.5795C120.991 35.5354 121.145 35.4913 121.321 35.4693C121.542 35.4252 121.762 35.4252 121.983 35.4032C122.247 35.4032 122.534 35.4032 122.82 35.4252C125.951 35.6898 128.376 38.2472 128.376 41.4ZM119.072 32.6693C118.852 32.7575 118.632 32.8457 118.411 32.9339C118.102 33.0882 117.794 33.2425 117.507 33.4189C117.331 33.5291 117.154 33.6173 117 33.7276C116.581 34.0362 116.162 34.3669 115.787 34.7197C115.677 34.8299 115.589 34.9402 115.479 35.0504C115.214 35.337 114.95 35.6457 114.729 35.9543C114.619 36.1087 114.509 36.285 114.398 36.4394C114.2 36.748 114.024 37.0787 113.869 37.4095C113.781 37.5858 113.715 37.7402 113.627 37.9165C113.45 38.3575 113.318 38.7984 113.208 39.2614C113.186 39.3496 113.142 39.4378 113.142 39.526C113.054 40.011 112.987 40.5181 112.965 41.0252L95.4819 29.9795C95.5921 29.9354 95.7024 29.8693 95.8126 29.8252C96.1654 29.6929 96.5181 29.5386 96.8709 29.3622C97.0252 29.2961 97.1795 29.2299 97.3118 29.1417C97.7748 28.8992 98.1937 28.6346 98.6126 28.326C98.7449 28.2378 98.8772 28.1276 98.9874 28.0394C99.3402 27.7748 99.6709 27.5102 99.9795 27.2016C100.068 27.1134 100.156 27.0472 100.244 26.9591C100.619 26.5843 100.994 26.1874 101.324 25.7685C101.391 25.6803 101.457 25.5921 101.523 25.4819C101.809 25.085 102.096 24.6882 102.339 24.2472C102.383 24.1811 102.427 24.115 102.449 24.0488C102.735 23.5638 102.978 23.0346 103.176 22.5055C103.22 22.4173 103.243 22.3291 103.265 22.263C103.441 21.778 103.617 21.2488 103.728 20.7417C103.75 20.6756 103.75 20.6315 103.772 20.5654C103.904 19.9921 103.992 19.3969 104.036 18.8016C104.036 18.7575 104.058 18.7354 104.058 18.6913L119.381 32.4488C119.315 32.5591 119.183 32.6252 119.072 32.6693ZM91.315 8.30709C95.8126 8.30709 99.5606 11.4378 100.575 15.6268C100.619 15.8032 100.663 15.9795 100.685 16.178C100.773 16.685 100.839 17.2142 100.839 17.7433C100.839 17.7874 100.839 17.8315 100.839 17.8756C100.839 23.1008 96.6284 27.3559 91.2488 27.422C88.2063 27.4 85.5165 25.9449 83.7748 23.6961C82.5181 22.0866 81.7465 20.0803 81.7465 17.8756C81.7465 17.8315 81.7465 17.7874 81.7465 17.7433C81.7465 17.2142 81.8126 16.685 81.9008 16.178C81.9228 16.0016 81.9669 15.8252 82.011 15.6488C83.0693 11.4378 86.8173 8.30709 91.315 8.30709ZM25.5701 34.8299C29.8913 34.8299 33.4189 31.3024 33.4189 26.9811C33.4189 24.4898 35.4472 22.4394 37.9606 22.4394H59.1701C61.6614 22.4394 63.7118 24.4677 63.7118 26.9811V49.8661V54.6284C63.7118 57.1197 61.6835 59.1701 59.1701 59.1701H18.6913V34.8299H25.5701ZM15.3843 64.7039C15.3843 67.4378 13.1575 69.6646 10.4236 69.6646H8.30709V11.9449H10.4236C13.1575 11.9449 15.3843 14.1717 15.3843 16.9055V33.1764V60.8236V64.7039Z" fill="#663366"/>
<path d="M41.5539 52.1586H55.0248C55.9287 52.1586 56.6783 51.409 56.6783 50.5051C56.6783 49.6012 55.9287 48.8516 55.0248 48.8516H41.5539C40.65 48.8516 39.9004 49.6012 39.9004 50.5051C39.9004 51.409 40.65 52.1586 41.5539 52.1586Z" fill="#663366"/>
<path d="M41.5539 32.7563H55.0248C55.9287 32.7563 56.6783 32.0067 56.6783 31.1028C56.6783 30.1988 55.9287 29.4492 55.0248 29.4492H41.5539C40.65 29.4492 39.9004 30.1988 39.9004 31.1028C39.9004 32.0067 40.65 32.7563 41.5539 32.7563Z" fill="#663366"/>
<path d="M41.5539 42.4555H55.0248C55.9287 42.4555 56.6783 41.7059 56.6783 40.802C56.6783 39.898 55.9287 39.1484 55.0248 39.1484H41.5539C40.65 39.1484 39.9004 39.898 39.9004 40.802C39.9004 41.7059 40.65 42.4555 41.5539 42.4555Z" fill="#663366"/>
<path d="M91.3146 23.5237C94.4453 23.5237 96.9807 20.9883 96.9807 17.8575C96.9807 14.7268 94.4453 12.1914 91.3146 12.1914C88.1839 12.1914 85.6484 14.7268 85.6484 17.8575C85.6484 20.9883 88.1839 23.5237 91.3146 23.5237ZM91.3146 15.4985C92.6154 15.4985 93.6736 16.5568 93.6736 17.8575C93.6736 19.1583 92.6154 20.2166 91.3146 20.2166C90.0138 20.2166 88.9555 19.1583 88.9555 17.8575C88.9555 16.5568 90.0138 15.4985 91.3146 15.4985Z" fill="#663366"/>
<path d="M122.335 39.6367C121.431 39.6367 120.571 40.4966 120.571 41.4005C120.571 42.3044 121.431 43.1643 122.335 43.1643C123.239 43.1643 124.099 42.3044 124.099 41.4005C124.099 40.4966 123.261 39.6367 122.335 39.6367Z" fill="#663366"/>
</svg>
