<svg width="150" height="150" viewBox="0 0 150 150" fill="none" xmlns="http://www.w3.org/2000/svg">
<path d="M101.254 76.0482C101.254 62.3265 90.0345 50.6618 76.269 50.8539C62.7124 51.0429 51.7752 62.8908 51.9904 76.4471C52.0642 81.1017 53.4296 85.4423 55.7434 89.127C59.5293 95.1563 61.567 102.118 61.567 109.237V109.577H91.6745V109.239C91.6745 102.077 93.7858 95.1062 97.5638 89.022C99.9027 85.2544 101.254 80.809 101.254 76.0482Z" stroke="#663366" stroke-width="4.22534" stroke-miterlimit="10" stroke-linecap="round" stroke-linejoin="round"/>
<path d="M91.6739 109.578H61.5664V119.299C61.5664 121.883 63.6613 123.979 66.2458 123.979H86.9948C89.579 123.979 91.6742 121.884 91.6742 119.299L91.6739 109.578Z" stroke="#663366" stroke-width="4.22534" stroke-miterlimit="10" stroke-linecap="round" stroke-linejoin="round"/>
<path d="M79.3046 130.969H73.9367C71.7964 130.969 70.0615 129.235 70.0615 127.094V123.977H83.1795V127.094C83.1795 129.235 81.4446 130.969 79.3046 130.969Z" stroke="#663366" stroke-width="4.22534" stroke-miterlimit="10" stroke-linecap="round" stroke-linejoin="round"/>
<path d="M70.4533 109.577C70.4533 109.577 69.1945 90.4775 62.9004 84.5265C62.9004 84.5265 67.2395 87.5189 70.0609 86.8152C72.4612 86.2166 72.7418 80.4961 72.7418 80.4961C72.7418 80.4961 74.7764 85.5564 76.6201 85.6707" stroke="#663366" stroke-width="4.22534" stroke-miterlimit="10" stroke-linecap="round" stroke-linejoin="round"/>
<path d="M82.7869 109.577C82.7869 109.577 84.0457 90.4775 90.3398 84.5265C90.3398 84.5265 86.0007 87.5189 83.1793 86.8152C80.779 86.2166 80.4984 80.4961 80.4984 80.4961C80.4984 80.4961 78.4638 85.5564 76.6201 85.6707" stroke="#663366" stroke-width="4.22534" stroke-miterlimit="10" stroke-linecap="round" stroke-linejoin="round"/>
<path d="M30.5982 55.3403C31.767 52.6085 33.1718 50.0018 34.7858 47.546L27.7549 40.515C26.4619 39.2221 26.4619 37.1207 27.7549 35.8277L37.4563 26.1292C38.7492 24.8334 40.8478 24.8334 42.1436 26.1292L49.1745 33.1601C54.3435 29.7601 60.1801 27.2925 66.4477 25.9968V16.0616C66.4477 14.2306 67.9294 12.7461 69.7604 12.7461H83.4787C85.3096 12.7461 86.7941 14.2306 86.7941 16.0616V25.9968C93.0589 27.2925 98.8955 29.7601 104.065 33.1601L111.095 26.1292C112.391 24.8334 114.49 24.8334 115.786 26.1292L117.349 27.6925" stroke="#663366" stroke-width="4.22534" stroke-miterlimit="10" stroke-linecap="round" stroke-linejoin="round"/>
<path d="M26.7872 111.84C26.7788 110.984 27.1027 110.124 27.7562 109.471L34.7872 102.44C31.39 97.2681 28.9196 91.4343 27.6266 85.1667H17.6886C15.8577 85.1667 14.376 83.6822 14.376 81.8513V68.1358C14.376 66.3048 15.8577 64.8203 17.6886 64.8203H27.6266" stroke="#663366" stroke-width="4.22534" stroke-miterlimit="10" stroke-linecap="round" stroke-linejoin="round"/>
<path d="M128.66 64.8203H135.553C137.384 64.8203 138.866 66.3048 138.866 68.1358V81.8513C138.866 83.6822 137.384 85.1667 135.553 85.1667H125.615C124.322 91.4343 121.854 97.2681 118.454 102.44L125.485 109.471C126.778 110.764 126.778 112.862 125.485 114.158L115.787 123.857C114.491 125.153 112.392 125.153 111.097 123.857L104.066 116.826C98.8967 120.226 93.0601 122.654 86.7953 123.95V134.772C86.7953 136.603 85.3108 138.085 83.4799 138.085H69.7616C67.9306 138.085 66.4489 136.603 66.4489 134.772V123.95C60.1813 122.654 54.3447 120.226 49.1757 116.826L43.2236 122.778" stroke="#663366" stroke-width="4.22534" stroke-miterlimit="10" stroke-linecap="round" stroke-linejoin="round"/>
<path d="M128.659 15.8056H117.35V7.69154C117.35 6.20507 118.555 5 120.041 5H125.968C127.454 5 128.659 6.20507 128.659 7.69154V15.8056Z" stroke="#663366" stroke-width="4.22534" stroke-miterlimit="10" stroke-linecap="round" stroke-linejoin="round"/>
<path d="M128.659 15.8047H117.35V66.6516H128.659V25.6759" stroke="#663366" stroke-width="4.22534" stroke-miterlimit="10" stroke-linecap="round" stroke-linejoin="round"/>
<path d="M121.201 76.2385L117.35 66.6523H128.659L124.807 76.2385C124.155 77.8633 121.854 77.8633 121.201 76.2385Z" stroke="#663366" stroke-width="4.22534" stroke-miterlimit="10" stroke-linecap="round" stroke-linejoin="round"/>
<path d="M92.0036 104.342C102.556 98.804 109.753 87.7392 109.753 74.9928C109.753 56.697 94.9191 41.8633 76.6206 41.8633C58.322 41.8633 43.4883 56.697 43.4883 74.9928C43.4883 87.742 50.6883 98.8068 61.2432 104.345" stroke="#663366" stroke-width="4.22534" stroke-miterlimit="10" stroke-linecap="round" stroke-linejoin="round"/>
<path d="M39.7188 140.133L43.6703 133.289L38.7368 130.441C38.8523 129.784 38.916 129.11 38.916 128.421C38.916 127.731 38.8523 127.057 38.7368 126.4L43.6703 123.552L39.7188 116.708L34.785 119.556C33.756 118.691 32.5754 118 31.287 117.532V111.84H23.3839V117.532C22.0955 118 20.9146 118.691 19.8853 119.557L14.9518 116.708L11.0003 123.552L15.9335 126.401C15.818 127.057 15.7544 127.731 15.7544 128.421C15.7544 129.11 15.818 129.784 15.9335 130.44L11 133.289L14.9515 140.133L19.885 137.285C20.9141 138.15 22.0952 138.841 23.3836 139.309V145.001H31.2867V139.309C32.5752 138.841 33.756 138.15 34.785 137.285L39.7188 140.133Z" stroke="#663366" stroke-width="4.22534" stroke-miterlimit="10" stroke-linecap="round" stroke-linejoin="round"/>
<circle cx="27.3353" cy="128.421" r="2.11267" fill="#663366"/>
</svg>
