<svg width="150" height="150" viewBox="0 0 150 150" fill="none" xmlns="http://www.w3.org/2000/svg">
<path d="M112.1 111.048H94.5059V97.7828L95.4833 97.5035C96.8796 97.0846 97.9967 95.9675 98.4156 94.5712L98.6949 93.5938H111.96V111.048H112.1ZM97.5778 107.976H109.028V96.5261H100.929C100.231 97.9224 98.9741 99.1791 97.5778 99.8773V107.976Z" fill="#663366"/>
<path d="M123.27 95.6891H118.941C118.103 95.6891 117.405 94.991 117.405 94.1532C117.405 93.3154 118.103 92.6172 118.941 92.6172H123.27C124.108 92.6172 124.806 93.3154 124.806 94.1532C124.806 94.991 124.108 95.6891 123.27 95.6891Z" fill="#663366"/>
<path d="M123.27 103.787H118.941C118.103 103.787 117.405 103.089 117.405 102.251C117.405 101.413 118.103 100.715 118.941 100.715H123.27C124.108 100.715 124.806 101.413 124.806 102.251C124.806 103.089 124.108 103.787 123.27 103.787Z" fill="#663366"/>
<path d="M123.27 111.888H118.941C118.103 111.888 117.405 111.19 117.405 110.352C117.405 109.515 118.103 108.816 118.941 108.816H123.27C124.108 108.816 124.806 109.515 124.806 110.352C124.806 111.33 124.108 111.888 123.27 111.888Z" fill="#663366"/>
<path d="M87.9427 95.6891H83.6141C82.7763 95.6891 82.0781 94.991 82.0781 94.1532C82.0781 93.3154 82.7763 92.6172 83.6141 92.6172H87.9427C88.7805 92.6172 89.4787 93.3154 89.4787 94.1532C89.4787 94.991 88.7805 95.6891 87.9427 95.6891Z" fill="#663366"/>
<path d="M87.9427 103.787H83.6141C82.7763 103.787 82.0781 103.089 82.0781 102.251C82.0781 101.413 82.7763 100.715 83.6141 100.715H87.9427C88.7805 100.715 89.4787 101.413 89.4787 102.251C89.4787 103.089 88.7805 103.787 87.9427 103.787Z" fill="#663366"/>
<path d="M87.9427 111.888H83.6141C82.7763 111.888 82.0781 111.19 82.0781 110.352C82.0781 109.515 82.7763 108.816 83.6141 108.816H87.9427C88.7805 108.816 89.4787 109.515 89.4787 110.352C89.4787 111.33 88.7805 111.888 87.9427 111.888Z" fill="#663366"/>
<path d="M95.2039 88.424C94.3661 88.424 93.668 87.7258 93.668 86.888V82.5594C93.668 81.7216 94.3661 81.0234 95.2039 81.0234C96.0417 81.0234 96.7399 81.7216 96.7399 82.5594V86.888C96.7399 87.7258 96.0417 88.424 95.2039 88.424Z" fill="#663366"/>
<path d="M103.303 88.424C102.465 88.424 101.767 87.7258 101.767 86.888V82.5594C101.767 81.7216 102.465 81.0234 103.303 81.0234C104.14 81.0234 104.839 81.7216 104.839 82.5594V86.888C104.839 87.7258 104.14 88.424 103.303 88.424Z" fill="#663366"/>
<path d="M111.541 88.424C110.703 88.424 110.005 87.7258 110.005 86.888V82.5594C110.005 81.7216 110.703 81.0234 111.541 81.0234C112.379 81.0234 113.077 81.7216 113.077 82.5594V86.888C113.077 87.7258 112.379 88.424 111.541 88.424Z" fill="#663366"/>
<path d="M95.2039 123.752C94.3661 123.752 93.668 123.054 93.668 122.216V117.888C93.668 117.05 94.3661 116.352 95.2039 116.352C96.0417 116.352 96.7399 117.05 96.7399 117.888V122.216C96.7399 123.194 96.0417 123.752 95.2039 123.752Z" fill="#663366"/>
<path d="M103.303 123.752C102.465 123.752 101.767 123.054 101.767 122.216V117.888C101.767 117.05 102.465 116.352 103.303 116.352C104.14 116.352 104.839 117.05 104.839 117.888V122.216C104.839 123.194 104.14 123.752 103.303 123.752Z" fill="#663366"/>
<path d="M111.541 123.752C110.703 123.752 110.005 123.054 110.005 122.216V117.888C110.005 117.05 110.703 116.352 111.541 116.352C112.379 116.352 113.077 117.05 113.077 117.888V122.216C113.077 123.194 112.379 123.752 111.541 123.752Z" fill="#663366"/>
<path d="M71.4664 118.871C70.9079 118.871 70.3493 118.452 70.0701 117.894C66.3 108.538 66.5792 97.5073 70.9079 88.2915C73.8402 82.1476 78.0292 77.2604 83.056 73.9092C85.4298 72.3733 87.6639 71.3958 89.7584 70.4184C93.2492 68.8824 95.9023 67.6257 97.159 64.6934C97.4382 63.9953 98.4157 63.5764 99.1138 63.9953C99.812 64.2745 100.231 65.252 99.812 65.9501C97.9968 69.9995 94.6456 71.5355 90.8755 73.2111C88.9206 74.0489 86.8261 75.0263 84.592 76.4226C79.9841 79.3549 76.214 83.9628 73.4213 89.5482C69.3719 97.9262 69.0926 108.119 72.5835 116.637C72.8627 117.475 72.5835 118.313 71.7457 118.592C71.7457 118.871 71.606 118.871 71.4664 118.871Z" fill="#663366"/>
<path d="M101.349 70.833C100.651 70.833 100.092 70.4141 99.8128 69.7159L98.8354 65.2477L94.3671 66.2251C93.5293 66.3647 92.6915 65.9458 92.5519 65.108C92.4122 64.2702 92.8311 63.4324 93.6689 63.2928L101.069 61.6172L102.745 69.0178C102.885 69.8556 102.466 70.6934 101.628 70.833C101.488 70.833 101.488 70.833 101.349 70.833Z" fill="#663366"/>
<path d="M103.582 141.213C97.9965 141.213 92.6904 139.956 88.2222 137.722C85.7088 136.465 83.7539 134.93 81.9387 133.673C78.7271 131.439 76.4929 129.763 73.2814 130.042C72.4436 130.182 71.7454 129.484 71.6058 128.646C71.4661 127.808 72.1643 127.11 73.0021 126.97C77.4704 126.551 80.4027 128.646 83.7539 131.159C85.5691 132.416 87.3844 133.812 89.6185 134.93C94.5057 137.443 100.37 138.56 106.514 138.001C115.73 137.303 124.667 132.416 130.391 125.155C130.95 124.457 131.927 124.317 132.486 124.876C133.184 125.434 133.324 126.412 132.765 126.97C126.482 134.93 116.847 140.236 106.793 140.934C105.676 141.213 104.559 141.213 103.582 141.213Z" fill="#663366"/>
<path d="M74.678 134.37C74.2591 134.37 73.8402 134.231 73.561 133.952L68.3945 128.366L73.9799 123.2C74.5384 122.641 75.5158 122.641 76.0744 123.339C76.6329 123.898 76.6329 124.875 75.9347 125.434L72.5835 128.506L75.6555 131.857C76.214 132.416 76.214 133.393 75.5158 133.952C75.3762 134.231 74.9573 134.37 74.678 134.37Z" fill="#663366"/>
<path d="M140.446 120.685C140.027 120.685 139.468 120.405 139.189 120.126C136.536 116.496 136.955 112.865 137.374 108.676C137.653 106.442 137.793 104.208 137.653 101.695C137.374 96.2489 135.419 90.6635 131.928 85.4971C126.622 77.8172 118.104 72.5112 108.888 71.2545C108.051 71.1148 107.492 70.4167 107.632 69.5789C107.771 68.7411 108.47 68.1825 109.307 68.3222C119.361 69.7185 128.716 75.5831 134.441 83.8215C138.351 89.4068 140.446 95.5507 140.725 101.555C140.865 104.348 140.585 106.861 140.446 109.095C140.027 113.005 139.747 115.798 141.702 118.451C142.261 119.149 141.982 120.126 141.423 120.545C141.004 120.685 140.725 120.685 140.446 120.685Z" fill="#663366"/>
<path d="M142.54 123.338L135.279 121.104C134.442 120.825 134.023 119.987 134.302 119.149C134.581 118.311 135.419 117.892 136.257 118.172L140.585 119.568L141.982 115.239C142.261 114.402 143.099 113.983 143.937 114.262C144.774 114.541 145.193 115.379 144.914 116.217L142.54 123.338Z" fill="#663366"/>
<path d="M34.883 70.2799H19.6629C18.8251 70.2799 18.127 69.5818 18.127 68.744C18.127 67.9062 18.8251 67.208 19.6629 67.208H31.811V66.3702C31.811 64.6946 30.5543 63.2983 29.0184 63.019L20.0818 61.7623C19.244 61.6226 18.6855 60.9245 18.8251 60.0867C18.9648 59.2489 19.6629 58.6903 20.5007 58.83L29.4373 60.0867C32.5092 60.5056 34.883 63.2982 34.883 66.3702V70.2799Z" fill="#663366"/>
<path d="M22.3146 89.9678H19.103C15.0536 89.9678 11.842 86.7563 11.842 82.7069V57.4332L6.95487 55.618C5.8378 55.1991 5 54.082 5 52.8253V48.2174C5.13963 46.6814 6.39633 45.2851 8.07194 45.2851H14.6347C16.031 45.2851 17.1481 44.5869 17.8463 43.3302L24.4091 31.1821C25.945 28.3895 29.017 26.5742 32.2285 26.5742H71.8844C75.096 26.5742 78.168 28.3895 79.7039 31.1821L86.2667 43.3302C86.9649 44.4473 88.0819 45.2851 89.4783 45.2851H96.041C97.577 45.2851 98.9733 46.5418 98.9733 48.2174V52.8253C98.9733 54.082 98.2752 55.1991 97.0185 55.618L91.1539 57.7125C90.3161 57.9918 89.4783 57.5729 89.199 56.8747C88.9197 56.0369 89.3386 55.1991 90.0368 54.9198L95.7618 52.8253V48.357H89.199C86.8252 48.357 84.4515 46.9607 83.3344 44.8662L77.0509 32.7181C76.0734 30.9029 74.1186 29.6462 71.8844 29.6462H32.2285C30.134 29.6462 28.1792 30.7632 27.0621 32.7181L20.4993 44.8662C19.3823 46.9607 17.1481 48.357 14.6347 48.357H8.21157V52.8253L14.914 55.3387V82.8465C14.914 85.2203 16.7292 87.0355 19.103 87.0355H22.3146C24.6883 87.0355 26.5036 85.2203 26.5036 82.8465V78.099H70.907C71.7448 78.099 72.443 78.7972 72.443 79.635C72.443 80.4728 71.7448 81.1709 70.907 81.1709H29.5755V82.8465C29.5755 86.7563 26.3639 89.9678 22.3146 89.9678Z" fill="#663366"/>
<path d="M70.9071 70.2799C70.0693 70.2799 69.3711 69.5818 69.3711 68.744V66.3702C69.3711 63.1586 71.7449 60.5056 74.8168 60.0867L83.7533 58.83C84.5911 58.6903 85.2893 59.2489 85.4289 60.0867C85.5686 60.9245 85.01 61.6226 84.1722 61.7623L75.2357 63.019C73.5601 63.2983 72.443 64.6946 72.443 66.3702V68.744C72.443 69.5818 71.7449 70.2799 70.9071 70.2799Z" fill="#663366"/>
<path d="M58.6196 70.5555H45.6337C42.8411 70.5555 40.4673 68.461 40.188 65.6683C40.0484 64.1323 40.4673 62.5964 41.5844 61.4793C42.5618 60.3622 44.0978 59.6641 45.6337 59.6641H58.48C60.016 59.6641 61.5519 60.3622 62.5294 61.4793C63.5068 62.5964 64.0653 64.1323 63.9257 65.6683C63.6464 68.461 61.2727 70.5555 58.6196 70.5555ZM45.6337 62.5964C44.9356 62.5964 44.2374 62.8756 43.8185 63.4342C43.3996 63.9927 43.1203 64.6909 43.26 65.389C43.3996 66.6457 44.377 67.4835 45.6337 67.4835H58.48C59.7367 67.4835 60.7142 66.5061 60.8538 65.389C60.9934 64.6909 60.7141 63.9927 60.2952 63.4342C59.8763 62.8756 59.1782 62.5964 58.48 62.5964H45.6337Z" fill="#663366"/>
<path d="M51.3584 51.9851C41.3048 51.9851 31.3908 51.0077 24.4092 49.1924C23.5714 48.9132 23.1525 48.0754 23.2921 47.3772C23.5714 46.5394 24.4092 46.1205 25.1073 46.2601C38.5121 49.8906 63.9254 49.8906 77.3303 46.2601C78.1681 45.9809 79.0059 46.5394 79.1455 47.3772C79.4248 48.215 78.8662 49.0528 78.0284 49.1924C71.326 51.1473 61.2724 51.9851 51.3584 51.9851Z" fill="#663366"/>
<path d="M64.3442 29.7823C63.646 29.7823 63.0875 29.3634 62.9478 28.6652L62.11 25.4536C61.8308 24.6158 61.2722 24.0573 60.5741 24.0573H43.818C43.1199 24.0573 42.5613 24.6158 42.2821 25.4536L41.4443 28.6652C41.165 29.503 40.3272 29.9219 39.629 29.6426C38.7912 29.3634 38.3723 28.5256 38.6516 27.8274L39.4894 24.6158C40.0479 22.5213 41.8632 21.125 43.818 21.125H60.5741C62.5289 21.125 64.3442 22.5213 64.9027 24.6158L65.7405 27.8274C66.0198 28.6652 65.4612 29.503 64.7631 29.6426C64.6234 29.6426 64.4838 29.7823 64.3442 29.7823Z" fill="#663366"/>
<path d="M45.7731 8H42.7012V10.7927H45.7731V8Z" fill="#663366"/>
<path d="M52.8942 8H49.8223V10.7927H52.8942V8Z" fill="#663366"/>
<path d="M60.0163 8H56.9443V10.7927H60.0163V8Z" fill="#663366"/>
<path d="M49.2643 13.0312H46.1924V15.8239H49.2643V13.0312Z" fill="#663366"/>
<path d="M56.5251 13.0312H53.4531V15.8239H56.5251V13.0312Z" fill="#663366"/>
</svg>
