<svg width="150" height="150" viewBox="0 0 150 150" fill="none" xmlns="http://www.w3.org/2000/svg">
<path d="M8.11335 128.573H46.5999C52.2142 125.949 57.6793 123.015 62.9399 119.744H8.11494L8.11335 128.573ZM105.765 102.957C104.453 106.588 102.221 109.864 98.6401 111.549C96.9614 113.315 95.1459 115.006 93.2372 116.635H111.548V98.5297L109.272 101.359C108.42 102.409 107.127 103.006 105.765 102.957ZM93.0568 112.687C91.5149 112.662 89.8611 112.395 88.0767 111.866C87.6725 111.742 87.343 111.468 87.1503 111.126C86.3296 109.628 85.6519 108.036 85.2726 106.358C68.5346 122.672 44.0627 135.057 21.5183 141.038C45.2071 139.124 75.375 128.746 93.0568 112.687ZM84.9556 102.285C85.3597 97.7215 88.2944 94.3143 92.0684 91.9268C91.77 90.7455 91.9689 89.4897 92.6529 88.4699H83.9359C83.0779 88.4699 82.3816 87.7735 82.3816 86.9093V85.1187L76.6614 83.3405C75.4553 82.9674 75.3744 81.8483 75.9153 80.8907L86.9203 67.2061H83.9359C83.0779 67.2061 82.3816 66.5097 82.3816 65.6455V53.5028C82.3816 52.6448 83.0779 51.9484 83.9359 51.9484H99.5417C100.4 51.9484 101.096 52.6448 101.096 53.5028V61.9896L106.543 61.4797C108.035 59.2602 109.701 57.1089 111.554 55.1131L111.548 23.7827C111.548 22.1786 110.23 20.8606 108.625 20.8606H47.8556C46.2515 20.8606 44.9335 22.1786 44.9335 23.7827V116.634H67.7023C73.9322 112.381 79.8073 107.595 84.9556 102.285ZM93.8527 94.4761C87.9648 98.1258 86.5472 103.143 89.5689 109.068C96.2029 110.797 100.655 108.136 102.899 101.757L93.8527 94.4761ZM140.832 61.8469C134.441 58.8377 129.137 54.4482 124.723 48.8649C121.129 50.6804 117.946 53.0803 115.173 55.816C107.563 63.3516 101.551 75.2392 100.612 85.6534L110.062 93.2573C120.029 90.1112 130.369 81.6867 136.089 72.6404C138.172 69.3452 139.825 65.739 140.832 61.8469ZM127.639 47.5591C131.494 52.2657 136.07 56.0647 141.473 58.7194C142.15 54.504 142.045 49.9963 140.888 45.2525C136.032 45.153 131.618 46.0048 127.639 47.5591ZM114.023 95.1102L118.822 101.862C119.233 102.447 119.195 103.212 118.773 103.728L116.13 107.582L119.021 112.656L131.145 97.5785L129.616 85.0131C124.542 89.614 118.934 93.0584 114.023 95.1102ZM132.408 82.2836L134.31 97.8458C134.31 97.8458 134.049 98.9214 133.975 99.0022L120.01 116.374C120.01 116.374 119.762 116.622 119.737 116.635H120.477C121.335 116.635 122.031 117.331 122.031 118.189V130.127C122.031 130.985 121.335 131.681 120.477 131.681L68.7602 131.675C51.5511 139.465 24.8222 146.597 6.42415 143.923C4.62111 143.699 4.62111 141.038 6.4428 140.839C15.2592 139.857 27.109 136.773 39.5129 131.675H6.56058C5.69635 131.675 5 130.978 5 130.12V118.183C5 117.325 5.69635 116.629 6.56058 116.629H10.6765V55.4799C10.6765 52.1598 13.3872 49.4489 16.7075 49.4489H41.8319V23.7705C41.8319 20.4505 44.5365 17.7333 47.8629 17.7333H52.2152C48.2236 12.5418 51.9851 5 58.4948 5H97.9873C104.503 5 108.258 12.5418 104.267 17.7333H108.619C111.939 17.7333 114.65 20.4441 114.65 23.7705V52.0417C121.651 45.7932 130.802 41.5964 142.188 42.1933C142.909 42.2306 143.481 42.7529 143.624 43.4244C146.844 55.2686 144.09 65.7698 138.706 74.2884C136.878 77.2043 134.727 79.8712 132.408 82.2836ZM117.859 116.635C117.698 116.511 117.561 116.349 117.455 116.169L114.657 111.251V116.635L117.859 116.635ZM114.657 104.262L115.677 102.77L114.657 101.334V104.262ZM95.737 84.6084L90.1166 82.2209L87.1632 85.3669H95.1216L95.737 84.6084ZM89.4264 64.1093C89.8989 63.5124 90.1849 63.0274 91.0056 62.9653L97.9816 62.3062V55.0815H85.4969V64.1155L89.4264 64.1093ZM104.491 64.7932L91.8884 65.9869L79.7519 81.0705L85.3228 82.7989L88.5745 79.3358C89.0098 78.8508 89.7123 78.6767 90.3403 78.9503L97.963 82.1959C98.9143 76.9545 101.078 70.7378 104.491 64.7932ZM97.6706 87.1513L95.2955 90.1109C94.8914 90.6829 94.9473 91.3295 95.482 91.7896L105.175 99.5862C105.685 99.9966 106.456 99.9096 106.854 99.4122L109.229 96.4526C109.03 96.378 108.843 96.2785 108.682 96.1355L98.025 87.5617C97.882 87.4498 97.7577 87.3068 97.6706 87.1513ZM122.162 60.0182C118.021 60.4658 115.024 64.2025 115.472 68.3496C115.919 72.4905 119.656 75.4997 123.803 75.0458C127.956 74.5981 130.953 70.8614 130.499 66.7081C130.052 62.5672 126.309 59.5705 122.162 60.0182ZM121.832 56.9343C127.677 56.3001 132.943 60.5404 133.583 66.3849C134.223 72.2293 129.971 77.4955 124.126 78.1358C118.282 78.7576 113.022 74.5235 112.388 68.6791C111.754 62.8284 115.988 57.5685 121.832 56.9343ZM41.8253 52.5572H16.7072C15.1031 52.5572 13.7913 53.8753 13.7913 55.4794V116.628H41.8317L41.8253 52.5572ZM97.9873 17.7459C102.209 17.7459 104.441 12.5916 101.382 9.53892C100.512 8.66847 99.3116 8.12135 97.9873 8.12135L58.4885 8.12757C54.2669 8.12757 52.0347 13.2819 55.0938 16.3409C55.9642 17.2113 57.1642 17.7523 58.4885 17.7523H97.9873V17.7459ZM20.9092 109.361V99.2885C20.9092 98.4242 21.6056 97.7279 22.4636 97.7279H33.5556C34.4136 97.7279 35.1099 98.4242 35.1099 99.2885V109.361C35.1099 110.219 34.4136 110.915 33.5556 110.915H22.4573C21.6056 110.915 20.9092 110.219 20.9092 109.361ZM24.0179 100.843V107.806H32.0011V100.843H24.0179ZM20.9092 91.5413V81.4691C20.9092 80.6049 21.6056 79.9085 22.4636 79.9085H33.5556C34.4136 79.9085 35.1099 80.6049 35.1099 81.4691V91.5413C35.1099 92.3993 34.4136 93.0957 33.5556 93.0957L22.4573 93.0895C21.6056 93.0895 20.9092 92.3931 20.9092 91.5413ZM24.0179 83.0171V89.9807H32.0011V83.0171H24.0179ZM55.3912 108.18V96.0371C55.3912 95.1791 56.0876 94.4828 56.9456 94.4828H72.5514C73.4094 94.4828 74.1058 95.1791 74.1058 96.0371V108.18C74.1058 109.044 73.4094 109.74 72.5514 109.74H56.9456C56.0876 109.747 55.3912 109.05 55.3912 108.18ZM58.4999 97.5978V106.626H70.9847V97.5978H58.4999ZM55.3912 86.9163V74.7736C55.3912 73.9156 56.0876 73.2192 56.9456 73.2192H72.5514C73.4094 73.2192 74.1058 73.9156 74.1058 74.7736V86.9163C74.1058 87.7805 73.4094 88.4768 72.5514 88.4768H56.9456C56.0876 88.4768 55.3912 87.7867 55.3912 86.9163ZM58.4999 76.3342V85.3682H70.9847V76.3342H58.4999ZM55.3912 65.6527V53.51C55.3912 52.652 56.0876 51.9557 56.9456 51.9557H72.5514C73.4094 51.9557 74.1058 52.652 74.1058 53.51V65.6527C74.1058 66.5169 73.4094 67.2133 72.5514 67.2133H56.9456C56.0876 67.2195 55.3912 66.5231 55.3912 65.6527ZM58.4999 55.0706V64.1046H70.9847V55.0706H58.4999ZM20.9095 73.7107V63.6384C20.9095 62.7742 21.6059 62.0779 22.4639 62.0779H33.5559C34.4139 62.0779 35.1102 62.7742 35.1102 63.6384V73.7107C35.1102 74.5687 34.4139 75.265 33.5559 75.265H22.4577C21.6059 75.265 20.9095 74.5687 20.9095 73.7107ZM24.0182 65.1927V72.1562H32.0014V65.1927H24.0182ZM55.3916 44.396V32.2533C55.3916 31.3953 56.0879 30.6989 56.9459 30.6989H72.5518C73.4098 30.6989 74.1061 31.3953 74.1061 32.2533V44.396C74.1061 45.2602 73.4098 45.9565 72.5518 45.9565H56.9459C56.0879 45.9565 55.3916 45.2602 55.3916 44.396ZM58.5003 33.8077V42.8417H70.985V33.8077H58.5003ZM82.3816 44.396V32.2533C82.3816 31.3953 83.078 30.6989 83.936 30.6989H99.5418C100.4 30.6989 101.096 31.3953 101.096 32.2533V44.396C101.096 45.2602 100.4 45.9565 99.5418 45.9565H83.936C83.078 45.9565 82.3816 45.2602 82.3816 44.396ZM85.4965 33.8077V42.8417H97.9813V33.8077H85.4965ZM89.339 119.745C84.9867 123.003 80.1993 125.95 75.1633 128.574H118.928V119.745H89.339Z" fill="#663366"/>
</svg>
