<svg width="150" height="150" viewBox="0 0 150 150" fill="none" xmlns="http://www.w3.org/2000/svg">
<path d="M48.5192 49.6922L65.3462 59.4399C65.3705 59.4521 65.3948 59.4582 65.4131 59.4703C65.5042 59.5129 65.5954 59.5554 65.6987 59.5858C65.7351 59.5979 65.7716 59.6101 65.8081 59.6162C65.9357 59.6466 66.0694 59.6648 66.2092 59.6648C66.3489 59.6648 66.4826 59.6466 66.6102 59.6162C66.6406 59.604 66.6832 59.5919 66.7136 59.5858C66.8108 59.5554 66.908 59.5189 66.9992 59.4703C67.0174 59.4582 67.0417 59.4521 67.066 59.4399L83.8992 49.6922C84.4279 49.3884 84.7561 48.8171 84.7561 48.2094L84.7622 28.7874C84.7622 28.7631 84.7561 28.7449 84.7561 28.7267C84.75 28.6234 84.7379 28.514 84.7136 28.4107C84.7014 28.3803 84.7014 28.3438 84.6893 28.3074C84.6528 28.1797 84.6042 28.0582 84.5313 27.9367V27.9306C84.4583 27.809 84.3733 27.7057 84.2882 27.6085C84.2639 27.5781 84.2335 27.5599 84.2092 27.5295C84.1302 27.4566 84.0512 27.3958 83.9661 27.3411C83.9479 27.3289 83.9357 27.3107 83.9114 27.2986L67.072 17.5873C66.5433 17.2834 65.8869 17.2834 65.3642 17.5873L48.531 27.2986C48.5067 27.3107 48.4945 27.3289 48.4763 27.3411C48.3852 27.3958 48.3122 27.4566 48.2332 27.5295C48.2028 27.5538 48.1785 27.5781 48.1542 27.6024C48.0631 27.6996 47.978 27.803 47.9051 27.9245C47.8321 28.046 47.7896 28.1737 47.7471 28.3013C47.7349 28.3377 47.7288 28.3681 47.7228 28.4046C47.6984 28.5079 47.6863 28.6173 47.6802 28.7206C47.6741 28.7388 47.6681 28.7571 47.6681 28.7814V48.2033C47.662 48.8232 47.9905 49.3884 48.5192 49.6922ZM51.0898 31.7529L64.496 39.4892V54.9858L51.0898 47.2253V31.7529ZM67.9292 54.9864V39.4898L81.3354 31.7535V47.2198L67.9292 54.9864ZM66.2154 21.0524L79.6216 28.7887L66.2154 36.525L52.8031 28.7887L66.2154 21.0524Z" fill="#663366"/>
<path d="M90.7119 53.7809C90.0373 54.4494 90.0313 55.5311 90.6997 56.2057L93.6228 59.1591L93.6289 59.1652C93.7018 59.2381 93.7869 59.3111 93.872 59.3658C93.8963 59.384 93.9267 59.3961 93.9571 59.4144C94.03 59.4569 94.1029 59.4995 94.1819 59.5359C94.2123 59.5481 94.2549 59.5602 94.2913 59.5663C94.3642 59.5906 94.4311 59.6149 94.5101 59.6332C94.6195 59.6575 94.7349 59.6635 94.8504 59.6635C94.9659 59.6635 95.0813 59.6514 95.1907 59.6332C95.2697 59.6149 95.3366 59.5906 95.4095 59.5663C95.4399 59.5541 95.4763 59.5481 95.5128 59.5359C95.5918 59.5055 95.6647 59.4569 95.7377 59.4144C95.762 59.3961 95.7863 59.384 95.8167 59.3658C95.9017 59.305 95.9868 59.2381 96.0598 59.1652L96.0658 59.1591L98.9889 56.2057C99.6574 55.5311 99.6453 54.4494 98.9768 53.7809C98.3022 53.1185 97.2266 53.1246 96.5641 53.7931L96.558 23.2195C96.8923 23.5537 97.3298 23.7178 97.7674 23.7178C98.2049 23.7178 98.6425 23.5537 98.9767 23.2195C99.6452 22.551 99.6452 21.4632 98.9767 20.7947L96.0536 17.8716V17.8655C95.8956 17.7075 95.7072 17.5799 95.5006 17.4948C95.4885 17.4887 95.4763 17.4887 95.4702 17.4827C95.2818 17.4097 95.0752 17.3672 94.8564 17.3672H94.8443C94.6255 17.3672 94.4189 17.4097 94.2305 17.4827C94.2183 17.4887 94.2062 17.4887 94.2001 17.4948C93.9874 17.5799 93.799 17.7075 93.6471 17.8655L93.641 17.8716L90.7179 20.7947C90.0494 21.4632 90.0494 22.551 90.7179 23.2195C91.3864 23.888 92.4742 23.888 93.1427 23.2195L93.1305 53.7931C92.4621 53.1246 91.3865 53.1185 90.7119 53.7809Z" fill="#663366"/>
<path d="M42.2529 71.5683H49.0775C50.0194 71.5683 50.7913 70.8025 50.7913 69.8544C50.7913 68.9064 50.0256 68.1406 49.0775 68.1406H42.2529C41.3048 68.1406 40.5391 68.9064 40.5391 69.8544C40.5391 70.8025 41.3048 71.5683 42.2529 71.5683Z" fill="#663366"/>
<path d="M42.2529 78.2206H63.8933C64.8414 78.2206 65.6072 77.4549 65.6072 76.5068C65.6072 75.5648 64.8414 74.793 63.8933 74.793H42.2529C41.3048 74.793 40.5391 75.5587 40.5391 76.5068C40.5391 77.4549 41.3048 78.2206 42.2529 78.2206Z" fill="#663366"/>
<path d="M128.579 124.999H140.916C142.393 124.999 143.602 123.796 143.602 122.307V65.9233C143.602 64.4405 142.399 63.2311 140.916 63.2311H137.215V45.0241C137.215 41.5785 134.407 38.7708 130.968 38.7708H113.459V31.1075H130.531C131.479 31.1075 132.245 30.3418 132.245 29.3937V14.8146C132.245 9.40588 127.845 5 122.436 5H40.6736C35.2042 5 30.7617 9.44244 30.7617 14.9118V38.7708H13.2533C9.80766 38.7708 7 41.5724 7 45.0241V115.192C7 118.637 9.80766 121.439 13.2533 121.439H61.676V129.503H51.0227C46.7626 129.503 43.2925 132.973 43.2925 137.233V143.286C43.2925 144.234 44.0582 145 45.0063 145H141.147H141.171C142.119 145 142.885 144.234 142.885 143.286C142.885 142.745 142.636 142.265 142.247 141.949L123.086 121.438H125.894V122.313C125.894 123.79 127.097 124.999 128.579 124.999ZM113.459 14.827C113.484 11.3023 116.364 8.42778 119.877 8.42778H122.435C125.954 8.42778 128.822 11.2963 128.822 14.8149V27.6862H113.466L113.459 14.827ZM96.4676 92.9428C95.9814 92.4323 95.2339 92.2621 94.5837 92.5174C93.9274 92.7787 93.4959 93.4107 93.4959 94.1095V102.004L18.3579 102.01V50.1224H30.7614V85.0054C30.7614 85.9535 31.5271 86.7193 32.4752 86.7193H111.745C112.693 86.7193 113.459 85.9535 113.459 85.0054V50.1224H125.893V102.004H104.939L96.4676 92.9428ZM93.4958 121.438V129.527C93.4107 129.52 93.3195 129.502 93.2284 129.502H82.5447V121.438L93.4958 121.438ZM140.174 121.572H129.321V118.241H131.034C131.982 118.241 132.748 117.476 132.748 116.528C132.748 115.579 131.983 114.814 131.034 114.814H129.321V111.818H131.034C131.982 111.818 132.748 111.052 132.748 110.104C132.748 109.156 131.983 108.39 131.034 108.39H129.321V105.431H135.507C136.455 105.431 137.221 104.665 137.221 103.717C137.221 102.769 136.455 102.003 135.507 102.003H129.321V99.0129H131.034C131.982 99.0129 132.748 98.2472 132.748 97.2991C132.748 96.351 131.983 95.5853 131.034 95.5853H129.321V92.6318H135.507C136.455 92.6318 137.221 91.8661 137.221 90.918C137.221 89.9761 136.455 89.2042 135.507 89.2042H129.321V86.2142H131.034C131.982 86.2142 132.748 85.4485 132.748 84.5004C132.748 83.5523 131.983 82.7866 131.034 82.7866H129.321V79.8271H135.507C136.455 79.8271 137.221 79.0614 137.221 78.1133C137.221 77.1652 136.455 76.3995 135.507 76.3995H129.321V73.4095H131.034C131.982 73.4095 132.748 72.6437 132.748 71.6956C132.748 70.7476 131.983 69.9818 131.034 69.9818H129.321V66.6516H140.174V121.572ZM130.968 42.1972C132.523 42.1972 133.787 43.4613 133.787 45.0231V63.2363H129.321V48.4202C129.321 47.4722 128.555 46.7064 127.607 46.7064H113.459V42.2033L130.968 42.1972ZM34.189 14.911C34.189 11.3315 37.1 8.4266 40.6734 8.4266H112.439C110.956 10.1465 110.056 12.3707 110.032 14.8137V83.2978H34.1892L34.189 14.911ZM10.4328 115.184V45.0163C10.4328 43.4848 11.7211 42.1904 13.2526 42.1904H30.761V46.6935H16.6438C15.6957 46.6935 14.93 47.4592 14.93 48.4073V103.722C14.93 104.67 15.6957 105.436 16.6438 105.436H93.4947V118.003L13.2522 118.009C11.7208 118.009 10.4328 116.715 10.4328 115.184ZM65.1033 121.437H79.1172V129.501H65.1033V121.437ZM46.7206 137.225C46.7206 134.855 48.6532 132.922 51.0232 132.922H93.2291C93.3203 132.922 93.4114 132.946 93.4965 132.953V141.564H46.7213L46.7206 137.225ZM99.2458 141.564H96.9243V98.4587L102.935 104.888C102.953 104.913 102.971 104.931 102.995 104.955L137.203 141.564L99.2458 141.564ZM119.884 118.008L108.143 105.441H125.894V118.008H119.884Z" fill="#663366"/>
<path d="M102.606 117.199V134.166C102.606 135.114 103.371 135.88 104.319 135.88H120.18C120.861 135.88 121.481 135.473 121.754 134.853C122.028 134.227 121.9 133.497 121.438 132.999L105.571 116.032C105.085 115.516 104.343 115.352 103.687 115.607C103.037 115.862 102.606 116.494 102.606 117.199ZM106.033 121.544L116.237 132.459H106.033V121.544Z" fill="#663366"/>
</svg>
