<svg width="150" height="150" viewBox="0 0 150 150" fill="none" xmlns="http://www.w3.org/2000/svg">
<path d="M142.5 138H7.5C6.11817 138 5 136.881 5 135.5C5 134.119 6.11817 133 7.5 133H142.5C143.882 133 145 134.119 145 135.5C145 136.881 143.882 138 142.5 138Z" fill="#663366"/>
<path d="M92.5 138H12.5C11.1182 138 10 136.881 10 135.5V90.5C10 83.6079 15.6079 78 22.5 78H82.5C89.3921 78 95 83.6079 95 90.5V135.5C95 136.881 93.8818 138 92.5 138ZM15 133H90V90.5C90 86.3643 86.6357 83 82.5 83H22.5C18.3643 83 15 86.3643 15 90.5V133Z" fill="#663366"/>
<path d="M62.5 138H42.5C41.1182 138 40 136.881 40 135.5V120.5C40 116.364 43.3643 113 47.5 113H57.5C61.6357 113 65 116.364 65 120.5V135.5C65 136.881 63.8818 138 62.5 138ZM45 133H60V120.5C60 119.122 58.8794 118 57.5 118H47.5C46.1206 118 45 119.122 45 120.5V133Z" fill="#663366"/>
<path d="M70 108H65C60.8643 108 57.5 104.636 57.5 100.5V95.5C57.5 91.3643 60.8643 88 65 88H70C74.1357 88 77.5 91.3643 77.5 95.5V100.5C77.5 104.636 74.1357 108 70 108ZM65 93C63.6206 93 62.5 94.1218 62.5 95.5V100.5C62.5 101.878 63.6206 103 65 103H70C71.3794 103 72.5 101.878 72.5 100.5V95.5C72.5 94.1218 71.3794 93 70 93H65Z" fill="#663366"/>
<path d="M40 108H35C30.8643 108 27.5 104.636 27.5 100.5V95.5C27.5 91.3643 30.8643 88 35 88H40C44.1357 88 47.5 91.3643 47.5 95.5V100.5C47.5 104.636 44.1357 108 40 108ZM35 93C33.6206 93 32.5 94.1218 32.5 95.5V100.5C32.5 101.878 33.6206 103 35 103H40C41.3794 103 42.5 101.878 42.5 100.5V95.5C42.5 94.1218 41.3794 93 40 93H35Z" fill="#663366"/>
<path d="M77.5 83H27.5C26.1182 83 25 81.8806 25 80.5V70.5C25 66.3643 28.3643 63 32.5 63H72.5C76.6357 63 80 66.3643 80 70.5V80.5C80 81.8806 78.8818 83 77.5 83ZM30 78H75V70.5C75 69.1218 73.8794 68 72.5 68H32.5C31.1206 68 30 69.1218 30 70.5V78Z" fill="#663366"/>
<path d="M67.5 68C66.1182 68 65 66.8806 65 65.5V38C65 36.6218 63.8794 35.5 62.5 35.5H42.5C41.1206 35.5 40 36.6218 40 38V65.5C40 66.8806 38.8818 68 37.5 68C36.1182 68 35 66.8806 35 65.5V38C35 33.8643 38.3643 30.5 42.5 30.5H62.5C66.6357 30.5 70 33.8643 70 38V65.5C70 66.8806 68.8818 68 67.5 68Z" fill="#663366"/>
<path d="M67.5 45.5H37.5C36.1182 45.5 35 44.3806 35 43C35 41.6194 36.1182 40.5 37.5 40.5H67.5C68.8818 40.5 70 41.6194 70 43C70 44.3806 68.8818 45.5 67.5 45.5Z" fill="#663366"/>
<path d="M50 25.5C48.6182 25.5 47.5 24.3806 47.5 23V20.5C47.5 16.3643 50.8643 13 55 13H90C91.3818 13 92.5 14.1194 92.5 15.5C92.5 16.8806 91.3818 18 90 18H55C53.6206 18 52.5 19.1218 52.5 20.5V23C52.5 24.3806 51.3818 25.5 50 25.5Z" fill="#663366"/>
<path d="M77.5 35.5C76.1182 35.5 75 34.3806 75 33V30.5C75 26.3643 78.3643 23 82.5 23H117.5C118.882 23 120 24.1194 120 25.5C120 26.8806 118.882 28 117.5 28H82.5C81.1206 28 80 29.1218 80 30.5V33C80 34.3806 78.8818 35.5 77.5 35.5Z" fill="#663366"/>
</svg>
