<svg width="150" height="150" viewBox="0 0 150 150" fill="none" xmlns="http://www.w3.org/2000/svg">
<path d="M110.823 144.999H38.4914C35.4447 144.995 32.5236 143.784 30.3693 141.629C28.2149 139.475 27.0032 136.554 27 133.507V24.2531C27.0032 21.2064 28.2149 18.2854 30.3693 16.131C32.5236 13.9766 35.4447 12.7649 38.4914 12.7617H53.8133C54.4507 12.7617 55.0621 13.0149 55.5128 13.4657C55.9635 13.9164 56.2167 14.5277 56.2167 15.1652V30.3699H93.0824V15.1652C93.0824 14.5277 93.3356 13.9164 93.7864 13.4657C94.2371 13.0149 94.8484 12.7617 95.4858 12.7617H110.823C113.869 12.7649 116.791 13.9766 118.945 16.131C121.099 18.2854 122.311 21.2064 122.314 24.2531V133.507C122.311 136.554 121.099 139.475 118.945 141.629C116.791 143.784 113.869 144.995 110.823 144.999ZM38.4914 17.5686C36.719 17.5702 35.0197 18.275 33.7665 19.5282C32.5132 20.7815 31.8085 22.4808 31.8069 24.2531V133.507C31.8085 135.28 32.5132 136.979 33.7665 138.232C35.0197 139.485 36.719 140.19 38.4914 140.192H110.823C112.595 140.19 114.294 139.485 115.548 138.232C116.801 136.979 117.506 135.28 117.507 133.507V24.2531C117.506 22.4808 116.801 20.7815 115.548 19.5282C114.294 18.275 112.595 17.5702 110.823 17.5686H97.8893V32.7733C97.8893 33.4107 97.636 34.0221 97.1853 34.4728C96.7346 34.9235 96.1233 35.1767 95.4858 35.1767H53.8283C53.1909 35.1767 52.5796 34.9235 52.1288 34.4728C51.6781 34.0221 51.4249 33.4107 51.4249 32.7733V17.5686H38.4914Z" fill="#663366"/>
<path d="M110.065 135.156H39.2482C38.6107 135.156 37.9994 134.903 37.5487 134.452C37.0979 134.001 36.8447 133.39 36.8447 132.753V25.0128C36.8447 24.3754 37.0979 23.7641 37.5487 23.3133C37.9994 22.8626 38.6107 22.6094 39.2482 22.6094H53.828C54.4654 22.6094 55.0767 22.8626 55.5275 23.3133C55.9782 23.7641 56.2314 24.3754 56.2314 25.0128V30.3725H93.0821V25.0128C93.0821 24.3754 93.3353 23.7641 93.786 23.3133C94.2368 22.8626 94.8481 22.6094 95.4855 22.6094H110.065C110.703 22.6094 111.314 22.8626 111.765 23.3133C112.216 23.7641 112.469 24.3754 112.469 25.0128V132.753C112.469 133.39 112.216 134.001 111.765 134.452C111.314 134.903 110.703 135.156 110.065 135.156ZM41.6516 130.349H107.662V27.4162H97.8889V32.7759C97.8889 33.4133 97.6357 34.0247 97.185 34.4754C96.7343 34.9261 96.1229 35.1793 95.4855 35.1793H53.828C53.1906 35.1793 52.5792 34.9261 52.1285 34.4754C51.6778 34.0247 51.4246 33.4133 51.4246 32.7759V27.4162H41.6516V130.349Z" fill="#663366"/>
<path d="M95.4857 35.1781H53.8282C53.1908 35.1781 52.5795 34.9249 52.1288 34.4742C51.678 34.0234 51.4248 33.4121 51.4248 32.7747V7.40343C51.4248 6.766 51.678 6.15468 52.1288 5.70395C52.5795 5.25322 53.1908 5 53.8282 5H95.4857C96.1232 5 96.7345 5.25322 97.1852 5.70395C97.636 6.15468 97.8892 6.766 97.8892 7.40343V32.7747C97.8892 33.4121 97.636 34.0234 97.1852 34.4742C96.7345 34.9249 96.1232 35.1781 95.4857 35.1781ZM56.2317 30.3712H93.0823V9.80687H56.2317V30.3712Z" fill="#663366"/>
<path d="M83.7454 26.8474H65.5694C64.932 26.8474 64.3207 26.5942 63.87 26.1435C63.4192 25.6928 63.166 25.0814 63.166 24.444V15.7316C63.166 15.0941 63.4192 14.4828 63.87 14.0321C64.3207 13.5813 64.932 13.3281 65.5694 13.3281H83.7454C84.3828 13.3281 84.9942 13.5813 85.4449 14.0321C85.8956 14.4828 86.1488 15.0941 86.1488 15.7316V24.444C86.1488 25.0814 85.8956 25.6928 85.4449 26.1435C84.9942 26.5942 84.3828 26.8474 83.7454 26.8474ZM67.9729 22.0406H81.342V18.135H67.9729V22.0406Z" fill="#663366"/>
<path d="M74.6573 35.1781C74.0199 35.1781 73.4086 34.9249 72.9579 34.4742C72.5071 34.0234 72.2539 33.4121 72.2539 32.7747V24.4438C72.2539 23.8063 72.5071 23.195 72.9579 22.7443C73.4086 22.2936 74.0199 22.0403 74.6573 22.0403C75.2948 22.0403 75.9061 22.2936 76.3568 22.7443C76.8076 23.195 77.0608 23.8063 77.0608 24.4438V32.7747C77.0608 33.4121 76.8076 34.0234 76.3568 34.4742C75.9061 34.9249 75.2948 35.1781 74.6573 35.1781ZM74.6573 18.1378C74.0199 18.1378 73.4086 17.8845 72.9579 17.4338C72.5071 16.9831 72.2539 16.3718 72.2539 15.7343V7.40343C72.2539 6.766 72.5071 6.15468 72.9579 5.70395C73.4086 5.25322 74.0199 5 74.6573 5C75.2948 5 75.9061 5.25322 76.3568 5.70395C76.8076 6.15468 77.0608 6.766 77.0608 7.40343V15.7343C77.0608 16.3718 76.8076 16.9831 76.3568 17.4338C75.9061 17.8845 75.2948 18.1378 74.6573 18.1378Z" fill="#663366"/>
<path d="M74.657 87.7437C69.8213 87.7437 65.0941 86.3099 61.0732 83.6234C57.0523 80.937 53.9182 77.1187 52.0672 72.6512C50.2163 68.1837 49.7315 63.2677 50.6743 58.5248C51.617 53.7818 53.9449 49.4249 57.3637 46.0048C60.7825 42.5848 65.1385 40.2553 69.8812 39.3108C74.6238 38.3663 79.54 38.8492 84.0081 40.6986C88.4763 42.5479 92.2958 45.6805 94.9837 49.7005C97.6716 53.7204 99.1072 58.447 99.109 63.2828C99.1042 69.7672 96.5268 75.9848 91.9424 80.5708C87.3581 85.1568 81.1414 87.7366 74.657 87.7437ZM74.657 43.6497C70.7711 43.6497 66.9724 44.8022 63.7416 46.9614C60.5107 49.1205 57.9927 52.1894 56.5062 55.7797C55.0197 59.3701 54.6313 63.3207 55.3903 67.1318C56.1493 70.9429 58.0215 74.4433 60.7701 77.1902C63.5187 79.9371 67.0203 81.8072 70.8318 82.5638C74.6434 83.3205 78.5937 82.9297 82.1832 81.441C85.7726 79.9523 88.84 77.4325 90.9971 74.2003C93.1543 70.9681 94.3045 67.1687 94.3021 63.2828C94.2933 58.0764 92.2204 53.0859 88.5378 49.4055C84.8552 45.7252 79.8634 43.6553 74.657 43.6497Z" fill="#663366"/>
<path d="M70.4818 78.7182C70.1726 78.7186 69.8664 78.6584 69.5805 78.5409C69.1123 78.3526 68.7153 78.0218 68.4457 77.5953C68.1761 77.1687 68.0476 76.6682 68.0783 76.1645L68.7213 65.8748H65.765C65.3782 65.8744 64.9973 65.7806 64.6545 65.6015C64.3117 65.4223 64.0172 65.163 63.796 64.8457C63.5748 64.5284 63.4335 64.1624 63.384 63.7788C63.3345 63.3951 63.3784 63.0052 63.5118 62.6422L68.3698 49.4233C68.5427 48.9543 68.8577 48.5509 69.2707 48.2693C69.6837 47.9876 70.1743 47.8418 70.6741 47.8521L81.5556 48.0684C81.9375 48.0765 82.3119 48.1754 82.6479 48.3571C82.9839 48.5388 83.2718 48.7979 83.4876 49.113C83.7035 49.4282 83.8411 49.7902 83.8891 50.1691C83.9372 50.5481 83.8942 50.933 83.7638 51.292L81.0899 58.6585H83.5384C83.9982 58.6586 84.4483 58.7905 84.8353 59.0386C85.2224 59.2867 85.5301 59.6407 85.7221 60.0584C85.914 60.4762 85.9821 60.9402 85.9183 61.3955C85.8545 61.8508 85.6615 62.2783 85.362 62.6272L72.3024 77.8619C72.0788 78.1277 71.8003 78.3419 71.486 78.4897C71.1717 78.6375 70.8291 78.7155 70.4818 78.7182ZM69.217 61.068H71.2839C71.6126 61.0673 71.9379 61.1341 72.2397 61.2641C72.5416 61.3942 72.8135 61.5848 73.0388 61.8241C73.2641 62.0635 73.4378 62.3465 73.5494 62.6556C73.6609 62.9648 73.7079 63.2936 73.6874 63.6216L73.3299 69.2907L78.317 63.4714H77.662C77.2758 63.4714 76.8953 63.3783 76.5527 63.2001C76.2101 63.0218 75.9154 62.7636 75.6938 62.4473C75.4721 62.1311 75.3299 61.766 75.2793 61.3831C75.2286 61.0003 75.271 60.6108 75.4028 60.2478L78.1067 52.8152L72.2964 52.698L69.217 61.068Z" fill="#663366"/>
<path d="M63.7184 126.676C63.382 126.676 63.0494 126.605 62.742 126.468C48.3965 120.09 47.2519 105.7 47.2098 105.09C47.1706 104.52 47.3352 103.956 47.6743 103.497C48.0133 103.038 48.5047 102.714 49.0604 102.584C53.1823 101.623 52.7497 93.7457 52.7437 93.6675C52.7197 93.3376 52.7641 93.0062 52.8741 92.6942C52.9841 92.3822 53.1573 92.0962 53.3829 91.8542C53.6086 91.6123 53.8817 91.4195 54.1853 91.288C54.4888 91.1564 54.8163 91.089 55.1471 91.0899H72.2986C72.6297 91.089 72.9575 91.1565 73.2613 91.2882C73.565 91.4199 73.8383 91.613 74.064 91.8553C74.2897 92.0976 74.4628 92.3839 74.5726 92.6963C74.6824 93.0086 74.7265 93.3403 74.7021 93.6705C74.7021 93.7457 74.2664 101.623 78.3853 102.584C78.9411 102.714 79.4324 103.038 79.7715 103.497C80.1106 103.956 80.2752 104.52 80.236 105.09C80.1939 105.691 79.0523 120.09 64.7068 126.468C64.3957 126.607 64.0588 126.677 63.7184 126.676ZM52.263 106.466C52.948 109.858 55.3785 117.437 63.7184 121.616C72.0523 117.437 74.4828 109.861 75.1707 106.466C71.4094 104.402 70.0995 99.7032 69.8802 95.8967H57.5626C57.3343 99.7122 56.0304 104.411 52.263 106.475V106.466Z" fill="#663366"/>
<path d="M61.1106 114.673C60.474 114.672 59.8635 114.42 59.4132 113.97L56.6913 111.248C56.2596 110.793 56.0224 110.188 56.0305 109.562C56.0385 108.935 56.291 108.336 56.7342 107.893C57.1774 107.45 57.7762 107.197 58.4029 107.189C59.0297 107.181 59.6347 107.418 60.0891 107.85L61.1106 108.871L67.3445 102.641C67.5676 102.417 67.8326 102.239 68.1243 102.118C68.416 101.997 68.7288 101.934 69.0447 101.934C69.3607 101.933 69.6736 101.995 69.9656 102.116C70.2577 102.236 70.5232 102.413 70.7468 102.636C70.9705 102.859 71.1481 103.124 71.2694 103.416C71.3907 103.708 71.4533 104.02 71.4538 104.336C71.4542 104.652 71.3924 104.965 71.2718 105.257C71.1513 105.549 70.9745 105.815 70.7514 106.038L62.82 113.97C62.5956 114.194 62.329 114.371 62.0356 114.492C61.7422 114.613 61.4278 114.674 61.1106 114.673Z" fill="#663366"/>
<path d="M99.7069 98.1076H80.8009C80.1635 98.1076 79.5521 97.8544 79.1014 97.4037C78.6507 96.953 78.3975 96.3416 78.3975 95.7042C78.3975 95.0668 78.6507 94.4555 79.1014 94.0047C79.5521 93.554 80.1635 93.3008 80.8009 93.3008H99.7069C100.344 93.3008 100.956 93.554 101.406 94.0047C101.857 94.4555 102.11 95.0668 102.11 95.7042C102.11 96.3416 101.857 96.953 101.406 97.4037C100.956 97.8544 100.344 98.1076 99.7069 98.1076Z" fill="#663366"/>
<path d="M99.7075 106.901H85.7736C85.1361 106.901 84.5248 106.647 84.0741 106.197C83.6233 105.746 83.3701 105.135 83.3701 104.497C83.3701 103.86 83.6233 103.248 84.0741 102.798C84.5248 102.347 85.1361 102.094 85.7736 102.094H99.6984C100.336 102.094 100.947 102.347 101.398 102.798C101.849 103.248 102.102 103.86 102.102 104.497C102.102 105.135 101.849 105.746 101.398 106.197C100.947 106.647 100.336 106.901 99.6984 106.901H99.7075Z" fill="#663366"/>
<path d="M99.7075 115.69H82.4689C81.8314 115.69 81.2201 115.436 80.7694 114.986C80.3186 114.535 80.0654 113.924 80.0654 113.286C80.0654 112.649 80.3186 112.037 80.7694 111.587C81.2201 111.136 81.8314 110.883 82.4689 110.883H99.7135C100.351 110.883 100.962 111.136 101.413 111.587C101.864 112.037 102.117 112.649 102.117 113.286C102.117 113.924 101.864 114.535 101.413 114.986C100.962 115.436 100.351 115.69 99.7135 115.69H99.7075Z" fill="#663366"/>
<path d="M99.7069 124.479H80.8009C80.1635 124.479 79.5521 124.226 79.1014 123.775C78.6507 123.324 78.3975 122.713 78.3975 122.075C78.3975 121.438 78.6507 120.827 79.1014 120.376C79.5521 119.925 80.1635 119.672 80.8009 119.672H99.7069C100.344 119.672 100.956 119.925 101.406 120.376C101.857 120.827 102.11 121.438 102.11 122.075C102.11 122.713 101.857 123.324 101.406 123.775C100.956 124.226 100.344 124.479 99.7069 124.479Z" fill="#663366"/>
</svg>
