<svg width="150" height="150" viewBox="0 0 150 150" fill="none" xmlns="http://www.w3.org/2000/svg">
<path fill-rule="evenodd" clip-rule="evenodd" d="M96.2106 28.2479L108.967 76.0646C107.767 76.4689 107.067 77.7421 107.405 78.9792L114.948 106.954C114.96 106.991 114.966 107.027 114.984 107.063C114.242 107.853 113.584 108.716 113.005 109.634H49.4863C45.5881 99.8459 36.0236 92.9187 24.8542 92.9187C17.3112 92.9187 10.4982 96.0748 5.66451 101.144C4.74728 102.109 4.78349 103.636 5.74899 104.553C6.7145 105.476 8.24727 105.44 9.16443 104.475C13.111 100.329 18.6808 97.7462 24.8536 97.7462C33.2957 97.7462 40.6153 102.586 44.1947 109.634H39.4456C39.3672 109.634 39.2887 109.64 39.2103 109.64C36.1447 104.764 30.7198 101.524 24.5345 101.524C14.9699 101.524 7.2094 109.284 7.2094 118.849C7.2094 128.414 14.9696 136.174 24.5345 136.174C30.7198 136.174 36.1447 132.933 39.2103 128.058H39.2163C39.2887 128.064 39.3672 128.07 39.4456 128.07H113.005C116.071 132.933 121.502 136.174 127.675 136.174C137.239 136.174 145 128.414 145 118.849C145 111.064 139.853 104.475 132.78 102.29C132.774 102.248 132.762 102.199 132.75 102.157L125.207 74.1821C124.881 72.9813 123.71 72.2391 122.516 72.4201L110.326 26.7569C110.489 26.6241 110.64 26.4853 110.791 26.3345C112.016 25.1095 112.704 23.444 112.704 21.7121V20.5353C112.704 18.8035 112.016 17.138 110.791 15.9129C109.566 14.6819 107.9 14 106.168 14H80.8303C79.0923 14 77.4269 14.6819 76.2018 15.9129C74.9768 17.1379 74.2889 18.8035 74.2889 20.5353V21.7121C74.2889 23.444 74.9768 25.1094 76.2018 26.3345C77.4268 27.5655 79.0923 28.2474 80.8303 28.2474L96.2106 28.2479ZM24.5342 106.352C31.4315 106.352 37.0315 111.952 37.0315 118.85C37.0315 125.747 31.4315 131.347 24.5342 131.347C17.6369 131.347 12.037 125.747 12.037 118.85C12.037 111.952 17.6369 106.352 24.5342 106.352ZM127.675 106.352C134.573 106.352 140.173 111.952 140.173 118.85C140.173 125.747 134.573 131.347 127.675 131.347C120.778 131.347 115.178 125.747 115.178 118.85C115.178 111.952 120.778 106.352 127.675 106.352ZM24.5342 110.776C20.0748 110.776 16.4541 114.396 16.4541 118.85C16.4541 123.309 20.0748 126.93 24.5342 126.93C28.9937 126.93 32.6144 123.309 32.6144 118.85C32.6144 114.396 28.9937 110.776 24.5342 110.776ZM127.675 110.776C123.216 110.776 119.595 114.396 119.595 118.85C119.595 123.309 123.216 126.93 127.675 126.93C132.135 126.93 135.756 123.309 135.756 118.85C135.756 114.396 132.135 110.776 127.675 110.776ZM110.911 114.463H41.2986C41.6667 115.863 41.8598 117.335 41.8598 118.85C41.8598 120.364 41.6667 121.837 41.2986 123.243H110.911C110.543 121.837 110.35 120.364 110.35 118.85C110.35 117.335 110.543 115.862 110.911 114.463ZM24.5342 115.603C26.3265 115.603 27.7868 117.051 27.7868 118.85C27.7868 120.648 26.3265 122.102 24.5342 122.102C22.7359 122.102 21.2816 120.648 21.2816 118.85C21.2816 117.051 22.7359 115.603 24.5342 115.603ZM127.675 115.603C129.468 115.603 130.928 117.051 130.928 118.85C130.928 120.648 129.468 122.102 127.675 122.102C125.877 122.102 124.423 120.648 124.423 118.85C124.423 117.051 125.877 115.603 127.675 115.603ZM127.579 101.525L121.17 77.767L112.692 80.0541L119.1 103.799C121.599 102.369 124.495 101.543 127.579 101.525ZM78.4707 51.3537C78.4707 50.2554 77.7285 49.296 76.6604 49.0124C75.5923 48.7408 74.4819 49.2236 73.9449 50.1831L58.146 78.6772C57.7297 79.4255 57.7417 80.3366 58.1762 81.0789C58.6107 81.8091 59.4012 82.2677 60.2582 82.2677H71.0055V98.8204C71.0055 99.9126 71.7416 100.878 72.7977 101.156C73.8598 101.433 74.9762 100.963 75.5192 100.009L91.8418 71.1829C92.2702 70.4407 92.2642 69.5235 91.8297 68.7751C91.3952 68.0329 90.6047 67.5803 89.7417 67.5803H78.4694L78.4707 51.3537ZM73.6432 60.689V69.9941C73.6432 71.3277 74.7233 72.4079 76.057 72.4079H85.6035L75.8337 89.6604V79.8543C75.8337 78.5207 74.7475 77.4406 73.42 77.4406H64.3562L73.6432 60.689ZM113.628 74.8036L117.846 73.663L105.729 28.2485H101.209L113.628 74.8036ZM107.877 20.5357V21.7124C107.877 22.165 107.696 22.5995 107.376 22.9193C107.056 23.2452 106.622 23.4202 106.169 23.4202H80.8309C80.3723 23.4202 79.9378 23.2452 79.618 22.9193C79.2982 22.5995 79.1172 22.165 79.1172 21.7124V20.5357C79.1172 20.0831 79.2982 19.6486 79.618 19.3288C79.9378 19.0029 80.3723 18.8279 80.8309 18.8279H106.169C106.622 18.8279 107.056 19.0029 107.376 19.3288C107.696 19.6486 107.877 20.0831 107.877 20.5357Z" fill="#663366"/>
</svg>
