<svg width="150" height="150" viewBox="0 0 150 150" fill="none" xmlns="http://www.w3.org/2000/svg">
<path d="M98.9297 30.0469L101.39 32.2833" stroke="#663366" stroke-width="3.35463" stroke-miterlimit="10" stroke-linecap="round" stroke-linejoin="round"/>
<path d="M74.5527 5.67188L77.0128 7.9083" stroke="#663366" stroke-width="3.35463" stroke-miterlimit="10" stroke-linecap="round" stroke-linejoin="round"/>
<path d="M80.1434 19.9855L73.4341 13.2762C72.9868 12.8289 72.9868 11.9343 73.4341 11.487L78.5779 6.34328C79.0252 5.89599 79.9197 5.89599 80.367 6.34328L88.1945 14.1708C88.4181 14.8417 88.4181 15.7363 87.7472 16.1835L81.7089 20.2091C81.0379 20.6564 80.5906 20.4327 80.1434 19.9855Z" stroke="#663366" stroke-width="3.35463" stroke-miterlimit="10" stroke-linecap="round" stroke-linejoin="round"/>
<path d="M86.853 26.915L93.5622 33.6243C94.0095 34.0715 94.9041 34.0715 95.3514 33.6243L100.495 28.4805C100.942 28.0332 100.942 27.1386 100.495 26.6913L92.444 19.0875C91.9967 18.4166 91.1022 18.6402 90.6549 19.0875L86.6293 25.1258C86.4057 25.7968 86.4057 26.4677 86.853 26.915Z" stroke="#663366" stroke-width="3.35463" stroke-miterlimit="10" stroke-linecap="round" stroke-linejoin="round"/>
<path d="M86.1816 17.3008L89.7599 20.6554" stroke="#663366" stroke-width="3.35463" stroke-miterlimit="10" stroke-linecap="round" stroke-linejoin="round"/>
<path d="M54.6484 83.7227H64.0414V94.9048H54.6484V83.7227Z" stroke="#663366" stroke-width="3.35463" stroke-miterlimit="10" stroke-linecap="round" stroke-linejoin="round"/>
<path d="M68.9616 25.3516L29.377 53.9778H108.323L68.9616 25.3516Z" stroke="#663366" stroke-width="3.35463" stroke-miterlimit="10" stroke-linecap="round" stroke-linejoin="round"/>
<path d="M94.2324 53.9766V81.2609" stroke="#663366" stroke-width="3.35463" stroke-miterlimit="10" stroke-linecap="round" stroke-linejoin="round"/>
<path d="M43.4658 144.775V53.9766" stroke="#663366" stroke-width="3.35463" stroke-miterlimit="10" stroke-linecap="round" stroke-linejoin="round"/>
<path d="M5.22266 145.001V82.3811C5.22266 79.2501 7.90636 76.5664 11.0374 76.5664H43.4655V145.001" stroke="#663366" stroke-width="3.35463" stroke-miterlimit="10" stroke-linecap="round" stroke-linejoin="round"/>
<path d="M5.22266 144.777H98.9288" stroke="#663366" stroke-width="3.35463" stroke-miterlimit="10" stroke-linecap="round" stroke-linejoin="round"/>
<path d="M56.2139 144.776V129.121C56.2139 126.661 58.2266 124.648 60.6867 124.648H77.2362C79.6963 124.648 81.7091 126.661 81.7091 129.121V144.776" stroke="#663366" stroke-width="3.35463" stroke-miterlimit="10" stroke-linecap="round" stroke-linejoin="round"/>
<path d="M68.9612 47.4907C72.2961 47.4907 74.9995 44.7873 74.9995 41.4524C74.9995 38.1175 72.2961 35.4141 68.9612 35.4141C65.6263 35.4141 62.9229 38.1175 62.9229 41.4524C62.9229 44.7873 65.6263 47.4907 68.9612 47.4907Z" stroke="#663366" stroke-width="3.35463" stroke-miterlimit="10" stroke-linecap="round" stroke-linejoin="round"/>
<path d="M12.6035 105.191H20.8783V116.374H12.6035V105.191Z" stroke="#663366" stroke-width="3.35463" stroke-miterlimit="10" stroke-linecap="round" stroke-linejoin="round"/>
<path d="M12.6035 125.543H20.8783V136.725H12.6035V125.543Z" stroke="#663366" stroke-width="3.35463" stroke-miterlimit="10" stroke-linecap="round" stroke-linejoin="round"/>
<path d="M12.6035 84.6172H20.8783V95.7993H12.6035V84.6172Z" stroke="#663366" stroke-width="3.35463" stroke-miterlimit="10" stroke-linecap="round" stroke-linejoin="round"/>
<path d="M27.5869 105.191H35.8617V116.374H27.5869V105.191Z" stroke="#663366" stroke-width="3.35463" stroke-miterlimit="10" stroke-linecap="round" stroke-linejoin="round"/>
<path d="M27.5869 125.543H35.8617V136.725H27.5869V125.543Z" stroke="#663366" stroke-width="3.35463" stroke-miterlimit="10" stroke-linecap="round" stroke-linejoin="round"/>
<path d="M27.5869 84.6172H35.8617V95.7993H27.5869V84.6172Z" stroke="#663366" stroke-width="3.35463" stroke-miterlimit="10" stroke-linecap="round" stroke-linejoin="round"/>
<path d="M54.6484 104.297H64.0414V115.479H54.6484V104.297Z" stroke="#663366" stroke-width="3.35463" stroke-miterlimit="10" stroke-linecap="round" stroke-linejoin="round"/>
<path d="M54.6484 63.3711H64.0414V74.5532H54.6484V63.3711Z" stroke="#663366" stroke-width="3.35463" stroke-miterlimit="10" stroke-linecap="round" stroke-linejoin="round"/>
<path d="M73.8818 83.7227H83.0512V94.9048H73.8818V83.7227Z" stroke="#663366" stroke-width="3.35463" stroke-miterlimit="10" stroke-linecap="round" stroke-linejoin="round"/>
<path d="M73.8818 104.297H83.0512V115.479H73.8818V104.297Z" stroke="#663366" stroke-width="3.35463" stroke-miterlimit="10" stroke-linecap="round" stroke-linejoin="round"/>
<path d="M73.8818 63.3711H83.0512V74.5532H73.8818V63.3711Z" stroke="#663366" stroke-width="3.35463" stroke-miterlimit="10" stroke-linecap="round" stroke-linejoin="round"/>
<path d="M68.9609 124.871V144.999" stroke="#663366" stroke-width="3.35463" stroke-miterlimit="10" stroke-linecap="round" stroke-linejoin="round"/>
<path d="M108.993 70.9727C107.651 70.9727 106.533 72.0909 106.533 73.4327V81.9311C106.533 83.273 105.415 84.3912 104.073 84.3912H95.5743C94.2325 84.3912 93.1143 85.5094 93.1143 86.8513V139.854C93.1143 142.538 95.3507 144.775 98.0344 144.775H139.856C142.539 144.775 144.776 142.538 144.776 139.854V76.1164C144.776 73.4327 142.539 71.1963 139.856 71.1963H108.993V70.9727Z" stroke="#663366" stroke-width="3.35463" stroke-miterlimit="10" stroke-linecap="round" stroke-linejoin="round"/>
<path d="M108.993 70.9727H107.427C106.086 70.9727 104.744 71.4199 103.849 72.5381L94.4561 81.9311C93.5616 82.8257 92.8906 84.1676 92.8906 85.5094V87.0749" stroke="#663366" stroke-width="3.35463" stroke-miterlimit="10" stroke-linecap="round" stroke-linejoin="round"/>
<path d="M133.594 113.02H104.073" stroke="#663366" stroke-width="3.35463" stroke-miterlimit="10" stroke-linecap="round" stroke-linejoin="round"/>
<path d="M133.594 122.859H104.073" stroke="#663366" stroke-width="3.35463" stroke-miterlimit="10" stroke-linecap="round" stroke-linejoin="round"/>
<path d="M133.594 102.953H104.073" stroke="#663366" stroke-width="3.35463" stroke-miterlimit="10" stroke-linecap="round" stroke-linejoin="round"/>
<path d="M133.594 93.1133H104.073" stroke="#663366" stroke-width="3.35463" stroke-miterlimit="10" stroke-linecap="round" stroke-linejoin="round"/>
<path d="M133.593 83.0508H117.938" stroke="#663366" stroke-width="3.35463" stroke-miterlimit="10" stroke-linecap="round" stroke-linejoin="round"/>
<path d="M133.594 132.922H104.073" stroke="#663366" stroke-width="3.35463" stroke-miterlimit="10" stroke-linecap="round" stroke-linejoin="round"/>
<path d="M145 15.957V25.1264" stroke="#663366" stroke-width="3.35463" stroke-miterlimit="10" stroke-linecap="round" stroke-linejoin="round"/>
<path d="M134.488 21.1016V35.191C134.488 39.4402 110.559 39.4402 110.559 35.191V21.1016" stroke="#663366" stroke-width="3.35463" stroke-miterlimit="10" stroke-linecap="round" stroke-linejoin="round"/>
<path d="M144.776 15.9585L122.636 26.9169L100.271 15.9585L122.636 5L144.776 15.9585Z" stroke="#663366" stroke-width="3.35463" stroke-miterlimit="10" stroke-linecap="round" stroke-linejoin="round"/>
<path d="M135.83 63.8191C140.895 63.8191 145 59.7139 145 54.6498C145 49.5857 140.895 45.4805 135.83 45.4805C130.766 45.4805 126.661 49.5857 126.661 54.6498C126.661 59.7139 130.766 63.8191 135.83 63.8191Z" stroke="#663366" stroke-width="3.35463" stroke-miterlimit="10" stroke-linecap="round" stroke-linejoin="round"/>
<path d="M126.661 54.6484H116.82" stroke="#663366" stroke-width="3.35463" stroke-miterlimit="10" stroke-linecap="round" stroke-linejoin="round"/>
<path d="M5 19.0898H19.0895V56.4381H5V19.0898Z" stroke="#663366" stroke-width="3.35463" stroke-miterlimit="10" stroke-linecap="round" stroke-linejoin="round"/>
<path d="M19.3131 56.4375V62.9231C19.3131 66.0541 16.1821 68.7378 12.1566 68.7378C8.35463 68.7378 5 66.0541 5 62.9231V56.4375" stroke="#663366" stroke-width="3.35463" stroke-miterlimit="10" stroke-linecap="round" stroke-linejoin="round"/>
<path d="M5.22266 19.0895L12.1556 5L19.3121 19.0895" stroke="#663366" stroke-width="3.35463" stroke-miterlimit="10" stroke-linecap="round" stroke-linejoin="round"/>
</svg>
