<svg width="150" height="150" viewBox="0 0 150 150" fill="none" xmlns="http://www.w3.org/2000/svg">
<path fill-rule="evenodd" clip-rule="evenodd" d="M52.3338 140.345C44.0554 143.523 36.3308 145.133 29.651 144.983C22.613 144.827 16.7114 142.739 12.4768 138.51C4.29648 130.318 4.13506 115.85 10.4865 99.0683C13.2786 91.6956 17.3342 83.8494 22.5146 75.8834C17.1784 67.6857 13.042 59.6145 10.2442 52.0634C4.13492 35.5524 4.4003 21.3496 12.4825 13.2668C15.9207 9.82862 20.4665 7.80372 25.8375 7.08258C30.8391 6.40762 36.5619 6.87491 42.7459 8.39212C43.0343 7.93061 43.3747 7.50372 43.7612 7.1172C45.0707 5.81343 46.8707 5 48.8666 5V5.00577C50.8627 5.00577 52.6683 5.81342 53.9721 7.11145C55.2816 8.41521 56.0892 10.2209 56.0892 12.2169C56.0892 12.4649 56.0777 12.7072 56.0546 12.9495C60.8544 15.0205 65.8041 17.5819 70.8115 20.6049C72.2364 21.4644 73.6729 22.3644 75.1094 23.2989C83.0762 18.1185 90.9219 14.0629 98.2884 11.2708C115.07 4.91921 129.538 5.08078 137.724 13.2669C145.807 21.3492 146.072 35.5583 139.963 52.0635C137.119 59.7476 132.884 67.969 127.421 76.3102C130.173 80.5101 132.803 84.8886 135.14 89.3249C144.751 107.555 149.435 126.736 137.765 138.464L137.719 138.51L137.724 138.516C130.167 146.079 117.257 146.794 102.125 141.867C93.6621 139.11 84.4666 134.575 75.1034 128.484C71.7402 130.67 68.4057 132.654 65.1175 134.425C65.2213 134.916 65.279 135.429 65.279 135.954C65.279 137.945 64.4656 139.75 63.1561 141.06C61.8465 142.363 60.0466 143.177 58.0621 143.177C56.0718 143.177 54.2662 142.369 52.9567 141.06C52.7317 140.823 52.5242 140.593 52.3338 140.345ZM92.4684 27.3724C94.3144 27.3724 96.0279 27.9378 97.4527 28.9128C98.4104 29.5647 99.2353 30.4011 99.8699 31.3704C100.303 31.2665 100.758 31.2146 101.22 31.2146C102.241 31.2146 103.21 31.48 104.064 31.9473C104.468 32.1665 104.843 32.4376 105.183 32.7376C105.402 32.6626 105.627 32.5934 105.858 32.5357C106.556 32.3569 107.283 32.2646 108.027 32.2646C110.439 32.2646 112.625 33.2453 114.211 34.826C115.792 36.4067 116.773 38.5931 116.773 41.0103C116.773 43.3524 115.844 45.4811 114.338 47.0562C112.885 48.5733 110.883 49.5656 108.645 49.7272C108.541 49.7445 108.437 49.756 108.327 49.756H106.724C111.916 55.3345 118.775 63.6187 125.224 73.0399C130.127 65.3845 133.952 57.8683 136.56 50.8179C142.167 35.6566 142.144 22.8332 135.158 15.8404C128.068 8.75038 114.984 8.81964 99.5632 14.6635C92.8309 17.2135 85.6775 20.8593 78.3853 25.4975C80.7679 27.1359 83.1562 28.8724 85.5446 30.701C85.7465 30.4472 85.9657 30.1991 86.2022 29.9683C87.8002 28.3646 90.0223 27.3724 92.4684 27.3724ZM101.687 49.7495H88.1532C88.0436 49.7495 87.9398 49.738 87.8359 49.7207C86.2841 49.588 84.8995 48.8899 83.89 47.8285C82.8285 46.7151 82.1765 45.2153 82.1765 43.5653C82.1765 42.4 82.5054 41.304 83.0649 40.3693C83.0996 40.3174 83.1284 40.2655 83.1688 40.2193C83.4284 39.8097 83.7399 39.4405 84.0918 39.1059C84.0226 38.904 83.9591 38.6963 83.9014 38.4886C83.711 37.756 83.6072 37.0003 83.6072 36.2331C83.6072 35.46 83.7053 34.7159 83.8899 34.0005C80.9592 31.7333 78.0228 29.6103 75.0981 27.6432C66.2716 33.5851 57.3184 40.9405 48.7395 49.5181C40.1605 58.0958 32.8059 67.0556 26.8586 75.8827C31.7795 83.1918 37.6753 90.5933 44.4256 97.7931V84.2649C44.4256 83.2611 45.239 82.4477 46.2429 82.4477H49.6178V77.296C49.6178 76.673 49.9293 76.1249 50.4081 75.7961L60.6479 67.189C61.4152 66.5486 62.5517 66.6467 63.1921 67.4082C63.4805 67.7485 63.619 68.1581 63.619 68.5735H63.6247V82.4477H65.1824V65.7933C65.1824 64.7896 65.9958 63.9761 66.9996 63.9761H71.6667L73.5473 50.7423L75.578 36.4757C75.7222 35.4835 76.6337 34.797 77.6259 34.9354C78.4509 35.0565 79.0681 35.7142 79.172 36.5045L81.1969 50.7364L83.0775 63.9702H87.7446C88.7484 63.9702 89.5619 64.7836 89.5619 65.7874V76.1483H95.3769C95.8846 76.1483 96.3461 76.356 96.6749 76.6964L105.236 85.2575C105.594 85.6094 105.773 86.0767 105.773 86.5439V97.7991C112.395 90.738 118.193 83.4807 123.056 76.3037C115.458 65.014 107.128 55.2522 101.687 49.7495ZM95.4106 31.9063C94.5741 31.3352 93.5645 31.0064 92.4684 31.0064C91.0262 31.0064 89.7166 31.589 88.7705 32.5352C87.8244 33.4813 87.2359 34.785 87.2359 36.2331C87.2359 36.7061 87.2936 37.1503 87.4032 37.5657C87.5186 38.0099 87.6917 38.4252 87.9051 38.806C87.9167 38.8233 87.9224 38.8406 87.934 38.8637C88.3955 39.7521 88.0551 40.8423 87.1667 41.3038C86.786 41.5058 86.4629 41.8 86.2206 42.1519C86.2033 42.1865 86.186 42.2153 86.1687 42.25C85.9379 42.6307 85.8053 43.0864 85.8053 43.571C85.8053 44.2575 86.0706 44.8806 86.5091 45.3363C86.9244 45.7747 87.4956 46.0632 88.1302 46.1151H88.1533C88.1994 46.1151 88.2398 46.1151 88.286 46.1209H108.269C109.625 46.0632 110.848 45.469 111.73 44.546C112.607 43.6345 113.144 42.3884 113.144 41.0097C113.144 39.5963 112.573 38.3214 111.65 37.3926C110.727 36.4696 109.446 35.8985 108.038 35.8985C107.594 35.8985 107.167 35.9562 106.764 36.0542C106.342 36.1638 105.944 36.3196 105.581 36.5215C104.75 36.9773 103.7 36.7177 103.181 35.91C102.968 35.5812 102.679 35.3101 102.339 35.1255C102.016 34.9524 101.635 34.8485 101.225 34.8485C101 34.8485 100.781 34.8832 100.579 34.9351C100.389 34.9928 100.21 35.0678 100.054 35.1601C99.9447 35.2351 99.8235 35.2985 99.6966 35.3504C98.762 35.7139 97.712 35.2524 97.3487 34.3236C96.9507 33.3371 96.2701 32.4947 95.4106 31.9063ZM38.6157 112.492C37.6119 112.492 36.7985 111.678 36.7985 110.674C36.7985 109.671 37.6119 108.857 38.6157 108.857H44.425V103.036C36.8274 95.2483 30.2162 87.172 24.7122 79.1646C20.074 86.4507 16.428 93.6041 13.8782 100.342C8.04012 115.768 7.9651 128.853 15.0493 135.937C18.5914 139.479 23.6392 141.227 29.7254 141.36C35.8981 141.499 43.115 139.987 50.9151 137.005C50.8632 136.658 50.8343 136.301 50.8343 135.943C50.8343 133.953 51.642 132.147 52.9458 130.838C54.2495 129.534 56.0553 128.72 58.0512 128.72V128.726C60.0473 128.726 61.8529 129.528 63.1566 130.832C63.2662 130.942 63.3759 131.057 63.4797 131.178C66.2315 129.69 69.0178 128.057 71.8215 126.275C65.9719 122.254 60.0875 117.644 54.3017 112.487H46.2311L38.6162 112.498L38.6157 112.492ZM48.0594 108.863H65.1819V86.0871H48.0594V108.863ZM68.8164 108.863H85.9388V67.603H68.8164V108.863ZM89.5733 108.863H102.15V106.019H96.2479C95.2441 106.019 94.4307 105.205 94.4307 104.202C94.4307 103.198 95.2441 102.384 96.2479 102.384H102.15V97.9251H96.2479C95.2441 97.9251 94.4307 97.1116 94.4307 96.1078C94.4307 95.104 95.2441 94.2905 96.2479 94.2905H102.15V89.3465H96.2479C95.2441 89.3465 94.4307 88.5331 94.4307 87.5293C94.4307 86.5255 95.2441 85.712 96.2479 85.712H100.575L94.6385 79.7759H89.5733V108.863ZM105.785 108.863H111.594C112.598 108.863 113.411 109.676 113.411 110.68C113.411 111.684 112.598 112.497 111.594 112.497H95.9143C90.7626 117.084 85.5072 121.26 80.2406 124.987C79.6233 125.426 79.006 125.852 78.3888 126.274C87.0191 131.76 95.464 135.867 103.247 138.405C117.064 142.911 128.653 142.444 135.16 135.936L135.166 135.942L135.2 135.908C145.429 125.627 140.883 107.975 131.935 91.0146C129.887 87.1321 127.609 83.2899 125.22 79.5806C119.774 87.4551 113.255 95.3931 105.785 103.049L105.779 108.864L105.785 108.863ZM90.3871 112.492H59.8239C64.8948 116.812 70.0232 120.706 75.1121 124.127C76.1217 123.447 77.137 122.749 78.1523 122.033C82.2137 119.155 86.3083 115.97 90.3871 112.492ZM79.0454 71.428V105.038C79.0454 106.042 79.8588 106.855 80.8626 106.855C81.8664 106.855 82.6799 106.042 82.6799 105.038V71.428C82.6799 70.4242 81.8665 69.6108 80.8626 69.6108C79.8589 69.6108 79.0454 70.4242 79.0454 71.428ZM72.0765 71.428V105.038C72.0765 106.042 72.8899 106.855 73.8937 106.855C74.8975 106.855 75.711 106.042 75.711 105.038V71.428C75.711 70.4242 74.8976 69.6108 73.8937 69.6108C72.8899 69.6108 72.0765 70.4242 72.0765 71.428ZM51.8792 103.579H61.3633C62.3671 103.579 63.1806 102.765 63.1806 101.762C63.1806 100.758 62.3672 99.9443 61.3633 99.9443H51.8792C50.8754 99.9443 50.062 100.758 50.062 101.762C50.062 102.765 50.8754 103.579 51.8792 103.579ZM51.8792 95.0062H61.3633C62.3671 95.0062 63.1806 94.1928 63.1806 93.189C63.1806 92.1852 62.3672 91.3717 61.3633 91.3717H51.8792C50.8754 91.3717 50.062 92.1851 50.062 93.189C50.062 94.1928 50.8754 95.0062 51.8792 95.0062ZM75.33 63.9749H79.4201L77.6086 51.2544L77.372 49.5987L77.1355 51.2544L75.33 63.9749ZM53.2468 82.459H59.9906V72.4788L53.2468 78.1438V82.459ZM55.5255 133.41C54.8736 134.062 54.4756 134.956 54.4756 135.942C54.4756 136.929 54.8794 137.829 55.5255 138.475C56.1717 139.127 57.0716 139.525 58.058 139.525C59.0503 139.525 59.9502 139.121 60.6022 138.475C61.2483 137.835 61.6463 136.935 61.6463 135.942C61.6463 134.956 61.2425 134.056 60.5964 133.41C59.9445 132.758 59.0445 132.354 58.0639 132.354V132.36C57.0717 132.36 56.1718 132.758 55.5255 133.41ZM41.6571 11.8528C35.9864 10.4855 30.8 10.0645 26.3172 10.6644C21.7481 11.2816 17.9062 12.9719 15.0505 15.8276C8.06434 22.8137 8.04131 35.6438 13.6487 50.805C16.2044 57.7219 19.931 65.0889 24.7077 72.5943C30.6266 63.9756 37.8377 55.2754 46.1677 46.946C54.4979 38.6158 63.1912 31.4053 71.81 25.4861C70.8466 24.8746 69.8832 24.2746 68.9199 23.6978C64.0856 20.7787 59.3377 18.3154 54.7688 16.3309C54.5265 16.6828 54.2496 17.0058 53.9496 17.3058C52.64 18.6096 50.8401 19.423 48.8557 19.423C46.8653 19.423 45.0598 18.6154 43.7502 17.3058C42.4465 16.002 41.6388 14.1963 41.6388 12.2004C41.6446 12.0965 41.6503 11.9754 41.6561 11.8542L41.6571 11.8528ZM46.33 9.67783C45.6839 10.3239 45.2801 11.2239 45.2801 12.2103C45.2801 13.1967 45.6839 14.0967 46.33 14.7428C46.9819 15.3889 47.8761 15.7927 48.8625 15.7927C49.8547 15.7927 50.7546 15.3889 51.4066 14.7428C52.0528 14.0967 52.4508 13.2025 52.4508 12.2103C52.4508 11.2182 52.047 10.3239 51.4009 9.67783C50.749 9.02594 49.849 8.62213 48.8684 8.62213V8.62789C47.8761 8.63366 46.9763 9.03171 46.33 9.67783Z" fill="#663366"/>
</svg>
