<svg width="150" height="150" viewBox="0 0 150 150" fill="none" xmlns="http://www.w3.org/2000/svg">
<path d="M9.83827 144.98C36.8617 145.042 112.786 144.93 140.859 144.98C141.885 144.98 142.712 144.152 142.712 143.127C142.712 142.102 141.885 141.275 140.859 141.275H125.755C125.545 141.275 125.329 141.268 125.119 141.262C114.022 140.818 107.963 128.955 107.963 122.984V66.9991C107.963 66.431 107.704 65.8937 107.253 65.5417L98.6569 58.7983V51.5979C98.6569 51.0298 98.3975 50.4926 97.9467 50.1406L94.6182 47.5347C94.6429 47.3865 94.612 34.7147 94.6244 34.5666C94.5873 32.1335 90.9563 32.1335 90.9191 34.5666V44.6323L88.1218 42.4401C87.566 42.0017 86.8064 41.9214 86.1703 42.2302C85.5343 42.5389 85.1267 43.1874 85.1267 43.8975V48.1956L78.8155 43.243C78.2598 42.8046 77.5002 42.7243 76.8641 43.0331C76.228 43.3419 75.8205 43.9903 75.8205 44.7004V61.6948H72.4241V49.3937C72.4241 48.3686 71.5966 47.5411 70.5715 47.5411C69.5464 47.5411 68.7189 48.3686 68.7189 49.3937V61.6948H66.0141V35.6594C66.0141 34.6343 65.1867 33.8068 64.1615 33.8068H53.8735V28.8789C53.8735 27.8538 53.046 27.0263 52.0209 27.0263H48.8715V15.2315C48.8715 14.2064 48.044 13.3789 47.0188 13.3789C45.9937 13.3789 45.1662 14.2064 45.1662 15.2315V27.0263H42.0168C40.9917 27.0263 40.1642 27.8538 40.1642 28.8789V33.8068H29.8762C28.8511 33.8068 28.0235 34.6343 28.0235 35.6594V97.764C24.59 98.2951 21.8853 101.049 21.4283 104.507C16.4016 106.693 14.7714 113.82 18.4272 117.945C14.58 123.898 20.6132 131.79 27.3752 129.622V141.294H17.2972V138.7C21.0024 137.138 20.6442 134.001 20.6009 130.586C20.6009 129.561 19.7734 128.733 18.7482 128.733H12.1407C11.1156 128.733 10.288 129.561 10.288 130.586V133.889C10.288 136.075 11.659 137.953 13.5917 138.694V141.287H9.82484C7.39172 141.324 7.39172 144.955 9.82484 144.993L9.83827 144.98ZM88.8329 47.6818L94.9465 52.48V55.8702L88.8329 51.072V47.6818ZM14.007 132.42H16.9094C16.9217 133.63 17.1317 135.236 15.4582 135.322C13.7847 135.236 13.9947 133.63 14.007 132.42ZM50.3861 136.076H37.6898V134.581H50.3861V136.076ZM37.696 139.781H50.3923V141.275H37.696V139.781ZM52.2759 117.661C52.0536 115.796 49.6576 115.784 49.6328 112.363C49.6328 110.152 51.1211 108.176 53.2516 107.558C54.0667 107.324 54.6225 106.564 54.5916 105.718C54.4805 99.9317 63.027 99.9504 62.8974 105.718C62.8727 106.57 63.4161 107.324 64.2374 107.558C68.0908 108.583 69.1407 113.925 65.9171 116.302C65.0402 116.951 64.9661 118.34 65.7566 119.087C66.5655 119.878 67.0101 120.94 67.0101 122.064C67.0101 125.399 63.4162 127.165 60.594 125.683V119.952L62.8418 117.099C64.3301 115.185 61.4339 112.912 59.927 114.808L58.5376 116.574L56.4565 114.61C54.6904 112.955 52.1584 115.636 53.9123 117.303L56.8887 120.112V125.571C54.2457 127.387 50.38 125.294 50.4664 122.076C50.4664 120.952 50.9111 119.89 51.7262 119.1C52.1091 118.729 52.3067 118.204 52.282 117.667L52.2759 117.661ZM79.5206 48.4853L104.253 67.8874V70.4686H96.4725C95.4474 70.4686 94.6199 71.2961 94.6199 72.3213C94.6199 73.3464 95.4474 74.1739 96.4725 74.1739H104.253V79.0523H96.4725C95.4474 79.0523 94.6199 79.8798 94.6199 80.9049C94.6199 81.93 95.4474 82.7576 96.4725 82.7576H104.253V87.636H96.4725C95.4474 87.636 94.6199 88.4635 94.6199 89.4886C94.6199 90.5137 95.4474 91.3412 96.4725 91.3412H104.253V96.2197H96.4725C95.4474 96.2197 94.6199 97.0471 94.6199 98.0723C94.6199 99.0974 95.4474 99.9249 96.4725 99.9249H104.253V104.803H96.4725C95.4474 104.803 94.6199 105.631 94.6199 106.656C94.6199 107.681 95.4474 108.509 96.4725 108.509H104.253V113.387H96.4725C95.4474 113.387 94.6199 114.214 94.6199 115.24C94.6199 116.265 95.4474 117.092 96.4725 117.092H104.253C103.624 126.071 105.612 134.779 114.412 141.275H69.3632C75.7609 136.718 79.5216 128.862 79.5216 122.978L79.5206 48.4853ZM75.8154 70.469H68.0407C67.0156 70.469 66.188 71.2965 66.188 72.3216C66.188 73.3467 67.0155 74.1742 68.0407 74.1742H75.8154V79.0526H68.0407C67.0156 79.0526 66.188 79.8801 66.188 80.9053C66.188 81.9304 67.0155 82.7579 68.0407 82.7579H75.8154V87.6363H68.0407C67.0156 87.6363 66.188 88.4638 66.188 89.4889C66.188 90.5141 67.0155 91.3415 68.0407 91.3415H75.8154V96.22H68.0407C67.0156 96.22 66.188 97.0475 66.188 98.0726C66.188 99.0977 67.0155 99.9252 68.0407 99.9252H75.8154V122.978C75.8154 128.597 70.4553 139.428 60.5872 141.06V129.604C67.349 131.766 73.3761 123.874 69.5352 117.927C73.1972 113.802 71.5606 106.676 66.5403 104.49C66.0092 99.5246 60.3897 96.2023 55.7459 98.2402V65.3754H75.8151V70.4762L75.8154 70.469ZM43.877 30.7005H50.1697V33.7819H43.877V30.7005ZM25.1294 126.233C22.8323 126.233 20.9673 124.368 20.9673 122.071C20.9673 120.947 21.4119 119.885 22.2271 119.094C22.6099 118.724 22.8076 118.199 22.7828 117.661C22.5605 115.796 20.1646 115.784 20.1398 112.363C20.1398 110.152 21.628 108.176 23.7586 107.559C24.5984 107.318 25.1542 106.521 25.0924 105.644C25.0677 99.9198 33.5278 99.9754 33.4043 105.712C33.3796 106.564 33.9231 107.318 34.7382 107.552C38.5916 108.578 39.6414 113.913 36.4179 116.297C35.541 116.945 35.4669 118.335 36.2573 119.082C37.0663 119.872 37.5109 120.928 37.5109 122.058C37.5109 125.393 33.917 127.159 31.0886 125.677V119.946L33.3365 117.093C34.8247 115.179 31.9285 112.906 30.4216 114.802L29.0322 116.568L26.9573 114.605C25.1911 112.95 22.6592 115.624 24.413 117.297L27.3895 120.107V125.566C26.7226 125.998 25.9383 126.233 25.1355 126.233L25.1294 126.233ZM31.0947 129.604C37.8566 131.772 43.89 123.874 40.0428 117.921C43.7109 113.796 42.0682 106.669 37.0478 104.483C36.6588 101.47 34.5777 98.9811 31.737 98.0426V91.3362C33.3487 91.2744 35.8745 91.8611 35.9979 89.4836C35.8744 87.1061 33.3425 87.6927 31.737 87.6309V80.3564C33.3487 80.2946 35.8745 80.8813 35.9979 78.5038C35.8744 76.1263 33.3425 76.7129 31.737 76.6511V69.3766C33.3487 69.3148 35.8745 69.9015 35.9979 67.524C35.8744 65.1465 33.3425 65.7331 31.737 65.6713V58.3968C33.3549 58.3289 35.9238 58.9402 36.0474 56.5442C35.9239 54.1482 33.355 54.7595 31.737 54.6915V47.417C33.3549 47.3491 35.9238 47.9604 36.0474 45.5644C35.9239 43.1684 33.355 43.7797 31.737 43.7117V37.4932H62.3174V43.7117H44.6686C43.6435 43.7117 42.8159 44.5392 42.8159 45.5644C42.8159 46.5895 43.6434 47.417 44.6686 47.417H62.3174V54.6915H44.6686C43.6435 54.6915 42.8159 55.519 42.8159 56.5442C42.8159 57.5693 43.6434 58.3968 44.6686 58.3968H62.3174V61.6697H53.9067C51.628 61.7932 52.0851 64.078 52.0541 65.6712H44.6746C43.6495 65.6712 42.8219 66.4987 42.8219 67.5238C42.8219 68.5489 43.6494 69.3764 44.6746 69.3764H52.0541V76.651H44.6746C43.6495 76.651 42.8219 77.4785 42.8219 78.5036C42.8219 79.5287 43.6494 80.3562 44.6746 80.3562H52.0541V87.1491H44.6746C43.6495 87.1491 42.8219 87.9766 42.8219 89.0017C42.8219 90.0268 43.6494 90.8543 44.6746 90.8543H52.0541V101.389C51.4613 102.34 51.0907 103.39 50.9425 104.496C45.9158 106.682 44.2856 113.808 47.9476 117.933C44.1004 123.886 50.1336 131.778 56.8956 129.61V141.282H54.0983V132.741C54.0983 131.716 53.2708 130.889 52.2456 130.889H35.8441C34.819 130.889 33.9915 131.716 33.9915 132.741V141.282H31.0953L31.0947 129.604Z" fill="#663366"/>
<path d="M90.5135 8.70399C104.766 8.70399 116.358 20.295 116.358 34.5481C116.358 35.5732 117.185 36.4007 118.21 36.4007C119.235 36.4007 120.063 35.5732 120.063 34.5481C120.063 18.2572 106.811 5 90.5147 5C89.4896 5 88.6621 5.82749 88.6621 6.85263C88.6621 7.87773 89.4896 8.70525 90.5147 8.70525L90.5135 8.70399Z" fill="#663366"/>
<path d="M90.5111 17.6024C99.8481 17.6024 107.45 25.2104 107.45 34.5478C107.487 36.9748 111.118 36.9933 111.155 34.5478C111.155 23.1668 101.892 13.8984 90.5108 13.8984C89.4857 13.8984 88.6582 14.7259 88.6582 15.7511C88.6582 16.7762 89.486 17.6024 90.5111 17.6024Z" fill="#663366"/>
<path d="M90.505 26.5026C94.9388 26.5026 98.5513 30.1089 98.5513 34.5489C98.5513 35.574 99.3788 36.4016 100.404 36.4016C101.429 36.4016 102.257 35.5741 102.257 34.5489C102.689 24.7735 89.0537 19.7344 88.6523 24.65C88.6523 25.6751 89.4798 26.5026 90.505 26.5026Z" fill="#663366"/>
</svg>
