<svg width="150" height="150" viewBox="0 0 150 150" fill="none" xmlns="http://www.w3.org/2000/svg">
<path d="M88.125 82.8203C84.0781 82.8203 80.25 84.3516 77.4062 87.1953C76.5312 88.0703 76.5312 89.3828 77.4062 90.2578C78.2812 91.1328 79.5938 91.1328 80.4688 90.2578C82.5469 88.1797 85.1719 87.0859 88.0156 87.0859C90.8594 87.0859 93.5938 88.1797 95.5625 90.2578C96 90.6953 96.5469 90.9141 97.0938 90.9141C97.6406 90.9141 98.1875 90.6953 98.625 90.2578C99.5 89.3828 99.5 88.0703 98.625 87.1953C96 84.3516 92.1719 82.8203 88.125 82.8203Z" fill="#663366"/>
<path d="M71.9375 80.6328C71.0625 81.5078 71.0625 82.8203 71.9375 83.6953C72.8125 84.5703 74.125 84.5703 75 83.6953C82.2188 76.4766 93.921 76.4766 101.142 83.6953C101.579 84.1328 102.126 84.3516 102.673 84.3516C103.22 84.3516 103.767 84.1328 104.204 83.6953C105.079 82.8203 105.079 81.5078 104.204 80.6328C95.3446 71.7734 80.908 71.7734 71.9375 80.6328Z" fill="#663366"/>
<path d="M66.4688 74.0703C65.5938 74.9453 65.5938 76.2578 66.4688 77.1328C67.3438 78.0078 68.6562 78.0078 69.5312 77.1328C74.4531 72.2109 81.125 69.4766 88.125 69.4766C95.125 69.4766 101.688 72.2109 106.719 77.1328C107.156 77.5703 107.703 77.7891 108.25 77.7891C108.797 77.7891 109.344 77.5703 109.781 77.1328C110.656 76.2578 110.656 74.9453 109.781 74.0703C103.984 68.2734 96.3281 65.1016 88.125 65.1016C79.9219 65.1016 72.2656 68.2734 66.4688 74.0703Z" fill="#663366"/>
<path d="M145 112.133C145 102.508 137.125 94.6328 127.5 94.6328C117.875 94.6328 110 102.508 110 112.133C110 120.992 116.672 128.43 125.312 129.523V140.57H101.25C100.047 140.57 99.0625 141.555 99.0625 142.758C99.0625 143.961 100.047 144.945 101.25 144.945H142.812C144.016 144.945 145 143.961 145 142.758V130.727C145 129.523 144.016 128.539 142.812 128.539C141.609 128.539 140.625 129.523 140.625 130.727V140.57H129.688V129.523C138.328 128.43 145 120.992 145 112.133ZM114.375 112.133C114.375 104.914 120.281 99.0078 127.5 99.0078C134.719 99.0078 140.625 104.914 140.625 112.133C140.625 118.586 135.922 124.055 129.688 125.039V119.57L136.141 113.117C137.016 112.242 137.016 110.93 136.141 110.055C135.266 109.18 133.953 109.18 133.078 110.055L129.688 113.445V105.57C129.688 104.367 128.703 103.383 127.5 103.383C126.297 103.383 125.312 104.367 125.312 105.57V118.039C125.094 118.586 125.094 119.242 125.312 119.789V125.039C119.078 124.055 114.375 118.586 114.375 112.133Z" fill="#663366"/>
<path d="M27.9688 55.2578H19.2188C18.0156 55.2578 17.0312 56.2422 17.0312 57.4453V66.1953C17.0312 67.3984 18.0156 68.3828 19.2188 68.3828C20.4219 68.3828 21.4062 67.3984 21.4062 66.1953V59.6328H27.9688C29.1719 59.6328 30.1562 58.6484 30.1562 57.4453C30.1562 56.2422 29.1719 55.2578 27.9688 55.2578Z" fill="#663366"/>
<path d="M30.1562 79.3203C30.1562 78.1172 29.1719 77.1328 27.9688 77.1328H19.2188C18.0156 77.1328 17.0312 78.1172 17.0312 79.3203V88.0703C17.0312 89.2734 18.0156 90.2578 19.2188 90.2578C20.4219 90.2578 21.4062 89.2734 21.4062 88.0703V81.5078H27.9688C29.1719 81.5078 30.1562 80.5234 30.1562 79.3203Z" fill="#663366"/>
<path d="M19.2188 99.0078C18.0156 99.0078 17.0312 99.9922 17.0312 101.195V109.945C17.0312 111.148 18.0156 112.133 19.2188 112.133C20.4219 112.133 21.4062 111.148 21.4062 109.945V103.383H25.7812C26.9844 103.383 27.9688 102.398 27.9688 101.195C27.9688 99.9922 26.9844 99.0078 25.7812 99.0078H19.2188Z" fill="#663366"/>
<path d="M88.125 49.7891C72.4844 49.7891 59.6875 62.5859 59.6875 78.2266C59.6875 93.2109 71.2812 105.46 85.9375 106.556V121.977C85.9375 123.181 86.9219 124.165 88.125 124.165C89.3281 124.165 90.3125 123.181 90.3125 121.977V106.556C104.969 105.462 116.562 93.1024 116.562 78.2266C116.562 62.5859 103.766 49.7891 88.125 49.7891ZM88.125 102.289C74.8906 102.289 64.0625 91.4609 64.0625 78.2266C64.0625 64.9922 74.8906 54.1641 88.125 54.1641C101.359 54.1641 112.188 64.9922 112.188 78.2266C112.188 91.4609 101.359 102.289 88.125 102.289Z" fill="#663366"/>
<path d="M88.125 91.3516C86.2656 91.3516 84.8438 92.7734 84.8438 94.6328C84.8438 96.4922 86.2656 97.9141 88.125 97.9141C89.9844 97.9141 91.4062 96.4922 91.4062 94.6328C91.4062 92.7734 89.9844 91.3516 88.125 91.3516Z" fill="#663366"/>
<path d="M88.125 127.445C83.3125 127.445 79.375 131.383 79.375 136.195C79.375 141.008 83.3125 144.945 88.125 144.945C92.9375 144.945 96.875 141.008 96.875 136.195C96.875 131.383 92.9375 127.445 88.125 127.445ZM88.125 140.57C85.7188 140.57 83.75 138.602 83.75 136.195C83.75 133.789 85.7188 131.82 88.125 131.82C90.5312 131.82 92.5 133.789 92.5 136.195C92.5 138.602 90.5312 140.57 88.125 140.57Z" fill="#663366"/>
<path d="M21.4062 30.9766V43.2266C21.4062 44.4297 22.3906 45.4141 23.5938 45.4141C24.7969 45.4141 25.7812 44.4297 25.7812 43.2266V30.9766C30.1562 29.9922 33.4375 26.0547 33.4375 21.3516C33.4375 15.8828 29.0625 11.5078 23.5938 11.5078C18.125 11.5078 13.75 15.8828 13.75 21.3516C13.75 26.0547 17.0312 29.9922 21.4062 30.9766ZM23.5938 15.8828C26.6562 15.8828 29.0625 18.2891 29.0625 21.3516C29.0625 24.4141 26.6562 26.8203 23.5938 26.8203C20.5312 26.8203 18.125 24.4141 18.125 21.3516C18.125 18.2891 20.5312 15.8828 23.5938 15.8828Z" fill="#663366"/>
<path d="M140.625 25.7247H135.156V14.5684C135.156 13.1466 134.5 11.8341 133.297 11.0684C132.094 10.3028 130.672 9.97469 129.359 10.5216L114.047 15.6622C112.297 16.2091 111.094 17.9591 111.094 19.8184V25.7247H105.625C103.219 25.7247 101.25 27.6934 101.25 30.0997V46.5059C101.25 47.7091 102.234 48.6934 103.438 48.6934C104.641 48.6934 105.625 47.7091 105.625 46.5059V30.0997H140.625V91.3497C140.625 92.5528 141.609 93.5372 142.812 93.5372C144.016 93.5372 145 92.5528 145 91.3497V30.0997C145 27.6934 143.031 25.7247 140.625 25.7247ZM115.469 25.7247V19.5997L130.781 14.4591V25.7247H115.469Z" fill="#663366"/>
<path d="M137.232 38.1953C136.904 36.9922 135.592 36.4453 134.498 36.7735L110.436 44.4297C109.232 44.7578 108.686 46.0703 109.014 47.1641C109.342 48.0391 110.217 48.6953 111.092 48.6953C111.311 48.6953 111.529 48.6953 111.748 48.586L135.811 40.9297C137.014 40.6016 137.561 39.2891 137.232 38.1953Z" fill="#663366"/>
<path d="M137.233 51.3203C136.905 50.1172 135.593 49.5703 134.499 49.8985L114.92 56.1328C113.717 56.461 113.17 57.7735 113.498 58.8672C113.826 59.8516 114.701 60.3985 115.576 60.3985C115.795 60.3985 116.014 60.3985 116.232 60.2891L135.811 54.0547C137.015 53.7266 137.561 52.4141 137.233 51.3203Z" fill="#663366"/>
<path d="M137.232 64.4453C136.904 63.2422 135.592 62.6953 134.498 63.0235L120.279 67.5078C119.076 67.836 118.529 69.1485 118.857 70.2422C119.186 71.2266 120.061 71.7735 120.936 71.7735C121.154 71.7735 121.373 71.7735 121.592 71.6641L135.811 67.1797C137.014 66.8516 137.561 65.5391 137.232 64.4453Z" fill="#663366"/>
<path d="M134.502 76.1485L120.283 80.6328C119.08 80.961 118.533 82.2735 118.861 83.3672C119.189 84.3516 120.064 84.8985 120.939 84.8985C121.158 84.8985 121.377 84.8985 121.596 84.7891L135.814 80.3047C137.018 79.9766 137.564 78.6641 137.236 77.5703C136.908 76.3672 135.596 75.8203 134.502 76.1485Z" fill="#663366"/>
<path d="M7.1875 144.945H71.7188C72.9219 144.945 73.9062 143.961 73.9062 142.758V116.508H80.4688C81.6719 116.508 82.6562 115.523 82.6562 114.32C82.6562 113.117 81.6719 112.133 80.4688 112.133H71.7188C70.5156 112.133 69.5312 113.117 69.5312 114.32V140.57H46.5625V132.805C55.2031 131.711 61.875 124.383 61.875 115.414C61.875 110.602 59.9062 106.117 56.5156 102.836C57.1719 101.305 57.5 99.5547 57.5 97.9141C57.5 90.6953 51.5938 84.7891 44.375 84.7891C37.1562 84.7891 31.25 90.6953 31.25 97.9141C31.25 99.5547 31.5781 101.305 32.2344 102.836C28.8438 106.117 26.875 110.602 26.875 115.414C26.875 124.273 33.5469 131.711 42.1875 132.805V140.57H9.375V45.4141H15.9375C17.1406 45.4141 18.125 44.4297 18.125 43.2266C18.125 42.0234 17.1406 41.0391 15.9375 41.0391H9.375C6.96875 41.0391 5 43.0078 5 45.4141V142.758C5 143.961 5.98438 144.945 7.1875 144.945ZM31.25 115.414C31.25 111.367 33.1094 107.648 36.2812 105.133C37.1562 104.477 37.375 103.273 36.8281 102.289C36.0625 100.977 35.625 99.4453 35.625 97.9141C35.625 93.1016 39.5625 89.1641 44.375 89.1641C49.1875 89.1641 53.125 93.1016 53.125 97.9141C53.125 99.4453 52.6875 100.977 51.9219 102.289C51.375 103.273 51.5938 104.477 52.4688 105.133C55.6406 107.648 57.5 111.367 57.5 115.414C57.5 121.867 52.7969 127.336 46.5625 128.32V121.867L53.0156 115.305C53.8906 114.43 53.8906 113.008 53.0156 112.242C52.1406 111.367 50.7188 111.367 49.9531 112.242L46.5625 115.633V102.289C46.5625 101.086 45.5781 100.102 44.375 100.102C43.1719 100.102 42.1875 101.086 42.1875 102.289V128.32C35.9531 127.336 31.25 121.867 31.25 115.414Z" fill="#663366"/>
<path d="M29.0625 43.2248C29.0625 44.4279 30.0469 45.4123 31.25 45.4123H37.8125V78.2248C37.8125 79.4279 38.7969 80.4123 40 80.4123C41.2031 80.4123 42.1875 79.4279 42.1875 78.2248V71.6623H50.9375C52.1406 71.6623 53.125 70.6779 53.125 69.4748V17.3038L71.7188 9.42881L90.3125 17.3038V42.1328C90.3125 43.3359 91.2969 44.3203 92.5 44.3203C93.7031 44.3203 94.6875 43.3359 94.6875 42.1328V15.8828C94.6875 15.0078 94.1406 14.2422 93.375 13.9141L72.5938 5.16406C72.0469 4.94531 71.3906 4.94531 70.8438 5.16406L50.0625 13.9141C49.2969 14.2422 48.75 15.0078 48.75 15.8828V67.2891H42.1875V45.4141C42.1875 43.0078 40.2188 41.0391 37.8125 41.0391H31.25C30.0469 41.0391 29.0625 42.0217 29.0625 43.2248Z" fill="#663366"/>
<path d="M60.7812 25.7266H82.6562C83.8594 25.7266 84.8438 24.7422 84.8438 23.5391C84.8438 22.3359 83.8594 21.3516 82.6562 21.3516H60.7812C59.5781 21.3516 58.5938 22.3359 58.5938 23.5391C58.5938 24.7422 59.5781 25.7266 60.7812 25.7266Z" fill="#663366"/>
<path d="M60.7812 36.6641H82.6562C83.8594 36.6641 84.8438 35.6797 84.8438 34.4766C84.8438 33.2734 83.8594 32.2891 82.6562 32.2891H60.7812C59.5781 32.2891 58.5938 33.2734 58.5938 34.4766C58.5938 35.6797 59.5781 36.6641 60.7812 36.6641Z" fill="#663366"/>
<path d="M60.7812 47.6016H82.6562C83.8594 47.6016 84.8438 46.6172 84.8438 45.4141C84.8438 44.2109 83.8594 43.2266 82.6562 43.2266H60.7812C59.5781 43.2266 58.5938 44.2109 58.5938 45.4141C58.5938 46.6172 59.5781 47.6016 60.7812 47.6016Z" fill="#663366"/>
<path d="M60.7812 58.5391H62.9688C64.1719 58.5391 65.1562 57.5547 65.1562 56.3516C65.1562 55.1484 64.1719 54.1641 62.9688 54.1641H60.7812C59.5781 54.1641 58.5938 55.1484 58.5938 56.3516C58.5938 57.5547 59.5781 58.5391 60.7812 58.5391Z" fill="#663366"/>
</svg>
