<svg width="150" height="150" viewBox="0 0 150 150" fill="none" xmlns="http://www.w3.org/2000/svg">
<path d="M97.0684 52.0655C97.0684 59.7021 103.291 65.925 110.928 65.925C118.564 65.925 124.787 59.7021 124.787 52.0655C124.787 44.429 118.564 38.2061 110.928 38.2061C103.291 38.2061 97.0684 44.429 97.0684 52.0655ZM110.928 41.6344C116.68 41.6344 121.359 46.3138 121.359 52.0655C121.359 57.8173 116.68 62.4967 110.928 62.4967C105.176 62.4967 100.497 57.8173 100.497 52.0655C100.497 46.3138 105.176 41.6344 110.928 41.6344Z" fill="#663366"/>
<path d="M99.035 106.578V103.491V80.4023V78.2413C99.035 69.5649 91.9834 62.4971 83.3232 62.4971H66.6528C57.9927 62.4971 50.9411 69.5649 50.9411 78.2413V80.3698C50.9411 80.3861 50.9248 80.4023 50.9248 80.4186V106.594C50.9248 109.941 53.6545 112.671 57.0015 112.671C57.9602 112.671 58.8538 112.427 59.65 112.037V138.277C59.65 139.22 60.4136 140 61.3722 140C62.3146 140 63.0945 139.236 63.0945 138.277V106.058V106.042V80.4023C63.0945 79.4599 62.3309 78.68 61.3722 78.68C60.4299 78.68 59.65 79.4437 59.65 80.4023V106.578C59.65 108.04 58.4639 109.226 57.0015 109.226C55.5392 109.226 54.3531 108.04 54.3531 106.578V103.539C54.3531 103.523 54.3694 103.507 54.3694 103.491V78.2413C54.3694 71.4497 59.8774 65.9416 66.6528 65.9416H83.3232C90.0986 65.9416 95.6067 71.4659 95.6067 78.2413V80.4186V103.507V106.594C95.6067 108.056 94.4206 109.242 92.9582 109.242C91.4959 109.242 90.3261 108.056 90.3098 106.61V106.058V106.042V80.4023C90.3098 79.4599 89.5462 78.68 88.5875 78.68C87.6289 78.68 86.8653 79.4437 86.8653 80.4023V106.578C86.8653 106.594 86.8653 106.594 86.8653 106.61V138.261C86.8653 139.204 87.6289 139.984 88.5875 139.984C89.5299 139.984 90.3098 139.22 90.3098 138.261V112.021C91.106 112.411 91.9996 112.654 92.9582 112.654C96.3053 112.654 99.035 109.925 99.035 106.578Z" fill="#663366"/>
<path d="M134.958 85.0819C134.958 76.4217 127.907 69.3701 119.247 69.3701H102.609C102.007 69.3701 101.406 69.4026 100.854 69.4839C99.9115 69.6138 99.2616 70.4912 99.3915 71.4336C99.5215 72.376 100.383 73.0097 101.341 72.8959C101.748 72.8309 102.17 72.8147 102.609 72.8147H119.247C126.022 72.8147 131.53 78.3227 131.53 85.0981V110.347C131.53 110.364 131.546 110.38 131.546 110.412V113.451C131.546 114.913 130.36 116.099 128.898 116.099C127.436 116.099 126.266 114.913 126.249 113.467V112.915V112.898V87.2754C126.249 86.333 125.486 85.5531 124.527 85.5531C123.585 85.5531 122.805 86.3167 122.805 87.2754V113.451C122.805 113.467 122.805 113.467 122.805 113.483V138.278C122.805 139.22 123.568 140 124.527 140C125.469 140 126.249 139.236 126.249 138.278V118.894C127.046 119.284 127.939 119.528 128.898 119.528C132.245 119.528 134.975 116.798 134.975 113.451V87.2754C134.975 87.2591 134.958 87.2429 134.958 87.2104V85.0819Z" fill="#663366"/>
<path d="M97.3287 113.32C96.3863 113.32 95.6064 114.084 95.6064 115.043V138.277C95.6064 139.22 96.3701 139.999 97.3287 139.999C98.2711 139.999 99.051 139.236 99.051 138.277V115.043C99.051 114.084 98.2711 113.32 97.3287 113.32Z" fill="#663366"/>
<path d="M110.911 119.462C109.968 119.462 109.188 120.226 109.188 121.185V138.278C109.188 139.22 109.952 140 110.911 140C111.853 140 112.633 139.236 112.633 138.278V121.185C112.633 120.226 111.869 119.462 110.911 119.462Z" fill="#663366"/>
<path d="M61.127 45.2096C61.127 52.8461 67.3499 59.0691 74.9864 59.0691C82.623 59.0691 88.8459 52.8461 88.8459 45.2096C88.8459 37.5731 82.623 31.3501 74.9864 31.3501C67.3499 31.3501 61.127 37.5568 61.127 45.2096ZM85.4176 45.2096C85.4176 50.9614 80.7382 55.6408 74.9864 55.6408C69.2347 55.6408 64.5553 50.9614 64.5553 45.2096C64.5553 39.4578 69.2347 34.7784 74.9864 34.7784C80.7382 34.7784 85.4176 39.4578 85.4176 45.2096Z" fill="#663366"/>
<path d="M52.6456 10C45.0091 10 38.7861 16.223 38.7861 23.8595C38.7861 31.496 45.0091 37.719 52.6456 37.719C60.2822 37.719 66.5051 31.496 66.5051 23.8595C66.5051 16.223 60.2984 10 52.6456 10ZM52.6456 34.2907C46.8939 34.2907 42.2145 29.6113 42.2145 23.8595C42.2145 18.1077 46.8939 13.4283 52.6456 13.4283C58.3974 13.4283 63.0768 18.1077 63.0768 23.8595C63.0768 29.6113 58.3974 34.2907 52.6456 34.2907Z" fill="#663366"/>
<path d="M97.3282 10C89.6917 10 83.4688 16.223 83.4688 23.8595C83.4688 31.496 89.6917 37.719 97.3282 37.719C104.965 37.719 111.188 31.496 111.188 23.8595C111.188 16.223 104.965 10 97.3282 10ZM97.3282 34.2907C91.5765 34.2907 86.8971 29.6113 86.8971 23.8595C86.8971 18.1077 91.5765 13.4283 97.3282 13.4283C103.08 13.4283 107.759 18.1077 107.759 23.8595C107.759 29.6113 103.08 34.2907 97.3282 34.2907Z" fill="#663366"/>
<path d="M74.9703 112.605C74.028 112.605 73.248 113.369 73.248 114.328V138.277C73.248 139.22 74.0117 140 74.9703 140C75.929 140 76.6926 139.236 76.6926 138.277V114.311C76.6926 113.369 75.929 112.605 74.9703 112.605Z" fill="#663366"/>
<path d="M25.1865 52.0655C25.1865 59.7021 31.4095 65.925 39.046 65.925C46.6826 65.925 52.9055 59.7021 52.9055 52.0655C52.9055 44.429 46.6826 38.2061 39.046 38.2061C31.4095 38.2061 25.1865 44.429 25.1865 52.0655ZM39.046 41.6344C44.7978 41.6344 49.4772 46.3138 49.4772 52.0655C49.4772 57.8173 44.7978 62.4967 39.046 62.4967C33.2942 62.4967 28.6148 57.8173 28.6148 52.0655C28.6148 46.3138 33.2942 41.6344 39.046 41.6344Z" fill="#663366"/>
<path d="M49.1207 69.4839C48.5683 69.4026 47.9671 69.3701 47.3659 69.3701H30.728C22.0679 69.3701 15.0162 76.4217 15.0162 85.0819V87.1616C15.0162 87.1941 15 87.2266 15 87.2754V113.451C15 116.798 17.7297 119.528 21.0767 119.528C22.0354 119.528 22.929 119.284 23.7251 118.894V138.278C23.7251 139.22 24.4888 140 25.4474 140C26.3898 140 27.1697 139.236 27.1697 138.278V112.915C27.1697 112.898 27.1697 112.898 27.1697 112.882V87.2754C27.1697 86.333 26.4061 85.5531 25.4474 85.5531C24.505 85.5531 23.7251 86.3167 23.7251 87.2754V113.451C23.7251 114.913 22.539 116.099 21.0767 116.099C19.6144 116.099 18.4283 114.913 18.4283 113.451V110.461C18.4283 110.429 18.4446 110.396 18.4446 110.347V85.0819C18.4446 78.3065 23.9526 72.7984 30.728 72.7984H47.3659C47.8046 72.7984 48.227 72.8309 48.6332 72.8797C49.5756 73.0097 50.4368 72.3597 50.583 71.4174C50.713 70.4912 50.0631 69.6301 49.1207 69.4839Z" fill="#663366"/>
<path d="M39.0299 119.462C38.0875 119.462 37.3076 120.226 37.3076 121.185V138.278C37.3076 139.22 38.0713 140 39.0299 140C39.9723 140 40.7522 139.236 40.7522 138.278V121.185C40.7522 120.226 39.9885 119.462 39.0299 119.462Z" fill="#663366"/>
<path d="M52.6627 113.32C51.7203 113.32 50.9404 114.084 50.9404 115.043V138.277C50.9404 139.22 51.7041 139.999 52.6627 139.999C53.6213 139.999 54.385 139.236 54.385 138.277V115.043C54.3687 114.084 53.6051 113.32 52.6627 113.32Z" fill="#663366"/>
</svg>
