<svg width="150" height="150" viewBox="0 0 150 150" fill="none" xmlns="http://www.w3.org/2000/svg">
<path d="M74.9921 61.7504C75.5944 61.7504 76.2038 61.4457 76.5793 60.9214C78.1665 58.6539 91.9979 38.325 91.9979 29.6308C91.9979 20.2563 84.3666 12.625 74.9921 12.625C65.6176 12.625 57.9863 20.2563 57.9863 29.6308C57.9863 38.325 71.8177 58.6539 73.4049 60.9214C73.7804 61.4528 74.3119 61.7504 74.9921 61.7504ZM74.9921 16.4017C82.2479 16.4017 88.2212 22.375 88.2212 29.6308C88.2212 35.2994 79.7537 49.2795 74.9921 56.4646C70.2305 49.2868 61.763 35.2994 61.763 29.6308C61.763 22.375 67.7363 16.4017 74.9921 16.4017Z" fill="#663366"/>
<path d="M84.4373 29.6405C84.4373 24.4254 80.2072 20.1953 74.9921 20.1953C69.777 20.1953 65.5469 24.4254 65.5469 29.6405C65.5469 34.8556 69.777 39.0858 74.9921 39.0858C80.2072 39.0858 84.4373 34.8556 84.4373 29.6405ZM69.3235 29.6405C69.3235 26.5441 71.8957 23.972 74.9921 23.972C78.0885 23.972 80.6607 26.5441 80.6607 29.6405C80.6607 32.737 78.0885 35.3091 74.9921 35.3091C71.8957 35.3091 69.3235 32.737 69.3235 29.6405Z" fill="#663366"/>
<path d="M36.1419 5.06172H10.2151C8.77669 5.06172 7.34543 5.36641 6.13372 5.89075C5.45349 6.19544 5 6.87567 5 7.62676V15.5628C5 16.6186 5.82903 17.4547 6.89195 17.4547H21.1768V39.5976H6.89195C5.83618 39.5976 5 40.4266 5 41.4895V66.7361C5 67.4942 5.45349 68.1745 6.13372 68.4721C7.34538 69.0035 8.77664 69.3011 10.1371 69.3011H36.0639C41.8812 69.3011 46.5721 64.6175 46.5721 58.7929V15.5629C46.5721 9.74556 41.8884 5.05469 36.0639 5.05469L36.1419 5.06172ZM8.8619 8.99436C9.31538 8.91642 9.76887 8.84556 10.2224 8.84556H36.1491C39.1748 8.84556 41.8177 10.8863 42.5759 13.6852L8.8619 13.6781V8.99436ZM25.0316 17.4619H42.8663V39.6047H25.0316V17.4619ZM42.8734 58.7999C42.8734 62.5058 39.8478 65.5242 36.1491 65.5242H10.2224C9.76887 65.5242 9.31538 65.5242 8.8619 65.3754V43.3813H42.8734V58.7999Z" fill="#663366"/>
<path d="M31.8333 60.6975C35.1565 60.6975 38.0334 57.8278 38.0334 54.4974C38.0334 51.1742 35.2345 48.2266 31.8333 48.2266C28.4322 48.2266 25.5625 51.0255 25.5625 54.4974C25.5625 57.9765 28.3614 60.6975 31.8333 60.6975ZM31.8333 52.0032C33.1158 52.0032 34.2495 53.1369 34.2495 54.4974C34.2495 55.8578 33.1158 56.9136 31.8333 56.9136C30.5509 56.9136 29.3391 55.7798 29.3391 54.4974C29.3391 53.1369 30.4729 52.0032 31.8333 52.0032Z" fill="#663366"/>
<path d="M41.9666 106.122L38.2607 85.7148C37.956 82.8451 35.235 80.6484 31.9899 80.6484H6.97007C5.9143 80.6484 5.07812 81.4775 5.07812 82.5404V90.1009C5.07812 91.1567 5.90715 91.9929 6.97007 91.9929H28.206L31.6851 105.675H6.97007C5.9143 105.675 5.07812 106.504 5.07812 107.567V129.64C5.07812 130.695 5.90715 131.531 6.97007 131.531H25.1876V138.561C25.1876 142.04 27.9865 144.909 31.4584 144.909H35.9152C39.3944 144.909 42.1861 142.04 42.1861 138.561V131.078C44.7582 130.093 46.6429 127.677 46.6429 124.729V112.563C46.6429 109.537 44.6802 107.043 41.9593 106.136L41.9666 106.122ZM31.4584 89.6404C31.2316 88.8113 30.4735 88.202 29.6444 88.202H8.86202V84.4253H31.9899C33.2724 84.4253 34.406 85.1835 34.484 86.3173L38.0339 105.668H35.5398L31.4584 89.6477V89.6404ZM38.4094 138.546C38.4094 139.985 37.2757 141.118 35.9152 141.118H31.4584C30.02 141.118 28.9642 139.985 28.9642 138.546V131.595H38.4094V138.546ZM42.8734 124.715C42.8734 126.38 41.5129 127.741 39.8477 127.741L8.86184 127.733V122.745H18.2363C19.2921 122.745 20.1283 121.916 20.1283 120.853C20.1283 119.797 19.2992 118.961 18.2363 118.961H8.86184V109.438H40.2304C41.7397 109.587 42.8734 110.947 42.8734 112.534V124.715Z" fill="#663366"/>
<path d="M31.4583 110.125C27.9792 110.125 25.1875 112.995 25.1875 116.474C25.1875 119.953 27.9864 122.745 31.4583 122.745C34.9375 122.745 37.8071 119.946 37.8071 116.474C37.8071 112.995 35.0082 110.125 31.4583 110.125ZM31.4583 118.968C30.0979 118.968 28.9641 117.834 28.9641 116.474C28.9641 115.035 30.0979 113.902 31.4583 113.902C32.8188 113.902 34.0305 115.035 34.0305 116.474C34.0305 117.912 32.8968 118.968 31.4583 118.968Z" fill="#663366"/>
<path d="M143.016 80.6486H112.859C109.911 80.6486 107.566 82.7673 107.19 85.715L106.737 89.8743L104.165 112.697L103.789 116.325V124.113C103.789 128.647 107.041 132.197 111.35 133.182V133.558C111.35 139.829 116.416 144.895 122.687 144.895C128.958 144.895 134.024 139.829 134.024 133.558H143.016C144.071 133.558 144.908 132.729 144.908 131.666V103.174C144.908 102.267 144.305 101.509 143.469 101.36C142.562 101.134 141.733 101.587 141.351 102.345C141.046 102.948 140.444 103.33 139.685 103.33H132.125C131.069 103.33 130.233 102.501 130.233 101.438V93.8777C130.233 92.8219 131.062 91.9857 132.125 91.9857H139.685C140.366 91.9857 141.046 92.3613 141.351 92.9706C141.726 93.7288 142.562 94.1823 143.469 93.9556C144.298 93.7288 144.908 92.9706 144.908 92.1416V82.5404C144.908 81.4846 144.079 80.6486 143.016 80.6486ZM108.175 111.032L110.294 91.9858H117.018C118.074 91.9858 118.91 92.8148 118.91 93.8777V109.07C118.91 110.125 118.081 110.961 117.018 110.961H108.175V111.032ZM122.687 141.111C118.527 141.111 115.126 137.71 115.126 133.551C115.126 132.948 115.126 132.417 115.204 132.041C115.962 128.491 118.981 125.997 122.687 125.997C126.393 125.997 129.411 128.569 130.091 132.119C130.24 132.573 130.24 133.026 130.24 133.558C130.24 137.717 126.839 141.118 122.68 141.118L122.687 141.111ZM141.124 88.3579C140.67 88.2091 140.217 88.2091 139.685 88.2091H132.125C128.95 88.2091 126.456 90.7033 126.456 93.8777V101.438C126.456 104.613 128.95 107.107 132.125 107.107H139.685C140.139 107.107 140.67 107.107 141.124 106.958V129.781H133.337C133.188 129.328 132.883 129.023 132.734 128.569L132.054 127.209C131.601 126.607 131.147 126.075 130.616 125.544C130.311 125.239 130.013 124.864 129.631 124.559C128.95 124.027 128.27 123.73 127.512 123.347C127.136 123.198 126.832 122.972 126.456 122.816C125.322 122.44 124.04 122.136 122.75 122.136C121.468 122.136 120.256 122.362 119.122 122.816C118.747 122.965 118.442 123.12 118.137 123.269C117.379 123.645 116.628 124.027 115.87 124.552C115.565 124.779 115.339 125.083 115.041 125.381C114.439 125.983 113.829 126.592 113.376 127.273C113.149 127.648 113 127.953 112.774 128.329C112.547 128.782 112.242 129.087 112.093 129.54C109.521 129.009 107.637 126.741 107.637 124.02V116.46L107.785 114.724H117.082C120.256 114.575 122.672 112.081 122.672 108.977V93.7854C122.672 90.689 120.1 88.1168 117.004 88.1168H110.733L110.96 86.0762C111.109 85.0912 111.867 84.3401 112.852 84.3401H141.117V88.2728L141.124 88.3579Z" fill="#663366"/>
<path d="M118.981 19.058C119.512 16.9394 121.397 15.4301 123.593 15.4301H139.692C140.599 15.4301 141.357 15.6569 142.038 16.0324C142.64 16.408 143.32 16.408 143.93 16.0324C144.532 15.7277 144.915 15.0475 144.915 14.3673V7.41623C144.915 6.58721 144.383 5.90697 143.632 5.60229C142.35 5.1488 140.989 5 139.402 5H123.905C120.051 5 116.274 6.50926 113.553 9.15938C113.404 9.23732 113.248 9.30818 113.178 9.46407C111.215 11.5048 109.854 13.9989 109.174 16.8686L103.81 41.2789C103.662 41.7324 103.584 42.2638 103.506 43.0149C103.428 43.5463 103.428 44.2266 103.428 44.7509V56.5416C103.428 63.0391 108.721 68.3322 115.218 68.3322H143.108C144.164 68.3322 145 67.5032 145 66.4403C145 65.3845 144.171 64.5483 143.108 64.5483H119.222L119.597 64.1728C120.88 62.9611 122.467 62.2808 124.132 62.2808H139.324C140.38 62.2808 141.365 62.5076 142.123 62.9611C142.725 63.3366 143.405 63.3366 144.015 62.9611C144.617 62.6564 145 61.9762 145 61.2959V39.904C145 38.8483 144.171 38.0121 143.108 38.0121H120.355C118.917 38.0121 117.557 37.3319 116.65 36.1981C115.743 35.0644 115.438 33.626 115.821 32.1948L119.073 18.9656L118.981 19.058ZM107.112 45.2043H110.06C110.591 45.2043 110.889 45.431 111.193 45.8845L113.461 49.0589C113.914 49.6612 113.61 50.2706 113.461 50.4973C113.312 50.7241 112.929 51.2555 112.178 51.2555H107.041V45.1334L107.112 45.2043ZM113.617 38.6287C115.204 40.7474 117.698 41.8811 120.27 41.8811H141.131V58.6602C140.528 58.5114 139.919 58.5114 139.239 58.5114H124.047C121.475 58.5114 118.91 59.5671 116.869 61.459L113.921 64.4067C110.067 63.8044 107.119 60.474 107.119 56.4707V55.0323H112.256C114.148 55.0323 115.962 53.9765 116.869 52.3113C117.776 50.6462 117.698 48.6054 116.642 46.9475L114.453 43.7731C113.546 42.2638 111.959 41.3569 110.145 41.3569H107.65L112.866 17.6976C113.397 15.6569 114.375 13.8429 115.664 12.3337C115.813 12.3337 115.891 12.1849 115.969 12.029C118.01 9.91036 120.88 8.77664 123.905 8.77664H139.402C140.004 8.77664 140.613 8.77664 141.138 8.92544V11.7244C140.684 11.6464 140.153 11.5756 139.699 11.5756H123.601C119.746 11.5756 116.345 14.2185 115.36 18.0731L112.107 31.3022C111.427 33.7964 112.029 36.4393 113.617 38.558L113.617 38.6287Z" fill="#663366"/>
<path d="M130.014 55.1022H133.337C136.207 55.1022 138.474 52.8348 138.474 49.9651C138.474 47.0954 136.207 44.75 133.337 44.75H130.014C127.144 44.75 124.799 47.0954 124.799 49.9651C124.799 52.8348 127.144 55.1022 130.014 55.1022ZM130.014 48.5266H133.337C134.095 48.5266 134.698 49.1289 134.698 49.9651C134.698 50.7232 134.095 51.3255 133.337 51.3255H130.014C129.256 51.3255 128.576 50.7232 128.576 49.9651C128.576 49.136 129.178 48.5266 130.014 48.5266Z" fill="#663366"/>
<path d="M91.4679 61.1411C92.2261 61.5167 92.9772 61.7434 93.8841 61.7434C96.9805 61.7434 99.5527 59.1712 99.5527 56.0748C99.5527 52.9784 96.9805 50.4062 93.8841 50.4062C90.7877 50.4062 88.2155 52.9784 88.2155 56.0748C88.2155 56.9818 88.4422 57.74 88.8178 58.491L75.0644 72.2444L61.3111 58.491C61.6866 57.7328 61.9133 56.9818 61.9133 56.0748C61.9133 52.9784 59.3412 50.4062 56.2448 50.4062C53.1484 50.4062 50.5762 52.9784 50.5762 56.0748C50.5762 59.1712 53.1484 61.7434 56.2448 61.7434C57.1517 61.7434 57.9099 61.5167 58.6609 61.1411L72.4143 74.8945L58.6609 88.6478C57.9028 88.2723 57.1517 88.0456 56.2448 88.0456C53.1484 88.0456 50.5762 90.6177 50.5762 93.7141C50.5762 96.8106 53.1484 99.3827 56.2448 99.3827C59.3412 99.3827 61.9133 96.8106 61.9133 93.7141C61.9133 92.8072 61.6866 92.049 61.3111 91.298L75.0644 77.5446L88.8178 91.298C88.4422 92.0561 88.2155 92.8072 88.2155 93.7141C88.2155 96.8106 90.7877 99.3827 93.8841 99.3827C96.9805 99.3827 99.5527 96.8106 99.5527 93.7141C99.5527 90.6177 96.9805 88.0456 93.8841 88.0456C92.9771 88.0456 92.2189 88.2723 91.4679 88.6478L77.7145 74.8945L91.4679 61.1411ZM56.0959 57.9667C55.0401 57.9667 54.204 57.1377 54.204 56.0748C54.204 55.019 55.033 54.1828 56.0959 54.1828C57.1517 54.1828 57.9879 55.0119 57.9879 56.0748C57.9879 57.1306 57.1588 57.9667 56.0959 57.9667ZM56.0959 95.7549C55.0401 95.7549 54.204 94.9259 54.204 93.8629C54.204 92.8072 55.033 91.971 56.0959 91.971C57.1517 91.971 57.9879 92.8 57.9879 93.8629C57.9879 94.9187 57.1588 95.7549 56.0959 95.7549ZM93.8913 91.9783C94.9471 91.9783 95.7833 92.8073 95.7833 93.8702C95.7833 94.926 94.9542 95.7621 93.8913 95.7621C92.8356 95.7621 91.9994 94.9331 91.9994 93.8702C91.9994 92.8144 92.8284 91.9783 93.8913 91.9783ZM93.8913 54.1901C94.9471 54.1901 95.7833 55.0191 95.7833 56.082C95.7833 57.1378 94.9542 57.974 93.8913 57.974C92.8356 57.974 91.9994 57.145 91.9994 56.082C91.9994 55.0263 92.8284 54.1901 93.8913 54.1901Z" fill="#663366"/>
</svg>
