<svg width="150" height="150" viewBox="0 0 150 150" fill="none" xmlns="http://www.w3.org/2000/svg">
<path d="M72.9036 81.29C72.3475 81.29 71.8142 81.0691 71.421 80.6759C71.0277 80.2827 70.8068 79.7493 70.8068 79.1932H66.6133C66.6133 82.6613 69.4355 85.4836 72.9036 85.4836V89.6771H77.0972V85.4836H83.3875V79.1932C83.3875 75.7252 80.5652 72.9029 77.0972 72.9029H72.9036C72.3475 72.9029 71.8142 72.682 71.421 72.2888C71.0277 71.8956 70.8068 71.3622 70.8068 70.8061V68.7094H77.0972C77.6533 68.7094 78.1866 68.9303 78.5798 69.3235C78.973 69.7167 79.1939 70.25 79.1939 70.8061H83.3875C83.3875 67.3381 80.5652 64.5158 77.0972 64.5158V60.3223H72.9036V64.5158H66.6133V70.8061C66.6133 74.2742 69.4355 77.0965 72.9036 77.0965H77.0972C77.6533 77.0965 78.1866 77.3174 78.5798 77.7106C78.973 78.1038 79.1939 78.6371 79.1939 79.1932V81.29H72.9036Z" fill="#663366"/>
<path d="M75.9918 98.0142C87.9161 97.5026 97.5026 87.9161 98.0142 75.9918C100.79 76.7235 103.619 77.0968 106.452 77.0968C124.949 77.0968 140 62.0461 140 43.5484C140 25.0506 124.949 10 106.452 10C87.9539 10 72.9032 25.0506 72.9032 43.5484C72.9032 46.3811 73.2764 49.2097 74.0082 51.9858C62.0839 52.4974 52.4974 62.0839 51.9858 74.0082C49.2327 73.2781 46.3967 72.9067 43.5484 72.9032C25.0506 72.9032 10 87.9539 10 106.452C10 124.949 25.0506 140 43.5484 140C62.0461 140 77.0968 124.949 77.0968 106.452C77.0968 103.619 76.7235 100.79 75.9918 98.0142ZM97.7752 71.5361C96.9456 66.0728 94.1786 61.0902 89.9794 57.4982C91.8683 54.075 94.7731 51.3225 98.2931 49.6206C98.6404 51.1102 99.3887 52.4763 100.457 53.571C101.525 54.6657 102.872 55.4474 104.353 55.8313V68.7097H108.546V55.8313C110.027 55.4478 111.374 54.6665 112.442 53.5721C113.51 52.4777 114.258 51.112 114.606 49.6227C117.717 51.1185 120.359 53.4392 122.243 56.3321C124.127 59.2251 125.181 62.5794 125.291 66.03C120.019 70.4722 113.346 72.9068 106.452 72.9032C103.507 72.8891 100.581 72.4281 97.7752 71.5361ZM98.0645 35.1613C98.0645 30.5358 101.826 26.7742 106.452 26.7742C111.077 26.7742 114.839 30.5358 114.839 35.1613C114.839 39.7868 111.077 43.5484 106.452 43.5484C101.826 43.5484 98.0645 39.7868 98.0645 35.1613ZM106.452 51.9355C105.431 51.9321 104.447 51.5561 103.684 50.878C102.922 50.2 102.433 49.2666 102.31 48.2535C103.667 47.9284 105.056 47.7568 106.452 47.7419C107.877 47.7419 109.261 47.9139 110.597 48.2158C110.483 49.2364 109.997 50.1794 109.233 50.8653C108.468 51.5512 107.479 51.9321 106.452 51.9355ZM106.452 14.1935C122.639 14.1935 135.806 27.3613 135.806 43.5484C135.814 50.3661 133.435 56.9715 129.084 62.2202C127.535 54.2189 121.834 47.7 114.321 44.9595C115.79 43.784 116.977 42.2931 117.793 40.597C118.608 38.901 119.032 37.0432 119.032 35.1613C119.032 28.2231 113.39 22.5806 106.452 22.5806C99.5134 22.5806 93.871 28.2231 93.871 35.1613C93.8716 37.0405 94.2939 38.8957 95.1067 40.59C95.9196 42.2843 97.1023 43.7746 98.5677 44.9511C93.4937 46.8039 89.2283 50.3742 86.5113 55.0429C84.0291 53.6075 81.2992 52.6515 78.4639 52.2248C77.5718 49.4185 77.1109 46.493 77.0968 43.5484C77.0968 27.3613 90.2645 14.1935 106.452 14.1935ZM75 56.129C85.4063 56.129 93.871 64.5937 93.871 75C93.871 85.4063 85.4063 93.871 75 93.871C64.5937 93.871 56.129 85.4063 56.129 75C56.129 64.5937 64.5937 56.129 75 56.129ZM24.7068 128.931C24.7909 126.183 25.4759 123.486 26.7137 121.031C27.9515 118.576 29.712 116.421 31.8715 114.719L33.4818 129.202L43.5484 121.653L53.615 129.202L55.2253 114.719C57.3855 116.421 59.1464 118.575 60.3843 121.03C61.6221 123.486 62.3067 126.183 62.39 128.931C57.2864 133.215 50.7173 135.806 43.5484 135.806C36.3795 135.806 29.8103 133.215 24.7068 128.931ZM35.1613 98.0645C35.1613 93.439 38.9229 89.6774 43.5484 89.6774C48.1739 89.6774 51.9355 93.439 51.9355 98.0645C51.9355 102.69 48.1739 106.452 43.5484 106.452C38.9229 106.452 35.1613 102.69 35.1613 98.0645ZM43.5484 115.757L39.6358 111.06C42.2152 110.511 44.8813 110.51 47.461 111.058L43.5484 115.757ZM51.1806 113.149L50.2581 121.441L46.574 118.678L51.1806 113.149ZM36.8408 121.441L35.9182 113.149L40.5248 118.678L36.8408 121.441ZM66.181 125.123C64.6315 117.122 58.9303 110.603 51.4176 107.863C52.8872 106.687 54.0737 105.196 54.8893 103.5C55.7048 101.804 56.1285 99.9465 56.129 98.0645C56.129 91.1263 50.4866 85.4839 43.5484 85.4839C36.6102 85.4839 30.9677 91.1263 30.9677 98.0645C30.9677 102.023 32.8108 105.556 35.6771 107.865C28.1644 110.605 22.4653 117.122 20.9137 125.125C16.5643 119.875 14.1871 113.269 14.1935 106.452C14.1935 90.2645 27.3613 77.0968 43.5484 77.0968C46.465 77.0968 49.3753 77.5748 52.2248 78.4639C52.9699 83.3188 55.2444 87.8094 58.7175 91.2825C62.1906 94.7556 66.6812 97.0301 71.5361 97.7752C72.4281 100.581 72.8891 103.507 72.9032 106.452C72.9103 113.269 70.5322 119.875 66.181 125.123Z" fill="#663366"/>
<path d="M98.0641 104.356H106.355C105.491 113.663 98.9385 121.696 89.828 124.298L77.0964 127.936V133.71H91.7738C108.412 133.71 122.072 120.725 123.156 104.356H131.613L114.838 81.9892L98.0641 104.356ZM119.032 100.162V102.259C119.032 117.288 106.803 129.517 91.7738 129.517H86.8275L90.9791 128.332C102.56 125.021 110.645 114.301 110.645 102.259V100.162H106.451L114.838 88.9799L123.225 100.162H119.032ZM51.9351 45.6459H43.6445C44.5083 36.3383 51.0607 28.3055 60.1712 25.7034L72.9028 22.0655V16.291H58.2254C41.5875 16.291 27.927 29.2763 26.843 45.6459H18.3867L35.1609 68.0121L51.9351 45.6459ZM30.9674 49.8394V47.7426C30.9674 32.713 43.1957 20.4846 58.2254 20.4846H63.1717L59.0201 21.6692C47.4396 24.98 39.3545 35.7009 39.3545 47.7426V49.8394H43.548L35.1609 61.0215L26.7738 49.8394H30.9674Z" fill="#663366"/>
</svg>
