<svg width="150" height="150" viewBox="0 0 150 150" fill="none" xmlns="http://www.w3.org/2000/svg">
<path d="M38.0859 97.0312H114.277C117.568 97.0312 120.804 96.1836 123.672 94.5703" stroke="#663366" stroke-width="4.10156" stroke-miterlimit="10"/>
<path d="M87.8516 123.828V78.9844" stroke="#663366" stroke-width="4.10156" stroke-miterlimit="10"/>
<path d="M43.8281 134.766C51.3789 134.766 57.5 128.645 57.5 121.094C57.5 113.543 51.3789 107.422 43.8281 107.422C36.2774 107.422 30.1562 113.543 30.1562 121.094C30.1562 128.645 36.2774 134.766 43.8281 134.766Z" stroke="#663366" stroke-width="4.10156" stroke-miterlimit="10"/>
<path d="M43.8281 126.562C46.8484 126.562 49.2969 124.114 49.2969 121.094C49.2969 118.073 46.8484 115.625 43.8281 115.625C40.8078 115.625 38.3594 118.073 38.3594 121.094C38.3594 124.114 40.8078 126.562 43.8281 126.562Z" stroke="#663366" stroke-width="4.10156" stroke-miterlimit="10"/>
<path d="M56.9531 123.828H100.43" stroke="#663366" stroke-width="4.10156" stroke-miterlimit="10"/>
<path d="M126.68 123.828H134.609C139.14 123.828 142.812 120.156 142.812 115.625V101.434C142.812 98.624 140.684 96.2716 137.888 95.9919L123.672 94.5703L111.318 84.5108C106.928 80.9362 101.44 78.9844 95.7791 78.9844H83.6029C70.6204 78.9844 58.0458 83.5185 48.0508 91.8039C44.5612 94.6966 40.4074 96.6763 35.963 97.5653L18.178 101.122C11.7875 102.4 7.1875 108.011 7.1875 114.529V118.359C7.1875 121.38 9.63586 123.828 12.6562 123.828H30.1562" stroke="#663366" stroke-width="4.10156" stroke-miterlimit="10"/>
<path d="M113.281 134.766C120.832 134.766 126.953 128.645 126.953 121.094C126.953 113.543 120.832 107.422 113.281 107.422C105.73 107.422 99.6094 113.543 99.6094 121.094C99.6094 128.645 105.73 134.766 113.281 134.766Z" stroke="#663366" stroke-width="4.10156" stroke-miterlimit="10"/>
<path d="M113.281 126.562C116.302 126.562 118.75 124.114 118.75 121.094C118.75 118.073 116.302 115.625 113.281 115.625C110.261 115.625 107.812 118.073 107.812 121.094C107.812 124.114 110.261 126.562 113.281 126.562Z" stroke="#663366" stroke-width="4.10156" stroke-miterlimit="10"/>
<path d="M7.36523 112.344H15.3906C18.411 112.344 20.8594 109.895 20.8594 106.875V100.586" stroke="#663366" stroke-width="4.10156" stroke-miterlimit="10"/>
<path d="M142.812 113.164H138.711C136.446 113.164 134.609 111.328 134.609 109.062V107.969C134.609 105.704 136.446 103.867 138.711 103.867H142.812" stroke="#663366" stroke-width="4.10156" stroke-miterlimit="10"/>
<path d="M70.8984 45.0781H59.9609V28.6719H70.8984" stroke="#663366" stroke-width="4.10156" stroke-miterlimit="10"/>
<path d="M59.9609 36.875H70.8984" stroke="#663366" stroke-width="4.10156" stroke-miterlimit="10"/>
<path d="M103.164 28.6719V47.2656" stroke="#663366" stroke-width="4.10156" stroke-miterlimit="10"/>
<path d="M94.9609 28.6719H111.367" stroke="#663366" stroke-width="4.10156" stroke-miterlimit="10"/>
<path d="M77.4609 47.2656V28.6719H77.7344L88.125 45.0781H88.3984V26.4844" stroke="#663366" stroke-width="4.10156" stroke-miterlimit="10"/>
<path d="M40.8203 47.2656V28.6719H47.1094C49.6767 28.6719 51.7578 30.753 51.7578 33.3203C51.7578 35.8876 49.6767 37.9688 47.1094 37.9688H40.8203" stroke="#663366" stroke-width="4.10156" stroke-miterlimit="10"/>
<path d="M47.3828 37.9688L48.9119 39.1702C50.3633 40.3107 51.2109 42.0545 51.2109 43.9004V47.2656" stroke="#663366" stroke-width="4.10156" stroke-miterlimit="10"/>
<path d="M116.016 58.75H91.6797L86.2109 69.6875L62.9688 58.75H33.9844C29.4538 58.75 25.7812 55.0775 25.7812 50.5469V23.2031C25.7812 18.6725 29.4538 15 33.9844 15H116.016C120.546 15 124.219 18.6725 124.219 23.2031V50.5469C124.219 55.0775 120.546 58.75 116.016 58.75Z" stroke="#663366" stroke-width="4.10156" stroke-miterlimit="10"/>
<path d="M134.609 36.875H145" stroke="#663366" stroke-width="4.10156" stroke-miterlimit="10"/>
<path d="M131.328 27.5781L138.984 22.1094" stroke="#663366" stroke-width="4.10156" stroke-miterlimit="10"/>
<path d="M131.328 46.1719L138.984 51.6406" stroke="#663366" stroke-width="4.10156" stroke-miterlimit="10"/>
<path d="M15.3906 36.875H5" stroke="#663366" stroke-width="4.10156" stroke-miterlimit="10"/>
<path d="M18.6719 27.5781L11.0156 22.1094" stroke="#663366" stroke-width="4.10156" stroke-miterlimit="10"/>
<path d="M18.6719 46.1719L11.0156 51.6406" stroke="#663366" stroke-width="4.10156" stroke-miterlimit="10"/>
</svg>
