<svg width="150" height="150" viewBox="0 0 150 150" fill="none" xmlns="http://www.w3.org/2000/svg">
<path d="M39.281 145H17.8184" stroke="#663366" stroke-width="5.74783" stroke-miterlimit="10" stroke-linecap="round" stroke-linejoin="round"/>
<path d="M17.9434 71.7558L38.2381 65.9844" stroke="#663366" stroke-width="5.74783" stroke-miterlimit="10" stroke-linecap="round" stroke-linejoin="round"/>
<path d="M111.344 65.9844L131.638 71.7558" stroke="#663366" stroke-width="5.74783" stroke-miterlimit="10" stroke-linecap="round" stroke-linejoin="round"/>
<path d="M131.333 145H111.213" stroke="#663366" stroke-width="5.74783" stroke-miterlimit="10" stroke-linecap="round" stroke-linejoin="round"/>
<path d="M17.2094 144.996H6V71.635C6 69.4247 7.79189 67.6328 10.0022 67.6328H13.2072C15.4175 67.6328 17.2094 69.4247 17.2094 71.635V144.996Z" stroke="#663366" stroke-width="5.74783" stroke-miterlimit="10" stroke-linecap="round" stroke-linejoin="round"/>
<path d="M143.582 144.996H132.373V71.635C132.373 69.4247 134.165 67.6328 136.375 67.6328H139.58C141.791 67.6328 143.582 69.4247 143.582 71.635V144.996Z" stroke="#663366" stroke-width="5.74783" stroke-miterlimit="10" stroke-linecap="round" stroke-linejoin="round"/>
<path d="M110.303 145.002H39.2812V59.7192L71.7042 29.8236C73.4487 28.2151 76.1358 28.2151 77.8799 29.8236L110.303 59.7192V145.002H110.303Z" stroke="#663366" stroke-width="5.74783" stroke-miterlimit="10" stroke-linecap="round" stroke-linejoin="round"/>
<path d="M88.6032 67.335C89.7863 59.7087 84.563 52.5673 76.9367 51.3842C69.3104 50.2011 62.169 55.4244 60.9859 63.0507C59.8028 70.677 65.0261 77.8184 72.6524 79.0015C80.2787 80.1846 87.4201 74.9613 88.6032 67.335Z" stroke="#663366" stroke-width="3.4487" stroke-miterlimit="10" stroke-linecap="round"/>
<path d="M93.6346 144.995V113.776C93.6346 112.375 93.0492 111.038 92.0201 110.088L74.791 94.1797L57.5618 110.088C56.5327 111.038 55.9473 112.375 55.9473 113.776V144.994" stroke="#663366" stroke-width="3.4487" stroke-miterlimit="10" stroke-linecap="round" stroke-linejoin="round"/>
<path d="M85.9475 144.996V125.199C85.9475 125.199 85.9475 114.914 74.7921 114.914C63.6367 114.914 63.6367 125.199 63.6367 125.199V144.996" stroke="#663366" stroke-width="3.4487" stroke-miterlimit="10" stroke-linecap="round" stroke-linejoin="round"/>
<path d="M74.7912 64.8975C76.7242 64.8975 78.2913 61.9036 78.2913 58.2105C78.2913 54.5173 76.7242 51.5234 74.7912 51.5234C72.8581 51.5234 71.291 54.5173 71.291 58.2105C71.291 61.9036 72.8581 64.8975 74.7912 64.8975Z" stroke="#663366" stroke-width="3.4487" stroke-miterlimit="10" stroke-linecap="round" stroke-linejoin="round"/>
<path d="M74.7912 78.8662C76.7242 78.8662 78.2913 75.8724 78.2913 72.1792C78.2913 68.4861 76.7242 65.4922 74.7912 65.4922C72.8581 65.4922 71.291 68.4861 71.291 72.1792C71.291 75.8724 72.8581 78.8662 74.7912 78.8662Z" stroke="#663366" stroke-width="3.4487" stroke-miterlimit="10" stroke-linecap="round" stroke-linejoin="round"/>
<path d="M81.7788 68.8286C85.472 68.8286 88.4659 67.2003 88.4659 65.1916C88.4659 63.183 85.472 61.5547 81.7788 61.5547C78.0857 61.5547 75.0918 63.183 75.0918 65.1916C75.0918 67.2003 78.0857 68.8286 81.7788 68.8286Z" stroke="#663366" stroke-width="3.4487" stroke-miterlimit="10" stroke-linecap="round" stroke-linejoin="round"/>
<path d="M67.8042 68.8286C71.4974 68.8286 74.4912 67.2003 74.4912 65.1916C74.4912 63.183 71.4974 61.5547 67.8042 61.5547C64.1111 61.5547 61.1172 63.183 61.1172 65.1916C61.1172 67.2003 64.1111 68.8286 67.8042 68.8286Z" stroke="#663366" stroke-width="3.4487" stroke-miterlimit="10" stroke-linecap="round" stroke-linejoin="round"/>
<path d="M74.791 28.6135V5" stroke="#663366" stroke-width="5.74783" stroke-miterlimit="10" stroke-linecap="round" stroke-linejoin="round"/>
<path d="M67.332 12.4609H82.2505" stroke="#663366" stroke-width="5.74783" stroke-miterlimit="10" stroke-linecap="round" stroke-linejoin="round"/>
<path d="M50.4187 88C50.3658 90.8578 50.3837 93.7168 50.465 96.574" stroke="#663366" stroke-width="5.74783" stroke-miterlimit="10" stroke-linecap="round" stroke-linejoin="round"/>
<path d="M50.4648 74.6719C50.4648 75.3421 50.4648 76.0123 50.4648 76.6825" stroke="#663366" stroke-width="5.74783" stroke-miterlimit="10" stroke-linecap="round" stroke-linejoin="round"/>
<path d="M90.0703 89.9219V93.6315" stroke="#663366" stroke-width="3.4487" stroke-miterlimit="10" stroke-linecap="round"/>
<path d="M98.3691 77.1875V80.8972" stroke="#663366" stroke-width="3.4487" stroke-miterlimit="10" stroke-linecap="round"/>
<path d="M120.553 109.75V113.46" stroke="#663366" stroke-width="3.4487" stroke-miterlimit="10" stroke-linecap="round"/>
<path d="M129.594 21.008L131.955 27.6462C132.056 27.9304 132.256 28.1557 132.508 28.2692L138.406 30.9262C139.239 31.3015 139.239 32.6293 138.406 33.0046L132.508 35.6618C132.256 35.7756 132.056 36.0009 131.955 36.2852L129.594 42.9233C129.261 43.8611 128.081 43.8611 127.747 42.9233L125.387 36.2852C125.286 36.0009 125.086 35.7756 124.833 35.6618L118.935 33.0046C118.102 32.6293 118.102 31.3018 118.935 30.9262L124.833 28.2692C125.086 28.1554 125.286 27.9301 125.387 27.6462L127.747 21.008C128.081 20.0702 129.261 20.0702 129.594 21.008Z" fill="#663366"/>
<path d="M37.4538 8.67783L39.2049 13.6017C39.2799 13.8127 39.4282 13.9796 39.6156 14.0641L43.9906 16.0351C44.6084 16.3135 44.6084 17.2981 43.9906 17.5766L39.6156 19.5476C39.4282 19.632 39.2799 19.799 39.2049 20.01L37.4538 24.9338C37.2064 25.6296 36.3316 25.6296 36.0841 24.9338L34.333 20.01C34.258 19.799 34.1097 19.632 33.9224 19.5476L29.5474 17.5769C28.9295 17.2984 28.9295 16.3138 29.5474 16.0353L33.9221 14.0644C34.1095 13.9799 34.2578 13.8129 34.3328 13.602L36.0838 8.67812C36.3316 7.98234 37.2064 7.98234 37.4538 8.67783Z" fill="#663366"/>
<path d="M108.079 22.5252C109.307 22.5252 110.303 21.5297 110.303 20.3017C110.303 19.0736 109.307 18.0781 108.079 18.0781C106.851 18.0781 105.855 19.0736 105.855 20.3017C105.855 21.5297 106.851 22.5252 108.079 22.5252Z" fill="#663366"/>
<path d="M19.279 43.1923C21.8874 42.0512 23.0769 39.0117 21.9358 36.4033C20.7948 33.7948 17.7552 32.6053 15.1468 33.7464C12.5384 34.8875 11.3489 37.927 12.4899 40.5355C13.631 43.1439 16.6706 44.3334 19.279 43.1923Z" fill="#663366"/>
</svg>
