<svg width="150" height="150" viewBox="0 0 150 150" fill="none" xmlns="http://www.w3.org/2000/svg">
<mask id="mask0_693_2252" style="mask-type:luminance" maskUnits="userSpaceOnUse" x="5" y="5" width="140" height="141">
<path d="M5 5.01953H145V145.02H5V5.01953Z" fill="white"/>
</mask>
<g mask="url(#mask0_693_2252)">
<path d="M31.2374 112.035C29.8817 112.056 28.5301 112.415 27.3128 113.111C24.8018 114.547 21.7188 114.547 19.2081 113.111C16.6971 111.676 13.6141 111.676 11.1034 113.111L9.7209 113.901C8.06988 114.845 7.05078 116.601 7.05078 118.503V139.537C7.05078 141.617 9.29789 142.92 11.1034 141.888C13.6141 140.453 16.6971 140.453 19.2081 141.888C21.7188 143.324 24.8018 143.324 27.3128 141.888C29.8238 140.453 32.9068 140.453 35.4177 141.888C37.9284 143.324 41.0115 143.324 43.5224 141.888C46.0331 140.453 49.1161 140.453 51.6271 141.888C54.1381 143.324 57.2211 143.324 59.7318 141.888C62.2428 140.453 65.3258 140.453 67.8368 141.888C70.3477 143.324 73.4305 143.324 75.9415 141.888C78.4524 140.453 81.5354 140.453 84.0461 141.888C86.5571 143.324 89.6401 143.324 92.1511 141.888C94.6621 140.453 97.7451 140.453 100.256 141.888C102.767 143.324 105.85 143.324 108.36 141.888C110.871 140.453 113.954 140.453 116.465 141.888C118.976 143.324 122.059 143.324 124.57 141.888C127.081 140.453 130.164 140.453 132.675 141.888C134.48 142.92 136.727 141.617 136.727 139.537V118.503C136.727 116.601 135.708 114.845 134.057 113.901L132.675 113.111C130.164 111.676 127.081 111.676 124.57 113.111C122.059 114.547 118.976 114.547 116.465 113.111C115.197 112.386 113.782 112.027 112.369 112.034" stroke="#663366" stroke-width="4.10156" stroke-miterlimit="10" stroke-linecap="round" stroke-linejoin="round"/>
<path d="M100.319 101.558C92.3658 107.637 82.4597 111.242 71.7536 111.175C45.7644 111.012 24.7759 89.7702 25.0237 63.6856C25.2706 37.6948 46.7915 16.7214 72.7801 17.1151C77.8056 17.1911 82.6391 18.0568 87.164 19.5919C89.9801 20.5473 92.9026 18.4681 92.9026 15.4944C92.9026 13.637 91.7194 11.9851 89.9607 11.3879C84.341 9.48045 78.3194 8.44385 72.0546 8.44385C65.3349 8.44385 58.8875 9.64397 52.9159 11.841" stroke="#663366" stroke-width="4.10156" stroke-miterlimit="10" stroke-linecap="round" stroke-linejoin="round"/>
<path d="M119.087 56.8387V63.7528C119.087 76.1166 114.283 87.4691 106.449 95.9648" stroke="#663366" stroke-width="4.10156" stroke-miterlimit="10" stroke-linecap="round" stroke-linejoin="round"/>
<path d="M45.2023 15.3615C27.9289 24.9241 16.2283 43.3965 16.3565 64.4796C16.5422 94.9668 41.2216 119.646 71.7087 119.831C102.533 120.018 127.753 94.4978 127.753 63.6735V57.406" stroke="#663366" stroke-width="4.10156" stroke-miterlimit="10" stroke-linecap="round" stroke-linejoin="round"/>
<path d="M140.999 41.216C140.003 39.8887 139.872 38.1092 140.567 36.602C141.148 35.3407 141.477 33.9448 141.488 32.4824C141.519 28.6007 139.37 25.2196 136.192 23.4863C134.262 22.4336 133.207 20.2928 133.422 18.1048C133.477 17.5508 133.486 16.984 133.447 16.4073C133.108 11.4469 129.094 7.42925 124.133 7.08718C118.261 6.68222 113.371 11.3263 113.371 17.1128C113.371 17.4617 113.388 17.8065 113.423 18.1461C113.645 20.3183 112.567 22.4407 110.65 23.486C107.472 25.2191 105.323 28.6004 105.353 32.4824C105.365 33.9448 105.694 35.3407 106.275 36.602C106.969 38.1092 106.838 39.8887 105.842 41.216C104.654 42.7987 103.935 44.7537 103.894 46.8756C103.789 52.3507 108.374 56.832 113.85 56.832H132.992C138.468 56.832 143.053 52.3507 142.947 46.8753C142.906 44.7537 142.187 42.7987 140.999 41.216Z" stroke="#663366" stroke-width="4.10156" stroke-miterlimit="10" stroke-linecap="round" stroke-linejoin="round"/>
<path d="M54.6761 68.4961C52.3054 66.1779 50.834 62.9442 50.834 59.3668C50.834 52.3157 56.5499 46.6 63.6008 46.6C67.4352 46.6 70.8748 48.2902 73.2148 50.9666" stroke="#663366" stroke-width="4.10156" stroke-miterlimit="10" stroke-linecap="round" stroke-linejoin="round"/>
<path d="M94.5673 67.5734H93.5427C92.0694 67.5734 90.799 66.551 90.4706 65.1146C89.3539 60.2316 84.9836 56.5888 79.762 56.5888C74.5407 56.5888 70.1704 60.2316 69.0536 65.1146C68.7252 66.551 67.4548 67.5734 65.9816 67.5734H58.1664C54.2743 67.5734 51.1191 70.7286 51.1191 74.6207C51.1191 78.5128 54.2743 81.668 58.1664 81.668H94.5673C98.4594 81.668 101.615 78.5128 101.615 74.6207C101.615 70.7286 98.4594 67.5734 94.5673 67.5734Z" stroke="#663366" stroke-width="4.10156" stroke-miterlimit="10" stroke-linecap="round" stroke-linejoin="round"/>
<path d="M63.5996 38.2702V39.8633" stroke="#663366" stroke-width="4.10156" stroke-miterlimit="10" stroke-linecap="round" stroke-linejoin="round"/>
<path d="M78.525 44.4477L77.3984 45.5742" stroke="#663366" stroke-width="4.10156" stroke-miterlimit="10" stroke-linecap="round" stroke-linejoin="round"/>
<path d="M44.0875 59.3711H42.4941" stroke="#663366" stroke-width="4.10156" stroke-miterlimit="10" stroke-linecap="round" stroke-linejoin="round"/>
<path d="M49.8023 45.5742L48.6758 44.4477" stroke="#663366" stroke-width="4.10156" stroke-miterlimit="10" stroke-linecap="round" stroke-linejoin="round"/>
<path d="M31.2957 133.941H26.6691C24.3977 133.941 22.5566 132.1 22.5566 129.829C22.5566 127.558 24.3977 125.716 26.6691 125.716H31.2957C33.5669 125.716 35.4082 127.558 35.4082 129.829C35.4082 132.1 33.5669 133.941 31.2957 133.941Z" stroke="#663366" stroke-width="4.10156" stroke-miterlimit="10" stroke-linecap="round" stroke-linejoin="round"/>
<path d="M22.557 129.832H17.9961" stroke="#663366" stroke-width="4.10156" stroke-miterlimit="10" stroke-linecap="round" stroke-linejoin="round"/>
<path d="M56.1023 133.941H51.4758C49.2043 133.941 47.3633 132.1 47.3633 129.829C47.3633 127.558 49.2043 125.716 51.4758 125.716H56.1023C58.3735 125.716 60.2148 127.558 60.2148 129.829C60.2148 132.1 58.3735 133.941 56.1023 133.941Z" stroke="#663366" stroke-width="4.10156" stroke-miterlimit="10" stroke-linecap="round" stroke-linejoin="round"/>
<path d="M47.3637 129.832H42.8027" stroke="#663366" stroke-width="4.10156" stroke-miterlimit="10" stroke-linecap="round" stroke-linejoin="round"/>
</g>
</svg>
