<svg width="150" height="150" viewBox="0 0 150 150" fill="none" xmlns="http://www.w3.org/2000/svg">
<path d="M81.291 140H85.4846V85.4841H140.001V81.2905H81.291V140Z" fill="#663366"/>
<path d="M10 85.4841H64.5161V140H68.7097V81.2905H10V85.4841Z" fill="#663366"/>
<path d="M64.5161 64.5161H60.3226V39.3548H50.4782L52.1556 22.5806H45.6452C45.6452 15.6424 40.0027 10 33.0645 10C26.1263 10 20.4839 15.6424 20.4839 22.5806H13.9734L18.1669 64.5161H10V68.7097H68.7097V10H64.5161V64.5161ZM56.129 64.5161H39.3548V43.5484H56.129V64.5161ZM33.0645 14.1935C37.69 14.1935 41.4516 17.9552 41.4516 22.5806C41.4516 27.2061 37.69 30.9677 33.0645 30.9677C28.439 30.9677 24.6774 27.2061 24.6774 22.5806C24.6774 17.9552 28.439 14.1935 33.0645 14.1935ZM18.6073 26.7742H21.2177C22.9497 31.6534 27.5982 35.1613 33.0645 35.1613C38.5308 35.1613 43.1794 31.6534 44.9113 26.7742H47.5218L46.2637 39.3548H35.1613V64.5161H22.3815L18.6073 26.7742Z" fill="#663366"/>
<path d="M135.807 64.5161V39.3548H119.033V14.1935H89.6781V64.5161H85.4846V10H81.291V68.7097H140.001V64.5161H135.807ZM131.614 64.5161H110.646V43.5484H131.614V64.5161ZM93.8717 18.3871H114.839V39.3548H106.452V64.5161H93.8717V18.3871Z" fill="#663366"/>
<path d="M34.4419 89.6772L14.1934 105.426V110.645H18.3869V131.613H56.1288V110.645H60.3224V105.426L40.0738 89.6772H34.4419ZM43.5482 127.419H30.9676V119.032H43.5482V127.419ZM51.9353 127.419H47.7417V114.839H26.774V127.419H22.5805V110.645H51.9353V127.419ZM19.7058 106.451L35.8803 93.8708H38.6334L54.8079 106.451H19.7058Z" fill="#663366"/>
<path d="M30.967 28.8712H35.1605V24.6776H39.3541V20.4841H35.1605V16.2905H30.967V20.4841H26.7734V24.6776H30.967V28.8712Z" fill="#663366"/>
<path d="M51.9359 47.7417H43.5488V51.9352H51.9359V47.7417Z" fill="#663366"/>
<path d="M51.9359 56.1289H43.5488V60.3225H51.9359V56.1289Z" fill="#663366"/>
<path d="M30.967 39.355H26.7734V43.5485H30.967V39.355Z" fill="#663366"/>
<path d="M30.967 47.7417H26.7734V51.9352H30.967V47.7417Z" fill="#663366"/>
<path d="M30.967 56.1289H26.7734V60.3225H30.967V56.1289Z" fill="#663366"/>
<path d="M125.322 127.419H138.951L128.065 101.289C127.247 99.3308 125.348 98.0643 123.226 98.0643C121.104 98.0643 119.204 99.3308 118.386 101.289L115.537 108.129L109.192 92.9021C108.376 90.9437 106.477 89.6772 104.355 89.6772C102.233 89.6772 100.333 90.9437 99.5154 92.9021L88.6289 119.032H102.258V135.806H89.6773V140H140V135.806H125.322V127.419ZM122.257 102.904C122.584 102.122 123.867 102.122 124.194 102.904L132.661 123.226H113.79L115.537 119.032H120.081L117.81 113.583L122.257 102.904ZM103.386 94.5166C103.713 93.7345 104.996 93.7345 105.323 94.5166L113.79 114.839H94.9192L103.386 94.5166ZM106.451 119.032H110.995L107.5 127.419H121.129V135.806H106.451V119.032Z" fill="#663366"/>
<path d="M119.031 47.7417H114.838V51.9352H119.031V47.7417Z" fill="#663366"/>
<path d="M119.031 56.1289H114.838V60.3225H119.031V56.1289Z" fill="#663366"/>
<path d="M127.42 47.7417H123.227V51.9352H127.42V47.7417Z" fill="#663366"/>
<path d="M127.42 56.1289H123.227V60.3225H127.42V56.1289Z" fill="#663366"/>
<path d="M110.645 22.5806H106.451V26.7741H110.645V22.5806Z" fill="#663366"/>
<path d="M102.258 22.5806H98.0645V26.7741H102.258V22.5806Z" fill="#663366"/>
<path d="M102.258 30.9678H98.0645V35.1613H102.258V30.9678Z" fill="#663366"/>
<path d="M110.645 30.9678H106.451V35.1613H110.645V30.9678Z" fill="#663366"/>
<path d="M102.258 56.1289H98.0645V60.3225H102.258V56.1289Z" fill="#663366"/>
<path d="M102.258 47.7417H98.0645V51.9352H102.258V47.7417Z" fill="#663366"/>
<path d="M102.258 39.355H98.0645V43.5485H102.258V39.355Z" fill="#663366"/>
</svg>
