<svg width="150" height="150" viewBox="0 0 150 150" fill="none" xmlns="http://www.w3.org/2000/svg">
<path d="M51.6953 9.875C52.8806 9.875 53.8504 10.8441 53.8506 12.0293V38.127L53.6201 37.7734C52.6332 36.2551 51.5895 34.8503 50.5723 33.5146L49.5664 32.2002L49.541 32.166V12.0303C49.541 10.845 50.5101 9.87521 51.6953 9.875Z" fill="#663366" stroke="#663366" stroke-width="0.25"/>
<path d="M98.377 9.875C99.5622 9.875 100.532 10.8441 100.532 12.0293V32.166L100.506 32.2002C99.1857 33.9265 97.7681 35.7488 96.4521 37.7734L96.2227 38.127V12.0293L96.2334 11.8096C96.3444 10.7267 97.266 9.8752 98.377 9.875Z" fill="#663366" stroke="#663366" stroke-width="0.25"/>
<path d="M106.496 9.87549C107.681 9.87549 108.651 10.8446 108.651 12.0298V23.0425L108.614 23.0786C107.398 24.2945 106.081 25.7137 104.558 27.3384L104.342 27.5688V12.0298C104.342 10.8445 105.311 9.8757 106.496 9.87549Z" fill="#663366" stroke="#663366" stroke-width="0.25"/>
<path d="M43.5762 9.875C44.7614 9.875 45.7312 10.8441 45.7314 12.0293V27.6846L45.5127 27.4365C43.9932 25.7145 42.6758 24.3975 41.458 23.1797L41.4219 23.1436V12.0303C41.4219 10.8451 42.391 9.87521 43.5762 9.875Z" fill="#663366" stroke="#663366" stroke-width="0.25"/>
<path d="M75.0352 9.875C76.2204 9.875 77.1902 10.8441 77.1904 12.0293V15.0742C77.1904 16.2596 76.2205 17.2285 75.0352 17.2285C73.85 17.2283 72.8809 16.2595 72.8809 15.0742V12.0293C72.8811 10.8442 73.8501 9.87521 75.0352 9.875Z" fill="#663366" stroke="#663366" stroke-width="0.25"/>
<path d="M75.0352 21.0381C76.2204 21.0381 77.1902 22.0072 77.1904 23.1924V27.252C77.1904 28.4373 76.2205 29.4072 75.0352 29.4072C73.85 29.407 72.8809 28.4372 72.8809 27.252V23.1924C72.8811 22.0073 73.8501 21.0383 75.0352 21.0381Z" fill="#663366" stroke="#663366" stroke-width="0.25"/>
<path d="M75.0352 45.395C76.2204 45.395 77.1902 46.3641 77.1904 47.5493V51.6089C77.1904 52.7943 76.2205 53.7642 75.0352 53.7642C73.85 53.764 72.8809 52.7941 72.8809 51.6089V47.5493C72.8811 46.3643 73.8501 45.3952 75.0352 45.395Z" fill="#663366" stroke="#663366" stroke-width="0.25"/>
<path d="M75.0352 33.2168C76.2204 33.2168 77.1902 34.1859 77.1904 35.3711V39.4307C77.1904 40.616 76.2205 41.5859 75.0352 41.5859C73.85 41.5857 72.8809 40.6159 72.8809 39.4307V35.3711C72.8811 34.186 73.8501 33.217 75.0352 33.2168Z" fill="#663366" stroke="#663366" stroke-width="0.25"/>
<path d="M75.0352 57.5732C76.2204 57.5732 77.1902 58.5423 77.1904 59.7275V63.7871C77.1904 64.9725 76.2205 65.9424 75.0352 65.9424C73.85 65.9422 72.8809 64.9723 72.8809 63.7871V59.7275C72.8811 58.5425 73.8501 57.5735 75.0352 57.5732Z" fill="#663366" stroke="#663366" stroke-width="0.25"/>
<path d="M75.0352 69.7515C76.2204 69.7515 77.1902 70.7206 77.1904 71.9058V75.9653C77.1904 77.1507 76.2205 78.1206 75.0352 78.1206C73.85 78.1204 72.8809 77.1506 72.8809 75.9653V71.9058C72.8811 70.7207 73.8501 69.7517 75.0352 69.7515Z" fill="#663366" stroke="#663366" stroke-width="0.25"/>
<path d="M30.584 22.0073C31.2348 21.0311 32.6335 20.8219 33.5986 21.4653H33.5977C34.1784 21.8205 45.5275 29.8587 55.458 48.1997L55.8965 48.9995C65.1134 65.9783 74.6755 94.7894 69.4775 137.074L69.4766 137.073C69.3674 138.258 68.3953 139.01 67.3232 139.01H67.1094C65.9126 138.901 65.1639 137.814 65.2705 136.641L65.2715 136.637L65.4922 134.778C74.4289 56.4388 31.503 25.3053 31.1201 25.0181V25.0171C30.1493 24.3645 29.942 22.9704 30.584 22.0073Z" fill="#663366" stroke="#663366" stroke-width="0.25"/>
<path d="M10.1855 29.1108C10.7899 28.2042 12.0541 27.8612 13.0127 28.3569L13.2002 28.4673L13.2109 28.4741L13.2197 28.4829L13.376 28.605C13.4638 28.6693 13.5839 28.7548 13.7363 28.8628L15.0312 29.7896L15.0342 29.7915L15.2061 29.938C16.0215 30.7012 16.171 31.8974 15.4619 32.8091L15.4609 32.8101C15.0332 33.3447 14.3898 33.6683 13.7402 33.6685C13.3107 33.6685 12.8774 33.5604 12.4473 33.2378L12.4453 33.2368C11.9902 32.8829 11.6109 32.6049 11.3457 32.4155C11.2131 32.3208 11.1089 32.2475 11.0381 32.1987C11.003 32.1746 10.9761 32.1563 10.958 32.144L10.9316 32.1265L10.9307 32.1255C9.97294 31.4871 9.53028 30.0939 10.1855 29.1108Z" fill="#663366" stroke="#663366" stroke-width="0.25"/>
<path d="M47.0127 91.5693C48.115 91.4692 49.1304 92.1218 49.4307 93.1797L49.4814 93.3975L49.4824 93.4014H49.4814C49.5833 94.1143 49.6603 94.8271 49.7363 95.5371C49.7744 95.8925 49.8124 96.2472 49.8535 96.6016L49.9893 97.6641L49.9902 97.6699L49.999 97.8906C49.9889 98.9836 49.1635 99.9378 48.0498 100.039L48.0391 100.04V100.039H47.8359C46.7581 100.039 45.7898 99.1802 45.6816 98.1006V98.0967C45.5806 96.6825 45.3785 95.267 45.1758 93.9492L45.1475 93.7275C45.0684 92.6264 45.9005 91.6704 47.0127 91.5693Z" fill="#663366" stroke="#663366" stroke-width="0.25"/>
<path d="M48.5488 116.94C49.8336 116.94 50.7032 117.908 50.6016 119.095H50.6025C50.6025 120.521 50.4999 121.946 50.3984 123.366V123.369C50.2911 124.547 49.3257 125.41 48.2441 125.41H48.1426C46.9517 125.41 45.9821 124.331 46.0898 123.144C46.1403 122.436 46.166 121.754 46.1914 121.069C46.2168 120.385 46.2421 119.697 46.293 118.984V118.982L46.3232 118.765C46.5225 117.696 47.4432 116.94 48.5488 116.94Z" fill="#663366" stroke="#663366" stroke-width="0.25"/>
<path d="M50.7197 107.328C50.7292 107.677 50.7422 108.035 50.7549 108.397C50.7802 109.12 50.8057 109.858 50.8057 110.571C50.8056 111.756 49.8357 112.725 48.6504 112.725C47.4651 112.725 46.4961 111.756 46.4961 110.571C46.4961 109.15 46.4955 107.836 46.3945 106.421L46.3867 106.2C46.4088 105.102 47.3308 104.154 48.4473 104.154C49.6302 104.154 50.5964 105.017 50.7031 106.298L50.7041 106.308L50.7197 107.328Z" fill="#663366" stroke="#663366" stroke-width="0.25"/>
<path d="M27.1611 45.0146C28.1324 44.2596 29.4254 44.4798 30.1748 45.4404H30.1758C31.0918 46.5601 31.9052 47.7806 32.7148 48.9951L32.8447 49.1826C33.3918 50.0796 33.1266 51.2449 32.3516 51.8877L32.1777 52.0176C31.8482 52.2371 31.4165 52.3428 30.9922 52.3428C30.2422 52.3427 29.5933 52.0191 29.1631 51.374V51.373L26.7324 48.0312V48.0322C25.9762 47.0599 26.198 45.7638 27.1611 45.0146Z" fill="#663366" stroke="#663366" stroke-width="0.25"/>
<path d="M39.9775 67.0205C40.9876 66.6164 42.1855 67.0625 42.6875 68.0098L42.7783 68.2061L42.7793 68.208L43.541 70.2002C43.7949 70.8729 44.0488 71.5585 44.3027 72.2695H44.3018C44.7335 73.3556 44.083 74.6386 43.0137 75.0664L43.0068 75.0693C42.6829 75.1773 42.4634 75.1768 42.2568 75.1768C41.3965 75.1768 40.5359 74.6404 40.2119 73.7764L40.208 73.7676L40.3281 73.7324L40.208 73.7666C39.804 72.3529 39.2998 71.1423 38.791 69.8193V69.8184C38.3619 68.7415 38.8983 67.4524 39.9775 67.0205Z" fill="#663366" stroke="#663366" stroke-width="0.25"/>
<path d="M44.2529 79.0923C45.3359 78.7691 46.5173 79.4186 46.8408 80.5962L46.9893 81.0981C47.3245 82.2763 47.5907 83.5212 47.8564 84.7612H47.8574C48.1808 85.9479 47.425 87.1369 46.2363 87.353L46.2256 87.355H46.2139C46.1625 87.355 46.1208 87.3545 46.0859 87.356C46.0641 87.3569 46.0476 87.3591 46.0352 87.3608V87.4565H45.9102C44.8347 87.4565 43.9734 86.7033 43.7578 85.7358L43.5146 84.7329C43.4292 84.3943 43.3408 84.0521 43.252 83.7095C43.0745 83.0248 42.8958 82.3378 42.7432 81.6763L42.7441 81.6753C42.4245 80.5926 43.0748 79.4127 44.2529 79.0913V79.0923Z" fill="#663366" stroke="#663366" stroke-width="0.25"/>
<path d="M18.667 35.541C19.4533 34.8265 20.7374 34.8849 21.541 35.6885C22.5556 36.7031 23.5727 37.72 24.5898 38.8389H24.5889C25.4481 39.7026 25.3395 41.0958 24.4834 41.8516L24.4844 41.8525C24.1538 42.1831 23.6127 42.3965 23.0762 42.3965C22.4224 42.3965 21.8854 42.069 21.4658 41.6494L21.457 41.6406C20.5454 40.5263 19.64 39.5219 18.5371 38.7197L18.5283 38.7129C17.658 37.9513 17.6652 36.552 18.5166 35.6943L18.667 35.541Z" fill="#663366" stroke="#663366" stroke-width="0.25"/>
<path d="M34.3857 55.5557C35.3534 55.0219 36.749 55.3395 37.292 56.4199L38.3447 58.3486C38.6875 58.9835 39.0182 59.6196 39.3232 60.2803L39.4121 60.4834C39.8037 61.5119 39.3668 62.6818 38.3447 63.0908L38.3379 63.0938C38.0377 63.1938 37.7131 63.3027 37.3848 63.3027C36.6391 63.3027 35.7771 62.8797 35.4463 62.1172L34.9883 61.2041C34.5273 60.2917 34.0525 59.3811 33.5215 58.4707L33.5176 58.4639C33.0177 57.4638 33.2634 56.2599 34.1914 55.666L34.3857 55.5557Z" fill="#663366" stroke="#663366" stroke-width="0.25"/>
<path d="M47.6465 129.627L47.6572 129.628L47.6348 129.751L47.6572 129.629C48.8332 129.843 49.6936 130.913 49.5859 132.098L49.585 132.104C49.5341 132.459 49.4833 132.79 49.4326 133.12C49.3819 133.45 49.3309 133.779 49.2803 134.134L49.2793 134.141C49.0654 135.209 48.2059 135.966 47.127 135.966H46.8115L46.8008 135.964C45.6161 135.748 44.8658 134.671 44.9727 133.495L44.9736 133.489L45.126 132.473C45.1767 132.143 45.2277 131.813 45.2783 131.459C45.3836 130.341 46.3436 129.616 47.4277 129.617L47.6465 129.627Z" fill="#663366" stroke="#663366" stroke-width="0.25"/>
<path d="M116.658 21.2534C117.61 20.7496 118.877 20.9905 119.487 21.9058C120.131 22.8709 119.922 24.2696 118.945 24.9204L118.939 24.9253L118.932 24.9282C118.935 24.9267 118.926 24.9323 118.896 24.9526C118.871 24.9703 118.834 24.9954 118.788 25.0288C118.695 25.0958 118.564 25.1941 118.396 25.3237C118.059 25.583 117.578 25.9682 116.976 26.4829C115.77 27.5124 114.079 29.0598 112.091 31.1558C108.114 35.3476 102.944 41.7321 98.0791 50.5503L98.0801 50.5513C89.1624 66.8676 79.6293 94.9511 84.6982 136.629L84.7256 136.851C84.8045 137.952 83.9732 138.907 82.8613 139.008L82.8496 139.009H82.6465C81.5685 139.009 80.6002 138.15 80.4922 137.07V137.069C75.2121 94.1154 85.1634 65.0666 94.5117 48.1987L94.9893 47.3442C104.99 29.6147 115.891 21.7209 116.473 21.3638L116.658 21.2534Z" fill="#663366" stroke="#663366" stroke-width="0.25"/>
<path d="M124.372 138.087C124.274 139.166 123.448 140.024 122.34 140.125L122.328 140.126V140.125H122.227C121.145 140.125 120.18 139.261 120.073 138.083L120.072 138.08C117.331 98.2723 127.283 71.3548 136.123 55.707C136.634 54.6933 137.804 54.3551 138.825 54.7549L139.028 54.8447L139.033 54.8477L139.209 54.958C140.057 55.5506 140.396 56.7528 139.897 57.8496L139.893 57.8594C131.379 72.9613 121.745 99.1194 124.382 137.86V137.869L124.372 138.087Z" fill="#663366" stroke="#663366" stroke-width="0.25"/>
<path d="M11.0459 54.8447C12.1221 54.2052 13.4101 54.6375 13.9492 55.6064H13.9502C22.7907 71.2543 32.7429 98.1716 30.001 137.979V137.982C29.8938 139.161 28.9282 140.024 27.8467 140.024H27.7451C26.5539 140.024 25.5844 138.945 25.6924 137.757C28.2459 100.228 19.2849 74.5065 10.9824 59.2061L10.1807 57.7578C9.64249 56.7889 9.96068 55.3873 11.0459 54.8447Z" fill="#663366" stroke="#663366" stroke-width="0.25"/>
<path d="M136.779 28.4629C137.748 27.8231 139.142 28.1412 139.688 29.1162H139.688C140.292 30.1215 140.047 31.32 139.216 31.998L139.042 32.126L139.04 32.127C139.039 32.1277 139.037 32.1294 139.035 32.1309C139.031 32.1339 139.024 32.1385 139.015 32.1445C138.997 32.1568 138.97 32.1751 138.935 32.1992C138.864 32.248 138.76 32.3213 138.627 32.416C138.362 32.6054 137.982 32.8833 137.527 33.2373L137.525 33.2383C137.095 33.5609 136.662 33.6689 136.232 33.6689C135.583 33.6689 134.939 33.3453 134.511 32.8105L134.51 32.8096C133.754 31.838 133.974 30.5434 134.936 29.7939L135.337 29.4736C135.718 29.1763 136.036 28.9484 136.276 28.7852C136.436 28.6765 136.561 28.5961 136.646 28.543C136.689 28.5164 136.723 28.4967 136.745 28.4834C136.756 28.4769 136.765 28.4721 136.771 28.4688C136.773 28.4673 136.775 28.4657 136.776 28.4648L136.778 28.4639L136.779 28.4629Z" fill="#663366" stroke="#663366" stroke-width="0.25"/>
<path d="M128.328 35.4854C129.189 34.6249 130.485 34.6249 131.346 35.4854C132.205 36.3445 132.206 37.6373 131.35 38.498L131.351 38.499C130.893 39.0078 130.409 39.5163 129.928 40.0234C129.445 40.5311 128.964 41.038 128.509 41.5439C128.074 42.0825 127.429 42.2949 126.894 42.2949C126.453 42.2948 125.92 42.0777 125.5 41.7627L125.492 41.7578L125.486 41.751C124.625 40.8896 124.632 39.6041 125.268 38.6504L125.272 38.6426L125.279 38.6357C126.296 37.5169 127.314 36.4999 128.328 35.4854Z" fill="#663366" stroke="#663366" stroke-width="0.25"/>
<path d="M119.896 45.4424C120.645 44.4793 121.941 44.2584 122.913 45.0146C123.876 45.7639 124.097 47.0599 123.341 48.0322L123.34 48.0332C122.531 49.0441 121.725 50.2515 120.909 51.373L120.91 51.374C120.48 52.019 119.831 52.3428 119.081 52.3428C118.71 52.3428 118.333 52.2621 118.023 52.0947L117.896 52.0176C116.919 51.3668 116.71 49.9671 117.354 49.002L117.979 48.0889C118.618 47.1781 119.286 46.2821 119.894 45.4463L119.896 45.4424Z" fill="#663366" stroke="#663366" stroke-width="0.25"/>
<path d="M112.783 56.4165C113.328 55.3361 114.622 55.0233 115.687 55.5552L115.882 55.6675C116.811 56.2739 117.053 57.5678 116.555 58.5649L116.551 58.5718C115.843 59.7856 115.235 60.9999 114.626 62.2183L114.623 62.2241C114.196 62.971 113.446 63.4038 112.688 63.4038C112.359 63.4038 112.035 63.2939 111.734 63.1938L111.727 63.1919L111.719 63.188C110.642 62.6497 110.211 61.3563 110.749 60.2798C111.36 58.957 112.072 57.6357 112.783 56.4165Z" fill="#663366" stroke="#663366" stroke-width="0.25"/>
<path d="M100.637 92.979C100.935 91.9172 101.946 91.1663 103.065 91.3696C104.238 91.5828 105.105 92.6516 104.892 93.8433L104.893 93.8442C104.791 94.5524 104.716 95.2361 104.64 95.9214C104.564 96.6042 104.486 97.289 104.385 97.9995L104.386 98.0005C104.278 99.08 103.309 99.939 102.231 99.939H102.018C100.826 99.8306 99.9706 98.7481 100.077 97.4692C100.179 96.044 100.383 94.6191 100.586 93.1997V93.1958L100.637 92.979Z" fill="#663366" stroke="#663366" stroke-width="0.25"/>
<path d="M103.973 123.373C103.874 124.448 103.055 125.302 101.953 125.408V125.512H101.828C100.747 125.512 99.781 124.648 99.6738 123.47V123.468C99.6229 122.755 99.5976 122.042 99.5723 121.332C99.5469 120.622 99.5211 119.915 99.4707 119.208L99.4629 118.986C99.4849 117.889 100.407 116.941 101.523 116.94C102.692 116.94 103.78 117.793 103.78 118.994C103.78 120.308 103.881 121.724 103.982 123.146L103.983 123.154L103.973 123.373Z" fill="#663366" stroke="#663366" stroke-width="0.25"/>
<path d="M101.637 104.153L101.625 104.278L101.637 104.154C102.819 104.261 103.679 105.23 103.679 106.409C103.679 107.071 103.653 107.759 103.628 108.456C103.603 109.154 103.577 109.862 103.577 110.57C103.577 111.755 102.607 112.724 101.422 112.724C100.233 112.724 99.2676 111.751 99.2676 110.468C99.2676 109.048 99.2673 107.623 99.3691 106.197V106.195L99.3994 105.977C99.5987 104.908 100.519 104.153 101.625 104.153H101.637Z" fill="#663366" stroke="#663366" stroke-width="0.25"/>
<path d="M103.23 80.4976C103.453 79.4137 104.64 78.668 105.819 78.9897L106.033 79.0601C107.006 79.4314 107.558 80.4093 107.461 81.2856L107.431 81.4722L107.428 81.4819C107.024 82.7956 106.72 84.2106 106.415 85.5327L106.413 85.5405C106.094 86.6027 105.237 87.2534 104.264 87.2534H103.841L103.825 87.2485C102.644 86.9265 101.999 85.8484 102.213 84.6704L102.214 84.6646L102.684 82.6216C102.849 81.9225 103.027 81.21 103.23 80.4976Z" fill="#663366" stroke="#663366" stroke-width="0.25"/>
<path d="M107.384 68.0083C107.886 67.0609 109.084 66.6152 110.094 67.019L110.289 67.1079C111.233 67.5964 111.684 68.7016 111.28 69.7153L111.281 69.7163C111.028 70.3737 110.801 71.0319 110.572 71.6919C110.344 72.3511 110.115 73.0125 109.86 73.6743C109.536 74.5379 108.675 75.0736 107.815 75.0737C107.522 75.0737 107.29 75.0757 107.059 74.9634C105.981 74.633 105.339 73.3444 105.771 72.2642C106.278 70.8433 106.786 69.5243 107.293 68.2065V68.2046L107.384 68.0083Z" fill="#663366" stroke="#663366" stroke-width="0.25"/>
<path d="M102.423 129.729C103.607 129.52 104.678 130.38 104.79 131.558L104.854 132.037C104.874 132.199 104.892 132.361 104.917 132.523C104.954 132.766 105.005 133.005 105.089 133.23L105.185 133.451L105.192 133.466L105.195 133.484C105.411 134.669 104.552 135.857 103.358 135.965L103.348 135.966V135.965H103.043C101.974 135.965 100.998 135.216 100.889 134.127V134.126C100.838 133.775 100.788 133.447 100.737 133.12C100.687 132.79 100.636 132.459 100.585 132.103L100.586 132.102C100.373 130.913 101.239 129.836 102.423 129.728V129.729Z" fill="#663366" stroke="#663366" stroke-width="0.25"/>
</svg>
