<svg width="150" height="150" viewBox="0 0 150 150" fill="none" xmlns="http://www.w3.org/2000/svg">
<path d="M86.4283 38.5486C92.1792 38.5486 96.841 33.8867 96.841 28.1359V23.9283C96.841 18.1775 92.1792 13.5156 86.4283 13.5156C80.6775 13.5156 76.0156 18.1775 76.0156 23.9283V28.1359C76.0156 33.8867 80.6775 38.5486 86.4283 38.5486Z" stroke="#663366" stroke-width="4.16508" stroke-miterlimit="10"/>
<path d="M96.841 26.0386V15.4127C96.841 9.66183 92.1792 5 86.4283 5C80.6775 5 76.0156 9.66183 76.0156 15.4127V26.0386" stroke="#663366" stroke-width="4.16508" stroke-miterlimit="10"/>
<path d="M97.1067 21.8594H101.077C104.522 21.8594 107.316 24.6525 107.316 28.0981C107.316 31.5437 104.522 34.3368 101.077 34.3368H94.8281" stroke="#663366" stroke-width="4.16508" stroke-miterlimit="10"/>
<path d="M86.4277 13.5156V21.8544" stroke="#663366" stroke-width="4.16508" stroke-miterlimit="10"/>
<path d="M73.8741 77.0448V69.4483C71.4478 68.5906 69.709 66.2776 69.709 63.5575C69.709 60.7919 71.5069 58.4475 73.9971 57.625C74.8431 51.5471 80.0584 46.8672 86.3693 46.8672C93.2703 46.8672 98.8645 52.4614 98.8645 59.3624V77.0446L86.6747 87.4492L73.8741 77.0448Z" stroke="#663366" stroke-width="4.16508" stroke-miterlimit="10"/>
<path d="M73.875 75.9766H98.8655" stroke="#663366" stroke-width="4.16508" stroke-miterlimit="10"/>
<path d="M65.1242 111.398L63.986 108.961C59.9509 100.322 61.4173 90.1137 67.7212 82.96L73.875 75.9766H98.8655L109.367 98.1334C113.176 106.17 111.792 115.707 105.857 122.331L98.8655 130.132H73.875L67.0701 115.563" stroke="#663366" stroke-width="4.16508" stroke-miterlimit="10"/>
<path d="M73.875 130.131L82.3332 83.9141" stroke="#663366" stroke-width="4.16508" stroke-miterlimit="10"/>
<path d="M94.048 103.066L90.6621 84.0391" stroke="#663366" stroke-width="4.16508" stroke-miterlimit="10"/>
<path d="M98.8664 130.13L94.7949 107.25" stroke="#663366" stroke-width="4.16508" stroke-miterlimit="10"/>
<path d="M78.8008 130.133L82.3325 136.389V144.997" stroke="#663366" stroke-width="4.16508" stroke-miterlimit="10"/>
<path d="M90.6621 130.133V142.894H98.9923" stroke="#663366" stroke-width="4.16508" stroke-miterlimit="10"/>
<path d="M47.0024 19.5693L37.2647 17.2716C35.0189 16.7737 33.6019 14.5496 34.0995 12.3038C34.5974 10.058 36.8215 8.64099 39.0673 9.13858L42.099 9.81055L57.6897 40.3944L78.5151 49.8519" stroke="#663366" stroke-width="4.16508" stroke-miterlimit="10"/>
<path d="M90.6622 61.4141H82.332V67.6431C82.332 69.9433 84.1969 71.8082 86.4971 71.8082C88.7973 71.8082 90.6622 69.9433 90.6622 67.6431V61.4141Z" stroke="#663366" stroke-width="4.16508" stroke-miterlimit="10"/>
<path d="M90.6621 61.415H115.653V59.5185L90.6621 47.6172" stroke="#663366" stroke-width="4.16508" stroke-miterlimit="10"/>
<path d="M69.8379 94.7422V98.9073" stroke="#663366" stroke-width="4.16508" stroke-miterlimit="10"/>
</svg>
