<svg width="150" height="150" viewBox="0 0 150 150" fill="none" xmlns="http://www.w3.org/2000/svg">
<path d="M127.099 53.2835H79.8083C78.2303 53.2835 76.9512 52.0044 76.9512 50.4264V40.8181C76.9512 39.2401 78.2303 37.9609 79.8083 37.9609H127.099C128.677 37.9609 129.956 39.2401 129.956 40.8181V50.4264C129.956 52.0044 128.677 53.2835 127.099 53.2835Z" stroke="#663366" stroke-width="6.28571" stroke-miterlimit="10" stroke-linejoin="round"/>
<path d="M43.1076 61.5981C49.6349 61.5981 54.9262 56.3067 54.9262 49.7795C54.9262 43.2523 49.6349 37.9609 43.1076 37.9609C36.5804 37.9609 31.2891 43.2523 31.2891 49.7795C31.2891 56.3067 36.5804 61.5981 43.1076 61.5981Z" stroke="#663366" stroke-width="6.28571" stroke-miterlimit="10" stroke-linecap="round" stroke-linejoin="round"/>
<path d="M61.5888 83.2234C64.8582 83.2234 67.0545 79.9074 65.8225 76.8791C62.1759 67.9165 53.3802 61.5977 43.1074 61.5977C32.8348 61.5977 24.0388 67.9165 20.3922 76.8791C19.1599 79.9077 21.3562 83.2234 24.6256 83.2234H61.5888Z" stroke="#663366" stroke-width="6.28571" stroke-miterlimit="10" stroke-linecap="round" stroke-linejoin="round"/>
<path d="M130.714 128.663H19.2857C11.396 128.663 5 122.267 5 114.377V35.2857C5 27.396 11.396 21 19.2857 21H130.714C138.604 21 145 27.396 145 35.2857V114.377C145 122.267 138.604 128.663 130.714 128.663Z" stroke="#663366" stroke-width="6.28571" stroke-miterlimit="10" stroke-linecap="round" stroke-linejoin="round"/>
<path d="M103.452 111.706C115.612 111.706 125.469 101.848 125.469 89.6887C125.469 77.5292 115.612 67.6719 103.452 67.6719C91.2928 67.6719 81.4355 77.5292 81.4355 89.6887C81.4355 101.848 91.2928 111.706 103.452 111.706Z" stroke="#663366" stroke-width="6.28571" stroke-miterlimit="10" stroke-linecap="round" stroke-linejoin="round"/>
<path d="M103.452 97.1968C107.599 97.1968 110.961 93.8351 110.961 89.6883C110.961 85.5414 107.599 82.1797 103.452 82.1797C99.3051 82.1797 95.9434 85.5414 95.9434 89.6883C95.9434 93.8351 99.3051 97.1968 103.452 97.1968Z" stroke="#663366" stroke-width="6.28571" stroke-miterlimit="10" stroke-linecap="round" stroke-linejoin="round"/>
<path d="M103.453 98.5625V111.704" stroke="#663366" stroke-width="6.28571" stroke-miterlimit="10" stroke-linecap="round" stroke-linejoin="round"/>
<path d="M84.6348 78.3672L95.5959 86.3523" stroke="#663366" stroke-width="6.28571" stroke-miterlimit="10" stroke-linecap="round" stroke-linejoin="round"/>
<path d="M122.27 78.3672L111.309 86.3523" stroke="#663366" stroke-width="6.28571" stroke-miterlimit="10" stroke-linecap="round" stroke-linejoin="round"/>
<path d="M21.4668 98.4453H62.8514" stroke="#663366" stroke-width="6.28571" stroke-miterlimit="10" stroke-linecap="round" stroke-linejoin="round"/>
<path d="M21.4668 111.703H61.4719" stroke="#663366" stroke-width="6.28571" stroke-miterlimit="10" stroke-linecap="round" stroke-linejoin="round"/>
</svg>
