<svg width="151" height="151" viewBox="0 0 151 151" fill="none" xmlns="http://www.w3.org/2000/svg">
<path fill-rule="evenodd" clip-rule="evenodd" d="M18.5822 119.921H11.7388C10.7779 119.921 10 119.142 10 118.184C10 117.224 10.7779 116.445 11.7388 116.445H16.8432V107.922L16.8454 99.815C16.8432 99.8056 16.8432 99.7943 16.8454 99.7829L16.8432 91.6755V77.5407H14.9743C14.0134 77.5407 13.2353 76.7618 13.2353 75.8018V70.6119C13.2353 69.652 14.0134 68.873 14.9743 68.873H47.8462C47.6743 68.6034 47.5751 68.2828 47.5751 67.9395V61.6784C47.5751 60.7184 48.3531 59.9415 49.3118 59.9415H50.7841V52.0829H49.3118C48.3531 52.0829 47.5751 51.3059 47.5751 50.346V44.0848C47.5751 43.1249 48.3531 42.346 49.3118 42.346H50.7841V39.4097C50.7841 35.3173 54.1011 32 58.1938 32H91.8062C95.8989 32 99.2181 35.3173 99.2181 39.4097V42.346H100.688C101.649 42.346 102.427 43.1249 102.427 44.0848V50.346C102.427 51.3059 101.649 52.0829 100.688 52.0829H99.2181V59.9415H100.688C101.649 59.9415 102.427 60.7184 102.427 61.6784V67.9395C102.427 68.2828 102.328 68.6034 102.156 68.873H134.973C135.934 68.873 136.712 69.652 136.712 70.6119V75.8018C136.712 76.7618 135.934 77.5407 134.973 77.5407H133.104V91.6755V99.7829C133.104 99.7943 133.104 99.8056 133.104 99.815V107.922V116.445H138.263C139.222 116.445 140 117.224 140 118.184C140 119.142 139.222 119.921 138.263 119.921H66.9192H52.5208C52.5031 119.921 52.4856 119.921 52.4679 119.921H18.5822ZM20.321 109.659V116.445H50.7311V77.5407H20.321V81.8311H42.9028C43.8615 81.8311 44.6395 82.61 44.6395 83.5699V91.6755V99.7829C44.6395 99.7943 44.6395 99.8056 44.6395 99.815V107.922C44.6395 108.882 43.8615 109.659 42.9028 109.659H20.321ZM20.321 101.554V106.184H24.9516V101.554H20.321ZM20.321 93.4143V98.0441H24.9516V93.4143H20.321ZM20.321 85.3068V89.9386H24.9516V85.3068H20.321ZM50.7311 74.063V72.3507H16.7132V74.063H50.7311ZM57.4996 63.4171H51.0508V66.2026H57.4996V63.4171ZM54.2597 52.0829V59.9415H59.2384C60.1971 59.9415 60.9752 60.7184 60.9752 61.6784V67.9395C60.9752 68.8995 60.1971 69.6783 59.2384 69.6783H54.2597V116.445H65.1825V104.643H64.4288C63.4701 104.643 62.6898 103.864 62.6898 102.904V98.4873C62.6898 97.5274 63.4701 96.7485 64.4288 96.7485H85.5735C86.5322 96.7485 87.3102 97.5274 87.3102 98.4873V102.904C87.3102 103.864 86.5322 104.643 85.5735 104.643H84.8197V116.445H95.7425V69.6783H90.7637C89.8028 69.6783 89.0248 68.8995 89.0248 67.9395V61.6784C89.0248 60.7184 89.8028 59.9415 90.7637 59.9415H95.7425V52.0829H90.7637C89.8028 52.0829 89.0248 51.3059 89.0248 50.346V44.0848C89.0248 43.1249 89.8028 42.346 90.7637 42.346H95.7425V39.4097C95.7425 37.2371 93.9793 35.4757 91.8062 35.4757H58.1938C56.0207 35.4757 54.2597 37.2371 54.2597 39.4097V42.346H59.2384C60.1971 42.346 60.9752 43.1249 60.9752 44.0848V50.346C60.9752 51.3059 60.1971 52.0829 59.2384 52.0829H54.2597ZM57.4996 45.8217H51.0508V48.6072H57.4996V45.8217ZM92.5004 48.6072H98.9514V45.8217H92.5004V48.6072ZM92.5004 66.2026H98.9514V63.4171H92.5004V66.2026ZM99.2181 74.063H133.236V72.3507H99.2181V74.063ZM129.628 81.8311V77.5407H99.2181V116.445H129.628V109.659H107.047C106.086 109.659 105.308 108.882 105.308 107.922V99.815C105.308 99.8056 105.308 99.7943 105.308 99.7829V91.6755V83.5699C105.308 82.61 106.086 81.8311 107.047 81.8311H129.628ZM129.628 89.9386V85.3068H124.998V89.9386H129.628ZM129.628 98.0441V93.4143H124.998V98.0441H129.628ZM129.628 106.184V101.554H124.998V106.184H129.628ZM76.7378 116.445H81.3441V104.677H76.7378V116.445ZM68.6582 116.445H73.2622V104.677H68.6582V116.445ZM33.0577 85.3068H28.4272V89.9386H33.0577V85.3068ZM41.1639 89.9386V85.3068H36.5333V89.9386H41.1639ZM36.5333 98.0441H41.1639V93.4143H36.5333V98.0441ZM36.5333 106.184H41.1639V101.554H36.5333V106.184ZM28.4272 106.184H33.0577V101.554H28.4272V106.184ZM28.4272 93.4143V98.0441H33.0577V93.4143H28.4272ZM116.889 106.184H121.522V101.554H116.889V106.184ZM113.414 101.554H108.783V106.184H113.414V101.554ZM108.783 93.4143V98.0441H113.414V93.4143H108.783ZM113.414 85.3068H108.783V89.9386H113.414V85.3068ZM121.522 85.3068H116.889V89.9386H121.522V85.3068ZM121.522 98.0441V93.4143H116.889V98.0441H121.522ZM80.2289 52.8146C82.3293 53.1805 84.0395 54.793 84.4847 56.9391C84.8308 58.6063 84.9343 60.7298 85.2869 62.5044C85.558 63.8623 85.2208 65.271 84.3811 66.346C83.5172 67.453 82.2124 68.0866 80.8415 68.0866H69.1585C67.7876 68.0866 66.485 67.453 65.6189 66.346C64.7792 65.271 64.4442 63.8623 64.7131 62.5044C65.0679 60.7298 65.1715 58.6063 65.5175 56.9391C65.9605 54.793 67.6729 53.1805 69.7711 52.8146V51.2097C69.7711 49.8217 70.3221 48.4922 71.3029 47.5115C72.2837 46.5308 73.6148 45.9801 75.0011 45.9801C76.3874 45.9801 77.7163 46.5308 78.6971 47.5115C79.6779 48.4922 80.2289 49.8217 80.2289 51.2097V52.8146ZM69.813 56.4337C69.3656 56.6807 69.0306 57.1164 68.9204 57.6444C68.5766 59.304 68.4752 61.4181 68.1226 63.1833C68.052 63.5435 68.1358 63.9188 68.3584 64.2054C68.5546 64.4563 68.8477 64.6109 69.1585 64.6109H80.8415C81.1545 64.6109 81.4455 64.4563 81.6438 64.2054C81.8664 63.9188 81.9502 63.5435 81.8774 63.1833C81.527 61.4181 81.4257 59.304 81.0819 57.6444C80.9717 57.1164 80.6366 56.6807 80.187 56.4337C80.0129 57.2107 79.3187 57.7897 78.4922 57.7897C77.5864 57.7897 76.8414 57.0956 76.7598 56.2111H73.2402C73.1586 57.0956 72.4159 57.7897 71.5101 57.7897C70.6814 57.7897 69.9893 57.2107 69.813 56.4337ZM76.7533 52.7354V51.2097C76.7533 50.7439 76.5681 50.2988 76.2397 49.9707C75.9113 49.6407 75.4661 49.4558 75.0011 49.4558C74.536 49.4558 74.0887 49.6407 73.7603 49.9707C73.4319 50.2988 73.2467 50.7439 73.2467 51.2097V52.7354H76.7533ZM61.1029 91.023V74.8099C61.1029 73.85 61.881 73.0711 62.8397 73.0711H87.1603C88.1212 73.0711 88.8992 73.85 88.8992 74.8099V91.023C88.8992 91.9829 88.1212 92.7599 87.1603 92.7599H62.8397C61.881 92.7599 61.1029 91.9829 61.1029 91.023ZM69.2091 76.5468H64.5786V81.1785H69.2091V76.5468ZM77.3152 76.5468H72.6848V81.1785H77.3152V76.5468ZM85.4214 81.1785V76.5468H80.7909V81.1785H85.4214ZM80.7909 89.2842H85.4214V84.6543H80.7909V89.2842ZM72.6848 89.2842H77.3152V84.6543H72.6848V89.2842ZM64.5786 84.6543V89.2842H69.2091V84.6543H64.5786ZM83.8345 100.224H66.1676V101.167H83.8345V100.224Z" fill="#663366"/>
</svg>
