<svg width="150" height="150" viewBox="0 0 150 150" fill="none" xmlns="http://www.w3.org/2000/svg">
<path d="M137.759 25.6898H101.897V21.207H104.138C104.732 21.207 105.304 20.9717 105.724 20.5514C106.144 20.1312 106.38 19.5596 106.38 18.9656V12.2414C106.38 11.6475 106.144 11.0759 105.724 10.6556C105.304 10.2353 104.732 10 104.138 10H45.8622C44.6238 10 43.6208 11.003 43.6208 12.2414V18.9656C43.6208 19.5595 43.8562 20.1311 44.2764 20.5514C44.6967 20.9717 45.2682 21.207 45.8622 21.207H48.1036V25.6898H12.2414C11.003 25.6898 10 26.6928 10 27.9312V137.759C10 138.353 10.2353 138.924 10.6556 139.344C11.0759 139.765 11.6474 140 12.2414 140H137.759C138.353 140 138.925 139.765 139.345 139.344C139.765 138.924 140.001 138.353 140.001 137.759V27.9312C140.001 27.3372 139.765 26.7656 139.345 26.3453C138.925 25.925 138.353 25.6898 137.759 25.6898ZM135.518 30.1726V34.6554H101.896V30.1726H135.518ZM50.345 90.6908H101.898V95.1736H48.1043V90.6908H50.345ZM48.1036 14.4836H101.897V16.725H48.1036V14.4836ZM97.4142 21.2078V86.2074H52.5864V21.2078H97.4142ZM14.4835 30.1733H48.105V34.6561H14.4835V30.1733ZM14.4835 39.1389H48.105V86.2074H45.8636C44.6253 86.2074 43.6222 87.2104 43.6222 88.4487V97.4143C43.6222 98.0083 43.8576 98.5798 44.2779 99.0001C44.6981 99.4204 45.2697 99.6557 45.8637 99.6557V135.518H14.4842L14.4835 39.1389ZM61.5519 135.519V110.863H72.7589V135.519H61.5519ZM77.2424 135.519V110.863H88.4493V135.519H77.2424ZM92.9328 135.519V108.623C92.9328 108.029 92.6975 107.457 92.2772 107.037C91.857 106.617 91.2854 106.381 90.6914 106.381H59.3119C58.0736 106.381 57.0705 107.384 57.0705 108.623V135.519H50.3464V99.6571H99.657V135.519L92.9328 135.519ZM135.52 135.519H104.141V99.6571C104.734 99.6571 105.306 99.4218 105.726 99.0015C106.147 98.5813 106.382 98.0097 106.382 97.4157V88.4501C106.382 87.8562 106.147 87.2846 105.726 86.8643C105.306 86.444 104.735 86.2087 104.141 86.2087H101.899V39.1402H135.521L135.52 135.519Z" fill="#663366"/>
<path d="M43.6204 70.5176V48.1037C43.6204 47.5098 43.3851 46.9382 42.9648 46.5179C42.5446 46.0976 41.973 45.8623 41.379 45.8623H21.2072C19.9688 45.8623 18.9658 46.8653 18.9658 48.1037V81.7253C18.9658 82.3192 19.2012 82.8908 19.6214 83.3111C20.0417 83.7314 20.6132 83.9667 21.2073 83.9667H41.379C41.973 83.9667 42.5446 83.7314 42.9649 83.3111C43.3852 82.8908 43.6205 82.3193 43.6205 81.7253L43.6204 70.5176ZM39.1377 50.3458V57.07H23.4472V50.3458H39.1377ZM39.1377 68.277H23.4472V61.5528H39.1377V68.277ZM23.4472 79.4839V72.7598H39.1377V79.4839H23.4472Z" fill="#663366"/>
<path d="M40.2579 99.6564H20.0861C18.8478 99.6564 17.8447 100.659 17.8447 101.898V126.554C17.8447 127.148 18.0801 127.719 18.5003 128.14C18.9206 128.56 19.4922 128.795 20.0862 128.795H40.258C40.8519 128.795 41.4235 128.56 41.8438 128.14C42.2641 127.719 42.4994 127.148 42.4994 126.554V101.898C42.4994 101.304 42.264 100.732 41.8438 100.312C41.4235 99.8917 40.8519 99.6564 40.2579 99.6564ZM38.0165 104.139V111.984H22.3261V104.139H38.0165ZM22.3261 124.311V116.466H38.0165V124.311H22.3261Z" fill="#663366"/>
<path d="M108.621 83.966H128.793C129.387 83.966 129.959 83.7306 130.379 83.3104C130.799 82.8901 131.035 82.3186 131.035 81.7245V48.103C131.035 47.509 130.799 46.9375 130.379 46.5171C129.959 46.0968 129.387 45.8615 128.793 45.8615H108.621C108.027 45.8615 107.456 46.0969 107.035 46.5171C106.615 46.9374 106.38 47.509 106.38 48.103V81.7245C106.38 82.3185 106.615 82.8901 107.035 83.3104C107.456 83.7307 108.027 83.966 108.621 83.966ZM110.863 79.4832V72.759H126.553V79.4832H110.863ZM110.863 61.5521H126.553V68.2762H110.863V61.5521ZM126.553 50.3451V57.0693H110.863V50.3451H126.553Z" fill="#663366"/>
<path d="M109.741 99.6564C109.147 99.6564 108.576 99.8917 108.156 100.312C107.735 100.732 107.5 101.304 107.5 101.898V126.554C107.5 127.148 107.735 127.719 108.156 128.14C108.576 128.56 109.147 128.795 109.741 128.795H129.913C130.507 128.795 131.079 128.56 131.499 128.14C131.919 127.719 132.155 127.148 132.155 126.554V101.898C132.155 101.304 131.919 100.732 131.499 100.312C131.079 99.8917 130.507 99.6564 129.913 99.6564H109.741ZM127.673 104.139V111.984H111.982V104.139H127.673ZM111.982 124.311V116.466H127.673V124.311H111.982Z" fill="#663366"/>
<path d="M71.6382 48.1037H78.3624V41.3796H85.0866V34.6554H78.3624V27.9312H71.6382V34.6554H64.9141V41.3796H71.6382V48.1037Z" fill="#663366"/>
<path d="M61.5519 79.4832H88.4486C89.0426 79.4832 89.6141 79.2478 90.0344 78.8276C90.4548 78.4073 90.6901 77.8357 90.6901 77.2417V59.3106C90.6901 58.7167 90.4547 58.1451 90.0344 57.7248C89.6142 57.3045 89.0426 57.0692 88.4486 57.0692H61.5519C60.3136 57.0692 59.3105 58.0722 59.3105 59.3106V77.2417C59.3105 77.8357 59.5459 78.4072 59.9662 78.8275C60.3864 79.2478 60.9579 79.4832 61.5519 79.4832ZM63.7933 75.0004V70.5176H86.2072V75.0004H63.7933ZM86.2072 61.5521V66.0348H63.7933V61.5521H86.2072Z" fill="#663366"/>
</svg>
