<svg width="150" height="150" viewBox="0 0 150 150" fill="none" xmlns="http://www.w3.org/2000/svg">
<mask id="mask0_689_1228" style="mask-type:luminance" maskUnits="userSpaceOnUse" x="5" y="5" width="140" height="140">
<path d="M5 5H145V145H5V5Z" fill="white"/>
</mask>
<g mask="url(#mask0_689_1228)">
<path d="M94.4465 30.463C94.4465 31.6771 94.3344 37.8075 89.7652 43.1699C89.4505 43.5415 89.1114 43.9082 88.7508 44.2716C83.1836 49.8637 76.2957 49.9922 74.9996 49.9922C73.7035 49.9922 66.8156 49.8637 61.2484 44.2716C60.9039 43.9243 60.5785 43.5746 60.275 43.2189C55.6648 37.8458 55.5527 31.6828 55.5527 30.463C57.784 30.895 62.0411 31.4036 67.0234 29.9492C70.6711 28.8828 73.3699 27.1629 74.9996 25.913C76.7603 27.2176 79.995 29.2875 84.5945 30.291C88.8109 31.2095 92.3492 30.8434 94.4465 30.463Z" stroke="#663366" stroke-width="4.10156" stroke-miterlimit="10" stroke-linecap="round" stroke-linejoin="round"/>
<path d="M60.2754 43.2188C62.2387 43.216 64.541 42.9781 67.0238 42.2538C70.6715 41.1871 73.3703 39.4672 75 38.2176C76.3207 39.1959 78.4702 40.6047 81.4031 41.6714" stroke="#663366" stroke-width="4.10156" stroke-miterlimit="10" stroke-linecap="round" stroke-linejoin="round"/>
<path d="M75 25.9141V20.4191" stroke="#663366" stroke-width="4.10156" stroke-miterlimit="10" stroke-linecap="round" stroke-linejoin="round"/>
<path d="M79.7594 15.4752C79.7594 18.203 77.6285 20.4141 75 20.4141C72.3711 20.4141 70.2402 18.203 70.2402 15.4752C70.2402 12.7474 75 7.05008 75 7.05008C75 7.05008 79.7594 12.7474 79.7594 15.4752Z" stroke="#663366" stroke-width="4.10156" stroke-miterlimit="10" stroke-linecap="round" stroke-linejoin="round"/>
<path d="M68.0229 120.374C71.1668 121.442 73.5222 122.961 74.9996 124.094C76.7603 122.789 79.995 120.72 84.5943 119.716C88.8107 118.797 92.3492 119.164 94.4465 119.544C94.4465 118.33 94.3344 112.199 89.7652 106.837C89.4505 106.466 89.1114 106.099 88.7508 105.735C83.1833 100.143 76.2957 100.015 74.9996 100.015C73.7032 100.015 66.8156 100.143 61.2484 105.735C60.9039 106.082 60.5782 106.432 60.275 106.788C55.6648 112.161 55.5527 118.324 55.5527 119.544C56.79 119.304 58.6508 119.041 60.9124 119.102" stroke="#663366" stroke-width="4.10156" stroke-miterlimit="10" stroke-linecap="round" stroke-linejoin="round"/>
<path d="M60.2754 106.788C62.2387 106.791 64.541 107.029 67.0238 107.753C70.6715 108.82 73.3703 110.539 75 111.789C76.7607 110.485 79.9954 108.415 84.5946 107.411C86.4759 107.001 88.2232 106.845 89.7656 106.837" stroke="#663366" stroke-width="4.10156" stroke-miterlimit="10" stroke-linecap="round" stroke-linejoin="round"/>
<path d="M75 124.091V129.586" stroke="#663366" stroke-width="4.10156" stroke-miterlimit="10" stroke-linecap="round" stroke-linejoin="round"/>
<path d="M79.7594 134.528C79.7594 131.8 77.6285 129.589 75 129.589C72.3711 129.589 70.2402 131.8 70.2402 134.528C70.2402 137.256 75 142.953 75 142.953C75 142.953 79.7594 137.256 79.7594 134.528Z" stroke="#663366" stroke-width="4.10156" stroke-miterlimit="10" stroke-linecap="round" stroke-linejoin="round"/>
<path d="M30.4582 55.5594C31.6723 55.5594 37.8027 55.6715 43.1651 60.2406C43.5367 60.5554 43.9034 60.8944 44.2668 61.2551C49.8589 66.8223 49.9874 73.7102 49.9874 75.0062C49.9874 76.3023 49.8589 83.1902 44.2668 88.7574C43.9195 89.102 43.5698 89.4273 43.2141 89.7309C37.841 94.341 31.678 94.4531 30.4582 94.4531C30.8902 92.2219 31.3988 87.9647 29.9444 82.9824C28.878 79.3348 27.1581 76.6359 25.9082 75.0062C27.2128 73.2456 29.2827 70.0108 30.2862 65.4113C31.2047 61.1949 30.8386 57.6566 30.4582 55.5594Z" stroke="#663366" stroke-width="4.10156" stroke-miterlimit="10" stroke-linecap="round" stroke-linejoin="round"/>
<path d="M43.2141 89.7266C43.2113 87.7633 42.9734 85.4609 42.2491 82.9781C41.1824 79.3305 39.4625 76.6316 38.2129 75.002C39.5172 73.2413 41.5874 70.0065 42.5909 65.4073C43.0011 63.5261 43.1566 61.7788 43.1648 60.2363" stroke="#663366" stroke-width="4.10156" stroke-miterlimit="10" stroke-linecap="round" stroke-linejoin="round"/>
<path d="M25.9091 75H20.4141" stroke="#663366" stroke-width="4.10156" stroke-miterlimit="10" stroke-linecap="round" stroke-linejoin="round"/>
<path d="M15.4759 70.2464C18.2038 70.2464 20.4148 72.3773 20.4148 75.0059C20.4148 77.6347 18.2038 79.7656 15.4759 79.7656C12.7481 79.7656 7.05078 75.0059 7.05078 75.0059C7.05078 75.0059 12.7481 70.2464 15.4759 70.2464Z" stroke="#663366" stroke-width="4.10156" stroke-miterlimit="10" stroke-linecap="round" stroke-linejoin="round"/>
<path d="M119.539 55.5594C118.325 55.5594 112.194 55.6715 106.832 60.2406C106.46 60.5554 106.094 60.8944 105.73 61.2551C100.138 66.8223 100.01 73.7102 100.01 75.0062C100.01 76.3023 100.138 83.1902 105.73 88.7574C106.078 89.102 106.427 89.4273 106.783 89.7309C112.156 94.341 118.319 94.4531 119.539 94.4531C119.107 92.2219 118.598 87.9647 120.053 82.9824C121.119 79.3348 122.839 76.6359 124.089 75.0062C122.784 73.2456 120.714 70.0108 119.711 65.4113C118.792 61.1949 119.159 57.6566 119.539 55.5594Z" stroke="#663366" stroke-width="4.10156" stroke-miterlimit="10" stroke-linecap="round" stroke-linejoin="round"/>
<path d="M106.783 89.7266C106.786 87.7633 107.024 85.4609 107.748 82.9781C108.815 79.3305 110.535 76.6316 111.784 75.002C110.48 73.2413 108.41 70.0065 107.406 65.4073C106.996 63.5261 106.841 61.7788 106.832 60.2363" stroke="#663366" stroke-width="4.10156" stroke-miterlimit="10" stroke-linecap="round" stroke-linejoin="round"/>
<path d="M124.09 75H129.585" stroke="#663366" stroke-width="4.10156" stroke-miterlimit="10" stroke-linecap="round" stroke-linejoin="round"/>
<path d="M134.523 70.2464C131.795 70.2464 129.584 72.3773 129.584 75.0059C129.584 77.6347 131.795 79.7656 134.523 79.7656C137.251 79.7656 142.948 75.0059 142.948 75.0059C142.948 75.0059 137.251 70.2464 134.523 70.2464Z" stroke="#663366" stroke-width="4.10156" stroke-miterlimit="10" stroke-linecap="round" stroke-linejoin="round"/>
<path d="M88.2617 61.7422H77.0109C75.9004 61.7422 75 62.6426 75 63.753V86.2548C75 87.3652 74.0996 88.2656 72.9891 88.2656H61.7383" stroke="#663366" stroke-width="4.10156" stroke-miterlimit="10" stroke-linecap="round" stroke-linejoin="round"/>
<path d="M88.2617 88.2656V77.0148C88.2617 75.9043 87.3613 75.0039 86.2509 75.0039H63.7491C62.6387 75.0039 61.7383 74.1035 61.7383 72.993V61.7422" stroke="#663366" stroke-width="4.10156" stroke-miterlimit="10" stroke-linecap="round" stroke-linejoin="round"/>
<path d="M66.5449 81.4274C66.5449 80.3041 67.4555 79.3936 68.5785 79.3936C69.7018 79.3936 70.6123 80.3041 70.6123 81.4274C70.6123 82.5504 69.7018 83.4609 68.5785 83.4609C67.4555 83.4609 66.5449 82.5504 66.5449 81.4274Z" fill="#663366"/>
<path d="M66.5449 68.1771C66.5449 67.0541 67.4555 66.1436 68.5785 66.1436C69.7018 66.1436 70.6123 67.0541 70.6123 68.1771C70.6123 69.3004 69.7018 70.2109 68.5785 70.2109C67.4555 70.2109 66.5449 69.3004 66.5449 68.1771Z" fill="#663366"/>
<path d="M79.6484 68.1771C79.6484 67.0541 80.559 66.1436 81.6823 66.1436C82.8055 66.1436 83.7161 67.0541 83.7161 68.1771C83.7161 69.3004 82.8055 70.2109 81.6823 70.2109C80.559 70.2109 79.6484 69.3004 79.6484 68.1771Z" fill="#663366"/>
<path d="M79.6484 81.4274C79.6484 80.3041 80.559 79.3936 81.6823 79.3936C82.8055 79.3936 83.7161 80.3041 83.7161 81.4274C83.7161 82.5504 82.8055 83.4609 81.6823 83.4609C80.559 83.4609 79.6484 82.5504 79.6484 81.4274Z" fill="#663366"/>
<path d="M126.543 36.7954L122.275 40.4859L121.213 46.0312L115.879 44.1782L110.545 46.0312L109.483 40.4859L105.215 36.7954L109.483 33.1048L110.545 27.5595L115.879 29.4125L121.213 27.5595L122.275 33.1048L126.543 36.7954Z" stroke="#663366" stroke-width="4.10156" stroke-miterlimit="10" stroke-linecap="round" stroke-linejoin="round"/>
<path d="M114.861 35.0326C115.834 34.471 117.078 34.8043 117.639 35.7772C118.201 36.7498 117.867 37.9937 116.895 38.5553C115.922 39.1169 114.678 38.7836 114.116 37.8107C113.555 36.8381 113.888 35.5943 114.861 35.0326Z" fill="#663366"/>
<path d="M44.7852 117.311L40.5171 121.002L39.455 126.547L34.1211 124.694L28.7871 126.547L27.7251 121.002L23.457 117.311L27.7251 113.62L28.7871 108.075L34.1211 109.928L39.455 108.075L40.5171 113.62L44.7852 117.311Z" stroke="#663366" stroke-width="4.10156" stroke-miterlimit="10" stroke-linecap="round" stroke-linejoin="round"/>
<path d="M33.1032 115.548C34.0761 114.987 35.3197 115.32 35.8813 116.293C36.443 117.265 36.1097 118.509 35.1368 119.071C34.1641 119.633 32.9203 119.299 32.3586 118.326C31.7973 117.354 32.1303 116.11 33.1032 115.548Z" fill="#663366"/>
<path d="M34.7437 25.5078L38.4343 29.7759L43.9796 30.8379L42.1265 36.1719L43.9796 41.5058L38.4343 42.5679L34.7437 46.8359L31.0531 42.5679L25.5078 41.5058L27.3609 36.1719L25.5078 30.8379L31.0531 29.7759L34.7437 25.5078Z" stroke="#663366" stroke-width="4.10156" stroke-miterlimit="10" stroke-linecap="round" stroke-linejoin="round"/>
<path d="M32.9818 37.1937C32.4202 36.2208 32.7535 34.9772 33.7264 34.4155C34.699 33.8539 35.9429 34.1872 36.5045 35.1601C37.0661 36.1327 36.7328 37.3766 35.7599 37.9382C34.7873 38.4996 33.5434 38.1666 32.9818 37.1937Z" fill="#663366"/>
<path d="M115.255 107.266L118.946 111.534L124.491 112.596L122.638 117.93L124.491 123.264L118.946 124.326L115.255 128.594L111.565 124.326L106.02 123.264L107.873 117.93L106.02 112.596L111.565 111.534L115.255 107.266Z" stroke="#663366" stroke-width="4.10156" stroke-miterlimit="10" stroke-linecap="round" stroke-linejoin="round"/>
<path d="M113.494 118.951C112.932 117.979 113.265 116.735 114.238 116.173C115.211 115.612 116.455 115.945 117.016 116.918C117.578 117.891 117.245 119.134 116.272 119.696C115.299 120.257 114.055 119.924 113.494 118.951Z" fill="#663366"/>
</g>
</svg>
