<svg width="150" height="150" viewBox="0 0 150 150" fill="none" xmlns="http://www.w3.org/2000/svg">
<path fill-rule="evenodd" clip-rule="evenodd" d="M13.3929 134.311H71.6912V15.3992H13.3929V134.311ZM73.3876 137.704H11.6965C10.759 137.704 10 136.945 10 136.007V13.7029C10 12.7654 10.7589 12.0063 11.6965 12.0063H73.3876C74.3251 12.0063 75.0841 12.7653 75.0841 13.7029V136.007C75.0841 136.945 74.3251 137.704 73.3876 137.704Z" fill="#663366"/>
<path fill-rule="evenodd" clip-rule="evenodd" d="M42.5383 86.0508C41.6008 86.0508 40.8418 85.2918 40.8418 84.3543V13.6965C40.8418 12.759 41.6007 12 42.5383 12C43.4758 12 44.2348 12.7589 44.2348 13.6965V84.3543C44.2348 85.2918 43.4759 86.0508 42.5383 86.0508Z" fill="#663366"/>
<path fill-rule="evenodd" clip-rule="evenodd" d="M61.8182 86.0508H23.259C22.3215 86.0508 21.5625 85.2918 21.5625 84.3542C21.5625 83.4167 22.3214 82.6577 23.259 82.6577H61.8182C62.7557 82.6577 63.5147 83.4167 63.5147 84.3542C63.5147 85.2918 62.7557 86.0508 61.8182 86.0508Z" fill="#663366"/>
<path fill-rule="evenodd" clip-rule="evenodd" d="M61.8182 71.9184H23.259C22.3215 71.9184 21.5625 71.1595 21.5625 70.2219C21.5625 69.2844 22.3214 68.5254 23.259 68.5254H61.8182C62.7557 68.5254 63.5147 69.2843 63.5147 70.2219C63.5147 71.1594 62.7557 71.9184 61.8182 71.9184Z" fill="#663366"/>
<path fill-rule="evenodd" clip-rule="evenodd" d="M61.8182 57.7925H23.259C22.3215 57.7925 21.5625 57.0335 21.5625 56.0959C21.5625 55.1584 22.3214 54.3994 23.259 54.3994H61.8182C62.7557 54.3994 63.5147 55.1584 63.5147 56.0959C63.5147 57.0335 62.7557 57.7925 61.8182 57.7925Z" fill="#663366"/>
<path fill-rule="evenodd" clip-rule="evenodd" d="M61.8182 43.6597H23.259C22.3215 43.6597 21.5625 42.9007 21.5625 41.9631C21.5625 41.0255 22.3214 40.2666 23.259 40.2666H61.8182C62.7557 40.2666 63.5147 41.0255 63.5147 41.9631C63.5147 42.9007 62.7557 43.6597 61.8182 43.6597Z" fill="#663366"/>
<path fill-rule="evenodd" clip-rule="evenodd" d="M61.8182 29.5254H23.259C22.3215 29.5254 21.5625 28.7664 21.5625 27.8288C21.5625 26.8913 22.3214 26.1323 23.259 26.1323H61.8182C62.7557 26.1323 63.5147 26.8913 63.5147 27.8288C63.5147 28.7664 62.7557 29.5254 61.8182 29.5254Z" fill="#663366"/>
<path fill-rule="evenodd" clip-rule="evenodd" d="M56.7098 137.698C55.7723 137.698 55.0133 136.939 55.0133 136.001V117.429H30.0708V136.001C30.0708 136.939 29.3118 137.698 28.3743 137.698C27.4367 137.698 26.6777 136.939 26.6777 136.001V115.739C26.6777 114.802 27.4367 114.043 28.3743 114.043H56.7095C57.647 114.043 58.406 114.802 58.406 115.739V136.001C58.406 136.939 57.6474 137.698 56.7098 137.698Z" fill="#663366"/>
<path fill-rule="evenodd" clip-rule="evenodd" d="M20.4336 105.485H23.7691V94.6173H20.4336V105.485ZM25.4655 108.878H18.7434C17.8059 108.878 17.0469 108.119 17.0469 107.181V92.927C17.0469 91.9895 17.8058 91.2305 18.7434 91.2305H25.4655C26.403 91.2305 27.162 91.9894 27.162 92.927V107.181C27.162 108.119 26.4031 108.878 25.4655 108.878Z" fill="#663366"/>
<path fill-rule="evenodd" clip-rule="evenodd" d="M34.0625 105.485H37.398V94.6173H34.0625V105.485ZM39.0944 108.878H32.3723C31.4348 108.878 30.6758 108.119 30.6758 107.181V92.927C30.6758 91.9895 31.4347 91.2305 32.3723 91.2305H39.0944C40.0319 91.2305 40.7909 91.9894 40.7909 92.927V107.181C40.7909 108.119 40.032 108.878 39.0944 108.878Z" fill="#663366"/>
<path fill-rule="evenodd" clip-rule="evenodd" d="M47.6914 105.485H51.0269V94.6173H47.6914V105.485ZM52.7233 108.878H46.0012C45.0637 108.878 44.3047 108.119 44.3047 107.181V92.927C44.3047 91.9895 45.0636 91.2305 46.0012 91.2305H52.7233C53.6608 91.2305 54.4198 91.9894 54.4198 92.927V107.181C54.4198 108.119 53.6609 108.878 52.7233 108.878Z" fill="#663366"/>
<path fill-rule="evenodd" clip-rule="evenodd" d="M61.3222 105.485H64.6578V94.6173H61.3222V105.485ZM66.3542 108.878H59.6321C58.6946 108.878 57.9355 108.119 57.9355 107.181V92.927C57.9355 91.9895 58.6945 91.2305 59.6321 91.2305H66.3542C67.2917 91.2305 68.0507 91.9894 68.0507 92.927V107.181C68.0507 108.119 67.2918 108.878 66.3542 108.878Z" fill="#663366"/>
<path fill-rule="evenodd" clip-rule="evenodd" d="M39.4016 137.698C38.4641 137.698 37.7051 136.939 37.7051 136.001V115.739C37.7051 114.802 38.464 114.043 39.4016 114.043C40.3391 114.043 41.0981 114.802 41.0981 115.739V136.001C41.0981 136.939 40.3392 137.698 39.4016 137.698Z" fill="#663366"/>
<path fill-rule="evenodd" clip-rule="evenodd" d="M45.6828 137.698C44.7453 137.698 43.9863 136.939 43.9863 136.001V115.739C43.9863 114.802 44.7453 114.043 45.6828 114.043C46.6204 114.043 47.3794 114.802 47.3794 115.739V136.001C47.3794 136.939 46.6204 137.698 45.6828 137.698Z" fill="#663366"/>
<path fill-rule="evenodd" clip-rule="evenodd" d="M138.303 137.698H73.384C72.4465 137.698 71.6875 136.939 71.6875 136.001C71.6875 135.063 72.4464 134.305 73.384 134.305H136.607V50.7192H73.384C72.4465 50.7192 71.6875 49.9603 71.6875 49.0227C71.6875 48.0852 72.4464 47.3325 73.384 47.3325H138.303C139.24 47.3325 139.999 48.0915 139.999 49.0227V136.001C139.999 136.938 139.24 137.698 138.303 137.698Z" fill="#663366"/>
<path fill-rule="evenodd" clip-rule="evenodd" d="M110.641 50.7263C109.703 50.7263 108.944 49.9674 108.944 49.0298V40.8918C108.944 39.9543 109.703 39.1953 110.641 39.1953H117.082V33.0025H110.641C109.703 33.0025 108.944 32.2436 108.944 31.306V24.8646H102.752V31.306C102.752 32.2435 101.993 33.0025 101.055 33.0025H94.6138V39.1953H101.055C101.993 39.1953 102.752 39.9542 102.752 40.8918V49.0298C102.752 49.9673 101.993 50.7263 101.055 50.7263C100.118 50.7263 99.3587 49.9674 99.3587 49.0298V42.5883H92.9172C91.9797 42.5883 91.2207 41.8294 91.2207 40.8918V31.3062C91.2207 30.3686 91.9796 29.6096 92.9172 29.6096H99.3587V23.1682C99.3587 22.2307 100.118 21.4717 101.055 21.4717H110.641C111.578 21.4717 112.337 22.2306 112.337 23.1682V29.6096H118.779C119.716 29.6096 120.475 30.3686 120.475 31.3062V40.8918C120.475 41.8293 119.716 42.5883 118.779 42.5883H112.337V49.0298C112.337 49.9673 111.579 50.7263 110.641 50.7263Z" fill="#663366"/>
<path fill-rule="evenodd" clip-rule="evenodd" d="M126.291 50.7263C125.354 50.7263 124.595 49.9674 124.595 49.0298V17.0145H87.1001V49.0298C87.1001 49.9673 86.3411 50.7263 85.4036 50.7263C84.466 50.7263 83.707 49.9674 83.707 49.0298V15.3181C83.707 14.3806 84.466 13.6216 85.4036 13.6216H126.291C127.228 13.6216 127.987 14.3805 127.987 15.3181V49.0298C127.987 49.9673 127.229 50.7263 126.291 50.7263Z" fill="#663366"/>
<path fill-rule="evenodd" clip-rule="evenodd" d="M83.1528 62.9386H91.5842V58.978H83.1528V62.9386ZM93.2742 66.3251H81.4563C80.5188 66.3251 79.7598 65.5662 79.7598 64.6286V57.2751C79.7598 56.3376 80.5187 55.5786 81.4563 55.5786H93.2742C94.2117 55.5786 94.9707 56.3376 94.9707 57.2751V64.6222C94.9707 65.5597 94.2117 66.3187 93.2742 66.3187V66.3251Z" fill="#663366"/>
<path fill-rule="evenodd" clip-rule="evenodd" d="M101.631 62.9386H110.062V58.978H101.631V62.9386ZM111.759 66.3251H99.9407C99.0031 66.3251 98.2441 65.5662 98.2441 64.6286V57.2751C98.2441 56.3376 99.0031 55.5786 99.9407 55.5786H111.759C112.696 55.5786 113.455 56.3376 113.455 57.2751V64.6222C113.455 65.5597 112.696 66.3187 111.759 66.3187V66.3251Z" fill="#663366"/>
<path fill-rule="evenodd" clip-rule="evenodd" d="M120.11 62.9386H128.541V58.978H120.11V62.9386ZM130.231 66.3251H118.413C117.476 66.3251 116.717 65.5662 116.717 64.6286V57.2751C116.717 56.3376 117.476 55.5786 118.413 55.5786H130.231C131.169 55.5786 131.928 56.3376 131.928 57.2751V64.6222C131.928 65.5597 131.169 66.3187 130.231 66.3187V66.3251Z" fill="#663366"/>
<path fill-rule="evenodd" clip-rule="evenodd" d="M83.1528 77.4615H91.5842V73.501H83.1528V77.4615ZM93.2742 80.8544H81.4563C80.5188 80.8544 79.7598 80.0955 79.7598 79.1579V71.8044C79.7598 70.8669 80.5187 70.1079 81.4563 70.1079H93.2742C94.2117 70.1079 94.9707 70.8668 94.9707 71.8044V79.1579C94.9707 80.0954 94.2117 80.8544 93.2742 80.8544Z" fill="#663366"/>
<path fill-rule="evenodd" clip-rule="evenodd" d="M101.631 77.4615H110.062V73.501H101.631V77.4615ZM111.759 80.8544H99.9407C99.0031 80.8544 98.2441 80.0955 98.2441 79.1579V71.8044C98.2441 70.8669 99.0031 70.1079 99.9407 70.1079H111.759C112.696 70.1079 113.455 70.8668 113.455 71.8044V79.1579C113.455 80.0954 112.696 80.8544 111.759 80.8544Z" fill="#663366"/>
<path fill-rule="evenodd" clip-rule="evenodd" d="M120.11 77.4615H128.541V73.501H120.11V77.4615ZM130.231 80.8544H118.413C117.476 80.8544 116.717 80.0955 116.717 79.1579V71.8044C116.717 70.8669 117.476 70.1079 118.413 70.1079H130.231C131.169 70.1079 131.928 70.8668 131.928 71.8044V79.1579C131.928 80.0954 131.169 80.8544 130.231 80.8544Z" fill="#663366"/>
<path fill-rule="evenodd" clip-rule="evenodd" d="M83.1528 91.9889H91.5842V88.0283H83.1528V91.9889ZM93.2742 95.3818H81.4563C80.5188 95.3818 79.7598 94.6228 79.7598 93.6852V86.3318C79.7598 85.3943 80.5187 84.6353 81.4563 84.6353H93.2742C94.2117 84.6353 94.9707 85.3942 94.9707 86.3318V93.6852C94.9707 94.6228 94.2117 95.3818 93.2742 95.3818Z" fill="#663366"/>
<path fill-rule="evenodd" clip-rule="evenodd" d="M101.631 91.9889H110.062V88.0283H101.631V91.9889ZM111.759 95.3818H99.9407C99.0031 95.3818 98.2441 94.6228 98.2441 93.6852V86.3318C98.2441 85.3943 99.0031 84.6353 99.9407 84.6353H111.759C112.696 84.6353 113.455 85.3942 113.455 86.3318V93.6852C113.455 94.6228 112.696 95.3818 111.759 95.3818Z" fill="#663366"/>
<path fill-rule="evenodd" clip-rule="evenodd" d="M120.11 91.9889H128.541V88.0283H120.11V91.9889ZM130.231 95.3818H118.413C117.476 95.3818 116.717 94.6228 116.717 93.6852V86.3318C116.717 85.3943 117.476 84.6353 118.413 84.6353H130.231C131.169 84.6353 131.928 85.3942 131.928 86.3318V93.6852C131.928 94.6228 131.169 95.3818 130.231 95.3818Z" fill="#663366"/>
<path fill-rule="evenodd" clip-rule="evenodd" d="M83.1527 126.058H128.543V101.919H83.1527V126.058ZM130.233 129.451H81.4563C80.5188 129.451 79.7598 128.692 79.7598 127.754V100.222C79.7598 99.2849 80.5187 98.5259 81.4563 98.5259H130.233C131.17 98.5259 131.929 99.2848 131.929 100.222V127.748C131.929 128.685 131.17 129.444 130.233 129.444V129.451Z" fill="#663366"/>
<path fill-rule="evenodd" clip-rule="evenodd" d="M89.8349 121.684C89.5479 121.684 89.2546 121.608 88.9867 121.455C88.1767 120.983 87.8961 119.949 88.3681 119.139L95.2879 107.149C95.7534 106.339 96.793 106.059 97.603 106.531C98.413 106.996 98.6936 108.036 98.2217 108.846L91.2955 120.836C90.983 121.378 90.409 121.684 89.8222 121.684H89.8349Z" fill="#663366"/>
<path fill-rule="evenodd" clip-rule="evenodd" d="M97.5146 121.684C97.2276 121.684 96.9342 121.608 96.6664 121.454C95.8564 120.983 95.5758 119.949 96.0477 119.139L98.9049 114.19C99.3705 113.38 100.41 113.1 101.22 113.572C102.03 114.037 102.311 115.077 101.839 115.887L98.9815 120.836C98.669 121.378 98.095 121.684 97.5083 121.684H97.5146Z" fill="#663366"/>
<path fill-rule="evenodd" clip-rule="evenodd" d="M111.315 121.684C111.028 121.684 110.735 121.608 110.467 121.455C109.657 120.983 109.377 119.949 109.849 119.139L116.775 107.149C117.24 106.339 118.28 106.059 119.09 106.531C119.9 106.996 120.18 108.036 119.708 108.846L112.789 120.836C112.476 121.378 111.902 121.684 111.315 121.684Z" fill="#663366"/>
<path fill-rule="evenodd" clip-rule="evenodd" d="M118.995 121.684C118.708 121.684 118.415 121.608 118.147 121.454C117.337 120.983 117.056 119.949 117.528 119.139L120.385 114.19C120.851 113.38 121.891 113.1 122.701 113.572C123.511 114.037 123.791 115.077 123.319 115.887L120.462 120.836C120.149 121.378 119.575 121.684 118.995 121.684Z" fill="#663366"/>
<path fill-rule="evenodd" clip-rule="evenodd" d="M23.2649 86.0508C22.3274 86.0508 21.5684 85.2918 21.5684 84.3543V13.6965C21.5684 12.759 22.3273 12 23.2649 12C24.2025 12 24.9614 12.7589 24.9614 13.6965V84.3543C24.9614 85.2918 24.2025 86.0508 23.2649 86.0508Z" fill="#663366"/>
<path fill-rule="evenodd" clip-rule="evenodd" d="M61.8196 86.0508C60.882 86.0508 60.123 85.2918 60.123 84.3543V13.6965C60.123 12.759 60.882 12 61.8196 12C62.7572 12 63.5161 12.7589 63.5161 13.6965V84.3543C63.5161 85.2918 62.7572 86.0508 61.8196 86.0508Z" fill="#663366"/>
</svg>
