<?xml version="1.0" encoding="utf-8"?>
<!-- Generator: Adobe Illustrator 24.2.1, SVG Export Plug-In . SVG Version: 6.00 Build 0)  -->
<svg version="1.1" id="Layer_1" xmlns="http://www.w3.org/2000/svg" xmlns:xlink="http://www.w3.org/1999/xlink" x="0px" y="0px"
	 viewBox="0 0 300 300" style="enable-background:new 0 0 300 300;" xml:space="preserve">
<style type="text/css">
	.st0{display:none;fill-rule:evenodd;clip-rule:evenodd;fill:#663366;}
	.st1{display:none;}
	.st2{display:inline;fill:#663366;}
	.st3{display:inline;fill-rule:evenodd;clip-rule:evenodd;fill:#663366;}
	.st4{fill:#663366;}
</style>
<path class="st0" d="M84,59.6c-18.9,6.7-33.7,24.7-44.4,54.2c-10.8,29.6-17.4,70.6-19.8,123l33.9,7.4c4.3-23.8,7.7-42.6,10.4-56.2
	c2.6-13.5,4.5-22.8,5.7-27.6c-1.3-22.6-3.4-44.5-6.4-65.6v0c-0.2-1.7,1-3.3,2.7-3.5s3.3,0.9,3.5,2.7c2.9,20.9,5.1,42.5,6.4,64.9v0
	c0.3,0.6,0.3,1.3,0.2,2l0,0.1c0.3,5.5,0.6,11.1,0.8,16.7c1.1,28.1,0.9,57.4-0.5,87.8l41.7-1.9L111,108.3c0-0.2,0-0.4,0-0.5
	c0.1-0.8,0.4-1.6,1.1-2.1c0.6-0.5,1.4-0.8,2.3-0.8c2,0.1,4,0.3,5.9,0.4c-3.6-2.7-6.6-6.1-8.9-10c-4-6.9-5.5-15-4.3-22.9
	c0.2-1.2,0.4-2.4,0.7-3.6c-7.9-1.2-15.4-3.8-22.3-7.8C85,60.4,84.4,60,84,59.6L84,59.6z M153.8,221.4c8.3,0,15.5,5.9,17.2,14.1
	c1.6,8.2-2.7,16.4-10.4,19.6c-7.7,3.2-16.6,0.5-21.2-6.4c-4.6-6.9-3.7-16.2,2.2-22.1C144.7,223.3,149.2,221.4,153.8,221.4
	L153.8,221.4z M161.8,231c-3.8-3.8-9.7-4.4-14.2-1.4c-4.4,3-6.2,8.7-4.1,13.6c2,4.9,7.3,7.7,12.6,6.7c5.2-1,9-5.6,9-11
	C165,235.9,163.9,233.1,161.8,231L161.8,231z M151.1,170.4c8.3,0,15.5,5.9,17.1,14.1c1.6,8.2-2.8,16.4-10.5,19.5
	c-7.7,3.2-16.6,0.5-21.2-6.4c-4.6-6.9-3.7-16.2,2.2-22.1C142,172.2,146.5,170.4,151.1,170.4L151.1,170.4z M159,179.9L159,179.9
	c-3.8-3.8-9.7-4.4-14.2-1.4c-4.4,3-6.2,8.7-4.1,13.6c2.1,4.9,7.3,7.7,12.6,6.7c5.3-1,9-5.6,9-11C162.3,184.9,161.1,182,159,179.9
	L159,179.9z M149.8,122.7c8.3,0,15.5,5.9,17.1,14.1c1.6,8.2-2.8,16.4-10.5,19.5c-7.7,3.2-16.6,0.5-21.2-6.4
	c-4.6-6.9-3.7-16.2,2.2-22.1C140.7,124.5,145.1,122.7,149.8,122.7L149.8,122.7z M157.7,132.2c-3.8-3.8-9.7-4.4-14.1-1.4
	c-4.4,3-6.2,8.7-4.1,13.6c2.1,4.9,7.3,7.7,12.5,6.7c5.2-1,9-5.6,9-11C161,137.2,159.8,134.3,157.7,132.2L157.7,132.2z M73.1,271.9
	c-0.2,0-0.4,0-0.6,0h-0.1c-1.6-0.2-2.7-1.6-2.6-3.2c1.4-28.6,1.7-56.2,0.9-82.8c-0.2,1.1-0.4,2.2-0.6,3.3
	c-2.9,15-6.5,34.7-10.9,59.1v0c0,0.1,0,0.3-0.1,0.4c-0.4,1.7-2,2.8-3.7,2.4l-39.6-8.7c-1.5-0.3-2.5-1.7-2.5-3.2
	c2.4-54.2,9.1-96.7,20.3-127.4c11.1-30.4,26.5-49.5,46.4-57.3c-0.3-0.7-0.5-1.5-0.6-2.3c-0.3-3.7,1-7.4,3.5-10.2
	c4.2-5.4,12.6-11.5,25.1-18.2c0.3-0.2,0.6-0.3,0.9-0.4c0.3-0.1,0.7-0.1,1-0.1l70.5-0.8c0.7,0,1.4,0.2,2,0.6c0.3,0.2,0.5,0.5,0.8,0.8
	l19.5,28c0.4,0.3,0.6,0.7,0.8,1.2l0.4,0.6c18.7,12.5,35,34.7,48.7,66.5c13.7,31.8,25.1,73.3,33.9,124.5c0.1,0.8,0,1.7-0.5,2.3
	c-0.5,0.7-1.2,1.1-2,1.3c-0.1,0-0.2,0-0.3,0l-41.5,5.3c-1.4,0.2-2.7-0.6-3.3-1.9c-9.1-22-16.6-42.1-22.5-60.2l1.6,80.4v0
	c0,1.7-1.3,3.2-3,3.2l-29.5,0.8c-1.7,0-3.1-1.3-3.1-3c0-1.7,1.3-3.1,3-3.2l26.3-0.7l-2-99.9c-2.3-8.6-4.2-16.6-5.6-24.1
	c-5.4-28.6-4.2-49.6,3.5-62.9c0.9-1.5,2.8-2,4.3-1.2c1.5,0.9,2,2.8,1.1,4.3c-7,12-7.9,31.6-2.8,58.7c5.1,27.1,16.3,61.6,33.5,103.3
	l36.1-4.6c-8.7-49.3-19.7-89.2-33-119.9c-12.5-28.9-27-49.4-43.4-61.6c-0.7,5.6-3.6,10.7-8,14.2c-5.5,4.5-13.7,7.3-24.6,8.4
	c3.9,10.4,1.2,17.9-8.1,22.8c-5.9,3-14.6,4.8-26.3,5.2l0,0c-0.2,0-0.4,0-0.6,0c-5.6,0.2-11.8,0.1-18.6-0.3l6.9,155.2v0l0.2,4.8
	l41.6-1.1l0,0c1.7,0,3.1,1.4,3.1,3c0,1.7-1.3,3.1-3,3.2l-44.5,1.2h-0.1c-0.8,0-1.6-0.3-2.3-0.8c-0.6-0.6-1-1.3-1-2.2l-0.2-4.7
	L73.1,271.9L73.1,271.9z M113.8,29.4l60.6-0.7c-13.3,18.6-24.6,34.4-33.2,46.6v0c-6.3-5.6-11.8-12.2-16.1-19.5
	C120.3,47.5,116.5,38.7,113.8,29.4L113.8,29.4z M137.6,80.5c-6.7,9.5-11.5,16.2-13.9,19.6v0c-2.8-2.2-5.2-4.9-7-8
	c-3.3-5.7-4.5-12.4-3.5-18.9c0.3-1.9,0.7-3.8,1.4-5.7c0.4-0.9,0.3-1.9-0.1-2.7c-0.5-0.8-1.3-1.4-2.2-1.6c-11.2-2-18.9-4.5-23.2-7.5
	v0c-1.7-0.9-2.9-2.5-3.4-4.4c0-2.1,0.8-4.1,2.2-5.6c3.4-4.3,10-9.2,19.9-14.8h0c2.8,9.8,6.9,19.2,12,28
	C124.6,67.1,130.6,74.3,137.6,80.5L137.6,80.5z M180.6,31c-27.6,38.6-45.7,64-51.5,72.3c0.7,0.3,1.4,0.6,2.2,0.9
	c1.7,0.6,3.4,1,5.2,1.3c10.6-0.4,18.4-1.9,23.5-4.6c6.8-3.5,8-9.7,3.6-18.4c-0.5-0.9-0.6-2.1-0.1-3.1c0.5-1,1.5-1.6,2.6-1.6
	c1.2-0.1,2.2-0.1,3.1-0.2c10.2-0.9,17.7-3.3,22.4-7.2c4.4-3.6,6.6-9.3,6-14.9L180.6,31z"/>
<g class="st1">
	<path class="st2" d="M138.4,134.7H94.8c-2.2,0-4.1-0.9-5.3-2.5c-1.2-1.6-1.5-3.7-0.9-5.7l8.3-29c1.1-3.8,5-6.8,9-6.8h32.5
		c4.2,0,7.7,3.5,7.7,7.7V127C146,131.3,142.6,134.7,138.4,134.7z M105.9,95.8c-1.7,0-3.6,1.5-4.1,3.1l-8.3,29
		c-0.2,0.5-0.1,1,0.1,1.2c0.2,0.3,0.6,0.4,1.2,0.4h43.6c1.4,0,2.6-1.1,2.6-2.6V98.4c0-1.4-1.1-2.6-2.6-2.6
		C138.4,95.8,105.9,95.8,105.9,95.8z"/>
	<path class="st2" d="M210.7,134.7h-51.3c-4.2,0-7.7-3.5-7.7-7.7V98.4c0-4.2,3.5-7.7,7.7-7.7h40.2c4,0,7.9,3,9,6.8l8.3,29
		c0.6,2.1,0.3,4.2-0.9,5.7C214.7,133.8,212.8,134.7,210.7,134.7z M159.4,95.8c-1.4,0-2.6,1.2-2.6,2.6V127c0,1.4,1.1,2.6,2.6,2.6
		h51.3c0.5,0,1-0.2,1.2-0.4c0.2-0.3,0.2-0.7,0.1-1.2l-8.3-29c-0.5-1.6-2.4-3.1-4.1-3.1H159.4z"/>
	<path class="st2" d="M102.7,205.5c-8.9,0-16.1-7.2-16.1-16.1c0-8.9,7.2-16.1,16.1-16.1c8.9,0,16.1,7.2,16.1,16.1
		C118.8,198.3,111.6,205.5,102.7,205.5z M102.7,178.4c-6.1,0-11,4.9-11,11c0,6.1,4.9,11,11,11s11-4.9,11-11
		C113.7,183.3,108.7,178.4,102.7,178.4z"/>
	<path class="st2" d="M237,205.5c-8.9,0-16.1-7.2-16.1-16.1c0-8.9,7.2-16.1,16.1-16.1c8.9,0,16.1,7.2,16.1,16.1
		C253.1,198.3,245.9,205.5,237,205.5z M237,178.4c-6.1,0-11,4.9-11,11c0,6.1,4.9,11,11,11c6.1,0,11-4.9,11-11
		C248,183.3,243.1,178.4,237,178.4z"/>
	<path class="st2" d="M237,218.7c-12.5,0-23.3-7.9-27.4-19h-79.5c-4.2,11.1-14.9,19-27.4,19s-23.2-7.9-27.4-19H62.7
		c-3.5,0-6.4-2.9-6.4-6.4v-8.1c0-3.5,2.2-6.3,5-6.4c0.2-0.2,0.4-0.6,0.5-1.4c0-0.5,0.5-12.1,2.7-23.9c3-15.6,7.5-23.9,13.9-25.4
		l7.7-31.7c0.1-0.2,0-0.4,0-0.4c0-0.1-0.2-0.1-0.4-0.1h-1.5c-3.5,0-6.4-2.9-6.4-6.4v-1.7c0-3.5,2.9-6.4,6.4-6.4H208
		c3.2,0,6.5,2.2,7.6,5.2l13.6,34.3c0.4,1,1.7,1.9,2.8,1.9c0.9,0,22.5-0.4,37.9,14.7c9.4,9.2,14.5,22.1,14.9,38.3
		c3.5,0,6.4,2.9,6.4,6.4v11.1c0,3.5-2.9,6.4-6.4,6.4h-20.5C260.3,210.8,249.5,218.7,237,218.7z M237,165.3
		c-13.3,0-24.1,10.8-24.1,24.1c0,13.3,10.8,24.1,24.1,24.1c13.3,0,24.1-10.8,24.1-24.1S250.3,165.3,237,165.3z M102.7,165.3
		c-13.3,0-24.1,10.8-24.1,24.1c0,13.3,10.8,24.1,24.1,24.1s24.1-10.8,24.1-24.1C126.8,176.1,116,165.3,102.7,165.3z M265.8,194.5
		h19.1c0.7,0,1.3-0.6,1.3-1.3v-11.1c0-0.7-0.6-1.3-1.3-1.3h-2.5c-1.4,0-2.6-1.1-2.6-2.6c0-16-4.5-28.5-13.4-37.2
		c-14-13.6-34-13.3-34.2-13.3c-3.3,0-6.5-2.1-7.7-5.1l-13.6-34.3c-0.4-1-1.8-2-2.9-2H84.1c-0.7,0-1.3,0.6-1.3,1.3v1.7
		c0,0.7,0.6,1.3,1.3,1.3h1.5c1.8,0,3.4,0.8,4.5,2.1c1,1.3,1.4,3.1,1,4.8l-8.1,33.4c-0.3,1.1-1.3,2-2.5,2c-8.2,0-12.8,26-13.5,44.5
		c-0.1,3.4-2.4,6.2-5.1,6.3c-0.1,0.2-0.4,0.6-0.4,1.3v8.1c0,0.7,0.6,1.3,1.3,1.3h11.1c-0.3-1.7-0.4-3.4-0.4-5.1
		c0-16.1,13.1-29.3,29.3-29.3c16.1,0,29.3,13.1,29.3,29.3c0,1.8-0.2,3.5-0.4,5.1h76.7c-0.3-1.7-0.4-3.4-0.4-5.1
		c0-16.1,13.1-29.3,29.3-29.3c16.1,0,29.3,13.1,29.3,29.3C266.3,191.2,266.1,192.9,265.8,194.5z"/>
	<path class="st2" d="M46.7,165.9H21.5c-1.4,0-2.6-1.1-2.6-2.6c0-1.4,1.1-2.6,2.6-2.6h25.2c1.4,0,2.6,1.1,2.6,2.6
		C49.3,164.8,48.1,165.9,46.7,165.9z"/>
	<path class="st2" d="M36.5,181.7H11.3c-1.4,0-2.6-1.1-2.6-2.6c0-1.4,1.1-2.6,2.6-2.6h25.2c1.4,0,2.6,1.1,2.6,2.6
		C39,180.6,37.9,181.7,36.5,181.7z"/>
	<path class="st2" d="M46.7,197.5H21.5c-1.4,0-2.6-1.1-2.6-2.6c0-1.4,1.1-2.6,2.6-2.6h25.2c1.4,0,2.6,1.1,2.6,2.6
		C49.3,196.4,48.1,197.5,46.7,197.5z"/>
</g>
<g class="st1">
	<path class="st3" d="M222.9,133.8V27.1c0-4.3-1.7-8.4-4.7-11.4s-7.1-4.7-11.4-4.7H44c-4.3,0-8.4,1.7-11.4,4.7
		c-3,3-4.7,7.1-4.7,11.4v173.1c0,4.3,1.7,8.4,4.7,11.4c3,3,7.1,4.7,11.4,4.7h162.9c4.3,0,8.4-1.7,11.4-4.7c3-3,4.7-7.1,4.7-11.4
		c0-2.4-2-4.4-4.4-4.4c-2.4,0-4.4,2-4.4,4.4c0,1.9-0.8,3.8-2.1,5.2c-1.4,1.4-3.2,2.1-5.2,2.1H44c-1.9,0-3.8-0.8-5.2-2.1
		c-1.4-1.4-2.1-3.2-2.1-5.2V27.1c0-1.9,0.8-3.8,2.1-5.2c1.4-1.4,3.2-2.1,5.2-2.1h162.9c1.9,0,3.8,0.8,5.2,2.1
		c1.4,1.4,2.1,3.2,2.1,5.2v106.7c0,2.4,2,4.4,4.4,4.4C221,138.2,222.9,136.3,222.9,133.8z"/>
	<path class="st3" d="M75.2,15.4v27.4c0,5.7,4.6,10.2,10.2,10.2h79.8c5.7,0,10.2-4.6,10.2-10.2V15.4c0-2.4-2-4.4-4.4-4.4
		c-2.4,0-4.4,2-4.4,4.4v27.4c0,0.8-0.7,1.5-1.5,1.5H85.5c-0.8,0-1.5-0.7-1.5-1.5V15.4c0-2.4-2-4.4-4.4-4.4S75.2,13,75.2,15.4
		L75.2,15.4z"/>
	<path class="st3" d="M175.6,211.9v-27.4c0-5.7-4.6-10.2-10.2-10.2H85.5c-5.7,0-10.2,4.6-10.2,10.2v27.4c0,2.4,2,4.4,4.4,4.4
		s4.4-2,4.4-4.4v-27.4c0-0.8,0.7-1.5,1.5-1.5h79.8c0.8,0,1.5,0.7,1.5,1.5v27.4c0,2.4,2,4.4,4.4,4.4
		C173.6,216.3,175.6,214.3,175.6,211.9L175.6,211.9z"/>
	<path class="st3" d="M95.8,72.3H85.5c-5.7,0-10.2,4.6-10.2,10.2v62.1c0,5.7,4.6,10.2,10.2,10.2h79.8c5.7,0,10.2-4.6,10.2-10.2V82.6
		c0-5.7-4.6-10.2-10.2-10.2h-52.8c-2.4,0-4.4,2-4.4,4.4s2,4.4,4.4,4.4h52.8c0.8,0,1.5,0.7,1.5,1.5v62.1c0,0.8-0.7,1.5-1.5,1.5H85.5
		c-0.8,0-1.5-0.7-1.5-1.5V82.6c0-0.8,0.7-1.5,1.5-1.5h10.4c2.4,0,4.4-2,4.4-4.4C100.2,74.3,98.3,72.3,95.8,72.3z"/>
	<path class="st3" d="M52.3,199.8v8.8c0,2.4,2,4.4,4.4,4.4s4.4-2,4.4-4.4v-8.8c0-2.4-2-4.4-4.4-4.4S52.3,197.3,52.3,199.8z
		 M52.3,173.4v8.8c0,2.4,2,4.4,4.4,4.4s4.4-2,4.4-4.4v-8.8c0-2.4-2-4.4-4.4-4.4S52.3,171,52.3,173.4z M52.3,147.1v8.8
		c0,2.4,2,4.4,4.4,4.4s4.4-2,4.4-4.4v-8.8c0-2.4-2-4.4-4.4-4.4S52.3,144.7,52.3,147.1z M52.3,120.7v8.8c0,2.4,2,4.4,4.4,4.4
		s4.4-2,4.4-4.4v-8.8c0-2.4-2-4.4-4.4-4.4S52.3,118.3,52.3,120.7z M52.3,94.4v8.8c0,2.4,2,4.4,4.4,4.4s4.4-2,4.4-4.4v-8.8
		c0-2.4-2-4.4-4.4-4.4S52.3,92,52.3,94.4z M52.3,68.1v8.8c0,2.4,2,4.4,4.4,4.4s4.4-2,4.4-4.4v-8.8c0-2.4-2-4.4-4.4-4.4
		S52.3,65.6,52.3,68.1z M52.3,41.7v8.8c0,2.4,2,4.4,4.4,4.4s4.4-2,4.4-4.4v-8.8c0-2.4-2-4.4-4.4-4.4S52.3,39.3,52.3,41.7z
		 M52.3,15.4v8.8c0,2.4,2,4.4,4.4,4.4s4.4-2,4.4-4.4v-8.8c0-2.4-2-4.4-4.4-4.4S52.3,13,52.3,15.4z"/>
	<path class="st3" d="M189.8,120.7v8.8c0,2.4,2,4.4,4.4,4.4c2.4,0,4.4-2,4.4-4.4v-8.8c0-2.4-2-4.4-4.4-4.4
		C191.7,116.3,189.8,118.3,189.8,120.7z M189.8,94.4v8.8c0,2.4,2,4.4,4.4,4.4c2.4,0,4.4-2,4.4-4.4v-8.8c0-2.4-2-4.4-4.4-4.4
		C191.7,90,189.8,92,189.8,94.4z M189.8,68.1v8.8c0,2.4,2,4.4,4.4,4.4c2.4,0,4.4-2,4.4-4.4v-8.8c0-2.4-2-4.4-4.4-4.4
		C191.7,63.7,189.8,65.6,189.8,68.1z M189.8,41.7v8.8c0,2.4,2,4.4,4.4,4.4c2.4,0,4.4-2,4.4-4.4v-8.8c0-2.4-2-4.4-4.4-4.4
		C191.7,37.3,189.8,39.3,189.8,41.7z M189.8,15.4v8.8c0,2.4,2,4.4,4.4,4.4c2.4,0,4.4-2,4.4-4.4v-8.8c0-2.4-2-4.4-4.4-4.4
		C191.7,11,189.8,13,189.8,15.4z"/>
	<path class="st3" d="M195.3,256.4V158c0-2.4-2-4.4-4.4-4.4c-2.4,0-4.4,2-4.4,4.4v98.4c0,2.4,2,4.4,4.4,4.4
		C193.4,260.7,195.3,258.8,195.3,256.4z"/>
	<path class="st3" d="M272.1,256.4v-73.8c0-2.4-2-4.4-4.4-4.4c-2.4,0-4.4,2-4.4,4.4v73.8c0,2.4,2,4.4,4.4,4.4
		C270.2,260.7,272.1,258.8,272.1,256.4z"/>
	<path class="st3" d="M162.7,223.7c-18,0-32.6,14.6-32.6,32.6c0,18,14.6,32.6,32.6,32.6c18,0,32.6-14.6,32.6-32.6
		C195.3,238.3,180.7,223.7,162.7,223.7z M162.7,232.5c13.2,0,23.9,10.7,23.9,23.9c0,13.2-10.7,23.9-23.9,23.9
		c-13.2,0-23.9-10.7-23.9-23.9C138.8,243.2,149.5,232.5,162.7,232.5z"/>
	<path class="st3" d="M239.5,223.7c-18,0-32.6,14.6-32.6,32.6c0,18,14.6,32.6,32.6,32.6c18,0,32.6-14.6,32.6-32.6
		C272.1,238.3,257.5,223.7,239.5,223.7z M239.5,232.5c13.2,0,23.9,10.7,23.9,23.9c0,13.2-10.7,23.9-23.9,23.9
		c-13.2,0-23.9-10.7-23.9-23.9C215.6,243.2,226.3,232.5,239.5,232.5z"/>
	<path class="st3" d="M272.1,176.9c0-6.8-4.3-12.9-10.8-15.2c-14.8-5.1-46.5-16.2-61.2-21.3c-3.1-1.1-6.6-0.6-9.3,1.3
		c-2.7,1.9-4.3,5-4.3,8.4v21.2c0,1.9,1.2,3.5,2.9,4.1l76.8,26.8c1.3,0.5,2.8,0.3,4-0.6c1.2-0.8,1.9-2.2,1.9-3.6L272.1,176.9z
		 M263.4,176.9v14.9l-68-23.7V150c0-0.5,0.2-0.9,0.6-1.2c0.4-0.3,0.9-0.3,1.3-0.2l61.2,21.3C261.4,171,263.4,173.8,263.4,176.9
		L263.4,176.9z"/>
</g>
<g class="st1">
	<path class="st3" d="M202.3,38.3c0.3-2.3,2.3-4.1,4.8-4.1h16.4c2.7,0,4.8,2.2,4.8,4.8v11.6h6.8c0.3-2.3,2.4-4.1,4.8-4.1h16.4
		c2.7,0,4.8,2.2,4.8,4.8v3.4h11.6c2.7,0,4.8,2.1,4.8,4.8V100h7.5c1.3,0,2.6,0.5,3.5,1.5c0.9,1,1.4,2.2,1.3,3.5l-7,156.2
		c-0.1,2.6-2.2,4.6-4.8,4.6H39.2c-6.3,0-12.4-2.5-16.8-7s-7-10.5-7-16.8v-15.6c-0.8-0.5-1.5-1-2.1-1.7c-2.1-2.1-3.3-4.9-3.3-7.8
		v-11.8c0-2.9,1.2-5.8,3.3-7.8c2-2,4.7-3.2,7.6-3.3v-9.1c0-0.4,0-0.7,0.1-1c-0.3-0.3-0.7-0.6-1-0.9c-2.9-2.9-4.5-6.7-4.5-10.8v-5.9
		c0-35.4,28.7-64.2,64.2-64.2h32.7c10.2,0,19.8,2.4,28.4,6.6l-0.2-3.8c-0.1-1.3,0.4-2.6,1.3-3.5c0.9-0.9,2.2-1.5,3.5-1.5h7.5V67.8
		c0-2.7,2.2-4.8,4.8-4.8h11.6v-7.5c0-2.7,2.2-4.8,4.8-4.8h11.6v-7.5c0-2.7,2.2-4.8,4.8-4.8L202.3,38.3z M171.8,256.2h101.8
		l6.6-146.6h-5.9c-0.1,0.4-0.3,0.8-0.5,1.1c-2.3,5.8-5.1,10.1-9,14.5c-1,1.1-2,2.2-3.1,3.3c-0.2,0.3-0.5,0.5-0.7,0.7
		c-0.1,0.1-0.3,0.3-0.4,0.4l0,0c-2.1,1.9-4.3,3.7-6.6,5.3l-0.1,0.1c-0.2,0.2-0.4,0.3-0.6,0.4l-0.1,0c-2.4,1.6-5,3.1-7.7,4.4l0,0
		c-0.2,0.1-0.4,0.2-0.7,0.3c-8.7,4.1-18.8,6.4-29.4,6.4c-10.9,0-21.2-2.4-30.1-6.7h0l0,0c-2.7-1.3-5.2-2.7-7.7-4.4l-0.1,0
		c-0.2-0.1-0.4-0.3-0.6-0.4l-0.1-0.1c-6.1-4.2-11.2-9.3-15.2-15.2c-2-3-3.7-6.1-5-9.4l-0.1-0.2c-0.1-0.2-0.2-0.4-0.2-0.6h-5.9
		l0.2,5.2c15.7,11.7,25.8,30.4,25.8,51.5v5.9c0,4.1-1.6,7.9-4.5,10.8c-0.3,0.3-0.7,0.6-1,0.9c0,0.3,0.1,0.7,0.1,1v9.1
		c2.8,0.1,5.6,1.2,7.6,3.3c2.1,2.1,3.3,4.9,3.3,7.8v11.8c0,2.9-1.2,5.8-3.3,7.8c-0.7,0.7-1.4,1.2-2.1,1.7V242
		C176.5,247.2,174.8,252.1,171.8,256.2L171.8,256.2z M25.1,228h141.7v14c0,3.8-1.5,7.4-4.1,10c-2.7,2.7-6.3,4.1-10,4.1H39.3
		c-3.8,0-7.4-1.5-10-4.1c-2.7-2.7-4.1-6.3-4.1-10L25.1,228z M49.5,203.7H21.1c-0.4,0-0.7,0.2-1,0.4c-0.3,0.3-0.4,0.6-0.4,1v11.8
		c0,0.4,0.2,0.7,0.4,1c0.3,0.3,0.6,0.4,1,0.4h149.6c0.4,0,0.7-0.2,1-0.4c0.3-0.3,0.4-0.6,0.4-1v-11.8c0-0.4-0.2-0.7-0.4-1
		c-0.3-0.3-0.6-0.4-1-0.4H86.4l-20.5,11.5c0,0,0,0,0,0c-0.1,0-0.1,0.1-0.2,0.1l-0.2,0.1l-0.3,0.1l-0.2,0l-0.2,0.1
		c-0.2,0-0.3,0.1-0.5,0.1h0c-0.2,0-0.5,0.1-0.7,0.1h-0.2l-0.1,0c-0.1,0-0.2,0-0.3,0l-0.2,0l-0.2,0l-0.2-0.1l-0.1,0
		c-0.1,0-0.2,0-0.2-0.1c-0.1,0-0.3-0.1-0.4-0.2l-0.1,0c-0.1-0.1-0.2-0.1-0.3-0.2l0,0c-0.4-0.2-0.7-0.5-1-0.8L49.5,203.7L49.5,203.7z
		 M30.5,194h21c1.3,0,2.5,0.5,3.4,1.4l9.4,9.5l18.4-10.4c0.7-0.4,1.5-0.6,2.4-0.6h76.3v-6.6H30.5L30.5,194L30.5,194z M166.8,166.3
		v5.9c0,1.5-0.6,2.9-1.7,4c-1,1.1-2.5,1.7-4,1.7H30.7c-1.5,0-2.9-0.6-4-1.7c-1.1-1-1.7-2.5-1.7-4v-5.9c0-30.1,24.4-54.5,54.5-54.5
		h32.7C142.4,111.8,166.8,136.2,166.8,166.3L166.8,166.3z M218.7,136.7l-3.4,0.3l-3.4-0.3V43.8h6.8L218.7,136.7L218.7,136.7z
		 M228.3,60.3h6.8v73.3h0c-2.2,0.8-4.5,1.4-6.8,2V60.3z M202.2,52.8v82.7c-2.3-0.5-4.6-1.1-6.8-1.9V47.9h6.8V52.8z M244.8,129.1v-73
		h6.8v68.3l-3.5,2.8L244.8,129.1L244.8,129.1z M179,124.4V60.3h6.8v68.9l-3.3-1.9L179,124.4z M261.2,64.4v49.7
		c1.2-1.8,2.2-3.6,3.1-5.6c0.7-1.6,1.3-3.3,1.9-5.2v0c0.3-1,1-1.9,1.8-2.5V64.4L261.2,64.4z M162.5,100.8c0.9,0.6,1.5,1.5,1.8,2.6
		l0.1,0.3l0.1,0.3c1.1,3.5,2.7,6.9,4.8,10.1V72.6h-6.8L162.5,100.8z M266.2,103.4L266.2,103.4L266.2,103.4z"/>
</g>
<g>
	<path class="st4" d="M204.5,283.3H92.3c-11.1,0-20.2-8.3-21.3-19.3L55.3,129.1c-0.2-1.8,0.7-3.5,2.3-4.2c1.7-0.8,3.1-2.1,4.7-3.6
		c3.3-3.1,7.4-6.9,15-6.9c7.6,0,11.6,3.8,14.7,6.9c2.7,2.7,4.7,4.6,8.9,4.6c4.2,0,6.2-1.9,8.9-4.6c3.2-3.1,7.1-6.9,14.7-6.9
		c7.6,0,11.6,3.8,14.7,6.9c2.7,2.7,4.7,4.6,8.9,4.6s6.2-1.9,8.9-4.6c3.2-3.1,7.1-6.9,14.7-6.9c7.6,0,11.6,3.8,14.7,6.9
		c2.7,2.7,4.7,4.6,8.9,4.6c4.2,0,6.2-1.9,8.9-4.6c3.2-3.1,7.1-6.9,14.7-6.9s11.7,3.8,15,6.9c1.6,1.5,3,2.8,4.6,3.6
		c0.3,0.1,0.6,0.3,0.8,0.5c0.2,0.2,0.4,0.3,0.5,0.5c0.6,0.7,1,1.7,1,2.7v0v0v0v0v0.2c0,0.1,0,0.2,0,0.3L225.8,264
		C224.7,275,215.5,283.3,204.5,283.3L204.5,283.3z M63.9,130.8l15.4,132.3c0,0,0,0.1,0,0.1c0.6,6.7,6.2,11.8,13,11.8h112.2
		c6.8,0,12.3-5.1,13-11.8c0,0,0-0.1,0-0.1l15.4-132.3c-1.6-1.1-2.9-2.3-4.1-3.5c-2.9-2.7-5-4.7-9.4-4.7c-4.2,0-6.2,1.9-8.9,4.6
		c-3.2,3.1-7.1,6.9-14.7,6.9s-11.6-3.8-14.7-6.9c-2.7-2.7-4.7-4.6-8.9-4.6s-6.2,1.9-8.9,4.6c-3.2,3.1-7.1,6.9-14.7,6.9
		c-7.6,0-11.6-3.8-14.7-6.9c-2.7-2.7-4.7-4.6-8.9-4.6s-6.2,1.9-8.9,4.6c-3.2,3.1-7.1,6.9-14.7,6.9c-7.6,0-11.6-3.8-14.7-6.9
		c-2.7-2.7-4.7-4.6-8.9-4.6c-4.3,0-6.4,2-9.4,4.7C66.8,128.4,65.5,129.7,63.9,130.8L63.9,130.8z"/>
	<path class="st4" d="M191.4,260.3h-86.1c-1.9,0-3.6-1.3-4-3.2l-5.7-22.9c-0.3-1.2,0-2.6,0.8-3.6c0.8-1,2-1.6,3.3-1.6h97.5
		c1.3,0,2.5,0.6,3.3,1.6c0.8,1,1.1,2.3,0.8,3.6l-5.7,22.9C195,259,193.3,260.3,191.4,260.3L191.4,260.3z M108.6,252h79.6l3.7-14.6
		l-86.9,0L108.6,252z"/>
	<path class="st4" d="M200,162.8H96.8c-2.3,0-4.2-1.9-4.2-4.2c0-2.3,1.9-4.2,4.2-4.2H200c2.3,0,4.2,1.9,4.2,4.2
		C204.2,160.9,202.3,162.8,200,162.8z"/>
	<path class="st4" d="M161.4,127.2c-0.5,0-1-0.1-1.5-0.3c-2.1-0.8-3.2-3.3-2.3-5.4l16.8-42.5c1.4-3.6,3.7-6.8,6.7-9.3
		c3-2.5,6.5-4.2,10.3-5c5-1.1,9.1-4.5,10.9-9.2l13.1-33.1c0.4-1,1.2-1.8,2.2-2.3c1-0.4,2.2-0.5,3.2,0l21.3,8.5
		c2.1,0.8,3.2,3.3,2.3,5.4L231.3,67c-0.7,1.8-1.1,3.7-1.1,5.6c0,3.1,0.9,6.1,2.7,8.6c4.5,6.5,5.4,14.7,2.5,22l-7,17.6
		c-0.8,2.1-3.3,3.2-5.4,2.3c-2.1-0.8-3.2-3.3-2.3-5.4l7-17.6c1.9-4.7,1.3-10-1.6-14.2c-2.7-3.9-4.2-8.6-4.2-13.4
		c0-3,0.6-5.9,1.7-8.6l11.6-29.2l-13.6-5.4L210,58.6c-2.9,7.3-9.2,12.7-16.9,14.3c-2.4,0.5-4.7,1.6-6.6,3.3c-1.9,1.6-3.4,3.7-4.3,6
		l-16.8,42.5C164.6,126.2,163.1,127.2,161.4,127.2L161.4,127.2z"/>
	<path class="st4" d="M232.1,57.9c-0.5,0-1-0.1-1.5-0.3l-21.3-8.5c-2.1-0.8-3.2-3.3-2.3-5.4c0.8-2.1,3.3-3.2,5.4-2.3l21.3,8.5
		c2.1,0.8,3.2,3.3,2.3,5.4C235.3,56.9,233.7,57.9,232.1,57.9L232.1,57.9z"/>
	<path class="st4" d="M231.2,106.9c-0.5,0-1-0.1-1.5-0.3l-53.3-21.1c-2.1-0.8-3.2-3.3-2.3-5.4c0.8-2.1,3.3-3.2,5.4-2.3l53.3,21.1
		c2.1,0.8,3.2,3.3,2.3,5.4C234.4,105.9,232.8,106.9,231.2,106.9L231.2,106.9z"/>
	<path class="st4" d="M133.9,125.9c-2.2,0-4-1.7-4.1-3.9c-0.7-11.9-3.7-25.1-8.6-38.4C108,47.8,86.6,27.3,75.8,31.3
		c-10.9,4-13.8,33.4-0.6,69.2c2.1,5.6,4.4,11,7,16.1c1,2.1,0.2,4.6-1.9,5.6c-2.1,1-4.6,0.2-5.6-1.9c-2.7-5.4-5.2-11.1-7.3-17
		c-6.5-17.8-9.8-35.6-9.2-50.2c0.7-15.9,5.9-26.4,14.8-29.7s19.7,1.3,30.5,13c9.9,10.7,19,26.4,25.6,44.2c5.2,14,8.3,28.2,9.1,40.8
		c0.1,2.3-1.6,4.3-3.9,4.4C134,125.9,134,125.9,133.9,125.9L133.9,125.9z"/>
	<path class="st4" d="M84.8,76.6c-1.7,0-3.3-1-3.9-2.7c-0.8-2.2,0.3-4.6,2.5-5.3l10.8-4c2.2-0.8,4.6,0.3,5.3,2.5
		c0.8,2.2-0.3,4.6-2.5,5.3l-10.8,4C85.8,76.6,85.3,76.6,84.8,76.6L84.8,76.6z"/>
	<path class="st4" d="M92.7,98.2c-1.7,0-3.3-1-3.9-2.7c-0.8-2.2,0.3-4.6,2.5-5.3l10.8-4c2.2-0.8,4.6,0.3,5.3,2.5
		c0.8,2.2-0.3,4.6-2.5,5.3l-10.8,4C93.7,98.1,93.2,98.2,92.7,98.2L92.7,98.2z"/>
	<path class="st4" d="M105.7,214.4c-1.9,0-3.7-1.3-4.1-3.3l-6.1-28.7c-0.5-2.2,1-4.5,3.2-4.9c2.2-0.5,4.5,1,4.9,3.2l6.1,28.7
		c0.5,2.2-1,4.5-3.2,4.9C106.3,214.4,106,214.4,105.7,214.4L105.7,214.4z"/>
	<path class="st4" d="M136.2,214.4c-1.9,0-3.7-1.3-4.1-3.3l-6.1-28.7c-0.5-2.2,1-4.5,3.2-4.9c2.2-0.5,4.5,1,4.9,3.2l6.1,28.7
		c0.5,2.2-1,4.5-3.2,4.9C136.8,214.4,136.5,214.4,136.2,214.4L136.2,214.4z"/>
	<path class="st4" d="M160.6,214.4c-0.3,0-0.6,0-0.9-0.1c-2.2-0.5-3.7-2.7-3.2-4.9l6.1-28.7c0.5-2.2,2.7-3.7,4.9-3.2
		c2.2,0.5,3.7,2.7,3.2,4.9l-6.1,28.7C164.2,213.1,162.5,214.4,160.6,214.4L160.6,214.4z"/>
	<path class="st4" d="M191.1,214.4c-0.3,0-0.6,0-0.9-0.1c-2.2-0.5-3.7-2.7-3.2-4.9l6.1-28.7c0.5-2.2,2.7-3.7,4.9-3.2
		c2.2,0.5,3.7,2.7,3.2,4.9l-6.1,28.7C194.7,213.1,193,214.4,191.1,214.4L191.1,214.4z"/>
	<path class="st4" d="M193,72.8c-2.1,0-3.9-1.6-4.1-3.7c0-0.3-0.1-0.6-0.1-0.9c0-2.9,1.4-5.6,2.6-7.9c0.6-1.1,1.6-3,1.6-3.7
		c-0.3-0.6-2.3-1.9-3.4-2.5c-2.2-1.4-4.7-2.9-6.1-5.3c-1.4-2.5-1.5-5.4-1.6-8c0-1.3-0.1-3.6-0.5-4.1c-0.5-0.4-2.7-0.4-4.1-0.5
		c-2.6-0.1-5.5-0.2-8-1.6c-2.4-1.4-4-3.9-5.3-6.1c-0.7-1.1-1.9-3.1-2.5-3.3c-0.7,0-2.6,1-3.7,1.6c-2.3,1.2-4.9,2.6-7.9,2.6
		c-2.9,0-5.5-1.4-7.9-2.6c-1.1-0.6-3-1.6-3.7-1.6c-0.6,0.3-1.9,2.3-2.5,3.4c-1.4,2.2-2.9,4.7-5.3,6.1c-2.5,1.4-5.4,1.5-8,1.6
		c-1.3,0-3.6,0.1-4.1,0.5c-0.4,0.5-0.4,2.7-0.5,4.1c-0.1,2.6-0.2,5.5-1.6,8c-1.3,2.2-3.4,3.6-5.2,4.8c-1.9,1.2-4.5,0.6-5.7-1.3
		c-1.2-1.9-0.6-4.5,1.3-5.7c0.5-0.3,2.1-1.3,2.5-1.9c0.4-0.7,0.5-2.7,0.5-4.1c0.1-3.1,0.2-7,2.9-9.7c2.7-2.7,6.6-2.8,9.7-2.9
		c1.5,0,3.4-0.1,4.1-0.5c0.6-0.4,1.7-2,2.4-3.3c1.7-2.7,3.7-6,7.5-7c3.6-1,7,0.8,9.8,2.3c1.4,0.7,3.1,1.7,3.9,1.7
		c0.8,0,2.6-0.9,3.9-1.7c2.7-1.5,6.1-3.3,9.8-2.3c3.7,1,5.8,4.3,7.5,7c0.7,1.2,1.8,2.9,2.4,3.2c0.7,0.4,2.7,0.5,4.1,0.5
		c3.1,0.1,7,0.2,9.7,2.9c2.7,2.7,2.8,6.6,2.9,9.7c0,1.5,0.1,3.4,0.5,4.1c0.4,0.6,2,1.7,3.2,2.4c2.7,1.7,6,3.7,7,7.5
		c1,3.6-0.8,7-2.3,9.8c-0.7,1.4-1.7,3.1-1.7,3.9v0c0.3,2.3-1.4,4.3-3.7,4.6C193.3,72.8,193.1,72.8,193,72.8L193,72.8z"/>
	<path class="st4" d="M185.9,75.5c-2.1,0-3.9-1.6-4.1-3.7c-0.2-2-0.6-2.6-0.7-2.8c-0.4-0.5-2.4-0.6-3.8-0.6
		c-2.6-0.1-5.8-0.3-8.4-2.3c-2.4-1.8-3.8-4.8-5.1-7.7c-0.7-1.4-1.8-3.8-2.5-4.6c-0.8,0.3-2.2,1.3-3,1.9c-2.4,1.7-5.1,3.6-8.3,3.6
		c-3.2,0-5.9-1.9-8.3-3.6c-0.9-0.6-2.3-1.6-3-1.9c-0.8,0.8-1.8,3.1-2.5,4.6c-1.4,2.9-2.8,5.9-5.1,7.7c-2.6,2-5.8,2.1-8.4,2.3
		c-1.3,0.1-2.7,0.1-3.4,0.4c-2.1,0.8-4.6-0.2-5.4-2.3c-0.8-2.1,0.2-4.6,2.3-5.4c2-0.8,4.2-0.9,6.1-1c1.3-0.1,3.2-0.1,3.7-0.6
		c0.7-0.6,1.9-3,2.7-4.6c1.7-3.6,3.6-7.7,7.4-9c4.1-1.4,7.6,1.1,10.5,3.1c1.1,0.7,2.9,2,3.5,2.1c0.6-0.1,2.4-1.3,3.5-2.1
		c2.9-2,6.4-4.5,10.5-3.1c3.8,1.3,5.7,5.4,7.4,9c0.8,1.6,1.9,4.1,2.6,4.6c0.5,0.4,2.4,0.5,3.7,0.6c3.1,0.1,7.3,0.3,10,3.9
		c1.7,2.2,2.1,5,2.3,6.9c0.2,2.3-1.4,4.3-3.7,4.6C186.2,75.5,186,75.5,185.9,75.5L185.9,75.5z"/>
</g>
</svg>
