<svg width="150" height="150" viewBox="0 0 150 150" fill="none" xmlns="http://www.w3.org/2000/svg">
<path d="M74.6567 26.8216C74.6567 26.1093 75.2164 25.5496 75.9287 25.5496H96.1782C98.4168 25.5496 100.248 27.3812 100.248 29.6199V65.1328C100.248 65.8451 99.6887 66.4048 98.9765 66.4048C98.2642 66.4048 97.7045 65.8451 97.7045 65.1328V29.6199C97.7045 28.7804 97.0176 28.0935 96.1782 28.0935H75.9287C75.2164 28.119 74.6567 27.5339 74.6567 26.8216ZM77.226 122.32H77.048H61.6828H52.2703H16.274C15.5617 122.32 15.0021 121.76 15.0021 121.048V81.6173C15.0021 79.9638 17.546 79.9384 17.546 81.6173V119.776H52.2703H60.4108V69.3811V61.2661L53.3133 59.3836H53.2116C52.9826 59.3836 52.7537 59.3073 52.5756 59.1801L17.546 49.9711V73.0698C17.546 74.7233 15.0021 74.7488 15.0021 73.0698V48.343C14.9512 47.5035 15.8416 46.8421 16.6302 47.0965L51.9396 56.4072V48.5974C51.9396 47.8851 52.4993 47.3255 53.2116 47.3255H63.9723C64.6846 47.3255 65.2442 47.8851 65.2442 48.5974V58.1371C65.2442 58.8494 64.6846 59.409 63.9723 59.409H62.5986C62.8275 59.638 62.9802 59.9432 62.9802 60.2994V68.1092H69.2636V23.6417L47.615 23.5399L47.5132 50.3782C47.5132 52.0317 44.9693 52.0571 44.9693 50.3782V23.6417C44.9693 22.1917 46.1649 20.996 47.615 20.996H69.1619C70.6119 20.996 71.8075 22.1917 71.8075 23.6417V68.1092H105.362C107.778 68.1092 109.763 70.068 109.763 72.5101V82.7112C109.737 84.3902 107.219 84.3902 107.219 82.7112V72.5101C107.219 71.4926 106.405 70.6785 105.387 70.6785H62.9802V119.776H77.0734H77.2515C78.905 119.776 78.905 122.32 77.226 122.32ZM54.4835 56.8397H62.6749V49.8439H54.4835V56.8397ZM79.8972 86.6288C79.8972 87.3411 79.3375 87.9008 78.6252 87.9008H70.0522C69.3399 87.9008 68.7803 87.3411 68.7803 86.6288V79.0225C68.7803 78.3103 69.3399 77.7506 70.0522 77.7506H78.6252C79.3375 77.7506 79.8972 78.3103 79.8972 79.0225V86.6288ZM77.3278 80.3199H71.3242V85.3823H77.3278V80.3199ZM51.9396 40.5078V30.9427C51.9396 30.2304 52.4993 29.6708 53.2116 29.6708H63.9723C64.6846 29.6708 65.2442 30.2304 65.2442 30.9427V40.5078C65.2442 41.2201 64.6846 41.7798 63.9723 41.7798H53.2116C52.4993 41.7798 51.9396 41.2201 51.9396 40.5078ZM54.4835 39.2359H62.6749V32.2401H54.4835V39.2359ZM79.8972 96.0922V103.698C79.8972 104.411 79.3375 104.97 78.6252 104.97H70.0522C69.3399 104.97 68.7803 104.411 68.7803 103.698V96.0922C68.7803 95.3799 69.3399 94.8202 70.0522 94.8202H78.6252C79.3121 94.8202 79.8972 95.3799 79.8972 96.0922ZM77.3278 97.3641H71.3242V102.426H77.3278V97.3641ZM25.0251 87.9008V74.1637C25.0251 73.4514 25.5847 72.8917 26.297 72.8917H40.0341C40.7464 72.8917 41.3061 73.4514 41.3061 74.1637V87.9008C41.3061 88.6131 40.7464 89.1727 40.0341 89.1727H26.297C25.6102 89.1727 25.0251 88.6131 25.0251 87.9008ZM27.5944 86.6288H38.7876V75.4356H27.5944V86.6288ZM25.0251 96.143C25.0251 95.4308 25.5847 94.8711 26.297 94.8711H40.0341C40.7464 94.8711 41.3061 95.4308 41.3061 96.143V109.88C41.3061 110.592 40.7464 111.152 40.0341 111.152H26.297C25.5847 111.152 25.0251 110.592 25.0251 109.88V96.143ZM27.5944 108.608H38.7876V97.415H27.5944V108.608ZM90.9123 52.3115V61.8512C90.9123 62.5635 90.3526 63.1231 89.6403 63.1231H78.8796C78.1673 63.1231 77.6076 62.5635 77.6076 61.8512V52.3115C77.6076 51.5992 78.1673 51.0396 78.8796 51.0396H89.6403C90.3526 51.0396 90.9123 51.5992 90.9123 52.3115ZM88.3684 53.5835H80.1515V60.5792H88.3684V53.5835ZM90.9123 44.2473C90.9123 44.9596 90.3526 45.5193 89.6403 45.5193H78.8796C78.1673 45.5193 77.6076 44.9596 77.6076 44.2473V34.6823C77.6076 33.97 78.1673 33.4103 78.8796 33.4103H89.6403C90.3526 33.4103 90.9123 33.97 90.9123 34.6823V44.2473ZM88.3684 35.9542H80.1515V42.95H88.3684V35.9542ZM16.1468 26.1093L27.1874 10.5151C27.6707 9.82829 28.7901 9.82829 29.2734 10.5151L40.314 26.1093C40.9245 26.8979 40.2885 28.1444 39.271 28.119H35.1753V42.8482C35.1753 43.5605 34.6156 44.1202 33.9033 44.1202H22.4303C21.718 44.1202 21.1583 43.5605 21.1583 42.8482V28.119H17.1898C16.1977 28.1444 15.5363 26.8979 16.1468 26.1093ZM19.6574 25.5496C20.9039 25.7023 23.6514 24.9137 23.7022 26.8216V41.5508H32.6568V26.847C32.7077 24.9391 35.4805 25.7277 36.8288 25.5751L28.2558 13.4406L19.6574 25.5496ZM133.497 53.9651H129.402V74.6216C129.402 75.3339 128.842 75.8935 128.13 75.8935H116.657C115.944 75.8935 115.385 75.3339 115.385 74.6216V53.9651H111.416C110.424 53.9905 109.763 52.744 110.373 51.9554L121.414 36.3612C121.897 35.6744 123.016 35.6744 123.5 36.3612L134.54 51.9554C135.151 52.7694 134.515 54.0159 133.497 53.9651ZM131.03 51.4212L122.457 39.3122L113.884 51.4212C115.13 51.5738 117.878 50.7852 117.929 52.6931V73.3496H126.858V52.6931C126.909 50.7852 129.681 51.5738 131.03 51.4212ZM132.098 108.557V116.672C132.098 118.631 130.495 120.234 128.537 120.234H126.781C126.476 121.124 126.12 121.989 125.713 122.829L126.959 124.075C128.333 125.449 128.333 127.713 126.959 129.112L121.21 134.861C119.887 136.235 117.496 136.235 116.173 134.861L114.927 133.615C114.087 134.022 113.222 134.378 112.332 134.683V136.439C112.332 138.397 110.729 140 108.77 140H100.655C98.6966 140 97.094 138.397 97.094 136.439V134.683C96.2036 134.378 95.3387 134.022 94.4992 133.615L93.2527 134.861C91.9298 136.235 89.5386 136.235 88.2157 134.861L82.4665 129.112C81.0928 127.789 81.0928 125.398 82.4665 124.075L83.713 122.829C83.306 121.989 82.9498 121.124 82.6446 120.234H80.8893C78.9305 120.234 77.3278 118.631 77.3278 116.672V108.557C77.3278 106.599 78.9305 104.996 80.8893 104.996H82.6446C82.9498 104.105 83.306 103.241 83.713 102.401L82.4665 101.155C81.0928 99.8317 81.0928 97.4404 82.4665 96.1176L88.2157 90.3684C89.5894 88.9692 91.8535 88.9947 93.2527 90.3684L94.4992 91.6149C95.3387 91.2079 96.2036 90.8517 97.094 90.5465V88.7912C97.094 88.4859 97.1448 88.1806 97.2212 87.9008H86.206C85.4937 87.9008 84.9341 87.3411 84.9341 86.6288V79.0225C84.9341 78.3103 85.4937 77.7506 86.206 77.7506H101.673C102.385 77.7506 102.945 78.3103 102.945 79.0225V85.2297H108.77C110.729 85.2297 112.332 86.8323 112.332 88.7912V90.5465C113.222 90.8517 114.087 91.2079 114.927 91.6149L116.173 90.3684C117.547 88.9692 119.811 88.9947 121.21 90.3684L126.959 96.1176C128.333 97.4404 128.333 99.8317 126.959 101.155L125.713 102.401C126.12 103.241 126.476 104.105 126.781 104.996H128.537C130.495 105.021 132.098 106.599 132.098 108.557ZM87.5034 85.3569H99.8159C100.019 85.306 100.198 85.2806 100.401 85.2806V80.3199H87.5034V85.3569ZM129.554 108.557C129.554 107.998 129.096 107.54 128.562 107.54H125.866C125.306 107.54 124.797 107.184 124.644 106.624C124.517 104.945 122.126 102.579 123.271 101.231L125.179 99.3229C125.56 98.9413 125.56 98.2799 125.179 97.8983L119.404 92.2C118.31 91.1061 117.013 93.3702 116.097 94.1079C115.69 94.5149 115.079 94.5913 114.596 94.3369C113.35 93.6755 112.052 93.1158 110.704 92.7342C109.279 92.3781 109.941 89.9868 109.788 88.8166C109.788 88.2569 109.33 87.799 108.796 87.799H102.207C102.055 87.8753 101.877 87.9262 101.698 87.9262H100.223C99.8923 88.1043 99.6633 88.435 99.6633 88.8166V91.4877C99.6633 92.0474 99.3072 92.5561 98.7475 92.7088C97.094 92.836 94.6773 95.2272 93.3544 94.0825C92.4386 93.3447 91.1412 91.0807 90.0473 92.1746L84.2981 97.9492C83.9165 98.3308 83.9165 98.9922 84.2981 99.3738L86.206 101.282C86.6131 101.689 86.6894 102.299 86.435 102.783C85.7736 104.004 85.2394 105.327 84.8323 106.675C84.4507 108.099 82.0849 107.438 80.9401 107.591C80.3805 107.591 79.9226 108.049 79.9226 108.608V116.723C79.9226 118.25 82.3393 117.588 83.6113 117.715C84.1709 117.715 84.6797 118.072 84.8323 118.631C84.9595 120.31 87.3508 122.701 86.2315 124.024L84.3236 125.932C84.1455 126.11 84.0183 126.365 84.0183 126.644C84.0183 126.924 84.12 127.179 84.3236 127.357L90.0728 133.106C90.2509 133.284 90.5052 133.411 90.7851 133.411C91.9807 133.36 93.0491 130.791 94.2957 130.842C95.822 131.274 97.1957 132.241 98.7984 132.597C99.3326 132.75 99.7142 133.259 99.7142 133.818V136.515C99.7142 137.075 100.172 137.507 100.732 137.507H108.847C110.373 137.482 109.712 135.116 109.839 133.818C109.839 133.259 110.195 132.75 110.755 132.597C112.434 132.47 114.825 130.079 116.148 131.224C116.58 131.554 118.132 133.538 118.743 133.411C119.022 133.411 119.277 133.31 119.455 133.106L125.204 127.357C125.586 126.975 125.586 126.314 125.204 125.932C124.543 125.067 122.33 123.795 123.093 122.523C123.754 121.277 124.314 119.979 124.695 118.631C124.848 118.097 125.357 117.715 125.916 117.715C127.214 117.588 129.605 118.25 129.605 116.723V108.557H129.554ZM115.919 108.125C119.175 115.833 113.095 124.889 104.7 124.711C98.0352 124.711 92.6167 119.293 92.6167 112.628C92.3114 103.851 102.64 97.6185 110.271 101.892C110.882 102.223 111.671 101.969 112.001 101.358C112.332 100.722 112.078 99.9589 111.467 99.6282C106.913 97.2624 101.546 97.4404 97.1194 100.137C84.5779 107.591 90.1491 127.357 104.726 127.255C114.876 127.459 122.253 116.469 118.31 107.158C117.7 105.606 115.283 106.599 115.919 108.125Z" fill="#663366"/>
</svg>
