<svg width="150" height="150" viewBox="0 0 150 150" fill="none" xmlns="http://www.w3.org/2000/svg">
<path d="M115.756 102.513C115.756 102.48 115.761 102.448 115.761 102.415C115.761 101.354 115.465 100.319 114.898 99.4145C114.099 98.1362 112.852 97.248 111.389 96.9121C109.953 96.5817 108.48 96.8255 107.222 97.5892C107.173 96.7605 106.914 95.9534 106.472 95.2439C105.851 94.2527 104.939 93.5594 103.918 93.1964C105.824 91.4199 107.578 89.4969 109.16 87.4496C109.187 87.4171 109.214 87.3792 109.241 87.3467C113.435 81.8924 116.447 75.566 117.996 68.7953C118.153 68.102 117.726 67.4141 117.035 67.257C116.35 67.0999 115.659 67.5278 115.502 68.2211C114.093 74.3742 111.411 80.1428 107.675 85.1641C105.392 84.5953 103.233 83.4416 101.527 81.8601C100.183 80.6197 99.1141 79.1193 98.4286 77.5323C97.6513 75.7286 97.3382 73.7354 97.5217 71.7801C97.6405 70.5181 97.8456 69.7219 98.0291 69.0232C98.2936 67.9995 98.5257 67.1166 98.2774 65.6433C97.9805 63.8558 97.1978 62.8593 96.291 61.7001C95.9725 61.2938 95.6432 60.8768 95.2978 60.3731C93.673 58.0277 93.4679 56.522 93.2627 55.0596C93.063 53.6242 92.8579 52.1401 91.3896 50.4014C87.2817 45.5321 78.2726 44.5626 78.1809 44.5516L77.9272 44.5299C76.6695 44.4162 75.3685 44.297 74.8611 43.5712C74.3753 42.8834 74.6182 41.7079 75.6168 39.8772C76.0001 39.1785 76.4103 38.3551 76.8421 37.4939C78.2402 34.6936 80.3562 30.4634 82.1159 30.0355C82.3264 29.9867 82.6233 29.9705 83.0659 30.2955C83.3574 30.5121 83.325 31.2379 83.2441 32.2345C83.1523 33.3665 83.0443 34.6502 83.6759 35.7769C84.9606 38.0789 87.9996 39.6062 90.4773 38.2196C92.7067 36.9739 93.1924 34.0923 92.5232 31.8932C92.0373 30.3063 91.1036 29.0172 90.2074 27.7713C89.9969 27.4788 89.781 27.1809 89.5759 26.883C88.4261 25.2202 86.4667 20.8004 86.553 15.1997C88.5827 15.9201 90.5582 16.7867 92.4637 17.7942C93.0899 18.1246 93.8617 17.8863 94.191 17.258C94.5203 16.6297 94.2828 15.8552 93.6566 15.5247C91.152 14.1977 88.5287 13.1036 85.8296 12.2478C85.7756 12.2261 85.7216 12.2099 85.6677 12.1936C81.0579 10.7474 76.2214 10 71.3626 10C60.4535 10 50.3859 13.6886 42.3268 19.8796C42.1811 19.95 42.0515 20.0529 41.949 20.1721C30.7375 28.9684 23.5149 42.6614 23.5149 58.0167C23.5149 73.3012 30.651 87.4543 42.7532 96.506C39.6386 97.1181 36.5025 98.2609 33.3825 99.9183C32.9453 97.481 30.8185 95.6285 28.2707 95.6285H18.2036C15.3373 95.6285 13 97.9684 13 100.85V132.98C13 135.856 15.3319 138.202 18.2036 138.202H28.2707C31.137 138.202 33.4743 135.862 33.4743 132.98V132.932C38.2568 132.054 42.9044 131.994 47.2929 132.758C51.5195 133.489 54.7097 134.833 57.7919 136.127C61.5597 137.709 65.4516 139.345 71.0978 139.848C72.2313 139.951 73.3756 140 74.5255 140C75.4971 140 76.4742 139.962 77.4404 139.892C80.2472 139.68 83.0219 138.76 85.4725 137.211L122.48 113.167C123.948 112.241 124.947 110.794 125.293 109.088C125.638 107.382 125.282 105.654 124.289 104.224C122.394 101.489 118.669 100.747 115.765 102.513L115.756 102.513ZM84.0104 14.3871C83.6218 22.6743 87.2977 28.1177 87.4651 28.3502C87.681 28.6644 87.9023 28.9731 88.129 29.2818C88.9441 30.4085 89.7106 31.4754 90.0722 32.6509C90.4393 33.8479 90.218 35.4241 89.2247 35.9819C88.1506 36.5831 86.5528 35.6948 85.9051 34.5249C85.6568 34.0807 85.7269 33.252 85.7917 32.4504C85.9051 31.0529 86.0508 29.3089 84.5772 28.2255C83.6218 27.5268 82.5638 27.2885 81.5111 27.543C78.6016 28.2472 76.4478 32.5533 74.5531 36.3448C74.1321 37.1898 73.7327 37.986 73.371 38.6468C72.7556 39.768 71.1309 42.747 72.7664 45.0653C73.954 46.7553 76.0268 46.9448 77.6947 47.0964L77.943 47.1181C78.024 47.1235 86.0399 48.0443 89.4352 52.0687C90.423 53.244 90.5471 54.1107 90.7253 55.4215C90.9466 57.0138 91.2219 58.9963 93.1922 61.8453C93.5808 62.4086 93.9479 62.8799 94.2772 63.2916C95.076 64.3153 95.5619 64.9327 95.7562 66.0702C95.9127 67.0018 95.7832 67.4892 95.5564 68.3776C95.3621 69.1359 95.1138 70.0784 94.9789 71.5463C94.7575 73.9296 95.1408 76.3561 96.0854 78.5552C96.9113 80.4726 98.196 82.2709 99.7992 83.7549C101.543 85.3637 103.68 86.604 105.964 87.3406C104.026 89.6371 101.861 91.755 99.4861 93.6453C99.3943 93.082 99.1946 92.5404 98.8869 92.0529C98.2715 91.0726 97.3161 90.3901 96.188 90.1301C95.0652 89.8701 93.9047 90.0706 92.9276 90.688L72.7883 103.379C69.0097 102.285 65.9761 101.023 63.0397 99.793C58.1114 97.7347 53.8525 95.9528 48.0713 95.9744C47.8338 95.9744 47.5963 95.9853 47.3534 95.9907C49.1455 92.3292 49.3075 87.9745 47.715 84.2478C47.294 83.262 46.765 82.3521 46.2576 81.4692C45.8419 80.7488 45.4533 80.0718 45.1186 79.3677C44.5626 78.1923 44.0066 76.4808 44.4871 75.0021C44.9999 73.4313 46.5329 72.348 48.1576 71.1997C48.5786 70.9018 49.0158 70.5931 49.4315 70.2735C50.0306 69.8131 50.9753 69.2606 51.9738 68.6703C54.716 67.0508 57.8252 65.2146 58.6079 62.8964C59.6767 59.7277 59.3582 56.2884 57.755 53.6939C55.9683 50.8016 52.5136 49.1116 49.3667 49.5937C47.6178 49.8591 46.1388 50.6878 44.7137 51.4895C43.9688 51.9065 43.267 52.3019 42.5437 52.6107C40.8056 53.3527 38.4953 53.304 37.7882 51.9336C37.243 50.8828 37.8583 49.3988 38.5439 48.4509C39.9473 46.5281 42.1928 45.2281 44.5518 44.9735C44.9081 44.9356 45.2752 44.9194 45.6638 44.8977C46.4087 44.8652 47.1861 44.8273 47.9795 44.6377C49.6799 44.2369 50.9429 43.1753 51.3586 41.7941C51.9308 39.9145 50.8512 38.36 49.9821 37.1035C49.3992 36.2639 48.8486 35.4677 48.8162 34.7365C48.773 33.7941 49.5719 32.9436 50.4895 31.9525C51.1696 31.2267 51.8714 30.4738 52.368 29.5476C53.291 27.8359 53.318 25.6911 52.4436 23.9523C51.7202 22.5115 48.3574 21.2388 45.8528 20.4804C53.1183 15.4918 61.9004 12.5725 71.3523 12.5725C75.6437 12.5725 79.9134 13.1899 84.0105 14.3816L84.0104 14.3871ZM26.0633 58.0222C26.0633 43.6042 32.7891 30.7338 43.2551 22.4031C45.3171 22.858 49.5275 24.3855 50.1752 25.1438C50.6502 26.1242 50.6286 27.3646 50.1158 28.3233C49.7757 28.957 49.2143 29.5582 48.6206 30.192C47.4709 31.427 46.17 32.819 46.2564 34.8394C46.3212 36.3126 47.147 37.5097 47.8758 38.5605C48.6477 39.6708 49.1011 40.3912 48.9068 41.0358C48.761 41.5125 48.1673 41.9404 47.3845 42.1245C46.8231 42.26 46.197 42.287 45.5385 42.3195C45.1282 42.3412 44.7072 42.3575 44.2754 42.4062C41.2093 42.7366 38.2945 44.4265 36.47 46.9235C34.9478 49.0142 34.5861 51.3271 35.5038 53.1036C36.9505 55.9146 40.7181 56.1584 43.5305 54.9669C44.3834 54.604 45.1823 54.1599 45.9542 53.7265C47.2389 53.0062 48.4534 52.3237 49.7435 52.1288C51.9081 51.7984 54.3048 52.9954 55.5678 55.0428C56.7715 56.9927 56.9983 59.6198 56.1724 62.0679C55.692 63.487 52.7879 65.1986 50.6611 66.4553C49.5977 67.0836 48.5883 67.6794 47.865 68.2264C47.4818 68.5189 47.0823 68.8005 46.6613 69.0985C44.853 70.3767 42.8071 71.8229 42.0298 74.2062C41.4307 76.0369 41.6844 78.1438 42.7801 80.4675C43.158 81.2691 43.5952 82.022 44.0163 82.7532C44.5075 83.609 44.9771 84.416 45.3387 85.261C46.6342 88.2888 46.4669 91.9665 44.9717 94.9672C33.0854 86.4255 26.0526 72.776 26.0526 58.017L26.0633 58.0222ZM30.8998 132.985C30.8998 134.447 29.7177 135.633 28.2602 135.633H18.193C16.7355 135.633 15.5534 134.447 15.5534 132.985V100.854C15.5534 99.3919 16.7355 98.2057 18.193 98.2057H28.2602C29.7176 98.2057 30.8998 99.3919 30.8998 100.854V132.985ZM122.772 108.578C122.567 109.591 121.973 110.447 121.088 111.004L84.0798 135.048C81.9908 136.364 79.6264 137.155 77.2299 137.334C75.2488 137.48 73.2516 137.469 71.3029 137.296C66.0507 136.825 62.5097 135.34 58.7582 133.764C55.5411 132.416 52.2159 131.018 47.7033 130.233C43.1691 129.447 38.3919 129.48 33.4797 130.325L33.4474 102.815C38.3487 99.9981 43.2608 98.5627 48.0537 98.5519C53.3113 98.5248 57.1654 100.144 62.034 102.175C65.0353 103.427 68.4359 104.846 72.6194 106.016C74.9135 106.655 77.2022 107.159 79.6097 107.554C80.2196 107.651 80.8242 107.744 81.4018 107.825C83.2857 108.085 85.1696 108.269 87.0103 108.372C88.2464 108.442 89.3962 109.027 90.1626 109.975C90.1788 109.997 90.1896 110.013 90.2058 110.029C90.6106 110.549 90.8805 111.14 90.9993 111.779C91.1666 112.689 91.0046 113.48 90.5026 114.194C90.4541 114.265 90.4217 114.319 90.3893 114.395C90.3515 114.482 89.3745 116.48 86.0602 117.683C85.2451 117.975 84.3544 118.203 83.4098 118.343C82.7728 118.403 71.3184 119.345 63.562 113.999C62.979 113.599 62.1801 113.745 61.7807 114.33C61.3812 114.915 61.527 115.716 62.1099 116.117C70.8383 122.13 83.1723 120.949 83.6905 120.895C83.7121 120.895 83.7283 120.889 83.7499 120.889C84.8727 120.721 85.9414 120.456 86.9239 120.098C90.8481 118.679 92.3381 116.193 92.651 115.587C93.4985 114.33 93.7954 112.857 93.5093 111.313C93.3204 110.284 92.8778 109.304 92.2354 108.475C92.2192 108.453 92.203 108.426 92.1814 108.404C90.9615 106.866 89.1209 105.918 87.1452 105.81C85.3801 105.712 83.5609 105.534 81.7474 105.284C81.186 105.209 80.603 105.117 80.0146 105.025C78.7029 104.808 77.4344 104.559 76.1768 104.272L94.2599 92.8809C94.6539 92.6318 95.129 92.5505 95.5878 92.6535C96.0466 92.7564 96.4352 93.038 96.6835 93.4334C96.8617 93.7205 96.9534 94.0455 96.9534 94.3759C96.9534 94.9879 96.6512 95.5458 96.1384 95.8708C96.1222 95.8816 96.1114 95.8924 96.0952 95.8979L86.7838 101.764C86.1846 102.143 86.0065 102.934 86.3789 103.535C86.7568 104.136 87.5449 104.315 88.144 103.941L97.4931 98.0482C97.5093 98.0373 97.5255 98.0265 97.5417 98.0157L100.953 95.8653C102.081 95.1558 103.577 95.497 104.284 96.6236C104.527 97.0136 104.656 97.4578 104.656 97.9073C104.656 98.5952 104.365 99.2506 103.863 99.7056L94.1303 105.875C93.5311 106.254 93.353 107.045 93.7309 107.646C93.9738 108.031 94.3894 108.247 94.8158 108.247C95.048 108.247 95.2854 108.182 95.496 108.047L105.309 101.829L108.489 99.8247C109.18 99.3859 110.006 99.2451 110.805 99.4293C111.603 99.6134 112.284 100.095 112.715 100.794C113.023 101.287 113.185 101.85 113.185 102.43C113.185 103.497 112.651 104.472 111.749 105.035L94.6651 115.803C94.066 116.182 93.8878 116.973 94.2603 117.574C94.5032 117.964 94.9188 118.175 95.3453 118.175C95.5774 118.175 95.8149 118.11 96.0254 117.98L113.094 107.223C113.1 107.218 113.105 107.218 113.11 107.218L117.013 104.759C118.735 103.67 121.045 104.098 122.163 105.707C122.751 106.557 122.962 107.581 122.756 108.588L122.772 108.578ZM55.924 73.1375C55.8268 74.5025 56.7445 75.3962 57.4084 76.0462C57.6351 76.2683 57.8564 76.4795 58.0022 76.6745C58.5905 77.4545 58.515 78.7166 58.4286 80.0544C58.3206 81.8038 58.1965 83.7863 59.5676 85.3192C60.0264 85.8283 60.8037 85.8879 61.3326 85.4546C61.8184 85.0538 62.7576 85.265 63.3298 85.7146C64.1395 86.3537 64.6577 87.4262 65.1597 88.4607C65.6671 89.5007 66.1853 90.5785 66.2771 91.6402C66.2987 91.8677 66.3041 92.1169 66.3095 92.3823C66.3364 93.4656 66.3742 94.9443 67.5348 95.9138C68.0854 96.3742 68.7925 96.6126 69.532 96.6126C69.953 96.6126 70.3849 96.5367 70.8059 96.3796C71.8153 96.0005 72.5332 95.2693 72.9866 94.7493C74.919 92.5285 75.799 89.7716 76.6517 87.1013C77.3967 84.7668 78.0984 82.557 79.4478 80.7749C80.0146 80.0275 80.6947 79.3559 81.4127 78.6462C81.9849 78.0775 82.584 77.4925 83.1346 76.8479C85.3748 74.2264 86.6703 70.879 86.7782 67.4233C86.8376 65.5872 86.5569 63.7618 85.9523 62.0014C85.9145 61.8877 85.8713 61.7577 85.8282 61.6277C85.4287 60.4036 84.8781 58.7299 83.5016 58.3129C82.9996 58.1612 82.2169 58.1287 81.3317 58.8328C78.5249 61.0698 76.4465 62.5756 73.3429 63.0793C73.0622 63.1226 72.7815 63.166 72.4954 63.2039C71.0002 63.4097 69.3052 63.6372 67.9774 64.8017C67.3027 65.3921 66.86 66.1179 66.4659 66.7571C66.3094 67.0171 66.1582 67.2608 66.0017 67.4883C64.8573 69.1295 62.9086 70.1911 60.9168 70.2723C60.7171 70.2777 60.5174 70.2777 60.3177 70.2777C59.7239 70.2777 59.0599 70.2723 58.3745 70.4565C57.2301 70.7598 56.0264 71.7077 55.9293 73.1322L55.924 73.1375ZM59.0278 72.948C59.3895 72.8505 59.8375 72.8505 60.3125 72.8559C60.55 72.8559 60.7821 72.8559 61.0196 72.8451C63.7942 72.7367 66.5094 71.2527 68.1017 68.9669C68.3014 68.6798 68.4796 68.3927 68.6523 68.1111C68.9816 67.5803 69.2893 67.0765 69.6671 66.7407C70.412 66.0853 71.5941 65.9228 72.8411 65.7549C73.1488 65.7116 73.4565 65.6737 73.7534 65.6249C77.6939 64.9858 80.4198 62.8517 82.8165 60.9397C83.0378 61.3297 83.2807 62.0772 83.3995 62.4346C83.448 62.5809 83.4912 62.7163 83.5344 62.8409C84.0364 64.3087 84.2685 65.8252 84.2253 67.3473C84.1336 70.218 83.0594 72.9966 81.1971 75.1794C80.7167 75.7427 80.1877 76.2627 79.6264 76.8152C78.8706 77.5573 78.0933 78.3263 77.4185 79.2201C75.8045 81.3542 75.0003 83.8783 74.223 86.3157C73.4187 88.8451 72.6576 91.2338 71.0707 93.0537C70.6442 93.5466 70.2772 93.8337 69.9209 93.9691C69.6456 94.072 69.3271 94.0612 69.1868 93.942C68.9169 93.7145 68.8953 93.005 68.8791 92.3171C68.8737 92.0246 68.8629 91.7213 68.8359 91.4179C68.701 89.8796 68.0478 88.531 67.4649 87.334C66.8927 86.1586 66.1856 84.6962 64.9116 83.6941C64.1235 83.0712 63.0655 82.665 62.0075 82.665C61.6836 82.665 61.3651 82.7029 61.052 82.7842C60.8685 82.0854 60.9225 81.1972 60.9818 80.2167C61.0844 78.5539 61.2032 76.6636 60.0372 75.1253C59.7727 74.7786 59.465 74.4753 59.1897 74.2045C58.8983 73.9228 58.461 73.4949 58.4718 73.3162C58.4772 73.2566 58.6769 73.0345 59.017 72.9479L59.0278 72.948ZM132.035 27.3744C131.613 26.7461 130.869 26.4428 130.129 26.5999C129.39 26.757 128.828 27.3419 128.699 28.0894C128.466 29.4164 128.045 31.0197 127.856 31.453C127.84 31.4909 127.819 31.5451 127.792 31.6101C127.63 32.0001 127.247 32.91 126.507 33.8579C125.271 35.4449 123.635 36.4578 122 37.384C121.487 32.2059 119.911 28.1761 117.212 25.1104C111.577 18.7189 101.915 18.3019 98.0012 18.4211H97.9904H97.9472C97.1105 18.4482 96.3872 18.9736 96.0958 19.7644C95.8097 20.5498 96.0202 21.4272 96.641 21.9852C98.0444 23.2689 99.5828 24.9317 99.966 25.5005C99.9984 25.5438 100.036 25.6034 100.09 25.6792C100.43 26.1667 101.224 27.3096 101.796 28.9182C102.854 31.8864 102.692 34.8763 102.541 37.7686C102.417 40.0815 102.298 42.2643 102.838 44.2413C104.047 48.7099 108.527 52.1276 116.527 54.6679C116.608 55.7837 116.651 56.9049 116.651 58.0207C116.651 59.4669 116.581 60.9294 116.446 62.3592C116.381 63.0634 116.894 63.6917 117.601 63.7566C117.644 63.7621 117.682 63.7621 117.725 63.7621C118.378 63.7621 118.934 63.2637 118.999 62.5975C119.139 61.0864 119.215 59.5427 119.215 58.0152C119.215 56.9374 119.177 55.8541 119.107 54.7763C121.433 54.3917 124.775 53.6496 128.127 51.3694C132.11 48.6504 134.529 45.6658 135.517 42.2481C137.303 36.068 133.681 29.7795 132.04 27.3699L132.035 27.3744ZM105.304 43.57C104.877 41.9938 104.98 40.0114 105.093 37.9098C105.255 34.9091 105.439 31.513 104.203 28.0573C103.512 26.1237 102.583 24.7858 102.184 24.2117C102.146 24.1575 102.114 24.1088 102.087 24.0709C101.622 23.3776 100.429 22.0885 99.3013 20.9781C102.988 21.0214 110.826 21.7472 115.29 26.8115C117.935 29.8123 119.338 33.9829 119.586 39.5726C119.597 39.7459 119.602 39.9138 119.608 40.0763V40.0926V40.098C119.613 40.3038 119.613 40.5042 119.613 40.71C119.592 43.3261 118.944 46.1698 118.253 48.4772C118.145 47.9356 118.026 47.3994 117.897 46.8631C117.891 46.8414 117.891 46.8252 117.886 46.8035C116.904 42.687 115.376 38.7114 113.346 34.9903C113.006 34.3674 112.229 34.14 111.608 34.4812C110.987 34.8224 110.761 35.6024 111.101 36.2253C113.012 39.7296 114.453 43.4725 115.381 47.3451C115.387 47.3668 115.392 47.3885 115.392 47.4047C115.743 48.8672 116.018 50.3567 116.223 51.8624C109.87 49.685 106.199 46.8956 105.298 43.5644L105.304 43.57ZM133.049 41.5443C132.234 44.3663 130.15 46.8849 126.679 49.2519C125.351 50.1564 124.002 50.7902 122.733 51.2397C125.276 48.7481 127.089 46.0507 128.12 43.1963C128.363 42.5301 128.018 41.7935 127.354 41.5497C126.69 41.3059 125.956 41.6526 125.713 42.3188C124.784 44.8863 123.106 47.3344 120.725 49.6147C121.535 47.1503 122.21 44.1279 122.183 40.6342V40.5584V40.2334C122.35 40.1413 122.517 40.0438 122.685 39.9518C124.628 38.8576 126.836 37.6173 128.531 35.4399C129.481 34.2212 129.972 33.0458 130.155 32.6071L130.204 32.4933C130.404 32.0383 130.641 31.1988 130.852 30.3213C132.282 32.8346 134.263 37.3518 133.054 41.5387L133.049 41.5443Z" fill="#663366"/>
</svg>
