<svg width="150" height="150" viewBox="0 0 150 150" fill="none" xmlns="http://www.w3.org/2000/svg">
<path d="M108.703 30.5237C108.703 36.9923 113.97 42.2588 120.438 42.2588C126.907 42.2588 132.173 36.9922 132.173 30.5237C132.173 24.0551 126.907 18.7887 120.438 18.7887C113.97 18.7887 108.703 24.0553 108.703 30.5237ZM120.438 22.6965C124.752 22.6965 128.26 26.2037 128.26 30.5179C128.26 34.8322 124.752 38.3394 120.438 38.3394C116.124 38.3394 112.617 34.8322 112.617 30.5179C112.617 26.2037 116.124 22.6965 120.438 22.6965Z" fill="#663366"/>
<path d="M122.395 14.8753V12.9185C122.395 11.8385 121.518 10.9617 120.438 10.9617C119.358 10.9617 118.481 11.8385 118.481 12.9185V14.8753C118.481 15.9553 119.358 16.8321 120.438 16.8321C121.518 16.8321 122.395 15.9553 122.395 14.8753Z" fill="#663366"/>
<path d="M109.377 16.6934C108.61 15.9269 107.374 15.9269 106.613 16.6934C105.846 17.4599 105.846 18.6967 106.613 19.4574L107.995 20.8394C108.378 21.2226 108.878 21.4142 109.377 21.4142C109.876 21.4142 110.376 21.2226 110.759 20.8394C111.525 20.0729 111.525 18.836 110.759 18.0754L109.377 16.6934Z" fill="#663366"/>
<path d="M102.839 28.5675C101.759 28.5675 100.882 29.4443 100.882 30.5243C100.882 31.6043 101.759 32.4811 102.839 32.4811H104.795C105.875 32.4811 106.752 31.6043 106.752 30.5243C106.752 29.4443 105.875 28.5675 104.795 28.5675H102.839Z" fill="#663366"/>
<path d="M107.995 40.2037L106.613 41.5857C105.846 42.3522 105.846 43.589 106.613 44.3497C106.996 44.7329 107.496 44.9245 107.995 44.9245C108.494 44.9245 108.994 44.7329 109.377 44.3497L110.759 42.9677C111.525 42.2012 111.525 40.9644 110.759 40.2037C109.992 39.4373 108.756 39.4373 107.995 40.2037Z" fill="#663366"/>
<path d="M118.487 46.1676V48.1244C118.487 49.2044 119.364 50.0812 120.444 50.0812C121.524 50.0812 122.401 49.2044 122.401 48.1244V46.1676C122.401 45.0875 121.524 44.2108 120.444 44.2108C119.364 44.2108 118.487 45.0875 118.487 46.1676Z" fill="#663366"/>
<path d="M130.124 40.2037C129.357 40.9702 129.357 42.2071 130.124 42.9677L131.506 44.3497C131.889 44.7329 132.388 44.9245 132.888 44.9245C133.387 44.9245 133.886 44.7329 134.27 44.3497C135.036 43.5832 135.036 42.3463 134.27 41.5857L132.888 40.2037C132.121 39.4373 130.884 39.4373 130.124 40.2037Z" fill="#663366"/>
<path d="M138.044 28.5675H136.087C135.007 28.5675 134.13 29.4443 134.13 30.5243C134.13 31.6043 135.007 32.4811 136.087 32.4811H138.044C139.124 32.4811 140 31.6043 140 30.5243C140 29.4443 139.124 28.5675 138.044 28.5675Z" fill="#663366"/>
<path d="M134.27 16.6934C133.503 15.9269 132.266 15.9269 131.506 16.6934L130.124 18.0754C129.357 18.8418 129.357 20.0787 130.124 20.8394C130.507 21.2226 131.006 21.4142 131.506 21.4142C132.005 21.4142 132.504 21.2226 132.888 20.8394L134.27 19.4574C135.036 18.6909 135.036 17.454 134.27 16.6934Z" fill="#663366"/>
<path d="M16.7781 140.054H83.2806C86.5149 140.054 89.1511 137.424 89.1511 134.184V130.27C89.1511 128.76 88.5646 127.402 87.624 126.356C88.5647 125.317 89.1511 123.953 89.1511 122.443V118.529C89.1511 117.02 88.5646 115.661 87.624 114.616C88.5647 113.576 89.1511 112.212 89.1511 110.702V106.788C89.1511 105.279 88.5646 103.92 87.624 102.875C88.5647 101.835 89.1511 100.471 89.1511 98.9611V95.0474C89.1511 93.5378 88.5646 92.179 87.624 91.1338C88.5647 90.0944 89.1511 88.7299 89.1511 87.2202V81.8143C89.1511 79.4045 87.1885 77.4419 84.7787 77.4419C83.1122 77.4419 81.6141 78.371 80.8651 79.8575L78.2927 85.0078C77.5959 86.4072 77.5437 87.9808 78.0663 89.4092C76.6088 89.8389 75.372 90.8492 74.6635 92.2603L72.4222 96.7429C71.7254 98.1423 71.6732 99.7159 72.1958 101.144C70.7383 101.574 69.5015 102.584 68.7931 103.995L67.6317 106.312V93.0848C68.3111 93.0848 68.9382 92.7306 69.2982 92.1558C69.6582 91.5809 69.6873 90.8609 69.3853 90.2513L62.6438 76.7684C61.6451 74.7708 59.6302 73.5225 57.3947 73.5225H53.9456V69.6089H61.7671C62.4871 69.6089 63.1491 69.214 63.4917 68.5753C63.8343 67.9366 63.7936 67.1701 63.393 66.5661L56.7328 56.5729C55.6411 54.9354 53.8179 53.96 51.8494 53.96H48.075V50.0464H55.8965C56.6165 50.0464 57.2785 49.6515 57.6211 49.0128C57.9637 48.3741 57.923 47.6076 57.5224 47.0036L50.8622 37.0104C49.7996 35.4136 48.0286 34.4614 46.1182 34.4149V30.4838H50.0318C50.7112 30.4838 51.3383 30.1296 51.6983 29.5548C52.0583 28.9799 52.0874 28.2599 51.7854 27.6503L47.6686 19.4165C46.5595 17.1926 44.5562 15.6479 42.2162 15.0847V12.884C42.2162 11.8039 41.3394 10.9272 40.2593 10.9272C39.1793 10.9272 38.3025 11.8039 38.3025 12.884V15.0847C35.9625 15.648 33.9592 17.1926 32.8501 19.4165L28.7333 27.6503C28.4313 28.2542 28.4603 28.9742 28.8204 29.5548C29.1804 30.1296 29.8075 30.4838 30.4869 30.4838H34.4005V34.4149C32.49 34.4613 30.719 35.4136 29.6565 37.0104L22.9963 47.0036C22.5956 47.6017 22.5608 48.374 22.8976 49.0128C23.2402 49.6515 23.9021 50.0464 24.6222 50.0464H32.4437V53.96H28.6693C26.7067 53.96 24.8776 54.9355 23.7859 56.5729L17.1257 66.5661C16.725 67.1642 16.6902 67.9365 17.027 68.5753C17.3696 69.214 18.0315 69.6089 18.7516 69.6089H26.5731V73.5225H23.124C20.8884 73.5225 18.8735 74.7651 17.8749 76.7684L11.1333 90.2513C10.8314 90.8552 10.8604 91.5752 11.2204 92.1558C11.5805 92.7306 12.2076 93.0848 12.8869 93.0848V125.904C11.6966 126.978 10.9301 128.516 10.9301 130.247V134.161C10.9301 137.395 13.5605 140.031 16.8006 140.031L16.7781 140.054ZM81.7823 86.7784L84.3546 81.628C84.4359 81.4712 84.5927 81.3725 84.7669 81.3725C85.0224 81.3725 85.2314 81.5816 85.2314 81.837V87.243C85.2314 88.323 84.3546 89.1998 83.2746 89.1998C82.4326 89.1998 82.003 88.6481 81.852 88.4043C81.7068 88.1662 81.4049 87.5333 81.7765 86.7783L81.7823 86.7784ZM75.9176 98.5193L78.1589 94.0366C78.4435 93.4676 79.0183 93.1134 79.6512 93.1134H83.2803C84.3604 93.1134 85.2372 93.9902 85.2372 95.0702V98.9838C85.2372 100.064 84.3604 100.941 83.2803 100.941H77.4099C76.5679 100.941 76.1383 100.389 75.9873 100.145C75.8421 99.9071 75.5402 99.2741 75.9118 98.5192L75.9176 98.5193ZM70.0472 110.254L72.2885 105.772C72.573 105.203 73.1479 104.848 73.7808 104.848H83.2745C84.3546 104.848 85.2314 105.725 85.2314 106.805V110.719C85.2314 111.799 84.3546 112.676 83.2745 112.676H71.5395C70.6975 112.676 70.2678 112.124 70.1168 111.88C69.9717 111.642 69.6697 111.009 70.0414 110.254L70.0472 110.254ZM67.9161 116.584H83.2805C84.3605 116.584 85.2373 117.46 85.2373 118.54V122.454C85.2373 123.534 84.3605 124.411 83.2805 124.411H65.6745C64.8326 124.411 64.4029 123.859 64.2519 123.615C64.1067 123.377 63.8048 122.744 64.1764 121.989L66.4177 117.507C66.7023 116.938 67.2771 116.583 67.91 116.583L67.9161 116.584ZM33.6347 26.6108L36.3348 21.2049C37.078 19.7126 38.5819 18.7894 40.2484 18.7894C41.9149 18.7894 43.413 19.7184 44.162 21.2049L46.8621 26.6108H33.6347ZM42.2052 30.5245V34.4381H38.2916V30.5245H42.2052ZM28.252 46.1668L32.8857 39.2163C33.2515 38.6704 33.8554 38.3453 34.5116 38.3453H45.9738C46.6299 38.3453 47.2396 38.6704 47.5997 39.2163L52.2334 46.1668H28.2459H28.252ZM44.1619 50.0804V53.994H36.3404V50.0804H44.1619ZM22.3878 65.7287L27.0215 58.7782C27.3873 58.2323 27.9912 57.9072 28.6474 57.9072H51.8441C52.5002 57.9072 53.1099 58.2323 53.47 58.7782L58.1037 65.7287H22.3878ZM50.0276 69.6365V73.5501H30.4713V69.6365H50.0276ZM21.3606 78.5438C21.6916 77.8761 22.3652 77.4638 23.1085 77.4638H57.3899C58.1389 77.4638 58.8067 77.8761 59.1377 78.5438L64.4623 89.199H16.0295L21.3541 78.5438H21.3606ZM60.3513 124.405H59.4454C59.6661 123.79 59.8054 123.139 59.8054 122.448V95.0641C59.8054 94.3731 59.6661 93.7228 59.4454 93.1073H63.7191V114.592C63.4171 114.94 63.1384 115.323 62.9236 115.753L60.6822 120.235C60.0203 121.554 59.9216 123.04 60.3513 124.405ZM55.8976 95.0647V122.449C55.8976 123.529 55.0208 124.406 53.9408 124.406H26.5567C25.4766 124.406 24.5999 123.529 24.5999 122.449V95.0647C24.5999 93.9847 25.4766 93.1079 26.5567 93.1079H53.9408C55.0208 93.1079 55.8976 93.9847 55.8976 95.0647ZM21.0528 124.405H16.7791V93.1129H21.0528C20.8321 93.7284 20.6928 94.3788 20.6928 95.0697V122.454C20.6928 123.145 20.8321 123.795 21.0528 124.411V124.405ZM14.8223 130.275C14.8223 129.195 15.6991 128.319 16.7791 128.319H83.2817C84.3617 128.319 85.2385 129.195 85.2385 130.275V134.189C85.2385 135.269 84.3617 136.146 83.2817 136.146L16.7791 136.14C15.6991 136.14 14.8223 135.263 14.8223 134.183V130.27V130.275Z" fill="#663366"/>
<path d="M134.13 124.406H133.584C134.014 123.041 133.915 121.561 133.253 120.237L131.012 115.754C130.303 114.343 129.067 113.333 127.609 112.903C128.132 111.475 128.085 109.901 127.383 108.502L125.141 104.019C124.433 102.608 123.196 101.598 121.739 101.168C122.261 99.7395 122.215 98.166 121.512 96.7666L119.271 92.2839C118.847 91.4304 118.202 90.7511 117.459 90.2284C118.359 88.6142 118.429 86.6922 117.598 85.0257L115.02 79.8753C114.271 78.383 112.773 77.4598 111.112 77.4598C108.703 77.4598 106.74 79.4224 106.74 81.8321V87.2381C106.74 88.289 107.042 89.2588 107.524 90.1123C105.881 91.1517 104.783 92.975 104.783 95.0595V98.9731C104.783 100.483 105.37 101.842 106.31 102.887C105.37 103.926 104.783 105.291 104.783 106.8V110.714C104.783 112.224 105.37 113.582 106.31 114.628C105.37 115.667 104.783 117.032 104.783 118.541V122.455C104.783 123.965 105.37 125.323 106.31 126.369C105.37 127.408 104.783 128.772 104.783 130.282V134.196C104.783 137.43 107.414 140.066 110.654 140.066H134.124C137.358 140.066 139.994 137.436 139.994 134.196V130.282C139.994 127.048 137.364 124.412 134.124 124.412L134.13 124.406ZM110.66 81.8373C110.66 81.5819 110.869 81.3728 111.124 81.3728C111.299 81.3728 111.461 81.4715 111.537 81.6283L114.109 86.7787C114.486 87.5335 114.184 88.1665 114.033 88.4046C113.888 88.6427 113.453 89.2001 112.611 89.2001C111.531 89.2001 110.654 88.3233 110.654 87.2433V81.8374L110.66 81.8373ZM108.703 95.0647C108.703 93.9847 109.58 93.1079 110.66 93.1079H114.289C114.928 93.1079 115.497 93.4621 115.781 94.0311L118.023 98.5138C118.4 99.2687 118.098 99.9016 117.947 100.14C117.802 100.378 117.366 100.935 116.524 100.935H110.654C109.574 100.935 108.697 100.058 108.697 98.9784V95.0648L108.703 95.0647ZM108.703 106.8C108.703 105.72 109.58 104.843 110.66 104.843H120.154C120.792 104.843 121.361 105.197 121.646 105.766L123.887 110.249C124.265 111.004 123.963 111.637 123.812 111.875C123.667 112.113 123.231 112.67 122.389 112.67H110.654C109.574 112.67 108.697 111.794 108.697 110.713V106.8L108.703 106.8ZM108.703 118.541C108.703 117.461 109.58 116.584 110.66 116.584H126.024C126.663 116.584 127.232 116.938 127.516 117.507L129.758 121.99C130.135 122.745 129.833 123.378 129.682 123.616C129.537 123.854 129.102 124.411 128.26 124.411H110.654C109.574 124.411 108.697 123.534 108.697 122.454V118.541L108.703 118.541ZM136.087 134.183C136.087 135.263 135.21 136.14 134.13 136.14H110.66C109.58 136.14 108.703 135.263 108.703 134.183V130.269C108.703 129.189 109.58 128.313 110.66 128.313H134.13C135.21 128.313 136.087 129.189 136.087 130.269V134.183Z" fill="#663366"/>
<path d="M46.1133 97.0218H34.3783C31.144 97.0218 28.5078 99.6521 28.5078 102.892C28.5078 106.127 31.1382 108.763 34.3783 108.763H46.1133C49.3476 108.763 51.9838 106.132 51.9838 102.892C51.9838 99.6579 49.3534 97.0218 46.1133 97.0218ZM46.1133 104.849H34.3783C33.2982 104.849 32.4214 103.972 32.4214 102.892C32.4214 101.812 33.2982 100.935 34.3783 100.935H46.1133C47.1934 100.935 48.0702 101.812 48.0702 102.892C48.0702 103.972 47.1934 104.849 46.1133 104.849Z" fill="#663366"/>
<path d="M44.1621 110.714H36.3406C35.2606 110.714 34.3838 111.591 34.3838 112.671C34.3838 113.751 35.2606 114.627 36.3406 114.627H44.1621C45.2421 114.627 46.1189 113.751 46.1189 112.671C46.1189 111.591 45.2421 110.714 44.1621 110.714Z" fill="#663366"/>
<path d="M42.2054 116.584H38.2918C37.2118 116.584 36.335 117.461 36.335 118.541C36.335 119.621 37.2118 120.498 38.2918 120.498H42.2054C43.2854 120.498 44.1622 119.621 44.1622 118.541C44.1622 117.461 43.2854 116.584 42.2054 116.584Z" fill="#663366"/>
</svg>
