<svg width="150" height="150" viewBox="0 0 150 150" fill="none" xmlns="http://www.w3.org/2000/svg">
<mask id="mask0_980_1097" style="mask-type:luminance" maskUnits="userSpaceOnUse" x="5" y="5" width="140" height="140">
<path d="M5 5H145V145H5V5Z" fill="white"/>
</mask>
<g mask="url(#mask0_980_1097)">
<path d="M51.8047 142.953C51.8047 136.975 56.6508 132.129 62.6287 132.129H87.3693C93.3475 132.129 98.1934 136.975 98.1934 142.953H51.8047Z" stroke="#663366" stroke-width="4.10156" stroke-miterlimit="10" stroke-linecap="round" stroke-linejoin="round"/>
<path d="M80.4122 114.299V132.125H69.5879V114.299" stroke="#663366" stroke-width="4.10156" stroke-miterlimit="10" stroke-linecap="round" stroke-linejoin="round"/>
<path d="M127.776 114.305H136.619C140.115 114.305 142.949 111.471 142.949 107.975C142.949 104.479 140.115 101.645 136.619 101.645H13.3809C9.88496 101.645 7.05078 104.479 7.05078 107.975C7.05078 111.471 9.88496 114.305 13.3809 114.305H116.854" stroke="#663366" stroke-width="4.10156" stroke-miterlimit="10" stroke-linecap="round" stroke-linejoin="round"/>
<path d="M127.491 83.6981H121.403C116.726 83.6981 112.886 87.2766 112.467 91.8443V91.8479V93.8443C112.467 93.8607 112.454 93.8741 112.437 93.8741H109.55C108.23 93.8741 107.024 93.2227 106.208 92.187C104.303 89.7725 101.061 87.098 94.5809 87.098H64.3562C62.7153 87.098 61.0766 87.212 59.4515 87.4395L23.6419 92.8755C23.6296 92.8768 23.6175 92.8711 23.6121 92.8602C22.1259 90.0779 20.2206 85.5222 19.4766 84.2034C18.1327 81.8207 14.0918 82.309 14.0918 85.9739V97.3968C14.0918 99.745 15.9955 101.648 18.3438 101.648H100.05H127.707C132.463 101.648 136.355 97.9496 136.663 93.2717C137.009 88.0127 132.761 83.6981 127.491 83.6981Z" stroke="#663366" stroke-width="4.10156" stroke-miterlimit="10" stroke-linecap="round" stroke-linejoin="round"/>
<path d="M95.406 101.648H63.8743C61.7702 101.648 60.0645 99.943 60.0645 97.8386C60.0645 95.7348 61.7702 94.0291 63.8743 94.0291H95.406C97.5098 94.0291 99.2155 95.7348 99.2155 97.8386C99.2155 99.943 97.5098 101.648 95.406 101.648Z" stroke="#663366" stroke-width="4.10156" stroke-miterlimit="10" stroke-linecap="round" stroke-linejoin="round"/>
<path d="M29.8828 12.5156H40.2734" stroke="#663366" stroke-width="4.10156" stroke-miterlimit="10" stroke-linecap="round" stroke-linejoin="round"/>
<path d="M40 31.2578H12.5195C9.49914 31.2578 7.05078 28.8095 7.05078 25.7891V17.9821C7.05078 14.9618 9.49914 12.5134 12.5195 12.5134H18.6719" stroke="#663366" stroke-width="4.10156" stroke-miterlimit="10" stroke-linecap="round" stroke-linejoin="round"/>
<path d="M109.727 12.5134H137.48C140.501 12.5134 142.949 14.9618 142.949 17.9821V25.7891C142.949 28.8095 140.501 31.2578 137.48 31.2578H109.727" stroke="#663366" stroke-width="4.10156" stroke-miterlimit="10" stroke-linecap="round" stroke-linejoin="round"/>
<path d="M47.7209 56.6484C43.6327 56.6484 40.3184 53.3344 40.3184 49.2462V14.4568C40.3184 10.3686 43.6327 7.05453 47.7209 7.05453H102.277C106.365 7.05453 109.679 10.3686 109.679 14.4568V49.2462C109.679 53.3344 106.365 56.6484 102.277 56.6484H47.7209Z" stroke="#663366" stroke-width="4.10156" stroke-miterlimit="10" stroke-linecap="round" stroke-linejoin="round"/>
<path d="M102.276 49.2422H47.7207V14.453H102.276V49.2422Z" stroke="#663366" stroke-width="4.10156" stroke-miterlimit="10" stroke-linecap="round" stroke-linejoin="round"/>
<path d="M71.7129 23.7031H93.1796" stroke="#663366" stroke-width="4.10156" stroke-miterlimit="10" stroke-linecap="round" stroke-linejoin="round"/>
<path d="M71.7129 31.8516H93.1796" stroke="#663366" stroke-width="4.10156" stroke-miterlimit="10" stroke-linecap="round" stroke-linejoin="round"/>
<path d="M71.7129 39.9922H93.1796" stroke="#663366" stroke-width="4.10156" stroke-miterlimit="10" stroke-linecap="round" stroke-linejoin="round"/>
<path d="M56.8184 23.7031H61.5185" stroke="#663366" stroke-width="4.10156" stroke-miterlimit="10" stroke-linecap="round" stroke-linejoin="round"/>
<path d="M56.8184 31.8516H61.5185" stroke="#663366" stroke-width="4.10156" stroke-miterlimit="10" stroke-linecap="round" stroke-linejoin="round"/>
<path d="M17.9355 31.2422V34.9336C17.9355 38.4825 20.8124 41.3594 24.3613 41.3594C27.9103 41.3594 30.7871 38.4825 30.7871 34.9336V31.2422H17.9355Z" stroke="#663366" stroke-width="4.10156" stroke-miterlimit="10" stroke-linecap="round" stroke-linejoin="round"/>
<path d="M24.3613 41.3646V62.6998L55.5904 68.8281" stroke="#663366" stroke-width="4.10156" stroke-miterlimit="10" stroke-linecap="round" stroke-linejoin="round"/>
<path d="M65.459 74.1672L71.0491 80.1875" stroke="#663366" stroke-width="4.10156" stroke-miterlimit="10" stroke-linecap="round" stroke-linejoin="round"/>
<path d="M67.0176 69.8086C67.0176 72.9045 64.5077 75.4141 61.4121 75.4141C58.3163 75.4141 55.8066 72.9045 55.8066 69.8086C55.8066 66.7127 58.3163 64.2031 61.4121 64.2031C64.5077 64.2031 67.0176 66.7127 67.0176 69.8086Z" stroke="#663366" stroke-width="4.10156" stroke-miterlimit="10" stroke-linecap="round" stroke-linejoin="round"/>
<path d="M132.062 31.2422V34.9336C132.062 38.4825 129.186 41.3594 125.637 41.3594C122.088 41.3594 119.211 38.4825 119.211 34.9336V31.2422H132.062Z" stroke="#663366" stroke-width="4.10156" stroke-miterlimit="10" stroke-linecap="round" stroke-linejoin="round"/>
<path d="M125.638 41.3597V62.6949L94.3828 68.8281" stroke="#663366" stroke-width="4.10156" stroke-miterlimit="10" stroke-linecap="round" stroke-linejoin="round"/>
<path d="M84.7661 73.9783L79.0762 80.1875" stroke="#663366" stroke-width="4.10156" stroke-miterlimit="10" stroke-linecap="round" stroke-linejoin="round"/>
<path d="M82.9824 69.8086C82.9824 72.9045 85.4923 75.4141 88.5879 75.4141C91.6837 75.4141 94.1934 72.9045 94.1934 69.8086C94.1934 66.7127 91.6837 64.2031 88.5879 64.2031C85.4923 64.2031 82.9824 66.7127 82.9824 69.8086Z" stroke="#663366" stroke-width="4.10156" stroke-miterlimit="10" stroke-linecap="round" stroke-linejoin="round"/>
</g>
</svg>
