<svg width="150" height="150" viewBox="0 0 150 150" fill="none" xmlns="http://www.w3.org/2000/svg">
<path d="M10.9445 77.9541C27.0718 87.2454 26.4796 87.0325 27.223 87.0325C28.6719 87.0325 28.9365 85.9681 30.9398 82.4996L34.9464 85.1166C31.1162 90.4385 34.707 96.0483 39.646 96.5116C37.9199 101.408 41.9895 106.404 47.1931 105.678C47.5207 110.549 52.7242 113.754 57.3482 111.363C59.2381 116.684 66.319 117.649 69.6074 113.091L70.628 111.663C75.819 113.717 85.4071 116.797 88.6326 112.001C89.5397 110.661 89.9303 109.109 89.8169 107.594C93.5968 107.656 96.7466 104.814 96.923 100.957C101.119 102.009 105.276 99.1037 105.566 94.6834C110.921 96.3488 116.062 91.3025 114.247 85.868L118.506 81.5729C121.152 86.1309 121.315 87.0325 122.764 87.0325C123.546 87.0325 122.941 87.2203 139.055 77.9541C139.963 77.4407 140.265 76.2887 139.748 75.3871L116.326 34.9662C115.81 34.0647 114.65 33.7516 113.743 34.2775L98.3971 43.1055C97.49 43.6189 97.1876 44.7709 97.7042 45.6725L100.854 51.107C99.0019 51.6956 97.0112 51.658 95.1465 50.9943C79.4476 45.2718 84.3992 45.7727 65.9284 48.5651C62.4384 49.091 59.4397 51.1321 57.6632 54.1624C57.323 54.6132 57.8522 54.5005 54.7023 54.5005C52.9888 54.5005 52.4722 53.9495 48.8688 51.5328L52.2706 45.6725C52.7872 44.7709 52.4848 43.6314 51.5777 43.1055C35.1228 33.6389 35.8788 33.8017 34.7952 34.0897C34.3165 34.2149 33.9007 34.528 33.6487 34.9662L10.2516 75.3871C9.73498 76.2887 10.0374 77.4282 10.9445 77.9541ZM48.075 45.4221L26.53 82.5997L14.4598 75.65L35.9922 38.4724L48.0624 45.4221H48.075ZM60.9138 56.1158C62.0982 54.0372 64.1393 52.6347 66.5206 52.2716C84.6008 49.5418 78.9688 49.091 93.8739 54.5255C96.7844 55.5774 99.9469 55.5273 102.782 54.4128L116.565 78.2045L112.093 82.6999C111.513 82.2241 111.929 82.5246 80.002 62.2766C77.8223 60.8992 75.1512 60.5235 72.6691 61.2373C68.1711 62.5521 69.0783 62.1263 63.5345 68.6378C61.5564 70.9668 58.3058 71.8559 55.4205 70.8667L51.4517 69.076C51.1871 68.9383 60.4855 56.8922 60.9264 56.1158H60.9138ZM113.995 38.4724L135.54 75.6375L123.47 82.5872C123.117 81.9736 119.741 76.1384 101.925 45.4095L113.995 38.4599V38.4724ZM48.3522 66.6843C46.8655 68.6753 47.6214 71.5053 49.8641 72.507C53.3164 74.0598 53.9338 74.3478 54.0598 74.3853C58.4444 75.9255 63.3959 74.5982 66.3946 71.067C71.6485 64.8937 70.3256 65.8328 73.7149 64.8436C75.1512 64.4304 76.7009 64.6433 77.9609 65.4447L109.422 85.4046C110.883 86.3939 111.274 88.3849 110.291 89.8499C109.296 91.315 107.318 91.6907 105.843 90.7014L86.4655 80.7465C84.248 79.607 82.5093 82.9503 84.7268 84.0898L101.383 92.6423C103.084 95.5975 99.6319 98.7906 96.8348 96.8998C96.608 96.7495 96.8348 96.8622 80.8335 89.875C78.5404 88.8732 77.0285 92.3168 79.309 93.3185L92.7526 99.2038C94.3653 102.222 90.8627 105.152 88.1664 103.336C87.8892 103.148 88.179 103.286 75.7182 98.465C74.3574 97.9391 72.9211 99.0786 73.1731 100.531C72.0265 98.7906 70.2248 97.6386 67.9695 97.4382C69.5318 92.8928 66.1048 88.1344 61.1784 88.2597C61.7076 81.9486 54.2235 78.3297 49.5618 82.5371C48.2136 79.6946 45.1646 78.1544 42.1155 78.6678C39.6964 79.0685 38.4239 80.3207 37.1387 82.0989L32.8171 79.2814L46.9789 54.8386C49.9523 56.8296 51.5399 58.2571 54.6141 58.2946L48.3396 66.7219L48.3522 66.6843ZM77.7593 110.135C76.4489 109.835 74.4456 109.109 72.8959 108.508C74.5338 106.216 74.685 103.724 73.7401 101.533C74.1306 101.909 73.7401 101.683 85.4323 106.216C86.2387 107.293 86.2891 108.758 85.5079 109.898C84.9661 110.712 82.6101 111.262 77.7593 110.123V110.135ZM68.3853 108.332C66.6718 110.724 66.1426 111.926 64.4417 112.214C61.4178 112.702 59.7547 109.134 61.2918 107.218L64.7441 102.397C66.5458 99.9552 70.5272 101.17 70.5272 104.288C70.5272 105.853 69.5318 106.567 68.3727 108.32L68.3853 108.332ZM56.756 107.08C55.7229 108.52 53.7322 108.846 52.2958 107.819C50.8091 106.767 50.5445 104.764 51.5525 103.349L58.7719 93.281C59.7925 91.866 61.7706 91.5028 63.2321 92.5422C64.7315 93.6065 64.9709 95.6226 63.9755 97L56.756 107.055V107.08ZM43.6274 96.9374C52.1824 85.0415 51.9682 84.7785 53.7322 84.4905C55.6851 84.1775 57.449 85.6801 57.449 87.6461C57.449 89.011 57.1844 89.0235 52.3462 95.7728C48.7176 100.807 48.4656 101.671 46.7395 101.959C43.9928 102.409 41.9139 99.3165 43.6148 96.9374H43.6274ZM37.7057 87.7463C40.6666 83.6391 41.0194 82.6123 42.7581 82.3368C45.4543 81.886 47.5459 84.8412 45.9079 87.3205L42.9093 91.4778C41.8887 92.8928 39.898 93.2559 38.4365 92.2041C37.0127 91.2023 36.6851 89.1487 37.7057 87.7463Z" fill="#663366"/>
</svg>
