<svg width="150" height="150" viewBox="0 0 150 150" fill="none" xmlns="http://www.w3.org/2000/svg">
<path d="M133.743 21.7939H131.189V21.5778C131.189 20.1834 130.638 18.8519 129.647 17.8689C128.663 16.8859 127.33 16.3281 125.934 16.3281H124.524V15.2405C124.524 13.7486 123.889 12.3334 122.779 11.3364C121.663 10.3464 120.183 9.86537 118.697 10.0327C112.89 10.695 107.014 11.8174 101.333 12.9051C92.5256 14.8712 83.5578 16.0214 74.534 16.3282C65.5172 16.0215 56.5429 14.8711 47.7349 12.9051C41.9633 11.8175 36.0871 10.7439 30.2807 10.0327C28.8011 9.87234 27.3217 10.3534 26.219 11.3434C25.1094 12.3403 24.4743 13.7557 24.4743 15.2406V16.3282H23.0785C20.1822 16.3282 17.8303 18.6776 17.8303 21.5778V21.794H15.2551C12.3589 21.794 10.0139 24.1295 10 27.0227V127.751C10 130.574 12.2402 132.889 15.0597 132.979C24.3346 133.551 33.5671 134.701 42.6967 136.43C53.179 138.494 63.8215 139.686 74.5 140C85.1778 139.686 95.8214 138.494 106.303 136.43C115.432 134.702 124.664 133.551 133.94 132.979C136.76 132.889 139 130.574 139 127.751V27.0227C138.986 24.1295 136.64 21.7939 133.743 21.7939ZM47.7004 122.522C41.7335 121.379 35.571 120.2 29.4788 119.559C28.1459 119.426 27.1269 118.297 27.1339 116.958V69.8927C33.8755 70.5759 40.5683 71.6007 47.1975 72.9812C55.7537 74.8566 64.4493 76.0069 73.1944 76.4252V125.931C64.6172 125.512 56.09 124.376 47.7004 122.522ZM75.8037 76.4252C84.5692 76.0139 93.2788 74.8566 101.849 72.9812C108.479 71.6008 115.179 70.5759 121.912 69.8927V116.958C121.947 118.318 120.928 119.475 119.574 119.615C113.482 120.256 107.319 121.399 101.353 122.578C92.9433 124.432 84.401 125.569 75.8026 125.987L75.8037 76.4252ZM101.849 15.4723C107.474 14.3987 113.301 13.2762 119.003 12.6349C119.75 12.5303 120.497 12.7743 121.041 13.2972C121.613 13.7782 121.934 14.4963 121.913 15.2422V67.2518C114.99 67.942 108.109 68.9947 101.298 70.4099C92.8951 72.2575 84.3458 73.3938 75.7474 73.7981V18.9169C84.5339 18.5125 93.2654 17.3617 101.849 15.4723ZM28.046 13.297C28.5066 12.8648 29.1138 12.6208 29.7419 12.6208H30.0838C35.7856 13.2622 41.606 14.4055 47.2381 15.4582H47.2311C55.8013 17.3406 64.518 18.4908 73.2834 18.9022V73.7977C64.6714 73.3933 56.1152 72.2569 47.6992 70.4095C40.9017 69.0012 34.0415 67.9416 27.1318 67.2514V15.2419C27.1248 14.4889 27.4597 13.771 28.046 13.297ZM20.5228 21.5794C20.5228 20.1293 21.7022 18.9579 23.1539 18.9579H24.4729V116.959C24.459 119.636 26.4828 121.895 29.1558 122.167C35.1577 122.808 41.2711 123.951 47.1612 125.095C56.143 127.096 65.2988 128.253 74.498 128.539C83.7101 128.211 92.8661 127.019 101.849 124.969C107.746 123.847 113.853 122.683 119.84 122.041C122.464 121.769 124.474 119.587 124.523 116.959V18.9579H125.919C126.61 18.9579 127.28 19.2298 127.775 19.7248C128.264 20.2128 128.543 20.8821 128.543 21.5794V122.523C128.557 123.925 127.461 125.082 126.059 125.152C117.949 125.723 109.895 126.86 101.939 128.54C93.0064 130.325 83.6053 132.109 74.499 132.109C65.3844 132.109 56.0809 130.325 47.0585 128.54C39.1026 126.86 31.0348 125.723 22.9179 125.152C21.5221 125.082 20.4265 123.925 20.4335 122.523L20.5228 21.5794ZM136.366 127.751C136.338 129.138 135.236 130.268 133.847 130.323C124.453 130.909 115.109 132.101 105.869 133.893C95.5327 135.942 85.0367 137.135 74.4975 137.462C63.9594 137.135 53.4638 135.943 43.1265 133.893C33.8864 132.101 24.5423 130.909 15.1483 130.323C13.7386 130.268 12.6288 129.11 12.6288 127.702V27.0239C12.6358 25.5808 13.8083 24.4166 15.253 24.4166H17.8073V122.578C17.8073 125.374 19.9988 127.681 22.7903 127.828C30.7813 128.406 38.7233 129.55 46.554 131.251C55.7382 133.314 65.09 134.507 74.4982 134.82C83.9058 134.507 93.2576 133.315 102.443 131.251C110.273 129.55 118.215 128.406 126.206 127.828C128.998 127.681 131.189 125.374 131.189 122.578V24.4166H133.743C135.188 24.4166 136.36 25.5809 136.368 27.0239L136.366 127.751ZM32.3876 51.1171C33.4414 52.9018 35.6189 53.7385 38.3545 53.7385C39.9527 53.7106 41.5368 53.5015 43.0931 53.1111C44.5378 57.9285 46.9315 61.3725 50.2395 61.3725V61.3795C50.6722 61.3795 51.1049 61.3098 51.5237 61.1843C52.1308 61.5886 52.8427 61.8047 53.5754 61.8047C55.048 61.8187 56.3879 60.9751 57.0021 59.6436C57.6232 58.312 57.3999 56.7364 56.4368 55.6279C56.7857 54.8192 57.0928 53.9826 57.3441 53.1321L59.1307 53.5086C60.0589 53.648 61.0011 53.7247 61.9362 53.7386C64.9023 53.7386 67.0098 52.8253 67.9938 51.1172C69.6199 48.3007 67.8333 44.515 64.4206 40.834C64.7277 40.5133 64.9929 40.1926 65.279 39.8719C65.5931 39.9555 65.9211 40.0043 66.2421 40.0113C67.8403 40.0113 69.257 39.0074 69.7805 37.5086C70.3109 36.0027 69.8293 34.3365 68.5871 33.3395C68.6988 32.3775 68.4964 31.4084 68.0148 30.5718C66.7307 28.3408 63.5832 27.5041 59.0818 28.1805C58.4956 28.2712 57.8675 28.3967 57.2952 28.5361C55.8296 23.7326 53.4358 20.2886 50.1488 20.2886C46.8618 20.2886 44.5238 23.7326 43.0024 28.55V28.557C42.0044 28.313 40.9994 28.1387 39.9805 28.0411C39.3315 26.347 37.5588 25.364 35.7791 25.6986C33.9995 26.0402 32.7154 27.6019 32.7294 29.4145C32.7154 29.5818 32.7154 29.7491 32.7294 29.9094C32.534 30.1116 32.3735 30.3347 32.2478 30.5717C30.6217 33.3743 32.4084 37.1739 35.821 40.8341C32.548 44.5151 30.7616 48.2238 32.3876 51.1171ZM54.0788 54.345C53.8903 54.338 53.7089 54.338 53.5274 54.345C51.4546 54.345 49.7727 56.0251 49.7727 58.0958C49.7518 58.3119 49.7518 58.535 49.7727 58.7511C48.2513 58.4444 46.6671 56.1297 45.5365 52.4697C47.0998 51.9677 48.6282 51.3751 50.1147 50.6849C51.6012 51.3682 53.1296 51.9677 54.6859 52.4697C54.5393 53.132 54.3091 53.7593 54.0788 54.345ZM44.1269 40.8338C44.1269 39.6347 44.1269 38.4774 44.2664 37.3689C45.1807 36.7275 46.1577 36.121 47.1975 35.5842C48.2304 35.0473 49.2493 34.4617 50.2542 33.9597C51.2732 34.4617 52.306 34.9776 53.3599 35.5842C54.4137 36.1907 55.3629 36.7972 56.291 37.3689C56.3817 38.4774 56.4306 39.6347 56.4306 40.8338C56.4306 42.033 56.4306 43.1902 56.291 44.4033C55.3628 45.0308 54.3997 45.6513 53.3599 46.1881C52.327 46.7249 51.2871 47.3314 50.2682 47.8125C49.2493 47.3315 48.2164 46.7807 47.1974 46.1881C46.1784 45.6025 45.1805 44.975 44.2662 44.4033C44.1267 43.1903 44.1269 42.033 44.1269 40.8338ZM41.5377 42.2979C40.9305 41.8168 40.3583 41.3358 39.7511 40.8338C40.2885 40.3528 40.8607 39.8717 41.5377 39.3698V40.8338C41.5377 41.3149 41.426 41.8168 41.447 42.2979H41.5377ZM44.5526 33.9458C44.6573 33.1789 44.8038 32.4469 44.9644 31.7357C45.6413 31.9518 46.3601 32.2168 47.0929 32.4887L45.8088 33.1998L44.5526 33.9458ZM53.2902 32.4817C54.002 32.1959 54.7208 31.9449 55.4187 31.7288C55.5792 32.4259 55.7049 33.1719 55.8305 33.9388L54.5813 33.1859L53.2902 32.4817ZM58.9362 39.3C59.5434 39.802 60.1156 40.283 60.7228 40.7641C60.1854 41.266 59.6132 41.7471 58.9362 42.2281V40.7641C58.9362 40.2621 58.9571 39.8717 58.9362 39.3ZM55.8305 47.5963C55.7049 48.3841 55.5793 49.1161 55.4188 49.8272C54.7209 49.5971 54.009 49.3462 53.2763 49.0603L54.5813 48.3632L55.8305 47.5963ZM45.8088 48.3632L47.0929 49.0603C46.3601 49.3462 45.6483 49.5971 44.9643 49.8133C44.8038 49.1161 44.6572 48.3701 44.5526 47.6032L45.8088 48.3632ZM65.7258 49.7226C65.0489 50.9218 62.7388 51.3261 59.5426 50.8451L57.9374 50.5244C58.2864 48.9279 58.5446 47.3174 58.7051 45.6861C60.0381 44.731 61.3152 43.6991 62.5295 42.6045C65.3141 45.6861 66.5494 48.405 65.7259 49.7923L65.7258 49.7226ZM59.5426 30.7668C60.3521 30.6343 61.1756 30.5716 61.9922 30.5716C63.9044 30.5716 65.2443 31.0177 65.7469 31.8753C65.8516 32.0844 65.9284 32.3075 65.9563 32.5376C64.0092 32.677 62.4947 34.2944 62.4947 36.2465C62.4808 36.9924 62.7111 37.7245 63.1368 38.338L62.5506 39.0143H62.5436C61.3293 37.9127 60.0522 36.8879 58.7262 35.9258C58.5657 34.2944 58.3074 32.677 57.9515 31.0734L59.5426 30.7668ZM50.1838 22.9167C51.8099 22.9167 53.5407 25.329 54.755 29.2331C53.1987 29.7421 51.6703 30.3347 50.1838 31.0179C48.6973 30.3347 47.1689 29.7351 45.6056 29.2331C46.8269 25.329 48.5576 22.9167 50.1838 22.9167ZM34.4393 32.4819C35.0674 32.9211 35.8072 33.1582 36.5679 33.1582C38.1661 33.1861 39.6037 32.1891 40.1411 30.6833C40.9297 30.7809 41.7114 30.9203 42.4791 31.1085C42.1371 32.6981 41.8858 34.3086 41.7323 35.9259C40.3993 36.8811 39.1292 37.9059 37.9079 38.9936C35.4234 36.3932 34.1951 33.946 34.4393 32.4819ZM37.8521 42.6745C39.0664 43.776 40.3435 44.8078 41.6765 45.763C41.83 47.3874 42.0813 49.0048 42.4302 50.5943C38.4313 51.5076 35.4653 51.2008 34.6557 49.7926C33.8531 48.3843 35.0674 45.6862 37.8521 42.6745ZM81.3665 38.1428L83.7393 39.9276C83.3764 41.8239 83.3764 43.7758 83.7393 45.6723L81.3665 47.4571H81.3595C80.0405 48.4331 79.6636 50.2458 80.4871 51.668L82.1691 54.5613H82.1621C82.9856 55.9835 84.7512 56.5622 86.2518 55.8999L88.9317 54.7216C90.4112 55.9696 92.1001 56.9387 93.9217 57.594L94.2427 60.5221C94.4242 62.1604 95.806 63.3945 97.46 63.3945H100.803H100.796C102.45 63.4014 103.839 62.1605 104.013 60.5221L104.334 57.594C106.156 56.9387 107.845 55.9696 109.317 54.7216L112.018 55.8999C113.526 56.5622 115.291 55.9835 116.108 54.5613L117.769 51.668C118.592 50.2458 118.216 48.4332 116.897 47.4571L114.524 45.6723H114.517C114.88 43.776 114.88 41.824 114.517 39.9276L116.89 38.1428H116.897C118.209 37.1668 118.585 35.3611 117.769 33.9458L116.108 31.0525C115.298 29.6233 113.526 29.0377 112.018 29.7L109.317 30.8782C107.845 29.6303 106.156 28.6542 104.334 28.0058L104.013 25.0219C103.832 23.3836 102.45 22.1495 100.796 22.1495H97.46C95.813 22.1565 94.4312 23.3905 94.2427 25.0219L93.9217 27.95C92.1003 28.6053 90.4114 29.5744 88.9317 30.8224L86.2518 29.6441C84.7513 28.9818 82.9857 29.5535 82.1621 30.9827L80.4871 33.9458C79.6706 35.361 80.0475 37.1667 81.3595 38.1428L81.3665 38.1428ZM82.7623 35.2495L84.4442 32.3424H84.4302C84.6047 32.0844 84.9537 32.0077 85.2189 32.1611L89.469 33.9458L90.0971 33.3393C91.6115 31.8892 93.447 30.8225 95.4569 30.2369L96.2944 29.9859L96.7969 25.3427C96.8318 25.0359 97.097 24.8059 97.404 24.8059H100.747C101.054 24.8059 101.312 25.0359 101.354 25.3427L101.857 29.9859L102.715 30.2369H102.708C104.718 30.8295 106.553 31.8892 108.068 33.3393L108.696 33.9458L113.072 32.1611C113.351 32.0286 113.679 32.1402 113.825 32.4121L115.591 35.2495C115.752 35.5144 115.682 35.856 115.431 36.0373L111.662 38.7842L111.878 39.6417C112.374 41.6844 112.374 43.8248 111.878 45.8675L111.662 46.725L115.431 49.4719C115.682 49.6601 115.752 50.0087 115.591 50.2736L113.804 53.1669C113.665 53.4388 113.33 53.5504 113.051 53.4179L108.766 51.6331L108.138 52.2397C106.63 53.6898 104.788 54.7494 102.778 55.3421L101.919 55.5931L101.417 60.2363H101.424C101.389 60.5431 101.124 60.7731 100.817 60.7731H97.4599C97.1459 60.7731 96.8877 60.543 96.8528 60.2363L96.3503 55.5931L95.5128 55.3421C93.5029 54.7565 91.6605 53.6898 90.153 52.2397L89.5249 51.6331L85.2538 53.4179C84.9747 53.5504 84.6327 53.4388 84.4862 53.1669L82.8042 50.2736C82.6437 50.0087 82.7135 49.6601 82.9647 49.4719L86.7334 46.725L86.5171 45.8675H86.524C86.0216 43.8248 86.0216 41.6844 86.524 39.6417L86.7404 38.7842L82.9717 36.0373H82.9647C82.6995 35.87 82.6019 35.5283 82.7554 35.2495L82.7623 35.2495ZM99.1349 50.5943C102.206 50.5943 104.976 48.7467 106.149 45.9163C107.328 43.0789 106.679 39.816 104.509 37.6479C102.331 35.4798 99.0651 34.8314 96.2317 36.0025C93.3913 37.1808 91.5419 39.9415 91.5419 43.0091C91.5419 47.1992 94.9405 50.5943 99.1349 50.5943ZM99.1488 38.108L99.1349 38.101C101.152 38.115 102.959 39.328 103.72 41.1895C104.474 43.051 104.041 45.1913 102.603 46.5995C101.173 48.0078 99.0302 48.419 97.1737 47.6313C95.3242 46.8435 94.1309 45.0239 94.1518 43.0091C94.1518 41.6984 94.6753 40.4296 95.6174 39.5025C96.5526 38.5752 97.8158 38.0593 99.1349 38.0663L99.1488 38.108ZM50.9105 78.1739H50.8965C44.0851 78.1809 38.5649 83.6956 38.5507 90.507C38.5438 93.6372 39.7372 96.656 41.8937 98.9288V99.5354C41.9006 100.937 42.4869 102.268 43.5198 103.209V107.567C43.5267 109.616 44.7829 111.457 46.7021 112.21V113.995C46.7021 115.515 48.0211 117.118 50.9034 117.118C53.7788 117.118 55.1188 115.515 55.1188 113.995V112.21H55.1118C57.024 111.457 58.2801 109.617 58.2801 107.567V102.84C59.1246 101.934 59.5992 100.742 59.5992 99.5006V99.2147C63.1445 95.6939 64.2122 90.3816 62.3069 85.7663C60.4017 81.1511 55.9003 78.1393 50.8964 78.1393L50.9105 78.1739ZM46.8767 104.499H54.5814C54.9304 104.492 55.2863 104.45 55.6353 104.374V105.447L46.13 105.44V104.422C46.3742 104.464 46.6255 104.492 46.8767 104.499ZM53.2554 109.853H48.5027C47.4279 109.846 46.4928 109.114 46.2346 108.069H55.5444C55.2932 109.135 54.351 109.895 53.2554 109.902V109.853ZM50.8826 114.441C49.6474 114.441 49.3263 114.015 49.3124 113.925L49.3054 112.475H52.4668V113.869C52.4738 113.869 52.1109 114.441 50.8826 114.441ZM57.3869 97.6808C57.1148 97.9317 56.9542 98.2873 56.9542 98.6638V99.5004C56.9473 100.804 55.8865 101.864 54.5815 101.871H46.8767C45.5647 101.871 44.5039 100.811 44.5039 99.5004V98.357C44.5039 98.0015 44.3574 97.6599 44.1061 97.4089C42.2218 95.5963 41.1541 93.0864 41.1611 90.4721C41.1332 87.1744 42.7872 84.093 45.5368 82.2804C48.2936 80.4678 51.783 80.1819 54.7979 81.5066C57.8197 82.8381 59.9553 85.599 60.4788 88.8548C61.0022 92.1105 59.8367 95.4012 57.387 97.6111L57.3869 97.6808ZM59.1735 90.5418C59.1735 92.9121 58.1686 95.178 56.4029 96.7675C56.1586 96.9767 55.8446 97.0952 55.5235 97.0882C55.1537 97.0882 54.7977 96.9348 54.5395 96.6629C54.1068 96.1261 54.1557 95.3523 54.6512 94.8782C55.9353 93.7767 56.6611 92.1593 56.6332 90.472C56.6263 87.293 54.0441 84.7203 50.8616 84.7203C50.1986 84.6436 49.6961 84.0789 49.6961 83.4096C49.6961 82.7403 50.1986 82.1756 50.8616 82.0989C53.0879 82.0919 55.2234 82.9703 56.8006 84.546C58.3709 86.1146 59.2572 88.2479 59.2572 90.4719L59.1735 90.5418ZM106.701 111.959V86.9722H106.694C108.125 86.4285 109.081 85.0551 109.088 83.5282V81.0254C109.088 78.9898 107.434 77.3305 105.389 77.3305H92.7778C90.74 77.3444 89.0999 78.9967 89.0999 81.0254V83.5282C89.0999 85.055 90.042 86.4215 91.4727 86.9722V111.959C91.368 114.05 92.1357 116.093 93.5803 117.606C95.025 119.126 97.0279 119.983 99.1286 119.983C101.222 119.983 103.232 119.126 104.677 117.606C106.122 116.093 106.882 114.05 106.785 111.959H106.701ZM94.1528 97.7714H97.1886C97.5654 97.8133 97.9423 97.6948 98.2214 97.4438C98.5076 97.1928 98.6681 96.8303 98.6681 96.4538C98.6681 96.0773 98.5076 95.7218 98.2214 95.4708C97.9423 95.2198 97.5654 95.1013 97.1886 95.1431H94.1528V91.5736H97.1886C97.5654 91.6224 97.9423 91.5039 98.2214 91.2529C98.5076 91.0019 98.6681 90.6394 98.6681 90.2629C98.6681 89.8864 98.5076 89.5309 98.2214 89.2799C97.9423 89.0289 97.5654 88.9104 97.1886 88.9523H94.1528V87.1675H104.161V100.713H94.1528V97.7714ZM91.7591 80.9069V80.9C91.773 80.3701 92.1638 79.9309 92.6873 79.8472V82.7405C92.6454 83.117 92.764 83.4935 93.0153 83.7723C93.2665 84.0512 93.6224 84.2115 93.9993 84.2115C94.3762 84.2115 94.7391 84.0512 94.9903 83.7723C95.2416 83.4935 95.3602 83.117 95.3113 82.7405V79.8333H103.086V83.0473C103.163 83.7096 103.728 84.2116 104.398 84.2116C105.068 84.2116 105.633 83.7096 105.71 83.0473V79.8472C106.24 79.9309 106.631 80.3701 106.638 80.9V83.4027C106.638 83.9953 106.164 84.4694 105.57 84.4694H100.441V81.5483C100.364 80.879 99.7988 80.3771 99.1289 80.3771C98.4589 80.3771 97.8936 80.879 97.8168 81.5483V84.4764L92.7781 84.4694C92.1849 84.4694 91.7033 83.9953 91.7033 83.4027L91.7591 80.9069ZM99.1917 116.854V116.847C96.4071 116.847 94.1529 114.595 94.1529 111.813V103.245H104.161V111.813C104.161 114.588 101.914 116.84 99.136 116.847L99.1917 116.854Z" fill="#663366"/>
</svg>
