<svg width="150" height="150" viewBox="0 0 150 150" fill="none" xmlns="http://www.w3.org/2000/svg">
<path d="M64.698 122.149L41.2526 111.647C32.8055 107.866 22.8951 111.644 19.1113 120.088L75.1781 144.779H127.668" stroke="#663366" stroke-width="4.18867" stroke-miterlimit="10"/>
<path d="M131.855 144.781C139.624 144.781 145 144.781 145 144.781" stroke="#663366" stroke-width="4.18867" stroke-miterlimit="10"/>
<path d="M96.5045 123.548L72.9921 126.23C61.0089 127.247 58.7931 109.977 70.656 107.943C95.5736 104.116 114.639 100.044 131.119 117.8H145" stroke="#663366" stroke-width="4.18867" stroke-miterlimit="10"/>
<path d="M28.9572 73.6953C26.1712 73.6953 23.6589 74.8606 21.8756 76.7279C20.0923 74.8606 17.58 73.6953 14.7939 73.6953C9.38498 73.6953 5 78.0803 5 83.4893C5 93.2832 21.8756 100.917 21.8756 100.917C21.8756 100.917 38.7512 93.2832 38.7512 83.4893C38.7509 78.0803 34.3662 73.6953 28.9572 73.6953Z" stroke="#663366" stroke-width="4.18867" stroke-miterlimit="10"/>
<path d="M42.1463 12.4561C47.6446 8.39871 54.4442 6 61.8051 6C71.2352 6 79.741 9.94573 85.7783 16.265C91.8155 9.94573 100.321 6 109.751 6C128.062 6 142.906 20.8446 142.906 39.1547C142.906 72.3094 85.7783 98.1507 85.7783 98.1507C85.7783 98.1507 28.6504 72.3094 28.6504 39.1547C28.6504 29.7107 32.5989 21.1881 38.9378 15.1536" stroke="#663366" stroke-width="4.18867" stroke-miterlimit="10"/>
<path d="M78.1582 65.3047L85.7782 70.168L93.3983 65.3047" stroke="#663366" stroke-width="4.18867" stroke-miterlimit="10"/>
<path d="M79.671 57.6016L78.1581 65.3045L68.2848 68.2589C64.2374 69.5326 61.4844 73.2851 61.4844 77.5282V84.1343" stroke="#663366" stroke-width="4.18867" stroke-miterlimit="10"/>
<path d="M110.071 84.1343V77.5282C110.071 73.2851 107.318 69.5326 103.271 68.2589L93.3977 65.3045L91.8848 57.6016" stroke="#663366" stroke-width="4.18867" stroke-miterlimit="10"/>
<path d="M99.9482 40.2261C99.9482 48.0527 93.6035 60.0659 85.7769 60.0659C77.9502 60.0659 71.6055 48.0527 71.6055 40.2261C71.6055 32.3994 77.9502 26.0547 85.7769 26.0547C93.6035 26.055 99.9482 32.3994 99.9482 40.2261Z" stroke="#663366" stroke-width="4.18867" stroke-miterlimit="10"/>
<path d="M50.1719 26.3047V43.0594" stroke="#663366" stroke-width="4.18867" stroke-miterlimit="10"/>
<path d="M41.7949 34.6797H58.5496" stroke="#663366" stroke-width="4.18867" stroke-miterlimit="10"/>
<path d="M121.385 26.3047V43.0594" stroke="#663366" stroke-width="4.18867" stroke-miterlimit="10"/>
<path d="M113.008 34.6797H129.762" stroke="#663366" stroke-width="4.18867" stroke-miterlimit="10"/>
<path d="M15.5918 86.4688H19.7805" stroke="#663366" stroke-width="4.18867" stroke-miterlimit="10"/>
<path d="M23.9707 86.4688H28.1594" stroke="#663366" stroke-width="4.18867" stroke-miterlimit="10"/>
</svg>
