<svg width="150" height="150" viewBox="0 0 150 150" fill="none" xmlns="http://www.w3.org/2000/svg">
<mask id="path-1-outside-1_140_1910" maskUnits="userSpaceOnUse" x="9" y="9" width="132" height="132" fill="black">
<rect fill="white" x="9" y="9" width="132" height="132"/>
<path fill-rule="evenodd" clip-rule="evenodd" d="M63.4447 12.8888H60.5558V21.5555H95.2224C95.6681 21.5555 96.0913 21.7643 96.3678 22.1197L125.257 59.6753C125.589 60.1098 125.652 60.7022 125.409 61.1931C125.166 61.6896 124.664 62 124.111 62H115.445V96.6666H129.624L140 108.222L111.833 140L100.278 126.961V127H16.5004C12.9118 127 10.0004 124.089 10.0004 120.5C10.0004 116.911 12.9118 114 16.5004 114H18.6671V62H11.4449C10.8919 62 10.3897 61.6897 10.1471 61.1932C9.90449 60.7023 9.96655 60.1098 10.2995 59.6754L39.1883 22.1198C39.4647 21.7643 39.8879 21.5556 40.3337 21.5556H43.2225V12.8889H40.3337V10H63.4447V12.8888ZM46.1114 12.8888H57.6669V21.5555H46.1114V12.8888ZM21.5559 62H112.556V96.6666H99.5557V75H67.778V106.778H84.964L83.6662 108.222L88.7895 114H57.6661V93.7777C57.6661 85.7995 51.2 79.3333 43.2218 79.3333C35.2435 79.3333 28.7774 85.7995 28.7774 93.7777V114H21.5552L21.5559 62ZM87.5596 103.889L94.0427 96.6666H96.6664V92.3333H85.1109V103.889H87.5596ZM82.222 103.889H70.6665V92.3333H82.222V103.889ZM85.1109 89.4444H96.6664V77.8888H85.1109V89.4444ZM82.222 77.8888V89.4444H70.6665V77.8888H82.222ZM41.0439 24.4444L14.3781 59.1111H121.177L94.5113 24.4444H41.0439ZM16.5 116.889H91.3451L97.7491 124.111H16.4994C14.5076 124.111 12.8883 122.492 12.8883 120.5C12.8883 118.508 14.5082 116.889 16.5 116.889ZM54.7776 93.7777V114H31.6666V93.7777C31.6666 87.3962 36.8406 82.2222 43.2221 82.2222C49.6036 82.2222 54.7776 87.3962 54.7776 93.7777ZM108.132 131.469L88.8072 109.667H102.4L108.132 131.469ZM118.283 109.667L111.834 134.177L105.385 109.667H118.283ZM134.861 109.667L115.536 131.469L121.268 109.667H134.861ZM134.821 106.778H123.209L128.75 100.018L134.821 106.778ZM120.033 106.095L115.361 99.5556H125.393L120.033 106.095ZM111.835 99.5837L116.975 106.778H106.694L111.835 99.5837ZM108.308 99.5555H98.2761L103.636 106.095L108.308 99.5555ZM94.919 100.018L88.8478 106.778H100.46L94.919 100.018Z"/>
</mask>
<path fill-rule="evenodd" clip-rule="evenodd" d="M63.4447 12.8888H60.5558V21.5555H95.2224C95.6681 21.5555 96.0913 21.7643 96.3678 22.1197L125.257 59.6753C125.589 60.1098 125.652 60.7022 125.409 61.1931C125.166 61.6896 124.664 62 124.111 62H115.445V96.6666H129.624L140 108.222L111.833 140L100.278 126.961V127H16.5004C12.9118 127 10.0004 124.089 10.0004 120.5C10.0004 116.911 12.9118 114 16.5004 114H18.6671V62H11.4449C10.8919 62 10.3897 61.6897 10.1471 61.1932C9.90449 60.7023 9.96655 60.1098 10.2995 59.6754L39.1883 22.1198C39.4647 21.7643 39.8879 21.5556 40.3337 21.5556H43.2225V12.8889H40.3337V10H63.4447V12.8888ZM46.1114 12.8888H57.6669V21.5555H46.1114V12.8888ZM21.5559 62H112.556V96.6666H99.5557V75H67.778V106.778H84.964L83.6662 108.222L88.7895 114H57.6661V93.7777C57.6661 85.7995 51.2 79.3333 43.2218 79.3333C35.2435 79.3333 28.7774 85.7995 28.7774 93.7777V114H21.5552L21.5559 62ZM87.5596 103.889L94.0427 96.6666H96.6664V92.3333H85.1109V103.889H87.5596ZM82.222 103.889H70.6665V92.3333H82.222V103.889ZM85.1109 89.4444H96.6664V77.8888H85.1109V89.4444ZM82.222 77.8888V89.4444H70.6665V77.8888H82.222ZM41.0439 24.4444L14.3781 59.1111H121.177L94.5113 24.4444H41.0439ZM16.5 116.889H91.3451L97.7491 124.111H16.4994C14.5076 124.111 12.8883 122.492 12.8883 120.5C12.8883 118.508 14.5082 116.889 16.5 116.889ZM54.7776 93.7777V114H31.6666V93.7777C31.6666 87.3962 36.8406 82.2222 43.2221 82.2222C49.6036 82.2222 54.7776 87.3962 54.7776 93.7777ZM108.132 131.469L88.8072 109.667H102.4L108.132 131.469ZM118.283 109.667L111.834 134.177L105.385 109.667H118.283ZM134.861 109.667L115.536 131.469L121.268 109.667H134.861ZM134.821 106.778H123.209L128.75 100.018L134.821 106.778ZM120.033 106.095L115.361 99.5556H125.393L120.033 106.095ZM111.835 99.5837L116.975 106.778H106.694L111.835 99.5837ZM108.308 99.5555H98.2761L103.636 106.095L108.308 99.5555ZM94.919 100.018L88.8478 106.778H100.46L94.919 100.018Z" fill="#663366"/>
<path fill-rule="evenodd" clip-rule="evenodd" d="M63.4447 12.8888H60.5558V21.5555H95.2224C95.6681 21.5555 96.0913 21.7643 96.3678 22.1197L125.257 59.6753C125.589 60.1098 125.652 60.7022 125.409 61.1931C125.166 61.6896 124.664 62 124.111 62H115.445V96.6666H129.624L140 108.222L111.833 140L100.278 126.961V127H16.5004C12.9118 127 10.0004 124.089 10.0004 120.5C10.0004 116.911 12.9118 114 16.5004 114H18.6671V62H11.4449C10.8919 62 10.3897 61.6897 10.1471 61.1932C9.90449 60.7023 9.96655 60.1098 10.2995 59.6754L39.1883 22.1198C39.4647 21.7643 39.8879 21.5556 40.3337 21.5556H43.2225V12.8889H40.3337V10H63.4447V12.8888ZM46.1114 12.8888H57.6669V21.5555H46.1114V12.8888ZM21.5559 62H112.556V96.6666H99.5557V75H67.778V106.778H84.964L83.6662 108.222L88.7895 114H57.6661V93.7777C57.6661 85.7995 51.2 79.3333 43.2218 79.3333C35.2435 79.3333 28.7774 85.7995 28.7774 93.7777V114H21.5552L21.5559 62ZM87.5596 103.889L94.0427 96.6666H96.6664V92.3333H85.1109V103.889H87.5596ZM82.222 103.889H70.6665V92.3333H82.222V103.889ZM85.1109 89.4444H96.6664V77.8888H85.1109V89.4444ZM82.222 77.8888V89.4444H70.6665V77.8888H82.222ZM41.0439 24.4444L14.3781 59.1111H121.177L94.5113 24.4444H41.0439ZM16.5 116.889H91.3451L97.7491 124.111H16.4994C14.5076 124.111 12.8883 122.492 12.8883 120.5C12.8883 118.508 14.5082 116.889 16.5 116.889ZM54.7776 93.7777V114H31.6666V93.7777C31.6666 87.3962 36.8406 82.2222 43.2221 82.2222C49.6036 82.2222 54.7776 87.3962 54.7776 93.7777ZM108.132 131.469L88.8072 109.667H102.4L108.132 131.469ZM118.283 109.667L111.834 134.177L105.385 109.667H118.283ZM134.861 109.667L115.536 131.469L121.268 109.667H134.861ZM134.821 106.778H123.209L128.75 100.018L134.821 106.778ZM120.033 106.095L115.361 99.5556H125.393L120.033 106.095ZM111.835 99.5837L116.975 106.778H106.694L111.835 99.5837ZM108.308 99.5555H98.2761L103.636 106.095L108.308 99.5555ZM94.919 100.018L88.8478 106.778H100.46L94.919 100.018Z" stroke="#663366" stroke-width="0.5" mask="url(#path-1-outside-1_140_1910)"/>
</svg>
