<svg width="150" height="150" viewBox="0 0 150 150" fill="none" xmlns="http://www.w3.org/2000/svg">
<path d="M32.7012 120.156V104.211H47.2989V120.156" stroke="#663366" stroke-width="4.3" stroke-miterlimit="10" stroke-linecap="round" stroke-linejoin="round"/>
<path d="M102.701 120.156V104.211H117.299V120.156" stroke="#663366" stroke-width="4.3" stroke-miterlimit="10" stroke-linecap="round" stroke-linejoin="round"/>
<path d="M144.661 38.0324C144.661 35.1873 142.764 32.785 140.165 32.0204C138.675 27.8227 134.668 24.8164 129.958 24.8164C125.873 24.8164 122.316 27.0778 120.472 30.4164C119.375 29.8941 118.147 29.6015 116.85 29.6015C112.192 29.6015 108.416 33.3761 108.416 38.0324C108.416 39.2947 108.694 40.4921 109.191 41.5673H143.569C144.258 40.5613 144.661 39.3438 144.661 38.0324Z" stroke="#663366" stroke-width="4.3" stroke-miterlimit="10" stroke-linecap="round" stroke-linejoin="round"/>
<path d="M41.5847 46.5246C41.5847 43.6794 39.6878 41.2772 37.089 40.5126C35.5993 36.3149 31.5916 33.3086 26.8816 33.3086C22.7964 33.3086 19.2398 35.57 17.3961 38.9086C16.2987 38.3863 15.0707 38.0937 13.7741 38.0937C9.11584 38.0937 5.33984 41.8683 5.33984 46.5246C5.33984 47.7869 5.61756 48.9843 6.11499 50.0595H40.4927C41.1816 49.0532 41.5847 47.836 41.5847 46.5246Z" stroke="#663366" stroke-width="4.3" stroke-miterlimit="10" stroke-linecap="round" stroke-linejoin="round"/>
<path d="M17.459 120.166V97.3906" stroke="#663366" stroke-width="4.3" stroke-miterlimit="10" stroke-linecap="round" stroke-linejoin="round"/>
<path d="M62.541 97.3906V120.166" stroke="#663366" stroke-width="4.3" stroke-miterlimit="10" stroke-linecap="round" stroke-linejoin="round"/>
<path d="M66.666 100.255L40 77.8368L13.334 100.255L5 90.4428L40 61.0859L75 90.4428L66.666 100.255Z" stroke="#663366" stroke-width="4.3" stroke-miterlimit="10" stroke-linecap="round" stroke-linejoin="round"/>
<path d="M87.459 120.166V97.3906" stroke="#663366" stroke-width="4.3" stroke-miterlimit="10" stroke-linecap="round" stroke-linejoin="round"/>
<path d="M132.541 97.3906V120.166" stroke="#663366" stroke-width="4.3" stroke-miterlimit="10" stroke-linecap="round" stroke-linejoin="round"/>
<path d="M136.666 100.255L110 77.8368L83.334 100.255L75 90.4428L110 61.0859L145 90.4428L136.666 100.255Z" stroke="#663366" stroke-width="4.3" stroke-miterlimit="10" stroke-linecap="round" stroke-linejoin="round"/>
<path d="M144.227 121.863H5.77344V140.425H144.227V121.863Z" stroke="#663366" stroke-width="4.3" stroke-miterlimit="10" stroke-linecap="round" stroke-linejoin="round"/>
<path d="M99.9911 32.7409C99.9911 19.6291 89.3577 9 76.2405 9C63.1237 9 52.4902 19.6291 52.4902 32.7409C52.4902 43.7003 59.9194 52.9254 70.0185 55.6586L76.2408 63.5074L82.4631 55.6586C92.5617 52.9257 99.9911 43.7006 99.9911 32.7409Z" stroke="#663366" stroke-width="4.3" stroke-miterlimit="10" stroke-linecap="round" stroke-linejoin="round"/>
<path d="M76.2392 44.1568C82.5468 44.1568 87.6601 39.0455 87.6601 32.7405C87.6601 26.4355 82.5468 21.3242 76.2392 21.3242C69.9317 21.3242 64.8184 26.4355 64.8184 32.7405C64.8184 39.0455 69.9317 44.1568 76.2392 44.1568Z" stroke="#663366" stroke-width="4.3" stroke-miterlimit="10" stroke-linecap="round" stroke-linejoin="round"/>
</svg>
