<svg width="150" height="150" viewBox="0 0 150 150" fill="none" xmlns="http://www.w3.org/2000/svg">
<path d="M127.897 110.237H108.948L94.3336 89.1834C93.1169 87.4198 91.2644 86.4491 89.118 86.4491H60.8724C58.7396 86.4491 56.8873 87.4198 55.6567 89.1765L41.0489 110.23L22.1007 110.237C17.015 110.237 14.3558 114.154 14.3558 118.023C14.3558 121.891 17.0148 125.808 22.1007 125.808H43.4288C47.1337 125.808 50.3396 124.127 52.4449 121.071L56.642 114.974V143.232H93.3554V114.974L97.5525 121.071C99.651 124.127 102.857 125.808 106.569 125.808H127.89C132.969 125.808 135.628 121.891 135.628 118.023C135.635 114.154 132.976 110.237 127.897 110.237ZM127.897 121.98H106.568C104.115 121.98 102.091 120.914 100.703 118.904L89.5203 102.663V139.404H60.468V102.663L49.2917 118.904C47.8973 120.921 45.8739 121.987 43.4267 121.987L22.0986 121.98C19.0089 121.98 18.1817 119.492 18.1817 118.022C18.1817 116.553 19.0088 114.065 22.0986 114.065H43.0504L58.793 91.3629C59.2988 90.6451 59.996 90.276 60.8642 90.276H89.1098C89.9847 90.276 90.682 90.6383 91.181 91.356L106.937 114.058H127.889C130.979 114.058 131.799 116.546 131.799 118.016C131.806 119.492 130.979 121.98 127.897 121.98ZM59.2329 68.2663C59.2329 76.9613 66.301 84.0293 74.9959 84.0293C83.6908 84.0293 90.7589 76.9612 90.7589 68.2663C90.7589 59.5714 83.6908 52.5033 74.9959 52.5033C66.301 52.5033 59.2329 59.5714 59.2329 68.2663ZM86.9308 68.2663C86.9308 74.849 81.5784 80.2013 74.9957 80.2013C68.413 80.2013 63.0607 74.849 63.0607 68.2663C63.0607 61.6836 68.413 56.3313 74.9957 56.3313C81.5784 56.3313 86.9308 61.6836 86.9308 68.2663ZM138.93 69.3873H136.9V66.4343C136.9 64.281 135.15 62.5311 132.996 62.5311H115.852C113.699 62.5311 111.949 64.281 111.949 66.4343V69.3873H109.919C106.576 69.3873 103.849 72.1079 103.849 75.4505V80.5499C103.849 82.2794 105.031 83.7422 106.631 84.1728V95.2261C106.631 97.933 108.839 100.134 111.546 100.134H137.31C140.017 100.134 142.218 97.933 142.218 95.2261V84.1728C143.818 83.749 145 82.2862 145 80.5499V75.4505C144.993 72.1009 142.273 69.3873 138.93 69.3873ZM115.771 66.4275C115.771 66.3865 115.805 66.3523 115.847 66.3523H132.99C133.025 66.3523 133.066 66.3865 133.066 66.4275V69.3805H115.765L115.771 66.4275ZM107.671 75.4437C107.671 74.2132 108.676 73.2085 109.913 73.2085H138.93C140.161 73.2085 141.159 74.2065 141.159 75.4437V80.4679H126.332V79.7501C126.332 78.6906 125.478 77.8361 124.418 77.8361C123.359 77.8361 122.504 78.6905 122.504 79.7501V80.4679H107.671L107.671 75.4437ZM137.304 96.2923H111.54C110.952 96.2923 110.453 95.8001 110.453 95.2123V84.2889H122.505V84.9998C122.505 86.0593 123.359 86.9138 124.419 86.9138C125.478 86.9138 126.333 86.0594 126.333 84.9998V84.2889H138.377V95.2123C138.384 95.8138 137.899 96.2923 137.304 96.2923ZM57.1839 31.3735L73.6441 47.8336C74.02 48.2096 74.5054 48.3942 74.9975 48.3942C75.4897 48.3942 75.975 48.2096 76.351 47.8336L94.055 30.1296C96.6047 27.58 98.0128 24.1758 98.0128 20.546C98.0128 16.9163 96.6047 13.5121 94.055 10.9623C91.5054 8.41268 88.1012 7.00451 84.4714 7.00451C80.8963 7.00451 77.5401 8.3648 75.0039 10.8461C69.7064 5.67841 61.1959 5.71936 55.9524 10.9623C50.6685 16.2462 50.6685 24.8456 55.9456 30.1293L57.1839 31.3735ZM58.6536 13.6695C60.5538 11.7692 63.042 10.8258 65.5303 10.8258C68.0185 10.8258 70.5067 11.7691 72.4001 13.6626L73.6305 14.9067C73.986 15.269 74.4782 15.4672 74.984 15.4741H74.9908C75.4967 15.4741 75.982 15.2759 76.3443 14.9136L77.5884 13.6695C79.4136 11.8443 81.8607 10.8327 84.4651 10.8327C87.0695 10.8327 89.5166 11.8375 91.3418 13.6695C93.1669 15.4946 94.1786 17.9417 94.1786 20.5462C94.1786 23.1506 93.1737 25.5977 91.3418 27.4229L74.9978 43.7738L59.891 28.6671L58.6538 27.423C54.8668 23.6291 54.8665 17.4633 58.6536 13.6695ZM66.87 24.2168C66.1864 23.4102 66.2958 22.2004 67.1024 21.5167C67.909 20.8331 69.1189 20.9425 69.8026 21.7491L73.2067 25.7889L80.2064 17.3742C80.8831 16.5608 82.0862 16.4514 82.8997 17.1282C83.7132 17.8049 83.8225 19.0079 83.1458 19.8215L74.6833 29.9998C74.321 30.4372 73.781 30.6902 73.2136 30.6902H73.2068C72.6395 30.6902 72.1063 30.4441 71.744 30.0066L66.87 24.2168ZM28.3506 100.12H40.3336C41.3931 100.12 42.2476 99.2654 42.2476 98.2058V74.0831C42.2476 73.3995 41.8785 72.7638 41.2906 72.422L24.5774 62.7769C23.9827 62.4352 23.2581 62.4352 22.6634 62.7769L5.95016 72.422C5.36913 72.7638 5 73.3995 5 74.0831V98.2128C5 99.2724 5.85445 100.127 6.91407 100.127H18.897L28.3506 100.12ZM20.8109 96.2919V86.64H26.4365V96.2919H20.8109ZM8.82788 75.1843L23.6202 66.6466L38.4125 75.1843V96.2919H30.2575V84.726C30.2575 83.6664 29.403 82.8119 28.3434 82.8119H18.8898C17.8303 82.8119 16.9757 83.6664 16.9757 84.726V96.2919H8.8207L8.82788 75.1843ZM29.855 58.389C32.8901 46.6591 40.2793 36.6987 50.6494 30.3429C51.5517 29.7892 52.7274 30.0764 53.2811 30.9718C53.8348 31.8741 53.5477 33.0499 52.6522 33.6035C43.1302 39.4411 36.3492 48.5805 33.5605 59.3467C33.3349 60.208 32.5625 60.7822 31.708 60.7822C31.5508 60.7822 31.3868 60.7617 31.2295 60.7207C30.2042 60.4541 29.5884 59.4075 29.855 58.389ZM99.3394 30.3359C109.709 36.6931 117.098 46.6526 120.141 58.382C120.407 59.4074 119.792 60.4532 118.767 60.7198C118.603 60.7608 118.446 60.7813 118.281 60.7813C117.434 60.7813 116.655 60.2071 116.429 59.3458C113.633 48.5797 106.852 39.4334 97.3303 33.6026C96.428 33.0489 96.1477 31.8732 96.7014 30.9709C97.2619 30.0686 98.4439 29.7891 99.3394 30.3359Z" fill="#663366"/>
</svg>
