<svg width="150" height="150" viewBox="0 0 150 150" fill="none" xmlns="http://www.w3.org/2000/svg">
<path d="M17 40.4852V30.8233C17 27.1444 19.3239 23.8683 22.7972 22.6542L71.8451 5.48803C73.6958 4.83732 75.7127 4.83732 77.5634 5.48803L126.611 22.6542C130.085 23.8683 132.409 27.1444 132.409 30.8233V47.5078" stroke="#663366" stroke-width="4.22535" stroke-miterlimit="10" stroke-linecap="round" stroke-linejoin="round"/>
<path d="M132.409 57.3663V71.7128C132.409 96.5917 119.355 119.648 98.0226 132.448L79.1578 143.766C76.4169 145.411 72.9916 145.411 70.2507 143.766L51.3859 132.448C30.0535 119.648 17 96.5917 17 71.7128V50.3438" stroke="#663366" stroke-width="4.22535" stroke-miterlimit="10" stroke-linecap="round" stroke-linejoin="round"/>
<path d="M25.6562 68.3778V71.7102C25.6562 82.4257 28.445 93.0201 33.7239 102.344C39.0056 111.668 46.6506 119.51 55.8394 125.023L71.7351 134.561C73.5633 135.657 75.845 135.657 77.6732 134.561L93.569 125.023C102.758 119.51 110.403 111.668 115.684 102.344C120.963 93.0201 123.752 82.4257 123.752 71.7102V32.8679C123.752 31.6426 122.977 30.5496 121.82 30.144L76.6112 14.3214C75.3774 13.8876 74.0309 13.8876 72.7971 14.3214L27.5886 30.144C26.4309 30.5496 25.6562 31.6426 25.6562 32.8679V58.5187" stroke="#663366" stroke-width="4.22535" stroke-miterlimit="10" stroke-linecap="round" stroke-linejoin="round"/>
<path d="M91.209 80.2301V60.1641" stroke="#663366" stroke-width="4.22535" stroke-miterlimit="10" stroke-linecap="round" stroke-linejoin="round"/>
<path d="M58.2012 60.1641V80.2301" stroke="#663366" stroke-width="4.22535" stroke-miterlimit="10" stroke-linecap="round" stroke-linejoin="round"/>
<path d="M79.2583 77.2812L91.9028 80.6987C96.867 82.0404 100.315 86.5441 100.315 91.6866V105.736H49.0957V91.6866C49.0957 86.5441 52.5439 82.0404 57.5081 80.6987L70.1526 77.2812" stroke="#663366" stroke-width="4.22535" stroke-miterlimit="10" stroke-linecap="round" stroke-linejoin="round"/>
<path d="M62.916 79.2383C63.8524 84.9009 68.7808 89.2338 74.7045 89.2338C80.6285 89.2338 85.5567 84.9009 86.4931 79.2383" stroke="#663366" stroke-width="4.22535" stroke-miterlimit="10" stroke-linecap="round" stroke-linejoin="round"/>
<path d="M70.1523 77.2827V71.8711" stroke="#663366" stroke-width="4.22535" stroke-miterlimit="10" stroke-linecap="round" stroke-linejoin="round"/>
<path d="M79.2578 71.8711V77.2827" stroke="#663366" stroke-width="4.22535" stroke-miterlimit="10" stroke-linecap="round" stroke-linejoin="round"/>
<path d="M62.7539 51.1055V60.7805C62.7539 67.3811 68.1046 72.7318 74.7053 72.7318C81.3059 72.7318 86.6566 67.3811 86.6566 60.7805V51.1055" stroke="#663366" stroke-width="4.22535" stroke-miterlimit="10" stroke-linecap="round" stroke-linejoin="round"/>
<path d="M91.2093 51.1029V44.2736C91.2093 35.1586 83.8202 27.7695 74.7052 27.7695C65.5902 27.7695 58.2012 35.1586 58.2012 44.2736V51.1029" stroke="#663366" stroke-width="4.22535" stroke-miterlimit="10" stroke-linecap="round" stroke-linejoin="round"/>
<path d="M89.5019 60.2112H86.6562V51.1055H89.5019C92.0163 51.1055 94.0549 53.1438 94.0549 55.6585C94.0546 58.1728 92.0163 60.2112 89.5019 60.2112Z" stroke="#663366" stroke-width="4.22535" stroke-miterlimit="10" stroke-linecap="round" stroke-linejoin="round"/>
<path d="M59.9085 60.2112H62.7541V51.1055H59.9085C57.3941 51.1055 55.3555 53.1438 55.3555 55.6585C55.3555 58.1728 57.3938 60.2112 59.9085 60.2112Z" stroke="#663366" stroke-width="4.22535" stroke-miterlimit="10" stroke-linecap="round" stroke-linejoin="round"/>
<path d="M57.6309 105.742V98.3438" stroke="#663366" stroke-width="4.22535" stroke-miterlimit="10" stroke-linecap="round" stroke-linejoin="round"/>
<path d="M91.7773 105.742V98.3438" stroke="#663366" stroke-width="4.22535" stroke-miterlimit="10" stroke-linecap="round" stroke-linejoin="round"/>
<path d="M62.7539 51.1055C62.7539 51.1055 72.1103 49.7703 74.7053 42.8125C77.3002 49.7703 86.6566 51.1055 86.6566 51.1055" stroke="#663366" stroke-width="4.22535" stroke-miterlimit="10" stroke-linecap="round" stroke-linejoin="round"/>
</svg>
