<svg width="150" height="150" viewBox="0 0 150 150" fill="none" xmlns="http://www.w3.org/2000/svg">
<path d="M140.066 84.8568H11.9897V138.827H140.066V84.8568Z" stroke="#663366" stroke-width="3.5" stroke-miterlimit="10"/>
<path d="M11.9897 100.778C19.9942 100.778 19.9942 105.03 27.9984 105.03C36.0032 105.03 36.0032 100.778 44.0079 100.778C52.0124 100.778 52.0124 105.03 60.0172 105.03C68.0214 105.03 68.0214 100.778 76.0259 100.778C84.0306 100.778 84.0306 105.03 92.0351 105.03C100.04 105.03 100.04 100.778 108.045 100.778C116.05 100.778 116.05 105.03 124.055 105.03C132.061 105.03 132.061 100.778 140.066 100.778" stroke="#663366" stroke-width="3.5" stroke-miterlimit="10"/>
<path d="M11.9897 117.784C19.9942 117.784 19.9942 122.036 27.9984 122.036C36.0032 122.036 36.0032 117.784 44.0079 117.784C52.0124 117.784 52.0124 122.036 60.0172 122.036C68.0214 122.036 68.0214 117.784 76.0259 117.784C84.0306 117.784 84.0306 122.036 92.0351 122.036C100.04 122.036 100.04 117.784 108.045 117.784C116.05 117.784 116.05 122.036 124.055 122.036C132.061 122.036 132.061 117.784 140.066 117.784" stroke="#663366" stroke-width="3.5" stroke-miterlimit="10"/>
<path d="M34.7773 84.8568V38.7402" stroke="#663366" stroke-width="3.5" stroke-miterlimit="10"/>
<path d="M34.7778 38.7394C28.1917 31.129 17.5133 31.129 10.9272 38.7394" stroke="#663366" stroke-width="3.5" stroke-miterlimit="10"/>
<path d="M58.6665 38.7394C52.0804 31.129 41.402 31.129 34.8159 38.7394" stroke="#663366" stroke-width="3.5" stroke-miterlimit="10"/>
<path d="M34.8152 38.7394L34.5867 37.7711C32.4272 28.6211 26.6707 22.2293 18.155 22.1958L14.0938 22.178" stroke="#663366" stroke-width="3.5" stroke-miterlimit="10"/>
<path d="M34.7397 38.7394L34.9683 37.7711C37.1278 28.6211 42.2133 22.2293 50.7288 22.1958L55.4612 22.178" stroke="#663366" stroke-width="3.5" stroke-miterlimit="10"/>
<path d="M34.7397 38.7394L34.7373 22.8827C34.7362 16.2605 40.1192 10.8994 46.7416 10.9273" stroke="#663366" stroke-width="3.5" stroke-miterlimit="10"/>
<path d="M101.64 20.4973L106.185 25.8933L112.722 28.5489L108.994 34.5395L108.489 41.5765L101.64 39.8828L94.7905 41.5765L94.2848 34.5395L90.5576 28.5489L97.0943 25.8933L101.64 20.4973Z" stroke="#663366" stroke-width="3.5" stroke-miterlimit="10"/>
<path d="M101.64 84.0533V70.5963" stroke="#663366" stroke-width="3.5" stroke-miterlimit="10"/>
<path d="M124.85 38.8244V84.0533H78.4287V38.8244" stroke="#663366" stroke-width="3.5" stroke-miterlimit="10"/>
<path d="M108.686 38.8244H135.414" stroke="#663366" stroke-width="3.5" stroke-miterlimit="10"/>
<path d="M67.8652 38.8244H94.9344" stroke="#663366" stroke-width="3.5" stroke-miterlimit="10"/>
<path d="M93.5293 53.7756V62.0128" stroke="#663366" stroke-width="3.5" stroke-miterlimit="10"/>
<path d="M109.473 53.7756V62.0128" stroke="#663366" stroke-width="3.5" stroke-miterlimit="10"/>
<path d="M124.85 53.1121L139.913 61.4577V84.0533H63.3657V61.4577L78.4287 53.0563" stroke="#663366" stroke-width="3.5" stroke-miterlimit="10"/>
</svg>
