<svg width="150" height="150" viewBox="0 0 150 150" fill="none" xmlns="http://www.w3.org/2000/svg">
<path d="M32.7715 87.7744C33.1314 87.7744 33.4875 87.8501 33.8164 87.9961L34.0566 88.1172C34.212 88.2066 34.3577 88.312 34.4912 88.4316L34.6855 88.626L35.3242 89.4121C36.2329 90.555 37.8642 92.7042 39.4316 95.2686C41.517 98.6802 43.5094 102.856 43.5098 106.382L43.501 106.918C43.3998 109.414 42.4407 111.799 40.7861 113.671L40.4209 114.064C38.4173 116.117 35.6833 117.293 32.8154 117.337L32.8115 117.338V117.337C31.5627 117.327 30.3263 117.103 29.1562 116.674L28.6592 116.478C27.5091 115.99 26.4528 115.309 25.5361 114.465L25.1523 114.094C24.2765 113.203 23.5615 112.169 23.0381 111.038L22.8252 110.548C22.2903 109.225 22.0217 107.809 22.0342 106.382C22.0345 102.856 24.0269 98.6803 26.1123 95.2686C28.2023 91.8494 30.405 89.1677 30.8584 88.626L30.8613 88.6221L30.9727 88.7227L30.8623 88.6221C31.1036 88.3554 31.3979 88.1421 31.7266 87.9961L31.9785 87.8994C32.2341 87.8167 32.5017 87.7745 32.7715 87.7744ZM32.8125 94.3105C31.5894 95.9928 30.1856 98.1241 29.0674 100.262C27.9089 102.476 27.0676 104.677 27.0332 106.386C27.034 107.908 27.6393 109.368 28.7158 110.444L28.9219 110.641C29.9756 111.595 31.349 112.127 32.7773 112.127C34.3009 112.127 35.7625 111.522 36.8398 110.444L37.0361 110.238C37.9903 109.185 38.5224 107.811 38.5225 106.383C38.5225 104.675 37.6994 102.476 36.5498 100.262C35.44 98.1241 34.0357 95.993 32.8125 94.3105ZM34.3105 49.1289C34.869 49.0029 35.4569 49.0721 35.9736 49.3301H35.9727C36.2667 49.4748 36.5299 49.6765 36.7461 49.9229C36.9622 50.1691 37.1281 50.4554 37.2334 50.7656L37.2998 51.002C37.3368 51.161 37.3589 51.3231 37.3643 51.4863L37.3604 51.7314C37.3388 52.0584 37.2525 52.3781 37.1074 52.6719V52.6729L31.8838 63.1309H38.3799L38.5459 63.1367C38.9324 63.1637 39.3079 63.2813 39.6426 63.4795L39.7832 63.5684C40.1026 63.7875 40.3676 64.0785 40.5557 64.4189L40.6309 64.5674C40.7717 64.8683 40.8511 65.1944 40.8643 65.5264L40.8652 65.6924C40.8547 66.0812 40.7533 66.4613 40.5703 66.8027L40.4873 66.9463L31.6982 81.0088L31.6973 81.0078C31.5711 81.2226 31.4146 81.4174 31.2314 81.585L31.04 81.7441C30.8396 81.8937 30.6176 82.0113 30.3828 82.0947L30.1436 82.167C29.9005 82.2267 29.6503 82.2491 29.4014 82.2344L29.1533 82.207C28.8241 82.1542 28.5083 82.0362 28.2256 81.8594C28.0136 81.7268 27.8229 81.5635 27.6602 81.375L27.5068 81.1777C27.3631 80.9729 27.2513 80.748 27.1748 80.5107L27.1104 80.2695C27.0402 79.9436 27.0363 79.6069 27.0986 79.2793L27.1572 79.0361C27.2276 78.7986 27.3331 78.5724 27.4707 78.3652L33.8779 68.1182H27.832V68.1172C27.4062 68.1179 26.9873 68.0108 26.6152 67.8037C26.2429 67.5965 25.9299 67.2972 25.7061 66.9346C25.4822 66.5719 25.3543 66.1582 25.3359 65.7324C25.3176 65.3068 25.4089 64.8834 25.6006 64.5029L32.6318 50.4404L32.7539 50.2256C33.0604 49.7424 33.5255 49.3773 34.0732 49.1953L34.3105 49.1289Z" fill="#663366" stroke="#663366" stroke-width="0.3"/>
<path d="M96.0938 9.22461C96.7551 9.22461 97.3898 9.48741 97.8574 9.95508L98.0225 10.1387C98.386 10.5824 98.5879 11.1401 98.5879 11.7188V29.2148C98.5879 29.7935 98.386 30.3512 98.0225 30.7949L97.8574 30.9785C97.3898 31.4462 96.7551 31.709 96.0938 31.709C95.5151 31.709 94.9574 31.5071 94.5137 31.1436L94.3301 30.9785C93.8624 30.5108 93.5996 29.8762 93.5996 29.2148V14.2129H42.3379V39.8438C42.3379 40.4224 42.136 40.9801 41.7725 41.4238L41.6074 41.6074C41.1398 42.0751 40.5051 42.3379 39.8438 42.3379H14.2129V131.1H67.9688C68.6301 131.1 69.2648 131.362 69.7324 131.83L69.8975 132.014C70.261 132.457 70.4629 133.015 70.4629 133.594C70.4629 134.172 70.261 134.73 69.8975 135.174L69.7324 135.357C69.2648 135.825 68.6301 136.088 67.9688 136.088H11.7188C11.1401 136.088 10.5824 135.886 10.1387 135.522L9.95508 135.357C9.48741 134.89 9.22461 134.255 9.22461 133.594V39.8428L9.23828 39.5967C9.29725 39.0272 9.55047 38.4922 9.95996 38.085L38.085 9.95996C38.5504 9.49193 39.1827 9.22748 39.8428 9.22461H96.0938ZM17.7422 37.3496H37.3496V17.7422L17.7422 37.3496Z" fill="#663366" stroke="#663366" stroke-width="0.3"/>
<path d="M105.469 65.4746C116.076 65.4746 126.249 69.6882 133.749 77.1885L134.442 77.8994C141.508 85.325 145.463 95.1932 145.463 105.469C145.463 113.379 143.117 121.112 138.723 127.688C134.328 134.265 128.081 139.391 120.773 142.418C113.694 145.35 105.926 146.186 98.3945 144.832L97.666 144.694C89.9081 143.151 82.7816 139.342 77.1885 133.749C71.7701 128.331 68.0263 121.473 66.3945 113.997L66.2432 113.271C64.7 105.514 65.4926 97.4719 68.5195 90.1641L68.8096 89.4814C71.8685 82.4672 76.8778 76.472 83.249 72.2148C89.826 67.8203 97.5587 65.4746 105.469 65.4746ZM118.865 73.127C112.668 70.5602 105.869 69.8297 99.2764 71.0146L98.6396 71.1348C92.0615 72.4432 86.0019 75.6132 81.1787 80.2607L80.7158 80.7158C75.973 85.4587 72.6957 91.4606 71.2676 98.0049L71.1348 98.6396C69.7841 105.43 70.4775 112.469 73.127 118.865L73.3809 119.462C76.0583 125.602 80.4436 130.849 86.0205 134.575L86.5625 134.931C92.1999 138.548 98.7614 140.475 105.469 140.475C114.753 140.475 123.657 136.787 130.222 130.222L130.829 129.6C137.014 123.1 140.475 114.463 140.475 105.469C140.475 98.7614 138.548 92.1999 134.931 86.5625L134.575 86.0205C130.849 80.4436 125.602 76.0583 119.462 73.3809L118.865 73.127Z" fill="#663366" stroke="#663366" stroke-width="0.3"/>
<path d="M105.445 77.5684C106.107 77.5684 106.741 77.8312 107.209 78.2988L107.374 78.4824C107.738 78.9262 107.939 79.4838 107.939 80.0625V83.5156C113.771 84.1974 119.189 88.051 119.189 94.8867C119.189 95.4654 118.988 96.0231 118.624 96.4668L118.459 96.6504C117.991 97.1181 117.357 97.3809 116.695 97.3809C116.117 97.3809 115.559 97.179 115.115 96.8154L114.932 96.6504C114.464 96.1827 114.201 95.5481 114.201 94.8867C114.201 92.3228 112.933 90.704 111.282 89.7188C109.623 88.7289 107.578 88.3809 106.055 88.3809C103.998 88.3809 101.868 88.928 100.257 90.0693C98.6506 91.2071 97.5566 92.9361 97.5566 95.3203C97.5566 97.0668 98.4173 98.3389 100.032 99.4736C101.655 100.614 104.02 101.601 106.988 102.774L108.117 103.216C110.768 104.261 113.497 105.422 115.651 107.063C118.12 108.945 119.844 111.463 119.846 115.156L119.85 115.497C119.844 117.087 119.504 118.658 118.853 120.108L118.708 120.417C117.912 122.054 116.734 123.476 115.273 124.562L115.271 124.562C113.116 126.126 110.587 127.091 107.939 127.364V130.828C107.939 131.407 107.738 131.964 107.374 132.408L107.209 132.592C106.741 133.059 106.107 133.322 105.445 133.322C104.867 133.322 104.309 133.12 103.865 132.757L103.682 132.592C103.214 132.124 102.951 131.49 102.951 130.828V127.275C96.688 126.305 91.0449 122.078 91.0449 114.844C91.0449 114.182 91.3077 113.548 91.7754 113.08C92.2431 112.612 92.8777 112.35 93.5391 112.35C94.2004 112.35 94.8351 112.612 95.3027 113.08L95.4678 113.264C95.8313 113.707 96.0332 114.265 96.0332 114.844C96.0332 117.354 97.2541 119.265 99.0879 120.554C100.926 121.845 103.378 122.51 105.82 122.51H105.824L106.256 122.514C108.407 122.488 110.504 121.816 112.273 120.58C113.104 119.96 113.774 119.149 114.224 118.215L114.381 117.86C114.724 117.022 114.887 116.12 114.857 115.212V115.207L114.848 114.864C114.744 113.178 113.867 111.916 112.314 110.8C110.65 109.603 108.225 108.586 105.181 107.413H105.18C102.248 106.272 99.0984 105.035 96.6836 103.196C94.2611 101.352 92.5684 98.8937 92.5684 95.3203C92.5684 88.7018 97.4228 84.7647 102.951 83.7012V80.0625C102.951 79.4011 103.214 78.7665 103.682 78.2988L103.865 78.1338C104.309 77.7702 104.867 77.5684 105.445 77.5684ZM58.5938 100.631C59.2551 100.631 59.8898 100.894 60.3574 101.361L60.5225 101.545C60.886 101.989 61.0879 102.546 61.0879 103.125C61.0879 103.704 60.886 104.261 60.5225 104.705L60.3574 104.889C59.8898 105.356 59.2551 105.619 58.5938 105.619H51.5625C50.9838 105.619 50.4262 105.417 49.9824 105.054L49.7988 104.889C49.3312 104.421 49.0684 103.786 49.0684 103.125C49.0684 102.464 49.3312 101.829 49.7988 101.361L49.9824 101.196C50.4262 100.833 50.9838 100.631 51.5625 100.631H58.5938ZM80.8594 63.1309C81.5208 63.1309 82.1554 63.3937 82.623 63.8613C83.0907 64.329 83.3535 64.9636 83.3535 65.625C83.3535 66.2037 83.1516 66.7613 82.7881 67.2051L82.623 67.3887C82.1554 67.8563 81.5208 68.1191 80.8594 68.1191H51.5625C50.9838 68.1191 50.4262 67.9173 49.9824 67.5537L49.7988 67.3887C49.3312 66.921 49.0684 66.2864 49.0684 65.625C49.0684 64.9636 49.3312 64.329 49.7988 63.8613L49.9824 63.6963C50.4262 63.3327 50.9838 63.1309 51.5625 63.1309H80.8594ZM105.469 44.376C108.259 44.376 111.022 44.9262 113.6 45.9941L114.08 46.2002C116.469 47.2594 118.644 48.7504 120.493 50.6006L120.657 50.7822C120.813 50.9715 120.94 51.183 121.034 51.4102L121.116 51.6406C121.187 51.8751 121.224 52.1192 121.224 52.3652C121.224 52.6109 121.187 52.8546 121.116 53.0889L121.034 53.3203C120.94 53.5475 120.813 53.7589 120.657 53.9482L120.493 54.1299C120.32 54.3037 120.121 54.4499 119.905 54.5654L119.684 54.6709C119.381 54.7964 119.056 54.8604 118.729 54.8604C118.483 54.8604 118.239 54.824 118.005 54.7529L117.773 54.6709C117.546 54.5767 117.335 54.4495 117.146 54.2939L116.964 54.1299C115.454 52.6203 113.663 51.4225 111.69 50.6055C109.718 49.7884 107.604 49.3672 105.469 49.3672C103.467 49.3672 101.484 49.7376 99.6191 50.457L99.2471 50.6055C97.3982 51.3714 95.7075 52.4713 94.2598 53.8496L93.9736 54.1299C93.5057 54.5978 92.8707 54.8604 92.209 54.8604C91.63 54.8604 91.0719 54.6587 90.6279 54.2949L90.4443 54.1299C89.9764 53.662 89.7139 53.027 89.7139 52.3652C89.7139 51.7035 89.9764 51.0685 90.4443 50.6006L90.8193 50.2354C92.7115 48.4336 94.9213 46.9953 97.3379 45.9941L97.8232 45.7998C100.261 44.8594 102.853 44.376 105.469 44.376Z" fill="#663366" stroke="#663366" stroke-width="0.3"/>
<path d="M105.475 53.7524C107.034 53.7525 108.579 54.0604 110.02 54.6577L110.554 54.895C111.784 55.4778 112.908 56.2684 113.872 57.2339L114.037 57.4165C114.401 57.8605 114.603 58.4194 114.603 58.9985C114.602 59.66 114.34 60.2944 113.872 60.7622C113.404 61.2301 112.769 61.4926 112.107 61.4927C111.529 61.4927 110.97 61.2919 110.526 60.9282L110.343 60.7622C109.784 60.2024 109.133 59.7436 108.419 59.4058L108.109 59.269C107.274 58.9228 106.379 58.7437 105.475 58.7437C104.683 58.7437 103.899 58.8808 103.155 59.147L102.84 59.269C102.109 59.572 101.436 59.9984 100.852 60.5288L100.606 60.7622C100.139 61.2301 99.5035 61.4926 98.8418 61.4927C98.2629 61.4927 97.7047 61.2919 97.2607 60.9282L97.0771 60.7622C96.6095 60.2944 96.3468 59.66 96.3467 58.9985C96.3467 58.3369 96.6093 57.7018 97.0771 57.2339L97.5 56.8306C98.5087 55.9156 99.6689 55.1803 100.93 54.6577L101.475 54.4478C102.757 53.9888 104.11 53.7524 105.475 53.7524ZM105.475 34.9995C109.496 34.9995 113.478 35.7918 117.192 37.3306L117.885 37.6274C121.327 39.1536 124.461 41.3027 127.126 43.9683L127.291 44.1509C127.655 44.5949 127.856 45.1538 127.856 45.7329C127.856 46.3119 127.655 46.8701 127.291 47.314L127.126 47.4966C126.658 47.9645 126.023 48.227 125.361 48.2271C124.782 48.2271 124.224 48.0262 123.78 47.6626L123.597 47.4966C118.79 42.6909 112.272 39.9908 105.475 39.9907C98.6777 39.9907 92.1582 42.69 87.3516 47.4956L87.3525 47.4966C87.121 47.7284 86.8456 47.9121 86.543 48.0376C86.2403 48.1631 85.9156 48.228 85.5879 48.228C85.2602 48.228 84.9355 48.1631 84.6328 48.0376C84.4058 47.9435 84.1941 47.817 84.0049 47.6616L83.8232 47.4966C83.6493 47.3228 83.5022 47.1247 83.3867 46.9087L83.2822 46.687C83.1569 46.3845 83.0919 46.0603 83.0918 45.7329C83.0918 45.4053 83.1568 45.0805 83.2822 44.7778L83.3867 44.5562C83.5022 44.3402 83.6493 44.142 83.8232 43.9683L84.3633 43.4419C87.0904 40.8458 90.2743 38.7731 93.7568 37.3306L94.457 37.0513C97.9701 35.6964 101.705 34.9995 105.475 34.9995Z" fill="#663366" stroke="#663366" stroke-width="0.3"/>
</svg>
