<svg width="150" height="150" viewBox="0 0 150 150" fill="none" xmlns="http://www.w3.org/2000/svg">
<path d="M75.0146 10C62.1588 9.99711 49.5909 13.8065 38.9001 20.9464C28.2093 28.0862 19.8758 38.236 14.9535 50.1121C10.0311 61.9882 8.74093 75.0572 11.2461 87.6665C13.7513 100.276 19.9394 111.859 29.0278 120.952C38.1161 130.044 49.6966 136.237 62.3048 138.748C74.913 141.259 87.9826 139.975 99.8609 135.058C111.739 130.141 121.893 121.812 129.037 111.124C136.182 100.437 139.997 87.8704 140 75.0146C139.985 57.7815 133.134 41.2581 120.951 29.0697C108.768 16.8813 92.2478 10.0232 75.0146 10ZM75.0146 135.646C63.0257 135.649 51.3052 132.097 41.3352 125.438C31.3652 118.78 23.5934 109.315 19.0028 98.2398C14.4122 87.1646 13.2088 74.9769 15.5449 63.2177C17.881 51.4586 23.6516 40.6563 32.127 32.1769C40.6024 23.6974 51.4019 17.9216 63.1599 15.5798C74.9179 13.2381 87.1062 14.4355 98.1836 19.0208C109.261 23.6061 118.73 31.3733 125.393 41.3401C132.056 51.3069 135.614 63.0257 135.617 75.0146C135.594 91.0802 129.201 106.481 117.841 117.841C106.481 129.201 91.0802 135.594 75.0146 135.617V135.646Z" fill="#663366"/>
<path d="M49.7704 75.3204H65.4616V70.9374H49.7704V59.79H67.4193V55.3047H44.5254V92.8086H68.7634V88.3087H49.7704V75.3204Z" fill="#663366"/>
<path d="M100.361 83.0637C99.2021 81.1157 97.785 78.934 96.1097 76.5184C94.4344 74.1029 92.652 71.6046 90.7624 69.0235C88.8728 66.4814 86.9589 64.0123 85.0207 61.6162C83.0824 59.2202 81.2708 57.1163 79.5857 55.3047H75.4219V92.8086H80.5646V63.5886C81.5386 64.7476 82.6392 66.082 83.8665 67.5917C85.0937 69.1014 86.321 70.7183 87.5482 72.4422C88.8144 74.1565 90.0855 75.934 91.3614 77.7749C92.6374 79.6158 93.8743 81.4274 95.0724 83.2098C96.2606 84.9533 97.3661 86.6529 98.3888 88.3087C99.4115 89.9645 100.322 91.4596 101.121 92.794H105.504V55.3047H100.361V83.0637Z" fill="#663366"/>
</svg>
