<svg width="150" height="150" viewBox="0 0 150 150" fill="none" xmlns="http://www.w3.org/2000/svg">
<mask id="mask0_618_202" style="mask-type:luminance" maskUnits="userSpaceOnUse" x="5" y="5" width="140" height="140">
<path d="M5 5H145V145H5V5Z" fill="white"/>
</mask>
<g mask="url(#mask0_618_202)">
<path d="M108.422 142.996H100.49" stroke="#663366" stroke-width="4.10156" stroke-miterlimit="10" stroke-linecap="round" stroke-linejoin="round"/>
<path d="M134.709 107.08V138.903C134.709 141.164 132.877 142.996 130.616 142.996H116.607" stroke="#663366" stroke-width="4.10156" stroke-miterlimit="10" stroke-linecap="round" stroke-linejoin="round"/>
<path d="M97.4874 85.9701L102.667 81.3933C103.833 80.3725 105.574 80.3725 106.74 81.3933L135.278 106.585C137.286 108.344 140.362 108.041 141.99 105.926C143.476 103.993 143.207 101.239 141.374 99.6308L110.909 72.6799C107.359 69.5647 102.049 69.5647 98.4989 72.6799L90.2676 79.9679" stroke="#663366" stroke-width="4.10156" stroke-miterlimit="10" stroke-linecap="round" stroke-linejoin="round"/>
<path d="M104.584 107.08V138.903C104.584 141.164 102.751 142.996 100.491 142.996H71.0488" stroke="#663366" stroke-width="4.10156" stroke-miterlimit="10" stroke-linecap="round" stroke-linejoin="round"/>
<path d="M67.107 86.3127L72.6744 81.3933C73.8401 80.3725 75.5813 80.3725 76.747 81.3933L105.285 106.585C107.293 108.344 110.369 108.041 111.997 105.926C113.483 103.993 113.214 101.239 111.381 99.631L80.9155 72.6799C77.3658 69.5647 72.0562 69.5647 68.5059 72.6799L60.5352 79.7374" stroke="#663366" stroke-width="4.10156" stroke-miterlimit="10" stroke-linecap="round" stroke-linejoin="round"/>
<path d="M75.1415 107.08V138.903C75.1415 141.164 73.3089 142.996 71.0484 142.996H19.4896C17.2291 142.996 15.3965 141.164 15.3965 138.903V107.08" stroke="#663366" stroke-width="4.10156" stroke-miterlimit="10" stroke-linecap="round" stroke-linejoin="round"/>
<path d="M17.6148 91.6712L8.62496 99.6309C6.79266 101.239 6.52332 103.993 8.00973 105.925C9.63723 108.042 12.7131 108.343 14.7213 106.585L43.2329 81.3935C44.3985 80.3725 46.14 80.3725 47.3054 81.3935L75.8436 106.585C77.8514 108.343 80.9276 108.042 82.5551 105.925C84.0415 103.993 83.7724 101.239 81.9398 99.6309L51.4743 72.6798C47.9239 69.5646 42.6143 69.5646 39.0643 72.6798L23.0242 86.8819" stroke="#663366" stroke-width="4.10156" stroke-miterlimit="10" stroke-linecap="round" stroke-linejoin="round"/>
<path d="M55.418 128.004H74.966" stroke="#663366" stroke-width="4.10156" stroke-miterlimit="10" stroke-linecap="round" stroke-linejoin="round"/>
<path d="M15.5723 128.004H36.3169" stroke="#663366" stroke-width="4.10156" stroke-miterlimit="10" stroke-linecap="round" stroke-linejoin="round"/>
<path d="M53.3609 101.49C53.3609 105.959 49.7381 109.582 45.2693 109.582C40.8005 109.582 37.1777 105.959 37.1777 101.49C37.1777 97.0217 40.8005 93.3989 45.2693 93.3989C49.7381 93.3989 53.3609 97.0217 53.3609 101.49Z" stroke="#663366" stroke-width="4.10156" stroke-miterlimit="10" stroke-linecap="round" stroke-linejoin="round"/>
<path d="M53.1279 142.996H37.4102V127.322C37.4102 123.681 40.3616 120.729 44.003 120.729H46.535C50.1761 120.729 53.1279 123.681 53.1279 127.322V142.996Z" stroke="#663366" stroke-width="4.10156" stroke-miterlimit="10" stroke-linecap="round" stroke-linejoin="round"/>
<path d="M39.7877 72.1055C39.531 71.476 39.4243 70.7766 39.505 70.0577L40.5435 60.8314C40.6786 59.6313 40.2887 58.4314 39.4744 57.5397L33.211 50.6849C31.75 49.0859 31.75 46.637 33.2107 45.0382L39.4744 38.1828C40.2889 37.2914 40.6786 36.0916 40.5438 34.8914L39.5053 25.6648C39.263 23.5118 40.7043 21.5296 42.827 21.096L51.9234 19.2377C53.1093 18.9957 54.132 18.252 54.7283 17.1989L59.2997 9.12488C60.3688 7.23707 62.7029 6.47883 64.6768 7.37817L73.1228 11.2252C74.225 11.7272 75.4905 11.7272 76.593 11.2252L85.0389 7.37817C87.0131 6.47883 89.3472 7.23707 90.416 9.12488L94.9879 17.1992C95.5843 18.2522 96.6069 18.9957 97.7926 19.238L106.889 21.0962C109.012 21.5299 110.453 23.5121 110.211 25.6654L109.172 34.8917C109.037 36.0916 109.427 37.2917 110.241 38.1831L116.505 45.0382C117.965 46.637 117.965 49.0859 116.505 50.6849L110.241 57.54C109.427 58.4317 109.037 59.6315 109.172 60.8316L110.21 70.058C110.285 70.7232 110.2 71.3721 109.983 71.9638" stroke="#663366" stroke-width="4.10156" stroke-miterlimit="10" stroke-linecap="round" stroke-linejoin="round"/>
<path d="M80.5548 30.7725C80.5548 30.7725 77.3118 27.7814 72.3131 29.2872C67.7232 30.6699 66.5832 36.95 69.7026 39.3964C71.4933 40.8011 74.1883 41.9558 77.8198 43.2396C85.9486 46.1129 82.9435 57.5762 74.6753 57.6314C71.4485 57.6528 69.9402 57.448 67.1055 55.5938" stroke="#663366" stroke-width="4.10156" stroke-miterlimit="10" stroke-linecap="round" stroke-linejoin="round"/>
<path d="M74.6758 24.994V62.5977" stroke="#663366" stroke-width="4.10156" stroke-miterlimit="10" stroke-linecap="round" stroke-linejoin="round"/>
</g>
</svg>
