<svg width="150" height="150" viewBox="0 0 150 150" fill="none" xmlns="http://www.w3.org/2000/svg">
<path d="M22.8991 86.3808V71.1289H5V127.559H22.8991V91.2889" stroke="#663366" stroke-width="4.23226" stroke-miterlimit="10"/>
<path d="M127.102 96.2736V127.559H145.001V71.1289H127.102V91.5487" stroke="#663366" stroke-width="4.23226" stroke-miterlimit="10"/>
<path d="M69.377 138.623L74.3273 143.536C76.3932 145.602 79.7429 145.602 81.8088 143.536C83.8747 141.471 83.8747 138.121 81.8088 136.055L84.9156 139.124C86.9815 141.19 90.3312 141.19 92.3973 139.124C94.4167 137.105 94.4568 133.863 92.5288 131.788L94.3893 133.649C96.4552 135.714 99.8049 135.714 101.871 133.649C103.905 131.614 103.932 128.339 101.961 126.267L104.82 129.126C106.749 130.675 110.099 130.675 112.165 128.61C114.23 126.544 114.23 123.194 112.165 121.128L104.688 113.664" stroke="#663366" stroke-width="4.23226" stroke-miterlimit="10"/>
<path d="M22.9004 119.098H32.1191" stroke="#663366" stroke-width="4.23226" stroke-miterlimit="10"/>
<path d="M22.9004 76.7733H48.6819L55.7295 69.6642C57.2929 68.087 59.4138 67.1875 61.6343 67.1596L73.3794 67.0117" stroke="#663366" stroke-width="4.23226" stroke-miterlimit="10"/>
<path d="M77.1895 131.512L81.8088 136.056" stroke="#663366" stroke-width="4.23226" stroke-miterlimit="10"/>
<path d="M84.6777 124.027L92.5286 131.788" stroke="#663366" stroke-width="4.23226" stroke-miterlimit="10"/>
<path d="M92.5293 116.945L101.962 126.268" stroke="#663366" stroke-width="4.23226" stroke-miterlimit="10"/>
<path d="M56.356 105.62L45.5299 116.446C43.464 118.512 43.464 121.862 45.5299 123.927C47.5958 125.993 50.9455 125.993 52.8743 124.444L64.0271 113.291C66.1455 111.172 66.1455 107.738 64.0271 105.62C61.9087 103.502 58.4744 103.502 56.356 105.62Z" stroke="#663366" stroke-width="4.23226" stroke-miterlimit="10"/>
<path d="M42.109 104.526L33.2779 113.357C31.212 115.423 31.212 118.773 33.2779 120.839C35.3439 122.905 38.6935 122.905 40.6223 121.355L49.7801 112.197C51.8985 110.079 51.8985 106.644 49.7801 104.526C47.6617 102.408 44.2271 102.408 42.109 104.526Z" stroke="#663366" stroke-width="4.23226" stroke-miterlimit="10"/>
<path d="M64.0259 113.292L53.1998 124.118C51.1339 126.184 51.1339 129.534 53.1998 131.6C55.2657 133.665 58.6154 133.665 60.5442 132.116L71.6971 120.963C73.8154 118.844 73.8154 115.41 71.6971 113.292C69.5787 111.174 66.144 111.174 64.0259 113.292Z" stroke="#663366" stroke-width="4.23226" stroke-miterlimit="10"/>
<path d="M69.7027 122.956L60.8717 131.787C58.8058 133.853 58.8058 137.203 60.8717 139.269C62.9376 141.334 66.2873 141.334 68.2161 139.785L77.3738 130.627C79.4922 128.508 79.4922 125.074 77.3738 122.956C75.2555 120.838 71.8211 120.838 69.7027 122.956Z" stroke="#663366" stroke-width="4.23226" stroke-miterlimit="10"/>
<path d="M127.101 76.7908H104.89L94.2584 68.7309C92.7869 67.6152 90.991 67.0117 89.1447 67.0117H73.3778L52.7715 87.2304L56.648 91.4764C59.8727 95.0087 65.3814 95.1695 68.8067 91.8314L75.8559 84.8837L110.628 119.606L127.1 119.096" stroke="#663366" stroke-width="4.23226" stroke-miterlimit="10"/>
<path d="M75.8574 84.8828L86.7304 95.7402C89.9951 99.0005 95.2697 99.0454 98.5894 95.8413L100.456 94.0397" stroke="#663366" stroke-width="4.23226" stroke-miterlimit="10"/>
<path d="M134.314 108.938H138.547" stroke="#663366" stroke-width="4.23226" stroke-miterlimit="10"/>
<path d="M11.5781 108.938H15.8104" stroke="#663366" stroke-width="4.23226" stroke-miterlimit="10"/>
<path d="M75.0003 66.856C80.4542 66.856 84.8755 62.4347 84.8755 56.9807C84.8755 51.5268 80.4542 47.1055 75.0003 47.1055C69.5463 47.1055 65.125 51.5268 65.125 56.9807C65.125 62.4347 69.5463 66.856 75.0003 66.856Z" stroke="#663366" stroke-width="4.23226" stroke-miterlimit="10"/>
<path d="M49.6432 15.8802L30.5802 39.4223L11.5176 15.8802L15.7851 5.03516H45.3757L49.6432 15.8802Z" stroke="#663366" stroke-width="4.23226" stroke-miterlimit="10"/>
<path d="M11.5176 15.8789H49.6432" stroke="#663366" stroke-width="4.23226" stroke-miterlimit="10"/>
<path d="M37.4753 5V15.7217L30.5801 39.4224L23.4648 15.8803V5" stroke="#663366" stroke-width="4.23226" stroke-miterlimit="2"/>
<path d="M65.1248 56.9798H38.9333C34.2583 56.9798 30.4688 53.1903 30.4688 48.5153L30.5791 39.4219" stroke="#663366" stroke-width="4.23226" stroke-miterlimit="10"/>
<path d="M119.488 41.2734V48.5154C119.488 53.1904 115.698 56.9799 111.023 56.9799H84.877" stroke="#663366" stroke-width="4.23226" stroke-miterlimit="10"/>
<path d="M18.6328 39.4219H42.5538" stroke="#663366" stroke-width="4.23226" stroke-miterlimit="10"/>
<path d="M104.705 39.4219H134.269" stroke="#663366" stroke-width="4.23226" stroke-miterlimit="10"/>
<path d="M135.248 15.0395C136.25 17.2228 136.809 19.6518 136.809 22.2112C136.809 31.7166 129.103 39.4224 119.598 39.4224C110.093 39.4224 102.387 31.7166 102.387 22.2112C102.387 12.7058 110.093 5 119.598 5C125.012 5 129.842 7.49957 132.997 11.4076" stroke="#663366" stroke-width="4.23226" stroke-miterlimit="10"/>
<path d="M122.695 15.2098C122.695 15.2098 120.932 13.5835 118.214 14.4023C115.719 15.154 115.099 18.5686 116.795 19.8989C117.768 20.6627 119.234 21.2905 121.208 21.9885C125.628 23.5508 123.994 29.7835 119.499 29.8134C117.744 29.825 116.924 29.7138 115.383 28.7057" stroke="#663366" stroke-width="4.23226" stroke-miterlimit="10"/>
<path d="M119.5 29.8164V39.4242" stroke="#663366" stroke-width="4.23226" stroke-miterlimit="10"/>
<path d="M119.5 14.1733V5" stroke="#663366" stroke-width="4.23226" stroke-miterlimit="10"/>
</svg>
