<svg width="150" height="150" viewBox="0 0 150 150" fill="none" xmlns="http://www.w3.org/2000/svg">
<mask id="mask0_618_172" style="mask-type:luminance" maskUnits="userSpaceOnUse" x="5" y="5" width="140" height="140">
<path d="M5 5H145V145H5V5Z" fill="white"/>
</mask>
<g mask="url(#mask0_618_172)">
<path d="M80.1597 134.268C82.0081 136.001 81.1036 139.024 79.3331 140.796C77.3362 142.796 74.1307 142.717 72.064 140.789L67.1348 136.181" stroke="#663366" stroke-width="5.51688" stroke-miterlimit="10" stroke-linecap="round" stroke-linejoin="round"/>
<path d="M62.7446 128.145C63.2595 127.677 63.7743 127.31 64.2887 127.045C69.2026 124.421 73.4923 130.473 69.7093 133.87L66.0515 137.158C60.7635 141.905 55.0309 135.103 59.2659 131.285" stroke="#663366" stroke-width="5.51688" stroke-miterlimit="10" stroke-linecap="round" stroke-linejoin="round"/>
<path d="M84.9648 97.1581L104.37 114.416C112.169 121.351 103.871 129.559 97.1085 122.148" stroke="#663366" stroke-width="5.51688" stroke-miterlimit="10" stroke-linecap="round" stroke-linejoin="round"/>
<path d="M86.6973 111.852L97.1098 122.146C99.122 124.129 99.1064 127.424 97.1098 129.424C95.1131 131.423 91.5486 131.454 89.5911 129.415L89.0762 128.885" stroke="#663366" stroke-width="5.51688" stroke-miterlimit="10" stroke-linecap="round" stroke-linejoin="round"/>
<path d="M81.5325 121.265L89.1447 128.887C92.7481 132.503 87.7097 141.358 80.9162 134.978L77.6562 131.909" stroke="#663366" stroke-width="5.51688" stroke-miterlimit="10" stroke-linecap="round" stroke-linejoin="round"/>
<path d="M139.96 85.6852L117.482 56.8923C115.743 54.6586 112.475 54.2369 110.22 55.9475L95.5106 67.1612C93.257 68.8792 92.8356 72.105 94.5826 74.3381L117.053 103.131C118.8 105.365 122.068 105.786 124.314 104.068L139.032 92.8619C141.286 91.1439 141.699 87.9187 139.96 85.6852Z" stroke="#663366" stroke-width="5.51688" stroke-miterlimit="10" stroke-linecap="round" stroke-linejoin="round"/>
<path d="M115.914 101.677C112.693 107.659 111.828 108.518 104.371 114.414M84.9662 97.1558L79.3739 92.0638L70.4122 96.5075C62.8859 99.8338 54.5717 90.5175 66.5595 82.7399L75.2247 77.1169C81.2067 73.2281 87.3607 73.3995 94.5671 74.3213" stroke="#663366" stroke-width="5.51688" stroke-miterlimit="10" stroke-linecap="round" stroke-linejoin="round"/>
<path d="M32.4199 104.811L37.0216 111.113M74.0847 77.8537L55.7012 75.0422" stroke="#663366" stroke-width="5.51688" stroke-miterlimit="10" stroke-linecap="round" stroke-linejoin="round"/>
<path d="M52.177 110.941C58.0657 105.74 64.3518 113.62 59.7427 117.681L51.0228 125.35C46.2808 129.536 40.1348 122.093 44.1045 118.267C44.83 117.572 44.401 117.963 44.565 117.814C44.7365 117.666 52.177 110.941 52.177 110.941Z" stroke="#663366" stroke-width="5.51688" stroke-miterlimit="10" stroke-linecap="round" stroke-linejoin="round"/>
<path d="M37.0221 111.111L46.3346 102.833C52.2154 97.6162 58.3768 105.34 53.8219 109.455L52.1763 110.939L43.5346 118.732C38.66 123.137 32.4752 115.148 37.0221 111.111Z" stroke="#663366" stroke-width="5.51688" stroke-miterlimit="10" stroke-linecap="round" stroke-linejoin="round"/>
<path d="M59.1651 118.188C65.0459 112.979 71.114 120.593 66.5591 124.709L58.5099 131.971C53.8929 136.141 46.9591 128.934 52.1692 124.342L53.0896 123.537" stroke="#663366" stroke-width="5.51688" stroke-miterlimit="10" stroke-linecap="round" stroke-linejoin="round"/>
<path d="M45.9531 34.7767C45.9531 45.0612 51.6857 54.0111 60.1248 58.5868C63.9464 60.6488 68.314 61.8281 72.9627 61.8281C87.8831 61.8281 99.9797 49.7157 99.9797 34.7767C99.9797 23.9762 93.6466 14.6443 84.498 10.3182C81.004 8.66257 77.0886 7.73343 72.9627 7.73343C58.0421 7.73343 45.9531 19.8453 45.9531 34.7767Z" stroke="#663366" stroke-width="5.51688" stroke-miterlimit="10" stroke-linecap="round" stroke-linejoin="round"/>
<path d="M81.5951 38.7752C81.5951 40.9072 80.979 42.6173 79.7469 43.9063C78.5222 45.1947 77.0249 46.0459 75.2776 46.4517V50.3332C75.2776 51.6604 74.1469 52.7539 72.8131 52.7539C71.4869 52.7539 70.403 51.6604 70.403 50.3332V46.4752C69.3109 46.233 68.3285 45.8269 67.4469 45.265C66.5424 44.687 65.9105 44.1795 65.5594 43.7417L65.0212 43.0469C62.7908 40.1263 66.4721 37.0028 68.609 39.2516C68.8742 39.525 69.1474 39.8531 69.4591 40.2045C70.3563 41.2042 71.6666 41.3603 72.7352 41.3603C74.7551 41.3603 75.769 40.5244 75.769 38.8534C75.769 38.2521 75.3867 37.7914 74.6224 37.4633C73.8582 37.1278 72.9299 36.8387 71.8304 36.573C70.7383 36.3154 69.6464 35.964 68.5546 35.5265C67.4551 35.0896 66.5268 34.3393 65.7623 33.2698C64.998 32.1999 64.616 30.8491 64.616 29.2008C64.616 27.5613 65.1383 26.0932 66.168 24.7654C67.1896 23.4614 68.6637 22.579 70.4419 22.2273V18.9166C70.4419 17.5887 71.534 16.4958 72.8599 16.4958C74.1934 16.4958 75.2776 17.5887 75.2776 18.9166V19.9316V22.2664C76.0419 22.4305 76.7438 22.6572 77.3678 22.9615C77.9997 23.2661 78.4364 23.5084 78.686 23.7034L79.0527 24.0315C82.2267 26.4134 79.1618 30.6304 76.4241 28.3266C74.568 26.7645 70.3563 26.4134 70.3563 29.287C70.3563 29.8885 70.6371 30.3725 71.1987 30.7477C71.7601 31.1141 72.4464 31.364 73.2654 31.4816C74.092 31.6062 74.9891 31.8097 75.9719 32.0984C76.9625 32.3872 77.8594 32.7227 78.686 33.1058C79.5049 33.4883 80.1913 34.1675 80.7529 35.1361C81.3146 36.1125 81.5951 37.3227 81.5951 38.7752Z" fill="#663366"/>
<path d="M20.5117 73.3711L20.5429 73.332" stroke="#663366" stroke-width="5.51688" stroke-miterlimit="10" stroke-linecap="round" stroke-linejoin="round"/>
<path d="M27.1557 64.8569L32.514 57.9925C34.261 55.7591 37.5291 55.3374 39.7751 57.0552L54.4932 68.2614C56.7466 69.9797 57.1603 73.2049 55.4212 75.4386L32.943 104.231C31.2037 106.464 27.9358 106.886 25.6816 105.176L10.9718 93.9618C8.71784 92.2438 8.29647 89.0186 10.0437 86.7852L13.8656 81.889" stroke="#663366" stroke-width="5.51688" stroke-miterlimit="10" stroke-linecap="round" stroke-linejoin="round"/>
</g>
</svg>
