<svg width="150" height="150" viewBox="0 0 150 150" fill="none" xmlns="http://www.w3.org/2000/svg">
<path d="M137.289 95.1399C139.339 88.7951 140.447 82.0267 140.447 74.9997C140.447 67.9726 139.339 61.2042 137.289 54.8594" stroke="#663366" stroke-width="4.22535" stroke-miterlimit="10" stroke-linecap="round" stroke-linejoin="round"/>
<path d="M54.8594 137.289C61.2042 139.339 67.9726 140.447 74.9997 140.447C82.0267 140.447 88.7951 139.339 95.1399 137.289" stroke="#663366" stroke-width="4.22535" stroke-miterlimit="10" stroke-linecap="round" stroke-linejoin="round"/>
<path d="M12.7102 54.8594C10.6601 61.2042 9.55273 67.9726 9.55273 74.9997C9.55273 82.0267 10.6603 88.7951 12.7102 95.1399" stroke="#663366" stroke-width="4.22535" stroke-miterlimit="10" stroke-linecap="round" stroke-linejoin="round"/>
<path d="M95.1399 12.7122C88.7951 10.662 82.0267 9.55469 74.9997 9.55469C67.9726 9.55469 61.2042 10.6623 54.8594 12.7122" stroke="#663366" stroke-width="4.22535" stroke-miterlimit="10" stroke-linecap="round" stroke-linejoin="round"/>
<path d="M33.7392 144.999H15.5279C13.642 144.999 12.1133 143.47 12.1133 141.584V109.145C12.1133 107.259 13.642 105.73 15.5279 105.73H33.7392C35.6251 105.73 37.1538 107.259 37.1538 109.145V141.584C37.1538 143.47 35.6251 144.999 33.7392 144.999Z" stroke="#663366" stroke-width="4.22535" stroke-miterlimit="10" stroke-linecap="round" stroke-linejoin="round"/>
<path d="M23.2109 136.465H26.0566" stroke="#663366" stroke-width="4.22535" stroke-miterlimit="10" stroke-linecap="round" stroke-linejoin="round"/>
<path d="M5 23.7812C5 25.6672 6.52873 27.1959 8.41465 27.1959H40.8535C42.7394 27.1959 44.2682 25.6672 44.2682 23.7812" stroke="#663366" stroke-width="4.22535" stroke-miterlimit="10" stroke-linecap="round" stroke-linejoin="round"/>
<path d="M30.9859 47.1126H40.8535C42.7408 47.1126 44.2676 45.5859 44.2676 43.6985V16.9521C44.2676 15.0647 42.7408 13.5352 40.8535 13.5352H8.41408C6.52958 13.5352 5 15.0647 5 16.9521V43.6985C5 45.5859 6.52958 47.1126 8.41408 47.1126H21.1268" stroke="#663366" stroke-width="4.22535" stroke-miterlimit="10" stroke-linecap="round" stroke-linejoin="round"/>
<path d="M24.6348 31.179V27.1953" stroke="#663366" stroke-width="4.22535" stroke-miterlimit="10" stroke-linecap="round" stroke-linejoin="round"/>
<path d="M16.0977 13.5366V8.41465C16.0977 6.52873 17.6264 5 19.5123 5H29.7562C31.6422 5 33.1709 6.52873 33.1709 8.41465V13.5366" stroke="#663366" stroke-width="4.22535" stroke-miterlimit="10" stroke-linecap="round" stroke-linejoin="round"/>
<path d="M111.402 9.14084C114.906 6.53803 119.242 5 123.943 5C135.571 5 144.999 14.4282 144.999 26.0563C144.999 37.6873 135.571 47.1127 123.943 47.1127C112.312 47.1127 102.887 37.6873 102.887 26.0563C102.887 22.6704 103.687 19.4704 105.106 16.6366" stroke="#663366" stroke-width="4.22535" stroke-miterlimit="10" stroke-linecap="round" stroke-linejoin="round"/>
<path d="M123.943 13.8203V38.2919" stroke="#663366" stroke-width="4.22535" stroke-miterlimit="10" stroke-linecap="round" stroke-linejoin="round"/>
<path d="M112.561 27.5249L123.943 18.9883L135.325 27.5249" stroke="#663366" stroke-width="4.22535" stroke-miterlimit="10" stroke-linecap="round" stroke-linejoin="round"/>
<path d="M119.676 37.1975L123.944 33.9961L128.212 37.1975" stroke="#663366" stroke-width="4.22535" stroke-miterlimit="10" stroke-linecap="round" stroke-linejoin="round"/>
<path d="M141.682 113.459C136.874 108.38 128.857 108.297 123.944 113.21C119.03 108.296 111.013 108.379 106.205 113.459C101.571 118.354 101.863 126.121 106.63 130.888L118.476 142.735C121.496 145.754 126.392 145.754 129.411 142.735L141.258 130.888C146.024 126.121 146.317 118.354 141.682 113.459Z" stroke="#663366" stroke-width="4.22535" stroke-miterlimit="10" stroke-linecap="round" stroke-linejoin="round"/>
<path d="M81.5447 72.2148V78.7196C81.5447 82.3334 78.6137 85.2644 74.9999 85.2644C71.3861 85.2644 68.4551 82.3334 68.4551 78.7196V72.2148" stroke="#663366" stroke-width="4.22535" stroke-miterlimit="10" stroke-linecap="round" stroke-linejoin="round"/>
<path d="M88.9434 50.8359H91.5042C94.0186 50.8359 96.0572 52.8742 96.0572 55.3889C96.0572 57.9033 94.0189 59.9418 91.5042 59.9418H88.9434" stroke="#663366" stroke-width="4.22535" stroke-miterlimit="10" stroke-linecap="round" stroke-linejoin="round"/>
<path d="M88.659 50.8359V59.9416C88.659 67.4849 82.5438 73.6002 75.0004 73.6002C67.457 73.6002 61.3418 67.4849 61.3418 59.9416V50.8359" stroke="#663366" stroke-width="4.22535" stroke-miterlimit="10" stroke-linecap="round" stroke-linejoin="round"/>
<path d="M91.504 50.8342V46.2813C91.504 37.1664 84.115 29.7773 75 29.7773C65.8851 29.7773 58.4961 37.1664 58.4961 46.2813V50.8342H73.5445C74.9564 50.8342 76.3352 50.408 77.5006 49.6111L81.4028 46.9433L82.1482 47.9624C83.4682 49.7672 85.5699 50.834 87.8059 50.834H91.504V50.8342Z" stroke="#663366" stroke-width="4.22535" stroke-miterlimit="10" stroke-linecap="round" stroke-linejoin="round"/>
<path d="M81.5438 78.7227H89.2283C95.5128 78.7227 100.609 83.8184 100.609 90.1029V104.858H79.9297" stroke="#663366" stroke-width="4.22535" stroke-miterlimit="10" stroke-linecap="round" stroke-linejoin="round"/>
<path d="M68.4554 78.7227H60.7709C54.4864 78.7227 49.3906 83.8184 49.3906 90.1029V104.858H70.0695" stroke="#663366" stroke-width="4.22535" stroke-miterlimit="10" stroke-linecap="round" stroke-linejoin="round"/>
<path d="M61.0572 50.8359H58.4963C55.9819 50.8359 53.9434 52.8742 53.9434 55.3889C53.9434 57.9033 55.9817 59.9418 58.4963 59.9418H61.0572" stroke="#663366" stroke-width="4.22535" stroke-miterlimit="10" stroke-linecap="round" stroke-linejoin="round"/>
<path d="M89.2285 96.4023V104.856" stroke="#663366" stroke-width="4.22535" stroke-miterlimit="10" stroke-linecap="round" stroke-linejoin="round"/>
<path d="M60.7734 96.4023V104.856" stroke="#663366" stroke-width="4.22535" stroke-miterlimit="10" stroke-linecap="round" stroke-linejoin="round"/>
</svg>
