<svg width="150" height="150" viewBox="0 0 150 150" fill="none" xmlns="http://www.w3.org/2000/svg">
<path d="M58.1851 26.168H46.416V144.999H103.584V26.168H91.8151" stroke="#663366" stroke-width="4" stroke-miterlimit="10" stroke-linejoin="round"/>
<path d="M63.4291 38.7422H46.416" stroke="#663366" stroke-width="4" stroke-miterlimit="10" stroke-linejoin="round"/>
<path d="M103.583 38.7422H86.6172" stroke="#663366" stroke-width="4" stroke-miterlimit="10" stroke-linejoin="round"/>
<path d="M103.584 145.001H145V80.4297H103.584" stroke="#663366" stroke-width="4" stroke-miterlimit="10" stroke-linejoin="round"/>
<path d="M81.2862 55.2852H68.7148V67.8566H81.2862V55.2852Z" stroke="#663366" stroke-width="4" stroke-miterlimit="10" stroke-linecap="round" stroke-linejoin="round"/>
<path d="M81.2862 80.4297H68.7148V93.0011H81.2862V80.4297Z" stroke="#663366" stroke-width="4" stroke-miterlimit="10" stroke-linecap="round" stroke-linejoin="round"/>
<path d="M81.2862 105.57H68.7148V118.142H81.2862V105.57Z" stroke="#663366" stroke-width="4" stroke-miterlimit="10" stroke-linecap="round" stroke-linejoin="round"/>
<path d="M131.585 93H116.156V105.571H131.585V93Z" stroke="#663366" stroke-width="4" stroke-miterlimit="10" stroke-linecap="round" stroke-linejoin="round"/>
<path d="M131.585 118.145H116.156V130.716H131.585V118.145Z" stroke="#663366" stroke-width="4" stroke-miterlimit="10" stroke-linecap="round" stroke-linejoin="round"/>
<path d="M46.4159 145.001H5V80.4297H46.4159" stroke="#663366" stroke-width="4" stroke-miterlimit="10" stroke-linejoin="round"/>
<path d="M33.8446 93H18.416V105.571H33.8446V93Z" stroke="#663366" stroke-width="4" stroke-miterlimit="10" stroke-linecap="round" stroke-linejoin="round"/>
<path d="M33.8446 118.145H18.416V130.716H33.8446V118.145Z" stroke="#663366" stroke-width="4" stroke-miterlimit="10" stroke-linecap="round" stroke-linejoin="round"/>
<path d="M87.5725 145.001V130.715H62.4297V145.001" stroke="#663366" stroke-width="4" stroke-miterlimit="10" stroke-linecap="round" stroke-linejoin="round"/>
<path d="M145 80.4308V67.8594H103.584" stroke="#663366" stroke-width="4" stroke-miterlimit="10" stroke-linejoin="round"/>
<path d="M5 80.4308V67.8594H46.4159" stroke="#663366" stroke-width="4" stroke-miterlimit="10" stroke-linejoin="round"/>
<path d="M124.293 67.288V53.4141" stroke="#663366" stroke-width="4" stroke-miterlimit="10" stroke-linecap="round" stroke-linejoin="round"/>
<path d="M26.1309 67.288V53.4141" stroke="#663366" stroke-width="4" stroke-miterlimit="10" stroke-linecap="round" stroke-linejoin="round"/>
<path d="M75.0005 42.7394C85.422 42.7394 93.8702 34.2911 93.8702 23.8697C93.8702 13.4482 85.422 5 75.0005 5C64.5791 5 56.1309 13.4482 56.1309 23.8697C56.1309 34.2911 64.5791 42.7394 75.0005 42.7394Z" stroke="#663366" stroke-width="4" stroke-miterlimit="10" stroke-linejoin="round"/>
<path d="M74.9994 42.7394C78.4779 42.7394 81.2977 34.2911 81.2977 23.8697C81.2977 13.4482 78.4779 5 74.9994 5C71.521 5 68.7012 13.4482 68.7012 23.8697C68.7012 34.2911 71.521 42.7394 74.9994 42.7394Z" stroke="#663366" stroke-width="4" stroke-miterlimit="10" stroke-linejoin="round"/>
<path d="M56.1309 23.8711H93.8702" stroke="#663366" stroke-width="4" stroke-miterlimit="10" stroke-linejoin="round"/>
</svg>
