<svg width="150" height="150" viewBox="0 0 150 150" fill="none" xmlns="http://www.w3.org/2000/svg">
<path d="M93.8517 29.6012C94.1646 23.7298 89.7612 18.6615 83.8252 18.0625C80.4879 17.7164 77.4345 18.815 74.9996 21.1638C72.5646 18.8158 69.5163 17.7236 66.1746 18.0625C60.2394 18.6615 55.8353 23.7298 56.1481 29.602C56.456 35.338 59.697 43.5437 73.3888 50.0605C73.8929 50.3009 74.4462 50.4212 74.9996 50.4212C75.5529 50.4212 76.1062 50.3009 76.6103 50.0612C90.3058 43.5423 93.5461 35.3366 93.8517 29.6012ZM60.5921 29.3637C60.4053 25.8692 63.0538 22.8498 66.6222 22.4891C66.8648 22.4652 67.1009 22.4529 67.3312 22.4529C70.1927 22.4529 72.0707 24.2708 73.1658 25.8641C73.9972 27.0707 76.0019 27.0707 76.8334 25.8641C78.0168 24.1433 80.1142 22.1748 83.3791 22.4891C86.9467 22.8498 89.5946 25.8692 89.4077 29.3637C89.1687 33.8547 86.4658 40.3512 74.9996 45.8982C63.5376 40.3527 60.8326 33.8547 60.5921 29.3637ZM136.888 95.7988C134.4 93.4095 131.63 91.8884 128.951 90.9297C130.424 89.1168 131.655 87.0841 132.607 84.8824C132.88 84.9187 133.148 84.9757 133.429 84.9757C137.299 84.9757 140.448 81.4356 140.448 77.0829C140.448 73.088 137.786 69.8128 134.356 69.2962C133.161 62.835 129.664 57.2561 124.822 53.5274C125.035 53.0407 125.194 52.4944 125.194 51.8682C125.194 50.5233 124.496 49.5151 123.988 48.7793C123.838 48.5635 123.633 48.2673 123.585 48.1412C123.53 48.0022 123.489 47.6864 123.452 47.4076C123.342 46.566 123.191 45.4144 122.315 44.4077C121.502 43.4756 120.398 43.0621 119.51 42.7297C119.145 42.5928 118.767 42.4516 118.556 42.3234C118.365 42.206 118.113 41.9728 117.847 41.7266C117.222 41.1465 116.366 40.3512 115.11 40.0108C113.947 39.6936 112.814 39.8892 111.906 40.0485C111.04 40.1991 110.466 40.1991 109.597 40.0485C108.69 39.8899 107.56 39.6951 106.391 40.0108C105.138 40.352 104.282 41.1457 103.658 41.7259C103.391 41.9728 103.139 42.206 102.95 42.3219C102.737 42.4508 102.359 42.5928 101.992 42.7297C101.106 43.0614 100.002 43.4749 99.188 44.407C98.3116 45.4152 98.161 46.5667 98.0509 47.4076C98.0147 47.6864 97.9741 48.0029 97.9205 48.1405C97.8713 48.2658 97.667 48.5613 97.5178 48.7771C97.008 49.5137 96.3098 50.5226 96.3098 51.8682C96.3098 52.4943 96.4685 53.0406 96.6815 53.5274C91.8397 57.2561 88.3428 62.8348 87.1475 69.296C83.718 69.8118 81.0557 73.0875 81.0557 77.0829C81.0557 81.4356 84.2033 84.9757 88.0737 84.9757C88.3554 84.9757 88.6233 84.9187 88.8964 84.8822C89.8492 87.0843 91.0811 89.1177 92.5546 90.931C89.8749 91.8894 87.1046 93.4101 84.6161 95.7988C77.7705 102.371 75.24 113.349 77.0912 128.425C77.3664 130.67 79.2886 132.363 81.5641 132.363H139.938C142.211 132.363 144.135 130.671 144.413 128.426C146.264 113.349 143.733 102.371 136.888 95.7988ZM134.817 74.2395C134.817 74.2291 134.815 74.2191 134.815 74.2088C135.52 74.8302 135.999 75.8958 135.999 77.0829C135.999 78.6452 135.17 79.9921 134.083 80.3931C134.545 78.4179 134.817 76.3641 134.817 74.2395ZM85.5055 77.0829C85.5055 75.8956 85.9838 74.8298 86.6889 74.2085C86.6889 74.2189 86.6875 74.229 86.6875 74.2395C86.6875 76.3643 86.9593 78.4182 87.4208 80.3935C86.3346 79.993 85.5055 78.6457 85.5055 77.0829ZM102.068 49.7534C102.317 49.1124 102.398 48.4867 102.463 47.9841C102.495 47.7393 102.544 47.3685 102.521 47.354C102.664 47.2294 103.199 47.0295 103.552 46.897C104.085 46.6978 104.689 46.4718 105.26 46.1242C105.837 45.7737 106.287 45.3565 106.684 44.9879C107.003 44.6931 107.362 44.3585 107.557 44.3056C107.772 44.2477 108.384 44.3549 108.835 44.4324C109.979 44.6308 111.523 44.6308 112.668 44.4324C113.115 44.3549 113.724 44.2455 113.945 44.3056C114.142 44.3592 114.503 44.6931 114.82 44.9886C115.217 45.3565 115.667 45.7737 116.244 46.1249C116.813 46.4711 117.417 46.6971 117.95 46.897C118.304 47.0288 118.837 47.2287 118.909 47.2584C118.96 47.3699 119.008 47.7407 119.041 47.9862C119.106 48.4889 119.189 49.1139 119.436 49.7512C119.551 50.0471 119.692 50.3141 119.84 50.5635C117.033 49.3409 113.968 48.6547 110.751 48.6547C107.535 48.6547 104.47 49.3409 101.664 50.5634C101.811 50.3148 101.953 50.0485 102.068 49.7534ZM110.751 53.1045C117.838 53.1045 124.041 57.1887 127.488 63.2738C125.269 63.1744 122.706 62.8211 119.91 62.0909C117.29 61.4058 114.833 60.4766 112.81 59.4054C111.526 58.7239 109.986 58.7196 108.694 59.4047C106.671 60.4766 104.216 61.4051 101.594 62.0909C98.7983 62.8206 96.2351 63.174 94.016 63.2733C97.4631 57.1885 103.665 53.1045 110.751 53.1045ZM91.1372 74.2395C91.1372 71.9732 91.4784 69.7933 92.0941 67.7451C92.2806 67.7486 92.4592 67.7632 92.648 67.7632C95.8521 67.7632 99.3777 67.2686 102.718 66.3959C105.669 65.6253 108.455 64.5671 110.725 63.3367C113.05 64.5671 115.837 65.6253 118.786 66.3959C122.324 67.3203 126.06 67.8105 129.411 67.7484C130.026 69.7957 130.367 71.9744 130.367 74.2395C130.367 85.894 121.567 95.3744 110.751 95.3744C99.9354 95.3744 91.1372 85.894 91.1372 74.2395ZM127.637 95.207L127.255 95.5236C126.485 96.1653 125.887 96.9982 125.523 97.9354L125.271 98.5901C125.042 99.1854 124.453 99.5722 123.798 99.5055C122.035 99.3505 120.317 99.9777 119.079 101.232L118.831 101.483C118.43 101.891 117.823 102.022 117.288 101.812L117.071 101.729C115.33 101.053 113.347 101.254 111.771 102.261L111.528 102.417C111.055 102.72 110.447 102.718 109.978 102.417L109.733 102.261C108.158 101.251 106.174 101.053 104.43 101.732L104.217 101.814C103.686 102.022 103.077 101.891 102.673 101.481L102.425 101.231C101.184 99.9763 99.4545 99.3462 97.7119 99.5041C97.6975 99.5055 97.6844 99.507 97.6699 99.5084C97.0413 99.5316 96.4575 99.1767 96.2316 98.5901L95.9795 97.9354C95.6174 96.9953 95.0163 96.161 94.2428 95.5207L93.8682 95.2101C94.6336 94.9287 95.3942 94.6963 96.1345 94.5161C100.192 97.8304 105.251 99.8242 110.751 99.8242C116.256 99.8242 121.319 97.8275 125.379 94.5086C126.117 94.6889 126.873 94.9249 127.637 95.207ZM139.938 127.913L133.54 127.91V111.548C133.54 110.32 132.544 109.323 131.316 109.323C130.087 109.323 129.091 110.32 129.091 111.548V127.908L92.4119 127.89V111.548C92.4119 110.32 91.4153 109.323 90.187 109.323C88.9587 109.323 87.9621 110.32 87.9621 111.548V127.888L81.5091 127.884C79.839 114.299 81.9118 104.594 87.6666 99.0391C88.2859 98.4414 88.9322 97.9154 89.5935 97.4446L91.4038 98.9464C91.5921 99.1028 91.7398 99.3071 91.8267 99.5345L92.0788 100.188C93.0188 102.63 95.4986 104.18 98.1001 103.938C98.1132 103.936 98.1262 103.935 98.1392 103.934C98.5651 103.913 98.9649 104.06 99.2618 104.359L99.5081 104.609C101.158 106.28 103.636 106.813 105.828 105.961L106.039 105.879C106.47 105.715 106.953 105.763 107.334 106.008L107.578 106.164C107.88 106.358 108.2 106.51 108.526 106.643V111.547C108.526 112.775 109.523 113.772 110.751 113.772C111.98 113.772 112.976 112.775 112.976 111.547V106.644C113.303 106.511 113.623 106.358 113.926 106.164L114.17 106.008C114.556 105.763 115.04 105.714 115.466 105.879L115.682 105.961C117.875 106.81 120.352 106.277 121.997 104.609L122.244 104.359C122.546 104.054 122.962 103.896 123.4 103.938C125.981 104.167 128.482 102.63 129.422 100.191L129.673 99.5388C129.763 99.3085 129.91 99.1028 130.097 98.9464L131.899 97.4529C132.55 97.9178 133.193 98.4203 133.805 99.0087C139.585 104.558 141.668 114.273 139.938 127.913ZM123.93 75.9878C124.629 76.9988 124.377 78.385 123.368 79.0847C122.981 79.3512 122.539 79.4801 122.102 79.4801C121.411 79.4801 120.731 79.1585 120.298 78.5603C120.119 78.3315 119.184 77.3175 117.209 77.9476C116.028 78.3141 114.787 77.6651 114.417 76.4933C114.048 75.3215 114.698 74.0722 115.87 73.7028C120.069 72.3818 122.911 74.519 123.93 75.9878ZM97.5729 75.9878C98.5926 74.5183 101.427 72.3781 105.632 73.7028C106.804 74.0722 107.455 75.3215 107.085 76.4933C106.716 77.6637 105.474 78.3141 104.294 77.9476C102.296 77.3132 101.365 78.3517 101.2 78.5661C100.757 79.1368 100.082 79.4439 99.4023 79.4439C98.9489 79.4439 98.4956 79.3077 98.1059 79.0224C97.134 78.3097 96.8877 76.98 97.5729 75.9878ZM101.123 69.991C101.123 69.0082 101.92 68.2108 102.903 68.2108C103.651 68.2108 103.967 68.1261 104.405 68.008C104.944 67.8632 105.613 67.6829 106.83 67.6829C108.047 67.6829 108.718 67.8632 109.256 68.008C109.695 68.1261 110.011 68.2108 110.759 68.2108C111.504 68.2108 111.82 68.1261 112.258 68.008C112.795 67.8632 113.464 67.6829 114.68 67.6829C115.895 67.6829 116.564 67.8632 117.101 68.008C117.539 68.1261 117.855 68.2108 118.601 68.2108C119.584 68.2108 120.381 69.0082 120.381 69.991C120.381 70.9738 119.584 71.7712 118.601 71.7712C117.384 71.7712 116.715 71.5909 116.176 71.4453C115.74 71.328 115.424 71.2432 114.68 71.2432C113.935 71.2432 113.619 71.328 113.183 71.4453C112.644 71.5909 111.975 71.7712 110.759 71.7712C109.542 71.7712 108.871 71.5909 108.332 71.446C107.893 71.328 107.578 71.2432 106.83 71.2432C106.084 71.2432 105.768 71.328 105.33 71.446C104.791 71.5909 104.12 71.7712 102.903 71.7712C101.92 71.7712 101.123 70.9738 101.123 69.991ZM116.739 85.1495C116.739 88.4057 114.052 91.055 110.751 91.055C107.45 91.055 104.763 88.4057 104.763 85.1495C104.763 83.9212 105.76 82.9246 106.988 82.9246H114.514C115.743 82.9246 116.739 83.9212 116.739 85.1495ZM123.146 86.1823C123.944 86.7573 124.127 87.8683 123.553 88.6665C123.205 89.1502 122.659 89.4081 122.106 89.4081C121.745 89.4081 121.383 89.2994 121.069 89.0735C118.169 86.9876 117.255 84.8207 117.161 84.5817C116.8 83.6663 117.249 82.6335 118.163 82.2728C119.071 81.9121 120.096 82.3539 120.463 83.2549C120.494 83.3215 121.146 84.7439 123.146 86.1823ZM104.343 84.5803C104.248 84.8207 103.335 86.9876 100.434 89.0735C100.119 89.2994 99.7558 89.4081 99.3965 89.4081C98.8432 89.4081 98.2971 89.1502 97.9495 88.6665C97.3759 87.8683 97.5584 86.7559 98.3565 86.1823C100.397 84.7164 101.033 83.2679 101.039 83.2534C101.422 82.3583 102.457 81.9252 103.357 82.2945C104.256 82.6639 104.698 83.6749 104.343 84.5803ZM57.3921 90.9104C58.8824 89.0993 60.1522 87.072 61.1584 84.8663C61.4777 84.9159 61.7947 84.9757 62.1261 84.9757C66.0196 84.9757 69.1868 81.4356 69.1868 77.0829C69.1868 73.2852 66.774 70.1084 63.5725 69.3601C62.0557 56.0233 51.7375 45.665 39.2486 45.665C26.7597 45.665 16.4414 56.0233 14.9247 69.3601C11.7231 70.1084 9.31039 73.2852 9.31039 77.0829C9.31039 81.4356 12.4775 84.9757 16.3711 84.9757C16.7025 84.9757 17.0194 84.9159 17.3388 84.8663C18.3452 87.0725 19.6153 89.1 21.1059 90.9114C18.4091 91.8685 15.6184 93.3918 13.1127 95.7974C6.26711 102.371 3.73514 113.349 5.58776 128.426C5.8637 130.671 7.78658 132.363 10.0614 132.363H68.4357C70.7106 132.363 72.6335 130.671 72.9094 128.426C74.762 113.347 72.2293 102.369 65.3837 95.7974C62.8788 93.3915 60.0886 91.8679 57.3921 90.9104ZM63.71 74.3863C64.3263 75.0225 64.737 75.9985 64.737 77.0829C64.737 78.6549 63.8846 80.0103 62.7706 80.4016C63.2859 78.4771 63.5964 76.4617 63.71 74.3863ZM13.7602 77.0829C13.7602 75.9985 14.1709 75.0225 14.7871 74.3863C14.9008 76.4617 15.2113 78.4771 15.7266 80.4016C14.6126 80.0103 13.7602 78.6549 13.7602 77.0829ZM39.2486 50.1148C48.6264 50.1148 56.5009 57.4026 58.7021 67.2078C57.1849 65.7325 55.5587 63.7041 54.4976 61.1009C53.7849 59.3497 52.083 58.209 50.1637 58.2836C48.4849 58.343 46.7597 58.4777 45.036 58.6841C43.0907 58.9166 41.3076 59.2208 39.7367 59.5872C39.4123 59.6625 39.0842 59.6625 38.7612 59.5872C37.1903 59.2208 35.4072 58.9173 33.4618 58.6841C31.7374 58.4777 30.0115 58.343 28.3335 58.2836C26.4265 58.1959 24.7115 59.349 23.9996 61.1002C22.9384 63.704 21.312 65.7327 19.795 67.208C21.9962 57.4026 29.8708 50.1148 39.2486 50.1148ZM19.1905 73.3869C21.3473 71.9804 25.7838 68.5334 28.1756 62.7305C29.7305 62.7855 31.3311 62.9108 32.9331 63.102C34.6916 63.3128 36.3574 63.5959 37.7508 63.9211C38.7445 64.1529 39.7519 64.1529 40.747 63.9211C42.1405 63.5959 43.8063 63.3128 45.5647 63.102C47.166 62.9108 48.7659 62.7855 50.3766 62.779C52.7264 68.5445 57.152 71.9825 59.3067 73.3872C59.001 85.5672 50.1319 95.3744 39.2486 95.3744C28.3651 95.3744 19.496 85.567 19.1905 73.3869ZM42.3093 99.5903L39.2486 104.199L36.1878 99.5903C37.1929 99.7292 38.2099 99.8242 39.2486 99.8242C40.2872 99.8242 41.3043 99.7292 42.3093 99.5903ZM68.4357 127.913L62.0377 127.91V111.548C62.0377 110.32 61.0419 109.323 59.8128 109.323C58.5838 109.323 57.588 110.32 57.588 111.548V127.908L20.9092 127.89V111.548C20.9092 110.32 19.9134 109.323 18.6843 109.323C17.4553 109.323 16.4594 110.32 16.4594 111.548V127.888L10.0042 127.884C8.33556 114.298 10.4076 104.593 16.1625 99.0377C18.7918 96.4999 21.8889 95.1736 24.6995 94.4994C26.1904 95.7172 27.7974 96.7682 29.5189 97.5925L36.4436 108.018C37.0686 108.96 38.1173 109.522 39.2486 109.522C40.3798 109.522 41.4286 108.96 42.0536 108.018L48.9783 97.5925C50.6971 96.7695 52.3018 95.7203 53.7906 94.5051C56.6041 95.1783 59.7017 96.4973 62.3339 99.0377C68.0895 104.593 70.1616 114.298 68.4357 127.913ZM52.4262 75.9863C53.1259 76.9959 52.8746 78.3821 51.865 79.0832C51.4782 79.3497 51.0364 79.4787 50.5997 79.4787C49.9088 79.4787 49.2294 79.1585 48.7956 78.5589C48.6174 78.3315 47.6832 77.3233 45.7052 77.9462C44.537 78.3126 43.2841 77.6651 42.9147 76.4919C42.5453 75.32 43.1964 74.0707 44.3683 73.7021C48.5631 72.3839 51.4087 74.5168 52.4262 75.9863ZM27.8975 79.4787C27.4607 79.4787 27.0189 79.3497 26.6322 79.0832C25.6226 78.3821 25.3713 76.9959 26.0709 75.9863C27.0899 74.5168 29.9326 72.3854 34.1289 73.7021C35.3007 74.0707 35.9518 75.32 35.5824 76.4919C35.2138 77.6651 33.9637 78.3126 32.7919 77.9462C30.6655 77.2755 29.7378 78.5082 29.7284 78.5212C29.2967 79.1441 28.6029 79.4787 27.8975 79.4787ZM29.6197 69.2284C29.6197 68.2456 30.4171 67.4482 31.3999 67.4482C32.1473 67.4482 32.4638 67.3635 32.9027 67.2454C33.4408 67.1013 34.1108 66.9209 35.3275 66.9209C36.5442 66.9209 37.2149 67.1013 37.753 67.2461C38.1919 67.3635 38.5084 67.4482 39.2551 67.4482C40.0003 67.4482 40.3168 67.3635 40.7543 67.2461C41.2924 67.1013 41.9616 66.9209 43.1769 66.9209C44.3922 66.9209 45.0621 67.1013 45.5995 67.2461C46.0369 67.3635 46.3527 67.4482 47.0972 67.4482C48.08 67.4482 48.8774 68.2456 48.8774 69.2284C48.8774 70.2112 48.08 71.0086 47.0972 71.0086C45.882 71.0086 45.2127 70.8283 44.6754 70.6834C44.2379 70.5661 43.9221 70.4813 43.1769 70.4813C42.4316 70.4813 42.1159 70.5661 41.6784 70.6834C41.1403 70.8283 40.4711 71.0086 39.2551 71.0086C38.0384 71.0086 37.3684 70.8283 36.8303 70.6841C36.3914 70.5661 36.0749 70.4813 35.3275 70.4813C34.5808 70.4813 34.2643 70.5661 33.8254 70.6834C33.2873 70.8283 32.6166 71.0086 31.3999 71.0086C30.4171 71.0086 29.6197 70.2112 29.6197 69.2284ZM27.1254 88.7794C26.3657 87.8133 26.5323 86.414 27.4977 85.655C28.3125 85.0138 28.8551 84.3919 29.2131 83.8996C29.2069 83.7166 29.2058 83.5323 29.2308 83.3447C29.4749 81.5196 31.1537 80.2304 32.9802 80.4781C35.5571 80.8229 36.3081 80.3738 36.3161 80.3709C36.9954 79.6192 38.0985 79.1383 39.2486 79.1383C40.3958 79.1383 41.4966 79.6163 42.2701 80.4491C42.2441 80.426 42.6467 80.6099 43.736 80.6099C44.1966 80.6099 44.7825 80.5766 45.5169 80.4781C47.3536 80.2319 49.0223 81.5196 49.2664 83.3447C49.2914 83.5328 49.2904 83.7177 49.2842 83.9012C49.6422 84.3931 50.1862 85.0153 50.9995 85.655C51.9649 86.414 52.1315 87.8133 51.3717 88.7794C50.9328 89.3371 50.2803 89.6282 49.622 89.6282C49.1403 89.6282 48.6551 89.4733 48.2473 89.1517C47.3672 88.4593 46.6967 87.7631 46.1645 87.119C45.3334 87.2214 44.5423 87.2788 43.8041 87.2788C42.0022 87.2788 40.4805 86.9746 39.2479 86.3691C37.5113 87.2223 35.1908 87.4655 32.3362 87.1148C31.8035 87.7601 31.1319 88.4578 30.2498 89.1517C29.8421 89.4733 29.3568 89.6282 28.8752 89.6282C28.2161 89.6283 27.5643 89.3371 27.1254 88.7794Z" fill="#663366"/>
</svg>
