<svg width="150" height="150" viewBox="0 0 150 150" fill="none" xmlns="http://www.w3.org/2000/svg">
<path d="M122.268 75.4573H63.1791V44.4335C63.1791 41.9906 61.1885 40 58.7455 40L14.4335 40.0057C11.9906 40.0057 10 41.9962 10 44.4392V106.479C10 108.922 11.9906 110.913 14.4335 110.913H122.268C131.803 111.111 140.195 102.725 139.997 93.1847C139.997 83.4072 132.045 75.4573 122.268 75.4573ZM12.9562 106.481V44.435C12.9562 43.6206 13.6178 42.9591 14.4321 42.9591H58.7499C59.5642 42.9591 60.2258 43.6207 60.2258 44.435V106.475C60.2258 107.29 59.5642 107.951 58.7499 107.951L14.4321 107.957C13.6178 107.957 12.9562 107.295 12.9562 106.481ZM132.718 103.631C129.93 106.419 126.221 107.957 122.268 107.957H62.9072C63.0712 107.493 63.1786 107.001 63.1786 106.481V78.4149H122.267C135.291 78.3301 141.992 94.5145 132.718 103.636L132.718 103.631Z" fill="#663366"/>
<path d="M122.267 82.8438C116.567 82.8438 111.924 87.4808 111.924 93.1867C112.445 106.883 132.09 106.883 132.604 93.1867C132.604 87.4865 127.967 82.8438 122.261 82.8438H122.267ZM122.267 100.572C118.196 100.572 114.882 97.2581 114.882 93.1865C115.227 83.4091 129.308 83.4147 129.652 93.1865C129.652 97.2581 126.339 100.572 122.267 100.572Z" fill="#663366"/>
<path d="M98.6354 82.8438C92.9352 82.8438 88.2925 87.4808 88.2925 93.1867C88.8127 106.883 108.459 106.883 108.973 93.1867C108.973 87.4865 104.336 82.8438 98.6296 82.8438H98.6354ZM98.6354 100.572C94.5638 100.572 91.2499 97.2581 91.2499 93.1865C91.5949 83.4091 105.676 83.4147 106.021 93.1865C106.021 97.2581 102.707 100.572 98.6354 100.572Z" fill="#663366"/>
<path d="M74.9977 82.8438C69.2975 82.8438 64.6548 87.4808 64.6548 93.1867C65.1751 106.883 84.821 106.883 85.3349 93.1867C85.3349 87.4865 80.6978 82.8438 74.9919 82.8438H74.9977ZM74.9977 100.572C70.9261 100.572 67.6122 97.2581 67.6122 93.1865C67.9572 83.4091 82.0381 83.4147 82.3829 93.1865C82.3829 97.2581 79.0693 100.572 74.9977 100.572Z" fill="#663366"/>
<path d="M74.9982 90.9692C72.0859 91.0201 72.0859 95.3518 74.9982 95.4028C77.9105 95.3519 77.9105 91.0202 74.9982 90.9692Z" fill="#663366"/>
<path d="M98.6354 90.9692C95.7231 91.0201 95.7231 95.3518 98.6354 95.4028C101.548 95.3519 101.548 91.0202 98.6354 90.9692Z" fill="#663366"/>
<path d="M122.267 90.9692C119.355 91.0201 119.355 95.3518 122.267 95.4028C125.18 95.3519 125.18 91.0202 122.267 90.9692Z" fill="#663366"/>
<path d="M53.1075 80.4349H49.6354C49.1604 79.2757 48.527 78.1899 47.7523 77.189L49.494 74.1749C49.6919 73.8356 49.7428 73.4341 49.641 73.0552C49.5392 72.6763 49.2904 72.354 48.9511 72.1561L42.216 68.2711C41.5092 67.8639 40.6043 68.1071 40.1973 68.8139L38.4612 71.8224C37.2058 71.6527 35.9616 71.6527 34.7062 71.8224L32.9702 68.8139C32.563 68.1071 31.6582 67.8639 30.9514 68.2711L24.2163 72.1561C23.877 72.354 23.6282 72.6763 23.5264 73.0552C23.4246 73.4341 23.4755 73.8356 23.6734 74.1749L25.4151 77.189C24.6404 78.1899 24.007 79.2756 23.532 80.4349H20.0599C19.2456 80.4349 18.584 81.0966 18.584 81.9109V89.6808C18.584 90.4952 19.2456 91.1567 20.0599 91.1567H23.532C24.007 92.316 24.6404 93.4018 25.4151 94.4027L23.6734 97.4168C23.4755 97.7561 23.4246 98.1576 23.5264 98.5365C23.6282 98.9154 23.877 99.2377 24.2163 99.4356L30.9514 103.321C31.6582 103.728 32.5631 103.485 32.9702 102.778L34.7062 99.7693C35.9616 99.939 37.2058 99.939 38.4612 99.7693L40.1973 102.778C40.6101 103.49 41.5205 103.722 42.216 103.321L48.9511 99.4356C49.2904 99.2377 49.5392 98.9154 49.641 98.5365C49.7428 98.1576 49.6919 97.7561 49.494 97.4168L47.7523 94.4027C48.527 93.4018 49.1604 92.3161 49.6354 91.1567H53.1075C53.9218 91.1567 54.5834 90.4951 54.5834 89.6808V81.9109C54.5834 81.0965 53.9218 80.4349 53.1075 80.4349ZM51.6316 88.2106H48.6062C47.9672 88.2106 47.3961 88.6234 47.1982 89.2341C46.7175 90.7213 45.9314 92.0785 44.857 93.2662C44.4272 93.7412 44.3537 94.4368 44.676 94.9966L46.1972 97.6262L42.0239 100.035L40.5139 97.417C40.2481 96.9533 39.7562 96.6762 39.2359 96.6762C37.5677 96.9759 35.9277 97.0946 34.2539 96.7101C33.6262 96.58 32.9871 96.8628 32.6704 97.417L31.1605 100.035L26.9871 97.6262L28.5083 94.9966C28.8306 94.4424 28.7515 93.7412 28.3273 93.2662C27.2586 92.0787 26.4668 90.7271 25.9862 89.2341C25.7882 88.6234 25.2227 88.2106 24.5781 88.2106H21.5527V83.3926H24.5781C25.2171 83.3926 25.7882 82.9797 25.9862 82.369C26.4668 80.8818 27.2529 79.5246 28.3273 78.3369C28.7571 77.8619 28.8306 77.1663 28.5083 76.6065L26.9871 73.9769L31.1605 71.5679L32.6704 74.1861C32.9927 74.7403 33.6317 75.0287 34.2539 74.893C35.8202 74.5594 37.364 74.5594 38.9306 74.893C39.5526 75.0287 40.1973 74.7403 40.5141 74.1861L42.024 71.5679L46.1974 73.9769L44.6761 76.6065C44.3538 77.1607 44.433 77.8619 44.8571 78.3369C45.9259 79.5245 46.7177 80.876 47.1983 82.369C47.3962 82.9797 47.9617 83.3926 48.6064 83.3926H51.6317L51.6316 88.2106Z" fill="#663366"/>
<path d="M36.5897 79.4619C28.2146 79.7277 28.2204 91.869 36.5897 92.1348C44.9648 91.869 44.959 79.7277 36.5897 79.4619ZM36.5897 89.1828C32.1336 89.064 32.1336 82.5382 36.5897 82.4194C41.0458 82.5381 41.0458 89.0639 36.5897 89.1828Z" fill="#663366"/>
<path d="M69.8296 72.5059H96.4191C97.2335 72.5059 97.8951 71.8442 97.8951 71.03V44.4404C97.8951 43.6261 97.2334 42.9645 96.4191 42.9645H86.817C82.6944 42.9589 73.9971 42.9702 69.8299 42.9645C69.0156 42.9645 68.354 43.6262 68.354 44.4404V71.03C68.354 71.8443 69.0153 72.5059 69.8296 72.5059ZM85.3415 45.9163V49.643C84.9343 49.5129 83.5432 48.8286 83.1248 48.8682C82.712 48.823 81.3039 49.5185 80.9081 49.643V45.9163H85.3415ZM71.3058 45.9163H77.9562V51.8258C77.9562 52.3177 78.1993 52.7758 78.6065 53.0472C79.0137 53.3187 79.5283 53.3752 79.9807 53.1943L83.1249 51.9389C83.5151 52.052 86.4613 53.3865 86.8176 53.3017C87.6093 53.3187 88.3105 52.6175 88.2935 51.8258V45.9164H94.9439V69.5541H71.3062L71.3058 45.9163Z" fill="#663366"/>
<path d="M104.539 72.5053H122.268C123.082 72.5053 123.744 71.8437 123.744 71.0294V53.3011C123.744 52.4868 123.082 51.8252 122.268 51.8252H104.539C103.725 51.8252 103.063 52.4868 103.063 53.3011V71.0294C103.063 71.8437 103.725 72.5053 104.539 72.5053ZM106.021 54.777H120.792V69.5477H106.021V54.777Z" fill="#663366"/>
<path d="M28.4622 59.2099H44.7095C45.5239 59.2099 46.1855 58.5482 46.1855 57.7339V50.3485C46.1855 49.5341 45.5238 48.8726 44.7095 48.8726H28.4622C27.6479 48.8726 26.9863 49.5342 26.9863 50.3485V57.7339C26.9863 58.5483 27.648 59.2099 28.4622 59.2099ZM29.9438 51.8187H43.2387V56.2523H29.9438V51.8187Z" fill="#663366"/>
</svg>
