<svg width="150" height="150" viewBox="0 0 150 150" fill="none" xmlns="http://www.w3.org/2000/svg">
<path d="M124.143 51.4485C124.143 51.6764 124.098 51.9021 124.011 52.1126C123.924 52.3232 123.796 52.5145 123.635 52.6757C123.474 52.8368 123.283 52.9647 123.073 53.0519C122.863 53.1391 122.637 53.184 122.41 53.184H72.023C71.7864 53.1993 71.5493 53.1659 71.3261 53.0858C71.103 53.0057 70.8987 52.8806 70.7257 52.7183C70.5528 52.5559 70.4149 52.3598 70.3207 52.142C70.2265 51.9243 70.1778 51.6894 70.1778 51.4521C70.1778 51.2147 70.2265 50.9799 70.3207 50.7621C70.4149 50.5444 70.5528 50.3482 70.7257 50.1859C70.8987 50.0236 71.103 49.8985 71.3261 49.8184C71.5493 49.7383 71.7864 49.7049 72.023 49.7202H122.412C122.87 49.7209 123.309 49.9031 123.634 50.227C123.958 50.5508 124.141 50.9899 124.143 51.4485ZM122.41 37.92H72.023C71.5633 37.92 71.1224 38.1028 70.7973 38.4283C70.4723 38.7538 70.2897 39.1952 70.2897 39.6555C70.2897 40.1158 70.4723 40.5573 70.7973 40.8827C71.1224 41.2082 71.5633 41.3911 72.023 41.3911H122.412C122.872 41.3911 123.313 41.2082 123.638 40.8827C123.963 40.5573 124.146 40.1158 124.146 39.6555C124.146 39.1952 123.963 38.7538 123.638 38.4283C123.313 38.1028 122.872 37.92 122.412 37.92H122.41ZM20.8333 48.7902V48.757C20.8333 48.7107 20.8333 48.6658 20.8333 48.6196C20.8333 48.5993 20.8333 48.5791 20.842 48.5588C20.8507 48.5386 20.8507 48.4879 20.8579 48.4518C20.8651 48.4156 20.8752 48.3766 20.8853 48.339C20.8954 48.3014 20.8926 48.3043 20.8983 48.2869L23.6428 39.1522C23.7505 38.7961 23.9697 38.4842 24.268 38.2623C24.5663 38.0404 24.928 37.9204 25.2996 37.92H60.609C60.9806 37.9204 61.3422 38.0404 61.6405 38.2623C61.9388 38.4842 62.158 38.7961 62.2658 39.1522L65.0102 48.2638V48.2797L65.0174 48.3086C65.029 48.3534 65.0406 48.3983 65.0507 48.4431C65.0608 48.4879 65.0593 48.501 65.0637 48.5284C65.068 48.5559 65.0723 48.5834 65.0752 48.6109C65.0781 48.6384 65.0752 48.7049 65.0752 48.7555V48.8278C65.0558 49.872 64.8095 50.8994 64.3532 51.8385C63.897 52.7777 63.2418 53.606 62.4333 54.2658V75.5782C62.4204 76.4099 62.0786 77.2026 61.483 77.7825C60.8873 78.3624 60.0863 78.6822 59.2556 78.6717H27.6526C26.8218 78.6822 26.0208 78.3624 25.4251 77.7825C24.8295 77.2026 24.4877 76.4099 24.4748 75.5782V54.9933C23.3956 54.3602 22.4951 53.4624 21.8583 52.3845C21.2214 51.3066 20.8692 50.0841 20.8348 48.8322L20.8333 48.7902ZM29.396 52.9136C30.2954 52.9455 31.1875 52.7412 31.9837 52.321C32.7799 51.9009 33.4524 51.2795 33.9344 50.5185H24.7622C25.2622 51.2838 25.9514 51.9065 26.7629 52.3262C27.5744 52.7459 28.4804 52.9482 29.3931 52.9136H29.396ZM40.1297 61.9455H34.2941V75.2065H40.1297V61.9455ZM58.9782 56.0534C58.177 56.2659 57.3516 56.3734 56.5227 56.373C55.2426 56.3912 53.9734 56.1349 52.8004 55.6213C51.6275 55.1077 50.5779 54.3486 49.7222 53.3952C48.8796 54.3559 47.8375 55.1205 46.6688 55.6357C45.5001 56.1508 44.2331 56.404 42.9564 56.3774C41.6765 56.3948 40.4076 56.1377 39.2351 55.6233C38.0627 55.1089 37.0137 54.3492 36.1589 53.3952C35.3159 54.3557 34.2735 55.1203 33.1046 55.6354C31.9357 56.1506 30.6685 56.4038 29.3917 56.3774C28.9023 56.3766 28.4136 56.3389 27.9299 56.2646V75.2108H30.8289V60.2129C30.8289 59.7526 31.0115 59.3112 31.3366 58.9857C31.6616 58.6602 32.1025 58.4774 32.5622 58.4774H41.8572C42.3169 58.4774 42.7578 58.6602 43.0829 58.9857C43.4079 59.3112 43.5906 59.7526 43.5906 60.2129V75.2065H58.9782V56.0534ZM38.7069 41.3838L38.0627 47.0547H47.7722L47.1944 41.3838H38.7069ZM38.3256 50.5185C38.8259 51.2838 39.5154 51.9065 40.3271 52.3262C41.1387 52.7459 42.045 52.9482 42.9579 52.9136C43.8573 52.9452 44.7493 52.7408 45.5454 52.3207C46.3415 51.9005 47.0141 51.2793 47.4963 50.5185H38.3256ZM61.1478 50.5185H51.8889C52.4138 51.2591 53.1082 51.863 53.914 52.2797C54.7198 52.6965 55.6136 52.9139 56.5205 52.9139C57.4274 52.9139 58.3212 52.6965 59.127 52.2797C59.9328 51.863 60.6272 51.2591 61.1521 50.5185H61.1478ZM59.3177 41.3838H50.6683L51.2461 47.0547H61.0236L59.3177 41.3838ZM24.8821 47.0547H34.5743L35.2186 41.3838H26.5923L24.8821 47.0547ZM56.9921 60.2158V66.6648C56.9921 66.8927 56.9473 67.1183 56.8602 67.3289C56.7731 67.5395 56.6454 67.7308 56.4844 67.892C56.3235 68.0531 56.1324 68.181 55.9221 68.2682C55.7118 68.3554 55.4864 68.4003 55.2588 68.4003H47.4588C46.9991 68.4003 46.5582 68.2174 46.2331 67.892C45.9081 67.5665 45.7254 67.125 45.7254 66.6648V60.2129C45.7254 59.7526 45.9081 59.3112 46.2331 58.9857C46.5582 58.6602 46.9991 58.4774 47.4588 58.4774H55.2588C55.4869 58.4766 55.7129 58.521 55.9239 58.6078C56.1348 58.6947 56.3266 58.8224 56.4882 58.9837C56.6497 59.1449 56.7779 59.3365 56.8654 59.5474C56.9529 59.7584 56.9979 59.9845 56.9979 60.2129L56.9921 60.2158ZM53.5254 61.9513H49.195V64.935H53.537L53.5254 61.9513ZM99.6494 91.1676C99.6494 88.9807 100.297 86.8429 101.511 85.0246C102.724 83.2063 104.449 81.7891 106.467 80.9523C108.485 80.1155 110.705 79.8966 112.847 80.3233C114.989 80.7501 116.957 81.8033 118.501 83.3498C120.045 84.8962 121.097 86.8665 121.523 89.0114C121.949 91.1563 121.73 93.3795 120.894 95.3998C120.058 97.4202 118.642 99.1469 116.826 100.362C115.01 101.576 112.875 102.225 110.691 102.224C107.763 102.221 104.957 101.055 102.887 98.982C100.817 96.9092 99.6525 94.0988 99.6494 91.1676ZM103.109 91.1676C103.109 92.6694 103.553 94.1377 104.386 95.3865C105.219 96.6354 106.404 97.6088 107.79 98.1837C109.175 98.7586 110.7 98.9091 112.171 98.6161C113.642 98.3232 114.994 97.6 116.054 96.5381C117.115 95.4761 117.837 94.123 118.13 92.65C118.422 91.177 118.272 89.6501 117.698 88.2627C117.124 86.8752 116.152 85.6893 114.904 84.8551C113.657 84.0209 112.191 83.5758 110.691 83.5761C108.681 83.5788 106.754 84.3794 105.333 85.8025C103.911 87.2256 103.112 89.155 103.109 91.1676ZM140 26.6333V111.24C139.997 112.732 139.404 114.162 138.35 115.217C137.296 116.272 135.868 116.866 134.378 116.869H122.811V127.267C122.811 127.6 122.714 127.927 122.533 128.207C122.353 128.487 122.095 128.709 121.791 128.846C121.488 128.983 121.151 129.03 120.822 128.981C120.492 128.932 120.184 128.788 119.934 128.568L110.689 120.381L101.445 128.568C101.195 128.788 100.886 128.932 100.557 128.981C100.227 129.03 99.8908 128.983 99.5872 128.846C99.2837 128.709 99.026 128.487 98.8452 128.207C98.6644 127.927 98.568 127.6 98.5676 127.267V116.865H15.6218C14.1317 116.862 12.7036 116.268 11.65 115.213C10.5963 114.158 10.0031 112.728 10 111.236V26.6289C10.0031 25.137 10.5963 23.707 11.65 22.652C12.7036 21.5971 14.1317 21.0031 15.6218 21H134.378C135.869 21.0031 137.298 21.5977 138.352 22.6536C139.405 23.7095 139.998 25.1406 140 26.6333ZM95.8115 91.1676C95.7548 92.254 95.5165 93.3231 95.1067 94.3306C94.7827 95.0133 94.6252 95.7633 94.6473 96.5188C94.7918 96.9527 95.592 97.4791 96.2969 97.9434C97.244 98.421 98.064 99.1175 98.6889 99.9754C99.3139 100.833 99.7258 101.828 99.8907 102.877C100.005 103.583 100.285 104.253 100.707 104.831C101.389 105.061 102.116 105.129 102.829 105.027C103.118 105.017 103.432 105.007 103.747 105.007C104.505 104.986 105.262 105.088 105.988 105.308C106.956 105.689 107.851 106.233 108.635 106.918C109.208 107.482 109.916 107.888 110.692 108.096C111.467 107.887 112.175 107.481 112.748 106.918C113.507 106.179 114.425 105.624 115.431 105.296C116.438 104.968 117.507 104.876 118.554 105.027C119.267 105.129 119.994 105.061 120.676 104.831C121.098 104.253 121.378 103.583 121.492 102.877C121.657 101.828 122.069 100.833 122.694 99.9754C123.319 99.1175 124.139 98.421 125.086 97.9434C125.792 97.4791 126.591 96.9541 126.736 96.5188C126.757 95.7633 126.6 95.0134 126.276 94.3306C125.866 93.3231 125.628 92.254 125.571 91.1676C125.628 90.0817 125.866 89.013 126.276 88.006C126.6 87.3232 126.757 86.5733 126.736 85.8178C126.591 85.3839 125.791 84.856 125.086 84.3932C124.177 83.8654 123.37 83.1798 122.701 82.3684C122.127 81.4786 121.717 80.4924 121.492 79.4571C121.378 78.7505 121.098 78.081 120.676 77.5032C119.994 77.2723 119.267 77.205 118.554 77.3065C117.507 77.4574 116.438 77.3654 115.431 77.0377C114.425 76.71 113.507 76.1552 112.748 75.4162C112.176 74.852 111.468 74.4459 110.692 74.2375C109.916 74.4455 109.208 74.8517 108.635 75.4162C107.876 76.1552 106.958 76.71 105.952 77.0377C104.945 77.3654 103.876 77.4574 102.829 77.3065C102.116 77.2048 101.39 77.2722 100.708 77.5032C100.285 78.0805 100.005 78.7501 99.8907 79.4571C99.6688 80.4944 99.2617 81.4831 98.6889 82.3757C98.0203 83.187 97.2128 83.8727 96.3041 84.4004C95.5992 84.8633 94.799 85.3897 94.6545 85.825C94.6327 86.5801 94.7901 87.3295 95.1139 88.0118C95.5203 89.0175 95.7561 90.0841 95.8115 91.1676ZM119.344 108.51C119.037 108.51 118.732 108.5 118.436 108.49C117.783 108.428 117.125 108.464 116.483 108.595C115.897 108.869 115.352 109.225 114.865 109.652C113.727 110.742 112.254 111.415 110.686 111.56C109.118 111.415 107.645 110.743 106.506 109.652C106.02 109.226 105.476 108.87 104.89 108.595C104.247 108.463 103.589 108.428 102.936 108.49C102.647 108.5 102.335 108.508 102.027 108.51V123.417L109.538 116.764C109.855 116.484 110.262 116.33 110.684 116.33C111.106 116.33 111.514 116.484 111.83 116.764L119.342 123.417L119.344 108.51ZM136.533 26.6333C136.533 26.0579 136.305 25.5061 135.899 25.0992C135.492 24.6924 134.941 24.4638 134.367 24.4638H15.6218C15.0471 24.4638 14.496 24.6924 14.0897 25.0992C13.6834 25.5061 13.4551 26.0579 13.4551 26.6333V111.24C13.4551 111.816 13.6834 112.368 14.0897 112.774C14.496 113.181 15.0471 113.41 15.6218 113.41H98.5719V107.554C97.5039 106.56 96.793 105.242 96.5497 103.802C96.4186 103.176 96.1946 102.573 95.8852 102.013C95.4472 101.551 94.944 101.155 94.3917 100.839C93.043 100.141 91.9727 99.0035 91.3583 97.6136C91.0138 96.129 91.1807 94.5714 91.8321 93.1938C92.1002 92.5473 92.2734 91.8653 92.3463 91.169C92.2732 90.4728 92.1 89.7908 91.8321 89.1442C91.1806 87.7672 91.0137 86.21 91.3583 84.7259C91.9727 83.3356 93.0429 82.1972 94.3917 81.4992C94.9443 81.1837 95.4475 80.7885 95.8852 80.3263C96.1946 79.7665 96.4186 79.1634 96.5497 78.5372C96.6021 77.7836 96.8179 77.0505 97.1821 76.3889C97.5463 75.7272 98.0501 75.153 98.6585 74.7062C99.2668 74.2593 99.9651 73.9506 100.705 73.8015C101.444 73.6523 102.208 73.6664 102.941 73.8426C103.596 73.9064 104.256 73.8723 104.9 73.7414C105.486 73.4661 106.031 73.1097 106.518 72.6827C107.655 71.5942 109.126 70.9224 110.692 70.7765C112.259 70.9232 113.73 71.596 114.867 72.6856C115.354 73.113 115.899 73.4694 116.486 73.7443C117.128 73.8757 117.786 73.9108 118.439 73.8484C119.172 73.6718 119.935 73.6571 120.674 73.8055C121.414 73.9539 122.112 74.2618 122.72 74.7078C123.329 75.1537 123.833 75.727 124.198 76.3879C124.563 77.0487 124.78 77.7812 124.833 78.5343C124.964 79.1606 125.188 79.7636 125.498 80.3234C125.936 80.7856 126.439 81.1808 126.991 81.4963C128.34 82.1943 129.41 83.3327 130.025 84.723C130.369 86.2071 130.202 87.7643 129.551 89.1413C129.283 89.7879 129.11 90.4699 129.037 91.1661C129.11 91.8624 129.283 92.5444 129.551 93.1909C130.202 94.568 130.369 96.1252 130.025 97.6093C129.411 98.9998 128.34 100.138 126.991 100.836C126.439 101.152 125.936 101.548 125.498 102.01C125.188 102.57 124.964 103.173 124.833 103.799C124.59 105.239 123.879 106.557 122.811 107.551V113.397H134.378C134.953 113.397 135.504 113.168 135.91 112.761C136.317 112.355 136.545 111.803 136.545 111.227L136.533 26.6333ZM122.412 61.5117H72.023C71.5633 61.5117 71.1224 61.6945 70.7973 62.02C70.4723 62.3455 70.2897 62.7869 70.2897 63.2472C70.2897 63.7075 70.4723 64.1489 70.7973 64.4744C71.1224 64.7999 71.5633 64.9827 72.023 64.9827H122.412C122.872 64.9827 123.313 64.7999 123.638 64.4744C123.963 64.1489 124.146 63.7075 124.146 63.2472C124.146 62.7869 123.963 62.3455 123.638 62.02C123.313 61.6945 122.872 61.5117 122.412 61.5117ZM88.2889 73.309H72.023C71.7864 73.2936 71.5493 73.3271 71.3261 73.4072C71.103 73.4873 70.8987 73.6124 70.7257 73.7747C70.5528 73.937 70.4149 74.1331 70.3207 74.3509C70.2265 74.5687 70.1778 74.8035 70.1778 75.0409C70.1778 75.2782 70.2265 75.513 70.3207 75.7308C70.4149 75.9486 70.5528 76.1447 70.7257 76.307C70.8987 76.4694 71.103 76.5945 71.3261 76.6746C71.5493 76.7547 71.7864 76.7881 72.023 76.7728H88.2889C88.5254 76.7881 88.7626 76.7547 88.9857 76.6746C89.2089 76.5945 89.4132 76.4694 89.5862 76.307C89.7591 76.1447 89.897 75.9486 89.9912 75.7308C90.0854 75.513 90.134 75.2782 90.134 75.0409C90.134 74.8035 90.0854 74.5687 89.9912 74.3509C89.897 74.1331 89.7591 73.937 89.5862 73.7747C89.4132 73.6124 89.2089 73.4873 88.9857 73.4072C88.7626 73.3271 88.5254 73.2936 88.2889 73.309ZM81.9333 85.1048H23.4666C23.23 85.0895 22.9928 85.1229 22.7697 85.203C22.5466 85.2831 22.3422 85.4082 22.1693 85.5705C21.9963 85.7328 21.8585 85.929 21.7643 86.1468C21.67 86.3645 21.6214 86.5994 21.6214 86.8367C21.6214 87.0741 21.67 87.3089 21.7643 87.5266C21.8585 87.7444 21.9963 87.9406 22.1693 88.1029C22.3422 88.2652 22.5466 88.3903 22.7697 88.4704C22.9928 88.5505 23.23 88.5839 23.4666 88.5686H81.9333C82.1699 88.5839 82.4071 88.5505 82.6302 88.4704C82.8533 88.3903 83.0577 88.2652 83.2306 88.1029C83.4036 87.9406 83.5414 87.7444 83.6356 87.5266C83.7299 87.3089 83.7785 87.0741 83.7785 86.8367C83.7785 86.5994 83.7299 86.3645 83.6356 86.1468C83.5414 85.929 83.4036 85.7328 83.2306 85.5705C83.0577 85.4082 82.8533 85.2831 82.6302 85.203C82.4071 85.1229 82.1699 85.0895 81.9333 85.1048ZM81.9333 96.9006H23.4666C23.0068 96.9006 22.566 97.0835 22.2409 97.4089C21.9158 97.7344 21.7332 98.1759 21.7332 98.6362C21.7332 99.0965 21.9158 99.5379 22.2409 99.8634C22.566 100.189 23.0068 100.372 23.4666 100.372H81.9333C82.393 100.372 82.8339 100.189 83.159 99.8634C83.484 99.5379 83.6667 99.0965 83.6667 98.6362C83.6667 98.1759 83.484 97.7344 83.159 97.4089C82.8339 97.0835 82.393 96.9006 81.9333 96.9006Z" fill="#663366"/>
</svg>
