<svg width="150" height="150" viewBox="0 0 150 150" fill="none" xmlns="http://www.w3.org/2000/svg">
<mask id="path-1-outside-1_105_1220" maskUnits="userSpaceOnUse" x="8" y="14" width="134" height="122" fill="black">
<rect fill="white" x="8" y="14" width="134" height="122"/>
<path d="M139.496 124.483H137.994V65.9904C137.994 65.4954 137.752 65.0286 137.347 64.7587C136.942 64.4718 136.43 64.4156 135.969 64.5955L124.288 68.9769L123 16.4679C122.983 15.658 122.308 15 121.498 15H109.501C108.691 15 108.016 15.6468 107.999 16.4679L106.785 66.5465L97.3189 70.1012L95.9971 16.4849C95.9803 15.675 95.3054 15.017 94.4954 15.017H82.4988C81.6889 15.017 81.014 15.6638 80.997 16.4849L79.7541 67.688L63.9779 73.5992C63.3929 73.8242 63.0049 74.381 63.0049 75.0109V78.0086H59.2985C56.8688 68.9197 55.474 59.5328 55.5021 50.112V37.5135C55.5021 36.6867 54.8272 36.0118 54.0003 36.0118L24.0059 36.0062C23.1791 36.0062 22.5041 36.6811 22.5041 37.5079V50.1064C22.5323 59.5272 21.1374 68.9134 18.7077 78.003H13.5052C12.6784 78.003 12.0035 78.6779 12.0035 79.5048V124.499H10.5017C9.67496 124.499 9 125.174 9 126.001V133.498C9 134.325 9.67492 135 10.5017 135H139.484C140.311 135 140.986 134.325 140.986 133.498V126.001C140.986 125.174 140.311 124.499 139.484 124.499L139.496 124.483ZM123.433 72.4869C123.433 72.4869 134.98 68.1506 134.997 68.1506V124.484H114.001V76.025L123.433 72.4869ZM110.773 25.4953H120.205L121.301 70.0852L113.995 72.8298V65.9907C114.024 64.9727 112.916 64.2077 111.971 64.579L109.811 65.3889L110.784 25.4956L110.773 25.4953ZM120.025 17.9981L120.132 22.4975H110.835L110.941 17.9981H120.025ZM110.998 68.1501V124.483H90.0021V76.0245L110.998 68.1501ZM83.7763 25.4953H93.2084L94.3332 71.1925L89.9969 72.8123V65.9731C90.025 64.9551 88.917 64.1902 87.9722 64.5614L82.7809 66.5131L83.7877 25.478L83.7763 25.4953ZM93.0284 17.9981L93.1352 22.4975H83.8383L83.9451 17.9981H93.0284ZM66.0028 79.4888V76.0242C69.7992 74.6013 83.4607 69.4719 86.9984 68.1501V124.483H66.0028V79.4888ZM22.33 75.8723C25.5077 64.1569 25.6877 51.08 25.5077 38.9941H52.5044V50.0908C52.4876 59.5116 53.7924 68.8978 56.2108 77.9874H21.8019L22.3249 75.8726L22.33 75.8723ZM15.0072 80.9905H62.9995V124.483H51.0028V107.987C51.0028 107.16 50.3279 106.486 49.5011 106.486H28.5056C27.6788 106.486 27.0038 107.16 27.0038 107.987V124.483H15.0072V80.9905ZM48.0051 109.483V124.483H30.0073V109.483H48.0051ZM137.994 131.981H12.0095V127.481H137.994V131.981Z"/>
</mask>
<path d="M139.496 124.483H137.994V65.9904C137.994 65.4954 137.752 65.0286 137.347 64.7587C136.942 64.4718 136.43 64.4156 135.969 64.5955L124.288 68.9769L123 16.4679C122.983 15.658 122.308 15 121.498 15H109.501C108.691 15 108.016 15.6468 107.999 16.4679L106.785 66.5465L97.3189 70.1012L95.9971 16.4849C95.9803 15.675 95.3054 15.017 94.4954 15.017H82.4988C81.6889 15.017 81.014 15.6638 80.997 16.4849L79.7541 67.688L63.9779 73.5992C63.3929 73.8242 63.0049 74.381 63.0049 75.0109V78.0086H59.2985C56.8688 68.9197 55.474 59.5328 55.5021 50.112V37.5135C55.5021 36.6867 54.8272 36.0118 54.0003 36.0118L24.0059 36.0062C23.1791 36.0062 22.5041 36.6811 22.5041 37.5079V50.1064C22.5323 59.5272 21.1374 68.9134 18.7077 78.003H13.5052C12.6784 78.003 12.0035 78.6779 12.0035 79.5048V124.499H10.5017C9.67496 124.499 9 125.174 9 126.001V133.498C9 134.325 9.67492 135 10.5017 135H139.484C140.311 135 140.986 134.325 140.986 133.498V126.001C140.986 125.174 140.311 124.499 139.484 124.499L139.496 124.483ZM123.433 72.4869C123.433 72.4869 134.98 68.1506 134.997 68.1506V124.484H114.001V76.025L123.433 72.4869ZM110.773 25.4953H120.205L121.301 70.0852L113.995 72.8298V65.9907C114.024 64.9727 112.916 64.2077 111.971 64.579L109.811 65.3889L110.784 25.4956L110.773 25.4953ZM120.025 17.9981L120.132 22.4975H110.835L110.941 17.9981H120.025ZM110.998 68.1501V124.483H90.0021V76.0245L110.998 68.1501ZM83.7763 25.4953H93.2084L94.3332 71.1925L89.9969 72.8123V65.9731C90.025 64.9551 88.917 64.1902 87.9722 64.5614L82.7809 66.5131L83.7877 25.478L83.7763 25.4953ZM93.0284 17.9981L93.1352 22.4975H83.8383L83.9451 17.9981H93.0284ZM66.0028 79.4888V76.0242C69.7992 74.6013 83.4607 69.4719 86.9984 68.1501V124.483H66.0028V79.4888ZM22.33 75.8723C25.5077 64.1569 25.6877 51.08 25.5077 38.9941H52.5044V50.0908C52.4876 59.5116 53.7924 68.8978 56.2108 77.9874H21.8019L22.3249 75.8726L22.33 75.8723ZM15.0072 80.9905H62.9995V124.483H51.0028V107.987C51.0028 107.16 50.3279 106.486 49.5011 106.486H28.5056C27.6788 106.486 27.0038 107.16 27.0038 107.987V124.483H15.0072V80.9905ZM48.0051 109.483V124.483H30.0073V109.483H48.0051ZM137.994 131.981H12.0095V127.481H137.994V131.981Z" fill="#663366"/>
<path d="M139.496 124.483H137.994V65.9904C137.994 65.4954 137.752 65.0286 137.347 64.7587C136.942 64.4718 136.43 64.4156 135.969 64.5955L124.288 68.9769L123 16.4679C122.983 15.658 122.308 15 121.498 15H109.501C108.691 15 108.016 15.6468 107.999 16.4679L106.785 66.5465L97.3189 70.1012L95.9971 16.4849C95.9803 15.675 95.3054 15.017 94.4954 15.017H82.4988C81.6889 15.017 81.014 15.6638 80.997 16.4849L79.7541 67.688L63.9779 73.5992C63.3929 73.8242 63.0049 74.381 63.0049 75.0109V78.0086H59.2985C56.8688 68.9197 55.474 59.5328 55.5021 50.112V37.5135C55.5021 36.6867 54.8272 36.0118 54.0003 36.0118L24.0059 36.0062C23.1791 36.0062 22.5041 36.6811 22.5041 37.5079V50.1064C22.5323 59.5272 21.1374 68.9134 18.7077 78.003H13.5052C12.6784 78.003 12.0035 78.6779 12.0035 79.5048V124.499H10.5017C9.67496 124.499 9 125.174 9 126.001V133.498C9 134.325 9.67492 135 10.5017 135H139.484C140.311 135 140.986 134.325 140.986 133.498V126.001C140.986 125.174 140.311 124.499 139.484 124.499L139.496 124.483ZM123.433 72.4869C123.433 72.4869 134.98 68.1506 134.997 68.1506V124.484H114.001V76.025L123.433 72.4869ZM110.773 25.4953H120.205L121.301 70.0852L113.995 72.8298V65.9907C114.024 64.9727 112.916 64.2077 111.971 64.579L109.811 65.3889L110.784 25.4956L110.773 25.4953ZM120.025 17.9981L120.132 22.4975H110.835L110.941 17.9981H120.025ZM110.998 68.1501V124.483H90.0021V76.0245L110.998 68.1501ZM83.7763 25.4953H93.2084L94.3332 71.1925L89.9969 72.8123V65.9731C90.025 64.9551 88.917 64.1902 87.9722 64.5614L82.7809 66.5131L83.7877 25.478L83.7763 25.4953ZM93.0284 17.9981L93.1352 22.4975H83.8383L83.9451 17.9981H93.0284ZM66.0028 79.4888V76.0242C69.7992 74.6013 83.4607 69.4719 86.9984 68.1501V124.483H66.0028V79.4888ZM22.33 75.8723C25.5077 64.1569 25.6877 51.08 25.5077 38.9941H52.5044V50.0908C52.4876 59.5116 53.7924 68.8978 56.2108 77.9874H21.8019L22.3249 75.8726L22.33 75.8723ZM15.0072 80.9905H62.9995V124.483H51.0028V107.987C51.0028 107.16 50.3279 106.486 49.5011 106.486H28.5056C27.6788 106.486 27.0038 107.16 27.0038 107.987V124.483H15.0072V80.9905ZM48.0051 109.483V124.483H30.0073V109.483H48.0051ZM137.994 131.981H12.0095V127.481H137.994V131.981Z" stroke="#663366" stroke-width="0.6" mask="url(#path-1-outside-1_105_1220)"/>
<path d="M80.2495 77.8364C81.1591 77.8365 81.9009 78.5792 81.9009 79.4888V86.9858C81.9008 87.8954 81.159 88.6371 80.2495 88.6372H72.7524C71.8428 88.6372 71.1002 87.8954 71.1001 86.9858V79.4888C71.1001 78.5791 71.8428 77.8364 72.7524 77.8364H80.2495ZM74.4038 85.3394H78.603V81.1401H74.4038V85.3394Z" fill="#663366" stroke="#663366" stroke-width="0.3"/>
<path d="M80.2495 92.8364C81.1591 92.8365 81.9009 93.5792 81.9009 94.4888V101.986C81.9008 102.895 81.159 103.637 80.2495 103.637H72.7524C71.8428 103.637 71.1002 102.895 71.1001 101.986V94.4888C71.1001 93.5791 71.8428 92.8364 72.7524 92.8364H80.2495ZM74.4038 100.334H78.603V96.1343H74.4038V100.334Z" fill="#663366" stroke="#663366" stroke-width="0.3"/>
<path d="M80.2495 107.836C81.1591 107.836 81.9009 108.579 81.9009 109.489V116.986C81.9008 117.895 81.159 118.637 80.2495 118.637H72.7524C71.8428 118.637 71.1002 117.895 71.1001 116.986V109.489C71.1001 108.579 71.8428 107.836 72.7524 107.836H80.2495ZM74.4038 115.334H78.603V111.134H74.4038V115.334Z" fill="#663366" stroke="#663366" stroke-width="0.3"/>
<path d="M104.247 77.8364C105.157 77.8365 105.898 78.5792 105.898 79.4888V86.9858C105.898 87.8954 105.157 88.6371 104.247 88.6372H96.75C95.8404 88.6372 95.0977 87.8954 95.0977 86.9858V79.4888C95.0977 78.5791 95.8404 77.8364 96.75 77.8364H104.247ZM98.3955 85.3394H102.596V81.1401H98.3955V85.3394Z" fill="#663366" stroke="#663366" stroke-width="0.3"/>
<path d="M104.247 92.8364C105.157 92.8365 105.898 93.5792 105.898 94.4888V101.986C105.898 102.895 105.157 103.637 104.247 103.637H96.75C95.8404 103.637 95.0977 102.895 95.0977 101.986V94.4888C95.0977 93.5791 95.8404 92.8364 96.75 92.8364H104.247ZM98.3955 100.334H102.596V96.1343H98.3955V100.334Z" fill="#663366" stroke="#663366" stroke-width="0.3"/>
<path d="M104.247 107.831C105.157 107.831 105.898 108.574 105.898 109.483V116.98C105.898 117.89 105.157 118.632 104.247 118.632H96.75C95.8404 118.632 95.0977 117.89 95.0977 116.98V109.483C95.0977 108.574 95.8404 107.831 96.75 107.831H104.247ZM98.3955 115.334H102.596V111.135H98.3955V115.334Z" fill="#663366" stroke="#663366" stroke-width="0.3"/>
<path d="M128.242 77.8364C129.152 77.8365 129.894 78.5792 129.894 79.4888V86.9858C129.893 87.8954 129.152 88.6371 128.242 88.6372H120.745C119.835 88.6372 119.093 87.8954 119.093 86.9858V79.4888C119.093 78.5791 119.836 77.8364 120.745 77.8364H128.242ZM122.396 85.3394H126.596V81.1401H122.396V85.3394Z" fill="#663366" stroke="#663366" stroke-width="0.3"/>
<path d="M128.242 92.8364C129.152 92.8365 129.894 93.5792 129.894 94.4888V101.986C129.893 102.895 129.152 103.637 128.242 103.637H120.745C119.835 103.637 119.093 102.895 119.093 101.986V94.4888C119.093 93.5791 119.836 92.8364 120.745 92.8364H128.242ZM122.396 100.334H126.596V96.1343H122.396V100.334Z" fill="#663366" stroke="#663366" stroke-width="0.3"/>
<path d="M128.242 107.831C129.152 107.831 129.894 108.574 129.894 109.483V116.98C129.893 117.89 129.152 118.632 128.242 118.632H120.745C119.835 118.632 119.093 117.89 119.093 116.98V109.483C119.093 108.574 119.836 107.831 120.745 107.831H128.242ZM122.396 115.334H126.596V111.135H122.396V115.334Z" fill="#663366" stroke="#663366" stroke-width="0.3"/>
<path d="M24.1553 94.3384H53.8496V91.6411H24.1553V94.3384ZM57.1592 95.9907C57.1591 96.9002 56.4172 97.6419 55.5078 97.6421H22.5098C21.6002 97.6421 20.8575 96.9002 20.8574 95.9907V89.9897C20.8574 89.0801 21.6001 88.3374 22.5098 88.3374L55.502 88.3315L55.6699 88.3403C56.5011 88.4251 57.1533 89.131 57.1533 89.9839V95.9214L57.1592 95.9272V95.9907Z" fill="#663366" stroke="#663366" stroke-width="0.3"/>
</svg>
