<svg width="150" height="150" viewBox="0 0 150 150" fill="none" xmlns="http://www.w3.org/2000/svg">
<path fill-rule="evenodd" clip-rule="evenodd" d="M110.27 100.031L111.496 98.4808C111.541 98.4115 111.592 98.3451 111.648 98.2801C111.752 98.1125 111.79 97.9132 111.767 97.7153C111.745 97.5246 111.661 97.3441 111.522 97.2054C111.454 97.1578 111.391 97.1043 111.329 97.0465L104.894 91.9695C104.825 91.9247 104.758 91.8742 104.693 91.8178C104.525 91.7138 104.326 91.6763 104.128 91.6994C103.937 91.7211 103.756 91.8048 103.617 91.9435C103.57 92.0114 103.516 92.0749 103.458 92.137L102.231 93.6898L110.269 100.032L110.27 100.031ZM25.6503 118.546C24.6947 118.546 23.9184 117.772 23.9184 116.816C23.9184 115.86 24.6933 115.086 25.6503 115.086H26.0189C26.9745 115.086 27.7508 115.86 27.7508 116.816C27.7508 117.772 26.976 118.546 26.0189 118.546H25.6503ZM25.6503 105.233C24.6947 105.233 23.9184 104.459 23.9184 103.503C23.9184 102.547 24.6933 101.773 25.6503 101.773H26.0189C26.9745 101.773 27.7508 102.547 27.7508 103.503C27.7508 104.459 26.976 105.233 26.0189 105.233H25.6503ZM25.6503 91.9204C24.6947 91.9204 23.9184 91.1462 23.9184 90.19C23.9184 89.2338 24.6933 88.4596 25.6503 88.4596H26.0189C26.9745 88.4596 27.7508 89.2338 27.7508 90.19C27.7508 91.1462 26.976 91.9204 26.0189 91.9204H25.6503ZM82.1899 91.1303L83.8597 89.0172C84.5825 88.1014 85.6205 87.5655 86.7076 87.437C87.802 87.3084 88.9397 87.5901 89.8548 88.3123L98.7413 95.3234L118.37 110.813C119.286 111.535 119.823 112.572 119.952 113.659C120.081 114.752 119.799 115.889 119.076 116.803L116.43 120.15L115.191 119.172L115.187 119.169L115.183 119.166L81.2141 92.3624L81.9876 91.3831C82.0627 91.3051 82.1292 91.2198 82.1885 91.1289L82.1899 91.1303ZM89.6886 69.5987H33.5523C33.4164 69.5987 33.292 69.655 33.201 69.7475C33.1099 69.8385 33.0521 69.9627 33.0521 70.0984V71.9848C33.0521 72.1206 33.1084 72.2448 33.201 72.3358C33.2935 72.4268 33.4178 72.4846 33.5523 72.4846H89.6886C89.8245 72.4846 89.9488 72.4283 90.0399 72.3358C90.131 72.2448 90.1888 72.1192 90.1888 71.9848V70.0984C90.1888 69.9627 90.1324 69.8385 90.0399 69.7475C89.9488 69.6565 89.823 69.5987 89.6886 69.5987ZM37.1476 66.1394H86.0932C85.9949 61.6271 84.6808 57.4224 82.4661 53.8403C80.5853 50.7984 78.0554 48.1985 75.0715 46.2356V53.7652C75.0715 54.72 74.2967 55.4956 73.3396 55.4956C72.3826 55.4956 71.6077 54.7214 71.6077 53.7652V39.925C71.5673 39.9077 71.5138 39.899 71.4487 39.899H68.5415V57.7561C68.5415 58.7108 67.7666 59.4865 66.8096 59.4865C65.8526 59.4865 65.0777 58.7123 65.0777 57.7561V33.9755C65.0777 33.9755 65.0748 33.9828 65.0705 33.9784C65.0387 33.9481 64.9852 33.9293 64.9172 33.9293H58.3222C58.2556 33.9293 58.2007 33.9481 58.1689 33.9784C58.1646 33.9828 58.1617 33.9698 58.1617 33.9755V57.7561C58.1617 58.7108 57.3868 59.4865 56.4298 59.4865C55.4728 59.4865 54.6979 58.7123 54.6979 57.7561V39.899H51.7907C51.7256 39.899 51.6721 39.9091 51.6316 39.925V53.7652C51.6316 54.72 50.8568 55.4956 49.8997 55.4956C48.9427 55.4956 48.1679 54.7214 48.1679 53.7652V46.2356C45.184 48.2 42.6556 50.7984 40.7733 53.8403C38.5586 57.4224 37.2445 61.6271 37.1476 66.1394ZM33.5523 66.1394H33.6838C33.7821 60.9771 35.2899 56.1514 37.8401 52.029C40.3729 47.9342 43.9364 44.5427 48.1693 42.2144V39.8022C48.1693 38.8302 48.6131 37.9606 49.3273 37.3439C49.9735 36.7849 50.8481 36.4382 51.7921 36.4382H54.6993V33.9755C54.6993 32.9919 55.1215 32.1036 55.8024 31.4637C56.4558 30.8499 57.3492 30.4685 58.3222 30.4685H64.9172C65.8902 30.4685 66.7836 30.8499 67.437 31.4637C68.1179 32.1036 68.5401 32.9919 68.5401 33.9755V36.4382H71.4473C72.3913 36.4382 73.2659 36.7849 73.9121 37.3439C74.6263 37.9606 75.0701 38.8302 75.0701 39.8022V42.2144C79.303 44.5427 82.868 47.9342 85.3993 52.029C87.9495 56.1514 89.4558 60.9771 89.5556 66.1394H89.6871C90.7786 66.1394 91.7703 66.5842 92.4874 67.3007C93.2044 68.0171 93.6497 69.0079 93.6497 70.0984V71.9848C93.6497 73.0753 93.2044 74.0662 92.4874 74.7826C91.7703 75.499 90.7786 75.9439 89.6871 75.9439H33.5523C32.4608 75.9439 31.4691 75.499 30.752 74.7826C30.035 74.0662 29.5897 73.0753 29.5897 71.9848V70.0984C29.5897 69.0079 30.035 68.0171 30.752 67.3007C31.4691 66.5842 32.4608 66.1394 33.5523 66.1394ZM111.962 85.0682L124.778 68.8548C124.809 68.8144 124.841 68.7739 124.869 68.7306L124.873 68.7248L124.887 68.7032L124.9 68.6844L124.906 68.6743C124.993 68.5356 125.058 68.3868 125.1 68.2352V68.2294L125.103 68.2251L125.107 68.2092L125.114 68.1846C125.177 67.9347 125.184 67.6704 125.126 67.4061V67.4018L125.117 67.3671V67.3599L125.112 67.3425C124.889 66.4788 124.867 65.5659 125.055 64.6776C125.234 63.8298 125.606 63.0108 126.177 62.2886C127.169 61.0349 128.578 60.2997 130.054 60.1263C131.494 59.9573 132.993 60.3184 134.228 61.2457C134.297 61.3107 134.372 61.3685 134.449 61.4205C135.637 62.4056 136.334 63.7734 136.502 65.2048C136.671 66.6435 136.31 68.1413 135.381 69.3748C135.316 69.4441 135.259 69.5178 135.207 69.5958C134.651 70.2645 133.972 70.7773 133.227 71.1297C132.409 71.5168 131.516 71.7061 130.622 71.6902C130.041 71.6815 129.524 71.9603 129.204 72.3936L112.489 93.5396C111.031 92.3624 109.506 91.2097 108.022 90.0528L111.761 85.3238C111.835 85.2458 111.903 85.1606 111.962 85.0711V85.0682ZM112.239 124.957V138.27C112.239 139.224 111.465 140 110.507 140H12.7319C11.7763 140 11 139.226 11 138.27V11.7304C11 10.7756 11.7749 10 12.7319 10H91.4769C91.9597 10 92.3977 10.1979 92.7114 10.5171L111.733 29.5225C112.072 29.8605 112.241 30.3024 112.241 30.7459V79.1548L121.591 67.3252C121.415 66.2145 121.44 65.0763 121.674 63.9713C121.96 62.6194 122.554 61.3107 123.472 60.1494C125.059 58.1417 127.309 56.966 129.662 56.6901C132.009 56.4142 134.466 57.0382 136.476 58.6242C138.485 60.2116 139.661 62.4576 139.937 64.8091C140.213 67.1533 139.588 69.6073 138.001 71.6165C137.083 72.7778 135.948 73.6589 134.701 74.2482C133.676 74.7321 132.573 75.021 131.449 75.1076L114.865 96.0889C115.038 96.4832 115.151 96.9007 115.2 97.3239C115.329 98.4115 115.038 99.554 114.299 100.489L112.974 102.165L120.507 108.111C122.178 109.429 123.156 111.306 123.387 113.267C123.617 115.221 123.099 117.27 121.781 118.939L118.067 123.638C117.477 124.385 116.393 124.512 115.645 123.922L114.402 122.942L114.279 123.098C113.684 123.852 112.985 124.476 112.238 124.955L112.239 124.957ZM109.682 122.42C109.516 122.488 109.347 122.542 109.18 122.583C108.515 122.747 107.881 122.687 107.417 122.373C107.349 122.31 107.276 122.256 107.201 122.208L98.7847 115.567C98.7066 115.491 98.6213 115.425 98.5302 115.366L81.9124 102.254C81.8343 102.178 81.749 102.112 81.658 102.053L81.2257 101.712C80.7559 101.341 80.5231 100.704 80.5275 99.9772C80.5332 99.138 80.8469 98.2093 81.4686 97.3802C81.538 97.3051 81.5987 97.2271 81.6536 97.1433L81.6739 97.1173L111.697 120.807L111.676 120.834C111.605 120.908 111.543 120.986 111.488 121.068C111.028 121.619 110.489 122.037 109.929 122.309C109.844 122.339 109.76 122.378 109.682 122.42ZM108.777 32.4791V83.5386L105.007 88.308C104.585 88.2314 104.157 88.2184 103.736 88.2675C102.704 88.3888 101.712 88.8814 100.983 89.7191L100.981 89.722C100.937 89.7726 100.894 89.8231 100.853 89.8766L99.5263 91.5564L91.993 85.6127C90.3218 84.294 88.2718 83.7783 86.3159 84.0065C84.3527 84.2376 82.4747 85.2141 81.1549 86.8838L79.9073 88.4625H34.9936C34.038 88.4625 33.2617 89.2367 33.2617 90.1929C33.2617 91.1491 34.0366 91.9233 34.9936 91.9233H77.2313C76.9003 92.631 77.0853 93.4977 77.7258 94.0018L78.969 94.9825L78.8476 95.1356C77.6795 96.6132 77.0882 98.3523 77.0781 99.9642C77.0738 100.591 77.1562 101.202 77.3253 101.776H34.9921C34.0366 101.776 33.2602 102.55 33.2602 103.506C33.2602 104.462 34.0351 105.236 34.9921 105.236H80.127L92.6146 115.09H34.995C34.0394 115.09 33.2631 115.864 33.2631 116.82C33.2631 117.777 34.038 118.551 34.995 118.551H97.0022L105.193 125.014C106.225 125.829 107.482 126.181 108.778 126.116V136.541H14.4638V13.4593H89.745V30.7459C89.745 31.7006 90.5198 32.4763 91.4769 32.4763H108.778L108.777 32.4791ZM93.2073 15.909V29.0184H106.328L93.2073 15.909Z" fill="#663366"/>
</svg>
