<svg width="150" height="150" viewBox="0 0 150 150" fill="none" xmlns="http://www.w3.org/2000/svg">
<path d="M140.627 73.8248V79.8532C140.627 81.4713 139.315 82.7829 137.697 82.7829H103.127C101.509 82.7829 100.197 81.4713 100.197 79.8532V38.2165L120.412 19.8345L140.627 38.2165V63.57" stroke="#663366" stroke-width="4" stroke-miterlimit="10" stroke-linecap="round" stroke-linejoin="round"/>
<path d="M93.0225 44.7413L120.413 19.834L147.803 44.7413M114.422 60.8332V82.7824H126.404V60.8332C126.404 60.5608 126.35 60.291 126.246 60.0393C126.142 59.7876 125.989 59.5589 125.796 59.3662C125.604 59.1736 125.375 59.0208 125.123 58.9165C124.872 58.8123 124.602 58.7587 124.329 58.7587H116.496C115.946 58.7588 115.418 58.9774 115.029 59.3664C114.64 59.7554 114.422 60.283 114.422 60.8332Z" stroke="#663366" stroke-width="4" stroke-miterlimit="10" stroke-linecap="round" stroke-linejoin="round"/>
<path d="M120.412 47.3446C123.191 47.3446 125.444 45.092 125.444 42.3132C125.444 39.5344 123.191 37.2817 120.412 37.2817C117.634 37.2817 115.381 39.5344 115.381 42.3132C115.381 45.092 117.634 47.3446 120.412 47.3446Z" stroke="#663366" stroke-width="4" stroke-miterlimit="10" stroke-linecap="round" stroke-linejoin="round"/>
<path d="M2.19727 33.8703V18.1309C2.19727 16.5128 3.50889 15.2012 5.12695 15.2012H39.697C41.315 15.2012 42.6267 16.5128 42.6267 18.1309V79.8532C42.6267 81.4713 41.315 82.7829 39.697 82.7829H5.12695C3.50889 82.7829 2.19727 81.4713 2.19727 79.8532V44.1254" stroke="#663366" stroke-width="4" stroke-miterlimit="10" stroke-linecap="round" stroke-linejoin="round"/>
<path d="M2.19727 29.7368H42.6267V48.9919H2.19727" stroke="#663366" stroke-width="4" stroke-miterlimit="10" stroke-linecap="round" stroke-linejoin="round"/>
<path d="M15.9064 68.2471H2.19727V48.9917H42.6267V68.2471H28.696" stroke="#663366" stroke-width="4" stroke-miterlimit="10" stroke-linecap="round" stroke-linejoin="round"/>
<path d="M22.4121 93.0862V103.941C22.4121 107.583 25.3646 110.535 29.0065 110.535H40.795M124 93.0862V103.941C124 107.583 121.048 110.535 117.406 110.535H105.618M16.4209 60.8333V82.7825H28.403V60.8333C28.4031 60.5609 28.3494 60.2911 28.2452 60.0394C28.141 59.7877 27.9881 59.559 27.7955 59.3663C27.6029 59.1737 27.3742 59.0209 27.1224 58.9166C26.8707 58.8124 26.601 58.7588 26.3285 58.7588H18.4954C17.9453 58.7589 17.4177 58.9776 17.0287 59.3666C16.6397 59.7556 16.4211 60.2832 16.4209 60.8333ZM95.3874 124.816H51.0252V99.4548C51.0252 97.5127 52.5996 95.9386 54.5414 95.9386H91.8709C93.813 95.9386 95.3871 97.513 95.3871 99.4548L95.3874 124.816Z" stroke="#663366" stroke-width="4" stroke-miterlimit="10" stroke-linecap="round" stroke-linejoin="round"/>
<path d="M64.093 112.901V115.413M73.2064 108.631V115.413M82.3194 105.341V115.413M97.8685 124.816H48.5439C47.9262 124.816 47.3338 125.061 46.897 125.498C46.4602 125.935 46.2148 126.527 46.2148 127.145V128.566C46.2148 132.009 49.0057 134.8 52.448 134.8H93.9641C97.4067 134.8 100.197 132.009 100.197 128.566V127.145C100.197 126.839 100.137 126.536 100.02 126.254C99.9032 125.971 99.7316 125.714 99.5154 125.498C99.2991 125.282 99.0424 125.11 98.7598 124.993C98.4772 124.876 98.1743 124.816 97.8685 124.816Z" stroke="#663366" stroke-width="4" stroke-miterlimit="10" stroke-linecap="round" stroke-linejoin="round"/>
</svg>
