<svg width="150" height="150" viewBox="0 0 150 150" fill="none" xmlns="http://www.w3.org/2000/svg">
<path d="M137.831 10H46.8328C45.6352 10 44.6662 10.9701 44.6662 12.1666V29.6076H20.3762C19.4367 29.6076 18.6052 30.2128 18.3153 31.1067L10.1058 56.4567C10.1052 56.6845 10.0166 56.8928 10 57.1243L10 67.2211C10 70.5846 12.424 73.4337 15.8504 74.4648V111.724C15.8504 112.92 16.8194 113.891 18.017 113.891H59.4865C60.591 115.295 61.8765 116.525 63.332 117.559L60.2473 137.499C60.0174 138.773 61.1022 140.029 62.3886 139.998C62.8689 139.998 63.3471 139.838 63.7406 139.524L74.2162 131.159L84.6727 139.523C86.1342 140.772 88.5249 139.383 88.1681 137.499L86.5447 126.998H137.831C139.029 126.998 139.998 126.028 139.998 124.832V12.1666C139.998 10.9701 139.029 10 137.831 10ZM21.9525 33.9409H80.3797L87.1864 54.9577C63.8402 54.9577 38.4916 54.9577 15.1458 54.9577L21.9525 33.9409ZM81.6005 114.687C72.4368 120.432 59.5272 113.306 59.8328 102.385C59.5232 90.7537 73.9812 83.6195 82.9951 90.9953C90.9218 96.7268 90.205 109.922 81.6005 114.687ZM27.3119 67.2211V59.2909H36.0123V67.2254C35.8434 71.5973 27.4453 71.6161 27.3119 67.2211ZM61.9781 59.2909V67.2211C62.021 69.1928 59.6683 70.6244 57.6829 70.5575C55.2834 70.5557 53.3327 69.0598 53.3327 67.2211V59.2909H61.9781ZM77.8363 72.8534C79.0641 73.881 80.5862 74.4743 82.1485 74.7758V85.4133C79.2573 84.0688 76.014 83.4915 72.8324 83.7153V74.6499C74.4789 74.2873 75.9587 73.4323 77.1784 72.2918C77.3969 72.4795 77.6097 72.6721 77.8363 72.8534ZM75.0202 67.2211C74.8846 71.6177 66.4889 71.5962 66.3198 67.2252V59.2909H75.0202V67.2211ZM48.9995 67.2211C48.9483 71.4616 40.5696 71.7593 40.354 67.221L40.3541 59.2909H48.9995V67.2211ZM33.833 74.6499C35.4697 74.2773 36.9612 73.4382 38.1769 72.2935C41.6622 75.729 47.6796 75.7099 51.1661 72.2876C54.6528 75.7101 60.6701 75.7288 64.1553 72.2935C65.3708 73.4382 66.8626 74.2772 68.4992 74.6499V84.5574C65.2782 85.6082 62.3752 87.5162 60.1331 90.0576H33.833V74.6499ZM84.093 70.5473C83.9491 70.56 83.7989 70.5547 83.6444 70.5579C81.2789 70.5579 79.3535 69.0609 79.3535 67.2211V59.2909H87.9989V67.2211C87.9989 68.899 86.2998 70.3579 84.093 70.5473ZM14.3333 67.2211V59.2909H22.9787V67.2211C23.0238 69.2191 20.6035 70.7835 18.2011 70.543C16.0323 70.3579 14.3333 68.899 14.3333 67.2211ZM20.1836 109.557V74.7758C22.0461 74.4429 23.7872 73.6024 25.1538 72.2918C26.3733 73.4324 27.8535 74.2872 29.4997 74.6499V92.2242C29.4997 93.4207 30.4688 94.3908 31.6664 94.3908H57.2873C55.0482 99.1022 54.9333 104.74 56.917 109.557H20.1836ZM75.5725 126.694C74.7811 126.061 73.6576 126.06 72.8663 126.693L65.3825 132.669L67.3735 119.791C71.721 121.473 76.697 121.477 81.0441 119.791L83.033 132.662L75.5725 126.694ZM135.665 122.665H85.8748L85.0831 117.543C94.8143 111.107 95.5222 95.64 86.4818 88.2886V74.4594C89.9185 73.4195 92.3321 70.5768 92.3321 67.2211V57.1243C92.3158 56.8929 92.2273 56.6849 92.2264 56.4567L84.0168 31.1067C83.727 30.2128 82.8954 29.6076 81.956 29.6076H48.9995V14.3333H135.665V122.665Z" fill="#663366"/>
<path d="M111.833 40.3328H124.833C127.677 40.2861 127.684 36.0474 124.833 35.9995L111.833 35.9995C108.989 36.0462 108.982 40.2849 111.833 40.3328Z" fill="#663366"/>
<path d="M98.8326 53.3328H124.832C126.03 53.3328 126.999 52.3627 126.999 51.1661C126.999 49.9696 126.03 48.9995 124.832 48.9995H98.8326C95.9925 49.0449 95.9784 53.2845 98.8326 53.3328Z" fill="#663366"/>
<path d="M98.8326 66.3323H124.832C126.03 66.3323 126.999 65.3622 126.999 64.1657C126.999 62.9691 126.03 61.999 124.832 61.999H98.8326C95.9925 62.0444 95.9784 66.284 98.8326 66.3323Z" fill="#663366"/>
<path d="M124.832 103.165H105.333C102.491 103.211 102.48 107.45 105.333 107.498L124.832 107.498C127.675 107.452 127.685 103.213 124.832 103.165Z" fill="#663366"/>
</svg>
