<svg width="150" height="150" viewBox="0 0 150 150" fill="none" xmlns="http://www.w3.org/2000/svg">
<g clip-path="url(#clip0_103_828)">
<path d="M108.738 23.7456V45.9966C108.738 48.6128 110.856 50.7339 113.473 50.7339H145.436C146.742 50.7339 147.803 49.6733 147.803 48.3667V4.56494C147.803 3.2583 146.742 2.19775 145.436 2.19775H113.473C110.856 2.19775 108.738 4.31885 108.738 6.93213V13.4624" stroke="#663366" stroke-width="4" stroke-miterlimit="10" stroke-linecap="round" stroke-linejoin="round"/>
<path d="M41.282 134.742L46.4471 129.577C51.8348 124.193 52.2332 115.462 47.1297 109.808C41.6219 103.705 32.2029 103.527 26.4637 109.266C20.7244 103.527 11.3084 103.705 5.8006 109.808C0.69708 115.462 1.09552 124.193 6.48321 129.577L23.4666 146.561C25.1219 148.216 27.8084 148.216 29.4637 146.561L34.0135 142.011M51.6209 69.4895V100.45C51.6209 102.085 52.9451 103.412 54.5799 103.412H95.4197C97.0545 103.412 98.3787 102.085 98.3787 100.45V49.55C98.3787 47.9152 97.0545 46.5881 95.4197 46.5881H54.5799C52.9451 46.5881 51.6209 47.9152 51.6209 49.55V59.2063M61.0902 69.0814H88.9094M61.0902 57.2434H88.9094M61.0902 80.919H88.9094M61.0902 92.757H74.9998M145.435 50.7327H113.473C110.858 50.7327 108.738 48.6128 108.738 45.9975C108.738 43.3824 110.857 41.2622 113.473 41.2622H147.803V48.3649C147.803 48.6759 147.741 48.9838 147.622 49.271C147.503 49.5583 147.329 49.8193 147.109 50.0392C146.889 50.2591 146.628 50.4335 146.341 50.5525C146.054 50.6715 145.746 50.7327 145.435 50.7327ZM134.189 20.7324H122.351C121.723 20.7324 121.121 20.483 120.677 20.039C120.233 19.595 119.984 18.9928 119.984 18.3649V14.0354C119.984 13.7245 120.045 13.4167 120.164 13.1295C120.283 12.8422 120.457 12.5812 120.677 12.3614C120.897 12.1415 121.158 11.9672 121.445 11.8482C121.732 11.7292 122.04 11.668 122.351 11.668H134.189C134.5 11.668 134.808 11.7292 135.095 11.8482C135.382 11.9672 135.643 12.1415 135.863 12.3614C136.083 12.5812 136.257 12.8422 136.376 13.1295C136.495 13.4167 136.557 13.7245 136.557 14.0354V18.3649C136.557 18.9928 136.307 19.595 135.863 20.039C135.419 20.483 134.817 20.7324 134.189 20.7324Z" stroke="#663366" stroke-width="4" stroke-miterlimit="10" stroke-linecap="round" stroke-linejoin="round"/>
<path d="M106.075 127.073C108.69 127.073 110.81 124.953 110.81 122.337C110.81 119.722 108.69 117.602 106.075 117.602C103.46 117.602 101.34 119.722 101.34 122.337C101.34 124.953 103.46 127.073 106.075 127.073Z" stroke="#663366" stroke-width="4" stroke-miterlimit="10" stroke-linecap="round" stroke-linejoin="round"/>
<path d="M110.811 122.337V108.132L114.954 105.172" stroke="#663366" stroke-width="4" stroke-miterlimit="10" stroke-linecap="round" stroke-linejoin="round"/>
<path d="M134.485 109.626C137.1 109.626 139.221 107.506 139.221 104.891C139.221 102.276 137.1 100.156 134.485 100.156C131.87 100.156 129.75 102.276 129.75 104.891C129.75 107.506 131.87 109.626 134.485 109.626Z" stroke="#663366" stroke-width="4" stroke-miterlimit="10" stroke-linecap="round" stroke-linejoin="round"/>
<path d="M139.221 104.891V90.6857L143.364 87.7261" stroke="#663366" stroke-width="4" stroke-miterlimit="10" stroke-linecap="round" stroke-linejoin="round"/>
<path d="M116.696 147.789C119.311 147.789 121.431 145.669 121.431 143.054C121.431 140.438 119.311 138.318 116.696 138.318C114.081 138.318 111.961 140.438 111.961 143.054C111.961 145.669 114.081 147.789 116.696 147.789Z" stroke="#663366" stroke-width="4" stroke-miterlimit="10" stroke-linecap="round" stroke-linejoin="round"/>
<path d="M121.432 143.054V122.929L139.78 117.603" stroke="#663366" stroke-width="4" stroke-miterlimit="10" stroke-linecap="round" stroke-linejoin="round"/>
<path d="M135.044 142.462C137.659 142.462 139.779 140.342 139.779 137.726C139.779 135.111 137.659 132.991 135.044 132.991C132.429 132.991 130.309 135.111 130.309 137.726C130.309 140.342 132.429 142.462 135.044 142.462Z" stroke="#663366" stroke-width="4" stroke-miterlimit="10" stroke-linecap="round" stroke-linejoin="round"/>
<path d="M139.779 137.727V117.602M22.4155 60.7947C21.1962 65.3228 20.5452 70.0845 20.5452 75.0002C20.5452 79.9159 21.1962 84.6775 22.4155 89.2057M60.7938 127.584C65.322 128.803 70.0836 129.454 74.9993 129.454C79.915 129.454 84.6767 128.803 89.2048 127.584M127.583 89.2057C128.802 84.6775 129.453 79.9159 129.453 75.0002C129.453 70.0845 128.802 65.3228 127.583 60.7947M89.2048 22.4167C84.6767 21.1974 79.915 20.5464 74.9993 20.5464C70.0836 20.5464 65.322 21.1974 60.7938 22.4167M4.81162 36.9992L18.8105 36.9995L23.0448 50.0311M9.91162 9.61133L14.0803 22.4413L3.17773 30.3626" stroke="#663366" stroke-width="4" stroke-miterlimit="10" stroke-linecap="round" stroke-linejoin="round"/>
<path d="M26.4647 50.7327C39.8673 50.7327 50.7322 39.8678 50.7322 26.4652C50.7322 13.0627 39.8673 2.19775 26.4647 2.19775C13.0622 2.19775 2.19727 13.0627 2.19727 26.4652C2.19727 39.8678 13.0622 50.7327 26.4647 50.7327Z" stroke="#663366" stroke-width="4" stroke-miterlimit="10" stroke-linecap="round" stroke-linejoin="round"/>
<path d="M26.4639 19.1911L19.546 24.2173M26.4639 19.1911L33.382 24.2173M26.4639 19.1911V13.4439M19.546 24.2173L22.1883 32.3498M19.546 24.2173L14.0801 22.4413M22.1883 32.3498H30.7395M22.1883 32.3498L18.8104 36.9995M30.7395 32.3498L33.382 24.2173M30.7395 32.3498L34.1177 36.9995M33.382 24.2173L38.8477 22.4413M14.9666 5.09082L26.4639 13.4439M26.4639 13.4439L37.9614 5.09082M48.1166 36.9992L34.1177 36.9995M34.1177 36.9995L29.8831 50.0311M43.0163 9.61133L38.8477 22.4413M38.8477 22.4413L49.7505 30.3626" stroke="#663366" stroke-width="4" stroke-miterlimit="10" stroke-linecap="round" stroke-linejoin="round"/>
</g>
<defs>
<clipPath id="clip0_103_828">
<rect width="150" height="150" fill="white"/>
</clipPath>
</defs>
</svg>
