<svg width="150" height="150" viewBox="0 0 150 150" fill="none" xmlns="http://www.w3.org/2000/svg">
<mask id="path-1-outside-1_105_1210" maskUnits="userSpaceOnUse" x="9" y="9" width="131" height="132" fill="black">
<rect fill="white" x="9" y="9" width="131" height="132"/>
<path fill-rule="evenodd" clip-rule="evenodd" d="M44.553 139.993C43.5336 139.993 42.7051 139.171 42.7051 138.148C42.7051 137.316 43.2557 136.619 44.0079 136.385V129.301C44.0079 127.185 43.1412 125.259 41.7403 123.861C40.3395 122.462 38.4099 121.597 36.2895 121.597L33.9293 121.603C33.2425 121.978 32.5066 122.277 31.738 122.49C30.8114 122.751 29.8465 122.887 28.8545 122.887C27.8625 122.887 26.8977 122.745 25.971 122.49C25.2025 122.277 24.4721 121.973 23.7798 121.603H21.4196C19.2992 121.603 17.3696 122.468 15.9688 123.866C14.5679 125.264 13.7012 127.19 13.7012 129.307V136.391C14.4589 136.619 15.0039 137.321 15.0039 138.154C15.0039 139.171 14.1754 139.998 13.1561 139.998C12.2894 139.998 11.4991 139.644 10.9266 139.079L10.9321 139.073L10.9266 139.068C10.3543 138.496 10 137.713 10 136.853V129.312C10 126.178 11.281 123.333 13.3522 121.265C15.4182 119.203 18.2743 117.919 21.414 117.919H24.2594V117.925C24.5865 117.925 24.919 118.012 25.2188 118.197C25.753 118.523 26.3417 118.779 26.9576 118.953C27.5518 119.116 28.1841 119.209 28.8437 119.209C29.5087 119.209 30.141 119.122 30.7298 118.953C31.313 118.79 31.8635 118.556 32.3705 118.257C32.6703 118.044 33.0355 117.925 33.428 117.925H36.2734C39.4131 117.925 42.2639 119.203 44.3352 121.271C46.4011 123.333 47.6874 126.184 47.6874 129.318V136.859C47.6874 137.724 47.3331 138.513 46.7662 139.084L46.7608 139.079C46.2048 139.639 45.4142 139.993 44.553 139.993ZM112.149 35.8391C111.435 36.5573 110.268 36.5628 109.549 35.8446C108.829 35.1318 108.824 33.9674 109.543 33.2493L113.25 29.5331C113.588 29.1359 114.089 28.8911 114.651 28.8911C115.212 28.8911 115.714 29.1414 116.052 29.5331L119.758 33.2493C120.472 33.9674 120.472 35.1318 119.753 35.8446C119.033 36.5573 117.867 36.5573 117.153 35.8391L116.498 35.1808V44.2343C118.564 43.8535 120.412 42.8524 121.835 41.4323C123.672 39.5988 124.811 37.0634 124.811 34.2614C124.811 31.4594 123.672 28.9294 121.835 27.0904C119.998 25.2568 117.458 24.1197 114.656 24.1197C111.854 24.1197 109.314 25.2568 107.472 27.0904C105.635 28.9239 104.496 31.4594 104.496 34.2614C104.496 37.0634 105.635 39.5933 107.472 41.4323C108.894 42.8523 110.742 43.8535 112.808 44.2343L112.803 35.1862L112.149 35.8391ZM114.651 20.4467C118.472 20.4467 121.939 21.9919 124.441 24.4946C126.948 26.9974 128.496 30.4523 128.496 34.2663C128.496 38.0804 126.948 41.5408 124.441 44.038C121.933 46.5408 118.472 48.0859 114.651 48.0859C110.83 48.0859 107.363 46.5407 104.861 44.038C102.354 41.5352 100.806 38.0804 100.806 34.2663C100.806 30.4468 102.354 26.9919 104.861 24.4946C107.363 21.9972 110.824 20.4467 114.651 20.4467ZM92.5696 46.5947C92.1281 45.7732 91.7247 44.9299 91.3649 44.0648H91.3595C91.245 43.7982 91.1414 43.5261 91.0379 43.2486L84.8948 45.8112C85.3581 48.9723 85.2327 53.6786 85.1346 57.4165C85.1183 57.9769 85.1074 58.5155 85.0965 59.0488H94.4993C95.5186 59.0488 96.3417 59.8703 96.3417 60.8932V69.7998C96.3417 70.8172 95.5186 71.6442 94.4993 71.6442H84.8948V99.0667C84.8948 100.084 84.0718 100.906 83.047 100.906C82.0277 100.906 81.1992 100.084 81.1992 99.0667L81.2046 69.7945C81.2046 68.7771 82.0332 67.9501 83.0525 67.9501H92.6569V62.7269H36.3445V67.9501H45.9435C46.9628 67.9501 47.7913 68.7771 47.7913 69.7945V99.0667C47.7913 100.084 46.9682 100.906 45.9435 100.906C44.9242 100.906 44.0957 100.084 44.0957 99.0667L44.1011 71.64H34.5021C33.4828 71.64 32.6543 70.8185 32.6543 69.7956V60.889C32.6543 59.8716 33.4774 59.0446 34.5021 59.0446H43.1037V48.3969C43.1037 44.7624 44.5917 41.4598 46.9902 39.0659C49.3887 36.672 52.6972 35.1865 56.3384 35.1865H59.7235V35.192C60.0505 35.192 60.383 35.279 60.6828 35.4586C61.3478 35.8666 62.0728 36.1822 62.8468 36.3998C63.5827 36.6066 64.3676 36.7154 65.1907 36.7154C66.0139 36.7154 66.7987 36.6066 67.5346 36.3998C68.2651 36.1931 68.9573 35.8993 69.5951 35.5184C69.8949 35.3062 70.2601 35.1811 70.6581 35.1811H74.0431C79.314 35.1811 85.0049 32.8306 90.4017 30.5998C90.8922 30.3985 91.3774 30.1972 91.8625 29.9959C91.7154 29.9143 91.5682 29.8381 91.4156 29.7674C90.5652 29.3865 90.1455 28.4398 90.4017 27.5748C90.6742 26.6389 91.0013 25.7195 91.3774 24.8162C91.7535 23.9076 92.1787 23.0207 92.6529 22.1612C93.0999 21.345 94.0755 21.0023 94.9205 21.3233V21.3178C95.8417 21.6715 96.8501 21.7422 97.8149 21.5355C98.7415 21.3396 99.6246 20.8771 100.35 20.1481C100.377 20.1209 100.404 20.0937 100.431 20.0719C101.107 19.3646 101.543 18.5104 101.734 17.6181C101.941 16.6551 101.87 15.6485 101.516 14.729C101.167 13.815 101.598 12.7976 102.481 12.4003C103.32 11.9487 104.165 11.5461 105.015 11.1925C105.909 10.8225 106.836 10.496 107.785 10.2185C108.7 9.95194 109.66 10.4253 110.009 11.2904C110.412 12.1664 111.061 12.9064 111.867 13.4287L111.873 13.4233C112.669 13.9401 113.628 14.2394 114.658 14.2394C115.694 14.2394 116.653 13.9401 117.444 13.4287H117.449L117.444 13.4233C118.272 12.8901 118.932 12.1283 119.33 11.2361C119.711 10.3873 120.66 9.96834 121.526 10.2241C122.48 10.5016 123.401 10.828 124.295 11.198C124.328 11.2089 124.361 11.2252 124.388 11.2415C125.266 11.606 126.121 12.0195 126.95 12.4711C127.768 12.9173 128.111 13.8911 127.789 14.7345H127.795C127.44 15.654 127.37 16.6606 127.577 17.6236C127.778 18.5485 128.236 19.43 128.967 20.1536C129.697 20.8826 130.58 21.3397 131.507 21.541C132.472 21.7477 133.48 21.677 134.401 21.3233C135.317 20.9751 136.336 21.405 136.74 22.2864C137.181 23.1079 137.585 23.9513 137.944 24.8164H137.95C138.32 25.7086 138.647 26.6336 138.925 27.5803C139.193 28.4944 138.718 29.452 137.852 29.8003C136.974 30.2029 136.227 30.8558 135.709 31.6555C135.197 32.4445 134.897 33.402 134.897 34.4358C134.897 35.4696 135.197 36.4272 135.709 37.2161L135.715 37.2215L135.72 37.2161C136.254 38.0431 137.018 38.7014 137.912 39.0987C138.762 39.4795 139.182 40.4263 138.925 41.2913C138.647 42.2435 138.32 43.1685 137.95 44.0553C137.579 44.9422 137.154 45.829 136.674 46.7049C136.227 47.5211 135.252 47.8638 134.407 47.5428V47.5483C133.485 47.1946 132.477 47.1239 131.512 47.3306C130.591 47.5319 129.703 47.989 128.978 48.718C128.253 49.4471 127.789 50.3284 127.588 51.248C127.38 52.211 127.451 53.2176 127.806 54.1371C128.154 55.0511 127.724 56.0685 126.841 56.4712C126.007 56.9228 125.157 57.3254 124.306 57.6791C123.412 58.0491 122.486 58.3755 121.537 58.653C120.621 58.9196 119.662 58.4462 119.313 57.5812C118.91 56.7052 118.256 55.9597 117.454 55.4428C116.664 54.9314 115.705 54.6322 114.669 54.6322C113.639 54.6322 112.679 54.9314 111.884 55.4483C111.851 55.4701 111.813 55.4918 111.78 55.5081C111.006 56.0359 110.385 56.7704 109.998 57.6354C109.616 58.4842 108.673 58.9032 107.801 58.6474C106.863 58.3754 105.942 58.0489 105.037 57.6735L105.032 57.6681V57.6735C104.143 57.3036 103.255 56.8792 102.377 56.4004C101.56 55.9542 101.216 54.9804 101.538 54.137H101.532C101.887 53.2175 101.958 52.2109 101.75 51.2479C101.532 50.3339 101.069 49.447 100.344 48.7234L100.339 48.7288C99.6083 47.9997 98.7253 47.5427 97.804 47.3414C96.8392 47.1347 95.8308 47.2054 94.9096 47.559C93.9939 47.9073 92.9692 47.4774 92.5712 46.596L92.5696 46.5947ZM91.2668 39.168C91.3268 39.1354 91.3922 39.1028 91.4576 39.0756C92.3352 38.6729 93.0766 38.0255 93.5999 37.2203L93.5944 37.2148C94.1122 36.4205 94.412 35.4629 94.412 34.4346C94.412 33.9394 94.3412 33.4606 94.2104 33.0037C93.4145 33.3247 92.6024 33.662 91.7901 33.9939C86.0503 36.3661 80.0053 38.8635 74.0305 38.8635H71.1307C70.3131 39.3151 69.4356 39.6742 68.5197 39.9353C67.4459 40.2346 66.3285 40.3978 65.1838 40.3978C64.0391 40.3978 62.9163 40.2346 61.8479 39.9353C60.9267 39.6796 60.0545 39.3151 59.2369 38.8635H56.3371C53.7152 38.8635 51.3278 39.9353 49.5998 41.6655C47.8664 43.3902 46.7927 45.7733 46.7927 48.3903V59.038H50.6573L50.6519 50.9965C50.6519 49.9791 51.4749 49.1521 52.4997 49.1521C53.519 49.1521 54.3475 49.9791 54.3475 50.9965V59.0434H81.416C81.4269 58.5157 81.4432 57.9335 81.4596 57.3295C81.5741 53.1401 81.7212 47.6449 81.0181 45.2019C80.751 44.2715 81.2579 43.2976 82.1573 42.9711L91.2668 39.168ZM94.7663 42.661L94.7608 42.6556H94.7663C94.6245 42.3128 94.4937 41.9701 94.3684 41.6273C95.2896 40.9798 96.0745 40.1582 96.6905 39.2061V39.2007L96.6959 39.2061C97.5844 37.8296 98.1022 36.1972 98.1022 34.4399C98.1022 32.688 97.5844 31.0502 96.6959 29.6737C96.6632 29.6247 96.6305 29.5757 96.5924 29.5322C95.9928 28.6454 95.2351 27.8728 94.3629 27.258C94.4883 26.9097 94.6245 26.5615 94.7663 26.2242C94.908 25.8814 95.0551 25.5441 95.2132 25.2122C96.3197 25.4026 97.4645 25.3809 98.5655 25.1415C100.173 24.7987 101.705 24.0043 102.948 22.7639C102.986 22.7258 103.019 22.6877 103.051 22.6496C104.234 21.4254 104.997 19.9455 105.33 18.3894C105.564 17.2849 105.592 16.1478 105.401 15.0434C105.733 14.8856 106.071 14.7387 106.42 14.5972C106.764 14.4558 107.107 14.3252 107.45 14.2C108.099 15.1141 108.922 15.9031 109.876 16.5179H109.881L109.876 16.5233C111.255 17.4102 112.896 17.9271 114.651 17.9271C116.401 17.9271 118.041 17.4102 119.421 16.5179L119.426 16.5233C120.374 15.9085 121.203 15.1196 121.852 14.2001C122.195 14.3252 122.539 14.4558 122.882 14.5972C122.915 14.6081 122.942 14.6245 122.975 14.6299C123.285 14.7605 123.596 14.8965 123.901 15.038C123.71 16.1424 123.732 17.285 123.972 18.384C124.315 19.989 125.111 21.5179 126.354 22.7584C127.597 23.9989 129.129 24.7932 130.737 25.136C131.843 25.3754 132.982 25.3972 134.089 25.2067C134.247 25.5386 134.394 25.876 134.536 26.2187L134.541 26.2242L134.53 26.2296C134.672 26.5724 134.803 26.9152 134.928 27.2579C134.007 27.9054 133.222 28.727 132.606 29.6791C131.712 31.0611 131.189 32.6988 131.189 34.4453C131.189 36.1918 131.707 37.8296 132.601 39.2061L132.595 39.2116C133.211 40.1583 134.002 40.9852 134.923 41.6328C134.797 41.9755 134.667 42.3183 134.525 42.6611C134.383 43.0093 134.231 43.3466 134.078 43.6785C132.971 43.4881 131.827 43.5099 130.726 43.7492C129.118 44.092 127.586 44.8864 126.343 46.1269C125.1 47.3674 124.305 48.8963 123.961 50.5012C123.727 51.6057 123.7 52.7429 123.89 53.8473C123.558 54.0051 123.22 54.152 122.871 54.2934C122.528 54.4349 122.184 54.5655 121.841 54.6906C121.192 53.7766 120.369 52.9876 119.415 52.3728C118.031 51.4805 116.39 50.9582 114.64 50.9582C112.885 50.9582 111.244 51.4751 109.865 52.3619C109.816 52.3946 109.767 52.4272 109.723 52.4653C108.835 53.0638 108.061 53.8201 107.445 54.6907C107.096 54.5655 106.753 54.4349 106.415 54.2935V54.288C106.066 54.1466 105.728 53.9942 105.395 53.8419C105.586 52.7374 105.564 51.5948 105.325 50.4958C104.981 48.8963 104.185 47.3728 102.943 46.1269V46.1214L102.948 46.116C101.705 44.8755 100.173 44.0812 98.5655 43.7384C97.459 43.5044 96.3197 43.4772 95.2133 43.6676C95.0552 43.3412 94.908 43.0038 94.7663 42.661ZM65.179 10C61.8867 10 58.9051 11.333 56.7465 13.4876C54.5879 15.6421 53.2525 18.6183 53.2525 21.9046C53.2525 25.1909 54.5879 28.167 56.7465 30.3216C58.905 32.4762 61.8867 33.8092 65.179 33.8092C68.4714 33.8092 71.453 32.4762 73.6116 30.3216C75.7702 28.167 77.1056 25.1909 77.1056 21.9046C77.1056 18.6183 75.7701 15.6422 73.6116 13.4876C71.4531 11.333 68.4714 10 65.179 10ZM71.0006 16.0883C69.5125 14.603 67.4521 13.6834 65.179 13.6834C62.906 13.6834 60.8456 14.6029 59.3575 16.0883C57.8694 17.5736 56.9481 19.6303 56.9481 21.8992C56.9481 24.168 57.8693 26.2247 59.3575 27.71C60.8456 29.1953 62.906 30.1149 65.179 30.1149C67.4521 30.1149 69.5125 29.1954 71.0006 27.71C72.4887 26.2247 73.41 24.168 73.41 21.8992C73.4154 19.6303 72.4942 17.5791 71.0006 16.0883ZM64.4977 74.6161C61.5541 74.6161 58.8942 75.8076 56.9646 77.7337C55.035 79.6597 53.8412 82.3149 53.8412 85.2529C53.8412 88.1908 55.035 90.846 56.9646 92.7721C58.8942 94.6981 61.5543 95.8897 64.4977 95.8897C67.441 95.8897 70.1011 94.6981 72.0307 92.7721C73.9603 90.846 75.1541 88.1908 75.1541 85.2529C75.1541 82.3149 73.9604 79.6597 72.0307 77.7337C70.1011 75.8076 67.441 74.6161 64.4977 74.6161ZM69.4252 80.3344C68.166 79.0776 66.4273 78.2996 64.5031 78.2996C62.579 78.2996 60.8401 79.0776 59.581 80.3344C58.3219 81.5913 57.5424 83.3268 57.5424 85.2474C57.5424 87.168 58.3219 88.9037 59.581 90.1605C60.8402 91.4173 62.579 92.1953 64.5031 92.1953C66.4273 92.1953 68.1661 91.4172 69.4252 90.1605C70.6843 88.9036 71.4638 87.168 71.4638 85.2474C71.4583 83.3323 70.6788 81.5966 69.4252 80.3344ZM80.1962 118.986C81.0574 118.986 81.8424 118.632 82.4202 118.061L82.4257 118.067C82.998 117.495 83.3469 116.712 83.3469 115.841V108.3C83.3469 105.166 82.0659 102.321 79.9947 100.253C77.9287 98.1912 75.0726 96.9072 71.9329 96.9072H69.0875C68.695 96.9072 68.3298 97.0324 68.03 97.2391C67.5231 97.5384 66.9725 97.7723 66.3892 97.9355C65.7951 98.0988 65.1628 98.1913 64.5032 98.1913C63.8382 98.1913 63.2059 98.1042 62.6171 97.9355C61.9957 97.7614 61.4125 97.5057 60.8783 97.1793C60.5785 96.9943 60.246 96.9127 59.9189 96.9127V96.9072H57.0735C53.9338 96.9072 51.083 98.1858 49.0117 100.253C46.9458 102.315 45.6595 105.166 45.6595 108.3V115.841C45.6595 116.706 46.0138 117.495 46.5807 118.067C47.153 118.638 47.938 118.992 48.8102 118.992C49.8295 118.992 50.658 118.17 50.658 117.147C50.658 116.315 50.1074 115.618 49.3552 115.384V108.3C49.3552 106.184 50.2219 104.258 51.6228 102.86C53.0237 101.461 54.9533 100.596 57.0736 100.596H59.4338C60.1207 100.972 60.8565 101.271 61.6251 101.483C62.5517 101.744 63.5166 101.88 64.5086 101.88C65.5006 101.88 66.4654 101.739 67.3921 101.483C68.1607 101.271 68.8911 100.966 69.5833 100.596H71.9436C74.0639 100.596 75.9935 101.461 77.3944 102.86C78.7952 104.258 79.6619 106.184 79.6619 108.3V115.384C78.9043 115.613 78.3592 116.315 78.3592 117.147C78.3483 118.159 79.1769 118.986 80.1962 118.986ZM73.3063 110.477C73.3063 109.459 74.1294 108.632 75.1541 108.632C76.1734 108.632 77.0019 109.454 77.0019 110.477V117.142C77.0019 118.159 76.1734 118.986 75.1541 118.986C74.1348 118.986 73.3063 118.165 73.3063 117.142V110.477ZM55.6946 117.142C55.6946 118.159 54.8715 118.986 53.8468 118.986C52.8275 118.986 51.999 118.165 51.999 117.142V110.477C51.999 109.459 52.8275 108.632 53.8468 108.632C54.8661 108.632 55.6946 109.454 55.6946 110.477V117.142ZM100.142 95.6291C97.1982 95.6291 94.5383 96.8206 92.6087 98.7467C90.6791 100.673 89.4853 103.328 89.4853 106.266C89.4853 109.204 90.679 111.859 92.6087 113.785C94.5383 115.711 97.1984 116.903 100.142 116.903C103.085 116.903 105.745 115.711 107.675 113.785C109.604 111.859 110.798 109.204 110.798 106.266C110.798 103.328 109.604 100.673 107.675 98.7467C105.745 96.8207 103.08 95.6291 100.142 95.6291ZM105.064 101.347C103.805 100.091 102.066 99.3126 100.142 99.3126C98.2176 99.3126 96.4787 100.091 95.2196 101.347C93.9605 102.604 93.1811 104.34 93.1811 106.26C93.1811 108.181 93.9605 109.917 95.2196 111.173C96.4787 112.43 98.2176 113.208 100.142 113.208C102.066 113.208 103.805 112.43 105.064 111.173C106.323 109.917 107.102 108.181 107.102 106.26C107.102 104.345 106.323 102.604 105.064 101.347ZM115.835 139.994C114.816 139.994 113.987 139.172 113.987 138.149C113.987 137.317 114.538 136.62 115.29 136.386V129.302C115.29 127.186 114.423 125.26 113.022 123.862C111.621 122.463 109.692 121.598 107.571 121.598H105.211C104.524 121.974 103.789 122.268 103.02 122.485C102.093 122.746 101.128 122.882 100.136 122.882C99.1443 122.882 98.1796 122.741 97.2529 122.485C96.4843 122.273 95.7539 121.968 95.0617 121.598H92.7014C90.5811 121.598 88.6515 122.463 87.2506 123.862C85.8498 125.26 84.9831 127.186 84.9831 129.302V136.386C85.7407 136.615 86.2858 137.317 86.2858 138.149C86.2858 139.167 85.4573 139.994 84.438 139.994C83.5713 139.994 82.7809 139.64 82.2085 139.074C81.6362 138.503 81.2873 137.719 81.2873 136.849V129.308C81.2873 126.174 82.5683 123.328 84.6395 121.261C86.7055 119.199 89.5616 117.915 92.7013 117.915H95.5468V117.92C95.8738 117.92 96.2063 118.007 96.5061 118.192C97.0403 118.519 97.629 118.774 98.245 118.948C98.8391 119.112 99.4714 119.204 100.131 119.204C100.796 119.204 101.428 119.117 102.017 118.948C102.6 118.785 103.151 118.551 103.658 118.252C103.958 118.04 104.323 117.92 104.715 117.92H107.561C110.7 117.92 113.551 119.199 115.622 121.266C117.688 123.328 118.975 126.179 118.975 129.313V136.854C118.975 137.638 118.68 138.361 118.195 138.916C118.152 138.971 118.103 139.025 118.054 139.08C117.492 139.64 116.701 139.994 115.835 139.994ZM108.945 131.49V138.155C108.945 139.172 109.773 139.999 110.793 139.999C111.812 139.999 112.641 139.177 112.641 138.155V131.49C112.641 130.472 111.817 129.645 110.793 129.645C109.773 129.651 108.945 130.472 108.945 131.49ZM91.3332 138.155V131.49C91.3332 130.472 90.5102 129.645 89.4854 129.645C88.4661 129.645 87.6376 130.467 87.6376 131.49V138.155C87.6376 139.172 88.4661 139.999 89.4854 139.999C90.5102 139.994 91.3332 139.172 91.3332 138.155ZM28.86 95.6294C25.9165 95.6294 23.2565 96.8209 21.3269 98.747C19.3973 100.673 18.2036 103.328 18.2036 106.266C18.2036 109.204 19.3973 111.859 21.3269 113.785C23.2565 115.711 25.9166 116.903 28.86 116.903C31.8034 116.903 34.4635 115.711 36.3931 113.785C38.3227 111.859 39.5165 109.204 39.5165 106.266C39.5165 103.328 38.3227 100.673 36.3931 98.747C34.4635 96.8209 31.7979 95.6294 28.86 95.6294ZM33.7821 101.348C32.5229 100.091 30.7842 99.3129 28.86 99.3129C26.9359 99.3129 25.197 100.091 23.9379 101.348C22.6788 102.605 21.8993 104.34 21.8993 106.261C21.8993 108.181 22.6788 109.917 23.9379 111.174C25.197 112.431 26.9359 113.209 28.86 113.209C30.7842 113.209 32.523 112.431 33.7821 111.174C35.0412 109.917 35.8207 108.181 35.8207 106.261C35.8207 104.346 35.0412 102.604 33.7821 101.348ZM37.6631 131.49V138.156C37.6631 139.173 38.4916 140 39.5109 140C40.5302 140 41.3587 139.178 41.3587 138.156V131.49C41.3587 130.473 40.5356 129.646 39.5109 129.646C38.4916 129.652 37.6631 130.473 37.6631 131.49ZM20.0514 138.156V131.49C20.0514 130.473 19.2283 129.646 18.2036 129.646C17.1842 129.646 16.3557 130.468 16.3557 131.49V138.156C16.3557 139.173 17.1843 140 18.2036 140C19.2229 139.995 20.0514 139.173 20.0514 138.156Z"/>
</mask>
<path fill-rule="evenodd" clip-rule="evenodd" d="M44.553 139.993C43.5336 139.993 42.7051 139.171 42.7051 138.148C42.7051 137.316 43.2557 136.619 44.0079 136.385V129.301C44.0079 127.185 43.1412 125.259 41.7403 123.861C40.3395 122.462 38.4099 121.597 36.2895 121.597L33.9293 121.603C33.2425 121.978 32.5066 122.277 31.738 122.49C30.8114 122.751 29.8465 122.887 28.8545 122.887C27.8625 122.887 26.8977 122.745 25.971 122.49C25.2025 122.277 24.4721 121.973 23.7798 121.603H21.4196C19.2992 121.603 17.3696 122.468 15.9688 123.866C14.5679 125.264 13.7012 127.19 13.7012 129.307V136.391C14.4589 136.619 15.0039 137.321 15.0039 138.154C15.0039 139.171 14.1754 139.998 13.1561 139.998C12.2894 139.998 11.4991 139.644 10.9266 139.079L10.9321 139.073L10.9266 139.068C10.3543 138.496 10 137.713 10 136.853V129.312C10 126.178 11.281 123.333 13.3522 121.265C15.4182 119.203 18.2743 117.919 21.414 117.919H24.2594V117.925C24.5865 117.925 24.919 118.012 25.2188 118.197C25.753 118.523 26.3417 118.779 26.9576 118.953C27.5518 119.116 28.1841 119.209 28.8437 119.209C29.5087 119.209 30.141 119.122 30.7298 118.953C31.313 118.79 31.8635 118.556 32.3705 118.257C32.6703 118.044 33.0355 117.925 33.428 117.925H36.2734C39.4131 117.925 42.2639 119.203 44.3352 121.271C46.4011 123.333 47.6874 126.184 47.6874 129.318V136.859C47.6874 137.724 47.3331 138.513 46.7662 139.084L46.7608 139.079C46.2048 139.639 45.4142 139.993 44.553 139.993ZM112.149 35.8391C111.435 36.5573 110.268 36.5628 109.549 35.8446C108.829 35.1318 108.824 33.9674 109.543 33.2493L113.25 29.5331C113.588 29.1359 114.089 28.8911 114.651 28.8911C115.212 28.8911 115.714 29.1414 116.052 29.5331L119.758 33.2493C120.472 33.9674 120.472 35.1318 119.753 35.8446C119.033 36.5573 117.867 36.5573 117.153 35.8391L116.498 35.1808V44.2343C118.564 43.8535 120.412 42.8524 121.835 41.4323C123.672 39.5988 124.811 37.0634 124.811 34.2614C124.811 31.4594 123.672 28.9294 121.835 27.0904C119.998 25.2568 117.458 24.1197 114.656 24.1197C111.854 24.1197 109.314 25.2568 107.472 27.0904C105.635 28.9239 104.496 31.4594 104.496 34.2614C104.496 37.0634 105.635 39.5933 107.472 41.4323C108.894 42.8523 110.742 43.8535 112.808 44.2343L112.803 35.1862L112.149 35.8391ZM114.651 20.4467C118.472 20.4467 121.939 21.9919 124.441 24.4946C126.948 26.9974 128.496 30.4523 128.496 34.2663C128.496 38.0804 126.948 41.5408 124.441 44.038C121.933 46.5408 118.472 48.0859 114.651 48.0859C110.83 48.0859 107.363 46.5407 104.861 44.038C102.354 41.5352 100.806 38.0804 100.806 34.2663C100.806 30.4468 102.354 26.9919 104.861 24.4946C107.363 21.9972 110.824 20.4467 114.651 20.4467ZM92.5696 46.5947C92.1281 45.7732 91.7247 44.9299 91.3649 44.0648H91.3595C91.245 43.7982 91.1414 43.5261 91.0379 43.2486L84.8948 45.8112C85.3581 48.9723 85.2327 53.6786 85.1346 57.4165C85.1183 57.9769 85.1074 58.5155 85.0965 59.0488H94.4993C95.5186 59.0488 96.3417 59.8703 96.3417 60.8932V69.7998C96.3417 70.8172 95.5186 71.6442 94.4993 71.6442H84.8948V99.0667C84.8948 100.084 84.0718 100.906 83.047 100.906C82.0277 100.906 81.1992 100.084 81.1992 99.0667L81.2046 69.7945C81.2046 68.7771 82.0332 67.9501 83.0525 67.9501H92.6569V62.7269H36.3445V67.9501H45.9435C46.9628 67.9501 47.7913 68.7771 47.7913 69.7945V99.0667C47.7913 100.084 46.9682 100.906 45.9435 100.906C44.9242 100.906 44.0957 100.084 44.0957 99.0667L44.1011 71.64H34.5021C33.4828 71.64 32.6543 70.8185 32.6543 69.7956V60.889C32.6543 59.8716 33.4774 59.0446 34.5021 59.0446H43.1037V48.3969C43.1037 44.7624 44.5917 41.4598 46.9902 39.0659C49.3887 36.672 52.6972 35.1865 56.3384 35.1865H59.7235V35.192C60.0505 35.192 60.383 35.279 60.6828 35.4586C61.3478 35.8666 62.0728 36.1822 62.8468 36.3998C63.5827 36.6066 64.3676 36.7154 65.1907 36.7154C66.0139 36.7154 66.7987 36.6066 67.5346 36.3998C68.2651 36.1931 68.9573 35.8993 69.5951 35.5184C69.8949 35.3062 70.2601 35.1811 70.6581 35.1811H74.0431C79.314 35.1811 85.0049 32.8306 90.4017 30.5998C90.8922 30.3985 91.3774 30.1972 91.8625 29.9959C91.7154 29.9143 91.5682 29.8381 91.4156 29.7674C90.5652 29.3865 90.1455 28.4398 90.4017 27.5748C90.6742 26.6389 91.0013 25.7195 91.3774 24.8162C91.7535 23.9076 92.1787 23.0207 92.6529 22.1612C93.0999 21.345 94.0755 21.0023 94.9205 21.3233V21.3178C95.8417 21.6715 96.8501 21.7422 97.8149 21.5355C98.7415 21.3396 99.6246 20.8771 100.35 20.1481C100.377 20.1209 100.404 20.0937 100.431 20.0719C101.107 19.3646 101.543 18.5104 101.734 17.6181C101.941 16.6551 101.87 15.6485 101.516 14.729C101.167 13.815 101.598 12.7976 102.481 12.4003C103.32 11.9487 104.165 11.5461 105.015 11.1925C105.909 10.8225 106.836 10.496 107.785 10.2185C108.7 9.95194 109.66 10.4253 110.009 11.2904C110.412 12.1664 111.061 12.9064 111.867 13.4287L111.873 13.4233C112.669 13.9401 113.628 14.2394 114.658 14.2394C115.694 14.2394 116.653 13.9401 117.444 13.4287H117.449L117.444 13.4233C118.272 12.8901 118.932 12.1283 119.33 11.2361C119.711 10.3873 120.66 9.96834 121.526 10.2241C122.48 10.5016 123.401 10.828 124.295 11.198C124.328 11.2089 124.361 11.2252 124.388 11.2415C125.266 11.606 126.121 12.0195 126.95 12.4711C127.768 12.9173 128.111 13.8911 127.789 14.7345H127.795C127.44 15.654 127.37 16.6606 127.577 17.6236C127.778 18.5485 128.236 19.43 128.967 20.1536C129.697 20.8826 130.58 21.3397 131.507 21.541C132.472 21.7477 133.48 21.677 134.401 21.3233C135.317 20.9751 136.336 21.405 136.74 22.2864C137.181 23.1079 137.585 23.9513 137.944 24.8164H137.95C138.32 25.7086 138.647 26.6336 138.925 27.5803C139.193 28.4944 138.718 29.452 137.852 29.8003C136.974 30.2029 136.227 30.8558 135.709 31.6555C135.197 32.4445 134.897 33.402 134.897 34.4358C134.897 35.4696 135.197 36.4272 135.709 37.2161L135.715 37.2215L135.72 37.2161C136.254 38.0431 137.018 38.7014 137.912 39.0987C138.762 39.4795 139.182 40.4263 138.925 41.2913C138.647 42.2435 138.32 43.1685 137.95 44.0553C137.579 44.9422 137.154 45.829 136.674 46.7049C136.227 47.5211 135.252 47.8638 134.407 47.5428V47.5483C133.485 47.1946 132.477 47.1239 131.512 47.3306C130.591 47.5319 129.703 47.989 128.978 48.718C128.253 49.4471 127.789 50.3284 127.588 51.248C127.38 52.211 127.451 53.2176 127.806 54.1371C128.154 55.0511 127.724 56.0685 126.841 56.4712C126.007 56.9228 125.157 57.3254 124.306 57.6791C123.412 58.0491 122.486 58.3755 121.537 58.653C120.621 58.9196 119.662 58.4462 119.313 57.5812C118.91 56.7052 118.256 55.9597 117.454 55.4428C116.664 54.9314 115.705 54.6322 114.669 54.6322C113.639 54.6322 112.679 54.9314 111.884 55.4483C111.851 55.4701 111.813 55.4918 111.78 55.5081C111.006 56.0359 110.385 56.7704 109.998 57.6354C109.616 58.4842 108.673 58.9032 107.801 58.6474C106.863 58.3754 105.942 58.0489 105.037 57.6735L105.032 57.6681V57.6735C104.143 57.3036 103.255 56.8792 102.377 56.4004C101.56 55.9542 101.216 54.9804 101.538 54.137H101.532C101.887 53.2175 101.958 52.2109 101.75 51.2479C101.532 50.3339 101.069 49.447 100.344 48.7234L100.339 48.7288C99.6083 47.9997 98.7253 47.5427 97.804 47.3414C96.8392 47.1347 95.8308 47.2054 94.9096 47.559C93.9939 47.9073 92.9692 47.4774 92.5712 46.596L92.5696 46.5947ZM91.2668 39.168C91.3268 39.1354 91.3922 39.1028 91.4576 39.0756C92.3352 38.6729 93.0766 38.0255 93.5999 37.2203L93.5944 37.2148C94.1122 36.4205 94.412 35.4629 94.412 34.4346C94.412 33.9394 94.3412 33.4606 94.2104 33.0037C93.4145 33.3247 92.6024 33.662 91.7901 33.9939C86.0503 36.3661 80.0053 38.8635 74.0305 38.8635H71.1307C70.3131 39.3151 69.4356 39.6742 68.5197 39.9353C67.4459 40.2346 66.3285 40.3978 65.1838 40.3978C64.0391 40.3978 62.9163 40.2346 61.8479 39.9353C60.9267 39.6796 60.0545 39.3151 59.2369 38.8635H56.3371C53.7152 38.8635 51.3278 39.9353 49.5998 41.6655C47.8664 43.3902 46.7927 45.7733 46.7927 48.3903V59.038H50.6573L50.6519 50.9965C50.6519 49.9791 51.4749 49.1521 52.4997 49.1521C53.519 49.1521 54.3475 49.9791 54.3475 50.9965V59.0434H81.416C81.4269 58.5157 81.4432 57.9335 81.4596 57.3295C81.5741 53.1401 81.7212 47.6449 81.0181 45.2019C80.751 44.2715 81.2579 43.2976 82.1573 42.9711L91.2668 39.168ZM94.7663 42.661L94.7608 42.6556H94.7663C94.6245 42.3128 94.4937 41.9701 94.3684 41.6273C95.2896 40.9798 96.0745 40.1582 96.6905 39.2061V39.2007L96.6959 39.2061C97.5844 37.8296 98.1022 36.1972 98.1022 34.4399C98.1022 32.688 97.5844 31.0502 96.6959 29.6737C96.6632 29.6247 96.6305 29.5757 96.5924 29.5322C95.9928 28.6454 95.2351 27.8728 94.3629 27.258C94.4883 26.9097 94.6245 26.5615 94.7663 26.2242C94.908 25.8814 95.0551 25.5441 95.2132 25.2122C96.3197 25.4026 97.4645 25.3809 98.5655 25.1415C100.173 24.7987 101.705 24.0043 102.948 22.7639C102.986 22.7258 103.019 22.6877 103.051 22.6496C104.234 21.4254 104.997 19.9455 105.33 18.3894C105.564 17.2849 105.592 16.1478 105.401 15.0434C105.733 14.8856 106.071 14.7387 106.42 14.5972C106.764 14.4558 107.107 14.3252 107.45 14.2C108.099 15.1141 108.922 15.9031 109.876 16.5179H109.881L109.876 16.5233C111.255 17.4102 112.896 17.9271 114.651 17.9271C116.401 17.9271 118.041 17.4102 119.421 16.5179L119.426 16.5233C120.374 15.9085 121.203 15.1196 121.852 14.2001C122.195 14.3252 122.539 14.4558 122.882 14.5972C122.915 14.6081 122.942 14.6245 122.975 14.6299C123.285 14.7605 123.596 14.8965 123.901 15.038C123.71 16.1424 123.732 17.285 123.972 18.384C124.315 19.989 125.111 21.5179 126.354 22.7584C127.597 23.9989 129.129 24.7932 130.737 25.136C131.843 25.3754 132.982 25.3972 134.089 25.2067C134.247 25.5386 134.394 25.876 134.536 26.2187L134.541 26.2242L134.53 26.2296C134.672 26.5724 134.803 26.9152 134.928 27.2579C134.007 27.9054 133.222 28.727 132.606 29.6791C131.712 31.0611 131.189 32.6988 131.189 34.4453C131.189 36.1918 131.707 37.8296 132.601 39.2061L132.595 39.2116C133.211 40.1583 134.002 40.9852 134.923 41.6328C134.797 41.9755 134.667 42.3183 134.525 42.6611C134.383 43.0093 134.231 43.3466 134.078 43.6785C132.971 43.4881 131.827 43.5099 130.726 43.7492C129.118 44.092 127.586 44.8864 126.343 46.1269C125.1 47.3674 124.305 48.8963 123.961 50.5012C123.727 51.6057 123.7 52.7429 123.89 53.8473C123.558 54.0051 123.22 54.152 122.871 54.2934C122.528 54.4349 122.184 54.5655 121.841 54.6906C121.192 53.7766 120.369 52.9876 119.415 52.3728C118.031 51.4805 116.39 50.9582 114.64 50.9582C112.885 50.9582 111.244 51.4751 109.865 52.3619C109.816 52.3946 109.767 52.4272 109.723 52.4653C108.835 53.0638 108.061 53.8201 107.445 54.6907C107.096 54.5655 106.753 54.4349 106.415 54.2935V54.288C106.066 54.1466 105.728 53.9942 105.395 53.8419C105.586 52.7374 105.564 51.5948 105.325 50.4958C104.981 48.8963 104.185 47.3728 102.943 46.1269V46.1214L102.948 46.116C101.705 44.8755 100.173 44.0812 98.5655 43.7384C97.459 43.5044 96.3197 43.4772 95.2133 43.6676C95.0552 43.3412 94.908 43.0038 94.7663 42.661ZM65.179 10C61.8867 10 58.9051 11.333 56.7465 13.4876C54.5879 15.6421 53.2525 18.6183 53.2525 21.9046C53.2525 25.1909 54.5879 28.167 56.7465 30.3216C58.905 32.4762 61.8867 33.8092 65.179 33.8092C68.4714 33.8092 71.453 32.4762 73.6116 30.3216C75.7702 28.167 77.1056 25.1909 77.1056 21.9046C77.1056 18.6183 75.7701 15.6422 73.6116 13.4876C71.4531 11.333 68.4714 10 65.179 10ZM71.0006 16.0883C69.5125 14.603 67.4521 13.6834 65.179 13.6834C62.906 13.6834 60.8456 14.6029 59.3575 16.0883C57.8694 17.5736 56.9481 19.6303 56.9481 21.8992C56.9481 24.168 57.8693 26.2247 59.3575 27.71C60.8456 29.1953 62.906 30.1149 65.179 30.1149C67.4521 30.1149 69.5125 29.1954 71.0006 27.71C72.4887 26.2247 73.41 24.168 73.41 21.8992C73.4154 19.6303 72.4942 17.5791 71.0006 16.0883ZM64.4977 74.6161C61.5541 74.6161 58.8942 75.8076 56.9646 77.7337C55.035 79.6597 53.8412 82.3149 53.8412 85.2529C53.8412 88.1908 55.035 90.846 56.9646 92.7721C58.8942 94.6981 61.5543 95.8897 64.4977 95.8897C67.441 95.8897 70.1011 94.6981 72.0307 92.7721C73.9603 90.846 75.1541 88.1908 75.1541 85.2529C75.1541 82.3149 73.9604 79.6597 72.0307 77.7337C70.1011 75.8076 67.441 74.6161 64.4977 74.6161ZM69.4252 80.3344C68.166 79.0776 66.4273 78.2996 64.5031 78.2996C62.579 78.2996 60.8401 79.0776 59.581 80.3344C58.3219 81.5913 57.5424 83.3268 57.5424 85.2474C57.5424 87.168 58.3219 88.9037 59.581 90.1605C60.8402 91.4173 62.579 92.1953 64.5031 92.1953C66.4273 92.1953 68.1661 91.4172 69.4252 90.1605C70.6843 88.9036 71.4638 87.168 71.4638 85.2474C71.4583 83.3323 70.6788 81.5966 69.4252 80.3344ZM80.1962 118.986C81.0574 118.986 81.8424 118.632 82.4202 118.061L82.4257 118.067C82.998 117.495 83.3469 116.712 83.3469 115.841V108.3C83.3469 105.166 82.0659 102.321 79.9947 100.253C77.9287 98.1912 75.0726 96.9072 71.9329 96.9072H69.0875C68.695 96.9072 68.3298 97.0324 68.03 97.2391C67.5231 97.5384 66.9725 97.7723 66.3892 97.9355C65.7951 98.0988 65.1628 98.1913 64.5032 98.1913C63.8382 98.1913 63.2059 98.1042 62.6171 97.9355C61.9957 97.7614 61.4125 97.5057 60.8783 97.1793C60.5785 96.9943 60.246 96.9127 59.9189 96.9127V96.9072H57.0735C53.9338 96.9072 51.083 98.1858 49.0117 100.253C46.9458 102.315 45.6595 105.166 45.6595 108.3V115.841C45.6595 116.706 46.0138 117.495 46.5807 118.067C47.153 118.638 47.938 118.992 48.8102 118.992C49.8295 118.992 50.658 118.17 50.658 117.147C50.658 116.315 50.1074 115.618 49.3552 115.384V108.3C49.3552 106.184 50.2219 104.258 51.6228 102.86C53.0237 101.461 54.9533 100.596 57.0736 100.596H59.4338C60.1207 100.972 60.8565 101.271 61.6251 101.483C62.5517 101.744 63.5166 101.88 64.5086 101.88C65.5006 101.88 66.4654 101.739 67.3921 101.483C68.1607 101.271 68.8911 100.966 69.5833 100.596H71.9436C74.0639 100.596 75.9935 101.461 77.3944 102.86C78.7952 104.258 79.6619 106.184 79.6619 108.3V115.384C78.9043 115.613 78.3592 116.315 78.3592 117.147C78.3483 118.159 79.1769 118.986 80.1962 118.986ZM73.3063 110.477C73.3063 109.459 74.1294 108.632 75.1541 108.632C76.1734 108.632 77.0019 109.454 77.0019 110.477V117.142C77.0019 118.159 76.1734 118.986 75.1541 118.986C74.1348 118.986 73.3063 118.165 73.3063 117.142V110.477ZM55.6946 117.142C55.6946 118.159 54.8715 118.986 53.8468 118.986C52.8275 118.986 51.999 118.165 51.999 117.142V110.477C51.999 109.459 52.8275 108.632 53.8468 108.632C54.8661 108.632 55.6946 109.454 55.6946 110.477V117.142ZM100.142 95.6291C97.1982 95.6291 94.5383 96.8206 92.6087 98.7467C90.6791 100.673 89.4853 103.328 89.4853 106.266C89.4853 109.204 90.679 111.859 92.6087 113.785C94.5383 115.711 97.1984 116.903 100.142 116.903C103.085 116.903 105.745 115.711 107.675 113.785C109.604 111.859 110.798 109.204 110.798 106.266C110.798 103.328 109.604 100.673 107.675 98.7467C105.745 96.8207 103.08 95.6291 100.142 95.6291ZM105.064 101.347C103.805 100.091 102.066 99.3126 100.142 99.3126C98.2176 99.3126 96.4787 100.091 95.2196 101.347C93.9605 102.604 93.1811 104.34 93.1811 106.26C93.1811 108.181 93.9605 109.917 95.2196 111.173C96.4787 112.43 98.2176 113.208 100.142 113.208C102.066 113.208 103.805 112.43 105.064 111.173C106.323 109.917 107.102 108.181 107.102 106.26C107.102 104.345 106.323 102.604 105.064 101.347ZM115.835 139.994C114.816 139.994 113.987 139.172 113.987 138.149C113.987 137.317 114.538 136.62 115.29 136.386V129.302C115.29 127.186 114.423 125.26 113.022 123.862C111.621 122.463 109.692 121.598 107.571 121.598H105.211C104.524 121.974 103.789 122.268 103.02 122.485C102.093 122.746 101.128 122.882 100.136 122.882C99.1443 122.882 98.1796 122.741 97.2529 122.485C96.4843 122.273 95.7539 121.968 95.0617 121.598H92.7014C90.5811 121.598 88.6515 122.463 87.2506 123.862C85.8498 125.26 84.9831 127.186 84.9831 129.302V136.386C85.7407 136.615 86.2858 137.317 86.2858 138.149C86.2858 139.167 85.4573 139.994 84.438 139.994C83.5713 139.994 82.7809 139.64 82.2085 139.074C81.6362 138.503 81.2873 137.719 81.2873 136.849V129.308C81.2873 126.174 82.5683 123.328 84.6395 121.261C86.7055 119.199 89.5616 117.915 92.7013 117.915H95.5468V117.92C95.8738 117.92 96.2063 118.007 96.5061 118.192C97.0403 118.519 97.629 118.774 98.245 118.948C98.8391 119.112 99.4714 119.204 100.131 119.204C100.796 119.204 101.428 119.117 102.017 118.948C102.6 118.785 103.151 118.551 103.658 118.252C103.958 118.04 104.323 117.92 104.715 117.92H107.561C110.7 117.92 113.551 119.199 115.622 121.266C117.688 123.328 118.975 126.179 118.975 129.313V136.854C118.975 137.638 118.68 138.361 118.195 138.916C118.152 138.971 118.103 139.025 118.054 139.08C117.492 139.64 116.701 139.994 115.835 139.994ZM108.945 131.49V138.155C108.945 139.172 109.773 139.999 110.793 139.999C111.812 139.999 112.641 139.177 112.641 138.155V131.49C112.641 130.472 111.817 129.645 110.793 129.645C109.773 129.651 108.945 130.472 108.945 131.49ZM91.3332 138.155V131.49C91.3332 130.472 90.5102 129.645 89.4854 129.645C88.4661 129.645 87.6376 130.467 87.6376 131.49V138.155C87.6376 139.172 88.4661 139.999 89.4854 139.999C90.5102 139.994 91.3332 139.172 91.3332 138.155ZM28.86 95.6294C25.9165 95.6294 23.2565 96.8209 21.3269 98.747C19.3973 100.673 18.2036 103.328 18.2036 106.266C18.2036 109.204 19.3973 111.859 21.3269 113.785C23.2565 115.711 25.9166 116.903 28.86 116.903C31.8034 116.903 34.4635 115.711 36.3931 113.785C38.3227 111.859 39.5165 109.204 39.5165 106.266C39.5165 103.328 38.3227 100.673 36.3931 98.747C34.4635 96.8209 31.7979 95.6294 28.86 95.6294ZM33.7821 101.348C32.5229 100.091 30.7842 99.3129 28.86 99.3129C26.9359 99.3129 25.197 100.091 23.9379 101.348C22.6788 102.605 21.8993 104.34 21.8993 106.261C21.8993 108.181 22.6788 109.917 23.9379 111.174C25.197 112.431 26.9359 113.209 28.86 113.209C30.7842 113.209 32.523 112.431 33.7821 111.174C35.0412 109.917 35.8207 108.181 35.8207 106.261C35.8207 104.346 35.0412 102.604 33.7821 101.348ZM37.6631 131.49V138.156C37.6631 139.173 38.4916 140 39.5109 140C40.5302 140 41.3587 139.178 41.3587 138.156V131.49C41.3587 130.473 40.5356 129.646 39.5109 129.646C38.4916 129.652 37.6631 130.473 37.6631 131.49ZM20.0514 138.156V131.49C20.0514 130.473 19.2283 129.646 18.2036 129.646C17.1842 129.646 16.3557 130.468 16.3557 131.49V138.156C16.3557 139.173 17.1843 140 18.2036 140C19.2229 139.995 20.0514 139.173 20.0514 138.156Z" fill="#663366"/>
<path fill-rule="evenodd" clip-rule="evenodd" d="M44.553 139.993C43.5336 139.993 42.7051 139.171 42.7051 138.148C42.7051 137.316 43.2557 136.619 44.0079 136.385V129.301C44.0079 127.185 43.1412 125.259 41.7403 123.861C40.3395 122.462 38.4099 121.597 36.2895 121.597L33.9293 121.603C33.2425 121.978 32.5066 122.277 31.738 122.49C30.8114 122.751 29.8465 122.887 28.8545 122.887C27.8625 122.887 26.8977 122.745 25.971 122.49C25.2025 122.277 24.4721 121.973 23.7798 121.603H21.4196C19.2992 121.603 17.3696 122.468 15.9688 123.866C14.5679 125.264 13.7012 127.19 13.7012 129.307V136.391C14.4589 136.619 15.0039 137.321 15.0039 138.154C15.0039 139.171 14.1754 139.998 13.1561 139.998C12.2894 139.998 11.4991 139.644 10.9266 139.079L10.9321 139.073L10.9266 139.068C10.3543 138.496 10 137.713 10 136.853V129.312C10 126.178 11.281 123.333 13.3522 121.265C15.4182 119.203 18.2743 117.919 21.414 117.919H24.2594V117.925C24.5865 117.925 24.919 118.012 25.2188 118.197C25.753 118.523 26.3417 118.779 26.9576 118.953C27.5518 119.116 28.1841 119.209 28.8437 119.209C29.5087 119.209 30.141 119.122 30.7298 118.953C31.313 118.79 31.8635 118.556 32.3705 118.257C32.6703 118.044 33.0355 117.925 33.428 117.925H36.2734C39.4131 117.925 42.2639 119.203 44.3352 121.271C46.4011 123.333 47.6874 126.184 47.6874 129.318V136.859C47.6874 137.724 47.3331 138.513 46.7662 139.084L46.7608 139.079C46.2048 139.639 45.4142 139.993 44.553 139.993ZM112.149 35.8391C111.435 36.5573 110.268 36.5628 109.549 35.8446C108.829 35.1318 108.824 33.9674 109.543 33.2493L113.25 29.5331C113.588 29.1359 114.089 28.8911 114.651 28.8911C115.212 28.8911 115.714 29.1414 116.052 29.5331L119.758 33.2493C120.472 33.9674 120.472 35.1318 119.753 35.8446C119.033 36.5573 117.867 36.5573 117.153 35.8391L116.498 35.1808V44.2343C118.564 43.8535 120.412 42.8524 121.835 41.4323C123.672 39.5988 124.811 37.0634 124.811 34.2614C124.811 31.4594 123.672 28.9294 121.835 27.0904C119.998 25.2568 117.458 24.1197 114.656 24.1197C111.854 24.1197 109.314 25.2568 107.472 27.0904C105.635 28.9239 104.496 31.4594 104.496 34.2614C104.496 37.0634 105.635 39.5933 107.472 41.4323C108.894 42.8523 110.742 43.8535 112.808 44.2343L112.803 35.1862L112.149 35.8391ZM114.651 20.4467C118.472 20.4467 121.939 21.9919 124.441 24.4946C126.948 26.9974 128.496 30.4523 128.496 34.2663C128.496 38.0804 126.948 41.5408 124.441 44.038C121.933 46.5408 118.472 48.0859 114.651 48.0859C110.83 48.0859 107.363 46.5407 104.861 44.038C102.354 41.5352 100.806 38.0804 100.806 34.2663C100.806 30.4468 102.354 26.9919 104.861 24.4946C107.363 21.9972 110.824 20.4467 114.651 20.4467ZM92.5696 46.5947C92.1281 45.7732 91.7247 44.9299 91.3649 44.0648H91.3595C91.245 43.7982 91.1414 43.5261 91.0379 43.2486L84.8948 45.8112C85.3581 48.9723 85.2327 53.6786 85.1346 57.4165C85.1183 57.9769 85.1074 58.5155 85.0965 59.0488H94.4993C95.5186 59.0488 96.3417 59.8703 96.3417 60.8932V69.7998C96.3417 70.8172 95.5186 71.6442 94.4993 71.6442H84.8948V99.0667C84.8948 100.084 84.0718 100.906 83.047 100.906C82.0277 100.906 81.1992 100.084 81.1992 99.0667L81.2046 69.7945C81.2046 68.7771 82.0332 67.9501 83.0525 67.9501H92.6569V62.7269H36.3445V67.9501H45.9435C46.9628 67.9501 47.7913 68.7771 47.7913 69.7945V99.0667C47.7913 100.084 46.9682 100.906 45.9435 100.906C44.9242 100.906 44.0957 100.084 44.0957 99.0667L44.1011 71.64H34.5021C33.4828 71.64 32.6543 70.8185 32.6543 69.7956V60.889C32.6543 59.8716 33.4774 59.0446 34.5021 59.0446H43.1037V48.3969C43.1037 44.7624 44.5917 41.4598 46.9902 39.0659C49.3887 36.672 52.6972 35.1865 56.3384 35.1865H59.7235V35.192C60.0505 35.192 60.383 35.279 60.6828 35.4586C61.3478 35.8666 62.0728 36.1822 62.8468 36.3998C63.5827 36.6066 64.3676 36.7154 65.1907 36.7154C66.0139 36.7154 66.7987 36.6066 67.5346 36.3998C68.2651 36.1931 68.9573 35.8993 69.5951 35.5184C69.8949 35.3062 70.2601 35.1811 70.6581 35.1811H74.0431C79.314 35.1811 85.0049 32.8306 90.4017 30.5998C90.8922 30.3985 91.3774 30.1972 91.8625 29.9959C91.7154 29.9143 91.5682 29.8381 91.4156 29.7674C90.5652 29.3865 90.1455 28.4398 90.4017 27.5748C90.6742 26.6389 91.0013 25.7195 91.3774 24.8162C91.7535 23.9076 92.1787 23.0207 92.6529 22.1612C93.0999 21.345 94.0755 21.0023 94.9205 21.3233V21.3178C95.8417 21.6715 96.8501 21.7422 97.8149 21.5355C98.7415 21.3396 99.6246 20.8771 100.35 20.1481C100.377 20.1209 100.404 20.0937 100.431 20.0719C101.107 19.3646 101.543 18.5104 101.734 17.6181C101.941 16.6551 101.87 15.6485 101.516 14.729C101.167 13.815 101.598 12.7976 102.481 12.4003C103.32 11.9487 104.165 11.5461 105.015 11.1925C105.909 10.8225 106.836 10.496 107.785 10.2185C108.7 9.95194 109.66 10.4253 110.009 11.2904C110.412 12.1664 111.061 12.9064 111.867 13.4287L111.873 13.4233C112.669 13.9401 113.628 14.2394 114.658 14.2394C115.694 14.2394 116.653 13.9401 117.444 13.4287H117.449L117.444 13.4233C118.272 12.8901 118.932 12.1283 119.33 11.2361C119.711 10.3873 120.66 9.96834 121.526 10.2241C122.48 10.5016 123.401 10.828 124.295 11.198C124.328 11.2089 124.361 11.2252 124.388 11.2415C125.266 11.606 126.121 12.0195 126.95 12.4711C127.768 12.9173 128.111 13.8911 127.789 14.7345H127.795C127.44 15.654 127.37 16.6606 127.577 17.6236C127.778 18.5485 128.236 19.43 128.967 20.1536C129.697 20.8826 130.58 21.3397 131.507 21.541C132.472 21.7477 133.48 21.677 134.401 21.3233C135.317 20.9751 136.336 21.405 136.74 22.2864C137.181 23.1079 137.585 23.9513 137.944 24.8164H137.95C138.32 25.7086 138.647 26.6336 138.925 27.5803C139.193 28.4944 138.718 29.452 137.852 29.8003C136.974 30.2029 136.227 30.8558 135.709 31.6555C135.197 32.4445 134.897 33.402 134.897 34.4358C134.897 35.4696 135.197 36.4272 135.709 37.2161L135.715 37.2215L135.72 37.2161C136.254 38.0431 137.018 38.7014 137.912 39.0987C138.762 39.4795 139.182 40.4263 138.925 41.2913C138.647 42.2435 138.32 43.1685 137.95 44.0553C137.579 44.9422 137.154 45.829 136.674 46.7049C136.227 47.5211 135.252 47.8638 134.407 47.5428V47.5483C133.485 47.1946 132.477 47.1239 131.512 47.3306C130.591 47.5319 129.703 47.989 128.978 48.718C128.253 49.4471 127.789 50.3284 127.588 51.248C127.38 52.211 127.451 53.2176 127.806 54.1371C128.154 55.0511 127.724 56.0685 126.841 56.4712C126.007 56.9228 125.157 57.3254 124.306 57.6791C123.412 58.0491 122.486 58.3755 121.537 58.653C120.621 58.9196 119.662 58.4462 119.313 57.5812C118.91 56.7052 118.256 55.9597 117.454 55.4428C116.664 54.9314 115.705 54.6322 114.669 54.6322C113.639 54.6322 112.679 54.9314 111.884 55.4483C111.851 55.4701 111.813 55.4918 111.78 55.5081C111.006 56.0359 110.385 56.7704 109.998 57.6354C109.616 58.4842 108.673 58.9032 107.801 58.6474C106.863 58.3754 105.942 58.0489 105.037 57.6735L105.032 57.6681V57.6735C104.143 57.3036 103.255 56.8792 102.377 56.4004C101.56 55.9542 101.216 54.9804 101.538 54.137H101.532C101.887 53.2175 101.958 52.2109 101.75 51.2479C101.532 50.3339 101.069 49.447 100.344 48.7234L100.339 48.7288C99.6083 47.9997 98.7253 47.5427 97.804 47.3414C96.8392 47.1347 95.8308 47.2054 94.9096 47.559C93.9939 47.9073 92.9692 47.4774 92.5712 46.596L92.5696 46.5947ZM91.2668 39.168C91.3268 39.1354 91.3922 39.1028 91.4576 39.0756C92.3352 38.6729 93.0766 38.0255 93.5999 37.2203L93.5944 37.2148C94.1122 36.4205 94.412 35.4629 94.412 34.4346C94.412 33.9394 94.3412 33.4606 94.2104 33.0037C93.4145 33.3247 92.6024 33.662 91.7901 33.9939C86.0503 36.3661 80.0053 38.8635 74.0305 38.8635H71.1307C70.3131 39.3151 69.4356 39.6742 68.5197 39.9353C67.4459 40.2346 66.3285 40.3978 65.1838 40.3978C64.0391 40.3978 62.9163 40.2346 61.8479 39.9353C60.9267 39.6796 60.0545 39.3151 59.2369 38.8635H56.3371C53.7152 38.8635 51.3278 39.9353 49.5998 41.6655C47.8664 43.3902 46.7927 45.7733 46.7927 48.3903V59.038H50.6573L50.6519 50.9965C50.6519 49.9791 51.4749 49.1521 52.4997 49.1521C53.519 49.1521 54.3475 49.9791 54.3475 50.9965V59.0434H81.416C81.4269 58.5157 81.4432 57.9335 81.4596 57.3295C81.5741 53.1401 81.7212 47.6449 81.0181 45.2019C80.751 44.2715 81.2579 43.2976 82.1573 42.9711L91.2668 39.168ZM94.7663 42.661L94.7608 42.6556H94.7663C94.6245 42.3128 94.4937 41.9701 94.3684 41.6273C95.2896 40.9798 96.0745 40.1582 96.6905 39.2061V39.2007L96.6959 39.2061C97.5844 37.8296 98.1022 36.1972 98.1022 34.4399C98.1022 32.688 97.5844 31.0502 96.6959 29.6737C96.6632 29.6247 96.6305 29.5757 96.5924 29.5322C95.9928 28.6454 95.2351 27.8728 94.3629 27.258C94.4883 26.9097 94.6245 26.5615 94.7663 26.2242C94.908 25.8814 95.0551 25.5441 95.2132 25.2122C96.3197 25.4026 97.4645 25.3809 98.5655 25.1415C100.173 24.7987 101.705 24.0043 102.948 22.7639C102.986 22.7258 103.019 22.6877 103.051 22.6496C104.234 21.4254 104.997 19.9455 105.33 18.3894C105.564 17.2849 105.592 16.1478 105.401 15.0434C105.733 14.8856 106.071 14.7387 106.42 14.5972C106.764 14.4558 107.107 14.3252 107.45 14.2C108.099 15.1141 108.922 15.9031 109.876 16.5179H109.881L109.876 16.5233C111.255 17.4102 112.896 17.9271 114.651 17.9271C116.401 17.9271 118.041 17.4102 119.421 16.5179L119.426 16.5233C120.374 15.9085 121.203 15.1196 121.852 14.2001C122.195 14.3252 122.539 14.4558 122.882 14.5972C122.915 14.6081 122.942 14.6245 122.975 14.6299C123.285 14.7605 123.596 14.8965 123.901 15.038C123.71 16.1424 123.732 17.285 123.972 18.384C124.315 19.989 125.111 21.5179 126.354 22.7584C127.597 23.9989 129.129 24.7932 130.737 25.136C131.843 25.3754 132.982 25.3972 134.089 25.2067C134.247 25.5386 134.394 25.876 134.536 26.2187L134.541 26.2242L134.53 26.2296C134.672 26.5724 134.803 26.9152 134.928 27.2579C134.007 27.9054 133.222 28.727 132.606 29.6791C131.712 31.0611 131.189 32.6988 131.189 34.4453C131.189 36.1918 131.707 37.8296 132.601 39.2061L132.595 39.2116C133.211 40.1583 134.002 40.9852 134.923 41.6328C134.797 41.9755 134.667 42.3183 134.525 42.6611C134.383 43.0093 134.231 43.3466 134.078 43.6785C132.971 43.4881 131.827 43.5099 130.726 43.7492C129.118 44.092 127.586 44.8864 126.343 46.1269C125.1 47.3674 124.305 48.8963 123.961 50.5012C123.727 51.6057 123.7 52.7429 123.89 53.8473C123.558 54.0051 123.22 54.152 122.871 54.2934C122.528 54.4349 122.184 54.5655 121.841 54.6906C121.192 53.7766 120.369 52.9876 119.415 52.3728C118.031 51.4805 116.39 50.9582 114.64 50.9582C112.885 50.9582 111.244 51.4751 109.865 52.3619C109.816 52.3946 109.767 52.4272 109.723 52.4653C108.835 53.0638 108.061 53.8201 107.445 54.6907C107.096 54.5655 106.753 54.4349 106.415 54.2935V54.288C106.066 54.1466 105.728 53.9942 105.395 53.8419C105.586 52.7374 105.564 51.5948 105.325 50.4958C104.981 48.8963 104.185 47.3728 102.943 46.1269V46.1214L102.948 46.116C101.705 44.8755 100.173 44.0812 98.5655 43.7384C97.459 43.5044 96.3197 43.4772 95.2133 43.6676C95.0552 43.3412 94.908 43.0038 94.7663 42.661ZM65.179 10C61.8867 10 58.9051 11.333 56.7465 13.4876C54.5879 15.6421 53.2525 18.6183 53.2525 21.9046C53.2525 25.1909 54.5879 28.167 56.7465 30.3216C58.905 32.4762 61.8867 33.8092 65.179 33.8092C68.4714 33.8092 71.453 32.4762 73.6116 30.3216C75.7702 28.167 77.1056 25.1909 77.1056 21.9046C77.1056 18.6183 75.7701 15.6422 73.6116 13.4876C71.4531 11.333 68.4714 10 65.179 10ZM71.0006 16.0883C69.5125 14.603 67.4521 13.6834 65.179 13.6834C62.906 13.6834 60.8456 14.6029 59.3575 16.0883C57.8694 17.5736 56.9481 19.6303 56.9481 21.8992C56.9481 24.168 57.8693 26.2247 59.3575 27.71C60.8456 29.1953 62.906 30.1149 65.179 30.1149C67.4521 30.1149 69.5125 29.1954 71.0006 27.71C72.4887 26.2247 73.41 24.168 73.41 21.8992C73.4154 19.6303 72.4942 17.5791 71.0006 16.0883ZM64.4977 74.6161C61.5541 74.6161 58.8942 75.8076 56.9646 77.7337C55.035 79.6597 53.8412 82.3149 53.8412 85.2529C53.8412 88.1908 55.035 90.846 56.9646 92.7721C58.8942 94.6981 61.5543 95.8897 64.4977 95.8897C67.441 95.8897 70.1011 94.6981 72.0307 92.7721C73.9603 90.846 75.1541 88.1908 75.1541 85.2529C75.1541 82.3149 73.9604 79.6597 72.0307 77.7337C70.1011 75.8076 67.441 74.6161 64.4977 74.6161ZM69.4252 80.3344C68.166 79.0776 66.4273 78.2996 64.5031 78.2996C62.579 78.2996 60.8401 79.0776 59.581 80.3344C58.3219 81.5913 57.5424 83.3268 57.5424 85.2474C57.5424 87.168 58.3219 88.9037 59.581 90.1605C60.8402 91.4173 62.579 92.1953 64.5031 92.1953C66.4273 92.1953 68.1661 91.4172 69.4252 90.1605C70.6843 88.9036 71.4638 87.168 71.4638 85.2474C71.4583 83.3323 70.6788 81.5966 69.4252 80.3344ZM80.1962 118.986C81.0574 118.986 81.8424 118.632 82.4202 118.061L82.4257 118.067C82.998 117.495 83.3469 116.712 83.3469 115.841V108.3C83.3469 105.166 82.0659 102.321 79.9947 100.253C77.9287 98.1912 75.0726 96.9072 71.9329 96.9072H69.0875C68.695 96.9072 68.3298 97.0324 68.03 97.2391C67.5231 97.5384 66.9725 97.7723 66.3892 97.9355C65.7951 98.0988 65.1628 98.1913 64.5032 98.1913C63.8382 98.1913 63.2059 98.1042 62.6171 97.9355C61.9957 97.7614 61.4125 97.5057 60.8783 97.1793C60.5785 96.9943 60.246 96.9127 59.9189 96.9127V96.9072H57.0735C53.9338 96.9072 51.083 98.1858 49.0117 100.253C46.9458 102.315 45.6595 105.166 45.6595 108.3V115.841C45.6595 116.706 46.0138 117.495 46.5807 118.067C47.153 118.638 47.938 118.992 48.8102 118.992C49.8295 118.992 50.658 118.17 50.658 117.147C50.658 116.315 50.1074 115.618 49.3552 115.384V108.3C49.3552 106.184 50.2219 104.258 51.6228 102.86C53.0237 101.461 54.9533 100.596 57.0736 100.596H59.4338C60.1207 100.972 60.8565 101.271 61.6251 101.483C62.5517 101.744 63.5166 101.88 64.5086 101.88C65.5006 101.88 66.4654 101.739 67.3921 101.483C68.1607 101.271 68.8911 100.966 69.5833 100.596H71.9436C74.0639 100.596 75.9935 101.461 77.3944 102.86C78.7952 104.258 79.6619 106.184 79.6619 108.3V115.384C78.9043 115.613 78.3592 116.315 78.3592 117.147C78.3483 118.159 79.1769 118.986 80.1962 118.986ZM73.3063 110.477C73.3063 109.459 74.1294 108.632 75.1541 108.632C76.1734 108.632 77.0019 109.454 77.0019 110.477V117.142C77.0019 118.159 76.1734 118.986 75.1541 118.986C74.1348 118.986 73.3063 118.165 73.3063 117.142V110.477ZM55.6946 117.142C55.6946 118.159 54.8715 118.986 53.8468 118.986C52.8275 118.986 51.999 118.165 51.999 117.142V110.477C51.999 109.459 52.8275 108.632 53.8468 108.632C54.8661 108.632 55.6946 109.454 55.6946 110.477V117.142ZM100.142 95.6291C97.1982 95.6291 94.5383 96.8206 92.6087 98.7467C90.6791 100.673 89.4853 103.328 89.4853 106.266C89.4853 109.204 90.679 111.859 92.6087 113.785C94.5383 115.711 97.1984 116.903 100.142 116.903C103.085 116.903 105.745 115.711 107.675 113.785C109.604 111.859 110.798 109.204 110.798 106.266C110.798 103.328 109.604 100.673 107.675 98.7467C105.745 96.8207 103.08 95.6291 100.142 95.6291ZM105.064 101.347C103.805 100.091 102.066 99.3126 100.142 99.3126C98.2176 99.3126 96.4787 100.091 95.2196 101.347C93.9605 102.604 93.1811 104.34 93.1811 106.26C93.1811 108.181 93.9605 109.917 95.2196 111.173C96.4787 112.43 98.2176 113.208 100.142 113.208C102.066 113.208 103.805 112.43 105.064 111.173C106.323 109.917 107.102 108.181 107.102 106.26C107.102 104.345 106.323 102.604 105.064 101.347ZM115.835 139.994C114.816 139.994 113.987 139.172 113.987 138.149C113.987 137.317 114.538 136.62 115.29 136.386V129.302C115.29 127.186 114.423 125.26 113.022 123.862C111.621 122.463 109.692 121.598 107.571 121.598H105.211C104.524 121.974 103.789 122.268 103.02 122.485C102.093 122.746 101.128 122.882 100.136 122.882C99.1443 122.882 98.1796 122.741 97.2529 122.485C96.4843 122.273 95.7539 121.968 95.0617 121.598H92.7014C90.5811 121.598 88.6515 122.463 87.2506 123.862C85.8498 125.26 84.9831 127.186 84.9831 129.302V136.386C85.7407 136.615 86.2858 137.317 86.2858 138.149C86.2858 139.167 85.4573 139.994 84.438 139.994C83.5713 139.994 82.7809 139.64 82.2085 139.074C81.6362 138.503 81.2873 137.719 81.2873 136.849V129.308C81.2873 126.174 82.5683 123.328 84.6395 121.261C86.7055 119.199 89.5616 117.915 92.7013 117.915H95.5468V117.92C95.8738 117.92 96.2063 118.007 96.5061 118.192C97.0403 118.519 97.629 118.774 98.245 118.948C98.8391 119.112 99.4714 119.204 100.131 119.204C100.796 119.204 101.428 119.117 102.017 118.948C102.6 118.785 103.151 118.551 103.658 118.252C103.958 118.04 104.323 117.92 104.715 117.92H107.561C110.7 117.92 113.551 119.199 115.622 121.266C117.688 123.328 118.975 126.179 118.975 129.313V136.854C118.975 137.638 118.68 138.361 118.195 138.916C118.152 138.971 118.103 139.025 118.054 139.08C117.492 139.64 116.701 139.994 115.835 139.994ZM108.945 131.49V138.155C108.945 139.172 109.773 139.999 110.793 139.999C111.812 139.999 112.641 139.177 112.641 138.155V131.49C112.641 130.472 111.817 129.645 110.793 129.645C109.773 129.651 108.945 130.472 108.945 131.49ZM91.3332 138.155V131.49C91.3332 130.472 90.5102 129.645 89.4854 129.645C88.4661 129.645 87.6376 130.467 87.6376 131.49V138.155C87.6376 139.172 88.4661 139.999 89.4854 139.999C90.5102 139.994 91.3332 139.172 91.3332 138.155ZM28.86 95.6294C25.9165 95.6294 23.2565 96.8209 21.3269 98.747C19.3973 100.673 18.2036 103.328 18.2036 106.266C18.2036 109.204 19.3973 111.859 21.3269 113.785C23.2565 115.711 25.9166 116.903 28.86 116.903C31.8034 116.903 34.4635 115.711 36.3931 113.785C38.3227 111.859 39.5165 109.204 39.5165 106.266C39.5165 103.328 38.3227 100.673 36.3931 98.747C34.4635 96.8209 31.7979 95.6294 28.86 95.6294ZM33.7821 101.348C32.5229 100.091 30.7842 99.3129 28.86 99.3129C26.9359 99.3129 25.197 100.091 23.9379 101.348C22.6788 102.605 21.8993 104.34 21.8993 106.261C21.8993 108.181 22.6788 109.917 23.9379 111.174C25.197 112.431 26.9359 113.209 28.86 113.209C30.7842 113.209 32.523 112.431 33.7821 111.174C35.0412 109.917 35.8207 108.181 35.8207 106.261C35.8207 104.346 35.0412 102.604 33.7821 101.348ZM37.6631 131.49V138.156C37.6631 139.173 38.4916 140 39.5109 140C40.5302 140 41.3587 139.178 41.3587 138.156V131.49C41.3587 130.473 40.5356 129.646 39.5109 129.646C38.4916 129.652 37.6631 130.473 37.6631 131.49ZM20.0514 138.156V131.49C20.0514 130.473 19.2283 129.646 18.2036 129.646C17.1842 129.646 16.3557 130.468 16.3557 131.49V138.156C16.3557 139.173 17.1843 140 18.2036 140C19.2229 139.995 20.0514 139.173 20.0514 138.156Z" stroke="#663366" stroke-width="0.5" mask="url(#path-1-outside-1_105_1210)"/>
</svg>
