<svg width="150" height="150" viewBox="0 0 150 150" fill="none" xmlns="http://www.w3.org/2000/svg">
<mask id="path-1-outside-1_105_1208" maskUnits="userSpaceOnUse" x="9" y="9" width="131" height="132" fill="black">
<rect fill="white" x="9" y="9" width="131" height="132"/>
<path d="M138.104 96.4993C136.541 93.3197 133.292 91.5051 129.956 91.5972C127.58 87.8868 122.73 86.4623 118.678 88.4448L95.7218 99.7005C95.5807 95.9251 92.6623 92.7348 88.8 92.3556L56.1602 89.1597C53.6162 88.9106 51.3866 89.2843 49.1462 90.3352L33.3721 97.7396L32.2492 94.4463C31.5712 92.453 29.3959 91.386 27.3997 92.0629L12.5907 97.0895C10.5944 97.7666 9.52585 99.9387 10.2038 101.932L22.2843 137.411C22.8213 138.998 24.313 140 25.9079 140C26.3148 140 26.727 139.935 27.1339 139.794L41.9373 134.768C42.9029 134.437 43.684 133.755 44.1342 132.839C44.5845 131.924 44.655 130.889 44.3241 129.925L43.1415 126.448L44.8395 125.727C46.2879 125.115 47.6712 124.985 49.2062 125.326L80.4948 132.314C81.1837 132.471 81.8618 132.547 82.5289 132.547C83.8579 132.547 85.1435 132.238 86.4184 131.61L134.089 108.238C138.434 106.115 140.235 100.843 138.104 96.4993ZM119.926 90.9797C122.329 89.8043 125.144 90.3947 126.891 92.2418C126.706 92.3176 126.522 92.3989 126.343 92.4855L103.516 103.676C101.612 104.608 99.8214 104.933 97.7059 104.727L94.3264 104.397C94.5976 104.012 94.8308 103.611 95.0316 103.183L119.926 90.9797ZM41.0259 132.097L26.2225 137.123C25.7071 137.302 25.143 137.02 24.964 136.506L12.8835 101.027C12.7099 100.518 12.9974 99.9436 13.5019 99.7703L28.3053 94.7437C28.8206 94.5704 29.3848 94.8466 29.5638 95.3612L41.6443 130.84C41.8233 131.355 41.5466 131.918 41.0259 132.097ZM132.836 105.707L85.1654 129.079C83.8418 129.729 82.5507 129.881 81.1077 129.561L49.8248 122.574C47.7146 122.103 45.7184 122.287 43.733 123.126L42.2304 123.766L34.2888 100.437L50.3504 92.8913C52.1351 92.0517 53.8438 91.7701 55.8889 91.9705L88.5286 95.1663C91.1867 95.4263 93.1395 97.7987 92.8791 100.458C92.7543 101.737 92.1305 102.896 91.127 103.719C90.8829 103.92 90.6225 104.093 90.3513 104.245C90.3404 104.25 90.3296 104.255 90.3242 104.261C89.4888 104.705 88.545 104.9 87.5847 104.808L65.8545 102.679C65.0734 102.603 64.3844 103.172 64.3085 103.947C64.2325 104.721 64.8021 105.414 65.5778 105.49L87.308 107.619C87.563 107.646 87.8125 107.657 88.062 107.657C89.1795 107.657 90.2753 107.413 91.2788 106.942L97.4303 107.543C100.061 107.798 102.388 107.381 104.759 106.216L127.586 95.0255C130.537 93.5792 134.112 94.798 135.56 97.7446C137.009 100.686 135.787 104.261 132.836 105.707ZM47.6166 85.5413C58.6177 85.5413 68.3497 78.3805 71.6576 68.0029H94.8806V75.8407C94.8806 76.6207 95.5153 77.2544 96.2964 77.2544H103.153C103.934 77.2544 104.569 76.6206 104.569 75.8407V68.0029H109.494V79.5891C109.494 80.3691 110.129 81.0028 110.91 81.0028H118.949C119.731 81.0028 120.365 80.369 120.365 79.5891V67.873C123.913 67.2067 126.609 64.0921 126.609 60.3547C126.609 56.1351 123.17 52.7065 118.949 52.7065L71.6576 52.7011C68.3486 42.3174 58.617 35.1627 47.6166 35.1627C33.7019 35.1627 22.3869 46.4617 22.3869 60.3554C22.3869 74.2385 33.7079 85.5413 47.6166 85.5413ZM47.6166 37.9833C57.7063 37.9833 66.5972 44.7703 69.2329 54.4817C69.4011 55.0992 69.9598 55.5271 70.5999 55.5271H118.949C121.612 55.5271 123.776 57.6883 123.776 60.3479C123.776 63.0075 121.612 65.1688 118.949 65.1688C118.167 65.1688 117.533 65.8025 117.533 66.5825V78.1686H112.325V66.5825C112.325 65.8025 111.691 65.1688 110.909 65.1688H103.152C102.371 65.1688 101.737 65.8025 101.737 66.5825V74.4202H97.7116V66.5825C97.7116 65.8025 97.0769 65.1688 96.2958 65.1688H70.5995C69.9594 65.1688 69.4007 65.5967 69.2325 66.2142C66.5962 75.9261 57.7053 82.7125 47.6162 82.7125C35.2645 82.7125 25.218 72.681 25.218 60.3472C25.218 48.0137 35.2644 37.982 47.6162 37.982L47.6166 37.9833ZM47.6166 73.4344C54.8421 73.4344 60.7224 67.5628 60.7224 60.3479C60.7224 53.133 54.8421 47.2614 47.6166 47.2614C40.3911 47.2614 34.5109 53.133 34.5109 60.3479C34.5109 67.5628 40.3911 73.4344 47.6166 73.4344ZM47.6166 50.0888C53.2852 50.0888 57.8907 54.6929 57.8907 60.3478C57.8907 66.0081 53.2798 70.6068 47.6166 70.6068C41.948 70.6068 37.3425 66.0027 37.3425 60.3478C37.3425 54.6875 41.9534 50.0888 47.6166 50.0888ZM46.2008 30.5023V11.4137C46.2008 10.6337 46.8355 10 47.6166 10C48.3977 10 49.0324 10.6337 49.0324 11.4137V30.5023C49.0324 31.2823 48.3977 31.916 47.6166 31.916C46.8355 31.9106 46.2008 31.2823 46.2008 30.5023ZM25.8968 25.6058C25.5062 24.9287 25.7395 24.0674 26.4121 23.6775C27.0902 23.2875 27.9528 23.5204 28.3433 24.1921L33.8926 33.7903C34.2832 34.4674 34.0499 35.3287 33.3773 35.7186C33.1549 35.8486 32.9107 35.9082 32.6721 35.9082C32.1839 35.9082 31.7065 35.6536 31.4461 35.204L25.8968 25.6058ZM61.3362 33.7902L66.8855 24.192C67.2761 23.5149 68.1386 23.2874 68.8166 23.6774C69.4946 24.0674 69.7225 24.9286 69.3319 25.6057L63.7826 35.2039C63.5222 35.6589 63.0449 35.9081 62.5566 35.9081C62.318 35.9081 62.0739 35.8485 61.8515 35.7185C61.1788 35.3339 60.9456 34.4673 61.3362 33.7902Z"/>
</mask>
<path d="M138.104 96.4993C136.541 93.3197 133.292 91.5051 129.956 91.5972C127.58 87.8868 122.73 86.4623 118.678 88.4448L95.7218 99.7005C95.5807 95.9251 92.6623 92.7348 88.8 92.3556L56.1602 89.1597C53.6162 88.9106 51.3866 89.2843 49.1462 90.3352L33.3721 97.7396L32.2492 94.4463C31.5712 92.453 29.3959 91.386 27.3997 92.0629L12.5907 97.0895C10.5944 97.7666 9.52585 99.9387 10.2038 101.932L22.2843 137.411C22.8213 138.998 24.313 140 25.9079 140C26.3148 140 26.727 139.935 27.1339 139.794L41.9373 134.768C42.9029 134.437 43.684 133.755 44.1342 132.839C44.5845 131.924 44.655 130.889 44.3241 129.925L43.1415 126.448L44.8395 125.727C46.2879 125.115 47.6712 124.985 49.2062 125.326L80.4948 132.314C81.1837 132.471 81.8618 132.547 82.5289 132.547C83.8579 132.547 85.1435 132.238 86.4184 131.61L134.089 108.238C138.434 106.115 140.235 100.843 138.104 96.4993ZM119.926 90.9797C122.329 89.8043 125.144 90.3947 126.891 92.2418C126.706 92.3176 126.522 92.3989 126.343 92.4855L103.516 103.676C101.612 104.608 99.8214 104.933 97.7059 104.727L94.3264 104.397C94.5976 104.012 94.8308 103.611 95.0316 103.183L119.926 90.9797ZM41.0259 132.097L26.2225 137.123C25.7071 137.302 25.143 137.02 24.964 136.506L12.8835 101.027C12.7099 100.518 12.9974 99.9436 13.5019 99.7703L28.3053 94.7437C28.8206 94.5704 29.3848 94.8466 29.5638 95.3612L41.6443 130.84C41.8233 131.355 41.5466 131.918 41.0259 132.097ZM132.836 105.707L85.1654 129.079C83.8418 129.729 82.5507 129.881 81.1077 129.561L49.8248 122.574C47.7146 122.103 45.7184 122.287 43.733 123.126L42.2304 123.766L34.2888 100.437L50.3504 92.8913C52.1351 92.0517 53.8438 91.7701 55.8889 91.9705L88.5286 95.1663C91.1867 95.4263 93.1395 97.7987 92.8791 100.458C92.7543 101.737 92.1305 102.896 91.127 103.719C90.8829 103.92 90.6225 104.093 90.3513 104.245C90.3404 104.25 90.3296 104.255 90.3242 104.261C89.4888 104.705 88.545 104.9 87.5847 104.808L65.8545 102.679C65.0734 102.603 64.3844 103.172 64.3085 103.947C64.2325 104.721 64.8021 105.414 65.5778 105.49L87.308 107.619C87.563 107.646 87.8125 107.657 88.062 107.657C89.1795 107.657 90.2753 107.413 91.2788 106.942L97.4303 107.543C100.061 107.798 102.388 107.381 104.759 106.216L127.586 95.0255C130.537 93.5792 134.112 94.798 135.56 97.7446C137.009 100.686 135.787 104.261 132.836 105.707ZM47.6166 85.5413C58.6177 85.5413 68.3497 78.3805 71.6576 68.0029H94.8806V75.8407C94.8806 76.6207 95.5153 77.2544 96.2964 77.2544H103.153C103.934 77.2544 104.569 76.6206 104.569 75.8407V68.0029H109.494V79.5891C109.494 80.3691 110.129 81.0028 110.91 81.0028H118.949C119.731 81.0028 120.365 80.369 120.365 79.5891V67.873C123.913 67.2067 126.609 64.0921 126.609 60.3547C126.609 56.1351 123.17 52.7065 118.949 52.7065L71.6576 52.7011C68.3486 42.3174 58.617 35.1627 47.6166 35.1627C33.7019 35.1627 22.3869 46.4617 22.3869 60.3554C22.3869 74.2385 33.7079 85.5413 47.6166 85.5413ZM47.6166 37.9833C57.7063 37.9833 66.5972 44.7703 69.2329 54.4817C69.4011 55.0992 69.9598 55.5271 70.5999 55.5271H118.949C121.612 55.5271 123.776 57.6883 123.776 60.3479C123.776 63.0075 121.612 65.1688 118.949 65.1688C118.167 65.1688 117.533 65.8025 117.533 66.5825V78.1686H112.325V66.5825C112.325 65.8025 111.691 65.1688 110.909 65.1688H103.152C102.371 65.1688 101.737 65.8025 101.737 66.5825V74.4202H97.7116V66.5825C97.7116 65.8025 97.0769 65.1688 96.2958 65.1688H70.5995C69.9594 65.1688 69.4007 65.5967 69.2325 66.2142C66.5962 75.9261 57.7053 82.7125 47.6162 82.7125C35.2645 82.7125 25.218 72.681 25.218 60.3472C25.218 48.0137 35.2644 37.982 47.6162 37.982L47.6166 37.9833ZM47.6166 73.4344C54.8421 73.4344 60.7224 67.5628 60.7224 60.3479C60.7224 53.133 54.8421 47.2614 47.6166 47.2614C40.3911 47.2614 34.5109 53.133 34.5109 60.3479C34.5109 67.5628 40.3911 73.4344 47.6166 73.4344ZM47.6166 50.0888C53.2852 50.0888 57.8907 54.6929 57.8907 60.3478C57.8907 66.0081 53.2798 70.6068 47.6166 70.6068C41.948 70.6068 37.3425 66.0027 37.3425 60.3478C37.3425 54.6875 41.9534 50.0888 47.6166 50.0888ZM46.2008 30.5023V11.4137C46.2008 10.6337 46.8355 10 47.6166 10C48.3977 10 49.0324 10.6337 49.0324 11.4137V30.5023C49.0324 31.2823 48.3977 31.916 47.6166 31.916C46.8355 31.9106 46.2008 31.2823 46.2008 30.5023ZM25.8968 25.6058C25.5062 24.9287 25.7395 24.0674 26.4121 23.6775C27.0902 23.2875 27.9528 23.5204 28.3433 24.1921L33.8926 33.7903C34.2832 34.4674 34.0499 35.3287 33.3773 35.7186C33.1549 35.8486 32.9107 35.9082 32.6721 35.9082C32.1839 35.9082 31.7065 35.6536 31.4461 35.204L25.8968 25.6058ZM61.3362 33.7902L66.8855 24.192C67.2761 23.5149 68.1386 23.2874 68.8166 23.6774C69.4946 24.0674 69.7225 24.9286 69.3319 25.6057L63.7826 35.2039C63.5222 35.6589 63.0449 35.9081 62.5566 35.9081C62.318 35.9081 62.0739 35.8485 61.8515 35.7185C61.1788 35.3339 60.9456 34.4673 61.3362 33.7902Z" fill="#663366"/>
<path d="M138.104 96.4993C136.541 93.3197 133.292 91.5051 129.956 91.5972C127.58 87.8868 122.73 86.4623 118.678 88.4448L95.7218 99.7005C95.5807 95.9251 92.6623 92.7348 88.8 92.3556L56.1602 89.1597C53.6162 88.9106 51.3866 89.2843 49.1462 90.3352L33.3721 97.7396L32.2492 94.4463C31.5712 92.453 29.3959 91.386 27.3997 92.0629L12.5907 97.0895C10.5944 97.7666 9.52585 99.9387 10.2038 101.932L22.2843 137.411C22.8213 138.998 24.313 140 25.9079 140C26.3148 140 26.727 139.935 27.1339 139.794L41.9373 134.768C42.9029 134.437 43.684 133.755 44.1342 132.839C44.5845 131.924 44.655 130.889 44.3241 129.925L43.1415 126.448L44.8395 125.727C46.2879 125.115 47.6712 124.985 49.2062 125.326L80.4948 132.314C81.1837 132.471 81.8618 132.547 82.5289 132.547C83.8579 132.547 85.1435 132.238 86.4184 131.61L134.089 108.238C138.434 106.115 140.235 100.843 138.104 96.4993ZM119.926 90.9797C122.329 89.8043 125.144 90.3947 126.891 92.2418C126.706 92.3176 126.522 92.3989 126.343 92.4855L103.516 103.676C101.612 104.608 99.8214 104.933 97.7059 104.727L94.3264 104.397C94.5976 104.012 94.8308 103.611 95.0316 103.183L119.926 90.9797ZM41.0259 132.097L26.2225 137.123C25.7071 137.302 25.143 137.02 24.964 136.506L12.8835 101.027C12.7099 100.518 12.9974 99.9436 13.5019 99.7703L28.3053 94.7437C28.8206 94.5704 29.3848 94.8466 29.5638 95.3612L41.6443 130.84C41.8233 131.355 41.5466 131.918 41.0259 132.097ZM132.836 105.707L85.1654 129.079C83.8418 129.729 82.5507 129.881 81.1077 129.561L49.8248 122.574C47.7146 122.103 45.7184 122.287 43.733 123.126L42.2304 123.766L34.2888 100.437L50.3504 92.8913C52.1351 92.0517 53.8438 91.7701 55.8889 91.9705L88.5286 95.1663C91.1867 95.4263 93.1395 97.7987 92.8791 100.458C92.7543 101.737 92.1305 102.896 91.127 103.719C90.8829 103.92 90.6225 104.093 90.3513 104.245C90.3404 104.25 90.3296 104.255 90.3242 104.261C89.4888 104.705 88.545 104.9 87.5847 104.808L65.8545 102.679C65.0734 102.603 64.3844 103.172 64.3085 103.947C64.2325 104.721 64.8021 105.414 65.5778 105.49L87.308 107.619C87.563 107.646 87.8125 107.657 88.062 107.657C89.1795 107.657 90.2753 107.413 91.2788 106.942L97.4303 107.543C100.061 107.798 102.388 107.381 104.759 106.216L127.586 95.0255C130.537 93.5792 134.112 94.798 135.56 97.7446C137.009 100.686 135.787 104.261 132.836 105.707ZM47.6166 85.5413C58.6177 85.5413 68.3497 78.3805 71.6576 68.0029H94.8806V75.8407C94.8806 76.6207 95.5153 77.2544 96.2964 77.2544H103.153C103.934 77.2544 104.569 76.6206 104.569 75.8407V68.0029H109.494V79.5891C109.494 80.3691 110.129 81.0028 110.91 81.0028H118.949C119.731 81.0028 120.365 80.369 120.365 79.5891V67.873C123.913 67.2067 126.609 64.0921 126.609 60.3547C126.609 56.1351 123.17 52.7065 118.949 52.7065L71.6576 52.7011C68.3486 42.3174 58.617 35.1627 47.6166 35.1627C33.7019 35.1627 22.3869 46.4617 22.3869 60.3554C22.3869 74.2385 33.7079 85.5413 47.6166 85.5413ZM47.6166 37.9833C57.7063 37.9833 66.5972 44.7703 69.2329 54.4817C69.4011 55.0992 69.9598 55.5271 70.5999 55.5271H118.949C121.612 55.5271 123.776 57.6883 123.776 60.3479C123.776 63.0075 121.612 65.1688 118.949 65.1688C118.167 65.1688 117.533 65.8025 117.533 66.5825V78.1686H112.325V66.5825C112.325 65.8025 111.691 65.1688 110.909 65.1688H103.152C102.371 65.1688 101.737 65.8025 101.737 66.5825V74.4202H97.7116V66.5825C97.7116 65.8025 97.0769 65.1688 96.2958 65.1688H70.5995C69.9594 65.1688 69.4007 65.5967 69.2325 66.2142C66.5962 75.9261 57.7053 82.7125 47.6162 82.7125C35.2645 82.7125 25.218 72.681 25.218 60.3472C25.218 48.0137 35.2644 37.982 47.6162 37.982L47.6166 37.9833ZM47.6166 73.4344C54.8421 73.4344 60.7224 67.5628 60.7224 60.3479C60.7224 53.133 54.8421 47.2614 47.6166 47.2614C40.3911 47.2614 34.5109 53.133 34.5109 60.3479C34.5109 67.5628 40.3911 73.4344 47.6166 73.4344ZM47.6166 50.0888C53.2852 50.0888 57.8907 54.6929 57.8907 60.3478C57.8907 66.0081 53.2798 70.6068 47.6166 70.6068C41.948 70.6068 37.3425 66.0027 37.3425 60.3478C37.3425 54.6875 41.9534 50.0888 47.6166 50.0888ZM46.2008 30.5023V11.4137C46.2008 10.6337 46.8355 10 47.6166 10C48.3977 10 49.0324 10.6337 49.0324 11.4137V30.5023C49.0324 31.2823 48.3977 31.916 47.6166 31.916C46.8355 31.9106 46.2008 31.2823 46.2008 30.5023ZM25.8968 25.6058C25.5062 24.9287 25.7395 24.0674 26.4121 23.6775C27.0902 23.2875 27.9528 23.5204 28.3433 24.1921L33.8926 33.7903C34.2832 34.4674 34.0499 35.3287 33.3773 35.7186C33.1549 35.8486 32.9107 35.9082 32.6721 35.9082C32.1839 35.9082 31.7065 35.6536 31.4461 35.204L25.8968 25.6058ZM61.3362 33.7902L66.8855 24.192C67.2761 23.5149 68.1386 23.2874 68.8166 23.6774C69.4946 24.0674 69.7225 24.9286 69.3319 25.6057L63.7826 35.2039C63.5222 35.6589 63.0449 35.9081 62.5566 35.9081C62.318 35.9081 62.0739 35.8485 61.8515 35.7185C61.1788 35.3339 60.9456 34.4673 61.3362 33.7902Z" stroke="#663366" stroke-width="0.5" mask="url(#path-1-outside-1_105_1208)"/>
</svg>
