<svg width="150" height="150" viewBox="0 0 150 150" fill="none" xmlns="http://www.w3.org/2000/svg">
<path d="M10.0015 21.0353V40.4744C10.0015 41.2406 10.621 41.8574 11.3844 41.8574C12.1478 41.8574 12.7674 41.2406 12.7674 40.4744V21.0353C12.7674 18.131 15.1295 15.7689 18.0338 15.7689H62.9031C63.6693 15.7689 64.2861 15.1493 64.2861 14.3859C64.2861 13.6197 63.6693 13.0029 62.9031 13.0029H18.0338C13.6055 13.0029 10.0015 16.6042 10.0015 21.0353Z" fill="#663366"/>
<path d="M139.981 94.5377V21.0351C139.981 16.604 136.374 13 131.946 13H74.4662C73.7 13 73.0833 13.6196 73.0833 14.383C73.0833 15.1492 73.7 15.766 74.4662 15.766H131.946C134.85 15.766 137.215 18.1309 137.215 21.0351V93.2626H12.766V51.9226C12.766 51.1564 12.1492 50.5396 11.383 50.5396C10.6196 50.5396 10 51.1564 10 51.9226V104.448C10 108.876 13.6041 112.48 18.0351 112.48H34.6419C35.4053 112.48 36.0249 111.861 36.0249 111.098C36.0249 110.331 35.4053 109.715 34.6419 109.715H18.0351C15.1308 109.715 12.766 107.35 12.766 104.448V96.0286H137.215V104.448C137.215 107.35 134.85 109.715 131.946 109.715H45.4319C44.6685 109.715 44.049 110.331 44.049 111.098C44.049 111.861 44.6685 112.48 45.4319 112.48H63.9002C63.1672 119 57.6243 126.529 48.3611 133.435H34.6419C33.8757 133.435 33.2589 134.055 33.2589 134.818C33.2589 135.582 33.8757 136.201 34.6419 136.201H48.8396H101.141H115.361C116.127 136.201 116.744 135.582 116.744 134.818C116.744 134.055 116.127 133.435 115.361 133.435H101.62C92.3536 126.529 86.8134 119 86.0804 112.48H131.946C136.374 112.48 139.981 108.876 139.981 104.448V94.7535C139.983 94.7147 140 94.6843 140 94.6456C140 94.6069 139.983 94.5764 139.981 94.5377ZM97.1194 133.435H52.8613C61.1536 126.576 66.0937 119.141 66.7436 112.497H83.2398C83.887 119.141 88.8271 126.576 97.1194 133.435Z" fill="#663366"/>
<path d="M77.1878 104.208C77.9512 104.208 78.5708 103.588 78.5708 102.825C78.5708 102.061 77.9512 101.442 77.1878 101.442H72.8259C72.0624 101.442 71.4429 102.061 71.4429 102.825C71.4429 103.588 72.0624 104.208 72.8259 104.208H77.1878Z" fill="#663366"/>
<path d="M93.3955 65.7728L69.6331 55.4254L80.0054 31.6077C80.3097 30.9079 79.9916 30.092 79.289 29.7877C68.8891 25.246 56.7825 27.2734 48.4431 34.9462C48.4403 34.949 48.4376 34.949 48.4376 34.949L48.4321 34.9545C48.4293 34.9573 48.4265 34.96 48.4237 34.96C48.4237 34.9628 48.4209 34.9656 48.4209 34.9656C45.406 37.6845 43.0605 40.9483 41.4563 44.6658C37.1359 54.6066 38.718 65.9637 45.5831 74.3086C45.5858 74.3113 45.5886 74.3113 45.5914 74.3141C48.4735 77.8573 52.0887 80.5901 56.3344 82.4432C60.0159 84.0475 63.9075 84.8524 67.8048 84.8524C71.348 84.8524 74.8995 84.1858 78.2961 82.8526C85.4323 80.0479 91.0499 74.6294 94.1118 67.5928C94.4161 66.893 94.0952 66.0771 93.3955 65.7728ZM76.9021 31.8041L67.3872 53.6552L51.3363 36.0886C58.4642 30.197 68.2308 28.5541 76.9021 31.8041ZM46.872 71.4624C41.3927 64.0441 40.2725 54.3273 43.9927 45.7639C45.2622 42.8264 47.0407 40.2043 49.2922 37.95L65.7774 55.9952L46.872 71.4624ZM77.2838 80.2775C70.8391 82.8056 63.7942 82.6756 57.438 79.9069C54.0276 78.4188 51.0653 76.3028 48.6228 73.6032L56.2818 67.3383L68.015 57.7377L90.9919 67.7422C88.1235 73.4926 83.3025 77.9154 77.2838 80.2775Z" fill="#663366"/>
<path d="M93.4491 24.1976C92.7437 23.8906 91.9333 24.2142 91.6291 24.914L80.7035 50.0013C80.5569 50.3387 80.5514 50.7176 80.6842 51.0606C80.8197 51.4008 81.0824 51.6747 81.4199 51.8213L106.452 62.7219C106.632 62.7993 106.82 62.8353 107.005 62.8353C107.536 62.8353 108.045 62.5255 108.272 62.0055C111.348 54.9717 111.494 47.1578 108.687 40.0078C105.882 32.8661 100.469 27.2512 93.4491 24.1976ZM106.258 59.6185L83.7931 49.8381L93.5984 27.3204C99.3322 30.1776 103.747 34.9987 106.112 41.0202C108.479 47.05 108.523 53.6025 106.258 59.6185Z" fill="#663366"/>
</svg>
