<svg width="150" height="150" viewBox="0 0 150 150" fill="none" xmlns="http://www.w3.org/2000/svg">
<path fill-rule="evenodd" clip-rule="evenodd" d="M89.0085 54.1406L104.678 112.669H117.08C117.616 112.669 118.077 112.987 118.286 113.445L132.459 138.015C132.968 138.9 132.318 139.995 131.315 139.994V140H119.037C118.502 140 118.04 139.682 117.831 139.224L110.182 125.965H49.2019L41.4883 139.337C41.2433 139.76 40.8001 139.997 40.3442 139.997V140H28.0667C27.0981 140 26.3284 138.93 26.986 137.905L34.6379 124.64L13.1806 87.4431C12.8042 86.7915 13.0288 85.976 13.7357 85.595L22.8752 80.3138C23.5058 79.9511 24.3104 80.1676 24.6746 80.7972L24.6767 80.7959L43.0628 112.669H54.8862C49.7962 109.763 46.1682 104.638 46.1939 98.6295C46.213 94.1302 48.2631 89.9057 51.8371 86.8016L57.0747 82.2529L57.0516 80.9399C57.0516 79.8556 57.5746 78.8761 58.4006 78.2609C57.2597 77.119 56.2861 76.2971 56.2861 74.4309C56.2861 71.6593 58.9381 69.704 61.5695 70.4707C63.1385 67.6104 67.2379 67.6104 68.8072 70.4707C71.438 69.704 74.0906 71.659 74.0906 74.4309C74.0906 76.2971 73.117 77.119 71.9761 78.2609C72.8024 78.8769 73.3251 79.8546 73.3251 80.9399L73.3023 82.2529L78.6645 86.9101C87.3385 94.4438 85.4435 107.031 75.4444 112.669H95.5442L79.8526 54.0554C74.3464 55.2334 69.5388 58.6343 66.5699 63.3971C66.052 64.228 64.8371 64.2368 64.312 63.3796C62.4379 60.388 59.8275 57.9063 56.7356 56.1906C49.4122 52.1264 40.3148 52.8753 33.7446 58.0711C32.8121 58.8086 31.487 58.0151 31.6158 56.8849L31.6118 56.8844C34.7156 30.2766 57.3143 10 84.3016 10C111.294 10 133.928 30.323 136.991 56.8841C137.122 58.0172 135.794 58.8707 134.779 58.0087C132.992 56.6087 130.971 55.4947 128.786 54.7357C119.539 51.5239 109.329 55.2124 104.219 63.4894C103.703 64.3246 102.483 64.3299 101.963 63.4748C99.1267 58.8137 94.3514 55.3894 89.0085 54.1406ZM63.8094 90.2692V92.4089C59.8076 92.4089 58.2654 96.918 60.7497 99.4044C62.1127 100.769 63.4691 100.608 65.1801 100.608C66.0048 100.608 66.7526 100.489 67.2965 101.033C68.2187 101.956 67.5372 103.5 66.277 103.5H60.9957C59.2507 103.5 59.2507 106.153 60.9957 106.153H63.8094V108.293C63.8094 110.039 66.4602 110.039 66.4602 108.293V106.149C67.5152 106.102 68.4692 105.652 69.1706 104.95C71.7601 102.358 69.8884 97.9543 66.277 97.9543H63.6435C63.2475 97.9543 62.8864 97.7911 62.624 97.5285C61.7018 96.6055 62.3833 95.0617 63.6435 95.0617H68.2608C70.0058 95.0617 70.0058 92.4086 68.2608 92.4086H66.4602V90.2689C66.4602 88.5227 63.8094 88.5227 63.8094 90.2692ZM58.4403 84.5691L53.5669 88.8018C47.3422 94.2076 47.2171 102.976 53.4421 108.382C56.939 111.419 60.9511 112.724 65.587 112.669C73.4921 112.577 81.5077 106.934 81.543 98.6528C81.5589 94.9444 79.8825 91.4694 76.9357 88.91L71.9374 84.5691C71.389 84.9657 70.716 85.2 69.9899 85.2H60.3876C59.6618 85.2 58.9888 84.9654 58.4403 84.5691ZM61.4911 77.6013H68.8869L71.012 75.4746C71.9199 74.566 71.3023 72.9582 69.9692 72.9582C68.927 72.9582 68.9564 73.7756 67.9891 73.7756C67.2573 73.7756 66.6638 73.1816 66.6638 72.4491C66.6638 71.1613 65.0892 70.4662 64.1487 71.4078C63.881 71.6757 63.7145 72.0448 63.7145 72.4491H63.7143C63.7143 73.6209 62.2882 74.224 61.4521 73.3869C60.5442 72.4783 58.9379 73.0967 58.9379 74.4307C58.9379 74.81 59.0808 75.1886 59.3662 75.4744L61.4911 77.6013ZM69.9902 80.2544H60.3878C59.529 80.2544 59.7032 81.3031 59.7032 81.8616C59.7032 82.2357 60.0138 82.5469 60.3878 82.5469H69.9902C70.8488 82.5469 70.6749 81.4979 70.6749 80.9397C70.6746 80.5653 70.3639 80.2544 69.9902 80.2544ZM101.937 112.669L86.1444 53.6792C84.9322 53.5696 83.703 53.5651 82.489 53.6659L98.2851 112.669H101.937ZM23.0478 83.2643L16.1296 87.2619L37.3072 123.974L37.3051 123.976C37.5328 124.37 37.5503 124.872 37.3072 125.296L30.3556 137.347H39.5826L47.2481 124.058C47.4631 123.616 47.9163 123.311 48.4407 123.311H110.941V123.317C111.398 123.317 111.842 123.555 112.085 123.98L119.796 137.347H129.026L116.322 115.322H42.302V115.319C41.8461 115.319 41.4026 115.082 41.158 114.659L23.0478 83.2643ZM84.4871 12.6541C72.2629 24.8731 65.6626 41.3332 66.9161 58.586C76.2589 48.367 92.3349 48.3999 101.632 58.6617C102.756 41.8192 97.1437 25.2487 85.7947 12.6756C85.36 12.6631 84.9242 12.6557 84.4871 12.6541ZM64.2935 58.9386C62.9983 41.8014 69.1088 25.3726 80.7019 12.7796C57.6658 14.4059 38.6848 31.6012 34.6753 54.231C44.3879 48.4537 56.8274 50.4372 64.2935 58.9386ZM89.5047 12.9192C100.201 25.8038 105.415 42.3074 104.264 58.9943C111.721 50.4462 124.195 48.4407 133.928 54.2313C130.017 32.1586 111.84 15.2109 89.5047 12.9192Z" fill="#663366"/>
</svg>
