<svg width="150" height="164" viewBox="0 0 150 164" fill="none" xmlns="http://www.w3.org/2000/svg">
<path fill-rule="evenodd" clip-rule="evenodd" d="M107.954 79.2175H107.853C97.1076 79.2175 88.3808 87.9251 88.3808 98.6473C88.3808 104.448 90.9365 109.662 94.9887 113.227C87.98 115.341 81.7875 119.763 77.492 125.906L75.2154 129.164C74.7071 129.892 74.6713 130.842 75.1152 131.614L80.463 140.857C80.8711 141.564 81.6299 142 82.446 142H133.36C134.177 142 134.935 141.564 135.343 140.857L140.691 131.614C141.135 130.842 141.099 129.892 140.591 129.164L138.314 125.906C134.019 119.763 127.826 115.341 120.818 113.227C124.863 109.662 127.418 104.448 127.418 98.6473C127.418 87.9251 118.692 79.2175 107.954 79.2175ZM67.1685 135.499C37.0425 135.499 12.5814 111.097 12.5814 81.0388C12.5814 50.9807 37.0443 26.5714 67.1685 26.5714C93.4917 26.5714 115.484 45.202 120.618 69.9607L125.106 69.032C119.544 42.1942 95.6968 22 67.1689 22C34.5101 22 8 48.452 8 81.0392C8 113.619 34.5101 140.071 67.1689 140.071L67.1685 135.499ZM83.7703 137.428L79.8113 130.584L81.2502 128.52C85.9108 121.855 93.17 117.548 101.152 116.584C102.175 116.462 102.991 115.676 103.149 114.655C103.299 113.641 102.755 112.648 101.81 112.226C96.5983 109.912 92.9616 104.697 92.9616 98.6467C92.9616 90.4462 99.6338 83.7886 107.852 83.7886H107.953C116.164 83.7886 122.836 90.4462 122.836 98.6467C122.836 104.697 119.207 109.912 113.995 112.226C113.05 112.648 112.506 113.641 112.663 114.655C112.814 115.676 113.63 116.462 114.653 116.584C122.629 117.548 129.895 121.855 134.555 128.52L135.994 130.584L132.035 137.428H83.7703ZM20.0544 78.7524H20.0115V83.3242H20.0544C21.25 108.169 41.8471 127.97 67.0395 127.97C68.3067 127.97 69.3304 126.948 69.3304 125.684V113.797H64.7486V123.341C43.1355 122.191 25.7963 104.882 24.6435 83.3238H35.2532V78.7521H24.6435C25.8319 56.4293 44.3744 38.6709 67.0395 38.6709C87.5145 38.6709 104.625 53.1647 108.62 72.4157L113.109 71.4942C108.684 50.157 89.7269 34.0993 67.0399 34.0993C41.8475 34.0993 21.2512 53.9006 20.0544 78.7524ZM50.952 95.4178L68.4987 82.8955C69.1001 82.4669 69.458 81.774 69.458 81.0383V44.8577H64.8763V79.8606L48.2817 91.7043L50.952 95.4178Z" fill="#663366"/>
</svg>
