<svg width="150" height="150" viewBox="0 0 150 150" fill="none" xmlns="http://www.w3.org/2000/svg">
<path d="M85.9414 9.875C89.567 9.875 92.5194 12.8341 92.5195 16.4668V20.3662H108.714C112.913 20.3663 116.352 23.8139 116.353 28.0498V55.1436H137.738C138.498 55.1437 139.125 55.7771 139.125 56.5625V138.707C139.125 139.492 138.497 140.125 137.738 140.125H12.2617C11.5025 140.125 10.8752 139.492 10.875 138.707V114.448C10.8751 113.69 11.5042 113.059 12.2617 113.059H27.3662V99.0137C27.3663 98.2247 27.9973 97.6241 28.7529 97.624H44.1729V87.4307C44.173 86.6416 44.804 86.0411 45.5596 86.041H67.2607V81.5771H46.0762C41.8767 81.5771 38.4366 78.1296 38.4365 73.8936V28.0498C38.4366 23.8429 41.8764 20.3662 46.0762 20.3662H62.2705V16.4668C62.2706 12.8342 65.2223 9.87523 68.8477 9.875H85.9414ZM29.2402 115.758C29.09 115.811 28.9204 115.838 28.7529 115.838H13.6484V137.288H136.294V115.838H29.7285C29.5608 115.838 29.3906 115.811 29.2402 115.758ZM46.0186 100.324C45.8684 100.377 45.6986 100.403 45.5312 100.403H30.1689V113.03H136.294V100.403H46.5059C46.3385 100.403 46.1687 100.377 46.0186 100.324ZM136.294 88.7949C136.224 88.8092 136.149 88.8203 136.074 88.8203H46.9463V97.5957H136.294V88.7949ZM116.324 73.8936C116.324 78.1005 112.884 81.5771 108.685 81.5771H70.0625V86.0127H136.074C136.149 86.0127 136.224 86.0229 136.294 86.0371V57.9521H116.324V73.8936ZM113.579 37.834C105.154 42.8417 95.9764 45.9435 86.5986 47.1963C90.4115 51.4029 87.3758 58.1816 81.7256 58.1816H73.0645C67.4145 58.1816 64.3787 51.404 68.1904 47.1973C58.8335 45.9746 49.6496 42.856 41.2676 37.8682V73.8936C41.2676 76.5557 43.4503 78.7695 46.1338 78.7695H108.714C111.369 78.7694 113.579 76.5551 113.579 73.8936V37.834ZM73.0352 47.7773C69.8331 47.7775 68.0692 51.5914 70.1562 54.0029L70.3701 54.2314L70.5039 54.3594C71.1835 54.9785 72.073 55.3447 73.0352 55.3447H81.6973C84.8972 55.3444 86.6372 51.5318 84.5732 49.1191L84.3613 48.8896C83.6669 48.1939 82.7235 47.7775 81.6973 47.7773H73.0352ZM46.1045 23.1738C43.4488 23.1739 41.2393 25.3599 41.2393 28.0498V34.5908C63.3404 48.4566 91.4211 48.456 113.551 34.5898V28.0498C113.551 25.3877 111.368 23.1738 108.685 23.1738H46.1045ZM68.8477 12.6826C66.7668 12.6829 65.0723 14.4083 65.0723 16.4668V20.251H89.7168V16.4668C89.7167 14.3806 87.995 12.6826 85.9414 12.6826H68.8477Z" fill="#663366" stroke="#663366" stroke-width="0.25"/>
</svg>
