<svg width="150" height="150" viewBox="0 0 150 150" fill="none" xmlns="http://www.w3.org/2000/svg">
<path d="M28.5141 64.3505C28.5141 63.3655 29.3136 62.566 30.2985 62.566H100.548C101.533 62.566 102.332 63.3655 102.332 64.3505C102.332 65.3355 101.533 66.135 100.548 66.135H30.2985C29.3136 66.135 28.5141 65.3355 28.5141 64.3505ZM100.547 78.6844H85.3963C84.4114 78.6844 83.6119 79.484 83.6119 80.469C83.6119 81.454 84.4114 82.2535 85.3963 82.2535H100.547C101.531 82.2535 102.331 81.454 102.331 80.469C102.331 79.484 101.531 78.6844 100.547 78.6844ZM86.4431 94.8043H30.2985C29.3136 94.8043 28.5141 95.6038 28.5141 96.5888C28.5141 97.5738 29.3136 98.3733 30.2985 98.3733H86.4444C87.4294 98.3733 88.2288 97.5738 88.2288 96.5888C88.2288 95.6038 87.428 94.8043 86.4431 94.8043ZM30.2972 82.2521H78.2203C79.2052 82.2521 80.0047 81.4526 80.0047 80.4676C80.0047 79.4826 79.2052 78.6831 78.2203 78.6831H30.2985C29.3136 78.6831 28.5141 79.4826 28.5141 80.4676C28.5141 81.4526 29.3136 82.2521 30.2985 82.2521H30.2972ZM30.2972 41.5706H53.5135C54.4984 41.5706 55.2979 40.7711 55.2979 39.7861C55.2979 38.8011 54.4984 38.0016 53.5135 38.0016H30.2985C29.3136 38.0016 28.5141 38.8011 28.5141 39.7861C28.5141 40.7711 29.3136 41.5706 30.2985 41.5706H30.2972ZM65.4218 41.5226C66.698 41.5226 67.7351 42.3784 67.7351 43.4307C67.7351 44.483 66.698 45.3389 65.4218 45.3389C64.3792 45.3389 63.4602 44.7564 63.1883 43.9225C62.8819 42.9856 61.8723 42.4746 60.9368 42.7823C60 43.0887 59.4903 44.097 59.7967 45.0339C60.364 46.7662 61.7693 48.0713 63.5317 48.6222V50.4397C63.5317 51.4247 64.3312 52.2242 65.3161 52.2242C66.301 52.2242 67.1005 51.4247 67.1005 50.4397V48.6538C69.5222 47.9765 71.3039 45.9049 71.3039 43.4321C71.3039 40.4126 68.6651 37.9549 65.4218 37.9549C64.1471 37.9549 63.1086 37.099 63.1086 36.0481C63.1086 34.9971 64.1457 34.1399 65.4218 34.1399C66.4782 34.1399 67.3985 34.7306 67.6637 35.5769C67.9576 36.5193 68.9604 37.0441 69.8986 36.7487C70.8396 36.4547 71.363 35.4546 71.0704 34.5136C70.5072 32.7098 68.9741 31.3402 67.1005 30.814V29.1339C67.1005 28.1489 66.301 27.3494 65.3161 27.3494C64.3312 27.3494 63.5317 28.1489 63.5317 29.1339V30.8868C61.2184 31.6245 59.5412 33.6467 59.5412 36.0481C59.5412 39.0676 62.1786 41.5226 65.4218 41.5226ZM77.3329 41.5706H100.545C101.53 41.5706 102.33 40.7711 102.33 39.7861C102.33 38.8011 101.53 38.0016 100.545 38.0016H77.3329C76.348 38.0016 75.5485 38.8011 75.5485 39.7861C75.5485 40.7711 76.348 41.5706 77.3329 41.5706ZM135.368 117.098C133.995 122.666 130.536 127.365 125.63 130.331C122.612 132.156 119.265 133.185 115.842 133.392V138.215C115.842 139.2 115.043 140 114.058 140H16.7844C15.7995 140 15 139.2 15 138.215V28.4662C15 28.3316 15.0179 28.1997 15.0467 28.0706C15.0522 28.0486 15.0618 28.028 15.0673 28.006C15.103 27.8741 15.1539 27.7478 15.2184 27.6269C15.2376 27.5898 15.2582 27.5541 15.2802 27.5183C15.3654 27.3823 15.4629 27.2546 15.5838 27.1447L33.9484 10.4643C34.1008 10.3256 34.2753 10.2267 34.458 10.1497C34.5102 10.1278 34.5651 10.1168 34.6187 10.0989C34.7588 10.055 34.8989 10.0275 35.0446 10.0192C35.0803 10.0165 35.1119 10 35.1476 10H114.059C115.044 10 115.844 10.7995 115.844 11.7845V90.5374C117.118 90.6184 118.396 90.7984 119.662 91.1102C125.23 92.484 129.931 95.9431 132.896 100.85C135.862 105.757 136.74 111.529 135.368 117.098ZM21.4027 26.6817H33.3646V15.8165L21.4027 26.6817ZM112.275 136.431V133.306C111.309 133.201 110.345 133.039 109.385 132.803C97.8898 129.967 90.8457 118.311 93.6796 106.817C95.0518 101.249 98.5107 96.549 103.417 93.583C106.161 91.9249 109.177 90.9454 112.275 90.6211V13.5691H36.932V28.4662C36.932 29.4512 36.1325 30.2508 35.1476 30.2508H18.5688V136.431H112.275ZM129.843 102.698C127.369 98.6055 123.45 95.7206 118.808 94.5762C114.165 93.4291 109.354 94.1627 105.264 96.6369C101.172 99.1097 98.2882 103.029 97.1453 107.671C94.7826 117.254 100.658 126.973 110.24 129.337C114.879 130.483 119.693 129.75 123.785 127.276C127.877 124.803 130.76 120.884 131.905 116.242C133.049 111.599 132.318 106.789 129.844 102.697L129.843 102.698ZM127.756 103.812C126.841 103.448 125.804 103.896 125.439 104.811L125.359 105.01C123.571 102.159 120.748 100.015 117.382 99.1866C113.971 98.3472 110.438 98.8844 107.43 100.701C104.424 102.518 102.306 105.397 101.464 108.809C99.7292 115.85 104.045 122.991 111.085 124.728C112.139 124.987 113.194 125.111 114.232 125.111C120.141 125.111 125.527 121.094 127.002 115.106C127.237 114.148 126.653 113.183 125.697 112.946C124.744 112.713 123.774 113.295 123.538 114.251C122.274 119.381 117.072 122.527 111.94 121.262C106.809 119.997 103.663 114.794 104.929 109.663C105.541 107.176 107.085 105.079 109.276 103.754C111.466 102.429 114.041 102.039 116.528 102.651C118.722 103.191 120.609 104.496 121.917 106.252C121.058 105.954 120.098 106.33 119.715 107.175C119.307 108.072 119.704 109.13 120.601 109.538L124.653 111.38C124.771 111.434 124.892 111.474 125.017 111.501C125.029 111.504 125.043 111.502 125.057 111.505C125.168 111.527 125.279 111.541 125.392 111.541C125.452 111.541 125.51 111.512 125.571 111.507C125.628 111.501 125.681 111.519 125.738 111.507C125.793 111.496 125.833 111.461 125.885 111.445C125.942 111.428 126.002 111.434 126.057 111.412C126.116 111.388 126.157 111.338 126.212 111.309C126.323 111.25 126.424 111.185 126.52 111.105C126.604 111.035 126.676 110.963 126.745 110.879C126.826 110.781 126.892 110.68 126.95 110.567C126.977 110.513 127.025 110.474 127.049 110.417L128.753 106.131C129.117 105.215 128.67 104.178 127.755 103.813L127.756 103.812ZM67.2351 125.578H30.2985C29.3136 125.578 28.5141 126.378 28.5141 127.363C28.5141 128.348 29.3136 129.147 30.2985 129.147H67.2378C68.2227 129.147 69.0222 128.348 69.0222 127.363C69.0222 126.378 68.2227 125.578 67.2378 125.578H67.2351ZM51.5684 109.006C49.3774 111.327 47.4103 113.394 45.6355 115.188C45.9776 115.91 46.3196 116.59 46.5847 116.938C46.7097 116.879 46.8622 116.797 46.9776 116.735C47.5848 116.408 48.4158 115.959 49.4282 116.12C50.7428 116.33 51.5753 117.434 52.2401 118.391C52.5574 117.963 52.938 117.483 53.4009 117.073C54.508 116.098 56.5026 115.162 59.7307 116.242C61.875 116.958 64.3751 118.498 66.7941 119.987C67.6334 120.503 67.9054 121.609 67.3889 122.449C66.8738 123.289 65.7845 123.557 64.9452 123.039C62.6786 121.644 60.3558 120.215 58.6002 119.628C56.6427 118.973 55.9792 119.558 55.7622 119.751C55.4916 119.99 55.2045 120.383 54.9256 120.763C54.2951 121.626 53.1165 123.233 51.328 122.493C50.4956 122.149 49.9791 121.399 49.431 120.605C49.2689 120.369 49.0299 120.024 48.8348 119.789C48.7771 119.819 48.7208 119.85 48.6713 119.877C47.8705 120.308 45.7495 121.454 43.9391 119.344C43.5901 118.937 43.2715 118.421 42.9555 117.823C39.7878 120.829 37.3441 122.674 35.3907 123.174C35.0102 123.272 34.6352 123.32 34.2739 123.32C33.186 123.32 32.2107 122.886 31.5032 122.06C29.7628 120.032 30.0774 116.095 31.2876 113.255C32.4511 110.526 34.5789 108.399 36.8413 107.707C38.34 107.248 39.8483 107.436 41.0832 108.237C42.2783 109.009 43.2 110.331 43.9844 111.779C45.6699 110.055 47.3801 108.244 48.9708 106.557L51.5657 109.008L51.5684 109.006ZM41.336 114.429C40.6725 113.077 39.9018 111.718 39.1491 111.232C39.057 111.173 38.8331 111.027 38.4485 111.027C38.2892 111.027 38.1037 111.052 37.888 111.118C36.6435 111.498 35.311 112.919 34.572 114.653C33.5143 117.134 33.8192 119.439 34.2327 119.755C34.2327 119.751 34.3193 119.763 34.5075 119.715C35.9471 119.345 38.4842 117.198 41.336 114.429Z" fill="#663366"/>
</svg>
