<svg width="150" height="150" viewBox="0 0 150 150" fill="none" xmlns="http://www.w3.org/2000/svg">
<path d="M61.8003 120.97H17.6603C15.7387 120.97 14.1774 119.415 14.1774 117.501V31.4992C14.1774 29.5849 15.7387 28.0295 17.6603 28.0295H29.498V28.7214C29.498 31.4003 31.6859 33.5746 34.3699 33.5746H67.789C70.4781 33.5746 72.6608 31.3951 72.6608 28.7214V28.0295H84.4985C86.4201 28.0295 87.9814 29.5849 87.9814 31.4992V57.8568C87.9814 59.0064 88.9161 59.9376 90.0701 59.9376C91.2241 59.9376 92.1588 59.0064 92.1588 57.8568V31.4992C92.1588 27.2908 88.7229 23.8681 84.4985 23.8681H72.6608V23.1762C72.6608 20.4973 70.4729 18.323 67.789 18.323H58.7397V17.6311C58.7397 13.4228 55.3039 10 51.0794 10C46.855 10 43.4191 13.4228 43.4191 17.6311V18.323H34.3699C31.6807 18.323 29.498 20.5025 29.498 23.1762V23.8681L17.6603 23.8733C13.4359 23.8733 10 27.296 10 31.5044V117.506C10 121.714 13.4359 125.137 17.6603 125.137H61.8003C62.9543 125.137 63.889 124.206 63.889 123.056C63.889 121.907 62.9543 120.976 61.8003 120.976V120.97ZM47.5971 17.6305C47.5971 15.7163 49.1585 14.1609 51.0801 14.1609C53.0017 14.1609 54.563 15.7163 54.563 17.6305V18.3224H47.6025V17.6305H47.5971ZM33.6707 23.1757C33.6707 22.796 33.9841 22.4839 34.3652 22.4839H67.7843C68.1655 22.4839 68.4788 22.796 68.4788 23.1757V28.7261C68.4788 29.1058 68.1655 29.4179 67.7843 29.4179H34.3652C33.984 29.4179 33.6707 29.1058 33.6707 28.7261V23.1757ZM66.515 69.0556C65.7161 68.2233 64.4003 68.1869 63.5596 68.9828C62.7293 69.7735 61.8678 70.3977 61.0061 70.9595L59.3195 64.2439H60.9121C62.0661 64.2439 63.0008 63.3128 63.0008 62.1632C63.0008 61.0136 62.0661 60.0825 60.9121 60.0825H56.0299L55.3615 53.3617C55.1161 50.87 53.0273 48.9869 50.5105 48.9869H44.8084V42.4481C44.8084 41.2985 43.8737 40.3674 42.7197 40.3674C41.5657 40.3674 40.631 41.2985 40.631 42.4481V56.6131C40.631 58.9123 41.6806 60.9566 43.3045 62.3559L41.1427 70.9597C39.9992 70.2158 39.1219 69.4823 38.5892 68.9777C37.7538 68.1819 36.4326 68.2183 35.639 69.0506C34.8401 69.8829 34.8766 71.1989 35.7121 71.9947C37.6545 73.8362 43.0382 78.1173 51.0742 78.1173C53.7529 78.1173 60.6143 77.5191 66.4416 71.9947C67.2771 71.2041 67.3087 69.8879 66.515 69.0556ZM50.51 53.1489C50.8703 53.1489 51.1679 53.4194 51.2044 53.7731L51.831 60.0829H48.2908C46.3692 60.0829 44.8078 58.5275 44.8078 56.6133V53.1436H50.5099L50.51 53.1489ZM44.975 72.8735L47.168 64.1344C47.5388 64.1917 47.9095 64.2489 48.2959 64.2489H55.0215L57.1833 72.8632C54.5881 73.7787 52.301 73.9608 51.0843 73.9608C48.7606 73.9608 46.7294 73.5082 44.9801 72.8788L44.975 72.8735ZM33.6699 86.9865C33.6699 88.1361 32.7352 89.0672 31.5812 89.0672H26.0096C24.8556 89.0672 23.9209 88.1361 23.9209 86.9865C23.9209 85.8369 24.8556 84.9058 26.0096 84.9058H31.5812C32.7352 84.9058 33.6699 85.8369 33.6699 86.9865ZM58.5404 89.0672H42.7238C41.5698 89.0672 40.6351 88.1361 40.6351 86.9865C40.6351 85.8369 41.5698 84.9058 42.7238 84.9058H58.5404C59.6944 84.9058 60.6291 85.8369 60.6291 86.9865C60.6291 88.1361 59.6944 89.0672 58.5404 89.0672ZM33.6699 98.0819C33.6699 99.2315 32.7352 100.163 31.5812 100.163H26.0096C24.8556 100.163 23.9209 99.2315 23.9209 98.0819C23.9209 96.9323 24.8556 96.0012 26.0096 96.0012H31.5812C32.7352 96.0012 33.6699 96.9323 33.6699 98.0819ZM40.6357 98.0819C40.6357 96.9323 41.5704 96.0012 42.7244 96.0012H56.2858C57.4398 96.0012 58.3745 96.9323 58.3745 98.0819C58.3745 99.2315 57.4398 100.163 56.2858 100.163H42.7244C41.5704 100.163 40.6357 99.2315 40.6357 98.0819ZM33.6699 109.183C33.6699 110.332 32.7352 111.263 31.5812 111.263H26.0096C24.8556 111.263 23.9209 110.332 23.9209 109.183C23.9209 108.033 24.8556 107.102 26.0096 107.102H31.5812C32.7352 107.102 33.6699 108.033 33.6699 109.183ZM40.6357 109.183C40.6357 108.033 41.5704 107.102 42.7244 107.102H56.8433C57.9973 107.102 58.932 108.033 58.932 109.183C58.932 110.332 57.9973 111.263 56.8433 111.263H42.7244C41.5704 111.263 40.6357 110.332 40.6357 109.183ZM101.207 62.7101C79.8189 62.7101 62.4142 80.0484 62.4142 101.355C62.4142 122.662 79.8189 140 101.207 140C122.595 140 140 122.662 140 101.355C140 80.0484 122.595 62.7101 101.207 62.7101ZM101.207 135.843C82.1221 135.843 66.5916 120.373 66.5916 101.359C66.5916 82.3468 82.1208 66.8755 101.207 66.8755C120.292 66.8755 135.823 82.3455 135.823 101.359C135.823 120.371 120.293 135.843 101.207 135.843ZM101.207 74.3102C86.2367 74.3102 74.0548 86.4461 74.0548 101.359C74.0548 116.272 86.2371 128.408 101.207 128.408C116.177 128.408 128.359 116.272 128.359 101.359C128.359 86.4461 116.177 74.3102 101.207 74.3102ZM101.207 124.248C88.5391 124.248 78.2308 113.979 78.2308 101.359C78.2308 88.7394 88.5385 78.4704 101.207 78.4704C113.875 78.4704 124.183 88.7387 124.183 101.359C124.183 113.979 113.876 124.248 101.207 124.248ZM110.846 106.369C110.846 110.281 107.651 113.464 103.724 113.464H103.296V116.101C103.296 117.251 102.361 118.182 101.207 118.182C100.053 118.182 99.1184 117.251 99.1184 116.101V113.464H96.1734C95.0194 113.464 94.0847 112.533 94.0847 111.383C94.0847 110.234 95.0194 109.303 96.1734 109.303H103.724C105.348 109.303 106.669 107.987 106.669 106.369C106.669 104.751 105.348 103.435 103.724 103.435H98.6902C94.7635 103.435 91.5678 100.252 91.5678 96.3397C91.5678 92.428 94.7635 89.2445 98.6902 89.2445H99.1184V86.6071C99.1184 85.4575 100.053 84.5264 101.207 84.5264C102.361 84.5264 103.296 85.4575 103.296 86.6071V89.2445H106.241C107.395 89.2445 108.33 90.1756 108.33 91.3252C108.33 92.4748 107.395 93.4059 106.241 93.4059H98.6903C97.0664 93.4059 95.7452 94.722 95.7452 96.3397C95.7452 97.9574 97.0663 99.2735 98.6903 99.2735H103.724C107.651 99.2735 110.846 102.457 110.846 106.369Z" fill="#663366"/>
</svg>
