<svg width="150" height="150" viewBox="0 0 150 150" fill="none" xmlns="http://www.w3.org/2000/svg">
<path d="M78.5371 30.1128C85.045 30.1129 91.176 32.657 95.7725 37.2534L96.1982 37.6899C100.54 42.248 102.913 48.1843 102.913 54.4888V60.771C102.913 67.279 100.369 73.4108 95.7725 78.0073L95.7686 78.0103C95.2635 78.505 94.7418 78.978 94.208 79.4292L108.862 82.1138H108.863L109.182 82.1763C112.458 82.8615 115.312 84.7447 117.215 87.5044L117.396 87.7749C119.238 90.5834 119.915 93.9212 119.307 97.2261L114.247 124.862C113.539 128.725 111.14 132.024 107.697 133.907L107.696 133.906C105.796 134.952 103.64 135.5 101.469 135.5C99.7797 135.499 98.1216 135.178 96.5449 134.535L96.5439 134.534L78.5361 127.153L60.5293 134.534L60.5283 134.535C58.9516 135.178 57.2935 135.499 55.6045 135.5C53.4325 135.5 51.2759 134.953 49.375 133.906V133.905C46.0246 132.081 43.684 128.928 42.8975 125.222L42.8262 124.862L37.7666 97.2261L37.7119 96.9058C37.1874 93.5976 37.9574 90.2633 39.8584 87.5054L39.8594 87.5034L40.0479 87.2397C42.0233 84.5387 44.9059 82.7217 48.21 82.1138H48.2109L62.8574 79.4312C62.5237 79.1508 62.1956 78.8639 61.8779 78.5659L61.3008 78.0073C56.6886 73.3951 54.1602 67.2788 54.1602 60.771V54.4888C54.1602 47.9809 56.7044 41.8499 61.3008 37.2534L61.7383 36.8276C66.2963 32.4861 72.2327 30.1128 78.5371 30.1128ZM55.4297 93.9146C50.8276 92.024 45.5339 94.2367 43.6416 98.8384L43.6426 98.8394C42.7319 101.087 42.7329 103.534 43.6709 105.761L43.8564 106.173C44.7652 108.069 46.2742 109.566 48.1699 110.45L48.582 110.629L48.583 110.63L98.0225 130.901L98.0234 130.902L98.4375 131.061C99.4079 131.407 100.412 131.576 101.453 131.576C102.939 131.576 104.429 131.189 105.736 130.49L105.731 130.476C108.138 129.155 109.794 126.869 110.293 124.17L112.35 112.98C111.598 113.494 110.79 113.936 109.923 114.293L109.922 114.294L108.306 114.958C108.262 114.982 108.22 114.998 108.182 115.008C108.16 115.018 108.134 115.03 108.104 115.039C108.101 115.039 108.099 115.039 108.097 115.04C108.066 115.05 108.033 115.06 107.996 115.066C107.989 115.067 107.981 115.066 107.974 115.067C107.953 115.072 107.938 115.079 107.927 115.081L107.813 115.089H107.123L107.062 115.059H107.036L106.959 115.033C106.92 115.02 106.888 115.007 106.869 115C106.849 114.992 106.842 114.989 106.835 114.987L106.804 114.975L55.4297 93.9146ZM46.7031 124.139L46.8105 124.64C47.4122 127.12 49.0086 129.208 51.2646 130.446L51.5166 130.579C52.7858 131.225 54.1889 131.56 55.6045 131.56C56.7845 131.56 57.917 131.342 59.0068 130.896L59.0049 130.885L73.3027 125.019L47.0742 114.263H47.0732C46.2054 113.905 45.3971 113.463 44.6455 112.949L46.7031 124.139ZM113.4 98.8081C111.567 94.3499 106.542 92.1335 102.046 93.7183L101.612 93.8843L83.7383 101.219L107.565 110.985L107.778 110.898L107.762 110.881L108.461 110.598C110.703 109.69 112.432 107.962 113.372 105.73L113.537 105.31C114.307 103.196 114.253 100.901 113.4 98.8091V98.8081ZM89.457 82.5688C86.1 84.2566 82.3946 85.1479 78.5371 85.1479C74.6801 85.1479 70.9589 84.2571 67.6152 82.5688L48.917 85.9897L48.918 85.9907C46.5402 86.431 44.4892 87.7497 43.1104 89.7446L43.1094 89.7437C42.0933 91.2166 41.5514 92.9009 41.5117 94.6392C44.9437 89.8989 51.307 87.9145 56.9551 90.2358H56.9541L78.5361 99.0854L100.118 90.2358L100.697 90.0132C106.196 88.0521 112.245 90.0611 115.561 94.6401C115.521 92.897 114.979 91.2062 113.964 89.7456L113.963 89.7437C112.6 87.7647 110.533 86.431 108.155 85.9907V85.9897L89.457 82.5688ZM78.5371 34.0679C67.285 34.0679 58.1164 43.2217 58.1162 54.4888V60.771C58.1162 72.0229 67.2852 81.1919 78.5371 81.1919C89.7891 81.1917 98.957 72.038 98.957 60.771V54.4888C98.9569 43.2371 89.7887 34.0681 78.5371 34.0679Z" fill="#663366" stroke="#663366"/>
<path d="M132.199 14.5C138.526 14.5 143.67 19.6444 143.67 25.9707C143.67 27.7657 143.266 29.4825 142.474 31.083L142.472 31.082C142.463 31.1006 142.457 31.1189 142.448 31.1348V31.1553L142.39 31.2646C142.103 31.807 141.768 32.3312 141.403 32.8242L141.404 32.8252C139.539 35.6151 134.417 42.5203 125.666 48.7461L124.808 49.3467C124.479 49.5725 124.086 49.6973 123.688 49.6973C123.34 49.6972 122.997 49.601 122.696 49.4258L122.57 49.3467C113.279 42.9705 107.882 35.7049 105.972 32.8232H105.971C105.605 32.3431 105.273 31.8199 104.975 31.2695L104.914 31.1582V31.1094C104.913 31.1076 104.912 31.1053 104.911 31.1035C104.907 31.0938 104.903 31.0821 104.897 31.0693C104.11 29.4726 103.707 27.7607 103.707 25.9707C103.707 19.6445 108.852 14.5002 115.178 14.5C118.497 14.5 121.547 15.8916 123.688 18.2695C125.83 15.8915 128.88 14.5 132.199 14.5ZM109.261 30.5498C109.266 30.5573 109.272 30.5699 109.281 30.585H109.282C110.957 33.1201 115.653 39.4741 123.719 45.2832C131.786 39.4589 136.483 33.105 138.158 30.584C138.169 30.5655 138.177 30.5514 138.182 30.5449L138.193 30.5215L138.219 30.4863C138.446 30.1786 138.659 29.8471 138.849 29.4941V29.0918H139.092C139.544 28.0953 139.776 27.0437 139.776 25.9551C139.776 21.8209 136.41 18.4407 132.262 18.4404C129.373 18.4404 126.791 20.0495 125.514 22.6338L125.513 22.6357C125.183 23.2954 124.502 23.7323 123.751 23.7324C122.999 23.7324 122.318 23.2956 121.988 22.6357L121.987 22.6338C120.71 20.05 118.114 18.4405 115.24 18.4404C111.106 18.4404 107.725 21.8065 107.725 25.9551C107.725 27.1609 108 28.3067 108.537 29.3662L108.591 29.4727V29.4932C108.732 29.7514 108.874 29.9985 109.029 30.2256L109.212 30.4756L109.243 30.5146L109.261 30.5498Z" fill="#663366" stroke="#663366"/>
<path d="M31.3252 47.7998C36.9241 47.7999 41.4802 52.3562 41.4805 57.9551C41.4805 59.5409 41.1249 61.0485 40.4326 62.457C40.4208 62.4886 40.409 62.521 40.4004 62.542C40.3929 62.5602 40.3859 62.577 40.3809 62.5889C40.3784 62.5948 40.3765 62.6001 40.375 62.6035C40.3743 62.6051 40.3734 62.6065 40.373 62.6074V62.6094L40.2432 62.9121H40.1768C39.9604 63.2948 39.722 63.6665 39.4619 64.0195L39.4629 64.0205C37.8525 66.4361 33.4207 72.4142 25.8379 77.8086L25.0938 78.3291C24.7652 78.555 24.3726 78.6797 23.9746 78.6797C23.6266 78.6796 23.2829 78.5843 22.9824 78.4092L22.8564 78.3291C14.8187 72.8041 10.1498 66.5142 8.4873 64.0205V64.0195C8.24832 63.6952 8.02599 63.3535 7.82227 62.9873L7.62012 62.6045C7.61957 62.6035 7.61897 62.602 7.61816 62.6006C7.61452 62.5941 7.60563 62.5791 7.59766 62.5645C7.58735 62.5455 7.57449 62.5144 7.55859 62.4775L7.55762 62.4785C6.85833 61.0636 6.5 59.533 6.5 57.9551C6.50024 52.3563 11.0565 47.8 16.6553 47.7998C19.4859 47.7998 22.1049 48.9543 23.9902 50.9287C25.8755 48.9543 28.4945 47.7998 31.3252 47.7998ZM31.4023 51.7549C29.0251 51.7549 26.8924 53.0857 25.8311 55.2227L25.8301 55.2236C25.5001 55.8835 24.8189 56.3203 24.0674 56.3203C23.316 56.3202 22.6356 55.8834 22.3057 55.2236L22.3047 55.2227C21.2434 53.0858 19.1105 51.755 16.7334 51.7549C13.3114 51.7549 10.5177 54.5487 10.5176 57.9707C10.5176 58.9591 10.7461 59.9031 11.1904 60.7773L11.2451 60.8838V60.9121C11.3516 61.1168 11.4659 61.3158 11.5908 61.4971L11.7402 61.7002L11.7725 61.7402L11.79 61.7773C11.7949 61.7847 11.8019 61.7962 11.8105 61.8105H11.8115C13.2398 63.9604 17.2089 69.3403 24.0371 74.2969C30.8654 69.3402 34.8346 63.9602 36.2627 61.8105C36.2738 61.7921 36.2818 61.778 36.2861 61.7715L36.2949 61.7529L36.3154 61.7227C36.5295 61.4168 36.7289 61.1173 36.8818 60.8115L37.2666 61.0039H37.3291V60.9717L36.9453 60.7773C37.3896 59.9031 37.6182 58.959 37.6182 57.9707C37.618 54.5487 34.8244 51.7549 31.4023 51.7549Z" fill="#663366" stroke="#663366"/>
</svg>
