<svg width="150" height="150" viewBox="0 0 150 150" fill="none" xmlns="http://www.w3.org/2000/svg">
<path d="M104.629 68.9242C101.158 68.919 97.8228 70.297 95.3687 72.76C90.9585 77.1774 90.2769 84.089 93.7484 89.2814C97.2198 94.4691 103.874 96.4813 109.643 94.0918C115.416 91.7024 118.694 85.5766 117.472 79.4564C116.255 73.3308 110.875 68.9242 104.629 68.9242ZM111.383 88.7631L111.389 88.7683C110.256 89.9002 108.851 90.7333 107.314 91.184V91.1369C107.314 90.6653 107.125 90.2146 106.795 89.8845C106.465 89.5491 106.014 89.3657 105.542 89.3657H98.5357C98.3103 89.1771 98.09 88.978 97.875 88.7684C97.7125 88.6059 97.5656 88.4435 97.4188 88.2758H97.5237V88.2705C98.5043 88.2705 99.2961 87.4793 99.2961 86.5046C99.2961 85.5247 98.5043 84.7335 97.5237 84.7335H95.4734C95.164 83.696 95.0381 82.6113 95.0906 81.5318H105.547C106.527 81.5318 107.319 80.7406 107.319 79.7607C107.319 78.7861 106.527 77.9948 105.547 77.9948H95.9664C96.1447 77.6175 96.3439 77.2507 96.5694 76.8996H97.529C98.1583 76.8996 98.7456 76.5643 99.0602 76.0193C99.3748 75.4743 99.3801 74.8036 99.0655 74.2586C103.108 71.3556 108.698 72.0421 111.923 75.8359C115.143 79.6245 114.912 85.2523 111.394 88.7684L111.383 88.7631ZM47.8852 36.8445C47.8852 35.8698 48.677 35.0786 49.6576 35.0786H66.9306C67.9112 35.0786 68.703 35.8698 68.703 36.8445C68.703 37.8244 67.9112 38.6156 66.9306 38.6156H49.6576C49.1856 38.6156 48.7347 38.427 48.4043 38.0968C48.0739 37.7667 47.8852 37.3161 47.8852 36.8445ZM49.6576 44.8671V44.8723C48.677 44.8723 47.8852 44.0811 47.8852 43.1012C47.8852 42.1265 48.677 41.33 49.6576 41.33H50.2396H50.2344C51.215 41.33 52.0068 42.1265 52.0068 43.1012C52.0068 44.0811 51.215 44.8723 50.2344 44.8723L49.6576 44.8671ZM55.9764 41.33H82.8464C83.827 41.33 84.6188 42.1265 84.6188 43.1012C84.6188 44.0811 83.827 44.8723 82.8464 44.8723H55.9764C55.001 44.8723 54.204 44.0811 54.204 43.1012C54.204 42.1265 55.001 41.33 55.9764 41.33ZM68.8972 47.5868H105.541C106.522 47.5868 107.314 48.378 107.314 49.3579C107.314 50.3325 106.522 51.129 105.541 51.129H68.8972C67.9166 51.129 67.1248 50.3325 67.1248 49.3579C67.1248 48.378 67.9166 47.5868 68.8972 47.5868ZM62.7934 47.5868C63.7687 47.5868 64.5658 48.378 64.5658 49.3579C64.5658 50.3325 63.7687 51.129 62.7934 51.129H50.5804C49.605 51.129 48.8132 50.3325 48.8132 49.3579C48.8132 48.378 49.605 47.5868 50.5804 47.5868H62.7934ZM83.9889 57.3805H50.58C50.0923 57.4172 49.6098 57.2443 49.2533 56.9089C48.8914 56.5735 48.6869 56.1072 48.6869 55.6146C48.6869 55.1273 48.8914 54.6557 49.2533 54.3255C49.6099 53.9902 50.0923 53.8172 50.58 53.8539H83.9889C84.4766 53.8173 84.9591 53.9902 85.3156 54.3255C85.6775 54.6557 85.882 55.1273 85.882 55.6146C85.882 56.1072 85.6775 56.5735 85.3156 56.9089C84.9591 57.2443 84.4766 57.4172 83.9889 57.3805ZM107.314 55.6146C107.314 56.5893 106.522 57.3805 105.546 57.3805H90.087C89.1589 57.3176 88.4404 56.5473 88.4404 55.6146C88.4404 54.6871 89.1588 53.9169 90.087 53.8539H105.541C106.516 53.8487 107.308 54.64 107.314 55.6146ZM61.8443 62.6677V62.673C62.1746 63.0031 62.3634 63.4538 62.3634 63.9254C62.3634 64.3917 62.1746 64.8424 61.8443 65.1777L57.518 69.4903C56.8258 70.182 55.7088 70.182 55.0167 69.4903L52.8457 67.3209C52.5101 66.9907 52.3213 66.5401 52.3213 66.0685C52.3213 65.6021 52.5101 65.1515 52.8405 64.8161C53.1761 64.486 53.627 64.2973 54.0937 64.2973C54.5657 64.2973 55.0167 64.486 55.347 64.8213L56.2647 65.7383L59.3324 62.6676H59.3376C60.0298 61.9811 61.1521 61.9811 61.839 62.6728L61.8443 62.6677ZM66.8836 77.9953H78.9497V78.0005C79.9251 78.0005 80.7221 78.7918 80.7221 79.7717C80.7221 80.7463 79.9251 81.5376 78.9497 81.5376H66.8784C65.903 81.5376 65.1112 80.7463 65.1112 79.7717C65.1112 78.7918 65.903 78.0005 66.8784 78.0005L66.8836 77.9953ZM80.7227 91.1375V91.1427C80.7227 92.1174 79.9256 92.9138 78.9503 92.9138H66.8789C65.9035 92.9138 65.1117 92.1174 65.1117 91.1427C65.1117 90.1628 65.9035 89.3716 66.8789 89.3716H78.945C79.9256 89.3716 80.7174 90.1628 80.7174 91.1427L80.7227 91.1375ZM69.4169 84.7341V84.7394C70.3922 84.7394 71.1841 85.5359 71.1841 86.5105C71.1841 87.4852 70.3922 88.2816 69.4169 88.2816H66.8789C65.9035 88.2816 65.1117 87.4851 65.1117 86.5105C65.1117 85.5359 65.9035 84.7394 66.8789 84.7394L69.4169 84.7341ZM65.1117 75.1396C65.1117 74.1597 65.9035 73.3685 66.8789 73.3685H69.4169C70.3922 73.3685 71.1841 74.1597 71.1841 75.1396C71.1841 76.1142 70.3922 76.9107 69.4169 76.9107H66.8789C66.4122 76.9107 65.9612 76.7221 65.6309 76.392C65.2952 76.0566 65.1117 75.606 65.1117 75.1396ZM66.8841 66.6296H78.9503H78.945C79.9256 66.6296 80.7174 67.4209 80.7174 68.4008C80.7174 69.3754 79.9256 70.1667 78.945 70.1667H66.8789C65.9035 70.1667 65.1117 69.3754 65.1117 68.4008C65.1117 67.4209 65.9035 66.6296 66.8789 66.6296H66.8841ZM65.1117 63.7685C65.1117 62.7886 65.9035 61.9974 66.8789 61.9974H69.4169C70.3922 61.9974 71.1841 62.7887 71.1841 63.7685C71.1841 64.7432 70.3922 65.5344 69.4169 65.5344H66.8789C66.4122 65.5344 65.9612 65.351 65.6309 65.0157C65.2952 64.6856 65.1117 64.2349 65.1117 63.7685ZM61.8395 74.0444C62.1752 74.3745 62.3587 74.8252 62.3587 75.2968C62.3587 75.7632 62.1752 76.2138 61.8395 76.5439L57.5185 80.8618C56.8264 81.5535 55.7094 81.5535 55.0172 80.8618L52.8462 78.6924V78.6977C52.1593 78.006 52.1593 76.8898 52.8515 76.1981C53.5384 75.5064 54.6554 75.5064 55.3476 76.1929L56.2653 77.1099L59.333 74.0444H59.3382C59.6686 73.709 60.1195 73.5256 60.5915 73.5256C61.0582 73.5256 61.5092 73.7091 61.8395 74.0444ZM138.888 105.486L129.208 95.8125C128.128 94.733 126.513 94.4029 125.097 94.9636L122.622 92.4902C125.154 88.1671 126.035 83.0686 125.102 78.1432C124.169 73.2228 121.478 68.8002 117.535 65.7033V18.4436C117.53 15.986 115.537 14 113.083 14H42.1237C39.6644 14 37.6717 15.9913 37.6717 18.4436V21.2313H34.882C32.4227 21.2313 30.43 23.2226 30.43 25.6801V80.8062H28.2538C24.3524 80.8062 21.1903 83.9712 21.1903 87.8698V91.3911H16.387C12.8631 91.3911 10.0052 94.2417 10 97.7631V126.94C10.0105 131.939 14.0692 135.995 19.0771 136H53.7385C58.7517 135.995 62.8104 131.939 62.8156 126.935V116.596H105.836C108.296 116.591 110.283 114.6 110.288 112.147V109.359H113.083C115.459 109.354 117.415 107.484 117.52 105.105C117.708 105.66 118.018 106.168 118.432 106.582L128.112 116.255C129.607 117.738 132.019 117.738 133.513 116.255L138.883 110.89C140.372 109.396 140.372 106.986 138.883 105.492L138.888 105.486ZM122.369 97.2482L119.873 99.7426L118.043 97.9242C118.489 97.5469 118.929 97.1487 119.349 96.7295C119.768 96.3103 120.162 95.8701 120.539 95.4247L122.369 97.2482ZM117.587 102.473C117.566 102.525 117.545 102.577 117.529 102.63V102.415L117.587 102.473ZM116.848 94.23V94.2352C111.908 99.1609 104.483 100.633 98.0322 97.9661C91.5823 95.2936 87.3767 89.0055 87.3767 82.0255C87.3767 75.0509 91.5823 68.7628 98.0322 66.0902C104.482 63.4176 111.908 64.8902 116.848 69.8211C120.109 73.0437 121.95 77.435 121.95 82.0253C121.95 86.6104 120.109 91.0068 116.848 94.2243V94.23ZM113.99 18.4427V29.2948L102.223 17.5256H113.083C113.324 17.5256 113.555 17.6252 113.722 17.7981C113.895 17.9658 113.99 18.2016 113.99 18.4427ZM99.7158 20.0357L111.483 31.7892H99.7158V20.0357ZM33.9677 25.6844C33.9677 25.1814 34.3767 24.7726 34.8749 24.7726H37.6646L37.6698 80.8055H33.9677L33.9677 25.6844ZM48.0793 91.3893H41.2098V84.3466H44.5554C46.5009 84.3518 48.0741 85.9239 48.0793 87.8627V91.3893ZM37.6703 91.3893H33.9681V84.3466H37.6703V91.3893ZM24.7337 87.8679H24.7285C24.7337 85.9291 26.3069 84.3518 28.2523 84.3466H30.4233V91.3893H24.7285L24.7337 87.8679ZM16.3854 94.9263L56.4327 94.9315C58.0006 94.9315 59.2696 96.1996 59.2696 97.7717V102.378C59.2644 106.481 55.9345 109.808 51.8286 109.813H47.6964V107.089C47.6964 106.109 46.9046 105.318 45.9293 105.318C44.9487 105.318 44.1569 106.109 44.1569 107.089V109.819L28.6505 109.814V107.089C28.6505 106.109 27.8587 105.318 26.8833 105.318C25.9027 105.318 25.1109 106.109 25.1109 107.089V109.819L20.9893 109.814C16.8781 109.814 13.543 106.481 13.543 102.368V97.7615C13.543 96.1946 14.812 94.9266 16.3799 94.9266L16.3854 94.9263ZM53.7371 132.471H19.0756C16.0185 132.466 13.5434 129.993 13.5434 126.938V110.442C15.5675 112.318 18.2261 113.36 20.9897 113.36H25.1218V115.97C25.1218 116.95 25.9136 117.741 26.889 117.741C27.8696 117.741 28.6614 116.95 28.6614 115.97V113.355H44.157V115.965C44.157 116.939 44.9488 117.736 45.9294 117.736C46.9048 117.736 47.6966 116.939 47.6966 115.965V113.355H51.8287C54.587 113.355 57.2457 112.318 59.2698 110.442V126.938C59.2698 129.987 56.7942 132.466 53.7371 132.471ZM106.741 112.151H106.747C106.747 112.392 106.647 112.622 106.479 112.79C106.306 112.963 106.076 113.057 105.834 113.057H62.8135V109.358H106.747L106.741 112.151ZM113.076 105.821H62.8143V97.7718C62.8091 94.9107 60.8951 92.4007 58.1368 91.6305L61.8442 87.9257H61.8389C62.1745 87.5956 62.3633 87.145 62.3633 86.6734C62.3633 86.207 62.1798 85.7511 61.8442 85.421C61.5138 85.0909 61.0628 84.9022 60.5909 84.9022C60.1189 84.9022 59.668 85.0909 59.3376 85.4262L56.2699 88.497L55.347 87.5747C55.0166 87.2446 54.5656 87.056 54.0937 87.056C53.627 87.0507 53.176 87.2394 52.8404 87.5695C52.5101 87.9048 52.3213 88.3555 52.3213 88.8271C52.3213 89.2935 52.51 89.7441 52.8457 90.0795L54.1671 91.4H51.6239V87.8629C51.6239 85.9923 50.8793 84.1948 49.5525 82.8743C48.2258 81.5486 46.4325 80.8044 44.5551 80.8044H41.2095V18.4425C41.2095 17.9395 41.6185 17.5307 42.1219 17.5307H96.1761V33.5652C96.1761 34.0316 96.3648 34.4822 96.6952 34.8124C97.0256 35.1477 97.4765 35.3312 97.9485 35.3312H113.989V63.4442C109.133 61.018 103.522 60.5726 98.3472 62.2023C98.0902 62.066 97.8123 61.9979 97.5239 61.9979H73.5012C72.5258 61.9979 71.7288 62.7892 71.7288 63.7691C71.7288 64.7437 72.5258 65.535 73.5012 65.535H91.9434C91.4977 65.8808 91.0572 66.2424 90.6325 66.6301H83.0288C82.0535 66.6301 81.2564 67.4214 81.2564 68.396C81.2564 69.3759 82.0535 70.1672 83.0288 70.1672H87.5333C86.8254 71.1785 86.2171 72.2475 85.7032 73.3688H73.4955C72.5201 73.3688 71.7283 74.1601 71.7283 75.14C71.7283 76.1146 72.5201 76.9059 73.4955 76.9059H84.4656C84.3712 77.2674 84.2926 77.6343 84.2192 78.0011H83.0341C82.0587 78.0011 81.2669 78.7923 81.2669 79.7722C81.2669 80.7469 82.0587 81.5381 83.0341 81.5381H83.8416C83.8154 82.6071 83.8731 83.6814 84.0147 84.7398H73.4955C72.5202 84.7398 71.7284 85.531 71.7284 86.5109C71.7284 87.4856 72.5202 88.2768 73.4955 88.2768H84.7856C84.901 88.6436 85.0268 89.0104 85.1632 89.372H83.029C82.0536 89.372 81.2566 90.1632 81.2566 91.1431C81.2566 92.1178 82.0537 92.909 83.029 92.909H86.8989C89.6311 97.3474 93.931 100.602 98.9441 102.027C103.963 103.452 109.327 102.944 113.989 100.607V104.909C113.989 105.412 113.58 105.815 113.082 105.821H113.076ZM120.848 103.882L120.853 103.887C120.848 103.814 120.879 103.74 120.931 103.688L126.301 98.322C126.411 98.2225 126.579 98.2225 126.689 98.322L129.799 101.429L124.036 107.188L120.926 104.081V104.086C120.874 104.029 120.848 103.955 120.858 103.882L120.848 103.882ZM136.385 108.378L131.015 113.744C130.905 113.848 130.732 113.848 130.622 113.744L126.553 109.672L132.316 103.913L136.39 107.979V107.985C136.495 108.089 136.495 108.262 136.39 108.372L136.385 108.378Z" fill="#663366"/>
</svg>
