<svg width="150" height="150" viewBox="0 0 150 150" fill="none" xmlns="http://www.w3.org/2000/svg">
<mask id="path-1-outside-1_105_1206" maskUnits="userSpaceOnUse" x="18" y="9" width="113" height="132" fill="black">
<rect fill="white" x="18" y="9" width="113" height="132"/>
<path fill-rule="evenodd" clip-rule="evenodd" d="M38.2557 58.4151L38.2772 58.4259C41.5883 60.2406 44.5866 61.1723 47.4608 62.0661C49.7797 62.7865 52.0122 63.4798 54.3311 64.5903C55.9974 65.392 57.0058 67.0225 56.9789 68.8805C56.9519 70.446 56.1916 76.9084 55.9759 78.5984C55.7332 80.4455 57.076 82.1031 58.9418 82.2331C59.9664 82.3036 60.7322 82.2115 61.5572 81.529C62.1719 81.0198 62.5979 80.2831 62.7004 79.4327C63.0185 76.8326 63.6009 70.9444 63.4931 68.4201C63.3637 65.3596 62.6357 63.1224 60.9477 61.2103C59.1844 59.2115 56.3316 57.4673 52.0174 55.4522C50.9389 55.008 50.308 54.0655 50.4482 52.9117L51.6616 43.9143C51.9366 42.0454 54.2554 41.3466 55.5173 42.7334C56.9248 44.2826 58.4023 45.626 59.9446 46.406C61.3521 47.1156 62.8513 47.3485 64.4582 46.8014L72.6873 43.3454C75.1086 42.3271 74.7796 38.9415 72.628 38.0207C71.9809 37.7444 71.2313 37.7065 70.5303 37.9774L65.5746 39.8949C63.396 40.7345 61.1365 40.1495 59.5671 38.4107C56.5849 35.1118 53.8078 32.0242 50.3726 31.775L39.7707 30.9462C37.0312 30.8595 34.0815 32.2462 31.1694 34.2885C28.1119 36.439 25.1081 39.3207 22.428 42.0346C20.6161 43.8654 22.0505 46.8719 24.4934 46.8448C25.1998 46.8394 25.9116 46.5577 26.451 46.0052L32.7334 39.5538C34.3296 37.9232 36.3626 36.7099 38.3579 37.8149C38.8756 38.102 39.1236 38.6762 39.0158 39.2287L36.1091 53.9848C35.9473 55.144 36.0714 55.9836 36.4219 56.6337C36.7886 57.3108 37.4198 57.8679 38.2557 58.4151ZM113.386 94.1509C116.373 90.8412 116.303 85.8522 113.321 82.4938H113.316L113.294 82.4667C110.156 78.9621 104.467 78.7237 100.924 82.2447C97.51 85.641 97.5478 91.2475 101.172 94.6927V94.6873C104.65 97.9265 109.989 97.7207 113.327 94.2052V94.2106L113.386 94.1509ZM118.223 88.3982C118.223 91.112 117.215 93.9343 115.241 96.0252H115.236C111.035 100.581 103.922 100.873 99.3707 96.6373L99.3761 96.6319C94.6306 92.2117 94.5766 84.7093 99.2305 80.2186C103.647 75.9502 110.679 76.0693 114.934 80.3595L115.263 80.7062C117.231 82.8675 118.223 85.7169 118.223 88.3982ZM115.419 104.893C114.54 105.348 113.661 105.711 112.717 106.02L111.563 110.467C111.407 111.079 110.846 111.48 110.242 111.458L103.749 111.464C103.135 111.464 102.622 111.041 102.477 110.473L101.317 106.025C100.39 105.727 99.4731 105.343 98.6049 104.904L94.6629 107.233C94.1344 107.542 93.4819 107.445 93.0721 107.033L88.4452 102.391C87.9976 101.941 87.9383 101.248 88.2672 100.733L90.5429 96.8221C90.0953 95.9392 89.7232 95.0454 89.4212 94.1029L84.9939 92.9491C84.3845 92.792 83.9855 92.2287 84.007 91.622L84.0016 85.1001C84.0016 84.4826 84.4223 83.9679 84.9885 83.8217L89.4158 82.6571C89.7124 81.7253 90.0953 80.8045 90.5321 79.9324L88.2132 75.9726C87.9058 75.4418 88.0029 74.7864 88.4181 74.3747L93.0397 69.727C93.4873 69.2774 94.1775 69.2178 94.6898 69.5482L96.8522 70.8212L96.8469 45.5843H88.5853V45.5788C87.5068 45.5788 86.8543 44.2896 87.5661 43.4175L106.144 20.7099C106.705 20.2441 107.535 20.3307 107.993 20.8887L126.317 43.3258C127.174 44.29 126.446 45.5793 125.373 45.5793H117.112V70.7954L119.344 69.4845C119.873 69.1758 120.525 69.2733 120.935 69.685L125.562 74.3273C126.009 74.7769 126.069 75.4702 125.74 75.9848L123.459 79.9012C123.912 80.7896 124.278 81.6725 124.58 82.6204L129.008 83.7796C129.617 83.9367 130.016 84.5001 129.995 85.1068L130 91.6287C130 92.2462 129.579 92.7608 129.013 92.9071L124.586 94.0717C124.289 95.0034 123.906 95.9242 123.47 96.7963L125.783 100.756C126.09 101.287 125.993 101.942 125.578 102.354L120.957 107.002C120.509 107.451 119.819 107.511 119.306 107.181L115.419 104.893ZM99.4893 71.3845L101.29 70.6912L102.439 66.244C102.595 65.6318 103.156 65.231 103.76 65.2527L110.253 65.2473C110.868 65.2473 111.38 65.6698 111.526 66.2385L112.685 70.6858L114.475 71.3683V44.2509C114.475 43.5197 115.069 42.9238 115.797 42.9238H122.591L106.979 23.8134L91.3724 42.9294H98.1672C98.8951 42.9294 99.4883 43.5252 99.4883 44.2565L99.483 71.3835L99.4893 71.3845ZM113.084 103.063C112.491 103.312 111.887 103.523 111.283 103.691C110.798 103.827 110.453 104.211 110.35 104.672L109.277 108.816L104.769 108.821L103.679 104.645C103.555 104.173 103.194 103.827 102.757 103.702C101.512 103.355 100.368 102.879 99.2251 102.234C98.7721 101.979 98.2329 102.023 97.8338 102.299L94.21 104.439L91.0175 101.243L93.1854 97.5214C93.4334 97.0989 93.4173 96.5951 93.1962 96.1997C92.5814 95.1055 92.0691 93.8704 91.7347 92.6624C91.5999 92.1749 91.2171 91.8282 90.7587 91.7253L86.6333 90.6473L86.6279 86.1243L90.7856 85.0301C91.2547 84.9055 91.5999 84.5425 91.7239 84.1038C92.069 82.8471 92.5436 81.7041 93.1853 80.5557C93.4388 80.1007 93.3956 79.559 93.1206 79.1582L90.9905 75.518C92.0528 74.4509 93.1098 73.3783 94.1721 72.3166L97.3915 74.2072C97.9631 74.5755 98.5239 74.8789 99.1927 74.4997C100.282 73.8822 101.512 73.3675 102.714 73.0317C103.199 72.8963 103.545 72.5117 103.647 72.0512L104.72 67.9073L109.223 67.9019L110.312 72.0783C110.436 72.5495 110.798 72.8962 111.234 73.0208C111.855 73.1942 112.459 73.4 113.046 73.6438C115.058 74.478 115.096 75.1388 116.546 74.1963L119.787 72.2895L122.974 75.4909L120.806 79.2123C120.553 79.6511 120.575 80.1765 120.828 80.5828C121.383 81.5253 121.96 83.0042 122.257 84.0712C122.392 84.5533 122.775 84.9 123.233 85.0084L127.359 86.0863L127.364 90.6094L123.206 91.7036C122.737 91.8282 122.392 92.1911 122.268 92.6299C121.923 93.8866 121.448 95.0296 120.807 96.1779C120.553 96.633 120.596 97.1747 120.871 97.5755L122.996 101.216L119.809 104.417L116.104 102.239C115.667 101.985 115.144 102.007 114.74 102.261C114.228 102.548 113.667 102.819 113.084 103.063ZM63.2407 120.792C67.2097 116.48 67.1557 110.077 63.203 105.51L63.1976 105.516C61.1537 103.208 58.053 101.968 55.1464 101.93C48.9018 101.849 43.8112 106.919 43.8166 113.181C43.822 119.47 48.9935 124.562 55.2598 124.41C58.2797 124.334 61.0675 123.1 63.2407 120.792ZM68.8168 113.225C68.8222 120.765 62.7932 126.87 55.3298 127.054C47.5914 127.238 41.2017 120.976 41.1906 113.181C41.1852 105.435 47.4731 99.1893 55.1794 99.2863C58.8086 99.3351 62.5942 100.873 65.1612 103.739L65.1558 103.744C67.5932 106.415 68.8168 109.92 68.8168 113.225ZM64.8639 132.275C63.7746 132.844 62.6746 133.305 61.5097 133.673L60.1292 139.003C59.9728 139.615 59.412 140.016 58.808 139.995L51.199 140C50.5843 140 50.072 139.577 49.9264 139.009L48.5351 133.684C47.3811 133.316 46.2378 132.844 45.1647 132.292L40.4353 135.082C39.9069 135.39 39.2544 135.293 38.8446 134.876L33.425 129.442C32.9774 128.993 32.9181 128.3 33.247 127.785L35.9811 123.083C35.4149 121.989 34.9565 120.879 34.5844 119.703L29.278 118.316C28.6687 118.159 28.2696 117.596 28.2912 116.989L28.2858 109.346C28.2858 108.728 28.7064 108.214 29.2726 108.068L34.5735 106.67C34.9402 105.511 35.4094 104.362 35.9594 103.284L33.1822 98.5338C32.8749 98.003 32.9719 97.3475 33.3818 96.9359L38.7906 91.4919C39.2382 91.0423 39.9285 90.9827 40.4407 91.3132L45.1215 94.0596C46.2108 93.4908 47.3163 93.0304 48.4865 92.6566L49.867 87.3263C50.0234 86.7142 50.5842 86.3134 51.1882 86.3351L58.7972 86.3296C59.4119 86.3296 59.9243 86.7522 60.0699 87.3209L61.4611 92.6457C62.6205 93.014 63.7638 93.4853 64.8369 94.0432L69.5663 91.2589C70.0947 90.9502 70.7472 91.0477 71.157 91.4594L76.5766 96.8979C77.0242 97.3475 77.0836 98.0409 76.7546 98.5555L74.0151 103.257C74.2955 103.804 74.5544 104.357 74.7863 104.915C75.0181 105.473 75.2285 106.047 75.4118 106.637L80.7182 108.024C81.3276 108.181 81.7266 108.745 81.7051 109.351L81.7105 116.994C81.7105 117.612 81.2898 118.127 80.7236 118.273L75.4227 119.665C75.056 120.824 74.5869 121.973 74.0314 123.051L76.8032 127.801C77.1106 128.332 77.0135 128.987 76.5983 129.399L71.1841 134.843C70.7365 135.293 70.0462 135.352 69.5339 135.022L64.8639 132.275ZM62.2107 130.607C61.5043 130.9 60.7925 131.149 60.0752 131.349C59.5899 131.485 59.2501 131.869 59.1423 132.33L57.8427 137.357L52.2182 137.362L50.897 132.303C50.773 131.831 50.4117 131.485 49.9748 131.36C48.4973 130.948 47.1383 130.385 45.7902 129.621C45.3373 129.367 44.798 129.41 44.399 129.686L39.9932 132.286L36.0135 128.294L38.6396 123.782C38.8877 123.359 38.8715 122.861 38.6504 122.46C37.917 121.16 37.313 119.703 36.9194 118.268C36.7845 117.78 36.4017 117.433 35.9433 117.33L30.9282 116.02L30.9228 110.37L35.9594 109.043C36.4286 108.918 36.7737 108.555 36.8978 108.116C37.3076 106.632 37.8684 105.267 38.6288 103.913C38.8822 103.458 38.8391 102.916 38.5641 102.515L35.9756 98.0898L39.95 94.0868L44.442 96.7247C44.8626 96.9739 45.3642 96.9577 45.7578 96.7356C47.0521 95.9989 48.5027 95.3922 49.9317 94.9968C50.4116 94.8614 50.7621 94.4767 50.8646 94.0163L52.1642 88.9894L57.7887 88.984L59.1099 94.0434C59.2339 94.5146 59.5952 94.8613 60.032 94.9859C61.515 95.3976 62.8686 95.9609 64.2222 96.7247C64.6751 96.9793 65.2144 96.936 65.6135 96.6597L70.0246 94.065L74.0043 98.0572L71.3728 102.569C71.1194 103.008 71.1409 103.534 71.3944 103.94L72.3543 105.939C72.6455 106.648 72.8935 107.363 73.0931 108.089C73.2279 108.571 73.6108 108.918 74.0691 109.026L79.0735 110.337L79.0789 115.987L74.0422 117.309C73.5731 117.433 73.2279 117.796 73.1039 118.235C72.694 119.719 72.1278 121.084 71.3729 122.439C71.1194 122.894 71.1626 123.435 71.4376 123.836L74.026 128.267L70.0517 132.265L65.5596 129.621C65.1228 129.367 64.5998 129.388 64.1953 129.643C63.5698 129.99 62.9064 130.315 62.2107 130.607ZM38.4245 61.4874C40.4899 62.5057 42.4258 63.2262 44.2917 63.8383C43.2671 67.8143 39.983 80.533 38.678 85.5377C38.5 86.2094 38.1387 86.7836 37.6534 87.1952C37.017 87.7369 36.4131 87.8778 35.5826 87.9536C33.3177 88.154 31.5921 86.0523 32.2122 83.8585L38.4245 61.4874ZM32.3686 73.4424C33.6197 68.9085 35.0001 63.9087 36.0734 60.106C33.9001 58.4485 33.1559 56.5418 33.5118 53.6166C33.5172 53.5787 33.5226 53.5408 33.528 53.4974L36.1434 40.2315C35.6958 40.4482 35.1889 40.8436 34.6226 41.4178L28.3348 47.8692C24.9375 51.3523 19.0325 48.8714 19.0002 44.0449C18.9894 42.5445 19.5179 41.2445 20.5694 40.1772C23.325 37.3876 26.4312 34.4082 29.6722 32.1277C33.0049 29.7822 36.4777 28.2005 39.8643 28.3088C39.9128 28.3088 39.9559 28.3088 40.0045 28.3143L50.5795 29.143C55.0608 29.4518 58.2693 33.0378 61.5859 36.6996C62.3786 37.5771 63.5542 37.8534 64.6434 37.4308L69.5992 35.5133C72.3333 34.457 75.407 35.7787 76.5395 38.4925C77.1596 39.9875 77.2082 41.4014 76.6257 42.8368C76.0973 44.1261 75.0834 45.2148 73.7083 45.7944L65.4846 49.2504C65.4414 49.2721 65.3929 49.2938 65.3444 49.31C60.89 50.843 57.153 48.2808 54.16 45.1498L53.1031 53.0368C57.7569 55.2036 60.8846 57.1428 62.9338 59.4612C66.3365 63.318 66.3582 67.7219 65.986 73.036C65.8242 75.3382 65.5708 77.8625 65.3389 79.7584C64.9614 82.8569 62.2381 85.1211 59.1374 84.9044C57.2878 84.7798 55.8802 84.2381 54.6615 82.743C53.6099 81.4538 53.1731 79.9208 53.3888 78.2632C53.5775 76.8223 54.3487 70.2191 54.3703 68.8486C54.381 68.0253 53.9604 67.3374 53.2216 66.9852C51.1347 65.983 49.0154 65.3222 46.826 64.6397C45.7637 68.762 42.5334 81.2526 41.2446 86.2101C40.6082 88.6531 38.5914 90.3649 36.0946 90.5815C34.9621 90.679 34.0832 90.6194 33.0532 90.186C30.3892 89.0648 28.8577 86.0747 29.6882 83.1387C30.4324 80.452 31.3548 77.115 32.3686 73.4424ZM49.7382 10.011C47.3331 9.89183 45.1059 10.7477 43.4342 12.2374C39.805 15.4766 39.476 21.1048 42.7062 24.7449C45.931 28.3905 51.5339 28.7209 55.1578 25.4762C56.8241 23.992 57.9296 21.8739 58.0968 19.4689C58.1021 19.4093 58.1075 19.3552 58.1075 19.2902V19.301C58.2262 16.885 57.3741 14.6478 55.8911 12.9687C54.4136 11.2949 52.305 10.1844 49.9161 10.0165C49.8568 10.0165 49.7975 10.011 49.7382 10.011ZM49.7382 12.6653C51.4099 12.7845 52.8821 13.5645 53.9174 14.7346C54.969 15.9209 55.5676 17.5134 55.4705 19.2252C55.1038 24.7991 48.293 27.0743 44.6745 22.9845C41.013 18.8459 44.2053 12.297 49.7382 12.6653Z"/>
</mask>
<path fill-rule="evenodd" clip-rule="evenodd" d="M38.2557 58.4151L38.2772 58.4259C41.5883 60.2406 44.5866 61.1723 47.4608 62.0661C49.7797 62.7865 52.0122 63.4798 54.3311 64.5903C55.9974 65.392 57.0058 67.0225 56.9789 68.8805C56.9519 70.446 56.1916 76.9084 55.9759 78.5984C55.7332 80.4455 57.076 82.1031 58.9418 82.2331C59.9664 82.3036 60.7322 82.2115 61.5572 81.529C62.1719 81.0198 62.5979 80.2831 62.7004 79.4327C63.0185 76.8326 63.6009 70.9444 63.4931 68.4201C63.3637 65.3596 62.6357 63.1224 60.9477 61.2103C59.1844 59.2115 56.3316 57.4673 52.0174 55.4522C50.9389 55.008 50.308 54.0655 50.4482 52.9117L51.6616 43.9143C51.9366 42.0454 54.2554 41.3466 55.5173 42.7334C56.9248 44.2826 58.4023 45.626 59.9446 46.406C61.3521 47.1156 62.8513 47.3485 64.4582 46.8014L72.6873 43.3454C75.1086 42.3271 74.7796 38.9415 72.628 38.0207C71.9809 37.7444 71.2313 37.7065 70.5303 37.9774L65.5746 39.8949C63.396 40.7345 61.1365 40.1495 59.5671 38.4107C56.5849 35.1118 53.8078 32.0242 50.3726 31.775L39.7707 30.9462C37.0312 30.8595 34.0815 32.2462 31.1694 34.2885C28.1119 36.439 25.1081 39.3207 22.428 42.0346C20.6161 43.8654 22.0505 46.8719 24.4934 46.8448C25.1998 46.8394 25.9116 46.5577 26.451 46.0052L32.7334 39.5538C34.3296 37.9232 36.3626 36.7099 38.3579 37.8149C38.8756 38.102 39.1236 38.6762 39.0158 39.2287L36.1091 53.9848C35.9473 55.144 36.0714 55.9836 36.4219 56.6337C36.7886 57.3108 37.4198 57.8679 38.2557 58.4151ZM113.386 94.1509C116.373 90.8412 116.303 85.8522 113.321 82.4938H113.316L113.294 82.4667C110.156 78.9621 104.467 78.7237 100.924 82.2447C97.51 85.641 97.5478 91.2475 101.172 94.6927V94.6873C104.65 97.9265 109.989 97.7207 113.327 94.2052V94.2106L113.386 94.1509ZM118.223 88.3982C118.223 91.112 117.215 93.9343 115.241 96.0252H115.236C111.035 100.581 103.922 100.873 99.3707 96.6373L99.3761 96.6319C94.6306 92.2117 94.5766 84.7093 99.2305 80.2186C103.647 75.9502 110.679 76.0693 114.934 80.3595L115.263 80.7062C117.231 82.8675 118.223 85.7169 118.223 88.3982ZM115.419 104.893C114.54 105.348 113.661 105.711 112.717 106.02L111.563 110.467C111.407 111.079 110.846 111.48 110.242 111.458L103.749 111.464C103.135 111.464 102.622 111.041 102.477 110.473L101.317 106.025C100.39 105.727 99.4731 105.343 98.6049 104.904L94.6629 107.233C94.1344 107.542 93.4819 107.445 93.0721 107.033L88.4452 102.391C87.9976 101.941 87.9383 101.248 88.2672 100.733L90.5429 96.8221C90.0953 95.9392 89.7232 95.0454 89.4212 94.1029L84.9939 92.9491C84.3845 92.792 83.9855 92.2287 84.007 91.622L84.0016 85.1001C84.0016 84.4826 84.4223 83.9679 84.9885 83.8217L89.4158 82.6571C89.7124 81.7253 90.0953 80.8045 90.5321 79.9324L88.2132 75.9726C87.9058 75.4418 88.0029 74.7864 88.4181 74.3747L93.0397 69.727C93.4873 69.2774 94.1775 69.2178 94.6898 69.5482L96.8522 70.8212L96.8469 45.5843H88.5853V45.5788C87.5068 45.5788 86.8543 44.2896 87.5661 43.4175L106.144 20.7099C106.705 20.2441 107.535 20.3307 107.993 20.8887L126.317 43.3258C127.174 44.29 126.446 45.5793 125.373 45.5793H117.112V70.7954L119.344 69.4845C119.873 69.1758 120.525 69.2733 120.935 69.685L125.562 74.3273C126.009 74.7769 126.069 75.4702 125.74 75.9848L123.459 79.9012C123.912 80.7896 124.278 81.6725 124.58 82.6204L129.008 83.7796C129.617 83.9367 130.016 84.5001 129.995 85.1068L130 91.6287C130 92.2462 129.579 92.7608 129.013 92.9071L124.586 94.0717C124.289 95.0034 123.906 95.9242 123.47 96.7963L125.783 100.756C126.09 101.287 125.993 101.942 125.578 102.354L120.957 107.002C120.509 107.451 119.819 107.511 119.306 107.181L115.419 104.893ZM99.4893 71.3845L101.29 70.6912L102.439 66.244C102.595 65.6318 103.156 65.231 103.76 65.2527L110.253 65.2473C110.868 65.2473 111.38 65.6698 111.526 66.2385L112.685 70.6858L114.475 71.3683V44.2509C114.475 43.5197 115.069 42.9238 115.797 42.9238H122.591L106.979 23.8134L91.3724 42.9294H98.1672C98.8951 42.9294 99.4883 43.5252 99.4883 44.2565L99.483 71.3835L99.4893 71.3845ZM113.084 103.063C112.491 103.312 111.887 103.523 111.283 103.691C110.798 103.827 110.453 104.211 110.35 104.672L109.277 108.816L104.769 108.821L103.679 104.645C103.555 104.173 103.194 103.827 102.757 103.702C101.512 103.355 100.368 102.879 99.2251 102.234C98.7721 101.979 98.2329 102.023 97.8338 102.299L94.21 104.439L91.0175 101.243L93.1854 97.5214C93.4334 97.0989 93.4173 96.5951 93.1962 96.1997C92.5814 95.1055 92.0691 93.8704 91.7347 92.6624C91.5999 92.1749 91.2171 91.8282 90.7587 91.7253L86.6333 90.6473L86.6279 86.1243L90.7856 85.0301C91.2547 84.9055 91.5999 84.5425 91.7239 84.1038C92.069 82.8471 92.5436 81.7041 93.1853 80.5557C93.4388 80.1007 93.3956 79.559 93.1206 79.1582L90.9905 75.518C92.0528 74.4509 93.1098 73.3783 94.1721 72.3166L97.3915 74.2072C97.9631 74.5755 98.5239 74.8789 99.1927 74.4997C100.282 73.8822 101.512 73.3675 102.714 73.0317C103.199 72.8963 103.545 72.5117 103.647 72.0512L104.72 67.9073L109.223 67.9019L110.312 72.0783C110.436 72.5495 110.798 72.8962 111.234 73.0208C111.855 73.1942 112.459 73.4 113.046 73.6438C115.058 74.478 115.096 75.1388 116.546 74.1963L119.787 72.2895L122.974 75.4909L120.806 79.2123C120.553 79.6511 120.575 80.1765 120.828 80.5828C121.383 81.5253 121.96 83.0042 122.257 84.0712C122.392 84.5533 122.775 84.9 123.233 85.0084L127.359 86.0863L127.364 90.6094L123.206 91.7036C122.737 91.8282 122.392 92.1911 122.268 92.6299C121.923 93.8866 121.448 95.0296 120.807 96.1779C120.553 96.633 120.596 97.1747 120.871 97.5755L122.996 101.216L119.809 104.417L116.104 102.239C115.667 101.985 115.144 102.007 114.74 102.261C114.228 102.548 113.667 102.819 113.084 103.063ZM63.2407 120.792C67.2097 116.48 67.1557 110.077 63.203 105.51L63.1976 105.516C61.1537 103.208 58.053 101.968 55.1464 101.93C48.9018 101.849 43.8112 106.919 43.8166 113.181C43.822 119.47 48.9935 124.562 55.2598 124.41C58.2797 124.334 61.0675 123.1 63.2407 120.792ZM68.8168 113.225C68.8222 120.765 62.7932 126.87 55.3298 127.054C47.5914 127.238 41.2017 120.976 41.1906 113.181C41.1852 105.435 47.4731 99.1893 55.1794 99.2863C58.8086 99.3351 62.5942 100.873 65.1612 103.739L65.1558 103.744C67.5932 106.415 68.8168 109.92 68.8168 113.225ZM64.8639 132.275C63.7746 132.844 62.6746 133.305 61.5097 133.673L60.1292 139.003C59.9728 139.615 59.412 140.016 58.808 139.995L51.199 140C50.5843 140 50.072 139.577 49.9264 139.009L48.5351 133.684C47.3811 133.316 46.2378 132.844 45.1647 132.292L40.4353 135.082C39.9069 135.39 39.2544 135.293 38.8446 134.876L33.425 129.442C32.9774 128.993 32.9181 128.3 33.247 127.785L35.9811 123.083C35.4149 121.989 34.9565 120.879 34.5844 119.703L29.278 118.316C28.6687 118.159 28.2696 117.596 28.2912 116.989L28.2858 109.346C28.2858 108.728 28.7064 108.214 29.2726 108.068L34.5735 106.67C34.9402 105.511 35.4094 104.362 35.9594 103.284L33.1822 98.5338C32.8749 98.003 32.9719 97.3475 33.3818 96.9359L38.7906 91.4919C39.2382 91.0423 39.9285 90.9827 40.4407 91.3132L45.1215 94.0596C46.2108 93.4908 47.3163 93.0304 48.4865 92.6566L49.867 87.3263C50.0234 86.7142 50.5842 86.3134 51.1882 86.3351L58.7972 86.3296C59.4119 86.3296 59.9243 86.7522 60.0699 87.3209L61.4611 92.6457C62.6205 93.014 63.7638 93.4853 64.8369 94.0432L69.5663 91.2589C70.0947 90.9502 70.7472 91.0477 71.157 91.4594L76.5766 96.8979C77.0242 97.3475 77.0836 98.0409 76.7546 98.5555L74.0151 103.257C74.2955 103.804 74.5544 104.357 74.7863 104.915C75.0181 105.473 75.2285 106.047 75.4118 106.637L80.7182 108.024C81.3276 108.181 81.7266 108.745 81.7051 109.351L81.7105 116.994C81.7105 117.612 81.2898 118.127 80.7236 118.273L75.4227 119.665C75.056 120.824 74.5869 121.973 74.0314 123.051L76.8032 127.801C77.1106 128.332 77.0135 128.987 76.5983 129.399L71.1841 134.843C70.7365 135.293 70.0462 135.352 69.5339 135.022L64.8639 132.275ZM62.2107 130.607C61.5043 130.9 60.7925 131.149 60.0752 131.349C59.5899 131.485 59.2501 131.869 59.1423 132.33L57.8427 137.357L52.2182 137.362L50.897 132.303C50.773 131.831 50.4117 131.485 49.9748 131.36C48.4973 130.948 47.1383 130.385 45.7902 129.621C45.3373 129.367 44.798 129.41 44.399 129.686L39.9932 132.286L36.0135 128.294L38.6396 123.782C38.8877 123.359 38.8715 122.861 38.6504 122.46C37.917 121.16 37.313 119.703 36.9194 118.268C36.7845 117.78 36.4017 117.433 35.9433 117.33L30.9282 116.02L30.9228 110.37L35.9594 109.043C36.4286 108.918 36.7737 108.555 36.8978 108.116C37.3076 106.632 37.8684 105.267 38.6288 103.913C38.8822 103.458 38.8391 102.916 38.5641 102.515L35.9756 98.0898L39.95 94.0868L44.442 96.7247C44.8626 96.9739 45.3642 96.9577 45.7578 96.7356C47.0521 95.9989 48.5027 95.3922 49.9317 94.9968C50.4116 94.8614 50.7621 94.4767 50.8646 94.0163L52.1642 88.9894L57.7887 88.984L59.1099 94.0434C59.2339 94.5146 59.5952 94.8613 60.032 94.9859C61.515 95.3976 62.8686 95.9609 64.2222 96.7247C64.6751 96.9793 65.2144 96.936 65.6135 96.6597L70.0246 94.065L74.0043 98.0572L71.3728 102.569C71.1194 103.008 71.1409 103.534 71.3944 103.94L72.3543 105.939C72.6455 106.648 72.8935 107.363 73.0931 108.089C73.2279 108.571 73.6108 108.918 74.0691 109.026L79.0735 110.337L79.0789 115.987L74.0422 117.309C73.5731 117.433 73.2279 117.796 73.1039 118.235C72.694 119.719 72.1278 121.084 71.3729 122.439C71.1194 122.894 71.1626 123.435 71.4376 123.836L74.026 128.267L70.0517 132.265L65.5596 129.621C65.1228 129.367 64.5998 129.388 64.1953 129.643C63.5698 129.99 62.9064 130.315 62.2107 130.607ZM38.4245 61.4874C40.4899 62.5057 42.4258 63.2262 44.2917 63.8383C43.2671 67.8143 39.983 80.533 38.678 85.5377C38.5 86.2094 38.1387 86.7836 37.6534 87.1952C37.017 87.7369 36.4131 87.8778 35.5826 87.9536C33.3177 88.154 31.5921 86.0523 32.2122 83.8585L38.4245 61.4874ZM32.3686 73.4424C33.6197 68.9085 35.0001 63.9087 36.0734 60.106C33.9001 58.4485 33.1559 56.5418 33.5118 53.6166C33.5172 53.5787 33.5226 53.5408 33.528 53.4974L36.1434 40.2315C35.6958 40.4482 35.1889 40.8436 34.6226 41.4178L28.3348 47.8692C24.9375 51.3523 19.0325 48.8714 19.0002 44.0449C18.9894 42.5445 19.5179 41.2445 20.5694 40.1772C23.325 37.3876 26.4312 34.4082 29.6722 32.1277C33.0049 29.7822 36.4777 28.2005 39.8643 28.3088C39.9128 28.3088 39.9559 28.3088 40.0045 28.3143L50.5795 29.143C55.0608 29.4518 58.2693 33.0378 61.5859 36.6996C62.3786 37.5771 63.5542 37.8534 64.6434 37.4308L69.5992 35.5133C72.3333 34.457 75.407 35.7787 76.5395 38.4925C77.1596 39.9875 77.2082 41.4014 76.6257 42.8368C76.0973 44.1261 75.0834 45.2148 73.7083 45.7944L65.4846 49.2504C65.4414 49.2721 65.3929 49.2938 65.3444 49.31C60.89 50.843 57.153 48.2808 54.16 45.1498L53.1031 53.0368C57.7569 55.2036 60.8846 57.1428 62.9338 59.4612C66.3365 63.318 66.3582 67.7219 65.986 73.036C65.8242 75.3382 65.5708 77.8625 65.3389 79.7584C64.9614 82.8569 62.2381 85.1211 59.1374 84.9044C57.2878 84.7798 55.8802 84.2381 54.6615 82.743C53.6099 81.4538 53.1731 79.9208 53.3888 78.2632C53.5775 76.8223 54.3487 70.2191 54.3703 68.8486C54.381 68.0253 53.9604 67.3374 53.2216 66.9852C51.1347 65.983 49.0154 65.3222 46.826 64.6397C45.7637 68.762 42.5334 81.2526 41.2446 86.2101C40.6082 88.6531 38.5914 90.3649 36.0946 90.5815C34.9621 90.679 34.0832 90.6194 33.0532 90.186C30.3892 89.0648 28.8577 86.0747 29.6882 83.1387C30.4324 80.452 31.3548 77.115 32.3686 73.4424ZM49.7382 10.011C47.3331 9.89183 45.1059 10.7477 43.4342 12.2374C39.805 15.4766 39.476 21.1048 42.7062 24.7449C45.931 28.3905 51.5339 28.7209 55.1578 25.4762C56.8241 23.992 57.9296 21.8739 58.0968 19.4689C58.1021 19.4093 58.1075 19.3552 58.1075 19.2902V19.301C58.2262 16.885 57.3741 14.6478 55.8911 12.9687C54.4136 11.2949 52.305 10.1844 49.9161 10.0165C49.8568 10.0165 49.7975 10.011 49.7382 10.011ZM49.7382 12.6653C51.4099 12.7845 52.8821 13.5645 53.9174 14.7346C54.969 15.9209 55.5676 17.5134 55.4705 19.2252C55.1038 24.7991 48.293 27.0743 44.6745 22.9845C41.013 18.8459 44.2053 12.297 49.7382 12.6653Z" fill="#663366"/>
<path fill-rule="evenodd" clip-rule="evenodd" d="M38.2557 58.4151L38.2772 58.4259C41.5883 60.2406 44.5866 61.1723 47.4608 62.0661C49.7797 62.7865 52.0122 63.4798 54.3311 64.5903C55.9974 65.392 57.0058 67.0225 56.9789 68.8805C56.9519 70.446 56.1916 76.9084 55.9759 78.5984C55.7332 80.4455 57.076 82.1031 58.9418 82.2331C59.9664 82.3036 60.7322 82.2115 61.5572 81.529C62.1719 81.0198 62.5979 80.2831 62.7004 79.4327C63.0185 76.8326 63.6009 70.9444 63.4931 68.4201C63.3637 65.3596 62.6357 63.1224 60.9477 61.2103C59.1844 59.2115 56.3316 57.4673 52.0174 55.4522C50.9389 55.008 50.308 54.0655 50.4482 52.9117L51.6616 43.9143C51.9366 42.0454 54.2554 41.3466 55.5173 42.7334C56.9248 44.2826 58.4023 45.626 59.9446 46.406C61.3521 47.1156 62.8513 47.3485 64.4582 46.8014L72.6873 43.3454C75.1086 42.3271 74.7796 38.9415 72.628 38.0207C71.9809 37.7444 71.2313 37.7065 70.5303 37.9774L65.5746 39.8949C63.396 40.7345 61.1365 40.1495 59.5671 38.4107C56.5849 35.1118 53.8078 32.0242 50.3726 31.775L39.7707 30.9462C37.0312 30.8595 34.0815 32.2462 31.1694 34.2885C28.1119 36.439 25.1081 39.3207 22.428 42.0346C20.6161 43.8654 22.0505 46.8719 24.4934 46.8448C25.1998 46.8394 25.9116 46.5577 26.451 46.0052L32.7334 39.5538C34.3296 37.9232 36.3626 36.7099 38.3579 37.8149C38.8756 38.102 39.1236 38.6762 39.0158 39.2287L36.1091 53.9848C35.9473 55.144 36.0714 55.9836 36.4219 56.6337C36.7886 57.3108 37.4198 57.8679 38.2557 58.4151ZM113.386 94.1509C116.373 90.8412 116.303 85.8522 113.321 82.4938H113.316L113.294 82.4667C110.156 78.9621 104.467 78.7237 100.924 82.2447C97.51 85.641 97.5478 91.2475 101.172 94.6927V94.6873C104.65 97.9265 109.989 97.7207 113.327 94.2052V94.2106L113.386 94.1509ZM118.223 88.3982C118.223 91.112 117.215 93.9343 115.241 96.0252H115.236C111.035 100.581 103.922 100.873 99.3707 96.6373L99.3761 96.6319C94.6306 92.2117 94.5766 84.7093 99.2305 80.2186C103.647 75.9502 110.679 76.0693 114.934 80.3595L115.263 80.7062C117.231 82.8675 118.223 85.7169 118.223 88.3982ZM115.419 104.893C114.54 105.348 113.661 105.711 112.717 106.02L111.563 110.467C111.407 111.079 110.846 111.48 110.242 111.458L103.749 111.464C103.135 111.464 102.622 111.041 102.477 110.473L101.317 106.025C100.39 105.727 99.4731 105.343 98.6049 104.904L94.6629 107.233C94.1344 107.542 93.4819 107.445 93.0721 107.033L88.4452 102.391C87.9976 101.941 87.9383 101.248 88.2672 100.733L90.5429 96.8221C90.0953 95.9392 89.7232 95.0454 89.4212 94.1029L84.9939 92.9491C84.3845 92.792 83.9855 92.2287 84.007 91.622L84.0016 85.1001C84.0016 84.4826 84.4223 83.9679 84.9885 83.8217L89.4158 82.6571C89.7124 81.7253 90.0953 80.8045 90.5321 79.9324L88.2132 75.9726C87.9058 75.4418 88.0029 74.7864 88.4181 74.3747L93.0397 69.727C93.4873 69.2774 94.1775 69.2178 94.6898 69.5482L96.8522 70.8212L96.8469 45.5843H88.5853V45.5788C87.5068 45.5788 86.8543 44.2896 87.5661 43.4175L106.144 20.7099C106.705 20.2441 107.535 20.3307 107.993 20.8887L126.317 43.3258C127.174 44.29 126.446 45.5793 125.373 45.5793H117.112V70.7954L119.344 69.4845C119.873 69.1758 120.525 69.2733 120.935 69.685L125.562 74.3273C126.009 74.7769 126.069 75.4702 125.74 75.9848L123.459 79.9012C123.912 80.7896 124.278 81.6725 124.58 82.6204L129.008 83.7796C129.617 83.9367 130.016 84.5001 129.995 85.1068L130 91.6287C130 92.2462 129.579 92.7608 129.013 92.9071L124.586 94.0717C124.289 95.0034 123.906 95.9242 123.47 96.7963L125.783 100.756C126.09 101.287 125.993 101.942 125.578 102.354L120.957 107.002C120.509 107.451 119.819 107.511 119.306 107.181L115.419 104.893ZM99.4893 71.3845L101.29 70.6912L102.439 66.244C102.595 65.6318 103.156 65.231 103.76 65.2527L110.253 65.2473C110.868 65.2473 111.38 65.6698 111.526 66.2385L112.685 70.6858L114.475 71.3683V44.2509C114.475 43.5197 115.069 42.9238 115.797 42.9238H122.591L106.979 23.8134L91.3724 42.9294H98.1672C98.8951 42.9294 99.4883 43.5252 99.4883 44.2565L99.483 71.3835L99.4893 71.3845ZM113.084 103.063C112.491 103.312 111.887 103.523 111.283 103.691C110.798 103.827 110.453 104.211 110.35 104.672L109.277 108.816L104.769 108.821L103.679 104.645C103.555 104.173 103.194 103.827 102.757 103.702C101.512 103.355 100.368 102.879 99.2251 102.234C98.7721 101.979 98.2329 102.023 97.8338 102.299L94.21 104.439L91.0175 101.243L93.1854 97.5214C93.4334 97.0989 93.4173 96.5951 93.1962 96.1997C92.5814 95.1055 92.0691 93.8704 91.7347 92.6624C91.5999 92.1749 91.2171 91.8282 90.7587 91.7253L86.6333 90.6473L86.6279 86.1243L90.7856 85.0301C91.2547 84.9055 91.5999 84.5425 91.7239 84.1038C92.069 82.8471 92.5436 81.7041 93.1853 80.5557C93.4388 80.1007 93.3956 79.559 93.1206 79.1582L90.9905 75.518C92.0528 74.4509 93.1098 73.3783 94.1721 72.3166L97.3915 74.2072C97.9631 74.5755 98.5239 74.8789 99.1927 74.4997C100.282 73.8822 101.512 73.3675 102.714 73.0317C103.199 72.8963 103.545 72.5117 103.647 72.0512L104.72 67.9073L109.223 67.9019L110.312 72.0783C110.436 72.5495 110.798 72.8962 111.234 73.0208C111.855 73.1942 112.459 73.4 113.046 73.6438C115.058 74.478 115.096 75.1388 116.546 74.1963L119.787 72.2895L122.974 75.4909L120.806 79.2123C120.553 79.6511 120.575 80.1765 120.828 80.5828C121.383 81.5253 121.96 83.0042 122.257 84.0712C122.392 84.5533 122.775 84.9 123.233 85.0084L127.359 86.0863L127.364 90.6094L123.206 91.7036C122.737 91.8282 122.392 92.1911 122.268 92.6299C121.923 93.8866 121.448 95.0296 120.807 96.1779C120.553 96.633 120.596 97.1747 120.871 97.5755L122.996 101.216L119.809 104.417L116.104 102.239C115.667 101.985 115.144 102.007 114.74 102.261C114.228 102.548 113.667 102.819 113.084 103.063ZM63.2407 120.792C67.2097 116.48 67.1557 110.077 63.203 105.51L63.1976 105.516C61.1537 103.208 58.053 101.968 55.1464 101.93C48.9018 101.849 43.8112 106.919 43.8166 113.181C43.822 119.47 48.9935 124.562 55.2598 124.41C58.2797 124.334 61.0675 123.1 63.2407 120.792ZM68.8168 113.225C68.8222 120.765 62.7932 126.87 55.3298 127.054C47.5914 127.238 41.2017 120.976 41.1906 113.181C41.1852 105.435 47.4731 99.1893 55.1794 99.2863C58.8086 99.3351 62.5942 100.873 65.1612 103.739L65.1558 103.744C67.5932 106.415 68.8168 109.92 68.8168 113.225ZM64.8639 132.275C63.7746 132.844 62.6746 133.305 61.5097 133.673L60.1292 139.003C59.9728 139.615 59.412 140.016 58.808 139.995L51.199 140C50.5843 140 50.072 139.577 49.9264 139.009L48.5351 133.684C47.3811 133.316 46.2378 132.844 45.1647 132.292L40.4353 135.082C39.9069 135.39 39.2544 135.293 38.8446 134.876L33.425 129.442C32.9774 128.993 32.9181 128.3 33.247 127.785L35.9811 123.083C35.4149 121.989 34.9565 120.879 34.5844 119.703L29.278 118.316C28.6687 118.159 28.2696 117.596 28.2912 116.989L28.2858 109.346C28.2858 108.728 28.7064 108.214 29.2726 108.068L34.5735 106.67C34.9402 105.511 35.4094 104.362 35.9594 103.284L33.1822 98.5338C32.8749 98.003 32.9719 97.3475 33.3818 96.9359L38.7906 91.4919C39.2382 91.0423 39.9285 90.9827 40.4407 91.3132L45.1215 94.0596C46.2108 93.4908 47.3163 93.0304 48.4865 92.6566L49.867 87.3263C50.0234 86.7142 50.5842 86.3134 51.1882 86.3351L58.7972 86.3296C59.4119 86.3296 59.9243 86.7522 60.0699 87.3209L61.4611 92.6457C62.6205 93.014 63.7638 93.4853 64.8369 94.0432L69.5663 91.2589C70.0947 90.9502 70.7472 91.0477 71.157 91.4594L76.5766 96.8979C77.0242 97.3475 77.0836 98.0409 76.7546 98.5555L74.0151 103.257C74.2955 103.804 74.5544 104.357 74.7863 104.915C75.0181 105.473 75.2285 106.047 75.4118 106.637L80.7182 108.024C81.3276 108.181 81.7266 108.745 81.7051 109.351L81.7105 116.994C81.7105 117.612 81.2898 118.127 80.7236 118.273L75.4227 119.665C75.056 120.824 74.5869 121.973 74.0314 123.051L76.8032 127.801C77.1106 128.332 77.0135 128.987 76.5983 129.399L71.1841 134.843C70.7365 135.293 70.0462 135.352 69.5339 135.022L64.8639 132.275ZM62.2107 130.607C61.5043 130.9 60.7925 131.149 60.0752 131.349C59.5899 131.485 59.2501 131.869 59.1423 132.33L57.8427 137.357L52.2182 137.362L50.897 132.303C50.773 131.831 50.4117 131.485 49.9748 131.36C48.4973 130.948 47.1383 130.385 45.7902 129.621C45.3373 129.367 44.798 129.41 44.399 129.686L39.9932 132.286L36.0135 128.294L38.6396 123.782C38.8877 123.359 38.8715 122.861 38.6504 122.46C37.917 121.16 37.313 119.703 36.9194 118.268C36.7845 117.78 36.4017 117.433 35.9433 117.33L30.9282 116.02L30.9228 110.37L35.9594 109.043C36.4286 108.918 36.7737 108.555 36.8978 108.116C37.3076 106.632 37.8684 105.267 38.6288 103.913C38.8822 103.458 38.8391 102.916 38.5641 102.515L35.9756 98.0898L39.95 94.0868L44.442 96.7247C44.8626 96.9739 45.3642 96.9577 45.7578 96.7356C47.0521 95.9989 48.5027 95.3922 49.9317 94.9968C50.4116 94.8614 50.7621 94.4767 50.8646 94.0163L52.1642 88.9894L57.7887 88.984L59.1099 94.0434C59.2339 94.5146 59.5952 94.8613 60.032 94.9859C61.515 95.3976 62.8686 95.9609 64.2222 96.7247C64.6751 96.9793 65.2144 96.936 65.6135 96.6597L70.0246 94.065L74.0043 98.0572L71.3728 102.569C71.1194 103.008 71.1409 103.534 71.3944 103.94L72.3543 105.939C72.6455 106.648 72.8935 107.363 73.0931 108.089C73.2279 108.571 73.6108 108.918 74.0691 109.026L79.0735 110.337L79.0789 115.987L74.0422 117.309C73.5731 117.433 73.2279 117.796 73.1039 118.235C72.694 119.719 72.1278 121.084 71.3729 122.439C71.1194 122.894 71.1626 123.435 71.4376 123.836L74.026 128.267L70.0517 132.265L65.5596 129.621C65.1228 129.367 64.5998 129.388 64.1953 129.643C63.5698 129.99 62.9064 130.315 62.2107 130.607ZM38.4245 61.4874C40.4899 62.5057 42.4258 63.2262 44.2917 63.8383C43.2671 67.8143 39.983 80.533 38.678 85.5377C38.5 86.2094 38.1387 86.7836 37.6534 87.1952C37.017 87.7369 36.4131 87.8778 35.5826 87.9536C33.3177 88.154 31.5921 86.0523 32.2122 83.8585L38.4245 61.4874ZM32.3686 73.4424C33.6197 68.9085 35.0001 63.9087 36.0734 60.106C33.9001 58.4485 33.1559 56.5418 33.5118 53.6166C33.5172 53.5787 33.5226 53.5408 33.528 53.4974L36.1434 40.2315C35.6958 40.4482 35.1889 40.8436 34.6226 41.4178L28.3348 47.8692C24.9375 51.3523 19.0325 48.8714 19.0002 44.0449C18.9894 42.5445 19.5179 41.2445 20.5694 40.1772C23.325 37.3876 26.4312 34.4082 29.6722 32.1277C33.0049 29.7822 36.4777 28.2005 39.8643 28.3088C39.9128 28.3088 39.9559 28.3088 40.0045 28.3143L50.5795 29.143C55.0608 29.4518 58.2693 33.0378 61.5859 36.6996C62.3786 37.5771 63.5542 37.8534 64.6434 37.4308L69.5992 35.5133C72.3333 34.457 75.407 35.7787 76.5395 38.4925C77.1596 39.9875 77.2082 41.4014 76.6257 42.8368C76.0973 44.1261 75.0834 45.2148 73.7083 45.7944L65.4846 49.2504C65.4414 49.2721 65.3929 49.2938 65.3444 49.31C60.89 50.843 57.153 48.2808 54.16 45.1498L53.1031 53.0368C57.7569 55.2036 60.8846 57.1428 62.9338 59.4612C66.3365 63.318 66.3582 67.7219 65.986 73.036C65.8242 75.3382 65.5708 77.8625 65.3389 79.7584C64.9614 82.8569 62.2381 85.1211 59.1374 84.9044C57.2878 84.7798 55.8802 84.2381 54.6615 82.743C53.6099 81.4538 53.1731 79.9208 53.3888 78.2632C53.5775 76.8223 54.3487 70.2191 54.3703 68.8486C54.381 68.0253 53.9604 67.3374 53.2216 66.9852C51.1347 65.983 49.0154 65.3222 46.826 64.6397C45.7637 68.762 42.5334 81.2526 41.2446 86.2101C40.6082 88.6531 38.5914 90.3649 36.0946 90.5815C34.9621 90.679 34.0832 90.6194 33.0532 90.186C30.3892 89.0648 28.8577 86.0747 29.6882 83.1387C30.4324 80.452 31.3548 77.115 32.3686 73.4424ZM49.7382 10.011C47.3331 9.89183 45.1059 10.7477 43.4342 12.2374C39.805 15.4766 39.476 21.1048 42.7062 24.7449C45.931 28.3905 51.5339 28.7209 55.1578 25.4762C56.8241 23.992 57.9296 21.8739 58.0968 19.4689C58.1021 19.4093 58.1075 19.3552 58.1075 19.2902V19.301C58.2262 16.885 57.3741 14.6478 55.8911 12.9687C54.4136 11.2949 52.305 10.1844 49.9161 10.0165C49.8568 10.0165 49.7975 10.011 49.7382 10.011ZM49.7382 12.6653C51.4099 12.7845 52.8821 13.5645 53.9174 14.7346C54.969 15.9209 55.5676 17.5134 55.4705 19.2252C55.1038 24.7991 48.293 27.0743 44.6745 22.9845C41.013 18.8459 44.2053 12.297 49.7382 12.6653Z" stroke="#663366" stroke-width="0.5" mask="url(#path-1-outside-1_105_1206)"/>
</svg>
