<svg width="150" height="150" viewBox="0 0 150 150" fill="none" xmlns="http://www.w3.org/2000/svg">
<mask id="path-1-outside-1_104_1017" maskUnits="userSpaceOnUse" x="6" y="13" width="138" height="123" fill="black">
<rect fill="white" x="6" y="13" width="138" height="123"/>
<path d="M74.1615 15.0342C76.9063 14.793 79.905 15.8518 82.1007 17.4575C84.3556 19.0985 86.5278 22.0924 86.9351 24.8922C87.2952 27.3332 87.3188 29.9389 86.4038 32.2797L86.3684 32.368C86.7875 32.8738 87.7379 33.3385 88.2927 33.7326L94.4433 38.144L115.392 53.1604L121.348 57.4071C122.658 58.3305 124.051 59.2069 125.291 60.2245C125.421 60.3304 125.751 60.1598 125.917 60.1069C127.67 59.5481 129.718 59.2658 131.548 59.5187C135.202 60.0245 138.265 61.6832 140.496 64.6417C142.397 67.1592 143.389 70.9177 142.858 74.0527C142.273 77.5172 140.467 80.3992 137.616 82.4696C134.842 84.493 131.459 85.1576 128.095 84.6106L128.018 84.5988L110.374 112.743C110.923 113.178 111.454 113.808 111.903 114.349C113.267 116.002 114.223 117.79 114.683 119.895C114.783 120.348 114.807 120.825 114.866 121.289C115.014 122.407 114.884 123.483 114.76 124.589C114.577 126.218 113.88 127.836 113.001 129.206C111.313 131.853 108.462 134.035 105.345 134.706C102.039 135.417 98.4445 134.835 95.5935 132.994C92.4533 130.971 90.7474 128.059 89.9801 124.483L75.4533 124.471C73.7474 124.477 56.0809 124.454 56.0567 124.471C56.0272 124.495 55.8855 125.177 55.8619 125.265C55.679 125.954 55.4782 126.636 55.2008 127.295C54.3862 129.23 53.1525 130.894 51.5116 132.224C48.9557 134.3 45.7741 135.229 42.504 134.888C39.2694 134.553 36.0818 132.829 34.0394 130.288C31.7963 127.489 30.9936 124.171 31.4303 120.648C31.8671 117.166 33.7914 114.437 36.495 112.313L21.3189 84.722C19.4713 84.8573 17.5117 84.6632 15.7526 84.075C12.6006 83.0281 9.79669 80.7164 8.32094 77.7403C6.83934 74.7582 6.57969 71.2174 7.66574 68.0705C8.80498 64.7708 11.1602 62.2063 14.3063 60.6769C16.6497 59.5476 19.4831 59.2006 22.039 59.6535C22.8949 59.8064 23.7036 60.077 24.5299 60.3534L62.9392 32.4789C62.585 31.4496 62.2663 30.4026 62.1483 29.3144C61.7469 25.7206 62.7444 22.2738 65.0524 19.4681C67.3663 16.6566 70.607 15.3684 74.1604 15.0332L74.1615 15.0342ZM85.4595 33.945C83.7654 36.8389 81.0383 38.968 77.78 39.8328C74.6102 40.668 71.0509 40.1386 68.2353 38.4741C66.8953 37.68 65.7385 36.5801 64.7644 35.3743L63.7905 34.0509L26.2908 61.2539C29.1123 62.9889 31.3199 65.777 32.0992 69.0239C32.4888 70.6531 32.6186 72.6707 32.2526 74.3116L32.2172 74.4998C31.6151 77.7289 29.626 80.7287 26.8812 82.5522C25.677 83.3521 24.3725 83.952 22.9972 84.405L37.9548 111.385C39.094 110.915 40.2214 110.473 41.4374 110.232C43.7632 109.756 46.3485 110.044 48.5443 110.95C48.9516 111.115 49.3648 111.303 49.7485 111.526C49.9078 111.62 50.1912 111.844 50.3623 111.862L60.1492 96.857L62.469 93.275C62.7937 92.7809 63.3308 92.1457 63.5138 91.6104C59.7066 89.0635 56.7492 84.6756 55.8756 80.1996C54.9017 75.2176 55.9406 70.277 58.7975 66.0949C59.7538 64.7009 60.9165 63.4892 62.1739 62.3657C66.1406 59.1543 71.0517 57.6014 76.1635 58.1367C80.8857 58.6366 85.354 61.154 88.3173 64.8478C90.0764 67.0358 91.6347 70.0121 92.048 72.8119L92.2604 74.1C92.4552 75.1705 92.4493 76.4234 92.3785 77.5115C92.1483 81.1583 90.9618 84.4462 88.8487 87.4401C87.5501 89.2753 85.797 90.681 83.9908 91.9926L92.7623 105.533L95.265 109.297C95.69 109.938 96.18 110.579 96.5164 111.273C97.9154 110.773 99.3792 110.279 100.861 110.073C103.074 109.762 105.495 110.126 107.513 111.079L108.948 111.809L126.313 84.2232C125.54 83.8644 124.749 83.5232 124.017 83.088C121.502 81.5822 119.466 79.3353 118.433 76.5826C117.199 73.2888 117.453 69.5597 118.935 66.3836C119.962 64.1719 121.603 62.431 123.728 61.2428L85.4595 33.945ZM65.0248 92.3984L51.6669 112.874C53.4022 114.385 54.813 116.32 55.5509 118.514C55.8814 119.508 56.029 120.514 56.1352 121.555C56.153 121.714 56.2061 122.726 56.2651 122.79C56.2828 122.814 56.3241 122.79 56.3536 122.79L58.2366 122.796L83.7064 122.808L89.8335 122.779C89.9515 119.138 91.138 115.95 93.8414 113.415L95.1518 112.344L82.5081 92.7814C81.5695 93.3754 80.5012 93.6931 79.4268 93.9695C76.316 94.7694 73.099 94.9047 69.9529 94.2107C68.182 93.8225 66.6303 93.2394 65.0248 92.3984ZM73.2414 59.725C68.4601 60.1838 64.2574 62.0719 61.1584 65.8128C58.5494 68.9536 56.8672 73.4533 57.2862 77.5589C57.6109 80.7762 58.5671 83.8231 60.6095 86.3876C62.2091 84.0172 64.1098 81.9703 66.6303 80.5586C67.6456 79.994 68.7022 79.5764 69.7764 79.1411L69.6879 79.0705C68.3362 78.0235 67.132 76.6178 66.5477 75.0003C65.863 73.1122 65.9397 70.9065 66.7838 69.0773C67.6928 67.101 69.4046 65.7069 71.4351 64.9775C72.5094 64.5893 73.69 64.4776 74.8233 64.5776C76.8716 64.7658 78.7959 65.7246 80.1122 67.3126C81.098 68.5125 81.5112 69.7419 81.8772 71.2183C82.1015 72.1182 82.0425 73.4769 81.8477 74.3886C81.3991 76.4943 80.13 77.9413 78.4654 79.2293C79.3921 79.5646 80.2952 79.8999 81.1511 80.3881C83.7483 81.8762 85.6312 84.1348 87.4906 86.4111C89.8753 83.1114 91.3037 78.5117 90.6249 74.4298C89.8281 69.6891 87.5319 65.5717 83.5534 62.7661C81.0684 61.0073 77.8809 59.8545 74.8233 59.7428C74.3038 59.7252 73.755 59.6721 73.2414 59.725ZM19.1604 61.1719C15.8666 61.5895 13.0509 62.8542 10.9673 65.5186C9.39708 67.5243 8.31104 70.4712 8.66525 73.0298C9.11386 76.2647 10.6427 78.9469 13.293 80.888C15.3885 82.4172 17.8381 83.1055 20.4236 83.0466L22.3479 82.7349C24.9688 82.1997 27.5541 80.2528 28.9943 78.0412C30.5349 75.6708 31.1607 72.6298 30.5526 69.8595C29.9092 66.9597 28.0853 64.407 25.5647 62.8365C24.0536 61.9013 22.0998 61.2073 20.3171 61.1484C19.9452 61.1308 19.5204 61.1014 19.1604 61.1719ZM129.949 61.1778C126.661 61.5307 123.922 62.5189 121.791 65.1774C119.961 67.4595 119.117 70.4534 119.454 73.3532C119.778 76.1354 121.248 78.9115 123.456 80.6526C125.634 82.3642 128.237 83.1525 130.982 83.0701C134.399 82.5937 137.174 81.2056 139.269 78.3881C140.869 76.2412 141.53 73.2532 141.123 70.6359C140.686 67.8361 139.14 65.1011 136.808 63.4366C134.937 62.1014 132.298 61.0307 129.949 61.1778ZM73.7658 16.7821C70.8321 17.1056 68.0873 18.4526 66.2397 20.77C64.5397 22.9051 63.4596 25.8284 63.7841 28.5811C64.1501 31.6691 65.5668 34.2807 68.0459 36.204C70.2417 37.8979 72.8331 38.6038 75.5779 38.4509C78.6533 38.0097 81.3331 36.7393 83.2161 34.2159C84.9397 31.9103 85.8664 28.9988 85.4415 26.1166C85.0401 23.4227 83.588 20.623 81.3568 18.9936C79.1905 17.4055 76.4574 16.5117 73.7658 16.7821ZM101.821 111.728C98.5214 112.222 95.6409 113.451 93.6103 116.204C91.9515 118.445 91.255 121.368 91.686 124.121C92.1228 126.891 93.7343 129.602 96.0246 131.232C98.1732 132.761 100.523 133.373 103.143 133.308C106.384 132.838 109.123 131.614 111.124 128.932C112.83 126.65 113.52 123.644 113.083 120.845C112.635 117.951 110.982 115.339 108.591 113.639C106.744 112.328 104.129 111.522 101.85 111.722L101.821 111.728ZM43.2308 111.733C40.1909 112.051 37.4165 113.263 35.451 115.663C33.6093 117.909 32.6885 120.862 33.0367 123.762L33.1725 124.503C33.261 125.121 33.4558 125.72 33.6624 126.309C34.5773 128.873 36.7318 131.032 39.1696 132.185C40.8461 132.984 42.4693 133.184 44.2991 133.179C46.8903 133.161 49.6589 131.826 51.4592 130.008C53.2301 128.22 54.0565 126.114 54.4282 123.674C54.8355 121.003 53.8379 118.015 52.2324 115.886C50.556 113.663 48.0415 112.245 45.2848 111.874C44.6296 111.786 43.8919 111.675 43.2308 111.733ZM73.4877 80.2827C69.7571 80.6121 66.0031 82.3766 63.5711 85.2529L61.7707 87.7645C62.4968 88.4762 63.2228 89.1702 64.0492 89.7584C67.1068 91.9347 70.8963 93.0051 74.6387 92.9699H74.8985C79.2075 92.7817 83.2863 91.076 86.2318 87.9115C86.2967 87.835 86.279 87.8585 86.338 87.7585C84.0832 84.4176 80.7481 81.2415 76.6515 80.4532C75.6422 80.2591 74.5148 80.2003 73.4877 80.2827ZM73.1867 66.3427C72.685 66.4368 72.2363 66.5603 71.7464 66.7192C70.3829 67.1721 69.0725 68.2838 68.4173 69.5542L67.9687 70.6835C67.4905 72.0775 67.6853 73.6833 68.3347 74.9832C69.0784 76.4831 70.5246 77.8535 72.1301 78.377C73.0923 78.6946 74.0485 78.6887 75.052 78.6535C76.8464 78.2829 78.2867 77.5653 79.3314 76.0066C80.1165 74.8303 80.5297 73.0951 80.2464 71.7011L80.1814 71.407L80.1519 71.2658C79.7919 69.666 78.7943 68.1426 77.3836 67.278L76.203 66.7016C75.3589 66.3251 74.0958 66.1957 73.1867 66.3427Z"/>
</mask>
<path d="M74.1615 15.0342C76.9063 14.793 79.905 15.8518 82.1007 17.4575C84.3556 19.0985 86.5278 22.0924 86.9351 24.8922C87.2952 27.3332 87.3188 29.9389 86.4038 32.2797L86.3684 32.368C86.7875 32.8738 87.7379 33.3385 88.2927 33.7326L94.4433 38.144L115.392 53.1604L121.348 57.4071C122.658 58.3305 124.051 59.2069 125.291 60.2245C125.421 60.3304 125.751 60.1598 125.917 60.1069C127.67 59.5481 129.718 59.2658 131.548 59.5187C135.202 60.0245 138.265 61.6832 140.496 64.6417C142.397 67.1592 143.389 70.9177 142.858 74.0527C142.273 77.5172 140.467 80.3992 137.616 82.4696C134.842 84.493 131.459 85.1576 128.095 84.6106L128.018 84.5988L110.374 112.743C110.923 113.178 111.454 113.808 111.903 114.349C113.267 116.002 114.223 117.79 114.683 119.895C114.783 120.348 114.807 120.825 114.866 121.289C115.014 122.407 114.884 123.483 114.76 124.589C114.577 126.218 113.88 127.836 113.001 129.206C111.313 131.853 108.462 134.035 105.345 134.706C102.039 135.417 98.4445 134.835 95.5935 132.994C92.4533 130.971 90.7474 128.059 89.9801 124.483L75.4533 124.471C73.7474 124.477 56.0809 124.454 56.0567 124.471C56.0272 124.495 55.8855 125.177 55.8619 125.265C55.679 125.954 55.4782 126.636 55.2008 127.295C54.3862 129.23 53.1525 130.894 51.5116 132.224C48.9557 134.3 45.7741 135.229 42.504 134.888C39.2694 134.553 36.0818 132.829 34.0394 130.288C31.7963 127.489 30.9936 124.171 31.4303 120.648C31.8671 117.166 33.7914 114.437 36.495 112.313L21.3189 84.722C19.4713 84.8573 17.5117 84.6632 15.7526 84.075C12.6006 83.0281 9.79669 80.7164 8.32094 77.7403C6.83934 74.7582 6.57969 71.2174 7.66574 68.0705C8.80498 64.7708 11.1602 62.2063 14.3063 60.6769C16.6497 59.5476 19.4831 59.2006 22.039 59.6535C22.8949 59.8064 23.7036 60.077 24.5299 60.3534L62.9392 32.4789C62.585 31.4496 62.2663 30.4026 62.1483 29.3144C61.7469 25.7206 62.7444 22.2738 65.0524 19.4681C67.3663 16.6566 70.607 15.3684 74.1604 15.0332L74.1615 15.0342ZM85.4595 33.945C83.7654 36.8389 81.0383 38.968 77.78 39.8328C74.6102 40.668 71.0509 40.1386 68.2353 38.4741C66.8953 37.68 65.7385 36.5801 64.7644 35.3743L63.7905 34.0509L26.2908 61.2539C29.1123 62.9889 31.3199 65.777 32.0992 69.0239C32.4888 70.6531 32.6186 72.6707 32.2526 74.3116L32.2172 74.4998C31.6151 77.7289 29.626 80.7287 26.8812 82.5522C25.677 83.3521 24.3725 83.952 22.9972 84.405L37.9548 111.385C39.094 110.915 40.2214 110.473 41.4374 110.232C43.7632 109.756 46.3485 110.044 48.5443 110.95C48.9516 111.115 49.3648 111.303 49.7485 111.526C49.9078 111.62 50.1912 111.844 50.3623 111.862L60.1492 96.857L62.469 93.275C62.7937 92.7809 63.3308 92.1457 63.5138 91.6104C59.7066 89.0635 56.7492 84.6756 55.8756 80.1996C54.9017 75.2176 55.9406 70.277 58.7975 66.0949C59.7538 64.7009 60.9165 63.4892 62.1739 62.3657C66.1406 59.1543 71.0517 57.6014 76.1635 58.1367C80.8857 58.6366 85.354 61.154 88.3173 64.8478C90.0764 67.0358 91.6347 70.0121 92.048 72.8119L92.2604 74.1C92.4552 75.1705 92.4493 76.4234 92.3785 77.5115C92.1483 81.1583 90.9618 84.4462 88.8487 87.4401C87.5501 89.2753 85.797 90.681 83.9908 91.9926L92.7623 105.533L95.265 109.297C95.69 109.938 96.18 110.579 96.5164 111.273C97.9154 110.773 99.3792 110.279 100.861 110.073C103.074 109.762 105.495 110.126 107.513 111.079L108.948 111.809L126.313 84.2232C125.54 83.8644 124.749 83.5232 124.017 83.088C121.502 81.5822 119.466 79.3353 118.433 76.5826C117.199 73.2888 117.453 69.5597 118.935 66.3836C119.962 64.1719 121.603 62.431 123.728 61.2428L85.4595 33.945ZM65.0248 92.3984L51.6669 112.874C53.4022 114.385 54.813 116.32 55.5509 118.514C55.8814 119.508 56.029 120.514 56.1352 121.555C56.153 121.714 56.2061 122.726 56.2651 122.79C56.2828 122.814 56.3241 122.79 56.3536 122.79L58.2366 122.796L83.7064 122.808L89.8335 122.779C89.9515 119.138 91.138 115.95 93.8414 113.415L95.1518 112.344L82.5081 92.7814C81.5695 93.3754 80.5012 93.6931 79.4268 93.9695C76.316 94.7694 73.099 94.9047 69.9529 94.2107C68.182 93.8225 66.6303 93.2394 65.0248 92.3984ZM73.2414 59.725C68.4601 60.1838 64.2574 62.0719 61.1584 65.8128C58.5494 68.9536 56.8672 73.4533 57.2862 77.5589C57.6109 80.7762 58.5671 83.8231 60.6095 86.3876C62.2091 84.0172 64.1098 81.9703 66.6303 80.5586C67.6456 79.994 68.7022 79.5764 69.7764 79.1411L69.6879 79.0705C68.3362 78.0235 67.132 76.6178 66.5477 75.0003C65.863 73.1122 65.9397 70.9065 66.7838 69.0773C67.6928 67.101 69.4046 65.7069 71.4351 64.9775C72.5094 64.5893 73.69 64.4776 74.8233 64.5776C76.8716 64.7658 78.7959 65.7246 80.1122 67.3126C81.098 68.5125 81.5112 69.7419 81.8772 71.2183C82.1015 72.1182 82.0425 73.4769 81.8477 74.3886C81.3991 76.4943 80.13 77.9413 78.4654 79.2293C79.3921 79.5646 80.2952 79.8999 81.1511 80.3881C83.7483 81.8762 85.6312 84.1348 87.4906 86.4111C89.8753 83.1114 91.3037 78.5117 90.6249 74.4298C89.8281 69.6891 87.5319 65.5717 83.5534 62.7661C81.0684 61.0073 77.8809 59.8545 74.8233 59.7428C74.3038 59.7252 73.755 59.6721 73.2414 59.725ZM19.1604 61.1719C15.8666 61.5895 13.0509 62.8542 10.9673 65.5186C9.39708 67.5243 8.31104 70.4712 8.66525 73.0298C9.11386 76.2647 10.6427 78.9469 13.293 80.888C15.3885 82.4172 17.8381 83.1055 20.4236 83.0466L22.3479 82.7349C24.9688 82.1997 27.5541 80.2528 28.9943 78.0412C30.5349 75.6708 31.1607 72.6298 30.5526 69.8595C29.9092 66.9597 28.0853 64.407 25.5647 62.8365C24.0536 61.9013 22.0998 61.2073 20.3171 61.1484C19.9452 61.1308 19.5204 61.1014 19.1604 61.1719ZM129.949 61.1778C126.661 61.5307 123.922 62.5189 121.791 65.1774C119.961 67.4595 119.117 70.4534 119.454 73.3532C119.778 76.1354 121.248 78.9115 123.456 80.6526C125.634 82.3642 128.237 83.1525 130.982 83.0701C134.399 82.5937 137.174 81.2056 139.269 78.3881C140.869 76.2412 141.53 73.2532 141.123 70.6359C140.686 67.8361 139.14 65.1011 136.808 63.4366C134.937 62.1014 132.298 61.0307 129.949 61.1778ZM73.7658 16.7821C70.8321 17.1056 68.0873 18.4526 66.2397 20.77C64.5397 22.9051 63.4596 25.8284 63.7841 28.5811C64.1501 31.6691 65.5668 34.2807 68.0459 36.204C70.2417 37.8979 72.8331 38.6038 75.5779 38.4509C78.6533 38.0097 81.3331 36.7393 83.2161 34.2159C84.9397 31.9103 85.8664 28.9988 85.4415 26.1166C85.0401 23.4227 83.588 20.623 81.3568 18.9936C79.1905 17.4055 76.4574 16.5117 73.7658 16.7821ZM101.821 111.728C98.5214 112.222 95.6409 113.451 93.6103 116.204C91.9515 118.445 91.255 121.368 91.686 124.121C92.1228 126.891 93.7343 129.602 96.0246 131.232C98.1732 132.761 100.523 133.373 103.143 133.308C106.384 132.838 109.123 131.614 111.124 128.932C112.83 126.65 113.52 123.644 113.083 120.845C112.635 117.951 110.982 115.339 108.591 113.639C106.744 112.328 104.129 111.522 101.85 111.722L101.821 111.728ZM43.2308 111.733C40.1909 112.051 37.4165 113.263 35.451 115.663C33.6093 117.909 32.6885 120.862 33.0367 123.762L33.1725 124.503C33.261 125.121 33.4558 125.72 33.6624 126.309C34.5773 128.873 36.7318 131.032 39.1696 132.185C40.8461 132.984 42.4693 133.184 44.2991 133.179C46.8903 133.161 49.6589 131.826 51.4592 130.008C53.2301 128.22 54.0565 126.114 54.4282 123.674C54.8355 121.003 53.8379 118.015 52.2324 115.886C50.556 113.663 48.0415 112.245 45.2848 111.874C44.6296 111.786 43.8919 111.675 43.2308 111.733ZM73.4877 80.2827C69.7571 80.6121 66.0031 82.3766 63.5711 85.2529L61.7707 87.7645C62.4968 88.4762 63.2228 89.1702 64.0492 89.7584C67.1068 91.9347 70.8963 93.0051 74.6387 92.9699H74.8985C79.2075 92.7817 83.2863 91.076 86.2318 87.9115C86.2967 87.835 86.279 87.8585 86.338 87.7585C84.0832 84.4176 80.7481 81.2415 76.6515 80.4532C75.6422 80.2591 74.5148 80.2003 73.4877 80.2827ZM73.1867 66.3427C72.685 66.4368 72.2363 66.5603 71.7464 66.7192C70.3829 67.1721 69.0725 68.2838 68.4173 69.5542L67.9687 70.6835C67.4905 72.0775 67.6853 73.6833 68.3347 74.9832C69.0784 76.4831 70.5246 77.8535 72.1301 78.377C73.0923 78.6946 74.0485 78.6887 75.052 78.6535C76.8464 78.2829 78.2867 77.5653 79.3314 76.0066C80.1165 74.8303 80.5297 73.0951 80.2464 71.7011L80.1814 71.407L80.1519 71.2658C79.7919 69.666 78.7943 68.1426 77.3836 67.278L76.203 66.7016C75.3589 66.3251 74.0958 66.1957 73.1867 66.3427Z" fill="#663366"/>
<path d="M74.1615 15.0342C76.9063 14.793 79.905 15.8518 82.1007 17.4575C84.3556 19.0985 86.5278 22.0924 86.9351 24.8922C87.2952 27.3332 87.3188 29.9389 86.4038 32.2797L86.3684 32.368C86.7875 32.8738 87.7379 33.3385 88.2927 33.7326L94.4433 38.144L115.392 53.1604L121.348 57.4071C122.658 58.3305 124.051 59.2069 125.291 60.2245C125.421 60.3304 125.751 60.1598 125.917 60.1069C127.67 59.5481 129.718 59.2658 131.548 59.5187C135.202 60.0245 138.265 61.6832 140.496 64.6417C142.397 67.1592 143.389 70.9177 142.858 74.0527C142.273 77.5172 140.467 80.3992 137.616 82.4696C134.842 84.493 131.459 85.1576 128.095 84.6106L128.018 84.5988L110.374 112.743C110.923 113.178 111.454 113.808 111.903 114.349C113.267 116.002 114.223 117.79 114.683 119.895C114.783 120.348 114.807 120.825 114.866 121.289C115.014 122.407 114.884 123.483 114.76 124.589C114.577 126.218 113.88 127.836 113.001 129.206C111.313 131.853 108.462 134.035 105.345 134.706C102.039 135.417 98.4445 134.835 95.5935 132.994C92.4533 130.971 90.7474 128.059 89.9801 124.483L75.4533 124.471C73.7474 124.477 56.0809 124.454 56.0567 124.471C56.0272 124.495 55.8855 125.177 55.8619 125.265C55.679 125.954 55.4782 126.636 55.2008 127.295C54.3862 129.23 53.1525 130.894 51.5116 132.224C48.9557 134.3 45.7741 135.229 42.504 134.888C39.2694 134.553 36.0818 132.829 34.0394 130.288C31.7963 127.489 30.9936 124.171 31.4303 120.648C31.8671 117.166 33.7914 114.437 36.495 112.313L21.3189 84.722C19.4713 84.8573 17.5117 84.6632 15.7526 84.075C12.6006 83.0281 9.79669 80.7164 8.32094 77.7403C6.83934 74.7582 6.57969 71.2174 7.66574 68.0705C8.80498 64.7708 11.1602 62.2063 14.3063 60.6769C16.6497 59.5476 19.4831 59.2006 22.039 59.6535C22.8949 59.8064 23.7036 60.077 24.5299 60.3534L62.9392 32.4789C62.585 31.4496 62.2663 30.4026 62.1483 29.3144C61.7469 25.7206 62.7444 22.2738 65.0524 19.4681C67.3663 16.6566 70.607 15.3684 74.1604 15.0332L74.1615 15.0342ZM85.4595 33.945C83.7654 36.8389 81.0383 38.968 77.78 39.8328C74.6102 40.668 71.0509 40.1386 68.2353 38.4741C66.8953 37.68 65.7385 36.5801 64.7644 35.3743L63.7905 34.0509L26.2908 61.2539C29.1123 62.9889 31.3199 65.777 32.0992 69.0239C32.4888 70.6531 32.6186 72.6707 32.2526 74.3116L32.2172 74.4998C31.6151 77.7289 29.626 80.7287 26.8812 82.5522C25.677 83.3521 24.3725 83.952 22.9972 84.405L37.9548 111.385C39.094 110.915 40.2214 110.473 41.4374 110.232C43.7632 109.756 46.3485 110.044 48.5443 110.95C48.9516 111.115 49.3648 111.303 49.7485 111.526C49.9078 111.62 50.1912 111.844 50.3623 111.862L60.1492 96.857L62.469 93.275C62.7937 92.7809 63.3308 92.1457 63.5138 91.6104C59.7066 89.0635 56.7492 84.6756 55.8756 80.1996C54.9017 75.2176 55.9406 70.277 58.7975 66.0949C59.7538 64.7009 60.9165 63.4892 62.1739 62.3657C66.1406 59.1543 71.0517 57.6014 76.1635 58.1367C80.8857 58.6366 85.354 61.154 88.3173 64.8478C90.0764 67.0358 91.6347 70.0121 92.048 72.8119L92.2604 74.1C92.4552 75.1705 92.4493 76.4234 92.3785 77.5115C92.1483 81.1583 90.9618 84.4462 88.8487 87.4401C87.5501 89.2753 85.797 90.681 83.9908 91.9926L92.7623 105.533L95.265 109.297C95.69 109.938 96.18 110.579 96.5164 111.273C97.9154 110.773 99.3792 110.279 100.861 110.073C103.074 109.762 105.495 110.126 107.513 111.079L108.948 111.809L126.313 84.2232C125.54 83.8644 124.749 83.5232 124.017 83.088C121.502 81.5822 119.466 79.3353 118.433 76.5826C117.199 73.2888 117.453 69.5597 118.935 66.3836C119.962 64.1719 121.603 62.431 123.728 61.2428L85.4595 33.945ZM65.0248 92.3984L51.6669 112.874C53.4022 114.385 54.813 116.32 55.5509 118.514C55.8814 119.508 56.029 120.514 56.1352 121.555C56.153 121.714 56.2061 122.726 56.2651 122.79C56.2828 122.814 56.3241 122.79 56.3536 122.79L58.2366 122.796L83.7064 122.808L89.8335 122.779C89.9515 119.138 91.138 115.95 93.8414 113.415L95.1518 112.344L82.5081 92.7814C81.5695 93.3754 80.5012 93.6931 79.4268 93.9695C76.316 94.7694 73.099 94.9047 69.9529 94.2107C68.182 93.8225 66.6303 93.2394 65.0248 92.3984ZM73.2414 59.725C68.4601 60.1838 64.2574 62.0719 61.1584 65.8128C58.5494 68.9536 56.8672 73.4533 57.2862 77.5589C57.6109 80.7762 58.5671 83.8231 60.6095 86.3876C62.2091 84.0172 64.1098 81.9703 66.6303 80.5586C67.6456 79.994 68.7022 79.5764 69.7764 79.1411L69.6879 79.0705C68.3362 78.0235 67.132 76.6178 66.5477 75.0003C65.863 73.1122 65.9397 70.9065 66.7838 69.0773C67.6928 67.101 69.4046 65.7069 71.4351 64.9775C72.5094 64.5893 73.69 64.4776 74.8233 64.5776C76.8716 64.7658 78.7959 65.7246 80.1122 67.3126C81.098 68.5125 81.5112 69.7419 81.8772 71.2183C82.1015 72.1182 82.0425 73.4769 81.8477 74.3886C81.3991 76.4943 80.13 77.9413 78.4654 79.2293C79.3921 79.5646 80.2952 79.8999 81.1511 80.3881C83.7483 81.8762 85.6312 84.1348 87.4906 86.4111C89.8753 83.1114 91.3037 78.5117 90.6249 74.4298C89.8281 69.6891 87.5319 65.5717 83.5534 62.7661C81.0684 61.0073 77.8809 59.8545 74.8233 59.7428C74.3038 59.7252 73.755 59.6721 73.2414 59.725ZM19.1604 61.1719C15.8666 61.5895 13.0509 62.8542 10.9673 65.5186C9.39708 67.5243 8.31104 70.4712 8.66525 73.0298C9.11386 76.2647 10.6427 78.9469 13.293 80.888C15.3885 82.4172 17.8381 83.1055 20.4236 83.0466L22.3479 82.7349C24.9688 82.1997 27.5541 80.2528 28.9943 78.0412C30.5349 75.6708 31.1607 72.6298 30.5526 69.8595C29.9092 66.9597 28.0853 64.407 25.5647 62.8365C24.0536 61.9013 22.0998 61.2073 20.3171 61.1484C19.9452 61.1308 19.5204 61.1014 19.1604 61.1719ZM129.949 61.1778C126.661 61.5307 123.922 62.5189 121.791 65.1774C119.961 67.4595 119.117 70.4534 119.454 73.3532C119.778 76.1354 121.248 78.9115 123.456 80.6526C125.634 82.3642 128.237 83.1525 130.982 83.0701C134.399 82.5937 137.174 81.2056 139.269 78.3881C140.869 76.2412 141.53 73.2532 141.123 70.6359C140.686 67.8361 139.14 65.1011 136.808 63.4366C134.937 62.1014 132.298 61.0307 129.949 61.1778ZM73.7658 16.7821C70.8321 17.1056 68.0873 18.4526 66.2397 20.77C64.5397 22.9051 63.4596 25.8284 63.7841 28.5811C64.1501 31.6691 65.5668 34.2807 68.0459 36.204C70.2417 37.8979 72.8331 38.6038 75.5779 38.4509C78.6533 38.0097 81.3331 36.7393 83.2161 34.2159C84.9397 31.9103 85.8664 28.9988 85.4415 26.1166C85.0401 23.4227 83.588 20.623 81.3568 18.9936C79.1905 17.4055 76.4574 16.5117 73.7658 16.7821ZM101.821 111.728C98.5214 112.222 95.6409 113.451 93.6103 116.204C91.9515 118.445 91.255 121.368 91.686 124.121C92.1228 126.891 93.7343 129.602 96.0246 131.232C98.1732 132.761 100.523 133.373 103.143 133.308C106.384 132.838 109.123 131.614 111.124 128.932C112.83 126.65 113.52 123.644 113.083 120.845C112.635 117.951 110.982 115.339 108.591 113.639C106.744 112.328 104.129 111.522 101.85 111.722L101.821 111.728ZM43.2308 111.733C40.1909 112.051 37.4165 113.263 35.451 115.663C33.6093 117.909 32.6885 120.862 33.0367 123.762L33.1725 124.503C33.261 125.121 33.4558 125.72 33.6624 126.309C34.5773 128.873 36.7318 131.032 39.1696 132.185C40.8461 132.984 42.4693 133.184 44.2991 133.179C46.8903 133.161 49.6589 131.826 51.4592 130.008C53.2301 128.22 54.0565 126.114 54.4282 123.674C54.8355 121.003 53.8379 118.015 52.2324 115.886C50.556 113.663 48.0415 112.245 45.2848 111.874C44.6296 111.786 43.8919 111.675 43.2308 111.733ZM73.4877 80.2827C69.7571 80.6121 66.0031 82.3766 63.5711 85.2529L61.7707 87.7645C62.4968 88.4762 63.2228 89.1702 64.0492 89.7584C67.1068 91.9347 70.8963 93.0051 74.6387 92.9699H74.8985C79.2075 92.7817 83.2863 91.076 86.2318 87.9115C86.2967 87.835 86.279 87.8585 86.338 87.7585C84.0832 84.4176 80.7481 81.2415 76.6515 80.4532C75.6422 80.2591 74.5148 80.2003 73.4877 80.2827ZM73.1867 66.3427C72.685 66.4368 72.2363 66.5603 71.7464 66.7192C70.3829 67.1721 69.0725 68.2838 68.4173 69.5542L67.9687 70.6835C67.4905 72.0775 67.6853 73.6833 68.3347 74.9832C69.0784 76.4831 70.5246 77.8535 72.1301 78.377C73.0923 78.6946 74.0485 78.6887 75.052 78.6535C76.8464 78.2829 78.2867 77.5653 79.3314 76.0066C80.1165 74.8303 80.5297 73.0951 80.2464 71.7011L80.1814 71.407L80.1519 71.2658C79.7919 69.666 78.7943 68.1426 77.3836 67.278L76.203 66.7016C75.3589 66.3251 74.0958 66.1957 73.1867 66.3427Z" stroke="#663366" stroke-width="2" mask="url(#path-1-outside-1_104_1017)"/>
</svg>
