<svg width="150" height="164" viewBox="0 0 150 164" fill="none" xmlns="http://www.w3.org/2000/svg">
<mask id="path-1-outside-1_104_1137" maskUnits="userSpaceOnUse" x="11" y="16" width="128" height="132" fill="black">
<rect fill="white" x="11" y="16" width="128" height="132"/>
<path fill-rule="evenodd" clip-rule="evenodd" d="M113.703 76.7404C113.703 75.9617 114.333 75.3294 115.109 75.3294C115.885 75.3294 116.515 75.9617 116.515 76.7404V85.1825H119.163C119.245 85.1825 119.327 85.1474 119.379 85.0889C119.438 85.0303 119.473 84.9542 119.473 84.8723V77.314C119.473 75.1537 118.592 73.1866 117.168 71.7582C115.745 70.3297 113.785 69.4456 111.633 69.4456H105.531C103.379 69.4456 101.419 70.3296 99.9953 71.7582C98.572 73.1867 97.6911 75.1537 97.6911 77.314V84.8723C97.6911 84.9601 97.7262 85.0362 97.7786 85.0947C97.837 85.1474 97.9128 85.1825 98.0003 85.1825H100.649L100.654 76.7404C100.654 75.9617 101.284 75.3294 102.06 75.3294C102.836 75.3294 103.466 75.9617 103.466 76.7404V85.1825H113.703L113.703 76.7404ZM114.66 67.0571C116.381 67.5723 117.927 68.5148 119.163 69.756C121.094 71.6939 122.296 74.3693 122.296 77.3084V84.8666C122.296 85.7272 121.946 86.5176 121.38 87.0855C120.814 87.6534 120.033 88.0047 119.169 88.0047H102.066L98.0062 88.0105C97.1487 88.0105 96.367 87.6593 95.8012 87.0914L95.7954 87.0855C95.2295 86.5176 94.8795 85.7331 94.8795 84.8724V77.3142C94.8795 74.3695 96.0754 71.6997 98.0121 69.7619C99.2546 68.5148 100.795 67.5782 102.515 67.0629C102.428 66.9809 102.346 66.9048 102.264 66.817C100.643 65.1895 99.6453 62.9472 99.6453 60.4648C99.6453 57.9885 100.649 55.7403 102.264 54.1127C103.886 52.4852 106.12 51.484 108.594 51.484C111.061 51.484 113.301 52.491 114.923 54.1127C116.544 55.7402 117.542 57.9825 117.542 60.4648C117.542 62.9412 116.539 65.1894 114.923 66.817C114.829 66.899 114.748 66.9809 114.66 67.0571ZM46.5335 76.7404C46.5335 75.9617 47.1635 75.3294 47.9393 75.3294C48.7151 75.3294 49.3451 75.9617 49.3451 76.7404V85.1825H51.9934C52.0751 85.1825 52.1567 85.1474 52.2092 85.0889C52.2676 85.0303 52.3026 84.9542 52.3026 84.8723V77.314C52.3026 75.1537 51.4217 73.1866 49.9984 71.7582C48.5751 70.3297 46.6151 69.4456 44.4626 69.4456H38.3611C36.2086 69.4456 34.2487 70.3296 32.8254 71.7582C31.4021 73.1867 30.5212 75.1537 30.5212 77.314V84.8723C30.5212 84.9601 30.5562 85.0362 30.6087 85.0947C30.667 85.1474 30.7429 85.1825 30.8304 85.1825H33.4786V76.7404C33.4786 75.9617 34.1086 75.3294 34.8844 75.3294C35.6603 75.3294 36.2903 75.9617 36.2903 76.7404V85.1825H46.5277L46.5335 76.7404ZM19.945 103.331C19.945 102.553 20.575 101.92 21.3508 101.92C22.1266 101.92 22.7566 102.553 22.7566 103.331V128.845C22.7566 129.623 22.1266 130.256 21.3508 130.256C20.575 130.256 19.945 129.623 19.945 128.845V103.331ZM16.9933 93.9933C15.6166 93.9933 14.3684 94.5553 13.4642 95.4628C12.5599 96.3702 12 97.6231 12 99.0048V133.172C12 134.554 12.56 135.806 13.4642 136.714C14.3683 137.621 15.6166 138.183 16.9933 138.183H33.496C35.7359 138.183 37.7776 137.264 39.2534 135.783C40.2859 134.747 41.0442 133.435 41.4059 131.972C52.1158 141.901 62.826 146.953 73.5421 147C84.9403 147.052 96.2226 141.444 107.387 130.028L133.835 114.7C133.911 114.665 133.981 114.624 134.045 114.571C135.923 113.435 137.189 111.65 137.72 109.671C138.25 107.692 138.04 105.509 136.979 103.588C136.938 103.5 136.891 103.413 136.833 103.336C135.701 101.451 133.922 100.181 131.951 99.6481C129.932 99.1037 127.704 99.332 125.756 100.462L95.3294 118.09C94.9386 116.738 94.2152 115.532 93.2469 114.56C91.7653 113.073 89.7236 112.154 87.4778 112.154H76.692C76.0446 109.384 74.5338 106.937 72.463 105.122C70.328 103.255 67.598 102.049 64.6172 101.85C64.5997 101.85 64.5822 101.844 64.5647 101.844C64.2906 101.826 64.0106 101.815 63.7306 101.815L41.6399 101.838C41.5524 99.7186 40.6541 97.8043 39.2541 96.3934C37.7783 94.9122 35.7424 93.993 33.4966 93.993L16.9933 93.9933ZM41.645 127.147V104.684H64.4584C66.8092 104.842 68.95 105.79 70.6241 107.254C72.4733 108.876 73.7567 111.13 74.13 113.67C74.1767 114.408 74.7892 114.988 75.5358 114.988H87.4882C88.9582 114.988 90.294 115.591 91.2622 116.568C92.2306 117.54 92.8372 118.881 92.8372 120.356C92.8372 121.831 92.2364 123.172 91.2622 124.144C90.2939 125.116 88.9581 125.725 87.4882 125.725H75.6466L57.9434 125.731C57.1675 125.731 56.5375 126.363 56.5375 127.142C56.5375 127.92 57.1675 128.553 57.9434 128.553H87.4886C89.7344 128.553 91.7761 127.633 93.2578 126.146C94.5527 124.847 95.416 123.12 95.6144 121.193L127.173 102.91C128.444 102.172 129.903 102.026 131.227 102.383C132.557 102.74 133.747 103.601 134.482 104.871C135.217 106.148 135.362 107.617 135.007 108.946C134.651 110.281 133.793 111.475 132.527 112.213L132.522 112.219V112.213L105.823 127.68C105.694 127.756 105.583 127.844 105.49 127.949C94.8444 138.874 84.1984 144.236 73.5585 144.184C63.0353 144.137 52.3952 138.792 41.6508 128.312L41.645 127.147ZM33.5018 96.8214H16.9991C16.4041 96.8214 15.8558 97.0673 15.4592 97.4654C15.0626 97.8635 14.8176 98.408 14.8176 99.0109V133.178C14.8176 133.775 15.0626 134.326 15.4592 134.724C15.8559 135.122 16.3984 135.368 16.9991 135.368H33.5018C34.9659 135.368 36.3017 134.765 37.2642 133.793C38.2325 132.821 38.8334 131.486 38.8334 130.017V128.916L38.8275 103.274V102.173C38.8275 100.704 38.2267 99.3687 37.2584 98.3969C36.2959 97.4251 34.9658 96.8214 33.5018 96.8214ZM67.0671 42.2518C67.0671 41.4731 67.6971 40.8408 68.4729 40.8408C69.2487 40.8408 69.8787 41.4731 69.8787 42.2518V50.694H80.1161V42.2518C80.1161 41.4731 80.7461 40.8408 81.522 40.8408C82.2978 40.8408 82.9278 41.4731 82.9278 42.2518V50.694H85.576C85.6577 50.694 85.7394 50.6588 85.7919 50.6003C85.8502 50.5417 85.8852 50.4656 85.8852 50.3837V42.8255C85.8852 40.6651 85.0044 38.698 83.581 37.2696C82.1576 35.8411 80.1977 34.957 78.0453 34.957H71.9496C69.7971 34.957 67.8371 35.841 66.4138 37.2696C64.9906 38.6981 64.1096 40.6651 64.1096 42.8255V50.3837C64.1096 50.4715 64.1446 50.5476 64.1971 50.6061C64.2555 50.6588 64.3313 50.694 64.4188 50.694L67.0671 50.6998V42.2518ZM73.6294 59.4575C73.6294 58.6788 74.2594 58.0465 75.0353 58.0465C75.8111 58.0465 76.4411 58.6788 76.4411 59.4575L76.4119 72.3492L87.5243 78.8184C88.1951 79.2106 88.4226 80.0712 88.0376 80.7446C87.6468 81.4178 86.7893 81.6462 86.1184 81.2598L75.006 74.7906L63.8937 81.2598C63.2228 81.652 62.3654 81.4178 61.9745 80.7446C61.5836 80.0713 61.817 79.2108 62.4878 78.8184L73.606 72.3433L73.6294 59.4575ZM47.4844 67.0566C49.2052 67.5718 50.7511 68.5144 51.9877 69.7556C53.9185 71.6935 55.1202 74.3689 55.1202 77.3079V84.8661C55.1202 85.7268 54.7702 86.5172 54.2044 87.0851C53.6386 87.653 52.8569 88.0042 51.9935 88.0042H30.8362C29.9787 88.0042 29.197 87.6529 28.6312 87.0851L28.6254 87.0792C28.0595 86.5113 27.7095 85.7268 27.7095 84.8661V77.3079C27.7095 74.3632 28.9054 71.6934 30.8421 69.7556C32.0846 68.5085 33.6246 67.5719 35.3453 67.0566C35.2578 66.9746 35.1762 66.8985 35.0945 66.8107C33.4729 65.1832 32.4754 62.9409 32.4754 60.4585C32.4754 57.9822 33.4787 55.734 35.0945 54.1064C36.7161 52.4789 38.9502 51.4777 41.4236 51.4777C43.891 51.4777 46.131 52.4847 47.7527 54.1064C49.3743 55.7339 50.3719 57.9762 50.3719 60.4585C50.3719 62.9349 49.3686 65.1831 47.7527 66.8107C47.6594 66.8985 47.572 66.9805 47.4844 67.0566ZM45.7519 56.1145C44.6436 55.0021 43.1095 54.3114 41.4178 54.3114C39.7262 54.3114 38.192 55.0022 37.0838 56.1145C35.9755 57.2269 35.2872 58.7665 35.2872 60.4643C35.2872 62.1621 35.9755 63.702 37.0838 64.8142C38.1921 65.9264 39.7262 66.6173 41.4178 66.6173C43.1095 66.6173 44.6437 65.9265 45.7519 64.8142C46.8602 63.7018 47.5485 62.1621 47.5485 60.4643C47.5427 58.7665 46.8602 57.2267 45.7519 56.1145ZM75 17C77.4674 17 79.7074 18.007 81.3291 19.6287C82.9507 21.2562 83.9482 23.4985 83.9482 25.9808C83.9482 28.4572 82.9449 30.7054 81.3291 32.333C81.2475 32.415 81.16 32.497 81.0783 32.5789C82.799 33.0941 84.3449 34.0367 85.5815 35.2779C87.5124 37.2157 88.7141 39.8912 88.7141 42.8302V50.3885C88.7141 51.2549 88.3641 52.0395 87.7983 52.6074C87.2324 53.1753 86.4508 53.5265 85.5874 53.5265H64.4301C63.5726 53.5265 62.7909 53.1752 62.225 52.6074L62.2192 52.6015C61.6534 52.0336 61.3034 51.2491 61.3034 50.3884V42.8302C61.3034 39.8855 62.4992 37.2157 64.4359 35.2778C65.6784 34.0308 67.2184 33.0942 68.9392 32.5789C68.8517 32.4969 68.77 32.4208 68.6883 32.333C67.0667 30.7055 66.0692 28.4632 66.0692 25.9808C66.0692 23.5044 67.0725 21.2563 68.6883 19.6287C70.2925 18.0012 72.5325 17 75 17ZM79.3341 21.625C78.2257 20.5127 76.6916 19.8219 75 19.8219C73.3084 19.8219 71.7741 20.5127 70.6659 21.625C69.5576 22.7374 68.8693 24.2771 68.8693 25.9749C68.8693 27.6726 69.5577 29.2125 70.6659 30.3247C71.7743 31.437 73.3084 32.1278 75 32.1278C76.6916 32.1278 78.2259 31.437 79.3341 30.3247C80.4424 29.2123 81.1307 27.6726 81.1307 25.9749C81.1307 24.2771 80.4482 22.7372 79.3341 21.625ZM112.922 56.1143C111.813 55.002 110.279 54.3112 108.588 54.3112C106.896 54.3112 105.362 55.002 104.254 56.1143C103.145 57.2267 102.457 58.7664 102.457 60.4642C102.457 62.162 103.145 63.7018 104.254 64.814C105.362 65.9264 106.896 66.6172 108.588 66.6172C110.279 66.6172 111.814 65.9263 112.922 64.814C114.03 63.7017 114.718 62.162 114.718 60.4642C114.718 58.7664 114.03 57.2266 112.922 56.1143Z"/>
</mask>
<path fill-rule="evenodd" clip-rule="evenodd" d="M113.703 76.7404C113.703 75.9617 114.333 75.3294 115.109 75.3294C115.885 75.3294 116.515 75.9617 116.515 76.7404V85.1825H119.163C119.245 85.1825 119.327 85.1474 119.379 85.0889C119.438 85.0303 119.473 84.9542 119.473 84.8723V77.314C119.473 75.1537 118.592 73.1866 117.168 71.7582C115.745 70.3297 113.785 69.4456 111.633 69.4456H105.531C103.379 69.4456 101.419 70.3296 99.9953 71.7582C98.572 73.1867 97.6911 75.1537 97.6911 77.314V84.8723C97.6911 84.9601 97.7262 85.0362 97.7786 85.0947C97.837 85.1474 97.9128 85.1825 98.0003 85.1825H100.649L100.654 76.7404C100.654 75.9617 101.284 75.3294 102.06 75.3294C102.836 75.3294 103.466 75.9617 103.466 76.7404V85.1825H113.703L113.703 76.7404ZM114.66 67.0571C116.381 67.5723 117.927 68.5148 119.163 69.756C121.094 71.6939 122.296 74.3693 122.296 77.3084V84.8666C122.296 85.7272 121.946 86.5176 121.38 87.0855C120.814 87.6534 120.033 88.0047 119.169 88.0047H102.066L98.0062 88.0105C97.1487 88.0105 96.367 87.6593 95.8012 87.0914L95.7954 87.0855C95.2295 86.5176 94.8795 85.7331 94.8795 84.8724V77.3142C94.8795 74.3695 96.0754 71.6997 98.0121 69.7619C99.2546 68.5148 100.795 67.5782 102.515 67.0629C102.428 66.9809 102.346 66.9048 102.264 66.817C100.643 65.1895 99.6453 62.9472 99.6453 60.4648C99.6453 57.9885 100.649 55.7403 102.264 54.1127C103.886 52.4852 106.12 51.484 108.594 51.484C111.061 51.484 113.301 52.491 114.923 54.1127C116.544 55.7402 117.542 57.9825 117.542 60.4648C117.542 62.9412 116.539 65.1894 114.923 66.817C114.829 66.899 114.748 66.9809 114.66 67.0571ZM46.5335 76.7404C46.5335 75.9617 47.1635 75.3294 47.9393 75.3294C48.7151 75.3294 49.3451 75.9617 49.3451 76.7404V85.1825H51.9934C52.0751 85.1825 52.1567 85.1474 52.2092 85.0889C52.2676 85.0303 52.3026 84.9542 52.3026 84.8723V77.314C52.3026 75.1537 51.4217 73.1866 49.9984 71.7582C48.5751 70.3297 46.6151 69.4456 44.4626 69.4456H38.3611C36.2086 69.4456 34.2487 70.3296 32.8254 71.7582C31.4021 73.1867 30.5212 75.1537 30.5212 77.314V84.8723C30.5212 84.9601 30.5562 85.0362 30.6087 85.0947C30.667 85.1474 30.7429 85.1825 30.8304 85.1825H33.4786V76.7404C33.4786 75.9617 34.1086 75.3294 34.8844 75.3294C35.6603 75.3294 36.2903 75.9617 36.2903 76.7404V85.1825H46.5277L46.5335 76.7404ZM19.945 103.331C19.945 102.553 20.575 101.92 21.3508 101.92C22.1266 101.92 22.7566 102.553 22.7566 103.331V128.845C22.7566 129.623 22.1266 130.256 21.3508 130.256C20.575 130.256 19.945 129.623 19.945 128.845V103.331ZM16.9933 93.9933C15.6166 93.9933 14.3684 94.5553 13.4642 95.4628C12.5599 96.3702 12 97.6231 12 99.0048V133.172C12 134.554 12.56 135.806 13.4642 136.714C14.3683 137.621 15.6166 138.183 16.9933 138.183H33.496C35.7359 138.183 37.7776 137.264 39.2534 135.783C40.2859 134.747 41.0442 133.435 41.4059 131.972C52.1158 141.901 62.826 146.953 73.5421 147C84.9403 147.052 96.2226 141.444 107.387 130.028L133.835 114.7C133.911 114.665 133.981 114.624 134.045 114.571C135.923 113.435 137.189 111.65 137.72 109.671C138.25 107.692 138.04 105.509 136.979 103.588C136.938 103.5 136.891 103.413 136.833 103.336C135.701 101.451 133.922 100.181 131.951 99.6481C129.932 99.1037 127.704 99.332 125.756 100.462L95.3294 118.09C94.9386 116.738 94.2152 115.532 93.2469 114.56C91.7653 113.073 89.7236 112.154 87.4778 112.154H76.692C76.0446 109.384 74.5338 106.937 72.463 105.122C70.328 103.255 67.598 102.049 64.6172 101.85C64.5997 101.85 64.5822 101.844 64.5647 101.844C64.2906 101.826 64.0106 101.815 63.7306 101.815L41.6399 101.838C41.5524 99.7186 40.6541 97.8043 39.2541 96.3934C37.7783 94.9122 35.7424 93.993 33.4966 93.993L16.9933 93.9933ZM41.645 127.147V104.684H64.4584C66.8092 104.842 68.95 105.79 70.6241 107.254C72.4733 108.876 73.7567 111.13 74.13 113.67C74.1767 114.408 74.7892 114.988 75.5358 114.988H87.4882C88.9582 114.988 90.294 115.591 91.2622 116.568C92.2306 117.54 92.8372 118.881 92.8372 120.356C92.8372 121.831 92.2364 123.172 91.2622 124.144C90.2939 125.116 88.9581 125.725 87.4882 125.725H75.6466L57.9434 125.731C57.1675 125.731 56.5375 126.363 56.5375 127.142C56.5375 127.92 57.1675 128.553 57.9434 128.553H87.4886C89.7344 128.553 91.7761 127.633 93.2578 126.146C94.5527 124.847 95.416 123.12 95.6144 121.193L127.173 102.91C128.444 102.172 129.903 102.026 131.227 102.383C132.557 102.74 133.747 103.601 134.482 104.871C135.217 106.148 135.362 107.617 135.007 108.946C134.651 110.281 133.793 111.475 132.527 112.213L132.522 112.219V112.213L105.823 127.68C105.694 127.756 105.583 127.844 105.49 127.949C94.8444 138.874 84.1984 144.236 73.5585 144.184C63.0353 144.137 52.3952 138.792 41.6508 128.312L41.645 127.147ZM33.5018 96.8214H16.9991C16.4041 96.8214 15.8558 97.0673 15.4592 97.4654C15.0626 97.8635 14.8176 98.408 14.8176 99.0109V133.178C14.8176 133.775 15.0626 134.326 15.4592 134.724C15.8559 135.122 16.3984 135.368 16.9991 135.368H33.5018C34.9659 135.368 36.3017 134.765 37.2642 133.793C38.2325 132.821 38.8334 131.486 38.8334 130.017V128.916L38.8275 103.274V102.173C38.8275 100.704 38.2267 99.3687 37.2584 98.3969C36.2959 97.4251 34.9658 96.8214 33.5018 96.8214ZM67.0671 42.2518C67.0671 41.4731 67.6971 40.8408 68.4729 40.8408C69.2487 40.8408 69.8787 41.4731 69.8787 42.2518V50.694H80.1161V42.2518C80.1161 41.4731 80.7461 40.8408 81.522 40.8408C82.2978 40.8408 82.9278 41.4731 82.9278 42.2518V50.694H85.576C85.6577 50.694 85.7394 50.6588 85.7919 50.6003C85.8502 50.5417 85.8852 50.4656 85.8852 50.3837V42.8255C85.8852 40.6651 85.0044 38.698 83.581 37.2696C82.1576 35.8411 80.1977 34.957 78.0453 34.957H71.9496C69.7971 34.957 67.8371 35.841 66.4138 37.2696C64.9906 38.6981 64.1096 40.6651 64.1096 42.8255V50.3837C64.1096 50.4715 64.1446 50.5476 64.1971 50.6061C64.2555 50.6588 64.3313 50.694 64.4188 50.694L67.0671 50.6998V42.2518ZM73.6294 59.4575C73.6294 58.6788 74.2594 58.0465 75.0353 58.0465C75.8111 58.0465 76.4411 58.6788 76.4411 59.4575L76.4119 72.3492L87.5243 78.8184C88.1951 79.2106 88.4226 80.0712 88.0376 80.7446C87.6468 81.4178 86.7893 81.6462 86.1184 81.2598L75.006 74.7906L63.8937 81.2598C63.2228 81.652 62.3654 81.4178 61.9745 80.7446C61.5836 80.0713 61.817 79.2108 62.4878 78.8184L73.606 72.3433L73.6294 59.4575ZM47.4844 67.0566C49.2052 67.5718 50.7511 68.5144 51.9877 69.7556C53.9185 71.6935 55.1202 74.3689 55.1202 77.3079V84.8661C55.1202 85.7268 54.7702 86.5172 54.2044 87.0851C53.6386 87.653 52.8569 88.0042 51.9935 88.0042H30.8362C29.9787 88.0042 29.197 87.6529 28.6312 87.0851L28.6254 87.0792C28.0595 86.5113 27.7095 85.7268 27.7095 84.8661V77.3079C27.7095 74.3632 28.9054 71.6934 30.8421 69.7556C32.0846 68.5085 33.6246 67.5719 35.3453 67.0566C35.2578 66.9746 35.1762 66.8985 35.0945 66.8107C33.4729 65.1832 32.4754 62.9409 32.4754 60.4585C32.4754 57.9822 33.4787 55.734 35.0945 54.1064C36.7161 52.4789 38.9502 51.4777 41.4236 51.4777C43.891 51.4777 46.131 52.4847 47.7527 54.1064C49.3743 55.7339 50.3719 57.9762 50.3719 60.4585C50.3719 62.9349 49.3686 65.1831 47.7527 66.8107C47.6594 66.8985 47.572 66.9805 47.4844 67.0566ZM45.7519 56.1145C44.6436 55.0021 43.1095 54.3114 41.4178 54.3114C39.7262 54.3114 38.192 55.0022 37.0838 56.1145C35.9755 57.2269 35.2872 58.7665 35.2872 60.4643C35.2872 62.1621 35.9755 63.702 37.0838 64.8142C38.1921 65.9264 39.7262 66.6173 41.4178 66.6173C43.1095 66.6173 44.6437 65.9265 45.7519 64.8142C46.8602 63.7018 47.5485 62.1621 47.5485 60.4643C47.5427 58.7665 46.8602 57.2267 45.7519 56.1145ZM75 17C77.4674 17 79.7074 18.007 81.3291 19.6287C82.9507 21.2562 83.9482 23.4985 83.9482 25.9808C83.9482 28.4572 82.9449 30.7054 81.3291 32.333C81.2475 32.415 81.16 32.497 81.0783 32.5789C82.799 33.0941 84.3449 34.0367 85.5815 35.2779C87.5124 37.2157 88.7141 39.8912 88.7141 42.8302V50.3885C88.7141 51.2549 88.3641 52.0395 87.7983 52.6074C87.2324 53.1753 86.4508 53.5265 85.5874 53.5265H64.4301C63.5726 53.5265 62.7909 53.1752 62.225 52.6074L62.2192 52.6015C61.6534 52.0336 61.3034 51.2491 61.3034 50.3884V42.8302C61.3034 39.8855 62.4992 37.2157 64.4359 35.2778C65.6784 34.0308 67.2184 33.0942 68.9392 32.5789C68.8517 32.4969 68.77 32.4208 68.6883 32.333C67.0667 30.7055 66.0692 28.4632 66.0692 25.9808C66.0692 23.5044 67.0725 21.2563 68.6883 19.6287C70.2925 18.0012 72.5325 17 75 17ZM79.3341 21.625C78.2257 20.5127 76.6916 19.8219 75 19.8219C73.3084 19.8219 71.7741 20.5127 70.6659 21.625C69.5576 22.7374 68.8693 24.2771 68.8693 25.9749C68.8693 27.6726 69.5577 29.2125 70.6659 30.3247C71.7743 31.437 73.3084 32.1278 75 32.1278C76.6916 32.1278 78.2259 31.437 79.3341 30.3247C80.4424 29.2123 81.1307 27.6726 81.1307 25.9749C81.1307 24.2771 80.4482 22.7372 79.3341 21.625ZM112.922 56.1143C111.813 55.002 110.279 54.3112 108.588 54.3112C106.896 54.3112 105.362 55.002 104.254 56.1143C103.145 57.2267 102.457 58.7664 102.457 60.4642C102.457 62.162 103.145 63.7018 104.254 64.814C105.362 65.9264 106.896 66.6172 108.588 66.6172C110.279 66.6172 111.814 65.9263 112.922 64.814C114.03 63.7017 114.718 62.162 114.718 60.4642C114.718 58.7664 114.03 57.2266 112.922 56.1143Z" fill="#663366"/>
<path fill-rule="evenodd" clip-rule="evenodd" d="M113.703 76.7404C113.703 75.9617 114.333 75.3294 115.109 75.3294C115.885 75.3294 116.515 75.9617 116.515 76.7404V85.1825H119.163C119.245 85.1825 119.327 85.1474 119.379 85.0889C119.438 85.0303 119.473 84.9542 119.473 84.8723V77.314C119.473 75.1537 118.592 73.1866 117.168 71.7582C115.745 70.3297 113.785 69.4456 111.633 69.4456H105.531C103.379 69.4456 101.419 70.3296 99.9953 71.7582C98.572 73.1867 97.6911 75.1537 97.6911 77.314V84.8723C97.6911 84.9601 97.7262 85.0362 97.7786 85.0947C97.837 85.1474 97.9128 85.1825 98.0003 85.1825H100.649L100.654 76.7404C100.654 75.9617 101.284 75.3294 102.06 75.3294C102.836 75.3294 103.466 75.9617 103.466 76.7404V85.1825H113.703L113.703 76.7404ZM114.66 67.0571C116.381 67.5723 117.927 68.5148 119.163 69.756C121.094 71.6939 122.296 74.3693 122.296 77.3084V84.8666C122.296 85.7272 121.946 86.5176 121.38 87.0855C120.814 87.6534 120.033 88.0047 119.169 88.0047H102.066L98.0062 88.0105C97.1487 88.0105 96.367 87.6593 95.8012 87.0914L95.7954 87.0855C95.2295 86.5176 94.8795 85.7331 94.8795 84.8724V77.3142C94.8795 74.3695 96.0754 71.6997 98.0121 69.7619C99.2546 68.5148 100.795 67.5782 102.515 67.0629C102.428 66.9809 102.346 66.9048 102.264 66.817C100.643 65.1895 99.6453 62.9472 99.6453 60.4648C99.6453 57.9885 100.649 55.7403 102.264 54.1127C103.886 52.4852 106.12 51.484 108.594 51.484C111.061 51.484 113.301 52.491 114.923 54.1127C116.544 55.7402 117.542 57.9825 117.542 60.4648C117.542 62.9412 116.539 65.1894 114.923 66.817C114.829 66.899 114.748 66.9809 114.66 67.0571ZM46.5335 76.7404C46.5335 75.9617 47.1635 75.3294 47.9393 75.3294C48.7151 75.3294 49.3451 75.9617 49.3451 76.7404V85.1825H51.9934C52.0751 85.1825 52.1567 85.1474 52.2092 85.0889C52.2676 85.0303 52.3026 84.9542 52.3026 84.8723V77.314C52.3026 75.1537 51.4217 73.1866 49.9984 71.7582C48.5751 70.3297 46.6151 69.4456 44.4626 69.4456H38.3611C36.2086 69.4456 34.2487 70.3296 32.8254 71.7582C31.4021 73.1867 30.5212 75.1537 30.5212 77.314V84.8723C30.5212 84.9601 30.5562 85.0362 30.6087 85.0947C30.667 85.1474 30.7429 85.1825 30.8304 85.1825H33.4786V76.7404C33.4786 75.9617 34.1086 75.3294 34.8844 75.3294C35.6603 75.3294 36.2903 75.9617 36.2903 76.7404V85.1825H46.5277L46.5335 76.7404ZM19.945 103.331C19.945 102.553 20.575 101.92 21.3508 101.92C22.1266 101.92 22.7566 102.553 22.7566 103.331V128.845C22.7566 129.623 22.1266 130.256 21.3508 130.256C20.575 130.256 19.945 129.623 19.945 128.845V103.331ZM16.9933 93.9933C15.6166 93.9933 14.3684 94.5553 13.4642 95.4628C12.5599 96.3702 12 97.6231 12 99.0048V133.172C12 134.554 12.56 135.806 13.4642 136.714C14.3683 137.621 15.6166 138.183 16.9933 138.183H33.496C35.7359 138.183 37.7776 137.264 39.2534 135.783C40.2859 134.747 41.0442 133.435 41.4059 131.972C52.1158 141.901 62.826 146.953 73.5421 147C84.9403 147.052 96.2226 141.444 107.387 130.028L133.835 114.7C133.911 114.665 133.981 114.624 134.045 114.571C135.923 113.435 137.189 111.65 137.72 109.671C138.25 107.692 138.04 105.509 136.979 103.588C136.938 103.5 136.891 103.413 136.833 103.336C135.701 101.451 133.922 100.181 131.951 99.6481C129.932 99.1037 127.704 99.332 125.756 100.462L95.3294 118.09C94.9386 116.738 94.2152 115.532 93.2469 114.56C91.7653 113.073 89.7236 112.154 87.4778 112.154H76.692C76.0446 109.384 74.5338 106.937 72.463 105.122C70.328 103.255 67.598 102.049 64.6172 101.85C64.5997 101.85 64.5822 101.844 64.5647 101.844C64.2906 101.826 64.0106 101.815 63.7306 101.815L41.6399 101.838C41.5524 99.7186 40.6541 97.8043 39.2541 96.3934C37.7783 94.9122 35.7424 93.993 33.4966 93.993L16.9933 93.9933ZM41.645 127.147V104.684H64.4584C66.8092 104.842 68.95 105.79 70.6241 107.254C72.4733 108.876 73.7567 111.13 74.13 113.67C74.1767 114.408 74.7892 114.988 75.5358 114.988H87.4882C88.9582 114.988 90.294 115.591 91.2622 116.568C92.2306 117.54 92.8372 118.881 92.8372 120.356C92.8372 121.831 92.2364 123.172 91.2622 124.144C90.2939 125.116 88.9581 125.725 87.4882 125.725H75.6466L57.9434 125.731C57.1675 125.731 56.5375 126.363 56.5375 127.142C56.5375 127.92 57.1675 128.553 57.9434 128.553H87.4886C89.7344 128.553 91.7761 127.633 93.2578 126.146C94.5527 124.847 95.416 123.12 95.6144 121.193L127.173 102.91C128.444 102.172 129.903 102.026 131.227 102.383C132.557 102.74 133.747 103.601 134.482 104.871C135.217 106.148 135.362 107.617 135.007 108.946C134.651 110.281 133.793 111.475 132.527 112.213L132.522 112.219V112.213L105.823 127.68C105.694 127.756 105.583 127.844 105.49 127.949C94.8444 138.874 84.1984 144.236 73.5585 144.184C63.0353 144.137 52.3952 138.792 41.6508 128.312L41.645 127.147ZM33.5018 96.8214H16.9991C16.4041 96.8214 15.8558 97.0673 15.4592 97.4654C15.0626 97.8635 14.8176 98.408 14.8176 99.0109V133.178C14.8176 133.775 15.0626 134.326 15.4592 134.724C15.8559 135.122 16.3984 135.368 16.9991 135.368H33.5018C34.9659 135.368 36.3017 134.765 37.2642 133.793C38.2325 132.821 38.8334 131.486 38.8334 130.017V128.916L38.8275 103.274V102.173C38.8275 100.704 38.2267 99.3687 37.2584 98.3969C36.2959 97.4251 34.9658 96.8214 33.5018 96.8214ZM67.0671 42.2518C67.0671 41.4731 67.6971 40.8408 68.4729 40.8408C69.2487 40.8408 69.8787 41.4731 69.8787 42.2518V50.694H80.1161V42.2518C80.1161 41.4731 80.7461 40.8408 81.522 40.8408C82.2978 40.8408 82.9278 41.4731 82.9278 42.2518V50.694H85.576C85.6577 50.694 85.7394 50.6588 85.7919 50.6003C85.8502 50.5417 85.8852 50.4656 85.8852 50.3837V42.8255C85.8852 40.6651 85.0044 38.698 83.581 37.2696C82.1576 35.8411 80.1977 34.957 78.0453 34.957H71.9496C69.7971 34.957 67.8371 35.841 66.4138 37.2696C64.9906 38.6981 64.1096 40.6651 64.1096 42.8255V50.3837C64.1096 50.4715 64.1446 50.5476 64.1971 50.6061C64.2555 50.6588 64.3313 50.694 64.4188 50.694L67.0671 50.6998V42.2518ZM73.6294 59.4575C73.6294 58.6788 74.2594 58.0465 75.0353 58.0465C75.8111 58.0465 76.4411 58.6788 76.4411 59.4575L76.4119 72.3492L87.5243 78.8184C88.1951 79.2106 88.4226 80.0712 88.0376 80.7446C87.6468 81.4178 86.7893 81.6462 86.1184 81.2598L75.006 74.7906L63.8937 81.2598C63.2228 81.652 62.3654 81.4178 61.9745 80.7446C61.5836 80.0713 61.817 79.2108 62.4878 78.8184L73.606 72.3433L73.6294 59.4575ZM47.4844 67.0566C49.2052 67.5718 50.7511 68.5144 51.9877 69.7556C53.9185 71.6935 55.1202 74.3689 55.1202 77.3079V84.8661C55.1202 85.7268 54.7702 86.5172 54.2044 87.0851C53.6386 87.653 52.8569 88.0042 51.9935 88.0042H30.8362C29.9787 88.0042 29.197 87.6529 28.6312 87.0851L28.6254 87.0792C28.0595 86.5113 27.7095 85.7268 27.7095 84.8661V77.3079C27.7095 74.3632 28.9054 71.6934 30.8421 69.7556C32.0846 68.5085 33.6246 67.5719 35.3453 67.0566C35.2578 66.9746 35.1762 66.8985 35.0945 66.8107C33.4729 65.1832 32.4754 62.9409 32.4754 60.4585C32.4754 57.9822 33.4787 55.734 35.0945 54.1064C36.7161 52.4789 38.9502 51.4777 41.4236 51.4777C43.891 51.4777 46.131 52.4847 47.7527 54.1064C49.3743 55.7339 50.3719 57.9762 50.3719 60.4585C50.3719 62.9349 49.3686 65.1831 47.7527 66.8107C47.6594 66.8985 47.572 66.9805 47.4844 67.0566ZM45.7519 56.1145C44.6436 55.0021 43.1095 54.3114 41.4178 54.3114C39.7262 54.3114 38.192 55.0022 37.0838 56.1145C35.9755 57.2269 35.2872 58.7665 35.2872 60.4643C35.2872 62.1621 35.9755 63.702 37.0838 64.8142C38.1921 65.9264 39.7262 66.6173 41.4178 66.6173C43.1095 66.6173 44.6437 65.9265 45.7519 64.8142C46.8602 63.7018 47.5485 62.1621 47.5485 60.4643C47.5427 58.7665 46.8602 57.2267 45.7519 56.1145ZM75 17C77.4674 17 79.7074 18.007 81.3291 19.6287C82.9507 21.2562 83.9482 23.4985 83.9482 25.9808C83.9482 28.4572 82.9449 30.7054 81.3291 32.333C81.2475 32.415 81.16 32.497 81.0783 32.5789C82.799 33.0941 84.3449 34.0367 85.5815 35.2779C87.5124 37.2157 88.7141 39.8912 88.7141 42.8302V50.3885C88.7141 51.2549 88.3641 52.0395 87.7983 52.6074C87.2324 53.1753 86.4508 53.5265 85.5874 53.5265H64.4301C63.5726 53.5265 62.7909 53.1752 62.225 52.6074L62.2192 52.6015C61.6534 52.0336 61.3034 51.2491 61.3034 50.3884V42.8302C61.3034 39.8855 62.4992 37.2157 64.4359 35.2778C65.6784 34.0308 67.2184 33.0942 68.9392 32.5789C68.8517 32.4969 68.77 32.4208 68.6883 32.333C67.0667 30.7055 66.0692 28.4632 66.0692 25.9808C66.0692 23.5044 67.0725 21.2563 68.6883 19.6287C70.2925 18.0012 72.5325 17 75 17ZM79.3341 21.625C78.2257 20.5127 76.6916 19.8219 75 19.8219C73.3084 19.8219 71.7741 20.5127 70.6659 21.625C69.5576 22.7374 68.8693 24.2771 68.8693 25.9749C68.8693 27.6726 69.5577 29.2125 70.6659 30.3247C71.7743 31.437 73.3084 32.1278 75 32.1278C76.6916 32.1278 78.2259 31.437 79.3341 30.3247C80.4424 29.2123 81.1307 27.6726 81.1307 25.9749C81.1307 24.2771 80.4482 22.7372 79.3341 21.625ZM112.922 56.1143C111.813 55.002 110.279 54.3112 108.588 54.3112C106.896 54.3112 105.362 55.002 104.254 56.1143C103.145 57.2267 102.457 58.7664 102.457 60.4642C102.457 62.162 103.145 63.7018 104.254 64.814C105.362 65.9264 106.896 66.6172 108.588 66.6172C110.279 66.6172 111.814 65.9263 112.922 64.814C114.03 63.7017 114.718 62.162 114.718 60.4642C114.718 58.7664 114.03 57.2266 112.922 56.1143Z" stroke="#663366" stroke-width="0.5" mask="url(#path-1-outside-1_104_1137)"/>
</svg>
