<svg width="150" height="150" viewBox="0 0 150 150" fill="none" xmlns="http://www.w3.org/2000/svg">
<path fill-rule="evenodd" clip-rule="evenodd" d="M27.974 91.3378V23.6141C27.974 16.1247 34.0987 10 41.5881 10H99.2589C99.7386 10 100.17 10.1972 100.48 10.5117L121.524 31.5566C121.86 31.8924 122.025 32.3295 122.025 32.7666V78.3415C129.637 80.4257 133.113 89.3542 128.817 96.0445C127.793 97.6436 126.391 98.9708 124.733 99.9196L123.534 117.052H126.615C129.6 117.052 132.042 119.488 132.042 122.479V126.812H134.062C137.335 126.812 140 129.483 140 132.751V138.284C140 139.232 139.232 140 138.284 140H99.5317C98.5828 140 97.8153 139.232 97.8153 138.284V132.751C97.8153 132.644 97.8206 132.532 97.8259 132.425L58.8543 132.431C58.9502 133.3 58.9982 134.179 58.9982 135.075C58.9982 136.023 58.2306 136.791 57.2818 136.791L11.7164 136.786C10.7676 136.786 10 136.018 10 135.069C10 125.97 15.0213 117.746 22.8731 113.502C17.1801 106.151 19.6851 95.448 27.974 91.3378ZM130.325 130.24H103.752C102.36 130.24 101.241 131.386 101.241 132.75V136.572H136.572V132.75C136.572 131.37 135.437 130.24 134.061 130.24H130.325ZM105.773 126.812V122.479C105.773 119.488 108.209 117.052 111.199 117.052H114.28L113.081 99.9196C106.828 96.3535 105.192 88.0487 109.669 82.3927C109.44 82.51 109.179 82.5739 108.902 82.5739H41.0933C40.1444 82.5739 39.3769 81.8063 39.3769 80.8575C39.3769 79.9087 40.1445 79.1411 41.0933 79.1411H108.907C110.101 79.1411 110.917 80.3245 110.522 81.4279C112.601 79.3277 115.432 78.0058 118.593 77.9258L118.598 34.5152L99.2916 34.9363C98.3321 34.9576 97.5486 34.1847 97.5433 33.2305V13.4275H41.5892C35.9921 13.4275 31.4027 18.017 31.4027 23.6139V90.1436C40.5338 88.1873 49.1957 95.1329 49.1957 104.514C49.1957 107.899 48.0497 111.023 46.1254 113.507C52.1221 116.748 56.5464 122.377 58.2362 129.002H99.1579C100.256 127.658 101.919 126.816 103.758 126.816L105.773 126.812ZM120.106 117.052L121.386 98.7312C121.428 98.1235 121.791 97.5638 122.383 97.292C127.644 94.8826 128.928 87.9156 124.808 83.7952C121.551 80.5383 116.268 80.5383 113.006 83.7952C110.24 86.5617 109.76 90.906 111.876 94.195C112.724 95.5116 113.923 96.5777 115.341 97.2441C115.938 97.4786 116.38 98.0436 116.428 98.7259L117.708 117.047L120.106 117.052ZM126.615 120.48H111.199C110.101 120.48 109.2 121.381 109.2 122.479V126.812H128.614V122.479C128.614 121.381 127.713 120.48 126.615 120.48ZM43.5925 116.061C38.2621 120.266 30.7301 120.266 25.4051 116.061C18.6781 119.286 14.1046 125.848 13.5021 133.358H55.5005C54.8981 125.885 50.3623 119.302 43.5925 116.061ZM42.4678 96.5402C38.0648 92.1372 30.9327 92.1372 26.5293 96.5402C22.1262 100.943 22.1262 108.075 26.5293 112.479C30.9323 116.882 38.0644 116.882 42.4678 112.479C46.8708 108.081 46.8708 100.944 42.4678 96.5402ZM66.8546 107.292L71.2629 113.571C71.9133 114.493 73.2726 114.547 73.9868 113.672L83.0699 102.59C83.6669 101.86 83.5603 100.778 82.83 100.181C82.0997 99.584 81.0177 99.6906 80.4207 100.421L72.7714 109.76L69.6585 105.33C69.1148 104.557 68.0487 104.371 67.2757 104.914C66.4975 105.453 66.3109 106.519 66.8546 107.292ZM74.9996 91.7694C66.5615 91.7694 59.7229 98.6084 59.7229 107.046C59.7229 115.484 66.5619 122.323 74.9996 122.323C83.4374 122.323 90.2709 115.484 90.2709 107.046C90.2709 98.6084 83.4372 91.7694 74.9996 91.7694ZM83.3791 98.6671C78.7523 94.0402 71.2523 94.0402 66.6259 98.6671C61.9995 103.294 61.9991 110.794 66.6259 115.42C71.2527 120.047 78.7527 120.047 83.3791 115.42C88.0006 110.793 88.0006 103.293 83.3791 98.6671ZM41.0928 53.0485H108.907C109.856 53.0485 110.623 52.2809 110.623 51.3321C110.623 50.3833 109.856 49.6157 108.907 49.6157L41.0928 49.621C40.144 49.621 39.3764 50.3886 39.3764 51.3374C39.3764 52.2809 40.1494 53.0485 41.0928 53.0485ZM41.0928 67.8135H108.907C109.856 67.8135 110.623 67.0459 110.623 66.0971C110.623 65.1482 109.856 64.3807 108.907 64.3807L41.0928 64.386C40.144 64.386 39.3764 65.1536 39.3764 66.1024C39.3764 67.0459 40.1494 67.8135 41.0928 67.8135ZM47.1376 20.1057C42.8679 20.1057 39.3818 23.5918 39.3818 27.8615V33.6185C39.3818 37.8882 42.8679 41.3743 47.1376 41.3743H81.9568C86.2265 41.3743 89.7126 37.8882 89.7126 33.6185V27.867C89.7126 23.5973 86.2265 20.1111 81.9568 20.1111L47.1376 20.1057ZM81.9568 23.5331H47.1376C44.7602 23.5331 42.8092 25.4841 42.8092 27.8615V33.6185C42.8092 35.9959 44.7602 37.9469 47.1376 37.9469H81.9568C84.3342 37.9469 86.2852 35.9959 86.2852 33.6185V27.867C86.2852 25.4896 84.3342 23.5331 81.9568 23.5331ZM116.27 31.145L100.971 15.8465V31.4807L116.27 31.145Z" fill="#663366"/>
</svg>
