<svg width="150" height="150" viewBox="0 0 150 150" fill="none" xmlns="http://www.w3.org/2000/svg">
<path fill-rule="evenodd" clip-rule="evenodd" d="M33.7735 85.2526L15.1782 49.5876C14.7774 48.8144 15.075 47.8585 15.8463 47.4567L33.7792 38.0626V26.4098C33.7792 25.5331 34.4897 24.8269 35.3581 24.8269H40.2043V20.3155C40.2043 19.4388 40.9148 18.7326 41.7832 18.7326H70.6718L87.0019 10.1787C87.7731 9.77687 88.7266 10.0752 89.1274 10.8484L93.2387 18.7387H122.073C122.947 18.7387 123.652 19.451 123.652 20.3216V77.0696L135.822 100.412C136.223 101.186 135.925 102.142 135.154 102.543L123.652 108.571V121.386C123.652 122.263 122.941 122.969 122.073 122.969H117.227V127.481C117.227 128.357 116.516 129.064 115.648 129.064L84.5423 129.057L64.0037 139.821C63.2325 140.223 62.279 139.925 61.8782 139.152L56.6131 129.057H35.3516C34.4771 129.057 33.7727 128.345 33.7727 127.474L33.7735 85.2526ZM75.5191 110.64C74.4563 113.137 72.6709 115.255 70.4361 116.741C68.2742 118.172 65.675 119.006 62.8754 119.006C59.0798 119.006 55.6426 117.465 53.1588 114.969C50.6749 112.473 49.1325 109.033 49.1325 105.228C49.1325 101.423 50.669 97.977 53.1588 95.4869C55.6487 92.9967 59.0798 91.4505 62.8754 91.4505C64.3511 91.4505 65.76 91.6757 67.0656 92.0958C68.4259 92.5281 69.6952 93.1795 70.843 93.9954C71.5535 94.5007 72.5372 94.3363 73.0414 93.624C73.5456 92.9117 73.3815 91.9255 72.671 91.42C71.2681 90.4216 69.7013 89.6241 68.0131 89.0822C66.3794 88.5586 64.6486 88.2785 62.8693 88.2785C58.1993 88.2785 53.9725 90.1781 50.9119 93.2404C47.8511 96.309 45.9625 100.546 45.9625 105.228C45.9625 109.91 47.8573 114.147 50.9119 117.216C53.9727 120.284 58.1993 122.178 62.8693 122.178C66.3004 122.178 69.5009 121.149 72.173 119.377C74.924 117.557 77.1103 114.951 78.4219 111.876C78.762 111.073 78.3916 110.141 77.5899 109.8C76.7883 109.466 75.8591 109.837 75.5191 110.64ZM56.7357 107.158L60.9138 110.671C61.5819 111.231 62.5778 111.146 63.1365 110.47C63.1548 110.445 63.179 110.421 63.1973 110.391L70.1568 101.685C70.7034 101.003 70.5941 100.01 69.9139 99.4624C69.2338 98.9144 68.2439 99.024 67.6973 99.7059L61.7033 107.2L58.758 104.729C58.09 104.169 57.0941 104.254 56.5353 104.93C55.9766 105.599 56.0677 106.598 56.7357 107.158ZM93.3618 108.552L94.6371 109.295L95.7667 107.34C96.0703 106.805 96.1311 106.19 95.9792 105.63C95.8274 105.069 95.4691 104.57 94.9347 104.26L79.959 95.5902C79.4246 95.2858 78.8112 95.2249 78.2525 95.3771C77.6937 95.5293 77.1958 95.8885 76.8861 96.4243L75.7626 98.3786L76.9529 99.0665C76.9832 99.0848 77.0136 99.097 77.0439 99.1152C77.0743 99.1335 77.0986 99.1457 77.1229 99.164L93.3618 108.552ZM93.1553 112.077L94.3517 112.771C94.376 112.789 94.4064 112.808 94.4307 112.82C95.1837 113.258 96.1493 113.002 96.5865 112.241L98.4448 109.015C98.4994 108.936 98.548 108.85 98.5844 108.759C99.2525 107.505 99.38 106.092 99.0399 104.808C98.6937 103.505 97.8618 102.33 96.635 101.581C96.5682 101.532 96.4953 101.496 96.4225 101.459L94.0784 100.102L105.623 84.6314C105.763 84.4487 105.89 84.2539 106.006 84.0591C106.024 84.0286 106.048 83.9982 106.066 83.9678C107.05 82.2569 107.19 80.2844 106.686 78.4579C106.212 76.7349 105.149 75.1216 103.68 73.983C103.643 73.9526 103.607 73.9221 103.57 73.8917C103.34 73.7151 103.066 73.5386 102.75 73.3559C102.453 73.1855 102.161 73.0394 101.876 72.9176C100.133 72.1687 98.1533 72.0348 96.3799 72.4975C94.5824 72.9663 92.9791 74.0378 91.9893 75.6878C91.9711 75.7182 91.9468 75.7486 91.9286 75.7852C91.7949 76.0165 91.6735 76.254 91.5702 76.5097L83.9792 94.2635L81.6351 92.9058C81.5561 92.851 81.4711 92.8023 81.38 92.7658C80.129 92.0961 78.7202 91.9682 77.4387 92.3092C76.1391 92.6562 74.9671 93.4903 74.22 94.7201C74.1715 94.7871 74.135 94.8602 74.0986 94.9332L72.2464 98.1539V98.16C71.8152 98.9149 72.0703 99.883 72.8294 100.315L74.1047 101.052L72.9812 103.006C72.7079 103.481 72.6532 104.017 72.7808 104.504C72.8901 104.918 73.1451 105.301 73.5156 105.575C73.5702 105.618 73.631 105.661 73.6978 105.697L89.3469 114.756C89.8206 115.03 90.355 115.085 90.8409 114.957C91.3206 114.829 91.7579 114.513 92.0312 114.032L93.1553 112.077ZM76.8377 102.634L76.3033 103.56L89.8883 111.426L90.4227 110.5L76.8377 102.634ZM101.676 76.4314C101.488 76.2914 101.324 76.1818 101.178 76.0965C101.014 76.0052 100.838 75.9139 100.638 75.8287C99.5327 75.3538 98.2817 75.2685 97.1703 75.5547C96.144 75.8226 95.2391 76.407 94.6987 77.2959C94.6866 77.3203 94.6744 77.3446 94.6562 77.369C94.5894 77.4908 94.5226 77.6125 94.4679 77.7465L86.725 95.8525L91.3221 98.513L103.091 82.7386C103.164 82.6412 103.225 82.5499 103.286 82.4525L103.328 82.3794C103.863 81.454 103.929 80.3459 103.638 79.2987C103.34 78.2211 102.678 77.2105 101.761 76.492C101.737 76.4737 101.707 76.4557 101.676 76.4314ZM62.6763 49.8685H105.83C106.705 49.8685 107.415 49.1562 107.415 48.2856C107.415 47.4089 106.705 46.7027 105.83 46.7027L62.6763 46.6966C61.8018 46.6966 61.0974 47.4089 61.0974 48.2795C61.0974 49.1562 61.8019 49.8685 62.6763 49.8685ZM62.6763 42.9584H89.1475C90.0219 42.9584 90.7264 42.246 90.7264 41.3755C90.7264 40.4988 90.0158 39.7926 89.1475 39.7926L62.6763 39.7865C61.8018 39.7865 61.0974 40.4988 61.0974 41.3694C61.0974 42.2522 61.8019 42.9584 62.6763 42.9584ZM45.174 38.3069C44.2995 38.3069 43.5951 39.0192 43.5951 39.8898V49.7527C43.5951 50.6294 44.3057 51.3356 45.174 51.3356H55.0121C55.8865 51.3356 56.597 50.6233 56.597 49.7527V39.8898C56.597 39.0131 55.8865 38.3069 55.0121 38.3069H45.174ZM53.4331 41.4789H46.759V48.1699H53.4331V41.4789ZM62.676 84.0298H80.7551C81.6296 84.0298 82.3401 83.3175 82.3401 82.4469C82.3401 81.5702 81.6296 80.864 80.7551 80.864L62.676 80.8579C61.8015 80.8579 61.0971 81.5702 61.0971 82.4408C61.0971 83.3236 61.8016 84.0298 62.676 84.0298ZM62.676 77.1257H86.6395C87.514 77.1257 88.2184 76.4134 88.2184 75.5368C88.2184 74.6601 87.5079 73.9539 86.6395 73.9539H62.676C61.8015 73.9539 61.0971 74.6662 61.0971 75.5368C61.0971 76.4135 61.8016 77.1257 62.676 77.1257ZM45.1737 72.4743C44.2992 72.4743 43.5948 73.1866 43.5948 74.0572V83.9201C43.5948 84.7968 44.3053 85.509 45.1737 85.509H55.0117C55.8862 85.509 56.5967 84.7967 56.5967 83.9201V74.0572C56.5967 73.1805 55.8862 72.4743 55.0117 72.4743H45.1737ZM53.4328 75.6463H46.7587V82.3373H53.4328V75.6463ZM62.6757 66.9524H105.83C106.704 66.9524 107.415 66.2401 107.415 65.3695C107.415 64.4928 106.704 63.7866 105.83 63.7866L62.6757 63.7805C61.8012 63.7805 61.0968 64.4928 61.0968 65.3634C61.0968 66.2401 61.8013 66.9524 62.6757 66.9524ZM62.6757 60.0423H89.1468C90.0213 60.0423 90.7257 59.33 90.7257 58.4594C90.7257 57.5827 90.0152 56.8765 89.1468 56.8765L62.6757 56.8704C61.8012 56.8704 61.0968 57.5827 61.0968 58.4533C61.0968 59.3361 61.8013 60.0423 62.6757 60.0423ZM45.1734 55.3908C44.2989 55.3908 43.5945 56.1032 43.5945 56.9737V66.8366C43.5945 67.7133 44.305 68.4195 45.1734 68.4195H55.0114C55.8859 68.4195 56.5964 67.7072 56.5964 66.8366V56.9737C56.5964 56.097 55.8859 55.3908 55.0114 55.3908H45.1734ZM53.4325 58.5629H46.7584V65.2539H53.4325V58.5629ZM33.7739 41.6258L18.7011 49.5282L33.7739 78.4415V41.6258ZM43.363 24.8227H115.642C116.517 24.8227 117.221 25.535 117.221 26.4056V119.786H120.482L120.488 21.8997H43.3633L43.363 24.8227ZM77.7411 129.059H60.1657L63.937 136.292L77.7411 129.059ZM114.063 27.9944H36.9376V125.887H114.063V27.9944ZM77.4675 18.7282H89.6801L87.0566 13.6993L77.4675 18.7282ZM123.652 83.8784V104.999L132.299 100.463L123.652 83.8784Z" fill="#663366"/>
</svg>
