<svg width="500" height="500" viewBox="0 0 500 500" fill="none" xmlns="http://www.w3.org/2000/svg">
<path d="M107.986 125.804C98.7787 125.804 91.5763 132.51 91.5762 140.45V396.735C91.5762 404.676 98.7797 411.382 107.987 411.382H392.24C401.448 411.382 408.651 404.676 408.651 396.735V140.66C408.651 132.719 401.448 126.014 392.24 126.014H392.239L107.986 125.804ZM441.496 396.74C441.472 421.507 419.325 441.347 392.248 441.498H107.987C80.931 441.498 58.7316 421.699 58.7314 396.97V140.663C58.7314 115.913 80.9305 96.1133 107.987 96.1133H392.248L393.51 96.1348C419.916 96.8812 441.329 116.361 441.496 140.652V396.74Z" fill="#57579F" stroke="#57579F" stroke-width="3"/>
<path d="M170.841 58.5C179.778 58.5 187.275 65.0694 187.275 73.4619V159.971L187.272 160.35C187.188 164.254 185.418 167.919 182.434 170.631L182.425 170.64C179.32 173.416 175.165 174.942 170.841 174.942C161.927 174.942 154.431 168.394 154.431 159.98V73.4619C154.431 65.071 161.925 58.5002 170.841 58.5Z" fill="#57579F" stroke="#57579F" stroke-width="3"/>
<path d="M329.087 58.5C338.024 58.5 345.521 65.0694 345.521 73.4619V159.98C345.521 163.996 343.739 167.832 340.652 170.614C337.571 173.392 333.392 174.942 329.087 174.942C320.173 174.942 312.677 168.394 312.677 159.98V73.4619C312.677 65.071 320.171 58.5002 329.087 58.5Z" fill="#57579F" stroke="#57579F" stroke-width="3"/>
<path d="M425.091 201.152C434.005 201.152 441.501 207.701 441.501 216.114C441.501 224.508 434.003 231.056 425.091 231.056H74.9102C65.9976 231.055 58.5 224.508 58.5 216.114C58.5002 207.701 65.9961 201.153 74.9102 201.152H425.091Z" fill="#57579F" stroke="#57579F" stroke-width="3"/>
</svg>
