<svg width="500" height="500" viewBox="0 0 500 500" fill="none" xmlns="http://www.w3.org/2000/svg">
<path d="M222.878 70.0004C198.744 70.0113 174.956 75.7349 153.457 86.7033C131.958 97.6716 113.359 113.573 99.1799 133.109C85.001 152.644 75.6449 175.259 71.8763 199.104C68.1077 222.948 70.0335 247.347 77.4964 270.305C84.9593 293.263 97.7474 314.128 114.815 331.196C131.883 348.263 152.747 361.048 175.7 368.506C198.653 375.963 223.045 377.882 246.882 374.104C270.718 370.326 293.322 360.959 312.847 346.77L389.021 422.967C393.523 427.47 399.628 430 405.995 430C412.361 430 418.467 427.47 422.969 422.967C427.471 418.464 430 412.356 430 405.988C430 399.619 427.471 393.511 422.969 389.008L346.795 312.811C363.398 289.983 373.358 263.002 375.57 234.859C377.783 206.715 372.162 178.509 359.33 153.365C346.498 128.222 326.957 107.124 302.872 92.4091C278.787 77.6945 251.1 69.9384 222.878 70.0004ZM222.878 327.991C202.118 327.991 181.824 321.833 164.563 310.295C147.302 298.758 133.848 282.36 125.904 263.175C117.96 243.989 115.881 222.878 119.931 202.511C123.981 182.144 133.978 163.435 148.657 148.751C163.337 134.067 182.04 124.067 202.401 120.016C222.762 115.965 243.866 118.044 263.046 125.991C282.226 133.938 298.619 147.395 310.152 164.662C321.686 181.928 327.842 202.228 327.842 222.995C327.81 250.831 316.741 277.519 297.064 297.203C277.386 316.887 250.706 327.959 222.878 327.991Z" fill="#57579F"/>
</svg>
