<svg width="500" height="500" viewBox="0 0 500 500" fill="none" xmlns="http://www.w3.org/2000/svg">
<path d="M451.307 84C473.638 84 492 102.168 492 124.522V374.579C492 396.923 473.65 415.272 451.307 415.272H108.21L107.89 415.273C106.288 415.256 104.702 414.941 103.214 414.343C101.627 413.705 100.182 412.758 98.9639 411.557C97.7457 410.356 96.7775 408.925 96.1172 407.347C95.4569 405.768 95.1172 404.074 95.1172 402.363C95.1172 400.653 95.457 398.959 96.1172 397.381C96.7775 395.803 97.7457 394.372 98.9639 393.171C100.182 391.97 101.626 391.023 103.214 390.385C104.702 389.787 106.288 389.471 107.89 389.454H451.307C452.092 389.454 452.851 389.404 453.585 389.305L310.543 267.124L258.672 313.674L258.673 313.675C256.298 315.829 253.206 317.021 250 317.021C246.794 317.021 243.702 315.829 241.327 313.675V313.674L189.456 267.124L46.4141 389.305C47.1479 389.404 47.9076 389.454 48.6934 389.454H64.3262C65.9281 389.471 67.5137 389.787 69.002 390.385C70.5893 391.023 72.0347 391.97 73.2529 393.171C74.4709 394.372 75.4384 395.803 76.0986 397.381C76.7588 398.959 77.0986 400.653 77.0986 402.363C77.0986 404.074 76.7589 405.768 76.0986 407.347C75.4384 408.925 74.4709 410.356 73.2529 411.557C72.0347 412.758 70.5893 413.705 69.002 414.343C67.5138 414.941 65.9281 415.256 64.3262 415.273L64.0059 415.272H48.6934C26.3503 415.272 8 396.923 8 374.579V124.522C8.00015 102.168 26.3618 84 48.6934 84H451.307ZM33.8184 366.143L169.92 249.601L33.8184 127.486V366.143ZM330.079 249.601L466.182 366.143V127.486L330.079 249.601ZM250 286.666L447.291 109.818H52.709L250 286.666Z" fill="#57579F" stroke="#57579F" stroke-width="4"/>
</svg>
