<svg width="150" height="150" viewBox="0 0 150 150" fill="none" xmlns="http://www.w3.org/2000/svg">
<path d="M100.857 49.7954C75.9436 49.7954 78.8836 76.6797 99.9769 76.6797H114.061C98.3569 76.6797 84.3864 58.0579 100.857 49.7954ZM100.857 49.7954C100.857 40.5159 87.4155 37.9103 79.476 42.868C68.0534 50.0004 59.1224 68.6211 47.6522 68.6211H31.7852" stroke="#663366" stroke-width="4.22539" stroke-miterlimit="22.9256"/>
<path d="M75.1164 77.0742H36.1963" stroke="#663366" stroke-width="4.22539" stroke-miterlimit="22.9256"/>
<path d="M59.522 62.5695C53.1408 61.91 48.1631 56.7393 48.1631 49.9612C48.1631 43.1832 53.8383 37.2852 60.8392 37.2852C67.1169 37.2852 72.3279 41.8488 73.3375 47.8396" stroke="#663366" stroke-width="4.22539" stroke-miterlimit="22.9256"/>
<path d="M72.3093 34.7974L76.1327 29.7424M45.6746 38.4918L40.6197 34.6684M53.4411 32.4461L50.9752 26.6075M37.4847 59.8259L43.3234 57.36M63.1905 31.094L63.9741 24.8047M35.6816 46.827L41.971 47.6109" stroke="#663366" stroke-width="4.22539" stroke-miterlimit="22.9256"/>
<path d="M43.7145 17.1065C51.9725 9.58565 62.9509 5 75.0005 5C100.67 5 121.479 25.8094 121.479 51.479C121.479 77.1486 100.67 97.958 75.0005 97.958C49.3308 97.958 28.5215 77.1486 28.5215 51.479C28.5215 39.4294 33.1071 28.451 40.628 20.193" stroke="#663366" stroke-width="4.22539" stroke-miterlimit="22.9256"/>
<path d="M89.7891 19.7879V15.5625M98.2398 24.0135V19.7881" stroke="#663366" stroke-width="4.22531" stroke-miterlimit="2.6131"/>
<path d="M26.797 110.289L15.3158 99.5586V70.3303C15.3158 66.5478 12.2211 63.4531 8.4386 63.4531C6.54733 63.4531 5 65.001 5 66.8917V106.435L23.9122 136.405V145.002H46.2632L42.8246 116.817L33.0592 94.9459C31.9029 92.3555 29.7246 90.3774 26.9491 90.9619C24.1733 91.5467 22.5178 94.2718 22.9651 97.0724L30.6288 123.506" stroke="#663366" stroke-width="4.22539" stroke-miterlimit="22.9256"/>
<path d="M25.6322 91.4357V79.6897C25.6322 75.9072 22.5376 72.8125 18.755 72.8125C16.8637 72.8125 15.3164 74.3604 15.3164 76.2511" stroke="#663366" stroke-width="4.22539" stroke-miterlimit="22.9256"/>
<path d="M123.203 110.289L134.684 99.5586V70.3303C134.684 66.5478 137.779 63.4531 141.562 63.4531C143.453 63.4531 145 65.001 145 66.8917V106.435L138.927 116.06M136.672 119.634L134.417 123.207M132.162 126.78L126.088 136.405V145.002H103.737L107.176 116.817L116.941 94.9459C118.098 92.3555 120.276 90.3774 123.052 90.9619C125.828 91.5467 127.483 94.2718 127.036 97.0724L119.372 123.506" stroke="#663366" stroke-width="4.22539" stroke-miterlimit="22.9256"/>
<path d="M124.369 91.4357V79.6897C124.369 75.9072 127.464 72.8125 131.246 72.8125C133.138 72.8125 134.685 74.3604 134.685 76.2511" stroke="#663366" stroke-width="4.22539" stroke-miterlimit="22.9256"/>
</svg>
