<svg width="1000" height="1000" viewBox="0 0 1000 1000" fill="none" xmlns="http://www.w3.org/2000/svg">
<circle cx="500" cy="500" r="500" fill="#9D54A1"/>
<path d="M673.426 402.138C670.355 402.52 667.684 404.398 666.683 407.009L635.503 482.276C633.099 487.998 628.325 492.429 622.016 494.747C615.706 497.065 608.696 497.065 602.453 494.601C592.872 490.845 587.063 482.042 588.098 472.652C598.88 371.094 553.746 274.561 461.007 200.939C458.603 199.061 455.098 198.474 452.126 199.501C449.122 200.557 446.985 203.022 446.751 205.898C439.14 284.327 400.014 357.777 330.343 424.18C282.071 470.219 252.76 528.578 247.785 588.529C241.542 664.412 272.555 722.831 340.161 762.207C382.892 787.148 433.571 799.853 484.943 799.853H486.145C487.346 799.853 488.548 800 489.75 800C495.559 800 501.301 799.619 506.943 799.032C539.325 796.772 571.64 789.496 602.156 777.083C677.971 746.127 727.615 696.1 745.639 632.393C766.337 559.447 742.901 476.615 681.442 405.074C679.606 402.814 676.498 401.698 673.426 402.138ZM504.57 784.123C498.26 784.563 492.017 784.798 485.675 784.798C482.938 784.71 480.2 784.652 477.463 784.417C419.175 779.605 370.968 739.2 362.96 688.41C359.288 665.2 363.628 642.048 375.279 621.714C383.992 646.215 399.448 660.476 421.516 664.085C424.42 664.525 427.424 663.703 429.394 661.767C431.364 659.801 432.132 657.189 431.264 654.636C402.888 566.374 476.466 506.37 512.186 483.302C510.15 533.771 529.545 558.862 546.805 581.247C562.429 601.464 574.847 617.456 569.206 649.38C568.605 652.843 570.741 656.217 574.514 657.479C578.186 658.77 582.459 657.625 584.696 654.779L610.234 622.561C610.068 632.391 610.835 642.836 613.139 652.226C616.911 667.689 617.078 694.127 610.735 709.855C594.31 751.052 552.577 779.223 504.57 784.123ZM729.139 628.699C712.381 687.883 665.977 734.448 595.04 763.384C593.071 764.205 591.101 764.821 589.131 765.555C605.79 751.881 619.043 734.745 626.989 714.851C634.433 696.453 634.333 666.993 629.993 649.124C625.052 628.76 628.023 604.141 632.03 594.898C633.565 591.377 631.863 587.386 628.023 585.596C624.184 583.865 619.477 584.833 617.007 587.914L587.261 625.385C584.691 603.378 573.073 588.354 561.022 572.715C542.828 549.212 523.933 524.857 530.509 469.046C530.843 466.2 529.307 463.412 526.57 461.916C523.832 460.419 520.327 460.419 517.523 461.916C453.025 497.244 393.466 562.828 410.96 644.247C399.242 636.97 391.464 622.622 387.291 600.821C386.69 597.828 384.12 595.422 380.781 594.747C377.443 594.072 373.938 595.187 371.901 597.681C349.935 624.412 340.788 657.393 345.996 690.466C351.137 722.831 370.599 751.469 398.375 771.307C381.282 765.761 364.79 758.601 349.5 749.681C286.639 713.003 258.927 660.63 264.84 589.644C269.547 533.072 297.222 478.028 342.957 434.453C410.726 369.781 450.717 298.476 462.006 222.397C542.261 291.352 580.884 379.234 571.142 471.343C569.439 487.188 579.254 502.064 595.579 508.461C606.095 512.598 618.213 512.657 628.829 508.696C639.412 504.705 647.791 496.988 651.73 487.51L677.369 425.539C728.546 490.562 747.541 563.949 729.147 628.708L729.139 628.699Z" fill="white"/>
</svg>
