<svg width="1000" height="1000" viewBox="0 0 1000 1000" fill="none" xmlns="http://www.w3.org/2000/svg">
<circle cx="500" cy="500" r="500" fill="#9D54A1"/>
<path fill-rule="evenodd" clip-rule="evenodd" d="M620.345 173.598C611.766 187.715 567.888 222.937 502.975 267.728C496.063 272.529 498.631 283.833 506.936 284.742C525.214 286.872 541.58 290.622 556.989 296.189C560.622 297.524 562.999 300.336 563.819 304.284C571.004 338 576.086 373.449 579.365 412.448C580.294 423.384 564.666 426.253 561.961 415.658L544.448 347.743C540.514 332.518 525.405 323.429 510.761 327.491L436.776 348.112C415.411 354.049 405.439 379.556 416.722 399.325L467.294 487.805C470.136 492.748 468.77 499.196 464.18 502.462L463.497 502.945C458.852 506.24 452.732 505.302 449.235 500.758L406.313 444.744C396.723 432.189 389.456 426.792 373.965 420.743C358.61 414.778 348.502 415.005 334.513 415.402L314.296 415.942V314.228C340.633 312.779 373.61 285.426 398.226 269.292C415.329 258.072 432.023 246.256 449.945 236.428C465.819 227.737 482.813 220.494 499.233 212.739C536.499 195.242 598.082 170.786 618.219 171.013C619.585 171.07 620.973 172.689 620.345 173.598ZM592.887 566.261C592.887 531.352 568.38 502.266 536.332 496.698L554.064 580.772C554.665 583.584 553.982 586.51 552.206 588.696L531.88 614.033C528.273 618.521 521.744 618.521 518.137 614.033L497.811 588.696C496.035 586.509 495.352 583.612 495.953 580.772L513.685 496.698C481.637 502.266 457.13 531.38 457.13 566.261V632.614C457.13 638.096 461.447 642.584 466.747 642.584H583.299C588.599 642.584 592.916 638.124 592.916 632.614L592.887 566.261ZM495.954 446.877C495.954 463.494 508.986 477.07 524.996 477.07C541.006 477.07 554.038 463.493 554.038 446.877C554.038 430.175 541.006 416.683 524.996 416.683C508.986 416.683 495.954 430.176 495.954 446.877ZM535.625 580.295L524.997 593.56L514.342 580.295L524.997 529.792L535.625 580.295ZM482.676 478.268C484.233 481.023 485.299 483.921 485.955 486.903C488.468 485.568 491.064 484.318 493.741 483.21C484.124 474.263 478.059 461.339 478.059 446.881C478.059 413.648 509.451 390.129 539.505 400.44L527.156 352.522C525.79 347.182 520.517 344.057 515.38 345.449L441.395 366.071C431.395 368.854 426.86 380.585 432.106 389.845L482.676 478.268ZM296.427 425.635H268.532V299.124H296.427V425.635ZM433.8 210.783C421.342 218.139 408.091 231.49 395.414 249.043C431.287 225.354 439.019 220.042 478.526 201.977C483.007 199.932 487.487 197.915 491.914 195.785C492.515 195.557 531.093 177.436 567.291 164.71C561.608 159.626 553.521 158.035 546.145 161.245L499.644 181.498C478.88 190.616 451.75 200.301 433.8 210.783ZM635.458 183.571C643.709 169.965 633.518 152.667 618.464 152.44C610.432 152.355 598.766 154.883 585.761 158.718C575.679 142.953 556.39 136.676 539.178 144.118C517.13 153.69 495.928 163.291 473.525 172.352C456.395 179.339 438.69 186.554 424.975 194.621C393.365 213.141 368.393 255.946 358.858 274.157C343.312 284.581 326.373 294.551 314.297 295.574V289.836C314.297 284.666 310.281 280.491 305.363 280.491L259.573 280.519C254.628 280.519 250.639 284.666 250.639 289.864V434.895C250.639 440.065 254.655 444.24 259.573 444.24H305.363C310.363 444.24 314.297 440.15 314.297 434.583L334.979 434.043C347.82 433.731 355.579 433.504 367.655 438.19C380.141 443.048 384.731 446.513 392.299 456.398L435.22 512.411C439.155 517.495 444.482 520.961 450.247 522.523C443.198 535.475 439.182 550.359 439.182 566.294V632.646C439.182 648.411 451.531 661.193 466.694 661.193H583.246C598.41 661.193 610.759 648.411 610.759 632.646V566.294C610.759 528.573 588.109 496.248 556.253 483.238C567.509 472.757 573.52 457.248 571.553 440.887C572.509 440.802 573.465 440.802 574.449 440.66C588.41 438.615 598.409 425.521 597.18 410.921C593.819 371.069 588.628 334.825 581.279 300.256C579.093 290.059 572.4 282.219 562.865 278.697C552.974 275.175 542.729 272.278 531.937 270.005C576.334 238.619 624.121 202.235 635.458 183.571ZM397.654 726.354C397.654 731.837 393.337 736.325 388.037 736.325H271.485C266.185 736.325 261.868 731.865 261.868 726.354V660.002C261.868 625.093 286.375 596.007 318.423 590.439L300.691 674.513C300.09 677.325 300.773 680.251 302.549 682.523L322.876 707.86C326.4 712.263 333.093 712.263 336.618 707.86L356.944 682.523C358.72 680.251 359.403 677.354 358.802 674.513L341.07 590.439C373.118 596.007 397.625 625.121 397.625 660.002L397.654 726.354ZM329.761 510.426C345.772 510.426 358.803 523.919 358.803 540.62C358.803 557.237 345.771 570.814 329.761 570.814C313.751 570.814 300.719 557.236 300.719 540.62C300.719 523.918 313.751 510.426 329.761 510.426ZM340.416 674.036L329.788 687.301L319.133 674.036L329.788 623.533L340.416 674.036ZM361.044 576.925C370.661 567.977 376.726 555.053 376.726 540.595C376.726 513.696 355.662 491.739 329.788 491.739C303.915 491.739 282.851 513.696 282.851 540.595C282.851 555.025 288.916 567.977 298.533 576.925C266.622 589.962 244 622.287 244 660.009V726.362C244 742.126 256.349 754.993 271.513 754.993H388.064C403.228 754.993 415.577 742.126 415.577 726.362L415.55 660.009C415.55 622.288 392.928 589.964 361.044 576.925ZM788.105 726.362C788.105 731.844 783.788 736.332 778.488 736.332H661.964C656.663 736.332 652.346 731.872 652.346 726.362V660.009C652.346 625.1 676.854 596.014 708.901 590.447L691.169 674.52C690.568 677.332 691.251 680.258 693.027 682.53L713.354 707.867C716.878 712.27 723.572 712.27 727.096 707.867L747.423 682.53C749.199 680.258 749.882 677.361 749.281 674.52L731.549 590.447C763.596 596.014 788.104 625.128 788.104 660.009L788.131 726.362H788.105ZM720.239 510.434C736.249 510.434 749.281 523.926 749.281 540.627C749.281 557.244 736.249 570.821 720.239 570.821C704.228 570.821 691.197 557.243 691.197 540.627C691.169 523.925 704.202 510.434 720.239 510.434ZM730.867 674.043L720.212 623.54L709.556 674.043L720.212 687.308L730.867 674.043ZM751.494 576.932C783.378 589.941 806 622.265 806 659.987V726.34C806 742.105 793.651 754.972 778.488 754.972L661.964 755C646.8 755 634.451 742.133 634.451 726.368V660.016C634.451 622.295 657.1 589.97 688.957 576.96C679.34 568.013 673.275 555.089 673.275 540.631C673.275 513.732 694.339 491.775 720.212 491.775C746.085 491.775 767.15 513.731 767.15 540.631C767.177 555.061 761.111 568.013 751.494 576.932Z" fill="white"/>
</svg>
