<svg width="1000" height="1000" viewBox="0 0 1000 1000" fill="none" xmlns="http://www.w3.org/2000/svg">
<circle cx="500" cy="500" r="500" fill="#9D54A1"/>
<path d="M432.523 374.062H313.547C299.047 374.062 287.297 385.828 287.297 400.348V466.986C287.297 473.971 290.072 480.655 294.997 485.561C299.897 490.493 306.572 493.272 313.546 493.272H358.696L423.445 530.723V530.698C425.645 531.975 428.345 531.975 430.545 530.698C432.745 529.421 434.095 527.093 434.12 524.54V493.197C447.946 492.371 458.745 480.88 458.745 466.987V400.349C458.745 385.829 447.023 374.062 432.523 374.062ZM444.523 466.989C444.523 473.623 439.148 479.005 432.523 479.005H426.973C423.048 479.005 419.873 482.21 419.873 486.14V512.201L364.123 479.982C363.048 479.356 361.823 479.006 360.573 479.006H313.548C306.923 479.006 301.548 473.623 301.548 466.989V400.351C301.548 393.717 306.923 388.335 313.548 388.335H432.524C439.149 388.335 444.524 393.717 444.524 400.351L444.523 466.989ZM425.973 414.292L425.948 414.317C425.948 418.197 422.823 421.377 418.923 421.427H327.173C323.248 421.427 320.072 418.222 320.072 414.292C320.072 410.361 323.247 407.182 327.173 407.182H418.923C422.823 407.207 425.998 410.386 425.998 414.292L425.973 414.292ZM425.973 454.296L425.948 454.321C425.948 458.227 422.823 461.406 418.923 461.431H327.173C325.248 461.506 323.398 460.78 322.023 459.429C320.623 458.077 319.848 456.249 319.848 454.322C319.848 452.394 320.623 450.541 322.023 449.19C323.398 447.863 325.248 447.137 327.173 447.187H418.923C422.848 447.212 425.998 450.391 425.998 454.322L425.973 454.296ZM620.398 427.385L574.624 400.924C572.424 399.647 569.724 399.647 567.524 400.924C565.323 402.201 563.974 404.529 563.974 407.082V460.054C563.974 462.608 565.324 464.961 567.524 466.213C569.724 467.489 572.424 467.489 574.624 466.213L620.423 439.727C622.648 438.475 623.998 436.122 623.998 433.568C623.998 431.015 622.648 428.662 620.423 427.41L620.398 427.385ZM578.148 447.713V419.424L602.623 433.568L578.148 447.713ZM653.374 374.063H534.577C520.127 374.088 508.402 385.829 508.377 400.3V466.842C508.402 481.336 520.127 493.052 534.577 493.078H653.374C667.824 493.053 679.548 481.337 679.574 466.842V400.274C679.549 385.804 667.824 374.088 653.374 374.063ZM665.349 466.862C665.349 473.471 659.999 478.853 653.374 478.853H534.577C527.952 478.853 522.602 473.471 522.602 466.837V400.269C522.602 393.661 527.977 388.303 534.577 388.303H653.374C659.999 388.303 665.349 393.66 665.349 400.269V466.862ZM611.424 631.785C597.074 621.42 582.499 620.494 573.249 629.757C567.424 635.59 561.824 646.079 568.199 662.902C575.874 683.155 600.099 706.662 610.824 707.338H612.099C622.75 706.687 646.999 683.18 654.649 662.902C660.999 646.079 655.399 635.59 649.599 629.757C640.349 620.519 625.773 621.445 611.424 631.785ZM642.474 654.315C638.074 671.514 617.399 690.064 611.424 692.893C605.449 690.064 584.773 671.539 580.374 654.315C578.423 649.334 579.574 643.65 583.324 639.846C584.824 638.369 586.874 637.567 588.974 637.643C595.649 638.619 601.848 641.623 606.773 646.255C609.448 648.583 613.423 648.583 616.098 646.255C621.623 641.448 633.623 633.913 639.548 639.846C643.273 643.676 644.424 649.334 642.474 654.315ZM330.724 600.091C330.724 598.214 331.474 596.386 332.824 595.06C334.149 593.733 335.949 592.982 337.849 592.982H391.099C395.024 592.982 398.224 596.161 398.224 600.092C398.224 604.022 395.024 607.226 391.099 607.226H337.849C333.924 607.226 330.724 604.022 330.724 600.091ZM451.473 631.084C451.473 635.014 448.298 638.218 444.372 638.218H337.845C333.92 638.218 330.72 635.014 330.72 631.084C330.72 627.153 333.92 623.974 337.845 623.974H444.372C446.247 623.974 448.072 624.725 449.397 626.052C450.722 627.403 451.473 629.206 451.473 631.084ZM451.473 662.076C451.473 666.006 448.298 669.21 444.372 669.21H337.845C335.92 669.261 334.045 668.535 332.67 667.208C331.295 665.856 330.52 664.003 330.52 662.076C330.52 660.148 331.295 658.321 332.67 656.969C334.045 655.617 335.92 654.891 337.845 654.966H444.372C446.247 654.966 448.072 655.717 449.397 657.044C450.723 658.371 451.473 660.198 451.473 662.076ZM451.473 693.068C451.473 694.97 450.723 696.773 449.398 698.1C448.073 699.451 446.248 700.202 444.373 700.202H337.845C335.92 700.252 334.045 699.526 332.67 698.2C331.295 696.848 330.52 694.995 330.52 693.068C330.52 691.14 331.295 689.312 332.67 687.961C334.045 686.609 335.92 685.883 337.845 685.958H444.373C446.248 685.958 448.073 686.709 449.398 688.036C450.723 689.363 451.473 691.19 451.473 693.068ZM451.473 724.06C451.473 725.962 450.723 727.765 449.398 729.092C448.073 730.443 446.248 731.194 444.373 731.194H337.845C333.92 731.194 330.72 727.99 330.72 724.06C330.72 720.129 333.92 716.95 337.845 716.95H444.373C446.248 716.95 448.073 717.701 449.398 719.028C450.723 720.354 451.473 722.182 451.473 724.06ZM679.575 520.358C679.575 522.235 678.825 524.038 677.5 525.39C676.15 526.716 674.35 527.467 672.45 527.467H502.575C498.65 527.467 495.475 524.288 495.475 520.358C495.475 516.427 498.65 513.223 502.575 513.223H672.45C674.35 513.223 676.15 513.974 677.5 515.301C678.825 516.652 679.575 518.455 679.575 520.358ZM679.575 547.044C679.55 550.975 676.375 554.154 672.449 554.154H502.575C498.65 554.154 495.474 550.95 495.474 547.019C495.474 543.089 498.649 539.91 502.575 539.91H672.449C674.349 539.91 676.174 540.661 677.499 542.012C678.824 543.339 679.575 545.167 679.575 547.044ZM679.575 573.756C679.575 575.634 678.825 577.461 677.5 578.788C676.15 580.115 674.35 580.866 672.45 580.866H502.575C498.65 580.866 495.475 577.686 495.475 573.756C495.475 569.825 498.65 566.621 502.575 566.621H672.45C674.35 566.621 676.15 567.372 677.5 568.724C678.825 570.051 679.575 571.853 679.575 573.756ZM745.898 277.025H248.1C244.2 277.025 241 280.204 241 284.135V685.181C241 689.111 244.175 692.316 248.1 692.316H287.3V781.865C287.3 783.768 288.05 785.57 289.4 786.897C290.725 788.249 292.55 789 294.425 789H452.025C453.925 789 455.725 788.249 457.075 786.897C458.4 785.57 459.15 783.768 459.15 781.865V771.101H469.925H469.9C473.825 771.101 477.025 767.896 477.025 763.966V692.316H516.2V702.755V702.73C516.225 718.526 529 731.294 544.75 731.319H678.125C693.875 731.294 706.65 718.526 706.675 702.73V692.316H745.875C747.75 692.316 749.575 691.565 750.925 690.238C752.25 688.886 753 687.084 753 685.181V284.135C753 282.232 752.25 280.43 750.925 279.103C749.575 277.751 747.775 277 745.9 277L745.898 277.025ZM738.798 291.269V337.858H255.221V291.244L738.798 291.269ZM444.923 774.752H301.576V592.404H305.226V763.966C305.226 767.896 308.401 771.101 312.326 771.101H444.927L444.923 774.752ZM462.798 756.852H319.451V574.504H429.979V600.289C429.979 602.166 430.729 603.994 432.054 605.321C433.379 606.673 435.204 607.399 437.079 607.399H462.804L462.798 756.852ZM444.173 584.566L452.723 593.127H444.173V584.566ZM692.448 702.73C692.448 710.666 686.023 717.075 678.122 717.075H544.721C536.821 717.075 530.396 710.666 530.396 702.73V627.978C530.396 620.068 536.821 613.659 544.721 613.634H678.122C686.023 613.659 692.423 620.068 692.448 627.978V702.73ZM706.673 678.046L706.698 627.978C706.673 612.207 693.898 599.414 678.148 599.389H544.721C528.971 599.439 516.221 612.207 516.196 627.978V678.071H477.021V600.288C477.021 600.063 477.021 599.813 476.971 599.587C476.971 599.487 476.971 599.387 476.921 599.262C476.871 599.162 476.896 599.011 476.871 598.886C476.846 598.761 476.821 598.661 476.771 598.536C476.746 598.411 476.721 598.336 476.696 598.21C476.671 598.11 476.621 597.985 476.571 597.86C476.521 597.735 476.496 597.66 476.446 597.534C476.396 597.434 476.346 597.334 476.296 597.209C476.246 597.109 476.196 597.009 476.146 596.909C476.096 596.808 476.021 596.708 475.971 596.608C475.896 596.508 475.871 596.408 475.796 596.308C475.721 596.208 475.646 596.082 475.546 595.982L475.371 595.757C475.221 595.582 475.071 595.407 474.896 595.231L442.072 562.362L442.097 562.387C441.947 562.211 441.772 562.036 441.572 561.911L441.397 561.786C441.272 561.686 441.147 561.585 441.022 561.51L440.797 561.36C440.672 561.285 440.571 561.21 440.446 561.16L440.197 561.035L439.797 560.859L439.572 560.784L439.147 560.634L438.947 560.584C438.797 560.534 438.647 560.509 438.497 560.484H438.297C438.147 560.484 437.972 560.434 437.822 560.409H437.597H437.147H312.347L312.272 560.359C310.397 560.359 308.572 561.11 307.247 562.437C305.922 563.788 305.172 565.591 305.172 567.493V578.283L294.422 578.258C292.547 578.258 290.722 579.009 289.397 580.336C288.047 581.688 287.297 583.49 287.297 585.393V678.07H255.222V352.076H738.773V678.07L706.673 678.046ZM277.426 314.549C277.426 310.618 280.601 307.414 284.526 307.414H297.976H297.951C301.876 307.414 305.076 310.593 305.076 314.524C305.076 318.454 301.876 321.658 297.951 321.658H284.526C280.601 321.633 277.451 318.454 277.426 314.549ZM326.876 314.549C326.876 312.646 327.601 310.844 328.951 309.492C330.276 308.165 332.101 307.414 333.976 307.414H347.426C351.351 307.414 354.526 310.593 354.526 314.524C354.526 318.454 351.351 321.659 347.426 321.659H333.976C330.051 321.659 326.876 318.479 326.876 314.549ZM376.301 314.549C376.301 312.646 377.051 310.844 378.376 309.492C379.726 308.165 381.526 307.414 383.426 307.414H484.053C487.978 307.414 491.178 310.593 491.178 314.524C491.178 318.454 487.978 321.659 484.053 321.659H383.426C379.501 321.659 376.326 318.479 376.301 314.549Z" fill="white"/>
</svg>
