<svg width="1000" height="1000" viewBox="0 0 1000 1000" fill="none" xmlns="http://www.w3.org/2000/svg">
<circle cx="500" cy="500" r="500" fill="#9D54A1"/>
<path d="M836 494.178C836.058 530.637 821.629 565.623 795.835 591.448C770.07 617.247 735.082 631.779 698.588 631.807H627.222C620.832 631.807 615.656 626.636 615.656 620.251C615.656 613.867 620.832 608.695 627.222 608.695H699.05C735.543 608.695 769.866 591.303 791.382 561.836C812.896 532.368 819.055 494.435 807.923 459.684C796.761 424.958 769.695 397.628 735.053 386.159C700.412 374.689 662.358 380.409 632.661 401.614C631.476 402.915 630.001 403.926 628.382 404.619C623.061 406.699 617.017 404.59 614.155 399.65C613.056 397.714 612.535 395.519 612.651 393.294C605.827 358.106 582.839 328.147 550.568 312.428C518.326 296.682 480.533 297.029 448.583 313.294C416.602 329.588 394.133 359.952 387.917 395.255C387.714 396.844 387.107 398.347 386.182 399.647C384.476 402.333 381.757 404.211 378.606 404.847C375.483 405.454 372.244 404.731 369.642 402.882C329.506 383.353 309.959 380.348 301.863 380.348C261.033 380.348 223.299 402.102 202.883 437.435C182.497 472.767 182.497 516.275 202.883 551.613C223.298 586.945 261.034 608.7 301.863 608.7H372.765C379.156 608.7 384.332 613.871 384.332 620.256C384.332 626.641 379.156 631.812 372.765 631.812H301.4C252.3 631.812 206.958 605.637 182.411 563.169C157.864 520.702 157.861 468.354 182.411 425.887C206.961 383.42 252.302 357.245 301.4 357.245C324.677 359.354 347.29 365.998 368.023 376.774C379.185 338.726 406.222 307.351 442.219 290.708C478.22 274.068 519.657 273.75 555.915 289.871C592.147 305.962 619.675 336.933 631.384 374.805C651.885 363.249 675.047 357.182 698.585 357.24C734.962 357.268 769.835 371.684 795.596 397.368C821.332 423.023 835.876 457.835 835.992 494.18L836 494.178ZM430.591 697.217V572.064H384.325C379.843 572.064 375.737 569.492 373.828 565.419C371.92 561.345 372.556 556.55 375.419 553.111L491.084 412.242C493.281 409.584 496.549 408.053 499.99 408.053C503.431 408.053 506.698 409.584 508.896 412.242L624.561 552.882C627.424 556.32 628.06 561.116 626.151 565.19C624.243 569.263 620.137 571.834 615.654 571.834H569.388V697.217C569.388 700.279 568.174 703.226 566.005 705.393C563.836 707.56 560.887 708.773 557.822 708.773H442.157C435.766 708.773 430.591 703.601 430.591 697.217ZM442.158 548.951C445.223 548.951 448.172 550.165 450.341 552.332C452.51 554.498 453.724 557.445 453.724 560.508V685.661H546.256V560.508C546.256 554.123 551.432 548.952 557.823 548.952H592.522L549.958 497.527L499.99 438.014L408.265 548.952L442.158 548.951ZM615.659 676.072C609.268 676.072 604.092 681.243 604.092 687.628V731.888H395.895V687.628C395.895 681.243 390.719 676.072 384.329 676.072C377.938 676.072 372.762 681.243 372.762 687.628V743.444C372.762 746.506 373.977 749.453 376.146 751.62C378.314 753.787 381.264 755 384.329 755H615.659C618.724 755 621.674 753.787 623.843 751.62C626.012 749.453 627.226 746.506 627.226 743.444V687.628C627.226 684.565 626.011 681.619 623.843 679.452C621.674 677.285 618.724 676.072 615.659 676.072Z" fill="white"/>
</svg>
