<svg width="1000" height="1000" viewBox="0 0 1000 1000" fill="none" xmlns="http://www.w3.org/2000/svg">
<circle cx="500" cy="500" r="500" fill="#5484DA"/>
<path d="M787.855 252.321C774.902 225.496 751.539 205.21 715.753 205.306C680.138 204.347 644.59 208.411 610.389 217.351C526.182 242.989 484.98 299.819 457.623 370.819C451.523 356.811 448.013 348.168 443.984 339.718C412.182 273.395 343.175 256.818 274.768 299.782C261.795 308.123 250.492 318.4 241.341 330.174C193.451 390.856 189.406 456.208 219.66 522.378C265.075 621.868 350.306 699.512 442.989 771.112C462.214 785.881 490.834 792.631 515.281 802.73C516.895 803.416 520.093 801.389 524.537 799.976L492.875 782.589C547.655 707.591 601.162 634.044 655.553 560.642C695.319 506.66 738.975 454.327 774.336 398.558C803.226 353.044 812.324 302.888 787.855 252.321ZM732.927 236.916C649.281 234.827 586.916 266.398 527.716 316.675C572.311 247.953 680.833 206.879 732.927 236.916ZM306.909 302.175L252.622 391.18C257.71 361.308 259.889 321.867 306.909 302.175ZM225.422 407.114C235.844 453.909 246.397 502.038 257.741 551.844C229.026 504.626 213.814 457.373 225.422 407.114ZM534.614 645.631C510.481 682.336 495.379 722.619 474.106 766.759C449.627 747.193 427.036 730.183 405.86 712.058C310.128 630.286 270.834 531.071 272.328 420.888C273.264 394.213 280.954 368.103 294.807 344.561C317.419 305.571 373.66 304.125 398.128 342.691C417.741 373.931 426.822 409.71 439.172 443.661C442.991 456.584 445.887 469.713 447.841 482.968L483.272 487.801C483.384 478.602 483.48 470.803 483.575 463.004C484.704 370.683 565.626 281.738 671.305 255.963C707.567 247.14 720.9 248.969 747.897 267.766C748.185 322.637 725.971 371.3 694.422 417.115C641.984 493.675 585.51 568.452 534.614 645.631ZM669.101 508.673C693.111 469.966 718.515 432.009 740.841 392.282C763.167 352.554 781.16 311.107 767.996 265.345C810.652 331.001 743.751 437.918 669.101 508.673Z" fill="white"/>
</svg>
