<svg width="1000" height="1000" viewBox="0 0 1000 1000" fill="none" xmlns="http://www.w3.org/2000/svg">
<circle cx="500" cy="500" r="500" fill="#5484DA"/>
<path d="M510.612 814.202H483.537C469.203 814.202 457.51 801.176 457.51 785.183V770.921C457.51 766.84 460.905 763.501 465.054 763.501C469.203 763.501 472.598 766.84 472.598 770.921V785.183C472.598 792.891 477.586 799.363 483.537 799.363H510.612C516.521 799.363 521.55 792.85 521.55 785.183V770.921C521.55 766.84 524.945 763.501 529.094 763.501C533.244 763.501 536.638 766.84 536.638 770.921V785.183C536.597 801.176 524.945 814.202 510.612 814.202Z" fill="white"/>
<path d="M529.052 778.341H465.053C448.289 778.341 434.71 764.944 434.71 748.497V720.138C434.71 716.057 438.105 712.718 442.254 712.718C446.403 712.718 449.798 716.057 449.798 720.138V748.497C449.798 756.741 456.629 763.502 465.053 763.502H529.136C537.518 763.502 544.391 756.783 544.391 748.497V720.138C544.391 716.057 547.786 712.718 551.935 712.718C556.085 712.718 559.48 716.057 559.48 720.138V748.497C559.396 764.944 545.775 778.341 529.052 778.341Z" fill="white"/>
<path d="M617.149 628.587C616.94 628.587 616.688 628.587 616.479 628.546C612.329 628.175 609.27 624.589 609.605 620.508L610.36 612.264C612.497 585.677 617.401 559.42 624.903 534.234C632.572 508.595 642.966 483.946 655.875 460.945C669.957 435.842 677.543 407.359 677.92 378.546C678.507 331.39 660.444 286.955 627.04 253.401C593.679 219.889 548.918 201.217 500.971 200.846C500.468 200.846 499.965 200.846 499.462 200.846C452.061 200.846 407.509 218.9 373.812 251.752C339.822 284.935 321.088 329.205 321.088 376.32C321.088 404.638 327.71 431.637 340.828 456.617C353.946 481.637 364.299 507.854 371.633 534.564C379.051 561.728 383.41 589.552 384.5 617.252C384.5 617.334 384.5 617.458 384.5 617.54V621.168C384.5 625.249 381.105 628.587 376.956 628.587C372.807 628.587 369.412 625.249 369.412 621.168V617.705C367.232 564.366 353.108 512.47 327.417 463.418C313.209 436.336 306 407.029 306 376.32C306 350.475 311.155 325.454 321.381 301.876C331.231 279.123 345.313 258.677 363.251 241.2C381.189 223.723 402.061 210.038 425.279 200.516C449.337 190.664 474.86 185.8 501.139 186.006C527.417 186.212 552.773 191.489 576.621 201.629C599.63 211.439 620.251 225.372 637.853 243.055C655.456 260.738 669.203 281.307 678.717 304.143C688.524 327.804 693.344 352.907 693.05 378.752C692.673 409.997 684.375 440.912 669.119 468.117C644.308 512.347 629.597 561.275 625.448 613.46C625.448 613.501 625.448 613.501 625.448 613.542L624.693 621.827C624.316 625.702 621.005 628.587 617.149 628.587Z" fill="white"/>
<path d="M517.819 733.369H476.285C463.712 733.369 451.39 731.226 439.696 726.98C433.242 724.672 426.913 721.663 420.92 718.076C420.166 717.623 419.495 717.211 418.825 716.757C414.717 714.16 410.82 711.316 407.173 708.266C404.491 706.04 401.892 703.608 399.42 701.094C397.156 698.785 394.977 696.353 393.007 693.921C390.66 691.036 388.397 687.986 386.385 684.853C386.218 684.606 386.05 684.317 385.882 684.07C382.99 679.577 380.392 674.795 378.213 669.849C378.087 669.601 378.003 669.354 377.877 669.107C376.62 666.221 375.153 662.099 374.189 659.09C374.147 658.925 374.063 658.761 374.021 658.596C373.98 658.431 373.938 658.266 373.896 658.101C373.435 656.535 372.806 654.432 372.429 652.866C371.842 650.516 371.339 648.126 370.92 645.652C370.459 642.932 370.082 640.047 369.83 637.202C369.788 636.749 369.746 636.296 369.746 635.883C369.537 633.369 369.453 630.813 369.453 628.258V621.168C369.453 617.087 372.848 613.748 376.997 613.748H617.191C621.34 613.748 624.735 617.087 624.735 621.168V628.258C624.735 630.813 624.651 633.369 624.441 635.883C624.399 636.337 624.399 636.79 624.357 637.244C624.106 640.088 623.729 642.973 623.268 645.735C622.849 648.167 622.346 650.558 621.801 652.907C621.382 654.597 620.921 656.287 620.418 657.854C620.208 658.513 619.999 659.214 619.705 660.08C618.699 663.13 617.568 666.18 616.31 669.148C616.227 669.395 616.101 669.643 615.975 669.89C613.796 674.836 611.197 679.618 608.305 684.111C608.138 684.358 607.97 684.647 607.802 684.894C605.749 688.027 603.528 691.077 601.139 693.963C599.169 696.395 597.031 698.785 594.726 701.135C592.253 703.649 589.655 706.04 586.973 708.307C583.326 711.357 579.429 714.202 575.363 716.757C574.651 717.211 573.98 717.623 573.226 718.076C567.232 721.663 560.904 724.672 554.449 726.98C542.714 731.226 530.392 733.369 517.819 733.369ZM388.397 654.268C389.235 656.864 390.66 660.822 391.75 663.377C391.792 663.418 391.792 663.501 391.834 663.542C391.876 663.666 391.918 663.789 392.001 663.913C392.001 663.913 392.001 663.954 392.043 663.954C393.929 668.241 396.151 672.363 398.665 676.238C398.707 676.32 398.749 676.403 398.791 676.485C398.833 676.568 398.875 676.65 398.959 676.733C399.001 676.774 399.001 676.815 399.042 676.856C400.803 679.536 402.731 682.174 404.784 684.688C406.503 686.79 408.347 688.851 410.317 690.871C412.412 693.015 414.675 695.117 416.98 697.013C420.124 699.651 423.477 702.083 426.955 704.309C427.584 704.68 428.171 705.051 428.716 705.381C428.716 705.381 428.758 705.381 428.758 705.422C433.913 708.513 439.361 711.11 444.893 713.089C454.952 716.716 465.514 718.571 476.285 718.571H517.819C528.59 718.571 539.152 716.716 549.211 713.089C554.785 711.11 560.191 708.513 565.346 705.422C565.346 705.422 565.388 705.422 565.388 705.381C565.975 705.051 566.562 704.68 567.19 704.268C570.669 702.083 574.022 699.61 577.165 697.013C579.47 695.075 581.734 693.014 583.829 690.83C585.799 688.851 587.643 686.749 589.32 684.688C591.373 682.174 593.301 679.536 595.061 676.856C595.103 676.815 595.103 676.774 595.145 676.733C595.187 676.65 595.271 676.568 595.313 676.485C595.355 676.403 595.397 676.32 595.439 676.279C597.953 672.404 600.175 668.282 602.061 663.995C602.061 663.995 602.061 663.954 602.103 663.954C602.144 663.831 602.228 663.707 602.27 663.583C602.312 663.542 602.312 663.46 602.354 663.418C603.444 660.904 604.45 658.266 605.288 655.628C605.288 655.587 605.288 655.587 605.33 655.545C605.581 654.845 605.749 654.309 605.875 653.773C605.875 653.732 605.875 653.69 605.916 653.69C606.336 652.33 606.713 650.887 607.09 649.445C607.593 647.466 608.012 645.405 608.347 643.303C608.766 640.912 609.06 638.48 609.311 636.007C609.353 635.636 609.353 635.306 609.395 634.976C609.395 634.935 609.395 634.894 609.395 634.853C609.563 632.792 609.647 630.69 609.647 628.587H384.499C384.499 630.69 384.583 632.792 384.751 634.853C384.751 634.894 384.751 634.935 384.751 634.976C384.751 635.306 384.793 635.636 384.835 635.966C385.044 638.439 385.379 640.871 385.757 643.22C386.134 645.364 386.553 647.425 387.014 649.404C387.391 650.805 387.978 652.907 388.397 654.268Z" fill="white"/>
<path d="M613.041 663.336H381.021C376.871 663.336 373.477 659.997 373.477 655.916C373.477 651.835 376.871 648.497 381.021 648.497H613.041C617.191 648.497 620.585 651.835 620.585 655.916C620.585 659.997 617.232 663.336 613.041 663.336Z" fill="white"/>
<path d="M594.181 697.837H399.839C395.69 697.837 392.295 694.498 392.295 690.418C392.295 686.337 395.69 682.998 399.839 682.998H594.14C598.289 682.998 601.684 686.337 601.684 690.418C601.684 694.498 598.331 697.837 594.181 697.837Z" fill="white"/>
<path d="M461.365 628.588C457.216 628.588 453.821 625.249 453.821 621.169V397.343C453.821 393.262 457.216 389.923 461.365 389.923C465.514 389.923 468.909 393.262 468.909 397.343V621.21C468.909 625.291 465.514 628.588 461.365 628.588Z" fill="white"/>
<path d="M537.643 628.588C533.494 628.588 530.099 625.249 530.099 621.169V397.343C530.099 393.262 533.494 389.923 537.643 389.923C541.792 389.923 545.187 393.262 545.187 397.343V621.21C545.187 625.291 541.792 628.588 537.643 628.588Z" fill="white"/>
<path d="M499.504 628.588C495.355 628.588 491.96 625.249 491.96 621.168V397.26C491.96 393.18 495.355 389.841 499.504 389.841C503.653 389.841 507.048 393.18 507.048 397.26V621.21C507.048 625.291 503.653 628.588 499.504 628.588Z" fill="white"/>
<path d="M537.643 404.762H461.365C458.892 404.762 456.587 403.567 455.204 401.588C453.779 399.61 453.444 397.095 454.282 394.787L492.421 291.201C493.511 288.274 496.319 286.295 499.504 286.295C502.689 286.295 505.497 288.233 506.587 291.201L544.726 394.787C545.565 397.054 545.229 399.61 543.804 401.588C542.421 403.567 540.116 404.762 537.643 404.762ZM472.136 389.923H526.914L499.504 315.562L472.136 389.923Z" fill="white"/>
<path d="M517.023 348.744H481.985C477.836 348.744 474.441 345.405 474.441 341.324C474.441 337.244 477.836 333.905 481.985 333.905H517.023C521.172 333.905 524.567 337.244 524.567 341.324C524.567 345.405 521.172 348.744 517.023 348.744Z" fill="white"/>
</svg>
