<svg width="1000" height="1000" viewBox="0 0 1000 1000" fill="none" xmlns="http://www.w3.org/2000/svg">
<circle cx="500" cy="500" r="500" fill="#5484DA"/>
<path d="M276.252 806.265V733.052H252.85C217.124 733.052 188 703.928 188 668.202V480.4C188 444.674 217.124 415.55 252.85 415.55H567.198C602.924 415.55 632.048 444.674 632.048 480.4V668.202C632.048 703.928 602.924 733.052 567.198 733.052H384.678L276.179 806.265H276.252ZM252.85 437.558C229.228 437.558 210.008 456.778 210.008 480.4V668.202C210.008 691.823 229.228 711.044 252.85 711.044H298.26V764.89L378.002 711.044H567.198C590.82 711.044 610.04 691.823 610.04 668.202V480.4C610.04 456.778 590.82 437.558 567.198 437.558H252.85Z" fill="white"/>
<path d="M352.547 572.171H269.063V594.179H352.547V572.171Z" fill="white"/>
<path d="M438.011 639.81H269.063V661.818H438.011V639.81Z" fill="white"/>
<path d="M714.358 358.327H438.451V380.335H714.358V358.327Z" fill="white"/>
<path d="M714.285 435.062H608.573V457.07H714.285V435.062Z" fill="white"/>
<path d="M714.358 511.871H621.044V533.879H714.358V511.871Z" fill="white"/>
<path d="M580.403 573.199L495.525 552.732V486.634L580.403 466.167V573.273V573.199ZM517.533 535.419L558.395 545.249V494.044L517.533 503.874V535.345V535.419Z" fill="white"/>
<path d="M517.46 573.639H386.219V465.727H517.46V573.639ZM408.227 551.631H495.452V487.735H408.227V551.631Z" fill="white"/>
<path d="M702.327 603.865H621.044V581.857H702.327C750.304 581.857 789.405 546.644 789.405 503.288V378.577C789.405 335.221 750.378 300.008 702.327 300.008H450.409C402.431 300.008 363.331 335.294 363.331 378.577V426.554H341.323V378.577C341.323 323.116 390.254 278 450.409 278H702.327C762.482 278 811.413 323.116 811.413 378.577V503.362C811.413 558.822 762.482 603.938 702.327 603.938V603.865Z" fill="white"/>
</svg>
