<svg width="18" height="18" viewBox="0 0 18 18" fill="none" xmlns="http://www.w3.org/2000/svg">
<path d="M9 4.25C13.0205 4.25 15.26 6.4973 17.6777 9.5C15.26 12.5027 13.0205 14.75 9 14.75C4.97926 14.75 2.73921 12.5029 0.321289 9.5C1.47313 8.06977 2.59252 6.80443 3.87207 5.87988C5.26465 4.87259 6.88003 4.25 9 4.25ZM9 5.74414C6.94944 5.74414 5.29299 7.42896 5.29297 9.5C5.29297 12.8298 9.28801 14.5235 11.623 12.1553C13.9466 9.79878 12.2993 5.74416 9 5.74414ZM6.9834 9.5C6.9834 7.73137 9.02812 6.82787 10.3037 7.93652L10.4248 8.0498C11.214 8.85026 11.214 10.1497 10.4248 10.9502C9.16253 12.2304 6.98341 11.3258 6.9834 9.5Z" stroke="black" stroke-width="0.5"/>
</svg>
