<svg width="18" height="18" viewBox="0 0 18 18" fill="none" xmlns="http://www.w3.org/2000/svg">
<g clip-path="url(#clip0_1_7)">
<path fill-rule="evenodd" clip-rule="evenodd" d="M6.16445 17.9791C5.76812 17.8716 5.43079 17.7161 5.15247 17.5145C5.07496 17.4584 5.00274 17.3987 4.93404 17.3364C4.87679 17.4403 4.80633 17.5344 4.7253 17.6184L4.72442 17.6193C4.49543 17.8544 4.18011 17.9999 3.83311 17.9999H1.26386C0.915956 17.9999 0.599777 17.8544 0.370788 17.6193C0.141799 17.3843 0 17.0597 0 16.7027V8.51753C0 8.17219 0.133874 7.85667 0.35142 7.62253C0.357585 7.6153 0.363751 7.60807 0.370797 7.60083C0.599786 7.36579 0.915987 7.22024 1.26387 7.22024H3.83222C4.16954 7.22024 4.47693 7.35766 4.70416 7.58095C4.71121 7.58728 4.71825 7.59361 4.7253 7.60084C4.87855 7.75815 4.99305 7.95614 5.05205 8.17672C5.89581 7.64968 6.55462 6.86768 7.02845 5.82882C7.59564 4.58487 7.90127 2.97571 7.9453 1.00042C7.94619 0.947079 7.95852 0.897358 7.98053 0.853059H7.97965C8.03514 0.73915 8.09679 0.635185 8.16373 0.541156C8.37159 0.250058 8.62613 0.0764826 8.9247 0.0195267C9.20918 -0.0347144 9.51832 0.024047 9.85301 0.195815C10.0001 0.27085 10.1498 0.366678 10.3031 0.482399C10.3136 0.490536 10.3242 0.499576 10.3339 0.508616C11.0543 1.1984 11.5317 2.07984 11.766 3.1502C11.973 4.09765 11.9888 5.19242 11.8127 6.43194L14.9587 6.49522H14.9605C15.3709 6.50516 15.7294 6.54223 16.035 6.60551C16.3608 6.67331 16.6303 6.77095 16.8426 6.89751C16.8479 6.90113 16.8541 6.90474 16.8593 6.90836C17.4424 7.27359 17.8035 7.73284 17.94 8.28701C18.066 8.79869 17.9937 9.37457 17.7216 10.0128C17.8608 10.5173 17.8748 11.0009 17.7947 11.4285C17.7093 11.8815 17.5181 12.2738 17.2566 12.5658C17.3209 13.1092 17.2839 13.619 17.1614 14.0738C17.0285 14.5701 16.7942 15.0013 16.4789 15.3394C16.389 15.8059 16.271 16.2155 16.1248 16.5671C15.9619 16.9595 15.7619 17.284 15.5241 17.5417L15.5197 17.5462L15.5206 17.5471C15.3955 17.6782 15.2537 17.7812 15.0961 17.8572C14.9402 17.9322 14.7711 17.9792 14.5879 17.9973C14.5773 17.9982 14.5668 17.9991 14.5562 17.9991V18H6.28161C6.24022 18 6.20144 17.9927 6.16445 17.9791ZM4.42056 16.5489V8.51842C4.42056 8.35298 4.3545 8.202 4.24794 8.09263L4.23472 8.07816C4.12903 7.97691 3.9881 7.91544 3.83311 7.91544L1.26386 7.91453C1.10269 7.91453 0.955599 7.98233 0.849041 8.09172C0.844638 8.09624 0.839353 8.10167 0.834069 8.10619C0.736306 8.21377 0.675535 8.3584 0.675535 8.51751V16.7026C0.675535 16.8681 0.741591 17.0191 0.84816 17.1284C0.95473 17.2378 1.10182 17.3056 1.26298 17.3056H3.83133C3.99339 17.3056 4.14048 17.2378 4.24706 17.1293C4.35363 17.0199 4.4188 16.869 4.4188 16.7026L4.42056 16.5489ZM5.54088 16.9476C5.75226 17.1004 6.01208 17.2207 6.31946 17.3056H14.5483C14.6434 17.2939 14.7315 17.2686 14.8099 17.2306C14.8927 17.1908 14.9693 17.1339 15.0389 17.0615L15.0397 17.0625C15.2177 16.8681 15.3718 16.6131 15.5039 16.2967C15.6413 15.9659 15.7514 15.5735 15.8333 15.1179C15.8439 15.0446 15.8782 14.9741 15.9346 14.919C16.2023 14.6568 16.4005 14.3051 16.5115 13.892C16.6207 13.4861 16.6453 13.0196 16.5696 12.5169C16.5441 12.3985 16.5802 12.2683 16.6744 12.1824C16.8964 11.9799 17.061 11.6708 17.1315 11.2983C17.1984 10.9412 17.1791 10.529 17.0408 10.0959C17.0152 10.0146 17.0188 9.92416 17.0566 9.84098C17.3041 9.30308 17.3808 8.84112 17.2856 8.45508C17.194 8.08532 16.9351 7.7671 16.507 7.49952L16.5026 7.4968C16.3512 7.4055 16.1512 7.33498 15.9037 7.28345C15.6369 7.2283 15.3172 7.19576 14.9455 7.18672L11.4392 7.1162C11.4136 7.11801 11.3872 7.1162 11.3608 7.11168C11.1767 7.07914 11.0543 6.89923 11.086 6.71028C11.3106 5.3931 11.3176 4.25662 11.1089 3.30195C10.9063 2.37712 10.4994 1.61955 9.88816 1.0283C9.7675 0.938801 9.65566 0.866478 9.55259 0.814045C9.35355 0.711887 9.18444 0.673918 9.04704 0.700135C8.92374 0.72364 8.811 0.806812 8.70796 0.950547C8.67713 0.993941 8.6463 1.04276 8.61724 1.09791C8.56351 3.13381 8.23763 4.80802 7.63874 6.12164C7.05127 7.4108 6.20311 8.3519 5.09699 8.94583V16.4621C5.20621 16.6502 5.35415 16.8129 5.54088 16.9476Z" fill="black"/>
</g>
<defs>
<clipPath id="clip0_1_7">
<rect width="18" height="18" fill="white"/>
</clipPath>
</defs>
</svg>
