<svg width="800" height="800" viewBox="0 0 800 800" fill="none" xmlns="http://www.w3.org/2000/svg">
<path d="M306.251 760.262C300.157 760.262 294.064 759.442 287.97 757.567C264.181 750.067 248.947 728.974 234.298 708.466C224.572 694.989 215.431 682.099 204.767 674.482C193.869 666.747 178.635 662.177 162.463 657.49C138.44 650.458 113.713 643.076 98.9477 623.388C84.4165 603.818 84.5337 578.154 84.5337 553.194C84.6509 536.201 84.6509 520.264 80.315 507.256C76.3306 495.069 66.8385 482.882 56.8776 469.874C41.2918 449.835 25.2372 429.093 25.0029 403.663C24.7685 378.234 40.3543 357.14 55.3542 336.75C65.0807 323.625 74.3385 311.086 78.0884 298.898C82.19 285.891 81.7212 269.836 81.3697 252.844C80.7837 228 80.0806 202.219 94.143 182.415C108.44 162.376 133.049 154.524 156.838 146.907C172.892 141.751 188.01 136.946 198.791 128.978C209.338 121.126 218.244 108.118 227.619 94.4077C241.798 73.6656 256.447 52.1033 280.118 44.1346C302.735 36.5174 326.993 44.4861 350.43 52.2204C366.016 57.3767 381.954 62.8844 396.25 62.5329C410.313 62.4157 426.367 56.6735 441.836 51.283C465.039 43.0799 489.062 34.5253 511.914 41.6736C535.702 49.1736 550.937 70.2672 565.585 90.7749C575.312 104.251 584.452 117.142 595.116 124.759C606.014 132.493 621.249 137.064 637.42 141.751C661.444 148.782 686.17 156.165 700.936 175.852C715.467 195.423 715.35 221.086 715.35 246.047C715.232 263.039 715.232 278.977 719.568 291.984C723.67 304.172 733.162 316.359 743.123 329.367C758.591 349.406 774.646 370.148 774.998 395.577C775.232 421.007 759.646 442.101 744.646 462.491C734.92 475.616 725.662 488.155 721.912 500.342C717.811 513.35 718.279 529.405 718.631 546.397C719.217 571.24 719.92 597.021 705.857 616.826C691.561 636.865 666.952 644.716 643.163 652.333C627.108 657.49 611.991 662.294 601.21 670.263C590.663 678.115 581.757 691.122 572.382 704.833C558.202 725.575 543.554 747.138 519.882 755.106C497.265 762.723 473.008 754.755 449.57 747.02C433.984 741.864 417.813 736.474 403.75 736.708C389.688 736.825 373.633 742.567 358.165 747.958C340.938 754.052 323.36 760.262 306.251 760.262ZM300.04 63.7047C295.587 63.7047 291.368 64.2907 287.501 65.5797C271.095 71.0875 259.142 88.5483 246.486 107.064C236.408 121.712 226.095 136.946 212.502 147.024C198.674 157.337 180.978 162.962 163.869 168.352C142.658 175.149 122.619 181.477 112.776 195.423C103.049 209.133 103.635 229.993 104.221 252.141C104.69 270.188 105.159 288.82 100.002 305.461C95.0805 321.398 84.2993 335.929 73.8697 350.109C60.3932 368.273 47.7371 385.499 47.9714 403.312C48.2058 421.124 61.2135 437.999 75.0416 455.929C85.8227 469.757 96.8383 484.171 102.229 499.991C107.854 516.514 107.737 535.147 107.619 553.194C107.268 575.342 107.268 596.318 117.229 609.795C127.424 623.506 147.58 629.365 168.908 635.693C186.135 640.732 203.947 646.005 218.009 655.966C231.837 665.81 242.501 680.81 252.814 695.224C265.822 713.505 278.126 730.731 294.767 735.888C310.352 740.809 329.805 733.895 350.43 726.63C367.657 720.536 385.586 714.208 403.399 713.974C403.633 713.974 403.985 713.974 404.219 713.974C421.797 713.974 439.492 719.833 456.601 725.458C477.343 732.255 497.031 738.817 512.499 733.544C528.906 728.036 540.859 710.575 553.515 692.06C563.593 677.411 573.905 662.177 587.499 652.099C601.327 641.787 619.022 636.162 636.131 630.771C657.342 623.974 677.381 617.646 687.225 603.701C696.951 589.99 696.365 569.131 695.779 546.983C695.311 528.936 694.842 510.303 699.998 493.663C704.92 477.725 715.701 463.194 726.131 449.015C739.607 430.851 752.263 413.624 752.029 395.812C751.795 377.999 738.787 361.125 724.959 343.195C714.178 329.367 703.162 314.953 697.772 299.133C692.147 282.609 692.264 263.977 692.381 245.93C692.498 223.782 692.498 202.923 682.537 189.446C672.342 175.735 652.186 169.876 630.858 163.548C613.632 158.509 595.819 153.235 581.757 143.275C568.163 133.314 557.499 118.314 547.187 103.9C534.179 85.6187 521.874 68.3922 505.234 63.236C489.648 58.3142 470.195 65.2282 449.57 72.4938C432.344 78.5875 414.414 84.9155 396.602 85.1499C396.367 85.1499 396.016 85.1499 395.782 85.1499C378.204 85.1499 360.508 79.2906 343.399 73.6656C327.813 68.6266 313.048 63.7047 300.04 63.7047Z" fill="#A44294"/>
<path d="M278.594 564.326H217.774C206.29 564.326 197.032 555.068 197.032 543.584V361.007C197.032 349.523 206.29 340.265 217.774 340.265H278.594C290.079 340.265 299.336 349.523 299.336 361.007V543.467C299.336 554.951 290.079 564.326 278.594 564.326ZM219.767 541.592H276.602V362.999H219.767V541.592Z" fill="#A44294"/>
<path d="M479.101 563.388C478.632 563.388 478.163 563.388 477.695 563.388L361.328 561.631C331.68 561.162 302.969 550.263 280.587 530.693C275.899 526.592 275.313 519.443 279.532 514.639C283.634 509.951 290.899 509.482 295.587 513.584C313.868 529.521 337.422 538.545 361.68 538.896L478.046 540.654C478.398 540.654 478.749 540.654 479.101 540.654C511.445 540.654 539.569 518.975 547.89 487.686L576.835 377.999C578.827 370.265 577.303 362.179 572.382 355.851C567.46 349.523 560.077 345.89 552.108 345.89H474.413C465.39 345.89 456.836 341.437 451.562 334.054C446.289 326.671 445 317.179 448.046 308.624L473.71 236.672C477.46 226.125 472.656 214.641 462.578 209.836C452.148 204.914 439.726 209.016 434.218 219.094C393.32 293.507 346.328 349.64 294.649 385.968C289.493 389.6 282.462 388.311 278.829 383.272C275.196 378.116 276.485 371.085 281.524 367.452C330.391 333.116 375.039 279.562 414.297 208.195C425.664 187.571 451.211 179.25 472.421 189.446C493.046 199.289 502.773 222.961 495.156 244.523L469.492 316.476C468.671 318.703 469.492 320.343 470.078 321.163C470.664 321.984 471.953 323.39 474.296 323.39H551.991C567.108 323.39 581.053 330.304 590.311 342.257C599.569 354.21 602.616 369.444 598.749 384.093L569.803 493.779C558.905 534.795 521.64 563.388 479.101 563.388Z" fill="#A44294"/>
</svg>
