<svg width="18" height="18" viewBox="0 0 18 18" fill="none" xmlns="http://www.w3.org/2000/svg">
<g clip-path="url(#clip0_2_17)">
<path fill-rule="evenodd" clip-rule="evenodd" d="M0.961479 18H3.6296C4.15867 18 4.59105 17.5557 4.59105 17.0121L4.59193 8.49887C4.59193 7.95521 4.15953 7.51092 3.63047 7.51092L0.961458 7.51002C0.432379 7.51002 0 7.95433 0 8.49797V17.0111C0 17.5557 0.432423 18 0.961479 18ZM6.17487 18C5.78114 17.8961 5.44981 17.7444 5.18263 17.5458C5.238 17.3778 5.26788 17.1981 5.26788 17.0121L5.267 8.49887C5.267 8.44378 5.26437 8.38869 5.25909 8.33451C7.1706 7.02868 8.16907 4.47926 8.25344 0.68735C8.65331 -0.134446 9.28433 -0.219337 10.1465 0.432676C11.5386 1.7674 11.9938 3.84983 11.5122 6.68186L15.1849 6.75591C15.9979 6.77668 16.5937 6.89949 16.9716 7.12617C18.0351 7.78633 18.2741 8.75351 17.687 10.0296C18.028 11.1016 17.7538 12.0796 17.2063 12.5798C17.3917 13.7674 17.0815 14.7933 16.4461 15.4172C16.265 16.4268 15.9583 17.1664 15.525 17.6369C15.3229 17.8492 15.0724 17.9693 14.7727 17.9991H14.4607L6.17487 18Z" fill="black"/>
</g>
<defs>
<clipPath id="clip0_2_17">
<rect width="18" height="18" fill="white"/>
</clipPath>
</defs>
</svg>
