<svg width="800" height="800" viewBox="0 0 800 800" fill="none" xmlns="http://www.w3.org/2000/svg">
<rect x="25" y="351.084" width="172.925" height="401.632" rx="42.7664" fill="#A44294"/>
<rect x="490.364" y="55.4376" width="124.553" height="512.449" rx="53.9229" transform="rotate(34.4779 490.364 55.4376)" fill="#A44294"/>
<rect x="396.882" y="330.63" width="342.131" height="195.238" fill="#A44294"/>
<rect x="376.428" y="481.242" width="342.131" height="195.238" rx="97.619" fill="#A44294"/>
<rect x="303.911" y="525.868" width="342.131" height="195.238" fill="#A44294"/>
<rect x="225.816" y="364.1" width="180.363" height="345.85" fill="#A44294"/>
<rect x="151.44" y="397.569" width="180.363" height="299.365" fill="#A44294"/>
<rect x="277.88" y="302.739" width="180.363" height="299.365" fill="#A44294"/>
<rect x="331.802" y="261.832" width="180.363" height="299.365" fill="#A44294"/>
<path d="M176.657 753.144H63.568C42.214 753.144 25 735.93 25 714.576V375.091C25 353.737 42.214 336.523 63.568 336.523H176.657C198.011 336.523 215.225 353.737 215.225 375.091V714.359C215.225 735.713 198.011 753.144 176.657 753.144ZM67.2722 710.872H172.953V378.796H67.2722V710.872Z" fill="black"/>
<path d="M549.481 751.401C548.609 751.401 547.737 751.401 546.866 751.401L330.493 748.132C275.365 747.261 221.98 726.996 180.361 690.607C171.645 682.981 170.556 669.689 178.4 660.755C186.027 652.039 199.536 651.168 208.252 658.794C242.244 688.428 286.042 705.206 331.147 705.86L547.52 709.129C548.173 709.129 548.827 709.129 549.481 709.129C609.62 709.129 661.916 668.817 677.387 610.639L731.208 406.686C734.912 392.305 732.079 377.27 722.927 365.503C713.776 353.737 700.048 346.982 685.231 346.982H540.765C523.987 346.982 508.08 338.702 498.275 324.974C488.469 311.247 486.072 293.597 491.738 277.691L539.457 143.901C546.43 124.29 537.496 102.936 518.757 94.0025C499.364 84.8508 476.267 92.4772 466.026 111.216C389.979 249.582 302.602 353.955 206.509 421.503C196.922 428.258 183.848 425.861 177.093 416.492C170.338 406.904 172.735 393.83 182.105 387.075C272.968 323.231 355.987 223.652 428.983 90.9519C450.119 52.6019 497.621 37.1311 537.06 56.0882C575.41 74.3917 593.496 118.407 579.333 158.5L531.613 292.29C530.088 296.43 531.613 299.48 532.702 301.006C533.792 302.531 536.189 305.146 540.547 305.146H685.013C713.122 305.146 739.052 318.002 756.266 340.227C773.48 362.453 779.145 390.78 771.954 418.017L718.134 621.969C697.869 698.234 628.578 751.401 549.481 751.401Z" fill="black"/>
</svg>
