<svg width="18" height="18" viewBox="0 0 18 18" fill="none" xmlns="http://www.w3.org/2000/svg">
<g clip-path="url(#clip0_2_12)">
<path d="M3.63086 7.76074C4.01532 7.76096 4.3418 8.08713 4.3418 8.49902L4.34082 17.0117C4.34082 17.4236 4.0144 17.7498 3.62988 17.75H0.961914C0.577427 17.75 0.25 17.4238 0.25 17.0107V8.49805C0.25 8.08622 0.576521 7.76006 0.960938 7.75977L3.63086 7.76074ZM9.05957 0.254883C9.27424 0.226003 9.57585 0.317515 9.98145 0.621094C11.282 1.87443 11.7395 3.85294 11.2656 6.63965L11.2168 6.92578L11.5068 6.93164L15.1787 7.00488V7.00586C15.8793 7.02377 16.382 7.11897 16.7119 7.27148L16.8428 7.34082C17.332 7.64533 17.6054 8.0029 17.7051 8.40723C17.8061 8.81737 17.7391 9.31786 17.46 9.9248L17.4189 10.0127L17.4492 10.1055C17.7668 11.1041 17.4994 11.974 17.0381 12.3955L16.9385 12.4854L16.959 12.6182C17.135 13.7452 16.8358 14.6842 16.2705 15.2393L16.2139 15.2949L16.2002 15.373C16.0231 16.3606 15.7282 17.0454 15.3418 17.4658C15.1841 17.6306 14.9926 17.7241 14.7539 17.749H6.21191C5.92181 17.6701 5.67589 17.5643 5.46973 17.4355C5.5 17.2987 5.51758 17.1569 5.51758 17.0117L5.5166 8.49902C5.5166 8.48572 5.51492 8.47229 5.51465 8.45898C7.43881 7.07063 8.40734 4.46888 8.5 0.754883C8.67491 0.415315 8.86747 0.280851 9.05957 0.254883Z" stroke="black" stroke-width="0.5"/>
</g>
<defs>
<clipPath id="clip0_2_12">
<rect width="18" height="18" fill="white"/>
</clipPath>
</defs>
</svg>
