<svg width="150" height="150" viewBox="0 0 150 150" fill="none" xmlns="http://www.w3.org/2000/svg">
<path d="M125.863 72.0756L66.7775 32.451L66.7733 32.4487L26.405 5.37199C26.076 5.15069 25.6929 5.02309 25.2969 5.00285C24.9009 4.98261 24.5069 5.0705 24.157 5.25711C23.8071 5.44372 23.5146 5.722 23.3108 6.06215C23.1069 6.4023 22.9995 6.79149 23 7.18802V142.812C23 143.212 23.1092 143.603 23.3159 143.945C23.5225 144.286 23.8187 144.565 24.1723 144.75C24.5259 144.935 24.9235 145.02 25.322 144.996C25.7204 144.971 26.1046 144.838 26.4328 144.611L67.6861 116.018L125.891 75.6923C126.184 75.4893 126.423 75.2177 126.587 74.9013C126.752 74.5848 126.836 74.2331 126.833 73.8766C126.831 73.5201 126.741 73.1697 126.572 72.8558C126.403 72.542 126.16 72.2741 125.863 72.0756ZM27.375 11.2893L62.8897 35.1105L55.8871 53.3495L54.29 57.5131L53.6063 57.8397L27.375 70.4178V11.2893ZM56.0943 61.4991L87.3346 74.4939L57.0666 87.243L30.182 73.9266L56.0943 61.4991ZM27.375 138.634V77.4206L55.2548 91.2311L62.2445 109.402L63.7806 113.401L27.375 138.634ZM67.4826 110.835L59.7943 90.8433L93.8479 76.4987C94.2455 76.3316 94.5849 76.0506 94.8233 75.691C95.0616 75.3315 95.1883 74.9095 95.1874 74.4782C95.1864 74.0468 95.0579 73.6254 94.8181 73.2669C94.5782 72.9084 94.2376 72.6288 93.8392 72.4634L58.8288 57.8967L66.6174 37.6109L120.76 73.9224L67.4826 110.835Z" fill="#663366"/>
</svg>
