<svg width="18" height="18" viewBox="0 0 18 18" fill="none" xmlns="http://www.w3.org/2000/svg">
<path fill-rule="evenodd" clip-rule="evenodd" d="M3.72601 5.67769C2.3703 6.65726 1.19755 8.00404 0 9.5C2.47031 12.5857 4.78406 15 9 15C13.2159 15 15.5297 12.5857 18 9.5C15.5297 6.4143 13.2159 4 9 4C6.82416 4 5.1585 4.64153 3.72601 5.67769ZM10.603 7.87423C11.4882 8.77203 11.4882 10.228 10.603 11.1258C9.17825 12.5707 6.73348 11.5416 6.73348 9.49998C6.73348 7.45831 9.17819 6.43002 10.603 7.87423ZM8.99998 5.99371C12.0704 5.99371 13.6176 9.77597 11.4447 11.9795C9.27203 14.1831 5.54285 12.614 5.54285 9.50004C5.54285 7.56371 7.0908 5.99371 8.99998 5.99371Z" fill="black"/>
</svg>
