<svg width="150" height="150" viewBox="0 0 150 150" fill="none" xmlns="http://www.w3.org/2000/svg">
<path d="M30.6769 105.32H15.2039V109.652C15.2039 111.983 17.0933 113.873 19.4244 113.873V117.382H26.4564V113.873C28.7871 113.873 30.6769 111.983 30.6769 109.652V105.32Z" stroke="#663366" stroke-width="4.10156" stroke-miterlimit="10" stroke-linecap="round" stroke-linejoin="round"/>
<path d="M38.83 130.862H7.05078V124.024C7.05078 120.356 10.0241 117.383 13.6918 117.383H32.1893C35.8569 117.383 38.8302 120.356 38.8302 124.024L38.83 130.862Z" stroke="#663366" stroke-width="4.10156" stroke-miterlimit="10" stroke-linecap="round" stroke-linejoin="round"/>
<path d="M26.262 97.375H19.6188C17.1805 97.375 15.2039 99.3517 15.2039 101.79V105.319H30.6766V101.79C30.6769 99.3517 28.7002 97.375 26.262 97.375Z" stroke="#663366" stroke-width="4.10156" stroke-miterlimit="10" stroke-linecap="round" stroke-linejoin="round"/>
<path d="M62.4561 91.3672H46.9833V98.7084C46.9833 101.039 48.8728 102.929 51.2038 102.929V108.353H58.2358V102.929C60.5666 102.929 62.4563 101.039 62.4563 98.7084V91.3672H62.4561Z" stroke="#663366" stroke-width="4.10156" stroke-miterlimit="10" stroke-linecap="round" stroke-linejoin="round"/>
<path d="M58.0411 83.4297H51.3982C48.96 83.4297 46.9833 85.4064 46.9833 87.8446V91.3736H62.4561V87.8446C62.4561 85.4064 60.4794 83.4297 58.0411 83.4297Z" stroke="#663366" stroke-width="4.10156" stroke-miterlimit="10" stroke-linecap="round" stroke-linejoin="round"/>
<path d="M94.2352 77.8438H78.7625V85.185C78.7625 87.5158 80.652 89.4055 82.983 89.4055V94.8297H90.015V89.4055C92.3458 89.4055 94.2355 87.5161 94.2355 85.185L94.2352 77.8438Z" stroke="#663366" stroke-width="4.10156" stroke-miterlimit="10" stroke-linecap="round" stroke-linejoin="round"/>
<path d="M90.9146 68.2578H82.0831C79.6449 68.2578 77.6682 70.2345 77.6682 72.6727L78.7625 77.8462H94.2352L95.3295 72.6727C95.3295 70.2345 93.3529 68.2578 90.9146 68.2578Z" stroke="#663366" stroke-width="4.10156" stroke-miterlimit="10" stroke-linecap="round" stroke-linejoin="round"/>
<path d="M65.4037 52.8721H54.61C52.5352 52.8721 50.8533 51.1902 50.8533 49.1154V22.8974C50.8533 20.8225 52.5352 19.1406 54.61 19.1406H64.0051C70.0948 19.1406 75.0317 24.0773 75.0317 30.1673V52.8721" stroke="#663366" stroke-width="4.10156" stroke-miterlimit="10" stroke-linecap="round" stroke-linejoin="round"/>
<path d="M67.6453 40.2266H58.2394" stroke="#663366" stroke-width="4.10156" stroke-miterlimit="10" stroke-linecap="round" stroke-linejoin="round"/>
<path d="M62.4561 33.2422H58.2394" stroke="#663366" stroke-width="4.10156" stroke-miterlimit="10" stroke-linecap="round" stroke-linejoin="round"/>
<path d="M91.8238 40.2266H82.4178" stroke="#663366" stroke-width="4.10156" stroke-miterlimit="10" stroke-linecap="round" stroke-linejoin="round"/>
<path d="M91.8238 33.2422H82.4178" stroke="#663366" stroke-width="4.10156" stroke-miterlimit="10" stroke-linecap="round" stroke-linejoin="round"/>
<path d="M75.0317 52.8721H95.4531C97.528 52.8721 99.2099 51.1902 99.2099 49.1154V22.8974C99.2099 20.8225 97.528 19.1406 95.4531 19.1406H86.0581C79.9684 19.1406 75.0314 24.0773 75.0314 30.1673V52.8721H75.0317Z" stroke="#663366" stroke-width="4.10156" stroke-miterlimit="10" stroke-linecap="round" stroke-linejoin="round"/>
<path d="M126.013 88.8516V93.8139C126.013 96.1447 124.126 98.035 121.795 98.035H114.761C112.431 98.035 110.54 96.1447 110.54 93.8139V88.8516" stroke="#663366" stroke-width="4.10156" stroke-miterlimit="10" stroke-linecap="round" stroke-linejoin="round"/>
<path d="M70.6091 130.862H38.83V115C38.83 111.333 41.803 108.359 45.4709 108.359H63.9684C67.6361 108.359 70.6094 111.333 70.6094 115L70.6091 130.862Z" stroke="#663366" stroke-width="4.10156" stroke-miterlimit="10" stroke-linecap="round" stroke-linejoin="round"/>
<path d="M102.388 130.859H70.6091V101.469C70.6091 97.8015 73.5825 94.8281 77.2501 94.8281H95.7476C99.4152 94.8281 102.389 97.8015 102.389 101.469V130.859H102.388Z" stroke="#663366" stroke-width="4.10156" stroke-miterlimit="10" stroke-linecap="round" stroke-linejoin="round"/>
<path d="M102.388 130.858V104.672C102.388 101.005 105.362 98.0312 109.029 98.0312H127.527C131.194 98.0312 134.168 101.005 134.168 104.672V130.858H112.031" stroke="#663366" stroke-width="4.10156" stroke-miterlimit="10" stroke-linecap="round" stroke-linejoin="round"/>
<path d="M134.168 130.859H142.949" stroke="#663366" stroke-width="4.10156" stroke-miterlimit="10" stroke-linecap="round" stroke-linejoin="round"/>
<path d="M114.957 85.6323C114.957 87.1627 113.272 88.8471 111.195 88.8471H110.542L109.17 81.8375C108.886 80.5575 109.86 79.3438 111.171 79.3438H125.437C126.748 79.3438 127.722 80.5575 127.438 81.8375L126.066 88.8471H125.413C123.336 88.8471 121.651 87.1627 121.651 85.6323H114.957Z" stroke="#663366" stroke-width="4.10156" stroke-miterlimit="10" stroke-linecap="round" stroke-linejoin="round"/>
<path d="M22.9405 117.383V122.632" stroke="#663366" stroke-width="4.10156" stroke-miterlimit="10" stroke-linecap="round" stroke-linejoin="round"/>
<path d="M54.7197 108.359V113.608" stroke="#663366" stroke-width="4.10156" stroke-miterlimit="10" stroke-linecap="round" stroke-linejoin="round"/>
<path d="M86.4989 94.8281V100.077" stroke="#663366" stroke-width="4.10156" stroke-miterlimit="10" stroke-linecap="round" stroke-linejoin="round"/>
<path d="M118.278 98.3359V103.585" stroke="#663366" stroke-width="4.10156" stroke-miterlimit="10" stroke-linecap="round" stroke-linejoin="round"/>
</svg>
