<svg width="150" height="150" viewBox="0 0 150 150" fill="none" xmlns="http://www.w3.org/2000/svg">
<g clip-path="url(#clip0_758_6714)">
<path d="M46.9714 130.187V65.9375" stroke="#663366" stroke-width="4.10156" stroke-miterlimit="10" stroke-linecap="round" stroke-linejoin="round"/>
<path d="M103.028 65.9375V130.028" stroke="#663366" stroke-width="4.10156" stroke-miterlimit="10" stroke-linecap="round" stroke-linejoin="round"/>
<path d="M125.304 43.5691H117.599V33.6094C117.599 33.3072 117.843 33.0625 118.146 33.0625H133.831C134.133 33.0625 134.378 33.3072 134.378 33.6094V39.8339" stroke="#663366" stroke-width="4.10156" stroke-miterlimit="10" stroke-linecap="round" stroke-linejoin="round"/>
<path d="M11.2711 130.507V84.3047" stroke="#663366" stroke-width="4.10156" stroke-miterlimit="10" stroke-linecap="round" stroke-linejoin="round"/>
<path d="M138.728 84.2891V130.032" stroke="#663366" stroke-width="4.10156" stroke-miterlimit="10" stroke-linecap="round" stroke-linejoin="round"/>
<path d="M46.7291 75.5547H31.6764" stroke="#663366" stroke-width="4.10156" stroke-miterlimit="10" stroke-linecap="round" stroke-linejoin="round"/>
<path d="M22.1061 75.5547H8.14441C7.54011 75.5547 7.05066 76.0441 7.05066 76.6484V82.716C7.05066 83.3203 7.54011 83.8098 8.14441 83.8098H46.5706" stroke="#663366" stroke-width="4.10156" stroke-miterlimit="10" stroke-linecap="round" stroke-linejoin="round"/>
<path d="M103.411 75.5547H141.855C142.459 75.5547 142.949 76.0444 142.949 76.6484V82.7171C142.949 83.3211 142.459 83.8109 141.855 83.8109H103.676" stroke="#663366" stroke-width="4.10156" stroke-miterlimit="10" stroke-linecap="round" stroke-linejoin="round"/>
<path d="M46.9714 56.3452V44.9844" stroke="#663366" stroke-width="4.10156" stroke-miterlimit="10" stroke-linecap="round" stroke-linejoin="round"/>
<path d="M103.028 45.4453V56.3418" stroke="#663366" stroke-width="4.10156" stroke-miterlimit="10" stroke-linecap="round" stroke-linejoin="round"/>
<path d="M127.965 130.742H141.855C142.46 130.742 142.949 131.232 142.949 131.836V137.906C142.949 138.511 142.46 139 141.855 139H8.14441C7.54011 139 7.05066 138.511 7.05066 137.906V131.836C7.05066 131.232 7.54011 130.742 8.14441 130.742H118.394" stroke="#663366" stroke-width="4.10156" stroke-miterlimit="10" stroke-linecap="round" stroke-linejoin="round"/>
<path d="M62.6925 130.191V104.789C62.6925 104.185 63.1822 103.695 63.7863 103.695H86.2136C86.8176 103.695 87.3073 104.185 87.3073 104.789V130.138" stroke="#663366" stroke-width="4.10156" stroke-miterlimit="10" stroke-linecap="round" stroke-linejoin="round"/>
<path d="M74.9999 103.914V130.482" stroke="#663366" stroke-width="4.10156" stroke-miterlimit="10" stroke-linecap="round" stroke-linejoin="round"/>
<path d="M72.0538 117.219H77.9459" stroke="#663366" stroke-width="4.10156" stroke-miterlimit="10" stroke-linecap="round" stroke-linejoin="round"/>
<path d="M65.2245 18.8456L72.1398 12.1546C73.7312 10.6151 76.255 10.6151 77.8409 12.1546L102.587 36.0995C102.792 36.2964 103.066 36.4085 103.347 36.4085H106.557C107.162 36.4085 107.651 36.8979 107.651 37.5022V43.5179C107.651 44.1194 107.162 44.6116 106.557 44.6116H100.689C99.9812 44.6116 99.2976 44.3354 98.789 43.8405L74.9917 20.8089L51.2163 43.8159C50.7077 44.3081 50.0296 44.5843 49.3214 44.587L43.4425 44.6116C42.8382 44.6116 42.3488 44.1194 42.3488 43.5179V37.5022C42.3488 36.8979 42.8382 36.4085 43.4425 36.4085H46.6335C46.9152 36.4085 47.1886 36.2964 47.3937 36.0995L58.3448 25.5011" stroke="#663366" stroke-width="4.10156" stroke-miterlimit="10" stroke-linecap="round" stroke-linejoin="round"/>
<path d="M42.0375 61.0703H19.7477C19.3461 61.0703 18.9764 61.2907 18.7855 61.644L11.4426 75.2333" stroke="#663366" stroke-width="4.10156" stroke-miterlimit="10" stroke-linecap="round" stroke-linejoin="round"/>
<path d="M107.945 61.0703H130.252C130.654 61.0703 131.023 61.2907 131.214 61.644L138.509 75.1441" stroke="#663366" stroke-width="4.10156" stroke-miterlimit="10" stroke-linecap="round" stroke-linejoin="round"/>
<path d="M96.8831 65.2031H106.568C107.173 65.2031 107.662 64.7137 107.662 64.1094V58.0391C107.662 57.4348 107.173 56.9453 106.568 56.9453H43.4315C42.8272 56.9453 42.3378 57.4348 42.3378 58.0391V64.1094C42.3378 64.7137 42.8272 65.2031 43.4315 65.2031H87.3128" stroke="#663366" stroke-width="4.10156" stroke-miterlimit="10" stroke-linecap="round" stroke-linejoin="round"/>
<path d="M142.401 50.7019H126.099C125.797 50.7019 125.552 50.4572 125.552 50.155V40.7422C125.552 40.44 125.797 40.1953 126.099 40.1953H142.401C142.819 40.1953 143.083 40.6446 142.879 41.0091L140.544 45.1814C140.452 45.3474 140.452 45.5495 140.544 45.7155L142.879 49.8879C143.083 50.2526 142.819 50.7019 142.401 50.7019Z" stroke="#663366" stroke-width="4.10156" stroke-miterlimit="10" stroke-linecap="round" stroke-linejoin="round"/>
<path d="M117.598 60.9292V43.5703" stroke="#663366" stroke-width="4.10156" stroke-miterlimit="10" stroke-linecap="round" stroke-linejoin="round"/>
<path d="M24.8903 43.5691H32.4013V33.6094C32.4013 33.3072 32.1566 33.0625 31.8544 33.0625H16.1687C15.8666 33.0625 15.6218 33.3072 15.6218 33.6094V39.8692" stroke="#663366" stroke-width="4.10156" stroke-miterlimit="10" stroke-linecap="round" stroke-linejoin="round"/>
<path d="M7.59838 50.7019H23.9005C24.2026 50.7019 24.4473 50.4572 24.4473 50.155V40.7422C24.4473 40.44 24.2026 40.1953 23.9005 40.1953H7.59838C7.18057 40.1953 6.91725 40.6446 7.12123 41.0091L9.45557 45.1814C9.54827 45.3474 9.54827 45.5495 9.45557 45.7155L7.12123 49.8879C6.91725 50.2526 7.18057 50.7019 7.59838 50.7019Z" stroke="#663366" stroke-width="4.10156" stroke-miterlimit="10" stroke-linecap="round" stroke-linejoin="round"/>
<path d="M32.4014 60.9292V43.5703" stroke="#663366" stroke-width="4.10156" stroke-miterlimit="10" stroke-linecap="round" stroke-linejoin="round"/>
<path d="M46.7095 103.69H27.8907C27.2867 103.69 26.797 103.201 26.797 102.596V94.0078C26.797 93.4038 27.2867 92.9141 27.8907 92.9141H46.4479" stroke="#663366" stroke-width="4.10156" stroke-miterlimit="10" stroke-linecap="round" stroke-linejoin="round"/>
<path d="M11.6241 92.9141H17.4456C18.0497 92.9141 18.5394 93.4038 18.5394 94.0078V102.596C18.5394 103.201 18.0497 103.69 17.4456 103.69H11.73" stroke="#663366" stroke-width="4.10156" stroke-miterlimit="10" stroke-linecap="round" stroke-linejoin="round"/>
<path d="M11.6594 111.898H17.4456C18.0497 111.898 18.5394 112.388 18.5394 112.992V121.581C18.5394 122.185 18.0497 122.675 17.4456 122.675H11.8005" stroke="#663366" stroke-width="4.10156" stroke-miterlimit="10" stroke-linecap="round" stroke-linejoin="round"/>
<path d="M138.34 103.69H132.554C131.95 103.69 131.46 103.201 131.46 102.596V94.0078C131.46 93.4038 131.95 92.9141 132.554 92.9141H138.526" stroke="#663366" stroke-width="4.10156" stroke-miterlimit="10" stroke-linecap="round" stroke-linejoin="round"/>
<path d="M138.34 122.675H132.554C131.95 122.675 131.46 122.185 131.46 121.581V112.992C131.46 112.388 131.95 111.898 132.554 111.898H138.526" stroke="#663366" stroke-width="4.10156" stroke-miterlimit="10" stroke-linecap="round" stroke-linejoin="round"/>
<path d="M103.464 92.9141H122.109C122.713 92.9141 123.203 93.4038 123.203 94.0078V102.596C123.203 103.201 122.713 103.69 122.109 103.69H103.464" stroke="#663366" stroke-width="4.10156" stroke-miterlimit="10" stroke-linecap="round" stroke-linejoin="round"/>
<path d="M46.4479 122.675H27.8907C27.2867 122.675 26.797 122.185 26.797 121.581V112.992C26.797 112.388 27.2867 111.898 27.8907 111.898H46.4831" stroke="#663366" stroke-width="4.10156" stroke-miterlimit="10" stroke-linecap="round" stroke-linejoin="round"/>
<path d="M103.57 111.898H122.109C122.713 111.898 123.203 112.388 123.203 112.992V121.581C123.203 122.185 122.713 122.675 122.109 122.675H103.464" stroke="#663366" stroke-width="4.10156" stroke-miterlimit="10" stroke-linecap="round" stroke-linejoin="round"/>
<path d="M74.9999 49.703C78.7623 49.703 81.8123 46.6529 81.8123 42.8905C81.8123 39.1282 78.7623 36.0781 74.9999 36.0781C71.2375 36.0781 68.1875 39.1282 68.1875 42.8905C68.1875 46.6529 71.2375 49.703 74.9999 49.703Z" stroke="#663366" stroke-width="4.10156" stroke-miterlimit="10" stroke-linecap="round" stroke-linejoin="round"/>
<path d="M36.884 93.2109V103.266" stroke="#663366" stroke-width="4.10156" stroke-miterlimit="10" stroke-linecap="round" stroke-linejoin="round"/>
<path d="M62.7115 75.0312V94.3961C62.7115 95.0001 63.2013 95.4898 63.8053 95.4898H86.2138C86.8178 95.4898 87.3075 95.0001 87.3075 94.3961V75.0312C87.3075 74.4272 86.8178 73.9375 86.2138 73.9375H63.8053C63.2013 73.9375 62.7115 74.4272 62.7115 75.0312Z" stroke="#663366" stroke-width="4.10156" stroke-miterlimit="10" stroke-linecap="round" stroke-linejoin="round"/>
<path d="M75.0094 74.3047V94.737" stroke="#663366" stroke-width="4.10156" stroke-miterlimit="10" stroke-linecap="round" stroke-linejoin="round"/>
<path d="M36.884 112.375V122.289" stroke="#663366" stroke-width="4.10156" stroke-miterlimit="10" stroke-linecap="round" stroke-linejoin="round"/>
<path d="M113.116 93.1406V103.249" stroke="#663366" stroke-width="4.10156" stroke-miterlimit="10" stroke-linecap="round" stroke-linejoin="round"/>
<path d="M113.116 112.297V121.913" stroke="#663366" stroke-width="4.10156" stroke-miterlimit="10" stroke-linecap="round" stroke-linejoin="round"/>
<path d="M86.846 84.7109H63.1729" stroke="#663366" stroke-width="4.10156" stroke-miterlimit="10" stroke-linecap="round" stroke-linejoin="round"/>
</g>
<defs>
<clipPath id="clip0_758_6714">
<rect width="140" height="140" fill="white" transform="translate(4.99988 5)"/>
</clipPath>
</defs>
</svg>
