<svg width="150" height="150" viewBox="0 0 150 150" fill="none" xmlns="http://www.w3.org/2000/svg">
<g clip-path="url(#clip0_757_3719)">
<path d="M94.8636 105.009V99.2344C94.8636 98.4794 95.4758 97.8672 96.2308 97.8672H105.052" stroke="#663366" stroke-width="4.10156" stroke-miterlimit="10" stroke-linecap="round" stroke-linejoin="round"/>
<path d="M95.7036 121.909C95.175 121.221 94.8636 120.324 94.8636 119.091V114.578" stroke="#663366" stroke-width="4.10156" stroke-miterlimit="10" stroke-linecap="round" stroke-linejoin="round"/>
<path d="M113.202 97.8672H121.937C122.692 97.8672 123.304 98.4794 123.304 99.2344V119.092C123.304 122.403 122.098 125.432 120.101 127.763" stroke="#663366" stroke-width="4.10156" stroke-miterlimit="10" stroke-linecap="round" stroke-linejoin="round"/>
<path d="M112.695 89.965V109.205C112.695 109.96 112.083 110.572 111.328 110.572H106.84C106.085 110.572 105.472 109.96 105.472 109.205V89.9297" stroke="#663366" stroke-width="4.10156" stroke-miterlimit="10" stroke-linecap="round" stroke-linejoin="round"/>
<path d="M112.695 68.3672V81.7038" stroke="#663366" stroke-width="4.10156" stroke-miterlimit="10" stroke-linecap="round" stroke-linejoin="round"/>
<path d="M112.695 46.6016V58.8004" stroke="#663366" stroke-width="4.10156" stroke-miterlimit="10" stroke-linecap="round" stroke-linejoin="round"/>
<path d="M105.472 81.7074V46.6016" stroke="#663366" stroke-width="4.10156" stroke-miterlimit="10" stroke-linecap="round" stroke-linejoin="round"/>
<path d="M114.939 89.3478H103.228C102.473 89.3478 101.861 88.7356 101.861 87.9807V83.4922C101.861 82.7372 102.473 82.125 103.228 82.125H114.939C115.694 82.125 116.307 82.7372 116.307 83.4922V87.9807C116.307 88.7356 115.695 89.3478 114.939 89.3478Z" stroke="#663366" stroke-width="4.10156" stroke-miterlimit="10" stroke-linecap="round" stroke-linejoin="round"/>
<path d="M121.937 46.2385H96.2308C95.4758 46.2385 94.8636 45.6262 94.8636 44.8713V40.3828C94.8636 39.6279 95.4758 39.0156 96.2308 39.0156H121.937C122.692 39.0156 123.304 39.6279 123.304 40.3828V44.8713C123.304 45.6262 122.692 46.2385 121.937 46.2385Z" stroke="#663366" stroke-width="4.10156" stroke-miterlimit="10" stroke-linecap="round" stroke-linejoin="round"/>
<path d="M59.0466 121.404V56.6605C59.0466 52.6267 60.6399 48.7562 63.4801 45.8917C67.7758 41.5588 69.6185 35.3635 68.3888 29.3873C67.1441 23.3364 69.0489 17.067 73.4493 12.7314L79.2191 7.04688" stroke="#663366" stroke-width="4.10156" stroke-miterlimit="10" stroke-linecap="round" stroke-linejoin="round"/>
<path d="M48.1312 96.9844C50.3947 100.531 53.551 103.491 57.357 105.528L58.4912 106.135" stroke="#663366" stroke-width="4.10156" stroke-miterlimit="10" stroke-linecap="round" stroke-linejoin="round"/>
<path d="M29.8544 68.7656L32.1936 70.0765C38.7753 73.7649 43.3258 80.2426 44.5634 87.685C44.585 87.8146 44.6074 87.944 44.6309 88.073" stroke="#663366" stroke-width="4.10156" stroke-miterlimit="10" stroke-linecap="round" stroke-linejoin="round"/>
<path d="M59.422 85.9606L68.1146 81.5301C72.115 79.4911 74.4895 75.2394 74.1269 70.7641C73.8461 67.298 75.2089 63.9013 77.8074 61.5905L82.2133 57.6719" stroke="#663366" stroke-width="4.10156" stroke-miterlimit="10" stroke-linecap="round" stroke-linejoin="round"/>
<path d="M58.6214 62.4915L51.1459 52.8906C47.9352 48.7669 46.6169 43.478 47.5171 38.3298C48.4006 33.2769 47.1479 28.0843 44.0578 23.9902L39.7088 18.5859" stroke="#663366" stroke-width="4.10156" stroke-miterlimit="10" stroke-linecap="round" stroke-linejoin="round"/>
<path d="M74.2037 70.4093L74.933 70.4402C77.3622 70.543 79.7635 69.9699 81.8742 68.7969" stroke="#663366" stroke-width="4.10156" stroke-miterlimit="10" stroke-linecap="round" stroke-linejoin="round"/>
<path d="M42.1758 80.4527L42.4642 79.1968C44.1595 71.8146 43.1331 64.0686 39.5737 57.3828" stroke="#663366" stroke-width="4.10156" stroke-miterlimit="10" stroke-linecap="round" stroke-linejoin="round"/>
<path d="M68.3888 29.3799C64.8604 26.5419 61.8867 23.1095 59.5893 19.2578" stroke="#663366" stroke-width="4.10156" stroke-miterlimit="10" stroke-linecap="round" stroke-linejoin="round"/>
<path d="M63.4798 45.8867L63.5862 45.8558C70.6679 43.7952 76.8903 39.4923 81.3178 33.5938" stroke="#663366" stroke-width="4.10156" stroke-miterlimit="10" stroke-linecap="round" stroke-linejoin="round"/>
<path d="M47.055 36.6877C41.0281 33.3337 34.2411 31.5703 27.3355 31.5703H27.0582" stroke="#663366" stroke-width="4.10156" stroke-miterlimit="10" stroke-linecap="round" stroke-linejoin="round"/>
<path d="M59.422 113.224L66.7179 104.677C68.297 102.827 70.3579 101.451 72.6717 100.703L72.8855 100.633C76.8673 99.3444 79.9984 96.2376 81.3178 92.2656" stroke="#663366" stroke-width="4.10156" stroke-miterlimit="10" stroke-linecap="round" stroke-linejoin="round"/>
<path d="M81.5034 33.4124C81.5034 33.4124 80.2943 26.1168 84.048 22.363C87.8018 18.6093 95.0974 19.8184 95.0974 19.8184C95.0974 19.8184 96.3065 27.114 92.5528 30.8678C88.799 34.6215 81.5034 33.4124 81.5034 33.4124Z" stroke="#663366" stroke-width="4.10156" stroke-miterlimit="10" stroke-linecap="round" stroke-linejoin="round"/>
<path d="M82.2136 68.5687C82.2136 68.5687 85.5905 63.7083 89.8386 63.649C94.0868 63.5897 97.598 68.354 97.598 68.354C97.598 68.354 94.221 73.2144 89.9729 73.2737C85.7245 73.3333 82.2136 68.5687 82.2136 68.5687Z" stroke="#663366" stroke-width="4.10156" stroke-miterlimit="10" stroke-linecap="round" stroke-linejoin="round"/>
<path d="M49.7893 7.05534C49.7893 7.05534 55.6989 6.73405 58.3553 10.05C61.0118 13.366 59.4091 19.0631 59.4091 19.0631C59.4091 19.0631 53.4996 19.3844 50.8432 16.0684C48.1867 12.7527 49.7893 7.05534 49.7893 7.05534Z" stroke="#663366" stroke-width="4.10156" stroke-miterlimit="10" stroke-linecap="round" stroke-linejoin="round"/>
<path d="M81.4665 92.0125C81.4665 92.0125 80.4988 86.1737 83.5031 83.1695C86.5073 80.1652 92.3461 81.1329 92.3461 81.1329C92.3461 81.1329 93.3138 86.9716 90.3095 89.9759C87.3052 92.9802 81.4665 92.0125 81.4665 92.0125Z" stroke="#663366" stroke-width="4.10156" stroke-miterlimit="10" stroke-linecap="round" stroke-linejoin="round"/>
<path d="M28.2838 46.642C28.2838 46.642 34.0877 45.4839 37.1885 48.3887C40.2893 51.2934 39.5127 57.1605 39.5127 57.1605C39.5127 57.1605 33.7088 58.3186 30.608 55.4138C27.5072 52.5091 28.2838 46.642 28.2838 46.642Z" stroke="#663366" stroke-width="4.10156" stroke-miterlimit="10" stroke-linecap="round" stroke-linejoin="round"/>
<path d="M10.933 73.249C10.933 73.249 13.6023 66.3524 18.7438 65.0295C23.8852 63.7066 29.5517 68.4581 29.5517 68.4581C29.5517 68.4581 26.8824 75.3548 21.7409 76.6776C16.5995 78.0005 10.933 73.249 10.933 73.249Z" stroke="#663366" stroke-width="4.10156" stroke-miterlimit="10" stroke-linecap="round" stroke-linejoin="round"/>
<path d="M22.115 10.3249C22.115 10.3249 28.5413 6.6655 33.3623 8.88827C38.1833 11.111 39.5737 18.3744 39.5737 18.3744C39.5737 18.3744 33.1474 22.0338 28.3264 19.811C23.5054 17.5882 22.115 10.3249 22.115 10.3249Z" stroke="#663366" stroke-width="4.10156" stroke-miterlimit="10" stroke-linecap="round" stroke-linejoin="round"/>
<path d="M46.5926 134.256C45.6484 132.532 44.3482 131.014 42.7666 129.811L42.1582 129.348C39.9882 127.986 37.4231 127.195 34.6723 127.195C31.0701 127.195 27.7847 128.548 25.2921 130.77V130.767L24.0725 131.787C18.8518 136.155 13.1394 139.899 7.05078 142.943" stroke="#663366" stroke-width="4.10156" stroke-miterlimit="10" stroke-linecap="round" stroke-linejoin="round"/>
<path d="M107.654 129.103C104.325 124.777 99.095 121.988 93.2137 121.988C90.2772 121.988 87.5057 122.688 85.0491 123.922C82.4908 121.323 78.9342 119.711 74.9997 119.711C71.0652 119.711 67.5086 121.323 64.9503 123.922C62.4941 122.688 59.7222 121.988 56.7858 121.988C50.9394 121.988 45.7375 124.744 42.4049 129.026" stroke="#663366" stroke-width="4.10156" stroke-miterlimit="10" stroke-linecap="round" stroke-linejoin="round"/>
<circle cx="51.952" cy="129.98" r="2.05078" fill="#663366"/>
<circle cx="34.6655" cy="134.254" r="2.05078" fill="#663366"/>
<circle cx="54.598" cy="136.934" r="2.05078" fill="#663366"/>
<circle cx="95.5343" cy="136.168" r="2.05078" fill="#663366"/>
<circle cx="88.8217" cy="132.574" r="2.05078" fill="#663366"/>
<circle cx="95.102" cy="129.348" r="2.05078" fill="#663366"/>
<path d="M103.408 134.255C104.352 132.531 105.652 131.014 107.233 129.811L107.842 129.348C110.012 127.986 112.577 127.195 115.328 127.195C118.93 127.195 122.215 128.548 124.708 130.77V130.767L127.22 132.868C131.582 136.518 136.355 139.646 141.443 142.19L142.949 142.943" stroke="#663366" stroke-width="4.10156" stroke-miterlimit="10" stroke-linecap="round" stroke-linejoin="round"/>
</g>
<defs>
<clipPath id="clip0_757_3719">
<rect width="140" height="140" fill="white" transform="translate(5 5)"/>
</clipPath>
</defs>
</svg>
