<svg width="150" height="150" viewBox="0 0 150 150" fill="none" xmlns="http://www.w3.org/2000/svg">
<g clip-path="url(#clip0_757_3589)">
<mask id="mask0_757_3589" style="mask-type:luminance" maskUnits="userSpaceOnUse" x="4" y="5" width="141" height="140">
<path d="M145 5H4.99985V145H145V5Z" fill="white"/>
<path d="M25.7811 21.4063C27.2905 21.4063 28.5155 22.6313 28.5155 24.1406C28.5155 25.65 27.2905 26.875 25.7811 26.875C24.2717 26.875 23.0467 25.65 23.0467 24.1406C23.0467 22.6313 24.2717 21.4063 25.7811 21.4063Z" fill="white"/>
<path d="M25.7811 32.3438C27.2905 32.3438 28.5155 33.5688 28.5155 35.0781C28.5155 36.5875 27.2905 37.8125 25.7811 37.8125C24.2717 37.8125 23.0467 36.5875 23.0467 35.0781C23.0467 33.5688 24.2717 32.3438 25.7811 32.3438Z" fill="white"/>
</mask>
<g mask="url(#mask0_757_3589)">
<mask id="mask1_757_3589" style="mask-type:luminance" maskUnits="userSpaceOnUse" x="4" y="5" width="141" height="140">
<path d="M4.99985 5.00002H145V145H4.99985V5.00002Z" fill="white"/>
</mask>
<g mask="url(#mask1_757_3589)">
<path d="M25.7811 21.4063C27.2905 21.4063 28.5155 22.6313 28.5155 24.1406C28.5155 25.65 27.2905 26.875 25.7811 26.875C24.2717 26.875 23.0467 25.65 23.0467 24.1406C23.0467 22.6313 24.2717 21.4063 25.7811 21.4063Z" fill="#663366"/>
<path d="M25.7811 32.3438C27.2905 32.3438 28.5155 33.5688 28.5155 35.0781C28.5155 36.5875 27.2905 37.8125 25.7811 37.8125C24.2717 37.8125 23.0467 36.5875 23.0467 35.0781C23.0467 33.5688 24.2717 32.3438 25.7811 32.3438Z" fill="#663366"/>
<path d="M66.7967 64.0625C66.7967 70.1027 61.8995 75 55.8592 75C49.819 75 44.9217 70.1027 44.9217 64.0625C44.9217 58.0223 49.819 53.125 55.8592 53.125C61.8995 53.125 66.7967 58.0223 66.7967 64.0625Z" stroke="#663366" stroke-width="5.46875" stroke-miterlimit="10" stroke-linecap="round" stroke-linejoin="round"/>
<path d="M55.8592 75V91.4062" stroke="#663366" stroke-width="5.46875" stroke-miterlimit="10" stroke-linecap="round" stroke-linejoin="round"/>
<path d="M33.9842 102.344V91.4063H77.7342V102.344" stroke="#663366" stroke-width="5.46875" stroke-miterlimit="10" stroke-linecap="round" stroke-linejoin="round"/>
<path d="M42.1873 110.547C42.1873 115.078 38.5151 118.75 33.9842 118.75C29.4534 118.75 25.7811 115.078 25.7811 110.547C25.7811 106.016 29.4534 102.344 33.9842 102.344C38.5151 102.344 42.1873 106.016 42.1873 110.547Z" stroke="#663366" stroke-width="5.46875" stroke-miterlimit="10" stroke-linecap="round" stroke-linejoin="round"/>
<path d="M85.9373 110.547C85.9373 115.078 82.2651 118.75 77.7342 118.75C73.2034 118.75 69.5311 115.078 69.5311 110.547C69.5311 106.016 73.2034 102.344 77.7342 102.344C82.2651 102.344 85.9373 106.016 85.9373 110.547Z" stroke="#663366" stroke-width="5.46875" stroke-miterlimit="10" stroke-linecap="round" stroke-linejoin="round"/>
<path d="M76.6405 7.73438H13.203C10.1815 7.73438 7.73422 10.1816 7.73422 13.2031V136.797C7.73422 139.818 10.1815 142.266 13.203 142.266H98.5155C101.537 142.266 103.984 139.818 103.984 136.797V35.0781L76.6405 7.73438Z" stroke="#663366" stroke-width="5.46875" stroke-miterlimit="10" stroke-linecap="round" stroke-linejoin="round"/>
<path d="M103.984 35.0781H76.6405V7.73438" stroke="#663366" stroke-width="5.46875" stroke-miterlimit="10" stroke-linecap="round" stroke-linejoin="round"/>
<path d="M36.7186 24.1406H58.5936" stroke="#663366" stroke-width="5.46875" stroke-miterlimit="10" stroke-linecap="round" stroke-linejoin="round"/>
<path d="M36.7186 35.0781H58.5936" stroke="#663366" stroke-width="5.46875" stroke-miterlimit="10" stroke-linecap="round" stroke-linejoin="round"/>
<path d="M142.265 124.219V136.797C142.265 139.818 139.818 142.266 136.797 142.266H131.328C128.306 142.266 125.859 139.818 125.859 136.797V40.5469H142.265V124.219Z" stroke="#663366" stroke-width="5.46875" stroke-miterlimit="10" stroke-linecap="round" stroke-linejoin="round"/>
<path d="M125.859 40.5469L134.062 24.1406L142.265 40.5469" stroke="#663366" stroke-width="5.46875" stroke-miterlimit="10" stroke-linecap="round" stroke-linejoin="round"/>
<path d="M134.062 24.1406V15.9375" stroke="#663366" stroke-width="5.46875" stroke-miterlimit="10" stroke-linecap="round" stroke-linejoin="round"/>
<path d="M125.859 124.219H142.265" stroke="#663366" stroke-width="5.46875" stroke-miterlimit="10" stroke-linecap="round" stroke-linejoin="round"/>
<path d="M125.859 124.219H114.922V96.875" stroke="#663366" stroke-width="5.46875" stroke-miterlimit="10" stroke-linecap="round" stroke-linejoin="round"/>
</g>
</g>
</g>
<defs>
<clipPath id="clip0_757_3589">
<rect width="140" height="140" fill="white" transform="translate(4.99985 5)"/>
</clipPath>
</defs>
</svg>
