<svg width="150" height="150" viewBox="0 0 150 150" fill="none" xmlns="http://www.w3.org/2000/svg">
<path d="M142.949 48.4195V135.844C142.949 138.109 141.113 139.945 138.848 139.945H11.1523C8.88719 139.945 7.05078 138.109 7.05078 135.844V14.1641C7.05078 11.8989 8.88719 10.0625 11.1523 10.0625H138.848C141.113 10.0625 142.949 11.8989 142.949 14.1641V38.8492" stroke="#663366" stroke-width="4.10156" stroke-miterlimit="10" stroke-linecap="round" stroke-linejoin="round"/>
<circle cx="15.7428" cy="18.0586" r="2.05078" fill="#663366"/>
<circle cx="24.3216" cy="18.0586" r="2.05078" fill="#663366"/>
<circle cx="32.9005" cy="18.0586" r="2.05078" fill="#663366"/>
<path d="M17.6927 26.0625H7.73273" stroke="#663366" stroke-width="4.10156" stroke-miterlimit="10" stroke-linecap="round" stroke-linejoin="round"/>
<path d="M142.267 26.0625H27.263" stroke="#663366" stroke-width="4.10156" stroke-miterlimit="10" stroke-linecap="round" stroke-linejoin="round"/>
<path d="M17.9883 100.149V67.2344C17.9883 65.7242 19.2125 64.5 20.7227 64.5H49.7213" stroke="#663366" stroke-width="4.10156" stroke-miterlimit="10" stroke-linecap="round" stroke-linejoin="round"/>
<path d="M49.094 122.724H20.7227C19.2125 122.724 17.9883 121.5 17.9883 119.989V109.719" stroke="#663366" stroke-width="4.10156" stroke-miterlimit="10" stroke-linecap="round" stroke-linejoin="round"/>
<path d="M100.359 64.5H129.004C130.514 64.5 131.738 65.7242 131.738 67.2344V119.99C131.738 121.501 130.514 122.725 129.004 122.725H100.324" stroke="#663366" stroke-width="4.10156" stroke-miterlimit="10" stroke-linecap="round" stroke-linejoin="round"/>
<path d="M100.5 104.93H123.52V114.526H100.465" stroke="#663366" stroke-width="4.10156" stroke-miterlimit="10" stroke-linecap="round" stroke-linejoin="round"/>
<path d="M49.7213 114.526H26.1914V104.93H49.7213" stroke="#663366" stroke-width="4.10156" stroke-miterlimit="10" stroke-linecap="round" stroke-linejoin="round"/>
<path d="M100.426 77.3896L107.512 84.4755L115.331 76.6562H131.45" stroke="#663366" stroke-width="4.10156" stroke-miterlimit="10" stroke-linecap="round" stroke-linejoin="round"/>
<path d="M18.2617 77H34.9843L42.465 84.4807L49.6887 77.257" stroke="#663366" stroke-width="4.10156" stroke-miterlimit="10" stroke-linecap="round" stroke-linejoin="round"/>
<path d="M35.713 95.6641H49.6887" stroke="#663366" stroke-width="4.10156" stroke-miterlimit="10" stroke-linecap="round" stroke-linejoin="round"/>
<path d="M100.324 95.6641H123.52" stroke="#663366" stroke-width="4.10156" stroke-miterlimit="10" stroke-linecap="round" stroke-linejoin="round"/>
<path d="M82.4173 128.87H52.6902C51.18 128.87 49.9559 127.646 49.9559 126.136V61.1016C49.9559 59.5914 51.18 58.3672 52.6902 58.3672H67.0985" stroke="#663366" stroke-width="4.10156" stroke-miterlimit="10" stroke-linecap="round" stroke-linejoin="round"/>
<path d="M82.7432 58.3672H97.3098C98.82 58.3672 100.044 59.5914 100.044 61.1016V126.136C100.044 127.646 98.82 128.87 97.3098 128.87H91.9876" stroke="#663366" stroke-width="4.10156" stroke-miterlimit="10" stroke-linecap="round" stroke-linejoin="round"/>
<path d="M91.841 111.07H58.159V120.667H91.841V111.07Z" stroke="#663366" stroke-width="4.10156" stroke-miterlimit="10" stroke-linecap="round" stroke-linejoin="round"/>
<path d="M50.2293 73.614H67.4408L75.1367 81.3102L83.181 73.2656H99.7707" stroke="#663366" stroke-width="4.10156" stroke-miterlimit="10" stroke-linecap="round" stroke-linejoin="round"/>
<path d="M67.7293 91.2891H91.841" stroke="#663366" stroke-width="4.10156" stroke-miterlimit="10" stroke-linecap="round" stroke-linejoin="round"/>
<path d="M67.7293 99.4922H91.841" stroke="#663366" stroke-width="4.10156" stroke-miterlimit="10" stroke-linecap="round" stroke-linejoin="round"/>
<circle cx="58.159" cy="91.293" r="2.05078" fill="#663366"/>
<circle cx="58.159" cy="99.4961" r="2.05078" fill="#663366"/>
<circle cx="26.1914" cy="95.668" r="2.05078" fill="#663366"/>
<path d="M74.5436 57.1516L68.522 60.3175C67.8023 60.6959 66.9612 60.0848 67.0985 59.2833L68.2486 52.5781C68.3032 52.2598 68.1977 51.9353 67.9664 51.7097L63.0948 46.9612C62.5127 46.3935 62.8339 45.4048 63.6384 45.2877L70.3707 44.3094C70.6904 44.2629 70.9665 44.0622 71.1093 43.7726L74.1201 37.6719C74.4799 36.9427 75.5195 36.9427 75.8794 37.6719L78.8902 43.7726C79.0332 44.0622 79.3094 44.2629 79.6288 44.3094L86.3611 45.2877C87.1658 45.4048 87.4871 46.3935 86.9046 46.9612L82.0331 51.7097C81.8018 51.935 81.6965 52.2598 81.7509 52.5781L82.901 59.2833C83.0385 60.0848 82.1971 60.6959 81.4775 60.3175L75.4558 57.1516C75.1706 57.0015 74.8294 57.0015 74.5436 57.1516Z" stroke="#663366" stroke-width="4.10156" stroke-miterlimit="10" stroke-linecap="round" stroke-linejoin="round"/>
<path d="M26.0375 48.7812H47.423" stroke="#663366" stroke-width="4.10156" stroke-miterlimit="10" stroke-linecap="round" stroke-linejoin="round"/>
<path d="M102.577 48.7812H123.963" stroke="#663366" stroke-width="4.10156" stroke-miterlimit="10" stroke-linecap="round" stroke-linejoin="round"/>
</svg>
