<svg width="150" height="150" viewBox="0 0 150 150" fill="none" xmlns="http://www.w3.org/2000/svg">
<path d="M84.6086 126.961C84.6086 132.277 80.3066 136.583 75 136.583C69.6934 136.583 65.3914 132.277 65.3914 126.961" stroke="#663366" stroke-width="4.10156" stroke-miterlimit="10" stroke-linecap="round" stroke-linejoin="round"/>
<path d="M52.5896 109.187C51.5992 109.931 50.4546 110.356 49.2353 110.356C45.4717 110.356 43.2853 105.711 43.2853 100.722C43.2853 95.7333 45.4717 92.2891 49.2353 92.2891C49.7057 92.2891 50.165 92.3522 50.6088 92.4725" stroke="#663366" stroke-width="4.10156" stroke-miterlimit="10" stroke-linecap="round" stroke-linejoin="round"/>
<path d="M97.356 109.146C98.3587 109.915 99.523 110.356 100.765 110.356C104.528 110.356 106.715 105.711 106.715 100.722C106.715 95.7333 104.528 92.2891 100.765 92.2891C100.297 92.2891 99.8407 92.3514 99.3999 92.4704" stroke="#663366" stroke-width="4.10156" stroke-miterlimit="10" stroke-linecap="round" stroke-linejoin="round"/>
<path d="M96.9953 96.8359V106.39C96.9953 118.558 87.1297 128.423 74.959 128.423C68.8969 128.423 63.409 125.968 59.436 121.995C55.4629 118.022 53.0047 112.534 53.0047 106.472V96.8359" stroke="#663366" stroke-width="4.10156" stroke-miterlimit="10" stroke-linecap="round" stroke-linejoin="round"/>
<path d="M73.6317 111C74.708 111.281 75.292 111.281 76.368 111" stroke="#663366" stroke-width="4.10156" stroke-miterlimit="10" stroke-linecap="round" stroke-linejoin="round"/>
<path d="M69.4604 95.0392C67.1455 94.4349 65.8893 94.4349 63.5744 95.0392" stroke="#663366" stroke-width="4.10156" stroke-miterlimit="10" stroke-linecap="round" stroke-linejoin="round"/>
<path d="M80.5396 95.0392C82.8545 94.4349 84.1106 94.4349 86.4256 95.0392" stroke="#663366" stroke-width="4.10156" stroke-miterlimit="10" stroke-linecap="round" stroke-linejoin="round"/>
<path d="M69.6951 102.906C67.4783 103.485 66.2752 103.485 64.0584 102.906" stroke="#663366" stroke-width="4.10156" stroke-miterlimit="10" stroke-linecap="round" stroke-linejoin="round"/>
<path d="M80.3049 102.906C82.5217 103.485 83.7248 103.485 85.9416 102.906" stroke="#663366" stroke-width="4.10156" stroke-miterlimit="10" stroke-linecap="round" stroke-linejoin="round"/>
<path d="M79.2982 117.336C76.6554 118.807 73.3446 118.807 70.7018 117.336" stroke="#663366" stroke-width="4.10156" stroke-miterlimit="10" stroke-linecap="round" stroke-linejoin="round"/>
<path d="M84.9351 64.493C91.0483 67.183 94.1882 71.006 95.0113 72.1211C95.136 72.2898 95.3769 72.3152 95.536 72.1788L98.3554 69.7591C98.5408 69.6 98.8263 69.6642 98.9225 69.8887C99.5725 71.4036 101.573 76.592 101.291 82.4835C100.954 89.5027 96.9923 96.8445 96.9923 96.8445C96.9923 96.8445 95.029 97.5909 93.2517 94.8812C91.4744 92.1659 93.1587 80.4738 86.1669 83.0906C79.1751 85.7101 74.9997 85.3382 74.9997 85.3382C74.9997 85.3382 70.8244 85.7101 63.8326 83.0906C56.8408 80.4738 58.5251 92.1659 56.7478 94.8812C54.9704 97.5909 53.0072 96.8445 53.0072 96.8445C53.0072 96.8445 49.0451 89.5027 48.7087 82.4835C48.4265 76.592 50.427 71.4036 51.077 69.8887C51.1732 69.6642 51.4587 69.6 51.6441 69.7591L54.4635 72.1788C54.6226 72.3155 54.8638 72.29 54.9882 72.1211C55.8184 70.9961 59.0069 67.1152 65.2274 64.4219" stroke="#663366" stroke-width="4.10156" stroke-miterlimit="10" stroke-linecap="round" stroke-linejoin="round"/>
<path d="M110.615 63.743C109.483 64.0878 108.283 64.2732 107.039 64.2732H83.8118C82.0306 64.2732 80.3845 65.2231 79.492 66.7655L76.6128 71.7429C75.895 72.9835 74.1051 72.9838 73.387 71.7432L70.5058 66.7645C69.6133 65.2225 67.9675 64.2729 66.1866 64.2729H42.9619C41.6986 64.2729 40.4799 64.0818 39.3334 63.7266" stroke="#663366" stroke-width="4.10156" stroke-miterlimit="10" stroke-linecap="round" stroke-linejoin="round"/>
<path d="M30.7031 22.2757V19.3127C30.7031 12.5386 36.1913 7.04688 42.9616 7.04688H107.038C113.808 7.04688 119.297 12.5386 119.297 19.3127V41.3526" stroke="#663366" stroke-width="4.10156" stroke-miterlimit="10" stroke-linecap="round" stroke-linejoin="round"/>
<path d="M30.7031 49.3695V30.6719" stroke="#663366" stroke-width="4.10156" stroke-miterlimit="10" stroke-linecap="round" stroke-linejoin="round"/>
<path d="M75 49.375C83.0038 49.375 89.4922 42.8866 89.4922 34.8828C89.4922 26.879 83.0038 20.3906 75 20.3906C66.9962 20.3906 60.5078 26.879 60.5078 34.8828C60.5078 42.8866 66.9962 49.375 75 49.375Z" stroke="#663366" stroke-width="4.10156" stroke-miterlimit="10" stroke-linecap="round" stroke-linejoin="round"/>
<path d="M75 15.1953V54.5703" stroke="#663366" stroke-width="4.10156" stroke-miterlimit="10" stroke-linecap="round" stroke-linejoin="round"/>
<path d="M94.6875 34.8828H55.3125" stroke="#663366" stroke-width="4.10156" stroke-miterlimit="10" stroke-linecap="round" stroke-linejoin="round"/>
<path d="M133.789 77.6719H113.008C112.102 77.6719 111.367 76.9374 111.367 76.0313V44.3125C111.367 43.4063 112.102 42.6719 113.008 42.6719H133.789C134.695 42.6719 135.43 43.4063 135.43 44.3125V76.0313C135.43 76.9374 134.695 77.6719 133.789 77.6719Z" stroke="#663366" stroke-width="4.10156" stroke-miterlimit="10" stroke-linecap="round" stroke-linejoin="round"/>
<path d="M36.9922 85.375H16.2109C15.3048 85.375 14.5703 84.6405 14.5703 83.7344V52.0156C14.5703 51.1095 15.3048 50.375 16.2109 50.375H36.9922C37.8984 50.375 38.6328 51.1095 38.6328 52.0156V83.7344C38.6328 84.6405 37.8984 85.375 36.9922 85.375Z" stroke="#663366" stroke-width="4.10156" stroke-miterlimit="10" stroke-linecap="round" stroke-linejoin="round"/>
<path d="M119.157 53.1094H124.597" stroke="#663366" stroke-width="4.10156" stroke-miterlimit="10" stroke-linecap="round" stroke-linejoin="round"/>
<path d="M119.157 61.0391H128.467" stroke="#663366" stroke-width="4.10156" stroke-miterlimit="10" stroke-linecap="round" stroke-linejoin="round"/>
<path d="M119.157 67.2344H128.467" stroke="#663366" stroke-width="4.10156" stroke-miterlimit="10" stroke-linecap="round" stroke-linejoin="round"/>
<path d="M22.4439 60.8125H30.7592" stroke="#663366" stroke-width="4.10156" stroke-miterlimit="10" stroke-linecap="round" stroke-linejoin="round"/>
<path d="M22.4439 67.8281H30.7592" stroke="#663366" stroke-width="4.10156" stroke-miterlimit="10" stroke-linecap="round" stroke-linejoin="round"/>
<path d="M22.4439 74.9375H30.7592" stroke="#663366" stroke-width="4.10156" stroke-miterlimit="10" stroke-linecap="round" stroke-linejoin="round"/>
<path d="M92.1516 142.949H38.9937C38.0701 142.949 37.5467 141.891 38.1053 141.153C40.8969 137.455 48.7287 129.098 64.0581 126.258" stroke="#663366" stroke-width="4.10156" stroke-miterlimit="10" stroke-linecap="round" stroke-linejoin="round"/>
<path d="M85.7751 126.227C101.214 129.037 109.093 137.441 111.895 141.152C112.453 141.89 111.93 142.949 111.006 142.949H102.035" stroke="#663366" stroke-width="4.10156" stroke-miterlimit="10" stroke-linecap="round" stroke-linejoin="round"/>
</svg>
