<svg width="150" height="150" viewBox="0 0 150 150" fill="none" xmlns="http://www.w3.org/2000/svg">
<g clip-path="url(#clip0_757_6220)">
<path d="M102.024 142.948V130.754L98.6674 126.041C97.4604 124.347 96.8121 122.319 96.8121 120.238V111.922" stroke="#663366" stroke-width="4.10156" stroke-miterlimit="10" stroke-linecap="round" stroke-linejoin="round"/>
<path d="M47.9756 142.948V130.754L51.3326 126.041C52.5068 124.393 53.1474 122.427 53.1813 120.406" stroke="#663366" stroke-width="4.10156" stroke-miterlimit="10" stroke-linecap="round" stroke-linejoin="round"/>
<path d="M128.72 79.9229V71.1562" stroke="#663366" stroke-width="4.10156" stroke-miterlimit="10" stroke-linecap="round" stroke-linejoin="round"/>
<path d="M36.6189 111.438H113.657" stroke="#663366" stroke-width="4.10156" stroke-miterlimit="10" stroke-linecap="round" stroke-linejoin="round"/>
<path d="M29.2003 40.3281H23.8565C22.4333 40.3281 21.2796 41.4818 21.2796 42.905V79.9859" stroke="#663366" stroke-width="4.10156" stroke-miterlimit="10" stroke-linecap="round" stroke-linejoin="round"/>
<path d="M128.72 62.0855V42.905C128.72 41.4818 127.567 40.3281 126.143 40.3281H121.207" stroke="#663366" stroke-width="4.10156" stroke-miterlimit="10" stroke-linecap="round" stroke-linejoin="round"/>
<path d="M34.3811 87.6484H64.6928C70.3852 87.6484 75 92.2632 75 97.9557" stroke="#663366" stroke-width="4.10156" stroke-miterlimit="10" stroke-linecap="round" stroke-linejoin="round"/>
<path d="M29.7729 94.7188H66.8289" stroke="#663366" stroke-width="4.10156" stroke-miterlimit="10" stroke-linecap="round" stroke-linejoin="round"/>
<path d="M83.1711 94.7188H120.227" stroke="#663366" stroke-width="4.10156" stroke-miterlimit="10" stroke-linecap="round" stroke-linejoin="round"/>
<path d="M115.566 87.6484H85.3072C79.6145 87.6484 75 92.2632 75 97.9557" stroke="#663366" stroke-width="4.10156" stroke-miterlimit="10" stroke-linecap="round" stroke-linejoin="round"/>
<path d="M29.7729 74.1297V36.5925C29.7729 35.1693 30.9265 34.0156 32.3498 34.0156H43.3351" stroke="#663366" stroke-width="4.10156" stroke-miterlimit="10" stroke-linecap="round" stroke-linejoin="round"/>
<path d="M75 99.2109C75 100.634 73.8464 101.788 72.4231 101.788H32.3498C30.9265 101.788 29.7729 100.634 29.7729 99.2109" stroke="#663366" stroke-width="4.10156" stroke-miterlimit="10" stroke-linecap="round" stroke-linejoin="round"/>
<path d="M120.227 99.2131C120.227 100.636 119.073 101.79 117.65 101.79H77.5769C76.1536 101.79 75 100.636 75 99.2131V73.6016" stroke="#663366" stroke-width="4.10156" stroke-miterlimit="10" stroke-linecap="round" stroke-linejoin="round"/>
<path d="M106.897 34.0156H117.65C119.073 34.0156 120.227 35.1693 120.227 36.5925V74.0638" stroke="#663366" stroke-width="4.10156" stroke-miterlimit="10" stroke-linecap="round" stroke-linejoin="round"/>
<path d="M32.6732 128.149L34.1747 126.041C35.3814 124.347 36.03 122.319 36.03 120.238V110.681C36.03 108.805 35.2605 107.011 33.9015 105.718L29.7726 101.789V90.4308L38.2697 84.7742C41.8812 82.3698 43.1355 77.6514 41.1944 73.7711C39.7905 70.9648 36.226 70.0537 33.6478 71.8422L17.3807 83.127C16.1921 83.9517 15.4828 85.3066 15.4828 86.7533V142.948" stroke="#663366" stroke-width="4.10156" stroke-miterlimit="10" stroke-linecap="round" stroke-linejoin="round"/>
<path d="M117.327 128.149L115.825 126.041C114.619 124.347 113.97 122.319 113.97 120.238V110.681C113.97 108.805 114.739 107.011 116.098 105.718L120.227 101.789V90.4308L111.73 84.7742C108.119 82.3698 106.864 77.6514 108.806 73.7711C110.209 70.9648 113.774 70.0537 116.352 71.8422L132.619 83.127C133.808 83.9517 134.517 85.3066 134.517 86.7533V142.948" stroke="#663366" stroke-width="4.10156" stroke-miterlimit="10" stroke-linecap="round" stroke-linejoin="round"/>
<path d="M55.482 30.5305C53.6743 33.7579 52.6397 37.4764 52.6397 41.4385C52.6397 53.7877 62.6507 63.7988 75 63.7988C87.3493 63.7988 97.3604 53.7877 97.3604 41.4385C97.3604 29.0892 87.3493 19.0781 75 19.0781C69.8998 19.0781 65.2011 20.789 61.4391 23.6637" stroke="#663366" stroke-width="4.10156" stroke-miterlimit="10" stroke-linecap="round" stroke-linejoin="round"/>
<path d="M110.505 43.0091L105.212 50.3892C104.885 50.8439 104.708 51.3886 104.705 51.948L104.651 61.03C104.644 62.1894 103.898 63.2153 102.798 63.5795L94.1754 66.4323C93.6424 66.6087 93.1779 66.9464 92.8456 67.3989L87.4737 74.7177C86.7865 75.654 85.5782 76.0464 84.4721 75.6928L75.8233 72.9275C75.2879 72.7564 74.7126 72.7564 74.1772 72.9275L65.5287 75.6928C64.4226 76.0464 63.2143 75.654 62.5272 74.7177L57.1552 67.3989C56.823 66.9464 56.3584 66.6087 55.8255 66.4323L47.2032 63.5795C46.1023 63.2153 45.3566 62.1896 45.3498 61.03L45.2957 51.948C45.2924 51.3886 45.1155 50.8439 44.7893 50.3892L39.4955 43.0091C38.8201 42.0677 38.8201 40.8005 39.4955 39.8591L44.789 32.479C45.1152 32.0243 45.2921 31.4796 45.2954 30.9201L45.3495 21.8382C45.3564 20.6788 46.1023 19.6529 47.2029 19.2887L55.8252 16.4359C56.3581 16.2595 56.8227 15.9218 57.1549 15.4693L62.5269 8.15046C63.214 7.21421 64.4223 6.82183 65.5284 7.17538L74.1772 9.94066C74.7126 10.1118 75.2879 10.1118 75.8233 9.94066L84.4716 7.17538C85.5777 6.82183 86.786 7.21421 87.4731 8.15046L92.8451 15.4693C93.1773 15.9218 93.6419 16.2595 94.1748 16.4359L102.797 19.2887C103.898 19.6529 104.644 20.6785 104.65 21.8382L104.705 30.9201C104.708 31.4796 104.885 32.0243 105.211 32.479L110.505 39.8591C111.18 40.8005 111.18 42.0677 110.505 43.0091Z" stroke="#663366" stroke-width="4.10156" stroke-miterlimit="10" stroke-linecap="round" stroke-linejoin="round"/>
<path d="M72.6796 48.0155H65.9V34.8594H72.6796" stroke="#663366" stroke-width="4.10156" stroke-miterlimit="10" stroke-linecap="round" stroke-linejoin="round"/>
<path d="M84.1 34.8594H80.7042C78.8352 34.8594 77.3201 36.3745 77.3201 38.2434V44.6315C77.3201 46.5004 78.8352 48.0155 80.7042 48.0155H84.1V41.4375H82.0358" stroke="#663366" stroke-width="4.10156" stroke-miterlimit="10" stroke-linecap="round" stroke-linejoin="round"/>
<path d="M65.9 41.4375H70.4104" stroke="#663366" stroke-width="4.10156" stroke-miterlimit="10" stroke-linecap="round" stroke-linejoin="round"/>
<path d="M78.4847 54.8438H78.4716H71.5153H71.5284" stroke="#663366" stroke-width="4.10156" stroke-miterlimit="10" stroke-linecap="round" stroke-linejoin="round"/>
<path d="M78.4847 28.0312H78.4716H71.5153H71.5284" stroke="#663366" stroke-width="4.10156" stroke-miterlimit="10" stroke-linecap="round" stroke-linejoin="round"/>
</g>
<defs>
<clipPath id="clip0_757_6220">
<rect width="140" height="140" fill="white" transform="translate(5 5)"/>
</clipPath>
</defs>
</svg>
