<svg width="150" height="150" viewBox="0 0 150 150" fill="none" xmlns="http://www.w3.org/2000/svg">
<g clip-path="url(#clip0_757_5243)">
<path d="M75 113.964V70.8594" stroke="#663366" stroke-width="4.10156" stroke-miterlimit="10" stroke-linecap="round" stroke-linejoin="round"/>
<path d="M21.543 113.962V104.203C21.543 101.939 23.3805 100.102 25.6445 100.102H124.355C126.62 100.102 128.457 101.939 128.457 104.203V113.962" stroke="#663366" stroke-width="4.10156" stroke-miterlimit="10" stroke-linecap="round" stroke-linejoin="round"/>
<path d="M45.1267 50.1756C43.8142 46.6838 43.0961 42.9011 43.0961 38.9507C43.0959 21.3307 57.38 7.04688 75 7.04688C92.62 7.04688 106.904 21.3307 106.904 38.951C106.904 56.5713 92.62 70.8549 75 70.8549C64.7417 70.8549 55.6141 66.0134 49.7779 58.4906" stroke="#663366" stroke-width="4.10156" stroke-miterlimit="10" stroke-linecap="round" stroke-linejoin="round"/>
<path d="M67.3946 54.1643H79.1579C81.0621 54.1643 82.6056 52.6207 82.6056 50.7165V42.401C82.6056 40.4968 81.0621 38.9532 79.1579 38.9532H70.8424C68.9381 38.9532 67.3946 37.4097 67.3946 35.5055V27.19C67.3946 25.2857 68.9381 23.7422 70.8424 23.7422H82.6056" stroke="#663366" stroke-width="4.10156" stroke-miterlimit="10" stroke-linecap="round" stroke-linejoin="round"/>
<path d="M75.42 23.7462V19.2266" stroke="#663366" stroke-width="4.10156" stroke-miterlimit="10" stroke-linecap="round" stroke-linejoin="round"/>
<path d="M75.42 58.6837V54.1641" stroke="#663366" stroke-width="4.10156" stroke-miterlimit="10" stroke-linecap="round" stroke-linejoin="round"/>
<path d="M21.543 142.953C29.5468 142.953 36.0352 136.465 36.0352 128.461C36.0352 120.457 29.5468 113.969 21.543 113.969C13.5392 113.969 7.05078 120.457 7.05078 128.461C7.05078 136.465 13.5392 142.953 21.543 142.953Z" stroke="#663366" stroke-width="4.10156" stroke-miterlimit="10" stroke-linecap="round" stroke-linejoin="round"/>
<path d="M75 142.953C83.0038 142.953 89.4922 136.465 89.4922 128.461C89.4922 120.457 83.0038 113.969 75 113.969C66.9962 113.969 60.5078 120.457 60.5078 128.461C60.5078 136.465 66.9962 142.953 75 142.953Z" stroke="#663366" stroke-width="4.10156" stroke-miterlimit="10" stroke-linecap="round" stroke-linejoin="round"/>
<path d="M114.683 132.979C114.217 131.558 113.965 130.039 113.965 128.461C113.965 120.457 120.453 113.969 128.457 113.969C136.461 113.969 142.949 120.457 142.949 128.461C142.949 136.465 136.461 142.953 128.457 142.953C125.47 142.953 122.693 142.049 120.387 140.5" stroke="#663366" stroke-width="4.10156" stroke-miterlimit="10" stroke-linecap="round" stroke-linejoin="round"/>
<path d="M80.9664 82.1328L75 88.0992L69.0336 82.1328" stroke="#663366" stroke-width="4.10156" stroke-miterlimit="10" stroke-linecap="round" stroke-linejoin="round"/>
<path d="M49.047 106.073L43.0806 100.107L49.047 94.1406" stroke="#663366" stroke-width="4.10156" stroke-miterlimit="10" stroke-linecap="round" stroke-linejoin="round"/>
<path d="M100.502 106.073L106.469 100.107L100.502 94.1406" stroke="#663366" stroke-width="4.10156" stroke-miterlimit="10" stroke-linecap="round" stroke-linejoin="round"/>
</g>
<defs>
<clipPath id="clip0_757_5243">
<rect width="140" height="140" fill="white" transform="translate(5 5)"/>
</clipPath>
</defs>
</svg>
