<svg width="150" height="150" viewBox="0 0 150 150" fill="none" xmlns="http://www.w3.org/2000/svg">
<g clip-path="url(#clip0_757_3631)">
<path fill-rule="evenodd" clip-rule="evenodd" d="M7.73464 129.961H142.265V136.113C142.265 139.497 139.497 142.266 136.113 142.266H13.887C10.5032 142.266 7.73464 139.497 7.73464 136.113V129.961Z" stroke="#663366" stroke-width="5.46873" stroke-miterlimit="2.6131" stroke-linecap="round" stroke-linejoin="round"/>
<path d="M77.1817 100.936V63.6681L85.0969 46.3112V34.2578H126.688V46.3112L134.603 63.6681V128.593" stroke="#663366" stroke-width="5.46873" stroke-miterlimit="2.6131" stroke-linecap="round" stroke-linejoin="round"/>
<path d="M132.444 113.555H93.889" stroke="#663366" stroke-width="5.46873" stroke-miterlimit="2.6131" stroke-linecap="round" stroke-linejoin="round"/>
<path d="M32.3439 20.0391V32.3437L39.3442 28.302" stroke="#663366" stroke-width="5.46873" stroke-miterlimit="2.6131" stroke-linecap="round" stroke-linejoin="round"/>
<path d="M37.301 128.594V105.84C37.301 99.5555 42.4425 94.4141 48.7266 94.4141H55.1726C61.4567 94.4141 66.5981 99.5555 66.5981 105.84V128.594" stroke="#663366" stroke-width="5.46873" stroke-miterlimit="2.6131" stroke-linecap="round" stroke-linejoin="round"/>
<path d="M22.6528 128.595V106.782C22.6528 104.319 24.6675 102.305 27.13 102.305H32.8241C35.2866 102.305 37.3013 104.319 37.3013 106.782" stroke="#663366" stroke-width="5.46873" stroke-miterlimit="2.6131" stroke-linecap="round" stroke-linejoin="round"/>
<path d="M21.2856 109.93H16.7936C13.5709 109.93 10.9341 112.566 10.9341 115.789V124.106C10.9341 127.321 13.5572 129.952 16.7684 129.966" stroke="#663366" stroke-width="5.46873" stroke-miterlimit="2.6131" stroke-linecap="round" stroke-linejoin="round"/>
<path d="M81.2464 128.595V106.782C81.2464 104.319 79.2317 102.305 76.7691 102.305H71.0751C68.6125 102.305 66.5978 104.319 66.5978 106.782" stroke="#663366" stroke-width="5.46873" stroke-miterlimit="2.6131" stroke-linecap="round" stroke-linejoin="round"/>
<path d="M82.6136 109.93H87.1056C90.3283 109.93 92.965 112.566 92.965 115.789V124.106C92.965 127.312 90.3559 129.938 87.1562 129.965" stroke="#663366" stroke-width="5.46873" stroke-miterlimit="2.6131" stroke-linecap="round" stroke-linejoin="round"/>
<path d="M51.9496 83.4816C49.2631 78.8283 54.5565 75.3408 51.8697 70.6875" stroke="#663366" stroke-width="5.46873" stroke-miterlimit="22.9256" stroke-linecap="round" stroke-linejoin="round"/>
<path d="M39.6449 83.4816C36.9584 78.8283 42.2519 75.3408 39.5651 70.6875" stroke="#663366" stroke-width="5.46873" stroke-miterlimit="22.9256" stroke-linecap="round" stroke-linejoin="round"/>
<path d="M64.2542 83.4816C61.5677 78.8283 66.8612 75.3408 64.1744 70.6875" stroke="#663366" stroke-width="5.46873" stroke-miterlimit="22.9256" stroke-linecap="round" stroke-linejoin="round"/>
<path d="M37.9234 56.3135C51.16 53.231 59.3915 40.0017 56.309 26.7651C53.2265 13.5286 39.9972 5.29704 26.7606 8.37955C13.524 11.4621 5.2925 24.6913 8.37502 37.9279C11.4575 51.1645 24.6868 59.396 37.9234 56.3135Z" stroke="#663366" stroke-width="5.46873" stroke-miterlimit="2.6131" stroke-linecap="round" stroke-linejoin="round"/>
<path d="M118.773 128.595V63.6694L126.688 46.3125H86.4641" stroke="#663366" stroke-width="5.46873" stroke-miterlimit="2.6131" stroke-linecap="round" stroke-linejoin="round"/>
<path d="M97.9763 63.673L97.978 63.6719" stroke="#663366" stroke-width="5.46873" stroke-miterlimit="2.6131" stroke-linecap="round" stroke-linejoin="round"/>
<path d="M78.5489 63.6719H85.6728M110.282 63.6719H133.236" stroke="#663366" stroke-width="5.46873" stroke-miterlimit="2.6131" stroke-linecap="round" stroke-linejoin="round"/>
</g>
<defs>
<clipPath id="clip0_757_3631">
<rect width="140" height="140" fill="white" transform="translate(5 5)"/>
</clipPath>
</defs>
</svg>
