<svg width="150" height="150" viewBox="0 0 150 150" fill="none" xmlns="http://www.w3.org/2000/svg">
<g clip-path="url(#clip0_757_5003)">
<path d="M57.2264 73.0859V105.898" stroke="#663366" stroke-width="6.01562" stroke-miterlimit="10" stroke-linejoin="round"/>
<path d="M43.0077 105.898V73.0859" stroke="#663366" stroke-width="6.01562" stroke-miterlimit="10" stroke-linejoin="round"/>
<path d="M104.805 105.898V73.0859" stroke="#663366" stroke-width="6.01562" stroke-miterlimit="10" stroke-linejoin="round"/>
<path d="M119.023 73.0859V105.898" stroke="#663366" stroke-width="6.01562" stroke-miterlimit="10" stroke-linejoin="round"/>
<path d="M70.7775 89.4922H91.2536" stroke="#663366" stroke-width="6.01562" stroke-miterlimit="10" stroke-linecap="round" stroke-linejoin="round"/>
<path d="M111.367 141.992V105.898" stroke="#663366" stroke-width="6.01562" stroke-miterlimit="10" stroke-linejoin="round"/>
<path d="M126.68 105.898V141.992" stroke="#663366" stroke-width="6.01562" stroke-miterlimit="10" stroke-linejoin="round"/>
<path d="M38.6327 105.898V141.992" stroke="#663366" stroke-width="6.01562" stroke-miterlimit="10" stroke-linejoin="round"/>
<path d="M23.3202 141.992V105.898" stroke="#663366" stroke-width="6.01562" stroke-miterlimit="10" stroke-linejoin="round"/>
<path d="M56.3339 123.945H93.6658" stroke="#663366" stroke-width="6.01562" stroke-miterlimit="10" stroke-linecap="round" stroke-linejoin="round"/>
<path d="M20.0389 105.898V73.0859H141.992V105.898" stroke="#663366" stroke-width="6.01562" stroke-miterlimit="10" stroke-linejoin="round"/>
<path d="M141.992 105.898H8.00769V141.992H141.992V105.898Z" stroke="#663366" stroke-width="6.01562" stroke-miterlimit="10" stroke-linecap="round" stroke-linejoin="round"/>
<path d="M89.6857 21.2971C87.4818 21.3072 85.367 21.6919 83.3991 22.3881C81.8593 22.9328 80.1719 22.9331 78.6322 22.3881C76.6643 21.6919 74.5495 21.3072 72.3454 21.2971C61.5314 21.2476 52.9223 30.3216 53.1035 41.1341C53.3002 52.8643 58.5846 63.355 66.8449 70.4978C69.7512 73.0109 73.7864 73.7629 77.396 72.4468C79.7336 71.5945 82.2974 71.5945 84.635 72.4468C88.2446 73.7629 92.28 73.0109 95.1864 70.4978C103.447 63.355 108.731 52.8643 108.928 41.1339C109.109 30.3211 100.499 21.247 89.6857 21.2971Z" stroke="#663366" stroke-width="6.01562" stroke-miterlimit="10" stroke-linecap="round" stroke-linejoin="round"/>
<path d="M80.998 21.3699H74.226C70.5866 21.3699 67.6362 18.4195 67.6362 14.78V8.00781H74.4082C78.0476 8.00781 80.998 10.9582 80.998 14.5977V21.3699Z" stroke="#663366" stroke-width="6.01562" stroke-miterlimit="10" stroke-linecap="round" stroke-linejoin="round"/>
<path d="M80.9592 22.6319C80.9592 17.3556 82.8366 12.5177 85.9598 8.75" stroke="#663366" stroke-width="6.01562" stroke-miterlimit="10" stroke-linecap="round" stroke-linejoin="round"/>
</g>
<defs>
<clipPath id="clip0_757_5003">
<rect width="140" height="140" fill="white" transform="translate(4.99988 5)"/>
</clipPath>
</defs>
</svg>
