<svg width="150" height="150" viewBox="0 0 150 150" fill="none" xmlns="http://www.w3.org/2000/svg">
<path d="M109.247 62.7881V42.5625" stroke="#663366" stroke-width="4.10156" stroke-miterlimit="10" stroke-linecap="round" stroke-linejoin="round"/>
<path d="M116.083 42.6719V62.7917" stroke="#663366" stroke-width="4.10156" stroke-miterlimit="10" stroke-linecap="round" stroke-linejoin="round"/>
<path d="M79.8954 18.0938H107.196C112.096 18.0938 116.083 22.0802 116.083 26.9805V34.7682H120.364C121.081 34.7682 121.482 35.5946 121.04 36.1581L113.395 45.8879C113.051 46.3256 112.388 46.3256 112.044 45.8879L104.399 36.1581C103.956 35.5946 104.358 34.7682 105.075 34.7682H109.247V26.9805C109.247 25.8495 108.327 24.9297 107.196 24.9297H79.8959" stroke="#663366" stroke-width="4.10156" stroke-miterlimit="10" stroke-linecap="round" stroke-linejoin="round"/>
<path d="M60.3722 18.1033L72.0105 18.1061V13.8842C72.0105 13.1672 72.8368 12.7658 73.4004 13.2085L83.1301 20.8533C83.5679 21.1973 83.5679 21.8603 83.1301 22.2043L73.4004 29.8494C72.8368 30.2923 72.0105 29.8907 72.0105 29.1737V24.9516L42.8041 24.9352C41.6731 24.9352 40.7533 25.855 40.7533 26.9859V55.1552" stroke="#663366" stroke-width="4.10156" stroke-miterlimit="10" stroke-linecap="round" stroke-linejoin="round"/>
<path d="M33.9174 55.0171V26.9805C33.9174 22.0802 37.9038 18.0938 42.8041 18.0938L50.8019 18.0957" stroke="#663366" stroke-width="4.10156" stroke-miterlimit="10" stroke-linecap="round" stroke-linejoin="round"/>
<path d="M33.9174 72.5947V62.9011H29.6359C28.9189 62.9011 28.5175 62.0747 28.9602 61.5112L36.605 51.7815C36.949 51.3437 37.6121 51.3437 37.956 51.7815L45.6008 61.5112C46.0438 62.0747 45.6421 62.9011 44.9251 62.9011H40.7528V72.5947" stroke="#663366" stroke-width="4.10156" stroke-miterlimit="10" stroke-linecap="round" stroke-linejoin="round"/>
<path d="M120.154 73.0263V66.2344C120.154 64.7242 118.93 63.5 117.42 63.5H108.019C106.508 63.5 105.284 64.7242 105.284 66.2344V73.0263" stroke="#663366" stroke-width="4.10156" stroke-miterlimit="10" stroke-linecap="round" stroke-linejoin="round"/>
<path d="M44.716 82.28V75.7656C44.716 74.2554 43.4918 73.0312 41.9816 73.0312H32.5803C31.0701 73.0312 29.8459 74.2554 29.8459 75.7656V82.0153" stroke="#663366" stroke-width="4.10156" stroke-miterlimit="10" stroke-linecap="round" stroke-linejoin="round"/>
<path d="M22.9851 118.162H11.3834C9.11439 118.162 7.16232 116.418 7.05541 114.152C6.94138 111.732 8.86967 109.734 11.2644 109.734" stroke="#663366" stroke-width="4.10156" stroke-miterlimit="10" stroke-linecap="round" stroke-linejoin="round"/>
<path d="M69.9004 109.734C72.2276 109.734 74.114 111.621 74.114 113.948V132.76C74.114 135.088 72.2276 136.974 69.9004 136.974H11.3834C9.11439 136.974 7.16232 135.23 7.05541 132.964C6.94138 130.544 8.86967 128.547 11.2644 128.547H65.6867V118.162H32.5554" stroke="#663366" stroke-width="4.10156" stroke-miterlimit="10" stroke-linecap="round" stroke-linejoin="round"/>
<path d="M12.6691 128.549V118.164" stroke="#663366" stroke-width="4.10156" stroke-miterlimit="10" stroke-linecap="round" stroke-linejoin="round"/>
<path d="M11.2645 82.5H69.7814C72.0504 82.5 74.0025 84.2437 74.1094 86.51C74.2234 88.9296 72.2952 90.9273 69.9004 90.9273H15.4781V101.312H69.7814C72.0504 101.312 74.0025 103.056 74.1094 105.322C74.2234 107.742 72.2952 109.739 69.9004 109.739H11.2645C8.93723 109.739 7.05078 107.853 7.05078 105.526V86.7134C7.05078 84.3864 8.93723 82.5 11.2645 82.5Z" stroke="#663366" stroke-width="4.10156" stroke-miterlimit="10" stroke-linecap="round" stroke-linejoin="round"/>
<path d="M68.4957 90.9219V101.307" stroke="#663366" stroke-width="4.10156" stroke-miterlimit="10" stroke-linecap="round" stroke-linejoin="round"/>
<path d="M112.5 78.5175C112.5 75.4875 110.044 73.0312 107.014 73.0312C104.557 73.0312 102.478 74.6464 101.779 76.873C100.686 76.3418 99.4314 76.0916 98.1082 76.2184C95.1586 76.5014 92.6955 78.7092 92.0789 81.6073C91.8623 82.6251 91.8869 83.6075 92.0887 84.5238C88.8786 85.0956 86.4406 87.8986 86.4406 91.2731C86.4406 91.9307 86.5349 92.5656 86.7078 93.1677C84.8478 94.0457 83.5602 95.9377 83.5602 98.1309C83.5602 99.1248 83.826 100.056 84.2881 100.861C82.9021 102.333 82.0514 104.316 82.0514 106.498C82.0514 109.441 83.5982 112.023 85.9224 113.477C85.5508 114.321 85.3433 115.254 85.3433 116.236C85.3433 119.153 87.1658 121.643 89.7333 122.634C89.6442 123.14 89.595 123.66 89.595 124.191C89.595 129.115 93.5864 133.106 98.5101 133.106C98.8254 133.106 99.1366 133.089 99.4431 133.057C100.543 135.377 102.905 136.981 105.642 136.981C109.43 136.981 112.5 133.91 112.5 130.123" stroke="#663366" stroke-width="4.10156" stroke-miterlimit="10" stroke-linecap="round" stroke-linejoin="round"/>
<path d="M112.5 78.5175C112.5 75.4875 114.957 73.0312 117.987 73.0312C120.444 73.0312 122.523 74.6464 123.222 76.873C124.315 76.3418 125.569 76.0916 126.892 76.2184C129.842 76.5014 132.305 78.7092 132.922 81.6073C133.138 82.6251 133.114 83.6075 132.912 84.5238C136.122 85.0956 138.56 87.8986 138.56 91.2731C138.56 91.9307 138.466 92.5656 138.293 93.1677C140.153 94.0457 141.44 95.9377 141.44 98.1309C141.44 99.1248 141.175 100.056 140.712 100.861C142.099 102.333 142.949 104.316 142.949 106.498C142.949 109.441 141.402 112.023 139.078 113.477C139.45 114.321 139.657 115.254 139.657 116.236C139.657 119.153 137.835 121.643 135.267 122.634C135.356 123.14 135.406 123.66 135.406 124.191C135.406 129.115 131.414 133.106 126.49 133.106C126.175 133.106 125.864 133.089 125.557 133.057C124.458 135.377 122.096 136.981 119.358 136.981C115.571 136.981 112.501 133.91 112.501 130.123" stroke="#663366" stroke-width="4.10156" stroke-miterlimit="10" stroke-linecap="round" stroke-linejoin="round"/>
<path d="M100.317 127.125C99.8995 127.709 99.6056 128.397 99.3904 129.125C98.9955 130.46 99.0412 131.822 99.4431 133.053" stroke="#663366" stroke-width="4.10156" stroke-miterlimit="10" stroke-linecap="round" stroke-linejoin="round"/>
<path d="M124.683 127.125C125.101 127.709 125.395 128.397 125.61 129.125C126.005 130.46 125.959 131.822 125.557 133.053" stroke="#663366" stroke-width="4.10156" stroke-miterlimit="10" stroke-linecap="round" stroke-linejoin="round"/>
<path d="M112.5 119.312V130.118" stroke="#663366" stroke-width="4.10156" stroke-miterlimit="10" stroke-linecap="round" stroke-linejoin="round"/>
<path d="M112.5 78.5156V109.745" stroke="#663366" stroke-width="4.10156" stroke-miterlimit="10" stroke-linecap="round" stroke-linejoin="round"/>
<path d="M138.173 93.1126C137.408 92.8482 136.57 92.75 135.715 92.75C134.145 92.75 132.688 93.2343 131.485 94.0617" stroke="#663366" stroke-width="4.10156" stroke-miterlimit="10" stroke-linecap="round" stroke-linejoin="round"/>
<path d="M86.8234 93.1126C87.5888 92.8482 88.426 92.75 89.2811 92.75C90.8435 92.75 92.2938 93.2296 93.4931 94.0494" stroke="#663366" stroke-width="4.10156" stroke-miterlimit="10" stroke-linecap="round" stroke-linejoin="round"/>
<path d="M94.069 109.352C97.196 109.647 99.6723 112.123 99.9678 115.25" stroke="#663366" stroke-width="4.10156" stroke-miterlimit="10" stroke-linecap="round" stroke-linejoin="round"/>
<path d="M103.12 94.1858C101.118 91.7656 101.118 88.2639 103.12 85.8438" stroke="#663366" stroke-width="4.10156" stroke-miterlimit="10" stroke-linecap="round" stroke-linejoin="round"/>
<path d="M130.932 109.352C127.805 109.647 125.328 112.123 125.033 115.25" stroke="#663366" stroke-width="4.10156" stroke-miterlimit="10" stroke-linecap="round" stroke-linejoin="round"/>
<path d="M121.881 94.1858C123.883 91.7656 123.883 88.2639 121.881 85.8438" stroke="#663366" stroke-width="4.10156" stroke-miterlimit="10" stroke-linecap="round" stroke-linejoin="round"/>
<path d="M83.9545 41.5901L76.1451 38.1262C75.4134 37.8017 74.5863 37.8017 73.8543 38.1262L48.6814 49.2923C47.7962 49.685 47.7962 50.992 48.6814 51.3844L58.5713 55.7714" stroke="#663366" stroke-width="4.10156" stroke-miterlimit="10" stroke-linecap="round" stroke-linejoin="round"/>
<path d="M91.4421 55.7626L101.318 51.3818C102.203 50.9892 102.203 49.6821 101.318 49.2898L92.7043 45.4688" stroke="#663366" stroke-width="4.10156" stroke-miterlimit="10" stroke-linecap="round" stroke-linejoin="round"/>
<path d="M91.2887 54.5966C91.2887 51.5617 83.9961 49.1016 75 49.1016C66.0039 49.1016 58.7113 51.5617 58.7113 54.5966V68.5186C58.7113 69.1227 59.201 69.6124 59.8051 69.6124H90.1949C90.7989 69.6124 91.2887 69.1227 91.2887 68.5186V54.5966Z" stroke="#663366" stroke-width="4.10156" stroke-miterlimit="10" stroke-linecap="round" stroke-linejoin="round"/>
<path d="M58.8497 62.0781H91.1506" stroke="#663366" stroke-width="4.10156" stroke-miterlimit="10" stroke-linecap="round" stroke-linejoin="round"/>
</svg>
