<svg width="150" height="150" viewBox="0 0 150 150" fill="none" xmlns="http://www.w3.org/2000/svg">
<g clip-path="url(#clip0_757_3587)">
<mask id="mask0_757_3587" style="mask-type:luminance" maskUnits="userSpaceOnUse" x="4" y="5" width="141" height="140">
<path d="M4.99985 5.00002H145V145H4.99985V5.00002Z" fill="white"/>
</mask>
<g mask="url(#mask0_757_3587)">
<path d="M130.281 142.945H136.75C140.137 142.945 142.882 140.2 142.882 136.813C142.882 135.119 142.197 133.587 141.085 132.478C139.976 131.366 138.444 130.68 136.75 130.68H13.25C9.86262 130.68 7.11731 133.425 7.11731 136.813C7.11731 138.506 7.80282 140.039 8.91489 141.148C10.0237 142.26 11.5563 142.945 13.25 142.945H122.086" stroke="#663366" stroke-width="4.10156" stroke-miterlimit="10" stroke-linecap="round" stroke-linejoin="round"/>
<path d="M57.416 67.0974C59.2133 66.7121 61.0054 66.2669 62.7918 65.7616C81.6543 60.4266 97.7084 48.9343 108.742 33.0358L104.74 30.7985C100.574 28.4713 100.489 22.5052 104.59 20.0604L124.943 7.93177C129.041 5.4867 134.25 8.3988 134.316 13.1711L134.646 36.8601C134.712 41.6327 129.587 44.6867 125.422 42.3592L120.455 39.5811C107.646 58.5855 88.7347 72.3206 66.4307 78.6307C50.9418 83.0122 34.9723 83.4902 19.6693 80.2013C15.9869 79.4092 13.6679 75.7596 14.5585 72.0991L14.5694 72.0529C15.4269 68.5261 18.9455 66.3624 22.4967 67.1247C31.2819 69.0095 40.3237 69.4522 49.3275 68.4222" stroke="#663366" stroke-width="4.10156" stroke-miterlimit="10" stroke-linecap="round" stroke-linejoin="round"/>
<path d="M30.6234 105.213H21.3429C16.8733 105.213 13.2497 108.836 13.2497 113.306V130.68H38.7166V113.306C38.7166 108.836 35.0933 105.213 30.6234 105.213Z" stroke="#663366" stroke-width="4.10156" stroke-miterlimit="10" stroke-linecap="round" stroke-linejoin="round"/>
<path d="M63.3013 96.9884H54.0208C49.551 96.9884 45.9276 100.612 45.9276 105.082V130.68H71.3945V105.082C71.3945 100.612 67.7709 96.9884 63.3013 96.9884Z" stroke="#663366" stroke-width="4.10156" stroke-miterlimit="10" stroke-linecap="round" stroke-linejoin="round"/>
<path d="M128.657 65.2953H119.376C114.907 65.2953 111.283 68.9186 111.283 73.3885V130.68H136.75V73.3885C136.75 68.9186 133.126 65.2953 128.657 65.2953Z" stroke="#663366" stroke-width="4.10156" stroke-miterlimit="10" stroke-linecap="round" stroke-linejoin="round"/>
<path d="M95.979 88.8788H86.6985C82.2289 88.8788 78.6053 92.5021 78.6053 96.9717V130.68H104.072V96.9717C104.072 92.5021 100.449 88.8788 95.979 88.8788Z" stroke="#663366" stroke-width="4.10156" stroke-miterlimit="10" stroke-linecap="round" stroke-linejoin="round"/>
</g>
</g>
<defs>
<clipPath id="clip0_757_3587">
<rect width="140" height="140" fill="white" transform="translate(4.99985 5)"/>
</clipPath>
</defs>
</svg>
