<svg width="150" height="150" viewBox="0 0 150 150" fill="none" xmlns="http://www.w3.org/2000/svg">
<path d="M136.443 48.972H100.991C98.8941 48.972 97.1944 47.2723 97.1944 45.1755V10.8433C97.1944 8.74656 98.8941 7.04688 100.991 7.04688H136.443C138.54 7.04688 140.24 8.74656 140.24 10.8433V45.1753C140.24 47.2723 138.54 48.972 136.443 48.972Z" stroke="#663366" stroke-width="4.10156" stroke-miterlimit="10" stroke-linecap="round" stroke-linejoin="round"/>
<path d="M118.717 40.737C124.187 40.737 128.621 36.3029 128.621 30.8333C128.621 25.3637 124.187 20.9297 118.717 20.9297C113.248 20.9297 108.814 25.3637 108.814 30.8333C108.814 36.3029 113.248 40.737 118.717 40.737Z" stroke="#663366" stroke-width="4.10156" stroke-miterlimit="10" stroke-linecap="round" stroke-linejoin="round"/>
<path d="M118.717 20.9304V15.125" stroke="#663366" stroke-width="4.10156" stroke-miterlimit="10" stroke-linecap="round" stroke-linejoin="round"/>
<path d="M114.304 15.125H123.13" stroke="#663366" stroke-width="4.10156" stroke-miterlimit="10" stroke-linecap="round" stroke-linejoin="round"/>
<path d="M118.717 30.833V28.0078" stroke="#663366" stroke-width="4.10156" stroke-miterlimit="10" stroke-linecap="round" stroke-linejoin="round"/>
<path d="M51.5844 45.4531H44.6093V62.0068H51.5844" stroke="#663366" stroke-width="4.10156" stroke-miterlimit="10" stroke-linecap="round" stroke-linejoin="round"/>
<path d="M51.0701 53.7344H44.6093" stroke="#663366" stroke-width="4.10156" stroke-miterlimit="10" stroke-linecap="round" stroke-linejoin="round"/>
<path d="M70.0973 47.1705C70.0973 47.1705 67.0996 44.6508 63.5646 45.7155C60.3186 46.6933 59.8647 50.4361 62.213 51.9671C62.213 51.9671 64.5172 52.9952 67.073 53.9378C73.2254 56.207 70.5752 62.1592 65.6225 62.1592C63.1421 62.1592 61.0607 61.0731 59.8007 59.6827" stroke="#663366" stroke-width="4.10156" stroke-miterlimit="10" stroke-linecap="round" stroke-linejoin="round"/>
<path d="M26.8903 45.4531H36.1164" stroke="#663366" stroke-width="4.10156" stroke-miterlimit="10" stroke-linecap="round" stroke-linejoin="round"/>
<path d="M31.4846 45.9922V62.1646" stroke="#663366" stroke-width="4.10156" stroke-miterlimit="10" stroke-linecap="round" stroke-linejoin="round"/>
<path d="M78.2312 45.4531H87.4573" stroke="#663366" stroke-width="4.10156" stroke-miterlimit="10" stroke-linecap="round" stroke-linejoin="round"/>
<path d="M82.8255 45.9922V62.1646" stroke="#663366" stroke-width="4.10156" stroke-miterlimit="10" stroke-linecap="round" stroke-linejoin="round"/>
<path d="M122.323 136.606L118.692 142.946L115.061 136.606C114.114 134.953 113.617 133.083 113.617 131.178V71.7C113.617 68.8973 115.889 66.625 118.692 66.625C121.494 66.625 123.767 68.8973 123.767 71.7V131.178C123.767 133.083 123.269 134.953 122.323 136.606Z" stroke="#663366" stroke-width="4.10156" stroke-miterlimit="10" stroke-linecap="round" stroke-linejoin="round"/>
<path d="M113.617 86.0276H123.767V77.2344H127.846C129.6 77.2344 131.022 78.6562 131.022 80.4103V98.1179" stroke="#663366" stroke-width="4.10156" stroke-miterlimit="10" stroke-linecap="round" stroke-linejoin="round"/>
<path d="M104.588 58.6891V138.22C104.588 140.76 102.529 142.819 99.9892 142.819H14.3595C11.8193 142.819 9.76027 140.76 9.76027 138.22V26.5367C9.76027 23.9965 11.8193 21.9375 14.3595 21.9375H97.1946" stroke="#663366" stroke-width="4.10156" stroke-miterlimit="10" stroke-linecap="round" stroke-linejoin="round"/>
<path d="M17.1532 111.196V29.3281H97.1944V135.423H17.1532V120.795" stroke="#663366" stroke-width="4.10156" stroke-miterlimit="10" stroke-linecap="round" stroke-linejoin="round"/>
<path d="M68.3519 21.9311H45.9954C43.9618 21.9311 42.3136 20.2825 42.3136 18.2492V13.1428C42.3136 11.1092 43.9621 9.46094 45.9954 9.46094H68.3519C70.3855 9.46094 72.0337 11.1095 72.0337 13.1428V18.2492C72.034 20.2828 70.3855 21.9311 68.3519 21.9311Z" stroke="#663366" stroke-width="4.10156" stroke-miterlimit="10" stroke-linecap="round" stroke-linejoin="round"/>
<path d="M79.6544 21.9375H34.6931V32.4309C34.6931 34.7981 36.6121 36.7168 38.979 36.7168H75.3686C77.7357 36.7168 79.6544 34.7978 79.6544 32.4309V21.9375Z" stroke="#663366" stroke-width="4.10156" stroke-miterlimit="10" stroke-linecap="round" stroke-linejoin="round"/>
<path d="M36.2812 124.466H29.9996C28.9542 124.466 28.1068 123.618 28.1068 122.573V116.291C28.1068 115.246 28.9542 114.398 29.9996 114.398H36.2812C37.3266 114.398 38.174 115.246 38.174 116.291V122.573C38.174 123.618 37.3266 124.466 36.2812 124.466Z" stroke="#663366" stroke-width="4.10156" stroke-miterlimit="10" stroke-linecap="round" stroke-linejoin="round"/>
<path d="M36.2812 103.825H29.9996C28.9542 103.825 28.1068 102.978 28.1068 101.932V95.6505C28.1068 94.6052 28.9542 93.7578 29.9996 93.7578H36.2812C37.3266 93.7578 38.174 94.6052 38.174 95.6505V101.932C38.174 102.978 37.3266 103.825 36.2812 103.825Z" stroke="#663366" stroke-width="4.10156" stroke-miterlimit="10" stroke-linecap="round" stroke-linejoin="round"/>
<path d="M36.2812 83.1843H29.9996C28.9542 83.1843 28.1068 82.337 28.1068 81.2916V75.0099C28.1068 73.9646 28.9542 73.1172 29.9996 73.1172H36.2812C37.3266 73.1172 38.174 73.9646 38.174 75.0099V81.2916C38.174 82.337 37.3266 83.1843 36.2812 83.1843Z" stroke="#663366" stroke-width="4.10156" stroke-miterlimit="10" stroke-linecap="round" stroke-linejoin="round"/>
<path d="M46.9855 78.1484H86.2407" stroke="#663366" stroke-width="4.10156" stroke-miterlimit="10" stroke-linecap="round" stroke-linejoin="round"/>
<path d="M46.9855 98.7891H86.2407" stroke="#663366" stroke-width="4.10156" stroke-miterlimit="10" stroke-linecap="round" stroke-linejoin="round"/>
<path d="M46.9855 119.438H86.2407" stroke="#663366" stroke-width="4.10156" stroke-miterlimit="10" stroke-linecap="round" stroke-linejoin="round"/>
</svg>
