<svg width="150" height="150" viewBox="0 0 150 150" fill="none" xmlns="http://www.w3.org/2000/svg">
<g clip-path="url(#clip0_757_5213)">
<path d="M79.4188 130.101V140.191C79.4188 141.716 80.6574 142.952 82.1805 142.952H97.6488C99.1746 142.952 100.411 141.716 100.411 140.191L100.413 125.414" stroke="#663366" stroke-width="4.10156" stroke-miterlimit="10" stroke-linecap="round" stroke-linejoin="round"/>
<path d="M79.4188 120.523V83.2805C79.4188 81.1449 81.1496 79.4141 83.2852 79.4141H140.188C141.713 79.4141 142.949 80.6527 142.949 82.1758V97.6441C142.949 99.1699 141.713 100.406 140.188 100.406H125.411" stroke="#663366" stroke-width="4.10156" stroke-miterlimit="10" stroke-linecap="round" stroke-linejoin="round"/>
<path d="M87.9101 106.662C89.636 104.936 92.4341 104.936 94.16 106.662L97.2851 109.787L91.0352 116.037L87.9101 112.912C86.1841 111.186 86.1841 108.388 87.9101 106.662Z" stroke="#663366" stroke-width="4.10156" stroke-miterlimit="10" stroke-linecap="round" stroke-linejoin="round"/>
<path d="M106.66 87.9116C104.934 89.6376 104.934 92.4357 106.66 94.1616L109.785 97.2867L116.035 91.0368L112.91 87.9116C111.185 86.1857 108.386 86.1857 106.66 87.9116Z" stroke="#663366" stroke-width="4.10156" stroke-miterlimit="10" stroke-linecap="round" stroke-linejoin="round"/>
<path d="M117.598 124.227C121.259 124.227 124.227 121.259 124.227 117.598C124.227 113.937 121.259 110.969 117.598 110.969C113.937 110.969 110.969 113.937 110.969 117.598C110.969 121.259 113.937 124.227 117.598 124.227Z" stroke="#663366" stroke-width="4.10156" stroke-miterlimit="10" stroke-linecap="round" stroke-linejoin="round"/>
<path d="M126.436 101.432L116.036 91.0312L109.785 97.2812L116.817 104.313C118.111 105.607 118.111 107.706 116.817 109L109.004 116.813C107.71 118.107 105.611 118.107 104.317 116.813L97.2852 109.781L91.0352 116.031L101.436 126.432C106.047 131.043 113.524 131.043 118.135 126.432L126.436 118.131C131.047 113.52 131.047 106.043 126.436 101.432Z" stroke="#663366" stroke-width="4.10156" stroke-miterlimit="10" stroke-linecap="round" stroke-linejoin="round"/>
<path d="M24.588 100.414H9.81305C8.28754 100.414 7.05078 99.1777 7.05078 97.6522V82.1841C7.05078 80.6586 8.28754 79.4219 9.81305 79.4219H66.7135C68.8493 79.4219 70.5804 81.1533 70.5804 83.2888V140.189C70.5804 141.715 69.3437 142.952 67.8182 142.952H52.3501C50.8246 142.952 49.5878 141.715 49.5878 140.189V125.414" stroke="#663366" stroke-width="4.10156" stroke-miterlimit="10" stroke-linecap="round" stroke-linejoin="round"/>
<path d="M43.3397 87.9116C45.0657 89.6376 45.0657 92.4357 43.3397 94.1616L40.2146 97.2867L33.9647 91.0368L37.0898 87.9116C38.8154 86.1857 41.6138 86.1857 43.3397 87.9116Z" stroke="#663366" stroke-width="4.10156" stroke-miterlimit="10" stroke-linecap="round" stroke-linejoin="round"/>
<path d="M62.0899 106.662C60.364 104.936 57.5659 104.936 55.84 106.662L52.7148 109.787L58.9648 116.037L62.0899 112.912C63.8159 111.186 63.8159 108.388 62.0899 106.662Z" stroke="#663366" stroke-width="4.10156" stroke-miterlimit="10" stroke-linecap="round" stroke-linejoin="round"/>
<path d="M32.4022 124.227C36.0634 124.227 39.0314 121.259 39.0314 117.598C39.0314 113.937 36.0634 110.969 32.4022 110.969C28.741 110.969 25.773 113.937 25.773 117.598C25.773 121.259 28.741 124.227 32.4022 124.227Z" stroke="#663366" stroke-width="4.10156" stroke-miterlimit="10" stroke-linecap="round" stroke-linejoin="round"/>
<path d="M48.5643 126.432L58.9648 116.032L52.7148 109.781L45.6834 116.813C44.3889 118.107 42.2903 118.107 40.9959 116.813L33.1832 109C31.8887 107.706 31.8887 105.607 33.1832 104.313L40.2146 97.2812L33.9647 91.0312L23.5642 101.432C18.953 106.043 18.953 113.52 23.5642 118.131L31.8652 126.432C36.4765 131.043 43.9531 131.043 48.5643 126.432Z" stroke="#663366" stroke-width="4.10156" stroke-miterlimit="10" stroke-linecap="round" stroke-linejoin="round"/>
<path d="M94.3184 7.04688H97.6488C99.1746 7.04688 100.411 8.28281 100.411 9.80859L100.413 24.5852" stroke="#663366" stroke-width="4.10156" stroke-miterlimit="10" stroke-linecap="round" stroke-linejoin="round"/>
<path d="M125.411 49.5855H140.188C141.713 49.5855 142.949 50.8215 142.949 52.3473V67.8156C142.949 69.3387 141.713 70.5773 140.188 70.5773H83.2852C81.1496 70.5773 79.4188 68.8465 79.4188 66.7109V9.80859C79.4188 8.28281 80.6574 7.04688 82.1805 7.04688H84.7481" stroke="#663366" stroke-width="4.10156" stroke-miterlimit="10" stroke-linecap="round" stroke-linejoin="round"/>
<path d="M87.9101 43.3438C89.636 45.0698 92.4341 45.0698 94.16 43.3438L97.2851 40.2187L91.0352 33.9688L87.9101 37.0939C86.1841 38.8195 86.1841 41.6179 87.9101 43.3438Z" stroke="#663366" stroke-width="4.10156" stroke-miterlimit="10" stroke-linecap="round" stroke-linejoin="round"/>
<path d="M106.66 62.0938C104.934 60.3679 104.934 57.5698 106.66 55.8439L109.785 52.7188L116.035 58.9687L112.91 62.0938C111.185 63.8198 108.386 63.8198 106.66 62.0938Z" stroke="#663366" stroke-width="4.10156" stroke-miterlimit="10" stroke-linecap="round" stroke-linejoin="round"/>
<path d="M117.598 39.0319C121.259 39.0319 124.227 36.0639 124.227 32.4027C124.227 28.7414 121.259 25.7734 117.598 25.7734C113.937 25.7734 110.969 28.7414 110.969 32.4027C110.969 36.0639 113.937 39.0319 117.598 39.0319Z" stroke="#663366" stroke-width="4.10156" stroke-miterlimit="10" stroke-linecap="round" stroke-linejoin="round"/>
<path d="M126.436 48.5601L116.036 58.9606L109.785 52.7106L116.817 45.6792C118.111 44.3847 118.111 42.2861 116.817 40.9916L109.004 33.179C107.71 31.8845 105.611 31.8845 104.317 33.179L97.2852 40.2104L91.0352 33.9605L101.436 23.56C106.047 18.9488 113.524 18.9488 118.135 23.56L126.436 31.861C131.047 36.4723 131.047 43.9489 126.436 48.5601Z" stroke="#663366" stroke-width="4.10156" stroke-miterlimit="10" stroke-linecap="round" stroke-linejoin="round"/>
<path d="M49.5867 24.5852L49.5895 9.80859C49.5895 8.28281 50.8254 7.04688 52.3512 7.04688H67.8195C69.3426 7.04688 70.5812 8.28281 70.5812 9.80859V66.7109C70.5812 68.8465 68.8504 70.5773 66.7148 70.5773H29.4727" stroke="#663366" stroke-width="4.10156" stroke-miterlimit="10" stroke-linecap="round" stroke-linejoin="round"/>
<path d="M19.9023 70.5777H9.8125C8.28672 70.5777 7.05078 69.3391 7.05078 67.816V52.3477C7.05078 50.8219 8.28672 49.5859 9.8125 49.5859H24.5891" stroke="#663366" stroke-width="4.10156" stroke-miterlimit="10" stroke-linecap="round" stroke-linejoin="round"/>
<path d="M43.3397 62.0938C45.0657 60.3679 45.0657 57.5698 43.3397 55.8439L40.2146 52.7188L33.9647 58.9687L37.0898 62.0938C38.8154 63.8198 41.6138 63.8198 43.3397 62.0938Z" stroke="#663366" stroke-width="4.10156" stroke-miterlimit="10" stroke-linecap="round" stroke-linejoin="round"/>
<path d="M62.0899 43.3438C60.364 45.0698 57.5659 45.0698 55.84 43.3438L52.7148 40.2187L58.9648 33.9688L62.0899 37.0939C63.8159 38.8195 63.8159 41.6179 62.0899 43.3438Z" stroke="#663366" stroke-width="4.10156" stroke-miterlimit="10" stroke-linecap="round" stroke-linejoin="round"/>
<path d="M32.4022 39.0319C36.0634 39.0319 39.0314 36.0639 39.0314 32.4027C39.0314 28.7414 36.0634 25.7734 32.4022 25.7734C28.741 25.7734 25.773 28.7414 25.773 32.4027C25.773 36.0639 28.741 39.0319 32.4022 39.0319Z" stroke="#663366" stroke-width="4.10156" stroke-miterlimit="10" stroke-linecap="round" stroke-linejoin="round"/>
<path d="M48.5643 23.56L58.9648 33.9605L52.7148 40.2107L45.6834 33.1793C44.3889 31.8848 42.2903 31.8848 40.9959 33.1793L33.1832 40.9919C31.8887 42.2864 31.8887 44.385 33.1832 45.6795L40.2146 52.7109L33.9647 58.9609L23.5642 48.5604C18.953 43.9491 18.953 36.4725 23.5642 31.8613L31.8652 23.56C36.4765 18.9488 43.9531 18.9488 48.5643 23.56Z" stroke="#663366" stroke-width="4.10156" stroke-miterlimit="10" stroke-linecap="round" stroke-linejoin="round"/>
</g>
<defs>
<clipPath id="clip0_757_5213">
<rect width="140" height="140" fill="white" transform="translate(5 5)"/>
</clipPath>
</defs>
</svg>
