<svg width="150" height="150" viewBox="0 0 150 150" fill="none" xmlns="http://www.w3.org/2000/svg">
<g clip-path="url(#clip0_758_6775)">
<path d="M132.252 74.9985H40.2974C31.9066 74.9985 25.0804 68.1723 25.0804 59.7815V48.9123C25.0804 40.5215 31.9066 33.6953 40.2974 33.6953H132.252C135.253 33.6953 137.687 36.1284 137.687 39.1299C137.687 42.1315 135.254 44.5646 132.252 44.5646H40.2974C37.8999 44.5646 35.9497 46.5147 35.9497 48.9123V59.7815C35.9497 62.179 37.8999 64.1292 40.2974 64.1292H132.252C135.253 64.1292 137.687 66.5623 137.687 69.5638C137.686 72.5651 135.253 74.9985 132.252 74.9985Z" stroke="#663366" stroke-width="4.1016" stroke-miterlimit="10" stroke-linecap="round" stroke-linejoin="round"/>
<path d="M133.264 75H29.5033C27.0607 75 25.0804 76.9803 25.0804 79.4226V97.2236C25.0804 99.6662 27.0607 101.646 29.5033 101.646H133.264C135.706 101.646 137.687 99.6665 137.687 97.2236V79.4226C137.687 76.98 135.706 75 133.264 75Z" stroke="#663366" stroke-width="4.1016" stroke-miterlimit="10" stroke-linecap="round" stroke-linejoin="round"/>
<path d="M49.1881 75H37.847V101.646H49.1881V75Z" stroke="#663366" stroke-width="4.1016" stroke-miterlimit="10" stroke-linecap="round" stroke-linejoin="round"/>
<path d="M57.4066 33.6953H46.0656V44.5645H57.4066V33.6953Z" stroke="#663366" stroke-width="4.1016" stroke-miterlimit="10" stroke-linecap="round" stroke-linejoin="round"/>
<path d="M57.4066 64.1328H46.0656V75.002H57.4066V64.1328Z" stroke="#663366" stroke-width="4.1016" stroke-miterlimit="10" stroke-linecap="round" stroke-linejoin="round"/>
<path d="M65.3923 88.3203H97.3744" stroke="#663366" stroke-width="4.1016" stroke-miterlimit="10" stroke-linecap="round" stroke-linejoin="round"/>
<path d="M120.497 7.04688H16.7364C14.2937 7.04688 12.3135 9.02686 12.3135 11.4695V29.2705C12.3135 31.7131 14.2937 33.6933 16.7364 33.6933H120.497C122.939 33.6933 124.92 31.7134 124.92 29.2705V11.4695C124.92 9.02686 122.94 7.04688 120.497 7.04688Z" stroke="#663366" stroke-width="4.1016" stroke-miterlimit="10" stroke-linecap="round" stroke-linejoin="round"/>
<path d="M112.153 7.04688H100.812V33.6931H112.153V7.04688Z" stroke="#663366" stroke-width="4.1016" stroke-miterlimit="10" stroke-linecap="round" stroke-linejoin="round"/>
<path d="M36.4215 7.04688H25.0804V33.6931H36.4215V7.04688Z" stroke="#663366" stroke-width="4.1016" stroke-miterlimit="10" stroke-linecap="round" stroke-linejoin="round"/>
<path d="M52.6256 20.375H84.6077" stroke="#663366" stroke-width="4.1016" stroke-miterlimit="10" stroke-linecap="round" stroke-linejoin="round"/>
<path d="M122.562 54.3526C122.562 50.4908 124.2 47.0132 126.816 44.5703H40.2973C37.8998 44.5703 35.9496 46.5205 35.9496 48.918V59.7873C35.9496 62.1848 37.8998 64.135 40.2973 64.135H126.816C124.2 61.692 122.562 58.2144 122.562 54.3526Z" stroke="#663366" stroke-width="4.1016" stroke-miterlimit="10" stroke-linecap="round" stroke-linejoin="round"/>
<path d="M103.934 101.648H92.5934V112.518H103.934V101.648Z" stroke="#663366" stroke-width="4.1016" stroke-miterlimit="10" stroke-linecap="round" stroke-linejoin="round"/>
<path d="M103.934 132.078H92.5934V142.947H103.934V132.078Z" stroke="#663366" stroke-width="4.1016" stroke-miterlimit="10" stroke-linecap="round" stroke-linejoin="round"/>
<path d="M27.4383 122.298C27.4383 118.436 25.8004 114.959 23.1841 112.516H109.703C112.101 112.516 114.051 114.466 114.051 116.863V127.733C114.051 130.13 112.101 132.08 109.703 132.08H23.1841C25.8004 129.637 27.4383 126.16 27.4383 122.298Z" stroke="#663366" stroke-width="4.1016" stroke-miterlimit="10" stroke-linecap="round" stroke-linejoin="round"/>
<path d="M62.1919 142.951H109.703C118.094 142.951 124.92 136.125 124.92 127.734V116.865C124.92 108.474 118.094 101.648 109.703 101.648H17.7483C14.7468 101.648 12.3137 104.082 12.3137 107.083C12.3137 110.084 14.7468 112.518 17.7483 112.518H109.703C112.101 112.518 114.051 114.468 114.051 116.865V127.735C114.051 130.132 112.101 132.082 109.703 132.082H17.7483C14.7468 132.082 12.3137 134.515 12.3137 137.517C12.3137 140.519 14.7468 142.952 17.7483 142.952H52.6215" stroke="#663366" stroke-width="4.1016" stroke-miterlimit="10" stroke-linecap="round" stroke-linejoin="round"/>
<path d="M124.92 83.5378V75H113.578V101.646H124.92V93.1081" stroke="#663366" stroke-width="4.1016" stroke-miterlimit="10" stroke-linecap="round" stroke-linejoin="round"/>
</g>
<defs>
<clipPath id="clip0_758_6775">
<rect width="140" height="140" fill="white" transform="translate(5 5)"/>
</clipPath>
</defs>
</svg>
