<svg width="150" height="150" viewBox="0 0 150 150" fill="none" xmlns="http://www.w3.org/2000/svg">
<g clip-path="url(#clip0_757_5023)">
<path d="M100.167 40.0078C102.456 42.0367 104.498 44.3336 106.251 46.852" stroke="#663366" stroke-width="4.10156" stroke-miterlimit="10" stroke-linecap="round" stroke-linejoin="round"/>
<path d="M43.1826 46.4414C44.8834 44.0652 46.8467 41.8914 49.0287 39.9609" stroke="#663366" stroke-width="4.10156" stroke-miterlimit="10" stroke-linecap="round" stroke-linejoin="round"/>
<path d="M74.5738 50.7969C63.2478 50.7969 54.066 41.6151 54.066 30.2891C54.066 18.963 63.2478 9.78125 74.5738 9.78125C85.8999 9.78125 95.0816 18.963 95.0816 30.2891C95.0816 41.6151 85.8999 50.7969 74.5738 50.7969Z" stroke="#663366" stroke-width="4.10156" stroke-miterlimit="10" stroke-linecap="round" stroke-linejoin="round"/>
<path d="M84.4367 38.4525L76.2574 30.2734" stroke="#663366" stroke-width="4.10156" stroke-miterlimit="10" stroke-linecap="round" stroke-linejoin="round"/>
<path d="M76.2574 38.4525L84.4367 30.2734" stroke="#663366" stroke-width="4.10156" stroke-miterlimit="10" stroke-linecap="round" stroke-linejoin="round"/>
<path d="M84.4367 22.1328H70.9494L66.2364 38.4499L62.0925 32.816" stroke="#663366" stroke-width="4.10156" stroke-miterlimit="10" stroke-linecap="round" stroke-linejoin="round"/>
<path d="M81.5916 115.432V108.547" stroke="#663366" stroke-width="4.10156" stroke-miterlimit="10" stroke-linecap="round" stroke-linejoin="round"/>
<path d="M105.286 140.216L103.542 130.974C102.718 126.607 99.3333 123.173 94.9788 122.285L90.1302 121.297" stroke="#663366" stroke-width="4.10156" stroke-miterlimit="10" stroke-linecap="round" stroke-linejoin="round"/>
<path d="M68.4081 115.432V108.547" stroke="#663366" stroke-width="4.10156" stroke-miterlimit="10" stroke-linecap="round" stroke-linejoin="round"/>
<path d="M44.7142 140.216L46.4579 130.974C47.2818 126.607 50.6664 123.173 55.0209 122.285L59.8695 121.297" stroke="#663366" stroke-width="4.10156" stroke-miterlimit="10" stroke-linecap="round" stroke-linejoin="round"/>
<path d="M92.4922 96.5513H94.9381C98.0498 96.5513 100.573 94.0285 100.573 90.9168V90.1884C100.573 88.0823 98.8652 86.375 96.7592 86.375H92.9319" stroke="#663366" stroke-width="4.10156" stroke-miterlimit="10" stroke-linecap="round" stroke-linejoin="round"/>
<path d="M57.0678 86.375H53.2402C51.1342 86.375 49.4269 88.0823 49.4269 90.1884V90.9168C49.4269 94.0285 51.9496 96.5513 55.0613 96.5513H57.4077" stroke="#663366" stroke-width="4.10156" stroke-miterlimit="10" stroke-linecap="round" stroke-linejoin="round"/>
<path d="M63.2027 78.5038C62.5653 79.8384 62.1152 81.1854 61.801 82.5072C61.2815 84.6974 59.321 86.3709 57.0678 86.3709V92.4002C57.0678 94.4537 57.5682 96.4771 58.5225 98.2955C59.1815 99.5506 60.0483 100.688 61.0819 101.656L67.1276 107.319C69.3424 109.392 72.1698 110.428 74.9999 110.428C77.8299 110.428 80.6573 109.392 82.8721 107.319L88.9178 101.656C89.9514 100.688 90.8182 99.5506 91.4772 98.2955C92.4315 96.4771 92.9319 94.4537 92.9319 92.4002V86.3709C90.6788 86.3709 88.7182 84.6974 88.1987 82.5072C87.8744 81.143 87.4052 79.752 86.735 78.375" stroke="#663366" stroke-width="4.10156" stroke-miterlimit="10" stroke-linecap="round" stroke-linejoin="round"/>
<path d="M71.4782 98.3203C73.6906 99.4474 76.3091 99.4474 78.5214 98.3203" stroke="#663366" stroke-width="4.10156" stroke-miterlimit="10" stroke-linecap="round" stroke-linejoin="round"/>
<path d="M54.739 77.6562V86.103" stroke="#663366" stroke-width="4.10156" stroke-miterlimit="10" stroke-linecap="round" stroke-linejoin="round"/>
<path d="M95.2605 77.6562V86.1036" stroke="#663366" stroke-width="4.10156" stroke-miterlimit="10" stroke-linecap="round" stroke-linejoin="round"/>
<path d="M54.739 65.25V77.3862C64.0235 77.3862 70.3068 79.9834 73.1919 81.5053C74.3236 82.1025 75.675 82.1025 76.807 81.5053C79.692 79.9834 85.9756 77.3862 95.2607 77.3862V65.25" stroke="#663366" stroke-width="4.10156" stroke-miterlimit="10" stroke-linecap="round" stroke-linejoin="round"/>
<path d="M101.933 64.9219H72.0741" stroke="#663366" stroke-width="4.10156" stroke-miterlimit="10" stroke-linecap="round" stroke-linejoin="round"/>
<path d="M62.5038 64.9219H48.0663" stroke="#663366" stroke-width="4.10156" stroke-miterlimit="10" stroke-linecap="round" stroke-linejoin="round"/>
<path d="M104.962 57.5156H45.0377" stroke="#663366" stroke-width="4.10156" stroke-miterlimit="10" stroke-linecap="round" stroke-linejoin="round"/>
<path d="M89.9156 121.198L82.29 129.495L74.9998 119.929C80.0486 119.929 81.5916 115.43 81.5916 115.43L89.1439 118.098C90.4387 118.555 90.8447 120.187 89.9156 121.198Z" stroke="#663366" stroke-width="4.10156" stroke-miterlimit="10" stroke-linecap="round" stroke-linejoin="round"/>
<path d="M60.0841 121.198L67.7097 129.495L74.9999 119.929C69.9585 119.929 68.4081 115.43 68.4081 115.43L60.8557 118.098C59.561 118.555 59.155 120.187 60.0841 121.198Z" stroke="#663366" stroke-width="4.10156" stroke-miterlimit="10" stroke-linecap="round" stroke-linejoin="round"/>
<path d="M80.0486 126.906L75.0037 131.868L69.9585 126.906" stroke="#663366" stroke-width="4.10156" stroke-miterlimit="10" stroke-linecap="round" stroke-linejoin="round"/>
<path d="M81.7838 140.214L75.0037 131.867L68.2232 140.214" stroke="#663366" stroke-width="4.10156" stroke-miterlimit="10" stroke-linecap="round" stroke-linejoin="round"/>
<path d="M57.7659 96.5469C57.7659 102.547 37.8432 113.393 52.4623 122.992" stroke="#663366" stroke-width="4.10156" stroke-miterlimit="10" stroke-linecap="round" stroke-linejoin="round"/>
<path d="M102.874 114.555C103.085 117.374 101.737 120.234 97.5366 122.99" stroke="#663366" stroke-width="4.10156" stroke-miterlimit="10" stroke-linecap="round" stroke-linejoin="round"/>
<path d="M97.7334 104.985C95.0127 101.707 92.2319 98.7891 92.2319 96.5469" stroke="#663366" stroke-width="4.10156" stroke-miterlimit="10" stroke-linecap="round" stroke-linejoin="round"/>
<path d="M43.7596 81.4371C46.4584 77.9672 48.0663 73.6031 48.0663 68.8672C48.0663 63.2043 45.7694 58.0773 42.0588 54.3668C38.3483 50.6563 33.2213 48.3594 27.5584 48.3594C21.8956 48.3594 16.7686 50.6563 13.0581 54.3668C9.3475 58.0773 7.05063 63.2043 7.05063 68.8672C7.05063 80.193 16.2327 89.375 27.5584 89.375C30.4569 89.375 33.2159 88.7734 35.7151 87.6852" stroke="#663366" stroke-width="4.10156" stroke-miterlimit="10" stroke-linecap="round" stroke-linejoin="round"/>
<path d="M31.3086 72.6139C33.7965 70.1259 34.1341 66.4298 32.0626 64.3583C29.9912 62.2868 26.295 62.6244 23.8071 65.1124C21.3191 67.6003 20.9815 71.2965 23.053 73.3679C25.1245 75.4394 28.8207 75.1018 31.3086 72.6139Z" stroke="#663366" stroke-width="4.10156" stroke-miterlimit="10" stroke-linecap="round" stroke-linejoin="round"/>
<path d="M40.319 63.6111C37.831 66.0991 34.1349 66.4366 32.0633 64.365C29.9918 62.2934 30.3295 58.5974 32.8172 56.1094" stroke="#663366" stroke-width="4.10156" stroke-miterlimit="10" stroke-linecap="round" stroke-linejoin="round"/>
<path d="M22.2997 81.6285C24.7877 79.1405 25.1251 75.4444 23.0536 73.3729C20.982 71.3013 17.286 71.639 14.7979 74.1267" stroke="#663366" stroke-width="4.10156" stroke-miterlimit="10" stroke-linecap="round" stroke-linejoin="round"/>
<path d="M125.895 48.6484C130.174 49.373 134.002 51.4266 136.942 54.366C140.652 58.0766 142.949 63.2035 142.949 68.8664C142.949 74.5293 140.652 79.6562 136.942 83.3668C133.231 87.0773 128.104 89.3742 122.441 89.3742C111.115 89.3742 101.933 80.1922 101.933 68.8664C101.933 63.2035 104.23 58.0766 107.941 54.366C110.254 52.0527 113.12 50.2863 116.324 49.2855" stroke="#663366" stroke-width="4.10156" stroke-miterlimit="10" stroke-linecap="round" stroke-linejoin="round"/>
<path d="M113.781 74.623L108.844 68.8661L113.781 63.1094" stroke="#663366" stroke-width="4.10156" stroke-miterlimit="10" stroke-linecap="round" stroke-linejoin="round"/>
<path d="M131.102 74.623L136.038 68.8661L131.102 63.1094" stroke="#663366" stroke-width="4.10156" stroke-miterlimit="10" stroke-linecap="round" stroke-linejoin="round"/>
<path d="M124.931 58.7344L119.951 79.0024" stroke="#663366" stroke-width="4.10156" stroke-miterlimit="10" stroke-linecap="round" stroke-linejoin="round"/>
</g>
<defs>
<clipPath id="clip0_757_5023">
<rect width="140" height="140" fill="white" transform="translate(4.99985 5)"/>
</clipPath>
</defs>
</svg>
