<svg width="150" height="150" viewBox="0 0 150 150" fill="none" xmlns="http://www.w3.org/2000/svg">
<path d="M142.667 103H140.333V85.7333C140.329 84.1438 139.783 82.6032 138.787 81.3649C137.79 80.1266 136.402 79.2644 134.85 78.92L118.097 75.1867L97.54 56.9167C97.1146 56.5415 96.5672 56.3341 96 56.3333H82V42.3333C85.0942 42.3333 88.0617 41.1042 90.2496 38.9162C92.4375 36.7283 93.6667 33.7609 93.6667 30.6667C93.6667 27.5725 92.4375 24.605 90.2496 22.4171C88.0617 20.2292 85.0942 19 82 19V5H77.3333V19H72.6667V5H68V19C64.9058 19 61.9383 20.2292 59.7504 22.4171C57.5625 24.605 56.3333 27.5725 56.3333 30.6667C56.3333 33.7609 57.5625 36.7283 59.7504 38.9162C61.9383 41.1042 64.9058 42.3333 68 42.3333V56.3333H47C46.6687 56.3338 46.3413 56.4047 46.0395 56.5415C45.7378 56.6783 45.4687 56.8778 45.25 57.1267L27.2833 77.3333H16.6667C14.8102 77.3333 13.0297 78.0708 11.7169 79.3836C10.4042 80.6963 9.66667 82.4768 9.66667 84.3333V103H7.33333C6.71449 103 6.121 103.246 5.68342 103.683C5.24583 104.121 5 104.714 5 105.333V114.667C5 115.286 5.24583 115.879 5.68342 116.317C6.121 116.754 6.71449 117 7.33333 117H142.667C143.286 117 143.879 116.754 144.317 116.317C144.754 115.879 145 115.286 145 114.667V105.333C145 104.714 144.754 104.121 144.317 103.683C143.879 103.246 143.286 103 142.667 103ZM135.667 85.7333V103H123.767C123.231 100.363 121.8 97.9916 119.717 96.2885C117.633 94.5853 115.024 93.655 112.333 93.655C109.642 93.655 107.034 94.5853 104.95 96.2885C102.866 97.9916 101.436 100.363 100.9 103H95.5333L104.283 89H117C117.509 89.0266 118.012 88.8858 118.434 88.5993C118.855 88.3128 119.171 87.8963 119.333 87.4133L121.667 80.7167L134.057 83.47C134.532 83.6249 134.945 83.9285 135.235 84.336C135.525 84.7435 135.676 85.2333 135.667 85.7333ZM118.913 103H105.753C106.244 101.649 107.138 100.481 108.316 99.656C109.493 98.8308 110.896 98.3882 112.333 98.3882C113.771 98.3882 115.174 98.8308 116.351 99.656C117.528 100.481 118.423 101.649 118.913 103ZM95.1133 61L115.46 79.0833C115.752 79.3457 116.105 79.5303 116.487 79.62H116.86L115.32 84.2867H103C102.603 84.2859 102.213 84.3861 101.866 84.578C101.519 84.7699 101.227 85.0471 101.017 85.3833L90.05 103H82V79.6667H103C103.461 79.6644 103.91 79.5258 104.292 79.2683C104.674 79.0109 104.972 78.6461 105.147 78.22C105.325 77.7951 105.374 77.3267 105.287 76.8741C105.2 76.4215 104.98 76.0048 104.657 75.6767L95.3233 66.3433C95.1053 66.1271 94.8467 65.956 94.5624 65.8399C94.2782 65.7237 93.9737 65.6649 93.6667 65.6667H82V61H95.1133ZM82 70.3333H92.71L97.3767 75H82V70.3333ZM61 30.6667C61 28.8102 61.7375 27.0297 63.0502 25.7169C64.363 24.4042 66.1435 23.6667 68 23.6667H82C83.8565 23.6667 85.637 24.4042 86.9497 25.7169C88.2625 27.0297 89 28.8102 89 30.6667C89 32.5232 88.2625 34.3037 86.9497 35.6164C85.637 36.9292 83.8565 37.6667 82 37.6667H68C66.1435 37.6667 64.363 36.9292 63.0502 35.6164C61.7375 34.3037 61 32.5232 61 30.6667ZM77.3333 42.3333V103H72.6667V42.3333H77.3333ZM68 75H47.9567L52.6233 70.3333H68V75ZM48.05 61H68V65.6667H51.6667C51.3596 65.6649 51.0552 65.7237 50.7709 65.8399C50.4866 65.956 50.228 66.1271 50.01 66.3433L40.6767 75.6767C40.3529 76.0048 40.1336 76.4215 40.0464 76.8741C39.9592 77.3267 40.008 77.7951 40.1867 78.22C40.3617 78.6461 40.659 79.0109 41.041 79.2683C41.423 79.5258 41.8727 79.6644 42.3333 79.6667H68V103H57.6167L46.65 85.43C46.4398 85.0937 46.1474 84.8166 45.8004 84.6247C45.4534 84.4328 45.0632 84.3325 44.6667 84.3333H32.3467L30.97 80.2033L48.05 61ZM14.3333 84.3333C14.3333 83.7145 14.5792 83.121 15.0168 82.6834C15.4543 82.2458 16.0478 82 16.6667 82H26.6533L28.45 87.4133C28.6065 87.8768 28.9048 88.2793 29.3025 88.564C29.7003 88.8488 30.1775 89.0013 30.6667 89H43.3833L52.1333 103H46.7667C46.2311 100.363 44.8003 97.9916 42.7166 96.2885C40.6329 94.5853 38.0245 93.655 35.3333 93.655C32.6422 93.655 30.0338 94.5853 27.9501 96.2885C25.8664 97.9916 24.4355 100.363 23.9 103H14.3333V84.3333ZM41.9133 103H28.7533C29.2438 101.649 30.1385 100.481 31.3157 99.656C32.493 98.8308 33.8957 98.3882 35.3333 98.3882C36.7709 98.3882 38.1737 98.8308 39.3509 99.656C40.5282 100.481 41.4229 101.649 41.9133 103ZM9.66667 107.667H63.3333V112.333H9.66667V107.667ZM68 112.333V107.667H82V112.333H68ZM140.333 112.333H86.6667V107.667H140.333V112.333Z" fill="#663366"/>
<path d="M72.6667 28.332H68V32.9987H72.6667V28.332Z" fill="#663366"/>
<path d="M82.0007 28.332H77.334V32.9987H82.0007V28.332Z" fill="#663366"/>
<path d="M131.001 91.332H126.334V95.9987H131.001V91.332Z" fill="#663366"/>
<path d="M23.6667 89H19V93.6667H23.6667V89Z" fill="#663366"/>
<path d="M93.666 84.332H86.666V88.9987H93.666V84.332Z" fill="#663366"/>
<path d="M19.1167 43.4067C19.2796 44.8466 19.7756 46.2288 20.5653 47.4438C21.3551 48.6588 22.4169 49.6732 23.6667 50.4067V58.6667C23.6667 59.2855 23.9125 59.879 24.3501 60.3166C24.7877 60.7542 25.3812 61 26 61H33V56.3334H28.3333V51.6667C30.8087 51.6667 33.1827 50.6834 34.933 48.933C36.6833 47.1827 37.6667 44.8087 37.6667 42.3334H42.3333V47H47V40C47 39.3812 46.7542 38.7877 46.3166 38.3501C45.879 37.9125 45.2855 37.6667 44.6667 37.6667H36.36C35.5456 36.2561 34.3763 35.0831 32.9681 34.2645C31.56 33.4458 29.9621 33.0099 28.3333 33C27.9192 33.0147 27.5062 33.0536 27.0967 33.1167L20.6567 26.6767C20.4386 26.4604 20.1801 26.2894 19.8958 26.1732C19.6115 26.0571 19.3071 25.9983 19 26H5V30.6667H18.0433L22.4767 35.1234C21.5215 35.8748 20.7279 36.8113 20.1433 37.8767L18.2767 36.01C17.8478 35.5846 17.2707 35.342 16.6667 35.3334H5V40H15.71L19.1167 43.4067ZM33 42.3334C33 43.2564 32.7263 44.1586 32.2135 44.926C31.7007 45.6935 30.9719 46.2916 30.1192 46.6448C29.2665 46.998 28.3282 47.0904 27.4229 46.9104C26.5177 46.7303 25.6861 46.2858 25.0335 45.6332C24.3809 44.9806 23.9364 44.149 23.7563 43.2438C23.5763 42.3385 23.6687 41.4002 24.0219 40.5475C24.3751 39.6948 24.9732 38.966 25.7407 38.4532C26.5081 37.9404 27.4104 37.6667 28.3333 37.6667C29.571 37.6667 30.758 38.1584 31.6332 39.0335C32.5083 39.9087 33 41.0957 33 42.3334Z" fill="#663366"/>
<path d="M129.343 26.6767L122.903 33.1167C122.494 33.0536 122.081 33.0147 121.667 33C120.038 33.0099 118.44 33.4458 117.032 34.2645C115.624 35.0831 114.454 36.2561 113.64 37.6667H105.333C104.714 37.6667 104.121 37.9125 103.683 38.3501C103.246 38.7877 103 39.3812 103 40V47H107.667V42.3334H112.333C112.333 44.8087 113.317 47.1827 115.067 48.933C116.817 50.6834 119.191 51.6667 121.667 51.6667V56.3334H117V61H124C124.619 61 125.212 60.7542 125.65 60.3166C126.088 59.879 126.333 59.2855 126.333 58.6667V50.36C127.605 49.64 128.69 48.6315 129.5 47.4157C130.311 46.1998 130.824 44.8107 131 43.36L134.29 40H145V35.3334H133.333C133.026 35.3316 132.722 35.3905 132.438 35.5066C132.153 35.6227 131.895 35.7938 131.677 36.01L129.81 37.8767C129.225 36.8113 128.432 35.8748 127.477 35.1234L131.957 30.6667H145V26H131C130.693 25.9983 130.389 26.0571 130.104 26.1732C129.82 26.2894 129.561 26.4604 129.343 26.6767ZM121.667 47C120.744 47 119.841 46.7263 119.074 46.2136C118.307 45.7008 117.708 44.972 117.355 44.1192C117.002 43.2665 116.91 42.3282 117.09 41.423C117.27 40.5177 117.714 39.6862 118.367 39.0335C119.019 38.3809 119.851 37.9364 120.756 37.7564C121.661 37.5763 122.6 37.6687 123.453 38.0219C124.305 38.3751 125.034 38.9733 125.547 39.7407C126.06 40.5081 126.333 41.4104 126.333 42.3334C126.333 43.571 125.842 44.758 124.967 45.6332C124.091 46.5084 122.904 47 121.667 47Z" fill="#663366"/>
<path d="M21.3327 131H16.666V145H21.3327V131Z" fill="#663366"/>
<path d="M21.3327 121.668H16.666V126.335H21.3327V121.668Z" fill="#663366"/>
<path d="M40.0007 131H35.334V145H40.0007V131Z" fill="#663366"/>
<path d="M40.0007 121.668H35.334V126.335H40.0007V121.668Z" fill="#663366"/>
<path d="M58.6667 131H54V145H58.6667V131Z" fill="#663366"/>
<path d="M58.6667 121.668H54V126.335H58.6667V121.668Z" fill="#663366"/>
<path d="M77.3327 131H72.666V145H77.3327V131Z" fill="#663366"/>
<path d="M77.3327 121.668H72.666V126.335H77.3327V121.668Z" fill="#663366"/>
<path d="M96.0007 131H91.334V145H96.0007V131Z" fill="#663366"/>
<path d="M96.0007 121.668H91.334V126.335H96.0007V121.668Z" fill="#663366"/>
<path d="M114.667 131H110V145H114.667V131Z" fill="#663366"/>
<path d="M114.667 121.668H110V126.335H114.667V121.668Z" fill="#663366"/>
<path d="M133.333 131H128.666V145H133.333V131Z" fill="#663366"/>
<path d="M133.333 121.668H128.666V126.335H133.333V121.668Z" fill="#663366"/>
</svg>
