<svg width="150" height="150" viewBox="0 0 150 150" fill="none" xmlns="http://www.w3.org/2000/svg">
<g clip-path="url(#clip0_618_19)">
<mask id="mask0_618_19" style="mask-type:luminance" maskUnits="userSpaceOnUse" x="5" y="69" width="140" height="12">
<path d="M5 80.7305H145V69.0032H5V80.7305Z" fill="white"/>
</mask>
<g mask="url(#mask0_618_19)">
<path d="M92.2266 69.8211V71.1698H94.8631V79.9141H96.4236V71.1698H99.0907V69.8211H92.2266Z" fill="#663366"/>
<path d="M114.164 69.8111V75.7066C114.164 77.207 114.225 77.6312 114.482 78.2223C115.028 79.4043 116.316 80.1016 117.967 80.1016C119.619 80.1016 120.907 79.4043 121.452 78.2223C121.71 77.6463 121.771 77.207 121.771 75.7066V69.8111H120.21V75.6761C120.21 76.7523 120.18 77.1008 120.043 77.4796C119.77 78.2677 119.013 78.7376 117.967 78.7376C117.013 78.7376 116.27 78.3436 115.967 77.6616C115.77 77.2372 115.725 76.8888 115.725 75.6761V69.8111H114.164Z" fill="#663366"/>
<path d="M133.159 72.7817C132.949 70.7623 131.699 69.6293 129.713 69.6293C128.668 69.6293 127.683 70.0082 126.94 70.6751C125.925 71.6146 125.395 73.0697 125.395 74.8883C125.395 78.0556 127.107 80.1016 129.774 80.1016C131.895 80.1016 133.133 78.8047 133.313 76.4145L131.895 76.3126C131.743 77.9194 131.001 78.7376 129.728 78.7376C128.061 78.7376 127.031 77.2523 127.031 74.873C127.031 72.4937 128.061 70.9933 129.698 70.9933C130.834 70.9933 131.546 71.6299 131.789 72.8726H131.895L133.159 72.7817Z" fill="#663366"/>
<path d="M142.225 69.8209L138.935 73.8685H138.32V69.8209H136.762V79.9141H138.32V75.2156H138.82L142.331 79.9141H144.373L140.121 74.5422L144.056 69.8209H142.225Z" fill="#663366"/>
<path d="M103.236 79.9141H104.795V75.8586H106.353L108.638 79.9141H110.484L108.003 75.6018C109.274 75.0872 109.924 74.1336 109.924 72.8173C109.924 71.6521 109.35 70.6836 108.396 70.2297C107.715 69.912 107.08 69.8212 105.4 69.8212C104.69 69.8223 103.893 69.8046 103.236 69.9716V79.9141ZM105.415 71.1678C106.762 71.1678 107.095 71.2133 107.518 71.4254C108.018 71.6673 108.305 72.1668 108.305 72.8023C108.305 73.5437 107.942 74.1035 107.322 74.3307C106.913 74.4819 106.58 74.5121 105.491 74.5121H104.795V71.168L105.415 71.1678Z" fill="#663366"/>
<path d="M29.7188 79.9141H31.2926V69.8211H29.7188V79.9141Z" fill="#663366"/>
<path d="M52.5957 69.8211V79.9141H58.446L58.5427 78.5674H54.1998V69.8211H52.5957Z" fill="#663366"/>
<path d="M64.3986 74.0126V71.168H68.8171L68.7205 69.8211H62.8398V79.9141H68.8416L68.9382 78.5674H64.3986V75.3595H67.1512V74.0126H64.3986Z" fill="#663366"/>
<path d="M20.227 69.8212L16.7773 79.9141H18.3823L19.1394 77.552H22.8186L23.5604 79.9141H25.1807L21.741 69.8212H20.227ZM22.4099 76.2046H19.5483L20.9717 71.6625L22.4099 76.2046Z" fill="#663366"/>
<path d="M37.2797 69.8218L36.6836 79.9102H38.1203L38.6164 71.9469L41.5979 79.9102H42.3995L45.3961 71.9469L45.8918 79.9102H47.3287L46.7326 69.8218H44.7098L41.9988 76.9604L39.3176 69.8218H37.2797Z" fill="#663366"/>
<path d="M73.3828 79.9141H74.9414V75.8586H76.4997L78.7846 79.9141H80.6308L78.149 75.6018C79.4201 75.0872 80.0708 74.1336 80.0708 72.8172C80.0708 71.6521 79.4961 70.6836 78.5425 70.2297C77.8618 69.912 77.2262 69.8212 75.5469 69.8212C74.8364 69.8223 74.0399 69.8046 73.3828 69.9716V79.9141ZM75.5616 71.1678C76.9085 71.1678 77.2413 71.2133 77.6648 71.4254C78.1643 71.6673 78.4517 72.1668 78.4517 72.8023C78.4517 73.5437 78.0885 74.1035 77.4683 74.3306C77.0599 74.4819 76.7269 74.5121 75.6374 74.5121H74.9414V71.168L75.5616 71.1678Z" fill="#663366"/>
<path d="M5.62891 69.9702V79.9141H7.45999C9.56342 79.9141 10.2544 79.7987 11.1069 79.3239C12.5085 78.5428 13.3271 76.8592 13.3271 74.8618C13.3271 72.8491 12.4544 71.0981 11.0159 70.33C10.2466 69.9191 9.38163 69.8214 7.67184 69.8214C7.08913 69.8214 6.16769 69.8257 5.62891 69.9702ZM7.18765 78.5674V71.1321H7.62647C9.27596 71.1321 9.69966 71.1936 10.305 71.5709C11.2273 72.1461 11.7081 73.3486 11.7081 74.8467C11.7081 76.3448 11.2584 77.5239 10.4108 78.083C9.83645 78.4617 9.32133 78.5674 8.0048 78.5674H7.18765Z" fill="#663366"/>
</g>
</g>
<defs>
<clipPath id="clip0_618_19">
<rect width="140" height="11.7272" fill="white" transform="translate(5 69)"/>
</clipPath>
</defs>
</svg>
