<svg width="150" height="150" viewBox="0 0 150 150" fill="none" xmlns="http://www.w3.org/2000/svg">
<path fill-rule="evenodd" clip-rule="evenodd" d="M20.3257 71.6643C19.9314 72.4529 19.4885 73.1913 18.8472 73.7338C16.8756 75.3111 11.0613 74.4731 11.0613 75.2123C11.0613 75.903 16.827 75.3605 18.1574 76.9377C19.5371 78.5636 17.8116 83.6387 18.5023 83.6387C18.9946 83.6387 19.4383 81.1262 20.3257 79.0567C20.72 78.1199 21.2617 77.2827 21.9022 76.788C24.0705 75.1135 29.5893 75.9507 29.5893 75.2115C29.6387 74.3743 23.8737 75.3597 22.3952 73.6844C20.9168 71.9598 22.839 67.2288 22.0997 67.2288C21.6568 67.2296 21.3111 69.6441 20.3257 71.6643ZM114.102 86.5949L120.459 59H145L143.522 65.9973H129.577L128.147 71.27H141.255L139.727 78.1701H127.112L125.635 84.0322H139.236L137.659 91.6214H112.971L114.102 86.5949ZM114.102 76.8382C114.367 75.9109 114.597 74.9743 114.793 74.0302C115.63 69.7923 115.384 66.4912 114.102 64.1253C112.181 60.5773 107.943 59 101.34 59H88.4776L83.3523 81.5197L81.0852 91.6222H95.8692C97.0513 91.6222 98.1857 91.5728 99.2707 91.376C107.006 90.1939 111.835 84.773 114.102 76.8382ZM99.2707 66.0961C104.444 66.0961 106.711 69.1016 105.627 73.7832C104.592 78.3174 103.164 82.2104 99.2707 83.7367C98.1363 84.1804 96.7582 84.4273 95.1308 84.4273H92.6183L96.7582 66.0961H99.2707ZM83.3523 69.7915L78.7209 91.6214H69.4565L72.1665 78.8591L76.3558 59H85.6688L83.3523 69.7915ZM72.1665 62.2031L74.8773 59H63.8883L57.6302 66.6871L54.1316 59H43.3385L50.484 74.5718L39.1986 87.4337L35.5518 91.6222H10.8645L13.9689 78.1207H5L6.23233 71.2214H15.5947L18.3541 59H42.8956L41.4171 65.9973H27.7173L26.4858 71.27H37.4254L35.8975 78.1701H25.204L23.7757 84.0322H37.1299L35.5534 91.6214H46.6412L54.1316 83.2444L57.7784 91.6214H68.3731L61.4252 74.8674L72.1665 62.2031Z" fill="#663366"/>
</svg>
