<svg width="150" height="150" viewBox="0 0 150 150" fill="none" xmlns="http://www.w3.org/2000/svg">
<g clip-path="url(#clip0_618_4)">
<path d="M82.7926 72.6926C82.7926 72.8246 82.7045 72.9127 82.5725 72.9127H67.4278C67.2957 72.9127 67.2077 72.8246 67.2077 72.6926V66.3529C67.2077 66.2209 67.1196 66.1328 66.9876 66.1328H62.7611C62.6291 66.1328 62.541 66.2209 62.541 66.3529V83.3907C62.541 83.5228 62.6291 83.6108 62.7611 83.6108H66.9876C67.1196 83.6108 67.2077 83.5228 67.2077 83.3907V76.7869C67.2077 76.6548 67.2957 76.5668 67.4278 76.5668H82.5725C82.7045 76.5668 82.7926 76.6548 82.7926 76.7869V83.3907C82.7926 83.5228 82.8806 83.6108 83.0127 83.6108H87.2391C87.3712 83.6108 87.4593 83.5228 87.4593 83.3907V66.3529C87.4593 66.2209 87.3712 66.1328 87.2391 66.1328H83.0127C82.8806 66.1328 82.7926 66.2209 82.7926 66.3529V72.6926Z" fill="#663366"/>
<path d="M98.7292 80.0007V76.6989C98.7292 76.5668 98.8172 76.4787 98.9493 76.4787H108.063C108.195 76.4787 108.283 76.3907 108.283 76.2586V73.1768C108.283 73.0448 108.195 72.9567 108.063 72.9567H98.9493C98.8172 72.9567 98.7292 72.8687 98.7292 72.7366V69.7869C98.7292 69.6548 98.8172 69.5668 98.9493 69.5668H112.509C112.641 69.5668 112.729 69.4787 112.729 69.3467V66.3529C112.729 66.2209 112.641 66.1328 112.509 66.1328H98.7292H94.2826C94.1506 66.1328 94.0625 66.2209 94.0625 66.3529V83.3907C94.0625 83.5228 94.1506 83.6108 94.2826 83.6108H98.7292H113.169C113.301 83.6108 113.39 83.5228 113.39 83.3907V80.441C113.39 80.3089 113.301 80.2209 113.169 80.2209H98.9493C98.8172 80.1768 98.7292 80.1328 98.7292 80.0007Z" fill="#663366"/>
<path d="M57.2121 66.3529C57.2121 66.2209 57.124 66.1328 56.992 66.1328H47.0865H42.3758H32.4701C32.3381 66.1328 32.25 66.2209 32.25 66.3529V69.4787C32.25 69.6108 32.3381 69.6989 32.4701 69.6989H42.1557C42.2877 69.6989 42.3758 69.7869 42.3758 69.919V83.3907C42.3758 83.5228 42.4638 83.6108 42.5959 83.6108H46.8223C46.9544 83.6108 47.0425 83.5228 47.0425 83.3907V69.919C47.0425 69.7869 47.1305 69.6989 47.2626 69.6989H56.9479C57.08 69.6989 57.1681 69.6108 57.1681 69.4787V66.3529H57.2121Z" fill="#663366"/>
<path d="M27.6282 83.6108H32.1628C32.3389 83.6108 32.4709 83.3907 32.3389 83.2586L21.1565 66.2209C21.1125 66.1768 21.0244 66.1328 20.9804 66.1328H16.6219C16.5338 66.1328 16.4898 66.1768 16.4458 66.2209L5.08728 83.2586C4.99923 83.3907 5.08728 83.6108 5.26338 83.6108H9.70994C9.79799 83.6108 9.84201 83.5668 9.88604 83.5228L12.0433 80.2209C12.0873 80.1768 12.1753 80.1328 12.2194 80.1328H25.0747C25.1628 80.1328 25.2068 80.1768 25.2508 80.2209L27.4081 83.5228C27.4961 83.5668 27.5401 83.6108 27.6282 83.6108ZM14.7288 76.1265L18.515 70.3152C18.603 70.1831 18.8231 70.1831 18.9112 70.3152L22.6533 76.1265C22.7414 76.2586 22.6533 76.4787 22.4772 76.4787H14.9049C14.7288 76.4787 14.6408 76.3026 14.7288 76.1265Z" fill="#663366"/>
<path d="M141.169 77.2243C142.754 76.1237 143.811 74.2746 143.767 72.1614C143.723 68.7715 140.861 66.0859 137.471 66.0859H124.044H119.597C119.465 66.0859 119.377 66.174 119.377 66.3061V78.3249V83.3878C119.377 83.5199 119.465 83.6079 119.597 83.6079H123.823C123.956 83.6079 124.044 83.5199 124.044 83.3878V78.5451C124.044 78.413 124.132 78.3249 124.264 78.3249H136.547C136.635 78.3249 136.679 78.369 136.723 78.413L140.201 83.5199C140.245 83.5639 140.333 83.6079 140.377 83.6079H144.735C144.912 83.6079 145.044 83.3878 144.912 83.2557L140.993 77.5325C141.037 77.4444 141.037 77.3123 141.169 77.2243ZM136.811 74.6708H125.981C124.616 74.6708 123.427 73.6142 123.427 72.2935C123.383 70.8847 124.528 69.74 125.893 69.74H136.723C138.088 69.74 139.276 70.7966 139.276 72.1174C139.32 73.5262 138.22 74.6708 136.811 74.6708Z" fill="#663366"/>
</g>
<defs>
<clipPath id="clip0_618_4">
<rect width="140" height="17.6101" fill="white" transform="translate(5 66)"/>
</clipPath>
</defs>
</svg>
