<svg width="150" height="150" viewBox="0 0 150 150" fill="none" xmlns="http://www.w3.org/2000/svg">
<g clip-path="url(#clip0_618_5)">
<path d="M144.979 61.3047V94.4901L140.387 98.9731V66.4984L144.979 61.3047Z" fill="#663366"/>
<path d="M114.883 61.332L110.127 66.4985L110.373 66.8265L140.196 66.7171L140.469 66.4985L144.98 61.3047L114.883 61.332Z" fill="#663366"/>
<path d="M110.127 66.5H140.469V99.002H110.127V66.5Z" fill="#663366"/>
<path d="M135.849 78.197C135.247 76.6935 134.345 75.3267 133.17 74.1513C132.049 73.0032 130.792 72.1285 129.37 71.5544C127.976 70.9804 126.473 70.6797 124.832 70.6797C123.192 70.6797 121.661 70.9804 120.267 71.5544C118.846 72.1285 117.588 73.0032 116.468 74.1513C115.292 75.3267 114.418 76.6935 113.816 78.197C113.215 79.7004 112.941 81.3406 112.941 83.1447C112.941 84.8942 113.242 86.5343 113.843 88.0651C114.445 89.5959 115.32 90.9627 116.495 92.1655C117.588 93.2862 118.846 94.1336 120.24 94.7077C121.634 95.2817 123.192 95.5824 124.86 95.5824C126.473 95.5824 127.976 95.2817 129.37 94.7077C130.764 94.1336 132.049 93.2862 133.17 92.1655C134.345 90.9627 135.247 89.5959 135.849 88.0925C136.45 86.589 136.751 84.9215 136.751 83.1721C136.751 81.3406 136.45 79.7004 135.849 78.197ZM129.589 88.9125C128.413 90.3066 126.855 91.0174 124.832 91.0174C122.81 91.0174 121.224 90.3066 120.049 88.9125C118.873 87.5184 118.299 85.5776 118.299 83.1174C118.299 80.6025 118.901 78.6617 120.049 77.2402C121.224 75.8188 122.782 75.1354 124.832 75.1354C126.855 75.1354 128.413 75.8461 129.589 77.2402C130.737 78.6617 131.338 80.6025 131.338 83.1174C131.338 85.5776 130.764 87.5184 129.589 88.9125Z" fill="white"/>
<path d="M107.148 58.5977V58.7617L111.029 88.5848L108.76 94.872L108.46 94.6533L104.469 66.0603L104.551 65.6776L107.038 58.7617L107.148 58.5977Z" fill="#663366"/>
<path d="M77.2693 62.7527L107.147 58.5977L104.632 65.7596L104.277 66.1423L76.3398 70.2426L76.4765 65.1309L77.2693 62.7527Z" fill="#663366"/>
<path d="M104.632 65.7617L108.76 94.8741L79.3191 99.0018L75.3555 70.8735L77.0776 69.534L104.632 65.7617Z" fill="#663366"/>
<path d="M99.6293 71.3391C99.4926 70.437 99.1919 69.7536 98.6999 69.2889C98.2899 68.9335 97.7978 68.7422 97.2238 68.7422C97.0871 68.7422 96.9231 68.7422 96.7591 68.7695C95.9937 68.8789 95.4196 69.2342 95.0643 69.8083C94.7909 70.2183 94.6816 70.7377 94.6816 71.3391C94.6816 71.5578 94.7089 71.8038 94.7362 72.0498L95.8023 79.6218L87.3283 80.8792L86.2622 73.3072C86.1255 72.4325 85.8248 71.7491 85.3328 71.2844C84.9227 70.9017 84.4307 70.7103 83.884 70.7103C83.7473 70.7103 83.6106 70.7103 83.474 70.7377C82.6812 70.847 82.0798 71.2024 81.6971 71.7764C81.4238 72.1865 81.3145 72.7058 81.3145 73.3072C81.3145 73.5259 81.3418 73.7719 81.3691 74.0453L84.2667 93.7543C84.4034 94.6563 84.7041 95.3397 85.2508 95.8044C85.6608 96.1598 86.1529 96.3238 86.7542 96.3238C86.9182 96.3238 87.0823 96.3238 87.2463 96.2965C87.9843 96.1871 88.531 95.8318 88.8864 95.2577C89.1324 94.8477 89.2418 94.3556 89.2418 93.7816C89.2418 93.5629 89.2144 93.3169 89.1871 93.0709L88.0117 85.2802L96.4857 84.0228L97.6611 91.8134C97.7978 92.7155 98.0985 93.3989 98.6179 93.8363C99.0279 94.1916 99.52 94.383 100.094 94.383C100.231 94.383 100.395 94.383 100.559 94.3556C101.324 94.2463 101.898 93.8909 102.254 93.3169C102.5 92.9069 102.636 92.4148 102.636 91.8134C102.636 91.5947 102.609 91.3487 102.582 91.1027L99.6293 71.3391Z" fill="white"/>
<path d="M49.3054 51L38.6719 76.2581L40.1207 87.3563L40.2027 87.329L52.1483 60.4581L52.0937 59.8841L49.5241 51.3554L49.3054 51Z" fill="#663366"/>
<path d="M49.3047 51L52.0656 60.2668L52.1203 60.4581L78.4171 72.2398L78.4991 72.1851L76.2576 63.3284L49.3047 51Z" fill="#663366"/>
<path d="M52.0648 60.2656L78.4983 72.1839L66.5527 99.2735L40.1191 87.3552L52.0648 60.2656Z" fill="#663366"/>
<path d="M70.4892 74.3728C69.9151 72.842 69.1224 71.5299 68.0836 70.4364C67.0449 69.343 65.7874 68.4683 64.3113 67.8396C62.8352 67.2108 61.3591 66.9102 59.8556 66.9102H59.7736C58.2428 66.9102 56.7394 67.2655 55.2632 67.9216C53.7051 68.605 52.3657 69.5344 51.2176 70.7645C50.0695 71.9672 49.1401 73.4434 48.4293 75.1382C47.7186 76.8056 47.3359 78.5004 47.2539 80.1679V80.742C47.2539 82.2181 47.4999 83.6669 48.0193 85.0883C48.566 86.5918 49.3587 87.8766 50.3975 88.97C51.4363 90.0634 52.721 90.9381 54.2518 91.5669C55.7006 92.1956 57.1767 92.4963 58.6802 92.4963H58.7075C60.211 92.4963 61.7144 92.1682 63.1906 91.5395C64.7487 90.8561 66.1155 89.8994 67.2636 88.6693C68.4117 87.4665 69.3684 86.0177 70.0791 84.3229C70.7899 82.6281 71.1726 80.9607 71.2546 79.2932V78.8011C71.2819 77.2977 71.0359 75.8216 70.4892 74.3728ZM65.2134 82.2454C64.2293 84.5963 62.8899 86.2091 61.2771 87.0838C60.4023 87.5485 59.5003 87.7946 58.5982 87.7946C57.8054 87.7946 56.958 87.6032 56.1106 87.2478C54.2518 86.4551 53.1037 85.1977 52.6117 83.3935C52.4477 82.7921 52.3657 82.1634 52.3657 81.5074C52.3657 80.1953 52.6937 78.7465 53.3497 77.1883C54.3612 74.7828 55.7006 73.1427 57.3134 72.2406C58.1881 71.7486 59.0902 71.5299 59.9923 71.5299C60.8124 71.5299 61.6324 71.7212 62.5072 72.0766C64.3387 72.8693 65.4867 74.1268 65.9788 75.9309C66.1428 76.5049 66.2248 77.1337 66.2248 77.7897C66.2248 79.1565 65.8968 80.6326 65.2134 82.2454Z" fill="white"/>
<path d="M36.5658 55.293L40.8848 84.214L38.9166 94.3829L38.6433 94.0275L34.4336 66.0905V65.5438L36.2924 55.785L36.5658 55.293Z" fill="#663366"/>
<path d="M5.02148 70.2455L7.07165 60.022L36.5668 55.293L34.5713 65.7078V66.3912L5.37685 70.5189L5.02148 70.2455Z" fill="#663366"/>
<path d="M34.5713 65.707L38.9176 94.3821L9.72321 98.9471L5.02148 70.2447L34.5713 65.707Z" fill="#663366"/>
<path d="M31.4278 89.8142C31.2091 89.5408 30.8811 89.3495 30.4984 89.2128C30.1157 89.0761 29.651 89.0214 29.077 89.0214C28.5576 89.0214 27.9562 89.0761 27.3002 89.1855L19.5915 90.4976C19.6735 89.8962 19.9742 89.1308 20.4936 88.174C21.0676 87.108 21.9424 85.8232 23.0631 84.3471C23.4458 83.8277 23.7465 83.445 23.9652 83.1716C24.1019 82.9803 24.3206 82.7343 24.5939 82.3789C26.3707 80.0554 27.4368 78.1692 27.8742 76.6931C28.1202 75.8457 28.2569 74.9983 28.3116 74.1509C28.3389 73.9049 28.3389 73.6862 28.3389 73.4675C28.3389 72.8661 28.2842 72.2647 28.1749 71.6633C28.0929 71.1166 27.9562 70.6793 27.7649 70.3239C27.5735 69.9685 27.3548 69.6952 27.0815 69.5312C26.7808 69.3398 26.3161 69.2578 25.742 69.2578C25.2773 69.2578 24.7033 69.3125 24.0199 69.4218L15.1085 70.9526C14.0424 71.144 13.2223 71.4447 12.7303 71.9367C12.3203 72.3194 12.1289 72.8114 12.1289 73.3582C12.1289 73.4948 12.1289 73.6588 12.1562 73.8229C12.2929 74.5883 12.6756 75.135 13.3043 75.4083C13.687 75.5723 14.1244 75.6543 14.6711 75.6543C15.0265 75.6543 15.4365 75.627 15.8739 75.545L23.3092 74.2329C23.3092 74.3696 23.3365 74.5062 23.3365 74.6156C23.3365 75.0803 23.2545 75.545 23.0905 75.9824C22.8718 76.6111 22.3251 77.4858 21.423 78.6066C21.177 78.9073 20.7943 79.3993 20.2749 80.028C18.2521 82.4609 16.8306 84.5384 15.9559 86.2606C15.3272 87.4633 14.9171 88.6114 14.6711 89.7868C14.5344 90.4702 14.4524 91.099 14.4524 91.7277C14.4524 92.165 14.4798 92.6024 14.5618 93.0124C14.6711 93.6138 14.8078 94.1059 14.9991 94.4886C15.1905 94.8713 15.4638 95.172 15.7645 95.336C16.0652 95.5 16.4753 95.5547 17.0766 95.5547C17.8147 95.5547 18.8261 95.4453 20.1109 95.2266L28.2022 93.8325C29.6237 93.5865 30.6351 93.2311 31.2091 92.7664C31.6739 92.3837 31.9199 91.8643 31.9199 91.263C31.9199 91.099 31.8925 90.9349 31.8652 90.7709C31.8105 90.4156 31.6739 90.0875 31.4278 89.8142Z" fill="white"/>
</g>
<defs>
<clipPath id="clip0_618_5">
<rect width="140" height="48.384" fill="white" transform="translate(5 51)"/>
</clipPath>
</defs>
</svg>
