<svg width="150" height="150" viewBox="0 0 150 150" fill="none" xmlns="http://www.w3.org/2000/svg">
<g clip-path="url(#clip0_618_16)">
<path d="M58.7703 67.7148V72.9735H52.7991V67.7148H49.5098V81.5177H52.7991V75.9679H58.7703V81.5177H62.0596V67.7148H61.8919H58.7703Z" fill="#663366"/>
<path d="M74.1214 67.7148L70.6788 73.1807L67.2415 67.7148H63.3594L69.0391 76.7375V81.5177H72.3235V76.7375L78.0032 67.7148H77.7021H74.1214Z" fill="#663366"/>
<path d="M88.587 67.7148V77.8277C88.5882 77.9196 88.5709 78.0109 88.5359 78.0959C88.5012 78.181 88.4495 78.2581 88.3839 78.3227C88.3183 78.3872 88.2405 78.4378 88.1547 78.4714C88.0689 78.5051 87.9775 78.521 87.8854 78.5184H82.6155V67.7148H79.3262V81.5276H89.0461C89.4245 81.558 89.8047 81.5061 90.161 81.3754C90.5173 81.2446 90.8409 81.0382 91.1095 80.7704C91.3782 80.5026 91.5853 80.1798 91.7168 79.8241C91.8483 79.4685 91.9009 79.0887 91.8713 78.7108V67.7148H88.587Z" fill="#663366"/>
<path d="M104.645 67.7142H94.9199V81.527H98.2093V70.7037H103.489C103.58 70.7024 103.671 70.7193 103.756 70.7535C103.841 70.7877 103.918 70.8384 103.983 70.9027C104.048 70.9671 104.099 71.0437 104.134 71.1281C104.168 71.2125 104.186 71.303 104.185 71.3943V81.5171H107.47V70.5409C107.489 70.1641 107.432 69.7874 107.302 69.4332C107.172 69.0789 106.972 68.7544 106.714 68.4789C106.439 68.2188 106.113 68.017 105.758 67.8856C105.402 67.7542 105.024 67.6959 104.645 67.7142Z" fill="#663366"/>
<path d="M120.24 67.7114H110.516V81.5242H120.24C120.618 81.5511 120.996 81.4961 121.35 81.3632C121.704 81.2302 122.025 81.0223 122.291 80.7538C122.557 80.4853 122.762 80.1625 122.891 79.8076C123.021 79.4527 123.072 79.074 123.041 78.6975V70.5381C123.066 70.1582 123.014 69.7772 122.886 69.4183C122.759 69.0594 122.559 68.7304 122.3 68.4514C122.024 68.1963 121.7 67.9993 121.345 67.8721C120.992 67.745 120.616 67.6904 120.24 67.7114ZM119.776 71.4113V77.8243C119.777 77.9154 119.761 78.0059 119.727 78.0905C119.693 78.1751 119.643 78.2522 119.579 78.3173C119.515 78.3825 119.439 78.4343 119.355 78.4699C119.271 78.5056 119.181 78.5242 119.09 78.5249H113.8V70.7009H119.055C119.15 70.696 119.245 70.711 119.334 70.7449C119.423 70.7787 119.504 70.8307 119.572 70.8975C119.64 70.9643 119.693 71.0445 119.728 71.133C119.764 71.2214 119.78 71.3162 119.776 71.4113Z" fill="#663366"/>
<path d="M128.796 67.7145C128.418 67.6954 128.04 67.7534 127.685 67.8848C127.33 68.0163 127.006 68.2185 126.731 68.4791C126.471 68.7532 126.269 69.0774 126.139 69.432C126.008 69.7865 125.951 70.1639 125.971 70.5412V81.5174H129.25V77.2502H135.226V81.5174H138.511V67.7145H128.796ZM135.216 70.7039V74.2607H129.24V71.4143C129.239 71.3203 129.257 71.2269 129.292 71.1397C129.328 71.0526 129.38 70.9736 129.447 70.9073C129.514 70.841 129.594 70.7888 129.681 70.7539C129.769 70.7189 129.862 70.702 129.957 70.7039H135.216Z" fill="#663366"/>
<path d="M145.004 67.7148H141.715V81.5177H145.004V67.7148Z" fill="#663366"/>
<path d="M23.8027 84.2392C34.1745 84.2392 42.6004 79.9325 42.6004 74.6196C42.6004 69.3066 34.1844 65 23.8027 65C13.4209 65 5 69.3066 5 74.6147C5 79.9227 13.3962 84.2392 23.8027 84.2392ZM27.339 79.5182C27.0278 80.2384 26.4895 81.7726 25.2498 82.409C24.8562 82.5907 24.4288 82.6882 23.9953 82.6951C23.9064 82.6951 23.8372 82.6951 23.8076 82.6951C20.6328 82.7192 17.4715 82.2804 14.4235 81.3928L14.3149 81.3533C14.0679 81.2694 13.9395 81.156 13.9395 81.0129C13.9427 80.9542 13.9579 80.8967 13.9843 80.8441C14.0106 80.7915 14.0475 80.7448 14.0927 80.7071L14.2655 80.559C14.8779 80.0362 16.7498 78.6746 20.3108 77.3328C21.753 76.7475 23.2393 76.2774 24.7559 75.9269C25.6696 75.7147 29.201 75.1721 27.339 79.5132V79.5182ZM36.8415 69.8197C36.8692 69.7575 36.9131 69.704 36.9689 69.6649C37.0244 69.6258 37.0896 69.6026 37.1577 69.5977C37.2984 69.5951 37.4362 69.6403 37.5478 69.7259C39.7556 71.0825 41.0645 72.7746 41.0645 74.6097C41.0645 77.9297 36.797 80.7761 30.6925 82.0094C30.3024 82.0883 30.0406 82.0834 29.9517 82.0094C29.8628 81.9354 29.8726 81.8417 29.9517 81.7134C29.9981 81.6324 30.0527 81.5564 30.1146 81.4865C33.4386 77.5745 35.9673 71.8028 36.6886 70.1403C36.7428 70.0071 36.797 69.8937 36.8415 69.8197ZM20.3108 69.6963C20.622 68.9712 21.1603 67.4222 22.4 66.8055C22.7933 66.623 23.2208 66.5255 23.6545 66.5194C23.7483 66.5194 23.8175 66.5194 23.8422 66.5194C27.0169 66.4963 30.1781 66.935 33.2262 67.8217L33.325 67.8612C33.5769 67.9451 33.7053 68.0585 33.7053 68.2016C33.7026 68.2597 33.6876 68.3166 33.6612 68.3685C33.6348 68.4204 33.5977 68.4661 33.5522 68.5025L33.3793 68.6555C32.7916 69.1783 30.9098 70.535 27.3686 71.9064C25.9266 72.4934 24.4403 72.9652 22.9235 73.3172C21.99 73.4998 18.4488 74.0375 20.3108 69.6963ZM16.9079 67.2002C17.303 67.1262 17.5598 67.1262 17.6536 67.2002C17.6843 67.2435 17.7007 67.2952 17.7007 67.3482C17.7007 67.4012 17.6843 67.4529 17.6536 67.4962C17.6031 67.5756 17.547 67.6515 17.4857 67.7231C14.1618 71.6597 11.633 77.4364 10.9268 79.1038C10.8724 79.2173 10.8181 79.3307 10.7736 79.4047C10.7468 79.4678 10.7031 79.5223 10.6474 79.5623C10.5916 79.6023 10.526 79.6263 10.4576 79.6316C10.3171 79.6316 10.1804 79.5867 10.0674 79.5034C7.85966 78.1468 6.55084 76.4498 6.55084 74.6147C6.53602 71.2996 10.8033 68.4532 16.9079 67.2002Z" fill="#663366"/>
</g>
<defs>
<clipPath id="clip0_618_16">
<rect width="140" height="19.2342" fill="white" transform="translate(5 65)"/>
</clipPath>
</defs>
</svg>
