<svg width="150" height="150" viewBox="0 0 150 150" fill="none" xmlns="http://www.w3.org/2000/svg">
<path d="M75.2001 40.3125C55.7222 40.3163 38.1847 46.9597 36.1804 55.8632C34.848 61.7859 41.0239 67.8615 50.4626 71.4164C61.5033 61.386 73.9905 50.7741 90.2807 43.4851C75.4307 53.0404 64.4765 63.5395 55.553 73.14C58.5538 73.9246 61.8329 74.6429 65.3063 75.0415C70.3215 67.2987 75.9045 57.6645 92.3954 43.6417C80.4158 58.048 74.8278 66.603 69.9894 75.6457C87.8201 77.2413 108.568 75.0064 113.51 59.3504C115.645 49.8515 100.228 41.3905 79.116 40.4278C77.8117 40.3596 76.5061 40.3211 75.2001 40.3125ZM74.4944 41.7615C82.3988 41.67 88.596 42.545 88.596 42.545C73.271 48.0302 62.4735 53.6445 48.2502 61.6994C48.3881 61.8373 37.0265 60.0486 45.1942 50.6537C51.3589 43.5615 64.3324 41.8794 74.4944 41.7615ZM94.5112 44.3863C94.5112 44.3863 104.884 45.7 107.438 54.8842C110.249 64.9973 83.6097 69.0523 81.8197 67.5356C86.7484 55.6225 88.2037 55.521 94.5112 44.3863Z" fill="#663366"/>
<path d="M21.8992 90.3398C20.5755 90.3398 19.4599 90.5605 18.5235 91.008C17.5872 91.4554 16.6546 92.2364 15.7345 93.2956V90.7222H9.37438C7.67591 90.7209 6.6468 91.9318 6 93.7242C7.39763 93.9047 9.21268 93.2793 9.37438 95.869V108.117H16.2234V99.2521C16.2234 97.9309 16.4528 96.972 16.9579 96.3942C17.4618 95.8138 18.1299 95.5355 18.9146 95.5355C19.3625 95.5364 19.7984 95.68 20.1591 95.9456C20.5198 96.2111 20.7864 96.5847 20.9202 97.0121C21.0105 97.2854 21.0669 97.773 21.0669 98.5376V108.117H27.9159V99.1568C27.9159 97.9009 28.1566 97.0084 28.6504 96.4405C29.143 95.8727 29.7999 95.5832 30.6059 95.5832C31.2903 95.5832 31.8593 95.8878 32.3194 96.4882C32.6327 96.8705 32.8082 97.4183 32.8082 98.2042V108.117H39.6573V97.2039C39.6573 94.8449 39.1183 93.1176 38.0428 92.0082C36.966 90.9002 35.4593 90.3411 33.5428 90.3411C32.2417 90.3411 31.1499 90.5504 30.2637 90.9603C29.3787 91.3702 28.4047 92.1599 27.3293 93.2956C26.8028 92.3229 26.1034 91.5946 25.2735 91.1032C24.445 90.6119 23.3231 90.3398 21.8992 90.3398ZM79.5769 90.5316C78.1567 90.4326 76.8819 91.132 76.739 92.1035C76.5949 93.0762 77.6177 93.9586 79.0379 94.0589C80.4581 94.1567 81.7329 93.4096 81.8758 92.4382C82.0199 91.4655 80.9971 90.6294 79.5769 90.5316ZM59.9098 90.6745C58.4846 90.9954 58.6287 91.6961 58.1486 92.2464C58.9296 92.4632 59.8784 92.2339 59.9098 94.1529V108.117H64.8999V102.065C64.8999 100.912 65.0628 100.126 65.4389 99.682C65.8137 99.2371 66.3038 99.0139 66.9055 99.0139C67.452 99.0139 67.8769 99.1619 68.1777 99.4903C68.4786 99.8199 68.6666 100.365 68.6666 101.159V108.117H73.6567V100.111C73.6567 98.4499 73.2619 97.1951 72.4835 96.3929C71.7038 95.5907 70.6571 95.2021 69.3034 95.2021C68.3896 95.2021 67.5736 95.3362 66.9055 95.6308C66.2374 95.9241 65.5768 96.4255 64.8999 97.1074V90.6745H59.9098ZM110.396 90.6745C109.213 90.6996 109.076 91.4216 108.684 91.9606C109.589 91.9606 110.095 92.5573 110.396 93.4385V96.7263C109.913 96.2288 109.329 95.8392 108.684 95.5832C108.014 95.3217 107.3 95.1923 106.581 95.2021C104.991 95.2021 103.698 95.7574 102.667 96.8692C101.636 97.9823 101.102 99.5868 101.102 101.683C101.102 103.558 101.587 105.138 102.521 106.448C103.454 107.759 104.812 108.404 106.582 108.404C107.462 108.404 108.262 108.245 108.979 107.879C109.516 107.6 110.087 107.053 110.74 106.258V108.117H115.435V90.6745H110.396ZM49.6864 95.2021C48.7563 95.2021 47.8926 95.2573 47.0929 95.3926C46.2944 95.528 45.6414 95.7185 45.1851 95.9642C44.5496 96.3052 44.057 96.7389 43.7185 97.2039C43.3801 97.6677 43.1632 98.2995 42.984 99.1092L47.7284 99.5855C47.9252 99.0378 48.1935 98.6404 48.5119 98.4424C48.9192 98.1879 49.5059 98.0613 50.3219 98.0613C50.9574 98.0613 51.3899 98.2042 51.6431 98.4424C51.895 98.6805 52.0341 99.0854 52.0341 99.682C51.4149 99.9202 50.827 100.107 50.273 100.254C49.719 100.4 48.5194 100.651 46.6529 101.016C45.0949 101.317 44.0031 101.778 43.424 102.398C42.8449 103.018 42.5929 103.82 42.5929 104.78C42.5929 105.805 42.9627 106.655 43.7662 107.355C44.5684 108.053 45.7392 108.403 47.2885 108.403C48.4542 108.403 49.4896 108.227 50.3708 107.879C51.0968 107.574 51.7601 107.137 52.3275 106.591C52.3851 106.957 52.4177 107.231 52.4741 107.402C52.5318 107.573 52.6784 107.791 52.8652 108.117H57.5131C57.3008 107.708 57.1367 107.277 57.0243 106.831C56.9465 106.492 56.9265 106.043 56.9265 105.448V99.8726C56.9265 99.2759 56.7798 98.6216 56.5354 97.966C56.2897 97.3105 55.9801 96.7978 55.5564 96.4405C54.9535 95.9241 54.1626 95.6032 53.2575 95.4403C52.3525 95.2773 51.1793 95.2021 49.6864 95.2021ZM94.3505 95.2021C93.3314 95.2021 92.4677 95.3651 91.7583 95.7261C91.0488 96.0871 90.3468 96.695 89.6537 97.5373V95.4879H85.007C84.0355 95.513 83.8789 96.2275 83.6369 96.6787C84.3264 96.7577 84.9167 97.0084 85.007 98.1077V108.117H89.9959V102.065C89.9959 100.912 90.1588 100.126 90.5349 99.682C90.9109 99.2371 91.3998 99.0139 92.0014 99.0139C92.5492 99.0139 92.9729 99.1619 93.275 99.4903C93.5758 99.8199 93.7638 100.365 93.7638 101.159V108.117H98.7527V100.111C98.7527 98.4436 98.3578 97.1914 97.5794 96.3929C96.801 95.5944 95.728 95.2021 94.3505 95.2021ZM126.346 95.2021C125.644 95.2021 125.061 95.3889 124.584 95.7261C124.107 96.0645 123.613 96.6398 123.166 97.5373V95.4879H118.518C117.389 95.4904 117.515 96.1648 117.392 96.7263C117.871 96.9432 118.467 96.873 118.518 98.0613V108.117H123.506V103.875C123.506 101.849 123.777 100.468 124.29 99.7297C124.65 99.2045 125.155 98.9663 125.807 98.9663C126.149 98.9663 126.639 99.0616 127.226 99.2997L128.742 95.869C127.87 95.424 127.079 95.2021 126.346 95.2021ZM136.08 95.2021C135.151 95.2021 134.288 95.2573 133.488 95.3926C132.688 95.528 132.036 95.7185 131.58 95.9642C130.943 96.3052 130.451 96.7389 130.112 97.2039C129.774 97.6677 129.557 98.2995 129.378 99.1092L134.123 99.5855C134.319 99.0378 134.587 98.6404 134.906 98.4424C135.314 98.1879 135.901 98.0613 136.716 98.0613C137.352 98.0613 137.785 98.2042 138.037 98.4424C138.29 98.6805 138.428 99.0854 138.428 99.682C137.809 99.9202 137.222 100.107 136.667 100.254C136.113 100.4 134.914 100.651 133.047 101.016C131.49 101.317 130.397 101.778 129.819 102.398C129.24 103.018 128.987 103.82 128.987 104.78C128.987 105.805 129.358 106.655 130.161 107.355C130.963 108.053 132.134 108.403 133.683 108.403C134.849 108.403 135.885 108.227 136.765 107.879C137.491 107.574 138.155 107.137 138.722 106.591C138.779 106.957 138.811 107.231 138.869 107.402C138.926 107.573 139.072 107.791 139.26 108.117H143.908C143.646 107.593 143.496 107.168 143.419 106.831C143.343 106.493 143.32 106.043 143.32 105.448V99.8726C143.32 99.2759 143.174 98.6216 142.929 97.966C142.685 97.3105 142.375 96.7978 141.951 96.4405C141.347 95.9241 140.556 95.6032 139.651 95.4403C138.746 95.2773 137.572 95.2021 136.08 95.2021ZM76.8368 95.4879V108.117H81.8269V95.4879H76.8368ZM108.146 98.8234C108.807 98.8234 109.328 99.049 109.761 99.5379C110.193 100.027 110.445 100.785 110.445 101.778C110.445 102.875 110.233 103.677 109.81 104.161C109.386 104.646 108.832 104.875 108.195 104.875C107.6 104.875 107.082 104.642 106.678 104.161C106.275 103.681 106.092 102.907 106.092 101.873C106.092 100.77 106.287 100.007 106.678 99.5392C107.07 99.0704 107.568 98.8234 108.146 98.8234ZM52.0341 102.113V102.922C52.0341 103.526 51.9401 104.023 51.7408 104.4C51.5403 104.776 51.1893 105.09 50.713 105.353C50.2367 105.616 49.7515 105.734 49.1963 105.734C48.6673 105.734 48.2474 105.596 47.9741 105.353C47.7009 105.111 47.5818 104.829 47.5818 104.448C47.5818 104.113 47.6958 103.804 47.9741 103.542C48.2424 103.287 48.8704 103.041 49.8819 102.779C50.624 102.596 51.3485 102.351 52.0341 102.113ZM138.428 102.113V102.922C138.428 103.526 138.335 104.023 138.135 104.4C137.934 104.776 137.584 105.09 137.107 105.353C136.63 105.616 136.145 105.734 135.59 105.734C135.061 105.734 134.641 105.596 134.368 105.353C134.095 105.111 133.977 104.829 133.977 104.448C133.977 104.113 134.09 103.804 134.368 103.542C134.637 103.287 135.265 103.041 136.276 102.779C137.018 102.596 137.744 102.351 138.428 102.113Z" fill="#663366"/>
</svg>
