<svg width="150" height="150" viewBox="0 0 150 150" fill="none" xmlns="http://www.w3.org/2000/svg">
<path d="M52.7068 77.4795L54.0838 80.3346C54.0951 80.3572 54.0923 80.3797 54.0754 80.4022C54.0641 80.4191 54.0444 80.4275 54.0163 80.4275H51.8707C51.8425 80.4275 51.8228 80.4163 51.8115 80.3938L50.5614 77.8005H44.0655V80.36C44.0655 80.3825 44.0599 80.3994 44.0486 80.4106C44.0374 80.4219 44.0205 80.4275 43.9979 80.4275H42.0637C42.0411 80.4275 42.0242 80.4219 42.0129 80.4106C42.0016 80.3994 41.9961 80.3825 41.9961 80.36V72.048C41.9961 72.0311 42.0016 72.0171 42.0129 72.0058C42.0242 71.9889 42.0411 71.9805 42.0637 71.9805H51.4568C52.1551 71.9805 52.752 72.2254 53.2474 72.7154C53.7431 73.2053 53.9908 73.7994 53.9908 74.4977V75.2917C53.9908 75.7479 53.8754 76.1702 53.6445 76.5588C53.4194 76.9417 53.1067 77.2486 52.7068 77.4795ZM44.0655 73.805V75.9759H51.4568C51.5806 75.9759 51.6876 75.9337 51.7778 75.8492C51.8735 75.7591 51.9214 75.6493 51.9214 75.5198V74.2696C51.9214 74.1401 51.8735 74.0303 51.7778 73.9402C51.6876 73.8501 51.5806 73.805 51.4568 73.805H44.0655ZM64.5639 73.9317L57.9498 80.4022C57.933 80.4191 57.916 80.4275 57.8991 80.4275H55.1708C55.1369 80.4275 55.1145 80.4135 55.1032 80.3853C55.0919 80.3572 55.0975 80.3318 55.1201 80.3093L62.9168 72.6478C63.3898 72.2029 63.936 71.9805 64.5555 71.9805H68.0358C68.0526 71.9805 68.0666 71.9861 68.0779 71.9974C68.0947 72.0086 68.1033 72.0255 68.1033 72.048V80.3515C68.1033 80.374 68.0947 80.3938 68.0779 80.4106C68.0666 80.4219 68.0526 80.4275 68.0358 80.4275H66.0845C66.0674 80.4275 66.0506 80.4219 66.0337 80.4106C66.0224 80.3938 66.0169 80.374 66.0169 80.3515V73.805H64.8934C64.7695 73.805 64.6596 73.8473 64.5639 73.9317ZM69.8568 80.4275C69.8342 80.4275 69.8147 80.4219 69.7977 80.4106C69.7864 80.3938 69.7808 80.3769 69.7808 80.36V72.048C69.7808 72.0255 69.7864 72.0086 69.7977 71.9974C69.8147 71.9861 69.8342 71.9805 69.8568 71.9805H79.3261C80.03 71.9805 80.6298 72.2254 81.1252 72.7154C81.6264 73.2053 81.877 73.7966 81.877 74.4893V75.2917C81.877 75.9844 81.6264 76.5757 81.1252 77.0656C80.6298 77.5555 80.03 77.8005 79.3261 77.8005H71.8757V80.36C71.8757 80.3769 71.8673 80.3938 71.8504 80.4106C71.8391 80.4219 71.825 80.4275 71.8081 80.4275H69.8568ZM71.8757 75.9759H79.3261C79.45 75.9759 79.557 75.9309 79.647 75.8408C79.7427 75.7507 79.7905 75.6437 79.7905 75.5198V74.2612C79.7905 74.1373 79.7427 74.0303 79.647 73.9402C79.557 73.8501 79.45 73.805 79.3261 73.805H71.8757V75.9759ZM82.7487 73.805C82.7263 73.805 82.7095 73.7994 82.6982 73.7881C82.6869 73.7712 82.6811 73.7544 82.6811 73.7375V72.048C82.6811 72.0311 82.6869 72.0171 82.6982 72.0058C82.7095 71.9889 82.7263 71.9805 82.7487 71.9805H94.7015C94.7239 71.9805 94.7409 71.9889 94.752 72.0058C94.7691 72.0171 94.7775 72.0311 94.7775 72.048V73.7375C94.7775 73.7544 94.7691 73.7712 94.752 73.7881C94.7409 73.7994 94.7239 73.805 94.7015 73.805H89.7684V80.36C89.7684 80.3769 89.7627 80.3938 89.7514 80.4106C89.7401 80.4219 89.7232 80.4275 89.7008 80.4275H87.7496C87.727 80.4275 87.7101 80.4219 87.6988 80.4106C87.6875 80.3938 87.682 80.3769 87.682 80.36V73.805H82.7487ZM108.024 80.36C108.024 80.3769 108.015 80.3938 107.998 80.4106C107.987 80.4219 107.973 80.4275 107.956 80.4275H98.487C97.7831 80.4275 97.1807 80.1826 96.6795 79.6926C96.1781 79.2027 95.9275 78.6086 95.9275 77.9103V74.4893C95.9275 73.7966 96.1781 73.2053 96.6795 72.7154C97.1807 72.2254 97.7831 71.9805 98.487 71.9805H107.956C107.973 71.9805 107.987 71.9889 107.998 72.0058C108.015 72.0171 108.024 72.0311 108.024 72.048V73.7375C108.024 73.7544 108.015 73.7712 107.998 73.7881C107.987 73.7994 107.973 73.805 107.956 73.805H98.487C98.3576 73.805 98.2477 73.8501 98.1575 73.9402C98.0676 74.0303 98.0224 74.1373 98.0224 74.2612V75.2917H106.79C106.813 75.2917 106.83 75.2974 106.841 75.3086C106.852 75.3199 106.858 75.3368 106.858 75.3593V77.0487C106.858 77.0656 106.852 77.0825 106.841 77.0994C106.83 77.1107 106.813 77.1163 106.79 77.1163H98.0224V78.1468C98.0224 78.2707 98.0676 78.3777 98.1575 78.4678C98.2477 78.5579 98.3576 78.603 98.487 78.603H107.956C107.973 78.603 107.987 78.6086 107.998 78.6199C108.015 78.6311 108.024 78.648 108.024 78.6705V80.36ZM121.097 80.36C121.097 80.3769 121.089 80.3938 121.072 80.4106C121.061 80.4219 121.047 80.4275 121.03 80.4275H111.56C110.857 80.4275 110.254 80.1826 109.753 79.6926C109.252 79.2027 109.001 78.6086 109.001 77.9103V74.4893C109.001 73.7966 109.252 73.2053 109.753 72.7154C110.254 72.2254 110.857 71.9805 111.56 71.9805H121.03C121.047 71.9805 121.061 71.9889 121.072 72.0058C121.089 72.0171 121.097 72.0311 121.097 72.048V73.7375C121.097 73.7544 121.089 73.7712 121.072 73.7881C121.061 73.7994 121.047 73.805 121.03 73.805H111.56C111.431 73.805 111.321 73.8501 111.231 73.9402C111.141 74.0303 111.096 74.1373 111.096 74.2612V75.2917H119.864C119.886 75.2917 119.903 75.2974 119.915 75.3086C119.926 75.3199 119.931 75.3368 119.931 75.3593V77.0487C119.931 77.0656 119.926 77.0825 119.915 77.0994C119.903 77.1107 119.886 77.1163 119.864 77.1163H111.096V78.1468C111.096 78.2707 111.141 78.3777 111.231 78.4678C111.321 78.5579 111.431 78.603 111.56 78.603H121.03C121.047 78.603 121.061 78.6086 121.072 78.6199C121.089 78.6311 121.097 78.648 121.097 78.6705V80.36Z" fill="#663366"/>
<path fill-rule="evenodd" clip-rule="evenodd" d="M122.965 71.9648H122.663C122.512 71.9648 122.389 72.0879 122.389 72.2396V80.2358C122.389 80.3875 122.512 80.5106 122.663 80.5106H122.965H135.629C136.224 80.4079 136.768 80.1126 137.179 79.6701L138.219 78.5497L140.502 76.2377L144.933 71.9648H143.921H122.965ZM125.101 77.0962H131.717V79.825C131.717 79.8392 131.722 79.8535 131.731 79.8677C131.745 79.8771 131.759 79.8819 131.774 79.8819H131.809H133.45H134.702C135.223 79.8819 135.682 79.6947 136.08 79.3205L142.639 72.8749C142.658 72.8512 142.663 72.8299 142.654 72.811C142.644 72.7873 142.625 72.7755 142.597 72.7755H140.301C140.287 72.7755 140.273 72.7802 140.259 72.7897L134.695 78.2332C134.614 78.309 134.522 78.3469 134.417 78.3469H133.515V72.8323C133.515 72.8181 133.507 72.8062 133.493 72.7968C133.484 72.7826 133.47 72.7755 133.45 72.7755H133.415H131.809H131.774C131.759 72.7755 131.745 72.7826 131.731 72.7968C131.722 72.8062 131.717 72.8181 131.717 72.8323V75.5612H125.101V72.8323C125.101 72.8181 125.093 72.8062 125.079 72.7968C125.07 72.7826 125.055 72.7755 125.036 72.7755H123.395C123.381 72.7755 123.367 72.7826 123.352 72.7968C123.343 72.8062 123.338 72.8181 123.338 72.8323V79.825C123.338 79.8392 123.343 79.8535 123.352 79.8677C123.367 79.8771 123.381 79.8819 123.395 79.8819H125.036C125.055 79.8819 125.07 79.8771 125.079 79.8677C125.093 79.8535 125.101 79.8392 125.101 79.825V77.0962Z" fill="#663366"/>
<path d="M135.629 80.5088V80.5345H135.631L135.633 80.5341L135.629 80.5088ZM138.219 78.5479L138.201 78.5299L138.2 78.5302L138.2 78.5305L138.219 78.5479ZM140.503 76.236L140.485 76.2175L140.485 76.2177L140.484 76.218L140.503 76.236ZM144.934 71.9631L144.952 71.9816L144.997 71.9375H144.934V71.9631ZM131.717 77.0945H131.743V77.0688H131.717V77.0945ZM125.101 77.0945V77.0688H125.075V77.0945H125.101ZM131.731 79.866L131.71 79.8802L131.713 79.8845L131.717 79.8873L131.731 79.866ZM136.08 79.3188L136.098 79.3374L136.098 79.3372L136.099 79.337L136.08 79.3188ZM142.64 72.8732L142.658 72.8915L142.659 72.8904L142.66 72.8892L142.64 72.8732ZM142.654 72.8093L142.63 72.8188L142.631 72.8198L142.631 72.8207L142.654 72.8093ZM140.259 72.788L140.245 72.7666L140.243 72.7679L140.241 72.7696L140.259 72.788ZM134.695 78.2315L134.712 78.2502L134.712 78.25L134.713 78.2498L134.695 78.2315ZM133.515 78.3452H133.489V78.3708H133.515V78.3452ZM133.493 72.7951L133.472 72.8093L133.475 72.8135L133.479 72.8164L133.493 72.7951ZM131.717 75.5595V75.5851H131.743V75.5595H131.717ZM125.101 75.5595H125.075V75.5851H125.101V75.5595ZM125.079 72.7951L125.058 72.8093L125.061 72.8135L125.065 72.8164L125.079 72.7951ZM123.352 79.866L123.331 79.8802L123.334 79.8845L123.338 79.8873L123.352 79.866ZM122.664 71.9888H122.966V71.9375H122.664V71.9888ZM122.414 72.2379C122.414 72.1003 122.526 71.9888 122.664 71.9888V71.9375C122.498 71.9375 122.363 72.072 122.363 72.2379H122.414ZM122.414 80.2341V72.2379H122.363V80.2341H122.414ZM122.664 80.4832C122.526 80.4832 122.414 80.3717 122.414 80.2341H122.363C122.363 80.4 122.498 80.5345 122.664 80.5345V80.4832ZM122.966 80.4832H122.664V80.5345H122.966V80.4832ZM135.629 80.4832H122.966V80.5345H135.629V80.4832ZM137.161 79.6509C136.754 80.0893 136.214 80.3819 135.625 80.4836L135.633 80.5341C136.234 80.4305 136.784 80.1324 137.198 79.6858L137.161 79.6509ZM138.2 78.5305L137.161 79.6509L137.198 79.6858L138.238 78.5654L138.2 78.5305ZM140.484 76.218L138.201 78.5299L138.237 78.566L140.521 76.254L140.484 76.218ZM144.916 71.9447L140.485 76.2175L140.52 76.2544L144.952 71.9816L144.916 71.9447ZM143.921 71.9888H144.934V71.9375H143.921V71.9888ZM122.966 71.9888H143.921V71.9375H122.966V71.9888ZM131.717 77.0688H125.101V77.1201H131.717V77.0688ZM131.743 79.8233V77.0945H131.691V79.8233H131.743ZM131.753 79.8518C131.745 79.8409 131.743 79.8315 131.743 79.8233H131.691C131.691 79.8435 131.698 79.8626 131.71 79.8802L131.753 79.8518ZM131.774 79.8545C131.766 79.8545 131.756 79.8519 131.746 79.8446L131.717 79.8873C131.735 79.899 131.754 79.9058 131.774 79.9058V79.8545ZM131.809 79.8545H131.774V79.9058H131.809V79.8545ZM133.451 79.8545H131.809V79.9058H133.451V79.8545ZM134.702 79.8545H133.451V79.9058H134.702V79.8545ZM136.063 79.3001C135.669 79.6701 135.216 79.8545 134.702 79.8545V79.9058C135.23 79.9058 135.696 79.7159 136.098 79.3374L136.063 79.3001ZM142.622 72.855L136.063 79.3005L136.099 79.337L142.658 72.8915L142.622 72.855ZM142.631 72.8207C142.634 72.827 142.636 72.8374 142.62 72.8572L142.66 72.8892C142.682 72.8616 142.693 72.8294 142.677 72.7978L142.631 72.8207ZM142.597 72.7994C142.608 72.7994 142.615 72.8016 142.619 72.8043C142.623 72.807 142.627 72.8112 142.63 72.8188L142.678 72.7997C142.671 72.7836 142.661 72.7701 142.646 72.7609C142.632 72.7518 142.615 72.7481 142.597 72.7481V72.7994ZM140.302 72.7994H142.597V72.7481H140.302V72.7994ZM140.273 72.8093C140.284 72.802 140.294 72.7994 140.302 72.7994V72.7481C140.281 72.7481 140.262 72.7549 140.245 72.7666L140.273 72.8093ZM134.713 78.2498L140.277 72.8063L140.241 72.7696L134.677 78.2132L134.713 78.2498ZM134.418 78.3708C134.529 78.3708 134.627 78.3301 134.712 78.2502L134.677 78.2128C134.601 78.2845 134.515 78.3196 134.418 78.3196V78.3708ZM133.515 78.3708H134.418V78.3196H133.515V78.3708ZM133.489 72.8306V78.3452H133.54V72.8306H133.489ZM133.479 72.8164C133.488 72.8222 133.489 72.8268 133.489 72.8306H133.54C133.54 72.806 133.527 72.7869 133.508 72.7737L133.479 72.8164ZM133.451 72.7994C133.462 72.7994 133.468 72.8031 133.472 72.8093L133.515 72.7808C133.5 72.7586 133.477 72.7481 133.451 72.7481V72.7994ZM133.416 72.7994H133.451V72.7481H133.416V72.7994ZM131.809 72.7994H133.416V72.7481H131.809V72.7994ZM131.774 72.7994H131.809V72.7481H131.774V72.7994ZM131.749 72.8132C131.761 72.8018 131.769 72.7994 131.774 72.7994V72.7481C131.751 72.7481 131.73 72.7599 131.713 72.7769L131.749 72.8132ZM131.743 72.8306C131.743 72.8227 131.745 72.8175 131.749 72.8132L131.713 72.7769C131.699 72.7915 131.691 72.81 131.691 72.8306H131.743ZM131.743 75.5595V72.8306H131.691V75.5595H131.743ZM125.101 75.5851H131.717V75.5338H125.101V75.5851ZM125.075 72.8306V75.5595H125.126V72.8306H125.075ZM125.065 72.8164C125.074 72.8222 125.075 72.8268 125.075 72.8306H125.126C125.126 72.806 125.113 72.7869 125.094 72.7737L125.065 72.8164ZM125.037 72.7994C125.048 72.7994 125.054 72.8031 125.058 72.8093L125.101 72.7808C125.086 72.7586 125.063 72.7481 125.037 72.7481V72.7994ZM123.395 72.7994H125.037V72.7481H123.395V72.7994ZM123.371 72.8132C123.382 72.8018 123.39 72.7994 123.395 72.7994V72.7481C123.372 72.7481 123.351 72.7599 123.334 72.7769L123.371 72.8132ZM123.364 72.8306C123.364 72.8227 123.366 72.8175 123.371 72.8132L123.334 72.7769C123.32 72.7915 123.313 72.81 123.313 72.8306H123.364ZM123.364 79.8233V72.8306H123.313V79.8233H123.364ZM123.374 79.8518C123.367 79.8409 123.364 79.8315 123.364 79.8233H123.313C123.313 79.8435 123.32 79.8626 123.331 79.8802L123.374 79.8518ZM123.395 79.8545C123.387 79.8545 123.378 79.8519 123.367 79.8446L123.338 79.8873C123.356 79.899 123.375 79.9058 123.395 79.9058V79.8545ZM125.037 79.8545H123.395V79.9058H125.037V79.8545ZM125.061 79.8478C125.058 79.8508 125.052 79.8545 125.037 79.8545V79.9058C125.06 79.9058 125.082 79.9001 125.098 79.8841L125.061 79.8478ZM125.075 79.8233C125.075 79.8283 125.073 79.8364 125.061 79.8478L125.098 79.8841C125.115 79.8671 125.126 79.8467 125.126 79.8233H125.075ZM125.075 77.0945V79.8233H125.126V77.0945H125.075Z" fill="#663366"/>
<path d="M36.9668 68.0898V83.6967" stroke="#663366" stroke-width="1.25998"/>
<path fill-rule="evenodd" clip-rule="evenodd" d="M23.4598 69.7291C23.751 69.6967 24.0375 69.7786 24.2746 69.8533C24.5919 69.9532 25.3744 70.2511 25.6539 70.3715C26.0972 70.562 26.5254 70.7482 26.9539 70.9762C27.1617 71.0869 27.3645 71.192 27.5666 71.3126C27.7572 71.4266 27.9913 71.5437 28.1187 71.7087C28.2668 71.9008 28.5714 72.849 28.6488 73.0829C28.7647 73.431 29.0381 74.2209 29.0771 74.5525C29.1122 74.8524 29.0387 75.1227 28.9039 75.3079C28.7583 75.5081 28.5983 75.6183 28.3902 75.7496L27.2125 76.4699C26.6281 76.8155 25.9986 77.1906 25.4098 77.5212C25.2061 77.6357 25.002 77.7504 24.8061 77.866C24.4144 78.0971 23.9875 78.3235 23.5881 78.5528C23.3848 78.6696 23.1792 78.776 22.9785 78.892L22.6696 79.0616C22.5702 79.1139 22.4661 79.1767 22.3651 79.2284C22.0838 79.3723 21.7201 79.5949 21.4411 79.7301C20.829 80.0267 20.5046 79.9821 19.8665 79.8461C18.9692 79.6551 18.047 79.4429 17.1561 79.2394C16.645 79.1226 16.1242 79.0076 15.618 78.88C15.1066 78.7512 14.5888 78.6411 14.0844 78.5082C13.5761 78.3743 13.0744 78.2587 12.5712 78.1238C11.6831 77.8859 10.4862 77.5763 9.61371 77.2784C9.37652 77.1973 9.11511 77.1098 8.98376 76.9529C8.84349 76.7854 8.91439 76.6055 9.0289 76.4431C9.04751 76.4168 9.06487 76.399 9.08247 76.3755C9.13016 76.3117 9.31607 76.1348 9.37652 76.0771L9.70732 75.755C9.78894 75.6596 9.89657 75.581 9.95012 75.5193C10.0197 75.439 10.0225 75.4469 10.096 75.3767L10.8247 74.6711C10.868 74.6323 10.9053 74.5981 10.9481 74.5586C10.9713 74.5372 10.983 74.5178 11.007 74.4966L11.1899 74.3227C11.2266 74.2908 11.2822 74.2449 11.3123 74.2097L11.6153 73.921C11.6967 73.8544 11.6939 73.8432 11.7392 73.8019C11.8198 73.7284 11.9701 73.5777 12.0423 73.5206C12.3952 73.2418 12.5286 73.1882 12.9841 73.0286L13.6865 72.7819C13.8005 72.7437 13.9137 72.6937 14.0316 72.6567C14.2688 72.5817 14.5088 72.4963 14.7429 72.419C15.6825 72.1091 16.6514 71.7809 17.6027 71.4766C18.0837 71.3228 18.5611 71.1624 19.0444 71.0127C19.5229 70.8648 20.0067 70.7092 20.4875 70.558C20.9708 70.406 21.4523 70.2639 21.941 70.1144C22.1828 70.0405 22.4274 69.9696 22.676 69.9005C23.003 69.8097 23.1068 69.7686 23.4593 69.7293L23.4598 69.7291ZM32.4592 75.9391C32.5099 75.5721 32.3427 75.1526 32.2164 74.8595C32.0829 74.5494 31.9344 74.2515 31.7855 73.9546C31.4883 73.3624 31.181 72.7692 30.9002 72.1686C30.8295 72.0176 30.7548 71.8676 30.6864 71.7141C30.5938 71.5057 30.4604 71.2479 30.3271 71.0719L30.1776 70.8875C30.1505 70.8541 30.1287 70.8298 30.0973 70.8008C30.0702 70.776 30.0392 70.7482 30.0077 70.7232C29.9435 70.6717 29.8872 70.6375 29.8028 70.595C29.218 70.2996 28.6205 69.9976 28.023 69.702C27.4302 69.409 26.8306 69.1078 26.2241 68.829C25.5118 68.5015 24.9923 68.1779 24.1369 68.2873C23.9283 68.3141 23.7867 68.359 23.6041 68.4222C23.4383 68.4796 23.2657 68.5278 23.0966 68.5829C22.7581 68.6928 22.4169 68.792 22.082 68.904C21.7487 69.0152 21.4051 69.1218 21.068 69.2259C20.058 69.5383 19.0345 69.8795 18.0299 70.1879C17.6917 70.2917 17.3545 70.409 17.0148 70.5087C16.8457 70.5585 16.6766 70.6146 16.5078 70.6697C16.3415 70.724 16.1671 70.775 16 70.8301C15.6661 70.94 15.3213 71.0507 14.9859 71.1517C14.6472 71.2537 14.3114 71.371 13.9711 71.4728L12.9563 71.7942C11.9861 72.1137 10.8986 72.3767 10.0843 72.9217C9.91493 73.0352 9.89172 73.0566 9.7471 73.1689C9.72901 73.1829 9.72007 73.1923 9.70195 73.2071C9.52011 73.3561 9.51705 73.3912 9.36428 73.5374C9.30537 73.5935 9.25232 73.6445 9.19341 73.7006L8.68817 74.1972C8.63129 74.2528 8.58078 74.3112 8.52366 74.3668L7.5221 75.3691C7.49354 75.3984 7.46395 75.4196 7.43513 75.4492C7.32547 75.5624 7.02247 75.8851 6.94137 75.9575C6.80849 76.0763 6.72229 76.1891 6.61109 76.2952L6.3637 76.5487C6.3359 76.5785 6.30682 76.6002 6.27851 76.6305C6.24995 76.6611 6.22649 76.6861 6.19767 76.7168C6.16884 76.7474 6.14589 76.7721 6.11707 76.8032L5.95563 76.9682C5.924 77.0027 5.91048 77.0172 5.87197 77.0514C5.81561 77.1014 5.76766 77.1761 5.71104 77.2245C5.66029 77.2677 5.42233 77.5337 5.38484 77.5663C5.34378 77.6015 5.33562 77.6206 5.30425 77.6525C5.12495 77.8349 4.91199 78.1924 5.03798 78.4715C5.1655 78.7538 5.53889 78.8359 5.88294 78.9619C6.21118 79.082 6.54554 79.1874 6.87608 79.3047C7.53996 79.5404 8.21811 79.7403 8.88658 79.9658C9.22325 80.0795 9.56245 80.1774 9.89963 80.2886C10.5622 80.5072 11.2682 80.7118 11.9379 80.9222C12.2779 81.029 12.6209 81.1346 12.9627 81.2333C13.648 81.4312 14.3328 81.6467 15.0191 81.8485C16.394 82.2527 17.7685 82.658 19.1554 83.0482C19.5012 83.1454 19.8499 83.2459 20.1957 83.3436C20.5803 83.4522 20.9203 83.5412 21.3529 83.5221C22.1616 83.4864 22.7339 83.0992 23.2756 82.7735C23.5271 82.6225 23.8362 82.4096 24.0831 82.2451C24.3534 82.065 24.6159 81.8888 24.8809 81.7067L26.853 80.3471C27.0788 80.1989 27.4099 79.9599 27.6397 79.7977L29.0124 78.8323C29.0783 78.7857 29.1403 78.739 29.2075 78.6936L31.7397 76.8841C31.8081 76.8343 31.8641 76.7874 31.9278 76.7382C31.9455 76.7244 31.9549 76.7132 31.9726 76.6999L32.1043 76.5808C32.2729 76.413 32.4239 76.1967 32.4592 75.9404V75.9391Z" fill="#663366"/>
<path fill-rule="evenodd" clip-rule="evenodd" d="M23.1052 70.7514C23.6122 70.7397 24.0797 70.7692 24.5699 70.8562C24.7943 70.896 24.9984 70.9409 25.2044 71.0105C25.9172 71.2518 26.9613 71.6935 27.4189 72.3487C27.4764 72.4309 27.5136 72.4995 27.5651 72.5895C27.8862 73.1493 28.025 73.8374 27.7566 74.4722C27.698 74.6107 27.5555 74.8532 27.4561 74.9535C27.4207 74.9892 27.3957 75.0208 27.3606 75.0555L27.2595 75.1519C27.2287 75.1807 27.1856 75.2121 27.1523 75.2422L26.8245 75.5061C26.7483 75.561 26.6758 75.6199 26.5985 75.675C26.4615 75.7722 26.2721 75.914 26.136 76.0017L25.9012 76.1619C25.256 76.598 24.3921 77.1387 23.7178 77.5233L23.2154 77.8102C23.0504 77.9089 22.8739 77.9946 22.7045 78.0885C22.3722 78.2729 22.0039 78.4351 21.6321 78.5873C20.7351 78.9543 19.9529 79.015 18.9253 78.8317C18.4871 78.7536 18.0571 78.6465 17.6299 78.5486C17.205 78.4511 16.7847 78.3458 16.3652 78.242C15.9456 78.1385 15.5227 78.0324 15.1057 77.9219C14.69 77.812 14.2715 77.698 13.8558 77.5934C13.4375 77.4884 13.0302 77.3654 12.615 77.255C12.4342 77.2068 11.8642 77.0522 11.6986 76.9874C10.6473 76.5766 10.6588 75.9071 11.3752 75.169L12.0072 74.6245C12.0442 74.5926 12.0774 74.5666 12.1167 74.5367C12.1549 74.5077 12.1891 74.4791 12.2278 74.4505C12.4732 74.2707 12.6438 74.1307 12.9188 73.9573C13.0024 73.9045 13.0769 73.857 13.1616 73.8055C13.5515 73.5683 14.0614 73.3286 14.4824 73.1603C14.8645 73.0078 15.2386 72.8716 15.634 72.7331C16.4154 72.4594 17.2224 72.2199 18.0163 71.9656C18.4162 71.8376 18.8128 71.7083 19.2153 71.5854C20.4466 71.2097 21.8152 70.781 23.1052 70.7514ZM23.4595 69.7302C23.1067 69.7695 23.0032 69.8105 22.6762 69.9013C22.4278 69.9704 22.183 70.0413 21.9412 70.1153C21.4525 70.2648 20.971 70.4068 20.4877 70.5588C20.0069 70.7101 19.5231 70.8656 19.0446 71.0136C18.5611 71.1633 18.0836 71.3234 17.6029 71.4775C16.6518 71.7817 15.6827 72.11 14.7431 72.4199C14.509 72.4972 14.269 72.5828 14.0318 72.6576C13.9139 72.6946 13.8007 72.7448 13.6867 72.7828L12.9843 73.0294C12.5288 73.1891 12.3954 73.2426 12.0424 73.5214C11.9702 73.5783 11.82 73.729 11.7394 73.8027C11.694 73.844 11.6966 73.8553 11.6155 73.9218L11.3125 74.2105C11.2821 74.246 11.2265 74.2916 11.1901 74.3235L11.0072 74.4975C10.9832 74.5186 10.9715 74.538 10.9483 74.5594C10.9054 74.599 10.8682 74.6331 10.8249 74.6719L10.0962 75.3776C10.0227 75.4475 10.0202 75.4396 9.95031 75.5202C9.89674 75.5817 9.78911 75.6602 9.70751 75.7559L9.37671 76.078C9.31627 76.1356 9.13061 76.3126 9.08264 76.3764C9.06506 76.3998 9.04771 76.4177 9.0291 76.444C8.91459 76.6064 8.84368 76.7862 8.98395 76.9538C9.1153 77.1109 9.37671 77.1981 9.61391 77.2792C10.4864 77.5771 11.6833 77.8867 12.5714 78.1247C13.0746 78.2596 13.5763 78.3751 14.0846 78.509C14.5888 78.6419 15.1068 78.7518 15.6181 78.8809C16.1241 79.0084 16.6452 79.1234 17.1563 79.2402C18.0472 79.4438 18.9694 79.656 19.8667 79.847C20.5045 79.9829 20.8292 80.0278 21.4413 79.731C21.7203 79.5958 22.084 79.3731 22.3653 79.2293C22.4663 79.1778 22.5704 79.115 22.6698 79.0625L22.9787 78.8929C23.1794 78.7768 23.385 78.6705 23.5882 78.5537C23.9876 78.3244 24.4146 78.0979 24.8063 77.8668C25.0022 77.7513 25.2062 77.6363 25.41 77.522C25.9986 77.1912 26.6283 76.8163 27.2127 76.4707L28.3904 75.7505C28.5983 75.6191 28.7585 75.5092 28.9041 75.3088C29.0385 75.1236 29.1122 74.8532 29.0773 74.5533C29.0383 74.2218 28.7649 73.4319 28.649 73.0838C28.5716 72.8499 28.2668 71.9016 28.1189 71.7096C27.9915 71.5446 27.7574 71.4275 27.5666 71.3135C27.3649 71.1929 27.1619 71.0878 26.9541 70.9771C26.5256 70.7491 26.0974 70.5629 25.6541 70.3724C25.3743 70.252 24.5921 69.9541 24.2748 69.8541C24.0376 69.7794 23.751 69.6975 23.4599 69.7299L23.4595 69.7302Z" fill="#663366"/>
</svg>
