<svg width="150" height="150" viewBox="0 0 150 150" fill="none" xmlns="http://www.w3.org/2000/svg">
<path fill-rule="evenodd" clip-rule="evenodd" d="M90.75 75.4084V67.0273H93.6961V77.9879H88.8149L85.6839 69.606V77.9879H82.7363V67.0273H87.7096L90.75 75.4084ZM95.9073 77.9879V67.0273H98.8542V77.9879H95.9073ZM142.051 75.4084V67.0273H145V77.9879H140.026L136.986 69.606V77.9879H134.039V67.0273H138.921L142.051 75.4084ZM107.328 71.1715C109.17 71.1715 110.461 72.2782 110.461 74.58C110.461 75.7773 110.092 77.9886 107.421 77.9886H100.79V75.5012H107.421V73.8437H103.46C100.882 73.8437 100.421 71.818 100.421 70.4352C100.421 69.2379 100.881 67.0281 103.46 67.0281H109.632V69.5147H103.46V71.1722L107.328 71.1715ZM118.289 71.1715C120.132 71.1715 121.421 72.2782 121.421 74.58C121.421 75.7773 121.053 77.9886 118.289 77.9886H111.75V75.5012H118.381V73.8437H114.421C111.842 73.8437 111.382 71.818 111.382 70.4352C111.382 69.2379 111.842 67.0281 114.421 67.0281H120.5V69.5147H114.421V71.1722L118.289 71.1715ZM128.788 73.6589L127.315 69.4219L125.841 73.6589H128.788ZM129.802 67.0273L133.485 77.9879H130.446L129.802 75.9607H125.013L124.369 77.9879H121.329L125.474 67.0273H129.802Z" fill="#663366"/>
<path fill-rule="evenodd" clip-rule="evenodd" d="M26.0916 77.9871H16.9727V77.1587H17.6177C17.8018 77.1587 17.9859 76.8826 18.0779 76.7906V68.1319C17.9859 68.0398 17.7097 67.7637 17.6177 67.8557H16.9727V67.0273H25.7227V69.7901H24.0651V68.3159C24.0651 68.0398 23.789 67.7637 23.6049 67.8557H21.6706C21.5785 67.7637 21.3024 67.9478 21.3024 68.1319V71.2628C21.3024 71.5389 21.3944 71.723 21.6706 71.723H22.1308C22.3156 71.723 22.591 71.3548 22.683 71.2628V70.6185H24.2492V73.843H22.683V73.1987C22.591 73.0146 22.3149 72.7385 22.1308 72.7385H21.6706C21.3944 72.7385 21.3024 72.8305 21.3024 73.0146V76.6057C21.3024 76.8834 21.5785 77.1595 21.6706 77.1595H23.6049C24.0651 77.1595 24.2492 76.5137 24.2492 75.9607V74.6713H26.0916V77.9871ZM29.3153 71.0787V76.605C29.3153 76.8826 29.5914 77.1587 29.7763 77.1587H30.5126V77.9871H26.9207V77.1587H27.5657C27.6578 77.1587 27.9339 76.8826 27.8419 76.605V68.1319C27.9339 68.0398 27.6578 67.7637 27.5657 67.8557H26.9207V67.0273H30.7895L34.7495 73.843V68.1326C34.7495 68.0406 34.5655 67.7644 34.3814 67.8565H33.7371V67.0281H37.329V67.8565H36.6839C36.4078 67.7644 36.2237 68.0406 36.2237 68.1326V77.9879H32.9079L29.3153 71.0787ZM56.3937 75.3156C56.4857 79.1844 48.4728 79.0003 48.3808 75.4997V68.1319C48.4728 68.0398 48.1967 67.7637 48.1046 67.8557H47.4596V67.0273H52.8018V67.8557H52.1575C52.0655 67.7637 51.7886 68.0398 51.6965 68.1319V75.3156C51.7886 77.6189 55.2884 77.4349 55.2884 75.4997V68.3159C55.3805 68.0398 55.1043 67.7637 54.9203 67.8557H54.2752V67.0273H57.591V67.8557H56.9467C56.7619 67.7637 56.4857 68.0398 56.3937 68.3159V75.3156ZM62.7491 68.1319V76.605C62.7491 76.8826 63.026 77.1587 63.118 77.1587H64.5914C65.0524 77.1587 65.2365 76.5129 65.2365 75.9599V74.6706H66.986V77.9871H58.5122V77.1587H59.0644C59.2485 77.1587 59.4326 76.8826 59.5254 76.605V68.1319C59.4326 68.0398 59.2485 67.7637 59.0644 67.8557H58.4201V67.0273H63.9464V67.8557H63.1173C63.0252 67.7637 62.7491 68.0398 62.7491 68.1319Z" fill="#663366"/>
<path fill-rule="evenodd" clip-rule="evenodd" d="M70.4869 77.9874H67.7234V77.159H68.3685C68.5526 77.159 68.8287 76.8829 68.8287 76.6052V68.0401C68.8287 67.856 68.7366 67.7639 68.6446 67.856C67.8162 67.856 67.4473 68.0401 67.5393 69.1453V70.1585H65.8818V67.0276H75V70.1585H73.4345V69.1453C73.4345 68.0401 73.0664 67.856 72.2372 67.856C72.1445 67.7639 72.0532 67.856 72.0532 68.0401V76.6052C72.0532 76.8829 72.3293 77.159 72.6062 77.159H73.2505V77.9874H70.4869ZM6.19805 70.2506V68.1321C6.106 68.0401 5.82913 67.7639 5.64504 67.856H5V67.0276H12.8288C14.5784 66.9348 15.2234 68.409 15.3155 69.9744C15.2227 71.4494 14.4863 72.5539 13.0129 72.5539L15.4996 76.6052C15.4996 76.8829 15.6836 77.159 15.9598 77.159H16.1438V77.9874H12.3679L10.0653 72.9213C10.0653 72.7372 9.88048 72.6452 9.78844 72.5531H9.42177V76.6045C9.32973 76.8821 9.60585 77.1582 9.78994 77.1582H10.4342V77.9866H5V77.1582H5.64504C5.82913 77.1582 6.106 76.8821 6.19805 76.7901V70.2506ZM10.2509 67.856H9.42177V71.7233H10.527C12.1845 71.8168 12.0925 67.7632 10.527 67.856H10.2509ZM41.5662 74.0266H40.2769C40.0928 74.0266 40.0928 74.1186 40.0928 74.2106L39.2637 76.7901C39.2637 76.9742 39.4477 77.1582 39.6318 77.1582H40.2769V77.9866H36.9611V77.1582H37.6982C37.8823 77.1582 37.9743 76.9742 37.9743 76.7901L39.8167 70.8941L40.553 68.4995C40.645 68.1314 40.461 67.7632 39.9087 67.8552H39.4478V67.0268H44.329L47.0917 76.7901C47.1838 76.9742 47.3686 77.1582 47.4607 77.1582H48.2898V77.9866H42.6715V77.1582H43.4086C43.5926 77.1582 43.7767 76.9742 43.6847 76.7901L43.0396 74.2106L42.8556 74.0266H41.5662ZM40.9212 70.8949L40.4602 72.922C40.4602 72.922 40.4602 73.0141 40.5523 73.0141H42.5787C42.5787 73.0141 42.6707 72.922 42.5787 72.922L41.5655 69.1453L40.9212 70.8949Z" fill="#663366"/>
</svg>
