<svg width="150" height="150" viewBox="0 0 150 150" fill="none" xmlns="http://www.w3.org/2000/svg">
<path d="M81.7698 34.5457H91.3763L86.5608 41.5147L72.2924 62.1391V41.2887H63.2988L75.8252 18.1719H90.4082L81.7698 34.5457Z" stroke="#663366" stroke-width="5.69107" stroke-miterlimit="10" stroke-linecap="round" stroke-linejoin="round"/>
<path d="M112.09 72.625H66.2592M52.1681 72.625H42.5938" stroke="#663366" stroke-width="5.69107" stroke-miterlimit="10" stroke-linecap="round" stroke-linejoin="round"/>
<path d="M79.1488 98.9766H42.5859V112.148H79.1488V98.9766Z" stroke="#663366" stroke-width="5.69107" stroke-miterlimit="10" stroke-linecap="round" stroke-linejoin="round"/>
<path d="M93.7871 107.381L112.54 98.9766L131.294 107.381V122.698C131.294 133.999 119.993 141.371 112.54 145.001C105.087 141.371 93.7871 133.999 93.7871 122.698V107.381Z" stroke="#663366" stroke-width="5.69107" stroke-miterlimit="10" stroke-linecap="round" stroke-linejoin="round"/>
<path d="M94.0452 125.319H30.752V5H123.922V104.082" stroke="#663366" stroke-width="5.69107" stroke-miterlimit="10" stroke-linecap="round" stroke-linejoin="round"/>
<path d="M106.039 123.229L110.548 127.053L119.041 116.914" stroke="#663366" stroke-width="5.69107" stroke-miterlimit="10" stroke-linecap="round" stroke-linejoin="round"/>
<path d="M100.724 137.077H19V16.75H30.7521" stroke="#663366" stroke-width="5.69107" stroke-miterlimit="10" stroke-linecap="round" stroke-linejoin="round"/>
<path d="M42.5938 85.8047H88.4163M102.507 85.8047H112.09" stroke="#663366" stroke-width="5.69107" stroke-miterlimit="10" stroke-linecap="round" stroke-linejoin="round"/>
</svg>
