<svg width="150" height="150" viewBox="0 0 150 150" fill="none" xmlns="http://www.w3.org/2000/svg">
<g clip-path="url(#clip0_618_22)">
<path d="M10.4214 82.6633H7.69588L6.63339 86.5915H19.8452L20.8615 82.6633H17.674L20.8615 69.5849H23.0326L22.8479 71.7569H27.4212L29.269 64.8711H7.28012L5.47852 71.7569H10.2366L11.2067 69.5386H13.5627L10.4214 82.6633ZM44.8829 64.8711H55.092L41.4645 86.5915H32.9183L31.7173 68.7992H29.9619L30.9782 64.8711H42.296L41.2797 68.7992H39.3395L39.2933 79.9367L45.8068 68.7992H43.6356L44.8829 64.8711ZM71.0755 71.2948C71.0755 69.1227 71.7684 67.1817 72.6462 65.1946C68.812 64.5014 64.6544 64.2241 60.8664 65.1946C58.7414 65.7491 56.524 67.0893 55.323 68.9841C53.9372 71.1099 54.2605 73.8365 55.9697 75.6389C56.8475 76.5169 57.91 77.1177 59.0186 77.626C59.8963 78.0419 61.4207 78.689 61.6517 79.7057C62.2985 82.2936 58.1409 82.5247 56.524 82.0163V79.9829H52.1817L50.5187 86.0369C54.3991 87.0073 58.4643 87.3308 62.3908 86.4528C64.7468 85.8982 66.8718 84.6967 68.4424 82.8019C69.7359 81.1845 70.4749 78.1806 69.0891 76.4245C68.3038 75.454 67.4261 74.7146 66.3636 74.1138C65.3474 73.513 64.2386 73.1433 63.3147 72.4501C62.2061 71.6182 62.2061 70.3243 63.4071 69.5849C64.331 68.9841 65.8554 69.2614 66.8718 69.4462L67.0565 71.2485H71.0755V71.2948Z" fill="#663366"/>
<path d="M130.665 65.2898C128.863 64.5966 127.154 64.6428 125.306 65.105C123.504 65.5671 122.211 66.5838 120.779 67.6929C119.347 68.8021 117.823 69.9112 116.16 70.6506C114.451 71.39 112.511 72.1756 110.662 71.4362C112.003 71.4824 113.249 71.2052 114.404 70.4657C115.282 69.9112 116.806 68.7558 117.13 67.6929H115.606C116.714 66.4914 118.1 65.5671 119.624 65.0125L118.885 64.1345C120.918 62.7481 123.135 62.1011 125.584 62.0087C126.739 61.9625 127.894 62.1011 128.956 62.4246C130.111 62.7481 130.989 63.3026 131.82 64.1345L130.665 65.2898ZM101.423 70.1422C100.777 70.1422 100.223 70.1885 99.5756 70.3733C98.9751 70.5582 98.4208 70.7892 97.8202 71.0203C96.7116 71.4824 95.6491 72.0832 94.5866 72.6378C94.1246 72.8688 93.5703 73.1462 93.0621 73.2386C92.5078 73.331 91.7687 73.331 91.2606 73.0999C90.7062 72.8227 90.2442 72.5453 89.7823 72.1295C89.3203 71.7135 88.8584 71.2976 88.3964 70.9741C87.8883 70.6506 87.3802 70.4195 86.872 70.096C87.103 70.096 88.3041 70.0498 87.9807 69.5415C87.7035 69.1256 87.0568 68.9407 86.5486 68.8483C85.3938 68.6172 84.2389 68.6172 83.084 68.6172C84.0541 67.7854 85.1166 67.3694 86.41 67.3694C87.6111 67.3694 88.5813 67.924 89.5975 68.5248C90.1057 68.8483 90.7062 69.4028 91.2143 69.7263C91.7225 70.0498 92.2768 70.2347 92.8312 70.4195C93.8937 70.7892 95.2333 70.6044 96.2958 70.2347C97.1735 69.9112 97.9588 69.5415 98.929 69.5415C99.8065 69.4028 100.638 69.6339 101.423 70.1422Z" fill="#663366"/>
<path d="M92.3689 79.4283C94.2629 79.3358 95.8336 77.4874 96.8961 76.1009C98.0509 74.6221 98.8362 72.4038 100.638 71.572C103.317 70.3704 106.135 71.3871 108.584 72.6811C110.893 73.8365 114.127 73.6516 116.436 72.6349C118.977 71.5258 120.917 69.631 123.089 68.0136C125.121 66.4885 127.754 65.4256 130.896 66.2574L132.282 64.5938L132.559 67.3204L137.455 72.2652L136.485 73.4206H133.344V72.6349C132.42 71.9879 131.45 71.5258 130.295 71.6644C129.094 71.8031 127.801 72.3576 127.985 73.7902C128.124 74.7608 129.51 75.6388 130.202 76.1471C131.173 76.7942 132.189 77.3949 133.205 78.0419C135.284 79.3358 137.271 80.7685 139.211 82.2935C141.013 83.7262 142.86 85.205 144.246 87.0074L139.996 86.1755C140.781 85.6209 139.858 85.0201 139.35 84.6042C138.703 84.0958 138.056 83.6799 137.317 83.2641C135.885 82.4784 134.36 82.0624 132.79 81.6928C129.787 80.9533 125.907 80.4912 123.273 82.3859C123.181 82.4322 123.089 82.5246 122.996 82.5708L121.518 81.3231C116.76 82.9406 111.447 82.5246 107.059 80.1215C105.257 81.3692 103.179 81.6466 101.099 81.8776C99.1134 82.1087 97.0347 81.97 95.002 81.7852C90.1516 85.8057 83.5456 88.1626 77.3555 86.0368L81.5131 84.974V85.8982C85.9939 85.8982 89.7358 82.7557 92.3689 79.4283Z" fill="#663366"/>
</g>
<defs>
<clipPath id="clip0_618_22">
<rect width="140" height="25.5405" fill="white" transform="translate(5 62)"/>
</clipPath>
</defs>
</svg>
