<svg width="150" height="150" viewBox="0 0 150 150" fill="none" xmlns="http://www.w3.org/2000/svg">
<path d="M141.284 89.5546C129.591 88.6873 115.042 87.9674 99.1422 87.9674C74.8054 87.9674 47.3273 89.6284 22.2657 94.8223C18.0638 89.5164 12.9512 85.35 5.11442 82.0586L5 82.2878C11.9312 89.819 16.3596 96.3306 19.4984 105.648C54.6324 92.5483 98.7403 90.1219 132.043 90.1219C135.23 90.1219 138.267 90.16 141.205 90.198L141.284 89.5546Z" fill="#663366"/>
<path d="M104.718 65.7429C104.909 64.8373 105.061 64.0794 105.061 63.0188C105.061 60.9762 103.772 60.1394 102.406 60.1394C100.17 60.1394 99.005 61.4671 98.4761 65.7429H104.718ZM60.3862 76.0442C59.7046 76.5352 58.682 77.1025 57.5476 77.1025C55.3881 77.1025 55.0853 75.2838 55.0853 73.1269C55.0853 70.5909 55.7696 66.0863 56.5225 64.3058C57.662 61.579 59.2135 60.8237 61.7114 60.8237C61.7851 60.8237 61.9785 60.8237 62.2429 60.8617L60.3862 76.0442ZM133.747 69.8304C132.956 77.1763 131.855 78.6921 129.744 78.6921C127.808 78.6921 127.053 77.2882 127.053 74.223C127.053 72.9005 127.203 71.0464 127.432 69.1157C128.228 61.7673 129.327 60.2538 131.438 60.2538C133.374 60.2538 134.129 61.6554 134.129 64.7203C134.129 66.0455 133.976 67.8998 133.747 69.8304ZM83.4715 83.7615H72.9541L77.7231 45H88.2509L83.4715 83.7615ZM104.871 77.0261C106.982 77.0261 109.825 76.5352 112.061 75.8917L110.774 82.9348C108.119 83.6114 104.38 83.9905 101.042 83.9905C90.4104 83.9905 87.4547 79.3687 87.4547 73.3151C87.4547 57.8299 94.1162 54.3121 103.278 54.3121C110.471 54.3121 114.933 57.7918 114.933 64.4584C114.933 67.3682 114.338 69.9856 113.92 71.8017H98.0944C98.0944 75.1364 99.1831 77.0261 104.871 77.0261ZM63.4893 54.5385C56.1461 54.5385 52.173 55.9375 48.9528 59.3814C45.8879 62.6423 44.26 68.3958 44.26 74.4901C44.26 79.791 45.5827 84.1786 52.1349 84.1786C55.121 84.1786 57.7384 83.0492 60.1598 81.6426H60.2716L60.0098 83.7615H69.9653L73.5237 54.7292C70.6087 54.6123 67.2386 54.5385 63.4894 54.5385H63.4893ZM145 64.8374C145 57.339 140.145 54.3121 132.005 54.3121C122.172 54.3121 116.182 58.8192 116.182 74.1112C116.182 81.6045 121.035 84.6364 129.177 84.6364C139.01 84.6364 145 80.2438 145 64.8374H145ZM40.6228 45C38.2037 54.0831 34.8692 63.1712 30.5909 72.2949H30.5146C29.3828 64.8754 28.8131 54.1976 28.8131 45H16.6191C17.0007 59.5314 19.5366 72.3686 22.3778 83.7613H34.1137C40.7372 71.8015 46.946 58.931 51.7534 45H40.6228Z" fill="#663366"/>
</svg>
