<svg width="150" height="150" viewBox="0 0 150 150" fill="none" xmlns="http://www.w3.org/2000/svg">
<path d="M58.4238 82.966V52.0195" stroke="#663366" stroke-width="4.22535" stroke-miterlimit="10" stroke-linecap="round" stroke-linejoin="round"/>
<path d="M56.977 32.2188H43.4902" stroke="#663366" stroke-width="4.22535" stroke-miterlimit="10" stroke-linecap="round" stroke-linejoin="round"/>
<path d="M52.1836 60.3672H58.4236" stroke="#663366" stroke-width="4.22535" stroke-miterlimit="10" stroke-linecap="round" stroke-linejoin="round"/>
<path d="M15.5195 15.8594V53.0424" stroke="#663366" stroke-width="4.22535" stroke-miterlimit="10" stroke-linecap="round" stroke-linejoin="round"/>
<path d="M22.373 15.8594V53.0424" stroke="#663366" stroke-width="4.22535" stroke-miterlimit="10" stroke-linecap="round" stroke-linejoin="round"/>
<path d="M29.2285 15.8594V53.0424" stroke="#663366" stroke-width="4.22535" stroke-miterlimit="10" stroke-linecap="round" stroke-linejoin="round"/>
<path d="M36.082 15.8594V53.0424" stroke="#663366" stroke-width="4.22535" stroke-miterlimit="10" stroke-linecap="round" stroke-linejoin="round"/>
<path d="M91.8887 51.5352V82.9985" stroke="#663366" stroke-width="4.22535" stroke-miterlimit="10" stroke-linecap="round" stroke-linejoin="round"/>
<path d="M129.99 26.9315V19.2036C129.99 18.7786 129.798 18.3763 129.467 18.109L114.899 6.3138C114.648 6.1107 114.335 6 114.013 6H93.2971C92.5194 6 91.8887 6.6307 91.8887 7.40845V30.1819" stroke="#663366" stroke-width="4.22535" stroke-miterlimit="10" stroke-linecap="round" stroke-linejoin="round"/>
<path d="M101.479 22.6211V26.3048" stroke="#663366" stroke-width="4.22535" stroke-miterlimit="10" stroke-linecap="round" stroke-linejoin="round"/>
<path d="M110.211 22.6211V26.3048" stroke="#663366" stroke-width="4.22535" stroke-miterlimit="10" stroke-linecap="round" stroke-linejoin="round"/>
<path d="M118.943 22.6211V26.3048" stroke="#663366" stroke-width="4.22535" stroke-miterlimit="10" stroke-linecap="round" stroke-linejoin="round"/>
<path d="M101.479 35.2969V38.9805" stroke="#663366" stroke-width="4.22535" stroke-miterlimit="10" stroke-linecap="round" stroke-linejoin="round"/>
<path d="M110.211 35.2969V38.9805" stroke="#663366" stroke-width="4.22535" stroke-miterlimit="10" stroke-linecap="round" stroke-linejoin="round"/>
<path d="M118.943 35.2969V38.9805" stroke="#663366" stroke-width="4.22535" stroke-miterlimit="10" stroke-linecap="round" stroke-linejoin="round"/>
<path d="M43.4899 94.728V19.7952C43.4899 19.0174 42.8592 18.3867 42.0814 18.3867H9.51978C8.74203 18.3867 8.11133 19.0174 8.11133 19.7952V75.0314" stroke="#663366" stroke-width="4.22535" stroke-miterlimit="10" stroke-linecap="round" stroke-linejoin="round"/>
<path d="M8.11133 92.4062V114.498C8.11133 115.276 8.74203 115.907 9.51978 115.907H37.1279V115.533" stroke="#663366" stroke-width="4.22535" stroke-miterlimit="10" stroke-linecap="round" stroke-linejoin="round"/>
<path d="M112.873 115.91H140.704C141.482 115.91 142.113 115.279 142.113 114.501V92.1251C139.608 95.3395 135.703 97.4091 131.312 97.4091C123.752 97.4091 117.623 91.2803 117.623 83.7201C117.623 76.1598 123.752 70.0313 131.312 70.0313C135.703 70.0313 139.608 72.1009 142.113 75.3153V54.5195" stroke="#663366" stroke-width="4.22535" stroke-miterlimit="10" stroke-linecap="round" stroke-linejoin="round"/>
<path d="M142.111 44.6584V28.3381C142.111 27.5604 141.481 26.9297 140.703 26.9297H126.789C126.153 26.9297 125.595 27.3567 125.429 27.9714L120.772 45.2381C120.606 45.8528 120.048 46.2798 119.412 46.2798H108.141C107.363 46.2798 106.732 46.9105 106.732 47.6883V94.7164C106.783 94.7152 106.833 94.7099 106.884 94.7099" stroke="#663366" stroke-width="4.22535" stroke-miterlimit="10" stroke-linecap="round" stroke-linejoin="round"/>
<path d="M110.28 94.7109H106.884C105.295 94.7109 103.837 95.267 102.689 96.1929L104.877 103.315C105.633 103.646 106.354 104.043 107.029 104.503H110.28C112.984 104.503 115.176 102.311 115.176 99.607C115.176 96.903 112.984 94.7109 110.28 94.7109Z" stroke="#663366" stroke-width="4.22535" stroke-miterlimit="10" stroke-linecap="round" stroke-linejoin="round"/>
<path d="M42.9707 104.503C43.6459 104.043 44.3665 103.646 45.1228 103.315L47.3104 96.1929C46.1634 95.2667 44.7051 94.7109 43.116 94.7109H39.7203C37.0163 94.7109 34.8242 96.9028 34.8242 99.6067C34.8242 102.311 37.0163 104.503 39.7203 104.503H42.9707Z" stroke="#663366" stroke-width="4.22535" stroke-miterlimit="10" stroke-linecap="round" stroke-linejoin="round"/>
<path d="M50.4644 102.198H99.5371C101.437 102.198 103.243 102.598 104.878 103.314L100.938 90.4849C99.5582 85.9945 95.4106 82.9297 90.7131 82.9297H59.2884C54.5909 82.9297 50.4433 85.9945 49.0639 90.4849L45.123 103.314C46.7588 102.598 48.5644 102.198 50.4644 102.198Z" stroke="#663366" stroke-width="4.22535" stroke-miterlimit="10" stroke-linecap="round" stroke-linejoin="round"/>
<path d="M41.4483 133.013C40.7767 133.013 40.1432 132.856 39.5762 132.582V143.139C39.5762 143.999 40.2725 144.695 41.1317 144.695H49.5407C50.3998 144.695 51.0962 143.999 51.0962 143.139V133.013H41.4483Z" stroke="#663366" stroke-width="4.22535" stroke-miterlimit="10" stroke-linecap="round" stroke-linejoin="round"/>
<path d="M108.552 133.013H98.9043V143.139C98.9043 143.999 99.6006 144.695 100.46 144.695H108.869C109.728 144.695 110.424 143.999 110.424 143.139V132.582C109.857 132.856 109.224 133.013 108.552 133.013Z" stroke="#663366" stroke-width="4.22535" stroke-miterlimit="10" stroke-linecap="round" stroke-linejoin="round"/>
<path d="M112.871 124.361V115.535C112.871 108.17 106.9 102.199 99.5353 102.199H50.4627C43.0976 102.199 37.127 108.17 37.127 115.535V124.361" stroke="#663366" stroke-width="4.22535" stroke-miterlimit="10" stroke-linecap="round" stroke-linejoin="round"/>
<path d="M110.086 107.383C104.614 109.045 100.631 114.128 100.631 120.143V124.087" stroke="#663366" stroke-width="4.22535" stroke-miterlimit="10" stroke-linecap="round" stroke-linejoin="round"/>
<path d="M39.9141 107.383C45.3859 109.045 49.3687 114.128 49.3687 120.143V124.087" stroke="#663366" stroke-width="4.22535" stroke-miterlimit="10" stroke-linecap="round" stroke-linejoin="round"/>
<path d="M75.8441 120.344H61.0235C59.7081 120.344 58.4723 120.973 57.6985 122.037C56.7613 123.325 55.2644 124.088 53.6712 124.088H37.127V128.696C37.127 131.082 39.061 133.016 41.4469 133.016H64.1503V128.958C64.1503 128.491 64.5286 128.112 64.9954 128.112H85.003C85.4697 128.112 85.848 128.491 85.848 128.958V133.016H108.551C110.937 133.016 112.871 131.082 112.871 128.696V124.088H96.3139C94.7207 124.088 93.2238 123.325 92.2866 122.037C91.5128 120.973 90.277 120.344 88.9615 120.344H85.7032" stroke="#663366" stroke-width="4.22535" stroke-miterlimit="10" stroke-linecap="round" stroke-linejoin="round"/>
<path d="M18.6895 97.4102V115.91" stroke="#663366" stroke-width="4.22535" stroke-miterlimit="10" stroke-linecap="round" stroke-linejoin="round"/>
<path d="M31.6417 79.2926C29.8008 73.9062 24.6991 70.0312 18.689 70.0312C11.1287 70.0312 5 76.16 5 83.72C5 91.28 11.1287 97.409 18.689 97.409C24.3189 97.409 29.1529 94.0093 31.2555 89.1518" stroke="#663366" stroke-width="4.22535" stroke-miterlimit="10" stroke-linecap="round" stroke-linejoin="round"/>
<path d="M131.311 97.4102V115.91" stroke="#663366" stroke-width="4.22535" stroke-miterlimit="10" stroke-linecap="round" stroke-linejoin="round"/>
<path d="M89.1297 54.9892C96.9334 47.1855 96.9334 34.5332 89.1297 26.7295C81.326 18.9259 68.6738 18.9259 60.8701 26.7295C53.0664 34.5332 53.0664 47.1855 60.8701 54.9892C68.6738 62.7929 81.326 62.7929 89.1297 54.9892Z" stroke="#663366" stroke-width="4.22535" stroke-miterlimit="10" stroke-linecap="round" stroke-linejoin="round"/>
<path d="M77.8336 29.7578L70.1426 40.8592H79.8564L72.1654 51.9609" stroke="#663366" stroke-width="4.22535" stroke-miterlimit="10" stroke-linecap="round" stroke-linejoin="round"/>
<path d="M75 60.8398V75.319" stroke="#663366" stroke-width="4.22535" stroke-miterlimit="10" stroke-linecap="round" stroke-linejoin="round"/>
<path d="M52.1836 68.1602H58.4236" stroke="#663366" stroke-width="4.22535" stroke-miterlimit="10" stroke-linecap="round" stroke-linejoin="round"/>
<path d="M52.1836 75.9531H58.4236" stroke="#663366" stroke-width="4.22535" stroke-miterlimit="10" stroke-linecap="round" stroke-linejoin="round"/>
<path d="M104.578 56.7031H120.492" stroke="#663366" stroke-width="4.22535" stroke-miterlimit="10" stroke-linecap="round" stroke-linejoin="round"/>
<path d="M104.578 65.1562H120.492" stroke="#663366" stroke-width="4.22535" stroke-miterlimit="10" stroke-linecap="round" stroke-linejoin="round"/>
<path d="M104.578 73.6055H120.492" stroke="#663366" stroke-width="4.22535" stroke-miterlimit="10" stroke-linecap="round" stroke-linejoin="round"/>
<path d="M104.578 82.0547H115.846" stroke="#663366" stroke-width="4.22535" stroke-miterlimit="10" stroke-linecap="round" stroke-linejoin="round"/>
<path d="M131.312 97.4092C138.872 97.4092 145.001 91.2805 145.001 83.7202C145.001 76.16 138.872 70.0312 131.312 70.0312C123.752 70.0312 117.623 76.16 117.623 83.7202C117.623 91.2805 123.752 97.4092 131.312 97.4092Z" stroke="#663366" stroke-width="4.22535" stroke-miterlimit="10" stroke-linecap="round" stroke-linejoin="round"/>
<path d="M85.003 136.564H64.9955C64.5287 136.564 64.1504 136.186 64.1504 135.719V128.958C64.1504 128.492 64.5287 128.113 64.9955 128.113H85.003C85.4698 128.113 85.8481 128.492 85.8481 128.958V135.719C85.8481 136.186 85.4695 136.564 85.003 136.564Z" stroke="#663366" stroke-width="4.22535" stroke-miterlimit="10" stroke-linecap="round" stroke-linejoin="round"/>
</svg>
