<svg width="150" height="150" viewBox="0 0 150 150" fill="none" xmlns="http://www.w3.org/2000/svg">
<path d="M13.8555 125.646V49.9835C13.8555 46.5647 16.6272 43.793 20.046 43.793H27.6109" stroke="#663366" stroke-width="4" stroke-miterlimit="10" stroke-linecap="round" stroke-linejoin="round"/>
<path d="M122.221 43.793H129.953C133.372 43.793 136.143 46.5647 136.143 49.9835V125.646" stroke="#663366" stroke-width="4" stroke-miterlimit="10" stroke-linecap="round" stroke-linejoin="round"/>
<path d="M141.163 127.094H8.83686C6.718 127.094 5 128.811 5 130.931V132.398C5 139.357 10.6417 144.999 17.6009 144.999H132.399C139.358 144.999 145 139.357 145 132.398V130.931C145 128.811 143.282 127.094 141.163 127.094Z" stroke="#663366" stroke-width="4" stroke-miterlimit="10" stroke-linecap="round" stroke-linejoin="round"/>
<path d="M122.573 52.5786C122.573 26.3017 101.272 5 74.9946 5C48.7177 5 27.416 26.3017 27.416 52.5786C27.416 74.3423 42.0289 92.6931 61.9783 98.3546L74.9946 115.364L88.0109 98.3546C107.96 92.6931 122.573 74.3423 122.573 52.5786Z" stroke="#663366" stroke-width="4" stroke-miterlimit="10" stroke-linecap="round" stroke-linejoin="round"/>
<path d="M28.2734 101.262H39.4646" stroke="#663366" stroke-width="4" stroke-miterlimit="10" stroke-linecap="round" stroke-linejoin="round"/>
<path d="M28.2734 113.836H54.6631" stroke="#663366" stroke-width="4" stroke-miterlimit="10" stroke-linecap="round" stroke-linejoin="round"/>
<path d="M121.717 101.262H110.525" stroke="#663366" stroke-width="4" stroke-miterlimit="10" stroke-linecap="round" stroke-linejoin="round"/>
<path d="M121.716 113.836H95.3262" stroke="#663366" stroke-width="4" stroke-miterlimit="10" stroke-linecap="round" stroke-linejoin="round"/>
<path d="M51.7156 52.3183L40.4308 47.6305C39.1799 47.1185 39.1296 45.3657 40.3491 44.7825L72.7588 29.2891C74.1753 28.612 75.8225 28.612 77.2391 29.2891L109.649 44.7825C110.868 45.3654 110.818 47.1182 109.567 47.6305L98.2822 52.3183" stroke="#663366" stroke-width="4" stroke-miterlimit="10" stroke-linecap="round" stroke-linejoin="round"/>
<path d="M98.2834 70.2265V52.3187L94.2082 50.6505C81.8985 45.6113 68.1017 45.6113 55.7919 50.6505L51.7168 52.3187V70.2265H98.2834Z" stroke="#663366" stroke-width="4" stroke-miterlimit="10" stroke-linecap="round" stroke-linejoin="round"/>
<path d="M110.535 46.2188V60.0648" stroke="#663366" stroke-width="4" stroke-miterlimit="10" stroke-linecap="round" stroke-linejoin="round"/>
</svg>
