<svg width="150" height="150" viewBox="0 0 150 150" fill="none" xmlns="http://www.w3.org/2000/svg">
<path d="M144.887 129.762L144.88 129.749V129.742L131.993 98.0124L132 30.1072C132 25.7959 128.491 22.2867 124.179 22.2867H83.5191C84.0338 21.0034 84.3212 19.613 84.3212 18.1492C84.3212 11.9996 79.3214 7 73.1721 7C67.0294 7 62.0363 11.9998 62.0363 18.1492C62.0363 19.613 62.3237 21.01 62.8384 22.2867H25.8211C21.5099 22.2867 18.0006 25.7959 18.0006 30.1072V98.0124L5.11363 129.742V129.749L5.10695 129.762C5.04679 129.916 5.02005 130.076 5.01337 130.237C5.01337 130.257 5 130.27 5 130.29V137.469C5 140.798 7.70704 143.512 11.0424 143.512H138.958C142.286 143.512 145 140.798 145 137.469V130.29C145 130.27 144.987 130.257 144.987 130.237C144.973 130.076 144.954 129.916 144.887 129.762ZM73.1727 9.81419C77.7714 9.81419 81.5079 13.5507 81.5079 18.1494C81.5079 22.7481 77.7714 26.4845 73.1727 26.4845C68.5873 26.4845 64.8509 22.7481 64.8509 18.1494C64.8509 13.5507 68.5873 9.81419 73.1727 9.81419ZM20.815 30.1067C20.815 27.3461 23.0608 25.1002 25.8214 25.1002H64.4831C66.5285 27.6536 69.6566 29.2978 73.1725 29.2978C76.6884 29.2978 79.8299 27.6535 81.8752 25.1002H124.173C126.934 25.1002 129.18 27.3461 129.18 30.1067V96.8757H20.816L20.815 30.1067ZM20.3538 99.6957H129.64L141.491 128.886H91.5457L88.9457 122.483C88.7318 121.955 88.2171 121.607 87.6422 121.607H62.3498C61.7749 121.607 61.2602 121.955 61.0463 122.483L58.4462 128.886H8.50124L20.3538 99.6957ZM88.5054 128.886H61.4812L63.2926 124.421H86.6874L88.5054 128.886ZM142.179 137.469C142.179 139.247 140.735 140.69 138.957 140.69H11.042C9.26397 140.69 7.82027 139.247 7.82027 137.469V131.7H142.18L142.179 137.469Z" fill="#663366"/>
<path d="M36.0684 51.6436C36.0684 52.4189 36.6967 53.0539 37.4788 53.0539C38.2541 53.0539 38.8891 52.4256 38.8891 51.6436C38.8891 48.3885 41.5361 45.7415 44.7912 45.7415C48.0598 45.7415 50.7133 48.3885 50.7133 51.6436C50.7133 52.4189 51.3416 53.0539 52.1237 53.0539C52.8991 53.0539 53.5341 52.4256 53.5341 51.6436C53.5341 48.3951 51.7426 45.561 49.089 44.0637C50.3924 42.8873 51.2213 41.2028 51.2213 39.3113C51.2213 35.7754 48.3337 32.8945 44.7911 32.8945C41.2552 32.8945 38.3743 35.7754 38.3743 39.3113C38.3743 41.1963 39.2031 42.8806 40.4999 44.0637C37.8596 45.5543 36.0684 48.395 36.0684 51.6436ZM44.7913 35.7085C46.7833 35.7085 48.4075 37.3261 48.4075 39.3047C48.4075 41.2966 46.7832 42.9208 44.7913 42.9208C42.806 42.9208 41.1885 41.2966 41.1885 39.3047C41.1952 37.3262 42.8061 35.7085 44.7913 35.7085Z" fill="#663366"/>
<path d="M49.0882 80.0989C50.3916 78.9225 51.2271 77.238 51.2271 75.3465C51.2271 71.8106 48.3396 68.9297 44.797 68.9297C41.2611 68.9297 38.3802 71.8106 38.3802 75.3465C38.3802 77.2315 39.209 78.9158 40.5058 80.0989C37.8588 81.5961 36.0742 84.437 36.0742 87.6854C36.0742 88.4608 36.7025 89.0958 37.4846 89.0958C38.2599 89.0958 38.8949 88.4675 38.8949 87.6854C38.8949 84.4303 41.5419 81.7833 44.797 81.7833C48.0657 81.7833 50.7192 84.4303 50.7192 87.6854C50.7192 88.4608 51.3475 89.0958 52.1295 89.0958C52.9049 89.0958 53.5399 88.4675 53.5399 87.6854C53.5332 84.4303 51.7352 81.5961 49.0882 80.0989ZM44.7903 71.7503C46.7822 71.7503 48.4065 73.3679 48.4065 75.3465C48.4065 77.3384 46.7822 78.9627 44.7903 78.9627C42.805 78.9627 41.1875 77.3384 41.1875 75.3465C41.1942 73.3612 42.805 71.7503 44.7903 71.7503Z" fill="#663366"/>
<path d="M66.2676 51.6436C66.2676 52.4189 66.8959 53.0539 67.678 53.0539C68.4533 53.0539 69.0883 52.4256 69.0883 51.6436C69.0883 48.3885 71.7353 45.7415 74.9904 45.7415C78.2591 45.7415 80.9125 48.3885 80.9125 51.6436C80.9125 52.4189 81.5409 53.0539 82.3229 53.0539C83.0983 53.0539 83.7333 52.4256 83.7333 51.6436C83.7333 48.3951 81.9419 45.561 79.2882 44.0637C80.5916 42.8873 81.4205 41.2028 81.4205 39.3113C81.4205 35.7754 78.5329 32.8945 74.9903 32.8945C71.4544 32.8945 68.5735 35.7754 68.5735 39.3113C68.5735 41.1963 69.4024 42.8806 70.6991 44.0637C68.0588 45.5543 66.2676 48.395 66.2676 51.6436ZM74.9905 35.7085C76.9825 35.7085 78.6067 37.3261 78.6067 39.3047C78.6067 41.2966 76.9824 42.9208 74.9905 42.9208C73.0053 42.9208 71.3944 41.2966 71.3944 39.3047C71.3877 37.3262 73.0053 35.7085 74.9905 35.7085Z" fill="#663366"/>
<path d="M79.2874 80.0989C80.5908 78.9225 81.4263 77.238 81.4263 75.3465C81.4263 71.8106 78.5388 68.9297 74.9962 68.9297C71.4603 68.9297 68.5794 71.8106 68.5794 75.3465C68.5794 77.2315 69.4082 78.9158 70.705 80.0989C68.058 81.5961 66.2734 84.437 66.2734 87.6854C66.2734 88.4608 66.9018 89.0958 67.6838 89.0958C68.4592 89.0958 69.0942 88.4675 69.0942 87.6854C69.0942 84.4303 71.7411 81.7833 74.9963 81.7833C78.2649 81.7833 80.9184 84.4303 80.9184 87.6854C80.9184 88.4608 81.5467 89.0958 82.3287 89.0958C83.1041 89.0958 83.7391 88.4675 83.7391 87.6854C83.7257 84.4303 81.9344 81.5961 79.2874 80.0989ZM74.9895 71.7503C76.9815 71.7503 78.6057 73.3679 78.6057 75.3465C78.6057 77.3384 76.9814 78.9627 74.9895 78.9627C73.0042 78.9627 71.3934 77.3384 71.3934 75.3465C71.3867 73.3612 73.0043 71.7503 74.9895 71.7503Z" fill="#663366"/>
<path d="M96.4668 51.6436C96.4668 52.4189 97.0951 53.0539 97.8772 53.0539C98.6525 53.0539 99.2876 52.4256 99.2876 51.6436C99.2876 48.3885 101.935 45.7415 105.19 45.7415C108.458 45.7415 111.112 48.3885 111.112 51.6436C111.112 52.4189 111.74 53.0539 112.522 53.0539C113.297 53.0539 113.932 52.4256 113.932 51.6436C113.932 48.3951 112.141 45.561 109.487 44.0637C110.791 42.8873 111.62 41.2028 111.62 39.3113C111.62 35.7754 108.732 32.8945 105.19 32.8945C101.654 32.8945 98.7727 35.7754 98.7727 39.3113C98.7727 41.1963 99.6016 42.8806 100.898 44.0637C98.2513 45.5543 96.4668 48.395 96.4668 51.6436ZM105.19 35.7085C107.182 35.7085 108.806 37.3261 108.806 39.3047C108.806 41.2966 107.182 42.9208 105.19 42.9208C103.204 42.9208 101.587 41.2966 101.587 39.3047C101.587 37.3262 103.204 35.7085 105.19 35.7085Z" fill="#663366"/>
<path d="M109.48 80.0989C110.783 78.9225 111.612 77.238 111.612 75.3465C111.612 71.8106 108.724 68.9297 105.182 68.9297C101.646 68.9297 98.7649 71.8106 98.7649 75.3465C98.7649 77.2315 99.5938 78.9158 100.891 80.0989C98.2435 81.5961 96.459 84.437 96.459 87.6854C96.459 88.4608 97.0873 89.0958 97.8693 89.0958C98.6447 89.0958 99.2797 88.4675 99.2797 87.6854C99.2797 84.4303 101.927 81.7833 105.182 81.7833C108.45 81.7833 111.104 84.4303 111.104 87.6854C111.104 88.4608 111.732 89.0958 112.514 89.0958C113.29 89.0958 113.925 88.4675 113.925 87.6854C113.925 84.4303 112.127 81.5961 109.48 80.0989ZM105.188 71.7503C107.18 71.7503 108.805 73.3679 108.805 75.3465C108.805 77.3384 107.18 78.9627 105.188 78.9627C103.203 78.9627 101.586 77.3384 101.586 75.3465C101.586 73.3612 103.203 71.7503 105.188 71.7503Z" fill="#663366"/>
<path d="M119.414 59.5839H92.7231V40.9221C92.7231 40.1467 92.0948 39.5117 91.3128 39.5117C90.5374 39.5117 89.9024 40.14 89.9024 40.9221V59.5839H61.0405V40.9221C61.0405 40.1467 60.4122 39.5117 59.6301 39.5117C58.8548 39.5117 58.2198 40.14 58.2198 40.9221V59.5839H30.5608C29.7854 59.5839 29.1504 60.2122 29.1504 60.9942C29.1504 61.7696 29.7787 62.4046 30.5608 62.4046H58.2198V77.1299C58.2198 77.9052 58.8481 78.5402 59.6301 78.5402C60.4055 78.5402 61.0405 77.9119 61.0405 77.1299V62.4046H89.9024V77.1299C89.9024 77.9052 90.5307 78.5402 91.3128 78.5402C92.0881 78.5402 92.7231 77.9119 92.7231 77.1299V62.4046H119.414C120.189 62.4046 120.824 61.7763 120.824 60.9942C120.824 60.2122 120.196 59.5839 119.414 59.5839Z" fill="#663366"/>
<path d="M125.857 107.297C125.857 106.522 125.228 105.887 124.446 105.887L25.5471 105.893C24.7717 105.893 24.1367 106.522 24.1367 107.304C24.1367 108.079 24.765 108.714 25.5471 108.714H124.446C125.228 108.707 125.857 108.079 125.857 107.297Z" fill="#663366"/>
<path d="M104.127 115.7C104.902 115.7 105.537 115.071 105.537 114.289C105.537 113.514 104.909 112.879 104.127 112.879L45.8674 112.886C45.092 112.886 44.457 113.514 44.457 114.296C44.457 115.071 45.0854 115.706 45.8674 115.706L104.127 115.7Z" fill="#663366"/>
<path d="M72.0022 19.5551H74.355C75.1303 19.5551 75.7653 18.9268 75.7653 18.1447C75.7653 17.3694 75.137 16.7344 74.355 16.7344H72.0022C71.2268 16.7344 70.5918 17.3627 70.5918 18.1447C70.5985 18.9268 71.2268 19.5551 72.0022 19.5551Z" fill="#663366"/>
</svg>
