<svg width="150" height="150" viewBox="0 0 150 150" fill="none" xmlns="http://www.w3.org/2000/svg">
<path d="M139.809 134.505H135.652V54.2389C135.652 53.2831 134.88 52.5108 133.924 52.5108H100.945V45.4739L105.724 46.5147C105.841 46.5474 105.959 46.5474 106.09 46.5474C106.476 46.5474 106.863 46.4165 107.164 46.1612C107.563 45.8273 107.799 45.3429 107.799 44.8193V37.9001C107.799 37.0819 107.229 36.3945 106.424 36.2047L76.7443 29.9532V23.5513C77.5495 24.088 78.4397 24.5397 79.3562 24.5397H79.3889C81.7848 24.5397 83.4606 23.368 84.9334 22.3141C86.3081 21.3453 87.2311 20.7692 88.3701 20.8085C89.3258 20.8412 90.3339 21.3453 91.355 22.2814C91.859 22.7527 92.5791 22.8705 93.2141 22.6021C93.836 22.3337 94.2353 21.7119 94.2353 21.0245V9.68035C94.2353 9.19594 94.0324 8.74427 93.6854 8.40387C92.0424 6.89828 90.3012 6.09314 88.5076 6.00801C86.1117 5.89018 84.4163 7.09465 82.9435 8.15502C81.739 9.01255 80.6785 9.7457 79.389 9.7457H79.3694C78.3286 9.7457 77.2224 9.2613 76.1029 8.33831C75.5858 7.91937 74.8788 7.82119 74.2767 8.10267C73.6744 8.3907 73.2882 8.99292 73.2882 9.66062V29.9342L43.5951 36.1857C42.7899 36.3559 42.2204 37.0563 42.2204 37.8811V44.8002C42.2204 45.3173 42.4561 45.8083 42.8554 46.1421C43.2547 46.476 43.7915 46.5938 44.2955 46.476L49.0873 45.4352V52.4721L16.1347 52.4787C15.179 52.4787 14.4067 53.2511 14.4067 54.2067V134.473H10.1976C7.33051 134.473 5 136.804 5 139.671C5 142.538 7.33034 144.868 10.1976 144.868H139.802C142.67 144.868 145 142.538 145 139.671C145 136.836 142.67 134.505 139.809 134.505ZM100.946 134.505V63.1473H132.216V134.499L100.946 134.505ZM75.0369 127.783C75.9926 127.783 76.765 127.01 76.765 126.055V106.488H85.661V134.492H76.7454V131.959C76.7454 131.003 75.9729 130.231 75.0173 130.231C74.0616 130.231 73.2892 131.003 73.2892 131.959V134.492H64.4259L64.4324 106.488H73.3285V126.061C73.3088 127.017 74.0813 127.783 75.0369 127.783ZM132.216 55.9604V59.7113L100.946 59.7178V55.9669L132.216 55.9604ZM76.7445 12.7236C77.6152 13.0574 78.4858 13.2276 79.3564 13.2276C81.6998 13.2473 83.4477 12.0559 84.9336 11.002C86.3082 10.0332 87.2312 9.45716 88.3703 9.49644C89.1558 9.52917 89.9609 9.86302 90.7988 10.5045V17.895C90.046 17.5939 89.2932 17.4237 88.5207 17.391C86.1249 17.2928 84.4295 18.4777 82.9567 19.538C81.7522 20.3955 80.6917 21.1287 79.4348 21.1287H79.4152C79.0814 21.0632 78.178 20.4086 77.7591 20.0879C77.4252 19.8391 77.0914 19.5838 76.7379 19.3809L76.7445 12.7236ZM45.6974 39.3065L75.0235 33.1205L104.35 39.3065V42.6907L75.3905 36.4196C75.2727 36.3869 75.1549 36.3869 75.0239 36.3869C74.9061 36.3869 74.7752 36.4065 74.6574 36.4196L45.6982 42.7038L45.6974 39.3065ZM75.0235 39.876L97.4957 44.7528V134.506H89.0776V104.761C89.0776 103.805 88.3052 103.033 87.3495 103.033H62.7039C61.7481 103.033 60.9758 103.805 60.9758 104.761V134.486H52.5642V44.7327L75.0235 39.876ZM49.1277 55.9596V59.7105L17.8442 59.7171V55.9662L49.1277 55.9596ZM17.8442 63.1472H49.1344V134.499L17.8442 134.505V63.1472ZM139.809 141.445H10.1976C9.22884 141.445 8.43673 140.659 8.43673 139.684C8.43673 138.715 9.22226 137.923 10.1976 137.923H139.796C140.765 137.923 141.557 138.708 141.557 139.684C141.563 140.653 140.778 141.445 139.809 141.445Z" fill="#663366"/>
<path d="M58.2984 79.4193H70.1991C71.1548 79.4193 71.9272 78.6469 71.9272 77.6913V65.7906C71.9272 64.8349 71.1547 64.0625 70.1991 64.0625H58.2984C57.3427 64.0625 56.5703 64.8349 56.5703 65.7906V77.6913C56.5703 78.647 57.3427 79.4193 58.2984 79.4193ZM60.0199 67.5252H68.4643V75.9696H60.0199V67.5252Z" fill="#663366"/>
<path d="M79.8806 79.4193H91.7616C92.7173 79.4193 93.4897 78.6469 93.4897 77.6913V65.7906C93.4897 64.8349 92.7172 64.0625 91.7616 64.0625H79.8609C78.9052 64.0625 78.1328 64.8349 78.1328 65.7906V77.6913C78.1524 78.647 78.9249 79.4193 79.8806 79.4193ZM81.5891 67.5252H90.0335V75.9696H81.5891V67.5252Z" fill="#663366"/>
<path d="M58.2984 60.7514H70.1991C71.1548 60.7514 71.9272 59.9789 71.9272 59.0233V47.1226C71.9272 46.1669 71.1547 45.3945 70.1991 45.3945H58.2984C57.3427 45.3945 56.5703 46.167 56.5703 47.1226V59.0233C56.5703 59.9856 57.3427 60.7514 58.2984 60.7514ZM60.0199 48.8572H68.4643V57.3016H60.0199V48.8572Z" fill="#663366"/>
<path d="M79.8806 60.7514H91.7616C92.7173 60.7514 93.4897 59.9789 93.4897 59.0233V47.1226C93.4897 46.1669 92.7172 45.3945 91.7616 45.3945H79.8609C78.9052 45.3945 78.1328 46.167 78.1328 47.1226V59.0233C78.1524 59.9856 78.9249 60.7514 79.8806 60.7514ZM81.5891 48.8572H90.0335V57.3016H81.5891V48.8572Z" fill="#663366"/>
<path d="M58.2984 98.0873H70.1991C71.1548 98.0873 71.9272 97.3149 71.9272 96.3593V84.4585C71.9272 83.5028 71.1547 82.7305 70.1991 82.7305H58.2984C57.3427 82.7305 56.5703 83.5029 56.5703 84.4585V96.3593C56.5703 97.315 57.3427 98.0873 58.2984 98.0873ZM60.0199 86.2064H68.4643V94.6508H60.0199V86.2064Z" fill="#663366"/>
<path d="M79.8806 98.0873H91.7616C92.7173 98.0873 93.4897 97.3149 93.4897 96.3593V84.4585C93.4897 83.5028 92.7172 82.7305 91.7616 82.7305H79.8609C78.9052 82.7305 78.1328 83.5029 78.1328 84.4585V96.3593C78.1524 97.315 78.9249 98.0873 79.8806 98.0873ZM81.5891 86.2064H90.0335V94.6508H81.5891V86.2064Z" fill="#663366"/>
<path d="M71.2325 118.77H69.9429C68.9872 118.77 68.2148 119.542 68.2148 120.498C68.2148 121.453 68.9873 122.226 69.9429 122.226H71.2325C72.1882 122.226 72.9605 121.453 72.9605 120.498C72.9409 119.542 72.1685 118.77 71.2325 118.77Z" fill="#663366"/>
<path d="M78.9234 122.218H80.2129C81.1687 122.218 81.941 121.445 81.941 120.49C81.941 119.534 81.1686 118.762 80.2129 118.762H78.9234C77.9677 118.762 77.1953 119.534 77.1953 120.49C77.2149 121.452 77.9874 122.218 78.9234 122.218Z" fill="#663366"/>
<path d="M29.4693 89.4609H22.3472C21.3915 89.4609 20.6191 90.2334 20.6191 91.189V106.304C20.6191 107.259 21.3916 108.032 22.3472 108.032H29.4693C30.425 108.032 31.1973 107.259 31.1973 106.304V91.189C31.1973 90.2267 30.4249 89.4609 29.4693 89.4609ZM27.7608 104.589H24.0754V92.9105H27.7608V104.589Z" fill="#663366"/>
<path d="M44.6236 89.4609H37.5015C36.5458 89.4609 35.7734 90.2334 35.7734 91.189V106.304C35.7734 107.259 36.5459 108.032 37.5015 108.032H44.6236C45.5793 108.032 46.3516 107.259 46.3516 106.304V91.189C46.3451 90.2267 45.5792 89.4609 44.6236 89.4609ZM42.8955 104.589H39.2101V92.9105H42.8955V104.589Z" fill="#663366"/>
<path d="M29.5415 65.207H22.4195C21.4638 65.207 20.6914 65.9795 20.6914 66.9351V82.0498C20.6914 83.0055 21.4638 83.7779 22.4195 83.7779H29.5415C30.4972 83.7779 31.2696 83.0054 31.2696 82.0498V66.9351C31.2631 65.9794 30.4972 65.207 29.5415 65.207ZM27.8331 80.3217H24.1477V68.6435H27.8331V80.3217Z" fill="#663366"/>
<path d="M44.688 65.207H37.566C36.6102 65.207 35.8379 65.9795 35.8379 66.9351V82.0498C35.8379 83.0055 36.6103 83.7779 37.566 83.7779H44.688C45.6437 83.7779 46.4161 83.0054 46.4161 82.0498V66.9351C46.4161 65.9794 45.6436 65.207 44.688 65.207ZM42.96 80.3217H39.2746V68.6435H42.96V80.3217Z" fill="#663366"/>
<path d="M29.4029 113.723H22.2808C21.3251 113.723 20.5527 114.495 20.5527 115.451V130.565C20.5527 131.521 21.3252 132.293 22.2808 132.293H29.4029C30.3586 132.293 31.1309 131.521 31.1309 130.565V115.451C31.1309 114.495 30.3585 113.723 29.4029 113.723ZM27.6813 128.857H23.996V117.179H27.6813V128.857Z" fill="#663366"/>
<path d="M44.5513 113.723H37.4292C36.4735 113.723 35.7012 114.495 35.7012 115.451V130.565C35.7012 131.521 36.4736 132.293 37.4292 132.293H44.5513C45.507 132.293 46.2794 131.521 46.2794 130.565V115.451C46.2794 114.495 45.5069 113.723 44.5513 113.723ZM42.8298 128.857H39.1444V117.179H42.8298V128.857Z" fill="#663366"/>
<path d="M120.584 108.024H127.706C128.661 108.024 129.434 107.252 129.434 106.296V91.1812C129.434 90.2255 128.661 89.4531 127.706 89.4531L120.584 89.4597C119.628 89.4597 118.855 90.2321 118.855 91.1877V106.302C118.862 107.252 119.628 108.024 120.584 108.024ZM122.312 92.9093H125.997V104.587H122.312V92.9093Z" fill="#663366"/>
<path d="M105.435 108.024H112.557C113.513 108.024 114.285 107.252 114.285 106.296V91.1812C114.285 90.2255 113.513 89.4531 112.557 89.4531H105.435C104.479 89.4531 103.707 90.2256 103.707 91.1812V106.296C103.727 107.252 104.499 108.024 105.435 108.024ZM107.163 92.9093H110.849V104.587H107.163V92.9093Z" fill="#663366"/>
<path d="M120.517 83.7779H127.639C128.595 83.7779 129.367 83.0054 129.367 82.0498V66.9351C129.367 65.9794 128.595 65.207 127.639 65.207H120.517C119.561 65.207 118.789 65.9795 118.789 66.9351V82.0498C118.789 83.0055 119.562 83.7779 120.517 83.7779ZM122.245 68.6435H125.931V80.3217H122.245V68.6435Z" fill="#663366"/>
<path d="M105.371 83.7779H112.493C113.448 83.7779 114.221 83.0054 114.221 82.0498V66.9351C114.221 65.9794 113.448 65.207 112.493 65.207H105.371C104.415 65.207 103.643 65.9795 103.643 66.9351V82.0498C103.662 83.0055 104.428 83.7779 105.371 83.7779ZM107.092 68.6435H110.778V80.3217H107.092V68.6435Z" fill="#663366"/>
<path d="M127.77 113.723H120.648C119.692 113.723 118.92 114.495 118.92 115.451V130.565C118.92 131.521 119.692 132.293 120.648 132.293H127.77C128.726 132.293 129.498 131.521 129.498 130.565V115.451C129.498 114.495 128.726 113.723 127.77 113.723ZM126.062 128.857H122.376V117.179H126.062V128.857Z" fill="#663366"/>
<path d="M112.643 113.723H105.521C104.565 113.723 103.793 114.495 103.793 115.451V130.565C103.793 131.521 104.565 132.293 105.521 132.293H112.643C113.599 132.293 114.371 131.521 114.371 130.565V115.451C114.352 114.495 113.579 113.723 112.643 113.723ZM110.915 128.857H107.23V117.179H110.915V128.857Z" fill="#663366"/>
</svg>
