<svg width="800" height="800" viewBox="0 0 800 800" fill="none" xmlns="http://www.w3.org/2000/svg">
<rect x="253" y="245" width="322" height="325" fill="white"/>
<path d="M633.85 116.951H166.15C74.3877 116.951 0 191.339 0 283.101V516.902C0 608.664 74.3877 683.051 166.15 683.051H633.85C725.612 683.051 800 608.664 800 516.902V283.101C800 191.339 725.612 116.951 633.85 116.951ZM521.484 411.377L302.726 515.711C296.897 518.491 290.163 514.241 290.163 507.784V292.593C290.163 286.044 297.074 281.799 302.915 284.76L521.673 395.616C528.178 398.911 528.065 408.239 521.484 411.377Z" fill="#F61C0D"/>
</svg>
