<svg width="500" height="500" viewBox="0 0 500 500" fill="none" xmlns="http://www.w3.org/2000/svg">
<path d="M100.512 119.686C91.0098 119.686 83.6584 126.596 83.6582 134.682V404.458C83.6582 412.545 91.0109 419.454 100.513 419.454H399.726C409.228 419.454 416.58 412.544 416.58 404.458V134.902C416.58 126.816 409.227 119.906 399.726 119.906H399.725L100.512 119.686ZM451.995 404.464C451.969 430.805 428.428 451.838 399.737 451.998H100.513C71.8421 451.998 48.2432 431.008 48.2432 404.704V134.905C48.2434 108.58 71.8416 87.5898 100.513 87.5898H399.737L400.406 87.5977C428.694 88.0764 451.816 108.851 451.995 134.892V404.464Z" fill="#57579F" stroke="#57579F" stroke-width="4"/>
<path d="M166.675 48C176.274 48 184.395 55.0643 184.395 64.1709V155.23L184.392 155.641C184.301 159.875 182.381 163.84 179.161 166.767L179.155 166.771L179.148 166.777C175.798 169.772 171.325 171.414 166.675 171.414C157.1 171.414 148.979 164.372 148.979 155.243V64.1709C148.979 55.0662 157.098 48 166.675 48Z" fill="#57579F" stroke="#57579F" stroke-width="4"/>
<path d="M333.249 48C342.848 48 350.969 55.0643 350.969 64.1709V155.243C350.969 159.597 349.037 163.746 345.704 166.75C342.379 169.747 337.879 171.414 333.249 171.414C323.675 171.414 315.554 164.372 315.554 155.243V64.1709C315.554 55.0662 323.673 48 333.249 48Z" fill="#57579F" stroke="#57579F" stroke-width="4"/>
<path d="M434.306 198.16C443.88 198.16 452.001 205.202 452.001 214.331C452.001 223.44 443.878 230.479 434.306 230.479H65.6953C56.1231 230.479 48 223.44 48 214.331C48 205.202 56.121 198.16 65.6953 198.16H434.306Z" fill="#57579F" stroke="#57579F" stroke-width="4"/>
</svg>
