<svg width="500" height="500" viewBox="0 0 500 500" fill="none" xmlns="http://www.w3.org/2000/svg">
<path d="M442.919 74.5L443.974 74.5146C466.051 75.1286 483.5 94.9632 483.5 118.609V382.21C483.5 406.211 465.512 426.499 442.919 426.499H114.091V426.498C112.211 426.519 110.354 426.134 108.63 425.372C106.89 424.603 105.329 423.471 104.029 422.062C102.73 420.652 101.714 418.991 101.026 417.182C100.339 415.373 99.9873 413.442 99.9873 411.499C99.9873 409.556 100.338 407.624 101.026 405.815C101.714 404.007 102.73 402.346 104.029 400.937C105.329 399.527 106.89 398.395 108.63 397.626C110.262 396.904 112.013 396.52 113.79 396.499H441.628L308.05 270.99L259.483 318.936L259.482 318.935C256.938 321.466 253.564 322.927 250 322.927C246.435 322.927 243.061 321.467 240.517 318.935V318.936L191.949 270.99L58.3721 396.499H72.084C73.8608 396.52 75.6118 396.904 77.2441 397.626C78.9841 398.395 80.5448 399.527 81.8447 400.937C83.1439 402.346 84.1597 404.007 84.8477 405.815C85.5356 407.624 85.8857 409.556 85.8857 411.499C85.8857 413.442 85.5355 415.373 84.8477 417.182C84.1597 418.991 83.144 420.652 81.8447 422.062C80.5448 423.471 78.9841 424.603 77.2441 425.372C75.5194 426.134 73.6622 426.519 71.7822 426.498V426.499H57.0811C34.4881 426.499 16.5 406.211 16.5 382.21V118.609C16.5 94.588 34.5071 74.5 57.0811 74.5H442.919ZM44.4092 369.792L171.122 250.439L44.4092 125.382V369.792ZM328.877 250.439L455.591 369.792V125.382L328.877 250.439ZM250 287.451L435.547 104.5H64.4531L250 287.451Z" fill="#57579F" stroke="#57579F" stroke-width="7"/>
</svg>
