<svg width="150" height="150" viewBox="0 0 150 150" fill="none" xmlns="http://www.w3.org/2000/svg">
<mask id="mask0_694_3914" style="mask-type:luminance" maskUnits="userSpaceOnUse" x="4" y="5" width="141" height="140">
<path d="M4.99512 5H144.995V145H4.99512V5Z" fill="white"/>
</mask>
<g mask="url(#mask0_694_3914)">
<path d="M108.417 142.996H100.484" stroke="#663366" stroke-width="4.10156" stroke-miterlimit="10" stroke-linecap="round" stroke-linejoin="round"/>
<path d="M134.705 107.08V138.903C134.705 141.164 132.873 142.996 130.612 142.996H116.604" stroke="#663366" stroke-width="4.10156" stroke-miterlimit="10" stroke-linecap="round" stroke-linejoin="round"/>
<path d="M97.4835 85.9701L102.664 81.3933C103.829 80.3725 105.57 80.3725 106.736 81.3933L135.274 106.585C137.282 108.344 140.358 108.041 141.986 105.926C143.472 103.993 143.203 101.239 141.371 99.6308L110.905 72.6799C107.355 69.5647 102.045 69.5647 98.495 72.6799L90.2637 79.9679" stroke="#663366" stroke-width="4.10156" stroke-miterlimit="10" stroke-linecap="round" stroke-linejoin="round"/>
<path d="M104.578 107.08V138.903C104.578 141.164 102.745 142.996 100.485 142.996H71.043" stroke="#663366" stroke-width="4.10156" stroke-miterlimit="10" stroke-linecap="round" stroke-linejoin="round"/>
<path d="M67.1011 86.3127L72.6686 81.3933C73.8342 80.3725 75.5755 80.3725 76.7411 81.3933L105.279 106.585C107.287 108.344 110.363 108.041 111.991 105.926C113.477 103.993 113.208 101.239 111.376 99.631L80.9097 72.6799C77.3599 69.5647 72.0503 69.5647 68.5 72.6799L60.5293 79.7374" stroke="#663366" stroke-width="4.10156" stroke-miterlimit="10" stroke-linecap="round" stroke-linejoin="round"/>
<path d="M75.1356 107.08V138.903C75.1356 141.164 73.303 142.996 71.0425 142.996H19.4837C17.2232 142.996 15.3906 141.164 15.3906 138.903V107.08" stroke="#663366" stroke-width="4.10156" stroke-miterlimit="10" stroke-linecap="round" stroke-linejoin="round"/>
<path d="M17.6089 91.6712L8.6191 99.6309C6.7868 101.239 6.51746 103.993 8.00387 105.925C9.63137 108.042 12.7073 108.343 14.7154 106.585L43.227 81.3935C44.3927 80.3725 46.1342 80.3725 47.2996 81.3935L75.8377 106.585C77.8455 108.343 80.9217 108.042 82.5492 105.925C84.0356 103.993 83.7666 101.239 81.934 99.6309L51.4684 72.6798C47.9181 69.5646 42.6085 69.5646 39.0584 72.6798L23.0183 86.8819" stroke="#663366" stroke-width="4.10156" stroke-miterlimit="10" stroke-linecap="round" stroke-linejoin="round"/>
<path d="M55.4121 128.004H74.9602" stroke="#663366" stroke-width="4.10156" stroke-miterlimit="10" stroke-linecap="round" stroke-linejoin="round"/>
<path d="M15.5664 128.004H36.311" stroke="#663366" stroke-width="4.10156" stroke-miterlimit="10" stroke-linecap="round" stroke-linejoin="round"/>
<path d="M53.355 101.49C53.355 105.959 49.7322 109.582 45.2634 109.582C40.7946 109.582 37.1719 105.959 37.1719 101.49C37.1719 97.0217 40.7946 93.3989 45.2634 93.3989C49.7322 93.3989 53.355 97.0217 53.355 101.49Z" stroke="#663366" stroke-width="4.10156" stroke-miterlimit="10" stroke-linecap="round" stroke-linejoin="round"/>
<path d="M53.124 142.996H37.4062V127.322C37.4062 123.681 40.3577 120.729 43.9991 120.729H46.5311C50.1722 120.729 53.124 123.681 53.124 127.322V142.996Z" stroke="#663366" stroke-width="4.10156" stroke-miterlimit="10" stroke-linecap="round" stroke-linejoin="round"/>
<path d="M39.7838 72.1055C39.5271 71.476 39.4204 70.7766 39.5011 70.0577L40.5396 60.8314C40.6747 59.6313 40.2848 58.4314 39.4705 57.5397L33.2071 50.6849C31.7461 49.0859 31.7461 46.637 33.2068 45.0382L39.4705 38.1828C40.285 37.2914 40.6747 36.0916 40.5399 34.8914L39.5014 25.6648C39.2591 23.5118 40.7004 21.5296 42.8231 21.096L51.9195 19.2377C53.1054 18.9957 54.1281 18.252 54.7244 17.1989L59.2958 9.12488C60.3649 7.23707 62.699 6.47883 64.6729 7.37817L73.1189 11.2252C74.2211 11.7272 75.4866 11.7272 76.5891 11.2252L85.035 7.37817C87.0092 6.47883 89.3433 7.23707 90.4121 9.12488L94.984 17.1992C95.5804 18.2522 96.603 18.9957 97.7887 19.238L106.885 21.0962C109.008 21.5299 110.449 23.5121 110.207 25.6654L109.168 34.8917C109.033 36.0916 109.423 37.2917 110.237 38.1831L116.501 45.0382C117.962 46.637 117.962 49.0859 116.501 50.6849L110.237 57.54C109.423 58.4317 109.033 59.6315 109.168 60.8316L110.207 70.058C110.281 70.7232 110.196 71.3721 109.979 71.9638" stroke="#663366" stroke-width="4.10156" stroke-miterlimit="10" stroke-linecap="round" stroke-linejoin="round"/>
<path d="M80.5528 30.7725C80.5528 30.7725 77.3098 27.7814 72.3111 29.2872C67.7212 30.6699 66.5813 36.95 69.7006 39.3964C71.4914 40.8011 74.1864 41.9558 77.8179 43.2396C85.9466 46.1129 82.9416 57.5762 74.6734 57.6314C71.4465 57.6528 69.9382 57.448 67.1035 55.5938" stroke="#663366" stroke-width="4.10156" stroke-miterlimit="10" stroke-linecap="round" stroke-linejoin="round"/>
<path d="M74.6719 24.994V62.5977" stroke="#663366" stroke-width="4.10156" stroke-miterlimit="10" stroke-linecap="round" stroke-linejoin="round"/>
</g>
</svg>
