<svg width="150" height="150" viewBox="0 0 150 150" fill="none" xmlns="http://www.w3.org/2000/svg">
<path d="M108.213 114.496L112.295 82.9688" stroke="#663366" stroke-width="4.22536" stroke-miterlimit="10" stroke-linecap="round" stroke-linejoin="round"/>
<path d="M113.562 73.1921L119.79 25.0926C119.885 24.3642 119.403 23.6853 118.685 23.5337L100.998 19.8008" stroke="#663366" stroke-width="4.22536" stroke-miterlimit="10" stroke-linecap="round" stroke-linejoin="round"/>
<path d="M49.0034 19.8008L31.3169 23.5337C30.5981 23.6856 30.1166 24.3642 30.211 25.0926L32.6479 43.9121" stroke="#663366" stroke-width="4.22536" stroke-miterlimit="10" stroke-linecap="round" stroke-linejoin="round"/>
<path d="M33.9121 53.6914L38.3589 88.032" stroke="#663366" stroke-width="4.22536" stroke-miterlimit="10" stroke-linecap="round" stroke-linejoin="round"/>
<path d="M100.998 114.496V9.40845C100.998 8.6307 100.368 8 99.5898 8H90.7754" stroke="#663366" stroke-width="4.22536" stroke-miterlimit="10" stroke-linecap="round" stroke-linejoin="round"/>
<path d="M80.9149 8H50.4104C49.6327 8 49.002 8.6307 49.002 9.40845V89.4139" stroke="#663366" stroke-width="4.22536" stroke-miterlimit="10" stroke-linecap="round" stroke-linejoin="round"/>
<path d="M40.3281 131.258C49.5853 131.258 57.0898 123.753 57.0898 114.496C57.0898 105.239 49.5853 97.7344 40.3281 97.7344C31.0709 97.7344 23.5664 105.239 23.5664 114.496C23.5664 123.753 31.0709 131.258 40.3281 131.258Z" stroke="#663366" stroke-width="4.22536" stroke-miterlimit="10" stroke-linecap="round" stroke-linejoin="round"/>
<path d="M60.2109 19.4062V21.0496" stroke="#663366" stroke-width="4.22536" stroke-miterlimit="10" stroke-linecap="square" stroke-linejoin="round"/>
<path d="M70.0703 19.4062V21.0496" stroke="#663366" stroke-width="4.22536" stroke-miterlimit="10" stroke-linecap="square" stroke-linejoin="round"/>
<path d="M79.9297 19.4062V21.0496" stroke="#663366" stroke-width="4.22536" stroke-miterlimit="10" stroke-linecap="square" stroke-linejoin="round"/>
<path d="M89.7891 19.4062V21.0496" stroke="#663366" stroke-width="4.22536" stroke-miterlimit="10" stroke-linecap="square" stroke-linejoin="round"/>
<path d="M60.2109 31.8945V33.5376" stroke="#663366" stroke-width="4.22536" stroke-miterlimit="10" stroke-linecap="square" stroke-linejoin="round"/>
<path d="M70.0703 31.8945V33.5376" stroke="#663366" stroke-width="4.22536" stroke-miterlimit="10" stroke-linecap="square" stroke-linejoin="round"/>
<path d="M79.9297 31.8945V33.5376" stroke="#663366" stroke-width="4.22536" stroke-miterlimit="10" stroke-linecap="square" stroke-linejoin="round"/>
<path d="M89.7891 31.8945V33.5376" stroke="#663366" stroke-width="4.22536" stroke-miterlimit="10" stroke-linecap="square" stroke-linejoin="round"/>
<path d="M60.2109 44.3828V46.0259" stroke="#663366" stroke-width="4.22536" stroke-miterlimit="10" stroke-linecap="square" stroke-linejoin="round"/>
<path d="M70.0703 44.3828V46.0259" stroke="#663366" stroke-width="4.22536" stroke-miterlimit="10" stroke-linecap="square" stroke-linejoin="round"/>
<path d="M79.9297 44.3828V46.0259" stroke="#663366" stroke-width="4.22536" stroke-miterlimit="10" stroke-linecap="square" stroke-linejoin="round"/>
<path d="M89.7891 44.3828V46.0259" stroke="#663366" stroke-width="4.22536" stroke-miterlimit="10" stroke-linecap="square" stroke-linejoin="round"/>
<path d="M60.2109 56.8711V58.5145" stroke="#663366" stroke-width="4.22536" stroke-miterlimit="10" stroke-linecap="square" stroke-linejoin="round"/>
<path d="M70.0703 56.8711V58.5145" stroke="#663366" stroke-width="4.22536" stroke-miterlimit="10" stroke-linecap="square" stroke-linejoin="round"/>
<path d="M79.9297 56.8711V58.5145" stroke="#663366" stroke-width="4.22536" stroke-miterlimit="10" stroke-linecap="square" stroke-linejoin="round"/>
<path d="M89.7891 56.8711V58.5145" stroke="#663366" stroke-width="4.22536" stroke-miterlimit="10" stroke-linecap="square" stroke-linejoin="round"/>
<path d="M60.2109 69.3594V71.0025" stroke="#663366" stroke-width="4.22536" stroke-miterlimit="10" stroke-linecap="square" stroke-linejoin="round"/>
<path d="M70.0703 69.3594V71.0025" stroke="#663366" stroke-width="4.22536" stroke-miterlimit="10" stroke-linecap="square" stroke-linejoin="round"/>
<path d="M79.9297 69.3594V71.0025" stroke="#663366" stroke-width="4.22536" stroke-miterlimit="10" stroke-linecap="square" stroke-linejoin="round"/>
<path d="M89.7891 69.3594V71.0025" stroke="#663366" stroke-width="4.22536" stroke-miterlimit="10" stroke-linecap="square" stroke-linejoin="round"/>
<path d="M60.2109 81.8477V83.4908" stroke="#663366" stroke-width="4.22536" stroke-miterlimit="10" stroke-linecap="square" stroke-linejoin="round"/>
<path d="M70.0703 81.8477V83.4908" stroke="#663366" stroke-width="4.22536" stroke-miterlimit="10" stroke-linecap="square" stroke-linejoin="round"/>
<path d="M79.9297 81.8477V83.4908" stroke="#663366" stroke-width="4.22536" stroke-miterlimit="10" stroke-linecap="square" stroke-linejoin="round"/>
<path d="M89.7891 81.8477V83.4908" stroke="#663366" stroke-width="4.22536" stroke-miterlimit="10" stroke-linecap="square" stroke-linejoin="round"/>
<path d="M66.8691 114.496H136.211" stroke="#663366" stroke-width="4.22536" stroke-miterlimit="10" stroke-linecap="round" stroke-linejoin="round"/>
<path d="M129.861 71.1211L136.178 77.4374L129.861 83.7538" stroke="#663366" stroke-width="4.22536" stroke-miterlimit="10" stroke-linecap="round" stroke-linejoin="round"/>
<path d="M136.177 77.4375H121.439" stroke="#663366" stroke-width="4.22536" stroke-miterlimit="10" stroke-linecap="round" stroke-linejoin="round"/>
<path d="M134.273 44.5625L140.589 50.8788L134.273 57.1952" stroke="#663366" stroke-width="4.22536" stroke-miterlimit="10" stroke-linecap="round" stroke-linejoin="round"/>
<path d="M140.588 50.8789H125.85" stroke="#663366" stroke-width="4.22536" stroke-miterlimit="10" stroke-linecap="round" stroke-linejoin="round"/>
<path d="M138.684 18L145 24.3163L138.684 30.6327" stroke="#663366" stroke-width="4.22536" stroke-miterlimit="10" stroke-linecap="round" stroke-linejoin="round"/>
<path d="M145 24.3164H130.262" stroke="#663366" stroke-width="4.22536" stroke-miterlimit="10" stroke-linecap="round" stroke-linejoin="round"/>
<path d="M20.1386 71.1211L13.8223 77.4374L20.1386 83.7538" stroke="#663366" stroke-width="4.22536" stroke-miterlimit="10" stroke-linecap="round" stroke-linejoin="round"/>
<path d="M13.8223 77.4375H28.5603" stroke="#663366" stroke-width="4.22536" stroke-miterlimit="10" stroke-linecap="round" stroke-linejoin="round"/>
<path d="M15.7282 44.5625L9.41211 50.8788L15.7282 57.1952" stroke="#663366" stroke-width="4.22536" stroke-miterlimit="10" stroke-linecap="round" stroke-linejoin="round"/>
<path d="M9.41211 50.8789H24.1501" stroke="#663366" stroke-width="4.22536" stroke-miterlimit="10" stroke-linecap="round" stroke-linejoin="round"/>
<path d="M11.3163 18L5 24.3163L11.3163 30.6327" stroke="#663366" stroke-width="4.22536" stroke-miterlimit="10" stroke-linecap="round" stroke-linejoin="round"/>
<path d="M5 24.3164H19.738" stroke="#663366" stroke-width="4.22536" stroke-miterlimit="10" stroke-linecap="round" stroke-linejoin="round"/>
<path d="M40.3285 141.036C54.9859 141.036 66.868 129.154 66.868 114.496C66.868 99.8391 54.9859 87.957 40.3285 87.957C25.6712 87.957 13.7891 99.8391 13.7891 114.496C13.7891 129.154 25.6712 141.036 40.3285 141.036Z" stroke="#663366" stroke-width="4.22536" stroke-miterlimit="10" stroke-linecap="round" stroke-linejoin="round"/>
<path d="M40.3297 121.48C44.1868 121.48 47.3136 118.353 47.3136 114.496C47.3136 110.639 44.1868 107.512 40.3297 107.512C36.4725 107.512 33.3457 110.639 33.3457 114.496C33.3457 118.353 36.4725 121.48 40.3297 121.48Z" stroke="#663366" stroke-width="4.22536" stroke-miterlimit="10" stroke-linecap="round" stroke-linejoin="round"/>
</svg>
