<svg width="150" height="150" viewBox="0 0 150 150" fill="none" xmlns="http://www.w3.org/2000/svg">
<path d="M18.7353 145.001H7.33129C6.04256 145.001 4.99805 143.956 4.99805 142.668V138.001C4.99805 136.712 6.04284 135.668 7.33129 135.668H142.665C143.954 135.668 144.998 136.712 144.998 138.001V142.668C144.998 143.957 143.953 145.001 142.665 145.001H28.5944" stroke="#663366" stroke-width="4.22536" stroke-miterlimit="10" stroke-linecap="round" stroke-linejoin="round"/>
<path d="M130.999 56.332C132.288 56.332 133.333 57.3768 133.333 58.6653V63.332C133.333 64.6208 132.288 65.6653 130.999 65.6653H18.9993C17.7105 65.6653 16.666 64.6205 16.666 63.332V58.6653C16.666 57.3765 17.7105 56.332 18.9993 56.332H130.999Z" stroke="#663366" stroke-width="4.22536" stroke-miterlimit="10" stroke-linecap="round" stroke-linejoin="round"/>
<path d="M44.2697 47H119.331C120.62 47 121.664 48.0448 121.664 49.3332V56.3333H28.3311V49.3332C28.3311 48.0445 29.3758 47 30.6643 47H34.4102" stroke="#663366" stroke-width="4.22536" stroke-miterlimit="10" stroke-linecap="round" stroke-linejoin="round"/>
<path d="M56.883 37.668H93.1147C94.8823 37.668 96.4983 38.6666 97.2887 40.2477L100.666 47.0015H49.332L52.7089 40.2477C53.4994 38.6666 55.1154 37.668 56.883 37.668Z" stroke="#663366" stroke-width="4.22536" stroke-miterlimit="10" stroke-linecap="round" stroke-linejoin="round"/>
<path d="M74.9969 89H42.3301V135.667H74.9969V89Z" stroke="#663366" stroke-width="4.22536" stroke-miterlimit="10" stroke-linecap="round" stroke-linejoin="round"/>
<path d="M63.3306 126.332H53.9973C52.7086 126.332 51.6641 125.288 51.6641 123.999V99.4988C51.6641 98.8546 52.1863 98.332 52.8308 98.332H64.4976C65.1418 98.332 65.6644 98.8543 65.6644 99.4988V123.999C65.6641 125.288 64.6193 126.332 63.3306 126.332Z" stroke="#663366" stroke-width="4.22536" stroke-miterlimit="10" stroke-linecap="round" stroke-linejoin="round"/>
<path d="M42.3294 126.332H21.3293C20.0406 126.332 18.9961 127.377 18.9961 128.665V135.665" stroke="#663366" stroke-width="4.22536" stroke-miterlimit="10" stroke-linecap="round" stroke-linejoin="round"/>
<path d="M74.9971 126.332H128.664C129.953 126.332 130.997 127.377 130.997 128.665V135.665" stroke="#663366" stroke-width="4.22536" stroke-miterlimit="10" stroke-linecap="round" stroke-linejoin="round"/>
<path d="M69.4247 75H47.9044C43.3418 75 39.448 78.2986 38.6979 82.7989L38.1173 86.2831C37.8801 87.7054 38.977 89 40.419 89H76.9104C78.3523 89 79.449 87.7054 79.2121 86.2831L78.6315 82.7989C77.8811 78.2986 73.9873 75 69.4247 75Z" stroke="#663366" stroke-width="4.22536" stroke-miterlimit="10" stroke-linecap="round" stroke-linejoin="round"/>
<path d="M109.997 117.001H91.3303C90.0416 117.001 88.9971 115.956 88.9971 114.668V91.3348C88.9971 84.8914 94.2205 79.668 100.664 79.668C107.107 79.668 112.331 84.8914 112.331 91.3348V114.668C112.33 115.956 111.286 117.001 109.997 117.001Z" stroke="#663366" stroke-width="4.22536" stroke-miterlimit="10" stroke-linecap="round" stroke-linejoin="round"/>
<path d="M88.9971 91.332H112.33" stroke="#663366" stroke-width="4.22536" stroke-miterlimit="10" stroke-linecap="round" stroke-linejoin="round"/>
<path d="M21.332 77.3345V65.668" stroke="#663366" stroke-width="4.22536" stroke-miterlimit="10" stroke-linecap="round" stroke-linejoin="round"/>
<path d="M21.332 105.334V86.668" stroke="#663366" stroke-width="4.22536" stroke-miterlimit="10" stroke-linecap="round" stroke-linejoin="round"/>
<path d="M21.332 126.334V114.668" stroke="#663366" stroke-width="4.22536" stroke-miterlimit="10" stroke-linecap="round" stroke-linejoin="round"/>
<path d="M25.9971 105.332H21.3303C20.0416 105.332 18.9971 106.377 18.9971 107.665V112.332C18.9971 113.621 20.0419 114.665 21.3303 114.665H25.9971C27.2858 114.665 28.3303 113.62 28.3303 112.332V107.665C28.3303 106.377 27.2858 105.332 25.9971 105.332Z" stroke="#663366" stroke-width="4.22536" stroke-miterlimit="10" stroke-linecap="round" stroke-linejoin="round"/>
<path d="M21.3303 86.6653H25.9971C27.2858 86.6653 28.3303 85.6205 28.3303 84.332V79.6653C28.3303 78.3765 27.2858 77.332 25.9971 77.332H21.3303C20.0416 77.332 18.9971 78.3768 18.9971 79.6653V84.332C18.9971 85.6205 20.0419 86.6653 21.3303 86.6653Z" stroke="#663366" stroke-width="4.22536" stroke-miterlimit="10" stroke-linecap="round" stroke-linejoin="round"/>
<path d="M123.998 105.332H128.665C129.954 105.332 130.998 106.377 130.998 107.665V112.332C130.998 113.621 129.954 114.665 128.665 114.665H123.998C122.71 114.665 121.665 113.62 121.665 112.332V107.665C121.665 106.377 122.71 105.332 123.998 105.332Z" stroke="#663366" stroke-width="4.22536" stroke-miterlimit="10" stroke-linecap="round" stroke-linejoin="round"/>
<path d="M128.665 86.6653H123.998C122.71 86.6653 121.665 85.6205 121.665 84.332V79.6653C121.665 78.3765 122.71 77.332 123.998 77.332H128.665C129.954 77.332 130.998 78.3768 130.998 79.6653V84.332C130.998 85.6205 129.954 86.6653 128.665 86.6653Z" stroke="#663366" stroke-width="4.22536" stroke-miterlimit="10" stroke-linecap="round" stroke-linejoin="round"/>
<path d="M60.742 37.6668H89.2561L100.336 24.3705C101.743 22.6826 102.017 20.3217 101.034 18.3566L95.8849 8.05747C94.948 6.18366 93.033 5 90.9381 5H59.0603C56.9653 5 55.0504 6.18366 54.1135 8.05719L48.9639 18.3564C47.9811 20.3217 48.2552 22.6823 49.6619 24.3702L60.742 37.6668Z" stroke="#663366" stroke-width="4.22536" stroke-miterlimit="10" stroke-linecap="round" stroke-linejoin="round"/>
<path d="M48.4355 21.5938H101.562" stroke="#663366" stroke-width="4.22536" stroke-miterlimit="10" stroke-linecap="round" stroke-linejoin="round"/>
<path d="M80.5303 5L86.0607 21.5919" stroke="#663366" stroke-width="4.22536" stroke-miterlimit="10" stroke-linecap="round" stroke-linejoin="round"/>
<path d="M80.1484 37.6687L86.0606 21.5938" stroke="#663366" stroke-width="4.22536" stroke-miterlimit="10" stroke-linecap="round" stroke-linejoin="round"/>
<path d="M69.4702 5L63.9395 21.5919" stroke="#663366" stroke-width="4.22536" stroke-miterlimit="10" stroke-linecap="round" stroke-linejoin="round"/>
<path d="M69.8516 37.6687L63.9395 21.5938" stroke="#663366" stroke-width="4.22536" stroke-miterlimit="10" stroke-linecap="round" stroke-linejoin="round"/>
<path d="M128.665 77.3345V65.668" stroke="#663366" stroke-width="4.22536" stroke-miterlimit="10" stroke-linecap="round" stroke-linejoin="round"/>
<path d="M128.665 105.334V86.668" stroke="#663366" stroke-width="4.22536" stroke-miterlimit="10" stroke-linecap="round" stroke-linejoin="round"/>
<path d="M128.665 126.334V114.668" stroke="#663366" stroke-width="4.22536" stroke-miterlimit="10" stroke-linecap="round" stroke-linejoin="round"/>
</svg>
