<svg width="150" height="150" viewBox="0 0 150 150" fill="none" xmlns="http://www.w3.org/2000/svg">
<path d="M36.9316 104.174H17.9172C16.8429 104.174 15.975 105.042 15.975 106.116V113.265C15.975 114.34 16.8429 115.208 17.9172 115.208H36.9316C38.0059 115.208 38.8738 114.34 38.8738 113.265V106.116C38.8738 105.042 38.0059 104.174 36.9316 104.174ZM34.9895 111.323H19.8649V108.058H34.9895V111.323ZM64.4372 104.174H43.796C42.7217 104.174 41.8538 105.042 41.8538 106.116V113.265C41.8538 114.34 42.7217 115.208 43.796 115.208H64.4372C65.5115 115.208 66.3794 114.34 66.3794 113.265V106.116C66.3794 105.042 65.5115 104.174 64.4372 104.174ZM62.495 111.323H45.7444V108.058H62.495V111.323ZM33.515 48.4224C35.5422 53.5752 40.0515 57.3139 45.5745 58.3153C50.8487 59.2803 56.1472 57.5809 59.8494 53.8422C61.931 55.4202 64.5105 56.276 67.09 56.191C68.9958 56.1303 71.6238 55.5173 74.0878 53.1867L83.7804 61.4956C84.1385 61.8051 84.5937 61.9629 85.0489 61.9629C85.3888 61.9629 85.7347 61.8719 86.0442 61.6898C86.7604 61.2649 87.1246 60.4274 86.9546 59.6142L84.533 48.2829C90.6994 47.1661 95.3848 41.7645 95.3848 35.2826C95.3848 29.5108 91.5552 24.3883 86.1172 22.6767C84.8062 18.6832 81.4439 15.5758 77.3046 14.641C77.0133 14.5743 76.7159 14.5197 76.4185 14.4772C74.1426 9.26365 69.36 5.70718 63.655 5.09408C58.2533 4.50536 53.1492 6.70856 50.0114 10.8902C49.2953 10.7749 48.567 10.7142 47.8327 10.7142H47.8084C42.0608 10.7142 36.7989 14.3133 34.717 19.6663C34.4075 20.4553 34.1829 21.2747 34.0251 22.1001C27.1547 22.5674 21.7106 28.2968 21.7106 35.2764C21.7106 42.0861 26.8876 47.7123 33.5154 48.4163L33.515 48.4224ZM33.8306 26.027C33.9702 27.5989 34.3708 29.1466 35.0323 30.5972C35.3601 31.3133 36.0641 31.7321 36.8045 31.7321C37.0776 31.7321 37.3507 31.6775 37.6117 31.5561C38.5888 31.113 39.0198 29.9539 38.5706 28.9828C37.4357 26.5004 37.3568 23.6237 38.34 21.0807C39.8452 17.2086 43.6446 14.6048 47.8019 14.6048H47.8201C50.4117 14.6109 52.8818 15.5941 54.7694 17.3663C55.5523 18.1006 56.7844 18.0642 57.5187 17.2813C58.253 16.4984 58.2167 15.2663 57.4337 14.532C56.408 13.5609 55.2489 12.7659 54.0107 12.159C56.3353 9.7434 59.6369 8.56599 63.2239 8.95442C66.9808 9.36106 70.2095 11.461 72.1093 14.6048C70.944 14.8537 69.8151 15.2725 68.7591 15.8612C67.8184 16.3831 67.4846 17.5667 68.0065 18.5073C68.5285 19.448 69.7121 19.7818 70.6527 19.2599C72.4188 18.2767 74.4763 17.9854 76.4428 18.4284C79.4713 19.1142 81.8869 21.5056 82.603 24.528C83.3192 27.5505 82.2328 30.7732 79.8355 32.7458C79.004 33.4256 78.8887 34.6516 79.5685 35.483C79.9508 35.9503 80.5092 36.1931 81.0736 36.1931C81.5106 36.1931 81.9476 36.0474 82.3057 35.75C84.9215 33.6016 86.4753 30.4334 86.6816 27.1317C89.5766 28.7462 91.4946 31.8536 91.4946 35.2766C91.4946 40.4173 87.3129 44.599 82.1722 44.599C81.5835 44.599 81.0312 44.866 80.661 45.3212C80.2907 45.7764 80.1512 46.3772 80.2725 46.9478L81.9476 54.7953L75.1925 49.0052C74.7919 48.6593 74.2639 48.4954 73.7359 48.544C73.2079 48.5986 72.7223 48.8595 72.3946 49.2783C70.9015 51.1841 69.0261 52.2279 66.9687 52.2947C64.8505 52.3615 62.617 51.3965 61.1483 49.7578C60.7598 49.3269 60.2015 49.0902 59.6249 49.1145C59.0483 49.1388 58.5081 49.4179 58.1561 49.8792C55.3643 53.5451 50.8123 55.3051 46.2848 54.4796C41.7572 53.6541 38.1217 50.395 36.8046 45.9826C36.5618 45.1572 35.8031 44.5928 34.9413 44.5928C29.8007 44.5928 25.619 40.4111 25.619 35.2704C25.619 30.5 29.2241 26.555 33.8489 26.0089L33.8306 26.027ZM97.5022 89.2449L98.8617 87.8854C99.9359 86.8051 101.641 86.6412 102.91 87.4909L105.131 88.9779L109.544 87.151L110.059 84.5291C110.357 83.03 111.674 81.9496 113.197 81.9496H119.952C121.476 81.9496 122.799 83.036 123.09 84.5291L123.606 87.151L128.018 88.9779L130.24 87.4909C131.508 86.6412 133.207 86.8051 134.288 87.8854L139.064 92.6619C140.145 93.7422 140.308 95.4416 139.459 96.7101L137.972 98.9314L139.799 103.344L142.421 103.86C143.92 104.157 145 105.474 145 106.997V113.752C145 115.276 143.914 116.599 142.421 116.89L139.799 117.406L137.972 121.818L139.459 124.04C140.308 125.308 140.138 127.008 139.064 128.088L134.288 132.864C133.207 133.945 131.508 134.109 130.24 133.259L128.018 131.772L123.606 133.599L123.09 136.221C122.793 137.72 121.476 138.8 119.952 138.8H113.197C111.674 138.8 110.351 137.714 110.059 136.221L109.544 133.599L105.131 131.772L102.91 133.259C102.018 133.86 100.81 133.617 100.215 132.725C99.6143 131.833 99.857 130.625 100.749 130.03L103.832 127.96C104.373 127.596 105.058 127.53 105.659 127.778L111.996 130.406C112.596 130.655 113.033 131.189 113.161 131.827L113.768 134.916H119.388L119.995 131.827C120.122 131.189 120.559 130.655 121.16 130.406L127.496 127.778C128.097 127.53 128.783 127.596 129.323 127.96L131.939 129.714L135.914 125.739L134.16 123.123C133.796 122.583 133.729 121.897 133.978 121.296L136.606 114.96C136.855 114.359 137.389 113.922 138.026 113.795L141.116 113.188V107.568L138.026 106.961C137.389 106.833 136.855 106.396 136.606 105.796L133.978 99.4594C133.729 98.8585 133.796 98.1727 134.16 97.6325L135.914 95.0166L131.939 91.0413L129.323 92.7953C128.783 93.1594 128.097 93.2262 127.496 92.9774L121.16 90.3494C120.559 90.1006 120.122 89.5665 119.995 88.9292L119.388 85.8399H113.768L113.161 88.9292C113.033 89.5665 112.596 90.1006 111.996 90.3494L105.659 92.9774C105.058 93.2262 104.373 93.1594 103.832 92.7953L101.217 91.0413L100.258 92.0002C99.499 92.7589 98.267 92.7589 97.5083 92.0002C96.7496 91.2416 96.7497 90.0096 97.5083 89.2509L97.5022 89.2449ZM116.577 125.496C124.916 125.496 131.702 118.711 131.702 110.372C131.702 102.033 124.916 95.2472 116.577 95.2472C108.238 95.2472 101.453 102.033 101.453 110.372C101.453 118.711 108.238 125.496 116.577 125.496ZM116.577 99.1312C122.774 99.1312 127.811 104.169 127.811 110.365C127.811 116.562 122.774 121.6 116.577 121.6C110.381 121.6 105.343 116.562 105.343 110.365C105.343 104.169 110.381 99.1312 116.577 99.1312ZM113.785 59.9914C114.41 60.9261 115.454 61.4844 116.577 61.4844C117.7 61.4844 118.744 60.9261 119.369 59.9914L133.644 38.6153C134.336 37.5835 134.397 36.2605 133.814 35.1679C133.225 34.0754 132.096 33.3957 130.852 33.3957H126.592V8.36058C126.592 6.50948 125.086 5.00423 123.235 5.00423H109.931C108.08 5.00423 106.575 6.5094 106.575 8.36058V33.3957H102.314C101.07 33.3957 99.9354 34.0755 99.3528 35.1679C98.764 36.2603 98.8308 37.5835 99.5227 38.6153L113.798 59.9914H113.785ZM108.511 37.2869C109.585 37.2869 110.453 36.419 110.453 35.3447V8.88947H122.701V35.3385C122.701 36.4128 123.569 37.2806 124.643 37.2806H129.857L116.571 57.1699L103.286 37.2806H108.499L108.511 37.2869ZM143.057 141.125H99.1951L95.1773 79.7284C96.8706 79.2489 98.1087 77.6952 98.1087 75.8562V68.8462C98.1087 66.6249 96.3 64.8162 94.0787 64.8162H75.9918C73.7704 64.8162 71.9618 66.6249 71.9618 68.8462V75.8562C71.9618 77.6952 73.2059 79.2489 74.8932 79.7284L73.6732 98.3855L69.8071 97.032V86.9936C69.8071 86.3624 69.5037 85.7737 68.9878 85.4096C68.4719 85.0454 67.8164 84.9483 67.2217 85.1607L42.3015 93.8762V83.613C42.3015 82.9576 41.9738 82.3506 41.4275 81.9925C40.8813 81.6344 40.1955 81.5677 39.5946 81.8226L10.5291 94.1674C9.81294 94.4708 9.34561 95.1749 9.34561 95.9577V141.124H6.94215C5.86789 141.124 5 141.992 5 143.067C5 144.141 5.86789 145.009 6.94215 145.009H143.056C144.13 145.009 144.998 144.141 144.998 143.067C144.998 141.992 144.131 141.125 143.057 141.125ZM75.852 68.8461C75.852 68.7732 75.9187 68.7065 75.9916 68.7065H94.0784C94.1513 68.7065 94.218 68.7732 94.218 68.8461V75.856C94.218 75.9288 94.1513 75.9956 94.0784 75.9956H75.9916C75.9187 75.9956 75.852 75.9288 75.852 75.856V68.8461ZM62.4875 141.125H45.7368V121.971H62.4875V141.125ZM83.7238 141.125H66.378V120.029C66.378 118.955 65.5101 118.087 64.4358 118.087H43.7946C42.7204 118.087 41.8525 118.955 41.8525 120.029V141.125H13.2422V97.245L38.4172 86.5511V96.62C38.4172 97.2512 38.7206 97.8399 39.2365 98.204C39.7524 98.5681 40.4079 98.6592 41.0026 98.4528L65.9228 89.7374V98.4163C65.9228 99.2417 66.4448 99.9822 67.2277 100.249L83.7298 106.021V141.126L83.7238 141.125ZM87.6141 141.125V104.644C87.6141 103.818 87.0922 103.078 86.3092 102.811L77.4846 99.7277L78.7834 79.8929H91.2921L95.2977 141.131H87.6141V141.125Z" fill="#663366"/>
</svg>
