<svg width="150" height="150" viewBox="0 0 150 150" fill="none" xmlns="http://www.w3.org/2000/svg">
<path d="M22.901 86.3808V71.1289H5.00195V127.559H22.901V91.2889" stroke="#663366" stroke-width="4.23226" stroke-miterlimit="10"/>
<path d="M127.103 96.2736V127.559H145.002V71.1289H127.103V91.5487" stroke="#663366" stroke-width="4.23226" stroke-miterlimit="10"/>
<path d="M69.3789 138.623L74.3292 143.536C76.3951 145.602 79.7448 145.602 81.8107 143.536C83.8767 141.471 83.8767 138.121 81.8107 136.055L84.9175 139.124C86.9834 141.19 90.3331 141.19 92.3993 139.124C94.4186 137.105 94.4587 133.863 92.5308 131.788L94.3913 133.649C96.4572 135.714 99.8069 135.714 101.873 133.649C103.907 131.614 103.934 128.339 101.963 126.267L104.822 129.126C106.751 130.675 110.101 130.675 112.166 128.61C114.232 126.544 114.232 123.194 112.166 121.128L104.689 113.664" stroke="#663366" stroke-width="4.23226" stroke-miterlimit="10"/>
<path d="M22.9014 119.098H32.1201" stroke="#663366" stroke-width="4.23226" stroke-miterlimit="10"/>
<path d="M22.9014 76.7733H48.6829L55.7304 69.6642C57.2938 68.087 59.4148 67.1875 61.6353 67.1596L73.3804 67.0117" stroke="#663366" stroke-width="4.23226" stroke-miterlimit="10"/>
<path d="M77.1914 131.512L81.8108 136.056" stroke="#663366" stroke-width="4.23226" stroke-miterlimit="10"/>
<path d="M84.6797 124.027L92.5305 131.788" stroke="#663366" stroke-width="4.23226" stroke-miterlimit="10"/>
<path d="M92.5303 116.945L101.963 126.268" stroke="#663366" stroke-width="4.23226" stroke-miterlimit="10"/>
<path d="M56.356 105.62L45.5299 116.446C43.464 118.512 43.464 121.862 45.5299 123.927C47.5958 125.993 50.9455 125.993 52.8743 124.444L64.0271 113.291C66.1455 111.172 66.1455 107.738 64.0271 105.62C61.9087 103.502 58.4744 103.502 56.356 105.62Z" stroke="#663366" stroke-width="4.23226" stroke-miterlimit="10"/>
<path d="M42.11 104.526L33.2789 113.357C31.213 115.423 31.213 118.773 33.2789 120.839C35.3448 122.905 38.6945 122.905 40.6233 121.355L49.7811 112.197C51.8995 110.079 51.8995 106.644 49.7811 104.526C47.6627 102.408 44.2281 102.408 42.11 104.526Z" stroke="#663366" stroke-width="4.23226" stroke-miterlimit="10"/>
<path d="M64.0269 113.292L53.2008 124.118C51.1349 126.184 51.1349 129.534 53.2008 131.6C55.2667 133.665 58.6164 133.665 60.5452 132.116L71.698 120.963C73.8164 118.844 73.8164 115.41 71.698 113.292C69.5796 111.174 66.145 111.174 64.0269 113.292Z" stroke="#663366" stroke-width="4.23226" stroke-miterlimit="10"/>
<path d="M69.7027 122.956L60.8717 131.787C58.8058 133.853 58.8058 137.203 60.8717 139.269C62.9376 141.334 66.2873 141.334 68.2161 139.785L77.3738 130.627C79.4922 128.508 79.4922 125.074 77.3738 122.956C75.2555 120.838 71.8211 120.838 69.7027 122.956Z" stroke="#663366" stroke-width="4.23226" stroke-miterlimit="10"/>
<path d="M127.103 76.7908H104.892L94.2603 68.7309C92.7889 67.6152 90.993 67.0117 89.1466 67.0117H73.3797L52.7734 87.2304L56.6499 91.4764C59.8746 95.0087 65.3833 95.1695 68.8086 91.8314L75.8579 84.8837L110.63 119.606L127.102 119.096" stroke="#663366" stroke-width="4.23226" stroke-miterlimit="10"/>
<path d="M75.8584 84.8828L86.7314 95.7402C89.9961 99.0005 95.2706 99.0454 98.5904 95.8413L100.457 94.0397" stroke="#663366" stroke-width="4.23226" stroke-miterlimit="10"/>
<path d="M134.315 108.938H138.548" stroke="#663366" stroke-width="4.23226" stroke-miterlimit="10"/>
<path d="M11.5801 108.938H15.8123" stroke="#663366" stroke-width="4.23226" stroke-miterlimit="10"/>
<path d="M75.0022 66.856C80.4562 66.856 84.8775 62.4347 84.8775 56.9807C84.8775 51.5268 80.4562 47.1055 75.0022 47.1055C69.5483 47.1055 65.127 51.5268 65.127 56.9807C65.127 62.4347 69.5483 66.856 75.0022 66.856Z" stroke="#663366" stroke-width="4.23226" stroke-miterlimit="10"/>
<path d="M49.6442 15.8802L30.5812 39.4223L11.5186 15.8802L15.7861 5.03516H45.3766L49.6442 15.8802Z" stroke="#663366" stroke-width="4.23226" stroke-miterlimit="10"/>
<path d="M11.5186 15.8789H49.6442" stroke="#663366" stroke-width="4.23226" stroke-miterlimit="10"/>
<path d="M37.4753 5V15.7217L30.5801 39.4224L23.4648 15.8803V5" stroke="#663366" stroke-width="4.23226" stroke-miterlimit="2"/>
<path d="M65.1267 56.9798H38.9352C34.2603 56.9798 30.4707 53.1903 30.4707 48.5153L30.581 39.4219" stroke="#663366" stroke-width="4.23226" stroke-miterlimit="10"/>
<path d="M119.488 41.2734V48.5154C119.488 53.1904 115.698 56.9799 111.023 56.9799H84.877" stroke="#663366" stroke-width="4.23226" stroke-miterlimit="10"/>
<path d="M18.6328 39.4219H42.5538" stroke="#663366" stroke-width="4.23226" stroke-miterlimit="10"/>
<path d="M104.705 39.4219H134.269" stroke="#663366" stroke-width="4.23226" stroke-miterlimit="10"/>
<path d="M135.249 15.0395C136.251 17.2228 136.81 19.6518 136.81 22.2112C136.81 31.7166 129.104 39.4224 119.599 39.4224C110.094 39.4224 102.388 31.7166 102.388 22.2112C102.388 12.7058 110.094 5 119.599 5C125.013 5 129.843 7.49957 132.998 11.4076" stroke="#663366" stroke-width="4.23226" stroke-miterlimit="10"/>
<path d="M122.698 15.2098C122.698 15.2098 120.935 13.5835 118.217 14.4023C115.722 15.154 115.102 18.5686 116.798 19.8989C117.771 20.6627 119.237 21.2905 121.211 21.9885C125.631 23.5508 123.997 29.7835 119.501 29.8134C117.747 29.825 116.927 29.7138 115.386 28.7057" stroke="#663366" stroke-width="4.23226" stroke-miterlimit="10"/>
<path d="M119.502 29.8164V39.4242" stroke="#663366" stroke-width="4.23226" stroke-miterlimit="10"/>
<path d="M119.502 14.1733V5" stroke="#663366" stroke-width="4.23226" stroke-miterlimit="10"/>
</svg>
