<svg width="150" height="150" viewBox="0 0 150 150" fill="none" xmlns="http://www.w3.org/2000/svg">
<mask id="mask0_694_4863" style="mask-type:luminance" maskUnits="userSpaceOnUse" x="4" y="5" width="141" height="140">
<path d="M4.99512 5H144.995V145H4.99512V5Z" fill="white"/>
</mask>
<g mask="url(#mask0_694_4863)">
<path d="M10.8041 139.965H139.184C141.246 139.965 142.943 138.267 142.943 136.198C142.943 134.136 141.246 132.438 139.184 132.438H10.8041C8.73477 132.438 7.04492 134.136 7.04492 136.198C7.04492 138.267 8.73477 139.965 10.8041 139.965Z" stroke="#663366" stroke-width="4.1002" stroke-miterlimit="10" stroke-linecap="round" stroke-linejoin="round"/>
<path d="M135.418 55.0517V47.0914H99.9961V132.438H135.418V64.345" stroke="#663366" stroke-width="4.1002" stroke-miterlimit="10" stroke-linecap="round" stroke-linejoin="round"/>
<path d="M14.5645 124.477V132.438H49.9869V47.0914H14.5645V115.184" stroke="#663366" stroke-width="4.1002" stroke-miterlimit="10" stroke-linecap="round" stroke-linejoin="round"/>
<path d="M57.2803 132.438H92.7022V47.0914H57.2803V132.438Z" stroke="#663366" stroke-width="4.1002" stroke-miterlimit="10" stroke-linecap="round" stroke-linejoin="round"/>
<path d="M26.8723 94.1561H37.6769C40.4361 94.1561 42.692 96.4116 42.692 99.1712V103.302H21.8574V99.1712C21.8574 96.4116 24.1127 94.1561 26.8723 94.1561ZM26.8723 76.2281H37.6769C40.4361 76.2281 42.692 78.4837 42.692 81.2427V85.3743H21.8574V81.2427C21.8574 78.4837 24.1127 76.2281 26.8723 76.2281ZM26.8723 58.3002H37.6769C40.4361 58.3002 42.692 60.5555 42.692 63.315V67.4461H21.8574V63.315C21.8574 60.5555 24.1127 58.3002 26.8723 58.3002ZM26.8723 112.084H37.6769C40.4361 112.084 42.692 114.34 42.692 117.091V121.23H21.8574V117.091C21.8574 114.34 24.1127 112.084 26.8723 112.084Z" stroke="#663366" stroke-width="4.1002" stroke-miterlimit="10" stroke-linecap="round" stroke-linejoin="round"/>
<path d="M69.5891 94.1546H80.3942C83.1529 94.1546 85.4088 96.4102 85.4088 99.1697V103.301H64.5742V99.1697C64.5742 96.4102 66.8375 94.1546 69.5891 94.1546ZM69.5891 76.2266H80.3942C83.1529 76.2266 85.4088 78.4822 85.4088 81.2412V85.3729H64.5742V81.2412C64.5742 78.4822 66.8375 76.2266 69.5891 76.2266ZM69.5891 58.2987H80.3942C83.1529 58.2987 85.4088 60.554 85.4088 63.3136V67.4446H64.5742V63.3136C64.5742 60.554 66.8375 58.2987 69.5891 58.2987Z" stroke="#663366" stroke-width="4.1002" stroke-miterlimit="10" stroke-linecap="round" stroke-linejoin="round"/>
<path d="M112.306 94.1561H123.111C125.87 94.1561 128.126 96.4116 128.126 99.1712V103.302H107.291V99.1712C107.291 96.4116 109.554 94.1561 112.306 94.1561ZM112.306 76.2281H123.111C125.87 76.2281 128.126 78.4837 128.126 81.2427V85.3743H107.291V81.2427C107.291 78.4837 109.554 76.2281 112.306 76.2281ZM112.306 58.3002H123.111C125.87 58.3002 128.126 60.5555 128.126 63.315V67.4461H107.291V63.315C107.291 60.5555 109.554 58.3002 112.306 58.3002ZM112.306 112.084H123.111C125.87 112.084 128.126 114.34 128.126 117.091V121.23H107.291V117.091C107.291 114.34 109.554 112.084 112.306 112.084Z" stroke="#663366" stroke-width="4.1002" stroke-miterlimit="10" stroke-linecap="round" stroke-linejoin="round"/>
<path d="M92.7031 132.438H99.9968V47.0914H92.7031V132.438Z" stroke="#663366" stroke-width="4.1002" stroke-miterlimit="10" stroke-linecap="round" stroke-linejoin="round"/>
<path d="M49.9873 132.438H57.281V47.0914H49.9873V132.438Z" stroke="#663366" stroke-width="4.1002" stroke-miterlimit="10" stroke-linecap="round" stroke-linejoin="round"/>
<path d="M64.5742 132.438H85.4088V110.828H64.5742V132.438Z" stroke="#663366" stroke-width="4.1002" stroke-miterlimit="10" stroke-linecap="round" stroke-linejoin="round"/>
<path d="M18.0828 22.3257H12.0603L7.04492 47.0898H142.943L137.929 22.3257H131.906M60.7984 22.3257H46.467M103.514 22.3257H89.1899" stroke="#663366" stroke-width="4.1002" stroke-miterlimit="10" stroke-linecap="round" stroke-linejoin="round"/>
<path d="M22.8105 38.2383H41.7382V23.1935L32.2745 18.8067L22.8105 23.1935V38.2383Z" stroke="#663366" stroke-width="4.1002" stroke-miterlimit="10" stroke-linecap="round" stroke-linejoin="round"/>
<path d="M65.5273 38.2383H84.4555V23.1935L74.9913 18.8067L65.5273 23.1935V38.2383Z" stroke="#663366" stroke-width="4.1002" stroke-miterlimit="10" stroke-linecap="round" stroke-linejoin="round"/>
<path d="M108.25 38.2383H127.17V23.1935L117.706 18.8067L108.25 23.1935V38.2383Z" stroke="#663366" stroke-width="4.1002" stroke-miterlimit="10" stroke-linecap="round" stroke-linejoin="round"/>
<path d="M18.084 25.3867L32.2759 18.8062L46.4682 25.3867V16.6127L32.2759 10.0321L18.084 16.6127V25.3867Z" stroke="#663366" stroke-width="4.1002" stroke-miterlimit="10" stroke-linecap="round" stroke-linejoin="round"/>
<path d="M77.8761 11.3651L74.9927 10.0321L60.8008 16.6127V25.3867L74.9927 18.8062L89.1923 25.3867V16.6127L86.3089 15.2717" stroke="#663366" stroke-width="4.1002" stroke-miterlimit="10" stroke-linecap="round" stroke-linejoin="round"/>
<path d="M103.514 25.3867L117.706 18.8062L131.906 25.3867V16.6127L117.706 10.0321L103.514 16.6127V25.3867Z" stroke="#663366" stroke-width="4.1002" stroke-miterlimit="10" stroke-linecap="round" stroke-linejoin="round"/>
<path d="M32.2773 38.2383V28.5184" stroke="#663366" stroke-width="4.1002" stroke-miterlimit="10" stroke-linecap="round" stroke-linejoin="round"/>
<path d="M74.9902 38.2383V28.5184" stroke="#663366" stroke-width="4.1002" stroke-miterlimit="10" stroke-linecap="round" stroke-linejoin="round"/>
<path d="M117.707 38.2383V28.5184" stroke="#663366" stroke-width="4.1002" stroke-miterlimit="10" stroke-linecap="round" stroke-linejoin="round"/>
</g>
</svg>
