<svg width="150" height="150" viewBox="0 0 150 150" fill="none" xmlns="http://www.w3.org/2000/svg">
<path d="M10.5324 33.6523C7.06479 38.0692 5 43.6354 5 49.6833C5 61.934 13.4761 72.2073 24.8901 74.9735" stroke="white" stroke-width="4.22535" stroke-miterlimit="10" stroke-linecap="round" stroke-linejoin="round"/>
<path d="M17.9688 27.1775C21.8138 24.9408 26.2871 23.6592 31.0561 23.6592C33.8166 23.6592 36.4758 24.0901 38.9716 24.8845C38.98 24.8873 38.9885 24.8901 38.9969 24.893C43.4533 13.262 54.7321 5 67.9462 5C77.6983 5 86.3969 9.50141 92.0758 16.5352C95.7124 14.6085 99.8617 13.5155 104.267 13.5155C117.369 13.5155 128.214 23.1746 130.048 35.7521C130.048 35.7549 130.048 35.7549 130.048 35.7577C138.667 38.1268 145 46.0056 145 55.3634C145 66.2648 136.414 75.1634 125.625 75.6817" stroke="white" stroke-width="4.22535" stroke-miterlimit="10" stroke-linecap="round" stroke-linejoin="round"/>
<path d="M38.8047 24.8281C40.7312 25.4264 42.5619 26.2422 44.2678 27.2464" stroke="white" stroke-width="4.22535" stroke-miterlimit="10" stroke-linecap="round" stroke-linejoin="round"/>
<path d="M124.211 35.0316C124.352 35.0288 124.492 35.0273 124.633 35.0273C126.509 35.0273 128.326 35.2806 130.05 35.7547" stroke="white" stroke-width="4.22535" stroke-miterlimit="10" stroke-linecap="round" stroke-linejoin="round"/>
<path d="M75 50.4084V28.5352" stroke="white" stroke-width="4.22535" stroke-linecap="round" stroke-linejoin="round"/>
<path d="M75.0003 28.2663C77.6508 28.2663 79.7995 26.1176 79.7995 23.4671C79.7995 20.8166 77.6508 18.668 75.0003 18.668C72.3498 18.668 70.2012 20.8166 70.2012 23.4671C70.2012 26.1176 72.3498 28.2663 75.0003 28.2663Z" stroke="white" stroke-width="4.22535" stroke-linecap="round" stroke-linejoin="round"/>
<path d="M33.2266 70.6306V55.0156" stroke="white" stroke-width="4.22535" stroke-linecap="round" stroke-linejoin="round"/>
<path d="M33.2249 54.7467C35.8754 54.7467 38.0241 52.5981 38.0241 49.9476C38.0241 47.2971 35.8754 45.1484 33.2249 45.1484C30.5744 45.1484 28.4258 47.2971 28.4258 49.9476C28.4258 52.5981 30.5744 54.7467 33.2249 54.7467Z" stroke="white" stroke-width="4.22535" stroke-linecap="round" stroke-linejoin="round"/>
<path d="M116.773 70.6306V55.0156" stroke="white" stroke-width="4.22535" stroke-linecap="round" stroke-linejoin="round"/>
<path d="M116.774 54.7467C119.424 54.7467 121.573 52.5981 121.573 49.9476C121.573 47.2971 119.424 45.1484 116.774 45.1484C114.123 45.1484 111.975 47.2971 111.975 49.9476C111.975 52.5981 114.123 54.7467 116.774 54.7467Z" stroke="white" stroke-width="4.22535" stroke-linecap="round" stroke-linejoin="round"/>
<path d="M97.1702 41.1217C99.8207 41.1217 101.969 38.9731 101.969 36.3226C101.969 33.6721 99.8207 31.5234 97.1702 31.5234C94.5197 31.5234 92.3711 33.6721 92.3711 36.3226C92.3711 38.9731 94.5197 41.1217 97.1702 41.1217Z" stroke="white" stroke-width="4.22535" stroke-linecap="round" stroke-linejoin="round"/>
<path d="M86.1387 50.4093V49.153C86.1387 48.002 86.5959 46.898 87.4097 46.0842L93.6423 39.8516" stroke="white" stroke-width="4.22535" stroke-linecap="round" stroke-linejoin="round"/>
<path d="M52.8304 41.1217C55.4809 41.1217 57.6296 38.9731 57.6296 36.3226C57.6296 33.6721 55.4809 31.5234 52.8304 31.5234C50.1799 31.5234 48.0312 33.6721 48.0312 36.3226C48.0312 38.9731 50.1799 41.1217 52.8304 41.1217Z" stroke="white" stroke-width="4.22535" stroke-linecap="round" stroke-linejoin="round"/>
<path d="M63.8611 50.4093V49.153C63.8611 48.002 63.4039 46.898 62.5901 46.0842L56.3574 39.8516" stroke="white" stroke-width="4.22535" stroke-linecap="round" stroke-linejoin="round"/>
<path d="M10.3945 137.144V100.428C10.3945 99.8748 10.8433 99.4258 11.3971 99.4258H24.8897" stroke="white" stroke-width="4.22535" stroke-miterlimit="10" stroke-linecap="round" stroke-linejoin="round"/>
<path d="M125.387 99.4258H138.604C139.157 99.4258 139.606 99.8745 139.606 100.428V137.001" stroke="white" stroke-width="4.22535" stroke-miterlimit="10" stroke-linecap="round" stroke-linejoin="round"/>
<path d="M25.2676 114.813V72.7992C25.2676 72.0781 25.8507 71.4922 26.5718 71.4922H51.9803" stroke="white" stroke-width="4.22535" stroke-miterlimit="10" stroke-linecap="round" stroke-linejoin="round"/>
<path d="M25.2676 137.145V124.672" stroke="white" stroke-width="4.22535" stroke-miterlimit="10" stroke-linecap="round" stroke-linejoin="round"/>
<path d="M98.2246 71.4922H123.428C124.149 71.4922 124.734 72.077 124.734 72.7981V137" stroke="white" stroke-width="4.22535" stroke-miterlimit="10" stroke-linecap="round" stroke-linejoin="round"/>
<path d="M43.9651 82.4141H34.3203V92.0588H43.9651V82.4141Z" stroke="white" stroke-width="4.22535" stroke-miterlimit="10" stroke-linecap="round" stroke-linejoin="round"/>
<path d="M43.9651 99.4258H34.3203V109.071H43.9651V99.4258Z" stroke="white" stroke-width="4.22535" stroke-miterlimit="10" stroke-linecap="round" stroke-linejoin="round"/>
<path d="M43.9651 116.441H34.3203V126.086H43.9651V116.441Z" stroke="white" stroke-width="4.22535" stroke-miterlimit="10" stroke-linecap="round" stroke-linejoin="round"/>
<path d="M106.035 92.0586L115.68 92.0586L115.68 82.4138L106.035 82.4138L106.035 92.0586Z" stroke="white" stroke-width="4.22535" stroke-miterlimit="10" stroke-linecap="round" stroke-linejoin="round"/>
<path d="M106.035 109.074L115.68 109.074L115.68 99.4294L106.035 99.4294L106.035 109.074Z" stroke="white" stroke-width="4.22535" stroke-miterlimit="10" stroke-linecap="round" stroke-linejoin="round"/>
<path d="M106.035 126.086L115.68 126.086L115.68 116.441L106.035 116.441L106.035 126.086Z" stroke="white" stroke-width="4.22535" stroke-miterlimit="10" stroke-linecap="round" stroke-linejoin="round"/>
<path d="M97.584 137.004V89.8945" stroke="white" stroke-width="4.22535" stroke-miterlimit="10" stroke-linecap="round" stroke-linejoin="round"/>
<path d="M97.584 80.0328V58.5117" stroke="white" stroke-width="4.22535" stroke-miterlimit="10" stroke-linecap="round" stroke-linejoin="round"/>
<path d="M52.416 137.145V58.7031" stroke="white" stroke-width="4.22535" stroke-miterlimit="10" stroke-linecap="round" stroke-linejoin="round"/>
<path d="M61.7283 92.0586L71.373 92.0586L71.373 82.4138L61.7283 82.4138L61.7283 92.0586Z" stroke="white" stroke-width="4.22535" stroke-miterlimit="10" stroke-linecap="round" stroke-linejoin="round"/>
<path d="M61.7283 75.0508L71.373 75.0508L71.373 65.406L61.7283 65.406L61.7283 75.0508Z" stroke="white" stroke-width="4.22535" stroke-miterlimit="10" stroke-linecap="round" stroke-linejoin="round"/>
<path d="M61.7283 109.074L71.373 109.074L71.373 99.4294L61.7283 99.4294L61.7283 109.074Z" stroke="white" stroke-width="4.22535" stroke-miterlimit="10" stroke-linecap="round" stroke-linejoin="round"/>
<path d="M78.6267 92.0586L88.2715 92.0586L88.2715 82.4138L78.6267 82.4138L78.6267 92.0586Z" stroke="white" stroke-width="4.22535" stroke-miterlimit="10" stroke-linecap="round" stroke-linejoin="round"/>
<path d="M78.6267 75.0508L88.2715 75.0508L88.2715 65.406L78.6267 65.406L78.6267 75.0508Z" stroke="white" stroke-width="4.22535" stroke-miterlimit="10" stroke-linecap="round" stroke-linejoin="round"/>
<path d="M78.6267 109.074L88.2715 109.074L88.2715 99.4294L78.6267 99.4294L78.6267 109.074Z" stroke="white" stroke-width="4.22535" stroke-miterlimit="10" stroke-linecap="round" stroke-linejoin="round"/>
<path d="M88.2711 137.004V116.441H61.7285V137.148" stroke="white" stroke-width="4.22535" stroke-miterlimit="10" stroke-linecap="round" stroke-linejoin="round"/>
<path d="M75 117.738V136.702" stroke="white" stroke-width="4.22535" stroke-miterlimit="10" stroke-linecap="round" stroke-linejoin="round"/>
<path d="M70.9004 127.219H79.0981" stroke="white" stroke-width="4.22535" stroke-miterlimit="10" stroke-linecap="round" stroke-linejoin="round"/>
<path d="M121.704 145.001H143.592C144.369 145.001 145 144.37 145 143.592V139.088C145 138.311 144.369 137.68 143.592 137.68H6.40845C5.63099 137.68 5 138.311 5 139.088V143.592C5 144.37 5.63099 145.001 6.40845 145.001H111.845" stroke="white" stroke-width="4.22535" stroke-miterlimit="10" stroke-linecap="round" stroke-linejoin="round"/>
<path d="M101.177 58.0383H48.8239C48.1445 58.0383 47.5938 57.4876 47.5938 56.8082V51.9958C47.5938 51.3163 48.1445 50.7656 48.8239 50.7656H101.177C101.856 50.7656 102.407 51.3163 102.407 51.9958V56.8082C102.407 57.4873 101.856 58.0383 101.177 58.0383Z" stroke="white" stroke-width="4.22535" stroke-miterlimit="10" stroke-linecap="round" stroke-linejoin="round"/>
</svg>
