<svg width="150" height="150" viewBox="0 0 150 150" fill="none" xmlns="http://www.w3.org/2000/svg">
<path d="M97.3857 27.8687L94.339 27.2594C88.6624 26.1239 84.5762 21.1397 84.5762 15.3504V14.4313C84.5762 9.22253 88.7987 5 94.0074 5C99.2162 5 103.439 9.22253 103.439 14.4313V22.9068C103.438 26.1 100.517 28.4949 97.3857 27.8687Z" stroke="#663366" stroke-width="4.22535" stroke-miterlimit="10" stroke-linecap="round" stroke-linejoin="round"/>
<path d="M103.438 64.5763C102.716 63.9118 102.143 63.0754 101.786 62.1138L96.0254 46.5625" stroke="#663366" stroke-width="4.22535" stroke-miterlimit="10" stroke-linecap="round" stroke-linejoin="round"/>
<path d="M137.359 75H142.566C143.91 75 145 73.9104 145 72.5662V42.4338C145 41.0896 143.91 40 142.566 40H137.658C136.881 40 136.25 40.6307 136.25 41.4085V64.8417C136.25 65.6194 135.619 66.2501 134.841 66.2501H114.375V72.5665C114.375 73.9107 115.465 75.0003 116.809 75.0003H127.5" stroke="#663366" stroke-width="4.22535" stroke-miterlimit="10" stroke-linecap="round" stroke-linejoin="round"/>
<path d="M52.6155 27.8687L55.6622 27.2594C61.3388 26.1239 65.425 21.1397 65.425 15.3504V14.4313C65.425 9.22253 61.2025 5 55.9938 5C50.785 5 46.5625 9.22253 46.5625 14.4313V22.9068C46.5628 26.1 49.4842 28.4949 52.6155 27.8687Z" stroke="#663366" stroke-width="4.22535" stroke-miterlimit="10" stroke-linecap="round" stroke-linejoin="round"/>
<path d="M46.5625 64.5763C47.285 63.9118 47.8583 63.0754 48.2143 62.1138L53.9752 46.5625" stroke="#663366" stroke-width="4.22535" stroke-miterlimit="10" stroke-linecap="round" stroke-linejoin="round"/>
<path d="M13.7499 58.8797V64.8414C13.7499 65.6191 14.3806 66.2498 15.1583 66.2498H35.6248V72.5662C35.6248 73.9104 34.5352 75 33.191 75H7.4338C6.08958 75 5 73.9104 5 72.5662V42.4338C5 41.0896 6.08958 40 7.4338 40H12.3417C13.1194 40 13.7501 40.6307 13.7501 41.4085V49.0206" stroke="#663366" stroke-width="4.22535" stroke-miterlimit="10" stroke-linecap="round" stroke-linejoin="round"/>
<path d="M75.0008 88.1248C67.5499 88.1248 61.3113 82.4789 60.5699 75.0651L59.2423 61.7882C58.3099 52.4651 65.6313 44.375 75.0008 44.375C84.3704 44.375 91.6918 52.4649 90.7594 61.7882L89.4318 75.0651C88.6904 82.4789 82.4518 88.1248 75.0008 88.1248Z" stroke="#663366" stroke-width="4.22535" stroke-miterlimit="10" stroke-linecap="round" stroke-linejoin="round"/>
<path d="M76.3373 64.8828V69.1203C76.3373 69.9513 75.6635 70.6251 74.8325 70.6251H73.6621" stroke="#663366" stroke-width="4.22535" stroke-miterlimit="10" stroke-linecap="round" stroke-linejoin="round"/>
<path d="M59.6799 105.625H57.3504C55.0168 105.625 53.125 107.517 53.125 109.85V136.25" stroke="#663366" stroke-width="4.22535" stroke-miterlimit="10" stroke-linecap="round" stroke-linejoin="round"/>
<path d="M96.8748 136.25V109.85C96.8748 107.517 94.983 105.625 92.6495 105.625H69.5391" stroke="#663366" stroke-width="4.22535" stroke-miterlimit="10" stroke-linecap="round" stroke-linejoin="round"/>
<path d="M48.75 123.125H53.1249" stroke="#663366" stroke-width="4.22535" stroke-miterlimit="10" stroke-linecap="round" stroke-linejoin="round"/>
<path d="M101.25 136.249H102.957C106.846 136.249 109.999 133.096 109.999 129.206V109.999C109.999 102.22 103.693 95.9141 95.9143 95.9141H54.0845C46.3059 95.9141 40 102.22 40 109.999V129.206C40 133.096 43.153 136.249 47.0423 136.249H48.7493" stroke="#663366" stroke-width="4.22535" stroke-miterlimit="10" stroke-linecap="round" stroke-linejoin="round"/>
<path d="M101.25 123.125H96.875" stroke="#663366" stroke-width="4.22535" stroke-miterlimit="10" stroke-linecap="round" stroke-linejoin="round"/>
<path d="M74.9999 125.312C77.4161 125.312 79.3749 123.354 79.3749 120.937C79.3749 118.521 77.4161 116.562 74.9999 116.562C72.5837 116.562 70.625 118.521 70.625 120.937C70.625 123.354 72.5837 125.312 74.9999 125.312Z" stroke="#663366" stroke-width="4.22535" stroke-miterlimit="10" stroke-linecap="round" stroke-linejoin="round"/>
<path d="M97.0246 145H52.9754C50.6418 145 48.75 143.108 48.75 140.775V136.25H101.25V140.775C101.25 143.108 99.3581 145 97.0246 145Z" stroke="#663366" stroke-width="4.22535" stroke-miterlimit="10" stroke-linecap="round" stroke-linejoin="round"/>
<path d="M66.2496 47.008V43.0568C66.2496 39.5565 63.4118 36.7188 59.9115 36.7188H51.1566C48.4158 36.7188 45.9853 38.4804 45.1329 41.0855L40.3577 55.6773C40.2158 56.1114 39.8107 56.4052 39.3538 56.4052H28.4383C25.1586 56.4052 22.5 59.0638 22.5 62.3435V66.2503H42.271C43.8966 66.2503 45.4169 65.6297 46.5622 64.5768V73.5917C46.5622 74.3694 47.1929 75.0001 47.9707 75.0001H60.5625" stroke="#663366" stroke-width="4.22535" stroke-miterlimit="10" stroke-linecap="round" stroke-linejoin="round"/>
<path d="M89.437 75.0004H102.029C102.807 75.0004 103.437 74.3697 103.437 73.592V64.5768C104.583 65.6297 106.103 66.2503 107.729 66.2503H127.5V62.3435C127.5 59.0638 124.841 56.4052 121.561 56.4052H110.646C110.189 56.4052 109.784 56.1117 109.642 55.6773L104.867 41.0855C104.014 38.4807 101.584 36.7188 98.843 36.7188H90.088C86.5877 36.7188 83.75 39.5562 83.75 43.0568V47.008" stroke="#663366" stroke-width="4.22535" stroke-miterlimit="10" stroke-linecap="round" stroke-linejoin="round"/>
</svg>
