<svg width="150" height="150" viewBox="0 0 150 150" fill="none" xmlns="http://www.w3.org/2000/svg">
<path d="M115.655 19.8448C111.426 15.6158 105.583 13 99.13 13C92.6768 13 86.8345 15.6158 82.6055 19.8448" stroke="#663366" stroke-width="4.22536" stroke-miterlimit="10" stroke-linecap="round" stroke-linejoin="round"/>
<path d="M108.954 26.5461C106.439 24.0318 102.966 22.4766 99.1292 22.4766C95.2926 22.4766 91.8188 24.0318 89.3047 26.5461" stroke="#663366" stroke-width="4.22536" stroke-miterlimit="10" stroke-linecap="round" stroke-linejoin="round"/>
<path d="M103.071 32.4298C102.063 31.4211 100.669 30.7969 99.1295 30.7969C97.59 30.7969 96.1962 31.4208 95.1875 32.4298" stroke="#663366" stroke-width="4.22536" stroke-miterlimit="10" stroke-linecap="round" stroke-linejoin="round"/>
<path d="M10.6642 81.3242H7.76817C6.23944 81.3242 5 82.5634 5 84.0924C5 88.5865 8.6431 92.2296 13.1372 92.2296H83.6348" stroke="#663366" stroke-width="4.22536" stroke-miterlimit="10" stroke-linecap="round" stroke-linejoin="round"/>
<path d="M93.4461 92.2296H136.862C141.356 92.2296 144.999 88.5865 144.999 84.0924C144.999 82.5637 143.76 81.3242 142.231 81.3242H20.5234" stroke="#663366" stroke-width="4.22536" stroke-miterlimit="10" stroke-linecap="round" stroke-linejoin="round"/>
<path d="M30.9286 137.151H23.7551C22.3911 137.151 21.3962 135.86 21.7435 134.541L32.8773 92.2305H44.3528L32.9401 135.6C32.6996 136.514 31.8734 137.151 30.9286 137.151Z" stroke="#663366" stroke-width="4.22536" stroke-miterlimit="10" stroke-linecap="round" stroke-linejoin="round"/>
<path d="M119.071 137.151H126.244C127.608 137.151 128.603 135.86 128.256 134.541L117.122 92.2305H105.646L117.059 135.6C117.3 136.514 118.126 137.151 119.071 137.151Z" stroke="#663366" stroke-width="4.22536" stroke-miterlimit="10" stroke-linecap="round" stroke-linejoin="round"/>
<path d="M39.4271 49.0311C38.9564 48.1928 38.5612 47.2937 38.2536 46.3393C35.9516 39.1956 39.5595 31.3584 46.4815 28.4576C54.1333 25.2508 62.8516 29.0508 65.7547 36.746C66.0209 37.4517 66.2285 38.1652 66.3804 38.881C66.6398 40.1058 65.962 41.3365 64.7905 41.7784L42.5429 50.1714C41.3654 50.6154 40.0431 50.1283 39.4271 49.0311Z" stroke="#663366" stroke-width="4.22536" stroke-miterlimit="10" stroke-linecap="round" stroke-linejoin="round"/>
<path d="M32.604 71.0453L25.0367 39.9709C24.5313 37.8962 25.6809 35.7762 27.695 35.0675L46.4823 28.457" stroke="#663366" stroke-width="4.22536" stroke-miterlimit="10" stroke-linecap="round" stroke-linejoin="round"/>
<path d="M57.6375 81.3326V75.3258C57.6375 73.4804 56.1415 71.9844 54.2961 71.9844H29.2496C27.4043 71.9844 25.9082 73.4804 25.9082 75.3258V81.3326" stroke="#663366" stroke-width="4.22536" stroke-miterlimit="10" stroke-linecap="round" stroke-linejoin="round"/>
<path d="M48.6035 71.0448V66.9414" stroke="#663366" stroke-width="4.22536" stroke-miterlimit="10" stroke-linecap="round" stroke-linejoin="round"/>
<path d="M120.457 71.7341H77.8027V47.3496C77.8027 45.4823 79.3165 43.9688 81.1836 43.9688H117.076C118.943 43.9688 120.457 45.4826 120.457 47.3496V71.7341Z" stroke="#663366" stroke-width="4.22536" stroke-miterlimit="10" stroke-linecap="round" stroke-linejoin="round"/>
<path d="M122.843 71.7344H75.4169C74.1803 71.7344 73.1777 72.7369 73.1777 73.9738V75.3406C73.1777 78.6507 75.8611 81.3338 79.171 81.3338H119.089C122.399 81.3338 125.082 78.6504 125.082 75.3406V73.9738C125.082 72.7369 124.079 71.7344 122.843 71.7344Z" stroke="#663366" stroke-width="4.22536" stroke-miterlimit="10" stroke-linecap="round" stroke-linejoin="round"/>
<path d="M90.3672 60.2812V62.6967" stroke="#663366" stroke-width="4.22536" stroke-miterlimit="10" stroke-linecap="round" stroke-linejoin="round"/>
<path d="M99.1299 56.1758V62.6969" stroke="#663366" stroke-width="4.22536" stroke-miterlimit="10" stroke-linecap="round" stroke-linejoin="round"/>
<path d="M107.892 53.0117V62.6962" stroke="#663366" stroke-width="4.22536" stroke-miterlimit="10" stroke-linecap="round" stroke-linejoin="round"/>
</svg>
