<svg width="150" height="150" viewBox="0 0 150 150" fill="none" xmlns="http://www.w3.org/2000/svg">
<mask id="mask0_767_235" style="mask-type:luminance" maskUnits="userSpaceOnUse" x="5" y="5" width="140" height="140">
<path d="M5 5H145V145H5V5Z" fill="white"/>
</mask>
<g mask="url(#mask0_767_235)">
<path d="M30.2697 48.1367C20.9045 41.5444 7.05078 32.6421 7.05078 19.8187C7.05078 6.99504 21.8585 1.64305 30.2697 14.161C38.6807 1.64305 53.4884 6.99504 53.4884 19.8187C53.4884 32.6421 39.6347 41.5444 30.2697 48.1367Z" stroke="white" stroke-width="4.10156" stroke-miterlimit="22.926"/>
<path d="M17.9922 28.5932H22.0938L25.7545 23.5458L33.5341 31.6406L38.4431 25.2791H42.5447" stroke="white" stroke-width="4.10156" stroke-miterlimit="22.926"/>
<path d="M7.05078 128.594V122.441C7.05078 120.186 8.89648 118.34 11.1523 118.34H17.3047C19.5605 118.34 21.406 120.186 21.406 122.441V138.848C21.406 141.103 19.5603 142.949 17.3047 142.949H11.1523C8.89676 142.949 7.05078 141.104 7.05078 138.848V132.695M41.9135 118.34H48.0659C50.3217 118.34 52.1674 120.186 52.1674 122.441V138.848C52.1674 141.103 50.3214 142.949 48.0659 142.949H41.9135C39.6579 142.949 37.8122 141.104 37.8122 138.848V122.441C37.8122 120.186 39.6579 118.34 41.9135 118.34Z" stroke="white" stroke-width="4.10156" stroke-miterlimit="22.926"/>
<path d="M21.4043 134.746H37.8105M21.4043 126.543H37.8105" stroke="white" stroke-width="4.10156" stroke-miterlimit="22.926"/>
<path d="M138.848 126.543C141.104 126.543 142.949 128.389 142.949 130.645C142.949 132.9 141.103 134.746 138.848 134.746H97.832C95.5764 134.746 93.7305 132.9 93.7305 130.645C93.7305 128.389 95.5762 126.543 97.832 126.543H138.848Z" stroke="white" stroke-width="4.10156" stroke-miterlimit="22.926"/>
<path d="M138.848 134.746L130.645 142.949H106.035L97.832 134.746" stroke="white" stroke-width="4.10156" stroke-miterlimit="22.926"/>
<path d="M97.832 126.543C97.832 122.747 100.41 119.554 103.911 118.618C104.937 114.781 108.565 112.245 112.512 112.568C113.999 111.067 116.061 110.137 118.34 110.137C120.619 110.137 122.681 111.067 124.168 112.568C128.115 112.245 131.743 114.781 132.769 118.618C136.269 119.554 138.848 122.747 138.848 126.543" stroke="white" stroke-width="4.10156" stroke-miterlimit="22.926"/>
<path d="M122.441 52.168H118.34C116.085 52.168 114.238 50.3223 114.238 48.0664V11.1523C114.238 8.89648 116.084 7.05078 118.34 7.05078H138.848C141.104 7.05078 142.949 8.89675 142.949 11.1523V48.0664C142.949 50.3217 141.103 52.168 138.848 52.168H134.746M130.645 52.168H126.543" stroke="white" stroke-width="4.10156" stroke-miterlimit="22.926"/>
<path d="M114.238 43.9648H142.949M114.238 15.2536H142.949" stroke="white" stroke-width="4.10156" stroke-miterlimit="22.926"/>
<path d="M75 109.855C61.4648 109.855 50.3906 96.8341 50.3906 87.0863V76.2812C50.3906 68.6367 58.008 63.3312 63.6149 63.3312C67.9385 70.4909 87.4266 76.2812 99.6094 76.2812V87.0863C99.6094 96.8338 88.5354 109.855 75 109.855Z" stroke="white" stroke-width="4.10156" stroke-miterlimit="22.926"/>
<path d="M57.1585 101.652H42.1875V68.2883C42.1875 52.0065 59.0241 37.3166 75 37.3166C90.9759 37.3166 107.813 52.007 107.813 68.2883V101.652H92.8413" stroke="white" stroke-width="4.10156" stroke-miterlimit="22.926"/>
<path d="M74.9993 100.254C78.4848 100.254 81.3368 97.4022 81.3368 93.9167V91.8657H68.6621V93.9167C68.6621 97.402 71.5138 100.254 74.9993 100.254Z" stroke="white" stroke-width="4.10156" stroke-miterlimit="22.926"/>
<path d="M60.707 83.6641H64.8086M85.1901 83.6641H89.2916" stroke="white" stroke-width="4.10156" stroke-miterlimit="2.613"/>
<path d="M90.3591 53.7227V49.6208M82.1562 49.6208V45.5193" stroke="white" stroke-width="4.10156" stroke-miterlimit="2.613"/>
</g>
</svg>
