<svg width="150" height="150" viewBox="0 0 150 150" fill="none" xmlns="http://www.w3.org/2000/svg">
<path d="M100.056 103.388C93.334 109.384 84.4709 113.029 74.7548 113.029C53.7525 113.029 36.7266 96.0035 36.7266 75.0009C36.7266 65.2848 40.3722 56.4217 46.3677 49.6997M49.4536 46.6138C56.1751 40.618 65.0387 36.9727 74.7548 36.9727C95.7574 36.9727 112.783 53.9983 112.783 75.0009C112.783 84.717 109.138 93.5807 103.142 100.302" stroke="white" stroke-width="4.22539" stroke-miterlimit="22.9256"/>
<path d="M74.7559 28.2383V36.9707M74.7559 113.027V121.76" stroke="white" stroke-width="4.22539" stroke-miterlimit="22.9256"/>
<path fill-rule="evenodd" clip-rule="evenodd" d="M74.7554 5C79.4227 5 83.2061 8.78339 83.2061 13.4507C83.2061 18.1181 79.4227 21.9014 74.7554 21.9014C70.0881 21.9014 66.3047 18.1181 66.3047 13.4507C66.3047 8.78339 70.0881 5 74.7554 5ZM74.7554 128.099C79.4227 128.099 83.2061 131.882 83.2061 136.549C83.2061 141.217 79.4227 145 74.7554 145C70.0881 145 66.3047 141.217 66.3047 136.549C66.3047 131.882 70.0881 128.099 74.7554 128.099Z" stroke="white" stroke-width="4.22539" stroke-miterlimit="22.9256"/>
<path fill-rule="evenodd" clip-rule="evenodd" d="M14.1337 40.0002C16.4675 35.9583 21.6357 34.5735 25.6776 36.907C29.7196 39.2408 31.1044 44.409 28.7709 48.451C26.4371 52.4929 21.2689 53.8777 17.2269 51.5442C13.1849 49.2104 11.7999 44.0422 14.1337 40.0002ZM120.74 101.55C123.074 97.5077 128.242 96.1229 132.284 98.4564C136.326 100.79 137.711 105.958 135.377 110C133.044 114.042 127.875 115.427 123.833 113.094C119.791 110.76 118.407 105.592 120.74 101.55Z" stroke="white" stroke-width="4.22539" stroke-miterlimit="22.9256"/>
<path fill-rule="evenodd" clip-rule="evenodd" d="M135.377 40.0002C133.043 35.9583 127.875 34.5735 123.833 36.907C119.791 39.2408 118.406 44.409 120.74 48.451C123.074 52.4929 128.242 53.8777 132.284 51.5442C136.326 49.2104 137.711 44.0422 135.377 40.0002ZM28.7708 101.55C26.437 97.5077 21.2688 96.1229 17.2268 98.4564C13.1848 100.79 11.8 105.958 14.1336 110C16.4674 114.042 21.6355 115.427 25.6775 113.094C29.7195 110.76 31.1043 105.592 28.7708 101.55Z" stroke="white" stroke-width="4.22539" stroke-miterlimit="22.9256"/>
<path d="M115.25 51.6211L107.693 55.9842M41.8147 94.0186L34.2578 98.3818M34.2578 51.6211L41.8147 55.9842M107.693 94.0186L115.25 98.3818" stroke="white" stroke-width="4.22539" stroke-miterlimit="22.9256"/>
<path d="M68.4163 83.4519H76.867C79.191 83.4519 81.0924 81.5505 81.0924 79.2266C81.0924 76.9026 79.191 75.0012 76.867 75.0012H72.6414C70.3174 75.0012 68.416 73.0998 68.416 70.7759C68.416 68.4519 70.3174 66.5508 72.6414 66.5508H81.0921" stroke="white" stroke-width="4.22539" stroke-miterlimit="22.9256"/>
<path d="M74.7539 66.549V60.2109M74.7542 89.7882V83.4501" stroke="white" stroke-width="4.22539" stroke-miterlimit="22.9256"/>
<path d="M74.7548 96.392C95.7572 96.392 112.783 86.8139 112.783 74.9987C112.783 63.1836 95.7572 53.6055 74.7548 53.6055C53.7524 53.6055 36.7266 63.1836 36.7266 74.9987C36.7266 86.8139 53.7524 96.392 74.7548 96.392Z" stroke="white" stroke-width="4.22539" stroke-miterlimit="22.9256"/>
<path d="M85.3184 66.5508H89.5437" stroke="white" stroke-width="4.22539" stroke-miterlimit="22.9256"/>
<path d="M74.7546 113.029C86.5698 113.029 96.1479 96.0033 96.1479 75.0009C96.1479 53.9985 86.5698 36.9727 74.7546 36.9727C62.9394 36.9727 53.3613 53.9985 53.3613 75.0009C53.3613 96.0033 62.9394 113.029 74.7546 113.029Z" stroke="white" stroke-width="4.22539" stroke-miterlimit="22.9256"/>
</svg>
