<svg width="150" height="150" viewBox="0 0 150 150" fill="none" xmlns="http://www.w3.org/2000/svg">
<mask id="mask0_694_4145" style="mask-type:luminance" maskUnits="userSpaceOnUse" x="4" y="5" width="141" height="140">
<path d="M4.99512 5H144.995V145H4.99512V5Z" fill="white"/>
</mask>
<g mask="url(#mask0_694_4145)">
<path d="M80.1587 134.268C82.0071 136.001 81.1026 139.024 79.3321 140.796C77.3352 142.796 74.1297 142.717 72.063 140.789L67.1338 136.181" stroke="#663366" stroke-width="5.51688" stroke-miterlimit="10" stroke-linecap="round" stroke-linejoin="round"/>
<path d="M62.7417 128.145C63.2565 127.677 63.7714 127.31 64.2858 127.045C69.1997 124.421 73.4894 130.473 69.7064 133.87L66.0486 137.158C60.7606 141.905 55.028 135.103 59.263 131.285" stroke="#663366" stroke-width="5.51688" stroke-miterlimit="10" stroke-linecap="round" stroke-linejoin="round"/>
<path d="M84.9639 97.1581L104.369 114.416C112.168 121.351 103.87 129.559 97.1075 122.148" stroke="#663366" stroke-width="5.51688" stroke-miterlimit="10" stroke-linecap="round" stroke-linejoin="round"/>
<path d="M86.6924 111.852L97.1049 122.146C99.1171 124.129 99.1015 127.424 97.1049 129.424C95.1082 131.423 91.5437 131.454 89.5862 129.415L89.0713 128.885" stroke="#663366" stroke-width="5.51688" stroke-miterlimit="10" stroke-linecap="round" stroke-linejoin="round"/>
<path d="M81.5315 121.265L89.1437 128.887C92.7471 132.503 87.7087 141.358 80.9152 134.978L77.6553 131.909" stroke="#663366" stroke-width="5.51688" stroke-miterlimit="10" stroke-linecap="round" stroke-linejoin="round"/>
<path d="M139.955 85.6852L117.477 56.8923C115.738 54.6586 112.47 54.2369 110.216 55.9475L95.5058 67.1612C93.2521 68.8792 92.8307 72.105 94.5777 74.3381L117.048 103.131C118.795 105.365 122.063 105.786 124.309 104.068L139.027 92.8619C141.281 91.1439 141.694 87.9187 139.955 85.6852Z" stroke="#663366" stroke-width="5.51688" stroke-miterlimit="10" stroke-linecap="round" stroke-linejoin="round"/>
<path d="M115.91 101.677C112.688 107.659 111.823 108.518 104.366 114.414M84.9613 97.1558L79.369 92.0638L70.4073 96.5075C62.881 99.8338 54.5668 90.5175 66.5546 82.7399L75.2198 77.1169C81.2018 73.2281 87.3558 73.3995 94.5623 74.3213" stroke="#663366" stroke-width="5.51688" stroke-miterlimit="10" stroke-linecap="round" stroke-linejoin="round"/>
<path d="M32.4189 104.811L37.0206 111.113M74.0837 77.8537L55.7002 75.0422" stroke="#663366" stroke-width="5.51688" stroke-miterlimit="10" stroke-linecap="round" stroke-linejoin="round"/>
<path d="M52.1721 110.941C58.0608 105.74 64.3469 113.62 59.7378 117.681L51.0179 125.35C46.276 129.536 40.1299 122.093 44.0997 118.267C44.8251 117.572 44.3961 117.963 44.5601 117.814C44.7316 117.666 52.1721 110.941 52.1721 110.941Z" stroke="#663366" stroke-width="5.51688" stroke-miterlimit="10" stroke-linecap="round" stroke-linejoin="round"/>
<path d="M37.0192 111.111L46.3317 102.833C52.2125 97.6162 58.3739 105.34 53.8189 109.455L52.1734 110.939L43.5317 118.732C38.6571 123.137 32.4722 115.148 37.0192 111.111Z" stroke="#663366" stroke-width="5.51688" stroke-miterlimit="10" stroke-linecap="round" stroke-linejoin="round"/>
<path d="M59.1602 118.188C65.041 112.979 71.1091 120.593 66.5542 124.709L58.505 131.971C53.888 136.141 46.9542 128.934 52.1643 124.342L53.0847 123.537" stroke="#663366" stroke-width="5.51688" stroke-miterlimit="10" stroke-linecap="round" stroke-linejoin="round"/>
<path d="M45.9482 34.7767C45.9482 45.0612 51.6809 54.0111 60.12 58.5868C63.9415 60.6488 68.3091 61.8281 72.9579 61.8281C87.8782 61.8281 99.9748 49.7157 99.9748 34.7767C99.9748 23.9762 93.6418 14.6443 84.4931 10.3182C80.9991 8.66257 77.0837 7.73343 72.9579 7.73343C58.0372 7.73343 45.9482 19.8453 45.9482 34.7767Z" stroke="#663366" stroke-width="5.51688" stroke-miterlimit="10" stroke-linecap="round" stroke-linejoin="round"/>
<path d="M81.5922 38.7752C81.5922 40.9072 80.9761 42.6173 79.744 43.9063C78.5193 45.1947 77.0219 46.0459 75.2747 46.4517V50.3332C75.2747 51.6604 74.144 52.7539 72.8102 52.7539C71.484 52.7539 70.4001 51.6604 70.4001 50.3332V46.4752C69.308 46.233 68.3255 45.8269 67.444 45.265C66.5394 44.687 65.9075 44.1795 65.5564 43.7417L65.0183 43.0469C62.7879 40.1263 66.4692 37.0028 68.6061 39.2516C68.8713 39.525 69.1445 39.8531 69.4562 40.2045C70.3533 41.2042 71.6637 41.3603 72.7323 41.3603C74.7521 41.3603 75.766 40.5244 75.766 38.8534C75.766 38.2521 75.3838 37.7914 74.6195 37.4633C73.8553 37.1278 72.9269 36.8387 71.8274 36.573C70.7353 36.3154 69.6435 35.964 68.5517 35.5265C67.4522 35.0896 66.5239 34.3393 65.7593 33.2698C64.9951 32.1999 64.6131 30.8491 64.6131 29.2008C64.6131 27.5613 65.1353 26.0932 66.1651 24.7654C67.1867 23.4614 68.6608 22.579 70.4389 22.2273V18.9166C70.4389 17.5887 71.531 16.4958 72.8569 16.4958C74.1905 16.4958 75.2747 17.5887 75.2747 18.9166V19.9316V22.2664C76.0389 22.4305 76.7408 22.6572 77.3648 22.9615C77.9967 23.2661 78.4334 23.5084 78.6831 23.7034L79.0498 24.0315C82.2238 26.4134 79.1589 30.6304 76.4212 28.3266C74.5651 26.7645 70.3533 26.4134 70.3533 29.287C70.3533 29.8885 70.6342 30.3725 71.1958 30.7477C71.7572 31.1141 72.4435 31.364 73.2624 31.4816C74.089 31.6062 74.9862 31.8097 75.9689 32.0984C76.9596 32.3872 77.8565 32.7227 78.6831 33.1058C79.502 33.4883 80.1883 34.1675 80.75 35.1361C81.3116 36.1125 81.5922 37.3227 81.5922 38.7752Z" fill="#663366"/>
<path d="M20.5068 73.3711L20.538 73.332" stroke="#663366" stroke-width="5.51688" stroke-miterlimit="10" stroke-linecap="round" stroke-linejoin="round"/>
<path d="M27.1528 64.8569L32.5111 57.9925C34.2581 55.7591 37.5262 55.3374 39.7722 57.0552L54.4903 68.2614C56.7437 69.9797 57.1574 73.2049 55.4183 75.4386L32.9401 104.231C31.2008 106.464 27.9329 106.886 25.6787 105.176L10.9689 93.9618C8.71491 92.2438 8.29354 89.0186 10.0408 86.7852L13.8626 81.889" stroke="#663366" stroke-width="5.51688" stroke-miterlimit="10" stroke-linecap="round" stroke-linejoin="round"/>
</g>
</svg>
