<svg width="200" height="200" viewBox="0 0 200 200" fill="none" xmlns="http://www.w3.org/2000/svg">
<mask id="mask0_471_336" style="mask-type:luminance" maskUnits="userSpaceOnUse" x="1" y="1" width="198" height="198">
<path d="M198.5 1.5V198.5H1.5V1.5H198.5Z" fill="white" stroke="white"/>
</mask>
<g mask="url(#mask0_471_336)">
<mask id="path-2-outside-1_471_336" maskUnits="userSpaceOnUse" x="9" y="12" width="182" height="177" fill="black">
<rect fill="white" x="9" y="12" width="182" height="177"/>
<path fill-rule="evenodd" clip-rule="evenodd" d="M131.442 91.8795C134.645 91.6315 137.428 89.0919 138.913 86.154L122.989 86.1465C124.482 89.5803 127.715 92.1349 131.442 91.8795ZM99.3864 152.432C104.314 152.432 106.797 158.428 103.309 161.914C99.8215 165.408 93.8436 162.921 93.8436 157.984C93.8436 154.919 96.3263 152.432 99.3864 152.432ZM100.789 156.587C99.5514 155.347 97.4138 156.226 97.4138 157.984C97.4138 159.743 99.544 160.629 100.789 159.382C101.554 158.616 101.554 157.361 100.789 156.587ZM25.5901 88.91C30.5179 88.91 33.0006 94.906 29.5129 98.3923C26.0252 101.886 20.0474 99.3992 20.0474 94.4626C20.0474 91.3969 22.5301 88.91 25.5901 88.91ZM26.9927 93.0652C25.7551 91.8254 23.6175 92.7045 23.6175 94.4627C23.6175 96.2209 25.7477 97.1075 26.9927 95.8603C27.7577 95.0939 27.7577 93.839 26.9927 93.0652ZM99.3863 19.9639C104.314 19.9639 106.797 25.9599 103.309 29.4462C99.8214 32.9401 93.8435 30.4531 93.8435 25.5165C93.8435 22.4508 96.3262 19.9639 99.3863 19.9639ZM100.789 24.1191C99.5513 22.8793 97.4137 23.7584 97.4137 25.5166C97.4137 27.2748 99.5438 28.1615 100.789 26.9142C101.554 26.1478 101.554 24.8929 100.789 24.1191ZM174.052 88.9108C178.98 88.9108 181.455 94.9067 177.975 98.3931C174.487 101.887 168.509 99.3999 168.509 94.4634C168.509 91.3977 170.992 88.9108 174.052 88.9108ZM175.447 93.0659C174.21 91.8262 172.072 92.7053 172.072 94.4635C172.072 96.2217 174.202 97.1083 175.447 95.861C176.22 95.0946 176.22 93.8398 175.447 93.0659ZM108.042 37.1417L108.027 37.1266C104.817 42.2961 100.819 46.0981 100.797 46.1131C100.114 46.7668 99.0492 46.7668 98.3667 46.1356C98.3442 46.1206 94.2566 42.3713 90.9488 37.2469C83.096 43.0774 89.1337 52.1991 99.5743 52.1991C103.039 52.1991 106.16 51.1547 108.387 49.4716C113.157 45.8725 112.752 40.4328 108.042 37.1417ZM109.752 34.0309C111.057 31.3486 111.972 28.4483 111.972 25.6081C111.972 18.703 106.317 13 99.3865 13C92.4412 13 86.8009 18.6428 86.8009 25.6081C86.8009 28.5008 87.7834 31.4538 89.171 34.1812C89.051 34.2338 88.9385 34.2939 88.826 34.3765C82.3607 39.0726 81.9632 47.3077 88.601 52.3268C94.7063 56.9326 104.427 56.9326 110.525 52.3268C117.253 47.2475 116.758 38.8772 110.067 34.2111C109.977 34.136 109.865 34.076 109.752 34.0309ZM109.797 166.415C111.08 163.755 111.98 160.892 111.98 158.082C111.98 151.177 106.325 145.474 99.3941 145.474C92.4487 145.474 86.8084 151.117 86.8084 158.082C86.8084 160.87 87.716 163.71 89.0284 166.355C88.8634 166.408 88.7134 166.49 88.5634 166.595C82.098 171.291 81.7006 179.527 88.3384 184.546C94.4437 189.151 104.164 189.151 110.262 184.546C117.102 179.376 116.368 170.863 109.797 166.415ZM90.7537 169.405C93.4689 173.703 97.0539 177.415 98.3665 178.61C99.049 179.248 100.114 179.241 100.797 178.587C102.109 177.325 105.402 173.839 108.049 169.556C112.527 172.884 112.752 178.182 108.109 181.683C105.874 183.374 102.761 184.411 99.2965 184.411C88.6084 184.411 82.9681 175.056 90.6485 169.473C90.686 169.458 90.7236 169.435 90.7537 169.405ZM34.2451 106.087L34.2301 106.072C31.0199 111.242 27.0222 115.044 26.9998 115.059C26.3172 115.712 25.2522 115.712 24.5697 115.081C24.5472 115.066 20.4595 111.317 17.1518 106.192C9.29124 112.023 15.3367 121.145 25.7772 121.145C29.0324 121.145 32.3025 120.145 34.5901 118.417C39.3604 114.818 38.9628 109.371 34.2451 106.087ZM35.9552 102.969C37.2602 100.287 38.1752 97.3863 38.1752 94.5461C38.1752 87.641 32.5199 81.938 25.5895 81.938C18.6441 81.938 13.0038 87.5808 13.0038 94.5461C13.0038 97.4388 13.9864 100.392 15.374 103.119C15.254 103.172 15.1415 103.232 15.029 103.315C8.5636 108.011 8.16614 116.246 14.804 121.265C20.9093 125.871 30.6298 125.871 36.7277 121.265C43.4555 116.186 42.9605 107.815 36.2701 103.149C36.1801 103.081 36.0677 103.022 35.9552 102.969ZM29.3473 76.8515C29.0323 77.7832 28.0198 78.2866 27.0897 77.971C26.1596 77.6554 25.6571 76.6411 25.9721 75.7093C34.3127 51.1691 54.7218 32.1148 79.8329 25.571C80.7854 25.323 81.753 25.8941 82.0005 26.8483C82.248 27.8026 81.6779 28.7718 80.7254 29.0198C56.7549 35.2637 37.358 53.4173 29.3473 76.8515ZM118.085 28.9213C115.82 28.3428 116.697 24.8864 118.962 25.4725C144.246 31.9568 164.805 51.0648 173.182 75.7551C173.497 76.6868 172.995 77.7011 172.065 78.0167C171.135 78.3324 170.122 77.8289 169.807 76.8972C161.804 53.311 142.229 35.1358 118.083 28.9228L118.085 28.9213ZM172.088 121.01C172.56 120.934 172.703 121.032 173.018 121.1C173.423 121.13 173.828 121.145 174.24 121.145C177.705 121.145 180.826 120.1 183.053 118.417C187.786 114.841 187.478 109.491 182.693 106.072C179.483 111.242 175.485 115.044 175.463 115.059C174.78 115.712 173.715 115.712 173.033 115.081C173.01 115.066 168.923 111.317 165.615 106.192C158.347 111.587 162.945 119.838 172.088 121.01ZM168.105 129.47C168.48 128.561 169.523 128.125 170.43 128.508C171.338 128.884 171.773 129.928 171.39 130.837C162.547 152.138 144.547 168.586 122.479 175.394C120.237 176.085 119.194 172.674 121.437 171.983C142.498 165.498 159.666 149.796 168.105 129.47ZM77.2304 171.832C78.168 172.125 78.693 173.124 78.4005 174.071C78.108 175.01 77.1104 175.536 76.1653 175.243C54.4374 168.42 36.5402 151.98 27.796 130.971C27.421 130.062 27.8485 129.018 28.7561 128.642C29.6636 128.266 30.7061 128.695 31.0811 129.604C39.4591 149.703 56.4549 165.272 77.2304 171.832ZM184.418 102.968C185.723 100.285 186.638 97.3852 186.638 94.5449C186.638 87.6399 180.983 81.9369 174.052 81.9369C167.107 81.9369 161.467 87.5797 161.467 94.5449C161.467 97.4377 162.449 100.391 163.837 103.118C163.717 103.171 163.604 103.231 163.492 103.313C157.027 108.009 156.629 116.245 163.267 121.264C169.372 125.869 179.093 125.869 185.191 121.264C191.918 116.184 191.423 107.814 184.733 103.148C184.636 103.08 184.531 103.02 184.418 102.968ZM180.413 88.1733C174.72 82.4704 165.045 86.5653 165.045 94.5524C165.045 101.142 171.473 108.438 174.218 111.263C178.245 106.98 187.613 95.3942 180.413 88.1733ZM31.9508 88.1733C26.2581 82.4704 16.5825 86.5653 16.5825 94.5524C16.5825 101.142 23.0104 108.438 25.7554 111.263C29.7832 106.98 39.1512 95.3942 31.9508 88.1733ZM105.748 151.701C100.055 145.998 90.3797 150.093 90.3797 158.08C90.3797 164.67 96.8076 171.966 99.5526 174.791C103.58 170.508 112.948 158.915 105.748 151.701ZM105.748 19.2268C100.055 13.524 90.3797 17.6189 90.3797 25.6059C90.3797 32.1955 96.8076 39.4914 99.5526 42.3165C103.58 38.0336 112.948 26.4477 105.748 19.2268ZM89.7646 98.1967C88.7821 98.1967 87.9795 99.0007 87.9795 99.985V125.833H69.3411V95.3878C73.1137 94.8994 76.4515 92.2921 78.499 88.9786C80.7267 92.8934 84.6493 95.463 89.0896 95.463C93.3272 95.463 97.1901 92.6454 99.4625 88.9786C101.69 92.8934 105.613 95.463 110.053 95.463C114.291 95.463 118.154 92.6454 120.426 88.9786C122.436 92.51 125.834 94.9671 129.801 95.3953V125.833L109.475 125.841V99.9865C109.475 99.0022 108.68 98.1983 107.69 98.1983L89.7646 98.1967ZM105.905 101.773H91.5496V125.833H105.905V101.773ZM133.38 95.1687V125.831H138.863C139.846 125.831 140.648 126.628 140.648 127.62V135.494C140.648 136.479 139.846 137.283 138.863 137.283H58.5932C57.6106 137.283 56.8081 136.479 56.8081 135.494V127.62C56.8081 126.635 57.6031 125.831 58.5932 125.831H65.7711V95.2207C63.7834 94.7999 61.9084 93.8456 60.2957 92.4181C58.2781 90.6223 56.703 88.0752 55.938 84.8968C55.7955 84.3858 55.833 83.9801 56.073 83.5067L64.3011 65.7217C64.5561 65.053 65.2086 64.5721 65.9662 64.5721H133.095C133.867 64.5721 134.527 65.068 134.775 65.7517L143.04 83.4616C143.31 83.9725 143.355 84.4083 143.175 84.9643C142.305 87.9548 140.633 90.5094 138.57 92.3502C137.025 93.7327 135.233 94.7105 133.38 95.1687ZM117.944 86.1447H102.028C104.353 91.5021 110.406 93.9965 115.259 89.6761C116.317 88.7369 117.247 87.5347 117.944 86.1447ZM96.9806 86.1447H81.0647C83.3897 91.5021 89.4426 93.9965 94.2953 89.6761C95.3529 88.7369 96.2755 87.5347 96.9806 86.1447ZM118.146 82.5682L114.898 68.1418H101.322L101.352 82.5682H118.146ZM118.543 68.1493L121.791 82.5757H138.704L131.969 68.1493H118.543ZM97.7967 82.5682L97.7667 68.1418L84.1685 68.1493L80.8458 82.5757L97.7967 82.5682ZM67.1058 68.1493L60.4304 82.5757H77.1863L80.5091 68.1493H67.1058ZM60.093 86.1447C61.5481 89.4959 64.5183 91.8853 68.1259 91.8853C71.4711 91.8853 74.4863 89.1804 76.0089 86.1447H60.093ZM131.594 129.416H60.3695V133.714H137.068V129.416H131.594Z"/>
</mask>
<path fill-rule="evenodd" clip-rule="evenodd" d="M131.442 91.8795C134.645 91.6315 137.428 89.0919 138.913 86.154L122.989 86.1465C124.482 89.5803 127.715 92.1349 131.442 91.8795ZM99.3864 152.432C104.314 152.432 106.797 158.428 103.309 161.914C99.8215 165.408 93.8436 162.921 93.8436 157.984C93.8436 154.919 96.3263 152.432 99.3864 152.432ZM100.789 156.587C99.5514 155.347 97.4138 156.226 97.4138 157.984C97.4138 159.743 99.544 160.629 100.789 159.382C101.554 158.616 101.554 157.361 100.789 156.587ZM25.5901 88.91C30.5179 88.91 33.0006 94.906 29.5129 98.3923C26.0252 101.886 20.0474 99.3992 20.0474 94.4626C20.0474 91.3969 22.5301 88.91 25.5901 88.91ZM26.9927 93.0652C25.7551 91.8254 23.6175 92.7045 23.6175 94.4627C23.6175 96.2209 25.7477 97.1075 26.9927 95.8603C27.7577 95.0939 27.7577 93.839 26.9927 93.0652ZM99.3863 19.9639C104.314 19.9639 106.797 25.9599 103.309 29.4462C99.8214 32.9401 93.8435 30.4531 93.8435 25.5165C93.8435 22.4508 96.3262 19.9639 99.3863 19.9639ZM100.789 24.1191C99.5513 22.8793 97.4137 23.7584 97.4137 25.5166C97.4137 27.2748 99.5438 28.1615 100.789 26.9142C101.554 26.1478 101.554 24.8929 100.789 24.1191ZM174.052 88.9108C178.98 88.9108 181.455 94.9067 177.975 98.3931C174.487 101.887 168.509 99.3999 168.509 94.4634C168.509 91.3977 170.992 88.9108 174.052 88.9108ZM175.447 93.0659C174.21 91.8262 172.072 92.7053 172.072 94.4635C172.072 96.2217 174.202 97.1083 175.447 95.861C176.22 95.0946 176.22 93.8398 175.447 93.0659ZM108.042 37.1417L108.027 37.1266C104.817 42.2961 100.819 46.0981 100.797 46.1131C100.114 46.7668 99.0492 46.7668 98.3667 46.1356C98.3442 46.1206 94.2566 42.3713 90.9488 37.2469C83.096 43.0774 89.1337 52.1991 99.5743 52.1991C103.039 52.1991 106.16 51.1547 108.387 49.4716C113.157 45.8725 112.752 40.4328 108.042 37.1417ZM109.752 34.0309C111.057 31.3486 111.972 28.4483 111.972 25.6081C111.972 18.703 106.317 13 99.3865 13C92.4412 13 86.8009 18.6428 86.8009 25.6081C86.8009 28.5008 87.7834 31.4538 89.171 34.1812C89.051 34.2338 88.9385 34.2939 88.826 34.3765C82.3607 39.0726 81.9632 47.3077 88.601 52.3268C94.7063 56.9326 104.427 56.9326 110.525 52.3268C117.253 47.2475 116.758 38.8772 110.067 34.2111C109.977 34.136 109.865 34.076 109.752 34.0309ZM109.797 166.415C111.08 163.755 111.98 160.892 111.98 158.082C111.98 151.177 106.325 145.474 99.3941 145.474C92.4487 145.474 86.8084 151.117 86.8084 158.082C86.8084 160.87 87.716 163.71 89.0284 166.355C88.8634 166.408 88.7134 166.49 88.5634 166.595C82.098 171.291 81.7006 179.527 88.3384 184.546C94.4437 189.151 104.164 189.151 110.262 184.546C117.102 179.376 116.368 170.863 109.797 166.415ZM90.7537 169.405C93.4689 173.703 97.0539 177.415 98.3665 178.61C99.049 179.248 100.114 179.241 100.797 178.587C102.109 177.325 105.402 173.839 108.049 169.556C112.527 172.884 112.752 178.182 108.109 181.683C105.874 183.374 102.761 184.411 99.2965 184.411C88.6084 184.411 82.9681 175.056 90.6485 169.473C90.686 169.458 90.7236 169.435 90.7537 169.405ZM34.2451 106.087L34.2301 106.072C31.0199 111.242 27.0222 115.044 26.9998 115.059C26.3172 115.712 25.2522 115.712 24.5697 115.081C24.5472 115.066 20.4595 111.317 17.1518 106.192C9.29124 112.023 15.3367 121.145 25.7772 121.145C29.0324 121.145 32.3025 120.145 34.5901 118.417C39.3604 114.818 38.9628 109.371 34.2451 106.087ZM35.9552 102.969C37.2602 100.287 38.1752 97.3863 38.1752 94.5461C38.1752 87.641 32.5199 81.938 25.5895 81.938C18.6441 81.938 13.0038 87.5808 13.0038 94.5461C13.0038 97.4388 13.9864 100.392 15.374 103.119C15.254 103.172 15.1415 103.232 15.029 103.315C8.5636 108.011 8.16614 116.246 14.804 121.265C20.9093 125.871 30.6298 125.871 36.7277 121.265C43.4555 116.186 42.9605 107.815 36.2701 103.149C36.1801 103.081 36.0677 103.022 35.9552 102.969ZM29.3473 76.8515C29.0323 77.7832 28.0198 78.2866 27.0897 77.971C26.1596 77.6554 25.6571 76.6411 25.9721 75.7093C34.3127 51.1691 54.7218 32.1148 79.8329 25.571C80.7854 25.323 81.753 25.8941 82.0005 26.8483C82.248 27.8026 81.6779 28.7718 80.7254 29.0198C56.7549 35.2637 37.358 53.4173 29.3473 76.8515ZM118.085 28.9213C115.82 28.3428 116.697 24.8864 118.962 25.4725C144.246 31.9568 164.805 51.0648 173.182 75.7551C173.497 76.6868 172.995 77.7011 172.065 78.0167C171.135 78.3324 170.122 77.8289 169.807 76.8972C161.804 53.311 142.229 35.1358 118.083 28.9228L118.085 28.9213ZM172.088 121.01C172.56 120.934 172.703 121.032 173.018 121.1C173.423 121.13 173.828 121.145 174.24 121.145C177.705 121.145 180.826 120.1 183.053 118.417C187.786 114.841 187.478 109.491 182.693 106.072C179.483 111.242 175.485 115.044 175.463 115.059C174.78 115.712 173.715 115.712 173.033 115.081C173.01 115.066 168.923 111.317 165.615 106.192C158.347 111.587 162.945 119.838 172.088 121.01ZM168.105 129.47C168.48 128.561 169.523 128.125 170.43 128.508C171.338 128.884 171.773 129.928 171.39 130.837C162.547 152.138 144.547 168.586 122.479 175.394C120.237 176.085 119.194 172.674 121.437 171.983C142.498 165.498 159.666 149.796 168.105 129.47ZM77.2304 171.832C78.168 172.125 78.693 173.124 78.4005 174.071C78.108 175.01 77.1104 175.536 76.1653 175.243C54.4374 168.42 36.5402 151.98 27.796 130.971C27.421 130.062 27.8485 129.018 28.7561 128.642C29.6636 128.266 30.7061 128.695 31.0811 129.604C39.4591 149.703 56.4549 165.272 77.2304 171.832ZM184.418 102.968C185.723 100.285 186.638 97.3852 186.638 94.5449C186.638 87.6399 180.983 81.9369 174.052 81.9369C167.107 81.9369 161.467 87.5797 161.467 94.5449C161.467 97.4377 162.449 100.391 163.837 103.118C163.717 103.171 163.604 103.231 163.492 103.313C157.027 108.009 156.629 116.245 163.267 121.264C169.372 125.869 179.093 125.869 185.191 121.264C191.918 116.184 191.423 107.814 184.733 103.148C184.636 103.08 184.531 103.02 184.418 102.968ZM180.413 88.1733C174.72 82.4704 165.045 86.5653 165.045 94.5524C165.045 101.142 171.473 108.438 174.218 111.263C178.245 106.98 187.613 95.3942 180.413 88.1733ZM31.9508 88.1733C26.2581 82.4704 16.5825 86.5653 16.5825 94.5524C16.5825 101.142 23.0104 108.438 25.7554 111.263C29.7832 106.98 39.1512 95.3942 31.9508 88.1733ZM105.748 151.701C100.055 145.998 90.3797 150.093 90.3797 158.08C90.3797 164.67 96.8076 171.966 99.5526 174.791C103.58 170.508 112.948 158.915 105.748 151.701ZM105.748 19.2268C100.055 13.524 90.3797 17.6189 90.3797 25.6059C90.3797 32.1955 96.8076 39.4914 99.5526 42.3165C103.58 38.0336 112.948 26.4477 105.748 19.2268ZM89.7646 98.1967C88.7821 98.1967 87.9795 99.0007 87.9795 99.985V125.833H69.3411V95.3878C73.1137 94.8994 76.4515 92.2921 78.499 88.9786C80.7267 92.8934 84.6493 95.463 89.0896 95.463C93.3272 95.463 97.1901 92.6454 99.4625 88.9786C101.69 92.8934 105.613 95.463 110.053 95.463C114.291 95.463 118.154 92.6454 120.426 88.9786C122.436 92.51 125.834 94.9671 129.801 95.3953V125.833L109.475 125.841V99.9865C109.475 99.0022 108.68 98.1983 107.69 98.1983L89.7646 98.1967ZM105.905 101.773H91.5496V125.833H105.905V101.773ZM133.38 95.1687V125.831H138.863C139.846 125.831 140.648 126.628 140.648 127.62V135.494C140.648 136.479 139.846 137.283 138.863 137.283H58.5932C57.6106 137.283 56.8081 136.479 56.8081 135.494V127.62C56.8081 126.635 57.6031 125.831 58.5932 125.831H65.7711V95.2207C63.7834 94.7999 61.9084 93.8456 60.2957 92.4181C58.2781 90.6223 56.703 88.0752 55.938 84.8968C55.7955 84.3858 55.833 83.9801 56.073 83.5067L64.3011 65.7217C64.5561 65.053 65.2086 64.5721 65.9662 64.5721H133.095C133.867 64.5721 134.527 65.068 134.775 65.7517L143.04 83.4616C143.31 83.9725 143.355 84.4083 143.175 84.9643C142.305 87.9548 140.633 90.5094 138.57 92.3502C137.025 93.7327 135.233 94.7105 133.38 95.1687ZM117.944 86.1447H102.028C104.353 91.5021 110.406 93.9965 115.259 89.6761C116.317 88.7369 117.247 87.5347 117.944 86.1447ZM96.9806 86.1447H81.0647C83.3897 91.5021 89.4426 93.9965 94.2953 89.6761C95.3529 88.7369 96.2755 87.5347 96.9806 86.1447ZM118.146 82.5682L114.898 68.1418H101.322L101.352 82.5682H118.146ZM118.543 68.1493L121.791 82.5757H138.704L131.969 68.1493H118.543ZM97.7967 82.5682L97.7667 68.1418L84.1685 68.1493L80.8458 82.5757L97.7967 82.5682ZM67.1058 68.1493L60.4304 82.5757H77.1863L80.5091 68.1493H67.1058ZM60.093 86.1447C61.5481 89.4959 64.5183 91.8853 68.1259 91.8853C71.4711 91.8853 74.4863 89.1804 76.0089 86.1447H60.093ZM131.594 129.416H60.3695V133.714H137.068V129.416H131.594Z" fill="black"/>
<path fill-rule="evenodd" clip-rule="evenodd" d="M131.442 91.8795C134.645 91.6315 137.428 89.0919 138.913 86.154L122.989 86.1465C124.482 89.5803 127.715 92.1349 131.442 91.8795ZM99.3864 152.432C104.314 152.432 106.797 158.428 103.309 161.914C99.8215 165.408 93.8436 162.921 93.8436 157.984C93.8436 154.919 96.3263 152.432 99.3864 152.432ZM100.789 156.587C99.5514 155.347 97.4138 156.226 97.4138 157.984C97.4138 159.743 99.544 160.629 100.789 159.382C101.554 158.616 101.554 157.361 100.789 156.587ZM25.5901 88.91C30.5179 88.91 33.0006 94.906 29.5129 98.3923C26.0252 101.886 20.0474 99.3992 20.0474 94.4626C20.0474 91.3969 22.5301 88.91 25.5901 88.91ZM26.9927 93.0652C25.7551 91.8254 23.6175 92.7045 23.6175 94.4627C23.6175 96.2209 25.7477 97.1075 26.9927 95.8603C27.7577 95.0939 27.7577 93.839 26.9927 93.0652ZM99.3863 19.9639C104.314 19.9639 106.797 25.9599 103.309 29.4462C99.8214 32.9401 93.8435 30.4531 93.8435 25.5165C93.8435 22.4508 96.3262 19.9639 99.3863 19.9639ZM100.789 24.1191C99.5513 22.8793 97.4137 23.7584 97.4137 25.5166C97.4137 27.2748 99.5438 28.1615 100.789 26.9142C101.554 26.1478 101.554 24.8929 100.789 24.1191ZM174.052 88.9108C178.98 88.9108 181.455 94.9067 177.975 98.3931C174.487 101.887 168.509 99.3999 168.509 94.4634C168.509 91.3977 170.992 88.9108 174.052 88.9108ZM175.447 93.0659C174.21 91.8262 172.072 92.7053 172.072 94.4635C172.072 96.2217 174.202 97.1083 175.447 95.861C176.22 95.0946 176.22 93.8398 175.447 93.0659ZM108.042 37.1417L108.027 37.1266C104.817 42.2961 100.819 46.0981 100.797 46.1131C100.114 46.7668 99.0492 46.7668 98.3667 46.1356C98.3442 46.1206 94.2566 42.3713 90.9488 37.2469C83.096 43.0774 89.1337 52.1991 99.5743 52.1991C103.039 52.1991 106.16 51.1547 108.387 49.4716C113.157 45.8725 112.752 40.4328 108.042 37.1417ZM109.752 34.0309C111.057 31.3486 111.972 28.4483 111.972 25.6081C111.972 18.703 106.317 13 99.3865 13C92.4412 13 86.8009 18.6428 86.8009 25.6081C86.8009 28.5008 87.7834 31.4538 89.171 34.1812C89.051 34.2338 88.9385 34.2939 88.826 34.3765C82.3607 39.0726 81.9632 47.3077 88.601 52.3268C94.7063 56.9326 104.427 56.9326 110.525 52.3268C117.253 47.2475 116.758 38.8772 110.067 34.2111C109.977 34.136 109.865 34.076 109.752 34.0309ZM109.797 166.415C111.08 163.755 111.98 160.892 111.98 158.082C111.98 151.177 106.325 145.474 99.3941 145.474C92.4487 145.474 86.8084 151.117 86.8084 158.082C86.8084 160.87 87.716 163.71 89.0284 166.355C88.8634 166.408 88.7134 166.49 88.5634 166.595C82.098 171.291 81.7006 179.527 88.3384 184.546C94.4437 189.151 104.164 189.151 110.262 184.546C117.102 179.376 116.368 170.863 109.797 166.415ZM90.7537 169.405C93.4689 173.703 97.0539 177.415 98.3665 178.61C99.049 179.248 100.114 179.241 100.797 178.587C102.109 177.325 105.402 173.839 108.049 169.556C112.527 172.884 112.752 178.182 108.109 181.683C105.874 183.374 102.761 184.411 99.2965 184.411C88.6084 184.411 82.9681 175.056 90.6485 169.473C90.686 169.458 90.7236 169.435 90.7537 169.405ZM34.2451 106.087L34.2301 106.072C31.0199 111.242 27.0222 115.044 26.9998 115.059C26.3172 115.712 25.2522 115.712 24.5697 115.081C24.5472 115.066 20.4595 111.317 17.1518 106.192C9.29124 112.023 15.3367 121.145 25.7772 121.145C29.0324 121.145 32.3025 120.145 34.5901 118.417C39.3604 114.818 38.9628 109.371 34.2451 106.087ZM35.9552 102.969C37.2602 100.287 38.1752 97.3863 38.1752 94.5461C38.1752 87.641 32.5199 81.938 25.5895 81.938C18.6441 81.938 13.0038 87.5808 13.0038 94.5461C13.0038 97.4388 13.9864 100.392 15.374 103.119C15.254 103.172 15.1415 103.232 15.029 103.315C8.5636 108.011 8.16614 116.246 14.804 121.265C20.9093 125.871 30.6298 125.871 36.7277 121.265C43.4555 116.186 42.9605 107.815 36.2701 103.149C36.1801 103.081 36.0677 103.022 35.9552 102.969ZM29.3473 76.8515C29.0323 77.7832 28.0198 78.2866 27.0897 77.971C26.1596 77.6554 25.6571 76.6411 25.9721 75.7093C34.3127 51.1691 54.7218 32.1148 79.8329 25.571C80.7854 25.323 81.753 25.8941 82.0005 26.8483C82.248 27.8026 81.6779 28.7718 80.7254 29.0198C56.7549 35.2637 37.358 53.4173 29.3473 76.8515ZM118.085 28.9213C115.82 28.3428 116.697 24.8864 118.962 25.4725C144.246 31.9568 164.805 51.0648 173.182 75.7551C173.497 76.6868 172.995 77.7011 172.065 78.0167C171.135 78.3324 170.122 77.8289 169.807 76.8972C161.804 53.311 142.229 35.1358 118.083 28.9228L118.085 28.9213ZM172.088 121.01C172.56 120.934 172.703 121.032 173.018 121.1C173.423 121.13 173.828 121.145 174.24 121.145C177.705 121.145 180.826 120.1 183.053 118.417C187.786 114.841 187.478 109.491 182.693 106.072C179.483 111.242 175.485 115.044 175.463 115.059C174.78 115.712 173.715 115.712 173.033 115.081C173.01 115.066 168.923 111.317 165.615 106.192C158.347 111.587 162.945 119.838 172.088 121.01ZM168.105 129.47C168.48 128.561 169.523 128.125 170.43 128.508C171.338 128.884 171.773 129.928 171.39 130.837C162.547 152.138 144.547 168.586 122.479 175.394C120.237 176.085 119.194 172.674 121.437 171.983C142.498 165.498 159.666 149.796 168.105 129.47ZM77.2304 171.832C78.168 172.125 78.693 173.124 78.4005 174.071C78.108 175.01 77.1104 175.536 76.1653 175.243C54.4374 168.42 36.5402 151.98 27.796 130.971C27.421 130.062 27.8485 129.018 28.7561 128.642C29.6636 128.266 30.7061 128.695 31.0811 129.604C39.4591 149.703 56.4549 165.272 77.2304 171.832ZM184.418 102.968C185.723 100.285 186.638 97.3852 186.638 94.5449C186.638 87.6399 180.983 81.9369 174.052 81.9369C167.107 81.9369 161.467 87.5797 161.467 94.5449C161.467 97.4377 162.449 100.391 163.837 103.118C163.717 103.171 163.604 103.231 163.492 103.313C157.027 108.009 156.629 116.245 163.267 121.264C169.372 125.869 179.093 125.869 185.191 121.264C191.918 116.184 191.423 107.814 184.733 103.148C184.636 103.08 184.531 103.02 184.418 102.968ZM180.413 88.1733C174.72 82.4704 165.045 86.5653 165.045 94.5524C165.045 101.142 171.473 108.438 174.218 111.263C178.245 106.98 187.613 95.3942 180.413 88.1733ZM31.9508 88.1733C26.2581 82.4704 16.5825 86.5653 16.5825 94.5524C16.5825 101.142 23.0104 108.438 25.7554 111.263C29.7832 106.98 39.1512 95.3942 31.9508 88.1733ZM105.748 151.701C100.055 145.998 90.3797 150.093 90.3797 158.08C90.3797 164.67 96.8076 171.966 99.5526 174.791C103.58 170.508 112.948 158.915 105.748 151.701ZM105.748 19.2268C100.055 13.524 90.3797 17.6189 90.3797 25.6059C90.3797 32.1955 96.8076 39.4914 99.5526 42.3165C103.58 38.0336 112.948 26.4477 105.748 19.2268ZM89.7646 98.1967C88.7821 98.1967 87.9795 99.0007 87.9795 99.985V125.833H69.3411V95.3878C73.1137 94.8994 76.4515 92.2921 78.499 88.9786C80.7267 92.8934 84.6493 95.463 89.0896 95.463C93.3272 95.463 97.1901 92.6454 99.4625 88.9786C101.69 92.8934 105.613 95.463 110.053 95.463C114.291 95.463 118.154 92.6454 120.426 88.9786C122.436 92.51 125.834 94.9671 129.801 95.3953V125.833L109.475 125.841V99.9865C109.475 99.0022 108.68 98.1983 107.69 98.1983L89.7646 98.1967ZM105.905 101.773H91.5496V125.833H105.905V101.773ZM133.38 95.1687V125.831H138.863C139.846 125.831 140.648 126.628 140.648 127.62V135.494C140.648 136.479 139.846 137.283 138.863 137.283H58.5932C57.6106 137.283 56.8081 136.479 56.8081 135.494V127.62C56.8081 126.635 57.6031 125.831 58.5932 125.831H65.7711V95.2207C63.7834 94.7999 61.9084 93.8456 60.2957 92.4181C58.2781 90.6223 56.703 88.0752 55.938 84.8968C55.7955 84.3858 55.833 83.9801 56.073 83.5067L64.3011 65.7217C64.5561 65.053 65.2086 64.5721 65.9662 64.5721H133.095C133.867 64.5721 134.527 65.068 134.775 65.7517L143.04 83.4616C143.31 83.9725 143.355 84.4083 143.175 84.9643C142.305 87.9548 140.633 90.5094 138.57 92.3502C137.025 93.7327 135.233 94.7105 133.38 95.1687ZM117.944 86.1447H102.028C104.353 91.5021 110.406 93.9965 115.259 89.6761C116.317 88.7369 117.247 87.5347 117.944 86.1447ZM96.9806 86.1447H81.0647C83.3897 91.5021 89.4426 93.9965 94.2953 89.6761C95.3529 88.7369 96.2755 87.5347 96.9806 86.1447ZM118.146 82.5682L114.898 68.1418H101.322L101.352 82.5682H118.146ZM118.543 68.1493L121.791 82.5757H138.704L131.969 68.1493H118.543ZM97.7967 82.5682L97.7667 68.1418L84.1685 68.1493L80.8458 82.5757L97.7967 82.5682ZM67.1058 68.1493L60.4304 82.5757H77.1863L80.5091 68.1493H67.1058ZM60.093 86.1447C61.5481 89.4959 64.5183 91.8853 68.1259 91.8853C71.4711 91.8853 74.4863 89.1804 76.0089 86.1447H60.093ZM131.594 129.416H60.3695V133.714H137.068V129.416H131.594Z" stroke="black" stroke-width="0.5" mask="url(#path-2-outside-1_471_336)"/>
</g>
</svg>
