<svg width="150" height="150" viewBox="0 0 150 150" fill="none" xmlns="http://www.w3.org/2000/svg">
<path d="M111.131 63.8037C106.344 66.7076 100.727 68.3795 94.7186 68.3795C86.1722 68.3795 78.4158 64.9964 72.7158 59.4961" stroke="#663366" stroke-width="4.22535" stroke-miterlimit="10" stroke-linecap="round" stroke-linejoin="round"/>
<path d="M125.383 44.7188C124.119 49.5599 121.739 53.9503 118.534 57.5979" stroke="#663366" stroke-width="4.22535" stroke-miterlimit="10" stroke-linecap="round" stroke-linejoin="round"/>
<path d="M63.084 34.7887C64.0674 18.1721 77.8544 5 94.7181 5C111.652 5 125.483 18.282 126.364 34.9963" stroke="#663366" stroke-width="4.22535" stroke-miterlimit="10" stroke-linecap="round" stroke-linejoin="round"/>
<path d="M104.369 6.53125C104.006 6.73998 103.711 6.98928 103.427 7.32139C101.976 9.01407 102.272 11.5512 104.025 12.8721C104.031 12.8766 104.037 12.8814 104.043 12.8859C105.038 13.6267 105.636 14.7989 105.543 16.0363C105.281 19.5177 107.087 22.9777 110.392 24.662C114.699 26.8566 119.942 25.2374 122.255 21.0321" stroke="#663366" stroke-width="4.22535" stroke-miterlimit="10" stroke-linecap="round" stroke-linejoin="round"/>
<path d="M104.295 48.2413C108.963 48.2413 112.746 44.4577 112.746 39.7905C112.746 35.1234 108.963 31.3398 104.295 31.3398C99.6282 31.3398 95.8447 35.1234 95.8447 39.7905C95.8447 44.4577 99.6282 48.2413 104.295 48.2413Z" stroke="#663366" stroke-width="4.22535" stroke-miterlimit="10" stroke-linecap="round" stroke-linejoin="round"/>
<path d="M90.7743 25.2302C93.4968 25.2302 95.7039 23.0232 95.7039 20.3007C95.7039 17.5781 93.4968 15.3711 90.7743 15.3711C88.0518 15.3711 85.8447 17.5781 85.8447 20.3007C85.8447 23.0232 88.0518 25.2302 90.7743 25.2302Z" stroke="#663366" stroke-width="4.22535" stroke-miterlimit="10" stroke-linecap="round" stroke-linejoin="round"/>
<path d="M73.1363 52.5193C79.0842 50.8708 83.4504 45.4179 83.4504 38.9452C83.4504 34.7323 81.5997 30.9528 78.6675 28.3725C77.038 26.9385 76.1219 24.8787 76.0005 22.7114C75.9988 22.6835 75.9971 22.6556 75.9954 22.628C75.7847 19.5075 73.5143 16.9204 70.5352 16.25" stroke="#663366" stroke-width="4.22535" stroke-miterlimit="10" stroke-linecap="round" stroke-linejoin="round"/>
<path d="M90.7745 59.3674C92.8747 59.3674 94.5773 57.6648 94.5773 55.5645C94.5773 53.4643 92.8747 51.7617 90.7745 51.7617C88.6743 51.7617 86.9717 53.4643 86.9717 55.5645C86.9717 57.6648 88.6743 59.3674 90.7745 59.3674Z" stroke="#663366" stroke-width="4.22535" stroke-miterlimit="10" stroke-linecap="round" stroke-linejoin="round"/>
<path d="M72.606 94.3125V145.002H47.2539" stroke="#663366" stroke-width="4.22535" stroke-miterlimit="10" stroke-linecap="round" stroke-linejoin="round"/>
<path d="M46.7354 34.8594H72.6058V84.4518" stroke="#663366" stroke-width="4.22535" stroke-miterlimit="10" stroke-linecap="round" stroke-linejoin="round"/>
<path d="M21.9014 77.3616V34.8594H36.876" stroke="#663366" stroke-width="4.22535" stroke-miterlimit="10" stroke-linecap="round" stroke-linejoin="round"/>
<path d="M111.197 144.999H94.2959V85.8438H111.125" stroke="#663366" stroke-width="4.22535" stroke-miterlimit="10" stroke-linecap="round" stroke-linejoin="round"/>
<path d="M111.125 102.748H102.746V94.2969H111.125" stroke="#663366" stroke-width="4.22535" stroke-miterlimit="10" stroke-linecap="round" stroke-linejoin="round"/>
<path d="M111.086 119.65H102.746V111.199H111.074" stroke="#663366" stroke-width="4.22535" stroke-miterlimit="10" stroke-linecap="round" stroke-linejoin="round"/>
<path d="M94.1545 121.059H72.7461" stroke="#663366" stroke-width="4.22535" stroke-miterlimit="10" stroke-linecap="round" stroke-linejoin="round"/>
<path d="M72.7461 114.016H94.1545" stroke="#663366" stroke-width="4.22535" stroke-miterlimit="10" stroke-linecap="round" stroke-linejoin="round"/>
<path d="M94.1545 136.551H72.7461" stroke="#663366" stroke-width="4.22535" stroke-miterlimit="10" stroke-linecap="round" stroke-linejoin="round"/>
<path d="M72.7461 129.508H94.1545" stroke="#663366" stroke-width="4.22535" stroke-miterlimit="10" stroke-linecap="round" stroke-linejoin="round"/>
<path d="M111.125 136.548H102.746V128.098H111.074" stroke="#663366" stroke-width="4.22535" stroke-miterlimit="10" stroke-linecap="round" stroke-linejoin="round"/>
<path d="M145 126.69V145H111.197V57.6758H145V116.831" stroke="#663366" stroke-width="4.22535" stroke-miterlimit="10" stroke-linecap="round" stroke-linejoin="round"/>
<path d="M136.549 66.1289H119.647V77.3965H136.549V66.1289Z" stroke="#663366" stroke-width="4.22535" stroke-miterlimit="10" stroke-linecap="round" stroke-linejoin="round"/>
<path d="M136.549 85.8438H119.647V97.1114H136.549V85.8438Z" stroke="#663366" stroke-width="4.22535" stroke-miterlimit="10" stroke-linecap="round" stroke-linejoin="round"/>
<path d="M136.549 105.562H119.647V116.83H136.549V105.562Z" stroke="#663366" stroke-width="4.22535" stroke-miterlimit="10" stroke-linecap="round" stroke-linejoin="round"/>
<path d="M136.549 125.281H119.647V136.549H136.549V125.281Z" stroke="#663366" stroke-width="4.22535" stroke-miterlimit="10" stroke-linecap="round" stroke-linejoin="round"/>
<path d="M94.1545 105.562H72.7461" stroke="#663366" stroke-width="4.22535" stroke-miterlimit="10" stroke-linecap="round" stroke-linejoin="round"/>
<path d="M87.6764 92.466L87.1657 91.2742C86.2186 89.0646 84.458 87.304 82.2488 86.3573L81.0566 85.8463L82.2485 85.3356C84.458 84.3885 86.2186 82.628 87.1654 80.4187L87.6764 79.2266L88.1871 80.4184C89.1341 82.628 90.8947 84.3885 93.104 85.3353L94.2958 85.846L93.104 86.3567C90.8944 87.3037 89.1338 89.0643 88.1871 91.2736L87.6764 92.466Z" stroke="#663366" stroke-width="4.22535" stroke-miterlimit="10" stroke-linecap="round" stroke-linejoin="round"/>
<path d="M138.38 25.8449L137.87 24.6531C136.923 22.4435 135.162 20.6829 132.953 19.7362L131.761 19.2252L132.953 18.7145C135.162 17.7674 136.923 16.0069 137.869 13.7976L138.38 12.6055L138.891 13.7973C139.838 16.0069 141.599 17.7674 143.808 18.7142L145 19.2252L143.808 19.7359C141.599 20.6829 139.838 22.4435 138.891 24.6528L138.38 25.8449Z" stroke="#663366" stroke-width="4.22535" stroke-miterlimit="10" stroke-linecap="round" stroke-linejoin="round"/>
<path d="M12.7465 34.0164L12.1487 32.6217C11.0406 30.0361 8.98028 27.9758 6.39465 26.8677L5 26.2699L6.39465 25.6722C8.98028 24.564 11.0406 22.5037 12.1485 19.9184L12.7465 18.5234L13.3442 19.9181C14.4524 22.5037 16.5127 24.564 19.098 25.6719L20.493 26.2699L19.0983 26.8677C16.5127 27.9758 14.4524 30.0361 13.3445 32.6215L12.7465 34.0164Z" stroke="#663366" stroke-width="4.22535" stroke-miterlimit="10" stroke-linecap="round" stroke-linejoin="round"/>
<path d="M44.0143 23.3099L43.3078 21.6614C41.9982 18.6056 39.5633 16.171 36.5078 14.8614L34.8594 14.1549L36.5078 13.4485C39.5636 12.1389 41.9982 9.70394 43.3078 6.64845L44.0143 5L44.7208 6.64845C46.0304 9.70422 48.4653 12.1389 51.5208 13.4485L53.1692 14.1549L51.5208 14.8614C48.465 16.171 46.0304 18.6059 44.7208 21.6614L44.0143 23.3099Z" stroke="#663366" stroke-width="4.22535" stroke-miterlimit="10" stroke-linecap="round" stroke-linejoin="round"/>
<path d="M64.1554 43.5938H30.3525V52.0445H64.1554V43.5938Z" stroke="#663366" stroke-width="4.22535" stroke-miterlimit="10" stroke-linecap="round" stroke-linejoin="round"/>
<path d="M64.1554 60.4922H30.3525V68.9429H64.1554V60.4922Z" stroke="#663366" stroke-width="4.22535" stroke-miterlimit="10" stroke-linecap="round" stroke-linejoin="round"/>
<path d="M46.5859 77.3945H64.1555V85.8452H47.3411" stroke="#663366" stroke-width="4.22535" stroke-miterlimit="10" stroke-linecap="round" stroke-linejoin="round"/>
<path d="M47.3408 94.2969H64.1552V102.748H47.3586" stroke="#663366" stroke-width="4.22535" stroke-miterlimit="10" stroke-linecap="round" stroke-linejoin="round"/>
<path d="M47.3408 111.199H64.1552V119.65H47.3408" stroke="#663366" stroke-width="4.22535" stroke-miterlimit="10" stroke-linecap="round" stroke-linejoin="round"/>
<path d="M47.3403 128.098H64.1547V136.548H47.3223" stroke="#663366" stroke-width="4.22535" stroke-miterlimit="10" stroke-linecap="round" stroke-linejoin="round"/>
<path d="M47.2535 77.3945H5V145H47.2535V77.3945Z" stroke="#663366" stroke-width="4.22535" stroke-miterlimit="10" stroke-linecap="round" stroke-linejoin="round"/>
<path d="M21.9019 85.8438H13.4512V94.2945H21.9019V85.8438Z" stroke="#663366" stroke-width="4.22535" stroke-miterlimit="10" stroke-linecap="round" stroke-linejoin="round"/>
<path d="M38.8032 85.8438H30.3525V94.2945H38.8032V85.8438Z" stroke="#663366" stroke-width="4.22535" stroke-miterlimit="10" stroke-linecap="round" stroke-linejoin="round"/>
<path d="M21.9019 102.746H13.4512V111.197H21.9019V102.746Z" stroke="#663366" stroke-width="4.22535" stroke-miterlimit="10" stroke-linecap="round" stroke-linejoin="round"/>
<path d="M38.8032 102.746H30.3525V111.197H38.8032V102.746Z" stroke="#663366" stroke-width="4.22535" stroke-miterlimit="10" stroke-linecap="round" stroke-linejoin="round"/>
<path d="M21.9019 119.648H13.4512V128.099H21.9019V119.648Z" stroke="#663366" stroke-width="4.22535" stroke-miterlimit="10" stroke-linecap="round" stroke-linejoin="round"/>
<path d="M38.8032 119.648H30.3525V128.099H38.8032V119.648Z" stroke="#663366" stroke-width="4.22535" stroke-miterlimit="10" stroke-linecap="round" stroke-linejoin="round"/>
<path d="M13.4512 144.956V136.551H38.8033V144.95" stroke="#663366" stroke-width="4.22535" stroke-miterlimit="10" stroke-linecap="round" stroke-linejoin="round"/>
<path d="M128.099 66.2695V77.2554" stroke="#663366" stroke-width="4.22535" stroke-miterlimit="10" stroke-linecap="round" stroke-linejoin="round"/>
<path d="M128.099 85.9883V96.9742" stroke="#663366" stroke-width="4.22535" stroke-miterlimit="10" stroke-linecap="round" stroke-linejoin="round"/>
<path d="M128.099 105.703V116.689" stroke="#663366" stroke-width="4.22535" stroke-miterlimit="10" stroke-linecap="round" stroke-linejoin="round"/>
<path d="M128.099 125.422V136.408" stroke="#663366" stroke-width="4.22535" stroke-miterlimit="10" stroke-linecap="round" stroke-linejoin="round"/>
<path d="M72.6055 145H94.2956" stroke="#663366" stroke-width="4.22535" stroke-miterlimit="10" stroke-linecap="round" stroke-linejoin="round"/>
<path d="M83.4512 114.156V120.917" stroke="#663366" stroke-width="4.22535" stroke-miterlimit="10" stroke-linecap="round" stroke-linejoin="round"/>
<path d="M83.4512 129.648V136.409" stroke="#663366" stroke-width="4.22535" stroke-miterlimit="10" stroke-linecap="round" stroke-linejoin="round"/>
</svg>
