<svg width="150" height="150" viewBox="0 0 150 150" fill="none" xmlns="http://www.w3.org/2000/svg">
<path d="M124.632 79.5065H118.346V77.5346C118.346 68.9076 125.339 61.9141 133.966 61.9141H138.281C139.37 61.9141 140.252 62.7969 140.252 63.8859C140.253 72.5129 133.259 79.5065 124.632 79.5065Z" stroke="white" stroke-width="4.22536" stroke-miterlimit="10" stroke-linecap="round" stroke-linejoin="round"/>
<path d="M112.129 79.5065H118.415V77.5346C118.415 68.9076 111.421 61.9141 102.794 61.9141H98.4796C97.3906 61.9141 96.5078 62.7969 96.5078 63.8859C96.5078 72.5129 103.502 79.5065 112.129 79.5065Z" stroke="white" stroke-width="4.22536" stroke-miterlimit="10" stroke-linecap="round" stroke-linejoin="round"/>
<path d="M118.389 77.5312V92.498" stroke="white" stroke-width="4.22536" stroke-miterlimit="10" stroke-linecap="round" stroke-linejoin="round"/>
<path d="M140.258 136.25H96.5V145H140.258V136.25Z" stroke="white" stroke-width="4.22536" stroke-miterlimit="10" stroke-linecap="round" stroke-linejoin="round"/>
<path d="M140.258 127.5H96.5V136.25H140.258V127.5Z" stroke="white" stroke-width="4.22536" stroke-miterlimit="10" stroke-linecap="round" stroke-linejoin="round"/>
<path d="M140.258 118.75H96.5V127.5H140.258V118.75Z" stroke="white" stroke-width="4.22536" stroke-miterlimit="10" stroke-linecap="round" stroke-linejoin="round"/>
<path d="M140.258 110H96.5V118.75H140.258V110Z" stroke="white" stroke-width="4.22536" stroke-miterlimit="10" stroke-linecap="round" stroke-linejoin="round"/>
<path d="M140.258 101.25H96.5V110H140.258V101.25Z" stroke="white" stroke-width="4.22536" stroke-miterlimit="10" stroke-linecap="round" stroke-linejoin="round"/>
<path d="M140.258 92.5H96.5V101.25H140.258V92.5Z" stroke="white" stroke-width="4.22536" stroke-miterlimit="10" stroke-linecap="round" stroke-linejoin="round"/>
<path d="M96.5081 136.25H52.75V145H96.5081V136.25Z" stroke="white" stroke-width="4.22536" stroke-miterlimit="10" stroke-linecap="round" stroke-linejoin="round"/>
<path d="M96.5081 127.5H52.75V136.25H96.5081V127.5Z" stroke="white" stroke-width="4.22536" stroke-miterlimit="10" stroke-linecap="round" stroke-linejoin="round"/>
<path d="M96.5081 118.75H52.75V127.5H96.5081V118.75Z" stroke="white" stroke-width="4.22536" stroke-miterlimit="10" stroke-linecap="round" stroke-linejoin="round"/>
<path d="M78.9472 110H96.5078V118.75H52.75V110H69.7416" stroke="white" stroke-width="4.22536" stroke-miterlimit="10" stroke-linecap="round" stroke-linejoin="round"/>
<path d="M52.7581 136.25H9V145H52.7581V136.25Z" stroke="white" stroke-width="4.22536" stroke-miterlimit="10" stroke-linecap="round" stroke-linejoin="round"/>
<path d="M35.4817 127.5H52.7581V136.252H9V127.5H26.2761" stroke="white" stroke-width="4.22536" stroke-miterlimit="10" stroke-linecap="round" stroke-linejoin="round"/>
<path d="M9 101.25H35.7899L52.7578 83.7498H70.1902L131.381 13.75" stroke="white" stroke-width="4.22536" stroke-miterlimit="10" stroke-linecap="round" stroke-linejoin="round"/>
<path d="M122.877 13.75H131.381V22.5001" stroke="white" stroke-width="4.22536" stroke-miterlimit="10" stroke-linecap="round" stroke-linejoin="round"/>
<path d="M30.7899 36.2547C31.2127 37.6646 32.5105 38.6299 33.9823 38.6299H36.2677C38.3049 38.6299 39.9564 36.9784 39.9564 34.9412C39.9564 32.904 38.3049 31.2525 36.2677 31.2525H34.2415C32.2043 31.2525 30.5527 29.6009 30.5527 27.5637C30.5527 25.5266 32.2043 23.875 34.2415 23.875H36.0519C37.5237 23.875 38.8212 24.8404 39.2443 26.2502" stroke="white" stroke-width="4.22536" stroke-miterlimit="10" stroke-linecap="round" stroke-linejoin="round"/>
<path d="M35.2539 19.9844V23.8742" stroke="white" stroke-width="4.22536" stroke-miterlimit="10" stroke-linecap="round" stroke-linejoin="round"/>
<path d="M35.2539 38.6289V42.5188" stroke="white" stroke-width="4.22536" stroke-miterlimit="10" stroke-linecap="round" stroke-linejoin="round"/>
<path d="M35.2539 48.75C44.9189 48.75 52.7539 40.915 52.7539 31.25C52.7539 21.585 44.9189 13.75 35.2539 13.75C25.5889 13.75 17.7539 21.585 17.7539 31.25C17.7539 40.915 25.5889 48.75 35.2539 48.75Z" stroke="white" stroke-width="4.22536" stroke-miterlimit="10" stroke-linecap="round" stroke-linejoin="round"/>
<path d="M61.0885 35.9296C58.8828 48.1972 48.1561 57.5015 35.2546 57.5015C20.756 57.5015 9.00391 45.7493 9.00391 31.2507C9.00391 16.7521 20.7557 5 35.2544 5C48.2093 5 58.9699 14.3803 61.1135 26.7211" stroke="white" stroke-width="4.22536" stroke-miterlimit="10" stroke-linecap="round" stroke-linejoin="round"/>
<path d="M39.6281 70.711V83.8358H30.8783V70.711H24.9453L35.2532 57.5859L45.5614 70.711H39.6281Z" stroke="white" stroke-width="4.22536" stroke-miterlimit="10" stroke-linecap="round" stroke-linejoin="round"/>
</svg>
