<svg width="150" height="150" viewBox="0 0 150 150" fill="none" xmlns="http://www.w3.org/2000/svg">
<path d="M86.2903 25.3242H5V38.8726H86.2903V25.3242ZM81.7742 34.3565H9.51613V29.8403H81.7742V34.3565Z" fill="#663366"/>
<path d="M52.4202 63.7093H59.1944V50.1609H52.4202V43.3867H38.8718V50.1609H32.0977V63.7093H38.8718V70.4835H52.4202V63.7093ZM47.9041 65.9674H43.388V59.1932H36.6138V54.677H43.388V47.9028H47.9041V54.677H54.6783V59.1932H47.9041V65.9674Z" fill="#663366"/>
<path d="M14.0318 9.51613H23.064V20.8065H27.5801V9.51613H36.6124V20.8065H41.1285V9.51613H50.1608V20.8065H54.6769V9.51613H63.7092V20.8065H68.2253V9.51613H77.2576V20.8065H81.7737V5H9.51562V20.8065H14.0318V9.51613Z" fill="#663366"/>
<path d="M77.2576 140.483H63.7092V117.903H27.5801V140.483H14.0318V43.3867H9.51562V145H81.7737V43.3867H77.2576V140.483ZM59.193 140.483H47.9027V122.419H59.193V140.483ZM32.0963 122.419H43.3866V140.483H32.0963V122.419Z" fill="#663366"/>
<path d="M27.5806 77.2578H23.0645V81.7739H27.5806V77.2578Z" fill="#663366"/>
<path d="M47.9028 77.2578H43.3867V81.7739H47.9028V77.2578Z" fill="#663366"/>
<path d="M68.2251 77.2578H63.709V81.7739H68.2251V77.2578Z" fill="#663366"/>
<path d="M27.5806 93.0664H23.0645V97.5825H27.5806V93.0664Z" fill="#663366"/>
<path d="M47.9028 93.0664H43.3867V97.5825H47.9028V93.0664Z" fill="#663366"/>
<path d="M68.2251 93.0664H63.709V97.5825H68.2251V93.0664Z" fill="#663366"/>
<path d="M27.5806 108.871H23.0645V113.387H27.5806V108.871Z" fill="#663366"/>
<path d="M47.9028 108.871H43.3867V113.387H47.9028V108.871Z" fill="#663366"/>
<path d="M68.2251 108.871H63.709V113.387H68.2251V108.871Z" fill="#663366"/>
<path d="M140.485 140.483H86.291V144.999H145.001V86.2891H140.485V140.483Z" fill="#663366"/>
<path d="M86.291 81.7749H145.001V68.2266H86.291V81.7749ZM122.42 77.2588H117.904V72.7427H122.42V77.2588ZM126.936 72.7427H131.452V77.2588H126.936V72.7427ZM113.388 77.2588H108.872V72.7427H113.388V77.2588ZM104.356 77.2588H99.8394V72.7427H104.356V77.2588ZM140.485 77.2588H135.968V72.7427H140.485V77.2588ZM90.8071 72.7427H95.3233V77.2588H90.8071V72.7427Z" fill="#663366"/>
<path d="M108.871 86.2891H95.3223V99.8374H108.871V86.2891ZM104.355 95.3213H99.8384V90.8052H104.355V95.3213Z" fill="#663366"/>
<path d="M131.451 86.2891H117.902V99.8374H131.451V86.2891ZM126.935 95.3213H122.418V90.8052H126.935V95.3213Z" fill="#663366"/>
<path d="M95.3223 117.904H108.871V104.355H95.3223V117.904ZM99.8384 108.872H104.355V113.388H99.8384V108.872Z" fill="#663366"/>
<path d="M117.902 117.904H131.451V104.355H117.902V117.904ZM122.418 108.872H126.935V113.388H122.418V108.872Z" fill="#663366"/>
<path d="M95.3223 135.966H108.871V122.418H95.3223V135.966ZM99.8384 126.934H104.355V131.45H99.8384V126.934Z" fill="#663366"/>
<path d="M117.902 135.966H131.451V122.418H117.902V135.966ZM122.418 126.934H126.935V131.45H122.418V126.934Z" fill="#663366"/>
<path d="M140.483 38.8697V27.5794H131.451V16.2891H126.935V27.5794H117.903V38.8697H113.387V63.7084H117.903V43.3858H140.483V63.7084H145V38.8697H140.483ZM122.419 32.0955H135.967V38.8697H122.419V32.0955Z" fill="#663366"/>
<path d="M135.968 63.7088V47.9023H122.42V63.7088H126.936V52.4185H131.452V63.7088H135.968Z" fill="#663366"/>
<path d="M86.291 63.7085H90.8071V54.6763H108.872V50.1602H86.291V63.7085Z" fill="#663366"/>
</svg>
