<svg width="150" height="150" viewBox="0 0 150 150" fill="none" xmlns="http://www.w3.org/2000/svg">
<mask id="mask0_767_234" style="mask-type:luminance" maskUnits="userSpaceOnUse" x="5" y="5" width="140" height="140">
<path d="M5 5H145V145H5V5Z" fill="white"/>
</mask>
<g mask="url(#mask0_767_234)">
<path d="M140.214 97.6953H128.164C126.654 97.6953 125.43 98.9198 125.43 100.43V140.215C125.43 141.725 126.654 142.949 128.164 142.949H140.214C141.724 142.949 142.949 141.725 142.949 140.215V100.43C142.949 98.9198 141.724 97.6953 140.214 97.6953Z" stroke="white" stroke-width="4.10156" stroke-miterlimit="10" stroke-linecap="round" stroke-linejoin="round"/>
<path d="M81.8066 62.0358V83.6953" stroke="white" stroke-width="4.10156" stroke-miterlimit="10" stroke-linecap="round" stroke-linejoin="round"/>
<path d="M65.4926 142.949H20.2188C17.1984 142.949 14.75 140.501 14.75 137.48V29.1308" stroke="white" stroke-width="4.10156" stroke-miterlimit="10" stroke-linecap="round" stroke-linejoin="round"/>
<path d="M50.4125 19.2316H10.8789C8.76469 19.2316 7.05078 20.9457 7.05078 23.0597V25.3008C7.05078 27.4153 8.76469 29.1289 10.8789 29.1289H55.1834" stroke="white" stroke-width="4.10156" stroke-miterlimit="10" stroke-linecap="round" stroke-linejoin="round"/>
<path d="M38.8824 55.5273H31.0293C28.7641 55.5273 26.9277 53.6909 26.9277 51.4258V43.5727C26.9277 41.3075 28.7641 39.4711 31.0293 39.4711H38.8824C41.1476 39.4711 42.984 41.3075 42.984 43.5727V51.4258C42.984 53.6909 41.1476 55.5273 38.8824 55.5273Z" stroke="white" stroke-width="4.10156" stroke-miterlimit="10" stroke-linecap="round" stroke-linejoin="round"/>
<path d="M38.8824 81.2227H31.0293C28.7641 81.2227 26.9277 79.3862 26.9277 77.1211V69.268C26.9277 67.0028 28.7641 65.1664 31.0293 65.1664H38.8824C41.1476 65.1664 42.984 67.0028 42.984 69.268V77.1211C42.984 79.3862 41.1476 81.2227 38.8824 81.2227Z" stroke="white" stroke-width="4.10156" stroke-miterlimit="10" stroke-linecap="round" stroke-linejoin="round"/>
<path d="M38.8824 106.914H31.0293C28.7641 106.914 26.9277 105.078 26.9277 102.812V94.9594C26.9277 92.6942 28.7641 90.8578 31.0293 90.8578H38.8824C41.1476 90.8578 42.984 92.6942 42.984 94.9594V102.812C42.984 105.078 41.1476 106.914 38.8824 106.914Z" stroke="white" stroke-width="4.10156" stroke-miterlimit="10" stroke-linecap="round" stroke-linejoin="round"/>
<path d="M65.527 81.2227H57.6738C55.4087 81.2227 53.5723 79.3862 53.5723 77.1211V69.268C53.5723 67.0028 55.4087 65.1664 57.6738 65.1664H65.527C67.7921 65.1664 69.6285 67.0028 69.6285 69.268V77.1211C69.6285 79.3862 67.7921 81.2227 65.527 81.2227Z" stroke="white" stroke-width="4.10156" stroke-miterlimit="10" stroke-linecap="round" stroke-linejoin="round"/>
<path d="M65.527 106.914H57.6738C55.4087 106.914 53.5723 105.078 53.5723 102.812V94.9594C53.5723 92.6942 55.4087 90.8578 57.6738 90.8578H65.527C67.7921 90.8578 69.6285 92.6942 69.6285 94.9594V102.812C69.6285 105.078 67.7921 106.914 65.527 106.914Z" stroke="white" stroke-width="4.10156" stroke-miterlimit="10" stroke-linecap="round" stroke-linejoin="round"/>
<path d="M56.3063 142.949H40.25V120.652C40.25 118.387 42.0864 116.55 44.3516 116.55H52.2047C54.4698 116.55 56.3063 118.387 56.3063 120.652V142.949Z" stroke="white" stroke-width="4.10156" stroke-miterlimit="10" stroke-linecap="round" stroke-linejoin="round"/>
<path d="M102.463 16.0263C106.917 20.9121 109.633 27.4103 109.633 34.5427C109.633 49.7261 97.3246 62.0352 82.1409 62.0352C66.9572 62.0352 54.6484 49.7261 54.6484 34.5427C54.6484 19.3589 66.9572 7.05016 82.1409 7.05016C86.9346 7.05016 91.4416 8.27707 95.3655 10.4339" stroke="white" stroke-width="4.10156" stroke-miterlimit="10" stroke-linecap="round" stroke-linejoin="round"/>
<path d="M114.191 106.746H102.141C100.63 106.746 99.4062 107.971 99.4062 109.48V140.215C99.4062 141.725 100.63 142.949 102.141 142.949H114.191C115.701 142.949 116.925 141.725 116.925 140.215V109.48C116.925 107.971 115.701 106.746 114.191 106.746Z" stroke="white" stroke-width="4.10156" stroke-miterlimit="10" stroke-linecap="round" stroke-linejoin="round"/>
<path d="M88.1656 115.797H76.1152C74.605 115.797 73.3809 117.021 73.3809 118.531V140.215C73.3809 141.725 74.605 142.949 76.1152 142.949H88.1656C89.6758 142.949 90.9 141.725 90.9 140.215V118.531C90.9 117.021 89.6758 115.797 88.1656 115.797Z" stroke="white" stroke-width="4.10156" stroke-miterlimit="10" stroke-linecap="round" stroke-linejoin="round"/>
<path d="M134.188 66.9569H119.729C117.52 66.9569 115.62 68.6541 115.516 70.8599C115.405 73.2156 117.282 75.16 119.613 75.16H122.341C122.838 75.16 123.077 75.7698 122.713 76.108L108.899 88.9153C108.396 89.3826 107.623 89.4031 107.095 88.9634L98.8086 82.0665C97.2106 80.7368 94.8683 80.8125 93.3603 82.245L79.316 95.5847C77.6735 97.1446 77.6068 99.7409 79.1667 101.383C79.9734 102.232 81.0562 102.66 82.1412 102.66C83.1556 102.66 84.172 102.286 84.9652 101.532L95.483 91.5425C95.9859 91.065 96.7665 91.0393 97.2994 91.4828L105.541 98.3423C107.125 99.6611 109.442 99.5987 110.953 98.1977L129.168 81.3093C129.518 80.985 130.087 81.2333 130.087 81.7105V85.5181C130.087 87.7266 131.784 89.6268 133.99 89.7307C136.346 89.8417 138.29 87.9648 138.29 85.634V71.0584C138.29 68.7933 136.454 66.9569 134.188 66.9569Z" stroke="white" stroke-width="4.10156" stroke-miterlimit="10" stroke-linecap="round" stroke-linejoin="round"/>
<path d="M87.9022 21.7693C87.9022 21.7693 84.6237 18.7451 79.5697 20.2676C74.9292 21.6654 73.7767 28.0149 76.9302 30.4881C78.7409 31.9084 81.4655 33.0762 85.1375 34.3739C93.3554 37.2789 90.3175 48.8683 81.9579 48.9244C78.6955 48.946 77.1703 48.739 74.3047 46.864" stroke="white" stroke-width="4.10156" stroke-miterlimit="10" stroke-linecap="round" stroke-linejoin="round"/>
<path d="M81.957 15.9283V53.1562" stroke="white" stroke-width="4.10156" stroke-miterlimit="10" stroke-linecap="round" stroke-linejoin="round"/>
</g>
</svg>
