<svg width="150" height="150" viewBox="0 0 150 150" fill="none" xmlns="http://www.w3.org/2000/svg">
<path d="M22 69.6283V58.6992" stroke="#663366" stroke-width="4.22536" stroke-miterlimit="10" stroke-linecap="round" stroke-linejoin="round"/>
<path d="M128.229 58.6992V140.528C128.229 142.998 126.227 145.001 123.757 145.001H26.4727C24.0025 145.001 22 142.998 22 140.528V80.1505" stroke="#663366" stroke-width="4.22536" stroke-miterlimit="10" stroke-linecap="round" stroke-linejoin="round"/>
<path d="M117.181 35.0246L143.322 54.6331C145.058 55.9356 144.137 58.6984 141.967 58.6984H128.23L78.7856 21.6096C76.6104 19.9781 73.6194 19.9781 71.4442 21.6096L22.0004 58.6987H8.26295C6.09252 58.6987 5.17139 55.9356 6.90773 54.6334L71.4442 6.22366C73.6194 4.59211 76.6104 4.59211 78.7856 6.22366L109.331 29.1358" stroke="#663366" stroke-width="4.22536" stroke-miterlimit="10" stroke-linecap="round" stroke-linejoin="round"/>
<path d="M114.959 77.7284H112.266V75.0346C112.266 72.9701 110.592 71.2969 108.528 71.2969C106.463 71.2969 104.79 72.9701 104.79 75.0346V77.7284H101.942C99.8773 77.7284 98.2041 79.4017 98.2041 81.4662C98.2041 83.5307 99.8773 85.204 101.942 85.204H104.79V88.0527C104.79 90.1172 106.463 91.7904 108.528 91.7904C110.592 91.7904 112.266 90.1172 112.266 88.0527V85.204H114.959C117.024 85.204 118.697 83.5307 118.697 81.4662C118.697 79.4017 117.024 77.7284 114.959 77.7284Z" stroke="#663366" stroke-width="4.22536" stroke-miterlimit="10" stroke-linecap="round" stroke-linejoin="round"/>
<path d="M96.284 107.144C97.1643 105.273 97.7023 103.211 97.8153 101.039C98.0522 96.4684 96.4508 92.1267 93.3048 88.8143C90.204 85.5484 85.8451 83.6752 81.3457 83.6752C79.8589 83.6752 78.5927 83.7568 77.4617 83.9126L79.0178 74.5219H91.3871C93.486 74.5219 95.1871 72.8208 95.1871 70.7219C95.1871 68.623 93.486 66.9219 91.3871 66.9219H75.7958C73.9369 66.9219 72.3507 68.2667 72.0468 70.1008L68.958 88.7433C68.7239 90.1563 69.3104 91.5783 70.4651 92.4253C71.6214 93.2724 73.1597 93.3946 74.4372 92.7473C74.4693 92.7309 74.5995 92.6667 74.8048 92.5735C76.5488 91.7887 77.9462 91.2743 81.3457 91.2743C83.8062 91.2743 86.0964 92.2588 87.7936 94.0464C89.4902 95.8332 90.3536 98.1763 90.2254 100.645C89.9854 105.268 86.1662 108.963 81.5313 109.057C81.4705 109.058 81.4102 109.058 81.3493 109.058C76.9226 109.058 73.1524 105.8 72.5397 101.409C72.4823 101.003 72.4535 100.584 72.4535 100.166C72.4535 98.0676 70.7524 96.3664 68.6535 96.3664C66.5546 96.3664 64.8535 98.0676 64.8535 100.166C64.8535 100.937 64.9073 101.71 65.013 102.462C66.1496 110.61 73.14 116.658 81.3471 116.658C81.4595 116.658 81.5716 116.657 81.6845 116.655C84.4217 116.6 87.0057 115.867 89.271 114.617" stroke="#663366" stroke-width="4.22536" stroke-miterlimit="10" stroke-linecap="round" stroke-linejoin="round"/>
<path d="M47.3332 84.5172C46.1253 84.5172 44.9504 84.658 43.8194 84.9161C47.6524 78.0631 52.3893 74.3941 52.5042 74.3068C54.1795 73.0524 54.5259 70.6774 53.2755 68.9974C52.0231 67.3132 49.6414 66.9634 47.9592 68.2163C47.3893 68.64 34.0563 78.7642 31.7318 97.824C31.6022 98.6367 31.5332 99.4691 31.5332 100.318C31.5332 109.03 38.6214 116.118 47.3332 116.118C56.0451 116.118 63.1333 109.03 63.1333 100.318C63.1333 91.6057 56.0454 84.5172 47.3332 84.5172ZM47.3332 108.517C42.8115 108.517 39.1329 104.839 39.1329 100.317C39.1329 95.7955 42.8115 92.1169 47.3332 92.1169C51.8549 92.1169 55.5335 95.7955 55.5335 100.317C55.5338 104.839 51.8552 108.517 47.3332 108.517Z" stroke="#663366" stroke-width="4.22536" stroke-miterlimit="10" stroke-linecap="round" stroke-linejoin="round"/>
<path d="M63.0645 45.293V54.6671" stroke="#663366" stroke-width="4.22536" stroke-miterlimit="10" stroke-linecap="round" stroke-linejoin="round"/>
<path d="M67.753 49.9805H58.3789" stroke="#663366" stroke-width="4.22536" stroke-miterlimit="10" stroke-linecap="round" stroke-linejoin="round"/>
<circle cx="71.3295" cy="39.3275" r="2.11268" fill="#663366"/>
<path d="M103.826 122.625V131.999" stroke="#663366" stroke-width="4.22536" stroke-miterlimit="10" stroke-linecap="round" stroke-linejoin="round"/>
<path d="M108.514 127.312H99.1396" stroke="#663366" stroke-width="4.22536" stroke-miterlimit="10" stroke-linecap="round" stroke-linejoin="round"/>
</svg>
