<svg width="150" height="150" viewBox="0 0 150 150" fill="none" xmlns="http://www.w3.org/2000/svg">
<mask id="mask0_694_4984" style="mask-type:luminance" maskUnits="userSpaceOnUse" x="5" y="5" width="140" height="140">
<path d="M5 5H145V145H5V5Z" fill="white"/>
</mask>
<g mask="url(#mask0_694_4984)">
<path d="M54.8738 110.305H26.5345C25.4962 110.305 24.6543 111.146 24.6543 112.185V142.945H56.7537V112.185C56.7537 111.146 55.912 110.305 54.8738 110.305Z" stroke="#663366" stroke-width="4.10156" stroke-miterlimit="10" stroke-linecap="round" stroke-linejoin="round"/>
<path d="M46.8495 97.6235H34.5598C33.5216 97.6235 32.6797 98.4651 32.6797 99.5034V110.305H48.7296V99.5034C48.7296 98.4651 47.8877 97.6235 46.8495 97.6235Z" stroke="#663366" stroke-width="4.10156" stroke-miterlimit="10" stroke-linecap="round" stroke-linejoin="round"/>
<path d="M108.492 113.849L101.364 105.985C100.936 105.513 100.329 105.243 99.6912 105.243H91.1116C89.8644 105.243 88.8535 106.254 88.8535 107.502V142.945H109.077V115.366C109.077 114.805 108.869 114.264 108.492 113.849Z" stroke="#663366" stroke-width="4.10156" stroke-miterlimit="10" stroke-linecap="round" stroke-linejoin="round"/>
<path d="M72.8047 75.5V61.987" stroke="#663366" stroke-width="4.10156" stroke-miterlimit="10" stroke-linecap="round" stroke-linejoin="round"/>
<path d="M65.1953 86.6947V133.066" stroke="#663366" stroke-width="4.10156" stroke-miterlimit="10" stroke-linecap="round" stroke-linejoin="round"/>
<path d="M72.8047 86.6947V133.066" stroke="#663366" stroke-width="4.10156" stroke-miterlimit="10" stroke-linecap="round" stroke-linejoin="round"/>
<path d="M80.4121 86.6947V133.066" stroke="#663366" stroke-width="4.10156" stroke-miterlimit="10" stroke-linecap="round" stroke-linejoin="round"/>
<path d="M21.6875 142.945H112.527" stroke="#663366" stroke-width="4.10156" stroke-miterlimit="10" stroke-linecap="round" stroke-linejoin="round"/>
<path d="M121.775 64.9387C121.758 64.9387 121.742 64.9387 121.725 64.9387C121.277 64.9426 120.879 64.6801 120.704 64.2721C119.202 60.7593 115.689 58.2937 111.592 58.2937C107.496 58.2937 103.983 60.7593 102.48 64.2721C102.306 64.6801 101.908 64.9426 101.46 64.9387C101.444 64.9387 101.427 64.9387 101.41 64.9387C99.01 64.9387 96.916 66.2223 95.7793 68.1311C99.4822 68.4645 102.595 70.8141 103.985 74.0647C104.16 74.4727 104.559 74.7352 105.006 74.7314C105.023 74.7314 105.039 74.7314 105.056 74.7314C107.437 74.7314 109.516 75.9952 110.658 77.8789H121.627C125.292 77.8789 128.38 74.9105 128.31 71.2839C128.243 67.768 125.343 64.9387 121.775 64.9387Z" stroke="#663366" stroke-width="4.10156" stroke-miterlimit="10" stroke-linecap="round" stroke-linejoin="round"/>
<path d="M105.055 74.7317C105.038 74.7317 105.022 74.7317 105.005 74.7317C104.558 74.7355 104.159 74.473 103.985 74.0651C102.482 70.5522 98.9695 68.0866 94.8729 68.0866C90.7763 68.0866 87.2634 70.5522 85.7609 74.0651C85.5864 74.473 85.188 74.7355 84.7404 74.7317C84.7237 74.7317 84.7073 74.7317 84.6906 74.7317C83.5742 74.7317 82.5228 75.009 81.6035 75.4976H86.4034C87.7567 75.4976 88.8537 76.5946 88.8537 77.9482V87.6719H104.908C108.573 87.6719 111.66 84.7034 111.591 81.0766C111.523 77.561 108.623 74.7317 105.055 74.7317Z" stroke="#663366" stroke-width="4.10156" stroke-miterlimit="10" stroke-linecap="round" stroke-linejoin="round"/>
<path d="M31.6035 119.988H49.8049" stroke="#663366" stroke-width="4.10156" stroke-miterlimit="10" stroke-linecap="round" stroke-linejoin="round"/>
<path d="M31.6035 127.875H49.8049" stroke="#663366" stroke-width="4.10156" stroke-miterlimit="10" stroke-linecap="round" stroke-linejoin="round"/>
<path d="M98.9648 119.988H109.077" stroke="#663366" stroke-width="4.10156" stroke-miterlimit="10" stroke-linecap="round" stroke-linejoin="round"/>
<path d="M98.9648 127.875H109.077" stroke="#663366" stroke-width="4.10156" stroke-miterlimit="10" stroke-linecap="round" stroke-linejoin="round"/>
<path d="M31.6035 135.762H49.8049" stroke="#663366" stroke-width="4.10156" stroke-miterlimit="10" stroke-linecap="round" stroke-linejoin="round"/>
<path d="M98.9648 135.762H109.077" stroke="#663366" stroke-width="4.10156" stroke-miterlimit="10" stroke-linecap="round" stroke-linejoin="round"/>
<path d="M88.8536 90.888V77.947C88.8536 76.5938 87.7565 75.4968 86.4033 75.4968H59.2045C57.8512 75.4968 56.7539 76.5938 56.7539 77.947V142.945H88.8536V100.458" stroke="#663366" stroke-width="4.10156" stroke-miterlimit="10" stroke-linecap="round" stroke-linejoin="round"/>
<path d="M98.3186 26.4627C91.5034 19.6476 82.4423 15.8944 72.8044 15.8944C63.1665 15.8944 54.1054 19.6476 47.2902 26.4627C45.5635 28.1895 42.764 28.1895 41.0373 26.4627C39.3105 24.736 39.3105 21.9365 41.0373 20.2098C49.5226 11.7245 60.8046 7.05141 72.8044 7.05141C84.8045 7.05141 96.0862 11.7245 104.572 20.2098C106.298 21.9365 106.298 24.7363 104.572 26.4627C102.846 28.1879 100.047 28.1911 98.3186 26.4627Z" stroke="#663366" stroke-width="4.10156" stroke-miterlimit="10" stroke-linecap="round" stroke-linejoin="round"/>
<path d="M72.8043 55.0469C70.3647 55.0469 68.3828 53.0573 68.3828 50.6254C68.3828 47.9996 70.6835 45.9625 73.2374 46.2274C75.379 46.4021 77.2258 48.2763 77.2258 50.6254C77.2258 53.0489 75.2548 55.0469 72.8043 55.0469Z" stroke="#663366" stroke-width="4.10156" stroke-miterlimit="10" stroke-linecap="round" stroke-linejoin="round"/>
<path d="M68.0185 26.7709C63.1196 27.6935 58.4395 30.044 54.6562 33.827C52.9297 35.5537 52.9297 38.3532 54.6562 40.0799C56.3829 41.8067 59.1827 41.8067 60.9092 40.0799C67.4678 33.5215 78.1396 33.5213 84.6982 40.0799C86.4247 41.8067 89.2244 41.8067 90.9515 40.0799C92.678 38.3532 92.6779 35.5537 90.9512 33.827C87.1682 30.044 82.4878 27.6935 77.5888 26.7709" stroke="#663366" stroke-width="4.10156" stroke-miterlimit="10" stroke-linecap="round" stroke-linejoin="round"/>
</g>
</svg>
