<svg width="150" height="150" viewBox="0 0 150 150" fill="none" xmlns="http://www.w3.org/2000/svg">
<path d="M79.1016 116.238V99.832H87.305V116.238H62.6953V99.832L79.1016 105.984" stroke="#663366" stroke-width="4.1016" stroke-miterlimit="22.9256"/>
<path d="M70.8984 116.238V110.086" stroke="#663366" stroke-width="4.1016" stroke-miterlimit="22.9256"/>
<path d="M79.1016 142.898V126.492H87.305V142.898M62.6953 142.898V126.492L79.1016 132.645" stroke="#663366" stroke-width="4.1016" stroke-miterlimit="22.9256"/>
<path d="M70.8984 142.898V136.746" stroke="#663366" stroke-width="4.1016" stroke-miterlimit="22.9256"/>
<path d="M120.391 116.238V99.832H128.594V116.238H103.984V99.832L120.391 105.984" stroke="#663366" stroke-width="4.1016" stroke-miterlimit="22.9256"/>
<path d="M112.188 116.238V110.086" stroke="#663366" stroke-width="4.1016" stroke-miterlimit="22.9256"/>
<path d="M120.391 142.898V126.492H128.594V142.898M103.984 142.898V126.492L120.391 132.645" stroke="#663366" stroke-width="4.1016" stroke-miterlimit="22.9256"/>
<path d="M112.188 142.898V136.746" stroke="#663366" stroke-width="4.1016" stroke-miterlimit="22.9256"/>
<path d="M120.391 89.5782V73.1719H128.594V89.5782H103.984V73.1719L120.391 79.3242" stroke="#663366" stroke-width="4.1016" stroke-miterlimit="22.9256"/>
<path d="M112.188 89.5781V83.4258" stroke="#663366" stroke-width="4.1016" stroke-miterlimit="22.9256"/>
<path d="M37.8126 142.898V126.492H46.0157V142.898M145 142.898H5M21.406 142.898V126.492L37.8123 132.645" stroke="#663366" stroke-width="4.1016" stroke-miterlimit="22.9256"/>
<path d="M29.6094 142.898V136.746" stroke="#663366" stroke-width="4.1016" stroke-miterlimit="22.9256"/>
<path d="M96.0007 16.3653C92.0288 21.0208 89.6299 27.0594 89.6299 33.6602C89.6299 48.3868 101.564 60.3204 116.29 60.3204C131.017 60.3204 142.95 48.3868 142.95 33.6602C142.95 18.9337 131.016 7 116.29 7C109.689 7 103.65 9.3986 98.9951 13.3708" stroke="#663366" stroke-width="4.1016" stroke-miterlimit="22.9256"/>
<path d="M116.289 25.457V19.3047M116.289 48.0157V41.8633" stroke="#663366" stroke-width="4.1016" stroke-miterlimit="22.9256"/>
<path d="M130.391 26.6563H134.492M124.238 18.4531H128.34" stroke="#663366" stroke-width="4.1016" stroke-miterlimit="22.9256"/>
<path d="M110.725 39.8716C111.445 41.0624 112.753 41.863 114.239 41.863H118.34C120.596 41.863 122.442 40.0173 122.442 37.7615C122.442 35.5056 120.596 33.6599 118.34 33.6599H114.238C111.983 33.6599 110.137 31.8142 110.137 29.5583C110.137 27.3025 111.982 25.457 114.238 25.457H118.34C119.825 25.457 121.133 26.2577 121.853 27.4485" stroke="#663366" stroke-width="4.1016" stroke-miterlimit="22.9256"/>
<path d="M50.9376 82.8736L47.5822 85.2326M44.2269 87.5915L22.3945 102.94C20.5507 104.236 17.9771 103.789 16.6802 101.943C15.3835 100.098 15.8314 97.5263 17.6768 96.2289L71.4077 58.4553L69.049 55.1L83.8327 54.7344L78.4843 68.5217L76.1256 65.1663L54.2932 80.5147" stroke="#663366" stroke-width="4.1016" stroke-miterlimit="22.9256"/>
</svg>
