<svg width="150" height="150" viewBox="0 0 150 150" fill="none" xmlns="http://www.w3.org/2000/svg">
<path fill-rule="evenodd" clip-rule="evenodd" d="M17.4833 99.5248H32.2052C33.7129 99.5248 35.0823 100.143 36.0794 101.135C36.9203 101.975 37.4909 103.093 37.647 104.33C41.9236 102.21 46.5847 101.171 51.2337 101.213C56.7777 101.261 62.3036 102.84 67.1516 105.946H93.4594C93.5495 105.946 93.6396 105.952 93.7297 105.964C95.6938 106.12 97.4418 107.009 98.7032 108.354C100.007 109.736 100.793 111.592 100.793 113.616C100.793 113.85 100.781 114.079 100.763 114.301L128.195 104.588C128.273 104.558 128.351 104.54 128.43 104.522C130.195 104.054 132.003 104.24 133.577 104.949C135.181 105.676 136.544 106.949 137.355 108.631C138.166 110.313 138.322 112.169 137.896 113.874C137.469 115.586 136.454 117.148 134.941 118.247C134.844 118.313 134.742 118.379 134.64 118.427L96.3371 140.459C96.0007 140.651 95.6343 140.729 95.2799 140.711L37.6898 137.528V139.516C37.6898 141.024 37.0712 142.393 36.08 143.39L35.9479 143.51C34.9628 144.435 33.6474 145 32.2058 145H17.4839C15.9823 145 14.6128 144.381 13.6218 143.39L13.6098 143.384C12.6187 142.393 12 141.018 12 139.51V105.003C12 103.496 12.6187 102.126 13.6098 101.129L13.7359 101.015C14.721 100.096 16.0358 99.5248 17.4833 99.5248ZM81.6992 52.5246L93.52 40.7098C94.6853 39.5385 96.2229 38.9559 97.7546 38.9559C99.2802 38.9559 100.812 39.5386 101.983 40.7098H101.989L102.103 40.8359C103.196 41.9892 103.743 43.4667 103.743 44.9444C103.743 46.476 103.16 48.0077 101.989 49.179L83.0575 68.1061C82.3067 68.8569 81.0874 68.8569 80.3366 68.1061L69.6089 57.3784L69.4948 57.2523C68.4016 56.099 67.855 54.6155 67.855 53.1438C67.855 51.6181 68.4377 50.0865 69.6089 48.9152V48.9092L69.735 48.7951C70.8883 47.7019 72.3718 47.1553 73.8435 47.1553C75.3752 47.1553 76.9069 47.738 78.0781 48.9092L81.6992 52.5246ZM96.2409 43.4247L83.0627 56.6029C82.3119 57.3537 81.0926 57.3537 80.3418 56.6029L75.3624 51.6235C74.9419 51.203 74.3953 50.9928 73.8487 50.9928C73.3262 50.9928 72.8096 51.179 72.4012 51.5454L72.3351 51.6175L72.3291 51.6115C71.9146 52.0319 71.7044 52.5785 71.7044 53.1311C71.7044 53.6537 71.8906 54.1702 72.257 54.5787C75.4464 57.5999 78.5759 60.8976 81.7052 64.0209L99.2745 46.4515C99.695 46.0311 99.9052 45.4845 99.9052 44.9319C99.9052 44.4093 99.719 43.8928 99.3526 43.4843L99.2805 43.4182V43.4122C98.8661 42.9978 98.3135 42.7876 97.7609 42.7876C97.2023 42.7996 96.6554 43.0042 96.2409 43.4247ZM85.8016 88.858C92.2106 86.5935 97.8086 83.7405 102.224 79.7641C106.723 75.7098 110.026 70.448 111.756 63.3788C112.573 60.0391 113.029 56.5254 113.276 52.9756C113.528 49.3476 113.558 45.7438 113.516 42.2599C113.474 38.3858 113.342 34.4395 113.21 30.4932L113.084 26.7092C108.386 26.577 103.719 25.8743 99.2146 24.6249C94.5235 23.3215 90.0066 21.4295 85.802 18.9668C81.5974 21.4295 77.0805 23.3214 72.3894 24.6249C67.8845 25.8742 63.2176 26.577 58.5145 26.7092L58.3943 30.4932C58.2622 34.4395 58.13 38.3858 58.088 42.2599C58.052 45.7436 58.082 49.3536 58.3283 52.9756C58.5745 56.5254 59.031 60.0393 59.8479 63.3788C61.5778 70.4485 64.8813 75.7101 69.3742 79.7641C73.795 83.7464 79.392 86.5995 85.8016 88.858ZM104.789 82.6173C109.834 78.0644 113.546 72.1719 115.474 64.2791C116.351 60.6873 116.844 56.9572 117.102 53.2271C117.354 49.5692 117.384 45.8451 117.342 42.2233C117.3 38.2169 117.168 34.2948 117.036 30.3665C116.976 28.4744 116.91 26.5765 116.856 24.7565C116.826 23.6994 115.949 22.8644 114.886 22.8946C109.93 22.9066 104.987 22.2399 100.23 20.9245C95.5327 19.6211 90.9979 17.669 86.8053 15.0862C86.1626 14.6897 85.3757 14.7198 84.7751 15.0922C80.5825 17.669 76.0596 19.621 71.3625 20.9245C66.5873 22.2519 61.626 22.9127 56.6526 22.8946C55.6135 22.8946 54.7665 23.7235 54.7365 24.7565C54.6825 26.5765 54.6224 28.4746 54.5563 30.3665C54.4242 34.2948 54.292 38.2171 54.25 42.2233C54.2139 45.8453 54.244 49.5692 54.4963 53.2271C54.7545 56.9572 55.2411 60.6873 56.124 64.2791C58.0521 72.1716 61.7642 78.0639 66.8096 82.6173C71.795 87.1162 78.0537 90.2576 85.177 92.7082C85.5974 92.8523 86.0359 92.8403 86.4203 92.7082H86.4263C93.55 90.2575 99.8038 87.1162 104.789 82.6173ZM85.2311 101.201C85.5915 101.316 85.9879 101.322 86.3723 101.201C127.036 88.3956 126.129 61.4083 125.097 30.7396C124.941 26.0245 124.778 21.2133 124.772 16.0716C124.772 15.9635 124.766 15.8554 124.742 15.7473C124.562 14.7021 123.571 13.9994 122.526 14.1796C116.177 15.2668 109.738 15.0025 103.654 13.5009C97.5938 12.0053 91.8937 9.27832 87.0045 5.42816C86.3198 4.87556 85.3288 4.84553 84.6079 5.41014C79.7126 9.2663 74.0005 11.9993 67.9335 13.4949C61.8909 14.9905 55.4879 15.2607 49.1755 14.1976C49.0374 14.1676 48.8932 14.1496 48.7431 14.1496C47.6799 14.1496 46.821 15.0085 46.821 16.0717C46.821 21.2133 46.6588 26.0245 46.5026 30.7396C45.4695 61.3975 44.5626 88.3712 85.1903 101.189L85.2311 101.201ZM50.3338 30.8595C49.3608 59.8352 48.5078 85.3451 85.8016 97.3511C123.096 85.3442 122.243 59.8352 121.269 30.8595C121.131 26.6729 120.987 22.4203 120.945 18.2939C114.806 19.0567 108.626 18.6723 102.751 17.2247C96.6366 15.7171 90.8524 13.0503 85.8063 9.3322C80.7547 13.0503 74.9765 15.711 68.8612 17.2247C62.9869 18.6783 56.8062 19.0627 50.6676 18.2939C50.6135 22.4203 50.4694 26.6789 50.3312 30.8595H50.3338ZM98.3504 119.227C97.0891 120.405 95.4253 121.162 93.5752 121.276L67.3811 121.282C66.318 121.282 65.459 120.423 65.459 119.36C65.459 118.296 66.318 117.438 67.3811 117.438H93.4553C94.4043 117.353 95.2513 116.927 95.8759 116.284L95.954 116.2C96.5726 115.521 96.9511 114.608 96.9511 113.611C96.9511 112.59 96.5546 111.665 95.9119 110.981C95.2873 110.32 94.4283 109.875 93.4552 109.791H66.5938V109.785C66.2274 109.785 65.855 109.683 65.5246 109.461C61.1879 106.56 56.2025 105.088 51.2051 105.046C46.538 105.004 41.859 106.211 37.6904 108.668V133.686L94.933 136.857L132.72 115.119C133.458 114.567 133.957 113.792 134.167 112.951C134.383 112.086 134.305 111.155 133.897 110.302C133.488 109.455 132.804 108.818 131.993 108.452C131.206 108.098 130.305 108.002 129.422 108.224L98.3504 119.227ZM32.2063 103.371H17.4844C17.0639 103.371 16.6855 103.527 16.3912 103.786L16.3251 103.852C16.0248 104.152 15.8446 104.56 15.8446 105.005V139.512C15.8446 139.962 16.0308 140.371 16.3251 140.665V140.671C16.6255 140.965 17.0339 141.151 17.4844 141.151H32.2063C32.6268 141.151 33.0052 140.995 33.2935 140.743L33.3595 140.671C33.6599 140.371 33.8401 139.962 33.8401 139.518L33.8461 105.005C33.8461 104.554 33.6599 104.146 33.3656 103.851C33.0652 103.557 32.6568 103.371 32.2063 103.371Z" fill="#663366"/>
</svg>
