<svg width="200" height="200" viewBox="0 0 200 200" fill="none" xmlns="http://www.w3.org/2000/svg">
<mask id="mask0_471_317" style="mask-type:luminance" maskUnits="userSpaceOnUse" x="10" y="10" width="180" height="180">
<path d="M190 10H10V190H190V10Z" fill="white"/>
</mask>
<g mask="url(#mask0_471_317)">
<mask id="mask1_471_317" style="mask-type:luminance" maskUnits="userSpaceOnUse" x="9" y="9" width="182" height="182">
<path d="M190.45 9.5498V190.45H9.5498V9.5498H190.45Z" fill="white" stroke="white" stroke-width="0.9"/>
</mask>
<g mask="url(#mask1_471_317)">
<path d="M141.116 48.8193C146.61 48.8194 151.062 53.3017 151.062 58.7988V58.8008C151.041 64.2974 146.588 68.7577 141.096 68.7578C135.602 68.7578 131.148 64.2755 131.148 58.7783V58.7764L131.163 58.2646C131.449 53.0055 135.795 48.8193 141.116 48.8193ZM141.096 52.1797C137.462 52.1797 134.506 55.1213 134.506 58.7578V58.7598C134.486 62.3956 137.443 65.3564 141.075 65.3564C144.708 65.3562 147.664 62.4146 147.664 58.7783V58.7764L147.657 58.4375C147.498 54.9582 144.614 52.1798 141.096 52.1797Z" fill="black" stroke="black" stroke-width="0.9"/>
<path d="M141.093 74.5537C142.032 74.5537 142.761 75.324 142.761 76.2441V82.9619C142.761 83.8918 142.003 84.6523 141.072 84.6523C140.132 84.6523 139.403 83.8823 139.403 82.9619V76.2441C139.403 75.3138 140.163 74.5537 141.093 74.5537Z" fill="black" stroke="black" stroke-width="0.9"/>
<path d="M140.149 9.99316C140.796 9.4024 141.782 9.40186 142.429 9.99316L142.428 9.99414C142.788 10.3204 152.441 19.4285 159.857 34.6172C160.078 34.8473 160.194 35.139 160.247 35.4033C164.717 44.8457 168.277 56.5517 168.277 69.9414C168.277 73.15 168.139 76.2993 167.884 79.3896C175.079 84.2009 179.343 92.1209 179.343 100.824C179.343 110.501 173.984 119.275 165.392 123.714C165.142 123.86 164.86 123.909 164.628 123.909C164.266 123.909 163.893 123.797 163.578 123.538L163.575 123.536V123.535C163.083 123.125 162.823 122.455 162.994 121.796C163.419 120.075 163.641 118.294 163.641 116.514C163.641 113.245 162.924 110.06 161.584 107.138C160.202 110.442 158.647 113.417 156.929 115.96L156.927 115.963C156.615 116.417 156.083 116.695 155.523 116.695H150.844C149.438 127.953 142.735 136.399 142.439 136.778L142.433 136.786L142.426 136.795C142.096 137.181 141.621 137.407 141.113 137.407C140.621 137.407 140.118 137.191 139.798 136.789V136.79C139.796 136.788 139.795 136.786 139.793 136.783C139.792 136.782 139.79 136.781 139.789 136.779V136.778C139.363 136.259 132.798 127.841 131.444 116.674H126.766C126.206 116.674 125.671 116.395 125.358 115.915V115.916C123.642 113.337 122.086 110.361 120.72 107.071C119.365 109.977 118.648 113.162 118.648 116.431C118.648 118.217 118.851 119.999 119.275 121.718H119.274C119.445 122.361 119.178 123.028 118.692 123.433L118.69 123.435C118.376 123.693 118.004 123.806 117.641 123.806C117.597 123.806 117.554 123.803 117.513 123.8V123.994L116.855 123.651C108.283 119.191 102.967 110.396 102.967 100.721V100.72L102.981 99.8955C103.262 91.4992 107.52 83.9436 114.488 79.3047C114.252 76.1956 114.115 73.0276 114.115 69.8584L114.128 68.6055C114.363 55.7277 117.883 44.4307 122.276 35.2998C122.341 35.0593 122.438 34.8068 122.633 34.5859C130.094 19.405 139.797 10.3122 140.149 9.99414V9.99316ZM134.855 116.653C135.844 123.819 139.181 129.845 141.084 132.764C143.009 129.846 146.382 123.82 147.371 116.653H134.855ZM167.481 83.2451C166.663 90.3188 165.205 96.973 163.14 102.938C165.65 107.018 166.977 111.684 166.977 116.492C166.977 117.252 166.943 118.012 166.875 118.773C172.526 114.61 175.945 107.985 175.945 100.783V100.781L175.938 100.107C175.759 93.4228 172.657 87.3339 167.481 83.2451ZM114.864 83.1406C109.495 87.3487 106.324 93.7122 106.324 100.659C106.324 107.861 109.704 114.486 115.351 118.686C115.283 117.926 115.25 117.167 115.25 116.41V116.408L115.256 115.951C115.357 111.304 116.697 106.805 119.128 102.874C117.1 96.9411 115.662 90.1889 114.864 83.1406ZM123.973 106.111C125.083 108.755 126.322 111.156 127.675 113.273L154.582 113.313C155.941 111.21 157.183 108.818 158.313 106.151L123.973 106.111ZM125.008 37.3799C120.812 46.3223 117.472 57.307 117.472 69.8379C117.472 73.2361 117.616 76.655 117.903 79.9697L118.046 81.4902C118.809 89.0683 120.371 96.3065 122.562 102.526L122.639 102.73L159.602 102.792C159.607 102.777 159.613 102.763 159.618 102.748L159.622 102.737L159.937 101.85C163.14 92.6174 164.859 81.5936 164.859 69.9004V69.8994L164.852 68.7178C164.671 56.6762 161.446 46.0996 157.403 37.4199L125.008 37.3799ZM141.266 13.6055C138.676 16.2529 132.232 23.4322 126.701 34L155.772 34.0381C150.262 23.4702 143.837 16.2731 141.266 13.6055Z" fill="black" stroke="black" stroke-width="0.9"/>
<path d="M64.3379 127.466C73.9557 123.997 84.8162 124.57 94.3203 129.045V129.046L134.846 148.166L135.229 148.355C138.954 150.282 141.319 154.035 141.581 158.135L174.726 145.198L175.265 145.002C177.977 144.091 180.918 144.222 183.557 145.392L184.076 145.637C186.636 146.923 188.61 149.078 189.657 151.78L189.688 151.858V151.88C191.914 157.704 189.099 164.248 183.381 166.657L183.105 166.77L133.042 186.324H133.041C128.694 188.02 124.056 188.878 119.377 188.878C115.282 188.878 111.167 188.208 107.222 186.912H107.221L67.9346 173.931L67.9326 173.93C63.5106 172.454 58.7259 172.574 54.4688 174.23L54.4697 174.231L38.4766 180.476L39.9639 184.273H39.9619C40.1578 184.713 40.1187 185.166 39.9629 185.556C39.7879 185.994 39.4405 186.304 39.0312 186.468L39.0264 186.469L29.0967 190.335L29.0957 190.334C28.8805 190.423 28.656 190.448 28.4795 190.448C27.8157 190.448 27.1631 190.06 26.9043 189.375V189.376L9.66602 145.099V145.098C9.35184 144.285 9.69815 143.366 10.4658 142.974L10.624 142.902L20.5527 139.017V139.018C20.9359 138.847 21.3291 138.857 21.6816 138.965L21.833 139.018L21.834 139.019L21.9922 139.092C22.2962 139.254 22.5268 139.507 22.6768 139.801L22.7451 139.951L22.7471 139.955L24.0068 143.194L63.4111 127.813L64.3379 127.466ZM13.4121 145.417L29.416 186.542L36.1953 183.892L20.1924 142.768L13.4121 145.417ZM92.8633 132.133C84.0282 127.977 74.3402 127.466 65.4619 130.666L64.6055 130.987L25.2002 146.368L37.2402 177.302L53.2334 171.058H53.2354L53.7383 170.869C56.2614 169.96 58.9087 169.497 61.5928 169.497C64.0771 169.497 66.5817 169.899 69.001 170.698L108.287 183.68L109.014 183.91C116.536 186.216 124.603 185.956 131.806 183.15L181.868 163.595L181.874 163.604C186.04 161.97 188.105 157.224 186.486 153.039L186.327 152.665C185.545 150.943 184.223 149.553 182.529 148.704L182.16 148.53C180.166 147.649 177.956 147.608 175.918 148.394L175.917 148.393L141.204 161.952C141.052 162.546 140.843 163.134 140.6 163.697L140.565 163.775L140.535 163.805C139.35 166.39 137.291 168.364 134.693 169.375L134.692 169.374C131.93 170.453 128.891 170.322 126.162 169.031V169.03L124.695 168.343C122.901 168.94 121.026 169.218 119.11 169.136H119.107C117.096 169.036 115.122 168.562 113.24 167.716L112.865 167.541L100.747 161.732V161.731C100.319 161.53 100.011 161.16 99.8721 160.718V160.717C99.73 160.282 99.7899 159.781 100.015 159.388L102.076 155.692C102.477 154.972 103.341 154.662 104.111 154.924L104.264 154.984L104.271 154.987L104.08 155.395L104.271 154.988L125.514 164.992L125.516 164.993L127.602 165.985H127.601C129.493 166.884 131.572 166.96 133.456 166.221L133.783 166.082C135.403 165.348 136.717 164.045 137.485 162.36L137.489 162.351L137.594 162.125C137.826 161.59 137.988 161.008 138.092 160.403C138.719 156.671 136.732 152.84 133.387 151.254V151.253L92.8633 132.133ZM103.817 159.475L114.328 164.519H114.329L114.626 164.657C116.104 165.328 117.642 165.714 119.211 165.774L104.247 158.708L103.817 159.475Z" fill="black" stroke="black" stroke-width="0.9"/>
</g>
</g>
</svg>
