<svg width="150" height="150" viewBox="0 0 150 150" fill="none" xmlns="http://www.w3.org/2000/svg">
<path d="M59.1445 20.4883V129.929" stroke="#663366" stroke-width="4.22535" stroke-miterlimit="10" stroke-linecap="round" stroke-linejoin="round"/>
<path d="M129.548 83.5783V20.5234" stroke="#663366" stroke-width="4.22535" stroke-miterlimit="10" stroke-linecap="round" stroke-linejoin="round"/>
<path d="M9.88477 111.662V69.8672" stroke="#663366" stroke-width="4.22535" stroke-miterlimit="10" stroke-linecap="round" stroke-linejoin="round"/>
<path d="M9.88477 129.931V121.52" stroke="#663366" stroke-width="4.22535" stroke-miterlimit="10" stroke-linecap="round" stroke-linejoin="round"/>
<path d="M96.0954 130.266H6.12676C5.50451 130.266 5 130.77 5 131.392V137.307C5 137.93 5.50451 138.434 6.12676 138.434H116.355" stroke="#663366" stroke-width="4.22535" stroke-miterlimit="10" stroke-linecap="round" stroke-linejoin="round"/>
<path d="M75.5484 20.169H133.709C134.331 20.169 134.836 19.6648 134.836 19.0422V13.1268C134.836 12.5042 134.331 12 133.709 12H54.9822C54.3597 12 53.8555 12.5042 53.8555 13.1268V19.0422C53.8555 19.6648 54.3597 20.169 54.9822 20.169H65.6893" stroke="#663366" stroke-width="4.22535" stroke-miterlimit="10" stroke-linecap="round" stroke-linejoin="round"/>
<path d="M58.9258 69.6289H50.2441" stroke="#663366" stroke-width="4.22535" stroke-miterlimit="10" stroke-linecap="round" stroke-linejoin="round"/>
<path d="M40.3859 69.6299H6.12676C5.50422 69.6299 5 69.1257 5 68.5032V62.5877C5 61.9652 5.50422 61.4609 6.12676 61.4609H58.907" stroke="#663366" stroke-width="4.22535" stroke-miterlimit="10" stroke-linecap="round" stroke-linejoin="round"/>
<path d="M90.6893 42.9805H98.0045C98.6267 42.9805 99.1312 42.476 99.1312 41.8537V30.3377C99.1312 29.7154 98.6267 29.2109 98.0045 29.2109H90.6893C90.067 29.2109 89.5625 29.7154 89.5625 30.3377V41.8537C89.5625 42.476 90.067 42.9805 90.6893 42.9805Z" stroke="#663366" stroke-width="4.22535" stroke-miterlimit="10" stroke-linecap="round" stroke-linejoin="round"/>
<path d="M69.3143 42.9805H76.6295C77.2517 42.9805 77.7562 42.476 77.7562 41.8537V30.3377C77.7562 29.7154 77.2517 29.2109 76.6295 29.2109H69.3143C68.692 29.2109 68.1875 29.7154 68.1875 30.3377V41.8537C68.1875 42.476 68.6917 42.9805 69.3143 42.9805Z" stroke="#663366" stroke-width="4.22535" stroke-miterlimit="10" stroke-linecap="round" stroke-linejoin="round"/>
<path d="M90.6893 68.8086H98.0045C98.6267 68.8086 99.1312 68.3041 99.1312 67.6819V56.1658C99.1312 55.5436 98.6267 55.0391 98.0045 55.0391H90.6893C90.067 55.0391 89.5625 55.5436 89.5625 56.1658V67.6819C89.5625 68.3041 90.067 68.8086 90.6893 68.8086Z" stroke="#663366" stroke-width="4.22535" stroke-miterlimit="10" stroke-linecap="round" stroke-linejoin="round"/>
<path d="M69.3143 68.8086H76.6295C77.2517 68.8086 77.7562 68.3041 77.7562 67.6819V56.1658C77.7562 55.5436 77.2517 55.0391 76.6295 55.0391H69.3143C68.692 55.0391 68.1875 55.5436 68.1875 56.1658V67.6819C68.1875 68.3041 68.6917 68.8086 69.3143 68.8086Z" stroke="#663366" stroke-width="4.22535" stroke-miterlimit="10" stroke-linecap="round" stroke-linejoin="round"/>
<path d="M119.378 42.9805H112.062C111.44 42.9805 110.936 42.476 110.936 41.8537V30.3377C110.936 29.7154 111.44 29.2109 112.062 29.2109H119.378C120 29.2109 120.504 29.7154 120.504 30.3377V41.8537C120.504 42.476 120 42.9805 119.378 42.9805Z" stroke="#663366" stroke-width="4.22535" stroke-miterlimit="10" stroke-linecap="round" stroke-linejoin="round"/>
<path d="M119.378 68.8086H112.062C111.44 68.8086 110.936 68.3041 110.936 67.6819V56.1658C110.936 55.5436 111.44 55.0391 112.062 55.0391H119.378C120 55.0391 120.504 55.5436 120.504 56.1658V67.6819C120.504 68.3041 120 68.8086 119.378 68.8086Z" stroke="#663366" stroke-width="4.22535" stroke-miterlimit="10" stroke-linecap="round" stroke-linejoin="round"/>
<path d="M116.355 81.1406H69.3143C68.692 81.1406 68.1875 81.6451 68.1875 82.2674V93.7834C68.1875 94.4057 68.692 94.9102 69.3143 94.9102H91.3055" stroke="#663366" stroke-width="4.22535" stroke-miterlimit="10" stroke-linecap="round" stroke-linejoin="round"/>
<path d="M87.6123 106.695H69.3143C68.692 106.695 68.1875 107.2 68.1875 107.822V129.929" stroke="#663366" stroke-width="4.22535" stroke-miterlimit="10" stroke-linecap="round" stroke-linejoin="round"/>
<path d="M18.9277 129.929V107.822C18.9277 107.2 19.4322 106.695 20.0545 106.695H48.9748C49.597 106.695 50.1015 107.2 50.1015 107.822V129.929" stroke="#663366" stroke-width="4.22535" stroke-miterlimit="10" stroke-linecap="round" stroke-linejoin="round"/>
<path d="M34.5137 129.929V107.258" stroke="#663366" stroke-width="4.22535" stroke-miterlimit="10" stroke-linecap="round" stroke-linejoin="round"/>
<path d="M41.658 94.6368H48.9732C49.5955 94.6368 50.1 94.1322 50.1 93.51V81.9939C50.1 81.3717 49.5955 80.8672 48.9732 80.8672H41.658C41.0358 80.8672 40.5312 81.3717 40.5312 81.9939V93.51C40.5312 94.1322 41.0358 94.6368 41.658 94.6368Z" stroke="#663366" stroke-width="4.22535" stroke-miterlimit="10" stroke-linecap="round" stroke-linejoin="round"/>
<path d="M20.0545 94.6368H27.3697C27.992 94.6368 28.4965 94.1322 28.4965 93.51V81.9939C28.4965 81.3717 27.992 80.8672 27.3697 80.8672H20.0545C19.4322 80.8672 18.9277 81.3717 18.9277 81.9939V93.51C18.9277 94.1322 19.432 94.6368 20.0545 94.6368Z" stroke="#663366" stroke-width="4.22535" stroke-miterlimit="10" stroke-linecap="round" stroke-linejoin="round"/>
<path d="M9.88281 61.1256V49.0586" stroke="#663366" stroke-width="4.22535" stroke-miterlimit="10" stroke-linecap="round" stroke-linejoin="round"/>
<path d="M26.3047 61.1256V49.0586" stroke="#663366" stroke-width="4.22535" stroke-miterlimit="10" stroke-linecap="round" stroke-linejoin="round"/>
<path d="M42.7246 61.1256V49.0586" stroke="#663366" stroke-width="4.22535" stroke-miterlimit="10" stroke-linecap="round" stroke-linejoin="round"/>
<path d="M59.1442 48.7752L5 48.7344" stroke="#663366" stroke-width="4.22535" stroke-miterlimit="10" stroke-linecap="round" stroke-linejoin="round"/>
<path d="M116.355 81.1406C100.532 81.1406 87.707 93.9688 87.707 109.788C87.707 125.611 100.532 138.436 116.355 138.436C132.175 138.436 145 125.611 145 109.788C145 93.9688 132.175 81.1406 116.355 81.1406Z" stroke="#663366" stroke-width="4.22535" stroke-miterlimit="10" stroke-linecap="round" stroke-linejoin="round"/>
<path d="M97.375 114.716C99.5609 123.158 107.231 129.389 116.355 129.389C127.181 129.389 135.958 120.615 135.958 109.786C135.958 98.9611 127.181 90.1836 116.355 90.1836C107.231 90.1836 99.5609 96.4174 97.375 104.857" stroke="#663366" stroke-width="4.22535" stroke-miterlimit="10" stroke-linecap="round" stroke-linejoin="round"/>
<path d="M119.67 102.58C119.44 102.337 117.69 100.613 114.962 101.435C112.271 102.246 111.438 105.482 113.332 107.664C114.314 108.795 115.962 109.165 118.092 109.918C122.858 111.603 121.096 118.324 116.248 118.356C114.356 118.369 113.472 118.249 111.81 117.162" stroke="#663366" stroke-width="4.22535" stroke-miterlimit="10" stroke-linecap="round" stroke-linejoin="round"/>
<path d="M116.354 118.645V121.428" stroke="#663366" stroke-width="4.22535" stroke-miterlimit="10" stroke-linecap="round" stroke-linejoin="round"/>
<path d="M116.354 98.1445V100.928" stroke="#663366" stroke-width="4.22535" stroke-miterlimit="10" stroke-linecap="round" stroke-linejoin="round"/>
</svg>
