<svg width="150" height="150" viewBox="0 0 150 150" fill="none" xmlns="http://www.w3.org/2000/svg">
<path d="M89.5114 49.6919C89.5114 42.4767 83.6424 36.6075 76.427 36.6075C69.2116 36.6075 63.3426 42.4765 63.3426 49.6919C63.3426 50.8832 64.3118 51.8524 65.5031 51.8524H87.3512C88.5426 51.8524 89.5114 50.8832 89.5114 49.6919ZM67.9338 47.5314C68.8963 43.7421 72.3424 40.9287 76.4279 40.9287C80.5134 40.9287 83.9527 43.7421 84.9219 47.5314H67.9338ZM76.4279 35.5576C80.971 35.5576 84.666 31.8626 84.666 27.3194C84.666 22.7763 80.971 19.0813 76.4279 19.0813C71.8847 19.0813 68.1897 22.7763 68.1897 27.3194C68.1897 31.8626 71.8847 35.5576 76.4279 35.5576ZM76.4279 23.4021C78.5884 23.4021 80.345 25.1588 80.345 27.3193C80.345 29.4798 78.5884 31.2364 76.4279 31.2364C74.2673 31.2364 72.5107 29.4798 72.5107 27.3193C72.5107 25.1588 74.2673 23.4021 76.4279 23.4021ZM116.535 85.5866C109.528 85.5866 103.107 88.1375 98.1399 92.3509L82.9153 81.2319V63.1745C95.4881 60.2265 104.891 48.9258 104.891 35.4646C104.891 19.7687 92.1228 7 76.4263 7C60.7298 7 47.9617 19.7681 47.9617 35.4646C47.9617 48.9325 57.3643 60.2333 69.9511 63.1745V81.2319L53.1313 93.5019C48.016 88.6019 41.0902 85.5866 33.4646 85.5866C17.7687 85.5866 5 98.3546 5 114.051C5 129.747 17.7681 142.516 33.4646 142.516C49.1611 142.516 61.9292 129.748 61.9292 114.051C61.9292 110.659 61.3301 107.401 60.2331 104.379L76.4336 92.5602L90.4131 102.764C88.9122 106.23 88.0708 110.04 88.0708 114.051C88.0708 129.747 100.839 142.516 116.535 142.516C132.232 142.516 145 129.748 145 114.051C145 98.3553 132.232 85.5866 116.535 85.5866ZM52.2846 35.4703C52.2846 22.157 63.1143 11.3271 76.4279 11.3271C89.7414 11.3271 100.571 22.1567 100.571 35.4703C100.571 48.7835 89.7414 59.6135 76.4279 59.6135C63.1143 59.6135 52.2846 48.7838 52.2846 35.4703ZM33.4656 138.193C20.1524 138.193 9.32241 127.363 9.32241 114.049C9.32241 100.736 20.1521 89.9062 33.4656 89.9062C46.7788 89.9062 57.6088 100.736 57.6088 114.049C57.6088 127.363 46.7792 138.193 33.4656 138.193ZM77.7132 88.1367C76.9527 87.5847 75.9228 87.5847 75.1623 88.1367L58.4097 100.36C57.7097 99.0875 56.9155 97.8827 56.0338 96.7384L73.3848 84.0848C73.9434 83.6809 74.2732 83.0281 74.2732 82.3416V63.8465C74.9867 63.9003 75.7001 63.934 76.427 63.934C77.1539 63.934 77.8808 63.9003 78.5943 63.8465V82.3416C78.5943 83.0281 78.9241 83.6809 79.4827 84.0848L95.0371 95.4392C94.0948 96.5296 93.2332 97.6873 92.4592 98.9055L77.7132 88.1367ZM116.542 138.193C103.229 138.193 92.3987 127.363 92.3987 114.049C92.3987 100.736 103.228 89.9062 116.542 89.9062C129.855 89.9062 140.685 100.736 140.685 114.049C140.685 127.363 129.855 138.193 116.542 138.193ZM116.542 115.194C109.327 115.194 103.457 121.063 103.457 128.278C103.457 129.469 104.427 130.438 105.618 130.438H127.466C128.657 130.438 129.627 129.469 129.627 128.278C129.627 121.063 123.757 115.194 116.542 115.194ZM108.048 126.117C109.01 122.328 112.456 119.515 116.542 119.515C120.627 119.515 124.067 122.328 125.036 126.117H108.048ZM116.542 114.144C121.085 114.144 124.78 110.448 124.78 105.905C124.78 101.362 121.085 97.6671 116.542 97.6671C111.999 97.6671 108.304 101.362 108.304 105.905C108.304 110.448 111.999 114.144 116.542 114.144ZM116.542 101.988C118.702 101.988 120.459 103.745 120.459 105.905C120.459 108.066 118.702 109.822 116.542 109.822C114.381 109.822 112.625 108.066 112.625 105.905C112.625 103.745 114.381 101.988 116.542 101.988ZM33.4656 115.194C26.2504 115.194 20.3812 121.063 20.3812 128.278C20.3812 129.469 21.3504 130.438 22.5417 130.438H44.3899C45.5812 130.438 46.5504 129.469 46.5504 128.278C46.5504 121.063 40.681 115.194 33.4656 115.194ZM24.9716 126.117C25.934 122.328 29.3801 119.515 33.4656 119.515C37.5511 119.515 40.9905 122.328 41.9597 126.117H24.9716ZM33.4656 114.144C38.0088 114.144 41.7038 110.448 41.7038 105.905C41.7038 101.362 38.0088 97.6671 33.4656 97.6671C28.9225 97.6671 25.2274 101.362 25.2274 105.905C25.2274 110.448 28.9225 114.144 33.4656 114.144ZM33.4656 101.988C35.6261 101.988 37.3828 103.745 37.3828 105.905C37.3828 108.066 35.6261 109.822 33.4656 109.822C31.3051 109.822 29.5485 108.066 29.5485 105.905C29.5485 103.745 31.3051 101.988 33.4656 101.988Z" fill="#663366"/>
</svg>
