<svg width="150" height="150" viewBox="0 0 150 150" fill="none" xmlns="http://www.w3.org/2000/svg">
<path d="M145 136.786C137.689 136.786 133.913 143.917 127.24 143.917C120.567 143.917 116.791 136.786 109.48 136.786C102.168 136.786 98.3923 143.917 91.7195 143.917C85.0464 143.917 81.2707 136.786 73.9594 136.786C66.648 136.786 62.8723 143.917 56.1992 143.917C49.5264 143.917 45.7507 136.786 38.439 136.786C31.1277 136.786 27.352 143.917 20.6789 143.917C14.6693 143.917 11.009 138.134 5 136.984V107.648H42.6016C44.891 107.648 46.7638 109.522 46.7638 111.811C46.7638 114.1 44.8901 115.974 42.6016 115.974H5" stroke="white" stroke-width="4.16256" stroke-miterlimit="22.9256"/>
<path d="M38.4395 115.973V136.785" stroke="white" stroke-width="4.16256" stroke-miterlimit="22.9256"/>
<path d="M109.481 136.785C114.855 136.785 119.654 134.204 122.703 130.222M124.855 126.507C125.677 124.542 126.131 122.388 126.131 120.135V103.484L91.7209 93.0781L57.3105 103.484V120.135C57.3105 129.292 64.8031 136.785 73.9607 136.785" stroke="white" stroke-width="4.16256" stroke-miterlimit="22.9256"/>
<path d="M121.967 102.228V93.5304L91.7188 84.3828L61.4707 93.5304V102.228" stroke="white" stroke-width="4.16256" stroke-miterlimit="22.9256"/>
<path d="M65.6328 92.2699V74.957H117.804V92.2699" stroke="white" stroke-width="4.16256" stroke-miterlimit="22.9256"/>
<path d="M85.4766 74.9579V66.6328H97.9642V74.9579" stroke="white" stroke-width="4.16256" stroke-miterlimit="22.9256"/>
<path d="M91.7188 93.0781V143.916" stroke="white" stroke-width="4.16256" stroke-miterlimit="22.9256"/>
<path d="M9.16211 107.649V99.3242H38.4386V107.649" stroke="white" stroke-width="4.16256" stroke-miterlimit="22.9256"/>
<path d="M15.4766 99.3249V32.7238M15.4766 20.2362V6H21.7204M25.8829 6H32.1267V20.2362M32.2799 32.7238V99.3246" stroke="white" stroke-width="4.16256" stroke-miterlimit="22.9256"/>
<path fill-rule="evenodd" clip-rule="evenodd" d="M5 20.2344H75.0697L116.694 24.3969V32.722H5V20.2344Z" stroke="white" stroke-width="4.16256" stroke-miterlimit="22.9256"/>
<path d="M15.4766 49.3711H32.1267" stroke="white" stroke-width="4.16256" stroke-miterlimit="22.9256"/>
<path d="M15.4766 66.0234H32.1267M32.1267 82.6736H15.4766" stroke="white" stroke-width="4.16256" stroke-miterlimit="22.9256"/>
<path d="M15.4766 32.7227L32.1267 49.3728M15.4766 82.6734L32.2799 99.3235M15.4766 66.0232L32.1267 82.6734M15.4766 49.3728L32.1267 66.023" stroke="white" stroke-width="4.16256" stroke-miterlimit="22.9256"/>
<path d="M37.6074 20.2344L50.0948 32.722M62.5824 20.2344L75.0697 32.722M50.095 20.2344L62.5824 32.722" stroke="white" stroke-width="4.16256" stroke-miterlimit="22.9256"/>
<path d="M96.922 48.9424C96.922 51.8159 94.5923 54.1456 91.7188 54.1456C88.8453 54.1456 86.5156 51.8159 86.5156 48.9424C86.5156 46.0689 88.8453 43.7392 91.7188 43.7392V32.7227" stroke="white" stroke-width="4.16256" stroke-miterlimit="22.9256"/>
<path d="M114.143 108.558L118.127 109.763M106.174 106.148L110.158 107.353" stroke="white" stroke-width="4.16256" stroke-miterlimit="22.9256"/>
</svg>
