<svg width="150" height="150" viewBox="0 0 150 150" fill="none" xmlns="http://www.w3.org/2000/svg">
<path d="M82.6214 145.002H52.5438L52.543 124.254" stroke="white" stroke-width="4.22537" stroke-miterlimit="10" stroke-linecap="round" stroke-linejoin="round"/>
<path d="M97.4554 124.254L97.4562 145.002H92.5449" stroke="white" stroke-width="4.22537" stroke-miterlimit="10" stroke-linecap="round" stroke-linejoin="round"/>
<path d="M87.6328 106.543L97.454 109.704" stroke="white" stroke-width="4.22537" stroke-miterlimit="10" stroke-linecap="round" stroke-linejoin="round"/>
<path d="M67.7863 101.189L67.7852 94.8242" stroke="white" stroke-width="4.22537" stroke-miterlimit="10" stroke-linecap="round" stroke-linejoin="round"/>
<path d="M82.2123 94.8242L82.2109 101.189" stroke="white" stroke-width="4.22537" stroke-miterlimit="10" stroke-linecap="round" stroke-linejoin="round"/>
<path d="M56.0478 84.5505C55.5292 83.004 55.248 81.3485 55.248 79.6274V67.3828" stroke="white" stroke-width="4.22537" stroke-miterlimit="10" stroke-linecap="round" stroke-linejoin="round"/>
<path d="M94.7491 67.3828V79.6274C94.7491 88.1733 87.8212 95.1012 79.2752 95.1012H70.7223C67.6645 95.1012 64.8141 94.2144 62.4141 92.6837" stroke="white" stroke-width="4.22537" stroke-miterlimit="10" stroke-linecap="round" stroke-linejoin="round"/>
<path d="M99.5441 67.3828H94.75V79.6274H99.5441C101.16 79.6274 102.47 78.3172 102.47 76.7012V70.3093C102.471 68.693 101.16 67.3828 99.5441 67.3828Z" stroke="white" stroke-width="4.22537" stroke-miterlimit="10" stroke-linecap="round" stroke-linejoin="round"/>
<path d="M50.4536 67.3828H55.2476V79.6274H50.4536C48.8375 79.6274 47.5273 78.3172 47.5273 76.7012V70.3093C47.5271 68.693 48.8372 67.3828 50.4536 67.3828Z" stroke="white" stroke-width="4.22537" stroke-miterlimit="10" stroke-linecap="round" stroke-linejoin="round"/>
<path d="M97.4551 109.703L99.8664 110.478C105.906 112.421 109.999 118.038 109.999 124.382V137.095" stroke="white" stroke-width="4.22537" stroke-miterlimit="10" stroke-linecap="round" stroke-linejoin="round"/>
<path d="M109.999 137.098V141.87C109.999 143.599 108.596 145.002 106.866 145.002H97.4551V137.098H109.999Z" stroke="white" stroke-width="4.22537" stroke-miterlimit="10" stroke-linecap="round" stroke-linejoin="round"/>
<path d="M62.364 106.543L50.1324 110.48C44.093 112.424 40 118.041 40 124.384V137.097" stroke="white" stroke-width="4.22537" stroke-miterlimit="10" stroke-linecap="round" stroke-linejoin="round"/>
<path d="M40 137.098H52.5437V145H43.1324C41.4025 145 40 143.598 40 141.868V137.098Z" stroke="white" stroke-width="4.22537" stroke-miterlimit="10" stroke-linecap="round" stroke-linejoin="round"/>
<path d="M74.998 72.9844V78.0821" stroke="white" stroke-width="4.22537" stroke-miterlimit="10" stroke-linecap="round" stroke-linejoin="round"/>
<path d="M82.2093 101.188L74.998 108.643L78.7696 113.029C79.6426 114.044 81.2153 114.042 82.086 113.025L87.6333 106.544L82.2093 101.188Z" stroke="white" stroke-width="4.22537" stroke-miterlimit="10" stroke-linecap="round" stroke-linejoin="round"/>
<path d="M67.7872 101.188L74.9985 108.643L71.227 113.029C70.354 114.044 68.7813 114.042 67.9106 113.025L62.3633 106.544L67.7872 101.188Z" stroke="white" stroke-width="4.22537" stroke-miterlimit="10" stroke-linecap="round" stroke-linejoin="round"/>
<path d="M81.3164 126.727H88.0023" stroke="white" stroke-width="4.22537" stroke-miterlimit="10" stroke-linecap="round" stroke-linejoin="round"/>
<path d="M143.133 101.202L141.234 99.6193C141.527 98.4475 141.685 97.225 141.685 95.9658C141.685 94.7038 141.527 93.4813 141.234 92.3094L143.133 90.7263C143.744 90.2165 143.902 89.3376 143.502 88.6475L141.403 85.0108C141.003 84.3207 140.166 84.0165 139.417 84.2925L137.093 85.146C135.341 83.4503 133.178 82.1798 130.769 81.4925L130.347 79.0559C130.209 78.27 129.527 77.6953 128.73 77.6953H124.53C123.733 77.6953 123.051 78.27 122.916 79.0559L122.493 81.4925C120.085 82.1798 117.921 83.4503 116.169 85.146L113.842 84.2925C113.096 84.0165 112.257 84.3207 111.859 85.0108L109.758 88.6475C109.361 89.3376 109.516 90.2165 110.13 90.7263L112.026 92.3094C111.735 93.4813 111.578 94.7038 111.578 95.9658C111.578 97.225 111.735 98.4475 112.026 99.6193L110.13 101.202C109.516 101.712 109.361 102.591 109.758 103.281L111.859 106.918C112.257 107.608 113.096 107.912 113.842 107.636L116.169 106.783C117.921 108.479 120.085 109.749 122.493 110.436L122.916 112.876C123.051 113.659 123.733 114.233 124.53 114.233H128.73C129.527 114.233 130.209 113.659 130.347 112.876L130.769 110.436C133.178 109.749 135.341 108.479 137.093 106.783L139.417 107.636C140.166 107.912 141.003 107.608 141.403 106.918L143.502 103.281C143.902 102.591 143.744 101.712 143.133 101.202ZM126.631 103.371C122.538 103.371 119.223 100.056 119.223 95.9658C119.223 91.8728 122.538 88.5573 126.631 88.5573C130.721 88.5573 134.037 91.8728 134.037 95.9658C134.037 100.056 130.721 103.371 126.631 103.371Z" stroke="white" stroke-width="4.22537" stroke-miterlimit="10" stroke-linecap="round" stroke-linejoin="round"/>
<path d="M42.4331 35.957L6.41273 56.7371C5.06174 57.5171 4.59892 59.2444 5.37892 60.5954L12.4973 72.9245C13.2773 74.2755 15.0046 74.7383 16.3556 73.9583L50.7377 54.1284" stroke="white" stroke-width="4.22537" stroke-miterlimit="10" stroke-linecap="round" stroke-linejoin="round"/>
<path d="M97.848 49.8903L131.424 30.4837C132.775 29.7037 134.502 30.1666 135.282 31.5175C136.589 33.7801 139.978 33.3339 140.654 30.8102L144.834 15.2121C145.526 12.6302 143.993 9.97635 141.412 9.28452L125.814 5.10535C123.29 4.42929 121.209 7.14141 122.515 9.40395C123.295 10.7549 122.832 12.4823 121.481 13.2623L89.495 31.7604C87.8798 32.693 85.8141 32.1395 84.8815 30.5243L78.0395 18.6738C77.2595 17.3229 75.5321 16.86 74.1811 17.64L51.3887 30.7891" stroke="white" stroke-width="4.22537" stroke-miterlimit="10" stroke-linecap="round" stroke-linejoin="round"/>
<path d="M96.3963 47.5878C93.4896 43.776 88.9707 41.5391 84.1772 41.5391H74.9994H65.8216C61.0281 41.5391 56.5092 43.776 53.6024 47.5878C51.561 50.265 50.4551 53.5388 50.4551 56.9056V67.3842H55.2492L60.0419 61.4087C61.1872 59.9808 63.2061 59.5873 64.7889 60.5064C66.8317 61.6926 70.1751 62.9974 74.9991 62.9974C79.8231 62.9974 83.1664 61.6929 85.2093 60.5064C86.7924 59.5873 88.811 59.9808 89.9563 61.4087L94.749 67.3842H99.5431V56.9056C99.5437 53.5385 98.4378 50.265 96.3963 47.5878Z" stroke="white" stroke-width="4.22537" stroke-miterlimit="10" stroke-linecap="round" stroke-linejoin="round"/>
<path d="M78.1417 84.5159C77.3538 85.319 76.2563 85.8171 75.0425 85.8171C73.7839 85.8171 72.6504 85.2816 71.8574 84.4258" stroke="white" stroke-width="4.22537" stroke-miterlimit="10" stroke-linecap="round" stroke-linejoin="round"/>
</svg>
