<svg width="150" height="150" viewBox="0 0 150 150" fill="none" xmlns="http://www.w3.org/2000/svg">
<path d="M140.2 132.795V122.82" stroke="#663366" stroke-width="4.22535" stroke-miterlimit="10" stroke-linecap="round" stroke-linejoin="round"/>
<path d="M119.321 85.1953H138.792C139.569 85.1953 140.2 85.8263 140.2 86.6038V112.961" stroke="#663366" stroke-width="4.22535" stroke-miterlimit="10" stroke-linecap="round" stroke-linejoin="round"/>
<path d="M9.85742 132.892V86.6038C9.85742 85.826 10.4881 85.1953 11.2659 85.1953H30.8582" stroke="#663366" stroke-width="4.22535" stroke-miterlimit="10" stroke-linecap="round" stroke-linejoin="round"/>
<path d="M46.8568 70.7491L31.4238 62.4336V132.893" stroke="#663366" stroke-width="4.22535" stroke-miterlimit="10" stroke-linecap="round" stroke-linejoin="round"/>
<path d="M103.506 70.5846L118.633 62.4336V132.797" stroke="#663366" stroke-width="4.22535" stroke-miterlimit="10" stroke-linecap="round" stroke-linejoin="round"/>
<path d="M59.7754 50.6976L69.3895 42.2188V65.3314" stroke="#663366" stroke-width="4.22535" stroke-miterlimit="10" stroke-linecap="round" stroke-linejoin="round"/>
<path d="M47.2539 132.889V62.3765C47.2539 61.9709 47.4286 61.5878 47.73 61.3202L52.3807 57.2188" stroke="#663366" stroke-width="4.22535" stroke-miterlimit="10" stroke-linecap="round" stroke-linejoin="round"/>
<path d="M102.83 132.603V62.3762C102.83 61.972 102.657 61.5872 102.354 61.3199L80.6953 42.2188V65.7168" stroke="#663366" stroke-width="4.22535" stroke-miterlimit="10" stroke-linecap="round" stroke-linejoin="round"/>
<path d="M62.4922 132.798V67.5135C62.4922 66.8912 62.9967 66.3867 63.6189 66.3867H86.0296C86.6519 66.3867 87.1564 66.8912 87.1564 67.5135V132.798" stroke="#663366" stroke-width="4.22535" stroke-miterlimit="10" stroke-linecap="round" stroke-linejoin="round"/>
<path d="M74.877 80.7969V87.816" stroke="#663366" stroke-width="4.22535" stroke-miterlimit="10" stroke-linecap="round" stroke-linejoin="round"/>
<path d="M74.8262 97.5898V104.609" stroke="#663366" stroke-width="4.22535" stroke-miterlimit="10" stroke-linecap="round" stroke-linejoin="round"/>
<path d="M74.8262 114.379V121.398" stroke="#663366" stroke-width="4.22535" stroke-miterlimit="10" stroke-linecap="round" stroke-linejoin="round"/>
<path d="M39.4316 80.7969V87.816" stroke="#663366" stroke-width="4.22535" stroke-miterlimit="10" stroke-linecap="round" stroke-linejoin="round"/>
<path d="M39.3789 97.5898V104.609" stroke="#663366" stroke-width="4.22535" stroke-miterlimit="10" stroke-linecap="round" stroke-linejoin="round"/>
<path d="M39.3789 114.379V121.398" stroke="#663366" stroke-width="4.22535" stroke-miterlimit="10" stroke-linecap="round" stroke-linejoin="round"/>
<path d="M110.475 80.7969V87.816" stroke="#663366" stroke-width="4.22535" stroke-miterlimit="10" stroke-linecap="round" stroke-linejoin="round"/>
<path d="M110.422 97.5898V104.609" stroke="#663366" stroke-width="4.22535" stroke-miterlimit="10" stroke-linecap="round" stroke-linejoin="round"/>
<path d="M110.422 114.379V121.398" stroke="#663366" stroke-width="4.22535" stroke-miterlimit="10" stroke-linecap="round" stroke-linejoin="round"/>
<path d="M22.459 84.6335V57.4727" stroke="#663366" stroke-width="4.22535" stroke-miterlimit="10" stroke-linecap="round" stroke-linejoin="round"/>
<path d="M22.4583 56.9127C25.325 56.9127 27.649 54.5887 27.649 51.722C27.649 48.8552 25.325 46.5312 22.4583 46.5312C19.5915 46.5312 17.2676 48.8552 17.2676 51.722C17.2676 54.5887 19.5915 56.9127 22.4583 56.9127Z" stroke="#663366" stroke-width="4.22535" stroke-miterlimit="10" stroke-linecap="round" stroke-linejoin="round"/>
<path d="M58.3205 16.3442C60.6247 16.3442 62.4927 14.4763 62.4927 12.1721C62.4927 9.86792 60.6247 8 58.3205 8C56.0164 8 54.1484 9.86792 54.1484 12.1721C54.1484 14.4763 56.0164 16.3442 58.3205 16.3442Z" stroke="#663366" stroke-width="4.22535" stroke-miterlimit="10" stroke-linecap="round" stroke-linejoin="round"/>
<path d="M91.7619 16.3442C94.0661 16.3442 95.9341 14.4763 95.9341 12.1721C95.9341 9.86792 94.0661 8 91.7619 8C89.4578 8 87.5898 9.86792 87.5898 12.1721C87.5898 14.4763 89.4578 16.3442 91.7619 16.3442Z" stroke="#663366" stroke-width="4.22535" stroke-miterlimit="10" stroke-linecap="round" stroke-linejoin="round"/>
<path d="M127.55 84.3854V57.1953" stroke="#663366" stroke-width="4.22535" stroke-miterlimit="10" stroke-linecap="round" stroke-linejoin="round"/>
<path d="M127.55 56.9127C130.417 56.9127 132.741 54.5887 132.741 51.722C132.741 48.8552 130.417 46.5312 127.55 46.5312C124.683 46.5312 122.359 48.8552 122.359 51.722C122.359 54.5887 124.683 56.9127 127.55 56.9127Z" stroke="#663366" stroke-width="4.22535" stroke-miterlimit="10" stroke-linecap="round" stroke-linejoin="round"/>
<path d="M113.726 32.928C117.21 29.4443 122.016 27.2852 127.314 27.2852C132.612 27.2852 137.419 29.4446 140.903 32.928" stroke="#663366" stroke-width="4.22535" stroke-miterlimit="10" stroke-linecap="round" stroke-linejoin="round"/>
<path d="M120.548 39.7599C122.283 38.0252 124.673 36.9531 127.315 36.9531C129.956 36.9531 132.346 38.0255 134.081 39.7599" stroke="#663366" stroke-width="4.22535" stroke-miterlimit="10" stroke-linecap="round" stroke-linejoin="round"/>
<path d="M8.86914 32.928C12.3534 29.4443 17.1598 27.2852 22.4579 27.2852C27.7559 27.2852 32.5624 29.4446 36.0466 32.928" stroke="#663366" stroke-width="4.22535" stroke-miterlimit="10" stroke-linecap="round" stroke-linejoin="round"/>
<path d="M15.6914 39.7599C17.4263 38.0252 19.8162 36.9531 22.4582 36.9531C25.1001 36.9531 27.49 38.0255 29.2249 39.7599" stroke="#663366" stroke-width="4.22535" stroke-miterlimit="10" stroke-linecap="round" stroke-linejoin="round"/>
<path d="M24.6422 141.98H5" stroke="#663366" stroke-width="4.22535" stroke-miterlimit="10" stroke-linecap="round" stroke-linejoin="round"/>
<path d="M145 141.98H34.502" stroke="#663366" stroke-width="4.22535" stroke-miterlimit="10" stroke-linecap="round" stroke-linejoin="round"/>
<path d="M144.999 133.543H79.957" stroke="#663366" stroke-width="4.22535" stroke-miterlimit="10" stroke-linecap="round" stroke-linejoin="round"/>
<path d="M70.0985 133.543H5" stroke="#663366" stroke-width="4.22535" stroke-miterlimit="10" stroke-linecap="round" stroke-linejoin="round"/>
<circle cx="58.3217" cy="42.1205" r="2.11267" fill="#663366"/>
<circle cx="58.3217" cy="33.6517" r="2.11267" fill="#663366"/>
<circle cx="58.3217" cy="25.183" r="2.11267" fill="#663366"/>
<circle cx="91.7631" cy="42.1205" r="2.11267" fill="#663366"/>
<circle cx="91.7631" cy="33.6517" r="2.11267" fill="#663366"/>
<circle cx="91.7631" cy="25.183" r="2.11267" fill="#663366"/>
<path d="M31.4244 97.2578H19.4238V104.937H31.4244V97.2578Z" stroke="#663366" stroke-width="4.22535" stroke-miterlimit="10" stroke-linecap="round" stroke-linejoin="round"/>
<path d="M31.4244 114.051H19.4238V121.73H31.4244V114.051Z" stroke="#663366" stroke-width="4.22535" stroke-miterlimit="10" stroke-linecap="round" stroke-linejoin="round"/>
<path d="M130.633 97.2578H118.633V104.937H130.633V97.2578Z" stroke="#663366" stroke-width="4.22535" stroke-miterlimit="10" stroke-linecap="round" stroke-linejoin="round"/>
<path d="M94.7799 105.453H87.1562V121.729H94.7799V105.453Z" stroke="#663366" stroke-width="4.22535" stroke-miterlimit="10" stroke-linecap="round" stroke-linejoin="round"/>
<path d="M94.7799 80.7969H87.1562V97.0732H94.7799V80.7969Z" stroke="#663366" stroke-width="4.22535" stroke-miterlimit="10" stroke-linecap="round" stroke-linejoin="round"/>
<path d="M62.4928 105.453H54.8691V121.729H62.4928V105.453Z" stroke="#663366" stroke-width="4.22535" stroke-miterlimit="10" stroke-linecap="round" stroke-linejoin="round"/>
<path d="M62.4928 80.7969H54.8691V97.0732H62.4928V80.7969Z" stroke="#663366" stroke-width="4.22535" stroke-miterlimit="10" stroke-linecap="round" stroke-linejoin="round"/>
<path d="M130.633 114.051H118.633V121.73H130.633V114.051Z" stroke="#663366" stroke-width="4.22535" stroke-miterlimit="10" stroke-linecap="round" stroke-linejoin="round"/>
</svg>
