<svg width="150" height="150" viewBox="0 0 150 150" fill="none" xmlns="http://www.w3.org/2000/svg">
<path d="M102.534 40.389C102.534 20.8441 86.6898 5 67.1449 5C47.6 5 31.7559 20.8441 31.7559 40.389" stroke="white" stroke-width="4.22532" stroke-miterlimit="10" stroke-linecap="round" stroke-linejoin="round"/>
<path d="M82.3594 72.349C87.0489 70.1121 91.1697 66.8752 94.4432 62.9116C99.4967 56.7927 102.533 48.9463 102.533 40.3906" stroke="white" stroke-width="4.22532" stroke-miterlimit="10" stroke-linecap="round" stroke-linejoin="round"/>
<path d="M45.0752 102.141H12.8169C11.2611 102.141 10 103.402 10 104.958V114.219C10 115.775 11.2611 117.036 12.8169 117.036H31.5545" stroke="white" stroke-width="4.22532" stroke-miterlimit="10" stroke-linecap="round" stroke-linejoin="round"/>
<path d="M12.8169 87.2461C11.2611 87.2461 10 88.5072 10 90.063V99.3249C10 100.881 11.2611 102.142 12.8169 102.142" stroke="white" stroke-width="4.22532" stroke-miterlimit="10" stroke-linecap="round" stroke-linejoin="round"/>
<path d="M37.1784 87.2433H47.329C45.7732 87.2433 44.5121 85.9822 44.5121 84.4264V75.1645C44.5121 73.6088 45.7732 72.3477 47.329 72.3477H12.8169C11.2611 72.3477 10 73.6088 10 75.1645V84.4264C10 85.9822 11.2611 87.2433 12.8169 87.2433H27.3193" stroke="white" stroke-width="4.22532" stroke-miterlimit="10" stroke-linecap="round" stroke-linejoin="round"/>
<path d="M50.9515 57.4531H12.8169C11.2611 57.4531 10 58.7142 10 60.27V69.5319C10 71.0877 11.2611 72.3488 12.8169 72.3488H52.4498C54.0056 72.3488 55.2667 71.0877 55.2667 69.5319V60.6999C53.7036 59.7838 52.2571 58.6926 50.9515 57.4531Z" stroke="white" stroke-width="4.22532" stroke-miterlimit="10" stroke-linecap="round" stroke-linejoin="round"/>
<path d="M43.718 42.5586H12.8169C11.2611 42.5586 10 43.8197 10 45.3755V54.6374C10 56.1931 11.2611 57.4543 12.8169 57.4543H50.9518C46.9268 53.6332 44.2524 48.407 43.718 42.5586Z" stroke="white" stroke-width="4.22532" stroke-miterlimit="10" stroke-linecap="round" stroke-linejoin="round"/>
<path d="M89.7784 107.211V114.219C89.7784 115.775 88.5173 117.036 86.9615 117.036H44.5117" stroke="white" stroke-width="4.22532" stroke-miterlimit="10" stroke-linecap="round" stroke-linejoin="round"/>
<path d="M89.7784 97.7863V90.0591C89.7784 88.5033 88.5173 87.2422 86.9615 87.2422H47.3286C45.7728 87.2422 44.5117 88.5033 44.5117 90.0591V99.321C44.5117 100.679 45.4731 101.812 46.7523 102.078" stroke="white" stroke-width="4.22532" stroke-miterlimit="10" stroke-linecap="round" stroke-linejoin="round"/>
<path d="M86.9615 87.2433H47.3286C45.7728 87.2433 44.5117 85.9822 44.5117 84.4264V75.1645C44.5117 73.6088 45.7728 72.3477 47.3286 72.3477H86.9615C88.5173 72.3477 89.7784 73.6088 89.7784 75.1645V84.4264C89.7784 85.9822 88.5173 87.2433 86.9615 87.2433Z" stroke="white" stroke-width="4.22532" stroke-miterlimit="10" stroke-linecap="round" stroke-linejoin="round"/>
<path d="M80.529 21.0408C76.7285 18.4067 72.1181 16.8594 67.1438 16.8594C54.1484 16.8594 43.6133 27.3942 43.6133 40.3899C43.6133 53.3853 54.1481 63.9204 67.1438 63.9204C80.1395 63.9204 90.6743 53.385 90.6743 40.3896C90.6743 35.9373 89.4369 31.7742 87.2884 28.2241" stroke="white" stroke-width="4.22532" stroke-miterlimit="10" stroke-linecap="round" stroke-linejoin="round"/>
<path d="M74.616 34.6695C74.616 32.2244 72.6337 30.2422 70.1887 30.2422H64.1011C61.6561 30.2422 59.6738 32.2244 59.6738 34.6695V35.9607C59.6738 38.4058 61.6561 40.388 64.1011 40.388H70.1887C72.6337 40.388 74.616 42.3703 74.616 44.8153V46.1066C74.616 48.5516 72.6337 50.5339 70.1887 50.5339H64.1011C61.6561 50.5339 59.6738 48.5516 59.6738 46.1066" stroke="white" stroke-width="4.22532" stroke-miterlimit="10" stroke-linecap="round" stroke-linejoin="round"/>
<path d="M67.1445 26.1875V30.2458" stroke="white" stroke-width="4.22532" stroke-miterlimit="10" stroke-linecap="round" stroke-linejoin="round"/>
<path d="M67.1445 50.5352V54.5937" stroke="white" stroke-width="4.22532" stroke-miterlimit="10" stroke-linecap="round" stroke-linejoin="round"/>
<path d="M139.967 53.0039H115.185C114.654 53.0039 114.223 53.4352 114.223 53.9656V60.3771C114.223 60.9075 114.654 61.3388 115.185 61.3388H126.699L90.2497 97.7883H52.7697C51.6565 97.7883 50.6097 98.2219 49.8227 99.0089L19.7812 129.051C22.7114 129.686 25.0471 131.912 25.8401 134.78L54.4962 106.123H91.9762C93.0894 106.123 94.1359 105.69 94.9232 104.903L132.594 67.2328V78.6505C132.594 79.1809 133.025 79.6121 133.555 79.6121H139.967C140.497 79.6121 140.928 79.1809 140.928 78.6505V53.9659C140.928 53.4352 140.497 53.0039 139.967 53.0039Z" stroke="white" stroke-width="4.22532" stroke-miterlimit="10" stroke-linecap="round" stroke-linejoin="round"/>
<path d="M18.067 145.001C22.5222 145.001 26.134 141.389 26.134 136.934C26.134 132.479 22.5222 128.867 18.067 128.867C13.6117 128.867 10 132.479 10 136.934C10 141.389 13.6117 145.001 18.067 145.001Z" stroke="white" stroke-width="4.22532" stroke-miterlimit="10" stroke-linecap="round" stroke-linejoin="round"/>
<path d="M54.0156 145H42.4492V132.341C42.4492 131.874 42.8275 131.496 43.2943 131.496H53.1705C53.6373 131.496 54.0156 131.874 54.0156 132.341V145Z" stroke="white" stroke-width="4.22532" stroke-miterlimit="10" stroke-linecap="round" stroke-linejoin="round"/>
<path d="M75.7441 144.999H64.1777V125.755C64.1777 125.288 64.556 124.91 65.0228 124.91H74.8991C75.3658 124.91 75.7441 125.288 75.7441 125.755V144.999Z" stroke="white" stroke-width="4.22532" stroke-miterlimit="10" stroke-linecap="round" stroke-linejoin="round"/>
<path d="M97.4707 144.999H85.9043V125.755C85.9043 125.288 86.2826 124.91 86.7494 124.91H96.6256C97.0924 124.91 97.4707 125.288 97.4707 125.755V144.999Z" stroke="white" stroke-width="4.22532" stroke-miterlimit="10" stroke-linecap="round" stroke-linejoin="round"/>
<path d="M119.199 120.655V104.806C119.199 104.339 118.821 103.961 118.354 103.961H108.478C108.011 103.961 107.633 104.339 107.633 104.806V145.001H119.199V130.514" stroke="white" stroke-width="4.22532" stroke-miterlimit="10" stroke-linecap="round" stroke-linejoin="round"/>
<path d="M140.928 145.002H129.361V88.1849C129.361 87.7182 129.74 87.3398 130.206 87.3398H140.083C140.549 87.3398 140.928 87.7182 140.928 88.1849V145.002Z" stroke="white" stroke-width="4.22532" stroke-miterlimit="10" stroke-linecap="round" stroke-linejoin="round"/>
<path d="M42.4492 145H140.929" stroke="white" stroke-width="4.22532" stroke-miterlimit="10" stroke-linecap="round" stroke-linejoin="round"/>
</svg>
