<svg width="150" height="150" viewBox="0 0 150 150" fill="none" xmlns="http://www.w3.org/2000/svg">
<path d="M66.5142 123.058H63.5266C59.319 123.058 55.9082 119.647 55.9082 115.44V71.2824C55.9082 67.0749 59.319 63.6641 63.5266 63.6641H103.441C107.649 63.6641 111.06 67.0749 111.06 71.2824V123.058H83.4841" stroke="#663366" stroke-width="4.22585" stroke-miterlimit="10" stroke-linecap="round" stroke-linejoin="round"/>
<path d="M136.515 123.061H140.774C143.108 123.061 145 121.169 145 118.835V108.703C145 107.102 144.095 105.639 142.664 104.923L138.495 102.839C137.255 102.219 136.398 101.03 136.202 99.6567L134.912 90.6283C134.615 88.5464 132.832 87 130.729 87H115.286C112.953 87 111.061 88.8921 111.061 91.2258V123.061H119.545" stroke="#663366" stroke-width="4.22585" stroke-miterlimit="10" stroke-linecap="round" stroke-linejoin="round"/>
<path d="M83.2559 125.017C84.3328 120.457 81.5088 115.887 76.9482 114.81C72.3877 113.733 67.8177 116.557 66.7409 121.117C65.664 125.678 68.488 130.248 73.0486 131.325C77.6091 132.402 82.1791 129.578 83.2559 125.017Z" stroke="#663366" stroke-width="4.22585" stroke-miterlimit="10" stroke-linecap="round" stroke-linejoin="round"/>
<path d="M136.287 125.021C137.364 120.461 134.54 115.891 129.979 114.814C125.419 113.737 120.849 116.561 119.772 121.121C118.695 125.682 121.519 130.252 126.08 131.329C130.64 132.406 135.21 129.582 136.287 125.021Z" stroke="#663366" stroke-width="4.22585" stroke-miterlimit="10" stroke-linecap="round" stroke-linejoin="round"/>
<path d="M137.211 101.848H126.641C123.799 101.848 121.402 99.7322 121.05 96.9127L119.811 87" stroke="#663366" stroke-width="4.22585" stroke-miterlimit="10" stroke-linecap="round" stroke-linejoin="round"/>
<path d="M15.606 89.1212V127.319C15.606 129.653 13.714 131.545 11.3802 131.545H9.22585C6.89205 131.545 5 129.653 5 127.319V49.4977C5 44.4875 7.95049 39.9476 12.5288 37.9127L57.1239 18.0926C60.4017 16.6358 64.1436 16.6358 67.4214 18.0926L112.017 37.9127C116.595 39.9476 119.545 44.4875 119.545 49.4977V87.0001" stroke="#663366" stroke-width="4.22585" stroke-miterlimit="10" stroke-linecap="round" stroke-linejoin="round"/>
<path d="M56.0113 67.9062H24.0572C19.3893 67.9062 15.6055 71.6901 15.6055 76.3579V80.6334" stroke="#663366" stroke-width="4.22585" stroke-miterlimit="10" stroke-linecap="round" stroke-linejoin="round"/>
<path d="M119.545 127.302C119.545 129.689 117.622 131.544 115.32 131.544H113.165C110.832 131.544 108.939 129.651 108.939 127.318V123.059" stroke="#663366" stroke-width="4.22585" stroke-miterlimit="10" stroke-linecap="round" stroke-linejoin="round"/>
<path d="M11.3633 131.543H115.303" stroke="#663366" stroke-width="4.22585" stroke-miterlimit="10" stroke-linecap="round" stroke-linejoin="round"/>
<path d="M55.9096 107.516C55.5639 107.805 55.1794 108.058 54.759 108.268L42.5751 114.36C39.6528 115.821 36.0988 114.637 34.6378 111.714L28.5458 99.5302C27.0845 96.6076 28.2692 93.0539 31.1918 91.5929L43.3757 85.5009C46.2983 84.0396 49.852 85.2243 51.313 88.1468L55.9096 97.3403" stroke="#663366" stroke-width="4.22585" stroke-miterlimit="10" stroke-linecap="round" stroke-linejoin="round"/>
<path d="M41.0773 86.6523L42.9821 90.4618C44.0259 92.5494 43.1796 95.0877 41.0923 96.1315C38.925 97.215 36.4176 96.3056 35.393 94.2563L33.4883 90.4469" stroke="#663366" stroke-width="4.22585" stroke-miterlimit="10" stroke-linecap="round" stroke-linejoin="round"/>
<path d="M41.2188 35.2148V38.5955" stroke="#663366" stroke-width="4.22585" stroke-miterlimit="10" stroke-linecap="round" stroke-linejoin="round"/>
<path d="M68.9477 41.3996C68.9477 37.2744 65.9592 36.8867 62.2728 36.8867C58.5862 36.8867 55.5977 37.2744 55.5977 41.3996C55.5977 45.5249 58.5862 48.869 62.2728 48.869C65.9592 48.8687 68.9477 45.5246 68.9477 41.3996Z" stroke="#663366" stroke-width="4.22585" stroke-miterlimit="10" stroke-linecap="round" stroke-linejoin="round"/>
<path d="M83.3262 35.2148V38.5955" stroke="#663366" stroke-width="4.22585" stroke-miterlimit="10" stroke-linecap="round" stroke-linejoin="round"/>
<path d="M75.0003 82.7545H72.8792C70.5361 82.7545 68.6367 80.8551 68.6367 78.512C68.6367 76.1689 70.5361 74.2695 72.8792 74.2695H94.0913C96.4343 74.2695 98.3337 76.1689 98.3337 78.512C98.3337 80.8551 96.4343 82.7545 94.0913 82.7545H83.4852" stroke="#663366" stroke-width="4.22585" stroke-miterlimit="10" stroke-linecap="round" stroke-linejoin="round"/>
<path d="M94.0912 101.848H72.8792C70.5361 101.848 68.6367 99.9488 68.6367 97.6058C68.6367 95.2627 70.5361 93.3633 72.8792 93.3633H94.0912C96.4343 93.3633 98.3337 95.2627 98.3337 97.6058C98.3337 99.9488 96.4343 101.848 94.0912 101.848Z" stroke="#663366" stroke-width="4.22585" stroke-miterlimit="10" stroke-linecap="round" stroke-linejoin="round"/>
</svg>
